<?xml version="1.0" encoding="utf-8" standalone="no"?>
<!DOCTYPE svg PUBLIC "-//W3C//DTD SVG 1.1//EN"
  "http://www.w3.org/Graphics/SVG/1.1/DTD/svg11.dtd">
<svg xmlns:xlink="http://www.w3.org/1999/xlink" width="942.530937pt" height="265.54315pt" viewBox="0 0 942.530937 265.54315" xmlns="http://www.w3.org/2000/svg" version="1.1">
 <metadata>
  <rdf:RDF xmlns:dc="http://purl.org/dc/elements/1.1/" xmlns:cc="http://creativecommons.org/ns#" xmlns:rdf="http://www.w3.org/1999/02/22-rdf-syntax-ns#">
   <cc:Work>
    <dc:type rdf:resource="http://purl.org/dc/dcmitype/StillImage"/>
    <dc:date>2026-04-17T13:16:37.258097</dc:date>
    <dc:format>image/svg+xml</dc:format>
    <dc:creator>
     <cc:Agent>
      <dc:title>Matplotlib v3.10.8, https://matplotlib.org/</dc:title>
     </cc:Agent>
    </dc:creator>
   </cc:Work>
  </rdf:RDF>
 </metadata>
 <defs>
  <style type="text/css">*{stroke-linejoin: round; stroke-linecap: butt}</style>
 </defs>
 <g id="figure_1">
  <g id="patch_1">
   <path d="M 0 265.54315 
L 942.530937 265.54315 
L 942.530937 0 
L 0 0 
z
" style="fill: #ffffff"/>
  </g>
  <g id="axes_1">
   <g id="patch_2">
    <path d="M 53.643438 228.954713 
L 935.330937 228.954713 
L 935.330937 17.061433 
L 53.643438 17.061433 
z
" style="fill: #ffffff"/>
   </g>
   <g id="patch_3">
    <path d="M 53.643438 228.954713 
L 70.598966 228.954713 
L 70.598966 17.061433 
L 53.643438 17.061433 
z
" clip-path="url(#p0eb5ab3140)" style="fill: #f8fafc; opacity: 0.45"/>
   </g>
   <g id="patch_4">
    <path d="M 70.598966 228.954713 
L 109.386124 228.954713 
L 109.386124 17.061433 
L 70.598966 17.061433 
z
" clip-path="url(#p0eb5ab3140)" style="fill: #eff6ff; opacity: 0.45"/>
   </g>
   <g id="patch_5">
    <path d="M 109.386124 228.954713 
L 137.091236 228.954713 
L 137.091236 17.061433 
L 109.386124 17.061433 
z
" clip-path="url(#p0eb5ab3140)" style="fill: #fef3c7; opacity: 0.45"/>
   </g>
   <g id="patch_6">
    <path d="M 137.091236 228.954713 
L 186.960439 228.954713 
L 186.960439 17.061433 
L 137.091236 17.061433 
z
" clip-path="url(#p0eb5ab3140)" style="fill: #dcfce7; opacity: 0.45"/>
   </g>
   <g id="patch_7">
    <path d="M 186.960439 228.954713 
L 242.370664 228.954713 
L 242.370664 17.061433 
L 186.960439 17.061433 
z
" clip-path="url(#p0eb5ab3140)" style="fill: #fee2e2; opacity: 0.45"/>
   </g>
   <g id="patch_8">
    <path d="M 242.370664 228.954713 
L 247.911686 228.954713 
L 247.911686 17.061433 
L 242.370664 17.061433 
z
" clip-path="url(#p0eb5ab3140)" style="fill: #ede9fe; opacity: 0.45"/>
   </g>
   <g id="patch_9">
    <path d="M 247.911686 228.954713 
L 391.978271 228.954713 
L 391.978271 17.061433 
L 247.911686 17.061433 
z
" clip-path="url(#p0eb5ab3140)" style="fill: #f8fafc; opacity: 0.45"/>
   </g>
   <g id="patch_10">
    <path d="M 391.978271 228.954713 
L 419.683384 228.954713 
L 419.683384 17.061433 
L 391.978271 17.061433 
z
" clip-path="url(#p0eb5ab3140)" style="fill: #eff6ff; opacity: 0.45"/>
   </g>
   <g id="patch_11">
    <path d="M 419.683384 228.954713 
L 447.388496 228.954713 
L 447.388496 17.061433 
L 419.683384 17.061433 
z
" clip-path="url(#p0eb5ab3140)" style="fill: #fef3c7; opacity: 0.45"/>
   </g>
   <g id="patch_12">
    <path d="M 447.388496 228.954713 
L 497.257699 228.954713 
L 497.257699 17.061433 
L 447.388496 17.061433 
z
" clip-path="url(#p0eb5ab3140)" style="fill: #dcfce7; opacity: 0.45"/>
   </g>
   <g id="patch_13">
    <path d="M 497.257699 228.954713 
L 552.667924 228.954713 
L 552.667924 17.061433 
L 497.257699 17.061433 
z
" clip-path="url(#p0eb5ab3140)" style="fill: #fee2e2; opacity: 0.45"/>
   </g>
   <g id="patch_14">
    <path d="M 552.667924 228.954713 
L 558.208946 228.954713 
L 558.208946 17.061433 
L 552.667924 17.061433 
z
" clip-path="url(#p0eb5ab3140)" style="fill: #ede9fe; opacity: 0.45"/>
   </g>
   <g id="patch_15">
    <path d="M 558.208946 228.954713 
L 702.275531 228.954713 
L 702.275531 17.061433 
L 558.208946 17.061433 
z
" clip-path="url(#p0eb5ab3140)" style="fill: #f8fafc; opacity: 0.45"/>
   </g>
   <g id="patch_16">
    <path d="M 702.275531 228.954713 
L 729.980644 228.954713 
L 729.980644 17.061433 
L 702.275531 17.061433 
z
" clip-path="url(#p0eb5ab3140)" style="fill: #eff6ff; opacity: 0.45"/>
   </g>
   <g id="patch_17">
    <path d="M 729.980644 228.954713 
L 757.685756 228.954713 
L 757.685756 17.061433 
L 729.980644 17.061433 
z
" clip-path="url(#p0eb5ab3140)" style="fill: #fef3c7; opacity: 0.45"/>
   </g>
   <g id="patch_18">
    <path d="M 757.685756 228.954713 
L 807.554959 228.954713 
L 807.554959 17.061433 
L 757.685756 17.061433 
z
" clip-path="url(#p0eb5ab3140)" style="fill: #dcfce7; opacity: 0.45"/>
   </g>
   <g id="patch_19">
    <path d="M 807.554959 228.954713 
L 862.965184 228.954713 
L 862.965184 17.061433 
L 807.554959 17.061433 
z
" clip-path="url(#p0eb5ab3140)" style="fill: #fee2e2; opacity: 0.45"/>
   </g>
   <g id="patch_20">
    <path d="M 862.965184 228.954713 
L 868.506206 228.954713 
L 868.506206 17.061433 
L 862.965184 17.061433 
z
" clip-path="url(#p0eb5ab3140)" style="fill: #ede9fe; opacity: 0.45"/>
   </g>
   <g id="patch_21">
    <path d="M 868.506206 228.954713 
L 918.375409 228.954713 
L 918.375409 17.061433 
L 868.506206 17.061433 
z
" clip-path="url(#p0eb5ab3140)" style="fill: #f8fafc; opacity: 0.45"/>
   </g>
   <g id="patch_22">
    <path d="M 918.375409 228.954713 
L 923.916431 228.954713 
L 923.916431 17.061433 
L 918.375409 17.061433 
z
" clip-path="url(#p0eb5ab3140)" style="fill: #eff6ff; opacity: 0.45"/>
   </g>
   <g id="matplotlib.axis_1">
    <g id="xtick_1">
     <g id="line2d_1">
      <path d="M 70.598966 228.954713 
L 70.598966 17.061433 
" clip-path="url(#p0eb5ab3140)" style="fill: none; stroke: #eef2f7; stroke-width: 0.55; stroke-linecap: square"/>
     </g>
     <g id="line2d_2">
      <defs>
       <path id="m1adb26eddf" d="M 0 0 
L 0 3.5 
" style="stroke: #000000; stroke-width: 0.8"/>
      </defs>
      <g>
       <use xlink:href="#m1adb26eddf" x="70.598966" y="228.954713" style="stroke: #000000; stroke-width: 0.8"/>
      </g>
     </g>
     <g id="text_1">
      <!-- 40 -->
      <g transform="translate(64.872716 242.793307) scale(0.09 -0.09)">
       <defs>
        <path id="DejaVuSans-34" d="M 2419 4116 
L 825 1625 
L 2419 1625 
L 2419 4116 
z
M 2253 4666 
L 3047 4666 
L 3047 1625 
L 3713 1625 
L 3713 1100 
L 3047 1100 
L 3047 0 
L 2419 0 
L 2419 1100 
L 313 1100 
L 313 1709 
L 2253 4666 
z
" transform="scale(0.015625)"/>
        <path id="DejaVuSans-30" d="M 2034 4250 
Q 1547 4250 1301 3770 
Q 1056 3291 1056 2328 
Q 1056 1369 1301 889 
Q 1547 409 2034 409 
Q 2525 409 2770 889 
Q 3016 1369 3016 2328 
Q 3016 3291 2770 3770 
Q 2525 4250 2034 4250 
z
M 2034 4750 
Q 2819 4750 3233 4129 
Q 3647 3509 3647 2328 
Q 3647 1150 3233 529 
Q 2819 -91 2034 -91 
Q 1250 -91 836 529 
Q 422 1150 422 2328 
Q 422 3509 836 4129 
Q 1250 4750 2034 4750 
z
" transform="scale(0.015625)"/>
       </defs>
       <use xlink:href="#DejaVuSans-34"/>
       <use xlink:href="#DejaVuSans-30" transform="translate(63.623047 0)"/>
      </g>
     </g>
    </g>
    <g id="xtick_2">
     <g id="line2d_3">
      <path d="M 181.419416 228.954713 
L 181.419416 17.061433 
" clip-path="url(#p0eb5ab3140)" style="fill: none; stroke: #eef2f7; stroke-width: 0.55; stroke-linecap: square"/>
     </g>
     <g id="line2d_4">
      <g>
       <use xlink:href="#m1adb26eddf" x="181.419416" y="228.954713" style="stroke: #000000; stroke-width: 0.8"/>
      </g>
     </g>
     <g id="text_2">
      <!-- 60 -->
      <g transform="translate(175.693166 242.793307) scale(0.09 -0.09)">
       <defs>
        <path id="DejaVuSans-36" d="M 2113 2584 
Q 1688 2584 1439 2293 
Q 1191 2003 1191 1497 
Q 1191 994 1439 701 
Q 1688 409 2113 409 
Q 2538 409 2786 701 
Q 3034 994 3034 1497 
Q 3034 2003 2786 2293 
Q 2538 2584 2113 2584 
z
M 3366 4563 
L 3366 3988 
Q 3128 4100 2886 4159 
Q 2644 4219 2406 4219 
Q 1781 4219 1451 3797 
Q 1122 3375 1075 2522 
Q 1259 2794 1537 2939 
Q 1816 3084 2150 3084 
Q 2853 3084 3261 2657 
Q 3669 2231 3669 1497 
Q 3669 778 3244 343 
Q 2819 -91 2113 -91 
Q 1303 -91 875 529 
Q 447 1150 447 2328 
Q 447 3434 972 4092 
Q 1497 4750 2381 4750 
Q 2619 4750 2861 4703 
Q 3103 4656 3366 4563 
z
" transform="scale(0.015625)"/>
       </defs>
       <use xlink:href="#DejaVuSans-36"/>
       <use xlink:href="#DejaVuSans-30" transform="translate(63.623047 0)"/>
      </g>
     </g>
    </g>
    <g id="xtick_3">
     <g id="line2d_5">
      <path d="M 292.239866 228.954713 
L 292.239866 17.061433 
" clip-path="url(#p0eb5ab3140)" style="fill: none; stroke: #eef2f7; stroke-width: 0.55; stroke-linecap: square"/>
     </g>
     <g id="line2d_6">
      <g>
       <use xlink:href="#m1adb26eddf" x="292.239866" y="228.954713" style="stroke: #000000; stroke-width: 0.8"/>
      </g>
     </g>
     <g id="text_3">
      <!-- 80 -->
      <g transform="translate(286.513616 242.793307) scale(0.09 -0.09)">
       <defs>
        <path id="DejaVuSans-38" d="M 2034 2216 
Q 1584 2216 1326 1975 
Q 1069 1734 1069 1313 
Q 1069 891 1326 650 
Q 1584 409 2034 409 
Q 2484 409 2743 651 
Q 3003 894 3003 1313 
Q 3003 1734 2745 1975 
Q 2488 2216 2034 2216 
z
M 1403 2484 
Q 997 2584 770 2862 
Q 544 3141 544 3541 
Q 544 4100 942 4425 
Q 1341 4750 2034 4750 
Q 2731 4750 3128 4425 
Q 3525 4100 3525 3541 
Q 3525 3141 3298 2862 
Q 3072 2584 2669 2484 
Q 3125 2378 3379 2068 
Q 3634 1759 3634 1313 
Q 3634 634 3220 271 
Q 2806 -91 2034 -91 
Q 1263 -91 848 271 
Q 434 634 434 1313 
Q 434 1759 690 2068 
Q 947 2378 1403 2484 
z
M 1172 3481 
Q 1172 3119 1398 2916 
Q 1625 2713 2034 2713 
Q 2441 2713 2670 2916 
Q 2900 3119 2900 3481 
Q 2900 3844 2670 4047 
Q 2441 4250 2034 4250 
Q 1625 4250 1398 4047 
Q 1172 3844 1172 3481 
z
" transform="scale(0.015625)"/>
       </defs>
       <use xlink:href="#DejaVuSans-38"/>
       <use xlink:href="#DejaVuSans-30" transform="translate(63.623047 0)"/>
      </g>
     </g>
    </g>
    <g id="xtick_4">
     <g id="line2d_7">
      <path d="M 403.060316 228.954713 
L 403.060316 17.061433 
" clip-path="url(#p0eb5ab3140)" style="fill: none; stroke: #eef2f7; stroke-width: 0.55; stroke-linecap: square"/>
     </g>
     <g id="line2d_8">
      <g>
       <use xlink:href="#m1adb26eddf" x="403.060316" y="228.954713" style="stroke: #000000; stroke-width: 0.8"/>
      </g>
     </g>
     <g id="text_4">
      <!-- 100 -->
      <g transform="translate(394.470941 242.793307) scale(0.09 -0.09)">
       <defs>
        <path id="DejaVuSans-31" d="M 794 531 
L 1825 531 
L 1825 4091 
L 703 3866 
L 703 4441 
L 1819 4666 
L 2450 4666 
L 2450 531 
L 3481 531 
L 3481 0 
L 794 0 
L 794 531 
z
" transform="scale(0.015625)"/>
       </defs>
       <use xlink:href="#DejaVuSans-31"/>
       <use xlink:href="#DejaVuSans-30" transform="translate(63.623047 0)"/>
       <use xlink:href="#DejaVuSans-30" transform="translate(127.246094 0)"/>
      </g>
     </g>
    </g>
    <g id="xtick_5">
     <g id="line2d_9">
      <path d="M 513.880766 228.954713 
L 513.880766 17.061433 
" clip-path="url(#p0eb5ab3140)" style="fill: none; stroke: #eef2f7; stroke-width: 0.55; stroke-linecap: square"/>
     </g>
     <g id="line2d_10">
      <g>
       <use xlink:href="#m1adb26eddf" x="513.880766" y="228.954713" style="stroke: #000000; stroke-width: 0.8"/>
      </g>
     </g>
     <g id="text_5">
      <!-- 120 -->
      <g transform="translate(505.291391 242.793307) scale(0.09 -0.09)">
       <defs>
        <path id="DejaVuSans-32" d="M 1228 531 
L 3431 531 
L 3431 0 
L 469 0 
L 469 531 
Q 828 903 1448 1529 
Q 2069 2156 2228 2338 
Q 2531 2678 2651 2914 
Q 2772 3150 2772 3378 
Q 2772 3750 2511 3984 
Q 2250 4219 1831 4219 
Q 1534 4219 1204 4116 
Q 875 4013 500 3803 
L 500 4441 
Q 881 4594 1212 4672 
Q 1544 4750 1819 4750 
Q 2544 4750 2975 4387 
Q 3406 4025 3406 3419 
Q 3406 3131 3298 2873 
Q 3191 2616 2906 2266 
Q 2828 2175 2409 1742 
Q 1991 1309 1228 531 
z
" transform="scale(0.015625)"/>
       </defs>
       <use xlink:href="#DejaVuSans-31"/>
       <use xlink:href="#DejaVuSans-32" transform="translate(63.623047 0)"/>
       <use xlink:href="#DejaVuSans-30" transform="translate(127.246094 0)"/>
      </g>
     </g>
    </g>
    <g id="xtick_6">
     <g id="line2d_11">
      <path d="M 624.701216 228.954713 
L 624.701216 17.061433 
" clip-path="url(#p0eb5ab3140)" style="fill: none; stroke: #eef2f7; stroke-width: 0.55; stroke-linecap: square"/>
     </g>
     <g id="line2d_12">
      <g>
       <use xlink:href="#m1adb26eddf" x="624.701216" y="228.954713" style="stroke: #000000; stroke-width: 0.8"/>
      </g>
     </g>
     <g id="text_6">
      <!-- 140 -->
      <g transform="translate(616.111841 242.793307) scale(0.09 -0.09)">
       <use xlink:href="#DejaVuSans-31"/>
       <use xlink:href="#DejaVuSans-34" transform="translate(63.623047 0)"/>
       <use xlink:href="#DejaVuSans-30" transform="translate(127.246094 0)"/>
      </g>
     </g>
    </g>
    <g id="xtick_7">
     <g id="line2d_13">
      <path d="M 735.521666 228.954713 
L 735.521666 17.061433 
" clip-path="url(#p0eb5ab3140)" style="fill: none; stroke: #eef2f7; stroke-width: 0.55; stroke-linecap: square"/>
     </g>
     <g id="line2d_14">
      <g>
       <use xlink:href="#m1adb26eddf" x="735.521666" y="228.954713" style="stroke: #000000; stroke-width: 0.8"/>
      </g>
     </g>
     <g id="text_7">
      <!-- 160 -->
      <g transform="translate(726.932291 242.793307) scale(0.09 -0.09)">
       <use xlink:href="#DejaVuSans-31"/>
       <use xlink:href="#DejaVuSans-36" transform="translate(63.623047 0)"/>
       <use xlink:href="#DejaVuSans-30" transform="translate(127.246094 0)"/>
      </g>
     </g>
    </g>
    <g id="xtick_8">
     <g id="line2d_15">
      <path d="M 846.342116 228.954713 
L 846.342116 17.061433 
" clip-path="url(#p0eb5ab3140)" style="fill: none; stroke: #eef2f7; stroke-width: 0.55; stroke-linecap: square"/>
     </g>
     <g id="line2d_16">
      <g>
       <use xlink:href="#m1adb26eddf" x="846.342116" y="228.954713" style="stroke: #000000; stroke-width: 0.8"/>
      </g>
     </g>
     <g id="text_8">
      <!-- 180 -->
      <g transform="translate(837.752741 242.793307) scale(0.09 -0.09)">
       <use xlink:href="#DejaVuSans-31"/>
       <use xlink:href="#DejaVuSans-38" transform="translate(63.623047 0)"/>
       <use xlink:href="#DejaVuSans-30" transform="translate(127.246094 0)"/>
      </g>
     </g>
    </g>
    <g id="text_9">
     <!-- Minutes since session start -->
     <g transform="translate(426.897344 256.263463) scale(0.1 -0.1)">
      <defs>
       <path id="DejaVuSans-4d" d="M 628 4666 
L 1569 4666 
L 2759 1491 
L 3956 4666 
L 4897 4666 
L 4897 0 
L 4281 0 
L 4281 4097 
L 3078 897 
L 2444 897 
L 1241 4097 
L 1241 0 
L 628 0 
L 628 4666 
z
" transform="scale(0.015625)"/>
       <path id="DejaVuSans-69" d="M 603 3500 
L 1178 3500 
L 1178 0 
L 603 0 
L 603 3500 
z
M 603 4863 
L 1178 4863 
L 1178 4134 
L 603 4134 
L 603 4863 
z
" transform="scale(0.015625)"/>
       <path id="DejaVuSans-6e" d="M 3513 2113 
L 3513 0 
L 2938 0 
L 2938 2094 
Q 2938 2591 2744 2837 
Q 2550 3084 2163 3084 
Q 1697 3084 1428 2787 
Q 1159 2491 1159 1978 
L 1159 0 
L 581 0 
L 581 3500 
L 1159 3500 
L 1159 2956 
Q 1366 3272 1645 3428 
Q 1925 3584 2291 3584 
Q 2894 3584 3203 3211 
Q 3513 2838 3513 2113 
z
" transform="scale(0.015625)"/>
       <path id="DejaVuSans-75" d="M 544 1381 
L 544 3500 
L 1119 3500 
L 1119 1403 
Q 1119 906 1312 657 
Q 1506 409 1894 409 
Q 2359 409 2629 706 
Q 2900 1003 2900 1516 
L 2900 3500 
L 3475 3500 
L 3475 0 
L 2900 0 
L 2900 538 
Q 2691 219 2414 64 
Q 2138 -91 1772 -91 
Q 1169 -91 856 284 
Q 544 659 544 1381 
z
M 1991 3584 
L 1991 3584 
z
" transform="scale(0.015625)"/>
       <path id="DejaVuSans-74" d="M 1172 4494 
L 1172 3500 
L 2356 3500 
L 2356 3053 
L 1172 3053 
L 1172 1153 
Q 1172 725 1289 603 
Q 1406 481 1766 481 
L 2356 481 
L 2356 0 
L 1766 0 
Q 1100 0 847 248 
Q 594 497 594 1153 
L 594 3053 
L 172 3053 
L 172 3500 
L 594 3500 
L 594 4494 
L 1172 4494 
z
" transform="scale(0.015625)"/>
       <path id="DejaVuSans-65" d="M 3597 1894 
L 3597 1613 
L 953 1613 
Q 991 1019 1311 708 
Q 1631 397 2203 397 
Q 2534 397 2845 478 
Q 3156 559 3463 722 
L 3463 178 
Q 3153 47 2828 -22 
Q 2503 -91 2169 -91 
Q 1331 -91 842 396 
Q 353 884 353 1716 
Q 353 2575 817 3079 
Q 1281 3584 2069 3584 
Q 2775 3584 3186 3129 
Q 3597 2675 3597 1894 
z
M 3022 2063 
Q 3016 2534 2758 2815 
Q 2500 3097 2075 3097 
Q 1594 3097 1305 2825 
Q 1016 2553 972 2059 
L 3022 2063 
z
" transform="scale(0.015625)"/>
       <path id="DejaVuSans-73" d="M 2834 3397 
L 2834 2853 
Q 2591 2978 2328 3040 
Q 2066 3103 1784 3103 
Q 1356 3103 1142 2972 
Q 928 2841 928 2578 
Q 928 2378 1081 2264 
Q 1234 2150 1697 2047 
L 1894 2003 
Q 2506 1872 2764 1633 
Q 3022 1394 3022 966 
Q 3022 478 2636 193 
Q 2250 -91 1575 -91 
Q 1294 -91 989 -36 
Q 684 19 347 128 
L 347 722 
Q 666 556 975 473 
Q 1284 391 1588 391 
Q 1994 391 2212 530 
Q 2431 669 2431 922 
Q 2431 1156 2273 1281 
Q 2116 1406 1581 1522 
L 1381 1569 
Q 847 1681 609 1914 
Q 372 2147 372 2553 
Q 372 3047 722 3315 
Q 1072 3584 1716 3584 
Q 2034 3584 2315 3537 
Q 2597 3491 2834 3397 
z
" transform="scale(0.015625)"/>
       <path id="DejaVuSans-20" transform="scale(0.015625)"/>
       <path id="DejaVuSans-63" d="M 3122 3366 
L 3122 2828 
Q 2878 2963 2633 3030 
Q 2388 3097 2138 3097 
Q 1578 3097 1268 2742 
Q 959 2388 959 1747 
Q 959 1106 1268 751 
Q 1578 397 2138 397 
Q 2388 397 2633 464 
Q 2878 531 3122 666 
L 3122 134 
Q 2881 22 2623 -34 
Q 2366 -91 2075 -91 
Q 1284 -91 818 406 
Q 353 903 353 1747 
Q 353 2603 823 3093 
Q 1294 3584 2113 3584 
Q 2378 3584 2631 3529 
Q 2884 3475 3122 3366 
z
" transform="scale(0.015625)"/>
       <path id="DejaVuSans-6f" d="M 1959 3097 
Q 1497 3097 1228 2736 
Q 959 2375 959 1747 
Q 959 1119 1226 758 
Q 1494 397 1959 397 
Q 2419 397 2687 759 
Q 2956 1122 2956 1747 
Q 2956 2369 2687 2733 
Q 2419 3097 1959 3097 
z
M 1959 3584 
Q 2709 3584 3137 3096 
Q 3566 2609 3566 1747 
Q 3566 888 3137 398 
Q 2709 -91 1959 -91 
Q 1206 -91 779 398 
Q 353 888 353 1747 
Q 353 2609 779 3096 
Q 1206 3584 1959 3584 
z
" transform="scale(0.015625)"/>
       <path id="DejaVuSans-61" d="M 2194 1759 
Q 1497 1759 1228 1600 
Q 959 1441 959 1056 
Q 959 750 1161 570 
Q 1363 391 1709 391 
Q 2188 391 2477 730 
Q 2766 1069 2766 1631 
L 2766 1759 
L 2194 1759 
z
M 3341 1997 
L 3341 0 
L 2766 0 
L 2766 531 
Q 2569 213 2275 61 
Q 1981 -91 1556 -91 
Q 1019 -91 701 211 
Q 384 513 384 1019 
Q 384 1609 779 1909 
Q 1175 2209 1959 2209 
L 2766 2209 
L 2766 2266 
Q 2766 2663 2505 2880 
Q 2244 3097 1772 3097 
Q 1472 3097 1187 3025 
Q 903 2953 641 2809 
L 641 3341 
Q 956 3463 1253 3523 
Q 1550 3584 1831 3584 
Q 2591 3584 2966 3190 
Q 3341 2797 3341 1997 
z
" transform="scale(0.015625)"/>
       <path id="DejaVuSans-72" d="M 2631 2963 
Q 2534 3019 2420 3045 
Q 2306 3072 2169 3072 
Q 1681 3072 1420 2755 
Q 1159 2438 1159 1844 
L 1159 0 
L 581 0 
L 581 3500 
L 1159 3500 
L 1159 2956 
Q 1341 3275 1631 3429 
Q 1922 3584 2338 3584 
Q 2397 3584 2469 3576 
Q 2541 3569 2628 3553 
L 2631 2963 
z
" transform="scale(0.015625)"/>
      </defs>
      <use xlink:href="#DejaVuSans-4d"/>
      <use xlink:href="#DejaVuSans-69" transform="translate(86.279297 0)"/>
      <use xlink:href="#DejaVuSans-6e" transform="translate(114.0625 0)"/>
      <use xlink:href="#DejaVuSans-75" transform="translate(177.441406 0)"/>
      <use xlink:href="#DejaVuSans-74" transform="translate(240.820312 0)"/>
      <use xlink:href="#DejaVuSans-65" transform="translate(280.029297 0)"/>
      <use xlink:href="#DejaVuSans-73" transform="translate(341.552734 0)"/>
      <use xlink:href="#DejaVuSans-20" transform="translate(393.652344 0)"/>
      <use xlink:href="#DejaVuSans-73" transform="translate(425.439453 0)"/>
      <use xlink:href="#DejaVuSans-69" transform="translate(477.539062 0)"/>
      <use xlink:href="#DejaVuSans-6e" transform="translate(505.322266 0)"/>
      <use xlink:href="#DejaVuSans-63" transform="translate(568.701172 0)"/>
      <use xlink:href="#DejaVuSans-65" transform="translate(623.681641 0)"/>
      <use xlink:href="#DejaVuSans-20" transform="translate(685.205078 0)"/>
      <use xlink:href="#DejaVuSans-73" transform="translate(716.992188 0)"/>
      <use xlink:href="#DejaVuSans-65" transform="translate(769.091797 0)"/>
      <use xlink:href="#DejaVuSans-73" transform="translate(830.615234 0)"/>
      <use xlink:href="#DejaVuSans-73" transform="translate(882.714844 0)"/>
      <use xlink:href="#DejaVuSans-69" transform="translate(934.814453 0)"/>
      <use xlink:href="#DejaVuSans-6f" transform="translate(962.597656 0)"/>
      <use xlink:href="#DejaVuSans-6e" transform="translate(1023.779297 0)"/>
      <use xlink:href="#DejaVuSans-20" transform="translate(1087.158203 0)"/>
      <use xlink:href="#DejaVuSans-73" transform="translate(1118.945312 0)"/>
      <use xlink:href="#DejaVuSans-74" transform="translate(1171.044922 0)"/>
      <use xlink:href="#DejaVuSans-61" transform="translate(1210.253906 0)"/>
      <use xlink:href="#DejaVuSans-72" transform="translate(1271.533203 0)"/>
      <use xlink:href="#DejaVuSans-74" transform="translate(1312.646484 0)"/>
     </g>
    </g>
   </g>
   <g id="matplotlib.axis_2">
    <g id="ytick_1">
     <g id="line2d_17">
      <path d="M 53.643438 218.148625 
L 935.330937 218.148625 
" clip-path="url(#p0eb5ab3140)" style="fill: none; stroke: #eef2f7; stroke-opacity: 0.25; stroke-width: 0.55; stroke-linecap: square"/>
     </g>
     <g id="line2d_18">
      <defs>
       <path id="maabe566033" d="M 0 0 
L -3.5 0 
" style="stroke: #000000; stroke-width: 0.8"/>
      </defs>
      <g>
       <use xlink:href="#maabe566033" x="53.643438" y="218.148625" style="stroke: #000000; stroke-width: 0.8"/>
      </g>
     </g>
     <g id="text_10">
      <!-- 29.25 -->
      <g transform="translate(20.878125 221.567922) scale(0.09 -0.09)">
       <defs>
        <path id="DejaVuSans-39" d="M 703 97 
L 703 672 
Q 941 559 1184 500 
Q 1428 441 1663 441 
Q 2288 441 2617 861 
Q 2947 1281 2994 2138 
Q 2813 1869 2534 1725 
Q 2256 1581 1919 1581 
Q 1219 1581 811 2004 
Q 403 2428 403 3163 
Q 403 3881 828 4315 
Q 1253 4750 1959 4750 
Q 2769 4750 3195 4129 
Q 3622 3509 3622 2328 
Q 3622 1225 3098 567 
Q 2575 -91 1691 -91 
Q 1453 -91 1209 -44 
Q 966 3 703 97 
z
M 1959 2075 
Q 2384 2075 2632 2365 
Q 2881 2656 2881 3163 
Q 2881 3666 2632 3958 
Q 2384 4250 1959 4250 
Q 1534 4250 1286 3958 
Q 1038 3666 1038 3163 
Q 1038 2656 1286 2365 
Q 1534 2075 1959 2075 
z
" transform="scale(0.015625)"/>
        <path id="DejaVuSans-2e" d="M 684 794 
L 1344 794 
L 1344 0 
L 684 0 
L 684 794 
z
" transform="scale(0.015625)"/>
        <path id="DejaVuSans-35" d="M 691 4666 
L 3169 4666 
L 3169 4134 
L 1269 4134 
L 1269 2991 
Q 1406 3038 1543 3061 
Q 1681 3084 1819 3084 
Q 2600 3084 3056 2656 
Q 3513 2228 3513 1497 
Q 3513 744 3044 326 
Q 2575 -91 1722 -91 
Q 1428 -91 1123 -41 
Q 819 9 494 109 
L 494 744 
Q 775 591 1075 516 
Q 1375 441 1709 441 
Q 2250 441 2565 725 
Q 2881 1009 2881 1497 
Q 2881 1984 2565 2268 
Q 2250 2553 1709 2553 
Q 1456 2553 1204 2497 
Q 953 2441 691 2322 
L 691 4666 
z
" transform="scale(0.015625)"/>
       </defs>
       <use xlink:href="#DejaVuSans-32"/>
       <use xlink:href="#DejaVuSans-39" transform="translate(63.623047 0)"/>
       <use xlink:href="#DejaVuSans-2e" transform="translate(127.246094 0)"/>
       <use xlink:href="#DejaVuSans-32" transform="translate(159.033203 0)"/>
       <use xlink:href="#DejaVuSans-35" transform="translate(222.65625 0)"/>
      </g>
     </g>
    </g>
    <g id="ytick_2">
     <g id="line2d_19">
      <path d="M 53.643438 188.784257 
L 935.330937 188.784257 
" clip-path="url(#p0eb5ab3140)" style="fill: none; stroke: #eef2f7; stroke-opacity: 0.25; stroke-width: 0.55; stroke-linecap: square"/>
     </g>
     <g id="line2d_20">
      <g>
       <use xlink:href="#maabe566033" x="53.643438" y="188.784257" style="stroke: #000000; stroke-width: 0.8"/>
      </g>
     </g>
     <g id="text_11">
      <!-- 29.50 -->
      <g transform="translate(20.878125 192.203554) scale(0.09 -0.09)">
       <use xlink:href="#DejaVuSans-32"/>
       <use xlink:href="#DejaVuSans-39" transform="translate(63.623047 0)"/>
       <use xlink:href="#DejaVuSans-2e" transform="translate(127.246094 0)"/>
       <use xlink:href="#DejaVuSans-35" transform="translate(159.033203 0)"/>
       <use xlink:href="#DejaVuSans-30" transform="translate(222.65625 0)"/>
      </g>
     </g>
    </g>
    <g id="ytick_3">
     <g id="line2d_21">
      <path d="M 53.643438 159.419889 
L 935.330937 159.419889 
" clip-path="url(#p0eb5ab3140)" style="fill: none; stroke: #eef2f7; stroke-opacity: 0.25; stroke-width: 0.55; stroke-linecap: square"/>
     </g>
     <g id="line2d_22">
      <g>
       <use xlink:href="#maabe566033" x="53.643438" y="159.419889" style="stroke: #000000; stroke-width: 0.8"/>
      </g>
     </g>
     <g id="text_12">
      <!-- 29.75 -->
      <g transform="translate(20.878125 162.839186) scale(0.09 -0.09)">
       <defs>
        <path id="DejaVuSans-37" d="M 525 4666 
L 3525 4666 
L 3525 4397 
L 1831 0 
L 1172 0 
L 2766 4134 
L 525 4134 
L 525 4666 
z
" transform="scale(0.015625)"/>
       </defs>
       <use xlink:href="#DejaVuSans-32"/>
       <use xlink:href="#DejaVuSans-39" transform="translate(63.623047 0)"/>
       <use xlink:href="#DejaVuSans-2e" transform="translate(127.246094 0)"/>
       <use xlink:href="#DejaVuSans-37" transform="translate(159.033203 0)"/>
       <use xlink:href="#DejaVuSans-35" transform="translate(222.65625 0)"/>
      </g>
     </g>
    </g>
    <g id="ytick_4">
     <g id="line2d_23">
      <path d="M 53.643438 130.055521 
L 935.330937 130.055521 
" clip-path="url(#p0eb5ab3140)" style="fill: none; stroke: #eef2f7; stroke-opacity: 0.25; stroke-width: 0.55; stroke-linecap: square"/>
     </g>
     <g id="line2d_24">
      <g>
       <use xlink:href="#maabe566033" x="53.643438" y="130.055521" style="stroke: #000000; stroke-width: 0.8"/>
      </g>
     </g>
     <g id="text_13">
      <!-- 30.00 -->
      <g transform="translate(20.878125 133.474818) scale(0.09 -0.09)">
       <defs>
        <path id="DejaVuSans-33" d="M 2597 2516 
Q 3050 2419 3304 2112 
Q 3559 1806 3559 1356 
Q 3559 666 3084 287 
Q 2609 -91 1734 -91 
Q 1441 -91 1130 -33 
Q 819 25 488 141 
L 488 750 
Q 750 597 1062 519 
Q 1375 441 1716 441 
Q 2309 441 2620 675 
Q 2931 909 2931 1356 
Q 2931 1769 2642 2001 
Q 2353 2234 1838 2234 
L 1294 2234 
L 1294 2753 
L 1863 2753 
Q 2328 2753 2575 2939 
Q 2822 3125 2822 3475 
Q 2822 3834 2567 4026 
Q 2313 4219 1838 4219 
Q 1578 4219 1281 4162 
Q 984 4106 628 3988 
L 628 4550 
Q 988 4650 1302 4700 
Q 1616 4750 1894 4750 
Q 2613 4750 3031 4423 
Q 3450 4097 3450 3541 
Q 3450 3153 3228 2886 
Q 3006 2619 2597 2516 
z
" transform="scale(0.015625)"/>
       </defs>
       <use xlink:href="#DejaVuSans-33"/>
       <use xlink:href="#DejaVuSans-30" transform="translate(63.623047 0)"/>
       <use xlink:href="#DejaVuSans-2e" transform="translate(127.246094 0)"/>
       <use xlink:href="#DejaVuSans-30" transform="translate(159.033203 0)"/>
       <use xlink:href="#DejaVuSans-30" transform="translate(222.65625 0)"/>
      </g>
     </g>
    </g>
    <g id="ytick_5">
     <g id="line2d_25">
      <path d="M 53.643438 100.691153 
L 935.330937 100.691153 
" clip-path="url(#p0eb5ab3140)" style="fill: none; stroke: #eef2f7; stroke-opacity: 0.25; stroke-width: 0.55; stroke-linecap: square"/>
     </g>
     <g id="line2d_26">
      <g>
       <use xlink:href="#maabe566033" x="53.643438" y="100.691153" style="stroke: #000000; stroke-width: 0.8"/>
      </g>
     </g>
     <g id="text_14">
      <!-- 30.25 -->
      <g transform="translate(20.878125 104.11045) scale(0.09 -0.09)">
       <use xlink:href="#DejaVuSans-33"/>
       <use xlink:href="#DejaVuSans-30" transform="translate(63.623047 0)"/>
       <use xlink:href="#DejaVuSans-2e" transform="translate(127.246094 0)"/>
       <use xlink:href="#DejaVuSans-32" transform="translate(159.033203 0)"/>
       <use xlink:href="#DejaVuSans-35" transform="translate(222.65625 0)"/>
      </g>
     </g>
    </g>
    <g id="ytick_6">
     <g id="line2d_27">
      <path d="M 53.643438 71.326785 
L 935.330937 71.326785 
" clip-path="url(#p0eb5ab3140)" style="fill: none; stroke: #eef2f7; stroke-opacity: 0.25; stroke-width: 0.55; stroke-linecap: square"/>
     </g>
     <g id="line2d_28">
      <g>
       <use xlink:href="#maabe566033" x="53.643438" y="71.326785" style="stroke: #000000; stroke-width: 0.8"/>
      </g>
     </g>
     <g id="text_15">
      <!-- 30.50 -->
      <g transform="translate(20.878125 74.746082) scale(0.09 -0.09)">
       <use xlink:href="#DejaVuSans-33"/>
       <use xlink:href="#DejaVuSans-30" transform="translate(63.623047 0)"/>
       <use xlink:href="#DejaVuSans-2e" transform="translate(127.246094 0)"/>
       <use xlink:href="#DejaVuSans-35" transform="translate(159.033203 0)"/>
       <use xlink:href="#DejaVuSans-30" transform="translate(222.65625 0)"/>
      </g>
     </g>
    </g>
    <g id="ytick_7">
     <g id="line2d_29">
      <path d="M 53.643438 41.962417 
L 935.330937 41.962417 
" clip-path="url(#p0eb5ab3140)" style="fill: none; stroke: #eef2f7; stroke-opacity: 0.25; stroke-width: 0.55; stroke-linecap: square"/>
     </g>
     <g id="line2d_30">
      <g>
       <use xlink:href="#maabe566033" x="53.643438" y="41.962417" style="stroke: #000000; stroke-width: 0.8"/>
      </g>
     </g>
     <g id="text_16">
      <!-- 30.75 -->
      <g transform="translate(20.878125 45.381714) scale(0.09 -0.09)">
       <use xlink:href="#DejaVuSans-33"/>
       <use xlink:href="#DejaVuSans-30" transform="translate(63.623047 0)"/>
       <use xlink:href="#DejaVuSans-2e" transform="translate(127.246094 0)"/>
       <use xlink:href="#DejaVuSans-37" transform="translate(159.033203 0)"/>
       <use xlink:href="#DejaVuSans-35" transform="translate(222.65625 0)"/>
      </g>
     </g>
    </g>
    <g id="text_17">
     <!-- Temperature (C) -->
     <g transform="translate(14.798438 163.659635) rotate(-90) scale(0.1 -0.1)">
      <defs>
       <path id="DejaVuSans-54" d="M -19 4666 
L 3928 4666 
L 3928 4134 
L 2272 4134 
L 2272 0 
L 1638 0 
L 1638 4134 
L -19 4134 
L -19 4666 
z
" transform="scale(0.015625)"/>
       <path id="DejaVuSans-6d" d="M 3328 2828 
Q 3544 3216 3844 3400 
Q 4144 3584 4550 3584 
Q 5097 3584 5394 3201 
Q 5691 2819 5691 2113 
L 5691 0 
L 5113 0 
L 5113 2094 
Q 5113 2597 4934 2840 
Q 4756 3084 4391 3084 
Q 3944 3084 3684 2787 
Q 3425 2491 3425 1978 
L 3425 0 
L 2847 0 
L 2847 2094 
Q 2847 2600 2669 2842 
Q 2491 3084 2119 3084 
Q 1678 3084 1418 2786 
Q 1159 2488 1159 1978 
L 1159 0 
L 581 0 
L 581 3500 
L 1159 3500 
L 1159 2956 
Q 1356 3278 1631 3431 
Q 1906 3584 2284 3584 
Q 2666 3584 2933 3390 
Q 3200 3197 3328 2828 
z
" transform="scale(0.015625)"/>
       <path id="DejaVuSans-70" d="M 1159 525 
L 1159 -1331 
L 581 -1331 
L 581 3500 
L 1159 3500 
L 1159 2969 
Q 1341 3281 1617 3432 
Q 1894 3584 2278 3584 
Q 2916 3584 3314 3078 
Q 3713 2572 3713 1747 
Q 3713 922 3314 415 
Q 2916 -91 2278 -91 
Q 1894 -91 1617 61 
Q 1341 213 1159 525 
z
M 3116 1747 
Q 3116 2381 2855 2742 
Q 2594 3103 2138 3103 
Q 1681 3103 1420 2742 
Q 1159 2381 1159 1747 
Q 1159 1113 1420 752 
Q 1681 391 2138 391 
Q 2594 391 2855 752 
Q 3116 1113 3116 1747 
z
" transform="scale(0.015625)"/>
       <path id="DejaVuSans-28" d="M 1984 4856 
Q 1566 4138 1362 3434 
Q 1159 2731 1159 2009 
Q 1159 1288 1364 580 
Q 1569 -128 1984 -844 
L 1484 -844 
Q 1016 -109 783 600 
Q 550 1309 550 2009 
Q 550 2706 781 3412 
Q 1013 4119 1484 4856 
L 1984 4856 
z
" transform="scale(0.015625)"/>
       <path id="DejaVuSans-43" d="M 4122 4306 
L 4122 3641 
Q 3803 3938 3442 4084 
Q 3081 4231 2675 4231 
Q 1875 4231 1450 3742 
Q 1025 3253 1025 2328 
Q 1025 1406 1450 917 
Q 1875 428 2675 428 
Q 3081 428 3442 575 
Q 3803 722 4122 1019 
L 4122 359 
Q 3791 134 3420 21 
Q 3050 -91 2638 -91 
Q 1578 -91 968 557 
Q 359 1206 359 2328 
Q 359 3453 968 4101 
Q 1578 4750 2638 4750 
Q 3056 4750 3426 4639 
Q 3797 4528 4122 4306 
z
" transform="scale(0.015625)"/>
       <path id="DejaVuSans-29" d="M 513 4856 
L 1013 4856 
Q 1481 4119 1714 3412 
Q 1947 2706 1947 2009 
Q 1947 1309 1714 600 
Q 1481 -109 1013 -844 
L 513 -844 
Q 928 -128 1133 580 
Q 1338 1288 1338 2009 
Q 1338 2731 1133 3434 
Q 928 4138 513 4856 
z
" transform="scale(0.015625)"/>
      </defs>
      <use xlink:href="#DejaVuSans-54"/>
      <use xlink:href="#DejaVuSans-65" transform="translate(44.083984 0)"/>
      <use xlink:href="#DejaVuSans-6d" transform="translate(105.607422 0)"/>
      <use xlink:href="#DejaVuSans-70" transform="translate(203.019531 0)"/>
      <use xlink:href="#DejaVuSans-65" transform="translate(266.496094 0)"/>
      <use xlink:href="#DejaVuSans-72" transform="translate(328.019531 0)"/>
      <use xlink:href="#DejaVuSans-61" transform="translate(369.132812 0)"/>
      <use xlink:href="#DejaVuSans-74" transform="translate(430.412109 0)"/>
      <use xlink:href="#DejaVuSans-75" transform="translate(469.621094 0)"/>
      <use xlink:href="#DejaVuSans-72" transform="translate(533 0)"/>
      <use xlink:href="#DejaVuSans-65" transform="translate(571.863281 0)"/>
      <use xlink:href="#DejaVuSans-20" transform="translate(633.386719 0)"/>
      <use xlink:href="#DejaVuSans-28" transform="translate(665.173828 0)"/>
      <use xlink:href="#DejaVuSans-43" transform="translate(704.1875 0)"/>
      <use xlink:href="#DejaVuSans-29" transform="translate(774.011719 0)"/>
     </g>
    </g>
   </g>
   <g id="line2d_31">
    <path d="M 70.598966 84.247107 
L 76.139989 93.643705 
L 81.681011 91.294555 
L 92.763056 87.770831 
L 98.304079 97.167429 
L 103.845101 78.374233 
L 109.386124 83.072532 
L 114.927146 85.421682 
L 120.468169 80.723383 
L 126.009191 81.897958 
L 131.550214 81.897958 
L 134.320725 74.850509 
L 137.091236 68.977636 
L 142.632259 70.15221 
L 148.173281 67.803061 
L 153.714304 66.628486 
L 159.255326 79.548808 
L 164.796349 77.199659 
L 170.337371 80.723383 
L 175.878394 80.723383 
L 181.419416 84.247107 
L 186.960439 83.072532 
L 192.501461 74.850509 
L 198.042484 87.770831 
L 203.583506 67.803061 
L 214.665551 71.326785 
L 220.206574 66.628486 
L 225.747596 63.104762 
L 231.288619 71.326785 
L 236.829641 63.104762 
L 242.370664 59.581038 
L 247.911686 53.708164 
L 253.452709 46.660716 
L 258.993731 38.438693 
L 264.534754 26.692946 
L 267.305265 37.264118 
L 270.075776 46.660716 
L 275.616799 64.279337 
L 281.157821 68.977636 
L 286.698844 70.15221 
L 292.239866 70.15221 
L 297.780889 66.628486 
L 303.321911 66.628486 
L 308.862934 70.15221 
L 314.403956 67.803061 
L 319.944979 71.326785 
L 325.486001 70.15221 
L 331.027024 65.453911 
L 336.568046 70.15221 
L 342.109069 72.50136 
L 347.650091 73.675934 
L 353.191114 68.977636 
L 358.732136 72.50136 
L 364.273159 73.675934 
L 375.355204 71.326785 
L 380.896226 67.803061 
L 391.978271 72.50136 
L 397.519294 66.628486 
L 403.060316 65.453911 
L 408.601339 72.50136 
L 414.142361 65.453911 
L 419.683384 59.581038 
L 425.224406 65.453911 
L 430.765429 65.453911 
L 436.306451 58.406463 
L 441.847474 61.930187 
L 444.617985 53.708164 
L 447.388496 46.660716 
L 452.929519 63.104762 
L 458.470541 64.279337 
L 469.552586 61.930187 
L 475.093609 65.453911 
L 480.634631 63.104762 
L 486.175654 65.453911 
L 491.716676 65.453911 
L 497.257699 67.803061 
L 502.798721 63.104762 
L 508.339744 68.977636 
L 513.880766 72.50136 
L 524.962811 72.50136 
L 530.503834 63.104762 
L 536.044856 66.628486 
L 541.585879 65.453911 
L 547.126901 63.104762 
L 552.667924 54.882739 
L 558.208946 31.391244 
L 563.749969 41.962417 
L 569.290991 26.692946 
L 574.832014 40.787842 
L 577.602525 51.359015 
L 580.373036 63.104762 
L 585.914059 79.548808 
L 591.455081 76.025084 
L 596.996104 73.675934 
L 602.537126 74.850509 
L 608.078149 74.850509 
L 613.619171 77.199659 
L 619.160194 74.850509 
L 624.701216 73.675934 
L 635.783261 73.675934 
L 641.324284 72.50136 
L 646.865306 77.199659 
L 652.406329 76.025084 
L 663.488374 78.374233 
L 674.570419 73.675934 
L 680.111441 80.723383 
L 691.193486 76.025084 
L 696.734509 76.025084 
L 702.275531 81.897958 
L 707.816554 80.723383 
L 718.898599 80.723383 
L 724.439621 77.199659 
L 729.980644 77.199659 
L 735.521666 74.850509 
L 741.062689 66.628486 
L 752.144734 64.279337 
L 754.915245 63.104762 
L 757.685756 63.104762 
L 763.226779 50.18444 
L 768.767801 53.708164 
L 779.849846 63.104762 
L 785.390869 70.15221 
L 790.931891 78.374233 
L 796.472914 83.072532 
L 807.554959 83.072532 
L 813.095981 99.516578 
L 818.637004 84.247107 
L 824.178026 78.374233 
L 829.719049 81.897958 
L 840.801094 76.025084 
L 846.342116 85.421682 
L 851.883139 86.596256 
L 857.424161 86.596256 
L 862.965184 63.104762 
L 868.506206 66.628486 
L 874.047229 59.581038 
L 879.588251 76.025084 
L 885.129274 91.294555 
L 890.670296 93.643705 
L 893.440807 95.992854 
L 896.211319 99.516578 
L 901.752341 97.167429 
L 912.834386 101.865728 
L 918.375409 100.691153 
L 918.375409 100.691153 
" clip-path="url(#p0eb5ab3140)" style="fill: none; stroke: #fdc38d; stroke-opacity: 0.95; stroke-width: 1.3; stroke-linecap: square"/>
   </g>
   <g id="line2d_32">
    <path d="M 70.598966 118.309774 
L 76.139989 118.309774 
L 81.681011 124.182648 
L 92.763056 123.008073 
L 98.304079 121.833498 
L 103.845101 103.040303 
L 109.386124 101.865728 
L 114.927146 108.913176 
L 120.468169 107.738601 
L 126.009191 105.389452 
L 131.550214 97.167429 
L 137.091236 99.516578 
L 142.632259 105.389452 
L 148.173281 103.040303 
L 159.255326 103.040303 
L 164.796349 105.389452 
L 170.337371 100.691153 
L 175.878394 101.865728 
L 181.419416 100.691153 
L 186.960439 104.214877 
L 192.501461 103.040303 
L 198.042484 104.214877 
L 203.583506 99.516578 
L 214.665551 93.643705 
L 220.206574 91.294555 
L 225.747596 91.294555 
L 231.288619 83.072532 
L 236.829641 98.342004 
L 242.370664 80.723383 
L 247.911686 85.421682 
L 253.452709 92.46913 
L 264.534754 99.516578 
L 267.305265 99.516578 
L 270.075776 98.342004 
L 275.616799 100.691153 
L 286.698844 103.040303 
L 292.239866 99.516578 
L 297.780889 100.691153 
L 303.321911 99.516578 
L 308.862934 103.040303 
L 314.403956 104.214877 
L 319.944979 99.516578 
L 325.486001 103.040303 
L 331.027024 103.040303 
L 336.568046 100.691153 
L 342.109069 104.214877 
L 347.650091 103.040303 
L 353.191114 100.691153 
L 358.732136 107.738601 
L 364.273159 115.960624 
L 375.355204 111.262326 
L 380.896226 100.691153 
L 386.437249 108.913176 
L 391.978271 103.040303 
L 397.519294 101.865728 
L 403.060316 99.516578 
L 408.601339 104.214877 
L 414.142361 101.865728 
L 419.683384 81.897958 
L 425.224406 92.46913 
L 430.765429 85.421682 
L 436.306451 86.596256 
L 441.847474 80.723383 
L 447.388496 83.072532 
L 452.929519 90.119981 
L 458.470541 99.516578 
L 464.011564 100.691153 
L 469.552586 104.214877 
L 475.093609 101.865728 
L 480.634631 105.389452 
L 486.175654 107.738601 
L 491.716676 104.214877 
L 497.257699 110.087751 
L 502.798721 99.516578 
L 508.339744 101.865728 
L 513.880766 110.087751 
L 524.962811 104.214877 
L 530.503834 98.342004 
L 536.044856 100.691153 
L 541.585879 91.294555 
L 547.126901 80.723383 
L 552.667924 85.421682 
L 558.208946 85.421682 
L 563.749969 90.119981 
L 569.290991 86.596256 
L 574.832014 94.818279 
L 577.602525 90.119981 
L 580.373036 86.596256 
L 585.914059 104.214877 
L 596.996104 111.262326 
L 602.537126 107.738601 
L 608.078149 103.040303 
L 613.619171 110.087751 
L 619.160194 104.214877 
L 624.701216 110.087751 
L 630.242239 110.087751 
L 635.783261 100.691153 
L 646.865306 112.4369 
L 652.406329 106.564027 
L 663.488374 108.913176 
L 669.029396 111.262326 
L 674.570419 114.78605 
L 680.111441 111.262326 
L 691.193486 108.913176 
L 702.275531 111.262326 
L 707.816554 108.913176 
L 713.357576 112.4369 
L 718.898599 117.135199 
L 724.439621 117.135199 
L 729.980644 95.992854 
L 735.521666 90.119981 
L 741.062689 100.691153 
L 752.144734 95.992854 
L 763.226779 100.691153 
L 768.767801 95.992854 
L 774.308824 95.992854 
L 779.849846 105.389452 
L 785.390869 104.214877 
L 790.931891 117.135199 
L 796.472914 121.833498 
L 802.013936 118.309774 
L 807.554959 126.531797 
L 813.095981 103.040303 
L 818.637004 115.960624 
L 824.178026 108.913176 
L 829.719049 113.611475 
L 840.801094 111.262326 
L 846.342116 107.738601 
L 857.424161 112.4369 
L 862.965184 105.389452 
L 868.506206 100.691153 
L 874.047229 103.040303 
L 879.588251 107.738601 
L 885.129274 115.960624 
L 890.670296 126.531797 
L 893.440807 125.357222 
L 896.211319 125.357222 
L 901.752341 121.833498 
L 907.293364 121.833498 
L 912.834386 124.182648 
L 918.375409 128.880946 
L 918.375409 128.880946 
" clip-path="url(#p0eb5ab3140)" style="fill: none; stroke: #fdac67; stroke-opacity: 0.95; stroke-width: 1.3; stroke-linecap: square"/>
   </g>
   <g id="line2d_33">
    <path d="M 70.598966 205.228303 
L 76.139989 201.704579 
L 81.681011 219.3232 
L 92.763056 194.657131 
L 98.304079 165.292763 
L 103.845101 189.958832 
L 109.386124 187.609683 
L 114.927146 181.736809 
L 120.468169 164.118188 
L 126.009191 173.514786 
L 131.550214 174.689361 
L 137.091236 195.831706 
L 148.173281 193.482556 
L 153.714304 195.831706 
L 159.255326 205.228303 
L 164.796349 192.307981 
L 170.337371 197.00628 
L 175.878394 197.00628 
L 181.419416 211.101177 
L 186.960439 180.562234 
L 192.501461 188.784257 
L 198.042484 164.118188 
L 203.583506 133.579245 
L 214.665551 164.118188 
L 220.206574 159.419889 
L 225.747596 167.641912 
L 231.288619 160.594464 
L 236.829641 140.626694 
L 242.370664 167.641912 
L 247.911686 186.435108 
L 253.452709 174.689361 
L 258.993731 166.467338 
L 264.534754 187.609683 
L 267.305265 186.435108 
L 270.075776 186.435108 
L 275.616799 182.911384 
L 281.157821 200.530005 
L 286.698844 205.228303 
L 292.239866 185.260533 
L 297.780889 194.657131 
L 303.321911 197.00628 
L 308.862934 200.530005 
L 314.403956 201.704579 
L 319.944979 201.704579 
L 325.486001 211.101177 
L 331.027024 202.879154 
L 336.568046 197.00628 
L 342.109069 194.657131 
L 347.650091 204.053729 
L 353.191114 175.863935 
L 358.732136 177.03851 
L 364.273159 169.991062 
L 375.355204 186.435108 
L 380.896226 188.784257 
L 386.437249 200.530005 
L 391.978271 204.053729 
L 397.519294 194.657131 
L 403.060316 201.704579 
L 408.601339 182.911384 
L 414.142361 134.75382 
L 419.683384 189.958832 
L 425.224406 160.594464 
L 430.765429 179.387659 
L 436.306451 180.562234 
L 441.847474 166.467338 
L 447.388496 178.213085 
L 452.929519 159.419889 
L 458.470541 165.292763 
L 464.011564 182.911384 
L 469.552586 169.991062 
L 475.093609 193.482556 
L 480.634631 188.784257 
L 491.716676 191.133407 
L 497.257699 155.896165 
L 502.798721 161.769039 
L 508.339744 123.008073 
L 513.880766 141.801268 
L 524.962811 133.579245 
L 530.503834 135.928395 
L 536.044856 144.150418 
L 541.585879 141.801268 
L 547.126901 155.896165 
L 552.667924 104.214877 
L 558.208946 139.452119 
L 563.749969 157.07074 
L 569.290991 175.863935 
L 574.832014 182.911384 
L 580.373036 182.911384 
L 585.914059 185.260533 
L 596.996104 199.35543 
L 602.537126 201.704579 
L 613.619171 173.514786 
L 619.160194 188.784257 
L 624.701216 207.577453 
L 630.242239 191.133407 
L 635.783261 205.228303 
L 641.324284 189.958832 
L 646.865306 205.228303 
L 652.406329 185.260533 
L 657.947351 201.704579 
L 663.488374 191.133407 
L 669.029396 191.133407 
L 674.570419 189.958832 
L 680.111441 195.831706 
L 691.193486 208.752028 
L 696.734509 214.624901 
L 702.275531 194.657131 
L 707.816554 218.148625 
L 713.357576 202.879154 
L 724.439621 186.435108 
L 729.980644 192.307981 
L 735.521666 185.260533 
L 741.062689 171.165636 
L 752.144734 180.562234 
L 757.685756 180.562234 
L 763.226779 187.609683 
L 768.767801 189.958832 
L 774.308824 198.180855 
L 779.849846 187.609683 
L 785.390869 199.35543 
L 790.931891 184.085958 
L 796.472914 216.974051 
L 802.013936 194.657131 
L 807.554959 188.784257 
L 813.095981 132.404671 
L 818.637004 152.372441 
L 824.178026 152.372441 
L 829.719049 153.547016 
L 840.801094 151.197866 
L 846.342116 161.769039 
L 851.883139 159.419889 
L 857.424161 124.182648 
L 862.965184 173.514786 
L 868.506206 166.467338 
L 874.047229 181.736809 
L 879.588251 180.562234 
L 885.129274 195.831706 
L 890.670296 199.35543 
L 896.211319 199.35543 
L 901.752341 187.609683 
L 907.293364 198.180855 
L 912.834386 195.831706 
L 918.375409 208.752028 
L 918.375409 208.752028 
" clip-path="url(#p0eb5ab3140)" style="fill: none; stroke: #fd9547; stroke-opacity: 0.95; stroke-width: 1.3; stroke-linecap: square"/>
   </g>
   <g id="line2d_34">
    <path d="M 70.598966 68.977636 
L 76.139989 77.199659 
L 81.681011 65.453911 
L 92.763056 65.453911 
L 103.845101 81.897958 
L 109.386124 63.104762 
L 114.927146 60.755612 
L 120.468169 56.057314 
L 126.009191 57.231888 
L 131.550214 65.453911 
L 134.320725 61.930187 
L 137.091236 57.231888 
L 142.632259 56.057314 
L 148.173281 49.009865 
L 153.714304 52.533589 
L 159.255326 58.406463 
L 170.337371 51.359015 
L 175.878394 57.231888 
L 181.419416 60.755612 
L 186.960439 59.581038 
L 192.501461 59.581038 
L 198.042484 49.009865 
L 203.583506 68.977636 
L 214.665551 61.930187 
L 220.206574 63.104762 
L 225.747596 53.708164 
L 231.288619 51.359015 
L 236.829641 46.660716 
L 242.370664 49.009865 
L 247.911686 49.009865 
L 253.452709 50.18444 
L 258.993731 54.882739 
L 264.534754 45.486141 
L 270.075776 40.787842 
L 275.616799 47.835291 
L 281.157821 43.136992 
L 286.698844 44.311566 
L 292.239866 46.660716 
L 297.780889 46.660716 
L 303.321911 52.533589 
L 308.862934 52.533589 
L 314.403956 40.787842 
L 319.944979 39.613267 
L 325.486001 49.009865 
L 331.027024 47.835291 
L 336.568046 30.21667 
L 342.109069 44.311566 
L 347.650091 51.359015 
L 353.191114 46.660716 
L 358.732136 53.708164 
L 364.273159 52.533589 
L 375.355204 39.613267 
L 380.896226 37.264118 
L 386.437249 44.311566 
L 391.978271 44.311566 
L 397.519294 33.740394 
L 403.060316 44.311566 
L 408.601339 30.21667 
L 414.142361 47.835291 
L 419.683384 52.533589 
L 425.224406 36.089543 
L 430.765429 46.660716 
L 436.306451 52.533589 
L 441.847474 57.231888 
L 444.617985 45.486141 
L 447.388496 34.914969 
L 452.929519 40.787842 
L 458.470541 37.264118 
L 464.011564 37.264118 
L 469.552586 39.613267 
L 475.093609 32.565819 
L 480.634631 41.962417 
L 486.175654 33.740394 
L 491.716676 41.962417 
L 497.257699 43.136992 
L 502.798721 66.628486 
L 508.339744 44.311566 
L 513.880766 34.914969 
L 524.962811 47.835291 
L 530.503834 44.311566 
L 536.044856 47.835291 
L 541.585879 57.231888 
L 547.126901 46.660716 
L 552.667924 54.882739 
L 558.208946 57.231888 
L 563.749969 58.406463 
L 569.290991 44.311566 
L 574.832014 45.486141 
L 580.373036 54.882739 
L 585.914059 53.708164 
L 591.455081 49.009865 
L 596.996104 39.613267 
L 602.537126 50.18444 
L 608.078149 54.882739 
L 613.619171 45.486141 
L 619.160194 31.391244 
L 630.242239 43.136992 
L 635.783261 50.18444 
L 641.324284 54.882739 
L 646.865306 45.486141 
L 652.406329 31.391244 
L 657.947351 43.136992 
L 669.029396 33.740394 
L 674.570419 52.533589 
L 680.111441 49.009865 
L 691.193486 38.438693 
L 696.734509 54.882739 
L 702.275531 51.359015 
L 707.816554 37.264118 
L 713.357576 38.438693 
L 718.898599 47.835291 
L 724.439621 54.882739 
L 729.980644 73.675934 
L 735.521666 76.025084 
L 741.062689 52.533589 
L 746.603711 74.850509 
L 752.144734 73.675934 
L 757.685756 50.18444 
L 763.226779 68.977636 
L 768.767801 50.18444 
L 774.308824 56.057314 
L 779.849846 47.835291 
L 785.390869 54.882739 
L 790.931891 65.453911 
L 796.472914 52.533589 
L 802.013936 60.755612 
L 807.554959 64.279337 
L 813.095981 49.009865 
L 818.637004 64.279337 
L 824.178026 68.977636 
L 829.719049 61.930187 
L 840.801094 65.453911 
L 846.342116 71.326785 
L 851.883139 59.581038 
L 857.424161 57.231888 
L 862.965184 68.977636 
L 868.506206 64.279337 
L 874.047229 60.755612 
L 879.588251 66.628486 
L 885.129274 68.977636 
L 890.670296 56.057314 
L 896.211319 67.803061 
L 901.752341 57.231888 
L 907.293364 66.628486 
L 918.375409 68.977636 
L 918.375409 68.977636 
" clip-path="url(#p0eb5ab3140)" style="fill: none; stroke: #f87d29; stroke-opacity: 0.95; stroke-width: 1.3; stroke-linecap: square"/>
   </g>
   <g id="line2d_35">
    <path d="M 70.598966 119.484349 
L 76.139989 118.309774 
L 81.681011 115.960624 
L 92.763056 120.658923 
L 98.304079 118.309774 
L 103.845101 100.691153 
L 109.386124 98.342004 
L 120.468169 98.342004 
L 131.550214 91.294555 
L 134.320725 98.342004 
L 137.091236 106.564027 
L 142.632259 103.040303 
L 148.173281 101.865728 
L 153.714304 104.214877 
L 159.255326 114.78605 
L 164.796349 106.564027 
L 170.337371 108.913176 
L 181.419416 104.214877 
L 186.960439 105.389452 
L 192.501461 93.643705 
L 198.042484 87.770831 
L 203.583506 86.596256 
L 214.665551 87.770831 
L 220.206574 80.723383 
L 225.747596 79.548808 
L 231.288619 74.850509 
L 236.829641 74.850509 
L 242.370664 79.548808 
L 247.911686 85.421682 
L 253.452709 83.072532 
L 258.993731 91.294555 
L 264.534754 100.691153 
L 267.305265 100.691153 
L 270.075776 99.516578 
L 275.616799 104.214877 
L 281.157821 103.040303 
L 286.698844 100.691153 
L 292.239866 97.167429 
L 297.780889 106.564027 
L 303.321911 95.992854 
L 308.862934 103.040303 
L 314.403956 92.46913 
L 319.944979 98.342004 
L 325.486001 106.564027 
L 331.027024 103.040303 
L 336.568046 97.167429 
L 342.109069 107.738601 
L 347.650091 105.389452 
L 353.191114 99.516578 
L 358.732136 103.040303 
L 364.273159 111.262326 
L 375.355204 106.564027 
L 380.896226 98.342004 
L 386.437249 113.611475 
L 391.978271 99.516578 
L 397.519294 113.611475 
L 403.060316 100.691153 
L 408.601339 107.738601 
L 414.142361 92.46913 
L 419.683384 80.723383 
L 425.224406 70.15221 
L 430.765429 80.723383 
L 436.306451 73.675934 
L 441.847474 73.675934 
L 447.388496 92.46913 
L 452.929519 93.643705 
L 458.470541 103.040303 
L 464.011564 106.564027 
L 469.552586 99.516578 
L 475.093609 110.087751 
L 480.634631 105.389452 
L 486.175654 108.913176 
L 497.257699 101.865728 
L 502.798721 74.850509 
L 508.339744 79.548808 
L 524.962811 83.072532 
L 530.503834 85.421682 
L 536.044856 79.548808 
L 541.585879 78.374233 
L 547.126901 80.723383 
L 552.667924 76.025084 
L 558.208946 94.818279 
L 563.749969 84.247107 
L 569.290991 92.46913 
L 574.832014 104.214877 
L 580.373036 106.564027 
L 585.914059 117.135199 
L 591.455081 114.78605 
L 596.996104 120.658923 
L 602.537126 120.658923 
L 608.078149 114.78605 
L 613.619171 118.309774 
L 619.160194 119.484349 
L 624.701216 125.357222 
L 630.242239 113.611475 
L 635.783261 120.658923 
L 641.324284 117.135199 
L 646.865306 118.309774 
L 652.406329 113.611475 
L 657.947351 118.309774 
L 663.488374 112.4369 
L 669.029396 121.833498 
L 674.570419 119.484349 
L 680.111441 113.611475 
L 691.193486 125.357222 
L 696.734509 127.706372 
L 702.275531 121.833498 
L 707.816554 118.309774 
L 713.357576 115.960624 
L 718.898599 125.357222 
L 724.439621 99.516578 
L 729.980644 88.945406 
L 735.521666 87.770831 
L 741.062689 88.945406 
L 752.144734 88.945406 
L 754.915245 94.818279 
L 757.685756 99.516578 
L 763.226779 104.214877 
L 768.767801 115.960624 
L 774.308824 121.833498 
L 779.849846 104.214877 
L 785.390869 123.008073 
L 790.931891 127.706372 
L 796.472914 127.706372 
L 802.013936 132.404671 
L 807.554959 128.880946 
L 813.095981 88.945406 
L 818.637004 94.818279 
L 824.178026 95.992854 
L 829.719049 90.119981 
L 840.801094 95.992854 
L 846.342116 91.294555 
L 851.883139 95.992854 
L 857.424161 90.119981 
L 862.965184 95.992854 
L 868.506206 114.78605 
L 874.047229 118.309774 
L 879.588251 130.055521 
L 885.129274 135.928395 
L 890.670296 132.404671 
L 893.440807 128.880946 
L 896.211319 126.531797 
L 901.752341 135.928395 
L 907.293364 128.880946 
L 912.834386 132.404671 
L 918.375409 128.880946 
L 918.375409 128.880946 
" clip-path="url(#p0eb5ab3140)" style="fill: none; stroke: #ee6410; stroke-opacity: 0.95; stroke-width: 1.3; stroke-linecap: square"/>
   </g>
   <g id="line2d_36">
    <path d="M 70.598966 139.452119 
L 81.681011 132.404671 
L 92.763056 128.880946 
L 98.304079 118.309774 
L 103.845101 92.46913 
L 109.386124 105.389452 
L 114.927146 111.262326 
L 120.468169 108.913176 
L 126.009191 94.818279 
L 131.550214 108.913176 
L 137.091236 127.706372 
L 142.632259 134.75382 
L 148.173281 142.975843 
L 153.714304 131.230096 
L 159.255326 110.087751 
L 164.796349 115.960624 
L 170.337371 118.309774 
L 175.878394 119.484349 
L 181.419416 113.611475 
L 186.960439 100.691153 
L 192.501461 77.199659 
L 198.042484 81.897958 
L 203.583506 64.279337 
L 214.665551 64.279337 
L 225.747596 68.977636 
L 231.288619 60.755612 
L 236.829641 58.406463 
L 242.370664 79.548808 
L 247.911686 106.564027 
L 253.452709 97.167429 
L 258.993731 115.960624 
L 270.075776 134.75382 
L 275.616799 110.087751 
L 281.157821 87.770831 
L 286.698844 92.46913 
L 292.239866 111.262326 
L 297.780889 93.643705 
L 303.321911 118.309774 
L 308.862934 106.564027 
L 314.403956 97.167429 
L 319.944979 110.087751 
L 325.486001 95.992854 
L 331.027024 98.342004 
L 336.568046 99.516578 
L 342.109069 113.611475 
L 347.650091 103.040303 
L 353.191114 117.135199 
L 358.732136 128.880946 
L 364.273159 110.087751 
L 375.355204 107.738601 
L 380.896226 113.611475 
L 386.437249 110.087751 
L 391.978271 95.992854 
L 397.519294 124.182648 
L 403.060316 100.691153 
L 408.601339 120.658923 
L 414.142361 86.596256 
L 419.683384 84.247107 
L 425.224406 52.533589 
L 430.765429 70.15221 
L 436.306451 70.15221 
L 441.847474 59.581038 
L 447.388496 137.102969 
L 452.929519 104.214877 
L 458.470541 119.484349 
L 464.011564 95.992854 
L 469.552586 107.738601 
L 475.093609 133.579245 
L 480.634631 95.992854 
L 486.175654 87.770831 
L 491.716676 91.294555 
L 497.257699 81.897958 
L 502.798721 65.453911 
L 508.339744 66.628486 
L 513.880766 58.406463 
L 524.962811 59.581038 
L 530.503834 53.708164 
L 536.044856 61.930187 
L 541.585879 60.755612 
L 547.126901 52.533589 
L 552.667924 70.15221 
L 558.208946 123.008073 
L 563.749969 97.167429 
L 569.290991 137.102969 
L 574.832014 135.928395 
L 577.602525 133.579245 
L 580.373036 130.055521 
L 585.914059 114.78605 
L 591.455081 101.865728 
L 596.996104 113.611475 
L 602.537126 114.78605 
L 608.078149 107.738601 
L 613.619171 127.706372 
L 619.160194 114.78605 
L 624.701216 107.738601 
L 630.242239 92.46913 
L 635.783261 90.119981 
L 641.324284 91.294555 
L 646.865306 107.738601 
L 657.947351 131.230096 
L 663.488374 117.135199 
L 669.029396 123.008073 
L 674.570419 111.262326 
L 680.111441 106.564027 
L 691.193486 126.531797 
L 696.734509 100.691153 
L 702.275531 97.167429 
L 707.816554 106.564027 
L 713.357576 127.706372 
L 718.898599 118.309774 
L 724.439621 112.4369 
L 729.980644 78.374233 
L 735.521666 71.326785 
L 741.062689 63.104762 
L 746.603711 70.15221 
L 752.144734 67.803061 
L 757.685756 121.833498 
L 763.226779 120.658923 
L 768.767801 158.245314 
L 774.308824 152.372441 
L 785.390869 159.419889 
L 790.931891 144.150418 
L 796.472914 127.706372 
L 802.013936 132.404671 
L 807.554959 126.531797 
L 813.095981 83.072532 
L 818.637004 86.596256 
L 824.178026 76.025084 
L 829.719049 71.326785 
L 840.801094 76.025084 
L 846.342116 73.675934 
L 851.883139 74.850509 
L 857.424161 72.50136 
L 862.965184 71.326785 
L 868.506206 127.706372 
L 874.047229 105.389452 
L 879.588251 164.118188 
L 885.129274 113.611475 
L 890.670296 111.262326 
L 893.440807 131.230096 
L 896.211319 152.372441 
L 901.752341 138.277544 
L 907.293364 159.419889 
L 912.834386 139.452119 
L 918.375409 147.674142 
L 918.375409 147.674142 
" clip-path="url(#p0eb5ab3140)" style="fill: none; stroke: #dd4d04; stroke-opacity: 0.95; stroke-width: 1.3; stroke-linecap: square"/>
   </g>
   <g id="patch_23">
    <path d="M 53.643438 228.954713 
L 53.643438 17.061433 
" style="fill: none; stroke: #cbd5e1; stroke-width: 0.8; stroke-linejoin: miter; stroke-linecap: square"/>
   </g>
   <g id="patch_24">
    <path d="M 935.330937 228.954713 
L 935.330937 17.061433 
" style="fill: none; stroke: #cbd5e1; stroke-width: 0.8; stroke-linejoin: miter; stroke-linecap: square"/>
   </g>
   <g id="patch_25">
    <path d="M 53.643438 228.954713 
L 935.330938 228.954713 
" style="fill: none; stroke: #cbd5e1; stroke-width: 0.8; stroke-linejoin: miter; stroke-linecap: square"/>
   </g>
   <g id="patch_26">
    <path d="M 53.643438 17.061433 
L 935.330938 17.061433 
" style="fill: none; stroke: #cbd5e1; stroke-width: 0.8; stroke-linejoin: miter; stroke-linecap: square"/>
   </g>
   <g id="text_18">
    <!-- ACC -->
    <g style="fill: #475569" transform="translate(53.868702 13.27875) scale(0.08 -0.08)">
     <defs>
      <path id="DejaVuSans-41" d="M 2188 4044 
L 1331 1722 
L 3047 1722 
L 2188 4044 
z
M 1831 4666 
L 2547 4666 
L 4325 0 
L 3669 0 
L 3244 1197 
L 1141 1197 
L 716 0 
L 50 0 
L 1831 4666 
z
" transform="scale(0.015625)"/>
     </defs>
     <use xlink:href="#DejaVuSans-41"/>
     <use xlink:href="#DejaVuSans-43" transform="translate(66.658203 0)"/>
     <use xlink:href="#DejaVuSans-43" transform="translate(136.482422 0)"/>
    </g>
   </g>
   <g id="text_19">
    <!-- OC -->
    <g style="fill: #475569" transform="translate(84.05067 13.27875) scale(0.08 -0.08)">
     <defs>
      <path id="DejaVuSans-4f" d="M 2522 4238 
Q 1834 4238 1429 3725 
Q 1025 3213 1025 2328 
Q 1025 1447 1429 934 
Q 1834 422 2522 422 
Q 3209 422 3611 934 
Q 4013 1447 4013 2328 
Q 4013 3213 3611 3725 
Q 3209 4238 2522 4238 
z
M 2522 4750 
Q 3503 4750 4090 4092 
Q 4678 3434 4678 2328 
Q 4678 1225 4090 567 
Q 3503 -91 2522 -91 
Q 1538 -91 948 565 
Q 359 1222 359 2328 
Q 359 3434 948 4092 
Q 1538 4750 2522 4750 
z
" transform="scale(0.015625)"/>
     </defs>
     <use xlink:href="#DejaVuSans-4f"/>
     <use xlink:href="#DejaVuSans-43" transform="translate(78.710938 0)"/>
    </g>
   </g>
   <g id="text_20">
    <!-- FCS -->
    <g style="fill: #475569" transform="translate(115.605555 13.27875) scale(0.08 -0.08)">
     <defs>
      <path id="DejaVuSans-46" d="M 628 4666 
L 3309 4666 
L 3309 4134 
L 1259 4134 
L 1259 2759 
L 3109 2759 
L 3109 2228 
L 1259 2228 
L 1259 0 
L 628 0 
L 628 4666 
z
" transform="scale(0.015625)"/>
      <path id="DejaVuSans-53" d="M 3425 4513 
L 3425 3897 
Q 3066 4069 2747 4153 
Q 2428 4238 2131 4238 
Q 1616 4238 1336 4038 
Q 1056 3838 1056 3469 
Q 1056 3159 1242 3001 
Q 1428 2844 1947 2747 
L 2328 2669 
Q 3034 2534 3370 2195 
Q 3706 1856 3706 1288 
Q 3706 609 3251 259 
Q 2797 -91 1919 -91 
Q 1588 -91 1214 -16 
Q 841 59 441 206 
L 441 856 
Q 825 641 1194 531 
Q 1563 422 1919 422 
Q 2459 422 2753 634 
Q 3047 847 3047 1241 
Q 3047 1584 2836 1778 
Q 2625 1972 2144 2069 
L 1759 2144 
Q 1053 2284 737 2584 
Q 422 2884 422 3419 
Q 422 4038 858 4394 
Q 1294 4750 2059 4750 
Q 2388 4750 2728 4690 
Q 3069 4631 3425 4513 
z
" transform="scale(0.015625)"/>
     </defs>
     <use xlink:href="#DejaVuSans-46"/>
     <use xlink:href="#DejaVuSans-43" transform="translate(57.519531 0)"/>
     <use xlink:href="#DejaVuSans-53" transform="translate(127.34375 0)"/>
    </g>
   </g>
   <g id="text_21">
    <!-- SR -->
    <g style="fill: #475569" transform="translate(156.707088 13.27875) scale(0.08 -0.08)">
     <defs>
      <path id="DejaVuSans-52" d="M 2841 2188 
Q 3044 2119 3236 1894 
Q 3428 1669 3622 1275 
L 4263 0 
L 3584 0 
L 2988 1197 
Q 2756 1666 2539 1819 
Q 2322 1972 1947 1972 
L 1259 1972 
L 1259 0 
L 628 0 
L 628 4666 
L 2053 4666 
Q 2853 4666 3247 4331 
Q 3641 3997 3641 3322 
Q 3641 2881 3436 2590 
Q 3231 2300 2841 2188 
z
M 1259 4147 
L 1259 2491 
L 2053 2491 
Q 2509 2491 2742 2702 
Q 2975 2913 2975 3322 
Q 2975 3731 2742 3939 
Q 2509 4147 2053 4147 
L 1259 4147 
z
" transform="scale(0.015625)"/>
     </defs>
     <use xlink:href="#DejaVuSans-53"/>
     <use xlink:href="#DejaVuSans-52" transform="translate(63.476562 0)"/>
    </g>
   </g>
   <g id="text_22">
    <!-- FFC -->
    <g style="fill: #475569" transform="translate(207.271176 13.27875) scale(0.08 -0.08)">
     <use xlink:href="#DejaVuSans-46"/>
     <use xlink:href="#DejaVuSans-46" transform="translate(57.519531 0)"/>
     <use xlink:href="#DejaVuSans-43" transform="translate(115.039062 0)"/>
    </g>
   </g>
   <g id="text_23">
    <!-- SS -->
    <g style="fill: #475569" transform="translate(314.866229 13.27875) scale(0.08 -0.08)">
     <use xlink:href="#DejaVuSans-53"/>
     <use xlink:href="#DejaVuSans-53" transform="translate(63.476562 0)"/>
    </g>
   </g>
   <g id="text_24">
    <!-- OC -->
    <g style="fill: #475569" transform="translate(399.888953 13.27875) scale(0.08 -0.08)">
     <use xlink:href="#DejaVuSans-4f"/>
     <use xlink:href="#DejaVuSans-43" transform="translate(78.710938 0)"/>
    </g>
   </g>
   <g id="text_25">
    <!-- FCS -->
    <g style="fill: #475569" transform="translate(425.902815 13.27875) scale(0.08 -0.08)">
     <use xlink:href="#DejaVuSans-46"/>
     <use xlink:href="#DejaVuSans-43" transform="translate(57.519531 0)"/>
     <use xlink:href="#DejaVuSans-53" transform="translate(127.34375 0)"/>
    </g>
   </g>
   <g id="text_26">
    <!-- SR -->
    <g style="fill: #475569" transform="translate(467.004348 13.27875) scale(0.08 -0.08)">
     <use xlink:href="#DejaVuSans-53"/>
     <use xlink:href="#DejaVuSans-52" transform="translate(63.476562 0)"/>
    </g>
   </g>
   <g id="text_27">
    <!-- FFC -->
    <g style="fill: #475569" transform="translate(517.568436 13.27875) scale(0.08 -0.08)">
     <use xlink:href="#DejaVuSans-46"/>
     <use xlink:href="#DejaVuSans-46" transform="translate(57.519531 0)"/>
     <use xlink:href="#DejaVuSans-43" transform="translate(115.039062 0)"/>
    </g>
   </g>
   <g id="text_28">
    <!-- SS -->
    <g style="fill: #475569" transform="translate(625.163489 13.27875) scale(0.08 -0.08)">
     <use xlink:href="#DejaVuSans-53"/>
     <use xlink:href="#DejaVuSans-53" transform="translate(63.476562 0)"/>
    </g>
   </g>
   <g id="text_29">
    <!-- OC -->
    <g style="fill: #475569" transform="translate(710.186212 13.27875) scale(0.08 -0.08)">
     <use xlink:href="#DejaVuSans-4f"/>
     <use xlink:href="#DejaVuSans-43" transform="translate(78.710938 0)"/>
    </g>
   </g>
   <g id="text_30">
    <!-- FCS -->
    <g style="fill: #475569" transform="translate(736.200075 13.27875) scale(0.08 -0.08)">
     <use xlink:href="#DejaVuSans-46"/>
     <use xlink:href="#DejaVuSans-43" transform="translate(57.519531 0)"/>
     <use xlink:href="#DejaVuSans-53" transform="translate(127.34375 0)"/>
    </g>
   </g>
   <g id="text_31">
    <!-- SR -->
    <g style="fill: #475569" transform="translate(777.301607 13.27875) scale(0.08 -0.08)">
     <use xlink:href="#DejaVuSans-53"/>
     <use xlink:href="#DejaVuSans-52" transform="translate(63.476562 0)"/>
    </g>
   </g>
   <g id="text_32">
    <!-- FFC -->
    <g style="fill: #475569" transform="translate(827.865696 13.27875) scale(0.08 -0.08)">
     <use xlink:href="#DejaVuSans-46"/>
     <use xlink:href="#DejaVuSans-46" transform="translate(57.519531 0)"/>
     <use xlink:href="#DejaVuSans-43" transform="translate(115.039062 0)"/>
    </g>
   </g>
   <g id="text_33">
    <!-- SS -->
    <g style="fill: #475569" transform="translate(888.362057 13.27875) scale(0.08 -0.08)">
     <use xlink:href="#DejaVuSans-53"/>
     <use xlink:href="#DejaVuSans-53" transform="translate(63.476562 0)"/>
    </g>
   </g>
   <g id="legend_1">
    <g id="line2d_37">
     <path d="M 847.378437 27.540183 
L 855.378437 27.540183 
L 863.378437 27.540183 
" style="fill: none; stroke: #fdc38d; stroke-opacity: 0.95; stroke-width: 1.3; stroke-linecap: square"/>
    </g>
    <g id="text_34">
     <!-- T1 -->
     <g transform="translate(869.778437 30.340183) scale(0.08 -0.08)">
      <use xlink:href="#DejaVuSans-54"/>
      <use xlink:href="#DejaVuSans-31" transform="translate(61.083984 0)"/>
     </g>
    </g>
    <g id="line2d_38">
     <path d="M 847.378437 39.282683 
L 855.378437 39.282683 
L 863.378437 39.282683 
" style="fill: none; stroke: #fdac67; stroke-opacity: 0.95; stroke-width: 1.3; stroke-linecap: square"/>
    </g>
    <g id="text_35">
     <!-- T2 -->
     <g transform="translate(869.778437 42.082683) scale(0.08 -0.08)">
      <use xlink:href="#DejaVuSans-54"/>
      <use xlink:href="#DejaVuSans-32" transform="translate(61.083984 0)"/>
     </g>
    </g>
    <g id="line2d_39">
     <path d="M 847.378437 51.025183 
L 855.378437 51.025183 
L 863.378437 51.025183 
" style="fill: none; stroke: #fd9547; stroke-opacity: 0.95; stroke-width: 1.3; stroke-linecap: square"/>
    </g>
    <g id="text_36">
     <!-- T3 -->
     <g transform="translate(869.778437 53.825183) scale(0.08 -0.08)">
      <use xlink:href="#DejaVuSans-54"/>
      <use xlink:href="#DejaVuSans-33" transform="translate(61.083984 0)"/>
     </g>
    </g>
    <g id="line2d_40">
     <path d="M 895.754687 27.540183 
L 903.754687 27.540183 
L 911.754687 27.540183 
" style="fill: none; stroke: #f87d29; stroke-opacity: 0.95; stroke-width: 1.3; stroke-linecap: square"/>
    </g>
    <g id="text_37">
     <!-- T4 -->
     <g transform="translate(918.154687 30.340183) scale(0.08 -0.08)">
      <use xlink:href="#DejaVuSans-54"/>
      <use xlink:href="#DejaVuSans-34" transform="translate(61.083984 0)"/>
     </g>
    </g>
    <g id="line2d_41">
     <path d="M 895.754687 39.282683 
L 903.754687 39.282683 
L 911.754687 39.282683 
" style="fill: none; stroke: #ee6410; stroke-opacity: 0.95; stroke-width: 1.3; stroke-linecap: square"/>
    </g>
    <g id="text_38">
     <!-- T5 -->
     <g transform="translate(918.154687 42.082683) scale(0.08 -0.08)">
      <use xlink:href="#DejaVuSans-54"/>
      <use xlink:href="#DejaVuSans-35" transform="translate(61.083984 0)"/>
     </g>
    </g>
    <g id="line2d_42">
     <path d="M 895.754687 51.025183 
L 903.754687 51.025183 
L 911.754687 51.025183 
" style="fill: none; stroke: #dd4d04; stroke-opacity: 0.95; stroke-width: 1.3; stroke-linecap: square"/>
    </g>
    <g id="text_39">
     <!-- T6 -->
     <g transform="translate(918.154687 53.825183) scale(0.08 -0.08)">
      <use xlink:href="#DejaVuSans-54"/>
      <use xlink:href="#DejaVuSans-36" transform="translate(61.083984 0)"/>
     </g>
    </g>
   </g>
  </g>
 </g>
 <defs>
  <clipPath id="p0eb5ab3140">
   <rect x="53.643438" y="17.061433" width="881.6875" height="211.89328"/>
  </clipPath>
 </defs>
</svg>
