<?xml version="1.0" encoding="utf-8" standalone="no"?>
<!DOCTYPE svg PUBLIC "-//W3C//DTD SVG 1.1//EN"
  "http://www.w3.org/Graphics/SVG/1.1/DTD/svg11.dtd">
<svg xmlns:xlink="http://www.w3.org/1999/xlink" width="942.542187pt" height="265.54315pt" viewBox="0 0 942.542187 265.54315" xmlns="http://www.w3.org/2000/svg" version="1.1">
 <metadata>
  <rdf:RDF xmlns:dc="http://purl.org/dc/elements/1.1/" xmlns:cc="http://creativecommons.org/ns#" xmlns:rdf="http://www.w3.org/1999/02/22-rdf-syntax-ns#">
   <cc:Work>
    <dc:type rdf:resource="http://purl.org/dc/dcmitype/StillImage"/>
    <dc:date>2026-04-17T17:37:01.528356</dc:date>
    <dc:format>image/svg+xml</dc:format>
    <dc:creator>
     <cc:Agent>
      <dc:title>Matplotlib v3.10.8, https://matplotlib.org/</dc:title>
     </cc:Agent>
    </dc:creator>
   </cc:Work>
  </rdf:RDF>
 </metadata>
 <defs>
  <style type="text/css">*{stroke-linejoin: round; stroke-linecap: butt}</style>
 </defs>
 <g id="figure_1">
  <g id="patch_1">
   <path d="M 0 265.54315 
L 942.542187 265.54315 
L 942.542187 0 
L 0 0 
z
" style="fill: #ffffff"/>
  </g>
  <g id="axes_1">
   <g id="patch_2">
    <path d="M 47.917188 228.954713 
L 935.342188 228.954713 
L 935.342188 17.061433 
L 47.917188 17.061433 
z
" style="fill: #ffffff"/>
   </g>
   <g id="patch_3">
    <path d="M 47.917188 228.954713 
L 228.288491 228.954713 
L 228.288491 17.061433 
L 47.917188 17.061433 
z
" clip-path="url(#pb78f18e5c7)" style="fill: #f8fafc; opacity: 0.45"/>
   </g>
   <g id="patch_4">
    <path d="M 228.288491 228.954713 
L 255.344186 228.954713 
L 255.344186 17.061433 
L 228.288491 17.061433 
z
" clip-path="url(#pb78f18e5c7)" style="fill: #eff6ff; opacity: 0.45"/>
   </g>
   <g id="patch_5">
    <path d="M 255.344186 228.954713 
L 277.890599 228.954713 
L 277.890599 17.061433 
L 255.344186 17.061433 
z
" clip-path="url(#pb78f18e5c7)" style="fill: #fef3c7; opacity: 0.45"/>
   </g>
   <g id="patch_6">
    <path d="M 277.890599 228.954713 
L 322.983425 228.954713 
L 322.983425 17.061433 
L 277.890599 17.061433 
z
" clip-path="url(#pb78f18e5c7)" style="fill: #dcfce7; opacity: 0.45"/>
   </g>
   <g id="patch_7">
    <path d="M 322.983425 228.954713 
L 363.566968 228.954713 
L 363.566968 17.061433 
L 322.983425 17.061433 
z
" clip-path="url(#pb78f18e5c7)" style="fill: #fee2e2; opacity: 0.45"/>
   </g>
   <g id="patch_8">
    <path d="M 363.566968 228.954713 
L 368.076251 228.954713 
L 368.076251 17.061433 
L 363.566968 17.061433 
z
" clip-path="url(#pb78f18e5c7)" style="fill: #ede9fe; opacity: 0.45"/>
   </g>
   <g id="patch_9">
    <path d="M 368.076251 228.954713 
L 485.317598 228.954713 
L 485.317598 17.061433 
L 368.076251 17.061433 
z
" clip-path="url(#pb78f18e5c7)" style="fill: #f8fafc; opacity: 0.45"/>
   </g>
   <g id="patch_10">
    <path d="M 485.317598 228.954713 
L 507.864011 228.954713 
L 507.864011 17.061433 
L 485.317598 17.061433 
z
" clip-path="url(#pb78f18e5c7)" style="fill: #eff6ff; opacity: 0.45"/>
   </g>
   <g id="patch_11">
    <path d="M 507.864011 228.954713 
L 530.410424 228.954713 
L 530.410424 17.061433 
L 507.864011 17.061433 
z
" clip-path="url(#pb78f18e5c7)" style="fill: #fef3c7; opacity: 0.45"/>
   </g>
   <g id="patch_12">
    <path d="M 530.410424 228.954713 
L 575.503249 228.954713 
L 575.503249 17.061433 
L 530.410424 17.061433 
z
" clip-path="url(#pb78f18e5c7)" style="fill: #dcfce7; opacity: 0.45"/>
   </g>
   <g id="patch_13">
    <path d="M 575.503249 228.954713 
L 620.596075 228.954713 
L 620.596075 17.061433 
L 575.503249 17.061433 
z
" clip-path="url(#pb78f18e5c7)" style="fill: #fee2e2; opacity: 0.45"/>
   </g>
   <g id="patch_14">
    <path d="M 620.596075 228.954713 
L 737.837422 228.954713 
L 737.837422 17.061433 
L 620.596075 17.061433 
z
" clip-path="url(#pb78f18e5c7)" style="fill: #ede9fe; opacity: 0.45"/>
   </g>
   <g id="patch_15">
    <path d="M 737.837422 228.954713 
L 760.383835 228.954713 
L 760.383835 17.061433 
L 737.837422 17.061433 
z
" clip-path="url(#pb78f18e5c7)" style="fill: #f8fafc; opacity: 0.45"/>
   </g>
   <g id="patch_16">
    <path d="M 760.383835 228.954713 
L 787.439531 228.954713 
L 787.439531 17.061433 
L 760.383835 17.061433 
z
" clip-path="url(#pb78f18e5c7)" style="fill: #eff6ff; opacity: 0.45"/>
   </g>
   <g id="patch_17">
    <path d="M 787.439531 228.954713 
L 828.023074 228.954713 
L 828.023074 17.061433 
L 787.439531 17.061433 
z
" clip-path="url(#pb78f18e5c7)" style="fill: #fef3c7; opacity: 0.45"/>
   </g>
   <g id="patch_18">
    <path d="M 828.023074 228.954713 
L 873.1159 228.954713 
L 873.1159 17.061433 
L 828.023074 17.061433 
z
" clip-path="url(#pb78f18e5c7)" style="fill: #dcfce7; opacity: 0.45"/>
   </g>
   <g id="patch_19">
    <path d="M 873.1159 228.954713 
L 913.699443 228.954713 
L 913.699443 17.061433 
L 873.1159 17.061433 
z
" clip-path="url(#pb78f18e5c7)" style="fill: #fee2e2; opacity: 0.45"/>
   </g>
   <g id="patch_20">
    <path d="M 913.699443 228.954713 
L 918.208726 228.954713 
L 918.208726 17.061433 
L 913.699443 17.061433 
z
" clip-path="url(#pb78f18e5c7)" style="fill: #ede9fe; opacity: 0.45"/>
   </g>
   <g id="matplotlib.axis_1">
    <g id="xtick_1">
     <g id="line2d_1">
      <path d="M 47.917188 228.954713 
L 47.917188 17.061433 
" clip-path="url(#pb78f18e5c7)" style="fill: none; stroke: #eef2f7; stroke-width: 0.55; stroke-linecap: square"/>
     </g>
     <g id="line2d_2">
      <defs>
       <path id="ma3137ef4bb" d="M 0 0 
L 0 3.5 
" style="stroke: #000000; stroke-width: 0.8"/>
      </defs>
      <g>
       <use xlink:href="#ma3137ef4bb" x="47.917188" y="228.954713" style="stroke: #000000; stroke-width: 0.8"/>
      </g>
     </g>
     <g id="text_1">
      <!-- 0 -->
      <g transform="translate(45.054063 242.793307) scale(0.09 -0.09)">
       <defs>
        <path id="DejaVuSans-30" d="M 2034 4250 
Q 1547 4250 1301 3770 
Q 1056 3291 1056 2328 
Q 1056 1369 1301 889 
Q 1547 409 2034 409 
Q 2525 409 2770 889 
Q 3016 1369 3016 2328 
Q 3016 3291 2770 3770 
Q 2525 4250 2034 4250 
z
M 2034 4750 
Q 2819 4750 3233 4129 
Q 3647 3509 3647 2328 
Q 3647 1150 3233 529 
Q 2819 -91 2034 -91 
Q 1250 -91 836 529 
Q 422 1150 422 2328 
Q 422 3509 836 4129 
Q 1250 4750 2034 4750 
z
" transform="scale(0.015625)"/>
       </defs>
       <use xlink:href="#DejaVuSans-30"/>
      </g>
     </g>
    </g>
    <g id="xtick_2">
     <g id="line2d_3">
      <path d="M 160.649252 228.954713 
L 160.649252 17.061433 
" clip-path="url(#pb78f18e5c7)" style="fill: none; stroke: #eef2f7; stroke-width: 0.55; stroke-linecap: square"/>
     </g>
     <g id="line2d_4">
      <g>
       <use xlink:href="#ma3137ef4bb" x="160.649252" y="228.954713" style="stroke: #000000; stroke-width: 0.8"/>
      </g>
     </g>
     <g id="text_2">
      <!-- 25 -->
      <g transform="translate(154.923002 242.793307) scale(0.09 -0.09)">
       <defs>
        <path id="DejaVuSans-32" d="M 1228 531 
L 3431 531 
L 3431 0 
L 469 0 
L 469 531 
Q 828 903 1448 1529 
Q 2069 2156 2228 2338 
Q 2531 2678 2651 2914 
Q 2772 3150 2772 3378 
Q 2772 3750 2511 3984 
Q 2250 4219 1831 4219 
Q 1534 4219 1204 4116 
Q 875 4013 500 3803 
L 500 4441 
Q 881 4594 1212 4672 
Q 1544 4750 1819 4750 
Q 2544 4750 2975 4387 
Q 3406 4025 3406 3419 
Q 3406 3131 3298 2873 
Q 3191 2616 2906 2266 
Q 2828 2175 2409 1742 
Q 1991 1309 1228 531 
z
" transform="scale(0.015625)"/>
        <path id="DejaVuSans-35" d="M 691 4666 
L 3169 4666 
L 3169 4134 
L 1269 4134 
L 1269 2991 
Q 1406 3038 1543 3061 
Q 1681 3084 1819 3084 
Q 2600 3084 3056 2656 
Q 3513 2228 3513 1497 
Q 3513 744 3044 326 
Q 2575 -91 1722 -91 
Q 1428 -91 1123 -41 
Q 819 9 494 109 
L 494 744 
Q 775 591 1075 516 
Q 1375 441 1709 441 
Q 2250 441 2565 725 
Q 2881 1009 2881 1497 
Q 2881 1984 2565 2268 
Q 2250 2553 1709 2553 
Q 1456 2553 1204 2497 
Q 953 2441 691 2322 
L 691 4666 
z
" transform="scale(0.015625)"/>
       </defs>
       <use xlink:href="#DejaVuSans-32"/>
       <use xlink:href="#DejaVuSans-35" transform="translate(63.623047 0)"/>
      </g>
     </g>
    </g>
    <g id="xtick_3">
     <g id="line2d_5">
      <path d="M 273.381317 228.954713 
L 273.381317 17.061433 
" clip-path="url(#pb78f18e5c7)" style="fill: none; stroke: #eef2f7; stroke-width: 0.55; stroke-linecap: square"/>
     </g>
     <g id="line2d_6">
      <g>
       <use xlink:href="#ma3137ef4bb" x="273.381317" y="228.954713" style="stroke: #000000; stroke-width: 0.8"/>
      </g>
     </g>
     <g id="text_3">
      <!-- 50 -->
      <g transform="translate(267.655067 242.793307) scale(0.09 -0.09)">
       <use xlink:href="#DejaVuSans-35"/>
       <use xlink:href="#DejaVuSans-30" transform="translate(63.623047 0)"/>
      </g>
     </g>
    </g>
    <g id="xtick_4">
     <g id="line2d_7">
      <path d="M 386.113381 228.954713 
L 386.113381 17.061433 
" clip-path="url(#pb78f18e5c7)" style="fill: none; stroke: #eef2f7; stroke-width: 0.55; stroke-linecap: square"/>
     </g>
     <g id="line2d_8">
      <g>
       <use xlink:href="#ma3137ef4bb" x="386.113381" y="228.954713" style="stroke: #000000; stroke-width: 0.8"/>
      </g>
     </g>
     <g id="text_4">
      <!-- 75 -->
      <g transform="translate(380.387131 242.793307) scale(0.09 -0.09)">
       <defs>
        <path id="DejaVuSans-37" d="M 525 4666 
L 3525 4666 
L 3525 4397 
L 1831 0 
L 1172 0 
L 2766 4134 
L 525 4134 
L 525 4666 
z
" transform="scale(0.015625)"/>
       </defs>
       <use xlink:href="#DejaVuSans-37"/>
       <use xlink:href="#DejaVuSans-35" transform="translate(63.623047 0)"/>
      </g>
     </g>
    </g>
    <g id="xtick_5">
     <g id="line2d_9">
      <path d="M 498.845446 228.954713 
L 498.845446 17.061433 
" clip-path="url(#pb78f18e5c7)" style="fill: none; stroke: #eef2f7; stroke-width: 0.55; stroke-linecap: square"/>
     </g>
     <g id="line2d_10">
      <g>
       <use xlink:href="#ma3137ef4bb" x="498.845446" y="228.954713" style="stroke: #000000; stroke-width: 0.8"/>
      </g>
     </g>
     <g id="text_5">
      <!-- 100 -->
      <g transform="translate(490.256071 242.793307) scale(0.09 -0.09)">
       <defs>
        <path id="DejaVuSans-31" d="M 794 531 
L 1825 531 
L 1825 4091 
L 703 3866 
L 703 4441 
L 1819 4666 
L 2450 4666 
L 2450 531 
L 3481 531 
L 3481 0 
L 794 0 
L 794 531 
z
" transform="scale(0.015625)"/>
       </defs>
       <use xlink:href="#DejaVuSans-31"/>
       <use xlink:href="#DejaVuSans-30" transform="translate(63.623047 0)"/>
       <use xlink:href="#DejaVuSans-30" transform="translate(127.246094 0)"/>
      </g>
     </g>
    </g>
    <g id="xtick_6">
     <g id="line2d_11">
      <path d="M 611.57751 228.954713 
L 611.57751 17.061433 
" clip-path="url(#pb78f18e5c7)" style="fill: none; stroke: #eef2f7; stroke-width: 0.55; stroke-linecap: square"/>
     </g>
     <g id="line2d_12">
      <g>
       <use xlink:href="#ma3137ef4bb" x="611.57751" y="228.954713" style="stroke: #000000; stroke-width: 0.8"/>
      </g>
     </g>
     <g id="text_6">
      <!-- 125 -->
      <g transform="translate(602.988135 242.793307) scale(0.09 -0.09)">
       <use xlink:href="#DejaVuSans-31"/>
       <use xlink:href="#DejaVuSans-32" transform="translate(63.623047 0)"/>
       <use xlink:href="#DejaVuSans-35" transform="translate(127.246094 0)"/>
      </g>
     </g>
    </g>
    <g id="xtick_7">
     <g id="line2d_13">
      <path d="M 724.309575 228.954713 
L 724.309575 17.061433 
" clip-path="url(#pb78f18e5c7)" style="fill: none; stroke: #eef2f7; stroke-width: 0.55; stroke-linecap: square"/>
     </g>
     <g id="line2d_14">
      <g>
       <use xlink:href="#ma3137ef4bb" x="724.309575" y="228.954713" style="stroke: #000000; stroke-width: 0.8"/>
      </g>
     </g>
     <g id="text_7">
      <!-- 150 -->
      <g transform="translate(715.7202 242.793307) scale(0.09 -0.09)">
       <use xlink:href="#DejaVuSans-31"/>
       <use xlink:href="#DejaVuSans-35" transform="translate(63.623047 0)"/>
       <use xlink:href="#DejaVuSans-30" transform="translate(127.246094 0)"/>
      </g>
     </g>
    </g>
    <g id="xtick_8">
     <g id="line2d_15">
      <path d="M 837.041639 228.954713 
L 837.041639 17.061433 
" clip-path="url(#pb78f18e5c7)" style="fill: none; stroke: #eef2f7; stroke-width: 0.55; stroke-linecap: square"/>
     </g>
     <g id="line2d_16">
      <g>
       <use xlink:href="#ma3137ef4bb" x="837.041639" y="228.954713" style="stroke: #000000; stroke-width: 0.8"/>
      </g>
     </g>
     <g id="text_8">
      <!-- 175 -->
      <g transform="translate(828.452264 242.793307) scale(0.09 -0.09)">
       <use xlink:href="#DejaVuSans-31"/>
       <use xlink:href="#DejaVuSans-37" transform="translate(63.623047 0)"/>
       <use xlink:href="#DejaVuSans-35" transform="translate(127.246094 0)"/>
      </g>
     </g>
    </g>
    <g id="text_9">
     <!-- Minutes since session start -->
     <g transform="translate(424.039844 256.263463) scale(0.1 -0.1)">
      <defs>
       <path id="DejaVuSans-4d" d="M 628 4666 
L 1569 4666 
L 2759 1491 
L 3956 4666 
L 4897 4666 
L 4897 0 
L 4281 0 
L 4281 4097 
L 3078 897 
L 2444 897 
L 1241 4097 
L 1241 0 
L 628 0 
L 628 4666 
z
" transform="scale(0.015625)"/>
       <path id="DejaVuSans-69" d="M 603 3500 
L 1178 3500 
L 1178 0 
L 603 0 
L 603 3500 
z
M 603 4863 
L 1178 4863 
L 1178 4134 
L 603 4134 
L 603 4863 
z
" transform="scale(0.015625)"/>
       <path id="DejaVuSans-6e" d="M 3513 2113 
L 3513 0 
L 2938 0 
L 2938 2094 
Q 2938 2591 2744 2837 
Q 2550 3084 2163 3084 
Q 1697 3084 1428 2787 
Q 1159 2491 1159 1978 
L 1159 0 
L 581 0 
L 581 3500 
L 1159 3500 
L 1159 2956 
Q 1366 3272 1645 3428 
Q 1925 3584 2291 3584 
Q 2894 3584 3203 3211 
Q 3513 2838 3513 2113 
z
" transform="scale(0.015625)"/>
       <path id="DejaVuSans-75" d="M 544 1381 
L 544 3500 
L 1119 3500 
L 1119 1403 
Q 1119 906 1312 657 
Q 1506 409 1894 409 
Q 2359 409 2629 706 
Q 2900 1003 2900 1516 
L 2900 3500 
L 3475 3500 
L 3475 0 
L 2900 0 
L 2900 538 
Q 2691 219 2414 64 
Q 2138 -91 1772 -91 
Q 1169 -91 856 284 
Q 544 659 544 1381 
z
M 1991 3584 
L 1991 3584 
z
" transform="scale(0.015625)"/>
       <path id="DejaVuSans-74" d="M 1172 4494 
L 1172 3500 
L 2356 3500 
L 2356 3053 
L 1172 3053 
L 1172 1153 
Q 1172 725 1289 603 
Q 1406 481 1766 481 
L 2356 481 
L 2356 0 
L 1766 0 
Q 1100 0 847 248 
Q 594 497 594 1153 
L 594 3053 
L 172 3053 
L 172 3500 
L 594 3500 
L 594 4494 
L 1172 4494 
z
" transform="scale(0.015625)"/>
       <path id="DejaVuSans-65" d="M 3597 1894 
L 3597 1613 
L 953 1613 
Q 991 1019 1311 708 
Q 1631 397 2203 397 
Q 2534 397 2845 478 
Q 3156 559 3463 722 
L 3463 178 
Q 3153 47 2828 -22 
Q 2503 -91 2169 -91 
Q 1331 -91 842 396 
Q 353 884 353 1716 
Q 353 2575 817 3079 
Q 1281 3584 2069 3584 
Q 2775 3584 3186 3129 
Q 3597 2675 3597 1894 
z
M 3022 2063 
Q 3016 2534 2758 2815 
Q 2500 3097 2075 3097 
Q 1594 3097 1305 2825 
Q 1016 2553 972 2059 
L 3022 2063 
z
" transform="scale(0.015625)"/>
       <path id="DejaVuSans-73" d="M 2834 3397 
L 2834 2853 
Q 2591 2978 2328 3040 
Q 2066 3103 1784 3103 
Q 1356 3103 1142 2972 
Q 928 2841 928 2578 
Q 928 2378 1081 2264 
Q 1234 2150 1697 2047 
L 1894 2003 
Q 2506 1872 2764 1633 
Q 3022 1394 3022 966 
Q 3022 478 2636 193 
Q 2250 -91 1575 -91 
Q 1294 -91 989 -36 
Q 684 19 347 128 
L 347 722 
Q 666 556 975 473 
Q 1284 391 1588 391 
Q 1994 391 2212 530 
Q 2431 669 2431 922 
Q 2431 1156 2273 1281 
Q 2116 1406 1581 1522 
L 1381 1569 
Q 847 1681 609 1914 
Q 372 2147 372 2553 
Q 372 3047 722 3315 
Q 1072 3584 1716 3584 
Q 2034 3584 2315 3537 
Q 2597 3491 2834 3397 
z
" transform="scale(0.015625)"/>
       <path id="DejaVuSans-20" transform="scale(0.015625)"/>
       <path id="DejaVuSans-63" d="M 3122 3366 
L 3122 2828 
Q 2878 2963 2633 3030 
Q 2388 3097 2138 3097 
Q 1578 3097 1268 2742 
Q 959 2388 959 1747 
Q 959 1106 1268 751 
Q 1578 397 2138 397 
Q 2388 397 2633 464 
Q 2878 531 3122 666 
L 3122 134 
Q 2881 22 2623 -34 
Q 2366 -91 2075 -91 
Q 1284 -91 818 406 
Q 353 903 353 1747 
Q 353 2603 823 3093 
Q 1294 3584 2113 3584 
Q 2378 3584 2631 3529 
Q 2884 3475 3122 3366 
z
" transform="scale(0.015625)"/>
       <path id="DejaVuSans-6f" d="M 1959 3097 
Q 1497 3097 1228 2736 
Q 959 2375 959 1747 
Q 959 1119 1226 758 
Q 1494 397 1959 397 
Q 2419 397 2687 759 
Q 2956 1122 2956 1747 
Q 2956 2369 2687 2733 
Q 2419 3097 1959 3097 
z
M 1959 3584 
Q 2709 3584 3137 3096 
Q 3566 2609 3566 1747 
Q 3566 888 3137 398 
Q 2709 -91 1959 -91 
Q 1206 -91 779 398 
Q 353 888 353 1747 
Q 353 2609 779 3096 
Q 1206 3584 1959 3584 
z
" transform="scale(0.015625)"/>
       <path id="DejaVuSans-61" d="M 2194 1759 
Q 1497 1759 1228 1600 
Q 959 1441 959 1056 
Q 959 750 1161 570 
Q 1363 391 1709 391 
Q 2188 391 2477 730 
Q 2766 1069 2766 1631 
L 2766 1759 
L 2194 1759 
z
M 3341 1997 
L 3341 0 
L 2766 0 
L 2766 531 
Q 2569 213 2275 61 
Q 1981 -91 1556 -91 
Q 1019 -91 701 211 
Q 384 513 384 1019 
Q 384 1609 779 1909 
Q 1175 2209 1959 2209 
L 2766 2209 
L 2766 2266 
Q 2766 2663 2505 2880 
Q 2244 3097 1772 3097 
Q 1472 3097 1187 3025 
Q 903 2953 641 2809 
L 641 3341 
Q 956 3463 1253 3523 
Q 1550 3584 1831 3584 
Q 2591 3584 2966 3190 
Q 3341 2797 3341 1997 
z
" transform="scale(0.015625)"/>
       <path id="DejaVuSans-72" d="M 2631 2963 
Q 2534 3019 2420 3045 
Q 2306 3072 2169 3072 
Q 1681 3072 1420 2755 
Q 1159 2438 1159 1844 
L 1159 0 
L 581 0 
L 581 3500 
L 1159 3500 
L 1159 2956 
Q 1341 3275 1631 3429 
Q 1922 3584 2338 3584 
Q 2397 3584 2469 3576 
Q 2541 3569 2628 3553 
L 2631 2963 
z
" transform="scale(0.015625)"/>
      </defs>
      <use xlink:href="#DejaVuSans-4d"/>
      <use xlink:href="#DejaVuSans-69" transform="translate(86.279297 0)"/>
      <use xlink:href="#DejaVuSans-6e" transform="translate(114.0625 0)"/>
      <use xlink:href="#DejaVuSans-75" transform="translate(177.441406 0)"/>
      <use xlink:href="#DejaVuSans-74" transform="translate(240.820312 0)"/>
      <use xlink:href="#DejaVuSans-65" transform="translate(280.029297 0)"/>
      <use xlink:href="#DejaVuSans-73" transform="translate(341.552734 0)"/>
      <use xlink:href="#DejaVuSans-20" transform="translate(393.652344 0)"/>
      <use xlink:href="#DejaVuSans-73" transform="translate(425.439453 0)"/>
      <use xlink:href="#DejaVuSans-69" transform="translate(477.539062 0)"/>
      <use xlink:href="#DejaVuSans-6e" transform="translate(505.322266 0)"/>
      <use xlink:href="#DejaVuSans-63" transform="translate(568.701172 0)"/>
      <use xlink:href="#DejaVuSans-65" transform="translate(623.681641 0)"/>
      <use xlink:href="#DejaVuSans-20" transform="translate(685.205078 0)"/>
      <use xlink:href="#DejaVuSans-73" transform="translate(716.992188 0)"/>
      <use xlink:href="#DejaVuSans-65" transform="translate(769.091797 0)"/>
      <use xlink:href="#DejaVuSans-73" transform="translate(830.615234 0)"/>
      <use xlink:href="#DejaVuSans-73" transform="translate(882.714844 0)"/>
      <use xlink:href="#DejaVuSans-69" transform="translate(934.814453 0)"/>
      <use xlink:href="#DejaVuSans-6f" transform="translate(962.597656 0)"/>
      <use xlink:href="#DejaVuSans-6e" transform="translate(1023.779297 0)"/>
      <use xlink:href="#DejaVuSans-20" transform="translate(1087.158203 0)"/>
      <use xlink:href="#DejaVuSans-73" transform="translate(1118.945312 0)"/>
      <use xlink:href="#DejaVuSans-74" transform="translate(1171.044922 0)"/>
      <use xlink:href="#DejaVuSans-61" transform="translate(1210.253906 0)"/>
      <use xlink:href="#DejaVuSans-72" transform="translate(1271.533203 0)"/>
      <use xlink:href="#DejaVuSans-74" transform="translate(1312.646484 0)"/>
     </g>
    </g>
   </g>
   <g id="matplotlib.axis_2">
    <g id="ytick_1">
     <g id="line2d_17">
      <path d="M 47.917188 222.387772 
L 935.342188 222.387772 
" clip-path="url(#pb78f18e5c7)" style="fill: none; stroke: #eef2f7; stroke-opacity: 0.25; stroke-width: 0.55; stroke-linecap: square"/>
     </g>
     <g id="line2d_18">
      <defs>
       <path id="mccab451562" d="M 0 0 
L -3.5 0 
" style="stroke: #000000; stroke-width: 0.8"/>
      </defs>
      <g>
       <use xlink:href="#mccab451562" x="47.917188" y="222.387772" style="stroke: #000000; stroke-width: 0.8"/>
      </g>
     </g>
     <g id="text_10">
      <!-- 31.5 -->
      <g transform="translate(20.878125 225.807069) scale(0.09 -0.09)">
       <defs>
        <path id="DejaVuSans-33" d="M 2597 2516 
Q 3050 2419 3304 2112 
Q 3559 1806 3559 1356 
Q 3559 666 3084 287 
Q 2609 -91 1734 -91 
Q 1441 -91 1130 -33 
Q 819 25 488 141 
L 488 750 
Q 750 597 1062 519 
Q 1375 441 1716 441 
Q 2309 441 2620 675 
Q 2931 909 2931 1356 
Q 2931 1769 2642 2001 
Q 2353 2234 1838 2234 
L 1294 2234 
L 1294 2753 
L 1863 2753 
Q 2328 2753 2575 2939 
Q 2822 3125 2822 3475 
Q 2822 3834 2567 4026 
Q 2313 4219 1838 4219 
Q 1578 4219 1281 4162 
Q 984 4106 628 3988 
L 628 4550 
Q 988 4650 1302 4700 
Q 1616 4750 1894 4750 
Q 2613 4750 3031 4423 
Q 3450 4097 3450 3541 
Q 3450 3153 3228 2886 
Q 3006 2619 2597 2516 
z
" transform="scale(0.015625)"/>
        <path id="DejaVuSans-2e" d="M 684 794 
L 1344 794 
L 1344 0 
L 684 0 
L 684 794 
z
" transform="scale(0.015625)"/>
       </defs>
       <use xlink:href="#DejaVuSans-33"/>
       <use xlink:href="#DejaVuSans-31" transform="translate(63.623047 0)"/>
       <use xlink:href="#DejaVuSans-2e" transform="translate(127.246094 0)"/>
       <use xlink:href="#DejaVuSans-35" transform="translate(159.033203 0)"/>
      </g>
     </g>
    </g>
    <g id="ytick_2">
     <g id="line2d_19">
      <path d="M 47.917188 194.368826 
L 935.342188 194.368826 
" clip-path="url(#pb78f18e5c7)" style="fill: none; stroke: #eef2f7; stroke-opacity: 0.25; stroke-width: 0.55; stroke-linecap: square"/>
     </g>
     <g id="line2d_20">
      <g>
       <use xlink:href="#mccab451562" x="47.917188" y="194.368826" style="stroke: #000000; stroke-width: 0.8"/>
      </g>
     </g>
     <g id="text_11">
      <!-- 32.0 -->
      <g transform="translate(20.878125 197.788123) scale(0.09 -0.09)">
       <use xlink:href="#DejaVuSans-33"/>
       <use xlink:href="#DejaVuSans-32" transform="translate(63.623047 0)"/>
       <use xlink:href="#DejaVuSans-2e" transform="translate(127.246094 0)"/>
       <use xlink:href="#DejaVuSans-30" transform="translate(159.033203 0)"/>
      </g>
     </g>
    </g>
    <g id="ytick_3">
     <g id="line2d_21">
      <path d="M 47.917188 166.34988 
L 935.342188 166.34988 
" clip-path="url(#pb78f18e5c7)" style="fill: none; stroke: #eef2f7; stroke-opacity: 0.25; stroke-width: 0.55; stroke-linecap: square"/>
     </g>
     <g id="line2d_22">
      <g>
       <use xlink:href="#mccab451562" x="47.917188" y="166.34988" style="stroke: #000000; stroke-width: 0.8"/>
      </g>
     </g>
     <g id="text_12">
      <!-- 32.5 -->
      <g transform="translate(20.878125 169.769177) scale(0.09 -0.09)">
       <use xlink:href="#DejaVuSans-33"/>
       <use xlink:href="#DejaVuSans-32" transform="translate(63.623047 0)"/>
       <use xlink:href="#DejaVuSans-2e" transform="translate(127.246094 0)"/>
       <use xlink:href="#DejaVuSans-35" transform="translate(159.033203 0)"/>
      </g>
     </g>
    </g>
    <g id="ytick_4">
     <g id="line2d_23">
      <path d="M 47.917188 138.330934 
L 935.342188 138.330934 
" clip-path="url(#pb78f18e5c7)" style="fill: none; stroke: #eef2f7; stroke-opacity: 0.25; stroke-width: 0.55; stroke-linecap: square"/>
     </g>
     <g id="line2d_24">
      <g>
       <use xlink:href="#mccab451562" x="47.917188" y="138.330934" style="stroke: #000000; stroke-width: 0.8"/>
      </g>
     </g>
     <g id="text_13">
      <!-- 33.0 -->
      <g transform="translate(20.878125 141.750231) scale(0.09 -0.09)">
       <use xlink:href="#DejaVuSans-33"/>
       <use xlink:href="#DejaVuSans-33" transform="translate(63.623047 0)"/>
       <use xlink:href="#DejaVuSans-2e" transform="translate(127.246094 0)"/>
       <use xlink:href="#DejaVuSans-30" transform="translate(159.033203 0)"/>
      </g>
     </g>
    </g>
    <g id="ytick_5">
     <g id="line2d_25">
      <path d="M 47.917188 110.311988 
L 935.342188 110.311988 
" clip-path="url(#pb78f18e5c7)" style="fill: none; stroke: #eef2f7; stroke-opacity: 0.25; stroke-width: 0.55; stroke-linecap: square"/>
     </g>
     <g id="line2d_26">
      <g>
       <use xlink:href="#mccab451562" x="47.917188" y="110.311988" style="stroke: #000000; stroke-width: 0.8"/>
      </g>
     </g>
     <g id="text_14">
      <!-- 33.5 -->
      <g transform="translate(20.878125 113.731285) scale(0.09 -0.09)">
       <use xlink:href="#DejaVuSans-33"/>
       <use xlink:href="#DejaVuSans-33" transform="translate(63.623047 0)"/>
       <use xlink:href="#DejaVuSans-2e" transform="translate(127.246094 0)"/>
       <use xlink:href="#DejaVuSans-35" transform="translate(159.033203 0)"/>
      </g>
     </g>
    </g>
    <g id="ytick_6">
     <g id="line2d_27">
      <path d="M 47.917188 82.293042 
L 935.342188 82.293042 
" clip-path="url(#pb78f18e5c7)" style="fill: none; stroke: #eef2f7; stroke-opacity: 0.25; stroke-width: 0.55; stroke-linecap: square"/>
     </g>
     <g id="line2d_28">
      <g>
       <use xlink:href="#mccab451562" x="47.917188" y="82.293042" style="stroke: #000000; stroke-width: 0.8"/>
      </g>
     </g>
     <g id="text_15">
      <!-- 34.0 -->
      <g transform="translate(20.878125 85.712339) scale(0.09 -0.09)">
       <defs>
        <path id="DejaVuSans-34" d="M 2419 4116 
L 825 1625 
L 2419 1625 
L 2419 4116 
z
M 2253 4666 
L 3047 4666 
L 3047 1625 
L 3713 1625 
L 3713 1100 
L 3047 1100 
L 3047 0 
L 2419 0 
L 2419 1100 
L 313 1100 
L 313 1709 
L 2253 4666 
z
" transform="scale(0.015625)"/>
       </defs>
       <use xlink:href="#DejaVuSans-33"/>
       <use xlink:href="#DejaVuSans-34" transform="translate(63.623047 0)"/>
       <use xlink:href="#DejaVuSans-2e" transform="translate(127.246094 0)"/>
       <use xlink:href="#DejaVuSans-30" transform="translate(159.033203 0)"/>
      </g>
     </g>
    </g>
    <g id="ytick_7">
     <g id="line2d_29">
      <path d="M 47.917188 54.274096 
L 935.342188 54.274096 
" clip-path="url(#pb78f18e5c7)" style="fill: none; stroke: #eef2f7; stroke-opacity: 0.25; stroke-width: 0.55; stroke-linecap: square"/>
     </g>
     <g id="line2d_30">
      <g>
       <use xlink:href="#mccab451562" x="47.917188" y="54.274096" style="stroke: #000000; stroke-width: 0.8"/>
      </g>
     </g>
     <g id="text_16">
      <!-- 34.5 -->
      <g transform="translate(20.878125 57.693392) scale(0.09 -0.09)">
       <use xlink:href="#DejaVuSans-33"/>
       <use xlink:href="#DejaVuSans-34" transform="translate(63.623047 0)"/>
       <use xlink:href="#DejaVuSans-2e" transform="translate(127.246094 0)"/>
       <use xlink:href="#DejaVuSans-35" transform="translate(159.033203 0)"/>
      </g>
     </g>
    </g>
    <g id="ytick_8">
     <g id="line2d_31">
      <path d="M 47.917188 26.255149 
L 935.342188 26.255149 
" clip-path="url(#pb78f18e5c7)" style="fill: none; stroke: #eef2f7; stroke-opacity: 0.25; stroke-width: 0.55; stroke-linecap: square"/>
     </g>
     <g id="line2d_32">
      <g>
       <use xlink:href="#mccab451562" x="47.917188" y="26.255149" style="stroke: #000000; stroke-width: 0.8"/>
      </g>
     </g>
     <g id="text_17">
      <!-- 35.0 -->
      <g transform="translate(20.878125 29.674446) scale(0.09 -0.09)">
       <use xlink:href="#DejaVuSans-33"/>
       <use xlink:href="#DejaVuSans-35" transform="translate(63.623047 0)"/>
       <use xlink:href="#DejaVuSans-2e" transform="translate(127.246094 0)"/>
       <use xlink:href="#DejaVuSans-30" transform="translate(159.033203 0)"/>
      </g>
     </g>
    </g>
    <g id="text_18">
     <!-- Temperature (C) -->
     <g transform="translate(14.798438 163.659635) rotate(-90) scale(0.1 -0.1)">
      <defs>
       <path id="DejaVuSans-54" d="M -19 4666 
L 3928 4666 
L 3928 4134 
L 2272 4134 
L 2272 0 
L 1638 0 
L 1638 4134 
L -19 4134 
L -19 4666 
z
" transform="scale(0.015625)"/>
       <path id="DejaVuSans-6d" d="M 3328 2828 
Q 3544 3216 3844 3400 
Q 4144 3584 4550 3584 
Q 5097 3584 5394 3201 
Q 5691 2819 5691 2113 
L 5691 0 
L 5113 0 
L 5113 2094 
Q 5113 2597 4934 2840 
Q 4756 3084 4391 3084 
Q 3944 3084 3684 2787 
Q 3425 2491 3425 1978 
L 3425 0 
L 2847 0 
L 2847 2094 
Q 2847 2600 2669 2842 
Q 2491 3084 2119 3084 
Q 1678 3084 1418 2786 
Q 1159 2488 1159 1978 
L 1159 0 
L 581 0 
L 581 3500 
L 1159 3500 
L 1159 2956 
Q 1356 3278 1631 3431 
Q 1906 3584 2284 3584 
Q 2666 3584 2933 3390 
Q 3200 3197 3328 2828 
z
" transform="scale(0.015625)"/>
       <path id="DejaVuSans-70" d="M 1159 525 
L 1159 -1331 
L 581 -1331 
L 581 3500 
L 1159 3500 
L 1159 2969 
Q 1341 3281 1617 3432 
Q 1894 3584 2278 3584 
Q 2916 3584 3314 3078 
Q 3713 2572 3713 1747 
Q 3713 922 3314 415 
Q 2916 -91 2278 -91 
Q 1894 -91 1617 61 
Q 1341 213 1159 525 
z
M 3116 1747 
Q 3116 2381 2855 2742 
Q 2594 3103 2138 3103 
Q 1681 3103 1420 2742 
Q 1159 2381 1159 1747 
Q 1159 1113 1420 752 
Q 1681 391 2138 391 
Q 2594 391 2855 752 
Q 3116 1113 3116 1747 
z
" transform="scale(0.015625)"/>
       <path id="DejaVuSans-28" d="M 1984 4856 
Q 1566 4138 1362 3434 
Q 1159 2731 1159 2009 
Q 1159 1288 1364 580 
Q 1569 -128 1984 -844 
L 1484 -844 
Q 1016 -109 783 600 
Q 550 1309 550 2009 
Q 550 2706 781 3412 
Q 1013 4119 1484 4856 
L 1984 4856 
z
" transform="scale(0.015625)"/>
       <path id="DejaVuSans-43" d="M 4122 4306 
L 4122 3641 
Q 3803 3938 3442 4084 
Q 3081 4231 2675 4231 
Q 1875 4231 1450 3742 
Q 1025 3253 1025 2328 
Q 1025 1406 1450 917 
Q 1875 428 2675 428 
Q 3081 428 3442 575 
Q 3803 722 4122 1019 
L 4122 359 
Q 3791 134 3420 21 
Q 3050 -91 2638 -91 
Q 1578 -91 968 557 
Q 359 1206 359 2328 
Q 359 3453 968 4101 
Q 1578 4750 2638 4750 
Q 3056 4750 3426 4639 
Q 3797 4528 4122 4306 
z
" transform="scale(0.015625)"/>
       <path id="DejaVuSans-29" d="M 513 4856 
L 1013 4856 
Q 1481 4119 1714 3412 
Q 1947 2706 1947 2009 
Q 1947 1309 1714 600 
Q 1481 -109 1013 -844 
L 513 -844 
Q 928 -128 1133 580 
Q 1338 1288 1338 2009 
Q 1338 2731 1133 3434 
Q 928 4138 513 4856 
z
" transform="scale(0.015625)"/>
      </defs>
      <use xlink:href="#DejaVuSans-54"/>
      <use xlink:href="#DejaVuSans-65" transform="translate(44.083984 0)"/>
      <use xlink:href="#DejaVuSans-6d" transform="translate(105.607422 0)"/>
      <use xlink:href="#DejaVuSans-70" transform="translate(203.019531 0)"/>
      <use xlink:href="#DejaVuSans-65" transform="translate(266.496094 0)"/>
      <use xlink:href="#DejaVuSans-72" transform="translate(328.019531 0)"/>
      <use xlink:href="#DejaVuSans-61" transform="translate(369.132812 0)"/>
      <use xlink:href="#DejaVuSans-74" transform="translate(430.412109 0)"/>
      <use xlink:href="#DejaVuSans-75" transform="translate(469.621094 0)"/>
      <use xlink:href="#DejaVuSans-72" transform="translate(533 0)"/>
      <use xlink:href="#DejaVuSans-65" transform="translate(571.863281 0)"/>
      <use xlink:href="#DejaVuSans-20" transform="translate(633.386719 0)"/>
      <use xlink:href="#DejaVuSans-28" transform="translate(665.173828 0)"/>
      <use xlink:href="#DejaVuSans-43" transform="translate(704.1875 0)"/>
      <use xlink:href="#DejaVuSans-29" transform="translate(774.011719 0)"/>
     </g>
    </g>
   </g>
   <g id="line2d_33">
    <path d="M 47.9511 218.885404 
L 48.251719 219.3232 
L 49.454194 217.572016 
L 49.754813 216.696424 
L 50.055432 216.696424 
L 50.356051 215.383036 
L 50.656669 215.383036 
L 50.957288 213.631852 
L 51.257907 213.631852 
L 51.558526 211.880668 
L 51.859145 211.880668 
L 52.159763 211.442871 
L 52.460382 209.691687 
L 53.06162 209.691687 
L 53.362239 208.816095 
L 54.865333 206.627115 
L 55.165951 205.313727 
L 55.767189 205.313727 
L 56.969664 201.811359 
L 57.270283 200.497971 
L 57.570902 200.935767 
L 57.871521 199.184583 
L 58.172139 199.184583 
L 58.472758 197.433398 
L 58.773377 196.557806 
L 59.073996 197.871194 
L 59.374615 196.557806 
L 59.675233 196.557806 
L 59.975852 195.682214 
L 60.276471 195.682214 
L 60.57709 195.244418 
L 60.877709 194.368826 
L 61.178327 194.368826 
L 61.478946 195.682214 
L 61.779565 193.493234 
L 62.080184 194.368826 
L 62.380803 193.493234 
L 62.98204 193.493234 
L 63.883897 192.179846 
L 64.184515 192.179846 
L 65.086372 190.866458 
L 65.386991 191.304254 
L 65.687609 189.990866 
L 65.988228 190.428662 
L 66.288847 190.428662 
L 66.589466 189.115274 
L 66.890085 189.55307 
L 67.190704 189.55307 
L 67.491322 188.677478 
L 67.791941 188.239682 
L 68.09256 188.239682 
L 68.693797 186.050702 
L 68.994416 186.488498 
L 69.595654 185.612906 
L 69.896273 184.299517 
L 70.196892 184.299517 
L 70.49751 183.423925 
L 71.399367 182.110537 
L 71.699986 182.110537 
L 72.000604 181.672741 
L 72.301223 180.359353 
L 73.503698 180.359353 
L 74.104936 177.732577 
L 74.405555 177.732577 
L 75.006792 176.856985 
L 75.307411 175.543597 
L 75.908649 174.668005 
L 76.209268 173.792413 
L 76.509886 174.668005 
L 77.111124 172.479025 
L 77.411743 172.041229 
L 77.712362 170.72784 
L 78.01298 170.290044 
L 78.313599 170.290044 
L 78.614218 169.414452 
L 78.914837 168.976656 
L 79.215456 168.101064 
L 80.117312 166.787676 
L 80.71855 165.036492 
L 81.019168 163.723104 
L 81.319787 164.598696 
L 81.921025 162.409716 
L 82.522262 162.409716 
L 82.822881 160.658532 
L 83.1235 160.658532 
L 83.424119 159.78294 
L 83.724738 158.031755 
L 84.025356 158.031755 
L 84.325975 157.156163 
L 84.626594 156.718367 
L 84.927213 156.718367 
L 85.227832 155.404979 
L 85.829069 154.529387 
L 86.129688 153.215999 
L 86.430307 153.215999 
L 86.730926 152.340407 
L 87.031544 152.340407 
L 87.332163 151.027019 
L 87.632782 150.589223 
L 87.933401 149.713631 
L 88.534639 148.838039 
L 88.835257 147.962447 
L 89.436495 147.086855 
L 89.737114 146.211263 
L 90.037732 146.649059 
L 90.338351 145.773467 
L 90.939589 144.897874 
L 91.240208 144.897874 
L 91.540827 143.14669 
L 91.841445 143.14669 
L 92.142064 142.708894 
L 92.442683 141.833302 
L 92.743302 142.271098 
L 93.043921 140.95771 
L 93.344539 140.95771 
L 93.645158 140.082118 
L 94.246396 139.206526 
L 94.547015 138.330934 
L 94.847633 138.330934 
L 95.148252 137.455342 
L 95.448871 137.017546 
L 95.74949 137.017546 
L 96.050109 136.57975 
L 96.350727 135.704158 
L 96.651346 135.704158 
L 96.951965 133.952974 
L 97.252584 133.515178 
L 97.553203 133.515178 
L 97.853821 133.077382 
L 98.455059 131.326197 
L 98.755678 131.326197 
L 99.056297 130.450605 
L 99.657534 129.575013 
L 100.258772 129.575013 
L 100.860009 127.823829 
L 101.461247 126.948237 
L 101.761866 127.386033 
L 102.363103 125.634849 
L 102.663722 125.197053 
L 102.964341 124.321461 
L 103.26496 123.883665 
L 103.565579 123.883665 
L 103.866197 122.570277 
L 104.166816 123.008073 
L 104.467435 122.570277 
L 104.768054 122.570277 
L 105.068673 121.694685 
L 105.369291 121.694685 
L 105.66991 120.381297 
L 105.970529 120.381297 
L 106.271148 119.505705 
L 106.872385 118.630112 
L 107.173004 118.630112 
L 107.473623 118.192316 
L 108.074861 116.441132 
L 108.37548 118.192316 
L 108.676098 116.003336 
L 108.976717 116.441132 
L 109.277336 114.689948 
L 109.577955 115.127744 
L 109.878573 115.127744 
L 110.78043 113.814356 
L 111.081049 112.938764 
L 111.381668 113.37656 
L 111.682286 112.500968 
L 112.283524 112.500968 
L 112.584143 111.18758 
L 112.884762 111.625376 
L 113.18538 110.749784 
L 113.485999 111.18758 
L 113.786618 110.311988 
L 114.387856 110.311988 
L 114.688474 108.9986 
L 114.989093 108.9986 
L 115.289712 108.560804 
L 115.590331 108.9986 
L 115.89095 108.123008 
L 116.191568 106.80962 
L 116.492187 106.371824 
L 116.792806 106.80962 
L 117.093425 106.80962 
L 117.995281 105.496231 
L 118.2959 103.745047 
L 118.596519 105.058435 
L 118.897138 104.182843 
L 119.197756 102.869455 
L 119.498375 102.869455 
L 119.798994 103.307251 
L 120.70085 101.993863 
L 121.001469 101.118271 
L 121.302088 101.118271 
L 121.602707 100.680475 
L 121.903326 101.118271 
L 122.203944 100.242679 
L 122.504563 99.804883 
L 122.805182 99.804883 
L 123.105801 99.367087 
L 123.40642 98.491495 
L 123.707038 98.929291 
L 124.608895 97.615903 
L 124.909514 97.615903 
L 125.210132 97.178107 
L 125.510751 97.178107 
L 125.81137 95.426923 
L 126.412608 97.178107 
L 126.713226 96.302515 
L 127.013845 94.989127 
L 127.314464 94.989127 
L 127.615083 95.426923 
L 127.915702 94.551331 
L 128.21632 93.237943 
L 128.516939 94.551331 
L 128.817558 93.237943 
L 129.118177 93.237943 
L 129.719415 92.36235 
L 130.320652 92.36235 
L 130.621271 91.048962 
L 130.92189 91.486758 
L 131.222508 91.486758 
L 131.523127 90.611166 
L 131.823746 91.048962 
L 132.124365 90.17337 
L 132.424984 90.17337 
L 132.725603 89.735574 
L 133.026221 88.859982 
L 133.32684 89.297778 
L 133.627459 88.859982 
L 133.928078 88.859982 
L 134.228697 89.297778 
L 134.529315 88.422186 
L 135.130553 88.422186 
L 135.431172 87.546594 
L 136.032409 87.546594 
L 136.333028 86.671002 
L 136.633647 87.546594 
L 136.934266 87.546594 
L 137.234885 86.671002 
L 137.535503 86.233206 
L 137.836122 86.233206 
L 138.136741 85.357614 
L 138.43736 86.671002 
L 138.737979 86.233206 
L 139.038597 86.233206 
L 139.639835 85.357614 
L 139.940454 85.357614 
L 140.241073 84.482022 
L 140.541691 85.79541 
L 140.84231 84.044226 
L 141.443548 84.919818 
L 141.744167 84.482022 
L 142.044785 84.482022 
L 142.345404 84.919818 
L 142.646023 84.044226 
L 142.946642 83.60643 
L 143.247261 82.730838 
L 143.547879 83.60643 
L 143.848498 83.168634 
L 144.149117 83.60643 
L 144.449736 83.168634 
L 144.750355 83.60643 
L 145.050973 82.730838 
L 145.351592 82.293042 
L 146.253449 82.293042 
L 146.554067 82.730838 
L 147.155305 80.979654 
L 147.455924 81.41745 
L 147.756543 82.293042 
L 148.057161 81.41745 
L 148.35778 81.41745 
L 148.658399 80.541858 
L 148.959018 80.541858 
L 149.259637 81.41745 
L 149.560255 80.541858 
L 149.860874 80.979654 
L 150.161493 80.541858 
L 150.462112 80.541858 
L 150.762731 80.104062 
L 151.06335 80.541858 
L 151.363968 80.104062 
L 151.664587 79.228469 
L 151.965206 80.541858 
L 152.566444 78.352877 
L 152.867062 78.790673 
L 153.167681 78.352877 
L 153.4683 78.352877 
L 153.768919 77.477285 
L 154.069538 77.915081 
L 154.370156 77.915081 
L 154.670775 76.601693 
L 154.971394 77.915081 
L 155.272013 77.477285 
L 155.572632 77.477285 
L 155.87325 76.601693 
L 156.173869 76.601693 
L 156.474488 77.477285 
L 156.775107 76.601693 
L 157.075726 76.163897 
L 157.376344 76.163897 
L 157.676963 75.288305 
L 158.278201 75.288305 
L 158.57882 74.850509 
L 159.180057 75.726101 
L 159.480676 75.288305 
L 160.081914 73.537121 
L 160.382532 74.850509 
L 160.683151 74.850509 
L 160.98377 75.288305 
L 161.284389 73.537121 
L 161.585008 73.974917 
L 161.885626 73.099325 
L 162.186245 73.537121 
L 162.486864 73.537121 
L 162.787483 73.099325 
L 163.088102 73.099325 
L 163.689339 72.223733 
L 163.989958 72.661529 
L 164.290577 72.661529 
L 164.591196 72.223733 
L 165.192433 72.223733 
L 166.09429 70.910345 
L 166.996151 70.910345 
L 167.29677 70.472549 
L 167.597389 70.472549 
L 167.898008 70.034753 
L 168.499245 70.034753 
L 168.799864 69.596957 
L 169.100483 69.596957 
L 169.401102 70.472549 
L 169.701721 68.721365 
L 170.00234 69.159161 
L 170.302958 69.159161 
L 170.603577 69.596957 
L 170.904196 68.721365 
L 171.204815 69.596957 
L 171.505434 69.159161 
L 171.806053 67.845773 
L 172.407291 68.721365 
L 172.70791 67.407977 
L 173.008528 67.845773 
L 173.309147 67.845773 
L 173.609766 66.970181 
L 173.910385 66.532385 
L 174.211004 66.970181 
L 174.511623 66.532385 
L 174.812242 66.532385 
L 175.112861 66.970181 
L 175.413479 66.094589 
L 176.014717 66.094589 
L 176.615955 65.218996 
L 177.217193 65.218996 
L 177.517812 64.7812 
L 177.81843 65.218996 
L 178.119049 65.218996 
L 178.419668 65.656792 
L 178.720287 64.7812 
L 179.020906 64.7812 
L 179.321525 63.905608 
L 179.622144 64.343404 
L 179.922763 63.905608 
L 180.223381 63.905608 
L 180.524 63.030016 
L 180.824619 62.59222 
L 181.125238 63.030016 
L 181.425857 62.59222 
L 181.726476 63.030016 
L 182.327714 62.154424 
L 182.628332 62.154424 
L 182.928951 62.59222 
L 183.530189 61.716628 
L 183.830808 62.154424 
L 184.432046 62.154424 
L 184.732665 61.278832 
L 185.033283 61.278832 
L 185.333902 62.154424 
L 185.634521 61.278832 
L 185.93514 61.716628 
L 186.235759 60.841036 
L 186.536378 60.841036 
L 186.836997 61.278832 
L 187.137615 60.40324 
L 187.438234 61.278832 
L 187.738853 61.278832 
L 188.039472 59.965444 
L 188.340091 60.841036 
L 188.64071 59.965444 
L 188.941329 60.40324 
L 189.241948 59.965444 
L 189.542567 60.841036 
L 189.843185 59.965444 
L 190.143804 59.527648 
L 190.444423 59.965444 
L 190.745042 59.965444 
L 191.045661 61.278832 
L 191.34628 59.089852 
L 191.646899 58.652056 
L 191.947518 58.652056 
L 192.248136 59.089852 
L 192.548755 58.652056 
L 192.849374 58.652056 
L 193.149993 58.21426 
L 194.352469 58.21426 
L 194.653087 56.900872 
L 194.953706 57.776464 
L 195.254325 58.21426 
L 195.554944 56.900872 
L 195.855563 57.338668 
L 196.156182 57.338668 
L 196.757419 56.463076 
L 197.058038 57.338668 
L 197.358657 57.338668 
L 197.659276 56.463076 
L 197.959895 56.463076 
L 198.260514 56.02528 
L 198.561133 56.900872 
L 198.861752 56.02528 
L 200.364846 56.02528 
L 200.665465 55.587484 
L 200.966084 55.587484 
L 201.266703 55.149688 
L 201.567321 55.587484 
L 201.86794 55.587484 
L 202.168559 56.463076 
L 202.469178 55.587484 
L 203.070416 55.587484 
L 203.371035 56.02528 
L 203.671654 55.587484 
L 203.972272 56.02528 
L 204.272891 56.900872 
L 204.57351 56.02528 
L 204.874129 55.587484 
L 205.174748 56.02528 
L 205.775986 56.02528 
L 206.377224 55.149688 
L 206.677842 57.338668 
L 206.978461 55.587484 
L 207.27908 56.463076 
L 207.579699 56.02528 
L 208.180937 56.02528 
L 208.481556 55.587484 
L 208.782175 55.587484 
L 209.383412 56.463076 
L 209.684031 56.02528 
L 209.98465 56.463076 
L 210.285269 57.338668 
L 210.585888 56.02528 
L 210.886507 56.463076 
L 211.187126 55.587484 
L 211.487744 56.463076 
L 211.788363 55.587484 
L 212.088982 56.02528 
L 212.389601 56.02528 
L 212.69022 55.587484 
L 212.990839 56.463076 
L 213.291458 56.463076 
L 213.592076 55.587484 
L 213.892695 56.463076 
L 214.193314 56.02528 
L 214.493933 55.149688 
L 214.794552 56.463076 
L 215.095171 55.587484 
L 215.997027 55.587484 
L 216.598265 54.711892 
L 216.898884 56.02528 
L 217.199503 55.149688 
L 217.500122 54.711892 
L 217.800741 55.149688 
L 218.10136 54.711892 
L 218.401978 55.149688 
L 219.003216 54.274096 
L 219.303835 54.711892 
L 219.604454 54.274096 
L 219.905073 54.711892 
L 220.506311 54.711892 
L 220.806929 53.8363 
L 221.107548 55.587484 
L 221.408167 54.274096 
L 221.708786 54.711892 
L 222.009405 54.711892 
L 222.310024 55.149688 
L 223.21188 55.149688 
L 223.512499 54.711892 
L 223.813118 55.149688 
L 224.113737 54.711892 
L 224.414356 55.149688 
L 224.714975 54.711892 
L 225.015594 55.149688 
L 225.316213 54.711892 
L 225.616831 55.587484 
L 226.218069 54.711892 
L 226.518688 54.711892 
L 226.819307 54.274096 
L 227.119926 54.711892 
L 227.721164 54.711892 
L 228.021782 56.02528 
L 228.322401 54.274096 
L 228.62302 55.149688 
L 228.923639 54.274096 
L 229.224258 55.149688 
L 229.524877 54.711892 
L 229.825496 55.587484 
L 230.126115 54.711892 
L 230.426733 54.711892 
L 230.727352 55.149688 
L 231.027971 54.274096 
L 231.32859 53.8363 
L 231.629209 54.711892 
L 232.230447 54.711892 
L 232.831684 53.8363 
L 233.132303 53.8363 
L 233.733541 54.711892 
L 234.03416 54.274096 
L 234.334779 54.274096 
L 234.635398 53.8363 
L 234.936017 54.274096 
L 235.537254 53.398504 
L 235.837873 54.274096 
L 236.138492 54.274096 
L 236.439111 53.398504 
L 236.73973 53.8363 
L 237.040349 53.398504 
L 237.942205 53.398504 
L 238.242824 52.960708 
L 239.144681 52.960708 
L 239.4453 53.8363 
L 239.745919 52.522911 
L 240.046537 52.960708 
L 240.347156 52.085115 
L 240.647775 52.085115 
L 240.948394 52.960708 
L 241.249013 51.647319 
L 242.15087 51.647319 
L 242.451488 52.085115 
L 242.752107 52.085115 
L 243.052726 51.647319 
L 243.353345 51.647319 
L 243.653964 52.522911 
L 243.954583 52.085115 
L 244.255202 52.085115 
L 244.555821 51.647319 
L 244.856439 52.085115 
L 245.157058 52.960708 
L 245.457677 51.647319 
L 245.758296 52.085115 
L 246.058915 51.647319 
L 246.660153 52.522911 
L 246.960772 52.085115 
L 247.862628 52.085115 
L 248.163247 51.647319 
L 248.463866 52.085115 
L 248.764485 52.085115 
L 249.065104 51.647319 
L 249.365723 52.085115 
L 249.96696 52.085115 
L 250.267579 52.960708 
L 250.568198 52.085115 
L 250.868817 52.522911 
L 251.169436 52.085115 
L 251.470055 52.522911 
L 251.770674 51.647319 
L 252.071292 52.522911 
L 252.371911 52.960708 
L 252.67253 52.085115 
L 253.273768 52.960708 
L 253.574387 52.960708 
L 253.875006 53.398504 
L 254.175625 53.398504 
L 254.476243 52.522911 
L 254.776862 52.522911 
L 255.077481 52.960708 
L 255.3781 52.522911 
L 255.678719 52.960708 
L 255.979338 52.960708 
L 256.279957 53.398504 
L 256.580576 52.085115 
L 256.881194 52.522911 
L 257.181813 53.398504 
L 257.482432 52.960708 
L 257.783051 52.960708 
L 258.08367 53.398504 
L 259.586764 53.398504 
L 259.887383 53.8363 
L 260.188002 53.8363 
L 260.78924 54.711892 
L 261.390478 54.711892 
L 261.691096 54.274096 
L 261.991715 55.587484 
L 262.292334 55.149688 
L 262.592953 55.587484 
L 262.893572 55.149688 
L 263.194191 55.149688 
L 263.49481 55.587484 
L 263.795429 55.587484 
L 264.096047 55.149688 
L 264.396666 56.02528 
L 264.697285 55.587484 
L 264.997904 56.02528 
L 265.298523 55.587484 
L 265.599142 56.463076 
L 265.899761 56.02528 
L 266.20038 56.463076 
L 266.500998 57.776464 
L 266.801617 56.463076 
L 267.102236 56.02528 
L 267.402855 56.900872 
L 267.703474 57.338668 
L 268.004093 57.338668 
L 268.304712 57.776464 
L 268.60533 57.776464 
L 268.905949 57.338668 
L 269.206568 57.776464 
L 269.507187 57.338668 
L 270.108425 58.21426 
L 270.409044 58.21426 
L 270.709663 59.089852 
L 271.010281 58.21426 
L 271.611519 58.21426 
L 272.212757 59.089852 
L 272.513376 58.21426 
L 272.813995 58.21426 
L 273.114614 57.776464 
L 273.415233 59.089852 
L 273.715851 59.527648 
L 274.01647 59.089852 
L 274.317089 60.40324 
L 274.617708 59.965444 
L 274.918327 60.40324 
L 275.218946 59.089852 
L 276.421421 60.841036 
L 276.72204 59.965444 
L 277.323278 60.841036 
L 277.623897 60.40324 
L 278.525753 60.40324 
L 278.826372 61.278832 
L 279.126991 61.278832 
L 279.42761 60.841036 
L 280.329467 62.154424 
L 280.630086 61.716628 
L 280.930704 62.154424 
L 281.231323 61.716628 
L 281.531942 62.154424 
L 281.832561 63.030016 
L 282.13318 62.59222 
L 282.433799 61.716628 
L 282.734418 63.030016 
L 283.035036 62.59222 
L 283.636274 62.59222 
L 283.936893 63.030016 
L 284.237512 63.905608 
L 284.538131 62.59222 
L 284.83875 63.905608 
L 285.439987 63.030016 
L 286.041225 63.030016 
L 286.341844 63.467812 
L 286.642463 63.467812 
L 286.943082 63.030016 
L 287.243701 63.905608 
L 287.54432 63.467812 
L 287.844938 64.343404 
L 288.145557 63.030016 
L 288.446176 63.467812 
L 288.746795 62.154424 
L 289.047414 63.905608 
L 289.348033 63.467812 
L 289.648652 63.467812 
L 289.949271 62.59222 
L 290.24989 63.030016 
L 290.550508 63.030016 
L 290.851127 62.59222 
L 291.151746 63.030016 
L 291.452365 62.154424 
L 291.752984 62.154424 
L 292.053603 61.278832 
L 292.354222 62.59222 
L 292.654841 62.59222 
L 292.955459 61.716628 
L 293.256078 61.278832 
L 293.556697 61.716628 
L 294.458554 60.40324 
L 294.759173 60.841036 
L 295.059791 59.965444 
L 295.36041 60.841036 
L 295.661029 60.40324 
L 295.961648 60.841036 
L 296.262267 60.40324 
L 296.562886 59.527648 
L 296.863505 60.841036 
L 297.164124 59.965444 
L 297.464742 59.527648 
L 297.765361 60.40324 
L 298.06598 59.965444 
L 298.366599 58.652056 
L 298.667218 60.40324 
L 298.967837 59.089852 
L 299.268456 59.089852 
L 299.569075 59.527648 
L 299.869693 59.527648 
L 300.470931 58.652056 
L 300.77155 59.089852 
L 301.072169 58.652056 
L 301.372788 59.089852 
L 301.673404 58.652056 
L 301.974023 59.089852 
L 302.274642 59.089852 
L 302.575261 58.21426 
L 302.87588 58.652056 
L 303.176498 57.776464 
L 303.477117 58.21426 
L 303.777736 58.21426 
L 304.078355 59.089852 
L 304.378973 57.776464 
L 304.679592 58.652056 
L 304.980211 57.776464 
L 305.28083 58.652056 
L 305.581449 57.776464 
L 305.882068 57.338668 
L 306.182686 58.21426 
L 306.483305 57.776464 
L 306.783924 57.776464 
L 307.084543 56.900872 
L 307.68578 58.652056 
L 308.287018 56.900872 
L 308.587637 58.21426 
L 308.888256 57.776464 
L 309.188874 57.776464 
L 309.489493 58.21426 
L 309.790112 57.338668 
L 310.090731 58.21426 
L 310.39135 57.776464 
L 310.691968 58.21426 
L 310.992587 58.21426 
L 311.293206 57.776464 
L 311.593825 57.776464 
L 311.894444 57.338668 
L 312.195062 58.21426 
L 312.495681 57.338668 
L 312.7963 56.900872 
L 313.096919 57.776464 
L 313.397538 57.338668 
L 313.698156 58.21426 
L 314.299394 57.338668 
L 314.600013 58.21426 
L 315.20125 57.338668 
L 315.501869 56.463076 
L 315.802488 57.338668 
L 316.103107 57.338668 
L 316.403726 57.776464 
L 316.704344 56.900872 
L 317.305582 57.776464 
L 318.207438 57.776464 
L 318.508057 57.338668 
L 319.109295 58.21426 
L 319.409914 57.338668 
L 319.710532 58.652056 
L 320.011151 57.338668 
L 320.612389 57.338668 
L 320.913008 57.776464 
L 321.213627 57.338668 
L 321.514245 57.338668 
L 321.814864 58.652056 
L 322.115483 57.776464 
L 322.416102 58.652056 
L 322.71672 58.21426 
L 323.017339 58.21426 
L 323.317958 57.776464 
L 323.618577 58.652056 
L 323.919196 56.900872 
L 324.219815 58.652056 
L 324.520433 58.21426 
L 324.821052 58.652056 
L 325.121671 58.21426 
L 325.42229 58.652056 
L 325.722908 59.527648 
L 326.023527 58.21426 
L 326.624765 59.089852 
L 326.925384 58.652056 
L 328.127859 58.652056 
L 328.428478 59.089852 
L 328.729097 58.652056 
L 329.029715 58.652056 
L 329.330334 59.527648 
L 329.931572 58.652056 
L 330.232191 58.652056 
L 330.532809 60.40324 
L 330.833428 59.089852 
L 331.134047 59.965444 
L 331.434666 59.527648 
L 331.735285 59.965444 
L 332.93776 59.965444 
L 333.538997 60.841036 
L 333.839616 60.40324 
L 334.140235 60.841036 
L 334.440854 60.40324 
L 334.741473 61.716628 
L 335.042091 61.716628 
L 335.643329 60.841036 
L 336.244567 61.716628 
L 336.545185 61.278832 
L 336.845804 61.278832 
L 337.146423 61.716628 
L 337.747661 61.716628 
L 338.048279 62.154424 
L 338.348898 61.716628 
L 339.250755 61.716628 
L 339.551373 61.278832 
L 339.851992 61.716628 
L 341.054467 61.716628 
L 341.355086 61.278832 
L 341.956324 62.154424 
L 342.557561 61.278832 
L 342.85818 61.278832 
L 343.158799 62.59222 
L 343.459418 60.841036 
L 343.760037 61.716628 
L 344.060656 61.278832 
L 344.361274 61.278832 
L 344.661893 60.841036 
L 344.962512 62.154424 
L 345.263131 61.716628 
L 345.56375 60.40324 
L 345.864368 60.40324 
L 346.164987 61.716628 
L 346.465606 60.40324 
L 347.066844 61.278832 
L 347.367462 60.40324 
L 347.668081 61.278832 
L 347.9687 60.40324 
L 348.269319 60.40324 
L 348.569938 60.841036 
L 348.870556 60.841036 
L 349.171175 59.965444 
L 349.471794 61.278832 
L 349.772413 59.965444 
L 350.073032 60.40324 
L 350.37365 61.278832 
L 350.674269 61.716628 
L 350.974888 60.841036 
L 351.576126 60.841036 
L 351.876744 60.40324 
L 352.177363 60.841036 
L 352.477982 60.40324 
L 352.778601 60.841036 
L 353.07922 59.965444 
L 353.379838 60.40324 
L 353.680457 60.40324 
L 353.981076 59.965444 
L 354.281695 59.965444 
L 354.582314 59.089852 
L 354.882932 59.965444 
L 355.183551 59.527648 
L 355.48417 59.527648 
L 355.784789 59.965444 
L 356.085408 59.527648 
L 356.386026 59.527648 
L 356.686645 59.965444 
L 356.987264 58.652056 
L 357.287883 59.527648 
L 357.588502 58.652056 
L 357.88912 58.652056 
L 358.189739 58.21426 
L 358.790977 59.089852 
L 359.091596 58.21426 
L 359.392214 57.776464 
L 359.692833 58.652056 
L 360.895308 58.652056 
L 361.195927 58.21426 
L 361.496546 58.21426 
L 361.797165 57.776464 
L 362.097784 57.776464 
L 362.398402 59.089852 
L 362.699021 57.776464 
L 362.99964 58.21426 
L 363.300259 59.089852 
L 363.600878 58.21426 
L 363.901496 58.652056 
L 364.202115 58.652056 
L 364.502734 58.21426 
L 364.803353 59.527648 
L 365.404591 58.652056 
L 366.005828 58.652056 
L 366.306447 59.089852 
L 367.508922 59.089852 
L 367.809541 58.652056 
L 368.11016 59.089852 
L 368.410779 59.965444 
L 368.711397 58.652056 
L 369.012016 58.21426 
L 369.312635 59.089852 
L 369.613254 59.089852 
L 369.913873 59.527648 
L 370.214491 59.089852 
L 370.51511 58.21426 
L 370.815729 59.089852 
L 371.416967 59.089852 
L 371.717585 58.652056 
L 372.018204 59.089852 
L 372.318823 58.652056 
L 373.521298 58.652056 
L 373.821917 58.21426 
L 374.122536 59.089852 
L 374.423155 58.21426 
L 374.723773 57.776464 
L 375.024392 58.21426 
L 375.325011 57.338668 
L 375.62563 58.21426 
L 375.926249 58.21426 
L 376.226867 58.652056 
L 376.527486 58.21426 
L 376.828105 58.21426 
L 377.128724 57.776464 
L 377.729961 57.776464 
L 378.03058 56.900872 
L 378.631818 57.776464 
L 378.932437 57.338668 
L 379.533674 57.338668 
L 379.834293 56.900872 
L 380.134912 57.338668 
L 380.435531 57.338668 
L 380.736149 56.900872 
L 381.036768 56.900872 
L 381.337387 57.338668 
L 381.638006 56.900872 
L 381.938625 57.338668 
L 382.239243 57.338668 
L 382.539862 56.900872 
L 382.840481 57.776464 
L 383.1411 56.900872 
L 383.441719 57.776464 
L 383.742337 56.900872 
L 384.042956 56.900872 
L 384.343575 56.463076 
L 384.944813 57.338668 
L 385.245431 57.338668 
L 385.54605 56.900872 
L 386.147288 56.900872 
L 386.447907 57.776464 
L 386.748526 56.900872 
L 387.049144 56.463076 
L 387.349763 57.776464 
L 387.650382 56.900872 
L 387.951001 56.463076 
L 388.251619 56.900872 
L 388.852857 56.02528 
L 389.153476 56.463076 
L 389.454095 56.463076 
L 389.754714 55.587484 
L 390.355951 55.587484 
L 390.957189 56.463076 
L 391.257808 55.587484 
L 391.558426 55.587484 
L 391.859045 56.02528 
L 392.159664 55.149688 
L 392.760902 55.149688 
L 393.06152 54.274096 
L 393.362139 54.711892 
L 393.662758 54.274096 
L 393.963377 54.274096 
L 394.263996 53.8363 
L 394.564614 54.274096 
L 395.165852 54.274096 
L 395.466471 53.398504 
L 395.76709 53.8363 
L 396.067708 52.960708 
L 396.668946 53.8363 
L 396.969565 52.522911 
L 397.270184 53.398504 
L 397.570802 52.522911 
L 397.871421 53.398504 
L 398.17204 52.522911 
L 398.773278 51.647319 
L 399.073896 52.085115 
L 399.374515 52.085115 
L 399.975753 51.209523 
L 400.276372 51.209523 
L 400.57699 50.771727 
L 400.877609 51.209523 
L 401.478847 51.209523 
L 401.779466 50.333931 
L 402.681322 50.333931 
L 402.981941 49.896135 
L 403.28256 50.333931 
L 404.184416 50.333931 
L 404.485035 49.458339 
L 404.785654 50.333931 
L 405.68751 49.020543 
L 405.988129 49.020543 
L 406.589366 49.896135 
L 407.190604 49.020543 
L 407.491223 49.020543 
L 407.791842 48.582747 
L 408.092461 48.582747 
L 408.393079 49.020543 
L 408.693698 47.707155 
L 408.994317 47.707155 
L 409.294936 49.020543 
L 409.595555 48.582747 
L 409.896173 47.269359 
L 410.196792 48.582747 
L 410.497411 47.707155 
L 410.79803 48.144951 
L 411.399267 48.144951 
L 411.699886 49.458339 
L 412.000505 47.707155 
L 412.601743 47.707155 
L 413.20298 46.831563 
L 413.503599 47.269359 
L 414.104837 47.269359 
L 414.405455 45.955971 
L 414.706074 46.393767 
L 415.607931 46.393767 
L 415.908549 45.955971 
L 416.209168 47.269359 
L 416.509787 45.955971 
L 416.810406 45.518175 
L 417.111025 45.955971 
L 417.712262 45.080379 
L 418.012881 45.080379 
L 418.3135 45.518175 
L 418.614119 45.518175 
L 418.914737 44.642583 
L 419.215356 45.518175 
L 419.515975 45.080379 
L 419.816594 45.080379 
L 420.117213 44.642583 
L 420.417831 45.080379 
L 421.920925 45.080379 
L 422.221544 44.642583 
L 422.522163 45.080379 
L 422.822782 45.080379 
L 423.123401 45.518175 
L 423.424019 45.518175 
L 423.724638 45.080379 
L 424.025257 45.518175 
L 424.325876 45.518175 
L 424.927113 44.642583 
L 425.227732 45.518175 
L 425.528351 44.642583 
L 425.82897 44.642583 
L 426.129589 45.080379 
L 426.430208 44.642583 
L 427.031445 45.518175 
L 427.332064 44.642583 
L 427.632683 46.393767 
L 427.933301 46.393767 
L 428.23392 45.080379 
L 428.835158 45.955971 
L 429.135777 45.518175 
L 429.436396 45.955971 
L 430.037633 45.080379 
L 430.338252 46.393767 
L 430.638871 45.955971 
L 430.93949 46.393767 
L 431.240108 46.393767 
L 431.540727 45.955971 
L 432.141965 45.955971 
L 432.442584 46.393767 
L 432.743202 46.393767 
L 433.043821 47.269359 
L 433.34444 46.831563 
L 434.246296 46.831563 
L 434.546915 47.707155 
L 434.847534 46.831563 
L 435.148153 47.269359 
L 435.448772 47.269359 
L 435.74939 46.831563 
L 436.951866 46.831563 
L 437.252487 48.144951 
L 437.553106 46.831563 
L 438.154343 47.707155 
L 438.454962 46.393767 
L 439.0562 48.144951 
L 439.356819 47.707155 
L 439.657438 46.831563 
L 439.958057 47.269359 
L 440.258675 48.144951 
L 440.559294 47.269359 
L 440.859913 46.831563 
L 441.461151 47.707155 
L 441.76177 47.269359 
L 442.062389 47.707155 
L 442.363007 47.707155 
L 442.663626 47.269359 
L 442.964245 47.707155 
L 444.166721 47.707155 
L 444.467339 48.582747 
L 445.068577 48.582747 
L 445.369196 47.707155 
L 445.970434 47.707155 
L 446.271053 47.269359 
L 446.571671 47.269359 
L 447.172909 48.144951 
L 447.473528 47.707155 
L 447.774147 47.707155 
L 448.074766 48.144951 
L 448.375385 47.269359 
L 448.976622 48.144951 
L 449.277241 48.144951 
L 449.57786 47.707155 
L 449.878479 48.582747 
L 450.179098 47.707155 
L 450.780335 48.582747 
L 451.080954 48.144951 
L 451.381573 48.144951 
L 451.682192 49.020543 
L 451.982811 48.144951 
L 452.28343 48.144951 
L 452.584049 48.582747 
L 452.884667 48.144951 
L 453.185286 48.582747 
L 453.786524 48.582747 
L 454.087143 48.144951 
L 454.387762 48.582747 
L 454.688381 48.582747 
L 454.988999 49.020543 
L 455.289618 49.020543 
L 455.590237 48.144951 
L 455.890856 48.582747 
L 456.191475 48.582747 
L 456.492094 49.020543 
L 456.792713 47.269359 
L 457.093331 48.144951 
L 457.39395 48.582747 
L 457.995188 48.582747 
L 458.295807 49.458339 
L 458.596426 49.896135 
L 458.897044 49.896135 
L 459.197663 51.209523 
L 459.498282 51.209523 
L 459.798901 51.647319 
L 460.09952 50.771727 
L 460.400139 51.647319 
L 460.700758 52.085115 
L 461.001377 51.647319 
L 461.301995 53.8363 
L 461.602614 52.522911 
L 461.903233 52.085115 
L 462.203852 52.085115 
L 462.504471 51.209523 
L 462.80509 51.647319 
L 463.406327 51.647319 
L 463.706946 51.209523 
L 464.007565 51.209523 
L 464.608803 50.333931 
L 464.909422 50.771727 
L 465.21004 50.333931 
L 465.510659 50.333931 
L 465.811278 49.458339 
L 466.111897 49.458339 
L 466.412516 49.896135 
L 466.713135 49.896135 
L 467.314373 49.020543 
L 467.614991 49.458339 
L 467.91561 48.144951 
L 468.216229 49.458339 
L 468.516848 49.458339 
L 468.817467 48.144951 
L 469.118086 49.458339 
L 469.418705 48.582747 
L 469.719323 49.020543 
L 470.019942 47.707155 
L 470.320561 48.144951 
L 470.62118 49.020543 
L 470.921799 48.582747 
L 471.222418 47.707155 
L 472.124274 47.707155 
L 472.424893 47.269359 
L 472.725512 47.269359 
L 473.026131 48.144951 
L 473.32675 46.393767 
L 473.627368 46.393767 
L 473.927987 45.955971 
L 474.228606 46.831563 
L 474.529225 46.831563 
L 474.829844 45.955971 
L 475.130463 45.955971 
L 475.431082 46.393767 
L 476.032319 45.518175 
L 476.332938 45.518175 
L 476.633557 45.080379 
L 476.934176 45.518175 
L 477.234795 44.642583 
L 477.535414 44.642583 
L 477.836032 44.204787 
L 478.136651 44.642583 
L 478.43727 44.204787 
L 478.737889 44.204787 
L 479.038508 44.642583 
L 479.339127 44.204787 
L 479.639746 44.204787 
L 479.940364 45.080379 
L 480.240983 43.766991 
L 480.541602 43.329195 
L 480.842221 43.329195 
L 481.14284 43.766991 
L 481.443459 42.891399 
L 481.744078 43.766991 
L 482.044697 42.891399 
L 482.345315 42.891399 
L 482.645934 43.329195 
L 482.946553 42.453603 
L 483.247172 42.891399 
L 484.149028 42.891399 
L 484.449647 43.329195 
L 484.750266 43.329195 
L 485.050885 42.015807 
L 485.351504 42.453603 
L 485.652123 43.329195 
L 485.952742 42.453603 
L 486.25336 42.453603 
L 486.553979 42.891399 
L 486.854598 42.015807 
L 487.155217 42.453603 
L 487.455836 42.015807 
L 487.756455 42.453603 
L 488.357692 42.453603 
L 488.658311 42.891399 
L 488.95893 42.015807 
L 489.259549 42.015807 
L 489.560168 41.578011 
L 489.860787 41.578011 
L 490.161406 42.015807 
L 490.462024 41.140215 
L 490.762643 42.453603 
L 491.063262 41.578011 
L 491.363881 41.578011 
L 491.6645 42.453603 
L 491.965119 42.453603 
L 492.265738 42.015807 
L 492.566356 42.015807 
L 492.866975 42.891399 
L 493.167594 42.015807 
L 493.468213 41.578011 
L 493.768832 41.578011 
L 494.069451 42.453603 
L 494.37007 42.015807 
L 494.971307 42.015807 
L 495.271926 42.453603 
L 495.572545 42.015807 
L 495.873164 42.453603 
L 496.173783 42.015807 
L 496.474402 42.453603 
L 496.77502 41.578011 
L 497.075639 42.453603 
L 497.376258 41.578011 
L 497.676877 42.453603 
L 497.977496 41.578011 
L 498.278115 41.578011 
L 498.578734 43.766991 
L 498.879352 42.015807 
L 499.179971 42.453603 
L 499.781209 42.453603 
L 500.081828 42.015807 
L 500.382447 42.015807 
L 500.683066 41.140215 
L 500.983684 41.578011 
L 501.284303 41.578011 
L 501.584922 42.015807 
L 501.885541 41.140215 
L 502.18616 42.453603 
L 502.486779 41.578011 
L 502.787398 42.015807 
L 503.088016 42.015807 
L 503.388635 40.702419 
L 503.689254 41.140215 
L 503.989873 42.015807 
L 504.89173 40.702419 
L 505.192348 41.140215 
L 505.492967 40.702419 
L 506.094205 40.702419 
L 506.394824 40.264623 
L 506.996062 41.140215 
L 507.29668 40.702419 
L 507.597299 40.702419 
L 507.897918 40.264623 
L 508.198537 40.702419 
L 508.499156 40.264623 
L 508.799775 40.702419 
L 509.401012 40.702419 
L 510.00225 39.826827 
L 510.302869 40.702419 
L 510.904107 40.702419 
L 511.204726 40.264623 
L 511.505344 41.140215 
L 511.805963 39.38903 
L 512.106582 40.702419 
L 512.70782 40.702419 
L 513.008439 40.264623 
L 513.309058 40.702419 
L 513.910295 40.702419 
L 514.210914 39.826827 
L 514.511533 41.140215 
L 514.812152 40.702419 
L 515.112771 40.702419 
L 515.41339 41.140215 
L 515.714008 40.264623 
L 516.014627 41.140215 
L 516.315246 40.702419 
L 516.615865 41.140215 
L 516.916484 42.015807 
L 517.217103 41.578011 
L 517.517722 42.015807 
L 517.81834 42.015807 
L 518.118959 42.891399 
L 518.419578 41.578011 
L 518.720197 42.015807 
L 519.020816 41.578011 
L 519.622054 42.453603 
L 519.922672 42.015807 
L 520.223291 42.453603 
L 520.52391 41.578011 
L 520.824529 43.329195 
L 521.125148 42.891399 
L 521.726386 42.891399 
L 522.027004 42.015807 
L 522.327623 42.015807 
L 522.628242 42.891399 
L 522.928861 42.015807 
L 523.22948 43.329195 
L 523.530099 42.453603 
L 523.830718 43.329195 
L 524.431955 42.453603 
L 525.033193 43.329195 
L 525.333812 43.329195 
L 525.634431 42.891399 
L 526.235668 43.766991 
L 526.536287 43.329195 
L 526.836906 43.329195 
L 527.137525 45.518175 
L 527.438144 44.204787 
L 527.738763 44.204787 
L 528.039382 43.766991 
L 528.640619 43.766991 
L 528.941238 43.329195 
L 529.542476 44.204787 
L 529.843095 43.766991 
L 530.143714 44.204787 
L 530.444332 44.204787 
L 530.744951 43.766991 
L 531.04557 43.766991 
L 531.346189 44.204787 
L 531.646808 43.766991 
L 531.947427 44.642583 
L 532.248046 45.080379 
L 532.849283 45.080379 
L 533.149902 45.518175 
L 533.450521 45.080379 
L 533.75114 45.080379 
L 534.051759 44.642583 
L 534.352378 44.642583 
L 534.652996 45.080379 
L 534.953615 45.080379 
L 535.254234 46.393767 
L 535.554853 45.518175 
L 535.855472 45.080379 
L 536.156091 45.955971 
L 536.45671 46.393767 
L 536.757328 45.518175 
L 537.057947 45.955971 
L 537.358566 45.955971 
L 537.659185 45.518175 
L 538.260423 46.393767 
L 538.561041 45.518175 
L 538.86166 46.393767 
L 539.162279 45.518175 
L 539.462898 45.518175 
L 539.763517 45.955971 
L 540.064136 45.518175 
L 540.364755 46.393767 
L 540.665374 46.393767 
L 540.965992 46.831563 
L 541.266611 46.393767 
L 541.56723 45.080379 
L 541.867849 46.393767 
L 542.168468 46.393767 
L 542.469087 45.955971 
L 542.769706 46.831563 
L 543.070324 45.955971 
L 543.370943 45.518175 
L 543.671562 45.955971 
L 543.972181 46.831563 
L 544.2728 45.955971 
L 544.573419 46.831563 
L 545.475275 45.518175 
L 545.775894 45.955971 
L 546.377132 45.955971 
L 546.677751 46.393767 
L 546.978369 46.393767 
L 547.278988 45.518175 
L 547.579607 45.955971 
L 548.180845 45.080379 
L 548.481464 45.518175 
L 549.082702 45.518175 
L 549.38332 45.080379 
L 549.683939 45.518175 
L 549.984558 44.642583 
L 550.285177 45.518175 
L 550.585796 45.080379 
L 550.886415 45.080379 
L 551.187033 44.642583 
L 551.487652 43.766991 
L 552.08889 44.642583 
L 552.389509 44.204787 
L 552.690128 44.204787 
L 552.990747 44.642583 
L 553.591984 43.766991 
L 553.892603 44.204787 
L 554.193222 44.204787 
L 554.79446 43.329195 
L 555.095079 42.453603 
L 555.395698 42.891399 
L 555.696316 42.453603 
L 555.996935 43.766991 
L 556.297554 42.891399 
L 556.598173 42.891399 
L 557.199411 42.015807 
L 557.50003 42.015807 
L 557.800648 41.578011 
L 558.101267 42.015807 
L 558.401886 42.015807 
L 558.702505 41.140215 
L 559.003124 41.578011 
L 559.303743 42.453603 
L 559.604361 41.140215 
L 559.90498 41.578011 
L 560.205599 41.140215 
L 560.806837 41.140215 
L 561.107456 40.264623 
L 561.408075 40.264623 
L 562.009312 39.38903 
L 562.309931 40.702419 
L 562.61055 38.951234 
L 562.911169 39.826827 
L 563.211788 39.826827 
L 563.512407 38.951234 
L 563.813025 38.951234 
L 564.113644 39.38903 
L 564.414263 39.38903 
L 564.714882 38.951234 
L 565.015501 37.637846 
L 565.31612 38.513438 
L 565.616739 38.951234 
L 565.917357 38.513438 
L 566.217976 38.513438 
L 566.819214 37.637846 
L 567.119833 37.637846 
L 567.420452 38.513438 
L 568.322308 37.20005 
L 568.622927 37.637846 
L 568.923546 37.637846 
L 569.224165 37.20005 
L 569.524784 37.637846 
L 569.825403 37.637846 
L 570.42664 36.762254 
L 570.727259 37.20005 
L 571.328497 37.20005 
L 571.629116 36.762254 
L 571.929735 37.637846 
L 572.230353 37.637846 
L 572.530973 36.324458 
L 572.831592 35.886662 
L 573.132211 38.513438 
L 573.733449 36.762254 
L 574.034068 37.20005 
L 574.334686 37.20005 
L 574.635305 36.324458 
L 574.935924 37.20005 
L 575.537162 37.20005 
L 575.837781 37.637846 
L 576.138399 37.20005 
L 576.439018 37.20005 
L 576.739637 36.762254 
L 577.040256 37.20005 
L 577.340875 36.762254 
L 577.942113 37.637846 
L 578.242731 36.324458 
L 578.54335 36.762254 
L 578.843969 36.762254 
L 579.144588 35.886662 
L 579.445207 36.762254 
L 580.046444 35.886662 
L 580.347063 36.324458 
L 580.948301 35.448866 
L 581.24892 36.324458 
L 581.549539 35.448866 
L 581.850157 35.448866 
L 582.150776 35.886662 
L 582.752014 35.886662 
L 583.052633 35.448866 
L 583.353252 35.448866 
L 583.65387 35.01107 
L 583.954489 36.324458 
L 584.555727 35.448866 
L 585.156965 35.448866 
L 585.457583 35.01107 
L 586.35944 36.324458 
L 586.660059 36.324458 
L 586.960678 35.886662 
L 588.163153 35.886662 
L 588.463772 35.01107 
L 589.06501 36.762254 
L 589.365628 36.762254 
L 589.966866 35.886662 
L 590.267485 36.324458 
L 590.568104 35.886662 
L 591.169341 36.762254 
L 591.46996 35.886662 
L 591.770579 35.448866 
L 592.071198 35.448866 
L 592.973054 36.762254 
L 593.574292 35.886662 
L 594.17553 36.762254 
L 594.776767 35.886662 
L 595.077386 36.762254 
L 595.378005 36.324458 
L 595.678624 36.324458 
L 595.979243 35.886662 
L 596.580481 37.637846 
L 596.881099 35.886662 
L 597.181718 36.762254 
L 597.482337 36.324458 
L 597.782956 37.20005 
L 598.384194 37.20005 
L 598.684812 36.762254 
L 598.985431 36.762254 
L 599.28605 37.637846 
L 599.586669 36.762254 
L 599.887288 37.637846 
L 600.187907 37.20005 
L 600.488525 37.20005 
L 600.789144 38.075642 
L 601.089763 38.513438 
L 601.390382 37.20005 
L 601.99162 37.20005 
L 602.292238 37.637846 
L 602.592857 38.513438 
L 602.893476 38.513438 
L 603.194095 37.637846 
L 603.494714 37.20005 
L 603.795333 37.20005 
L 604.095951 38.951234 
L 604.39657 37.637846 
L 604.997808 38.513438 
L 605.298427 37.637846 
L 605.599046 38.513438 
L 605.899665 37.637846 
L 606.200283 38.075642 
L 606.500902 37.637846 
L 606.801521 37.637846 
L 607.10214 38.513438 
L 607.402759 36.762254 
L 607.703378 36.762254 
L 608.003996 38.075642 
L 608.605234 37.20005 
L 608.905853 37.20005 
L 609.206472 38.075642 
L 609.507091 37.637846 
L 609.807709 36.762254 
L 610.108328 38.075642 
L 610.408947 37.637846 
L 611.010185 37.637846 
L 611.310804 37.20005 
L 611.611422 37.20005 
L 611.912041 37.637846 
L 612.21266 37.20005 
L 612.513279 38.075642 
L 613.114517 38.075642 
L 613.415135 37.637846 
L 613.715754 37.637846 
L 614.016373 37.20005 
L 614.316992 37.637846 
L 614.617611 39.38903 
L 614.91823 38.513438 
L 615.519467 38.513438 
L 615.820086 38.075642 
L 616.120705 37.20005 
L 617.022562 38.513438 
L 617.32318 38.513438 
L 617.623799 37.20005 
L 617.924418 37.637846 
L 618.225037 37.637846 
L 618.525656 38.075642 
L 618.826275 37.637846 
L 619.427512 37.637846 
L 619.728131 38.951234 
L 620.02875 37.637846 
L 620.930606 38.951234 
L 621.231225 37.637846 
L 621.531844 37.637846 
L 621.832463 38.513438 
L 622.133082 38.513438 
L 622.433701 37.20005 
L 622.734319 37.637846 
L 623.034938 37.637846 
L 623.335557 37.20005 
L 623.636176 37.20005 
L 623.936795 38.075642 
L 624.538033 37.20005 
L 625.13927 37.20005 
L 625.439889 38.075642 
L 625.740508 37.20005 
L 626.341746 37.20005 
L 626.642364 38.513438 
L 626.942983 37.20005 
L 627.243602 38.513438 
L 627.544221 37.20005 
L 627.84484 37.637846 
L 628.145459 38.951234 
L 628.446077 37.20005 
L 628.746696 37.20005 
L 629.047315 37.637846 
L 629.347934 37.637846 
L 629.648553 37.20005 
L 629.949172 37.637846 
L 630.24979 37.637846 
L 630.550409 37.20005 
L 630.851028 37.20005 
L 631.151647 37.637846 
L 631.452266 37.20005 
L 632.053503 37.20005 
L 632.354122 38.075642 
L 632.654741 38.075642 
L 632.95536 36.324458 
L 633.255979 38.075642 
L 633.556598 36.762254 
L 633.857217 37.20005 
L 634.157835 37.20005 
L 634.458454 36.762254 
L 634.759073 37.20005 
L 635.059692 36.762254 
L 635.360311 37.20005 
L 635.66093 36.762254 
L 635.961548 37.20005 
L 636.262167 36.324458 
L 636.562786 37.20005 
L 636.863405 37.637846 
L 637.164024 37.20005 
L 637.464643 37.637846 
L 638.06588 36.762254 
L 638.366499 36.762254 
L 638.667118 36.324458 
L 638.967737 37.20005 
L 639.268356 36.762254 
L 639.568974 38.513438 
L 639.869593 36.324458 
L 640.170212 36.762254 
L 640.470831 36.762254 
L 640.77145 36.324458 
L 641.072069 37.20005 
L 641.372687 36.762254 
L 641.673306 36.762254 
L 641.973925 35.886662 
L 642.274544 36.762254 
L 642.875782 36.762254 
L 643.176401 35.886662 
L 643.477019 35.886662 
L 644.078257 36.762254 
L 644.378876 36.324458 
L 645.280732 36.324458 
L 645.581351 35.886662 
L 645.88197 37.20005 
L 646.182589 35.448866 
L 646.483208 36.324458 
L 646.783827 35.01107 
L 647.084445 35.886662 
L 647.385064 35.448866 
L 647.685683 36.324458 
L 647.986302 35.886662 
L 648.286921 35.886662 
L 648.58754 34.573274 
L 648.888158 35.01107 
L 649.188777 34.573274 
L 649.489396 35.01107 
L 649.790015 35.01107 
L 650.090634 35.448866 
L 650.691871 34.573274 
L 650.99249 35.448866 
L 651.293109 34.573274 
L 651.593728 35.01107 
L 652.194966 34.135478 
L 652.495585 34.573274 
L 652.796203 33.697682 
L 653.096822 34.573274 
L 653.397441 34.135478 
L 653.69806 34.135478 
L 653.998679 33.697682 
L 654.299298 33.697682 
L 654.599916 33.259886 
L 654.900535 33.259886 
L 655.201154 32.82209 
L 655.501773 34.135478 
L 656.403629 32.82209 
L 656.704248 33.697682 
L 657.004867 34.135478 
L 657.305486 33.259886 
L 657.606105 33.697682 
L 657.906724 32.82209 
L 658.207342 32.82209 
L 658.507961 32.384294 
L 658.80858 32.82209 
L 659.109199 32.384294 
L 659.409818 32.82209 
L 659.710437 32.384294 
L 660.011055 32.82209 
L 660.311674 31.946498 
L 660.612293 32.82209 
L 660.912912 31.946498 
L 661.814769 31.946498 
L 662.115387 32.384294 
L 662.416006 31.508702 
L 662.716625 31.946498 
L 663.017244 31.508702 
L 663.317863 31.946498 
L 664.219719 31.946498 
L 664.520338 31.508702 
L 664.820957 31.946498 
L 665.121576 31.946498 
L 665.422195 31.508702 
L 665.722813 31.946498 
L 666.023432 31.508702 
L 666.324051 31.946498 
L 666.62467 31.070906 
L 666.925289 32.384294 
L 667.225908 31.508702 
L 667.526526 32.82209 
L 667.827145 31.070906 
L 668.127764 31.508702 
L 668.729002 31.508702 
L 669.029621 31.946498 
L 669.330239 31.508702 
L 669.630858 32.384294 
L 669.931477 31.070906 
L 670.232096 31.946498 
L 670.532715 31.508702 
L 670.833334 31.946498 
L 671.133953 31.508702 
L 671.434571 31.508702 
L 671.73519 32.384294 
L 672.035809 32.384294 
L 672.336428 31.508702 
L 672.637047 31.946498 
L 672.937666 31.508702 
L 673.238284 32.384294 
L 673.538903 31.508702 
L 673.839522 31.508702 
L 674.140141 32.384294 
L 674.741379 32.384294 
L 675.041997 32.82209 
L 675.342616 32.82209 
L 675.943854 31.946498 
L 676.244473 32.384294 
L 676.545092 31.946498 
L 676.84571 31.946498 
L 677.146329 32.384294 
L 677.446948 31.946498 
L 678.048186 32.82209 
L 678.348805 32.82209 
L 678.649423 32.384294 
L 678.950042 32.82209 
L 679.55128 32.82209 
L 679.851899 32.384294 
L 680.152518 33.259886 
L 680.453137 33.259886 
L 680.753755 32.384294 
L 681.054374 32.384294 
L 681.354993 33.259886 
L 681.655612 33.697682 
L 681.956231 32.384294 
L 682.25685 33.259886 
L 682.557468 32.82209 
L 682.858087 32.82209 
L 683.158706 33.259886 
L 683.459325 32.384294 
L 683.759944 33.259886 
L 684.060563 32.82209 
L 684.361181 31.946498 
L 684.6618 33.259886 
L 684.962419 32.384294 
L 685.263038 31.946498 
L 685.563657 32.384294 
L 685.864276 31.508702 
L 686.164894 32.384294 
L 686.766132 32.384294 
L 687.066751 31.946498 
L 687.36737 31.070906 
L 687.667989 31.946498 
L 688.269226 31.946498 
L 688.569845 33.259886 
L 688.870464 32.384294 
L 689.471702 31.508702 
L 689.772321 32.384294 
L 690.072939 31.946498 
L 690.373558 32.384294 
L 690.674177 32.384294 
L 690.974796 31.508702 
L 691.275415 31.070906 
L 691.576034 31.508702 
L 691.876652 31.070906 
L 692.177271 31.508702 
L 692.47789 32.384294 
L 692.778509 31.508702 
L 693.079128 31.508702 
L 693.379747 30.63311 
L 693.680365 31.070906 
L 693.980984 30.63311 
L 694.281603 31.070906 
L 694.582222 31.070906 
L 694.882841 31.946498 
L 695.484078 30.195314 
L 696.085316 31.070906 
L 696.385935 30.63311 
L 696.686554 31.508702 
L 696.987173 30.63311 
L 697.287791 31.070906 
L 697.58841 31.070906 
L 697.889029 30.63311 
L 698.189648 31.070906 
L 698.490267 30.63311 
L 698.790886 29.757518 
L 699.091505 31.070906 
L 699.392123 31.070906 
L 699.993361 30.195314 
L 700.29398 30.63311 
L 700.594599 30.63311 
L 700.895218 30.195314 
L 701.195836 31.070906 
L 701.496455 31.070906 
L 701.797074 30.63311 
L 702.097693 31.070906 
L 702.398312 30.63311 
L 702.698931 31.508702 
L 702.999549 31.508702 
L 703.600787 30.63311 
L 703.901406 31.508702 
L 704.202025 30.63311 
L 704.502644 31.070906 
L 704.803262 31.070906 
L 705.103881 30.63311 
L 705.4045 30.63311 
L 705.705119 31.070906 
L 706.005738 30.63311 
L 706.306357 30.63311 
L 706.606975 31.070906 
L 706.907594 30.195314 
L 707.208213 30.63311 
L 707.508832 30.195314 
L 707.809451 30.195314 
L 708.110067 31.070906 
L 708.711305 30.195314 
L 709.011924 30.63311 
L 709.312543 30.195314 
L 709.913781 30.195314 
L 710.214399 29.757518 
L 710.515018 31.508702 
L 711.116256 30.63311 
L 711.416875 30.63311 
L 711.717494 31.070906 
L 712.318731 30.195314 
L 712.919969 30.195314 
L 713.521207 31.070906 
L 713.821826 30.63311 
L 714.122445 30.63311 
L 714.723682 29.757518 
L 715.024301 30.195314 
L 715.32492 30.195314 
L 715.625539 30.63311 
L 715.926158 29.757518 
L 716.226777 30.195314 
L 716.527395 31.070906 
L 716.828014 29.757518 
L 717.128633 30.195314 
L 717.429252 29.757518 
L 718.03049 30.63311 
L 718.331109 30.63311 
L 718.631727 29.757518 
L 718.932346 29.319722 
L 719.232965 30.195314 
L 719.533584 29.319722 
L 719.834203 30.195314 
L 720.134822 28.881926 
L 720.435441 29.319722 
L 720.736059 30.63311 
L 721.036678 29.757518 
L 721.337297 30.195314 
L 721.637916 29.757518 
L 722.239154 29.757518 
L 722.539773 30.195314 
L 722.840391 29.319722 
L 723.14101 28.881926 
L 723.441629 29.319722 
L 723.742248 29.319722 
L 724.042867 28.881926 
L 724.343486 29.319722 
L 724.644105 28.44413 
L 724.944723 29.319722 
L 725.245342 28.44413 
L 726.447818 28.44413 
L 726.748437 28.006334 
L 727.049055 28.44413 
L 727.349674 27.568538 
L 727.650293 28.44413 
L 727.950912 28.881926 
L 728.251531 28.006334 
L 728.55215 27.568538 
L 728.852768 28.006334 
L 729.454006 28.006334 
L 729.754625 28.44413 
L 730.055244 27.568538 
L 730.355863 28.006334 
L 730.656482 28.006334 
L 730.957101 27.568538 
L 731.257719 27.568538 
L 731.558338 27.130742 
L 731.858957 27.568538 
L 733.061433 27.568538 
L 733.362051 28.44413 
L 733.963289 27.568538 
L 734.263908 26.692946 
L 734.564527 28.006334 
L 734.865146 27.568538 
L 735.165765 27.568538 
L 735.466383 28.006334 
L 735.767002 29.757518 
L 736.067621 27.568538 
L 736.36824 28.006334 
L 736.668859 27.130742 
L 736.969478 28.44413 
L 737.270097 28.006334 
L 737.570715 28.006334 
L 737.871334 27.568538 
L 738.171953 28.44413 
L 738.472572 28.006334 
L 738.773191 28.006334 
L 739.07381 28.44413 
L 739.374429 28.006334 
L 739.675047 28.881926 
L 739.975666 28.44413 
L 740.576904 28.44413 
L 740.877523 28.881926 
L 741.178142 28.881926 
L 741.47876 29.319722 
L 741.779379 28.006334 
L 742.079998 28.881926 
L 742.380617 28.881926 
L 742.681236 28.006334 
L 742.981855 28.006334 
L 743.282474 29.319722 
L 743.883711 27.568538 
L 744.18433 29.319722 
L 744.484949 29.319722 
L 744.785568 28.44413 
L 745.386806 29.319722 
L 745.687425 28.881926 
L 746.288662 28.881926 
L 746.589281 29.757518 
L 746.8899 28.881926 
L 747.190519 29.757518 
L 747.491138 29.319722 
L 747.791757 30.195314 
L 748.092375 28.881926 
L 748.392994 29.319722 
L 748.693613 30.195314 
L 749.294851 30.195314 
L 749.59547 29.319722 
L 749.896088 28.881926 
L 750.196707 29.757518 
L 750.497326 29.757518 
L 750.797945 30.195314 
L 751.098564 29.319722 
L 751.399183 29.319722 
L 751.699802 30.195314 
L 752.000421 29.757518 
L 752.301039 30.195314 
L 752.902277 30.195314 
L 753.202896 29.757518 
L 753.804134 29.757518 
L 754.104752 30.195314 
L 754.405371 30.195314 
L 754.70599 28.881926 
L 755.006609 30.195314 
L 755.307228 29.757518 
L 755.908466 29.757518 
L 756.209084 30.63311 
L 756.509703 29.757518 
L 757.110941 30.63311 
L 757.712179 29.757518 
L 758.012798 29.757518 
L 758.313416 30.63311 
L 758.614035 31.070906 
L 758.914654 30.195314 
L 759.515892 31.070906 
L 759.816511 31.070906 
L 760.11713 31.508702 
L 760.417749 30.63311 
L 760.718367 31.508702 
L 761.018986 31.070906 
L 761.319605 32.384294 
L 761.620224 30.63311 
L 761.920843 31.508702 
L 762.221462 30.63311 
L 762.52208 30.195314 
L 763.123318 31.070906 
L 763.423937 30.63311 
L 763.724556 30.63311 
L 764.025175 31.070906 
L 764.325794 30.195314 
L 764.626412 30.63311 
L 764.927031 30.63311 
L 765.22765 31.070906 
L 765.528269 30.63311 
L 765.828888 31.508702 
L 766.129507 30.195314 
L 766.430126 31.508702 
L 766.730744 31.070906 
L 767.031363 31.946498 
L 767.331982 30.195314 
L 767.632601 31.946498 
L 767.93322 30.195314 
L 768.233839 30.63311 
L 768.534458 30.63311 
L 768.835076 31.070906 
L 769.135695 30.63311 
L 769.436314 31.070906 
L 769.736933 30.63311 
L 770.037552 31.070906 
L 770.338171 31.070906 
L 770.63879 30.63311 
L 770.939408 31.070906 
L 771.240027 30.63311 
L 771.540646 31.946498 
L 772.141884 31.070906 
L 772.743122 31.070906 
L 773.04374 31.508702 
L 773.344359 30.63311 
L 773.644978 31.508702 
L 773.945597 31.946498 
L 774.246216 31.070906 
L 774.546835 31.070906 
L 774.847454 30.63311 
L 775.148072 31.070906 
L 775.448691 30.63311 
L 775.74931 31.070906 
L 776.350548 31.070906 
L 776.651167 30.63311 
L 776.951786 31.508702 
L 778.154261 31.508702 
L 778.45488 32.384294 
L 778.755499 31.946498 
L 779.056118 31.946498 
L 779.356736 31.508702 
L 780.559212 31.508702 
L 780.859831 31.946498 
L 781.16045 33.259886 
L 781.461068 32.82209 
L 781.761687 31.946498 
L 782.362925 32.82209 
L 782.663544 32.384294 
L 782.964163 32.384294 
L 783.264782 32.82209 
L 783.5654 32.384294 
L 783.866019 32.384294 
L 784.166638 32.82209 
L 784.467257 31.946498 
L 784.767876 33.259886 
L 785.369114 32.384294 
L 785.669732 33.697682 
L 785.970351 33.259886 
L 786.27097 33.697682 
L 786.571589 33.697682 
L 786.872208 33.259886 
L 787.172827 33.697682 
L 787.473446 33.259886 
L 787.774064 33.697682 
L 788.074683 33.259886 
L 788.375302 33.697682 
L 788.97654 33.697682 
L 789.277159 34.573274 
L 789.577778 33.259886 
L 789.878396 33.259886 
L 790.179015 32.82209 
L 790.479634 33.259886 
L 790.780253 32.82209 
L 791.080872 33.259886 
L 791.381491 32.82209 
L 791.68211 33.259886 
L 791.982728 32.82209 
L 792.283347 33.259886 
L 792.583966 33.259886 
L 792.884585 32.384294 
L 793.185204 32.82209 
L 793.485823 32.82209 
L 793.786442 33.259886 
L 794.387679 32.384294 
L 794.688298 32.384294 
L 794.988917 32.82209 
L 795.590155 31.946498 
L 795.890774 32.82209 
L 796.191392 32.384294 
L 796.492011 32.384294 
L 796.79263 32.82209 
L 797.093249 31.946498 
L 797.694487 31.070906 
L 797.995106 31.946498 
L 798.295724 31.946498 
L 798.596343 31.070906 
L 798.896962 31.070906 
L 799.197581 31.946498 
L 799.4982 31.508702 
L 800.400056 31.508702 
L 800.700675 31.070906 
L 801.001294 31.508702 
L 801.301913 30.63311 
L 801.602532 31.508702 
L 802.20377 31.508702 
L 802.504388 31.070906 
L 803.105626 31.070906 
L 803.406245 31.508702 
L 803.706864 30.63311 
L 804.007483 31.070906 
L 804.308102 30.63311 
L 804.60872 31.070906 
L 805.209958 31.070906 
L 805.510577 30.63311 
L 805.811196 31.070906 
L 806.111815 30.195314 
L 806.713052 31.070906 
L 807.614909 31.070906 
L 807.915528 30.63311 
L 808.216147 31.070906 
L 808.516766 30.63311 
L 808.817384 30.63311 
L 809.118003 31.070906 
L 809.418622 31.070906 
L 809.719241 30.63311 
L 810.01986 30.63311 
L 810.320479 31.508702 
L 810.621098 30.63311 
L 810.921716 31.946498 
L 811.222335 31.070906 
L 811.522954 30.63311 
L 811.823573 30.63311 
L 812.124192 30.195314 
L 812.424811 30.195314 
L 812.72543 30.63311 
L 813.026048 30.195314 
L 813.326667 30.63311 
L 813.627286 29.757518 
L 813.927905 31.070906 
L 814.228524 30.195314 
L 814.529143 29.757518 
L 814.829762 29.757518 
L 815.13038 29.319722 
L 815.430999 29.757518 
L 815.731618 29.319722 
L 816.032237 29.319722 
L 816.332856 29.757518 
L 816.633475 29.757518 
L 816.934094 30.195314 
L 817.234712 29.757518 
L 817.535331 31.070906 
L 817.83595 29.757518 
L 818.136569 30.195314 
L 818.437188 30.195314 
L 818.737807 29.319722 
L 819.038426 28.881926 
L 819.339044 28.881926 
L 819.639663 29.319722 
L 819.940282 29.319722 
L 820.240901 28.44413 
L 820.54152 29.319722 
L 820.842139 28.44413 
L 821.142758 28.44413 
L 821.443376 28.881926 
L 821.743995 29.757518 
L 822.044614 28.44413 
L 822.345233 28.006334 
L 822.645852 28.881926 
L 822.946471 28.44413 
L 823.247089 28.881926 
L 823.547708 28.44413 
L 823.848327 28.881926 
L 824.148946 28.006334 
L 825.351422 28.006334 
L 825.65204 27.568538 
L 825.952659 27.568538 
L 826.253278 28.006334 
L 826.854516 28.006334 
L 827.155135 28.881926 
L 827.455754 28.44413 
L 827.756372 27.568538 
L 828.056991 28.44413 
L 828.35761 27.130742 
L 828.658229 28.006334 
L 828.958848 27.130742 
L 829.259467 28.44413 
L 829.860704 27.568538 
L 830.161323 28.006334 
L 830.461942 27.568538 
L 830.762561 28.006334 
L 831.363799 28.006334 
L 831.664417 27.568538 
L 832.566274 27.568538 
L 832.866893 26.692946 
L 833.167512 27.130742 
L 833.468131 28.006334 
L 833.76875 28.006334 
L 834.069368 27.130742 
L 834.369987 28.44413 
L 834.670606 28.006334 
L 834.971225 28.006334 
L 835.271844 28.881926 
L 835.572463 28.44413 
L 835.873082 27.568538 
L 836.1737 28.881926 
L 836.474319 28.44413 
L 836.774938 29.319722 
L 837.075557 28.44413 
L 837.376176 29.319722 
L 837.676795 29.757518 
L 837.977413 29.757518 
L 838.278032 28.881926 
L 838.87927 29.757518 
L 839.781127 29.757518 
L 840.382364 30.63311 
L 840.682983 30.195314 
L 840.983602 30.195314 
L 841.58484 29.319722 
L 841.885459 30.195314 
L 842.186077 30.195314 
L 842.486696 30.63311 
L 842.787315 30.63311 
L 843.087934 30.195314 
L 843.388553 31.070906 
L 843.689168 30.63311 
L 844.891649 30.63311 
L 845.192269 31.070906 
L 846.09413 31.070906 
L 846.39475 31.508702 
L 846.69537 31.070906 
L 846.995991 31.508702 
L 847.296611 30.63311 
L 847.597231 31.508702 
L 847.897851 31.070906 
L 848.198472 31.508702 
L 848.499092 31.508702 
L 848.799712 31.070906 
L 849.400952 31.946498 
L 849.701573 30.63311 
L 850.603433 31.946498 
L 850.904054 31.070906 
L 851.204674 31.070906 
L 851.505294 31.508702 
L 851.805914 31.070906 
L 852.106534 31.070906 
L 852.407155 31.946498 
L 853.008395 31.070906 
L 853.609635 31.946498 
L 854.210876 31.070906 
L 854.511496 31.508702 
L 854.812116 31.508702 
L 855.112737 31.946498 
L 855.413357 31.070906 
L 855.713977 31.508702 
L 856.014597 30.63311 
L 856.315217 31.946498 
L 856.615838 31.070906 
L 857.517698 31.070906 
L 857.818319 30.63311 
L 858.118939 31.070906 
L 858.419559 31.070906 
L 858.720179 30.195314 
L 859.020799 30.63311 
L 859.92266 30.63311 
L 860.22328 30.195314 
L 860.5239 31.070906 
L 860.824521 31.070906 
L 861.125141 30.63311 
L 861.425761 30.63311 
L 861.726381 29.757518 
L 862.027002 30.195314 
L 862.327622 29.757518 
L 862.928862 30.63311 
L 863.229482 29.757518 
L 863.530103 29.757518 
L 863.830723 30.63311 
L 864.131343 30.195314 
L 864.431963 29.319722 
L 864.732584 29.757518 
L 865.033204 29.757518 
L 865.333824 29.319722 
L 865.634444 29.757518 
L 865.935064 29.757518 
L 866.235685 29.319722 
L 866.536305 30.195314 
L 866.836925 29.319722 
L 867.137545 30.195314 
L 867.438166 29.757518 
L 867.738786 30.195314 
L 868.039406 29.319722 
L 868.340026 29.757518 
L 868.640646 29.319722 
L 868.941267 29.757518 
L 869.241887 28.881926 
L 869.542507 29.319722 
L 869.843127 29.319722 
L 870.143747 28.881926 
L 870.444368 28.881926 
L 870.744988 30.195314 
L 871.045608 29.319722 
L 871.346228 29.757518 
L 871.646849 29.757518 
L 871.947469 29.319722 
L 872.248089 30.63311 
L 872.548709 28.881926 
L 872.849329 29.757518 
L 873.14995 29.319722 
L 873.45057 29.319722 
L 873.75119 28.881926 
L 874.05181 29.757518 
L 874.352431 29.319722 
L 874.653051 30.195314 
L 874.953671 30.63311 
L 875.254291 29.319722 
L 875.554911 29.319722 
L 875.855532 30.63311 
L 876.156152 29.757518 
L 876.456772 30.63311 
L 876.757392 29.757518 
L 877.058013 30.63311 
L 877.358633 29.757518 
L 877.659253 30.195314 
L 877.959873 30.195314 
L 878.260493 29.757518 
L 878.561114 30.63311 
L 878.861734 30.195314 
L 879.462974 30.195314 
L 879.763594 29.757518 
L 880.064215 30.195314 
L 880.364835 29.319722 
L 880.665455 30.195314 
L 880.966075 29.757518 
L 881.266696 30.195314 
L 881.567316 29.757518 
L 881.867936 30.63311 
L 882.168556 30.195314 
L 882.469176 30.195314 
L 882.769797 29.757518 
L 883.070417 30.63311 
L 883.371037 30.63311 
L 883.671657 30.195314 
L 883.972278 30.195314 
L 884.272898 31.070906 
L 884.874138 30.195314 
L 885.174758 31.070906 
L 885.475379 30.63311 
L 886.377239 30.63311 
L 886.677859 30.195314 
L 887.2791 31.070906 
L 887.57972 30.63311 
L 888.180961 30.63311 
L 888.481581 30.195314 
L 888.782201 30.195314 
L 889.383442 31.070906 
L 889.684062 30.63311 
L 889.984682 31.070906 
L 890.285302 31.070906 
L 890.585922 30.195314 
L 891.487783 30.195314 
L 891.788403 29.757518 
L 892.089023 30.195314 
L 892.690264 30.195314 
L 892.990884 29.757518 
L 893.291504 29.757518 
L 893.592124 30.195314 
L 893.892745 29.757518 
L 894.193365 29.757518 
L 894.493985 30.195314 
L 895.095226 30.195314 
L 895.395846 29.757518 
L 895.997086 30.63311 
L 896.297707 29.319722 
L 896.598327 29.757518 
L 896.898947 29.757518 
L 897.199567 30.195314 
L 897.500187 29.757518 
L 897.800808 30.63311 
L 898.101428 29.757518 
L 898.402048 30.195314 
L 898.702668 28.881926 
L 899.003288 29.757518 
L 899.604529 29.757518 
L 899.905149 29.319722 
L 901.10763 29.319722 
L 901.40825 28.881926 
L 901.70887 29.757518 
L 902.009491 29.757518 
L 902.310111 30.195314 
L 902.610731 28.44413 
L 902.911351 29.757518 
L 903.211972 29.319722 
L 903.512592 30.195314 
L 903.813212 29.319722 
L 904.113832 28.881926 
L 904.414452 29.319722 
L 904.715073 28.881926 
L 905.015693 29.319722 
L 905.316313 29.319722 
L 905.616933 28.881926 
L 905.917553 28.881926 
L 906.218174 29.319722 
L 906.518794 28.881926 
L 906.819414 29.757518 
L 907.120034 28.44413 
L 907.420655 28.881926 
L 907.721275 28.881926 
L 908.021895 28.44413 
L 908.322515 29.319722 
L 908.923756 28.44413 
L 909.224376 29.319722 
L 909.524996 29.757518 
L 910.126237 29.757518 
L 910.426857 28.006334 
L 910.727477 29.319722 
L 911.028097 29.319722 
L 911.328717 29.757518 
L 911.629338 29.319722 
L 911.929958 29.319722 
L 912.230578 30.195314 
L 912.831819 29.319722 
L 913.733679 29.319722 
L 914.034299 28.881926 
L 914.63554 29.757518 
L 914.93616 28.44413 
L 915.23678 29.757518 
L 916.138641 29.757518 
L 916.439261 29.319722 
L 916.739881 29.757518 
L 917.341122 29.757518 
L 917.641742 29.319722 
L 917.942362 30.63311 
L 917.942362 30.63311 
" clip-path="url(#pb78f18e5c7)" style="fill: none; stroke: #ea580c; stroke-opacity: 0.95; stroke-width: 0.936; stroke-linecap: square"/>
   </g>
   <g id="patch_21">
    <path d="M 47.917188 228.954713 
L 47.917188 17.061433 
" style="fill: none; stroke: #cbd5e1; stroke-width: 0.8; stroke-linejoin: miter; stroke-linecap: square"/>
   </g>
   <g id="patch_22">
    <path d="M 935.342188 228.954713 
L 935.342188 17.061433 
" style="fill: none; stroke: #cbd5e1; stroke-width: 0.8; stroke-linejoin: miter; stroke-linecap: square"/>
   </g>
   <g id="patch_23">
    <path d="M 47.917188 228.954713 
L 935.342188 228.954713 
" style="fill: none; stroke: #cbd5e1; stroke-width: 0.8; stroke-linejoin: miter; stroke-linecap: square"/>
   </g>
   <g id="patch_24">
    <path d="M 47.917188 17.061433 
L 935.342188 17.061433 
" style="fill: none; stroke: #cbd5e1; stroke-width: 0.8; stroke-linejoin: miter; stroke-linecap: square"/>
   </g>
   <g id="text_19">
    <!-- ACC -->
    <g style="fill: #475569" transform="translate(129.850339 13.27875) scale(0.08 -0.08)">
     <defs>
      <path id="DejaVuSans-41" d="M 2188 4044 
L 1331 1722 
L 3047 1722 
L 2188 4044 
z
M 1831 4666 
L 2547 4666 
L 4325 0 
L 3669 0 
L 3244 1197 
L 1141 1197 
L 716 0 
L 50 0 
L 1831 4666 
z
" transform="scale(0.015625)"/>
     </defs>
     <use xlink:href="#DejaVuSans-41"/>
     <use xlink:href="#DejaVuSans-43" transform="translate(66.658203 0)"/>
     <use xlink:href="#DejaVuSans-43" transform="translate(136.482422 0)"/>
    </g>
   </g>
   <g id="text_20">
    <!-- OC -->
    <g style="fill: #475569" transform="translate(235.874463 13.27875) scale(0.08 -0.08)">
     <defs>
      <path id="DejaVuSans-4f" d="M 2522 4238 
Q 1834 4238 1429 3725 
Q 1025 3213 1025 2328 
Q 1025 1447 1429 934 
Q 1834 422 2522 422 
Q 3209 422 3611 934 
Q 4013 1447 4013 2328 
Q 4013 3213 3611 3725 
Q 3209 4238 2522 4238 
z
M 2522 4750 
Q 3503 4750 4090 4092 
Q 4678 3434 4678 2328 
Q 4678 1225 4090 567 
Q 3503 -91 2522 -91 
Q 1538 -91 948 565 
Q 359 1222 359 2328 
Q 359 3434 948 4092 
Q 1538 4750 2522 4750 
z
" transform="scale(0.015625)"/>
     </defs>
     <use xlink:href="#DejaVuSans-4f"/>
     <use xlink:href="#DejaVuSans-43" transform="translate(78.710938 0)"/>
    </g>
   </g>
   <g id="text_21">
    <!-- FCS -->
    <g style="fill: #475569" transform="translate(258.984268 13.27875) scale(0.08 -0.08)">
     <defs>
      <path id="DejaVuSans-46" d="M 628 4666 
L 3309 4666 
L 3309 4134 
L 1259 4134 
L 1259 2759 
L 3109 2759 
L 3109 2228 
L 1259 2228 
L 1259 0 
L 628 0 
L 628 4666 
z
" transform="scale(0.015625)"/>
      <path id="DejaVuSans-53" d="M 3425 4513 
L 3425 3897 
Q 3066 4069 2747 4153 
Q 2428 4238 2131 4238 
Q 1616 4238 1336 4038 
Q 1056 3838 1056 3469 
Q 1056 3159 1242 3001 
Q 1428 2844 1947 2747 
L 2328 2669 
Q 3034 2534 3370 2195 
Q 3706 1856 3706 1288 
Q 3706 609 3251 259 
Q 2797 -91 1919 -91 
Q 1588 -91 1214 -16 
Q 841 59 441 206 
L 441 856 
Q 825 641 1194 531 
Q 1563 422 1919 422 
Q 2459 422 2753 634 
Q 3047 847 3047 1241 
Q 3047 1584 2836 1778 
Q 2625 1972 2144 2069 
L 1759 2144 
Q 1053 2284 737 2584 
Q 422 2884 422 3419 
Q 422 4038 858 4394 
Q 1294 4750 2059 4750 
Q 2388 4750 2728 4690 
Q 3069 4631 3425 4513 
z
" transform="scale(0.015625)"/>
     </defs>
     <use xlink:href="#DejaVuSans-46"/>
     <use xlink:href="#DejaVuSans-43" transform="translate(57.519531 0)"/>
     <use xlink:href="#DejaVuSans-53" transform="translate(127.34375 0)"/>
    </g>
   </g>
   <g id="text_22">
    <!-- SR -->
    <g style="fill: #475569" transform="translate(295.118262 13.27875) scale(0.08 -0.08)">
     <defs>
      <path id="DejaVuSans-52" d="M 2841 2188 
Q 3044 2119 3236 1894 
Q 3428 1669 3622 1275 
L 4263 0 
L 3584 0 
L 2988 1197 
Q 2756 1666 2539 1819 
Q 2322 1972 1947 1972 
L 1259 1972 
L 1259 0 
L 628 0 
L 628 4666 
L 2053 4666 
Q 2853 4666 3247 4331 
Q 3641 3997 3641 3322 
Q 3641 2881 3436 2590 
Q 3231 2300 2841 2188 
z
M 1259 4147 
L 1259 2491 
L 2053 2491 
Q 2509 2491 2742 2702 
Q 2975 2913 2975 3322 
Q 2975 3731 2742 3939 
Q 2509 4147 2053 4147 
L 1259 4147 
z
" transform="scale(0.015625)"/>
     </defs>
     <use xlink:href="#DejaVuSans-53"/>
     <use xlink:href="#DejaVuSans-52" transform="translate(63.476562 0)"/>
    </g>
   </g>
   <g id="text_23">
    <!-- FFC -->
    <g style="fill: #475569" transform="translate(335.880822 13.27875) scale(0.08 -0.08)">
     <use xlink:href="#DejaVuSans-46"/>
     <use xlink:href="#DejaVuSans-46" transform="translate(57.519531 0)"/>
     <use xlink:href="#DejaVuSans-43" transform="translate(115.039062 0)"/>
    </g>
   </g>
   <g id="text_24">
    <!-- SS -->
    <g style="fill: #475569" transform="translate(421.618174 13.27875) scale(0.08 -0.08)">
     <use xlink:href="#DejaVuSans-53"/>
     <use xlink:href="#DejaVuSans-53" transform="translate(63.476562 0)"/>
    </g>
   </g>
   <g id="text_25">
    <!-- OC -->
    <g style="fill: #475569" transform="translate(490.648929 13.27875) scale(0.08 -0.08)">
     <use xlink:href="#DejaVuSans-4f"/>
     <use xlink:href="#DejaVuSans-43" transform="translate(78.710938 0)"/>
    </g>
   </g>
   <g id="text_26">
    <!-- FCS -->
    <g style="fill: #475569" transform="translate(511.504092 13.27875) scale(0.08 -0.08)">
     <use xlink:href="#DejaVuSans-46"/>
     <use xlink:href="#DejaVuSans-43" transform="translate(57.519531 0)"/>
     <use xlink:href="#DejaVuSans-53" transform="translate(127.34375 0)"/>
    </g>
   </g>
   <g id="text_27">
    <!-- SR -->
    <g style="fill: #475569" transform="translate(547.638087 13.27875) scale(0.08 -0.08)">
     <use xlink:href="#DejaVuSans-53"/>
     <use xlink:href="#DejaVuSans-52" transform="translate(63.476562 0)"/>
    </g>
   </g>
   <g id="text_28">
    <!-- FFC -->
    <g style="fill: #475569" transform="translate(590.655287 13.27875) scale(0.08 -0.08)">
     <use xlink:href="#DejaVuSans-46"/>
     <use xlink:href="#DejaVuSans-46" transform="translate(57.519531 0)"/>
     <use xlink:href="#DejaVuSans-43" transform="translate(115.039062 0)"/>
    </g>
   </g>
   <g id="text_29">
    <!-- SS -->
    <g style="fill: #475569" transform="translate(674.137999 13.27875) scale(0.08 -0.08)">
     <use xlink:href="#DejaVuSans-53"/>
     <use xlink:href="#DejaVuSans-53" transform="translate(63.476562 0)"/>
    </g>
   </g>
   <g id="text_30">
    <!-- OC -->
    <g style="fill: #475569" transform="translate(743.168754 13.27875) scale(0.08 -0.08)">
     <use xlink:href="#DejaVuSans-4f"/>
     <use xlink:href="#DejaVuSans-43" transform="translate(78.710938 0)"/>
    </g>
   </g>
   <g id="text_31">
    <!-- FCS -->
    <g style="fill: #475569" transform="translate(766.278558 13.27875) scale(0.08 -0.08)">
     <use xlink:href="#DejaVuSans-46"/>
     <use xlink:href="#DejaVuSans-43" transform="translate(57.519531 0)"/>
     <use xlink:href="#DejaVuSans-53" transform="translate(127.34375 0)"/>
    </g>
   </g>
   <g id="text_32">
    <!-- SR -->
    <g style="fill: #475569" transform="translate(802.412552 13.27875) scale(0.08 -0.08)">
     <use xlink:href="#DejaVuSans-53"/>
     <use xlink:href="#DejaVuSans-52" transform="translate(63.476562 0)"/>
    </g>
   </g>
   <g id="text_33">
    <!-- FFC -->
    <g style="fill: #475569" transform="translate(843.175112 13.27875) scale(0.08 -0.08)">
     <use xlink:href="#DejaVuSans-46"/>
     <use xlink:href="#DejaVuSans-46" transform="translate(57.519531 0)"/>
     <use xlink:href="#DejaVuSans-43" transform="translate(115.039062 0)"/>
    </g>
   </g>
   <g id="text_34">
    <!-- SS -->
    <g style="fill: #475569" transform="translate(888.328921 13.27875) scale(0.08 -0.08)">
     <use xlink:href="#DejaVuSans-53"/>
     <use xlink:href="#DejaVuSans-53" transform="translate(63.476562 0)"/>
    </g>
   </g>
   <g id="legend_1">
    <g id="line2d_34">
     <path d="M 815.429688 27.540183 
L 823.429688 27.540183 
L 831.429688 27.540183 
" style="fill: none; stroke: #ea580c; stroke-opacity: 0.95; stroke-width: 1.3; stroke-linecap: square"/>
    </g>
    <g id="text_35">
     <!-- Empatica temperature -->
     <g transform="translate(837.829687 30.340183) scale(0.08 -0.08)">
      <defs>
       <path id="DejaVuSans-45" d="M 628 4666 
L 3578 4666 
L 3578 4134 
L 1259 4134 
L 1259 2753 
L 3481 2753 
L 3481 2222 
L 1259 2222 
L 1259 531 
L 3634 531 
L 3634 0 
L 628 0 
L 628 4666 
z
" transform="scale(0.015625)"/>
      </defs>
      <use xlink:href="#DejaVuSans-45"/>
      <use xlink:href="#DejaVuSans-6d" transform="translate(63.183594 0)"/>
      <use xlink:href="#DejaVuSans-70" transform="translate(160.595703 0)"/>
      <use xlink:href="#DejaVuSans-61" transform="translate(224.072266 0)"/>
      <use xlink:href="#DejaVuSans-74" transform="translate(285.351562 0)"/>
      <use xlink:href="#DejaVuSans-69" transform="translate(324.560547 0)"/>
      <use xlink:href="#DejaVuSans-63" transform="translate(352.34375 0)"/>
      <use xlink:href="#DejaVuSans-61" transform="translate(407.324219 0)"/>
      <use xlink:href="#DejaVuSans-20" transform="translate(468.603516 0)"/>
      <use xlink:href="#DejaVuSans-74" transform="translate(500.390625 0)"/>
      <use xlink:href="#DejaVuSans-65" transform="translate(539.599609 0)"/>
      <use xlink:href="#DejaVuSans-6d" transform="translate(601.123047 0)"/>
      <use xlink:href="#DejaVuSans-70" transform="translate(698.535156 0)"/>
      <use xlink:href="#DejaVuSans-65" transform="translate(762.011719 0)"/>
      <use xlink:href="#DejaVuSans-72" transform="translate(823.535156 0)"/>
      <use xlink:href="#DejaVuSans-61" transform="translate(864.648438 0)"/>
      <use xlink:href="#DejaVuSans-74" transform="translate(925.927734 0)"/>
      <use xlink:href="#DejaVuSans-75" transform="translate(965.136719 0)"/>
      <use xlink:href="#DejaVuSans-72" transform="translate(1028.515625 0)"/>
      <use xlink:href="#DejaVuSans-65" transform="translate(1067.378906 0)"/>
     </g>
    </g>
   </g>
  </g>
 </g>
 <defs>
  <clipPath id="pb78f18e5c7">
   <rect x="47.917188" y="17.061433" width="887.425" height="211.89328"/>
  </clipPath>
 </defs>
</svg>
