<?xml version="1.0" encoding="utf-8" standalone="no"?>
<!DOCTYPE svg PUBLIC "-//W3C//DTD SVG 1.1//EN"
  "http://www.w3.org/Graphics/SVG/1.1/DTD/svg11.dtd">
<svg xmlns:xlink="http://www.w3.org/1999/xlink" width="942.553437pt" height="265.54315pt" viewBox="0 0 942.553437 265.54315" xmlns="http://www.w3.org/2000/svg" version="1.1">
 <metadata>
  <rdf:RDF xmlns:dc="http://purl.org/dc/elements/1.1/" xmlns:cc="http://creativecommons.org/ns#" xmlns:rdf="http://www.w3.org/1999/02/22-rdf-syntax-ns#">
   <cc:Work>
    <dc:type rdf:resource="http://purl.org/dc/dcmitype/StillImage"/>
    <dc:date>2026-04-17T13:13:55.078170</dc:date>
    <dc:format>image/svg+xml</dc:format>
    <dc:creator>
     <cc:Agent>
      <dc:title>Matplotlib v3.10.8, https://matplotlib.org/</dc:title>
     </cc:Agent>
    </dc:creator>
   </cc:Work>
  </rdf:RDF>
 </metadata>
 <defs>
  <style type="text/css">*{stroke-linejoin: round; stroke-linecap: butt}</style>
 </defs>
 <g id="figure_1">
  <g id="patch_1">
   <path d="M 0 265.54315 
L 942.553437 265.54315 
L 942.553437 0 
L 0 0 
z
" style="fill: #ffffff"/>
  </g>
  <g id="axes_1">
   <g id="patch_2">
    <path d="M 42.190938 228.954713 
L 935.353437 228.954713 
L 935.353437 17.061433 
L 42.190938 17.061433 
z
" style="fill: #ffffff"/>
   </g>
   <g id="patch_3">
    <path d="M 42.190938 228.954713 
L 59.367139 228.954713 
L 59.367139 17.061433 
L 42.190938 17.061433 
z
" clip-path="url(#p053a80f5f4)" style="fill: #f8fafc; opacity: 0.45"/>
   </g>
   <g id="patch_4">
    <path d="M 59.367139 228.954713 
L 93.267538 228.954713 
L 93.267538 17.061433 
L 59.367139 17.061433 
z
" clip-path="url(#p053a80f5f4)" style="fill: #eff6ff; opacity: 0.45"/>
   </g>
   <g id="patch_5">
    <path d="M 93.267538 228.954713 
L 121.51787 228.954713 
L 121.51787 17.061433 
L 93.267538 17.061433 
z
" clip-path="url(#p053a80f5f4)" style="fill: #fef3c7; opacity: 0.45"/>
   </g>
   <g id="patch_6">
    <path d="M 121.51787 228.954713 
L 178.018534 228.954713 
L 178.018534 17.061433 
L 121.51787 17.061433 
z
" clip-path="url(#p053a80f5f4)" style="fill: #dcfce7; opacity: 0.45"/>
   </g>
   <g id="patch_7">
    <path d="M 178.018534 228.954713 
L 228.869132 228.954713 
L 228.869132 17.061433 
L 178.018534 17.061433 
z
" clip-path="url(#p053a80f5f4)" style="fill: #fee2e2; opacity: 0.45"/>
   </g>
   <g id="patch_8">
    <path d="M 228.869132 228.954713 
L 234.519199 228.954713 
L 234.519199 17.061433 
L 228.869132 17.061433 
z
" clip-path="url(#p053a80f5f4)" style="fill: #ede9fe; opacity: 0.45"/>
   </g>
   <g id="patch_9">
    <path d="M 234.519199 228.954713 
L 381.420925 228.954713 
L 381.420925 17.061433 
L 234.519199 17.061433 
z
" clip-path="url(#p053a80f5f4)" style="fill: #f8fafc; opacity: 0.45"/>
   </g>
   <g id="patch_10">
    <path d="M 381.420925 228.954713 
L 409.671258 228.954713 
L 409.671258 17.061433 
L 381.420925 17.061433 
z
" clip-path="url(#p053a80f5f4)" style="fill: #eff6ff; opacity: 0.45"/>
   </g>
   <g id="patch_11">
    <path d="M 409.671258 228.954713 
L 437.92159 228.954713 
L 437.92159 17.061433 
L 409.671258 17.061433 
z
" clip-path="url(#p053a80f5f4)" style="fill: #fef3c7; opacity: 0.45"/>
   </g>
   <g id="patch_12">
    <path d="M 437.92159 228.954713 
L 494.422254 228.954713 
L 494.422254 17.061433 
L 437.92159 17.061433 
z
" clip-path="url(#p053a80f5f4)" style="fill: #dcfce7; opacity: 0.45"/>
   </g>
   <g id="patch_13">
    <path d="M 494.422254 228.954713 
L 550.922918 228.954713 
L 550.922918 17.061433 
L 494.422254 17.061433 
z
" clip-path="url(#p053a80f5f4)" style="fill: #fee2e2; opacity: 0.45"/>
   </g>
   <g id="patch_14">
    <path d="M 550.922918 228.954713 
L 697.824645 228.954713 
L 697.824645 17.061433 
L 550.922918 17.061433 
z
" clip-path="url(#p053a80f5f4)" style="fill: #ede9fe; opacity: 0.45"/>
   </g>
   <g id="patch_15">
    <path d="M 697.824645 228.954713 
L 726.074977 228.954713 
L 726.074977 17.061433 
L 697.824645 17.061433 
z
" clip-path="url(#p053a80f5f4)" style="fill: #f8fafc; opacity: 0.45"/>
   </g>
   <g id="patch_16">
    <path d="M 726.074977 228.954713 
L 759.975376 228.954713 
L 759.975376 17.061433 
L 726.074977 17.061433 
z
" clip-path="url(#p053a80f5f4)" style="fill: #eff6ff; opacity: 0.45"/>
   </g>
   <g id="patch_17">
    <path d="M 759.975376 228.954713 
L 810.825974 228.954713 
L 810.825974 17.061433 
L 759.975376 17.061433 
z
" clip-path="url(#p053a80f5f4)" style="fill: #fef3c7; opacity: 0.45"/>
   </g>
   <g id="patch_18">
    <path d="M 810.825974 228.954713 
L 867.326638 228.954713 
L 867.326638 17.061433 
L 810.825974 17.061433 
z
" clip-path="url(#p053a80f5f4)" style="fill: #dcfce7; opacity: 0.45"/>
   </g>
   <g id="patch_19">
    <path d="M 867.326638 228.954713 
L 918.177236 228.954713 
L 918.177236 17.061433 
L 867.326638 17.061433 
z
" clip-path="url(#p053a80f5f4)" style="fill: #fee2e2; opacity: 0.45"/>
   </g>
   <g id="patch_20">
    <path d="M 918.177236 228.954713 
L 923.827302 228.954713 
L 923.827302 17.061433 
L 918.177236 17.061433 
z
" clip-path="url(#p053a80f5f4)" style="fill: #ede9fe; opacity: 0.45"/>
   </g>
   <g id="matplotlib.axis_1">
    <g id="xtick_1">
     <g id="line2d_1">
      <path d="M 59.367139 228.954713 
L 59.367139 17.061433 
" clip-path="url(#p053a80f5f4)" style="fill: none; stroke: #eef2f7; stroke-width: 0.55; stroke-linecap: square"/>
     </g>
     <g id="line2d_2">
      <defs>
       <path id="m43e6ce950d" d="M 0 0 
L 0 3.5 
" style="stroke: #000000; stroke-width: 0.8"/>
      </defs>
      <g>
       <use xlink:href="#m43e6ce950d" x="59.367139" y="228.954713" style="stroke: #000000; stroke-width: 0.8"/>
      </g>
     </g>
     <g id="text_1">
      <!-- 40 -->
      <g transform="translate(53.640889 242.793307) scale(0.09 -0.09)">
       <defs>
        <path id="DejaVuSans-34" d="M 2419 4116 
L 825 1625 
L 2419 1625 
L 2419 4116 
z
M 2253 4666 
L 3047 4666 
L 3047 1625 
L 3713 1625 
L 3713 1100 
L 3047 1100 
L 3047 0 
L 2419 0 
L 2419 1100 
L 313 1100 
L 313 1709 
L 2253 4666 
z
" transform="scale(0.015625)"/>
        <path id="DejaVuSans-30" d="M 2034 4250 
Q 1547 4250 1301 3770 
Q 1056 3291 1056 2328 
Q 1056 1369 1301 889 
Q 1547 409 2034 409 
Q 2525 409 2770 889 
Q 3016 1369 3016 2328 
Q 3016 3291 2770 3770 
Q 2525 4250 2034 4250 
z
M 2034 4750 
Q 2819 4750 3233 4129 
Q 3647 3509 3647 2328 
Q 3647 1150 3233 529 
Q 2819 -91 2034 -91 
Q 1250 -91 836 529 
Q 422 1150 422 2328 
Q 422 3509 836 4129 
Q 1250 4750 2034 4750 
z
" transform="scale(0.015625)"/>
       </defs>
       <use xlink:href="#DejaVuSans-34"/>
       <use xlink:href="#DejaVuSans-30" transform="translate(63.623047 0)"/>
      </g>
     </g>
    </g>
    <g id="xtick_2">
     <g id="line2d_3">
      <path d="M 172.368468 228.954713 
L 172.368468 17.061433 
" clip-path="url(#p053a80f5f4)" style="fill: none; stroke: #eef2f7; stroke-width: 0.55; stroke-linecap: square"/>
     </g>
     <g id="line2d_4">
      <g>
       <use xlink:href="#m43e6ce950d" x="172.368468" y="228.954713" style="stroke: #000000; stroke-width: 0.8"/>
      </g>
     </g>
     <g id="text_2">
      <!-- 60 -->
      <g transform="translate(166.642218 242.793307) scale(0.09 -0.09)">
       <defs>
        <path id="DejaVuSans-36" d="M 2113 2584 
Q 1688 2584 1439 2293 
Q 1191 2003 1191 1497 
Q 1191 994 1439 701 
Q 1688 409 2113 409 
Q 2538 409 2786 701 
Q 3034 994 3034 1497 
Q 3034 2003 2786 2293 
Q 2538 2584 2113 2584 
z
M 3366 4563 
L 3366 3988 
Q 3128 4100 2886 4159 
Q 2644 4219 2406 4219 
Q 1781 4219 1451 3797 
Q 1122 3375 1075 2522 
Q 1259 2794 1537 2939 
Q 1816 3084 2150 3084 
Q 2853 3084 3261 2657 
Q 3669 2231 3669 1497 
Q 3669 778 3244 343 
Q 2819 -91 2113 -91 
Q 1303 -91 875 529 
Q 447 1150 447 2328 
Q 447 3434 972 4092 
Q 1497 4750 2381 4750 
Q 2619 4750 2861 4703 
Q 3103 4656 3366 4563 
z
" transform="scale(0.015625)"/>
       </defs>
       <use xlink:href="#DejaVuSans-36"/>
       <use xlink:href="#DejaVuSans-30" transform="translate(63.623047 0)"/>
      </g>
     </g>
    </g>
    <g id="xtick_3">
     <g id="line2d_5">
      <path d="M 285.369796 228.954713 
L 285.369796 17.061433 
" clip-path="url(#p053a80f5f4)" style="fill: none; stroke: #eef2f7; stroke-width: 0.55; stroke-linecap: square"/>
     </g>
     <g id="line2d_6">
      <g>
       <use xlink:href="#m43e6ce950d" x="285.369796" y="228.954713" style="stroke: #000000; stroke-width: 0.8"/>
      </g>
     </g>
     <g id="text_3">
      <!-- 80 -->
      <g transform="translate(279.643546 242.793307) scale(0.09 -0.09)">
       <defs>
        <path id="DejaVuSans-38" d="M 2034 2216 
Q 1584 2216 1326 1975 
Q 1069 1734 1069 1313 
Q 1069 891 1326 650 
Q 1584 409 2034 409 
Q 2484 409 2743 651 
Q 3003 894 3003 1313 
Q 3003 1734 2745 1975 
Q 2488 2216 2034 2216 
z
M 1403 2484 
Q 997 2584 770 2862 
Q 544 3141 544 3541 
Q 544 4100 942 4425 
Q 1341 4750 2034 4750 
Q 2731 4750 3128 4425 
Q 3525 4100 3525 3541 
Q 3525 3141 3298 2862 
Q 3072 2584 2669 2484 
Q 3125 2378 3379 2068 
Q 3634 1759 3634 1313 
Q 3634 634 3220 271 
Q 2806 -91 2034 -91 
Q 1263 -91 848 271 
Q 434 634 434 1313 
Q 434 1759 690 2068 
Q 947 2378 1403 2484 
z
M 1172 3481 
Q 1172 3119 1398 2916 
Q 1625 2713 2034 2713 
Q 2441 2713 2670 2916 
Q 2900 3119 2900 3481 
Q 2900 3844 2670 4047 
Q 2441 4250 2034 4250 
Q 1625 4250 1398 4047 
Q 1172 3844 1172 3481 
z
" transform="scale(0.015625)"/>
       </defs>
       <use xlink:href="#DejaVuSans-38"/>
       <use xlink:href="#DejaVuSans-30" transform="translate(63.623047 0)"/>
      </g>
     </g>
    </g>
    <g id="xtick_4">
     <g id="line2d_7">
      <path d="M 398.371125 228.954713 
L 398.371125 17.061433 
" clip-path="url(#p053a80f5f4)" style="fill: none; stroke: #eef2f7; stroke-width: 0.55; stroke-linecap: square"/>
     </g>
     <g id="line2d_8">
      <g>
       <use xlink:href="#m43e6ce950d" x="398.371125" y="228.954713" style="stroke: #000000; stroke-width: 0.8"/>
      </g>
     </g>
     <g id="text_4">
      <!-- 100 -->
      <g transform="translate(389.78175 242.793307) scale(0.09 -0.09)">
       <defs>
        <path id="DejaVuSans-31" d="M 794 531 
L 1825 531 
L 1825 4091 
L 703 3866 
L 703 4441 
L 1819 4666 
L 2450 4666 
L 2450 531 
L 3481 531 
L 3481 0 
L 794 0 
L 794 531 
z
" transform="scale(0.015625)"/>
       </defs>
       <use xlink:href="#DejaVuSans-31"/>
       <use xlink:href="#DejaVuSans-30" transform="translate(63.623047 0)"/>
       <use xlink:href="#DejaVuSans-30" transform="translate(127.246094 0)"/>
      </g>
     </g>
    </g>
    <g id="xtick_5">
     <g id="line2d_9">
      <path d="M 511.372453 228.954713 
L 511.372453 17.061433 
" clip-path="url(#p053a80f5f4)" style="fill: none; stroke: #eef2f7; stroke-width: 0.55; stroke-linecap: square"/>
     </g>
     <g id="line2d_10">
      <g>
       <use xlink:href="#m43e6ce950d" x="511.372453" y="228.954713" style="stroke: #000000; stroke-width: 0.8"/>
      </g>
     </g>
     <g id="text_5">
      <!-- 120 -->
      <g transform="translate(502.783078 242.793307) scale(0.09 -0.09)">
       <defs>
        <path id="DejaVuSans-32" d="M 1228 531 
L 3431 531 
L 3431 0 
L 469 0 
L 469 531 
Q 828 903 1448 1529 
Q 2069 2156 2228 2338 
Q 2531 2678 2651 2914 
Q 2772 3150 2772 3378 
Q 2772 3750 2511 3984 
Q 2250 4219 1831 4219 
Q 1534 4219 1204 4116 
Q 875 4013 500 3803 
L 500 4441 
Q 881 4594 1212 4672 
Q 1544 4750 1819 4750 
Q 2544 4750 2975 4387 
Q 3406 4025 3406 3419 
Q 3406 3131 3298 2873 
Q 3191 2616 2906 2266 
Q 2828 2175 2409 1742 
Q 1991 1309 1228 531 
z
" transform="scale(0.015625)"/>
       </defs>
       <use xlink:href="#DejaVuSans-31"/>
       <use xlink:href="#DejaVuSans-32" transform="translate(63.623047 0)"/>
       <use xlink:href="#DejaVuSans-30" transform="translate(127.246094 0)"/>
      </g>
     </g>
    </g>
    <g id="xtick_6">
     <g id="line2d_11">
      <path d="M 624.373782 228.954713 
L 624.373782 17.061433 
" clip-path="url(#p053a80f5f4)" style="fill: none; stroke: #eef2f7; stroke-width: 0.55; stroke-linecap: square"/>
     </g>
     <g id="line2d_12">
      <g>
       <use xlink:href="#m43e6ce950d" x="624.373782" y="228.954713" style="stroke: #000000; stroke-width: 0.8"/>
      </g>
     </g>
     <g id="text_6">
      <!-- 140 -->
      <g transform="translate(615.784407 242.793307) scale(0.09 -0.09)">
       <use xlink:href="#DejaVuSans-31"/>
       <use xlink:href="#DejaVuSans-34" transform="translate(63.623047 0)"/>
       <use xlink:href="#DejaVuSans-30" transform="translate(127.246094 0)"/>
      </g>
     </g>
    </g>
    <g id="xtick_7">
     <g id="line2d_13">
      <path d="M 737.37511 228.954713 
L 737.37511 17.061433 
" clip-path="url(#p053a80f5f4)" style="fill: none; stroke: #eef2f7; stroke-width: 0.55; stroke-linecap: square"/>
     </g>
     <g id="line2d_14">
      <g>
       <use xlink:href="#m43e6ce950d" x="737.37511" y="228.954713" style="stroke: #000000; stroke-width: 0.8"/>
      </g>
     </g>
     <g id="text_7">
      <!-- 160 -->
      <g transform="translate(728.785735 242.793307) scale(0.09 -0.09)">
       <use xlink:href="#DejaVuSans-31"/>
       <use xlink:href="#DejaVuSans-36" transform="translate(63.623047 0)"/>
       <use xlink:href="#DejaVuSans-30" transform="translate(127.246094 0)"/>
      </g>
     </g>
    </g>
    <g id="xtick_8">
     <g id="line2d_15">
      <path d="M 850.376439 228.954713 
L 850.376439 17.061433 
" clip-path="url(#p053a80f5f4)" style="fill: none; stroke: #eef2f7; stroke-width: 0.55; stroke-linecap: square"/>
     </g>
     <g id="line2d_16">
      <g>
       <use xlink:href="#m43e6ce950d" x="850.376439" y="228.954713" style="stroke: #000000; stroke-width: 0.8"/>
      </g>
     </g>
     <g id="text_8">
      <!-- 180 -->
      <g transform="translate(841.787064 242.793307) scale(0.09 -0.09)">
       <use xlink:href="#DejaVuSans-31"/>
       <use xlink:href="#DejaVuSans-38" transform="translate(63.623047 0)"/>
       <use xlink:href="#DejaVuSans-30" transform="translate(127.246094 0)"/>
      </g>
     </g>
    </g>
    <g id="text_9">
     <!-- Minutes since session start -->
     <g transform="translate(421.182344 256.263463) scale(0.1 -0.1)">
      <defs>
       <path id="DejaVuSans-4d" d="M 628 4666 
L 1569 4666 
L 2759 1491 
L 3956 4666 
L 4897 4666 
L 4897 0 
L 4281 0 
L 4281 4097 
L 3078 897 
L 2444 897 
L 1241 4097 
L 1241 0 
L 628 0 
L 628 4666 
z
" transform="scale(0.015625)"/>
       <path id="DejaVuSans-69" d="M 603 3500 
L 1178 3500 
L 1178 0 
L 603 0 
L 603 3500 
z
M 603 4863 
L 1178 4863 
L 1178 4134 
L 603 4134 
L 603 4863 
z
" transform="scale(0.015625)"/>
       <path id="DejaVuSans-6e" d="M 3513 2113 
L 3513 0 
L 2938 0 
L 2938 2094 
Q 2938 2591 2744 2837 
Q 2550 3084 2163 3084 
Q 1697 3084 1428 2787 
Q 1159 2491 1159 1978 
L 1159 0 
L 581 0 
L 581 3500 
L 1159 3500 
L 1159 2956 
Q 1366 3272 1645 3428 
Q 1925 3584 2291 3584 
Q 2894 3584 3203 3211 
Q 3513 2838 3513 2113 
z
" transform="scale(0.015625)"/>
       <path id="DejaVuSans-75" d="M 544 1381 
L 544 3500 
L 1119 3500 
L 1119 1403 
Q 1119 906 1312 657 
Q 1506 409 1894 409 
Q 2359 409 2629 706 
Q 2900 1003 2900 1516 
L 2900 3500 
L 3475 3500 
L 3475 0 
L 2900 0 
L 2900 538 
Q 2691 219 2414 64 
Q 2138 -91 1772 -91 
Q 1169 -91 856 284 
Q 544 659 544 1381 
z
M 1991 3584 
L 1991 3584 
z
" transform="scale(0.015625)"/>
       <path id="DejaVuSans-74" d="M 1172 4494 
L 1172 3500 
L 2356 3500 
L 2356 3053 
L 1172 3053 
L 1172 1153 
Q 1172 725 1289 603 
Q 1406 481 1766 481 
L 2356 481 
L 2356 0 
L 1766 0 
Q 1100 0 847 248 
Q 594 497 594 1153 
L 594 3053 
L 172 3053 
L 172 3500 
L 594 3500 
L 594 4494 
L 1172 4494 
z
" transform="scale(0.015625)"/>
       <path id="DejaVuSans-65" d="M 3597 1894 
L 3597 1613 
L 953 1613 
Q 991 1019 1311 708 
Q 1631 397 2203 397 
Q 2534 397 2845 478 
Q 3156 559 3463 722 
L 3463 178 
Q 3153 47 2828 -22 
Q 2503 -91 2169 -91 
Q 1331 -91 842 396 
Q 353 884 353 1716 
Q 353 2575 817 3079 
Q 1281 3584 2069 3584 
Q 2775 3584 3186 3129 
Q 3597 2675 3597 1894 
z
M 3022 2063 
Q 3016 2534 2758 2815 
Q 2500 3097 2075 3097 
Q 1594 3097 1305 2825 
Q 1016 2553 972 2059 
L 3022 2063 
z
" transform="scale(0.015625)"/>
       <path id="DejaVuSans-73" d="M 2834 3397 
L 2834 2853 
Q 2591 2978 2328 3040 
Q 2066 3103 1784 3103 
Q 1356 3103 1142 2972 
Q 928 2841 928 2578 
Q 928 2378 1081 2264 
Q 1234 2150 1697 2047 
L 1894 2003 
Q 2506 1872 2764 1633 
Q 3022 1394 3022 966 
Q 3022 478 2636 193 
Q 2250 -91 1575 -91 
Q 1294 -91 989 -36 
Q 684 19 347 128 
L 347 722 
Q 666 556 975 473 
Q 1284 391 1588 391 
Q 1994 391 2212 530 
Q 2431 669 2431 922 
Q 2431 1156 2273 1281 
Q 2116 1406 1581 1522 
L 1381 1569 
Q 847 1681 609 1914 
Q 372 2147 372 2553 
Q 372 3047 722 3315 
Q 1072 3584 1716 3584 
Q 2034 3584 2315 3537 
Q 2597 3491 2834 3397 
z
" transform="scale(0.015625)"/>
       <path id="DejaVuSans-20" transform="scale(0.015625)"/>
       <path id="DejaVuSans-63" d="M 3122 3366 
L 3122 2828 
Q 2878 2963 2633 3030 
Q 2388 3097 2138 3097 
Q 1578 3097 1268 2742 
Q 959 2388 959 1747 
Q 959 1106 1268 751 
Q 1578 397 2138 397 
Q 2388 397 2633 464 
Q 2878 531 3122 666 
L 3122 134 
Q 2881 22 2623 -34 
Q 2366 -91 2075 -91 
Q 1284 -91 818 406 
Q 353 903 353 1747 
Q 353 2603 823 3093 
Q 1294 3584 2113 3584 
Q 2378 3584 2631 3529 
Q 2884 3475 3122 3366 
z
" transform="scale(0.015625)"/>
       <path id="DejaVuSans-6f" d="M 1959 3097 
Q 1497 3097 1228 2736 
Q 959 2375 959 1747 
Q 959 1119 1226 758 
Q 1494 397 1959 397 
Q 2419 397 2687 759 
Q 2956 1122 2956 1747 
Q 2956 2369 2687 2733 
Q 2419 3097 1959 3097 
z
M 1959 3584 
Q 2709 3584 3137 3096 
Q 3566 2609 3566 1747 
Q 3566 888 3137 398 
Q 2709 -91 1959 -91 
Q 1206 -91 779 398 
Q 353 888 353 1747 
Q 353 2609 779 3096 
Q 1206 3584 1959 3584 
z
" transform="scale(0.015625)"/>
       <path id="DejaVuSans-61" d="M 2194 1759 
Q 1497 1759 1228 1600 
Q 959 1441 959 1056 
Q 959 750 1161 570 
Q 1363 391 1709 391 
Q 2188 391 2477 730 
Q 2766 1069 2766 1631 
L 2766 1759 
L 2194 1759 
z
M 3341 1997 
L 3341 0 
L 2766 0 
L 2766 531 
Q 2569 213 2275 61 
Q 1981 -91 1556 -91 
Q 1019 -91 701 211 
Q 384 513 384 1019 
Q 384 1609 779 1909 
Q 1175 2209 1959 2209 
L 2766 2209 
L 2766 2266 
Q 2766 2663 2505 2880 
Q 2244 3097 1772 3097 
Q 1472 3097 1187 3025 
Q 903 2953 641 2809 
L 641 3341 
Q 956 3463 1253 3523 
Q 1550 3584 1831 3584 
Q 2591 3584 2966 3190 
Q 3341 2797 3341 1997 
z
" transform="scale(0.015625)"/>
       <path id="DejaVuSans-72" d="M 2631 2963 
Q 2534 3019 2420 3045 
Q 2306 3072 2169 3072 
Q 1681 3072 1420 2755 
Q 1159 2438 1159 1844 
L 1159 0 
L 581 0 
L 581 3500 
L 1159 3500 
L 1159 2956 
Q 1341 3275 1631 3429 
Q 1922 3584 2338 3584 
Q 2397 3584 2469 3576 
Q 2541 3569 2628 3553 
L 2631 2963 
z
" transform="scale(0.015625)"/>
      </defs>
      <use xlink:href="#DejaVuSans-4d"/>
      <use xlink:href="#DejaVuSans-69" transform="translate(86.279297 0)"/>
      <use xlink:href="#DejaVuSans-6e" transform="translate(114.0625 0)"/>
      <use xlink:href="#DejaVuSans-75" transform="translate(177.441406 0)"/>
      <use xlink:href="#DejaVuSans-74" transform="translate(240.820312 0)"/>
      <use xlink:href="#DejaVuSans-65" transform="translate(280.029297 0)"/>
      <use xlink:href="#DejaVuSans-73" transform="translate(341.552734 0)"/>
      <use xlink:href="#DejaVuSans-20" transform="translate(393.652344 0)"/>
      <use xlink:href="#DejaVuSans-73" transform="translate(425.439453 0)"/>
      <use xlink:href="#DejaVuSans-69" transform="translate(477.539062 0)"/>
      <use xlink:href="#DejaVuSans-6e" transform="translate(505.322266 0)"/>
      <use xlink:href="#DejaVuSans-63" transform="translate(568.701172 0)"/>
      <use xlink:href="#DejaVuSans-65" transform="translate(623.681641 0)"/>
      <use xlink:href="#DejaVuSans-20" transform="translate(685.205078 0)"/>
      <use xlink:href="#DejaVuSans-73" transform="translate(716.992188 0)"/>
      <use xlink:href="#DejaVuSans-65" transform="translate(769.091797 0)"/>
      <use xlink:href="#DejaVuSans-73" transform="translate(830.615234 0)"/>
      <use xlink:href="#DejaVuSans-73" transform="translate(882.714844 0)"/>
      <use xlink:href="#DejaVuSans-69" transform="translate(934.814453 0)"/>
      <use xlink:href="#DejaVuSans-6f" transform="translate(962.597656 0)"/>
      <use xlink:href="#DejaVuSans-6e" transform="translate(1023.779297 0)"/>
      <use xlink:href="#DejaVuSans-20" transform="translate(1087.158203 0)"/>
      <use xlink:href="#DejaVuSans-73" transform="translate(1118.945312 0)"/>
      <use xlink:href="#DejaVuSans-74" transform="translate(1171.044922 0)"/>
      <use xlink:href="#DejaVuSans-61" transform="translate(1210.253906 0)"/>
      <use xlink:href="#DejaVuSans-72" transform="translate(1271.533203 0)"/>
      <use xlink:href="#DejaVuSans-74" transform="translate(1312.646484 0)"/>
     </g>
    </g>
   </g>
   <g id="matplotlib.axis_2">
    <g id="ytick_1">
     <g id="line2d_17">
      <path d="M 42.190938 219.3232 
L 935.353437 219.3232 
" clip-path="url(#p053a80f5f4)" style="fill: none; stroke: #eef2f7; stroke-opacity: 0.25; stroke-width: 0.55; stroke-linecap: square"/>
     </g>
     <g id="line2d_18">
      <defs>
       <path id="me43285fcb2" d="M 0 0 
L -3.5 0 
" style="stroke: #000000; stroke-width: 0.8"/>
      </defs>
      <g>
       <use xlink:href="#me43285fcb2" x="42.190938" y="219.3232" style="stroke: #000000; stroke-width: 0.8"/>
      </g>
     </g>
     <g id="text_10">
      <!-- 0.0 -->
      <g transform="translate(20.878125 222.742497) scale(0.09 -0.09)">
       <defs>
        <path id="DejaVuSans-2e" d="M 684 794 
L 1344 794 
L 1344 0 
L 684 0 
L 684 794 
z
" transform="scale(0.015625)"/>
       </defs>
       <use xlink:href="#DejaVuSans-30"/>
       <use xlink:href="#DejaVuSans-2e" transform="translate(63.623047 0)"/>
       <use xlink:href="#DejaVuSans-30" transform="translate(95.410156 0)"/>
      </g>
     </g>
    </g>
    <g id="ytick_2">
     <g id="line2d_19">
      <path d="M 42.190938 186.784306 
L 935.353437 186.784306 
" clip-path="url(#p053a80f5f4)" style="fill: none; stroke: #eef2f7; stroke-opacity: 0.25; stroke-width: 0.55; stroke-linecap: square"/>
     </g>
     <g id="line2d_20">
      <g>
       <use xlink:href="#me43285fcb2" x="42.190938" y="186.784306" style="stroke: #000000; stroke-width: 0.8"/>
      </g>
     </g>
     <g id="text_11">
      <!-- 0.1 -->
      <g transform="translate(20.878125 190.203603) scale(0.09 -0.09)">
       <use xlink:href="#DejaVuSans-30"/>
       <use xlink:href="#DejaVuSans-2e" transform="translate(63.623047 0)"/>
       <use xlink:href="#DejaVuSans-31" transform="translate(95.410156 0)"/>
      </g>
     </g>
    </g>
    <g id="ytick_3">
     <g id="line2d_21">
      <path d="M 42.190938 154.245411 
L 935.353437 154.245411 
" clip-path="url(#p053a80f5f4)" style="fill: none; stroke: #eef2f7; stroke-opacity: 0.25; stroke-width: 0.55; stroke-linecap: square"/>
     </g>
     <g id="line2d_22">
      <g>
       <use xlink:href="#me43285fcb2" x="42.190938" y="154.245411" style="stroke: #000000; stroke-width: 0.8"/>
      </g>
     </g>
     <g id="text_12">
      <!-- 0.2 -->
      <g transform="translate(20.878125 157.664708) scale(0.09 -0.09)">
       <use xlink:href="#DejaVuSans-30"/>
       <use xlink:href="#DejaVuSans-2e" transform="translate(63.623047 0)"/>
       <use xlink:href="#DejaVuSans-32" transform="translate(95.410156 0)"/>
      </g>
     </g>
    </g>
    <g id="ytick_4">
     <g id="line2d_23">
      <path d="M 42.190938 121.706517 
L 935.353437 121.706517 
" clip-path="url(#p053a80f5f4)" style="fill: none; stroke: #eef2f7; stroke-opacity: 0.25; stroke-width: 0.55; stroke-linecap: square"/>
     </g>
     <g id="line2d_24">
      <g>
       <use xlink:href="#me43285fcb2" x="42.190938" y="121.706517" style="stroke: #000000; stroke-width: 0.8"/>
      </g>
     </g>
     <g id="text_13">
      <!-- 0.3 -->
      <g transform="translate(20.878125 125.125814) scale(0.09 -0.09)">
       <defs>
        <path id="DejaVuSans-33" d="M 2597 2516 
Q 3050 2419 3304 2112 
Q 3559 1806 3559 1356 
Q 3559 666 3084 287 
Q 2609 -91 1734 -91 
Q 1441 -91 1130 -33 
Q 819 25 488 141 
L 488 750 
Q 750 597 1062 519 
Q 1375 441 1716 441 
Q 2309 441 2620 675 
Q 2931 909 2931 1356 
Q 2931 1769 2642 2001 
Q 2353 2234 1838 2234 
L 1294 2234 
L 1294 2753 
L 1863 2753 
Q 2328 2753 2575 2939 
Q 2822 3125 2822 3475 
Q 2822 3834 2567 4026 
Q 2313 4219 1838 4219 
Q 1578 4219 1281 4162 
Q 984 4106 628 3988 
L 628 4550 
Q 988 4650 1302 4700 
Q 1616 4750 1894 4750 
Q 2613 4750 3031 4423 
Q 3450 4097 3450 3541 
Q 3450 3153 3228 2886 
Q 3006 2619 2597 2516 
z
" transform="scale(0.015625)"/>
       </defs>
       <use xlink:href="#DejaVuSans-30"/>
       <use xlink:href="#DejaVuSans-2e" transform="translate(63.623047 0)"/>
       <use xlink:href="#DejaVuSans-33" transform="translate(95.410156 0)"/>
      </g>
     </g>
    </g>
    <g id="ytick_5">
     <g id="line2d_25">
      <path d="M 42.190938 89.167623 
L 935.353437 89.167623 
" clip-path="url(#p053a80f5f4)" style="fill: none; stroke: #eef2f7; stroke-opacity: 0.25; stroke-width: 0.55; stroke-linecap: square"/>
     </g>
     <g id="line2d_26">
      <g>
       <use xlink:href="#me43285fcb2" x="42.190938" y="89.167623" style="stroke: #000000; stroke-width: 0.8"/>
      </g>
     </g>
     <g id="text_14">
      <!-- 0.4 -->
      <g transform="translate(20.878125 92.58692) scale(0.09 -0.09)">
       <use xlink:href="#DejaVuSans-30"/>
       <use xlink:href="#DejaVuSans-2e" transform="translate(63.623047 0)"/>
       <use xlink:href="#DejaVuSans-34" transform="translate(95.410156 0)"/>
      </g>
     </g>
    </g>
    <g id="ytick_6">
     <g id="line2d_27">
      <path d="M 42.190938 56.628728 
L 935.353437 56.628728 
" clip-path="url(#p053a80f5f4)" style="fill: none; stroke: #eef2f7; stroke-opacity: 0.25; stroke-width: 0.55; stroke-linecap: square"/>
     </g>
     <g id="line2d_28">
      <g>
       <use xlink:href="#me43285fcb2" x="42.190938" y="56.628728" style="stroke: #000000; stroke-width: 0.8"/>
      </g>
     </g>
     <g id="text_15">
      <!-- 0.5 -->
      <g transform="translate(20.878125 60.048025) scale(0.09 -0.09)">
       <defs>
        <path id="DejaVuSans-35" d="M 691 4666 
L 3169 4666 
L 3169 4134 
L 1269 4134 
L 1269 2991 
Q 1406 3038 1543 3061 
Q 1681 3084 1819 3084 
Q 2600 3084 3056 2656 
Q 3513 2228 3513 1497 
Q 3513 744 3044 326 
Q 2575 -91 1722 -91 
Q 1428 -91 1123 -41 
Q 819 9 494 109 
L 494 744 
Q 775 591 1075 516 
Q 1375 441 1709 441 
Q 2250 441 2565 725 
Q 2881 1009 2881 1497 
Q 2881 1984 2565 2268 
Q 2250 2553 1709 2553 
Q 1456 2553 1204 2497 
Q 953 2441 691 2322 
L 691 4666 
z
" transform="scale(0.015625)"/>
       </defs>
       <use xlink:href="#DejaVuSans-30"/>
       <use xlink:href="#DejaVuSans-2e" transform="translate(63.623047 0)"/>
       <use xlink:href="#DejaVuSans-35" transform="translate(95.410156 0)"/>
      </g>
     </g>
    </g>
    <g id="ytick_7">
     <g id="line2d_29">
      <path d="M 42.190938 24.089834 
L 935.353437 24.089834 
" clip-path="url(#p053a80f5f4)" style="fill: none; stroke: #eef2f7; stroke-opacity: 0.25; stroke-width: 0.55; stroke-linecap: square"/>
     </g>
     <g id="line2d_30">
      <g>
       <use xlink:href="#me43285fcb2" x="42.190938" y="24.089834" style="stroke: #000000; stroke-width: 0.8"/>
      </g>
     </g>
     <g id="text_16">
      <!-- 0.6 -->
      <g transform="translate(20.878125 27.509131) scale(0.09 -0.09)">
       <use xlink:href="#DejaVuSans-30"/>
       <use xlink:href="#DejaVuSans-2e" transform="translate(63.623047 0)"/>
       <use xlink:href="#DejaVuSans-36" transform="translate(95.410156 0)"/>
      </g>
     </g>
    </g>
    <g id="text_17">
     <!-- Velocity (m/s) -->
     <g transform="translate(14.798438 157.273698) rotate(-90) scale(0.1 -0.1)">
      <defs>
       <path id="DejaVuSans-56" d="M 1831 0 
L 50 4666 
L 709 4666 
L 2188 738 
L 3669 4666 
L 4325 4666 
L 2547 0 
L 1831 0 
z
" transform="scale(0.015625)"/>
       <path id="DejaVuSans-6c" d="M 603 4863 
L 1178 4863 
L 1178 0 
L 603 0 
L 603 4863 
z
" transform="scale(0.015625)"/>
       <path id="DejaVuSans-79" d="M 2059 -325 
Q 1816 -950 1584 -1140 
Q 1353 -1331 966 -1331 
L 506 -1331 
L 506 -850 
L 844 -850 
Q 1081 -850 1212 -737 
Q 1344 -625 1503 -206 
L 1606 56 
L 191 3500 
L 800 3500 
L 1894 763 
L 2988 3500 
L 3597 3500 
L 2059 -325 
z
" transform="scale(0.015625)"/>
       <path id="DejaVuSans-28" d="M 1984 4856 
Q 1566 4138 1362 3434 
Q 1159 2731 1159 2009 
Q 1159 1288 1364 580 
Q 1569 -128 1984 -844 
L 1484 -844 
Q 1016 -109 783 600 
Q 550 1309 550 2009 
Q 550 2706 781 3412 
Q 1013 4119 1484 4856 
L 1984 4856 
z
" transform="scale(0.015625)"/>
       <path id="DejaVuSans-6d" d="M 3328 2828 
Q 3544 3216 3844 3400 
Q 4144 3584 4550 3584 
Q 5097 3584 5394 3201 
Q 5691 2819 5691 2113 
L 5691 0 
L 5113 0 
L 5113 2094 
Q 5113 2597 4934 2840 
Q 4756 3084 4391 3084 
Q 3944 3084 3684 2787 
Q 3425 2491 3425 1978 
L 3425 0 
L 2847 0 
L 2847 2094 
Q 2847 2600 2669 2842 
Q 2491 3084 2119 3084 
Q 1678 3084 1418 2786 
Q 1159 2488 1159 1978 
L 1159 0 
L 581 0 
L 581 3500 
L 1159 3500 
L 1159 2956 
Q 1356 3278 1631 3431 
Q 1906 3584 2284 3584 
Q 2666 3584 2933 3390 
Q 3200 3197 3328 2828 
z
" transform="scale(0.015625)"/>
       <path id="DejaVuSans-2f" d="M 1625 4666 
L 2156 4666 
L 531 -594 
L 0 -594 
L 1625 4666 
z
" transform="scale(0.015625)"/>
       <path id="DejaVuSans-29" d="M 513 4856 
L 1013 4856 
Q 1481 4119 1714 3412 
Q 1947 2706 1947 2009 
Q 1947 1309 1714 600 
Q 1481 -109 1013 -844 
L 513 -844 
Q 928 -128 1133 580 
Q 1338 1288 1338 2009 
Q 1338 2731 1133 3434 
Q 928 4138 513 4856 
z
" transform="scale(0.015625)"/>
      </defs>
      <use xlink:href="#DejaVuSans-56"/>
      <use xlink:href="#DejaVuSans-65" transform="translate(60.658203 0)"/>
      <use xlink:href="#DejaVuSans-6c" transform="translate(122.181641 0)"/>
      <use xlink:href="#DejaVuSans-6f" transform="translate(149.964844 0)"/>
      <use xlink:href="#DejaVuSans-63" transform="translate(211.146484 0)"/>
      <use xlink:href="#DejaVuSans-69" transform="translate(266.126953 0)"/>
      <use xlink:href="#DejaVuSans-74" transform="translate(293.910156 0)"/>
      <use xlink:href="#DejaVuSans-79" transform="translate(333.119141 0)"/>
      <use xlink:href="#DejaVuSans-20" transform="translate(392.298828 0)"/>
      <use xlink:href="#DejaVuSans-28" transform="translate(424.085938 0)"/>
      <use xlink:href="#DejaVuSans-6d" transform="translate(463.099609 0)"/>
      <use xlink:href="#DejaVuSans-2f" transform="translate(560.511719 0)"/>
      <use xlink:href="#DejaVuSans-73" transform="translate(594.203125 0)"/>
      <use xlink:href="#DejaVuSans-29" transform="translate(646.302734 0)"/>
     </g>
    </g>
   </g>
   <g id="line2d_31">
    <path d="M 59.367139 204.680698 
L 65.017206 197.84753 
L 70.667272 195.895196 
L 76.317339 202.728364 
L 81.967405 196.220585 
L 87.617472 194.919029 
L 93.267538 192.315918 
L 98.917604 201.752197 
L 104.567671 197.84753 
L 110.217737 198.823697 
L 115.867804 199.474475 
L 121.51787 198.172919 
L 127.167936 205.656864 
L 138.468069 214.116977 
L 144.118136 204.680698 
L 149.768202 205.331476 
L 155.418269 211.513865 
L 161.068335 204.680698 
L 166.718401 203.379142 
L 172.368468 212.164643 
L 178.018534 196.545974 
L 183.668601 198.172919 
L 189.318667 199.474475 
L 194.968734 198.823697 
L 200.6188 195.895196 
L 206.268866 197.84753 
L 211.918933 195.569807 
L 217.568999 207.609198 
L 223.219066 192.966696 
L 228.869132 199.799863 
L 234.519199 196.545974 
L 240.169265 203.379142 
L 245.819331 218.347033 
L 251.469398 206.95842 
L 257.119464 203.053753 
L 262.769531 208.585365 
L 268.419597 216.3947 
L 274.069663 207.934587 
L 279.71973 212.490032 
L 285.369796 205.982253 
L 291.019863 210.863088 
L 296.669929 212.164643 
L 302.319996 209.561532 
L 307.970062 206.307642 
L 319.270195 205.982253 
L 324.920261 205.656864 
L 330.570328 206.95842 
L 336.220394 215.093144 
L 341.870461 212.815421 
L 347.520527 213.466199 
L 353.170593 211.513865 
L 358.82066 210.537699 
L 364.470726 208.259976 
L 370.120793 209.236143 
L 375.770859 218.347033 
L 381.420925 203.379142 
L 387.070992 219.3232 
L 392.721058 207.283809 
L 398.371125 213.14081 
L 404.021191 205.006087 
L 409.671258 196.220585 
L 415.321324 201.426808 
L 420.97139 193.942862 
L 426.621457 195.895196 
L 432.271523 194.919029 
L 437.92159 197.522141 
L 449.221723 204.355309 
L 454.871789 203.053753 
L 460.521855 203.379142 
L 466.171922 196.545974 
L 471.821988 210.537699 
L 477.472055 200.77603 
L 483.122121 200.125252 
L 488.772187 196.220585 
L 494.422254 193.617474 
L 500.07232 201.426808 
L 505.722387 202.728364 
L 511.372453 197.84753 
L 517.02252 195.244418 
L 522.672586 201.426808 
L 528.322652 197.522141 
L 533.972719 196.545974 
L 539.622785 203.379142 
L 545.272852 203.379142 
L 550.922918 199.149086 
L 556.572985 205.982253 
L 562.223051 216.3947 
L 567.873117 209.236143 
L 573.523184 212.815421 
L 579.17325 197.522141 
L 584.823317 193.942862 
L 590.473383 201.426808 
L 596.12345 198.498308 
L 601.773516 209.236143 
L 607.423582 205.656864 
L 613.073649 200.125252 
L 630.023848 197.196752 
L 635.673914 198.172919 
L 646.974047 205.006087 
L 652.624114 203.053753 
L 658.27418 196.220585 
L 663.924247 197.196752 
L 669.574313 203.053753 
L 675.224379 200.77603 
L 680.874446 198.172919 
L 686.524512 201.101419 
L 692.174579 198.823697 
L 697.824645 202.402975 
L 703.474712 201.101419 
L 709.124778 200.77603 
L 714.774844 202.728364 
L 720.424911 199.799863 
L 726.074977 198.498308 
L 731.725044 191.66514 
L 737.37511 199.474475 
L 743.025176 198.823697 
L 748.675243 192.315918 
L 754.325309 204.680698 
L 759.975376 199.149086 
L 765.625442 206.307642 
L 771.275509 205.656864 
L 776.925575 210.863088 
L 782.575641 205.982253 
L 788.225708 211.839254 
L 793.875774 215.743922 
L 799.525841 218.672422 
L 805.175907 209.561532 
L 810.825974 198.823697 
L 816.47604 196.871363 
L 822.126106 201.426808 
L 827.776173 194.919029 
L 833.426239 193.942862 
L 839.076306 195.244418 
L 844.726372 197.196752 
L 850.376439 195.244418 
L 856.026505 196.545974 
L 861.676571 198.823697 
L 867.326638 197.84753 
L 872.976704 203.704531 
L 878.626771 212.815421 
L 884.276837 205.656864 
L 889.926903 195.244418 
L 895.57697 201.752197 
L 901.227036 202.077586 
L 906.877103 202.728364 
L 912.527169 202.077586 
L 918.177236 198.823697 
L 918.177236 198.823697 
" clip-path="url(#p053a80f5f4)" style="fill: none; stroke: #b8e3b2; stroke-opacity: 0.95; stroke-width: 1.3; stroke-linecap: square"/>
   </g>
   <g id="line2d_32">
    <path d="M 59.367139 210.537699 
L 65.017206 211.839254 
L 70.667272 209.561532 
L 76.317339 203.053753 
L 81.967405 204.355309 
L 87.617472 204.02992 
L 93.267538 200.450641 
L 98.917604 205.331476 
L 104.567671 203.379142 
L 110.217737 195.569807 
L 115.867804 197.84753 
L 118.692837 200.450641 
L 121.51787 202.728364 
L 127.167936 200.125252 
L 138.468069 211.188476 
L 144.118136 205.982253 
L 149.768202 212.164643 
L 155.418269 213.14081 
L 161.068335 207.283809 
L 166.718401 205.982253 
L 172.368468 212.490032 
L 178.018534 200.77603 
L 183.668601 200.77603 
L 189.318667 205.982253 
L 194.968734 205.982253 
L 206.268866 204.680698 
L 217.568999 205.331476 
L 228.869132 212.490032 
L 234.519199 210.537699 
L 240.169265 203.704531 
L 245.819331 212.815421 
L 251.469398 203.704531 
L 257.119464 203.704531 
L 262.769531 208.910754 
L 268.419597 198.823697 
L 274.069663 202.402975 
L 285.369796 205.006087 
L 291.019863 203.053753 
L 296.669929 203.379142 
L 302.319996 207.934587 
L 307.970062 200.125252 
L 319.270195 203.053753 
L 324.920261 201.101419 
L 330.570328 203.053753 
L 336.220394 202.728364 
L 341.870461 202.728364 
L 347.520527 205.331476 
L 353.170593 206.633031 
L 358.82066 208.910754 
L 364.470726 200.77603 
L 370.120793 201.752197 
L 375.770859 205.982253 
L 381.420925 203.379142 
L 387.070992 208.910754 
L 392.721058 211.513865 
L 398.371125 208.910754 
L 404.021191 204.02992 
L 409.671258 197.196752 
L 415.321324 201.752197 
L 420.97139 201.101419 
L 426.621457 194.919029 
L 432.271523 202.077586 
L 437.92159 203.379142 
L 449.221723 206.633031 
L 454.871789 205.656864 
L 460.521855 205.656864 
L 466.171922 200.77603 
L 471.821988 210.537699 
L 477.472055 203.053753 
L 488.772187 203.053753 
L 494.422254 196.871363 
L 500.07232 195.244418 
L 505.722387 208.910754 
L 511.372453 204.355309 
L 517.02252 206.633031 
L 522.672586 205.331476 
L 528.322652 201.426808 
L 533.972719 208.910754 
L 539.622785 206.95842 
L 545.272852 210.21231 
L 550.922918 201.426808 
L 556.572985 205.982253 
L 562.223051 202.728364 
L 567.873117 202.728364 
L 573.523184 198.823697 
L 576.348217 203.053753 
L 579.17325 206.95842 
L 584.823317 201.752197 
L 590.473383 208.910754 
L 596.12345 206.307642 
L 601.773516 210.537699 
L 607.423582 211.188476 
L 613.073649 194.919029 
L 618.723715 204.355309 
L 624.373782 198.498308 
L 630.023848 200.125252 
L 635.673914 202.402975 
L 646.974047 212.815421 
L 652.624114 204.355309 
L 658.27418 199.799863 
L 663.924247 197.84753 
L 669.574313 198.823697 
L 675.224379 201.752197 
L 680.874446 203.704531 
L 686.524512 205.982253 
L 692.174579 201.752197 
L 697.824645 199.799863 
L 703.474712 206.633031 
L 709.124778 207.609198 
L 714.774844 205.006087 
L 720.424911 201.426808 
L 726.074977 201.101419 
L 731.725044 207.283809 
L 737.37511 203.704531 
L 743.025176 210.21231 
L 748.675243 199.149086 
L 754.325309 205.331476 
L 759.975376 205.656864 
L 765.625442 203.379142 
L 771.275509 204.680698 
L 776.925575 205.656864 
L 782.575641 203.379142 
L 788.225708 203.379142 
L 793.875774 204.355309 
L 805.175907 205.006087 
L 810.825974 195.895196 
L 816.47604 207.283809 
L 822.126106 207.283809 
L 827.776173 209.236143 
L 833.426239 207.609198 
L 839.076306 213.791588 
L 844.726372 205.331476 
L 850.376439 208.585365 
L 856.026505 210.863088 
L 861.676571 209.886921 
L 867.326638 218.997811 
L 872.976704 200.450641 
L 878.626771 207.609198 
L 884.276837 208.259976 
L 889.926903 203.704531 
L 895.57697 210.21231 
L 901.227036 208.585365 
L 906.877103 198.498308 
L 912.527169 198.823697 
L 918.177236 203.053753 
L 918.177236 203.053753 
" clip-path="url(#p053a80f5f4)" style="fill: none; stroke: #98d594; stroke-opacity: 0.95; stroke-width: 1.3; stroke-linecap: square"/>
   </g>
   <g id="line2d_33">
    <path d="M 59.367139 218.347033 
L 65.017206 212.164643 
L 70.667272 218.997811 
L 76.317339 216.720089 
L 81.967405 211.188476 
L 87.617472 149.689966 
L 93.267538 50.446338 
L 98.917604 26.692946 
L 104.567671 60.533396 
L 110.217737 85.913733 
L 115.867804 84.937566 
L 121.51787 144.158354 
L 127.167936 210.21231 
L 138.468069 210.863088 
L 144.118136 210.863088 
L 149.768202 212.490032 
L 155.418269 215.093144 
L 161.068335 210.21231 
L 166.718401 212.490032 
L 172.368468 216.720089 
L 178.018534 77.128232 
L 183.668601 69.969675 
L 189.318667 68.668119 
L 194.968734 86.8899 
L 200.6188 71.59662 
L 206.268866 82.659844 
L 211.918933 76.152065 
L 217.568999 85.913733 
L 223.219066 90.794567 
L 228.869132 83.636011 
L 234.519199 200.77603 
L 240.169265 201.426808 
L 245.819331 201.101419 
L 251.469398 205.006087 
L 257.119464 218.672422 
L 262.769531 213.791588 
L 268.419597 212.815421 
L 274.069663 205.331476 
L 279.71973 219.3232 
L 285.369796 206.633031 
L 291.019863 212.164643 
L 296.669929 210.21231 
L 302.319996 206.633031 
L 307.970062 201.101419 
L 319.270195 205.331476 
L 324.920261 212.490032 
L 330.570328 214.442366 
L 336.220394 207.283809 
L 341.870461 210.537699 
L 347.520527 213.14081 
L 353.170593 213.466199 
L 358.82066 218.997811 
L 364.470726 218.997811 
L 370.120793 207.609198 
L 375.770859 217.370866 
L 381.420925 212.815421 
L 387.070992 211.839254 
L 392.721058 207.283809 
L 398.371125 216.720089 
L 404.021191 184.831972 
L 409.671258 49.795561 
L 415.321324 49.144783 
L 420.97139 52.398672 
L 426.621457 49.470172 
L 432.271523 72.898176 
L 437.92159 136.999797 
L 449.221723 201.101419 
L 454.871789 209.236143 
L 460.521855 206.95842 
L 466.171922 213.14081 
L 471.821988 211.513865 
L 477.472055 209.561532 
L 483.122121 213.791588 
L 488.772187 214.767755 
L 494.422254 73.874342 
L 500.07232 66.390397 
L 505.722387 59.23184 
L 511.372453 63.136507 
L 517.02252 77.77901 
L 522.672586 91.119956 
L 528.322652 82.009066 
L 533.972719 79.405954 
L 539.622785 75.175898 
L 545.272852 85.588344 
L 550.922918 198.498308 
L 556.572985 213.466199 
L 562.223051 205.656864 
L 567.873117 206.633031 
L 573.523184 210.537699 
L 576.348217 211.513865 
L 579.17325 212.815421 
L 584.823317 211.188476 
L 590.473383 208.910754 
L 596.12345 213.14081 
L 601.773516 208.259976 
L 607.423582 203.704531 
L 613.073649 204.355309 
L 618.723715 205.656864 
L 624.373782 208.259976 
L 630.023848 217.045477 
L 635.673914 206.307642 
L 646.974047 208.585365 
L 652.624114 204.02992 
L 658.27418 206.633031 
L 663.924247 207.609198 
L 669.574313 213.466199 
L 680.874446 209.561532 
L 686.524512 208.910754 
L 697.824645 203.053753 
L 703.474712 205.331476 
L 709.124778 210.863088 
L 714.774844 204.02992 
L 720.424911 207.934587 
L 726.074977 46.216282 
L 731.725044 54.025617 
L 737.37511 72.898176 
L 743.025176 82.659844 
L 748.675243 70.295064 
L 754.325309 115.524127 
L 759.975376 204.355309 
L 765.625442 212.164643 
L 771.275509 205.331476 
L 776.925575 201.426808 
L 782.575641 208.910754 
L 788.225708 211.839254 
L 793.875774 206.633031 
L 799.525841 207.934587 
L 805.175907 216.069311 
L 810.825974 84.612177 
L 816.47604 64.438063 
L 822.126106 62.16034 
L 827.776173 73.223564 
L 833.426239 70.620453 
L 839.076306 57.279506 
L 844.726372 55.652561 
L 850.376439 47.192449 
L 856.026505 63.461896 
L 861.676571 67.041175 
L 867.326638 201.101419 
L 872.976704 202.728364 
L 878.626771 203.053753 
L 884.276837 210.537699 
L 889.926903 211.839254 
L 892.751937 209.561532 
L 895.57697 207.609198 
L 901.227036 212.490032 
L 906.877103 211.513865 
L 912.527169 208.585365 
L 918.177236 212.490032 
L 918.177236 212.490032 
" clip-path="url(#p053a80f5f4)" style="fill: none; stroke: #73c476; stroke-opacity: 0.95; stroke-width: 1.3; stroke-linecap: square"/>
   </g>
   <g id="line2d_34">
    <path d="M 59.367139 207.934587 
L 65.017206 206.633031 
L 70.667272 206.633031 
L 76.317339 207.283809 
L 81.967405 206.633031 
L 87.617472 205.656864 
L 93.267538 198.172919 
L 98.917604 196.545974 
L 104.567671 196.545974 
L 110.217737 193.942862 
L 115.867804 201.752197 
L 118.692837 198.172919 
L 121.51787 194.919029 
L 127.167936 201.101419 
L 138.468069 206.95842 
L 144.118136 206.307642 
L 155.418269 206.307642 
L 166.718401 207.609198 
L 172.368468 206.95842 
L 178.018534 201.101419 
L 183.668601 195.895196 
L 189.318667 196.220585 
L 194.968734 199.474475 
L 200.6188 190.038195 
L 206.268866 193.292085 
L 211.918933 198.498308 
L 217.568999 199.474475 
L 223.219066 201.752197 
L 228.869132 202.077586 
L 234.519199 195.244418 
L 240.169265 200.77603 
L 245.819331 205.331476 
L 251.469398 205.656864 
L 254.294431 204.02992 
L 257.119464 202.728364 
L 262.769531 204.02992 
L 268.419597 206.95842 
L 274.069663 207.934587 
L 279.71973 205.006087 
L 285.369796 206.633031 
L 296.669929 206.633031 
L 302.319996 205.656864 
L 307.970062 204.355309 
L 319.270195 205.331476 
L 324.920261 206.95842 
L 330.570328 204.02992 
L 336.220394 203.704531 
L 341.870461 206.633031 
L 347.520527 204.02992 
L 353.170593 206.307642 
L 358.82066 202.728364 
L 364.470726 204.02992 
L 370.120793 205.982253 
L 375.770859 205.656864 
L 387.070992 206.307642 
L 392.721058 206.307642 
L 398.371125 204.680698 
L 404.021191 204.680698 
L 409.671258 198.172919 
L 415.321324 204.355309 
L 420.97139 204.355309 
L 426.621457 202.728364 
L 432.271523 200.450641 
L 435.096556 199.474475 
L 437.92159 198.172919 
L 449.221723 202.402975 
L 454.871789 206.633031 
L 460.521855 204.355309 
L 471.821988 206.95842 
L 477.472055 206.633031 
L 483.122121 204.355309 
L 488.772187 206.307642 
L 494.422254 201.752197 
L 500.07232 202.402975 
L 505.722387 202.402975 
L 511.372453 199.799863 
L 517.02252 202.728364 
L 522.672586 196.545974 
L 528.322652 196.545974 
L 533.972719 197.196752 
L 539.622785 199.149086 
L 545.272852 200.77603 
L 550.922918 200.125252 
L 556.572985 206.307642 
L 562.223051 205.656864 
L 567.873117 205.331476 
L 573.523184 204.355309 
L 579.17325 207.609198 
L 584.823317 205.006087 
L 590.473383 207.283809 
L 596.12345 206.307642 
L 601.773516 203.704531 
L 607.423582 205.331476 
L 613.073649 205.006087 
L 624.373782 206.95842 
L 630.023848 206.95842 
L 635.673914 207.283809 
L 646.974047 206.307642 
L 652.624114 205.982253 
L 658.27418 205.331476 
L 663.924247 204.355309 
L 669.574313 205.331476 
L 675.224379 206.95842 
L 680.874446 206.95842 
L 686.524512 205.656864 
L 692.174579 206.95842 
L 697.824645 206.307642 
L 703.474712 205.331476 
L 709.124778 207.283809 
L 714.774844 205.331476 
L 720.424911 204.02992 
L 726.074977 198.498308 
L 731.725044 202.077586 
L 737.37511 203.379142 
L 743.025176 201.426808 
L 748.675243 195.569807 
L 754.325309 197.84753 
L 759.975376 204.680698 
L 765.625442 205.982253 
L 771.275509 205.982253 
L 776.925575 204.355309 
L 782.575641 205.982253 
L 788.225708 205.006087 
L 793.875774 205.006087 
L 805.175907 205.656864 
L 810.825974 200.450641 
L 816.47604 196.545974 
L 822.126106 205.982253 
L 827.776173 203.704531 
L 833.426239 205.331476 
L 839.076306 205.656864 
L 844.726372 200.125252 
L 850.376439 203.379142 
L 856.026505 198.172919 
L 861.676571 201.752197 
L 867.326638 197.84753 
L 872.976704 202.728364 
L 878.626771 206.633031 
L 884.276837 203.379142 
L 889.926903 205.006087 
L 901.227036 203.704531 
L 906.877103 205.982253 
L 912.527169 204.680698 
L 918.177236 205.982253 
L 918.177236 205.982253 
" clip-path="url(#p053a80f5f4)" style="fill: none; stroke: #4bb062; stroke-opacity: 0.95; stroke-width: 1.3; stroke-linecap: square"/>
   </g>
   <g id="line2d_35">
    <path d="M 59.367139 209.561532 
L 65.017206 208.910754 
L 70.667272 212.815421 
L 76.317339 211.839254 
L 81.967405 212.164643 
L 87.617472 206.307642 
L 93.267538 193.292085 
L 98.917604 189.712806 
L 104.567671 182.228861 
L 110.217737 171.165636 
L 115.867804 177.998804 
L 121.51787 195.569807 
L 127.167936 211.188476 
L 138.468069 206.95842 
L 144.118136 209.886921 
L 149.768202 212.164643 
L 155.418269 209.886921 
L 161.068335 213.791588 
L 166.718401 218.021644 
L 172.368468 212.815421 
L 178.018534 197.84753 
L 183.668601 192.315918 
L 189.318667 181.903472 
L 194.968734 180.601916 
L 200.6188 184.506583 
L 206.268866 181.252694 
L 211.918933 182.228861 
L 217.568999 177.673415 
L 223.219066 183.205027 
L 228.869132 180.601916 
L 234.519199 206.307642 
L 240.169265 206.633031 
L 245.819331 205.982253 
L 251.469398 215.093144 
L 257.119464 218.347033 
L 262.769531 214.767755 
L 268.419597 210.537699 
L 274.069663 216.069311 
L 279.71973 212.490032 
L 285.369796 217.370866 
L 291.019863 215.743922 
L 296.669929 212.164643 
L 302.319996 210.537699 
L 307.970062 214.442366 
L 319.270195 213.791588 
L 324.920261 211.839254 
L 330.570328 211.839254 
L 336.220394 214.767755 
L 341.870461 210.21231 
L 347.520527 210.863088 
L 353.170593 215.093144 
L 358.82066 215.093144 
L 364.470726 211.188476 
L 370.120793 211.839254 
L 375.770859 212.164643 
L 381.420925 212.164643 
L 387.070992 215.743922 
L 392.721058 209.886921 
L 398.371125 216.3947 
L 404.021191 205.006087 
L 409.671258 190.688973 
L 415.321324 174.419526 
L 420.97139 159.126246 
L 426.621457 165.634024 
L 432.271523 168.887914 
L 437.92159 177.348026 
L 449.221723 207.283809 
L 454.871789 207.609198 
L 466.171922 212.815421 
L 471.821988 209.886921 
L 477.472055 210.863088 
L 483.122121 213.14081 
L 488.772187 214.116977 
L 494.422254 194.919029 
L 500.07232 204.680698 
L 505.722387 199.474475 
L 517.02252 187.109695 
L 522.672586 189.712806 
L 528.322652 178.324193 
L 533.972719 182.879638 
L 539.622785 174.094137 
L 545.272852 182.228861 
L 550.922918 203.379142 
L 556.572985 211.839254 
L 562.223051 212.490032 
L 567.873117 214.767755 
L 573.523184 211.513865 
L 579.17325 214.767755 
L 584.823317 213.791588 
L 590.473383 212.164643 
L 596.12345 215.093144 
L 601.773516 212.164643 
L 607.423582 210.863088 
L 613.073649 211.513865 
L 618.723715 214.116977 
L 624.373782 211.188476 
L 630.023848 210.21231 
L 635.673914 210.863088 
L 646.974047 211.188476 
L 652.624114 210.537699 
L 658.27418 212.164643 
L 663.924247 211.188476 
L 669.574313 211.188476 
L 675.224379 209.886921 
L 680.874446 214.116977 
L 686.524512 210.537699 
L 692.174579 211.188476 
L 697.824645 210.863088 
L 703.474712 212.164643 
L 709.124778 213.791588 
L 714.774844 210.21231 
L 720.424911 215.743922 
L 726.074977 191.990529 
L 731.725044 177.673415 
L 737.37511 173.443359 
L 743.025176 162.705524 
L 748.675243 148.063021 
L 754.325309 180.276527 
L 759.975376 208.259976 
L 765.625442 210.21231 
L 771.275509 203.704531 
L 776.925575 205.656864 
L 782.575641 214.442366 
L 788.225708 212.164643 
L 793.875774 218.021644 
L 799.525841 211.188476 
L 805.175907 211.188476 
L 810.825974 200.450641 
L 816.47604 189.062028 
L 822.126106 195.895196 
L 827.776173 196.871363 
L 833.426239 186.133528 
L 844.726372 182.228861 
L 850.376439 191.014362 
L 856.026505 191.014362 
L 861.676571 181.903472 
L 867.326638 192.315918 
L 872.976704 209.886921 
L 878.626771 201.426808 
L 884.276837 214.442366 
L 889.926903 210.537699 
L 895.57697 213.791588 
L 901.227036 215.093144 
L 906.877103 219.3232 
L 912.527169 210.21231 
L 918.177236 210.863088 
L 918.177236 210.863088 
" clip-path="url(#p053a80f5f4)" style="fill: none; stroke: #2f974e; stroke-opacity: 0.95; stroke-width: 1.3; stroke-linecap: square"/>
   </g>
   <g id="line2d_36">
    <path d="M 59.367139 219.3232 
L 65.017206 213.791588 
L 70.667272 210.21231 
L 76.317339 212.815421 
L 81.967405 218.021644 
L 87.617472 157.173912 
L 93.267538 38.081559 
L 98.917604 31.57378 
L 104.567671 68.017341 
L 110.217737 77.453621 
L 115.867804 89.493012 
L 121.51787 137.650575 
L 127.167936 205.656864 
L 138.468069 208.910754 
L 144.118136 213.466199 
L 149.768202 213.791588 
L 155.418269 217.696255 
L 161.068335 212.815421 
L 166.718401 215.743922 
L 172.368468 217.370866 
L 178.018534 53.04945 
L 183.668601 55.97795 
L 189.318667 68.668119 
L 194.968734 89.818401 
L 200.6188 77.77901 
L 206.268866 81.683677 
L 211.918933 92.746901 
L 217.568999 81.032899 
L 223.219066 82.009066 
L 228.869132 90.469178 
L 234.519199 202.077586 
L 240.169265 203.053753 
L 245.819331 205.656864 
L 251.469398 213.466199 
L 257.119464 219.3232 
L 262.769531 219.3232 
L 268.419597 215.743922 
L 274.069663 207.283809 
L 279.71973 215.743922 
L 285.369796 207.609198 
L 291.019863 213.791588 
L 296.669929 213.14081 
L 302.319996 206.633031 
L 307.970062 204.680698 
L 319.270195 205.982253 
L 324.920261 213.14081 
L 330.570328 215.418533 
L 336.220394 208.910754 
L 341.870461 207.283809 
L 347.520527 210.537699 
L 353.170593 213.466199 
L 358.82066 216.720089 
L 364.470726 219.3232 
L 370.120793 208.910754 
L 375.770859 214.116977 
L 381.420925 212.164643 
L 387.070992 213.466199 
L 398.371125 219.3232 
L 404.021191 193.292085 
L 409.671258 32.549947 
L 415.321324 55.001784 
L 420.97139 52.724061 
L 426.621457 59.557229 
L 432.271523 78.755176 
L 437.92159 144.483743 
L 449.221723 203.379142 
L 454.871789 210.863088 
L 460.521855 214.442366 
L 466.171922 215.418533 
L 471.821988 213.14081 
L 483.122121 217.696255 
L 488.772187 213.466199 
L 494.422254 76.152065 
L 500.07232 64.763452 
L 505.722387 79.405954 
L 511.372453 76.152065 
L 517.02252 73.548953 
L 522.672586 83.9614 
L 528.322652 89.167623 
L 533.972719 88.191456 
L 539.622785 82.009066 
L 545.272852 92.421512 
L 550.922918 197.196752 
L 556.572985 213.466199 
L 562.223051 213.14081 
L 567.873117 210.21231 
L 573.523184 211.513865 
L 576.348217 215.093144 
L 579.17325 218.347033 
L 584.823317 213.791588 
L 590.473383 214.442366 
L 596.12345 214.767755 
L 601.773516 213.466199 
L 607.423582 205.982253 
L 613.073649 206.307642 
L 618.723715 208.259976 
L 624.373782 213.466199 
L 630.023848 219.3232 
L 635.673914 215.093144 
L 646.974047 208.259976 
L 652.624114 209.886921 
L 658.27418 212.815421 
L 663.924247 214.442366 
L 669.574313 211.513865 
L 675.224379 209.561532 
L 680.874446 213.14081 
L 686.524512 218.347033 
L 692.174579 210.863088 
L 697.824645 207.283809 
L 703.474712 211.188476 
L 709.124778 213.791588 
L 714.774844 207.283809 
L 720.424911 212.164643 
L 726.074977 27.669112 
L 731.725044 47.192449 
L 737.37511 68.017341 
L 743.025176 68.34273 
L 748.675243 67.691952 
L 754.325309 117.151072 
L 759.975376 207.283809 
L 765.625442 211.513865 
L 771.275509 206.633031 
L 776.925575 208.585365 
L 782.575641 213.791588 
L 788.225708 214.116977 
L 793.875774 213.791588 
L 799.525841 212.815421 
L 805.175907 216.3947 
L 810.825974 86.564511 
L 816.47604 65.088841 
L 822.126106 55.327173 
L 827.776173 74.52512 
L 833.426239 76.477454 
L 839.076306 70.620453 
L 844.726372 71.59662 
L 850.376439 62.16034 
L 856.026505 72.247398 
L 861.676571 72.247398 
L 867.326638 198.498308 
L 872.976704 204.355309 
L 878.626771 205.656864 
L 884.276837 212.490032 
L 889.926903 211.188476 
L 892.751937 215.093144 
L 895.57697 219.3232 
L 901.227036 211.188476 
L 906.877103 211.188476 
L 912.527169 213.791588 
L 918.177236 217.696255 
L 918.177236 217.696255 
" clip-path="url(#p053a80f5f4)" style="fill: none; stroke: #157f3b; stroke-opacity: 0.95; stroke-width: 1.3; stroke-linecap: square"/>
   </g>
   <g id="patch_21">
    <path d="M 42.190938 228.954713 
L 42.190938 17.061433 
" style="fill: none; stroke: #cbd5e1; stroke-width: 0.8; stroke-linejoin: miter; stroke-linecap: square"/>
   </g>
   <g id="patch_22">
    <path d="M 935.353437 228.954713 
L 935.353437 17.061433 
" style="fill: none; stroke: #cbd5e1; stroke-width: 0.8; stroke-linejoin: miter; stroke-linecap: square"/>
   </g>
   <g id="patch_23">
    <path d="M 42.190938 228.954713 
L 935.353437 228.954713 
" style="fill: none; stroke: #cbd5e1; stroke-width: 0.8; stroke-linejoin: miter; stroke-linecap: square"/>
   </g>
   <g id="patch_24">
    <path d="M 42.190938 17.061433 
L 935.353437 17.061433 
" style="fill: none; stroke: #cbd5e1; stroke-width: 0.8; stroke-linejoin: miter; stroke-linecap: square"/>
   </g>
   <g id="text_18">
    <!-- ACC -->
    <g style="fill: #475569" transform="translate(42.526538 13.27875) scale(0.08 -0.08)">
     <defs>
      <path id="DejaVuSans-41" d="M 2188 4044 
L 1331 1722 
L 3047 1722 
L 2188 4044 
z
M 1831 4666 
L 2547 4666 
L 4325 0 
L 3669 0 
L 3244 1197 
L 1141 1197 
L 716 0 
L 50 0 
L 1831 4666 
z
" transform="scale(0.015625)"/>
      <path id="DejaVuSans-43" d="M 4122 4306 
L 4122 3641 
Q 3803 3938 3442 4084 
Q 3081 4231 2675 4231 
Q 1875 4231 1450 3742 
Q 1025 3253 1025 2328 
Q 1025 1406 1450 917 
Q 1875 428 2675 428 
Q 3081 428 3442 575 
Q 3803 722 4122 1019 
L 4122 359 
Q 3791 134 3420 21 
Q 3050 -91 2638 -91 
Q 1578 -91 968 557 
Q 359 1206 359 2328 
Q 359 3453 968 4101 
Q 1578 4750 2638 4750 
Q 3056 4750 3426 4639 
Q 3797 4528 4122 4306 
z
" transform="scale(0.015625)"/>
     </defs>
     <use xlink:href="#DejaVuSans-41"/>
     <use xlink:href="#DejaVuSans-43" transform="translate(66.658203 0)"/>
     <use xlink:href="#DejaVuSans-43" transform="translate(136.482422 0)"/>
    </g>
   </g>
   <g id="text_19">
    <!-- OC -->
    <g style="fill: #475569" transform="translate(70.375464 13.27875) scale(0.08 -0.08)">
     <defs>
      <path id="DejaVuSans-4f" d="M 2522 4238 
Q 1834 4238 1429 3725 
Q 1025 3213 1025 2328 
Q 1025 1447 1429 934 
Q 1834 422 2522 422 
Q 3209 422 3611 934 
Q 4013 1447 4013 2328 
Q 4013 3213 3611 3725 
Q 3209 4238 2522 4238 
z
M 2522 4750 
Q 3503 4750 4090 4092 
Q 4678 3434 4678 2328 
Q 4678 1225 4090 567 
Q 3503 -91 2522 -91 
Q 1538 -91 948 565 
Q 359 1222 359 2328 
Q 359 3434 948 4092 
Q 1538 4750 2522 4750 
z
" transform="scale(0.015625)"/>
     </defs>
     <use xlink:href="#DejaVuSans-4f"/>
     <use xlink:href="#DejaVuSans-43" transform="translate(78.710938 0)"/>
    </g>
   </g>
   <g id="text_20">
    <!-- FCS -->
    <g style="fill: #475569" transform="translate(99.759579 13.27875) scale(0.08 -0.08)">
     <defs>
      <path id="DejaVuSans-46" d="M 628 4666 
L 3309 4666 
L 3309 4134 
L 1259 4134 
L 1259 2759 
L 3109 2759 
L 3109 2228 
L 1259 2228 
L 1259 0 
L 628 0 
L 628 4666 
z
" transform="scale(0.015625)"/>
      <path id="DejaVuSans-53" d="M 3425 4513 
L 3425 3897 
Q 3066 4069 2747 4153 
Q 2428 4238 2131 4238 
Q 1616 4238 1336 4038 
Q 1056 3838 1056 3469 
Q 1056 3159 1242 3001 
Q 1428 2844 1947 2747 
L 2328 2669 
Q 3034 2534 3370 2195 
Q 3706 1856 3706 1288 
Q 3706 609 3251 259 
Q 2797 -91 1919 -91 
Q 1588 -91 1214 -16 
Q 841 59 441 206 
L 441 856 
Q 825 641 1194 531 
Q 1563 422 1919 422 
Q 2459 422 2753 634 
Q 3047 847 3047 1241 
Q 3047 1584 2836 1778 
Q 2625 1972 2144 2069 
L 1759 2144 
Q 1053 2284 737 2584 
Q 422 2884 422 3419 
Q 422 4038 858 4394 
Q 1294 4750 2059 4750 
Q 2388 4750 2728 4690 
Q 3069 4631 3425 4513 
z
" transform="scale(0.015625)"/>
     </defs>
     <use xlink:href="#DejaVuSans-46"/>
     <use xlink:href="#DejaVuSans-43" transform="translate(57.519531 0)"/>
     <use xlink:href="#DejaVuSans-53" transform="translate(127.34375 0)"/>
    </g>
   </g>
   <g id="text_21">
    <!-- SR -->
    <g style="fill: #475569" transform="translate(144.449452 13.27875) scale(0.08 -0.08)">
     <defs>
      <path id="DejaVuSans-52" d="M 2841 2188 
Q 3044 2119 3236 1894 
Q 3428 1669 3622 1275 
L 4263 0 
L 3584 0 
L 2988 1197 
Q 2756 1666 2539 1819 
Q 2322 1972 1947 1972 
L 1259 1972 
L 1259 0 
L 628 0 
L 628 4666 
L 2053 4666 
Q 2853 4666 3247 4331 
Q 3641 3997 3641 3322 
Q 3641 2881 3436 2590 
Q 3231 2300 2841 2188 
z
M 1259 4147 
L 1259 2491 
L 2053 2491 
Q 2509 2491 2742 2702 
Q 2975 2913 2975 3322 
Q 2975 3731 2742 3939 
Q 2509 4147 2053 4147 
L 1259 4147 
z
" transform="scale(0.015625)"/>
     </defs>
     <use xlink:href="#DejaVuSans-53"/>
     <use xlink:href="#DejaVuSans-52" transform="translate(63.476562 0)"/>
    </g>
   </g>
   <g id="text_22">
    <!-- FFC -->
    <g style="fill: #475569" transform="translate(196.049458 13.27875) scale(0.08 -0.08)">
     <use xlink:href="#DejaVuSans-46"/>
     <use xlink:href="#DejaVuSans-46" transform="translate(57.519531 0)"/>
     <use xlink:href="#DejaVuSans-43" transform="translate(115.039062 0)"/>
    </g>
   </g>
   <g id="text_23">
    <!-- SS -->
    <g style="fill: #475569" transform="translate(302.891312 13.27875) scale(0.08 -0.08)">
     <use xlink:href="#DejaVuSans-53"/>
     <use xlink:href="#DejaVuSans-53" transform="translate(63.476562 0)"/>
    </g>
   </g>
   <g id="text_24">
    <!-- OC -->
    <g style="fill: #475569" transform="translate(389.604217 13.27875) scale(0.08 -0.08)">
     <use xlink:href="#DejaVuSans-4f"/>
     <use xlink:href="#DejaVuSans-43" transform="translate(78.710938 0)"/>
    </g>
   </g>
   <g id="text_25">
    <!-- FCS -->
    <g style="fill: #475569" transform="translate(416.163299 13.27875) scale(0.08 -0.08)">
     <use xlink:href="#DejaVuSans-46"/>
     <use xlink:href="#DejaVuSans-43" transform="translate(57.519531 0)"/>
     <use xlink:href="#DejaVuSans-53" transform="translate(127.34375 0)"/>
    </g>
   </g>
   <g id="text_26">
    <!-- SR -->
    <g style="fill: #475569" transform="translate(460.853172 13.27875) scale(0.08 -0.08)">
     <use xlink:href="#DejaVuSans-53"/>
     <use xlink:href="#DejaVuSans-52" transform="translate(63.476562 0)"/>
    </g>
   </g>
   <g id="text_27">
    <!-- FFC -->
    <g style="fill: #475569" transform="translate(515.278211 13.27875) scale(0.08 -0.08)">
     <use xlink:href="#DejaVuSans-46"/>
     <use xlink:href="#DejaVuSans-46" transform="translate(57.519531 0)"/>
     <use xlink:href="#DejaVuSans-43" transform="translate(115.039062 0)"/>
    </g>
   </g>
   <g id="text_28">
    <!-- SS -->
    <g style="fill: #475569" transform="translate(619.295032 13.27875) scale(0.08 -0.08)">
     <use xlink:href="#DejaVuSans-53"/>
     <use xlink:href="#DejaVuSans-53" transform="translate(63.476562 0)"/>
    </g>
   </g>
   <g id="text_29">
    <!-- OC -->
    <g style="fill: #475569" transform="translate(706.007936 13.27875) scale(0.08 -0.08)">
     <use xlink:href="#DejaVuSans-4f"/>
     <use xlink:href="#DejaVuSans-43" transform="translate(78.710938 0)"/>
    </g>
   </g>
   <g id="text_30">
    <!-- FCS -->
    <g style="fill: #475569" transform="translate(735.392051 13.27875) scale(0.08 -0.08)">
     <use xlink:href="#DejaVuSans-46"/>
     <use xlink:href="#DejaVuSans-43" transform="translate(57.519531 0)"/>
     <use xlink:href="#DejaVuSans-53" transform="translate(127.34375 0)"/>
    </g>
   </g>
   <g id="text_31">
    <!-- SR -->
    <g style="fill: #475569" transform="translate(780.081925 13.27875) scale(0.08 -0.08)">
     <use xlink:href="#DejaVuSans-53"/>
     <use xlink:href="#DejaVuSans-52" transform="translate(63.476562 0)"/>
    </g>
   </g>
   <g id="text_32">
    <!-- FFC -->
    <g style="fill: #475569" transform="translate(831.681931 13.27875) scale(0.08 -0.08)">
     <use xlink:href="#DejaVuSans-46"/>
     <use xlink:href="#DejaVuSans-46" transform="translate(57.519531 0)"/>
     <use xlink:href="#DejaVuSans-43" transform="translate(115.039062 0)"/>
    </g>
   </g>
   <g id="text_33">
    <!-- SS -->
    <g style="fill: #475569" transform="translate(887.673187 13.27875) scale(0.08 -0.08)">
     <use xlink:href="#DejaVuSans-53"/>
     <use xlink:href="#DejaVuSans-53" transform="translate(63.476562 0)"/>
    </g>
   </g>
   <g id="legend_1">
    <g id="line2d_37">
     <path d="M 846.228437 27.540183 
L 854.228437 27.540183 
L 862.228437 27.540183 
" style="fill: none; stroke: #b8e3b2; stroke-opacity: 0.95; stroke-width: 1.3; stroke-linecap: square"/>
    </g>
    <g id="text_34">
     <!-- V1 -->
     <g transform="translate(868.628437 30.340183) scale(0.08 -0.08)">
      <use xlink:href="#DejaVuSans-56"/>
      <use xlink:href="#DejaVuSans-31" transform="translate(68.408203 0)"/>
     </g>
    </g>
    <g id="line2d_38">
     <path d="M 846.228437 39.282683 
L 854.228437 39.282683 
L 862.228437 39.282683 
" style="fill: none; stroke: #98d594; stroke-opacity: 0.95; stroke-width: 1.3; stroke-linecap: square"/>
    </g>
    <g id="text_35">
     <!-- V2 -->
     <g transform="translate(868.628437 42.082683) scale(0.08 -0.08)">
      <use xlink:href="#DejaVuSans-56"/>
      <use xlink:href="#DejaVuSans-32" transform="translate(68.408203 0)"/>
     </g>
    </g>
    <g id="line2d_39">
     <path d="M 846.228437 51.025183 
L 854.228437 51.025183 
L 862.228437 51.025183 
" style="fill: none; stroke: #73c476; stroke-opacity: 0.95; stroke-width: 1.3; stroke-linecap: square"/>
    </g>
    <g id="text_36">
     <!-- V3 -->
     <g transform="translate(868.628437 53.825183) scale(0.08 -0.08)">
      <use xlink:href="#DejaVuSans-56"/>
      <use xlink:href="#DejaVuSans-33" transform="translate(68.408203 0)"/>
     </g>
    </g>
    <g id="line2d_40">
     <path d="M 895.190937 27.540183 
L 903.190937 27.540183 
L 911.190937 27.540183 
" style="fill: none; stroke: #4bb062; stroke-opacity: 0.95; stroke-width: 1.3; stroke-linecap: square"/>
    </g>
    <g id="text_37">
     <!-- V4 -->
     <g transform="translate(917.590937 30.340183) scale(0.08 -0.08)">
      <use xlink:href="#DejaVuSans-56"/>
      <use xlink:href="#DejaVuSans-34" transform="translate(68.408203 0)"/>
     </g>
    </g>
    <g id="line2d_41">
     <path d="M 895.190937 39.282683 
L 903.190937 39.282683 
L 911.190937 39.282683 
" style="fill: none; stroke: #2f974e; stroke-opacity: 0.95; stroke-width: 1.3; stroke-linecap: square"/>
    </g>
    <g id="text_38">
     <!-- V5 -->
     <g transform="translate(917.590937 42.082683) scale(0.08 -0.08)">
      <use xlink:href="#DejaVuSans-56"/>
      <use xlink:href="#DejaVuSans-35" transform="translate(68.408203 0)"/>
     </g>
    </g>
    <g id="line2d_42">
     <path d="M 895.190937 51.025183 
L 903.190937 51.025183 
L 911.190937 51.025183 
" style="fill: none; stroke: #157f3b; stroke-opacity: 0.95; stroke-width: 1.3; stroke-linecap: square"/>
    </g>
    <g id="text_39">
     <!-- V6 -->
     <g transform="translate(917.590937 53.825183) scale(0.08 -0.08)">
      <use xlink:href="#DejaVuSans-56"/>
      <use xlink:href="#DejaVuSans-36" transform="translate(68.408203 0)"/>
     </g>
    </g>
   </g>
  </g>
 </g>
 <defs>
  <clipPath id="p053a80f5f4">
   <rect x="42.190938" y="17.061433" width="893.1625" height="211.89328"/>
  </clipPath>
 </defs>
</svg>
