<?xml version="1.0" encoding="utf-8" standalone="no"?>
<!DOCTYPE svg PUBLIC "-//W3C//DTD SVG 1.1//EN"
  "http://www.w3.org/Graphics/SVG/1.1/DTD/svg11.dtd">
<svg xmlns:xlink="http://www.w3.org/1999/xlink" width="942.530937pt" height="265.54315pt" viewBox="0 0 942.530937 265.54315" xmlns="http://www.w3.org/2000/svg" version="1.1">
 <metadata>
  <rdf:RDF xmlns:dc="http://purl.org/dc/elements/1.1/" xmlns:cc="http://creativecommons.org/ns#" xmlns:rdf="http://www.w3.org/1999/02/22-rdf-syntax-ns#">
   <cc:Work>
    <dc:type rdf:resource="http://purl.org/dc/dcmitype/StillImage"/>
    <dc:date>2026-04-17T17:37:01.814997</dc:date>
    <dc:format>image/svg+xml</dc:format>
    <dc:creator>
     <cc:Agent>
      <dc:title>Matplotlib v3.10.8, https://matplotlib.org/</dc:title>
     </cc:Agent>
    </dc:creator>
   </cc:Work>
  </rdf:RDF>
 </metadata>
 <defs>
  <style type="text/css">*{stroke-linejoin: round; stroke-linecap: butt}</style>
 </defs>
 <g id="figure_1">
  <g id="patch_1">
   <path d="M 0 265.54315 
L 942.530937 265.54315 
L 942.530937 0 
L 0 0 
z
" style="fill: #ffffff"/>
  </g>
  <g id="axes_1">
   <g id="patch_2">
    <path d="M 53.643438 228.954713 
L 935.330937 228.954713 
L 935.330937 17.061433 
L 53.643438 17.061433 
z
" style="fill: #ffffff"/>
   </g>
   <g id="patch_3">
    <path d="M 53.643437 228.954713 
L 70.598966 228.954713 
L 70.598966 17.061433 
L 53.643437 17.061433 
z
" clip-path="url(#p5bf28a207f)" style="fill: #f8fafc; opacity: 0.45"/>
   </g>
   <g id="patch_4">
    <path d="M 70.598966 228.954713 
L 104.063826 228.954713 
L 104.063826 17.061433 
L 70.598966 17.061433 
z
" clip-path="url(#p5bf28a207f)" style="fill: #eff6ff; opacity: 0.45"/>
   </g>
   <g id="patch_5">
    <path d="M 104.063826 228.954713 
L 131.951209 228.954713 
L 131.951209 17.061433 
L 104.063826 17.061433 
z
" clip-path="url(#p5bf28a207f)" style="fill: #fef3c7; opacity: 0.45"/>
   </g>
   <g id="patch_6">
    <path d="M 131.951209 228.954713 
L 187.725975 228.954713 
L 187.725975 17.061433 
L 131.951209 17.061433 
z
" clip-path="url(#p5bf28a207f)" style="fill: #dcfce7; opacity: 0.45"/>
   </g>
   <g id="patch_7">
    <path d="M 187.725975 228.954713 
L 237.923264 228.954713 
L 237.923264 17.061433 
L 187.725975 17.061433 
z
" clip-path="url(#p5bf28a207f)" style="fill: #fee2e2; opacity: 0.45"/>
   </g>
   <g id="patch_8">
    <path d="M 237.923264 228.954713 
L 243.500741 228.954713 
L 243.500741 17.061433 
L 237.923264 17.061433 
z
" clip-path="url(#p5bf28a207f)" style="fill: #ede9fe; opacity: 0.45"/>
   </g>
   <g id="patch_9">
    <path d="M 243.500741 228.954713 
L 388.515132 228.954713 
L 388.515132 17.061433 
L 243.500741 17.061433 
z
" clip-path="url(#p5bf28a207f)" style="fill: #f8fafc; opacity: 0.45"/>
   </g>
   <g id="patch_10">
    <path d="M 388.515132 228.954713 
L 416.402515 228.954713 
L 416.402515 17.061433 
L 388.515132 17.061433 
z
" clip-path="url(#p5bf28a207f)" style="fill: #eff6ff; opacity: 0.45"/>
   </g>
   <g id="patch_11">
    <path d="M 416.402515 228.954713 
L 444.289898 228.954713 
L 444.289898 17.061433 
L 416.402515 17.061433 
z
" clip-path="url(#p5bf28a207f)" style="fill: #fef3c7; opacity: 0.45"/>
   </g>
   <g id="patch_12">
    <path d="M 444.289898 228.954713 
L 500.064664 228.954713 
L 500.064664 17.061433 
L 444.289898 17.061433 
z
" clip-path="url(#p5bf28a207f)" style="fill: #dcfce7; opacity: 0.45"/>
   </g>
   <g id="patch_13">
    <path d="M 500.064664 228.954713 
L 555.83943 228.954713 
L 555.83943 17.061433 
L 500.064664 17.061433 
z
" clip-path="url(#p5bf28a207f)" style="fill: #fee2e2; opacity: 0.45"/>
   </g>
   <g id="patch_14">
    <path d="M 555.83943 228.954713 
L 700.853821 228.954713 
L 700.853821 17.061433 
L 555.83943 17.061433 
z
" clip-path="url(#p5bf28a207f)" style="fill: #ede9fe; opacity: 0.45"/>
   </g>
   <g id="patch_15">
    <path d="M 700.853821 228.954713 
L 728.741204 228.954713 
L 728.741204 17.061433 
L 700.853821 17.061433 
z
" clip-path="url(#p5bf28a207f)" style="fill: #f8fafc; opacity: 0.45"/>
   </g>
   <g id="patch_16">
    <path d="M 728.741204 228.954713 
L 762.206064 228.954713 
L 762.206064 17.061433 
L 728.741204 17.061433 
z
" clip-path="url(#p5bf28a207f)" style="fill: #eff6ff; opacity: 0.45"/>
   </g>
   <g id="patch_17">
    <path d="M 762.206064 228.954713 
L 812.403353 228.954713 
L 812.403353 17.061433 
L 762.206064 17.061433 
z
" clip-path="url(#p5bf28a207f)" style="fill: #fef3c7; opacity: 0.45"/>
   </g>
   <g id="patch_18">
    <path d="M 812.403353 228.954713 
L 868.178119 228.954713 
L 868.178119 17.061433 
L 812.403353 17.061433 
z
" clip-path="url(#p5bf28a207f)" style="fill: #dcfce7; opacity: 0.45"/>
   </g>
   <g id="patch_19">
    <path d="M 868.178119 228.954713 
L 918.375409 228.954713 
L 918.375409 17.061433 
L 868.178119 17.061433 
z
" clip-path="url(#p5bf28a207f)" style="fill: #fee2e2; opacity: 0.45"/>
   </g>
   <g id="patch_20">
    <path d="M 918.375409 228.954713 
L 923.952885 228.954713 
L 923.952885 17.061433 
L 918.375409 17.061433 
z
" clip-path="url(#p5bf28a207f)" style="fill: #ede9fe; opacity: 0.45"/>
   </g>
   <g id="matplotlib.axis_1">
    <g id="xtick_1">
     <g id="line2d_1">
      <path d="M 70.598966 228.954713 
L 70.598966 17.061433 
" clip-path="url(#p5bf28a207f)" style="fill: none; stroke: #eef2f7; stroke-width: 0.55; stroke-linecap: square"/>
     </g>
     <g id="line2d_2">
      <defs>
       <path id="m80e8defabf" d="M 0 0 
L 0 3.5 
" style="stroke: #000000; stroke-width: 0.8"/>
      </defs>
      <g>
       <use xlink:href="#m80e8defabf" x="70.598966" y="228.954713" style="stroke: #000000; stroke-width: 0.8"/>
      </g>
     </g>
     <g id="text_1">
      <!-- 40 -->
      <g transform="translate(64.872716 242.793307) scale(0.09 -0.09)">
       <defs>
        <path id="DejaVuSans-34" d="M 2419 4116 
L 825 1625 
L 2419 1625 
L 2419 4116 
z
M 2253 4666 
L 3047 4666 
L 3047 1625 
L 3713 1625 
L 3713 1100 
L 3047 1100 
L 3047 0 
L 2419 0 
L 2419 1100 
L 313 1100 
L 313 1709 
L 2253 4666 
z
" transform="scale(0.015625)"/>
        <path id="DejaVuSans-30" d="M 2034 4250 
Q 1547 4250 1301 3770 
Q 1056 3291 1056 2328 
Q 1056 1369 1301 889 
Q 1547 409 2034 409 
Q 2525 409 2770 889 
Q 3016 1369 3016 2328 
Q 3016 3291 2770 3770 
Q 2525 4250 2034 4250 
z
M 2034 4750 
Q 2819 4750 3233 4129 
Q 3647 3509 3647 2328 
Q 3647 1150 3233 529 
Q 2819 -91 2034 -91 
Q 1250 -91 836 529 
Q 422 1150 422 2328 
Q 422 3509 836 4129 
Q 1250 4750 2034 4750 
z
" transform="scale(0.015625)"/>
       </defs>
       <use xlink:href="#DejaVuSans-34"/>
       <use xlink:href="#DejaVuSans-30" transform="translate(63.623047 0)"/>
      </g>
     </g>
    </g>
    <g id="xtick_2">
     <g id="line2d_3">
      <path d="M 182.148498 228.954713 
L 182.148498 17.061433 
" clip-path="url(#p5bf28a207f)" style="fill: none; stroke: #eef2f7; stroke-width: 0.55; stroke-linecap: square"/>
     </g>
     <g id="line2d_4">
      <g>
       <use xlink:href="#m80e8defabf" x="182.148498" y="228.954713" style="stroke: #000000; stroke-width: 0.8"/>
      </g>
     </g>
     <g id="text_2">
      <!-- 60 -->
      <g transform="translate(176.422248 242.793307) scale(0.09 -0.09)">
       <defs>
        <path id="DejaVuSans-36" d="M 2113 2584 
Q 1688 2584 1439 2293 
Q 1191 2003 1191 1497 
Q 1191 994 1439 701 
Q 1688 409 2113 409 
Q 2538 409 2786 701 
Q 3034 994 3034 1497 
Q 3034 2003 2786 2293 
Q 2538 2584 2113 2584 
z
M 3366 4563 
L 3366 3988 
Q 3128 4100 2886 4159 
Q 2644 4219 2406 4219 
Q 1781 4219 1451 3797 
Q 1122 3375 1075 2522 
Q 1259 2794 1537 2939 
Q 1816 3084 2150 3084 
Q 2853 3084 3261 2657 
Q 3669 2231 3669 1497 
Q 3669 778 3244 343 
Q 2819 -91 2113 -91 
Q 1303 -91 875 529 
Q 447 1150 447 2328 
Q 447 3434 972 4092 
Q 1497 4750 2381 4750 
Q 2619 4750 2861 4703 
Q 3103 4656 3366 4563 
z
" transform="scale(0.015625)"/>
       </defs>
       <use xlink:href="#DejaVuSans-36"/>
       <use xlink:href="#DejaVuSans-30" transform="translate(63.623047 0)"/>
      </g>
     </g>
    </g>
    <g id="xtick_3">
     <g id="line2d_5">
      <path d="M 293.69803 228.954713 
L 293.69803 17.061433 
" clip-path="url(#p5bf28a207f)" style="fill: none; stroke: #eef2f7; stroke-width: 0.55; stroke-linecap: square"/>
     </g>
     <g id="line2d_6">
      <g>
       <use xlink:href="#m80e8defabf" x="293.69803" y="228.954713" style="stroke: #000000; stroke-width: 0.8"/>
      </g>
     </g>
     <g id="text_3">
      <!-- 80 -->
      <g transform="translate(287.97178 242.793307) scale(0.09 -0.09)">
       <defs>
        <path id="DejaVuSans-38" d="M 2034 2216 
Q 1584 2216 1326 1975 
Q 1069 1734 1069 1313 
Q 1069 891 1326 650 
Q 1584 409 2034 409 
Q 2484 409 2743 651 
Q 3003 894 3003 1313 
Q 3003 1734 2745 1975 
Q 2488 2216 2034 2216 
z
M 1403 2484 
Q 997 2584 770 2862 
Q 544 3141 544 3541 
Q 544 4100 942 4425 
Q 1341 4750 2034 4750 
Q 2731 4750 3128 4425 
Q 3525 4100 3525 3541 
Q 3525 3141 3298 2862 
Q 3072 2584 2669 2484 
Q 3125 2378 3379 2068 
Q 3634 1759 3634 1313 
Q 3634 634 3220 271 
Q 2806 -91 2034 -91 
Q 1263 -91 848 271 
Q 434 634 434 1313 
Q 434 1759 690 2068 
Q 947 2378 1403 2484 
z
M 1172 3481 
Q 1172 3119 1398 2916 
Q 1625 2713 2034 2713 
Q 2441 2713 2670 2916 
Q 2900 3119 2900 3481 
Q 2900 3844 2670 4047 
Q 2441 4250 2034 4250 
Q 1625 4250 1398 4047 
Q 1172 3844 1172 3481 
z
" transform="scale(0.015625)"/>
       </defs>
       <use xlink:href="#DejaVuSans-38"/>
       <use xlink:href="#DejaVuSans-30" transform="translate(63.623047 0)"/>
      </g>
     </g>
    </g>
    <g id="xtick_4">
     <g id="line2d_7">
      <path d="M 405.247562 228.954713 
L 405.247562 17.061433 
" clip-path="url(#p5bf28a207f)" style="fill: none; stroke: #eef2f7; stroke-width: 0.55; stroke-linecap: square"/>
     </g>
     <g id="line2d_8">
      <g>
       <use xlink:href="#m80e8defabf" x="405.247562" y="228.954713" style="stroke: #000000; stroke-width: 0.8"/>
      </g>
     </g>
     <g id="text_4">
      <!-- 100 -->
      <g transform="translate(396.658187 242.793307) scale(0.09 -0.09)">
       <defs>
        <path id="DejaVuSans-31" d="M 794 531 
L 1825 531 
L 1825 4091 
L 703 3866 
L 703 4441 
L 1819 4666 
L 2450 4666 
L 2450 531 
L 3481 531 
L 3481 0 
L 794 0 
L 794 531 
z
" transform="scale(0.015625)"/>
       </defs>
       <use xlink:href="#DejaVuSans-31"/>
       <use xlink:href="#DejaVuSans-30" transform="translate(63.623047 0)"/>
       <use xlink:href="#DejaVuSans-30" transform="translate(127.246094 0)"/>
      </g>
     </g>
    </g>
    <g id="xtick_5">
     <g id="line2d_9">
      <path d="M 516.797094 228.954713 
L 516.797094 17.061433 
" clip-path="url(#p5bf28a207f)" style="fill: none; stroke: #eef2f7; stroke-width: 0.55; stroke-linecap: square"/>
     </g>
     <g id="line2d_10">
      <g>
       <use xlink:href="#m80e8defabf" x="516.797094" y="228.954713" style="stroke: #000000; stroke-width: 0.8"/>
      </g>
     </g>
     <g id="text_5">
      <!-- 120 -->
      <g transform="translate(508.207719 242.793307) scale(0.09 -0.09)">
       <defs>
        <path id="DejaVuSans-32" d="M 1228 531 
L 3431 531 
L 3431 0 
L 469 0 
L 469 531 
Q 828 903 1448 1529 
Q 2069 2156 2228 2338 
Q 2531 2678 2651 2914 
Q 2772 3150 2772 3378 
Q 2772 3750 2511 3984 
Q 2250 4219 1831 4219 
Q 1534 4219 1204 4116 
Q 875 4013 500 3803 
L 500 4441 
Q 881 4594 1212 4672 
Q 1544 4750 1819 4750 
Q 2544 4750 2975 4387 
Q 3406 4025 3406 3419 
Q 3406 3131 3298 2873 
Q 3191 2616 2906 2266 
Q 2828 2175 2409 1742 
Q 1991 1309 1228 531 
z
" transform="scale(0.015625)"/>
       </defs>
       <use xlink:href="#DejaVuSans-31"/>
       <use xlink:href="#DejaVuSans-32" transform="translate(63.623047 0)"/>
       <use xlink:href="#DejaVuSans-30" transform="translate(127.246094 0)"/>
      </g>
     </g>
    </g>
    <g id="xtick_6">
     <g id="line2d_11">
      <path d="M 628.346626 228.954713 
L 628.346626 17.061433 
" clip-path="url(#p5bf28a207f)" style="fill: none; stroke: #eef2f7; stroke-width: 0.55; stroke-linecap: square"/>
     </g>
     <g id="line2d_12">
      <g>
       <use xlink:href="#m80e8defabf" x="628.346626" y="228.954713" style="stroke: #000000; stroke-width: 0.8"/>
      </g>
     </g>
     <g id="text_6">
      <!-- 140 -->
      <g transform="translate(619.757251 242.793307) scale(0.09 -0.09)">
       <use xlink:href="#DejaVuSans-31"/>
       <use xlink:href="#DejaVuSans-34" transform="translate(63.623047 0)"/>
       <use xlink:href="#DejaVuSans-30" transform="translate(127.246094 0)"/>
      </g>
     </g>
    </g>
    <g id="xtick_7">
     <g id="line2d_13">
      <path d="M 739.896158 228.954713 
L 739.896158 17.061433 
" clip-path="url(#p5bf28a207f)" style="fill: none; stroke: #eef2f7; stroke-width: 0.55; stroke-linecap: square"/>
     </g>
     <g id="line2d_14">
      <g>
       <use xlink:href="#m80e8defabf" x="739.896158" y="228.954713" style="stroke: #000000; stroke-width: 0.8"/>
      </g>
     </g>
     <g id="text_7">
      <!-- 160 -->
      <g transform="translate(731.306783 242.793307) scale(0.09 -0.09)">
       <use xlink:href="#DejaVuSans-31"/>
       <use xlink:href="#DejaVuSans-36" transform="translate(63.623047 0)"/>
       <use xlink:href="#DejaVuSans-30" transform="translate(127.246094 0)"/>
      </g>
     </g>
    </g>
    <g id="xtick_8">
     <g id="line2d_15">
      <path d="M 851.44569 228.954713 
L 851.44569 17.061433 
" clip-path="url(#p5bf28a207f)" style="fill: none; stroke: #eef2f7; stroke-width: 0.55; stroke-linecap: square"/>
     </g>
     <g id="line2d_16">
      <g>
       <use xlink:href="#m80e8defabf" x="851.44569" y="228.954713" style="stroke: #000000; stroke-width: 0.8"/>
      </g>
     </g>
     <g id="text_8">
      <!-- 180 -->
      <g transform="translate(842.856315 242.793307) scale(0.09 -0.09)">
       <use xlink:href="#DejaVuSans-31"/>
       <use xlink:href="#DejaVuSans-38" transform="translate(63.623047 0)"/>
       <use xlink:href="#DejaVuSans-30" transform="translate(127.246094 0)"/>
      </g>
     </g>
    </g>
    <g id="text_9">
     <!-- Minutes since session start -->
     <g transform="translate(426.897344 256.263463) scale(0.1 -0.1)">
      <defs>
       <path id="DejaVuSans-4d" d="M 628 4666 
L 1569 4666 
L 2759 1491 
L 3956 4666 
L 4897 4666 
L 4897 0 
L 4281 0 
L 4281 4097 
L 3078 897 
L 2444 897 
L 1241 4097 
L 1241 0 
L 628 0 
L 628 4666 
z
" transform="scale(0.015625)"/>
       <path id="DejaVuSans-69" d="M 603 3500 
L 1178 3500 
L 1178 0 
L 603 0 
L 603 3500 
z
M 603 4863 
L 1178 4863 
L 1178 4134 
L 603 4134 
L 603 4863 
z
" transform="scale(0.015625)"/>
       <path id="DejaVuSans-6e" d="M 3513 2113 
L 3513 0 
L 2938 0 
L 2938 2094 
Q 2938 2591 2744 2837 
Q 2550 3084 2163 3084 
Q 1697 3084 1428 2787 
Q 1159 2491 1159 1978 
L 1159 0 
L 581 0 
L 581 3500 
L 1159 3500 
L 1159 2956 
Q 1366 3272 1645 3428 
Q 1925 3584 2291 3584 
Q 2894 3584 3203 3211 
Q 3513 2838 3513 2113 
z
" transform="scale(0.015625)"/>
       <path id="DejaVuSans-75" d="M 544 1381 
L 544 3500 
L 1119 3500 
L 1119 1403 
Q 1119 906 1312 657 
Q 1506 409 1894 409 
Q 2359 409 2629 706 
Q 2900 1003 2900 1516 
L 2900 3500 
L 3475 3500 
L 3475 0 
L 2900 0 
L 2900 538 
Q 2691 219 2414 64 
Q 2138 -91 1772 -91 
Q 1169 -91 856 284 
Q 544 659 544 1381 
z
M 1991 3584 
L 1991 3584 
z
" transform="scale(0.015625)"/>
       <path id="DejaVuSans-74" d="M 1172 4494 
L 1172 3500 
L 2356 3500 
L 2356 3053 
L 1172 3053 
L 1172 1153 
Q 1172 725 1289 603 
Q 1406 481 1766 481 
L 2356 481 
L 2356 0 
L 1766 0 
Q 1100 0 847 248 
Q 594 497 594 1153 
L 594 3053 
L 172 3053 
L 172 3500 
L 594 3500 
L 594 4494 
L 1172 4494 
z
" transform="scale(0.015625)"/>
       <path id="DejaVuSans-65" d="M 3597 1894 
L 3597 1613 
L 953 1613 
Q 991 1019 1311 708 
Q 1631 397 2203 397 
Q 2534 397 2845 478 
Q 3156 559 3463 722 
L 3463 178 
Q 3153 47 2828 -22 
Q 2503 -91 2169 -91 
Q 1331 -91 842 396 
Q 353 884 353 1716 
Q 353 2575 817 3079 
Q 1281 3584 2069 3584 
Q 2775 3584 3186 3129 
Q 3597 2675 3597 1894 
z
M 3022 2063 
Q 3016 2534 2758 2815 
Q 2500 3097 2075 3097 
Q 1594 3097 1305 2825 
Q 1016 2553 972 2059 
L 3022 2063 
z
" transform="scale(0.015625)"/>
       <path id="DejaVuSans-73" d="M 2834 3397 
L 2834 2853 
Q 2591 2978 2328 3040 
Q 2066 3103 1784 3103 
Q 1356 3103 1142 2972 
Q 928 2841 928 2578 
Q 928 2378 1081 2264 
Q 1234 2150 1697 2047 
L 1894 2003 
Q 2506 1872 2764 1633 
Q 3022 1394 3022 966 
Q 3022 478 2636 193 
Q 2250 -91 1575 -91 
Q 1294 -91 989 -36 
Q 684 19 347 128 
L 347 722 
Q 666 556 975 473 
Q 1284 391 1588 391 
Q 1994 391 2212 530 
Q 2431 669 2431 922 
Q 2431 1156 2273 1281 
Q 2116 1406 1581 1522 
L 1381 1569 
Q 847 1681 609 1914 
Q 372 2147 372 2553 
Q 372 3047 722 3315 
Q 1072 3584 1716 3584 
Q 2034 3584 2315 3537 
Q 2597 3491 2834 3397 
z
" transform="scale(0.015625)"/>
       <path id="DejaVuSans-20" transform="scale(0.015625)"/>
       <path id="DejaVuSans-63" d="M 3122 3366 
L 3122 2828 
Q 2878 2963 2633 3030 
Q 2388 3097 2138 3097 
Q 1578 3097 1268 2742 
Q 959 2388 959 1747 
Q 959 1106 1268 751 
Q 1578 397 2138 397 
Q 2388 397 2633 464 
Q 2878 531 3122 666 
L 3122 134 
Q 2881 22 2623 -34 
Q 2366 -91 2075 -91 
Q 1284 -91 818 406 
Q 353 903 353 1747 
Q 353 2603 823 3093 
Q 1294 3584 2113 3584 
Q 2378 3584 2631 3529 
Q 2884 3475 3122 3366 
z
" transform="scale(0.015625)"/>
       <path id="DejaVuSans-6f" d="M 1959 3097 
Q 1497 3097 1228 2736 
Q 959 2375 959 1747 
Q 959 1119 1226 758 
Q 1494 397 1959 397 
Q 2419 397 2687 759 
Q 2956 1122 2956 1747 
Q 2956 2369 2687 2733 
Q 2419 3097 1959 3097 
z
M 1959 3584 
Q 2709 3584 3137 3096 
Q 3566 2609 3566 1747 
Q 3566 888 3137 398 
Q 2709 -91 1959 -91 
Q 1206 -91 779 398 
Q 353 888 353 1747 
Q 353 2609 779 3096 
Q 1206 3584 1959 3584 
z
" transform="scale(0.015625)"/>
       <path id="DejaVuSans-61" d="M 2194 1759 
Q 1497 1759 1228 1600 
Q 959 1441 959 1056 
Q 959 750 1161 570 
Q 1363 391 1709 391 
Q 2188 391 2477 730 
Q 2766 1069 2766 1631 
L 2766 1759 
L 2194 1759 
z
M 3341 1997 
L 3341 0 
L 2766 0 
L 2766 531 
Q 2569 213 2275 61 
Q 1981 -91 1556 -91 
Q 1019 -91 701 211 
Q 384 513 384 1019 
Q 384 1609 779 1909 
Q 1175 2209 1959 2209 
L 2766 2209 
L 2766 2266 
Q 2766 2663 2505 2880 
Q 2244 3097 1772 3097 
Q 1472 3097 1187 3025 
Q 903 2953 641 2809 
L 641 3341 
Q 956 3463 1253 3523 
Q 1550 3584 1831 3584 
Q 2591 3584 2966 3190 
Q 3341 2797 3341 1997 
z
" transform="scale(0.015625)"/>
       <path id="DejaVuSans-72" d="M 2631 2963 
Q 2534 3019 2420 3045 
Q 2306 3072 2169 3072 
Q 1681 3072 1420 2755 
Q 1159 2438 1159 1844 
L 1159 0 
L 581 0 
L 581 3500 
L 1159 3500 
L 1159 2956 
Q 1341 3275 1631 3429 
Q 1922 3584 2338 3584 
Q 2397 3584 2469 3576 
Q 2541 3569 2628 3553 
L 2631 2963 
z
" transform="scale(0.015625)"/>
      </defs>
      <use xlink:href="#DejaVuSans-4d"/>
      <use xlink:href="#DejaVuSans-69" transform="translate(86.279297 0)"/>
      <use xlink:href="#DejaVuSans-6e" transform="translate(114.0625 0)"/>
      <use xlink:href="#DejaVuSans-75" transform="translate(177.441406 0)"/>
      <use xlink:href="#DejaVuSans-74" transform="translate(240.820312 0)"/>
      <use xlink:href="#DejaVuSans-65" transform="translate(280.029297 0)"/>
      <use xlink:href="#DejaVuSans-73" transform="translate(341.552734 0)"/>
      <use xlink:href="#DejaVuSans-20" transform="translate(393.652344 0)"/>
      <use xlink:href="#DejaVuSans-73" transform="translate(425.439453 0)"/>
      <use xlink:href="#DejaVuSans-69" transform="translate(477.539062 0)"/>
      <use xlink:href="#DejaVuSans-6e" transform="translate(505.322266 0)"/>
      <use xlink:href="#DejaVuSans-63" transform="translate(568.701172 0)"/>
      <use xlink:href="#DejaVuSans-65" transform="translate(623.681641 0)"/>
      <use xlink:href="#DejaVuSans-20" transform="translate(685.205078 0)"/>
      <use xlink:href="#DejaVuSans-73" transform="translate(716.992188 0)"/>
      <use xlink:href="#DejaVuSans-65" transform="translate(769.091797 0)"/>
      <use xlink:href="#DejaVuSans-73" transform="translate(830.615234 0)"/>
      <use xlink:href="#DejaVuSans-73" transform="translate(882.714844 0)"/>
      <use xlink:href="#DejaVuSans-69" transform="translate(934.814453 0)"/>
      <use xlink:href="#DejaVuSans-6f" transform="translate(962.597656 0)"/>
      <use xlink:href="#DejaVuSans-6e" transform="translate(1023.779297 0)"/>
      <use xlink:href="#DejaVuSans-20" transform="translate(1087.158203 0)"/>
      <use xlink:href="#DejaVuSans-73" transform="translate(1118.945312 0)"/>
      <use xlink:href="#DejaVuSans-74" transform="translate(1171.044922 0)"/>
      <use xlink:href="#DejaVuSans-61" transform="translate(1210.253906 0)"/>
      <use xlink:href="#DejaVuSans-72" transform="translate(1271.533203 0)"/>
      <use xlink:href="#DejaVuSans-74" transform="translate(1312.646484 0)"/>
     </g>
    </g>
   </g>
   <g id="matplotlib.axis_2">
    <g id="ytick_1">
     <g id="line2d_17">
      <path d="M 53.643438 228.796819 
L 935.330937 228.796819 
" clip-path="url(#p5bf28a207f)" style="fill: none; stroke: #eef2f7; stroke-opacity: 0.25; stroke-width: 0.55; stroke-linecap: square"/>
     </g>
     <g id="line2d_18">
      <defs>
       <path id="mc0b45b887b" d="M 0 0 
L -3.5 0 
" style="stroke: #000000; stroke-width: 0.8"/>
      </defs>
      <g>
       <use xlink:href="#mc0b45b887b" x="53.643438" y="228.796819" style="stroke: #000000; stroke-width: 0.8"/>
      </g>
     </g>
     <g id="text_10">
      <!-- 29.25 -->
      <g transform="translate(20.878125 232.216116) scale(0.09 -0.09)">
       <defs>
        <path id="DejaVuSans-39" d="M 703 97 
L 703 672 
Q 941 559 1184 500 
Q 1428 441 1663 441 
Q 2288 441 2617 861 
Q 2947 1281 2994 2138 
Q 2813 1869 2534 1725 
Q 2256 1581 1919 1581 
Q 1219 1581 811 2004 
Q 403 2428 403 3163 
Q 403 3881 828 4315 
Q 1253 4750 1959 4750 
Q 2769 4750 3195 4129 
Q 3622 3509 3622 2328 
Q 3622 1225 3098 567 
Q 2575 -91 1691 -91 
Q 1453 -91 1209 -44 
Q 966 3 703 97 
z
M 1959 2075 
Q 2384 2075 2632 2365 
Q 2881 2656 2881 3163 
Q 2881 3666 2632 3958 
Q 2384 4250 1959 4250 
Q 1534 4250 1286 3958 
Q 1038 3666 1038 3163 
Q 1038 2656 1286 2365 
Q 1534 2075 1959 2075 
z
" transform="scale(0.015625)"/>
        <path id="DejaVuSans-2e" d="M 684 794 
L 1344 794 
L 1344 0 
L 684 0 
L 684 794 
z
" transform="scale(0.015625)"/>
        <path id="DejaVuSans-35" d="M 691 4666 
L 3169 4666 
L 3169 4134 
L 1269 4134 
L 1269 2991 
Q 1406 3038 1543 3061 
Q 1681 3084 1819 3084 
Q 2600 3084 3056 2656 
Q 3513 2228 3513 1497 
Q 3513 744 3044 326 
Q 2575 -91 1722 -91 
Q 1428 -91 1123 -41 
Q 819 9 494 109 
L 494 744 
Q 775 591 1075 516 
Q 1375 441 1709 441 
Q 2250 441 2565 725 
Q 2881 1009 2881 1497 
Q 2881 1984 2565 2268 
Q 2250 2553 1709 2553 
Q 1456 2553 1204 2497 
Q 953 2441 691 2322 
L 691 4666 
z
" transform="scale(0.015625)"/>
       </defs>
       <use xlink:href="#DejaVuSans-32"/>
       <use xlink:href="#DejaVuSans-39" transform="translate(63.623047 0)"/>
       <use xlink:href="#DejaVuSans-2e" transform="translate(127.246094 0)"/>
       <use xlink:href="#DejaVuSans-32" transform="translate(159.033203 0)"/>
       <use xlink:href="#DejaVuSans-35" transform="translate(222.65625 0)"/>
      </g>
     </g>
    </g>
    <g id="ytick_2">
     <g id="line2d_19">
      <path d="M 53.643438 202.481211 
L 935.330937 202.481211 
" clip-path="url(#p5bf28a207f)" style="fill: none; stroke: #eef2f7; stroke-opacity: 0.25; stroke-width: 0.55; stroke-linecap: square"/>
     </g>
     <g id="line2d_20">
      <g>
       <use xlink:href="#mc0b45b887b" x="53.643438" y="202.481211" style="stroke: #000000; stroke-width: 0.8"/>
      </g>
     </g>
     <g id="text_11">
      <!-- 29.50 -->
      <g transform="translate(20.878125 205.900507) scale(0.09 -0.09)">
       <use xlink:href="#DejaVuSans-32"/>
       <use xlink:href="#DejaVuSans-39" transform="translate(63.623047 0)"/>
       <use xlink:href="#DejaVuSans-2e" transform="translate(127.246094 0)"/>
       <use xlink:href="#DejaVuSans-35" transform="translate(159.033203 0)"/>
       <use xlink:href="#DejaVuSans-30" transform="translate(222.65625 0)"/>
      </g>
     </g>
    </g>
    <g id="ytick_3">
     <g id="line2d_21">
      <path d="M 53.643438 176.165602 
L 935.330937 176.165602 
" clip-path="url(#p5bf28a207f)" style="fill: none; stroke: #eef2f7; stroke-opacity: 0.25; stroke-width: 0.55; stroke-linecap: square"/>
     </g>
     <g id="line2d_22">
      <g>
       <use xlink:href="#mc0b45b887b" x="53.643438" y="176.165602" style="stroke: #000000; stroke-width: 0.8"/>
      </g>
     </g>
     <g id="text_12">
      <!-- 29.75 -->
      <g transform="translate(20.878125 179.584899) scale(0.09 -0.09)">
       <defs>
        <path id="DejaVuSans-37" d="M 525 4666 
L 3525 4666 
L 3525 4397 
L 1831 0 
L 1172 0 
L 2766 4134 
L 525 4134 
L 525 4666 
z
" transform="scale(0.015625)"/>
       </defs>
       <use xlink:href="#DejaVuSans-32"/>
       <use xlink:href="#DejaVuSans-39" transform="translate(63.623047 0)"/>
       <use xlink:href="#DejaVuSans-2e" transform="translate(127.246094 0)"/>
       <use xlink:href="#DejaVuSans-37" transform="translate(159.033203 0)"/>
       <use xlink:href="#DejaVuSans-35" transform="translate(222.65625 0)"/>
      </g>
     </g>
    </g>
    <g id="ytick_4">
     <g id="line2d_23">
      <path d="M 53.643438 149.849994 
L 935.330937 149.849994 
" clip-path="url(#p5bf28a207f)" style="fill: none; stroke: #eef2f7; stroke-opacity: 0.25; stroke-width: 0.55; stroke-linecap: square"/>
     </g>
     <g id="line2d_24">
      <g>
       <use xlink:href="#mc0b45b887b" x="53.643438" y="149.849994" style="stroke: #000000; stroke-width: 0.8"/>
      </g>
     </g>
     <g id="text_13">
      <!-- 30.00 -->
      <g transform="translate(20.878125 153.26929) scale(0.09 -0.09)">
       <defs>
        <path id="DejaVuSans-33" d="M 2597 2516 
Q 3050 2419 3304 2112 
Q 3559 1806 3559 1356 
Q 3559 666 3084 287 
Q 2609 -91 1734 -91 
Q 1441 -91 1130 -33 
Q 819 25 488 141 
L 488 750 
Q 750 597 1062 519 
Q 1375 441 1716 441 
Q 2309 441 2620 675 
Q 2931 909 2931 1356 
Q 2931 1769 2642 2001 
Q 2353 2234 1838 2234 
L 1294 2234 
L 1294 2753 
L 1863 2753 
Q 2328 2753 2575 2939 
Q 2822 3125 2822 3475 
Q 2822 3834 2567 4026 
Q 2313 4219 1838 4219 
Q 1578 4219 1281 4162 
Q 984 4106 628 3988 
L 628 4550 
Q 988 4650 1302 4700 
Q 1616 4750 1894 4750 
Q 2613 4750 3031 4423 
Q 3450 4097 3450 3541 
Q 3450 3153 3228 2886 
Q 3006 2619 2597 2516 
z
" transform="scale(0.015625)"/>
       </defs>
       <use xlink:href="#DejaVuSans-33"/>
       <use xlink:href="#DejaVuSans-30" transform="translate(63.623047 0)"/>
       <use xlink:href="#DejaVuSans-2e" transform="translate(127.246094 0)"/>
       <use xlink:href="#DejaVuSans-30" transform="translate(159.033203 0)"/>
       <use xlink:href="#DejaVuSans-30" transform="translate(222.65625 0)"/>
      </g>
     </g>
    </g>
    <g id="ytick_5">
     <g id="line2d_25">
      <path d="M 53.643438 123.534385 
L 935.330937 123.534385 
" clip-path="url(#p5bf28a207f)" style="fill: none; stroke: #eef2f7; stroke-opacity: 0.25; stroke-width: 0.55; stroke-linecap: square"/>
     </g>
     <g id="line2d_26">
      <g>
       <use xlink:href="#mc0b45b887b" x="53.643438" y="123.534385" style="stroke: #000000; stroke-width: 0.8"/>
      </g>
     </g>
     <g id="text_14">
      <!-- 30.25 -->
      <g transform="translate(20.878125 126.953682) scale(0.09 -0.09)">
       <use xlink:href="#DejaVuSans-33"/>
       <use xlink:href="#DejaVuSans-30" transform="translate(63.623047 0)"/>
       <use xlink:href="#DejaVuSans-2e" transform="translate(127.246094 0)"/>
       <use xlink:href="#DejaVuSans-32" transform="translate(159.033203 0)"/>
       <use xlink:href="#DejaVuSans-35" transform="translate(222.65625 0)"/>
      </g>
     </g>
    </g>
    <g id="ytick_6">
     <g id="line2d_27">
      <path d="M 53.643438 97.218776 
L 935.330937 97.218776 
" clip-path="url(#p5bf28a207f)" style="fill: none; stroke: #eef2f7; stroke-opacity: 0.25; stroke-width: 0.55; stroke-linecap: square"/>
     </g>
     <g id="line2d_28">
      <g>
       <use xlink:href="#mc0b45b887b" x="53.643438" y="97.218776" style="stroke: #000000; stroke-width: 0.8"/>
      </g>
     </g>
     <g id="text_15">
      <!-- 30.50 -->
      <g transform="translate(20.878125 100.638073) scale(0.09 -0.09)">
       <use xlink:href="#DejaVuSans-33"/>
       <use xlink:href="#DejaVuSans-30" transform="translate(63.623047 0)"/>
       <use xlink:href="#DejaVuSans-2e" transform="translate(127.246094 0)"/>
       <use xlink:href="#DejaVuSans-35" transform="translate(159.033203 0)"/>
       <use xlink:href="#DejaVuSans-30" transform="translate(222.65625 0)"/>
      </g>
     </g>
    </g>
    <g id="ytick_7">
     <g id="line2d_29">
      <path d="M 53.643438 70.903168 
L 935.330937 70.903168 
" clip-path="url(#p5bf28a207f)" style="fill: none; stroke: #eef2f7; stroke-opacity: 0.25; stroke-width: 0.55; stroke-linecap: square"/>
     </g>
     <g id="line2d_30">
      <g>
       <use xlink:href="#mc0b45b887b" x="53.643438" y="70.903168" style="stroke: #000000; stroke-width: 0.8"/>
      </g>
     </g>
     <g id="text_16">
      <!-- 30.75 -->
      <g transform="translate(20.878125 74.322465) scale(0.09 -0.09)">
       <use xlink:href="#DejaVuSans-33"/>
       <use xlink:href="#DejaVuSans-30" transform="translate(63.623047 0)"/>
       <use xlink:href="#DejaVuSans-2e" transform="translate(127.246094 0)"/>
       <use xlink:href="#DejaVuSans-37" transform="translate(159.033203 0)"/>
       <use xlink:href="#DejaVuSans-35" transform="translate(222.65625 0)"/>
      </g>
     </g>
    </g>
    <g id="ytick_8">
     <g id="line2d_31">
      <path d="M 53.643438 44.587559 
L 935.330937 44.587559 
" clip-path="url(#p5bf28a207f)" style="fill: none; stroke: #eef2f7; stroke-opacity: 0.25; stroke-width: 0.55; stroke-linecap: square"/>
     </g>
     <g id="line2d_32">
      <g>
       <use xlink:href="#mc0b45b887b" x="53.643438" y="44.587559" style="stroke: #000000; stroke-width: 0.8"/>
      </g>
     </g>
     <g id="text_17">
      <!-- 31.00 -->
      <g transform="translate(20.878125 48.006856) scale(0.09 -0.09)">
       <use xlink:href="#DejaVuSans-33"/>
       <use xlink:href="#DejaVuSans-31" transform="translate(63.623047 0)"/>
       <use xlink:href="#DejaVuSans-2e" transform="translate(127.246094 0)"/>
       <use xlink:href="#DejaVuSans-30" transform="translate(159.033203 0)"/>
       <use xlink:href="#DejaVuSans-30" transform="translate(222.65625 0)"/>
      </g>
     </g>
    </g>
    <g id="ytick_9">
     <g id="line2d_33">
      <path d="M 53.643438 18.271951 
L 935.330937 18.271951 
" clip-path="url(#p5bf28a207f)" style="fill: none; stroke: #eef2f7; stroke-opacity: 0.25; stroke-width: 0.55; stroke-linecap: square"/>
     </g>
     <g id="line2d_34">
      <g>
       <use xlink:href="#mc0b45b887b" x="53.643438" y="18.271951" style="stroke: #000000; stroke-width: 0.8"/>
      </g>
     </g>
     <g id="text_18">
      <!-- 31.25 -->
      <g transform="translate(20.878125 21.691248) scale(0.09 -0.09)">
       <use xlink:href="#DejaVuSans-33"/>
       <use xlink:href="#DejaVuSans-31" transform="translate(63.623047 0)"/>
       <use xlink:href="#DejaVuSans-2e" transform="translate(127.246094 0)"/>
       <use xlink:href="#DejaVuSans-32" transform="translate(159.033203 0)"/>
       <use xlink:href="#DejaVuSans-35" transform="translate(222.65625 0)"/>
      </g>
     </g>
    </g>
    <g id="text_19">
     <!-- Temperature (C) -->
     <g transform="translate(14.798438 163.659635) rotate(-90) scale(0.1 -0.1)">
      <defs>
       <path id="DejaVuSans-54" d="M -19 4666 
L 3928 4666 
L 3928 4134 
L 2272 4134 
L 2272 0 
L 1638 0 
L 1638 4134 
L -19 4134 
L -19 4666 
z
" transform="scale(0.015625)"/>
       <path id="DejaVuSans-6d" d="M 3328 2828 
Q 3544 3216 3844 3400 
Q 4144 3584 4550 3584 
Q 5097 3584 5394 3201 
Q 5691 2819 5691 2113 
L 5691 0 
L 5113 0 
L 5113 2094 
Q 5113 2597 4934 2840 
Q 4756 3084 4391 3084 
Q 3944 3084 3684 2787 
Q 3425 2491 3425 1978 
L 3425 0 
L 2847 0 
L 2847 2094 
Q 2847 2600 2669 2842 
Q 2491 3084 2119 3084 
Q 1678 3084 1418 2786 
Q 1159 2488 1159 1978 
L 1159 0 
L 581 0 
L 581 3500 
L 1159 3500 
L 1159 2956 
Q 1356 3278 1631 3431 
Q 1906 3584 2284 3584 
Q 2666 3584 2933 3390 
Q 3200 3197 3328 2828 
z
" transform="scale(0.015625)"/>
       <path id="DejaVuSans-70" d="M 1159 525 
L 1159 -1331 
L 581 -1331 
L 581 3500 
L 1159 3500 
L 1159 2969 
Q 1341 3281 1617 3432 
Q 1894 3584 2278 3584 
Q 2916 3584 3314 3078 
Q 3713 2572 3713 1747 
Q 3713 922 3314 415 
Q 2916 -91 2278 -91 
Q 1894 -91 1617 61 
Q 1341 213 1159 525 
z
M 3116 1747 
Q 3116 2381 2855 2742 
Q 2594 3103 2138 3103 
Q 1681 3103 1420 2742 
Q 1159 2381 1159 1747 
Q 1159 1113 1420 752 
Q 1681 391 2138 391 
Q 2594 391 2855 752 
Q 3116 1113 3116 1747 
z
" transform="scale(0.015625)"/>
       <path id="DejaVuSans-28" d="M 1984 4856 
Q 1566 4138 1362 3434 
Q 1159 2731 1159 2009 
Q 1159 1288 1364 580 
Q 1569 -128 1984 -844 
L 1484 -844 
Q 1016 -109 783 600 
Q 550 1309 550 2009 
Q 550 2706 781 3412 
Q 1013 4119 1484 4856 
L 1984 4856 
z
" transform="scale(0.015625)"/>
       <path id="DejaVuSans-43" d="M 4122 4306 
L 4122 3641 
Q 3803 3938 3442 4084 
Q 3081 4231 2675 4231 
Q 1875 4231 1450 3742 
Q 1025 3253 1025 2328 
Q 1025 1406 1450 917 
Q 1875 428 2675 428 
Q 3081 428 3442 575 
Q 3803 722 4122 1019 
L 4122 359 
Q 3791 134 3420 21 
Q 3050 -91 2638 -91 
Q 1578 -91 968 557 
Q 359 1206 359 2328 
Q 359 3453 968 4101 
Q 1578 4750 2638 4750 
Q 3056 4750 3426 4639 
Q 3797 4528 4122 4306 
z
" transform="scale(0.015625)"/>
       <path id="DejaVuSans-29" d="M 513 4856 
L 1013 4856 
Q 1481 4119 1714 3412 
Q 1947 2706 1947 2009 
Q 1947 1309 1714 600 
Q 1481 -109 1013 -844 
L 513 -844 
Q 928 -128 1133 580 
Q 1338 1288 1338 2009 
Q 1338 2731 1133 3434 
Q 928 4138 513 4856 
z
" transform="scale(0.015625)"/>
      </defs>
      <use xlink:href="#DejaVuSans-54"/>
      <use xlink:href="#DejaVuSans-65" transform="translate(44.083984 0)"/>
      <use xlink:href="#DejaVuSans-6d" transform="translate(105.607422 0)"/>
      <use xlink:href="#DejaVuSans-70" transform="translate(203.019531 0)"/>
      <use xlink:href="#DejaVuSans-65" transform="translate(266.496094 0)"/>
      <use xlink:href="#DejaVuSans-72" transform="translate(328.019531 0)"/>
      <use xlink:href="#DejaVuSans-61" transform="translate(369.132812 0)"/>
      <use xlink:href="#DejaVuSans-74" transform="translate(430.412109 0)"/>
      <use xlink:href="#DejaVuSans-75" transform="translate(469.621094 0)"/>
      <use xlink:href="#DejaVuSans-72" transform="translate(533 0)"/>
      <use xlink:href="#DejaVuSans-65" transform="translate(571.863281 0)"/>
      <use xlink:href="#DejaVuSans-20" transform="translate(633.386719 0)"/>
      <use xlink:href="#DejaVuSans-28" transform="translate(665.173828 0)"/>
      <use xlink:href="#DejaVuSans-43" transform="translate(704.1875 0)"/>
      <use xlink:href="#DejaVuSans-29" transform="translate(774.011719 0)"/>
     </g>
    </g>
   </g>
   <g id="line2d_35">
    <path d="M 70.598966 117.218639 
L 76.176443 111.955517 
L 81.75392 128.797507 
L 87.331396 139.32375 
L 92.908873 122.481761 
L 98.486349 114.060766 
L 104.063826 110.902893 
L 109.641303 110.902893 
L 115.218779 103.534522 
L 120.796256 105.639771 
L 126.373732 108.797644 
L 131.951209 94.060903 
L 137.528685 94.060903 
L 148.683639 90.90303 
L 154.261115 99.324025 
L 159.838592 105.639771 
L 165.416068 100.376649 
L 176.571022 98.271401 
L 182.148498 93.008279 
L 187.725975 89.850406 
L 193.303451 84.587284 
L 198.880928 90.90303 
L 204.458405 84.587284 
L 210.035881 88.797782 
L 215.613358 84.587284 
L 221.190834 86.692533 
L 226.768311 86.692533 
L 232.345788 83.53466 
L 237.923264 82.482036 
L 243.500741 82.482036 
L 249.078217 76.16629 
L 254.655694 85.639909 
L 260.233171 88.797782 
L 263.021909 90.90303 
L 265.810647 91.955655 
L 271.388124 89.850406 
L 276.9656 86.692533 
L 288.120554 86.692533 
L 293.69803 84.587284 
L 299.275507 83.53466 
L 304.852983 86.692533 
L 310.43046 77.218914 
L 316.007936 96.166152 
L 327.16289 79.324163 
L 332.740366 86.692533 
L 343.895319 88.797782 
L 349.472796 78.271538 
L 355.050273 85.639909 
L 360.627749 82.482036 
L 366.205226 82.482036 
L 377.360179 80.376787 
L 382.937656 83.53466 
L 388.515132 81.429411 
L 394.092609 80.376787 
L 399.670085 76.16629 
L 405.247562 78.271538 
L 410.825039 78.271538 
L 416.402515 73.008417 
L 421.979992 70.903168 
L 427.557468 69.850544 
L 433.134945 74.061041 
L 438.712422 73.008417 
L 441.50116 67.745295 
L 444.289898 63.534797 
L 455.444851 60.376924 
L 461.022328 69.850544 
L 466.599805 75.113665 
L 472.177281 79.324163 
L 477.754758 71.955792 
L 483.332234 78.271538 
L 488.909711 78.271538 
L 494.487187 76.16629 
L 500.064664 73.008417 
L 505.642141 68.797919 
L 511.219617 65.640046 
L 516.797094 63.534797 
L 522.37457 68.797919 
L 527.952047 54.061178 
L 533.529524 60.376924 
L 539.107 56.166427 
L 544.684477 58.271676 
L 550.261953 59.3243 
L 555.83943 62.482173 
L 561.416907 50.903305 
L 566.994383 49.850681 
L 572.57186 63.534797 
L 578.149336 65.640046 
L 583.726813 69.850544 
L 589.30429 70.903168 
L 594.881766 69.850544 
L 600.459243 69.850544 
L 606.036719 70.903168 
L 611.614196 57.219051 
L 617.191673 70.903168 
L 622.769149 76.16629 
L 628.346626 74.061041 
L 633.924102 75.113665 
L 639.501579 74.061041 
L 650.656532 69.850544 
L 656.234009 74.061041 
L 661.811485 74.061041 
L 667.388962 70.903168 
L 672.966439 75.113665 
L 678.543915 71.955792 
L 684.121392 70.903168 
L 689.698868 66.692671 
L 695.276345 70.903168 
L 700.853821 74.061041 
L 712.008775 71.955792 
L 717.586251 68.797919 
L 723.163728 75.113665 
L 728.741204 61.429549 
L 734.318681 58.271676 
L 739.896158 62.482173 
L 745.473634 58.271676 
L 751.051111 62.482173 
L 756.628587 49.850681 
L 762.206064 54.061178 
L 767.783541 55.113803 
L 773.361017 60.376924 
L 778.938494 39.324438 
L 784.51597 57.219051 
L 790.093447 64.587422 
L 795.670924 65.640046 
L 801.2484 60.376924 
L 806.825877 59.3243 
L 812.403353 59.3243 
L 817.98083 53.008554 
L 823.558307 54.061178 
L 829.135783 46.692808 
L 834.71326 50.903305 
L 840.290736 48.798057 
L 845.868213 50.903305 
L 851.44569 48.798057 
L 862.600643 55.113803 
L 868.178119 47.745432 
L 873.755596 56.166427 
L 879.333072 57.219051 
L 884.910549 57.219051 
L 890.488026 61.429549 
L 893.276764 61.429549 
L 896.065502 62.482173 
L 901.642979 61.429549 
L 907.220455 67.745295 
L 912.797932 62.482173 
L 918.375409 67.745295 
L 918.375409 67.745295 
" clip-path="url(#p5bf28a207f)" style="fill: none; stroke: #fdc38d; stroke-opacity: 0.95; stroke-width: 0.936; stroke-linecap: square"/>
   </g>
   <g id="line2d_36">
    <path d="M 70.598966 146.69212 
L 76.176443 145.639496 
L 81.75392 148.797369 
L 87.331396 136.165877 
L 92.908873 142.481623 
L 98.486349 146.69212 
L 104.063826 127.744882 
L 109.641303 141.428999 
L 115.218779 135.113253 
L 120.796256 124.587009 
L 126.373732 126.692258 
L 129.162471 126.692258 
L 131.951209 127.744882 
L 137.528685 116.166015 
L 148.683639 120.376512 
L 154.261115 124.587009 
L 159.838592 130.902755 
L 165.416068 133.008004 
L 170.993545 134.060628 
L 176.571022 131.95538 
L 182.148498 130.902755 
L 187.725975 138.271126 
L 193.303451 135.113253 
L 198.880928 129.850131 
L 204.458405 114.060766 
L 210.035881 116.166015 
L 215.613358 119.323888 
L 221.190834 111.955517 
L 226.768311 107.74502 
L 232.345788 108.797644 
L 237.923264 111.955517 
L 243.500741 105.639771 
L 249.078217 114.060766 
L 254.655694 116.166015 
L 260.233171 117.218639 
L 263.021909 120.376512 
L 265.810647 122.481761 
L 271.388124 116.166015 
L 276.9656 119.323888 
L 288.120554 119.323888 
L 293.69803 115.11339 
L 299.275507 115.11339 
L 304.852983 117.218639 
L 310.43046 114.060766 
L 316.007936 128.797507 
L 327.16289 115.11339 
L 332.740366 124.587009 
L 338.317843 118.271263 
L 343.895319 116.166015 
L 349.472796 117.218639 
L 355.050273 113.008142 
L 360.627749 111.955517 
L 366.205226 109.850269 
L 371.782702 110.902893 
L 377.360179 107.74502 
L 382.937656 111.955517 
L 388.515132 111.955517 
L 394.092609 109.850269 
L 399.670085 109.850269 
L 405.247562 111.955517 
L 410.825039 111.955517 
L 416.402515 116.166015 
L 421.979992 97.218776 
L 427.557468 111.955517 
L 433.134945 110.902893 
L 438.712422 100.376649 
L 441.50116 98.271401 
L 444.289898 97.218776 
L 455.444851 100.376649 
L 461.022328 99.324025 
L 466.599805 107.74502 
L 472.177281 115.11339 
L 477.754758 107.74502 
L 483.332234 115.11339 
L 488.909711 109.850269 
L 494.487187 110.902893 
L 500.064664 96.166152 
L 505.642141 95.113528 
L 511.219617 90.90303 
L 516.797094 100.376649 
L 522.37457 93.008279 
L 527.952047 89.850406 
L 533.529524 89.850406 
L 550.261953 99.324025 
L 555.83943 86.692533 
L 561.416907 93.008279 
L 566.994383 88.797782 
L 572.57186 91.955655 
L 578.149336 99.324025 
L 583.726813 103.534522 
L 594.881766 105.639771 
L 600.459243 99.324025 
L 606.036719 106.692396 
L 611.614196 104.587147 
L 617.191673 104.587147 
L 622.769149 102.481898 
L 628.346626 102.481898 
L 633.924102 103.534522 
L 639.501579 100.376649 
L 650.656532 104.587147 
L 656.234009 107.74502 
L 661.811485 107.74502 
L 667.388962 102.481898 
L 672.966439 106.692396 
L 678.543915 104.587147 
L 684.121392 104.587147 
L 689.698868 99.324025 
L 695.276345 98.271401 
L 700.853821 104.587147 
L 706.431298 102.481898 
L 712.008775 104.587147 
L 717.586251 99.324025 
L 723.163728 102.481898 
L 728.741204 99.324025 
L 734.318681 80.376787 
L 739.896158 88.797782 
L 745.473634 80.376787 
L 751.051111 97.218776 
L 756.628587 85.639909 
L 762.206064 81.429411 
L 767.783541 83.53466 
L 773.361017 80.376787 
L 784.51597 93.008279 
L 790.093447 98.271401 
L 795.670924 93.008279 
L 801.2484 98.271401 
L 806.825877 97.218776 
L 812.403353 105.639771 
L 817.98083 78.271538 
L 823.558307 78.271538 
L 829.135783 71.955792 
L 834.71326 83.53466 
L 840.290736 81.429411 
L 845.868213 89.850406 
L 851.44569 91.955655 
L 857.023166 79.324163 
L 862.600643 80.376787 
L 868.178119 83.53466 
L 873.755596 82.482036 
L 879.333072 79.324163 
L 890.488026 98.271401 
L 896.065502 102.481898 
L 901.642979 93.008279 
L 907.220455 91.955655 
L 912.797932 97.218776 
L 918.375409 96.166152 
L 918.375409 96.166152 
" clip-path="url(#p5bf28a207f)" style="fill: none; stroke: #fdac67; stroke-opacity: 0.95; stroke-width: 0.936; stroke-linecap: square"/>
   </g>
   <g id="line2d_37">
    <path d="M 70.598966 216.165327 
L 76.176443 216.165327 
L 81.75392 213.007454 
L 87.331396 211.95483 
L 92.908873 219.3232 
L 98.486349 205.639084 
L 104.063826 161.428861 
L 109.641303 184.586597 
L 115.218779 166.691983 
L 120.796256 197.218089 
L 126.373732 178.270851 
L 129.162471 180.376099 
L 131.951209 183.533972 
L 137.528685 200.375962 
L 148.683639 199.323338 
L 154.261115 197.218089 
L 159.838592 197.218089 
L 165.416068 199.323338 
L 170.993545 189.849719 
L 176.571022 197.218089 
L 182.148498 190.902343 
L 187.725975 155.113115 
L 193.303451 194.060216 
L 198.880928 181.428724 
L 204.458405 167.744607 
L 210.035881 155.113115 
L 215.613358 164.586734 
L 221.190834 178.270851 
L 226.768311 148.797369 
L 232.345788 173.007729 
L 237.923264 166.691983 
L 243.500741 199.323338 
L 249.078217 180.376099 
L 254.655694 182.481348 
L 260.233171 182.481348 
L 263.021909 177.218226 
L 265.810647 173.007729 
L 271.388124 199.323338 
L 276.9656 196.165465 
L 282.543077 200.375962 
L 288.120554 195.11284 
L 293.69803 200.375962 
L 299.275507 199.323338 
L 304.852983 204.586459 
L 310.43046 191.954967 
L 316.007936 164.586734 
L 327.16289 177.218226 
L 332.740366 177.218226 
L 338.317843 175.112978 
L 343.895319 180.376099 
L 349.472796 177.218226 
L 355.050273 181.428724 
L 360.627749 169.849856 
L 366.205226 174.060353 
L 371.782702 169.849856 
L 377.360179 173.007729 
L 382.937656 178.270851 
L 394.092609 169.849856 
L 405.247562 169.849856 
L 410.825039 166.691983 
L 416.402515 124.587009 
L 421.979992 162.481486 
L 427.557468 120.376512 
L 433.134945 136.165877 
L 438.712422 124.587009 
L 444.289898 143.534247 
L 455.444851 156.16574 
L 461.022328 158.270988 
L 466.599805 166.691983 
L 472.177281 157.218364 
L 477.754758 163.53411 
L 488.909711 165.639359 
L 494.487187 171.955105 
L 500.064664 136.165877 
L 505.642141 99.324025 
L 511.219617 87.745157 
L 516.797094 126.692258 
L 522.37457 148.797369 
L 527.952047 137.218501 
L 533.529524 169.849856 
L 539.107 99.324025 
L 544.684477 120.376512 
L 550.261953 115.11339 
L 555.83943 164.586734 
L 561.416907 169.849856 
L 566.994383 168.797232 
L 572.57186 178.270851 
L 578.149336 171.955105 
L 583.726813 182.481348 
L 589.30429 160.376237 
L 594.881766 163.53411 
L 600.459243 174.060353 
L 606.036719 169.849856 
L 611.614196 162.481486 
L 617.191673 174.060353 
L 622.769149 164.586734 
L 628.346626 167.744607 
L 633.924102 181.428724 
L 639.501579 180.376099 
L 650.656532 175.112978 
L 656.234009 178.270851 
L 661.811485 165.639359 
L 672.966439 169.849856 
L 678.543915 175.112978 
L 684.121392 176.165602 
L 689.698868 167.744607 
L 695.276345 166.691983 
L 700.853821 168.797232 
L 706.431298 175.112978 
L 712.008775 167.744607 
L 717.586251 168.797232 
L 723.163728 163.53411 
L 728.741204 140.376374 
L 734.318681 150.902618 
L 739.896158 95.113528 
L 745.473634 116.166015 
L 751.051111 142.481623 
L 756.628587 145.639496 
L 762.206064 155.113115 
L 767.783541 161.428861 
L 773.361017 166.691983 
L 778.938494 174.060353 
L 784.51597 171.955105 
L 790.093447 168.797232 
L 795.670924 174.060353 
L 801.2484 175.112978 
L 806.825877 167.744607 
L 812.403353 121.429136 
L 817.98083 143.534247 
L 823.558307 100.376649 
L 829.135783 130.902755 
L 834.71326 95.113528 
L 840.290736 118.271263 
L 845.868213 109.850269 
L 851.44569 95.113528 
L 857.023166 99.324025 
L 862.600643 128.797507 
L 868.178119 156.16574 
L 873.755596 164.586734 
L 879.333072 159.323613 
L 884.910549 168.797232 
L 890.488026 164.586734 
L 893.276764 161.428861 
L 896.065502 157.218364 
L 901.642979 162.481486 
L 912.797932 154.060491 
L 918.375409 174.060353 
L 918.375409 174.060353 
" clip-path="url(#p5bf28a207f)" style="fill: none; stroke: #fd9547; stroke-opacity: 0.95; stroke-width: 0.936; stroke-linecap: square"/>
   </g>
   <g id="line2d_38">
    <path d="M 70.598966 93.008279 
L 76.176443 100.376649 
L 81.75392 101.429274 
L 87.331396 114.060766 
L 92.908873 108.797644 
L 98.486349 100.376649 
L 104.063826 109.850269 
L 109.641303 103.534522 
L 115.218779 96.166152 
L 120.796256 103.534522 
L 126.373732 106.692396 
L 129.162471 100.376649 
L 131.951209 95.113528 
L 137.528685 85.639909 
L 148.683639 81.429411 
L 154.261115 89.850406 
L 159.838592 75.113665 
L 165.416068 84.587284 
L 170.993545 77.218914 
L 176.571022 82.482036 
L 182.148498 86.692533 
L 187.725975 88.797782 
L 193.303451 94.060903 
L 198.880928 70.903168 
L 204.458405 75.113665 
L 210.035881 77.218914 
L 215.613358 78.271538 
L 221.190834 69.850544 
L 226.768311 84.587284 
L 232.345788 83.53466 
L 237.923264 73.008417 
L 243.500741 66.692671 
L 249.078217 71.955792 
L 254.655694 54.061178 
L 260.233171 82.482036 
L 263.021909 79.324163 
L 265.810647 77.218914 
L 271.388124 69.850544 
L 276.9656 78.271538 
L 282.543077 76.16629 
L 288.120554 71.955792 
L 293.69803 71.955792 
L 299.275507 77.218914 
L 304.852983 80.376787 
L 310.43046 65.640046 
L 316.007936 85.639909 
L 327.16289 73.008417 
L 332.740366 73.008417 
L 338.317843 76.16629 
L 343.895319 70.903168 
L 349.472796 70.903168 
L 355.050273 66.692671 
L 360.627749 73.008417 
L 366.205226 61.429549 
L 371.782702 64.587422 
L 377.360179 59.3243 
L 382.937656 56.166427 
L 388.515132 62.482173 
L 394.092609 56.166427 
L 399.670085 57.219051 
L 405.247562 60.376924 
L 410.825039 54.061178 
L 416.402515 57.219051 
L 421.979992 35.11394 
L 427.557468 54.061178 
L 433.134945 63.534797 
L 438.712422 54.061178 
L 441.50116 54.061178 
L 444.289898 55.113803 
L 461.022328 55.113803 
L 466.599805 65.640046 
L 472.177281 69.850544 
L 477.754758 62.482173 
L 483.332234 63.534797 
L 488.909711 66.692671 
L 494.487187 55.113803 
L 500.064664 65.640046 
L 505.642141 73.008417 
L 511.219617 55.113803 
L 516.797094 33.008692 
L 527.952047 45.640184 
L 533.529524 50.903305 
L 539.107 55.113803 
L 544.684477 60.376924 
L 550.261953 56.166427 
L 555.83943 50.903305 
L 561.416907 48.798057 
L 566.994383 38.271813 
L 572.57186 56.166427 
L 578.149336 58.271676 
L 580.938075 53.008554 
L 583.726813 46.692808 
L 589.30429 50.903305 
L 594.881766 56.166427 
L 600.459243 53.008554 
L 606.036719 56.166427 
L 611.614196 58.271676 
L 617.191673 64.587422 
L 622.769149 53.008554 
L 628.346626 63.534797 
L 633.924102 56.166427 
L 639.501579 47.745432 
L 650.656532 58.271676 
L 656.234009 48.798057 
L 661.811485 49.850681 
L 667.388962 60.376924 
L 672.966439 75.113665 
L 678.543915 58.271676 
L 684.121392 53.008554 
L 689.698868 42.482311 
L 700.853821 53.008554 
L 706.431298 36.166565 
L 712.008775 41.429686 
L 717.586251 42.482311 
L 723.163728 59.3243 
L 728.741204 63.534797 
L 734.318681 45.640184 
L 739.896158 51.95593 
L 745.473634 48.798057 
L 751.051111 51.95593 
L 756.628587 46.692808 
L 762.206064 43.534935 
L 767.783541 34.061316 
L 773.361017 37.219189 
L 778.938494 42.482311 
L 784.51597 51.95593 
L 790.093447 55.113803 
L 795.670924 54.061178 
L 801.2484 46.692808 
L 806.825877 43.534935 
L 812.403353 55.113803 
L 817.98083 57.219051 
L 823.558307 42.482311 
L 829.135783 37.219189 
L 834.71326 38.271813 
L 840.290736 37.219189 
L 851.44569 26.692946 
L 862.600643 39.324438 
L 868.178119 34.061316 
L 879.333072 40.377062 
L 884.910549 45.640184 
L 890.488026 47.745432 
L 893.276764 42.482311 
L 896.065502 36.166565 
L 901.642979 55.113803 
L 907.220455 53.008554 
L 912.797932 56.166427 
L 918.375409 47.745432 
L 918.375409 47.745432 
" clip-path="url(#p5bf28a207f)" style="fill: none; stroke: #f87d29; stroke-opacity: 0.95; stroke-width: 0.936; stroke-linecap: square"/>
   </g>
   <g id="line2d_39">
    <path d="M 70.598966 134.060628 
L 76.176443 141.428999 
L 81.75392 134.060628 
L 87.331396 140.376374 
L 92.908873 139.32375 
L 98.486349 143.534247 
L 104.063826 135.113253 
L 109.641303 121.429136 
L 115.218779 121.429136 
L 120.796256 116.166015 
L 126.373732 116.166015 
L 129.162471 115.11339 
L 131.951209 115.11339 
L 137.528685 126.692258 
L 148.683639 130.902755 
L 154.261115 127.744882 
L 159.838592 126.692258 
L 165.416068 128.797507 
L 170.993545 127.744882 
L 176.571022 129.850131 
L 182.148498 137.218501 
L 187.725975 114.060766 
L 193.303451 100.376649 
L 198.880928 106.692396 
L 204.458405 106.692396 
L 210.035881 104.587147 
L 215.613358 108.797644 
L 221.190834 104.587147 
L 226.768311 104.587147 
L 232.345788 103.534522 
L 237.923264 100.376649 
L 243.500741 109.850269 
L 249.078217 123.534385 
L 254.655694 124.587009 
L 260.233171 127.744882 
L 265.810647 123.534385 
L 271.388124 129.850131 
L 276.9656 126.692258 
L 282.543077 122.481761 
L 288.120554 121.429136 
L 293.69803 119.323888 
L 299.275507 115.11339 
L 304.852983 113.008142 
L 310.43046 123.534385 
L 316.007936 130.902755 
L 327.16289 130.902755 
L 332.740366 131.95538 
L 338.317843 134.060628 
L 343.895319 131.95538 
L 349.472796 121.429136 
L 355.050273 120.376512 
L 360.627749 116.166015 
L 371.782702 118.271263 
L 377.360179 122.481761 
L 382.937656 117.218639 
L 388.515132 123.534385 
L 394.092609 116.166015 
L 399.670085 116.166015 
L 405.247562 115.11339 
L 410.825039 115.11339 
L 416.402515 107.74502 
L 421.979992 96.166152 
L 427.557468 80.376787 
L 433.134945 91.955655 
L 438.712422 82.482036 
L 441.50116 83.53466 
L 444.289898 85.639909 
L 455.444851 101.429274 
L 461.022328 108.797644 
L 466.599805 107.74502 
L 472.177281 115.11339 
L 477.754758 106.692396 
L 483.332234 115.11339 
L 488.909711 124.587009 
L 494.487187 118.271263 
L 500.064664 108.797644 
L 505.642141 95.113528 
L 511.219617 87.745157 
L 516.797094 94.060903 
L 527.952047 89.850406 
L 533.529524 89.850406 
L 539.107 81.429411 
L 544.684477 84.587284 
L 550.261953 81.429411 
L 555.83943 88.797782 
L 561.416907 95.113528 
L 566.994383 106.692396 
L 572.57186 111.955517 
L 578.149336 109.850269 
L 580.938075 114.060766 
L 583.726813 119.323888 
L 589.30429 108.797644 
L 594.881766 107.74502 
L 600.459243 99.324025 
L 606.036719 89.850406 
L 611.614196 106.692396 
L 617.191673 107.74502 
L 622.769149 103.534522 
L 628.346626 115.11339 
L 633.924102 90.90303 
L 639.501579 94.060903 
L 650.656532 104.587147 
L 656.234009 106.692396 
L 661.811485 104.587147 
L 667.388962 106.692396 
L 672.966439 109.850269 
L 678.543915 105.639771 
L 684.121392 99.324025 
L 689.698868 106.692396 
L 695.276345 108.797644 
L 700.853821 103.534522 
L 706.431298 105.639771 
L 712.008775 103.534522 
L 717.586251 108.797644 
L 723.163728 106.692396 
L 728.741204 98.271401 
L 734.318681 83.53466 
L 739.896158 78.271538 
L 745.473634 74.061041 
L 751.051111 70.903168 
L 756.628587 69.850544 
L 767.783541 86.692533 
L 773.361017 102.481898 
L 778.938494 95.113528 
L 784.51597 103.534522 
L 790.093447 98.271401 
L 801.2484 96.166152 
L 806.825877 103.534522 
L 812.403353 93.008279 
L 817.98083 84.587284 
L 823.558307 81.429411 
L 829.135783 81.429411 
L 834.71326 76.16629 
L 840.290736 81.429411 
L 845.868213 77.218914 
L 851.44569 82.482036 
L 857.023166 83.53466 
L 862.600643 74.061041 
L 868.178119 76.16629 
L 873.755596 88.797782 
L 879.333072 94.060903 
L 890.488026 102.481898 
L 893.276764 98.271401 
L 896.065502 95.113528 
L 901.642979 95.113528 
L 907.220455 100.376649 
L 912.797932 89.850406 
L 918.375409 95.113528 
L 918.375409 95.113528 
" clip-path="url(#p5bf28a207f)" style="fill: none; stroke: #ee6410; stroke-opacity: 0.95; stroke-width: 0.936; stroke-linecap: square"/>
   </g>
   <g id="line2d_40">
    <path d="M 70.598966 144.586872 
L 76.176443 136.165877 
L 81.75392 146.69212 
L 87.331396 153.007867 
L 92.908873 133.008004 
L 98.486349 143.534247 
L 104.063826 125.639634 
L 109.641303 128.797507 
L 115.218779 109.850269 
L 120.796256 107.74502 
L 126.373732 107.74502 
L 129.162471 113.008142 
L 131.951209 119.323888 
L 137.528685 130.902755 
L 148.683639 130.902755 
L 154.261115 140.376374 
L 159.838592 133.008004 
L 165.416068 146.69212 
L 170.993545 127.744882 
L 176.571022 134.060628 
L 182.148498 128.797507 
L 187.725975 128.797507 
L 193.303451 120.376512 
L 204.458405 105.639771 
L 210.035881 111.955517 
L 215.613358 117.218639 
L 221.190834 113.008142 
L 226.768311 114.060766 
L 232.345788 106.692396 
L 237.923264 103.534522 
L 243.500741 107.74502 
L 249.078217 126.692258 
L 254.655694 120.376512 
L 260.233171 111.955517 
L 265.810647 120.376512 
L 271.388124 130.902755 
L 276.9656 115.11339 
L 282.543077 124.587009 
L 288.120554 120.376512 
L 293.69803 125.639634 
L 299.275507 129.850131 
L 304.852983 124.587009 
L 310.43046 130.902755 
L 316.007936 127.744882 
L 327.16289 125.639634 
L 332.740366 111.955517 
L 338.317843 124.587009 
L 343.895319 109.850269 
L 349.472796 116.166015 
L 355.050273 113.008142 
L 360.627749 111.955517 
L 366.205226 120.376512 
L 371.782702 103.534522 
L 377.360179 107.74502 
L 382.937656 105.639771 
L 388.515132 113.008142 
L 394.092609 129.850131 
L 399.670085 103.534522 
L 405.247562 125.639634 
L 410.825039 124.587009 
L 416.402515 100.376649 
L 421.979992 96.166152 
L 427.557468 83.53466 
L 433.134945 91.955655 
L 438.712422 85.639909 
L 441.50116 85.639909 
L 444.289898 84.587284 
L 455.444851 114.060766 
L 461.022328 142.481623 
L 466.599805 128.797507 
L 472.177281 128.797507 
L 477.754758 102.481898 
L 483.332234 125.639634 
L 488.909711 101.429274 
L 494.487187 102.481898 
L 500.064664 101.429274 
L 505.642141 102.481898 
L 511.219617 90.90303 
L 516.797094 96.166152 
L 522.37457 78.271538 
L 527.952047 103.534522 
L 533.529524 84.587284 
L 544.684477 67.745295 
L 550.261953 74.061041 
L 555.83943 101.429274 
L 561.416907 121.429136 
L 566.994383 113.008142 
L 572.57186 131.95538 
L 578.149336 98.271401 
L 583.726813 104.587147 
L 589.30429 101.429274 
L 594.881766 101.429274 
L 600.459243 125.639634 
L 606.036719 114.060766 
L 611.614196 99.324025 
L 617.191673 113.008142 
L 622.769149 102.481898 
L 628.346626 103.534522 
L 633.924102 114.060766 
L 639.501579 117.218639 
L 650.656532 124.587009 
L 656.234009 104.587147 
L 661.811485 96.166152 
L 667.388962 105.639771 
L 672.966439 107.74502 
L 678.543915 105.639771 
L 684.121392 97.218776 
L 689.698868 90.90303 
L 700.853821 111.955517 
L 706.431298 118.271263 
L 712.008775 110.902893 
L 717.586251 91.955655 
L 723.163728 107.74502 
L 728.741204 74.061041 
L 734.318681 79.324163 
L 739.896158 68.797919 
L 745.473634 73.008417 
L 751.051111 68.797919 
L 756.628587 79.324163 
L 762.206064 107.74502 
L 767.783541 115.11339 
L 773.361017 123.534385 
L 778.938494 124.587009 
L 784.51597 116.166015 
L 790.093447 101.429274 
L 795.670924 116.166015 
L 801.2484 93.008279 
L 806.825877 108.797644 
L 812.403353 71.955792 
L 817.98083 74.061041 
L 823.558307 68.797919 
L 829.135783 75.113665 
L 834.71326 83.53466 
L 840.290736 70.903168 
L 845.868213 69.850544 
L 851.44569 81.429411 
L 857.023166 68.797919 
L 862.600643 71.955792 
L 868.178119 73.008417 
L 873.755596 121.429136 
L 879.333072 116.166015 
L 884.910549 114.060766 
L 890.488026 93.008279 
L 893.276764 91.955655 
L 896.065502 91.955655 
L 901.642979 111.955517 
L 907.220455 103.534522 
L 912.797932 110.902893 
L 918.375409 113.008142 
L 918.375409 113.008142 
" clip-path="url(#p5bf28a207f)" style="fill: none; stroke: #dd4d04; stroke-opacity: 0.95; stroke-width: 0.936; stroke-linecap: square"/>
   </g>
   <g id="patch_21">
    <path d="M 53.643438 228.954713 
L 53.643438 17.061433 
" style="fill: none; stroke: #cbd5e1; stroke-width: 0.8; stroke-linejoin: miter; stroke-linecap: square"/>
   </g>
   <g id="patch_22">
    <path d="M 935.330937 228.954713 
L 935.330937 17.061433 
" style="fill: none; stroke: #cbd5e1; stroke-width: 0.8; stroke-linejoin: miter; stroke-linecap: square"/>
   </g>
   <g id="patch_23">
    <path d="M 53.643437 228.954713 
L 935.330937 228.954713 
" style="fill: none; stroke: #cbd5e1; stroke-width: 0.8; stroke-linejoin: miter; stroke-linecap: square"/>
   </g>
   <g id="patch_24">
    <path d="M 53.643437 17.061433 
L 935.330937 17.061433 
" style="fill: none; stroke: #cbd5e1; stroke-width: 0.8; stroke-linejoin: miter; stroke-linecap: square"/>
   </g>
   <g id="text_20">
    <!-- ACC -->
    <g style="fill: #475569" transform="translate(53.868702 13.27875) scale(0.08 -0.08)">
     <defs>
      <path id="DejaVuSans-41" d="M 2188 4044 
L 1331 1722 
L 3047 1722 
L 2188 4044 
z
M 1831 4666 
L 2547 4666 
L 4325 0 
L 3669 0 
L 3244 1197 
L 1141 1197 
L 716 0 
L 50 0 
L 1831 4666 
z
" transform="scale(0.015625)"/>
     </defs>
     <use xlink:href="#DejaVuSans-41"/>
     <use xlink:href="#DejaVuSans-43" transform="translate(66.658203 0)"/>
     <use xlink:href="#DejaVuSans-43" transform="translate(136.482422 0)"/>
    </g>
   </g>
   <g id="text_21">
    <!-- OC -->
    <g style="fill: #475569" transform="translate(81.389521 13.27875) scale(0.08 -0.08)">
     <defs>
      <path id="DejaVuSans-4f" d="M 2522 4238 
Q 1834 4238 1429 3725 
Q 1025 3213 1025 2328 
Q 1025 1447 1429 934 
Q 1834 422 2522 422 
Q 3209 422 3611 934 
Q 4013 1447 4013 2328 
Q 4013 3213 3611 3725 
Q 3209 4238 2522 4238 
z
M 2522 4750 
Q 3503 4750 4090 4092 
Q 4678 3434 4678 2328 
Q 4678 1225 4090 567 
Q 3503 -91 2522 -91 
Q 1538 -91 948 565 
Q 359 1222 359 2328 
Q 359 3434 948 4092 
Q 1538 4750 2522 4750 
z
" transform="scale(0.015625)"/>
     </defs>
     <use xlink:href="#DejaVuSans-4f"/>
     <use xlink:href="#DejaVuSans-43" transform="translate(78.710938 0)"/>
    </g>
   </g>
   <g id="text_22">
    <!-- FCS -->
    <g style="fill: #475569" transform="translate(110.374392 13.27875) scale(0.08 -0.08)">
     <defs>
      <path id="DejaVuSans-46" d="M 628 4666 
L 3309 4666 
L 3309 4134 
L 1259 4134 
L 1259 2759 
L 3109 2759 
L 3109 2228 
L 1259 2228 
L 1259 0 
L 628 0 
L 628 4666 
z
" transform="scale(0.015625)"/>
      <path id="DejaVuSans-53" d="M 3425 4513 
L 3425 3897 
Q 3066 4069 2747 4153 
Q 2428 4238 2131 4238 
Q 1616 4238 1336 4038 
Q 1056 3838 1056 3469 
Q 1056 3159 1242 3001 
Q 1428 2844 1947 2747 
L 2328 2669 
Q 3034 2534 3370 2195 
Q 3706 1856 3706 1288 
Q 3706 609 3251 259 
Q 2797 -91 1919 -91 
Q 1588 -91 1214 -16 
Q 841 59 441 206 
L 441 856 
Q 825 641 1194 531 
Q 1563 422 1919 422 
Q 2459 422 2753 634 
Q 3047 847 3047 1241 
Q 3047 1584 2836 1778 
Q 2625 1972 2144 2069 
L 1759 2144 
Q 1053 2284 737 2584 
Q 422 2884 422 3419 
Q 422 4038 858 4394 
Q 1294 4750 2059 4750 
Q 2388 4750 2728 4690 
Q 3069 4631 3425 4513 
z
" transform="scale(0.015625)"/>
     </defs>
     <use xlink:href="#DejaVuSans-46"/>
     <use xlink:href="#DejaVuSans-43" transform="translate(57.519531 0)"/>
     <use xlink:href="#DejaVuSans-53" transform="translate(127.34375 0)"/>
    </g>
   </g>
   <g id="text_23">
    <!-- SR -->
    <g style="fill: #475569" transform="translate(154.519842 13.27875) scale(0.08 -0.08)">
     <defs>
      <path id="DejaVuSans-52" d="M 2841 2188 
Q 3044 2119 3236 1894 
Q 3428 1669 3622 1275 
L 4263 0 
L 3584 0 
L 2988 1197 
Q 2756 1666 2539 1819 
Q 2322 1972 1947 1972 
L 1259 1972 
L 1259 0 
L 628 0 
L 628 4666 
L 2053 4666 
Q 2853 4666 3247 4331 
Q 3641 3997 3641 3322 
Q 3641 2881 3436 2590 
Q 3231 2300 2841 2188 
z
M 1259 4147 
L 1259 2491 
L 2053 2491 
Q 2509 2491 2742 2702 
Q 2975 2913 2975 3322 
Q 2975 3731 2742 3939 
Q 2509 4147 2053 4147 
L 1259 4147 
z
" transform="scale(0.015625)"/>
     </defs>
     <use xlink:href="#DejaVuSans-53"/>
     <use xlink:href="#DejaVuSans-52" transform="translate(63.476562 0)"/>
    </g>
   </g>
   <g id="text_24">
    <!-- FFC -->
    <g style="fill: #475569" transform="translate(205.430244 13.27875) scale(0.08 -0.08)">
     <use xlink:href="#DejaVuSans-46"/>
     <use xlink:href="#DejaVuSans-46" transform="translate(57.519531 0)"/>
     <use xlink:href="#DejaVuSans-43" transform="translate(115.039062 0)"/>
    </g>
   </g>
   <g id="text_25">
    <!-- SS -->
    <g style="fill: #475569" transform="translate(310.929186 13.27875) scale(0.08 -0.08)">
     <use xlink:href="#DejaVuSans-53"/>
     <use xlink:href="#DejaVuSans-53" transform="translate(63.476562 0)"/>
    </g>
   </g>
   <g id="text_26">
    <!-- OC -->
    <g style="fill: #475569" transform="translate(396.516949 13.27875) scale(0.08 -0.08)">
     <use xlink:href="#DejaVuSans-4f"/>
     <use xlink:href="#DejaVuSans-43" transform="translate(78.710938 0)"/>
    </g>
   </g>
   <g id="text_27">
    <!-- FCS -->
    <g style="fill: #475569" transform="translate(422.713082 13.27875) scale(0.08 -0.08)">
     <use xlink:href="#DejaVuSans-46"/>
     <use xlink:href="#DejaVuSans-43" transform="translate(57.519531 0)"/>
     <use xlink:href="#DejaVuSans-53" transform="translate(127.34375 0)"/>
    </g>
   </g>
   <g id="text_28">
    <!-- SR -->
    <g style="fill: #475569" transform="translate(466.858531 13.27875) scale(0.08 -0.08)">
     <use xlink:href="#DejaVuSans-53"/>
     <use xlink:href="#DejaVuSans-52" transform="translate(63.476562 0)"/>
    </g>
   </g>
   <g id="text_29">
    <!-- FFC -->
    <g style="fill: #475569" transform="translate(520.557672 13.27875) scale(0.08 -0.08)">
     <use xlink:href="#DejaVuSans-46"/>
     <use xlink:href="#DejaVuSans-46" transform="translate(57.519531 0)"/>
     <use xlink:href="#DejaVuSans-43" transform="translate(115.039062 0)"/>
    </g>
   </g>
   <g id="text_30">
    <!-- SS -->
    <g style="fill: #475569" transform="translate(623.267876 13.27875) scale(0.08 -0.08)">
     <use xlink:href="#DejaVuSans-53"/>
     <use xlink:href="#DejaVuSans-53" transform="translate(63.476562 0)"/>
    </g>
   </g>
   <g id="text_31">
    <!-- OC -->
    <g style="fill: #475569" transform="translate(708.855638 13.27875) scale(0.08 -0.08)">
     <use xlink:href="#DejaVuSans-4f"/>
     <use xlink:href="#DejaVuSans-43" transform="translate(78.710938 0)"/>
    </g>
   </g>
   <g id="text_32">
    <!-- FCS -->
    <g style="fill: #475569" transform="translate(737.840509 13.27875) scale(0.08 -0.08)">
     <use xlink:href="#DejaVuSans-46"/>
     <use xlink:href="#DejaVuSans-43" transform="translate(57.519531 0)"/>
     <use xlink:href="#DejaVuSans-53" transform="translate(127.34375 0)"/>
    </g>
   </g>
   <g id="text_33">
    <!-- SR -->
    <g style="fill: #475569" transform="translate(781.985959 13.27875) scale(0.08 -0.08)">
     <use xlink:href="#DejaVuSans-53"/>
     <use xlink:href="#DejaVuSans-52" transform="translate(63.476562 0)"/>
    </g>
   </g>
   <g id="text_34">
    <!-- FFC -->
    <g style="fill: #475569" transform="translate(832.896361 13.27875) scale(0.08 -0.08)">
     <use xlink:href="#DejaVuSans-46"/>
     <use xlink:href="#DejaVuSans-46" transform="translate(57.519531 0)"/>
     <use xlink:href="#DejaVuSans-43" transform="translate(115.039062 0)"/>
    </g>
   </g>
   <g id="text_35">
    <!-- SS -->
    <g style="fill: #475569" transform="translate(888.198014 13.27875) scale(0.08 -0.08)">
     <use xlink:href="#DejaVuSans-53"/>
     <use xlink:href="#DejaVuSans-53" transform="translate(63.476562 0)"/>
    </g>
   </g>
   <g id="legend_1">
    <g id="line2d_41">
     <path d="M 847.378437 27.540183 
L 855.378437 27.540183 
L 863.378437 27.540183 
" style="fill: none; stroke: #fdc38d; stroke-opacity: 0.95; stroke-width: 1.3; stroke-linecap: square"/>
    </g>
    <g id="text_36">
     <!-- T1 -->
     <g transform="translate(869.778437 30.340183) scale(0.08 -0.08)">
      <use xlink:href="#DejaVuSans-54"/>
      <use xlink:href="#DejaVuSans-31" transform="translate(61.083984 0)"/>
     </g>
    </g>
    <g id="line2d_42">
     <path d="M 847.378437 39.282683 
L 855.378437 39.282683 
L 863.378437 39.282683 
" style="fill: none; stroke: #fdac67; stroke-opacity: 0.95; stroke-width: 1.3; stroke-linecap: square"/>
    </g>
    <g id="text_37">
     <!-- T2 -->
     <g transform="translate(869.778437 42.082683) scale(0.08 -0.08)">
      <use xlink:href="#DejaVuSans-54"/>
      <use xlink:href="#DejaVuSans-32" transform="translate(61.083984 0)"/>
     </g>
    </g>
    <g id="line2d_43">
     <path d="M 847.378437 51.025183 
L 855.378437 51.025183 
L 863.378437 51.025183 
" style="fill: none; stroke: #fd9547; stroke-opacity: 0.95; stroke-width: 1.3; stroke-linecap: square"/>
    </g>
    <g id="text_38">
     <!-- T3 -->
     <g transform="translate(869.778437 53.825183) scale(0.08 -0.08)">
      <use xlink:href="#DejaVuSans-54"/>
      <use xlink:href="#DejaVuSans-33" transform="translate(61.083984 0)"/>
     </g>
    </g>
    <g id="line2d_44">
     <path d="M 895.754687 27.540183 
L 903.754687 27.540183 
L 911.754687 27.540183 
" style="fill: none; stroke: #f87d29; stroke-opacity: 0.95; stroke-width: 1.3; stroke-linecap: square"/>
    </g>
    <g id="text_39">
     <!-- T4 -->
     <g transform="translate(918.154687 30.340183) scale(0.08 -0.08)">
      <use xlink:href="#DejaVuSans-54"/>
      <use xlink:href="#DejaVuSans-34" transform="translate(61.083984 0)"/>
     </g>
    </g>
    <g id="line2d_45">
     <path d="M 895.754687 39.282683 
L 903.754687 39.282683 
L 911.754687 39.282683 
" style="fill: none; stroke: #ee6410; stroke-opacity: 0.95; stroke-width: 1.3; stroke-linecap: square"/>
    </g>
    <g id="text_40">
     <!-- T5 -->
     <g transform="translate(918.154687 42.082683) scale(0.08 -0.08)">
      <use xlink:href="#DejaVuSans-54"/>
      <use xlink:href="#DejaVuSans-35" transform="translate(61.083984 0)"/>
     </g>
    </g>
    <g id="line2d_46">
     <path d="M 895.754687 51.025183 
L 903.754687 51.025183 
L 911.754687 51.025183 
" style="fill: none; stroke: #dd4d04; stroke-opacity: 0.95; stroke-width: 1.3; stroke-linecap: square"/>
    </g>
    <g id="text_41">
     <!-- T6 -->
     <g transform="translate(918.154687 53.825183) scale(0.08 -0.08)">
      <use xlink:href="#DejaVuSans-54"/>
      <use xlink:href="#DejaVuSans-36" transform="translate(61.083984 0)"/>
     </g>
    </g>
   </g>
  </g>
 </g>
 <defs>
  <clipPath id="p5bf28a207f">
   <rect x="53.643438" y="17.061433" width="881.6875" height="211.89328"/>
  </clipPath>
 </defs>
</svg>
