<?xml version="1.0" encoding="utf-8" standalone="no"?>
<!DOCTYPE svg PUBLIC "-//W3C//DTD SVG 1.1//EN"
  "http://www.w3.org/Graphics/SVG/1.1/DTD/svg11.dtd">
<svg xmlns:xlink="http://www.w3.org/1999/xlink" width="942.530937pt" height="265.54315pt" viewBox="0 0 942.530937 265.54315" xmlns="http://www.w3.org/2000/svg" version="1.1">
 <metadata>
  <rdf:RDF xmlns:dc="http://purl.org/dc/elements/1.1/" xmlns:cc="http://creativecommons.org/ns#" xmlns:rdf="http://www.w3.org/1999/02/22-rdf-syntax-ns#">
   <cc:Work>
    <dc:type rdf:resource="http://purl.org/dc/dcmitype/StillImage"/>
    <dc:date>2026-04-17T17:40:22.219713</dc:date>
    <dc:format>image/svg+xml</dc:format>
    <dc:creator>
     <cc:Agent>
      <dc:title>Matplotlib v3.10.8, https://matplotlib.org/</dc:title>
     </cc:Agent>
    </dc:creator>
   </cc:Work>
  </rdf:RDF>
 </metadata>
 <defs>
  <style type="text/css">*{stroke-linejoin: round; stroke-linecap: butt}</style>
 </defs>
 <g id="figure_1">
  <g id="patch_1">
   <path d="M 0 265.54315 
L 942.530937 265.54315 
L 942.530937 0 
L 0 0 
z
" style="fill: #ffffff"/>
  </g>
  <g id="axes_1">
   <g id="patch_2">
    <path d="M 53.643438 228.954713 
L 935.330937 228.954713 
L 935.330937 17.061433 
L 53.643438 17.061433 
z
" style="fill: #ffffff"/>
   </g>
   <g id="patch_3">
    <path d="M 53.643438 228.954713 
L 70.598966 228.954713 
L 70.598966 17.061433 
L 53.643438 17.061433 
z
" clip-path="url(#pe3141e3c83)" style="fill: #f8fafc; opacity: 0.45"/>
   </g>
   <g id="patch_4">
    <path d="M 70.598966 228.954713 
L 103.845101 228.954713 
L 103.845101 17.061433 
L 70.598966 17.061433 
z
" clip-path="url(#pe3141e3c83)" style="fill: #eff6ff; opacity: 0.45"/>
   </g>
   <g id="patch_5">
    <path d="M 103.845101 228.954713 
L 137.091236 228.954713 
L 137.091236 17.061433 
L 103.845101 17.061433 
z
" clip-path="url(#pe3141e3c83)" style="fill: #fef3c7; opacity: 0.45"/>
   </g>
   <g id="patch_6">
    <path d="M 137.091236 228.954713 
L 192.501461 228.954713 
L 192.501461 17.061433 
L 137.091236 17.061433 
z
" clip-path="url(#pe3141e3c83)" style="fill: #dcfce7; opacity: 0.45"/>
   </g>
   <g id="patch_7">
    <path d="M 192.501461 228.954713 
L 247.911686 228.954713 
L 247.911686 17.061433 
L 192.501461 17.061433 
z
" clip-path="url(#pe3141e3c83)" style="fill: #fee2e2; opacity: 0.45"/>
   </g>
   <g id="patch_8">
    <path d="M 247.911686 228.954713 
L 386.437249 228.954713 
L 386.437249 17.061433 
L 247.911686 17.061433 
z
" clip-path="url(#pe3141e3c83)" style="fill: #ede9fe; opacity: 0.45"/>
   </g>
   <g id="patch_9">
    <path d="M 386.437249 228.954713 
L 414.142361 228.954713 
L 414.142361 17.061433 
L 386.437249 17.061433 
z
" clip-path="url(#pe3141e3c83)" style="fill: #f8fafc; opacity: 0.45"/>
   </g>
   <g id="patch_10">
    <path d="M 414.142361 228.954713 
L 447.388496 228.954713 
L 447.388496 17.061433 
L 414.142361 17.061433 
z
" clip-path="url(#pe3141e3c83)" style="fill: #eff6ff; opacity: 0.45"/>
   </g>
   <g id="patch_11">
    <path d="M 447.388496 228.954713 
L 502.798721 228.954713 
L 502.798721 17.061433 
L 447.388496 17.061433 
z
" clip-path="url(#pe3141e3c83)" style="fill: #fef3c7; opacity: 0.45"/>
   </g>
   <g id="patch_12">
    <path d="M 502.798721 228.954713 
L 558.208946 228.954713 
L 558.208946 17.061433 
L 502.798721 17.061433 
z
" clip-path="url(#pe3141e3c83)" style="fill: #dcfce7; opacity: 0.45"/>
   </g>
   <g id="patch_13">
    <path d="M 558.208946 228.954713 
L 696.734509 228.954713 
L 696.734509 17.061433 
L 558.208946 17.061433 
z
" clip-path="url(#pe3141e3c83)" style="fill: #fee2e2; opacity: 0.45"/>
   </g>
   <g id="patch_14">
    <path d="M 696.734509 228.954713 
L 724.439621 228.954713 
L 724.439621 17.061433 
L 696.734509 17.061433 
z
" clip-path="url(#pe3141e3c83)" style="fill: #ede9fe; opacity: 0.45"/>
   </g>
   <g id="patch_15">
    <path d="M 724.439621 228.954713 
L 757.685756 228.954713 
L 757.685756 17.061433 
L 724.439621 17.061433 
z
" clip-path="url(#pe3141e3c83)" style="fill: #f8fafc; opacity: 0.45"/>
   </g>
   <g id="patch_16">
    <path d="M 757.685756 228.954713 
L 813.095981 228.954713 
L 813.095981 17.061433 
L 757.685756 17.061433 
z
" clip-path="url(#pe3141e3c83)" style="fill: #eff6ff; opacity: 0.45"/>
   </g>
   <g id="patch_17">
    <path d="M 813.095981 228.954713 
L 868.506206 228.954713 
L 868.506206 17.061433 
L 813.095981 17.061433 
z
" clip-path="url(#pe3141e3c83)" style="fill: #fef3c7; opacity: 0.45"/>
   </g>
   <g id="patch_18">
    <path d="M 868.506206 228.954713 
L 918.375409 228.954713 
L 918.375409 17.061433 
L 868.506206 17.061433 
z
" clip-path="url(#pe3141e3c83)" style="fill: #dcfce7; opacity: 0.45"/>
   </g>
   <g id="patch_19">
    <path d="M 918.375409 228.954713 
L 923.916431 228.954713 
L 923.916431 17.061433 
L 918.375409 17.061433 
z
" clip-path="url(#pe3141e3c83)" style="fill: #fee2e2; opacity: 0.45"/>
   </g>
   <g id="matplotlib.axis_1">
    <g id="xtick_1">
     <g id="line2d_1">
      <path d="M 70.598966 228.954713 
L 70.598966 17.061433 
" clip-path="url(#pe3141e3c83)" style="fill: none; stroke: #eef2f7; stroke-width: 0.55; stroke-linecap: square"/>
     </g>
     <g id="line2d_2">
      <defs>
       <path id="mece0f5af9d" d="M 0 0 
L 0 3.5 
" style="stroke: #000000; stroke-width: 0.8"/>
      </defs>
      <g>
       <use xlink:href="#mece0f5af9d" x="70.598966" y="228.954713" style="stroke: #000000; stroke-width: 0.8"/>
      </g>
     </g>
     <g id="text_1">
      <!-- 40 -->
      <g transform="translate(64.872716 242.793307) scale(0.09 -0.09)">
       <defs>
        <path id="DejaVuSans-34" d="M 2419 4116 
L 825 1625 
L 2419 1625 
L 2419 4116 
z
M 2253 4666 
L 3047 4666 
L 3047 1625 
L 3713 1625 
L 3713 1100 
L 3047 1100 
L 3047 0 
L 2419 0 
L 2419 1100 
L 313 1100 
L 313 1709 
L 2253 4666 
z
" transform="scale(0.015625)"/>
        <path id="DejaVuSans-30" d="M 2034 4250 
Q 1547 4250 1301 3770 
Q 1056 3291 1056 2328 
Q 1056 1369 1301 889 
Q 1547 409 2034 409 
Q 2525 409 2770 889 
Q 3016 1369 3016 2328 
Q 3016 3291 2770 3770 
Q 2525 4250 2034 4250 
z
M 2034 4750 
Q 2819 4750 3233 4129 
Q 3647 3509 3647 2328 
Q 3647 1150 3233 529 
Q 2819 -91 2034 -91 
Q 1250 -91 836 529 
Q 422 1150 422 2328 
Q 422 3509 836 4129 
Q 1250 4750 2034 4750 
z
" transform="scale(0.015625)"/>
       </defs>
       <use xlink:href="#DejaVuSans-34"/>
       <use xlink:href="#DejaVuSans-30" transform="translate(63.623047 0)"/>
      </g>
     </g>
    </g>
    <g id="xtick_2">
     <g id="line2d_3">
      <path d="M 181.419416 228.954713 
L 181.419416 17.061433 
" clip-path="url(#pe3141e3c83)" style="fill: none; stroke: #eef2f7; stroke-width: 0.55; stroke-linecap: square"/>
     </g>
     <g id="line2d_4">
      <g>
       <use xlink:href="#mece0f5af9d" x="181.419416" y="228.954713" style="stroke: #000000; stroke-width: 0.8"/>
      </g>
     </g>
     <g id="text_2">
      <!-- 60 -->
      <g transform="translate(175.693166 242.793307) scale(0.09 -0.09)">
       <defs>
        <path id="DejaVuSans-36" d="M 2113 2584 
Q 1688 2584 1439 2293 
Q 1191 2003 1191 1497 
Q 1191 994 1439 701 
Q 1688 409 2113 409 
Q 2538 409 2786 701 
Q 3034 994 3034 1497 
Q 3034 2003 2786 2293 
Q 2538 2584 2113 2584 
z
M 3366 4563 
L 3366 3988 
Q 3128 4100 2886 4159 
Q 2644 4219 2406 4219 
Q 1781 4219 1451 3797 
Q 1122 3375 1075 2522 
Q 1259 2794 1537 2939 
Q 1816 3084 2150 3084 
Q 2853 3084 3261 2657 
Q 3669 2231 3669 1497 
Q 3669 778 3244 343 
Q 2819 -91 2113 -91 
Q 1303 -91 875 529 
Q 447 1150 447 2328 
Q 447 3434 972 4092 
Q 1497 4750 2381 4750 
Q 2619 4750 2861 4703 
Q 3103 4656 3366 4563 
z
" transform="scale(0.015625)"/>
       </defs>
       <use xlink:href="#DejaVuSans-36"/>
       <use xlink:href="#DejaVuSans-30" transform="translate(63.623047 0)"/>
      </g>
     </g>
    </g>
    <g id="xtick_3">
     <g id="line2d_5">
      <path d="M 292.239866 228.954713 
L 292.239866 17.061433 
" clip-path="url(#pe3141e3c83)" style="fill: none; stroke: #eef2f7; stroke-width: 0.55; stroke-linecap: square"/>
     </g>
     <g id="line2d_6">
      <g>
       <use xlink:href="#mece0f5af9d" x="292.239866" y="228.954713" style="stroke: #000000; stroke-width: 0.8"/>
      </g>
     </g>
     <g id="text_3">
      <!-- 80 -->
      <g transform="translate(286.513616 242.793307) scale(0.09 -0.09)">
       <defs>
        <path id="DejaVuSans-38" d="M 2034 2216 
Q 1584 2216 1326 1975 
Q 1069 1734 1069 1313 
Q 1069 891 1326 650 
Q 1584 409 2034 409 
Q 2484 409 2743 651 
Q 3003 894 3003 1313 
Q 3003 1734 2745 1975 
Q 2488 2216 2034 2216 
z
M 1403 2484 
Q 997 2584 770 2862 
Q 544 3141 544 3541 
Q 544 4100 942 4425 
Q 1341 4750 2034 4750 
Q 2731 4750 3128 4425 
Q 3525 4100 3525 3541 
Q 3525 3141 3298 2862 
Q 3072 2584 2669 2484 
Q 3125 2378 3379 2068 
Q 3634 1759 3634 1313 
Q 3634 634 3220 271 
Q 2806 -91 2034 -91 
Q 1263 -91 848 271 
Q 434 634 434 1313 
Q 434 1759 690 2068 
Q 947 2378 1403 2484 
z
M 1172 3481 
Q 1172 3119 1398 2916 
Q 1625 2713 2034 2713 
Q 2441 2713 2670 2916 
Q 2900 3119 2900 3481 
Q 2900 3844 2670 4047 
Q 2441 4250 2034 4250 
Q 1625 4250 1398 4047 
Q 1172 3844 1172 3481 
z
" transform="scale(0.015625)"/>
       </defs>
       <use xlink:href="#DejaVuSans-38"/>
       <use xlink:href="#DejaVuSans-30" transform="translate(63.623047 0)"/>
      </g>
     </g>
    </g>
    <g id="xtick_4">
     <g id="line2d_7">
      <path d="M 403.060316 228.954713 
L 403.060316 17.061433 
" clip-path="url(#pe3141e3c83)" style="fill: none; stroke: #eef2f7; stroke-width: 0.55; stroke-linecap: square"/>
     </g>
     <g id="line2d_8">
      <g>
       <use xlink:href="#mece0f5af9d" x="403.060316" y="228.954713" style="stroke: #000000; stroke-width: 0.8"/>
      </g>
     </g>
     <g id="text_4">
      <!-- 100 -->
      <g transform="translate(394.470941 242.793307) scale(0.09 -0.09)">
       <defs>
        <path id="DejaVuSans-31" d="M 794 531 
L 1825 531 
L 1825 4091 
L 703 3866 
L 703 4441 
L 1819 4666 
L 2450 4666 
L 2450 531 
L 3481 531 
L 3481 0 
L 794 0 
L 794 531 
z
" transform="scale(0.015625)"/>
       </defs>
       <use xlink:href="#DejaVuSans-31"/>
       <use xlink:href="#DejaVuSans-30" transform="translate(63.623047 0)"/>
       <use xlink:href="#DejaVuSans-30" transform="translate(127.246094 0)"/>
      </g>
     </g>
    </g>
    <g id="xtick_5">
     <g id="line2d_9">
      <path d="M 513.880766 228.954713 
L 513.880766 17.061433 
" clip-path="url(#pe3141e3c83)" style="fill: none; stroke: #eef2f7; stroke-width: 0.55; stroke-linecap: square"/>
     </g>
     <g id="line2d_10">
      <g>
       <use xlink:href="#mece0f5af9d" x="513.880766" y="228.954713" style="stroke: #000000; stroke-width: 0.8"/>
      </g>
     </g>
     <g id="text_5">
      <!-- 120 -->
      <g transform="translate(505.291391 242.793307) scale(0.09 -0.09)">
       <defs>
        <path id="DejaVuSans-32" d="M 1228 531 
L 3431 531 
L 3431 0 
L 469 0 
L 469 531 
Q 828 903 1448 1529 
Q 2069 2156 2228 2338 
Q 2531 2678 2651 2914 
Q 2772 3150 2772 3378 
Q 2772 3750 2511 3984 
Q 2250 4219 1831 4219 
Q 1534 4219 1204 4116 
Q 875 4013 500 3803 
L 500 4441 
Q 881 4594 1212 4672 
Q 1544 4750 1819 4750 
Q 2544 4750 2975 4387 
Q 3406 4025 3406 3419 
Q 3406 3131 3298 2873 
Q 3191 2616 2906 2266 
Q 2828 2175 2409 1742 
Q 1991 1309 1228 531 
z
" transform="scale(0.015625)"/>
       </defs>
       <use xlink:href="#DejaVuSans-31"/>
       <use xlink:href="#DejaVuSans-32" transform="translate(63.623047 0)"/>
       <use xlink:href="#DejaVuSans-30" transform="translate(127.246094 0)"/>
      </g>
     </g>
    </g>
    <g id="xtick_6">
     <g id="line2d_11">
      <path d="M 624.701216 228.954713 
L 624.701216 17.061433 
" clip-path="url(#pe3141e3c83)" style="fill: none; stroke: #eef2f7; stroke-width: 0.55; stroke-linecap: square"/>
     </g>
     <g id="line2d_12">
      <g>
       <use xlink:href="#mece0f5af9d" x="624.701216" y="228.954713" style="stroke: #000000; stroke-width: 0.8"/>
      </g>
     </g>
     <g id="text_6">
      <!-- 140 -->
      <g transform="translate(616.111841 242.793307) scale(0.09 -0.09)">
       <use xlink:href="#DejaVuSans-31"/>
       <use xlink:href="#DejaVuSans-34" transform="translate(63.623047 0)"/>
       <use xlink:href="#DejaVuSans-30" transform="translate(127.246094 0)"/>
      </g>
     </g>
    </g>
    <g id="xtick_7">
     <g id="line2d_13">
      <path d="M 735.521666 228.954713 
L 735.521666 17.061433 
" clip-path="url(#pe3141e3c83)" style="fill: none; stroke: #eef2f7; stroke-width: 0.55; stroke-linecap: square"/>
     </g>
     <g id="line2d_14">
      <g>
       <use xlink:href="#mece0f5af9d" x="735.521666" y="228.954713" style="stroke: #000000; stroke-width: 0.8"/>
      </g>
     </g>
     <g id="text_7">
      <!-- 160 -->
      <g transform="translate(726.932291 242.793307) scale(0.09 -0.09)">
       <use xlink:href="#DejaVuSans-31"/>
       <use xlink:href="#DejaVuSans-36" transform="translate(63.623047 0)"/>
       <use xlink:href="#DejaVuSans-30" transform="translate(127.246094 0)"/>
      </g>
     </g>
    </g>
    <g id="xtick_8">
     <g id="line2d_15">
      <path d="M 846.342116 228.954713 
L 846.342116 17.061433 
" clip-path="url(#pe3141e3c83)" style="fill: none; stroke: #eef2f7; stroke-width: 0.55; stroke-linecap: square"/>
     </g>
     <g id="line2d_16">
      <g>
       <use xlink:href="#mece0f5af9d" x="846.342116" y="228.954713" style="stroke: #000000; stroke-width: 0.8"/>
      </g>
     </g>
     <g id="text_8">
      <!-- 180 -->
      <g transform="translate(837.752741 242.793307) scale(0.09 -0.09)">
       <use xlink:href="#DejaVuSans-31"/>
       <use xlink:href="#DejaVuSans-38" transform="translate(63.623047 0)"/>
       <use xlink:href="#DejaVuSans-30" transform="translate(127.246094 0)"/>
      </g>
     </g>
    </g>
    <g id="text_9">
     <!-- Minutes since session start -->
     <g transform="translate(426.897344 256.263463) scale(0.1 -0.1)">
      <defs>
       <path id="DejaVuSans-4d" d="M 628 4666 
L 1569 4666 
L 2759 1491 
L 3956 4666 
L 4897 4666 
L 4897 0 
L 4281 0 
L 4281 4097 
L 3078 897 
L 2444 897 
L 1241 4097 
L 1241 0 
L 628 0 
L 628 4666 
z
" transform="scale(0.015625)"/>
       <path id="DejaVuSans-69" d="M 603 3500 
L 1178 3500 
L 1178 0 
L 603 0 
L 603 3500 
z
M 603 4863 
L 1178 4863 
L 1178 4134 
L 603 4134 
L 603 4863 
z
" transform="scale(0.015625)"/>
       <path id="DejaVuSans-6e" d="M 3513 2113 
L 3513 0 
L 2938 0 
L 2938 2094 
Q 2938 2591 2744 2837 
Q 2550 3084 2163 3084 
Q 1697 3084 1428 2787 
Q 1159 2491 1159 1978 
L 1159 0 
L 581 0 
L 581 3500 
L 1159 3500 
L 1159 2956 
Q 1366 3272 1645 3428 
Q 1925 3584 2291 3584 
Q 2894 3584 3203 3211 
Q 3513 2838 3513 2113 
z
" transform="scale(0.015625)"/>
       <path id="DejaVuSans-75" d="M 544 1381 
L 544 3500 
L 1119 3500 
L 1119 1403 
Q 1119 906 1312 657 
Q 1506 409 1894 409 
Q 2359 409 2629 706 
Q 2900 1003 2900 1516 
L 2900 3500 
L 3475 3500 
L 3475 0 
L 2900 0 
L 2900 538 
Q 2691 219 2414 64 
Q 2138 -91 1772 -91 
Q 1169 -91 856 284 
Q 544 659 544 1381 
z
M 1991 3584 
L 1991 3584 
z
" transform="scale(0.015625)"/>
       <path id="DejaVuSans-74" d="M 1172 4494 
L 1172 3500 
L 2356 3500 
L 2356 3053 
L 1172 3053 
L 1172 1153 
Q 1172 725 1289 603 
Q 1406 481 1766 481 
L 2356 481 
L 2356 0 
L 1766 0 
Q 1100 0 847 248 
Q 594 497 594 1153 
L 594 3053 
L 172 3053 
L 172 3500 
L 594 3500 
L 594 4494 
L 1172 4494 
z
" transform="scale(0.015625)"/>
       <path id="DejaVuSans-65" d="M 3597 1894 
L 3597 1613 
L 953 1613 
Q 991 1019 1311 708 
Q 1631 397 2203 397 
Q 2534 397 2845 478 
Q 3156 559 3463 722 
L 3463 178 
Q 3153 47 2828 -22 
Q 2503 -91 2169 -91 
Q 1331 -91 842 396 
Q 353 884 353 1716 
Q 353 2575 817 3079 
Q 1281 3584 2069 3584 
Q 2775 3584 3186 3129 
Q 3597 2675 3597 1894 
z
M 3022 2063 
Q 3016 2534 2758 2815 
Q 2500 3097 2075 3097 
Q 1594 3097 1305 2825 
Q 1016 2553 972 2059 
L 3022 2063 
z
" transform="scale(0.015625)"/>
       <path id="DejaVuSans-73" d="M 2834 3397 
L 2834 2853 
Q 2591 2978 2328 3040 
Q 2066 3103 1784 3103 
Q 1356 3103 1142 2972 
Q 928 2841 928 2578 
Q 928 2378 1081 2264 
Q 1234 2150 1697 2047 
L 1894 2003 
Q 2506 1872 2764 1633 
Q 3022 1394 3022 966 
Q 3022 478 2636 193 
Q 2250 -91 1575 -91 
Q 1294 -91 989 -36 
Q 684 19 347 128 
L 347 722 
Q 666 556 975 473 
Q 1284 391 1588 391 
Q 1994 391 2212 530 
Q 2431 669 2431 922 
Q 2431 1156 2273 1281 
Q 2116 1406 1581 1522 
L 1381 1569 
Q 847 1681 609 1914 
Q 372 2147 372 2553 
Q 372 3047 722 3315 
Q 1072 3584 1716 3584 
Q 2034 3584 2315 3537 
Q 2597 3491 2834 3397 
z
" transform="scale(0.015625)"/>
       <path id="DejaVuSans-20" transform="scale(0.015625)"/>
       <path id="DejaVuSans-63" d="M 3122 3366 
L 3122 2828 
Q 2878 2963 2633 3030 
Q 2388 3097 2138 3097 
Q 1578 3097 1268 2742 
Q 959 2388 959 1747 
Q 959 1106 1268 751 
Q 1578 397 2138 397 
Q 2388 397 2633 464 
Q 2878 531 3122 666 
L 3122 134 
Q 2881 22 2623 -34 
Q 2366 -91 2075 -91 
Q 1284 -91 818 406 
Q 353 903 353 1747 
Q 353 2603 823 3093 
Q 1294 3584 2113 3584 
Q 2378 3584 2631 3529 
Q 2884 3475 3122 3366 
z
" transform="scale(0.015625)"/>
       <path id="DejaVuSans-6f" d="M 1959 3097 
Q 1497 3097 1228 2736 
Q 959 2375 959 1747 
Q 959 1119 1226 758 
Q 1494 397 1959 397 
Q 2419 397 2687 759 
Q 2956 1122 2956 1747 
Q 2956 2369 2687 2733 
Q 2419 3097 1959 3097 
z
M 1959 3584 
Q 2709 3584 3137 3096 
Q 3566 2609 3566 1747 
Q 3566 888 3137 398 
Q 2709 -91 1959 -91 
Q 1206 -91 779 398 
Q 353 888 353 1747 
Q 353 2609 779 3096 
Q 1206 3584 1959 3584 
z
" transform="scale(0.015625)"/>
       <path id="DejaVuSans-61" d="M 2194 1759 
Q 1497 1759 1228 1600 
Q 959 1441 959 1056 
Q 959 750 1161 570 
Q 1363 391 1709 391 
Q 2188 391 2477 730 
Q 2766 1069 2766 1631 
L 2766 1759 
L 2194 1759 
z
M 3341 1997 
L 3341 0 
L 2766 0 
L 2766 531 
Q 2569 213 2275 61 
Q 1981 -91 1556 -91 
Q 1019 -91 701 211 
Q 384 513 384 1019 
Q 384 1609 779 1909 
Q 1175 2209 1959 2209 
L 2766 2209 
L 2766 2266 
Q 2766 2663 2505 2880 
Q 2244 3097 1772 3097 
Q 1472 3097 1187 3025 
Q 903 2953 641 2809 
L 641 3341 
Q 956 3463 1253 3523 
Q 1550 3584 1831 3584 
Q 2591 3584 2966 3190 
Q 3341 2797 3341 1997 
z
" transform="scale(0.015625)"/>
       <path id="DejaVuSans-72" d="M 2631 2963 
Q 2534 3019 2420 3045 
Q 2306 3072 2169 3072 
Q 1681 3072 1420 2755 
Q 1159 2438 1159 1844 
L 1159 0 
L 581 0 
L 581 3500 
L 1159 3500 
L 1159 2956 
Q 1341 3275 1631 3429 
Q 1922 3584 2338 3584 
Q 2397 3584 2469 3576 
Q 2541 3569 2628 3553 
L 2631 2963 
z
" transform="scale(0.015625)"/>
      </defs>
      <use xlink:href="#DejaVuSans-4d"/>
      <use xlink:href="#DejaVuSans-69" transform="translate(86.279297 0)"/>
      <use xlink:href="#DejaVuSans-6e" transform="translate(114.0625 0)"/>
      <use xlink:href="#DejaVuSans-75" transform="translate(177.441406 0)"/>
      <use xlink:href="#DejaVuSans-74" transform="translate(240.820312 0)"/>
      <use xlink:href="#DejaVuSans-65" transform="translate(280.029297 0)"/>
      <use xlink:href="#DejaVuSans-73" transform="translate(341.552734 0)"/>
      <use xlink:href="#DejaVuSans-20" transform="translate(393.652344 0)"/>
      <use xlink:href="#DejaVuSans-73" transform="translate(425.439453 0)"/>
      <use xlink:href="#DejaVuSans-69" transform="translate(477.539062 0)"/>
      <use xlink:href="#DejaVuSans-6e" transform="translate(505.322266 0)"/>
      <use xlink:href="#DejaVuSans-63" transform="translate(568.701172 0)"/>
      <use xlink:href="#DejaVuSans-65" transform="translate(623.681641 0)"/>
      <use xlink:href="#DejaVuSans-20" transform="translate(685.205078 0)"/>
      <use xlink:href="#DejaVuSans-73" transform="translate(716.992188 0)"/>
      <use xlink:href="#DejaVuSans-65" transform="translate(769.091797 0)"/>
      <use xlink:href="#DejaVuSans-73" transform="translate(830.615234 0)"/>
      <use xlink:href="#DejaVuSans-73" transform="translate(882.714844 0)"/>
      <use xlink:href="#DejaVuSans-69" transform="translate(934.814453 0)"/>
      <use xlink:href="#DejaVuSans-6f" transform="translate(962.597656 0)"/>
      <use xlink:href="#DejaVuSans-6e" transform="translate(1023.779297 0)"/>
      <use xlink:href="#DejaVuSans-20" transform="translate(1087.158203 0)"/>
      <use xlink:href="#DejaVuSans-73" transform="translate(1118.945312 0)"/>
      <use xlink:href="#DejaVuSans-74" transform="translate(1171.044922 0)"/>
      <use xlink:href="#DejaVuSans-61" transform="translate(1210.253906 0)"/>
      <use xlink:href="#DejaVuSans-72" transform="translate(1271.533203 0)"/>
      <use xlink:href="#DejaVuSans-74" transform="translate(1312.646484 0)"/>
     </g>
    </g>
   </g>
   <g id="matplotlib.axis_2">
    <g id="ytick_1">
     <g id="line2d_17">
      <path d="M 53.643438 223.777079 
L 935.330937 223.777079 
" clip-path="url(#pe3141e3c83)" style="fill: none; stroke: #eef2f7; stroke-opacity: 0.25; stroke-width: 0.55; stroke-linecap: square"/>
     </g>
     <g id="line2d_18">
      <defs>
       <path id="m4c3ab27829" d="M 0 0 
L -3.5 0 
" style="stroke: #000000; stroke-width: 0.8"/>
      </defs>
      <g>
       <use xlink:href="#m4c3ab27829" x="53.643438" y="223.777079" style="stroke: #000000; stroke-width: 0.8"/>
      </g>
     </g>
     <g id="text_10">
      <!-- 29.25 -->
      <g transform="translate(20.878125 227.196376) scale(0.09 -0.09)">
       <defs>
        <path id="DejaVuSans-39" d="M 703 97 
L 703 672 
Q 941 559 1184 500 
Q 1428 441 1663 441 
Q 2288 441 2617 861 
Q 2947 1281 2994 2138 
Q 2813 1869 2534 1725 
Q 2256 1581 1919 1581 
Q 1219 1581 811 2004 
Q 403 2428 403 3163 
Q 403 3881 828 4315 
Q 1253 4750 1959 4750 
Q 2769 4750 3195 4129 
Q 3622 3509 3622 2328 
Q 3622 1225 3098 567 
Q 2575 -91 1691 -91 
Q 1453 -91 1209 -44 
Q 966 3 703 97 
z
M 1959 2075 
Q 2384 2075 2632 2365 
Q 2881 2656 2881 3163 
Q 2881 3666 2632 3958 
Q 2384 4250 1959 4250 
Q 1534 4250 1286 3958 
Q 1038 3666 1038 3163 
Q 1038 2656 1286 2365 
Q 1534 2075 1959 2075 
z
" transform="scale(0.015625)"/>
        <path id="DejaVuSans-2e" d="M 684 794 
L 1344 794 
L 1344 0 
L 684 0 
L 684 794 
z
" transform="scale(0.015625)"/>
        <path id="DejaVuSans-35" d="M 691 4666 
L 3169 4666 
L 3169 4134 
L 1269 4134 
L 1269 2991 
Q 1406 3038 1543 3061 
Q 1681 3084 1819 3084 
Q 2600 3084 3056 2656 
Q 3513 2228 3513 1497 
Q 3513 744 3044 326 
Q 2575 -91 1722 -91 
Q 1428 -91 1123 -41 
Q 819 9 494 109 
L 494 744 
Q 775 591 1075 516 
Q 1375 441 1709 441 
Q 2250 441 2565 725 
Q 2881 1009 2881 1497 
Q 2881 1984 2565 2268 
Q 2250 2553 1709 2553 
Q 1456 2553 1204 2497 
Q 953 2441 691 2322 
L 691 4666 
z
" transform="scale(0.015625)"/>
       </defs>
       <use xlink:href="#DejaVuSans-32"/>
       <use xlink:href="#DejaVuSans-39" transform="translate(63.623047 0)"/>
       <use xlink:href="#DejaVuSans-2e" transform="translate(127.246094 0)"/>
       <use xlink:href="#DejaVuSans-32" transform="translate(159.033203 0)"/>
       <use xlink:href="#DejaVuSans-35" transform="translate(222.65625 0)"/>
      </g>
     </g>
    </g>
    <g id="ytick_2">
     <g id="line2d_19">
      <path d="M 53.643438 195.940337 
L 935.330937 195.940337 
" clip-path="url(#pe3141e3c83)" style="fill: none; stroke: #eef2f7; stroke-opacity: 0.25; stroke-width: 0.55; stroke-linecap: square"/>
     </g>
     <g id="line2d_20">
      <g>
       <use xlink:href="#m4c3ab27829" x="53.643438" y="195.940337" style="stroke: #000000; stroke-width: 0.8"/>
      </g>
     </g>
     <g id="text_11">
      <!-- 29.50 -->
      <g transform="translate(20.878125 199.359634) scale(0.09 -0.09)">
       <use xlink:href="#DejaVuSans-32"/>
       <use xlink:href="#DejaVuSans-39" transform="translate(63.623047 0)"/>
       <use xlink:href="#DejaVuSans-2e" transform="translate(127.246094 0)"/>
       <use xlink:href="#DejaVuSans-35" transform="translate(159.033203 0)"/>
       <use xlink:href="#DejaVuSans-30" transform="translate(222.65625 0)"/>
      </g>
     </g>
    </g>
    <g id="ytick_3">
     <g id="line2d_21">
      <path d="M 53.643438 168.103595 
L 935.330937 168.103595 
" clip-path="url(#pe3141e3c83)" style="fill: none; stroke: #eef2f7; stroke-opacity: 0.25; stroke-width: 0.55; stroke-linecap: square"/>
     </g>
     <g id="line2d_22">
      <g>
       <use xlink:href="#m4c3ab27829" x="53.643438" y="168.103595" style="stroke: #000000; stroke-width: 0.8"/>
      </g>
     </g>
     <g id="text_12">
      <!-- 29.75 -->
      <g transform="translate(20.878125 171.522892) scale(0.09 -0.09)">
       <defs>
        <path id="DejaVuSans-37" d="M 525 4666 
L 3525 4666 
L 3525 4397 
L 1831 0 
L 1172 0 
L 2766 4134 
L 525 4134 
L 525 4666 
z
" transform="scale(0.015625)"/>
       </defs>
       <use xlink:href="#DejaVuSans-32"/>
       <use xlink:href="#DejaVuSans-39" transform="translate(63.623047 0)"/>
       <use xlink:href="#DejaVuSans-2e" transform="translate(127.246094 0)"/>
       <use xlink:href="#DejaVuSans-37" transform="translate(159.033203 0)"/>
       <use xlink:href="#DejaVuSans-35" transform="translate(222.65625 0)"/>
      </g>
     </g>
    </g>
    <g id="ytick_4">
     <g id="line2d_23">
      <path d="M 53.643438 140.266853 
L 935.330937 140.266853 
" clip-path="url(#pe3141e3c83)" style="fill: none; stroke: #eef2f7; stroke-opacity: 0.25; stroke-width: 0.55; stroke-linecap: square"/>
     </g>
     <g id="line2d_24">
      <g>
       <use xlink:href="#m4c3ab27829" x="53.643438" y="140.266853" style="stroke: #000000; stroke-width: 0.8"/>
      </g>
     </g>
     <g id="text_13">
      <!-- 30.00 -->
      <g transform="translate(20.878125 143.68615) scale(0.09 -0.09)">
       <defs>
        <path id="DejaVuSans-33" d="M 2597 2516 
Q 3050 2419 3304 2112 
Q 3559 1806 3559 1356 
Q 3559 666 3084 287 
Q 2609 -91 1734 -91 
Q 1441 -91 1130 -33 
Q 819 25 488 141 
L 488 750 
Q 750 597 1062 519 
Q 1375 441 1716 441 
Q 2309 441 2620 675 
Q 2931 909 2931 1356 
Q 2931 1769 2642 2001 
Q 2353 2234 1838 2234 
L 1294 2234 
L 1294 2753 
L 1863 2753 
Q 2328 2753 2575 2939 
Q 2822 3125 2822 3475 
Q 2822 3834 2567 4026 
Q 2313 4219 1838 4219 
Q 1578 4219 1281 4162 
Q 984 4106 628 3988 
L 628 4550 
Q 988 4650 1302 4700 
Q 1616 4750 1894 4750 
Q 2613 4750 3031 4423 
Q 3450 4097 3450 3541 
Q 3450 3153 3228 2886 
Q 3006 2619 2597 2516 
z
" transform="scale(0.015625)"/>
       </defs>
       <use xlink:href="#DejaVuSans-33"/>
       <use xlink:href="#DejaVuSans-30" transform="translate(63.623047 0)"/>
       <use xlink:href="#DejaVuSans-2e" transform="translate(127.246094 0)"/>
       <use xlink:href="#DejaVuSans-30" transform="translate(159.033203 0)"/>
       <use xlink:href="#DejaVuSans-30" transform="translate(222.65625 0)"/>
      </g>
     </g>
    </g>
    <g id="ytick_5">
     <g id="line2d_25">
      <path d="M 53.643438 112.430111 
L 935.330937 112.430111 
" clip-path="url(#pe3141e3c83)" style="fill: none; stroke: #eef2f7; stroke-opacity: 0.25; stroke-width: 0.55; stroke-linecap: square"/>
     </g>
     <g id="line2d_26">
      <g>
       <use xlink:href="#m4c3ab27829" x="53.643438" y="112.430111" style="stroke: #000000; stroke-width: 0.8"/>
      </g>
     </g>
     <g id="text_14">
      <!-- 30.25 -->
      <g transform="translate(20.878125 115.849408) scale(0.09 -0.09)">
       <use xlink:href="#DejaVuSans-33"/>
       <use xlink:href="#DejaVuSans-30" transform="translate(63.623047 0)"/>
       <use xlink:href="#DejaVuSans-2e" transform="translate(127.246094 0)"/>
       <use xlink:href="#DejaVuSans-32" transform="translate(159.033203 0)"/>
       <use xlink:href="#DejaVuSans-35" transform="translate(222.65625 0)"/>
      </g>
     </g>
    </g>
    <g id="ytick_6">
     <g id="line2d_27">
      <path d="M 53.643438 84.593369 
L 935.330937 84.593369 
" clip-path="url(#pe3141e3c83)" style="fill: none; stroke: #eef2f7; stroke-opacity: 0.25; stroke-width: 0.55; stroke-linecap: square"/>
     </g>
     <g id="line2d_28">
      <g>
       <use xlink:href="#m4c3ab27829" x="53.643438" y="84.593369" style="stroke: #000000; stroke-width: 0.8"/>
      </g>
     </g>
     <g id="text_15">
      <!-- 30.50 -->
      <g transform="translate(20.878125 88.012666) scale(0.09 -0.09)">
       <use xlink:href="#DejaVuSans-33"/>
       <use xlink:href="#DejaVuSans-30" transform="translate(63.623047 0)"/>
       <use xlink:href="#DejaVuSans-2e" transform="translate(127.246094 0)"/>
       <use xlink:href="#DejaVuSans-35" transform="translate(159.033203 0)"/>
       <use xlink:href="#DejaVuSans-30" transform="translate(222.65625 0)"/>
      </g>
     </g>
    </g>
    <g id="ytick_7">
     <g id="line2d_29">
      <path d="M 53.643438 56.756627 
L 935.330937 56.756627 
" clip-path="url(#pe3141e3c83)" style="fill: none; stroke: #eef2f7; stroke-opacity: 0.25; stroke-width: 0.55; stroke-linecap: square"/>
     </g>
     <g id="line2d_30">
      <g>
       <use xlink:href="#m4c3ab27829" x="53.643438" y="56.756627" style="stroke: #000000; stroke-width: 0.8"/>
      </g>
     </g>
     <g id="text_16">
      <!-- 30.75 -->
      <g transform="translate(20.878125 60.175924) scale(0.09 -0.09)">
       <use xlink:href="#DejaVuSans-33"/>
       <use xlink:href="#DejaVuSans-30" transform="translate(63.623047 0)"/>
       <use xlink:href="#DejaVuSans-2e" transform="translate(127.246094 0)"/>
       <use xlink:href="#DejaVuSans-37" transform="translate(159.033203 0)"/>
       <use xlink:href="#DejaVuSans-35" transform="translate(222.65625 0)"/>
      </g>
     </g>
    </g>
    <g id="ytick_8">
     <g id="line2d_31">
      <path d="M 53.643438 28.919885 
L 935.330937 28.919885 
" clip-path="url(#pe3141e3c83)" style="fill: none; stroke: #eef2f7; stroke-opacity: 0.25; stroke-width: 0.55; stroke-linecap: square"/>
     </g>
     <g id="line2d_32">
      <g>
       <use xlink:href="#m4c3ab27829" x="53.643438" y="28.919885" style="stroke: #000000; stroke-width: 0.8"/>
      </g>
     </g>
     <g id="text_17">
      <!-- 31.00 -->
      <g transform="translate(20.878125 32.339182) scale(0.09 -0.09)">
       <use xlink:href="#DejaVuSans-33"/>
       <use xlink:href="#DejaVuSans-31" transform="translate(63.623047 0)"/>
       <use xlink:href="#DejaVuSans-2e" transform="translate(127.246094 0)"/>
       <use xlink:href="#DejaVuSans-30" transform="translate(159.033203 0)"/>
       <use xlink:href="#DejaVuSans-30" transform="translate(222.65625 0)"/>
      </g>
     </g>
    </g>
    <g id="text_18">
     <!-- Temperature (C) -->
     <g transform="translate(14.798438 163.659635) rotate(-90) scale(0.1 -0.1)">
      <defs>
       <path id="DejaVuSans-54" d="M -19 4666 
L 3928 4666 
L 3928 4134 
L 2272 4134 
L 2272 0 
L 1638 0 
L 1638 4134 
L -19 4134 
L -19 4666 
z
" transform="scale(0.015625)"/>
       <path id="DejaVuSans-6d" d="M 3328 2828 
Q 3544 3216 3844 3400 
Q 4144 3584 4550 3584 
Q 5097 3584 5394 3201 
Q 5691 2819 5691 2113 
L 5691 0 
L 5113 0 
L 5113 2094 
Q 5113 2597 4934 2840 
Q 4756 3084 4391 3084 
Q 3944 3084 3684 2787 
Q 3425 2491 3425 1978 
L 3425 0 
L 2847 0 
L 2847 2094 
Q 2847 2600 2669 2842 
Q 2491 3084 2119 3084 
Q 1678 3084 1418 2786 
Q 1159 2488 1159 1978 
L 1159 0 
L 581 0 
L 581 3500 
L 1159 3500 
L 1159 2956 
Q 1356 3278 1631 3431 
Q 1906 3584 2284 3584 
Q 2666 3584 2933 3390 
Q 3200 3197 3328 2828 
z
" transform="scale(0.015625)"/>
       <path id="DejaVuSans-70" d="M 1159 525 
L 1159 -1331 
L 581 -1331 
L 581 3500 
L 1159 3500 
L 1159 2969 
Q 1341 3281 1617 3432 
Q 1894 3584 2278 3584 
Q 2916 3584 3314 3078 
Q 3713 2572 3713 1747 
Q 3713 922 3314 415 
Q 2916 -91 2278 -91 
Q 1894 -91 1617 61 
Q 1341 213 1159 525 
z
M 3116 1747 
Q 3116 2381 2855 2742 
Q 2594 3103 2138 3103 
Q 1681 3103 1420 2742 
Q 1159 2381 1159 1747 
Q 1159 1113 1420 752 
Q 1681 391 2138 391 
Q 2594 391 2855 752 
Q 3116 1113 3116 1747 
z
" transform="scale(0.015625)"/>
       <path id="DejaVuSans-28" d="M 1984 4856 
Q 1566 4138 1362 3434 
Q 1159 2731 1159 2009 
Q 1159 1288 1364 580 
Q 1569 -128 1984 -844 
L 1484 -844 
Q 1016 -109 783 600 
Q 550 1309 550 2009 
Q 550 2706 781 3412 
Q 1013 4119 1484 4856 
L 1984 4856 
z
" transform="scale(0.015625)"/>
       <path id="DejaVuSans-43" d="M 4122 4306 
L 4122 3641 
Q 3803 3938 3442 4084 
Q 3081 4231 2675 4231 
Q 1875 4231 1450 3742 
Q 1025 3253 1025 2328 
Q 1025 1406 1450 917 
Q 1875 428 2675 428 
Q 3081 428 3442 575 
Q 3803 722 4122 1019 
L 4122 359 
Q 3791 134 3420 21 
Q 3050 -91 2638 -91 
Q 1578 -91 968 557 
Q 359 1206 359 2328 
Q 359 3453 968 4101 
Q 1578 4750 2638 4750 
Q 3056 4750 3426 4639 
Q 3797 4528 4122 4306 
z
" transform="scale(0.015625)"/>
       <path id="DejaVuSans-29" d="M 513 4856 
L 1013 4856 
Q 1481 4119 1714 3412 
Q 1947 2706 1947 2009 
Q 1947 1309 1714 600 
Q 1481 -109 1013 -844 
L 513 -844 
Q 928 -128 1133 580 
Q 1338 1288 1338 2009 
Q 1338 2731 1133 3434 
Q 928 4138 513 4856 
z
" transform="scale(0.015625)"/>
      </defs>
      <use xlink:href="#DejaVuSans-54"/>
      <use xlink:href="#DejaVuSans-65" transform="translate(44.083984 0)"/>
      <use xlink:href="#DejaVuSans-6d" transform="translate(105.607422 0)"/>
      <use xlink:href="#DejaVuSans-70" transform="translate(203.019531 0)"/>
      <use xlink:href="#DejaVuSans-65" transform="translate(266.496094 0)"/>
      <use xlink:href="#DejaVuSans-72" transform="translate(328.019531 0)"/>
      <use xlink:href="#DejaVuSans-61" transform="translate(369.132812 0)"/>
      <use xlink:href="#DejaVuSans-74" transform="translate(430.412109 0)"/>
      <use xlink:href="#DejaVuSans-75" transform="translate(469.621094 0)"/>
      <use xlink:href="#DejaVuSans-72" transform="translate(533 0)"/>
      <use xlink:href="#DejaVuSans-65" transform="translate(571.863281 0)"/>
      <use xlink:href="#DejaVuSans-20" transform="translate(633.386719 0)"/>
      <use xlink:href="#DejaVuSans-28" transform="translate(665.173828 0)"/>
      <use xlink:href="#DejaVuSans-43" transform="translate(704.1875 0)"/>
      <use xlink:href="#DejaVuSans-29" transform="translate(774.011719 0)"/>
     </g>
    </g>
   </g>
   <g id="line2d_33">
    <path d="M 70.598966 111.316641 
L 76.139989 111.316641 
L 81.681011 110.203171 
L 87.222034 105.749293 
L 98.304079 101.295414 
L 103.845101 101.295414 
L 109.386124 87.933778 
L 114.927146 87.933778 
L 131.550214 84.593369 
L 134.320725 84.593369 
L 137.091236 85.706839 
L 142.632259 79.02602 
L 153.714304 96.841535 
L 159.255326 94.614596 
L 164.796349 97.955005 
L 170.337371 95.728066 
L 175.878394 95.728066 
L 181.419416 90.160717 
L 186.960439 90.160717 
L 192.501461 87.933778 
L 198.042484 79.02602 
L 203.583506 75.685611 
L 209.124529 79.02602 
L 220.206574 79.02602 
L 225.747596 74.572142 
L 231.288619 65.664384 
L 236.829641 72.345202 
L 242.370664 72.345202 
L 247.911686 70.118263 
L 258.993731 56.756627 
L 264.534754 73.458672 
L 270.075776 80.13949 
L 275.616799 84.593369 
L 281.157821 77.912551 
L 286.698844 81.25296 
L 292.239866 77.912551 
L 297.780889 82.366429 
L 303.321911 81.25296 
L 308.862934 81.25296 
L 314.403956 72.345202 
L 319.944979 79.02602 
L 325.486001 77.912551 
L 331.027024 82.366429 
L 336.568046 74.572142 
L 342.109069 74.572142 
L 347.650091 80.13949 
L 353.191114 79.02602 
L 358.732136 75.685611 
L 364.273159 76.799081 
L 369.814181 76.799081 
L 375.355204 81.25296 
L 380.896226 76.799081 
L 386.437249 77.912551 
L 414.142361 77.912551 
L 419.683384 69.004793 
L 425.224406 55.643157 
L 436.306451 63.437445 
L 441.847474 66.777854 
L 447.388496 62.323975 
L 452.929519 58.983566 
L 458.470541 54.529688 
L 464.011564 64.550915 
L 469.552586 75.685611 
L 475.093609 76.799081 
L 480.634631 71.231733 
L 486.175654 79.02602 
L 491.716676 77.912551 
L 497.257699 79.02602 
L 502.798721 77.912551 
L 508.339744 63.437445 
L 513.880766 58.983566 
L 524.962811 48.962339 
L 530.503834 56.756627 
L 536.044856 60.097036 
L 541.585879 53.416218 
L 547.126901 58.983566 
L 552.667924 52.302748 
L 558.208946 42.281521 
L 563.749969 47.848869 
L 569.290991 54.529688 
L 574.832014 55.643157 
L 580.373036 69.004793 
L 585.914059 70.118263 
L 591.455081 72.345202 
L 596.996104 72.345202 
L 602.537126 70.118263 
L 608.078149 80.13949 
L 613.619171 75.685611 
L 619.160194 70.118263 
L 624.701216 74.572142 
L 630.242239 74.572142 
L 635.783261 71.231733 
L 641.324284 75.685611 
L 646.865306 77.912551 
L 657.947351 71.231733 
L 663.488374 79.02602 
L 669.029396 73.458672 
L 674.570419 79.02602 
L 680.111441 77.912551 
L 685.652464 80.13949 
L 696.734509 66.777854 
L 702.275531 77.912551 
L 707.816554 75.685611 
L 713.357576 72.345202 
L 718.898599 70.118263 
L 724.439621 77.912551 
L 729.980644 66.777854 
L 735.521666 60.097036 
L 746.603711 60.097036 
L 752.144734 58.983566 
L 757.685756 61.210506 
L 768.767801 43.394991 
L 774.308824 54.529688 
L 779.849846 47.848869 
L 785.390869 66.777854 
L 790.931891 67.891324 
L 796.472914 70.118263 
L 802.013936 73.458672 
L 807.554959 72.345202 
L 813.095981 73.458672 
L 818.637004 66.777854 
L 824.178026 67.891324 
L 835.260071 50.075809 
L 840.801094 53.416218 
L 846.342116 45.62193 
L 851.883139 52.302748 
L 857.424161 52.302748 
L 862.965184 50.075809 
L 868.506206 26.692946 
L 874.047229 35.600703 
L 879.588251 31.146824 
L 885.129274 53.416218 
L 890.670296 67.891324 
L 893.440807 67.891324 
L 896.211319 69.004793 
L 901.752341 65.664384 
L 907.293364 66.777854 
L 912.834386 63.437445 
L 918.375409 77.912551 
L 918.375409 77.912551 
" clip-path="url(#pe3141e3c83)" style="fill: none; stroke: #fdc38d; stroke-opacity: 0.95; stroke-width: 0.936; stroke-linecap: square"/>
   </g>
   <g id="line2d_34">
    <path d="M 70.598966 130.245626 
L 76.139989 129.132156 
L 81.681011 138.039913 
L 87.222034 145.834201 
L 92.763056 130.245626 
L 98.304079 131.359095 
L 103.845101 129.132156 
L 109.386124 124.678277 
L 114.927146 119.110929 
L 126.009191 116.88399 
L 131.550214 110.203171 
L 134.320725 109.089702 
L 142.632259 109.089702 
L 148.173281 119.110929 
L 153.714304 116.88399 
L 159.255326 122.451338 
L 164.796349 120.224399 
L 170.337371 128.018686 
L 175.878394 125.791747 
L 181.419416 124.678277 
L 186.960439 121.337868 
L 192.501461 111.316641 
L 198.042484 109.089702 
L 203.583506 99.068475 
L 209.124529 99.068475 
L 220.206574 93.501126 
L 225.747596 95.728066 
L 231.288619 93.501126 
L 236.829641 86.820308 
L 242.370664 94.614596 
L 247.911686 84.593369 
L 253.452709 85.706839 
L 258.993731 90.160717 
L 264.534754 101.295414 
L 270.075776 113.543581 
L 275.616799 115.77052 
L 281.157821 107.976232 
L 286.698844 114.65705 
L 292.239866 112.430111 
L 297.780889 109.089702 
L 303.321911 107.976232 
L 308.862934 112.430111 
L 314.403956 115.77052 
L 319.944979 115.77052 
L 325.486001 105.749293 
L 331.027024 110.203171 
L 336.568046 107.976232 
L 342.109069 106.862762 
L 347.650091 116.88399 
L 353.191114 103.522353 
L 358.732136 115.77052 
L 364.273159 111.316641 
L 369.814181 110.203171 
L 380.896226 103.522353 
L 386.437249 105.749293 
L 391.978271 113.543581 
L 397.519294 107.976232 
L 403.060316 111.316641 
L 408.601339 111.316641 
L 414.142361 102.408884 
L 419.683384 115.77052 
L 425.224406 87.933778 
L 436.306451 93.501126 
L 441.847474 85.706839 
L 447.388496 92.387657 
L 452.929519 89.047248 
L 458.470541 96.841535 
L 464.011564 92.387657 
L 469.552586 107.976232 
L 475.093609 104.635823 
L 480.634631 105.749293 
L 486.175654 109.089702 
L 497.257699 106.862762 
L 502.798721 107.976232 
L 508.339744 96.841535 
L 513.880766 84.593369 
L 524.962811 81.25296 
L 530.503834 90.160717 
L 536.044856 93.501126 
L 541.585879 85.706839 
L 547.126901 85.706839 
L 552.667924 79.02602 
L 558.208946 84.593369 
L 563.749969 84.593369 
L 569.290991 83.479899 
L 574.832014 93.501126 
L 577.602525 96.841535 
L 580.373036 101.295414 
L 585.914059 100.181944 
L 591.455081 97.955005 
L 596.996104 96.841535 
L 602.537126 99.068475 
L 608.078149 106.862762 
L 613.619171 111.316641 
L 619.160194 105.749293 
L 624.701216 104.635823 
L 630.242239 107.976232 
L 635.783261 94.614596 
L 641.324284 99.068475 
L 646.865306 101.295414 
L 652.406329 101.295414 
L 663.488374 107.976232 
L 669.029396 113.543581 
L 674.570419 104.635823 
L 680.111441 106.862762 
L 685.652464 107.976232 
L 691.193486 104.635823 
L 696.734509 103.522353 
L 702.275531 107.976232 
L 707.816554 109.089702 
L 713.357576 103.522353 
L 718.898599 106.862762 
L 724.439621 107.976232 
L 729.980644 92.387657 
L 735.521666 93.501126 
L 746.603711 84.593369 
L 752.144734 87.933778 
L 754.915245 94.614596 
L 757.685756 100.181944 
L 763.226779 91.274187 
L 768.767801 92.387657 
L 774.308824 89.047248 
L 779.849846 94.614596 
L 785.390869 99.068475 
L 790.931891 99.068475 
L 796.472914 102.408884 
L 802.013936 104.635823 
L 813.095981 100.181944 
L 818.637004 89.047248 
L 824.178026 102.408884 
L 835.260071 91.274187 
L 840.801094 74.572142 
L 846.342116 80.13949 
L 851.883139 89.047248 
L 857.424161 76.799081 
L 862.965184 83.479899 
L 868.506206 79.02602 
L 874.047229 89.047248 
L 879.588251 87.933778 
L 890.670296 105.749293 
L 896.211319 96.841535 
L 901.752341 99.068475 
L 907.293364 102.408884 
L 912.834386 94.614596 
L 918.375409 109.089702 
L 918.375409 109.089702 
" clip-path="url(#pe3141e3c83)" style="fill: none; stroke: #fdac67; stroke-opacity: 0.95; stroke-width: 0.936; stroke-linecap: square"/>
   </g>
   <g id="line2d_35">
    <path d="M 70.598966 198.167276 
L 76.139989 195.940337 
L 81.681011 202.621155 
L 87.222034 202.621155 
L 92.763056 207.075034 
L 98.304079 219.3232 
L 103.845101 201.507685 
L 114.927146 192.599928 
L 126.009191 192.599928 
L 131.550214 202.621155 
L 137.091236 193.713397 
L 142.632259 212.642382 
L 148.173281 188.146049 
L 153.714304 202.621155 
L 159.255326 199.280746 
L 164.796349 197.053806 
L 170.337371 210.415443 
L 175.878394 194.826867 
L 181.419416 201.507685 
L 186.960439 214.869321 
L 192.501461 194.826867 
L 198.042484 182.578701 
L 203.583506 194.826867 
L 209.124529 191.486458 
L 220.206574 191.486458 
L 225.747596 184.80564 
L 231.288619 180.351761 
L 236.829641 180.351761 
L 242.370664 187.032579 
L 247.911686 189.259519 
L 253.452709 192.599928 
L 258.993731 193.713397 
L 264.534754 189.259519 
L 270.075776 181.465231 
L 275.616799 194.826867 
L 281.157821 183.69217 
L 286.698844 190.372988 
L 292.239866 184.80564 
L 297.780889 180.351761 
L 303.321911 185.91911 
L 308.862934 179.238292 
L 314.403956 188.146049 
L 319.944979 172.557474 
L 325.486001 174.784413 
L 331.027024 178.124822 
L 336.568046 170.330534 
L 342.109069 174.784413 
L 347.650091 172.557474 
L 353.191114 175.897883 
L 358.732136 171.444004 
L 364.273159 169.217064 
L 369.814181 177.011352 
L 375.355204 170.330534 
L 380.896226 181.465231 
L 386.437249 171.444004 
L 397.519294 171.444004 
L 403.060316 168.103595 
L 408.601339 171.444004 
L 414.142361 178.124822 
L 419.683384 158.082368 
L 425.224406 172.557474 
L 436.306451 174.784413 
L 444.617985 171.444004 
L 447.388496 171.444004 
L 452.929519 179.238292 
L 458.470541 169.217064 
L 464.011564 168.103595 
L 469.552586 174.784413 
L 475.093609 185.91911 
L 486.175654 168.103595 
L 491.716676 165.876655 
L 497.257699 161.422777 
L 502.798721 165.876655 
L 508.339744 178.124822 
L 513.880766 170.330534 
L 524.962811 174.784413 
L 530.503834 171.444004 
L 541.585879 166.990125 
L 547.126901 161.422777 
L 552.667924 175.897883 
L 558.208946 175.897883 
L 563.749969 160.309307 
L 574.832014 175.897883 
L 580.373036 180.351761 
L 585.914059 198.167276 
L 591.455081 177.011352 
L 596.996104 172.557474 
L 602.537126 165.876655 
L 608.078149 162.536246 
L 613.619171 160.309307 
L 619.160194 172.557474 
L 624.701216 174.784413 
L 630.242239 168.103595 
L 635.783261 178.124822 
L 641.324284 175.897883 
L 646.865306 171.444004 
L 652.406329 172.557474 
L 657.947351 165.876655 
L 663.488374 164.763186 
L 669.029396 161.422777 
L 674.570419 171.444004 
L 680.111441 174.784413 
L 685.652464 174.784413 
L 691.193486 170.330534 
L 696.734509 166.990125 
L 702.275531 178.124822 
L 707.816554 174.784413 
L 713.357576 175.897883 
L 718.898599 170.330534 
L 724.439621 162.536246 
L 729.980644 160.309307 
L 735.521666 169.217064 
L 746.603711 159.195837 
L 752.144734 160.309307 
L 757.685756 155.855428 
L 763.226779 164.763186 
L 768.767801 162.536246 
L 774.308824 179.238292 
L 779.849846 180.351761 
L 785.390869 179.238292 
L 790.931891 177.011352 
L 796.472914 179.238292 
L 802.013936 168.103595 
L 807.554959 168.103595 
L 813.095981 158.082368 
L 818.637004 163.649716 
L 824.178026 113.543581 
L 835.260071 135.812974 
L 840.801094 161.422777 
L 846.342116 150.28808 
L 851.883139 128.018686 
L 857.424161 163.649716 
L 862.965184 171.444004 
L 868.506206 166.990125 
L 874.047229 173.670943 
L 879.588251 162.536246 
L 885.129274 163.649716 
L 890.670296 163.649716 
L 896.211319 181.465231 
L 901.752341 173.670943 
L 907.293364 169.217064 
L 912.834386 165.876655 
L 918.375409 148.061141 
L 918.375409 148.061141 
" clip-path="url(#pe3141e3c83)" style="fill: none; stroke: #fd9547; stroke-opacity: 0.95; stroke-width: 0.936; stroke-linecap: square"/>
   </g>
   <g id="line2d_36">
    <path d="M 70.598966 80.13949 
L 76.139989 80.13949 
L 81.681011 84.593369 
L 92.763056 75.685611 
L 98.304079 77.912551 
L 103.845101 91.274187 
L 109.386124 117.997459 
L 114.927146 90.160717 
L 126.009191 100.181944 
L 131.550214 94.614596 
L 134.320725 94.614596 
L 137.091236 93.501126 
L 142.632259 81.25296 
L 148.173281 80.13949 
L 153.714304 62.323975 
L 159.255326 71.231733 
L 164.796349 70.118263 
L 170.337371 57.870097 
L 175.878394 69.004793 
L 181.419416 62.323975 
L 186.960439 65.664384 
L 192.501461 60.097036 
L 198.042484 91.274187 
L 203.583506 81.25296 
L 209.124529 76.799081 
L 220.206574 79.02602 
L 225.747596 74.572142 
L 231.288619 67.891324 
L 236.829641 69.004793 
L 242.370664 66.777854 
L 247.911686 72.345202 
L 253.452709 58.983566 
L 258.993731 54.529688 
L 264.534754 55.643157 
L 270.075776 54.529688 
L 275.616799 56.756627 
L 281.157821 56.756627 
L 286.698844 53.416218 
L 292.239866 48.962339 
L 303.321911 62.323975 
L 308.862934 62.323975 
L 314.403956 50.075809 
L 319.944979 61.210506 
L 325.486001 58.983566 
L 331.027024 47.848869 
L 336.568046 54.529688 
L 342.109069 44.50846 
L 347.650091 62.323975 
L 353.191114 48.962339 
L 358.732136 54.529688 
L 364.273159 61.210506 
L 369.814181 53.416218 
L 375.355204 60.097036 
L 380.896226 42.281521 
L 386.437249 60.097036 
L 391.978271 55.643157 
L 403.060316 55.643157 
L 408.601339 56.756627 
L 419.683384 61.210506 
L 425.224406 70.118263 
L 436.306451 47.848869 
L 441.847474 48.962339 
L 444.617985 52.302748 
L 447.388496 56.756627 
L 452.929519 42.281521 
L 458.470541 37.827642 
L 464.011564 44.50846 
L 469.552586 56.756627 
L 475.093609 50.075809 
L 480.634631 44.50846 
L 486.175654 43.394991 
L 491.716676 43.394991 
L 497.257699 36.714173 
L 508.339744 74.572142 
L 513.880766 64.550915 
L 524.962811 71.231733 
L 530.503834 56.756627 
L 536.044856 46.7354 
L 541.585879 62.323975 
L 547.126901 57.870097 
L 552.667924 51.189278 
L 558.208946 43.394991 
L 563.749969 34.487233 
L 569.290991 37.827642 
L 574.832014 42.281521 
L 580.373036 44.50846 
L 585.914059 50.075809 
L 591.455081 50.075809 
L 596.996104 42.281521 
L 602.537126 40.054582 
L 608.078149 50.075809 
L 613.619171 54.529688 
L 619.160194 48.962339 
L 624.701216 55.643157 
L 635.783261 51.189278 
L 641.324284 47.848869 
L 652.406329 50.075809 
L 657.947351 45.62193 
L 663.488374 56.756627 
L 669.029396 50.075809 
L 674.570419 55.643157 
L 680.111441 35.600703 
L 685.652464 41.168051 
L 691.193486 41.168051 
L 696.734509 50.075809 
L 702.275531 53.416218 
L 707.816554 47.848869 
L 713.357576 50.075809 
L 724.439621 52.302748 
L 729.980644 48.962339 
L 735.521666 64.550915 
L 752.144734 61.210506 
L 754.915245 56.756627 
L 757.685756 53.416218 
L 763.226779 38.941112 
L 768.767801 37.827642 
L 774.308824 40.054582 
L 779.849846 46.7354 
L 785.390869 60.097036 
L 790.931891 50.075809 
L 796.472914 45.62193 
L 802.013936 40.054582 
L 807.554959 47.848869 
L 813.095981 53.416218 
L 818.637004 62.323975 
L 824.178026 67.891324 
L 835.260071 41.168051 
L 840.801094 51.189278 
L 846.342116 50.075809 
L 851.883139 41.168051 
L 857.424161 48.962339 
L 862.965184 30.033355 
L 868.506206 52.302748 
L 874.047229 38.941112 
L 879.588251 35.600703 
L 885.129274 43.394991 
L 890.670296 47.848869 
L 893.440807 47.848869 
L 896.211319 46.7354 
L 901.752341 41.168051 
L 907.293364 41.168051 
L 912.834386 45.62193 
L 918.375409 46.7354 
L 918.375409 46.7354 
" clip-path="url(#pe3141e3c83)" style="fill: none; stroke: #f87d29; stroke-opacity: 0.95; stroke-width: 0.936; stroke-linecap: square"/>
   </g>
   <g id="line2d_37">
    <path d="M 70.598966 139.153383 
L 76.139989 133.586035 
L 87.222034 131.359095 
L 92.763056 140.266853 
L 98.304079 129.132156 
L 103.845101 123.564808 
L 109.386124 104.635823 
L 114.927146 104.635823 
L 126.009191 105.749293 
L 131.550214 111.316641 
L 137.091236 100.181944 
L 142.632259 117.997459 
L 148.173281 130.245626 
L 153.714304 135.812974 
L 159.255326 122.451338 
L 164.796349 123.564808 
L 170.337371 131.359095 
L 175.878394 124.678277 
L 181.419416 126.905217 
L 186.960439 126.905217 
L 192.501461 114.65705 
L 198.042484 104.635823 
L 203.583506 95.728066 
L 209.124529 91.274187 
L 220.206574 91.274187 
L 225.747596 93.501126 
L 231.288619 92.387657 
L 242.370664 83.479899 
L 247.911686 83.479899 
L 253.452709 99.068475 
L 258.993731 112.430111 
L 270.075776 119.110929 
L 275.616799 112.430111 
L 281.157821 109.089702 
L 286.698844 114.65705 
L 292.239866 112.430111 
L 297.780889 113.543581 
L 303.321911 121.337868 
L 308.862934 114.65705 
L 314.403956 120.224399 
L 319.944979 117.997459 
L 325.486001 119.110929 
L 331.027024 115.77052 
L 336.568046 110.203171 
L 342.109069 116.88399 
L 347.650091 116.88399 
L 353.191114 106.862762 
L 358.732136 109.089702 
L 364.273159 125.791747 
L 369.814181 116.88399 
L 375.355204 112.430111 
L 380.896226 114.65705 
L 386.437249 104.635823 
L 391.978271 126.905217 
L 397.519294 123.564808 
L 403.060316 119.110929 
L 408.601339 122.451338 
L 414.142361 116.88399 
L 419.683384 97.955005 
L 425.224406 80.13949 
L 436.306451 82.366429 
L 444.617985 75.685611 
L 447.388496 74.572142 
L 452.929519 93.501126 
L 458.470541 101.295414 
L 464.011564 113.543581 
L 469.552586 115.77052 
L 475.093609 115.77052 
L 480.634631 110.203171 
L 486.175654 113.543581 
L 491.716676 101.295414 
L 497.257699 105.749293 
L 502.798721 106.862762 
L 508.339744 79.02602 
L 513.880766 72.345202 
L 524.962811 74.572142 
L 530.503834 74.572142 
L 536.044856 76.799081 
L 541.585879 74.572142 
L 547.126901 67.891324 
L 552.667924 73.458672 
L 558.208946 82.366429 
L 563.749969 92.387657 
L 569.290991 93.501126 
L 574.832014 111.316641 
L 580.373036 113.543581 
L 585.914059 113.543581 
L 591.455081 103.522353 
L 596.996104 109.089702 
L 602.537126 104.635823 
L 608.078149 112.430111 
L 613.619171 106.862762 
L 619.160194 115.77052 
L 624.701216 117.997459 
L 630.242239 119.110929 
L 635.783261 112.430111 
L 641.324284 107.976232 
L 646.865306 105.749293 
L 652.406329 109.089702 
L 657.947351 113.543581 
L 663.488374 115.77052 
L 669.029396 113.543581 
L 674.570419 116.88399 
L 680.111441 106.862762 
L 685.652464 112.430111 
L 691.193486 109.089702 
L 696.734509 116.88399 
L 702.275531 113.543581 
L 713.357576 100.181944 
L 718.898599 106.862762 
L 724.439621 111.316641 
L 729.980644 92.387657 
L 735.521666 82.366429 
L 746.603711 77.912551 
L 752.144734 76.799081 
L 757.685756 67.891324 
L 763.226779 83.479899 
L 768.767801 91.274187 
L 774.308824 111.316641 
L 779.849846 112.430111 
L 785.390869 119.110929 
L 790.931891 110.203171 
L 796.472914 117.997459 
L 802.013936 109.089702 
L 807.554959 116.88399 
L 813.095981 100.181944 
L 818.637004 89.047248 
L 824.178026 83.479899 
L 835.260071 69.004793 
L 840.801094 74.572142 
L 846.342116 72.345202 
L 857.424161 76.799081 
L 862.965184 72.345202 
L 868.506206 76.799081 
L 874.047229 85.706839 
L 879.588251 112.430111 
L 885.129274 96.841535 
L 890.670296 114.65705 
L 893.440807 116.88399 
L 896.211319 117.997459 
L 901.752341 112.430111 
L 907.293364 101.295414 
L 912.834386 112.430111 
L 918.375409 104.635823 
L 918.375409 104.635823 
" clip-path="url(#pe3141e3c83)" style="fill: none; stroke: #ee6410; stroke-opacity: 0.95; stroke-width: 0.936; stroke-linecap: square"/>
   </g>
   <g id="line2d_38">
    <path d="M 70.598966 138.039913 
L 76.139989 141.380323 
L 81.681011 135.812974 
L 87.222034 131.359095 
L 92.763056 143.607262 
L 98.304079 140.266853 
L 103.845101 133.586035 
L 109.386124 94.614596 
L 114.927146 95.728066 
L 126.009191 93.501126 
L 134.320725 90.160717 
L 137.091236 90.160717 
L 142.632259 143.607262 
L 148.173281 135.812974 
L 153.714304 135.812974 
L 159.255326 129.132156 
L 164.796349 133.586035 
L 170.337371 128.018686 
L 175.878394 126.905217 
L 181.419416 136.926444 
L 186.960439 126.905217 
L 192.501461 128.018686 
L 198.042484 97.955005 
L 203.583506 93.501126 
L 209.124529 81.25296 
L 220.206574 97.955005 
L 225.747596 91.274187 
L 236.829641 75.685611 
L 242.370664 75.685611 
L 247.911686 83.479899 
L 253.452709 143.607262 
L 258.993731 129.132156 
L 264.534754 141.380323 
L 270.075776 109.089702 
L 272.846288 117.997459 
L 275.616799 128.018686 
L 281.157821 124.678277 
L 286.698844 111.316641 
L 292.239866 117.997459 
L 297.780889 114.65705 
L 303.321911 128.018686 
L 308.862934 117.997459 
L 314.403956 139.153383 
L 319.944979 101.295414 
L 325.486001 117.997459 
L 331.027024 114.65705 
L 336.568046 107.976232 
L 342.109069 125.791747 
L 347.650091 128.018686 
L 353.191114 132.472565 
L 358.732136 142.493792 
L 364.273159 129.132156 
L 369.814181 106.862762 
L 375.355204 111.316641 
L 380.896226 122.451338 
L 391.978271 138.039913 
L 397.519294 144.720732 
L 403.060316 128.018686 
L 408.601339 116.88399 
L 414.142361 111.316641 
L 419.683384 85.706839 
L 425.224406 72.345202 
L 436.306451 60.097036 
L 441.847474 80.13949 
L 447.388496 89.047248 
L 452.929519 155.855428 
L 458.470541 134.699504 
L 464.011564 158.082368 
L 469.552586 130.245626 
L 475.093609 110.203171 
L 480.634631 144.720732 
L 486.175654 122.451338 
L 491.716676 104.635823 
L 497.257699 120.224399 
L 502.798721 117.997459 
L 508.339744 76.799081 
L 513.880766 71.231733 
L 524.962811 63.437445 
L 530.503834 64.550915 
L 536.044856 56.756627 
L 541.585879 62.323975 
L 552.667924 62.323975 
L 558.208946 90.160717 
L 563.749969 130.245626 
L 569.290991 151.40155 
L 574.832014 154.741959 
L 577.602525 146.947671 
L 580.373036 140.266853 
L 585.914059 133.586035 
L 591.455081 111.316641 
L 596.996104 104.635823 
L 602.537126 134.699504 
L 608.078149 141.380323 
L 613.619171 135.812974 
L 619.160194 138.039913 
L 624.701216 130.245626 
L 630.242239 142.493792 
L 635.783261 148.061141 
L 641.324284 113.543581 
L 646.865306 122.451338 
L 652.406329 128.018686 
L 657.947351 143.607262 
L 663.488374 138.039913 
L 669.029396 134.699504 
L 674.570419 154.741959 
L 680.111441 152.515019 
L 685.652464 143.607262 
L 691.193486 145.834201 
L 696.734509 140.266853 
L 702.275531 95.728066 
L 707.816554 126.905217 
L 713.357576 113.543581 
L 718.898599 125.791747 
L 724.439621 124.678277 
L 729.980644 87.933778 
L 735.521666 65.664384 
L 746.603711 62.323975 
L 752.144734 63.437445 
L 754.915245 62.323975 
L 757.685756 60.097036 
L 763.226779 140.266853 
L 768.767801 107.976232 
L 774.308824 145.834201 
L 779.849846 136.926444 
L 785.390869 130.245626 
L 790.931891 128.018686 
L 796.472914 105.749293 
L 802.013936 103.522353 
L 807.554959 128.018686 
L 813.095981 135.812974 
L 818.637004 65.664384 
L 824.178026 53.416218 
L 835.260071 41.168051 
L 846.342116 50.075809 
L 851.883139 34.487233 
L 857.424161 45.62193 
L 862.965184 35.600703 
L 868.506206 85.706839 
L 874.047229 128.018686 
L 879.588251 110.203171 
L 885.129274 100.181944 
L 890.670296 119.110929 
L 896.211319 125.791747 
L 901.752341 120.224399 
L 907.293364 129.132156 
L 912.834386 126.905217 
L 918.375409 132.472565 
L 918.375409 132.472565 
" clip-path="url(#pe3141e3c83)" style="fill: none; stroke: #dd4d04; stroke-opacity: 0.95; stroke-width: 0.936; stroke-linecap: square"/>
   </g>
   <g id="patch_20">
    <path d="M 53.643438 228.954713 
L 53.643438 17.061433 
" style="fill: none; stroke: #cbd5e1; stroke-width: 0.8; stroke-linejoin: miter; stroke-linecap: square"/>
   </g>
   <g id="patch_21">
    <path d="M 935.330937 228.954713 
L 935.330937 17.061433 
" style="fill: none; stroke: #cbd5e1; stroke-width: 0.8; stroke-linejoin: miter; stroke-linecap: square"/>
   </g>
   <g id="patch_22">
    <path d="M 53.643438 228.954713 
L 935.330938 228.954713 
" style="fill: none; stroke: #cbd5e1; stroke-width: 0.8; stroke-linejoin: miter; stroke-linecap: square"/>
   </g>
   <g id="patch_23">
    <path d="M 53.643438 17.061433 
L 935.330938 17.061433 
" style="fill: none; stroke: #cbd5e1; stroke-width: 0.8; stroke-linejoin: miter; stroke-linecap: square"/>
   </g>
   <g id="text_19">
    <!-- ACC -->
    <g style="fill: #475569" transform="translate(53.868702 13.27875) scale(0.08 -0.08)">
     <defs>
      <path id="DejaVuSans-41" d="M 2188 4044 
L 1331 1722 
L 3047 1722 
L 2188 4044 
z
M 1831 4666 
L 2547 4666 
L 4325 0 
L 3669 0 
L 3244 1197 
L 1141 1197 
L 716 0 
L 50 0 
L 1831 4666 
z
" transform="scale(0.015625)"/>
     </defs>
     <use xlink:href="#DejaVuSans-41"/>
     <use xlink:href="#DejaVuSans-43" transform="translate(66.658203 0)"/>
     <use xlink:href="#DejaVuSans-43" transform="translate(136.482422 0)"/>
    </g>
   </g>
   <g id="text_20">
    <!-- OC -->
    <g style="fill: #475569" transform="translate(81.280159 13.27875) scale(0.08 -0.08)">
     <defs>
      <path id="DejaVuSans-4f" d="M 2522 4238 
Q 1834 4238 1429 3725 
Q 1025 3213 1025 2328 
Q 1025 1447 1429 934 
Q 1834 422 2522 422 
Q 3209 422 3611 934 
Q 4013 1447 4013 2328 
Q 4013 3213 3611 3725 
Q 3209 4238 2522 4238 
z
M 2522 4750 
Q 3503 4750 4090 4092 
Q 4678 3434 4678 2328 
Q 4678 1225 4090 567 
Q 3503 -91 2522 -91 
Q 1538 -91 948 565 
Q 359 1222 359 2328 
Q 359 3434 948 4092 
Q 1538 4750 2522 4750 
z
" transform="scale(0.015625)"/>
     </defs>
     <use xlink:href="#DejaVuSans-4f"/>
     <use xlink:href="#DejaVuSans-43" transform="translate(78.710938 0)"/>
    </g>
   </g>
   <g id="text_21">
    <!-- FCS -->
    <g style="fill: #475569" transform="translate(112.835044 13.27875) scale(0.08 -0.08)">
     <defs>
      <path id="DejaVuSans-46" d="M 628 4666 
L 3309 4666 
L 3309 4134 
L 1259 4134 
L 1259 2759 
L 3109 2759 
L 3109 2228 
L 1259 2228 
L 1259 0 
L 628 0 
L 628 4666 
z
" transform="scale(0.015625)"/>
      <path id="DejaVuSans-53" d="M 3425 4513 
L 3425 3897 
Q 3066 4069 2747 4153 
Q 2428 4238 2131 4238 
Q 1616 4238 1336 4038 
Q 1056 3838 1056 3469 
Q 1056 3159 1242 3001 
Q 1428 2844 1947 2747 
L 2328 2669 
Q 3034 2534 3370 2195 
Q 3706 1856 3706 1288 
Q 3706 609 3251 259 
Q 2797 -91 1919 -91 
Q 1588 -91 1214 -16 
Q 841 59 441 206 
L 441 856 
Q 825 641 1194 531 
Q 1563 422 1919 422 
Q 2459 422 2753 634 
Q 3047 847 3047 1241 
Q 3047 1584 2836 1778 
Q 2625 1972 2144 2069 
L 1759 2144 
Q 1053 2284 737 2584 
Q 422 2884 422 3419 
Q 422 4038 858 4394 
Q 1294 4750 2059 4750 
Q 2388 4750 2728 4690 
Q 3069 4631 3425 4513 
z
" transform="scale(0.015625)"/>
     </defs>
     <use xlink:href="#DejaVuSans-46"/>
     <use xlink:href="#DejaVuSans-43" transform="translate(57.519531 0)"/>
     <use xlink:href="#DejaVuSans-53" transform="translate(127.34375 0)"/>
    </g>
   </g>
   <g id="text_22">
    <!-- SR -->
    <g style="fill: #475569" transform="translate(159.477599 13.27875) scale(0.08 -0.08)">
     <defs>
      <path id="DejaVuSans-52" d="M 2841 2188 
Q 3044 2119 3236 1894 
Q 3428 1669 3622 1275 
L 4263 0 
L 3584 0 
L 2988 1197 
Q 2756 1666 2539 1819 
Q 2322 1972 1947 1972 
L 1259 1972 
L 1259 0 
L 628 0 
L 628 4666 
L 2053 4666 
Q 2853 4666 3247 4331 
Q 3641 3997 3641 3322 
Q 3641 2881 3436 2590 
Q 3231 2300 2841 2188 
z
M 1259 4147 
L 1259 2491 
L 2053 2491 
Q 2509 2491 2742 2702 
Q 2975 2913 2975 3322 
Q 2975 3731 2742 3939 
Q 2509 4147 2053 4147 
L 1259 4147 
z
" transform="scale(0.015625)"/>
     </defs>
     <use xlink:href="#DejaVuSans-53"/>
     <use xlink:href="#DejaVuSans-52" transform="translate(63.476562 0)"/>
    </g>
   </g>
   <g id="text_23">
    <!-- FFC -->
    <g style="fill: #475569" transform="translate(212.812199 13.27875) scale(0.08 -0.08)">
     <use xlink:href="#DejaVuSans-46"/>
     <use xlink:href="#DejaVuSans-46" transform="translate(57.519531 0)"/>
     <use xlink:href="#DejaVuSans-43" transform="translate(115.039062 0)"/>
    </g>
   </g>
   <g id="text_24">
    <!-- SS -->
    <g style="fill: #475569" transform="translate(312.095718 13.27875) scale(0.08 -0.08)">
     <use xlink:href="#DejaVuSans-53"/>
     <use xlink:href="#DejaVuSans-53" transform="translate(63.476562 0)"/>
    </g>
   </g>
   <g id="text_25">
    <!-- OC -->
    <g style="fill: #475569" transform="translate(394.34793 13.27875) scale(0.08 -0.08)">
     <use xlink:href="#DejaVuSans-4f"/>
     <use xlink:href="#DejaVuSans-43" transform="translate(78.710938 0)"/>
    </g>
   </g>
   <g id="text_26">
    <!-- FCS -->
    <g style="fill: #475569" transform="translate(423.132304 13.27875) scale(0.08 -0.08)">
     <use xlink:href="#DejaVuSans-46"/>
     <use xlink:href="#DejaVuSans-43" transform="translate(57.519531 0)"/>
     <use xlink:href="#DejaVuSans-53" transform="translate(127.34375 0)"/>
    </g>
   </g>
   <g id="text_27">
    <!-- SR -->
    <g style="fill: #475569" transform="translate(469.774859 13.27875) scale(0.08 -0.08)">
     <use xlink:href="#DejaVuSans-53"/>
     <use xlink:href="#DejaVuSans-52" transform="translate(63.476562 0)"/>
    </g>
   </g>
   <g id="text_28">
    <!-- FFC -->
    <g style="fill: #475569" transform="translate(523.109459 13.27875) scale(0.08 -0.08)">
     <use xlink:href="#DejaVuSans-46"/>
     <use xlink:href="#DejaVuSans-46" transform="translate(57.519531 0)"/>
     <use xlink:href="#DejaVuSans-43" transform="translate(115.039062 0)"/>
    </g>
   </g>
   <g id="text_29">
    <!-- SS -->
    <g style="fill: #475569" transform="translate(622.392977 13.27875) scale(0.08 -0.08)">
     <use xlink:href="#DejaVuSans-53"/>
     <use xlink:href="#DejaVuSans-53" transform="translate(63.476562 0)"/>
    </g>
   </g>
   <g id="text_30">
    <!-- OC -->
    <g style="fill: #475569" transform="translate(704.64519 13.27875) scale(0.08 -0.08)">
     <use xlink:href="#DejaVuSans-4f"/>
     <use xlink:href="#DejaVuSans-43" transform="translate(78.710938 0)"/>
    </g>
   </g>
   <g id="text_31">
    <!-- FCS -->
    <g style="fill: #475569" transform="translate(733.429564 13.27875) scale(0.08 -0.08)">
     <use xlink:href="#DejaVuSans-46"/>
     <use xlink:href="#DejaVuSans-43" transform="translate(57.519531 0)"/>
     <use xlink:href="#DejaVuSans-53" transform="translate(127.34375 0)"/>
    </g>
   </g>
   <g id="text_32">
    <!-- SR -->
    <g style="fill: #475569" transform="translate(780.072119 13.27875) scale(0.08 -0.08)">
     <use xlink:href="#DejaVuSans-53"/>
     <use xlink:href="#DejaVuSans-52" transform="translate(63.476562 0)"/>
    </g>
   </g>
   <g id="text_33">
    <!-- FFC -->
    <g style="fill: #475569" transform="translate(833.406719 13.27875) scale(0.08 -0.08)">
     <use xlink:href="#DejaVuSans-46"/>
     <use xlink:href="#DejaVuSans-46" transform="translate(57.519531 0)"/>
     <use xlink:href="#DejaVuSans-43" transform="translate(115.039062 0)"/>
    </g>
   </g>
   <g id="text_34">
    <!-- SS -->
    <g style="fill: #475569" transform="translate(888.362057 13.27875) scale(0.08 -0.08)">
     <use xlink:href="#DejaVuSans-53"/>
     <use xlink:href="#DejaVuSans-53" transform="translate(63.476562 0)"/>
    </g>
   </g>
   <g id="legend_1">
    <g id="line2d_39">
     <path d="M 847.378437 27.540183 
L 855.378437 27.540183 
L 863.378437 27.540183 
" style="fill: none; stroke: #fdc38d; stroke-opacity: 0.95; stroke-width: 1.3; stroke-linecap: square"/>
    </g>
    <g id="text_35">
     <!-- T1 -->
     <g transform="translate(869.778437 30.340183) scale(0.08 -0.08)">
      <use xlink:href="#DejaVuSans-54"/>
      <use xlink:href="#DejaVuSans-31" transform="translate(61.083984 0)"/>
     </g>
    </g>
    <g id="line2d_40">
     <path d="M 847.378437 39.282683 
L 855.378437 39.282683 
L 863.378437 39.282683 
" style="fill: none; stroke: #fdac67; stroke-opacity: 0.95; stroke-width: 1.3; stroke-linecap: square"/>
    </g>
    <g id="text_36">
     <!-- T2 -->
     <g transform="translate(869.778437 42.082683) scale(0.08 -0.08)">
      <use xlink:href="#DejaVuSans-54"/>
      <use xlink:href="#DejaVuSans-32" transform="translate(61.083984 0)"/>
     </g>
    </g>
    <g id="line2d_41">
     <path d="M 847.378437 51.025183 
L 855.378437 51.025183 
L 863.378437 51.025183 
" style="fill: none; stroke: #fd9547; stroke-opacity: 0.95; stroke-width: 1.3; stroke-linecap: square"/>
    </g>
    <g id="text_37">
     <!-- T3 -->
     <g transform="translate(869.778437 53.825183) scale(0.08 -0.08)">
      <use xlink:href="#DejaVuSans-54"/>
      <use xlink:href="#DejaVuSans-33" transform="translate(61.083984 0)"/>
     </g>
    </g>
    <g id="line2d_42">
     <path d="M 895.754687 27.540183 
L 903.754687 27.540183 
L 911.754687 27.540183 
" style="fill: none; stroke: #f87d29; stroke-opacity: 0.95; stroke-width: 1.3; stroke-linecap: square"/>
    </g>
    <g id="text_38">
     <!-- T4 -->
     <g transform="translate(918.154687 30.340183) scale(0.08 -0.08)">
      <use xlink:href="#DejaVuSans-54"/>
      <use xlink:href="#DejaVuSans-34" transform="translate(61.083984 0)"/>
     </g>
    </g>
    <g id="line2d_43">
     <path d="M 895.754687 39.282683 
L 903.754687 39.282683 
L 911.754687 39.282683 
" style="fill: none; stroke: #ee6410; stroke-opacity: 0.95; stroke-width: 1.3; stroke-linecap: square"/>
    </g>
    <g id="text_39">
     <!-- T5 -->
     <g transform="translate(918.154687 42.082683) scale(0.08 -0.08)">
      <use xlink:href="#DejaVuSans-54"/>
      <use xlink:href="#DejaVuSans-35" transform="translate(61.083984 0)"/>
     </g>
    </g>
    <g id="line2d_44">
     <path d="M 895.754687 51.025183 
L 903.754687 51.025183 
L 911.754687 51.025183 
" style="fill: none; stroke: #dd4d04; stroke-opacity: 0.95; stroke-width: 1.3; stroke-linecap: square"/>
    </g>
    <g id="text_40">
     <!-- T6 -->
     <g transform="translate(918.154687 53.825183) scale(0.08 -0.08)">
      <use xlink:href="#DejaVuSans-54"/>
      <use xlink:href="#DejaVuSans-36" transform="translate(61.083984 0)"/>
     </g>
    </g>
   </g>
  </g>
 </g>
 <defs>
  <clipPath id="pe3141e3c83">
   <rect x="53.643438" y="17.061433" width="881.6875" height="211.89328"/>
  </clipPath>
 </defs>
</svg>
