<?xml version="1.0" encoding="utf-8" standalone="no"?>
<!DOCTYPE svg PUBLIC "-//W3C//DTD SVG 1.1//EN"
  "http://www.w3.org/Graphics/SVG/1.1/DTD/svg11.dtd">
<svg xmlns:xlink="http://www.w3.org/1999/xlink" width="942.553437pt" height="265.54315pt" viewBox="0 0 942.553437 265.54315" xmlns="http://www.w3.org/2000/svg" version="1.1">
 <metadata>
  <rdf:RDF xmlns:dc="http://purl.org/dc/elements/1.1/" xmlns:cc="http://creativecommons.org/ns#" xmlns:rdf="http://www.w3.org/1999/02/22-rdf-syntax-ns#">
   <cc:Work>
    <dc:type rdf:resource="http://purl.org/dc/dcmitype/StillImage"/>
    <dc:date>2026-04-17T17:29:52.874255</dc:date>
    <dc:format>image/svg+xml</dc:format>
    <dc:creator>
     <cc:Agent>
      <dc:title>Matplotlib v3.10.8, https://matplotlib.org/</dc:title>
     </cc:Agent>
    </dc:creator>
   </cc:Work>
  </rdf:RDF>
 </metadata>
 <defs>
  <style type="text/css">*{stroke-linejoin: round; stroke-linecap: butt}</style>
 </defs>
 <g id="figure_1">
  <g id="patch_1">
   <path d="M 0 265.54315 
L 942.553437 265.54315 
L 942.553437 0 
L 0 0 
z
" style="fill: #ffffff"/>
  </g>
  <g id="axes_1">
   <g id="patch_2">
    <path d="M 42.190938 228.954713 
L 935.353437 228.954713 
L 935.353437 17.061433 
L 42.190938 17.061433 
z
" style="fill: #ffffff"/>
   </g>
   <g id="patch_3">
    <path d="M 42.190938 228.954713 
L 59.367139 228.954713 
L 59.367139 17.061433 
L 42.190938 17.061433 
z
" clip-path="url(#pe73dc907cf)" style="fill: #f8fafc; opacity: 0.45"/>
   </g>
   <g id="patch_4">
    <path d="M 59.367139 228.954713 
L 93.045967 228.954713 
L 93.045967 17.061433 
L 59.367139 17.061433 
z
" clip-path="url(#pe73dc907cf)" style="fill: #eff6ff; opacity: 0.45"/>
   </g>
   <g id="patch_5">
    <path d="M 93.045967 228.954713 
L 126.724794 228.954713 
L 126.724794 17.061433 
L 93.045967 17.061433 
z
" clip-path="url(#pe73dc907cf)" style="fill: #fef3c7; opacity: 0.45"/>
   </g>
   <g id="patch_6">
    <path d="M 126.724794 228.954713 
L 166.016759 228.954713 
L 166.016759 17.061433 
L 126.724794 17.061433 
z
" clip-path="url(#pe73dc907cf)" style="fill: #dcfce7; opacity: 0.45"/>
   </g>
   <g id="patch_7">
    <path d="M 166.016759 228.954713 
L 222.148138 228.954713 
L 222.148138 17.061433 
L 166.016759 17.061433 
z
" clip-path="url(#pe73dc907cf)" style="fill: #fee2e2; opacity: 0.45"/>
   </g>
   <g id="patch_8">
    <path d="M 222.148138 228.954713 
L 233.374414 228.954713 
L 233.374414 17.061433 
L 222.148138 17.061433 
z
" clip-path="url(#pe73dc907cf)" style="fill: #ede9fe; opacity: 0.45"/>
   </g>
   <g id="patch_9">
    <path d="M 233.374414 228.954713 
L 379.315999 228.954713 
L 379.315999 17.061433 
L 233.374414 17.061433 
z
" clip-path="url(#pe73dc907cf)" style="fill: #f8fafc; opacity: 0.45"/>
   </g>
   <g id="patch_10">
    <path d="M 379.315999 228.954713 
L 407.381688 228.954713 
L 407.381688 17.061433 
L 379.315999 17.061433 
z
" clip-path="url(#pe73dc907cf)" style="fill: #eff6ff; opacity: 0.45"/>
   </g>
   <g id="patch_11">
    <path d="M 407.381688 228.954713 
L 441.060515 228.954713 
L 441.060515 17.061433 
L 407.381688 17.061433 
z
" clip-path="url(#pe73dc907cf)" style="fill: #fef3c7; opacity: 0.45"/>
   </g>
   <g id="patch_12">
    <path d="M 441.060515 228.954713 
L 480.352481 228.954713 
L 480.352481 17.061433 
L 441.060515 17.061433 
z
" clip-path="url(#pe73dc907cf)" style="fill: #dcfce7; opacity: 0.45"/>
   </g>
   <g id="patch_13">
    <path d="M 480.352481 228.954713 
L 536.48386 228.954713 
L 536.48386 17.061433 
L 480.352481 17.061433 
z
" clip-path="url(#pe73dc907cf)" style="fill: #fee2e2; opacity: 0.45"/>
   </g>
   <g id="patch_14">
    <path d="M 536.48386 228.954713 
L 553.323273 228.954713 
L 553.323273 17.061433 
L 536.48386 17.061433 
z
" clip-path="url(#pe73dc907cf)" style="fill: #ede9fe; opacity: 0.45"/>
   </g>
   <g id="patch_15">
    <path d="M 553.323273 228.954713 
L 693.65172 228.954713 
L 693.65172 17.061433 
L 553.323273 17.061433 
z
" clip-path="url(#pe73dc907cf)" style="fill: #f8fafc; opacity: 0.45"/>
   </g>
   <g id="patch_16">
    <path d="M 693.65172 228.954713 
L 721.71741 228.954713 
L 721.71741 17.061433 
L 693.65172 17.061433 
z
" clip-path="url(#pe73dc907cf)" style="fill: #eff6ff; opacity: 0.45"/>
   </g>
   <g id="patch_17">
    <path d="M 721.71741 228.954713 
L 755.396237 228.954713 
L 755.396237 17.061433 
L 721.71741 17.061433 
z
" clip-path="url(#pe73dc907cf)" style="fill: #fef3c7; opacity: 0.45"/>
   </g>
   <g id="patch_18">
    <path d="M 755.396237 228.954713 
L 794.688202 228.954713 
L 794.688202 17.061433 
L 755.396237 17.061433 
z
" clip-path="url(#pe73dc907cf)" style="fill: #dcfce7; opacity: 0.45"/>
   </g>
   <g id="patch_19">
    <path d="M 794.688202 228.954713 
L 850.819581 228.954713 
L 850.819581 17.061433 
L 794.688202 17.061433 
z
" clip-path="url(#pe73dc907cf)" style="fill: #fee2e2; opacity: 0.45"/>
   </g>
   <g id="patch_20">
    <path d="M 850.819581 228.954713 
L 867.658995 228.954713 
L 867.658995 17.061433 
L 850.819581 17.061433 
z
" clip-path="url(#pe73dc907cf)" style="fill: #ede9fe; opacity: 0.45"/>
   </g>
   <g id="patch_21">
    <path d="M 867.658995 228.954713 
L 918.177236 228.954713 
L 918.177236 17.061433 
L 867.658995 17.061433 
z
" clip-path="url(#pe73dc907cf)" style="fill: #f8fafc; opacity: 0.45"/>
   </g>
   <g id="patch_22">
    <path d="M 918.177236 228.954713 
L 923.790373 228.954713 
L 923.790373 17.061433 
L 918.177236 17.061433 
z
" clip-path="url(#pe73dc907cf)" style="fill: #eff6ff; opacity: 0.45"/>
   </g>
   <g id="matplotlib.axis_1">
    <g id="xtick_1">
     <g id="line2d_1">
      <path d="M 59.367139 228.954713 
L 59.367139 17.061433 
" clip-path="url(#pe73dc907cf)" style="fill: none; stroke: #eef2f7; stroke-width: 0.55; stroke-linecap: square"/>
     </g>
     <g id="line2d_2">
      <defs>
       <path id="mefebe9f4e8" d="M 0 0 
L 0 3.5 
" style="stroke: #000000; stroke-width: 0.8"/>
      </defs>
      <g>
       <use xlink:href="#mefebe9f4e8" x="59.367139" y="228.954713" style="stroke: #000000; stroke-width: 0.8"/>
      </g>
     </g>
     <g id="text_1">
      <!-- 40 -->
      <g transform="translate(53.640889 242.793307) scale(0.09 -0.09)">
       <defs>
        <path id="DejaVuSans-34" d="M 2419 4116 
L 825 1625 
L 2419 1625 
L 2419 4116 
z
M 2253 4666 
L 3047 4666 
L 3047 1625 
L 3713 1625 
L 3713 1100 
L 3047 1100 
L 3047 0 
L 2419 0 
L 2419 1100 
L 313 1100 
L 313 1709 
L 2253 4666 
z
" transform="scale(0.015625)"/>
        <path id="DejaVuSans-30" d="M 2034 4250 
Q 1547 4250 1301 3770 
Q 1056 3291 1056 2328 
Q 1056 1369 1301 889 
Q 1547 409 2034 409 
Q 2525 409 2770 889 
Q 3016 1369 3016 2328 
Q 3016 3291 2770 3770 
Q 2525 4250 2034 4250 
z
M 2034 4750 
Q 2819 4750 3233 4129 
Q 3647 3509 3647 2328 
Q 3647 1150 3233 529 
Q 2819 -91 2034 -91 
Q 1250 -91 836 529 
Q 422 1150 422 2328 
Q 422 3509 836 4129 
Q 1250 4750 2034 4750 
z
" transform="scale(0.015625)"/>
       </defs>
       <use xlink:href="#DejaVuSans-34"/>
       <use xlink:href="#DejaVuSans-30" transform="translate(63.623047 0)"/>
      </g>
     </g>
    </g>
    <g id="xtick_2">
     <g id="line2d_3">
      <path d="M 171.629897 228.954713 
L 171.629897 17.061433 
" clip-path="url(#pe73dc907cf)" style="fill: none; stroke: #eef2f7; stroke-width: 0.55; stroke-linecap: square"/>
     </g>
     <g id="line2d_4">
      <g>
       <use xlink:href="#mefebe9f4e8" x="171.629897" y="228.954713" style="stroke: #000000; stroke-width: 0.8"/>
      </g>
     </g>
     <g id="text_2">
      <!-- 60 -->
      <g transform="translate(165.903647 242.793307) scale(0.09 -0.09)">
       <defs>
        <path id="DejaVuSans-36" d="M 2113 2584 
Q 1688 2584 1439 2293 
Q 1191 2003 1191 1497 
Q 1191 994 1439 701 
Q 1688 409 2113 409 
Q 2538 409 2786 701 
Q 3034 994 3034 1497 
Q 3034 2003 2786 2293 
Q 2538 2584 2113 2584 
z
M 3366 4563 
L 3366 3988 
Q 3128 4100 2886 4159 
Q 2644 4219 2406 4219 
Q 1781 4219 1451 3797 
Q 1122 3375 1075 2522 
Q 1259 2794 1537 2939 
Q 1816 3084 2150 3084 
Q 2853 3084 3261 2657 
Q 3669 2231 3669 1497 
Q 3669 778 3244 343 
Q 2819 -91 2113 -91 
Q 1303 -91 875 529 
Q 447 1150 447 2328 
Q 447 3434 972 4092 
Q 1497 4750 2381 4750 
Q 2619 4750 2861 4703 
Q 3103 4656 3366 4563 
z
" transform="scale(0.015625)"/>
       </defs>
       <use xlink:href="#DejaVuSans-36"/>
       <use xlink:href="#DejaVuSans-30" transform="translate(63.623047 0)"/>
      </g>
     </g>
    </g>
    <g id="xtick_3">
     <g id="line2d_5">
      <path d="M 283.892655 228.954713 
L 283.892655 17.061433 
" clip-path="url(#pe73dc907cf)" style="fill: none; stroke: #eef2f7; stroke-width: 0.55; stroke-linecap: square"/>
     </g>
     <g id="line2d_6">
      <g>
       <use xlink:href="#mefebe9f4e8" x="283.892655" y="228.954713" style="stroke: #000000; stroke-width: 0.8"/>
      </g>
     </g>
     <g id="text_3">
      <!-- 80 -->
      <g transform="translate(278.166405 242.793307) scale(0.09 -0.09)">
       <defs>
        <path id="DejaVuSans-38" d="M 2034 2216 
Q 1584 2216 1326 1975 
Q 1069 1734 1069 1313 
Q 1069 891 1326 650 
Q 1584 409 2034 409 
Q 2484 409 2743 651 
Q 3003 894 3003 1313 
Q 3003 1734 2745 1975 
Q 2488 2216 2034 2216 
z
M 1403 2484 
Q 997 2584 770 2862 
Q 544 3141 544 3541 
Q 544 4100 942 4425 
Q 1341 4750 2034 4750 
Q 2731 4750 3128 4425 
Q 3525 4100 3525 3541 
Q 3525 3141 3298 2862 
Q 3072 2584 2669 2484 
Q 3125 2378 3379 2068 
Q 3634 1759 3634 1313 
Q 3634 634 3220 271 
Q 2806 -91 2034 -91 
Q 1263 -91 848 271 
Q 434 634 434 1313 
Q 434 1759 690 2068 
Q 947 2378 1403 2484 
z
M 1172 3481 
Q 1172 3119 1398 2916 
Q 1625 2713 2034 2713 
Q 2441 2713 2670 2916 
Q 2900 3119 2900 3481 
Q 2900 3844 2670 4047 
Q 2441 4250 2034 4250 
Q 1625 4250 1398 4047 
Q 1172 3844 1172 3481 
z
" transform="scale(0.015625)"/>
       </defs>
       <use xlink:href="#DejaVuSans-38"/>
       <use xlink:href="#DejaVuSans-30" transform="translate(63.623047 0)"/>
      </g>
     </g>
    </g>
    <g id="xtick_4">
     <g id="line2d_7">
      <path d="M 396.155412 228.954713 
L 396.155412 17.061433 
" clip-path="url(#pe73dc907cf)" style="fill: none; stroke: #eef2f7; stroke-width: 0.55; stroke-linecap: square"/>
     </g>
     <g id="line2d_8">
      <g>
       <use xlink:href="#mefebe9f4e8" x="396.155412" y="228.954713" style="stroke: #000000; stroke-width: 0.8"/>
      </g>
     </g>
     <g id="text_4">
      <!-- 100 -->
      <g transform="translate(387.566037 242.793307) scale(0.09 -0.09)">
       <defs>
        <path id="DejaVuSans-31" d="M 794 531 
L 1825 531 
L 1825 4091 
L 703 3866 
L 703 4441 
L 1819 4666 
L 2450 4666 
L 2450 531 
L 3481 531 
L 3481 0 
L 794 0 
L 794 531 
z
" transform="scale(0.015625)"/>
       </defs>
       <use xlink:href="#DejaVuSans-31"/>
       <use xlink:href="#DejaVuSans-30" transform="translate(63.623047 0)"/>
       <use xlink:href="#DejaVuSans-30" transform="translate(127.246094 0)"/>
      </g>
     </g>
    </g>
    <g id="xtick_5">
     <g id="line2d_9">
      <path d="M 508.41817 228.954713 
L 508.41817 17.061433 
" clip-path="url(#pe73dc907cf)" style="fill: none; stroke: #eef2f7; stroke-width: 0.55; stroke-linecap: square"/>
     </g>
     <g id="line2d_10">
      <g>
       <use xlink:href="#mefebe9f4e8" x="508.41817" y="228.954713" style="stroke: #000000; stroke-width: 0.8"/>
      </g>
     </g>
     <g id="text_5">
      <!-- 120 -->
      <g transform="translate(499.828795 242.793307) scale(0.09 -0.09)">
       <defs>
        <path id="DejaVuSans-32" d="M 1228 531 
L 3431 531 
L 3431 0 
L 469 0 
L 469 531 
Q 828 903 1448 1529 
Q 2069 2156 2228 2338 
Q 2531 2678 2651 2914 
Q 2772 3150 2772 3378 
Q 2772 3750 2511 3984 
Q 2250 4219 1831 4219 
Q 1534 4219 1204 4116 
Q 875 4013 500 3803 
L 500 4441 
Q 881 4594 1212 4672 
Q 1544 4750 1819 4750 
Q 2544 4750 2975 4387 
Q 3406 4025 3406 3419 
Q 3406 3131 3298 2873 
Q 3191 2616 2906 2266 
Q 2828 2175 2409 1742 
Q 1991 1309 1228 531 
z
" transform="scale(0.015625)"/>
       </defs>
       <use xlink:href="#DejaVuSans-31"/>
       <use xlink:href="#DejaVuSans-32" transform="translate(63.623047 0)"/>
       <use xlink:href="#DejaVuSans-30" transform="translate(127.246094 0)"/>
      </g>
     </g>
    </g>
    <g id="xtick_6">
     <g id="line2d_11">
      <path d="M 620.680928 228.954713 
L 620.680928 17.061433 
" clip-path="url(#pe73dc907cf)" style="fill: none; stroke: #eef2f7; stroke-width: 0.55; stroke-linecap: square"/>
     </g>
     <g id="line2d_12">
      <g>
       <use xlink:href="#mefebe9f4e8" x="620.680928" y="228.954713" style="stroke: #000000; stroke-width: 0.8"/>
      </g>
     </g>
     <g id="text_6">
      <!-- 140 -->
      <g transform="translate(612.091553 242.793307) scale(0.09 -0.09)">
       <use xlink:href="#DejaVuSans-31"/>
       <use xlink:href="#DejaVuSans-34" transform="translate(63.623047 0)"/>
       <use xlink:href="#DejaVuSans-30" transform="translate(127.246094 0)"/>
      </g>
     </g>
    </g>
    <g id="xtick_7">
     <g id="line2d_13">
      <path d="M 732.943685 228.954713 
L 732.943685 17.061433 
" clip-path="url(#pe73dc907cf)" style="fill: none; stroke: #eef2f7; stroke-width: 0.55; stroke-linecap: square"/>
     </g>
     <g id="line2d_14">
      <g>
       <use xlink:href="#mefebe9f4e8" x="732.943685" y="228.954713" style="stroke: #000000; stroke-width: 0.8"/>
      </g>
     </g>
     <g id="text_7">
      <!-- 160 -->
      <g transform="translate(724.35431 242.793307) scale(0.09 -0.09)">
       <use xlink:href="#DejaVuSans-31"/>
       <use xlink:href="#DejaVuSans-36" transform="translate(63.623047 0)"/>
       <use xlink:href="#DejaVuSans-30" transform="translate(127.246094 0)"/>
      </g>
     </g>
    </g>
    <g id="xtick_8">
     <g id="line2d_15">
      <path d="M 845.206443 228.954713 
L 845.206443 17.061433 
" clip-path="url(#pe73dc907cf)" style="fill: none; stroke: #eef2f7; stroke-width: 0.55; stroke-linecap: square"/>
     </g>
     <g id="line2d_16">
      <g>
       <use xlink:href="#mefebe9f4e8" x="845.206443" y="228.954713" style="stroke: #000000; stroke-width: 0.8"/>
      </g>
     </g>
     <g id="text_8">
      <!-- 180 -->
      <g transform="translate(836.617068 242.793307) scale(0.09 -0.09)">
       <use xlink:href="#DejaVuSans-31"/>
       <use xlink:href="#DejaVuSans-38" transform="translate(63.623047 0)"/>
       <use xlink:href="#DejaVuSans-30" transform="translate(127.246094 0)"/>
      </g>
     </g>
    </g>
    <g id="text_9">
     <!-- Minutes since session start -->
     <g transform="translate(421.182344 256.263463) scale(0.1 -0.1)">
      <defs>
       <path id="DejaVuSans-4d" d="M 628 4666 
L 1569 4666 
L 2759 1491 
L 3956 4666 
L 4897 4666 
L 4897 0 
L 4281 0 
L 4281 4097 
L 3078 897 
L 2444 897 
L 1241 4097 
L 1241 0 
L 628 0 
L 628 4666 
z
" transform="scale(0.015625)"/>
       <path id="DejaVuSans-69" d="M 603 3500 
L 1178 3500 
L 1178 0 
L 603 0 
L 603 3500 
z
M 603 4863 
L 1178 4863 
L 1178 4134 
L 603 4134 
L 603 4863 
z
" transform="scale(0.015625)"/>
       <path id="DejaVuSans-6e" d="M 3513 2113 
L 3513 0 
L 2938 0 
L 2938 2094 
Q 2938 2591 2744 2837 
Q 2550 3084 2163 3084 
Q 1697 3084 1428 2787 
Q 1159 2491 1159 1978 
L 1159 0 
L 581 0 
L 581 3500 
L 1159 3500 
L 1159 2956 
Q 1366 3272 1645 3428 
Q 1925 3584 2291 3584 
Q 2894 3584 3203 3211 
Q 3513 2838 3513 2113 
z
" transform="scale(0.015625)"/>
       <path id="DejaVuSans-75" d="M 544 1381 
L 544 3500 
L 1119 3500 
L 1119 1403 
Q 1119 906 1312 657 
Q 1506 409 1894 409 
Q 2359 409 2629 706 
Q 2900 1003 2900 1516 
L 2900 3500 
L 3475 3500 
L 3475 0 
L 2900 0 
L 2900 538 
Q 2691 219 2414 64 
Q 2138 -91 1772 -91 
Q 1169 -91 856 284 
Q 544 659 544 1381 
z
M 1991 3584 
L 1991 3584 
z
" transform="scale(0.015625)"/>
       <path id="DejaVuSans-74" d="M 1172 4494 
L 1172 3500 
L 2356 3500 
L 2356 3053 
L 1172 3053 
L 1172 1153 
Q 1172 725 1289 603 
Q 1406 481 1766 481 
L 2356 481 
L 2356 0 
L 1766 0 
Q 1100 0 847 248 
Q 594 497 594 1153 
L 594 3053 
L 172 3053 
L 172 3500 
L 594 3500 
L 594 4494 
L 1172 4494 
z
" transform="scale(0.015625)"/>
       <path id="DejaVuSans-65" d="M 3597 1894 
L 3597 1613 
L 953 1613 
Q 991 1019 1311 708 
Q 1631 397 2203 397 
Q 2534 397 2845 478 
Q 3156 559 3463 722 
L 3463 178 
Q 3153 47 2828 -22 
Q 2503 -91 2169 -91 
Q 1331 -91 842 396 
Q 353 884 353 1716 
Q 353 2575 817 3079 
Q 1281 3584 2069 3584 
Q 2775 3584 3186 3129 
Q 3597 2675 3597 1894 
z
M 3022 2063 
Q 3016 2534 2758 2815 
Q 2500 3097 2075 3097 
Q 1594 3097 1305 2825 
Q 1016 2553 972 2059 
L 3022 2063 
z
" transform="scale(0.015625)"/>
       <path id="DejaVuSans-73" d="M 2834 3397 
L 2834 2853 
Q 2591 2978 2328 3040 
Q 2066 3103 1784 3103 
Q 1356 3103 1142 2972 
Q 928 2841 928 2578 
Q 928 2378 1081 2264 
Q 1234 2150 1697 2047 
L 1894 2003 
Q 2506 1872 2764 1633 
Q 3022 1394 3022 966 
Q 3022 478 2636 193 
Q 2250 -91 1575 -91 
Q 1294 -91 989 -36 
Q 684 19 347 128 
L 347 722 
Q 666 556 975 473 
Q 1284 391 1588 391 
Q 1994 391 2212 530 
Q 2431 669 2431 922 
Q 2431 1156 2273 1281 
Q 2116 1406 1581 1522 
L 1381 1569 
Q 847 1681 609 1914 
Q 372 2147 372 2553 
Q 372 3047 722 3315 
Q 1072 3584 1716 3584 
Q 2034 3584 2315 3537 
Q 2597 3491 2834 3397 
z
" transform="scale(0.015625)"/>
       <path id="DejaVuSans-20" transform="scale(0.015625)"/>
       <path id="DejaVuSans-63" d="M 3122 3366 
L 3122 2828 
Q 2878 2963 2633 3030 
Q 2388 3097 2138 3097 
Q 1578 3097 1268 2742 
Q 959 2388 959 1747 
Q 959 1106 1268 751 
Q 1578 397 2138 397 
Q 2388 397 2633 464 
Q 2878 531 3122 666 
L 3122 134 
Q 2881 22 2623 -34 
Q 2366 -91 2075 -91 
Q 1284 -91 818 406 
Q 353 903 353 1747 
Q 353 2603 823 3093 
Q 1294 3584 2113 3584 
Q 2378 3584 2631 3529 
Q 2884 3475 3122 3366 
z
" transform="scale(0.015625)"/>
       <path id="DejaVuSans-6f" d="M 1959 3097 
Q 1497 3097 1228 2736 
Q 959 2375 959 1747 
Q 959 1119 1226 758 
Q 1494 397 1959 397 
Q 2419 397 2687 759 
Q 2956 1122 2956 1747 
Q 2956 2369 2687 2733 
Q 2419 3097 1959 3097 
z
M 1959 3584 
Q 2709 3584 3137 3096 
Q 3566 2609 3566 1747 
Q 3566 888 3137 398 
Q 2709 -91 1959 -91 
Q 1206 -91 779 398 
Q 353 888 353 1747 
Q 353 2609 779 3096 
Q 1206 3584 1959 3584 
z
" transform="scale(0.015625)"/>
       <path id="DejaVuSans-61" d="M 2194 1759 
Q 1497 1759 1228 1600 
Q 959 1441 959 1056 
Q 959 750 1161 570 
Q 1363 391 1709 391 
Q 2188 391 2477 730 
Q 2766 1069 2766 1631 
L 2766 1759 
L 2194 1759 
z
M 3341 1997 
L 3341 0 
L 2766 0 
L 2766 531 
Q 2569 213 2275 61 
Q 1981 -91 1556 -91 
Q 1019 -91 701 211 
Q 384 513 384 1019 
Q 384 1609 779 1909 
Q 1175 2209 1959 2209 
L 2766 2209 
L 2766 2266 
Q 2766 2663 2505 2880 
Q 2244 3097 1772 3097 
Q 1472 3097 1187 3025 
Q 903 2953 641 2809 
L 641 3341 
Q 956 3463 1253 3523 
Q 1550 3584 1831 3584 
Q 2591 3584 2966 3190 
Q 3341 2797 3341 1997 
z
" transform="scale(0.015625)"/>
       <path id="DejaVuSans-72" d="M 2631 2963 
Q 2534 3019 2420 3045 
Q 2306 3072 2169 3072 
Q 1681 3072 1420 2755 
Q 1159 2438 1159 1844 
L 1159 0 
L 581 0 
L 581 3500 
L 1159 3500 
L 1159 2956 
Q 1341 3275 1631 3429 
Q 1922 3584 2338 3584 
Q 2397 3584 2469 3576 
Q 2541 3569 2628 3553 
L 2631 2963 
z
" transform="scale(0.015625)"/>
      </defs>
      <use xlink:href="#DejaVuSans-4d"/>
      <use xlink:href="#DejaVuSans-69" transform="translate(86.279297 0)"/>
      <use xlink:href="#DejaVuSans-6e" transform="translate(114.0625 0)"/>
      <use xlink:href="#DejaVuSans-75" transform="translate(177.441406 0)"/>
      <use xlink:href="#DejaVuSans-74" transform="translate(240.820312 0)"/>
      <use xlink:href="#DejaVuSans-65" transform="translate(280.029297 0)"/>
      <use xlink:href="#DejaVuSans-73" transform="translate(341.552734 0)"/>
      <use xlink:href="#DejaVuSans-20" transform="translate(393.652344 0)"/>
      <use xlink:href="#DejaVuSans-73" transform="translate(425.439453 0)"/>
      <use xlink:href="#DejaVuSans-69" transform="translate(477.539062 0)"/>
      <use xlink:href="#DejaVuSans-6e" transform="translate(505.322266 0)"/>
      <use xlink:href="#DejaVuSans-63" transform="translate(568.701172 0)"/>
      <use xlink:href="#DejaVuSans-65" transform="translate(623.681641 0)"/>
      <use xlink:href="#DejaVuSans-20" transform="translate(685.205078 0)"/>
      <use xlink:href="#DejaVuSans-73" transform="translate(716.992188 0)"/>
      <use xlink:href="#DejaVuSans-65" transform="translate(769.091797 0)"/>
      <use xlink:href="#DejaVuSans-73" transform="translate(830.615234 0)"/>
      <use xlink:href="#DejaVuSans-73" transform="translate(882.714844 0)"/>
      <use xlink:href="#DejaVuSans-69" transform="translate(934.814453 0)"/>
      <use xlink:href="#DejaVuSans-6f" transform="translate(962.597656 0)"/>
      <use xlink:href="#DejaVuSans-6e" transform="translate(1023.779297 0)"/>
      <use xlink:href="#DejaVuSans-20" transform="translate(1087.158203 0)"/>
      <use xlink:href="#DejaVuSans-73" transform="translate(1118.945312 0)"/>
      <use xlink:href="#DejaVuSans-74" transform="translate(1171.044922 0)"/>
      <use xlink:href="#DejaVuSans-61" transform="translate(1210.253906 0)"/>
      <use xlink:href="#DejaVuSans-72" transform="translate(1271.533203 0)"/>
      <use xlink:href="#DejaVuSans-74" transform="translate(1312.646484 0)"/>
     </g>
    </g>
   </g>
   <g id="matplotlib.axis_2">
    <g id="ytick_1">
     <g id="line2d_17">
      <path d="M 42.190938 219.3232 
L 935.353437 219.3232 
" clip-path="url(#pe73dc907cf)" style="fill: none; stroke: #eef2f7; stroke-opacity: 0.25; stroke-width: 0.55; stroke-linecap: square"/>
     </g>
     <g id="line2d_18">
      <defs>
       <path id="mf38517b01b" d="M 0 0 
L -3.5 0 
" style="stroke: #000000; stroke-width: 0.8"/>
      </defs>
      <g>
       <use xlink:href="#mf38517b01b" x="42.190938" y="219.3232" style="stroke: #000000; stroke-width: 0.8"/>
      </g>
     </g>
     <g id="text_10">
      <!-- 0.0 -->
      <g transform="translate(20.878125 222.742497) scale(0.09 -0.09)">
       <defs>
        <path id="DejaVuSans-2e" d="M 684 794 
L 1344 794 
L 1344 0 
L 684 0 
L 684 794 
z
" transform="scale(0.015625)"/>
       </defs>
       <use xlink:href="#DejaVuSans-30"/>
       <use xlink:href="#DejaVuSans-2e" transform="translate(63.623047 0)"/>
       <use xlink:href="#DejaVuSans-30" transform="translate(95.410156 0)"/>
      </g>
     </g>
    </g>
    <g id="ytick_2">
     <g id="line2d_19">
      <path d="M 42.190938 184.426415 
L 935.353437 184.426415 
" clip-path="url(#pe73dc907cf)" style="fill: none; stroke: #eef2f7; stroke-opacity: 0.25; stroke-width: 0.55; stroke-linecap: square"/>
     </g>
     <g id="line2d_20">
      <g>
       <use xlink:href="#mf38517b01b" x="42.190938" y="184.426415" style="stroke: #000000; stroke-width: 0.8"/>
      </g>
     </g>
     <g id="text_11">
      <!-- 0.1 -->
      <g transform="translate(20.878125 187.845712) scale(0.09 -0.09)">
       <use xlink:href="#DejaVuSans-30"/>
       <use xlink:href="#DejaVuSans-2e" transform="translate(63.623047 0)"/>
       <use xlink:href="#DejaVuSans-31" transform="translate(95.410156 0)"/>
      </g>
     </g>
    </g>
    <g id="ytick_3">
     <g id="line2d_21">
      <path d="M 42.190938 149.52963 
L 935.353437 149.52963 
" clip-path="url(#pe73dc907cf)" style="fill: none; stroke: #eef2f7; stroke-opacity: 0.25; stroke-width: 0.55; stroke-linecap: square"/>
     </g>
     <g id="line2d_22">
      <g>
       <use xlink:href="#mf38517b01b" x="42.190938" y="149.52963" style="stroke: #000000; stroke-width: 0.8"/>
      </g>
     </g>
     <g id="text_12">
      <!-- 0.2 -->
      <g transform="translate(20.878125 152.948926) scale(0.09 -0.09)">
       <use xlink:href="#DejaVuSans-30"/>
       <use xlink:href="#DejaVuSans-2e" transform="translate(63.623047 0)"/>
       <use xlink:href="#DejaVuSans-32" transform="translate(95.410156 0)"/>
      </g>
     </g>
    </g>
    <g id="ytick_4">
     <g id="line2d_23">
      <path d="M 42.190938 114.632844 
L 935.353437 114.632844 
" clip-path="url(#pe73dc907cf)" style="fill: none; stroke: #eef2f7; stroke-opacity: 0.25; stroke-width: 0.55; stroke-linecap: square"/>
     </g>
     <g id="line2d_24">
      <g>
       <use xlink:href="#mf38517b01b" x="42.190938" y="114.632844" style="stroke: #000000; stroke-width: 0.8"/>
      </g>
     </g>
     <g id="text_13">
      <!-- 0.3 -->
      <g transform="translate(20.878125 118.052141) scale(0.09 -0.09)">
       <defs>
        <path id="DejaVuSans-33" d="M 2597 2516 
Q 3050 2419 3304 2112 
Q 3559 1806 3559 1356 
Q 3559 666 3084 287 
Q 2609 -91 1734 -91 
Q 1441 -91 1130 -33 
Q 819 25 488 141 
L 488 750 
Q 750 597 1062 519 
Q 1375 441 1716 441 
Q 2309 441 2620 675 
Q 2931 909 2931 1356 
Q 2931 1769 2642 2001 
Q 2353 2234 1838 2234 
L 1294 2234 
L 1294 2753 
L 1863 2753 
Q 2328 2753 2575 2939 
Q 2822 3125 2822 3475 
Q 2822 3834 2567 4026 
Q 2313 4219 1838 4219 
Q 1578 4219 1281 4162 
Q 984 4106 628 3988 
L 628 4550 
Q 988 4650 1302 4700 
Q 1616 4750 1894 4750 
Q 2613 4750 3031 4423 
Q 3450 4097 3450 3541 
Q 3450 3153 3228 2886 
Q 3006 2619 2597 2516 
z
" transform="scale(0.015625)"/>
       </defs>
       <use xlink:href="#DejaVuSans-30"/>
       <use xlink:href="#DejaVuSans-2e" transform="translate(63.623047 0)"/>
       <use xlink:href="#DejaVuSans-33" transform="translate(95.410156 0)"/>
      </g>
     </g>
    </g>
    <g id="ytick_5">
     <g id="line2d_25">
      <path d="M 42.190938 79.736059 
L 935.353437 79.736059 
" clip-path="url(#pe73dc907cf)" style="fill: none; stroke: #eef2f7; stroke-opacity: 0.25; stroke-width: 0.55; stroke-linecap: square"/>
     </g>
     <g id="line2d_26">
      <g>
       <use xlink:href="#mf38517b01b" x="42.190938" y="79.736059" style="stroke: #000000; stroke-width: 0.8"/>
      </g>
     </g>
     <g id="text_14">
      <!-- 0.4 -->
      <g transform="translate(20.878125 83.155356) scale(0.09 -0.09)">
       <use xlink:href="#DejaVuSans-30"/>
       <use xlink:href="#DejaVuSans-2e" transform="translate(63.623047 0)"/>
       <use xlink:href="#DejaVuSans-34" transform="translate(95.410156 0)"/>
      </g>
     </g>
    </g>
    <g id="ytick_6">
     <g id="line2d_27">
      <path d="M 42.190938 44.839274 
L 935.353437 44.839274 
" clip-path="url(#pe73dc907cf)" style="fill: none; stroke: #eef2f7; stroke-opacity: 0.25; stroke-width: 0.55; stroke-linecap: square"/>
     </g>
     <g id="line2d_28">
      <g>
       <use xlink:href="#mf38517b01b" x="42.190938" y="44.839274" style="stroke: #000000; stroke-width: 0.8"/>
      </g>
     </g>
     <g id="text_15">
      <!-- 0.5 -->
      <g transform="translate(20.878125 48.258571) scale(0.09 -0.09)">
       <defs>
        <path id="DejaVuSans-35" d="M 691 4666 
L 3169 4666 
L 3169 4134 
L 1269 4134 
L 1269 2991 
Q 1406 3038 1543 3061 
Q 1681 3084 1819 3084 
Q 2600 3084 3056 2656 
Q 3513 2228 3513 1497 
Q 3513 744 3044 326 
Q 2575 -91 1722 -91 
Q 1428 -91 1123 -41 
Q 819 9 494 109 
L 494 744 
Q 775 591 1075 516 
Q 1375 441 1709 441 
Q 2250 441 2565 725 
Q 2881 1009 2881 1497 
Q 2881 1984 2565 2268 
Q 2250 2553 1709 2553 
Q 1456 2553 1204 2497 
Q 953 2441 691 2322 
L 691 4666 
z
" transform="scale(0.015625)"/>
       </defs>
       <use xlink:href="#DejaVuSans-30"/>
       <use xlink:href="#DejaVuSans-2e" transform="translate(63.623047 0)"/>
       <use xlink:href="#DejaVuSans-35" transform="translate(95.410156 0)"/>
      </g>
     </g>
    </g>
    <g id="text_16">
     <!-- Velocity (m/s) -->
     <g transform="translate(14.798438 157.273698) rotate(-90) scale(0.1 -0.1)">
      <defs>
       <path id="DejaVuSans-56" d="M 1831 0 
L 50 4666 
L 709 4666 
L 2188 738 
L 3669 4666 
L 4325 4666 
L 2547 0 
L 1831 0 
z
" transform="scale(0.015625)"/>
       <path id="DejaVuSans-6c" d="M 603 4863 
L 1178 4863 
L 1178 0 
L 603 0 
L 603 4863 
z
" transform="scale(0.015625)"/>
       <path id="DejaVuSans-79" d="M 2059 -325 
Q 1816 -950 1584 -1140 
Q 1353 -1331 966 -1331 
L 506 -1331 
L 506 -850 
L 844 -850 
Q 1081 -850 1212 -737 
Q 1344 -625 1503 -206 
L 1606 56 
L 191 3500 
L 800 3500 
L 1894 763 
L 2988 3500 
L 3597 3500 
L 2059 -325 
z
" transform="scale(0.015625)"/>
       <path id="DejaVuSans-28" d="M 1984 4856 
Q 1566 4138 1362 3434 
Q 1159 2731 1159 2009 
Q 1159 1288 1364 580 
Q 1569 -128 1984 -844 
L 1484 -844 
Q 1016 -109 783 600 
Q 550 1309 550 2009 
Q 550 2706 781 3412 
Q 1013 4119 1484 4856 
L 1984 4856 
z
" transform="scale(0.015625)"/>
       <path id="DejaVuSans-6d" d="M 3328 2828 
Q 3544 3216 3844 3400 
Q 4144 3584 4550 3584 
Q 5097 3584 5394 3201 
Q 5691 2819 5691 2113 
L 5691 0 
L 5113 0 
L 5113 2094 
Q 5113 2597 4934 2840 
Q 4756 3084 4391 3084 
Q 3944 3084 3684 2787 
Q 3425 2491 3425 1978 
L 3425 0 
L 2847 0 
L 2847 2094 
Q 2847 2600 2669 2842 
Q 2491 3084 2119 3084 
Q 1678 3084 1418 2786 
Q 1159 2488 1159 1978 
L 1159 0 
L 581 0 
L 581 3500 
L 1159 3500 
L 1159 2956 
Q 1356 3278 1631 3431 
Q 1906 3584 2284 3584 
Q 2666 3584 2933 3390 
Q 3200 3197 3328 2828 
z
" transform="scale(0.015625)"/>
       <path id="DejaVuSans-2f" d="M 1625 4666 
L 2156 4666 
L 531 -594 
L 0 -594 
L 1625 4666 
z
" transform="scale(0.015625)"/>
       <path id="DejaVuSans-29" d="M 513 4856 
L 1013 4856 
Q 1481 4119 1714 3412 
Q 1947 2706 1947 2009 
Q 1947 1309 1714 600 
Q 1481 -109 1013 -844 
L 513 -844 
Q 928 -128 1133 580 
Q 1338 1288 1338 2009 
Q 1338 2731 1133 3434 
Q 928 4138 513 4856 
z
" transform="scale(0.015625)"/>
      </defs>
      <use xlink:href="#DejaVuSans-56"/>
      <use xlink:href="#DejaVuSans-65" transform="translate(60.658203 0)"/>
      <use xlink:href="#DejaVuSans-6c" transform="translate(122.181641 0)"/>
      <use xlink:href="#DejaVuSans-6f" transform="translate(149.964844 0)"/>
      <use xlink:href="#DejaVuSans-63" transform="translate(211.146484 0)"/>
      <use xlink:href="#DejaVuSans-69" transform="translate(266.126953 0)"/>
      <use xlink:href="#DejaVuSans-74" transform="translate(293.910156 0)"/>
      <use xlink:href="#DejaVuSans-79" transform="translate(333.119141 0)"/>
      <use xlink:href="#DejaVuSans-20" transform="translate(392.298828 0)"/>
      <use xlink:href="#DejaVuSans-28" transform="translate(424.085938 0)"/>
      <use xlink:href="#DejaVuSans-6d" transform="translate(463.099609 0)"/>
      <use xlink:href="#DejaVuSans-2f" transform="translate(560.511719 0)"/>
      <use xlink:href="#DejaVuSans-73" transform="translate(594.203125 0)"/>
      <use xlink:href="#DejaVuSans-29" transform="translate(646.302734 0)"/>
     </g>
    </g>
   </g>
   <g id="line2d_29">
    <path d="M 59.367139 199.781 
L 64.980277 201.176872 
L 70.593415 200.478936 
L 76.206553 191.75474 
L 81.819691 184.775383 
L 87.432829 200.478936 
L 93.045967 165.582151 
L 98.659105 198.036161 
L 104.272242 202.921711 
L 109.88538 193.499579 
L 115.498518 199.781 
L 121.111656 202.223775 
L 126.724794 201.52584 
L 132.337932 202.572743 
L 137.95107 199.432032 
L 143.564208 199.432032 
L 149.177346 196.989258 
L 154.790483 198.036161 
L 160.403621 196.64029 
L 166.016759 193.150611 
L 171.629897 180.936736 
L 182.856173 187.916093 
L 188.469311 181.285704 
L 194.082449 189.311965 
L 199.695587 199.083065 
L 205.308724 182.681576 
L 210.921862 185.124351 
L 216.535 183.379511 
L 222.148138 192.103708 
L 227.761276 195.942354 
L 233.374414 201.874807 
L 238.987552 208.505197 
L 244.60069 203.968615 
L 250.213827 202.921711 
L 255.826965 196.291322 
L 261.440103 200.129968 
L 267.053241 201.874807 
L 272.666379 199.781 
L 278.279517 199.781 
L 283.892655 198.036161 
L 289.505793 196.989258 
L 295.118931 198.734097 
L 300.732068 198.036161 
L 306.345206 198.385129 
L 311.958344 196.989258 
L 317.571482 204.66655 
L 323.18462 198.036161 
L 328.797758 195.593386 
L 334.410896 195.593386 
L 340.024034 197.687193 
L 345.637171 195.942354 
L 351.250309 198.734097 
L 356.863447 195.244418 
L 362.476585 199.781 
L 368.089723 196.989258 
L 373.702861 195.593386 
L 384.929137 196.989258 
L 390.542275 203.270679 
L 396.155412 193.150611 
L 401.76855 191.405772 
L 407.381688 176.400154 
L 412.994826 171.863572 
L 418.607964 174.655315 
L 424.221102 183.379511 
L 429.83424 196.989258 
L 435.447378 200.827904 
L 441.060515 207.109325 
L 446.673653 196.989258 
L 452.286791 198.385129 
L 457.899929 200.129968 
L 463.513067 199.781 
L 469.126205 197.338225 
L 480.352481 200.129968 
L 485.965619 187.218158 
L 491.578756 187.916093 
L 497.191894 188.962997 
L 502.805032 187.567126 
L 508.41817 176.051186 
L 519.644446 178.493961 
L 525.257584 184.077447 
L 530.870722 177.447058 
L 536.48386 191.75474 
L 542.096997 195.244418 
L 547.710135 201.52584 
L 553.323273 195.593386 
L 558.936411 192.801643 
L 564.549549 196.291322 
L 570.162687 206.41139 
L 575.775825 194.546483 
L 581.388963 200.827904 
L 587.0021 201.176872 
L 592.615238 206.41139 
L 598.228376 196.291322 
L 603.841514 200.129968 
L 609.454652 199.781 
L 615.06779 195.942354 
L 620.680928 198.036161 
L 626.294066 195.244418 
L 631.907204 194.197515 
L 637.520341 200.129968 
L 643.133479 194.546483 
L 648.746617 202.572743 
L 654.359755 200.827904 
L 671.199169 202.921711 
L 676.812307 195.942354 
L 682.425444 199.432032 
L 688.038582 199.432032 
L 693.65172 198.385129 
L 699.264858 200.827904 
L 704.877996 203.968615 
L 710.491134 197.338225 
L 716.104272 185.822286 
L 721.71741 190.0099 
L 727.330548 184.426415 
L 732.943685 177.796026 
L 738.556823 189.311965 
L 744.169961 199.432032 
L 749.783099 201.874807 
L 755.396237 200.129968 
L 761.009375 199.432032 
L 766.622513 197.687193 
L 772.235651 202.572743 
L 777.848788 199.781 
L 783.461926 196.291322 
L 789.075064 198.036161 
L 794.688202 197.687193 
L 800.30134 189.311965 
L 805.914478 189.311965 
L 811.527616 185.124351 
L 817.140754 179.191897 
L 822.753892 186.520222 
L 828.367029 179.889833 
L 839.593305 177.447058 
L 845.206443 178.842929 
L 850.819581 202.223775 
L 856.432719 198.385129 
L 862.045857 196.291322 
L 867.658995 198.734097 
L 873.272133 197.687193 
L 878.88527 195.942354 
L 884.498408 201.52584 
L 887.304977 200.129968 
L 890.111546 198.385129 
L 895.724684 199.781 
L 901.337822 199.083065 
L 906.95096 207.109325 
L 912.564098 199.781 
L 918.177236 198.734097 
L 918.177236 198.734097 
" clip-path="url(#pe73dc907cf)" style="fill: none; stroke: #b8e3b2; stroke-opacity: 0.95; stroke-width: 0.936; stroke-linecap: square"/>
   </g>
   <g id="line2d_30">
    <path d="M 59.367139 203.619647 
L 64.980277 207.109325 
L 70.593415 208.505197 
L 76.206553 194.197515 
L 81.819691 190.0099 
L 87.432829 182.681576 
L 93.045967 204.317582 
L 98.659105 179.540865 
L 104.272242 186.171254 
L 109.88538 191.405772 
L 115.498518 201.176872 
L 121.111656 205.015518 
L 126.724794 203.968615 
L 132.337932 197.338225 
L 137.95107 198.734097 
L 143.564208 206.062422 
L 149.177346 201.176872 
L 154.790483 205.015518 
L 160.403621 201.874807 
L 166.016759 194.89545 
L 171.629897 190.358868 
L 177.243035 183.379511 
L 182.856173 203.619647 
L 188.469311 203.270679 
L 194.082449 201.176872 
L 199.695587 200.129968 
L 205.308724 208.505197 
L 210.921862 190.707836 
L 216.535 197.687193 
L 222.148138 190.707836 
L 227.761276 203.270679 
L 233.374414 206.062422 
L 238.987552 205.713454 
L 244.60069 202.223775 
L 250.213827 201.874807 
L 255.826965 197.687193 
L 261.440103 207.109325 
L 267.053241 210.947972 
L 272.666379 204.66655 
L 278.279517 194.89545 
L 283.892655 207.109325 
L 289.505793 198.036161 
L 295.118931 200.827904 
L 300.732068 201.52584 
L 306.345206 203.270679 
L 311.958344 204.66655 
L 317.571482 201.176872 
L 323.18462 205.364486 
L 328.797758 200.478936 
L 334.410896 204.317582 
L 340.024034 205.713454 
L 345.637171 199.432032 
L 351.250309 198.734097 
L 356.863447 204.317582 
L 362.476585 205.015518 
L 368.089723 200.478936 
L 373.702861 203.270679 
L 379.315999 201.874807 
L 384.929137 209.901068 
L 390.542275 198.734097 
L 396.155412 192.103708 
L 401.76855 180.587768 
L 407.381688 187.218158 
L 418.607964 193.499579 
L 424.221102 199.083065 
L 429.83424 196.64029 
L 435.447378 202.223775 
L 441.060515 209.203132 
L 446.673653 199.083065 
L 452.286791 198.734097 
L 457.899929 199.432032 
L 463.513067 205.015518 
L 469.126205 207.807261 
L 474.739343 204.317582 
L 480.352481 192.103708 
L 485.965619 186.171254 
L 491.578756 185.124351 
L 497.191894 180.587768 
L 502.805032 201.52584 
L 508.41817 200.827904 
L 519.644446 203.619647 
L 525.257584 202.921711 
L 530.870722 198.036161 
L 536.48386 198.734097 
L 542.096997 201.52584 
L 547.710135 202.223775 
L 553.323273 200.827904 
L 558.936411 201.176872 
L 564.549549 198.734097 
L 570.162687 204.317582 
L 575.775825 199.083065 
L 578.582394 201.874807 
L 581.388963 205.015518 
L 587.0021 204.317582 
L 592.615238 198.036161 
L 598.228376 206.760357 
L 603.841514 205.364486 
L 609.454652 204.66655 
L 615.06779 204.66655 
L 620.680928 200.478936 
L 626.294066 190.707836 
L 631.907204 202.572743 
L 643.133479 198.385129 
L 648.746617 198.036161 
L 654.359755 199.781 
L 659.972893 194.89545 
L 665.586031 199.781 
L 671.199169 200.478936 
L 676.812307 199.083065 
L 682.425444 201.52584 
L 688.038582 201.176872 
L 693.65172 194.89545 
L 699.264858 201.52584 
L 704.877996 204.317582 
L 710.491134 185.473318 
L 716.104272 185.473318 
L 721.71741 199.781 
L 727.330548 203.968615 
L 732.943685 205.015518 
L 738.556823 201.52584 
L 744.169961 195.942354 
L 749.783099 195.244418 
L 755.396237 195.942354 
L 761.009375 199.781 
L 766.622513 204.317582 
L 772.235651 199.781 
L 777.848788 203.270679 
L 783.461926 200.129968 
L 789.075064 201.176872 
L 794.688202 198.734097 
L 800.30134 177.09809 
L 805.914478 202.223775 
L 811.527616 189.660933 
L 817.140754 196.291322 
L 822.753892 195.942354 
L 828.367029 196.64029 
L 839.593305 202.921711 
L 845.206443 201.52584 
L 850.819581 192.801643 
L 856.432719 198.385129 
L 862.045857 201.52584 
L 867.658995 194.546483 
L 873.272133 201.874807 
L 878.88527 206.41139 
L 884.498408 202.921711 
L 890.111546 205.713454 
L 895.724684 202.223775 
L 901.337822 199.083065 
L 906.95096 197.338225 
L 912.564098 198.734097 
L 918.177236 200.827904 
L 918.177236 200.827904 
" clip-path="url(#pe73dc907cf)" style="fill: none; stroke: #98d594; stroke-opacity: 0.95; stroke-width: 0.936; stroke-linecap: square"/>
   </g>
   <g id="line2d_31">
    <path d="M 59.367139 212.343843 
L 64.980277 206.062422 
L 70.593415 216.531457 
L 76.206553 149.878597 
L 81.819691 121.612201 
L 87.432829 109.747294 
L 93.045967 123.008073 
L 98.659105 140.107498 
L 104.272242 140.805433 
L 109.88538 165.582151 
L 115.498518 201.52584 
L 126.724794 206.41139 
L 132.337932 209.203132 
L 137.95107 212.343843 
L 143.564208 212.692811 
L 149.177346 206.760357 
L 154.790483 213.041779 
L 160.403621 210.250036 
L 166.016759 162.092472 
L 171.629897 112.888005 
L 177.243035 136.966787 
L 182.856173 136.268851 
L 188.469311 129.638462 
L 194.082449 144.993048 
L 199.695587 138.362658 
L 205.308724 150.227565 
L 210.921862 146.039951 
L 216.535 143.597176 
L 222.148138 194.89545 
L 227.761276 204.317582 
L 233.374414 208.505197 
L 244.60069 208.505197 
L 250.213827 212.692811 
L 255.826965 205.015518 
L 261.440103 212.343843 
L 267.053241 208.505197 
L 272.666379 211.296939 
L 278.279517 206.41139 
L 283.892655 212.692811 
L 289.505793 210.250036 
L 295.118931 218.625264 
L 300.732068 204.66655 
L 306.345206 206.760357 
L 317.571482 213.041779 
L 323.18462 210.250036 
L 328.797758 206.062422 
L 334.410896 205.015518 
L 340.024034 205.713454 
L 345.637171 210.250036 
L 351.250309 209.203132 
L 356.863447 210.947972 
L 362.476585 211.296939 
L 368.089723 213.041779 
L 373.702861 206.062422 
L 379.315999 210.947972 
L 384.929137 206.062422 
L 390.542275 204.317582 
L 396.155412 142.89924 
L 401.76855 113.585941 
L 407.381688 139.409562 
L 412.994826 157.206922 
L 418.607964 142.550273 
L 424.221102 171.863572 
L 429.83424 202.223775 
L 435.447378 210.947972 
L 441.060515 209.901068 
L 446.673653 208.156229 
L 452.286791 204.317582 
L 457.899929 211.645907 
L 463.513067 212.343843 
L 469.126205 205.713454 
L 474.739343 205.713454 
L 480.352481 153.368276 
L 485.965619 114.632844 
L 491.578756 150.576533 
L 497.191894 147.435822 
L 502.805032 142.550273 
L 508.41817 153.368276 
L 519.644446 157.904858 
L 525.257584 144.64408 
L 530.870722 142.89924 
L 536.48386 192.103708 
L 542.096997 200.827904 
L 547.710135 205.364486 
L 553.323273 214.088682 
L 558.936411 206.41139 
L 564.549549 216.182489 
L 570.162687 206.760357 
L 575.775825 206.062422 
L 581.388963 208.156229 
L 587.0021 211.296939 
L 592.615238 205.713454 
L 598.228376 211.994875 
L 603.841514 208.156229 
L 609.454652 213.739714 
L 615.06779 211.296939 
L 620.680928 207.458293 
L 626.294066 210.250036 
L 631.907204 208.156229 
L 637.520341 203.968615 
L 643.133479 209.203132 
L 648.746617 212.692811 
L 654.359755 207.458293 
L 659.972893 209.901068 
L 665.586031 205.015518 
L 671.199169 212.692811 
L 676.812307 206.062422 
L 682.425444 205.015518 
L 688.038582 206.760357 
L 693.65172 202.921711 
L 699.264858 211.994875 
L 704.877996 212.692811 
L 710.491134 131.383301 
L 716.104272 118.820459 
L 721.71741 153.717244 
L 727.330548 147.435822 
L 732.943685 146.737887 
L 738.556823 178.842929 
L 744.169961 202.921711 
L 749.783099 206.760357 
L 755.396237 208.156229 
L 761.009375 202.921711 
L 766.622513 201.52584 
L 772.235651 210.250036 
L 777.848788 207.458293 
L 783.461926 210.599004 
L 789.075064 207.807261 
L 794.688202 152.321372 
L 800.30134 117.075619 
L 805.914478 151.623437 
L 811.527616 155.462083 
L 817.140754 152.67034 
L 822.753892 150.227565 
L 828.367029 139.060594 
L 839.593305 149.52963 
L 845.206443 122.659105 
L 850.819581 185.124351 
L 856.432719 200.478936 
L 862.045857 202.572743 
L 867.658995 203.968615 
L 873.272133 210.250036 
L 878.88527 205.015518 
L 884.498408 215.833522 
L 890.111546 206.062422 
L 895.724684 212.692811 
L 901.337822 204.66655 
L 906.95096 211.645907 
L 912.564098 211.296939 
L 918.177236 211.296939 
L 918.177236 211.296939 
" clip-path="url(#pe73dc907cf)" style="fill: none; stroke: #73c476; stroke-opacity: 0.95; stroke-width: 0.936; stroke-linecap: square"/>
   </g>
   <g id="line2d_32">
    <path d="M 59.367139 210.947972 
L 64.980277 209.901068 
L 70.593415 214.088682 
L 76.206553 194.89545 
L 81.819691 179.889833 
L 87.432829 190.707836 
L 93.045967 190.707836 
L 98.659105 195.942354 
L 104.272242 196.64029 
L 109.88538 199.781 
L 115.498518 206.41139 
L 121.111656 210.250036 
L 126.724794 209.901068 
L 132.337932 214.43765 
L 137.95107 211.994875 
L 143.564208 215.484554 
L 149.177346 213.041779 
L 154.790483 211.296939 
L 160.403621 205.713454 
L 166.016759 202.921711 
L 171.629897 184.077447 
L 177.243035 193.499579 
L 182.856173 179.191897 
L 188.469311 182.681576 
L 194.082449 179.540865 
L 199.695587 184.426415 
L 205.308724 182.332608 
L 210.921862 190.358868 
L 216.535 197.687193 
L 222.148138 196.989258 
L 227.761276 207.458293 
L 238.987552 208.854164 
L 244.60069 214.43765 
L 250.213827 212.343843 
L 255.826965 214.088682 
L 261.440103 208.156229 
L 267.053241 209.203132 
L 272.666379 214.088682 
L 278.279517 208.156229 
L 283.892655 216.880425 
L 289.505793 216.880425 
L 295.118931 212.343843 
L 300.732068 209.5521 
L 306.345206 211.296939 
L 311.958344 214.088682 
L 317.571482 209.5521 
L 323.18462 209.203132 
L 328.797758 209.203132 
L 334.410896 206.41139 
L 340.024034 205.713454 
L 345.637171 214.786618 
L 351.250309 209.5521 
L 356.863447 211.296939 
L 362.476585 205.713454 
L 368.089723 209.203132 
L 373.702861 209.203132 
L 379.315999 211.994875 
L 384.929137 209.901068 
L 390.542275 208.156229 
L 396.155412 191.75474 
L 401.76855 181.285704 
L 407.381688 179.540865 
L 412.994826 175.004283 
L 418.607964 179.889833 
L 424.221102 173.259444 
L 429.83424 207.458293 
L 435.447378 209.5521 
L 441.060515 214.088682 
L 446.673653 209.5521 
L 452.286791 209.203132 
L 457.899929 213.041779 
L 463.513067 208.156229 
L 469.126205 214.786618 
L 474.739343 210.250036 
L 480.352481 195.942354 
L 485.965619 180.936736 
L 491.578756 184.426415 
L 497.191894 194.197515 
L 502.805032 175.353251 
L 508.41817 172.21254 
L 519.644446 161.743504 
L 525.257584 140.107498 
L 530.870722 128.940526 
L 536.48386 185.124351 
L 542.096997 200.827904 
L 547.710135 207.807261 
L 553.323273 209.203132 
L 558.936411 216.182489 
L 564.549549 209.203132 
L 570.162687 213.739714 
L 575.775825 207.807261 
L 581.388963 208.505197 
L 587.0021 209.5521 
L 592.615238 212.343843 
L 598.228376 209.5521 
L 603.841514 210.947972 
L 609.454652 209.203132 
L 615.06779 219.3232 
L 620.680928 208.156229 
L 626.294066 210.250036 
L 631.907204 208.505197 
L 637.520341 210.947972 
L 643.133479 212.692811 
L 648.746617 209.5521 
L 654.359755 217.229393 
L 659.972893 209.5521 
L 665.586031 209.203132 
L 671.199169 209.203132 
L 676.812307 210.947972 
L 682.425444 210.599004 
L 688.038582 207.807261 
L 693.65172 209.203132 
L 699.264858 205.713454 
L 704.877996 212.692811 
L 710.491134 193.848547 
L 716.104272 178.493961 
L 721.71741 154.066212 
L 727.330548 150.576533 
L 732.943685 136.966787 
L 738.556823 168.722861 
L 744.169961 198.036161 
L 749.783099 213.739714 
L 755.396237 213.390747 
L 761.009375 209.5521 
L 766.622513 209.5521 
L 772.235651 209.203132 
L 777.848788 211.994875 
L 783.461926 207.807261 
L 789.075064 210.599004 
L 794.688202 188.962997 
L 800.30134 174.655315 
L 805.914478 151.972405 
L 811.527616 146.737887 
L 817.140754 128.591558 
L 822.753892 129.289494 
L 828.367029 168.722861 
L 839.593305 118.820459 
L 845.206443 114.981812 
L 850.819581 184.077447 
L 856.432719 201.52584 
L 862.045857 204.66655 
L 867.658995 207.458293 
L 873.272133 213.041779 
L 878.88527 208.505197 
L 884.498408 210.250036 
L 887.304977 208.854164 
L 890.111546 207.807261 
L 895.724684 208.854164 
L 901.337822 213.041779 
L 906.95096 207.458293 
L 912.564098 207.458293 
L 918.177236 208.156229 
L 918.177236 208.156229 
" clip-path="url(#pe73dc907cf)" style="fill: none; stroke: #2f974e; stroke-opacity: 0.95; stroke-width: 0.936; stroke-linecap: square"/>
   </g>
   <g id="line2d_33">
    <path d="M 59.367139 212.692811 
L 64.980277 209.203132 
L 70.593415 213.739714 
L 76.206553 94.741677 
L 81.819691 51.120695 
L 87.432829 47.979985 
L 93.045967 61.589731 
L 98.659105 66.824249 
L 104.272242 65.428377 
L 109.88538 126.497751 
L 115.498518 206.41139 
L 121.111656 207.109325 
L 126.724794 208.854164 
L 132.337932 212.343843 
L 137.95107 215.135586 
L 143.564208 216.880425 
L 149.177346 219.3232 
L 154.790483 219.3232 
L 160.403621 212.692811 
L 166.016759 130.685366 
L 171.629897 53.214502 
L 177.243035 69.615991 
L 182.856173 89.856127 
L 188.469311 66.824249 
L 194.082449 89.158191 
L 199.695587 89.507159 
L 205.308724 85.319545 
L 210.921862 80.433995 
L 216.535 85.319545 
L 222.148138 191.405772 
L 227.761276 207.109325 
L 233.374414 210.599004 
L 238.987552 207.807261 
L 244.60069 219.3232 
L 250.213827 219.3232 
L 255.826965 214.088682 
L 261.440103 212.692811 
L 267.053241 214.786618 
L 272.666379 217.578361 
L 278.279517 210.250036 
L 283.892655 217.229393 
L 289.505793 212.692811 
L 295.118931 218.276297 
L 300.732068 216.880425 
L 306.345206 219.3232 
L 311.958344 214.088682 
L 317.571482 219.3232 
L 323.18462 217.229393 
L 328.797758 214.786618 
L 334.410896 207.458293 
L 340.024034 207.109325 
L 345.637171 214.43765 
L 351.250309 213.390747 
L 356.863447 215.135586 
L 362.476585 208.854164 
L 368.089723 213.739714 
L 373.702861 211.645907 
L 379.315999 215.135586 
L 384.929137 217.927329 
L 390.542275 214.786618 
L 396.155412 76.246381 
L 401.76855 49.375856 
L 407.381688 75.897413 
L 412.994826 85.668513 
L 418.607964 70.313927 
L 424.221102 128.591558 
L 429.83424 204.66655 
L 435.447378 207.109325 
L 441.060515 212.692811 
L 446.673653 212.692811 
L 452.286791 218.625264 
L 457.899929 217.229393 
L 463.513067 210.599004 
L 469.126205 216.531457 
L 474.739343 214.43765 
L 480.352481 115.33078 
L 485.965619 26.692946 
L 491.578756 77.642252 
L 497.191894 80.433995 
L 502.805032 83.923673 
L 508.41817 78.340188 
L 519.644446 99.976195 
L 525.257584 77.293284 
L 530.870722 65.079409 
L 536.48386 189.311965 
L 542.096997 204.317582 
L 547.710135 205.713454 
L 553.323273 217.578361 
L 558.936411 213.041779 
L 564.549549 212.692811 
L 570.162687 216.880425 
L 575.775825 218.625264 
L 581.388963 212.343843 
L 587.0021 207.807261 
L 592.615238 208.854164 
L 598.228376 207.458293 
L 603.841514 207.109325 
L 609.454652 218.276297 
L 615.06779 212.692811 
L 620.680928 211.994875 
L 626.294066 217.927329 
L 631.907204 209.5521 
L 637.520341 205.713454 
L 643.133479 215.135586 
L 648.746617 213.041779 
L 654.359755 208.156229 
L 659.972893 210.599004 
L 665.586031 212.343843 
L 671.199169 210.947972 
L 676.812307 216.531457 
L 682.425444 209.203132 
L 688.038582 217.229393 
L 693.65172 204.66655 
L 699.264858 217.578361 
L 704.877996 212.343843 
L 710.491134 49.375856 
L 716.104272 34.02127 
L 721.71741 81.480898 
L 727.330548 95.090645 
L 732.943685 81.480898 
L 738.556823 142.201305 
L 744.169961 205.015518 
L 749.783099 207.807261 
L 755.396237 214.088682 
L 761.009375 205.015518 
L 766.622513 210.599004 
L 772.235651 219.3232 
L 777.848788 215.135586 
L 783.461926 215.135586 
L 789.075064 211.296939 
L 794.688202 113.585941 
L 800.30134 51.120695 
L 805.914478 77.293284 
L 811.527616 96.486516 
L 822.753892 80.433995 
L 828.367029 49.026888 
L 839.593305 69.615991 
L 845.206443 59.844892 
L 850.819581 179.191897 
L 856.432719 201.176872 
L 862.045857 206.41139 
L 867.658995 210.947972 
L 873.272133 207.807261 
L 878.88527 212.343843 
L 884.498408 218.974232 
L 887.304977 212.692811 
L 890.111546 206.760357 
L 895.724684 215.833522 
L 901.337822 210.947972 
L 906.95096 217.578361 
L 912.564098 219.3232 
L 918.177236 212.692811 
L 918.177236 212.692811 
" clip-path="url(#pe73dc907cf)" style="fill: none; stroke: #157f3b; stroke-opacity: 0.95; stroke-width: 0.936; stroke-linecap: square"/>
   </g>
   <g id="patch_23">
    <path d="M 42.190938 228.954713 
L 42.190938 17.061433 
" style="fill: none; stroke: #cbd5e1; stroke-width: 0.8; stroke-linejoin: miter; stroke-linecap: square"/>
   </g>
   <g id="patch_24">
    <path d="M 935.353437 228.954713 
L 935.353437 17.061433 
" style="fill: none; stroke: #cbd5e1; stroke-width: 0.8; stroke-linejoin: miter; stroke-linecap: square"/>
   </g>
   <g id="patch_25">
    <path d="M 42.190938 228.954713 
L 935.353437 228.954713 
" style="fill: none; stroke: #cbd5e1; stroke-width: 0.8; stroke-linejoin: miter; stroke-linecap: square"/>
   </g>
   <g id="patch_26">
    <path d="M 42.190938 17.061433 
L 935.353437 17.061433 
" style="fill: none; stroke: #cbd5e1; stroke-width: 0.8; stroke-linejoin: miter; stroke-linecap: square"/>
   </g>
   <g id="text_17">
    <!-- ACC -->
    <g style="fill: #475569" transform="translate(42.526538 13.27875) scale(0.08 -0.08)">
     <defs>
      <path id="DejaVuSans-41" d="M 2188 4044 
L 1331 1722 
L 3047 1722 
L 2188 4044 
z
M 1831 4666 
L 2547 4666 
L 4325 0 
L 3669 0 
L 3244 1197 
L 1141 1197 
L 716 0 
L 50 0 
L 1831 4666 
z
" transform="scale(0.015625)"/>
      <path id="DejaVuSans-43" d="M 4122 4306 
L 4122 3641 
Q 3803 3938 3442 4084 
Q 3081 4231 2675 4231 
Q 1875 4231 1450 3742 
Q 1025 3253 1025 2328 
Q 1025 1406 1450 917 
Q 1875 428 2675 428 
Q 3081 428 3442 575 
Q 3803 722 4122 1019 
L 4122 359 
Q 3791 134 3420 21 
Q 3050 -91 2638 -91 
Q 1578 -91 968 557 
Q 359 1206 359 2328 
Q 359 3453 968 4101 
Q 1578 4750 2638 4750 
Q 3056 4750 3426 4639 
Q 3797 4528 4122 4306 
z
" transform="scale(0.015625)"/>
     </defs>
     <use xlink:href="#DejaVuSans-41"/>
     <use xlink:href="#DejaVuSans-43" transform="translate(66.658203 0)"/>
     <use xlink:href="#DejaVuSans-43" transform="translate(136.482422 0)"/>
    </g>
   </g>
   <g id="text_18">
    <!-- OC -->
    <g style="fill: #475569" transform="translate(70.264678 13.27875) scale(0.08 -0.08)">
     <defs>
      <path id="DejaVuSans-4f" d="M 2522 4238 
Q 1834 4238 1429 3725 
Q 1025 3213 1025 2328 
Q 1025 1447 1429 934 
Q 1834 422 2522 422 
Q 3209 422 3611 934 
Q 4013 1447 4013 2328 
Q 4013 3213 3611 3725 
Q 3209 4238 2522 4238 
z
M 2522 4750 
Q 3503 4750 4090 4092 
Q 4678 3434 4678 2328 
Q 4678 1225 4090 567 
Q 3503 -91 2522 -91 
Q 1538 -91 948 565 
Q 359 1222 359 2328 
Q 359 3434 948 4092 
Q 1538 4750 2522 4750 
z
" transform="scale(0.015625)"/>
     </defs>
     <use xlink:href="#DejaVuSans-4f"/>
     <use xlink:href="#DejaVuSans-43" transform="translate(78.710938 0)"/>
    </g>
   </g>
   <g id="text_19">
    <!-- FCS -->
    <g style="fill: #475569" transform="translate(102.252255 13.27875) scale(0.08 -0.08)">
     <defs>
      <path id="DejaVuSans-46" d="M 628 4666 
L 3309 4666 
L 3309 4134 
L 1259 4134 
L 1259 2759 
L 3109 2759 
L 3109 2228 
L 1259 2228 
L 1259 0 
L 628 0 
L 628 4666 
z
" transform="scale(0.015625)"/>
      <path id="DejaVuSans-53" d="M 3425 4513 
L 3425 3897 
Q 3066 4069 2747 4153 
Q 2428 4238 2131 4238 
Q 1616 4238 1336 4038 
Q 1056 3838 1056 3469 
Q 1056 3159 1242 3001 
Q 1428 2844 1947 2747 
L 2328 2669 
Q 3034 2534 3370 2195 
Q 3706 1856 3706 1288 
Q 3706 609 3251 259 
Q 2797 -91 1919 -91 
Q 1588 -91 1214 -16 
Q 841 59 441 206 
L 441 856 
Q 825 641 1194 531 
Q 1563 422 1919 422 
Q 2459 422 2753 634 
Q 3047 847 3047 1241 
Q 3047 1584 2836 1778 
Q 2625 1972 2144 2069 
L 1759 2144 
Q 1053 2284 737 2584 
Q 422 2884 422 3419 
Q 422 4038 858 4394 
Q 1294 4750 2059 4750 
Q 2388 4750 2728 4690 
Q 3069 4631 3425 4513 
z
" transform="scale(0.015625)"/>
     </defs>
     <use xlink:href="#DejaVuSans-46"/>
     <use xlink:href="#DejaVuSans-43" transform="translate(57.519531 0)"/>
     <use xlink:href="#DejaVuSans-53" transform="translate(127.34375 0)"/>
    </g>
   </g>
   <g id="text_20">
    <!-- SR -->
    <g style="fill: #475569" transform="translate(141.052027 13.27875) scale(0.08 -0.08)">
     <defs>
      <path id="DejaVuSans-52" d="M 2841 2188 
Q 3044 2119 3236 1894 
Q 3428 1669 3622 1275 
L 4263 0 
L 3584 0 
L 2988 1197 
Q 2756 1666 2539 1819 
Q 2322 1972 1947 1972 
L 1259 1972 
L 1259 0 
L 628 0 
L 628 4666 
L 2053 4666 
Q 2853 4666 3247 4331 
Q 3641 3997 3641 3322 
Q 3641 2881 3436 2590 
Q 3231 2300 2841 2188 
z
M 1259 4147 
L 1259 2491 
L 2053 2491 
Q 2509 2491 2742 2702 
Q 2975 2913 2975 3322 
Q 2975 3731 2742 3939 
Q 2509 4147 2053 4147 
L 1259 4147 
z
" transform="scale(0.015625)"/>
     </defs>
     <use xlink:href="#DejaVuSans-53"/>
     <use xlink:href="#DejaVuSans-52" transform="translate(63.476562 0)"/>
    </g>
   </g>
   <g id="text_21">
    <!-- FFC -->
    <g style="fill: #475569" transform="translate(186.688074 13.27875) scale(0.08 -0.08)">
     <use xlink:href="#DejaVuSans-46"/>
     <use xlink:href="#DejaVuSans-46" transform="translate(57.519531 0)"/>
     <use xlink:href="#DejaVuSans-43" transform="translate(115.039062 0)"/>
    </g>
   </g>
   <g id="text_22">
    <!-- SS -->
    <g style="fill: #475569" transform="translate(301.266456 13.27875) scale(0.08 -0.08)">
     <use xlink:href="#DejaVuSans-53"/>
     <use xlink:href="#DejaVuSans-53" transform="translate(63.476562 0)"/>
    </g>
   </g>
   <g id="text_23">
    <!-- OC -->
    <g style="fill: #475569" transform="translate(387.406968 13.27875) scale(0.08 -0.08)">
     <use xlink:href="#DejaVuSans-4f"/>
     <use xlink:href="#DejaVuSans-43" transform="translate(78.710938 0)"/>
    </g>
   </g>
   <g id="text_24">
    <!-- FCS -->
    <g style="fill: #475569" transform="translate(416.587977 13.27875) scale(0.08 -0.08)">
     <use xlink:href="#DejaVuSans-46"/>
     <use xlink:href="#DejaVuSans-43" transform="translate(57.519531 0)"/>
     <use xlink:href="#DejaVuSans-53" transform="translate(127.34375 0)"/>
    </g>
   </g>
   <g id="text_25">
    <!-- SR -->
    <g style="fill: #475569" transform="translate(455.387748 13.27875) scale(0.08 -0.08)">
     <use xlink:href="#DejaVuSans-53"/>
     <use xlink:href="#DejaVuSans-52" transform="translate(63.476562 0)"/>
    </g>
   </g>
   <g id="text_26">
    <!-- FFC -->
    <g style="fill: #475569" transform="translate(501.023795 13.27875) scale(0.08 -0.08)">
     <use xlink:href="#DejaVuSans-46"/>
     <use xlink:href="#DejaVuSans-46" transform="translate(57.519531 0)"/>
     <use xlink:href="#DejaVuSans-43" transform="translate(115.039062 0)"/>
    </g>
   </g>
   <g id="text_27">
    <!-- SR -->
    <g style="fill: #475569" transform="translate(539.584816 13.27875) scale(0.08 -0.08)">
     <use xlink:href="#DejaVuSans-53"/>
     <use xlink:href="#DejaVuSans-52" transform="translate(63.476562 0)"/>
    </g>
   </g>
   <g id="text_28">
    <!-- SS -->
    <g style="fill: #475569" transform="translate(618.408747 13.27875) scale(0.08 -0.08)">
     <use xlink:href="#DejaVuSans-53"/>
     <use xlink:href="#DejaVuSans-53" transform="translate(63.476562 0)"/>
    </g>
   </g>
   <g id="text_29">
    <!-- OC -->
    <g style="fill: #475569" transform="translate(701.74269 13.27875) scale(0.08 -0.08)">
     <use xlink:href="#DejaVuSans-4f"/>
     <use xlink:href="#DejaVuSans-43" transform="translate(78.710938 0)"/>
    </g>
   </g>
   <g id="text_30">
    <!-- FCS -->
    <g style="fill: #475569" transform="translate(730.923698 13.27875) scale(0.08 -0.08)">
     <use xlink:href="#DejaVuSans-46"/>
     <use xlink:href="#DejaVuSans-43" transform="translate(57.519531 0)"/>
     <use xlink:href="#DejaVuSans-53" transform="translate(127.34375 0)"/>
    </g>
   </g>
   <g id="text_31">
    <!-- SR -->
    <g style="fill: #475569" transform="translate(769.72347 13.27875) scale(0.08 -0.08)">
     <use xlink:href="#DejaVuSans-53"/>
     <use xlink:href="#DejaVuSans-52" transform="translate(63.476562 0)"/>
    </g>
   </g>
   <g id="text_32">
    <!-- FFC -->
    <g style="fill: #475569" transform="translate(815.359517 13.27875) scale(0.08 -0.08)">
     <use xlink:href="#DejaVuSans-46"/>
     <use xlink:href="#DejaVuSans-46" transform="translate(57.519531 0)"/>
     <use xlink:href="#DejaVuSans-43" transform="translate(115.039062 0)"/>
    </g>
   </g>
   <g id="text_33">
    <!-- SR -->
    <g style="fill: #475569" transform="translate(853.920538 13.27875) scale(0.08 -0.08)">
     <use xlink:href="#DejaVuSans-53"/>
     <use xlink:href="#DejaVuSans-52" transform="translate(63.476562 0)"/>
    </g>
   </g>
   <g id="text_34">
    <!-- SS -->
    <g style="fill: #475569" transform="translate(887.839365 13.27875) scale(0.08 -0.08)">
     <use xlink:href="#DejaVuSans-53"/>
     <use xlink:href="#DejaVuSans-53" transform="translate(63.476562 0)"/>
    </g>
   </g>
   <g id="legend_1">
    <g id="line2d_34">
     <path d="M 846.228437 27.540183 
L 854.228437 27.540183 
L 862.228437 27.540183 
" style="fill: none; stroke: #b8e3b2; stroke-opacity: 0.95; stroke-width: 1.3; stroke-linecap: square"/>
    </g>
    <g id="text_35">
     <!-- V1 -->
     <g transform="translate(868.628437 30.340183) scale(0.08 -0.08)">
      <use xlink:href="#DejaVuSans-56"/>
      <use xlink:href="#DejaVuSans-31" transform="translate(68.408203 0)"/>
     </g>
    </g>
    <g id="line2d_35">
     <path d="M 846.228437 39.282683 
L 854.228437 39.282683 
L 862.228437 39.282683 
" style="fill: none; stroke: #98d594; stroke-opacity: 0.95; stroke-width: 1.3; stroke-linecap: square"/>
    </g>
    <g id="text_36">
     <!-- V2 -->
     <g transform="translate(868.628437 42.082683) scale(0.08 -0.08)">
      <use xlink:href="#DejaVuSans-56"/>
      <use xlink:href="#DejaVuSans-32" transform="translate(68.408203 0)"/>
     </g>
    </g>
    <g id="line2d_36">
     <path d="M 846.228437 51.025183 
L 854.228437 51.025183 
L 862.228437 51.025183 
" style="fill: none; stroke: #73c476; stroke-opacity: 0.95; stroke-width: 1.3; stroke-linecap: square"/>
    </g>
    <g id="text_37">
     <!-- V3 -->
     <g transform="translate(868.628437 53.825183) scale(0.08 -0.08)">
      <use xlink:href="#DejaVuSans-56"/>
      <use xlink:href="#DejaVuSans-33" transform="translate(68.408203 0)"/>
     </g>
    </g>
    <g id="line2d_37">
     <path d="M 895.190937 27.540183 
L 903.190937 27.540183 
L 911.190937 27.540183 
" style="fill: none; stroke: #2f974e; stroke-opacity: 0.95; stroke-width: 1.3; stroke-linecap: square"/>
    </g>
    <g id="text_38">
     <!-- V5 -->
     <g transform="translate(917.590937 30.340183) scale(0.08 -0.08)">
      <use xlink:href="#DejaVuSans-56"/>
      <use xlink:href="#DejaVuSans-35" transform="translate(68.408203 0)"/>
     </g>
    </g>
    <g id="line2d_38">
     <path d="M 895.190937 39.282683 
L 903.190937 39.282683 
L 911.190937 39.282683 
" style="fill: none; stroke: #157f3b; stroke-opacity: 0.95; stroke-width: 1.3; stroke-linecap: square"/>
    </g>
    <g id="text_39">
     <!-- V6 -->
     <g transform="translate(917.590937 42.082683) scale(0.08 -0.08)">
      <use xlink:href="#DejaVuSans-56"/>
      <use xlink:href="#DejaVuSans-36" transform="translate(68.408203 0)"/>
     </g>
    </g>
   </g>
  </g>
 </g>
 <defs>
  <clipPath id="pe73dc907cf">
   <rect x="42.190938" y="17.061433" width="893.1625" height="211.89328"/>
  </clipPath>
 </defs>
</svg>
