<?xml version="1.0" encoding="utf-8" standalone="no"?>
<!DOCTYPE svg PUBLIC "-//W3C//DTD SVG 1.1//EN"
  "http://www.w3.org/Graphics/SVG/1.1/DTD/svg11.dtd">
<svg xmlns:xlink="http://www.w3.org/1999/xlink" width="942.516875pt" height="265.54315pt" viewBox="0 0 942.516875 265.54315" xmlns="http://www.w3.org/2000/svg" version="1.1">
 <metadata>
  <rdf:RDF xmlns:dc="http://purl.org/dc/elements/1.1/" xmlns:cc="http://creativecommons.org/ns#" xmlns:rdf="http://www.w3.org/1999/02/22-rdf-syntax-ns#">
   <cc:Work>
    <dc:type rdf:resource="http://purl.org/dc/dcmitype/StillImage"/>
    <dc:date>2026-04-17T17:29:52.726958</dc:date>
    <dc:format>image/svg+xml</dc:format>
    <dc:creator>
     <cc:Agent>
      <dc:title>Matplotlib v3.10.8, https://matplotlib.org/</dc:title>
     </cc:Agent>
    </dc:creator>
   </cc:Work>
  </rdf:RDF>
 </metadata>
 <defs>
  <style type="text/css">*{stroke-linejoin: round; stroke-linecap: butt}</style>
 </defs>
 <g id="figure_1">
  <g id="patch_1">
   <path d="M 0 265.54315 
L 942.516875 265.54315 
L 942.516875 0 
L 0 0 
z
" style="fill: #ffffff"/>
  </g>
  <g id="axes_1">
   <g id="patch_2">
    <path d="M 33.604375 228.954713 
L 935.316875 228.954713 
L 935.316875 17.061433 
L 33.604375 17.061433 
z
" style="fill: #ffffff"/>
   </g>
   <g id="patch_3">
    <path d="M 33.604375 228.954713 
L 215.975849 228.954713 
L 215.975849 17.061433 
L 33.604375 17.061433 
z
" clip-path="url(#pfbb9159af5)" style="fill: #f8fafc; opacity: 0.45"/>
   </g>
   <g id="patch_4">
    <path d="M 215.975849 228.954713 
L 243.33157 228.954713 
L 243.33157 17.061433 
L 215.975849 17.061433 
z
" clip-path="url(#pfbb9159af5)" style="fill: #eff6ff; opacity: 0.45"/>
   </g>
   <g id="patch_5">
    <path d="M 243.33157 228.954713 
L 270.687291 228.954713 
L 270.687291 17.061433 
L 243.33157 17.061433 
z
" clip-path="url(#pfbb9159af5)" style="fill: #fef3c7; opacity: 0.45"/>
   </g>
   <g id="patch_6">
    <path d="M 270.687291 228.954713 
L 302.602299 228.954713 
L 302.602299 17.061433 
L 270.687291 17.061433 
z
" clip-path="url(#pfbb9159af5)" style="fill: #dcfce7; opacity: 0.45"/>
   </g>
   <g id="patch_7">
    <path d="M 302.602299 228.954713 
L 348.195167 228.954713 
L 348.195167 17.061433 
L 302.602299 17.061433 
z
" clip-path="url(#pfbb9159af5)" style="fill: #fee2e2; opacity: 0.45"/>
   </g>
   <g id="patch_8">
    <path d="M 348.195167 228.954713 
L 357.313741 228.954713 
L 357.313741 17.061433 
L 348.195167 17.061433 
z
" clip-path="url(#pfbb9159af5)" style="fill: #ede9fe; opacity: 0.45"/>
   </g>
   <g id="patch_9">
    <path d="M 357.313741 228.954713 
L 475.855199 228.954713 
L 475.855199 17.061433 
L 357.313741 17.061433 
z
" clip-path="url(#pfbb9159af5)" style="fill: #f8fafc; opacity: 0.45"/>
   </g>
   <g id="patch_10">
    <path d="M 475.855199 228.954713 
L 498.651633 228.954713 
L 498.651633 17.061433 
L 475.855199 17.061433 
z
" clip-path="url(#pfbb9159af5)" style="fill: #eff6ff; opacity: 0.45"/>
   </g>
   <g id="patch_11">
    <path d="M 498.651633 228.954713 
L 526.007354 228.954713 
L 526.007354 17.061433 
L 498.651633 17.061433 
z
" clip-path="url(#pfbb9159af5)" style="fill: #fef3c7; opacity: 0.45"/>
   </g>
   <g id="patch_12">
    <path d="M 526.007354 228.954713 
L 557.922362 228.954713 
L 557.922362 17.061433 
L 526.007354 17.061433 
z
" clip-path="url(#pfbb9159af5)" style="fill: #dcfce7; opacity: 0.45"/>
   </g>
   <g id="patch_13">
    <path d="M 557.922362 228.954713 
L 603.515231 228.954713 
L 603.515231 17.061433 
L 557.922362 17.061433 
z
" clip-path="url(#pfbb9159af5)" style="fill: #fee2e2; opacity: 0.45"/>
   </g>
   <g id="patch_14">
    <path d="M 603.515231 228.954713 
L 617.193091 228.954713 
L 617.193091 17.061433 
L 603.515231 17.061433 
z
" clip-path="url(#pfbb9159af5)" style="fill: #ede9fe; opacity: 0.45"/>
   </g>
   <g id="patch_15">
    <path d="M 617.193091 228.954713 
L 731.175262 228.954713 
L 731.175262 17.061433 
L 617.193091 17.061433 
z
" clip-path="url(#pfbb9159af5)" style="fill: #f8fafc; opacity: 0.45"/>
   </g>
   <g id="patch_16">
    <path d="M 731.175262 228.954713 
L 753.971697 228.954713 
L 753.971697 17.061433 
L 731.175262 17.061433 
z
" clip-path="url(#pfbb9159af5)" style="fill: #eff6ff; opacity: 0.45"/>
   </g>
   <g id="patch_17">
    <path d="M 753.971697 228.954713 
L 781.327418 228.954713 
L 781.327418 17.061433 
L 753.971697 17.061433 
z
" clip-path="url(#pfbb9159af5)" style="fill: #fef3c7; opacity: 0.45"/>
   </g>
   <g id="patch_18">
    <path d="M 781.327418 228.954713 
L 813.242426 228.954713 
L 813.242426 17.061433 
L 781.327418 17.061433 
z
" clip-path="url(#pfbb9159af5)" style="fill: #dcfce7; opacity: 0.45"/>
   </g>
   <g id="patch_19">
    <path d="M 813.242426 228.954713 
L 858.835294 228.954713 
L 858.835294 17.061433 
L 813.242426 17.061433 
z
" clip-path="url(#pfbb9159af5)" style="fill: #fee2e2; opacity: 0.45"/>
   </g>
   <g id="patch_20">
    <path d="M 858.835294 228.954713 
L 872.513155 228.954713 
L 872.513155 17.061433 
L 858.835294 17.061433 
z
" clip-path="url(#pfbb9159af5)" style="fill: #ede9fe; opacity: 0.45"/>
   </g>
   <g id="patch_21">
    <path d="M 872.513155 228.954713 
L 913.546736 228.954713 
L 913.546736 17.061433 
L 872.513155 17.061433 
z
" clip-path="url(#pfbb9159af5)" style="fill: #f8fafc; opacity: 0.45"/>
   </g>
   <g id="patch_22">
    <path d="M 913.546736 228.954713 
L 918.106023 228.954713 
L 918.106023 17.061433 
L 913.546736 17.061433 
z
" clip-path="url(#pfbb9159af5)" style="fill: #eff6ff; opacity: 0.45"/>
   </g>
   <g id="matplotlib.axis_1">
    <g id="xtick_1">
     <g id="line2d_1">
      <path d="M 33.604375 228.954713 
L 33.604375 17.061433 
" clip-path="url(#pfbb9159af5)" style="fill: none; stroke: #eef2f7; stroke-width: 0.55; stroke-linecap: square"/>
     </g>
     <g id="line2d_2">
      <defs>
       <path id="m40bb4fa46d" d="M 0 0 
L 0 3.5 
" style="stroke: #000000; stroke-width: 0.8"/>
      </defs>
      <g>
       <use xlink:href="#m40bb4fa46d" x="33.604375" y="228.954713" style="stroke: #000000; stroke-width: 0.8"/>
      </g>
     </g>
     <g id="text_1">
      <!-- 0 -->
      <g transform="translate(30.74125 242.793307) scale(0.09 -0.09)">
       <defs>
        <path id="DejaVuSans-30" d="M 2034 4250 
Q 1547 4250 1301 3770 
Q 1056 3291 1056 2328 
Q 1056 1369 1301 889 
Q 1547 409 2034 409 
Q 2525 409 2770 889 
Q 3016 1369 3016 2328 
Q 3016 3291 2770 3770 
Q 2525 4250 2034 4250 
z
M 2034 4750 
Q 2819 4750 3233 4129 
Q 3647 3509 3647 2328 
Q 3647 1150 3233 529 
Q 2819 -91 2034 -91 
Q 1250 -91 836 529 
Q 422 1150 422 2328 
Q 422 3509 836 4129 
Q 1250 4750 2034 4750 
z
" transform="scale(0.015625)"/>
       </defs>
       <use xlink:href="#DejaVuSans-30"/>
      </g>
     </g>
    </g>
    <g id="xtick_2">
     <g id="line2d_3">
      <path d="M 147.586546 228.954713 
L 147.586546 17.061433 
" clip-path="url(#pfbb9159af5)" style="fill: none; stroke: #eef2f7; stroke-width: 0.55; stroke-linecap: square"/>
     </g>
     <g id="line2d_4">
      <g>
       <use xlink:href="#m40bb4fa46d" x="147.586546" y="228.954713" style="stroke: #000000; stroke-width: 0.8"/>
      </g>
     </g>
     <g id="text_2">
      <!-- 25 -->
      <g transform="translate(141.860296 242.793307) scale(0.09 -0.09)">
       <defs>
        <path id="DejaVuSans-32" d="M 1228 531 
L 3431 531 
L 3431 0 
L 469 0 
L 469 531 
Q 828 903 1448 1529 
Q 2069 2156 2228 2338 
Q 2531 2678 2651 2914 
Q 2772 3150 2772 3378 
Q 2772 3750 2511 3984 
Q 2250 4219 1831 4219 
Q 1534 4219 1204 4116 
Q 875 4013 500 3803 
L 500 4441 
Q 881 4594 1212 4672 
Q 1544 4750 1819 4750 
Q 2544 4750 2975 4387 
Q 3406 4025 3406 3419 
Q 3406 3131 3298 2873 
Q 3191 2616 2906 2266 
Q 2828 2175 2409 1742 
Q 1991 1309 1228 531 
z
" transform="scale(0.015625)"/>
        <path id="DejaVuSans-35" d="M 691 4666 
L 3169 4666 
L 3169 4134 
L 1269 4134 
L 1269 2991 
Q 1406 3038 1543 3061 
Q 1681 3084 1819 3084 
Q 2600 3084 3056 2656 
Q 3513 2228 3513 1497 
Q 3513 744 3044 326 
Q 2575 -91 1722 -91 
Q 1428 -91 1123 -41 
Q 819 9 494 109 
L 494 744 
Q 775 591 1075 516 
Q 1375 441 1709 441 
Q 2250 441 2565 725 
Q 2881 1009 2881 1497 
Q 2881 1984 2565 2268 
Q 2250 2553 1709 2553 
Q 1456 2553 1204 2497 
Q 953 2441 691 2322 
L 691 4666 
z
" transform="scale(0.015625)"/>
       </defs>
       <use xlink:href="#DejaVuSans-32"/>
       <use xlink:href="#DejaVuSans-35" transform="translate(63.623047 0)"/>
      </g>
     </g>
    </g>
    <g id="xtick_3">
     <g id="line2d_5">
      <path d="M 261.568717 228.954713 
L 261.568717 17.061433 
" clip-path="url(#pfbb9159af5)" style="fill: none; stroke: #eef2f7; stroke-width: 0.55; stroke-linecap: square"/>
     </g>
     <g id="line2d_6">
      <g>
       <use xlink:href="#m40bb4fa46d" x="261.568717" y="228.954713" style="stroke: #000000; stroke-width: 0.8"/>
      </g>
     </g>
     <g id="text_3">
      <!-- 50 -->
      <g transform="translate(255.842467 242.793307) scale(0.09 -0.09)">
       <use xlink:href="#DejaVuSans-35"/>
       <use xlink:href="#DejaVuSans-30" transform="translate(63.623047 0)"/>
      </g>
     </g>
    </g>
    <g id="xtick_4">
     <g id="line2d_7">
      <path d="M 375.550888 228.954713 
L 375.550888 17.061433 
" clip-path="url(#pfbb9159af5)" style="fill: none; stroke: #eef2f7; stroke-width: 0.55; stroke-linecap: square"/>
     </g>
     <g id="line2d_8">
      <g>
       <use xlink:href="#m40bb4fa46d" x="375.550888" y="228.954713" style="stroke: #000000; stroke-width: 0.8"/>
      </g>
     </g>
     <g id="text_4">
      <!-- 75 -->
      <g transform="translate(369.824638 242.793307) scale(0.09 -0.09)">
       <defs>
        <path id="DejaVuSans-37" d="M 525 4666 
L 3525 4666 
L 3525 4397 
L 1831 0 
L 1172 0 
L 2766 4134 
L 525 4134 
L 525 4666 
z
" transform="scale(0.015625)"/>
       </defs>
       <use xlink:href="#DejaVuSans-37"/>
       <use xlink:href="#DejaVuSans-35" transform="translate(63.623047 0)"/>
      </g>
     </g>
    </g>
    <g id="xtick_5">
     <g id="line2d_9">
      <path d="M 489.53306 228.954713 
L 489.53306 17.061433 
" clip-path="url(#pfbb9159af5)" style="fill: none; stroke: #eef2f7; stroke-width: 0.55; stroke-linecap: square"/>
     </g>
     <g id="line2d_10">
      <g>
       <use xlink:href="#m40bb4fa46d" x="489.53306" y="228.954713" style="stroke: #000000; stroke-width: 0.8"/>
      </g>
     </g>
     <g id="text_5">
      <!-- 100 -->
      <g transform="translate(480.943685 242.793307) scale(0.09 -0.09)">
       <defs>
        <path id="DejaVuSans-31" d="M 794 531 
L 1825 531 
L 1825 4091 
L 703 3866 
L 703 4441 
L 1819 4666 
L 2450 4666 
L 2450 531 
L 3481 531 
L 3481 0 
L 794 0 
L 794 531 
z
" transform="scale(0.015625)"/>
       </defs>
       <use xlink:href="#DejaVuSans-31"/>
       <use xlink:href="#DejaVuSans-30" transform="translate(63.623047 0)"/>
       <use xlink:href="#DejaVuSans-30" transform="translate(127.246094 0)"/>
      </g>
     </g>
    </g>
    <g id="xtick_6">
     <g id="line2d_11">
      <path d="M 603.515231 228.954713 
L 603.515231 17.061433 
" clip-path="url(#pfbb9159af5)" style="fill: none; stroke: #eef2f7; stroke-width: 0.55; stroke-linecap: square"/>
     </g>
     <g id="line2d_12">
      <g>
       <use xlink:href="#m40bb4fa46d" x="603.515231" y="228.954713" style="stroke: #000000; stroke-width: 0.8"/>
      </g>
     </g>
     <g id="text_6">
      <!-- 125 -->
      <g transform="translate(594.925856 242.793307) scale(0.09 -0.09)">
       <use xlink:href="#DejaVuSans-31"/>
       <use xlink:href="#DejaVuSans-32" transform="translate(63.623047 0)"/>
       <use xlink:href="#DejaVuSans-35" transform="translate(127.246094 0)"/>
      </g>
     </g>
    </g>
    <g id="xtick_7">
     <g id="line2d_13">
      <path d="M 717.497402 228.954713 
L 717.497402 17.061433 
" clip-path="url(#pfbb9159af5)" style="fill: none; stroke: #eef2f7; stroke-width: 0.55; stroke-linecap: square"/>
     </g>
     <g id="line2d_14">
      <g>
       <use xlink:href="#m40bb4fa46d" x="717.497402" y="228.954713" style="stroke: #000000; stroke-width: 0.8"/>
      </g>
     </g>
     <g id="text_7">
      <!-- 150 -->
      <g transform="translate(708.908027 242.793307) scale(0.09 -0.09)">
       <use xlink:href="#DejaVuSans-31"/>
       <use xlink:href="#DejaVuSans-35" transform="translate(63.623047 0)"/>
       <use xlink:href="#DejaVuSans-30" transform="translate(127.246094 0)"/>
      </g>
     </g>
    </g>
    <g id="xtick_8">
     <g id="line2d_15">
      <path d="M 831.479573 228.954713 
L 831.479573 17.061433 
" clip-path="url(#pfbb9159af5)" style="fill: none; stroke: #eef2f7; stroke-width: 0.55; stroke-linecap: square"/>
     </g>
     <g id="line2d_16">
      <g>
       <use xlink:href="#m40bb4fa46d" x="831.479573" y="228.954713" style="stroke: #000000; stroke-width: 0.8"/>
      </g>
     </g>
     <g id="text_8">
      <!-- 175 -->
      <g transform="translate(822.890198 242.793307) scale(0.09 -0.09)">
       <use xlink:href="#DejaVuSans-31"/>
       <use xlink:href="#DejaVuSans-37" transform="translate(63.623047 0)"/>
       <use xlink:href="#DejaVuSans-35" transform="translate(127.246094 0)"/>
      </g>
     </g>
    </g>
    <g id="text_9">
     <!-- Minutes since session start -->
     <g transform="translate(416.870781 256.263463) scale(0.1 -0.1)">
      <defs>
       <path id="DejaVuSans-4d" d="M 628 4666 
L 1569 4666 
L 2759 1491 
L 3956 4666 
L 4897 4666 
L 4897 0 
L 4281 0 
L 4281 4097 
L 3078 897 
L 2444 897 
L 1241 4097 
L 1241 0 
L 628 0 
L 628 4666 
z
" transform="scale(0.015625)"/>
       <path id="DejaVuSans-69" d="M 603 3500 
L 1178 3500 
L 1178 0 
L 603 0 
L 603 3500 
z
M 603 4863 
L 1178 4863 
L 1178 4134 
L 603 4134 
L 603 4863 
z
" transform="scale(0.015625)"/>
       <path id="DejaVuSans-6e" d="M 3513 2113 
L 3513 0 
L 2938 0 
L 2938 2094 
Q 2938 2591 2744 2837 
Q 2550 3084 2163 3084 
Q 1697 3084 1428 2787 
Q 1159 2491 1159 1978 
L 1159 0 
L 581 0 
L 581 3500 
L 1159 3500 
L 1159 2956 
Q 1366 3272 1645 3428 
Q 1925 3584 2291 3584 
Q 2894 3584 3203 3211 
Q 3513 2838 3513 2113 
z
" transform="scale(0.015625)"/>
       <path id="DejaVuSans-75" d="M 544 1381 
L 544 3500 
L 1119 3500 
L 1119 1403 
Q 1119 906 1312 657 
Q 1506 409 1894 409 
Q 2359 409 2629 706 
Q 2900 1003 2900 1516 
L 2900 3500 
L 3475 3500 
L 3475 0 
L 2900 0 
L 2900 538 
Q 2691 219 2414 64 
Q 2138 -91 1772 -91 
Q 1169 -91 856 284 
Q 544 659 544 1381 
z
M 1991 3584 
L 1991 3584 
z
" transform="scale(0.015625)"/>
       <path id="DejaVuSans-74" d="M 1172 4494 
L 1172 3500 
L 2356 3500 
L 2356 3053 
L 1172 3053 
L 1172 1153 
Q 1172 725 1289 603 
Q 1406 481 1766 481 
L 2356 481 
L 2356 0 
L 1766 0 
Q 1100 0 847 248 
Q 594 497 594 1153 
L 594 3053 
L 172 3053 
L 172 3500 
L 594 3500 
L 594 4494 
L 1172 4494 
z
" transform="scale(0.015625)"/>
       <path id="DejaVuSans-65" d="M 3597 1894 
L 3597 1613 
L 953 1613 
Q 991 1019 1311 708 
Q 1631 397 2203 397 
Q 2534 397 2845 478 
Q 3156 559 3463 722 
L 3463 178 
Q 3153 47 2828 -22 
Q 2503 -91 2169 -91 
Q 1331 -91 842 396 
Q 353 884 353 1716 
Q 353 2575 817 3079 
Q 1281 3584 2069 3584 
Q 2775 3584 3186 3129 
Q 3597 2675 3597 1894 
z
M 3022 2063 
Q 3016 2534 2758 2815 
Q 2500 3097 2075 3097 
Q 1594 3097 1305 2825 
Q 1016 2553 972 2059 
L 3022 2063 
z
" transform="scale(0.015625)"/>
       <path id="DejaVuSans-73" d="M 2834 3397 
L 2834 2853 
Q 2591 2978 2328 3040 
Q 2066 3103 1784 3103 
Q 1356 3103 1142 2972 
Q 928 2841 928 2578 
Q 928 2378 1081 2264 
Q 1234 2150 1697 2047 
L 1894 2003 
Q 2506 1872 2764 1633 
Q 3022 1394 3022 966 
Q 3022 478 2636 193 
Q 2250 -91 1575 -91 
Q 1294 -91 989 -36 
Q 684 19 347 128 
L 347 722 
Q 666 556 975 473 
Q 1284 391 1588 391 
Q 1994 391 2212 530 
Q 2431 669 2431 922 
Q 2431 1156 2273 1281 
Q 2116 1406 1581 1522 
L 1381 1569 
Q 847 1681 609 1914 
Q 372 2147 372 2553 
Q 372 3047 722 3315 
Q 1072 3584 1716 3584 
Q 2034 3584 2315 3537 
Q 2597 3491 2834 3397 
z
" transform="scale(0.015625)"/>
       <path id="DejaVuSans-20" transform="scale(0.015625)"/>
       <path id="DejaVuSans-63" d="M 3122 3366 
L 3122 2828 
Q 2878 2963 2633 3030 
Q 2388 3097 2138 3097 
Q 1578 3097 1268 2742 
Q 959 2388 959 1747 
Q 959 1106 1268 751 
Q 1578 397 2138 397 
Q 2388 397 2633 464 
Q 2878 531 3122 666 
L 3122 134 
Q 2881 22 2623 -34 
Q 2366 -91 2075 -91 
Q 1284 -91 818 406 
Q 353 903 353 1747 
Q 353 2603 823 3093 
Q 1294 3584 2113 3584 
Q 2378 3584 2631 3529 
Q 2884 3475 3122 3366 
z
" transform="scale(0.015625)"/>
       <path id="DejaVuSans-6f" d="M 1959 3097 
Q 1497 3097 1228 2736 
Q 959 2375 959 1747 
Q 959 1119 1226 758 
Q 1494 397 1959 397 
Q 2419 397 2687 759 
Q 2956 1122 2956 1747 
Q 2956 2369 2687 2733 
Q 2419 3097 1959 3097 
z
M 1959 3584 
Q 2709 3584 3137 3096 
Q 3566 2609 3566 1747 
Q 3566 888 3137 398 
Q 2709 -91 1959 -91 
Q 1206 -91 779 398 
Q 353 888 353 1747 
Q 353 2609 779 3096 
Q 1206 3584 1959 3584 
z
" transform="scale(0.015625)"/>
       <path id="DejaVuSans-61" d="M 2194 1759 
Q 1497 1759 1228 1600 
Q 959 1441 959 1056 
Q 959 750 1161 570 
Q 1363 391 1709 391 
Q 2188 391 2477 730 
Q 2766 1069 2766 1631 
L 2766 1759 
L 2194 1759 
z
M 3341 1997 
L 3341 0 
L 2766 0 
L 2766 531 
Q 2569 213 2275 61 
Q 1981 -91 1556 -91 
Q 1019 -91 701 211 
Q 384 513 384 1019 
Q 384 1609 779 1909 
Q 1175 2209 1959 2209 
L 2766 2209 
L 2766 2266 
Q 2766 2663 2505 2880 
Q 2244 3097 1772 3097 
Q 1472 3097 1187 3025 
Q 903 2953 641 2809 
L 641 3341 
Q 956 3463 1253 3523 
Q 1550 3584 1831 3584 
Q 2591 3584 2966 3190 
Q 3341 2797 3341 1997 
z
" transform="scale(0.015625)"/>
       <path id="DejaVuSans-72" d="M 2631 2963 
Q 2534 3019 2420 3045 
Q 2306 3072 2169 3072 
Q 1681 3072 1420 2755 
Q 1159 2438 1159 1844 
L 1159 0 
L 581 0 
L 581 3500 
L 1159 3500 
L 1159 2956 
Q 1341 3275 1631 3429 
Q 1922 3584 2338 3584 
Q 2397 3584 2469 3576 
Q 2541 3569 2628 3553 
L 2631 2963 
z
" transform="scale(0.015625)"/>
      </defs>
      <use xlink:href="#DejaVuSans-4d"/>
      <use xlink:href="#DejaVuSans-69" transform="translate(86.279297 0)"/>
      <use xlink:href="#DejaVuSans-6e" transform="translate(114.0625 0)"/>
      <use xlink:href="#DejaVuSans-75" transform="translate(177.441406 0)"/>
      <use xlink:href="#DejaVuSans-74" transform="translate(240.820312 0)"/>
      <use xlink:href="#DejaVuSans-65" transform="translate(280.029297 0)"/>
      <use xlink:href="#DejaVuSans-73" transform="translate(341.552734 0)"/>
      <use xlink:href="#DejaVuSans-20" transform="translate(393.652344 0)"/>
      <use xlink:href="#DejaVuSans-73" transform="translate(425.439453 0)"/>
      <use xlink:href="#DejaVuSans-69" transform="translate(477.539062 0)"/>
      <use xlink:href="#DejaVuSans-6e" transform="translate(505.322266 0)"/>
      <use xlink:href="#DejaVuSans-63" transform="translate(568.701172 0)"/>
      <use xlink:href="#DejaVuSans-65" transform="translate(623.681641 0)"/>
      <use xlink:href="#DejaVuSans-20" transform="translate(685.205078 0)"/>
      <use xlink:href="#DejaVuSans-73" transform="translate(716.992188 0)"/>
      <use xlink:href="#DejaVuSans-65" transform="translate(769.091797 0)"/>
      <use xlink:href="#DejaVuSans-73" transform="translate(830.615234 0)"/>
      <use xlink:href="#DejaVuSans-73" transform="translate(882.714844 0)"/>
      <use xlink:href="#DejaVuSans-69" transform="translate(934.814453 0)"/>
      <use xlink:href="#DejaVuSans-6f" transform="translate(962.597656 0)"/>
      <use xlink:href="#DejaVuSans-6e" transform="translate(1023.779297 0)"/>
      <use xlink:href="#DejaVuSans-20" transform="translate(1087.158203 0)"/>
      <use xlink:href="#DejaVuSans-73" transform="translate(1118.945312 0)"/>
      <use xlink:href="#DejaVuSans-74" transform="translate(1171.044922 0)"/>
      <use xlink:href="#DejaVuSans-61" transform="translate(1210.253906 0)"/>
      <use xlink:href="#DejaVuSans-72" transform="translate(1271.533203 0)"/>
      <use xlink:href="#DejaVuSans-74" transform="translate(1312.646484 0)"/>
     </g>
    </g>
   </g>
   <g id="matplotlib.axis_2">
    <g id="ytick_1">
     <g id="line2d_17">
      <path d="M 33.604375 214.782242 
L 935.316875 214.782242 
" clip-path="url(#pfbb9159af5)" style="fill: none; stroke: #eef2f7; stroke-opacity: 0.25; stroke-width: 0.55; stroke-linecap: square"/>
     </g>
     <g id="line2d_18">
      <defs>
       <path id="m2f7d4958d8" d="M 0 0 
L -3.5 0 
" style="stroke: #000000; stroke-width: 0.8"/>
      </defs>
      <g>
       <use xlink:href="#m2f7d4958d8" x="33.604375" y="214.782242" style="stroke: #000000; stroke-width: 0.8"/>
      </g>
     </g>
     <g id="text_10">
      <!-- 0 -->
      <g transform="translate(20.878125 218.201539) scale(0.09 -0.09)">
       <use xlink:href="#DejaVuSans-30"/>
      </g>
     </g>
    </g>
    <g id="ytick_2">
     <g id="line2d_19">
      <path d="M 33.604375 188.677582 
L 935.316875 188.677582 
" clip-path="url(#pfbb9159af5)" style="fill: none; stroke: #eef2f7; stroke-opacity: 0.25; stroke-width: 0.55; stroke-linecap: square"/>
     </g>
     <g id="line2d_20">
      <g>
       <use xlink:href="#m2f7d4958d8" x="33.604375" y="188.677582" style="stroke: #000000; stroke-width: 0.8"/>
      </g>
     </g>
     <g id="text_11">
      <!-- 1 -->
      <g transform="translate(20.878125 192.096879) scale(0.09 -0.09)">
       <use xlink:href="#DejaVuSans-31"/>
      </g>
     </g>
    </g>
    <g id="ytick_3">
     <g id="line2d_21">
      <path d="M 33.604375 162.572922 
L 935.316875 162.572922 
" clip-path="url(#pfbb9159af5)" style="fill: none; stroke: #eef2f7; stroke-opacity: 0.25; stroke-width: 0.55; stroke-linecap: square"/>
     </g>
     <g id="line2d_22">
      <g>
       <use xlink:href="#m2f7d4958d8" x="33.604375" y="162.572922" style="stroke: #000000; stroke-width: 0.8"/>
      </g>
     </g>
     <g id="text_12">
      <!-- 2 -->
      <g transform="translate(20.878125 165.992219) scale(0.09 -0.09)">
       <use xlink:href="#DejaVuSans-32"/>
      </g>
     </g>
    </g>
    <g id="ytick_4">
     <g id="line2d_23">
      <path d="M 33.604375 136.468262 
L 935.316875 136.468262 
" clip-path="url(#pfbb9159af5)" style="fill: none; stroke: #eef2f7; stroke-opacity: 0.25; stroke-width: 0.55; stroke-linecap: square"/>
     </g>
     <g id="line2d_24">
      <g>
       <use xlink:href="#m2f7d4958d8" x="33.604375" y="136.468262" style="stroke: #000000; stroke-width: 0.8"/>
      </g>
     </g>
     <g id="text_13">
      <!-- 3 -->
      <g transform="translate(20.878125 139.887559) scale(0.09 -0.09)">
       <defs>
        <path id="DejaVuSans-33" d="M 2597 2516 
Q 3050 2419 3304 2112 
Q 3559 1806 3559 1356 
Q 3559 666 3084 287 
Q 2609 -91 1734 -91 
Q 1441 -91 1130 -33 
Q 819 25 488 141 
L 488 750 
Q 750 597 1062 519 
Q 1375 441 1716 441 
Q 2309 441 2620 675 
Q 2931 909 2931 1356 
Q 2931 1769 2642 2001 
Q 2353 2234 1838 2234 
L 1294 2234 
L 1294 2753 
L 1863 2753 
Q 2328 2753 2575 2939 
Q 2822 3125 2822 3475 
Q 2822 3834 2567 4026 
Q 2313 4219 1838 4219 
Q 1578 4219 1281 4162 
Q 984 4106 628 3988 
L 628 4550 
Q 988 4650 1302 4700 
Q 1616 4750 1894 4750 
Q 2613 4750 3031 4423 
Q 3450 4097 3450 3541 
Q 3450 3153 3228 2886 
Q 3006 2619 2597 2516 
z
" transform="scale(0.015625)"/>
       </defs>
       <use xlink:href="#DejaVuSans-33"/>
      </g>
     </g>
    </g>
    <g id="ytick_5">
     <g id="line2d_25">
      <path d="M 33.604375 110.363602 
L 935.316875 110.363602 
" clip-path="url(#pfbb9159af5)" style="fill: none; stroke: #eef2f7; stroke-opacity: 0.25; stroke-width: 0.55; stroke-linecap: square"/>
     </g>
     <g id="line2d_26">
      <g>
       <use xlink:href="#m2f7d4958d8" x="33.604375" y="110.363602" style="stroke: #000000; stroke-width: 0.8"/>
      </g>
     </g>
     <g id="text_14">
      <!-- 4 -->
      <g transform="translate(20.878125 113.782899) scale(0.09 -0.09)">
       <defs>
        <path id="DejaVuSans-34" d="M 2419 4116 
L 825 1625 
L 2419 1625 
L 2419 4116 
z
M 2253 4666 
L 3047 4666 
L 3047 1625 
L 3713 1625 
L 3713 1100 
L 3047 1100 
L 3047 0 
L 2419 0 
L 2419 1100 
L 313 1100 
L 313 1709 
L 2253 4666 
z
" transform="scale(0.015625)"/>
       </defs>
       <use xlink:href="#DejaVuSans-34"/>
      </g>
     </g>
    </g>
    <g id="ytick_6">
     <g id="line2d_27">
      <path d="M 33.604375 84.258942 
L 935.316875 84.258942 
" clip-path="url(#pfbb9159af5)" style="fill: none; stroke: #eef2f7; stroke-opacity: 0.25; stroke-width: 0.55; stroke-linecap: square"/>
     </g>
     <g id="line2d_28">
      <g>
       <use xlink:href="#m2f7d4958d8" x="33.604375" y="84.258942" style="stroke: #000000; stroke-width: 0.8"/>
      </g>
     </g>
     <g id="text_15">
      <!-- 5 -->
      <g transform="translate(20.878125 87.678239) scale(0.09 -0.09)">
       <use xlink:href="#DejaVuSans-35"/>
      </g>
     </g>
    </g>
    <g id="ytick_7">
     <g id="line2d_29">
      <path d="M 33.604375 58.154282 
L 935.316875 58.154282 
" clip-path="url(#pfbb9159af5)" style="fill: none; stroke: #eef2f7; stroke-opacity: 0.25; stroke-width: 0.55; stroke-linecap: square"/>
     </g>
     <g id="line2d_30">
      <g>
       <use xlink:href="#m2f7d4958d8" x="33.604375" y="58.154282" style="stroke: #000000; stroke-width: 0.8"/>
      </g>
     </g>
     <g id="text_16">
      <!-- 6 -->
      <g transform="translate(20.878125 61.573579) scale(0.09 -0.09)">
       <defs>
        <path id="DejaVuSans-36" d="M 2113 2584 
Q 1688 2584 1439 2293 
Q 1191 2003 1191 1497 
Q 1191 994 1439 701 
Q 1688 409 2113 409 
Q 2538 409 2786 701 
Q 3034 994 3034 1497 
Q 3034 2003 2786 2293 
Q 2538 2584 2113 2584 
z
M 3366 4563 
L 3366 3988 
Q 3128 4100 2886 4159 
Q 2644 4219 2406 4219 
Q 1781 4219 1451 3797 
Q 1122 3375 1075 2522 
Q 1259 2794 1537 2939 
Q 1816 3084 2150 3084 
Q 2853 3084 3261 2657 
Q 3669 2231 3669 1497 
Q 3669 778 3244 343 
Q 2819 -91 2113 -91 
Q 1303 -91 875 529 
Q 447 1150 447 2328 
Q 447 3434 972 4092 
Q 1497 4750 2381 4750 
Q 2619 4750 2861 4703 
Q 3103 4656 3366 4563 
z
" transform="scale(0.015625)"/>
       </defs>
       <use xlink:href="#DejaVuSans-36"/>
      </g>
     </g>
    </g>
    <g id="ytick_8">
     <g id="line2d_31">
      <path d="M 33.604375 32.049622 
L 935.316875 32.049622 
" clip-path="url(#pfbb9159af5)" style="fill: none; stroke: #eef2f7; stroke-opacity: 0.25; stroke-width: 0.55; stroke-linecap: square"/>
     </g>
     <g id="line2d_32">
      <g>
       <use xlink:href="#m2f7d4958d8" x="33.604375" y="32.049622" style="stroke: #000000; stroke-width: 0.8"/>
      </g>
     </g>
     <g id="text_17">
      <!-- 7 -->
      <g transform="translate(20.878125 35.468919) scale(0.09 -0.09)">
       <use xlink:href="#DejaVuSans-37"/>
      </g>
     </g>
    </g>
    <g id="text_18">
     <!-- EDA (microsiemens) -->
     <g transform="translate(14.798438 173.642448) rotate(-90) scale(0.1 -0.1)">
      <defs>
       <path id="DejaVuSans-45" d="M 628 4666 
L 3578 4666 
L 3578 4134 
L 1259 4134 
L 1259 2753 
L 3481 2753 
L 3481 2222 
L 1259 2222 
L 1259 531 
L 3634 531 
L 3634 0 
L 628 0 
L 628 4666 
z
" transform="scale(0.015625)"/>
       <path id="DejaVuSans-44" d="M 1259 4147 
L 1259 519 
L 2022 519 
Q 2988 519 3436 956 
Q 3884 1394 3884 2338 
Q 3884 3275 3436 3711 
Q 2988 4147 2022 4147 
L 1259 4147 
z
M 628 4666 
L 1925 4666 
Q 3281 4666 3915 4102 
Q 4550 3538 4550 2338 
Q 4550 1131 3912 565 
Q 3275 0 1925 0 
L 628 0 
L 628 4666 
z
" transform="scale(0.015625)"/>
       <path id="DejaVuSans-41" d="M 2188 4044 
L 1331 1722 
L 3047 1722 
L 2188 4044 
z
M 1831 4666 
L 2547 4666 
L 4325 0 
L 3669 0 
L 3244 1197 
L 1141 1197 
L 716 0 
L 50 0 
L 1831 4666 
z
" transform="scale(0.015625)"/>
       <path id="DejaVuSans-28" d="M 1984 4856 
Q 1566 4138 1362 3434 
Q 1159 2731 1159 2009 
Q 1159 1288 1364 580 
Q 1569 -128 1984 -844 
L 1484 -844 
Q 1016 -109 783 600 
Q 550 1309 550 2009 
Q 550 2706 781 3412 
Q 1013 4119 1484 4856 
L 1984 4856 
z
" transform="scale(0.015625)"/>
       <path id="DejaVuSans-6d" d="M 3328 2828 
Q 3544 3216 3844 3400 
Q 4144 3584 4550 3584 
Q 5097 3584 5394 3201 
Q 5691 2819 5691 2113 
L 5691 0 
L 5113 0 
L 5113 2094 
Q 5113 2597 4934 2840 
Q 4756 3084 4391 3084 
Q 3944 3084 3684 2787 
Q 3425 2491 3425 1978 
L 3425 0 
L 2847 0 
L 2847 2094 
Q 2847 2600 2669 2842 
Q 2491 3084 2119 3084 
Q 1678 3084 1418 2786 
Q 1159 2488 1159 1978 
L 1159 0 
L 581 0 
L 581 3500 
L 1159 3500 
L 1159 2956 
Q 1356 3278 1631 3431 
Q 1906 3584 2284 3584 
Q 2666 3584 2933 3390 
Q 3200 3197 3328 2828 
z
" transform="scale(0.015625)"/>
       <path id="DejaVuSans-29" d="M 513 4856 
L 1013 4856 
Q 1481 4119 1714 3412 
Q 1947 2706 1947 2009 
Q 1947 1309 1714 600 
Q 1481 -109 1013 -844 
L 513 -844 
Q 928 -128 1133 580 
Q 1338 1288 1338 2009 
Q 1338 2731 1133 3434 
Q 928 4138 513 4856 
z
" transform="scale(0.015625)"/>
      </defs>
      <use xlink:href="#DejaVuSans-45"/>
      <use xlink:href="#DejaVuSans-44" transform="translate(63.183594 0)"/>
      <use xlink:href="#DejaVuSans-41" transform="translate(138.435547 0)"/>
      <use xlink:href="#DejaVuSans-20" transform="translate(206.84375 0)"/>
      <use xlink:href="#DejaVuSans-28" transform="translate(238.630859 0)"/>
      <use xlink:href="#DejaVuSans-6d" transform="translate(277.644531 0)"/>
      <use xlink:href="#DejaVuSans-69" transform="translate(375.056641 0)"/>
      <use xlink:href="#DejaVuSans-63" transform="translate(402.839844 0)"/>
      <use xlink:href="#DejaVuSans-72" transform="translate(457.820312 0)"/>
      <use xlink:href="#DejaVuSans-6f" transform="translate(496.683594 0)"/>
      <use xlink:href="#DejaVuSans-73" transform="translate(557.865234 0)"/>
      <use xlink:href="#DejaVuSans-69" transform="translate(609.964844 0)"/>
      <use xlink:href="#DejaVuSans-65" transform="translate(637.748047 0)"/>
      <use xlink:href="#DejaVuSans-6d" transform="translate(699.271484 0)"/>
      <use xlink:href="#DejaVuSans-65" transform="translate(796.683594 0)"/>
      <use xlink:href="#DejaVuSans-6e" transform="translate(858.207031 0)"/>
      <use xlink:href="#DejaVuSans-73" transform="translate(921.585938 0)"/>
      <use xlink:href="#DejaVuSans-29" transform="translate(973.685547 0)"/>
     </g>
    </g>
   </g>
   <g id="line2d_33">
    <path d="M 45.107912 219.203719 
L 45.399706 219.3232 
L 45.6915 219.124048 
L 45.983295 219.283364 
L 46.275089 219.203719 
L 46.566883 206.855614 
L 46.858678 207.771757 
L 47.150472 208.010772 
L 47.442267 206.815779 
L 47.734061 207.970936 
L 48.025855 208.448912 
L 49.193033 208.010772 
L 49.484827 208.409077 
L 50.068416 208.329431 
L 50.36021 208.010772 
L 50.652004 208.24976 
L 50.943799 208.090417 
L 51.235593 208.130253 
L 51.819182 208.010772 
L 52.986359 207.771757 
L 53.861742 207.572605 
L 54.153537 207.413262 
L 54.445331 207.453098 
L 54.737125 207.21411 
L 55.02892 207.134438 
L 55.320714 206.696298 
L 55.612509 206.536955 
L 55.904303 206.218295 
L 56.196097 205.102974 
L 56.779686 204.943657 
L 57.07148 204.306338 
L 57.363275 202.792685 
L 58.238658 202.752876 
L 58.530452 202.274873 
L 58.822246 201.318894 
L 59.114041 201.119742 
L 59.405835 201.119742 
L 59.69763 200.522232 
L 59.989424 199.526418 
L 60.281218 199.566254 
L 60.573013 199.486608 
L 60.864807 198.809453 
L 61.448396 198.132298 
L 61.74019 197.335636 
L 62.031984 197.295801 
L 62.323779 197.016977 
L 62.907367 195.264336 
L 64.074545 193.710874 
L 64.366339 193.43205 
L 64.658134 193.591367 
L 64.949928 193.193062 
L 65.241722 191.798916 
L 65.533517 191.878588 
L 65.825311 191.081926 
L 66.117105 191.241269 
L 66.4089 189.68778 
L 66.992489 188.293583 
L 67.284283 188.014785 
L 67.576077 188.373202 
L 67.867872 187.696047 
L 68.159666 187.33763 
L 68.45146 187.37757 
L 68.743255 187.775927 
L 69.035049 187.33763 
L 69.326843 187.616428 
L 69.618638 184.78851 
L 70.202226 181.960331 
L 70.494021 182.278808 
L 70.785815 180.566081 
L 71.07761 181.163617 
L 71.369404 180.366903 
L 71.661198 180.68564 
L 71.952993 181.283176 
L 72.244787 180.327224 
L 72.536581 180.606021 
L 72.828376 180.486462 
L 73.411964 181.561974 
L 73.995553 182.199189 
L 74.287347 181.601653 
L 74.579142 181.601653 
L 75.162731 180.964438 
L 75.454525 180.844879 
L 75.746319 181.522034 
L 76.038114 180.924498 
L 76.329908 179.729688 
L 76.913497 178.972914 
L 77.205291 179.769367 
L 77.497085 178.932974 
L 77.78888 178.654176 
L 78.080674 179.012593 
L 78.372468 179.012593 
L 78.664263 179.331331 
L 78.956057 178.733795 
L 79.247852 176.264294 
L 79.539646 175.865937 
L 79.83144 176.503152 
L 80.123235 176.264294 
L 80.415029 175.825997 
L 80.706823 173.635294 
L 80.998618 172.71902 
L 81.582206 174.870044 
L 81.874001 172.998079 
L 82.165795 172.679341 
L 82.749384 174.23283 
L 83.041178 173.635294 
L 83.332973 174.07333 
L 83.624767 173.914092 
L 83.916561 172.679341 
L 84.208356 172.599722 
L 84.50015 173.595354 
L 84.791944 173.316556 
L 85.083739 172.320924 
L 85.375533 172.280984 
L 85.959122 171.085913 
L 86.54271 172.161425 
L 86.834505 172.360603 
L 87.126299 171.763068 
L 87.418094 169.731603 
L 87.709888 170.767436 
L 88.001682 171.006294 
L 88.293477 169.452805 
L 88.877065 170.050341 
L 89.16886 170.329139 
L 89.460654 168.89521 
L 89.752448 168.178115 
L 90.044243 168.85527 
L 90.336037 168.77565 
L 90.627832 169.452805 
L 90.919626 169.094388 
L 91.21142 168.456912 
L 91.503215 167.50096 
L 91.795009 167.859638 
L 92.378598 167.779758 
L 92.670392 167.740079 
L 92.962186 167.222162 
L 93.253981 167.262102 
L 93.545775 167.859638 
L 93.837569 167.461281 
L 94.129364 167.779758 
L 94.421158 167.660459 
L 95.004747 168.735971 
L 95.588336 168.178115 
L 95.88013 167.182483 
L 96.463719 167.182483 
L 96.755513 167.182483 
L 97.047307 166.823805 
L 97.339102 167.142543 
L 97.92269 168.536793 
L 98.506279 168.496853 
L 98.798074 168.098496 
L 99.089868 166.30615 
L 99.381662 167.062924 
L 99.673457 167.301781 
L 99.965251 167.939257 
L 100.54884 167.50096 
L 100.840634 167.859638 
L 101.132428 168.77565 
L 101.716017 169.413126 
L 102.007811 169.094388 
L 102.299606 169.811222 
L 102.5914 170.090281 
L 102.883195 169.293567 
L 103.758578 170.647877 
L 104.050372 170.687556 
L 105.217549 172.360603 
L 105.509344 172.121746 
L 105.801138 172.599722 
L 106.092932 172.559782 
L 106.384727 172.639401 
L 106.676521 172.958139 
L 106.968316 172.998079 
L 107.551904 173.674973 
L 107.843699 173.555675 
L 108.135493 173.635294 
L 108.719082 174.23283 
L 109.010876 174.192889 
L 109.594465 173.316556 
L 109.886259 172.599722 
L 110.178054 173.276877 
L 110.469848 173.316556 
L 110.761642 173.157318 
L 111.053437 173.954032 
L 111.345231 173.993711 
L 111.92882 173.874152 
L 112.512408 174.551306 
L 112.804203 174.511627 
L 113.387791 175.188782 
L 113.679586 174.830365 
L 114.263175 173.674973 
L 114.554969 173.914092 
L 115.138558 172.918199 
L 115.430352 172.559782 
L 115.722146 172.918199 
L 116.305735 173.914092 
L 116.597529 174.23283 
L 116.889324 174.272509 
L 117.181118 174.591247 
L 117.472912 175.188782 
L 118.056501 174.07333 
L 118.348296 173.874152 
L 118.64009 173.276877 
L 118.931884 173.874152 
L 119.223679 174.750485 
L 119.515473 173.874152 
L 119.807267 174.312449 
L 120.099062 174.392068 
L 120.390856 174.591247 
L 120.68265 173.236937 
L 120.974445 167.779758 
L 121.266239 166.067031 
L 121.558033 153.559766 
L 121.849828 152.842671 
L 122.141622 153.479886 
L 122.725211 156.108886 
L 123.017005 154.674957 
L 123.600594 154.077422 
L 123.892388 152.444314 
L 124.184183 152.245135 
L 124.475977 151.846778 
L 124.767771 150.851147 
L 125.059566 150.612028 
L 125.643154 151.846778 
L 125.934949 150.29329 
L 126.226743 147.385492 
L 126.518538 148.381385 
L 126.810332 148.97892 
L 127.102126 150.213671 
L 127.393921 148.899301 
L 127.685715 148.660182 
L 128.269304 142.207372 
L 128.561098 140.813122 
L 128.852892 133.683156 
L 129.144687 130.138143 
L 129.436481 133.882334 
L 129.728275 131.014476 
L 130.02007 131.412834 
L 130.311864 133.08562 
L 130.603659 131.651691 
L 130.895453 133.643477 
L 131.187247 134.559489 
L 131.479042 133.006001 
L 131.770836 128.465095 
L 132.06263 126.154833 
L 132.354425 130.058524 
L 132.646219 127.071107 
L 132.938013 131.691631 
L 133.521602 136.590954 
L 134.105191 142.247312 
L 134.396985 143.282884 
L 134.68878 144.756753 
L 134.980574 145.473587 
L 135.272368 146.867837 
L 135.564163 147.305873 
L 135.855957 147.106694 
L 136.147751 145.792325 
L 137.023134 133.643477 
L 137.606723 129.779726 
L 137.898518 129.381369 
L 138.190312 130.855238 
L 138.482106 131.452513 
L 138.773901 134.917906 
L 139.357489 138.064823 
L 139.649284 137.427608 
L 139.941078 138.781918 
L 140.232872 138.144442 
L 140.524667 139.419133 
L 141.108255 143.880419 
L 141.983639 149.337337 
L 142.275433 150.452789 
L 142.567227 150.851147 
L 142.859022 151.488361 
L 143.150816 152.763052 
L 143.734405 153.758945 
L 144.026199 152.006278 
L 144.317993 152.205456 
L 144.609788 152.842671 
L 144.901582 153.838564 
L 145.193376 154.117362 
L 145.485171 155.152934 
L 145.776965 155.392052 
L 146.360554 156.666482 
L 146.652348 156.9056 
L 146.944143 155.192874 
L 147.527731 155.591231 
L 148.11132 157.861553 
L 148.403114 158.21997 
L 148.694909 157.901493 
L 148.986703 156.387684 
L 149.278497 153.479886 
L 150.153881 154.794517 
L 150.445675 155.949648 
L 150.737469 156.586863 
L 151.029264 156.945541 
L 151.321058 157.582755 
L 151.612852 157.941172 
L 151.904647 158.937065 
L 152.196441 157.224338 
L 152.488235 157.383577 
L 152.78003 157.264017 
L 153.071824 158.25991 
L 153.363619 157.941172 
L 154.239002 159.853078 
L 154.530796 158.897125 
L 154.82259 159.136244 
L 155.406179 161.247327 
L 155.697973 160.450613 
L 155.989768 161.167708 
L 156.281562 153.161409 
L 156.573356 153.519826 
L 158.032328 158.21997 
L 158.324123 153.241028 
L 158.615917 143.561681 
L 158.907711 143.561681 
L 159.199506 144.517634 
L 159.4913 146.469479 
L 159.783094 149.297658 
L 160.074889 148.660182 
L 160.366683 145.234729 
L 160.658477 144.159217 
L 161.533861 151.209564 
L 162.117449 153.440207 
L 162.701038 153.121469 
L 162.992832 152.205456 
L 163.284627 151.807099 
L 163.576421 152.484254 
L 163.868215 153.798624 
L 164.16001 152.763052 
L 164.451804 154.117362 
L 164.743598 153.758945 
L 165.327187 152.484254 
L 165.618982 153.838564 
L 165.910776 153.838564 
L 166.20257 155.073314 
L 166.494365 155.67085 
L 167.077953 157.343637 
L 167.369748 157.622695 
L 167.661542 158.578648 
L 167.953336 158.937065 
L 168.536925 157.582755 
L 168.828719 157.981112 
L 169.120514 158.578648 
L 169.412308 157.582755 
L 169.704103 158.25991 
L 169.995897 158.538708 
L 170.287691 159.176184 
L 170.579486 160.132136 
L 170.87128 160.490553 
L 171.163074 161.167708 
L 171.746663 157.941172 
L 172.038457 158.21997 
L 172.330252 157.622695 
L 172.622046 158.737886 
L 172.913841 158.37947 
L 173.205635 158.817506 
L 173.497429 158.578648 
L 173.789224 159.215863 
L 174.081018 157.941172 
L 174.372812 147.943349 
L 174.664607 142.565789 
L 174.956401 142.924467 
L 175.248195 144.517634 
L 175.53999 140.932681 
L 176.415373 146.111062 
L 176.707167 145.194789 
L 176.998962 145.15511 
L 177.290756 144.278776 
L 177.58255 144.876051 
L 178.166139 147.067015 
L 178.749728 147.58467 
L 179.333316 150.612028 
L 179.625111 149.337337 
L 179.916905 149.934873 
L 180.208699 150.253611 
L 180.500494 151.807099 
L 180.792288 152.404635 
L 181.084083 153.479886 
L 181.375877 154.117362 
L 181.667671 154.475779 
L 181.959466 154.475779 
L 182.25126 155.073314 
L 182.543054 151.010385 
L 182.834849 140.653883 
L 183.126643 142.884526 
L 183.418437 144.159217 
L 184.002026 148.97892 
L 184.29382 150.213671 
L 184.585615 152.165516 
L 184.877409 152.165516 
L 185.169204 151.528301 
L 185.460998 151.448421 
L 185.752792 147.783849 
L 186.044587 141.570157 
L 186.336381 142.286991 
L 187.211764 148.97892 
L 187.503558 150.612028 
L 187.795353 151.448421 
L 188.087147 153.121469 
L 188.378941 153.559766 
L 188.670736 154.714897 
L 188.96253 154.077422 
L 189.254325 155.033374 
L 189.837913 155.710529 
L 190.129708 155.471671 
L 190.421502 156.706422 
L 190.713296 157.02516 
L 191.005091 157.981112 
L 191.296885 158.140351 
L 191.588679 158.897125 
L 191.880474 159.215863 
L 192.464062 154.714897 
L 192.755857 149.218039 
L 193.047651 129.26181 
L 193.923034 141.848955 
L 194.214829 143.601621 
L 194.798417 148.261825 
L 195.382006 151.846778 
L 195.965595 154.396159 
L 196.257389 154.874136 
L 196.549184 156.268386 
L 197.716361 159.176184 
L 198.008155 158.817506 
L 198.29995 159.972637 
L 199.175333 156.029267 
L 199.467127 156.706422 
L 199.758921 156.706422 
L 200.050716 156.9056 
L 200.34251 155.710529 
L 200.634305 155.750469 
L 200.926099 156.348005 
L 201.217893 156.308065 
L 201.509688 156.626803 
L 201.801482 155.113254 
L 202.385071 146.628718 
L 202.676865 148.341706 
L 202.968659 149.257718 
L 203.552248 149.895194 
L 203.844042 151.408742 
L 204.427631 153.121469 
L 204.719426 147.106694 
L 205.303014 147.425432 
L 205.886603 143.561681 
L 206.178397 144.517634 
L 206.470192 146.469479 
L 207.345575 150.213671 
L 207.637369 150.651968 
L 207.929163 152.523933 
L 208.220958 153.479886 
L 208.512752 153.440207 
L 208.804547 153.838564 
L 209.096341 153.758945 
L 209.388135 154.834196 
L 209.67993 155.033374 
L 210.555313 157.303958 
L 210.847107 157.303958 
L 211.72249 158.937065 
L 212.014284 159.215863 
L 212.306079 159.335422 
L 212.597873 160.410934 
L 212.889668 159.853078 
L 213.181462 157.662375 
L 213.473256 157.861553 
L 213.765051 158.499029 
L 214.056845 155.352112 
L 214.348639 153.719005 
L 214.640434 148.93898 
L 215.224022 150.851147 
L 215.515817 150.612028 
L 216.099406 152.763052 
L 216.3912 153.479886 
L 216.682994 153.121469 
L 216.974789 154.4361 
L 217.266583 153.519826 
L 217.558377 154.157041 
L 217.850172 153.997802 
L 218.141966 150.612028 
L 219.309143 154.714897 
L 219.600938 155.352112 
L 219.892732 157.02516 
L 220.184527 157.264017 
L 220.768115 158.499029 
L 221.05991 158.857446 
L 221.351704 159.494661 
L 221.935293 160.132136 
L 222.227087 160.809291 
L 222.518881 159.534601 
L 222.810676 159.853078 
L 223.10247 160.490553 
L 223.977853 160.450613 
L 224.269648 160.769351 
L 224.853236 162.044042 
L 225.436825 162.083721 
L 225.728619 162.960054 
L 226.020414 163.039934 
L 226.312208 163.677149 
L 226.604002 163.677149 
L 226.895797 162.044042 
L 227.187591 162.641577 
L 227.479385 160.092196 
L 227.77118 160.171815 
L 228.062974 161.127768 
L 228.354769 160.450613 
L 228.646563 161.207387 
L 228.938357 161.486446 
L 229.230152 162.36278 
L 229.521946 162.641577 
L 229.81374 163.119554 
L 230.105535 161.804923 
L 230.397329 161.765244 
L 230.689123 161.566065 
L 230.980918 162.641577 
L 231.272712 161.486446 
L 231.856301 162.123661 
L 232.148095 162.083721 
L 232.43989 162.36278 
L 232.731684 162.322839 
L 233.023478 162.721197 
L 233.315273 162.681256 
L 233.607067 163.079614 
L 233.898861 162.482078 
L 234.190656 162.402459 
L 234.48245 161.127768 
L 234.774244 161.446506 
L 235.066039 161.127768 
L 235.357833 159.853078 
L 235.649628 159.295482 
L 235.941422 159.255803 
L 236.233216 159.534601 
L 236.525011 159.57428 
L 236.816805 158.25991 
L 237.108599 154.714897 
L 237.400394 155.152934 
L 237.983982 157.02516 
L 238.275777 156.98522 
L 238.567571 156.547183 
L 238.859365 154.4361 
L 239.442954 156.427624 
L 239.734749 156.348005 
L 240.026543 156.98522 
L 240.318337 156.945541 
L 240.610132 140.375085 
L 242.069103 150.930766 
L 244.987047 160.132136 
L 245.278841 160.769351 
L 245.86243 161.406566 
L 246.154224 160.809291 
L 246.446019 157.224338 
L 247.029607 158.897125 
L 247.321402 159.853078 
L 247.613196 160.171815 
L 248.196785 161.406566 
L 248.488579 161.804923 
L 248.780374 161.406566 
L 249.072168 161.446506 
L 250.239345 163.039934 
L 251.114728 164.9119 
L 251.406523 164.95184 
L 251.698317 165.628995 
L 252.281906 166.266209 
L 252.5737 166.345829 
L 252.865495 166.624626 
L 253.157289 165.867852 
L 253.449083 162.004102 
L 253.740878 162.083721 
L 254.616261 163.717089 
L 254.908055 163.717089 
L 255.199849 164.712721 
L 255.783438 165.310257 
L 256.367027 166.22653 
L 256.658821 166.22653 
L 256.950616 167.022984 
L 257.534204 167.182483 
L 257.825999 167.142543 
L 258.117793 167.5409 
L 258.409587 167.262102 
L 258.701382 167.899317 
L 259.284971 166.624626 
L 259.868559 166.385769 
L 260.160354 166.22653 
L 260.743942 165.549375 
L 262.202914 165.947472 
L 262.494708 166.584947 
L 262.786503 165.867852 
L 263.078297 166.584947 
L 263.370092 165.310257 
L 263.661886 166.345829 
L 263.95368 166.505328 
L 264.537269 167.182483 
L 264.829063 166.584947 
L 265.412652 167.262102 
L 265.704446 167.301781 
L 266.288035 168.178115 
L 266.579829 167.620519 
L 266.871624 168.496853 
L 267.163418 167.5409 
L 267.455213 167.58084 
L 267.747007 167.341721 
L 268.330596 168.178115 
L 268.62239 168.417233 
L 268.914184 169.014769 
L 269.205979 169.094388 
L 269.497773 169.054448 
L 269.789567 169.373186 
L 270.081362 169.492745 
L 270.373156 168.496853 
L 270.956745 168.536793 
L 271.248539 169.134067 
L 271.540334 169.452805 
L 271.832128 169.134067 
L 272.123922 169.094388 
L 272.707511 169.174008 
L 273.2911 168.815591 
L 273.874688 167.5409 
L 274.166483 167.182483 
L 274.458277 167.182483 
L 274.750071 166.266209 
L 275.041866 166.14665 
L 275.33366 165.867852 
L 275.625455 161.685625 
L 276.209043 161.725304 
L 276.792632 161.167708 
L 277.084426 161.446506 
L 277.376221 161.406566 
L 277.668015 160.132136 
L 277.959809 156.86566 
L 278.251604 157.941172 
L 278.543398 158.29985 
L 278.835193 157.901493 
L 279.126987 158.499029 
L 279.418781 154.953755 
L 280.00237 156.308065 
L 280.294164 156.706422 
L 280.585959 157.582755 
L 280.877753 156.348005 
L 281.169547 156.945541 
L 281.461342 149.257718 
L 281.753136 148.660182 
L 282.628519 153.161409 
L 282.920314 151.607921 
L 283.503902 152.842671 
L 285.254668 157.861553 
L 286.130051 159.853078 
L 286.421846 157.941172 
L 286.71364 157.343637 
L 287.005435 158.020791 
L 287.297229 158.21997 
L 287.589023 158.897125 
L 287.880818 158.180291 
L 288.172612 158.538708 
L 288.464406 150.970445 
L 288.756201 149.974813 
L 289.047995 149.416957 
L 289.339789 149.696015 
L 289.631584 148.97892 
L 289.923378 149.735694 
L 290.215172 151.249504 
L 290.506967 151.169623 
L 290.798761 152.205456 
L 291.090556 145.513527 
L 291.38235 131.412834 
L 291.965939 140.295466 
L 292.549527 146.071122 
L 292.841322 145.433908 
L 293.133116 144.159217 
L 293.42491 136.551275 
L 293.716705 140.454705 
L 294.008499 141.370978 
L 294.592088 145.712705 
L 295.759265 149.855254 
L 296.05106 151.289183 
L 296.342854 151.249504 
L 297.218237 154.117362 
L 297.510031 154.754576 
L 297.801826 154.993695 
L 298.09362 156.666482 
L 298.385414 155.67085 
L 298.677209 150.612028 
L 298.969003 151.488361 
L 299.552592 154.157041 
L 299.844386 154.396159 
L 300.427975 156.586863 
L 301.011564 158.020791 
L 301.303358 158.25991 
L 301.595152 158.857446 
L 301.886947 157.901493 
L 302.178741 158.21997 
L 302.76233 157.622695 
L 303.054124 157.941172 
L 304.221302 160.251435 
L 304.513096 160.450613 
L 304.80489 160.092196 
L 305.096685 160.88891 
L 305.388479 161.00847 
L 305.680273 161.765244 
L 306.263862 161.207387 
L 306.847451 162.083721 
L 307.139245 161.765244 
L 307.43104 162.044042 
L 308.014628 163.039934 
L 308.306423 163.358411 
L 308.890011 164.9119 
L 309.181806 164.593162 
L 309.4736 164.633102 
L 309.765394 164.991519 
L 310.057189 139.618311 
L 310.932572 144.517634 
L 311.224366 143.920098 
L 311.807955 145.832265 
L 312.099749 148.022968 
L 312.391544 146.788217 
L 312.683338 148.660182 
L 312.975132 148.660182 
L 313.266927 149.018861 
L 313.558721 149.895194 
L 313.850515 151.209564 
L 314.434104 145.393967 
L 314.725899 144.876051 
L 315.309487 147.345813 
L 315.601282 149.257718 
L 316.768459 153.121469 
L 317.060253 155.113254 
L 317.352048 154.754576 
L 318.519225 157.901493 
L 319.102814 159.136244 
L 319.394608 159.136244 
L 319.686403 159.813398 
L 319.978197 159.813398 
L 320.85358 161.725304 
L 321.145374 160.410934 
L 321.437169 159.853078 
L 321.728963 158.897125 
L 322.020758 159.295482 
L 322.312552 159.494661 
L 322.896141 160.729411 
L 323.187935 160.769351 
L 323.479729 161.446506 
L 324.063318 162.044042 
L 324.355112 161.088089 
L 324.646907 161.844863 
L 324.938701 162.044042 
L 325.52229 158.100672 
L 325.814084 157.981112 
L 326.105879 158.25991 
L 326.397673 157.064839 
L 326.689467 156.706422 
L 327.856645 158.857446 
L 328.148439 158.857446 
L 328.732028 159.454982 
L 329.023822 160.291375 
L 329.315616 160.092196 
L 329.607411 160.132136 
L 329.899205 159.494661 
L 330.191 159.853078 
L 330.482794 160.530232 
L 330.774588 160.490553 
L 331.941766 161.765244 
L 332.525354 162.482078 
L 332.817149 161.127768 
L 333.108943 160.410934 
L 333.400737 160.809291 
L 333.692532 160.450613 
L 333.984326 158.977005 
L 334.276121 158.339529 
L 334.567915 159.215863 
L 334.859709 159.136244 
L 335.151504 158.419149 
L 335.443298 158.29985 
L 335.735092 158.618327 
L 336.026887 158.499029 
L 336.318681 158.618327 
L 336.610475 158.578648 
L 337.194064 154.834196 
L 337.485858 154.515719 
L 337.777653 152.245135 
L 338.361242 153.121469 
L 338.653036 153.360588 
L 338.94483 150.930766 
L 339.820213 153.838564 
L 340.112008 154.157041 
L 340.987391 156.706422 
L 341.279185 157.264017 
L 341.57098 156.108886 
L 341.862774 141.928574 
L 342.154568 143.561681 
L 342.738157 142.286991 
L 343.905334 148.381385 
L 344.197129 149.616135 
L 344.488923 148.739802 
L 345.072512 149.895194 
L 345.364306 149.656075 
L 345.656101 150.213671 
L 345.947895 151.886718 
L 346.239689 151.209564 
L 346.531484 151.488361 
L 346.823278 151.169623 
L 347.115072 151.846778 
L 347.698661 153.479886 
L 347.990455 154.4361 
L 348.28225 154.794517 
L 348.865838 156.746362 
L 349.157633 154.993695 
L 349.449427 155.113254 
L 349.741222 156.069207 
L 350.033016 156.427624 
L 350.32481 157.02516 
L 350.616605 155.870029 
L 351.200193 156.945541 
L 351.491988 157.662375 
L 351.783782 157.622695 
L 352.075576 158.100672 
L 352.367371 158.29985 
L 352.659165 158.897125 
L 352.950959 159.215863 
L 353.242754 157.861553 
L 354.409931 159.176184 
L 354.701726 158.21997 
L 354.99352 139.976728 
L 355.285314 131.054156 
L 355.577109 135.555382 
L 355.868903 138.104763 
L 356.160697 139.379193 
L 356.744286 144.517634 
L 357.03608 143.880419 
L 359.370435 151.528301 
L 359.66223 151.528301 
L 359.954024 152.563873 
L 360.537613 153.121469 
L 360.829407 151.807099 
L 361.121201 152.484254 
L 361.412996 152.802731 
L 361.70479 153.440207 
L 361.996585 153.519826 
L 362.288379 153.400267 
L 362.580173 153.719005 
L 363.163762 155.710529 
L 363.455556 155.431731 
L 363.747351 154.674957 
L 364.039145 155.750469 
L 364.330939 156.308065 
L 364.914528 154.157041 
L 365.206323 154.754576 
L 365.498117 154.475779 
L 365.789911 154.754576 
L 366.081706 151.249504 
L 366.3735 150.213671 
L 366.665294 151.886718 
L 366.957089 151.567981 
L 367.248883 144.398075 
L 367.540677 133.364679 
L 367.832472 133.961954 
L 368.124266 126.314071 
L 368.41606 122.729379 
L 368.707855 124.999702 
L 368.999649 129.14225 
L 369.291444 130.416941 
L 369.875032 136.551275 
L 370.166827 138.781918 
L 370.458621 137.825704 
L 370.750415 138.781918 
L 371.04221 138.42324 
L 371.334004 139.458812 
L 371.917593 143.203264 
L 372.792976 146.190682 
L 373.08477 146.429539 
L 373.376565 147.345813 
L 373.668359 147.027075 
L 373.960153 149.018861 
L 374.543742 151.010385 
L 374.835536 152.205456 
L 375.127331 151.886718 
L 375.419125 152.882611 
L 375.710919 153.121469 
L 376.294508 144.557574 
L 376.586302 146.429539 
L 376.878097 147.106694 
L 377.169891 145.03555 
L 377.461686 144.597253 
L 377.75348 143.282884 
L 378.045274 142.964146 
L 378.337069 144.477955 
L 378.628863 145.234729 
L 378.920657 144.358396 
L 379.504246 146.469479 
L 379.79604 147.106694 
L 380.087835 145.633086 
L 380.671423 148.540884 
L 381.255012 149.576456 
L 381.546807 150.651968 
L 382.130395 151.129944 
L 382.42219 150.691647 
L 382.713984 148.062647 
L 383.297573 145.911884 
L 383.589367 144.517634 
L 383.881161 137.387668 
L 384.172956 133.364679 
L 384.46475 112.293258 
L 384.756545 109.703937 
L 385.923722 130.416941 
L 386.507311 136.471395 
L 387.090899 140.932681 
L 387.382694 140.733502 
L 388.258077 145.752384 
L 388.841666 148.700123 
L 389.425254 150.851147 
L 389.717049 151.528301 
L 390.300637 153.838564 
L 390.592432 154.396159 
L 390.884226 154.4361 
L 391.467815 156.348005 
L 391.759609 156.626803 
L 392.051403 157.383577 
L 392.343198 157.582755 
L 392.634992 158.29985 
L 392.926787 158.180291 
L 393.218581 157.383577 
L 393.510375 157.622695 
L 393.80217 158.29985 
L 394.093964 157.702315 
L 394.385758 157.861553 
L 394.677553 158.658267 
L 394.969347 158.897125 
L 395.261141 155.67085 
L 395.552936 156.746362 
L 395.84473 141.928574 
L 396.136524 142.207372 
L 396.428319 136.272216 
L 397.595496 145.473587 
L 397.887291 139.060716 
L 398.179085 125.637178 
L 398.470879 124.362487 
L 398.762674 128.584655 
L 399.054468 123.087796 
L 399.346262 125.716797 
L 399.638057 117.31214 
L 399.929851 119.622403 
L 400.221645 117.630617 
L 401.097029 129.899024 
L 401.388823 129.500928 
L 401.680617 119.542784 
L 401.972412 120.897093 
L 402.556 127.150726 
L 403.431383 134.041834 
L 403.723178 132.328846 
L 404.014972 135.595061 
L 404.306767 134.917906 
L 404.890355 139.937049 
L 405.18215 139.65799 
L 405.765738 143.521741 
L 406.057533 142.964146 
L 406.349327 137.22843 
L 406.641121 138.980836 
L 406.932916 141.689455 
L 408.391888 146.748277 
L 408.683682 147.067015 
L 408.975476 148.261825 
L 409.267271 148.500944 
L 409.559065 149.656075 
L 409.850859 150.29329 
L 410.142654 149.974813 
L 410.726242 151.72748 
L 411.018037 149.895194 
L 411.309831 149.656075 
L 411.601625 151.209564 
L 411.89342 151.528301 
L 412.185214 152.125576 
L 412.477009 153.04185 
L 412.768803 154.396159 
L 413.060597 152.125576 
L 413.644186 152.205456 
L 413.93598 147.70423 
L 414.227775 145.832265 
L 414.519569 140.415026 
L 414.811363 137.786025 
L 415.103158 139.020776 
L 415.394952 140.972621 
L 415.686746 141.291359 
L 417.145718 146.748277 
L 417.729307 148.779742 
L 418.021101 148.93898 
L 418.312896 146.708337 
L 418.896484 132.408465 
L 419.188279 129.859345 
L 419.480073 120.578355 
L 419.771867 121.494368 
L 420.063662 126.911607 
L 420.355456 126.59313 
L 420.939045 132.767143 
L 421.814428 138.144442 
L 422.106222 135.635001 
L 422.398017 136.830073 
L 422.689811 137.18849 
L 422.981605 138.821597 
L 423.2734 139.65799 
L 423.856988 142.207372 
L 424.148783 132.767143 
L 425.024166 138.42324 
L 425.607755 141.809014 
L 425.899549 141.609836 
L 426.191343 135.276584 
L 426.483138 133.643477 
L 426.774932 135.595061 
L 427.066726 136.192597 
L 427.358521 138.104763 
L 427.650315 130.178083 
L 427.94211 130.735679 
L 428.233904 121.175891 
L 428.525698 125.676857 
L 428.817493 125.756476 
L 429.109287 129.739786 
L 429.401081 127.9075 
L 429.692876 130.815298 
L 430.568259 135.635001 
L 430.860053 132.687524 
L 431.443642 115.439914 
L 431.735436 115.838271 
L 432.319025 126.632809 
L 432.610819 130.49656 
L 433.777997 138.383561 
L 434.945174 143.203264 
L 435.236968 143.601621 
L 435.820557 145.752384 
L 436.404146 147.664551 
L 436.69594 148.022968 
L 436.987735 149.257718 
L 437.279529 149.257718 
L 437.571323 150.572349 
L 437.863118 149.974813 
L 438.154912 149.895194 
L 438.738501 152.245135 
L 439.030295 152.882611 
L 439.322089 153.161409 
L 440.197473 155.113254 
L 440.489267 155.113254 
L 440.781061 154.714897 
L 441.072856 156.029267 
L 441.656444 156.98522 
L 441.948239 157.264017 
L 442.240033 157.383577 
L 442.531827 157.662375 
L 442.823622 156.666482 
L 443.115416 154.794517 
L 443.40721 154.794517 
L 443.699005 156.029267 
L 444.574388 157.662375 
L 444.866182 157.941172 
L 445.157977 158.658267 
L 445.449771 158.817506 
L 445.741565 159.534601 
L 446.03336 157.981112 
L 446.325154 151.209564 
L 446.616948 150.213671 
L 448.07592 154.475779 
L 448.951303 154.4361 
L 449.243098 154.714897 
L 449.534892 155.750469 
L 449.826686 155.909708 
L 450.118481 150.33323 
L 450.410275 148.261825 
L 450.702069 148.461004 
L 450.993864 148.301765 
L 451.285658 147.385492 
L 451.577453 137.507228 
L 451.869247 122.211463 
L 452.161041 126.951547 
L 452.452836 123.486154 
L 452.74463 112.173699 
L 453.036424 93.372601 
L 453.328219 83.454396 
L 453.911807 105.003793 
L 454.495396 117.351819 
L 454.78719 120.578355 
L 455.078985 125.039642 
L 455.370779 125.2785 
L 455.662574 127.94744 
L 455.954368 128.943072 
L 456.246162 129.221869 
L 456.537957 129.062631 
L 456.829751 132.727203 
L 457.121545 131.134036 
L 457.41334 131.372893 
L 457.705134 133.006001 
L 457.996928 132.687524 
L 458.288723 135.276584 
L 458.580517 136.869752 
L 458.872311 115.758652 
L 459.164106 73.257133 
L 459.4559 54.854653 
L 459.747695 47.724687 
L 460.039489 47.923866 
L 460.331283 44.538091 
L 460.623078 30.397458 
L 460.914872 40.036865 
L 461.206666 33.663673 
L 461.498461 46.370377 
L 461.790255 42.267508 
L 462.082049 56.60732 
L 462.373844 63.060131 
L 462.665638 64.613619 
L 462.957432 72.34112 
L 463.249227 83.135658 
L 463.541021 87.358087 
L 463.832816 87.557005 
L 464.416404 100.980804 
L 464.708199 103.529924 
L 465.583582 117.989295 
L 465.875376 121.175891 
L 466.16717 121.494368 
L 466.458965 125.2785 
L 466.750759 123.406534 
L 467.042553 125.796416 
L 467.334348 129.859345 
L 467.626142 131.73131 
L 467.917937 134.599429 
L 468.209731 135.276584 
L 468.501525 132.966322 
L 468.79332 135.117085 
L 469.085114 132.727203 
L 469.376908 133.643477 
L 469.960497 129.102571 
L 470.252291 129.540607 
L 470.544086 129.739786 
L 471.127675 131.372893 
L 471.419469 134.280692 
L 471.711263 135.953739 
L 472.294852 115.200795 
L 472.586646 120.897093 
L 472.878441 115.081497 
L 473.170235 119.86126 
L 473.462029 116.754284 
L 473.753824 117.39176 
L 474.045618 118.984927 
L 474.337412 123.008177 
L 474.629207 122.888618 
L 475.212796 129.819405 
L 475.50459 131.691631 
L 475.796384 131.372893 
L 476.088179 118.58657 
L 476.379973 121.175891 
L 476.671767 120.498736 
L 478.130739 133.364679 
L 478.422533 132.647584 
L 479.006122 136.232537 
L 479.881505 140.653883 
L 480.756888 143.561681 
L 481.632271 144.796432 
L 482.21586 147.544991 
L 482.507654 147.863729 
L 482.799449 149.018861 
L 483.091243 149.656075 
L 483.383038 150.651968 
L 483.674832 150.811206 
L 483.966626 151.329123 
L 484.258421 152.563873 
L 484.550215 151.488361 
L 484.842009 152.245135 
L 485.133804 153.400267 
L 485.425598 153.758945 
L 485.717392 153.758945 
L 486.300981 155.431731 
L 486.592775 154.396159 
L 486.88457 154.196981 
L 487.176364 155.073314 
L 487.468159 155.431731 
L 487.759953 156.467564 
L 488.051747 157.02516 
L 488.343542 157.264017 
L 488.635336 157.303958 
L 489.510719 159.176184 
L 489.802513 159.853078 
L 490.094308 159.494661 
L 490.386102 159.773458 
L 490.677897 160.410934 
L 490.969691 160.211756 
L 491.261485 160.530232 
L 491.55328 158.897125 
L 492.136868 159.57428 
L 492.428663 159.733779 
L 492.720457 159.534601 
L 493.304046 160.769351 
L 493.59584 161.00847 
L 493.887634 161.486446 
L 494.471223 161.446506 
L 495.054812 162.083721 
L 495.346606 159.853078 
L 495.638401 160.570173 
L 495.930195 160.490553 
L 496.513784 156.98522 
L 496.805578 143.203264 
L 497.389167 146.708337 
L 497.972755 149.974813 
L 498.26455 151.209564 
L 498.556344 151.528301 
L 498.848139 152.603813 
L 499.431727 153.559766 
L 499.723522 137.746085 
L 500.015316 115.121176 
L 500.30711 123.764951 
L 500.598905 128.783833 
L 501.474288 136.869752 
L 502.057876 141.05224 
L 502.349671 141.968514 
L 503.225054 146.071122 
L 503.516848 147.146634 
L 504.100437 145.672765 
L 504.392231 147.823789 
L 504.684026 148.381385 
L 505.267614 150.253611 
L 505.559409 150.33323 
L 505.851203 151.528301 
L 506.142997 152.165516 
L 506.726586 153.798624 
L 507.018381 154.117362 
L 507.310175 154.754576 
L 507.601969 154.834196 
L 507.893764 156.029267 
L 508.769147 157.981112 
L 509.060941 158.140351 
L 509.352735 158.817506 
L 510.228119 159.893018 
L 510.519913 159.853078 
L 510.811707 160.490553 
L 511.395296 161.326947 
L 511.68709 160.132136 
L 512.270679 160.809291 
L 512.854268 161.844863 
L 513.146062 161.844863 
L 513.437856 162.044042 
L 513.729651 162.402459 
L 514.021445 162.083721 
L 514.31324 161.127768 
L 514.605034 159.57428 
L 514.896828 159.415041 
L 515.480417 160.84897 
L 515.772211 161.167708 
L 516.064006 161.765244 
L 516.3558 161.804923 
L 517.231183 163.278792 
L 517.522977 163.358411 
L 517.814772 163.717089 
L 518.398361 164.673042 
L 518.981949 165.310257 
L 519.273744 166.027352 
L 519.857332 165.907792 
L 520.149127 166.30615 
L 520.440921 166.22653 
L 521.316304 167.222162 
L 521.608098 166.823805 
L 521.899893 167.58084 
L 522.191687 167.58084 
L 522.483482 167.819698 
L 522.775276 168.456912 
L 523.06707 167.859638 
L 523.358865 167.58084 
L 523.650659 167.939257 
L 524.234248 166.22653 
L 524.526042 166.22653 
L 524.817836 166.584947 
L 525.109631 166.624626 
L 525.693219 165.987412 
L 525.985014 164.633102 
L 526.276808 164.633102 
L 526.568603 161.645685 
L 526.860397 160.211756 
L 527.443986 155.073314 
L 527.73578 155.033374 
L 528.027574 155.750469 
L 528.319369 155.511351 
L 528.611163 153.440207 
L 528.902957 153.121469 
L 529.194752 151.886718 
L 529.486546 151.846778 
L 530.653724 142.645669 
L 530.945518 143.163324 
L 531.820901 146.708337 
L 532.112695 144.876051 
L 532.40449 141.530217 
L 532.696284 140.653883 
L 532.988078 141.331038 
L 533.279873 143.163324 
L 533.571667 144.198896 
L 534.155256 147.146634 
L 534.738845 149.257718 
L 535.322433 150.930766 
L 535.614228 151.846778 
L 535.906022 150.930766 
L 536.489611 152.523933 
L 536.781405 152.802731 
L 537.073199 153.519826 
L 537.364994 153.08179 
L 537.656788 153.161409 
L 537.948583 154.236921 
L 538.532171 154.754576 
L 538.823966 152.802731 
L 539.11576 152.763052 
L 539.407554 149.018861 
L 539.699349 148.700123 
L 539.991143 141.609836 
L 540.282937 142.286991 
L 540.574732 135.913799 
L 540.866526 124.322547 
L 541.450115 110.73977 
L 541.741909 101.3789 
L 542.325498 105.800507 
L 542.617292 102.653591 
L 542.909087 101.657959 
L 543.200881 106.636901 
L 543.492675 109.066722 
L 544.076264 118.66645 
L 544.368058 121.175891 
L 544.951647 127.827881 
L 545.243441 127.270285 
L 545.535236 129.540607 
L 545.82703 129.580547 
L 546.118825 120.897093 
L 546.410619 83.733194 
L 546.702413 94.368494 
L 546.994208 93.45222 
L 547.577796 110.341413 
L 547.869591 116.435807 
L 548.453179 122.808999 
L 549.036768 125.995595 
L 549.328562 128.465095 
L 549.620357 123.087796 
L 549.912151 122.171523 
L 550.49574 127.349904 
L 552.246506 137.507228 
L 552.5383 138.42324 
L 552.830095 138.42324 
L 553.121889 131.492453 
L 553.413684 130.855238 
L 553.997272 134.917906 
L 554.289067 134.639109 
L 554.872655 138.383561 
L 555.748038 141.05224 
L 556.039833 141.05224 
L 556.331627 140.494645 
L 556.915216 142.924467 
L 557.20701 143.840479 
L 557.498805 143.880419 
L 557.790599 144.278776 
L 558.082393 144.477955 
L 558.374188 145.234729 
L 558.665982 145.274408 
L 558.957776 142.605729 
L 559.249571 142.565789 
L 559.541365 143.282884 
L 559.833159 145.03555 
L 560.416748 145.194789 
L 560.708542 143.920098 
L 561.000337 141.331038 
L 561.583926 142.605729 
L 562.167514 144.637193 
L 562.459309 145.792325 
L 562.751103 146.111062 
L 563.334692 147.067015 
L 563.626486 147.067015 
L 564.501869 149.616135 
L 565.085458 150.890826 
L 565.669047 151.329123 
L 565.960841 151.528301 
L 566.54443 152.802731 
L 567.128018 153.479886 
L 567.419813 153.161409 
L 567.711607 153.479886 
L 568.003401 154.117362 
L 568.58699 139.419133 
L 568.878784 135.87412 
L 570.045962 140.972621 
L 570.337756 141.05224 
L 570.629551 139.697931 
L 570.921345 141.370978 
L 572.380317 146.190682 
L 572.672111 144.915991 
L 573.2557 146.628718 
L 573.547494 146.788217 
L 573.839289 148.341706 
L 574.131083 148.341706 
L 574.422877 148.93898 
L 574.714672 148.700123 
L 575.006466 149.895194 
L 575.29826 149.775635 
L 576.465438 152.523933 
L 577.049027 153.400267 
L 577.632615 154.555398 
L 577.92441 154.4361 
L 578.216204 153.878243 
L 578.507998 154.754576 
L 578.799793 155.152934 
L 579.091587 155.192874 
L 579.383381 154.4361 
L 579.96697 155.392052 
L 580.258764 155.67085 
L 580.550559 156.586863 
L 581.134148 156.666482 
L 582.301325 157.981112 
L 582.593119 158.21997 
L 582.884914 158.25991 
L 583.760297 159.295482 
L 584.052091 159.295482 
L 584.343885 159.454982 
L 584.63568 155.750469 
L 584.927474 155.989327 
L 585.219269 155.033374 
L 585.511063 153.161409 
L 585.802857 153.798624 
L 586.094652 154.117362 
L 586.67824 155.192874 
L 586.970035 155.431731 
L 587.261829 154.4361 
L 587.553623 149.934873 
L 587.845418 149.456897 
L 588.137212 146.708337 
L 588.429006 126.672749 
L 588.720801 125.079321 
L 589.012595 121.414749 
L 589.30439 124.999702 
L 589.887978 121.813106 
L 590.179773 122.450321 
L 590.471567 119.582463 
L 592.805922 137.507228 
L 593.389511 138.781918 
L 593.681305 140.375085 
L 593.973099 140.932681 
L 594.264894 141.05224 
L 594.848482 143.123645 
L 595.140277 144.198896 
L 595.723865 144.278776 
L 596.01566 143.282884 
L 596.599249 145.234729 
L 596.891043 145.593146 
L 597.182837 145.672765 
L 597.766426 147.425432 
L 598.05822 147.624611 
L 598.350015 148.859361 
L 598.933603 149.656075 
L 599.225398 149.297658 
L 599.517192 149.616135 
L 599.808986 150.612028 
L 600.100781 151.209564 
L 600.392575 151.528301 
L 600.68437 149.09848 
L 600.976164 148.97892 
L 601.267958 148.660182 
L 601.559753 147.983028 
L 601.851547 148.341706 
L 602.143341 148.301765 
L 603.894107 150.33323 
L 604.185902 149.934873 
L 604.477696 150.173992 
L 604.769491 150.930766 
L 605.061285 150.970445 
L 606.228462 151.846778 
L 607.39564 153.161409 
L 607.687434 153.838564 
L 607.979228 153.479886 
L 608.562817 155.710529 
L 608.854612 152.882611 
L 609.146406 153.479886 
L 609.4382 154.356219 
L 609.729995 154.4361 
L 610.021789 155.192874 
L 610.313583 154.4361 
L 610.605378 155.431731 
L 610.897172 155.67085 
L 611.188966 156.308065 
L 611.772555 93.372601 
L 612.356144 113.966045 
L 612.647938 120.498736 
L 612.939733 123.446213 
L 613.523321 131.452513 
L 613.815116 130.815298 
L 614.10691 110.69983 
L 614.398704 108.230329 
L 614.690499 113.209271 
L 614.982293 110.341413 
L 615.274087 101.020483 
L 615.857676 111.974521 
L 616.149471 113.488069 
L 616.441265 100.383268 
L 616.733059 106.477662 
L 617.024854 106.477662 
L 617.608442 115.121176 
L 617.900237 118.984927 
L 618.192031 120.936772 
L 618.483825 123.685332 
L 618.77562 117.869736 
L 619.359208 123.80463 
L 619.942797 128.226238 
L 620.234592 127.549083 
L 620.526386 128.823773 
L 620.81818 128.624595 
L 621.693563 134.320632 
L 621.985358 135.674941 
L 622.277152 133.922275 
L 622.568946 129.779726 
L 622.860741 132.647584 
L 623.444329 135.913799 
L 623.736124 134.718989 
L 624.027918 134.280692 
L 624.611507 137.507228 
L 624.903301 132.050048 
L 625.195096 132.408465 
L 625.48689 133.961954 
L 625.778684 132.727203 
L 626.070479 134.240751 
L 626.654067 134.360311 
L 626.945862 134.917906 
L 627.237656 92.775065 
L 627.52945 94.647291 
L 628.113039 106.437722 
L 628.404834 106.358103 
L 628.696628 96.837994 
L 629.280217 107.154817 
L 630.739188 120.299558 
L 631.030983 119.263725 
L 631.614571 123.446213 
L 631.906366 123.80463 
L 632.19816 125.676857 
L 632.489955 123.486154 
L 632.781749 123.844571 
L 633.073543 121.135951 
L 633.365338 124.322547 
L 634.240721 129.14225 
L 634.532515 129.859345 
L 635.407898 133.922275 
L 635.991487 135.595061 
L 636.283281 136.112978 
L 636.575076 129.819405 
L 636.86687 132.408465 
L 637.158664 133.802715 
L 637.450459 134.280692 
L 637.742253 136.232537 
L 638.034047 137.22843 
L 638.325842 137.825704 
L 638.617636 137.546907 
L 639.201225 133.643477 
L 639.493019 131.054156 
L 639.784814 125.716797 
L 640.076608 84.131551 
L 640.368402 79.670265 
L 640.660197 90.265624 
L 640.951991 80.38736 
L 641.243785 93.133743 
L 641.827374 107.433615 
L 642.119168 112.611735 
L 642.410963 115.718712 
L 642.702757 116.435807 
L 643.286346 122.769059 
L 643.57814 124.999702 
L 643.869935 125.955654 
L 644.453523 129.460988 
L 644.745318 129.819405 
L 645.037112 118.58657 
L 645.328906 117.31214 
L 645.620701 120.897093 
L 645.912495 118.945248 
L 646.204289 123.087796 
L 646.787878 127.270285 
L 647.079672 126.911607 
L 647.955056 132.129668 
L 648.830439 135.595061 
L 649.122233 136.192597 
L 649.414027 137.865644 
L 649.705822 137.22843 
L 650.28941 139.379193 
L 650.581205 140.375085 
L 650.872999 140.335145 
L 651.456588 142.326931 
L 651.748382 142.565789 
L 652.331971 144.238836 
L 652.623765 144.198896 
L 652.91556 145.274408 
L 653.207354 145.911884 
L 653.499148 146.031443 
L 654.082737 147.305873 
L 654.374531 147.544991 
L 654.666326 148.660182 
L 654.95812 148.620503 
L 655.249914 149.337337 
L 655.541709 149.616135 
L 655.833503 147.903408 
L 656.125298 149.297658 
L 656.417092 149.616135 
L 656.708886 150.572349 
L 657.000681 150.572349 
L 657.876064 152.205456 
L 658.167858 152.444314 
L 658.459652 152.92229 
L 658.751447 152.484254 
L 659.043241 152.842671 
L 659.335036 150.213671 
L 659.62683 148.700123 
L 659.918624 144.159217 
L 660.210419 128.823773 
L 661.085802 133.006001 
L 661.377596 130.456881 
L 661.66939 117.511319 
L 661.961185 113.249211 
L 662.252979 113.249211 
L 662.544773 114.722819 
L 662.836568 117.31214 
L 663.128362 112.810914 
L 663.420157 114.205164 
L 664.003745 118.66645 
L 665.170923 124.362487 
L 665.462717 125.637178 
L 665.754511 119.622403 
L 666.046306 106.118984 
L 666.629894 115.439914 
L 666.921689 115.798331 
L 667.213483 118.58657 
L 667.505278 110.73977 
L 667.797072 106.358103 
L 668.088866 59.793916 
L 668.380661 69.71212 
L 668.672455 71.345228 
L 668.964249 82.458504 
L 669.256044 86.999409 
L 669.547838 94.368494 
L 670.423221 106.796139 
L 670.715015 104.605436 
L 671.00681 96.599137 
L 671.298604 97.117053 
L 671.590399 102.573971 
L 671.882193 104.924174 
L 672.173987 103.370686 
L 672.465782 105.242912 
L 672.757576 104.326638 
L 673.04937 106.477662 
L 673.632959 113.806807 
L 673.924753 113.010092 
L 674.216548 110.062615 
L 674.508342 113.488069 
L 674.800136 110.301473 
L 675.091931 110.142234 
L 675.383725 113.727187 
L 675.67552 111.576163 
L 675.967314 105.481769 
L 676.259108 106.158924 
L 676.550903 101.618019 
L 676.842697 101.498459 
L 677.134491 96.917875 
L 677.426286 98.710221 
L 677.71808 105.561389 
L 678.009874 107.792032 
L 678.301669 111.93458 
L 678.885258 116.475486 
L 679.177052 115.041557 
L 679.760641 119.224046 
L 680.052435 120.418856 
L 680.344229 122.490261 
L 680.636024 122.450321 
L 680.927818 124.680964 
L 681.511407 126.871928 
L 682.38679 130.695739 
L 682.678584 130.735679 
L 682.970379 127.230345 
L 683.845762 131.412834 
L 684.137556 132.727203 
L 684.42935 133.444298 
L 684.721145 134.639109 
L 685.012939 134.957846 
L 685.304733 135.79424 
L 685.596528 137.148549 
L 686.180116 137.706406 
L 686.471911 130.456881 
L 687.0555 133.006001 
L 687.347294 133.643477 
L 687.930883 136.630894 
L 688.806266 139.020776 
L 689.389854 140.574264 
L 689.681649 140.534324 
L 689.973443 140.295466 
L 690.265237 141.530217 
L 690.557032 142.207372 
L 690.848826 142.286991 
L 691.140621 144.159217 
L 691.432415 143.242943 
L 691.724209 143.960038 
L 692.016004 132.089988 
L 692.307798 126.951547 
L 692.599592 128.505035 
L 692.891387 124.043749 
L 693.474975 127.588762 
L 694.058564 131.452513 
L 694.350358 129.739786 
L 694.642153 129.18219 
L 694.933947 112.253318 
L 695.225742 111.536223 
L 695.517536 101.339221 
L 696.392919 116.395867 
L 696.684713 118.546891 
L 696.976508 114.802699 
L 697.268302 114.483962 
L 697.560096 117.033343 
L 697.851891 117.471379 
L 698.435479 122.450321 
L 699.019068 126.035274 
L 699.602657 128.465095 
L 700.186246 130.775358 
L 700.769834 133.08562 
L 701.353423 135.276584 
L 702.520601 137.467287 
L 702.812395 137.786025 
L 703.104189 138.821597 
L 703.395984 138.980836 
L 703.687778 138.46318 
L 704.271367 139.697931 
L 704.563161 140.693823 
L 705.14675 132.687524 
L 705.438544 130.775358 
L 705.730338 133.364679 
L 706.022133 133.24512 
L 706.313927 135.276584 
L 707.18931 137.666466 
L 707.481105 135.037466 
L 708.064693 137.268109 
L 709.815459 141.05224 
L 710.107254 141.968514 
L 710.399048 141.928574 
L 710.690843 138.781918 
L 710.982637 112.970413 
L 711.274431 113.209271 
L 711.566226 118.984927 
L 712.149814 124.760844 
L 712.441609 127.588762 
L 713.025197 130.456881 
L 713.316992 129.26181 
L 713.90058 107.433615 
L 714.192375 107.114877 
L 714.484169 113.169331 
L 714.775964 114.882319 
L 715.067758 107.194496 
L 715.359552 111.576163 
L 715.651347 112.810914 
L 715.943141 112.611735 
L 716.234935 107.473294 
L 716.52673 91.181898 
L 716.818524 101.41884 
L 717.693907 113.209271 
L 717.985701 86.680932 
L 718.277496 98.152625 
L 718.56929 101.060423 
L 718.861085 96.24072 
L 719.444673 106.876019 
L 719.736468 110.620211 
L 720.028262 111.018568 
L 720.320056 114.165224 
L 720.611851 100.383268 
L 720.903645 106.557281 
L 721.487234 112.890533 
L 721.779028 114.444021 
L 722.654411 120.179998 
L 723.529794 124.402166 
L 723.821589 124.680964 
L 724.113383 126.632809 
L 724.405177 125.676857 
L 724.988766 128.903393 
L 725.28056 124.402166 
L 725.572355 114.404342 
L 726.447738 123.087796 
L 726.739532 123.406534 
L 727.031327 122.928558 
L 727.323121 124.442106 
L 727.614915 125.079321 
L 727.90671 120.538415 
L 728.198504 122.450321 
L 728.490298 123.446213 
L 729.073887 126.831988 
L 729.657476 128.505035 
L 730.532859 131.771251 
L 731.116448 132.727203 
L 731.408242 132.368786 
L 731.700036 132.687524 
L 732.575419 135.276584 
L 732.867214 135.555382 
L 733.159008 134.838287 
L 733.742597 136.551275 
L 734.326186 136.551275 
L 734.61798 137.148549 
L 734.909774 138.104763 
L 735.201569 138.42324 
L 735.493363 139.060716 
L 736.076952 138.662359 
L 736.952335 141.05224 
L 737.244129 138.741978 
L 737.535923 139.379193 
L 737.827718 140.813122 
L 738.119512 141.1718 
L 738.411307 141.0123 
L 738.703101 142.008193 
L 738.994895 141.331038 
L 739.28669 142.286991 
L 739.578484 142.087812 
L 740.162073 143.282884 
L 740.745661 143.960038 
L 741.037456 143.482062 
L 741.32925 142.645669 
L 741.621045 143.242943 
L 741.912839 130.416941 
L 742.204633 128.943072 
L 742.496428 129.221869 
L 742.788222 131.412834 
L 743.080016 127.588762 
L 743.371811 127.94744 
L 743.663605 127.230345 
L 743.955399 126.911607 
L 744.247194 112.572056 
L 745.122577 120.857153 
L 745.414371 115.121176 
L 745.706166 86.91979 
L 745.99796 96.320339 
L 746.289754 99.466995 
L 746.581549 100.383268 
L 746.873343 105.760567 
L 747.165137 108.747985 
L 747.456932 110.261794 
L 748.332315 118.228153 
L 748.624109 120.897093 
L 748.915903 121.853046 
L 749.207698 120.857153 
L 750.374875 127.668381 
L 750.958464 130.018584 
L 751.542053 131.73131 
L 752.125641 133.961954 
L 752.417436 134.679049 
L 752.70923 134.280692 
L 753.292819 129.460988 
L 753.876408 133.284799 
L 754.168202 134.639109 
L 754.751791 135.913799 
L 755.335379 117.670557 
L 755.627174 112.930473 
L 755.918968 115.240736 
L 756.502557 110.261794 
L 756.794351 111.655783 
L 757.086145 114.842379 
L 757.37794 110.978628 
L 757.961529 117.39176 
L 758.253323 120.339237 
L 758.545117 120.538415 
L 758.836912 121.21557 
L 759.712295 96.559197 
L 760.587678 110.062615 
L 761.171266 116.993402 
L 761.754855 120.777534 
L 762.04665 122.530201 
L 762.338444 123.326654 
L 762.630238 117.989295 
L 762.922033 120.219938 
L 763.213827 118.905308 
L 763.505621 115.718712 
L 763.797416 117.073022 
L 764.381004 122.171523 
L 764.672799 122.808999 
L 764.964593 125.079321 
L 765.256388 126.314071 
L 765.548182 124.680964 
L 765.839976 126.075214 
L 766.131771 122.012284 
L 766.423565 124.322547 
L 766.715359 125.079321 
L 767.590742 129.14225 
L 767.882537 130.058524 
L 768.174331 130.49656 
L 768.466125 132.408465 
L 769.049714 133.961954 
L 769.633303 135.316263 
L 769.925097 135.117085 
L 770.216892 135.595061 
L 770.80048 137.22843 
L 771.092275 137.825704 
L 771.384069 138.144442 
L 771.967658 139.339514 
L 772.259452 140.295466 
L 772.843041 141.05224 
L 773.134835 141.370978 
L 773.42663 141.968514 
L 773.718424 142.247312 
L 774.010218 141.609836 
L 774.302013 140.614204 
L 774.593807 140.653883 
L 774.885601 140.932681 
L 775.760984 142.685348 
L 776.052779 142.884526 
L 776.344573 141.928574 
L 776.636367 118.268093 
L 777.219956 124.680964 
L 777.803545 128.823773 
L 778.387134 131.73131 
L 778.678928 133.08562 
L 778.970722 133.643477 
L 779.554311 135.674941 
L 779.846105 132.727203 
L 780.721488 136.192597 
L 781.013283 137.148549 
L 781.305077 135.196965 
L 781.596872 136.830073 
L 781.888666 131.771251 
L 782.18046 131.412834 
L 782.472255 128.584655 
L 782.764049 127.588762 
L 783.055843 116.555105 
L 783.347638 118.268093 
L 783.639432 118.905308 
L 783.931226 120.538415 
L 784.223021 119.94088 
L 784.514815 121.056332 
L 785.098404 86.640992 
L 785.681993 101.339221 
L 785.973787 103.330746 
L 786.84917 113.528009 
L 787.432759 118.387652 
L 787.724553 119.224046 
L 788.016347 121.135951 
L 788.308142 121.25551 
L 788.599936 122.450321 
L 788.891731 124.123368 
L 789.183525 122.808999 
L 789.475319 125.039642 
L 790.058908 127.588762 
L 790.350702 127.86756 
L 790.642497 125.637178 
L 790.934291 118.347712 
L 791.226085 119.303665 
L 792.101468 111.257426 
L 792.393263 87.318147 
L 792.685057 87.318147 
L 793.56044 101.976436 
L 793.852235 106.039365 
L 794.144029 87.596945 
L 794.435823 84.091611 
L 794.727618 82.219646 
L 795.019412 81.821289 
L 795.603001 90.225945 
L 796.186589 96.559197 
L 796.478384 97.515149 
L 796.770178 99.148518 
L 797.645561 108.389568 
L 797.937356 109.982735 
L 798.22915 100.701745 
L 798.520944 98.511042 
L 798.812739 98.78984 
L 799.104533 103.330746 
L 799.396327 105.282591 
L 799.979916 111.376985 
L 800.27171 106.517341 
L 800.563505 109.982735 
L 800.855299 109.943056 
L 801.147094 96.519518 
L 801.438888 93.731279 
L 801.730682 61.148225 
L 802.314271 82.100087 
L 802.606065 87.039349 
L 802.89786 75.248918 
L 803.189654 73.496252 
L 803.481448 69.433322 
L 803.773243 70.708013 
L 804.065037 72.619918 
L 804.356831 77.997217 
L 804.648626 46.370377 
L 804.94042 26.932064 
L 805.232215 26.692946 
L 805.817323 56.886117 
L 806.106078 61.068606 
L 806.402432 70.946871 
L 806.691186 75.129359 
L 807.276295 86.401873 
L 807.56505 87.557005 
L 807.861403 93.054124 
L 808.150158 93.332922 
L 808.438913 89.50885 
L 808.735267 93.093803 
L 809.320375 101.697638 
L 809.60913 104.924174 
L 809.897885 103.888602 
L 810.194238 106.836079 
L 810.482993 105.282591 
L 810.779347 100.383268 
L 811.068102 101.618019 
L 811.356857 107.154817 
L 811.65321 109.664258 
L 811.941965 100.343328 
L 812.238319 106.238544 
L 812.527074 107.433615 
L 812.815828 111.616104 
L 813.112182 113.129652 
L 813.400937 112.173699 
L 813.69729 114.085604 
L 813.986045 116.754284 
L 814.2748 117.033343 
L 814.571154 119.224046 
L 814.859909 120.259618 
L 815.445017 123.446213 
L 815.733772 121.454689 
L 816.030126 116.714605 
L 816.615234 121.534308 
L 816.903989 122.450321 
L 817.192744 124.720904 
L 817.489097 125.955654 
L 817.777852 126.194773 
L 818.074206 125.756476 
L 818.651716 129.14225 
L 818.948069 130.058524 
L 819.236824 130.49656 
L 819.533178 132.328846 
L 820.407041 134.001894 
L 820.695796 135.276584 
L 820.992149 135.83418 
L 821.280904 136.869752 
L 821.569659 137.427608 
L 821.866013 138.303681 
L 822.154768 137.786025 
L 822.451121 139.020776 
L 823.910093 142.605729 
L 824.198848 135.635001 
L 824.487603 134.679049 
L 824.783956 135.196965 
L 825.072711 137.148549 
L 825.369065 134.957846 
L 825.65782 135.83418 
L 826.242928 138.42324 
L 826.531683 138.821597 
L 827.7019 142.008193 
L 828.575763 143.840479 
L 828.864518 143.920098 
L 830.034735 146.190682 
L 830.32349 145.792325 
L 830.908598 147.106694 
L 831.204952 147.305873 
L 831.493707 148.461004 
L 831.782462 148.620503 
L 832.952679 150.29329 
L 833.241433 148.580563 
L 833.537787 141.0123 
L 833.826542 139.020776 
L 834.700405 143.322824 
L 835.581867 145.792325 
L 835.870622 146.429539 
L 836.159377 146.708337 
L 836.455731 147.385492 
L 836.744485 147.70423 
L 837.040839 148.620503 
L 837.914702 149.974813 
L 838.203457 140.653883 
L 838.499811 139.379193 
L 839.077321 141.570157 
L 839.373674 137.18849 
L 839.662429 129.221869 
L 840.247538 130.257702 
L 840.832646 134.957846 
L 841.417755 137.786025 
L 841.706509 137.427608 
L 841.995264 133.922275 
L 842.291618 135.595061 
L 842.580373 134.280692 
L 843.165481 135.87412 
L 843.454236 135.555382 
L 844.039344 131.412834 
L 844.335698 115.639093 
L 844.624453 111.576163 
L 844.913208 110.580271 
L 845.209561 97.47547 
L 846.083425 78.594753 
L 846.37218 84.808706 
L 846.668533 81.024575 
L 846.957288 81.183813 
L 847.253642 77.758359 
L 847.542397 65.529631 
L 847.831151 68.676548 
L 848.127505 63.856845 
L 848.712613 47.007592 
L 849.001368 58.439606 
L 849.290123 56.60732 
L 849.586477 50.234128 
L 849.875232 55.372308 
L 850.46034 80.2678 
L 850.749095 80.865336 
L 851.045449 89.588469 
L 851.630557 88.911314 
L 851.919312 95.404065 
L 852.208067 98.78984 
L 852.50442 100.343328 
L 852.793175 102.613912 
L 853.089529 101.299281 
L 853.378284 105.561389 
L 853.667038 106.955639 
L 853.963392 107.752353 
L 854.548501 114.563581 
L 854.837255 116.117069 
L 855.12601 111.93458 
L 855.711119 117.989295 
L 856.007472 115.599153 
L 856.296227 116.395867 
L 856.584982 118.427331 
L 856.881336 119.224046 
L 857.466444 121.892725 
L 857.755199 119.901201 
L 858.043954 121.21557 
L 858.340308 123.406534 
L 858.629062 123.406534 
L 859.214171 126.632809 
L 859.502926 125.437999 
L 860.088034 128.385476 
L 860.961897 131.452513 
L 861.258251 132.328846 
L 861.84336 130.456881 
L 862.132114 130.416941 
L 862.717223 133.723096 
L 863.879841 137.18849 
L 864.176195 137.06893 
L 864.46495 137.905585 
L 864.761303 138.343621 
L 865.050058 139.857169 
L 865.338813 140.415026 
L 865.635166 140.693823 
L 865.923921 139.697931 
L 866.220275 140.653883 
L 866.50903 140.813122 
L 866.797785 141.968514 
L 867.094138 142.605729 
L 867.382893 142.884526 
L 867.679247 141.370978 
L 867.968002 136.511335 
L 868.256756 136.869752 
L 868.55311 138.383561 
L 869.138219 139.060716 
L 869.426973 140.773443 
L 869.715728 140.972621 
L 870.012082 142.008193 
L 870.300837 142.048133 
L 870.59719 142.286991 
L 870.885945 142.964146 
L 871.1747 143.004086 
L 871.471054 143.203264 
L 872.056162 143.880419 
L 872.344917 142.964146 
L 873.21878 143.920098 
L 874.092644 145.553206 
L 874.677752 146.190682 
L 874.974106 146.827896 
L 875.262861 146.708337 
L 875.551615 146.987396 
L 875.847969 147.067015 
L 876.433077 147.70423 
L 876.721832 146.788217 
L 877.595696 147.74417 
L 877.892049 146.34992 
L 878.180804 143.561681 
L 878.469559 144.159217 
L 878.765913 144.198896 
L 879.639776 145.871944 
L 879.928531 146.38986 
L 880.224884 146.429539 
L 880.513639 146.668658 
L 880.809993 134.639109 
L 881.387503 136.869752 
L 881.683856 137.18849 
L 882.268965 138.821597 
L 882.557719 138.064823 
L 883.142828 139.976728 
L 883.727936 141.370978 
L 884.016691 140.415026 
L 884.305446 141.609836 
L 885.764418 143.920098 
L 886.060772 144.557574 
L 886.349526 144.876051 
L 886.64588 144.915991 
L 886.934635 145.712705 
L 887.22339 145.871944 
L 887.519743 146.50942 
L 887.808498 145.15511 
L 888.104852 145.473587 
L 888.682361 146.947456 
L 888.978715 146.708337 
L 889.26747 147.067015 
L 889.852578 147.027075 
L 890.141333 147.305873 
L 890.437687 148.142527 
L 890.726442 147.74417 
L 891.022795 148.222146 
L 891.31155 146.708337 
L 891.896659 146.38986 
L 892.185414 145.871944 
L 892.481767 142.207372 
L 892.770522 132.089988 
L 893.059277 129.221869 
L 893.35563 128.903393 
L 893.644385 127.270285 
L 894.229494 112.213378 
L 894.518249 109.38546 
L 894.814602 49.397474 
L 895.103357 50.512926 
L 895.399711 53.500343 
L 896.273574 74.253026 
L 896.858683 71.225668 
L 897.147437 66.167107 
L 897.732546 47.32633 
L 898.021301 45.494044 
L 898.317654 54.615534 
L 898.606409 50.234128 
L 899.191518 58.917582 
L 899.480272 57.563272 
L 899.776626 66.485584 
L 900.065381 51.468878 
L 900.650489 63.02019 
L 900.939244 69.154525 
L 902.109461 84.21117 
L 902.69457 86.043456 
L 902.983325 89.269992 
L 903.272079 88.035242 
L 903.568433 91.460696 
L 903.857188 92.456588 
L 904.442296 70.070537 
L 904.731051 70.747692 
L 905.027405 72.659858 
L 905.31616 82.817182 
L 905.612513 84.729087 
L 905.901268 88.831695 
L 906.190023 90.066707 
L 907.071485 97.555089 
L 907.36024 99.427316 
L 907.648995 90.86316 
L 907.945348 92.416648 
L 908.234103 96.360018 
L 908.530457 97.754268 
L 908.819212 100.383268 
L 909.107967 97.196672 
L 909.693075 94.966029 
L 909.989429 87.915683 
L 910.278184 90.464803 
L 910.566938 83.852753 
L 910.863292 86.800231 
L 911.152047 77.280383 
L 911.4484 77.997217 
L 912.02591 88.23416 
L 912.322264 86.91979 
L 912.611019 84.450289 
L 913.196127 94.687232 
L 913.781236 95.921982 
L 914.06999 92.655767 
L 914.366344 97.316232 
L 914.655099 98.550982 
L 914.943854 101.060423 
L 915.240207 102.016376 
L 915.528962 101.697638 
L 915.825316 102.335114 
L 916.699179 108.389568 
L 916.987934 108.907484 
L 917.284288 108.947163 
L 917.861797 111.576163 
L 917.861797 111.576163 
" clip-path="url(#pfbb9159af5)" style="fill: none; stroke: #2563eb; stroke-opacity: 0.95; stroke-width: 0.936; stroke-linecap: square"/>
   </g>
   <g id="patch_23">
    <path d="M 33.604375 228.954713 
L 33.604375 17.061433 
" style="fill: none; stroke: #cbd5e1; stroke-width: 0.8; stroke-linejoin: miter; stroke-linecap: square"/>
   </g>
   <g id="patch_24">
    <path d="M 935.316875 228.954713 
L 935.316875 17.061433 
" style="fill: none; stroke: #cbd5e1; stroke-width: 0.8; stroke-linejoin: miter; stroke-linecap: square"/>
   </g>
   <g id="patch_25">
    <path d="M 33.604375 228.954713 
L 935.316875 228.954713 
" style="fill: none; stroke: #cbd5e1; stroke-width: 0.8; stroke-linejoin: miter; stroke-linecap: square"/>
   </g>
   <g id="patch_26">
    <path d="M 33.604375 17.061433 
L 935.316875 17.061433 
" style="fill: none; stroke: #cbd5e1; stroke-width: 0.8; stroke-linejoin: miter; stroke-linecap: square"/>
   </g>
   <g id="text_19">
    <!-- ACC -->
    <g style="fill: #475569" transform="translate(116.537612 13.27875) scale(0.08 -0.08)">
     <defs>
      <path id="DejaVuSans-43" d="M 4122 4306 
L 4122 3641 
Q 3803 3938 3442 4084 
Q 3081 4231 2675 4231 
Q 1875 4231 1450 3742 
Q 1025 3253 1025 2328 
Q 1025 1406 1450 917 
Q 1875 428 2675 428 
Q 3081 428 3442 575 
Q 3803 722 4122 1019 
L 4122 359 
Q 3791 134 3420 21 
Q 3050 -91 2638 -91 
Q 1578 -91 968 557 
Q 359 1206 359 2328 
Q 359 3453 968 4101 
Q 1578 4750 2638 4750 
Q 3056 4750 3426 4639 
Q 3797 4528 4122 4306 
z
" transform="scale(0.015625)"/>
     </defs>
     <use xlink:href="#DejaVuSans-41"/>
     <use xlink:href="#DejaVuSans-43" transform="translate(66.658203 0)"/>
     <use xlink:href="#DejaVuSans-43" transform="translate(136.482422 0)"/>
    </g>
   </g>
   <g id="text_20">
    <!-- OC -->
    <g style="fill: #475569" transform="translate(223.711834 13.27875) scale(0.08 -0.08)">
     <defs>
      <path id="DejaVuSans-4f" d="M 2522 4238 
Q 1834 4238 1429 3725 
Q 1025 3213 1025 2328 
Q 1025 1447 1429 934 
Q 1834 422 2522 422 
Q 3209 422 3611 934 
Q 4013 1447 4013 2328 
Q 4013 3213 3611 3725 
Q 3209 4238 2522 4238 
z
M 2522 4750 
Q 3503 4750 4090 4092 
Q 4678 3434 4678 2328 
Q 4678 1225 4090 567 
Q 3503 -91 2522 -91 
Q 1538 -91 948 565 
Q 359 1222 359 2328 
Q 359 3434 948 4092 
Q 1538 4750 2522 4750 
z
" transform="scale(0.015625)"/>
     </defs>
     <use xlink:href="#DejaVuSans-4f"/>
     <use xlink:href="#DejaVuSans-43" transform="translate(78.710938 0)"/>
    </g>
   </g>
   <g id="text_21">
    <!-- FCS -->
    <g style="fill: #475569" transform="translate(249.376305 13.27875) scale(0.08 -0.08)">
     <defs>
      <path id="DejaVuSans-46" d="M 628 4666 
L 3309 4666 
L 3309 4134 
L 1259 4134 
L 1259 2759 
L 3109 2759 
L 3109 2228 
L 1259 2228 
L 1259 0 
L 628 0 
L 628 4666 
z
" transform="scale(0.015625)"/>
      <path id="DejaVuSans-53" d="M 3425 4513 
L 3425 3897 
Q 3066 4069 2747 4153 
Q 2428 4238 2131 4238 
Q 1616 4238 1336 4038 
Q 1056 3838 1056 3469 
Q 1056 3159 1242 3001 
Q 1428 2844 1947 2747 
L 2328 2669 
Q 3034 2534 3370 2195 
Q 3706 1856 3706 1288 
Q 3706 609 3251 259 
Q 2797 -91 1919 -91 
Q 1588 -91 1214 -16 
Q 841 59 441 206 
L 441 856 
Q 825 641 1194 531 
Q 1563 422 1919 422 
Q 2459 422 2753 634 
Q 3047 847 3047 1241 
Q 3047 1584 2836 1778 
Q 2625 1972 2144 2069 
L 1759 2144 
Q 1053 2284 737 2584 
Q 422 2884 422 3419 
Q 422 4038 858 4394 
Q 1294 4750 2059 4750 
Q 2388 4750 2728 4690 
Q 3069 4631 3425 4513 
z
" transform="scale(0.015625)"/>
     </defs>
     <use xlink:href="#DejaVuSans-46"/>
     <use xlink:href="#DejaVuSans-43" transform="translate(57.519531 0)"/>
     <use xlink:href="#DejaVuSans-53" transform="translate(127.34375 0)"/>
    </g>
   </g>
   <g id="text_22">
    <!-- SR -->
    <g style="fill: #475569" transform="translate(281.326045 13.27875) scale(0.08 -0.08)">
     <defs>
      <path id="DejaVuSans-52" d="M 2841 2188 
Q 3044 2119 3236 1894 
Q 3428 1669 3622 1275 
L 4263 0 
L 3584 0 
L 2988 1197 
Q 2756 1666 2539 1819 
Q 2322 1972 1947 1972 
L 1259 1972 
L 1259 0 
L 628 0 
L 628 4666 
L 2053 4666 
Q 2853 4666 3247 4331 
Q 3641 3997 3641 3322 
Q 3641 2881 3436 2590 
Q 3231 2300 2841 2188 
z
M 1259 4147 
L 1259 2491 
L 2053 2491 
Q 2509 2491 2742 2702 
Q 2975 2913 2975 3322 
Q 2975 3731 2742 3939 
Q 2509 4147 2053 4147 
L 1259 4147 
z
" transform="scale(0.015625)"/>
     </defs>
     <use xlink:href="#DejaVuSans-53"/>
     <use xlink:href="#DejaVuSans-52" transform="translate(63.476562 0)"/>
    </g>
   </g>
   <g id="text_23">
    <!-- FFC -->
    <g style="fill: #475569" transform="translate(318.004358 13.27875) scale(0.08 -0.08)">
     <use xlink:href="#DejaVuSans-46"/>
     <use xlink:href="#DejaVuSans-46" transform="translate(57.519531 0)"/>
     <use xlink:href="#DejaVuSans-43" transform="translate(115.039062 0)"/>
    </g>
   </g>
   <g id="text_24">
    <!-- SS -->
    <g style="fill: #475569" transform="translate(411.50572 13.27875) scale(0.08 -0.08)">
     <use xlink:href="#DejaVuSans-53"/>
     <use xlink:href="#DejaVuSans-53" transform="translate(63.476562 0)"/>
    </g>
   </g>
   <g id="text_25">
    <!-- OC -->
    <g style="fill: #475569" transform="translate(481.311541 13.27875) scale(0.08 -0.08)">
     <use xlink:href="#DejaVuSans-4f"/>
     <use xlink:href="#DejaVuSans-43" transform="translate(78.710938 0)"/>
    </g>
   </g>
   <g id="text_26">
    <!-- FCS -->
    <g style="fill: #475569" transform="translate(504.696369 13.27875) scale(0.08 -0.08)">
     <use xlink:href="#DejaVuSans-46"/>
     <use xlink:href="#DejaVuSans-43" transform="translate(57.519531 0)"/>
     <use xlink:href="#DejaVuSans-53" transform="translate(127.34375 0)"/>
    </g>
   </g>
   <g id="text_27">
    <!-- SR -->
    <g style="fill: #475569" transform="translate(536.646108 13.27875) scale(0.08 -0.08)">
     <use xlink:href="#DejaVuSans-53"/>
     <use xlink:href="#DejaVuSans-52" transform="translate(63.476562 0)"/>
    </g>
   </g>
   <g id="text_28">
    <!-- FFC -->
    <g style="fill: #475569" transform="translate(573.324421 13.27875) scale(0.08 -0.08)">
     <use xlink:href="#DejaVuSans-46"/>
     <use xlink:href="#DejaVuSans-46" transform="translate(57.519531 0)"/>
     <use xlink:href="#DejaVuSans-43" transform="translate(115.039062 0)"/>
    </g>
   </g>
   <g id="text_29">
    <!-- SR -->
    <g style="fill: #475569" transform="translate(605.035411 13.27875) scale(0.08 -0.08)">
     <use xlink:href="#DejaVuSans-53"/>
     <use xlink:href="#DejaVuSans-52" transform="translate(63.476562 0)"/>
    </g>
   </g>
   <g id="text_30">
    <!-- SS -->
    <g style="fill: #475569" transform="translate(669.105427 13.27875) scale(0.08 -0.08)">
     <use xlink:href="#DejaVuSans-53"/>
     <use xlink:href="#DejaVuSans-53" transform="translate(63.476562 0)"/>
    </g>
   </g>
   <g id="text_31">
    <!-- OC -->
    <g style="fill: #475569" transform="translate(736.631605 13.27875) scale(0.08 -0.08)">
     <use xlink:href="#DejaVuSans-4f"/>
     <use xlink:href="#DejaVuSans-43" transform="translate(78.710938 0)"/>
    </g>
   </g>
   <g id="text_32">
    <!-- FCS -->
    <g style="fill: #475569" transform="translate(760.016432 13.27875) scale(0.08 -0.08)">
     <use xlink:href="#DejaVuSans-46"/>
     <use xlink:href="#DejaVuSans-43" transform="translate(57.519531 0)"/>
     <use xlink:href="#DejaVuSans-53" transform="translate(127.34375 0)"/>
    </g>
   </g>
   <g id="text_33">
    <!-- SR -->
    <g style="fill: #475569" transform="translate(791.966172 13.27875) scale(0.08 -0.08)">
     <use xlink:href="#DejaVuSans-53"/>
     <use xlink:href="#DejaVuSans-52" transform="translate(63.476562 0)"/>
    </g>
   </g>
   <g id="text_34">
    <!-- FFC -->
    <g style="fill: #475569" transform="translate(828.644485 13.27875) scale(0.08 -0.08)">
     <use xlink:href="#DejaVuSans-46"/>
     <use xlink:href="#DejaVuSans-46" transform="translate(57.519531 0)"/>
     <use xlink:href="#DejaVuSans-43" transform="translate(115.039062 0)"/>
    </g>
   </g>
   <g id="text_35">
    <!-- SR -->
    <g style="fill: #475569" transform="translate(860.355474 13.27875) scale(0.08 -0.08)">
     <use xlink:href="#DejaVuSans-53"/>
     <use xlink:href="#DejaVuSans-52" transform="translate(63.476562 0)"/>
    </g>
   </g>
   <g id="text_36">
    <!-- SS -->
    <g style="fill: #475569" transform="translate(887.951195 13.27875) scale(0.08 -0.08)">
     <use xlink:href="#DejaVuSans-53"/>
     <use xlink:href="#DejaVuSans-53" transform="translate(63.476562 0)"/>
    </g>
   </g>
   <g id="legend_1">
    <g id="line2d_34">
     <path d="M 889.169375 27.540183 
L 897.169375 27.540183 
L 905.169375 27.540183 
" style="fill: none; stroke: #2563eb; stroke-opacity: 0.95; stroke-width: 1.3; stroke-linecap: square"/>
    </g>
    <g id="text_37">
     <!-- EDA -->
     <g transform="translate(911.569375 30.340183) scale(0.08 -0.08)">
      <use xlink:href="#DejaVuSans-45"/>
      <use xlink:href="#DejaVuSans-44" transform="translate(63.183594 0)"/>
      <use xlink:href="#DejaVuSans-41" transform="translate(138.435547 0)"/>
     </g>
    </g>
   </g>
  </g>
 </g>
 <defs>
  <clipPath id="pfbb9159af5">
   <rect x="33.604375" y="17.061433" width="901.7125" height="211.89328"/>
  </clipPath>
 </defs>
</svg>
