<?xml version="1.0" encoding="utf-8" standalone="no"?>
<!DOCTYPE svg PUBLIC "-//W3C//DTD SVG 1.1//EN"
  "http://www.w3.org/Graphics/SVG/1.1/DTD/svg11.dtd">
<svg xmlns:xlink="http://www.w3.org/1999/xlink" width="942.505625pt" height="265.54315pt" viewBox="0 0 942.505625 265.54315" xmlns="http://www.w3.org/2000/svg" version="1.1">
 <metadata>
  <rdf:RDF xmlns:dc="http://purl.org/dc/elements/1.1/" xmlns:cc="http://creativecommons.org/ns#" xmlns:rdf="http://www.w3.org/1999/02/22-rdf-syntax-ns#">
   <cc:Work>
    <dc:type rdf:resource="http://purl.org/dc/dcmitype/StillImage"/>
    <dc:date>2026-04-17T13:05:00.145236</dc:date>
    <dc:format>image/svg+xml</dc:format>
    <dc:creator>
     <cc:Agent>
      <dc:title>Matplotlib v3.10.8, https://matplotlib.org/</dc:title>
     </cc:Agent>
    </dc:creator>
   </cc:Work>
  </rdf:RDF>
 </metadata>
 <defs>
  <style type="text/css">*{stroke-linejoin: round; stroke-linecap: butt}</style>
 </defs>
 <g id="figure_1">
  <g id="patch_1">
   <path d="M 0 265.54315 
L 942.505625 265.54315 
L 942.505625 0 
L 0 0 
z
" style="fill: #ffffff"/>
  </g>
  <g id="axes_1">
   <g id="patch_2">
    <path d="M 39.330625 228.954713 
L 935.305625 228.954713 
L 935.305625 17.061433 
L 39.330625 17.061433 
z
" style="fill: #ffffff"/>
   </g>
   <g id="patch_3">
    <path d="M 39.330625 228.954713 
L 217.414057 228.954713 
L 217.414057 17.061433 
L 39.330625 17.061433 
z
" clip-path="url(#p5e77931997)" style="fill: #f8fafc; opacity: 0.45"/>
   </g>
   <g id="patch_4">
    <path d="M 217.414057 228.954713 
L 244.372421 228.954713 
L 244.372421 17.061433 
L 217.414057 17.061433 
z
" clip-path="url(#p5e77931997)" style="fill: #eff6ff; opacity: 0.45"/>
   </g>
   <g id="patch_5">
    <path d="M 244.372421 228.954713 
L 271.330784 228.954713 
L 271.330784 17.061433 
L 244.372421 17.061433 
z
" clip-path="url(#p5e77931997)" style="fill: #fef3c7; opacity: 0.45"/>
   </g>
   <g id="patch_6">
    <path d="M 271.330784 228.954713 
L 298.289148 228.954713 
L 298.289148 17.061433 
L 271.330784 17.061433 
z
" clip-path="url(#p5e77931997)" style="fill: #dcfce7; opacity: 0.45"/>
   </g>
   <g id="patch_7">
    <path d="M 298.289148 228.954713 
L 352.205876 228.954713 
L 352.205876 17.061433 
L 298.289148 17.061433 
z
" clip-path="url(#p5e77931997)" style="fill: #fee2e2; opacity: 0.45"/>
   </g>
   <g id="patch_8">
    <path d="M 352.205876 228.954713 
L 361.191997 228.954713 
L 361.191997 17.061433 
L 352.205876 17.061433 
z
" clip-path="url(#p5e77931997)" style="fill: #ede9fe; opacity: 0.45"/>
   </g>
   <g id="patch_9">
    <path d="M 361.191997 228.954713 
L 473.518513 228.954713 
L 473.518513 17.061433 
L 361.191997 17.061433 
z
" clip-path="url(#p5e77931997)" style="fill: #f8fafc; opacity: 0.45"/>
   </g>
   <g id="patch_10">
    <path d="M 473.518513 228.954713 
L 495.983816 228.954713 
L 495.983816 17.061433 
L 473.518513 17.061433 
z
" clip-path="url(#p5e77931997)" style="fill: #eff6ff; opacity: 0.45"/>
   </g>
   <g id="patch_11">
    <path d="M 495.983816 228.954713 
L 522.94218 228.954713 
L 522.94218 17.061433 
L 495.983816 17.061433 
z
" clip-path="url(#p5e77931997)" style="fill: #fef3c7; opacity: 0.45"/>
   </g>
   <g id="patch_12">
    <path d="M 522.94218 228.954713 
L 554.393604 228.954713 
L 554.393604 17.061433 
L 522.94218 17.061433 
z
" clip-path="url(#p5e77931997)" style="fill: #dcfce7; opacity: 0.45"/>
   </g>
   <g id="patch_13">
    <path d="M 554.393604 228.954713 
L 603.817271 228.954713 
L 603.817271 17.061433 
L 554.393604 17.061433 
z
" clip-path="url(#p5e77931997)" style="fill: #fee2e2; opacity: 0.45"/>
   </g>
   <g id="patch_14">
    <path d="M 603.817271 228.954713 
L 612.803393 228.954713 
L 612.803393 17.061433 
L 603.817271 17.061433 
z
" clip-path="url(#p5e77931997)" style="fill: #ede9fe; opacity: 0.45"/>
   </g>
   <g id="patch_15">
    <path d="M 612.803393 228.954713 
L 725.129909 228.954713 
L 725.129909 17.061433 
L 612.803393 17.061433 
z
" clip-path="url(#p5e77931997)" style="fill: #f8fafc; opacity: 0.45"/>
   </g>
   <g id="patch_16">
    <path d="M 725.129909 228.954713 
L 747.595212 228.954713 
L 747.595212 17.061433 
L 725.129909 17.061433 
z
" clip-path="url(#p5e77931997)" style="fill: #eff6ff; opacity: 0.45"/>
   </g>
   <g id="patch_17">
    <path d="M 747.595212 228.954713 
L 774.553576 228.954713 
L 774.553576 17.061433 
L 747.595212 17.061433 
z
" clip-path="url(#p5e77931997)" style="fill: #fef3c7; opacity: 0.45"/>
   </g>
   <g id="patch_18">
    <path d="M 774.553576 228.954713 
L 819.484182 228.954713 
L 819.484182 17.061433 
L 774.553576 17.061433 
z
" clip-path="url(#p5e77931997)" style="fill: #dcfce7; opacity: 0.45"/>
   </g>
   <g id="patch_19">
    <path d="M 819.484182 228.954713 
L 864.414788 228.954713 
L 864.414788 17.061433 
L 819.484182 17.061433 
z
" clip-path="url(#p5e77931997)" style="fill: #fee2e2; opacity: 0.45"/>
   </g>
   <g id="patch_20">
    <path d="M 864.414788 228.954713 
L 873.40091 228.954713 
L 873.40091 17.061433 
L 864.414788 17.061433 
z
" clip-path="url(#p5e77931997)" style="fill: #ede9fe; opacity: 0.45"/>
   </g>
   <g id="patch_21">
    <path d="M 873.40091 228.954713 
L 913.838455 228.954713 
L 913.838455 17.061433 
L 873.40091 17.061433 
z
" clip-path="url(#p5e77931997)" style="fill: #f8fafc; opacity: 0.45"/>
   </g>
   <g id="patch_22">
    <path d="M 913.838455 228.954713 
L 918.331516 228.954713 
L 918.331516 17.061433 
L 913.838455 17.061433 
z
" clip-path="url(#p5e77931997)" style="fill: #eff6ff; opacity: 0.45"/>
   </g>
   <g id="matplotlib.axis_1">
    <g id="xtick_1">
     <g id="line2d_1">
      <path d="M 150.018147 228.954713 
L 150.018147 17.061433 
" clip-path="url(#p5e77931997)" style="fill: none; stroke: #eef2f7; stroke-width: 0.55; stroke-linecap: square"/>
     </g>
     <g id="line2d_2">
      <defs>
       <path id="mb37f19b719" d="M 0 0 
L 0 3.5 
" style="stroke: #000000; stroke-width: 0.8"/>
      </defs>
      <g>
       <use xlink:href="#mb37f19b719" x="150.018147" y="228.954713" style="stroke: #000000; stroke-width: 0.8"/>
      </g>
     </g>
     <g id="text_1">
      <!-- 25 -->
      <g transform="translate(144.291897 242.793307) scale(0.09 -0.09)">
       <defs>
        <path id="DejaVuSans-32" d="M 1228 531 
L 3431 531 
L 3431 0 
L 469 0 
L 469 531 
Q 828 903 1448 1529 
Q 2069 2156 2228 2338 
Q 2531 2678 2651 2914 
Q 2772 3150 2772 3378 
Q 2772 3750 2511 3984 
Q 2250 4219 1831 4219 
Q 1534 4219 1204 4116 
Q 875 4013 500 3803 
L 500 4441 
Q 881 4594 1212 4672 
Q 1544 4750 1819 4750 
Q 2544 4750 2975 4387 
Q 3406 4025 3406 3419 
Q 3406 3131 3298 2873 
Q 3191 2616 2906 2266 
Q 2828 2175 2409 1742 
Q 1991 1309 1228 531 
z
" transform="scale(0.015625)"/>
        <path id="DejaVuSans-35" d="M 691 4666 
L 3169 4666 
L 3169 4134 
L 1269 4134 
L 1269 2991 
Q 1406 3038 1543 3061 
Q 1681 3084 1819 3084 
Q 2600 3084 3056 2656 
Q 3513 2228 3513 1497 
Q 3513 744 3044 326 
Q 2575 -91 1722 -91 
Q 1428 -91 1123 -41 
Q 819 9 494 109 
L 494 744 
Q 775 591 1075 516 
Q 1375 441 1709 441 
Q 2250 441 2565 725 
Q 2881 1009 2881 1497 
Q 2881 1984 2565 2268 
Q 2250 2553 1709 2553 
Q 1456 2553 1204 2497 
Q 953 2441 691 2322 
L 691 4666 
z
" transform="scale(0.015625)"/>
       </defs>
       <use xlink:href="#DejaVuSans-32"/>
       <use xlink:href="#DejaVuSans-35" transform="translate(63.623047 0)"/>
      </g>
     </g>
    </g>
    <g id="xtick_2">
     <g id="line2d_3">
      <path d="M 262.344663 228.954713 
L 262.344663 17.061433 
" clip-path="url(#p5e77931997)" style="fill: none; stroke: #eef2f7; stroke-width: 0.55; stroke-linecap: square"/>
     </g>
     <g id="line2d_4">
      <g>
       <use xlink:href="#mb37f19b719" x="262.344663" y="228.954713" style="stroke: #000000; stroke-width: 0.8"/>
      </g>
     </g>
     <g id="text_2">
      <!-- 50 -->
      <g transform="translate(256.618413 242.793307) scale(0.09 -0.09)">
       <defs>
        <path id="DejaVuSans-30" d="M 2034 4250 
Q 1547 4250 1301 3770 
Q 1056 3291 1056 2328 
Q 1056 1369 1301 889 
Q 1547 409 2034 409 
Q 2525 409 2770 889 
Q 3016 1369 3016 2328 
Q 3016 3291 2770 3770 
Q 2525 4250 2034 4250 
z
M 2034 4750 
Q 2819 4750 3233 4129 
Q 3647 3509 3647 2328 
Q 3647 1150 3233 529 
Q 2819 -91 2034 -91 
Q 1250 -91 836 529 
Q 422 1150 422 2328 
Q 422 3509 836 4129 
Q 1250 4750 2034 4750 
z
" transform="scale(0.015625)"/>
       </defs>
       <use xlink:href="#DejaVuSans-35"/>
       <use xlink:href="#DejaVuSans-30" transform="translate(63.623047 0)"/>
      </g>
     </g>
    </g>
    <g id="xtick_3">
     <g id="line2d_5">
      <path d="M 374.671179 228.954713 
L 374.671179 17.061433 
" clip-path="url(#p5e77931997)" style="fill: none; stroke: #eef2f7; stroke-width: 0.55; stroke-linecap: square"/>
     </g>
     <g id="line2d_6">
      <g>
       <use xlink:href="#mb37f19b719" x="374.671179" y="228.954713" style="stroke: #000000; stroke-width: 0.8"/>
      </g>
     </g>
     <g id="text_3">
      <!-- 75 -->
      <g transform="translate(368.944929 242.793307) scale(0.09 -0.09)">
       <defs>
        <path id="DejaVuSans-37" d="M 525 4666 
L 3525 4666 
L 3525 4397 
L 1831 0 
L 1172 0 
L 2766 4134 
L 525 4134 
L 525 4666 
z
" transform="scale(0.015625)"/>
       </defs>
       <use xlink:href="#DejaVuSans-37"/>
       <use xlink:href="#DejaVuSans-35" transform="translate(63.623047 0)"/>
      </g>
     </g>
    </g>
    <g id="xtick_4">
     <g id="line2d_7">
      <path d="M 486.997695 228.954713 
L 486.997695 17.061433 
" clip-path="url(#p5e77931997)" style="fill: none; stroke: #eef2f7; stroke-width: 0.55; stroke-linecap: square"/>
     </g>
     <g id="line2d_8">
      <g>
       <use xlink:href="#mb37f19b719" x="486.997695" y="228.954713" style="stroke: #000000; stroke-width: 0.8"/>
      </g>
     </g>
     <g id="text_4">
      <!-- 100 -->
      <g transform="translate(478.40832 242.793307) scale(0.09 -0.09)">
       <defs>
        <path id="DejaVuSans-31" d="M 794 531 
L 1825 531 
L 1825 4091 
L 703 3866 
L 703 4441 
L 1819 4666 
L 2450 4666 
L 2450 531 
L 3481 531 
L 3481 0 
L 794 0 
L 794 531 
z
" transform="scale(0.015625)"/>
       </defs>
       <use xlink:href="#DejaVuSans-31"/>
       <use xlink:href="#DejaVuSans-30" transform="translate(63.623047 0)"/>
       <use xlink:href="#DejaVuSans-30" transform="translate(127.246094 0)"/>
      </g>
     </g>
    </g>
    <g id="xtick_5">
     <g id="line2d_9">
      <path d="M 599.324211 228.954713 
L 599.324211 17.061433 
" clip-path="url(#p5e77931997)" style="fill: none; stroke: #eef2f7; stroke-width: 0.55; stroke-linecap: square"/>
     </g>
     <g id="line2d_10">
      <g>
       <use xlink:href="#mb37f19b719" x="599.324211" y="228.954713" style="stroke: #000000; stroke-width: 0.8"/>
      </g>
     </g>
     <g id="text_5">
      <!-- 125 -->
      <g transform="translate(590.734836 242.793307) scale(0.09 -0.09)">
       <use xlink:href="#DejaVuSans-31"/>
       <use xlink:href="#DejaVuSans-32" transform="translate(63.623047 0)"/>
       <use xlink:href="#DejaVuSans-35" transform="translate(127.246094 0)"/>
      </g>
     </g>
    </g>
    <g id="xtick_6">
     <g id="line2d_11">
      <path d="M 711.650727 228.954713 
L 711.650727 17.061433 
" clip-path="url(#p5e77931997)" style="fill: none; stroke: #eef2f7; stroke-width: 0.55; stroke-linecap: square"/>
     </g>
     <g id="line2d_12">
      <g>
       <use xlink:href="#mb37f19b719" x="711.650727" y="228.954713" style="stroke: #000000; stroke-width: 0.8"/>
      </g>
     </g>
     <g id="text_6">
      <!-- 150 -->
      <g transform="translate(703.061352 242.793307) scale(0.09 -0.09)">
       <use xlink:href="#DejaVuSans-31"/>
       <use xlink:href="#DejaVuSans-35" transform="translate(63.623047 0)"/>
       <use xlink:href="#DejaVuSans-30" transform="translate(127.246094 0)"/>
      </g>
     </g>
    </g>
    <g id="xtick_7">
     <g id="line2d_13">
      <path d="M 823.977243 228.954713 
L 823.977243 17.061433 
" clip-path="url(#p5e77931997)" style="fill: none; stroke: #eef2f7; stroke-width: 0.55; stroke-linecap: square"/>
     </g>
     <g id="line2d_14">
      <g>
       <use xlink:href="#mb37f19b719" x="823.977243" y="228.954713" style="stroke: #000000; stroke-width: 0.8"/>
      </g>
     </g>
     <g id="text_7">
      <!-- 175 -->
      <g transform="translate(815.387868 242.793307) scale(0.09 -0.09)">
       <use xlink:href="#DejaVuSans-31"/>
       <use xlink:href="#DejaVuSans-37" transform="translate(63.623047 0)"/>
       <use xlink:href="#DejaVuSans-35" transform="translate(127.246094 0)"/>
      </g>
     </g>
    </g>
    <g id="text_8">
     <!-- Minutes since session start -->
     <g transform="translate(419.728281 256.263463) scale(0.1 -0.1)">
      <defs>
       <path id="DejaVuSans-4d" d="M 628 4666 
L 1569 4666 
L 2759 1491 
L 3956 4666 
L 4897 4666 
L 4897 0 
L 4281 0 
L 4281 4097 
L 3078 897 
L 2444 897 
L 1241 4097 
L 1241 0 
L 628 0 
L 628 4666 
z
" transform="scale(0.015625)"/>
       <path id="DejaVuSans-69" d="M 603 3500 
L 1178 3500 
L 1178 0 
L 603 0 
L 603 3500 
z
M 603 4863 
L 1178 4863 
L 1178 4134 
L 603 4134 
L 603 4863 
z
" transform="scale(0.015625)"/>
       <path id="DejaVuSans-6e" d="M 3513 2113 
L 3513 0 
L 2938 0 
L 2938 2094 
Q 2938 2591 2744 2837 
Q 2550 3084 2163 3084 
Q 1697 3084 1428 2787 
Q 1159 2491 1159 1978 
L 1159 0 
L 581 0 
L 581 3500 
L 1159 3500 
L 1159 2956 
Q 1366 3272 1645 3428 
Q 1925 3584 2291 3584 
Q 2894 3584 3203 3211 
Q 3513 2838 3513 2113 
z
" transform="scale(0.015625)"/>
       <path id="DejaVuSans-75" d="M 544 1381 
L 544 3500 
L 1119 3500 
L 1119 1403 
Q 1119 906 1312 657 
Q 1506 409 1894 409 
Q 2359 409 2629 706 
Q 2900 1003 2900 1516 
L 2900 3500 
L 3475 3500 
L 3475 0 
L 2900 0 
L 2900 538 
Q 2691 219 2414 64 
Q 2138 -91 1772 -91 
Q 1169 -91 856 284 
Q 544 659 544 1381 
z
M 1991 3584 
L 1991 3584 
z
" transform="scale(0.015625)"/>
       <path id="DejaVuSans-74" d="M 1172 4494 
L 1172 3500 
L 2356 3500 
L 2356 3053 
L 1172 3053 
L 1172 1153 
Q 1172 725 1289 603 
Q 1406 481 1766 481 
L 2356 481 
L 2356 0 
L 1766 0 
Q 1100 0 847 248 
Q 594 497 594 1153 
L 594 3053 
L 172 3053 
L 172 3500 
L 594 3500 
L 594 4494 
L 1172 4494 
z
" transform="scale(0.015625)"/>
       <path id="DejaVuSans-65" d="M 3597 1894 
L 3597 1613 
L 953 1613 
Q 991 1019 1311 708 
Q 1631 397 2203 397 
Q 2534 397 2845 478 
Q 3156 559 3463 722 
L 3463 178 
Q 3153 47 2828 -22 
Q 2503 -91 2169 -91 
Q 1331 -91 842 396 
Q 353 884 353 1716 
Q 353 2575 817 3079 
Q 1281 3584 2069 3584 
Q 2775 3584 3186 3129 
Q 3597 2675 3597 1894 
z
M 3022 2063 
Q 3016 2534 2758 2815 
Q 2500 3097 2075 3097 
Q 1594 3097 1305 2825 
Q 1016 2553 972 2059 
L 3022 2063 
z
" transform="scale(0.015625)"/>
       <path id="DejaVuSans-73" d="M 2834 3397 
L 2834 2853 
Q 2591 2978 2328 3040 
Q 2066 3103 1784 3103 
Q 1356 3103 1142 2972 
Q 928 2841 928 2578 
Q 928 2378 1081 2264 
Q 1234 2150 1697 2047 
L 1894 2003 
Q 2506 1872 2764 1633 
Q 3022 1394 3022 966 
Q 3022 478 2636 193 
Q 2250 -91 1575 -91 
Q 1294 -91 989 -36 
Q 684 19 347 128 
L 347 722 
Q 666 556 975 473 
Q 1284 391 1588 391 
Q 1994 391 2212 530 
Q 2431 669 2431 922 
Q 2431 1156 2273 1281 
Q 2116 1406 1581 1522 
L 1381 1569 
Q 847 1681 609 1914 
Q 372 2147 372 2553 
Q 372 3047 722 3315 
Q 1072 3584 1716 3584 
Q 2034 3584 2315 3537 
Q 2597 3491 2834 3397 
z
" transform="scale(0.015625)"/>
       <path id="DejaVuSans-20" transform="scale(0.015625)"/>
       <path id="DejaVuSans-63" d="M 3122 3366 
L 3122 2828 
Q 2878 2963 2633 3030 
Q 2388 3097 2138 3097 
Q 1578 3097 1268 2742 
Q 959 2388 959 1747 
Q 959 1106 1268 751 
Q 1578 397 2138 397 
Q 2388 397 2633 464 
Q 2878 531 3122 666 
L 3122 134 
Q 2881 22 2623 -34 
Q 2366 -91 2075 -91 
Q 1284 -91 818 406 
Q 353 903 353 1747 
Q 353 2603 823 3093 
Q 1294 3584 2113 3584 
Q 2378 3584 2631 3529 
Q 2884 3475 3122 3366 
z
" transform="scale(0.015625)"/>
       <path id="DejaVuSans-6f" d="M 1959 3097 
Q 1497 3097 1228 2736 
Q 959 2375 959 1747 
Q 959 1119 1226 758 
Q 1494 397 1959 397 
Q 2419 397 2687 759 
Q 2956 1122 2956 1747 
Q 2956 2369 2687 2733 
Q 2419 3097 1959 3097 
z
M 1959 3584 
Q 2709 3584 3137 3096 
Q 3566 2609 3566 1747 
Q 3566 888 3137 398 
Q 2709 -91 1959 -91 
Q 1206 -91 779 398 
Q 353 888 353 1747 
Q 353 2609 779 3096 
Q 1206 3584 1959 3584 
z
" transform="scale(0.015625)"/>
       <path id="DejaVuSans-61" d="M 2194 1759 
Q 1497 1759 1228 1600 
Q 959 1441 959 1056 
Q 959 750 1161 570 
Q 1363 391 1709 391 
Q 2188 391 2477 730 
Q 2766 1069 2766 1631 
L 2766 1759 
L 2194 1759 
z
M 3341 1997 
L 3341 0 
L 2766 0 
L 2766 531 
Q 2569 213 2275 61 
Q 1981 -91 1556 -91 
Q 1019 -91 701 211 
Q 384 513 384 1019 
Q 384 1609 779 1909 
Q 1175 2209 1959 2209 
L 2766 2209 
L 2766 2266 
Q 2766 2663 2505 2880 
Q 2244 3097 1772 3097 
Q 1472 3097 1187 3025 
Q 903 2953 641 2809 
L 641 3341 
Q 956 3463 1253 3523 
Q 1550 3584 1831 3584 
Q 2591 3584 2966 3190 
Q 3341 2797 3341 1997 
z
" transform="scale(0.015625)"/>
       <path id="DejaVuSans-72" d="M 2631 2963 
Q 2534 3019 2420 3045 
Q 2306 3072 2169 3072 
Q 1681 3072 1420 2755 
Q 1159 2438 1159 1844 
L 1159 0 
L 581 0 
L 581 3500 
L 1159 3500 
L 1159 2956 
Q 1341 3275 1631 3429 
Q 1922 3584 2338 3584 
Q 2397 3584 2469 3576 
Q 2541 3569 2628 3553 
L 2631 2963 
z
" transform="scale(0.015625)"/>
      </defs>
      <use xlink:href="#DejaVuSans-4d"/>
      <use xlink:href="#DejaVuSans-69" transform="translate(86.279297 0)"/>
      <use xlink:href="#DejaVuSans-6e" transform="translate(114.0625 0)"/>
      <use xlink:href="#DejaVuSans-75" transform="translate(177.441406 0)"/>
      <use xlink:href="#DejaVuSans-74" transform="translate(240.820312 0)"/>
      <use xlink:href="#DejaVuSans-65" transform="translate(280.029297 0)"/>
      <use xlink:href="#DejaVuSans-73" transform="translate(341.552734 0)"/>
      <use xlink:href="#DejaVuSans-20" transform="translate(393.652344 0)"/>
      <use xlink:href="#DejaVuSans-73" transform="translate(425.439453 0)"/>
      <use xlink:href="#DejaVuSans-69" transform="translate(477.539062 0)"/>
      <use xlink:href="#DejaVuSans-6e" transform="translate(505.322266 0)"/>
      <use xlink:href="#DejaVuSans-63" transform="translate(568.701172 0)"/>
      <use xlink:href="#DejaVuSans-65" transform="translate(623.681641 0)"/>
      <use xlink:href="#DejaVuSans-20" transform="translate(685.205078 0)"/>
      <use xlink:href="#DejaVuSans-73" transform="translate(716.992188 0)"/>
      <use xlink:href="#DejaVuSans-65" transform="translate(769.091797 0)"/>
      <use xlink:href="#DejaVuSans-73" transform="translate(830.615234 0)"/>
      <use xlink:href="#DejaVuSans-73" transform="translate(882.714844 0)"/>
      <use xlink:href="#DejaVuSans-69" transform="translate(934.814453 0)"/>
      <use xlink:href="#DejaVuSans-6f" transform="translate(962.597656 0)"/>
      <use xlink:href="#DejaVuSans-6e" transform="translate(1023.779297 0)"/>
      <use xlink:href="#DejaVuSans-20" transform="translate(1087.158203 0)"/>
      <use xlink:href="#DejaVuSans-73" transform="translate(1118.945312 0)"/>
      <use xlink:href="#DejaVuSans-74" transform="translate(1171.044922 0)"/>
      <use xlink:href="#DejaVuSans-61" transform="translate(1210.253906 0)"/>
      <use xlink:href="#DejaVuSans-72" transform="translate(1271.533203 0)"/>
      <use xlink:href="#DejaVuSans-74" transform="translate(1312.646484 0)"/>
     </g>
    </g>
   </g>
   <g id="matplotlib.axis_2">
    <g id="ytick_1">
     <g id="line2d_15">
      <path d="M 39.330625 219.336317 
L 935.305625 219.336317 
" clip-path="url(#p5e77931997)" style="fill: none; stroke: #eef2f7; stroke-opacity: 0.25; stroke-width: 0.55; stroke-linecap: square"/>
     </g>
     <g id="line2d_16">
      <defs>
       <path id="m578732f842" d="M 0 0 
L -3.5 0 
" style="stroke: #000000; stroke-width: 0.8"/>
      </defs>
      <g>
       <use xlink:href="#m578732f842" x="39.330625" y="219.336317" style="stroke: #000000; stroke-width: 0.8"/>
      </g>
     </g>
     <g id="text_9">
      <!-- 0 -->
      <g transform="translate(26.604375 222.755614) scale(0.09 -0.09)">
       <use xlink:href="#DejaVuSans-30"/>
      </g>
     </g>
    </g>
    <g id="ytick_2">
     <g id="line2d_17">
      <path d="M 39.330625 176.370474 
L 935.305625 176.370474 
" clip-path="url(#p5e77931997)" style="fill: none; stroke: #eef2f7; stroke-opacity: 0.25; stroke-width: 0.55; stroke-linecap: square"/>
     </g>
     <g id="line2d_18">
      <g>
       <use xlink:href="#m578732f842" x="39.330625" y="176.370474" style="stroke: #000000; stroke-width: 0.8"/>
      </g>
     </g>
     <g id="text_10">
      <!-- 5 -->
      <g transform="translate(26.604375 179.789771) scale(0.09 -0.09)">
       <use xlink:href="#DejaVuSans-35"/>
      </g>
     </g>
    </g>
    <g id="ytick_3">
     <g id="line2d_19">
      <path d="M 39.330625 133.404631 
L 935.305625 133.404631 
" clip-path="url(#p5e77931997)" style="fill: none; stroke: #eef2f7; stroke-opacity: 0.25; stroke-width: 0.55; stroke-linecap: square"/>
     </g>
     <g id="line2d_20">
      <g>
       <use xlink:href="#m578732f842" x="39.330625" y="133.404631" style="stroke: #000000; stroke-width: 0.8"/>
      </g>
     </g>
     <g id="text_11">
      <!-- 10 -->
      <g transform="translate(20.878125 136.823928) scale(0.09 -0.09)">
       <use xlink:href="#DejaVuSans-31"/>
       <use xlink:href="#DejaVuSans-30" transform="translate(63.623047 0)"/>
      </g>
     </g>
    </g>
    <g id="ytick_4">
     <g id="line2d_21">
      <path d="M 39.330625 90.438789 
L 935.305625 90.438789 
" clip-path="url(#p5e77931997)" style="fill: none; stroke: #eef2f7; stroke-opacity: 0.25; stroke-width: 0.55; stroke-linecap: square"/>
     </g>
     <g id="line2d_22">
      <g>
       <use xlink:href="#m578732f842" x="39.330625" y="90.438789" style="stroke: #000000; stroke-width: 0.8"/>
      </g>
     </g>
     <g id="text_12">
      <!-- 15 -->
      <g transform="translate(20.878125 93.858086) scale(0.09 -0.09)">
       <use xlink:href="#DejaVuSans-31"/>
       <use xlink:href="#DejaVuSans-35" transform="translate(63.623047 0)"/>
      </g>
     </g>
    </g>
    <g id="ytick_5">
     <g id="line2d_23">
      <path d="M 39.330625 47.472946 
L 935.305625 47.472946 
" clip-path="url(#p5e77931997)" style="fill: none; stroke: #eef2f7; stroke-opacity: 0.25; stroke-width: 0.55; stroke-linecap: square"/>
     </g>
     <g id="line2d_24">
      <g>
       <use xlink:href="#m578732f842" x="39.330625" y="47.472946" style="stroke: #000000; stroke-width: 0.8"/>
      </g>
     </g>
     <g id="text_13">
      <!-- 20 -->
      <g transform="translate(20.878125 50.892243) scale(0.09 -0.09)">
       <use xlink:href="#DejaVuSans-32"/>
       <use xlink:href="#DejaVuSans-30" transform="translate(63.623047 0)"/>
      </g>
     </g>
    </g>
    <g id="text_14">
     <!-- EDA (microsiemens) -->
     <g transform="translate(14.798438 173.642448) rotate(-90) scale(0.1 -0.1)">
      <defs>
       <path id="DejaVuSans-45" d="M 628 4666 
L 3578 4666 
L 3578 4134 
L 1259 4134 
L 1259 2753 
L 3481 2753 
L 3481 2222 
L 1259 2222 
L 1259 531 
L 3634 531 
L 3634 0 
L 628 0 
L 628 4666 
z
" transform="scale(0.015625)"/>
       <path id="DejaVuSans-44" d="M 1259 4147 
L 1259 519 
L 2022 519 
Q 2988 519 3436 956 
Q 3884 1394 3884 2338 
Q 3884 3275 3436 3711 
Q 2988 4147 2022 4147 
L 1259 4147 
z
M 628 4666 
L 1925 4666 
Q 3281 4666 3915 4102 
Q 4550 3538 4550 2338 
Q 4550 1131 3912 565 
Q 3275 0 1925 0 
L 628 0 
L 628 4666 
z
" transform="scale(0.015625)"/>
       <path id="DejaVuSans-41" d="M 2188 4044 
L 1331 1722 
L 3047 1722 
L 2188 4044 
z
M 1831 4666 
L 2547 4666 
L 4325 0 
L 3669 0 
L 3244 1197 
L 1141 1197 
L 716 0 
L 50 0 
L 1831 4666 
z
" transform="scale(0.015625)"/>
       <path id="DejaVuSans-28" d="M 1984 4856 
Q 1566 4138 1362 3434 
Q 1159 2731 1159 2009 
Q 1159 1288 1364 580 
Q 1569 -128 1984 -844 
L 1484 -844 
Q 1016 -109 783 600 
Q 550 1309 550 2009 
Q 550 2706 781 3412 
Q 1013 4119 1484 4856 
L 1984 4856 
z
" transform="scale(0.015625)"/>
       <path id="DejaVuSans-6d" d="M 3328 2828 
Q 3544 3216 3844 3400 
Q 4144 3584 4550 3584 
Q 5097 3584 5394 3201 
Q 5691 2819 5691 2113 
L 5691 0 
L 5113 0 
L 5113 2094 
Q 5113 2597 4934 2840 
Q 4756 3084 4391 3084 
Q 3944 3084 3684 2787 
Q 3425 2491 3425 1978 
L 3425 0 
L 2847 0 
L 2847 2094 
Q 2847 2600 2669 2842 
Q 2491 3084 2119 3084 
Q 1678 3084 1418 2786 
Q 1159 2488 1159 1978 
L 1159 0 
L 581 0 
L 581 3500 
L 1159 3500 
L 1159 2956 
Q 1356 3278 1631 3431 
Q 1906 3584 2284 3584 
Q 2666 3584 2933 3390 
Q 3200 3197 3328 2828 
z
" transform="scale(0.015625)"/>
       <path id="DejaVuSans-29" d="M 513 4856 
L 1013 4856 
Q 1481 4119 1714 3412 
Q 1947 2706 1947 2009 
Q 1947 1309 1714 600 
Q 1481 -109 1013 -844 
L 513 -844 
Q 928 -128 1133 580 
Q 1338 1288 1338 2009 
Q 1338 2731 1133 3434 
Q 928 4138 513 4856 
z
" transform="scale(0.015625)"/>
      </defs>
      <use xlink:href="#DejaVuSans-45"/>
      <use xlink:href="#DejaVuSans-44" transform="translate(63.183594 0)"/>
      <use xlink:href="#DejaVuSans-41" transform="translate(138.435547 0)"/>
      <use xlink:href="#DejaVuSans-20" transform="translate(206.84375 0)"/>
      <use xlink:href="#DejaVuSans-28" transform="translate(238.630859 0)"/>
      <use xlink:href="#DejaVuSans-6d" transform="translate(277.644531 0)"/>
      <use xlink:href="#DejaVuSans-69" transform="translate(375.056641 0)"/>
      <use xlink:href="#DejaVuSans-63" transform="translate(402.839844 0)"/>
      <use xlink:href="#DejaVuSans-72" transform="translate(457.820312 0)"/>
      <use xlink:href="#DejaVuSans-6f" transform="translate(496.683594 0)"/>
      <use xlink:href="#DejaVuSans-73" transform="translate(557.865234 0)"/>
      <use xlink:href="#DejaVuSans-69" transform="translate(609.964844 0)"/>
      <use xlink:href="#DejaVuSans-65" transform="translate(637.748047 0)"/>
      <use xlink:href="#DejaVuSans-6d" transform="translate(699.271484 0)"/>
      <use xlink:href="#DejaVuSans-65" transform="translate(796.683594 0)"/>
      <use xlink:href="#DejaVuSans-6e" transform="translate(858.207031 0)"/>
      <use xlink:href="#DejaVuSans-73" transform="translate(921.585938 0)"/>
      <use xlink:href="#DejaVuSans-29" transform="translate(973.685547 0)"/>
     </g>
    </g>
   </g>
   <g id="line2d_25">
    <path d="M 56.560913 162.324768 
L 56.848469 159.79408 
L 57.136025 161.197087 
L 57.423581 140.6766 
L 57.711137 133.202692 
L 57.998693 128.679248 
L 58.286249 129.911508 
L 58.573805 120.496833 
L 59.148916 113.233028 
L 59.436472 108.617637 
L 59.724028 113.639484 
L 60.011584 115.841914 
L 60.29914 110.295883 
L 60.586696 107.961978 
L 61.161808 99.56989 
L 61.449363 106.074059 
L 61.736919 97.564244 
L 62.024475 95.348066 
L 62.312031 94.718187 
L 62.599587 102.087688 
L 62.887143 102.061049 
L 63.174699 99.87151 
L 63.462255 96.540798 
L 63.74981 98.586831 
L 64.037366 90.627838 
L 64.324922 88.844756 
L 64.612478 93.879493 
L 64.900034 87.887477 
L 65.18759 89.788286 
L 65.475146 94.168224 
L 65.762702 92.398031 
L 66.050258 91.781042 
L 66.337813 92.633484 
L 66.625369 89.356049 
L 66.912925 96.619855 
L 67.200481 93.6956 
L 67.488037 93.06658 
L 67.775593 96.186759 
L 68.350705 92.398031 
L 68.63826 97.144038 
L 68.925816 99.228741 
L 69.213372 82.930937 
L 69.500928 92.607704 
L 70.363596 105.142559 
L 70.651152 105.326453 
L 70.938707 104.932886 
L 71.226263 102.848183 
L 71.513819 92.398031 
L 71.801375 100.933625 
L 72.088931 105.43129 
L 72.376487 101.759429 
L 72.664043 102.100578 
L 72.951599 101.563505 
L 73.239155 97.564244 
L 73.52671 99.54411 
L 73.814266 96.698912 
L 74.101822 100.606226 
L 74.389378 101.563505 
L 74.676934 101.851376 
L 74.96449 96.397292 
L 75.252046 103.753044 
L 75.539602 102.100578 
L 75.827157 99.54411 
L 76.114713 91.361695 
L 76.402269 91.872988 
L 76.689825 90.077016 
L 76.977381 89.159266 
L 77.264937 96.567436 
L 77.552493 99.779563 
L 77.840049 92.201247 
L 78.127605 88.201987 
L 78.41516 89.473776 
L 78.990272 86.326957 
L 79.277828 85.147115 
L 79.565384 85.277732 
L 79.85294 79.928484 
L 80.140496 77.699416 
L 80.428052 72.63804 
L 80.715607 74.892887 
L 81.003163 63.616932 
L 81.290719 74.513069 
L 81.865831 86.418904 
L 82.153387 65.937087 
L 82.440943 59.984599 
L 82.728499 51.30464 
L 83.016054 54.988531 
L 83.30361 65.544379 
L 83.591166 52.641737 
L 83.878722 66.724221 
L 84.453834 47.816673 
L 84.74139 63.066109 
L 85.028946 71.575924 
L 85.604057 65.22901 
L 85.891613 57.598276 
L 86.179169 67.602443 
L 86.466725 71.260555 
L 86.754281 70.434752 
L 88.767172 88.516497 
L 89.054728 84.359981 
L 89.342284 86.628578 
L 89.62984 90.339108 
L 89.917396 83.455121 
L 90.204951 89.473776 
L 90.492507 69.267799 
L 90.780063 82.747043 
L 91.067619 87.690693 
L 91.355175 86.090645 
L 91.642731 87.376183 
L 91.930287 91.034295 
L 92.217843 62.751599 
L 92.505399 55.461155 
L 92.792954 69.058126 
L 93.08051 71.260555 
L 93.655622 63.512095 
L 93.943178 63.603182 
L 94.51829 73.817882 
L 94.805846 73.411425 
L 95.093401 73.463843 
L 95.380957 75.902585 
L 95.668513 60.299109 
L 96.243625 74.840469 
L 96.531181 78.2236 
L 96.818737 70.749261 
L 97.106293 46.99001 
L 97.393849 68.31052 
L 97.681404 74.81469 
L 97.96896 77.89534 
L 98.256516 40.656844 
L 98.544072 63.196726 
L 98.831628 70.369443 
L 99.119184 68.100847 
L 99.40674 74.735632 
L 99.694296 71.050882 
L 99.981851 73.044497 
L 100.269407 66.841948 
L 100.556963 65.439543 
L 100.844519 73.371897 
L 101.132075 66.003254 
L 101.419631 73.24128 
L 101.707187 77.27921 
L 101.994743 71.471088 
L 102.282298 71.680761 
L 102.569854 72.95255 
L 102.85741 59.682979 
L 103.144966 73.909829 
L 103.432522 75.456599 
L 104.007634 83.350284 
L 104.29519 86.471323 
L 104.582746 80.597033 
L 104.870301 85.133366 
L 105.157857 76.951811 
L 105.445413 86.601939 
L 105.732969 79.390552 
L 106.020525 81.200273 
L 106.308081 84.110779 
L 106.595637 70.566227 
L 106.883193 82.511591 
L 107.170748 88.280185 
L 107.458304 91.768152 
L 107.74586 90.313328 
L 108.033416 94.535152 
L 108.320972 95.977086 
L 108.608528 99.56989 
L 108.896084 101.065101 
L 109.18364 104.316756 
L 109.471196 105.863526 
L 109.758751 91.663315 
L 110.046307 103.228001 
L 110.621419 110.269244 
L 110.908975 112.498312 
L 111.196531 109.732171 
L 111.484087 111.948349 
L 111.771643 115.252422 
L 112.059198 114.177417 
L 112.346754 114.7016 
L 112.63431 109.981373 
L 112.921866 111.751565 
L 113.209422 115.868552 
L 113.496978 110.492666 
L 113.784534 116.065336 
L 114.359645 121.663785 
L 114.647201 117.979894 
L 114.934757 122.044463 
L 115.222313 123.211415 
L 115.509869 125.610628 
L 115.797425 126.371123 
L 116.660093 132.061519 
L 116.947648 130.370384 
L 117.235204 130.921206 
L 117.810316 134.999094 
L 118.097872 129.006648 
L 118.672984 134.566342 
L 119.248095 126.14856 
L 119.535651 131.392971 
L 120.110763 135.91693 
L 120.398319 137.739455 
L 120.685875 129.636527 
L 120.973431 134.592551 
L 121.548542 138.565603 
L 122.123654 141.738716 
L 122.41121 141.830491 
L 122.698766 143.443257 
L 122.986322 140.847089 
L 123.273878 133.936978 
L 123.84899 138.067285 
L 124.136545 138.342696 
L 124.424101 137.844378 
L 124.999213 140.414337 
L 125.286769 127.039672 
L 125.574325 123.329141 
L 126.436992 131.878485 
L 126.724548 132.993019 
L 127.012104 131.602644 
L 127.587216 134.999094 
L 127.874772 134.881024 
L 128.449884 137.60841 
L 128.73744 139.31295 
L 129.024995 139.404726 
L 129.312551 141.096205 
L 129.600107 141.620732 
L 130.462775 145.632968 
L 130.750331 143.312125 
L 131.037887 122.987993 
L 131.325442 130.383273 
L 131.900554 137.437921 
L 132.763222 143.692373 
L 133.050778 143.076157 
L 133.338334 119.828284 
L 133.625889 129.098595 
L 133.913445 127.984061 
L 134.201001 129.833311 
L 134.776113 135.641519 
L 135.351225 139.82433 
L 135.926337 142.459855 
L 136.501448 116.091115 
L 136.789004 126.594545 
L 137.07656 121.742842 
L 137.364116 124.246892 
L 137.651672 122.385611 
L 137.939228 127.525186 
L 138.226784 108.932147 
L 138.514339 120.929929 
L 138.801895 125.623517 
L 139.377007 130.921206 
L 139.664563 132.153466 
L 139.952119 109.627334 
L 140.239675 109.246657 
L 140.814786 99.25538 
L 141.389898 114.452398 
L 141.677454 115.278202 
L 142.252566 122.896905 
L 142.827678 127.538075 
L 143.115234 122.804958 
L 143.402789 124.28642 
L 143.690345 127.001002 
L 143.977901 122.909795 
L 144.265457 128.063118 
L 144.840569 132.03574 
L 146.278348 140.152159 
L 148.578795 151.63839 
L 150.591686 159.79408 
L 153.179689 167.333555 
L 154.617469 170.677156 
L 155.767692 173.168488 
L 156.055248 174.046967 
L 156.342804 174.204308 
L 156.917916 175.423765 
L 158.068139 177.377508 
L 159.218363 179.357374 
L 159.793475 180.196583 
L 160.08103 178.426476 
L 160.368586 179.173824 
L 160.656142 179.567219 
L 161.231254 180.655544 
L 162.381478 182.006046 
L 162.669033 182.438798 
L 162.956589 182.63541 
L 163.531701 183.395991 
L 164.681925 184.576005 
L 164.96948 184.759641 
L 165.257036 184.340037 
L 165.832148 184.667866 
L 166.40726 185.402066 
L 168.132595 186.765802 
L 168.420151 186.831368 
L 168.707707 187.054275 
L 168.995263 187.434523 
L 169.282819 187.473793 
L 170.433042 188.470343 
L 171.008154 188.404777 
L 172.158377 189.047288 
L 172.445933 189.296404 
L 172.733489 188.273646 
L 173.308601 155.191751 
L 173.596157 138.565603 
L 173.883713 130.370384 
L 174.171269 102.821545 
L 174.458825 94.29884 
L 174.74638 103.464314 
L 175.033936 105.72002 
L 175.321492 99.228741 
L 175.609048 108.81442 
L 175.896604 109.837007 
L 176.18416 112.944297 
L 176.471716 109.889426 
L 177.046827 116.484683 
L 177.621939 121.2178 
L 177.909495 121.742842 
L 178.197051 123.853325 
L 178.484607 121.021876 
L 178.772163 122.057352 
L 179.059719 124.575151 
L 179.347275 121.021876 
L 179.63483 123.079939 
L 180.209942 122.149299 
L 180.497498 125.204171 
L 180.785054 121.112963 
L 181.07261 125.21706 
L 181.647722 126.882417 
L 181.935277 126.16145 
L 182.222833 119.421828 
L 182.510389 125.54532 
L 182.797945 127.223565 
L 183.085501 113.337864 
L 183.373057 122.358973 
L 183.660613 125.54532 
L 183.948169 126.371123 
L 184.52328 122.371862 
L 184.810836 125.728354 
L 185.098392 127.210676 
L 185.673504 105.995002 
L 185.96106 120.496833 
L 186.248616 124.194473 
L 186.536172 126.14856 
L 186.823727 122.673483 
L 187.111283 115.344369 
L 187.398839 122.673483 
L 187.686395 125.021136 
L 187.973951 126.384013 
L 188.261507 119.251683 
L 188.549063 124.981608 
L 188.836619 119.553303 
L 189.124174 125.296118 
L 189.699286 120.300049 
L 189.986842 119.35652 
L 190.274398 121.231549 
L 190.561954 123.959021 
L 190.84951 122.267026 
L 191.137066 124.771934 
L 191.424621 125.099334 
L 191.712177 113.679013 
L 192.287289 121.650896 
L 192.574845 118.988732 
L 192.862401 121.978295 
L 193.149957 123.106578 
L 193.437513 124.705767 
L 193.725069 123.959021 
L 194.012624 119.054899 
L 194.30018 123.014631 
L 194.587736 124.351728 
L 194.875292 122.346083 
L 195.162848 106.309512 
L 195.73796 121.454112 
L 196.600627 127.118729 
L 197.175739 129.295378 
L 197.750851 131.851846 
L 198.613519 135.510473 
L 199.18863 137.529696 
L 199.476186 136.913394 
L 199.763742 137.726394 
L 200.051298 127.328402 
L 200.338854 132.783345 
L 200.62641 134.999094 
L 200.913966 135.838217 
L 201.201521 131.327663 
L 202.064189 134.710621 
L 202.639301 136.46758 
L 202.926857 136.965898 
L 203.214413 137.739455 
L 203.789524 124.588041 
L 204.07708 123.643651 
L 204.364636 126.109031 
L 204.652192 120.444415 
L 204.939748 105.142559 
L 205.227304 115.868552 
L 205.51486 116.589519 
L 205.802416 118.700861 
L 206.089971 110.387829 
L 206.952639 118.582275 
L 207.240195 119.04201 
L 207.527751 113.78385 
L 207.815307 118.162928 
L 208.102863 118.058092 
L 208.390418 116.720995 
L 208.677974 113.574176 
L 208.96553 117.271817 
L 209.828198 120.615419 
L 210.115754 119.854923 
L 210.40331 121.008127 
L 210.690865 119.736338 
L 211.265977 122.346083 
L 211.553533 122.883156 
L 212.703757 126.358233 
L 216.154427 136.034914 
L 216.729539 137.437921 
L 217.017095 136.900332 
L 217.592207 115.435457 
L 217.879763 121.51942 
L 218.167318 123.748488 
L 218.454874 123.959021 
L 218.74243 125.112224 
L 219.029986 116.065336 
L 219.317542 114.884635 
L 219.605098 102.559453 
L 219.892654 105.470818 
L 220.18021 101.878015 
L 220.467765 106.388569 
L 220.755321 109.12893 
L 221.042877 98.193264 
L 221.617989 106.506295 
L 221.905545 107.411156 
L 222.193101 102.284472 
L 222.768212 108.499051 
L 223.343324 112.170912 
L 223.918436 114.68871 
L 224.205992 115.527404 
L 224.493548 116.891139 
L 224.781104 99.661836 
L 225.06866 109.75795 
L 225.356215 108.604747 
L 225.643771 113.245917 
L 226.218883 116.733884 
L 226.793995 118.596024 
L 227.081551 101.444919 
L 227.369107 110.191046 
L 227.656662 113.220138 
L 228.231774 115.973389 
L 228.806886 118.241986 
L 230.244665 123.630762 
L 230.819777 124.719516 
L 231.970001 128.888921 
L 233.982892 134.684412 
L 234.270448 134.448358 
L 234.558004 134.041901 
L 234.845559 135.353132 
L 235.133115 135.746442 
L 235.708227 137.005255 
L 235.995783 137.254371 
L 236.283339 137.005255 
L 236.570895 119.95976 
L 236.858451 126.358233 
L 237.146007 128.076008 
L 237.433562 126.620325 
L 238.008674 128.901811 
L 238.583786 121.650896 
L 238.871342 98.114207 
L 239.158898 85.539823 
L 239.446454 101.878015 
L 239.734009 106.06031 
L 240.021565 106.506295 
L 240.309121 108.368435 
L 240.596677 108.919257 
L 240.884233 89.880233 
L 241.459345 99.56989 
L 241.746901 101.982851 
L 242.034456 76.742137 
L 242.609568 95.465792 
L 242.897124 100.133601 
L 243.759792 106.952281 
L 244.047348 104.945776 
L 244.334904 108.604747 
L 244.622459 104.710323 
L 244.910015 103.386116 
L 245.197571 104.81516 
L 245.772683 110.492666 
L 246.060239 102.926381 
L 246.347795 105.313563 
L 246.635351 101.851376 
L 246.922906 106.283732 
L 247.210462 103.25464 
L 247.785574 110.191046 
L 248.07313 110.269244 
L 248.360686 101.576394 
L 248.648242 109.640224 
L 248.935798 103.123165 
L 249.223354 108.303127 
L 249.510909 111.226523 
L 249.798465 112.708844 
L 250.086021 110.400719 
L 250.373577 109.824118 
L 250.661133 109.74506 
L 250.948689 104.81516 
L 251.236245 109.417661 
L 251.523801 110.68945 
L 251.811356 107.961978 
L 252.098912 110.178156 
L 252.386468 106.074059 
L 252.674024 109.74506 
L 252.96158 111.016849 
L 253.249136 112.891879 
L 253.536692 113.115301 
L 253.824248 113.482229 
L 254.111803 114.884635 
L 254.399359 115.514514 
L 254.686915 108.381325 
L 254.974471 111.63298 
L 255.262027 109.954734 
L 255.549583 113.233028 
L 255.837139 108.905508 
L 256.124695 113.836268 
L 256.412251 115.960499 
L 256.987362 88.818117 
L 257.274918 92.712541 
L 257.562474 99.477943 
L 257.85003 96.632745 
L 258.137586 98.586831 
L 258.712698 106.703079 
L 259.000253 102.835294 
L 259.287809 108.197431 
L 259.575365 110.597503 
L 259.862921 109.561167 
L 260.150477 111.016849 
L 260.438033 99.56989 
L 260.725589 108.800671 
L 261.013145 108.486161 
L 261.3007 107.765194 
L 261.588256 107.345848 
L 261.875812 103.346587 
L 262.163368 102.519924 
L 262.73848 108.394214 
L 263.313592 111.974128 
L 263.601148 103.648207 
L 263.888703 111.240272 
L 264.176259 113.324974 
L 264.463815 111.856402 
L 265.326483 115.449206 
L 265.614039 115.422567 
L 265.901595 113.849158 
L 266.18915 116.471793 
L 266.764262 119.04201 
L 267.051818 120.050848 
L 267.339374 115.973389 
L 267.62693 115.763716 
L 267.914486 118.084731 
L 268.202042 118.674222 
L 268.777153 105.536126 
L 269.064709 108.473272 
L 269.352265 103.88366 
L 269.639821 110.912013 
L 270.214933 114.609653 
L 270.502489 115.658879 
L 270.790045 115.763716 
L 271.0776 112.904769 
L 271.365156 114.832216 
L 271.652712 112.498312 
L 271.940268 115.462096 
L 272.227824 109.75795 
L 272.802936 115.238673 
L 273.090492 112.393475 
L 273.665603 116.891139 
L 273.953159 116.694356 
L 274.240715 118.162928 
L 274.528271 118.596024 
L 274.815827 108.092594 
L 275.390939 111.134576 
L 275.678495 112.275749 
L 275.96605 114.517706 
L 276.253606 115.133836 
L 276.541162 110.400719 
L 276.828718 113.350754 
L 277.116274 104.723213 
L 277.40383 92.398031 
L 277.691386 101.471558 
L 278.266497 109.43055 
L 278.554053 111.121686 
L 278.841609 109.43055 
L 279.129165 95.440013 
L 279.416721 105.037723 
L 279.704277 103.55626 
L 279.991833 108.394214 
L 280.8545 113.115301 
L 281.142056 108.473272 
L 281.429612 107.686137 
L 282.004724 103.661097 
L 282.29228 111.213633 
L 282.867392 115.120947 
L 283.154947 113.665264 
L 283.442503 115.029 
L 283.730059 115.304841 
L 284.592727 117.140341 
L 284.880283 104.316756 
L 285.167839 112.512061 
L 286.605618 117.848418 
L 286.893174 102.008631 
L 287.18073 112.22333 
L 287.468286 114.320923 
L 288.043397 116.392736 
L 288.330953 116.065336 
L 288.618509 91.571368 
L 288.906065 91.964935 
L 289.193621 104.408703 
L 289.481177 108.617637 
L 289.768733 107.568411 
L 290.056289 110.68945 
L 290.918956 115.449206 
L 291.494068 117.429072 
L 291.781624 115.855663 
L 292.356736 106.296622 
L 292.644291 114.111249 
L 292.931847 116.681466 
L 293.219403 117.927476 
L 293.506959 110.400719 
L 294.082071 116.183062 
L 294.657183 108.905508 
L 294.944739 95.557739 
L 295.232294 103.346587 
L 295.807406 106.834554 
L 296.382518 111.345108 
L 296.670074 112.931407 
L 296.95763 110.400719 
L 297.245186 110.073319 
L 297.532741 112.813681 
L 298.107853 115.658879 
L 298.395409 112.053186 
L 298.682965 112.498312 
L 298.970521 109.116041 
L 299.258077 113.088662 
L 299.545633 108.709584 
L 299.833188 113.534648 
L 300.120744 115.396787 
L 300.4083 111.974128 
L 300.695856 110.951541 
L 300.983412 114.583874 
L 301.270968 113.521758 
L 301.558524 113.744321 
L 301.84608 115.61935 
L 302.421191 111.856402 
L 302.708747 114.832216 
L 303.283859 117.429072 
L 304.434083 120.366217 
L 305.009194 120.366217 
L 305.29675 107.555521 
L 305.584306 105.037723 
L 305.871862 114.7016 
L 306.159418 116.930668 
L 306.73453 119.120207 
L 307.022086 118.923424 
L 307.309641 115.540293 
L 307.597197 115.540293 
L 307.884753 116.825831 
L 308.172309 116.825831 
L 308.459865 111.764455 
L 308.747421 115.120947 
L 309.034977 114.504817 
L 309.610088 96.44971 
L 309.897644 109.338604 
L 310.472756 111.436196 
L 310.760312 113.350754 
L 311.047868 114.203196 
L 311.335424 115.449206 
L 311.62298 100.828789 
L 311.910535 99.24249 
L 312.198091 98.691668 
L 312.485647 108.289378 
L 312.773203 108.119233 
L 313.060759 110.610393 
L 313.348315 108.590998 
L 313.635871 112.275749 
L 313.923427 109.75795 
L 314.210983 104.631266 
L 314.786094 108.092594 
L 315.07365 99.465053 
L 315.361206 98.350519 
L 315.648762 104.107083 
L 316.223874 108.171651 
L 316.51143 99.150543 
L 316.798985 105.667602 
L 317.086541 107.345848 
L 317.374097 105.969222 
L 317.661653 84.504346 
L 317.949209 93.144777 
L 318.524321 99.477943 
L 318.811877 94.29884 
L 319.386988 103.765934 
L 319.674544 105.772439 
L 319.9621 103.359477 
L 320.249656 105.667602 
L 320.537212 102.507035 
L 320.824768 96.331124 
L 321.112324 104.605486 
L 321.687435 109.967624 
L 322.837659 114.478178 
L 323.125215 113.429811 
L 323.412771 114.911273 
L 323.700327 109.862787 
L 323.987882 101.786068 
L 324.275438 109.286185 
L 324.562994 112.170912 
L 325.138106 114.09836 
L 325.425662 107.528882 
L 326.000774 113.350754 
L 326.28833 114.504817 
L 326.575885 114.990331 
L 327.150997 116.602409 
L 327.438553 115.960499 
L 327.726109 113.009605 
L 328.013665 115.108057 
L 328.301221 106.414348 
L 328.588777 108.787781 
L 328.876332 112.498312 
L 329.451444 115.409677 
L 329.739 107.765194 
L 330.026556 108.695835 
L 330.314112 103.661097 
L 330.889224 111.345108 
L 331.176779 111.200743 
L 331.464335 112.288638 
L 332.039447 93.905273 
L 332.327003 93.3682 
L 332.614559 104.199029 
L 333.189671 108.171651 
L 333.477227 98.521523 
L 333.764782 101.352972 
L 334.052338 100.396552 
L 334.339894 93.249614 
L 334.62745 101.366721 
L 334.915006 102.835294 
L 335.202562 94.403677 
L 335.490118 89.394719 
L 335.777674 94.627099 
L 336.065229 91.663315 
L 336.352785 86.628578 
L 336.640341 86.628578 
L 336.927897 90.523002 
L 337.215453 85.02853 
L 337.503009 95.033556 
L 337.790565 95.046446 
L 338.078121 96.606965 
L 338.365677 94.338369 
L 338.940788 99.989236 
L 339.228344 101.654592 
L 339.5159 90.207632 
L 339.803456 90.523002 
L 340.091012 81.684928 
L 340.378568 82.091385 
L 340.666124 98.285211 
L 340.953679 99.202961 
L 341.241235 64.220172 
L 341.528791 68.113737 
L 341.816347 73.778353 
L 342.103903 75.588075 
L 342.391459 82.196221 
L 342.679015 82.065605 
L 342.966571 82.747043 
L 343.254126 84.504346 
L 343.541682 86.955977 
L 343.829238 79.993792 
L 344.116794 88.09715 
L 344.40435 89.788286 
L 344.691906 85.972919 
L 344.979462 86.641467 
L 345.267018 91.269748 
L 345.554574 85.985809 
L 346.129685 93.879493 
L 346.417241 83.035774 
L 346.704797 92.830267 
L 346.992353 89.578612 
L 347.279909 89.473776 
L 347.567465 95.348066 
L 347.855021 96.737581 
L 348.142576 94.390787 
L 348.430132 97.786807 
L 348.717688 96.632745 
L 349.005244 91.585117 
L 349.2928 90.523002 
L 349.580356 93.249614 
L 349.867912 98.061788 
L 350.155468 97.07873 
L 350.443023 91.243969 
L 350.730579 97.669081 
L 351.018135 100.055404 
L 351.305691 98.586831 
L 351.593247 101.051352 
L 351.880803 99.661836 
L 352.168359 92.214137 
L 352.455915 100.094932 
L 352.743471 99.439273 
L 353.318582 96.540798 
L 353.606138 99.674726 
L 353.893694 94.731936 
L 354.18125 96.200508 
L 354.468806 98.993288 
L 354.756362 98.167484 
L 355.043918 95.898888 
L 355.331473 99.56989 
L 355.906585 92.096411 
L 356.194141 95.557739 
L 356.481697 96.397292 
L 357.056809 100.960264 
L 357.344365 100.632005 
L 357.631921 103.778824 
L 358.207032 106.506295 
L 358.494588 96.252926 
L 358.782144 103.149804 
L 359.0697 98.101317 
L 359.357256 101.694121 
L 359.644812 101.890904 
L 359.932368 103.490952 
L 360.507479 107.974868 
L 360.795035 107.686137 
L 361.082591 108.617637 
L 361.370147 103.87077 
L 361.657703 107.568411 
L 361.945259 104.211919 
L 362.52037 108.81442 
L 362.807926 99.674726 
L 363.095482 107.345848 
L 363.383038 108.066815 
L 363.670594 105.995002 
L 363.95815 109.784589 
L 364.245706 110.295883 
L 364.533262 111.253162 
L 364.820818 105.457069 
L 365.395929 98.92798 
L 365.683485 100.317495 
L 365.971041 103.372367 
L 366.258597 104.618376 
L 366.546153 106.690189 
L 366.833709 106.519185 
L 367.40882 104.421593 
L 367.696376 103.661097 
L 367.983932 103.359477 
L 368.271488 106.925642 
L 368.559044 108.5128 
L 368.8466 104.723213 
L 369.134156 108.932147 
L 369.421712 102.559453 
L 369.709267 102.402198 
L 369.996823 99.24249 
L 370.284379 102.926381 
L 370.571935 104.723213 
L 370.859491 107.752305 
L 371.434603 109.44344 
L 371.722159 104.828049 
L 372.009715 104.408703 
L 372.29727 104.972415 
L 372.584826 106.519185 
L 372.872382 103.686877 
L 373.159938 104.290117 
L 373.73505 108.604747 
L 374.022606 101.589284 
L 374.310162 106.388569 
L 374.597717 108.289378 
L 374.885273 109.102291 
L 375.172829 110.492666 
L 375.460385 107.961978 
L 375.747941 97.891644 
L 376.323053 108.171651 
L 376.610609 110.191046 
L 376.898165 98.914231 
L 377.18572 104.513539 
L 377.473276 99.019067 
L 377.760832 104.408703 
L 378.048388 104.736102 
L 378.6235 97.38035 
L 379.486167 107.017589 
L 379.773723 107.987757 
L 380.061279 108.52569 
L 380.348835 103.686877 
L 380.636391 102.100578 
L 380.923947 104.224809 
L 381.211503 90.850401 
L 381.499059 100.619115 
L 381.786614 104.81516 
L 382.07417 105.024833 
L 382.361726 104.356284 
L 382.649282 95.767412 
L 382.936838 96.318235 
L 383.224394 104.50065 
L 383.51195 101.786068 
L 383.799506 104.840939 
L 384.087062 105.772439 
L 384.374617 99.24249 
L 384.662173 105.640963 
L 384.949729 105.352233 
L 385.237285 102.100578 
L 385.524841 103.56915 
L 385.812397 104.408703 
L 386.099953 106.834554 
L 386.675064 108.945036 
L 386.96262 102.284472 
L 387.537732 108.919257 
L 387.825288 108.709584 
L 388.112844 111.331359 
L 388.687956 104.513539 
L 388.975512 108.368435 
L 389.263067 101.694121 
L 389.550623 91.585117 
L 389.838179 99.688475 
L 390.125735 99.268269 
L 390.413291 103.25464 
L 390.988403 107.227262 
L 391.563514 109.876536 
L 391.85107 109.220877 
L 392.138626 109.12893 
L 392.426182 110.715229 
L 392.713738 105.588545 
L 393.001294 104.644156 
L 393.28885 104.486901 
L 393.576406 109.036983 
L 393.863961 110.964431 
L 394.151517 110.820066 
L 394.439073 110.912013 
L 394.726629 109.967624 
L 395.014185 111.974128 
L 395.589297 107.738556 
L 395.876853 111.764455 
L 396.164409 113.220138 
L 396.451964 95.885139 
L 396.73952 94.417426 
L 397.027076 104.342535 
L 397.314632 102.100578 
L 397.602188 101.051352 
L 397.889744 133.163163 
L 398.1773 73.738825 
L 398.464856 74.630796 
L 399.039967 81.055908 
L 399.327523 82.511591 
L 399.615079 78.82684 
L 399.902635 79.679282 
L 400.190191 81.134106 
L 400.477747 80.439778 
L 400.765303 83.035774 
L 401.340414 84.963222 
L 401.62797 85.264842 
L 401.915526 86.641467 
L 402.203082 84.137418 
L 402.490638 84.858385 
L 402.778194 80.517976 
L 403.06575 84.451928 
L 403.353306 84.845495 
L 403.640861 76.65019 
L 404.215973 82.52448 
L 404.791085 70.631535 
L 405.078641 73.516262 
L 405.366197 68.835563 
L 405.653753 66.514548 
L 405.941308 71.575924 
L 406.228864 60.024128 
L 406.51642 58.201517 
L 406.803976 33.707549 
L 407.091532 38.546362 
L 407.379088 26.692946 
L 407.666644 39.306858 
L 407.9542 41.942382 
L 408.241756 28.909124 
L 408.529311 41.40445 
L 408.816867 28.777648 
L 409.104423 30.036547 
L 409.391979 40.447171 
L 409.967091 46.570663 
L 410.542203 51.500564 
L 410.829758 53.270757 
L 411.117314 45.915004 
L 411.40487 53.232087 
L 411.692426 55.264372 
L 411.979982 53.808689 
L 412.267538 55.356319 
L 412.555094 59.001541 
L 412.84265 60.862821 
L 413.130205 60.862821 
L 413.417761 56.666777 
L 413.705317 59.145047 
L 413.992873 59.905542 
L 414.280429 62.515287 
L 414.855541 61.794321 
L 415.143097 63.498346 
L 415.718208 30.246221 
L 416.29332 54.634492 
L 416.868432 62.10883 
L 417.155988 64.534682 
L 417.443544 65.583049 
L 417.7311 62.383812 
L 418.018655 54.162728 
L 418.306211 63.708019 
L 419.168879 71.39203 
L 419.456435 72.231583 
L 419.743991 73.673517 
L 420.031547 65.387124 
L 420.319102 69.975876 
L 420.606658 63.066109 
L 420.894214 72.716238 
L 422.044438 80.334941 
L 422.331994 81.462365 
L 422.61955 81.684928 
L 422.907105 83.297866 
L 423.194661 84.005943 
L 423.482217 74.722743 
L 423.769773 73.083166 
L 424.057329 81.186524 
L 424.344885 84.255145 
L 424.632441 85.776135 
L 424.919997 85.147115 
L 425.207552 87.48102 
L 425.495108 87.165651 
L 425.782664 79.888956 
L 426.07022 81.488144 
L 426.357776 84.242255 
L 426.645332 75.771969 
L 426.932888 82.22286 
L 427.220444 85.566462 
L 427.508 85.658409 
L 427.795555 89.237464 
L 428.083111 88.09715 
L 428.370667 80.098629 
L 428.658223 83.442231 
L 428.945779 84.950332 
L 429.233335 74.408233 
L 429.520891 71.562175 
L 429.808447 56.103065 
L 430.096002 64.114476 
L 430.383558 79.482499 
L 430.671114 84.740659 
L 430.95867 85.369678 
L 431.533782 90.456834 
L 431.821338 91.348805 
L 432.108894 91.086714 
L 432.396449 76.178425 
L 432.684005 85.474515 
L 432.971561 86.628578 
L 433.259117 86.628578 
L 433.546673 92.922214 
L 434.121785 97.36746 
L 434.409341 98.92798 
L 434.696897 98.167484 
L 434.984452 98.717447 
L 435.272008 94.102056 
L 435.559564 94.60046 
L 435.84712 84.202726 
L 436.134676 84.425289 
L 436.422232 92.12219 
L 436.709788 92.647233 
L 436.997344 91.977825 
L 437.284899 94.194003 
L 437.572455 89.3423 
L 437.860011 95.256119 
L 438.147567 88.12293 
L 438.435123 84.09789 
L 438.722679 91.872988 
L 439.010235 91.977825 
L 439.297791 92.922214 
L 439.585346 96.095671 
L 439.872902 95.990835 
L 440.448014 99.56989 
L 440.73557 97.262624 
L 441.023126 97.904533 
L 441.310682 92.948853 
L 441.598238 98.415827 
L 441.885794 100.317495 
L 442.173349 100.828789 
L 442.460905 102.533673 
L 442.748461 101.261884 
L 443.036017 92.843157 
L 443.611129 101.025572 
L 443.898685 102.992549 
L 444.186241 103.648207 
L 444.473796 99.779563 
L 444.761352 103.26753 
L 445.336464 95.794051 
L 445.62402 97.904533 
L 445.911576 101.012683 
L 446.199132 101.143299 
L 446.486688 93.827075 
L 446.774244 100.855428 
L 447.061799 97.799697 
L 447.349355 100.933625 
L 447.636911 98.966649 
L 447.924467 101.169938 
L 448.212023 101.930433 
L 448.499579 102.284472 
L 448.787135 98.704557 
L 449.074691 102.808655 
L 449.362246 98.521523 
L 449.937358 104.107083 
L 450.224914 99.477943 
L 450.51247 100.828789 
L 450.800026 101.169938 
L 451.087582 95.544849 
L 451.375138 100.960264 
L 451.662693 89.775396 
L 451.950249 95.348066 
L 452.237805 82.747043 
L 452.525361 171.070552 
L 452.812917 67.314572 
L 453.100473 57.139401 
L 453.388029 78.393744 
L 453.675585 79.363913 
L 453.963141 88.857646 
L 454.538252 89.3423 
L 455.113364 95.348066 
L 455.40092 91.060075 
L 455.688476 95.256119 
L 456.838699 104.513539 
L 457.126255 104.486901 
L 457.413811 101.773178 
L 457.701367 105.050612 
L 457.988923 103.411895 
L 458.564035 105.142559 
L 458.851591 107.136174 
L 459.139146 104.526429 
L 459.426702 98.717447 
L 459.714258 103.673987 
L 460.001814 105.050612 
L 460.576926 108.81442 
L 460.864482 108.289378 
L 461.152038 109.679752 
L 461.439593 110.295883 
L 462.014705 113.15397 
L 462.302261 113.849158 
L 462.589817 111.449945 
L 462.877373 111.266051 
L 463.164929 114.478178 
L 464.027596 117.429072 
L 464.315152 119.120207 
L 464.602708 110.308772 
L 464.890264 114.990331 
L 465.17782 117.219398 
L 465.465376 112.931407 
L 465.752932 105.982112 
L 466.040488 109.220877 
L 466.328043 108.735363 
L 466.615599 99.674726 
L 467.190711 93.197196 
L 467.478267 105.261145 
L 467.765823 109.862787 
L 468.053379 112.393475 
L 468.340935 108.5128 
L 468.62849 107.030479 
L 468.916046 109.024094 
L 469.203602 101.773178 
L 469.491158 104.945776 
L 470.06627 102.415088 
L 470.353826 108.932147 
L 470.641382 108.394214 
L 470.928937 105.536126 
L 471.216493 110.269244 
L 471.504049 110.924903 
L 471.791605 112.931407 
L 472.079161 106.191785 
L 472.366717 106.834554 
L 472.654273 104.329646 
L 472.941829 113.311225 
L 473.229385 115.265312 
L 473.51694 113.862048 
L 474.092052 120.077486 
L 474.379608 115.684659 
L 474.667164 117.769361 
L 474.95472 118.491187 
L 475.242276 117.651635 
L 475.529832 122.254136 
L 475.817387 121.742842 
L 476.104943 122.044463 
L 476.680055 124.404147 
L 476.967611 123.421088 
L 477.255167 123.735598 
L 477.542723 122.568646 
L 477.830279 124.588041 
L 478.117835 125.623517 
L 478.40539 126.069503 
L 478.692946 126.292925 
L 478.980502 117.022615 
L 479.84317 123.814655 
L 480.130726 120.90329 
L 480.418282 123.211415 
L 480.705837 124.089637 
L 480.993393 119.946011 
L 481.280949 122.817848 
L 481.568505 124.076747 
L 481.856061 122.031573 
L 482.143617 109.74506 
L 482.431173 117.140341 
L 482.718729 120.156543 
L 483.006284 114.491927 
L 483.29384 113.245917 
L 483.581396 117.429072 
L 484.156508 119.95976 
L 484.444064 122.922684 
L 484.73162 112.210441 
L 485.019176 119.461356 
L 485.306732 121.939626 
L 485.594287 120.615419 
L 485.881843 143.508823 
L 486.169399 94.522262 
L 486.456955 104.080444 
L 486.744511 107.778084 
L 487.319623 111.423306 
L 487.894734 113.612846 
L 488.18229 110.610393 
L 488.469846 113.560427 
L 488.757402 115.055639 
L 489.044958 115.94675 
L 489.332514 117.219398 
L 489.907626 114.282253 
L 490.195181 99.753783 
L 491.057849 104.199029 
L 491.345405 109.75795 
L 492.208073 114.282253 
L 492.495629 114.491927 
L 492.783184 115.422567 
L 493.07074 114.150778 
L 493.358296 107.974868 
L 494.220964 113.953994 
L 494.50852 114.517706 
L 494.796076 104.132862 
L 495.083631 110.492666 
L 495.371187 112.485422 
L 495.658743 109.75795 
L 495.946299 113.849158 
L 496.233855 108.328906 
L 496.521411 114.72738 
L 496.808967 112.891879 
L 497.096523 114.806437 
L 497.671634 104.199029 
L 497.95919 104.316756 
L 498.246746 110.05957 
L 498.821858 114.649182 
L 499.109414 114.465288 
L 499.39697 109.627334 
L 499.684526 109.45633 
L 500.259637 115.225783 
L 500.547193 116.825831 
L 500.834749 113.953994 
L 501.122305 116.379846 
L 501.409861 117.769361 
L 501.697417 116.930668 
L 501.984973 110.610393 
L 502.272528 115.960499 
L 502.560084 117.743582 
L 503.422752 120.26138 
L 503.710308 119.107318 
L 503.997864 120.58878 
L 504.28542 118.596024 
L 505.148087 121.952516 
L 505.435643 122.12266 
L 505.723199 116.799193 
L 506.010755 104.513539 
L 506.298311 115.829024 
L 506.585867 118.359712 
L 506.873423 117.586327 
L 507.160978 115.225783 
L 507.448534 107.463574 
L 507.73609 107.765194 
L 508.023646 114.216086 
L 508.311202 114.504817 
L 508.598758 116.668576 
L 508.886314 112.996715 
L 509.17387 104.972415 
L 509.461425 113.442701 
L 509.748981 116.078226 
L 510.036537 117.533908 
L 510.324093 118.41213 
L 510.611649 117.664525 
L 510.899205 115.684659 
L 511.186761 108.276488 
L 511.474317 116.707246 
L 511.761873 118.281514 
L 512.049428 115.133836 
L 512.336984 117.874198 
L 512.62454 116.484683 
L 512.912096 119.225044 
L 513.199652 119.749227 
L 513.487208 113.679013 
L 514.349875 119.854923 
L 514.637431 119.880703 
L 514.924987 120.169433 
L 515.212543 118.162928 
L 515.500099 119.002481 
L 515.787655 107.122425 
L 516.075211 115.698408 
L 516.362767 118.491187 
L 516.650323 117.441962 
L 517.225434 121.021876 
L 517.800546 122.555756 
L 518.088102 121.021876 
L 518.375658 122.490448 
L 518.663214 118.897644 
L 518.95077 119.762976 
L 519.238325 122.595285 
L 519.525881 122.13641 
L 519.813437 123.001742 
L 520.100993 118.386351 
L 520.388549 120.483943 
L 520.963661 122.660593 
L 521.251217 123.959021 
L 521.538772 124.705767 
L 521.826328 122.175079 
L 522.113884 123.867074 
L 522.40144 119.408938 
L 522.688996 122.581536 
L 522.976552 123.762237 
L 523.264108 123.316252 
L 523.551664 124.627569 
L 523.83922 120.300049 
L 524.126775 120.404886 
L 524.414331 122.476699 
L 525.276999 125.321897 
L 525.852111 123.433978 
L 526.139667 123.959021 
L 526.427222 116.917778 
L 526.714778 122.267026 
L 527.002334 122.371862 
L 527.28989 120.693617 
L 527.577446 123.211415 
L 527.865002 121.2178 
L 528.152558 120.785563 
L 528.440114 117.940365 
L 528.72767 121.952516 
L 529.015225 123.538815 
L 529.302781 118.516967 
L 529.590337 116.589519 
L 529.877893 117.324235 
L 530.165449 121.650896 
L 530.453005 122.804958 
L 530.740561 120.103266 
L 531.028117 122.686372 
L 531.315672 121.624257 
L 531.603228 121.834789 
L 531.890784 114.39998 
L 532.17834 121.51942 
L 532.465896 105.339343 
L 532.753452 117.350015 
L 533.041008 119.985539 
L 533.328564 116.681466 
L 533.616119 120.050848 
L 533.903675 108.092594 
L 534.191231 108.892618 
L 534.478787 118.399241 
L 535.053899 117.008866 
L 535.341455 119.762976 
L 535.629011 115.868552 
L 535.916567 120.496833 
L 536.779234 124.365477 
L 537.06679 124.194473 
L 537.354346 119.34277 
L 537.641902 123.408198 
L 537.929458 125.099334 
L 538.217014 125.964666 
L 538.504569 120.680727 
L 538.792125 121.834789 
L 539.079681 120.142794 
L 539.367237 120.58878 
L 539.654793 124.154945 
L 539.942349 125.23081 
L 540.229905 124.496094 
L 540.517461 116.602409 
L 540.805016 116.589519 
L 541.092572 120.536362 
L 541.380128 119.95976 
L 541.667684 118.923424 
L 542.242796 123.211415 
L 542.530352 125.007387 
L 542.817908 125.335646 
L 543.105464 118.267765 
L 543.393019 119.762976 
L 543.968131 123.945272 
L 544.543243 113.245917 
L 544.830799 121.112963 
L 545.118355 123.538815 
L 545.405911 123.224305 
L 545.693466 117.048394 
L 545.981022 123.643651 
L 546.268578 121.179131 
L 546.556134 124.91544 
L 546.84369 126.056613 
L 547.131246 125.112224 
L 547.418802 125.400954 
L 547.706358 126.253397 
L 547.993914 127.564714 
L 548.281469 127.839696 
L 548.856581 126.47596 
L 549.144137 122.490448 
L 549.431693 126.594545 
L 549.719249 125.427593 
L 550.006805 128.285681 
L 550.294361 129.54458 
L 550.581916 128.128426 
L 550.869472 125.977556 
L 551.157028 128.901811 
L 551.444584 125.518681 
L 551.73214 127.498547 
L 552.307252 129.203431 
L 552.882363 119.002481 
L 553.169919 126.567907 
L 553.457475 128.350989 
L 553.745031 126.371123 
L 554.032587 128.167955 
L 554.895255 114.177417 
L 555.182811 122.792068 
L 555.757922 125.321897 
L 556.045478 129.203431 
L 556.333034 130.672004 
L 556.908146 129.741364 
L 557.483258 131.943793 
L 557.770813 110.086209 
L 558.345925 117.232288 
L 558.633481 118.070981 
L 558.921037 116.694356 
L 559.208593 118.281514 
L 559.496149 117.861308 
L 559.783705 115.01611 
L 560.07126 119.107318 
L 560.646372 121.51942 
L 560.933928 107.752305 
L 561.221484 115.133836 
L 561.50904 118.792808 
L 561.796596 117.441962 
L 562.084152 117.415323 
L 562.371708 116.392736 
L 562.659263 118.897644 
L 562.946819 119.95976 
L 563.234375 122.700121 
L 563.521931 122.476699 
L 563.809487 122.883156 
L 564.097043 123.867074 
L 564.384599 124.29931 
L 564.672155 123.748488 
L 564.95971 124.050108 
L 565.247266 109.44344 
L 565.822378 120.379107 
L 566.109934 122.490448 
L 566.39749 120.483943 
L 566.685046 120.28716 
L 566.972602 120.929929 
L 567.547713 123.460617 
L 567.835269 123.932382 
L 568.122825 116.065336 
L 568.697937 121.925877 
L 568.985493 121.716204 
L 569.273049 123.945272 
L 569.560605 115.986279 
L 569.84816 121.349275 
L 570.135716 122.267026 
L 570.423272 119.434717 
L 570.710828 124.470314 
L 570.998384 124.889661 
L 571.28594 122.700121 
L 571.573496 122.070242 
L 571.861052 135.117078 
L 572.148607 131.143769 
L 572.436163 136.218465 
L 572.723719 135.838217 
L 573.298831 142.263157 
L 573.586387 139.745617 
L 573.873943 143.889071 
L 574.161499 149.855136 
L 574.449055 131.340552 
L 574.73661 95.780302 
L 575.024166 106.493405 
L 575.311722 108.066815 
L 575.599278 152.556226 
L 575.886834 112.85235 
L 576.17439 101.878015 
L 576.461946 116.812942 
L 576.749502 219.205191 
L 577.037057 75.915474 
L 577.324613 95.689215 
L 577.612169 103.018328 
L 577.899725 101.903794 
L 578.187281 111.029739 
L 578.474837 111.580561 
L 578.762393 113.862048 
L 579.049949 104.50065 
L 579.337504 110.505556 
L 579.62506 111.161215 
L 579.912616 114.295143 
L 580.200172 109.967624 
L 580.487728 110.977321 
L 580.775284 114.68871 
L 581.350396 116.589519 
L 581.637952 115.449206 
L 581.925507 116.222591 
L 582.213063 117.861308 
L 582.500619 117.887947 
L 582.788175 115.566932 
L 583.075731 110.387829 
L 583.363287 111.803984 
L 583.650843 115.344369 
L 583.938399 114.08547 
L 584.225954 115.238673 
L 584.51351 117.310486 
L 584.801066 117.861308 
L 585.088622 116.314538 
L 585.663734 119.631501 
L 585.95129 118.897644 
L 586.238846 115.291951 
L 586.526402 116.812942 
L 586.813957 119.329881 
L 587.101513 132.559923 
L 587.389069 120.496833 
L 587.676625 122.385611 
L 587.964181 121.952516 
L 588.251737 124.181584 
L 588.539293 120.352468 
L 588.826849 123.250943 
L 589.114404 124.483204 
L 589.40196 121.349275 
L 589.689516 115.212894 
L 589.977072 119.225044 
L 590.264628 112.734624 
L 590.552184 118.175818 
L 591.127296 120.391996 
L 591.414851 119.841174 
L 591.702407 121.860569 
L 591.989963 119.526664 
L 592.277519 121.834789 
L 592.852631 120.300049 
L 593.427743 125.440483 
L 593.715299 119.788756 
L 594.002854 121.112963 
L 594.29041 123.748488 
L 594.577966 123.919492 
L 594.865522 121.414583 
L 595.153078 124.404147 
L 595.440634 125.754993 
L 595.72819 124.050108 
L 596.303301 126.607435 
L 596.590857 126.804219 
L 596.878413 126.305815 
L 597.165969 122.293665 
L 597.453525 125.83405 
L 597.741081 126.607435 
L 598.028637 128.272791 
L 598.603749 129.23007 
L 598.891304 129.111484 
L 599.466416 129.190542 
L 599.753972 129.87198 
L 600.041528 131.196187 
L 600.329084 131.970432 
L 600.61664 131.655062 
L 600.904196 131.865595 
L 601.191751 131.642173 
L 601.479307 129.046176 
L 601.766863 129.452633 
L 602.054419 127.001002 
L 602.629531 130.672004 
L 602.917087 131.511556 
L 603.204643 131.851846 
L 603.779754 124.338839 
L 604.06731 122.673483 
L 604.354866 127.013892 
L 604.642422 128.574411 
L 604.929978 129.033287 
L 605.50509 130.711532 
L 606.080201 131.72123 
L 606.367757 132.153466 
L 606.655313 129.190542 
L 606.942869 121.768622 
L 607.230425 124.076747 
L 607.517981 129.006648 
L 607.805537 129.714725 
L 608.093093 129.833311 
L 608.380648 128.246152 
L 608.668204 123.827545 
L 608.95576 128.350989 
L 609.530872 118.687971 
L 610.105984 126.14856 
L 610.39354 124.889661 
L 610.681095 128.088897 
L 610.968651 113.574176 
L 611.256207 117.022615 
L 611.543763 113.652374 
L 612.118875 115.960499 
L 612.406431 115.881442 
L 612.693987 120.90329 
L 612.981543 121.729953 
L 613.269098 125.178391 
L 613.556654 124.29931 
L 613.84421 127.459877 
L 614.419322 130.003455 
L 614.706878 113.023354 
L 615.28199 136.939689 
L 615.857101 141.201127 
L 616.432213 143.194141 
L 616.719769 139.863687 
L 617.007325 150.786034 
L 617.294881 150.917165 
L 617.869993 151.717017 
L 618.73266 152.792195 
L 619.020216 151.730165 
L 619.307772 152.70042 
L 619.882884 153.513419 
L 620.17044 154.155931 
L 620.457995 154.286976 
L 620.745551 154.562387 
L 621.033107 154.142783 
L 621.320663 154.995053 
L 621.608219 155.309735 
L 622.183331 159.138507 
L 622.470887 158.889392 
L 622.758442 158.482935 
L 623.045998 158.57471 
L 623.333554 161.931373 
L 623.62111 162.128071 
L 624.196222 160.475948 
L 624.483778 162.128071 
L 624.771334 162.232993 
L 625.05889 162.757434 
L 625.346445 163.531077 
L 625.634001 163.976891 
L 625.921557 164.029309 
L 626.209113 165.1832 
L 626.496669 169.051243 
L 626.784225 167.582756 
L 627.071781 168.867693 
L 627.359337 181.402892 
L 627.646892 181.927419 
L 627.934448 190.332311 
L 628.222004 191.092806 
L 628.50956 201.661115 
L 629.084672 150.654988 
L 629.372228 169.680693 
L 629.947339 171.909761 
L 630.234895 171.922822 
L 630.522451 171.594993 
L 630.810007 170.873854 
L 631.385119 166.114184 
L 631.672675 183.907285 
L 631.960231 178.649383 
L 632.247787 179.90811 
L 632.535342 184.235114 
L 632.822898 181.166923 
L 633.110454 184.130191 
L 633.39801 204.362291 
L 633.685566 203.929539 
L 633.973122 189.912706 
L 634.260678 190.778124 
L 634.548234 190.332311 
L 635.123345 107.463574 
L 635.698457 116.589519 
L 635.986013 115.435457 
L 636.273569 121.309747 
L 636.561125 116.065336 
L 636.848681 119.212154 
L 637.136237 118.294404 
L 637.423792 119.015371 
L 637.711348 119.120207 
L 637.998904 122.686372 
L 638.28646 114.41287 
L 638.574016 128.993758 
L 639.149128 144.636504 
L 639.436684 144.793845 
L 639.724239 219.3232 
L 640.011795 115.960499 
L 640.299351 122.817848 
L 640.586907 124.692877 
L 640.874463 125.309007 
L 641.162019 128.390518 
L 641.449575 127.38082 
L 641.737131 128.049369 
L 642.024686 118.281514 
L 642.312242 122.909795 
L 642.599798 122.686372 
L 642.887354 128.390518 
L 643.17491 128.154205 
L 643.462466 129.727615 
L 643.750022 128.469575 
L 644.037578 131.380081 
L 644.325134 127.433239 
L 644.612689 132.061519 
L 644.900245 132.678509 
L 645.475357 134.76304 
L 645.762913 115.64513 
L 646.050469 117.008866 
L 646.338025 150.025538 
L 646.625581 118.477438 
L 646.913136 201.320224 
L 647.200692 122.267026 
L 647.488248 110.505556 
L 647.775804 118.608914 
L 648.06336 118.950063 
L 648.926028 125.925138 
L 649.213583 126.45018 
L 649.501139 128.560662 
L 649.788695 118.543606 
L 650.076251 124.076747 
L 650.363807 123.106578 
L 650.938919 127.420349 
L 651.226475 128.587301 
L 651.514031 128.560662 
L 651.801586 129.295378 
L 652.089142 129.308268 
L 652.376698 130.606696 
L 652.664254 131.314773 
L 652.95181 131.616393 
L 653.526922 133.399476 
L 654.102033 134.579489 
L 654.389589 134.579489 
L 654.677145 135.195706 
L 654.964701 131.865595 
L 655.827369 136.126689 
L 656.114925 132.284942 
L 656.402481 134.395939 
L 656.690036 131.013153 
L 656.977592 133.005908 
L 657.265148 134.028753 
L 657.552704 126.305815 
L 658.127816 130.803479 
L 658.415372 118.792808 
L 658.702928 117.113703 
L 658.990483 113.862048 
L 659.278039 120.811343 
L 659.853151 125.728354 
L 660.140707 119.97265 
L 660.428263 124.994497 
L 661.003375 128.495354 
L 661.578486 130.514749 
L 661.866042 129.006648 
L 662.441154 131.73412 
L 663.016266 133.307529 
L 663.303822 134.054962 
L 663.591378 132.167215 
L 663.878933 114.924163 
L 664.166489 110.230574 
L 664.454045 122.241246 
L 664.741601 123.329141 
L 665.029157 125.637266 
L 665.604269 123.552564 
L 665.891825 119.094428 
L 666.17938 123.486396 
L 667.042048 128.154205 
L 667.61716 128.679248 
L 667.904716 127.944532 
L 668.192272 128.771195 
L 668.479828 125.321897 
L 668.767383 128.796974 
L 669.054939 130.370384 
L 669.630051 131.970432 
L 669.917607 126.16145 
L 670.205163 128.809864 
L 670.492719 129.308268 
L 670.780275 130.47522 
L 671.06783 128.784085 
L 671.355386 130.776841 
L 671.642942 129.413105 
L 671.930498 131.511556 
L 672.218054 132.153466 
L 672.50561 128.298571 
L 672.793166 131.130879 
L 673.080722 132.140576 
L 673.368277 132.258303 
L 673.655833 124.797714 
L 674.518501 130.370384 
L 674.806057 121.952516 
L 675.093613 123.342031 
L 675.668725 129.006648 
L 675.95628 128.482465 
L 676.243836 123.879963 
L 676.531392 128.036479 
L 676.818948 127.210676 
L 677.681616 131.511556 
L 677.969172 132.048629 
L 678.256727 133.307529 
L 678.544283 133.753428 
L 678.831839 132.993019 
L 679.406951 130.449441 
L 679.694507 131.091351 
L 679.982063 129.833311 
L 680.269619 129.24296 
L 680.557174 127.866334 
L 680.84473 131.130879 
L 681.132286 132.586562 
L 681.419842 123.959021 
L 681.707398 122.542866 
L 681.994954 116.052446 
L 682.28251 126.79047 
L 682.570066 129.87198 
L 682.857622 130.855898 
L 683.145177 131.117989 
L 684.582957 135.222001 
L 684.870513 135.300628 
L 685.158069 128.784085 
L 685.445624 117.953255 
L 685.73318 128.469575 
L 686.308292 133.110745 
L 687.17096 135.61531 
L 687.458516 132.258303 
L 687.746072 122.476699 
L 688.033627 161.406932 
L 688.321183 108.276488 
L 688.608739 117.769361 
L 688.896295 121.571838 
L 689.183851 115.01611 
L 689.471407 120.90329 
L 690.046519 125.84694 
L 690.62163 128.876032 
L 690.909186 129.622778 
L 691.196742 130.042984 
L 691.484298 131.288134 
L 691.771854 130.462331 
L 692.346966 133.084966 
L 693.784745 136.690487 
L 694.359857 137.529696 
L 694.934969 138.801571 
L 696.372748 140.899507 
L 696.660304 141.437096 
L 696.94786 141.712507 
L 697.235416 142.381227 
L 697.522971 142.564777 
L 697.810527 142.354932 
L 698.098083 141.135562 
L 698.385639 142.289366 
L 698.960751 143.4039 
L 700.110974 145.09538 
L 700.39853 144.675775 
L 700.973642 145.449418 
L 701.261198 145.619907 
L 701.548754 144.688923 
L 701.83631 143.180993 
L 702.411421 145.108527 
L 702.698977 145.003604 
L 702.986533 145.423209 
L 703.274089 145.606759 
L 703.561645 146.039511 
L 703.849201 145.842813 
L 704.136757 146.380402 
L 704.711868 146.786859 
L 704.999424 147.101541 
L 705.28698 146.773797 
L 705.862092 117.940365 
L 706.149648 118.596024 
L 706.437204 124.28642 
L 706.72476 123.460617 
L 707.012316 125.21706 
L 707.299871 123.814655 
L 707.587427 120.366217 
L 707.874983 123.119468 
L 708.162539 124.705767 
L 708.450095 127.210676 
L 708.737651 123.538815 
L 709.600318 130.042984 
L 709.887874 126.47596 
L 710.17543 129.87198 
L 710.462986 131.865595 
L 710.750542 132.96638 
L 711.038098 126.017084 
L 711.325654 129.963927 
L 711.61321 129.727615 
L 711.900765 131.655062 
L 712.188321 129.8462 
L 712.475877 132.913962 
L 712.763433 134.592551 
L 713.050989 134.985946 
L 713.338545 136.323387 
L 713.913657 137.123239 
L 714.201213 137.332998 
L 715.351436 139.929253 
L 715.638992 127.433239 
L 716.214104 134.579489 
L 716.50166 136.231612 
L 716.789215 136.79541 
L 717.076771 133.530521 
L 717.364327 128.888921 
L 717.651883 133.347057 
L 718.226995 136.231612 
L 719.089662 137.883735 
L 719.377218 138.067285 
L 719.664774 137.844378 
L 719.95233 133.753428 
L 720.239886 121.558949 
L 720.527442 126.46307 
L 721.39011 133.307529 
L 721.677665 128.587301 
L 721.965221 130.78973 
L 722.252777 112.288638 
L 722.540333 125.637266 
L 722.827889 129.321158 
L 723.115445 123.879963 
L 723.403001 129.413105 
L 723.978112 133.622296 
L 724.265668 134.081172 
L 724.553224 135.549744 
L 724.84078 135.903783 
L 725.128336 137.228162 
L 725.991004 139.31295 
L 726.27856 139.194966 
L 727.428783 142.892607 
L 727.716339 142.446793 
L 728.003895 143.115513 
L 728.291451 135.208853 
L 728.579007 132.599452 
L 729.441674 140.912655 
L 729.72923 124.929189 
L 730.016786 132.153466 
L 730.304342 130.47522 
L 730.591898 134.789249 
L 730.879454 136.677426 
L 731.167009 136.769201 
L 731.454565 134.566342 
L 731.742121 137.018317 
L 732.029677 138.263982 
L 732.317233 138.867137 
L 732.604789 130.252657 
L 732.892345 128.574411 
L 733.179901 133.661653 
L 733.467457 136.362744 
L 733.755012 135.562892 
L 734.042568 136.270969 
L 734.61768 127.761498 
L 734.905236 125.951776 
L 735.192792 131.524446 
L 735.480348 134.566342 
L 736.055459 137.752603 
L 736.918127 129.898619 
L 737.493239 134.173033 
L 737.780795 135.79886 
L 738.068351 134.25166 
L 738.355907 137.005255 
L 738.931018 117.245178 
L 739.218574 125.742103 
L 739.50613 127.879224 
L 739.793686 128.285681 
L 740.368798 129.413105 
L 740.656354 123.224305 
L 740.943909 126.896166 
L 741.806577 131.484918 
L 742.381689 132.573672 
L 742.669245 132.888182 
L 742.956801 130.684894 
L 743.244356 133.320418 
L 743.531912 134.487714 
L 743.819468 135.103931 
L 744.107024 134.789249 
L 744.39458 136.074271 
L 744.969692 136.572503 
L 745.257248 137.529696 
L 745.544804 126.410652 
L 745.832359 131.813177 
L 746.119915 134.054962 
L 746.407471 135.103931 
L 746.695027 134.697474 
L 746.982583 135.103931 
L 747.270139 132.03574 
L 747.845251 131.445389 
L 748.132806 133.569878 
L 748.420362 133.334168 
L 748.707918 134.277869 
L 748.995474 133.753428 
L 749.28303 133.936978 
L 749.570586 140.270144 
L 749.858142 139.758764 
L 750.145698 140.060384 
L 750.433253 140.571678 
L 750.720809 140.060384 
L 751.008365 137.64768 
L 751.295921 138.263982 
L 751.583477 140.466841 
L 752.158589 141.922266 
L 752.446145 139.496501 
L 752.733701 133.071217 
L 753.021256 138.041076 
L 753.308812 140.073446 
L 753.596368 134.474567 
L 753.883924 135.877574 
L 754.17148 136.362744 
L 754.459036 123.198525 
L 754.746592 125.820301 
L 755.321703 135.287567 
L 755.609259 123.237194 
L 756.184371 129.938147 
L 756.471927 127.420349 
L 756.759483 133.097855 
L 757.047039 125.427593 
L 757.334595 122.975103 
L 757.622151 126.725162 
L 757.909706 124.810604 
L 758.197262 123.867074 
L 758.484818 124.194473 
L 758.772374 127.656661 
L 759.05993 128.455826 
L 759.347486 128.023589 
L 759.635042 131.838956 
L 759.922598 131.013153 
L 760.210153 133.740281 
L 760.497709 132.088158 
L 760.785265 131.40672 
L 761.072821 134.474567 
L 761.360377 135.929992 
L 761.647933 132.048629 
L 761.935489 129.833311 
L 762.223045 131.327663 
L 762.5106 129.190542 
L 762.798156 128.272791 
L 763.085712 133.530521 
L 763.373268 133.976335 
L 763.660824 136.808557 
L 763.94838 130.908316 
L 764.235936 132.272052 
L 764.523492 123.119468 
L 764.811048 129.216321 
L 765.098603 127.433239 
L 765.386159 129.216321 
L 765.673715 127.550965 
L 765.961271 131.747009 
L 766.248827 131.72123 
L 766.536383 133.740281 
L 766.823939 134.815458 
L 767.39905 134.173033 
L 767.686606 135.654667 
L 767.974162 133.740281 
L 768.261718 128.495354 
L 768.549274 133.097855 
L 768.83683 133.858265 
L 769.124386 132.245413 
L 769.411942 133.530521 
L 769.699497 132.455086 
L 769.987053 130.711532 
L 770.274609 134.146738 
L 770.562165 134.566342 
L 771.137277 136.572503 
L 771.424833 128.862283 
L 771.712389 133.635358 
L 771.999945 134.159885 
L 772.575056 136.874123 
L 772.862612 137.215014 
L 773.150168 136.270969 
L 773.437724 137.437921 
L 773.72528 136.677426 
L 774.012836 138.263982 
L 774.300392 138.381967 
L 774.587947 139.404726 
L 774.875503 136.205403 
L 775.163059 131.668811 
L 775.450615 137.582114 
L 775.738171 139.378516 
L 776.025727 138.145998 
L 776.313283 133.032547 
L 776.600839 133.005908 
L 776.888395 134.369644 
L 777.17595 136.664278 
L 777.463506 131.235716 
L 777.751062 134.894171 
L 778.038618 135.235062 
L 778.326174 128.455826 
L 778.61373 129.833311 
L 778.901286 130.357494 
L 779.188842 126.056613 
L 779.476397 127.315512 
L 779.763953 126.174339 
L 780.051509 131.72123 
L 780.626621 134.186094 
L 780.914177 133.727219 
L 781.201733 131.73412 
L 781.489289 134.841753 
L 781.776844 135.012156 
L 782.0644 136.585651 
L 782.351956 137.398564 
L 782.639512 136.900332 
L 783.214624 137.424774 
L 783.50218 137.228162 
L 783.789736 127.590494 
L 784.077292 126.16145 
L 784.364847 130.068763 
L 785.227515 135.929992 
L 785.515071 136.782348 
L 785.802627 138.998269 
L 786.090183 139.745617 
L 786.377739 140.021028 
L 786.665294 140.047237 
L 786.95285 140.584825 
L 787.240406 138.014866 
L 787.527962 130.816369 
L 787.815518 137.09703 
L 788.103074 134.55328 
L 788.39063 136.42831 
L 788.965741 138.263982 
L 789.253297 138.565603 
L 789.540853 138.447532 
L 790.115965 139.601423 
L 790.403521 137.424774 
L 790.691077 138.054223 
L 790.978633 139.627632 
L 791.266189 140.361919 
L 791.553744 139.82433 
L 791.8413 138.054223 
L 792.416412 141.00443 
L 792.703968 137.516635 
L 792.991524 139.33916 
L 793.27908 140.3095 
L 793.566636 139.994818 
L 793.854191 140.899507 
L 794.141747 139.076896 
L 794.429303 132.796235 
L 794.716859 138.486889 
L 795.004415 137.713246 
L 795.291971 138.565603 
L 795.579527 136.887185 
L 795.867083 139.116253 
L 796.154639 139.614571 
L 796.442194 138.788509 
L 796.72975 139.64078 
L 797.304862 137.424774 
L 797.592418 139.417873 
L 797.879974 140.466841 
L 798.16753 136.913394 
L 798.455086 137.752603 
L 798.742641 133.976335 
L 799.030197 139.496501 
L 799.317753 141.292902 
L 799.605309 145.619907 
L 799.892865 142.984382 
L 800.180421 144.597148 
L 800.467977 145.318286 
L 800.755533 145.423209 
L 801.043088 146.367254 
L 801.330644 146.459029 
L 801.6182 147.088479 
L 801.905756 147.009766 
L 802.480868 147.507998 
L 802.768424 147.088479 
L 803.05598 145.528132 
L 803.343536 146.262418 
L 803.631091 147.730904 
L 803.918647 146.118138 
L 804.206203 146.262418 
L 804.493759 147.639129 
L 805.068871 148.386563 
L 805.356427 136.375805 
L 805.643983 139.024478 
L 805.928543 138.368905 
L 806.505153 143.180993 
L 806.797201 144.728279 
L 807.081762 139.64078 
L 807.366322 139.942314 
L 807.658371 142.682762 
L 807.942932 142.931877 
L 808.234981 142.354932 
L 808.519541 144.282466 
L 808.804102 142.682762 
L 809.096151 144.466016 
L 809.380711 142.263157 
L 809.67276 138.998269 
L 809.957321 138.172207 
L 810.53393 143.889071 
L 811.679661 146.747502 
L 811.97171 128.809864 
L 812.25627 137.083883 
L 812.548319 136.677426 
L 812.83288 133.189802 
L 813.11744 135.156435 
L 813.409489 134.264808 
L 813.69405 136.139837 
L 813.986098 140.925716 
L 814.270659 135.641519 
L 814.55522 136.46758 
L 814.847268 138.381967 
L 815.131829 141.37153 
L 815.423878 143.076157 
L 815.708438 141.00443 
L 815.992999 144.164482 
L 816.285048 143.063009 
L 816.569608 140.886446 
L 817.146218 144.321822 
L 817.430778 142.879459 
L 817.722827 145.121589 
L 818.007388 146.367254 
L 819.160607 149.199477 
L 819.737216 149.776422 
L 820.306337 150.484499 
L 820.598386 150.904104 
L 820.882947 150.563127 
L 821.174996 150.786034 
L 821.459556 151.756374 
L 821.744117 147.835827 
L 822.036165 141.279755 
L 822.320726 142.066545 
L 822.612775 145.082318 
L 823.181896 147.193316 
L 823.473945 147.953811 
L 823.758505 146.695084 
L 824.050554 141.922266 
L 824.335115 144.662713 
L 824.619675 144.688923 
L 824.911724 144.597148 
L 825.196285 146.668875 
L 825.488334 147.639129 
L 825.772894 146.472177 
L 826.349504 142.328723 
L 826.634064 146.183704 
L 826.926113 147.324447 
L 827.210674 146.878634 
L 827.495234 148.045672 
L 828.071844 144.269318 
L 828.363893 146.5771 
L 828.648453 147.757199 
L 829.225062 144.990543 
L 829.509623 144.872473 
L 830.086232 138.447532 
L 830.662842 140.925716 
L 830.947402 138.526246 
L 831.239451 138.985121 
L 831.524012 139.968523 
L 831.808572 137.739455 
L 832.385182 143.862861 
L 832.677231 144.780698 
L 833.246352 140.965073 
L 833.538401 142.748327 
L 833.822961 145.619907 
L 834.11501 145.200302 
L 834.399571 142.15832 
L 834.684131 143.600598 
L 834.97618 143.613745 
L 835.260741 145.331434 
L 835.83735 147.12775 
L 836.121911 141.974684 
L 836.69852 147.12775 
L 836.990569 145.082318 
L 837.275129 147.757199 
L 837.55969 149.09464 
L 837.851739 142.15832 
L 838.136299 146.485325 
L 838.428348 144.269318 
L 838.712909 147.285091 
L 838.997469 148.045672 
L 839.289518 146.06572 
L 839.574079 146.144348 
L 839.866128 146.891781 
L 840.150688 145.619907 
L 840.435249 148.675036 
L 840.727298 148.150509 
L 841.011858 148.360354 
L 841.303907 146.563952 
L 841.588468 148.281641 
L 841.873028 148.779958 
L 842.165077 148.465191 
L 842.449638 149.081493 
L 842.741687 148.478338 
L 843.026247 148.989718 
L 843.310808 150.248445 
L 843.602857 150.27474 
L 843.887417 151.218786 
L 844.179466 150.681197 
L 844.464026 150.550065 
L 844.748587 151.415483 
L 845.325196 150.169817 
L 845.617245 151.533467 
L 845.901806 150.550065 
L 846.186366 150.982731 
L 846.478415 149.632229 
L 846.762976 151.402336 
L 847.055025 151.625242 
L 847.339585 151.284351 
L 847.624146 153.00204 
L 847.916195 153.605194 
L 848.200755 151.953072 
L 848.492804 152.765986 
L 849.061925 150.576274 
L 849.353974 152.569288 
L 849.638535 141.594437 
L 850.215144 149.09464 
L 850.499705 148.045672 
L 851.076314 150.576274 
L 851.368363 149.724004 
L 851.652923 150.353368 
L 851.937484 150.681197 
L 852.514093 152.464451 
L 852.806142 150.484499 
L 853.090703 151.389188 
L 853.375263 149.946911 
L 853.667312 152.765986 
L 854.243922 152.123474 
L 854.528482 153.513419 
L 854.813043 151.533467 
L 855.105092 152.162831 
L 855.389652 153.408497 
L 855.681701 153.054458 
L 855.966262 153.408497 
L 856.250822 154.588597 
L 856.542871 149.291252 
L 856.827432 151.284351 
L 857.119481 149.841988 
L 857.404041 152.372676 
L 857.688602 152.175979 
L 858.265211 155.008201 
L 858.55726 154.693519 
L 858.84182 155.506433 
L 859.126381 153.618256 
L 859.41843 154.352542 
L 859.70299 152.254606 
L 859.995039 154.051008 
L 860.2796 151.730165 
L 860.56416 152.18904 
L 860.856209 154.562387 
L 861.14077 153.395349 
L 861.432819 154.339481 
L 861.717379 154.877069 
L 862.00194 152.267754 
L 862.293989 152.018638 
L 862.578549 200.20569 
L 862.870598 146.76065 
L 863.155159 149.959972 
L 863.439719 146.052573 
L 863.731768 149.291252 
L 864.016329 150.051833 
L 864.308378 150.27474 
L 864.592938 151.546615 
L 864.877499 151.625242 
L 865.169548 149.304399 
L 865.454108 151.415483 
L 865.746157 151.192576 
L 866.030718 148.150509 
L 866.315278 147.416222 
L 866.607327 152.67421 
L 866.891887 150.799181 
L 867.183936 151.533467 
L 867.468497 149.855136 
L 867.753057 142.276305 
L 868.045106 151.415483 
L 868.329667 153.356078 
L 868.621716 154.155931 
L 868.906276 147.232672 
L 869.190837 144.780698 
L 869.482886 144.820054 
L 869.767446 142.984382 
L 870.059495 135.929992 
L 870.344056 142.250095 
L 870.628616 142.73518 
L 871.205226 149.553515 
L 871.497275 145.003604 
L 871.781835 147.416222 
L 872.066396 144.452868 
L 872.358445 143.626807 
L 872.643005 146.131286 
L 872.935054 150.248445 
L 873.504175 144.833202 
L 873.796224 147.324447 
L 874.080784 146.341045 
L 874.372833 149.409322 
L 874.657394 150.051833 
L 874.941954 151.415483 
L 875.234003 152.123474 
L 875.518564 148.858586 
L 875.810613 148.989718 
L 876.095173 147.639129 
L 876.671783 148.819229 
L 876.956343 148.163656 
L 877.248392 146.039511 
L 877.532953 144.88562 
L 877.817513 149.015927 
L 878.109562 150.248445 
L 878.394123 147.91454 
L 878.686172 147.534293 
L 878.970732 149.46174 
L 879.255293 137.542844 
L 879.547342 138.054223 
L 879.831902 140.034089 
L 880.123951 140.873298 
L 880.408512 140.283291 
L 880.693072 137.739455 
L 880.985121 137.503487 
L 881.269682 136.231612 
L 881.846291 140.270144 
L 882.130851 140.270144 
L 882.4229 141.528871 
L 882.99951 139.221175 
L 883.28407 135.641519 
L 883.568631 137.398564 
L 883.86068 141.424034 
L 884.14524 142.354932 
L 884.437289 142.132025 
L 884.72185 142.800746 
L 885.00641 141.240398 
L 885.298459 140.283291 
L 885.58302 141.830491 
L 886.159629 143.417048 
L 886.44419 143.508823 
L 886.736239 141.227337 
L 887.020799 141.542018 
L 887.312848 138.906494 
L 887.881969 140.466841 
L 888.174018 142.36808 
L 888.458579 138.906494 
L 888.750627 141.437096 
L 889.035188 141.515809 
L 889.319748 141.109352 
L 889.611797 142.984382 
L 889.896358 138.185269 
L 890.188407 142.682762 
L 890.472967 142.36808 
L 890.757528 144.177543 
L 891.049577 143.823505 
L 891.334137 144.688923 
L 891.626186 144.151334 
L 891.910747 145.21345 
L 892.195307 145.541193 
L 892.487356 146.681936 
L 892.771917 147.114688 
L 893.063966 147.088479 
L 893.348526 147.639129 
L 893.633087 147.009766 
L 893.925136 147.717843 
L 894.501745 137.739455 
L 894.786306 142.486064 
L 895.070866 142.171382 
L 895.362915 144.872473 
L 895.647476 145.908379 
L 895.939524 145.737891 
L 896.224085 146.039511 
L 896.508645 145.737891 
L 896.800694 144.387388 
L 897.085255 144.03335 
L 897.661864 146.904843 
L 898.238474 146.983556 
L 898.523034 149.225686 
L 898.815083 143.954636 
L 899.099644 142.6697 
L 899.384204 145.397 
L 899.676253 146.563952 
L 899.960814 142.892607 
L 900.252863 146.288627 
L 900.537423 144.374241 
L 900.821984 137.188805 
L 901.398593 141.332259 
L 901.690642 141.948475 
L 902.259763 143.902218 
L 902.551812 143.849714 
L 902.836373 142.892607 
L 903.128421 144.138186 
L 903.412982 143.390839 
L 903.697543 135.536683 
L 903.989591 136.034914 
L 904.274152 135.746442 
L 904.566201 139.549005 
L 905.135322 142.787684 
L 905.427371 141.778073 
L 905.711931 142.774537 
L 906.00398 141.791134 
L 906.288541 142.066545 
L 906.573101 139.404726 
L 906.86515 140.453694 
L 907.149711 142.892607 
L 907.44176 133.635358 
L 907.72632 133.727219 
L 908.010881 140.794585 
L 908.30293 139.942314 
L 908.879539 142.446793 
L 909.1641 142.079607 
L 909.44866 141.528871 
L 909.740709 141.778073 
L 910.02527 141.542018 
L 910.317319 143.417048 
L 910.601879 143.626807 
L 911.463049 145.619907 
L 912.039658 142.564777 
L 912.324219 144.675775 
L 912.616268 145.305225 
L 912.900828 143.849714 
L 913.192877 145.724829 
L 913.477438 146.55089 
L 913.761998 146.996704 
L 914.054047 147.219611 
L 914.338608 147.101541 
L 914.915217 148.032525 
L 915.199778 146.5771 
L 915.491827 140.283291 
L 915.776387 144.269318 
L 916.068436 146.275479 
L 916.352997 147.403161 
L 916.637557 147.24582 
L 916.929606 147.757199 
L 917.506216 147.848974 
L 917.790776 145.121589 
L 918.075337 146.878634 
L 918.075337 146.878634 
" clip-path="url(#p5e77931997)" style="fill: none; stroke: #2563eb; stroke-opacity: 0.95; stroke-width: 1.3; stroke-linecap: square"/>
   </g>
   <g id="patch_23">
    <path d="M 39.330625 228.954713 
L 39.330625 17.061433 
" style="fill: none; stroke: #cbd5e1; stroke-width: 0.8; stroke-linejoin: miter; stroke-linecap: square"/>
   </g>
   <g id="patch_24">
    <path d="M 935.305625 228.954713 
L 935.305625 17.061433 
" style="fill: none; stroke: #cbd5e1; stroke-width: 0.8; stroke-linejoin: miter; stroke-linecap: square"/>
   </g>
   <g id="patch_25">
    <path d="M 39.330625 228.954713 
L 935.305625 228.954713 
" style="fill: none; stroke: #cbd5e1; stroke-width: 0.8; stroke-linejoin: miter; stroke-linecap: square"/>
   </g>
   <g id="patch_26">
    <path d="M 39.330625 17.061433 
L 935.305625 17.061433 
" style="fill: none; stroke: #cbd5e1; stroke-width: 0.8; stroke-linejoin: miter; stroke-linecap: square"/>
   </g>
   <g id="text_15">
    <!-- ACC -->
    <g style="fill: #475569" transform="translate(120.119841 13.27875) scale(0.08 -0.08)">
     <defs>
      <path id="DejaVuSans-43" d="M 4122 4306 
L 4122 3641 
Q 3803 3938 3442 4084 
Q 3081 4231 2675 4231 
Q 1875 4231 1450 3742 
Q 1025 3253 1025 2328 
Q 1025 1406 1450 917 
Q 1875 428 2675 428 
Q 3081 428 3442 575 
Q 3803 722 4122 1019 
L 4122 359 
Q 3791 134 3420 21 
Q 3050 -91 2638 -91 
Q 1578 -91 968 557 
Q 359 1206 359 2328 
Q 359 3453 968 4101 
Q 1578 4750 2638 4750 
Q 3056 4750 3426 4639 
Q 3797 4528 4122 4306 
z
" transform="scale(0.015625)"/>
     </defs>
     <use xlink:href="#DejaVuSans-41"/>
     <use xlink:href="#DejaVuSans-43" transform="translate(66.658203 0)"/>
     <use xlink:href="#DejaVuSans-43" transform="translate(136.482422 0)"/>
    </g>
   </g>
   <g id="text_16">
    <!-- OC -->
    <g style="fill: #475569" transform="translate(224.951364 13.27875) scale(0.08 -0.08)">
     <defs>
      <path id="DejaVuSans-4f" d="M 2522 4238 
Q 1834 4238 1429 3725 
Q 1025 3213 1025 2328 
Q 1025 1447 1429 934 
Q 1834 422 2522 422 
Q 3209 422 3611 934 
Q 4013 1447 4013 2328 
Q 4013 3213 3611 3725 
Q 3209 4238 2522 4238 
z
M 2522 4750 
Q 3503 4750 4090 4092 
Q 4678 3434 4678 2328 
Q 4678 1225 4090 567 
Q 3503 -91 2522 -91 
Q 1538 -91 948 565 
Q 359 1222 359 2328 
Q 359 3434 948 4092 
Q 1538 4750 2522 4750 
z
" transform="scale(0.015625)"/>
     </defs>
     <use xlink:href="#DejaVuSans-4f"/>
     <use xlink:href="#DejaVuSans-43" transform="translate(78.710938 0)"/>
    </g>
   </g>
   <g id="text_17">
    <!-- FCS -->
    <g style="fill: #475569" transform="translate(250.218477 13.27875) scale(0.08 -0.08)">
     <defs>
      <path id="DejaVuSans-46" d="M 628 4666 
L 3309 4666 
L 3309 4134 
L 1259 4134 
L 1259 2759 
L 3109 2759 
L 3109 2228 
L 1259 2228 
L 1259 0 
L 628 0 
L 628 4666 
z
" transform="scale(0.015625)"/>
      <path id="DejaVuSans-53" d="M 3425 4513 
L 3425 3897 
Q 3066 4069 2747 4153 
Q 2428 4238 2131 4238 
Q 1616 4238 1336 4038 
Q 1056 3838 1056 3469 
Q 1056 3159 1242 3001 
Q 1428 2844 1947 2747 
L 2328 2669 
Q 3034 2534 3370 2195 
Q 3706 1856 3706 1288 
Q 3706 609 3251 259 
Q 2797 -91 1919 -91 
Q 1588 -91 1214 -16 
Q 841 59 441 206 
L 441 856 
Q 825 641 1194 531 
Q 1563 422 1919 422 
Q 2459 422 2753 634 
Q 3047 847 3047 1241 
Q 3047 1584 2836 1778 
Q 2625 1972 2144 2069 
L 1759 2144 
Q 1053 2284 737 2584 
Q 422 2884 422 3419 
Q 422 4038 858 4394 
Q 1294 4750 2059 4750 
Q 2388 4750 2728 4690 
Q 3069 4631 3425 4513 
z
" transform="scale(0.015625)"/>
     </defs>
     <use xlink:href="#DejaVuSans-46"/>
     <use xlink:href="#DejaVuSans-43" transform="translate(57.519531 0)"/>
     <use xlink:href="#DejaVuSans-53" transform="translate(127.34375 0)"/>
    </g>
   </g>
   <g id="text_18">
    <!-- SR -->
    <g style="fill: #475569" transform="translate(279.491216 13.27875) scale(0.08 -0.08)">
     <defs>
      <path id="DejaVuSans-52" d="M 2841 2188 
Q 3044 2119 3236 1894 
Q 3428 1669 3622 1275 
L 4263 0 
L 3584 0 
L 2988 1197 
Q 2756 1666 2539 1819 
Q 2322 1972 1947 1972 
L 1259 1972 
L 1259 0 
L 628 0 
L 628 4666 
L 2053 4666 
Q 2853 4666 3247 4331 
Q 3641 3997 3641 3322 
Q 3641 2881 3436 2590 
Q 3231 2300 2841 2188 
z
M 1259 4147 
L 1259 2491 
L 2053 2491 
Q 2509 2491 2742 2702 
Q 2975 2913 2975 3322 
Q 2975 3731 2742 3939 
Q 2509 4147 2053 4147 
L 1259 4147 
z
" transform="scale(0.015625)"/>
     </defs>
     <use xlink:href="#DejaVuSans-53"/>
     <use xlink:href="#DejaVuSans-52" transform="translate(63.476562 0)"/>
    </g>
   </g>
   <g id="text_19">
    <!-- FFC -->
    <g style="fill: #475569" transform="translate(317.853137 13.27875) scale(0.08 -0.08)">
     <use xlink:href="#DejaVuSans-46"/>
     <use xlink:href="#DejaVuSans-46" transform="translate(57.519531 0)"/>
     <use xlink:href="#DejaVuSans-43" transform="translate(115.039062 0)"/>
    </g>
   </g>
   <g id="text_20">
    <!-- SS -->
    <g style="fill: #475569" transform="translate(412.276505 13.27875) scale(0.08 -0.08)">
     <use xlink:href="#DejaVuSans-53"/>
     <use xlink:href="#DejaVuSans-53" transform="translate(63.476562 0)"/>
    </g>
   </g>
   <g id="text_21">
    <!-- OC -->
    <g style="fill: #475569" transform="translate(478.80929 13.27875) scale(0.08 -0.08)">
     <use xlink:href="#DejaVuSans-4f"/>
     <use xlink:href="#DejaVuSans-43" transform="translate(78.710938 0)"/>
    </g>
   </g>
   <g id="text_22">
    <!-- FCS -->
    <g style="fill: #475569" transform="translate(501.829873 13.27875) scale(0.08 -0.08)">
     <use xlink:href="#DejaVuSans-46"/>
     <use xlink:href="#DejaVuSans-43" transform="translate(57.519531 0)"/>
     <use xlink:href="#DejaVuSans-53" transform="translate(127.34375 0)"/>
    </g>
   </g>
   <g id="text_23">
    <!-- SR -->
    <g style="fill: #475569" transform="translate(533.349142 13.27875) scale(0.08 -0.08)">
     <use xlink:href="#DejaVuSans-53"/>
     <use xlink:href="#DejaVuSans-52" transform="translate(63.476562 0)"/>
    </g>
   </g>
   <g id="text_24">
    <!-- FFC -->
    <g style="fill: #475569" transform="translate(571.711063 13.27875) scale(0.08 -0.08)">
     <use xlink:href="#DejaVuSans-46"/>
     <use xlink:href="#DejaVuSans-46" transform="translate(57.519531 0)"/>
     <use xlink:href="#DejaVuSans-43" transform="translate(115.039062 0)"/>
    </g>
   </g>
   <g id="text_25">
    <!-- SS -->
    <g style="fill: #475569" transform="translate(663.887901 13.27875) scale(0.08 -0.08)">
     <use xlink:href="#DejaVuSans-53"/>
     <use xlink:href="#DejaVuSans-53" transform="translate(63.476562 0)"/>
    </g>
   </g>
   <g id="text_26">
    <!-- OC -->
    <g style="fill: #475569" transform="translate(730.420685 13.27875) scale(0.08 -0.08)">
     <use xlink:href="#DejaVuSans-4f"/>
     <use xlink:href="#DejaVuSans-43" transform="translate(78.710938 0)"/>
    </g>
   </g>
   <g id="text_27">
    <!-- FCS -->
    <g style="fill: #475569" transform="translate(753.441269 13.27875) scale(0.08 -0.08)">
     <use xlink:href="#DejaVuSans-46"/>
     <use xlink:href="#DejaVuSans-43" transform="translate(57.519531 0)"/>
     <use xlink:href="#DejaVuSans-53" transform="translate(127.34375 0)"/>
    </g>
   </g>
   <g id="text_28">
    <!-- SR -->
    <g style="fill: #475569" transform="translate(791.700129 13.27875) scale(0.08 -0.08)">
     <use xlink:href="#DejaVuSans-53"/>
     <use xlink:href="#DejaVuSans-52" transform="translate(63.476562 0)"/>
    </g>
   </g>
   <g id="text_29">
    <!-- FFC -->
    <g style="fill: #475569" transform="translate(834.55511 13.27875) scale(0.08 -0.08)">
     <use xlink:href="#DejaVuSans-46"/>
     <use xlink:href="#DejaVuSans-46" transform="translate(57.519531 0)"/>
     <use xlink:href="#DejaVuSans-43" transform="translate(115.039062 0)"/>
    </g>
   </g>
   <g id="text_30">
    <!-- SS -->
    <g style="fill: #475569" transform="translate(888.540932 13.27875) scale(0.08 -0.08)">
     <use xlink:href="#DejaVuSans-53"/>
     <use xlink:href="#DejaVuSans-53" transform="translate(63.476562 0)"/>
    </g>
   </g>
   <g id="legend_1">
    <g id="line2d_26">
     <path d="M 889.158125 27.540183 
L 897.158125 27.540183 
L 905.158125 27.540183 
" style="fill: none; stroke: #2563eb; stroke-opacity: 0.95; stroke-width: 1.3; stroke-linecap: square"/>
    </g>
    <g id="text_31">
     <!-- EDA -->
     <g transform="translate(911.558125 30.340183) scale(0.08 -0.08)">
      <use xlink:href="#DejaVuSans-45"/>
      <use xlink:href="#DejaVuSans-44" transform="translate(63.183594 0)"/>
      <use xlink:href="#DejaVuSans-41" transform="translate(138.435547 0)"/>
     </g>
    </g>
   </g>
  </g>
 </g>
 <defs>
  <clipPath id="p5e77931997">
   <rect x="39.330625" y="17.061433" width="895.975" height="211.89328"/>
  </clipPath>
 </defs>
</svg>
