<?xml version="1.0" encoding="utf-8" standalone="no"?>
<!DOCTYPE svg PUBLIC "-//W3C//DTD SVG 1.1//EN"
  "http://www.w3.org/Graphics/SVG/1.1/DTD/svg11.dtd">
<svg xmlns:xlink="http://www.w3.org/1999/xlink" width="942.553437pt" height="265.54315pt" viewBox="0 0 942.553437 265.54315" xmlns="http://www.w3.org/2000/svg" version="1.1">
 <metadata>
  <rdf:RDF xmlns:dc="http://purl.org/dc/elements/1.1/" xmlns:cc="http://creativecommons.org/ns#" xmlns:rdf="http://www.w3.org/1999/02/22-rdf-syntax-ns#">
   <cc:Work>
    <dc:type rdf:resource="http://purl.org/dc/dcmitype/StillImage"/>
    <dc:date>2026-04-17T17:27:55.008132</dc:date>
    <dc:format>image/svg+xml</dc:format>
    <dc:creator>
     <cc:Agent>
      <dc:title>Matplotlib v3.10.8, https://matplotlib.org/</dc:title>
     </cc:Agent>
    </dc:creator>
   </cc:Work>
  </rdf:RDF>
 </metadata>
 <defs>
  <style type="text/css">*{stroke-linejoin: round; stroke-linecap: butt}</style>
 </defs>
 <g id="figure_1">
  <g id="patch_1">
   <path d="M 0 265.54315 
L 942.553437 265.54315 
L 942.553437 0 
L 0 0 
z
" style="fill: #ffffff"/>
  </g>
  <g id="axes_1">
   <g id="patch_2">
    <path d="M 42.190938 228.954713 
L 935.353438 228.954713 
L 935.353438 17.061433 
L 42.190938 17.061433 
z
" style="fill: #ffffff"/>
   </g>
   <g id="patch_3">
    <path d="M 42.190938 228.954713 
L 220.955141 228.954713 
L 220.955141 17.061433 
L 42.190938 17.061433 
z
" clip-path="url(#p08c1d947d9)" style="fill: #f8fafc; opacity: 0.45"/>
   </g>
   <g id="patch_4">
    <path d="M 220.955141 228.954713 
L 247.769772 228.954713 
L 247.769772 17.061433 
L 220.955141 17.061433 
z
" clip-path="url(#p08c1d947d9)" style="fill: #eff6ff; opacity: 0.45"/>
   </g>
   <g id="patch_5">
    <path d="M 247.769772 228.954713 
L 274.584403 228.954713 
L 274.584403 17.061433 
L 247.769772 17.061433 
z
" clip-path="url(#p08c1d947d9)" style="fill: #fef3c7; opacity: 0.45"/>
   </g>
   <g id="patch_6">
    <path d="M 274.584403 228.954713 
L 301.399033 228.954713 
L 301.399033 17.061433 
L 274.584403 17.061433 
z
" clip-path="url(#p08c1d947d9)" style="fill: #dcfce7; opacity: 0.45"/>
   </g>
   <g id="patch_7">
    <path d="M 301.399033 228.954713 
L 355.028294 228.954713 
L 355.028294 17.061433 
L 301.399033 17.061433 
z
" clip-path="url(#p08c1d947d9)" style="fill: #fee2e2; opacity: 0.45"/>
   </g>
   <g id="patch_8">
    <path d="M 355.028294 228.954713 
L 363.966505 228.954713 
L 363.966505 17.061433 
L 355.028294 17.061433 
z
" clip-path="url(#p08c1d947d9)" style="fill: #ede9fe; opacity: 0.45"/>
   </g>
   <g id="patch_9">
    <path d="M 363.966505 228.954713 
L 475.694132 228.954713 
L 475.694132 17.061433 
L 363.966505 17.061433 
z
" clip-path="url(#p08c1d947d9)" style="fill: #f8fafc; opacity: 0.45"/>
   </g>
   <g id="patch_10">
    <path d="M 475.694132 228.954713 
L 498.039658 228.954713 
L 498.039658 17.061433 
L 475.694132 17.061433 
z
" clip-path="url(#p08c1d947d9)" style="fill: #eff6ff; opacity: 0.45"/>
   </g>
   <g id="patch_11">
    <path d="M 498.039658 228.954713 
L 524.854288 228.954713 
L 524.854288 17.061433 
L 498.039658 17.061433 
z
" clip-path="url(#p08c1d947d9)" style="fill: #fef3c7; opacity: 0.45"/>
   </g>
   <g id="patch_12">
    <path d="M 524.854288 228.954713 
L 556.138024 228.954713 
L 556.138024 17.061433 
L 524.854288 17.061433 
z
" clip-path="url(#p08c1d947d9)" style="fill: #dcfce7; opacity: 0.45"/>
   </g>
   <g id="patch_13">
    <path d="M 556.138024 228.954713 
L 605.29818 228.954713 
L 605.29818 17.061433 
L 556.138024 17.061433 
z
" clip-path="url(#p08c1d947d9)" style="fill: #fee2e2; opacity: 0.45"/>
   </g>
   <g id="patch_14">
    <path d="M 605.29818 228.954713 
L 614.23639 228.954713 
L 614.23639 17.061433 
L 605.29818 17.061433 
z
" clip-path="url(#p08c1d947d9)" style="fill: #ede9fe; opacity: 0.45"/>
   </g>
   <g id="patch_15">
    <path d="M 614.23639 228.954713 
L 725.964018 228.954713 
L 725.964018 17.061433 
L 614.23639 17.061433 
z
" clip-path="url(#p08c1d947d9)" style="fill: #f8fafc; opacity: 0.45"/>
   </g>
   <g id="patch_16">
    <path d="M 725.964018 228.954713 
L 748.309543 228.954713 
L 748.309543 17.061433 
L 725.964018 17.061433 
z
" clip-path="url(#p08c1d947d9)" style="fill: #eff6ff; opacity: 0.45"/>
   </g>
   <g id="patch_17">
    <path d="M 748.309543 228.954713 
L 775.124174 228.954713 
L 775.124174 17.061433 
L 748.309543 17.061433 
z
" clip-path="url(#p08c1d947d9)" style="fill: #fef3c7; opacity: 0.45"/>
   </g>
   <g id="patch_18">
    <path d="M 775.124174 228.954713 
L 819.815225 228.954713 
L 819.815225 17.061433 
L 775.124174 17.061433 
z
" clip-path="url(#p08c1d947d9)" style="fill: #dcfce7; opacity: 0.45"/>
   </g>
   <g id="patch_19">
    <path d="M 819.815225 228.954713 
L 864.506276 228.954713 
L 864.506276 17.061433 
L 819.815225 17.061433 
z
" clip-path="url(#p08c1d947d9)" style="fill: #fee2e2; opacity: 0.45"/>
   </g>
   <g id="patch_20">
    <path d="M 864.506276 228.954713 
L 873.444486 228.954713 
L 873.444486 17.061433 
L 864.506276 17.061433 
z
" clip-path="url(#p08c1d947d9)" style="fill: #ede9fe; opacity: 0.45"/>
   </g>
   <g id="patch_21">
    <path d="M 873.444486 228.954713 
L 913.666432 228.954713 
L 913.666432 17.061433 
L 873.444486 17.061433 
z
" clip-path="url(#p08c1d947d9)" style="fill: #f8fafc; opacity: 0.45"/>
   </g>
   <g id="patch_22">
    <path d="M 913.666432 228.954713 
L 918.135537 228.954713 
L 918.135537 17.061433 
L 913.666432 17.061433 
z
" clip-path="url(#p08c1d947d9)" style="fill: #eff6ff; opacity: 0.45"/>
   </g>
   <g id="matplotlib.axis_1">
    <g id="xtick_1">
     <g id="line2d_1">
      <path d="M 42.190938 228.954713 
L 42.190938 17.061433 
" clip-path="url(#p08c1d947d9)" style="fill: none; stroke: #eef2f7; stroke-width: 0.55; stroke-linecap: square"/>
     </g>
     <g id="line2d_2">
      <defs>
       <path id="m07623488d3" d="M 0 0 
L 0 3.5 
" style="stroke: #000000; stroke-width: 0.8"/>
      </defs>
      <g>
       <use xlink:href="#m07623488d3" x="42.190938" y="228.954713" style="stroke: #000000; stroke-width: 0.8"/>
      </g>
     </g>
     <g id="text_1">
      <!-- 0 -->
      <g transform="translate(39.327813 242.793307) scale(0.09 -0.09)">
       <defs>
        <path id="DejaVuSans-30" d="M 2034 4250 
Q 1547 4250 1301 3770 
Q 1056 3291 1056 2328 
Q 1056 1369 1301 889 
Q 1547 409 2034 409 
Q 2525 409 2770 889 
Q 3016 1369 3016 2328 
Q 3016 3291 2770 3770 
Q 2525 4250 2034 4250 
z
M 2034 4750 
Q 2819 4750 3233 4129 
Q 3647 3509 3647 2328 
Q 3647 1150 3233 529 
Q 2819 -91 2034 -91 
Q 1250 -91 836 529 
Q 422 1150 422 2328 
Q 422 3509 836 4129 
Q 1250 4750 2034 4750 
z
" transform="scale(0.015625)"/>
       </defs>
       <use xlink:href="#DejaVuSans-30"/>
      </g>
     </g>
    </g>
    <g id="xtick_2">
     <g id="line2d_3">
      <path d="M 153.918565 228.954713 
L 153.918565 17.061433 
" clip-path="url(#p08c1d947d9)" style="fill: none; stroke: #eef2f7; stroke-width: 0.55; stroke-linecap: square"/>
     </g>
     <g id="line2d_4">
      <g>
       <use xlink:href="#m07623488d3" x="153.918565" y="228.954713" style="stroke: #000000; stroke-width: 0.8"/>
      </g>
     </g>
     <g id="text_2">
      <!-- 25 -->
      <g transform="translate(148.192315 242.793307) scale(0.09 -0.09)">
       <defs>
        <path id="DejaVuSans-32" d="M 1228 531 
L 3431 531 
L 3431 0 
L 469 0 
L 469 531 
Q 828 903 1448 1529 
Q 2069 2156 2228 2338 
Q 2531 2678 2651 2914 
Q 2772 3150 2772 3378 
Q 2772 3750 2511 3984 
Q 2250 4219 1831 4219 
Q 1534 4219 1204 4116 
Q 875 4013 500 3803 
L 500 4441 
Q 881 4594 1212 4672 
Q 1544 4750 1819 4750 
Q 2544 4750 2975 4387 
Q 3406 4025 3406 3419 
Q 3406 3131 3298 2873 
Q 3191 2616 2906 2266 
Q 2828 2175 2409 1742 
Q 1991 1309 1228 531 
z
" transform="scale(0.015625)"/>
        <path id="DejaVuSans-35" d="M 691 4666 
L 3169 4666 
L 3169 4134 
L 1269 4134 
L 1269 2991 
Q 1406 3038 1543 3061 
Q 1681 3084 1819 3084 
Q 2600 3084 3056 2656 
Q 3513 2228 3513 1497 
Q 3513 744 3044 326 
Q 2575 -91 1722 -91 
Q 1428 -91 1123 -41 
Q 819 9 494 109 
L 494 744 
Q 775 591 1075 516 
Q 1375 441 1709 441 
Q 2250 441 2565 725 
Q 2881 1009 2881 1497 
Q 2881 1984 2565 2268 
Q 2250 2553 1709 2553 
Q 1456 2553 1204 2497 
Q 953 2441 691 2322 
L 691 4666 
z
" transform="scale(0.015625)"/>
       </defs>
       <use xlink:href="#DejaVuSans-32"/>
       <use xlink:href="#DejaVuSans-35" transform="translate(63.623047 0)"/>
      </g>
     </g>
    </g>
    <g id="xtick_3">
     <g id="line2d_5">
      <path d="M 265.646192 228.954713 
L 265.646192 17.061433 
" clip-path="url(#p08c1d947d9)" style="fill: none; stroke: #eef2f7; stroke-width: 0.55; stroke-linecap: square"/>
     </g>
     <g id="line2d_6">
      <g>
       <use xlink:href="#m07623488d3" x="265.646192" y="228.954713" style="stroke: #000000; stroke-width: 0.8"/>
      </g>
     </g>
     <g id="text_3">
      <!-- 50 -->
      <g transform="translate(259.919942 242.793307) scale(0.09 -0.09)">
       <use xlink:href="#DejaVuSans-35"/>
       <use xlink:href="#DejaVuSans-30" transform="translate(63.623047 0)"/>
      </g>
     </g>
    </g>
    <g id="xtick_4">
     <g id="line2d_7">
      <path d="M 377.37382 228.954713 
L 377.37382 17.061433 
" clip-path="url(#p08c1d947d9)" style="fill: none; stroke: #eef2f7; stroke-width: 0.55; stroke-linecap: square"/>
     </g>
     <g id="line2d_8">
      <g>
       <use xlink:href="#m07623488d3" x="377.37382" y="228.954713" style="stroke: #000000; stroke-width: 0.8"/>
      </g>
     </g>
     <g id="text_4">
      <!-- 75 -->
      <g transform="translate(371.64757 242.793307) scale(0.09 -0.09)">
       <defs>
        <path id="DejaVuSans-37" d="M 525 4666 
L 3525 4666 
L 3525 4397 
L 1831 0 
L 1172 0 
L 2766 4134 
L 525 4134 
L 525 4666 
z
" transform="scale(0.015625)"/>
       </defs>
       <use xlink:href="#DejaVuSans-37"/>
       <use xlink:href="#DejaVuSans-35" transform="translate(63.623047 0)"/>
      </g>
     </g>
    </g>
    <g id="xtick_5">
     <g id="line2d_9">
      <path d="M 489.101447 228.954713 
L 489.101447 17.061433 
" clip-path="url(#p08c1d947d9)" style="fill: none; stroke: #eef2f7; stroke-width: 0.55; stroke-linecap: square"/>
     </g>
     <g id="line2d_10">
      <g>
       <use xlink:href="#m07623488d3" x="489.101447" y="228.954713" style="stroke: #000000; stroke-width: 0.8"/>
      </g>
     </g>
     <g id="text_5">
      <!-- 100 -->
      <g transform="translate(480.512072 242.793307) scale(0.09 -0.09)">
       <defs>
        <path id="DejaVuSans-31" d="M 794 531 
L 1825 531 
L 1825 4091 
L 703 3866 
L 703 4441 
L 1819 4666 
L 2450 4666 
L 2450 531 
L 3481 531 
L 3481 0 
L 794 0 
L 794 531 
z
" transform="scale(0.015625)"/>
       </defs>
       <use xlink:href="#DejaVuSans-31"/>
       <use xlink:href="#DejaVuSans-30" transform="translate(63.623047 0)"/>
       <use xlink:href="#DejaVuSans-30" transform="translate(127.246094 0)"/>
      </g>
     </g>
    </g>
    <g id="xtick_6">
     <g id="line2d_11">
      <path d="M 600.829075 228.954713 
L 600.829075 17.061433 
" clip-path="url(#p08c1d947d9)" style="fill: none; stroke: #eef2f7; stroke-width: 0.55; stroke-linecap: square"/>
     </g>
     <g id="line2d_12">
      <g>
       <use xlink:href="#m07623488d3" x="600.829075" y="228.954713" style="stroke: #000000; stroke-width: 0.8"/>
      </g>
     </g>
     <g id="text_6">
      <!-- 125 -->
      <g transform="translate(592.2397 242.793307) scale(0.09 -0.09)">
       <use xlink:href="#DejaVuSans-31"/>
       <use xlink:href="#DejaVuSans-32" transform="translate(63.623047 0)"/>
       <use xlink:href="#DejaVuSans-35" transform="translate(127.246094 0)"/>
      </g>
     </g>
    </g>
    <g id="xtick_7">
     <g id="line2d_13">
      <path d="M 712.556702 228.954713 
L 712.556702 17.061433 
" clip-path="url(#p08c1d947d9)" style="fill: none; stroke: #eef2f7; stroke-width: 0.55; stroke-linecap: square"/>
     </g>
     <g id="line2d_14">
      <g>
       <use xlink:href="#m07623488d3" x="712.556702" y="228.954713" style="stroke: #000000; stroke-width: 0.8"/>
      </g>
     </g>
     <g id="text_7">
      <!-- 150 -->
      <g transform="translate(703.967327 242.793307) scale(0.09 -0.09)">
       <use xlink:href="#DejaVuSans-31"/>
       <use xlink:href="#DejaVuSans-35" transform="translate(63.623047 0)"/>
       <use xlink:href="#DejaVuSans-30" transform="translate(127.246094 0)"/>
      </g>
     </g>
    </g>
    <g id="xtick_8">
     <g id="line2d_15">
      <path d="M 824.28433 228.954713 
L 824.28433 17.061433 
" clip-path="url(#p08c1d947d9)" style="fill: none; stroke: #eef2f7; stroke-width: 0.55; stroke-linecap: square"/>
     </g>
     <g id="line2d_16">
      <g>
       <use xlink:href="#m07623488d3" x="824.28433" y="228.954713" style="stroke: #000000; stroke-width: 0.8"/>
      </g>
     </g>
     <g id="text_8">
      <!-- 175 -->
      <g transform="translate(815.694955 242.793307) scale(0.09 -0.09)">
       <use xlink:href="#DejaVuSans-31"/>
       <use xlink:href="#DejaVuSans-37" transform="translate(63.623047 0)"/>
       <use xlink:href="#DejaVuSans-35" transform="translate(127.246094 0)"/>
      </g>
     </g>
    </g>
    <g id="text_9">
     <!-- Minutes since session start -->
     <g transform="translate(421.182344 256.263463) scale(0.1 -0.1)">
      <defs>
       <path id="DejaVuSans-4d" d="M 628 4666 
L 1569 4666 
L 2759 1491 
L 3956 4666 
L 4897 4666 
L 4897 0 
L 4281 0 
L 4281 4097 
L 3078 897 
L 2444 897 
L 1241 4097 
L 1241 0 
L 628 0 
L 628 4666 
z
" transform="scale(0.015625)"/>
       <path id="DejaVuSans-69" d="M 603 3500 
L 1178 3500 
L 1178 0 
L 603 0 
L 603 3500 
z
M 603 4863 
L 1178 4863 
L 1178 4134 
L 603 4134 
L 603 4863 
z
" transform="scale(0.015625)"/>
       <path id="DejaVuSans-6e" d="M 3513 2113 
L 3513 0 
L 2938 0 
L 2938 2094 
Q 2938 2591 2744 2837 
Q 2550 3084 2163 3084 
Q 1697 3084 1428 2787 
Q 1159 2491 1159 1978 
L 1159 0 
L 581 0 
L 581 3500 
L 1159 3500 
L 1159 2956 
Q 1366 3272 1645 3428 
Q 1925 3584 2291 3584 
Q 2894 3584 3203 3211 
Q 3513 2838 3513 2113 
z
" transform="scale(0.015625)"/>
       <path id="DejaVuSans-75" d="M 544 1381 
L 544 3500 
L 1119 3500 
L 1119 1403 
Q 1119 906 1312 657 
Q 1506 409 1894 409 
Q 2359 409 2629 706 
Q 2900 1003 2900 1516 
L 2900 3500 
L 3475 3500 
L 3475 0 
L 2900 0 
L 2900 538 
Q 2691 219 2414 64 
Q 2138 -91 1772 -91 
Q 1169 -91 856 284 
Q 544 659 544 1381 
z
M 1991 3584 
L 1991 3584 
z
" transform="scale(0.015625)"/>
       <path id="DejaVuSans-74" d="M 1172 4494 
L 1172 3500 
L 2356 3500 
L 2356 3053 
L 1172 3053 
L 1172 1153 
Q 1172 725 1289 603 
Q 1406 481 1766 481 
L 2356 481 
L 2356 0 
L 1766 0 
Q 1100 0 847 248 
Q 594 497 594 1153 
L 594 3053 
L 172 3053 
L 172 3500 
L 594 3500 
L 594 4494 
L 1172 4494 
z
" transform="scale(0.015625)"/>
       <path id="DejaVuSans-65" d="M 3597 1894 
L 3597 1613 
L 953 1613 
Q 991 1019 1311 708 
Q 1631 397 2203 397 
Q 2534 397 2845 478 
Q 3156 559 3463 722 
L 3463 178 
Q 3153 47 2828 -22 
Q 2503 -91 2169 -91 
Q 1331 -91 842 396 
Q 353 884 353 1716 
Q 353 2575 817 3079 
Q 1281 3584 2069 3584 
Q 2775 3584 3186 3129 
Q 3597 2675 3597 1894 
z
M 3022 2063 
Q 3016 2534 2758 2815 
Q 2500 3097 2075 3097 
Q 1594 3097 1305 2825 
Q 1016 2553 972 2059 
L 3022 2063 
z
" transform="scale(0.015625)"/>
       <path id="DejaVuSans-73" d="M 2834 3397 
L 2834 2853 
Q 2591 2978 2328 3040 
Q 2066 3103 1784 3103 
Q 1356 3103 1142 2972 
Q 928 2841 928 2578 
Q 928 2378 1081 2264 
Q 1234 2150 1697 2047 
L 1894 2003 
Q 2506 1872 2764 1633 
Q 3022 1394 3022 966 
Q 3022 478 2636 193 
Q 2250 -91 1575 -91 
Q 1294 -91 989 -36 
Q 684 19 347 128 
L 347 722 
Q 666 556 975 473 
Q 1284 391 1588 391 
Q 1994 391 2212 530 
Q 2431 669 2431 922 
Q 2431 1156 2273 1281 
Q 2116 1406 1581 1522 
L 1381 1569 
Q 847 1681 609 1914 
Q 372 2147 372 2553 
Q 372 3047 722 3315 
Q 1072 3584 1716 3584 
Q 2034 3584 2315 3537 
Q 2597 3491 2834 3397 
z
" transform="scale(0.015625)"/>
       <path id="DejaVuSans-20" transform="scale(0.015625)"/>
       <path id="DejaVuSans-63" d="M 3122 3366 
L 3122 2828 
Q 2878 2963 2633 3030 
Q 2388 3097 2138 3097 
Q 1578 3097 1268 2742 
Q 959 2388 959 1747 
Q 959 1106 1268 751 
Q 1578 397 2138 397 
Q 2388 397 2633 464 
Q 2878 531 3122 666 
L 3122 134 
Q 2881 22 2623 -34 
Q 2366 -91 2075 -91 
Q 1284 -91 818 406 
Q 353 903 353 1747 
Q 353 2603 823 3093 
Q 1294 3584 2113 3584 
Q 2378 3584 2631 3529 
Q 2884 3475 3122 3366 
z
" transform="scale(0.015625)"/>
       <path id="DejaVuSans-6f" d="M 1959 3097 
Q 1497 3097 1228 2736 
Q 959 2375 959 1747 
Q 959 1119 1226 758 
Q 1494 397 1959 397 
Q 2419 397 2687 759 
Q 2956 1122 2956 1747 
Q 2956 2369 2687 2733 
Q 2419 3097 1959 3097 
z
M 1959 3584 
Q 2709 3584 3137 3096 
Q 3566 2609 3566 1747 
Q 3566 888 3137 398 
Q 2709 -91 1959 -91 
Q 1206 -91 779 398 
Q 353 888 353 1747 
Q 353 2609 779 3096 
Q 1206 3584 1959 3584 
z
" transform="scale(0.015625)"/>
       <path id="DejaVuSans-61" d="M 2194 1759 
Q 1497 1759 1228 1600 
Q 959 1441 959 1056 
Q 959 750 1161 570 
Q 1363 391 1709 391 
Q 2188 391 2477 730 
Q 2766 1069 2766 1631 
L 2766 1759 
L 2194 1759 
z
M 3341 1997 
L 3341 0 
L 2766 0 
L 2766 531 
Q 2569 213 2275 61 
Q 1981 -91 1556 -91 
Q 1019 -91 701 211 
Q 384 513 384 1019 
Q 384 1609 779 1909 
Q 1175 2209 1959 2209 
L 2766 2209 
L 2766 2266 
Q 2766 2663 2505 2880 
Q 2244 3097 1772 3097 
Q 1472 3097 1187 3025 
Q 903 2953 641 2809 
L 641 3341 
Q 956 3463 1253 3523 
Q 1550 3584 1831 3584 
Q 2591 3584 2966 3190 
Q 3341 2797 3341 1997 
z
" transform="scale(0.015625)"/>
       <path id="DejaVuSans-72" d="M 2631 2963 
Q 2534 3019 2420 3045 
Q 2306 3072 2169 3072 
Q 1681 3072 1420 2755 
Q 1159 2438 1159 1844 
L 1159 0 
L 581 0 
L 581 3500 
L 1159 3500 
L 1159 2956 
Q 1341 3275 1631 3429 
Q 1922 3584 2338 3584 
Q 2397 3584 2469 3576 
Q 2541 3569 2628 3553 
L 2631 2963 
z
" transform="scale(0.015625)"/>
      </defs>
      <use xlink:href="#DejaVuSans-4d"/>
      <use xlink:href="#DejaVuSans-69" transform="translate(86.279297 0)"/>
      <use xlink:href="#DejaVuSans-6e" transform="translate(114.0625 0)"/>
      <use xlink:href="#DejaVuSans-75" transform="translate(177.441406 0)"/>
      <use xlink:href="#DejaVuSans-74" transform="translate(240.820312 0)"/>
      <use xlink:href="#DejaVuSans-65" transform="translate(280.029297 0)"/>
      <use xlink:href="#DejaVuSans-73" transform="translate(341.552734 0)"/>
      <use xlink:href="#DejaVuSans-20" transform="translate(393.652344 0)"/>
      <use xlink:href="#DejaVuSans-73" transform="translate(425.439453 0)"/>
      <use xlink:href="#DejaVuSans-69" transform="translate(477.539062 0)"/>
      <use xlink:href="#DejaVuSans-6e" transform="translate(505.322266 0)"/>
      <use xlink:href="#DejaVuSans-63" transform="translate(568.701172 0)"/>
      <use xlink:href="#DejaVuSans-65" transform="translate(623.681641 0)"/>
      <use xlink:href="#DejaVuSans-20" transform="translate(685.205078 0)"/>
      <use xlink:href="#DejaVuSans-73" transform="translate(716.992188 0)"/>
      <use xlink:href="#DejaVuSans-65" transform="translate(769.091797 0)"/>
      <use xlink:href="#DejaVuSans-73" transform="translate(830.615234 0)"/>
      <use xlink:href="#DejaVuSans-73" transform="translate(882.714844 0)"/>
      <use xlink:href="#DejaVuSans-69" transform="translate(934.814453 0)"/>
      <use xlink:href="#DejaVuSans-6f" transform="translate(962.597656 0)"/>
      <use xlink:href="#DejaVuSans-6e" transform="translate(1023.779297 0)"/>
      <use xlink:href="#DejaVuSans-20" transform="translate(1087.158203 0)"/>
      <use xlink:href="#DejaVuSans-73" transform="translate(1118.945312 0)"/>
      <use xlink:href="#DejaVuSans-74" transform="translate(1171.044922 0)"/>
      <use xlink:href="#DejaVuSans-61" transform="translate(1210.253906 0)"/>
      <use xlink:href="#DejaVuSans-72" transform="translate(1271.533203 0)"/>
      <use xlink:href="#DejaVuSans-74" transform="translate(1312.646484 0)"/>
     </g>
    </g>
   </g>
   <g id="matplotlib.axis_2">
    <g id="ytick_1">
     <g id="line2d_17">
      <path d="M 42.190938 217.9513 
L 935.353438 217.9513 
" clip-path="url(#p08c1d947d9)" style="fill: none; stroke: #eef2f7; stroke-opacity: 0.25; stroke-width: 0.55; stroke-linecap: square"/>
     </g>
     <g id="line2d_18">
      <defs>
       <path id="me1aad2cbee" d="M 0 0 
L -3.5 0 
" style="stroke: #000000; stroke-width: 0.8"/>
      </defs>
      <g>
       <use xlink:href="#me1aad2cbee" x="42.190938" y="217.9513" style="stroke: #000000; stroke-width: 0.8"/>
      </g>
     </g>
     <g id="text_10">
      <!-- 0.4 -->
      <g transform="translate(20.878125 221.370597) scale(0.09 -0.09)">
       <defs>
        <path id="DejaVuSans-2e" d="M 684 794 
L 1344 794 
L 1344 0 
L 684 0 
L 684 794 
z
" transform="scale(0.015625)"/>
        <path id="DejaVuSans-34" d="M 2419 4116 
L 825 1625 
L 2419 1625 
L 2419 4116 
z
M 2253 4666 
L 3047 4666 
L 3047 1625 
L 3713 1625 
L 3713 1100 
L 3047 1100 
L 3047 0 
L 2419 0 
L 2419 1100 
L 313 1100 
L 313 1709 
L 2253 4666 
z
" transform="scale(0.015625)"/>
       </defs>
       <use xlink:href="#DejaVuSans-30"/>
       <use xlink:href="#DejaVuSans-2e" transform="translate(63.623047 0)"/>
       <use xlink:href="#DejaVuSans-34" transform="translate(95.410156 0)"/>
      </g>
     </g>
    </g>
    <g id="ytick_2">
     <g id="line2d_19">
      <path d="M 42.190938 189.317537 
L 935.353438 189.317537 
" clip-path="url(#p08c1d947d9)" style="fill: none; stroke: #eef2f7; stroke-opacity: 0.25; stroke-width: 0.55; stroke-linecap: square"/>
     </g>
     <g id="line2d_20">
      <g>
       <use xlink:href="#me1aad2cbee" x="42.190938" y="189.317537" style="stroke: #000000; stroke-width: 0.8"/>
      </g>
     </g>
     <g id="text_11">
      <!-- 0.6 -->
      <g transform="translate(20.878125 192.736834) scale(0.09 -0.09)">
       <defs>
        <path id="DejaVuSans-36" d="M 2113 2584 
Q 1688 2584 1439 2293 
Q 1191 2003 1191 1497 
Q 1191 994 1439 701 
Q 1688 409 2113 409 
Q 2538 409 2786 701 
Q 3034 994 3034 1497 
Q 3034 2003 2786 2293 
Q 2538 2584 2113 2584 
z
M 3366 4563 
L 3366 3988 
Q 3128 4100 2886 4159 
Q 2644 4219 2406 4219 
Q 1781 4219 1451 3797 
Q 1122 3375 1075 2522 
Q 1259 2794 1537 2939 
Q 1816 3084 2150 3084 
Q 2853 3084 3261 2657 
Q 3669 2231 3669 1497 
Q 3669 778 3244 343 
Q 2819 -91 2113 -91 
Q 1303 -91 875 529 
Q 447 1150 447 2328 
Q 447 3434 972 4092 
Q 1497 4750 2381 4750 
Q 2619 4750 2861 4703 
Q 3103 4656 3366 4563 
z
" transform="scale(0.015625)"/>
       </defs>
       <use xlink:href="#DejaVuSans-30"/>
       <use xlink:href="#DejaVuSans-2e" transform="translate(63.623047 0)"/>
       <use xlink:href="#DejaVuSans-36" transform="translate(95.410156 0)"/>
      </g>
     </g>
    </g>
    <g id="ytick_3">
     <g id="line2d_21">
      <path d="M 42.190938 160.683774 
L 935.353438 160.683774 
" clip-path="url(#p08c1d947d9)" style="fill: none; stroke: #eef2f7; stroke-opacity: 0.25; stroke-width: 0.55; stroke-linecap: square"/>
     </g>
     <g id="line2d_22">
      <g>
       <use xlink:href="#me1aad2cbee" x="42.190938" y="160.683774" style="stroke: #000000; stroke-width: 0.8"/>
      </g>
     </g>
     <g id="text_12">
      <!-- 0.8 -->
      <g transform="translate(20.878125 164.103071) scale(0.09 -0.09)">
       <defs>
        <path id="DejaVuSans-38" d="M 2034 2216 
Q 1584 2216 1326 1975 
Q 1069 1734 1069 1313 
Q 1069 891 1326 650 
Q 1584 409 2034 409 
Q 2484 409 2743 651 
Q 3003 894 3003 1313 
Q 3003 1734 2745 1975 
Q 2488 2216 2034 2216 
z
M 1403 2484 
Q 997 2584 770 2862 
Q 544 3141 544 3541 
Q 544 4100 942 4425 
Q 1341 4750 2034 4750 
Q 2731 4750 3128 4425 
Q 3525 4100 3525 3541 
Q 3525 3141 3298 2862 
Q 3072 2584 2669 2484 
Q 3125 2378 3379 2068 
Q 3634 1759 3634 1313 
Q 3634 634 3220 271 
Q 2806 -91 2034 -91 
Q 1263 -91 848 271 
Q 434 634 434 1313 
Q 434 1759 690 2068 
Q 947 2378 1403 2484 
z
M 1172 3481 
Q 1172 3119 1398 2916 
Q 1625 2713 2034 2713 
Q 2441 2713 2670 2916 
Q 2900 3119 2900 3481 
Q 2900 3844 2670 4047 
Q 2441 4250 2034 4250 
Q 1625 4250 1398 4047 
Q 1172 3844 1172 3481 
z
" transform="scale(0.015625)"/>
       </defs>
       <use xlink:href="#DejaVuSans-30"/>
       <use xlink:href="#DejaVuSans-2e" transform="translate(63.623047 0)"/>
       <use xlink:href="#DejaVuSans-38" transform="translate(95.410156 0)"/>
      </g>
     </g>
    </g>
    <g id="ytick_4">
     <g id="line2d_23">
      <path d="M 42.190938 132.050012 
L 935.353438 132.050012 
" clip-path="url(#p08c1d947d9)" style="fill: none; stroke: #eef2f7; stroke-opacity: 0.25; stroke-width: 0.55; stroke-linecap: square"/>
     </g>
     <g id="line2d_24">
      <g>
       <use xlink:href="#me1aad2cbee" x="42.190938" y="132.050012" style="stroke: #000000; stroke-width: 0.8"/>
      </g>
     </g>
     <g id="text_13">
      <!-- 1.0 -->
      <g transform="translate(20.878125 135.469309) scale(0.09 -0.09)">
       <use xlink:href="#DejaVuSans-31"/>
       <use xlink:href="#DejaVuSans-2e" transform="translate(63.623047 0)"/>
       <use xlink:href="#DejaVuSans-30" transform="translate(95.410156 0)"/>
      </g>
     </g>
    </g>
    <g id="ytick_5">
     <g id="line2d_25">
      <path d="M 42.190938 103.416249 
L 935.353438 103.416249 
" clip-path="url(#p08c1d947d9)" style="fill: none; stroke: #eef2f7; stroke-opacity: 0.25; stroke-width: 0.55; stroke-linecap: square"/>
     </g>
     <g id="line2d_26">
      <g>
       <use xlink:href="#me1aad2cbee" x="42.190938" y="103.416249" style="stroke: #000000; stroke-width: 0.8"/>
      </g>
     </g>
     <g id="text_14">
      <!-- 1.2 -->
      <g transform="translate(20.878125 106.835546) scale(0.09 -0.09)">
       <use xlink:href="#DejaVuSans-31"/>
       <use xlink:href="#DejaVuSans-2e" transform="translate(63.623047 0)"/>
       <use xlink:href="#DejaVuSans-32" transform="translate(95.410156 0)"/>
      </g>
     </g>
    </g>
    <g id="ytick_6">
     <g id="line2d_27">
      <path d="M 42.190938 74.782486 
L 935.353438 74.782486 
" clip-path="url(#p08c1d947d9)" style="fill: none; stroke: #eef2f7; stroke-opacity: 0.25; stroke-width: 0.55; stroke-linecap: square"/>
     </g>
     <g id="line2d_28">
      <g>
       <use xlink:href="#me1aad2cbee" x="42.190938" y="74.782486" style="stroke: #000000; stroke-width: 0.8"/>
      </g>
     </g>
     <g id="text_15">
      <!-- 1.4 -->
      <g transform="translate(20.878125 78.201783) scale(0.09 -0.09)">
       <use xlink:href="#DejaVuSans-31"/>
       <use xlink:href="#DejaVuSans-2e" transform="translate(63.623047 0)"/>
       <use xlink:href="#DejaVuSans-34" transform="translate(95.410156 0)"/>
      </g>
     </g>
    </g>
    <g id="ytick_7">
     <g id="line2d_29">
      <path d="M 42.190938 46.148723 
L 935.353438 46.148723 
" clip-path="url(#p08c1d947d9)" style="fill: none; stroke: #eef2f7; stroke-opacity: 0.25; stroke-width: 0.55; stroke-linecap: square"/>
     </g>
     <g id="line2d_30">
      <g>
       <use xlink:href="#me1aad2cbee" x="42.190938" y="46.148723" style="stroke: #000000; stroke-width: 0.8"/>
      </g>
     </g>
     <g id="text_16">
      <!-- 1.6 -->
      <g transform="translate(20.878125 49.56802) scale(0.09 -0.09)">
       <use xlink:href="#DejaVuSans-31"/>
       <use xlink:href="#DejaVuSans-2e" transform="translate(63.623047 0)"/>
       <use xlink:href="#DejaVuSans-36" transform="translate(95.410156 0)"/>
      </g>
     </g>
    </g>
    <g id="ytick_8">
     <g id="line2d_31">
      <path d="M 42.190938 17.51496 
L 935.353438 17.51496 
" clip-path="url(#p08c1d947d9)" style="fill: none; stroke: #eef2f7; stroke-opacity: 0.25; stroke-width: 0.55; stroke-linecap: square"/>
     </g>
     <g id="line2d_32">
      <g>
       <use xlink:href="#me1aad2cbee" x="42.190938" y="17.51496" style="stroke: #000000; stroke-width: 0.8"/>
      </g>
     </g>
     <g id="text_17">
      <!-- 1.8 -->
      <g transform="translate(20.878125 20.934257) scale(0.09 -0.09)">
       <use xlink:href="#DejaVuSans-31"/>
       <use xlink:href="#DejaVuSans-2e" transform="translate(63.623047 0)"/>
       <use xlink:href="#DejaVuSans-38" transform="translate(95.410156 0)"/>
      </g>
     </g>
    </g>
    <g id="text_18">
     <!-- EDA (uS) -->
     <g transform="translate(14.798438 145.183854) rotate(-90) scale(0.1 -0.1)">
      <defs>
       <path id="DejaVuSans-45" d="M 628 4666 
L 3578 4666 
L 3578 4134 
L 1259 4134 
L 1259 2753 
L 3481 2753 
L 3481 2222 
L 1259 2222 
L 1259 531 
L 3634 531 
L 3634 0 
L 628 0 
L 628 4666 
z
" transform="scale(0.015625)"/>
       <path id="DejaVuSans-44" d="M 1259 4147 
L 1259 519 
L 2022 519 
Q 2988 519 3436 956 
Q 3884 1394 3884 2338 
Q 3884 3275 3436 3711 
Q 2988 4147 2022 4147 
L 1259 4147 
z
M 628 4666 
L 1925 4666 
Q 3281 4666 3915 4102 
Q 4550 3538 4550 2338 
Q 4550 1131 3912 565 
Q 3275 0 1925 0 
L 628 0 
L 628 4666 
z
" transform="scale(0.015625)"/>
       <path id="DejaVuSans-41" d="M 2188 4044 
L 1331 1722 
L 3047 1722 
L 2188 4044 
z
M 1831 4666 
L 2547 4666 
L 4325 0 
L 3669 0 
L 3244 1197 
L 1141 1197 
L 716 0 
L 50 0 
L 1831 4666 
z
" transform="scale(0.015625)"/>
       <path id="DejaVuSans-28" d="M 1984 4856 
Q 1566 4138 1362 3434 
Q 1159 2731 1159 2009 
Q 1159 1288 1364 580 
Q 1569 -128 1984 -844 
L 1484 -844 
Q 1016 -109 783 600 
Q 550 1309 550 2009 
Q 550 2706 781 3412 
Q 1013 4119 1484 4856 
L 1984 4856 
z
" transform="scale(0.015625)"/>
       <path id="DejaVuSans-53" d="M 3425 4513 
L 3425 3897 
Q 3066 4069 2747 4153 
Q 2428 4238 2131 4238 
Q 1616 4238 1336 4038 
Q 1056 3838 1056 3469 
Q 1056 3159 1242 3001 
Q 1428 2844 1947 2747 
L 2328 2669 
Q 3034 2534 3370 2195 
Q 3706 1856 3706 1288 
Q 3706 609 3251 259 
Q 2797 -91 1919 -91 
Q 1588 -91 1214 -16 
Q 841 59 441 206 
L 441 856 
Q 825 641 1194 531 
Q 1563 422 1919 422 
Q 2459 422 2753 634 
Q 3047 847 3047 1241 
Q 3047 1584 2836 1778 
Q 2625 1972 2144 2069 
L 1759 2144 
Q 1053 2284 737 2584 
Q 422 2884 422 3419 
Q 422 4038 858 4394 
Q 1294 4750 2059 4750 
Q 2388 4750 2728 4690 
Q 3069 4631 3425 4513 
z
" transform="scale(0.015625)"/>
       <path id="DejaVuSans-29" d="M 513 4856 
L 1013 4856 
Q 1481 4119 1714 3412 
Q 1947 2706 1947 2009 
Q 1947 1309 1714 600 
Q 1481 -109 1013 -844 
L 513 -844 
Q 928 -128 1133 580 
Q 1338 1288 1338 2009 
Q 1338 2731 1133 3434 
Q 928 4138 513 4856 
z
" transform="scale(0.015625)"/>
      </defs>
      <use xlink:href="#DejaVuSans-45"/>
      <use xlink:href="#DejaVuSans-44" transform="translate(63.183594 0)"/>
      <use xlink:href="#DejaVuSans-41" transform="translate(138.435547 0)"/>
      <use xlink:href="#DejaVuSans-20" transform="translate(206.84375 0)"/>
      <use xlink:href="#DejaVuSans-28" transform="translate(238.630859 0)"/>
      <use xlink:href="#DejaVuSans-75" transform="translate(277.644531 0)"/>
      <use xlink:href="#DejaVuSans-53" transform="translate(341.023438 0)"/>
      <use xlink:href="#DejaVuSans-29" transform="translate(404.5 0)"/>
     </g>
    </g>
   </g>
   <g id="line2d_33">
    <path d="M 42.193846 214.789167 
L 42.491786 213.129528 
L 42.789726 214.78307 
L 43.087667 215.691097 
L 43.385607 216.180661 
L 43.683547 213.929892 
L 43.981488 213.753163 
L 44.279428 215.384359 
L 44.577368 212.288536 
L 44.875309 212.365731 
L 45.173249 186.217833 
L 45.47119 206.228939 
L 45.76913 212.871543 
L 46.06707 214.421487 
L 46.365011 215.091843 
L 46.662951 216.140033 
L 46.960891 212.467301 
L 47.258832 216.820543 
L 47.556772 217.216661 
L 47.854712 219.3232 
L 48.152653 213.777539 
L 48.450593 214.254913 
L 48.748533 213.923799 
L 49.046474 211.163156 
L 49.344414 215.624061 
L 49.642354 216.215192 
L 49.940295 212.404328 
L 50.238235 213.759256 
L 50.536176 210.955954 
L 50.834116 213.143749 
L 51.132056 213.192501 
L 51.429997 212.260098 
L 51.727937 213.113276 
L 52.025877 210.429828 
L 52.323818 213.639406 
L 52.621758 213.50127 
L 53.217639 211.254567 
L 53.515579 212.818729 
L 53.81352 213.17828 
L 54.11146 212.788256 
L 54.4094 212.938578 
L 55.005281 211.679123 
L 55.303221 212.501832 
L 55.601162 212.741534 
L 55.899102 213.397673 
L 56.197042 212.014303 
L 56.792923 211.658813 
L 57.090863 211.58365 
L 57.388804 212.136183 
L 57.686744 212.201187 
L 57.984685 212.012272 
L 58.282625 212.087431 
L 58.580565 212.35151 
L 58.878506 212.390107 
L 59.176446 212.272289 
L 59.474386 212.294634 
L 59.772327 212.605433 
L 60.070267 212.402297 
L 60.368207 212.550588 
L 60.666148 213.214846 
L 60.964088 213.300165 
L 61.262028 212.956861 
L 61.559969 213.180316 
L 62.45379 212.711065 
L 62.75173 212.91014 
L 63.049671 213.649561 
L 63.347611 213.911609 
L 63.645551 213.91364 
L 63.943492 214.037555 
L 64.241432 214.69572 
L 64.539372 214.772915 
L 65.135253 215.512336 
L 65.433193 215.615938 
L 65.731134 215.146687 
L 66.029074 215.177156 
L 66.327015 213.828322 
L 66.624955 214.240692 
L 67.220836 214.15944 
L 67.518776 214.356483 
L 67.816716 212.446987 
L 68.114657 208.764096 
L 68.412597 210.263253 
L 68.710537 210.177935 
L 69.008478 210.819853 
L 69.306418 210.941733 
L 69.604358 211.378483 
L 69.902299 211.48208 
L 70.200239 211.305351 
L 70.49818 211.435359 
L 70.79612 210.610619 
L 71.09406 210.964082 
L 71.392001 211.693344 
L 71.689941 212.006175 
L 71.987881 211.666937 
L 72.285822 211.841636 
L 72.881702 211.920861 
L 73.179643 212.063055 
L 73.477583 211.933047 
L 73.775524 211.067679 
L 74.073464 210.736565 
L 75.265225 211.459735 
L 76.456987 211.238315 
L 76.754927 211.48208 
L 77.052867 211.27082 
L 77.350808 209.080993 
L 77.648748 208.022644 
L 77.946688 208.134369 
L 78.244629 208.000299 
L 78.542569 207.998268 
L 78.84051 207.27916 
L 79.13845 207.54527 
L 79.43639 207.506673 
L 79.734331 207.96983 
L 80.926092 208.00233 
L 82.117853 207.963733 
L 82.415794 207.46808 
L 82.713734 207.803255 
L 84.203436 207.433545 
L 84.501376 207.206028 
L 84.799317 207.187749 
L 85.097257 207.409169 
L 85.395197 206.590522 
L 86.289019 207.994206 
L 86.586959 206.948047 
L 86.884899 207.104462 
L 87.18284 206.968361 
L 87.48078 206.580367 
L 87.77872 206.716468 
L 88.076661 207.183683 
L 88.672541 207.230408 
L 89.268422 206.722561 
L 89.566362 206.982578 
L 89.864303 206.89929 
L 90.460184 207.039458 
L 90.758124 206.612867 
L 91.056064 206.509266 
L 91.651945 206.545832 
L 92.545766 206.137524 
L 92.843706 206.208625 
L 93.141647 206.023768 
L 93.737527 206.031892 
L 94.035468 206.019706 
L 94.333408 205.635774 
L 94.631348 205.849069 
L 94.929289 205.605305 
L 95.227229 205.771875 
L 96.12105 205.284346 
L 96.716931 205.095427 
L 97.014871 204.595708 
L 97.312812 204.47992 
L 97.610752 204.691185 
L 97.908692 204.662743 
L 98.504573 204.469766 
L 98.802514 204.388509 
L 99.100454 203.935511 
L 99.398394 204.197559 
L 99.696335 203.980201 
L 99.994275 204.1549 
L 100.292215 203.760813 
L 100.590156 204.016768 
L 100.888096 203.602367 
L 101.186036 203.846131 
L 101.483977 203.484544 
L 101.781917 203.31797 
L 102.079857 203.364691 
L 102.973679 202.887317 
L 103.271619 202.982799 
L 103.569559 202.777627 
L 103.8675 202.773565 
L 104.46338 202.342912 
L 104.761321 201.924445 
L 105.059261 202.178369 
L 105.953082 202.318532 
L 106.251023 201.926476 
L 106.548963 201.942732 
L 106.846903 202.074772 
L 107.442784 201.302846 
L 107.740724 201.477544 
L 108.038665 201.479575 
L 108.336605 201.00017 
L 108.634545 201.004232 
L 108.932486 200.778751 
L 109.230426 200.84172 
L 109.528366 200.455757 
L 109.826307 200.423261 
L 110.124247 200.565455 
L 110.422187 199.982445 
L 110.720128 200.065732 
L 111.018068 199.878848 
L 111.316009 199.45835 
L 112.50777 199.041922 
L 112.80571 198.653928 
L 113.103651 198.735185 
L 113.401591 198.584858 
L 113.699531 198.217183 
L 113.997472 198.343129 
L 114.295412 198.676269 
L 114.593352 198.629548 
L 114.891293 198.373594 
L 115.189233 198.672207 
L 115.487174 198.381726 
L 116.380995 198.460943 
L 116.678935 197.926693 
L 117.274816 198.406098 
L 117.572756 198.115608 
L 118.168637 197.981538 
L 118.466577 197.774344 
L 119.658339 198.03436 
L 119.956279 197.550885 
L 120.254219 197.65449 
L 120.8501 197.256342 
L 121.14804 197.554955 
L 121.445981 197.372125 
L 121.743921 197.333527 
L 122.041861 197.449319 
L 122.637742 197.197426 
L 122.935683 196.959759 
L 123.233623 197.053201 
L 124.127444 196.866317 
L 124.723325 196.569734 
L 125.021265 196.854122 
L 125.319205 196.443788 
L 125.915086 196.470199 
L 126.213026 196.27112 
L 126.808907 196.102515 
L 127.404788 195.830313 
L 127.702728 195.661707 
L 128.000669 195.814065 
L 128.596549 195.482947 
L 129.49037 195.69218 
L 129.788311 195.300125 
L 130.086251 195.269651 
L 130.384191 195.096984 
L 130.682132 195.491071 
L 130.980072 195.387474 
L 131.278013 195.413876 
L 131.575953 195.251373 
L 131.873893 194.950728 
L 132.171834 195.300125 
L 132.469774 195.151829 
L 133.065655 195.206682 
L 133.363592 194.906038 
L 133.661532 194.851184 
L 133.959472 194.940564 
L 134.555353 194.495695 
L 134.853293 194.467261 
L 135.449174 194.615548 
L 135.747114 194.552571 
L 136.045055 194.369748 
L 136.342995 194.436788 
L 136.640935 194.375841 
L 137.236816 193.910662 
L 137.534756 193.524699 
L 137.832697 193.581575 
L 138.130637 193.782684 
L 138.428577 193.516575 
L 138.726518 193.423124 
L 139.024458 193.565327 
L 139.620339 192.888874 
L 140.51416 193.014821 
L 140.8121 192.85637 
L 141.705921 192.9681 
L 142.003861 190.510128 
L 142.301802 190.896091 
L 142.599742 190.774207 
L 143.195623 190.833122 
L 143.493563 190.495911 
L 143.791503 191.603017 
L 144.089444 191.292209 
L 144.387384 191.544102 
L 144.685324 191.436443 
L 145.281205 191.659893 
L 145.579146 191.682234 
L 145.877086 191.580668 
L 146.472967 191.174395 
L 146.770907 191.379558 
L 147.068847 191.379558 
L 147.366788 190.91844 
L 147.664728 190.973285 
L 147.962668 191.182519 
L 150.346191 190.239957 
L 150.644131 190.475602 
L 151.240012 190.176988 
L 151.537952 190.215585 
L 152.431773 189.884467 
L 153.027654 190.008383 
L 153.623535 189.557411 
L 153.921475 189.661017 
L 154.219415 189.55538 
L 154.517356 189.971816 
L 154.815296 189.768676 
L 155.113236 190.105887 
L 155.709117 189.809304 
L 156.304998 189.916971 
L 156.602938 190.24605 
L 156.900878 189.827591 
L 157.198819 189.998228 
L 157.496759 189.7118 
L 157.794699 189.839777 
L 158.09264 189.758521 
L 158.39058 189.963692 
L 158.68852 189.417248 
L 158.986461 189.677265 
L 159.284401 189.528978 
L 159.880282 189.470062 
L 160.178222 189.342093 
L 160.774103 189.559451 
L 161.072043 189.435535 
L 161.369984 189.118634 
L 161.667924 189.232395 
L 162.263805 189.002852 
L 162.561745 188.996759 
L 162.859685 188.671734 
L 163.455566 188.992688 
L 163.753506 188.726579 
L 164.051447 188.736742 
L 164.647327 188.472664 
L 165.243208 188.488911 
L 166.137029 188.167957 
L 166.434969 188.312182 
L 166.73291 188.285771 
L 167.03085 187.889653 
L 167.32879 187.966847 
L 167.626731 187.737304 
L 168.520552 187.747459 
L 170.010253 187.28024 
L 170.606134 187.322899 
L 170.904074 187.024285 
L 171.202015 187.182736 
L 171.499955 186.965378 
L 172.691716 187.036471 
L 173.287597 186.719579 
L 173.585537 186.290957 
L 173.883478 186.483942 
L 174.181418 186.262523 
L 174.479358 186.307213 
L 175.96906 185.939529 
L 176.267001 185.642946 
L 176.564941 185.829839 
L 177.160822 185.263085 
L 178.054643 185.269178 
L 178.650523 184.430213 
L 179.246404 182.731981 
L 179.544344 182.88637 
L 180.736106 180.292297 
L 181.034046 181.121099 
L 181.331986 181.07844 
L 181.927867 180.586849 
L 182.225807 181.285642 
L 182.523748 180.832649 
L 183.119628 181.886932 
L 183.417569 181.716295 
L 183.715509 181.933653 
L 184.013449 182.010847 
L 184.31139 182.205855 
L 184.60933 182.173359 
L 185.503151 182.689322 
L 185.801091 182.476027 
L 186.099032 182.478066 
L 186.396972 182.177421 
L 186.694912 182.488221 
L 186.992853 182.402903 
L 188.482554 182.457748 
L 188.780495 182.346018 
L 189.078435 182.496345 
L 189.376375 182.185545 
L 189.674316 182.488221 
L 189.972256 182.382584 
L 190.270196 182.508531 
L 190.568137 182.427275 
L 190.866077 182.618229 
L 191.164018 182.482128 
L 191.461958 182.469934 
L 191.759898 182.697455 
L 192.057839 182.518686 
L 192.355779 182.185545 
L 192.95166 182.469934 
L 193.2496 182.21805 
L 193.54754 182.394779 
L 193.845481 182.031157 
L 194.143421 182.370399 
L 194.441361 182.179452 
L 195.037242 182.191638 
L 195.335182 181.958033 
L 195.633123 181.907241 
L 196.229003 182.17132 
L 196.526944 181.671605 
L 196.824884 181.962095 
L 197.122824 181.834118 
L 197.420765 181.543628 
L 198.314586 181.61676 
L 198.612526 181.45831 
L 198.910466 181.787397 
L 199.506347 181.115006 
L 199.804287 181.277518 
L 200.102228 181.242983 
L 200.400168 181.017502 
L 200.996049 180.926091 
L 203.379571 180.672167 
L 203.677512 180.76764 
L 203.975452 180.682322 
L 204.273392 180.412151 
L 204.571333 180.302452 
L 204.869273 180.769671 
L 205.167213 180.332925 
L 205.465154 180.332925 
L 205.763094 180.743268 
L 206.061035 180.582787 
L 206.358975 180.645756 
L 206.656915 180.304483 
L 206.954856 180.202917 
L 207.550736 180.290266 
L 207.848677 180.202917 
L 208.444557 180.330894 
L 209.934259 180.328863 
L 210.232199 180.682322 
L 210.53014 180.521841 
L 210.82808 180.590911 
L 211.423961 180.552314 
L 213.211603 180.714826 
L 213.509543 180.952493 
L 213.807483 180.592942 
L 214.105424 180.724981 
L 214.403364 180.609198 
L 214.701304 180.302452 
L 218.276588 180.184638 
L 218.574529 180.048537 
L 219.170409 179.989622 
L 219.76629 179.849458 
L 220.06423 179.851489 
L 220.362171 179.286766 
L 220.660111 179.762109 
L 220.958052 179.256293 
L 221.255992 179.561 
L 221.553932 179.532566 
L 221.851873 179.749923 
L 222.149813 179.776326 
L 222.447753 179.546783 
L 222.745694 179.506155 
L 223.043634 179.678822 
L 223.937455 179.258324 
L 224.235395 178.951586 
L 224.533336 178.998307 
L 224.831276 178.900803 
L 225.427157 179.329425 
L 225.725097 178.797206 
L 226.023037 178.988153 
L 226.916858 178.561562 
L 227.214799 178.541252 
L 227.512739 178.254824 
L 227.810679 178.394996 
L 228.10862 178.394996 
L 228.40656 178.232483 
L 228.7045 178.354368 
L 229.002441 178.149196 
L 229.300381 178.183731 
L 229.598321 178.100444 
L 229.896262 178.342173 
L 230.194202 178.051692 
L 230.790083 178.11263 
L 231.088023 178.313739 
L 231.385963 178.035436 
L 231.981844 178.287328 
L 232.875665 178.080126 
L 233.173605 177.779481 
L 233.769486 177.783543 
L 234.067426 177.501186 
L 234.365367 177.773388 
L 234.961247 177.279766 
L 235.259188 177.42196 
L 235.557128 177.324456 
L 235.855069 177.42196 
L 236.153009 177.21882 
L 236.74889 176.999431 
L 237.04683 177.31227 
L 237.34477 177.149758 
L 237.940651 177.33258 
L 238.536532 176.989276 
L 238.834472 177.001462 
L 239.430353 176.877555 
L 240.622114 176.869423 
L 240.920054 176.725198 
L 241.515935 176.90802 
L 241.813875 176.719105 
L 242.111816 176.897865 
L 242.409756 176.723167 
L 242.707696 175.863892 
L 243.005637 176.21532 
L 243.303577 176.296576 
L 243.601517 176.071095 
L 244.197398 175.941086 
L 244.495338 176.089373 
L 244.793279 175.991869 
L 245.389159 176.004055 
L 245.6871 176.207196 
L 246.28298 175.693256 
L 246.580921 175.865923 
L 246.878861 175.672946 
L 247.176801 175.916706 
L 247.474742 175.695287 
L 248.368563 176.091413 
L 248.666503 176.197041 
L 248.964443 175.886241 
L 249.560324 176.217351 
L 249.858264 175.386518 
L 250.156205 175.384487 
L 250.454145 175.03509 
L 251.050026 175.230107 
L 251.347966 175.000555 
L 251.645907 174.968059 
L 251.943847 175.154944 
L 252.241787 175.75014 
L 252.539728 176.020312 
L 253.135608 176.15032 
L 253.433549 175.754202 
L 253.731489 176.292514 
L 254.029429 176.065002 
L 254.32737 176.209227 
L 254.62531 176.026404 
L 254.92325 176.030466 
L 255.221191 175.670915 
L 255.817071 175.75014 
L 256.115012 175.68107 
L 256.412952 175.837489 
L 256.710892 175.423084 
L 257.604713 175.453557 
L 257.902654 175.790768 
L 258.200594 175.354022 
L 259.094415 175.492155 
L 259.392355 175.760295 
L 259.690296 175.518557 
L 260.286176 175.595752 
L 260.882057 175.587628 
L 261.179997 175.299169 
L 261.477938 175.559185 
L 262.073818 175.313394 
L 262.371759 175.611999 
L 262.669699 175.34589 
L 262.967639 175.490124 
L 263.56352 175.108223 
L 263.86146 175.106192 
L 264.159401 174.764919 
L 264.457341 174.972121 
L 264.755281 174.862423 
L 265.053222 174.923369 
L 265.351162 174.866485 
L 265.649102 175.004617 
L 266.244983 174.807578 
L 266.542924 174.905082 
L 266.840864 174.789299 
L 267.138804 174.972121 
L 267.436738 174.716167 
L 267.734679 174.679601 
L 268.03262 174.884772 
L 268.926444 174.708043 
L 269.224385 174.356615 
L 269.522326 174.407398 
L 269.820267 174.620694 
L 270.118208 174.441933 
L 270.41615 174.592252 
L 270.714091 174.551623 
L 271.012032 174.65522 
L 271.309973 174.421615 
L 271.905855 174.289576 
L 272.203797 174.515057 
L 272.501738 174.265196 
L 272.799679 174.204258 
L 273.09762 174.309886 
L 273.395561 173.952365 
L 273.693502 174.114878 
L 273.991444 173.893458 
L 276.077032 173.968621 
L 276.374973 173.730946 
L 277.268796 174.157537 
L 277.566737 173.820326 
L 277.864679 174.041745 
L 278.16262 173.956427 
L 278.460561 173.69641 
L 278.758502 173.694379 
L 279.056443 173.397805 
L 279.652326 173.570464 
L 279.950267 173.334828 
L 280.248208 173.700472 
L 280.546149 173.615163 
L 280.84409 173.700472 
L 281.142031 173.521712 
L 282.333796 173.438425 
L 282.631737 173.527805 
L 282.929678 173.344983 
L 283.227619 173.432332 
L 283.525561 173.125594 
L 283.823502 173.245448 
L 284.121443 172.829012 
L 284.419384 172.82495 
L 285.015266 173.019966 
L 285.611149 173.001679 
L 286.207031 173.306386 
L 286.504972 172.55884 
L 287.100854 172.430863 
L 287.696737 172.859485 
L 287.994678 172.160691 
L 288.59056 172.337421 
L 288.888501 172.221629 
L 289.186443 172.516181 
L 289.484384 172.394297 
L 290.080266 172.006303 
L 290.378207 172.189134 
L 290.676148 172.032714 
L 291.569972 171.902706 
L 291.867913 171.66707 
L 292.165854 172.042869 
L 292.463795 171.762543 
L 293.059678 171.746286 
L 293.357619 171.567526 
L 293.65556 171.626442 
L 293.953501 171.565495 
L 294.251442 171.880365 
L 294.549383 171.62238 
L 294.847324 171.547216 
L 295.145266 171.80114 
L 295.741148 171.770667 
L 296.039089 171.740193 
L 296.33703 172.040838 
L 296.932913 171.782853 
L 297.230854 171.797078 
L 297.528795 171.697534 
L 298.124677 170.856547 
L 298.72056 170.884989 
L 299.018501 171.199851 
L 299.316442 171.340014 
L 299.614383 171.159222 
L 299.912324 171.216098 
L 300.210265 170.945927 
L 300.806148 170.878896 
L 301.104089 170.968276 
L 301.997912 170.876857 
L 302.891736 170.781383 
L 303.189677 170.689972 
L 304.0835 170.846392 
L 304.381441 170.738724 
L 304.977324 170.866702 
L 305.275265 170.308071 
L 305.871147 171.025152 
L 306.169088 171.033276 
L 306.764971 170.637158 
L 307.360853 170.651375 
L 307.658794 170.586375 
L 308.552618 170.868733 
L 308.850559 170.336514 
L 309.1485 170.427925 
L 309.446441 170.32839 
L 310.042323 170.521367 
L 310.638206 170.436049 
L 310.936147 170.555902 
L 311.234088 170.391359 
L 311.532029 170.06228 
L 312.127912 170.405584 
L 312.425853 170.029776 
L 312.723794 170.104939 
L 313.319676 169.796171 
L 313.617617 169.970869 
L 313.915559 169.804295 
L 314.2135 169.944458 
L 314.511441 169.76976 
L 314.809382 169.81445 
L 315.405264 170.084621 
L 315.703205 169.674286 
L 316.001147 169.983055 
L 316.299088 169.865233 
L 316.89497 170.011497 
L 317.192911 169.550371 
L 317.490852 169.741317 
L 317.788794 170.403553 
L 318.086735 170.019621 
L 318.384676 169.385828 
L 318.682617 169.578813 
L 318.980558 169.54834 
L 319.278499 169.357385 
L 319.576441 169.584906 
L 319.874382 169.243634 
L 320.172323 169.499588 
L 320.470264 169.936334 
L 321.066146 169.245664 
L 321.364087 169.674286 
L 321.662029 169.562557 
L 321.95997 169.215191 
L 322.257911 169.601154 
L 322.555852 169.588968 
L 322.853793 169.290355 
L 323.151734 169.806326 
L 323.449676 169.692565 
L 323.747617 169.448805 
L 324.045558 169.363487 
L 324.343499 169.473177 
L 324.939381 169.426456 
L 325.833205 169.643813 
L 326.131146 169.393952 
L 326.727028 169.391921 
L 327.322911 169.54834 
L 327.620852 169.215191 
L 327.918793 169.077059 
L 328.514675 169.247695 
L 328.812616 169.395983 
L 329.408499 169.45896 
L 329.70644 169.588968 
L 330.302322 169.215191 
L 330.600263 169.497557 
L 330.898204 169.221284 
L 331.494087 169.402084 
L 331.792028 169.16847 
L 332.089969 169.576782 
L 332.38791 169.408177 
L 332.983793 169.485363 
L 333.281734 169.582875 
L 333.877616 169.36958 
L 334.175557 169.196912 
L 334.473498 169.402084 
L 335.069381 169.375673 
L 335.665263 168.709384 
L 335.963204 169.072997 
L 336.261145 169.158315 
L 336.559086 169.028307 
L 336.857028 169.176594 
L 337.154969 168.530615 
L 337.45291 169.194881 
L 337.750851 169.19285 
L 338.048792 169.501619 
L 338.346733 169.007989 
L 338.644675 168.959237 
L 338.942616 169.127842 
L 339.240557 169.020183 
L 339.538498 169.097377 
L 339.836439 168.92064 
L 340.432321 169.005958 
L 340.730263 168.750012 
L 341.028204 168.652499 
L 341.326145 168.750012 
L 341.624086 168.63422 
L 341.922027 168.829228 
L 342.51791 168.658592 
L 343.411733 168.638282 
L 343.709674 170.198381 
L 344.007615 170.429956 
L 344.305557 170.929679 
L 344.603498 169.653968 
L 345.19938 169.507712 
L 345.497321 169.489433 
L 345.795262 169.339107 
L 346.093203 169.519898 
L 346.689086 169.164408 
L 347.284968 169.219253 
L 347.582909 169.036431 
L 347.88085 169.026276 
L 348.178792 169.158315 
L 349.370556 169.01002 
L 349.966438 169.255819 
L 350.562321 169.231448 
L 350.860262 168.999865 
L 351.158203 169.174563 
L 351.456144 168.985648 
L 351.754085 169.028307 
L 352.052027 168.581406 
L 352.349968 168.682972 
L 352.647909 168.333576 
L 352.94585 168.502181 
L 353.541732 168.146691 
L 354.435556 168.106063 
L 354.733497 168.000427 
L 355.329379 168.3417 
L 355.62732 168.093869 
L 355.925262 168.309195 
L 356.223203 168.018714 
L 356.521144 168.242164 
L 356.819085 168.177156 
L 357.117026 168.297009 
L 357.414967 168.160908 
L 357.712909 168.368111 
L 358.01085 168.290916 
L 358.308791 168.469677 
L 358.904673 168.134497 
L 359.500556 168.382328 
L 359.798497 168.211691 
L 360.096438 168.301071 
L 361.288202 167.967931 
L 361.586144 167.969962 
L 361.884085 168.089807 
L 362.479967 167.945582 
L 362.777908 168.213722 
L 363.671732 167.707915 
L 363.969673 168.008551 
L 364.267614 167.781038 
L 364.565555 168.073559 
L 364.863496 168.010582 
L 365.161438 168.093869 
L 365.75732 167.868387 
L 366.055261 167.54134 
L 366.353202 167.553526 
L 366.651143 167.833852 
L 367.247026 167.360549 
L 367.544967 167.60634 
L 367.842908 167.604309 
L 368.140849 167.374766 
L 368.43879 167.350385 
L 369.630555 166.787693 
L 369.928496 166.436265 
L 370.226437 166.474863 
L 371.120261 164.933051 
L 371.418202 164.492243 
L 372.907908 164.540995 
L 373.205849 164.742096 
L 374.099672 164.695375 
L 374.397613 165.018369 
L 374.993496 164.547088 
L 375.291437 164.97571 
L 375.589378 164.681158 
L 375.887319 164.888361 
L 376.18526 164.656778 
L 376.483201 164.874135 
L 376.781143 164.333792 
L 377.972907 164.620212 
L 378.270848 164.278947 
L 378.866731 162.663995 
L 379.164672 163.084493 
L 379.462613 163.12309 
L 379.760554 162.621335 
L 380.058495 162.505553 
L 380.952319 162.741189 
L 381.25026 162.601026 
L 381.548201 162.27804 
L 381.846142 162.635561 
L 382.442025 162.875259 
L 382.739966 162.525862 
L 383.037907 162.692437 
L 383.633789 161.412672 
L 383.93173 158.091364 
L 384.527613 159.074554 
L 384.825554 157.711494 
L 385.123495 155.397757 
L 385.421436 156.064046 
L 385.719377 153.539044 
L 386.017318 155.032112 
L 386.31526 151.962978 
L 386.613201 153.52917 
L 386.911142 153.947629 
L 387.209083 153.933412 
L 387.507024 154.160924 
L 387.804965 153.653086 
L 388.102907 151.973133 
L 388.400848 153.017261 
L 388.698789 152.873036 
L 389.294671 153.429627 
L 389.592612 152.793811 
L 389.890554 153.842001 
L 390.188495 154.229995 
L 390.486436 154.351879 
L 390.784377 154.82316 
L 391.380259 154.878005 
L 391.6782 155.294433 
L 391.976142 152.931943 
L 392.274083 152.629267 
L 392.572024 153.366658 
L 392.869965 153.37072 
L 393.167906 153.553542 
L 393.763789 154.30922 
L 394.06173 154.451414 
L 394.359671 154.431096 
L 394.657612 154.565175 
L 394.955553 155.119734 
L 395.253494 154.841439 
L 395.551435 152.592701 
L 395.849377 153.642922 
L 396.147318 153.711993 
L 396.7432 154.254367 
L 397.041141 154.321406 
L 397.339082 154.136553 
L 397.637024 154.250305 
L 397.934965 154.910509 
L 398.232906 153.374782 
L 398.530847 154.50829 
L 398.828788 154.581422 
L 399.126729 152.139708 
L 399.42467 153.181805 
L 399.722612 153.321968 
L 400.020553 153.19196 
L 400.318494 153.41541 
L 400.616435 153.97404 
L 400.914376 153.547449 
L 401.212317 153.738404 
L 401.510254 154.459538 
L 401.808194 154.370158 
L 402.106133 153.746528 
L 402.404073 153.888722 
L 402.702012 154.250305 
L 402.999952 153.978102 
L 403.297891 154.333592 
L 403.595831 154.904408 
L 403.893771 155.026292 
L 404.19171 154.987695 
L 404.48965 155.345224 
L 404.787589 155.387883 
L 405.085529 155.879474 
L 405.383468 155.775869 
L 406.277287 156.216685 
L 406.873166 156.174026 
L 407.171106 156.462476 
L 407.469045 156.547794 
L 407.766985 155.686489 
L 408.362864 154.723617 
L 408.660804 155.363503 
L 408.958743 155.463038 
L 409.256683 155.375689 
L 409.554622 155.595077 
L 409.852562 154.577361 
L 410.448441 155.387883 
L 410.74638 154.792687 
L 411.04432 155.048642 
L 411.34226 154.81909 
L 411.640199 154.095925 
L 411.938139 154.57533 
L 412.236078 154.498135 
L 412.534018 154.959261 
L 413.427837 155.499604 
L 413.725776 155.4671 
L 414.023716 155.930257 
L 414.321655 155.952607 
L 414.619595 156.385282 
L 414.917534 156.194336 
L 415.215474 156.33653 
L 415.513413 156.909386 
L 415.811353 156.69609 
L 416.109292 156.817966 
L 416.407232 156.791563 
L 417.301051 157.197836 
L 417.89693 156.878912 
L 418.194869 154.555011 
L 418.790748 155.80228 
L 419.088688 155.743373 
L 419.386628 155.918071 
L 419.684567 155.934319 
L 419.982507 156.448259 
L 420.280446 156.214654 
L 420.578386 154.164986 
L 420.876325 155.005982 
L 421.174265 155.298495 
L 421.472205 155.351317 
L 421.770144 155.562582 
L 422.068084 155.219278 
L 422.366023 155.347255 
L 422.663963 154.786594 
L 423.259842 153.433697 
L 423.855721 154.095925 
L 424.153661 154.199522 
L 424.74954 154.089832 
L 425.345419 154.646422 
L 425.643358 154.882067 
L 425.941298 154.605803 
L 426.239237 153.531201 
L 426.537177 154.095925 
L 427.133056 154.461569 
L 427.430996 154.355941 
L 427.728935 154.412817 
L 428.026875 154.624082 
L 428.324814 153.519007 
L 428.622754 153.581984 
L 428.920694 153.376813 
L 429.218633 152.718648 
L 429.516573 153.829815 
L 430.410391 154.156862 
L 430.708331 153.86028 
L 431.00627 154.028885 
L 431.30421 154.366096 
L 431.60215 153.963885 
L 431.900089 153.005075 
L 432.198029 152.698338 
L 432.495968 152.225026 
L 433.091847 153.098517 
L 433.389787 152.637391 
L 433.985666 153.141177 
L 434.283606 152.777554 
L 434.581545 153.10461 
L 434.879485 151.666396 
L 435.177424 152.184398 
L 435.475364 152.324561 
L 435.773303 149.844249 
L 436.667122 151.010261 
L 436.965062 151.077292 
L 437.263001 149.64517 
L 437.560941 150.762431 
L 437.85888 151.032602 
L 438.15682 150.715709 
L 438.454759 150.998067 
L 438.752699 151.075261 
L 439.050638 151.361689 
L 439.348578 151.847187 
L 439.646518 152.07673 
L 439.944457 151.859373 
L 440.242397 151.989381 
L 440.540336 150.955408 
L 440.838276 149.127168 
L 441.136215 150.476003 
L 441.434155 150.244428 
L 441.732095 149.478596 
L 442.030034 150.337871 
L 442.327974 150.348025 
L 443.221792 151.00823 
L 443.519732 150.545073 
L 443.817671 148.536042 
L 444.115611 148.450724 
L 444.413551 148.538073 
L 444.71149 148.491352 
L 445.00943 149.196238 
L 445.307369 148.716833 
L 445.605309 148.499476 
L 445.903248 149.060137 
L 446.201188 149.342494 
L 446.797067 150.142862 
L 447.095007 150.287088 
L 447.392946 150.027071 
L 447.690886 150.199738 
L 447.988825 150.023009 
L 448.286765 150.526794 
L 448.584704 148.653856 
L 448.882644 148.186645 
L 449.180583 149.198269 
L 449.478523 147.892094 
L 449.776463 148.529949 
L 450.074402 148.605104 
L 450.670281 149.171858 
L 450.968221 148.787935 
L 451.26616 148.615267 
L 451.5641 148.922005 
L 451.86204 148.424313 
L 452.159979 148.934191 
L 452.457919 149.033726 
L 452.755858 149.391246 
L 453.053798 149.403441 
L 453.351737 147.778333 
L 453.649677 148.48729 
L 453.947616 146.797182 
L 454.245556 147.656457 
L 454.543496 146.078071 
L 455.139375 147.209548 
L 455.437314 144.619546 
L 455.735254 145.89931 
L 456.033193 145.58648 
L 456.331133 145.799775 
L 456.629072 146.23449 
L 456.927012 145.645387 
L 457.224952 146.088226 
L 457.522891 145.208641 
L 457.820831 146.132916 
L 458.41671 146.384808 
L 458.714649 145.16192 
L 459.012589 146.224335 
L 459.310528 146.608259 
L 459.608468 146.61436 
L 459.906408 146.947501 
L 460.204347 147.049075 
L 461.098166 147.90428 
L 461.396105 147.630046 
L 461.694045 146.630608 
L 461.991985 146.689515 
L 462.885803 147.717395 
L 464.673441 148.940284 
L 464.97138 148.59698 
L 465.26932 148.79809 
L 465.567259 149.184052 
L 465.865199 148.942315 
L 466.163138 149.318123 
L 466.461078 149.360782 
L 466.759017 149.287649 
L 467.056957 149.4461 
L 467.354897 149.996598 
L 467.652836 149.40141 
L 468.248715 150.169265 
L 468.546655 150.258645 
L 468.844594 148.202893 
L 469.142534 147.63817 
L 469.440473 146.193862 
L 469.738413 146.16542 
L 470.036353 146.689515 
L 470.334292 146.85812 
L 470.632232 147.558945 
L 470.930171 147.544728 
L 471.52605 146.726081 
L 471.82399 146.992191 
L 472.12193 147.644263 
L 472.717809 147.493945 
L 473.015748 146.868275 
L 473.313688 146.717957 
L 473.909567 147.910372 
L 474.207506 147.418782 
L 474.505446 147.500038 
L 474.803385 146.949532 
L 475.101325 147.59348 
L 475.399265 147.804744 
L 475.697204 147.493945 
L 475.995144 147.534573 
L 476.888962 148.438538 
L 477.186902 148.334932 
L 477.484842 148.590887 
L 477.782781 148.548228 
L 478.6766 148.796059 
L 478.974539 148.749338 
L 479.272479 148.970757 
L 479.570418 148.081009 
L 479.868358 148.542135 
L 480.464237 148.978881 
L 480.762177 149.003261 
L 481.060116 148.523856 
L 481.655995 148.75543 
L 481.953935 149.127168 
L 482.251874 148.722926 
L 482.549814 148.739174 
L 482.847754 149.112951 
L 483.145693 148.954501 
L 483.741572 149.988474 
L 484.039512 148.357282 
L 484.337451 147.435029 
L 484.933331 148.523856 
L 485.23127 147.272525 
L 485.52921 147.831156 
L 485.827149 148.115544 
L 486.125089 148.588856 
L 486.423028 148.399941 
L 486.720968 148.452755 
L 487.018907 147.047044 
L 487.316847 148.032257 
L 487.614787 148.154141 
L 487.912726 148.123668 
L 488.210666 148.497445 
L 489.402424 148.987005 
L 489.700363 149.381092 
L 489.998303 149.037788 
L 490.296243 147.587387 
L 490.892122 148.653856 
L 491.190061 148.999191 
L 491.488001 149.098734 
L 491.78594 148.497445 
L 492.08388 148.599011 
L 492.679759 145.425998 
L 493.275638 145.838373 
L 493.573578 146.039474 
L 493.871517 146.492476 
L 494.169457 146.717957 
L 494.467396 146.622484 
L 494.765336 147.047044 
L 495.361215 146.134955 
L 495.659155 144.363591 
L 495.957094 145.330525 
L 496.255034 145.874939 
L 496.552973 145.866806 
L 496.850913 142.701918 
L 497.148852 142.411436 
L 497.446792 143.059447 
L 498.042671 143.676984 
L 498.340611 140.806647 
L 498.63855 142.728329 
L 498.93649 142.673484 
L 499.234429 139.600006 
L 499.532369 139.644696 
L 499.830308 139.530936 
L 500.128248 139.788922 
L 500.724127 140.745701 
L 501.617946 141.178384 
L 501.915885 140.910244 
L 502.511764 141.718736 
L 502.809704 141.613099 
L 503.107644 141.694356 
L 503.703523 142.309862 
L 504.001462 141.838589 
L 504.299402 142.08438 
L 504.597341 142.604414 
L 504.895281 142.708019 
L 505.19322 143.049283 
L 505.49116 143.124447 
L 506.384979 143.727767 
L 507.278797 144.22749 
L 507.874677 144.243738 
L 508.172616 143.782612 
L 508.768495 144.465157 
L 509.066435 144.081226 
L 509.364374 144.201079 
L 509.662314 142.169699 
L 509.960253 143.028974 
L 510.556133 143.524626 
L 510.854072 143.370246 
L 511.152012 143.071633 
L 511.449951 143.471812 
L 511.747891 143.542914 
L 512.04583 143.987783 
L 512.34377 144.103575 
L 512.641709 143.463688 
L 512.939649 143.815116 
L 514.429347 144.136079 
L 514.727286 144.359529 
L 515.323166 143.819178 
L 515.621105 144.097482 
L 515.919045 144.211234 
L 516.216984 144.548445 
L 517.408742 144.816585 
L 517.706682 143.374308 
L 518.004621 142.559723 
L 518.302561 143.144765 
L 518.600501 143.256486 
L 518.89844 143.181331 
L 519.19638 143.628232 
L 520.090198 144.044659 
L 520.388138 144.136079 
L 520.686078 144.099513 
L 520.984017 144.357499 
L 521.579896 144.38187 
L 521.877836 144.483436 
L 522.175775 144.436715 
L 522.473715 144.820647 
L 522.771654 144.599228 
L 523.367534 144.985191 
L 523.665473 144.849089 
L 524.261352 145.172075 
L 524.559292 145.208641 
L 524.857231 145.438184 
L 525.155171 145.397565 
L 525.45311 145.588511 
L 525.75105 145.36506 
L 526.04899 145.543821 
L 526.346929 145.003469 
L 526.644869 144.920191 
L 526.942808 145.129416 
L 527.240748 145.491007 
L 527.538687 143.591666 
L 528.134567 144.597197 
L 529.028385 144.873461 
L 529.326325 144.997376 
L 529.624264 144.631732 
L 530.220143 145.011602 
L 530.816023 144.800337 
L 531.113962 142.630825 
L 531.411902 142.882717 
L 531.709841 142.722236 
L 532.007781 143.502286 
L 532.30572 143.392587 
L 532.60366 144.020288 
L 532.901599 144.030443 
L 533.199539 143.729798 
L 533.497479 144.085288 
L 533.795418 143.500255 
L 534.093358 143.839496 
L 534.391297 143.479936 
L 534.689237 143.520564 
L 534.987176 143.242269 
L 535.28511 143.705426 
L 535.58305 142.608475 
L 535.880991 142.161575 
L 536.178931 140.150513 
L 536.476871 140.721329 
L 536.774812 137.940372 
L 537.072752 138.681825 
L 537.370692 136.727639 
L 537.966573 135.81555 
L 538.562454 137.428463 
L 538.860394 137.7352 
L 539.158335 136.776391 
L 539.456275 136.90843 
L 539.754215 137.649882 
L 540.052156 137.676294 
L 540.350096 137.379711 
L 540.648036 135.065973 
L 540.945977 135.821643 
L 541.243917 133.396175 
L 541.541857 134.371242 
L 541.839798 133.566812 
L 542.137738 130.322706 
L 542.435678 129.25419 
L 542.733619 127.012978 
L 543.031559 128.908257 
L 543.329499 125.507733 
L 543.62744 125.985098 
L 544.22332 124.481883 
L 544.819201 126.104943 
L 545.117141 124.969404 
L 545.713022 126.044013 
L 546.010962 123.07008 
L 546.308903 117.530507 
L 546.606843 121.024474 
L 546.904783 122.77755 
L 547.202724 122.682077 
L 547.500664 119.486715 
L 547.798604 122.446432 
L 548.096545 117.341592 
L 548.394485 120.218021 
L 548.692425 121.162615 
L 548.990366 121.585126 
L 549.288306 121.345437 
L 549.586246 121.426693 
L 549.884187 122.495193 
L 550.182127 121.883749 
L 550.480067 120.323649 
L 550.778008 119.970191 
L 551.075948 121.044784 
L 551.373888 120.811187 
L 551.671829 118.099283 
L 551.969769 120.144889 
L 552.267709 120.114424 
L 552.56565 120.983854 
L 553.161531 121.637949 
L 553.757411 122.596759 
L 554.353292 123.386964 
L 554.651232 120.652736 
L 554.949173 122.568325 
L 555.247113 123.183831 
L 555.545053 123.037567 
L 555.842994 121.707019 
L 556.140934 121.160584 
L 556.438874 122.503317 
L 556.736815 119.559848 
L 557.034755 121.384025 
L 557.332695 119.100761 
L 557.630636 120.410999 
L 557.928576 121.142288 
L 558.226516 121.473406 
L 558.524457 120.914784 
L 558.822397 118.607131 
L 559.120337 120.959465 
L 559.418278 119.486715 
L 559.716218 119.427817 
L 560.312099 120.99604 
L 560.610039 121.020412 
L 560.907979 119.911275 
L 561.20592 116.990164 
L 561.50386 118.863085 
L 561.8018 119.905182 
L 562.099741 119.63298 
L 562.397681 120.327711 
L 562.695621 114.300618 
L 562.993562 118.054602 
L 563.291502 117.888027 
L 563.589442 116.858116 
L 563.887383 116.665139 
L 564.185323 112.177818 
L 564.483263 116.145106 
L 564.781204 117.124226 
L 565.079144 115.515383 
L 565.377084 115.828205 
L 565.675025 116.908908 
L 566.270905 117.816926 
L 566.568846 117.703174 
L 566.866786 113.670878 
L 567.164726 113.481963 
L 567.462667 115.216761 
L 567.760607 114.966899 
L 568.058548 112.246889 
L 568.356488 114.899877 
L 568.654428 115.267552 
L 568.952369 115.456467 
L 569.250309 115.828205 
L 569.548249 115.119257 
L 569.84619 116.638736 
L 571.037951 118.255703 
L 571.335891 118.032261 
L 571.931772 119.175924 
L 572.229712 118.497441 
L 572.527653 118.976837 
L 572.825593 118.629471 
L 573.421474 119.933616 
L 573.719414 119.661414 
L 574.017354 120.445525 
L 574.315295 120.616162 
L 574.613235 121.134164 
L 574.911175 121.302769 
L 575.209116 120.016903 
L 575.507056 120.963527 
L 575.804996 121.481529 
L 576.102937 123.951695 
L 576.400877 120.112393 
L 576.698817 121.254026 
L 576.996758 121.217451 
L 577.294698 125.070987 
L 577.592638 124.51641 
L 577.890579 121.747639 
L 578.188519 120.339897 
L 578.486459 121.355592 
L 579.08234 121.979222 
L 579.38028 121.751701 
L 579.678221 121.991408 
L 579.976161 122.702387 
L 580.274101 123.096482 
L 580.572042 122.828342 
L 580.869982 121.680617 
L 581.465863 123.187893 
L 581.763803 123.407273 
L 582.061743 123.779028 
L 582.359684 123.864346 
L 582.955564 124.463604 
L 583.253505 123.610422 
L 583.551445 124.668767 
L 583.849386 125.225358 
L 584.147326 124.953156 
L 584.445266 125.550383 
L 585.041147 120.945249 
L 585.339087 123.02335 
L 585.934968 124.085757 
L 586.232908 123.549476 
L 586.530849 124.093881 
L 586.828789 125.105513 
L 587.126729 125.499609 
L 587.72261 125.582879 
L 588.318491 126.470604 
L 588.616431 126.419813 
L 589.212312 127.108451 
L 589.510252 126.913443 
L 589.808192 127.151119 
L 590.106133 125.830709 
L 590.702013 126.76921 
L 590.999954 126.848435 
L 591.297894 127.356282 
L 591.595834 127.593958 
L 591.893775 126.893133 
L 592.191715 127.222203 
L 592.489655 126.884992 
L 593.383476 128.341495 
L 593.681417 127.935231 
L 593.979357 127.953509 
L 595.171118 129.166243 
L 595.469059 128.154611 
L 596.36288 128.950908 
L 596.66082 128.885917 
L 596.95876 129.629392 
L 597.256701 129.76347 
L 597.554641 129.670028 
L 597.852581 129.917842 
L 598.150522 129.810183 
L 598.448462 129.988943 
L 599.044343 129.78378 
L 599.640224 130.415534 
L 600.236104 130.206309 
L 600.534045 130.462264 
L 600.831985 130.569923 
L 601.427866 131.037133 
L 601.725806 130.836032 
L 602.321687 131.524671 
L 602.619627 130.980266 
L 602.917567 131.473879 
L 603.215508 129.5786 
L 603.513448 128.98139 
L 603.811388 129.168274 
L 604.109329 129.816276 
L 605.00315 130.287565 
L 605.30109 129.96254 
L 605.59903 128.979359 
L 605.896971 129.667997 
L 606.492851 130.305844 
L 606.790792 130.348495 
L 607.088732 130.586171 
L 607.684613 130.785241 
L 607.982553 131.033071 
L 608.280493 131.016823 
L 608.578434 131.152933 
L 609.174314 131.713586 
L 609.770195 131.622175 
L 610.068135 131.662794 
L 610.366076 131.865943 
L 610.961956 131.81109 
L 611.259897 132.201115 
L 611.557837 131.778594 
L 611.855777 132.201115 
L 612.153718 132.21534 
L 612.451658 128.260238 
L 613.047539 129.779718 
L 613.64342 129.954417 
L 613.94136 128.544644 
L 614.2393 128.24196 
L 614.835181 129.186553 
L 615.133121 128.611666 
L 615.729002 129.13373 
L 616.324883 121.223544 
L 617.218704 123.622608 
L 618.410465 125.373654 
L 619.006346 125.773842 
L 619.304286 125.958695 
L 619.602226 124.999885 
L 619.900167 125.676338 
L 620.198107 125.881501 
L 620.496047 124.114208 
L 620.793988 124.335619 
L 621.091928 125.505702 
L 621.687809 126.023704 
L 621.985749 126.474666 
L 622.283689 126.65952 
L 622.58163 126.507162 
L 622.87957 126.649365 
L 623.17751 127.138916 
L 623.475451 127.138916 
L 623.773391 126.848435 
L 624.071331 127.405026 
L 624.667212 127.929121 
L 625.263093 128.162734 
L 625.561033 128.093664 
L 626.156914 128.402441 
L 626.454854 128.211495 
L 626.752794 128.583232 
L 627.050735 128.138363 
L 627.646615 128.827001 
L 627.944556 128.394317 
L 628.242496 125.635701 
L 628.540437 126.976421 
L 628.838377 127.386747 
L 629.434258 127.914904 
L 629.732198 127.713803 
L 630.328079 120.18754 
L 630.626019 120.492255 
L 630.923959 118.20899 
L 631.2219 119.610639 
L 631.81778 121.026505 
L 632.711601 121.152443 
L 633.009542 121.879687 
L 633.307482 120.423184 
L 633.605422 121.422631 
L 635.095124 123.602299 
L 635.393064 123.624639 
L 635.691005 124.057323 
L 635.988945 120.234269 
L 636.584826 107.796143 
L 636.882766 106.789989 
L 637.478647 99.166239 
L 637.776587 92.850678 
L 638.074527 95.115664 
L 638.670408 92.168133 
L 638.968348 87.27861 
L 639.266289 90.016899 
L 639.564229 81.781705 
L 639.862169 81.011196 
L 640.16011 83.942479 
L 640.45805 80.641489 
L 640.75599 84.029828 
L 641.053931 82.303154 
L 641.649811 86.660458 
L 641.947752 80.245363 
L 642.245692 84.945971 
L 642.841573 87.582711 
L 643.437454 81.26715 
L 643.735394 83.123824 
L 644.033334 85.929169 
L 644.331275 83.121793 
L 644.629215 86.816878 
L 644.927155 86.288721 
L 645.225096 84.336557 
L 645.523036 84.332495 
L 645.820976 86.721405 
L 646.118917 86.778272 
L 646.416857 85.776812 
L 646.714797 87.036258 
L 647.012738 88.972174 
L 647.310678 88.980297 
L 647.906559 92.102527 
L 648.204499 90.314907 
L 648.502439 90.792289 
L 648.80038 83.227438 
L 649.09832 84.708312 
L 649.39626 82.788644 
L 649.694201 85.354283 
L 649.992141 86.166828 
L 650.290081 89.067647 
L 650.588022 85.854006 
L 650.885962 85.478189 
L 651.183902 82.301124 
L 651.481843 85.41726 
L 651.779783 81.805462 
L 652.077723 85.624454 
L 652.375664 87.649733 
L 652.971544 89.329694 
L 653.269485 84.513287 
L 653.567425 88.368853 
L 654.759186 92.232527 
L 655.950948 95.385221 
L 656.248888 95.570091 
L 656.844769 96.847816 
L 657.142709 94.111558 
L 657.440649 95.78744 
L 657.73859 93.171027 
L 658.03653 91.984696 
L 658.33447 95.507114 
L 658.632411 90.820723 
L 658.930351 94.499543 
L 659.228292 96.041364 
L 659.824172 91.076678 
L 660.122113 86.654365 
L 660.420053 89.063585 
L 660.717993 86.211527 
L 661.015934 89.36219 
L 661.313874 86.847343 
L 661.611814 89.339849 
L 662.505635 92.41738 
L 662.803576 92.594109 
L 663.101516 93.471663 
L 663.399456 93.957169 
L 663.697397 93.311199 
L 663.995337 94.162333 
L 664.293277 95.490866 
L 664.889158 92.516915 
L 665.187098 81.242779 
L 665.485039 86.103868 
L 665.782979 85.665091 
L 666.080919 87.412074 
L 666.37886 86.453264 
L 666.6768 89.333756 
L 667.272681 87.438477 
L 667.570621 89.352035 
L 668.166502 91.265593 
L 668.464442 91.482959 
L 668.762382 92.137054 
L 669.060323 88.925444 
L 669.358263 90.503822 
L 669.656199 90.727281 
L 670.55002 93.82717 
L 670.84796 94.190783 
L 671.741781 85.193801 
L 672.039722 86.207465 
L 672.337662 81.620609 
L 672.635602 81.774997 
L 673.231483 86.085572 
L 673.529423 81.141212 
L 673.827364 83.911997 
L 674.125304 85.514764 
L 674.423244 81.029474 
L 674.721185 85.405074 
L 675.317065 87.578649 
L 675.615006 85.648826 
L 675.912946 86.215589 
L 676.210886 88.210403 
L 676.508827 89.185461 
L 676.806767 89.305322 
L 677.104707 90.79432 
L 677.402648 89.83551 
L 677.700588 89.384531 
L 677.998528 90.694768 
L 678.892349 93.207585 
L 679.19029 92.783042 
L 679.48823 93.329477 
L 679.78617 85.671184 
L 680.084111 87.091111 
L 680.382051 84.917537 
L 680.679991 88.862467 
L 680.977932 87.259717 
L 681.275872 87.702556 
L 681.573812 86.410597 
L 681.871753 88.935599 
L 682.169693 89.837541 
L 682.467633 84.736746 
L 682.765574 88.342433 
L 683.063514 84.129363 
L 683.361455 86.309031 
L 683.659395 84.948001 
L 683.957335 79.103731 
L 684.255276 84.251239 
L 684.553216 84.0542 
L 684.851156 84.141549 
L 685.149097 86.313093 
L 685.447037 86.902196 
L 685.744977 87.954448 
L 686.042918 87.558322 
L 686.340858 82.585512 
L 686.638798 84.035921 
L 686.936739 86.132301 
L 687.234679 86.097775 
L 687.532619 86.957033 
L 687.83056 88.667458 
L 688.1285 86.57514 
L 688.42644 87.026103 
L 689.320261 74.504689 
L 689.618202 78.780737 
L 689.916142 80.430216 
L 690.214082 77.07439 
L 690.512023 78.264766 
L 690.809963 80.64352 
L 691.405844 82.865838 
L 691.703784 83.635733 
L 692.001724 81.39715 
L 692.299665 81.748595 
L 692.597605 79.680648 
L 693.193486 82.640365 
L 693.491426 84.275628 
L 694.087307 85.652888 
L 695.279068 88.435876 
L 695.577008 88.834033 
L 695.874949 88.941692 
L 697.06671 90.487574 
L 697.36465 90.483512 
L 697.662591 91.216849 
L 697.960531 91.32857 
L 698.258472 92.090341 
L 698.556412 90.804475 
L 698.854352 91.763285 
L 699.152293 88.342433 
L 699.450233 90.036611 
L 699.748173 90.74556 
L 700.046114 91.745006 
L 700.344054 90.227558 
L 700.939935 92.325969 
L 701.237875 89.307353 
L 701.535815 91.988758 
L 701.833756 92.244713 
L 702.131696 91.403734 
L 702.429636 92.346296 
L 702.727577 91.009638 
L 703.025517 89.132655 
L 703.323457 89.197646 
L 703.919338 91.81406 
L 704.217278 92.579892 
L 704.515219 92.823661 
L 704.813159 90.989329 
L 705.111099 93.081647 
L 705.40904 93.778409 
L 706.00492 94.393915 
L 706.302861 91.799843 
L 707.196682 74.809404 
L 707.494622 81.803431 
L 708.090503 75.270522 
L 708.388443 70.22661 
L 708.686383 76.125735 
L 709.282264 79.733454 
L 710.176085 82.213774 
L 710.474025 83.302584 
L 710.771966 76.688418 
L 711.069906 80.718683 
L 711.665787 83.188832 
L 711.963727 78.975762 
L 712.857548 84.214681 
L 713.155488 84.098899 
L 713.751369 86.339495 
L 714.04931 83.194925 
L 714.34725 86.132301 
L 714.64519 87.227221 
L 715.539011 89.098111 
L 715.836952 89.220004 
L 716.134892 88.769024 
L 716.432832 79.325159 
L 717.028713 85.685401 
L 717.624594 87.434415 
L 717.922534 88.025549 
L 718.220474 80.39772 
L 718.518415 85.246624 
L 718.816355 86.408566 
L 719.114295 86.845312 
L 720.008116 88.842157 
L 720.306057 89.220004 
L 720.603997 90.331155 
L 720.901937 82.193465 
L 721.199878 78.979824 
L 721.497818 73.866842 
L 721.795758 80.265673 
L 722.093699 80.413968 
L 722.391639 82.892258 
L 722.689579 81.417477 
L 722.98752 82.961311 
L 723.5834 85.208018 
L 723.881341 82.059386 
L 724.179281 84.356884 
L 724.477221 84.968328 
L 724.775162 86.105899 
L 725.073102 86.227774 
L 725.371042 87.363314 
L 725.668983 87.58068 
L 725.966923 88.687768 
L 726.264863 89.16312 
L 727.158684 89.538919 
L 727.456625 90.095527 
L 727.754565 90.298659 
L 728.350446 91.157934 
L 728.648386 91.031979 
L 728.946327 91.590618 
L 729.244267 84.36907 
L 729.542207 87.024072 
L 729.840148 88.27338 
L 730.138088 89.033103 
L 730.436028 86.562954 
L 730.733969 85.120669 
L 731.031909 84.241084 
L 731.329849 86.573109 
L 731.62779 87.69037 
L 731.92573 86.571078 
L 732.22367 83.454942 
L 732.521611 86.103868 
L 732.819551 87.310508 
L 733.117491 87.816307 
L 733.415432 84.385318 
L 733.713372 84.316247 
L 734.309253 86.339495 
L 734.607193 85.443663 
L 734.905133 82.1772 
L 735.203074 74.774861 
L 735.501014 79.556724 
L 735.798954 76.907815 
L 736.096895 81.449973 
L 736.692775 83.716989 
L 736.990716 82.175169 
L 737.586596 84.403597 
L 737.884537 81.604361 
L 738.182477 84.176076 
L 738.480417 85.069894 
L 738.778358 79.979253 
L 739.076298 84.3 
L 739.374238 84.421875 
L 739.672179 80.891351 
L 739.970119 83.968882 
L 740.268059 85.01301 
L 740.566 83.972944 
L 741.16188 86.652334 
L 741.459821 82.185341 
L 741.757761 85.435539 
L 742.055701 86.172921 
L 742.353642 87.330818 
L 742.651582 87.412074 
L 742.949522 88.531366 
L 743.545403 89.187491 
L 743.843344 88.192124 
L 744.141284 89.429229 
L 744.439224 89.750192 
L 744.737165 90.235682 
L 745.035105 90.233651 
L 745.333045 90.928382 
L 745.630986 90.247867 
L 745.928926 91.174182 
L 746.226866 86.241991 
L 746.524807 89.199677 
L 746.822747 89.935045 
L 747.120687 89.228128 
L 747.418628 90.111775 
L 747.716568 90.276318 
L 748.014508 86.86359 
L 748.312449 86.82094 
L 748.610389 88.655273 
L 748.908329 89.063585 
L 749.80215 91.017762 
L 750.993912 92.606295 
L 751.291852 92.650994 
L 751.887733 93.382283 
L 752.483613 93.940922 
L 753.079494 94.548304 
L 753.377434 93.615897 
L 753.675375 91.905471 
L 753.973315 93.384314 
L 754.271255 92.384884 
L 754.569196 93.705277 
L 754.867136 93.774347 
L 755.165076 89.939107 
L 755.463017 90.956833 
L 755.760957 92.606295 
L 756.058897 93.382283 
L 756.356838 75.851501 
L 756.654778 72.550512 
L 756.952718 73.809958 
L 757.250659 63.297575 
L 757.548599 69.166234 
L 757.846539 51.082293 
L 758.14448 56.971262 
L 758.44242 53.960754 
L 758.740361 56.481694 
L 759.038301 55.270991 
L 759.336241 55.91901 
L 759.634182 53.509791 
L 759.932122 52.215801 
L 760.230062 57.726923 
L 760.528003 56.114018 
L 760.825943 56.798595 
L 761.123883 55.58383 
L 761.421824 58.137266 
L 761.719764 59.126541 
L 762.017704 60.887758 
L 762.315645 54.013576 
L 762.911525 56.853431 
L 763.209466 54.602663 
L 763.507406 54.787516 
L 763.805346 59.886281 
L 764.103287 61.371217 
L 764.401227 61.580459 
L 764.699167 63.067426 
L 764.997108 58.037731 
L 765.295048 61.243248 
L 765.890929 63.664653 
L 766.188869 62.689578 
L 766.486809 46.058077 
L 766.78475 54.342049 
L 767.38063 59.450951 
L 767.976511 62.079568 
L 768.274451 63.332921 
L 768.572392 63.970768 
L 768.870332 63.692472 
L 769.168272 64.970214 
L 769.466213 60.562119 
L 769.764153 59.227509 
L 770.062093 62.424902 
L 770.360034 62.400514 
L 770.657974 64.600508 
L 771.253855 66.936595 
L 771.551795 67.706472 
L 771.849735 66.223567 
L 772.147676 63.662008 
L 772.445616 66.400297 
L 773.339437 69.567225 
L 773.637377 68.697795 
L 773.935318 70.07101 
L 774.233258 70.668238 
L 774.829139 72.238492 
L 775.127079 72.593981 
L 775.42502 72.573654 
L 775.72296 70.566654 
L 776.0209 72.455841 
L 776.318841 73.284651 
L 776.616781 73.443084 
L 776.914721 66.038714 
L 777.212662 69.723644 
L 777.510602 71.671729 
L 777.808542 72.354275 
L 778.404423 63.436518 
L 778.702363 63.426363 
L 779.000304 62.967276 
L 779.596184 61.074028 
L 779.894125 63.919993 
L 780.192065 63.879357 
L 780.490005 63.554349 
L 781.085886 66.930502 
L 781.681767 68.326058 
L 781.979707 68.68764 
L 782.277647 68.50888 
L 782.873528 70.558531 
L 783.469409 71.63314 
L 783.767349 68.768896 
L 784.065289 71.460473 
L 784.36323 65.660884 
L 784.66117 66.514066 
L 784.95911 59.999435 
L 785.257051 60.923701 
L 785.554991 65.106324 
L 785.852931 67.440363 
L 786.746752 70.430562 
L 787.044693 66.536406 
L 787.342633 69.86583 
L 787.640573 68.110723 
L 787.938514 65.262726 
L 788.236454 66.314979 
L 788.534394 66.589229 
L 788.832335 67.208797 
L 789.428216 69.863799 
L 789.726156 69.477845 
L 790.024096 70.233523 
L 790.322037 71.320301 
L 790.619977 71.702194 
L 790.917917 69.004524 
L 791.215858 71.60469 
L 791.513798 72.839781 
L 792.109679 73.372 
L 792.407619 74.334872 
L 793.0035 72.348182 
L 793.30144 67.895405 
L 793.59938 68.072134 
L 793.897321 59.489557 
L 794.195261 63.948427 
L 794.493201 62.92664 
L 794.791142 60.352894 
L 795.089082 59.991311 
L 795.387022 58.75622 
L 795.684963 50.421491 
L 795.982903 53.456354 
L 796.280843 58.441367 
L 796.578784 57.202231 
L 796.876724 57.888821 
L 797.174664 59.997404 
L 797.472605 58.859834 
L 797.770545 49.16812 
L 798.068485 54.226249 
L 798.664366 57.6471 
L 799.260247 56.645623 
L 799.558187 59.162501 
L 799.856127 58.699352 
L 800.452008 55.808706 
L 800.749948 59.024377 
L 801.047889 60.740879 
L 801.345829 58.299164 
L 801.643769 57.311921 
L 801.94171 58.973586 
L 802.23965 53.44823 
L 802.53759 58.746065 
L 802.835531 59.666286 
L 803.133471 55.703061 
L 803.431411 54.012962 
L 803.729352 54.760499 
L 804.027294 56.091063 
L 804.325235 54.890515 
L 804.623175 55.497898 
L 804.921115 58.8456 
L 805.219056 55.692906 
L 805.516996 59.985218 
L 805.814937 57.66741 
L 806.112877 53.921551 
L 806.708758 59.794255 
L 807.006698 57.445982 
L 807.304638 61.295456 
L 807.602579 55.130222 
L 807.900519 58.402761 
L 808.198459 58.232125 
L 808.4964 60.519468 
L 808.79434 60.005528 
L 809.09228 60.826197 
L 809.390221 62.560995 
L 809.986101 56.962524 
L 810.284042 57.285518 
L 810.581982 53.547765 
L 810.879922 58.331677 
L 811.475803 61.429518 
L 811.773743 62.522406 
L 812.071684 62.39239 
L 812.369624 38.765428 
L 812.667564 46.949864 
L 812.965505 48.824817 
L 813.263445 38.560265 
L 813.561385 39.927387 
L 813.859326 33.294925 
L 814.157266 35.844316 
L 814.455206 35.956037 
L 814.753147 26.692946 
L 815.051087 27.42019 
L 815.349027 35.409601 
L 815.646968 39.200142 
L 815.944908 36.762489 
L 816.242848 40.601791 
L 816.540789 42.02986 
L 816.838729 38.5298 
L 817.43461 43.551353 
L 817.73255 38.409938 
L 818.03049 43.809339 
L 818.626371 47.287058 
L 820.116073 52.156271 
L 820.414013 49.929891 
L 820.711954 52.33708 
L 821.009894 53.308075 
L 821.307834 53.316199 
L 821.903715 55.274439 
L 822.201655 54.847848 
L 822.499596 48.231651 
L 822.797536 53.153687 
L 823.095476 55.274439 
L 823.393417 54.073908 
L 823.691357 54.803166 
L 823.989297 56.657809 
L 824.287238 50.246792 
L 824.585178 54.705662 
L 824.883118 55.408518 
L 825.181059 50.460079 
L 825.478999 54.56549 
L 825.776939 55.934644 
L 826.07488 54.7016 
L 827.266641 58.642468 
L 827.862522 59.975046 
L 828.160462 54.293288 
L 828.458402 58.305257 
L 828.756343 59.526115 
L 829.054283 56.627344 
L 829.352223 59.845047 
L 829.650164 60.00959 
L 829.948104 60.720569 
L 830.246044 61.128882 
L 830.543985 56.8386 
L 830.841925 60.003497 
L 831.139865 60.237094 
L 831.735746 61.569689 
L 832.033686 60.753065 
L 832.331627 62.095815 
L 832.629567 62.290824 
L 832.927507 63.369495 
L 833.225448 62.388328 
L 834.119269 64.188134 
L 834.417209 64.082506 
L 834.715149 64.964121 
L 835.01309 65.303363 
L 835.31103 64.123125 
L 835.608971 65.553225 
L 836.204851 66.304824 
L 836.502792 64.330336 
L 836.800732 66.03059 
L 837.098672 67.068625 
L 837.396613 67.316456 
L 837.694553 67.791791 
L 838.290434 66.835012 
L 838.588374 67.537884 
L 838.886314 66.499849 
L 839.184255 67.785698 
L 839.482195 67.70241 
L 840.078076 68.657158 
L 840.376016 67.653667 
L 840.673956 68.770927 
L 840.971897 68.919206 
L 841.269837 69.416898 
L 841.567777 68.149328 
L 842.163658 69.615968 
L 842.461598 67.730861 
L 842.759539 69.991785 
L 843.355419 70.507756 
L 843.65336 70.627601 
L 843.9513 71.683915 
L 844.24924 71.897219 
L 844.845121 72.551314 
L 845.143061 70.78402 
L 845.441002 72.128785 
L 845.738942 72.835702 
L 846.036882 72.419283 
L 846.334823 72.658973 
L 846.632763 71.964241 
L 846.930703 73.004307 
L 847.228644 73.585287 
L 847.526584 73.343549 
L 848.122465 74.663959 
L 848.718345 74.353151 
L 849.314226 75.328208 
L 849.612166 74.369399 
L 849.910107 74.093134 
L 850.208047 70.188824 
L 850.505988 72.677269 
L 850.803928 72.313638 
L 851.101868 73.747799 
L 851.399809 71.767202 
L 851.697749 73.70718 
L 852.29363 74.808175 
L 852.88951 75.911219 
L 853.187451 75.6248 
L 853.783331 76.563283 
L 854.081272 76.569376 
L 854.379212 75.897002 
L 854.677152 76.703455 
L 854.975093 76.933006 
L 855.273033 77.47538 
L 855.868914 78.062453 
L 856.166854 78.625136 
L 856.464794 78.7003 
L 856.762735 77.073161 
L 857.060675 77.375845 
L 857.358615 78.487013 
L 857.656556 78.5703 
L 857.954496 79.005015 
L 858.252436 78.682021 
L 858.550377 79.293465 
L 859.146257 79.667234 
L 859.444198 78.992812 
L 860.040078 79.358474 
L 860.338019 79.386907 
L 860.635959 79.711932 
L 860.933899 80.581362 
L 861.23184 80.875905 
L 861.52978 80.930759 
L 861.82772 81.381721 
L 862.423601 81.763614 
L 862.721541 81.617366 
L 863.019482 81.6458 
L 863.317422 81.98098 
L 863.615362 82.013475 
L 863.913303 82.44819 
L 864.211243 82.606641 
L 864.807124 83.58373 
L 865.403004 83.604039 
L 865.700945 83.959546 
L 865.998885 83.146984 
L 866.296826 79.535203 
L 866.594766 82.301926 
L 866.892706 82.478655 
L 867.190647 83.291217 
L 867.488587 83.260736 
L 867.786527 81.072944 
L 868.084468 81.987073 
L 868.382408 78.310283 
L 868.680348 80.601672 
L 868.978289 79.646924 
L 869.276229 81.062789 
L 869.87211 80.721517 
L 870.17005 80.561035 
L 870.46799 80.723548 
L 871.361811 82.395385 
L 871.659752 78.395585 
L 871.957692 80.721517 
L 872.255632 77.046758 
L 872.553573 75.858396 
L 872.851513 78.3245 
L 873.149453 76.888308 
L 873.447394 72.108475 
L 873.745334 69.727706 
L 874.043274 72.449748 
L 874.341215 67.109262 
L 874.639155 68.03759 
L 875.235036 71.893157 
L 875.532976 66.314979 
L 875.830916 64.602539 
L 876.128857 66.906113 
L 876.426797 64.570026 
L 877.022678 63.763574 
L 877.320618 59.617526 
L 877.618558 59.060935 
L 877.916499 63.363385 
L 878.214439 63.01602 
L 878.512379 57.838047 
L 878.81032 59.144222 
L 879.10826 61.470154 
L 879.4062 62.307071 
L 879.704141 63.692472 
L 880.002081 63.052594 
L 880.300021 64.746755 
L 881.193843 52.477234 
L 881.491783 53.665596 
L 881.789723 59.31689 
L 882.385604 56.871113 
L 882.683544 59.973015 
L 882.981485 58.999989 
L 883.279425 56.814228 
L 883.577365 51.514362 
L 884.173246 57.649131 
L 884.471186 48.757777 
L 884.769127 54.244545 
L 885.067067 54.717848 
L 885.365007 47.612083 
L 885.662948 53.535579 
L 885.960888 52.140023 
L 886.556769 55.914334 
L 886.854709 54.301412 
L 887.152649 50.902918 
L 887.45059 51.077616 
L 887.74853 47.087988 
L 888.04647 54.272978 
L 888.642351 50.271164 
L 888.940291 54.065767 
L 889.238232 46.364823 
L 889.536172 53.675751 
L 889.834112 47.729914 
L 890.132053 52.412226 
L 890.429993 52.989143 
L 891.025874 55.625866 
L 891.323814 55.355695 
L 891.621754 57.391146 
L 891.919695 55.922458 
L 892.217635 56.747189 
L 892.515575 58.721693 
L 893.111456 60.019745 
L 893.409396 59.993342 
L 893.707337 55.621804 
L 894.005277 60.080691 
L 894.303217 58.538871 
L 895.197038 62.435057 
L 895.494979 63.3512 
L 895.792919 63.846861 
L 896.09086 64.663468 
L 896.3888 64.750817 
L 897.580561 66.930502 
L 897.878502 67.082842 
L 898.176442 67.891343 
L 898.474382 63.674194 
L 898.772323 66.792361 
L 899.070263 67.267696 
L 899.368203 68.133063 
L 899.666144 68.492632 
L 899.964084 63.767636 
L 900.262024 66.38608 
L 900.559965 67.060502 
L 900.857905 64.895051 
L 901.155845 65.786822 
L 901.453786 61.864233 
L 901.751726 65.575566 
L 902.049666 66.997524 
L 902.347607 67.846644 
L 902.645547 64.450181 
L 903.241428 67.231138 
L 903.539368 56.385606 
L 903.837308 53.216664 
L 904.135249 53.866697 
L 904.433189 56.92798 
L 904.731129 58.22197 
L 905.02907 57.28347 
L 905.32701 57.407394 
L 905.62495 56.39373 
L 905.922891 56.389668 
L 906.220831 55.532424 
L 906.518771 52.434584 
L 906.816712 55.798534 
L 907.114652 57.645069 
L 907.412592 51.973449 
L 907.710533 52.64584 
L 908.008473 56.33077 
L 908.306413 51.66672 
L 908.604354 56.588755 
L 908.902294 58.169164 
L 909.200234 51.337633 
L 909.498175 55.887914 
L 909.796115 55.053028 
L 910.094055 53.456354 
L 910.987877 59.804427 
L 911.285817 60.491018 
L 911.583757 60.210691 
L 911.881698 54.965679 
L 912.179638 59.05078 
L 912.477578 59.733326 
L 912.775519 58.731848 
L 913.073459 61.474216 
L 913.66934 63.349169 
L 913.96728 63.215107 
L 914.26522 62.097846 
L 914.563161 63.850923 
L 914.861101 62.254266 
L 915.159041 63.932179 
L 915.456982 60.143652 
L 915.754922 62.695074 
L 916.052862 63.936241 
L 916.350803 59.292518 
L 916.648743 62.471615 
L 917.244624 64.080475 
L 917.542564 62.672733 
L 917.840504 62.53053 
L 917.840504 62.53053 
" clip-path="url(#p08c1d947d9)" style="fill: none; stroke: #1d4ed8; stroke-opacity: 0.95; stroke-width: 0.936; stroke-linecap: square"/>
   </g>
   <g id="patch_23">
    <path d="M 42.190938 228.954713 
L 42.190938 17.061433 
" style="fill: none; stroke: #cbd5e1; stroke-width: 0.8; stroke-linejoin: miter; stroke-linecap: square"/>
   </g>
   <g id="patch_24">
    <path d="M 935.353438 228.954713 
L 935.353438 17.061433 
" style="fill: none; stroke: #cbd5e1; stroke-width: 0.8; stroke-linejoin: miter; stroke-linecap: square"/>
   </g>
   <g id="patch_25">
    <path d="M 42.190938 228.954713 
L 935.353438 228.954713 
" style="fill: none; stroke: #cbd5e1; stroke-width: 0.8; stroke-linejoin: miter; stroke-linecap: square"/>
   </g>
   <g id="patch_26">
    <path d="M 42.190938 17.061433 
L 935.353438 17.061433 
" style="fill: none; stroke: #cbd5e1; stroke-width: 0.8; stroke-linejoin: miter; stroke-linecap: square"/>
   </g>
   <g id="text_19">
    <!-- ACC -->
    <g style="fill: #475569" transform="translate(123.320539 13.27875) scale(0.08 -0.08)">
     <defs>
      <path id="DejaVuSans-43" d="M 4122 4306 
L 4122 3641 
Q 3803 3938 3442 4084 
Q 3081 4231 2675 4231 
Q 1875 4231 1450 3742 
Q 1025 3253 1025 2328 
Q 1025 1406 1450 917 
Q 1875 428 2675 428 
Q 3081 428 3442 575 
Q 3803 722 4122 1019 
L 4122 359 
Q 3791 134 3420 21 
Q 3050 -91 2638 -91 
Q 1578 -91 968 557 
Q 359 1206 359 2328 
Q 359 3453 968 4101 
Q 1578 4750 2638 4750 
Q 3056 4750 3426 4639 
Q 3797 4528 4122 4306 
z
" transform="scale(0.015625)"/>
     </defs>
     <use xlink:href="#DejaVuSans-41"/>
     <use xlink:href="#DejaVuSans-43" transform="translate(66.658203 0)"/>
     <use xlink:href="#DejaVuSans-43" transform="translate(136.482422 0)"/>
    </g>
   </g>
   <g id="text_20">
    <!-- OC -->
    <g style="fill: #475569" transform="translate(228.420582 13.27875) scale(0.08 -0.08)">
     <defs>
      <path id="DejaVuSans-4f" d="M 2522 4238 
Q 1834 4238 1429 3725 
Q 1025 3213 1025 2328 
Q 1025 1447 1429 934 
Q 1834 422 2522 422 
Q 3209 422 3611 934 
Q 4013 1447 4013 2328 
Q 4013 3213 3611 3725 
Q 3209 4238 2522 4238 
z
M 2522 4750 
Q 3503 4750 4090 4092 
Q 4678 3434 4678 2328 
Q 4678 1225 4090 567 
Q 3503 -91 2522 -91 
Q 1538 -91 948 565 
Q 359 1222 359 2328 
Q 359 3434 948 4092 
Q 1538 4750 2522 4750 
z
" transform="scale(0.015625)"/>
     </defs>
     <use xlink:href="#DejaVuSans-4f"/>
     <use xlink:href="#DejaVuSans-43" transform="translate(78.710938 0)"/>
    </g>
   </g>
   <g id="text_21">
    <!-- FCS -->
    <g style="fill: #475569" transform="translate(253.543962 13.27875) scale(0.08 -0.08)">
     <defs>
      <path id="DejaVuSans-46" d="M 628 4666 
L 3309 4666 
L 3309 4134 
L 1259 4134 
L 1259 2759 
L 3109 2759 
L 3109 2228 
L 1259 2228 
L 1259 0 
L 628 0 
L 628 4666 
z
" transform="scale(0.015625)"/>
     </defs>
     <use xlink:href="#DejaVuSans-46"/>
     <use xlink:href="#DejaVuSans-43" transform="translate(57.519531 0)"/>
     <use xlink:href="#DejaVuSans-53" transform="translate(127.34375 0)"/>
    </g>
   </g>
   <g id="text_22">
    <!-- SR -->
    <g style="fill: #475569" transform="translate(282.672968 13.27875) scale(0.08 -0.08)">
     <defs>
      <path id="DejaVuSans-52" d="M 2841 2188 
Q 3044 2119 3236 1894 
Q 3428 1669 3622 1275 
L 4263 0 
L 3584 0 
L 2988 1197 
Q 2756 1666 2539 1819 
Q 2322 1972 1947 1972 
L 1259 1972 
L 1259 0 
L 628 0 
L 628 4666 
L 2053 4666 
Q 2853 4666 3247 4331 
Q 3641 3997 3641 3322 
Q 3641 2881 3436 2590 
Q 3231 2300 2841 2188 
z
M 1259 4147 
L 1259 2491 
L 2053 2491 
Q 2509 2491 2742 2702 
Q 2975 2913 2975 3322 
Q 2975 3731 2742 3939 
Q 2509 4147 2053 4147 
L 1259 4147 
z
" transform="scale(0.015625)"/>
     </defs>
     <use xlink:href="#DejaVuSans-53"/>
     <use xlink:href="#DejaVuSans-52" transform="translate(63.476562 0)"/>
    </g>
   </g>
   <g id="text_23">
    <!-- FFC -->
    <g style="fill: #475569" transform="translate(320.819289 13.27875) scale(0.08 -0.08)">
     <use xlink:href="#DejaVuSans-46"/>
     <use xlink:href="#DejaVuSans-46" transform="translate(57.519531 0)"/>
     <use xlink:href="#DejaVuSans-43" transform="translate(115.039062 0)"/>
    </g>
   </g>
   <g id="text_24">
    <!-- SS -->
    <g style="fill: #475569" transform="translate(414.751568 13.27875) scale(0.08 -0.08)">
     <use xlink:href="#DejaVuSans-53"/>
     <use xlink:href="#DejaVuSans-53" transform="translate(63.476562 0)"/>
    </g>
   </g>
   <g id="text_25">
    <!-- OC -->
    <g style="fill: #475569" transform="translate(480.92502 13.27875) scale(0.08 -0.08)">
     <use xlink:href="#DejaVuSans-4f"/>
     <use xlink:href="#DejaVuSans-43" transform="translate(78.710938 0)"/>
    </g>
   </g>
   <g id="text_26">
    <!-- FCS -->
    <g style="fill: #475569" transform="translate(503.813848 13.27875) scale(0.08 -0.08)">
     <use xlink:href="#DejaVuSans-46"/>
     <use xlink:href="#DejaVuSans-43" transform="translate(57.519531 0)"/>
     <use xlink:href="#DejaVuSans-53" transform="translate(127.34375 0)"/>
    </g>
   </g>
   <g id="text_27">
    <!-- SR -->
    <g style="fill: #475569" transform="translate(535.177406 13.27875) scale(0.08 -0.08)">
     <use xlink:href="#DejaVuSans-53"/>
     <use xlink:href="#DejaVuSans-52" transform="translate(63.476562 0)"/>
    </g>
   </g>
   <g id="text_28">
    <!-- FFC -->
    <g style="fill: #475569" transform="translate(573.323727 13.27875) scale(0.08 -0.08)">
     <use xlink:href="#DejaVuSans-46"/>
     <use xlink:href="#DejaVuSans-46" transform="translate(57.519531 0)"/>
     <use xlink:href="#DejaVuSans-43" transform="translate(115.039062 0)"/>
    </g>
   </g>
   <g id="text_29">
    <!-- SS -->
    <g style="fill: #475569" transform="translate(665.021454 13.27875) scale(0.08 -0.08)">
     <use xlink:href="#DejaVuSans-53"/>
     <use xlink:href="#DejaVuSans-53" transform="translate(63.476562 0)"/>
    </g>
   </g>
   <g id="text_30">
    <!-- OC -->
    <g style="fill: #475569" transform="translate(731.194905 13.27875) scale(0.08 -0.08)">
     <use xlink:href="#DejaVuSans-4f"/>
     <use xlink:href="#DejaVuSans-43" transform="translate(78.710938 0)"/>
    </g>
   </g>
   <g id="text_31">
    <!-- FCS -->
    <g style="fill: #475569" transform="translate(754.083733 13.27875) scale(0.08 -0.08)">
     <use xlink:href="#DejaVuSans-46"/>
     <use xlink:href="#DejaVuSans-43" transform="translate(57.519531 0)"/>
     <use xlink:href="#DejaVuSans-53" transform="translate(127.34375 0)"/>
    </g>
   </g>
   <g id="text_32">
    <!-- SR -->
    <g style="fill: #475569" transform="translate(792.150949 13.27875) scale(0.08 -0.08)">
     <use xlink:href="#DejaVuSans-53"/>
     <use xlink:href="#DejaVuSans-52" transform="translate(63.476562 0)"/>
    </g>
   </g>
   <g id="text_33">
    <!-- FFC -->
    <g style="fill: #475569" transform="translate(834.766375 13.27875) scale(0.08 -0.08)">
     <use xlink:href="#DejaVuSans-46"/>
     <use xlink:href="#DejaVuSans-46" transform="translate(57.519531 0)"/>
     <use xlink:href="#DejaVuSans-43" transform="translate(115.039062 0)"/>
    </g>
   </g>
   <g id="text_34">
    <!-- SS -->
    <g style="fill: #475569" transform="translate(888.476709 13.27875) scale(0.08 -0.08)">
     <use xlink:href="#DejaVuSans-53"/>
     <use xlink:href="#DejaVuSans-53" transform="translate(63.476562 0)"/>
    </g>
   </g>
   <g id="legend_1">
    <g id="line2d_34">
     <path d="M 849.174688 27.540183 
L 857.174688 27.540183 
L 865.174688 27.540183 
" style="fill: none; stroke: #1d4ed8; stroke-opacity: 0.95; stroke-width: 1.3; stroke-linecap: square"/>
    </g>
    <g id="text_35">
     <!-- Empatica EDA -->
     <g transform="translate(871.574688 30.340183) scale(0.08 -0.08)">
      <defs>
       <path id="DejaVuSans-6d" d="M 3328 2828 
Q 3544 3216 3844 3400 
Q 4144 3584 4550 3584 
Q 5097 3584 5394 3201 
Q 5691 2819 5691 2113 
L 5691 0 
L 5113 0 
L 5113 2094 
Q 5113 2597 4934 2840 
Q 4756 3084 4391 3084 
Q 3944 3084 3684 2787 
Q 3425 2491 3425 1978 
L 3425 0 
L 2847 0 
L 2847 2094 
Q 2847 2600 2669 2842 
Q 2491 3084 2119 3084 
Q 1678 3084 1418 2786 
Q 1159 2488 1159 1978 
L 1159 0 
L 581 0 
L 581 3500 
L 1159 3500 
L 1159 2956 
Q 1356 3278 1631 3431 
Q 1906 3584 2284 3584 
Q 2666 3584 2933 3390 
Q 3200 3197 3328 2828 
z
" transform="scale(0.015625)"/>
       <path id="DejaVuSans-70" d="M 1159 525 
L 1159 -1331 
L 581 -1331 
L 581 3500 
L 1159 3500 
L 1159 2969 
Q 1341 3281 1617 3432 
Q 1894 3584 2278 3584 
Q 2916 3584 3314 3078 
Q 3713 2572 3713 1747 
Q 3713 922 3314 415 
Q 2916 -91 2278 -91 
Q 1894 -91 1617 61 
Q 1341 213 1159 525 
z
M 3116 1747 
Q 3116 2381 2855 2742 
Q 2594 3103 2138 3103 
Q 1681 3103 1420 2742 
Q 1159 2381 1159 1747 
Q 1159 1113 1420 752 
Q 1681 391 2138 391 
Q 2594 391 2855 752 
Q 3116 1113 3116 1747 
z
" transform="scale(0.015625)"/>
      </defs>
      <use xlink:href="#DejaVuSans-45"/>
      <use xlink:href="#DejaVuSans-6d" transform="translate(63.183594 0)"/>
      <use xlink:href="#DejaVuSans-70" transform="translate(160.595703 0)"/>
      <use xlink:href="#DejaVuSans-61" transform="translate(224.072266 0)"/>
      <use xlink:href="#DejaVuSans-74" transform="translate(285.351562 0)"/>
      <use xlink:href="#DejaVuSans-69" transform="translate(324.560547 0)"/>
      <use xlink:href="#DejaVuSans-63" transform="translate(352.34375 0)"/>
      <use xlink:href="#DejaVuSans-61" transform="translate(407.324219 0)"/>
      <use xlink:href="#DejaVuSans-20" transform="translate(468.603516 0)"/>
      <use xlink:href="#DejaVuSans-45" transform="translate(500.390625 0)"/>
      <use xlink:href="#DejaVuSans-44" transform="translate(563.574219 0)"/>
      <use xlink:href="#DejaVuSans-41" transform="translate(638.826172 0)"/>
     </g>
    </g>
   </g>
  </g>
 </g>
 <defs>
  <clipPath id="p08c1d947d9">
   <rect x="42.190938" y="17.061433" width="893.1625" height="211.89328"/>
  </clipPath>
 </defs>
</svg>
