<?xml version="1.0" encoding="utf-8" standalone="no"?>
<!DOCTYPE svg PUBLIC "-//W3C//DTD SVG 1.1//EN"
  "http://www.w3.org/Graphics/SVG/1.1/DTD/svg11.dtd">
<svg xmlns:xlink="http://www.w3.org/1999/xlink" width="942.505625pt" height="265.54315pt" viewBox="0 0 942.505625 265.54315" xmlns="http://www.w3.org/2000/svg" version="1.1">
 <metadata>
  <rdf:RDF xmlns:dc="http://purl.org/dc/elements/1.1/" xmlns:cc="http://creativecommons.org/ns#" xmlns:rdf="http://www.w3.org/1999/02/22-rdf-syntax-ns#">
   <cc:Work>
    <dc:type rdf:resource="http://purl.org/dc/dcmitype/StillImage"/>
    <dc:date>2026-04-17T13:14:04.809067</dc:date>
    <dc:format>image/svg+xml</dc:format>
    <dc:creator>
     <cc:Agent>
      <dc:title>Matplotlib v3.10.8, https://matplotlib.org/</dc:title>
     </cc:Agent>
    </dc:creator>
   </cc:Work>
  </rdf:RDF>
 </metadata>
 <defs>
  <style type="text/css">*{stroke-linejoin: round; stroke-linecap: butt}</style>
 </defs>
 <g id="figure_1">
  <g id="patch_1">
   <path d="M 0 265.54315 
L 942.505625 265.54315 
L 942.505625 0 
L 0 0 
z
" style="fill: #ffffff"/>
  </g>
  <g id="axes_1">
   <g id="patch_2">
    <path d="M 39.330625 228.954713 
L 935.305625 228.954713 
L 935.305625 17.061433 
L 39.330625 17.061433 
z
" style="fill: #ffffff"/>
   </g>
   <g id="patch_3">
    <path d="M 39.330625 228.954713 
L 220.540253 228.954713 
L 220.540253 17.061433 
L 39.330625 17.061433 
z
" clip-path="url(#p022171d662)" style="fill: #f8fafc; opacity: 0.45"/>
   </g>
   <g id="patch_4">
    <path d="M 220.540253 228.954713 
L 247.721697 228.954713 
L 247.721697 17.061433 
L 220.540253 17.061433 
z
" clip-path="url(#p022171d662)" style="fill: #eff6ff; opacity: 0.45"/>
   </g>
   <g id="patch_5">
    <path d="M 247.721697 228.954713 
L 274.903142 228.954713 
L 274.903142 17.061433 
L 247.721697 17.061433 
z
" clip-path="url(#p022171d662)" style="fill: #fef3c7; opacity: 0.45"/>
   </g>
   <g id="patch_6">
    <path d="M 274.903142 228.954713 
L 315.675308 228.954713 
L 315.675308 17.061433 
L 274.903142 17.061433 
z
" clip-path="url(#p022171d662)" style="fill: #dcfce7; opacity: 0.45"/>
   </g>
   <g id="patch_7">
    <path d="M 315.675308 228.954713 
L 360.977715 228.954713 
L 360.977715 17.061433 
L 315.675308 17.061433 
z
" clip-path="url(#p022171d662)" style="fill: #fee2e2; opacity: 0.45"/>
   </g>
   <g id="patch_8">
    <path d="M 360.977715 228.954713 
L 478.763973 228.954713 
L 478.763973 17.061433 
L 360.977715 17.061433 
z
" clip-path="url(#p022171d662)" style="fill: #ede9fe; opacity: 0.45"/>
   </g>
   <g id="patch_9">
    <path d="M 478.763973 228.954713 
L 501.415177 228.954713 
L 501.415177 17.061433 
L 478.763973 17.061433 
z
" clip-path="url(#p022171d662)" style="fill: #f8fafc; opacity: 0.45"/>
   </g>
   <g id="patch_10">
    <path d="M 501.415177 228.954713 
L 528.596621 228.954713 
L 528.596621 17.061433 
L 501.415177 17.061433 
z
" clip-path="url(#p022171d662)" style="fill: #eff6ff; opacity: 0.45"/>
   </g>
   <g id="patch_11">
    <path d="M 528.596621 228.954713 
L 569.368788 228.954713 
L 569.368788 17.061433 
L 528.596621 17.061433 
z
" clip-path="url(#p022171d662)" style="fill: #fef3c7; opacity: 0.45"/>
   </g>
   <g id="patch_12">
    <path d="M 569.368788 228.954713 
L 614.671195 228.954713 
L 614.671195 17.061433 
L 569.368788 17.061433 
z
" clip-path="url(#p022171d662)" style="fill: #dcfce7; opacity: 0.45"/>
   </g>
   <g id="patch_13">
    <path d="M 614.671195 228.954713 
L 732.457453 228.954713 
L 732.457453 17.061433 
L 614.671195 17.061433 
z
" clip-path="url(#p022171d662)" style="fill: #fee2e2; opacity: 0.45"/>
   </g>
   <g id="patch_14">
    <path d="M 732.457453 228.954713 
L 755.108657 228.954713 
L 755.108657 17.061433 
L 732.457453 17.061433 
z
" clip-path="url(#p022171d662)" style="fill: #ede9fe; opacity: 0.45"/>
   </g>
   <g id="patch_15">
    <path d="M 755.108657 228.954713 
L 782.290101 228.954713 
L 782.290101 17.061433 
L 755.108657 17.061433 
z
" clip-path="url(#p022171d662)" style="fill: #f8fafc; opacity: 0.45"/>
   </g>
   <g id="patch_16">
    <path d="M 782.290101 228.954713 
L 823.062267 228.954713 
L 823.062267 17.061433 
L 782.290101 17.061433 
z
" clip-path="url(#p022171d662)" style="fill: #eff6ff; opacity: 0.45"/>
   </g>
   <g id="patch_17">
    <path d="M 823.062267 228.954713 
L 868.364674 228.954713 
L 868.364674 17.061433 
L 823.062267 17.061433 
z
" clip-path="url(#p022171d662)" style="fill: #fef3c7; opacity: 0.45"/>
   </g>
   <g id="patch_18">
    <path d="M 868.364674 228.954713 
L 913.667081 228.954713 
L 913.667081 17.061433 
L 868.364674 17.061433 
z
" clip-path="url(#p022171d662)" style="fill: #dcfce7; opacity: 0.45"/>
   </g>
   <g id="patch_19">
    <path d="M 913.667081 228.954713 
L 918.197322 228.954713 
L 918.197322 17.061433 
L 913.667081 17.061433 
z
" clip-path="url(#p022171d662)" style="fill: #fee2e2; opacity: 0.45"/>
   </g>
   <g id="matplotlib.axis_1">
    <g id="xtick_1">
     <g id="line2d_1">
      <path d="M 39.330625 228.954713 
L 39.330625 17.061433 
" clip-path="url(#p022171d662)" style="fill: none; stroke: #eef2f7; stroke-width: 0.55; stroke-linecap: square"/>
     </g>
     <g id="line2d_2">
      <defs>
       <path id="m4311e1dad4" d="M 0 0 
L 0 3.5 
" style="stroke: #000000; stroke-width: 0.8"/>
      </defs>
      <g>
       <use xlink:href="#m4311e1dad4" x="39.330625" y="228.954713" style="stroke: #000000; stroke-width: 0.8"/>
      </g>
     </g>
     <g id="text_1">
      <!-- 0 -->
      <g transform="translate(36.4675 242.793307) scale(0.09 -0.09)">
       <defs>
        <path id="DejaVuSans-30" d="M 2034 4250 
Q 1547 4250 1301 3770 
Q 1056 3291 1056 2328 
Q 1056 1369 1301 889 
Q 1547 409 2034 409 
Q 2525 409 2770 889 
Q 3016 1369 3016 2328 
Q 3016 3291 2770 3770 
Q 2525 4250 2034 4250 
z
M 2034 4750 
Q 2819 4750 3233 4129 
Q 3647 3509 3647 2328 
Q 3647 1150 3233 529 
Q 2819 -91 2034 -91 
Q 1250 -91 836 529 
Q 422 1150 422 2328 
Q 422 3509 836 4129 
Q 1250 4750 2034 4750 
z
" transform="scale(0.015625)"/>
       </defs>
       <use xlink:href="#DejaVuSans-30"/>
      </g>
     </g>
    </g>
    <g id="xtick_2">
     <g id="line2d_3">
      <path d="M 152.586643 228.954713 
L 152.586643 17.061433 
" clip-path="url(#p022171d662)" style="fill: none; stroke: #eef2f7; stroke-width: 0.55; stroke-linecap: square"/>
     </g>
     <g id="line2d_4">
      <g>
       <use xlink:href="#m4311e1dad4" x="152.586643" y="228.954713" style="stroke: #000000; stroke-width: 0.8"/>
      </g>
     </g>
     <g id="text_2">
      <!-- 25 -->
      <g transform="translate(146.860393 242.793307) scale(0.09 -0.09)">
       <defs>
        <path id="DejaVuSans-32" d="M 1228 531 
L 3431 531 
L 3431 0 
L 469 0 
L 469 531 
Q 828 903 1448 1529 
Q 2069 2156 2228 2338 
Q 2531 2678 2651 2914 
Q 2772 3150 2772 3378 
Q 2772 3750 2511 3984 
Q 2250 4219 1831 4219 
Q 1534 4219 1204 4116 
Q 875 4013 500 3803 
L 500 4441 
Q 881 4594 1212 4672 
Q 1544 4750 1819 4750 
Q 2544 4750 2975 4387 
Q 3406 4025 3406 3419 
Q 3406 3131 3298 2873 
Q 3191 2616 2906 2266 
Q 2828 2175 2409 1742 
Q 1991 1309 1228 531 
z
" transform="scale(0.015625)"/>
        <path id="DejaVuSans-35" d="M 691 4666 
L 3169 4666 
L 3169 4134 
L 1269 4134 
L 1269 2991 
Q 1406 3038 1543 3061 
Q 1681 3084 1819 3084 
Q 2600 3084 3056 2656 
Q 3513 2228 3513 1497 
Q 3513 744 3044 326 
Q 2575 -91 1722 -91 
Q 1428 -91 1123 -41 
Q 819 9 494 109 
L 494 744 
Q 775 591 1075 516 
Q 1375 441 1709 441 
Q 2250 441 2565 725 
Q 2881 1009 2881 1497 
Q 2881 1984 2565 2268 
Q 2250 2553 1709 2553 
Q 1456 2553 1204 2497 
Q 953 2441 691 2322 
L 691 4666 
z
" transform="scale(0.015625)"/>
       </defs>
       <use xlink:href="#DejaVuSans-32"/>
       <use xlink:href="#DejaVuSans-35" transform="translate(63.623047 0)"/>
      </g>
     </g>
    </g>
    <g id="xtick_3">
     <g id="line2d_5">
      <path d="M 265.84266 228.954713 
L 265.84266 17.061433 
" clip-path="url(#p022171d662)" style="fill: none; stroke: #eef2f7; stroke-width: 0.55; stroke-linecap: square"/>
     </g>
     <g id="line2d_6">
      <g>
       <use xlink:href="#m4311e1dad4" x="265.84266" y="228.954713" style="stroke: #000000; stroke-width: 0.8"/>
      </g>
     </g>
     <g id="text_3">
      <!-- 50 -->
      <g transform="translate(260.11641 242.793307) scale(0.09 -0.09)">
       <use xlink:href="#DejaVuSans-35"/>
       <use xlink:href="#DejaVuSans-30" transform="translate(63.623047 0)"/>
      </g>
     </g>
    </g>
    <g id="xtick_4">
     <g id="line2d_7">
      <path d="M 379.098678 228.954713 
L 379.098678 17.061433 
" clip-path="url(#p022171d662)" style="fill: none; stroke: #eef2f7; stroke-width: 0.55; stroke-linecap: square"/>
     </g>
     <g id="line2d_8">
      <g>
       <use xlink:href="#m4311e1dad4" x="379.098678" y="228.954713" style="stroke: #000000; stroke-width: 0.8"/>
      </g>
     </g>
     <g id="text_4">
      <!-- 75 -->
      <g transform="translate(373.372428 242.793307) scale(0.09 -0.09)">
       <defs>
        <path id="DejaVuSans-37" d="M 525 4666 
L 3525 4666 
L 3525 4397 
L 1831 0 
L 1172 0 
L 2766 4134 
L 525 4134 
L 525 4666 
z
" transform="scale(0.015625)"/>
       </defs>
       <use xlink:href="#DejaVuSans-37"/>
       <use xlink:href="#DejaVuSans-35" transform="translate(63.623047 0)"/>
      </g>
     </g>
    </g>
    <g id="xtick_5">
     <g id="line2d_9">
      <path d="M 492.354696 228.954713 
L 492.354696 17.061433 
" clip-path="url(#p022171d662)" style="fill: none; stroke: #eef2f7; stroke-width: 0.55; stroke-linecap: square"/>
     </g>
     <g id="line2d_10">
      <g>
       <use xlink:href="#m4311e1dad4" x="492.354696" y="228.954713" style="stroke: #000000; stroke-width: 0.8"/>
      </g>
     </g>
     <g id="text_5">
      <!-- 100 -->
      <g transform="translate(483.765321 242.793307) scale(0.09 -0.09)">
       <defs>
        <path id="DejaVuSans-31" d="M 794 531 
L 1825 531 
L 1825 4091 
L 703 3866 
L 703 4441 
L 1819 4666 
L 2450 4666 
L 2450 531 
L 3481 531 
L 3481 0 
L 794 0 
L 794 531 
z
" transform="scale(0.015625)"/>
       </defs>
       <use xlink:href="#DejaVuSans-31"/>
       <use xlink:href="#DejaVuSans-30" transform="translate(63.623047 0)"/>
       <use xlink:href="#DejaVuSans-30" transform="translate(127.246094 0)"/>
      </g>
     </g>
    </g>
    <g id="xtick_6">
     <g id="line2d_11">
      <path d="M 605.610713 228.954713 
L 605.610713 17.061433 
" clip-path="url(#p022171d662)" style="fill: none; stroke: #eef2f7; stroke-width: 0.55; stroke-linecap: square"/>
     </g>
     <g id="line2d_12">
      <g>
       <use xlink:href="#m4311e1dad4" x="605.610713" y="228.954713" style="stroke: #000000; stroke-width: 0.8"/>
      </g>
     </g>
     <g id="text_6">
      <!-- 125 -->
      <g transform="translate(597.021338 242.793307) scale(0.09 -0.09)">
       <use xlink:href="#DejaVuSans-31"/>
       <use xlink:href="#DejaVuSans-32" transform="translate(63.623047 0)"/>
       <use xlink:href="#DejaVuSans-35" transform="translate(127.246094 0)"/>
      </g>
     </g>
    </g>
    <g id="xtick_7">
     <g id="line2d_13">
      <path d="M 718.866731 228.954713 
L 718.866731 17.061433 
" clip-path="url(#p022171d662)" style="fill: none; stroke: #eef2f7; stroke-width: 0.55; stroke-linecap: square"/>
     </g>
     <g id="line2d_14">
      <g>
       <use xlink:href="#m4311e1dad4" x="718.866731" y="228.954713" style="stroke: #000000; stroke-width: 0.8"/>
      </g>
     </g>
     <g id="text_7">
      <!-- 150 -->
      <g transform="translate(710.277356 242.793307) scale(0.09 -0.09)">
       <use xlink:href="#DejaVuSans-31"/>
       <use xlink:href="#DejaVuSans-35" transform="translate(63.623047 0)"/>
       <use xlink:href="#DejaVuSans-30" transform="translate(127.246094 0)"/>
      </g>
     </g>
    </g>
    <g id="xtick_8">
     <g id="line2d_15">
      <path d="M 832.122749 228.954713 
L 832.122749 17.061433 
" clip-path="url(#p022171d662)" style="fill: none; stroke: #eef2f7; stroke-width: 0.55; stroke-linecap: square"/>
     </g>
     <g id="line2d_16">
      <g>
       <use xlink:href="#m4311e1dad4" x="832.122749" y="228.954713" style="stroke: #000000; stroke-width: 0.8"/>
      </g>
     </g>
     <g id="text_8">
      <!-- 175 -->
      <g transform="translate(823.533374 242.793307) scale(0.09 -0.09)">
       <use xlink:href="#DejaVuSans-31"/>
       <use xlink:href="#DejaVuSans-37" transform="translate(63.623047 0)"/>
       <use xlink:href="#DejaVuSans-35" transform="translate(127.246094 0)"/>
      </g>
     </g>
    </g>
    <g id="text_9">
     <!-- Minutes since session start -->
     <g transform="translate(419.728281 256.263463) scale(0.1 -0.1)">
      <defs>
       <path id="DejaVuSans-4d" d="M 628 4666 
L 1569 4666 
L 2759 1491 
L 3956 4666 
L 4897 4666 
L 4897 0 
L 4281 0 
L 4281 4097 
L 3078 897 
L 2444 897 
L 1241 4097 
L 1241 0 
L 628 0 
L 628 4666 
z
" transform="scale(0.015625)"/>
       <path id="DejaVuSans-69" d="M 603 3500 
L 1178 3500 
L 1178 0 
L 603 0 
L 603 3500 
z
M 603 4863 
L 1178 4863 
L 1178 4134 
L 603 4134 
L 603 4863 
z
" transform="scale(0.015625)"/>
       <path id="DejaVuSans-6e" d="M 3513 2113 
L 3513 0 
L 2938 0 
L 2938 2094 
Q 2938 2591 2744 2837 
Q 2550 3084 2163 3084 
Q 1697 3084 1428 2787 
Q 1159 2491 1159 1978 
L 1159 0 
L 581 0 
L 581 3500 
L 1159 3500 
L 1159 2956 
Q 1366 3272 1645 3428 
Q 1925 3584 2291 3584 
Q 2894 3584 3203 3211 
Q 3513 2838 3513 2113 
z
" transform="scale(0.015625)"/>
       <path id="DejaVuSans-75" d="M 544 1381 
L 544 3500 
L 1119 3500 
L 1119 1403 
Q 1119 906 1312 657 
Q 1506 409 1894 409 
Q 2359 409 2629 706 
Q 2900 1003 2900 1516 
L 2900 3500 
L 3475 3500 
L 3475 0 
L 2900 0 
L 2900 538 
Q 2691 219 2414 64 
Q 2138 -91 1772 -91 
Q 1169 -91 856 284 
Q 544 659 544 1381 
z
M 1991 3584 
L 1991 3584 
z
" transform="scale(0.015625)"/>
       <path id="DejaVuSans-74" d="M 1172 4494 
L 1172 3500 
L 2356 3500 
L 2356 3053 
L 1172 3053 
L 1172 1153 
Q 1172 725 1289 603 
Q 1406 481 1766 481 
L 2356 481 
L 2356 0 
L 1766 0 
Q 1100 0 847 248 
Q 594 497 594 1153 
L 594 3053 
L 172 3053 
L 172 3500 
L 594 3500 
L 594 4494 
L 1172 4494 
z
" transform="scale(0.015625)"/>
       <path id="DejaVuSans-65" d="M 3597 1894 
L 3597 1613 
L 953 1613 
Q 991 1019 1311 708 
Q 1631 397 2203 397 
Q 2534 397 2845 478 
Q 3156 559 3463 722 
L 3463 178 
Q 3153 47 2828 -22 
Q 2503 -91 2169 -91 
Q 1331 -91 842 396 
Q 353 884 353 1716 
Q 353 2575 817 3079 
Q 1281 3584 2069 3584 
Q 2775 3584 3186 3129 
Q 3597 2675 3597 1894 
z
M 3022 2063 
Q 3016 2534 2758 2815 
Q 2500 3097 2075 3097 
Q 1594 3097 1305 2825 
Q 1016 2553 972 2059 
L 3022 2063 
z
" transform="scale(0.015625)"/>
       <path id="DejaVuSans-73" d="M 2834 3397 
L 2834 2853 
Q 2591 2978 2328 3040 
Q 2066 3103 1784 3103 
Q 1356 3103 1142 2972 
Q 928 2841 928 2578 
Q 928 2378 1081 2264 
Q 1234 2150 1697 2047 
L 1894 2003 
Q 2506 1872 2764 1633 
Q 3022 1394 3022 966 
Q 3022 478 2636 193 
Q 2250 -91 1575 -91 
Q 1294 -91 989 -36 
Q 684 19 347 128 
L 347 722 
Q 666 556 975 473 
Q 1284 391 1588 391 
Q 1994 391 2212 530 
Q 2431 669 2431 922 
Q 2431 1156 2273 1281 
Q 2116 1406 1581 1522 
L 1381 1569 
Q 847 1681 609 1914 
Q 372 2147 372 2553 
Q 372 3047 722 3315 
Q 1072 3584 1716 3584 
Q 2034 3584 2315 3537 
Q 2597 3491 2834 3397 
z
" transform="scale(0.015625)"/>
       <path id="DejaVuSans-20" transform="scale(0.015625)"/>
       <path id="DejaVuSans-63" d="M 3122 3366 
L 3122 2828 
Q 2878 2963 2633 3030 
Q 2388 3097 2138 3097 
Q 1578 3097 1268 2742 
Q 959 2388 959 1747 
Q 959 1106 1268 751 
Q 1578 397 2138 397 
Q 2388 397 2633 464 
Q 2878 531 3122 666 
L 3122 134 
Q 2881 22 2623 -34 
Q 2366 -91 2075 -91 
Q 1284 -91 818 406 
Q 353 903 353 1747 
Q 353 2603 823 3093 
Q 1294 3584 2113 3584 
Q 2378 3584 2631 3529 
Q 2884 3475 3122 3366 
z
" transform="scale(0.015625)"/>
       <path id="DejaVuSans-6f" d="M 1959 3097 
Q 1497 3097 1228 2736 
Q 959 2375 959 1747 
Q 959 1119 1226 758 
Q 1494 397 1959 397 
Q 2419 397 2687 759 
Q 2956 1122 2956 1747 
Q 2956 2369 2687 2733 
Q 2419 3097 1959 3097 
z
M 1959 3584 
Q 2709 3584 3137 3096 
Q 3566 2609 3566 1747 
Q 3566 888 3137 398 
Q 2709 -91 1959 -91 
Q 1206 -91 779 398 
Q 353 888 353 1747 
Q 353 2609 779 3096 
Q 1206 3584 1959 3584 
z
" transform="scale(0.015625)"/>
       <path id="DejaVuSans-61" d="M 2194 1759 
Q 1497 1759 1228 1600 
Q 959 1441 959 1056 
Q 959 750 1161 570 
Q 1363 391 1709 391 
Q 2188 391 2477 730 
Q 2766 1069 2766 1631 
L 2766 1759 
L 2194 1759 
z
M 3341 1997 
L 3341 0 
L 2766 0 
L 2766 531 
Q 2569 213 2275 61 
Q 1981 -91 1556 -91 
Q 1019 -91 701 211 
Q 384 513 384 1019 
Q 384 1609 779 1909 
Q 1175 2209 1959 2209 
L 2766 2209 
L 2766 2266 
Q 2766 2663 2505 2880 
Q 2244 3097 1772 3097 
Q 1472 3097 1187 3025 
Q 903 2953 641 2809 
L 641 3341 
Q 956 3463 1253 3523 
Q 1550 3584 1831 3584 
Q 2591 3584 2966 3190 
Q 3341 2797 3341 1997 
z
" transform="scale(0.015625)"/>
       <path id="DejaVuSans-72" d="M 2631 2963 
Q 2534 3019 2420 3045 
Q 2306 3072 2169 3072 
Q 1681 3072 1420 2755 
Q 1159 2438 1159 1844 
L 1159 0 
L 581 0 
L 581 3500 
L 1159 3500 
L 1159 2956 
Q 1341 3275 1631 3429 
Q 1922 3584 2338 3584 
Q 2397 3584 2469 3576 
Q 2541 3569 2628 3553 
L 2631 2963 
z
" transform="scale(0.015625)"/>
      </defs>
      <use xlink:href="#DejaVuSans-4d"/>
      <use xlink:href="#DejaVuSans-69" transform="translate(86.279297 0)"/>
      <use xlink:href="#DejaVuSans-6e" transform="translate(114.0625 0)"/>
      <use xlink:href="#DejaVuSans-75" transform="translate(177.441406 0)"/>
      <use xlink:href="#DejaVuSans-74" transform="translate(240.820312 0)"/>
      <use xlink:href="#DejaVuSans-65" transform="translate(280.029297 0)"/>
      <use xlink:href="#DejaVuSans-73" transform="translate(341.552734 0)"/>
      <use xlink:href="#DejaVuSans-20" transform="translate(393.652344 0)"/>
      <use xlink:href="#DejaVuSans-73" transform="translate(425.439453 0)"/>
      <use xlink:href="#DejaVuSans-69" transform="translate(477.539062 0)"/>
      <use xlink:href="#DejaVuSans-6e" transform="translate(505.322266 0)"/>
      <use xlink:href="#DejaVuSans-63" transform="translate(568.701172 0)"/>
      <use xlink:href="#DejaVuSans-65" transform="translate(623.681641 0)"/>
      <use xlink:href="#DejaVuSans-20" transform="translate(685.205078 0)"/>
      <use xlink:href="#DejaVuSans-73" transform="translate(716.992188 0)"/>
      <use xlink:href="#DejaVuSans-65" transform="translate(769.091797 0)"/>
      <use xlink:href="#DejaVuSans-73" transform="translate(830.615234 0)"/>
      <use xlink:href="#DejaVuSans-73" transform="translate(882.714844 0)"/>
      <use xlink:href="#DejaVuSans-69" transform="translate(934.814453 0)"/>
      <use xlink:href="#DejaVuSans-6f" transform="translate(962.597656 0)"/>
      <use xlink:href="#DejaVuSans-6e" transform="translate(1023.779297 0)"/>
      <use xlink:href="#DejaVuSans-20" transform="translate(1087.158203 0)"/>
      <use xlink:href="#DejaVuSans-73" transform="translate(1118.945312 0)"/>
      <use xlink:href="#DejaVuSans-74" transform="translate(1171.044922 0)"/>
      <use xlink:href="#DejaVuSans-61" transform="translate(1210.253906 0)"/>
      <use xlink:href="#DejaVuSans-72" transform="translate(1271.533203 0)"/>
      <use xlink:href="#DejaVuSans-74" transform="translate(1312.646484 0)"/>
     </g>
    </g>
   </g>
   <g id="matplotlib.axis_2">
    <g id="ytick_1">
     <g id="line2d_17">
      <path d="M 39.330625 209.516931 
L 935.305625 209.516931 
" clip-path="url(#p022171d662)" style="fill: none; stroke: #eef2f7; stroke-opacity: 0.25; stroke-width: 0.55; stroke-linecap: square"/>
     </g>
     <g id="line2d_18">
      <defs>
       <path id="m90c1a1f3ee" d="M 0 0 
L -3.5 0 
" style="stroke: #000000; stroke-width: 0.8"/>
      </defs>
      <g>
       <use xlink:href="#m90c1a1f3ee" x="39.330625" y="209.516931" style="stroke: #000000; stroke-width: 0.8"/>
      </g>
     </g>
     <g id="text_10">
      <!-- 2 -->
      <g transform="translate(26.604375 212.936228) scale(0.09 -0.09)">
       <use xlink:href="#DejaVuSans-32"/>
      </g>
     </g>
    </g>
    <g id="ytick_2">
     <g id="line2d_19">
      <path d="M 39.330625 185.511965 
L 935.305625 185.511965 
" clip-path="url(#p022171d662)" style="fill: none; stroke: #eef2f7; stroke-opacity: 0.25; stroke-width: 0.55; stroke-linecap: square"/>
     </g>
     <g id="line2d_20">
      <g>
       <use xlink:href="#m90c1a1f3ee" x="39.330625" y="185.511965" style="stroke: #000000; stroke-width: 0.8"/>
      </g>
     </g>
     <g id="text_11">
      <!-- 3 -->
      <g transform="translate(26.604375 188.931262) scale(0.09 -0.09)">
       <defs>
        <path id="DejaVuSans-33" d="M 2597 2516 
Q 3050 2419 3304 2112 
Q 3559 1806 3559 1356 
Q 3559 666 3084 287 
Q 2609 -91 1734 -91 
Q 1441 -91 1130 -33 
Q 819 25 488 141 
L 488 750 
Q 750 597 1062 519 
Q 1375 441 1716 441 
Q 2309 441 2620 675 
Q 2931 909 2931 1356 
Q 2931 1769 2642 2001 
Q 2353 2234 1838 2234 
L 1294 2234 
L 1294 2753 
L 1863 2753 
Q 2328 2753 2575 2939 
Q 2822 3125 2822 3475 
Q 2822 3834 2567 4026 
Q 2313 4219 1838 4219 
Q 1578 4219 1281 4162 
Q 984 4106 628 3988 
L 628 4550 
Q 988 4650 1302 4700 
Q 1616 4750 1894 4750 
Q 2613 4750 3031 4423 
Q 3450 4097 3450 3541 
Q 3450 3153 3228 2886 
Q 3006 2619 2597 2516 
z
" transform="scale(0.015625)"/>
       </defs>
       <use xlink:href="#DejaVuSans-33"/>
      </g>
     </g>
    </g>
    <g id="ytick_3">
     <g id="line2d_21">
      <path d="M 39.330625 161.506998 
L 935.305625 161.506998 
" clip-path="url(#p022171d662)" style="fill: none; stroke: #eef2f7; stroke-opacity: 0.25; stroke-width: 0.55; stroke-linecap: square"/>
     </g>
     <g id="line2d_22">
      <g>
       <use xlink:href="#m90c1a1f3ee" x="39.330625" y="161.506998" style="stroke: #000000; stroke-width: 0.8"/>
      </g>
     </g>
     <g id="text_12">
      <!-- 4 -->
      <g transform="translate(26.604375 164.926295) scale(0.09 -0.09)">
       <defs>
        <path id="DejaVuSans-34" d="M 2419 4116 
L 825 1625 
L 2419 1625 
L 2419 4116 
z
M 2253 4666 
L 3047 4666 
L 3047 1625 
L 3713 1625 
L 3713 1100 
L 3047 1100 
L 3047 0 
L 2419 0 
L 2419 1100 
L 313 1100 
L 313 1709 
L 2253 4666 
z
" transform="scale(0.015625)"/>
       </defs>
       <use xlink:href="#DejaVuSans-34"/>
      </g>
     </g>
    </g>
    <g id="ytick_4">
     <g id="line2d_23">
      <path d="M 39.330625 137.502032 
L 935.305625 137.502032 
" clip-path="url(#p022171d662)" style="fill: none; stroke: #eef2f7; stroke-opacity: 0.25; stroke-width: 0.55; stroke-linecap: square"/>
     </g>
     <g id="line2d_24">
      <g>
       <use xlink:href="#m90c1a1f3ee" x="39.330625" y="137.502032" style="stroke: #000000; stroke-width: 0.8"/>
      </g>
     </g>
     <g id="text_13">
      <!-- 5 -->
      <g transform="translate(26.604375 140.921328) scale(0.09 -0.09)">
       <use xlink:href="#DejaVuSans-35"/>
      </g>
     </g>
    </g>
    <g id="ytick_5">
     <g id="line2d_25">
      <path d="M 39.330625 113.497065 
L 935.305625 113.497065 
" clip-path="url(#p022171d662)" style="fill: none; stroke: #eef2f7; stroke-opacity: 0.25; stroke-width: 0.55; stroke-linecap: square"/>
     </g>
     <g id="line2d_26">
      <g>
       <use xlink:href="#m90c1a1f3ee" x="39.330625" y="113.497065" style="stroke: #000000; stroke-width: 0.8"/>
      </g>
     </g>
     <g id="text_14">
      <!-- 6 -->
      <g transform="translate(26.604375 116.916362) scale(0.09 -0.09)">
       <defs>
        <path id="DejaVuSans-36" d="M 2113 2584 
Q 1688 2584 1439 2293 
Q 1191 2003 1191 1497 
Q 1191 994 1439 701 
Q 1688 409 2113 409 
Q 2538 409 2786 701 
Q 3034 994 3034 1497 
Q 3034 2003 2786 2293 
Q 2538 2584 2113 2584 
z
M 3366 4563 
L 3366 3988 
Q 3128 4100 2886 4159 
Q 2644 4219 2406 4219 
Q 1781 4219 1451 3797 
Q 1122 3375 1075 2522 
Q 1259 2794 1537 2939 
Q 1816 3084 2150 3084 
Q 2853 3084 3261 2657 
Q 3669 2231 3669 1497 
Q 3669 778 3244 343 
Q 2819 -91 2113 -91 
Q 1303 -91 875 529 
Q 447 1150 447 2328 
Q 447 3434 972 4092 
Q 1497 4750 2381 4750 
Q 2619 4750 2861 4703 
Q 3103 4656 3366 4563 
z
" transform="scale(0.015625)"/>
       </defs>
       <use xlink:href="#DejaVuSans-36"/>
      </g>
     </g>
    </g>
    <g id="ytick_6">
     <g id="line2d_27">
      <path d="M 39.330625 89.492098 
L 935.305625 89.492098 
" clip-path="url(#p022171d662)" style="fill: none; stroke: #eef2f7; stroke-opacity: 0.25; stroke-width: 0.55; stroke-linecap: square"/>
     </g>
     <g id="line2d_28">
      <g>
       <use xlink:href="#m90c1a1f3ee" x="39.330625" y="89.492098" style="stroke: #000000; stroke-width: 0.8"/>
      </g>
     </g>
     <g id="text_15">
      <!-- 7 -->
      <g transform="translate(26.604375 92.911395) scale(0.09 -0.09)">
       <use xlink:href="#DejaVuSans-37"/>
      </g>
     </g>
    </g>
    <g id="ytick_7">
     <g id="line2d_29">
      <path d="M 39.330625 65.487132 
L 935.305625 65.487132 
" clip-path="url(#p022171d662)" style="fill: none; stroke: #eef2f7; stroke-opacity: 0.25; stroke-width: 0.55; stroke-linecap: square"/>
     </g>
     <g id="line2d_30">
      <g>
       <use xlink:href="#m90c1a1f3ee" x="39.330625" y="65.487132" style="stroke: #000000; stroke-width: 0.8"/>
      </g>
     </g>
     <g id="text_16">
      <!-- 8 -->
      <g transform="translate(26.604375 68.906429) scale(0.09 -0.09)">
       <defs>
        <path id="DejaVuSans-38" d="M 2034 2216 
Q 1584 2216 1326 1975 
Q 1069 1734 1069 1313 
Q 1069 891 1326 650 
Q 1584 409 2034 409 
Q 2484 409 2743 651 
Q 3003 894 3003 1313 
Q 3003 1734 2745 1975 
Q 2488 2216 2034 2216 
z
M 1403 2484 
Q 997 2584 770 2862 
Q 544 3141 544 3541 
Q 544 4100 942 4425 
Q 1341 4750 2034 4750 
Q 2731 4750 3128 4425 
Q 3525 4100 3525 3541 
Q 3525 3141 3298 2862 
Q 3072 2584 2669 2484 
Q 3125 2378 3379 2068 
Q 3634 1759 3634 1313 
Q 3634 634 3220 271 
Q 2806 -91 2034 -91 
Q 1263 -91 848 271 
Q 434 634 434 1313 
Q 434 1759 690 2068 
Q 947 2378 1403 2484 
z
M 1172 3481 
Q 1172 3119 1398 2916 
Q 1625 2713 2034 2713 
Q 2441 2713 2670 2916 
Q 2900 3119 2900 3481 
Q 2900 3844 2670 4047 
Q 2441 4250 2034 4250 
Q 1625 4250 1398 4047 
Q 1172 3844 1172 3481 
z
" transform="scale(0.015625)"/>
       </defs>
       <use xlink:href="#DejaVuSans-38"/>
      </g>
     </g>
    </g>
    <g id="ytick_8">
     <g id="line2d_31">
      <path d="M 39.330625 41.482165 
L 935.305625 41.482165 
" clip-path="url(#p022171d662)" style="fill: none; stroke: #eef2f7; stroke-opacity: 0.25; stroke-width: 0.55; stroke-linecap: square"/>
     </g>
     <g id="line2d_32">
      <g>
       <use xlink:href="#m90c1a1f3ee" x="39.330625" y="41.482165" style="stroke: #000000; stroke-width: 0.8"/>
      </g>
     </g>
     <g id="text_17">
      <!-- 9 -->
      <g transform="translate(26.604375 44.901462) scale(0.09 -0.09)">
       <defs>
        <path id="DejaVuSans-39" d="M 703 97 
L 703 672 
Q 941 559 1184 500 
Q 1428 441 1663 441 
Q 2288 441 2617 861 
Q 2947 1281 2994 2138 
Q 2813 1869 2534 1725 
Q 2256 1581 1919 1581 
Q 1219 1581 811 2004 
Q 403 2428 403 3163 
Q 403 3881 828 4315 
Q 1253 4750 1959 4750 
Q 2769 4750 3195 4129 
Q 3622 3509 3622 2328 
Q 3622 1225 3098 567 
Q 2575 -91 1691 -91 
Q 1453 -91 1209 -44 
Q 966 3 703 97 
z
M 1959 2075 
Q 2384 2075 2632 2365 
Q 2881 2656 2881 3163 
Q 2881 3666 2632 3958 
Q 2384 4250 1959 4250 
Q 1534 4250 1286 3958 
Q 1038 3666 1038 3163 
Q 1038 2656 1286 2365 
Q 1534 2075 1959 2075 
z
" transform="scale(0.015625)"/>
       </defs>
       <use xlink:href="#DejaVuSans-39"/>
      </g>
     </g>
    </g>
    <g id="ytick_9">
     <g id="line2d_33">
      <path d="M 39.330625 17.477199 
L 935.305625 17.477199 
" clip-path="url(#p022171d662)" style="fill: none; stroke: #eef2f7; stroke-opacity: 0.25; stroke-width: 0.55; stroke-linecap: square"/>
     </g>
     <g id="line2d_34">
      <g>
       <use xlink:href="#m90c1a1f3ee" x="39.330625" y="17.477199" style="stroke: #000000; stroke-width: 0.8"/>
      </g>
     </g>
     <g id="text_18">
      <!-- 10 -->
      <g transform="translate(20.878125 20.896496) scale(0.09 -0.09)">
       <use xlink:href="#DejaVuSans-31"/>
       <use xlink:href="#DejaVuSans-30" transform="translate(63.623047 0)"/>
      </g>
     </g>
    </g>
    <g id="text_19">
     <!-- EDA (microsiemens) -->
     <g transform="translate(14.798438 173.642448) rotate(-90) scale(0.1 -0.1)">
      <defs>
       <path id="DejaVuSans-45" d="M 628 4666 
L 3578 4666 
L 3578 4134 
L 1259 4134 
L 1259 2753 
L 3481 2753 
L 3481 2222 
L 1259 2222 
L 1259 531 
L 3634 531 
L 3634 0 
L 628 0 
L 628 4666 
z
" transform="scale(0.015625)"/>
       <path id="DejaVuSans-44" d="M 1259 4147 
L 1259 519 
L 2022 519 
Q 2988 519 3436 956 
Q 3884 1394 3884 2338 
Q 3884 3275 3436 3711 
Q 2988 4147 2022 4147 
L 1259 4147 
z
M 628 4666 
L 1925 4666 
Q 3281 4666 3915 4102 
Q 4550 3538 4550 2338 
Q 4550 1131 3912 565 
Q 3275 0 1925 0 
L 628 0 
L 628 4666 
z
" transform="scale(0.015625)"/>
       <path id="DejaVuSans-41" d="M 2188 4044 
L 1331 1722 
L 3047 1722 
L 2188 4044 
z
M 1831 4666 
L 2547 4666 
L 4325 0 
L 3669 0 
L 3244 1197 
L 1141 1197 
L 716 0 
L 50 0 
L 1831 4666 
z
" transform="scale(0.015625)"/>
       <path id="DejaVuSans-28" d="M 1984 4856 
Q 1566 4138 1362 3434 
Q 1159 2731 1159 2009 
Q 1159 1288 1364 580 
Q 1569 -128 1984 -844 
L 1484 -844 
Q 1016 -109 783 600 
Q 550 1309 550 2009 
Q 550 2706 781 3412 
Q 1013 4119 1484 4856 
L 1984 4856 
z
" transform="scale(0.015625)"/>
       <path id="DejaVuSans-6d" d="M 3328 2828 
Q 3544 3216 3844 3400 
Q 4144 3584 4550 3584 
Q 5097 3584 5394 3201 
Q 5691 2819 5691 2113 
L 5691 0 
L 5113 0 
L 5113 2094 
Q 5113 2597 4934 2840 
Q 4756 3084 4391 3084 
Q 3944 3084 3684 2787 
Q 3425 2491 3425 1978 
L 3425 0 
L 2847 0 
L 2847 2094 
Q 2847 2600 2669 2842 
Q 2491 3084 2119 3084 
Q 1678 3084 1418 2786 
Q 1159 2488 1159 1978 
L 1159 0 
L 581 0 
L 581 3500 
L 1159 3500 
L 1159 2956 
Q 1356 3278 1631 3431 
Q 1906 3584 2284 3584 
Q 2666 3584 2933 3390 
Q 3200 3197 3328 2828 
z
" transform="scale(0.015625)"/>
       <path id="DejaVuSans-29" d="M 513 4856 
L 1013 4856 
Q 1481 4119 1714 3412 
Q 1947 2706 1947 2009 
Q 1947 1309 1714 600 
Q 1481 -109 1013 -844 
L 513 -844 
Q 928 -128 1133 580 
Q 1338 1288 1338 2009 
Q 1338 2731 1133 3434 
Q 928 4138 513 4856 
z
" transform="scale(0.015625)"/>
      </defs>
      <use xlink:href="#DejaVuSans-45"/>
      <use xlink:href="#DejaVuSans-44" transform="translate(63.183594 0)"/>
      <use xlink:href="#DejaVuSans-41" transform="translate(138.435547 0)"/>
      <use xlink:href="#DejaVuSans-20" transform="translate(206.84375 0)"/>
      <use xlink:href="#DejaVuSans-28" transform="translate(238.630859 0)"/>
      <use xlink:href="#DejaVuSans-6d" transform="translate(277.644531 0)"/>
      <use xlink:href="#DejaVuSans-69" transform="translate(375.056641 0)"/>
      <use xlink:href="#DejaVuSans-63" transform="translate(402.839844 0)"/>
      <use xlink:href="#DejaVuSans-72" transform="translate(457.820312 0)"/>
      <use xlink:href="#DejaVuSans-6f" transform="translate(496.683594 0)"/>
      <use xlink:href="#DejaVuSans-73" transform="translate(557.865234 0)"/>
      <use xlink:href="#DejaVuSans-69" transform="translate(609.964844 0)"/>
      <use xlink:href="#DejaVuSans-65" transform="translate(637.748047 0)"/>
      <use xlink:href="#DejaVuSans-6d" transform="translate(699.271484 0)"/>
      <use xlink:href="#DejaVuSans-65" transform="translate(796.683594 0)"/>
      <use xlink:href="#DejaVuSans-6e" transform="translate(858.207031 0)"/>
      <use xlink:href="#DejaVuSans-73" transform="translate(921.585938 0)"/>
      <use xlink:href="#DejaVuSans-29" transform="translate(973.685547 0)"/>
     </g>
    </g>
   </g>
   <g id="line2d_35">
    <path d="M 53.609793 207.858428 
L 53.898218 210.642044 
L 54.186643 211.191518 
L 54.475069 215.037593 
L 55.051919 188.884662 
L 55.340345 192.181264 
L 55.62877 189.507351 
L 55.917195 179.691 
L 56.205621 184.489353 
L 56.494046 179.251469 
L 56.782471 169.984352 
L 57.070897 181.009593 
L 57.359322 183.610291 
L 57.647747 188.298701 
L 57.936173 173.024581 
L 58.224598 180.570062 
L 58.513023 181.412396 
L 58.801449 183.243975 
L 59.089874 171.119787 
L 59.378299 167.164009 
L 59.666725 159.508585 
L 59.95515 172.072064 
L 60.243575 161.193493 
L 60.532 154.600289 
L 60.820426 175.588552 
L 61.108851 176.284456 
L 61.397276 181.778712 
L 61.685702 177.12703 
L 61.974127 184.37941 
L 62.262552 187.346424 
L 62.550978 181.009593 
L 63.127828 158.812681 
L 63.704679 185.991104 
L 63.993104 172.987853 
L 64.28153 175.588552 
L 65.146806 194.415647 
L 65.435231 195.88091 
L 65.723656 191.741734 
L 66.012082 191.19226 
L 66.300507 191.009102 
L 66.588932 194.488862 
L 66.877358 193.280212 
L 67.165783 195.661024 
L 67.454208 200.386162 
L 67.742634 195.258221 
L 68.031059 192.987111 
L 68.319484 188.555074 
L 68.60791 193.536585 
L 68.896335 194.708747 
L 69.18476 198.811196 
L 69.473186 198.371665 
L 70.050036 172.768208 
L 70.338462 175.112293 
L 70.626887 167.017338 
L 70.915312 172.035576 
L 71.203738 162.438871 
L 71.492163 169.508093 
L 72.069013 177.41989 
L 72.357439 178.006092 
L 72.645864 167.603539 
L 72.934289 165.62553 
L 73.222715 160.350919 
L 73.51114 164.196995 
L 73.799565 164.160267 
L 74.087991 179.800703 
L 74.376416 186.247477 
L 74.664841 182.401401 
L 75.241692 190.606299 
L 75.530117 192.108049 
L 75.818543 192.657523 
L 76.106968 191.33893 
L 76.683819 194.891905 
L 76.972244 196.759972 
L 77.260669 196.833187 
L 77.549095 194.488862 
L 77.83752 196.503599 
L 78.125945 176.21124 
L 78.414371 185.258472 
L 78.702796 181.522339 
L 78.991221 184.196252 
L 79.279647 178.042579 
L 79.568072 179.983861 
L 79.856497 185.991104 
L 80.144923 185.844433 
L 80.721773 192.071322 
L 81.298624 195.294709 
L 81.587049 180.936378 
L 81.875475 160.64402 
L 82.740751 170.936629 
L 83.029176 163.720736 
L 83.317601 171.925634 
L 83.606026 171.925634 
L 83.894452 179.214742 
L 84.182877 172.182007 
L 84.471302 178.921641 
L 84.759728 174.782705 
L 85.048153 180.313689 
L 85.336578 180.972866 
L 85.625004 148.629774 
L 85.913429 150.571055 
L 86.201854 160.424134 
L 86.49028 165.039569 
L 87.06713 178.628781 
L 87.355556 183.903152 
L 87.643981 186.613793 
L 87.932406 186.540577 
L 88.220832 190.020097 
L 88.509257 191.228987 
L 88.797682 193.243484 
L 89.086108 194.452374 
L 89.662958 195.294709 
L 89.951384 194.232489 
L 90.239809 195.331436 
L 91.105085 200.019846 
L 91.39351 201.521597 
L 91.681936 201.484869 
L 91.970361 202.364171 
L 92.258786 202.583817 
L 92.547212 203.279721 
L 92.835637 203.462879 
L 93.124062 204.708256 
L 93.412488 205.330945 
L 93.700913 205.624046 
L 93.989338 206.46638 
L 94.277764 205.807204 
L 94.566189 206.246735 
L 94.854614 205.917146 
L 95.143039 206.759481 
L 95.431465 197.08956 
L 95.71989 197.272718 
L 96.008315 192.950624 
L 96.296741 190.972614 
L 97.162017 198.628038 
L 97.450442 200.605808 
L 97.738867 198.811196 
L 98.027293 198.078565 
L 98.315718 199.177272 
L 98.892569 203.279721 
L 99.757845 207.968371 
L 101.488397 213.462628 
L 102.065247 215.623555 
L 102.930523 217.345191 
L 103.218949 217.674779 
L 103.507374 218.297468 
L 103.795799 218.553841 
L 104.084225 219.103315 
L 104.37265 218.773726 
L 104.661075 218.810454 
L 104.949501 219.3232 
L 105.237926 218.773726 
L 105.526351 218.810454 
L 105.814777 218.004607 
L 106.103202 218.224253 
L 106.391627 218.26098 
L 106.968478 217.638291 
L 107.256903 216.722502 
L 107.545328 215.110809 
L 107.833754 215.074321 
L 108.122179 215.330694 
L 108.410604 215.880168 
L 108.69903 215.550339 
L 108.987455 216.466129 
L 109.27588 216.246243 
L 109.564306 216.795717 
L 110.141156 217.345191 
L 110.429582 217.381918 
L 110.718007 217.674779 
L 111.006432 217.491621 
L 111.294858 218.590568 
L 111.583283 218.553841 
L 111.871708 218.883669 
L 112.160134 211.15503 
L 112.448559 200.276219 
L 112.736984 201.741482 
L 113.02541 198.29821 
L 113.313835 179.068311 
L 113.60226 151.889648 
L 113.890686 146.542062 
L 114.179111 144.637268 
L 114.467536 146.761707 
L 114.755962 147.421124 
L 115.044387 131.267942 
L 115.332812 137.677748 
L 115.621238 124.564795 
L 116.198088 144.747211 
L 117.063364 168.629032 
L 117.35179 175.075805 
L 117.92864 180.386904 
L 118.217065 182.291458 
L 118.505491 175.368666 
L 119.082341 182.694502 
L 119.370767 184.159525 
L 119.659192 187.676012 
L 119.947617 189.727237 
L 120.236043 193.206997 
L 120.524468 194.415647 
L 121.389744 200.019846 
L 122.831871 205.330945 
L 123.120296 205.697261 
L 123.408721 206.46638 
L 123.697147 206.832696 
L 123.985572 207.67527 
L 124.273997 207.67527 
L 124.562423 208.627547 
L 124.850848 208.88392 
L 125.139273 208.847433 
L 125.427699 209.103806 
L 125.716124 208.481117 
L 126.292975 209.140293 
L 126.5814 204.708256 
L 126.869825 186.833438 
L 127.158251 175.991355 
L 128.023527 185.624788 
L 128.311952 186.320692 
L 128.888803 181.449124 
L 129.465653 186.577065 
L 130.330929 145.296684 
L 131.196205 165.002841 
L 131.48463 166.797693 
L 132.061481 173.866915 
L 132.926757 183.573564 
L 133.215182 184.123037 
L 133.503608 186.284204 
L 133.792033 186.210749 
L 134.657309 176.797202 
L 134.945734 177.712991 
L 135.23416 175.039078 
L 135.522585 177.12703 
L 136.099436 183.280463 
L 136.387861 185.002099 
L 136.964712 189.727237 
L 137.253137 191.228987 
L 137.541562 173.574055 
L 138.118413 180.020588 
L 138.983689 189.177763 
L 139.272114 191.19226 
L 139.56054 191.228987 
L 139.848965 189.727237 
L 140.13739 189.727237 
L 140.425816 187.163266 
L 140.714241 168.592544 
L 141.002666 173.903643 
L 141.291091 172.694753 
L 141.579517 176.833929 
L 141.867942 179.141527 
L 142.156367 179.471115 
L 142.444793 175.112293 
L 142.733218 175.039078 
L 143.021643 177.969364 
L 143.310069 177.712991 
L 143.598494 176.907144 
L 143.886919 167.713242 
L 144.175345 170.350668 
L 144.46377 170.094295 
L 144.752195 167.310439 
L 145.040621 169.764467 
L 145.617471 175.91814 
L 146.482747 183.866664 
L 146.771173 186.247477 
L 147.059598 167.603539 
L 147.636449 100.353146 
L 148.213299 136.212725 
L 148.501725 145.919373 
L 148.79015 145.955861 
L 149.078575 143.318675 
L 149.367001 125.004326 
L 149.655426 124.235207 
L 149.943851 88.412355 
L 150.232277 101.268935 
L 150.809127 130.938113 
L 151.385978 148.336673 
L 151.962829 160.387647 
L 152.828104 173.574055 
L 153.69338 182.987602 
L 153.981806 176.797202 
L 154.270231 178.628781 
L 155.135507 186.906893 
L 155.423932 186.577065 
L 155.712358 187.676012 
L 156.577634 192.987111 
L 156.866059 194.122546 
L 157.44291 181.156023 
L 158.01976 133.905127 
L 158.308186 123.28269 
L 158.596611 66.618246 
L 158.885036 85.445341 
L 159.173462 76.617755 
L 159.461887 74.713201 
L 160.038738 107.752196 
L 160.615588 128.923617 
L 161.480864 149.948367 
L 162.057715 159.764958 
L 162.34614 162.14577 
L 162.922991 170.643528 
L 163.211416 172.951366 
L 163.788267 179.3979 
L 164.653543 186.284204 
L 165.518819 190.972614 
L 165.807244 189.800452 
L 166.095669 115.444348 
L 166.384095 131.524315 
L 166.67252 131.560802 
L 166.960945 132.183491 
L 167.537796 132.110276 
L 167.826221 137.970849 
L 168.114647 128.923617 
L 169.845199 158.263207 
L 170.133624 151.779946 
L 170.710475 160.93712 
L 171.287325 168.592544 
L 172.441027 179.434627 
L 173.017877 183.317191 
L 173.594728 187.053324 
L 173.883153 186.796951 
L 174.171579 188.665017 
L 175.036855 191.851676 
L 175.32528 174.453117 
L 175.613705 136.469098 
L 175.90213 125.883388 
L 176.478981 145.663 
L 177.055832 158.263207 
L 177.344257 162.402143 
L 177.632682 162.14577 
L 177.921108 155.076548 
L 179.074809 168.555816 
L 179.363234 169.288448 
L 179.940085 174.526332 
L 181.093786 181.778712 
L 181.670637 185.368415 
L 181.959062 186.174262 
L 183.401189 191.814949 
L 183.689614 191.778461 
L 183.97804 185.881161 
L 184.266465 186.467122 
L 185.131741 189.763724 
L 185.708592 191.595303 
L 185.997017 191.33893 
L 186.285442 192.181264 
L 186.573868 192.620795 
L 186.862293 191.851676 
L 187.150718 192.950624 
L 187.439143 193.316699 
L 188.015994 190.716241 
L 188.304419 178.262465 
L 188.592845 180.350177 
L 189.169695 168.262716 
L 189.746546 173.903643 
L 190.323397 150.095037 
L 190.900247 160.64402 
L 191.477098 168.335931 
L 191.765523 166.284947 
L 192.053949 167.456869 
L 192.342374 170.057567 
L 192.630799 170.02084 
L 192.919225 170.973357 
L 193.496075 175.075805 
L 193.784501 160.350919 
L 194.072926 163.611033 
L 194.361351 153.904385 
L 194.649777 155.076548 
L 194.938202 159.325427 
L 195.226627 161.889397 
L 195.515053 161.303436 
L 195.803478 157.384145 
L 196.091903 156.871159 
L 196.380329 147.640769 
L 196.957179 157.127772 
L 197.245605 95.701463 
L 197.53403 74.530043 
L 197.822455 84.493064 
L 198.399306 113.100023 
L 198.687731 114.235458 
L 199.264582 129.765951 
L 199.553007 131.341157 
L 199.841432 135.992839 
L 200.129858 121.268193 
L 200.706708 135.883137 
L 200.995134 137.091787 
L 201.283559 139.216226 
L 201.86041 123.099532 
L 202.43726 140.388389 
L 202.725686 120.718719 
L 203.302536 138.593537 
L 203.879387 149.14252 
L 204.167812 146.505334 
L 204.456238 147.054808 
L 205.609939 160.314431 
L 206.18679 165.698745 
L 206.76364 169.434878 
L 207.052066 153.244969 
L 207.340491 147.091296 
L 207.917342 156.724729 
L 208.494192 147.421124 
L 209.071043 156.505083 
L 209.936319 165.112784 
L 210.224744 153.611285 
L 210.801595 160.350919 
L 211.09002 160.900393 
L 211.378445 157.640518 
L 211.955296 162.658516 
L 212.243721 157.677006 
L 212.532147 156.871159 
L 213.108997 162.731972 
L 214.262699 170.607041 
L 214.551124 172.401892 
L 214.839549 171.815691 
L 215.127975 164.490095 
L 215.4164 165.918631 
L 216.281676 172.182007 
L 216.858527 174.416389 
L 217.146952 173.280954 
L 217.435377 173.244226 
L 217.723803 174.745977 
L 218.012228 167.640027 
L 218.589079 171.852419 
L 218.877504 173.171011 
L 219.165929 166.467864 
L 219.454355 144.747211 
L 219.74278 135.37015 
L 220.031205 138.337164 
L 220.608056 149.215975 
L 221.184906 156.138767 
L 221.473332 85.408614 
L 221.761757 81.855639 
L 222.627033 119.216968 
L 222.915458 126.322919 
L 223.203884 119.473341 
L 224.357585 136.28594 
L 225.222861 148.043813 
L 226.088137 157.16426 
L 227.241838 166.797693 
L 227.818689 170.130782 
L 228.683965 175.075805 
L 228.97239 175.91814 
L 229.260816 168.81219 
L 230.991368 177.456618 
L 231.856644 180.716492 
L 232.145069 181.265966 
L 232.433494 182.181756 
L 232.721919 182.694502 
L 233.29877 184.525841 
L 233.587195 185.698003 
L 233.875621 186.247477 
L 234.452471 187.7125 
L 234.740897 188.261974 
L 235.317747 189.800452 
L 236.471449 192.071322 
L 236.759874 192.987111 
L 237.048299 193.280212 
L 237.62515 194.745235 
L 239.067277 197.382661 
L 239.644127 197.968622 
L 239.932553 198.554583 
L 240.220978 198.701253 
L 240.797829 200.129789 
L 241.086254 200.276219 
L 241.374679 200.972123 
L 241.95153 201.484869 
L 242.239955 202.107558 
L 242.528381 202.327444 
L 243.105231 203.023348 
L 243.393657 202.290716 
L 243.682082 200.312947 
L 243.970507 200.056574 
L 244.258932 200.532592 
L 244.835783 194.415647 
L 245.124208 195.331436 
L 245.701059 196.210498 
L 246.27791 193.243484 
L 247.143186 194.159274 
L 247.431611 191.961619 
L 247.720036 192.071322 
L 248.008462 192.694011 
L 248.585312 192.657523 
L 248.873738 193.280212 
L 249.162163 190.606299 
L 249.739014 191.265475 
L 250.027439 189.800452 
L 250.315864 185.917889 
L 250.892715 165.955118 
L 251.18114 137.384887 
L 251.469566 141.633766 
L 251.757991 148.922874 
L 252.046416 142.695986 
L 252.334842 144.857153 
L 252.623267 115.957094 
L 252.911692 129.143262 
L 253.200118 111.451602 
L 253.488543 109.840148 
L 254.065394 125.663742 
L 254.353819 93.613511 
L 254.642244 91.892115 
L 254.93067 103.027059 
L 255.219095 104.199221 
L 255.50752 114.455343 
L 255.795945 111.525057 
L 256.084371 98.888122 
L 256.372796 81.013304 
L 256.949647 98.998065 
L 257.238072 105.407871 
L 257.526497 102.441098 
L 258.103348 120.09603 
L 258.391773 120.938605 
L 258.680199 61.600008 
L 259.257049 100.646246 
L 259.545475 86.910604 
L 259.8339 93.650239 
L 260.410751 112.440606 
L 260.987601 126.103273 
L 261.276027 131.231214 
L 261.564452 119.80293 
L 261.852877 102.990571 
L 262.141303 97.496074 
L 262.718153 119.766442 
L 263.006579 116.176739 
L 263.295004 124.125264 
L 263.583429 120.975092 
L 263.871855 115.993582 
L 264.16028 117.935103 
L 264.737131 130.462095 
L 265.313981 139.509327 
L 266.179257 149.179248 
L 266.467683 130.352152 
L 267.044533 141.633766 
L 267.332958 139.252954 
L 267.621384 143.318675 
L 267.909809 124.894383 
L 268.198234 115.334405 
L 268.48666 118.557792 
L 268.775085 124.967598 
L 269.06351 125.041053 
L 269.351936 118.264691 
L 269.640361 124.528067 
L 270.217212 128.667244 
L 270.505637 133.648754 
L 270.794062 130.425367 
L 271.370913 139.509327 
L 272.524614 151.266959 
L 272.81304 147.713984 
L 273.101465 121.817667 
L 273.38989 128.777186 
L 273.678316 119.693227 
L 273.966741 125.041053 
L 274.255166 132.696237 
L 274.543592 116.176739 
L 274.832017 118.044806 
L 275.120442 125.627015 
L 276.562569 143.904636 
L 276.850994 143.025574 
L 277.427845 148.886147 
L 278.293121 155.332921 
L 278.581546 156.24847 
L 279.735247 163.867406 
L 280.023673 164.12378 
L 280.312098 161.779454 
L 280.600523 164.160267 
L 280.888949 159.252212 
L 281.177374 158.885896 
L 281.754225 163.537578 
L 282.04265 164.709741 
L 282.619501 167.713242 
L 283.196351 170.423883 
L 283.773202 172.401892 
L 284.061627 173.537327 
L 284.350053 174.013586 
L 284.638478 174.782705 
L 285.215329 177.456618 
L 288.099582 185.551573 
L 288.676433 185.368415 
L 289.541709 187.676012 
L 289.830134 183.573564 
L 290.118559 185.075314 
L 290.406984 183.280463 
L 290.69541 184.123037 
L 290.983835 185.331687 
L 291.27226 185.881161 
L 291.560686 185.551573 
L 291.849111 179.983861 
L 292.137536 180.386904 
L 292.425962 181.632282 
L 292.714387 182.145028 
L 293.002812 182.1083 
L 293.291238 179.727488 
L 293.579663 174.416389 
L 293.868088 163.867406 
L 294.156514 166.504592 
L 294.444939 155.625781 
L 294.733364 154.746719 
L 295.02179 141.560551 
L 295.59864 150.717726 
L 295.887066 152.805438 
L 296.175491 139.216226 
L 296.752342 145.955861 
L 297.329192 151.523573 
L 297.906043 155.03982 
L 298.194468 154.124031 
L 298.482894 156.138767 
L 298.771319 156.834671 
L 299.059744 150.717726 
L 299.34817 132.989338 
L 299.92502 144.783698 
L 300.213446 131.817175 
L 300.501871 128.2642 
L 300.790296 128.594029 
L 301.078722 135.992839 
L 301.367147 139.802187 
L 301.655572 137.128514 
L 301.943997 95.44509 
L 302.232423 92.148488 
L 302.520848 94.309415 
L 302.809273 102.734198 
L 303.097699 105.627757 
L 303.386124 100.353146 
L 303.674549 105.151498 
L 303.962975 104.492322 
L 304.539825 116.32341 
L 305.116676 125.333914 
L 305.693527 110.316167 
L 306.270377 122.51357 
L 306.847228 131.048056 
L 307.135653 133.062553 
L 307.424079 137.751203 
L 307.712504 139.436112 
L 308.000929 137.714476 
L 308.289355 140.424876 
L 308.57778 114.308673 
L 308.866205 123.685733 
L 309.731481 135.883137 
L 310.308332 141.560551 
L 310.596757 140.315174 
L 310.885183 141.816924 
L 311.173608 141.890139 
L 312.327309 149.801936 
L 313.192585 154.746719 
L 313.48101 121.707724 
L 313.769436 108.667986 
L 314.057861 113.393123 
L 314.346286 111.268684 
L 314.923137 117.935103 
L 315.211562 113.869142 
L 315.499988 106.580034 
L 315.788413 83.687217 
L 316.365264 100.1335 
L 317.23054 117.458845 
L 317.80739 125.407129 
L 318.095816 128.557301 
L 318.384241 106.104015 
L 318.672666 103.576532 
L 318.961092 113.063295 
L 319.249517 118.631007 
L 319.537942 119.473341 
L 320.114793 129.47309 
L 320.691644 136.43237 
L 320.980069 129.17999 
L 321.268494 114.565046 
L 321.55692 112.404119 
L 321.845345 116.249955 
L 322.13377 115.993582 
L 322.422196 114.784931 
L 322.710621 93.064037 
L 322.999046 103.063786 
L 323.287472 92.184976 
L 323.575897 62.808898 
L 323.864322 72.478818 
L 324.152748 72.845134 
L 324.441173 93.650239 
L 324.729598 104.82191 
L 325.018023 105.078283 
L 325.306449 90.426852 
L 325.594874 92.771177 
L 325.883299 63.98106 
L 326.171725 88.375627 
L 326.46015 99.144496 
L 326.748575 101.268935 
L 327.325426 117.67849 
L 327.902277 128.886889 
L 328.190702 117.861648 
L 328.479127 90.683225 
L 328.767553 91.708957 
L 329.055978 105.407871 
L 329.344403 99.217711 
L 329.632829 103.063786 
L 330.209679 119.400126 
L 331.363381 135.883137 
L 331.651806 136.762198 
L 331.940231 139.802187 
L 332.228657 132.220219 
L 332.517082 137.677748 
L 332.805507 139.179499 
L 333.093933 138.666753 
L 333.670783 145.919373 
L 333.959209 148.593286 
L 334.247634 148.886147 
L 334.824485 154.197486 
L 335.689761 159.5818 
L 335.978186 161.229981 
L 336.266611 155.113035 
L 336.555036 135.663251 
L 337.131887 115.663993 
L 337.708738 129.729463 
L 337.997163 127.458354 
L 338.285588 133.282439 
L 338.862439 139.545814 
L 339.150864 133.575539 
L 339.43929 134.234716 
L 339.727715 137.751203 
L 340.01614 135.37015 
L 340.304566 138.520322 
L 340.592991 139.069796 
L 340.881416 101.268935 
L 341.169842 48.047524 
L 341.458267 61.123989 
L 341.746692 30.465806 
L 342.323543 61.307147 
L 342.611968 69.58502 
L 342.900394 74.530043 
L 343.188819 88.082527 
L 343.477244 96.397367 
L 343.76567 87.789666 
L 344.054095 98.888122 
L 344.34252 77.789917 
L 345.207796 108.264942 
L 345.784647 121.268193 
L 346.073072 125.407129 
L 346.361498 125.70023 
L 346.649923 131.487587 
L 346.938348 122.879886 
L 347.226774 131.084784 
L 347.803624 138.84991 
L 348.092049 138.84991 
L 348.6689 146.248961 
L 348.957325 147.457611 
L 349.245751 142.659259 
L 350.111027 152.109534 
L 350.687877 156.175255 
L 350.976303 155.149763 
L 351.264728 153.098538 
L 351.841579 158.37315 
L 352.706855 162.438871 
L 352.99528 159.435369 
L 353.572131 164.233722 
L 354.148981 167.054066 
L 354.437407 167.090553 
L 354.725832 165.918631 
L 355.302683 169.215233 
L 355.591108 159.801445 
L 355.879533 109.803421 
L 356.167959 123.758948 
L 356.744809 136.835414 
L 357.32166 145.333172 
L 357.898511 151.266959 
L 358.186936 152.695495 
L 359.052212 158.263207 
L 359.629062 160.973608 
L 360.494338 165.33243 
L 360.782764 164.12378 
L 361.071189 84.566279 
L 361.359614 73.724196 
L 361.64804 73.980569 
L 361.936465 67.790408 
L 362.513316 97.313157 
L 362.801741 78.632492 
L 363.090166 87.496566 
L 363.378592 87.166977 
L 363.955442 105.444599 
L 364.532293 117.935103 
L 365.97442 137.49459 
L 366.262845 120.059543 
L 367.416546 138.776695 
L 367.704972 138.373892 
L 367.993397 101.525308 
L 368.281822 41.857123 
L 368.570248 26.692946 
L 369.147098 56.691952 
L 369.435524 61.636735 
L 369.723949 72.14923 
L 370.012374 76.69121 
L 370.300799 65.446083 
L 370.589225 84.236691 
L 371.166075 101.232207 
L 372.031351 114.272185 
L 372.319777 108.887631 
L 372.608202 114.272185 
L 372.896627 98.595022 
L 373.473478 119.180241 
L 374.338754 132.403377 
L 374.627179 136.469098 
L 374.915605 138.044064 
L 375.492455 145.150014 
L 375.780881 145.663 
L 376.069306 148.812932 
L 376.646157 151.999591 
L 376.934582 153.025323 
L 377.799858 158.336422 
L 378.376709 125.114269 
L 378.953559 137.384887 
L 379.53041 143.868149 
L 379.818835 141.853412 
L 380.107261 143.062302 
L 380.972537 150.131525 
L 381.260962 139.7657 
L 381.549387 137.714476 
L 382.126238 144.820426 
L 382.991514 152.109534 
L 383.279939 147.677497 
L 383.568364 150.387898 
L 383.85679 150.937371 
L 384.43364 116.543055 
L 384.722066 103.906121 
L 385.298916 97.166486 
L 385.587342 108.594771 
L 386.164192 114.711716 
L 386.452618 116.103524 
L 386.741043 99.437596 
L 387.317894 108.631258 
L 387.894744 120.059543 
L 388.18317 122.696728 
L 388.76002 129.985836 
L 389.625296 137.458102 
L 389.913722 138.84991 
L 390.202147 142.18324 
L 390.490572 140.315174 
L 390.778998 134.491089 
L 391.067423 135.590036 
L 391.932699 145.369899 
L 392.50955 148.886147 
L 393.951676 155.479351 
L 394.240101 156.175255 
L 394.528527 156.175255 
L 395.105377 159.069054 
L 395.393803 159.801445 
L 395.682228 158.37315 
L 396.259079 160.753962 
L 396.547504 158.482852 
L 396.835929 157.31069 
L 397.124355 152.805438 
L 397.701205 155.992097 
L 397.989631 157.713733 
L 398.278056 153.318184 
L 398.566481 146.578549 
L 399.143332 90.060536 
L 399.431757 102.111509 
L 399.720183 108.741201 
L 400.008608 111.561545 
L 400.297033 110.096521 
L 400.873884 91.049541 
L 401.162309 99.767184 
L 401.450735 100.243443 
L 401.73916 88.668728 
L 402.027585 98.888122 
L 402.316011 95.737951 
L 403.758137 115.370893 
L 404.046563 77.167228 
L 404.334988 75.445832 
L 404.911838 96.104266 
L 405.777114 113.283181 
L 406.06554 115.370893 
L 406.353965 106.470331 
L 406.64239 113.026808 
L 406.930816 115.737208 
L 407.796092 67.240935 
L 408.084517 57.863875 
L 408.372942 83.687217 
L 408.661368 93.357138 
L 408.949793 95.701463 
L 409.238218 68.010054 
L 409.526644 68.999059 
L 409.815069 64.237433 
L 410.39192 65.226438 
L 410.680345 56.911598 
L 410.96877 76.984071 
L 411.257196 78.192961 
L 411.545621 74.56653 
L 411.834046 87.203465 
L 412.410897 100.426361 
L 412.987748 110.645995 
L 413.276173 103.320159 
L 413.564598 112.184233 
L 414.429874 125.333914 
L 415.006725 132.403377 
L 415.29515 131.45086 
L 415.583576 136.249212 
L 416.160426 141.890139 
L 416.448851 139.216226 
L 418.179403 151.779946 
L 418.467829 151.596788 
L 418.756254 151.853161 
L 419.044679 144.197737 
L 419.333105 145.626272 
L 419.62153 145.589545 
L 420.198381 150.058309 
L 420.486806 151.633275 
L 420.775231 152.072806 
L 421.063657 146.542062 
L 421.352082 113.319668 
L 421.640507 111.78143 
L 421.928933 107.459096 
L 422.505783 120.352403 
L 422.794209 105.005068 
L 423.082634 111.92786 
L 423.371059 110.755698 
L 423.94791 117.715218 
L 424.236335 120.389131 
L 424.524761 124.198479 
L 424.813186 102.697471 
L 425.390037 116.286682 
L 425.966887 123.57579 
L 426.255313 124.198479 
L 426.543738 66.874619 
L 426.832163 41.271162 
L 427.120589 54.933588 
L 427.409014 52.223188 
L 427.697439 45.044022 
L 427.985864 50.501551 
L 428.27429 59.255923 
L 428.562715 73.614253 
L 428.85114 66.25193 
L 429.139566 51.307398 
L 429.427991 71.123498 
L 429.716416 81.269677 
L 430.004842 83.906863 
L 430.293267 82.478327 
L 430.581692 77.789917 
L 430.870118 88.705216 
L 431.735394 105.700972 
L 432.889095 122.183982 
L 433.17752 124.821168 
L 433.465946 128.520573 
L 433.754371 94.968832 
L 434.042796 35.117489 
L 434.331222 48.633485 
L 434.619647 80.683716 
L 434.908072 93.943099 
L 435.484923 106.799919 
L 435.773348 103.320159 
L 436.350199 112.440606 
L 436.92705 120.09603 
L 437.792326 129.729463 
L 438.080751 130.938113 
L 438.369176 134.307931 
L 438.657602 115.334405 
L 438.946027 122.440355 
L 439.234452 125.663742 
L 439.522877 117.715218 
L 439.811303 124.78444 
L 440.099728 126.286431 
L 440.676579 130.901626 
L 440.965004 114.162243 
L 441.253429 123.026317 
L 441.83028 131.853903 
L 442.695556 139.728972 
L 443.272407 143.941364 
L 443.560832 143.355403 
L 443.849257 138.227222 
L 444.426108 145.076799 
L 444.714533 147.091296 
L 445.291384 149.472348 
L 445.868235 104.419107 
L 446.15666 117.38563 
L 446.445085 119.80293 
L 446.733511 127.128765 
L 447.310361 134.820917 
L 447.598787 129.802679 
L 447.887212 131.780688 
L 448.175637 132.476592 
L 448.752488 138.263949 
L 449.329339 142.366398 
L 449.617764 143.611776 
L 450.48304 149.252463 
L 451.05989 152.109534 
L 451.348316 150.680998 
L 451.636741 152.402634 
L 452.213592 152.402634 
L 452.502017 154.197486 
L 452.790442 154.783447 
L 453.367293 157.420633 
L 453.944144 159.508585 
L 454.232569 132.476592 
L 454.80942 142.146512 
L 455.38627 106.543546 
L 455.674696 117.348902 
L 456.251546 127.97134 
L 456.539972 126.689234 
L 456.828397 130.68174 
L 457.116822 124.78444 
L 457.405248 99.254438 
L 457.693673 111.268684 
L 457.982098 101.012562 
L 458.558949 115.957094 
L 458.847374 119.216968 
L 459.1358 120.901877 
L 459.71265 128.594029 
L 460.001076 129.802679 
L 460.289501 112.440606 
L 460.577926 111.891373 
L 460.866352 118.044806 
L 461.154777 104.785183 
L 461.443202 114.748204 
L 462.020053 124.894383 
L 462.596903 130.901626 
L 462.885329 133.282439 
L 463.173754 134.234716 
L 463.462179 136.212725 
L 463.750605 137.055059 
L 464.03903 137.055059 
L 464.327455 138.044064 
L 465.192731 143.758206 
L 465.481157 144.234464 
L 466.058007 147.567554 
L 466.634858 150.424625 
L 466.923283 151.779946 
L 467.211709 137.751203 
L 467.500134 110.645995 
L 467.788559 110.645995 
L 468.076985 119.510069 
L 468.36541 123.649005 
L 468.653835 104.235949 
L 469.230686 110.902368 
L 469.519111 109.473833 
L 469.807537 100.169988 
L 470.095962 42.919583 
L 470.384387 46.069514 
L 470.672813 44.787409 
L 471.249663 75.152732 
L 471.538089 83.906863 
L 471.826514 70.79391 
L 472.114939 75.958578 
L 472.403365 85.079025 
L 472.69179 83.064529 
L 472.980215 74.603258 
L 473.557066 91.305914 
L 473.845491 94.822401 
L 474.422342 106.287173 
L 474.710767 110.938856 
L 474.999192 113.356396 
L 477.01817 136.542313 
L 477.59502 141.560551 
L 477.883446 140.97435 
L 478.171871 110.975583 
L 478.460296 104.82191 
L 478.748722 80.866874 
L 479.037147 87.606508 
L 479.325572 99.547299 
L 479.613998 88.595513 
L 479.902423 97.496074 
L 480.190848 97.276429 
L 480.767699 106.836407 
L 481.056124 68.705958 
L 481.632975 88.998316 
L 482.209826 102.40437 
L 482.498251 104.602265 
L 482.786676 94.2362 
L 483.075102 102.40437 
L 483.363527 106.287173 
L 483.651952 106.067288 
L 484.228803 116.836156 
L 484.517228 120.352403 
L 484.805654 91.232699 
L 485.382504 100.682974 
L 485.670929 99.547299 
L 486.24778 113.539554 
L 486.824631 101.671738 
L 487.113056 110.609268 
L 487.401481 114.821659 
L 487.689907 116.286682 
L 488.266757 123.063044 
L 488.555183 119.80293 
L 488.843608 123.612518 
L 489.132033 123.905378 
L 489.708884 129.509578 
L 489.997309 122.733456 
L 490.285735 102.441098 
L 490.57416 111.817918 
L 490.862585 116.579783 
L 491.151011 112.037803 
L 491.439436 118.374634 
L 492.016287 125.041053 
L 492.304712 114.162243 
L 492.593137 120.645504 
L 493.169988 126.579292 
L 493.746839 130.462095 
L 494.035264 133.172496 
L 494.323689 134.820917 
L 494.612115 125.041053 
L 494.90054 72.222445 
L 495.188965 84.529552 
L 495.477391 58.962822 
L 495.765816 80.720204 
L 496.919517 107.349393 
L 497.207942 83.687217 
L 497.496368 78.119506 
L 497.784793 89.218202 
L 498.073218 67.790408 
L 498.361644 68.925843 
L 499.22692 101.525308 
L 499.515345 98.009061 
L 499.80377 106.873135 
L 500.092196 112.111018 
L 500.380621 107.715469 
L 501.245897 121.854154 
L 501.534322 125.370642 
L 501.822748 126.249703 
L 502.111173 101.562036 
L 502.399598 112.404119 
L 502.976449 121.744451 
L 503.264874 122.696728 
L 503.5533 115.627266 
L 503.841725 122.147255 
L 504.418576 129.216717 
L 504.995426 133.062553 
L 505.572277 137.421375 
L 505.860702 137.714476 
L 506.725978 142.989087 
L 507.302829 144.490838 
L 508.168105 149.435621 
L 508.744955 152.146261 
L 509.033381 153.025323 
L 509.321806 141.523824 
L 509.610231 119.473341 
L 509.898657 128.007827 
L 510.475507 136.175997 
L 511.629209 144.564053 
L 512.494485 148.043813 
L 513.071335 151.010586 
L 513.359761 152.182749 
L 513.648186 151.486845 
L 513.936611 152.76895 
L 514.225037 132.073548 
L 514.513462 134.491089 
L 515.090313 141.816924 
L 515.378738 143.318675 
L 515.667163 142.476101 
L 516.532439 148.226971 
L 517.10929 150.974099 
L 518.551417 156.211983 
L 518.839842 156.907887 
L 519.705118 159.801445 
L 521.147244 164.160267 
L 521.43567 164.746468 
L 522.01252 166.504592 
L 522.300946 166.504592 
L 522.589371 161.559809 
L 522.877796 163.611033 
L 523.166222 157.713733 
L 523.743072 160.973608 
L 524.031498 160.64402 
L 524.319923 160.93712 
L 524.608348 160.93712 
L 524.896774 162.072555 
L 525.185199 162.475358 
L 525.76205 164.27021 
L 526.050475 164.746468 
L 526.3389 164.453368 
L 526.627326 162.402143 
L 526.915751 103.137002 
L 527.204176 93.760182 
L 527.492602 109.327162 
L 527.781027 117.751945 
L 528.357878 90.719952 
L 528.934728 105.920858 
L 529.223154 98.888122 
L 529.511579 108.30167 
L 529.800004 113.319668 
L 530.66528 121.01182 
L 530.953705 116.799428 
L 531.530556 125.077541 
L 531.818981 115.700721 
L 532.395832 127.201981 
L 532.684257 130.68174 
L 532.972683 102.477585 
L 533.261108 99.803912 
L 533.837959 116.433112 
L 534.414809 125.663742 
L 535.280085 134.820917 
L 535.856936 138.923126 
L 536.145361 131.59753 
L 536.433787 136.579041 
L 537.587488 145.113526 
L 538.452764 149.838664 
L 538.741189 150.35141 
L 539.029615 151.816433 
L 539.31804 149.472348 
L 539.606465 145.589545 
L 539.894891 147.823927 
L 540.183316 117.165744 
L 540.471741 126.799177 
L 541.048592 135.040562 
L 541.337017 136.762198 
L 541.913868 141.597039 
L 542.202293 129.509578 
L 542.490718 134.820917 
L 543.067569 138.923126 
L 543.355994 135.956352 
L 544.22127 143.025574 
L 545.086546 147.091296 
L 545.374972 148.263458 
L 545.663397 110.133009 
L 546.240248 128.2642 
L 546.528673 129.839406 
L 546.817098 134.491089 
L 547.105524 136.395883 
L 547.393949 135.406878 
L 547.682374 136.798686 
L 548.54765 142.769201 
L 548.836076 128.667244 
L 549.989777 139.802187 
L 551.143478 145.919373 
L 552.29718 151.266959 
L 552.87403 153.318184 
L 554.316157 157.970106 
L 554.604582 158.006834 
L 554.893007 112.404119 
L 555.469858 127.678239 
L 555.758283 132.147004 
L 556.046709 129.765951 
L 556.335134 128.740459 
L 556.623559 129.985836 
L 557.20041 135.663251 
L 557.777261 139.216226 
L 558.065686 131.194487 
L 558.354111 135.443606 
L 559.507813 143.09879 
L 561.238365 150.937371 
L 561.52679 151.816433 
L 562.103641 153.940873 
L 562.392066 151.41363 
L 562.680491 147.713984 
L 562.968917 149.801936 
L 563.834193 153.318184 
L 564.411043 93.650239 
L 564.699469 107.129508 
L 564.987894 114.491831 
L 565.276319 117.092529 
L 565.85317 124.528067 
L 566.141595 124.198479 
L 566.43002 130.68174 
L 566.718446 134.527816 
L 567.006871 136.579041 
L 567.295296 133.099281 
L 567.583722 137.714476 
L 568.160572 143.025574 
L 568.737423 146.175746 
L 569.314274 149.838664 
L 569.602699 143.831421 
L 569.891124 141.816924 
L 570.17955 137.751203 
L 570.467975 141.304178 
L 570.7564 142.256455 
L 571.044826 137.421375 
L 571.333251 142.18324 
L 571.621676 143.904636 
L 571.910102 131.267942 
L 572.198527 134.820917 
L 572.486952 135.773194 
L 572.775378 116.872643 
L 573.063803 87.240193 
L 573.352228 100.169988 
L 573.640654 88.448843 
L 574.217504 109.070789 
L 574.50593 115.773936 
L 574.794355 107.752196 
L 575.08278 77.167228 
L 575.659631 106.03056 
L 576.236482 119.363399 
L 576.524907 120.938605 
L 576.813332 123.392632 
L 577.101757 122.476843 
L 577.390183 127.128765 
L 577.678608 128.886889 
L 578.543884 138.044064 
L 578.832309 139.7657 
L 579.120735 142.18324 
L 579.40916 103.75969 
L 579.697585 117.67849 
L 580.562861 133.8684 
L 580.851287 136.798686 
L 581.139712 138.373892 
L 581.428137 141.230723 
L 581.716563 109.253947 
L 582.004988 123.685733 
L 582.581839 134.234716 
L 582.870264 137.128514 
L 583.158689 138.044064 
L 583.447115 123.685733 
L 584.023965 133.355654 
L 584.312391 130.901626 
L 584.600816 136.579041 
L 584.889241 130.645253 
L 585.177667 136.798686 
L 585.466092 138.923126 
L 585.754517 96.617013 
L 586.042943 84.346394 
L 586.619793 113.649497 
L 587.196644 125.99333 
L 587.773495 133.941615 
L 588.06192 136.542313 
L 588.350345 134.491089 
L 588.927196 141.816924 
L 589.215621 143.09879 
L 590.080897 149.508836 
L 590.369322 143.025574 
L 590.657748 91.892115 
L 590.946173 84.85938 
L 591.234598 101.488821 
L 591.523024 89.511062 
L 591.811449 89.584278 
L 592.099874 87.166977 
L 592.3883 95.628008 
L 592.676725 108.558043 
L 592.96515 113.063295 
L 593.253576 115.480835 
L 593.542001 100.573031 
L 593.830426 113.026808 
L 594.118852 100.975834 
L 594.695702 108.338158 
L 594.984128 112.184233 
L 595.272553 119.986088 
L 595.849404 127.641511 
L 596.137829 126.542804 
L 596.71468 134.454601 
L 597.003105 137.458102 
L 597.29153 139.216226 
L 597.579956 139.91213 
L 598.156806 145.333172 
L 599.022082 151.230472 
L 599.598933 153.025323 
L 599.887358 154.233973 
L 600.175783 154.783447 
L 600.464209 156.505083 
L 600.752634 157.127772 
L 601.041059 147.93387 
L 601.329485 118.337907 
L 601.61791 129.106775 
L 601.906335 134.857404 
L 602.194761 136.212725 
L 602.483186 131.59753 
L 602.771611 113.393123 
L 603.060037 116.579783 
L 603.348462 112.514062 
L 603.636887 116.652998 
L 604.213738 128.044555 
L 604.502163 130.315425 
L 605.079014 137.384887 
L 605.655865 141.816924 
L 606.521141 145.186741 
L 606.809566 134.1615 
L 607.097991 131.304429 
L 607.386417 101.525308 
L 607.674842 106.616761 
L 607.963267 105.664484 
L 608.251693 89.218202 
L 608.540118 104.785183 
L 608.828543 96.324152 
L 609.116969 110.938856 
L 609.405394 99.181223 
L 609.693819 101.525308 
L 609.982245 113.319668 
L 610.27067 120.09603 
L 610.559095 91.892115 
L 610.847521 100.646246 
L 611.135946 100.682974 
L 611.424371 99.474084 
L 611.712796 92.11176 
L 612.001222 88.925101 
L 612.289647 107.972082 
L 612.866498 122.476843 
L 613.154923 127.128765 
L 613.443348 127.934612 
L 613.731774 129.47309 
L 614.020199 134.527816 
L 614.308624 130.864898 
L 614.59705 136.212725 
L 614.885475 138.55681 
L 615.1739 98.595022 
L 615.462326 100.646246 
L 615.750751 115.957094 
L 616.039176 110.316167 
L 616.327602 121.268193 
L 616.616027 101.854896 
L 617.192878 117.751945 
L 617.481303 98.595022 
L 617.769728 99.254438 
L 618.058154 103.027059 
L 618.346579 115.041305 
L 618.635004 117.67849 
L 619.211855 128.044555 
L 619.50028 130.095779 
L 620.077131 136.945356 
L 620.365556 133.026065 
L 620.653982 135.333663 
L 620.942407 133.8684 
L 621.519258 142.366398 
L 622.384534 148.886147 
L 623.249809 153.83117 
L 623.538235 155.003092 
L 624.115085 158.080049 
L 624.691936 160.387647 
L 624.980361 161.596297 
L 625.268787 161.229981 
L 626.134063 165.33243 
L 626.422488 165.845176 
L 626.710913 163.830679 
L 626.999339 166.175004 
L 627.287764 161.010335 
L 627.576189 163.611033 
L 628.15304 166.211491 
L 629.883592 171.339672 
L 630.460443 172.401892 
L 630.748868 173.280954 
L 631.037293 173.5006 
L 631.325719 174.453117 
L 631.614144 174.489604 
L 631.902569 175.039078 
L 632.190995 175.991355 
L 632.47942 176.540829 
L 632.767845 176.833929 
L 633.633121 179.178014 
L 633.921547 179.471115 
L 634.498397 180.680005 
L 634.786822 180.972866 
L 635.363673 182.145028 
L 635.652098 183.134033 
L 635.940524 182.840932 
L 636.8058 184.489353 
L 637.094225 184.452625 
L 637.38265 183.536836 
L 637.671076 179.251469 
L 637.959501 177.12703 
L 638.536352 179.617785 
L 639.690053 182.511344 
L 639.978478 182.657774 
L 640.266904 183.317191 
L 640.555329 183.536836 
L 641.13218 184.489353 
L 641.420605 184.23298 
L 642.285881 186.210749 
L 642.862732 186.760223 
L 643.151157 188.042328 
L 643.439582 187.602797 
L 644.593284 187.932385 
L 644.881709 188.555074 
L 645.45856 189.214491 
L 645.746985 189.763724 
L 646.323835 190.313198 
L 646.612261 190.642786 
L 646.900686 190.386413 
L 647.189111 175.661767 
L 647.477537 175.625039 
L 648.054387 179.178014 
L 648.342813 180.020588 
L 648.631238 180.167019 
L 648.919663 181.595554 
L 649.208089 182.145028 
L 649.496514 183.02409 
L 649.784939 180.570062 
L 650.36179 182.694502 
L 651.227066 184.416138 
L 651.515491 185.368415 
L 651.803917 185.551573 
L 652.092342 185.917889 
L 652.380767 175.954867 
L 652.669193 178.262465 
L 652.957618 179.141527 
L 653.246043 178.079307 
L 653.534469 178.006092 
L 653.822894 179.068311 
L 654.399745 133.721969 
L 654.68817 143.611776 
L 654.976595 146.578549 
L 655.265021 139.143011 
L 656.130297 151.596788 
L 656.707147 156.797944 
L 656.995573 153.061811 
L 657.283998 141.487336 
L 657.572423 84.456337 
L 658.149274 117.971591 
L 658.726124 132.80618 
L 659.302975 141.450608 
L 659.5914 144.783698 
L 659.879826 75.48232 
L 660.168251 88.522058 
L 660.456676 92.404861 
L 660.745102 104.711967 
L 661.033527 103.283432 
L 661.610378 121.927609 
L 663.052504 140.058801 
L 663.34093 133.941615 
L 663.629355 63.68796 
L 663.91778 68.083269 
L 664.206206 93.613511 
L 664.494631 93.357138 
L 664.783056 68.999059 
L 665.071482 79.10851 
L 665.359907 98.595022 
L 665.648332 108.008569 
L 666.225183 110.242952 
L 666.513608 97.459587 
L 666.802034 62.259424 
L 667.378884 103.906121 
L 667.955735 121.085035 
L 668.532586 131.231214 
L 669.686287 144.783698 
L 670.551563 152.402634 
L 670.839988 153.244969 
L 671.128413 156.578298 
L 671.993689 161.193493 
L 673.435816 168.04307 
L 673.724241 169.141778 
L 674.012667 170.716984 
L 675.166368 174.196744 
L 675.454793 172.804696 
L 676.320069 176.247728 
L 676.608495 176.870417 
L 676.89692 178.006092 
L 677.762196 180.130531 
L 678.339047 181.559067 
L 680.358024 185.258472 
L 681.2233 187.163266 
L 681.511725 187.382912 
L 681.80015 188.042328 
L 682.088576 186.943381 
L 682.953852 188.884662 
L 683.242277 189.177763 
L 683.530702 189.763724 
L 684.107553 190.313198 
L 684.395978 190.935887 
L 685.261254 192.071322 
L 685.54968 192.694011 
L 685.838105 189.177763 
L 686.12653 190.13004 
L 686.414956 185.917889 
L 686.991806 188.042328 
L 687.280232 188.518347 
L 687.568657 158.592795 
L 687.857082 91.599014 
L 688.145508 95.774678 
L 688.433933 85.262183 
L 688.722358 96.324152 
L 689.010784 87.789666 
L 689.299209 89.327904 
L 689.587634 96.617013 
L 689.87606 78.376119 
L 690.164485 78.742194 
L 690.45291 94.932104 
L 691.318186 117.495332 
L 691.895037 128.007827 
L 692.183462 124.601522 
L 692.760313 133.905127 
L 693.048738 135.992839 
L 693.337163 132.513079 
L 693.625589 121.01182 
L 694.202439 134.198228 
L 694.77929 142.695986 
L 695.932991 152.62228 
L 696.221417 151.853161 
L 696.798267 156.834671 
L 697.086693 157.127772 
L 697.663543 160.64402 
L 698.240394 163.647521 
L 698.528819 162.914889 
L 699.682521 168.299443 
L 702.278349 176.21124 
L 702.566774 176.577556 
L 702.855199 175.954867 
L 703.143624 174.745977 
L 703.720475 147.713984 
L 704.0089 153.025323 
L 705.162602 160.64402 
L 706.027878 165.039569 
L 707.75843 170.643528 
L 708.046855 171.559318 
L 708.33528 171.486103 
L 708.623706 154.527074 
L 708.912131 149.215975 
L 709.200556 155.442863 
L 709.777407 160.680747 
L 710.065832 159.435369 
L 710.354258 151.743218 
L 710.642683 156.505083 
L 711.219534 160.64402 
L 711.507959 160.387647 
L 711.796384 146.322176 
L 712.08481 101.04905 
L 712.373235 99.840399 
L 712.66166 107.495823 
L 712.950086 118.337907 
L 713.526936 130.645253 
L 713.815362 131.45086 
L 714.103787 118.374634 
L 714.392212 123.868891 
L 714.680637 119.180241 
L 714.969063 117.67849 
L 715.257488 115.444348 
L 715.545913 125.370642 
L 715.834339 117.67849 
L 716.122764 127.788182 
L 716.699615 136.542313 
L 716.98804 139.545814 
L 717.276465 141.194235 
L 717.564891 139.838915 
L 717.853316 128.337415 
L 718.141741 102.40437 
L 718.718592 123.685733 
L 719.007017 122.51357 
L 719.295443 119.510069 
L 719.583868 125.041053 
L 719.872293 126.799177 
L 720.160719 127.128765 
L 720.737569 136.798686 
L 721.025995 139.509327 
L 721.31442 140.388389 
L 721.602845 105.078283 
L 721.891271 115.041305 
L 722.179696 117.129256 
L 722.468121 126.506077 
L 722.756547 130.938113 
L 723.044972 132.183491 
L 723.621823 139.472599 
L 724.198673 144.490838 
L 724.487099 146.542062 
L 724.775524 146.908378 
L 725.063949 125.443857 
L 725.352375 124.161751 
L 725.6408 132.476592 
L 725.929225 128.2642 
L 726.21765 128.850402 
L 726.506076 127.751454 
L 727.082926 135.699979 
L 727.371352 132.476592 
L 727.948202 109.803421 
L 728.236628 95.518305 
L 728.525053 110.059794 
L 728.813478 96.580525 
L 729.101904 112.733707 
L 729.390329 115.370893 
L 729.678754 122.110767 
L 729.96718 125.663742 
L 730.255605 130.68174 
L 730.54403 132.439864 
L 731.409306 141.523824 
L 731.697732 142.476101 
L 731.986157 142.439613 
L 732.274582 139.216226 
L 732.563008 143.24546 
L 732.851433 145.663 
L 733.139858 135.919624 
L 733.428284 141.304178 
L 733.716709 138.300437 
L 734.005134 141.853412 
L 734.29356 142.989087 
L 734.581985 141.890139 
L 734.87041 124.198479 
L 735.158836 70.061278 
L 735.447261 100.096773 
L 735.735686 112.440606 
L 736.024112 114.491831 
L 736.312537 103.942848 
L 736.600962 114.19897 
L 736.889388 120.09603 
L 737.177813 112.696979 
L 737.754663 125.443857 
L 738.043089 123.356145 
L 738.619939 132.439864 
L 739.19679 137.384887 
L 739.485215 134.710974 
L 740.062066 140.644762 
L 740.350491 138.300437 
L 740.638917 139.61927 
L 740.927342 143.09879 
L 741.215767 144.966856 
L 741.504193 143.868149 
L 741.792618 143.941364 
L 742.081043 146.908378 
L 742.369469 148.043813 
L 742.657894 150.021822 
L 742.946319 149.508836 
L 743.234745 93.357138 
L 743.52317 99.034553 
L 743.811595 92.917607 
L 744.100021 89.987321 
L 744.965297 116.286682 
L 745.253722 123.026317 
L 746.118998 133.062553 
L 746.407423 133.831912 
L 746.695849 136.871901 
L 746.984274 136.212725 
L 747.272699 137.384887 
L 747.84955 116.836156 
L 748.137975 121.414623 
L 748.426401 128.11777 
L 748.714826 127.495081 
L 749.003251 133.355654 
L 749.291676 136.871901 
L 749.580102 136.725471 
L 750.445378 144.490838 
L 751.022228 147.713984 
L 751.310654 148.153755 
L 751.599079 148.849659 
L 751.887504 151.193744 
L 752.17593 151.266959 
L 753.329631 156.797944 
L 753.618056 157.970106 
L 753.906482 152.988596 
L 754.194907 155.95561 
L 755.060183 160.167761 
L 755.348608 160.387647 
L 755.925459 98.704965 
L 756.213884 115.663993 
L 756.790735 127.934612 
L 757.07916 131.524315 
L 757.367586 98.961338 
L 757.656011 49.549274 
L 757.944436 65.739184 
L 758.232862 70.500809 
L 758.521287 89.840891 
L 759.098138 102.697471 
L 759.386563 100.719461 
L 759.674988 103.283432 
L 759.963414 108.631258 
L 760.251839 105.700972 
L 760.540264 104.785183 
L 760.828689 107.532551 
L 761.117115 102.40437 
L 761.693965 112.184233 
L 761.982391 111.744702 
L 762.270816 120.425618 
L 762.559241 110.975583 
L 762.847667 112.733707 
L 763.136092 116.836156 
L 763.424517 124.747953 
L 763.712943 128.2642 
L 764.001368 129.765951 
L 764.289793 128.007827 
L 764.578219 131.011329 
L 764.866644 125.333914 
L 765.155069 125.956603 
L 765.73192 134.234716 
L 766.020345 127.641511 
L 766.308771 131.560802 
L 766.597196 133.355654 
L 766.885621 137.165002 
L 767.174047 135.626524 
L 767.462472 127.641511 
L 767.750897 128.2642 
L 768.039323 134.1615 
L 768.327748 136.212725 
L 768.616173 139.216226 
L 768.904599 138.520322 
L 769.481449 134.198228 
L 770.346725 143.318675 
L 770.635151 145.919373 
L 770.923576 146.542062 
L 771.500427 150.387898 
L 771.788852 151.889648 
L 772.077277 133.135768 
L 772.365702 138.337164 
L 772.654128 135.919624 
L 772.942553 139.216226 
L 773.519404 113.393123 
L 773.807829 109.180732 
L 774.096254 121.890882 
L 774.38468 125.333914 
L 774.673105 126.799177 
L 775.249956 135.626524 
L 775.538381 138.70348 
L 775.826806 139.509327 
L 776.115232 142.439613 
L 776.403657 142.732714 
L 776.692082 142.732714 
L 776.980508 127.421866 
L 777.268933 122.07404 
L 777.557358 130.608525 
L 777.845784 129.143262 
L 778.134209 135.956352 
L 778.999485 144.197737 
L 779.28791 145.113526 
L 779.576336 146.651765 
L 779.864761 120.645504 
L 780.153186 128.081042 
L 780.441612 131.634017 
L 780.730037 128.2642 
L 781.018462 109.36389 
L 781.306888 115.444348 
L 781.595313 114.491831 
L 781.883738 118.301179 
L 782.172164 118.59428 
L 782.460589 78.998807 
L 782.749014 88.705216 
L 783.03744 105.151498 
L 784.191141 126.579292 
L 784.479566 128.044555 
L 784.767991 96.250697 
L 785.056417 109.180732 
L 785.344842 113.100023 
L 785.633267 122.330413 
L 785.921693 116.799428 
L 786.498543 128.630516 
L 786.786969 129.765951 
L 787.075394 134.1615 
L 787.652245 138.300437 
L 787.94067 137.384887 
L 788.805946 145.113526 
L 789.094371 146.87165 
L 789.382797 147.713984 
L 789.671222 150.058309 
L 789.959647 145.076799 
L 790.248073 149.765209 
L 790.536498 151.633275 
L 791.113349 153.574797 
L 791.401774 155.808939 
L 792.26705 159.545072 
L 792.555475 152.732223 
L 792.843901 156.505083 
L 793.709177 160.64402 
L 793.997602 160.350919 
L 794.286027 161.779454 
L 794.574453 125.956603 
L 795.151303 141.304178 
L 795.728154 147.091296 
L 796.305004 151.303687 
L 796.59343 153.025323 
L 796.881855 153.867658 
L 797.747131 158.043321 
L 798.035556 158.885896 
L 798.323982 158.336422 
L 798.612407 158.629523 
L 798.900832 159.178756 
L 799.477683 161.229981 
L 800.631384 165.662258 
L 800.91981 165.662258 
L 801.208235 160.973608 
L 801.49666 163.244718 
L 801.785086 164.380153 
L 802.073511 162.731972 
L 802.361936 164.782956 
L 802.650362 163.134775 
L 803.515638 165.881903 
L 803.804063 166.944123 
L 804.092488 167.090553 
L 804.380914 167.933128 
L 804.669339 167.969855 
L 804.957764 168.95862 
L 805.24619 164.819683 
L 805.534615 124.821168 
L 805.82304 66.911347 
L 806.111466 95.701463 
L 806.399891 78.668979 
L 806.688316 85.482069 
L 806.976741 76.031794 
L 807.265167 83.65049 
L 807.553592 72.368876 
L 807.842017 79.914357 
L 808.130443 96.873386 
L 808.710314 113.319668 
L 808.997229 114.272185 
L 809.284144 116.652998 
L 809.571059 121.670996 
L 809.857975 121.890882 
L 810.15244 116.836156 
L 810.439355 123.978834 
L 810.726271 128.300928 
L 811.013186 124.198479 
L 811.300101 130.938113 
L 811.881482 138.227222 
L 812.455313 143.575048 
L 812.742228 144.930368 
L 813.036693 147.128023 
L 813.323609 145.663 
L 813.897439 90.390124 
L 814.184354 72.222445 
L 814.47882 97.239701 
L 814.765735 101.891624 
L 815.339566 117.971591 
L 815.920947 127.165493 
L 816.207862 117.715218 
L 816.494777 126.212976 
L 816.781692 100.939347 
L 817.068608 104.858638 
L 817.649989 119.510069 
L 817.936904 109.51032 
L 818.510734 122.989829 
L 819.092115 130.352152 
L 820.247327 140.168503 
L 820.534242 142.146512 
L 820.821157 142.512828 
L 821.108072 139.802187 
L 821.394988 131.853903 
L 821.976368 140.571547 
L 822.263284 120.315916 
L 822.550199 129.47309 
L 822.837114 133.831912 
L 823.13158 134.1615 
L 823.418495 131.231214 
L 823.70541 123.28269 
L 823.992326 125.077541 
L 824.279241 125.773445 
L 824.573706 128.007827 
L 824.860622 132.110276 
L 825.147537 134.454601 
L 825.434452 135.406878 
L 825.721367 121.231465 
L 826.302748 131.231214 
L 826.589664 134.564304 
L 826.876579 135.626524 
L 827.45796 140.644762 
L 828.03179 74.603258 
L 828.605621 104.67548 
L 828.900086 110.352894 
L 829.187002 83.064529 
L 830.047747 106.506819 
L 830.342213 107.166235 
L 830.629128 106.287173 
L 830.916043 92.441349 
L 831.202959 91.96533 
L 831.489874 95.115262 
L 831.78434 88.046039 
L 832.071255 88.925101 
L 832.35817 100.389873 
L 832.645085 65.372868 
L 833.226466 81.050032 
L 833.513381 87.240193 
L 833.800297 74.859631 
L 834.087212 52.479561 
L 834.374127 47.900853 
L 834.668593 69.87812 
L 835.242423 79.584769 
L 835.529339 74.603258 
L 835.816254 77.789917 
L 836.110719 83.320902 
L 836.397635 81.269677 
L 836.971465 97.459587 
L 837.25838 99.547299 
L 837.839761 112.696979 
L 838.126677 107.422608 
L 838.700507 120.059543 
L 838.994973 117.422117 
L 839.568803 128.630516 
L 840.142634 133.941615 
L 840.437099 120.938605 
L 840.724015 124.198479 
L 841.297845 132.476592 
L 841.58476 132.989338 
L 842.166141 138.923126 
L 842.453056 141.304178 
L 842.739972 133.428869 
L 843.321353 140.864647 
L 843.608268 142.695986 
L 843.895183 142.146512 
L 844.182098 145.113526 
L 844.469014 145.919373 
L 845.050394 149.801936 
L 845.33731 149.508836 
L 845.624225 147.640769 
L 845.91114 150.387898 
L 846.492521 152.988596 
L 847.066352 155.296193 
L 847.353267 155.95561 
L 848.221563 159.252212 
L 848.508478 160.021331 
L 848.795393 161.266708 
L 849.089859 161.706239 
L 849.376774 163.244718 
L 849.66369 162.14577 
L 850.23752 164.782956 
L 850.531986 157.713733 
L 850.818901 160.387647 
L 851.679647 164.196995 
L 851.974112 162.182498 
L 852.261028 162.402143 
L 852.547943 160.607292 
L 853.121773 163.611033 
L 853.416239 163.647521 
L 853.703154 141.487336 
L 854.858366 150.680998 
L 855.432196 95.408363 
L 855.719111 98.265434 
L 856.006027 68.632743 
L 856.587407 101.598523 
L 856.874323 104.52881 
L 857.448153 116.543055 
L 857.742619 121.231465 
L 858.029534 123.685733 
L 858.603365 130.938113 
L 859.184745 136.212725 
L 860.332406 143.904636 
L 860.626872 115.590778 
L 860.913787 121.634509 
L 861.200703 122.733456 
L 861.774533 134.198228 
L 862.068999 136.175997 
L 862.642829 140.717977 
L 862.929744 143.025574 
L 863.21666 143.868149 
L 863.511125 140.97435 
L 863.798041 133.575539 
L 864.371871 139.728972 
L 864.658786 141.560551 
L 864.953252 133.575539 
L 865.240167 138.55681 
L 865.527082 138.886638 
L 865.813998 140.717977 
L 866.100913 139.875643 
L 866.395379 142.732714 
L 866.969209 144.527325 
L 867.256124 146.468607 
L 867.54304 146.908378 
L 867.837505 148.849659 
L 868.12442 145.333172 
L 868.411336 147.421124 
L 868.698251 146.87165 
L 869.279632 150.974099 
L 869.566547 152.072806 
L 869.853462 142.805929 
L 870.140378 146.761707 
L 870.427293 113.90587 
L 870.721758 111.854645 
L 871.295589 126.90912 
L 871.869419 134.234716 
L 872.163885 136.798686 
L 872.4508 116.286682 
L 872.737716 125.114269 
L 873.024631 128.007827 
L 873.311546 124.235207 
L 873.892927 132.110276 
L 874.466757 137.091787 
L 874.753673 138.923126 
L 875.048138 116.579783 
L 875.335054 77.936588 
L 875.621969 82.991313 
L 875.908884 79.511554 
L 876.195799 80.463831 
L 876.490265 88.741943 
L 876.77718 90.426852 
L 877.064095 90.133751 
L 877.637926 82.185467 
L 877.932392 91.635502 
L 878.219307 90.024049 
L 878.506222 100.426361 
L 878.793137 103.906121 
L 879.080053 104.785183 
L 879.374518 106.250446 
L 879.948349 114.19897 
L 880.235264 113.502826 
L 880.522179 115.957094 
L 881.10356 124.601522 
L 881.390475 119.80293 
L 881.677391 119.253696 
L 881.964306 106.799919 
L 882.258771 116.579783 
L 882.832602 115.700721 
L 883.119517 87.789666 
L 883.700898 105.041796 
L 883.987813 103.320159 
L 884.274729 97.422859 
L 884.561644 108.045297 
L 885.143025 120.059543 
L 885.716855 127.97134 
L 886.00377 125.407129 
L 887.445897 137.970849 
L 888.601108 145.003584 
L 888.888024 145.882645 
L 889.469405 149.252463 
L 889.75632 150.131525 
L 890.043235 151.56006 
L 890.33015 152.402634 
L 890.911531 155.03982 
L 891.198446 151.266959 
L 891.485362 145.369899 
L 892.927488 153.867658 
L 893.214404 154.783447 
L 893.501319 156.468356 
L 893.795784 157.200987 
L 894.0827 157.127772 
L 894.369615 158.336422 
L 894.65653 149.765209 
L 894.943445 149.435621 
L 895.524826 151.816433 
L 896.098657 154.820175 
L 896.385572 155.296193 
L 896.966953 158.116537 
L 897.253868 158.299695 
L 897.540783 159.545072 
L 897.827699 159.801445 
L 898.122164 157.420633 
L 898.40908 157.420633 
L 898.695995 159.215484 
L 898.98291 157.200987 
L 899.269825 158.263207 
L 899.564291 155.882394 
L 899.851206 123.063044 
L 900.138121 121.268193 
L 900.425037 112.184233 
L 901.006418 106.543546 
L 901.293333 93.979827 
L 901.867163 114.968089 
L 902.448544 124.49158 
L 902.735459 124.747953 
L 903.022375 99.437596 
L 903.30929 105.078283 
L 903.596205 113.869142 
L 903.890671 112.770435 
L 904.177586 109.766693 
L 905.038332 125.627015 
L 905.332797 129.509578 
L 906.774924 140.095288 
L 907.061839 137.751203 
L 907.348755 141.487336 
L 907.63567 139.582542 
L 907.922585 143.062302 
L 908.503966 146.761707 
L 908.790881 141.853412 
L 909.077796 141.267451 
L 909.364712 144.60054 
L 909.659177 144.45411 
L 909.946093 146.688492 
L 910.233008 138.84991 
L 910.806838 107.422608 
L 911.101304 110.609268 
L 911.388219 117.348902 
L 911.675134 113.246453 
L 911.96205 96.543797 
L 912.248965 89.035044 
L 912.543431 92.441349 
L 912.830346 93.650239 
L 913.117261 62.47907 
L 913.404176 81.599265 
L 913.691092 74.859631 
L 914.272472 98.411864 
L 914.559388 103.539805 
L 915.133218 115.700721 
L 915.427684 118.301179 
L 915.714599 123.28269 
L 916.001514 120.645504 
L 916.28843 122.989829 
L 916.575345 127.97134 
L 916.86981 129.839406 
L 917.156726 113.283181 
L 917.730556 125.187484 
L 918.017471 128.594029 
L 918.017471 128.594029 
" clip-path="url(#p022171d662)" style="fill: none; stroke: #2563eb; stroke-opacity: 0.95; stroke-width: 1.3; stroke-linecap: square"/>
   </g>
   <g id="patch_20">
    <path d="M 39.330625 228.954713 
L 39.330625 17.061433 
" style="fill: none; stroke: #cbd5e1; stroke-width: 0.8; stroke-linejoin: miter; stroke-linecap: square"/>
   </g>
   <g id="patch_21">
    <path d="M 935.305625 228.954713 
L 935.305625 17.061433 
" style="fill: none; stroke: #cbd5e1; stroke-width: 0.8; stroke-linejoin: miter; stroke-linecap: square"/>
   </g>
   <g id="patch_22">
    <path d="M 39.330625 228.954713 
L 935.305625 228.954713 
" style="fill: none; stroke: #cbd5e1; stroke-width: 0.8; stroke-linejoin: miter; stroke-linecap: square"/>
   </g>
   <g id="patch_23">
    <path d="M 39.330625 17.061433 
L 935.305625 17.061433 
" style="fill: none; stroke: #cbd5e1; stroke-width: 0.8; stroke-linejoin: miter; stroke-linecap: square"/>
   </g>
   <g id="text_20">
    <!-- ACC -->
    <g style="fill: #475569" transform="translate(121.682939 13.27875) scale(0.08 -0.08)">
     <defs>
      <path id="DejaVuSans-43" d="M 4122 4306 
L 4122 3641 
Q 3803 3938 3442 4084 
Q 3081 4231 2675 4231 
Q 1875 4231 1450 3742 
Q 1025 3253 1025 2328 
Q 1025 1406 1450 917 
Q 1875 428 2675 428 
Q 3081 428 3442 575 
Q 3803 722 4122 1019 
L 4122 359 
Q 3791 134 3420 21 
Q 3050 -91 2638 -91 
Q 1578 -91 968 557 
Q 359 1206 359 2328 
Q 359 3453 968 4101 
Q 1578 4750 2638 4750 
Q 3056 4750 3426 4639 
Q 3797 4528 4122 4306 
z
" transform="scale(0.015625)"/>
     </defs>
     <use xlink:href="#DejaVuSans-41"/>
     <use xlink:href="#DejaVuSans-43" transform="translate(66.658203 0)"/>
     <use xlink:href="#DejaVuSans-43" transform="translate(136.482422 0)"/>
    </g>
   </g>
   <g id="text_21">
    <!-- OC -->
    <g style="fill: #475569" transform="translate(228.1891 13.27875) scale(0.08 -0.08)">
     <defs>
      <path id="DejaVuSans-4f" d="M 2522 4238 
Q 1834 4238 1429 3725 
Q 1025 3213 1025 2328 
Q 1025 1447 1429 934 
Q 1834 422 2522 422 
Q 3209 422 3611 934 
Q 4013 1447 4013 2328 
Q 4013 3213 3611 3725 
Q 3209 4238 2522 4238 
z
M 2522 4750 
Q 3503 4750 4090 4092 
Q 4678 3434 4678 2328 
Q 4678 1225 4090 567 
Q 3503 -91 2522 -91 
Q 1538 -91 948 565 
Q 359 1222 359 2328 
Q 359 3434 948 4092 
Q 1538 4750 2522 4750 
z
" transform="scale(0.015625)"/>
     </defs>
     <use xlink:href="#DejaVuSans-4f"/>
     <use xlink:href="#DejaVuSans-43" transform="translate(78.710938 0)"/>
    </g>
   </g>
   <g id="text_22">
    <!-- FCS -->
    <g style="fill: #475569" transform="translate(253.679295 13.27875) scale(0.08 -0.08)">
     <defs>
      <path id="DejaVuSans-46" d="M 628 4666 
L 3309 4666 
L 3309 4134 
L 1259 4134 
L 1259 2759 
L 3109 2759 
L 3109 2228 
L 1259 2228 
L 1259 0 
L 628 0 
L 628 4666 
z
" transform="scale(0.015625)"/>
      <path id="DejaVuSans-53" d="M 3425 4513 
L 3425 3897 
Q 3066 4069 2747 4153 
Q 2428 4238 2131 4238 
Q 1616 4238 1336 4038 
Q 1056 3838 1056 3469 
Q 1056 3159 1242 3001 
Q 1428 2844 1947 2747 
L 2328 2669 
Q 3034 2534 3370 2195 
Q 3706 1856 3706 1288 
Q 3706 609 3251 259 
Q 2797 -91 1919 -91 
Q 1588 -91 1214 -16 
Q 841 59 441 206 
L 441 856 
Q 825 641 1194 531 
Q 1563 422 1919 422 
Q 2459 422 2753 634 
Q 3047 847 3047 1241 
Q 3047 1584 2836 1778 
Q 2625 1972 2144 2069 
L 1759 2144 
Q 1053 2284 737 2584 
Q 422 2884 422 3419 
Q 422 4038 858 4394 
Q 1294 4750 2059 4750 
Q 2388 4750 2728 4690 
Q 3069 4631 3425 4513 
z
" transform="scale(0.015625)"/>
     </defs>
     <use xlink:href="#DejaVuSans-46"/>
     <use xlink:href="#DejaVuSans-43" transform="translate(57.519531 0)"/>
     <use xlink:href="#DejaVuSans-53" transform="translate(127.34375 0)"/>
    </g>
   </g>
   <g id="text_23">
    <!-- SR -->
    <g style="fill: #475569" transform="translate(289.970475 13.27875) scale(0.08 -0.08)">
     <defs>
      <path id="DejaVuSans-52" d="M 2841 2188 
Q 3044 2119 3236 1894 
Q 3428 1669 3622 1275 
L 4263 0 
L 3584 0 
L 2988 1197 
Q 2756 1666 2539 1819 
Q 2322 1972 1947 1972 
L 1259 1972 
L 1259 0 
L 628 0 
L 628 4666 
L 2053 4666 
Q 2853 4666 3247 4331 
Q 3641 3997 3641 3322 
Q 3641 2881 3436 2590 
Q 3231 2300 2841 2188 
z
M 1259 4147 
L 1259 2491 
L 2053 2491 
Q 2509 2491 2742 2702 
Q 2975 2913 2975 3322 
Q 2975 3731 2742 3939 
Q 2509 4147 2053 4147 
L 1259 4147 
z
" transform="scale(0.015625)"/>
     </defs>
     <use xlink:href="#DejaVuSans-53"/>
     <use xlink:href="#DejaVuSans-52" transform="translate(63.476562 0)"/>
    </g>
   </g>
   <g id="text_24">
    <!-- FFC -->
    <g style="fill: #475569" transform="translate(330.932137 13.27875) scale(0.08 -0.08)">
     <use xlink:href="#DejaVuSans-46"/>
     <use xlink:href="#DejaVuSans-46" transform="translate(57.519531 0)"/>
     <use xlink:href="#DejaVuSans-43" transform="translate(115.039062 0)"/>
    </g>
   </g>
   <g id="text_25">
    <!-- SS -->
    <g style="fill: #475569" transform="translate(414.792094 13.27875) scale(0.08 -0.08)">
     <use xlink:href="#DejaVuSans-53"/>
     <use xlink:href="#DejaVuSans-53" transform="translate(63.476562 0)"/>
    </g>
   </g>
   <g id="text_26">
    <!-- OC -->
    <g style="fill: #475569" transform="translate(484.1477 13.27875) scale(0.08 -0.08)">
     <use xlink:href="#DejaVuSans-4f"/>
     <use xlink:href="#DejaVuSans-43" transform="translate(78.710938 0)"/>
    </g>
   </g>
   <g id="text_27">
    <!-- FCS -->
    <g style="fill: #475569" transform="translate(507.372774 13.27875) scale(0.08 -0.08)">
     <use xlink:href="#DejaVuSans-46"/>
     <use xlink:href="#DejaVuSans-43" transform="translate(57.519531 0)"/>
     <use xlink:href="#DejaVuSans-53" transform="translate(127.34375 0)"/>
    </g>
   </g>
   <g id="text_28">
    <!-- SR -->
    <g style="fill: #475569" transform="translate(543.663954 13.27875) scale(0.08 -0.08)">
     <use xlink:href="#DejaVuSans-53"/>
     <use xlink:href="#DejaVuSans-52" transform="translate(63.476562 0)"/>
    </g>
   </g>
   <g id="text_29">
    <!-- FFC -->
    <g style="fill: #475569" transform="translate(584.625616 13.27875) scale(0.08 -0.08)">
     <use xlink:href="#DejaVuSans-46"/>
     <use xlink:href="#DejaVuSans-46" transform="translate(57.519531 0)"/>
     <use xlink:href="#DejaVuSans-43" transform="translate(115.039062 0)"/>
    </g>
   </g>
   <g id="text_30">
    <!-- SS -->
    <g style="fill: #475569" transform="translate(668.485574 13.27875) scale(0.08 -0.08)">
     <use xlink:href="#DejaVuSans-53"/>
     <use xlink:href="#DejaVuSans-53" transform="translate(63.476562 0)"/>
    </g>
   </g>
   <g id="text_31">
    <!-- OC -->
    <g style="fill: #475569" transform="translate(737.84118 13.27875) scale(0.08 -0.08)">
     <use xlink:href="#DejaVuSans-4f"/>
     <use xlink:href="#DejaVuSans-43" transform="translate(78.710938 0)"/>
    </g>
   </g>
   <g id="text_32">
    <!-- FCS -->
    <g style="fill: #475569" transform="translate(761.066254 13.27875) scale(0.08 -0.08)">
     <use xlink:href="#DejaVuSans-46"/>
     <use xlink:href="#DejaVuSans-43" transform="translate(57.519531 0)"/>
     <use xlink:href="#DejaVuSans-53" transform="translate(127.34375 0)"/>
    </g>
   </g>
   <g id="text_33">
    <!-- SR -->
    <g style="fill: #475569" transform="translate(797.357434 13.27875) scale(0.08 -0.08)">
     <use xlink:href="#DejaVuSans-53"/>
     <use xlink:href="#DejaVuSans-52" transform="translate(63.476562 0)"/>
    </g>
   </g>
   <g id="text_34">
    <!-- FFC -->
    <g style="fill: #475569" transform="translate(838.319096 13.27875) scale(0.08 -0.08)">
     <use xlink:href="#DejaVuSans-46"/>
     <use xlink:href="#DejaVuSans-46" transform="translate(57.519531 0)"/>
     <use xlink:href="#DejaVuSans-43" transform="translate(115.039062 0)"/>
    </g>
   </g>
   <g id="text_35">
    <!-- SS -->
    <g style="fill: #475569" transform="translate(885.937128 13.27875) scale(0.08 -0.08)">
     <use xlink:href="#DejaVuSans-53"/>
     <use xlink:href="#DejaVuSans-53" transform="translate(63.476562 0)"/>
    </g>
   </g>
   <g id="legend_1">
    <g id="line2d_36">
     <path d="M 889.158125 27.540183 
L 897.158125 27.540183 
L 905.158125 27.540183 
" style="fill: none; stroke: #2563eb; stroke-opacity: 0.95; stroke-width: 1.3; stroke-linecap: square"/>
    </g>
    <g id="text_36">
     <!-- EDA -->
     <g transform="translate(911.558125 30.340183) scale(0.08 -0.08)">
      <use xlink:href="#DejaVuSans-45"/>
      <use xlink:href="#DejaVuSans-44" transform="translate(63.183594 0)"/>
      <use xlink:href="#DejaVuSans-41" transform="translate(138.435547 0)"/>
     </g>
    </g>
   </g>
  </g>
 </g>
 <defs>
  <clipPath id="p022171d662">
   <rect x="39.330625" y="17.061433" width="895.975" height="211.89328"/>
  </clipPath>
 </defs>
</svg>
