<?xml version="1.0" encoding="utf-8" standalone="no"?>
<!DOCTYPE svg PUBLIC "-//W3C//DTD SVG 1.1//EN"
  "http://www.w3.org/Graphics/SVG/1.1/DTD/svg11.dtd">
<svg xmlns:xlink="http://www.w3.org/1999/xlink" width="942.553438pt" height="265.54315pt" viewBox="0 0 942.553438 265.54315" xmlns="http://www.w3.org/2000/svg" version="1.1">
 <metadata>
  <rdf:RDF xmlns:dc="http://purl.org/dc/elements/1.1/" xmlns:cc="http://creativecommons.org/ns#" xmlns:rdf="http://www.w3.org/1999/02/22-rdf-syntax-ns#">
   <cc:Work>
    <dc:type rdf:resource="http://purl.org/dc/dcmitype/StillImage"/>
    <dc:date>2026-04-17T17:37:11.255892</dc:date>
    <dc:format>image/svg+xml</dc:format>
    <dc:creator>
     <cc:Agent>
      <dc:title>Matplotlib v3.10.8, https://matplotlib.org/</dc:title>
     </cc:Agent>
    </dc:creator>
   </cc:Work>
  </rdf:RDF>
 </metadata>
 <defs>
  <style type="text/css">*{stroke-linejoin: round; stroke-linecap: butt}</style>
 </defs>
 <g id="figure_1">
  <g id="patch_1">
   <path d="M 0 265.54315 
L 942.553438 265.54315 
L 942.553438 0 
L 0 0 
z
" style="fill: #ffffff"/>
  </g>
  <g id="axes_1">
   <g id="patch_2">
    <path d="M 42.190938 228.954713 
L 935.353438 228.954713 
L 935.353438 17.061433 
L 42.190938 17.061433 
z
" style="fill: #ffffff"/>
   </g>
   <g id="patch_3">
    <path d="M 42.190938 228.954713 
L 222.796402 228.954713 
L 222.796402 17.061433 
L 42.190938 17.061433 
z
" clip-path="url(#p4dc1907e7f)" style="fill: #f8fafc; opacity: 0.45"/>
   </g>
   <g id="patch_4">
    <path d="M 222.796402 228.954713 
L 249.887222 228.954713 
L 249.887222 17.061433 
L 222.796402 17.061433 
z
" clip-path="url(#p4dc1907e7f)" style="fill: #eff6ff; opacity: 0.45"/>
   </g>
   <g id="patch_5">
    <path d="M 249.887222 228.954713 
L 276.978041 228.954713 
L 276.978041 17.061433 
L 249.887222 17.061433 
z
" clip-path="url(#p4dc1907e7f)" style="fill: #fef3c7; opacity: 0.45"/>
   </g>
   <g id="patch_6">
    <path d="M 276.978041 228.954713 
L 317.614271 228.954713 
L 317.614271 17.061433 
L 276.978041 17.061433 
z
" clip-path="url(#p4dc1907e7f)" style="fill: #dcfce7; opacity: 0.45"/>
   </g>
   <g id="patch_7">
    <path d="M 317.614271 228.954713 
L 362.765637 228.954713 
L 362.765637 17.061433 
L 317.614271 17.061433 
z
" clip-path="url(#p4dc1907e7f)" style="fill: #fee2e2; opacity: 0.45"/>
   </g>
   <g id="patch_8">
    <path d="M 362.765637 228.954713 
L 480.159189 228.954713 
L 480.159189 17.061433 
L 362.765637 17.061433 
z
" clip-path="url(#p4dc1907e7f)" style="fill: #ede9fe; opacity: 0.45"/>
   </g>
   <g id="patch_9">
    <path d="M 480.159189 228.954713 
L 502.734872 228.954713 
L 502.734872 17.061433 
L 480.159189 17.061433 
z
" clip-path="url(#p4dc1907e7f)" style="fill: #f8fafc; opacity: 0.45"/>
   </g>
   <g id="patch_10">
    <path d="M 502.734872 228.954713 
L 529.825692 228.954713 
L 529.825692 17.061433 
L 502.734872 17.061433 
z
" clip-path="url(#p4dc1907e7f)" style="fill: #eff6ff; opacity: 0.45"/>
   </g>
   <g id="patch_11">
    <path d="M 529.825692 228.954713 
L 570.461921 228.954713 
L 570.461921 17.061433 
L 529.825692 17.061433 
z
" clip-path="url(#p4dc1907e7f)" style="fill: #fef3c7; opacity: 0.45"/>
   </g>
   <g id="patch_12">
    <path d="M 570.461921 228.954713 
L 615.613287 228.954713 
L 615.613287 17.061433 
L 570.461921 17.061433 
z
" clip-path="url(#p4dc1907e7f)" style="fill: #dcfce7; opacity: 0.45"/>
   </g>
   <g id="patch_13">
    <path d="M 615.613287 228.954713 
L 733.006839 228.954713 
L 733.006839 17.061433 
L 615.613287 17.061433 
z
" clip-path="url(#p4dc1907e7f)" style="fill: #fee2e2; opacity: 0.45"/>
   </g>
   <g id="patch_14">
    <path d="M 733.006839 228.954713 
L 755.582522 228.954713 
L 755.582522 17.061433 
L 733.006839 17.061433 
z
" clip-path="url(#p4dc1907e7f)" style="fill: #ede9fe; opacity: 0.45"/>
   </g>
   <g id="patch_15">
    <path d="M 755.582522 228.954713 
L 782.673342 228.954713 
L 782.673342 17.061433 
L 755.582522 17.061433 
z
" clip-path="url(#p4dc1907e7f)" style="fill: #f8fafc; opacity: 0.45"/>
   </g>
   <g id="patch_16">
    <path d="M 782.673342 228.954713 
L 823.309571 228.954713 
L 823.309571 17.061433 
L 782.673342 17.061433 
z
" clip-path="url(#p4dc1907e7f)" style="fill: #eff6ff; opacity: 0.45"/>
   </g>
   <g id="patch_17">
    <path d="M 823.309571 228.954713 
L 868.460937 228.954713 
L 868.460937 17.061433 
L 823.309571 17.061433 
z
" clip-path="url(#p4dc1907e7f)" style="fill: #fef3c7; opacity: 0.45"/>
   </g>
   <g id="patch_18">
    <path d="M 868.460937 228.954713 
L 913.612304 228.954713 
L 913.612304 17.061433 
L 868.460937 17.061433 
z
" clip-path="url(#p4dc1907e7f)" style="fill: #dcfce7; opacity: 0.45"/>
   </g>
   <g id="patch_19">
    <path d="M 913.612304 228.954713 
L 918.12744 228.954713 
L 918.12744 17.061433 
L 913.612304 17.061433 
z
" clip-path="url(#p4dc1907e7f)" style="fill: #fee2e2; opacity: 0.45"/>
   </g>
   <g id="matplotlib.axis_1">
    <g id="xtick_1">
     <g id="line2d_1">
      <path d="M 42.190938 228.954713 
L 42.190938 17.061433 
" clip-path="url(#p4dc1907e7f)" style="fill: none; stroke: #eef2f7; stroke-width: 0.55; stroke-linecap: square"/>
     </g>
     <g id="line2d_2">
      <defs>
       <path id="md8cfb05c79" d="M 0 0 
L 0 3.5 
" style="stroke: #000000; stroke-width: 0.8"/>
      </defs>
      <g>
       <use xlink:href="#md8cfb05c79" x="42.190938" y="228.954713" style="stroke: #000000; stroke-width: 0.8"/>
      </g>
     </g>
     <g id="text_1">
      <!-- 0 -->
      <g transform="translate(39.327813 242.793307) scale(0.09 -0.09)">
       <defs>
        <path id="DejaVuSans-30" d="M 2034 4250 
Q 1547 4250 1301 3770 
Q 1056 3291 1056 2328 
Q 1056 1369 1301 889 
Q 1547 409 2034 409 
Q 2525 409 2770 889 
Q 3016 1369 3016 2328 
Q 3016 3291 2770 3770 
Q 2525 4250 2034 4250 
z
M 2034 4750 
Q 2819 4750 3233 4129 
Q 3647 3509 3647 2328 
Q 3647 1150 3233 529 
Q 2819 -91 2034 -91 
Q 1250 -91 836 529 
Q 422 1150 422 2328 
Q 422 3509 836 4129 
Q 1250 4750 2034 4750 
z
" transform="scale(0.015625)"/>
       </defs>
       <use xlink:href="#DejaVuSans-30"/>
      </g>
     </g>
    </g>
    <g id="xtick_2">
     <g id="line2d_3">
      <path d="M 155.069353 228.954713 
L 155.069353 17.061433 
" clip-path="url(#p4dc1907e7f)" style="fill: none; stroke: #eef2f7; stroke-width: 0.55; stroke-linecap: square"/>
     </g>
     <g id="line2d_4">
      <g>
       <use xlink:href="#md8cfb05c79" x="155.069353" y="228.954713" style="stroke: #000000; stroke-width: 0.8"/>
      </g>
     </g>
     <g id="text_2">
      <!-- 25 -->
      <g transform="translate(149.343103 242.793307) scale(0.09 -0.09)">
       <defs>
        <path id="DejaVuSans-32" d="M 1228 531 
L 3431 531 
L 3431 0 
L 469 0 
L 469 531 
Q 828 903 1448 1529 
Q 2069 2156 2228 2338 
Q 2531 2678 2651 2914 
Q 2772 3150 2772 3378 
Q 2772 3750 2511 3984 
Q 2250 4219 1831 4219 
Q 1534 4219 1204 4116 
Q 875 4013 500 3803 
L 500 4441 
Q 881 4594 1212 4672 
Q 1544 4750 1819 4750 
Q 2544 4750 2975 4387 
Q 3406 4025 3406 3419 
Q 3406 3131 3298 2873 
Q 3191 2616 2906 2266 
Q 2828 2175 2409 1742 
Q 1991 1309 1228 531 
z
" transform="scale(0.015625)"/>
        <path id="DejaVuSans-35" d="M 691 4666 
L 3169 4666 
L 3169 4134 
L 1269 4134 
L 1269 2991 
Q 1406 3038 1543 3061 
Q 1681 3084 1819 3084 
Q 2600 3084 3056 2656 
Q 3513 2228 3513 1497 
Q 3513 744 3044 326 
Q 2575 -91 1722 -91 
Q 1428 -91 1123 -41 
Q 819 9 494 109 
L 494 744 
Q 775 591 1075 516 
Q 1375 441 1709 441 
Q 2250 441 2565 725 
Q 2881 1009 2881 1497 
Q 2881 1984 2565 2268 
Q 2250 2553 1709 2553 
Q 1456 2553 1204 2497 
Q 953 2441 691 2322 
L 691 4666 
z
" transform="scale(0.015625)"/>
       </defs>
       <use xlink:href="#DejaVuSans-32"/>
       <use xlink:href="#DejaVuSans-35" transform="translate(63.623047 0)"/>
      </g>
     </g>
    </g>
    <g id="xtick_3">
     <g id="line2d_5">
      <path d="M 267.947768 228.954713 
L 267.947768 17.061433 
" clip-path="url(#p4dc1907e7f)" style="fill: none; stroke: #eef2f7; stroke-width: 0.55; stroke-linecap: square"/>
     </g>
     <g id="line2d_6">
      <g>
       <use xlink:href="#md8cfb05c79" x="267.947768" y="228.954713" style="stroke: #000000; stroke-width: 0.8"/>
      </g>
     </g>
     <g id="text_3">
      <!-- 50 -->
      <g transform="translate(262.221518 242.793307) scale(0.09 -0.09)">
       <use xlink:href="#DejaVuSans-35"/>
       <use xlink:href="#DejaVuSans-30" transform="translate(63.623047 0)"/>
      </g>
     </g>
    </g>
    <g id="xtick_4">
     <g id="line2d_7">
      <path d="M 380.826183 228.954713 
L 380.826183 17.061433 
" clip-path="url(#p4dc1907e7f)" style="fill: none; stroke: #eef2f7; stroke-width: 0.55; stroke-linecap: square"/>
     </g>
     <g id="line2d_8">
      <g>
       <use xlink:href="#md8cfb05c79" x="380.826183" y="228.954713" style="stroke: #000000; stroke-width: 0.8"/>
      </g>
     </g>
     <g id="text_4">
      <!-- 75 -->
      <g transform="translate(375.099933 242.793307) scale(0.09 -0.09)">
       <defs>
        <path id="DejaVuSans-37" d="M 525 4666 
L 3525 4666 
L 3525 4397 
L 1831 0 
L 1172 0 
L 2766 4134 
L 525 4134 
L 525 4666 
z
" transform="scale(0.015625)"/>
       </defs>
       <use xlink:href="#DejaVuSans-37"/>
       <use xlink:href="#DejaVuSans-35" transform="translate(63.623047 0)"/>
      </g>
     </g>
    </g>
    <g id="xtick_5">
     <g id="line2d_9">
      <path d="M 493.704599 228.954713 
L 493.704599 17.061433 
" clip-path="url(#p4dc1907e7f)" style="fill: none; stroke: #eef2f7; stroke-width: 0.55; stroke-linecap: square"/>
     </g>
     <g id="line2d_10">
      <g>
       <use xlink:href="#md8cfb05c79" x="493.704599" y="228.954713" style="stroke: #000000; stroke-width: 0.8"/>
      </g>
     </g>
     <g id="text_5">
      <!-- 100 -->
      <g transform="translate(485.115224 242.793307) scale(0.09 -0.09)">
       <defs>
        <path id="DejaVuSans-31" d="M 794 531 
L 1825 531 
L 1825 4091 
L 703 3866 
L 703 4441 
L 1819 4666 
L 2450 4666 
L 2450 531 
L 3481 531 
L 3481 0 
L 794 0 
L 794 531 
z
" transform="scale(0.015625)"/>
       </defs>
       <use xlink:href="#DejaVuSans-31"/>
       <use xlink:href="#DejaVuSans-30" transform="translate(63.623047 0)"/>
       <use xlink:href="#DejaVuSans-30" transform="translate(127.246094 0)"/>
      </g>
     </g>
    </g>
    <g id="xtick_6">
     <g id="line2d_11">
      <path d="M 606.583014 228.954713 
L 606.583014 17.061433 
" clip-path="url(#p4dc1907e7f)" style="fill: none; stroke: #eef2f7; stroke-width: 0.55; stroke-linecap: square"/>
     </g>
     <g id="line2d_12">
      <g>
       <use xlink:href="#md8cfb05c79" x="606.583014" y="228.954713" style="stroke: #000000; stroke-width: 0.8"/>
      </g>
     </g>
     <g id="text_6">
      <!-- 125 -->
      <g transform="translate(597.993639 242.793307) scale(0.09 -0.09)">
       <use xlink:href="#DejaVuSans-31"/>
       <use xlink:href="#DejaVuSans-32" transform="translate(63.623047 0)"/>
       <use xlink:href="#DejaVuSans-35" transform="translate(127.246094 0)"/>
      </g>
     </g>
    </g>
    <g id="xtick_7">
     <g id="line2d_13">
      <path d="M 719.461429 228.954713 
L 719.461429 17.061433 
" clip-path="url(#p4dc1907e7f)" style="fill: none; stroke: #eef2f7; stroke-width: 0.55; stroke-linecap: square"/>
     </g>
     <g id="line2d_14">
      <g>
       <use xlink:href="#md8cfb05c79" x="719.461429" y="228.954713" style="stroke: #000000; stroke-width: 0.8"/>
      </g>
     </g>
     <g id="text_7">
      <!-- 150 -->
      <g transform="translate(710.872054 242.793307) scale(0.09 -0.09)">
       <use xlink:href="#DejaVuSans-31"/>
       <use xlink:href="#DejaVuSans-35" transform="translate(63.623047 0)"/>
       <use xlink:href="#DejaVuSans-30" transform="translate(127.246094 0)"/>
      </g>
     </g>
    </g>
    <g id="xtick_8">
     <g id="line2d_15">
      <path d="M 832.339845 228.954713 
L 832.339845 17.061433 
" clip-path="url(#p4dc1907e7f)" style="fill: none; stroke: #eef2f7; stroke-width: 0.55; stroke-linecap: square"/>
     </g>
     <g id="line2d_16">
      <g>
       <use xlink:href="#md8cfb05c79" x="832.339845" y="228.954713" style="stroke: #000000; stroke-width: 0.8"/>
      </g>
     </g>
     <g id="text_8">
      <!-- 175 -->
      <g transform="translate(823.75047 242.793307) scale(0.09 -0.09)">
       <use xlink:href="#DejaVuSans-31"/>
       <use xlink:href="#DejaVuSans-37" transform="translate(63.623047 0)"/>
       <use xlink:href="#DejaVuSans-35" transform="translate(127.246094 0)"/>
      </g>
     </g>
    </g>
    <g id="text_9">
     <!-- Minutes since session start -->
     <g transform="translate(421.182344 256.263463) scale(0.1 -0.1)">
      <defs>
       <path id="DejaVuSans-4d" d="M 628 4666 
L 1569 4666 
L 2759 1491 
L 3956 4666 
L 4897 4666 
L 4897 0 
L 4281 0 
L 4281 4097 
L 3078 897 
L 2444 897 
L 1241 4097 
L 1241 0 
L 628 0 
L 628 4666 
z
" transform="scale(0.015625)"/>
       <path id="DejaVuSans-69" d="M 603 3500 
L 1178 3500 
L 1178 0 
L 603 0 
L 603 3500 
z
M 603 4863 
L 1178 4863 
L 1178 4134 
L 603 4134 
L 603 4863 
z
" transform="scale(0.015625)"/>
       <path id="DejaVuSans-6e" d="M 3513 2113 
L 3513 0 
L 2938 0 
L 2938 2094 
Q 2938 2591 2744 2837 
Q 2550 3084 2163 3084 
Q 1697 3084 1428 2787 
Q 1159 2491 1159 1978 
L 1159 0 
L 581 0 
L 581 3500 
L 1159 3500 
L 1159 2956 
Q 1366 3272 1645 3428 
Q 1925 3584 2291 3584 
Q 2894 3584 3203 3211 
Q 3513 2838 3513 2113 
z
" transform="scale(0.015625)"/>
       <path id="DejaVuSans-75" d="M 544 1381 
L 544 3500 
L 1119 3500 
L 1119 1403 
Q 1119 906 1312 657 
Q 1506 409 1894 409 
Q 2359 409 2629 706 
Q 2900 1003 2900 1516 
L 2900 3500 
L 3475 3500 
L 3475 0 
L 2900 0 
L 2900 538 
Q 2691 219 2414 64 
Q 2138 -91 1772 -91 
Q 1169 -91 856 284 
Q 544 659 544 1381 
z
M 1991 3584 
L 1991 3584 
z
" transform="scale(0.015625)"/>
       <path id="DejaVuSans-74" d="M 1172 4494 
L 1172 3500 
L 2356 3500 
L 2356 3053 
L 1172 3053 
L 1172 1153 
Q 1172 725 1289 603 
Q 1406 481 1766 481 
L 2356 481 
L 2356 0 
L 1766 0 
Q 1100 0 847 248 
Q 594 497 594 1153 
L 594 3053 
L 172 3053 
L 172 3500 
L 594 3500 
L 594 4494 
L 1172 4494 
z
" transform="scale(0.015625)"/>
       <path id="DejaVuSans-65" d="M 3597 1894 
L 3597 1613 
L 953 1613 
Q 991 1019 1311 708 
Q 1631 397 2203 397 
Q 2534 397 2845 478 
Q 3156 559 3463 722 
L 3463 178 
Q 3153 47 2828 -22 
Q 2503 -91 2169 -91 
Q 1331 -91 842 396 
Q 353 884 353 1716 
Q 353 2575 817 3079 
Q 1281 3584 2069 3584 
Q 2775 3584 3186 3129 
Q 3597 2675 3597 1894 
z
M 3022 2063 
Q 3016 2534 2758 2815 
Q 2500 3097 2075 3097 
Q 1594 3097 1305 2825 
Q 1016 2553 972 2059 
L 3022 2063 
z
" transform="scale(0.015625)"/>
       <path id="DejaVuSans-73" d="M 2834 3397 
L 2834 2853 
Q 2591 2978 2328 3040 
Q 2066 3103 1784 3103 
Q 1356 3103 1142 2972 
Q 928 2841 928 2578 
Q 928 2378 1081 2264 
Q 1234 2150 1697 2047 
L 1894 2003 
Q 2506 1872 2764 1633 
Q 3022 1394 3022 966 
Q 3022 478 2636 193 
Q 2250 -91 1575 -91 
Q 1294 -91 989 -36 
Q 684 19 347 128 
L 347 722 
Q 666 556 975 473 
Q 1284 391 1588 391 
Q 1994 391 2212 530 
Q 2431 669 2431 922 
Q 2431 1156 2273 1281 
Q 2116 1406 1581 1522 
L 1381 1569 
Q 847 1681 609 1914 
Q 372 2147 372 2553 
Q 372 3047 722 3315 
Q 1072 3584 1716 3584 
Q 2034 3584 2315 3537 
Q 2597 3491 2834 3397 
z
" transform="scale(0.015625)"/>
       <path id="DejaVuSans-20" transform="scale(0.015625)"/>
       <path id="DejaVuSans-63" d="M 3122 3366 
L 3122 2828 
Q 2878 2963 2633 3030 
Q 2388 3097 2138 3097 
Q 1578 3097 1268 2742 
Q 959 2388 959 1747 
Q 959 1106 1268 751 
Q 1578 397 2138 397 
Q 2388 397 2633 464 
Q 2878 531 3122 666 
L 3122 134 
Q 2881 22 2623 -34 
Q 2366 -91 2075 -91 
Q 1284 -91 818 406 
Q 353 903 353 1747 
Q 353 2603 823 3093 
Q 1294 3584 2113 3584 
Q 2378 3584 2631 3529 
Q 2884 3475 3122 3366 
z
" transform="scale(0.015625)"/>
       <path id="DejaVuSans-6f" d="M 1959 3097 
Q 1497 3097 1228 2736 
Q 959 2375 959 1747 
Q 959 1119 1226 758 
Q 1494 397 1959 397 
Q 2419 397 2687 759 
Q 2956 1122 2956 1747 
Q 2956 2369 2687 2733 
Q 2419 3097 1959 3097 
z
M 1959 3584 
Q 2709 3584 3137 3096 
Q 3566 2609 3566 1747 
Q 3566 888 3137 398 
Q 2709 -91 1959 -91 
Q 1206 -91 779 398 
Q 353 888 353 1747 
Q 353 2609 779 3096 
Q 1206 3584 1959 3584 
z
" transform="scale(0.015625)"/>
       <path id="DejaVuSans-61" d="M 2194 1759 
Q 1497 1759 1228 1600 
Q 959 1441 959 1056 
Q 959 750 1161 570 
Q 1363 391 1709 391 
Q 2188 391 2477 730 
Q 2766 1069 2766 1631 
L 2766 1759 
L 2194 1759 
z
M 3341 1997 
L 3341 0 
L 2766 0 
L 2766 531 
Q 2569 213 2275 61 
Q 1981 -91 1556 -91 
Q 1019 -91 701 211 
Q 384 513 384 1019 
Q 384 1609 779 1909 
Q 1175 2209 1959 2209 
L 2766 2209 
L 2766 2266 
Q 2766 2663 2505 2880 
Q 2244 3097 1772 3097 
Q 1472 3097 1187 3025 
Q 903 2953 641 2809 
L 641 3341 
Q 956 3463 1253 3523 
Q 1550 3584 1831 3584 
Q 2591 3584 2966 3190 
Q 3341 2797 3341 1997 
z
" transform="scale(0.015625)"/>
       <path id="DejaVuSans-72" d="M 2631 2963 
Q 2534 3019 2420 3045 
Q 2306 3072 2169 3072 
Q 1681 3072 1420 2755 
Q 1159 2438 1159 1844 
L 1159 0 
L 581 0 
L 581 3500 
L 1159 3500 
L 1159 2956 
Q 1341 3275 1631 3429 
Q 1922 3584 2338 3584 
Q 2397 3584 2469 3576 
Q 2541 3569 2628 3553 
L 2631 2963 
z
" transform="scale(0.015625)"/>
      </defs>
      <use xlink:href="#DejaVuSans-4d"/>
      <use xlink:href="#DejaVuSans-69" transform="translate(86.279297 0)"/>
      <use xlink:href="#DejaVuSans-6e" transform="translate(114.0625 0)"/>
      <use xlink:href="#DejaVuSans-75" transform="translate(177.441406 0)"/>
      <use xlink:href="#DejaVuSans-74" transform="translate(240.820312 0)"/>
      <use xlink:href="#DejaVuSans-65" transform="translate(280.029297 0)"/>
      <use xlink:href="#DejaVuSans-73" transform="translate(341.552734 0)"/>
      <use xlink:href="#DejaVuSans-20" transform="translate(393.652344 0)"/>
      <use xlink:href="#DejaVuSans-73" transform="translate(425.439453 0)"/>
      <use xlink:href="#DejaVuSans-69" transform="translate(477.539062 0)"/>
      <use xlink:href="#DejaVuSans-6e" transform="translate(505.322266 0)"/>
      <use xlink:href="#DejaVuSans-63" transform="translate(568.701172 0)"/>
      <use xlink:href="#DejaVuSans-65" transform="translate(623.681641 0)"/>
      <use xlink:href="#DejaVuSans-20" transform="translate(685.205078 0)"/>
      <use xlink:href="#DejaVuSans-73" transform="translate(716.992188 0)"/>
      <use xlink:href="#DejaVuSans-65" transform="translate(769.091797 0)"/>
      <use xlink:href="#DejaVuSans-73" transform="translate(830.615234 0)"/>
      <use xlink:href="#DejaVuSans-73" transform="translate(882.714844 0)"/>
      <use xlink:href="#DejaVuSans-69" transform="translate(934.814453 0)"/>
      <use xlink:href="#DejaVuSans-6f" transform="translate(962.597656 0)"/>
      <use xlink:href="#DejaVuSans-6e" transform="translate(1023.779297 0)"/>
      <use xlink:href="#DejaVuSans-20" transform="translate(1087.158203 0)"/>
      <use xlink:href="#DejaVuSans-73" transform="translate(1118.945312 0)"/>
      <use xlink:href="#DejaVuSans-74" transform="translate(1171.044922 0)"/>
      <use xlink:href="#DejaVuSans-61" transform="translate(1210.253906 0)"/>
      <use xlink:href="#DejaVuSans-72" transform="translate(1271.533203 0)"/>
      <use xlink:href="#DejaVuSans-74" transform="translate(1312.646484 0)"/>
     </g>
    </g>
   </g>
   <g id="matplotlib.axis_2">
    <g id="ytick_1">
     <g id="line2d_17">
      <path d="M 42.190938 200.374679 
L 935.353438 200.374679 
" clip-path="url(#p4dc1907e7f)" style="fill: none; stroke: #eef2f7; stroke-opacity: 0.25; stroke-width: 0.55; stroke-linecap: square"/>
     </g>
     <g id="line2d_18">
      <defs>
       <path id="m4b38f52a6d" d="M 0 0 
L -3.5 0 
" style="stroke: #000000; stroke-width: 0.8"/>
      </defs>
      <g>
       <use xlink:href="#m4b38f52a6d" x="42.190938" y="200.374679" style="stroke: #000000; stroke-width: 0.8"/>
      </g>
     </g>
     <g id="text_10">
      <!-- 1.4 -->
      <g transform="translate(20.878125 203.793976) scale(0.09 -0.09)">
       <defs>
        <path id="DejaVuSans-2e" d="M 684 794 
L 1344 794 
L 1344 0 
L 684 0 
L 684 794 
z
" transform="scale(0.015625)"/>
        <path id="DejaVuSans-34" d="M 2419 4116 
L 825 1625 
L 2419 1625 
L 2419 4116 
z
M 2253 4666 
L 3047 4666 
L 3047 1625 
L 3713 1625 
L 3713 1100 
L 3047 1100 
L 3047 0 
L 2419 0 
L 2419 1100 
L 313 1100 
L 313 1709 
L 2253 4666 
z
" transform="scale(0.015625)"/>
       </defs>
       <use xlink:href="#DejaVuSans-31"/>
       <use xlink:href="#DejaVuSans-2e" transform="translate(63.623047 0)"/>
       <use xlink:href="#DejaVuSans-34" transform="translate(95.410156 0)"/>
      </g>
     </g>
    </g>
    <g id="ytick_2">
     <g id="line2d_19">
      <path d="M 42.190938 166.975259 
L 935.353438 166.975259 
" clip-path="url(#p4dc1907e7f)" style="fill: none; stroke: #eef2f7; stroke-opacity: 0.25; stroke-width: 0.55; stroke-linecap: square"/>
     </g>
     <g id="line2d_20">
      <g>
       <use xlink:href="#m4b38f52a6d" x="42.190938" y="166.975259" style="stroke: #000000; stroke-width: 0.8"/>
      </g>
     </g>
     <g id="text_11">
      <!-- 1.6 -->
      <g transform="translate(20.878125 170.394555) scale(0.09 -0.09)">
       <defs>
        <path id="DejaVuSans-36" d="M 2113 2584 
Q 1688 2584 1439 2293 
Q 1191 2003 1191 1497 
Q 1191 994 1439 701 
Q 1688 409 2113 409 
Q 2538 409 2786 701 
Q 3034 994 3034 1497 
Q 3034 2003 2786 2293 
Q 2538 2584 2113 2584 
z
M 3366 4563 
L 3366 3988 
Q 3128 4100 2886 4159 
Q 2644 4219 2406 4219 
Q 1781 4219 1451 3797 
Q 1122 3375 1075 2522 
Q 1259 2794 1537 2939 
Q 1816 3084 2150 3084 
Q 2853 3084 3261 2657 
Q 3669 2231 3669 1497 
Q 3669 778 3244 343 
Q 2819 -91 2113 -91 
Q 1303 -91 875 529 
Q 447 1150 447 2328 
Q 447 3434 972 4092 
Q 1497 4750 2381 4750 
Q 2619 4750 2861 4703 
Q 3103 4656 3366 4563 
z
" transform="scale(0.015625)"/>
       </defs>
       <use xlink:href="#DejaVuSans-31"/>
       <use xlink:href="#DejaVuSans-2e" transform="translate(63.623047 0)"/>
       <use xlink:href="#DejaVuSans-36" transform="translate(95.410156 0)"/>
      </g>
     </g>
    </g>
    <g id="ytick_3">
     <g id="line2d_21">
      <path d="M 42.190938 133.575838 
L 935.353438 133.575838 
" clip-path="url(#p4dc1907e7f)" style="fill: none; stroke: #eef2f7; stroke-opacity: 0.25; stroke-width: 0.55; stroke-linecap: square"/>
     </g>
     <g id="line2d_22">
      <g>
       <use xlink:href="#m4b38f52a6d" x="42.190938" y="133.575838" style="stroke: #000000; stroke-width: 0.8"/>
      </g>
     </g>
     <g id="text_12">
      <!-- 1.8 -->
      <g transform="translate(20.878125 136.995135) scale(0.09 -0.09)">
       <defs>
        <path id="DejaVuSans-38" d="M 2034 2216 
Q 1584 2216 1326 1975 
Q 1069 1734 1069 1313 
Q 1069 891 1326 650 
Q 1584 409 2034 409 
Q 2484 409 2743 651 
Q 3003 894 3003 1313 
Q 3003 1734 2745 1975 
Q 2488 2216 2034 2216 
z
M 1403 2484 
Q 997 2584 770 2862 
Q 544 3141 544 3541 
Q 544 4100 942 4425 
Q 1341 4750 2034 4750 
Q 2731 4750 3128 4425 
Q 3525 4100 3525 3541 
Q 3525 3141 3298 2862 
Q 3072 2584 2669 2484 
Q 3125 2378 3379 2068 
Q 3634 1759 3634 1313 
Q 3634 634 3220 271 
Q 2806 -91 2034 -91 
Q 1263 -91 848 271 
Q 434 634 434 1313 
Q 434 1759 690 2068 
Q 947 2378 1403 2484 
z
M 1172 3481 
Q 1172 3119 1398 2916 
Q 1625 2713 2034 2713 
Q 2441 2713 2670 2916 
Q 2900 3119 2900 3481 
Q 2900 3844 2670 4047 
Q 2441 4250 2034 4250 
Q 1625 4250 1398 4047 
Q 1172 3844 1172 3481 
z
" transform="scale(0.015625)"/>
       </defs>
       <use xlink:href="#DejaVuSans-31"/>
       <use xlink:href="#DejaVuSans-2e" transform="translate(63.623047 0)"/>
       <use xlink:href="#DejaVuSans-38" transform="translate(95.410156 0)"/>
      </g>
     </g>
    </g>
    <g id="ytick_4">
     <g id="line2d_23">
      <path d="M 42.190938 100.176418 
L 935.353438 100.176418 
" clip-path="url(#p4dc1907e7f)" style="fill: none; stroke: #eef2f7; stroke-opacity: 0.25; stroke-width: 0.55; stroke-linecap: square"/>
     </g>
     <g id="line2d_24">
      <g>
       <use xlink:href="#m4b38f52a6d" x="42.190938" y="100.176418" style="stroke: #000000; stroke-width: 0.8"/>
      </g>
     </g>
     <g id="text_13">
      <!-- 2.0 -->
      <g transform="translate(20.878125 103.595715) scale(0.09 -0.09)">
       <use xlink:href="#DejaVuSans-32"/>
       <use xlink:href="#DejaVuSans-2e" transform="translate(63.623047 0)"/>
       <use xlink:href="#DejaVuSans-30" transform="translate(95.410156 0)"/>
      </g>
     </g>
    </g>
    <g id="ytick_5">
     <g id="line2d_25">
      <path d="M 42.190938 66.776998 
L 935.353438 66.776998 
" clip-path="url(#p4dc1907e7f)" style="fill: none; stroke: #eef2f7; stroke-opacity: 0.25; stroke-width: 0.55; stroke-linecap: square"/>
     </g>
     <g id="line2d_26">
      <g>
       <use xlink:href="#m4b38f52a6d" x="42.190938" y="66.776998" style="stroke: #000000; stroke-width: 0.8"/>
      </g>
     </g>
     <g id="text_14">
      <!-- 2.2 -->
      <g transform="translate(20.878125 70.196294) scale(0.09 -0.09)">
       <use xlink:href="#DejaVuSans-32"/>
       <use xlink:href="#DejaVuSans-2e" transform="translate(63.623047 0)"/>
       <use xlink:href="#DejaVuSans-32" transform="translate(95.410156 0)"/>
      </g>
     </g>
    </g>
    <g id="ytick_6">
     <g id="line2d_27">
      <path d="M 42.190938 33.377577 
L 935.353438 33.377577 
" clip-path="url(#p4dc1907e7f)" style="fill: none; stroke: #eef2f7; stroke-opacity: 0.25; stroke-width: 0.55; stroke-linecap: square"/>
     </g>
     <g id="line2d_28">
      <g>
       <use xlink:href="#m4b38f52a6d" x="42.190938" y="33.377577" style="stroke: #000000; stroke-width: 0.8"/>
      </g>
     </g>
     <g id="text_15">
      <!-- 2.4 -->
      <g transform="translate(20.878125 36.796874) scale(0.09 -0.09)">
       <use xlink:href="#DejaVuSans-32"/>
       <use xlink:href="#DejaVuSans-2e" transform="translate(63.623047 0)"/>
       <use xlink:href="#DejaVuSans-34" transform="translate(95.410156 0)"/>
      </g>
     </g>
    </g>
    <g id="text_16">
     <!-- EDA (uS) -->
     <g transform="translate(14.798438 145.183854) rotate(-90) scale(0.1 -0.1)">
      <defs>
       <path id="DejaVuSans-45" d="M 628 4666 
L 3578 4666 
L 3578 4134 
L 1259 4134 
L 1259 2753 
L 3481 2753 
L 3481 2222 
L 1259 2222 
L 1259 531 
L 3634 531 
L 3634 0 
L 628 0 
L 628 4666 
z
" transform="scale(0.015625)"/>
       <path id="DejaVuSans-44" d="M 1259 4147 
L 1259 519 
L 2022 519 
Q 2988 519 3436 956 
Q 3884 1394 3884 2338 
Q 3884 3275 3436 3711 
Q 2988 4147 2022 4147 
L 1259 4147 
z
M 628 4666 
L 1925 4666 
Q 3281 4666 3915 4102 
Q 4550 3538 4550 2338 
Q 4550 1131 3912 565 
Q 3275 0 1925 0 
L 628 0 
L 628 4666 
z
" transform="scale(0.015625)"/>
       <path id="DejaVuSans-41" d="M 2188 4044 
L 1331 1722 
L 3047 1722 
L 2188 4044 
z
M 1831 4666 
L 2547 4666 
L 4325 0 
L 3669 0 
L 3244 1197 
L 1141 1197 
L 716 0 
L 50 0 
L 1831 4666 
z
" transform="scale(0.015625)"/>
       <path id="DejaVuSans-28" d="M 1984 4856 
Q 1566 4138 1362 3434 
Q 1159 2731 1159 2009 
Q 1159 1288 1364 580 
Q 1569 -128 1984 -844 
L 1484 -844 
Q 1016 -109 783 600 
Q 550 1309 550 2009 
Q 550 2706 781 3412 
Q 1013 4119 1484 4856 
L 1984 4856 
z
" transform="scale(0.015625)"/>
       <path id="DejaVuSans-53" d="M 3425 4513 
L 3425 3897 
Q 3066 4069 2747 4153 
Q 2428 4238 2131 4238 
Q 1616 4238 1336 4038 
Q 1056 3838 1056 3469 
Q 1056 3159 1242 3001 
Q 1428 2844 1947 2747 
L 2328 2669 
Q 3034 2534 3370 2195 
Q 3706 1856 3706 1288 
Q 3706 609 3251 259 
Q 2797 -91 1919 -91 
Q 1588 -91 1214 -16 
Q 841 59 441 206 
L 441 856 
Q 825 641 1194 531 
Q 1563 422 1919 422 
Q 2459 422 2753 634 
Q 3047 847 3047 1241 
Q 3047 1584 2836 1778 
Q 2625 1972 2144 2069 
L 1759 2144 
Q 1053 2284 737 2584 
Q 422 2884 422 3419 
Q 422 4038 858 4394 
Q 1294 4750 2059 4750 
Q 2388 4750 2728 4690 
Q 3069 4631 3425 4513 
z
" transform="scale(0.015625)"/>
       <path id="DejaVuSans-29" d="M 513 4856 
L 1013 4856 
Q 1481 4119 1714 3412 
Q 1947 2706 1947 2009 
Q 1947 1309 1714 600 
Q 1481 -109 1013 -844 
L 513 -844 
Q 928 -128 1133 580 
Q 1338 1288 1338 2009 
Q 1338 2731 1133 3434 
Q 928 4138 513 4856 
z
" transform="scale(0.015625)"/>
      </defs>
      <use xlink:href="#DejaVuSans-45"/>
      <use xlink:href="#DejaVuSans-44" transform="translate(63.183594 0)"/>
      <use xlink:href="#DejaVuSans-41" transform="translate(138.435547 0)"/>
      <use xlink:href="#DejaVuSans-20" transform="translate(206.84375 0)"/>
      <use xlink:href="#DejaVuSans-28" transform="translate(238.630859 0)"/>
      <use xlink:href="#DejaVuSans-75" transform="translate(277.644531 0)"/>
      <use xlink:href="#DejaVuSans-53" transform="translate(341.023438 0)"/>
      <use xlink:href="#DejaVuSans-29" transform="translate(404.5 0)"/>
     </g>
    </g>
   </g>
   <g id="line2d_29">
    <path d="M 42.205229 102.861815 
L 42.506238 109.145989 
L 43.108256 102.448493 
L 43.409265 104.563238 
L 43.710274 99.627207 
L 44.011284 99.062468 
L 44.312293 101.45359 
L 44.613302 108.345743 
L 44.914311 110.145689 
L 45.21532 108.696614 
L 45.516329 96.966953 
L 45.817338 101.508874 
L 46.118348 101.20367 
L 46.419357 101.124358 
L 46.720366 95.969662 
L 47.021375 94.671965 
L 47.623393 86.143308 
L 47.924402 85.773225 
L 48.225411 91.199481 
L 48.526421 77.357484 
L 49.128439 82.968761 
L 49.429448 82.26224 
L 49.730457 76.165536 
L 50.031466 76.235213 
L 50.332475 73.644676 
L 50.633484 84.771116 
L 50.934494 75.074519 
L 51.235503 77.878984 
L 51.536512 87.167036 
L 51.837521 85.597799 
L 52.13853 85.174842 
L 52.439539 89.214494 
L 52.740548 95.717353 
L 53.041557 83.809858 
L 53.342567 94.275485 
L 53.643576 89.550932 
L 53.944585 86.95076 
L 54.245594 91.850699 
L 54.546603 84.84561 
L 54.847612 81.281791 
L 55.148621 91.225918 
L 55.44963 95.738973 
L 55.75064 85.143587 
L 56.051649 94.965164 
L 56.352658 87.753395 
L 56.653667 95.342453 
L 56.954676 88.957367 
L 57.255685 97.01501 
L 57.857703 93.186857 
L 58.459722 91.233125 
L 58.760731 85.76359 
L 59.06174 94.448482 
L 59.362749 96.291687 
L 59.663758 91.994909 
L 59.964767 95.400145 
L 60.265776 91.406122 
L 60.566786 90.605916 
L 60.867795 85.600188 
L 61.168804 82.716452 
L 61.469813 92.74467 
L 61.770822 96.717033 
L 62.071831 99.165828 
L 62.37284 99.918017 
L 62.673849 103.304002 
L 62.974859 105.046256 
L 63.275868 93.047464 
L 63.576877 92.492361 
L 63.877886 87.907201 
L 64.178895 85.999097 
L 64.479904 83.086535 
L 64.780913 74.233423 
L 65.081922 83.495078 
L 65.683941 75.78104 
L 65.98495 77.405541 
L 66.285959 80.772315 
L 66.586968 76.571651 
L 66.887977 78.669594 
L 67.188986 69.713162 
L 67.489995 73.123176 
L 67.791005 70.691223 
L 68.092014 58.287749 
L 68.393023 65.535551 
L 68.694032 64.158582 
L 69.29605 45.601667 
L 69.597059 45.474298 
L 69.898068 50.355046 
L 70.199078 58.763581 
L 70.500087 60.061238 
L 70.801096 46.404302 
L 71.102105 55.939886 
L 71.403114 51.426832 
L 71.704123 55.084377 
L 72.005132 62.175984 
L 72.607151 45.101827 
L 72.90816 56.281142 
L 73.209169 47.218961 
L 73.510178 54.810448 
L 73.811187 46.937786 
L 74.112196 35.953128 
L 74.413205 58.492001 
L 74.714214 50.009012 
L 75.015224 51.760882 
L 75.316233 50.741931 
L 75.617242 61.277235 
L 75.918251 58.934189 
L 76.21926 53.49352 
L 76.520269 42.15801 
L 77.122287 51.804121 
L 77.423297 43.347529 
L 77.724306 39.63711 
L 78.025315 48.136981 
L 78.326324 45.375756 
L 78.627333 44.926401 
L 78.928342 27.005336 
L 79.53036 49.265463 
L 79.83137 41.371221 
L 80.132379 49.928745 
L 80.433388 44.757227 
L 80.734397 50.428585 
L 81.035406 48.198495 
L 81.336415 47.234848 
L 81.938433 43.54123 
L 82.239443 42.606409 
L 82.540452 46.722983 
L 82.841461 54.655686 
L 83.14247 45.144111 
L 83.443479 43.680623 
L 83.744488 35.565288 
L 84.045497 36.476061 
L 84.346506 43.072605 
L 84.647516 29.456519 
L 84.948525 45.655975 
L 85.249534 31.763532 
L 85.550543 50.281985 
L 85.851552 45.869863 
L 86.152561 43.536413 
L 86.45357 46.874361 
L 86.754579 38.148618 
L 87.055589 46.965697 
L 87.356598 35.925735 
L 87.657607 44.728361 
L 88.259625 26.938048 
L 88.560634 29.999639 
L 88.861643 45.978001 
L 89.162652 36.346303 
L 89.463662 46.408164 
L 89.764671 44.009855 
L 90.06568 47.302135 
L 90.366689 43.726291 
L 90.667698 47.210799 
L 90.968707 39.35259 
L 91.269716 47.071406 
L 91.570725 44.60342 
L 91.871735 49.597084 
L 92.172744 33.114104 
L 92.473753 49.810971 
L 92.774762 42.567987 
L 93.075771 42.897179 
L 93.37678 50.291621 
L 93.677789 46.963268 
L 93.978798 45.677595 
L 94.279808 42.789041 
L 94.580817 49.205382 
L 94.881826 44.257347 
L 95.182835 41.438509 
L 95.483844 37.189788 
L 95.784853 49.037163 
L 96.085862 43.536413 
L 96.386871 46.992134 
L 96.687881 44.79087 
L 96.98889 47.174766 
L 97.289899 33.529815 
L 97.590908 51.010126 
L 97.891917 35.567677 
L 98.192926 48.731979 
L 98.493935 26.692946 
L 98.794944 48.950644 
L 99.095954 53.802566 
L 99.396963 53.696817 
L 99.697972 57.527398 
L 99.998981 51.115875 
L 100.29999 56.489256 
L 100.600999 46.960879 
L 100.902008 51.610937 
L 101.203017 59.471535 
L 101.504027 61.881869 
L 101.805036 65.207792 
L 102.106045 59.139914 
L 102.407054 67.111039 
L 102.708063 68.77643 
L 103.009072 69.708822 
L 103.61109 75.904069 
L 104.514118 81.613889 
L 104.815127 82.512678 
L 105.116136 82.957255 
L 105.417145 85.530989 
L 105.718154 78.348047 
L 106.019163 74.981272 
L 106.320173 82.606403 
L 106.621182 79.931697 
L 106.922191 74.82026 
L 107.2232 74.157018 
L 107.524209 81.582674 
L 107.825218 72.414744 
L 108.126227 75.980992 
L 108.427237 77.809745 
L 108.728246 82.108952 
L 109.029255 79.600076 
L 109.330264 79.672181 
L 109.631274 84.358272 
L 109.932283 72.897782 
L 110.233292 82.803448 
L 110.534301 84.651432 
L 110.83531 87.645735 
L 111.13632 88.765577 
L 111.437329 84.783618 
L 111.738338 89.599467 
L 112.039347 88.039865 
L 112.340356 90.779391 
L 112.942374 86.376903 
L 113.544392 92.598588 
L 113.845402 94.237501 
L 114.146411 92.209275 
L 114.44742 92.846079 
L 114.748429 89.164526 
L 115.049438 74.913985 
L 115.350447 85.220988 
L 115.651456 76.166014 
L 115.952465 81.875834 
L 116.253474 73.969568 
L 116.554484 79.59048 
L 116.855493 82.98847 
L 117.156502 71.705834 
L 117.457511 79.573638 
L 117.75852 75.764716 
L 118.059529 56.957881 
L 118.360538 72.551708 
L 118.661547 71.729843 
L 119.263566 80.926599 
L 119.865584 86.600386 
L 120.166593 85.653541 
L 120.467602 81.738869 
L 120.768611 86.48743 
L 121.370629 91.147084 
L 121.671638 92.96867 
L 121.972647 81.400042 
L 122.273657 88.359462 
L 122.574666 86.13419 
L 122.875675 91.776722 
L 123.176684 87.350147 
L 123.477693 92.129963 
L 123.778702 89.438454 
L 124.079711 85.439653 
L 124.681729 94.665276 
L 124.982739 92.59377 
L 125.283748 86.602775 
L 125.885766 94.576329 
L 126.186775 94.540296 
L 126.487784 93.672762 
L 126.788793 88.741569 
L 127.089802 93.415636 
L 127.390811 90.207485 
L 127.691821 79.780319 
L 127.99283 90.394895 
L 128.293839 80.402711 
L 128.594848 88.395495 
L 128.895857 84.079486 
L 129.196866 66.065691 
L 129.497875 78.295172 
L 129.798884 84.3222 
L 130.099893 82.892356 
L 130.400902 88.150392 
L 130.701912 89.147684 
L 131.002921 88.931408 
L 131.30393 92.514458 
L 131.905948 95.866819 
L 132.206957 94.292765 
L 132.507966 98.003184 
L 132.808975 97.940714 
L 133.109984 100.113152 
L 133.410994 98.632822 
L 133.712003 99.752665 
L 134.013012 101.432448 
L 134.314021 95.167505 
L 134.61503 94.247097 
L 134.916039 98.916386 
L 135.217048 100.937406 
L 135.518057 98.320392 
L 135.819066 98.144966 
L 136.120076 102.545104 
L 136.722094 105.121248 
L 137.324112 107.0966 
L 137.625121 105.207747 
L 137.92613 101.898665 
L 138.528148 107.644517 
L 138.829157 107.666157 
L 139.130167 109.189726 
L 139.431176 109.869809 
L 139.732185 107.418626 
L 140.033194 109.768878 
L 140.635212 111.585646 
L 141.23723 114.084887 
L 141.538239 114.875517 
L 141.839249 113.207758 
L 142.140258 112.479597 
L 142.441267 113.419216 
L 142.742276 115.548394 
L 143.043285 110.191835 
L 143.344294 111.205948 
L 143.645303 111.544796 
L 143.946312 107.985774 
L 144.247321 110.922384 
L 144.548331 107.005284 
L 144.84934 111.042527 
L 145.451358 114.66163 
L 145.752367 112.313787 
L 146.053376 113.195733 
L 146.354385 111.576031 
L 146.655394 111.864412 
L 146.956403 111.917267 
L 147.257412 98.892337 
L 147.558422 105.527363 
L 147.859431 109.480516 
L 149.063467 116.117931 
L 149.364476 117.153684 
L 149.665485 117.201741 
L 149.966494 117.944295 
L 150.267504 115.250397 
L 150.568513 118.165388 
L 150.869522 119.326101 
L 151.170531 119.542378 
L 152.073558 122.462166 
L 152.374567 120.460377 
L 152.675576 120.325802 
L 152.976586 122.414109 
L 153.277595 123.654114 
L 153.879613 125.134444 
L 154.180622 125.2474 
L 155.083649 127.72741 
L 155.384658 127.840365 
L 155.685668 128.784782 
L 156.287686 129.291849 
L 156.889704 130.750539 
L 157.190713 129.534562 
L 157.792731 130.733717 
L 158.09374 133.375715 
L 158.394749 133.503084 
L 158.996768 135.394326 
L 159.297777 135.925421 
L 159.598786 136.172953 
L 159.899795 136.576679 
L 160.200804 136.687206 
L 160.802822 137.059697 
L 161.103831 132.830207 
L 161.404841 135.826899 
L 161.70585 130.758721 
L 162.006859 130.681818 
L 162.608877 135.596189 
L 162.909886 136.40846 
L 163.210895 136.204188 
L 164.113923 137.968081 
L 164.414932 136.506982 
L 165.01695 138.919724 
L 165.317959 139.181649 
L 165.618968 138.028162 
L 165.919977 139.503674 
L 166.220986 139.611812 
L 166.521995 140.630743 
L 166.823004 140.808578 
L 167.124014 141.144997 
L 167.425023 137.319233 
L 167.726032 138.996608 
L 168.027041 137.227916 
L 168.32805 130.686616 
L 168.629059 135.829308 
L 168.930068 137.122187 
L 169.231077 132.909499 
L 169.532086 136.82419 
L 170.134105 138.789947 
L 170.435114 137.415366 
L 170.736123 139.217702 
L 171.338141 141.277183 
L 171.63915 141.856335 
L 172.241168 142.031761 
L 172.542178 137.182248 
L 172.843187 141.010441 
L 173.746214 143.987902 
L 174.047223 141.957267 
L 174.348232 144.004724 
L 174.649241 144.809768 
L 174.95025 145.021246 
L 175.251259 143.459216 
L 175.552269 144.663168 
L 176.154287 145.915197 
L 176.455296 144.494949 
L 176.756305 146.189166 
L 177.057314 146.652953 
L 177.358323 145.165437 
L 177.659332 139.364301 
L 177.960341 139.222499 
L 178.261351 137.84551 
L 178.56236 137.273584 
L 179.164378 142.978587 
L 179.465387 143.82689 
L 179.766396 144.067194 
L 180.067405 135.653862 
L 180.368414 136.418055 
L 180.669423 140.171734 
L 180.970433 141.853926 
L 181.271442 138.737072 
L 181.572451 137.153422 
L 181.87346 137.485043 
L 182.174469 139.962664 
L 182.475478 137.828688 
L 182.776487 140.726857 
L 183.077496 141.464613 
L 183.378505 142.904092 
L 183.679514 143.605796 
L 183.980524 142.983404 
L 184.281533 141.690525 
L 184.582542 141.32524 
L 184.883551 143.800452 
L 185.18456 140.157321 
L 185.485569 143.47122 
L 185.786578 141.986093 
L 186.087587 143.795655 
L 186.388596 140.24143 
L 186.689606 140.640359 
L 186.990615 143.959056 
L 187.291624 144.569463 
L 187.592633 142.613322 
L 187.893642 145.057299 
L 189.097678 149.075311 
L 189.398688 149.36849 
L 189.699697 150.09904 
L 190.000706 150.449891 
L 190.301715 151.192465 
L 190.602724 150.211995 
L 190.903733 151.492851 
L 191.204742 151.375097 
L 191.505751 151.033861 
L 191.80676 151.84852 
L 192.10777 152.314716 
L 192.408779 151.500057 
L 193.311806 153.131784 
L 193.612815 154.081019 
L 193.913824 154.090634 
L 194.214833 152.591074 
L 194.515842 154.585676 
L 194.816851 154.797135 
L 195.117861 150.82718 
L 195.41887 153.948832 
L 195.719879 154.753896 
L 196.020888 152.05759 
L 196.321897 152.302712 
L 196.923915 150.353777 
L 197.525933 153.662879 
L 197.826943 151.886962 
L 198.127952 152.470931 
L 198.72997 155.347461 
L 199.331988 156.255845 
L 199.632997 149.47422 
L 199.934006 149.981286 
L 200.235015 147.210486 
L 200.536025 151.488053 
L 200.837034 153.468223 
L 201.740061 155.770418 
L 202.04107 153.95365 
L 202.342079 150.05578 
L 202.944097 155.066286 
L 203.245106 154.739463 
L 203.546116 156.152505 
L 204.449143 158.236015 
L 204.750152 158.723851 
L 205.051161 153.155813 
L 205.35217 155.20327 
L 205.653179 154.362174 
L 205.954188 156.97437 
L 206.255198 156.673984 
L 206.556207 158.20478 
L 206.857216 154.816366 
L 207.158225 157.877957 
L 207.459234 158.49555 
L 207.760243 159.394319 
L 208.061252 159.72594 
L 208.66327 163.132131 
L 208.96428 162.846158 
L 209.265289 162.130022 
L 209.566298 157.109901 
L 209.867307 156.88401 
L 210.168316 159.635579 
L 210.469325 157.602555 
L 210.770334 157.669842 
L 211.673361 161.276921 
L 211.974371 161.610951 
L 212.576389 161.740729 
L 213.178407 163.211443 
L 213.479416 163.704077 
L 213.780425 164.547562 
L 214.081434 164.547562 
L 214.382443 164.045313 
L 214.683453 164.612461 
L 214.984462 164.667724 
L 215.285471 165.213232 
L 215.58648 165.225257 
L 215.887489 164.263998 
L 216.489507 165.391067 
L 216.790516 166.258601 
L 217.091525 165.189204 
L 217.392535 165.410298 
L 217.693544 164.730214 
L 217.994553 165.669833 
L 218.295562 165.165175 
L 218.596571 165.746736 
L 218.89758 163.386869 
L 219.198589 165.251694 
L 219.499598 159.909548 
L 219.800607 162.951888 
L 220.101616 160.394975 
L 220.402626 163.007171 
L 221.004644 164.823939 
L 221.305653 162.858183 
L 221.907671 165.292544 
L 222.20868 164.182297 
L 223.412717 166.544573 
L 223.713726 161.747935 
L 224.315744 163.576708 
L 224.616753 165.556878 
L 224.917762 166.438824 
L 225.218771 165.821231 
L 225.82079 167.104495 
L 226.121799 165.725097 
L 226.422808 166.957895 
L 227.024826 168.01047 
L 227.325835 167.251074 
L 227.626844 168.231564 
L 227.927853 168.500715 
L 228.228862 169.305758 
L 228.830881 169.087073 
L 229.13189 169.856064 
L 229.432899 169.892117 
L 229.733908 169.500415 
L 230.034917 169.904121 
L 230.335926 169.872886 
L 230.636935 170.44963 
L 231.238953 169.901732 
L 231.539963 164.8023 
L 231.840972 167.65721 
L 232.44299 169.351407 
L 232.743999 168.700169 
L 233.045008 169.058227 
L 233.346017 169.853656 
L 234.249045 170.125215 
L 234.550054 169.353815 
L 234.851063 169.3442 
L 235.152072 170.384751 
L 235.453081 170.091571 
L 235.75409 170.581816 
L 236.055099 171.360422 
L 236.356108 170.99034 
L 236.657117 171.869878 
L 236.958127 171.663217 
L 237.259136 171.896315 
L 237.560145 171.694452 
L 237.861154 172.557168 
L 238.162163 172.600427 
L 238.463172 172.941684 
L 239.06519 173.210834 
L 239.366199 173.746727 
L 239.667208 173.326179 
L 239.968218 173.525633 
L 240.269227 174.049522 
L 240.570236 173.828428 
L 240.871245 174.337884 
L 241.172254 174.150453 
L 241.473263 175.008372 
L 241.774272 174.830537 
L 242.075281 174.950679 
L 242.37629 174.479666 
L 243.580327 175.601937 
L 243.881336 175.640378 
L 244.182345 175.993639 
L 244.784363 176.423803 
L 245.085366 176.394956 
L 245.386375 176.173882 
L 245.687384 176.870788 
L 245.988393 176.933258 
L 246.289402 177.269697 
L 246.590411 177.2 
L 246.89142 177.269697 
L 247.192429 177.517228 
L 247.493438 177.959396 
L 247.794448 178.07474 
L 248.095457 177.625366 
L 248.396466 177.755124 
L 248.697475 178.238162 
L 248.998484 178.190105 
L 250.20252 179.223429 
L 250.503529 179.285919 
L 250.804539 179.550272 
L 251.707566 179.917946 
L 252.309584 180.391349 
L 252.610593 180.040497 
L 252.911602 179.95159 
L 253.212611 180.571592 
L 253.513621 179.927561 
L 253.81463 180.328878 
L 254.115639 180.410579 
L 254.416648 180.747018 
L 254.717657 180.352907 
L 255.018666 181.189186 
L 255.319675 181.59773 
L 255.620684 181.249267 
L 255.921693 181.547264 
L 256.824721 181.840443 
L 257.12573 182.104776 
L 257.426739 181.854856 
L 258.028757 182.104776 
L 258.329766 181.592912 
L 259.533803 182.741601 
L 260.135821 182.796884 
L 260.43683 183.037189 
L 260.737839 183.051622 
L 261.038848 182.554171 
L 261.339857 183.061217 
L 262.242885 183.621159 
L 262.543894 183.613952 
L 262.844903 183.479377 
L 263.446921 183.962395 
L 263.74793 183.72209 
L 264.048939 183.904722 
L 264.349948 184.692944 
L 264.650958 184.637681 
L 264.951967 184.777054 
L 265.553985 184.798673 
L 265.854994 185.187987 
L 266.457012 185.286509 
L 266.758021 185.000537 
L 267.05903 185.411469 
L 267.36004 185.322562 
L 267.962058 186.132423 
L 268.263067 185.947382 
L 268.564076 186.589004 
L 268.865085 186.317465 
L 269.166094 186.464044 
L 269.467103 186.341493 
L 270.069121 186.867771 
L 270.972149 187.023966 
L 271.273158 187.497388 
L 271.574167 187.545445 
L 271.875176 188.042897 
L 272.176185 188.095771 
L 272.477194 188.321663 
L 272.778203 188.081338 
L 273.079213 188.090954 
L 273.380222 188.674923 
L 273.681231 188.561967 
L 273.98224 188.749418 
L 274.283249 190.656049 
L 274.885267 190.75698 
L 275.788295 191.290484 
L 276.089304 191.066981 
L 276.390313 191.328926 
L 276.691322 191.367367 
L 276.992331 191.576457 
L 277.594349 191.566841 
L 277.895358 191.223196 
L 278.798386 191.804737 
L 279.099395 191.718239 
L 279.701413 191.876843 
L 280.002422 191.75668 
L 280.60444 192.532898 
L 280.905449 192.172431 
L 281.507468 192.451177 
L 281.808477 192.821259 
L 282.410495 192.633829 
L 282.711504 193.006301 
L 283.012513 192.814053 
L 283.313522 192.763587 
L 283.91554 193.429258 
L 284.517559 193.477315 
L 284.818568 193.585453 
L 285.119577 192.734761 
L 285.420586 192.883749 
L 285.721595 193.479723 
L 286.323613 193.849806 
L 286.624622 193.770494 
L 286.925631 194.222277 
L 287.52765 193.650332 
L 287.828659 193.693591 
L 288.129668 194.227095 
L 288.430677 194.118957 
L 288.731686 194.255921 
L 289.333704 193.768085 
L 289.935723 194.102135 
L 290.236732 194.630821 
L 290.537741 194.104524 
L 290.83875 194.277561 
L 291.139759 194.058876 
L 291.440768 194.277561 
L 291.741777 194.145394 
L 292.042786 194.839891 
L 292.343795 194.623614 
L 292.644805 194.803838 
L 292.945814 194.676469 
L 293.246823 194.818251 
L 293.547832 194.635619 
L 293.848841 194.618797 
L 294.14985 194.784607 
L 294.751868 194.801429 
L 295.052877 195.159507 
L 295.353887 195.113839 
L 295.654896 195.38299 
L 295.955905 195.137868 
L 296.256914 195.128252 
L 296.557923 195.260439 
L 296.858932 194.669263 
L 297.159941 194.921592 
L 297.761959 194.928798 
L 298.062968 194.871126 
L 298.363978 195.109042 
L 298.965996 195.21718 
L 299.568014 195.640137 
L 299.869023 195.190742 
L 300.471041 195.077787 
L 300.77205 195.164305 
L 301.07306 194.813453 
L 301.675078 195.277261 
L 301.976087 195.003292 
L 302.277096 194.306387 
L 302.578105 194.376083 
L 302.879114 194.575538 
L 303.180123 194.606793 
L 303.481132 195.04896 
L 303.782142 193.311504 
L 304.083151 193.157698 
L 304.38416 191.535586 
L 304.685169 191.9249 
L 304.986178 192.907778 
L 305.287187 193.335533 
L 305.588196 192.705915 
L 305.889205 192.725146 
L 306.190214 193.251423 
L 306.792233 193.438873 
L 307.093242 193.804138 
L 307.69526 193.385998 
L 308.297278 193.640736 
L 308.598287 193.902661 
L 309.501315 193.979564 
L 309.802324 194.63321 
L 310.103333 194.529889 
L 310.404342 193.378792 
L 310.705351 193.503752 
L 311.00636 193.996386 
L 311.307369 193.943531 
L 311.608378 194.452986 
L 311.909387 194.515456 
L 312.210397 194.080495 
L 312.511406 194.517865 
L 312.812415 194.11175 
L 313.113424 194.36167 
L 314.31746 194.688493 
L 314.618469 195.039345 
L 315.220488 194.996086 
L 315.822506 194.222277 
L 316.424524 193.953126 
L 316.725533 194.498635 
L 317.026542 194.277561 
L 317.327551 192.943831 
L 317.92957 193.566242 
L 318.230579 193.547011 
L 318.531588 193.301889 
L 319.133606 193.775312 
L 319.735624 193.989179 
L 320.036633 193.700797 
L 320.337642 190.067281 
L 320.638652 191.143884 
L 320.939661 190.607992 
L 321.24067 190.766595 
L 321.541679 191.237609 
L 321.842688 192.138787 
L 322.143697 191.845588 
L 322.444706 192.708324 
L 322.745715 192.138787 
L 323.046724 192.436764 
L 323.347733 193.44608 
L 323.648743 193.323508 
L 323.949752 193.59027 
L 324.250761 193.602275 
L 324.55177 192.316602 
L 324.852779 192.948628 
L 325.153788 192.480023 
L 325.454797 191.119856 
L 325.755806 190.69451 
L 326.056815 191.240018 
L 326.357825 190.656049 
L 326.658834 191.994596 
L 326.959843 191.84079 
L 327.561861 192.898163 
L 327.86287 192.439173 
L 328.464888 194.044462 
L 328.765897 193.547011 
L 329.066907 194.138168 
L 329.969934 194.702906 
L 330.270943 194.243917 
L 330.872961 194.811045 
L 331.17397 194.553918 
L 331.474979 194.099726 
L 331.775989 194.277561 
L 332.076998 194.907178 
L 332.378007 195.097017 
L 332.679016 195.534387 
L 332.980025 195.630521 
L 333.281034 195.854004 
L 333.883052 195.808336 
L 334.184061 196.135179 
L 334.48507 196.144775 
L 334.78608 196.937814 
L 335.388098 197.082005 
L 335.689107 197.608282 
L 335.990116 197.870226 
L 336.291125 197.872635 
L 336.592134 198.348447 
L 336.893143 198.557517 
L 337.194152 198.283568 
L 337.495162 198.564723 
L 337.796171 199.09341 
L 338.09718 198.997296 
L 338.398189 199.501953 
L 339.000207 199.225576 
L 339.301216 199.896064 
L 339.602225 199.98738 
L 339.903234 200.595359 
L 340.204244 200.626614 
L 340.505253 200.46799 
L 340.806262 200.975057 
L 341.107271 200.830866 
L 341.40828 201.227385 
L 341.709289 201.05196 
L 342.010298 201.088012 
L 342.311307 201.777691 
L 342.612316 201.390807 
L 342.913325 201.818562 
L 343.214335 201.844979 
L 343.515344 201.616699 
L 343.816353 200.537686 
L 344.117362 201.438864 
L 344.418371 201.378783 
L 345.020389 201.900262 
L 345.321398 202.097308 
L 345.622407 202.491419 
L 345.923417 202.210264 
L 346.525435 203.039336 
L 346.826444 202.875934 
L 347.127453 203.053769 
L 347.428462 203.366159 
L 347.729471 203.231584 
L 348.933508 204.171203 
L 349.234517 204.024623 
L 349.535526 204.449969 
L 349.836535 204.498026 
L 350.137544 204.735942 
L 350.438553 204.423532 
L 350.739562 204.851286 
L 351.040571 204.889748 
L 351.34158 205.206956 
L 351.943599 205.579447 
L 352.545617 205.887039 
L 352.846626 205.579447 
L 353.147635 206.019206 
L 353.448644 205.942303 
L 354.050662 206.293174 
L 354.652681 206.550301 
L 354.95369 206.946821 
L 355.254699 206.903561 
L 355.555708 207.040546 
L 355.856717 206.951618 
L 356.458735 207.158299 
L 356.759744 207.458685 
L 357.361763 207.795124 
L 357.662772 207.934497 
L 357.963781 207.15589 
L 358.26479 207.891237 
L 358.565799 207.891237 
L 358.866808 208.275753 
L 359.468826 208.311786 
L 359.769835 208.148384 
L 360.371854 208.487211 
L 360.672863 208.32381 
L 361.274881 208.80203 
L 361.876899 208.835674 
L 362.177908 209.537378 
L 362.478917 209.710414 
L 363.381945 209.217761 
L 363.682954 209.808937 
L 363.983963 209.299482 
L 364.284972 209.148084 
L 364.585981 209.931488 
L 364.88699 209.724828 
L 365.489009 210.263129 
L 365.790018 210.364061 
L 366.091027 210.277542 
L 366.392036 210.626005 
L 366.693045 210.638009 
L 366.994054 210.380883 
L 367.295063 210.683677 
L 367.596072 210.801431 
L 368.198091 210.421733 
L 368.4991 210.474608 
L 368.800109 210.847079 
L 369.402127 210.801431 
L 369.703136 210.296773 
L 370.004145 210.868719 
L 370.305154 210.123736 
L 371.208182 210.337623 
L 371.509191 210.61639 
L 371.8102 209.801731 
L 372.111209 209.611872 
L 372.412218 209.919484 
L 372.713227 209.628694 
L 373.014236 210.020416 
L 373.616254 209.400413 
L 373.917264 208.963043 
L 374.218273 209.270636 
L 374.820291 209.429239 
L 375.1213 209.186526 
L 375.422309 209.633511 
L 375.723318 209.006302 
L 376.024327 209.32351 
L 376.325336 209.333125 
L 376.626346 208.943812 
L 376.927355 209.234583 
L 377.228364 209.179319 
L 377.529373 209.671953 
L 378.131391 208.965432 
L 378.4324 209.34513 
L 379.034418 209.22017 
L 379.335427 208.641018 
L 379.636437 208.792415 
L 379.937446 208.100307 
L 380.539464 208.900553 
L 380.840473 208.242109 
L 381.141482 208.311786 
L 381.442491 207.980165 
L 381.7435 208.275753 
L 382.044509 208.165206 
L 382.345519 208.273344 
L 382.646528 208.727536 
L 382.947537 208.42715 
L 383.248546 208.604965 
L 383.549555 208.484823 
L 384.452582 208.792415 
L 384.753591 208.749156 
L 385.054601 208.480005 
L 385.35561 208.847679 
L 385.656619 208.869318 
L 386.258637 208.218061 
L 386.559646 208.004193 
L 386.860655 207.497127 
L 387.161664 208.398304 
L 387.462673 207.131862 
L 387.763682 207.819152 
L 388.064692 207.670164 
L 388.365701 207.362551 
L 388.66671 207.554799 
L 389.569737 207.607674 
L 389.870746 207.360162 
L 390.171755 208.004193 
L 390.472764 208.102716 
L 390.773774 207.900853 
L 391.074783 208.398304 
L 391.375792 207.992169 
L 391.676801 208.559317 
L 391.97781 208.518466 
L 392.278819 208.660248 
L 392.579828 207.972958 
L 392.880837 207.8648 
L 393.181846 208.191643 
L 393.482856 207.626904 
L 393.783865 208.388689 
L 394.084874 208.53288 
L 394.385883 207.984963 
L 394.686892 208.381482 
L 394.987901 208.32381 
L 395.28891 207.908059 
L 395.890928 207.814354 
L 396.191937 207.13666 
L 396.492947 207.610082 
L 396.793956 207.814354 
L 397.395974 207.715812 
L 397.696983 207.413017 
L 397.997992 208.021015 
L 398.60001 205.536188 
L 399.503038 206.170603 
L 400.105056 206.216271 
L 400.406065 206.487831 
L 400.707074 205.488131 
L 401.309092 205.750055 
L 401.610101 205.728435 
L 402.21212 206.209065 
L 402.513129 205.096409 
L 402.814138 205.716411 
L 403.115147 205.637119 
L 403.416156 205.055558 
L 403.717165 204.96904 
L 404.018174 205.896655 
L 404.319183 205.882242 
L 404.620193 206.069672 
L 404.921202 205.980764 
L 405.222211 206.624795 
L 405.52322 206.233093 
L 405.824229 205.081996 
L 406.125238 205.601067 
L 406.426247 204.579747 
L 406.727256 205.089202 
L 407.028265 204.524463 
L 407.329274 204.973857 
L 407.630284 204.120737 
L 407.931293 204.341831 
L 408.232302 205.03153 
L 408.533311 204.872926 
L 408.83432 204.123146 
L 409.135329 204.690294 
L 409.436338 202.782209 
L 409.737347 204.082295 
L 410.038356 203.959744 
L 410.339366 204.567722 
L 410.640375 202.57314 
L 410.941384 202.565933 
L 411.242393 202.277551 
L 411.543402 198.334034 
L 411.844411 199.814344 
L 412.14542 200.391107 
L 412.446429 197.680388 
L 412.747438 198.276362 
L 413.048448 193.563833 
L 413.650466 196.19524 
L 413.951475 196.197649 
L 414.252484 197.766886 
L 414.553493 198.519075 
L 414.854502 197.560225 
L 415.155511 198.353245 
L 415.45652 198.463792 
L 415.757529 198.802639 
L 416.058539 199.802339 
L 416.359548 200.302179 
L 416.660557 201.049551 
L 417.262575 201.188944 
L 418.165602 201.7801 
L 418.466611 200.866918 
L 418.767621 201.7801 
L 419.06863 201.683986 
L 419.670648 202.532289 
L 419.971657 202.277551 
L 420.272666 202.693282 
L 420.573675 201.9267 
L 420.874684 201.479714 
L 421.175693 199.874425 
L 421.476703 201.227385 
L 421.777712 201.626314 
L 422.078721 201.724837 
L 422.37973 202.354455 
L 422.680739 202.534678 
L 422.981748 203.152292 
L 423.282757 201.429249 
L 423.583766 200.480014 
L 423.884775 200.290175 
L 424.486794 201.59267 
L 424.787803 199.062174 
L 425.088812 200.290175 
L 425.389821 199.86242 
L 425.69083 200.576148 
L 425.991839 200.292564 
L 426.292848 195.544003 
L 426.593857 197.913486 
L 427.195876 199.458694 
L 427.496885 200.088312 
L 427.797894 200.126754 
L 428.098903 199.703817 
L 428.399912 195.149892 
L 428.700921 197.387188 
L 429.00193 196.298581 
L 429.302939 197.271844 
L 429.603948 197.836583 
L 429.904958 193.390796 
L 430.205967 195.599266 
L 430.506976 196.101535 
L 430.807985 195.041754 
L 431.108994 196.808036 
L 431.410003 197.593869 
L 431.711012 193.621505 
L 432.012021 193.501343 
L 432.31303 194.760579 
L 433.216058 197.250224 
L 433.818076 199.574039 
L 434.119085 199.574039 
L 434.721103 199.915275 
L 435.022112 200.609792 
L 435.323121 196.687894 
L 435.624131 185.489348 
L 435.92514 191.312104 
L 436.226149 193.664765 
L 436.527158 193.71523 
L 437.129176 196.192851 
L 437.430185 194.265536 
L 437.731194 191.485121 
L 438.032203 193.638327 
L 438.333213 194.082904 
L 438.634222 195.063374 
L 438.935231 195.414225 
L 439.23624 196.546112 
L 439.537249 196.815263 
L 439.838258 197.55061 
L 440.139267 193.304298 
L 440.440276 195.524772 
L 440.741285 192.472817 
L 441.042295 186.02763 
L 441.343304 190.322019 
L 441.644313 190.805037 
L 441.945322 193.162516 
L 442.246331 185.241817 
L 442.54734 184.963051 
L 442.848349 189.233411 
L 443.450367 191.816762 
L 443.751376 192.982272 
L 444.052386 193.621505 
L 444.353395 194.815862 
L 445.256422 196.079896 
L 445.557431 197.291074 
L 445.85844 197.63472 
L 446.159449 198.480614 
L 446.460458 198.528671 
L 446.761468 198.129762 
L 447.062477 193.640736 
L 447.664495 197.005102 
L 447.965504 195.385399 
L 448.266513 197.327127 
L 448.567522 197.473707 
L 448.868531 197.84138 
L 449.16954 196.524472 
L 449.47055 194.606793 
L 449.771559 197.122855 
L 450.072568 197.108442 
L 450.373577 197.937514 
L 450.674586 195.243617 
L 450.975595 197.009899 
L 451.276604 196.971458 
L 451.878622 198.579136 
L 452.179631 197.992778 
L 452.480641 198.185025 
L 452.78165 193.556627 
L 453.383668 196.630222 
L 453.684677 191.992187 
L 453.985686 194.11175 
L 454.286695 190.675279 
L 454.587704 191.321719 
L 455.189723 194.469808 
L 455.490732 193.984381 
L 455.791741 192.268545 
L 456.09275 193.84019 
L 456.393759 194.772603 
L 456.694768 194.066082 
L 456.995777 194.630821 
L 457.296786 195.688194 
L 457.597795 195.455095 
L 457.898805 196.15439 
L 458.199814 197.139677 
L 458.500823 197.596278 
L 458.801832 197.596278 
L 459.102841 198.052859 
L 459.40385 194.82066 
L 459.704859 195.878033 
L 460.005868 195.44548 
L 460.306877 196.666254 
L 460.908896 197.504942 
L 461.209905 197.605873 
L 461.510914 194.957644 
L 462.112932 196.868117 
L 462.413941 197.343949 
L 462.71495 197.423241 
L 463.316968 198.007211 
L 463.617978 198.622396 
L 463.918987 198.922801 
L 464.219996 198.57193 
L 464.521005 197.40401 
L 464.822014 196.92579 
L 465.123023 195.534387 
L 466.32706 197.949518 
L 466.628069 198.019215 
L 466.929078 198.632011 
L 467.230087 198.115349 
L 467.832105 198.09132 
L 468.434123 199.57163 
L 468.735132 199.694201 
L 469.036141 194.775012 
L 469.337151 197.360771 
L 469.63816 197.509759 
L 469.939169 195.373375 
L 470.240178 197.372775 
L 470.541187 197.94713 
L 470.842196 197.663566 
L 471.444214 194.911976 
L 471.745223 195.356553 
L 472.347242 195.71702 
L 472.648251 195.702607 
L 472.94926 196.478824 
L 473.250269 195.447869 
L 473.551278 196.051069 
L 473.852287 196.101535 
L 474.454305 197.565023 
L 474.755315 197.673161 
L 475.357333 197.36316 
L 475.658342 198.206665 
L 475.959351 198.406119 
L 476.561369 199.338532 
L 476.862378 199.463492 
L 477.163387 199.139078 
L 477.464397 199.936915 
L 478.066415 200.266147 
L 478.367424 200.874125 
L 478.668433 200.727545 
L 478.969442 201.381192 
L 479.270451 201.65514 
L 479.57146 201.496536 
L 479.872469 201.924291 
L 480.173478 201.294673 
L 480.474488 201.100017 
L 480.775497 201.352345 
L 481.076506 200.049851 
L 481.377515 200.665055 
L 481.678524 200.364669 
L 481.979533 201.667164 
L 482.280542 200.749165 
L 482.581551 200.338232 
L 482.88256 200.184426 
L 483.484579 201.378783 
L 483.785588 201.316293 
L 484.086597 201.953137 
L 484.387606 201.981963 
L 484.688615 201.849797 
L 485.290633 202.5515 
L 485.892652 202.928789 
L 486.193661 201.268236 
L 486.795679 202.952837 
L 487.096688 202.409718 
L 487.698706 203.166705 
L 487.999715 202.923991 
L 488.300724 203.048951 
L 488.601733 203.558407 
L 488.902743 203.291665 
L 489.504761 203.846788 
L 489.80577 203.166705 
L 490.106779 203.82276 
L 490.407788 204.079887 
L 490.708797 203.803529 
L 491.009806 203.76027 
L 491.310815 204.401912 
L 491.611825 204.269745 
L 492.213843 204.53167 
L 492.514852 204.498026 
L 492.815861 204.625395 
L 493.417879 205.106024 
L 493.718888 204.61339 
L 494.621916 205.050761 
L 495.524943 205.158899 
L 496.126961 205.653941 
L 496.42797 205.185336 
L 496.728979 201.441273 
L 497.029988 202.481823 
L 497.632007 200.679468 
L 498.234025 202.392896 
L 498.535034 202.188644 
L 498.836043 203.233992 
L 499.137052 203.121037 
L 499.438061 199.835983 
L 499.73907 201.32111 
L 500.04008 202.162207 
L 500.642098 202.465001 
L 500.943107 202.388098 
L 501.244116 202.695691 
L 501.545125 203.173911 
L 501.846134 201.7801 
L 502.147143 202.623605 
L 502.448152 203.020125 
L 502.749162 203.044154 
L 503.050171 203.476706 
L 503.35118 201.626314 
L 503.652189 202.827857 
L 504.254207 202.17662 
L 504.555216 203.01051 
L 504.856225 202.582755 
L 505.458243 203.810736 
L 505.759253 203.971748 
L 506.060262 203.82276 
L 507.264298 204.918574 
L 507.565307 204.911368 
L 507.866316 205.420843 
L 508.769344 205.379973 
L 509.371362 205.889448 
L 509.672371 206.312385 
L 509.97338 206.019206 
L 510.274389 206.581536 
L 510.876407 206.180219 
L 511.478426 206.744958 
L 511.779435 206.704107 
L 512.080444 206.783399 
L 512.381453 206.720929 
L 512.682462 207.393806 
L 512.983471 207.446661 
L 513.585489 207.706196 
L 513.886499 207.862411 
L 514.187508 207.831176 
L 514.488517 208.321401 
L 514.789526 207.980165 
L 515.090535 208.170004 
L 515.391544 208.55211 
L 515.692553 208.32381 
L 515.993562 208.338223 
L 516.294569 208.189234 
L 516.595578 208.72033 
L 516.896587 208.902962 
L 517.197597 208.842881 
L 517.498606 209.150473 
L 517.799615 209.078388 
L 518.100624 209.607074 
L 518.401633 209.633511 
L 518.702642 209.859403 
L 519.003651 209.453268 
L 519.30466 209.787318 
L 519.60567 210.5539 
L 520.207688 210.426531 
L 520.508697 210.943213 
L 520.809706 210.645216 
L 521.110715 211.03212 
L 521.411724 210.909569 
L 521.712734 211.394996 
L 522.013743 211.048942 
L 522.314752 211.30368 
L 522.615761 211.020116 
L 522.91677 211.250805 
L 523.518789 211.236392 
L 523.819798 211.099408 
L 524.120807 211.801131 
L 524.421816 211.500725 
L 524.722825 211.46949 
L 525.324843 211.856395 
L 525.625852 212.034229 
L 525.926862 211.717021 
L 526.227871 212.065464 
L 526.52888 212.598968 
L 527.130898 212.257712 
L 527.431907 212.500426 
L 527.732916 212.560507 
L 528.033926 212.36585 
L 529.538971 213.190125 
L 530.441999 213.021905 
L 530.743008 213.106015 
L 531.044017 213.057958 
L 531.345026 213.194942 
L 531.646035 212.627794 
L 531.947044 212.812836 
L 532.248054 213.235793 
L 532.549063 213.089193 
L 532.850072 212.642208 
L 533.151081 213.300672 
L 533.753099 213.19974 
L 534.054108 212.957026 
L 534.355118 213.34634 
L 534.656127 212.88733 
L 534.957136 213.017108 
L 535.258145 213.543385 
L 535.559154 212.863301 
L 535.860163 212.964233 
L 536.161173 212.913767 
L 536.763191 213.685167 
L 537.0642 212.877715 
L 537.365209 213.291056 
L 537.666218 213.42804 
L 537.967227 213.166096 
L 538.268237 213.192533 
L 538.569246 212.961824 
L 538.870255 213.170914 
L 539.171264 212.776783 
L 539.472273 212.735933 
L 539.773282 212.918585 
L 540.074291 212.711904 
L 540.67631 212.800831 
L 540.977319 212.937796 
L 541.278328 212.86571 
L 541.579337 212.981055 
L 541.880346 212.846479 
L 542.181355 212.570122 
L 542.482365 212.536478 
L 542.783374 212.800831 
L 543.385392 211.993379 
L 543.686401 212.063055 
L 543.98741 212.471599 
L 544.288419 212.055849 
L 544.890438 212.329817 
L 545.191447 212.707106 
L 545.793465 212.067873 
L 546.094474 212.060667 
L 546.395483 212.276943 
L 546.696493 211.717021 
L 546.997502 211.995768 
L 547.298511 211.767487 
L 547.59952 212.067873 
L 547.900529 212.058258 
L 548.201538 212.26253 
L 548.502547 211.748257 
L 548.803557 212.207246 
L 549.104566 211.726637 
L 549.405575 211.868419 
L 550.007593 211.827568 
L 550.308602 211.438255 
L 550.609611 211.798722 
L 551.21163 211.414227 
L 551.512639 211.738641 
L 551.813648 212.276943 
L 552.415666 212.142367 
L 552.716675 212.231275 
L 553.017685 211.849188 
L 553.318694 211.938095 
L 553.619703 211.65694 
L 553.920712 211.940504 
L 554.221721 211.868419 
L 554.52273 212.089493 
L 554.823739 211.659349 
L 555.124749 211.878034 
L 555.425758 211.649734 
L 555.726767 212.002994 
L 556.328785 211.935707 
L 556.930803 212.147165 
L 557.231813 212.440364 
L 557.532822 211.707406 
L 557.833831 211.808338 
L 558.13484 211.560806 
L 558.435849 211.921274 
L 558.736858 211.755463 
L 559.037867 212.055849 
L 559.338877 211.748257 
L 559.639886 212.163987 
L 560.241904 211.815544 
L 560.542913 212.257712 
L 560.843922 211.921274 
L 561.144931 211.784309 
L 561.445941 211.858803 
L 562.047959 211.841982 
L 562.649977 211.902063 
L 562.950986 211.841982 
L 563.251995 211.519956 
L 563.553005 211.849188 
L 563.854014 212.007792 
L 564.155023 211.495928 
L 564.456032 211.630503 
L 564.757041 212.154392 
L 565.05805 212.221679 
L 565.359059 212.173602 
L 565.660069 211.858803 
L 565.961078 211.868419 
L 566.262087 211.724228 
L 566.563096 211.399794 
L 566.864105 211.858803 
L 567.165114 211.851597 
L 567.767133 211.510341 
L 568.068142 211.63771 
L 568.369151 211.42864 
L 568.67016 211.500725 
L 568.971169 211.056149 
L 569.272178 211.445462 
L 569.573187 211.137869 
L 569.874197 211.443053 
L 570.175206 211.140258 
L 570.476215 211.322911 
L 570.777224 210.974448 
L 571.078233 211.147485 
L 571.981261 210.960035 
L 572.583279 210.967241 
L 572.884288 211.137869 
L 573.185297 210.791815 
L 573.787315 210.892747 
L 574.389334 210.51064 
L 574.690343 210.774994 
L 574.991352 210.501045 
L 575.292361 210.767787 
L 575.894379 210.063675 
L 576.195389 210.630803 
L 576.496398 210.613981 
L 576.797407 210.878334 
L 577.399425 210.662038 
L 577.700434 210.943213 
L 578.302453 210.7822 
L 578.904471 210.839872 
L 579.807498 210.873516 
L 580.108507 210.986472 
L 580.409517 210.61639 
L 580.710526 211.486312 
L 581.312544 211.188335 
L 581.613553 211.476697 
L 581.914562 211.140258 
L 582.215571 211.24119 
L 582.516581 211.724228 
L 582.81759 211.748257 
L 583.118599 212.353846 
L 583.419608 212.519656 
L 583.720617 211.995768 
L 584.021626 212.375466 
L 584.322635 211.839573 
L 584.924654 212.918585 
L 585.225663 212.673462 
L 585.526672 212.149574 
L 586.12869 212.978646 
L 586.429699 212.663847 
L 586.730709 213.17812 
L 587.031718 212.771985 
L 587.332727 212.957026 
L 587.633736 212.882532 
L 587.934745 213.166096 
L 588.235754 213.185327 
L 588.536763 213.050751 
L 588.837773 213.146865 
L 589.138782 213.569822 
L 589.439791 213.78371 
L 589.7408 213.480915 
L 590.041809 213.343931 
L 590.342818 213.872617 
L 590.643827 214.100917 
L 590.944837 213.932698 
L 591.245846 214.072071 
L 591.546855 213.829358 
L 592.449882 214.403712 
L 592.750891 214.072071 
L 593.35291 214.458976 
L 593.653919 214.367659 
L 593.954928 214.586345 
L 594.255937 215.026123 
L 594.556946 214.677661 
L 594.857955 214.737742 
L 595.158965 215.057358 
L 595.459974 215.062156 
L 595.760983 214.502235 
L 596.363001 215.34572 
L 596.66401 214.802621 
L 597.567038 215.665337 
L 597.868047 215.542786 
L 598.169056 215.610073 
L 598.470065 215.811936 
L 598.771074 215.352947 
L 599.072083 215.759062 
L 599.674102 215.698981 
L 599.975111 216.016208 
L 600.27612 215.677361 
L 601.179147 216.254104 
L 601.781166 215.99216 
L 602.082175 216.333416 
L 602.383184 216.17961 
L 602.684193 216.552101 
L 602.985202 216.222869 
L 603.286211 216.088294 
L 603.88823 216.914977 
L 604.189239 216.768377 
L 604.490248 217.092792 
L 605.092266 216.650624 
L 605.393275 216.82605 
L 605.694285 217.244189 
L 605.995294 217.385971 
L 606.597312 217.400404 
L 606.898321 217.777693 
L 607.19933 217.059148 
L 607.500339 217.128844 
L 607.801349 216.857285 
L 608.102358 217.03273 
L 608.403367 217.051941 
L 608.704376 217.813746 
L 609.005385 217.258921 
L 609.306394 217.045053 
L 609.607403 217.424751 
L 610.209422 217.580946 
L 610.510431 217.516067 
L 610.81144 217.679469 
L 611.112449 217.693882 
L 611.413458 218.013499 
L 611.714467 217.965442 
L 612.015477 218.150483 
L 612.316486 218.116839 
L 612.617495 217.602566 
L 612.918504 218.131252 
L 613.219513 217.554509 
L 613.821532 218.172102 
L 614.122541 218.083195 
L 614.42355 218.621497 
L 614.724559 218.138479 
L 615.025568 218.592651 
L 615.326577 217.963033 
L 615.627586 218.227386 
L 615.928595 219.034838 
L 616.530614 218.196151 
L 616.831623 218.664756 
L 617.132632 218.643116 
L 617.73465 219.034838 
L 618.035659 218.933907 
L 618.336669 218.501334 
L 618.938687 218.974757 
L 619.239696 218.667165 
L 619.540705 218.628703 
L 619.841714 219.061276 
L 620.142724 218.84498 
L 620.443733 219.279961 
L 620.744742 218.746457 
L 621.045751 218.669554 
L 621.34676 219.068482 
L 621.647769 218.873826 
L 621.948778 218.835384 
L 622.550797 219.3232 
L 622.851806 218.794514 
L 623.152815 219.078098 
L 623.754833 219.034838 
L 624.055842 218.484513 
L 624.356851 218.88583 
L 624.657861 219.042045 
L 624.95887 218.693582 
L 625.560888 218.765688 
L 625.861897 218.664756 
L 626.162906 218.241799 
L 626.463916 218.289856 
L 626.764925 217.934207 
L 627.065934 218.186536 
L 627.366943 218.100017 
L 627.667952 218.157689 
L 627.968961 218.090402 
L 628.26997 217.881332 
L 628.570979 218.095219 
L 628.871989 217.770785 
L 629.172998 217.667465 
L 629.474007 217.893356 
L 629.775016 217.465601 
L 630.076025 217.80204 
L 630.377034 217.609772 
L 630.678043 217.806838 
L 630.979053 217.338233 
L 631.581071 216.948919 
L 631.88208 216.470699 
L 632.183089 216.473108 
L 632.484098 216.80234 
L 633.086117 216.896045 
L 633.387126 216.59327 
L 633.688135 216.453877 
L 633.989144 216.002094 
L 634.591162 215.545493 
L 634.892172 215.874725 
L 635.193181 215.949219 
L 635.49419 215.46859 
L 635.795199 215.46859 
L 636.096208 215.675271 
L 636.397217 215.112941 
L 636.698226 215.341241 
L 636.999235 214.951928 
L 637.601254 214.649133 
L 637.902263 214.90626 
L 638.203272 214.646724 
L 638.504281 214.716421 
L 638.80529 214.622696 
L 639.1063 214.122856 
L 639.708318 214.365569 
L 640.009327 213.865709 
L 640.611345 213.976256 
L 640.912354 213.865709 
L 641.213364 213.976256 
L 641.514373 213.86332 
L 641.815382 213.228885 
L 642.116391 213.498036 
L 642.4174 213.478805 
L 642.718409 213.248115 
L 643.019418 213.334634 
L 643.320427 213.574939 
L 643.922446 213.481214 
L 644.223455 212.976556 
L 644.524464 213.055868 
L 644.825473 212.750664 
L 645.427492 213.284168 
L 645.728501 212.820361 
L 646.330519 212.897264 
L 646.631528 212.688194 
L 646.932537 212.916475 
L 647.233546 212.998195 
L 648.136574 212.262828 
L 648.738592 212.063374 
L 649.039601 212.27965 
L 649.34061 211.486631 
L 649.64162 211.880742 
L 649.942629 211.647643 
L 650.243638 211.830276 
L 651.146665 211.599567 
L 651.447674 211.392906 
L 651.748684 211.659648 
L 652.04969 211.688494 
L 652.350699 211.205456 
L 652.651708 211.594769 
L 653.253727 211.921592 
L 653.554736 211.477015 
L 653.855745 211.289565 
L 654.156754 211.438554 
L 654.758772 210.933916 
L 655.059781 211.21748 
L 655.36079 211.015617 
L 655.6618 211.251124 
L 655.962809 210.748875 
L 656.564827 210.640737 
L 656.865836 211.275152 
L 657.166845 210.441262 
L 657.467854 210.304298 
L 657.768863 210.381181 
L 658.069872 210.136079 
L 658.9729 210.390797 
L 659.273909 210.335533 
L 659.574918 210.027941 
L 659.875927 210.047152 
L 660.176936 210.36197 
L 660.778954 210.38359 
L 661.380973 210.131261 
L 661.681982 210.306687 
L 661.982991 210.611891 
L 662.284 209.941422 
L 662.585009 210.4677 
L 663.187027 209.787616 
L 663.488036 210.128852 
L 663.789045 210.277861 
L 664.391064 210.097617 
L 664.692073 210.38359 
L 664.993082 210.443671 
L 665.294091 210.234602 
L 665.5951 210.628712 
L 665.896109 210.114439 
L 666.197118 210.465291 
L 666.498127 210.181727 
L 666.799137 210.364359 
L 667.100146 209.943831 
L 667.401155 210.431647 
L 668.003173 210.311505 
L 668.605191 210.402821 
L 668.9062 210.152901 
L 669.809228 210.482113 
L 670.110237 210.164905 
L 671.013264 210.414825 
L 671.314273 210.364359 
L 671.615282 210.539805 
L 671.916291 210.998795 
L 672.2173 210.739259 
L 673.120328 210.854604 
L 673.421337 210.823369 
L 673.722346 211.164605 
L 674.023355 210.751264 
L 674.324364 210.960333 
L 674.625373 210.448469 
L 675.528401 211.212662 
L 675.82941 211.082905 
L 676.130419 211.371286 
L 676.732437 211.109342 
L 677.033446 211.010799 
L 677.334455 211.452987 
L 677.635464 211.474607 
L 677.936473 211.380882 
L 678.237483 211.157399 
L 678.538492 211.59236 
L 678.839501 211.498635 
L 679.742528 211.866329 
L 680.043537 211.671672 
L 680.645555 211.909568 
L 680.946565 211.55151 
L 681.247574 212.060965 
L 681.849592 211.945621 
L 682.150601 212.161897 
L 682.45161 211.390497 
L 682.752619 212.183536 
L 683.053628 212.145075 
L 683.354637 212.303679 
L 683.655647 211.945621 
L 684.257665 212.34214 
L 684.558674 212.382991 
L 684.859683 212.070581 
L 685.160692 211.582745 
L 685.76271 212.310905 
L 686.063719 212.332525 
L 686.364729 211.974467 
L 686.966747 211.873535 
L 687.267756 212.298881 
L 687.568765 212.344549 
L 688.170783 212.719429 
L 688.471792 212.145075 
L 688.772801 212.36376 
L 689.07381 211.897564 
L 689.37482 212.032139 
L 689.675829 212.003293 
L 689.976838 211.835074 
L 690.277847 212.219569 
L 690.578856 211.861511 
L 690.879865 212.053759 
L 692.083902 211.520275 
L 692.384911 211.998495 
L 692.68592 211.993677 
L 692.986929 211.630822 
L 693.287938 211.614 
L 693.588947 211.90477 
L 693.889956 211.438554 
L 694.190965 211.534688 
L 695.093993 211.460193 
L 695.395002 211.621206 
L 695.696011 211.205456 
L 696.298029 211.462602 
L 696.599038 211.813454 
L 696.900047 211.479424 
L 697.803075 211.142986 
L 698.104084 211.589951 
L 698.405093 211.544303 
L 698.706102 211.287176 
L 699.007111 211.794223 
L 699.30812 211.294383 
L 699.609129 211.248715 
L 699.910138 211.409728 
L 700.211147 211.162196 
L 700.512157 211.073289 
L 700.813166 211.501044 
L 701.114175 211.469809 
L 701.415184 211.07088 
L 702.017202 210.849806 
L 702.318211 210.919483 
L 702.61922 210.662356 
L 702.920229 210.703207 
L 703.221239 210.917094 
L 703.522248 210.462902 
L 703.823257 210.563834 
L 704.124266 211.09252 
L 704.425275 210.638328 
L 705.027293 210.450878 
L 705.328302 210.881041 
L 705.93032 210.631121 
L 706.23133 210.792114 
L 706.532339 210.777701 
L 706.833348 210.366768 
L 707.736375 210.659948 
L 708.037384 210.38359 
L 709.241421 210.294683 
L 709.843439 210.32112 
L 710.144448 210.330716 
L 710.445457 210.078387 
L 710.746466 210.282659 
L 711.047475 209.975066 
L 711.649494 209.86211 
L 711.950503 209.9246 
L 712.552521 209.753972 
L 713.154539 210.162496 
L 713.455548 209.809256 
L 713.756557 210.157699 
L 714.057566 209.94622 
L 714.358575 209.941422 
L 714.659585 210.068791 
L 715.261603 209.71792 
L 715.562612 209.263747 
L 715.863621 209.996686 
L 716.16463 209.79964 
L 716.465639 209.439173 
L 717.067657 209.751563 
L 717.368667 209.388708 
L 717.669676 209.441562 
L 717.970685 209.624214 
L 718.271694 209.17482 
L 718.572703 209.179638 
L 718.873712 208.944131 
L 719.47573 209.388708 
L 719.776739 209.304598 
L 720.077749 209.388708 
L 720.378758 208.619697 
L 720.679767 209.215671 
L 721.281785 209.083504 
L 721.582794 208.795122 
L 721.883803 209.311804 
L 722.184812 209.239699 
L 722.485821 209.32142 
L 722.786831 208.88405 
L 723.08784 209.093119 
L 723.388849 209.117148 
L 723.689858 208.648543 
L 723.990867 208.989779 
L 724.291876 208.831175 
L 724.592885 209.369477 
L 725.194903 209.179638 
L 725.495912 209.809256 
L 725.796922 208.970548 
L 726.097931 209.443971 
L 726.39894 209.093119 
L 726.699949 209.434356 
L 727.000958 209.124354 
L 727.301967 209.030629 
L 728.807013 209.17482 
L 729.108022 208.881641 
L 729.409031 208.843199 
L 730.011049 209.213282 
L 730.312058 209.225286 
L 730.613067 208.516376 
L 730.914076 208.86241 
L 731.215086 208.790325 
L 731.817104 209.167614 
L 732.118113 209.208464 
L 732.419122 209.018625 
L 732.720131 209.314213 
L 733.02114 209.263747 
L 733.623158 208.975366 
L 734.225177 209.338242 
L 734.827195 209.244517 
L 735.128204 209.431947 
L 735.429213 209.395914 
L 736.031231 209.073889 
L 736.633249 209.595368 
L 736.934259 209.506461 
L 737.235268 209.960653 
L 737.536277 209.371886 
L 738.138295 209.739559 
L 738.439304 209.114739 
L 739.342331 209.722737 
L 739.643341 209.65545 
L 739.94435 209.864519 
L 740.245359 209.809256 
L 740.847377 210.03033 
L 741.148386 209.554518 
L 741.449395 209.460793 
L 741.750404 209.941422 
L 742.051413 209.768385 
L 742.352422 209.833284 
L 742.653432 210.251424 
L 742.954441 210.107233 
L 743.556459 210.114439 
L 743.857468 209.958244 
L 744.158477 210.381181 
L 744.459486 209.929398 
L 744.760495 209.888548 
L 745.061504 210.462902 
L 745.362514 210.148083 
L 745.964532 210.063974 
L 746.265541 210.359562 
L 746.867559 210.376384 
L 747.168568 211.078087 
L 747.469577 210.590271 
L 747.770586 211.078087 
L 748.071596 210.770494 
L 748.372605 211.00841 
L 748.673614 210.837782 
L 748.974623 210.498935 
L 749.275632 210.991588 
L 749.87765 210.768086 
L 750.178659 210.325918 
L 750.479668 210.751264 
L 750.780677 210.65515 
L 751.081687 210.705616 
L 751.382696 211.601975 
L 751.683705 211.191043 
L 751.984714 211.371286 
L 752.285723 211.875924 
L 752.887741 211.553918 
L 753.18875 211.832685 
L 753.489759 211.698109 
L 753.790769 211.861511 
L 754.392787 211.481813 
L 754.693796 211.911977 
L 754.994805 211.950438 
L 755.295814 211.662057 
L 755.897832 212.022524 
L 756.80086 212.318112 
L 757.703887 211.847098 
L 758.004896 212.137868 
L 758.305905 212.197949 
L 758.606914 211.573129 
L 758.907923 211.885539 
L 759.208933 211.911977 
L 759.509942 212.060965 
L 760.11196 212.003293 
L 760.412969 212.164306 
L 760.713978 212.123455 
L 761.014987 212.380582 
L 761.315996 212.827567 
L 761.918014 212.392606 
L 762.520033 212.421432 
L 763.122051 212.757871 
L 763.42306 212.423841 
L 763.724069 212.632911 
L 764.326087 212.553619 
L 764.928106 212.837183 
L 765.229115 212.479124 
L 765.530124 212.510359 
L 765.831133 212.805948 
L 766.132142 212.548801 
L 766.73416 213.221678 
L 767.637188 212.77951 
L 767.938197 212.964551 
L 768.239206 212.80113 
L 768.841224 213.454776 
L 769.142233 213.421132 
L 769.443242 213.517266 
L 770.04526 213.022224 
L 770.346269 213.089512 
L 770.647279 212.959734 
L 771.249297 213.053459 
L 771.550306 213.416335 
L 771.851315 213.500444 
L 772.152324 213.281759 
L 772.453333 213.522064 
L 772.754342 213.070281 
L 773.055351 213.529271 
L 773.356361 213.764778 
L 773.65737 213.180828 
L 773.958379 213.377893 
L 774.259388 213.75998 
L 774.861406 213.507651 
L 775.162415 213.11354 
L 775.463424 213.471598 
L 775.764433 213.284168 
L 776.366452 213.305788 
L 776.667461 213.714312 
L 776.96847 213.452387 
L 777.269479 213.865709 
L 777.570488 213.853705 
L 777.871497 213.707105 
L 778.172506 213.236091 
L 778.473515 213.399513 
L 778.774524 213.776802 
L 779.075534 213.702307 
L 779.376543 213.978665 
L 779.677552 213.860911 
L 780.27957 213.858503 
L 780.881588 213.548501 
L 781.182597 213.596558 
L 781.483606 213.853705 
L 782.386634 213.978665 
L 782.988652 213.361071 
L 783.289661 213.762389 
L 783.59067 213.877733 
L 783.891679 213.856114 
L 784.192688 213.985871 
L 784.493698 213.983463 
L 784.794707 213.61338 
L 785.095716 213.858503 
L 785.396725 213.769595 
L 785.697734 213.075098 
L 785.998743 213.61338 
L 786.299752 213.437954 
L 786.600761 213.853705 
L 786.90177 213.387489 
L 787.202779 214.120447 
L 787.804793 213.86332 
L 788.105802 213.997896 
L 789.610848 214.122856 
L 790.513875 214.30069 
L 790.814884 214.449679 
L 791.115893 214.252613 
L 791.416902 214.605874 
L 791.717912 214.620307 
L 792.018921 214.44727 
L 792.31993 214.975956 
L 792.620939 215.129762 
L 792.921948 214.730834 
L 793.222957 214.999985 
L 793.523966 214.858203 
L 793.824975 214.416035 
L 794.728003 214.502553 
L 795.029012 214.850996 
L 795.330021 214.63472 
L 795.63103 214.610692 
L 795.932039 215.127354 
L 796.233048 215.043244 
L 796.534057 215.233103 
L 796.835066 215.28116 
L 797.136075 214.855794 
L 797.437085 214.836583 
L 797.738094 215.425351 
L 798.039103 214.802939 
L 798.340112 215.261929 
L 798.641121 215.016807 
L 798.94213 215.624805 
L 799.243139 215.612781 
L 799.544148 215.21867 
L 799.845157 215.314804 
L 800.146167 215.785818 
L 800.447176 215.3845 
L 800.748185 215.420533 
L 801.049194 215.273953 
L 801.350203 215.658449 
L 802.855248 216.494727 
L 803.156258 215.949219 
L 803.457267 216.417824 
L 803.758276 216.525982 
L 804.059285 216.48993 
L 804.360294 216.682177 
L 804.661303 216.408229 
L 804.962312 216.629303 
L 805.56433 216.215961 
L 805.86534 216.203957 
L 806.166349 215.675271 
L 806.467358 216.410618 
L 806.768367 215.86511 
L 807.370385 215.559926 
L 807.671394 215.90596 
L 807.972403 214.658748 
L 808.273412 214.110831 
L 808.875431 214.122856 
L 809.17644 214.348747 
L 809.477449 214.118038 
L 810.079467 214.622696 
L 810.681485 214.50976 
L 810.982494 214.435266 
L 811.584513 214.71883 
L 811.885522 214.704417 
L 812.186531 214.514558 
L 812.48754 215.206666 
L 812.788549 214.540995 
L 813.390567 214.67557 
L 813.691576 215.112941 
L 814.594604 213.312994 
L 814.895613 213.433157 
L 815.196622 213.981074 
L 815.497631 213.762389 
L 815.79864 213.764778 
L 816.099649 214.115649 
L 816.701667 214.115649 
L 817.002677 212.98858 
L 817.303686 213.637429 
L 817.604695 213.858503 
L 817.905704 213.865709 
L 818.206713 213.663846 
L 818.507722 213.228885 
L 819.10974 214.110831 
L 819.711759 213.983463 
L 820.313777 214.137269 
L 820.614786 214.173321 
L 820.915795 214.528971 
L 821.216804 214.185326 
L 822.119831 214.295873 
L 822.42084 214.267046 
L 822.72185 214.466501 
L 823.022859 214.920693 
L 823.624877 214.454477 
L 823.925886 214.382391 
L 824.226895 214.574639 
L 824.527904 214.267046 
L 824.828913 214.824559 
L 825.129922 214.28146 
L 825.430932 214.63472 
L 825.731941 213.993078 
L 826.03295 214.569841 
L 826.333959 214.250225 
L 826.935977 214.161297 
L 827.537995 214.158888 
L 827.839004 214.59387 
L 828.140014 214.115649 
L 828.742032 214.11324 
L 829.043041 214.319901 
L 829.34405 214.848587 
L 829.946068 214.911077 
L 830.247077 215.240309 
L 831.150105 214.778911 
L 831.451114 214.807737 
L 831.752123 215.086503 
L 832.053132 215.086503 
L 832.354141 215.204257 
L 832.956159 213.245707 
L 833.257168 212.820361 
L 833.558177 212.909268 
L 833.859187 213.361071 
L 834.160196 213.332225 
L 834.461205 206.420842 
L 834.762214 203.248724 
L 835.063223 202.893055 
L 835.364232 200.391405 
L 835.665241 200.689402 
L 835.96625 200.191951 
L 836.267259 200.331324 
L 836.568269 195.368876 
L 836.869278 194.597476 
L 837.170287 190.440071 
L 837.772305 187.796639 
L 838.073314 188.044171 
L 838.374323 185.153208 
L 838.675332 189.440391 
L 838.976341 190.903878 
L 839.27735 191.000012 
L 839.879369 193.823667 
L 840.180378 195.258349 
L 840.481387 192.997004 
L 840.782396 188.479132 
L 841.384414 194.100044 
L 841.685423 194.549419 
L 841.986432 196.231612 
L 842.588451 198.492936 
L 842.88946 197.471616 
L 843.190469 197.344248 
L 843.792487 199.795431 
L 844.093496 200.225595 
L 844.394505 201.138777 
L 844.695514 201.206064 
L 845.598542 203.426559 
L 845.899551 203.690892 
L 846.20056 204.471907 
L 846.802578 204.779519 
L 847.404596 205.829685 
L 848.006615 205.942621 
L 848.608633 207.398922 
L 848.909642 207.463801 
L 849.210651 207.377283 
L 849.812669 207.728134 
L 850.113678 208.285667 
L 850.414687 208.602875 
L 850.715697 208.468299 
L 851.317715 209.436764 
L 851.618724 209.578546 
L 851.919733 209.57134 
L 853.424779 210.989179 
L 853.725788 210.57104 
L 854.026797 210.974766 
L 854.327806 211.046852 
L 855.230833 211.96726 
L 855.531842 211.986471 
L 855.832851 211.782219 
L 856.133861 211.844689 
L 856.43487 212.286857 
L 856.735879 212.087402 
L 857.036888 212.556008 
L 857.337897 212.781899 
L 857.638906 212.71702 
L 857.939915 212.998195 
L 858.240924 212.594469 
L 858.541933 213.272144 
L 859.143952 213.69749 
L 859.74597 213.990689 
L 860.046979 213.872936 
L 860.347988 214.120447 
L 860.648997 214.115649 
L 860.950006 214.408828 
L 861.251015 214.11324 
L 861.552024 214.267046 
L 861.853034 214.63472 
L 862.154043 215.182637 
L 862.455052 215.028831 
L 862.756061 215.036037 
L 863.358079 215.684886 
L 863.659088 215.850696 
L 863.960097 216.415435 
L 864.261106 215.879543 
L 865.766152 216.408229 
L 866.067161 216.158289 
L 866.36817 216.417824 
L 866.669179 216.932098 
L 866.970188 216.811935 
L 867.873216 216.951328 
L 868.174225 217.556918 
L 868.475234 217.100317 
L 868.776243 217.609772 
L 869.077252 217.71793 
L 869.980279 217.693882 
L 870.281289 217.770785 
L 870.582298 217.691493 
L 870.883307 217.994288 
L 871.184316 217.741959 
L 871.786334 218.285058 
L 872.087343 218.30188 
L 872.388352 218.513359 
L 872.689361 218.17692 
L 873.29138 218.501334 
L 873.592389 218.373966 
L 874.194407 218.897854 
L 874.495416 218.972348 
L 874.796425 218.659938 
L 875.097434 218.530181 
L 875.398443 218.13607 
L 876.000462 218.369168 
L 876.301471 218.133661 
L 876.60248 217.660238 
L 876.903489 217.927 
L 877.204498 217.244508 
L 877.505507 216.179928 
L 877.806516 216.042944 
L 878.107525 215.285958 
L 878.408534 215.302779 
L 878.709544 215.797822 
L 879.010553 215.704097 
L 879.311562 215.773793 
L 879.612571 216.36497 
L 880.214589 216.698999 
L 880.515598 216.778311 
L 880.816607 217.297382 
L 881.117616 217.561715 
L 881.418626 216.65574 
L 881.719635 216.790316 
L 882.020644 215.932397 
L 882.321653 216.602866 
L 882.622662 216.494727 
L 882.923671 215.881932 
L 883.22468 214.516967 
L 883.525689 214.000285 
L 883.826698 214.762089 
L 884.127707 214.348747 
L 884.428717 214.127653 
L 884.729726 214.122856 
L 885.030735 211.164605 
L 885.331744 212.130662 
L 885.632753 211.856713 
L 885.933762 209.328626 
L 886.234771 208.290465 
L 886.836789 209.893365 
L 887.739817 211.436165 
L 888.040826 211.681287 
L 888.341835 212.431048 
L 888.642844 211.6957 
L 888.943853 212.630522 
L 889.244862 212.063374 
L 889.545871 210.804138 
L 889.846881 211.86392 
L 890.14789 212.060965 
L 890.448899 212.870826 
L 890.749908 212.918883 
L 891.050917 212.77951 
L 891.351926 213.082305 
L 891.652935 213.860911 
L 891.953944 213.978665 
L 892.254953 213.870527 
L 892.555963 214.11324 
L 892.856972 214.187735 
L 893.157981 214.59387 
L 893.45899 214.262229 
L 893.759999 214.230994 
L 894.061008 214.932697 
L 894.362017 215.336423 
L 894.663026 213.978665 
L 894.964035 214.146884 
L 895.265044 213.993078 
L 895.566054 214.721238 
L 896.168072 214.778911 
L 896.469081 215.492638 
L 896.77009 215.420533 
L 897.071099 215.473408 
L 897.372108 215.293164 
L 897.673117 215.893956 
L 897.974126 215.90596 
L 898.275136 215.761789 
L 898.877154 216.244807 
L 899.178163 215.607983 
L 899.479172 215.838672 
L 899.780181 214.819761 
L 900.382199 214.980774 
L 900.984218 214.005102 
L 901.586236 214.127653 
L 901.887245 214.11324 
L 902.489263 214.456885 
L 902.790272 214.495327 
L 903.091281 214.2382 
L 903.39229 214.94713 
L 903.693299 214.680368 
L 903.994309 214.130062 
L 904.295318 214.187735 
L 904.596327 214.848587 
L 904.897336 213.772004 
L 905.499354 214.115649 
L 905.800363 214.817352 
L 906.101372 214.853405 
L 906.402381 214.577048 
L 906.703391 214.757271 
L 907.0044 214.25982 
L 907.305409 213.981074 
L 907.907427 214.59387 
L 908.208436 214.158888 
L 908.509445 214.601076 
L 908.810454 213.61338 
L 909.111463 213.997896 
L 909.412473 213.985871 
L 909.713482 212.310905 
L 910.014491 212.157099 
L 910.3155 210.23701 
L 910.616509 209.311804 
L 910.917518 210.330716 
L 911.519536 210.38359 
L 911.820545 211.102135 
L 912.121554 210.657559 
L 912.422564 208.920082 
L 912.723573 206.09161 
L 913.024582 181.656676 
L 913.325591 188.541622 
L 913.6266 176.33376 
L 913.927609 178.172148 
L 914.228618 182.735668 
L 914.529627 181.180844 
L 914.830636 185.19167 
L 915.131646 187.176637 
L 915.432655 186.501371 
L 915.733664 182.264654 
L 916.034673 182.341557 
L 916.335682 186.506169 
L 916.636691 182.279067 
L 916.9377 180.48155 
L 917.238709 185.352662 
L 917.539718 186.662364 
L 917.840728 185.21088 
L 917.840728 185.21088 
" clip-path="url(#p4dc1907e7f)" style="fill: none; stroke: #1d4ed8; stroke-opacity: 0.95; stroke-width: 0.936; stroke-linecap: square"/>
   </g>
   <g id="patch_20">
    <path d="M 42.190938 228.954713 
L 42.190938 17.061433 
" style="fill: none; stroke: #cbd5e1; stroke-width: 0.8; stroke-linejoin: miter; stroke-linecap: square"/>
   </g>
   <g id="patch_21">
    <path d="M 935.353438 228.954713 
L 935.353438 17.061433 
" style="fill: none; stroke: #cbd5e1; stroke-width: 0.8; stroke-linejoin: miter; stroke-linecap: square"/>
   </g>
   <g id="patch_22">
    <path d="M 42.190938 228.954713 
L 935.353438 228.954713 
" style="fill: none; stroke: #cbd5e1; stroke-width: 0.8; stroke-linejoin: miter; stroke-linecap: square"/>
   </g>
   <g id="patch_23">
    <path d="M 42.190938 17.061433 
L 935.353438 17.061433 
" style="fill: none; stroke: #cbd5e1; stroke-width: 0.8; stroke-linejoin: miter; stroke-linecap: square"/>
   </g>
   <g id="text_17">
    <!-- ACC -->
    <g style="fill: #475569" transform="translate(124.24117 13.27875) scale(0.08 -0.08)">
     <defs>
      <path id="DejaVuSans-43" d="M 4122 4306 
L 4122 3641 
Q 3803 3938 3442 4084 
Q 3081 4231 2675 4231 
Q 1875 4231 1450 3742 
Q 1025 3253 1025 2328 
Q 1025 1406 1450 917 
Q 1875 428 2675 428 
Q 3081 428 3442 575 
Q 3803 722 4122 1019 
L 4122 359 
Q 3791 134 3420 21 
Q 3050 -91 2638 -91 
Q 1578 -91 968 557 
Q 359 1206 359 2328 
Q 359 3453 968 4101 
Q 1578 4750 2638 4750 
Q 3056 4750 3426 4639 
Q 3797 4528 4122 4306 
z
" transform="scale(0.015625)"/>
     </defs>
     <use xlink:href="#DejaVuSans-41"/>
     <use xlink:href="#DejaVuSans-43" transform="translate(66.658203 0)"/>
     <use xlink:href="#DejaVuSans-43" transform="translate(136.482422 0)"/>
    </g>
   </g>
   <g id="text_18">
    <!-- OC -->
    <g style="fill: #475569" transform="translate(230.399937 13.27875) scale(0.08 -0.08)">
     <defs>
      <path id="DejaVuSans-4f" d="M 2522 4238 
Q 1834 4238 1429 3725 
Q 1025 3213 1025 2328 
Q 1025 1447 1429 934 
Q 1834 422 2522 422 
Q 3209 422 3611 934 
Q 4013 1447 4013 2328 
Q 4013 3213 3611 3725 
Q 3209 4238 2522 4238 
z
M 2522 4750 
Q 3503 4750 4090 4092 
Q 4678 3434 4678 2328 
Q 4678 1225 4090 567 
Q 3503 -91 2522 -91 
Q 1538 -91 948 565 
Q 359 1222 359 2328 
Q 359 3434 948 4092 
Q 1538 4750 2522 4750 
z
" transform="scale(0.015625)"/>
     </defs>
     <use xlink:href="#DejaVuSans-4f"/>
     <use xlink:href="#DejaVuSans-43" transform="translate(78.710938 0)"/>
    </g>
   </g>
   <g id="text_19">
    <!-- FCS -->
    <g style="fill: #475569" transform="translate(255.799506 13.27875) scale(0.08 -0.08)">
     <defs>
      <path id="DejaVuSans-46" d="M 628 4666 
L 3309 4666 
L 3309 4134 
L 1259 4134 
L 1259 2759 
L 3109 2759 
L 3109 2228 
L 1259 2228 
L 1259 0 
L 628 0 
L 628 4666 
z
" transform="scale(0.015625)"/>
     </defs>
     <use xlink:href="#DejaVuSans-46"/>
     <use xlink:href="#DejaVuSans-43" transform="translate(57.519531 0)"/>
     <use xlink:href="#DejaVuSans-53" transform="translate(127.34375 0)"/>
    </g>
   </g>
   <g id="text_20">
    <!-- SR -->
    <g style="fill: #475569" transform="translate(291.977406 13.27875) scale(0.08 -0.08)">
     <defs>
      <path id="DejaVuSans-52" d="M 2841 2188 
Q 3044 2119 3236 1894 
Q 3428 1669 3622 1275 
L 4263 0 
L 3584 0 
L 2988 1197 
Q 2756 1666 2539 1819 
Q 2322 1972 1947 1972 
L 1259 1972 
L 1259 0 
L 628 0 
L 628 4666 
L 2053 4666 
Q 2853 4666 3247 4331 
Q 3641 3997 3641 3322 
Q 3641 2881 3436 2590 
Q 3231 2300 2841 2188 
z
M 1259 4147 
L 1259 2491 
L 2053 2491 
Q 2509 2491 2742 2702 
Q 2975 2913 2975 3322 
Q 2975 3731 2742 3939 
Q 2509 4147 2053 4147 
L 1259 4147 
z
" transform="scale(0.015625)"/>
     </defs>
     <use xlink:href="#DejaVuSans-53"/>
     <use xlink:href="#DejaVuSans-52" transform="translate(63.476562 0)"/>
    </g>
   </g>
   <g id="text_21">
    <!-- FFC -->
    <g style="fill: #475569" transform="translate(332.795579 13.27875) scale(0.08 -0.08)">
     <use xlink:href="#DejaVuSans-46"/>
     <use xlink:href="#DejaVuSans-46" transform="translate(57.519531 0)"/>
     <use xlink:href="#DejaVuSans-43" transform="translate(115.039062 0)"/>
    </g>
   </g>
   <g id="text_22">
    <!-- SS -->
    <g style="fill: #475569" transform="translate(416.383663 13.27875) scale(0.08 -0.08)">
     <use xlink:href="#DejaVuSans-53"/>
     <use xlink:href="#DejaVuSans-53" transform="translate(63.476562 0)"/>
    </g>
   </g>
   <g id="text_23">
    <!-- OC -->
    <g style="fill: #475569" transform="translate(485.505155 13.27875) scale(0.08 -0.08)">
     <use xlink:href="#DejaVuSans-4f"/>
     <use xlink:href="#DejaVuSans-43" transform="translate(78.710938 0)"/>
    </g>
   </g>
   <g id="text_24">
    <!-- FCS -->
    <g style="fill: #475569" transform="translate(508.647157 13.27875) scale(0.08 -0.08)">
     <use xlink:href="#DejaVuSans-46"/>
     <use xlink:href="#DejaVuSans-43" transform="translate(57.519531 0)"/>
     <use xlink:href="#DejaVuSans-53" transform="translate(127.34375 0)"/>
    </g>
   </g>
   <g id="text_25">
    <!-- SR -->
    <g style="fill: #475569" transform="translate(544.825056 13.27875) scale(0.08 -0.08)">
     <use xlink:href="#DejaVuSans-53"/>
     <use xlink:href="#DejaVuSans-52" transform="translate(63.476562 0)"/>
    </g>
   </g>
   <g id="text_26">
    <!-- FFC -->
    <g style="fill: #475569" transform="translate(585.643229 13.27875) scale(0.08 -0.08)">
     <use xlink:href="#DejaVuSans-46"/>
     <use xlink:href="#DejaVuSans-46" transform="translate(57.519531 0)"/>
     <use xlink:href="#DejaVuSans-43" transform="translate(115.039062 0)"/>
    </g>
   </g>
   <g id="text_27">
    <!-- SS -->
    <g style="fill: #475569" transform="translate(669.231313 13.27875) scale(0.08 -0.08)">
     <use xlink:href="#DejaVuSans-53"/>
     <use xlink:href="#DejaVuSans-53" transform="translate(63.476562 0)"/>
    </g>
   </g>
   <g id="text_28">
    <!-- OC -->
    <g style="fill: #475569" transform="translate(738.352806 13.27875) scale(0.08 -0.08)">
     <use xlink:href="#DejaVuSans-4f"/>
     <use xlink:href="#DejaVuSans-43" transform="translate(78.710938 0)"/>
    </g>
   </g>
   <g id="text_29">
    <!-- FCS -->
    <g style="fill: #475569" transform="translate(761.494807 13.27875) scale(0.08 -0.08)">
     <use xlink:href="#DejaVuSans-46"/>
     <use xlink:href="#DejaVuSans-43" transform="translate(57.519531 0)"/>
     <use xlink:href="#DejaVuSans-53" transform="translate(127.34375 0)"/>
    </g>
   </g>
   <g id="text_30">
    <!-- SR -->
    <g style="fill: #475569" transform="translate(797.672707 13.27875) scale(0.08 -0.08)">
     <use xlink:href="#DejaVuSans-53"/>
     <use xlink:href="#DejaVuSans-52" transform="translate(63.476562 0)"/>
    </g>
   </g>
   <g id="text_31">
    <!-- FFC -->
    <g style="fill: #475569" transform="translate(838.490879 13.27875) scale(0.08 -0.08)">
     <use xlink:href="#DejaVuSans-46"/>
     <use xlink:href="#DejaVuSans-46" transform="translate(57.519531 0)"/>
     <use xlink:href="#DejaVuSans-43" transform="translate(115.039062 0)"/>
    </g>
   </g>
   <g id="text_32">
    <!-- SS -->
    <g style="fill: #475569" transform="translate(885.95787 13.27875) scale(0.08 -0.08)">
     <use xlink:href="#DejaVuSans-53"/>
     <use xlink:href="#DejaVuSans-53" transform="translate(63.476562 0)"/>
    </g>
   </g>
   <g id="legend_1">
    <g id="line2d_30">
     <path d="M 849.174688 27.540183 
L 857.174688 27.540183 
L 865.174688 27.540183 
" style="fill: none; stroke: #1d4ed8; stroke-opacity: 0.95; stroke-width: 1.3; stroke-linecap: square"/>
    </g>
    <g id="text_33">
     <!-- Empatica EDA -->
     <g transform="translate(871.574688 30.340183) scale(0.08 -0.08)">
      <defs>
       <path id="DejaVuSans-6d" d="M 3328 2828 
Q 3544 3216 3844 3400 
Q 4144 3584 4550 3584 
Q 5097 3584 5394 3201 
Q 5691 2819 5691 2113 
L 5691 0 
L 5113 0 
L 5113 2094 
Q 5113 2597 4934 2840 
Q 4756 3084 4391 3084 
Q 3944 3084 3684 2787 
Q 3425 2491 3425 1978 
L 3425 0 
L 2847 0 
L 2847 2094 
Q 2847 2600 2669 2842 
Q 2491 3084 2119 3084 
Q 1678 3084 1418 2786 
Q 1159 2488 1159 1978 
L 1159 0 
L 581 0 
L 581 3500 
L 1159 3500 
L 1159 2956 
Q 1356 3278 1631 3431 
Q 1906 3584 2284 3584 
Q 2666 3584 2933 3390 
Q 3200 3197 3328 2828 
z
" transform="scale(0.015625)"/>
       <path id="DejaVuSans-70" d="M 1159 525 
L 1159 -1331 
L 581 -1331 
L 581 3500 
L 1159 3500 
L 1159 2969 
Q 1341 3281 1617 3432 
Q 1894 3584 2278 3584 
Q 2916 3584 3314 3078 
Q 3713 2572 3713 1747 
Q 3713 922 3314 415 
Q 2916 -91 2278 -91 
Q 1894 -91 1617 61 
Q 1341 213 1159 525 
z
M 3116 1747 
Q 3116 2381 2855 2742 
Q 2594 3103 2138 3103 
Q 1681 3103 1420 2742 
Q 1159 2381 1159 1747 
Q 1159 1113 1420 752 
Q 1681 391 2138 391 
Q 2594 391 2855 752 
Q 3116 1113 3116 1747 
z
" transform="scale(0.015625)"/>
      </defs>
      <use xlink:href="#DejaVuSans-45"/>
      <use xlink:href="#DejaVuSans-6d" transform="translate(63.183594 0)"/>
      <use xlink:href="#DejaVuSans-70" transform="translate(160.595703 0)"/>
      <use xlink:href="#DejaVuSans-61" transform="translate(224.072266 0)"/>
      <use xlink:href="#DejaVuSans-74" transform="translate(285.351562 0)"/>
      <use xlink:href="#DejaVuSans-69" transform="translate(324.560547 0)"/>
      <use xlink:href="#DejaVuSans-63" transform="translate(352.34375 0)"/>
      <use xlink:href="#DejaVuSans-61" transform="translate(407.324219 0)"/>
      <use xlink:href="#DejaVuSans-20" transform="translate(468.603516 0)"/>
      <use xlink:href="#DejaVuSans-45" transform="translate(500.390625 0)"/>
      <use xlink:href="#DejaVuSans-44" transform="translate(563.574219 0)"/>
      <use xlink:href="#DejaVuSans-41" transform="translate(638.826172 0)"/>
     </g>
    </g>
   </g>
  </g>
 </g>
 <defs>
  <clipPath id="p4dc1907e7f">
   <rect x="42.190938" y="17.061433" width="893.1625" height="211.89328"/>
  </clipPath>
 </defs>
</svg>
