<?xml version="1.0" encoding="utf-8" standalone="no"?>
<!DOCTYPE svg PUBLIC "-//W3C//DTD SVG 1.1//EN"
  "http://www.w3.org/Graphics/SVG/1.1/DTD/svg11.dtd">
<svg xmlns:xlink="http://www.w3.org/1999/xlink" width="942.494375pt" height="265.54315pt" viewBox="0 0 942.494375 265.54315" xmlns="http://www.w3.org/2000/svg" version="1.1">
 <metadata>
  <rdf:RDF xmlns:dc="http://purl.org/dc/elements/1.1/" xmlns:cc="http://creativecommons.org/ns#" xmlns:rdf="http://www.w3.org/1999/02/22-rdf-syntax-ns#">
   <cc:Work>
    <dc:type rdf:resource="http://purl.org/dc/dcmitype/StillImage"/>
    <dc:date>2026-04-17T17:29:23.028518</dc:date>
    <dc:format>image/svg+xml</dc:format>
    <dc:creator>
     <cc:Agent>
      <dc:title>Matplotlib v3.10.8, https://matplotlib.org/</dc:title>
     </cc:Agent>
    </dc:creator>
   </cc:Work>
  </rdf:RDF>
 </metadata>
 <defs>
  <style type="text/css">*{stroke-linejoin: round; stroke-linecap: butt}</style>
 </defs>
 <g id="figure_1">
  <g id="patch_1">
   <path d="M 0 265.54315 
L 942.494375 265.54315 
L 942.494375 0 
L 0 0 
z
" style="fill: #ffffff"/>
  </g>
  <g id="axes_1">
   <g id="patch_2">
    <path d="M 45.056875 228.954713 
L 935.294375 228.954713 
L 935.294375 17.061433 
L 45.056875 17.061433 
z
" style="fill: #ffffff"/>
   </g>
   <g id="patch_3">
    <path d="M 45.056875 228.954713 
L 222.962715 228.954713 
L 222.962715 17.061433 
L 45.056875 17.061433 
z
" clip-path="url(#pdc9fb9d4b8)" style="fill: #f8fafc; opacity: 0.45"/>
   </g>
   <g id="patch_4">
    <path d="M 222.962715 228.954713 
L 254.573226 228.954713 
L 254.573226 17.061433 
L 222.962715 17.061433 
z
" clip-path="url(#pdc9fb9d4b8)" style="fill: #eff6ff; opacity: 0.45"/>
   </g>
   <g id="patch_5">
    <path d="M 254.573226 228.954713 
L 277.152163 228.954713 
L 277.152163 17.061433 
L 254.573226 17.061433 
z
" clip-path="url(#pdc9fb9d4b8)" style="fill: #fef3c7; opacity: 0.45"/>
   </g>
   <g id="patch_6">
    <path d="M 277.152163 228.954713 
L 308.762674 228.954713 
L 308.762674 17.061433 
L 277.152163 17.061433 
z
" clip-path="url(#pdc9fb9d4b8)" style="fill: #dcfce7; opacity: 0.45"/>
   </g>
   <g id="patch_7">
    <path d="M 308.762674 228.954713 
L 358.436335 228.954713 
L 358.436335 17.061433 
L 308.762674 17.061433 
z
" clip-path="url(#pdc9fb9d4b8)" style="fill: #fee2e2; opacity: 0.45"/>
   </g>
   <g id="patch_8">
    <path d="M 358.436335 228.954713 
L 367.46791 228.954713 
L 367.46791 17.061433 
L 358.436335 17.061433 
z
" clip-path="url(#pdc9fb9d4b8)" style="fill: #ede9fe; opacity: 0.45"/>
   </g>
   <g id="patch_9">
    <path d="M 367.46791 228.954713 
L 484.878381 228.954713 
L 484.878381 17.061433 
L 367.46791 17.061433 
z
" clip-path="url(#pdc9fb9d4b8)" style="fill: #f8fafc; opacity: 0.45"/>
   </g>
   <g id="patch_10">
    <path d="M 484.878381 228.954713 
L 507.457317 228.954713 
L 507.457317 17.061433 
L 484.878381 17.061433 
z
" clip-path="url(#pdc9fb9d4b8)" style="fill: #eff6ff; opacity: 0.45"/>
   </g>
   <g id="patch_11">
    <path d="M 507.457317 228.954713 
L 530.036254 228.954713 
L 530.036254 17.061433 
L 507.457317 17.061433 
z
" clip-path="url(#pdc9fb9d4b8)" style="fill: #fef3c7; opacity: 0.45"/>
   </g>
   <g id="patch_12">
    <path d="M 530.036254 228.954713 
L 561.646765 228.954713 
L 561.646765 17.061433 
L 530.036254 17.061433 
z
" clip-path="url(#pdc9fb9d4b8)" style="fill: #dcfce7; opacity: 0.45"/>
   </g>
   <g id="patch_13">
    <path d="M 561.646765 228.954713 
L 611.320426 228.954713 
L 611.320426 17.061433 
L 561.646765 17.061433 
z
" clip-path="url(#pdc9fb9d4b8)" style="fill: #fee2e2; opacity: 0.45"/>
   </g>
   <g id="patch_14">
    <path d="M 611.320426 228.954713 
L 620.352001 228.954713 
L 620.352001 17.061433 
L 611.320426 17.061433 
z
" clip-path="url(#pdc9fb9d4b8)" style="fill: #ede9fe; opacity: 0.45"/>
   </g>
   <g id="patch_15">
    <path d="M 620.352001 228.954713 
L 737.762472 228.954713 
L 737.762472 17.061433 
L 620.352001 17.061433 
z
" clip-path="url(#pdc9fb9d4b8)" style="fill: #f8fafc; opacity: 0.45"/>
   </g>
   <g id="patch_16">
    <path d="M 737.762472 228.954713 
L 760.341409 228.954713 
L 760.341409 17.061433 
L 737.762472 17.061433 
z
" clip-path="url(#pdc9fb9d4b8)" style="fill: #eff6ff; opacity: 0.45"/>
   </g>
   <g id="patch_17">
    <path d="M 760.341409 228.954713 
L 782.920345 228.954713 
L 782.920345 17.061433 
L 760.341409 17.061433 
z
" clip-path="url(#pdc9fb9d4b8)" style="fill: #fef3c7; opacity: 0.45"/>
   </g>
   <g id="patch_18">
    <path d="M 782.920345 228.954713 
L 814.530857 228.954713 
L 814.530857 17.061433 
L 782.920345 17.061433 
z
" clip-path="url(#pdc9fb9d4b8)" style="fill: #dcfce7; opacity: 0.45"/>
   </g>
   <g id="patch_19">
    <path d="M 814.530857 228.954713 
L 864.204517 228.954713 
L 864.204517 17.061433 
L 814.530857 17.061433 
z
" clip-path="url(#pdc9fb9d4b8)" style="fill: #fee2e2; opacity: 0.45"/>
   </g>
   <g id="patch_20">
    <path d="M 864.204517 228.954713 
L 873.236092 228.954713 
L 873.236092 17.061433 
L 864.204517 17.061433 
z
" clip-path="url(#pdc9fb9d4b8)" style="fill: #ede9fe; opacity: 0.45"/>
   </g>
   <g id="patch_21">
    <path d="M 873.236092 228.954713 
L 913.878178 228.954713 
L 913.878178 17.061433 
L 873.236092 17.061433 
z
" clip-path="url(#pdc9fb9d4b8)" style="fill: #f8fafc; opacity: 0.45"/>
   </g>
   <g id="patch_22">
    <path d="M 913.878178 228.954713 
L 918.393966 228.954713 
L 918.393966 17.061433 
L 913.878178 17.061433 
z
" clip-path="url(#pdc9fb9d4b8)" style="fill: #eff6ff; opacity: 0.45"/>
   </g>
   <g id="matplotlib.axis_1">
    <g id="xtick_1">
     <g id="line2d_1">
      <path d="M 155.225905 228.954713 
L 155.225905 17.061433 
" clip-path="url(#pdc9fb9d4b8)" style="fill: none; stroke: #eef2f7; stroke-width: 0.55; stroke-linecap: square"/>
     </g>
     <g id="line2d_2">
      <defs>
       <path id="mf3073d998c" d="M 0 0 
L 0 3.5 
" style="stroke: #000000; stroke-width: 0.8"/>
      </defs>
      <g>
       <use xlink:href="#mf3073d998c" x="155.225905" y="228.954713" style="stroke: #000000; stroke-width: 0.8"/>
      </g>
     </g>
     <g id="text_1">
      <!-- 25 -->
      <g transform="translate(149.499655 242.793307) scale(0.09 -0.09)">
       <defs>
        <path id="DejaVuSans-32" d="M 1228 531 
L 3431 531 
L 3431 0 
L 469 0 
L 469 531 
Q 828 903 1448 1529 
Q 2069 2156 2228 2338 
Q 2531 2678 2651 2914 
Q 2772 3150 2772 3378 
Q 2772 3750 2511 3984 
Q 2250 4219 1831 4219 
Q 1534 4219 1204 4116 
Q 875 4013 500 3803 
L 500 4441 
Q 881 4594 1212 4672 
Q 1544 4750 1819 4750 
Q 2544 4750 2975 4387 
Q 3406 4025 3406 3419 
Q 3406 3131 3298 2873 
Q 3191 2616 2906 2266 
Q 2828 2175 2409 1742 
Q 1991 1309 1228 531 
z
" transform="scale(0.015625)"/>
        <path id="DejaVuSans-35" d="M 691 4666 
L 3169 4666 
L 3169 4134 
L 1269 4134 
L 1269 2991 
Q 1406 3038 1543 3061 
Q 1681 3084 1819 3084 
Q 2600 3084 3056 2656 
Q 3513 2228 3513 1497 
Q 3513 744 3044 326 
Q 2575 -91 1722 -91 
Q 1428 -91 1123 -41 
Q 819 9 494 109 
L 494 744 
Q 775 591 1075 516 
Q 1375 441 1709 441 
Q 2250 441 2565 725 
Q 2881 1009 2881 1497 
Q 2881 1984 2565 2268 
Q 2250 2553 1709 2553 
Q 1456 2553 1204 2497 
Q 953 2441 691 2322 
L 691 4666 
z
" transform="scale(0.015625)"/>
       </defs>
       <use xlink:href="#DejaVuSans-32"/>
       <use xlink:href="#DejaVuSans-35" transform="translate(63.623047 0)"/>
      </g>
     </g>
    </g>
    <g id="xtick_2">
     <g id="line2d_3">
      <path d="M 268.120588 228.954713 
L 268.120588 17.061433 
" clip-path="url(#pdc9fb9d4b8)" style="fill: none; stroke: #eef2f7; stroke-width: 0.55; stroke-linecap: square"/>
     </g>
     <g id="line2d_4">
      <g>
       <use xlink:href="#mf3073d998c" x="268.120588" y="228.954713" style="stroke: #000000; stroke-width: 0.8"/>
      </g>
     </g>
     <g id="text_2">
      <!-- 50 -->
      <g transform="translate(262.394338 242.793307) scale(0.09 -0.09)">
       <defs>
        <path id="DejaVuSans-30" d="M 2034 4250 
Q 1547 4250 1301 3770 
Q 1056 3291 1056 2328 
Q 1056 1369 1301 889 
Q 1547 409 2034 409 
Q 2525 409 2770 889 
Q 3016 1369 3016 2328 
Q 3016 3291 2770 3770 
Q 2525 4250 2034 4250 
z
M 2034 4750 
Q 2819 4750 3233 4129 
Q 3647 3509 3647 2328 
Q 3647 1150 3233 529 
Q 2819 -91 2034 -91 
Q 1250 -91 836 529 
Q 422 1150 422 2328 
Q 422 3509 836 4129 
Q 1250 4750 2034 4750 
z
" transform="scale(0.015625)"/>
       </defs>
       <use xlink:href="#DejaVuSans-35"/>
       <use xlink:href="#DejaVuSans-30" transform="translate(63.623047 0)"/>
      </g>
     </g>
    </g>
    <g id="xtick_3">
     <g id="line2d_5">
      <path d="M 381.015272 228.954713 
L 381.015272 17.061433 
" clip-path="url(#pdc9fb9d4b8)" style="fill: none; stroke: #eef2f7; stroke-width: 0.55; stroke-linecap: square"/>
     </g>
     <g id="line2d_6">
      <g>
       <use xlink:href="#mf3073d998c" x="381.015272" y="228.954713" style="stroke: #000000; stroke-width: 0.8"/>
      </g>
     </g>
     <g id="text_3">
      <!-- 75 -->
      <g transform="translate(375.289022 242.793307) scale(0.09 -0.09)">
       <defs>
        <path id="DejaVuSans-37" d="M 525 4666 
L 3525 4666 
L 3525 4397 
L 1831 0 
L 1172 0 
L 2766 4134 
L 525 4134 
L 525 4666 
z
" transform="scale(0.015625)"/>
       </defs>
       <use xlink:href="#DejaVuSans-37"/>
       <use xlink:href="#DejaVuSans-35" transform="translate(63.623047 0)"/>
      </g>
     </g>
    </g>
    <g id="xtick_4">
     <g id="line2d_7">
      <path d="M 493.909955 228.954713 
L 493.909955 17.061433 
" clip-path="url(#pdc9fb9d4b8)" style="fill: none; stroke: #eef2f7; stroke-width: 0.55; stroke-linecap: square"/>
     </g>
     <g id="line2d_8">
      <g>
       <use xlink:href="#mf3073d998c" x="493.909955" y="228.954713" style="stroke: #000000; stroke-width: 0.8"/>
      </g>
     </g>
     <g id="text_4">
      <!-- 100 -->
      <g transform="translate(485.32058 242.793307) scale(0.09 -0.09)">
       <defs>
        <path id="DejaVuSans-31" d="M 794 531 
L 1825 531 
L 1825 4091 
L 703 3866 
L 703 4441 
L 1819 4666 
L 2450 4666 
L 2450 531 
L 3481 531 
L 3481 0 
L 794 0 
L 794 531 
z
" transform="scale(0.015625)"/>
       </defs>
       <use xlink:href="#DejaVuSans-31"/>
       <use xlink:href="#DejaVuSans-30" transform="translate(63.623047 0)"/>
       <use xlink:href="#DejaVuSans-30" transform="translate(127.246094 0)"/>
      </g>
     </g>
    </g>
    <g id="xtick_5">
     <g id="line2d_9">
      <path d="M 606.804639 228.954713 
L 606.804639 17.061433 
" clip-path="url(#pdc9fb9d4b8)" style="fill: none; stroke: #eef2f7; stroke-width: 0.55; stroke-linecap: square"/>
     </g>
     <g id="line2d_10">
      <g>
       <use xlink:href="#mf3073d998c" x="606.804639" y="228.954713" style="stroke: #000000; stroke-width: 0.8"/>
      </g>
     </g>
     <g id="text_5">
      <!-- 125 -->
      <g transform="translate(598.215264 242.793307) scale(0.09 -0.09)">
       <use xlink:href="#DejaVuSans-31"/>
       <use xlink:href="#DejaVuSans-32" transform="translate(63.623047 0)"/>
       <use xlink:href="#DejaVuSans-35" transform="translate(127.246094 0)"/>
      </g>
     </g>
    </g>
    <g id="xtick_6">
     <g id="line2d_11">
      <path d="M 719.699323 228.954713 
L 719.699323 17.061433 
" clip-path="url(#pdc9fb9d4b8)" style="fill: none; stroke: #eef2f7; stroke-width: 0.55; stroke-linecap: square"/>
     </g>
     <g id="line2d_12">
      <g>
       <use xlink:href="#mf3073d998c" x="719.699323" y="228.954713" style="stroke: #000000; stroke-width: 0.8"/>
      </g>
     </g>
     <g id="text_6">
      <!-- 150 -->
      <g transform="translate(711.109948 242.793307) scale(0.09 -0.09)">
       <use xlink:href="#DejaVuSans-31"/>
       <use xlink:href="#DejaVuSans-35" transform="translate(63.623047 0)"/>
       <use xlink:href="#DejaVuSans-30" transform="translate(127.246094 0)"/>
      </g>
     </g>
    </g>
    <g id="xtick_7">
     <g id="line2d_13">
      <path d="M 832.594006 228.954713 
L 832.594006 17.061433 
" clip-path="url(#pdc9fb9d4b8)" style="fill: none; stroke: #eef2f7; stroke-width: 0.55; stroke-linecap: square"/>
     </g>
     <g id="line2d_14">
      <g>
       <use xlink:href="#mf3073d998c" x="832.594006" y="228.954713" style="stroke: #000000; stroke-width: 0.8"/>
      </g>
     </g>
     <g id="text_7">
      <!-- 175 -->
      <g transform="translate(824.004631 242.793307) scale(0.09 -0.09)">
       <use xlink:href="#DejaVuSans-31"/>
       <use xlink:href="#DejaVuSans-37" transform="translate(63.623047 0)"/>
       <use xlink:href="#DejaVuSans-35" transform="translate(127.246094 0)"/>
      </g>
     </g>
    </g>
    <g id="text_8">
     <!-- Minutes since session start -->
     <g transform="translate(422.585781 256.263463) scale(0.1 -0.1)">
      <defs>
       <path id="DejaVuSans-4d" d="M 628 4666 
L 1569 4666 
L 2759 1491 
L 3956 4666 
L 4897 4666 
L 4897 0 
L 4281 0 
L 4281 4097 
L 3078 897 
L 2444 897 
L 1241 4097 
L 1241 0 
L 628 0 
L 628 4666 
z
" transform="scale(0.015625)"/>
       <path id="DejaVuSans-69" d="M 603 3500 
L 1178 3500 
L 1178 0 
L 603 0 
L 603 3500 
z
M 603 4863 
L 1178 4863 
L 1178 4134 
L 603 4134 
L 603 4863 
z
" transform="scale(0.015625)"/>
       <path id="DejaVuSans-6e" d="M 3513 2113 
L 3513 0 
L 2938 0 
L 2938 2094 
Q 2938 2591 2744 2837 
Q 2550 3084 2163 3084 
Q 1697 3084 1428 2787 
Q 1159 2491 1159 1978 
L 1159 0 
L 581 0 
L 581 3500 
L 1159 3500 
L 1159 2956 
Q 1366 3272 1645 3428 
Q 1925 3584 2291 3584 
Q 2894 3584 3203 3211 
Q 3513 2838 3513 2113 
z
" transform="scale(0.015625)"/>
       <path id="DejaVuSans-75" d="M 544 1381 
L 544 3500 
L 1119 3500 
L 1119 1403 
Q 1119 906 1312 657 
Q 1506 409 1894 409 
Q 2359 409 2629 706 
Q 2900 1003 2900 1516 
L 2900 3500 
L 3475 3500 
L 3475 0 
L 2900 0 
L 2900 538 
Q 2691 219 2414 64 
Q 2138 -91 1772 -91 
Q 1169 -91 856 284 
Q 544 659 544 1381 
z
M 1991 3584 
L 1991 3584 
z
" transform="scale(0.015625)"/>
       <path id="DejaVuSans-74" d="M 1172 4494 
L 1172 3500 
L 2356 3500 
L 2356 3053 
L 1172 3053 
L 1172 1153 
Q 1172 725 1289 603 
Q 1406 481 1766 481 
L 2356 481 
L 2356 0 
L 1766 0 
Q 1100 0 847 248 
Q 594 497 594 1153 
L 594 3053 
L 172 3053 
L 172 3500 
L 594 3500 
L 594 4494 
L 1172 4494 
z
" transform="scale(0.015625)"/>
       <path id="DejaVuSans-65" d="M 3597 1894 
L 3597 1613 
L 953 1613 
Q 991 1019 1311 708 
Q 1631 397 2203 397 
Q 2534 397 2845 478 
Q 3156 559 3463 722 
L 3463 178 
Q 3153 47 2828 -22 
Q 2503 -91 2169 -91 
Q 1331 -91 842 396 
Q 353 884 353 1716 
Q 353 2575 817 3079 
Q 1281 3584 2069 3584 
Q 2775 3584 3186 3129 
Q 3597 2675 3597 1894 
z
M 3022 2063 
Q 3016 2534 2758 2815 
Q 2500 3097 2075 3097 
Q 1594 3097 1305 2825 
Q 1016 2553 972 2059 
L 3022 2063 
z
" transform="scale(0.015625)"/>
       <path id="DejaVuSans-73" d="M 2834 3397 
L 2834 2853 
Q 2591 2978 2328 3040 
Q 2066 3103 1784 3103 
Q 1356 3103 1142 2972 
Q 928 2841 928 2578 
Q 928 2378 1081 2264 
Q 1234 2150 1697 2047 
L 1894 2003 
Q 2506 1872 2764 1633 
Q 3022 1394 3022 966 
Q 3022 478 2636 193 
Q 2250 -91 1575 -91 
Q 1294 -91 989 -36 
Q 684 19 347 128 
L 347 722 
Q 666 556 975 473 
Q 1284 391 1588 391 
Q 1994 391 2212 530 
Q 2431 669 2431 922 
Q 2431 1156 2273 1281 
Q 2116 1406 1581 1522 
L 1381 1569 
Q 847 1681 609 1914 
Q 372 2147 372 2553 
Q 372 3047 722 3315 
Q 1072 3584 1716 3584 
Q 2034 3584 2315 3537 
Q 2597 3491 2834 3397 
z
" transform="scale(0.015625)"/>
       <path id="DejaVuSans-20" transform="scale(0.015625)"/>
       <path id="DejaVuSans-63" d="M 3122 3366 
L 3122 2828 
Q 2878 2963 2633 3030 
Q 2388 3097 2138 3097 
Q 1578 3097 1268 2742 
Q 959 2388 959 1747 
Q 959 1106 1268 751 
Q 1578 397 2138 397 
Q 2388 397 2633 464 
Q 2878 531 3122 666 
L 3122 134 
Q 2881 22 2623 -34 
Q 2366 -91 2075 -91 
Q 1284 -91 818 406 
Q 353 903 353 1747 
Q 353 2603 823 3093 
Q 1294 3584 2113 3584 
Q 2378 3584 2631 3529 
Q 2884 3475 3122 3366 
z
" transform="scale(0.015625)"/>
       <path id="DejaVuSans-6f" d="M 1959 3097 
Q 1497 3097 1228 2736 
Q 959 2375 959 1747 
Q 959 1119 1226 758 
Q 1494 397 1959 397 
Q 2419 397 2687 759 
Q 2956 1122 2956 1747 
Q 2956 2369 2687 2733 
Q 2419 3097 1959 3097 
z
M 1959 3584 
Q 2709 3584 3137 3096 
Q 3566 2609 3566 1747 
Q 3566 888 3137 398 
Q 2709 -91 1959 -91 
Q 1206 -91 779 398 
Q 353 888 353 1747 
Q 353 2609 779 3096 
Q 1206 3584 1959 3584 
z
" transform="scale(0.015625)"/>
       <path id="DejaVuSans-61" d="M 2194 1759 
Q 1497 1759 1228 1600 
Q 959 1441 959 1056 
Q 959 750 1161 570 
Q 1363 391 1709 391 
Q 2188 391 2477 730 
Q 2766 1069 2766 1631 
L 2766 1759 
L 2194 1759 
z
M 3341 1997 
L 3341 0 
L 2766 0 
L 2766 531 
Q 2569 213 2275 61 
Q 1981 -91 1556 -91 
Q 1019 -91 701 211 
Q 384 513 384 1019 
Q 384 1609 779 1909 
Q 1175 2209 1959 2209 
L 2766 2209 
L 2766 2266 
Q 2766 2663 2505 2880 
Q 2244 3097 1772 3097 
Q 1472 3097 1187 3025 
Q 903 2953 641 2809 
L 641 3341 
Q 956 3463 1253 3523 
Q 1550 3584 1831 3584 
Q 2591 3584 2966 3190 
Q 3341 2797 3341 1997 
z
" transform="scale(0.015625)"/>
       <path id="DejaVuSans-72" d="M 2631 2963 
Q 2534 3019 2420 3045 
Q 2306 3072 2169 3072 
Q 1681 3072 1420 2755 
Q 1159 2438 1159 1844 
L 1159 0 
L 581 0 
L 581 3500 
L 1159 3500 
L 1159 2956 
Q 1341 3275 1631 3429 
Q 1922 3584 2338 3584 
Q 2397 3584 2469 3576 
Q 2541 3569 2628 3553 
L 2631 2963 
z
" transform="scale(0.015625)"/>
      </defs>
      <use xlink:href="#DejaVuSans-4d"/>
      <use xlink:href="#DejaVuSans-69" transform="translate(86.279297 0)"/>
      <use xlink:href="#DejaVuSans-6e" transform="translate(114.0625 0)"/>
      <use xlink:href="#DejaVuSans-75" transform="translate(177.441406 0)"/>
      <use xlink:href="#DejaVuSans-74" transform="translate(240.820312 0)"/>
      <use xlink:href="#DejaVuSans-65" transform="translate(280.029297 0)"/>
      <use xlink:href="#DejaVuSans-73" transform="translate(341.552734 0)"/>
      <use xlink:href="#DejaVuSans-20" transform="translate(393.652344 0)"/>
      <use xlink:href="#DejaVuSans-73" transform="translate(425.439453 0)"/>
      <use xlink:href="#DejaVuSans-69" transform="translate(477.539062 0)"/>
      <use xlink:href="#DejaVuSans-6e" transform="translate(505.322266 0)"/>
      <use xlink:href="#DejaVuSans-63" transform="translate(568.701172 0)"/>
      <use xlink:href="#DejaVuSans-65" transform="translate(623.681641 0)"/>
      <use xlink:href="#DejaVuSans-20" transform="translate(685.205078 0)"/>
      <use xlink:href="#DejaVuSans-73" transform="translate(716.992188 0)"/>
      <use xlink:href="#DejaVuSans-65" transform="translate(769.091797 0)"/>
      <use xlink:href="#DejaVuSans-73" transform="translate(830.615234 0)"/>
      <use xlink:href="#DejaVuSans-73" transform="translate(882.714844 0)"/>
      <use xlink:href="#DejaVuSans-69" transform="translate(934.814453 0)"/>
      <use xlink:href="#DejaVuSans-6f" transform="translate(962.597656 0)"/>
      <use xlink:href="#DejaVuSans-6e" transform="translate(1023.779297 0)"/>
      <use xlink:href="#DejaVuSans-20" transform="translate(1087.158203 0)"/>
      <use xlink:href="#DejaVuSans-73" transform="translate(1118.945312 0)"/>
      <use xlink:href="#DejaVuSans-74" transform="translate(1171.044922 0)"/>
      <use xlink:href="#DejaVuSans-61" transform="translate(1210.253906 0)"/>
      <use xlink:href="#DejaVuSans-72" transform="translate(1271.533203 0)"/>
      <use xlink:href="#DejaVuSans-74" transform="translate(1312.646484 0)"/>
     </g>
    </g>
   </g>
   <g id="matplotlib.axis_2">
    <g id="ytick_1">
     <g id="line2d_15">
      <path d="M 45.056875 219.3232 
L 935.294375 219.3232 
" clip-path="url(#pdc9fb9d4b8)" style="fill: none; stroke: #eef2f7; stroke-opacity: 0.25; stroke-width: 0.55; stroke-linecap: square"/>
     </g>
     <g id="line2d_16">
      <defs>
       <path id="m823663cffa" d="M 0 0 
L -3.5 0 
" style="stroke: #000000; stroke-width: 0.8"/>
      </defs>
      <g>
       <use xlink:href="#m823663cffa" x="45.056875" y="219.3232" style="stroke: #000000; stroke-width: 0.8"/>
      </g>
     </g>
     <g id="text_9">
      <!-- 0 -->
      <g transform="translate(32.330625 222.742497) scale(0.09 -0.09)">
       <use xlink:href="#DejaVuSans-30"/>
      </g>
     </g>
    </g>
    <g id="ytick_2">
     <g id="line2d_17">
      <path d="M 45.056875 180.797149 
L 935.294375 180.797149 
" clip-path="url(#pdc9fb9d4b8)" style="fill: none; stroke: #eef2f7; stroke-opacity: 0.25; stroke-width: 0.55; stroke-linecap: square"/>
     </g>
     <g id="line2d_18">
      <g>
       <use xlink:href="#m823663cffa" x="45.056875" y="180.797149" style="stroke: #000000; stroke-width: 0.8"/>
      </g>
     </g>
     <g id="text_10">
      <!-- 50 -->
      <g transform="translate(26.604375 184.216446) scale(0.09 -0.09)">
       <use xlink:href="#DejaVuSans-35"/>
       <use xlink:href="#DejaVuSans-30" transform="translate(63.623047 0)"/>
      </g>
     </g>
    </g>
    <g id="ytick_3">
     <g id="line2d_19">
      <path d="M 45.056875 142.271098 
L 935.294375 142.271098 
" clip-path="url(#pdc9fb9d4b8)" style="fill: none; stroke: #eef2f7; stroke-opacity: 0.25; stroke-width: 0.55; stroke-linecap: square"/>
     </g>
     <g id="line2d_20">
      <g>
       <use xlink:href="#m823663cffa" x="45.056875" y="142.271098" style="stroke: #000000; stroke-width: 0.8"/>
      </g>
     </g>
     <g id="text_11">
      <!-- 100 -->
      <g transform="translate(20.878125 145.690395) scale(0.09 -0.09)">
       <use xlink:href="#DejaVuSans-31"/>
       <use xlink:href="#DejaVuSans-30" transform="translate(63.623047 0)"/>
       <use xlink:href="#DejaVuSans-30" transform="translate(127.246094 0)"/>
      </g>
     </g>
    </g>
    <g id="ytick_4">
     <g id="line2d_21">
      <path d="M 45.056875 103.745047 
L 935.294375 103.745047 
" clip-path="url(#pdc9fb9d4b8)" style="fill: none; stroke: #eef2f7; stroke-opacity: 0.25; stroke-width: 0.55; stroke-linecap: square"/>
     </g>
     <g id="line2d_22">
      <g>
       <use xlink:href="#m823663cffa" x="45.056875" y="103.745047" style="stroke: #000000; stroke-width: 0.8"/>
      </g>
     </g>
     <g id="text_12">
      <!-- 150 -->
      <g transform="translate(20.878125 107.164344) scale(0.09 -0.09)">
       <use xlink:href="#DejaVuSans-31"/>
       <use xlink:href="#DejaVuSans-35" transform="translate(63.623047 0)"/>
       <use xlink:href="#DejaVuSans-30" transform="translate(127.246094 0)"/>
      </g>
     </g>
    </g>
    <g id="ytick_5">
     <g id="line2d_23">
      <path d="M 45.056875 65.218996 
L 935.294375 65.218996 
" clip-path="url(#pdc9fb9d4b8)" style="fill: none; stroke: #eef2f7; stroke-opacity: 0.25; stroke-width: 0.55; stroke-linecap: square"/>
     </g>
     <g id="line2d_24">
      <g>
       <use xlink:href="#m823663cffa" x="45.056875" y="65.218996" style="stroke: #000000; stroke-width: 0.8"/>
      </g>
     </g>
     <g id="text_13">
      <!-- 200 -->
      <g transform="translate(20.878125 68.638293) scale(0.09 -0.09)">
       <use xlink:href="#DejaVuSans-32"/>
       <use xlink:href="#DejaVuSans-30" transform="translate(63.623047 0)"/>
       <use xlink:href="#DejaVuSans-30" transform="translate(127.246094 0)"/>
      </g>
     </g>
    </g>
    <g id="ytick_6">
     <g id="line2d_25">
      <path d="M 45.056875 26.692946 
L 935.294375 26.692946 
" clip-path="url(#pdc9fb9d4b8)" style="fill: none; stroke: #eef2f7; stroke-opacity: 0.25; stroke-width: 0.55; stroke-linecap: square"/>
     </g>
     <g id="line2d_26">
      <g>
       <use xlink:href="#m823663cffa" x="45.056875" y="26.692946" style="stroke: #000000; stroke-width: 0.8"/>
      </g>
     </g>
     <g id="text_14">
      <!-- 250 -->
      <g transform="translate(20.878125 30.112242) scale(0.09 -0.09)">
       <use xlink:href="#DejaVuSans-32"/>
       <use xlink:href="#DejaVuSans-35" transform="translate(63.623047 0)"/>
       <use xlink:href="#DejaVuSans-30" transform="translate(127.246094 0)"/>
      </g>
     </g>
    </g>
    <g id="text_15">
     <!-- Heart rate (BPM) -->
     <g transform="translate(14.798438 164.919792) rotate(-90) scale(0.1 -0.1)">
      <defs>
       <path id="DejaVuSans-48" d="M 628 4666 
L 1259 4666 
L 1259 2753 
L 3553 2753 
L 3553 4666 
L 4184 4666 
L 4184 0 
L 3553 0 
L 3553 2222 
L 1259 2222 
L 1259 0 
L 628 0 
L 628 4666 
z
" transform="scale(0.015625)"/>
       <path id="DejaVuSans-28" d="M 1984 4856 
Q 1566 4138 1362 3434 
Q 1159 2731 1159 2009 
Q 1159 1288 1364 580 
Q 1569 -128 1984 -844 
L 1484 -844 
Q 1016 -109 783 600 
Q 550 1309 550 2009 
Q 550 2706 781 3412 
Q 1013 4119 1484 4856 
L 1984 4856 
z
" transform="scale(0.015625)"/>
       <path id="DejaVuSans-42" d="M 1259 2228 
L 1259 519 
L 2272 519 
Q 2781 519 3026 730 
Q 3272 941 3272 1375 
Q 3272 1813 3026 2020 
Q 2781 2228 2272 2228 
L 1259 2228 
z
M 1259 4147 
L 1259 2741 
L 2194 2741 
Q 2656 2741 2882 2914 
Q 3109 3088 3109 3444 
Q 3109 3797 2882 3972 
Q 2656 4147 2194 4147 
L 1259 4147 
z
M 628 4666 
L 2241 4666 
Q 2963 4666 3353 4366 
Q 3744 4066 3744 3513 
Q 3744 3084 3544 2831 
Q 3344 2578 2956 2516 
Q 3422 2416 3680 2098 
Q 3938 1781 3938 1306 
Q 3938 681 3513 340 
Q 3088 0 2303 0 
L 628 0 
L 628 4666 
z
" transform="scale(0.015625)"/>
       <path id="DejaVuSans-50" d="M 1259 4147 
L 1259 2394 
L 2053 2394 
Q 2494 2394 2734 2622 
Q 2975 2850 2975 3272 
Q 2975 3691 2734 3919 
Q 2494 4147 2053 4147 
L 1259 4147 
z
M 628 4666 
L 2053 4666 
Q 2838 4666 3239 4311 
Q 3641 3956 3641 3272 
Q 3641 2581 3239 2228 
Q 2838 1875 2053 1875 
L 1259 1875 
L 1259 0 
L 628 0 
L 628 4666 
z
" transform="scale(0.015625)"/>
       <path id="DejaVuSans-29" d="M 513 4856 
L 1013 4856 
Q 1481 4119 1714 3412 
Q 1947 2706 1947 2009 
Q 1947 1309 1714 600 
Q 1481 -109 1013 -844 
L 513 -844 
Q 928 -128 1133 580 
Q 1338 1288 1338 2009 
Q 1338 2731 1133 3434 
Q 928 4138 513 4856 
z
" transform="scale(0.015625)"/>
      </defs>
      <use xlink:href="#DejaVuSans-48"/>
      <use xlink:href="#DejaVuSans-65" transform="translate(75.195312 0)"/>
      <use xlink:href="#DejaVuSans-61" transform="translate(136.71875 0)"/>
      <use xlink:href="#DejaVuSans-72" transform="translate(197.998047 0)"/>
      <use xlink:href="#DejaVuSans-74" transform="translate(239.111328 0)"/>
      <use xlink:href="#DejaVuSans-20" transform="translate(278.320312 0)"/>
      <use xlink:href="#DejaVuSans-72" transform="translate(310.107422 0)"/>
      <use xlink:href="#DejaVuSans-61" transform="translate(351.220703 0)"/>
      <use xlink:href="#DejaVuSans-74" transform="translate(412.5 0)"/>
      <use xlink:href="#DejaVuSans-65" transform="translate(451.708984 0)"/>
      <use xlink:href="#DejaVuSans-20" transform="translate(513.232422 0)"/>
      <use xlink:href="#DejaVuSans-28" transform="translate(545.019531 0)"/>
      <use xlink:href="#DejaVuSans-42" transform="translate(584.033203 0)"/>
      <use xlink:href="#DejaVuSans-50" transform="translate(652.636719 0)"/>
      <use xlink:href="#DejaVuSans-4d" transform="translate(712.939453 0)"/>
      <use xlink:href="#DejaVuSans-29" transform="translate(799.21875 0)"/>
     </g>
    </g>
   </g>
   <g id="line2d_27">
    <path d="M 62.176827 219.3232 
L 62.462827 136.767267 
L 62.748827 139.614342 
L 63.034827 136.767267 
L 63.320826 139.614342 
L 63.606826 139.614342 
L 63.892826 136.767267 
L 64.178826 198.866869 
L 64.464826 164.285962 
L 64.750826 199.046323 
L 65.036826 54.211333 
L 65.322825 136.767267 
L 65.608825 133.709839 
L 65.894825 189.302931 
L 66.180825 136.767267 
L 66.466825 126.860678 
L 67.038825 126.860678 
L 67.324824 133.709839 
L 67.610824 133.709839 
L 67.896824 142.271098 
L 68.182824 136.767267 
L 68.468824 136.767267 
L 68.754824 139.614342 
L 69.326824 133.709839 
L 69.612823 136.767267 
L 69.898823 136.767267 
L 70.184823 139.614342 
L 70.756823 133.709839 
L 71.042823 136.767267 
L 71.328823 136.767267 
L 71.614822 133.709839 
L 71.900822 142.271098 
L 72.186822 136.767267 
L 72.472822 136.767267 
L 72.758822 142.271098 
L 73.044822 144.756645 
L 73.616822 219.3232 
L 73.902821 123.008073 
L 74.188821 133.709839 
L 74.474821 139.614342 
L 74.760821 139.614342 
L 75.046821 126.860678 
L 75.332821 130.416632 
L 75.618821 136.767267 
L 75.90482 136.767267 
L 76.19082 130.416632 
L 76.47682 136.767267 
L 76.76282 130.416632 
L 77.04882 130.416632 
L 77.33482 133.709839 
L 78.764819 133.709839 
L 79.050819 136.767267 
L 79.336819 133.709839 
L 79.908819 133.709839 
L 80.194818 142.271098 
L 80.480818 142.271098 
L 80.766818 139.614342 
L 81.052818 139.614342 
L 81.338818 142.271098 
L 81.624818 139.614342 
L 81.910818 139.614342 
L 82.196817 144.756645 
L 82.482817 133.709839 
L 82.768817 139.614342 
L 83.054817 142.271098 
L 83.626817 136.767267 
L 84.198817 142.271098 
L 84.484816 136.767267 
L 84.770816 144.756645 
L 85.056816 136.767267 
L 85.342816 142.271098 
L 85.628816 144.756645 
L 85.914816 136.767267 
L 86.200816 133.709839 
L 86.486815 136.767267 
L 86.772815 136.767267 
L 87.058815 144.756645 
L 87.344815 144.756645 
L 87.630815 136.767267 
L 87.916815 139.614342 
L 88.488815 139.614342 
L 88.774814 133.709839 
L 89.060814 142.271098 
L 89.346814 139.614342 
L 89.632814 139.614342 
L 89.918814 133.709839 
L 91.062813 133.709839 
L 91.348813 139.614342 
L 91.634813 133.709839 
L 91.920813 133.709839 
L 92.206813 126.860678 
L 92.492813 147.086855 
L 92.778812 142.271098 
L 93.064812 133.709839 
L 93.350812 139.614342 
L 93.922812 133.709839 
L 94.208812 136.767267 
L 95.066811 136.767267 
L 95.352811 133.709839 
L 95.638811 133.709839 
L 95.924811 130.416632 
L 96.496811 130.416632 
L 96.782811 139.614342 
L 97.06881 136.767267 
L 97.64081 136.767267 
L 97.92681 133.709839 
L 98.21281 147.086855 
L 98.49881 142.271098 
L 98.78481 139.614342 
L 99.07081 144.756645 
L 99.356809 136.767267 
L 99.642809 142.271098 
L 99.928809 136.767267 
L 100.214809 139.614342 
L 100.500809 136.767267 
L 100.786809 144.756645 
L 101.358808 139.614342 
L 101.644808 144.756645 
L 101.930808 142.271098 
L 102.216808 142.271098 
L 102.502808 139.614342 
L 102.788808 142.271098 
L 103.074808 139.614342 
L 103.360807 139.614342 
L 103.646807 136.767267 
L 103.932807 136.767267 
L 104.218807 139.614342 
L 104.504807 133.709839 
L 104.790807 142.271098 
L 105.076807 144.756645 
L 105.362807 139.614342 
L 105.648806 144.756645 
L 106.220806 139.614342 
L 106.506806 139.614342 
L 106.792806 142.271098 
L 107.078806 139.614342 
L 107.364806 142.271098 
L 107.650805 136.767267 
L 107.936805 136.767267 
L 108.222805 147.086855 
L 108.508805 139.614342 
L 108.794805 144.756645 
L 109.366805 144.756645 
L 109.652805 147.086855 
L 109.938804 147.086855 
L 110.224804 142.271098 
L 110.510804 139.614342 
L 110.796804 142.271098 
L 111.368804 136.767267 
L 111.654804 136.767267 
L 111.940803 142.271098 
L 112.226803 139.614342 
L 112.512803 142.271098 
L 112.798803 142.271098 
L 113.084803 139.614342 
L 113.370803 54.211333 
L 113.656803 136.767267 
L 114.228802 142.271098 
L 115.658802 142.271098 
L 115.944802 147.086855 
L 116.230801 139.614342 
L 116.802801 144.756645 
L 117.088801 142.271098 
L 117.660801 142.271098 
L 117.946801 136.767267 
L 118.2328 144.756645 
L 118.5188 144.756645 
L 118.8048 130.416632 
L 119.3768 142.271098 
L 119.6628 139.614342 
L 119.9488 142.271098 
L 120.806799 142.271098 
L 121.092799 139.614342 
L 121.378799 144.756645 
L 121.950799 139.614342 
L 122.236799 139.614342 
L 122.522798 151.336047 
L 122.808798 142.271098 
L 123.094798 142.271098 
L 123.380798 144.756645 
L 123.666798 142.271098 
L 123.952798 147.086855 
L 124.524798 147.086855 
L 124.810797 144.756645 
L 125.668797 144.756645 
L 125.954797 142.271098 
L 126.526797 142.271098 
L 126.812796 139.614342 
L 127.098796 142.271098 
L 127.384796 136.767267 
L 127.670796 136.767267 
L 127.956796 139.614342 
L 128.242796 147.086855 
L 128.528796 142.271098 
L 128.814795 144.756645 
L 129.100795 144.756645 
L 129.386795 142.271098 
L 129.672795 142.271098 
L 129.958795 144.756645 
L 130.244795 144.756645 
L 130.816795 139.614342 
L 131.102794 149.275828 
L 131.388794 147.086855 
L 131.674794 142.271098 
L 131.960794 149.275828 
L 132.246794 147.086855 
L 132.532794 147.086855 
L 133.390793 139.614342 
L 133.676793 147.086855 
L 133.962793 144.756645 
L 134.534793 144.756645 
L 134.820793 147.086855 
L 135.106793 147.086855 
L 135.392792 151.336047 
L 135.678792 147.086855 
L 135.964792 139.614342 
L 136.250792 178.769446 
L 136.536792 144.756645 
L 136.822792 139.614342 
L 137.394791 139.614342 
L 137.680791 144.756645 
L 137.966791 147.086855 
L 138.538791 147.086855 
L 138.824791 144.756645 
L 139.110791 149.275828 
L 139.68279 144.756645 
L 139.96879 149.275828 
L 140.25479 149.275828 
L 140.54079 147.086855 
L 140.82679 149.275828 
L 141.11279 144.756645 
L 141.39879 147.086855 
L 141.684789 147.086855 
L 141.970789 142.271098 
L 142.542789 147.086855 
L 142.828789 147.086855 
L 143.114789 142.271098 
L 143.400789 139.614342 
L 143.972788 144.756645 
L 144.258788 142.271098 
L 144.830788 147.086855 
L 145.116788 144.756645 
L 146.546787 144.756645 
L 146.832787 147.086855 
L 147.690787 147.086855 
L 147.976786 149.275828 
L 148.262786 144.756645 
L 148.548786 151.336047 
L 149.120786 142.271098 
L 149.406786 153.27853 
L 149.978785 144.756645 
L 150.550785 144.756645 
L 151.122785 139.614342 
L 151.408785 142.271098 
L 151.694785 139.614342 
L 151.980785 139.614342 
L 152.266784 130.416632 
L 152.552784 142.271098 
L 153.124784 142.271098 
L 153.410784 136.767267 
L 153.696784 139.614342 
L 154.268783 139.614342 
L 154.554783 147.086855 
L 154.840783 144.756645 
L 155.412783 144.756645 
L 155.698783 139.614342 
L 155.984783 142.271098 
L 156.270783 142.271098 
L 156.842782 147.086855 
L 157.128782 144.756645 
L 157.700782 144.756645 
L 157.986782 147.086855 
L 158.272782 147.086855 
L 158.558781 144.756645 
L 158.844781 144.756645 
L 159.130781 142.271098 
L 159.416781 144.756645 
L 159.988781 139.614342 
L 160.274781 153.27853 
L 160.560781 144.756645 
L 160.84678 144.756645 
L 161.13278 142.271098 
L 161.41878 142.271098 
L 161.70478 144.756645 
L 161.99078 136.767267 
L 162.56278 147.086855 
L 162.848779 144.756645 
L 163.134779 149.275828 
L 163.420779 147.086855 
L 163.706779 147.086855 
L 163.992779 149.275828 
L 164.278779 142.271098 
L 164.564779 151.336047 
L 164.850778 147.086855 
L 165.136778 144.756645 
L 165.422778 144.756645 
L 165.708778 147.086855 
L 165.994778 142.271098 
L 166.280778 144.756645 
L 166.566778 144.756645 
L 166.852778 142.271098 
L 167.138777 149.275828 
L 167.424777 144.756645 
L 167.710777 147.086855 
L 167.996777 144.756645 
L 168.282777 147.086855 
L 168.568777 144.756645 
L 168.854777 144.756645 
L 169.140776 142.271098 
L 169.426776 142.271098 
L 169.712776 144.756645 
L 170.284776 144.756645 
L 170.570776 139.614342 
L 170.856776 144.756645 
L 171.142776 144.756645 
L 171.428775 139.614342 
L 172.000775 139.614342 
L 172.286775 142.271098 
L 172.572775 149.275828 
L 173.144775 144.756645 
L 173.430774 144.756645 
L 173.716774 139.614342 
L 174.002774 144.756645 
L 174.288774 144.756645 
L 174.574774 136.767267 
L 174.860774 149.275828 
L 175.432773 144.756645 
L 175.718773 149.275828 
L 176.004773 147.086855 
L 176.290773 147.086855 
L 176.576773 144.756645 
L 176.862773 144.756645 
L 177.148773 147.086855 
L 177.434773 144.756645 
L 177.720772 175.708782 
L 178.006772 142.271098 
L 178.292772 139.614342 
L 178.578772 144.756645 
L 178.864772 139.614342 
L 179.150772 139.614342 
L 179.436772 144.756645 
L 179.722771 144.756645 
L 180.580771 130.416632 
L 180.866771 139.614342 
L 181.152771 142.271098 
L 181.438771 139.614342 
L 181.724771 144.756645 
L 182.01077 144.756645 
L 182.29677 142.271098 
L 182.58277 136.767267 
L 182.86877 219.3232 
L 183.15477 142.271098 
L 183.44077 142.271098 
L 183.72677 144.756645 
L 184.012769 139.614342 
L 184.870769 139.614342 
L 185.156769 136.767267 
L 185.442769 144.756645 
L 185.728769 147.086855 
L 186.014768 144.756645 
L 186.300768 147.086855 
L 186.586768 142.271098 
L 186.872768 144.756645 
L 187.158768 144.756645 
L 187.444768 142.271098 
L 187.730768 142.271098 
L 188.016768 149.275828 
L 188.302767 144.756645 
L 188.874767 144.756645 
L 189.160767 142.271098 
L 189.446767 144.756645 
L 189.732767 144.756645 
L 190.018767 142.271098 
L 190.304766 142.271098 
L 190.590766 139.614342 
L 190.876766 139.614342 
L 191.162766 149.275828 
L 191.448766 147.086855 
L 191.734766 147.086855 
L 192.020766 144.756645 
L 192.592765 144.756645 
L 192.878765 142.271098 
L 193.164765 142.271098 
L 193.450765 144.756645 
L 193.736765 142.271098 
L 194.022765 149.275828 
L 194.308765 149.275828 
L 194.594764 147.086855 
L 194.880764 147.086855 
L 195.166764 144.756645 
L 195.452764 149.275828 
L 195.738764 144.756645 
L 196.024764 142.271098 
L 196.310764 144.756645 
L 196.596764 142.271098 
L 196.882763 142.271098 
L 197.168763 181.428745 
L 197.454763 198.684255 
L 197.740763 130.416632 
L 198.312763 130.416632 
L 198.598763 144.756645 
L 198.884762 142.271098 
L 199.170762 130.416632 
L 199.456762 160.052335 
L 200.028762 133.709839 
L 200.314762 136.767267 
L 200.600762 149.275828 
L 200.886761 144.756645 
L 201.172761 142.271098 
L 201.458761 142.271098 
L 201.744761 144.756645 
L 202.030761 136.767267 
L 202.316761 142.271098 
L 202.888761 142.271098 
L 203.17476 136.767267 
L 203.46076 136.767267 
L 203.74676 153.27853 
L 204.03276 136.767267 
L 204.31876 139.614342 
L 204.60476 133.709839 
L 204.89076 144.756645 
L 205.176759 144.756645 
L 205.462759 139.614342 
L 205.748759 139.614342 
L 206.034759 136.767267 
L 206.606759 142.271098 
L 206.892759 142.271098 
L 207.178759 144.756645 
L 207.464758 144.756645 
L 207.750758 139.614342 
L 208.036758 83.348585 
L 208.322758 153.27853 
L 208.608758 144.756645 
L 208.894758 142.271098 
L 209.180758 144.756645 
L 209.466757 144.756645 
L 209.752757 147.086855 
L 210.038757 144.756645 
L 210.324757 139.614342 
L 210.610757 144.756645 
L 210.896757 142.271098 
L 211.182757 142.271098 
L 211.468756 144.756645 
L 211.754756 144.756645 
L 212.326756 139.614342 
L 212.612756 144.756645 
L 212.898756 142.271098 
L 213.470756 142.271098 
L 213.756755 144.756645 
L 214.042755 144.756645 
L 214.328755 139.614342 
L 214.614755 142.271098 
L 214.900755 149.275828 
L 215.186755 139.614342 
L 215.472755 142.271098 
L 215.758754 147.086855 
L 216.044754 144.756645 
L 216.616754 144.756645 
L 216.902754 147.086855 
L 217.188754 144.756645 
L 217.760754 144.756645 
L 218.046753 147.086855 
L 218.618753 142.271098 
L 218.904753 144.756645 
L 219.476753 139.614342 
L 219.762753 142.271098 
L 220.048752 142.271098 
L 220.334752 144.756645 
L 221.478752 144.756645 
L 221.764752 142.271098 
L 222.050751 144.756645 
L 222.336751 142.271098 
L 222.622751 142.271098 
L 222.908751 139.614342 
L 223.194751 139.614342 
L 223.480751 133.709839 
L 223.766751 136.767267 
L 224.052751 136.767267 
L 224.33875 149.275828 
L 225.19675 142.271098 
L 225.76875 142.271098 
L 226.05475 139.614342 
L 226.340749 133.709839 
L 226.626749 139.614342 
L 226.912749 142.271098 
L 228.056749 142.271098 
L 228.342749 144.756645 
L 228.628748 144.756645 
L 228.914748 142.271098 
L 229.200748 142.271098 
L 229.486748 139.614342 
L 229.772748 139.614342 
L 230.058748 142.271098 
L 230.344748 139.614342 
L 230.630747 144.756645 
L 231.488747 136.767267 
L 232.060747 142.271098 
L 232.346747 139.614342 
L 232.632747 142.271098 
L 232.918746 142.271098 
L 233.204746 139.614342 
L 233.776746 139.614342 
L 234.062746 136.767267 
L 234.348746 144.756645 
L 234.634746 142.271098 
L 234.920745 136.767267 
L 235.492745 136.767267 
L 235.778745 139.614342 
L 236.064745 144.756645 
L 236.636745 144.756645 
L 236.922744 147.086855 
L 237.208744 142.271098 
L 237.494744 139.614342 
L 237.780744 147.086855 
L 238.066744 139.614342 
L 238.352744 144.756645 
L 238.638744 153.27853 
L 239.210743 144.756645 
L 239.496743 144.756645 
L 240.068743 139.614342 
L 240.354743 144.756645 
L 240.640743 142.271098 
L 241.498742 142.271098 
L 241.784742 151.336047 
L 242.070742 144.756645 
L 242.642742 144.756645 
L 242.928742 142.271098 
L 243.214742 144.756645 
L 243.500741 142.271098 
L 243.786741 144.756645 
L 244.072741 142.271098 
L 244.358741 144.756645 
L 244.930741 144.756645 
L 245.216741 142.271098 
L 245.50274 136.767267 
L 245.78874 142.271098 
L 246.07474 136.767267 
L 246.36074 136.767267 
L 246.64674 130.416632 
L 246.93274 130.416632 
L 247.21874 126.860678 
L 247.504739 126.860678 
L 248.076739 139.614342 
L 248.362739 136.767267 
L 248.648739 199.222618 
L 248.934739 130.416632 
L 249.506739 130.416632 
L 249.792738 139.614342 
L 250.650738 147.086855 
L 250.936738 139.614342 
L 251.222738 136.767267 
L 251.508738 142.271098 
L 251.794737 142.271098 
L 252.080737 139.614342 
L 252.366737 144.756645 
L 252.652737 142.271098 
L 252.938737 144.756645 
L 253.224737 149.275828 
L 253.510737 144.756645 
L 254.368736 144.756645 
L 254.654736 142.271098 
L 254.940736 144.756645 
L 255.512736 139.614342 
L 255.798736 151.336047 
L 256.084735 147.086855 
L 256.370735 144.756645 
L 256.656735 149.275828 
L 257.228735 144.756645 
L 257.514735 144.756645 
L 257.800735 147.086855 
L 258.086734 147.086855 
L 258.658734 142.271098 
L 258.944734 142.271098 
L 259.230734 139.614342 
L 259.802734 144.756645 
L 260.088734 144.756645 
L 260.374733 149.275828 
L 260.946733 144.756645 
L 261.232733 144.756645 
L 261.518733 142.271098 
L 261.804733 144.756645 
L 262.090733 142.271098 
L 262.662732 147.086855 
L 262.948732 147.086855 
L 263.234732 151.336047 
L 263.520732 147.086855 
L 263.806732 147.086855 
L 264.092732 149.275828 
L 264.378732 147.086855 
L 266.094731 147.086855 
L 266.380731 149.275828 
L 266.66673 144.756645 
L 266.95273 149.275828 
L 267.23873 147.086855 
L 267.52473 147.086855 
L 267.81073 149.275828 
L 268.954729 149.275828 
L 269.240729 147.086855 
L 269.526729 149.275828 
L 270.098729 144.756645 
L 270.384729 147.086855 
L 270.670729 147.086855 
L 270.956728 149.275828 
L 271.242728 149.275828 
L 271.528728 144.756645 
L 271.814728 142.271098 
L 272.100728 142.271098 
L 272.386728 144.756645 
L 272.672728 149.275828 
L 272.958727 149.275828 
L 273.244727 142.271098 
L 273.530727 198.684255 
L 273.816727 139.614342 
L 274.102727 155.113141 
L 274.388727 142.271098 
L 274.674727 142.271098 
L 274.960727 147.086855 
L 275.246726 144.756645 
L 275.532726 144.756645 
L 275.818726 142.271098 
L 276.104726 144.756645 
L 276.390726 142.271098 
L 276.676726 142.271098 
L 276.962726 144.756645 
L 277.820725 144.756645 
L 278.106725 139.614342 
L 278.392725 147.086855 
L 278.678725 144.756645 
L 278.964725 139.614342 
L 279.250725 160.052335 
L 279.822724 142.271098 
L 280.108724 155.113141 
L 280.394724 147.086855 
L 280.680724 142.271098 
L 280.966724 144.756645 
L 281.252724 142.271098 
L 281.824723 130.416632 
L 282.110723 136.767267 
L 282.682723 136.767267 
L 282.968723 151.336047 
L 283.540722 139.614342 
L 284.112722 144.756645 
L 284.398722 142.271098 
L 284.684722 144.756645 
L 285.542722 136.767267 
L 285.828721 136.767267 
L 286.114721 144.756645 
L 286.400721 147.086855 
L 286.686721 142.271098 
L 286.972721 147.086855 
L 287.258721 142.271098 
L 287.544721 142.271098 
L 287.83072 153.27853 
L 288.11672 149.275828 
L 288.40272 147.086855 
L 288.68872 149.275828 
L 288.97472 144.756645 
L 289.26072 144.756645 
L 289.54672 142.271098 
L 289.83272 142.271098 
L 290.118719 139.614342 
L 290.404719 139.614342 
L 290.690719 144.756645 
L 290.976719 136.767267 
L 291.548719 136.767267 
L 291.834719 139.614342 
L 292.120718 153.27853 
L 292.406718 149.275828 
L 292.692718 149.275828 
L 292.978718 144.756645 
L 293.264718 144.756645 
L 293.836718 149.275828 
L 294.122717 147.086855 
L 294.408717 147.086855 
L 294.694717 144.756645 
L 295.552717 144.756645 
L 295.838717 139.614342 
L 296.410716 133.709839 
L 296.696716 139.614342 
L 296.982716 149.275828 
L 297.268716 147.086855 
L 298.126716 147.086855 
L 298.412715 142.271098 
L 298.984715 147.086855 
L 299.270715 136.767267 
L 299.556715 142.271098 
L 299.842715 144.756645 
L 300.414715 144.756645 
L 300.700714 147.086855 
L 300.986714 144.756645 
L 301.272714 139.614342 
L 301.558714 139.614342 
L 301.844714 142.271098 
L 302.130714 149.275828 
L 302.416714 151.336047 
L 302.702713 149.275828 
L 302.988713 149.275828 
L 303.560713 153.27853 
L 303.846713 151.336047 
L 304.132713 147.086855 
L 304.990712 147.086855 
L 305.276712 155.113141 
L 305.562712 149.275828 
L 305.848712 149.275828 
L 306.134712 147.086855 
L 306.420712 147.086855 
L 306.706712 151.336047 
L 306.992711 149.275828 
L 307.278711 144.756645 
L 308.136711 144.756645 
L 308.422711 147.086855 
L 308.708711 144.756645 
L 308.99471 149.275828 
L 309.56671 144.756645 
L 310.42471 144.756645 
L 310.71071 149.275828 
L 310.99671 147.086855 
L 311.568709 147.086855 
L 311.854709 149.275828 
L 312.140709 147.086855 
L 312.426709 147.086855 
L 312.712709 144.756645 
L 312.998709 147.086855 
L 313.284708 144.756645 
L 313.570708 139.614342 
L 313.856708 139.614342 
L 314.428708 144.756645 
L 314.714708 149.275828 
L 315.286708 144.756645 
L 315.572707 147.086855 
L 315.858707 147.086855 
L 316.144707 139.614342 
L 316.430707 139.614342 
L 316.716707 147.086855 
L 317.002707 147.086855 
L 317.288707 144.756645 
L 317.574706 151.336047 
L 317.860706 149.275828 
L 318.146706 149.275828 
L 318.432706 151.336047 
L 318.718706 147.086855 
L 319.290706 147.086855 
L 319.862705 151.336047 
L 320.148705 147.086855 
L 320.434705 147.086855 
L 320.720705 144.756645 
L 321.006705 144.756645 
L 321.292705 142.271098 
L 321.578705 136.767267 
L 321.864704 136.767267 
L 322.150704 133.709839 
L 322.436704 133.709839 
L 323.580704 144.756645 
L 324.152703 144.756645 
L 324.438703 149.275828 
L 325.010703 144.756645 
L 325.296703 139.614342 
L 325.582703 144.756645 
L 326.154702 144.756645 
L 326.440702 151.336047 
L 326.726702 147.086855 
L 327.012702 147.086855 
L 327.298702 149.275828 
L 327.584702 144.756645 
L 328.156701 149.275828 
L 328.442701 142.271098 
L 328.728701 139.614342 
L 329.014701 142.271098 
L 329.300701 142.271098 
L 329.586701 149.275828 
L 329.872701 151.336047 
L 330.1587 142.271098 
L 330.4447 153.27853 
L 330.7307 147.086855 
L 331.0167 153.27853 
L 331.3027 151.336047 
L 331.5887 153.27853 
L 331.8747 139.614342 
L 332.1607 147.086855 
L 332.446699 144.756645 
L 332.732699 144.756645 
L 333.304699 149.275828 
L 333.590699 149.275828 
L 333.876699 151.336047 
L 334.448698 151.336047 
L 334.734698 155.113141 
L 335.020698 151.336047 
L 335.306698 153.27853 
L 335.592698 151.336047 
L 335.878698 151.336047 
L 336.164698 147.086855 
L 336.450698 149.275828 
L 336.736697 149.275828 
L 337.022697 151.336047 
L 337.308697 149.275828 
L 337.594697 149.275828 
L 337.880697 147.086855 
L 338.166697 147.086855 
L 338.452697 151.336047 
L 338.738696 149.275828 
L 340.168696 149.275828 
L 340.454696 147.086855 
L 341.026695 151.336047 
L 341.312695 149.275828 
L 341.598695 151.336047 
L 341.884695 149.275828 
L 342.742695 149.275828 
L 343.028694 155.113141 
L 343.314694 151.336047 
L 343.600694 151.336047 
L 343.886694 149.275828 
L 344.172694 155.113141 
L 344.458694 155.113141 
L 344.744694 149.275828 
L 345.030693 147.086855 
L 345.316693 149.275828 
L 345.602693 147.086855 
L 346.174693 151.336047 
L 346.460693 149.275828 
L 346.746693 155.113141 
L 347.032693 149.275828 
L 347.318692 149.275828 
L 347.604692 151.336047 
L 347.890692 151.336047 
L 348.176692 149.275828 
L 348.462692 153.27853 
L 348.748692 153.27853 
L 349.034692 149.275828 
L 349.320691 151.336047 
L 349.606691 147.086855 
L 349.892691 147.086855 
L 350.178691 149.275828 
L 350.464691 149.275828 
L 350.750691 153.27853 
L 351.036691 149.275828 
L 351.322691 142.271098 
L 351.60869 155.113141 
L 352.18069 144.756645 
L 352.46669 151.336047 
L 352.75269 153.27853 
L 353.03869 182.039923 
L 353.32469 136.767267 
L 353.610689 133.709839 
L 353.896689 136.767267 
L 354.182689 144.756645 
L 354.468689 139.614342 
L 354.754689 139.614342 
L 355.040689 144.756645 
L 355.612688 144.756645 
L 355.898688 139.614342 
L 356.184688 147.086855 
L 356.470688 144.756645 
L 356.756688 139.614342 
L 357.042688 155.113141 
L 357.328688 142.271098 
L 357.614688 149.275828 
L 358.186687 144.756645 
L 358.472687 144.756645 
L 358.758687 149.275828 
L 359.330687 144.756645 
L 359.902686 144.756645 
L 360.188686 147.086855 
L 360.474686 144.756645 
L 361.046686 144.756645 
L 361.332686 147.086855 
L 361.618686 147.086855 
L 361.904686 142.271098 
L 362.190685 144.756645 
L 362.476685 142.271098 
L 362.762685 144.756645 
L 363.048685 144.756645 
L 363.334685 179.468694 
L 363.620685 142.271098 
L 363.906685 136.767267 
L 364.192684 133.709839 
L 364.478684 147.086855 
L 364.764684 153.27853 
L 365.050684 149.275828 
L 365.336684 147.086855 
L 365.908684 151.336047 
L 366.194683 155.113141 
L 366.480683 151.336047 
L 366.766683 151.336047 
L 367.052683 155.113141 
L 367.624683 144.756645 
L 367.910683 144.756645 
L 368.196683 147.086855 
L 368.482682 155.113141 
L 368.768682 149.275828 
L 369.340682 149.275828 
L 369.626682 153.27853 
L 369.912682 149.275828 
L 370.198682 147.086855 
L 370.484681 149.275828 
L 371.056681 149.275828 
L 371.342681 151.336047 
L 371.628681 151.336047 
L 371.914681 149.275828 
L 372.200681 151.336047 
L 372.486681 155.113141 
L 373.05868 151.336047 
L 373.34468 151.336047 
L 373.63068 147.086855 
L 373.91668 155.113141 
L 374.20268 151.336047 
L 374.774679 151.336047 
L 375.060679 149.275828 
L 375.346679 153.27853 
L 375.632679 153.27853 
L 375.918679 151.336047 
L 376.204679 147.086855 
L 376.490679 151.336047 
L 377.348678 151.336047 
L 377.920678 147.086855 
L 378.206678 147.086855 
L 378.492678 151.336047 
L 378.778678 149.275828 
L 379.064677 144.756645 
L 379.350677 147.086855 
L 379.636677 147.086855 
L 379.922677 149.275828 
L 380.208677 147.086855 
L 380.494677 153.27853 
L 380.780677 147.086855 
L 381.066676 144.756645 
L 381.352676 147.086855 
L 381.638676 139.614342 
L 381.924676 147.086855 
L 382.496676 156.848508 
L 382.782676 151.336047 
L 383.068676 151.336047 
L 383.354675 155.113141 
L 383.640675 153.27853 
L 383.926675 147.086855 
L 384.498675 151.336047 
L 385.070675 151.336047 
L 385.356674 147.086855 
L 385.642674 144.756645 
L 385.928674 156.848508 
L 386.214674 149.275828 
L 386.500674 147.086855 
L 386.786674 156.848508 
L 387.072674 155.113141 
L 387.358674 149.275828 
L 387.644673 151.336047 
L 387.930673 144.756645 
L 388.216673 151.336047 
L 388.502673 153.27853 
L 389.074673 142.271098 
L 389.360673 149.275828 
L 389.932672 149.275828 
L 390.218672 156.848508 
L 390.504672 149.275828 
L 390.790672 149.275828 
L 391.076672 147.086855 
L 391.362672 147.086855 
L 391.648671 155.113141 
L 392.220671 147.086855 
L 392.506671 142.271098 
L 392.792671 144.756645 
L 393.078671 144.756645 
L 393.364671 139.614342 
L 393.650671 130.416632 
L 393.93667 133.709839 
L 394.22267 126.860678 
L 394.50867 123.008073 
L 394.79467 136.767267 
L 395.08067 136.767267 
L 395.36667 130.416632 
L 395.65267 126.860678 
L 395.938669 136.767267 
L 396.224669 136.767267 
L 396.796669 142.271098 
L 397.082669 139.614342 
L 397.368669 142.271098 
L 397.654669 139.614342 
L 397.940669 142.271098 
L 398.798668 133.709839 
L 399.084668 133.709839 
L 399.370668 139.614342 
L 400.228667 139.614342 
L 400.514667 142.271098 
L 401.372667 142.271098 
L 401.658667 139.614342 
L 401.944667 144.756645 
L 402.230666 144.756645 
L 402.516666 142.271098 
L 403.660666 142.271098 
L 403.946666 147.086855 
L 404.232666 149.275828 
L 404.518665 144.756645 
L 404.804665 142.271098 
L 405.090665 142.271098 
L 405.376665 139.614342 
L 405.662665 142.271098 
L 405.948665 149.275828 
L 406.234665 142.271098 
L 406.806664 147.086855 
L 407.092664 147.086855 
L 407.378664 142.271098 
L 407.664664 144.756645 
L 407.950664 142.271098 
L 408.236664 144.756645 
L 408.522664 142.271098 
L 409.094663 142.271098 
L 409.380663 147.086855 
L 409.666663 142.271098 
L 409.952663 142.271098 
L 410.238663 144.756645 
L 410.524663 142.271098 
L 411.096662 142.271098 
L 411.382662 147.086855 
L 411.954662 147.086855 
L 412.526662 142.271098 
L 413.098661 142.271098 
L 413.384661 144.756645 
L 413.670661 136.767267 
L 413.956661 133.709839 
L 414.814661 149.275828 
L 415.10066 144.756645 
L 415.38666 142.271098 
L 415.67266 156.848508 
L 416.24466 139.614342 
L 416.53066 139.614342 
L 416.81666 136.767267 
L 417.102659 130.416632 
L 417.388659 136.767267 
L 417.674659 136.767267 
L 417.960659 142.271098 
L 418.246659 136.767267 
L 418.532659 126.860678 
L 418.818659 130.416632 
L 419.676658 130.416632 
L 419.962658 139.614342 
L 420.248658 133.709839 
L 420.534658 133.709839 
L 420.820658 139.614342 
L 421.106658 126.860678 
L 421.392657 139.614342 
L 421.964657 133.709839 
L 422.250657 139.614342 
L 422.822657 139.614342 
L 423.108657 136.767267 
L 423.394657 139.614342 
L 423.966656 139.614342 
L 424.252656 133.709839 
L 424.538656 130.416632 
L 424.824656 130.416632 
L 425.110656 126.860678 
L 425.396656 142.271098 
L 425.682655 136.767267 
L 426.540655 126.860678 
L 426.826655 130.416632 
L 427.112655 136.767267 
L 427.398655 133.709839 
L 428.256654 133.709839 
L 428.542654 139.614342 
L 428.828654 136.767267 
L 429.114654 136.767267 
L 429.686654 130.416632 
L 429.972653 133.709839 
L 430.258653 130.416632 
L 431.116653 139.614342 
L 431.402653 133.709839 
L 431.688653 133.709839 
L 431.974652 142.271098 
L 432.260652 142.271098 
L 432.546652 139.614342 
L 432.832652 130.416632 
L 433.118652 139.614342 
L 433.404652 133.709839 
L 433.690652 133.709839 
L 433.976652 139.614342 
L 434.262651 142.271098 
L 434.834651 142.271098 
L 435.120651 139.614342 
L 435.406651 139.614342 
L 435.692651 136.767267 
L 436.26465 136.767267 
L 436.55065 133.709839 
L 437.12265 147.086855 
L 437.40865 139.614342 
L 438.266649 139.614342 
L 438.552649 133.709839 
L 438.838649 133.709839 
L 439.124649 130.416632 
L 439.696649 151.336047 
L 439.982649 136.767267 
L 440.268649 156.848508 
L 440.554648 144.756645 
L 440.840648 151.336047 
L 441.126648 147.086855 
L 441.412648 147.086855 
L 441.698648 142.271098 
L 441.984648 144.756645 
L 442.556647 144.756645 
L 442.842647 142.271098 
L 443.128647 142.271098 
L 443.414647 149.275828 
L 443.700647 133.709839 
L 443.986647 136.767267 
L 444.272647 133.709839 
L 444.558647 133.709839 
L 444.844646 123.008073 
L 445.130646 156.848508 
L 445.416646 156.848508 
L 445.702646 149.275828 
L 445.988646 151.336047 
L 446.560646 136.767267 
L 446.846645 144.756645 
L 447.132645 149.275828 
L 447.418645 147.086855 
L 447.990645 151.336047 
L 448.276645 144.756645 
L 448.562645 149.275828 
L 448.848644 147.086855 
L 449.134644 142.271098 
L 449.420644 144.756645 
L 449.706644 142.271098 
L 449.992644 142.271098 
L 450.278644 144.756645 
L 450.564644 142.271098 
L 450.850644 151.336047 
L 451.136643 147.086855 
L 451.422643 144.756645 
L 451.994643 144.756645 
L 452.566643 149.275828 
L 452.852643 144.756645 
L 453.138642 149.275828 
L 453.424642 147.086855 
L 453.710642 147.086855 
L 453.996642 144.756645 
L 455.140642 144.756645 
L 455.426641 139.614342 
L 455.712641 144.756645 
L 455.998641 144.756645 
L 456.284641 142.271098 
L 456.570641 147.086855 
L 456.856641 139.614342 
L 457.142641 193.350555 
L 457.42864 149.275828 
L 457.71464 144.756645 
L 458.00064 144.756645 
L 458.57264 155.113141 
L 458.85864 153.27853 
L 459.14464 155.113141 
L 459.43064 155.113141 
L 459.716639 156.848508 
L 460.002639 147.086855 
L 460.574639 151.336047 
L 460.860639 151.336047 
L 461.146639 149.275828 
L 461.432639 151.336047 
L 461.718638 151.336047 
L 462.004638 149.275828 
L 462.576638 149.275828 
L 462.862638 151.336047 
L 463.148638 151.336047 
L 463.434638 149.275828 
L 463.720637 153.27853 
L 464.006637 149.275828 
L 464.292637 153.27853 
L 464.578637 147.086855 
L 464.864637 147.086855 
L 465.150637 151.336047 
L 465.436637 149.275828 
L 465.722637 151.336047 
L 466.008636 147.086855 
L 466.294636 144.756645 
L 466.580636 139.614342 
L 466.866636 151.336047 
L 467.152636 149.275828 
L 467.438636 151.336047 
L 467.724636 151.336047 
L 468.010635 147.086855 
L 468.296635 153.27853 
L 468.582635 149.275828 
L 468.868635 151.336047 
L 469.154635 149.275828 
L 469.726635 153.27853 
L 470.012635 147.086855 
L 470.298634 184.822274 
L 470.584634 147.086855 
L 470.870634 156.848508 
L 471.156634 151.336047 
L 471.442634 149.275828 
L 471.728634 155.113141 
L 472.014634 151.336047 
L 472.300633 151.336047 
L 472.586633 149.275828 
L 472.872633 151.336047 
L 473.444633 151.336047 
L 473.730633 153.27853 
L 474.016633 149.275828 
L 474.302632 155.113141 
L 474.588632 153.27853 
L 474.874632 147.086855 
L 475.160632 147.086855 
L 475.446632 149.275828 
L 475.732632 153.27853 
L 476.018632 149.275828 
L 476.590631 153.27853 
L 476.876631 151.336047 
L 477.162631 153.27853 
L 477.448631 142.271098 
L 477.734631 155.113141 
L 478.020631 147.086855 
L 478.306631 151.336047 
L 478.59263 153.27853 
L 478.87863 147.086855 
L 479.16463 147.086855 
L 479.45063 139.614342 
L 479.73663 144.756645 
L 480.02263 139.614342 
L 480.30863 147.086855 
L 480.59463 149.275828 
L 481.166629 156.848508 
L 481.452629 149.275828 
L 482.310629 149.275828 
L 482.596629 155.113141 
L 483.168628 151.336047 
L 483.454628 151.336047 
L 483.740628 149.275828 
L 484.026628 155.113141 
L 484.312628 153.27853 
L 484.598628 147.086855 
L 484.884627 144.756645 
L 485.170627 149.275828 
L 485.456627 147.086855 
L 485.742627 147.086855 
L 486.028627 155.113141 
L 486.314627 147.086855 
L 486.886627 151.336047 
L 487.172626 151.336047 
L 487.458626 155.113141 
L 487.744626 149.275828 
L 488.030626 151.336047 
L 488.316626 149.275828 
L 489.460625 149.275828 
L 489.746625 136.767267 
L 490.032625 149.275828 
L 490.318625 151.336047 
L 490.604625 144.756645 
L 490.890625 147.086855 
L 491.176625 156.848508 
L 491.462624 149.275828 
L 491.748624 149.275828 
L 492.034624 155.113141 
L 492.320624 153.27853 
L 492.606624 155.113141 
L 492.892624 151.336047 
L 494.036623 151.336047 
L 494.322623 149.275828 
L 494.608623 151.336047 
L 495.180623 151.336047 
L 495.466623 147.086855 
L 495.752622 153.27853 
L 496.038622 149.275828 
L 496.324622 151.336047 
L 496.610622 151.336047 
L 496.896622 142.271098 
L 497.182622 156.848508 
L 497.754621 147.086855 
L 498.040621 156.848508 
L 498.326621 151.336047 
L 498.612621 149.275828 
L 498.898621 153.27853 
L 499.184621 149.275828 
L 499.470621 151.336047 
L 499.75662 147.086855 
L 500.04262 136.767267 
L 500.32862 149.275828 
L 500.61462 149.275828 
L 500.90062 151.336047 
L 501.18662 147.086855 
L 501.47262 147.086855 
L 501.75862 149.275828 
L 502.044619 149.275828 
L 502.330619 147.086855 
L 502.616619 151.336047 
L 502.902619 151.336047 
L 503.188619 144.756645 
L 503.474619 147.086855 
L 503.760619 144.756645 
L 504.046618 149.275828 
L 504.332618 151.336047 
L 504.618618 151.336047 
L 504.904618 144.756645 
L 505.476618 155.113141 
L 505.762618 144.756645 
L 506.048618 147.086855 
L 506.334617 156.848508 
L 506.620617 147.086855 
L 506.906617 144.756645 
L 507.192617 151.336047 
L 507.478617 153.27853 
L 507.764617 153.27853 
L 508.050617 151.336047 
L 508.336616 151.336047 
L 508.622616 155.113141 
L 508.908616 149.275828 
L 509.480616 153.27853 
L 509.766616 151.336047 
L 510.338615 151.336047 
L 510.624615 149.275828 
L 510.910615 149.275828 
L 511.196615 151.336047 
L 511.482615 144.756645 
L 511.768615 198.866869 
L 512.054615 139.614342 
L 512.340615 151.336047 
L 512.626614 153.27853 
L 513.484614 153.27853 
L 513.770614 151.336047 
L 514.056614 155.113141 
L 514.342614 156.848508 
L 514.628613 151.336047 
L 514.914613 153.27853 
L 515.486613 149.275828 
L 515.772613 151.336047 
L 516.058613 147.086855 
L 516.344613 149.275828 
L 516.630613 147.086855 
L 516.916612 155.113141 
L 517.202612 149.275828 
L 517.488612 155.113141 
L 517.774612 151.336047 
L 518.060612 155.113141 
L 518.346612 153.27853 
L 518.632612 156.848508 
L 518.918611 153.27853 
L 519.204611 156.848508 
L 519.490611 153.27853 
L 519.776611 155.113141 
L 520.062611 155.113141 
L 520.348611 153.27853 
L 520.634611 149.275828 
L 520.92061 147.086855 
L 521.20661 153.27853 
L 521.49261 155.113141 
L 521.77861 153.27853 
L 522.06461 156.848508 
L 522.35061 153.27853 
L 522.63661 153.27853 
L 522.92261 151.336047 
L 523.208609 147.086855 
L 523.494609 153.27853 
L 523.780609 149.275828 
L 524.066609 184.822274 
L 524.352609 151.336047 
L 524.638609 151.336047 
L 524.924609 149.275828 
L 525.210608 153.27853 
L 525.496608 153.27853 
L 525.782608 151.336047 
L 526.354608 151.336047 
L 526.640608 153.27853 
L 527.498607 153.27853 
L 527.784607 151.336047 
L 528.070607 153.27853 
L 528.356607 153.27853 
L 528.642607 155.113141 
L 528.928607 151.336047 
L 529.214607 151.336047 
L 529.500606 147.086855 
L 530.072606 151.336047 
L 530.358606 149.275828 
L 530.644606 151.336047 
L 530.930606 155.113141 
L 531.502606 151.336047 
L 531.788605 153.27853 
L 532.074605 160.052335 
L 532.360605 153.27853 
L 533.218605 153.27853 
L 533.504605 151.336047 
L 533.790604 184.299552 
L 534.076604 151.336047 
L 534.362604 151.336047 
L 534.648604 139.614342 
L 534.934604 153.27853 
L 535.220604 149.275828 
L 535.506604 149.275828 
L 535.792603 156.848508 
L 536.078603 149.275828 
L 536.364603 155.113141 
L 536.650603 201.541964 
L 536.936603 156.848508 
L 537.222603 147.086855 
L 537.794603 151.336047 
L 538.080602 151.336047 
L 538.366602 186.300904 
L 538.652602 149.275828 
L 538.938602 153.27853 
L 539.224602 149.275828 
L 539.510602 153.27853 
L 539.796602 149.275828 
L 540.082601 153.27853 
L 540.368601 151.336047 
L 540.654601 155.113141 
L 541.226601 151.336047 
L 541.798601 151.336047 
L 542.084601 149.275828 
L 542.3706 151.336047 
L 542.6566 149.275828 
L 542.9426 149.275828 
L 543.2286 153.27853 
L 543.5146 151.336047 
L 543.8006 147.086855 
L 544.0866 144.756645 
L 544.372599 144.756645 
L 544.658599 139.614342 
L 544.944599 142.271098 
L 545.230599 136.767267 
L 545.516599 142.271098 
L 545.802599 158.492569 
L 546.088599 149.275828 
L 546.374598 147.086855 
L 546.660598 147.086855 
L 546.946598 149.275828 
L 547.232598 147.086855 
L 547.518598 147.086855 
L 547.804598 144.756645 
L 548.090598 136.767267 
L 548.376598 192.444576 
L 548.662597 180.144133 
L 548.948597 133.709839 
L 549.234597 139.614342 
L 549.806597 139.614342 
L 550.378597 149.275828 
L 550.664596 142.271098 
L 550.950596 139.614342 
L 551.236596 149.275828 
L 551.522596 142.271098 
L 551.808596 144.756645 
L 552.094596 142.271098 
L 552.380596 149.275828 
L 552.666596 144.756645 
L 552.952595 144.756645 
L 553.238595 149.275828 
L 553.524595 147.086855 
L 553.810595 147.086855 
L 554.096595 144.756645 
L 554.382595 139.614342 
L 554.668595 142.271098 
L 554.954594 139.614342 
L 555.240594 156.848508 
L 555.526594 155.113141 
L 555.812594 149.275828 
L 556.098594 155.113141 
L 556.384594 149.275828 
L 556.670594 151.336047 
L 556.956593 151.336047 
L 557.242593 149.275828 
L 557.528593 149.275828 
L 557.814593 147.086855 
L 558.100593 147.086855 
L 558.386593 149.275828 
L 558.672593 147.086855 
L 558.958593 147.086855 
L 559.244592 144.756645 
L 560.102592 144.756645 
L 560.388592 142.271098 
L 560.674592 142.271098 
L 560.960592 149.275828 
L 561.246591 151.336047 
L 561.532591 144.756645 
L 561.818591 149.275828 
L 562.104591 142.271098 
L 562.390591 147.086855 
L 562.676591 149.275828 
L 563.248591 149.275828 
L 563.53459 147.086855 
L 563.82059 149.275828 
L 564.10659 144.756645 
L 564.39259 147.086855 
L 564.67859 151.336047 
L 565.25059 151.336047 
L 565.536589 147.086855 
L 565.822589 147.086855 
L 566.394589 142.271098 
L 566.680589 142.271098 
L 566.966589 147.086855 
L 567.252589 142.271098 
L 567.824588 151.336047 
L 568.110588 151.336047 
L 568.396588 147.086855 
L 568.682588 153.27853 
L 568.968588 149.275828 
L 569.254588 149.275828 
L 569.540588 151.336047 
L 569.826587 149.275828 
L 570.112587 153.27853 
L 570.398587 149.275828 
L 570.684587 139.614342 
L 570.970587 136.767267 
L 571.256587 151.336047 
L 571.542587 149.275828 
L 571.828586 151.336047 
L 572.114586 147.086855 
L 572.400586 158.492569 
L 572.972586 149.275828 
L 573.830586 149.275828 
L 574.116585 147.086855 
L 574.688585 147.086855 
L 574.974585 151.336047 
L 575.546585 147.086855 
L 576.118584 147.086855 
L 576.404584 149.275828 
L 576.690584 142.271098 
L 576.976584 144.756645 
L 577.262584 149.275828 
L 577.548584 142.271098 
L 577.834584 144.756645 
L 578.120584 139.614342 
L 578.406583 147.086855 
L 578.692583 139.614342 
L 578.978583 139.614342 
L 579.550583 133.709839 
L 579.836583 126.860678 
L 580.122583 123.008073 
L 580.408582 144.756645 
L 580.694582 133.709839 
L 580.980582 136.767267 
L 581.266582 153.27853 
L 581.552582 130.416632 
L 581.838582 144.756645 
L 582.124582 139.614342 
L 582.410581 149.275828 
L 582.696581 151.336047 
L 582.982581 144.756645 
L 583.268581 142.271098 
L 583.554581 144.756645 
L 583.840581 139.614342 
L 584.126581 139.614342 
L 584.412581 142.271098 
L 584.69858 142.271098 
L 584.98458 144.756645 
L 585.27058 142.271098 
L 586.12858 142.271098 
L 586.700579 147.086855 
L 586.986579 142.271098 
L 587.272579 149.275828 
L 587.558579 139.614342 
L 587.844579 139.614342 
L 588.130579 147.086855 
L 588.416579 142.271098 
L 588.702579 151.336047 
L 588.988578 144.756645 
L 589.274578 144.756645 
L 589.560578 149.275828 
L 589.846578 142.271098 
L 590.132578 151.336047 
L 590.418578 149.275828 
L 590.704578 142.271098 
L 590.990577 139.614342 
L 591.276577 142.271098 
L 591.562577 179.468694 
L 591.848577 130.416632 
L 592.134577 126.860678 
L 592.420577 153.27853 
L 592.706577 151.336047 
L 592.992576 147.086855 
L 593.278576 151.336047 
L 593.564576 149.275828 
L 593.850576 142.271098 
L 594.136576 147.086855 
L 594.422576 142.271098 
L 594.708576 147.086855 
L 594.994576 142.271098 
L 595.280575 139.614342 
L 595.566575 149.275828 
L 595.852575 144.756645 
L 596.138575 142.271098 
L 596.424575 144.756645 
L 596.710575 139.614342 
L 596.996575 147.086855 
L 597.568574 142.271098 
L 597.854574 147.086855 
L 598.140574 144.756645 
L 598.426574 144.756645 
L 598.712574 139.614342 
L 598.998574 142.271098 
L 599.284574 142.271098 
L 599.856573 147.086855 
L 600.142573 142.271098 
L 600.428573 180.797149 
L 600.714573 144.756645 
L 601.000573 142.271098 
L 601.286573 142.271098 
L 601.572572 139.614342 
L 601.858572 147.086855 
L 602.144572 147.086855 
L 602.430572 149.275828 
L 602.716572 147.086855 
L 603.002572 149.275828 
L 603.860571 149.275828 
L 604.146571 142.271098 
L 604.432571 147.086855 
L 604.718571 147.086855 
L 605.004571 142.271098 
L 605.290571 149.275828 
L 605.576571 151.336047 
L 605.86257 144.756645 
L 606.14857 151.336047 
L 606.43457 149.275828 
L 606.72057 153.27853 
L 607.00657 144.756645 
L 607.57857 149.275828 
L 607.864569 144.756645 
L 608.150569 151.336047 
L 608.436569 149.275828 
L 608.722569 153.27853 
L 609.008569 153.27853 
L 609.294569 151.336047 
L 609.580569 151.336047 
L 609.866569 153.27853 
L 610.152568 151.336047 
L 610.438568 147.086855 
L 610.724568 147.086855 
L 611.010568 149.275828 
L 611.296568 180.797149 
L 611.582568 139.614342 
L 611.868568 133.709839 
L 612.154567 139.614342 
L 612.440567 162.943638 
L 613.012567 144.756645 
L 613.298567 144.756645 
L 613.584567 156.848508 
L 613.870567 147.086855 
L 614.156567 147.086855 
L 614.442566 156.848508 
L 614.728566 147.086855 
L 615.014566 144.756645 
L 615.300566 155.113141 
L 615.586566 183.760727 
L 615.872566 149.275828 
L 616.158566 142.271098 
L 616.444565 142.271098 
L 616.730565 175.708782 
L 617.016565 133.709839 
L 617.302565 133.709839 
L 617.874565 139.614342 
L 618.160565 136.767267 
L 618.446564 151.336047 
L 618.732564 142.271098 
L 619.304564 151.336047 
L 619.590564 147.086855 
L 619.876564 147.086855 
L 620.162564 142.271098 
L 620.448564 142.271098 
L 620.734563 149.275828 
L 621.306563 149.275828 
L 621.592563 144.756645 
L 621.878563 147.086855 
L 622.164563 147.086855 
L 622.450563 149.275828 
L 622.736562 147.086855 
L 623.022562 149.275828 
L 623.308562 149.275828 
L 623.594562 144.756645 
L 623.880562 144.756645 
L 624.166562 149.275828 
L 624.452562 144.756645 
L 624.738562 151.336047 
L 625.024561 153.27853 
L 625.310561 151.336047 
L 625.596561 151.336047 
L 625.882561 149.275828 
L 626.168561 149.275828 
L 626.454561 151.336047 
L 626.740561 147.086855 
L 627.02656 149.275828 
L 627.31256 180.144133 
L 627.59856 180.144133 
L 627.88456 139.614342 
L 628.17056 139.614342 
L 628.45656 136.767267 
L 628.74256 139.614342 
L 629.028559 219.3232 
L 629.314559 144.756645 
L 629.600559 144.756645 
L 629.886559 151.336047 
L 630.172559 144.756645 
L 630.458559 182.039923 
L 630.744559 153.27853 
L 631.030559 183.205027 
L 631.316558 147.086855 
L 631.602558 149.275828 
L 631.888558 144.756645 
L 632.174558 153.27853 
L 632.460558 151.336047 
L 632.746558 151.336047 
L 633.032558 144.756645 
L 633.318557 156.848508 
L 633.604557 151.336047 
L 633.890557 151.336047 
L 634.176557 144.756645 
L 634.462557 156.848508 
L 634.748557 151.336047 
L 635.034557 142.271098 
L 635.320557 153.27853 
L 635.606556 151.336047 
L 635.892556 147.086855 
L 636.178556 151.336047 
L 636.464556 147.086855 
L 636.750556 156.848508 
L 637.036556 153.27853 
L 637.322556 147.086855 
L 637.608555 201.541964 
L 637.894555 54.211333 
L 638.180555 190.785413 
L 638.466555 139.614342 
L 638.752555 133.709839 
L 639.038555 166.78769 
L 639.324555 164.285962 
L 639.610554 147.086855 
L 639.896554 151.336047 
L 640.182554 153.27853 
L 640.468554 149.275828 
L 640.754554 160.052335 
L 641.040554 153.27853 
L 641.326554 149.275828 
L 641.612554 153.27853 
L 642.184553 153.27853 
L 642.470553 149.275828 
L 642.756553 155.113141 
L 643.042553 151.336047 
L 643.328553 153.27853 
L 643.614553 151.336047 
L 643.900552 144.756645 
L 644.186552 147.086855 
L 645.044552 139.614342 
L 645.330552 149.275828 
L 645.616552 151.336047 
L 645.902552 156.848508 
L 646.188551 156.848508 
L 646.474551 153.27853 
L 646.760551 155.113141 
L 647.046551 151.336047 
L 647.332551 153.27853 
L 647.618551 149.275828 
L 647.904551 149.275828 
L 648.19055 182.63176 
L 648.47655 155.113141 
L 648.76255 147.086855 
L 649.04855 153.27853 
L 649.33455 155.113141 
L 649.62055 151.336047 
L 649.90655 153.27853 
L 650.19255 149.275828 
L 650.764549 149.275828 
L 651.050549 151.336047 
L 651.622549 151.336047 
L 651.908549 149.275828 
L 652.480548 149.275828 
L 652.766548 153.27853 
L 653.052548 149.275828 
L 653.338548 155.113141 
L 653.624548 151.336047 
L 653.910548 219.3232 
L 654.196548 139.614342 
L 654.482547 133.709839 
L 654.768547 133.709839 
L 655.054547 139.614342 
L 655.340547 153.27853 
L 655.626547 149.275828 
L 655.912547 147.086855 
L 656.198547 153.27853 
L 656.484547 153.27853 
L 656.770546 173.091939 
L 657.056546 144.756645 
L 657.342546 160.052335 
L 657.628546 153.27853 
L 657.914546 151.336047 
L 658.200546 155.113141 
L 658.486546 156.848508 
L 659.058545 153.27853 
L 659.344545 153.27853 
L 659.630545 147.086855 
L 660.202545 151.336047 
L 660.488545 151.336047 
L 660.774545 160.052335 
L 661.060544 149.275828 
L 661.346544 153.27853 
L 661.632544 155.113141 
L 661.918544 153.27853 
L 662.204544 158.492569 
L 662.776544 144.756645 
L 663.062543 153.27853 
L 663.348543 149.275828 
L 663.634543 151.336047 
L 663.920543 151.336047 
L 664.206543 149.275828 
L 664.492543 149.275828 
L 664.778543 147.086855 
L 665.064542 147.086855 
L 665.350542 149.275828 
L 665.636542 139.614342 
L 665.922542 144.756645 
L 666.208542 144.756645 
L 666.494542 149.275828 
L 666.780542 151.336047 
L 667.066542 149.275828 
L 667.352541 149.275828 
L 667.638541 151.336047 
L 667.924541 147.086855 
L 668.210541 153.27853 
L 668.496541 144.756645 
L 668.782541 147.086855 
L 669.068541 144.756645 
L 669.35454 149.275828 
L 669.64054 149.275828 
L 669.92654 147.086855 
L 670.49854 147.086855 
L 670.78454 149.275828 
L 671.07054 153.27853 
L 671.35654 151.336047 
L 671.642539 153.27853 
L 671.928539 151.336047 
L 672.214539 153.27853 
L 673.072539 147.086855 
L 673.358539 147.086855 
L 673.644538 149.275828 
L 673.930538 144.756645 
L 674.216538 147.086855 
L 674.502538 147.086855 
L 674.788538 149.275828 
L 675.074538 147.086855 
L 675.360538 160.052335 
L 675.646537 151.336047 
L 676.218537 147.086855 
L 676.504537 151.336047 
L 676.790537 144.756645 
L 677.362537 144.756645 
L 677.934536 139.614342 
L 678.220536 139.614342 
L 678.506536 149.275828 
L 678.792536 153.27853 
L 679.078536 149.275828 
L 679.364536 147.086855 
L 679.650536 151.336047 
L 679.936535 149.275828 
L 680.222535 156.848508 
L 680.508535 149.275828 
L 680.794535 144.756645 
L 681.080535 144.756645 
L 681.366535 136.767267 
L 681.652535 133.709839 
L 681.938535 144.756645 
L 682.224534 142.271098 
L 682.510534 144.756645 
L 682.796534 151.336047 
L 683.082534 139.614342 
L 683.368534 149.275828 
L 683.654534 142.271098 
L 683.940534 149.275828 
L 684.226533 151.336047 
L 684.512533 147.086855 
L 684.798533 149.275828 
L 685.084533 144.756645 
L 685.370533 158.492569 
L 685.656533 151.336047 
L 685.942533 153.27853 
L 686.228533 147.086855 
L 686.514532 153.27853 
L 686.800532 147.086855 
L 687.086532 149.275828 
L 687.372532 144.756645 
L 687.658532 144.756645 
L 687.944532 151.336047 
L 688.516531 151.336047 
L 688.802531 149.275828 
L 689.088531 153.27853 
L 689.374531 151.336047 
L 689.660531 147.086855 
L 689.946531 153.27853 
L 690.232531 151.336047 
L 690.51853 90.902774 
L 690.80453 151.336047 
L 691.09053 182.63176 
L 691.37653 151.336047 
L 691.66253 199.566271 
L 691.94853 133.709839 
L 692.23453 151.336047 
L 692.52053 147.086855 
L 692.806529 144.756645 
L 693.092529 153.27853 
L 693.378529 144.756645 
L 693.664529 219.3232 
L 693.950529 142.271098 
L 694.236529 142.271098 
L 694.522529 144.756645 
L 694.808528 144.756645 
L 695.094528 151.336047 
L 695.380528 153.27853 
L 695.666528 153.27853 
L 695.952528 147.086855 
L 696.238528 153.27853 
L 696.524528 149.275828 
L 696.810528 153.27853 
L 697.096527 147.086855 
L 697.382527 188.907885 
L 697.668527 182.63176 
L 697.954527 156.848508 
L 698.526527 149.275828 
L 698.812527 156.848508 
L 699.098526 149.275828 
L 699.384526 151.336047 
L 699.670526 149.275828 
L 699.956526 153.27853 
L 700.242526 149.275828 
L 700.528526 147.086855 
L 700.814526 149.275828 
L 701.100525 202.326431 
L 701.386525 149.275828 
L 701.672525 151.336047 
L 701.958525 151.336047 
L 702.244525 149.275828 
L 702.530525 144.756645 
L 702.816525 149.275828 
L 703.102525 144.756645 
L 703.388524 151.336047 
L 703.674524 147.086855 
L 703.960524 147.086855 
L 704.246524 144.756645 
L 704.532524 182.63176 
L 704.818524 144.756645 
L 705.390523 149.275828 
L 705.676523 147.086855 
L 705.962523 147.086855 
L 706.248523 153.27853 
L 706.820523 149.275828 
L 707.106523 149.275828 
L 707.392523 142.271098 
L 707.964522 142.271098 
L 708.250522 147.086855 
L 708.536522 147.086855 
L 709.108522 142.271098 
L 709.394522 144.756645 
L 709.680521 133.709839 
L 709.966521 139.614342 
L 710.252521 166.78769 
L 710.538521 155.113141 
L 710.824521 149.275828 
L 711.110521 147.086855 
L 711.396521 149.275828 
L 711.68252 147.086855 
L 711.96852 147.086855 
L 712.25452 142.271098 
L 712.54052 149.275828 
L 712.82652 153.27853 
L 713.11252 153.27853 
L 713.39852 151.336047 
L 713.68452 153.27853 
L 713.970519 144.756645 
L 714.256519 219.3232 
L 714.542519 153.27853 
L 714.828519 147.086855 
L 715.114519 151.336047 
L 715.400519 144.756645 
L 715.686519 155.113141 
L 715.972518 149.275828 
L 716.258518 153.27853 
L 716.830518 149.275828 
L 717.116518 149.275828 
L 717.402518 151.336047 
L 717.688518 200.060175 
L 717.974518 147.086855 
L 718.260517 151.336047 
L 718.546517 147.086855 
L 718.832517 161.534124 
L 719.118517 144.756645 
L 719.404517 144.756645 
L 719.690517 153.27853 
L 719.976517 149.275828 
L 720.262516 147.086855 
L 720.548516 153.27853 
L 720.834516 151.336047 
L 721.120516 155.113141 
L 721.406516 155.113141 
L 721.692516 151.336047 
L 721.978516 156.848508 
L 722.264516 151.336047 
L 722.550515 153.27853 
L 722.836515 147.086855 
L 723.122515 147.086855 
L 723.408515 144.756645 
L 723.694515 147.086855 
L 724.266515 142.271098 
L 724.552514 133.709839 
L 724.838514 133.709839 
L 725.124514 130.416632 
L 725.410514 139.614342 
L 725.982514 144.756645 
L 726.268514 149.275828 
L 726.554513 151.336047 
L 726.840513 147.086855 
L 727.126513 147.086855 
L 727.412513 142.271098 
L 727.698513 142.271098 
L 727.984513 147.086855 
L 728.270513 139.614342 
L 728.556513 149.275828 
L 728.842512 147.086855 
L 729.128512 153.27853 
L 729.414512 144.756645 
L 729.700512 144.756645 
L 729.986512 147.086855 
L 730.558512 147.086855 
L 730.844511 144.756645 
L 731.130511 151.336047 
L 731.416511 149.275828 
L 731.702511 144.756645 
L 732.274511 144.756645 
L 732.560511 147.086855 
L 733.13251 142.271098 
L 733.41851 151.336047 
L 733.70451 147.086855 
L 733.99051 149.275828 
L 734.27651 153.27853 
L 734.56251 151.336047 
L 734.84851 151.336047 
L 735.134509 142.271098 
L 735.420509 142.271098 
L 735.706509 149.275828 
L 735.992509 147.086855 
L 736.278509 142.271098 
L 736.564509 185.822256 
L 736.850509 136.767267 
L 737.422508 149.275828 
L 737.708508 142.271098 
L 737.994508 149.275828 
L 738.280508 144.756645 
L 738.566508 151.336047 
L 738.852508 149.275828 
L 739.138508 149.275828 
L 739.424507 147.086855 
L 739.710507 153.27853 
L 739.996507 151.336047 
L 740.282507 147.086855 
L 740.568507 144.756645 
L 740.854507 153.27853 
L 741.140507 151.336047 
L 741.426506 147.086855 
L 742.570506 147.086855 
L 742.856506 149.275828 
L 743.142506 144.756645 
L 743.428506 149.275828 
L 743.714505 144.756645 
L 744.286505 149.275828 
L 744.572505 149.275828 
L 745.430505 155.113141 
L 745.716504 155.113141 
L 746.002504 151.336047 
L 746.288504 153.27853 
L 746.574504 149.275828 
L 746.860504 147.086855 
L 747.146504 142.271098 
L 747.432504 139.614342 
L 747.718503 142.271098 
L 748.004503 149.275828 
L 748.290503 149.275828 
L 748.576503 147.086855 
L 748.862503 142.271098 
L 749.148503 149.275828 
L 749.720503 153.27853 
L 750.006502 153.27853 
L 750.292502 155.113141 
L 750.578502 147.086855 
L 750.864502 147.086855 
L 751.150502 151.336047 
L 751.436502 147.086855 
L 751.722502 149.275828 
L 752.008501 149.275828 
L 752.294501 151.336047 
L 752.580501 151.336047 
L 752.866501 147.086855 
L 753.152501 147.086855 
L 753.438501 144.756645 
L 753.724501 144.756645 
L 754.010501 151.336047 
L 754.2965 155.113141 
L 754.5825 155.113141 
L 754.8685 153.27853 
L 755.1545 153.27853 
L 755.7265 149.275828 
L 756.0125 151.336047 
L 756.584499 147.086855 
L 756.870499 149.275828 
L 757.156499 147.086855 
L 757.442499 151.336047 
L 757.728499 142.271098 
L 758.014499 156.848508 
L 758.300499 151.336047 
L 758.872498 151.336047 
L 759.158498 147.086855 
L 759.444498 149.275828 
L 760.302498 149.275828 
L 760.874497 139.614342 
L 761.160497 139.614342 
L 761.446497 130.416632 
L 761.732497 130.416632 
L 762.018497 133.709839 
L 762.304497 147.086855 
L 762.876496 142.271098 
L 763.162496 147.086855 
L 763.448496 136.767267 
L 763.734496 149.275828 
L 764.306496 149.275828 
L 764.592496 147.086855 
L 764.878495 149.275828 
L 765.164495 144.756645 
L 766.022495 144.756645 
L 766.308495 151.336047 
L 766.594495 147.086855 
L 767.166494 147.086855 
L 767.452494 149.275828 
L 767.738494 144.756645 
L 768.024494 142.271098 
L 768.310494 158.492569 
L 768.596494 147.086855 
L 768.882494 142.271098 
L 769.168493 147.086855 
L 769.454493 144.756645 
L 769.740493 136.767267 
L 770.026493 142.271098 
L 770.598493 142.271098 
L 770.884493 144.756645 
L 771.170492 144.756645 
L 771.456492 147.086855 
L 771.742492 151.336047 
L 772.028492 149.275828 
L 772.314492 151.336047 
L 772.600492 149.275828 
L 773.172491 149.275828 
L 773.458491 147.086855 
L 773.744491 149.275828 
L 774.030491 147.086855 
L 774.888491 147.086855 
L 775.174491 149.275828 
L 775.46049 147.086855 
L 775.74649 149.275828 
L 776.03249 142.271098 
L 776.60449 142.271098 
L 776.89049 139.614342 
L 777.462489 144.756645 
L 777.748489 142.271098 
L 778.034489 147.086855 
L 778.320489 144.756645 
L 778.606489 147.086855 
L 778.892489 147.086855 
L 779.178489 149.275828 
L 780.036488 149.275828 
L 780.322488 147.086855 
L 780.608488 149.275828 
L 780.894488 149.275828 
L 781.180488 147.086855 
L 781.466488 151.336047 
L 782.038487 151.336047 
L 782.324487 149.275828 
L 782.610487 151.336047 
L 782.896487 151.336047 
L 783.182487 147.086855 
L 783.754486 151.336047 
L 784.040486 144.756645 
L 784.326486 144.756645 
L 784.898486 149.275828 
L 785.184486 144.756645 
L 785.470486 181.428745 
L 785.756486 142.271098 
L 786.042485 142.271098 
L 786.328485 139.614342 
L 786.614485 164.285962 
L 787.472485 147.086855 
L 787.758485 151.336047 
L 788.044484 149.275828 
L 788.330484 151.336047 
L 788.616484 151.336047 
L 788.902484 147.086855 
L 789.188484 200.060175 
L 789.474484 155.113141 
L 789.760484 153.27853 
L 790.046484 153.27853 
L 790.332483 151.336047 
L 790.618483 151.336047 
L 790.904483 153.27853 
L 791.190483 153.27853 
L 791.476483 151.336047 
L 791.762483 153.27853 
L 792.048483 151.336047 
L 792.334482 147.086855 
L 792.620482 151.336047 
L 792.906482 147.086855 
L 793.192482 151.336047 
L 793.478482 153.27853 
L 793.764482 153.27853 
L 794.050482 151.336047 
L 794.336482 151.336047 
L 794.622481 201.94302 
L 794.908481 155.113141 
L 795.194481 149.275828 
L 795.480481 149.275828 
L 796.052481 144.756645 
L 796.338481 149.275828 
L 796.62448 149.275828 
L 796.91048 147.086855 
L 797.19648 149.275828 
L 797.48248 155.113141 
L 797.76848 151.336047 
L 798.05448 153.27853 
L 798.34048 158.492569 
L 798.626479 153.27853 
L 798.912479 151.336047 
L 799.198479 155.113141 
L 799.484479 155.113141 
L 800.342479 149.275828 
L 800.914478 149.275828 
L 801.200478 151.336047 
L 801.486478 149.275828 
L 801.772478 149.275828 
L 802.058478 144.756645 
L 802.344478 147.086855 
L 802.630478 153.27853 
L 802.916477 153.27853 
L 803.202477 149.275828 
L 803.774477 153.27853 
L 804.060477 151.336047 
L 805.204476 151.336047 
L 805.490476 149.275828 
L 805.776476 151.336047 
L 806.348476 147.086855 
L 806.634476 142.271098 
L 806.920476 147.086855 
L 807.206475 142.271098 
L 807.492475 130.416632 
L 807.778475 139.614342 
L 808.064475 153.27853 
L 808.350475 151.336047 
L 808.636475 144.756645 
L 808.922475 178.769446 
L 809.208474 161.534124 
L 809.494474 161.534124 
L 809.780474 160.052335 
L 810.066474 155.113141 
L 810.352474 155.113141 
L 810.638474 153.27853 
L 810.924474 156.848508 
L 811.210474 155.113141 
L 811.496473 158.492569 
L 811.782473 158.492569 
L 812.068473 156.848508 
L 812.354473 160.052335 
L 812.640473 155.113141 
L 812.926473 155.113141 
L 813.212473 151.336047 
L 814.070472 151.336047 
L 814.356472 153.27853 
L 814.642472 151.336047 
L 814.928472 151.336047 
L 815.500472 155.113141 
L 816.072471 147.086855 
L 816.358471 151.336047 
L 817.216471 144.756645 
L 817.502471 151.336047 
L 817.78847 149.275828 
L 818.07447 219.3232 
L 818.36047 149.275828 
L 818.64647 144.756645 
L 819.21847 149.275828 
L 819.50447 155.113141 
L 820.076469 155.113141 
L 820.362469 149.275828 
L 820.648469 155.113141 
L 820.934469 155.113141 
L 821.220469 156.848508 
L 821.506469 156.848508 
L 821.792469 153.27853 
L 822.078468 161.534124 
L 822.364468 160.052335 
L 822.936468 160.052335 
L 823.222468 156.848508 
L 823.508468 155.113141 
L 823.794468 155.113141 
L 824.080467 151.336047 
L 824.366467 155.113141 
L 824.652467 151.336047 
L 824.938467 153.27853 
L 825.796467 153.27853 
L 826.082467 155.113141 
L 826.654466 151.336047 
L 826.940466 155.113141 
L 827.512466 158.492569 
L 827.798466 155.113141 
L 828.084466 155.113141 
L 828.370465 156.848508 
L 828.656465 155.113141 
L 828.942465 161.534124 
L 829.228465 155.113141 
L 829.514465 219.3232 
L 829.800465 147.086855 
L 830.086465 136.767267 
L 830.372465 133.709839 
L 830.944464 156.848508 
L 831.230464 149.275828 
L 831.516464 162.943638 
L 831.802464 153.27853 
L 832.088464 153.27853 
L 832.374464 155.113141 
L 832.946463 151.336047 
L 833.232463 153.27853 
L 833.518463 149.275828 
L 833.804463 151.336047 
L 834.090463 147.086855 
L 834.376463 153.27853 
L 834.662462 149.275828 
L 834.948462 155.113141 
L 835.234462 147.086855 
L 835.520462 155.113141 
L 835.806462 156.848508 
L 836.092462 147.086855 
L 836.378462 153.27853 
L 836.664462 155.113141 
L 836.950461 153.27853 
L 837.236461 149.275828 
L 837.808461 136.767267 
L 838.094461 144.756645 
L 838.380461 156.848508 
L 838.666461 156.848508 
L 838.95246 149.275828 
L 839.23846 149.275828 
L 839.52446 155.113141 
L 840.09646 136.767267 
L 840.38246 133.709839 
L 840.66846 147.086855 
L 840.95446 149.275828 
L 841.240459 180.797149 
L 841.526459 142.271098 
L 841.812459 139.614342 
L 842.098459 142.271098 
L 842.384459 142.271098 
L 842.670459 147.086855 
L 842.956459 139.614342 
L 843.242458 136.767267 
L 843.528458 147.086855 
L 843.814458 26.692946 
L 844.100458 130.416632 
L 844.386458 133.709839 
L 844.672458 153.27853 
L 844.958458 144.756645 
L 845.244457 149.275828 
L 845.530457 149.275828 
L 846.388457 142.271098 
L 846.674457 155.113141 
L 846.960457 144.756645 
L 847.246457 142.271098 
L 847.532456 151.336047 
L 847.818456 147.086855 
L 848.104456 144.756645 
L 848.390456 147.086855 
L 848.676456 180.797149 
L 848.962456 149.275828 
L 849.248456 151.336047 
L 849.534455 147.086855 
L 849.820455 149.275828 
L 850.106455 153.27853 
L 850.392455 149.275828 
L 850.678455 158.492569 
L 851.250455 144.756645 
L 851.536455 147.086855 
L 851.822454 147.086855 
L 852.108454 149.275828 
L 852.394454 149.275828 
L 852.680454 151.336047 
L 852.966454 151.336047 
L 853.252454 158.492569 
L 853.538454 139.614342 
L 853.824453 151.336047 
L 854.110453 151.336047 
L 854.396453 144.756645 
L 854.682453 147.086855 
L 854.968453 151.336047 
L 855.254453 149.275828 
L 855.540453 153.27853 
L 855.826452 151.336047 
L 856.112452 153.27853 
L 856.684452 149.275828 
L 856.970452 161.534124 
L 857.256452 149.275828 
L 857.542452 153.27853 
L 858.114451 144.756645 
L 858.400451 144.756645 
L 858.686451 149.275828 
L 858.972451 149.275828 
L 859.258451 160.052335 
L 859.830451 151.336047 
L 860.11645 149.275828 
L 860.40245 151.336047 
L 860.68845 151.336047 
L 860.97445 144.756645 
L 861.26045 155.113141 
L 861.54645 153.27853 
L 861.83245 147.086855 
L 862.11845 151.336047 
L 863.262449 151.336047 
L 863.548449 153.27853 
L 864.120449 149.275828 
L 864.692448 149.275828 
L 864.978448 153.27853 
L 865.264448 153.27853 
L 865.550448 151.336047 
L 865.836448 151.336047 
L 866.122448 142.271098 
L 866.408447 147.086855 
L 866.694447 136.767267 
L 867.266447 155.113141 
L 867.552447 151.336047 
L 867.838447 151.336047 
L 868.124447 153.27853 
L 868.696446 149.275828 
L 868.982446 151.336047 
L 869.268446 144.756645 
L 869.554446 142.271098 
L 869.840446 133.709839 
L 870.126446 144.756645 
L 870.412446 147.086855 
L 870.698445 151.336047 
L 870.984445 142.271098 
L 871.270445 136.767267 
L 871.556445 136.767267 
L 871.842445 133.709839 
L 872.128445 142.271098 
L 872.414445 144.756645 
L 872.700445 144.756645 
L 872.986444 142.271098 
L 873.272444 144.756645 
L 873.558444 139.614342 
L 873.844444 136.767267 
L 874.130444 149.275828 
L 874.416444 142.271098 
L 874.702444 149.275828 
L 874.988443 142.271098 
L 875.274443 139.614342 
L 875.560443 153.27853 
L 875.846443 136.767267 
L 876.132443 136.767267 
L 876.418443 144.756645 
L 876.704443 142.271098 
L 876.990443 149.275828 
L 877.276442 151.336047 
L 877.562442 144.756645 
L 877.848442 144.756645 
L 878.134442 136.767267 
L 878.706442 142.271098 
L 878.992442 147.086855 
L 879.278441 149.275828 
L 879.564441 147.086855 
L 879.850441 147.086855 
L 880.136441 151.336047 
L 880.422441 144.756645 
L 880.708441 151.336047 
L 880.994441 149.275828 
L 881.28044 144.756645 
L 881.85244 144.756645 
L 882.42444 149.275828 
L 883.28244 149.275828 
L 883.568439 144.756645 
L 883.854439 147.086855 
L 884.140439 147.086855 
L 884.426439 142.271098 
L 884.712439 151.336047 
L 884.998439 153.27853 
L 885.570438 144.756645 
L 886.142438 149.275828 
L 886.428438 147.086855 
L 886.714438 151.336047 
L 887.286438 147.086855 
L 887.572438 149.275828 
L 887.858437 147.086855 
L 888.144437 142.271098 
L 888.430437 151.336047 
L 888.716437 153.27853 
L 889.002437 151.336047 
L 889.288437 144.756645 
L 889.574437 149.275828 
L 889.860436 199.898288 
L 890.146436 155.113141 
L 890.432436 147.086855 
L 890.718436 144.756645 
L 891.004436 153.27853 
L 891.290436 149.275828 
L 891.576436 149.275828 
L 891.862435 151.336047 
L 892.148435 144.756645 
L 892.434435 149.275828 
L 892.720435 151.336047 
L 893.006435 156.848508 
L 893.292435 153.27853 
L 893.578435 153.27853 
L 893.864435 156.848508 
L 894.722434 151.336047 
L 895.008434 156.848508 
L 895.294434 153.27853 
L 895.580434 155.113141 
L 896.152433 147.086855 
L 896.438433 156.848508 
L 896.724433 144.756645 
L 897.010433 149.275828 
L 897.296433 151.336047 
L 897.582433 144.756645 
L 897.868433 181.428745 
L 898.154433 193.921434 
L 898.440432 103.745047 
L 898.726432 126.860678 
L 899.012432 162.943638 
L 899.298432 158.492569 
L 899.584432 162.943638 
L 899.870432 160.052335 
L 900.156432 144.756645 
L 900.442431 142.271098 
L 900.728431 144.756645 
L 901.014431 149.275828 
L 901.300431 149.275828 
L 901.586431 158.492569 
L 901.872431 153.27853 
L 902.44443 160.052335 
L 902.73043 155.113141 
L 903.01643 153.27853 
L 903.30243 158.492569 
L 903.58843 151.336047 
L 903.87443 153.27853 
L 904.16043 151.336047 
L 904.44643 161.534124 
L 904.732429 155.113141 
L 905.018429 151.336047 
L 905.304429 160.052335 
L 905.590429 153.27853 
L 905.876429 156.848508 
L 906.162429 155.113141 
L 906.734428 155.113141 
L 907.020428 153.27853 
L 907.306428 144.756645 
L 907.592428 160.052335 
L 907.878428 155.113141 
L 908.450428 151.336047 
L 908.736428 155.113141 
L 909.880427 147.086855 
L 910.166427 156.848508 
L 910.452427 151.336047 
L 910.738427 161.534124 
L 911.024426 160.052335 
L 911.310426 161.534124 
L 911.596426 158.492569 
L 911.882426 158.492569 
L 912.168426 162.943638 
L 912.740426 156.848508 
L 913.026426 149.275828 
L 913.312425 153.27853 
L 913.598425 151.336047 
L 913.884425 142.271098 
L 914.170425 201.404117 
L 914.456425 136.767267 
L 914.742425 164.285962 
L 915.314424 149.275828 
L 915.600424 136.767267 
L 915.886424 156.848508 
L 916.172424 151.336047 
L 916.458424 97.661784 
L 916.744424 151.336047 
L 917.030424 158.492569 
L 917.316423 155.113141 
L 917.888423 155.113141 
L 918.174423 151.336047 
L 918.174423 151.336047 
" clip-path="url(#pdc9fb9d4b8)" style="fill: none; stroke: #111827; stroke-opacity: 0.95; stroke-width: 0.936; stroke-linecap: square"/>
   </g>
   <g id="patch_23">
    <path d="M 45.056875 228.954713 
L 45.056875 17.061433 
" style="fill: none; stroke: #cbd5e1; stroke-width: 0.8; stroke-linejoin: miter; stroke-linecap: square"/>
   </g>
   <g id="patch_24">
    <path d="M 935.294375 228.954713 
L 935.294375 17.061433 
" style="fill: none; stroke: #cbd5e1; stroke-width: 0.8; stroke-linejoin: miter; stroke-linecap: square"/>
   </g>
   <g id="patch_25">
    <path d="M 45.056875 228.954713 
L 935.294375 228.954713 
" style="fill: none; stroke: #cbd5e1; stroke-width: 0.8; stroke-linejoin: miter; stroke-linecap: square"/>
   </g>
   <g id="patch_26">
    <path d="M 45.056875 17.061433 
L 935.294375 17.061433 
" style="fill: none; stroke: #cbd5e1; stroke-width: 0.8; stroke-linejoin: miter; stroke-linecap: square"/>
   </g>
   <g id="text_16">
    <!-- ACC -->
    <g style="fill: #475569" transform="translate(125.757295 13.27875) scale(0.08 -0.08)">
     <defs>
      <path id="DejaVuSans-41" d="M 2188 4044 
L 1331 1722 
L 3047 1722 
L 2188 4044 
z
M 1831 4666 
L 2547 4666 
L 4325 0 
L 3669 0 
L 3244 1197 
L 1141 1197 
L 716 0 
L 50 0 
L 1831 4666 
z
" transform="scale(0.015625)"/>
      <path id="DejaVuSans-43" d="M 4122 4306 
L 4122 3641 
Q 3803 3938 3442 4084 
Q 3081 4231 2675 4231 
Q 1875 4231 1450 3742 
Q 1025 3253 1025 2328 
Q 1025 1406 1450 917 
Q 1875 428 2675 428 
Q 3081 428 3442 575 
Q 3803 722 4122 1019 
L 4122 359 
Q 3791 134 3420 21 
Q 3050 -91 2638 -91 
Q 1578 -91 968 557 
Q 359 1206 359 2328 
Q 359 3453 968 4101 
Q 1578 4750 2638 4750 
Q 3056 4750 3426 4639 
Q 3797 4528 4122 4306 
z
" transform="scale(0.015625)"/>
     </defs>
     <use xlink:href="#DejaVuSans-41"/>
     <use xlink:href="#DejaVuSans-43" transform="translate(66.658203 0)"/>
     <use xlink:href="#DejaVuSans-43" transform="translate(136.482422 0)"/>
    </g>
   </g>
   <g id="text_17">
    <!-- OC -->
    <g style="fill: #475569" transform="translate(232.826095 13.27875) scale(0.08 -0.08)">
     <defs>
      <path id="DejaVuSans-4f" d="M 2522 4238 
Q 1834 4238 1429 3725 
Q 1025 3213 1025 2328 
Q 1025 1447 1429 934 
Q 1834 422 2522 422 
Q 3209 422 3611 934 
Q 4013 1447 4013 2328 
Q 4013 3213 3611 3725 
Q 3209 4238 2522 4238 
z
M 2522 4750 
Q 3503 4750 4090 4092 
Q 4678 3434 4678 2328 
Q 4678 1225 4090 567 
Q 3503 -91 2522 -91 
Q 1538 -91 948 565 
Q 359 1222 359 2328 
Q 359 3434 948 4092 
Q 1538 4750 2522 4750 
z
" transform="scale(0.015625)"/>
     </defs>
     <use xlink:href="#DejaVuSans-4f"/>
     <use xlink:href="#DejaVuSans-43" transform="translate(78.710938 0)"/>
    </g>
   </g>
   <g id="text_18">
    <!-- FCS -->
    <g style="fill: #475569" transform="translate(258.22957 13.27875) scale(0.08 -0.08)">
     <defs>
      <path id="DejaVuSans-46" d="M 628 4666 
L 3309 4666 
L 3309 4134 
L 1259 4134 
L 1259 2759 
L 3109 2759 
L 3109 2228 
L 1259 2228 
L 1259 0 
L 628 0 
L 628 4666 
z
" transform="scale(0.015625)"/>
      <path id="DejaVuSans-53" d="M 3425 4513 
L 3425 3897 
Q 3066 4069 2747 4153 
Q 2428 4238 2131 4238 
Q 1616 4238 1336 4038 
Q 1056 3838 1056 3469 
Q 1056 3159 1242 3001 
Q 1428 2844 1947 2747 
L 2328 2669 
Q 3034 2534 3370 2195 
Q 3706 1856 3706 1288 
Q 3706 609 3251 259 
Q 2797 -91 1919 -91 
Q 1588 -91 1214 -16 
Q 841 59 441 206 
L 441 856 
Q 825 641 1194 531 
Q 1563 422 1919 422 
Q 2459 422 2753 634 
Q 3047 847 3047 1241 
Q 3047 1584 2836 1778 
Q 2625 1972 2144 2069 
L 1759 2144 
Q 1053 2284 737 2584 
Q 422 2884 422 3419 
Q 422 4038 858 4394 
Q 1294 4750 2059 4750 
Q 2388 4750 2728 4690 
Q 3069 4631 3425 4513 
z
" transform="scale(0.015625)"/>
     </defs>
     <use xlink:href="#DejaVuSans-46"/>
     <use xlink:href="#DejaVuSans-43" transform="translate(57.519531 0)"/>
     <use xlink:href="#DejaVuSans-53" transform="translate(127.34375 0)"/>
    </g>
   </g>
   <g id="text_19">
    <!-- SR -->
    <g style="fill: #475569" transform="translate(287.638669 13.27875) scale(0.08 -0.08)">
     <defs>
      <path id="DejaVuSans-52" d="M 2841 2188 
Q 3044 2119 3236 1894 
Q 3428 1669 3622 1275 
L 4263 0 
L 3584 0 
L 2988 1197 
Q 2756 1666 2539 1819 
Q 2322 1972 1947 1972 
L 1259 1972 
L 1259 0 
L 628 0 
L 628 4666 
L 2053 4666 
Q 2853 4666 3247 4331 
Q 3641 3997 3641 3322 
Q 3641 2881 3436 2590 
Q 3231 2300 2841 2188 
z
M 1259 4147 
L 1259 2491 
L 2053 2491 
Q 2509 2491 2742 2702 
Q 2975 2913 2975 3322 
Q 2975 3731 2742 3939 
Q 2509 4147 2053 4147 
L 1259 4147 
z
" transform="scale(0.015625)"/>
     </defs>
     <use xlink:href="#DejaVuSans-53"/>
     <use xlink:href="#DejaVuSans-52" transform="translate(63.476562 0)"/>
    </g>
   </g>
   <g id="text_20">
    <!-- FFC -->
    <g style="fill: #475569" transform="translate(326.20513 13.27875) scale(0.08 -0.08)">
     <use xlink:href="#DejaVuSans-46"/>
     <use xlink:href="#DejaVuSans-46" transform="translate(57.519531 0)"/>
     <use xlink:href="#DejaVuSans-43" transform="translate(115.039062 0)"/>
    </g>
   </g>
   <g id="text_21">
    <!-- SS -->
    <g style="fill: #475569" transform="translate(421.094395 13.27875) scale(0.08 -0.08)">
     <use xlink:href="#DejaVuSans-53"/>
     <use xlink:href="#DejaVuSans-53" transform="translate(63.476562 0)"/>
    </g>
   </g>
   <g id="text_22">
    <!-- OC -->
    <g style="fill: #475569" transform="translate(490.225974 13.27875) scale(0.08 -0.08)">
     <use xlink:href="#DejaVuSans-4f"/>
     <use xlink:href="#DejaVuSans-43" transform="translate(78.710938 0)"/>
    </g>
   </g>
   <g id="text_23">
    <!-- FCS -->
    <g style="fill: #475569" transform="translate(511.113661 13.27875) scale(0.08 -0.08)">
     <use xlink:href="#DejaVuSans-46"/>
     <use xlink:href="#DejaVuSans-43" transform="translate(57.519531 0)"/>
     <use xlink:href="#DejaVuSans-53" transform="translate(127.34375 0)"/>
    </g>
   </g>
   <g id="text_24">
    <!-- SR -->
    <g style="fill: #475569" transform="translate(540.52276 13.27875) scale(0.08 -0.08)">
     <use xlink:href="#DejaVuSans-53"/>
     <use xlink:href="#DejaVuSans-52" transform="translate(63.476562 0)"/>
    </g>
   </g>
   <g id="text_25">
    <!-- FFC -->
    <g style="fill: #475569" transform="translate(579.089221 13.27875) scale(0.08 -0.08)">
     <use xlink:href="#DejaVuSans-46"/>
     <use xlink:href="#DejaVuSans-46" transform="translate(57.519531 0)"/>
     <use xlink:href="#DejaVuSans-43" transform="translate(115.039062 0)"/>
    </g>
   </g>
   <g id="text_26">
    <!-- SS -->
    <g style="fill: #475569" transform="translate(673.978486 13.27875) scale(0.08 -0.08)">
     <use xlink:href="#DejaVuSans-53"/>
     <use xlink:href="#DejaVuSans-53" transform="translate(63.476562 0)"/>
    </g>
   </g>
   <g id="text_27">
    <!-- OC -->
    <g style="fill: #475569" transform="translate(743.110065 13.27875) scale(0.08 -0.08)">
     <use xlink:href="#DejaVuSans-4f"/>
     <use xlink:href="#DejaVuSans-43" transform="translate(78.710938 0)"/>
    </g>
   </g>
   <g id="text_28">
    <!-- FCS -->
    <g style="fill: #475569" transform="translate(763.997752 13.27875) scale(0.08 -0.08)">
     <use xlink:href="#DejaVuSans-46"/>
     <use xlink:href="#DejaVuSans-43" transform="translate(57.519531 0)"/>
     <use xlink:href="#DejaVuSans-53" transform="translate(127.34375 0)"/>
    </g>
   </g>
   <g id="text_29">
    <!-- SR -->
    <g style="fill: #475569" transform="translate(793.406851 13.27875) scale(0.08 -0.08)">
     <use xlink:href="#DejaVuSans-53"/>
     <use xlink:href="#DejaVuSans-52" transform="translate(63.476562 0)"/>
    </g>
   </g>
   <g id="text_30">
    <!-- FFC -->
    <g style="fill: #475569" transform="translate(831.973312 13.27875) scale(0.08 -0.08)">
     <use xlink:href="#DejaVuSans-46"/>
     <use xlink:href="#DejaVuSans-46" transform="translate(57.519531 0)"/>
     <use xlink:href="#DejaVuSans-43" transform="translate(115.039062 0)"/>
    </g>
   </g>
   <g id="text_31">
    <!-- SS -->
    <g style="fill: #475569" transform="translate(888.478385 13.27875) scale(0.08 -0.08)">
     <use xlink:href="#DejaVuSans-53"/>
     <use xlink:href="#DejaVuSans-53" transform="translate(63.476562 0)"/>
    </g>
   </g>
   <g id="legend_1">
    <g id="line2d_28">
     <path d="M 894.119375 27.540183 
L 902.119375 27.540183 
L 910.119375 27.540183 
" style="fill: none; stroke: #111827; stroke-opacity: 0.95; stroke-width: 1.3; stroke-linecap: square"/>
    </g>
    <g id="text_32">
     <!-- HR -->
     <g transform="translate(916.519375 30.340183) scale(0.08 -0.08)">
      <use xlink:href="#DejaVuSans-48"/>
      <use xlink:href="#DejaVuSans-52" transform="translate(75.195312 0)"/>
     </g>
    </g>
   </g>
  </g>
 </g>
 <defs>
  <clipPath id="pdc9fb9d4b8">
   <rect x="45.056875" y="17.061433" width="890.2375" height="211.89328"/>
  </clipPath>
 </defs>
</svg>
