<?xml version="1.0" encoding="utf-8" standalone="no"?>
<!DOCTYPE svg PUBLIC "-//W3C//DTD SVG 1.1//EN"
  "http://www.w3.org/Graphics/SVG/1.1/DTD/svg11.dtd">
<svg xmlns:xlink="http://www.w3.org/1999/xlink" width="942.505625pt" height="265.54315pt" viewBox="0 0 942.505625 265.54315" xmlns="http://www.w3.org/2000/svg" version="1.1">
 <metadata>
  <rdf:RDF xmlns:dc="http://purl.org/dc/elements/1.1/" xmlns:cc="http://creativecommons.org/ns#" xmlns:rdf="http://www.w3.org/1999/02/22-rdf-syntax-ns#">
   <cc:Work>
    <dc:type rdf:resource="http://purl.org/dc/dcmitype/StillImage"/>
    <dc:date>2026-04-17T13:06:26.198916</dc:date>
    <dc:format>image/svg+xml</dc:format>
    <dc:creator>
     <cc:Agent>
      <dc:title>Matplotlib v3.10.8, https://matplotlib.org/</dc:title>
     </cc:Agent>
    </dc:creator>
   </cc:Work>
  </rdf:RDF>
 </metadata>
 <defs>
  <style type="text/css">*{stroke-linejoin: round; stroke-linecap: butt}</style>
 </defs>
 <g id="figure_1">
  <g id="patch_1">
   <path d="M 0 265.54315 
L 942.505625 265.54315 
L 942.505625 0 
L 0 0 
z
" style="fill: #ffffff"/>
  </g>
  <g id="axes_1">
   <g id="patch_2">
    <path d="M 39.330625 228.954713 
L 935.305625 228.954713 
L 935.305625 17.061433 
L 39.330625 17.061433 
z
" style="fill: #ffffff"/>
   </g>
   <g id="patch_3">
    <path d="M 39.330625 228.954713 
L 218.383052 228.954713 
L 218.383052 17.061433 
L 39.330625 17.061433 
z
" clip-path="url(#p2b9b443e00)" style="fill: #f8fafc; opacity: 0.45"/>
   </g>
   <g id="patch_4">
    <path d="M 218.383052 228.954713 
L 250.19729 228.954713 
L 250.19729 17.061433 
L 218.383052 17.061433 
z
" clip-path="url(#p2b9b443e00)" style="fill: #eff6ff; opacity: 0.45"/>
   </g>
   <g id="patch_5">
    <path d="M 250.19729 228.954713 
L 272.921746 228.954713 
L 272.921746 17.061433 
L 250.19729 17.061433 
z
" clip-path="url(#p2b9b443e00)" style="fill: #fef3c7; opacity: 0.45"/>
   </g>
   <g id="patch_6">
    <path d="M 272.921746 228.954713 
L 304.735984 228.954713 
L 304.735984 17.061433 
L 272.921746 17.061433 
z
" clip-path="url(#p2b9b443e00)" style="fill: #dcfce7; opacity: 0.45"/>
   </g>
   <g id="patch_7">
    <path d="M 304.735984 228.954713 
L 354.729787 228.954713 
L 354.729787 17.061433 
L 304.735984 17.061433 
z
" clip-path="url(#p2b9b443e00)" style="fill: #fee2e2; opacity: 0.45"/>
   </g>
   <g id="patch_8">
    <path d="M 354.729787 228.954713 
L 363.81957 228.954713 
L 363.81957 17.061433 
L 354.729787 17.061433 
z
" clip-path="url(#p2b9b443e00)" style="fill: #ede9fe; opacity: 0.45"/>
   </g>
   <g id="patch_9">
    <path d="M 363.81957 228.954713 
L 481.98674 228.954713 
L 481.98674 17.061433 
L 363.81957 17.061433 
z
" clip-path="url(#p2b9b443e00)" style="fill: #f8fafc; opacity: 0.45"/>
   </g>
   <g id="patch_10">
    <path d="M 481.98674 228.954713 
L 504.711196 228.954713 
L 504.711196 17.061433 
L 481.98674 17.061433 
z
" clip-path="url(#p2b9b443e00)" style="fill: #eff6ff; opacity: 0.45"/>
   </g>
   <g id="patch_11">
    <path d="M 504.711196 228.954713 
L 527.435652 228.954713 
L 527.435652 17.061433 
L 504.711196 17.061433 
z
" clip-path="url(#p2b9b443e00)" style="fill: #fef3c7; opacity: 0.45"/>
   </g>
   <g id="patch_12">
    <path d="M 527.435652 228.954713 
L 559.249891 228.954713 
L 559.249891 17.061433 
L 527.435652 17.061433 
z
" clip-path="url(#p2b9b443e00)" style="fill: #dcfce7; opacity: 0.45"/>
   </g>
   <g id="patch_13">
    <path d="M 559.249891 228.954713 
L 609.243694 228.954713 
L 609.243694 17.061433 
L 559.249891 17.061433 
z
" clip-path="url(#p2b9b443e00)" style="fill: #fee2e2; opacity: 0.45"/>
   </g>
   <g id="patch_14">
    <path d="M 609.243694 228.954713 
L 618.333476 228.954713 
L 618.333476 17.061433 
L 609.243694 17.061433 
z
" clip-path="url(#p2b9b443e00)" style="fill: #ede9fe; opacity: 0.45"/>
   </g>
   <g id="patch_15">
    <path d="M 618.333476 228.954713 
L 736.500647 228.954713 
L 736.500647 17.061433 
L 618.333476 17.061433 
z
" clip-path="url(#p2b9b443e00)" style="fill: #f8fafc; opacity: 0.45"/>
   </g>
   <g id="patch_16">
    <path d="M 736.500647 228.954713 
L 759.225103 228.954713 
L 759.225103 17.061433 
L 736.500647 17.061433 
z
" clip-path="url(#p2b9b443e00)" style="fill: #eff6ff; opacity: 0.45"/>
   </g>
   <g id="patch_17">
    <path d="M 759.225103 228.954713 
L 781.949558 228.954713 
L 781.949558 17.061433 
L 759.225103 17.061433 
z
" clip-path="url(#p2b9b443e00)" style="fill: #fef3c7; opacity: 0.45"/>
   </g>
   <g id="patch_18">
    <path d="M 781.949558 228.954713 
L 813.763797 228.954713 
L 813.763797 17.061433 
L 781.949558 17.061433 
z
" clip-path="url(#p2b9b443e00)" style="fill: #dcfce7; opacity: 0.45"/>
   </g>
   <g id="patch_19">
    <path d="M 813.763797 228.954713 
L 863.7576 228.954713 
L 863.7576 17.061433 
L 813.763797 17.061433 
z
" clip-path="url(#p2b9b443e00)" style="fill: #fee2e2; opacity: 0.45"/>
   </g>
   <g id="patch_20">
    <path d="M 863.7576 228.954713 
L 872.847382 228.954713 
L 872.847382 17.061433 
L 863.7576 17.061433 
z
" clip-path="url(#p2b9b443e00)" style="fill: #ede9fe; opacity: 0.45"/>
   </g>
   <g id="patch_21">
    <path d="M 872.847382 228.954713 
L 913.751403 228.954713 
L 913.751403 17.061433 
L 872.847382 17.061433 
z
" clip-path="url(#p2b9b443e00)" style="fill: #f8fafc; opacity: 0.45"/>
   </g>
   <g id="patch_22">
    <path d="M 913.751403 228.954713 
L 918.296294 228.954713 
L 918.296294 17.061433 
L 913.751403 17.061433 
z
" clip-path="url(#p2b9b443e00)" style="fill: #eff6ff; opacity: 0.45"/>
   </g>
   <g id="matplotlib.axis_1">
    <g id="xtick_1">
     <g id="line2d_1">
      <path d="M 150.209684 228.954713 
L 150.209684 17.061433 
" clip-path="url(#p2b9b443e00)" style="fill: none; stroke: #eef2f7; stroke-width: 0.55; stroke-linecap: square"/>
     </g>
     <g id="line2d_2">
      <defs>
       <path id="m7e11072fc1" d="M 0 0 
L 0 3.5 
" style="stroke: #000000; stroke-width: 0.8"/>
      </defs>
      <g>
       <use xlink:href="#m7e11072fc1" x="150.209684" y="228.954713" style="stroke: #000000; stroke-width: 0.8"/>
      </g>
     </g>
     <g id="text_1">
      <!-- 25 -->
      <g transform="translate(144.483434 242.793307) scale(0.09 -0.09)">
       <defs>
        <path id="DejaVuSans-32" d="M 1228 531 
L 3431 531 
L 3431 0 
L 469 0 
L 469 531 
Q 828 903 1448 1529 
Q 2069 2156 2228 2338 
Q 2531 2678 2651 2914 
Q 2772 3150 2772 3378 
Q 2772 3750 2511 3984 
Q 2250 4219 1831 4219 
Q 1534 4219 1204 4116 
Q 875 4013 500 3803 
L 500 4441 
Q 881 4594 1212 4672 
Q 1544 4750 1819 4750 
Q 2544 4750 2975 4387 
Q 3406 4025 3406 3419 
Q 3406 3131 3298 2873 
Q 3191 2616 2906 2266 
Q 2828 2175 2409 1742 
Q 1991 1309 1228 531 
z
" transform="scale(0.015625)"/>
        <path id="DejaVuSans-35" d="M 691 4666 
L 3169 4666 
L 3169 4134 
L 1269 4134 
L 1269 2991 
Q 1406 3038 1543 3061 
Q 1681 3084 1819 3084 
Q 2600 3084 3056 2656 
Q 3513 2228 3513 1497 
Q 3513 744 3044 326 
Q 2575 -91 1722 -91 
Q 1428 -91 1123 -41 
Q 819 9 494 109 
L 494 744 
Q 775 591 1075 516 
Q 1375 441 1709 441 
Q 2250 441 2565 725 
Q 2881 1009 2881 1497 
Q 2881 1984 2565 2268 
Q 2250 2553 1709 2553 
Q 1456 2553 1204 2497 
Q 953 2441 691 2322 
L 691 4666 
z
" transform="scale(0.015625)"/>
       </defs>
       <use xlink:href="#DejaVuSans-32"/>
       <use xlink:href="#DejaVuSans-35" transform="translate(63.623047 0)"/>
      </g>
     </g>
    </g>
    <g id="xtick_2">
     <g id="line2d_3">
      <path d="M 263.831964 228.954713 
L 263.831964 17.061433 
" clip-path="url(#p2b9b443e00)" style="fill: none; stroke: #eef2f7; stroke-width: 0.55; stroke-linecap: square"/>
     </g>
     <g id="line2d_4">
      <g>
       <use xlink:href="#m7e11072fc1" x="263.831964" y="228.954713" style="stroke: #000000; stroke-width: 0.8"/>
      </g>
     </g>
     <g id="text_2">
      <!-- 50 -->
      <g transform="translate(258.105714 242.793307) scale(0.09 -0.09)">
       <defs>
        <path id="DejaVuSans-30" d="M 2034 4250 
Q 1547 4250 1301 3770 
Q 1056 3291 1056 2328 
Q 1056 1369 1301 889 
Q 1547 409 2034 409 
Q 2525 409 2770 889 
Q 3016 1369 3016 2328 
Q 3016 3291 2770 3770 
Q 2525 4250 2034 4250 
z
M 2034 4750 
Q 2819 4750 3233 4129 
Q 3647 3509 3647 2328 
Q 3647 1150 3233 529 
Q 2819 -91 2034 -91 
Q 1250 -91 836 529 
Q 422 1150 422 2328 
Q 422 3509 836 4129 
Q 1250 4750 2034 4750 
z
" transform="scale(0.015625)"/>
       </defs>
       <use xlink:href="#DejaVuSans-35"/>
       <use xlink:href="#DejaVuSans-30" transform="translate(63.623047 0)"/>
      </g>
     </g>
    </g>
    <g id="xtick_3">
     <g id="line2d_5">
      <path d="M 377.454243 228.954713 
L 377.454243 17.061433 
" clip-path="url(#p2b9b443e00)" style="fill: none; stroke: #eef2f7; stroke-width: 0.55; stroke-linecap: square"/>
     </g>
     <g id="line2d_6">
      <g>
       <use xlink:href="#m7e11072fc1" x="377.454243" y="228.954713" style="stroke: #000000; stroke-width: 0.8"/>
      </g>
     </g>
     <g id="text_3">
      <!-- 75 -->
      <g transform="translate(371.727993 242.793307) scale(0.09 -0.09)">
       <defs>
        <path id="DejaVuSans-37" d="M 525 4666 
L 3525 4666 
L 3525 4397 
L 1831 0 
L 1172 0 
L 2766 4134 
L 525 4134 
L 525 4666 
z
" transform="scale(0.015625)"/>
       </defs>
       <use xlink:href="#DejaVuSans-37"/>
       <use xlink:href="#DejaVuSans-35" transform="translate(63.623047 0)"/>
      </g>
     </g>
    </g>
    <g id="xtick_4">
     <g id="line2d_7">
      <path d="M 491.076523 228.954713 
L 491.076523 17.061433 
" clip-path="url(#p2b9b443e00)" style="fill: none; stroke: #eef2f7; stroke-width: 0.55; stroke-linecap: square"/>
     </g>
     <g id="line2d_8">
      <g>
       <use xlink:href="#m7e11072fc1" x="491.076523" y="228.954713" style="stroke: #000000; stroke-width: 0.8"/>
      </g>
     </g>
     <g id="text_4">
      <!-- 100 -->
      <g transform="translate(482.487148 242.793307) scale(0.09 -0.09)">
       <defs>
        <path id="DejaVuSans-31" d="M 794 531 
L 1825 531 
L 1825 4091 
L 703 3866 
L 703 4441 
L 1819 4666 
L 2450 4666 
L 2450 531 
L 3481 531 
L 3481 0 
L 794 0 
L 794 531 
z
" transform="scale(0.015625)"/>
       </defs>
       <use xlink:href="#DejaVuSans-31"/>
       <use xlink:href="#DejaVuSans-30" transform="translate(63.623047 0)"/>
       <use xlink:href="#DejaVuSans-30" transform="translate(127.246094 0)"/>
      </g>
     </g>
    </g>
    <g id="xtick_5">
     <g id="line2d_9">
      <path d="M 604.698802 228.954713 
L 604.698802 17.061433 
" clip-path="url(#p2b9b443e00)" style="fill: none; stroke: #eef2f7; stroke-width: 0.55; stroke-linecap: square"/>
     </g>
     <g id="line2d_10">
      <g>
       <use xlink:href="#m7e11072fc1" x="604.698802" y="228.954713" style="stroke: #000000; stroke-width: 0.8"/>
      </g>
     </g>
     <g id="text_5">
      <!-- 125 -->
      <g transform="translate(596.109427 242.793307) scale(0.09 -0.09)">
       <use xlink:href="#DejaVuSans-31"/>
       <use xlink:href="#DejaVuSans-32" transform="translate(63.623047 0)"/>
       <use xlink:href="#DejaVuSans-35" transform="translate(127.246094 0)"/>
      </g>
     </g>
    </g>
    <g id="xtick_6">
     <g id="line2d_11">
      <path d="M 718.321082 228.954713 
L 718.321082 17.061433 
" clip-path="url(#p2b9b443e00)" style="fill: none; stroke: #eef2f7; stroke-width: 0.55; stroke-linecap: square"/>
     </g>
     <g id="line2d_12">
      <g>
       <use xlink:href="#m7e11072fc1" x="718.321082" y="228.954713" style="stroke: #000000; stroke-width: 0.8"/>
      </g>
     </g>
     <g id="text_6">
      <!-- 150 -->
      <g transform="translate(709.731707 242.793307) scale(0.09 -0.09)">
       <use xlink:href="#DejaVuSans-31"/>
       <use xlink:href="#DejaVuSans-35" transform="translate(63.623047 0)"/>
       <use xlink:href="#DejaVuSans-30" transform="translate(127.246094 0)"/>
      </g>
     </g>
    </g>
    <g id="xtick_7">
     <g id="line2d_13">
      <path d="M 831.943362 228.954713 
L 831.943362 17.061433 
" clip-path="url(#p2b9b443e00)" style="fill: none; stroke: #eef2f7; stroke-width: 0.55; stroke-linecap: square"/>
     </g>
     <g id="line2d_14">
      <g>
       <use xlink:href="#m7e11072fc1" x="831.943362" y="228.954713" style="stroke: #000000; stroke-width: 0.8"/>
      </g>
     </g>
     <g id="text_7">
      <!-- 175 -->
      <g transform="translate(823.353987 242.793307) scale(0.09 -0.09)">
       <use xlink:href="#DejaVuSans-31"/>
       <use xlink:href="#DejaVuSans-37" transform="translate(63.623047 0)"/>
       <use xlink:href="#DejaVuSans-35" transform="translate(127.246094 0)"/>
      </g>
     </g>
    </g>
    <g id="text_8">
     <!-- Minutes since session start -->
     <g transform="translate(419.728281 256.263463) scale(0.1 -0.1)">
      <defs>
       <path id="DejaVuSans-4d" d="M 628 4666 
L 1569 4666 
L 2759 1491 
L 3956 4666 
L 4897 4666 
L 4897 0 
L 4281 0 
L 4281 4097 
L 3078 897 
L 2444 897 
L 1241 4097 
L 1241 0 
L 628 0 
L 628 4666 
z
" transform="scale(0.015625)"/>
       <path id="DejaVuSans-69" d="M 603 3500 
L 1178 3500 
L 1178 0 
L 603 0 
L 603 3500 
z
M 603 4863 
L 1178 4863 
L 1178 4134 
L 603 4134 
L 603 4863 
z
" transform="scale(0.015625)"/>
       <path id="DejaVuSans-6e" d="M 3513 2113 
L 3513 0 
L 2938 0 
L 2938 2094 
Q 2938 2591 2744 2837 
Q 2550 3084 2163 3084 
Q 1697 3084 1428 2787 
Q 1159 2491 1159 1978 
L 1159 0 
L 581 0 
L 581 3500 
L 1159 3500 
L 1159 2956 
Q 1366 3272 1645 3428 
Q 1925 3584 2291 3584 
Q 2894 3584 3203 3211 
Q 3513 2838 3513 2113 
z
" transform="scale(0.015625)"/>
       <path id="DejaVuSans-75" d="M 544 1381 
L 544 3500 
L 1119 3500 
L 1119 1403 
Q 1119 906 1312 657 
Q 1506 409 1894 409 
Q 2359 409 2629 706 
Q 2900 1003 2900 1516 
L 2900 3500 
L 3475 3500 
L 3475 0 
L 2900 0 
L 2900 538 
Q 2691 219 2414 64 
Q 2138 -91 1772 -91 
Q 1169 -91 856 284 
Q 544 659 544 1381 
z
M 1991 3584 
L 1991 3584 
z
" transform="scale(0.015625)"/>
       <path id="DejaVuSans-74" d="M 1172 4494 
L 1172 3500 
L 2356 3500 
L 2356 3053 
L 1172 3053 
L 1172 1153 
Q 1172 725 1289 603 
Q 1406 481 1766 481 
L 2356 481 
L 2356 0 
L 1766 0 
Q 1100 0 847 248 
Q 594 497 594 1153 
L 594 3053 
L 172 3053 
L 172 3500 
L 594 3500 
L 594 4494 
L 1172 4494 
z
" transform="scale(0.015625)"/>
       <path id="DejaVuSans-65" d="M 3597 1894 
L 3597 1613 
L 953 1613 
Q 991 1019 1311 708 
Q 1631 397 2203 397 
Q 2534 397 2845 478 
Q 3156 559 3463 722 
L 3463 178 
Q 3153 47 2828 -22 
Q 2503 -91 2169 -91 
Q 1331 -91 842 396 
Q 353 884 353 1716 
Q 353 2575 817 3079 
Q 1281 3584 2069 3584 
Q 2775 3584 3186 3129 
Q 3597 2675 3597 1894 
z
M 3022 2063 
Q 3016 2534 2758 2815 
Q 2500 3097 2075 3097 
Q 1594 3097 1305 2825 
Q 1016 2553 972 2059 
L 3022 2063 
z
" transform="scale(0.015625)"/>
       <path id="DejaVuSans-73" d="M 2834 3397 
L 2834 2853 
Q 2591 2978 2328 3040 
Q 2066 3103 1784 3103 
Q 1356 3103 1142 2972 
Q 928 2841 928 2578 
Q 928 2378 1081 2264 
Q 1234 2150 1697 2047 
L 1894 2003 
Q 2506 1872 2764 1633 
Q 3022 1394 3022 966 
Q 3022 478 2636 193 
Q 2250 -91 1575 -91 
Q 1294 -91 989 -36 
Q 684 19 347 128 
L 347 722 
Q 666 556 975 473 
Q 1284 391 1588 391 
Q 1994 391 2212 530 
Q 2431 669 2431 922 
Q 2431 1156 2273 1281 
Q 2116 1406 1581 1522 
L 1381 1569 
Q 847 1681 609 1914 
Q 372 2147 372 2553 
Q 372 3047 722 3315 
Q 1072 3584 1716 3584 
Q 2034 3584 2315 3537 
Q 2597 3491 2834 3397 
z
" transform="scale(0.015625)"/>
       <path id="DejaVuSans-20" transform="scale(0.015625)"/>
       <path id="DejaVuSans-63" d="M 3122 3366 
L 3122 2828 
Q 2878 2963 2633 3030 
Q 2388 3097 2138 3097 
Q 1578 3097 1268 2742 
Q 959 2388 959 1747 
Q 959 1106 1268 751 
Q 1578 397 2138 397 
Q 2388 397 2633 464 
Q 2878 531 3122 666 
L 3122 134 
Q 2881 22 2623 -34 
Q 2366 -91 2075 -91 
Q 1284 -91 818 406 
Q 353 903 353 1747 
Q 353 2603 823 3093 
Q 1294 3584 2113 3584 
Q 2378 3584 2631 3529 
Q 2884 3475 3122 3366 
z
" transform="scale(0.015625)"/>
       <path id="DejaVuSans-6f" d="M 1959 3097 
Q 1497 3097 1228 2736 
Q 959 2375 959 1747 
Q 959 1119 1226 758 
Q 1494 397 1959 397 
Q 2419 397 2687 759 
Q 2956 1122 2956 1747 
Q 2956 2369 2687 2733 
Q 2419 3097 1959 3097 
z
M 1959 3584 
Q 2709 3584 3137 3096 
Q 3566 2609 3566 1747 
Q 3566 888 3137 398 
Q 2709 -91 1959 -91 
Q 1206 -91 779 398 
Q 353 888 353 1747 
Q 353 2609 779 3096 
Q 1206 3584 1959 3584 
z
" transform="scale(0.015625)"/>
       <path id="DejaVuSans-61" d="M 2194 1759 
Q 1497 1759 1228 1600 
Q 959 1441 959 1056 
Q 959 750 1161 570 
Q 1363 391 1709 391 
Q 2188 391 2477 730 
Q 2766 1069 2766 1631 
L 2766 1759 
L 2194 1759 
z
M 3341 1997 
L 3341 0 
L 2766 0 
L 2766 531 
Q 2569 213 2275 61 
Q 1981 -91 1556 -91 
Q 1019 -91 701 211 
Q 384 513 384 1019 
Q 384 1609 779 1909 
Q 1175 2209 1959 2209 
L 2766 2209 
L 2766 2266 
Q 2766 2663 2505 2880 
Q 2244 3097 1772 3097 
Q 1472 3097 1187 3025 
Q 903 2953 641 2809 
L 641 3341 
Q 956 3463 1253 3523 
Q 1550 3584 1831 3584 
Q 2591 3584 2966 3190 
Q 3341 2797 3341 1997 
z
" transform="scale(0.015625)"/>
       <path id="DejaVuSans-72" d="M 2631 2963 
Q 2534 3019 2420 3045 
Q 2306 3072 2169 3072 
Q 1681 3072 1420 2755 
Q 1159 2438 1159 1844 
L 1159 0 
L 581 0 
L 581 3500 
L 1159 3500 
L 1159 2956 
Q 1341 3275 1631 3429 
Q 1922 3584 2338 3584 
Q 2397 3584 2469 3576 
Q 2541 3569 2628 3553 
L 2631 2963 
z
" transform="scale(0.015625)"/>
      </defs>
      <use xlink:href="#DejaVuSans-4d"/>
      <use xlink:href="#DejaVuSans-69" transform="translate(86.279297 0)"/>
      <use xlink:href="#DejaVuSans-6e" transform="translate(114.0625 0)"/>
      <use xlink:href="#DejaVuSans-75" transform="translate(177.441406 0)"/>
      <use xlink:href="#DejaVuSans-74" transform="translate(240.820312 0)"/>
      <use xlink:href="#DejaVuSans-65" transform="translate(280.029297 0)"/>
      <use xlink:href="#DejaVuSans-73" transform="translate(341.552734 0)"/>
      <use xlink:href="#DejaVuSans-20" transform="translate(393.652344 0)"/>
      <use xlink:href="#DejaVuSans-73" transform="translate(425.439453 0)"/>
      <use xlink:href="#DejaVuSans-69" transform="translate(477.539062 0)"/>
      <use xlink:href="#DejaVuSans-6e" transform="translate(505.322266 0)"/>
      <use xlink:href="#DejaVuSans-63" transform="translate(568.701172 0)"/>
      <use xlink:href="#DejaVuSans-65" transform="translate(623.681641 0)"/>
      <use xlink:href="#DejaVuSans-20" transform="translate(685.205078 0)"/>
      <use xlink:href="#DejaVuSans-73" transform="translate(716.992188 0)"/>
      <use xlink:href="#DejaVuSans-65" transform="translate(769.091797 0)"/>
      <use xlink:href="#DejaVuSans-73" transform="translate(830.615234 0)"/>
      <use xlink:href="#DejaVuSans-73" transform="translate(882.714844 0)"/>
      <use xlink:href="#DejaVuSans-69" transform="translate(934.814453 0)"/>
      <use xlink:href="#DejaVuSans-6f" transform="translate(962.597656 0)"/>
      <use xlink:href="#DejaVuSans-6e" transform="translate(1023.779297 0)"/>
      <use xlink:href="#DejaVuSans-20" transform="translate(1087.158203 0)"/>
      <use xlink:href="#DejaVuSans-73" transform="translate(1118.945312 0)"/>
      <use xlink:href="#DejaVuSans-74" transform="translate(1171.044922 0)"/>
      <use xlink:href="#DejaVuSans-61" transform="translate(1210.253906 0)"/>
      <use xlink:href="#DejaVuSans-72" transform="translate(1271.533203 0)"/>
      <use xlink:href="#DejaVuSans-74" transform="translate(1312.646484 0)"/>
     </g>
    </g>
   </g>
   <g id="matplotlib.axis_2">
    <g id="ytick_1">
     <g id="line2d_15">
      <path d="M 39.330625 226.639059 
L 935.305625 226.639059 
" clip-path="url(#p2b9b443e00)" style="fill: none; stroke: #eef2f7; stroke-opacity: 0.25; stroke-width: 0.55; stroke-linecap: square"/>
     </g>
     <g id="line2d_16">
      <defs>
       <path id="me098b35e8c" d="M 0 0 
L -3.5 0 
" style="stroke: #000000; stroke-width: 0.8"/>
      </defs>
      <g>
       <use xlink:href="#me098b35e8c" x="39.330625" y="226.639059" style="stroke: #000000; stroke-width: 0.8"/>
      </g>
     </g>
     <g id="text_9">
      <!-- 0 -->
      <g transform="translate(26.604375 230.058356) scale(0.09 -0.09)">
       <use xlink:href="#DejaVuSans-30"/>
      </g>
     </g>
    </g>
    <g id="ytick_2">
     <g id="line2d_17">
      <path d="M 39.330625 199.551412 
L 935.305625 199.551412 
" clip-path="url(#p2b9b443e00)" style="fill: none; stroke: #eef2f7; stroke-opacity: 0.25; stroke-width: 0.55; stroke-linecap: square"/>
     </g>
     <g id="line2d_18">
      <g>
       <use xlink:href="#me098b35e8c" x="39.330625" y="199.551412" style="stroke: #000000; stroke-width: 0.8"/>
      </g>
     </g>
     <g id="text_10">
      <!-- 2 -->
      <g transform="translate(26.604375 202.970709) scale(0.09 -0.09)">
       <use xlink:href="#DejaVuSans-32"/>
      </g>
     </g>
    </g>
    <g id="ytick_3">
     <g id="line2d_19">
      <path d="M 39.330625 172.463765 
L 935.305625 172.463765 
" clip-path="url(#p2b9b443e00)" style="fill: none; stroke: #eef2f7; stroke-opacity: 0.25; stroke-width: 0.55; stroke-linecap: square"/>
     </g>
     <g id="line2d_20">
      <g>
       <use xlink:href="#me098b35e8c" x="39.330625" y="172.463765" style="stroke: #000000; stroke-width: 0.8"/>
      </g>
     </g>
     <g id="text_11">
      <!-- 4 -->
      <g transform="translate(26.604375 175.883061) scale(0.09 -0.09)">
       <defs>
        <path id="DejaVuSans-34" d="M 2419 4116 
L 825 1625 
L 2419 1625 
L 2419 4116 
z
M 2253 4666 
L 3047 4666 
L 3047 1625 
L 3713 1625 
L 3713 1100 
L 3047 1100 
L 3047 0 
L 2419 0 
L 2419 1100 
L 313 1100 
L 313 1709 
L 2253 4666 
z
" transform="scale(0.015625)"/>
       </defs>
       <use xlink:href="#DejaVuSans-34"/>
      </g>
     </g>
    </g>
    <g id="ytick_4">
     <g id="line2d_21">
      <path d="M 39.330625 145.376117 
L 935.305625 145.376117 
" clip-path="url(#p2b9b443e00)" style="fill: none; stroke: #eef2f7; stroke-opacity: 0.25; stroke-width: 0.55; stroke-linecap: square"/>
     </g>
     <g id="line2d_22">
      <g>
       <use xlink:href="#me098b35e8c" x="39.330625" y="145.376117" style="stroke: #000000; stroke-width: 0.8"/>
      </g>
     </g>
     <g id="text_12">
      <!-- 6 -->
      <g transform="translate(26.604375 148.795414) scale(0.09 -0.09)">
       <defs>
        <path id="DejaVuSans-36" d="M 2113 2584 
Q 1688 2584 1439 2293 
Q 1191 2003 1191 1497 
Q 1191 994 1439 701 
Q 1688 409 2113 409 
Q 2538 409 2786 701 
Q 3034 994 3034 1497 
Q 3034 2003 2786 2293 
Q 2538 2584 2113 2584 
z
M 3366 4563 
L 3366 3988 
Q 3128 4100 2886 4159 
Q 2644 4219 2406 4219 
Q 1781 4219 1451 3797 
Q 1122 3375 1075 2522 
Q 1259 2794 1537 2939 
Q 1816 3084 2150 3084 
Q 2853 3084 3261 2657 
Q 3669 2231 3669 1497 
Q 3669 778 3244 343 
Q 2819 -91 2113 -91 
Q 1303 -91 875 529 
Q 447 1150 447 2328 
Q 447 3434 972 4092 
Q 1497 4750 2381 4750 
Q 2619 4750 2861 4703 
Q 3103 4656 3366 4563 
z
" transform="scale(0.015625)"/>
       </defs>
       <use xlink:href="#DejaVuSans-36"/>
      </g>
     </g>
    </g>
    <g id="ytick_5">
     <g id="line2d_23">
      <path d="M 39.330625 118.28847 
L 935.305625 118.28847 
" clip-path="url(#p2b9b443e00)" style="fill: none; stroke: #eef2f7; stroke-opacity: 0.25; stroke-width: 0.55; stroke-linecap: square"/>
     </g>
     <g id="line2d_24">
      <g>
       <use xlink:href="#me098b35e8c" x="39.330625" y="118.28847" style="stroke: #000000; stroke-width: 0.8"/>
      </g>
     </g>
     <g id="text_13">
      <!-- 8 -->
      <g transform="translate(26.604375 121.707767) scale(0.09 -0.09)">
       <defs>
        <path id="DejaVuSans-38" d="M 2034 2216 
Q 1584 2216 1326 1975 
Q 1069 1734 1069 1313 
Q 1069 891 1326 650 
Q 1584 409 2034 409 
Q 2484 409 2743 651 
Q 3003 894 3003 1313 
Q 3003 1734 2745 1975 
Q 2488 2216 2034 2216 
z
M 1403 2484 
Q 997 2584 770 2862 
Q 544 3141 544 3541 
Q 544 4100 942 4425 
Q 1341 4750 2034 4750 
Q 2731 4750 3128 4425 
Q 3525 4100 3525 3541 
Q 3525 3141 3298 2862 
Q 3072 2584 2669 2484 
Q 3125 2378 3379 2068 
Q 3634 1759 3634 1313 
Q 3634 634 3220 271 
Q 2806 -91 2034 -91 
Q 1263 -91 848 271 
Q 434 634 434 1313 
Q 434 1759 690 2068 
Q 947 2378 1403 2484 
z
M 1172 3481 
Q 1172 3119 1398 2916 
Q 1625 2713 2034 2713 
Q 2441 2713 2670 2916 
Q 2900 3119 2900 3481 
Q 2900 3844 2670 4047 
Q 2441 4250 2034 4250 
Q 1625 4250 1398 4047 
Q 1172 3844 1172 3481 
z
" transform="scale(0.015625)"/>
       </defs>
       <use xlink:href="#DejaVuSans-38"/>
      </g>
     </g>
    </g>
    <g id="ytick_6">
     <g id="line2d_25">
      <path d="M 39.330625 91.200823 
L 935.305625 91.200823 
" clip-path="url(#p2b9b443e00)" style="fill: none; stroke: #eef2f7; stroke-opacity: 0.25; stroke-width: 0.55; stroke-linecap: square"/>
     </g>
     <g id="line2d_26">
      <g>
       <use xlink:href="#me098b35e8c" x="39.330625" y="91.200823" style="stroke: #000000; stroke-width: 0.8"/>
      </g>
     </g>
     <g id="text_14">
      <!-- 10 -->
      <g transform="translate(20.878125 94.62012) scale(0.09 -0.09)">
       <use xlink:href="#DejaVuSans-31"/>
       <use xlink:href="#DejaVuSans-30" transform="translate(63.623047 0)"/>
      </g>
     </g>
    </g>
    <g id="ytick_7">
     <g id="line2d_27">
      <path d="M 39.330625 64.113176 
L 935.305625 64.113176 
" clip-path="url(#p2b9b443e00)" style="fill: none; stroke: #eef2f7; stroke-opacity: 0.25; stroke-width: 0.55; stroke-linecap: square"/>
     </g>
     <g id="line2d_28">
      <g>
       <use xlink:href="#me098b35e8c" x="39.330625" y="64.113176" style="stroke: #000000; stroke-width: 0.8"/>
      </g>
     </g>
     <g id="text_15">
      <!-- 12 -->
      <g transform="translate(20.878125 67.532473) scale(0.09 -0.09)">
       <use xlink:href="#DejaVuSans-31"/>
       <use xlink:href="#DejaVuSans-32" transform="translate(63.623047 0)"/>
      </g>
     </g>
    </g>
    <g id="ytick_8">
     <g id="line2d_29">
      <path d="M 39.330625 37.025529 
L 935.305625 37.025529 
" clip-path="url(#p2b9b443e00)" style="fill: none; stroke: #eef2f7; stroke-opacity: 0.25; stroke-width: 0.55; stroke-linecap: square"/>
     </g>
     <g id="line2d_30">
      <g>
       <use xlink:href="#me098b35e8c" x="39.330625" y="37.025529" style="stroke: #000000; stroke-width: 0.8"/>
      </g>
     </g>
     <g id="text_16">
      <!-- 14 -->
      <g transform="translate(20.878125 40.444825) scale(0.09 -0.09)">
       <use xlink:href="#DejaVuSans-31"/>
       <use xlink:href="#DejaVuSans-34" transform="translate(63.623047 0)"/>
      </g>
     </g>
    </g>
    <g id="text_17">
     <!-- EDA (microsiemens) -->
     <g transform="translate(14.798438 173.642448) rotate(-90) scale(0.1 -0.1)">
      <defs>
       <path id="DejaVuSans-45" d="M 628 4666 
L 3578 4666 
L 3578 4134 
L 1259 4134 
L 1259 2753 
L 3481 2753 
L 3481 2222 
L 1259 2222 
L 1259 531 
L 3634 531 
L 3634 0 
L 628 0 
L 628 4666 
z
" transform="scale(0.015625)"/>
       <path id="DejaVuSans-44" d="M 1259 4147 
L 1259 519 
L 2022 519 
Q 2988 519 3436 956 
Q 3884 1394 3884 2338 
Q 3884 3275 3436 3711 
Q 2988 4147 2022 4147 
L 1259 4147 
z
M 628 4666 
L 1925 4666 
Q 3281 4666 3915 4102 
Q 4550 3538 4550 2338 
Q 4550 1131 3912 565 
Q 3275 0 1925 0 
L 628 0 
L 628 4666 
z
" transform="scale(0.015625)"/>
       <path id="DejaVuSans-41" d="M 2188 4044 
L 1331 1722 
L 3047 1722 
L 2188 4044 
z
M 1831 4666 
L 2547 4666 
L 4325 0 
L 3669 0 
L 3244 1197 
L 1141 1197 
L 716 0 
L 50 0 
L 1831 4666 
z
" transform="scale(0.015625)"/>
       <path id="DejaVuSans-28" d="M 1984 4856 
Q 1566 4138 1362 3434 
Q 1159 2731 1159 2009 
Q 1159 1288 1364 580 
Q 1569 -128 1984 -844 
L 1484 -844 
Q 1016 -109 783 600 
Q 550 1309 550 2009 
Q 550 2706 781 3412 
Q 1013 4119 1484 4856 
L 1984 4856 
z
" transform="scale(0.015625)"/>
       <path id="DejaVuSans-6d" d="M 3328 2828 
Q 3544 3216 3844 3400 
Q 4144 3584 4550 3584 
Q 5097 3584 5394 3201 
Q 5691 2819 5691 2113 
L 5691 0 
L 5113 0 
L 5113 2094 
Q 5113 2597 4934 2840 
Q 4756 3084 4391 3084 
Q 3944 3084 3684 2787 
Q 3425 2491 3425 1978 
L 3425 0 
L 2847 0 
L 2847 2094 
Q 2847 2600 2669 2842 
Q 2491 3084 2119 3084 
Q 1678 3084 1418 2786 
Q 1159 2488 1159 1978 
L 1159 0 
L 581 0 
L 581 3500 
L 1159 3500 
L 1159 2956 
Q 1356 3278 1631 3431 
Q 1906 3584 2284 3584 
Q 2666 3584 2933 3390 
Q 3200 3197 3328 2828 
z
" transform="scale(0.015625)"/>
       <path id="DejaVuSans-29" d="M 513 4856 
L 1013 4856 
Q 1481 4119 1714 3412 
Q 1947 2706 1947 2009 
Q 1947 1309 1714 600 
Q 1481 -109 1013 -844 
L 513 -844 
Q 928 -128 1133 580 
Q 1338 1288 1338 2009 
Q 1338 2731 1133 3434 
Q 928 4138 513 4856 
z
" transform="scale(0.015625)"/>
      </defs>
      <use xlink:href="#DejaVuSans-45"/>
      <use xlink:href="#DejaVuSans-44" transform="translate(63.183594 0)"/>
      <use xlink:href="#DejaVuSans-41" transform="translate(138.435547 0)"/>
      <use xlink:href="#DejaVuSans-20" transform="translate(206.84375 0)"/>
      <use xlink:href="#DejaVuSans-28" transform="translate(238.630859 0)"/>
      <use xlink:href="#DejaVuSans-6d" transform="translate(277.644531 0)"/>
      <use xlink:href="#DejaVuSans-69" transform="translate(375.056641 0)"/>
      <use xlink:href="#DejaVuSans-63" transform="translate(402.839844 0)"/>
      <use xlink:href="#DejaVuSans-72" transform="translate(457.820312 0)"/>
      <use xlink:href="#DejaVuSans-6f" transform="translate(496.683594 0)"/>
      <use xlink:href="#DejaVuSans-73" transform="translate(557.865234 0)"/>
      <use xlink:href="#DejaVuSans-69" transform="translate(609.964844 0)"/>
      <use xlink:href="#DejaVuSans-65" transform="translate(637.748047 0)"/>
      <use xlink:href="#DejaVuSans-6d" transform="translate(699.271484 0)"/>
      <use xlink:href="#DejaVuSans-65" transform="translate(796.683594 0)"/>
      <use xlink:href="#DejaVuSans-6e" transform="translate(858.207031 0)"/>
      <use xlink:href="#DejaVuSans-73" transform="translate(921.585938 0)"/>
      <use xlink:href="#DejaVuSans-29" transform="translate(973.685547 0)"/>
     </g>
    </g>
   </g>
   <g id="line2d_31">
    <path d="M 56.560913 194.916444 
L 57.1366 200.599568 
L 57.424443 197.272393 
L 57.712286 198.966996 
L 58.000129 198.656978 
L 58.287972 197.788954 
L 58.575815 198.305651 
L 58.863658 196.797004 
L 59.439345 201.715579 
L 59.727188 201.240191 
L 60.015031 195.061092 
L 60.590717 210.705428 
L 60.87856 211.842025 
L 61.166403 211.697377 
L 61.742089 215.520623 
L 62.317776 217.62857 
L 62.605619 218.186562 
L 62.893462 218.496553 
L 63.181305 218.434563 
L 63.469148 219.013209 
L 63.756991 219.3232 
L 64.044834 216.781255 
L 64.332677 216.967252 
L 64.62052 215.809946 
L 65.771893 217.938574 
L 66.059736 217.690573 
L 66.347579 217.607902 
L 66.635422 216.119937 
L 66.923265 215.355293 
L 67.211108 215.70662 
L 67.786795 213.061376 
L 68.074638 210.230039 
L 68.362481 210.333379 
L 68.938167 199.73168 
L 69.22601 202.418233 
L 69.513853 203.596139 
L 69.801696 197.768367 
L 70.08954 199.979667 
L 70.377383 203.265534 
L 70.665226 200.888864 
L 70.953069 191.320424 
L 71.240912 188.985198 
L 71.528755 197.954324 
L 71.816598 198.40899 
L 72.104441 203.038269 
L 72.392284 188.034557 
L 72.680128 194.461778 
L 72.967971 197.809676 
L 73.255814 189.791191 
L 73.543657 195.639685 
L 74.407186 202.418233 
L 74.982872 206.551537 
L 75.270715 208.039461 
L 75.558559 198.098972 
L 76.134245 204.567502 
L 76.422088 204.588224 
L 76.709931 205.022168 
L 77.285617 207.02679 
L 77.57346 209.114028 
L 78.149147 211.304742 
L 78.43699 210.994724 
L 79.012676 212.17263 
L 79.300519 211.676655 
L 79.588362 208.018739 
L 79.876205 195.102401 
L 80.164048 189.935839 
L 80.451891 191.60972 
L 81.027578 183.074673 
L 81.315421 190.101209 
L 81.603264 193.09778 
L 82.17895 194.461778 
L 82.466793 181.772705 
L 82.754636 184.335332 
L 83.042479 192.622392 
L 83.330323 196.734974 
L 83.618166 194.771661 
L 83.906009 179.644023 
L 84.481695 198.471021 
L 84.769538 204.464163 
L 85.057381 205.290878 
L 85.345224 196.445678 
L 85.633067 200.434334 
L 85.920911 199.421662 
L 86.208754 198.946274 
L 86.496597 196.424955 
L 86.78444 174.188164 
L 87.072283 176.192785 
L 87.360126 167.244246 
L 87.647969 174.353534 
L 88.223655 183.859944 
L 88.511498 188.323853 
L 89.087185 193.635063 
L 89.375028 187.001163 
L 89.662871 191.94046 
L 90.5264 199.421662 
L 91.965616 207.233468 
L 92.253459 207.708721 
L 92.541302 201.901536 
L 92.829145 187.435243 
L 93.692674 201.260913 
L 93.980518 178.796721 
L 94.268361 182.661316 
L 95.13189 201.426283 
L 95.419733 204.567502 
L 95.995419 207.047512 
L 96.858949 208.907485 
L 97.722478 207.212746 
L 98.010321 206.551537 
L 98.298164 207.047512 
L 98.87385 208.742115 
L 99.161693 208.039461 
L 99.73738 209.362016 
L 100.025223 209.217368 
L 101.176595 211.077341 
L 101.752281 211.511421 
L 102.040125 210.023361 
L 102.327968 204.608811 
L 102.615811 205.600761 
L 103.191497 208.432097 
L 103.767183 210.230039 
L 104.055026 211.201402 
L 104.342869 211.697377 
L 104.630713 211.036032 
L 104.918556 211.221989 
L 105.206399 209.568695 
L 105.494242 210.085391 
L 105.782085 209.837404 
L 106.069928 210.664119 
L 106.357771 210.891384 
L 106.645614 208.163387 
L 106.933457 207.874091 
L 107.221301 208.597467 
L 107.509144 209.010689 
L 108.08483 210.684706 
L 108.372673 209.23809 
L 108.660516 209.692756 
L 109.236202 211.408081 
L 110.099732 212.875284 
L 110.387575 211.201402 
L 110.675418 211.34605 
L 111.251104 212.214074 
L 112.114633 212.66874 
L 112.69032 212.833975 
L 112.978163 213.020067 
L 113.266006 211.862747 
L 113.553849 198.098972 
L 113.841692 200.28955 
L 114.417378 206.055427 
L 114.705221 207.874091 
L 114.993064 207.522765 
L 115.568751 209.031411 
L 116.43228 210.002774 
L 116.720123 207.894813 
L 117.007966 190.452536 
L 117.871496 203.947466 
L 118.159339 204.732872 
L 118.735025 207.750165 
L 119.310711 209.217368 
L 119.598554 209.858126 
L 119.886397 210.023361 
L 120.17424 209.196781 
L 120.462083 209.672034 
L 120.749927 209.052133 
L 121.03777 193.242428 
L 121.325613 197.272393 
L 121.613456 199.090922 
L 121.901299 199.090922 
L 122.189142 202.438955 
L 122.476985 201.736301 
L 122.764828 199.586897 
L 123.340515 203.286257 
L 123.628358 204.567502 
L 123.916201 171.54292 
L 124.204044 181.689953 
L 124.491887 187.373212 
L 124.77973 189.501895 
L 125.067573 194.275686 
L 125.355416 193.614477 
L 125.643259 153.459884 
L 125.931103 170.3856 
L 126.218946 175.882767 
L 126.506789 184.128653 
L 126.794632 185.327282 
L 127.082475 184.025314 
L 127.370318 188.013835 
L 127.658161 182.062001 
L 127.946004 187.497138 
L 128.809534 195.784333 
L 129.097377 197.768367 
L 129.38522 195.433006 
L 129.673063 195.267771 
L 130.536592 201.095543 
L 131.112279 203.637583 
L 131.400122 204.402132 
L 131.687965 202.232276 
L 131.975808 201.364253 
L 132.263651 201.736301 
L 132.839337 204.236897 
L 133.12718 204.588224 
L 133.415023 205.414804 
L 133.702866 198.615669 
L 133.99071 197.623719 
L 134.566396 201.260913 
L 134.854239 201.880949 
L 135.142082 203.079578 
L 135.429925 202.790282 
L 136.005611 204.071527 
L 136.293454 204.216175 
L 136.581298 202.707529 
L 137.156984 204.257484 
L 137.73267 205.352773 
L 138.020513 203.575553 
L 138.596199 187.827878 
L 139.171886 195.14371 
L 139.747572 199.628341 
L 140.035415 200.103593 
L 140.323258 193.139088 
L 140.611101 194.937031 
L 141.186787 192.643114 
L 141.762474 197.437627 
L 142.33816 200.599568 
L 142.913846 197.788954 
L 143.201689 182.537254 
L 143.489532 187.786569 
L 143.777375 190.287166 
L 144.065218 189.501895 
L 144.353061 190.94851 
L 144.928748 196.404369 
L 145.216591 192.787762 
L 145.504434 192.457157 
L 146.08012 145.999404 
L 146.367963 167.388894 
L 146.943649 189.274494 
L 147.231493 190.78314 
L 147.519336 195.805055 
L 147.807179 188.67518 
L 148.382865 194.565118 
L 148.670708 187.724539 
L 149.246394 194.627013 
L 149.534237 193.98639 
L 149.822081 196.776282 
L 150.109924 198.264342 
L 150.397767 196.776282 
L 150.68561 148.004025 
L 150.973453 171.439581 
L 151.549139 190.61777 
L 152.124825 199.421662 
L 152.412669 199.73168 
L 152.988355 202.93493 
L 153.564041 205.228847 
L 154.715413 208.390788 
L 155.003256 183.301938 
L 156.154629 201.198882 
L 156.730315 204.54678 
L 157.018158 192.312373 
L 157.593844 198.594947 
L 157.881688 200.103593 
L 158.169531 202.376924 
L 158.745217 204.732872 
L 159.03306 205.559452 
L 159.320903 154.493278 
L 159.608746 154.679234 
L 159.896589 159.143143 
L 160.184432 160.589759 
L 160.472276 157.965101 
L 161.623648 176.833408 
L 161.911491 173.382171 
L 162.199334 176.668038 
L 162.487177 177.887389 
L 163.062864 185.864565 
L 163.350707 189.129846 
L 163.63855 190.865758 
L 164.214236 187.24915 
L 164.789922 193.676372 
L 165.077765 195.122988 
L 165.365608 195.908394 
L 165.653451 174.704861 
L 165.941295 169.765564 
L 166.229138 178.032037 
L 166.516981 178.714104 
L 166.804824 184.335332 
L 167.092667 178.73469 
L 167.38051 178.383364 
L 167.956196 188.654458 
L 168.531883 194.275686 
L 168.819726 131.781098 
L 169.107569 120.290654 
L 169.395412 117.190608 
L 169.971098 153.625254 
L 170.834627 180.677281 
L 171.410314 190.121795 
L 171.698157 192.6637 
L 171.986 192.415713 
L 172.273843 193.449107 
L 172.561686 193.469693 
L 172.849529 110.453504 
L 173.137372 107.208945 
L 173.425215 139.427535 
L 173.713059 152.9226 
L 174.000902 137.898301 
L 174.288745 148.5 
L 174.576588 152.178638 
L 174.864431 157.965101 
L 175.152274 136.245007 
L 175.440117 123.163163 
L 175.72796 133.103652 
L 176.015803 137.236957 
L 176.303647 125.291846 
L 176.879333 146.350731 
L 177.167176 153.129279 
L 177.455019 156.456455 
L 177.742862 164.516384 
L 178.030705 164.950328 
L 178.606391 183.694574 
L 178.894234 190.514431 
L 179.182078 191.506516 
L 179.469921 172.555456 
L 179.757764 180.863373 
L 180.045607 177.556784 
L 180.621293 187.145811 
L 180.909136 190.803862 
L 181.196979 189.997869 
L 181.484822 189.811777 
L 181.772666 191.795812 
L 182.060509 192.76704 
L 182.348352 194.957753 
L 182.636195 195.20574 
L 183.211881 162.801059 
L 183.787567 182.309989 
L 184.363254 192.477744 
L 184.651097 184.810585 
L 185.514626 193.325045 
L 185.802469 194.957753 
L 186.090312 195.805055 
L 186.665998 198.739595 
L 186.953842 199.421662 
L 187.241685 199.752267 
L 187.529528 200.909586 
L 187.817371 200.413612 
L 188.105214 195.680993 
L 188.393057 188.613149 
L 188.968743 194.647735 
L 189.832273 199.772989 
L 190.120116 197.602997 
L 190.407959 198.57436 
L 190.983645 199.628341 
L 191.271488 198.925687 
L 191.559331 199.23557 
L 191.847174 199.277014 
L 192.135017 199.73168 
L 192.422861 124.506575 
L 192.710704 124.175835 
L 192.998547 136.55489 
L 193.28639 159.969723 
L 193.862076 182.495946 
L 194.149919 187.269872 
L 194.437762 177.722019 
L 195.013449 189.129846 
L 195.301292 185.161912 
L 195.589135 143.147481 
L 195.876978 139.055486 
L 196.740507 172.741548 
L 197.02835 166.273018 
L 197.604037 138.414863 
L 197.89188 153.645976 
L 198.179723 158.130471 
L 198.467566 169.207558 
L 199.043252 181.193978 
L 199.906781 191.816399 
L 200.194624 180.842651 
L 200.770311 186.62925 
L 201.63384 196.301029 
L 202.209526 200.744216 
L 202.497369 201.281635 
L 202.785212 202.914208 
L 203.073056 190.452536 
L 203.360899 170.447496 
L 203.648742 183.653265 
L 204.224428 195.887672 
L 204.800114 201.591518 
L 205.087957 203.410183 
L 205.3758 204.484885 
L 205.663644 172.452252 
L 206.527173 193.614477 
L 207.102859 200.55826 
L 207.678545 203.740923 
L 207.966388 204.898107 
L 208.829918 206.551537 
L 209.117761 202.728251 
L 209.405604 204.216175 
L 209.693447 198.57436 
L 209.98129 177.060809 
L 210.269133 187.889909 
L 210.556976 190.163104 
L 210.844819 195.102401 
L 211.708349 202.108215 
L 211.996192 203.554831 
L 212.284035 203.968188 
L 212.571878 204.691564 
L 212.859721 198.450299 
L 213.147564 172.204129 
L 213.435407 170.860853 
L 213.723251 170.096169 
L 214.011094 160.259154 
L 214.298937 159.618396 
L 214.58678 167.01698 
L 215.162466 171.005501 
L 215.450309 179.706053 
L 215.738152 172.26616 
L 216.025995 168.690997 
L 216.313839 171.191593 
L 216.601682 165.921691 
L 216.889525 168.608244 
L 217.753054 186.62925 
L 218.040897 181.028608 
L 218.32874 133.620349 
L 218.616583 150.669992 
L 218.904427 134.198941 
L 219.19227 145.172689 
L 219.480113 150.54593 
L 219.767956 152.467934 
L 220.055799 158.936464 
L 220.343642 158.977773 
L 220.919328 180.512046 
L 221.207171 186.62925 
L 221.495015 156.787195 
L 221.782858 170.922884 
L 222.358544 184.831307 
L 222.93423 193.759125 
L 223.797759 199.607619 
L 224.661289 202.562881 
L 225.236975 204.278206 
L 225.524818 204.381546 
L 225.812661 205.249434 
L 226.100504 205.435526 
L 226.67619 207.006068 
L 227.827563 208.866041 
L 228.403249 209.424046 
L 228.691092 208.824732 
L 228.978935 204.216175 
L 229.266778 195.453728 
L 230.130308 200.909586 
L 230.418151 202.914208 
L 230.705994 195.619098 
L 232.14521 204.071527 
L 232.433053 204.050805 
L 232.720896 204.422854 
L 233.008739 180.677281 
L 233.296582 182.764655 
L 233.584425 189.026506 
L 233.872268 191.981769 
L 234.160111 178.879338 
L 234.735797 191.77509 
L 235.023641 191.155189 
L 235.311484 162.119127 
L 235.599327 177.536062 
L 236.175013 188.819828 
L 236.462856 190.307752 
L 236.750699 179.023986 
L 237.038542 176.048137 
L 237.614229 187.68323 
L 237.902072 191.651164 
L 238.765601 197.706337 
L 239.053444 195.453728 
L 239.916973 199.917637 
L 240.204817 201.219604 
L 240.49266 201.756888 
L 240.780503 196.590326 
L 241.068346 121.179264 
L 241.356189 156.456455 
L 241.644032 161.581709 
L 241.931875 172.245574 
L 242.219718 148.706679 
L 242.507561 152.591996 
L 242.795405 152.653891 
L 243.371091 172.906783 
L 243.658934 179.023986 
L 243.946777 182.537254 
L 244.23462 169.558885 
L 244.522463 151.041905 
L 244.810306 166.644932 
L 245.098149 149.140623 
L 245.385992 166.086926 
L 245.961679 182.537254 
L 246.249522 186.174583 
L 246.537365 191.320424 
L 246.825208 170.137613 
L 247.400894 182.682038 
L 247.97658 190.659079 
L 248.552267 195.805055 
L 248.84011 196.921066 
L 249.127953 198.801626 
L 249.991482 201.736301 
L 250.279325 197.417041 
L 250.567168 188.633871 
L 250.855012 190.473122 
L 251.142855 182.661316 
L 251.718541 190.969097 
L 252.006384 191.878429 
L 252.294227 194.585704 
L 252.58207 192.643114 
L 253.157756 195.412419 
L 253.733443 197.602997 
L 254.021286 183.053951 
L 254.309129 142.837463 
L 254.596972 136.55489 
L 255.172658 158.151193 
L 255.460501 161.065147 
L 256.036187 178.90006 
L 256.324031 183.198599 
L 256.611874 182.537254 
L 256.899717 172.390222 
L 257.18756 172.906783 
L 257.475403 181.028608 
L 257.763246 174.250195 
L 258.051089 175.118083 
L 258.626775 186.62925 
L 259.202462 192.973718 
L 259.778148 196.921066 
L 260.353834 199.628341 
L 260.641677 199.772989 
L 260.92952 200.578982 
L 261.217363 195.019648 
L 261.505207 195.763746 
L 261.79305 196.094351 
L 262.080893 197.830263 
L 262.368736 197.933602 
L 262.656579 197.127609 
L 263.232265 199.896915 
L 263.520108 200.930308 
L 263.807951 201.240191 
L 264.095795 201.736301 
L 264.383638 201.054234 
L 264.671481 199.814297 
L 265.822853 202.93493 
L 266.110696 203.244812 
L 266.398539 203.720201 
L 266.686383 203.926879 
L 266.974226 198.760317 
L 267.262069 191.113745 
L 267.837755 196.03232 
L 268.125598 197.768367 
L 268.413441 196.817726 
L 268.701284 139.737553 
L 268.989127 142.713537 
L 269.27697 117.976014 
L 269.564814 135.128996 
L 269.852657 132.545647 
L 270.1405 127.77172 
L 270.428343 148.376074 
L 271.004029 169.910212 
L 271.579715 127.461837 
L 271.867558 149.82269 
L 272.155402 150.855948 
L 272.443245 151.165966 
L 272.731088 150.318665 
L 273.018931 159.143143 
L 273.306774 156.621825 
L 273.88246 170.592279 
L 274.170303 137.588283 
L 274.458146 148.851327 
L 274.74599 149.388611 
L 275.033833 146.350731 
L 275.321676 157.365787 
L 276.185205 174.064103 
L 276.473048 149.967338 
L 276.760891 162.656411 
L 277.048734 170.426909 
L 277.336578 164.619724 
L 277.624421 169.724255 
L 277.912264 125.415772 
L 278.200107 146.185361 
L 278.48795 144.552788 
L 278.775793 156.022511 
L 279.063636 162.780337 
L 279.351479 157.613775 
L 280.215009 173.650881 
L 280.502852 129.445737 
L 281.078538 161.292413 
L 281.654224 175.345484 
L 282.22991 183.15729 
L 282.517753 185.14119 
L 282.805597 184.169962 
L 283.381283 188.67518 
L 284.532655 194.916444 
L 284.820498 195.619098 
L 285.108341 132.46303 
L 285.396185 133.909645 
L 285.684028 120.31124 
L 285.971871 143.044142 
L 286.547557 166.913641 
L 286.8354 173.712776 
L 287.123243 167.264968 
L 287.411086 169.703533 
L 287.986773 178.528012 
L 288.274616 182.537254 
L 288.562459 175.696811 
L 289.425988 185.327282 
L 290.001674 190.183826 
L 291.153047 195.433006 
L 291.44089 197.127609 
L 291.728733 173.58885 
L 292.016576 180.677281 
L 292.592262 187.001163 
L 293.455792 192.973718 
L 293.743635 193.924359 
L 294.031478 193.635063 
L 294.319321 194.916444 
L 294.607164 145.751417 
L 295.18285 158.60586 
L 295.470693 134.8397 
L 295.758536 153.170588 
L 296.334223 171.088254 
L 296.909909 181.566027 
L 297.197752 175.221422 
L 297.485595 175.862181 
L 297.773438 172.3695 
L 298.349124 181.855323 
L 298.924811 187.68323 
L 299.212654 189.956425 
L 299.500497 189.295216 
L 300.076183 193.180397 
L 300.364026 116.033424 
L 300.651869 147.487329 
L 300.939712 162.098405 
L 301.227555 162.263776 
L 301.803242 174.043516 
L 302.378928 182.516668 
L 302.666771 182.723346 
L 302.954614 179.685331 
L 303.242457 177.887389 
L 303.5303 158.109885 
L 304.105987 171.563507 
L 304.681673 180.408707 
L 304.969516 183.033364 
L 305.257359 183.178012 
L 305.545202 182.144619 
L 305.833045 151.186689 
L 306.120888 165.570365 
L 306.696575 178.404086 
L 306.984418 179.210078 
L 307.272261 180.656694 
L 307.560104 168.256917 
L 307.847947 149.120036 
L 308.423633 168.256917 
L 308.999319 178.383364 
L 309.287163 119.691339 
L 309.575006 104.728936 
L 309.862849 139.716831 
L 310.438535 165.487612 
L 310.726378 152.736644 
L 311.014221 165.260347 
L 311.302064 168.732306 
L 311.589907 149.884721 
L 311.877751 161.974344 
L 312.453437 147.673421 
L 313.029123 164.702341 
L 313.316966 165.652982 
L 313.892652 175.242144 
L 314.468338 181.710675 
L 315.619711 188.985198 
L 316.195397 191.816399 
L 316.771083 193.82102 
L 317.34677 126.965862 
L 317.634613 110.040146 
L 317.922456 142.176118 
L 318.498142 100.058348 
L 318.785985 138.414863 
L 319.073828 154.947944 
L 319.937358 179.540683 
L 320.513044 187.993248 
L 320.800887 190.638492 
L 321.08873 191.113745 
L 321.376573 166.293605 
L 321.664416 178.176685 
L 321.952259 178.73469 
L 322.527946 186.670558 
L 322.815789 181.028608 
L 323.103632 184.665937 
L 323.679318 188.530532 
L 323.967161 191.320424 
L 324.255004 192.99444 
L 324.542847 187.166533 
L 324.83069 184.748554 
L 325.118533 186.856515 
L 325.69422 192.126417 
L 325.982063 193.945081 
L 326.269906 145.358781 
L 326.557749 148.747988 
L 326.845592 167.595573 
L 327.133435 176.730069 
L 327.421278 181.173391 
L 327.709121 128.26783 
L 328.572651 166.210987 
L 329.148337 180.325954 
L 330.011866 189.088537 
L 330.587553 192.953132 
L 330.875396 194.131038 
L 331.163239 193.469693 
L 331.451082 195.433006 
L 331.738925 195.598376 
L 332.314611 197.975046 
L 332.602454 198.925687 
L 332.890297 197.437627 
L 333.178141 198.925687 
L 333.465984 199.40094 
L 334.04167 200.950895 
L 334.329513 193.779711 
L 334.905199 197.458349 
L 335.480885 199.56631 
L 335.768728 200.702908 
L 336.056572 198.450299 
L 336.344415 199.442249 
L 336.632258 197.602997 
L 337.207944 199.194261 
L 338.071473 201.570931 
L 338.359316 201.922258 
L 338.935003 203.244812 
L 339.222846 203.472213 
L 339.510689 204.112836 
L 340.662061 205.352773 
L 340.949904 203.740923 
L 341.237748 195.619098 
L 341.525591 196.611048 
L 341.813434 198.615669 
L 342.964806 202.852177 
L 343.252649 203.162195 
L 343.540492 204.030219 
L 343.828336 204.422854 
L 344.116179 204.54678 
L 344.404022 204.54678 
L 345.267551 205.435526 
L 346.99461 207.047512 
L 347.282453 207.233468 
L 347.570296 207.02679 
L 348.145982 207.357394 
L 348.433825 203.782231 
L 348.721668 203.906157 
L 349.009511 204.567502 
L 349.585198 142.713537 
L 349.873041 165.239624 
L 350.160884 148.024747 
L 350.448727 154.389938 
L 350.73657 167.760943 
L 351.024413 158.957186 
L 351.312256 159.184452 
L 351.887943 178.342055 
L 352.175786 152.219947 
L 352.463629 153.625254 
L 352.751472 163.793009 
L 353.039315 132.896974 
L 353.327158 151.475985 
L 353.615001 144.51148 
L 353.902844 163.482991 
L 354.190687 168.690997 
L 354.766374 182.206649 
L 355.054217 171.976864 
L 355.629903 181.896631 
L 355.917746 129.817785 
L 356.205589 132.132425 
L 356.781275 167.409616 
L 357.644805 185.47193 
L 357.932648 186.980576 
L 358.220491 190.431814 
L 358.508334 182.495946 
L 358.796177 186.649836 
L 359.08402 173.940177 
L 359.371863 177.722019 
L 359.659706 175.717397 
L 359.94755 104.666905 
L 360.523236 154.18326 
L 360.811079 168.401566 
L 361.674608 186.133275 
L 362.250294 192.147139 
L 362.825981 195.598376 
L 363.401667 198.388268 
L 363.68951 198.966996 
L 363.977353 181.235286 
L 364.840882 193.469693 
L 365.416569 197.230948 
L 365.704412 198.760317 
L 365.992255 199.586897 
L 366.280098 197.623719 
L 366.567941 198.450299 
L 366.855784 199.752267 
L 367.143627 200.28955 
L 368.007157 202.914208 
L 370.309901 206.840833 
L 371.173431 207.874091 
L 371.749117 208.370066 
L 372.03696 208.721393 
L 372.612646 209.052133 
L 372.900489 209.424046 
L 373.188333 209.486077 
L 373.764019 209.920021 
L 374.051862 209.899435 
L 374.339705 208.886763 
L 374.627548 201.632962 
L 374.915391 203.451491 
L 375.203234 201.77761 
L 375.491077 186.505188 
L 376.066764 194.441056 
L 376.354607 196.755696 
L 376.64245 194.131038 
L 377.218136 198.884243 
L 377.505979 199.628341 
L 377.793822 196.404369 
L 378.081665 191.113745 
L 378.657352 197.230948 
L 379.233038 200.55826 
L 379.520881 201.860227 
L 380.096567 203.224226 
L 380.38441 201.550209 
L 380.672253 198.119694 
L 380.960096 197.582275 
L 381.535783 200.475642 
L 381.823626 201.260913 
L 382.111469 197.768367 
L 382.399312 196.962374 
L 382.974998 200.72363 
L 383.838528 203.120886 
L 384.126371 203.575553 
L 384.414214 203.389596 
L 384.702057 198.264342 
L 384.9899 199.793575 
L 385.277743 199.73168 
L 385.565586 172.43153 
L 385.853429 184.686659 
L 386.429116 193.614477 
L 386.716959 192.787762 
L 387.292645 197.127609 
L 387.580488 166.066339 
L 387.868331 175.262731 
L 388.73186 190.287166 
L 389.019704 180.842651 
L 389.307547 180.842651 
L 389.59539 184.521289 
L 389.883233 117.190608 
L 390.171076 124.506575 
L 390.746762 152.798539 
L 391.034605 162.656411 
L 391.322448 111.032096 
L 391.610291 142.341488 
L 391.898135 154.286599 
L 392.185978 144.490758 
L 392.473821 158.481798 
L 393.049507 171.563507 
L 393.33735 174.229473 
L 393.625193 175.841459 
L 394.200879 183.839222 
L 394.488723 186.133275 
L 394.776566 179.72664 
L 395.064409 180.718725 
L 395.352252 183.322661 
L 395.640095 167.616295 
L 395.927938 176.399464 
L 396.503624 185.161912 
L 397.079311 189.956425 
L 398.230683 195.639685 
L 399.382055 198.925687 
L 400.821271 201.818919 
L 401.109114 202.232276 
L 401.396957 200.764938 
L 401.6848 200.909586 
L 401.972643 201.364253 
L 402.260487 201.074956 
L 402.836173 202.418233 
L 403.124016 202.728251 
L 403.411859 203.410183 
L 403.699702 203.720201 
L 403.987545 203.224226 
L 404.275388 201.44687 
L 404.563231 201.281635 
L 404.851074 197.954324 
L 405.138918 198.615669 
L 405.426761 199.648927 
L 405.714604 200.103593 
L 406.578133 202.232276 
L 406.865976 202.707529 
L 407.441662 202.790282 
L 407.729506 203.637583 
L 408.593035 204.691564 
L 408.880878 204.774181 
L 409.456564 205.724822 
L 409.744407 205.559452 
L 410.03225 198.264342 
L 410.320094 160.610481 
L 410.607937 174.394843 
L 410.89578 150.54593 
L 411.183623 166.78958 
L 411.471466 174.043516 
L 411.759309 166.396944 
L 412.047152 148.5 
L 412.622838 165.590951 
L 412.910682 133.785719 
L 413.198525 137.588283 
L 414.63774 173.072153 
L 414.925583 175.882767 
L 415.213426 131.842993 
L 415.789113 152.881292 
L 416.364799 165.07439 
L 416.940485 173.940177 
L 417.228328 176.709482 
L 417.516171 157.241861 
L 417.804014 166.479697 
L 418.379701 175.035466 
L 418.955387 181.028608 
L 419.818916 187.373212 
L 420.394602 189.956425 
L 420.682445 190.700523 
L 420.970289 181.545305 
L 421.258132 180.346676 
L 422.121661 186.670558 
L 422.409504 186.649836 
L 422.697347 182.847272 
L 422.98519 151.538015 
L 423.273033 149.863999 
L 423.560877 157.985823 
L 423.84872 148.644648 
L 424.136563 157.634497 
L 424.424406 162.449732 
L 424.712249 124.485853 
L 425.000092 116.38475 
L 425.287935 134.922317 
L 425.863621 153.294649 
L 426.727151 168.732306 
L 427.302837 175.097496 
L 427.59068 176.192785 
L 428.454209 182.185927 
L 428.742052 182.041279 
L 429.317739 184.975955 
L 429.605582 184.397227 
L 429.893425 182.537254 
L 430.181268 176.337434 
L 430.469111 145.834034 
L 430.756954 159.308513 
L 431.33264 170.902162 
L 431.908327 178.052759 
L 432.19617 178.693382 
L 432.484013 175.841459 
L 432.771856 175.221422 
L 433.059699 178.01145 
L 433.347542 178.218129 
L 433.635385 176.895439 
L 433.923228 173.42348 
L 434.211072 175.510854 
L 434.786758 181.359348 
L 435.074601 177.164149 
L 435.362444 156.973152 
L 436.225973 178.073345 
L 436.513816 176.68876 
L 436.801659 167.079011 
L 437.089503 137.236957 
L 437.377346 156.663134 
L 437.953032 170.550835 
L 438.528718 178.383364 
L 438.816561 167.926313 
L 439.392247 175.655502 
L 439.680091 178.528012 
L 440.255777 175.531441 
L 440.54362 177.722019 
L 440.831463 146.702058 
L 441.119306 152.550552 
L 441.407149 163.400373 
L 441.694992 155.1339 
L 441.982835 168.256917 
L 442.270679 173.878146 
L 442.846365 177.68071 
L 443.422051 183.178012 
L 444.28558 188.964476 
L 444.861267 191.651164 
L 446.012639 195.247049 
L 446.300482 195.474315 
L 447.164011 197.582275 
L 447.739698 198.946274 
L 448.027541 199.008304 
L 448.315384 198.760317 
L 448.89107 199.979667 
L 450.042442 201.77761 
L 450.330286 201.901536 
L 450.905972 202.707529 
L 451.193815 197.107022 
L 451.481658 198.57436 
L 452.057344 200.062285 
L 452.345187 200.72363 
L 452.63303 198.966996 
L 452.920874 198.284929 
L 453.49656 200.083007 
L 453.784403 190.969097 
L 454.360089 150.215326 
L 454.935775 167.430338 
L 455.223618 168.608244 
L 455.511462 158.771094 
L 455.799305 170.612866 
L 456.374991 182.37202 
L 456.662834 185.802535 
L 456.950677 183.839222 
L 457.23852 185.843843 
L 457.526363 186.649836 
L 457.814206 187.993248 
L 458.389893 191.506516 
L 458.965579 194.358439 
L 459.253422 195.288358 
L 459.541265 188.67518 
L 459.829108 191.651164 
L 460.404794 194.585704 
L 460.692637 195.267771 
L 461.556167 197.954324 
L 462.419696 199.938223 
L 462.707539 200.103593 
L 462.995382 124.651223 
L 463.283225 102.95158 
L 463.571069 120.64198 
L 463.858912 150.690578 
L 464.434598 172.224851 
L 465.010284 183.984005 
L 465.58597 190.328474 
L 465.873813 190.431814 
L 466.4495 194.316995 
L 467.025186 196.569739 
L 467.313029 197.044992 
L 467.600872 186.79462 
L 467.888715 182.516668 
L 468.464401 189.295216 
L 469.040088 193.283736 
L 469.615774 196.115073 
L 470.479303 198.739595 
L 471.054989 200.041563 
L 471.342832 200.413612 
L 471.630676 200.599568 
L 471.918519 201.405561 
L 472.206362 137.77424 
L 472.494205 145.40009 
L 472.782048 164.784958 
L 473.357734 180.863373 
L 473.93342 189.150568 
L 474.221264 191.692473 
L 475.084793 195.598376 
L 475.948322 198.450299 
L 476.236165 180.367398 
L 476.524008 113.202087 
L 476.811852 99.810361 
L 477.099695 78.070086 
L 477.387538 113.264118 
L 477.675381 126.800492 
L 478.251067 132.545647 
L 478.826753 147.694007 
L 479.114596 149.678042 
L 479.690283 160.81716 
L 480.553812 171.770185 
L 480.841655 175.386793 
L 481.129498 171.026223 
L 481.705184 178.404086 
L 481.993027 118.823316 
L 482.280871 97.950387 
L 482.568714 121.323912 
L 482.856557 107.890877 
L 483.1444 127.93709 
L 484.007929 156.683856 
L 484.583615 168.236331 
L 485.159302 174.911404 
L 485.734988 179.458066 
L 486.310674 182.661316 
L 486.598517 181.152669 
L 486.88636 173.464789 
L 487.174203 153.955859 
L 487.74989 168.360257 
L 488.037733 160.961808 
L 488.325576 168.463596 
L 488.613419 172.886196 
L 489.764791 183.178012 
L 490.340478 186.153861 
L 490.628321 186.69128 
L 490.916164 169.620916 
L 491.204007 171.914833 
L 491.49185 175.63478 
L 491.779693 60.834216 
L 492.067536 123.390564 
L 492.643223 152.963909 
L 492.931066 136.88563 
L 493.506752 159.101834 
L 493.794595 166.438253 
L 494.082438 153.91455 
L 494.370281 133.764997 
L 494.658124 130.478995 
L 494.945967 146.536688 
L 495.23381 151.331337 
L 495.521654 162.139714 
L 496.09734 173.547541 
L 496.385183 169.579607 
L 496.673026 174.560078 
L 496.960869 133.640936 
L 497.248712 123.84523 
L 497.536555 149.368024 
L 498.112242 169.248867 
L 498.687928 179.72664 
L 499.263614 186.029935 
L 499.8393 190.018456 
L 500.127143 188.819828 
L 500.414986 190.514431 
L 500.990673 179.644023 
L 501.566359 186.029935 
L 502.429888 191.134467 
L 503.005574 193.676372 
L 503.293418 168.752892 
L 503.581261 163.276312 
L 503.869104 172.26616 
L 504.156947 177.68071 
L 505.596162 190.080487 
L 505.884005 186.215892 
L 506.459692 173.58885 
L 507.035378 182.227372 
L 507.611064 187.786569 
L 508.18675 191.113745 
L 508.474593 119.029994 
L 508.762437 93.321109 
L 509.05028 87.679429 
L 509.338123 132.318382 
L 509.913809 158.151193 
L 510.489495 173.196215 
L 511.065181 181.359348 
L 511.353025 182.227372 
L 511.928711 187.001163 
L 513.080083 192.643114 
L 513.367926 176.606143 
L 513.655769 176.192785 
L 513.943613 177.804771 
L 514.519299 184.707246 
L 515.094985 188.799241 
L 515.670671 191.589133 
L 516.246357 193.800433 
L 516.822044 195.453728 
L 517.109887 189.667129 
L 517.39773 190.142517 
L 518.261259 194.15176 
L 518.549102 192.085108 
L 519.700475 196.569739 
L 519.988318 196.962374 
L 520.276161 197.107022 
L 520.564004 179.644023 
L 520.851847 148.43797 
L 521.13969 162.305084 
L 521.715376 175.63478 
L 522.00322 178.90006 
L 522.291063 180.181306 
L 522.578906 180.718725 
L 523.154592 186.174583 
L 523.730278 189.605099 
L 524.305964 192.457157 
L 524.593808 192.808484 
L 524.881651 156.12585 
L 525.457337 172.886196 
L 525.74518 178.197407 
L 526.033023 181.359348 
L 526.320866 186.009213 
L 526.608709 146.846706 
L 527.184395 170.881575 
L 527.472239 156.828504 
L 528.047925 153.439297 
L 528.623611 171.253488 
L 528.911454 175.552163 
L 529.199297 175.717397 
L 529.48714 179.850701 
L 529.774983 162.511763 
L 530.062827 170.282261 
L 530.638513 178.90006 
L 530.926356 181.876045 
L 531.214199 115.88864 
L 531.502042 113.532692 
L 531.789885 143.891443 
L 532.077728 116.364028 
L 532.365571 136.389655 
L 533.229101 166.810302 
L 533.516944 173.444202 
L 533.804787 173.402893 
L 534.09263 169.269589 
L 534.380473 152.178638 
L 534.668316 160.135093 
L 535.531846 172.741548 
L 535.819689 173.072153 
L 536.107532 181.689953 
L 536.971061 189.667129 
L 537.546747 192.808484 
L 538.122434 194.97834 
L 538.410277 195.743024 
L 538.69812 195.577654 
L 538.985963 195.081679 
L 539.561649 197.127609 
L 540.137335 198.656978 
L 540.425178 198.284929 
L 540.713022 196.094351 
L 541.000865 197.230948 
L 541.288708 167.946899 
L 541.576551 105.782916 
L 541.864394 134.075015 
L 542.44008 158.316428 
L 542.727923 150.422004 
L 543.30361 170.592279 
L 543.879296 181.131947 
L 544.454982 187.331903 
L 545.030668 191.279115 
L 545.606354 193.965668 
L 545.894198 139.861479 
L 546.182041 133.2483 
L 546.469884 107.394902 
L 547.333413 159.515057 
L 547.909099 148.851327 
L 548.772629 170.075582 
L 549.060472 133.2483 
L 549.348315 156.518486 
L 549.636158 132.111703 
L 549.924001 153.335958 
L 550.211844 157.1178 
L 550.499687 157.138522 
L 550.78753 161.623017 
L 551.075373 168.773614 
L 551.363217 169.889625 
L 551.65106 160.71382 
L 552.514589 175.386793 
L 553.090275 181.834601 
L 553.953805 187.311181 
L 554.529491 189.336525 
L 554.817334 190.803862 
L 555.105177 191.423763 
L 555.968706 194.2551 
L 556.832236 196.259721 
L 557.120079 193.490415 
L 557.407922 192.99444 
L 557.983608 195.30908 
L 558.271451 195.784333 
L 558.559294 195.598376 
L 559.422824 197.768367 
L 559.710667 197.582275 
L 559.99851 197.25167 
L 560.286353 197.892293 
L 560.574196 198.016355 
L 560.862039 199.070335 
L 561.437725 199.938223 
L 561.725568 199.628341 
L 562.013412 197.768367 
L 562.301255 198.780904 
L 563.164784 200.310272 
L 563.452627 153.129279 
L 563.74047 162.449732 
L 564.028313 153.955859 
L 564.604 163.793009 
L 564.891843 169.228281 
L 566.043215 180.677281 
L 566.331058 155.753801 
L 566.618901 167.637017 
L 567.194588 176.068724 
L 567.770274 180.367398 
L 568.058117 182.867994 
L 568.34596 156.807782 
L 568.633803 150.98001 
L 569.209489 167.740221 
L 569.785176 176.192785 
L 570.073019 172.224851 
L 570.648705 179.06543 
L 571.224391 183.343247 
L 572.08792 187.476551 
L 572.663607 189.150568 
L 573.239293 190.94851 
L 573.527136 191.444485 
L 573.814979 192.457157 
L 574.390665 190.431814 
L 574.678508 181.173391 
L 574.966351 184.810585 
L 575.254195 180.367398 
L 575.542038 110.019424 
L 575.829881 124.155248 
L 576.117724 129.569798 
L 576.405567 123.700582 
L 576.69341 129.25978 
L 576.981253 141.742174 
L 577.269096 137.691623 
L 577.556939 149.326715 
L 577.844783 136.224285 
L 578.132626 149.368024 
L 578.708312 157.489849 
L 578.996155 160.465833 
L 579.283998 114.380129 
L 579.571841 138.228906 
L 579.859684 116.715355 
L 580.147527 103.757573 
L 580.435371 128.412478 
L 580.723214 122.171213 
L 581.011057 119.691339 
L 581.2989 121.695961 
L 581.586743 131.739654 
L 581.874586 124.67181 
L 582.162429 92.411912 
L 582.450272 126.15987 
L 583.313802 148.644648 
L 583.889488 158.316428 
L 584.465174 164.433632 
L 584.753017 149.120036 
L 585.04086 157.675805 
L 585.616546 164.536971 
L 587.055762 175.035466 
L 587.343605 176.564699 
L 587.631448 161.292413 
L 587.919291 138.869529 
L 588.207134 153.005218 
L 588.494978 150.339251 
L 588.782821 46.718843 
L 589.070664 88.154817 
L 589.358507 94.643798 
L 589.64635 124.134526 
L 590.222036 148.83074 
L 590.797722 163.400373 
L 591.085566 169.455546 
L 591.373409 172.245574 
L 591.949095 179.499375 
L 592.524781 184.355919 
L 592.812624 164.103027 
L 593.100467 168.091547 
L 593.38831 174.704861 
L 593.963997 180.863373 
L 594.25184 183.281352 
L 594.539683 183.487895 
L 595.115369 188.013835 
L 596.266741 192.643114 
L 596.554585 154.327908 
L 596.842428 133.2483 
L 597.130271 155.361166 
L 597.705957 171.584229 
L 597.9938 176.874717 
L 598.281643 178.404086 
L 598.569486 155.547258 
L 599.145173 170.075582 
L 599.433016 166.148957 
L 600.008702 176.068724 
L 600.872231 183.508617 
L 601.447917 187.166533 
L 601.735761 188.50981 
L 602.023604 183.178012 
L 602.311447 186.174583 
L 602.59929 187.827878 
L 602.887133 188.158483 
L 603.174976 187.869187 
L 603.750662 190.638492 
L 604.614192 193.283736 
L 604.902035 188.695902 
L 605.189878 168.773614 
L 605.765564 179.499375 
L 606.053407 182.99192 
L 606.34125 149.678042 
L 606.629093 153.480606 
L 607.20478 170.716205 
L 607.492623 153.459884 
L 607.780466 164.268397 
L 608.356152 174.890818 
L 608.931838 181.669366 
L 609.219681 89.70423 
L 609.795368 138.208184 
L 610.371054 156.663134 
L 610.658897 162.59438 
L 610.94674 162.615102 
L 611.234583 159.65984 
L 611.522426 170.199508 
L 611.810269 175.717397 
L 612.098112 155.113178 
L 612.385956 166.624345 
L 612.673799 173.072153 
L 612.961642 163.607052 
L 613.537328 179.044708 
L 613.825171 173.919455 
L 614.113014 182.557976 
L 614.400857 183.963283 
L 614.6887 183.343247 
L 614.976544 176.254816 
L 615.264387 77.262874 
L 615.55223 84.558932 
L 615.840073 119.649895 
L 616.127916 138.497616 
L 616.415759 148.376074 
L 616.703602 162.470454 
L 616.991445 157.820453 
L 617.279288 171.253488 
L 617.854975 181.193978 
L 618.142818 183.880666 
L 618.718504 168.442874 
L 619.29419 180.305368 
L 619.582033 178.342055 
L 619.869876 179.912732 
L 620.157719 184.872616 
L 620.445563 187.35249 
L 620.733406 188.50981 
L 621.309092 191.981769 
L 621.596935 193.118366 
L 621.884778 193.469693 
L 622.460464 195.412419 
L 622.748307 195.763746 
L 623.036151 196.900344 
L 623.323994 197.458349 
L 623.89968 198.780904 
L 624.475366 199.772989 
L 624.763209 130.954383 
L 625.051052 131.30571 
L 625.338895 149.65732 
L 625.626739 142.19684 
L 626.202425 165.818352 
L 626.490268 155.030561 
L 626.778111 157.138522 
L 627.065954 169.06291 
L 627.64164 180.119411 
L 627.929483 183.673987 
L 628.217327 174.188164 
L 628.50517 171.956142 
L 628.793013 146.144052 
L 629.080856 162.924985 
L 629.368699 168.194887 
L 629.656542 175.738119 
L 629.944385 177.887389 
L 630.520071 185.513239 
L 630.807914 187.827878 
L 631.095758 187.207842 
L 631.671444 191.485794 
L 631.959287 192.76704 
L 632.24713 188.117174 
L 632.534973 181.2147 
L 632.822816 185.037986 
L 633.686346 190.803862 
L 634.262032 192.953132 
L 634.549875 190.411091 
L 635.125561 193.469693 
L 635.413404 193.304459 
L 635.701247 131.760376 
L 635.98909 121.46856 
L 636.276934 153.521915 
L 636.564777 149.801968 
L 636.85262 150.070677 
L 637.140463 154.162537 
L 638.003992 172.617487 
L 638.867522 185.988627 
L 639.443208 189.956425 
L 640.018894 192.519052 
L 641.170266 195.970425 
L 641.745953 197.437627 
L 642.033796 192.126417 
L 642.321639 193.82102 
L 642.609482 169.765564 
L 643.760854 185.657887 
L 644.336541 189.646543 
L 644.912227 192.477744 
L 645.20007 193.15981 
L 646.063599 195.701715 
L 646.351442 190.824449 
L 646.639285 192.808484 
L 647.214972 194.771661 
L 647.790658 196.280307 
L 648.366344 197.292979 
L 648.654187 197.0863 
L 649.229873 198.264342 
L 649.517717 198.946274 
L 649.80556 199.23557 
L 650.381246 200.083007 
L 650.956932 200.909586 
L 651.244775 201.054234 
L 651.820461 201.715579 
L 652.108304 172.70024 
L 652.396148 111.218188 
L 653.259677 165.900969 
L 653.54752 162.59438 
L 653.835363 172.245574 
L 654.123206 149.843277 
L 654.411049 150.732022 
L 654.698892 161.292413 
L 654.986736 157.407231 
L 655.274579 161.313135 
L 655.850265 176.378742 
L 656.425951 183.529339 
L 657.001637 188.530532 
L 657.577324 191.630442 
L 657.865167 192.477744 
L 658.15301 176.296125 
L 658.440853 177.577371 
L 659.016539 185.30656 
L 659.592225 189.811777 
L 660.167912 192.643114 
L 660.743598 194.461778 
L 661.319284 189.150568 
L 661.89497 192.787762 
L 662.758499 195.639685 
L 663.046343 196.259721 
L 663.334186 194.213791 
L 663.622029 195.598376 
L 663.909872 103.612925 
L 664.197715 104.604874 
L 664.773401 137.195648 
L 665.349087 154.038611 
L 665.636931 155.299271 
L 666.212617 166.107648 
L 666.50046 162.305084 
L 666.788303 176.895439 
L 667.363989 185.14119 
L 667.939675 189.811777 
L 668.227519 191.279115 
L 668.515362 189.315802 
L 668.803205 192.002491 
L 669.378891 194.296408 
L 669.954577 195.928981 
L 671.10595 198.471021 
L 671.393793 190.473122 
L 671.681636 136.389655 
L 671.969479 121.179264 
L 672.545165 152.095885 
L 672.833008 152.529965 
L 673.120851 165.094976 
L 673.696538 173.733498 
L 674.272224 182.682038 
L 675.135753 122.646602 
L 675.423596 133.971676 
L 675.711439 154.80316 
L 675.999282 137.071586 
L 676.574969 160.135093 
L 676.862812 168.608244 
L 677.150655 163.607052 
L 677.726341 176.027415 
L 678.014184 178.548734 
L 678.302027 175.841459 
L 678.877714 182.413328 
L 679.165557 158.316428 
L 679.4534 170.571557 
L 680.029086 180.325954 
L 680.316929 183.301938 
L 680.604772 184.004592 
L 680.892615 174.208751 
L 681.180458 175.841459 
L 681.468302 109.91622 
L 682.043988 153.645976 
L 682.619674 165.652982 
L 682.907517 156.001924 
L 683.19536 136.368933 
L 683.483203 155.629875 
L 683.771046 160.920364 
L 684.05889 171.418859 
L 684.346733 176.771378 
L 684.634576 165.322377 
L 684.922419 175.738119 
L 685.210262 179.850701 
L 685.498105 181.04933 
L 685.785948 180.512046 
L 686.937321 190.307752 
L 687.513007 192.746453 
L 688.088693 193.965668 
L 688.664379 183.178012 
L 688.952222 170.571557 
L 689.240065 170.757514 
L 689.815752 161.230382 
L 690.103595 148.83074 
L 690.391438 168.132991 
L 690.679281 174.353534 
L 691.54281 183.859944 
L 691.830653 179.871423 
L 692.118497 51.513357 
L 692.40634 72.737883 
L 692.694183 124.320483 
L 692.982026 146.371453 
L 693.557712 168.112269 
L 694.133398 179.189356 
L 694.421241 174.043516 
L 694.709085 157.1178 
L 695.572614 177.515475 
L 695.860457 181.152669 
L 696.1483 179.354727 
L 696.723986 181.999971 
L 697.299672 187.311181 
L 697.587516 186.153861 
L 698.163202 188.323853 
L 698.451045 190.700523 
L 698.738888 191.981769 
L 699.026731 192.643114 
L 699.602417 194.482365 
L 699.89026 193.304459 
L 700.178104 194.813105 
L 700.75379 196.156381 
L 701.041633 196.383647 
L 701.617319 197.809676 
L 702.193005 199.152952 
L 702.768692 197.0863 
L 703.056535 197.499658 
L 703.344378 198.594947 
L 704.207907 200.103593 
L 704.783593 200.28955 
L 705.35928 201.095543 
L 705.647123 200.537538 
L 705.934966 196.569739 
L 706.222809 195.784333 
L 706.798495 197.747645 
L 707.086338 195.412419 
L 707.374181 196.549017 
L 707.662024 179.230665 
L 707.949867 182.206649 
L 708.237711 178.879338 
L 708.813397 187.641921 
L 709.10124 188.67518 
L 709.389083 191.754503 
L 709.676926 193.552446 
L 709.964769 194.15176 
L 710.540455 196.301029 
L 710.828299 189.129846 
L 711.116142 186.835928 
L 711.691828 191.279115 
L 711.979671 191.795812 
L 712.555357 195.102401 
L 713.131043 196.424955 
L 713.418887 196.734974 
L 713.70673 197.582275 
L 713.994573 197.437627 
L 714.282416 196.590326 
L 715.145945 198.904965 
L 716.009475 200.28955 
L 716.297318 195.350389 
L 716.585161 197.25167 
L 716.873004 198.40899 
L 717.160847 199.090922 
L 717.736533 199.917637 
L 718.312219 200.888864 
L 718.600063 199.421662 
L 720.614964 202.707529 
L 721.19065 203.120886 
L 721.478494 202.872899 
L 721.766337 200.434334 
L 722.629866 202.438955 
L 722.917709 153.211896 
L 723.205552 151.351923 
L 723.493395 155.340579 
L 723.781238 166.892919 
L 724.069082 173.051566 
L 724.356925 176.378742 
L 724.644768 131.615728 
L 724.932611 149.182067 
L 725.508297 165.611673 
L 725.79614 152.674613 
L 726.083983 163.91707 
L 726.371826 150.339251 
L 726.65967 163.131664 
L 726.947513 167.946899 
L 727.235356 157.469127 
L 727.523199 167.079011 
L 728.098885 175.841459 
L 728.386728 178.73469 
L 728.674571 176.089446 
L 728.962414 176.544112 
L 729.250258 174.043516 
L 729.538101 159.246483 
L 730.113787 172.741548 
L 730.40163 176.812822 
L 730.977316 129.507767 
L 731.265159 148.520722 
L 731.840845 166.810302 
L 732.416532 176.874717 
L 732.992218 182.867994 
L 733.567904 186.649836 
L 733.855747 187.35249 
L 734.14359 187.166533 
L 734.431433 186.009213 
L 735.294963 190.452536 
L 735.582806 188.013835 
L 736.158492 190.803862 
L 736.446335 191.279115 
L 736.734178 192.167725 
L 737.597708 193.635063 
L 737.885551 194.316995 
L 738.173394 194.668322 
L 738.461237 195.288358 
L 739.036923 195.949703 
L 739.324766 196.4664 
L 739.900453 197.065714 
L 740.188296 197.685615 
L 740.476139 197.892293 
L 740.763982 198.450299 
L 741.627511 199.462971 
L 741.915354 194.131038 
L 742.203197 195.619098 
L 742.778884 197.0863 
L 744.218099 199.628341 
L 744.505942 199.772989 
L 745.369472 200.62029 
L 745.657315 130.830322 
L 745.945158 130.623778 
L 746.233001 120.166592 
L 746.520844 147.156724 
L 746.808687 140.729502 
L 747.09653 105.369559 
L 747.384373 128.329726 
L 748.535746 158.667755 
L 749.399275 171.21218 
L 749.687118 92.205233 
L 749.974961 133.434393 
L 750.262804 146.55741 
L 750.550648 150.070677 
L 750.838491 159.432439 
L 751.414177 167.885004 
L 751.70202 167.12032 
L 751.989863 62.05316 
L 752.853392 141.246199 
L 753.141235 152.798539 
L 753.429079 155.650597 
L 754.004765 169.744842 
L 754.580451 177.908111 
L 755.44398 185.347868 
L 756.019667 188.695902 
L 756.883196 192.085108 
L 757.171039 193.118366 
L 757.458882 193.655785 
L 757.746725 189.295216 
L 758.034568 129.115132 
L 758.322411 151.86862 
L 758.898098 168.422288 
L 759.185941 165.094976 
L 759.473784 59.015281 
L 759.761627 101.773673 
L 760.04947 104.253547 
L 760.337313 99.562373 
L 760.625156 130.644365 
L 761.200843 153.294649 
L 761.776529 166.603623 
L 762.064372 159.16373 
L 762.352215 166.975672 
L 762.927901 175.221422 
L 763.503587 181.131947 
L 764.079274 184.459258 
L 764.367117 170.3856 
L 764.65496 172.018173 
L 765.230646 179.685331 
L 765.518489 180.677281 
L 766.669862 188.303131 
L 766.957705 175.056188 
L 767.245548 176.192785 
L 767.533391 179.912732 
L 767.821234 176.048137 
L 768.109077 180.718725 
L 768.39692 173.774807 
L 768.684763 90.634691 
L 768.972606 134.860286 
L 769.26045 148.045334 
L 769.548293 152.550552 
L 769.836136 137.360883 
L 770.123979 154.18326 
L 770.699665 166.913641 
L 771.275351 175.531441 
L 771.563194 178.90006 
L 772.426724 183.281352 
L 773.00241 186.815206 
L 774.441626 191.60972 
L 775.017312 192.76704 
L 775.305155 192.457157 
L 775.880841 180.677281 
L 776.168684 131.119753 
L 776.456527 135.810927 
L 776.74437 153.811211 
L 777.320057 169.930934 
L 777.6079 174.684139 
L 777.895743 176.440773 
L 778.759272 183.694574 
L 779.047115 185.161912 
L 779.334958 182.309989 
L 779.622801 149.719351 
L 780.198488 167.967621 
L 780.774174 176.936748 
L 781.34986 181.876045 
L 781.637703 182.888581 
L 782.213389 186.381262 
L 782.501233 185.389313 
L 782.789076 186.79462 
L 783.364762 120.951863 
L 783.652605 141.080829 
L 783.940448 153.067248 
L 784.228291 152.984631 
L 784.516134 26.692946 
L 784.803977 126.986449 
L 785.091821 149.49195 
L 785.379664 163.131664 
L 786.243193 182.351298 
L 786.531036 182.495946 
L 787.106722 169.930934 
L 787.394565 178.610764 
L 787.970252 137.402191 
L 788.545938 167.574986 
L 789.121624 179.788671 
L 789.409467 181.462687 
L 789.985153 187.166533 
L 790.56084 189.419142 
L 790.848683 191.77509 
L 791.136526 193.118366 
L 791.424369 179.89201 
L 791.712212 136.410242 
L 792.000055 161.292413 
L 792.287898 171.398272 
L 792.863584 182.516668 
L 793.439271 186.608528 
L 793.727114 186.484602 
L 794.014957 187.993248 
L 794.3028 190.142517 
L 794.590643 190.94851 
L 794.878486 184.31461 
L 795.166329 185.533961 
L 795.742016 190.431814 
L 796.317702 192.953132 
L 796.605545 194.316995 
L 796.893388 195.122988 
L 797.181231 194.957753 
L 797.469074 192.147139 
L 797.756917 194.296408 
L 798.332603 196.301029 
L 798.90829 197.623719 
L 799.196133 197.809676 
L 799.483976 197.417041 
L 799.771819 181.318039 
L 800.347505 189.977147 
L 800.923191 193.449107 
L 801.211035 174.704861 
L 801.498878 170.902162 
L 801.786721 178.73469 
L 802.362407 186.835928 
L 802.938093 190.989819 
L 803.225936 189.646543 
L 803.513779 192.126417 
L 804.089466 194.461778 
L 804.665152 195.928981 
L 805.528681 196.921066 
L 805.816524 192.312373 
L 806.104367 194.627013 
L 806.392211 194.813105 
L 806.680054 194.275686 
L 807.25574 196.073629 
L 807.543583 195.288358 
L 807.831426 181.710675 
L 808.407112 188.530532 
L 809.558485 194.647735 
L 811.285543 198.326373 
L 811.86123 199.111644 
L 812.149073 199.090922 
L 812.436916 199.256292 
L 813.588288 201.054234 
L 813.876131 201.34353 
L 814.163974 185.533961 
L 814.451818 190.741832 
L 814.739661 192.82907 
L 815.027504 193.056471 
L 815.315347 184.004592 
L 815.60319 188.985198 
L 815.891033 191.134467 
L 816.178876 191.816399 
L 816.466719 191.899151 
L 816.754562 188.282544 
L 817.042406 189.811777 
L 817.330249 158.316428 
L 817.618092 173.733498 
L 817.905935 165.715013 
L 818.193778 175.200836 
L 818.481621 180.181306 
L 818.769464 179.871423 
L 819.34515 187.35249 
L 819.920837 190.969097 
L 820.496523 193.283736 
L 821.072209 194.97834 
L 821.360052 178.858752 
L 821.647895 116.343306 
L 821.935738 152.240669 
L 822.511425 172.865474 
L 823.087111 182.888581 
L 823.374954 185.802535 
L 824.814169 192.973718 
L 825.102013 193.614477 
L 825.677699 195.267771 
L 826.253385 196.135659 
L 826.829071 197.0863 
L 827.116914 195.391697 
L 827.404757 196.590326 
L 827.692601 197.272393 
L 827.980444 197.313701 
L 828.268287 195.598376 
L 828.55613 195.928981 
L 828.843973 183.343247 
L 829.131816 184.335332 
L 829.419659 181.855323 
L 829.995345 187.993248 
L 830.283189 189.977147 
L 830.571032 189.605099 
L 830.858875 187.848465 
L 831.434561 191.155189 
L 832.010247 193.118366 
L 832.29809 192.93241 
L 832.585933 186.174583 
L 833.16162 191.155189 
L 833.449463 190.969097 
L 834.600835 195.102401 
L 834.888678 192.126417 
L 835.464364 194.751074 
L 836.040051 196.115073 
L 836.327894 195.908394 
L 836.615737 172.183543 
L 837.191423 168.112269 
L 837.767109 176.709482 
L 838.342796 182.041279 
L 839.206325 151.475985 
L 839.494168 153.769902 
L 839.782011 140.398898 
L 840.069854 157.489849 
L 840.357697 163.090355 
L 840.64554 161.623017 
L 840.933384 143.850135 
L 841.221227 141.742174 
L 841.50907 138.559511 
L 841.796913 152.364595 
L 842.084756 150.339251 
L 842.372599 133.434393 
L 842.660442 152.116607 
L 842.948285 146.330009 
L 843.236128 158.17178 
L 843.523971 162.945707 
L 843.811815 162.139714 
L 844.387501 171.728877 
L 844.963187 177.184735 
L 845.25103 179.354727 
L 845.538873 180.553355 
L 846.114559 183.694574 
L 846.690246 185.967905 
L 846.978089 182.020693 
L 847.265932 182.351298 
L 847.841618 185.823257 
L 848.129461 174.022794 
L 848.417304 171.584229 
L 848.992991 178.714104 
L 849.280834 181.028608 
L 849.568677 180.512046 
L 850.144363 184.004592 
L 850.432206 185.161912 
L 850.720049 183.839222 
L 851.295735 186.46388 
L 851.583579 187.559169 
L 852.447108 189.646543 
L 852.734951 190.597184 
L 853.022794 158.275119 
L 853.310637 161.437061 
L 853.886323 173.898868 
L 854.46201 179.72664 
L 855.037696 184.004592 
L 855.901225 187.311181 
L 856.189068 165.859661 
L 856.476911 172.906783 
L 857.052598 179.023986 
L 857.340441 181.11136 
L 857.628284 180.367398 
L 857.916127 178.714104 
L 859.355342 186.52591 
L 859.643186 186.484602 
L 860.218872 187.972526 
L 860.506715 156.456455 
L 860.794558 143.912165 
L 861.082401 158.109885 
L 861.658087 170.571557 
L 861.94593 174.229473 
L 862.233774 175.200836 
L 862.80946 180.512046 
L 863.097303 182.10331 
L 863.385146 182.537254 
L 863.672989 184.273302 
L 863.960832 184.603906 
L 864.248675 183.033364 
L 864.536518 183.053951 
L 865.112205 185.967905 
L 865.400048 187.021885 
L 865.975734 149.987925 
L 866.263577 155.319857 
L 866.839263 169.703533 
L 867.414949 176.544112 
L 867.990636 180.966712 
L 868.278479 182.37202 
L 868.566322 135.39757 
L 868.854165 158.585138 
L 869.142008 147.487329 
L 869.429851 124.051909 
L 869.717694 145.751417 
L 870.005537 157.469127 
L 870.581224 170.075582 
L 871.15691 176.234094 
L 871.444753 176.027415 
L 871.732596 175.552163 
L 872.308282 180.698003 
L 872.883969 184.025314 
L 873.171812 175.076774 
L 873.459655 178.445394 
L 873.747498 176.027415 
L 874.035341 180.036658 
L 874.323184 181.669366 
L 874.611027 181.338626 
L 874.89887 178.714104 
L 875.186713 147.528773 
L 875.474557 159.287791 
L 875.7624 161.437061 
L 876.050243 168.091547 
L 876.338086 170.550835 
L 876.625929 165.322377 
L 876.913772 163.090355 
L 877.201615 163.793009 
L 877.489458 167.595573 
L 877.777301 164.123749 
L 878.065144 170.447496 
L 878.352988 169.538299 
L 878.640831 165.384272 
L 879.216517 173.919455 
L 879.50436 175.531441 
L 880.080046 179.850701 
L 880.655732 182.826686 
L 880.943576 184.025314 
L 881.231419 184.500567 
L 881.519262 172.53487 
L 881.807105 168.132991 
L 882.382791 172.53487 
L 882.670634 174.31209 
L 882.958477 175.035466 
L 883.24632 173.568128 
L 883.534164 166.562314 
L 883.822007 170.736927 
L 884.397693 136.740982 
L 884.685536 150.669992 
L 885.261222 162.924985 
L 886.124752 172.43153 
L 886.700438 176.874717 
L 886.988281 178.445394 
L 887.276124 67.157827 
L 887.563967 99.438312 
L 888.139653 137.546975 
L 888.715339 155.650597 
L 889.003183 157.655219 
L 889.291026 59.097898 
L 889.578869 115.743992 
L 890.154555 139.406813 
L 890.442398 139.262164 
L 890.730241 132.959004 
L 891.018084 139.344917 
L 891.593771 155.650597 
L 892.169457 165.260347 
L 893.032986 174.518769 
L 893.608672 178.693382 
L 894.472202 183.198599 
L 895.623574 187.269872 
L 895.911417 177.040087 
L 896.19926 176.358156 
L 896.487103 179.044708 
L 897.06279 182.185927 
L 897.638476 132.277073 
L 897.926319 148.5 
L 898.214162 148.148673 
L 898.502005 153.811211 
L 898.789848 165.404995 
L 899.077691 163.565743 
L 899.365535 144.201462 
L 899.653378 160.093784 
L 899.941221 167.595573 
L 900.229064 163.482991 
L 900.516907 109.110227 
L 900.80475 134.116324 
L 901.380436 151.641219 
L 901.956122 162.966429 
L 902.531809 170.240952 
L 903.107495 175.180114 
L 903.971024 179.437344 
L 904.54671 181.855323 
L 904.834554 181.876045 
L 906.849455 187.331903 
L 907.137298 186.79462 
L 907.425142 187.331903 
L 907.712985 188.489223 
L 908.000828 189.150568 
L 908.288671 189.129846 
L 908.576514 189.460451 
L 909.1522 191.237806 
L 909.440043 190.78314 
L 909.727886 139.923509 
L 910.01573 155.691906 
L 910.591416 166.541592 
L 912.030631 179.06543 
L 912.318474 180.677281 
L 912.606317 180.863373 
L 912.894161 174.229473 
L 913.182004 119.525969 
L 913.469847 115.537313 
L 913.75769 72.903117 
L 914.045533 130.809735 
L 914.621219 158.461212 
L 914.909062 165.777043 
L 915.196905 158.647168 
L 915.484749 131.595006 
L 916.060435 162.325671 
L 916.348278 162.449732 
L 916.636121 132.29766 
L 916.923964 140.584854 
L 917.211807 154.617204 
L 917.787493 168.236331 
L 918.075337 172.865474 
L 918.075337 172.865474 
" clip-path="url(#p2b9b443e00)" style="fill: none; stroke: #2563eb; stroke-opacity: 0.95; stroke-width: 1.3; stroke-linecap: square"/>
   </g>
   <g id="patch_23">
    <path d="M 39.330625 228.954713 
L 39.330625 17.061433 
" style="fill: none; stroke: #cbd5e1; stroke-width: 0.8; stroke-linejoin: miter; stroke-linecap: square"/>
   </g>
   <g id="patch_24">
    <path d="M 935.305625 228.954713 
L 935.305625 17.061433 
" style="fill: none; stroke: #cbd5e1; stroke-width: 0.8; stroke-linejoin: miter; stroke-linecap: square"/>
   </g>
   <g id="patch_25">
    <path d="M 39.330625 228.954713 
L 935.305625 228.954713 
" style="fill: none; stroke: #cbd5e1; stroke-width: 0.8; stroke-linejoin: miter; stroke-linecap: square"/>
   </g>
   <g id="patch_26">
    <path d="M 39.330625 17.061433 
L 935.305625 17.061433 
" style="fill: none; stroke: #cbd5e1; stroke-width: 0.8; stroke-linejoin: miter; stroke-linecap: square"/>
   </g>
   <g id="text_18">
    <!-- ACC -->
    <g style="fill: #475569" transform="translate(120.604338 13.27875) scale(0.08 -0.08)">
     <defs>
      <path id="DejaVuSans-43" d="M 4122 4306 
L 4122 3641 
Q 3803 3938 3442 4084 
Q 3081 4231 2675 4231 
Q 1875 4231 1450 3742 
Q 1025 3253 1025 2328 
Q 1025 1406 1450 917 
Q 1875 428 2675 428 
Q 3081 428 3442 575 
Q 3803 722 4122 1019 
L 4122 359 
Q 3791 134 3420 21 
Q 3050 -91 2638 -91 
Q 1578 -91 968 557 
Q 359 1206 359 2328 
Q 359 3453 968 4101 
Q 1578 4750 2638 4750 
Q 3056 4750 3426 4639 
Q 3797 4528 4122 4306 
z
" transform="scale(0.015625)"/>
     </defs>
     <use xlink:href="#DejaVuSans-41"/>
     <use xlink:href="#DejaVuSans-43" transform="translate(66.658203 0)"/>
     <use xlink:href="#DejaVuSans-43" transform="translate(136.482422 0)"/>
    </g>
   </g>
   <g id="text_19">
    <!-- OC -->
    <g style="fill: #475569" transform="translate(228.348296 13.27875) scale(0.08 -0.08)">
     <defs>
      <path id="DejaVuSans-4f" d="M 2522 4238 
Q 1834 4238 1429 3725 
Q 1025 3213 1025 2328 
Q 1025 1447 1429 934 
Q 1834 422 2522 422 
Q 3209 422 3611 934 
Q 4013 1447 4013 2328 
Q 4013 3213 3611 3725 
Q 3209 4238 2522 4238 
z
M 2522 4750 
Q 3503 4750 4090 4092 
Q 4678 3434 4678 2328 
Q 4678 1225 4090 567 
Q 3503 -91 2522 -91 
Q 1538 -91 948 565 
Q 359 1222 359 2328 
Q 359 3434 948 4092 
Q 1538 4750 2522 4750 
z
" transform="scale(0.015625)"/>
     </defs>
     <use xlink:href="#DejaVuSans-4f"/>
     <use xlink:href="#DejaVuSans-43" transform="translate(78.710938 0)"/>
    </g>
   </g>
   <g id="text_20">
    <!-- FCS -->
    <g style="fill: #475569" transform="translate(253.926393 13.27875) scale(0.08 -0.08)">
     <defs>
      <path id="DejaVuSans-46" d="M 628 4666 
L 3309 4666 
L 3309 4134 
L 1259 4134 
L 1259 2759 
L 3109 2759 
L 3109 2228 
L 1259 2228 
L 1259 0 
L 628 0 
L 628 4666 
z
" transform="scale(0.015625)"/>
      <path id="DejaVuSans-53" d="M 3425 4513 
L 3425 3897 
Q 3066 4069 2747 4153 
Q 2428 4238 2131 4238 
Q 1616 4238 1336 4038 
Q 1056 3838 1056 3469 
Q 1056 3159 1242 3001 
Q 1428 2844 1947 2747 
L 2328 2669 
Q 3034 2534 3370 2195 
Q 3706 1856 3706 1288 
Q 3706 609 3251 259 
Q 2797 -91 1919 -91 
Q 1588 -91 1214 -16 
Q 841 59 441 206 
L 441 856 
Q 825 641 1194 531 
Q 1563 422 1919 422 
Q 2459 422 2753 634 
Q 3047 847 3047 1241 
Q 3047 1584 2836 1778 
Q 2625 1972 2144 2069 
L 1759 2144 
Q 1053 2284 737 2584 
Q 422 2884 422 3419 
Q 422 4038 858 4394 
Q 1294 4750 2059 4750 
Q 2388 4750 2728 4690 
Q 3069 4631 3425 4513 
z
" transform="scale(0.015625)"/>
     </defs>
     <use xlink:href="#DejaVuSans-46"/>
     <use xlink:href="#DejaVuSans-43" transform="translate(57.519531 0)"/>
     <use xlink:href="#DejaVuSans-53" transform="translate(127.34375 0)"/>
    </g>
   </g>
   <g id="text_21">
    <!-- SR -->
    <g style="fill: #475569" transform="translate(283.510115 13.27875) scale(0.08 -0.08)">
     <defs>
      <path id="DejaVuSans-52" d="M 2841 2188 
Q 3044 2119 3236 1894 
Q 3428 1669 3622 1275 
L 4263 0 
L 3584 0 
L 2988 1197 
Q 2756 1666 2539 1819 
Q 2322 1972 1947 1972 
L 1259 1972 
L 1259 0 
L 628 0 
L 628 4666 
L 2053 4666 
Q 2853 4666 3247 4331 
Q 3641 3997 3641 3322 
Q 3641 2881 3436 2590 
Q 3231 2300 2841 2188 
z
M 1259 4147 
L 1259 2491 
L 2053 2491 
Q 2509 2491 2742 2702 
Q 2975 2913 2975 3322 
Q 2975 3731 2742 3939 
Q 2509 4147 2053 4147 
L 1259 4147 
z
" transform="scale(0.015625)"/>
     </defs>
     <use xlink:href="#DejaVuSans-53"/>
     <use xlink:href="#DejaVuSans-52" transform="translate(63.476562 0)"/>
    </g>
   </g>
   <g id="text_22">
    <!-- FFC -->
    <g style="fill: #475569" transform="translate(322.338511 13.27875) scale(0.08 -0.08)">
     <use xlink:href="#DejaVuSans-46"/>
     <use xlink:href="#DejaVuSans-46" transform="translate(57.519531 0)"/>
     <use xlink:href="#DejaVuSans-43" transform="translate(115.039062 0)"/>
    </g>
   </g>
   <g id="text_23">
    <!-- SS -->
    <g style="fill: #475569" transform="translate(417.824405 13.27875) scale(0.08 -0.08)">
     <use xlink:href="#DejaVuSans-53"/>
     <use xlink:href="#DejaVuSans-53" transform="translate(63.476562 0)"/>
    </g>
   </g>
   <g id="text_24">
    <!-- OC -->
    <g style="fill: #475569" transform="translate(487.407093 13.27875) scale(0.08 -0.08)">
     <use xlink:href="#DejaVuSans-4f"/>
     <use xlink:href="#DejaVuSans-43" transform="translate(78.710938 0)"/>
    </g>
   </g>
   <g id="text_25">
    <!-- FCS -->
    <g style="fill: #475569" transform="translate(508.440299 13.27875) scale(0.08 -0.08)">
     <use xlink:href="#DejaVuSans-46"/>
     <use xlink:href="#DejaVuSans-43" transform="translate(57.519531 0)"/>
     <use xlink:href="#DejaVuSans-53" transform="translate(127.34375 0)"/>
    </g>
   </g>
   <g id="text_26">
    <!-- SR -->
    <g style="fill: #475569" transform="translate(538.024021 13.27875) scale(0.08 -0.08)">
     <use xlink:href="#DejaVuSans-53"/>
     <use xlink:href="#DejaVuSans-52" transform="translate(63.476562 0)"/>
    </g>
   </g>
   <g id="text_27">
    <!-- FFC -->
    <g style="fill: #475569" transform="translate(576.852417 13.27875) scale(0.08 -0.08)">
     <use xlink:href="#DejaVuSans-46"/>
     <use xlink:href="#DejaVuSans-46" transform="translate(57.519531 0)"/>
     <use xlink:href="#DejaVuSans-43" transform="translate(115.039062 0)"/>
    </g>
   </g>
   <g id="text_28">
    <!-- SS -->
    <g style="fill: #475569" transform="translate(672.338311 13.27875) scale(0.08 -0.08)">
     <use xlink:href="#DejaVuSans-53"/>
     <use xlink:href="#DejaVuSans-53" transform="translate(63.476562 0)"/>
    </g>
   </g>
   <g id="text_29">
    <!-- OC -->
    <g style="fill: #475569" transform="translate(741.921 13.27875) scale(0.08 -0.08)">
     <use xlink:href="#DejaVuSans-4f"/>
     <use xlink:href="#DejaVuSans-43" transform="translate(78.710938 0)"/>
    </g>
   </g>
   <g id="text_30">
    <!-- FCS -->
    <g style="fill: #475569" transform="translate(762.954206 13.27875) scale(0.08 -0.08)">
     <use xlink:href="#DejaVuSans-46"/>
     <use xlink:href="#DejaVuSans-43" transform="translate(57.519531 0)"/>
     <use xlink:href="#DejaVuSans-53" transform="translate(127.34375 0)"/>
    </g>
   </g>
   <g id="text_31">
    <!-- SR -->
    <g style="fill: #475569" transform="translate(792.537928 13.27875) scale(0.08 -0.08)">
     <use xlink:href="#DejaVuSans-53"/>
     <use xlink:href="#DejaVuSans-52" transform="translate(63.476562 0)"/>
    </g>
   </g>
   <g id="text_32">
    <!-- FFC -->
    <g style="fill: #475569" transform="translate(831.366323 13.27875) scale(0.08 -0.08)">
     <use xlink:href="#DejaVuSans-46"/>
     <use xlink:href="#DejaVuSans-46" transform="translate(57.519531 0)"/>
     <use xlink:href="#DejaVuSans-43" transform="translate(115.039062 0)"/>
    </g>
   </g>
   <g id="text_33">
    <!-- SS -->
    <g style="fill: #475569" transform="translate(888.220642 13.27875) scale(0.08 -0.08)">
     <use xlink:href="#DejaVuSans-53"/>
     <use xlink:href="#DejaVuSans-53" transform="translate(63.476562 0)"/>
    </g>
   </g>
   <g id="legend_1">
    <g id="line2d_32">
     <path d="M 889.158125 27.540183 
L 897.158125 27.540183 
L 905.158125 27.540183 
" style="fill: none; stroke: #2563eb; stroke-opacity: 0.95; stroke-width: 1.3; stroke-linecap: square"/>
    </g>
    <g id="text_34">
     <!-- EDA -->
     <g transform="translate(911.558125 30.340183) scale(0.08 -0.08)">
      <use xlink:href="#DejaVuSans-45"/>
      <use xlink:href="#DejaVuSans-44" transform="translate(63.183594 0)"/>
      <use xlink:href="#DejaVuSans-41" transform="translate(138.435547 0)"/>
     </g>
    </g>
   </g>
  </g>
 </g>
 <defs>
  <clipPath id="p2b9b443e00">
   <rect x="39.330625" y="17.061433" width="895.975" height="211.89328"/>
  </clipPath>
 </defs>
</svg>
