<?xml version="1.0" encoding="utf-8" standalone="no"?>
<!DOCTYPE svg PUBLIC "-//W3C//DTD SVG 1.1//EN"
  "http://www.w3.org/Graphics/SVG/1.1/DTD/svg11.dtd">
<svg xmlns:xlink="http://www.w3.org/1999/xlink" width="942.553437pt" height="265.54315pt" viewBox="0 0 942.553437 265.54315" xmlns="http://www.w3.org/2000/svg" version="1.1">
 <metadata>
  <rdf:RDF xmlns:dc="http://purl.org/dc/elements/1.1/" xmlns:cc="http://creativecommons.org/ns#" xmlns:rdf="http://www.w3.org/1999/02/22-rdf-syntax-ns#">
   <cc:Work>
    <dc:type rdf:resource="http://purl.org/dc/dcmitype/StillImage"/>
    <dc:date>2026-04-17T17:30:32.789356</dc:date>
    <dc:format>image/svg+xml</dc:format>
    <dc:creator>
     <cc:Agent>
      <dc:title>Matplotlib v3.10.8, https://matplotlib.org/</dc:title>
     </cc:Agent>
    </dc:creator>
   </cc:Work>
  </rdf:RDF>
 </metadata>
 <defs>
  <style type="text/css">*{stroke-linejoin: round; stroke-linecap: butt}</style>
 </defs>
 <g id="figure_1">
  <g id="patch_1">
   <path d="M 0 265.54315 
L 942.553437 265.54315 
L 942.553437 0 
L 0 0 
z
" style="fill: #ffffff"/>
  </g>
  <g id="axes_1">
   <g id="patch_2">
    <path d="M 42.190938 228.954713 
L 935.353437 228.954713 
L 935.353437 17.061433 
L 42.190938 17.061433 
z
" style="fill: #ffffff"/>
   </g>
   <g id="patch_3">
    <path d="M 42.190938 228.954713 
L 59.367139 228.954713 
L 59.367139 17.061433 
L 42.190938 17.061433 
z
" clip-path="url(#pa87f74907e)" style="fill: #f8fafc; opacity: 0.45"/>
   </g>
   <g id="patch_4">
    <path d="M 59.367139 228.954713 
L 93.267538 228.954713 
L 93.267538 17.061433 
L 59.367139 17.061433 
z
" clip-path="url(#pa87f74907e)" style="fill: #eff6ff; opacity: 0.45"/>
   </g>
   <g id="patch_5">
    <path d="M 93.267538 228.954713 
L 121.51787 228.954713 
L 121.51787 17.061433 
L 93.267538 17.061433 
z
" clip-path="url(#pa87f74907e)" style="fill: #fef3c7; opacity: 0.45"/>
   </g>
   <g id="patch_6">
    <path d="M 121.51787 228.954713 
L 166.718401 228.954713 
L 166.718401 17.061433 
L 121.51787 17.061433 
z
" clip-path="url(#pa87f74907e)" style="fill: #dcfce7; opacity: 0.45"/>
   </g>
   <g id="patch_7">
    <path d="M 166.718401 228.954713 
L 228.869132 228.954713 
L 228.869132 17.061433 
L 166.718401 17.061433 
z
" clip-path="url(#pa87f74907e)" style="fill: #fee2e2; opacity: 0.45"/>
   </g>
   <g id="patch_8">
    <path d="M 228.869132 228.954713 
L 234.519199 228.954713 
L 234.519199 17.061433 
L 228.869132 17.061433 
z
" clip-path="url(#pa87f74907e)" style="fill: #ede9fe; opacity: 0.45"/>
   </g>
   <g id="patch_9">
    <path d="M 234.519199 228.954713 
L 381.420925 228.954713 
L 381.420925 17.061433 
L 234.519199 17.061433 
z
" clip-path="url(#pa87f74907e)" style="fill: #f8fafc; opacity: 0.45"/>
   </g>
   <g id="patch_10">
    <path d="M 381.420925 228.954713 
L 409.671258 228.954713 
L 409.671258 17.061433 
L 381.420925 17.061433 
z
" clip-path="url(#pa87f74907e)" style="fill: #eff6ff; opacity: 0.45"/>
   </g>
   <g id="patch_11">
    <path d="M 409.671258 228.954713 
L 437.92159 228.954713 
L 437.92159 17.061433 
L 409.671258 17.061433 
z
" clip-path="url(#pa87f74907e)" style="fill: #fef3c7; opacity: 0.45"/>
   </g>
   <g id="patch_12">
    <path d="M 437.92159 228.954713 
L 488.772188 228.954713 
L 488.772188 17.061433 
L 437.92159 17.061433 
z
" clip-path="url(#pa87f74907e)" style="fill: #dcfce7; opacity: 0.45"/>
   </g>
   <g id="patch_13">
    <path d="M 488.772187 228.954713 
L 545.272852 228.954713 
L 545.272852 17.061433 
L 488.772187 17.061433 
z
" clip-path="url(#pa87f74907e)" style="fill: #fee2e2; opacity: 0.45"/>
   </g>
   <g id="patch_14">
    <path d="M 545.272852 228.954713 
L 550.922918 228.954713 
L 550.922918 17.061433 
L 545.272852 17.061433 
z
" clip-path="url(#pa87f74907e)" style="fill: #ede9fe; opacity: 0.45"/>
   </g>
   <g id="patch_15">
    <path d="M 550.922918 228.954713 
L 697.824645 228.954713 
L 697.824645 17.061433 
L 550.922918 17.061433 
z
" clip-path="url(#pa87f74907e)" style="fill: #f8fafc; opacity: 0.45"/>
   </g>
   <g id="patch_16">
    <path d="M 697.824645 228.954713 
L 726.074977 228.954713 
L 726.074977 17.061433 
L 697.824645 17.061433 
z
" clip-path="url(#pa87f74907e)" style="fill: #eff6ff; opacity: 0.45"/>
   </g>
   <g id="patch_17">
    <path d="M 726.074977 228.954713 
L 754.325309 228.954713 
L 754.325309 17.061433 
L 726.074977 17.061433 
z
" clip-path="url(#pa87f74907e)" style="fill: #fef3c7; opacity: 0.45"/>
   </g>
   <g id="patch_18">
    <path d="M 754.325309 228.954713 
L 805.175907 228.954713 
L 805.175907 17.061433 
L 754.325309 17.061433 
z
" clip-path="url(#pa87f74907e)" style="fill: #dcfce7; opacity: 0.45"/>
   </g>
   <g id="patch_19">
    <path d="M 805.175907 228.954713 
L 861.676571 228.954713 
L 861.676571 17.061433 
L 805.175907 17.061433 
z
" clip-path="url(#pa87f74907e)" style="fill: #fee2e2; opacity: 0.45"/>
   </g>
   <g id="patch_20">
    <path d="M 861.676571 228.954713 
L 867.326638 228.954713 
L 867.326638 17.061433 
L 861.676571 17.061433 
z
" clip-path="url(#pa87f74907e)" style="fill: #ede9fe; opacity: 0.45"/>
   </g>
   <g id="patch_21">
    <path d="M 867.326638 228.954713 
L 918.177236 228.954713 
L 918.177236 17.061433 
L 867.326638 17.061433 
z
" clip-path="url(#pa87f74907e)" style="fill: #f8fafc; opacity: 0.45"/>
   </g>
   <g id="patch_22">
    <path d="M 918.177236 228.954713 
L 923.827302 228.954713 
L 923.827302 17.061433 
L 918.177236 17.061433 
z
" clip-path="url(#pa87f74907e)" style="fill: #eff6ff; opacity: 0.45"/>
   </g>
   <g id="matplotlib.axis_1">
    <g id="xtick_1">
     <g id="line2d_1">
      <path d="M 59.367139 228.954713 
L 59.367139 17.061433 
" clip-path="url(#pa87f74907e)" style="fill: none; stroke: #eef2f7; stroke-width: 0.55; stroke-linecap: square"/>
     </g>
     <g id="line2d_2">
      <defs>
       <path id="m7865d6e2b0" d="M 0 0 
L 0 3.5 
" style="stroke: #000000; stroke-width: 0.8"/>
      </defs>
      <g>
       <use xlink:href="#m7865d6e2b0" x="59.367139" y="228.954713" style="stroke: #000000; stroke-width: 0.8"/>
      </g>
     </g>
     <g id="text_1">
      <!-- 40 -->
      <g transform="translate(53.640889 242.793307) scale(0.09 -0.09)">
       <defs>
        <path id="DejaVuSans-34" d="M 2419 4116 
L 825 1625 
L 2419 1625 
L 2419 4116 
z
M 2253 4666 
L 3047 4666 
L 3047 1625 
L 3713 1625 
L 3713 1100 
L 3047 1100 
L 3047 0 
L 2419 0 
L 2419 1100 
L 313 1100 
L 313 1709 
L 2253 4666 
z
" transform="scale(0.015625)"/>
        <path id="DejaVuSans-30" d="M 2034 4250 
Q 1547 4250 1301 3770 
Q 1056 3291 1056 2328 
Q 1056 1369 1301 889 
Q 1547 409 2034 409 
Q 2525 409 2770 889 
Q 3016 1369 3016 2328 
Q 3016 3291 2770 3770 
Q 2525 4250 2034 4250 
z
M 2034 4750 
Q 2819 4750 3233 4129 
Q 3647 3509 3647 2328 
Q 3647 1150 3233 529 
Q 2819 -91 2034 -91 
Q 1250 -91 836 529 
Q 422 1150 422 2328 
Q 422 3509 836 4129 
Q 1250 4750 2034 4750 
z
" transform="scale(0.015625)"/>
       </defs>
       <use xlink:href="#DejaVuSans-34"/>
       <use xlink:href="#DejaVuSans-30" transform="translate(63.623047 0)"/>
      </g>
     </g>
    </g>
    <g id="xtick_2">
     <g id="line2d_3">
      <path d="M 172.368468 228.954713 
L 172.368468 17.061433 
" clip-path="url(#pa87f74907e)" style="fill: none; stroke: #eef2f7; stroke-width: 0.55; stroke-linecap: square"/>
     </g>
     <g id="line2d_4">
      <g>
       <use xlink:href="#m7865d6e2b0" x="172.368468" y="228.954713" style="stroke: #000000; stroke-width: 0.8"/>
      </g>
     </g>
     <g id="text_2">
      <!-- 60 -->
      <g transform="translate(166.642218 242.793307) scale(0.09 -0.09)">
       <defs>
        <path id="DejaVuSans-36" d="M 2113 2584 
Q 1688 2584 1439 2293 
Q 1191 2003 1191 1497 
Q 1191 994 1439 701 
Q 1688 409 2113 409 
Q 2538 409 2786 701 
Q 3034 994 3034 1497 
Q 3034 2003 2786 2293 
Q 2538 2584 2113 2584 
z
M 3366 4563 
L 3366 3988 
Q 3128 4100 2886 4159 
Q 2644 4219 2406 4219 
Q 1781 4219 1451 3797 
Q 1122 3375 1075 2522 
Q 1259 2794 1537 2939 
Q 1816 3084 2150 3084 
Q 2853 3084 3261 2657 
Q 3669 2231 3669 1497 
Q 3669 778 3244 343 
Q 2819 -91 2113 -91 
Q 1303 -91 875 529 
Q 447 1150 447 2328 
Q 447 3434 972 4092 
Q 1497 4750 2381 4750 
Q 2619 4750 2861 4703 
Q 3103 4656 3366 4563 
z
" transform="scale(0.015625)"/>
       </defs>
       <use xlink:href="#DejaVuSans-36"/>
       <use xlink:href="#DejaVuSans-30" transform="translate(63.623047 0)"/>
      </g>
     </g>
    </g>
    <g id="xtick_3">
     <g id="line2d_5">
      <path d="M 285.369796 228.954713 
L 285.369796 17.061433 
" clip-path="url(#pa87f74907e)" style="fill: none; stroke: #eef2f7; stroke-width: 0.55; stroke-linecap: square"/>
     </g>
     <g id="line2d_6">
      <g>
       <use xlink:href="#m7865d6e2b0" x="285.369796" y="228.954713" style="stroke: #000000; stroke-width: 0.8"/>
      </g>
     </g>
     <g id="text_3">
      <!-- 80 -->
      <g transform="translate(279.643546 242.793307) scale(0.09 -0.09)">
       <defs>
        <path id="DejaVuSans-38" d="M 2034 2216 
Q 1584 2216 1326 1975 
Q 1069 1734 1069 1313 
Q 1069 891 1326 650 
Q 1584 409 2034 409 
Q 2484 409 2743 651 
Q 3003 894 3003 1313 
Q 3003 1734 2745 1975 
Q 2488 2216 2034 2216 
z
M 1403 2484 
Q 997 2584 770 2862 
Q 544 3141 544 3541 
Q 544 4100 942 4425 
Q 1341 4750 2034 4750 
Q 2731 4750 3128 4425 
Q 3525 4100 3525 3541 
Q 3525 3141 3298 2862 
Q 3072 2584 2669 2484 
Q 3125 2378 3379 2068 
Q 3634 1759 3634 1313 
Q 3634 634 3220 271 
Q 2806 -91 2034 -91 
Q 1263 -91 848 271 
Q 434 634 434 1313 
Q 434 1759 690 2068 
Q 947 2378 1403 2484 
z
M 1172 3481 
Q 1172 3119 1398 2916 
Q 1625 2713 2034 2713 
Q 2441 2713 2670 2916 
Q 2900 3119 2900 3481 
Q 2900 3844 2670 4047 
Q 2441 4250 2034 4250 
Q 1625 4250 1398 4047 
Q 1172 3844 1172 3481 
z
" transform="scale(0.015625)"/>
       </defs>
       <use xlink:href="#DejaVuSans-38"/>
       <use xlink:href="#DejaVuSans-30" transform="translate(63.623047 0)"/>
      </g>
     </g>
    </g>
    <g id="xtick_4">
     <g id="line2d_7">
      <path d="M 398.371125 228.954713 
L 398.371125 17.061433 
" clip-path="url(#pa87f74907e)" style="fill: none; stroke: #eef2f7; stroke-width: 0.55; stroke-linecap: square"/>
     </g>
     <g id="line2d_8">
      <g>
       <use xlink:href="#m7865d6e2b0" x="398.371125" y="228.954713" style="stroke: #000000; stroke-width: 0.8"/>
      </g>
     </g>
     <g id="text_4">
      <!-- 100 -->
      <g transform="translate(389.78175 242.793307) scale(0.09 -0.09)">
       <defs>
        <path id="DejaVuSans-31" d="M 794 531 
L 1825 531 
L 1825 4091 
L 703 3866 
L 703 4441 
L 1819 4666 
L 2450 4666 
L 2450 531 
L 3481 531 
L 3481 0 
L 794 0 
L 794 531 
z
" transform="scale(0.015625)"/>
       </defs>
       <use xlink:href="#DejaVuSans-31"/>
       <use xlink:href="#DejaVuSans-30" transform="translate(63.623047 0)"/>
       <use xlink:href="#DejaVuSans-30" transform="translate(127.246094 0)"/>
      </g>
     </g>
    </g>
    <g id="xtick_5">
     <g id="line2d_9">
      <path d="M 511.372453 228.954713 
L 511.372453 17.061433 
" clip-path="url(#pa87f74907e)" style="fill: none; stroke: #eef2f7; stroke-width: 0.55; stroke-linecap: square"/>
     </g>
     <g id="line2d_10">
      <g>
       <use xlink:href="#m7865d6e2b0" x="511.372453" y="228.954713" style="stroke: #000000; stroke-width: 0.8"/>
      </g>
     </g>
     <g id="text_5">
      <!-- 120 -->
      <g transform="translate(502.783078 242.793307) scale(0.09 -0.09)">
       <defs>
        <path id="DejaVuSans-32" d="M 1228 531 
L 3431 531 
L 3431 0 
L 469 0 
L 469 531 
Q 828 903 1448 1529 
Q 2069 2156 2228 2338 
Q 2531 2678 2651 2914 
Q 2772 3150 2772 3378 
Q 2772 3750 2511 3984 
Q 2250 4219 1831 4219 
Q 1534 4219 1204 4116 
Q 875 4013 500 3803 
L 500 4441 
Q 881 4594 1212 4672 
Q 1544 4750 1819 4750 
Q 2544 4750 2975 4387 
Q 3406 4025 3406 3419 
Q 3406 3131 3298 2873 
Q 3191 2616 2906 2266 
Q 2828 2175 2409 1742 
Q 1991 1309 1228 531 
z
" transform="scale(0.015625)"/>
       </defs>
       <use xlink:href="#DejaVuSans-31"/>
       <use xlink:href="#DejaVuSans-32" transform="translate(63.623047 0)"/>
       <use xlink:href="#DejaVuSans-30" transform="translate(127.246094 0)"/>
      </g>
     </g>
    </g>
    <g id="xtick_6">
     <g id="line2d_11">
      <path d="M 624.373782 228.954713 
L 624.373782 17.061433 
" clip-path="url(#pa87f74907e)" style="fill: none; stroke: #eef2f7; stroke-width: 0.55; stroke-linecap: square"/>
     </g>
     <g id="line2d_12">
      <g>
       <use xlink:href="#m7865d6e2b0" x="624.373782" y="228.954713" style="stroke: #000000; stroke-width: 0.8"/>
      </g>
     </g>
     <g id="text_6">
      <!-- 140 -->
      <g transform="translate(615.784407 242.793307) scale(0.09 -0.09)">
       <use xlink:href="#DejaVuSans-31"/>
       <use xlink:href="#DejaVuSans-34" transform="translate(63.623047 0)"/>
       <use xlink:href="#DejaVuSans-30" transform="translate(127.246094 0)"/>
      </g>
     </g>
    </g>
    <g id="xtick_7">
     <g id="line2d_13">
      <path d="M 737.37511 228.954713 
L 737.37511 17.061433 
" clip-path="url(#pa87f74907e)" style="fill: none; stroke: #eef2f7; stroke-width: 0.55; stroke-linecap: square"/>
     </g>
     <g id="line2d_14">
      <g>
       <use xlink:href="#m7865d6e2b0" x="737.37511" y="228.954713" style="stroke: #000000; stroke-width: 0.8"/>
      </g>
     </g>
     <g id="text_7">
      <!-- 160 -->
      <g transform="translate(728.785735 242.793307) scale(0.09 -0.09)">
       <use xlink:href="#DejaVuSans-31"/>
       <use xlink:href="#DejaVuSans-36" transform="translate(63.623047 0)"/>
       <use xlink:href="#DejaVuSans-30" transform="translate(127.246094 0)"/>
      </g>
     </g>
    </g>
    <g id="xtick_8">
     <g id="line2d_15">
      <path d="M 850.376439 228.954713 
L 850.376439 17.061433 
" clip-path="url(#pa87f74907e)" style="fill: none; stroke: #eef2f7; stroke-width: 0.55; stroke-linecap: square"/>
     </g>
     <g id="line2d_16">
      <g>
       <use xlink:href="#m7865d6e2b0" x="850.376439" y="228.954713" style="stroke: #000000; stroke-width: 0.8"/>
      </g>
     </g>
     <g id="text_8">
      <!-- 180 -->
      <g transform="translate(841.787064 242.793307) scale(0.09 -0.09)">
       <use xlink:href="#DejaVuSans-31"/>
       <use xlink:href="#DejaVuSans-38" transform="translate(63.623047 0)"/>
       <use xlink:href="#DejaVuSans-30" transform="translate(127.246094 0)"/>
      </g>
     </g>
    </g>
    <g id="text_9">
     <!-- Minutes since session start -->
     <g transform="translate(421.182344 256.263463) scale(0.1 -0.1)">
      <defs>
       <path id="DejaVuSans-4d" d="M 628 4666 
L 1569 4666 
L 2759 1491 
L 3956 4666 
L 4897 4666 
L 4897 0 
L 4281 0 
L 4281 4097 
L 3078 897 
L 2444 897 
L 1241 4097 
L 1241 0 
L 628 0 
L 628 4666 
z
" transform="scale(0.015625)"/>
       <path id="DejaVuSans-69" d="M 603 3500 
L 1178 3500 
L 1178 0 
L 603 0 
L 603 3500 
z
M 603 4863 
L 1178 4863 
L 1178 4134 
L 603 4134 
L 603 4863 
z
" transform="scale(0.015625)"/>
       <path id="DejaVuSans-6e" d="M 3513 2113 
L 3513 0 
L 2938 0 
L 2938 2094 
Q 2938 2591 2744 2837 
Q 2550 3084 2163 3084 
Q 1697 3084 1428 2787 
Q 1159 2491 1159 1978 
L 1159 0 
L 581 0 
L 581 3500 
L 1159 3500 
L 1159 2956 
Q 1366 3272 1645 3428 
Q 1925 3584 2291 3584 
Q 2894 3584 3203 3211 
Q 3513 2838 3513 2113 
z
" transform="scale(0.015625)"/>
       <path id="DejaVuSans-75" d="M 544 1381 
L 544 3500 
L 1119 3500 
L 1119 1403 
Q 1119 906 1312 657 
Q 1506 409 1894 409 
Q 2359 409 2629 706 
Q 2900 1003 2900 1516 
L 2900 3500 
L 3475 3500 
L 3475 0 
L 2900 0 
L 2900 538 
Q 2691 219 2414 64 
Q 2138 -91 1772 -91 
Q 1169 -91 856 284 
Q 544 659 544 1381 
z
M 1991 3584 
L 1991 3584 
z
" transform="scale(0.015625)"/>
       <path id="DejaVuSans-74" d="M 1172 4494 
L 1172 3500 
L 2356 3500 
L 2356 3053 
L 1172 3053 
L 1172 1153 
Q 1172 725 1289 603 
Q 1406 481 1766 481 
L 2356 481 
L 2356 0 
L 1766 0 
Q 1100 0 847 248 
Q 594 497 594 1153 
L 594 3053 
L 172 3053 
L 172 3500 
L 594 3500 
L 594 4494 
L 1172 4494 
z
" transform="scale(0.015625)"/>
       <path id="DejaVuSans-65" d="M 3597 1894 
L 3597 1613 
L 953 1613 
Q 991 1019 1311 708 
Q 1631 397 2203 397 
Q 2534 397 2845 478 
Q 3156 559 3463 722 
L 3463 178 
Q 3153 47 2828 -22 
Q 2503 -91 2169 -91 
Q 1331 -91 842 396 
Q 353 884 353 1716 
Q 353 2575 817 3079 
Q 1281 3584 2069 3584 
Q 2775 3584 3186 3129 
Q 3597 2675 3597 1894 
z
M 3022 2063 
Q 3016 2534 2758 2815 
Q 2500 3097 2075 3097 
Q 1594 3097 1305 2825 
Q 1016 2553 972 2059 
L 3022 2063 
z
" transform="scale(0.015625)"/>
       <path id="DejaVuSans-73" d="M 2834 3397 
L 2834 2853 
Q 2591 2978 2328 3040 
Q 2066 3103 1784 3103 
Q 1356 3103 1142 2972 
Q 928 2841 928 2578 
Q 928 2378 1081 2264 
Q 1234 2150 1697 2047 
L 1894 2003 
Q 2506 1872 2764 1633 
Q 3022 1394 3022 966 
Q 3022 478 2636 193 
Q 2250 -91 1575 -91 
Q 1294 -91 989 -36 
Q 684 19 347 128 
L 347 722 
Q 666 556 975 473 
Q 1284 391 1588 391 
Q 1994 391 2212 530 
Q 2431 669 2431 922 
Q 2431 1156 2273 1281 
Q 2116 1406 1581 1522 
L 1381 1569 
Q 847 1681 609 1914 
Q 372 2147 372 2553 
Q 372 3047 722 3315 
Q 1072 3584 1716 3584 
Q 2034 3584 2315 3537 
Q 2597 3491 2834 3397 
z
" transform="scale(0.015625)"/>
       <path id="DejaVuSans-20" transform="scale(0.015625)"/>
       <path id="DejaVuSans-63" d="M 3122 3366 
L 3122 2828 
Q 2878 2963 2633 3030 
Q 2388 3097 2138 3097 
Q 1578 3097 1268 2742 
Q 959 2388 959 1747 
Q 959 1106 1268 751 
Q 1578 397 2138 397 
Q 2388 397 2633 464 
Q 2878 531 3122 666 
L 3122 134 
Q 2881 22 2623 -34 
Q 2366 -91 2075 -91 
Q 1284 -91 818 406 
Q 353 903 353 1747 
Q 353 2603 823 3093 
Q 1294 3584 2113 3584 
Q 2378 3584 2631 3529 
Q 2884 3475 3122 3366 
z
" transform="scale(0.015625)"/>
       <path id="DejaVuSans-6f" d="M 1959 3097 
Q 1497 3097 1228 2736 
Q 959 2375 959 1747 
Q 959 1119 1226 758 
Q 1494 397 1959 397 
Q 2419 397 2687 759 
Q 2956 1122 2956 1747 
Q 2956 2369 2687 2733 
Q 2419 3097 1959 3097 
z
M 1959 3584 
Q 2709 3584 3137 3096 
Q 3566 2609 3566 1747 
Q 3566 888 3137 398 
Q 2709 -91 1959 -91 
Q 1206 -91 779 398 
Q 353 888 353 1747 
Q 353 2609 779 3096 
Q 1206 3584 1959 3584 
z
" transform="scale(0.015625)"/>
       <path id="DejaVuSans-61" d="M 2194 1759 
Q 1497 1759 1228 1600 
Q 959 1441 959 1056 
Q 959 750 1161 570 
Q 1363 391 1709 391 
Q 2188 391 2477 730 
Q 2766 1069 2766 1631 
L 2766 1759 
L 2194 1759 
z
M 3341 1997 
L 3341 0 
L 2766 0 
L 2766 531 
Q 2569 213 2275 61 
Q 1981 -91 1556 -91 
Q 1019 -91 701 211 
Q 384 513 384 1019 
Q 384 1609 779 1909 
Q 1175 2209 1959 2209 
L 2766 2209 
L 2766 2266 
Q 2766 2663 2505 2880 
Q 2244 3097 1772 3097 
Q 1472 3097 1187 3025 
Q 903 2953 641 2809 
L 641 3341 
Q 956 3463 1253 3523 
Q 1550 3584 1831 3584 
Q 2591 3584 2966 3190 
Q 3341 2797 3341 1997 
z
" transform="scale(0.015625)"/>
       <path id="DejaVuSans-72" d="M 2631 2963 
Q 2534 3019 2420 3045 
Q 2306 3072 2169 3072 
Q 1681 3072 1420 2755 
Q 1159 2438 1159 1844 
L 1159 0 
L 581 0 
L 581 3500 
L 1159 3500 
L 1159 2956 
Q 1341 3275 1631 3429 
Q 1922 3584 2338 3584 
Q 2397 3584 2469 3576 
Q 2541 3569 2628 3553 
L 2631 2963 
z
" transform="scale(0.015625)"/>
      </defs>
      <use xlink:href="#DejaVuSans-4d"/>
      <use xlink:href="#DejaVuSans-69" transform="translate(86.279297 0)"/>
      <use xlink:href="#DejaVuSans-6e" transform="translate(114.0625 0)"/>
      <use xlink:href="#DejaVuSans-75" transform="translate(177.441406 0)"/>
      <use xlink:href="#DejaVuSans-74" transform="translate(240.820312 0)"/>
      <use xlink:href="#DejaVuSans-65" transform="translate(280.029297 0)"/>
      <use xlink:href="#DejaVuSans-73" transform="translate(341.552734 0)"/>
      <use xlink:href="#DejaVuSans-20" transform="translate(393.652344 0)"/>
      <use xlink:href="#DejaVuSans-73" transform="translate(425.439453 0)"/>
      <use xlink:href="#DejaVuSans-69" transform="translate(477.539062 0)"/>
      <use xlink:href="#DejaVuSans-6e" transform="translate(505.322266 0)"/>
      <use xlink:href="#DejaVuSans-63" transform="translate(568.701172 0)"/>
      <use xlink:href="#DejaVuSans-65" transform="translate(623.681641 0)"/>
      <use xlink:href="#DejaVuSans-20" transform="translate(685.205078 0)"/>
      <use xlink:href="#DejaVuSans-73" transform="translate(716.992188 0)"/>
      <use xlink:href="#DejaVuSans-65" transform="translate(769.091797 0)"/>
      <use xlink:href="#DejaVuSans-73" transform="translate(830.615234 0)"/>
      <use xlink:href="#DejaVuSans-73" transform="translate(882.714844 0)"/>
      <use xlink:href="#DejaVuSans-69" transform="translate(934.814453 0)"/>
      <use xlink:href="#DejaVuSans-6f" transform="translate(962.597656 0)"/>
      <use xlink:href="#DejaVuSans-6e" transform="translate(1023.779297 0)"/>
      <use xlink:href="#DejaVuSans-20" transform="translate(1087.158203 0)"/>
      <use xlink:href="#DejaVuSans-73" transform="translate(1118.945312 0)"/>
      <use xlink:href="#DejaVuSans-74" transform="translate(1171.044922 0)"/>
      <use xlink:href="#DejaVuSans-61" transform="translate(1210.253906 0)"/>
      <use xlink:href="#DejaVuSans-72" transform="translate(1271.533203 0)"/>
      <use xlink:href="#DejaVuSans-74" transform="translate(1312.646484 0)"/>
     </g>
    </g>
   </g>
   <g id="matplotlib.axis_2">
    <g id="ytick_1">
     <g id="line2d_17">
      <path d="M 42.190938 219.3232 
L 935.353437 219.3232 
" clip-path="url(#pa87f74907e)" style="fill: none; stroke: #eef2f7; stroke-opacity: 0.25; stroke-width: 0.55; stroke-linecap: square"/>
     </g>
     <g id="line2d_18">
      <defs>
       <path id="mfdf8ea816e" d="M 0 0 
L -3.5 0 
" style="stroke: #000000; stroke-width: 0.8"/>
      </defs>
      <g>
       <use xlink:href="#mfdf8ea816e" x="42.190938" y="219.3232" style="stroke: #000000; stroke-width: 0.8"/>
      </g>
     </g>
     <g id="text_10">
      <!-- 0.0 -->
      <g transform="translate(20.878125 222.742497) scale(0.09 -0.09)">
       <defs>
        <path id="DejaVuSans-2e" d="M 684 794 
L 1344 794 
L 1344 0 
L 684 0 
L 684 794 
z
" transform="scale(0.015625)"/>
       </defs>
       <use xlink:href="#DejaVuSans-30"/>
       <use xlink:href="#DejaVuSans-2e" transform="translate(63.623047 0)"/>
       <use xlink:href="#DejaVuSans-30" transform="translate(95.410156 0)"/>
      </g>
     </g>
    </g>
    <g id="ytick_2">
     <g id="line2d_19">
      <path d="M 42.190938 185.996166 
L 935.353437 185.996166 
" clip-path="url(#pa87f74907e)" style="fill: none; stroke: #eef2f7; stroke-opacity: 0.25; stroke-width: 0.55; stroke-linecap: square"/>
     </g>
     <g id="line2d_20">
      <g>
       <use xlink:href="#mfdf8ea816e" x="42.190938" y="185.996166" style="stroke: #000000; stroke-width: 0.8"/>
      </g>
     </g>
     <g id="text_11">
      <!-- 0.1 -->
      <g transform="translate(20.878125 189.415463) scale(0.09 -0.09)">
       <use xlink:href="#DejaVuSans-30"/>
       <use xlink:href="#DejaVuSans-2e" transform="translate(63.623047 0)"/>
       <use xlink:href="#DejaVuSans-31" transform="translate(95.410156 0)"/>
      </g>
     </g>
    </g>
    <g id="ytick_3">
     <g id="line2d_21">
      <path d="M 42.190938 152.669133 
L 935.353437 152.669133 
" clip-path="url(#pa87f74907e)" style="fill: none; stroke: #eef2f7; stroke-opacity: 0.25; stroke-width: 0.55; stroke-linecap: square"/>
     </g>
     <g id="line2d_22">
      <g>
       <use xlink:href="#mfdf8ea816e" x="42.190938" y="152.669133" style="stroke: #000000; stroke-width: 0.8"/>
      </g>
     </g>
     <g id="text_12">
      <!-- 0.2 -->
      <g transform="translate(20.878125 156.08843) scale(0.09 -0.09)">
       <use xlink:href="#DejaVuSans-30"/>
       <use xlink:href="#DejaVuSans-2e" transform="translate(63.623047 0)"/>
       <use xlink:href="#DejaVuSans-32" transform="translate(95.410156 0)"/>
      </g>
     </g>
    </g>
    <g id="ytick_4">
     <g id="line2d_23">
      <path d="M 42.190938 119.342099 
L 935.353437 119.342099 
" clip-path="url(#pa87f74907e)" style="fill: none; stroke: #eef2f7; stroke-opacity: 0.25; stroke-width: 0.55; stroke-linecap: square"/>
     </g>
     <g id="line2d_24">
      <g>
       <use xlink:href="#mfdf8ea816e" x="42.190938" y="119.342099" style="stroke: #000000; stroke-width: 0.8"/>
      </g>
     </g>
     <g id="text_13">
      <!-- 0.3 -->
      <g transform="translate(20.878125 122.761396) scale(0.09 -0.09)">
       <defs>
        <path id="DejaVuSans-33" d="M 2597 2516 
Q 3050 2419 3304 2112 
Q 3559 1806 3559 1356 
Q 3559 666 3084 287 
Q 2609 -91 1734 -91 
Q 1441 -91 1130 -33 
Q 819 25 488 141 
L 488 750 
Q 750 597 1062 519 
Q 1375 441 1716 441 
Q 2309 441 2620 675 
Q 2931 909 2931 1356 
Q 2931 1769 2642 2001 
Q 2353 2234 1838 2234 
L 1294 2234 
L 1294 2753 
L 1863 2753 
Q 2328 2753 2575 2939 
Q 2822 3125 2822 3475 
Q 2822 3834 2567 4026 
Q 2313 4219 1838 4219 
Q 1578 4219 1281 4162 
Q 984 4106 628 3988 
L 628 4550 
Q 988 4650 1302 4700 
Q 1616 4750 1894 4750 
Q 2613 4750 3031 4423 
Q 3450 4097 3450 3541 
Q 3450 3153 3228 2886 
Q 3006 2619 2597 2516 
z
" transform="scale(0.015625)"/>
       </defs>
       <use xlink:href="#DejaVuSans-30"/>
       <use xlink:href="#DejaVuSans-2e" transform="translate(63.623047 0)"/>
       <use xlink:href="#DejaVuSans-33" transform="translate(95.410156 0)"/>
      </g>
     </g>
    </g>
    <g id="ytick_5">
     <g id="line2d_25">
      <path d="M 42.190938 86.015065 
L 935.353437 86.015065 
" clip-path="url(#pa87f74907e)" style="fill: none; stroke: #eef2f7; stroke-opacity: 0.25; stroke-width: 0.55; stroke-linecap: square"/>
     </g>
     <g id="line2d_26">
      <g>
       <use xlink:href="#mfdf8ea816e" x="42.190938" y="86.015065" style="stroke: #000000; stroke-width: 0.8"/>
      </g>
     </g>
     <g id="text_14">
      <!-- 0.4 -->
      <g transform="translate(20.878125 89.434362) scale(0.09 -0.09)">
       <use xlink:href="#DejaVuSans-30"/>
       <use xlink:href="#DejaVuSans-2e" transform="translate(63.623047 0)"/>
       <use xlink:href="#DejaVuSans-34" transform="translate(95.410156 0)"/>
      </g>
     </g>
    </g>
    <g id="ytick_6">
     <g id="line2d_27">
      <path d="M 42.190938 52.688032 
L 935.353437 52.688032 
" clip-path="url(#pa87f74907e)" style="fill: none; stroke: #eef2f7; stroke-opacity: 0.25; stroke-width: 0.55; stroke-linecap: square"/>
     </g>
     <g id="line2d_28">
      <g>
       <use xlink:href="#mfdf8ea816e" x="42.190938" y="52.688032" style="stroke: #000000; stroke-width: 0.8"/>
      </g>
     </g>
     <g id="text_15">
      <!-- 0.5 -->
      <g transform="translate(20.878125 56.107329) scale(0.09 -0.09)">
       <defs>
        <path id="DejaVuSans-35" d="M 691 4666 
L 3169 4666 
L 3169 4134 
L 1269 4134 
L 1269 2991 
Q 1406 3038 1543 3061 
Q 1681 3084 1819 3084 
Q 2600 3084 3056 2656 
Q 3513 2228 3513 1497 
Q 3513 744 3044 326 
Q 2575 -91 1722 -91 
Q 1428 -91 1123 -41 
Q 819 9 494 109 
L 494 744 
Q 775 591 1075 516 
Q 1375 441 1709 441 
Q 2250 441 2565 725 
Q 2881 1009 2881 1497 
Q 2881 1984 2565 2268 
Q 2250 2553 1709 2553 
Q 1456 2553 1204 2497 
Q 953 2441 691 2322 
L 691 4666 
z
" transform="scale(0.015625)"/>
       </defs>
       <use xlink:href="#DejaVuSans-30"/>
       <use xlink:href="#DejaVuSans-2e" transform="translate(63.623047 0)"/>
       <use xlink:href="#DejaVuSans-35" transform="translate(95.410156 0)"/>
      </g>
     </g>
    </g>
    <g id="ytick_7">
     <g id="line2d_29">
      <path d="M 42.190938 19.360998 
L 935.353437 19.360998 
" clip-path="url(#pa87f74907e)" style="fill: none; stroke: #eef2f7; stroke-opacity: 0.25; stroke-width: 0.55; stroke-linecap: square"/>
     </g>
     <g id="line2d_30">
      <g>
       <use xlink:href="#mfdf8ea816e" x="42.190938" y="19.360998" style="stroke: #000000; stroke-width: 0.8"/>
      </g>
     </g>
     <g id="text_16">
      <!-- 0.6 -->
      <g transform="translate(20.878125 22.780295) scale(0.09 -0.09)">
       <use xlink:href="#DejaVuSans-30"/>
       <use xlink:href="#DejaVuSans-2e" transform="translate(63.623047 0)"/>
       <use xlink:href="#DejaVuSans-36" transform="translate(95.410156 0)"/>
      </g>
     </g>
    </g>
    <g id="text_17">
     <!-- Velocity (m/s) -->
     <g transform="translate(14.798438 157.273698) rotate(-90) scale(0.1 -0.1)">
      <defs>
       <path id="DejaVuSans-56" d="M 1831 0 
L 50 4666 
L 709 4666 
L 2188 738 
L 3669 4666 
L 4325 4666 
L 2547 0 
L 1831 0 
z
" transform="scale(0.015625)"/>
       <path id="DejaVuSans-6c" d="M 603 4863 
L 1178 4863 
L 1178 0 
L 603 0 
L 603 4863 
z
" transform="scale(0.015625)"/>
       <path id="DejaVuSans-79" d="M 2059 -325 
Q 1816 -950 1584 -1140 
Q 1353 -1331 966 -1331 
L 506 -1331 
L 506 -850 
L 844 -850 
Q 1081 -850 1212 -737 
Q 1344 -625 1503 -206 
L 1606 56 
L 191 3500 
L 800 3500 
L 1894 763 
L 2988 3500 
L 3597 3500 
L 2059 -325 
z
" transform="scale(0.015625)"/>
       <path id="DejaVuSans-28" d="M 1984 4856 
Q 1566 4138 1362 3434 
Q 1159 2731 1159 2009 
Q 1159 1288 1364 580 
Q 1569 -128 1984 -844 
L 1484 -844 
Q 1016 -109 783 600 
Q 550 1309 550 2009 
Q 550 2706 781 3412 
Q 1013 4119 1484 4856 
L 1984 4856 
z
" transform="scale(0.015625)"/>
       <path id="DejaVuSans-6d" d="M 3328 2828 
Q 3544 3216 3844 3400 
Q 4144 3584 4550 3584 
Q 5097 3584 5394 3201 
Q 5691 2819 5691 2113 
L 5691 0 
L 5113 0 
L 5113 2094 
Q 5113 2597 4934 2840 
Q 4756 3084 4391 3084 
Q 3944 3084 3684 2787 
Q 3425 2491 3425 1978 
L 3425 0 
L 2847 0 
L 2847 2094 
Q 2847 2600 2669 2842 
Q 2491 3084 2119 3084 
Q 1678 3084 1418 2786 
Q 1159 2488 1159 1978 
L 1159 0 
L 581 0 
L 581 3500 
L 1159 3500 
L 1159 2956 
Q 1356 3278 1631 3431 
Q 1906 3584 2284 3584 
Q 2666 3584 2933 3390 
Q 3200 3197 3328 2828 
z
" transform="scale(0.015625)"/>
       <path id="DejaVuSans-2f" d="M 1625 4666 
L 2156 4666 
L 531 -594 
L 0 -594 
L 1625 4666 
z
" transform="scale(0.015625)"/>
       <path id="DejaVuSans-29" d="M 513 4856 
L 1013 4856 
Q 1481 4119 1714 3412 
Q 1947 2706 1947 2009 
Q 1947 1309 1714 600 
Q 1481 -109 1013 -844 
L 513 -844 
Q 928 -128 1133 580 
Q 1338 1288 1338 2009 
Q 1338 2731 1133 3434 
Q 928 4138 513 4856 
z
" transform="scale(0.015625)"/>
      </defs>
      <use xlink:href="#DejaVuSans-56"/>
      <use xlink:href="#DejaVuSans-65" transform="translate(60.658203 0)"/>
      <use xlink:href="#DejaVuSans-6c" transform="translate(122.181641 0)"/>
      <use xlink:href="#DejaVuSans-6f" transform="translate(149.964844 0)"/>
      <use xlink:href="#DejaVuSans-63" transform="translate(211.146484 0)"/>
      <use xlink:href="#DejaVuSans-69" transform="translate(266.126953 0)"/>
      <use xlink:href="#DejaVuSans-74" transform="translate(293.910156 0)"/>
      <use xlink:href="#DejaVuSans-79" transform="translate(333.119141 0)"/>
      <use xlink:href="#DejaVuSans-20" transform="translate(392.298828 0)"/>
      <use xlink:href="#DejaVuSans-28" transform="translate(424.085938 0)"/>
      <use xlink:href="#DejaVuSans-6d" transform="translate(463.099609 0)"/>
      <use xlink:href="#DejaVuSans-2f" transform="translate(560.511719 0)"/>
      <use xlink:href="#DejaVuSans-73" transform="translate(594.203125 0)"/>
      <use xlink:href="#DejaVuSans-29" transform="translate(646.302734 0)"/>
     </g>
    </g>
   </g>
   <g id="line2d_31">
    <path d="M 59.367139 198.660439 
L 65.017206 198.99371 
L 70.667272 208.325279 
L 76.317339 201.326602 
L 81.967405 193.328114 
L 87.617472 181.663652 
L 93.267538 196.660817 
L 98.917604 199.66025 
L 104.567671 194.661195 
L 110.217737 200.326791 
L 115.867804 198.327169 
L 118.692837 200.660061 
L 121.51787 202.659683 
L 132.818003 195.994277 
L 138.468069 202.326413 
L 144.118136 198.99371 
L 149.768202 204.659305 
L 155.418269 200.326791 
L 161.068335 209.991631 
L 166.718401 196.994088 
L 172.368468 186.329437 
L 178.018534 187.329248 
L 183.668601 191.995032 
L 189.318667 192.661573 
L 194.968734 193.994654 
L 200.6188 191.661762 
L 206.268866 190.661951 
L 211.918933 194.661195 
L 217.568999 194.661195 
L 223.219066 192.994843 
L 228.869132 208.658549 
L 234.519199 210.991442 
L 240.169265 202.326413 
L 245.819331 204.659305 
L 251.469398 199.993521 
L 257.119464 199.993521 
L 259.944497 201.659872 
L 262.769531 202.992954 
L 268.419597 204.326035 
L 274.069663 201.326602 
L 279.71973 198.660439 
L 285.369796 199.66025 
L 291.019863 201.659872 
L 296.669929 197.327358 
L 302.319996 205.325846 
L 307.970062 199.993521 
L 313.620128 200.993332 
L 319.270195 208.99182 
L 330.570328 204.326035 
L 336.220394 198.327169 
L 341.870461 202.659683 
L 347.520527 200.326791 
L 353.170593 202.659683 
L 358.82066 202.326413 
L 364.470726 210.324901 
L 370.120793 205.659116 
L 375.770859 201.659872 
L 381.420925 204.326035 
L 387.070992 203.326224 
L 392.721058 199.993521 
L 398.371125 200.660061 
L 404.021191 201.659872 
L 409.671258 198.327169 
L 415.321324 194.661195 
L 420.97139 189.32887 
L 426.621457 187.662518 
L 432.271523 202.659683 
L 435.096556 203.992765 
L 437.92159 204.992576 
L 449.221723 200.326791 
L 454.871789 207.325468 
L 460.521855 205.659116 
L 466.171922 204.659305 
L 471.821988 210.324901 
L 477.472055 205.325846 
L 483.122121 201.326602 
L 488.772187 186.995977 
L 494.422254 179.33076 
L 500.07232 192.994843 
L 505.722387 187.329248 
L 511.372453 190.661951 
L 517.02252 199.32698 
L 522.672586 193.994654 
L 528.322652 198.99371 
L 533.972719 194.661195 
L 539.622785 193.328114 
L 545.272852 201.326602 
L 550.922918 205.659116 
L 556.572985 204.659305 
L 562.223051 205.325846 
L 567.873117 204.992576 
L 573.523184 204.326035 
L 576.348217 206.325657 
L 579.17325 207.992009 
L 584.823317 200.660061 
L 590.473383 207.992009 
L 596.12345 209.32509 
L 601.773516 202.659683 
L 607.423582 212.324523 
L 613.073649 202.659683 
L 618.723715 206.325657 
L 624.373782 202.992954 
L 635.673914 212.324523 
L 641.323981 206.325657 
L 646.974047 215.323956 
L 652.624114 204.659305 
L 658.27418 211.991253 
L 663.924247 218.656659 
L 669.574313 200.993332 
L 675.224379 211.324712 
L 680.874446 204.326035 
L 686.524512 203.992765 
L 692.174579 200.326791 
L 697.824645 199.993521 
L 703.474712 201.326602 
L 709.124778 204.659305 
L 714.774844 202.992954 
L 720.424911 193.661384 
L 726.074977 198.99371 
L 731.725044 194.994466 
L 737.37511 187.329248 
L 743.025176 197.660628 
L 748.675243 195.994277 
L 754.325309 208.658549 
L 765.625442 202.992954 
L 771.275509 202.326413 
L 776.925575 209.65836 
L 782.575641 205.325846 
L 788.225708 214.657415 
L 793.875774 205.325846 
L 799.525841 200.993332 
L 805.175907 193.994654 
L 810.825974 190.661951 
L 816.47604 190.661951 
L 822.126106 198.327169 
L 827.776173 179.33076 
L 833.426239 188.662329 
L 839.076306 192.328303 
L 844.726372 188.995599 
L 850.376439 175.998056 
L 856.026505 188.995599 
L 861.676571 203.326224 
L 867.326638 202.326413 
L 872.976704 201.993143 
L 878.626771 203.992765 
L 884.276837 201.659872 
L 889.926903 203.659494 
L 895.57697 206.992198 
L 901.227036 211.324712 
L 906.877103 203.992765 
L 912.527169 208.658549 
L 918.177236 203.659494 
L 918.177236 203.659494 
" clip-path="url(#pa87f74907e)" style="fill: none; stroke: #b8e3b2; stroke-opacity: 0.95; stroke-width: 0.936; stroke-linecap: square"/>
   </g>
   <g id="line2d_32">
    <path d="M 59.367139 206.992198 
L 65.017206 212.657793 
L 76.317339 203.326224 
L 81.967405 184.663085 
L 87.617472 181.996922 
L 93.267538 186.995977 
L 98.917604 186.662707 
L 104.567671 195.327736 
L 110.217737 205.325846 
L 115.867804 198.327169 
L 121.51787 216.323767 
L 132.818003 200.993332 
L 138.468069 201.659872 
L 144.118136 202.659683 
L 149.768202 212.657793 
L 155.418269 198.327169 
L 161.068335 206.325657 
L 166.718401 208.99182 
L 172.368468 182.663463 
L 178.018534 165.666676 
L 183.668601 195.661006 
L 194.968734 192.328303 
L 200.6188 196.994088 
L 206.268866 198.660439 
L 211.918933 189.66214 
L 217.568999 186.662707 
L 223.219066 191.328492 
L 228.869132 208.325279 
L 234.519199 203.659494 
L 240.169265 199.993521 
L 245.819331 200.993332 
L 251.469398 194.661195 
L 262.769531 203.992765 
L 268.419597 201.659872 
L 274.069663 204.992576 
L 279.71973 206.658927 
L 285.369796 203.992765 
L 291.019863 206.325657 
L 296.669929 204.992576 
L 302.319996 206.325657 
L 307.970062 199.32698 
L 313.620128 208.658549 
L 319.270195 204.992576 
L 330.570328 204.659305 
L 336.220394 204.992576 
L 341.870461 202.992954 
L 347.520527 212.991064 
L 353.170593 201.326602 
L 358.82066 205.325846 
L 364.470726 203.992765 
L 370.120793 215.990497 
L 375.770859 204.992576 
L 381.420925 204.992576 
L 387.070992 216.323767 
L 392.721058 201.326602 
L 398.371125 200.660061 
L 404.021191 192.661573 
L 409.671258 178.330949 
L 415.321324 200.993332 
L 420.97139 204.992576 
L 432.271523 188.329059 
L 437.92159 211.991253 
L 449.221723 210.658171 
L 454.871789 213.657604 
L 460.521855 205.992387 
L 466.171922 210.324901 
L 471.821988 206.658927 
L 477.472055 205.992387 
L 483.122121 209.32509 
L 488.772187 185.996166 
L 494.422254 197.660628 
L 500.07232 196.660817 
L 505.722387 191.661762 
L 511.372453 194.994466 
L 517.02252 194.661195 
L 522.672586 196.660817 
L 528.322652 197.660628 
L 533.972719 189.99541 
L 539.622785 198.660439 
L 545.272852 204.659305 
L 550.922918 200.993332 
L 556.572985 204.992576 
L 562.223051 195.327736 
L 567.873117 207.325468 
L 576.348217 205.325846 
L 579.17325 204.326035 
L 584.823317 201.326602 
L 590.473383 211.324712 
L 596.12345 207.325468 
L 601.773516 204.659305 
L 607.423582 199.32698 
L 613.073649 201.993143 
L 618.723715 203.992765 
L 624.373782 204.992576 
L 635.673914 203.659494 
L 641.323981 204.992576 
L 646.974047 202.992954 
L 652.624114 201.326602 
L 658.27418 200.993332 
L 663.924247 196.327547 
L 669.574313 198.660439 
L 675.224379 217.656848 
L 680.874446 203.992765 
L 686.524512 202.326413 
L 692.174579 197.993899 
L 697.824645 201.993143 
L 703.474712 207.658738 
L 709.124778 198.660439 
L 714.774844 192.994843 
L 720.424911 192.661573 
L 726.074977 193.328114 
L 731.725044 205.325846 
L 737.37511 200.993332 
L 743.025176 188.662329 
L 748.675243 194.994466 
L 754.325309 212.991064 
L 765.625442 198.660439 
L 771.275509 200.326791 
L 776.925575 199.993521 
L 782.575641 193.994654 
L 788.225708 194.994466 
L 793.875774 197.327358 
L 799.525841 204.992576 
L 805.175907 192.994843 
L 810.825974 185.662896 
L 816.47604 197.327358 
L 822.126106 193.994654 
L 827.776173 199.993521 
L 833.426239 195.994277 
L 839.076306 195.327736 
L 844.726372 196.994088 
L 850.376439 194.327925 
L 856.026505 197.327358 
L 861.676571 202.659683 
L 867.326638 206.992198 
L 872.976704 209.991631 
L 878.626771 204.659305 
L 884.276837 203.992765 
L 889.926903 205.325846 
L 895.57697 206.992198 
L 901.227036 205.992387 
L 906.877103 205.659116 
L 912.527169 204.992576 
L 918.177236 202.326413 
L 918.177236 202.326413 
" clip-path="url(#pa87f74907e)" style="fill: none; stroke: #98d594; stroke-opacity: 0.95; stroke-width: 0.936; stroke-linecap: square"/>
   </g>
   <g id="line2d_33">
    <path d="M 59.367139 205.659116 
L 65.017206 204.992576 
L 70.667272 209.32509 
L 76.317339 191.995032 
L 81.967405 125.007695 
L 87.617472 128.340398 
L 93.267538 146.670267 
L 98.917604 142.004482 
L 104.567671 128.673669 
L 110.217737 158.334728 
L 115.867804 190.661951 
L 121.51787 199.993521 
L 132.818003 203.992765 
L 138.468069 210.991442 
L 144.118136 214.324145 
L 149.768202 209.991631 
L 155.418269 203.326224 
L 161.068335 216.323767 
L 166.718401 205.659116 
L 172.368468 105.678015 
L 178.018534 132.006372 
L 183.668601 119.008829 
L 189.318667 105.344745 
L 194.968734 109.343989 
L 200.6188 110.3438 
L 206.268866 127.340587 
L 211.918933 96.013176 
L 223.219066 143.670834 
L 228.869132 204.992576 
L 234.519199 212.324523 
L 240.169265 217.656848 
L 245.819331 205.325846 
L 251.469398 207.325468 
L 257.119464 208.658549 
L 262.769531 206.658927 
L 268.419597 206.658927 
L 274.069663 211.657982 
L 279.71973 205.992387 
L 285.369796 204.326035 
L 291.019863 211.657982 
L 296.669929 205.992387 
L 302.319996 216.323767 
L 307.970062 206.325657 
L 313.620128 212.657793 
L 319.270195 210.991442 
L 330.570328 218.98993 
L 336.220394 205.992387 
L 341.870461 212.657793 
L 347.520527 209.991631 
L 353.170593 204.659305 
L 358.82066 214.324145 
L 364.470726 206.992198 
L 370.120793 211.324712 
L 375.770859 209.991631 
L 381.420925 212.657793 
L 387.070992 207.325468 
L 392.721058 202.326413 
L 398.371125 179.9973 
L 404.021191 134.005994 
L 409.671258 136.338886 
L 415.321324 129.67348 
L 420.97139 162.000702 
L 426.621457 132.006372 
L 432.271523 189.32887 
L 437.92159 206.325657 
L 449.221723 203.992765 
L 454.871789 206.325657 
L 460.521855 207.658738 
L 466.171922 205.992387 
L 471.821988 217.656848 
L 477.472055 204.659305 
L 483.122121 205.325846 
L 488.772187 132.339642 
L 494.422254 138.338508 
L 500.07232 111.676881 
L 505.722387 144.670645 
L 511.372453 129.006939 
L 517.02252 116.342666 
L 522.672586 130.673291 
L 528.322652 122.674802 
L 533.972719 93.680283 
L 539.622785 143.337563 
L 545.272852 207.325468 
L 550.922918 211.324712 
L 556.572985 204.659305 
L 562.223051 204.659305 
L 567.873117 211.657982 
L 573.523184 207.658738 
L 579.17325 207.658738 
L 584.823317 214.990686 
L 590.473383 212.991064 
L 596.12345 208.99182 
L 601.773516 213.657604 
L 607.423582 210.991442 
L 613.073649 205.992387 
L 618.723715 206.992198 
L 624.373782 206.658927 
L 635.673914 210.991442 
L 641.323981 204.326035 
L 646.974047 219.3232 
L 652.624114 210.991442 
L 658.27418 208.658549 
L 663.924247 209.32509 
L 669.574313 213.324334 
L 675.224379 205.659116 
L 680.874446 204.992576 
L 686.524512 213.324334 
L 692.174579 209.991631 
L 697.824645 206.325657 
L 703.474712 211.991253 
L 709.124778 205.325846 
L 714.774844 180.663841 
L 720.424911 141.004671 
L 726.074977 121.674991 
L 731.725044 126.007506 
L 737.37511 152.669133 
L 743.025176 152.335862 
L 748.675243 202.326413 
L 754.325309 206.325657 
L 765.625442 206.658927 
L 771.275509 203.992765 
L 776.925575 205.325846 
L 782.575641 211.657982 
L 788.225708 214.990686 
L 793.875774 210.991442 
L 799.525841 202.326413 
L 805.175907 139.005049 
L 810.825974 135.672346 
L 816.47604 96.346446 
L 822.126106 128.007128 
L 827.776173 144.004104 
L 833.426239 148.669889 
L 839.076306 133.672724 
L 844.726372 137.338697 
L 850.376439 158.334728 
L 856.026505 167.333028 
L 861.676571 198.99371 
L 867.326638 212.657793 
L 872.976704 205.992387 
L 878.626771 213.324334 
L 884.276837 205.992387 
L 887.10187 208.325279 
L 889.926903 210.324901 
L 895.57697 210.991442 
L 901.227036 208.325279 
L 906.877103 202.992954 
L 912.527169 204.326035 
L 918.177236 203.659494 
L 918.177236 203.659494 
" clip-path="url(#pa87f74907e)" style="fill: none; stroke: #73c476; stroke-opacity: 0.95; stroke-width: 0.936; stroke-linecap: square"/>
   </g>
   <g id="line2d_34">
    <path d="M 59.367139 214.990686 
L 65.017206 218.323389 
L 70.667272 217.323578 
L 76.317339 208.99182 
L 81.967405 181.663652 
L 87.617472 191.661762 
L 93.267538 188.662329 
L 98.917604 197.327358 
L 104.567671 191.328492 
L 110.217737 189.99541 
L 115.867804 194.661195 
L 121.51787 212.991064 
L 132.818003 207.658738 
L 138.468069 213.990875 
L 144.118136 209.32509 
L 149.768202 213.990875 
L 155.418269 206.325657 
L 161.068335 210.991442 
L 166.718401 212.324523 
L 172.368468 193.661384 
L 178.018534 184.996355 
L 183.668601 187.995788 
L 189.318667 192.328303 
L 194.968734 182.996733 
L 200.6188 182.996733 
L 206.268866 188.662329 
L 211.918933 187.662518 
L 217.568999 187.329248 
L 223.219066 186.662707 
L 228.869132 204.659305 
L 234.519199 209.991631 
L 240.169265 210.324901 
L 245.819331 206.325657 
L 251.469398 205.659116 
L 257.119464 211.657982 
L 262.769531 214.990686 
L 274.069663 209.65836 
L 279.71973 209.991631 
L 285.369796 214.657415 
L 291.019863 214.990686 
L 296.669929 213.324334 
L 302.319996 210.324901 
L 307.970062 210.991442 
L 313.620128 212.324523 
L 319.270195 206.325657 
L 330.570328 214.324145 
L 336.220394 219.3232 
L 341.870461 212.324523 
L 347.520527 218.323389 
L 353.170593 218.98993 
L 358.82066 210.324901 
L 364.470726 206.658927 
L 370.120793 213.657604 
L 375.770859 214.324145 
L 381.420925 212.991064 
L 387.070992 215.323956 
L 392.721058 201.659872 
L 398.371125 199.993521 
L 404.021191 193.994654 
L 409.671258 196.994088 
L 415.321324 188.995599 
L 420.97139 189.32887 
L 426.621457 181.663652 
L 432.271523 185.329626 
L 437.92159 208.658549 
L 449.221723 209.65836 
L 460.521855 209.65836 
L 466.171922 210.991442 
L 471.821988 218.98993 
L 477.472055 215.657226 
L 483.122121 217.990119 
L 488.772187 199.32698 
L 494.422254 187.995788 
L 500.07232 179.9973 
L 505.722387 163.333784 
L 511.372453 186.995977 
L 517.02252 192.994843 
L 522.672586 186.329437 
L 528.322652 182.996733 
L 533.972719 197.327358 
L 539.622785 186.329437 
L 545.272852 204.659305 
L 550.922918 212.324523 
L 562.223051 210.991442 
L 567.873117 214.990686 
L 573.523184 211.991253 
L 576.348217 213.324334 
L 579.17325 214.324145 
L 584.823317 209.991631 
L 590.473383 214.990686 
L 596.12345 209.32509 
L 601.773516 214.657415 
L 607.423582 210.658171 
L 613.073649 216.657037 
L 618.723715 210.324901 
L 624.373782 213.324334 
L 635.673914 211.324712 
L 641.323981 218.98993 
L 646.974047 210.991442 
L 652.624114 207.658738 
L 658.27418 211.991253 
L 663.924247 214.990686 
L 669.574313 213.324334 
L 675.224379 210.658171 
L 680.874446 216.657037 
L 686.524512 207.325468 
L 692.174579 214.990686 
L 697.824645 210.324901 
L 703.474712 213.990875 
L 709.124778 210.991442 
L 714.774844 206.658927 
L 720.424911 198.327169 
L 726.074977 203.659494 
L 731.725044 179.33076 
L 737.37511 180.997111 
L 743.025176 194.327925 
L 748.675243 198.99371 
L 751.500276 202.992954 
L 754.325309 206.658927 
L 765.625442 208.99182 
L 771.275509 210.658171 
L 776.925575 211.991253 
L 782.575641 211.991253 
L 788.225708 212.657793 
L 793.875774 201.659872 
L 799.525841 201.993143 
L 805.175907 194.327925 
L 810.825974 188.662329 
L 816.47604 182.663463 
L 822.126106 172.665353 
L 827.776173 190.661951 
L 833.426239 189.99541 
L 839.076306 196.660817 
L 844.726372 184.663085 
L 850.376439 173.331894 
L 856.026505 177.331138 
L 861.676571 203.326224 
L 867.326638 203.992765 
L 872.976704 201.993143 
L 878.626771 201.993143 
L 884.276837 204.659305 
L 887.10187 204.659305 
L 889.926903 204.992576 
L 895.57697 201.659872 
L 901.227036 203.659494 
L 906.877103 204.659305 
L 912.527169 204.992576 
L 918.177236 203.659494 
L 918.177236 203.659494 
" clip-path="url(#pa87f74907e)" style="fill: none; stroke: #2f974e; stroke-opacity: 0.95; stroke-width: 0.936; stroke-linecap: square"/>
   </g>
   <g id="line2d_35">
    <path d="M 59.367139 206.325657 
L 65.017206 212.324523 
L 70.667272 213.657604 
L 76.317339 194.327925 
L 81.967405 72.350982 
L 87.617472 84.681984 
L 93.267538 90.014309 
L 98.917604 96.346446 
L 104.567671 89.347769 
L 110.217737 99.679149 
L 115.867804 188.995599 
L 121.51787 202.992954 
L 132.818003 207.325468 
L 138.468069 219.3232 
L 144.118136 205.992387 
L 149.768202 205.659116 
L 155.418269 204.326035 
L 161.068335 212.991064 
L 166.718401 208.99182 
L 172.368468 33.358352 
L 178.018534 67.018656 
L 183.668601 67.018656 
L 189.318667 47.355706 
L 194.968734 63.019412 
L 200.6188 62.352872 
L 206.268866 75.350415 
L 211.918933 26.692946 
L 217.568999 70.35136 
L 223.219066 117.675747 
L 228.869132 207.658738 
L 234.519199 217.656848 
L 240.169265 217.656848 
L 245.819331 206.992198 
L 251.469398 211.657982 
L 257.119464 209.65836 
L 259.944497 207.658738 
L 262.769531 205.992387 
L 268.419597 207.658738 
L 274.069663 213.990875 
L 279.71973 211.324712 
L 285.369796 206.325657 
L 291.019863 208.658549 
L 296.669929 213.324334 
L 302.319996 214.990686 
L 307.970062 205.325846 
L 313.620128 214.657415 
L 319.270195 213.324334 
L 330.570328 212.657793 
L 336.220394 213.657604 
L 341.870461 208.325279 
L 347.520527 206.658927 
L 353.170593 207.658738 
L 358.82066 208.325279 
L 364.470726 212.657793 
L 370.120793 206.658927 
L 375.770859 209.991631 
L 381.420925 207.992009 
L 387.070992 207.658738 
L 392.721058 202.659683 
L 398.371125 171.665542 
L 404.021191 69.018278 
L 409.671258 73.684063 
L 415.321324 64.685764 
L 420.97139 103.011853 
L 426.621457 75.350415 
L 432.271523 175.998056 
L 437.92159 209.991631 
L 449.221723 204.659305 
L 454.871789 209.32509 
L 460.521855 207.992009 
L 466.171922 212.657793 
L 471.821988 209.32509 
L 477.472055 206.658927 
L 483.122121 209.32509 
L 488.772187 50.68841 
L 494.422254 58.686898 
L 500.07232 34.024893 
L 505.722387 72.017711 
L 511.372453 69.018278 
L 517.02252 46.355895 
L 522.672586 73.684063 
L 528.322652 58.686898 
L 533.972719 32.025271 
L 539.622785 109.343989 
L 545.272852 201.993143 
L 550.922918 212.991064 
L 556.572985 204.659305 
L 562.223051 206.992198 
L 567.873117 215.323956 
L 573.523184 210.991442 
L 576.348217 209.991631 
L 579.17325 209.32509 
L 584.823317 213.990875 
L 590.473383 207.658738 
L 596.12345 210.658171 
L 601.773516 216.657037 
L 607.423582 212.657793 
L 613.073649 205.992387 
L 618.723715 214.990686 
L 624.373782 208.658549 
L 635.673914 212.991064 
L 641.323981 209.991631 
L 646.974047 213.990875 
L 652.624114 207.325468 
L 658.27418 207.325468 
L 663.924247 211.657982 
L 669.574313 212.991064 
L 675.224379 211.324712 
L 680.874446 212.657793 
L 686.524512 209.65836 
L 692.174579 213.657604 
L 697.824645 213.324334 
L 703.474712 211.324712 
L 709.124778 206.658927 
L 714.774844 175.664786 
L 720.424911 60.68652 
L 726.074977 58.353628 
L 731.725044 74.017333 
L 737.37511 87.348147 
L 743.025176 95.679905 
L 748.675243 189.99541 
L 751.500276 197.660628 
L 754.325309 205.659116 
L 765.625442 206.992198 
L 771.275509 206.325657 
L 776.925575 207.325468 
L 782.575641 207.658738 
L 788.225708 217.656848 
L 793.875774 207.992009 
L 799.525841 203.992765 
L 805.175907 58.686898 
L 810.825974 54.687654 
L 816.47604 39.023948 
L 822.126106 59.686709 
L 827.776173 81.349281 
L 833.426239 79.682929 
L 839.076306 74.017333 
L 844.726372 62.019601 
L 850.376439 105.344745 
L 856.026505 137.005427 
L 861.676571 200.326791 
L 867.326638 212.991064 
L 872.976704 214.324145 
L 878.626771 214.324145 
L 884.276837 212.324523 
L 887.10187 208.99182 
L 889.926903 205.992387 
L 895.57697 206.325657 
L 901.227036 207.992009 
L 906.877103 203.326224 
L 912.527169 205.325846 
L 918.177236 205.992387 
L 918.177236 205.992387 
" clip-path="url(#pa87f74907e)" style="fill: none; stroke: #157f3b; stroke-opacity: 0.95; stroke-width: 0.936; stroke-linecap: square"/>
   </g>
   <g id="patch_23">
    <path d="M 42.190938 228.954713 
L 42.190938 17.061433 
" style="fill: none; stroke: #cbd5e1; stroke-width: 0.8; stroke-linejoin: miter; stroke-linecap: square"/>
   </g>
   <g id="patch_24">
    <path d="M 935.353437 228.954713 
L 935.353437 17.061433 
" style="fill: none; stroke: #cbd5e1; stroke-width: 0.8; stroke-linejoin: miter; stroke-linecap: square"/>
   </g>
   <g id="patch_25">
    <path d="M 42.190938 228.954713 
L 935.353437 228.954713 
" style="fill: none; stroke: #cbd5e1; stroke-width: 0.8; stroke-linejoin: miter; stroke-linecap: square"/>
   </g>
   <g id="patch_26">
    <path d="M 42.190938 17.061433 
L 935.353437 17.061433 
" style="fill: none; stroke: #cbd5e1; stroke-width: 0.8; stroke-linejoin: miter; stroke-linecap: square"/>
   </g>
   <g id="text_18">
    <!-- ACC -->
    <g style="fill: #475569" transform="translate(42.526538 13.27875) scale(0.08 -0.08)">
     <defs>
      <path id="DejaVuSans-41" d="M 2188 4044 
L 1331 1722 
L 3047 1722 
L 2188 4044 
z
M 1831 4666 
L 2547 4666 
L 4325 0 
L 3669 0 
L 3244 1197 
L 1141 1197 
L 716 0 
L 50 0 
L 1831 4666 
z
" transform="scale(0.015625)"/>
      <path id="DejaVuSans-43" d="M 4122 4306 
L 4122 3641 
Q 3803 3938 3442 4084 
Q 3081 4231 2675 4231 
Q 1875 4231 1450 3742 
Q 1025 3253 1025 2328 
Q 1025 1406 1450 917 
Q 1875 428 2675 428 
Q 3081 428 3442 575 
Q 3803 722 4122 1019 
L 4122 359 
Q 3791 134 3420 21 
Q 3050 -91 2638 -91 
Q 1578 -91 968 557 
Q 359 1206 359 2328 
Q 359 3453 968 4101 
Q 1578 4750 2638 4750 
Q 3056 4750 3426 4639 
Q 3797 4528 4122 4306 
z
" transform="scale(0.015625)"/>
     </defs>
     <use xlink:href="#DejaVuSans-41"/>
     <use xlink:href="#DejaVuSans-43" transform="translate(66.658203 0)"/>
     <use xlink:href="#DejaVuSans-43" transform="translate(136.482422 0)"/>
    </g>
   </g>
   <g id="text_19">
    <!-- OC -->
    <g style="fill: #475569" transform="translate(70.375464 13.27875) scale(0.08 -0.08)">
     <defs>
      <path id="DejaVuSans-4f" d="M 2522 4238 
Q 1834 4238 1429 3725 
Q 1025 3213 1025 2328 
Q 1025 1447 1429 934 
Q 1834 422 2522 422 
Q 3209 422 3611 934 
Q 4013 1447 4013 2328 
Q 4013 3213 3611 3725 
Q 3209 4238 2522 4238 
z
M 2522 4750 
Q 3503 4750 4090 4092 
Q 4678 3434 4678 2328 
Q 4678 1225 4090 567 
Q 3503 -91 2522 -91 
Q 1538 -91 948 565 
Q 359 1222 359 2328 
Q 359 3434 948 4092 
Q 1538 4750 2522 4750 
z
" transform="scale(0.015625)"/>
     </defs>
     <use xlink:href="#DejaVuSans-4f"/>
     <use xlink:href="#DejaVuSans-43" transform="translate(78.710938 0)"/>
    </g>
   </g>
   <g id="text_20">
    <!-- FCS -->
    <g style="fill: #475569" transform="translate(99.759579 13.27875) scale(0.08 -0.08)">
     <defs>
      <path id="DejaVuSans-46" d="M 628 4666 
L 3309 4666 
L 3309 4134 
L 1259 4134 
L 1259 2759 
L 3109 2759 
L 3109 2228 
L 1259 2228 
L 1259 0 
L 628 0 
L 628 4666 
z
" transform="scale(0.015625)"/>
      <path id="DejaVuSans-53" d="M 3425 4513 
L 3425 3897 
Q 3066 4069 2747 4153 
Q 2428 4238 2131 4238 
Q 1616 4238 1336 4038 
Q 1056 3838 1056 3469 
Q 1056 3159 1242 3001 
Q 1428 2844 1947 2747 
L 2328 2669 
Q 3034 2534 3370 2195 
Q 3706 1856 3706 1288 
Q 3706 609 3251 259 
Q 2797 -91 1919 -91 
Q 1588 -91 1214 -16 
Q 841 59 441 206 
L 441 856 
Q 825 641 1194 531 
Q 1563 422 1919 422 
Q 2459 422 2753 634 
Q 3047 847 3047 1241 
Q 3047 1584 2836 1778 
Q 2625 1972 2144 2069 
L 1759 2144 
Q 1053 2284 737 2584 
Q 422 2884 422 3419 
Q 422 4038 858 4394 
Q 1294 4750 2059 4750 
Q 2388 4750 2728 4690 
Q 3069 4631 3425 4513 
z
" transform="scale(0.015625)"/>
     </defs>
     <use xlink:href="#DejaVuSans-46"/>
     <use xlink:href="#DejaVuSans-43" transform="translate(57.519531 0)"/>
     <use xlink:href="#DejaVuSans-53" transform="translate(127.34375 0)"/>
    </g>
   </g>
   <g id="text_21">
    <!-- SR -->
    <g style="fill: #475569" transform="translate(138.799386 13.27875) scale(0.08 -0.08)">
     <defs>
      <path id="DejaVuSans-52" d="M 2841 2188 
Q 3044 2119 3236 1894 
Q 3428 1669 3622 1275 
L 4263 0 
L 3584 0 
L 2988 1197 
Q 2756 1666 2539 1819 
Q 2322 1972 1947 1972 
L 1259 1972 
L 1259 0 
L 628 0 
L 628 4666 
L 2053 4666 
Q 2853 4666 3247 4331 
Q 3641 3997 3641 3322 
Q 3641 2881 3436 2590 
Q 3231 2300 2841 2188 
z
M 1259 4147 
L 1259 2491 
L 2053 2491 
Q 2509 2491 2742 2702 
Q 2975 2913 2975 3322 
Q 2975 3731 2742 3939 
Q 2509 4147 2053 4147 
L 1259 4147 
z
" transform="scale(0.015625)"/>
     </defs>
     <use xlink:href="#DejaVuSans-53"/>
     <use xlink:href="#DejaVuSans-52" transform="translate(63.476562 0)"/>
    </g>
   </g>
   <g id="text_22">
    <!-- FFC -->
    <g style="fill: #475569" transform="translate(190.399392 13.27875) scale(0.08 -0.08)">
     <use xlink:href="#DejaVuSans-46"/>
     <use xlink:href="#DejaVuSans-46" transform="translate(57.519531 0)"/>
     <use xlink:href="#DejaVuSans-43" transform="translate(115.039062 0)"/>
    </g>
   </g>
   <g id="text_23">
    <!-- SS -->
    <g style="fill: #475569" transform="translate(302.891312 13.27875) scale(0.08 -0.08)">
     <use xlink:href="#DejaVuSans-53"/>
     <use xlink:href="#DejaVuSans-53" transform="translate(63.476562 0)"/>
    </g>
   </g>
   <g id="text_24">
    <!-- OC -->
    <g style="fill: #475569" transform="translate(389.604217 13.27875) scale(0.08 -0.08)">
     <use xlink:href="#DejaVuSans-4f"/>
     <use xlink:href="#DejaVuSans-43" transform="translate(78.710938 0)"/>
    </g>
   </g>
   <g id="text_25">
    <!-- FCS -->
    <g style="fill: #475569" transform="translate(416.163299 13.27875) scale(0.08 -0.08)">
     <use xlink:href="#DejaVuSans-46"/>
     <use xlink:href="#DejaVuSans-43" transform="translate(57.519531 0)"/>
     <use xlink:href="#DejaVuSans-53" transform="translate(127.34375 0)"/>
    </g>
   </g>
   <g id="text_26">
    <!-- SR -->
    <g style="fill: #475569" transform="translate(458.028139 13.27875) scale(0.08 -0.08)">
     <use xlink:href="#DejaVuSans-53"/>
     <use xlink:href="#DejaVuSans-52" transform="translate(63.476562 0)"/>
    </g>
   </g>
   <g id="text_27">
    <!-- FFC -->
    <g style="fill: #475569" transform="translate(509.628145 13.27875) scale(0.08 -0.08)">
     <use xlink:href="#DejaVuSans-46"/>
     <use xlink:href="#DejaVuSans-46" transform="translate(57.519531 0)"/>
     <use xlink:href="#DejaVuSans-43" transform="translate(115.039062 0)"/>
    </g>
   </g>
   <g id="text_28">
    <!-- SS -->
    <g style="fill: #475569" transform="translate(619.295032 13.27875) scale(0.08 -0.08)">
     <use xlink:href="#DejaVuSans-53"/>
     <use xlink:href="#DejaVuSans-53" transform="translate(63.476562 0)"/>
    </g>
   </g>
   <g id="text_29">
    <!-- OC -->
    <g style="fill: #475569" transform="translate(706.007936 13.27875) scale(0.08 -0.08)">
     <use xlink:href="#DejaVuSans-4f"/>
     <use xlink:href="#DejaVuSans-43" transform="translate(78.710938 0)"/>
    </g>
   </g>
   <g id="text_30">
    <!-- FCS -->
    <g style="fill: #475569" transform="translate(732.567018 13.27875) scale(0.08 -0.08)">
     <use xlink:href="#DejaVuSans-46"/>
     <use xlink:href="#DejaVuSans-43" transform="translate(57.519531 0)"/>
     <use xlink:href="#DejaVuSans-53" transform="translate(127.34375 0)"/>
    </g>
   </g>
   <g id="text_31">
    <!-- SR -->
    <g style="fill: #475569" transform="translate(774.431858 13.27875) scale(0.08 -0.08)">
     <use xlink:href="#DejaVuSans-53"/>
     <use xlink:href="#DejaVuSans-52" transform="translate(63.476562 0)"/>
    </g>
   </g>
   <g id="text_32">
    <!-- FFC -->
    <g style="fill: #475569" transform="translate(826.031864 13.27875) scale(0.08 -0.08)">
     <use xlink:href="#DejaVuSans-46"/>
     <use xlink:href="#DejaVuSans-46" transform="translate(57.519531 0)"/>
     <use xlink:href="#DejaVuSans-43" transform="translate(115.039062 0)"/>
    </g>
   </g>
   <g id="text_33">
    <!-- SS -->
    <g style="fill: #475569" transform="translate(887.673187 13.27875) scale(0.08 -0.08)">
     <use xlink:href="#DejaVuSans-53"/>
     <use xlink:href="#DejaVuSans-53" transform="translate(63.476562 0)"/>
    </g>
   </g>
   <g id="legend_1">
    <g id="line2d_36">
     <path d="M 846.228437 27.540183 
L 854.228437 27.540183 
L 862.228437 27.540183 
" style="fill: none; stroke: #b8e3b2; stroke-opacity: 0.95; stroke-width: 1.3; stroke-linecap: square"/>
    </g>
    <g id="text_34">
     <!-- V1 -->
     <g transform="translate(868.628437 30.340183) scale(0.08 -0.08)">
      <use xlink:href="#DejaVuSans-56"/>
      <use xlink:href="#DejaVuSans-31" transform="translate(68.408203 0)"/>
     </g>
    </g>
    <g id="line2d_37">
     <path d="M 846.228437 39.282683 
L 854.228437 39.282683 
L 862.228437 39.282683 
" style="fill: none; stroke: #98d594; stroke-opacity: 0.95; stroke-width: 1.3; stroke-linecap: square"/>
    </g>
    <g id="text_35">
     <!-- V2 -->
     <g transform="translate(868.628437 42.082683) scale(0.08 -0.08)">
      <use xlink:href="#DejaVuSans-56"/>
      <use xlink:href="#DejaVuSans-32" transform="translate(68.408203 0)"/>
     </g>
    </g>
    <g id="line2d_38">
     <path d="M 846.228437 51.025183 
L 854.228437 51.025183 
L 862.228437 51.025183 
" style="fill: none; stroke: #73c476; stroke-opacity: 0.95; stroke-width: 1.3; stroke-linecap: square"/>
    </g>
    <g id="text_36">
     <!-- V3 -->
     <g transform="translate(868.628437 53.825183) scale(0.08 -0.08)">
      <use xlink:href="#DejaVuSans-56"/>
      <use xlink:href="#DejaVuSans-33" transform="translate(68.408203 0)"/>
     </g>
    </g>
    <g id="line2d_39">
     <path d="M 895.190937 27.540183 
L 903.190937 27.540183 
L 911.190937 27.540183 
" style="fill: none; stroke: #2f974e; stroke-opacity: 0.95; stroke-width: 1.3; stroke-linecap: square"/>
    </g>
    <g id="text_37">
     <!-- V5 -->
     <g transform="translate(917.590937 30.340183) scale(0.08 -0.08)">
      <use xlink:href="#DejaVuSans-56"/>
      <use xlink:href="#DejaVuSans-35" transform="translate(68.408203 0)"/>
     </g>
    </g>
    <g id="line2d_40">
     <path d="M 895.190937 39.282683 
L 903.190937 39.282683 
L 911.190937 39.282683 
" style="fill: none; stroke: #157f3b; stroke-opacity: 0.95; stroke-width: 1.3; stroke-linecap: square"/>
    </g>
    <g id="text_38">
     <!-- V6 -->
     <g transform="translate(917.590937 42.082683) scale(0.08 -0.08)">
      <use xlink:href="#DejaVuSans-56"/>
      <use xlink:href="#DejaVuSans-36" transform="translate(68.408203 0)"/>
     </g>
    </g>
   </g>
  </g>
 </g>
 <defs>
  <clipPath id="pa87f74907e">
   <rect x="42.190938" y="17.061433" width="893.1625" height="211.89328"/>
  </clipPath>
 </defs>
</svg>
