<?xml version="1.0" encoding="utf-8" standalone="no"?>
<!DOCTYPE svg PUBLIC "-//W3C//DTD SVG 1.1//EN"
  "http://www.w3.org/Graphics/SVG/1.1/DTD/svg11.dtd">
<svg xmlns:xlink="http://www.w3.org/1999/xlink" width="942.542187pt" height="265.54315pt" viewBox="0 0 942.542187 265.54315" xmlns="http://www.w3.org/2000/svg" version="1.1">
 <metadata>
  <rdf:RDF xmlns:dc="http://purl.org/dc/elements/1.1/" xmlns:cc="http://creativecommons.org/ns#" xmlns:rdf="http://www.w3.org/1999/02/22-rdf-syntax-ns#">
   <cc:Work>
    <dc:type rdf:resource="http://purl.org/dc/dcmitype/StillImage"/>
    <dc:date>2026-04-17T17:30:32.743096</dc:date>
    <dc:format>image/svg+xml</dc:format>
    <dc:creator>
     <cc:Agent>
      <dc:title>Matplotlib v3.10.8, https://matplotlib.org/</dc:title>
     </cc:Agent>
    </dc:creator>
   </cc:Work>
  </rdf:RDF>
 </metadata>
 <defs>
  <style type="text/css">*{stroke-linejoin: round; stroke-linecap: butt}</style>
 </defs>
 <g id="figure_1">
  <g id="patch_1">
   <path d="M 0 265.54315 
L 942.542187 265.54315 
L 942.542187 0 
L 0 0 
z
" style="fill: #ffffff"/>
  </g>
  <g id="axes_1">
   <g id="patch_2">
    <path d="M 47.917188 228.954713 
L 935.342187 228.954713 
L 935.342187 17.061433 
L 47.917188 17.061433 
z
" style="fill: #ffffff"/>
   </g>
   <g id="patch_3">
    <path d="M 47.917187 228.954713 
L 64.983053 228.954713 
L 64.983053 17.061433 
L 47.917187 17.061433 
z
" clip-path="url(#p099c6c4b98)" style="fill: #f8fafc; opacity: 0.45"/>
   </g>
   <g id="patch_4">
    <path d="M 64.983053 228.954713 
L 98.665682 228.954713 
L 98.665682 17.061433 
L 64.983053 17.061433 
z
" clip-path="url(#p099c6c4b98)" style="fill: #eff6ff; opacity: 0.45"/>
   </g>
   <g id="patch_5">
    <path d="M 98.665682 228.954713 
L 126.734539 228.954713 
L 126.734539 17.061433 
L 98.665682 17.061433 
z
" clip-path="url(#p099c6c4b98)" style="fill: #fef3c7; opacity: 0.45"/>
   </g>
   <g id="patch_6">
    <path d="M 126.734539 228.954713 
L 171.644712 228.954713 
L 171.644712 17.061433 
L 126.734539 17.061433 
z
" clip-path="url(#p099c6c4b98)" style="fill: #dcfce7; opacity: 0.45"/>
   </g>
   <g id="patch_7">
    <path d="M 171.644712 228.954713 
L 233.396198 228.954713 
L 233.396198 17.061433 
L 171.644712 17.061433 
z
" clip-path="url(#p099c6c4b98)" style="fill: #fee2e2; opacity: 0.45"/>
   </g>
   <g id="patch_8">
    <path d="M 233.396198 228.954713 
L 239.00997 228.954713 
L 239.00997 17.061433 
L 233.396198 17.061433 
z
" clip-path="url(#p099c6c4b98)" style="fill: #ede9fe; opacity: 0.45"/>
   </g>
   <g id="patch_9">
    <path d="M 239.00997 228.954713 
L 384.968029 228.954713 
L 384.968029 17.061433 
L 239.00997 17.061433 
z
" clip-path="url(#p099c6c4b98)" style="fill: #f8fafc; opacity: 0.45"/>
   </g>
   <g id="patch_10">
    <path d="M 384.968029 228.954713 
L 413.036886 228.954713 
L 413.036886 17.061433 
L 384.968029 17.061433 
z
" clip-path="url(#p099c6c4b98)" style="fill: #eff6ff; opacity: 0.45"/>
   </g>
   <g id="patch_11">
    <path d="M 413.036886 228.954713 
L 441.105744 228.954713 
L 441.105744 17.061433 
L 413.036886 17.061433 
z
" clip-path="url(#p099c6c4b98)" style="fill: #fef3c7; opacity: 0.45"/>
   </g>
   <g id="patch_12">
    <path d="M 441.105744 228.954713 
L 491.629687 228.954713 
L 491.629687 17.061433 
L 441.105744 17.061433 
z
" clip-path="url(#p099c6c4b98)" style="fill: #dcfce7; opacity: 0.45"/>
   </g>
   <g id="patch_13">
    <path d="M 491.629687 228.954713 
L 547.767403 228.954713 
L 547.767403 17.061433 
L 491.629687 17.061433 
z
" clip-path="url(#p099c6c4b98)" style="fill: #fee2e2; opacity: 0.45"/>
   </g>
   <g id="patch_14">
    <path d="M 547.767403 228.954713 
L 553.381174 228.954713 
L 553.381174 17.061433 
L 547.767403 17.061433 
z
" clip-path="url(#p099c6c4b98)" style="fill: #ede9fe; opacity: 0.45"/>
   </g>
   <g id="patch_15">
    <path d="M 553.381174 228.954713 
L 699.339233 228.954713 
L 699.339233 17.061433 
L 553.381174 17.061433 
z
" clip-path="url(#p099c6c4b98)" style="fill: #f8fafc; opacity: 0.45"/>
   </g>
   <g id="patch_16">
    <path d="M 699.339233 228.954713 
L 727.408091 228.954713 
L 727.408091 17.061433 
L 699.339233 17.061433 
z
" clip-path="url(#p099c6c4b98)" style="fill: #eff6ff; opacity: 0.45"/>
   </g>
   <g id="patch_17">
    <path d="M 727.408091 228.954713 
L 755.476948 228.954713 
L 755.476948 17.061433 
L 727.408091 17.061433 
z
" clip-path="url(#p099c6c4b98)" style="fill: #fef3c7; opacity: 0.45"/>
   </g>
   <g id="patch_18">
    <path d="M 755.476948 228.954713 
L 806.000892 228.954713 
L 806.000892 17.061433 
L 755.476948 17.061433 
z
" clip-path="url(#p099c6c4b98)" style="fill: #dcfce7; opacity: 0.45"/>
   </g>
   <g id="patch_19">
    <path d="M 806.000892 228.954713 
L 862.138607 228.954713 
L 862.138607 17.061433 
L 806.000892 17.061433 
z
" clip-path="url(#p099c6c4b98)" style="fill: #fee2e2; opacity: 0.45"/>
   </g>
   <g id="patch_20">
    <path d="M 862.138607 228.954713 
L 867.752379 228.954713 
L 867.752379 17.061433 
L 862.138607 17.061433 
z
" clip-path="url(#p099c6c4b98)" style="fill: #ede9fe; opacity: 0.45"/>
   </g>
   <g id="patch_21">
    <path d="M 867.752379 228.954713 
L 918.276322 228.954713 
L 918.276322 17.061433 
L 867.752379 17.061433 
z
" clip-path="url(#p099c6c4b98)" style="fill: #f8fafc; opacity: 0.45"/>
   </g>
   <g id="patch_22">
    <path d="M 918.276322 228.954713 
L 923.890094 228.954713 
L 923.890094 17.061433 
L 918.276322 17.061433 
z
" clip-path="url(#p099c6c4b98)" style="fill: #eff6ff; opacity: 0.45"/>
   </g>
   <g id="matplotlib.axis_1">
    <g id="xtick_1">
     <g id="line2d_1">
      <path d="M 64.983053 228.954713 
L 64.983053 17.061433 
" clip-path="url(#p099c6c4b98)" style="fill: none; stroke: #eef2f7; stroke-width: 0.55; stroke-linecap: square"/>
     </g>
     <g id="line2d_2">
      <defs>
       <path id="mede650a36b" d="M 0 0 
L 0 3.5 
" style="stroke: #000000; stroke-width: 0.8"/>
      </defs>
      <g>
       <use xlink:href="#mede650a36b" x="64.983053" y="228.954713" style="stroke: #000000; stroke-width: 0.8"/>
      </g>
     </g>
     <g id="text_1">
      <!-- 40 -->
      <g transform="translate(59.256803 242.793307) scale(0.09 -0.09)">
       <defs>
        <path id="DejaVuSans-34" d="M 2419 4116 
L 825 1625 
L 2419 1625 
L 2419 4116 
z
M 2253 4666 
L 3047 4666 
L 3047 1625 
L 3713 1625 
L 3713 1100 
L 3047 1100 
L 3047 0 
L 2419 0 
L 2419 1100 
L 313 1100 
L 313 1709 
L 2253 4666 
z
" transform="scale(0.015625)"/>
        <path id="DejaVuSans-30" d="M 2034 4250 
Q 1547 4250 1301 3770 
Q 1056 3291 1056 2328 
Q 1056 1369 1301 889 
Q 1547 409 2034 409 
Q 2525 409 2770 889 
Q 3016 1369 3016 2328 
Q 3016 3291 2770 3770 
Q 2525 4250 2034 4250 
z
M 2034 4750 
Q 2819 4750 3233 4129 
Q 3647 3509 3647 2328 
Q 3647 1150 3233 529 
Q 2819 -91 2034 -91 
Q 1250 -91 836 529 
Q 422 1150 422 2328 
Q 422 3509 836 4129 
Q 1250 4750 2034 4750 
z
" transform="scale(0.015625)"/>
       </defs>
       <use xlink:href="#DejaVuSans-34"/>
       <use xlink:href="#DejaVuSans-30" transform="translate(63.623047 0)"/>
      </g>
     </g>
    </g>
    <g id="xtick_2">
     <g id="line2d_3">
      <path d="M 177.258483 228.954713 
L 177.258483 17.061433 
" clip-path="url(#p099c6c4b98)" style="fill: none; stroke: #eef2f7; stroke-width: 0.55; stroke-linecap: square"/>
     </g>
     <g id="line2d_4">
      <g>
       <use xlink:href="#mede650a36b" x="177.258483" y="228.954713" style="stroke: #000000; stroke-width: 0.8"/>
      </g>
     </g>
     <g id="text_2">
      <!-- 60 -->
      <g transform="translate(171.532233 242.793307) scale(0.09 -0.09)">
       <defs>
        <path id="DejaVuSans-36" d="M 2113 2584 
Q 1688 2584 1439 2293 
Q 1191 2003 1191 1497 
Q 1191 994 1439 701 
Q 1688 409 2113 409 
Q 2538 409 2786 701 
Q 3034 994 3034 1497 
Q 3034 2003 2786 2293 
Q 2538 2584 2113 2584 
z
M 3366 4563 
L 3366 3988 
Q 3128 4100 2886 4159 
Q 2644 4219 2406 4219 
Q 1781 4219 1451 3797 
Q 1122 3375 1075 2522 
Q 1259 2794 1537 2939 
Q 1816 3084 2150 3084 
Q 2853 3084 3261 2657 
Q 3669 2231 3669 1497 
Q 3669 778 3244 343 
Q 2819 -91 2113 -91 
Q 1303 -91 875 529 
Q 447 1150 447 2328 
Q 447 3434 972 4092 
Q 1497 4750 2381 4750 
Q 2619 4750 2861 4703 
Q 3103 4656 3366 4563 
z
" transform="scale(0.015625)"/>
       </defs>
       <use xlink:href="#DejaVuSans-36"/>
       <use xlink:href="#DejaVuSans-30" transform="translate(63.623047 0)"/>
      </g>
     </g>
    </g>
    <g id="xtick_3">
     <g id="line2d_5">
      <path d="M 289.533913 228.954713 
L 289.533913 17.061433 
" clip-path="url(#p099c6c4b98)" style="fill: none; stroke: #eef2f7; stroke-width: 0.55; stroke-linecap: square"/>
     </g>
     <g id="line2d_6">
      <g>
       <use xlink:href="#mede650a36b" x="289.533913" y="228.954713" style="stroke: #000000; stroke-width: 0.8"/>
      </g>
     </g>
     <g id="text_3">
      <!-- 80 -->
      <g transform="translate(283.807663 242.793307) scale(0.09 -0.09)">
       <defs>
        <path id="DejaVuSans-38" d="M 2034 2216 
Q 1584 2216 1326 1975 
Q 1069 1734 1069 1313 
Q 1069 891 1326 650 
Q 1584 409 2034 409 
Q 2484 409 2743 651 
Q 3003 894 3003 1313 
Q 3003 1734 2745 1975 
Q 2488 2216 2034 2216 
z
M 1403 2484 
Q 997 2584 770 2862 
Q 544 3141 544 3541 
Q 544 4100 942 4425 
Q 1341 4750 2034 4750 
Q 2731 4750 3128 4425 
Q 3525 4100 3525 3541 
Q 3525 3141 3298 2862 
Q 3072 2584 2669 2484 
Q 3125 2378 3379 2068 
Q 3634 1759 3634 1313 
Q 3634 634 3220 271 
Q 2806 -91 2034 -91 
Q 1263 -91 848 271 
Q 434 634 434 1313 
Q 434 1759 690 2068 
Q 947 2378 1403 2484 
z
M 1172 3481 
Q 1172 3119 1398 2916 
Q 1625 2713 2034 2713 
Q 2441 2713 2670 2916 
Q 2900 3119 2900 3481 
Q 2900 3844 2670 4047 
Q 2441 4250 2034 4250 
Q 1625 4250 1398 4047 
Q 1172 3844 1172 3481 
z
" transform="scale(0.015625)"/>
       </defs>
       <use xlink:href="#DejaVuSans-38"/>
       <use xlink:href="#DejaVuSans-30" transform="translate(63.623047 0)"/>
      </g>
     </g>
    </g>
    <g id="xtick_4">
     <g id="line2d_7">
      <path d="M 401.809343 228.954713 
L 401.809343 17.061433 
" clip-path="url(#p099c6c4b98)" style="fill: none; stroke: #eef2f7; stroke-width: 0.55; stroke-linecap: square"/>
     </g>
     <g id="line2d_8">
      <g>
       <use xlink:href="#mede650a36b" x="401.809343" y="228.954713" style="stroke: #000000; stroke-width: 0.8"/>
      </g>
     </g>
     <g id="text_4">
      <!-- 100 -->
      <g transform="translate(393.219968 242.793307) scale(0.09 -0.09)">
       <defs>
        <path id="DejaVuSans-31" d="M 794 531 
L 1825 531 
L 1825 4091 
L 703 3866 
L 703 4441 
L 1819 4666 
L 2450 4666 
L 2450 531 
L 3481 531 
L 3481 0 
L 794 0 
L 794 531 
z
" transform="scale(0.015625)"/>
       </defs>
       <use xlink:href="#DejaVuSans-31"/>
       <use xlink:href="#DejaVuSans-30" transform="translate(63.623047 0)"/>
       <use xlink:href="#DejaVuSans-30" transform="translate(127.246094 0)"/>
      </g>
     </g>
    </g>
    <g id="xtick_5">
     <g id="line2d_9">
      <path d="M 514.084774 228.954713 
L 514.084774 17.061433 
" clip-path="url(#p099c6c4b98)" style="fill: none; stroke: #eef2f7; stroke-width: 0.55; stroke-linecap: square"/>
     </g>
     <g id="line2d_10">
      <g>
       <use xlink:href="#mede650a36b" x="514.084774" y="228.954713" style="stroke: #000000; stroke-width: 0.8"/>
      </g>
     </g>
     <g id="text_5">
      <!-- 120 -->
      <g transform="translate(505.495399 242.793307) scale(0.09 -0.09)">
       <defs>
        <path id="DejaVuSans-32" d="M 1228 531 
L 3431 531 
L 3431 0 
L 469 0 
L 469 531 
Q 828 903 1448 1529 
Q 2069 2156 2228 2338 
Q 2531 2678 2651 2914 
Q 2772 3150 2772 3378 
Q 2772 3750 2511 3984 
Q 2250 4219 1831 4219 
Q 1534 4219 1204 4116 
Q 875 4013 500 3803 
L 500 4441 
Q 881 4594 1212 4672 
Q 1544 4750 1819 4750 
Q 2544 4750 2975 4387 
Q 3406 4025 3406 3419 
Q 3406 3131 3298 2873 
Q 3191 2616 2906 2266 
Q 2828 2175 2409 1742 
Q 1991 1309 1228 531 
z
" transform="scale(0.015625)"/>
       </defs>
       <use xlink:href="#DejaVuSans-31"/>
       <use xlink:href="#DejaVuSans-32" transform="translate(63.623047 0)"/>
       <use xlink:href="#DejaVuSans-30" transform="translate(127.246094 0)"/>
      </g>
     </g>
    </g>
    <g id="xtick_6">
     <g id="line2d_11">
      <path d="M 626.360204 228.954713 
L 626.360204 17.061433 
" clip-path="url(#p099c6c4b98)" style="fill: none; stroke: #eef2f7; stroke-width: 0.55; stroke-linecap: square"/>
     </g>
     <g id="line2d_12">
      <g>
       <use xlink:href="#mede650a36b" x="626.360204" y="228.954713" style="stroke: #000000; stroke-width: 0.8"/>
      </g>
     </g>
     <g id="text_6">
      <!-- 140 -->
      <g transform="translate(617.770829 242.793307) scale(0.09 -0.09)">
       <use xlink:href="#DejaVuSans-31"/>
       <use xlink:href="#DejaVuSans-34" transform="translate(63.623047 0)"/>
       <use xlink:href="#DejaVuSans-30" transform="translate(127.246094 0)"/>
      </g>
     </g>
    </g>
    <g id="xtick_7">
     <g id="line2d_13">
      <path d="M 738.635634 228.954713 
L 738.635634 17.061433 
" clip-path="url(#p099c6c4b98)" style="fill: none; stroke: #eef2f7; stroke-width: 0.55; stroke-linecap: square"/>
     </g>
     <g id="line2d_14">
      <g>
       <use xlink:href="#mede650a36b" x="738.635634" y="228.954713" style="stroke: #000000; stroke-width: 0.8"/>
      </g>
     </g>
     <g id="text_7">
      <!-- 160 -->
      <g transform="translate(730.046259 242.793307) scale(0.09 -0.09)">
       <use xlink:href="#DejaVuSans-31"/>
       <use xlink:href="#DejaVuSans-36" transform="translate(63.623047 0)"/>
       <use xlink:href="#DejaVuSans-30" transform="translate(127.246094 0)"/>
      </g>
     </g>
    </g>
    <g id="xtick_8">
     <g id="line2d_15">
      <path d="M 850.911064 228.954713 
L 850.911064 17.061433 
" clip-path="url(#p099c6c4b98)" style="fill: none; stroke: #eef2f7; stroke-width: 0.55; stroke-linecap: square"/>
     </g>
     <g id="line2d_16">
      <g>
       <use xlink:href="#mede650a36b" x="850.911064" y="228.954713" style="stroke: #000000; stroke-width: 0.8"/>
      </g>
     </g>
     <g id="text_8">
      <!-- 180 -->
      <g transform="translate(842.321689 242.793307) scale(0.09 -0.09)">
       <use xlink:href="#DejaVuSans-31"/>
       <use xlink:href="#DejaVuSans-38" transform="translate(63.623047 0)"/>
       <use xlink:href="#DejaVuSans-30" transform="translate(127.246094 0)"/>
      </g>
     </g>
    </g>
    <g id="text_9">
     <!-- Minutes since session start -->
     <g transform="translate(424.039844 256.263463) scale(0.1 -0.1)">
      <defs>
       <path id="DejaVuSans-4d" d="M 628 4666 
L 1569 4666 
L 2759 1491 
L 3956 4666 
L 4897 4666 
L 4897 0 
L 4281 0 
L 4281 4097 
L 3078 897 
L 2444 897 
L 1241 4097 
L 1241 0 
L 628 0 
L 628 4666 
z
" transform="scale(0.015625)"/>
       <path id="DejaVuSans-69" d="M 603 3500 
L 1178 3500 
L 1178 0 
L 603 0 
L 603 3500 
z
M 603 4863 
L 1178 4863 
L 1178 4134 
L 603 4134 
L 603 4863 
z
" transform="scale(0.015625)"/>
       <path id="DejaVuSans-6e" d="M 3513 2113 
L 3513 0 
L 2938 0 
L 2938 2094 
Q 2938 2591 2744 2837 
Q 2550 3084 2163 3084 
Q 1697 3084 1428 2787 
Q 1159 2491 1159 1978 
L 1159 0 
L 581 0 
L 581 3500 
L 1159 3500 
L 1159 2956 
Q 1366 3272 1645 3428 
Q 1925 3584 2291 3584 
Q 2894 3584 3203 3211 
Q 3513 2838 3513 2113 
z
" transform="scale(0.015625)"/>
       <path id="DejaVuSans-75" d="M 544 1381 
L 544 3500 
L 1119 3500 
L 1119 1403 
Q 1119 906 1312 657 
Q 1506 409 1894 409 
Q 2359 409 2629 706 
Q 2900 1003 2900 1516 
L 2900 3500 
L 3475 3500 
L 3475 0 
L 2900 0 
L 2900 538 
Q 2691 219 2414 64 
Q 2138 -91 1772 -91 
Q 1169 -91 856 284 
Q 544 659 544 1381 
z
M 1991 3584 
L 1991 3584 
z
" transform="scale(0.015625)"/>
       <path id="DejaVuSans-74" d="M 1172 4494 
L 1172 3500 
L 2356 3500 
L 2356 3053 
L 1172 3053 
L 1172 1153 
Q 1172 725 1289 603 
Q 1406 481 1766 481 
L 2356 481 
L 2356 0 
L 1766 0 
Q 1100 0 847 248 
Q 594 497 594 1153 
L 594 3053 
L 172 3053 
L 172 3500 
L 594 3500 
L 594 4494 
L 1172 4494 
z
" transform="scale(0.015625)"/>
       <path id="DejaVuSans-65" d="M 3597 1894 
L 3597 1613 
L 953 1613 
Q 991 1019 1311 708 
Q 1631 397 2203 397 
Q 2534 397 2845 478 
Q 3156 559 3463 722 
L 3463 178 
Q 3153 47 2828 -22 
Q 2503 -91 2169 -91 
Q 1331 -91 842 396 
Q 353 884 353 1716 
Q 353 2575 817 3079 
Q 1281 3584 2069 3584 
Q 2775 3584 3186 3129 
Q 3597 2675 3597 1894 
z
M 3022 2063 
Q 3016 2534 2758 2815 
Q 2500 3097 2075 3097 
Q 1594 3097 1305 2825 
Q 1016 2553 972 2059 
L 3022 2063 
z
" transform="scale(0.015625)"/>
       <path id="DejaVuSans-73" d="M 2834 3397 
L 2834 2853 
Q 2591 2978 2328 3040 
Q 2066 3103 1784 3103 
Q 1356 3103 1142 2972 
Q 928 2841 928 2578 
Q 928 2378 1081 2264 
Q 1234 2150 1697 2047 
L 1894 2003 
Q 2506 1872 2764 1633 
Q 3022 1394 3022 966 
Q 3022 478 2636 193 
Q 2250 -91 1575 -91 
Q 1294 -91 989 -36 
Q 684 19 347 128 
L 347 722 
Q 666 556 975 473 
Q 1284 391 1588 391 
Q 1994 391 2212 530 
Q 2431 669 2431 922 
Q 2431 1156 2273 1281 
Q 2116 1406 1581 1522 
L 1381 1569 
Q 847 1681 609 1914 
Q 372 2147 372 2553 
Q 372 3047 722 3315 
Q 1072 3584 1716 3584 
Q 2034 3584 2315 3537 
Q 2597 3491 2834 3397 
z
" transform="scale(0.015625)"/>
       <path id="DejaVuSans-20" transform="scale(0.015625)"/>
       <path id="DejaVuSans-63" d="M 3122 3366 
L 3122 2828 
Q 2878 2963 2633 3030 
Q 2388 3097 2138 3097 
Q 1578 3097 1268 2742 
Q 959 2388 959 1747 
Q 959 1106 1268 751 
Q 1578 397 2138 397 
Q 2388 397 2633 464 
Q 2878 531 3122 666 
L 3122 134 
Q 2881 22 2623 -34 
Q 2366 -91 2075 -91 
Q 1284 -91 818 406 
Q 353 903 353 1747 
Q 353 2603 823 3093 
Q 1294 3584 2113 3584 
Q 2378 3584 2631 3529 
Q 2884 3475 3122 3366 
z
" transform="scale(0.015625)"/>
       <path id="DejaVuSans-6f" d="M 1959 3097 
Q 1497 3097 1228 2736 
Q 959 2375 959 1747 
Q 959 1119 1226 758 
Q 1494 397 1959 397 
Q 2419 397 2687 759 
Q 2956 1122 2956 1747 
Q 2956 2369 2687 2733 
Q 2419 3097 1959 3097 
z
M 1959 3584 
Q 2709 3584 3137 3096 
Q 3566 2609 3566 1747 
Q 3566 888 3137 398 
Q 2709 -91 1959 -91 
Q 1206 -91 779 398 
Q 353 888 353 1747 
Q 353 2609 779 3096 
Q 1206 3584 1959 3584 
z
" transform="scale(0.015625)"/>
       <path id="DejaVuSans-61" d="M 2194 1759 
Q 1497 1759 1228 1600 
Q 959 1441 959 1056 
Q 959 750 1161 570 
Q 1363 391 1709 391 
Q 2188 391 2477 730 
Q 2766 1069 2766 1631 
L 2766 1759 
L 2194 1759 
z
M 3341 1997 
L 3341 0 
L 2766 0 
L 2766 531 
Q 2569 213 2275 61 
Q 1981 -91 1556 -91 
Q 1019 -91 701 211 
Q 384 513 384 1019 
Q 384 1609 779 1909 
Q 1175 2209 1959 2209 
L 2766 2209 
L 2766 2266 
Q 2766 2663 2505 2880 
Q 2244 3097 1772 3097 
Q 1472 3097 1187 3025 
Q 903 2953 641 2809 
L 641 3341 
Q 956 3463 1253 3523 
Q 1550 3584 1831 3584 
Q 2591 3584 2966 3190 
Q 3341 2797 3341 1997 
z
" transform="scale(0.015625)"/>
       <path id="DejaVuSans-72" d="M 2631 2963 
Q 2534 3019 2420 3045 
Q 2306 3072 2169 3072 
Q 1681 3072 1420 2755 
Q 1159 2438 1159 1844 
L 1159 0 
L 581 0 
L 581 3500 
L 1159 3500 
L 1159 2956 
Q 1341 3275 1631 3429 
Q 1922 3584 2338 3584 
Q 2397 3584 2469 3576 
Q 2541 3569 2628 3553 
L 2631 2963 
z
" transform="scale(0.015625)"/>
      </defs>
      <use xlink:href="#DejaVuSans-4d"/>
      <use xlink:href="#DejaVuSans-69" transform="translate(86.279297 0)"/>
      <use xlink:href="#DejaVuSans-6e" transform="translate(114.0625 0)"/>
      <use xlink:href="#DejaVuSans-75" transform="translate(177.441406 0)"/>
      <use xlink:href="#DejaVuSans-74" transform="translate(240.820312 0)"/>
      <use xlink:href="#DejaVuSans-65" transform="translate(280.029297 0)"/>
      <use xlink:href="#DejaVuSans-73" transform="translate(341.552734 0)"/>
      <use xlink:href="#DejaVuSans-20" transform="translate(393.652344 0)"/>
      <use xlink:href="#DejaVuSans-73" transform="translate(425.439453 0)"/>
      <use xlink:href="#DejaVuSans-69" transform="translate(477.539062 0)"/>
      <use xlink:href="#DejaVuSans-6e" transform="translate(505.322266 0)"/>
      <use xlink:href="#DejaVuSans-63" transform="translate(568.701172 0)"/>
      <use xlink:href="#DejaVuSans-65" transform="translate(623.681641 0)"/>
      <use xlink:href="#DejaVuSans-20" transform="translate(685.205078 0)"/>
      <use xlink:href="#DejaVuSans-73" transform="translate(716.992188 0)"/>
      <use xlink:href="#DejaVuSans-65" transform="translate(769.091797 0)"/>
      <use xlink:href="#DejaVuSans-73" transform="translate(830.615234 0)"/>
      <use xlink:href="#DejaVuSans-73" transform="translate(882.714844 0)"/>
      <use xlink:href="#DejaVuSans-69" transform="translate(934.814453 0)"/>
      <use xlink:href="#DejaVuSans-6f" transform="translate(962.597656 0)"/>
      <use xlink:href="#DejaVuSans-6e" transform="translate(1023.779297 0)"/>
      <use xlink:href="#DejaVuSans-20" transform="translate(1087.158203 0)"/>
      <use xlink:href="#DejaVuSans-73" transform="translate(1118.945312 0)"/>
      <use xlink:href="#DejaVuSans-74" transform="translate(1171.044922 0)"/>
      <use xlink:href="#DejaVuSans-61" transform="translate(1210.253906 0)"/>
      <use xlink:href="#DejaVuSans-72" transform="translate(1271.533203 0)"/>
      <use xlink:href="#DejaVuSans-74" transform="translate(1312.646484 0)"/>
     </g>
    </g>
   </g>
   <g id="matplotlib.axis_2">
    <g id="ytick_1">
     <g id="line2d_17">
      <path d="M 47.917188 202.752856 
L 935.342187 202.752856 
" clip-path="url(#p099c6c4b98)" style="fill: none; stroke: #eef2f7; stroke-opacity: 0.25; stroke-width: 0.55; stroke-linecap: square"/>
     </g>
     <g id="line2d_18">
      <defs>
       <path id="mcb760eb336" d="M 0 0 
L -3.5 0 
" style="stroke: #000000; stroke-width: 0.8"/>
      </defs>
      <g>
       <use xlink:href="#mcb760eb336" x="47.917188" y="202.752856" style="stroke: #000000; stroke-width: 0.8"/>
      </g>
     </g>
     <g id="text_10">
      <!-- 28.0 -->
      <g transform="translate(20.878125 206.172152) scale(0.09 -0.09)">
       <defs>
        <path id="DejaVuSans-2e" d="M 684 794 
L 1344 794 
L 1344 0 
L 684 0 
L 684 794 
z
" transform="scale(0.015625)"/>
       </defs>
       <use xlink:href="#DejaVuSans-32"/>
       <use xlink:href="#DejaVuSans-38" transform="translate(63.623047 0)"/>
       <use xlink:href="#DejaVuSans-2e" transform="translate(127.246094 0)"/>
       <use xlink:href="#DejaVuSans-30" transform="translate(159.033203 0)"/>
      </g>
     </g>
    </g>
    <g id="ytick_2">
     <g id="line2d_19">
      <path d="M 47.917188 168.231305 
L 935.342187 168.231305 
" clip-path="url(#p099c6c4b98)" style="fill: none; stroke: #eef2f7; stroke-opacity: 0.25; stroke-width: 0.55; stroke-linecap: square"/>
     </g>
     <g id="line2d_20">
      <g>
       <use xlink:href="#mcb760eb336" x="47.917188" y="168.231305" style="stroke: #000000; stroke-width: 0.8"/>
      </g>
     </g>
     <g id="text_11">
      <!-- 28.5 -->
      <g transform="translate(20.878125 171.650601) scale(0.09 -0.09)">
       <defs>
        <path id="DejaVuSans-35" d="M 691 4666 
L 3169 4666 
L 3169 4134 
L 1269 4134 
L 1269 2991 
Q 1406 3038 1543 3061 
Q 1681 3084 1819 3084 
Q 2600 3084 3056 2656 
Q 3513 2228 3513 1497 
Q 3513 744 3044 326 
Q 2575 -91 1722 -91 
Q 1428 -91 1123 -41 
Q 819 9 494 109 
L 494 744 
Q 775 591 1075 516 
Q 1375 441 1709 441 
Q 2250 441 2565 725 
Q 2881 1009 2881 1497 
Q 2881 1984 2565 2268 
Q 2250 2553 1709 2553 
Q 1456 2553 1204 2497 
Q 953 2441 691 2322 
L 691 4666 
z
" transform="scale(0.015625)"/>
       </defs>
       <use xlink:href="#DejaVuSans-32"/>
       <use xlink:href="#DejaVuSans-38" transform="translate(63.623047 0)"/>
       <use xlink:href="#DejaVuSans-2e" transform="translate(127.246094 0)"/>
       <use xlink:href="#DejaVuSans-35" transform="translate(159.033203 0)"/>
      </g>
     </g>
    </g>
    <g id="ytick_3">
     <g id="line2d_21">
      <path d="M 47.917188 133.709754 
L 935.342187 133.709754 
" clip-path="url(#p099c6c4b98)" style="fill: none; stroke: #eef2f7; stroke-opacity: 0.25; stroke-width: 0.55; stroke-linecap: square"/>
     </g>
     <g id="line2d_22">
      <g>
       <use xlink:href="#mcb760eb336" x="47.917188" y="133.709754" style="stroke: #000000; stroke-width: 0.8"/>
      </g>
     </g>
     <g id="text_12">
      <!-- 29.0 -->
      <g transform="translate(20.878125 137.12905) scale(0.09 -0.09)">
       <defs>
        <path id="DejaVuSans-39" d="M 703 97 
L 703 672 
Q 941 559 1184 500 
Q 1428 441 1663 441 
Q 2288 441 2617 861 
Q 2947 1281 2994 2138 
Q 2813 1869 2534 1725 
Q 2256 1581 1919 1581 
Q 1219 1581 811 2004 
Q 403 2428 403 3163 
Q 403 3881 828 4315 
Q 1253 4750 1959 4750 
Q 2769 4750 3195 4129 
Q 3622 3509 3622 2328 
Q 3622 1225 3098 567 
Q 2575 -91 1691 -91 
Q 1453 -91 1209 -44 
Q 966 3 703 97 
z
M 1959 2075 
Q 2384 2075 2632 2365 
Q 2881 2656 2881 3163 
Q 2881 3666 2632 3958 
Q 2384 4250 1959 4250 
Q 1534 4250 1286 3958 
Q 1038 3666 1038 3163 
Q 1038 2656 1286 2365 
Q 1534 2075 1959 2075 
z
" transform="scale(0.015625)"/>
       </defs>
       <use xlink:href="#DejaVuSans-32"/>
       <use xlink:href="#DejaVuSans-39" transform="translate(63.623047 0)"/>
       <use xlink:href="#DejaVuSans-2e" transform="translate(127.246094 0)"/>
       <use xlink:href="#DejaVuSans-30" transform="translate(159.033203 0)"/>
      </g>
     </g>
    </g>
    <g id="ytick_4">
     <g id="line2d_23">
      <path d="M 47.917188 99.188203 
L 935.342187 99.188203 
" clip-path="url(#p099c6c4b98)" style="fill: none; stroke: #eef2f7; stroke-opacity: 0.25; stroke-width: 0.55; stroke-linecap: square"/>
     </g>
     <g id="line2d_24">
      <g>
       <use xlink:href="#mcb760eb336" x="47.917188" y="99.188203" style="stroke: #000000; stroke-width: 0.8"/>
      </g>
     </g>
     <g id="text_13">
      <!-- 29.5 -->
      <g transform="translate(20.878125 102.607499) scale(0.09 -0.09)">
       <use xlink:href="#DejaVuSans-32"/>
       <use xlink:href="#DejaVuSans-39" transform="translate(63.623047 0)"/>
       <use xlink:href="#DejaVuSans-2e" transform="translate(127.246094 0)"/>
       <use xlink:href="#DejaVuSans-35" transform="translate(159.033203 0)"/>
      </g>
     </g>
    </g>
    <g id="ytick_5">
     <g id="line2d_25">
      <path d="M 47.917188 64.666652 
L 935.342187 64.666652 
" clip-path="url(#p099c6c4b98)" style="fill: none; stroke: #eef2f7; stroke-opacity: 0.25; stroke-width: 0.55; stroke-linecap: square"/>
     </g>
     <g id="line2d_26">
      <g>
       <use xlink:href="#mcb760eb336" x="47.917188" y="64.666652" style="stroke: #000000; stroke-width: 0.8"/>
      </g>
     </g>
     <g id="text_14">
      <!-- 30.0 -->
      <g transform="translate(20.878125 68.085948) scale(0.09 -0.09)">
       <defs>
        <path id="DejaVuSans-33" d="M 2597 2516 
Q 3050 2419 3304 2112 
Q 3559 1806 3559 1356 
Q 3559 666 3084 287 
Q 2609 -91 1734 -91 
Q 1441 -91 1130 -33 
Q 819 25 488 141 
L 488 750 
Q 750 597 1062 519 
Q 1375 441 1716 441 
Q 2309 441 2620 675 
Q 2931 909 2931 1356 
Q 2931 1769 2642 2001 
Q 2353 2234 1838 2234 
L 1294 2234 
L 1294 2753 
L 1863 2753 
Q 2328 2753 2575 2939 
Q 2822 3125 2822 3475 
Q 2822 3834 2567 4026 
Q 2313 4219 1838 4219 
Q 1578 4219 1281 4162 
Q 984 4106 628 3988 
L 628 4550 
Q 988 4650 1302 4700 
Q 1616 4750 1894 4750 
Q 2613 4750 3031 4423 
Q 3450 4097 3450 3541 
Q 3450 3153 3228 2886 
Q 3006 2619 2597 2516 
z
" transform="scale(0.015625)"/>
       </defs>
       <use xlink:href="#DejaVuSans-33"/>
       <use xlink:href="#DejaVuSans-30" transform="translate(63.623047 0)"/>
       <use xlink:href="#DejaVuSans-2e" transform="translate(127.246094 0)"/>
       <use xlink:href="#DejaVuSans-30" transform="translate(159.033203 0)"/>
      </g>
     </g>
    </g>
    <g id="ytick_6">
     <g id="line2d_27">
      <path d="M 47.917188 30.145101 
L 935.342187 30.145101 
" clip-path="url(#p099c6c4b98)" style="fill: none; stroke: #eef2f7; stroke-opacity: 0.25; stroke-width: 0.55; stroke-linecap: square"/>
     </g>
     <g id="line2d_28">
      <g>
       <use xlink:href="#mcb760eb336" x="47.917188" y="30.145101" style="stroke: #000000; stroke-width: 0.8"/>
      </g>
     </g>
     <g id="text_15">
      <!-- 30.5 -->
      <g transform="translate(20.878125 33.564398) scale(0.09 -0.09)">
       <use xlink:href="#DejaVuSans-33"/>
       <use xlink:href="#DejaVuSans-30" transform="translate(63.623047 0)"/>
       <use xlink:href="#DejaVuSans-2e" transform="translate(127.246094 0)"/>
       <use xlink:href="#DejaVuSans-35" transform="translate(159.033203 0)"/>
      </g>
     </g>
    </g>
    <g id="text_16">
     <!-- Temperature (C) -->
     <g transform="translate(14.798438 163.659635) rotate(-90) scale(0.1 -0.1)">
      <defs>
       <path id="DejaVuSans-54" d="M -19 4666 
L 3928 4666 
L 3928 4134 
L 2272 4134 
L 2272 0 
L 1638 0 
L 1638 4134 
L -19 4134 
L -19 4666 
z
" transform="scale(0.015625)"/>
       <path id="DejaVuSans-6d" d="M 3328 2828 
Q 3544 3216 3844 3400 
Q 4144 3584 4550 3584 
Q 5097 3584 5394 3201 
Q 5691 2819 5691 2113 
L 5691 0 
L 5113 0 
L 5113 2094 
Q 5113 2597 4934 2840 
Q 4756 3084 4391 3084 
Q 3944 3084 3684 2787 
Q 3425 2491 3425 1978 
L 3425 0 
L 2847 0 
L 2847 2094 
Q 2847 2600 2669 2842 
Q 2491 3084 2119 3084 
Q 1678 3084 1418 2786 
Q 1159 2488 1159 1978 
L 1159 0 
L 581 0 
L 581 3500 
L 1159 3500 
L 1159 2956 
Q 1356 3278 1631 3431 
Q 1906 3584 2284 3584 
Q 2666 3584 2933 3390 
Q 3200 3197 3328 2828 
z
" transform="scale(0.015625)"/>
       <path id="DejaVuSans-70" d="M 1159 525 
L 1159 -1331 
L 581 -1331 
L 581 3500 
L 1159 3500 
L 1159 2969 
Q 1341 3281 1617 3432 
Q 1894 3584 2278 3584 
Q 2916 3584 3314 3078 
Q 3713 2572 3713 1747 
Q 3713 922 3314 415 
Q 2916 -91 2278 -91 
Q 1894 -91 1617 61 
Q 1341 213 1159 525 
z
M 3116 1747 
Q 3116 2381 2855 2742 
Q 2594 3103 2138 3103 
Q 1681 3103 1420 2742 
Q 1159 2381 1159 1747 
Q 1159 1113 1420 752 
Q 1681 391 2138 391 
Q 2594 391 2855 752 
Q 3116 1113 3116 1747 
z
" transform="scale(0.015625)"/>
       <path id="DejaVuSans-28" d="M 1984 4856 
Q 1566 4138 1362 3434 
Q 1159 2731 1159 2009 
Q 1159 1288 1364 580 
Q 1569 -128 1984 -844 
L 1484 -844 
Q 1016 -109 783 600 
Q 550 1309 550 2009 
Q 550 2706 781 3412 
Q 1013 4119 1484 4856 
L 1984 4856 
z
" transform="scale(0.015625)"/>
       <path id="DejaVuSans-43" d="M 4122 4306 
L 4122 3641 
Q 3803 3938 3442 4084 
Q 3081 4231 2675 4231 
Q 1875 4231 1450 3742 
Q 1025 3253 1025 2328 
Q 1025 1406 1450 917 
Q 1875 428 2675 428 
Q 3081 428 3442 575 
Q 3803 722 4122 1019 
L 4122 359 
Q 3791 134 3420 21 
Q 3050 -91 2638 -91 
Q 1578 -91 968 557 
Q 359 1206 359 2328 
Q 359 3453 968 4101 
Q 1578 4750 2638 4750 
Q 3056 4750 3426 4639 
Q 3797 4528 4122 4306 
z
" transform="scale(0.015625)"/>
       <path id="DejaVuSans-29" d="M 513 4856 
L 1013 4856 
Q 1481 4119 1714 3412 
Q 1947 2706 1947 2009 
Q 1947 1309 1714 600 
Q 1481 -109 1013 -844 
L 513 -844 
Q 928 -128 1133 580 
Q 1338 1288 1338 2009 
Q 1338 2731 1133 3434 
Q 928 4138 513 4856 
z
" transform="scale(0.015625)"/>
      </defs>
      <use xlink:href="#DejaVuSans-54"/>
      <use xlink:href="#DejaVuSans-65" transform="translate(44.083984 0)"/>
      <use xlink:href="#DejaVuSans-6d" transform="translate(105.607422 0)"/>
      <use xlink:href="#DejaVuSans-70" transform="translate(203.019531 0)"/>
      <use xlink:href="#DejaVuSans-65" transform="translate(266.496094 0)"/>
      <use xlink:href="#DejaVuSans-72" transform="translate(328.019531 0)"/>
      <use xlink:href="#DejaVuSans-61" transform="translate(369.132812 0)"/>
      <use xlink:href="#DejaVuSans-74" transform="translate(430.412109 0)"/>
      <use xlink:href="#DejaVuSans-75" transform="translate(469.621094 0)"/>
      <use xlink:href="#DejaVuSans-72" transform="translate(533 0)"/>
      <use xlink:href="#DejaVuSans-65" transform="translate(571.863281 0)"/>
      <use xlink:href="#DejaVuSans-20" transform="translate(633.386719 0)"/>
      <use xlink:href="#DejaVuSans-28" transform="translate(665.173828 0)"/>
      <use xlink:href="#DejaVuSans-43" transform="translate(704.1875 0)"/>
      <use xlink:href="#DejaVuSans-29" transform="translate(774.011719 0)"/>
     </g>
    </g>
   </g>
   <g id="line2d_29">
    <path d="M 64.983053 71.570962 
L 70.596824 75.023117 
L 76.210596 74.332686 
L 81.824367 72.261393 
L 87.438139 64.666652 
L 93.05191 68.118807 
L 98.665682 65.357083 
L 104.279453 55.691048 
L 109.893225 54.310186 
L 115.506996 58.452772 
L 121.120768 48.786738 
L 123.927654 51.548462 
L 126.734539 53.619755 
L 137.962082 61.214497 
L 143.575854 61.904928 
L 149.189626 56.381479 
L 154.803397 57.762341 
L 160.417169 67.428376 
L 166.03094 64.666652 
L 171.644712 70.880531 
L 177.258483 68.118807 
L 182.872255 59.833634 
L 188.486026 59.143203 
L 194.099798 56.381479 
L 199.713569 56.381479 
L 205.327341 65.357083 
L 210.941112 60.524066 
L 216.554884 52.929324 
L 222.168655 54.310186 
L 227.782427 54.310186 
L 233.396198 47.405876 
L 239.00997 42.572859 
L 244.623741 56.381479 
L 250.237513 57.07191 
L 255.851284 55.000617 
L 261.465056 54.310186 
L 267.078827 55.691048 
L 272.692599 56.381479 
L 278.30637 58.452772 
L 283.920142 55.000617 
L 289.533913 53.619755 
L 295.147685 55.000617 
L 300.761456 53.619755 
L 306.375228 49.477169 
L 311.988999 55.691048 
L 317.602771 58.452772 
L 323.216542 52.238893 
L 334.444085 51.548462 
L 340.057857 55.000617 
L 345.671628 52.238893 
L 351.2854 53.619755 
L 356.899171 57.762341 
L 362.512943 54.310186 
L 368.126714 51.548462 
L 379.354257 55.691048 
L 384.968029 57.07191 
L 390.5818 54.310186 
L 396.195572 63.28579 
L 407.423115 52.238893 
L 413.036886 59.833634 
L 418.650658 52.238893 
L 424.264429 57.07191 
L 429.878201 52.238893 
L 435.491972 49.477169 
L 441.105744 57.762341 
L 452.333287 59.143203 
L 457.947058 61.214497 
L 469.174601 62.595359 
L 474.788373 56.381479 
L 480.402144 60.524066 
L 486.015916 62.595359 
L 497.243459 57.07191 
L 502.857231 58.452772 
L 508.471002 57.07191 
L 514.084774 56.381479 
L 519.698545 55.000617 
L 525.312317 60.524066 
L 536.53986 56.381479 
L 542.153631 57.762341 
L 547.767403 52.929324 
L 553.381174 46.025014 
L 558.994946 50.858031 
L 564.608717 60.524066 
L 570.222489 55.000617 
L 581.450032 63.28579 
L 587.063803 65.357083 
L 592.677575 63.28579 
L 598.291346 68.809238 
L 603.905118 67.428376 
L 609.518889 66.737945 
L 615.132661 68.809238 
L 620.746432 67.428376 
L 626.360204 68.809238 
L 637.587747 66.047514 
L 643.201518 67.428376 
L 648.81529 63.976221 
L 654.429061 65.357083 
L 660.042833 68.118807 
L 665.656604 67.428376 
L 671.270376 70.880531 
L 676.884147 66.047514 
L 682.497919 70.1901 
L 688.11169 68.809238 
L 693.725462 70.880531 
L 699.339233 70.1901 
L 704.953005 71.570962 
L 710.566776 69.499669 
L 716.180548 68.118807 
L 721.794319 60.524066 
L 727.408091 57.762341 
L 733.021862 67.428376 
L 738.635634 68.118807 
L 744.249405 69.499669 
L 749.863177 65.357083 
L 755.476948 50.1676 
L 772.318263 72.951824 
L 777.932034 68.809238 
L 783.545806 72.951824 
L 789.159577 68.118807 
L 794.773349 70.1901 
L 800.38712 76.403979 
L 806.000892 75.713548 
L 811.614663 74.332686 
L 817.228435 88.831737 
L 822.842206 81.236996 
L 828.455978 81.927427 
L 834.069749 81.927427 
L 839.683521 82.617858 
L 845.297293 90.90303 
L 850.911064 90.90303 
L 856.524836 86.760444 
L 862.138607 78.475272 
L 867.752379 85.379582 
L 873.36615 89.522168 
L 878.979922 75.713548 
L 884.593693 71.570962 
L 890.207465 71.570962 
L 895.821236 63.28579 
L 901.435008 63.28579 
L 907.048779 71.570962 
L 912.662551 67.428376 
L 918.276322 79.165703 
L 918.276322 79.165703 
" clip-path="url(#p099c6c4b98)" style="fill: none; stroke: #fdc38d; stroke-opacity: 0.95; stroke-width: 0.936; stroke-linecap: square"/>
   </g>
   <g id="line2d_30">
    <path d="M 64.983053 92.283892 
L 70.596824 90.90303 
L 76.210596 88.831737 
L 81.824367 79.856134 
L 87.438139 73.642255 
L 93.05191 74.332686 
L 98.665682 72.261393 
L 104.279453 68.809238 
L 109.893225 68.809238 
L 115.506996 70.1901 
L 121.120768 61.904928 
L 123.927654 66.737945 
L 126.734539 70.880531 
L 137.962082 79.165703 
L 143.575854 78.475272 
L 149.189626 76.403979 
L 154.803397 75.023117 
L 160.417169 82.617858 
L 166.03094 83.99872 
L 171.644712 88.141306 
L 177.258483 97.807341 
L 182.872255 77.784841 
L 188.486026 72.951824 
L 194.099798 75.713548 
L 199.713569 79.165703 
L 210.941112 76.403979 
L 216.554884 76.403979 
L 222.168655 69.499669 
L 227.782427 69.499669 
L 233.396198 62.595359 
L 239.00997 70.1901 
L 244.623741 75.023117 
L 250.237513 93.664754 
L 255.851284 86.070013 
L 261.465056 99.878634 
L 267.078827 84.689151 
L 272.692599 81.236996 
L 283.920142 83.99872 
L 289.533913 92.283892 
L 295.147685 78.475272 
L 300.761456 85.379582 
L 306.375228 83.308289 
L 311.988999 97.11691 
L 317.602771 86.760444 
L 323.216542 75.713548 
L 334.444085 72.951824 
L 340.057857 83.99872 
L 345.671628 80.546565 
L 351.2854 80.546565 
L 356.899171 83.99872 
L 362.512943 79.165703 
L 368.126714 75.023117 
L 373.740486 72.951824 
L 379.354257 71.570962 
L 384.968029 76.403979 
L 390.5818 77.09441 
L 401.809343 97.807341 
L 407.423115 76.403979 
L 413.036886 67.428376 
L 418.650658 66.737945 
L 424.264429 71.570962 
L 429.878201 69.499669 
L 435.491972 68.118807 
L 441.105744 80.546565 
L 452.333287 82.617858 
L 457.947058 77.784841 
L 463.56083 81.927427 
L 469.174601 88.141306 
L 474.788373 92.974323 
L 480.402144 93.664754 
L 486.015916 88.141306 
L 491.629687 78.475272 
L 497.243459 69.499669 
L 502.857231 72.951824 
L 508.471002 68.118807 
L 514.084774 68.118807 
L 519.698545 70.880531 
L 525.312317 70.880531 
L 530.926088 73.642255 
L 536.53986 71.570962 
L 542.153631 77.09441 
L 547.767403 73.642255 
L 553.381174 68.118807 
L 558.994946 75.023117 
L 564.608717 87.450875 
L 570.222489 85.379582 
L 581.450032 82.617858 
L 587.063803 92.283892 
L 592.677575 79.165703 
L 598.291346 83.99872 
L 603.905118 78.475272 
L 609.518889 81.236996 
L 615.132661 85.379582 
L 620.746432 86.070013 
L 626.360204 88.141306 
L 637.587747 85.379582 
L 643.201518 85.379582 
L 648.81529 87.450875 
L 654.429061 85.379582 
L 660.042833 84.689151 
L 665.656604 84.689151 
L 671.270376 87.450875 
L 676.884147 89.522168 
L 688.11169 89.522168 
L 693.725462 86.760444 
L 699.339233 92.283892 
L 704.953005 97.11691 
L 710.566776 91.593461 
L 716.180548 91.593461 
L 721.794319 83.308289 
L 727.408091 80.546565 
L 733.021862 79.165703 
L 738.635634 81.236996 
L 744.249405 77.784841 
L 749.863177 76.403979 
L 755.476948 91.593461 
L 766.704491 88.141306 
L 772.318263 88.831737 
L 777.932034 88.141306 
L 783.545806 88.141306 
L 789.159577 91.593461 
L 794.773349 91.593461 
L 800.38712 97.807341 
L 806.000892 113.687254 
L 811.614663 93.664754 
L 817.228435 97.11691 
L 822.842206 101.259496 
L 828.455978 96.426479 
L 834.069749 99.188203 
L 839.683521 100.569065 
L 845.297293 105.402082 
L 850.911064 103.330789 
L 856.524836 101.949927 
L 862.138607 99.878634 
L 867.752379 108.163806 
L 873.36615 111.615961 
L 878.979922 115.758547 
L 884.593693 120.591564 
L 890.207465 119.210702 
L 895.821236 127.495874 
L 901.435008 129.567167 
L 907.048779 132.328892 
L 912.662551 126.115012 
L 918.276322 127.495874 
L 918.276322 127.495874 
" clip-path="url(#p099c6c4b98)" style="fill: none; stroke: #fdac67; stroke-opacity: 0.95; stroke-width: 0.936; stroke-linecap: square"/>
   </g>
   <g id="line2d_31">
    <path d="M 64.983053 166.160012 
L 70.596824 168.231305 
L 76.210596 157.184408 
L 81.824367 168.231305 
L 87.438139 117.139409 
L 93.05191 133.709754 
L 98.665682 124.043719 
L 104.279453 133.019323 
L 109.893225 132.328892 
L 115.506996 111.615961 
L 121.120768 150.280098 
L 126.734539 157.184408 
L 137.962082 154.422684 
L 143.575854 157.184408 
L 149.189626 148.899236 
L 154.803397 156.493977 
L 160.417169 139.233202 
L 166.03094 149.589667 
L 171.644712 182.730356 
L 177.258483 124.73415 
L 182.872255 104.02122 
L 188.486026 112.996823 
L 194.099798 141.304495 
L 199.713569 119.210702 
L 205.327341 107.473375 
L 210.941112 123.353288 
L 216.554884 128.186305 
L 222.168655 126.115012 
L 227.782427 126.115012 
L 233.396198 141.994926 
L 239.00997 145.447081 
L 244.623741 153.041822 
L 250.237513 154.422684 
L 255.851284 152.351391 
L 261.465056 150.970529 
L 267.078827 152.351391 
L 272.692599 148.899236 
L 278.30637 153.732253 
L 283.920142 143.375788 
L 289.533913 141.304495 
L 295.147685 150.970529 
L 300.761456 150.280098 
L 306.375228 146.137512 
L 311.988999 148.208805 
L 317.602771 151.66096 
L 323.216542 146.137512 
L 334.444085 132.328892 
L 340.057857 144.75665 
L 345.671628 142.685357 
L 351.2854 142.685357 
L 356.899171 146.137512 
L 362.512943 146.827943 
L 368.126714 137.85234 
L 373.740486 137.161909 
L 379.354257 133.019323 
L 384.968029 135.090616 
L 390.5818 135.090616 
L 396.195572 175.826046 
L 401.809343 157.184408 
L 407.423115 136.471478 
L 413.036886 130.257599 
L 418.650658 115.758547 
L 424.264429 115.758547 
L 429.878201 106.782944 
L 435.491972 124.73415 
L 438.298858 118.520271 
L 441.105744 112.996823 
L 452.333287 119.901133 
L 457.947058 134.400185 
L 463.56083 123.353288 
L 469.174601 106.782944 
L 474.788373 115.758547 
L 480.402144 111.615961 
L 486.015916 128.186305 
L 491.629687 123.353288 
L 497.243459 126.805443 
L 502.857231 102.640358 
L 508.471002 122.662857 
L 514.084774 121.972426 
L 519.698545 100.569065 
L 525.312317 104.711651 
L 530.926088 116.448978 
L 536.53986 116.448978 
L 542.153631 113.687254 
L 547.767403 130.257599 
L 553.381174 112.996823 
L 558.994946 112.306392 
L 564.608717 141.304495 
L 570.222489 107.473375 
L 575.83626 123.353288 
L 581.450032 131.638461 
L 587.063803 126.805443 
L 592.677575 121.281995 
L 598.291346 116.448978 
L 603.905118 130.257599 
L 609.518889 126.805443 
L 615.132661 136.471478 
L 620.746432 127.495874 
L 626.360204 127.495874 
L 637.587747 133.709754 
L 643.201518 139.923633 
L 648.81529 135.781047 
L 654.429061 146.137512 
L 660.042833 138.542771 
L 665.656604 128.186305 
L 671.270376 134.400185 
L 676.884147 133.709754 
L 682.497919 130.94803 
L 688.11169 142.685357 
L 693.725462 138.542771 
L 699.339233 122.662857 
L 704.953005 117.139409 
L 710.566776 143.375788 
L 716.180548 135.090616 
L 721.794319 128.876736 
L 727.408091 133.709754 
L 733.021862 102.640358 
L 738.635634 91.593461 
L 744.249405 112.996823 
L 749.863177 126.805443 
L 752.670063 127.495874 
L 755.476948 127.495874 
L 766.704491 128.876736 
L 772.318263 144.75665 
L 777.932034 146.827943 
L 783.545806 154.422684 
L 789.159577 126.115012 
L 794.773349 168.231305 
L 800.38712 187.563373 
L 806.000892 155.803546 
L 811.614663 162.017425 
L 817.228435 165.469581 
L 822.842206 162.707856 
L 828.455978 165.469581 
L 834.069749 136.471478 
L 839.683521 143.375788 
L 845.297293 168.921736 
L 850.911064 151.66096 
L 856.524836 162.707856 
L 862.138607 170.302598 
L 867.752379 194.467683 
L 873.36615 201.371994 
L 878.979922 204.133718 
L 884.593693 208.276304 
L 887.400579 211.728459 
L 890.207465 214.490183 
L 895.821236 219.3232 
L 901.435008 215.871045 
L 907.048779 208.276304 
L 912.662551 217.251907 
L 918.276322 212.41889 
L 918.276322 212.41889 
" clip-path="url(#p099c6c4b98)" style="fill: none; stroke: #fd9547; stroke-opacity: 0.95; stroke-width: 0.936; stroke-linecap: square"/>
   </g>
   <g id="line2d_32">
    <path d="M 64.983053 59.833634 
L 70.596824 60.524066 
L 76.210596 52.929324 
L 81.824367 59.143203 
L 87.438139 63.976221 
L 93.05191 67.428376 
L 98.665682 70.1901 
L 104.279453 61.904928 
L 115.506996 41.191997 
L 121.120768 47.405876 
L 126.734539 44.644152 
L 137.962082 44.644152 
L 143.575854 45.334583 
L 149.189626 43.953721 
L 154.803397 45.334583 
L 160.417169 51.548462 
L 166.03094 48.786738 
L 171.644712 43.26329 
L 177.258483 66.737945 
L 182.872255 62.595359 
L 188.486026 46.025014 
L 194.099798 53.619755 
L 199.713569 40.501566 
L 205.327341 41.191997 
L 210.941112 48.786738 
L 216.554884 50.858031 
L 222.168655 50.858031 
L 227.782427 32.216394 
L 233.396198 39.120704 
L 239.00997 42.572859 
L 244.623741 40.501566 
L 250.237513 43.26329 
L 255.851284 37.049411 
L 261.465056 42.572859 
L 267.078827 42.572859 
L 272.692599 41.191997 
L 278.30637 40.501566 
L 283.920142 32.216394 
L 289.533913 40.501566 
L 295.147685 39.811135 
L 300.761456 42.572859 
L 306.375228 41.882428 
L 317.602771 32.216394 
L 323.216542 34.978118 
L 334.444085 33.597256 
L 340.057857 39.120704 
L 345.671628 30.835532 
L 351.2854 40.501566 
L 356.899171 35.668549 
L 362.512943 37.049411 
L 368.126714 37.739842 
L 373.740486 39.120704 
L 379.354257 39.811135 
L 384.968029 41.191997 
L 390.5818 44.644152 
L 396.195572 52.238893 
L 401.809343 40.501566 
L 407.423115 51.548462 
L 413.036886 60.524066 
L 418.650658 35.668549 
L 424.264429 40.501566 
L 429.878201 48.786738 
L 435.491972 52.238893 
L 438.298858 46.715445 
L 441.105744 41.882428 
L 452.333287 43.953721 
L 457.947058 49.477169 
L 463.56083 44.644152 
L 469.174601 48.096307 
L 474.788373 44.644152 
L 480.402144 49.477169 
L 486.015916 41.882428 
L 491.629687 50.858031 
L 497.243459 39.811135 
L 508.471002 32.906825 
L 514.084774 34.978118 
L 519.698545 26.692946 
L 525.312317 28.764239 
L 530.926088 40.501566 
L 536.53986 32.216394 
L 542.153631 28.764239 
L 547.767403 37.739842 
L 553.381174 38.430273 
L 558.994946 41.882428 
L 564.608717 50.1676 
L 570.222489 45.334583 
L 575.83626 46.715445 
L 581.450032 49.477169 
L 592.677575 46.715445 
L 598.291346 46.715445 
L 603.905118 52.929324 
L 615.132661 52.929324 
L 620.746432 52.238893 
L 626.360204 55.000617 
L 637.587747 57.762341 
L 643.201518 59.833634 
L 648.81529 58.452772 
L 654.429061 56.381479 
L 660.042833 59.143203 
L 665.656604 53.619755 
L 671.270376 54.310186 
L 676.884147 54.310186 
L 682.497919 57.07191 
L 688.11169 57.762341 
L 693.725462 55.691048 
L 699.339233 55.000617 
L 704.953005 58.452772 
L 710.566776 61.214497 
L 716.180548 66.047514 
L 721.794319 66.047514 
L 727.408091 57.762341 
L 733.021862 43.26329 
L 738.635634 35.668549 
L 744.249405 66.737945 
L 749.863177 58.452772 
L 752.670063 53.619755 
L 755.476948 49.477169 
L 766.704491 60.524066 
L 772.318263 63.976221 
L 777.932034 63.28579 
L 789.159577 60.524066 
L 794.773349 63.976221 
L 800.38712 75.023117 
L 806.000892 69.499669 
L 811.614663 70.1901 
L 817.228435 68.118807 
L 822.842206 60.524066 
L 828.455978 57.762341 
L 834.069749 61.904928 
L 839.683521 59.833634 
L 845.297293 64.666652 
L 850.911064 52.238893 
L 856.524836 71.570962 
L 862.138607 78.475272 
L 867.752379 74.332686 
L 873.36615 78.475272 
L 878.979922 81.927427 
L 884.593693 90.90303 
L 890.207465 92.283892 
L 895.821236 90.212599 
L 901.435008 93.664754 
L 907.048779 90.212599 
L 912.662551 87.450875 
L 918.276322 88.141306 
L 918.276322 88.141306 
" clip-path="url(#p099c6c4b98)" style="fill: none; stroke: #f87d29; stroke-opacity: 0.95; stroke-width: 0.936; stroke-linecap: square"/>
   </g>
   <g id="line2d_33">
    <path d="M 64.983053 86.760444 
L 70.596824 81.236996 
L 76.210596 88.831737 
L 81.824367 82.617858 
L 87.438139 80.546565 
L 93.05191 70.880531 
L 98.665682 68.809238 
L 104.279453 71.570962 
L 109.893225 67.428376 
L 115.506996 67.428376 
L 121.120768 63.28579 
L 123.927654 68.118807 
L 126.734539 73.642255 
L 137.962082 77.784841 
L 143.575854 81.927427 
L 149.189626 81.236996 
L 154.803397 79.856134 
L 166.03094 90.90303 
L 171.644712 91.593461 
L 177.258483 84.689151 
L 182.872255 69.499669 
L 188.486026 67.428376 
L 194.099798 66.737945 
L 199.713569 65.357083 
L 210.941112 61.214497 
L 216.554884 59.833634 
L 222.168655 64.666652 
L 227.782427 60.524066 
L 233.396198 63.28579 
L 239.00997 72.261393 
L 244.623741 75.713548 
L 250.237513 75.713548 
L 255.851284 70.880531 
L 261.465056 77.09441 
L 264.271941 75.023117 
L 267.078827 73.642255 
L 272.692599 80.546565 
L 278.30637 76.403979 
L 283.920142 72.951824 
L 289.533913 75.023117 
L 295.147685 79.165703 
L 300.761456 72.951824 
L 306.375228 75.023117 
L 311.988999 75.713548 
L 317.602771 74.332686 
L 323.216542 78.475272 
L 334.444085 74.332686 
L 340.057857 73.642255 
L 345.671628 74.332686 
L 351.2854 78.475272 
L 356.899171 76.403979 
L 362.512943 79.165703 
L 368.126714 73.642255 
L 373.740486 75.713548 
L 379.354257 76.403979 
L 384.968029 79.165703 
L 390.5818 78.475272 
L 396.195572 89.522168 
L 401.809343 97.807341 
L 407.423115 75.713548 
L 413.036886 67.428376 
L 418.650658 68.118807 
L 424.264429 66.047514 
L 429.878201 66.047514 
L 435.491972 74.332686 
L 441.105744 86.760444 
L 452.333287 90.90303 
L 457.947058 93.664754 
L 463.56083 95.045616 
L 469.174601 93.664754 
L 474.788373 95.045616 
L 480.402144 100.569065 
L 486.015916 97.11691 
L 491.629687 81.927427 
L 497.243459 70.1901 
L 502.857231 68.118807 
L 508.471002 66.737945 
L 514.084774 68.118807 
L 519.698545 61.214497 
L 525.312317 61.214497 
L 530.926088 63.28579 
L 536.53986 63.28579 
L 542.153631 68.809238 
L 547.767403 77.09441 
L 553.381174 77.784841 
L 558.994946 83.308289 
L 564.608717 95.736048 
L 570.222489 95.736048 
L 575.83626 99.878634 
L 578.643146 94.355185 
L 581.450032 89.522168 
L 592.677575 101.949927 
L 598.291346 104.711651 
L 603.905118 102.640358 
L 609.518889 104.02122 
L 615.132661 107.473375 
L 620.746432 108.854237 
L 626.360204 106.782944 
L 637.587747 105.402082 
L 643.201518 109.544668 
L 648.81529 104.02122 
L 654.429061 99.878634 
L 660.042833 108.163806 
L 665.656604 101.949927 
L 676.884147 104.711651 
L 682.497919 108.163806 
L 688.11169 109.544668 
L 693.725462 109.544668 
L 699.339233 112.996823 
L 704.953005 105.402082 
L 710.566776 107.473375 
L 716.180548 101.949927 
L 721.794319 88.831737 
L 727.408091 79.165703 
L 733.021862 79.165703 
L 738.635634 75.713548 
L 744.249405 77.784841 
L 749.863177 83.308289 
L 755.476948 98.497772 
L 766.704491 112.306392 
L 772.318263 111.615961 
L 777.932034 114.377685 
L 783.545806 114.377685 
L 789.159577 112.306392 
L 794.773349 104.02122 
L 800.38712 113.687254 
L 806.000892 126.115012 
L 811.614663 117.139409 
L 817.228435 106.782944 
L 822.842206 99.188203 
L 828.455978 92.974323 
L 834.069749 101.949927 
L 839.683521 101.949927 
L 845.297293 97.807341 
L 850.911064 103.330789 
L 856.524836 92.283892 
L 862.138607 100.569065 
L 867.752379 117.82984 
L 873.36615 125.424581 
L 878.979922 139.923633 
L 884.593693 145.447081 
L 887.400579 146.137512 
L 890.207465 147.518374 
L 895.821236 152.351391 
L 901.435008 151.66096 
L 907.048779 157.184408 
L 912.662551 145.447081 
L 918.276322 159.946132 
L 918.276322 159.946132 
" clip-path="url(#p099c6c4b98)" style="fill: none; stroke: #ee6410; stroke-opacity: 0.95; stroke-width: 0.936; stroke-linecap: square"/>
   </g>
   <g id="line2d_34">
    <path d="M 64.983053 109.544668 
L 70.596824 115.758547 
L 76.210596 94.355185 
L 81.824367 112.306392 
L 87.438139 88.141306 
L 93.05191 94.355185 
L 98.665682 77.784841 
L 104.279453 84.689151 
L 109.893225 73.642255 
L 115.506996 86.760444 
L 121.120768 102.640358 
L 123.927654 110.92553 
L 126.734539 119.901133 
L 137.962082 110.235099 
L 143.575854 117.139409 
L 149.189626 103.330789 
L 154.803397 115.758547 
L 160.417169 118.520271 
L 166.03094 120.591564 
L 171.644712 153.732253 
L 177.258483 101.949927 
L 182.872255 83.99872 
L 188.486026 82.617858 
L 194.099798 80.546565 
L 199.713569 86.070013 
L 205.327341 83.99872 
L 210.941112 75.713548 
L 216.554884 70.1901 
L 222.168655 77.784841 
L 227.782427 71.570962 
L 233.396198 106.782944 
L 239.00997 106.782944 
L 244.623741 104.711651 
L 250.237513 107.473375 
L 255.851284 88.831737 
L 261.465056 86.070013 
L 264.271941 95.045616 
L 267.078827 103.330789 
L 272.692599 92.974323 
L 278.30637 97.11691 
L 283.920142 101.949927 
L 289.533913 110.235099 
L 295.147685 113.687254 
L 300.761456 110.92553 
L 306.375228 101.949927 
L 311.988999 98.497772 
L 317.602771 98.497772 
L 323.216542 99.188203 
L 334.444085 98.497772 
L 340.057857 108.854237 
L 345.671628 115.068116 
L 351.2854 87.450875 
L 356.899171 92.283892 
L 362.512943 81.927427 
L 368.126714 99.878634 
L 373.740486 99.878634 
L 379.354257 105.402082 
L 384.968029 99.878634 
L 390.5818 97.807341 
L 396.195572 162.707856 
L 401.809343 132.328892 
L 407.423115 100.569065 
L 413.036886 79.856134 
L 418.650658 81.927427 
L 424.264429 74.332686 
L 429.878201 70.880531 
L 441.105744 76.403979 
L 452.333287 98.497772 
L 457.947058 81.927427 
L 463.56083 85.379582 
L 469.174601 103.330789 
L 474.788373 97.807341 
L 480.402144 97.807341 
L 486.015916 92.283892 
L 491.629687 90.212599 
L 497.243459 81.236996 
L 502.857231 75.713548 
L 508.471002 77.09441 
L 514.084774 62.595359 
L 519.698545 77.09441 
L 525.312317 57.07191 
L 530.926088 71.570962 
L 536.53986 66.737945 
L 542.153631 66.737945 
L 547.767403 85.379582 
L 553.381174 118.520271 
L 558.994946 108.163806 
L 564.608717 99.188203 
L 570.222489 110.92553 
L 575.83626 98.497772 
L 581.450032 102.640358 
L 587.063803 89.522168 
L 592.677575 80.546565 
L 598.291346 112.306392 
L 603.905118 102.640358 
L 609.518889 99.878634 
L 615.132661 104.711651 
L 620.746432 94.355185 
L 626.360204 110.92553 
L 637.587747 105.402082 
L 643.201518 86.070013 
L 648.81529 83.308289 
L 654.429061 90.90303 
L 660.042833 92.283892 
L 665.656604 90.212599 
L 671.270376 112.996823 
L 676.884147 109.544668 
L 682.497919 99.188203 
L 688.11169 104.02122 
L 693.725462 94.355185 
L 699.339233 118.520271 
L 704.953005 127.495874 
L 710.566776 114.377685 
L 716.180548 98.497772 
L 721.794319 106.092513 
L 727.408091 88.141306 
L 733.021862 81.236996 
L 738.635634 75.713548 
L 744.249405 75.713548 
L 749.863177 101.259496 
L 752.670063 110.235099 
L 755.476948 118.520271 
L 766.704491 113.687254 
L 772.318263 106.092513 
L 777.932034 95.736048 
L 783.545806 92.974323 
L 789.159577 93.664754 
L 794.773349 100.569065 
L 800.38712 113.687254 
L 806.000892 117.139409 
L 811.614663 114.377685 
L 817.228435 110.235099 
L 822.842206 119.901133 
L 828.455978 91.593461 
L 834.069749 107.473375 
L 839.683521 99.878634 
L 845.297293 96.426479 
L 850.911064 108.163806 
L 856.524836 91.593461 
L 862.138607 131.638461 
L 867.752379 135.090616 
L 873.36615 152.351391 
L 878.979922 159.946132 
L 884.593693 159.255701 
L 887.400579 158.56527 
L 890.207465 158.56527 
L 895.821236 169.612167 
L 901.435008 164.77915 
L 907.048779 166.160012 
L 912.662551 164.088718 
L 918.276322 155.803546 
L 918.276322 155.803546 
" clip-path="url(#p099c6c4b98)" style="fill: none; stroke: #dd4d04; stroke-opacity: 0.95; stroke-width: 0.936; stroke-linecap: square"/>
   </g>
   <g id="patch_23">
    <path d="M 47.917188 228.954713 
L 47.917188 17.061433 
" style="fill: none; stroke: #cbd5e1; stroke-width: 0.8; stroke-linejoin: miter; stroke-linecap: square"/>
   </g>
   <g id="patch_24">
    <path d="M 935.342187 228.954713 
L 935.342187 17.061433 
" style="fill: none; stroke: #cbd5e1; stroke-width: 0.8; stroke-linejoin: miter; stroke-linecap: square"/>
   </g>
   <g id="patch_25">
    <path d="M 47.917187 228.954713 
L 935.342187 228.954713 
" style="fill: none; stroke: #cbd5e1; stroke-width: 0.8; stroke-linejoin: miter; stroke-linecap: square"/>
   </g>
   <g id="patch_26">
    <path d="M 47.917187 17.061433 
L 935.342187 17.061433 
" style="fill: none; stroke: #cbd5e1; stroke-width: 0.8; stroke-linejoin: miter; stroke-linecap: square"/>
   </g>
   <g id="text_17">
    <!-- ACC -->
    <g style="fill: #475569" transform="translate(48.19762 13.27875) scale(0.08 -0.08)">
     <defs>
      <path id="DejaVuSans-41" d="M 2188 4044 
L 1331 1722 
L 3047 1722 
L 2188 4044 
z
M 1831 4666 
L 2547 4666 
L 4325 0 
L 3669 0 
L 3244 1197 
L 1141 1197 
L 716 0 
L 50 0 
L 1831 4666 
z
" transform="scale(0.015625)"/>
     </defs>
     <use xlink:href="#DejaVuSans-41"/>
     <use xlink:href="#DejaVuSans-43" transform="translate(66.658203 0)"/>
     <use xlink:href="#DejaVuSans-43" transform="translate(136.482422 0)"/>
    </g>
   </g>
   <g id="text_18">
    <!-- OC -->
    <g style="fill: #475569" transform="translate(75.882492 13.27875) scale(0.08 -0.08)">
     <defs>
      <path id="DejaVuSans-4f" d="M 2522 4238 
Q 1834 4238 1429 3725 
Q 1025 3213 1025 2328 
Q 1025 1447 1429 934 
Q 1834 422 2522 422 
Q 3209 422 3611 934 
Q 4013 1447 4013 2328 
Q 4013 3213 3611 3725 
Q 3209 4238 2522 4238 
z
M 2522 4750 
Q 3503 4750 4090 4092 
Q 4678 3434 4678 2328 
Q 4678 1225 4090 567 
Q 3503 -91 2522 -91 
Q 1538 -91 948 565 
Q 359 1222 359 2328 
Q 359 3434 948 4092 
Q 1538 4750 2522 4750 
z
" transform="scale(0.015625)"/>
     </defs>
     <use xlink:href="#DejaVuSans-4f"/>
     <use xlink:href="#DejaVuSans-43" transform="translate(78.710938 0)"/>
    </g>
   </g>
   <g id="text_19">
    <!-- FCS -->
    <g style="fill: #475569" transform="translate(105.066986 13.27875) scale(0.08 -0.08)">
     <defs>
      <path id="DejaVuSans-46" d="M 628 4666 
L 3309 4666 
L 3309 4134 
L 1259 4134 
L 1259 2759 
L 3109 2759 
L 3109 2228 
L 1259 2228 
L 1259 0 
L 628 0 
L 628 4666 
z
" transform="scale(0.015625)"/>
      <path id="DejaVuSans-53" d="M 3425 4513 
L 3425 3897 
Q 3066 4069 2747 4153 
Q 2428 4238 2131 4238 
Q 1616 4238 1336 4038 
Q 1056 3838 1056 3469 
Q 1056 3159 1242 3001 
Q 1428 2844 1947 2747 
L 2328 2669 
Q 3034 2534 3370 2195 
Q 3706 1856 3706 1288 
Q 3706 609 3251 259 
Q 2797 -91 1919 -91 
Q 1588 -91 1214 -16 
Q 841 59 441 206 
L 441 856 
Q 825 641 1194 531 
Q 1563 422 1919 422 
Q 2459 422 2753 634 
Q 3047 847 3047 1241 
Q 3047 1584 2836 1778 
Q 2625 1972 2144 2069 
L 1759 2144 
Q 1053 2284 737 2584 
Q 422 2884 422 3419 
Q 422 4038 858 4394 
Q 1294 4750 2059 4750 
Q 2388 4750 2728 4690 
Q 3069 4631 3425 4513 
z
" transform="scale(0.015625)"/>
     </defs>
     <use xlink:href="#DejaVuSans-46"/>
     <use xlink:href="#DejaVuSans-43" transform="translate(57.519531 0)"/>
     <use xlink:href="#DejaVuSans-53" transform="translate(127.34375 0)"/>
    </g>
   </g>
   <g id="text_20">
    <!-- SR -->
    <g style="fill: #475569" transform="translate(143.870876 13.27875) scale(0.08 -0.08)">
     <defs>
      <path id="DejaVuSans-52" d="M 2841 2188 
Q 3044 2119 3236 1894 
Q 3428 1669 3622 1275 
L 4263 0 
L 3584 0 
L 2988 1197 
Q 2756 1666 2539 1819 
Q 2322 1972 1947 1972 
L 1259 1972 
L 1259 0 
L 628 0 
L 628 4666 
L 2053 4666 
Q 2853 4666 3247 4331 
Q 3641 3997 3641 3322 
Q 3641 2881 3436 2590 
Q 3231 2300 2841 2188 
z
M 1259 4147 
L 1259 2491 
L 2053 2491 
Q 2509 2491 2742 2702 
Q 2975 2913 2975 3322 
Q 2975 3731 2742 3939 
Q 2509 4147 2053 4147 
L 1259 4147 
z
" transform="scale(0.015625)"/>
     </defs>
     <use xlink:href="#DejaVuSans-53"/>
     <use xlink:href="#DejaVuSans-52" transform="translate(63.476562 0)"/>
    </g>
   </g>
   <g id="text_21">
    <!-- FFC -->
    <g style="fill: #475569" transform="translate(195.12608 13.27875) scale(0.08 -0.08)">
     <use xlink:href="#DejaVuSans-46"/>
     <use xlink:href="#DejaVuSans-46" transform="translate(57.519531 0)"/>
     <use xlink:href="#DejaVuSans-43" transform="translate(115.039062 0)"/>
    </g>
   </g>
   <g id="text_22">
    <!-- SS -->
    <g style="fill: #475569" transform="translate(306.910249 13.27875) scale(0.08 -0.08)">
     <use xlink:href="#DejaVuSans-53"/>
     <use xlink:href="#DejaVuSans-53" transform="translate(63.476562 0)"/>
    </g>
   </g>
   <g id="text_23">
    <!-- OC -->
    <g style="fill: #475569" transform="translate(393.060583 13.27875) scale(0.08 -0.08)">
     <use xlink:href="#DejaVuSans-4f"/>
     <use xlink:href="#DejaVuSans-43" transform="translate(78.710938 0)"/>
    </g>
   </g>
   <g id="text_24">
    <!-- FCS -->
    <g style="fill: #475569" transform="translate(419.43819 13.27875) scale(0.08 -0.08)">
     <use xlink:href="#DejaVuSans-46"/>
     <use xlink:href="#DejaVuSans-43" transform="translate(57.519531 0)"/>
     <use xlink:href="#DejaVuSans-53" transform="translate(127.34375 0)"/>
    </g>
   </g>
   <g id="text_25">
    <!-- SR -->
    <g style="fill: #475569" transform="translate(461.048966 13.27875) scale(0.08 -0.08)">
     <use xlink:href="#DejaVuSans-53"/>
     <use xlink:href="#DejaVuSans-52" transform="translate(63.476562 0)"/>
    </g>
   </g>
   <g id="text_26">
    <!-- FFC -->
    <g style="fill: #475569" transform="translate(512.30417 13.27875) scale(0.08 -0.08)">
     <use xlink:href="#DejaVuSans-46"/>
     <use xlink:href="#DejaVuSans-46" transform="translate(57.519531 0)"/>
     <use xlink:href="#DejaVuSans-43" transform="translate(115.039062 0)"/>
    </g>
   </g>
   <g id="text_27">
    <!-- SS -->
    <g style="fill: #475569" transform="translate(621.281454 13.27875) scale(0.08 -0.08)">
     <use xlink:href="#DejaVuSans-53"/>
     <use xlink:href="#DejaVuSans-53" transform="translate(63.476562 0)"/>
    </g>
   </g>
   <g id="text_28">
    <!-- OC -->
    <g style="fill: #475569" transform="translate(707.431787 13.27875) scale(0.08 -0.08)">
     <use xlink:href="#DejaVuSans-4f"/>
     <use xlink:href="#DejaVuSans-43" transform="translate(78.710938 0)"/>
    </g>
   </g>
   <g id="text_29">
    <!-- FCS -->
    <g style="fill: #475569" transform="translate(733.809395 13.27875) scale(0.08 -0.08)">
     <use xlink:href="#DejaVuSans-46"/>
     <use xlink:href="#DejaVuSans-43" transform="translate(57.519531 0)"/>
     <use xlink:href="#DejaVuSans-53" transform="translate(127.34375 0)"/>
    </g>
   </g>
   <g id="text_30">
    <!-- SR -->
    <g style="fill: #475569" transform="translate(775.42017 13.27875) scale(0.08 -0.08)">
     <use xlink:href="#DejaVuSans-53"/>
     <use xlink:href="#DejaVuSans-52" transform="translate(63.476562 0)"/>
    </g>
   </g>
   <g id="text_31">
    <!-- FFC -->
    <g style="fill: #475569" transform="translate(826.675374 13.27875) scale(0.08 -0.08)">
     <use xlink:href="#DejaVuSans-46"/>
     <use xlink:href="#DejaVuSans-46" transform="translate(57.519531 0)"/>
     <use xlink:href="#DejaVuSans-43" transform="translate(115.039062 0)"/>
    </g>
   </g>
   <g id="text_32">
    <!-- SS -->
    <g style="fill: #475569" transform="translate(887.9356 13.27875) scale(0.08 -0.08)">
     <use xlink:href="#DejaVuSans-53"/>
     <use xlink:href="#DejaVuSans-53" transform="translate(63.476562 0)"/>
    </g>
   </g>
   <g id="legend_1">
    <g id="line2d_35">
     <path d="M 847.389687 27.540183 
L 855.389687 27.540183 
L 863.389687 27.540183 
" style="fill: none; stroke: #fdc38d; stroke-opacity: 0.95; stroke-width: 1.3; stroke-linecap: square"/>
    </g>
    <g id="text_33">
     <!-- T1 -->
     <g transform="translate(869.789687 30.340183) scale(0.08 -0.08)">
      <use xlink:href="#DejaVuSans-54"/>
      <use xlink:href="#DejaVuSans-31" transform="translate(61.083984 0)"/>
     </g>
    </g>
    <g id="line2d_36">
     <path d="M 847.389687 39.282683 
L 855.389687 39.282683 
L 863.389687 39.282683 
" style="fill: none; stroke: #fdac67; stroke-opacity: 0.95; stroke-width: 1.3; stroke-linecap: square"/>
    </g>
    <g id="text_34">
     <!-- T2 -->
     <g transform="translate(869.789687 42.082683) scale(0.08 -0.08)">
      <use xlink:href="#DejaVuSans-54"/>
      <use xlink:href="#DejaVuSans-32" transform="translate(61.083984 0)"/>
     </g>
    </g>
    <g id="line2d_37">
     <path d="M 847.389687 51.025183 
L 855.389687 51.025183 
L 863.389687 51.025183 
" style="fill: none; stroke: #fd9547; stroke-opacity: 0.95; stroke-width: 1.3; stroke-linecap: square"/>
    </g>
    <g id="text_35">
     <!-- T3 -->
     <g transform="translate(869.789687 53.825183) scale(0.08 -0.08)">
      <use xlink:href="#DejaVuSans-54"/>
      <use xlink:href="#DejaVuSans-33" transform="translate(61.083984 0)"/>
     </g>
    </g>
    <g id="line2d_38">
     <path d="M 895.765937 27.540183 
L 903.765937 27.540183 
L 911.765937 27.540183 
" style="fill: none; stroke: #f87d29; stroke-opacity: 0.95; stroke-width: 1.3; stroke-linecap: square"/>
    </g>
    <g id="text_36">
     <!-- T4 -->
     <g transform="translate(918.165937 30.340183) scale(0.08 -0.08)">
      <use xlink:href="#DejaVuSans-54"/>
      <use xlink:href="#DejaVuSans-34" transform="translate(61.083984 0)"/>
     </g>
    </g>
    <g id="line2d_39">
     <path d="M 895.765937 39.282683 
L 903.765937 39.282683 
L 911.765937 39.282683 
" style="fill: none; stroke: #ee6410; stroke-opacity: 0.95; stroke-width: 1.3; stroke-linecap: square"/>
    </g>
    <g id="text_37">
     <!-- T5 -->
     <g transform="translate(918.165937 42.082683) scale(0.08 -0.08)">
      <use xlink:href="#DejaVuSans-54"/>
      <use xlink:href="#DejaVuSans-35" transform="translate(61.083984 0)"/>
     </g>
    </g>
    <g id="line2d_40">
     <path d="M 895.765937 51.025183 
L 903.765937 51.025183 
L 911.765937 51.025183 
" style="fill: none; stroke: #dd4d04; stroke-opacity: 0.95; stroke-width: 1.3; stroke-linecap: square"/>
    </g>
    <g id="text_38">
     <!-- T6 -->
     <g transform="translate(918.165937 53.825183) scale(0.08 -0.08)">
      <use xlink:href="#DejaVuSans-54"/>
      <use xlink:href="#DejaVuSans-36" transform="translate(61.083984 0)"/>
     </g>
    </g>
   </g>
  </g>
 </g>
 <defs>
  <clipPath id="p099c6c4b98">
   <rect x="47.917188" y="17.061433" width="887.425" height="211.89328"/>
  </clipPath>
 </defs>
</svg>
