<?xml version="1.0" encoding="utf-8" standalone="no"?>
<!DOCTYPE svg PUBLIC "-//W3C//DTD SVG 1.1//EN"
  "http://www.w3.org/Graphics/SVG/1.1/DTD/svg11.dtd">
<svg xmlns:xlink="http://www.w3.org/1999/xlink" width="942.553437pt" height="265.54315pt" viewBox="0 0 942.553437 265.54315" xmlns="http://www.w3.org/2000/svg" version="1.1">
 <metadata>
  <rdf:RDF xmlns:dc="http://purl.org/dc/elements/1.1/" xmlns:cc="http://creativecommons.org/ns#" xmlns:rdf="http://www.w3.org/1999/02/22-rdf-syntax-ns#">
   <cc:Work>
    <dc:type rdf:resource="http://purl.org/dc/dcmitype/StillImage"/>
    <dc:date>2026-04-17T13:07:43.920307</dc:date>
    <dc:format>image/svg+xml</dc:format>
    <dc:creator>
     <cc:Agent>
      <dc:title>Matplotlib v3.10.8, https://matplotlib.org/</dc:title>
     </cc:Agent>
    </dc:creator>
   </cc:Work>
  </rdf:RDF>
 </metadata>
 <defs>
  <style type="text/css">*{stroke-linejoin: round; stroke-linecap: butt}</style>
 </defs>
 <g id="figure_1">
  <g id="patch_1">
   <path d="M 0 265.54315 
L 942.553437 265.54315 
L 942.553437 0 
L 0 0 
z
" style="fill: #ffffff"/>
  </g>
  <g id="axes_1">
   <g id="patch_2">
    <path d="M 42.190938 228.954713 
L 935.353438 228.954713 
L 935.353438 17.061433 
L 42.190938 17.061433 
z
" style="fill: #ffffff"/>
   </g>
   <g id="patch_3">
    <path d="M 42.190937 228.954713 
L 59.367139 228.954713 
L 59.367139 17.061433 
L 42.190937 17.061433 
z
" clip-path="url(#pf12af8df9d)" style="fill: #f8fafc; opacity: 0.45"/>
   </g>
   <g id="patch_4">
    <path d="M 59.367139 228.954713 
L 192.630775 228.954713 
L 192.630775 17.061433 
L 59.367139 17.061433 
z
" clip-path="url(#pf12af8df9d)" style="fill: #eff6ff; opacity: 0.45"/>
   </g>
   <g id="patch_5">
    <path d="M 192.630775 228.954713 
L 222.244916 228.954713 
L 222.244916 17.061433 
L 192.630775 17.061433 
z
" clip-path="url(#pf12af8df9d)" style="fill: #fef3c7; opacity: 0.45"/>
   </g>
   <g id="patch_6">
    <path d="M 222.244916 228.954713 
L 261.730438 228.954713 
L 261.730438 17.061433 
L 222.244916 17.061433 
z
" clip-path="url(#pf12af8df9d)" style="fill: #dcfce7; opacity: 0.45"/>
   </g>
   <g id="patch_7">
    <path d="M 261.730438 228.954713 
L 311.08734 228.954713 
L 311.08734 17.061433 
L 261.730438 17.061433 
z
" clip-path="url(#pf12af8df9d)" style="fill: #fee2e2; opacity: 0.45"/>
   </g>
   <g id="patch_8">
    <path d="M 311.08734 228.954713 
L 320.95872 228.954713 
L 320.95872 17.061433 
L 311.08734 17.061433 
z
" clip-path="url(#pf12af8df9d)" style="fill: #ede9fe; opacity: 0.45"/>
   </g>
   <g id="patch_9">
    <path d="M 320.95872 228.954713 
L 444.350976 228.954713 
L 444.350976 17.061433 
L 320.95872 17.061433 
z
" clip-path="url(#pf12af8df9d)" style="fill: #f8fafc; opacity: 0.45"/>
   </g>
   <g id="patch_10">
    <path d="M 444.350976 228.954713 
L 469.029427 228.954713 
L 469.029427 17.061433 
L 444.350976 17.061433 
z
" clip-path="url(#pf12af8df9d)" style="fill: #eff6ff; opacity: 0.45"/>
   </g>
   <g id="patch_11">
    <path d="M 469.029427 228.954713 
L 498.643568 228.954713 
L 498.643568 17.061433 
L 469.029427 17.061433 
z
" clip-path="url(#pf12af8df9d)" style="fill: #fef3c7; opacity: 0.45"/>
   </g>
   <g id="patch_12">
    <path d="M 498.643568 228.954713 
L 538.12909 228.954713 
L 538.12909 17.061433 
L 498.643568 17.061433 
z
" clip-path="url(#pf12af8df9d)" style="fill: #dcfce7; opacity: 0.45"/>
   </g>
   <g id="patch_13">
    <path d="M 538.12909 228.954713 
L 587.485992 228.954713 
L 587.485992 17.061433 
L 538.12909 17.061433 
z
" clip-path="url(#pf12af8df9d)" style="fill: #fee2e2; opacity: 0.45"/>
   </g>
   <g id="patch_14">
    <path d="M 587.485992 228.954713 
L 597.357372 228.954713 
L 597.357372 17.061433 
L 587.485992 17.061433 
z
" clip-path="url(#pf12af8df9d)" style="fill: #ede9fe; opacity: 0.45"/>
   </g>
   <g id="patch_15">
    <path d="M 597.357372 228.954713 
L 720.749627 228.954713 
L 720.749627 17.061433 
L 597.357372 17.061433 
z
" clip-path="url(#pf12af8df9d)" style="fill: #f8fafc; opacity: 0.45"/>
   </g>
   <g id="patch_16">
    <path d="M 720.749627 228.954713 
L 745.428078 228.954713 
L 745.428078 17.061433 
L 720.749627 17.061433 
z
" clip-path="url(#pf12af8df9d)" style="fill: #eff6ff; opacity: 0.45"/>
   </g>
   <g id="patch_17">
    <path d="M 745.428078 228.954713 
L 775.04222 228.954713 
L 775.04222 17.061433 
L 745.428078 17.061433 
z
" clip-path="url(#pf12af8df9d)" style="fill: #fef3c7; opacity: 0.45"/>
   </g>
   <g id="patch_18">
    <path d="M 775.04222 228.954713 
L 814.527741 228.954713 
L 814.527741 17.061433 
L 775.04222 17.061433 
z
" clip-path="url(#pf12af8df9d)" style="fill: #dcfce7; opacity: 0.45"/>
   </g>
   <g id="patch_19">
    <path d="M 814.527741 228.954713 
L 863.884643 228.954713 
L 863.884643 17.061433 
L 814.527741 17.061433 
z
" clip-path="url(#pf12af8df9d)" style="fill: #fee2e2; opacity: 0.45"/>
   </g>
   <g id="patch_20">
    <path d="M 863.884643 228.954713 
L 873.756024 228.954713 
L 873.756024 17.061433 
L 863.884643 17.061433 
z
" clip-path="url(#pf12af8df9d)" style="fill: #ede9fe; opacity: 0.45"/>
   </g>
   <g id="patch_21">
    <path d="M 873.756024 228.954713 
L 918.177236 228.954713 
L 918.177236 17.061433 
L 873.756024 17.061433 
z
" clip-path="url(#pf12af8df9d)" style="fill: #f8fafc; opacity: 0.45"/>
   </g>
   <g id="patch_22">
    <path d="M 918.177236 228.954713 
L 923.112926 228.954713 
L 923.112926 17.061433 
L 918.177236 17.061433 
z
" clip-path="url(#pf12af8df9d)" style="fill: #eff6ff; opacity: 0.45"/>
   </g>
   <g id="matplotlib.axis_1">
    <g id="xtick_1">
     <g id="line2d_1">
      <path d="M 108.724042 228.954713 
L 108.724042 17.061433 
" clip-path="url(#pf12af8df9d)" style="fill: none; stroke: #eef2f7; stroke-width: 0.55; stroke-linecap: square"/>
     </g>
     <g id="line2d_2">
      <defs>
       <path id="m750334a8e1" d="M 0 0 
L 0 3.5 
" style="stroke: #000000; stroke-width: 0.8"/>
      </defs>
      <g>
       <use xlink:href="#m750334a8e1" x="108.724042" y="228.954713" style="stroke: #000000; stroke-width: 0.8"/>
      </g>
     </g>
     <g id="text_1">
      <!-- 50 -->
      <g transform="translate(102.997792 242.793307) scale(0.09 -0.09)">
       <defs>
        <path id="DejaVuSans-35" d="M 691 4666 
L 3169 4666 
L 3169 4134 
L 1269 4134 
L 1269 2991 
Q 1406 3038 1543 3061 
Q 1681 3084 1819 3084 
Q 2600 3084 3056 2656 
Q 3513 2228 3513 1497 
Q 3513 744 3044 326 
Q 2575 -91 1722 -91 
Q 1428 -91 1123 -41 
Q 819 9 494 109 
L 494 744 
Q 775 591 1075 516 
Q 1375 441 1709 441 
Q 2250 441 2565 725 
Q 2881 1009 2881 1497 
Q 2881 1984 2565 2268 
Q 2250 2553 1709 2553 
Q 1456 2553 1204 2497 
Q 953 2441 691 2322 
L 691 4666 
z
" transform="scale(0.015625)"/>
        <path id="DejaVuSans-30" d="M 2034 4250 
Q 1547 4250 1301 3770 
Q 1056 3291 1056 2328 
Q 1056 1369 1301 889 
Q 1547 409 2034 409 
Q 2525 409 2770 889 
Q 3016 1369 3016 2328 
Q 3016 3291 2770 3770 
Q 2525 4250 2034 4250 
z
M 2034 4750 
Q 2819 4750 3233 4129 
Q 3647 3509 3647 2328 
Q 3647 1150 3233 529 
Q 2819 -91 2034 -91 
Q 1250 -91 836 529 
Q 422 1150 422 2328 
Q 422 3509 836 4129 
Q 1250 4750 2034 4750 
z
" transform="scale(0.015625)"/>
       </defs>
       <use xlink:href="#DejaVuSans-35"/>
       <use xlink:href="#DejaVuSans-30" transform="translate(63.623047 0)"/>
      </g>
     </g>
    </g>
    <g id="xtick_2">
     <g id="line2d_3">
      <path d="M 232.116297 228.954713 
L 232.116297 17.061433 
" clip-path="url(#pf12af8df9d)" style="fill: none; stroke: #eef2f7; stroke-width: 0.55; stroke-linecap: square"/>
     </g>
     <g id="line2d_4">
      <g>
       <use xlink:href="#m750334a8e1" x="232.116297" y="228.954713" style="stroke: #000000; stroke-width: 0.8"/>
      </g>
     </g>
     <g id="text_2">
      <!-- 75 -->
      <g transform="translate(226.390047 242.793307) scale(0.09 -0.09)">
       <defs>
        <path id="DejaVuSans-37" d="M 525 4666 
L 3525 4666 
L 3525 4397 
L 1831 0 
L 1172 0 
L 2766 4134 
L 525 4134 
L 525 4666 
z
" transform="scale(0.015625)"/>
       </defs>
       <use xlink:href="#DejaVuSans-37"/>
       <use xlink:href="#DejaVuSans-35" transform="translate(63.623047 0)"/>
      </g>
     </g>
    </g>
    <g id="xtick_3">
     <g id="line2d_5">
      <path d="M 355.508552 228.954713 
L 355.508552 17.061433 
" clip-path="url(#pf12af8df9d)" style="fill: none; stroke: #eef2f7; stroke-width: 0.55; stroke-linecap: square"/>
     </g>
     <g id="line2d_6">
      <g>
       <use xlink:href="#m750334a8e1" x="355.508552" y="228.954713" style="stroke: #000000; stroke-width: 0.8"/>
      </g>
     </g>
     <g id="text_3">
      <!-- 100 -->
      <g transform="translate(346.919177 242.793307) scale(0.09 -0.09)">
       <defs>
        <path id="DejaVuSans-31" d="M 794 531 
L 1825 531 
L 1825 4091 
L 703 3866 
L 703 4441 
L 1819 4666 
L 2450 4666 
L 2450 531 
L 3481 531 
L 3481 0 
L 794 0 
L 794 531 
z
" transform="scale(0.015625)"/>
       </defs>
       <use xlink:href="#DejaVuSans-31"/>
       <use xlink:href="#DejaVuSans-30" transform="translate(63.623047 0)"/>
       <use xlink:href="#DejaVuSans-30" transform="translate(127.246094 0)"/>
      </g>
     </g>
    </g>
    <g id="xtick_4">
     <g id="line2d_7">
      <path d="M 478.900807 228.954713 
L 478.900807 17.061433 
" clip-path="url(#pf12af8df9d)" style="fill: none; stroke: #eef2f7; stroke-width: 0.55; stroke-linecap: square"/>
     </g>
     <g id="line2d_8">
      <g>
       <use xlink:href="#m750334a8e1" x="478.900807" y="228.954713" style="stroke: #000000; stroke-width: 0.8"/>
      </g>
     </g>
     <g id="text_4">
      <!-- 125 -->
      <g transform="translate(470.311432 242.793307) scale(0.09 -0.09)">
       <defs>
        <path id="DejaVuSans-32" d="M 1228 531 
L 3431 531 
L 3431 0 
L 469 0 
L 469 531 
Q 828 903 1448 1529 
Q 2069 2156 2228 2338 
Q 2531 2678 2651 2914 
Q 2772 3150 2772 3378 
Q 2772 3750 2511 3984 
Q 2250 4219 1831 4219 
Q 1534 4219 1204 4116 
Q 875 4013 500 3803 
L 500 4441 
Q 881 4594 1212 4672 
Q 1544 4750 1819 4750 
Q 2544 4750 2975 4387 
Q 3406 4025 3406 3419 
Q 3406 3131 3298 2873 
Q 3191 2616 2906 2266 
Q 2828 2175 2409 1742 
Q 1991 1309 1228 531 
z
" transform="scale(0.015625)"/>
       </defs>
       <use xlink:href="#DejaVuSans-31"/>
       <use xlink:href="#DejaVuSans-32" transform="translate(63.623047 0)"/>
       <use xlink:href="#DejaVuSans-35" transform="translate(127.246094 0)"/>
      </g>
     </g>
    </g>
    <g id="xtick_5">
     <g id="line2d_9">
      <path d="M 602.293062 228.954713 
L 602.293062 17.061433 
" clip-path="url(#pf12af8df9d)" style="fill: none; stroke: #eef2f7; stroke-width: 0.55; stroke-linecap: square"/>
     </g>
     <g id="line2d_10">
      <g>
       <use xlink:href="#m750334a8e1" x="602.293062" y="228.954713" style="stroke: #000000; stroke-width: 0.8"/>
      </g>
     </g>
     <g id="text_5">
      <!-- 150 -->
      <g transform="translate(593.703687 242.793307) scale(0.09 -0.09)">
       <use xlink:href="#DejaVuSans-31"/>
       <use xlink:href="#DejaVuSans-35" transform="translate(63.623047 0)"/>
       <use xlink:href="#DejaVuSans-30" transform="translate(127.246094 0)"/>
      </g>
     </g>
    </g>
    <g id="xtick_6">
     <g id="line2d_11">
      <path d="M 725.685317 228.954713 
L 725.685317 17.061433 
" clip-path="url(#pf12af8df9d)" style="fill: none; stroke: #eef2f7; stroke-width: 0.55; stroke-linecap: square"/>
     </g>
     <g id="line2d_12">
      <g>
       <use xlink:href="#m750334a8e1" x="725.685317" y="228.954713" style="stroke: #000000; stroke-width: 0.8"/>
      </g>
     </g>
     <g id="text_6">
      <!-- 175 -->
      <g transform="translate(717.095942 242.793307) scale(0.09 -0.09)">
       <use xlink:href="#DejaVuSans-31"/>
       <use xlink:href="#DejaVuSans-37" transform="translate(63.623047 0)"/>
       <use xlink:href="#DejaVuSans-35" transform="translate(127.246094 0)"/>
      </g>
     </g>
    </g>
    <g id="xtick_7">
     <g id="line2d_13">
      <path d="M 849.077573 228.954713 
L 849.077573 17.061433 
" clip-path="url(#pf12af8df9d)" style="fill: none; stroke: #eef2f7; stroke-width: 0.55; stroke-linecap: square"/>
     </g>
     <g id="line2d_14">
      <g>
       <use xlink:href="#m750334a8e1" x="849.077573" y="228.954713" style="stroke: #000000; stroke-width: 0.8"/>
      </g>
     </g>
     <g id="text_7">
      <!-- 200 -->
      <g transform="translate(840.488198 242.793307) scale(0.09 -0.09)">
       <use xlink:href="#DejaVuSans-32"/>
       <use xlink:href="#DejaVuSans-30" transform="translate(63.623047 0)"/>
       <use xlink:href="#DejaVuSans-30" transform="translate(127.246094 0)"/>
      </g>
     </g>
    </g>
    <g id="text_8">
     <!-- Minutes since session start -->
     <g transform="translate(421.182344 256.263463) scale(0.1 -0.1)">
      <defs>
       <path id="DejaVuSans-4d" d="M 628 4666 
L 1569 4666 
L 2759 1491 
L 3956 4666 
L 4897 4666 
L 4897 0 
L 4281 0 
L 4281 4097 
L 3078 897 
L 2444 897 
L 1241 4097 
L 1241 0 
L 628 0 
L 628 4666 
z
" transform="scale(0.015625)"/>
       <path id="DejaVuSans-69" d="M 603 3500 
L 1178 3500 
L 1178 0 
L 603 0 
L 603 3500 
z
M 603 4863 
L 1178 4863 
L 1178 4134 
L 603 4134 
L 603 4863 
z
" transform="scale(0.015625)"/>
       <path id="DejaVuSans-6e" d="M 3513 2113 
L 3513 0 
L 2938 0 
L 2938 2094 
Q 2938 2591 2744 2837 
Q 2550 3084 2163 3084 
Q 1697 3084 1428 2787 
Q 1159 2491 1159 1978 
L 1159 0 
L 581 0 
L 581 3500 
L 1159 3500 
L 1159 2956 
Q 1366 3272 1645 3428 
Q 1925 3584 2291 3584 
Q 2894 3584 3203 3211 
Q 3513 2838 3513 2113 
z
" transform="scale(0.015625)"/>
       <path id="DejaVuSans-75" d="M 544 1381 
L 544 3500 
L 1119 3500 
L 1119 1403 
Q 1119 906 1312 657 
Q 1506 409 1894 409 
Q 2359 409 2629 706 
Q 2900 1003 2900 1516 
L 2900 3500 
L 3475 3500 
L 3475 0 
L 2900 0 
L 2900 538 
Q 2691 219 2414 64 
Q 2138 -91 1772 -91 
Q 1169 -91 856 284 
Q 544 659 544 1381 
z
M 1991 3584 
L 1991 3584 
z
" transform="scale(0.015625)"/>
       <path id="DejaVuSans-74" d="M 1172 4494 
L 1172 3500 
L 2356 3500 
L 2356 3053 
L 1172 3053 
L 1172 1153 
Q 1172 725 1289 603 
Q 1406 481 1766 481 
L 2356 481 
L 2356 0 
L 1766 0 
Q 1100 0 847 248 
Q 594 497 594 1153 
L 594 3053 
L 172 3053 
L 172 3500 
L 594 3500 
L 594 4494 
L 1172 4494 
z
" transform="scale(0.015625)"/>
       <path id="DejaVuSans-65" d="M 3597 1894 
L 3597 1613 
L 953 1613 
Q 991 1019 1311 708 
Q 1631 397 2203 397 
Q 2534 397 2845 478 
Q 3156 559 3463 722 
L 3463 178 
Q 3153 47 2828 -22 
Q 2503 -91 2169 -91 
Q 1331 -91 842 396 
Q 353 884 353 1716 
Q 353 2575 817 3079 
Q 1281 3584 2069 3584 
Q 2775 3584 3186 3129 
Q 3597 2675 3597 1894 
z
M 3022 2063 
Q 3016 2534 2758 2815 
Q 2500 3097 2075 3097 
Q 1594 3097 1305 2825 
Q 1016 2553 972 2059 
L 3022 2063 
z
" transform="scale(0.015625)"/>
       <path id="DejaVuSans-73" d="M 2834 3397 
L 2834 2853 
Q 2591 2978 2328 3040 
Q 2066 3103 1784 3103 
Q 1356 3103 1142 2972 
Q 928 2841 928 2578 
Q 928 2378 1081 2264 
Q 1234 2150 1697 2047 
L 1894 2003 
Q 2506 1872 2764 1633 
Q 3022 1394 3022 966 
Q 3022 478 2636 193 
Q 2250 -91 1575 -91 
Q 1294 -91 989 -36 
Q 684 19 347 128 
L 347 722 
Q 666 556 975 473 
Q 1284 391 1588 391 
Q 1994 391 2212 530 
Q 2431 669 2431 922 
Q 2431 1156 2273 1281 
Q 2116 1406 1581 1522 
L 1381 1569 
Q 847 1681 609 1914 
Q 372 2147 372 2553 
Q 372 3047 722 3315 
Q 1072 3584 1716 3584 
Q 2034 3584 2315 3537 
Q 2597 3491 2834 3397 
z
" transform="scale(0.015625)"/>
       <path id="DejaVuSans-20" transform="scale(0.015625)"/>
       <path id="DejaVuSans-63" d="M 3122 3366 
L 3122 2828 
Q 2878 2963 2633 3030 
Q 2388 3097 2138 3097 
Q 1578 3097 1268 2742 
Q 959 2388 959 1747 
Q 959 1106 1268 751 
Q 1578 397 2138 397 
Q 2388 397 2633 464 
Q 2878 531 3122 666 
L 3122 134 
Q 2881 22 2623 -34 
Q 2366 -91 2075 -91 
Q 1284 -91 818 406 
Q 353 903 353 1747 
Q 353 2603 823 3093 
Q 1294 3584 2113 3584 
Q 2378 3584 2631 3529 
Q 2884 3475 3122 3366 
z
" transform="scale(0.015625)"/>
       <path id="DejaVuSans-6f" d="M 1959 3097 
Q 1497 3097 1228 2736 
Q 959 2375 959 1747 
Q 959 1119 1226 758 
Q 1494 397 1959 397 
Q 2419 397 2687 759 
Q 2956 1122 2956 1747 
Q 2956 2369 2687 2733 
Q 2419 3097 1959 3097 
z
M 1959 3584 
Q 2709 3584 3137 3096 
Q 3566 2609 3566 1747 
Q 3566 888 3137 398 
Q 2709 -91 1959 -91 
Q 1206 -91 779 398 
Q 353 888 353 1747 
Q 353 2609 779 3096 
Q 1206 3584 1959 3584 
z
" transform="scale(0.015625)"/>
       <path id="DejaVuSans-61" d="M 2194 1759 
Q 1497 1759 1228 1600 
Q 959 1441 959 1056 
Q 959 750 1161 570 
Q 1363 391 1709 391 
Q 2188 391 2477 730 
Q 2766 1069 2766 1631 
L 2766 1759 
L 2194 1759 
z
M 3341 1997 
L 3341 0 
L 2766 0 
L 2766 531 
Q 2569 213 2275 61 
Q 1981 -91 1556 -91 
Q 1019 -91 701 211 
Q 384 513 384 1019 
Q 384 1609 779 1909 
Q 1175 2209 1959 2209 
L 2766 2209 
L 2766 2266 
Q 2766 2663 2505 2880 
Q 2244 3097 1772 3097 
Q 1472 3097 1187 3025 
Q 903 2953 641 2809 
L 641 3341 
Q 956 3463 1253 3523 
Q 1550 3584 1831 3584 
Q 2591 3584 2966 3190 
Q 3341 2797 3341 1997 
z
" transform="scale(0.015625)"/>
       <path id="DejaVuSans-72" d="M 2631 2963 
Q 2534 3019 2420 3045 
Q 2306 3072 2169 3072 
Q 1681 3072 1420 2755 
Q 1159 2438 1159 1844 
L 1159 0 
L 581 0 
L 581 3500 
L 1159 3500 
L 1159 2956 
Q 1341 3275 1631 3429 
Q 1922 3584 2338 3584 
Q 2397 3584 2469 3576 
Q 2541 3569 2628 3553 
L 2631 2963 
z
" transform="scale(0.015625)"/>
      </defs>
      <use xlink:href="#DejaVuSans-4d"/>
      <use xlink:href="#DejaVuSans-69" transform="translate(86.279297 0)"/>
      <use xlink:href="#DejaVuSans-6e" transform="translate(114.0625 0)"/>
      <use xlink:href="#DejaVuSans-75" transform="translate(177.441406 0)"/>
      <use xlink:href="#DejaVuSans-74" transform="translate(240.820312 0)"/>
      <use xlink:href="#DejaVuSans-65" transform="translate(280.029297 0)"/>
      <use xlink:href="#DejaVuSans-73" transform="translate(341.552734 0)"/>
      <use xlink:href="#DejaVuSans-20" transform="translate(393.652344 0)"/>
      <use xlink:href="#DejaVuSans-73" transform="translate(425.439453 0)"/>
      <use xlink:href="#DejaVuSans-69" transform="translate(477.539062 0)"/>
      <use xlink:href="#DejaVuSans-6e" transform="translate(505.322266 0)"/>
      <use xlink:href="#DejaVuSans-63" transform="translate(568.701172 0)"/>
      <use xlink:href="#DejaVuSans-65" transform="translate(623.681641 0)"/>
      <use xlink:href="#DejaVuSans-20" transform="translate(685.205078 0)"/>
      <use xlink:href="#DejaVuSans-73" transform="translate(716.992188 0)"/>
      <use xlink:href="#DejaVuSans-65" transform="translate(769.091797 0)"/>
      <use xlink:href="#DejaVuSans-73" transform="translate(830.615234 0)"/>
      <use xlink:href="#DejaVuSans-73" transform="translate(882.714844 0)"/>
      <use xlink:href="#DejaVuSans-69" transform="translate(934.814453 0)"/>
      <use xlink:href="#DejaVuSans-6f" transform="translate(962.597656 0)"/>
      <use xlink:href="#DejaVuSans-6e" transform="translate(1023.779297 0)"/>
      <use xlink:href="#DejaVuSans-20" transform="translate(1087.158203 0)"/>
      <use xlink:href="#DejaVuSans-73" transform="translate(1118.945312 0)"/>
      <use xlink:href="#DejaVuSans-74" transform="translate(1171.044922 0)"/>
      <use xlink:href="#DejaVuSans-61" transform="translate(1210.253906 0)"/>
      <use xlink:href="#DejaVuSans-72" transform="translate(1271.533203 0)"/>
      <use xlink:href="#DejaVuSans-74" transform="translate(1312.646484 0)"/>
     </g>
    </g>
   </g>
   <g id="matplotlib.axis_2">
    <g id="ytick_1">
     <g id="line2d_15">
      <path d="M 42.190938 219.3232 
L 935.353438 219.3232 
" clip-path="url(#pf12af8df9d)" style="fill: none; stroke: #eef2f7; stroke-opacity: 0.25; stroke-width: 0.55; stroke-linecap: square"/>
     </g>
     <g id="line2d_16">
      <defs>
       <path id="m78b0e92099" d="M 0 0 
L -3.5 0 
" style="stroke: #000000; stroke-width: 0.8"/>
      </defs>
      <g>
       <use xlink:href="#m78b0e92099" x="42.190938" y="219.3232" style="stroke: #000000; stroke-width: 0.8"/>
      </g>
     </g>
     <g id="text_9">
      <!-- 0.0 -->
      <g transform="translate(20.878125 222.742497) scale(0.09 -0.09)">
       <defs>
        <path id="DejaVuSans-2e" d="M 684 794 
L 1344 794 
L 1344 0 
L 684 0 
L 684 794 
z
" transform="scale(0.015625)"/>
       </defs>
       <use xlink:href="#DejaVuSans-30"/>
       <use xlink:href="#DejaVuSans-2e" transform="translate(63.623047 0)"/>
       <use xlink:href="#DejaVuSans-30" transform="translate(95.410156 0)"/>
      </g>
     </g>
    </g>
    <g id="ytick_2">
     <g id="line2d_17">
      <path d="M 42.190938 184.042934 
L 935.353438 184.042934 
" clip-path="url(#pf12af8df9d)" style="fill: none; stroke: #eef2f7; stroke-opacity: 0.25; stroke-width: 0.55; stroke-linecap: square"/>
     </g>
     <g id="line2d_18">
      <g>
       <use xlink:href="#m78b0e92099" x="42.190938" y="184.042934" style="stroke: #000000; stroke-width: 0.8"/>
      </g>
     </g>
     <g id="text_10">
      <!-- 0.1 -->
      <g transform="translate(20.878125 187.462231) scale(0.09 -0.09)">
       <use xlink:href="#DejaVuSans-30"/>
       <use xlink:href="#DejaVuSans-2e" transform="translate(63.623047 0)"/>
       <use xlink:href="#DejaVuSans-31" transform="translate(95.410156 0)"/>
      </g>
     </g>
    </g>
    <g id="ytick_3">
     <g id="line2d_19">
      <path d="M 42.190938 148.762667 
L 935.353438 148.762667 
" clip-path="url(#pf12af8df9d)" style="fill: none; stroke: #eef2f7; stroke-opacity: 0.25; stroke-width: 0.55; stroke-linecap: square"/>
     </g>
     <g id="line2d_20">
      <g>
       <use xlink:href="#m78b0e92099" x="42.190938" y="148.762667" style="stroke: #000000; stroke-width: 0.8"/>
      </g>
     </g>
     <g id="text_11">
      <!-- 0.2 -->
      <g transform="translate(20.878125 152.181964) scale(0.09 -0.09)">
       <use xlink:href="#DejaVuSans-30"/>
       <use xlink:href="#DejaVuSans-2e" transform="translate(63.623047 0)"/>
       <use xlink:href="#DejaVuSans-32" transform="translate(95.410156 0)"/>
      </g>
     </g>
    </g>
    <g id="ytick_4">
     <g id="line2d_21">
      <path d="M 42.190938 113.482401 
L 935.353438 113.482401 
" clip-path="url(#pf12af8df9d)" style="fill: none; stroke: #eef2f7; stroke-opacity: 0.25; stroke-width: 0.55; stroke-linecap: square"/>
     </g>
     <g id="line2d_22">
      <g>
       <use xlink:href="#m78b0e92099" x="42.190938" y="113.482401" style="stroke: #000000; stroke-width: 0.8"/>
      </g>
     </g>
     <g id="text_12">
      <!-- 0.3 -->
      <g transform="translate(20.878125 116.901698) scale(0.09 -0.09)">
       <defs>
        <path id="DejaVuSans-33" d="M 2597 2516 
Q 3050 2419 3304 2112 
Q 3559 1806 3559 1356 
Q 3559 666 3084 287 
Q 2609 -91 1734 -91 
Q 1441 -91 1130 -33 
Q 819 25 488 141 
L 488 750 
Q 750 597 1062 519 
Q 1375 441 1716 441 
Q 2309 441 2620 675 
Q 2931 909 2931 1356 
Q 2931 1769 2642 2001 
Q 2353 2234 1838 2234 
L 1294 2234 
L 1294 2753 
L 1863 2753 
Q 2328 2753 2575 2939 
Q 2822 3125 2822 3475 
Q 2822 3834 2567 4026 
Q 2313 4219 1838 4219 
Q 1578 4219 1281 4162 
Q 984 4106 628 3988 
L 628 4550 
Q 988 4650 1302 4700 
Q 1616 4750 1894 4750 
Q 2613 4750 3031 4423 
Q 3450 4097 3450 3541 
Q 3450 3153 3228 2886 
Q 3006 2619 2597 2516 
z
" transform="scale(0.015625)"/>
       </defs>
       <use xlink:href="#DejaVuSans-30"/>
       <use xlink:href="#DejaVuSans-2e" transform="translate(63.623047 0)"/>
       <use xlink:href="#DejaVuSans-33" transform="translate(95.410156 0)"/>
      </g>
     </g>
    </g>
    <g id="ytick_5">
     <g id="line2d_23">
      <path d="M 42.190938 78.202134 
L 935.353438 78.202134 
" clip-path="url(#pf12af8df9d)" style="fill: none; stroke: #eef2f7; stroke-opacity: 0.25; stroke-width: 0.55; stroke-linecap: square"/>
     </g>
     <g id="line2d_24">
      <g>
       <use xlink:href="#m78b0e92099" x="42.190938" y="78.202134" style="stroke: #000000; stroke-width: 0.8"/>
      </g>
     </g>
     <g id="text_13">
      <!-- 0.4 -->
      <g transform="translate(20.878125 81.621431) scale(0.09 -0.09)">
       <defs>
        <path id="DejaVuSans-34" d="M 2419 4116 
L 825 1625 
L 2419 1625 
L 2419 4116 
z
M 2253 4666 
L 3047 4666 
L 3047 1625 
L 3713 1625 
L 3713 1100 
L 3047 1100 
L 3047 0 
L 2419 0 
L 2419 1100 
L 313 1100 
L 313 1709 
L 2253 4666 
z
" transform="scale(0.015625)"/>
       </defs>
       <use xlink:href="#DejaVuSans-30"/>
       <use xlink:href="#DejaVuSans-2e" transform="translate(63.623047 0)"/>
       <use xlink:href="#DejaVuSans-34" transform="translate(95.410156 0)"/>
      </g>
     </g>
    </g>
    <g id="ytick_6">
     <g id="line2d_25">
      <path d="M 42.190938 42.921868 
L 935.353438 42.921868 
" clip-path="url(#pf12af8df9d)" style="fill: none; stroke: #eef2f7; stroke-opacity: 0.25; stroke-width: 0.55; stroke-linecap: square"/>
     </g>
     <g id="line2d_26">
      <g>
       <use xlink:href="#m78b0e92099" x="42.190938" y="42.921868" style="stroke: #000000; stroke-width: 0.8"/>
      </g>
     </g>
     <g id="text_14">
      <!-- 0.5 -->
      <g transform="translate(20.878125 46.341165) scale(0.09 -0.09)">
       <use xlink:href="#DejaVuSans-30"/>
       <use xlink:href="#DejaVuSans-2e" transform="translate(63.623047 0)"/>
       <use xlink:href="#DejaVuSans-35" transform="translate(95.410156 0)"/>
      </g>
     </g>
    </g>
    <g id="text_15">
     <!-- Velocity (m/s) -->
     <g transform="translate(14.798438 157.273698) rotate(-90) scale(0.1 -0.1)">
      <defs>
       <path id="DejaVuSans-56" d="M 1831 0 
L 50 4666 
L 709 4666 
L 2188 738 
L 3669 4666 
L 4325 4666 
L 2547 0 
L 1831 0 
z
" transform="scale(0.015625)"/>
       <path id="DejaVuSans-6c" d="M 603 4863 
L 1178 4863 
L 1178 0 
L 603 0 
L 603 4863 
z
" transform="scale(0.015625)"/>
       <path id="DejaVuSans-79" d="M 2059 -325 
Q 1816 -950 1584 -1140 
Q 1353 -1331 966 -1331 
L 506 -1331 
L 506 -850 
L 844 -850 
Q 1081 -850 1212 -737 
Q 1344 -625 1503 -206 
L 1606 56 
L 191 3500 
L 800 3500 
L 1894 763 
L 2988 3500 
L 3597 3500 
L 2059 -325 
z
" transform="scale(0.015625)"/>
       <path id="DejaVuSans-28" d="M 1984 4856 
Q 1566 4138 1362 3434 
Q 1159 2731 1159 2009 
Q 1159 1288 1364 580 
Q 1569 -128 1984 -844 
L 1484 -844 
Q 1016 -109 783 600 
Q 550 1309 550 2009 
Q 550 2706 781 3412 
Q 1013 4119 1484 4856 
L 1984 4856 
z
" transform="scale(0.015625)"/>
       <path id="DejaVuSans-6d" d="M 3328 2828 
Q 3544 3216 3844 3400 
Q 4144 3584 4550 3584 
Q 5097 3584 5394 3201 
Q 5691 2819 5691 2113 
L 5691 0 
L 5113 0 
L 5113 2094 
Q 5113 2597 4934 2840 
Q 4756 3084 4391 3084 
Q 3944 3084 3684 2787 
Q 3425 2491 3425 1978 
L 3425 0 
L 2847 0 
L 2847 2094 
Q 2847 2600 2669 2842 
Q 2491 3084 2119 3084 
Q 1678 3084 1418 2786 
Q 1159 2488 1159 1978 
L 1159 0 
L 581 0 
L 581 3500 
L 1159 3500 
L 1159 2956 
Q 1356 3278 1631 3431 
Q 1906 3584 2284 3584 
Q 2666 3584 2933 3390 
Q 3200 3197 3328 2828 
z
" transform="scale(0.015625)"/>
       <path id="DejaVuSans-2f" d="M 1625 4666 
L 2156 4666 
L 531 -594 
L 0 -594 
L 1625 4666 
z
" transform="scale(0.015625)"/>
       <path id="DejaVuSans-29" d="M 513 4856 
L 1013 4856 
Q 1481 4119 1714 3412 
Q 1947 2706 1947 2009 
Q 1947 1309 1714 600 
Q 1481 -109 1013 -844 
L 513 -844 
Q 928 -128 1133 580 
Q 1338 1288 1338 2009 
Q 1338 2731 1133 3434 
Q 928 4138 513 4856 
z
" transform="scale(0.015625)"/>
      </defs>
      <use xlink:href="#DejaVuSans-56"/>
      <use xlink:href="#DejaVuSans-65" transform="translate(60.658203 0)"/>
      <use xlink:href="#DejaVuSans-6c" transform="translate(122.181641 0)"/>
      <use xlink:href="#DejaVuSans-6f" transform="translate(149.964844 0)"/>
      <use xlink:href="#DejaVuSans-63" transform="translate(211.146484 0)"/>
      <use xlink:href="#DejaVuSans-69" transform="translate(266.126953 0)"/>
      <use xlink:href="#DejaVuSans-74" transform="translate(293.910156 0)"/>
      <use xlink:href="#DejaVuSans-79" transform="translate(333.119141 0)"/>
      <use xlink:href="#DejaVuSans-20" transform="translate(392.298828 0)"/>
      <use xlink:href="#DejaVuSans-28" transform="translate(424.085938 0)"/>
      <use xlink:href="#DejaVuSans-6d" transform="translate(463.099609 0)"/>
      <use xlink:href="#DejaVuSans-2f" transform="translate(560.511719 0)"/>
      <use xlink:href="#DejaVuSans-73" transform="translate(594.203125 0)"/>
      <use xlink:href="#DejaVuSans-29" transform="translate(646.302734 0)"/>
     </g>
    </g>
   </g>
   <g id="line2d_27">
    <path d="M 59.367139 199.213448 
L 167.952324 190.393382 
L 172.888014 190.746184 
L 177.823704 200.624659 
L 182.759395 187.923763 
L 187.695085 172.400446 
L 192.630775 176.634078 
L 197.566465 189.687776 
L 202.502155 194.627014 
L 207.437846 202.03587 
L 212.373536 197.449435 
L 217.309226 204.858291 
L 222.244916 202.388672 
L 227.180606 194.627014 
L 232.116297 200.271856 
L 237.051987 197.449435 
L 241.987677 190.393382 
L 246.923367 217.559187 
L 251.859058 208.73912 
L 256.794748 207.680712 
L 261.730438 180.86771 
L 266.666128 188.629368 
L 271.601818 195.332619 
L 276.537509 188.276566 
L 281.473199 196.74383 
L 291.344579 193.215803 
L 296.280269 200.624659 
L 301.21596 196.74383 
L 306.15165 198.15504 
L 311.08734 198.15504 
L 316.02303 201.683067 
L 320.95872 200.624659 
L 325.894411 197.096632 
L 330.830101 202.741475 
L 335.765791 204.152686 
L 340.701481 195.685422 
L 343.169326 198.15504 
L 345.637171 200.977462 
L 350.572862 207.680712 
L 355.508552 208.73912 
L 360.444242 207.680712 
L 365.379932 208.73912 
L 370.315623 204.152686 
L 375.251313 203.094278 
L 380.187003 197.096632 
L 385.122693 215.089568 
L 390.058383 198.860646 
L 394.994074 198.15504 
L 399.929764 200.624659 
L 404.865454 208.386317 
L 409.801144 203.44708 
L 414.736834 200.271856 
L 419.672525 202.741475 
L 424.608215 209.444725 
L 429.543905 203.44708 
L 434.479595 195.685422 
L 439.415285 195.332619 
L 444.350976 198.15504 
L 449.286666 196.038224 
L 454.222356 202.03587 
L 459.158046 200.624659 
L 464.093736 197.449435 
L 469.029427 194.979816 
L 473.965117 201.330264 
L 478.900807 200.624659 
L 483.836497 202.388672 
L 488.772188 199.566251 
L 493.707878 202.741475 
L 498.643568 204.152686 
L 503.579258 206.269502 
L 508.514948 199.919054 
L 513.450639 198.15504 
L 518.386329 198.507843 
L 523.322019 189.687776 
L 528.257709 202.741475 
L 533.193399 197.096632 
L 538.12909 193.215803 
L 543.06478 183.337328 
L 548.00047 188.982171 
L 552.93616 195.332619 
L 557.87185 193.568606 
L 562.807541 191.45179 
L 572.678921 194.979816 
L 577.614611 199.919054 
L 582.550301 194.274211 
L 587.485992 201.683067 
L 592.421682 206.975107 
L 597.357372 202.741475 
L 602.293062 204.152686 
L 607.228752 215.089568 
L 612.164443 198.507843 
L 617.100133 210.503133 
L 622.035823 198.860646 
L 626.971513 198.507843 
L 631.907204 196.391027 
L 636.842894 196.038224 
L 641.778584 200.977462 
L 646.714274 206.269502 
L 651.649964 201.330264 
L 656.585655 200.624659 
L 661.521345 203.799883 
L 666.457035 192.157395 
L 671.392725 198.15504 
L 676.328415 202.388672 
L 681.264106 198.507843 
L 686.199796 199.566251 
L 691.135486 212.267147 
L 696.071176 202.03587 
L 701.006866 198.15504 
L 705.942557 202.03587 
L 710.878247 206.622304 
L 715.813937 199.919054 
L 720.749627 196.391027 
L 725.685317 197.096632 
L 730.621008 202.03587 
L 735.556698 199.566251 
L 740.492388 188.629368 
L 745.428078 183.690131 
L 750.363769 198.860646 
L 755.299459 188.276566 
L 760.235149 194.627014 
L 765.170839 205.563896 
L 770.106529 194.979816 
L 775.04222 196.74383 
L 779.97791 209.797528 
L 784.9136 194.979816 
L 789.84929 196.391027 
L 794.78498 197.096632 
L 799.720671 202.741475 
L 804.656361 209.444725 
L 809.592051 202.388672 
L 814.527741 179.809302 
L 819.463431 182.984526 
L 824.399122 196.391027 
L 829.334812 199.213448 
L 834.270502 188.982171 
L 844.141882 201.683067 
L 849.077573 194.627014 
L 854.013263 188.276566 
L 858.948953 192.510198 
L 863.884643 198.860646 
L 868.820333 202.03587 
L 873.756024 198.507843 
L 878.691714 203.094278 
L 883.627404 203.44708 
L 888.563094 194.274211 
L 893.498785 206.975107 
L 898.434475 199.213448 
L 903.370165 197.802238 
L 908.305855 202.03587 
L 913.241545 199.566251 
L 918.177236 198.507843 
L 918.177236 198.507843 
" clip-path="url(#pf12af8df9d)" style="fill: none; stroke: #b8e3b2; stroke-opacity: 0.95; stroke-width: 1.3; stroke-linecap: square"/>
   </g>
   <g id="line2d_28">
    <path d="M 59.367139 211.561541 
L 167.952324 192.510198 
L 172.888014 208.386317 
L 177.823704 211.914344 
L 182.759395 192.863 
L 187.695085 192.157395 
L 192.630775 179.103696 
L 197.566465 167.814011 
L 202.502155 195.685422 
L 207.437846 191.098987 
L 212.373536 178.398091 
L 217.309226 194.979816 
L 222.244916 210.855936 
L 227.180606 201.330264 
L 232.116297 201.330264 
L 237.051987 202.388672 
L 241.987677 200.271856 
L 246.923367 203.44708 
L 251.859058 208.033515 
L 256.794748 202.741475 
L 261.730438 192.157395 
L 266.666128 188.629368 
L 271.601818 188.629368 
L 276.537509 199.213448 
L 281.473199 197.096632 
L 291.344579 200.271856 
L 296.280269 199.213448 
L 301.21596 193.215803 
L 306.15165 195.332619 
L 311.08734 196.391027 
L 316.02303 202.03587 
L 320.95872 217.911989 
L 325.894411 212.267147 
L 330.830101 202.741475 
L 335.765791 210.503133 
L 340.701481 205.916699 
L 343.169326 205.211094 
L 345.637171 204.152686 
L 350.572862 205.916699 
L 355.508552 205.211094 
L 360.444242 206.269502 
L 365.379932 218.617595 
L 370.315623 210.503133 
L 375.251313 203.44708 
L 380.187003 201.330264 
L 385.122693 210.855936 
L 390.058383 216.500779 
L 394.994074 206.975107 
L 399.929764 198.860646 
L 404.865454 203.799883 
L 409.801144 209.444725 
L 414.736834 200.624659 
L 419.672525 206.622304 
L 424.608215 197.096632 
L 429.543905 199.213448 
L 434.479595 195.685422 
L 439.415285 198.860646 
L 444.350976 205.211094 
L 449.286666 206.269502 
L 454.222356 199.566251 
L 459.158046 198.860646 
L 464.093736 194.979816 
L 469.029427 186.512552 
L 473.965117 199.213448 
L 483.836497 199.919054 
L 488.772188 201.683067 
L 493.707878 197.096632 
L 498.643568 196.391027 
L 508.514948 201.330264 
L 513.450639 199.213448 
L 518.386329 200.624659 
L 523.322019 205.211094 
L 528.257709 203.799883 
L 533.193399 194.274211 
L 538.12909 205.916699 
L 543.06478 171.342038 
L 548.00047 194.274211 
L 552.93616 197.802238 
L 557.87185 196.038224 
L 562.807541 198.15504 
L 572.678921 187.923763 
L 577.614611 200.977462 
L 582.550301 196.74383 
L 587.485992 204.505488 
L 592.421682 209.444725 
L 597.357372 207.327909 
L 602.293062 199.919054 
L 607.228752 196.74383 
L 612.164443 196.391027 
L 617.100133 202.03587 
L 622.035823 200.624659 
L 626.971513 201.683067 
L 631.907204 196.74383 
L 636.842894 208.73912 
L 641.778584 203.44708 
L 646.714274 204.858291 
L 651.649964 205.916699 
L 656.585655 204.152686 
L 661.521345 212.619949 
L 666.457035 199.919054 
L 671.392725 198.15504 
L 676.328415 194.274211 
L 681.264106 198.15504 
L 686.199796 205.211094 
L 696.071176 201.683067 
L 701.006866 203.094278 
L 705.942557 212.619949 
L 710.878247 199.566251 
L 715.813937 198.507843 
L 720.749627 201.683067 
L 725.685317 201.683067 
L 730.621008 200.271856 
L 735.556698 196.74383 
L 740.492388 192.863 
L 745.428078 200.624659 
L 750.363769 198.15504 
L 755.299459 199.919054 
L 760.235149 192.510198 
L 765.170839 202.03587 
L 770.106529 198.507843 
L 775.04222 197.096632 
L 779.97791 199.213448 
L 784.9136 200.977462 
L 789.84929 202.03587 
L 794.78498 200.977462 
L 799.720671 201.683067 
L 804.656361 193.568606 
L 809.592051 188.276566 
L 814.527741 192.863 
L 819.463431 171.342038 
L 824.399122 198.507843 
L 829.334812 193.921408 
L 834.270502 188.982171 
L 844.141882 192.157395 
L 849.077573 192.510198 
L 854.013263 201.683067 
L 858.948953 191.804592 
L 863.884643 206.269502 
L 873.756024 199.213448 
L 878.691714 193.215803 
L 883.627404 195.685422 
L 886.095249 193.568606 
L 888.563094 191.098987 
L 893.498785 219.3232 
L 898.434475 210.503133 
L 903.370165 200.271856 
L 908.305855 193.921408 
L 913.241545 195.332619 
L 918.177236 197.096632 
L 918.177236 197.096632 
" clip-path="url(#pf12af8df9d)" style="fill: none; stroke: #98d594; stroke-opacity: 0.95; stroke-width: 1.3; stroke-linecap: square"/>
   </g>
   <g id="line2d_29">
    <path d="M 59.367139 218.970397 
L 167.952324 191.804592 
L 172.888014 204.858291 
L 177.823704 213.325555 
L 182.759395 153.349102 
L 187.695085 117.36323 
L 192.630775 119.832849 
L 197.566465 84.552582 
L 202.502155 108.543164 
L 207.437846 129.358521 
L 212.373536 155.465918 
L 217.309226 198.860646 
L 222.244916 207.327909 
L 227.180606 204.858291 
L 232.116297 214.383963 
L 237.051987 211.914344 
L 241.987677 197.449435 
L 246.923367 209.091923 
L 251.859058 212.619949 
L 256.794748 204.152686 
L 261.730438 136.061771 
L 266.666128 118.774441 
L 271.601818 116.304822 
L 276.537509 119.127243 
L 281.473199 142.765022 
L 291.344579 125.830494 
L 296.280269 107.131953 
L 301.21596 112.07119 
L 306.15165 118.068836 
L 311.08734 194.627014 
L 316.02303 201.683067 
L 320.95872 206.975107 
L 325.894411 208.033515 
L 335.765791 205.916699 
L 340.701481 205.916699 
L 343.169326 209.444725 
L 345.637171 213.325555 
L 350.572862 211.208739 
L 360.444242 213.325555 
L 365.379932 213.325555 
L 370.315623 208.033515 
L 375.251313 205.211094 
L 380.187003 211.208739 
L 385.122693 206.269502 
L 390.058383 202.03587 
L 394.994074 211.208739 
L 399.929764 202.741475 
L 404.865454 210.503133 
L 409.801144 214.03116 
L 414.736834 210.150331 
L 419.672525 204.505488 
L 424.608215 206.975107 
L 429.543905 200.977462 
L 434.479595 203.44708 
L 439.415285 202.741475 
L 444.350976 210.150331 
L 449.286666 209.797528 
L 454.222356 205.563896 
L 459.158046 205.211094 
L 464.093736 146.293049 
L 469.029427 137.120179 
L 473.965117 145.940246 
L 478.900807 96.547873 
L 483.836497 109.954374 
L 488.772188 160.052353 
L 493.707878 204.858291 
L 498.643568 201.330264 
L 503.579258 200.977462 
L 508.514948 205.211094 
L 513.450639 205.916699 
L 518.386329 201.683067 
L 523.322019 199.213448 
L 528.257709 214.03116 
L 533.193399 203.094278 
L 538.12909 169.578024 
L 543.06478 123.713678 
L 548.00047 121.949665 
L 552.93616 124.066481 
L 557.87185 140.295403 
L 562.807541 121.244059 
L 572.678921 113.129598 
L 577.614611 121.949665 
L 582.550301 125.477691 
L 587.485992 181.573315 
L 592.421682 207.680712 
L 597.357372 215.795173 
L 602.293062 204.858291 
L 612.164443 206.269502 
L 614.632288 205.916699 
L 617.100133 205.211094 
L 626.971513 205.916699 
L 631.907204 207.680712 
L 636.842894 212.619949 
L 641.778584 205.563896 
L 646.714274 217.559187 
L 651.649964 206.269502 
L 656.585655 209.091923 
L 661.521345 212.267147 
L 666.457035 162.169169 
L 671.392725 210.503133 
L 676.328415 205.211094 
L 681.264106 215.795173 
L 686.199796 211.561541 
L 691.135486 209.091923 
L 696.071176 204.152686 
L 701.006866 212.619949 
L 705.942557 210.150331 
L 710.878247 209.444725 
L 715.813937 205.916699 
L 720.749627 219.3232 
L 725.685317 205.211094 
L 730.621008 205.211094 
L 735.556698 181.926118 
L 740.492388 133.23935 
L 745.428078 135.708969 
L 750.363769 115.599217 
L 755.299459 117.36323 
L 760.235149 122.302467 
L 765.170839 149.821075 
L 770.106529 205.916699 
L 775.04222 205.211094 
L 779.97791 211.914344 
L 784.9136 206.269502 
L 789.84929 209.091923 
L 794.78498 210.150331 
L 799.720671 210.855936 
L 804.656361 207.680712 
L 809.592051 205.916699 
L 814.527741 124.066481 
L 819.463431 131.122534 
L 824.399122 130.416929 
L 829.334812 130.416929 
L 834.270502 136.767377 
L 844.141882 117.36323 
L 849.077573 80.31895 
L 854.013263 119.480046 
L 858.948953 125.830494 
L 863.884643 191.804592 
L 868.820333 206.975107 
L 873.756024 210.855936 
L 878.691714 218.970397 
L 883.627404 212.972752 
L 886.095249 209.797528 
L 888.563094 206.269502 
L 893.498785 205.916699 
L 898.434475 213.325555 
L 903.370165 211.561541 
L 908.305855 203.44708 
L 913.241545 204.858291 
L 918.177236 206.622304 
L 918.177236 206.622304 
" clip-path="url(#pf12af8df9d)" style="fill: none; stroke: #73c476; stroke-opacity: 0.95; stroke-width: 1.3; stroke-linecap: square"/>
   </g>
   <g id="line2d_30">
    <path d="M 59.367139 208.73912 
L 167.952324 193.921408 
L 172.888014 210.150331 
L 177.823704 214.03116 
L 182.759395 191.45179 
L 187.695085 190.040579 
L 192.630775 189.687776 
L 197.566465 196.74383 
L 202.502155 200.271856 
L 207.437846 197.449435 
L 212.373536 201.330264 
L 217.309226 209.444725 
L 222.244916 214.383963 
L 227.180606 203.44708 
L 232.116297 203.799883 
L 237.051987 205.211094 
L 241.987677 196.74383 
L 246.923367 219.3232 
L 251.859058 215.795173 
L 256.794748 205.211094 
L 261.730438 192.157395 
L 266.666128 194.274211 
L 271.601818 184.395736 
L 276.537509 178.398091 
L 281.473199 191.45179 
L 291.344579 191.804592 
L 296.280269 190.393382 
L 301.21596 184.748539 
L 306.15165 188.276566 
L 311.08734 200.271856 
L 316.02303 205.211094 
L 320.95872 209.444725 
L 325.894411 210.150331 
L 330.830101 213.678357 
L 335.765791 215.442371 
L 340.701481 214.736765 
L 343.169326 214.03116 
L 345.637171 212.972752 
L 350.572862 211.208739 
L 355.508552 208.386317 
L 360.444242 213.678357 
L 365.379932 210.150331 
L 370.315623 214.736765 
L 375.251313 213.678357 
L 380.187003 211.561541 
L 385.122693 215.442371 
L 390.058383 211.914344 
L 394.994074 218.617595 
L 404.865454 208.73912 
L 409.801144 214.03116 
L 414.736834 216.500779 
L 419.672525 210.855936 
L 424.608215 209.091923 
L 429.543905 209.091923 
L 434.479595 209.797528 
L 439.415285 219.3232 
L 444.350976 206.269502 
L 449.286666 210.150331 
L 454.222356 207.327909 
L 459.158046 212.972752 
L 464.093736 200.624659 
L 469.029427 187.218158 
L 473.965117 191.098987 
L 478.900807 192.510198 
L 483.836497 197.802238 
L 488.772188 192.863 
L 493.707878 207.327909 
L 498.643568 209.091923 
L 503.579258 211.914344 
L 508.514948 216.853581 
L 513.450639 206.622304 
L 518.386329 206.975107 
L 523.322019 200.624659 
L 528.257709 211.208739 
L 533.193399 208.033515 
L 538.12909 192.157395 
L 543.06478 192.863 
L 548.00047 182.631723 
L 552.93616 191.45179 
L 557.87185 180.86771 
L 562.807541 191.804592 
L 572.678921 196.038224 
L 577.614611 190.040579 
L 582.550301 192.863 
L 587.485992 198.507843 
L 592.421682 202.03587 
L 597.357372 210.503133 
L 602.293062 202.741475 
L 607.228752 209.444725 
L 612.164443 214.383963 
L 617.100133 210.150331 
L 622.035823 211.914344 
L 626.971513 210.855936 
L 631.907204 211.561541 
L 636.842894 214.383963 
L 641.778584 209.797528 
L 646.714274 212.972752 
L 651.649964 209.091923 
L 656.585655 207.327909 
L 661.521345 214.383963 
L 666.457035 198.860646 
L 671.392725 200.271856 
L 676.328415 208.73912 
L 681.264106 214.03116 
L 686.199796 209.797528 
L 691.135486 214.736765 
L 696.071176 218.617595 
L 701.006866 216.147976 
L 705.942557 214.736765 
L 715.813937 214.736765 
L 720.749627 209.444725 
L 725.685317 209.444725 
L 730.621008 208.73912 
L 735.556698 202.03587 
L 740.492388 196.74383 
L 745.428078 197.449435 
L 750.363769 193.568606 
L 755.299459 182.984526 
L 760.235149 183.337328 
L 770.106529 208.033515 
L 775.04222 208.73912 
L 779.97791 213.678357 
L 784.9136 215.442371 
L 789.84929 212.267147 
L 794.78498 209.797528 
L 799.720671 218.264792 
L 809.592051 212.619949 
L 814.527741 191.098987 
L 819.463431 190.746184 
L 824.399122 175.222867 
L 829.334812 183.337328 
L 834.270502 185.806947 
L 844.141882 180.86771 
L 849.077573 191.098987 
L 854.013263 187.923763 
L 858.948953 187.923763 
L 863.884643 208.033515 
L 868.820333 209.797528 
L 873.756024 208.73912 
L 878.691714 206.622304 
L 883.627404 212.619949 
L 888.563094 209.091923 
L 893.498785 208.386317 
L 898.434475 210.855936 
L 908.305855 210.150331 
L 913.241545 208.386317 
L 918.177236 208.386317 
L 918.177236 208.386317 
" clip-path="url(#pf12af8df9d)" style="fill: none; stroke: #2f974e; stroke-opacity: 0.95; stroke-width: 1.3; stroke-linecap: square"/>
   </g>
   <g id="line2d_31">
    <path d="M 59.367139 219.3232 
L 167.952324 194.274211 
L 172.888014 212.619949 
L 177.823704 219.3232 
L 182.759395 99.017492 
L 187.695085 39.746644 
L 192.630775 39.746644 
L 197.566465 45.391487 
L 202.502155 45.391487 
L 207.437846 67.970857 
L 212.373536 127.94731 
L 217.309226 204.858291 
L 222.244916 211.914344 
L 227.180606 207.327909 
L 232.116297 207.680712 
L 237.051987 215.442371 
L 241.987677 201.330264 
L 246.923367 210.150331 
L 251.859058 212.267147 
L 256.794748 206.975107 
L 261.730438 78.202134 
L 266.666128 60.914804 
L 271.601818 31.984985 
L 276.537509 83.494174 
L 281.473199 61.620409 
L 291.344579 66.206844 
L 296.280269 66.912449 
L 301.21596 43.980276 
L 306.15165 57.386777 
L 311.08734 192.863 
L 316.02303 202.388672 
L 320.95872 204.152686 
L 325.894411 209.444725 
L 330.830101 217.206384 
L 335.765791 211.561541 
L 340.701481 213.325555 
L 345.637171 217.559187 
L 350.572862 210.150331 
L 355.508552 209.091923 
L 360.444242 206.975107 
L 365.379932 208.033515 
L 370.315623 206.269502 
L 375.251313 205.916699 
L 380.187003 212.619949 
L 385.122693 212.619949 
L 390.058383 204.505488 
L 394.994074 206.269502 
L 399.929764 205.211094 
L 404.865454 208.73912 
L 409.801144 213.325555 
L 414.736834 207.327909 
L 419.672525 204.505488 
L 424.608215 206.269502 
L 429.543905 202.388672 
L 434.479595 209.797528 
L 439.415285 205.211094 
L 444.350976 210.855936 
L 449.286666 206.975107 
L 454.222356 205.916699 
L 459.158046 207.327909 
L 464.093736 81.024556 
L 469.029427 74.321305 
L 473.965117 91.961438 
L 478.900807 49.272316 
L 483.836497 63.03162 
L 488.772188 143.117825 
L 493.707878 206.622304 
L 498.643568 210.503133 
L 503.579258 206.975107 
L 508.514948 210.855936 
L 513.450639 210.150331 
L 518.386329 205.211094 
L 523.322019 202.03587 
L 528.257709 217.559187 
L 533.193399 206.622304 
L 538.12909 127.594507 
L 543.06478 52.800343 
L 548.00047 44.333079 
L 552.93616 43.980276 
L 557.87185 61.973212 
L 562.807541 47.508303 
L 572.678921 53.153145 
L 577.614611 74.674108 
L 582.550301 76.790924 
L 587.485992 181.573315 
L 592.421682 204.858291 
L 597.357372 212.619949 
L 602.293062 206.269502 
L 607.228752 213.678357 
L 612.164443 213.325555 
L 617.100133 207.680712 
L 622.035823 211.914344 
L 626.971513 210.855936 
L 631.907204 210.855936 
L 636.842894 209.444725 
L 641.778584 206.269502 
L 646.714274 215.089568 
L 651.649964 210.150331 
L 656.585655 207.680712 
L 661.521345 209.797528 
L 666.457035 140.295403 
L 671.392725 202.741475 
L 676.328415 203.799883 
L 681.264106 214.383963 
L 691.135486 207.327909 
L 696.071176 206.975107 
L 701.006866 209.797528 
L 705.942557 218.617595 
L 710.878247 206.975107 
L 715.813937 205.211094 
L 720.749627 213.678357 
L 725.685317 205.563896 
L 730.621008 208.73912 
L 735.556698 178.398091 
L 740.492388 61.267607 
L 745.428078 70.793279 
L 750.363769 34.454604 
L 755.299459 61.620409 
L 760.235149 64.795633 
L 765.170839 128.652915 
L 770.106529 209.091923 
L 775.04222 213.678357 
L 779.97791 211.208739 
L 784.9136 208.033515 
L 789.84929 212.619949 
L 794.78498 213.325555 
L 799.720671 206.622304 
L 804.656361 206.975107 
L 809.592051 206.622304 
L 814.527741 84.19978 
L 819.463431 51.036329 
L 824.399122 53.858751 
L 829.334812 71.498884 
L 834.270502 64.442831 
L 844.141882 52.800343 
L 849.077573 26.692946 
L 854.013263 88.080609 
L 858.948953 71.146081 
L 863.884643 188.276566 
L 868.820333 204.152686 
L 873.756024 215.442371 
L 878.691714 219.3232 
L 883.627404 218.264792 
L 888.563094 209.091923 
L 898.434475 214.03116 
L 903.370165 207.680712 
L 908.305855 204.505488 
L 918.177236 207.327909 
L 918.177236 207.327909 
" clip-path="url(#pf12af8df9d)" style="fill: none; stroke: #157f3b; stroke-opacity: 0.95; stroke-width: 1.3; stroke-linecap: square"/>
   </g>
   <g id="patch_23">
    <path d="M 42.190938 228.954713 
L 42.190938 17.061433 
" style="fill: none; stroke: #cbd5e1; stroke-width: 0.8; stroke-linejoin: miter; stroke-linecap: square"/>
   </g>
   <g id="patch_24">
    <path d="M 935.353438 228.954713 
L 935.353438 17.061433 
" style="fill: none; stroke: #cbd5e1; stroke-width: 0.8; stroke-linejoin: miter; stroke-linecap: square"/>
   </g>
   <g id="patch_25">
    <path d="M 42.190937 228.954713 
L 935.353437 228.954713 
" style="fill: none; stroke: #cbd5e1; stroke-width: 0.8; stroke-linejoin: miter; stroke-linecap: square"/>
   </g>
   <g id="patch_26">
    <path d="M 42.190937 17.061433 
L 935.353437 17.061433 
" style="fill: none; stroke: #cbd5e1; stroke-width: 0.8; stroke-linejoin: miter; stroke-linecap: square"/>
   </g>
   <g id="text_16">
    <!-- ACC -->
    <g style="fill: #475569" transform="translate(42.526538 13.27875) scale(0.08 -0.08)">
     <defs>
      <path id="DejaVuSans-41" d="M 2188 4044 
L 1331 1722 
L 3047 1722 
L 2188 4044 
z
M 1831 4666 
L 2547 4666 
L 4325 0 
L 3669 0 
L 3244 1197 
L 1141 1197 
L 716 0 
L 50 0 
L 1831 4666 
z
" transform="scale(0.015625)"/>
      <path id="DejaVuSans-43" d="M 4122 4306 
L 4122 3641 
Q 3803 3938 3442 4084 
Q 3081 4231 2675 4231 
Q 1875 4231 1450 3742 
Q 1025 3253 1025 2328 
Q 1025 1406 1450 917 
Q 1875 428 2675 428 
Q 3081 428 3442 575 
Q 3803 722 4122 1019 
L 4122 359 
Q 3791 134 3420 21 
Q 3050 -91 2638 -91 
Q 1578 -91 968 557 
Q 359 1206 359 2328 
Q 359 3453 968 4101 
Q 1578 4750 2638 4750 
Q 3056 4750 3426 4639 
Q 3797 4528 4122 4306 
z
" transform="scale(0.015625)"/>
     </defs>
     <use xlink:href="#DejaVuSans-41"/>
     <use xlink:href="#DejaVuSans-43" transform="translate(66.658203 0)"/>
     <use xlink:href="#DejaVuSans-43" transform="translate(136.482422 0)"/>
    </g>
   </g>
   <g id="text_17">
    <!-- OC -->
    <g style="fill: #475569" transform="translate(120.057082 13.27875) scale(0.08 -0.08)">
     <defs>
      <path id="DejaVuSans-4f" d="M 2522 4238 
Q 1834 4238 1429 3725 
Q 1025 3213 1025 2328 
Q 1025 1447 1429 934 
Q 1834 422 2522 422 
Q 3209 422 3611 934 
Q 4013 1447 4013 2328 
Q 4013 3213 3611 3725 
Q 3209 4238 2522 4238 
z
M 2522 4750 
Q 3503 4750 4090 4092 
Q 4678 3434 4678 2328 
Q 4678 1225 4090 567 
Q 3503 -91 2522 -91 
Q 1538 -91 948 565 
Q 359 1222 359 2328 
Q 359 3434 948 4092 
Q 1538 4750 2522 4750 
z
" transform="scale(0.015625)"/>
     </defs>
     <use xlink:href="#DejaVuSans-4f"/>
     <use xlink:href="#DejaVuSans-43" transform="translate(78.710938 0)"/>
    </g>
   </g>
   <g id="text_18">
    <!-- FCS -->
    <g style="fill: #475569" transform="translate(199.804721 13.27875) scale(0.08 -0.08)">
     <defs>
      <path id="DejaVuSans-46" d="M 628 4666 
L 3309 4666 
L 3309 4134 
L 1259 4134 
L 1259 2759 
L 3109 2759 
L 3109 2228 
L 1259 2228 
L 1259 0 
L 628 0 
L 628 4666 
z
" transform="scale(0.015625)"/>
      <path id="DejaVuSans-53" d="M 3425 4513 
L 3425 3897 
Q 3066 4069 2747 4153 
Q 2428 4238 2131 4238 
Q 1616 4238 1336 4038 
Q 1056 3838 1056 3469 
Q 1056 3159 1242 3001 
Q 1428 2844 1947 2747 
L 2328 2669 
Q 3034 2534 3370 2195 
Q 3706 1856 3706 1288 
Q 3706 609 3251 259 
Q 2797 -91 1919 -91 
Q 1588 -91 1214 -16 
Q 841 59 441 206 
L 441 856 
Q 825 641 1194 531 
Q 1563 422 1919 422 
Q 2459 422 2753 634 
Q 3047 847 3047 1241 
Q 3047 1584 2836 1778 
Q 2625 1972 2144 2069 
L 1759 2144 
Q 1053 2284 737 2584 
Q 422 2884 422 3419 
Q 422 4038 858 4394 
Q 1294 4750 2059 4750 
Q 2388 4750 2728 4690 
Q 3069 4631 3425 4513 
z
" transform="scale(0.015625)"/>
     </defs>
     <use xlink:href="#DejaVuSans-46"/>
     <use xlink:href="#DejaVuSans-43" transform="translate(57.519531 0)"/>
     <use xlink:href="#DejaVuSans-53" transform="translate(127.34375 0)"/>
    </g>
   </g>
   <g id="text_19">
    <!-- SR -->
    <g style="fill: #475569" transform="translate(236.668927 13.27875) scale(0.08 -0.08)">
     <defs>
      <path id="DejaVuSans-52" d="M 2841 2188 
Q 3044 2119 3236 1894 
Q 3428 1669 3622 1275 
L 4263 0 
L 3584 0 
L 2988 1197 
Q 2756 1666 2539 1819 
Q 2322 1972 1947 1972 
L 1259 1972 
L 1259 0 
L 628 0 
L 628 4666 
L 2053 4666 
Q 2853 4666 3247 4331 
Q 3641 3997 3641 3322 
Q 3641 2881 3436 2590 
Q 3231 2300 2841 2188 
z
M 1259 4147 
L 1259 2491 
L 2053 2491 
Q 2509 2491 2742 2702 
Q 2975 2913 2975 3322 
Q 2975 3731 2742 3939 
Q 2509 4147 2053 4147 
L 1259 4147 
z
" transform="scale(0.015625)"/>
     </defs>
     <use xlink:href="#DejaVuSans-53"/>
     <use xlink:href="#DejaVuSans-52" transform="translate(63.476562 0)"/>
    </g>
   </g>
   <g id="text_20">
    <!-- FFC -->
    <g style="fill: #475569" transform="translate(279.014514 13.27875) scale(0.08 -0.08)">
     <use xlink:href="#DejaVuSans-46"/>
     <use xlink:href="#DejaVuSans-46" transform="translate(57.519531 0)"/>
     <use xlink:href="#DejaVuSans-43" transform="translate(115.039062 0)"/>
    </g>
   </g>
   <g id="text_21">
    <!-- SS -->
    <g style="fill: #475569" transform="translate(377.576098 13.27875) scale(0.08 -0.08)">
     <use xlink:href="#DejaVuSans-53"/>
     <use xlink:href="#DejaVuSans-53" transform="translate(63.476562 0)"/>
    </g>
   </g>
   <g id="text_22">
    <!-- OC -->
    <g style="fill: #475569" transform="translate(450.748326 13.27875) scale(0.08 -0.08)">
     <use xlink:href="#DejaVuSans-4f"/>
     <use xlink:href="#DejaVuSans-43" transform="translate(78.710938 0)"/>
    </g>
   </g>
   <g id="text_23">
    <!-- FCS -->
    <g style="fill: #475569" transform="translate(476.203372 13.27875) scale(0.08 -0.08)">
     <use xlink:href="#DejaVuSans-46"/>
     <use xlink:href="#DejaVuSans-43" transform="translate(57.519531 0)"/>
     <use xlink:href="#DejaVuSans-53" transform="translate(127.34375 0)"/>
    </g>
   </g>
   <g id="text_24">
    <!-- SR -->
    <g style="fill: #475569" transform="translate(513.067579 13.27875) scale(0.08 -0.08)">
     <use xlink:href="#DejaVuSans-53"/>
     <use xlink:href="#DejaVuSans-52" transform="translate(63.476562 0)"/>
    </g>
   </g>
   <g id="text_25">
    <!-- FFC -->
    <g style="fill: #475569" transform="translate(555.413166 13.27875) scale(0.08 -0.08)">
     <use xlink:href="#DejaVuSans-46"/>
     <use xlink:href="#DejaVuSans-46" transform="translate(57.519531 0)"/>
     <use xlink:href="#DejaVuSans-43" transform="translate(115.039062 0)"/>
    </g>
   </g>
   <g id="text_26">
    <!-- SS -->
    <g style="fill: #475569" transform="translate(653.97475 13.27875) scale(0.08 -0.08)">
     <use xlink:href="#DejaVuSans-53"/>
     <use xlink:href="#DejaVuSans-53" transform="translate(63.476562 0)"/>
    </g>
   </g>
   <g id="text_27">
    <!-- OC -->
    <g style="fill: #475569" transform="translate(727.146978 13.27875) scale(0.08 -0.08)">
     <use xlink:href="#DejaVuSans-4f"/>
     <use xlink:href="#DejaVuSans-43" transform="translate(78.710938 0)"/>
    </g>
   </g>
   <g id="text_28">
    <!-- FCS -->
    <g style="fill: #475569" transform="translate(752.602024 13.27875) scale(0.08 -0.08)">
     <use xlink:href="#DejaVuSans-46"/>
     <use xlink:href="#DejaVuSans-43" transform="translate(57.519531 0)"/>
     <use xlink:href="#DejaVuSans-53" transform="translate(127.34375 0)"/>
    </g>
   </g>
   <g id="text_29">
    <!-- SR -->
    <g style="fill: #475569" transform="translate(789.46623 13.27875) scale(0.08 -0.08)">
     <use xlink:href="#DejaVuSans-53"/>
     <use xlink:href="#DejaVuSans-52" transform="translate(63.476562 0)"/>
    </g>
   </g>
   <g id="text_30">
    <!-- FFC -->
    <g style="fill: #475569" transform="translate(831.811817 13.27875) scale(0.08 -0.08)">
     <use xlink:href="#DejaVuSans-46"/>
     <use xlink:href="#DejaVuSans-46" transform="translate(57.519531 0)"/>
     <use xlink:href="#DejaVuSans-43" transform="translate(115.039062 0)"/>
    </g>
   </g>
   <g id="text_31">
    <!-- SS -->
    <g style="fill: #475569" transform="translate(890.88788 13.27875) scale(0.08 -0.08)">
     <use xlink:href="#DejaVuSans-53"/>
     <use xlink:href="#DejaVuSans-53" transform="translate(63.476562 0)"/>
    </g>
   </g>
   <g id="legend_1">
    <g id="line2d_32">
     <path d="M 846.228438 27.540183 
L 854.228438 27.540183 
L 862.228438 27.540183 
" style="fill: none; stroke: #b8e3b2; stroke-opacity: 0.95; stroke-width: 1.3; stroke-linecap: square"/>
    </g>
    <g id="text_32">
     <!-- V1 -->
     <g transform="translate(868.628438 30.340183) scale(0.08 -0.08)">
      <use xlink:href="#DejaVuSans-56"/>
      <use xlink:href="#DejaVuSans-31" transform="translate(68.408203 0)"/>
     </g>
    </g>
    <g id="line2d_33">
     <path d="M 846.228438 39.282683 
L 854.228438 39.282683 
L 862.228438 39.282683 
" style="fill: none; stroke: #98d594; stroke-opacity: 0.95; stroke-width: 1.3; stroke-linecap: square"/>
    </g>
    <g id="text_33">
     <!-- V2 -->
     <g transform="translate(868.628438 42.082683) scale(0.08 -0.08)">
      <use xlink:href="#DejaVuSans-56"/>
      <use xlink:href="#DejaVuSans-32" transform="translate(68.408203 0)"/>
     </g>
    </g>
    <g id="line2d_34">
     <path d="M 846.228438 51.025183 
L 854.228438 51.025183 
L 862.228438 51.025183 
" style="fill: none; stroke: #73c476; stroke-opacity: 0.95; stroke-width: 1.3; stroke-linecap: square"/>
    </g>
    <g id="text_34">
     <!-- V3 -->
     <g transform="translate(868.628438 53.825183) scale(0.08 -0.08)">
      <use xlink:href="#DejaVuSans-56"/>
      <use xlink:href="#DejaVuSans-33" transform="translate(68.408203 0)"/>
     </g>
    </g>
    <g id="line2d_35">
     <path d="M 895.190938 27.540183 
L 903.190938 27.540183 
L 911.190938 27.540183 
" style="fill: none; stroke: #2f974e; stroke-opacity: 0.95; stroke-width: 1.3; stroke-linecap: square"/>
    </g>
    <g id="text_35">
     <!-- V5 -->
     <g transform="translate(917.590937 30.340183) scale(0.08 -0.08)">
      <use xlink:href="#DejaVuSans-56"/>
      <use xlink:href="#DejaVuSans-35" transform="translate(68.408203 0)"/>
     </g>
    </g>
    <g id="line2d_36">
     <path d="M 895.190938 39.282683 
L 903.190938 39.282683 
L 911.190938 39.282683 
" style="fill: none; stroke: #157f3b; stroke-opacity: 0.95; stroke-width: 1.3; stroke-linecap: square"/>
    </g>
    <g id="text_36">
     <!-- V6 -->
     <g transform="translate(917.590937 42.082683) scale(0.08 -0.08)">
      <defs>
       <path id="DejaVuSans-36" d="M 2113 2584 
Q 1688 2584 1439 2293 
Q 1191 2003 1191 1497 
Q 1191 994 1439 701 
Q 1688 409 2113 409 
Q 2538 409 2786 701 
Q 3034 994 3034 1497 
Q 3034 2003 2786 2293 
Q 2538 2584 2113 2584 
z
M 3366 4563 
L 3366 3988 
Q 3128 4100 2886 4159 
Q 2644 4219 2406 4219 
Q 1781 4219 1451 3797 
Q 1122 3375 1075 2522 
Q 1259 2794 1537 2939 
Q 1816 3084 2150 3084 
Q 2853 3084 3261 2657 
Q 3669 2231 3669 1497 
Q 3669 778 3244 343 
Q 2819 -91 2113 -91 
Q 1303 -91 875 529 
Q 447 1150 447 2328 
Q 447 3434 972 4092 
Q 1497 4750 2381 4750 
Q 2619 4750 2861 4703 
Q 3103 4656 3366 4563 
z
" transform="scale(0.015625)"/>
      </defs>
      <use xlink:href="#DejaVuSans-56"/>
      <use xlink:href="#DejaVuSans-36" transform="translate(68.408203 0)"/>
     </g>
    </g>
   </g>
  </g>
 </g>
 <defs>
  <clipPath id="pf12af8df9d">
   <rect x="42.190938" y="17.061433" width="893.1625" height="211.89328"/>
  </clipPath>
 </defs>
</svg>
