<?xml version="1.0" encoding="utf-8" standalone="no"?>
<!DOCTYPE svg PUBLIC "-//W3C//DTD SVG 1.1//EN"
  "http://www.w3.org/Graphics/SVG/1.1/DTD/svg11.dtd">
<svg xmlns:xlink="http://www.w3.org/1999/xlink" width="942.494375pt" height="265.54315pt" viewBox="0 0 942.494375 265.54315" xmlns="http://www.w3.org/2000/svg" version="1.1">
 <metadata>
  <rdf:RDF xmlns:dc="http://purl.org/dc/elements/1.1/" xmlns:cc="http://creativecommons.org/ns#" xmlns:rdf="http://www.w3.org/1999/02/22-rdf-syntax-ns#">
   <cc:Work>
    <dc:type rdf:resource="http://purl.org/dc/dcmitype/StillImage"/>
    <dc:date>2026-04-17T17:30:44.232876</dc:date>
    <dc:format>image/svg+xml</dc:format>
    <dc:creator>
     <cc:Agent>
      <dc:title>Matplotlib v3.10.8, https://matplotlib.org/</dc:title>
     </cc:Agent>
    </dc:creator>
   </cc:Work>
  </rdf:RDF>
 </metadata>
 <defs>
  <style type="text/css">*{stroke-linejoin: round; stroke-linecap: butt}</style>
 </defs>
 <g id="figure_1">
  <g id="patch_1">
   <path d="M 0 265.54315 
L 942.494375 265.54315 
L 942.494375 0 
L 0 0 
z
" style="fill: #ffffff"/>
  </g>
  <g id="axes_1">
   <g id="patch_2">
    <path d="M 45.056875 228.954713 
L 935.294375 228.954713 
L 935.294375 17.061433 
L 45.056875 17.061433 
z
" style="fill: #ffffff"/>
   </g>
   <g id="patch_3">
    <path d="M 45.056875 228.954713 
L 62.176827 228.954713 
L 62.176827 17.061433 
L 45.056875 17.061433 
z
" clip-path="url(#p0f6d22d4fe)" style="fill: #f8fafc; opacity: 0.45"/>
   </g>
   <g id="patch_4">
    <path d="M 62.176827 228.954713 
L 195.00404 228.954713 
L 195.00404 17.061433 
L 62.176827 17.061433 
z
" clip-path="url(#p0f6d22d4fe)" style="fill: #eff6ff; opacity: 0.45"/>
   </g>
   <g id="patch_5">
    <path d="M 195.00404 228.954713 
L 224.521199 228.954713 
L 224.521199 17.061433 
L 195.00404 17.061433 
z
" clip-path="url(#p0f6d22d4fe)" style="fill: #fef3c7; opacity: 0.45"/>
   </g>
   <g id="patch_6">
    <path d="M 224.521199 228.954713 
L 263.87741 228.954713 
L 263.87741 17.061433 
L 224.521199 17.061433 
z
" clip-path="url(#p0f6d22d4fe)" style="fill: #dcfce7; opacity: 0.45"/>
   </g>
   <g id="patch_7">
    <path d="M 263.87741 228.954713 
L 313.072674 228.954713 
L 313.072674 17.061433 
L 263.87741 17.061433 
z
" clip-path="url(#p0f6d22d4fe)" style="fill: #fee2e2; opacity: 0.45"/>
   </g>
   <g id="patch_8">
    <path d="M 313.072674 228.954713 
L 322.911727 228.954713 
L 322.911727 17.061433 
L 313.072674 17.061433 
z
" clip-path="url(#p0f6d22d4fe)" style="fill: #ede9fe; opacity: 0.45"/>
   </g>
   <g id="patch_9">
    <path d="M 322.911727 228.954713 
L 445.899887 228.954713 
L 445.899887 17.061433 
L 322.911727 17.061433 
z
" clip-path="url(#p0f6d22d4fe)" style="fill: #f8fafc; opacity: 0.45"/>
   </g>
   <g id="patch_10">
    <path d="M 445.899887 228.954713 
L 470.497519 228.954713 
L 470.497519 17.061433 
L 445.899887 17.061433 
z
" clip-path="url(#p0f6d22d4fe)" style="fill: #eff6ff; opacity: 0.45"/>
   </g>
   <g id="patch_11">
    <path d="M 470.497519 228.954713 
L 500.014678 228.954713 
L 500.014678 17.061433 
L 470.497519 17.061433 
z
" clip-path="url(#p0f6d22d4fe)" style="fill: #fef3c7; opacity: 0.45"/>
   </g>
   <g id="patch_12">
    <path d="M 500.014678 228.954713 
L 539.370889 228.954713 
L 539.370889 17.061433 
L 500.014678 17.061433 
z
" clip-path="url(#p0f6d22d4fe)" style="fill: #dcfce7; opacity: 0.45"/>
   </g>
   <g id="patch_13">
    <path d="M 539.370889 228.954713 
L 588.566153 228.954713 
L 588.566153 17.061433 
L 539.370889 17.061433 
z
" clip-path="url(#p0f6d22d4fe)" style="fill: #fee2e2; opacity: 0.45"/>
   </g>
   <g id="patch_14">
    <path d="M 588.566153 228.954713 
L 598.405206 228.954713 
L 598.405206 17.061433 
L 588.566153 17.061433 
z
" clip-path="url(#p0f6d22d4fe)" style="fill: #ede9fe; opacity: 0.45"/>
   </g>
   <g id="patch_15">
    <path d="M 598.405206 228.954713 
L 721.393366 228.954713 
L 721.393366 17.061433 
L 598.405206 17.061433 
z
" clip-path="url(#p0f6d22d4fe)" style="fill: #f8fafc; opacity: 0.45"/>
   </g>
   <g id="patch_16">
    <path d="M 721.393366 228.954713 
L 745.990999 228.954713 
L 745.990999 17.061433 
L 721.393366 17.061433 
z
" clip-path="url(#p0f6d22d4fe)" style="fill: #eff6ff; opacity: 0.45"/>
   </g>
   <g id="patch_17">
    <path d="M 745.990999 228.954713 
L 775.508157 228.954713 
L 775.508157 17.061433 
L 745.990999 17.061433 
z
" clip-path="url(#p0f6d22d4fe)" style="fill: #fef3c7; opacity: 0.45"/>
   </g>
   <g id="patch_18">
    <path d="M 775.508157 228.954713 
L 814.864368 228.954713 
L 814.864368 17.061433 
L 775.508157 17.061433 
z
" clip-path="url(#p0f6d22d4fe)" style="fill: #dcfce7; opacity: 0.45"/>
   </g>
   <g id="patch_19">
    <path d="M 814.864368 228.954713 
L 864.059633 228.954713 
L 864.059633 17.061433 
L 814.864368 17.061433 
z
" clip-path="url(#p0f6d22d4fe)" style="fill: #fee2e2; opacity: 0.45"/>
   </g>
   <g id="patch_20">
    <path d="M 864.059633 228.954713 
L 873.898685 228.954713 
L 873.898685 17.061433 
L 864.059633 17.061433 
z
" clip-path="url(#p0f6d22d4fe)" style="fill: #ede9fe; opacity: 0.45"/>
   </g>
   <g id="patch_21">
    <path d="M 873.898685 228.954713 
L 918.174423 228.954713 
L 918.174423 17.061433 
L 873.898685 17.061433 
z
" clip-path="url(#p0f6d22d4fe)" style="fill: #f8fafc; opacity: 0.45"/>
   </g>
   <g id="patch_22">
    <path d="M 918.174423 228.954713 
L 923.093949 228.954713 
L 923.093949 17.061433 
L 918.174423 17.061433 
z
" clip-path="url(#p0f6d22d4fe)" style="fill: #eff6ff; opacity: 0.45"/>
   </g>
   <g id="matplotlib.axis_1">
    <g id="xtick_1">
     <g id="line2d_1">
      <path d="M 111.372091 228.954713 
L 111.372091 17.061433 
" clip-path="url(#p0f6d22d4fe)" style="fill: none; stroke: #eef2f7; stroke-width: 0.55; stroke-linecap: square"/>
     </g>
     <g id="line2d_2">
      <defs>
       <path id="mb0977c09cc" d="M 0 0 
L 0 3.5 
" style="stroke: #000000; stroke-width: 0.8"/>
      </defs>
      <g>
       <use xlink:href="#mb0977c09cc" x="111.372091" y="228.954713" style="stroke: #000000; stroke-width: 0.8"/>
      </g>
     </g>
     <g id="text_1">
      <!-- 50 -->
      <g transform="translate(105.645841 242.793307) scale(0.09 -0.09)">
       <defs>
        <path id="DejaVuSans-35" d="M 691 4666 
L 3169 4666 
L 3169 4134 
L 1269 4134 
L 1269 2991 
Q 1406 3038 1543 3061 
Q 1681 3084 1819 3084 
Q 2600 3084 3056 2656 
Q 3513 2228 3513 1497 
Q 3513 744 3044 326 
Q 2575 -91 1722 -91 
Q 1428 -91 1123 -41 
Q 819 9 494 109 
L 494 744 
Q 775 591 1075 516 
Q 1375 441 1709 441 
Q 2250 441 2565 725 
Q 2881 1009 2881 1497 
Q 2881 1984 2565 2268 
Q 2250 2553 1709 2553 
Q 1456 2553 1204 2497 
Q 953 2441 691 2322 
L 691 4666 
z
" transform="scale(0.015625)"/>
        <path id="DejaVuSans-30" d="M 2034 4250 
Q 1547 4250 1301 3770 
Q 1056 3291 1056 2328 
Q 1056 1369 1301 889 
Q 1547 409 2034 409 
Q 2525 409 2770 889 
Q 3016 1369 3016 2328 
Q 3016 3291 2770 3770 
Q 2525 4250 2034 4250 
z
M 2034 4750 
Q 2819 4750 3233 4129 
Q 3647 3509 3647 2328 
Q 3647 1150 3233 529 
Q 2819 -91 2034 -91 
Q 1250 -91 836 529 
Q 422 1150 422 2328 
Q 422 3509 836 4129 
Q 1250 4750 2034 4750 
z
" transform="scale(0.015625)"/>
       </defs>
       <use xlink:href="#DejaVuSans-35"/>
       <use xlink:href="#DejaVuSans-30" transform="translate(63.623047 0)"/>
      </g>
     </g>
    </g>
    <g id="xtick_2">
     <g id="line2d_3">
      <path d="M 234.360251 228.954713 
L 234.360251 17.061433 
" clip-path="url(#p0f6d22d4fe)" style="fill: none; stroke: #eef2f7; stroke-width: 0.55; stroke-linecap: square"/>
     </g>
     <g id="line2d_4">
      <g>
       <use xlink:href="#mb0977c09cc" x="234.360251" y="228.954713" style="stroke: #000000; stroke-width: 0.8"/>
      </g>
     </g>
     <g id="text_2">
      <!-- 75 -->
      <g transform="translate(228.634001 242.793307) scale(0.09 -0.09)">
       <defs>
        <path id="DejaVuSans-37" d="M 525 4666 
L 3525 4666 
L 3525 4397 
L 1831 0 
L 1172 0 
L 2766 4134 
L 525 4134 
L 525 4666 
z
" transform="scale(0.015625)"/>
       </defs>
       <use xlink:href="#DejaVuSans-37"/>
       <use xlink:href="#DejaVuSans-35" transform="translate(63.623047 0)"/>
      </g>
     </g>
    </g>
    <g id="xtick_3">
     <g id="line2d_5">
      <path d="M 357.348412 228.954713 
L 357.348412 17.061433 
" clip-path="url(#p0f6d22d4fe)" style="fill: none; stroke: #eef2f7; stroke-width: 0.55; stroke-linecap: square"/>
     </g>
     <g id="line2d_6">
      <g>
       <use xlink:href="#mb0977c09cc" x="357.348412" y="228.954713" style="stroke: #000000; stroke-width: 0.8"/>
      </g>
     </g>
     <g id="text_3">
      <!-- 100 -->
      <g transform="translate(348.759037 242.793307) scale(0.09 -0.09)">
       <defs>
        <path id="DejaVuSans-31" d="M 794 531 
L 1825 531 
L 1825 4091 
L 703 3866 
L 703 4441 
L 1819 4666 
L 2450 4666 
L 2450 531 
L 3481 531 
L 3481 0 
L 794 0 
L 794 531 
z
" transform="scale(0.015625)"/>
       </defs>
       <use xlink:href="#DejaVuSans-31"/>
       <use xlink:href="#DejaVuSans-30" transform="translate(63.623047 0)"/>
       <use xlink:href="#DejaVuSans-30" transform="translate(127.246094 0)"/>
      </g>
     </g>
    </g>
    <g id="xtick_4">
     <g id="line2d_7">
      <path d="M 480.336572 228.954713 
L 480.336572 17.061433 
" clip-path="url(#p0f6d22d4fe)" style="fill: none; stroke: #eef2f7; stroke-width: 0.55; stroke-linecap: square"/>
     </g>
     <g id="line2d_8">
      <g>
       <use xlink:href="#mb0977c09cc" x="480.336572" y="228.954713" style="stroke: #000000; stroke-width: 0.8"/>
      </g>
     </g>
     <g id="text_4">
      <!-- 125 -->
      <g transform="translate(471.747197 242.793307) scale(0.09 -0.09)">
       <defs>
        <path id="DejaVuSans-32" d="M 1228 531 
L 3431 531 
L 3431 0 
L 469 0 
L 469 531 
Q 828 903 1448 1529 
Q 2069 2156 2228 2338 
Q 2531 2678 2651 2914 
Q 2772 3150 2772 3378 
Q 2772 3750 2511 3984 
Q 2250 4219 1831 4219 
Q 1534 4219 1204 4116 
Q 875 4013 500 3803 
L 500 4441 
Q 881 4594 1212 4672 
Q 1544 4750 1819 4750 
Q 2544 4750 2975 4387 
Q 3406 4025 3406 3419 
Q 3406 3131 3298 2873 
Q 3191 2616 2906 2266 
Q 2828 2175 2409 1742 
Q 1991 1309 1228 531 
z
" transform="scale(0.015625)"/>
       </defs>
       <use xlink:href="#DejaVuSans-31"/>
       <use xlink:href="#DejaVuSans-32" transform="translate(63.623047 0)"/>
       <use xlink:href="#DejaVuSans-35" transform="translate(127.246094 0)"/>
      </g>
     </g>
    </g>
    <g id="xtick_5">
     <g id="line2d_9">
      <path d="M 603.324733 228.954713 
L 603.324733 17.061433 
" clip-path="url(#p0f6d22d4fe)" style="fill: none; stroke: #eef2f7; stroke-width: 0.55; stroke-linecap: square"/>
     </g>
     <g id="line2d_10">
      <g>
       <use xlink:href="#mb0977c09cc" x="603.324733" y="228.954713" style="stroke: #000000; stroke-width: 0.8"/>
      </g>
     </g>
     <g id="text_5">
      <!-- 150 -->
      <g transform="translate(594.735358 242.793307) scale(0.09 -0.09)">
       <use xlink:href="#DejaVuSans-31"/>
       <use xlink:href="#DejaVuSans-35" transform="translate(63.623047 0)"/>
       <use xlink:href="#DejaVuSans-30" transform="translate(127.246094 0)"/>
      </g>
     </g>
    </g>
    <g id="xtick_6">
     <g id="line2d_11">
      <path d="M 726.312893 228.954713 
L 726.312893 17.061433 
" clip-path="url(#p0f6d22d4fe)" style="fill: none; stroke: #eef2f7; stroke-width: 0.55; stroke-linecap: square"/>
     </g>
     <g id="line2d_12">
      <g>
       <use xlink:href="#mb0977c09cc" x="726.312893" y="228.954713" style="stroke: #000000; stroke-width: 0.8"/>
      </g>
     </g>
     <g id="text_6">
      <!-- 175 -->
      <g transform="translate(717.723518 242.793307) scale(0.09 -0.09)">
       <use xlink:href="#DejaVuSans-31"/>
       <use xlink:href="#DejaVuSans-37" transform="translate(63.623047 0)"/>
       <use xlink:href="#DejaVuSans-35" transform="translate(127.246094 0)"/>
      </g>
     </g>
    </g>
    <g id="xtick_7">
     <g id="line2d_13">
      <path d="M 849.301053 228.954713 
L 849.301053 17.061433 
" clip-path="url(#p0f6d22d4fe)" style="fill: none; stroke: #eef2f7; stroke-width: 0.55; stroke-linecap: square"/>
     </g>
     <g id="line2d_14">
      <g>
       <use xlink:href="#mb0977c09cc" x="849.301053" y="228.954713" style="stroke: #000000; stroke-width: 0.8"/>
      </g>
     </g>
     <g id="text_7">
      <!-- 200 -->
      <g transform="translate(840.711678 242.793307) scale(0.09 -0.09)">
       <use xlink:href="#DejaVuSans-32"/>
       <use xlink:href="#DejaVuSans-30" transform="translate(63.623047 0)"/>
       <use xlink:href="#DejaVuSans-30" transform="translate(127.246094 0)"/>
      </g>
     </g>
    </g>
    <g id="text_8">
     <!-- Minutes since session start -->
     <g transform="translate(422.585781 256.263463) scale(0.1 -0.1)">
      <defs>
       <path id="DejaVuSans-4d" d="M 628 4666 
L 1569 4666 
L 2759 1491 
L 3956 4666 
L 4897 4666 
L 4897 0 
L 4281 0 
L 4281 4097 
L 3078 897 
L 2444 897 
L 1241 4097 
L 1241 0 
L 628 0 
L 628 4666 
z
" transform="scale(0.015625)"/>
       <path id="DejaVuSans-69" d="M 603 3500 
L 1178 3500 
L 1178 0 
L 603 0 
L 603 3500 
z
M 603 4863 
L 1178 4863 
L 1178 4134 
L 603 4134 
L 603 4863 
z
" transform="scale(0.015625)"/>
       <path id="DejaVuSans-6e" d="M 3513 2113 
L 3513 0 
L 2938 0 
L 2938 2094 
Q 2938 2591 2744 2837 
Q 2550 3084 2163 3084 
Q 1697 3084 1428 2787 
Q 1159 2491 1159 1978 
L 1159 0 
L 581 0 
L 581 3500 
L 1159 3500 
L 1159 2956 
Q 1366 3272 1645 3428 
Q 1925 3584 2291 3584 
Q 2894 3584 3203 3211 
Q 3513 2838 3513 2113 
z
" transform="scale(0.015625)"/>
       <path id="DejaVuSans-75" d="M 544 1381 
L 544 3500 
L 1119 3500 
L 1119 1403 
Q 1119 906 1312 657 
Q 1506 409 1894 409 
Q 2359 409 2629 706 
Q 2900 1003 2900 1516 
L 2900 3500 
L 3475 3500 
L 3475 0 
L 2900 0 
L 2900 538 
Q 2691 219 2414 64 
Q 2138 -91 1772 -91 
Q 1169 -91 856 284 
Q 544 659 544 1381 
z
M 1991 3584 
L 1991 3584 
z
" transform="scale(0.015625)"/>
       <path id="DejaVuSans-74" d="M 1172 4494 
L 1172 3500 
L 2356 3500 
L 2356 3053 
L 1172 3053 
L 1172 1153 
Q 1172 725 1289 603 
Q 1406 481 1766 481 
L 2356 481 
L 2356 0 
L 1766 0 
Q 1100 0 847 248 
Q 594 497 594 1153 
L 594 3053 
L 172 3053 
L 172 3500 
L 594 3500 
L 594 4494 
L 1172 4494 
z
" transform="scale(0.015625)"/>
       <path id="DejaVuSans-65" d="M 3597 1894 
L 3597 1613 
L 953 1613 
Q 991 1019 1311 708 
Q 1631 397 2203 397 
Q 2534 397 2845 478 
Q 3156 559 3463 722 
L 3463 178 
Q 3153 47 2828 -22 
Q 2503 -91 2169 -91 
Q 1331 -91 842 396 
Q 353 884 353 1716 
Q 353 2575 817 3079 
Q 1281 3584 2069 3584 
Q 2775 3584 3186 3129 
Q 3597 2675 3597 1894 
z
M 3022 2063 
Q 3016 2534 2758 2815 
Q 2500 3097 2075 3097 
Q 1594 3097 1305 2825 
Q 1016 2553 972 2059 
L 3022 2063 
z
" transform="scale(0.015625)"/>
       <path id="DejaVuSans-73" d="M 2834 3397 
L 2834 2853 
Q 2591 2978 2328 3040 
Q 2066 3103 1784 3103 
Q 1356 3103 1142 2972 
Q 928 2841 928 2578 
Q 928 2378 1081 2264 
Q 1234 2150 1697 2047 
L 1894 2003 
Q 2506 1872 2764 1633 
Q 3022 1394 3022 966 
Q 3022 478 2636 193 
Q 2250 -91 1575 -91 
Q 1294 -91 989 -36 
Q 684 19 347 128 
L 347 722 
Q 666 556 975 473 
Q 1284 391 1588 391 
Q 1994 391 2212 530 
Q 2431 669 2431 922 
Q 2431 1156 2273 1281 
Q 2116 1406 1581 1522 
L 1381 1569 
Q 847 1681 609 1914 
Q 372 2147 372 2553 
Q 372 3047 722 3315 
Q 1072 3584 1716 3584 
Q 2034 3584 2315 3537 
Q 2597 3491 2834 3397 
z
" transform="scale(0.015625)"/>
       <path id="DejaVuSans-20" transform="scale(0.015625)"/>
       <path id="DejaVuSans-63" d="M 3122 3366 
L 3122 2828 
Q 2878 2963 2633 3030 
Q 2388 3097 2138 3097 
Q 1578 3097 1268 2742 
Q 959 2388 959 1747 
Q 959 1106 1268 751 
Q 1578 397 2138 397 
Q 2388 397 2633 464 
Q 2878 531 3122 666 
L 3122 134 
Q 2881 22 2623 -34 
Q 2366 -91 2075 -91 
Q 1284 -91 818 406 
Q 353 903 353 1747 
Q 353 2603 823 3093 
Q 1294 3584 2113 3584 
Q 2378 3584 2631 3529 
Q 2884 3475 3122 3366 
z
" transform="scale(0.015625)"/>
       <path id="DejaVuSans-6f" d="M 1959 3097 
Q 1497 3097 1228 2736 
Q 959 2375 959 1747 
Q 959 1119 1226 758 
Q 1494 397 1959 397 
Q 2419 397 2687 759 
Q 2956 1122 2956 1747 
Q 2956 2369 2687 2733 
Q 2419 3097 1959 3097 
z
M 1959 3584 
Q 2709 3584 3137 3096 
Q 3566 2609 3566 1747 
Q 3566 888 3137 398 
Q 2709 -91 1959 -91 
Q 1206 -91 779 398 
Q 353 888 353 1747 
Q 353 2609 779 3096 
Q 1206 3584 1959 3584 
z
" transform="scale(0.015625)"/>
       <path id="DejaVuSans-61" d="M 2194 1759 
Q 1497 1759 1228 1600 
Q 959 1441 959 1056 
Q 959 750 1161 570 
Q 1363 391 1709 391 
Q 2188 391 2477 730 
Q 2766 1069 2766 1631 
L 2766 1759 
L 2194 1759 
z
M 3341 1997 
L 3341 0 
L 2766 0 
L 2766 531 
Q 2569 213 2275 61 
Q 1981 -91 1556 -91 
Q 1019 -91 701 211 
Q 384 513 384 1019 
Q 384 1609 779 1909 
Q 1175 2209 1959 2209 
L 2766 2209 
L 2766 2266 
Q 2766 2663 2505 2880 
Q 2244 3097 1772 3097 
Q 1472 3097 1187 3025 
Q 903 2953 641 2809 
L 641 3341 
Q 956 3463 1253 3523 
Q 1550 3584 1831 3584 
Q 2591 3584 2966 3190 
Q 3341 2797 3341 1997 
z
" transform="scale(0.015625)"/>
       <path id="DejaVuSans-72" d="M 2631 2963 
Q 2534 3019 2420 3045 
Q 2306 3072 2169 3072 
Q 1681 3072 1420 2755 
Q 1159 2438 1159 1844 
L 1159 0 
L 581 0 
L 581 3500 
L 1159 3500 
L 1159 2956 
Q 1341 3275 1631 3429 
Q 1922 3584 2338 3584 
Q 2397 3584 2469 3576 
Q 2541 3569 2628 3553 
L 2631 2963 
z
" transform="scale(0.015625)"/>
      </defs>
      <use xlink:href="#DejaVuSans-4d"/>
      <use xlink:href="#DejaVuSans-69" transform="translate(86.279297 0)"/>
      <use xlink:href="#DejaVuSans-6e" transform="translate(114.0625 0)"/>
      <use xlink:href="#DejaVuSans-75" transform="translate(177.441406 0)"/>
      <use xlink:href="#DejaVuSans-74" transform="translate(240.820312 0)"/>
      <use xlink:href="#DejaVuSans-65" transform="translate(280.029297 0)"/>
      <use xlink:href="#DejaVuSans-73" transform="translate(341.552734 0)"/>
      <use xlink:href="#DejaVuSans-20" transform="translate(393.652344 0)"/>
      <use xlink:href="#DejaVuSans-73" transform="translate(425.439453 0)"/>
      <use xlink:href="#DejaVuSans-69" transform="translate(477.539062 0)"/>
      <use xlink:href="#DejaVuSans-6e" transform="translate(505.322266 0)"/>
      <use xlink:href="#DejaVuSans-63" transform="translate(568.701172 0)"/>
      <use xlink:href="#DejaVuSans-65" transform="translate(623.681641 0)"/>
      <use xlink:href="#DejaVuSans-20" transform="translate(685.205078 0)"/>
      <use xlink:href="#DejaVuSans-73" transform="translate(716.992188 0)"/>
      <use xlink:href="#DejaVuSans-65" transform="translate(769.091797 0)"/>
      <use xlink:href="#DejaVuSans-73" transform="translate(830.615234 0)"/>
      <use xlink:href="#DejaVuSans-73" transform="translate(882.714844 0)"/>
      <use xlink:href="#DejaVuSans-69" transform="translate(934.814453 0)"/>
      <use xlink:href="#DejaVuSans-6f" transform="translate(962.597656 0)"/>
      <use xlink:href="#DejaVuSans-6e" transform="translate(1023.779297 0)"/>
      <use xlink:href="#DejaVuSans-20" transform="translate(1087.158203 0)"/>
      <use xlink:href="#DejaVuSans-73" transform="translate(1118.945312 0)"/>
      <use xlink:href="#DejaVuSans-74" transform="translate(1171.044922 0)"/>
      <use xlink:href="#DejaVuSans-61" transform="translate(1210.253906 0)"/>
      <use xlink:href="#DejaVuSans-72" transform="translate(1271.533203 0)"/>
      <use xlink:href="#DejaVuSans-74" transform="translate(1312.646484 0)"/>
     </g>
    </g>
   </g>
   <g id="matplotlib.axis_2">
    <g id="ytick_1">
     <g id="line2d_15">
      <path d="M 45.056875 219.515302 
L 935.294375 219.515302 
" clip-path="url(#p0f6d22d4fe)" style="fill: none; stroke: #eef2f7; stroke-opacity: 0.25; stroke-width: 0.55; stroke-linecap: square"/>
     </g>
     <g id="line2d_16">
      <defs>
       <path id="me08cb6d68a" d="M 0 0 
L -3.5 0 
" style="stroke: #000000; stroke-width: 0.8"/>
      </defs>
      <g>
       <use xlink:href="#me08cb6d68a" x="45.056875" y="219.515302" style="stroke: #000000; stroke-width: 0.8"/>
      </g>
     </g>
     <g id="text_9">
      <!-- 0 -->
      <g transform="translate(32.330625 222.934599) scale(0.09 -0.09)">
       <use xlink:href="#DejaVuSans-30"/>
      </g>
     </g>
    </g>
    <g id="ytick_2">
     <g id="line2d_17">
      <path d="M 45.056875 195.502555 
L 935.294375 195.502555 
" clip-path="url(#p0f6d22d4fe)" style="fill: none; stroke: #eef2f7; stroke-opacity: 0.25; stroke-width: 0.55; stroke-linecap: square"/>
     </g>
     <g id="line2d_18">
      <g>
       <use xlink:href="#me08cb6d68a" x="45.056875" y="195.502555" style="stroke: #000000; stroke-width: 0.8"/>
      </g>
     </g>
     <g id="text_10">
      <!-- 100 -->
      <g transform="translate(20.878125 198.921852) scale(0.09 -0.09)">
       <use xlink:href="#DejaVuSans-31"/>
       <use xlink:href="#DejaVuSans-30" transform="translate(63.623047 0)"/>
       <use xlink:href="#DejaVuSans-30" transform="translate(127.246094 0)"/>
      </g>
     </g>
    </g>
    <g id="ytick_3">
     <g id="line2d_19">
      <path d="M 45.056875 171.489809 
L 935.294375 171.489809 
" clip-path="url(#p0f6d22d4fe)" style="fill: none; stroke: #eef2f7; stroke-opacity: 0.25; stroke-width: 0.55; stroke-linecap: square"/>
     </g>
     <g id="line2d_20">
      <g>
       <use xlink:href="#me08cb6d68a" x="45.056875" y="171.489809" style="stroke: #000000; stroke-width: 0.8"/>
      </g>
     </g>
     <g id="text_11">
      <!-- 200 -->
      <g transform="translate(20.878125 174.909105) scale(0.09 -0.09)">
       <use xlink:href="#DejaVuSans-32"/>
       <use xlink:href="#DejaVuSans-30" transform="translate(63.623047 0)"/>
       <use xlink:href="#DejaVuSans-30" transform="translate(127.246094 0)"/>
      </g>
     </g>
    </g>
    <g id="ytick_4">
     <g id="line2d_21">
      <path d="M 45.056875 147.477062 
L 935.294375 147.477062 
" clip-path="url(#p0f6d22d4fe)" style="fill: none; stroke: #eef2f7; stroke-opacity: 0.25; stroke-width: 0.55; stroke-linecap: square"/>
     </g>
     <g id="line2d_22">
      <g>
       <use xlink:href="#me08cb6d68a" x="45.056875" y="147.477062" style="stroke: #000000; stroke-width: 0.8"/>
      </g>
     </g>
     <g id="text_12">
      <!-- 300 -->
      <g transform="translate(20.878125 150.896359) scale(0.09 -0.09)">
       <defs>
        <path id="DejaVuSans-33" d="M 2597 2516 
Q 3050 2419 3304 2112 
Q 3559 1806 3559 1356 
Q 3559 666 3084 287 
Q 2609 -91 1734 -91 
Q 1441 -91 1130 -33 
Q 819 25 488 141 
L 488 750 
Q 750 597 1062 519 
Q 1375 441 1716 441 
Q 2309 441 2620 675 
Q 2931 909 2931 1356 
Q 2931 1769 2642 2001 
Q 2353 2234 1838 2234 
L 1294 2234 
L 1294 2753 
L 1863 2753 
Q 2328 2753 2575 2939 
Q 2822 3125 2822 3475 
Q 2822 3834 2567 4026 
Q 2313 4219 1838 4219 
Q 1578 4219 1281 4162 
Q 984 4106 628 3988 
L 628 4550 
Q 988 4650 1302 4700 
Q 1616 4750 1894 4750 
Q 2613 4750 3031 4423 
Q 3450 4097 3450 3541 
Q 3450 3153 3228 2886 
Q 3006 2619 2597 2516 
z
" transform="scale(0.015625)"/>
       </defs>
       <use xlink:href="#DejaVuSans-33"/>
       <use xlink:href="#DejaVuSans-30" transform="translate(63.623047 0)"/>
       <use xlink:href="#DejaVuSans-30" transform="translate(127.246094 0)"/>
      </g>
     </g>
    </g>
    <g id="ytick_5">
     <g id="line2d_23">
      <path d="M 45.056875 123.464315 
L 935.294375 123.464315 
" clip-path="url(#p0f6d22d4fe)" style="fill: none; stroke: #eef2f7; stroke-opacity: 0.25; stroke-width: 0.55; stroke-linecap: square"/>
     </g>
     <g id="line2d_24">
      <g>
       <use xlink:href="#me08cb6d68a" x="45.056875" y="123.464315" style="stroke: #000000; stroke-width: 0.8"/>
      </g>
     </g>
     <g id="text_13">
      <!-- 400 -->
      <g transform="translate(20.878125 126.883612) scale(0.09 -0.09)">
       <defs>
        <path id="DejaVuSans-34" d="M 2419 4116 
L 825 1625 
L 2419 1625 
L 2419 4116 
z
M 2253 4666 
L 3047 4666 
L 3047 1625 
L 3713 1625 
L 3713 1100 
L 3047 1100 
L 3047 0 
L 2419 0 
L 2419 1100 
L 313 1100 
L 313 1709 
L 2253 4666 
z
" transform="scale(0.015625)"/>
       </defs>
       <use xlink:href="#DejaVuSans-34"/>
       <use xlink:href="#DejaVuSans-30" transform="translate(63.623047 0)"/>
       <use xlink:href="#DejaVuSans-30" transform="translate(127.246094 0)"/>
      </g>
     </g>
    </g>
    <g id="ytick_6">
     <g id="line2d_25">
      <path d="M 45.056875 99.451568 
L 935.294375 99.451568 
" clip-path="url(#p0f6d22d4fe)" style="fill: none; stroke: #eef2f7; stroke-opacity: 0.25; stroke-width: 0.55; stroke-linecap: square"/>
     </g>
     <g id="line2d_26">
      <g>
       <use xlink:href="#me08cb6d68a" x="45.056875" y="99.451568" style="stroke: #000000; stroke-width: 0.8"/>
      </g>
     </g>
     <g id="text_14">
      <!-- 500 -->
      <g transform="translate(20.878125 102.870865) scale(0.09 -0.09)">
       <use xlink:href="#DejaVuSans-35"/>
       <use xlink:href="#DejaVuSans-30" transform="translate(63.623047 0)"/>
       <use xlink:href="#DejaVuSans-30" transform="translate(127.246094 0)"/>
      </g>
     </g>
    </g>
    <g id="ytick_7">
     <g id="line2d_27">
      <path d="M 45.056875 75.438821 
L 935.294375 75.438821 
" clip-path="url(#p0f6d22d4fe)" style="fill: none; stroke: #eef2f7; stroke-opacity: 0.25; stroke-width: 0.55; stroke-linecap: square"/>
     </g>
     <g id="line2d_28">
      <g>
       <use xlink:href="#me08cb6d68a" x="45.056875" y="75.438821" style="stroke: #000000; stroke-width: 0.8"/>
      </g>
     </g>
     <g id="text_15">
      <!-- 600 -->
      <g transform="translate(20.878125 78.858118) scale(0.09 -0.09)">
       <defs>
        <path id="DejaVuSans-36" d="M 2113 2584 
Q 1688 2584 1439 2293 
Q 1191 2003 1191 1497 
Q 1191 994 1439 701 
Q 1688 409 2113 409 
Q 2538 409 2786 701 
Q 3034 994 3034 1497 
Q 3034 2003 2786 2293 
Q 2538 2584 2113 2584 
z
M 3366 4563 
L 3366 3988 
Q 3128 4100 2886 4159 
Q 2644 4219 2406 4219 
Q 1781 4219 1451 3797 
Q 1122 3375 1075 2522 
Q 1259 2794 1537 2939 
Q 1816 3084 2150 3084 
Q 2853 3084 3261 2657 
Q 3669 2231 3669 1497 
Q 3669 778 3244 343 
Q 2819 -91 2113 -91 
Q 1303 -91 875 529 
Q 447 1150 447 2328 
Q 447 3434 972 4092 
Q 1497 4750 2381 4750 
Q 2619 4750 2861 4703 
Q 3103 4656 3366 4563 
z
" transform="scale(0.015625)"/>
       </defs>
       <use xlink:href="#DejaVuSans-36"/>
       <use xlink:href="#DejaVuSans-30" transform="translate(63.623047 0)"/>
       <use xlink:href="#DejaVuSans-30" transform="translate(127.246094 0)"/>
      </g>
     </g>
    </g>
    <g id="ytick_8">
     <g id="line2d_29">
      <path d="M 45.056875 51.426075 
L 935.294375 51.426075 
" clip-path="url(#p0f6d22d4fe)" style="fill: none; stroke: #eef2f7; stroke-opacity: 0.25; stroke-width: 0.55; stroke-linecap: square"/>
     </g>
     <g id="line2d_30">
      <g>
       <use xlink:href="#me08cb6d68a" x="45.056875" y="51.426075" style="stroke: #000000; stroke-width: 0.8"/>
      </g>
     </g>
     <g id="text_16">
      <!-- 700 -->
      <g transform="translate(20.878125 54.845372) scale(0.09 -0.09)">
       <use xlink:href="#DejaVuSans-37"/>
       <use xlink:href="#DejaVuSans-30" transform="translate(63.623047 0)"/>
       <use xlink:href="#DejaVuSans-30" transform="translate(127.246094 0)"/>
      </g>
     </g>
    </g>
    <g id="ytick_9">
     <g id="line2d_31">
      <path d="M 45.056875 27.413328 
L 935.294375 27.413328 
" clip-path="url(#p0f6d22d4fe)" style="fill: none; stroke: #eef2f7; stroke-opacity: 0.25; stroke-width: 0.55; stroke-linecap: square"/>
     </g>
     <g id="line2d_32">
      <g>
       <use xlink:href="#me08cb6d68a" x="45.056875" y="27.413328" style="stroke: #000000; stroke-width: 0.8"/>
      </g>
     </g>
     <g id="text_17">
      <!-- 800 -->
      <g transform="translate(20.878125 30.832625) scale(0.09 -0.09)">
       <defs>
        <path id="DejaVuSans-38" d="M 2034 2216 
Q 1584 2216 1326 1975 
Q 1069 1734 1069 1313 
Q 1069 891 1326 650 
Q 1584 409 2034 409 
Q 2484 409 2743 651 
Q 3003 894 3003 1313 
Q 3003 1734 2745 1975 
Q 2488 2216 2034 2216 
z
M 1403 2484 
Q 997 2584 770 2862 
Q 544 3141 544 3541 
Q 544 4100 942 4425 
Q 1341 4750 2034 4750 
Q 2731 4750 3128 4425 
Q 3525 4100 3525 3541 
Q 3525 3141 3298 2862 
Q 3072 2584 2669 2484 
Q 3125 2378 3379 2068 
Q 3634 1759 3634 1313 
Q 3634 634 3220 271 
Q 2806 -91 2034 -91 
Q 1263 -91 848 271 
Q 434 634 434 1313 
Q 434 1759 690 2068 
Q 947 2378 1403 2484 
z
M 1172 3481 
Q 1172 3119 1398 2916 
Q 1625 2713 2034 2713 
Q 2441 2713 2670 2916 
Q 2900 3119 2900 3481 
Q 2900 3844 2670 4047 
Q 2441 4250 2034 4250 
Q 1625 4250 1398 4047 
Q 1172 3844 1172 3481 
z
" transform="scale(0.015625)"/>
       </defs>
       <use xlink:href="#DejaVuSans-38"/>
       <use xlink:href="#DejaVuSans-30" transform="translate(63.623047 0)"/>
       <use xlink:href="#DejaVuSans-30" transform="translate(127.246094 0)"/>
      </g>
     </g>
    </g>
    <g id="text_18">
     <!-- Raw ambient value -->
     <g transform="translate(14.798438 171.061979) rotate(-90) scale(0.1 -0.1)">
      <defs>
       <path id="DejaVuSans-52" d="M 2841 2188 
Q 3044 2119 3236 1894 
Q 3428 1669 3622 1275 
L 4263 0 
L 3584 0 
L 2988 1197 
Q 2756 1666 2539 1819 
Q 2322 1972 1947 1972 
L 1259 1972 
L 1259 0 
L 628 0 
L 628 4666 
L 2053 4666 
Q 2853 4666 3247 4331 
Q 3641 3997 3641 3322 
Q 3641 2881 3436 2590 
Q 3231 2300 2841 2188 
z
M 1259 4147 
L 1259 2491 
L 2053 2491 
Q 2509 2491 2742 2702 
Q 2975 2913 2975 3322 
Q 2975 3731 2742 3939 
Q 2509 4147 2053 4147 
L 1259 4147 
z
" transform="scale(0.015625)"/>
       <path id="DejaVuSans-77" d="M 269 3500 
L 844 3500 
L 1563 769 
L 2278 3500 
L 2956 3500 
L 3675 769 
L 4391 3500 
L 4966 3500 
L 4050 0 
L 3372 0 
L 2619 2869 
L 1863 0 
L 1184 0 
L 269 3500 
z
" transform="scale(0.015625)"/>
       <path id="DejaVuSans-6d" d="M 3328 2828 
Q 3544 3216 3844 3400 
Q 4144 3584 4550 3584 
Q 5097 3584 5394 3201 
Q 5691 2819 5691 2113 
L 5691 0 
L 5113 0 
L 5113 2094 
Q 5113 2597 4934 2840 
Q 4756 3084 4391 3084 
Q 3944 3084 3684 2787 
Q 3425 2491 3425 1978 
L 3425 0 
L 2847 0 
L 2847 2094 
Q 2847 2600 2669 2842 
Q 2491 3084 2119 3084 
Q 1678 3084 1418 2786 
Q 1159 2488 1159 1978 
L 1159 0 
L 581 0 
L 581 3500 
L 1159 3500 
L 1159 2956 
Q 1356 3278 1631 3431 
Q 1906 3584 2284 3584 
Q 2666 3584 2933 3390 
Q 3200 3197 3328 2828 
z
" transform="scale(0.015625)"/>
       <path id="DejaVuSans-62" d="M 3116 1747 
Q 3116 2381 2855 2742 
Q 2594 3103 2138 3103 
Q 1681 3103 1420 2742 
Q 1159 2381 1159 1747 
Q 1159 1113 1420 752 
Q 1681 391 2138 391 
Q 2594 391 2855 752 
Q 3116 1113 3116 1747 
z
M 1159 2969 
Q 1341 3281 1617 3432 
Q 1894 3584 2278 3584 
Q 2916 3584 3314 3078 
Q 3713 2572 3713 1747 
Q 3713 922 3314 415 
Q 2916 -91 2278 -91 
Q 1894 -91 1617 61 
Q 1341 213 1159 525 
L 1159 0 
L 581 0 
L 581 4863 
L 1159 4863 
L 1159 2969 
z
" transform="scale(0.015625)"/>
       <path id="DejaVuSans-76" d="M 191 3500 
L 800 3500 
L 1894 563 
L 2988 3500 
L 3597 3500 
L 2284 0 
L 1503 0 
L 191 3500 
z
" transform="scale(0.015625)"/>
       <path id="DejaVuSans-6c" d="M 603 4863 
L 1178 4863 
L 1178 0 
L 603 0 
L 603 4863 
z
" transform="scale(0.015625)"/>
      </defs>
      <use xlink:href="#DejaVuSans-52"/>
      <use xlink:href="#DejaVuSans-61" transform="translate(67.232422 0)"/>
      <use xlink:href="#DejaVuSans-77" transform="translate(128.511719 0)"/>
      <use xlink:href="#DejaVuSans-20" transform="translate(210.298828 0)"/>
      <use xlink:href="#DejaVuSans-61" transform="translate(242.085938 0)"/>
      <use xlink:href="#DejaVuSans-6d" transform="translate(303.365234 0)"/>
      <use xlink:href="#DejaVuSans-62" transform="translate(400.777344 0)"/>
      <use xlink:href="#DejaVuSans-69" transform="translate(464.253906 0)"/>
      <use xlink:href="#DejaVuSans-65" transform="translate(492.037109 0)"/>
      <use xlink:href="#DejaVuSans-6e" transform="translate(553.560547 0)"/>
      <use xlink:href="#DejaVuSans-74" transform="translate(616.939453 0)"/>
      <use xlink:href="#DejaVuSans-20" transform="translate(656.148438 0)"/>
      <use xlink:href="#DejaVuSans-76" transform="translate(687.935547 0)"/>
      <use xlink:href="#DejaVuSans-61" transform="translate(747.115234 0)"/>
      <use xlink:href="#DejaVuSans-6c" transform="translate(808.394531 0)"/>
      <use xlink:href="#DejaVuSans-75" transform="translate(836.177734 0)"/>
      <use xlink:href="#DejaVuSans-65" transform="translate(899.556641 0)"/>
     </g>
    </g>
   </g>
   <g id="line2d_33">
    <path d="M 62.176827 212.911797 
L 214.682146 212.839758 
L 229.440725 212.743707 
L 239.279778 212.76772 
L 244.199304 212.743707 
L 249.118831 212.863771 
L 263.87741 212.863771 
L 313.072674 213.007848 
L 337.670306 212.983835 
L 345.049596 212.911797 
L 347.509359 212.959822 
L 352.428885 212.935809 
L 357.348412 213.03186 
L 381.946044 212.959822 
L 396.704623 213.007848 
L 401.62415 212.911797 
L 416.382729 212.983835 
L 421.302255 212.887784 
L 431.141308 212.959822 
L 455.73894 212.983835 
L 465.577993 213.03186 
L 490.175625 213.055873 
L 534.451363 212.863771 
L 549.209942 213.03186 
L 598.405206 213.03186 
L 608.244259 212.863771 
L 618.083312 213.03186 
L 623.002838 212.959822 
L 627.922365 213.007848 
L 632.841891 212.935809 
L 652.519997 213.079886 
L 677.117629 213.007848 
L 686.956682 213.03186 
L 711.554314 212.959822 
L 731.232419 213.055873 
L 745.990999 213.055873 
L 765.669104 213.079886 
L 780.427683 213.03186 
L 800.105789 213.055873 
L 805.025316 212.983835 
L 819.783895 213.079886 
L 844.381527 213.055873 
L 873.898685 213.007848 
L 878.818212 212.935809 
L 888.657265 212.983835 
L 903.415844 213.079886 
L 918.174423 213.055873 
L 918.174423 213.055873 
" clip-path="url(#p0f6d22d4fe)" style="fill: none; stroke: #2563eb; stroke-opacity: 0.95; stroke-width: 0.936; stroke-linecap: square"/>
   </g>
   <g id="line2d_34">
    <path d="M 62.176827 216.153517 
L 170.406408 217.83441 
L 175.325934 218.314665 
L 180.245461 173.170701 
L 185.164987 122.503805 
L 195.00404 122.503805 
L 204.843093 122.98406 
L 209.762619 122.743933 
L 214.682146 168.848406 
L 219.601672 123.224188 
L 224.521199 122.98406 
L 229.440725 122.98406 
L 234.360251 122.743933 
L 239.279778 122.98406 
L 244.199304 123.704442 
L 249.118831 122.98406 
L 254.038357 122.743933 
L 258.957884 26.692946 
L 263.87741 27.653455 
L 268.796936 26.933073 
L 278.635989 27.893583 
L 283.555516 27.893583 
L 293.394568 28.854093 
L 298.314095 28.373838 
L 308.153148 28.373838 
L 313.072674 28.613965 
L 317.9922 28.373838 
L 322.911727 28.613965 
L 327.831253 28.613965 
L 332.75078 28.373838 
L 337.670306 28.373838 
L 342.589833 29.09422 
L 345.049596 28.854093 
L 347.509359 28.854093 
L 352.428885 28.613965 
L 357.348412 29.334348 
L 362.267938 29.574475 
L 367.187465 29.574475 
L 372.106991 28.613965 
L 377.026517 29.574475 
L 381.946044 28.613965 
L 386.86557 29.09422 
L 391.785097 28.613965 
L 396.704623 28.373838 
L 401.62415 28.613965 
L 406.543676 30.05473 
L 411.463202 28.854093 
L 416.382729 29.574475 
L 421.302255 29.814603 
L 426.221782 29.09422 
L 431.141308 28.854093 
L 436.060834 28.854093 
L 440.980361 28.613965 
L 445.899887 28.854093 
L 450.819414 28.613965 
L 455.73894 28.854093 
L 460.658467 43.021613 
L 465.577993 28.613965 
L 470.497519 28.854093 
L 475.417046 29.334348 
L 480.336572 30.294858 
L 485.256099 29.334348 
L 490.175625 28.854093 
L 495.095151 28.854093 
L 500.014678 29.09422 
L 509.853731 28.613965 
L 514.773257 29.09422 
L 519.692783 32.696132 
L 524.61231 28.854093 
L 529.531836 28.13371 
L 559.048995 28.13371 
L 563.968521 28.373838 
L 573.807574 30.294858 
L 588.566153 28.854093 
L 593.48568 28.854093 
L 598.405206 28.613965 
L 603.324733 28.613965 
L 608.244259 29.334348 
L 613.163785 28.613965 
L 618.083312 28.613965 
L 623.002838 29.334348 
L 627.922365 29.334348 
L 632.841891 31.255367 
L 637.761417 28.373838 
L 647.60047 27.893583 
L 657.439523 27.893583 
L 662.35905 29.574475 
L 667.278576 90.566852 
L 672.198102 28.613965 
L 677.117629 28.613965 
L 682.037155 29.09422 
L 686.956682 29.09422 
L 691.876208 28.13371 
L 696.795734 28.854093 
L 701.715261 28.854093 
L 706.634787 28.613965 
L 711.554314 28.854093 
L 716.47384 29.334348 
L 721.393366 28.854093 
L 726.312893 29.09422 
L 731.232419 29.09422 
L 736.151946 28.613965 
L 741.071472 29.814603 
L 745.990999 29.09422 
L 750.910525 27.893583 
L 755.830051 27.893583 
L 760.749578 28.13371 
L 765.669104 98.250931 
L 770.588631 31.01524 
L 775.508157 29.814603 
L 780.427683 29.09422 
L 785.34721 28.854093 
L 790.266736 29.334348 
L 795.186263 28.854093 
L 800.105789 29.334348 
L 805.025316 28.854093 
L 809.944842 31.97575 
L 814.864368 41.820976 
L 819.783895 28.854093 
L 824.703421 28.613965 
L 829.622948 28.13371 
L 834.542474 28.854093 
L 844.381527 30.534985 
L 849.301053 28.854093 
L 854.22058 30.775112 
L 859.140106 28.854093 
L 868.979159 28.854093 
L 873.898685 30.294858 
L 878.818212 32.215877 
L 883.737738 27.653455 
L 886.197501 27.893583 
L 888.657265 27.893583 
L 893.576791 28.13371 
L 898.496317 27.653455 
L 903.415844 29.334348 
L 908.33537 29.09422 
L 913.254897 27.893583 
L 918.174423 27.893583 
L 918.174423 27.893583 
" clip-path="url(#p0f6d22d4fe)" style="fill: none; stroke: #f59e0b; stroke-opacity: 0.95; stroke-width: 0.936; stroke-linecap: square"/>
   </g>
   <g id="line2d_35">
    <path d="M 62.176827 207.60498 
L 175.325934 207.364852 
L 180.245461 207.124725 
L 185.164987 207.508929 
L 190.084514 207.653005 
L 204.843093 207.628992 
L 209.762619 207.725043 
L 214.682146 207.653005 
L 219.601672 207.749056 
L 229.440725 207.388865 
L 234.360251 207.412878 
L 239.279778 207.60498 
L 244.199304 205.635934 
L 249.118831 207.556954 
L 258.957884 207.749056 
L 263.87741 207.556954 
L 283.555516 207.556954 
L 303.233621 207.484916 
L 308.153148 207.677018 
L 313.072674 207.17275 
L 317.9922 207.484916 
L 322.911727 207.580967 
L 327.831253 207.797082 
L 332.75078 207.797082 
L 337.670306 207.677018 
L 372.106991 207.773069 
L 377.026517 207.893133 
L 381.946044 207.725043 
L 386.86557 207.244788 
L 391.785097 207.532941 
L 396.704623 207.628992 
L 401.62415 207.124725 
L 406.543676 207.628992 
L 421.302255 207.460903 
L 426.221782 207.556954 
L 431.141308 207.412878 
L 436.060834 207.60498 
L 445.899887 207.653005 
L 450.819414 207.677018 
L 455.73894 207.556954 
L 460.658467 207.677018 
L 465.577993 207.004661 
L 470.497519 207.532941 
L 480.336572 207.653005 
L 485.256099 207.580967 
L 490.175625 206.932623 
L 495.095151 207.412878 
L 500.014678 207.508929 
L 504.934204 207.484916 
L 509.853731 207.268801 
L 514.773257 207.60498 
L 519.692783 207.749056 
L 524.61231 207.508929 
L 529.531836 207.508929 
L 534.451363 207.773069 
L 539.370889 207.701031 
L 544.290416 207.821094 
L 549.209942 207.773069 
L 554.129468 207.556954 
L 583.646627 207.653005 
L 588.566153 206.836572 
L 593.48568 207.052686 
L 598.405206 206.38033 
L 603.324733 207.076699 
L 608.244259 207.653005 
L 613.163785 206.764534 
L 618.083312 206.188228 
L 623.002838 206.452368 
L 627.922365 205.755998 
L 637.761417 206.38033 
L 647.60047 206.284279 
L 657.439523 206.38033 
L 662.35905 207.196763 
L 667.278576 205.972113 
L 672.198102 207.797082 
L 677.117629 206.044151 
L 682.037155 206.188228 
L 686.956682 206.116189 
L 691.876208 206.836572 
L 696.795734 206.788546 
L 706.634787 207.028674 
L 711.554314 206.38033 
L 716.47384 207.556954 
L 721.393366 207.532941 
L 726.312893 206.572432 
L 731.232419 206.788546 
L 736.151946 207.653005 
L 741.071472 207.532941 
L 745.990999 207.556954 
L 750.910525 207.701031 
L 755.830051 207.653005 
L 760.749578 207.725043 
L 765.669104 206.044151 
L 770.588631 207.364852 
L 775.508157 206.476381 
L 780.427683 206.020138 
L 785.34721 206.668483 
L 790.266736 207.076699 
L 795.186263 207.004661 
L 800.105789 205.587909 
L 805.025316 207.749056 
L 809.944842 207.580967 
L 814.864368 207.556954 
L 819.783895 207.388865 
L 824.703421 207.725043 
L 829.622948 207.773069 
L 834.542474 207.580967 
L 849.301053 207.628992 
L 854.22058 207.364852 
L 859.140106 206.236253 
L 864.059633 206.836572 
L 868.979159 205.611922 
L 873.898685 206.884597 
L 878.818212 206.524406 
L 883.737738 206.524406 
L 888.657265 205.900075 
L 893.576791 206.956635 
L 903.415844 206.476381 
L 908.33537 206.884597 
L 913.254897 207.677018 
L 918.174423 207.749056 
L 918.174423 207.749056 
" clip-path="url(#p0f6d22d4fe)" style="fill: none; stroke: #64748b; stroke-opacity: 0.95; stroke-width: 0.936; stroke-linecap: square"/>
   </g>
   <g id="line2d_36">
    <path d="M 62.176827 66.554105 
L 170.406408 53.827349 
L 175.325934 43.021613 
L 180.245461 44.942633 
L 185.164987 48.544545 
L 190.084514 42.541358 
L 195.00404 49.745182 
L 199.923567 53.106967 
L 204.843093 53.106967 
L 209.762619 55.508242 
L 214.682146 56.468752 
L 219.601672 56.228624 
L 224.521199 51.90633 
L 229.440725 49.0248 
L 234.360251 51.426075 
L 239.279778 54.067477 
L 244.199304 45.182761 
L 249.118831 46.623525 
L 254.038357 52.626712 
L 258.957884 58.149644 
L 263.87741 57.429261 
L 268.796936 59.590409 
L 278.635989 62.471938 
L 283.555516 64.633085 
L 293.394568 66.07385 
L 298.314095 66.07385 
L 303.233621 65.833723 
L 308.153148 66.313978 
L 313.072674 67.99487 
L 317.9922 66.554105 
L 322.911727 68.234997 
L 327.831253 67.03436 
L 332.75078 71.356655 
L 337.670306 65.353468 
L 342.589833 60.070664 
L 347.509359 58.629899 
L 352.428885 59.350281 
L 357.348412 67.99487 
L 362.267938 67.514615 
L 367.187465 67.514615 
L 372.106991 66.313978 
L 377.026517 61.271301 
L 381.946044 60.550918 
L 386.86557 67.754742 
L 391.785097 70.396145 
L 396.704623 68.715252 
L 401.62415 62.712066 
L 406.543676 58.629899 
L 411.463202 60.550918 
L 416.382729 68.95538 
L 421.302255 59.830536 
L 426.221782 60.310791 
L 431.141308 61.991683 
L 436.060834 64.873213 
L 440.980361 69.435635 
L 450.819414 70.396145 
L 455.73894 67.514615 
L 460.658467 64.15283 
L 465.577993 68.234997 
L 470.497519 68.475125 
L 475.417046 69.195507 
L 480.336572 70.636272 
L 485.256099 72.557292 
L 490.175625 71.836909 
L 495.095151 67.514615 
L 500.014678 62.952193 
L 504.934204 54.787859 
L 509.853731 55.027987 
L 514.773257 60.791046 
L 519.692783 65.353468 
L 524.61231 63.192321 
L 529.531836 59.110154 
L 534.451363 58.629899 
L 539.370889 59.350281 
L 544.290416 62.231811 
L 549.209942 66.313978 
L 554.129468 69.435635 
L 559.048995 67.514615 
L 563.968521 68.95538 
L 573.807574 69.91589 
L 578.7271 70.636272 
L 583.646627 71.116527 
L 588.566153 70.156017 
L 593.48568 69.435635 
L 598.405206 68.234997 
L 603.324733 67.514615 
L 608.244259 55.748369 
L 613.163785 53.347094 
L 618.083312 66.07385 
L 623.002838 64.392958 
L 627.922365 64.633085 
L 632.841891 60.070664 
L 637.761417 57.669389 
L 642.680944 65.833723 
L 647.60047 66.794233 
L 652.519997 65.833723 
L 657.439523 68.234997 
L 662.35905 71.836909 
L 667.278576 65.833723 
L 672.198102 56.949006 
L 677.117629 64.15283 
L 682.037155 62.952193 
L 686.956682 65.833723 
L 691.876208 61.271301 
L 696.795734 63.672576 
L 701.715261 62.712066 
L 706.634787 64.873213 
L 711.554314 58.389771 
L 716.47384 59.590409 
L 721.393366 61.751556 
L 726.312893 64.15283 
L 731.232419 67.514615 
L 736.151946 63.432448 
L 741.071472 66.794233 
L 745.990999 66.313978 
L 755.830051 70.156017 
L 760.749578 70.636272 
L 765.669104 70.156017 
L 770.588631 70.156017 
L 775.508157 67.99487 
L 780.427683 68.715252 
L 785.34721 68.715252 
L 790.266736 70.636272 
L 795.186263 69.91589 
L 800.105789 70.636272 
L 805.025316 63.672576 
L 809.944842 63.672576 
L 814.864368 66.794233 
L 819.783895 66.313978 
L 824.703421 70.8764 
L 829.622948 70.636272 
L 834.542474 72.077037 
L 844.381527 70.396145 
L 849.301053 70.156017 
L 854.22058 71.596782 
L 859.140106 69.91589 
L 864.059633 70.156017 
L 868.979159 69.195507 
L 878.818212 62.471938 
L 883.737738 67.03436 
L 886.197501 66.07385 
L 888.657265 64.873213 
L 893.576791 68.475125 
L 898.496317 68.234997 
L 903.415844 71.356655 
L 908.33537 72.557292 
L 913.254897 70.156017 
L 918.174423 69.195507 
L 918.174423 69.195507 
" clip-path="url(#p0f6d22d4fe)" style="fill: none; stroke: #0f766e; stroke-opacity: 0.95; stroke-width: 0.936; stroke-linecap: square"/>
   </g>
   <g id="line2d_37">
    <path d="M 62.176827 219.21034 
L 195.00404 219.306391 
L 214.682146 219.260767 
L 234.360251 219.222347 
L 918.174423 219.215143 
L 918.174423 219.215143 
" clip-path="url(#p0f6d22d4fe)" style="fill: none; stroke: #b91c1c; stroke-opacity: 0.95; stroke-width: 0.936; stroke-linecap: square"/>
   </g>
   <g id="patch_23">
    <path d="M 45.056875 228.954713 
L 45.056875 17.061433 
" style="fill: none; stroke: #cbd5e1; stroke-width: 0.8; stroke-linejoin: miter; stroke-linecap: square"/>
   </g>
   <g id="patch_24">
    <path d="M 935.294375 228.954713 
L 935.294375 17.061433 
" style="fill: none; stroke: #cbd5e1; stroke-width: 0.8; stroke-linejoin: miter; stroke-linecap: square"/>
   </g>
   <g id="patch_25">
    <path d="M 45.056875 228.954713 
L 935.294375 228.954713 
" style="fill: none; stroke: #cbd5e1; stroke-width: 0.8; stroke-linejoin: miter; stroke-linecap: square"/>
   </g>
   <g id="patch_26">
    <path d="M 45.056875 17.061433 
L 935.294375 17.061433 
" style="fill: none; stroke: #cbd5e1; stroke-width: 0.8; stroke-linejoin: miter; stroke-linecap: square"/>
   </g>
   <g id="text_19">
    <!-- ACC -->
    <g style="fill: #475569" transform="translate(45.364351 13.27875) scale(0.08 -0.08)">
     <defs>
      <path id="DejaVuSans-41" d="M 2188 4044 
L 1331 1722 
L 3047 1722 
L 2188 4044 
z
M 1831 4666 
L 2547 4666 
L 4325 0 
L 3669 0 
L 3244 1197 
L 1141 1197 
L 716 0 
L 50 0 
L 1831 4666 
z
" transform="scale(0.015625)"/>
      <path id="DejaVuSans-43" d="M 4122 4306 
L 4122 3641 
Q 3803 3938 3442 4084 
Q 3081 4231 2675 4231 
Q 1875 4231 1450 3742 
Q 1025 3253 1025 2328 
Q 1025 1406 1450 917 
Q 1875 428 2675 428 
Q 3081 428 3442 575 
Q 3803 722 4122 1019 
L 4122 359 
Q 3791 134 3420 21 
Q 3050 -91 2638 -91 
Q 1578 -91 968 557 
Q 359 1206 359 2328 
Q 359 3453 968 4101 
Q 1578 4750 2638 4750 
Q 3056 4750 3426 4639 
Q 3797 4528 4122 4306 
z
" transform="scale(0.015625)"/>
     </defs>
     <use xlink:href="#DejaVuSans-41"/>
     <use xlink:href="#DejaVuSans-43" transform="translate(66.658203 0)"/>
     <use xlink:href="#DejaVuSans-43" transform="translate(136.482422 0)"/>
    </g>
   </g>
   <g id="text_20">
    <!-- OC -->
    <g style="fill: #475569" transform="translate(122.648559 13.27875) scale(0.08 -0.08)">
     <defs>
      <path id="DejaVuSans-4f" d="M 2522 4238 
Q 1834 4238 1429 3725 
Q 1025 3213 1025 2328 
Q 1025 1447 1429 934 
Q 1834 422 2522 422 
Q 3209 422 3611 934 
Q 4013 1447 4013 2328 
Q 4013 3213 3611 3725 
Q 3209 4238 2522 4238 
z
M 2522 4750 
Q 3503 4750 4090 4092 
Q 4678 3434 4678 2328 
Q 4678 1225 4090 567 
Q 3503 -91 2522 -91 
Q 1538 -91 948 565 
Q 359 1222 359 2328 
Q 359 3434 948 4092 
Q 1538 4750 2522 4750 
z
" transform="scale(0.015625)"/>
     </defs>
     <use xlink:href="#DejaVuSans-4f"/>
     <use xlink:href="#DejaVuSans-43" transform="translate(78.710938 0)"/>
    </g>
   </g>
   <g id="text_21">
    <!-- FCS -->
    <g style="fill: #475569" transform="translate(202.129494 13.27875) scale(0.08 -0.08)">
     <defs>
      <path id="DejaVuSans-46" d="M 628 4666 
L 3309 4666 
L 3309 4134 
L 1259 4134 
L 1259 2759 
L 3109 2759 
L 3109 2228 
L 1259 2228 
L 1259 0 
L 628 0 
L 628 4666 
z
" transform="scale(0.015625)"/>
      <path id="DejaVuSans-53" d="M 3425 4513 
L 3425 3897 
Q 3066 4069 2747 4153 
Q 2428 4238 2131 4238 
Q 1616 4238 1336 4038 
Q 1056 3838 1056 3469 
Q 1056 3159 1242 3001 
Q 1428 2844 1947 2747 
L 2328 2669 
Q 3034 2534 3370 2195 
Q 3706 1856 3706 1288 
Q 3706 609 3251 259 
Q 2797 -91 1919 -91 
Q 1588 -91 1214 -16 
Q 841 59 441 206 
L 441 856 
Q 825 641 1194 531 
Q 1563 422 1919 422 
Q 2459 422 2753 634 
Q 3047 847 3047 1241 
Q 3047 1584 2836 1778 
Q 2625 1972 2144 2069 
L 1759 2144 
Q 1053 2284 737 2584 
Q 422 2884 422 3419 
Q 422 4038 858 4394 
Q 1294 4750 2059 4750 
Q 2388 4750 2728 4690 
Q 3069 4631 3425 4513 
z
" transform="scale(0.015625)"/>
     </defs>
     <use xlink:href="#DejaVuSans-46"/>
     <use xlink:href="#DejaVuSans-43" transform="translate(57.519531 0)"/>
     <use xlink:href="#DejaVuSans-53" transform="translate(127.34375 0)"/>
    </g>
   </g>
   <g id="text_22">
    <!-- SR -->
    <g style="fill: #475569" transform="translate(238.880554 13.27875) scale(0.08 -0.08)">
     <use xlink:href="#DejaVuSans-53"/>
     <use xlink:href="#DejaVuSans-52" transform="translate(63.476562 0)"/>
    </g>
   </g>
   <g id="text_23">
    <!-- FFC -->
    <g style="fill: #475569" transform="translate(281.080667 13.27875) scale(0.08 -0.08)">
     <use xlink:href="#DejaVuSans-46"/>
     <use xlink:href="#DejaVuSans-46" transform="translate(57.519531 0)"/>
     <use xlink:href="#DejaVuSans-43" transform="translate(115.039062 0)"/>
    </g>
   </g>
   <g id="text_24">
    <!-- SS -->
    <g style="fill: #475569" transform="translate(379.327057 13.27875) scale(0.08 -0.08)">
     <use xlink:href="#DejaVuSans-53"/>
     <use xlink:href="#DejaVuSans-53" transform="translate(63.476562 0)"/>
    </g>
   </g>
   <g id="text_25">
    <!-- OC -->
    <g style="fill: #475569" transform="translate(452.256828 13.27875) scale(0.08 -0.08)">
     <use xlink:href="#DejaVuSans-4f"/>
     <use xlink:href="#DejaVuSans-43" transform="translate(78.710938 0)"/>
    </g>
   </g>
   <g id="text_26">
    <!-- FCS -->
    <g style="fill: #475569" transform="translate(477.622974 13.27875) scale(0.08 -0.08)">
     <use xlink:href="#DejaVuSans-46"/>
     <use xlink:href="#DejaVuSans-43" transform="translate(57.519531 0)"/>
     <use xlink:href="#DejaVuSans-53" transform="translate(127.34375 0)"/>
    </g>
   </g>
   <g id="text_27">
    <!-- SR -->
    <g style="fill: #475569" transform="translate(514.374033 13.27875) scale(0.08 -0.08)">
     <use xlink:href="#DejaVuSans-53"/>
     <use xlink:href="#DejaVuSans-52" transform="translate(63.476562 0)"/>
    </g>
   </g>
   <g id="text_28">
    <!-- FFC -->
    <g style="fill: #475569" transform="translate(556.574146 13.27875) scale(0.08 -0.08)">
     <use xlink:href="#DejaVuSans-46"/>
     <use xlink:href="#DejaVuSans-46" transform="translate(57.519531 0)"/>
     <use xlink:href="#DejaVuSans-43" transform="translate(115.039062 0)"/>
    </g>
   </g>
   <g id="text_29">
    <!-- SS -->
    <g style="fill: #475569" transform="translate(654.820536 13.27875) scale(0.08 -0.08)">
     <use xlink:href="#DejaVuSans-53"/>
     <use xlink:href="#DejaVuSans-53" transform="translate(63.476562 0)"/>
    </g>
   </g>
   <g id="text_30">
    <!-- OC -->
    <g style="fill: #475569" transform="translate(727.750308 13.27875) scale(0.08 -0.08)">
     <use xlink:href="#DejaVuSans-4f"/>
     <use xlink:href="#DejaVuSans-43" transform="translate(78.710938 0)"/>
    </g>
   </g>
   <g id="text_31">
    <!-- FCS -->
    <g style="fill: #475569" transform="translate(753.116453 13.27875) scale(0.08 -0.08)">
     <use xlink:href="#DejaVuSans-46"/>
     <use xlink:href="#DejaVuSans-43" transform="translate(57.519531 0)"/>
     <use xlink:href="#DejaVuSans-53" transform="translate(127.34375 0)"/>
    </g>
   </g>
   <g id="text_32">
    <!-- SR -->
    <g style="fill: #475569" transform="translate(789.867513 13.27875) scale(0.08 -0.08)">
     <use xlink:href="#DejaVuSans-53"/>
     <use xlink:href="#DejaVuSans-52" transform="translate(63.476562 0)"/>
    </g>
   </g>
   <g id="text_33">
    <!-- FFC -->
    <g style="fill: #475569" transform="translate(832.067625 13.27875) scale(0.08 -0.08)">
     <use xlink:href="#DejaVuSans-46"/>
     <use xlink:href="#DejaVuSans-46" transform="translate(57.519531 0)"/>
     <use xlink:href="#DejaVuSans-43" transform="translate(115.039062 0)"/>
    </g>
   </g>
   <g id="text_34">
    <!-- SS -->
    <g style="fill: #475569" transform="translate(890.957804 13.27875) scale(0.08 -0.08)">
     <use xlink:href="#DejaVuSans-53"/>
     <use xlink:href="#DejaVuSans-53" transform="translate(63.476562 0)"/>
    </g>
   </g>
   <g id="legend_1">
    <g id="line2d_38">
     <path d="M 779.963125 27.540183 
L 787.963125 27.540183 
L 795.963125 27.540183 
" style="fill: none; stroke: #2563eb; stroke-opacity: 0.95; stroke-width: 1.3; stroke-linecap: square"/>
    </g>
    <g id="text_35">
     <!-- Relative humidity -->
     <g transform="translate(802.363125 30.340183) scale(0.08 -0.08)">
      <defs>
       <path id="DejaVuSans-68" d="M 3513 2113 
L 3513 0 
L 2938 0 
L 2938 2094 
Q 2938 2591 2744 2837 
Q 2550 3084 2163 3084 
Q 1697 3084 1428 2787 
Q 1159 2491 1159 1978 
L 1159 0 
L 581 0 
L 581 4863 
L 1159 4863 
L 1159 2956 
Q 1366 3272 1645 3428 
Q 1925 3584 2291 3584 
Q 2894 3584 3203 3211 
Q 3513 2838 3513 2113 
z
" transform="scale(0.015625)"/>
       <path id="DejaVuSans-64" d="M 2906 2969 
L 2906 4863 
L 3481 4863 
L 3481 0 
L 2906 0 
L 2906 525 
Q 2725 213 2448 61 
Q 2172 -91 1784 -91 
Q 1150 -91 751 415 
Q 353 922 353 1747 
Q 353 2572 751 3078 
Q 1150 3584 1784 3584 
Q 2172 3584 2448 3432 
Q 2725 3281 2906 2969 
z
M 947 1747 
Q 947 1113 1208 752 
Q 1469 391 1925 391 
Q 2381 391 2643 752 
Q 2906 1113 2906 1747 
Q 2906 2381 2643 2742 
Q 2381 3103 1925 3103 
Q 1469 3103 1208 2742 
Q 947 2381 947 1747 
z
" transform="scale(0.015625)"/>
       <path id="DejaVuSans-79" d="M 2059 -325 
Q 1816 -950 1584 -1140 
Q 1353 -1331 966 -1331 
L 506 -1331 
L 506 -850 
L 844 -850 
Q 1081 -850 1212 -737 
Q 1344 -625 1503 -206 
L 1606 56 
L 191 3500 
L 800 3500 
L 1894 763 
L 2988 3500 
L 3597 3500 
L 2059 -325 
z
" transform="scale(0.015625)"/>
      </defs>
      <use xlink:href="#DejaVuSans-52"/>
      <use xlink:href="#DejaVuSans-65" transform="translate(64.982422 0)"/>
      <use xlink:href="#DejaVuSans-6c" transform="translate(126.505859 0)"/>
      <use xlink:href="#DejaVuSans-61" transform="translate(154.289062 0)"/>
      <use xlink:href="#DejaVuSans-74" transform="translate(215.568359 0)"/>
      <use xlink:href="#DejaVuSans-69" transform="translate(254.777344 0)"/>
      <use xlink:href="#DejaVuSans-76" transform="translate(282.560547 0)"/>
      <use xlink:href="#DejaVuSans-65" transform="translate(341.740234 0)"/>
      <use xlink:href="#DejaVuSans-20" transform="translate(403.263672 0)"/>
      <use xlink:href="#DejaVuSans-68" transform="translate(435.050781 0)"/>
      <use xlink:href="#DejaVuSans-75" transform="translate(498.429688 0)"/>
      <use xlink:href="#DejaVuSans-6d" transform="translate(561.808594 0)"/>
      <use xlink:href="#DejaVuSans-69" transform="translate(659.220703 0)"/>
      <use xlink:href="#DejaVuSans-64" transform="translate(687.003906 0)"/>
      <use xlink:href="#DejaVuSans-69" transform="translate(750.480469 0)"/>
      <use xlink:href="#DejaVuSans-74" transform="translate(778.263672 0)"/>
      <use xlink:href="#DejaVuSans-79" transform="translate(817.472656 0)"/>
     </g>
    </g>
    <g id="line2d_39">
     <path d="M 779.963125 39.282683 
L 787.963125 39.282683 
L 795.963125 39.282683 
" style="fill: none; stroke: #f59e0b; stroke-opacity: 0.95; stroke-width: 1.3; stroke-linecap: square"/>
    </g>
    <g id="text_36">
     <!-- Illuminance -->
     <g transform="translate(802.363125 42.082683) scale(0.08 -0.08)">
      <defs>
       <path id="DejaVuSans-49" d="M 628 4666 
L 1259 4666 
L 1259 0 
L 628 0 
L 628 4666 
z
" transform="scale(0.015625)"/>
      </defs>
      <use xlink:href="#DejaVuSans-49"/>
      <use xlink:href="#DejaVuSans-6c" transform="translate(29.492188 0)"/>
      <use xlink:href="#DejaVuSans-6c" transform="translate(57.275391 0)"/>
      <use xlink:href="#DejaVuSans-75" transform="translate(85.058594 0)"/>
      <use xlink:href="#DejaVuSans-6d" transform="translate(148.4375 0)"/>
      <use xlink:href="#DejaVuSans-69" transform="translate(245.849609 0)"/>
      <use xlink:href="#DejaVuSans-6e" transform="translate(273.632812 0)"/>
      <use xlink:href="#DejaVuSans-61" transform="translate(337.011719 0)"/>
      <use xlink:href="#DejaVuSans-6e" transform="translate(398.291016 0)"/>
      <use xlink:href="#DejaVuSans-63" transform="translate(461.669922 0)"/>
      <use xlink:href="#DejaVuSans-65" transform="translate(516.650391 0)"/>
     </g>
    </g>
    <g id="line2d_40">
     <path d="M 779.963125 51.025183 
L 787.963125 51.025183 
L 795.963125 51.025183 
" style="fill: none; stroke: #64748b; stroke-opacity: 0.95; stroke-width: 1.3; stroke-linecap: square"/>
    </g>
    <g id="text_37">
     <!-- Sound level -->
     <g transform="translate(802.363125 53.825183) scale(0.08 -0.08)">
      <use xlink:href="#DejaVuSans-53"/>
      <use xlink:href="#DejaVuSans-6f" transform="translate(63.476562 0)"/>
      <use xlink:href="#DejaVuSans-75" transform="translate(124.658203 0)"/>
      <use xlink:href="#DejaVuSans-6e" transform="translate(188.037109 0)"/>
      <use xlink:href="#DejaVuSans-64" transform="translate(251.416016 0)"/>
      <use xlink:href="#DejaVuSans-20" transform="translate(314.892578 0)"/>
      <use xlink:href="#DejaVuSans-6c" transform="translate(346.679688 0)"/>
      <use xlink:href="#DejaVuSans-65" transform="translate(374.462891 0)"/>
      <use xlink:href="#DejaVuSans-76" transform="translate(435.986328 0)"/>
      <use xlink:href="#DejaVuSans-65" transform="translate(495.166016 0)"/>
      <use xlink:href="#DejaVuSans-6c" transform="translate(556.689453 0)"/>
     </g>
    </g>
    <g id="line2d_41">
     <path d="M 888.495625 27.540183 
L 896.495625 27.540183 
L 904.495625 27.540183 
" style="fill: none; stroke: #0f766e; stroke-opacity: 0.95; stroke-width: 1.3; stroke-linecap: square"/>
    </g>
    <g id="text_38">
     <!-- CO2 -->
     <g transform="translate(910.895625 30.340183) scale(0.08 -0.08)">
      <use xlink:href="#DejaVuSans-43"/>
      <use xlink:href="#DejaVuSans-4f" transform="translate(69.824219 0)"/>
      <use xlink:href="#DejaVuSans-32" transform="translate(148.535156 0)"/>
     </g>
    </g>
    <g id="line2d_42">
     <path d="M 888.495625 39.282683 
L 896.495625 39.282683 
L 904.495625 39.282683 
" style="fill: none; stroke: #b91c1c; stroke-opacity: 0.95; stroke-width: 1.3; stroke-linecap: square"/>
    </g>
    <g id="text_39">
     <!-- PMV -->
     <g transform="translate(910.895625 42.082683) scale(0.08 -0.08)">
      <defs>
       <path id="DejaVuSans-50" d="M 1259 4147 
L 1259 2394 
L 2053 2394 
Q 2494 2394 2734 2622 
Q 2975 2850 2975 3272 
Q 2975 3691 2734 3919 
Q 2494 4147 2053 4147 
L 1259 4147 
z
M 628 4666 
L 2053 4666 
Q 2838 4666 3239 4311 
Q 3641 3956 3641 3272 
Q 3641 2581 3239 2228 
Q 2838 1875 2053 1875 
L 1259 1875 
L 1259 0 
L 628 0 
L 628 4666 
z
" transform="scale(0.015625)"/>
       <path id="DejaVuSans-56" d="M 1831 0 
L 50 4666 
L 709 4666 
L 2188 738 
L 3669 4666 
L 4325 4666 
L 2547 0 
L 1831 0 
z
" transform="scale(0.015625)"/>
      </defs>
      <use xlink:href="#DejaVuSans-50"/>
      <use xlink:href="#DejaVuSans-4d" transform="translate(60.302734 0)"/>
      <use xlink:href="#DejaVuSans-56" transform="translate(146.582031 0)"/>
     </g>
    </g>
   </g>
  </g>
 </g>
 <defs>
  <clipPath id="p0f6d22d4fe">
   <rect x="45.056875" y="17.061433" width="890.2375" height="211.89328"/>
  </clipPath>
 </defs>
</svg>
