<?xml version="1.0" encoding="utf-8" standalone="no"?>
<!DOCTYPE svg PUBLIC "-//W3C//DTD SVG 1.1//EN"
  "http://www.w3.org/Graphics/SVG/1.1/DTD/svg11.dtd">
<svg xmlns:xlink="http://www.w3.org/1999/xlink" width="942.542187pt" height="265.54315pt" viewBox="0 0 942.542187 265.54315" xmlns="http://www.w3.org/2000/svg" version="1.1">
 <metadata>
  <rdf:RDF xmlns:dc="http://purl.org/dc/elements/1.1/" xmlns:cc="http://creativecommons.org/ns#" xmlns:rdf="http://www.w3.org/1999/02/22-rdf-syntax-ns#">
   <cc:Work>
    <dc:type rdf:resource="http://purl.org/dc/dcmitype/StillImage"/>
    <dc:date>2026-04-17T13:10:22.481555</dc:date>
    <dc:format>image/svg+xml</dc:format>
    <dc:creator>
     <cc:Agent>
      <dc:title>Matplotlib v3.10.8, https://matplotlib.org/</dc:title>
     </cc:Agent>
    </dc:creator>
   </cc:Work>
  </rdf:RDF>
 </metadata>
 <defs>
  <style type="text/css">*{stroke-linejoin: round; stroke-linecap: butt}</style>
 </defs>
 <g id="figure_1">
  <g id="patch_1">
   <path d="M 0 265.54315 
L 942.542187 265.54315 
L 942.542187 0 
L 0 0 
z
" style="fill: #ffffff"/>
  </g>
  <g id="axes_1">
   <g id="patch_2">
    <path d="M 47.917188 228.954713 
L 935.342187 228.954713 
L 935.342187 17.061433 
L 47.917188 17.061433 
z
" style="fill: #ffffff"/>
   </g>
   <g id="patch_3">
    <path d="M 47.917188 228.954713 
L 64.983053 228.954713 
L 64.983053 17.061433 
L 47.917188 17.061433 
z
" clip-path="url(#p620db69fd2)" style="fill: #f8fafc; opacity: 0.45"/>
   </g>
   <g id="patch_4">
    <path d="M 64.983053 228.954713 
L 104.022614 228.954713 
L 104.022614 17.061433 
L 64.983053 17.061433 
z
" clip-path="url(#p620db69fd2)" style="fill: #eff6ff; opacity: 0.45"/>
   </g>
   <g id="patch_5">
    <path d="M 104.022614 228.954713 
L 131.908015 228.954713 
L 131.908015 17.061433 
L 104.022614 17.061433 
z
" clip-path="url(#p620db69fd2)" style="fill: #fef3c7; opacity: 0.45"/>
   </g>
   <g id="patch_6">
    <path d="M 131.908015 228.954713 
L 182.101737 228.954713 
L 182.101737 17.061433 
L 131.908015 17.061433 
z
" clip-path="url(#p620db69fd2)" style="fill: #dcfce7; opacity: 0.45"/>
   </g>
   <g id="patch_7">
    <path d="M 182.101737 228.954713 
L 237.872539 228.954713 
L 237.872539 17.061433 
L 182.101737 17.061433 
z
" clip-path="url(#p620db69fd2)" style="fill: #fee2e2; opacity: 0.45"/>
   </g>
   <g id="patch_8">
    <path d="M 237.872539 228.954713 
L 243.449619 228.954713 
L 243.449619 17.061433 
L 237.872539 17.061433 
z
" clip-path="url(#p620db69fd2)" style="fill: #ede9fe; opacity: 0.45"/>
   </g>
   <g id="patch_9">
    <path d="M 243.449619 228.954713 
L 382.876624 228.954713 
L 382.876624 17.061433 
L 243.449619 17.061433 
z
" clip-path="url(#p620db69fd2)" style="fill: #f8fafc; opacity: 0.45"/>
   </g>
   <g id="patch_10">
    <path d="M 382.876624 228.954713 
L 410.762025 228.954713 
L 410.762025 17.061433 
L 382.876624 17.061433 
z
" clip-path="url(#p620db69fd2)" style="fill: #eff6ff; opacity: 0.45"/>
   </g>
   <g id="patch_11">
    <path d="M 410.762025 228.954713 
L 444.224506 228.954713 
L 444.224506 17.061433 
L 410.762025 17.061433 
z
" clip-path="url(#p620db69fd2)" style="fill: #fef3c7; opacity: 0.45"/>
   </g>
   <g id="patch_12">
    <path d="M 444.224506 228.954713 
L 499.995308 228.954713 
L 499.995308 17.061433 
L 444.224506 17.061433 
z
" clip-path="url(#p620db69fd2)" style="fill: #dcfce7; opacity: 0.45"/>
   </g>
   <g id="patch_13">
    <path d="M 499.995308 228.954713 
L 550.18903 228.954713 
L 550.18903 17.061433 
L 499.995308 17.061433 
z
" clip-path="url(#p620db69fd2)" style="fill: #fee2e2; opacity: 0.45"/>
   </g>
   <g id="patch_14">
    <path d="M 550.18903 228.954713 
L 555.76611 228.954713 
L 555.76611 17.061433 
L 550.18903 17.061433 
z
" clip-path="url(#p620db69fd2)" style="fill: #ede9fe; opacity: 0.45"/>
   </g>
   <g id="patch_15">
    <path d="M 555.76611 228.954713 
L 695.193114 228.954713 
L 695.193114 17.061433 
L 555.76611 17.061433 
z
" clip-path="url(#p620db69fd2)" style="fill: #f8fafc; opacity: 0.45"/>
   </g>
   <g id="patch_16">
    <path d="M 695.193114 228.954713 
L 723.078515 228.954713 
L 723.078515 17.061433 
L 695.193114 17.061433 
z
" clip-path="url(#p620db69fd2)" style="fill: #eff6ff; opacity: 0.45"/>
   </g>
   <g id="patch_17">
    <path d="M 723.078515 228.954713 
L 756.540997 228.954713 
L 756.540997 17.061433 
L 723.078515 17.061433 
z
" clip-path="url(#p620db69fd2)" style="fill: #fef3c7; opacity: 0.45"/>
   </g>
   <g id="patch_18">
    <path d="M 756.540997 228.954713 
L 806.734718 228.954713 
L 806.734718 17.061433 
L 756.540997 17.061433 
z
" clip-path="url(#p620db69fd2)" style="fill: #dcfce7; opacity: 0.45"/>
   </g>
   <g id="patch_19">
    <path d="M 806.734718 228.954713 
L 862.50552 228.954713 
L 862.50552 17.061433 
L 806.734718 17.061433 
z
" clip-path="url(#p620db69fd2)" style="fill: #fee2e2; opacity: 0.45"/>
   </g>
   <g id="patch_20">
    <path d="M 862.50552 228.954713 
L 868.0826 228.954713 
L 868.0826 17.061433 
L 862.50552 17.061433 
z
" clip-path="url(#p620db69fd2)" style="fill: #ede9fe; opacity: 0.45"/>
   </g>
   <g id="patch_21">
    <path d="M 868.0826 228.954713 
L 918.276322 228.954713 
L 918.276322 17.061433 
L 868.0826 17.061433 
z
" clip-path="url(#p620db69fd2)" style="fill: #f8fafc; opacity: 0.45"/>
   </g>
   <g id="patch_22">
    <path d="M 918.276322 228.954713 
L 923.853402 228.954713 
L 923.853402 17.061433 
L 918.276322 17.061433 
z
" clip-path="url(#p620db69fd2)" style="fill: #eff6ff; opacity: 0.45"/>
   </g>
   <g id="matplotlib.axis_1">
    <g id="xtick_1">
     <g id="line2d_1">
      <path d="M 64.983053 228.954713 
L 64.983053 17.061433 
" clip-path="url(#p620db69fd2)" style="fill: none; stroke: #eef2f7; stroke-width: 0.55; stroke-linecap: square"/>
     </g>
     <g id="line2d_2">
      <defs>
       <path id="m779f1a8e06" d="M 0 0 
L 0 3.5 
" style="stroke: #000000; stroke-width: 0.8"/>
      </defs>
      <g>
       <use xlink:href="#m779f1a8e06" x="64.983053" y="228.954713" style="stroke: #000000; stroke-width: 0.8"/>
      </g>
     </g>
     <g id="text_1">
      <!-- 40 -->
      <g transform="translate(59.256803 242.793307) scale(0.09 -0.09)">
       <defs>
        <path id="DejaVuSans-34" d="M 2419 4116 
L 825 1625 
L 2419 1625 
L 2419 4116 
z
M 2253 4666 
L 3047 4666 
L 3047 1625 
L 3713 1625 
L 3713 1100 
L 3047 1100 
L 3047 0 
L 2419 0 
L 2419 1100 
L 313 1100 
L 313 1709 
L 2253 4666 
z
" transform="scale(0.015625)"/>
        <path id="DejaVuSans-30" d="M 2034 4250 
Q 1547 4250 1301 3770 
Q 1056 3291 1056 2328 
Q 1056 1369 1301 889 
Q 1547 409 2034 409 
Q 2525 409 2770 889 
Q 3016 1369 3016 2328 
Q 3016 3291 2770 3770 
Q 2525 4250 2034 4250 
z
M 2034 4750 
Q 2819 4750 3233 4129 
Q 3647 3509 3647 2328 
Q 3647 1150 3233 529 
Q 2819 -91 2034 -91 
Q 1250 -91 836 529 
Q 422 1150 422 2328 
Q 422 3509 836 4129 
Q 1250 4750 2034 4750 
z
" transform="scale(0.015625)"/>
       </defs>
       <use xlink:href="#DejaVuSans-34"/>
       <use xlink:href="#DejaVuSans-30" transform="translate(63.623047 0)"/>
      </g>
     </g>
    </g>
    <g id="xtick_2">
     <g id="line2d_3">
      <path d="M 176.524657 228.954713 
L 176.524657 17.061433 
" clip-path="url(#p620db69fd2)" style="fill: none; stroke: #eef2f7; stroke-width: 0.55; stroke-linecap: square"/>
     </g>
     <g id="line2d_4">
      <g>
       <use xlink:href="#m779f1a8e06" x="176.524657" y="228.954713" style="stroke: #000000; stroke-width: 0.8"/>
      </g>
     </g>
     <g id="text_2">
      <!-- 60 -->
      <g transform="translate(170.798407 242.793307) scale(0.09 -0.09)">
       <defs>
        <path id="DejaVuSans-36" d="M 2113 2584 
Q 1688 2584 1439 2293 
Q 1191 2003 1191 1497 
Q 1191 994 1439 701 
Q 1688 409 2113 409 
Q 2538 409 2786 701 
Q 3034 994 3034 1497 
Q 3034 2003 2786 2293 
Q 2538 2584 2113 2584 
z
M 3366 4563 
L 3366 3988 
Q 3128 4100 2886 4159 
Q 2644 4219 2406 4219 
Q 1781 4219 1451 3797 
Q 1122 3375 1075 2522 
Q 1259 2794 1537 2939 
Q 1816 3084 2150 3084 
Q 2853 3084 3261 2657 
Q 3669 2231 3669 1497 
Q 3669 778 3244 343 
Q 2819 -91 2113 -91 
Q 1303 -91 875 529 
Q 447 1150 447 2328 
Q 447 3434 972 4092 
Q 1497 4750 2381 4750 
Q 2619 4750 2861 4703 
Q 3103 4656 3366 4563 
z
" transform="scale(0.015625)"/>
       </defs>
       <use xlink:href="#DejaVuSans-36"/>
       <use xlink:href="#DejaVuSans-30" transform="translate(63.623047 0)"/>
      </g>
     </g>
    </g>
    <g id="xtick_3">
     <g id="line2d_5">
      <path d="M 288.066261 228.954713 
L 288.066261 17.061433 
" clip-path="url(#p620db69fd2)" style="fill: none; stroke: #eef2f7; stroke-width: 0.55; stroke-linecap: square"/>
     </g>
     <g id="line2d_6">
      <g>
       <use xlink:href="#m779f1a8e06" x="288.066261" y="228.954713" style="stroke: #000000; stroke-width: 0.8"/>
      </g>
     </g>
     <g id="text_3">
      <!-- 80 -->
      <g transform="translate(282.340011 242.793307) scale(0.09 -0.09)">
       <defs>
        <path id="DejaVuSans-38" d="M 2034 2216 
Q 1584 2216 1326 1975 
Q 1069 1734 1069 1313 
Q 1069 891 1326 650 
Q 1584 409 2034 409 
Q 2484 409 2743 651 
Q 3003 894 3003 1313 
Q 3003 1734 2745 1975 
Q 2488 2216 2034 2216 
z
M 1403 2484 
Q 997 2584 770 2862 
Q 544 3141 544 3541 
Q 544 4100 942 4425 
Q 1341 4750 2034 4750 
Q 2731 4750 3128 4425 
Q 3525 4100 3525 3541 
Q 3525 3141 3298 2862 
Q 3072 2584 2669 2484 
Q 3125 2378 3379 2068 
Q 3634 1759 3634 1313 
Q 3634 634 3220 271 
Q 2806 -91 2034 -91 
Q 1263 -91 848 271 
Q 434 634 434 1313 
Q 434 1759 690 2068 
Q 947 2378 1403 2484 
z
M 1172 3481 
Q 1172 3119 1398 2916 
Q 1625 2713 2034 2713 
Q 2441 2713 2670 2916 
Q 2900 3119 2900 3481 
Q 2900 3844 2670 4047 
Q 2441 4250 2034 4250 
Q 1625 4250 1398 4047 
Q 1172 3844 1172 3481 
z
" transform="scale(0.015625)"/>
       </defs>
       <use xlink:href="#DejaVuSans-38"/>
       <use xlink:href="#DejaVuSans-30" transform="translate(63.623047 0)"/>
      </g>
     </g>
    </g>
    <g id="xtick_4">
     <g id="line2d_7">
      <path d="M 399.607864 228.954713 
L 399.607864 17.061433 
" clip-path="url(#p620db69fd2)" style="fill: none; stroke: #eef2f7; stroke-width: 0.55; stroke-linecap: square"/>
     </g>
     <g id="line2d_8">
      <g>
       <use xlink:href="#m779f1a8e06" x="399.607864" y="228.954713" style="stroke: #000000; stroke-width: 0.8"/>
      </g>
     </g>
     <g id="text_4">
      <!-- 100 -->
      <g transform="translate(391.018489 242.793307) scale(0.09 -0.09)">
       <defs>
        <path id="DejaVuSans-31" d="M 794 531 
L 1825 531 
L 1825 4091 
L 703 3866 
L 703 4441 
L 1819 4666 
L 2450 4666 
L 2450 531 
L 3481 531 
L 3481 0 
L 794 0 
L 794 531 
z
" transform="scale(0.015625)"/>
       </defs>
       <use xlink:href="#DejaVuSans-31"/>
       <use xlink:href="#DejaVuSans-30" transform="translate(63.623047 0)"/>
       <use xlink:href="#DejaVuSans-30" transform="translate(127.246094 0)"/>
      </g>
     </g>
    </g>
    <g id="xtick_5">
     <g id="line2d_9">
      <path d="M 511.149468 228.954713 
L 511.149468 17.061433 
" clip-path="url(#p620db69fd2)" style="fill: none; stroke: #eef2f7; stroke-width: 0.55; stroke-linecap: square"/>
     </g>
     <g id="line2d_10">
      <g>
       <use xlink:href="#m779f1a8e06" x="511.149468" y="228.954713" style="stroke: #000000; stroke-width: 0.8"/>
      </g>
     </g>
     <g id="text_5">
      <!-- 120 -->
      <g transform="translate(502.560093 242.793307) scale(0.09 -0.09)">
       <defs>
        <path id="DejaVuSans-32" d="M 1228 531 
L 3431 531 
L 3431 0 
L 469 0 
L 469 531 
Q 828 903 1448 1529 
Q 2069 2156 2228 2338 
Q 2531 2678 2651 2914 
Q 2772 3150 2772 3378 
Q 2772 3750 2511 3984 
Q 2250 4219 1831 4219 
Q 1534 4219 1204 4116 
Q 875 4013 500 3803 
L 500 4441 
Q 881 4594 1212 4672 
Q 1544 4750 1819 4750 
Q 2544 4750 2975 4387 
Q 3406 4025 3406 3419 
Q 3406 3131 3298 2873 
Q 3191 2616 2906 2266 
Q 2828 2175 2409 1742 
Q 1991 1309 1228 531 
z
" transform="scale(0.015625)"/>
       </defs>
       <use xlink:href="#DejaVuSans-31"/>
       <use xlink:href="#DejaVuSans-32" transform="translate(63.623047 0)"/>
       <use xlink:href="#DejaVuSans-30" transform="translate(127.246094 0)"/>
      </g>
     </g>
    </g>
    <g id="xtick_6">
     <g id="line2d_11">
      <path d="M 622.691072 228.954713 
L 622.691072 17.061433 
" clip-path="url(#p620db69fd2)" style="fill: none; stroke: #eef2f7; stroke-width: 0.55; stroke-linecap: square"/>
     </g>
     <g id="line2d_12">
      <g>
       <use xlink:href="#m779f1a8e06" x="622.691072" y="228.954713" style="stroke: #000000; stroke-width: 0.8"/>
      </g>
     </g>
     <g id="text_6">
      <!-- 140 -->
      <g transform="translate(614.101697 242.793307) scale(0.09 -0.09)">
       <use xlink:href="#DejaVuSans-31"/>
       <use xlink:href="#DejaVuSans-34" transform="translate(63.623047 0)"/>
       <use xlink:href="#DejaVuSans-30" transform="translate(127.246094 0)"/>
      </g>
     </g>
    </g>
    <g id="xtick_7">
     <g id="line2d_13">
      <path d="M 734.232676 228.954713 
L 734.232676 17.061433 
" clip-path="url(#p620db69fd2)" style="fill: none; stroke: #eef2f7; stroke-width: 0.55; stroke-linecap: square"/>
     </g>
     <g id="line2d_14">
      <g>
       <use xlink:href="#m779f1a8e06" x="734.232676" y="228.954713" style="stroke: #000000; stroke-width: 0.8"/>
      </g>
     </g>
     <g id="text_7">
      <!-- 160 -->
      <g transform="translate(725.643301 242.793307) scale(0.09 -0.09)">
       <use xlink:href="#DejaVuSans-31"/>
       <use xlink:href="#DejaVuSans-36" transform="translate(63.623047 0)"/>
       <use xlink:href="#DejaVuSans-30" transform="translate(127.246094 0)"/>
      </g>
     </g>
    </g>
    <g id="xtick_8">
     <g id="line2d_15">
      <path d="M 845.77428 228.954713 
L 845.77428 17.061433 
" clip-path="url(#p620db69fd2)" style="fill: none; stroke: #eef2f7; stroke-width: 0.55; stroke-linecap: square"/>
     </g>
     <g id="line2d_16">
      <g>
       <use xlink:href="#m779f1a8e06" x="845.77428" y="228.954713" style="stroke: #000000; stroke-width: 0.8"/>
      </g>
     </g>
     <g id="text_8">
      <!-- 180 -->
      <g transform="translate(837.184905 242.793307) scale(0.09 -0.09)">
       <use xlink:href="#DejaVuSans-31"/>
       <use xlink:href="#DejaVuSans-38" transform="translate(63.623047 0)"/>
       <use xlink:href="#DejaVuSans-30" transform="translate(127.246094 0)"/>
      </g>
     </g>
    </g>
    <g id="text_9">
     <!-- Minutes since session start -->
     <g transform="translate(424.039844 256.263463) scale(0.1 -0.1)">
      <defs>
       <path id="DejaVuSans-4d" d="M 628 4666 
L 1569 4666 
L 2759 1491 
L 3956 4666 
L 4897 4666 
L 4897 0 
L 4281 0 
L 4281 4097 
L 3078 897 
L 2444 897 
L 1241 4097 
L 1241 0 
L 628 0 
L 628 4666 
z
" transform="scale(0.015625)"/>
       <path id="DejaVuSans-69" d="M 603 3500 
L 1178 3500 
L 1178 0 
L 603 0 
L 603 3500 
z
M 603 4863 
L 1178 4863 
L 1178 4134 
L 603 4134 
L 603 4863 
z
" transform="scale(0.015625)"/>
       <path id="DejaVuSans-6e" d="M 3513 2113 
L 3513 0 
L 2938 0 
L 2938 2094 
Q 2938 2591 2744 2837 
Q 2550 3084 2163 3084 
Q 1697 3084 1428 2787 
Q 1159 2491 1159 1978 
L 1159 0 
L 581 0 
L 581 3500 
L 1159 3500 
L 1159 2956 
Q 1366 3272 1645 3428 
Q 1925 3584 2291 3584 
Q 2894 3584 3203 3211 
Q 3513 2838 3513 2113 
z
" transform="scale(0.015625)"/>
       <path id="DejaVuSans-75" d="M 544 1381 
L 544 3500 
L 1119 3500 
L 1119 1403 
Q 1119 906 1312 657 
Q 1506 409 1894 409 
Q 2359 409 2629 706 
Q 2900 1003 2900 1516 
L 2900 3500 
L 3475 3500 
L 3475 0 
L 2900 0 
L 2900 538 
Q 2691 219 2414 64 
Q 2138 -91 1772 -91 
Q 1169 -91 856 284 
Q 544 659 544 1381 
z
M 1991 3584 
L 1991 3584 
z
" transform="scale(0.015625)"/>
       <path id="DejaVuSans-74" d="M 1172 4494 
L 1172 3500 
L 2356 3500 
L 2356 3053 
L 1172 3053 
L 1172 1153 
Q 1172 725 1289 603 
Q 1406 481 1766 481 
L 2356 481 
L 2356 0 
L 1766 0 
Q 1100 0 847 248 
Q 594 497 594 1153 
L 594 3053 
L 172 3053 
L 172 3500 
L 594 3500 
L 594 4494 
L 1172 4494 
z
" transform="scale(0.015625)"/>
       <path id="DejaVuSans-65" d="M 3597 1894 
L 3597 1613 
L 953 1613 
Q 991 1019 1311 708 
Q 1631 397 2203 397 
Q 2534 397 2845 478 
Q 3156 559 3463 722 
L 3463 178 
Q 3153 47 2828 -22 
Q 2503 -91 2169 -91 
Q 1331 -91 842 396 
Q 353 884 353 1716 
Q 353 2575 817 3079 
Q 1281 3584 2069 3584 
Q 2775 3584 3186 3129 
Q 3597 2675 3597 1894 
z
M 3022 2063 
Q 3016 2534 2758 2815 
Q 2500 3097 2075 3097 
Q 1594 3097 1305 2825 
Q 1016 2553 972 2059 
L 3022 2063 
z
" transform="scale(0.015625)"/>
       <path id="DejaVuSans-73" d="M 2834 3397 
L 2834 2853 
Q 2591 2978 2328 3040 
Q 2066 3103 1784 3103 
Q 1356 3103 1142 2972 
Q 928 2841 928 2578 
Q 928 2378 1081 2264 
Q 1234 2150 1697 2047 
L 1894 2003 
Q 2506 1872 2764 1633 
Q 3022 1394 3022 966 
Q 3022 478 2636 193 
Q 2250 -91 1575 -91 
Q 1294 -91 989 -36 
Q 684 19 347 128 
L 347 722 
Q 666 556 975 473 
Q 1284 391 1588 391 
Q 1994 391 2212 530 
Q 2431 669 2431 922 
Q 2431 1156 2273 1281 
Q 2116 1406 1581 1522 
L 1381 1569 
Q 847 1681 609 1914 
Q 372 2147 372 2553 
Q 372 3047 722 3315 
Q 1072 3584 1716 3584 
Q 2034 3584 2315 3537 
Q 2597 3491 2834 3397 
z
" transform="scale(0.015625)"/>
       <path id="DejaVuSans-20" transform="scale(0.015625)"/>
       <path id="DejaVuSans-63" d="M 3122 3366 
L 3122 2828 
Q 2878 2963 2633 3030 
Q 2388 3097 2138 3097 
Q 1578 3097 1268 2742 
Q 959 2388 959 1747 
Q 959 1106 1268 751 
Q 1578 397 2138 397 
Q 2388 397 2633 464 
Q 2878 531 3122 666 
L 3122 134 
Q 2881 22 2623 -34 
Q 2366 -91 2075 -91 
Q 1284 -91 818 406 
Q 353 903 353 1747 
Q 353 2603 823 3093 
Q 1294 3584 2113 3584 
Q 2378 3584 2631 3529 
Q 2884 3475 3122 3366 
z
" transform="scale(0.015625)"/>
       <path id="DejaVuSans-6f" d="M 1959 3097 
Q 1497 3097 1228 2736 
Q 959 2375 959 1747 
Q 959 1119 1226 758 
Q 1494 397 1959 397 
Q 2419 397 2687 759 
Q 2956 1122 2956 1747 
Q 2956 2369 2687 2733 
Q 2419 3097 1959 3097 
z
M 1959 3584 
Q 2709 3584 3137 3096 
Q 3566 2609 3566 1747 
Q 3566 888 3137 398 
Q 2709 -91 1959 -91 
Q 1206 -91 779 398 
Q 353 888 353 1747 
Q 353 2609 779 3096 
Q 1206 3584 1959 3584 
z
" transform="scale(0.015625)"/>
       <path id="DejaVuSans-61" d="M 2194 1759 
Q 1497 1759 1228 1600 
Q 959 1441 959 1056 
Q 959 750 1161 570 
Q 1363 391 1709 391 
Q 2188 391 2477 730 
Q 2766 1069 2766 1631 
L 2766 1759 
L 2194 1759 
z
M 3341 1997 
L 3341 0 
L 2766 0 
L 2766 531 
Q 2569 213 2275 61 
Q 1981 -91 1556 -91 
Q 1019 -91 701 211 
Q 384 513 384 1019 
Q 384 1609 779 1909 
Q 1175 2209 1959 2209 
L 2766 2209 
L 2766 2266 
Q 2766 2663 2505 2880 
Q 2244 3097 1772 3097 
Q 1472 3097 1187 3025 
Q 903 2953 641 2809 
L 641 3341 
Q 956 3463 1253 3523 
Q 1550 3584 1831 3584 
Q 2591 3584 2966 3190 
Q 3341 2797 3341 1997 
z
" transform="scale(0.015625)"/>
       <path id="DejaVuSans-72" d="M 2631 2963 
Q 2534 3019 2420 3045 
Q 2306 3072 2169 3072 
Q 1681 3072 1420 2755 
Q 1159 2438 1159 1844 
L 1159 0 
L 581 0 
L 581 3500 
L 1159 3500 
L 1159 2956 
Q 1341 3275 1631 3429 
Q 1922 3584 2338 3584 
Q 2397 3584 2469 3576 
Q 2541 3569 2628 3553 
L 2631 2963 
z
" transform="scale(0.015625)"/>
      </defs>
      <use xlink:href="#DejaVuSans-4d"/>
      <use xlink:href="#DejaVuSans-69" transform="translate(86.279297 0)"/>
      <use xlink:href="#DejaVuSans-6e" transform="translate(114.0625 0)"/>
      <use xlink:href="#DejaVuSans-75" transform="translate(177.441406 0)"/>
      <use xlink:href="#DejaVuSans-74" transform="translate(240.820312 0)"/>
      <use xlink:href="#DejaVuSans-65" transform="translate(280.029297 0)"/>
      <use xlink:href="#DejaVuSans-73" transform="translate(341.552734 0)"/>
      <use xlink:href="#DejaVuSans-20" transform="translate(393.652344 0)"/>
      <use xlink:href="#DejaVuSans-73" transform="translate(425.439453 0)"/>
      <use xlink:href="#DejaVuSans-69" transform="translate(477.539062 0)"/>
      <use xlink:href="#DejaVuSans-6e" transform="translate(505.322266 0)"/>
      <use xlink:href="#DejaVuSans-63" transform="translate(568.701172 0)"/>
      <use xlink:href="#DejaVuSans-65" transform="translate(623.681641 0)"/>
      <use xlink:href="#DejaVuSans-20" transform="translate(685.205078 0)"/>
      <use xlink:href="#DejaVuSans-73" transform="translate(716.992188 0)"/>
      <use xlink:href="#DejaVuSans-65" transform="translate(769.091797 0)"/>
      <use xlink:href="#DejaVuSans-73" transform="translate(830.615234 0)"/>
      <use xlink:href="#DejaVuSans-73" transform="translate(882.714844 0)"/>
      <use xlink:href="#DejaVuSans-69" transform="translate(934.814453 0)"/>
      <use xlink:href="#DejaVuSans-6f" transform="translate(962.597656 0)"/>
      <use xlink:href="#DejaVuSans-6e" transform="translate(1023.779297 0)"/>
      <use xlink:href="#DejaVuSans-20" transform="translate(1087.158203 0)"/>
      <use xlink:href="#DejaVuSans-73" transform="translate(1118.945312 0)"/>
      <use xlink:href="#DejaVuSans-74" transform="translate(1171.044922 0)"/>
      <use xlink:href="#DejaVuSans-61" transform="translate(1210.253906 0)"/>
      <use xlink:href="#DejaVuSans-72" transform="translate(1271.533203 0)"/>
      <use xlink:href="#DejaVuSans-74" transform="translate(1312.646484 0)"/>
     </g>
    </g>
   </g>
   <g id="matplotlib.axis_2">
    <g id="ytick_1">
     <g id="line2d_17">
      <path d="M 47.917188 184.466297 
L 935.342187 184.466297 
" clip-path="url(#p620db69fd2)" style="fill: none; stroke: #eef2f7; stroke-opacity: 0.25; stroke-width: 0.55; stroke-linecap: square"/>
     </g>
     <g id="line2d_18">
      <defs>
       <path id="meefd7a22a3" d="M 0 0 
L -3.5 0 
" style="stroke: #000000; stroke-width: 0.8"/>
      </defs>
      <g>
       <use xlink:href="#meefd7a22a3" x="47.917188" y="184.466297" style="stroke: #000000; stroke-width: 0.8"/>
      </g>
     </g>
     <g id="text_10">
      <!-- 29.0 -->
      <g transform="translate(20.878125 187.885594) scale(0.09 -0.09)">
       <defs>
        <path id="DejaVuSans-39" d="M 703 97 
L 703 672 
Q 941 559 1184 500 
Q 1428 441 1663 441 
Q 2288 441 2617 861 
Q 2947 1281 2994 2138 
Q 2813 1869 2534 1725 
Q 2256 1581 1919 1581 
Q 1219 1581 811 2004 
Q 403 2428 403 3163 
Q 403 3881 828 4315 
Q 1253 4750 1959 4750 
Q 2769 4750 3195 4129 
Q 3622 3509 3622 2328 
Q 3622 1225 3098 567 
Q 2575 -91 1691 -91 
Q 1453 -91 1209 -44 
Q 966 3 703 97 
z
M 1959 2075 
Q 2384 2075 2632 2365 
Q 2881 2656 2881 3163 
Q 2881 3666 2632 3958 
Q 2384 4250 1959 4250 
Q 1534 4250 1286 3958 
Q 1038 3666 1038 3163 
Q 1038 2656 1286 2365 
Q 1534 2075 1959 2075 
z
" transform="scale(0.015625)"/>
        <path id="DejaVuSans-2e" d="M 684 794 
L 1344 794 
L 1344 0 
L 684 0 
L 684 794 
z
" transform="scale(0.015625)"/>
       </defs>
       <use xlink:href="#DejaVuSans-32"/>
       <use xlink:href="#DejaVuSans-39" transform="translate(63.623047 0)"/>
       <use xlink:href="#DejaVuSans-2e" transform="translate(127.246094 0)"/>
       <use xlink:href="#DejaVuSans-30" transform="translate(159.033203 0)"/>
      </g>
     </g>
    </g>
    <g id="ytick_2">
     <g id="line2d_19">
      <path d="M 47.917188 138.601951 
L 935.342187 138.601951 
" clip-path="url(#p620db69fd2)" style="fill: none; stroke: #eef2f7; stroke-opacity: 0.25; stroke-width: 0.55; stroke-linecap: square"/>
     </g>
     <g id="line2d_20">
      <g>
       <use xlink:href="#meefd7a22a3" x="47.917188" y="138.601951" style="stroke: #000000; stroke-width: 0.8"/>
      </g>
     </g>
     <g id="text_11">
      <!-- 29.5 -->
      <g transform="translate(20.878125 142.021247) scale(0.09 -0.09)">
       <defs>
        <path id="DejaVuSans-35" d="M 691 4666 
L 3169 4666 
L 3169 4134 
L 1269 4134 
L 1269 2991 
Q 1406 3038 1543 3061 
Q 1681 3084 1819 3084 
Q 2600 3084 3056 2656 
Q 3513 2228 3513 1497 
Q 3513 744 3044 326 
Q 2575 -91 1722 -91 
Q 1428 -91 1123 -41 
Q 819 9 494 109 
L 494 744 
Q 775 591 1075 516 
Q 1375 441 1709 441 
Q 2250 441 2565 725 
Q 2881 1009 2881 1497 
Q 2881 1984 2565 2268 
Q 2250 2553 1709 2553 
Q 1456 2553 1204 2497 
Q 953 2441 691 2322 
L 691 4666 
z
" transform="scale(0.015625)"/>
       </defs>
       <use xlink:href="#DejaVuSans-32"/>
       <use xlink:href="#DejaVuSans-39" transform="translate(63.623047 0)"/>
       <use xlink:href="#DejaVuSans-2e" transform="translate(127.246094 0)"/>
       <use xlink:href="#DejaVuSans-35" transform="translate(159.033203 0)"/>
      </g>
     </g>
    </g>
    <g id="ytick_3">
     <g id="line2d_21">
      <path d="M 47.917188 92.737604 
L 935.342187 92.737604 
" clip-path="url(#p620db69fd2)" style="fill: none; stroke: #eef2f7; stroke-opacity: 0.25; stroke-width: 0.55; stroke-linecap: square"/>
     </g>
     <g id="line2d_22">
      <g>
       <use xlink:href="#meefd7a22a3" x="47.917188" y="92.737604" style="stroke: #000000; stroke-width: 0.8"/>
      </g>
     </g>
     <g id="text_12">
      <!-- 30.0 -->
      <g transform="translate(20.878125 96.156901) scale(0.09 -0.09)">
       <defs>
        <path id="DejaVuSans-33" d="M 2597 2516 
Q 3050 2419 3304 2112 
Q 3559 1806 3559 1356 
Q 3559 666 3084 287 
Q 2609 -91 1734 -91 
Q 1441 -91 1130 -33 
Q 819 25 488 141 
L 488 750 
Q 750 597 1062 519 
Q 1375 441 1716 441 
Q 2309 441 2620 675 
Q 2931 909 2931 1356 
Q 2931 1769 2642 2001 
Q 2353 2234 1838 2234 
L 1294 2234 
L 1294 2753 
L 1863 2753 
Q 2328 2753 2575 2939 
Q 2822 3125 2822 3475 
Q 2822 3834 2567 4026 
Q 2313 4219 1838 4219 
Q 1578 4219 1281 4162 
Q 984 4106 628 3988 
L 628 4550 
Q 988 4650 1302 4700 
Q 1616 4750 1894 4750 
Q 2613 4750 3031 4423 
Q 3450 4097 3450 3541 
Q 3450 3153 3228 2886 
Q 3006 2619 2597 2516 
z
" transform="scale(0.015625)"/>
       </defs>
       <use xlink:href="#DejaVuSans-33"/>
       <use xlink:href="#DejaVuSans-30" transform="translate(63.623047 0)"/>
       <use xlink:href="#DejaVuSans-2e" transform="translate(127.246094 0)"/>
       <use xlink:href="#DejaVuSans-30" transform="translate(159.033203 0)"/>
      </g>
     </g>
    </g>
    <g id="ytick_4">
     <g id="line2d_23">
      <path d="M 47.917188 46.873258 
L 935.342187 46.873258 
" clip-path="url(#p620db69fd2)" style="fill: none; stroke: #eef2f7; stroke-opacity: 0.25; stroke-width: 0.55; stroke-linecap: square"/>
     </g>
     <g id="line2d_24">
      <g>
       <use xlink:href="#meefd7a22a3" x="47.917188" y="46.873258" style="stroke: #000000; stroke-width: 0.8"/>
      </g>
     </g>
     <g id="text_13">
      <!-- 30.5 -->
      <g transform="translate(20.878125 50.292555) scale(0.09 -0.09)">
       <use xlink:href="#DejaVuSans-33"/>
       <use xlink:href="#DejaVuSans-30" transform="translate(63.623047 0)"/>
       <use xlink:href="#DejaVuSans-2e" transform="translate(127.246094 0)"/>
       <use xlink:href="#DejaVuSans-35" transform="translate(159.033203 0)"/>
      </g>
     </g>
    </g>
    <g id="text_14">
     <!-- Temperature (C) -->
     <g transform="translate(14.798438 163.659635) rotate(-90) scale(0.1 -0.1)">
      <defs>
       <path id="DejaVuSans-54" d="M -19 4666 
L 3928 4666 
L 3928 4134 
L 2272 4134 
L 2272 0 
L 1638 0 
L 1638 4134 
L -19 4134 
L -19 4666 
z
" transform="scale(0.015625)"/>
       <path id="DejaVuSans-6d" d="M 3328 2828 
Q 3544 3216 3844 3400 
Q 4144 3584 4550 3584 
Q 5097 3584 5394 3201 
Q 5691 2819 5691 2113 
L 5691 0 
L 5113 0 
L 5113 2094 
Q 5113 2597 4934 2840 
Q 4756 3084 4391 3084 
Q 3944 3084 3684 2787 
Q 3425 2491 3425 1978 
L 3425 0 
L 2847 0 
L 2847 2094 
Q 2847 2600 2669 2842 
Q 2491 3084 2119 3084 
Q 1678 3084 1418 2786 
Q 1159 2488 1159 1978 
L 1159 0 
L 581 0 
L 581 3500 
L 1159 3500 
L 1159 2956 
Q 1356 3278 1631 3431 
Q 1906 3584 2284 3584 
Q 2666 3584 2933 3390 
Q 3200 3197 3328 2828 
z
" transform="scale(0.015625)"/>
       <path id="DejaVuSans-70" d="M 1159 525 
L 1159 -1331 
L 581 -1331 
L 581 3500 
L 1159 3500 
L 1159 2969 
Q 1341 3281 1617 3432 
Q 1894 3584 2278 3584 
Q 2916 3584 3314 3078 
Q 3713 2572 3713 1747 
Q 3713 922 3314 415 
Q 2916 -91 2278 -91 
Q 1894 -91 1617 61 
Q 1341 213 1159 525 
z
M 3116 1747 
Q 3116 2381 2855 2742 
Q 2594 3103 2138 3103 
Q 1681 3103 1420 2742 
Q 1159 2381 1159 1747 
Q 1159 1113 1420 752 
Q 1681 391 2138 391 
Q 2594 391 2855 752 
Q 3116 1113 3116 1747 
z
" transform="scale(0.015625)"/>
       <path id="DejaVuSans-28" d="M 1984 4856 
Q 1566 4138 1362 3434 
Q 1159 2731 1159 2009 
Q 1159 1288 1364 580 
Q 1569 -128 1984 -844 
L 1484 -844 
Q 1016 -109 783 600 
Q 550 1309 550 2009 
Q 550 2706 781 3412 
Q 1013 4119 1484 4856 
L 1984 4856 
z
" transform="scale(0.015625)"/>
       <path id="DejaVuSans-43" d="M 4122 4306 
L 4122 3641 
Q 3803 3938 3442 4084 
Q 3081 4231 2675 4231 
Q 1875 4231 1450 3742 
Q 1025 3253 1025 2328 
Q 1025 1406 1450 917 
Q 1875 428 2675 428 
Q 3081 428 3442 575 
Q 3803 722 4122 1019 
L 4122 359 
Q 3791 134 3420 21 
Q 3050 -91 2638 -91 
Q 1578 -91 968 557 
Q 359 1206 359 2328 
Q 359 3453 968 4101 
Q 1578 4750 2638 4750 
Q 3056 4750 3426 4639 
Q 3797 4528 4122 4306 
z
" transform="scale(0.015625)"/>
       <path id="DejaVuSans-29" d="M 513 4856 
L 1013 4856 
Q 1481 4119 1714 3412 
Q 1947 2706 1947 2009 
Q 1947 1309 1714 600 
Q 1481 -109 1013 -844 
L 513 -844 
Q 928 -128 1133 580 
Q 1338 1288 1338 2009 
Q 1338 2731 1133 3434 
Q 928 4138 513 4856 
z
" transform="scale(0.015625)"/>
      </defs>
      <use xlink:href="#DejaVuSans-54"/>
      <use xlink:href="#DejaVuSans-65" transform="translate(44.083984 0)"/>
      <use xlink:href="#DejaVuSans-6d" transform="translate(105.607422 0)"/>
      <use xlink:href="#DejaVuSans-70" transform="translate(203.019531 0)"/>
      <use xlink:href="#DejaVuSans-65" transform="translate(266.496094 0)"/>
      <use xlink:href="#DejaVuSans-72" transform="translate(328.019531 0)"/>
      <use xlink:href="#DejaVuSans-61" transform="translate(369.132812 0)"/>
      <use xlink:href="#DejaVuSans-74" transform="translate(430.412109 0)"/>
      <use xlink:href="#DejaVuSans-75" transform="translate(469.621094 0)"/>
      <use xlink:href="#DejaVuSans-72" transform="translate(533 0)"/>
      <use xlink:href="#DejaVuSans-65" transform="translate(571.863281 0)"/>
      <use xlink:href="#DejaVuSans-20" transform="translate(633.386719 0)"/>
      <use xlink:href="#DejaVuSans-28" transform="translate(665.173828 0)"/>
      <use xlink:href="#DejaVuSans-43" transform="translate(704.1875 0)"/>
      <use xlink:href="#DejaVuSans-29" transform="translate(774.011719 0)"/>
     </g>
    </g>
   </g>
   <g id="line2d_25">
    <path d="M 64.983053 73.474579 
L 70.560133 74.391866 
L 81.714293 63.384423 
L 87.291374 72.557292 
L 98.445534 65.218996 
L 109.599694 61.549849 
L 115.176775 65.218996 
L 120.753855 60.632562 
L 126.330935 62.467136 
L 131.908015 60.632562 
L 137.485095 67.05357 
L 143.062176 66.136283 
L 148.639256 66.136283 
L 154.216336 63.384423 
L 159.793416 58.797988 
L 170.947577 56.963414 
L 176.524657 63.384423 
L 182.101737 60.632562 
L 187.678817 51.459693 
L 193.255897 41.369536 
L 198.832977 52.376979 
L 209.987138 58.797988 
L 215.564218 56.046127 
L 221.141298 56.963414 
L 226.718378 49.625119 
L 232.295459 50.542406 
L 237.872539 46.873258 
L 243.449619 59.715275 
L 249.026699 64.30171 
L 260.18086 66.136283 
L 262.9694 66.136283 
L 265.75794 65.218996 
L 271.33502 60.632562 
L 276.9121 63.384423 
L 282.48918 63.384423 
L 288.066261 60.632562 
L 293.643341 64.30171 
L 299.220421 60.632562 
L 304.797501 65.218996 
L 310.374581 61.549849 
L 315.951661 60.632562 
L 321.528742 64.30171 
L 327.105822 58.797988 
L 332.682902 63.384423 
L 338.259982 62.467136 
L 343.837062 64.30171 
L 349.414143 67.05357 
L 354.991223 67.970857 
L 360.568303 58.797988 
L 366.145383 69.805431 
L 371.722463 64.30171 
L 377.299544 65.218996 
L 388.453704 68.888144 
L 394.030784 69.805431 
L 399.607864 67.970857 
L 405.184945 69.805431 
L 410.762025 68.888144 
L 427.493265 63.384423 
L 433.070345 56.963414 
L 438.647426 62.467136 
L 441.435966 60.632562 
L 444.224506 57.880701 
L 449.801586 69.805431 
L 455.378666 65.218996 
L 460.955746 73.474579 
L 466.532827 73.474579 
L 472.109907 75.309153 
L 477.686987 74.391866 
L 483.264067 75.309153 
L 488.841147 68.888144 
L 494.418228 75.309153 
L 499.995308 75.309153 
L 505.572388 70.722718 
L 511.149468 71.640005 
L 522.303629 72.557292 
L 527.880709 70.722718 
L 533.457789 73.474579 
L 539.034869 68.888144 
L 544.611949 73.474579 
L 550.18903 67.970857 
L 555.76611 76.22644 
L 561.34319 74.391866 
L 566.92027 77.143726 
L 572.49735 78.9783 
L 578.07443 79.895587 
L 583.651511 81.730161 
L 589.228591 85.399309 
L 594.805671 85.399309 
L 600.382751 79.895587 
L 605.959831 75.309153 
L 611.536912 78.9783 
L 617.113992 83.564735 
L 622.691072 86.316596 
L 628.268152 86.316596 
L 633.845232 89.068457 
L 639.422313 84.482022 
L 644.999393 83.564735 
L 650.576473 91.820317 
L 656.153553 84.482022 
L 661.730633 90.90303 
L 672.884794 85.399309 
L 678.461874 92.737604 
L 684.038954 91.820317 
L 689.616034 80.812874 
L 695.193114 88.15117 
L 700.770195 89.068457 
L 706.347275 92.737604 
L 711.924355 93.654891 
L 717.501435 93.654891 
L 728.655596 86.316596 
L 734.232676 85.399309 
L 745.386836 85.399309 
L 750.963916 84.482022 
L 753.752456 89.068457 
L 756.540997 92.737604 
L 762.118077 89.985743 
L 767.695157 95.489465 
L 773.272237 95.489465 
L 778.849317 98.241326 
L 784.426398 98.241326 
L 790.003478 95.489465 
L 795.580558 100.0759 
L 801.157638 100.993187 
L 806.734718 97.324039 
L 812.311798 88.15117 
L 817.888879 90.90303 
L 823.465959 92.737604 
L 829.043039 96.406752 
L 840.197199 100.993187 
L 845.77428 101.910473 
L 851.35136 94.572178 
L 856.92844 96.406752 
L 862.50552 94.572178 
L 868.0826 98.241326 
L 873.659681 105.579621 
L 890.390921 105.579621 
L 893.179461 106.496908 
L 895.968001 108.331482 
L 901.545082 106.496908 
L 907.122162 107.414195 
L 912.699242 111.083343 
L 918.276322 111.083343 
L 918.276322 111.083343 
" clip-path="url(#p620db69fd2)" style="fill: none; stroke: #fdc38d; stroke-opacity: 0.95; stroke-width: 1.3; stroke-linecap: square"/>
   </g>
   <g id="line2d_26">
    <path d="M 64.983053 99.158613 
L 70.560133 100.993187 
L 81.714293 97.324039 
L 87.291374 92.737604 
L 92.868454 98.241326 
L 98.445534 87.233883 
L 104.022614 83.564735 
L 109.599694 85.399309 
L 115.176775 77.143726 
L 120.753855 77.143726 
L 126.330935 78.9783 
L 129.119475 77.143726 
L 131.908015 76.22644 
L 143.062176 92.737604 
L 148.639256 86.316596 
L 154.216336 87.233883 
L 159.793416 81.730161 
L 165.370496 79.895587 
L 176.524657 87.233883 
L 182.101737 89.068457 
L 187.678817 77.143726 
L 193.255897 76.22644 
L 198.832977 71.640005 
L 221.141298 67.970857 
L 226.718378 70.722718 
L 232.295459 68.888144 
L 237.872539 69.805431 
L 243.449619 75.309153 
L 249.026699 85.399309 
L 260.18086 87.233883 
L 262.9694 85.399309 
L 265.75794 84.482022 
L 271.33502 91.820317 
L 276.9121 87.233883 
L 282.48918 86.316596 
L 288.066261 94.572178 
L 293.643341 89.985743 
L 299.220421 87.233883 
L 304.797501 91.820317 
L 310.374581 98.241326 
L 315.951661 95.489465 
L 321.528742 94.572178 
L 327.105822 90.90303 
L 338.259982 85.399309 
L 343.837062 86.316596 
L 349.414143 88.15117 
L 354.991223 91.820317 
L 360.568303 90.90303 
L 366.145383 94.572178 
L 371.722463 85.399309 
L 377.299544 89.985743 
L 382.876624 93.654891 
L 388.453704 89.985743 
L 394.030784 92.737604 
L 399.607864 96.406752 
L 405.184945 90.90303 
L 410.762025 93.654891 
L 421.916185 78.061013 
L 427.493265 83.564735 
L 433.070345 77.143726 
L 438.647426 75.309153 
L 444.224506 78.9783 
L 449.801586 100.0759 
L 455.378666 99.158613 
L 460.955746 104.662334 
L 466.532827 95.489465 
L 477.686987 93.654891 
L 483.264067 99.158613 
L 488.841147 97.324039 
L 494.418228 96.406752 
L 499.995308 85.399309 
L 505.572388 80.812874 
L 511.149468 86.316596 
L 522.303629 88.15117 
L 527.880709 89.985743 
L 533.457789 89.068457 
L 539.034869 85.399309 
L 544.611949 84.482022 
L 550.18903 87.233883 
L 555.76611 97.324039 
L 561.34319 104.662334 
L 566.92027 107.414195 
L 572.49735 107.414195 
L 578.07443 102.82776 
L 580.862971 101.910473 
L 583.651511 100.0759 
L 589.228591 108.331482 
L 594.805671 112.00063 
L 600.382751 108.331482 
L 605.959831 107.414195 
L 617.113992 114.75249 
L 622.691072 107.414195 
L 628.268152 107.414195 
L 633.845232 112.00063 
L 639.422313 112.00063 
L 644.999393 106.496908 
L 650.576473 119.338925 
L 656.153553 117.504351 
L 661.730633 120.256212 
L 667.307714 108.331482 
L 672.884794 115.669777 
L 678.461874 115.669777 
L 684.038954 123.008073 
L 689.616034 112.917917 
L 695.193114 113.835204 
L 700.770195 112.917917 
L 706.347275 115.669777 
L 711.924355 124.842647 
L 717.501435 124.842647 
L 723.078515 108.331482 
L 728.655596 102.82776 
L 734.232676 103.745047 
L 745.386836 100.0759 
L 750.963916 96.406752 
L 756.540997 101.910473 
L 762.118077 116.587064 
L 767.695157 123.92536 
L 773.272237 126.677221 
L 778.849317 123.008073 
L 784.426398 127.594507 
L 790.003478 125.759934 
L 795.580558 121.173499 
L 801.157638 125.759934 
L 806.734718 120.256212 
L 812.311798 109.248769 
L 817.888879 119.338925 
L 823.465959 111.083343 
L 829.043039 112.917917 
L 840.197199 112.917917 
L 845.77428 112.00063 
L 851.35136 112.00063 
L 856.92844 108.331482 
L 862.50552 110.166056 
L 868.0826 122.090786 
L 873.659681 132.180942 
L 879.236761 128.511794 
L 884.813841 132.180942 
L 890.390921 132.180942 
L 893.179461 134.015516 
L 895.968001 134.932803 
L 901.545082 138.601951 
L 907.122162 133.098229 
L 912.699242 129.429081 
L 918.276322 142.271098 
L 918.276322 142.271098 
" clip-path="url(#p620db69fd2)" style="fill: none; stroke: #fdac67; stroke-opacity: 0.95; stroke-width: 1.3; stroke-linecap: square"/>
   </g>
   <g id="line2d_27">
    <path d="M 64.983053 200.977462 
L 70.560133 202.812035 
L 81.714293 200.060175 
L 87.291374 191.804592 
L 92.868454 194.556453 
L 98.445534 185.383584 
L 104.022614 185.383584 
L 109.599694 177.128001 
L 115.176775 173.458854 
L 120.753855 166.120558 
L 126.330935 171.62428 
L 129.119475 177.128001 
L 131.908015 181.714436 
L 137.485095 194.556453 
L 143.062176 186.300871 
L 148.639256 193.639166 
L 159.793416 193.639166 
L 165.370496 187.218158 
L 170.947577 183.54901 
L 176.524657 193.639166 
L 182.101737 178.045288 
L 187.678817 144.105672 
L 193.255897 183.54901 
L 198.832977 167.955132 
L 209.987138 146.857533 
L 215.564218 161.534124 
L 221.141298 156.947689 
L 226.718378 159.69955 
L 232.295459 158.782263 
L 237.872539 175.293428 
L 243.449619 169.789706 
L 249.026699 175.293428 
L 254.603779 167.037845 
L 260.18086 182.631723 
L 265.75794 188.135445 
L 271.33502 179.879862 
L 276.9121 190.887305 
L 282.48918 181.714436 
L 288.066261 191.804592 
L 293.643341 199.142888 
L 299.220421 178.962575 
L 304.797501 175.293428 
L 310.374581 181.714436 
L 315.951661 170.706993 
L 321.528742 182.631723 
L 327.105822 191.804592 
L 332.682902 187.218158 
L 338.259982 181.714436 
L 343.837062 182.631723 
L 349.414143 185.383584 
L 354.991223 189.052732 
L 360.568303 190.887305 
L 366.145383 172.541567 
L 371.722463 191.804592 
L 377.299544 172.541567 
L 382.876624 171.62428 
L 388.453704 172.541567 
L 394.030784 190.887305 
L 399.607864 195.47374 
L 405.184945 185.383584 
L 410.762025 166.120558 
L 421.916185 174.376141 
L 427.493265 168.872419 
L 433.070345 166.120558 
L 438.647426 161.534124 
L 444.224506 176.210715 
L 449.801586 167.955132 
L 455.378666 177.128001 
L 460.955746 187.218158 
L 466.532827 180.797149 
L 472.109907 181.714436 
L 477.686987 200.977462 
L 483.264067 188.135445 
L 488.841147 183.54901 
L 494.418228 183.54901 
L 499.995308 171.62428 
L 505.572388 172.541567 
L 511.149468 169.789706 
L 522.303629 150.526681 
L 527.880709 165.203271 
L 533.457789 177.128001 
L 539.034869 161.534124 
L 544.611949 166.120558 
L 550.18903 176.210715 
L 555.76611 158.782263 
L 561.34319 166.120558 
L 566.92027 164.285984 
L 572.49735 181.714436 
L 578.07443 181.714436 
L 583.651511 176.210715 
L 589.228591 184.466297 
L 594.805671 194.556453 
L 600.382751 181.714436 
L 611.536912 187.218158 
L 617.113992 181.714436 
L 622.691072 185.383584 
L 628.268152 184.466297 
L 633.845232 200.977462 
L 639.422313 201.894748 
L 644.999393 184.466297 
L 650.576473 174.376141 
L 656.153553 183.54901 
L 661.730633 197.308314 
L 667.307714 192.721879 
L 672.884794 182.631723 
L 678.461874 197.308314 
L 684.038954 183.54901 
L 689.616034 183.54901 
L 695.193114 180.797149 
L 700.770195 189.970018 
L 706.347275 190.887305 
L 711.924355 188.135445 
L 717.501435 180.797149 
L 723.078515 176.210715 
L 728.655596 201.894748 
L 734.232676 193.639166 
L 745.386836 191.804592 
L 750.963916 191.804592 
L 753.752456 192.721879 
L 762.118077 192.721879 
L 767.695157 190.887305 
L 773.272237 199.142888 
L 778.849317 196.391027 
L 784.426398 194.556453 
L 790.003478 199.142888 
L 795.580558 195.47374 
L 801.157638 200.060175 
L 806.734718 190.887305 
L 812.311798 193.639166 
L 817.888879 180.797149 
L 823.465959 190.887305 
L 840.197199 177.128001 
L 845.77428 187.218158 
L 851.35136 187.218158 
L 856.92844 202.812035 
L 862.50552 197.308314 
L 868.0826 190.887305 
L 873.659681 194.556453 
L 879.236761 201.894748 
L 884.813841 219.3232 
L 890.390921 212.902192 
L 895.968001 212.902192 
L 901.545082 202.812035 
L 907.122162 194.556453 
L 912.699242 201.894748 
L 918.276322 191.804592 
L 918.276322 191.804592 
" clip-path="url(#p620db69fd2)" style="fill: none; stroke: #fd9547; stroke-opacity: 0.95; stroke-width: 1.3; stroke-linecap: square"/>
   </g>
   <g id="line2d_28">
    <path d="M 64.983053 55.12884 
L 70.560133 45.955971 
L 81.714293 56.046127 
L 87.291374 48.707832 
L 92.868454 52.376979 
L 98.445534 75.309153 
L 104.022614 70.722718 
L 109.599694 61.549849 
L 115.176775 66.136283 
L 120.753855 63.384423 
L 126.330935 61.549849 
L 131.908015 50.542406 
L 137.485095 47.790545 
L 143.062176 40.452249 
L 148.639256 45.955971 
L 154.216336 48.707832 
L 159.793416 42.286823 
L 165.370496 40.452249 
L 170.947577 36.783102 
L 176.524657 40.452249 
L 182.101737 35.865815 
L 187.678817 49.625119 
L 193.255897 42.286823 
L 198.832977 52.376979 
L 209.987138 47.790545 
L 215.564218 47.790545 
L 221.141298 49.625119 
L 226.718378 53.294266 
L 232.295459 51.459693 
L 237.872539 53.294266 
L 243.449619 34.948528 
L 249.026699 34.031241 
L 254.603779 31.27938 
L 260.18086 41.369536 
L 265.75794 26.692946 
L 271.33502 30.362093 
L 276.9121 36.783102 
L 282.48918 34.948528 
L 293.643341 34.948528 
L 299.220421 29.444806 
L 304.797501 30.362093 
L 310.374581 37.700389 
L 315.951661 33.113954 
L 321.528742 36.783102 
L 327.105822 33.113954 
L 332.682902 38.617676 
L 338.259982 39.534962 
L 343.837062 45.038684 
L 349.414143 45.955971 
L 354.991223 40.452249 
L 360.568303 46.873258 
L 366.145383 41.369536 
L 371.722463 34.031241 
L 377.299544 45.038684 
L 382.876624 42.286823 
L 388.453704 49.625119 
L 394.030784 38.617676 
L 399.607864 37.700389 
L 405.184945 40.452249 
L 410.762025 45.038684 
L 421.916185 64.30171 
L 427.493265 61.549849 
L 433.070345 64.30171 
L 444.224506 34.948528 
L 449.801586 48.707832 
L 455.378666 39.534962 
L 460.955746 41.369536 
L 466.532827 40.452249 
L 477.686987 44.121397 
L 483.264067 48.707832 
L 488.841147 46.873258 
L 494.418228 52.376979 
L 499.995308 64.30171 
L 505.572388 72.557292 
L 522.303629 67.05357 
L 527.880709 71.640005 
L 533.457789 69.805431 
L 539.034869 71.640005 
L 544.611949 70.722718 
L 550.18903 72.557292 
L 555.76611 59.715275 
L 561.34319 48.707832 
L 566.92027 56.963414 
L 572.49735 56.046127 
L 578.07443 52.376979 
L 583.651511 52.376979 
L 589.228591 56.963414 
L 594.805671 64.30171 
L 600.382751 50.542406 
L 605.959831 61.549849 
L 611.536912 58.797988 
L 617.113992 57.880701 
L 622.691072 68.888144 
L 628.268152 58.797988 
L 633.845232 67.970857 
L 639.422313 65.218996 
L 644.999393 64.30171 
L 650.576473 66.136283 
L 656.153553 73.474579 
L 661.730633 68.888144 
L 667.307714 66.136283 
L 672.884794 67.970857 
L 678.461874 65.218996 
L 684.038954 67.970857 
L 689.616034 67.05357 
L 700.770195 68.888144 
L 706.347275 66.136283 
L 711.924355 71.640005 
L 717.501435 72.557292 
L 723.078515 80.812874 
L 728.655596 75.309153 
L 734.232676 81.730161 
L 745.386836 78.9783 
L 750.963916 79.895587 
L 753.752456 78.9783 
L 756.540997 78.9783 
L 762.118077 81.730161 
L 767.695157 76.22644 
L 778.849317 78.061013 
L 784.426398 70.722718 
L 790.003478 73.474579 
L 795.580558 82.647448 
L 801.157638 77.143726 
L 806.734718 82.647448 
L 812.311798 103.745047 
L 817.888879 97.324039 
L 823.465959 100.993187 
L 829.043039 101.910473 
L 840.197199 110.166056 
L 845.77428 101.910473 
L 851.35136 104.662334 
L 856.92844 103.745047 
L 862.50552 99.158613 
L 868.0826 86.316596 
L 873.659681 88.15117 
L 879.236761 89.068457 
L 884.813841 80.812874 
L 890.390921 82.647448 
L 895.968001 86.316596 
L 901.545082 85.399309 
L 907.122162 90.90303 
L 912.699242 94.572178 
L 918.276322 95.489465 
L 918.276322 95.489465 
" clip-path="url(#p620db69fd2)" style="fill: none; stroke: #f87d29; stroke-opacity: 0.95; stroke-width: 1.3; stroke-linecap: square"/>
   </g>
   <g id="line2d_29">
    <path d="M 64.983053 105.579621 
L 70.560133 100.0759 
L 81.714293 97.324039 
L 87.291374 98.241326 
L 92.868454 100.0759 
L 98.445534 87.233883 
L 104.022614 79.895587 
L 109.599694 78.061013 
L 115.176775 74.391866 
L 120.753855 73.474579 
L 126.330935 79.895587 
L 131.908015 83.564735 
L 143.062176 89.068457 
L 154.216336 92.737604 
L 159.793416 80.812874 
L 165.370496 85.399309 
L 170.947577 82.647448 
L 176.524657 85.399309 
L 182.101737 85.399309 
L 187.678817 69.805431 
L 193.255897 66.136283 
L 198.832977 65.218996 
L 209.987138 69.805431 
L 215.564218 72.557292 
L 226.718378 70.722718 
L 232.295459 64.30171 
L 237.872539 62.467136 
L 243.449619 82.647448 
L 249.026699 89.068457 
L 254.603779 87.233883 
L 260.18086 89.068457 
L 265.75794 85.399309 
L 271.33502 86.316596 
L 276.9121 89.985743 
L 282.48918 86.316596 
L 288.066261 84.482022 
L 293.643341 89.985743 
L 299.220421 96.406752 
L 304.797501 90.90303 
L 310.374581 89.068457 
L 315.951661 94.572178 
L 321.528742 89.068457 
L 327.105822 84.482022 
L 332.682902 92.737604 
L 338.259982 89.068457 
L 343.837062 98.241326 
L 349.414143 89.985743 
L 354.991223 95.489465 
L 360.568303 78.9783 
L 366.145383 100.993187 
L 371.722463 105.579621 
L 377.299544 89.068457 
L 382.876624 98.241326 
L 388.453704 94.572178 
L 394.030784 98.241326 
L 399.607864 96.406752 
L 405.184945 84.482022 
L 410.762025 84.482022 
L 421.916185 76.22644 
L 427.493265 77.143726 
L 438.647426 77.143726 
L 441.435966 85.399309 
L 444.224506 92.737604 
L 449.801586 99.158613 
L 455.378666 88.15117 
L 460.955746 110.166056 
L 466.532827 107.414195 
L 472.109907 99.158613 
L 477.686987 104.662334 
L 483.264067 106.496908 
L 488.841147 99.158613 
L 494.418228 107.414195 
L 499.995308 90.90303 
L 505.572388 86.316596 
L 511.149468 82.647448 
L 522.303629 86.316596 
L 527.880709 81.730161 
L 533.457789 85.399309 
L 539.034869 82.647448 
L 544.611949 83.564735 
L 550.18903 88.15117 
L 555.76611 111.083343 
L 561.34319 111.083343 
L 566.92027 115.669777 
L 572.49735 115.669777 
L 578.07443 118.421638 
L 583.651511 112.917917 
L 589.228591 112.917917 
L 594.805671 120.256212 
L 600.382751 109.248769 
L 605.959831 115.669777 
L 611.536912 118.421638 
L 617.113992 107.414195 
L 622.691072 122.090786 
L 633.845232 112.917917 
L 639.422313 128.511794 
L 644.999393 114.75249 
L 650.576473 117.504351 
L 656.153553 117.504351 
L 661.730633 123.92536 
L 667.307714 117.504351 
L 672.884794 114.75249 
L 678.461874 118.421638 
L 684.038954 126.677221 
L 689.616034 133.098229 
L 695.193114 128.511794 
L 700.770195 117.504351 
L 706.347275 121.173499 
L 711.924355 123.92536 
L 717.501435 128.511794 
L 723.078515 119.338925 
L 728.655596 102.82776 
L 734.232676 99.158613 
L 745.386836 100.993187 
L 750.963916 99.158613 
L 756.540997 112.00063 
L 762.118077 115.669777 
L 767.695157 124.842647 
L 773.272237 131.263655 
L 778.849317 136.767377 
L 784.426398 136.767377 
L 790.003478 134.932803 
L 795.580558 136.767377 
L 801.157638 132.180942 
L 806.734718 122.090786 
L 812.311798 107.414195 
L 817.888879 109.248769 
L 823.465959 104.662334 
L 829.043039 110.166056 
L 840.197199 109.248769 
L 845.77428 109.248769 
L 851.35136 104.662334 
L 856.92844 102.82776 
L 862.50552 122.090786 
L 868.0826 134.015516 
L 873.659681 140.436524 
L 879.236761 136.767377 
L 884.813841 143.188385 
L 890.390921 139.519237 
L 895.968001 145.022959 
L 901.545082 144.105672 
L 907.122162 140.436524 
L 912.699242 133.098229 
L 918.276322 133.098229 
L 918.276322 133.098229 
" clip-path="url(#p620db69fd2)" style="fill: none; stroke: #ee6410; stroke-opacity: 0.95; stroke-width: 1.3; stroke-linecap: square"/>
   </g>
   <g id="line2d_30">
    <path d="M 64.983053 122.090786 
L 70.560133 119.338925 
L 81.714293 120.256212 
L 87.291374 112.00063 
L 92.868454 111.083343 
L 98.445534 94.572178 
L 104.022614 90.90303 
L 109.599694 83.564735 
L 115.176775 91.820317 
L 120.753855 79.895587 
L 126.330935 79.895587 
L 131.908015 120.256212 
L 137.485095 93.654891 
L 143.062176 104.662334 
L 148.639256 109.248769 
L 154.216336 106.496908 
L 159.793416 95.489465 
L 165.370496 103.745047 
L 170.947577 103.745047 
L 176.524657 108.331482 
L 182.101737 107.414195 
L 187.678817 81.730161 
L 193.255897 74.391866 
L 198.832977 63.384423 
L 209.987138 64.30171 
L 215.564218 70.722718 
L 221.141298 56.963414 
L 226.718378 62.467136 
L 232.295459 63.384423 
L 237.872539 95.489465 
L 243.449619 99.158613 
L 249.026699 104.662334 
L 254.603779 89.985743 
L 260.18086 82.647448 
L 265.75794 100.993187 
L 271.33502 95.489465 
L 276.9121 98.241326 
L 282.48918 104.662334 
L 288.066261 95.489465 
L 293.643341 94.572178 
L 299.220421 100.0759 
L 304.797501 99.158613 
L 310.374581 93.654891 
L 315.951661 91.820317 
L 321.528742 102.82776 
L 327.105822 100.0759 
L 338.259982 111.083343 
L 343.837062 94.572178 
L 349.414143 96.406752 
L 354.991223 103.745047 
L 360.568303 105.579621 
L 366.145383 96.406752 
L 371.722463 100.0759 
L 377.299544 109.248769 
L 382.876624 119.338925 
L 388.453704 106.496908 
L 394.030784 121.173499 
L 399.607864 97.324039 
L 405.184945 117.504351 
L 410.762025 100.993187 
L 421.916185 71.640005 
L 427.493265 65.218996 
L 433.070345 68.888144 
L 438.647426 66.136283 
L 444.224506 106.496908 
L 449.801586 86.316596 
L 455.378666 102.82776 
L 460.955746 100.0759 
L 466.532827 105.579621 
L 472.109907 123.008073 
L 477.686987 114.75249 
L 483.264067 130.346368 
L 488.841147 126.677221 
L 494.418228 101.910473 
L 499.995308 72.557292 
L 505.572388 68.888144 
L 511.149468 64.30171 
L 522.303629 61.549849 
L 527.880709 57.880701 
L 533.457789 59.715275 
L 539.034869 64.30171 
L 544.611949 65.218996 
L 550.18903 95.489465 
L 555.76611 89.068457 
L 561.34319 134.932803 
L 566.92027 132.180942 
L 572.49735 124.842647 
L 578.07443 106.496908 
L 583.651511 106.496908 
L 589.228591 107.414195 
L 594.805671 111.083343 
L 600.382751 122.090786 
L 605.959831 156.030402 
L 611.536912 134.932803 
L 617.113992 137.684664 
L 622.691072 111.083343 
L 628.268152 106.496908 
L 633.845232 110.166056 
L 639.422313 104.662334 
L 644.999393 115.669777 
L 650.576473 138.601951 
L 656.153553 127.594507 
L 661.730633 137.684664 
L 667.307714 144.105672 
L 672.884794 163.368698 
L 678.461874 152.361254 
L 684.038954 116.587064 
L 689.616034 129.429081 
L 695.193114 134.932803 
L 700.770195 162.451411 
L 706.347275 158.782263 
L 711.924355 152.361254 
L 717.501435 144.105672 
L 723.078515 112.00063 
L 728.655596 89.068457 
L 734.232676 89.068457 
L 745.386836 84.482022 
L 750.963916 91.820317 
L 756.540997 144.105672 
L 762.118077 122.090786 
L 767.695157 125.759934 
L 773.272237 134.015516 
L 778.849317 134.932803 
L 784.426398 175.293428 
L 790.003478 159.69955 
L 795.580558 163.368698 
L 801.157638 169.789706 
L 806.734718 134.015516 
L 812.311798 96.406752 
L 817.888879 93.654891 
L 823.465959 85.399309 
L 829.043039 82.647448 
L 840.197199 84.482022 
L 845.77428 90.90303 
L 851.35136 102.82776 
L 856.92844 91.820317 
L 862.50552 121.173499 
L 868.0826 139.519237 
L 873.659681 121.173499 
L 879.236761 143.188385 
L 884.813841 136.767377 
L 890.390921 160.616837 
L 895.968001 129.429081 
L 901.545082 166.120558 
L 907.122162 164.285984 
L 912.699242 165.203271 
L 918.276322 174.376141 
L 918.276322 174.376141 
" clip-path="url(#p620db69fd2)" style="fill: none; stroke: #dd4d04; stroke-opacity: 0.95; stroke-width: 1.3; stroke-linecap: square"/>
   </g>
   <g id="patch_23">
    <path d="M 47.917188 228.954713 
L 47.917188 17.061433 
" style="fill: none; stroke: #cbd5e1; stroke-width: 0.8; stroke-linejoin: miter; stroke-linecap: square"/>
   </g>
   <g id="patch_24">
    <path d="M 935.342187 228.954713 
L 935.342187 17.061433 
" style="fill: none; stroke: #cbd5e1; stroke-width: 0.8; stroke-linejoin: miter; stroke-linecap: square"/>
   </g>
   <g id="patch_25">
    <path d="M 47.917188 228.954713 
L 935.342187 228.954713 
" style="fill: none; stroke: #cbd5e1; stroke-width: 0.8; stroke-linejoin: miter; stroke-linecap: square"/>
   </g>
   <g id="patch_26">
    <path d="M 47.917188 17.061433 
L 935.342187 17.061433 
" style="fill: none; stroke: #cbd5e1; stroke-width: 0.8; stroke-linejoin: miter; stroke-linecap: square"/>
   </g>
   <g id="text_15">
    <!-- ACC -->
    <g style="fill: #475569" transform="translate(48.19762 13.27875) scale(0.08 -0.08)">
     <defs>
      <path id="DejaVuSans-41" d="M 2188 4044 
L 1331 1722 
L 3047 1722 
L 2188 4044 
z
M 1831 4666 
L 2547 4666 
L 4325 0 
L 3669 0 
L 3244 1197 
L 1141 1197 
L 716 0 
L 50 0 
L 1831 4666 
z
" transform="scale(0.015625)"/>
     </defs>
     <use xlink:href="#DejaVuSans-41"/>
     <use xlink:href="#DejaVuSans-43" transform="translate(66.658203 0)"/>
     <use xlink:href="#DejaVuSans-43" transform="translate(136.482422 0)"/>
    </g>
   </g>
   <g id="text_16">
    <!-- OC -->
    <g style="fill: #475569" transform="translate(78.560959 13.27875) scale(0.08 -0.08)">
     <defs>
      <path id="DejaVuSans-4f" d="M 2522 4238 
Q 1834 4238 1429 3725 
Q 1025 3213 1025 2328 
Q 1025 1447 1429 934 
Q 1834 422 2522 422 
Q 3209 422 3611 934 
Q 4013 1447 4013 2328 
Q 4013 3213 3611 3725 
Q 3209 4238 2522 4238 
z
M 2522 4750 
Q 3503 4750 4090 4092 
Q 4678 3434 4678 2328 
Q 4678 1225 4090 567 
Q 3503 -91 2522 -91 
Q 1538 -91 948 565 
Q 359 1222 359 2328 
Q 359 3434 948 4092 
Q 1538 4750 2522 4750 
z
" transform="scale(0.015625)"/>
     </defs>
     <use xlink:href="#DejaVuSans-4f"/>
     <use xlink:href="#DejaVuSans-43" transform="translate(78.710938 0)"/>
    </g>
   </g>
   <g id="text_17">
    <!-- FCS -->
    <g style="fill: #475569" transform="translate(110.33219 13.27875) scale(0.08 -0.08)">
     <defs>
      <path id="DejaVuSans-46" d="M 628 4666 
L 3309 4666 
L 3309 4134 
L 1259 4134 
L 1259 2759 
L 3109 2759 
L 3109 2228 
L 1259 2228 
L 1259 0 
L 628 0 
L 628 4666 
z
" transform="scale(0.015625)"/>
      <path id="DejaVuSans-53" d="M 3425 4513 
L 3425 3897 
Q 3066 4069 2747 4153 
Q 2428 4238 2131 4238 
Q 1616 4238 1336 4038 
Q 1056 3838 1056 3469 
Q 1056 3159 1242 3001 
Q 1428 2844 1947 2747 
L 2328 2669 
Q 3034 2534 3370 2195 
Q 3706 1856 3706 1288 
Q 3706 609 3251 259 
Q 2797 -91 1919 -91 
Q 1588 -91 1214 -16 
Q 841 59 441 206 
L 441 856 
Q 825 641 1194 531 
Q 1563 422 1919 422 
Q 2459 422 2753 634 
Q 3047 847 3047 1241 
Q 3047 1584 2836 1778 
Q 2625 1972 2144 2069 
L 1759 2144 
Q 1053 2284 737 2584 
Q 422 2884 422 3419 
Q 422 4038 858 4394 
Q 1294 4750 2059 4750 
Q 2388 4750 2728 4690 
Q 3069 4631 3425 4513 
z
" transform="scale(0.015625)"/>
     </defs>
     <use xlink:href="#DejaVuSans-46"/>
     <use xlink:href="#DejaVuSans-43" transform="translate(57.519531 0)"/>
     <use xlink:href="#DejaVuSans-53" transform="translate(127.34375 0)"/>
    </g>
   </g>
   <g id="text_18">
    <!-- SR -->
    <g style="fill: #475569" transform="translate(151.686126 13.27875) scale(0.08 -0.08)">
     <defs>
      <path id="DejaVuSans-52" d="M 2841 2188 
Q 3044 2119 3236 1894 
Q 3428 1669 3622 1275 
L 4263 0 
L 3584 0 
L 2988 1197 
Q 2756 1666 2539 1819 
Q 2322 1972 1947 1972 
L 1259 1972 
L 1259 0 
L 628 0 
L 628 4666 
L 2053 4666 
Q 2853 4666 3247 4331 
Q 3641 3997 3641 3322 
Q 3641 2881 3436 2590 
Q 3231 2300 2841 2188 
z
M 1259 4147 
L 1259 2491 
L 2053 2491 
Q 2509 2491 2742 2702 
Q 2975 2913 2975 3322 
Q 2975 3731 2742 3939 
Q 2509 4147 2053 4147 
L 1259 4147 
z
" transform="scale(0.015625)"/>
     </defs>
     <use xlink:href="#DejaVuSans-53"/>
     <use xlink:href="#DejaVuSans-52" transform="translate(63.476562 0)"/>
    </g>
   </g>
   <g id="text_19">
    <!-- FFC -->
    <g style="fill: #475569" transform="translate(202.592763 13.27875) scale(0.08 -0.08)">
     <use xlink:href="#DejaVuSans-46"/>
     <use xlink:href="#DejaVuSans-46" transform="translate(57.519531 0)"/>
     <use xlink:href="#DejaVuSans-43" transform="translate(115.039062 0)"/>
    </g>
   </g>
   <g id="text_20">
    <!-- SS -->
    <g style="fill: #475569" transform="translate(308.084371 13.27875) scale(0.08 -0.08)">
     <use xlink:href="#DejaVuSans-53"/>
     <use xlink:href="#DejaVuSans-53" transform="translate(63.476562 0)"/>
    </g>
   </g>
   <g id="text_21">
    <!-- OC -->
    <g style="fill: #475569" transform="translate(390.877449 13.27875) scale(0.08 -0.08)">
     <use xlink:href="#DejaVuSans-4f"/>
     <use xlink:href="#DejaVuSans-43" transform="translate(78.710938 0)"/>
    </g>
   </g>
   <g id="text_22">
    <!-- FCS -->
    <g style="fill: #475569" transform="translate(419.86014 13.27875) scale(0.08 -0.08)">
     <use xlink:href="#DejaVuSans-46"/>
     <use xlink:href="#DejaVuSans-43" transform="translate(57.519531 0)"/>
     <use xlink:href="#DejaVuSans-53" transform="translate(127.34375 0)"/>
    </g>
   </g>
   <g id="text_23">
    <!-- SR -->
    <g style="fill: #475569" transform="translate(466.791157 13.27875) scale(0.08 -0.08)">
     <use xlink:href="#DejaVuSans-53"/>
     <use xlink:href="#DejaVuSans-52" transform="translate(63.476562 0)"/>
    </g>
   </g>
   <g id="text_24">
    <!-- FFC -->
    <g style="fill: #475569" transform="translate(517.697794 13.27875) scale(0.08 -0.08)">
     <use xlink:href="#DejaVuSans-46"/>
     <use xlink:href="#DejaVuSans-46" transform="translate(57.519531 0)"/>
     <use xlink:href="#DejaVuSans-43" transform="translate(115.039062 0)"/>
    </g>
   </g>
   <g id="text_25">
    <!-- SS -->
    <g style="fill: #475569" transform="translate(620.400862 13.27875) scale(0.08 -0.08)">
     <use xlink:href="#DejaVuSans-53"/>
     <use xlink:href="#DejaVuSans-53" transform="translate(63.476562 0)"/>
    </g>
   </g>
   <g id="text_26">
    <!-- OC -->
    <g style="fill: #475569" transform="translate(703.19394 13.27875) scale(0.08 -0.08)">
     <use xlink:href="#DejaVuSans-4f"/>
     <use xlink:href="#DejaVuSans-43" transform="translate(78.710938 0)"/>
    </g>
   </g>
   <g id="text_27">
    <!-- FCS -->
    <g style="fill: #475569" transform="translate(732.176631 13.27875) scale(0.08 -0.08)">
     <use xlink:href="#DejaVuSans-46"/>
     <use xlink:href="#DejaVuSans-43" transform="translate(57.519531 0)"/>
     <use xlink:href="#DejaVuSans-53" transform="translate(127.34375 0)"/>
    </g>
   </g>
   <g id="text_28">
    <!-- SR -->
    <g style="fill: #475569" transform="translate(776.319107 13.27875) scale(0.08 -0.08)">
     <use xlink:href="#DejaVuSans-53"/>
     <use xlink:href="#DejaVuSans-52" transform="translate(63.476562 0)"/>
    </g>
   </g>
   <g id="text_29">
    <!-- FFC -->
    <g style="fill: #475569" transform="translate(827.225744 13.27875) scale(0.08 -0.08)">
     <use xlink:href="#DejaVuSans-46"/>
     <use xlink:href="#DejaVuSans-46" transform="translate(57.519531 0)"/>
     <use xlink:href="#DejaVuSans-43" transform="translate(115.039062 0)"/>
    </g>
   </g>
   <g id="text_30">
    <!-- SS -->
    <g style="fill: #475569" transform="translate(888.100711 13.27875) scale(0.08 -0.08)">
     <use xlink:href="#DejaVuSans-53"/>
     <use xlink:href="#DejaVuSans-53" transform="translate(63.476562 0)"/>
    </g>
   </g>
   <g id="legend_1">
    <g id="line2d_31">
     <path d="M 847.389687 27.540183 
L 855.389687 27.540183 
L 863.389687 27.540183 
" style="fill: none; stroke: #fdc38d; stroke-opacity: 0.95; stroke-width: 1.3; stroke-linecap: square"/>
    </g>
    <g id="text_31">
     <!-- T1 -->
     <g transform="translate(869.789687 30.340183) scale(0.08 -0.08)">
      <use xlink:href="#DejaVuSans-54"/>
      <use xlink:href="#DejaVuSans-31" transform="translate(61.083984 0)"/>
     </g>
    </g>
    <g id="line2d_32">
     <path d="M 847.389687 39.282683 
L 855.389687 39.282683 
L 863.389687 39.282683 
" style="fill: none; stroke: #fdac67; stroke-opacity: 0.95; stroke-width: 1.3; stroke-linecap: square"/>
    </g>
    <g id="text_32">
     <!-- T2 -->
     <g transform="translate(869.789687 42.082683) scale(0.08 -0.08)">
      <use xlink:href="#DejaVuSans-54"/>
      <use xlink:href="#DejaVuSans-32" transform="translate(61.083984 0)"/>
     </g>
    </g>
    <g id="line2d_33">
     <path d="M 847.389687 51.025183 
L 855.389687 51.025183 
L 863.389687 51.025183 
" style="fill: none; stroke: #fd9547; stroke-opacity: 0.95; stroke-width: 1.3; stroke-linecap: square"/>
    </g>
    <g id="text_33">
     <!-- T3 -->
     <g transform="translate(869.789687 53.825183) scale(0.08 -0.08)">
      <use xlink:href="#DejaVuSans-54"/>
      <use xlink:href="#DejaVuSans-33" transform="translate(61.083984 0)"/>
     </g>
    </g>
    <g id="line2d_34">
     <path d="M 895.765937 27.540183 
L 903.765937 27.540183 
L 911.765937 27.540183 
" style="fill: none; stroke: #f87d29; stroke-opacity: 0.95; stroke-width: 1.3; stroke-linecap: square"/>
    </g>
    <g id="text_34">
     <!-- T4 -->
     <g transform="translate(918.165937 30.340183) scale(0.08 -0.08)">
      <use xlink:href="#DejaVuSans-54"/>
      <use xlink:href="#DejaVuSans-34" transform="translate(61.083984 0)"/>
     </g>
    </g>
    <g id="line2d_35">
     <path d="M 895.765937 39.282683 
L 903.765937 39.282683 
L 911.765937 39.282683 
" style="fill: none; stroke: #ee6410; stroke-opacity: 0.95; stroke-width: 1.3; stroke-linecap: square"/>
    </g>
    <g id="text_35">
     <!-- T5 -->
     <g transform="translate(918.165937 42.082683) scale(0.08 -0.08)">
      <use xlink:href="#DejaVuSans-54"/>
      <use xlink:href="#DejaVuSans-35" transform="translate(61.083984 0)"/>
     </g>
    </g>
    <g id="line2d_36">
     <path d="M 895.765937 51.025183 
L 903.765937 51.025183 
L 911.765937 51.025183 
" style="fill: none; stroke: #dd4d04; stroke-opacity: 0.95; stroke-width: 1.3; stroke-linecap: square"/>
    </g>
    <g id="text_36">
     <!-- T6 -->
     <g transform="translate(918.165937 53.825183) scale(0.08 -0.08)">
      <use xlink:href="#DejaVuSans-54"/>
      <use xlink:href="#DejaVuSans-36" transform="translate(61.083984 0)"/>
     </g>
    </g>
   </g>
  </g>
 </g>
 <defs>
  <clipPath id="p620db69fd2">
   <rect x="47.917188" y="17.061433" width="887.425" height="211.89328"/>
  </clipPath>
 </defs>
</svg>
