<?xml version="1.0" encoding="utf-8" standalone="no"?>
<!DOCTYPE svg PUBLIC "-//W3C//DTD SVG 1.1//EN"
  "http://www.w3.org/Graphics/SVG/1.1/DTD/svg11.dtd">
<svg xmlns:xlink="http://www.w3.org/1999/xlink" width="942.516875pt" height="265.54315pt" viewBox="0 0 942.516875 265.54315" xmlns="http://www.w3.org/2000/svg" version="1.1">
 <metadata>
  <rdf:RDF xmlns:dc="http://purl.org/dc/elements/1.1/" xmlns:cc="http://creativecommons.org/ns#" xmlns:rdf="http://www.w3.org/1999/02/22-rdf-syntax-ns#">
   <cc:Work>
    <dc:type rdf:resource="http://purl.org/dc/dcmitype/StillImage"/>
    <dc:date>2026-04-17T17:36:51.374367</dc:date>
    <dc:format>image/svg+xml</dc:format>
    <dc:creator>
     <cc:Agent>
      <dc:title>Matplotlib v3.10.8, https://matplotlib.org/</dc:title>
     </cc:Agent>
    </dc:creator>
   </cc:Work>
  </rdf:RDF>
 </metadata>
 <defs>
  <style type="text/css">*{stroke-linejoin: round; stroke-linecap: butt}</style>
 </defs>
 <g id="figure_1">
  <g id="patch_1">
   <path d="M 0 265.54315 
L 942.516875 265.54315 
L 942.516875 0 
L 0 0 
z
" style="fill: #ffffff"/>
  </g>
  <g id="axes_1">
   <g id="patch_2">
    <path d="M 33.604375 228.954713 
L 935.316875 228.954713 
L 935.316875 17.061433 
L 33.604375 17.061433 
z
" style="fill: #ffffff"/>
   </g>
   <g id="patch_3">
    <path d="M 33.604375 228.954713 
L 214.979315 228.954713 
L 214.979315 17.061433 
L 33.604375 17.061433 
z
" clip-path="url(#p4e75d8efe8)" style="fill: #f8fafc; opacity: 0.45"/>
   </g>
   <g id="patch_4">
    <path d="M 214.979315 228.954713 
L 242.377515 228.954713 
L 242.377515 17.061433 
L 214.979315 17.061433 
z
" clip-path="url(#p4e75d8efe8)" style="fill: #eff6ff; opacity: 0.45"/>
   </g>
   <g id="patch_5">
    <path d="M 242.377515 228.954713 
L 269.775715 228.954713 
L 269.775715 17.061433 
L 242.377515 17.061433 
z
" clip-path="url(#p4e75d8efe8)" style="fill: #fef3c7; opacity: 0.45"/>
   </g>
   <g id="patch_6">
    <path d="M 269.775715 228.954713 
L 315.439381 228.954713 
L 315.439381 17.061433 
L 269.775715 17.061433 
z
" clip-path="url(#p4e75d8efe8)" style="fill: #dcfce7; opacity: 0.45"/>
   </g>
   <g id="patch_7">
    <path d="M 315.439381 228.954713 
L 356.53668 228.954713 
L 356.53668 17.061433 
L 315.439381 17.061433 
z
" clip-path="url(#p4e75d8efe8)" style="fill: #fee2e2; opacity: 0.45"/>
   </g>
   <g id="patch_8">
    <path d="M 356.53668 228.954713 
L 361.103047 228.954713 
L 361.103047 17.061433 
L 356.53668 17.061433 
z
" clip-path="url(#p4e75d8efe8)" style="fill: #ede9fe; opacity: 0.45"/>
   </g>
   <g id="patch_9">
    <path d="M 361.103047 228.954713 
L 475.262212 228.954713 
L 475.262212 17.061433 
L 361.103047 17.061433 
z
" clip-path="url(#p4e75d8efe8)" style="fill: #f8fafc; opacity: 0.45"/>
   </g>
   <g id="patch_10">
    <path d="M 475.262212 228.954713 
L 498.094045 228.954713 
L 498.094045 17.061433 
L 475.262212 17.061433 
z
" clip-path="url(#p4e75d8efe8)" style="fill: #eff6ff; opacity: 0.45"/>
   </g>
   <g id="patch_11">
    <path d="M 498.094045 228.954713 
L 525.492245 228.954713 
L 525.492245 17.061433 
L 498.094045 17.061433 
z
" clip-path="url(#p4e75d8efe8)" style="fill: #fef3c7; opacity: 0.45"/>
   </g>
   <g id="patch_12">
    <path d="M 525.492245 228.954713 
L 566.589544 228.954713 
L 566.589544 17.061433 
L 525.492245 17.061433 
z
" clip-path="url(#p4e75d8efe8)" style="fill: #dcfce7; opacity: 0.45"/>
   </g>
   <g id="patch_13">
    <path d="M 566.589544 228.954713 
L 612.253211 228.954713 
L 612.253211 17.061433 
L 566.589544 17.061433 
z
" clip-path="url(#p4e75d8efe8)" style="fill: #fee2e2; opacity: 0.45"/>
   </g>
   <g id="patch_14">
    <path d="M 612.253211 228.954713 
L 616.819577 228.954713 
L 616.819577 17.061433 
L 612.253211 17.061433 
z
" clip-path="url(#p4e75d8efe8)" style="fill: #ede9fe; opacity: 0.45"/>
   </g>
   <g id="patch_15">
    <path d="M 616.819577 228.954713 
L 730.978743 228.954713 
L 730.978743 17.061433 
L 616.819577 17.061433 
z
" clip-path="url(#p4e75d8efe8)" style="fill: #f8fafc; opacity: 0.45"/>
   </g>
   <g id="patch_16">
    <path d="M 730.978743 228.954713 
L 753.810576 228.954713 
L 753.810576 17.061433 
L 730.978743 17.061433 
z
" clip-path="url(#p4e75d8efe8)" style="fill: #eff6ff; opacity: 0.45"/>
   </g>
   <g id="patch_17">
    <path d="M 753.810576 228.954713 
L 781.208775 228.954713 
L 781.208775 17.061433 
L 753.810576 17.061433 
z
" clip-path="url(#p4e75d8efe8)" style="fill: #fef3c7; opacity: 0.45"/>
   </g>
   <g id="patch_18">
    <path d="M 781.208775 228.954713 
L 822.306075 228.954713 
L 822.306075 17.061433 
L 781.208775 17.061433 
z
" clip-path="url(#p4e75d8efe8)" style="fill: #dcfce7; opacity: 0.45"/>
   </g>
   <g id="patch_19">
    <path d="M 822.306075 228.954713 
L 872.536108 228.954713 
L 872.536108 17.061433 
L 822.306075 17.061433 
z
" clip-path="url(#p4e75d8efe8)" style="fill: #fee2e2; opacity: 0.45"/>
   </g>
   <g id="patch_20">
    <path d="M 872.536108 228.954713 
L 913.633407 228.954713 
L 913.633407 17.061433 
L 872.536108 17.061433 
z
" clip-path="url(#p4e75d8efe8)" style="fill: #ede9fe; opacity: 0.45"/>
   </g>
   <g id="patch_21">
    <path d="M 913.633407 228.954713 
L 918.199774 228.954713 
L 918.199774 17.061433 
L 913.633407 17.061433 
z
" clip-path="url(#p4e75d8efe8)" style="fill: #f8fafc; opacity: 0.45"/>
   </g>
   <g id="matplotlib.axis_1">
    <g id="xtick_1">
     <g id="line2d_1">
      <path d="M 146.483816 228.954713 
L 146.483816 17.061433 
" clip-path="url(#p4e75d8efe8)" style="fill: none; stroke: #eef2f7; stroke-width: 0.55; stroke-linecap: square"/>
     </g>
     <g id="line2d_2">
      <defs>
       <path id="mab9a78fc5e" d="M 0 0 
L 0 3.5 
" style="stroke: #000000; stroke-width: 0.8"/>
      </defs>
      <g>
       <use xlink:href="#mab9a78fc5e" x="146.483816" y="228.954713" style="stroke: #000000; stroke-width: 0.8"/>
      </g>
     </g>
     <g id="text_1">
      <!-- 25 -->
      <g transform="translate(140.757566 242.793307) scale(0.09 -0.09)">
       <defs>
        <path id="DejaVuSans-32" d="M 1228 531 
L 3431 531 
L 3431 0 
L 469 0 
L 469 531 
Q 828 903 1448 1529 
Q 2069 2156 2228 2338 
Q 2531 2678 2651 2914 
Q 2772 3150 2772 3378 
Q 2772 3750 2511 3984 
Q 2250 4219 1831 4219 
Q 1534 4219 1204 4116 
Q 875 4013 500 3803 
L 500 4441 
Q 881 4594 1212 4672 
Q 1544 4750 1819 4750 
Q 2544 4750 2975 4387 
Q 3406 4025 3406 3419 
Q 3406 3131 3298 2873 
Q 3191 2616 2906 2266 
Q 2828 2175 2409 1742 
Q 1991 1309 1228 531 
z
" transform="scale(0.015625)"/>
        <path id="DejaVuSans-35" d="M 691 4666 
L 3169 4666 
L 3169 4134 
L 1269 4134 
L 1269 2991 
Q 1406 3038 1543 3061 
Q 1681 3084 1819 3084 
Q 2600 3084 3056 2656 
Q 3513 2228 3513 1497 
Q 3513 744 3044 326 
Q 2575 -91 1722 -91 
Q 1428 -91 1123 -41 
Q 819 9 494 109 
L 494 744 
Q 775 591 1075 516 
Q 1375 441 1709 441 
Q 2250 441 2565 725 
Q 2881 1009 2881 1497 
Q 2881 1984 2565 2268 
Q 2250 2553 1709 2553 
Q 1456 2553 1204 2497 
Q 953 2441 691 2322 
L 691 4666 
z
" transform="scale(0.015625)"/>
       </defs>
       <use xlink:href="#DejaVuSans-32"/>
       <use xlink:href="#DejaVuSans-35" transform="translate(63.623047 0)"/>
      </g>
     </g>
    </g>
    <g id="xtick_2">
     <g id="line2d_3">
      <path d="M 260.642981 228.954713 
L 260.642981 17.061433 
" clip-path="url(#p4e75d8efe8)" style="fill: none; stroke: #eef2f7; stroke-width: 0.55; stroke-linecap: square"/>
     </g>
     <g id="line2d_4">
      <g>
       <use xlink:href="#mab9a78fc5e" x="260.642981" y="228.954713" style="stroke: #000000; stroke-width: 0.8"/>
      </g>
     </g>
     <g id="text_2">
      <!-- 50 -->
      <g transform="translate(254.916731 242.793307) scale(0.09 -0.09)">
       <defs>
        <path id="DejaVuSans-30" d="M 2034 4250 
Q 1547 4250 1301 3770 
Q 1056 3291 1056 2328 
Q 1056 1369 1301 889 
Q 1547 409 2034 409 
Q 2525 409 2770 889 
Q 3016 1369 3016 2328 
Q 3016 3291 2770 3770 
Q 2525 4250 2034 4250 
z
M 2034 4750 
Q 2819 4750 3233 4129 
Q 3647 3509 3647 2328 
Q 3647 1150 3233 529 
Q 2819 -91 2034 -91 
Q 1250 -91 836 529 
Q 422 1150 422 2328 
Q 422 3509 836 4129 
Q 1250 4750 2034 4750 
z
" transform="scale(0.015625)"/>
       </defs>
       <use xlink:href="#DejaVuSans-35"/>
       <use xlink:href="#DejaVuSans-30" transform="translate(63.623047 0)"/>
      </g>
     </g>
    </g>
    <g id="xtick_3">
     <g id="line2d_5">
      <path d="M 374.802147 228.954713 
L 374.802147 17.061433 
" clip-path="url(#p4e75d8efe8)" style="fill: none; stroke: #eef2f7; stroke-width: 0.55; stroke-linecap: square"/>
     </g>
     <g id="line2d_6">
      <g>
       <use xlink:href="#mab9a78fc5e" x="374.802147" y="228.954713" style="stroke: #000000; stroke-width: 0.8"/>
      </g>
     </g>
     <g id="text_3">
      <!-- 75 -->
      <g transform="translate(369.075897 242.793307) scale(0.09 -0.09)">
       <defs>
        <path id="DejaVuSans-37" d="M 525 4666 
L 3525 4666 
L 3525 4397 
L 1831 0 
L 1172 0 
L 2766 4134 
L 525 4134 
L 525 4666 
z
" transform="scale(0.015625)"/>
       </defs>
       <use xlink:href="#DejaVuSans-37"/>
       <use xlink:href="#DejaVuSans-35" transform="translate(63.623047 0)"/>
      </g>
     </g>
    </g>
    <g id="xtick_4">
     <g id="line2d_7">
      <path d="M 488.961312 228.954713 
L 488.961312 17.061433 
" clip-path="url(#p4e75d8efe8)" style="fill: none; stroke: #eef2f7; stroke-width: 0.55; stroke-linecap: square"/>
     </g>
     <g id="line2d_8">
      <g>
       <use xlink:href="#mab9a78fc5e" x="488.961312" y="228.954713" style="stroke: #000000; stroke-width: 0.8"/>
      </g>
     </g>
     <g id="text_4">
      <!-- 100 -->
      <g transform="translate(480.371937 242.793307) scale(0.09 -0.09)">
       <defs>
        <path id="DejaVuSans-31" d="M 794 531 
L 1825 531 
L 1825 4091 
L 703 3866 
L 703 4441 
L 1819 4666 
L 2450 4666 
L 2450 531 
L 3481 531 
L 3481 0 
L 794 0 
L 794 531 
z
" transform="scale(0.015625)"/>
       </defs>
       <use xlink:href="#DejaVuSans-31"/>
       <use xlink:href="#DejaVuSans-30" transform="translate(63.623047 0)"/>
       <use xlink:href="#DejaVuSans-30" transform="translate(127.246094 0)"/>
      </g>
     </g>
    </g>
    <g id="xtick_5">
     <g id="line2d_9">
      <path d="M 603.120477 228.954713 
L 603.120477 17.061433 
" clip-path="url(#p4e75d8efe8)" style="fill: none; stroke: #eef2f7; stroke-width: 0.55; stroke-linecap: square"/>
     </g>
     <g id="line2d_10">
      <g>
       <use xlink:href="#mab9a78fc5e" x="603.120477" y="228.954713" style="stroke: #000000; stroke-width: 0.8"/>
      </g>
     </g>
     <g id="text_5">
      <!-- 125 -->
      <g transform="translate(594.531102 242.793307) scale(0.09 -0.09)">
       <use xlink:href="#DejaVuSans-31"/>
       <use xlink:href="#DejaVuSans-32" transform="translate(63.623047 0)"/>
       <use xlink:href="#DejaVuSans-35" transform="translate(127.246094 0)"/>
      </g>
     </g>
    </g>
    <g id="xtick_6">
     <g id="line2d_11">
      <path d="M 717.279643 228.954713 
L 717.279643 17.061433 
" clip-path="url(#p4e75d8efe8)" style="fill: none; stroke: #eef2f7; stroke-width: 0.55; stroke-linecap: square"/>
     </g>
     <g id="line2d_12">
      <g>
       <use xlink:href="#mab9a78fc5e" x="717.279643" y="228.954713" style="stroke: #000000; stroke-width: 0.8"/>
      </g>
     </g>
     <g id="text_6">
      <!-- 150 -->
      <g transform="translate(708.690268 242.793307) scale(0.09 -0.09)">
       <use xlink:href="#DejaVuSans-31"/>
       <use xlink:href="#DejaVuSans-35" transform="translate(63.623047 0)"/>
       <use xlink:href="#DejaVuSans-30" transform="translate(127.246094 0)"/>
      </g>
     </g>
    </g>
    <g id="xtick_7">
     <g id="line2d_13">
      <path d="M 831.438808 228.954713 
L 831.438808 17.061433 
" clip-path="url(#p4e75d8efe8)" style="fill: none; stroke: #eef2f7; stroke-width: 0.55; stroke-linecap: square"/>
     </g>
     <g id="line2d_14">
      <g>
       <use xlink:href="#mab9a78fc5e" x="831.438808" y="228.954713" style="stroke: #000000; stroke-width: 0.8"/>
      </g>
     </g>
     <g id="text_7">
      <!-- 175 -->
      <g transform="translate(822.849433 242.793307) scale(0.09 -0.09)">
       <use xlink:href="#DejaVuSans-31"/>
       <use xlink:href="#DejaVuSans-37" transform="translate(63.623047 0)"/>
       <use xlink:href="#DejaVuSans-35" transform="translate(127.246094 0)"/>
      </g>
     </g>
    </g>
    <g id="text_8">
     <!-- Minutes since session start -->
     <g transform="translate(416.870781 256.263463) scale(0.1 -0.1)">
      <defs>
       <path id="DejaVuSans-4d" d="M 628 4666 
L 1569 4666 
L 2759 1491 
L 3956 4666 
L 4897 4666 
L 4897 0 
L 4281 0 
L 4281 4097 
L 3078 897 
L 2444 897 
L 1241 4097 
L 1241 0 
L 628 0 
L 628 4666 
z
" transform="scale(0.015625)"/>
       <path id="DejaVuSans-69" d="M 603 3500 
L 1178 3500 
L 1178 0 
L 603 0 
L 603 3500 
z
M 603 4863 
L 1178 4863 
L 1178 4134 
L 603 4134 
L 603 4863 
z
" transform="scale(0.015625)"/>
       <path id="DejaVuSans-6e" d="M 3513 2113 
L 3513 0 
L 2938 0 
L 2938 2094 
Q 2938 2591 2744 2837 
Q 2550 3084 2163 3084 
Q 1697 3084 1428 2787 
Q 1159 2491 1159 1978 
L 1159 0 
L 581 0 
L 581 3500 
L 1159 3500 
L 1159 2956 
Q 1366 3272 1645 3428 
Q 1925 3584 2291 3584 
Q 2894 3584 3203 3211 
Q 3513 2838 3513 2113 
z
" transform="scale(0.015625)"/>
       <path id="DejaVuSans-75" d="M 544 1381 
L 544 3500 
L 1119 3500 
L 1119 1403 
Q 1119 906 1312 657 
Q 1506 409 1894 409 
Q 2359 409 2629 706 
Q 2900 1003 2900 1516 
L 2900 3500 
L 3475 3500 
L 3475 0 
L 2900 0 
L 2900 538 
Q 2691 219 2414 64 
Q 2138 -91 1772 -91 
Q 1169 -91 856 284 
Q 544 659 544 1381 
z
M 1991 3584 
L 1991 3584 
z
" transform="scale(0.015625)"/>
       <path id="DejaVuSans-74" d="M 1172 4494 
L 1172 3500 
L 2356 3500 
L 2356 3053 
L 1172 3053 
L 1172 1153 
Q 1172 725 1289 603 
Q 1406 481 1766 481 
L 2356 481 
L 2356 0 
L 1766 0 
Q 1100 0 847 248 
Q 594 497 594 1153 
L 594 3053 
L 172 3053 
L 172 3500 
L 594 3500 
L 594 4494 
L 1172 4494 
z
" transform="scale(0.015625)"/>
       <path id="DejaVuSans-65" d="M 3597 1894 
L 3597 1613 
L 953 1613 
Q 991 1019 1311 708 
Q 1631 397 2203 397 
Q 2534 397 2845 478 
Q 3156 559 3463 722 
L 3463 178 
Q 3153 47 2828 -22 
Q 2503 -91 2169 -91 
Q 1331 -91 842 396 
Q 353 884 353 1716 
Q 353 2575 817 3079 
Q 1281 3584 2069 3584 
Q 2775 3584 3186 3129 
Q 3597 2675 3597 1894 
z
M 3022 2063 
Q 3016 2534 2758 2815 
Q 2500 3097 2075 3097 
Q 1594 3097 1305 2825 
Q 1016 2553 972 2059 
L 3022 2063 
z
" transform="scale(0.015625)"/>
       <path id="DejaVuSans-73" d="M 2834 3397 
L 2834 2853 
Q 2591 2978 2328 3040 
Q 2066 3103 1784 3103 
Q 1356 3103 1142 2972 
Q 928 2841 928 2578 
Q 928 2378 1081 2264 
Q 1234 2150 1697 2047 
L 1894 2003 
Q 2506 1872 2764 1633 
Q 3022 1394 3022 966 
Q 3022 478 2636 193 
Q 2250 -91 1575 -91 
Q 1294 -91 989 -36 
Q 684 19 347 128 
L 347 722 
Q 666 556 975 473 
Q 1284 391 1588 391 
Q 1994 391 2212 530 
Q 2431 669 2431 922 
Q 2431 1156 2273 1281 
Q 2116 1406 1581 1522 
L 1381 1569 
Q 847 1681 609 1914 
Q 372 2147 372 2553 
Q 372 3047 722 3315 
Q 1072 3584 1716 3584 
Q 2034 3584 2315 3537 
Q 2597 3491 2834 3397 
z
" transform="scale(0.015625)"/>
       <path id="DejaVuSans-20" transform="scale(0.015625)"/>
       <path id="DejaVuSans-63" d="M 3122 3366 
L 3122 2828 
Q 2878 2963 2633 3030 
Q 2388 3097 2138 3097 
Q 1578 3097 1268 2742 
Q 959 2388 959 1747 
Q 959 1106 1268 751 
Q 1578 397 2138 397 
Q 2388 397 2633 464 
Q 2878 531 3122 666 
L 3122 134 
Q 2881 22 2623 -34 
Q 2366 -91 2075 -91 
Q 1284 -91 818 406 
Q 353 903 353 1747 
Q 353 2603 823 3093 
Q 1294 3584 2113 3584 
Q 2378 3584 2631 3529 
Q 2884 3475 3122 3366 
z
" transform="scale(0.015625)"/>
       <path id="DejaVuSans-6f" d="M 1959 3097 
Q 1497 3097 1228 2736 
Q 959 2375 959 1747 
Q 959 1119 1226 758 
Q 1494 397 1959 397 
Q 2419 397 2687 759 
Q 2956 1122 2956 1747 
Q 2956 2369 2687 2733 
Q 2419 3097 1959 3097 
z
M 1959 3584 
Q 2709 3584 3137 3096 
Q 3566 2609 3566 1747 
Q 3566 888 3137 398 
Q 2709 -91 1959 -91 
Q 1206 -91 779 398 
Q 353 888 353 1747 
Q 353 2609 779 3096 
Q 1206 3584 1959 3584 
z
" transform="scale(0.015625)"/>
       <path id="DejaVuSans-61" d="M 2194 1759 
Q 1497 1759 1228 1600 
Q 959 1441 959 1056 
Q 959 750 1161 570 
Q 1363 391 1709 391 
Q 2188 391 2477 730 
Q 2766 1069 2766 1631 
L 2766 1759 
L 2194 1759 
z
M 3341 1997 
L 3341 0 
L 2766 0 
L 2766 531 
Q 2569 213 2275 61 
Q 1981 -91 1556 -91 
Q 1019 -91 701 211 
Q 384 513 384 1019 
Q 384 1609 779 1909 
Q 1175 2209 1959 2209 
L 2766 2209 
L 2766 2266 
Q 2766 2663 2505 2880 
Q 2244 3097 1772 3097 
Q 1472 3097 1187 3025 
Q 903 2953 641 2809 
L 641 3341 
Q 956 3463 1253 3523 
Q 1550 3584 1831 3584 
Q 2591 3584 2966 3190 
Q 3341 2797 3341 1997 
z
" transform="scale(0.015625)"/>
       <path id="DejaVuSans-72" d="M 2631 2963 
Q 2534 3019 2420 3045 
Q 2306 3072 2169 3072 
Q 1681 3072 1420 2755 
Q 1159 2438 1159 1844 
L 1159 0 
L 581 0 
L 581 3500 
L 1159 3500 
L 1159 2956 
Q 1341 3275 1631 3429 
Q 1922 3584 2338 3584 
Q 2397 3584 2469 3576 
Q 2541 3569 2628 3553 
L 2631 2963 
z
" transform="scale(0.015625)"/>
      </defs>
      <use xlink:href="#DejaVuSans-4d"/>
      <use xlink:href="#DejaVuSans-69" transform="translate(86.279297 0)"/>
      <use xlink:href="#DejaVuSans-6e" transform="translate(114.0625 0)"/>
      <use xlink:href="#DejaVuSans-75" transform="translate(177.441406 0)"/>
      <use xlink:href="#DejaVuSans-74" transform="translate(240.820312 0)"/>
      <use xlink:href="#DejaVuSans-65" transform="translate(280.029297 0)"/>
      <use xlink:href="#DejaVuSans-73" transform="translate(341.552734 0)"/>
      <use xlink:href="#DejaVuSans-20" transform="translate(393.652344 0)"/>
      <use xlink:href="#DejaVuSans-73" transform="translate(425.439453 0)"/>
      <use xlink:href="#DejaVuSans-69" transform="translate(477.539062 0)"/>
      <use xlink:href="#DejaVuSans-6e" transform="translate(505.322266 0)"/>
      <use xlink:href="#DejaVuSans-63" transform="translate(568.701172 0)"/>
      <use xlink:href="#DejaVuSans-65" transform="translate(623.681641 0)"/>
      <use xlink:href="#DejaVuSans-20" transform="translate(685.205078 0)"/>
      <use xlink:href="#DejaVuSans-73" transform="translate(716.992188 0)"/>
      <use xlink:href="#DejaVuSans-65" transform="translate(769.091797 0)"/>
      <use xlink:href="#DejaVuSans-73" transform="translate(830.615234 0)"/>
      <use xlink:href="#DejaVuSans-73" transform="translate(882.714844 0)"/>
      <use xlink:href="#DejaVuSans-69" transform="translate(934.814453 0)"/>
      <use xlink:href="#DejaVuSans-6f" transform="translate(962.597656 0)"/>
      <use xlink:href="#DejaVuSans-6e" transform="translate(1023.779297 0)"/>
      <use xlink:href="#DejaVuSans-20" transform="translate(1087.158203 0)"/>
      <use xlink:href="#DejaVuSans-73" transform="translate(1118.945312 0)"/>
      <use xlink:href="#DejaVuSans-74" transform="translate(1171.044922 0)"/>
      <use xlink:href="#DejaVuSans-61" transform="translate(1210.253906 0)"/>
      <use xlink:href="#DejaVuSans-72" transform="translate(1271.533203 0)"/>
      <use xlink:href="#DejaVuSans-74" transform="translate(1312.646484 0)"/>
     </g>
    </g>
   </g>
   <g id="matplotlib.axis_2">
    <g id="ytick_1">
     <g id="line2d_15">
      <path d="M 33.604375 195.974523 
L 935.316875 195.974523 
" clip-path="url(#p4e75d8efe8)" style="fill: none; stroke: #eef2f7; stroke-opacity: 0.25; stroke-width: 0.55; stroke-linecap: square"/>
     </g>
     <g id="line2d_16">
      <defs>
       <path id="mc4be8a5382" d="M 0 0 
L -3.5 0 
" style="stroke: #000000; stroke-width: 0.8"/>
      </defs>
      <g>
       <use xlink:href="#mc4be8a5382" x="33.604375" y="195.974523" style="stroke: #000000; stroke-width: 0.8"/>
      </g>
     </g>
     <g id="text_9">
      <!-- 2 -->
      <g transform="translate(20.878125 199.39382) scale(0.09 -0.09)">
       <use xlink:href="#DejaVuSans-32"/>
      </g>
     </g>
    </g>
    <g id="ytick_2">
     <g id="line2d_17">
      <path d="M 33.604375 161.87343 
L 935.316875 161.87343 
" clip-path="url(#p4e75d8efe8)" style="fill: none; stroke: #eef2f7; stroke-opacity: 0.25; stroke-width: 0.55; stroke-linecap: square"/>
     </g>
     <g id="line2d_18">
      <g>
       <use xlink:href="#mc4be8a5382" x="33.604375" y="161.87343" style="stroke: #000000; stroke-width: 0.8"/>
      </g>
     </g>
     <g id="text_10">
      <!-- 3 -->
      <g transform="translate(20.878125 165.292726) scale(0.09 -0.09)">
       <defs>
        <path id="DejaVuSans-33" d="M 2597 2516 
Q 3050 2419 3304 2112 
Q 3559 1806 3559 1356 
Q 3559 666 3084 287 
Q 2609 -91 1734 -91 
Q 1441 -91 1130 -33 
Q 819 25 488 141 
L 488 750 
Q 750 597 1062 519 
Q 1375 441 1716 441 
Q 2309 441 2620 675 
Q 2931 909 2931 1356 
Q 2931 1769 2642 2001 
Q 2353 2234 1838 2234 
L 1294 2234 
L 1294 2753 
L 1863 2753 
Q 2328 2753 2575 2939 
Q 2822 3125 2822 3475 
Q 2822 3834 2567 4026 
Q 2313 4219 1838 4219 
Q 1578 4219 1281 4162 
Q 984 4106 628 3988 
L 628 4550 
Q 988 4650 1302 4700 
Q 1616 4750 1894 4750 
Q 2613 4750 3031 4423 
Q 3450 4097 3450 3541 
Q 3450 3153 3228 2886 
Q 3006 2619 2597 2516 
z
" transform="scale(0.015625)"/>
       </defs>
       <use xlink:href="#DejaVuSans-33"/>
      </g>
     </g>
    </g>
    <g id="ytick_3">
     <g id="line2d_19">
      <path d="M 33.604375 127.772337 
L 935.316875 127.772337 
" clip-path="url(#p4e75d8efe8)" style="fill: none; stroke: #eef2f7; stroke-opacity: 0.25; stroke-width: 0.55; stroke-linecap: square"/>
     </g>
     <g id="line2d_20">
      <g>
       <use xlink:href="#mc4be8a5382" x="33.604375" y="127.772337" style="stroke: #000000; stroke-width: 0.8"/>
      </g>
     </g>
     <g id="text_11">
      <!-- 4 -->
      <g transform="translate(20.878125 131.191633) scale(0.09 -0.09)">
       <defs>
        <path id="DejaVuSans-34" d="M 2419 4116 
L 825 1625 
L 2419 1625 
L 2419 4116 
z
M 2253 4666 
L 3047 4666 
L 3047 1625 
L 3713 1625 
L 3713 1100 
L 3047 1100 
L 3047 0 
L 2419 0 
L 2419 1100 
L 313 1100 
L 313 1709 
L 2253 4666 
z
" transform="scale(0.015625)"/>
       </defs>
       <use xlink:href="#DejaVuSans-34"/>
      </g>
     </g>
    </g>
    <g id="ytick_4">
     <g id="line2d_21">
      <path d="M 33.604375 93.671243 
L 935.316875 93.671243 
" clip-path="url(#p4e75d8efe8)" style="fill: none; stroke: #eef2f7; stroke-opacity: 0.25; stroke-width: 0.55; stroke-linecap: square"/>
     </g>
     <g id="line2d_22">
      <g>
       <use xlink:href="#mc4be8a5382" x="33.604375" y="93.671243" style="stroke: #000000; stroke-width: 0.8"/>
      </g>
     </g>
     <g id="text_12">
      <!-- 5 -->
      <g transform="translate(20.878125 97.09054) scale(0.09 -0.09)">
       <use xlink:href="#DejaVuSans-35"/>
      </g>
     </g>
    </g>
    <g id="ytick_5">
     <g id="line2d_23">
      <path d="M 33.604375 59.57015 
L 935.316875 59.57015 
" clip-path="url(#p4e75d8efe8)" style="fill: none; stroke: #eef2f7; stroke-opacity: 0.25; stroke-width: 0.55; stroke-linecap: square"/>
     </g>
     <g id="line2d_24">
      <g>
       <use xlink:href="#mc4be8a5382" x="33.604375" y="59.57015" style="stroke: #000000; stroke-width: 0.8"/>
      </g>
     </g>
     <g id="text_13">
      <!-- 6 -->
      <g transform="translate(20.878125 62.989447) scale(0.09 -0.09)">
       <defs>
        <path id="DejaVuSans-36" d="M 2113 2584 
Q 1688 2584 1439 2293 
Q 1191 2003 1191 1497 
Q 1191 994 1439 701 
Q 1688 409 2113 409 
Q 2538 409 2786 701 
Q 3034 994 3034 1497 
Q 3034 2003 2786 2293 
Q 2538 2584 2113 2584 
z
M 3366 4563 
L 3366 3988 
Q 3128 4100 2886 4159 
Q 2644 4219 2406 4219 
Q 1781 4219 1451 3797 
Q 1122 3375 1075 2522 
Q 1259 2794 1537 2939 
Q 1816 3084 2150 3084 
Q 2853 3084 3261 2657 
Q 3669 2231 3669 1497 
Q 3669 778 3244 343 
Q 2819 -91 2113 -91 
Q 1303 -91 875 529 
Q 447 1150 447 2328 
Q 447 3434 972 4092 
Q 1497 4750 2381 4750 
Q 2619 4750 2861 4703 
Q 3103 4656 3366 4563 
z
" transform="scale(0.015625)"/>
       </defs>
       <use xlink:href="#DejaVuSans-36"/>
      </g>
     </g>
    </g>
    <g id="ytick_6">
     <g id="line2d_25">
      <path d="M 33.604375 25.469057 
L 935.316875 25.469057 
" clip-path="url(#p4e75d8efe8)" style="fill: none; stroke: #eef2f7; stroke-opacity: 0.25; stroke-width: 0.55; stroke-linecap: square"/>
     </g>
     <g id="line2d_26">
      <g>
       <use xlink:href="#mc4be8a5382" x="33.604375" y="25.469057" style="stroke: #000000; stroke-width: 0.8"/>
      </g>
     </g>
     <g id="text_14">
      <!-- 7 -->
      <g transform="translate(20.878125 28.888354) scale(0.09 -0.09)">
       <use xlink:href="#DejaVuSans-37"/>
      </g>
     </g>
    </g>
    <g id="text_15">
     <!-- EDA (microsiemens) -->
     <g transform="translate(14.798438 173.642448) rotate(-90) scale(0.1 -0.1)">
      <defs>
       <path id="DejaVuSans-45" d="M 628 4666 
L 3578 4666 
L 3578 4134 
L 1259 4134 
L 1259 2753 
L 3481 2753 
L 3481 2222 
L 1259 2222 
L 1259 531 
L 3634 531 
L 3634 0 
L 628 0 
L 628 4666 
z
" transform="scale(0.015625)"/>
       <path id="DejaVuSans-44" d="M 1259 4147 
L 1259 519 
L 2022 519 
Q 2988 519 3436 956 
Q 3884 1394 3884 2338 
Q 3884 3275 3436 3711 
Q 2988 4147 2022 4147 
L 1259 4147 
z
M 628 4666 
L 1925 4666 
Q 3281 4666 3915 4102 
Q 4550 3538 4550 2338 
Q 4550 1131 3912 565 
Q 3275 0 1925 0 
L 628 0 
L 628 4666 
z
" transform="scale(0.015625)"/>
       <path id="DejaVuSans-41" d="M 2188 4044 
L 1331 1722 
L 3047 1722 
L 2188 4044 
z
M 1831 4666 
L 2547 4666 
L 4325 0 
L 3669 0 
L 3244 1197 
L 1141 1197 
L 716 0 
L 50 0 
L 1831 4666 
z
" transform="scale(0.015625)"/>
       <path id="DejaVuSans-28" d="M 1984 4856 
Q 1566 4138 1362 3434 
Q 1159 2731 1159 2009 
Q 1159 1288 1364 580 
Q 1569 -128 1984 -844 
L 1484 -844 
Q 1016 -109 783 600 
Q 550 1309 550 2009 
Q 550 2706 781 3412 
Q 1013 4119 1484 4856 
L 1984 4856 
z
" transform="scale(0.015625)"/>
       <path id="DejaVuSans-6d" d="M 3328 2828 
Q 3544 3216 3844 3400 
Q 4144 3584 4550 3584 
Q 5097 3584 5394 3201 
Q 5691 2819 5691 2113 
L 5691 0 
L 5113 0 
L 5113 2094 
Q 5113 2597 4934 2840 
Q 4756 3084 4391 3084 
Q 3944 3084 3684 2787 
Q 3425 2491 3425 1978 
L 3425 0 
L 2847 0 
L 2847 2094 
Q 2847 2600 2669 2842 
Q 2491 3084 2119 3084 
Q 1678 3084 1418 2786 
Q 1159 2488 1159 1978 
L 1159 0 
L 581 0 
L 581 3500 
L 1159 3500 
L 1159 2956 
Q 1356 3278 1631 3431 
Q 1906 3584 2284 3584 
Q 2666 3584 2933 3390 
Q 3200 3197 3328 2828 
z
" transform="scale(0.015625)"/>
       <path id="DejaVuSans-29" d="M 513 4856 
L 1013 4856 
Q 1481 4119 1714 3412 
Q 1947 2706 1947 2009 
Q 1947 1309 1714 600 
Q 1481 -109 1013 -844 
L 513 -844 
Q 928 -128 1133 580 
Q 1338 1288 1338 2009 
Q 1338 2731 1133 3434 
Q 928 4138 513 4856 
z
" transform="scale(0.015625)"/>
      </defs>
      <use xlink:href="#DejaVuSans-45"/>
      <use xlink:href="#DejaVuSans-44" transform="translate(63.183594 0)"/>
      <use xlink:href="#DejaVuSans-41" transform="translate(138.435547 0)"/>
      <use xlink:href="#DejaVuSans-20" transform="translate(206.84375 0)"/>
      <use xlink:href="#DejaVuSans-28" transform="translate(238.630859 0)"/>
      <use xlink:href="#DejaVuSans-6d" transform="translate(277.644531 0)"/>
      <use xlink:href="#DejaVuSans-69" transform="translate(375.056641 0)"/>
      <use xlink:href="#DejaVuSans-63" transform="translate(402.839844 0)"/>
      <use xlink:href="#DejaVuSans-72" transform="translate(457.820312 0)"/>
      <use xlink:href="#DejaVuSans-6f" transform="translate(496.683594 0)"/>
      <use xlink:href="#DejaVuSans-73" transform="translate(557.865234 0)"/>
      <use xlink:href="#DejaVuSans-69" transform="translate(609.964844 0)"/>
      <use xlink:href="#DejaVuSans-65" transform="translate(637.748047 0)"/>
      <use xlink:href="#DejaVuSans-6d" transform="translate(699.271484 0)"/>
      <use xlink:href="#DejaVuSans-65" transform="translate(796.683594 0)"/>
      <use xlink:href="#DejaVuSans-6e" transform="translate(858.207031 0)"/>
      <use xlink:href="#DejaVuSans-73" transform="translate(921.585938 0)"/>
      <use xlink:href="#DejaVuSans-29" transform="translate(973.685547 0)"/>
     </g>
    </g>
   </g>
   <g id="line2d_27">
    <path d="M 50.945 149.38936 
L 51.523406 169.838763 
L 51.81261 143.093276 
L 52.101813 166.508791 
L 52.391016 141.948502 
L 52.680219 165.728217 
L 52.969423 146.423588 
L 53.258626 164.42726 
L 53.547829 162.71027 
L 53.837032 141.844494 
L 54.126235 164.687452 
L 54.415439 123.528455 
L 54.704642 117.492562 
L 55.283048 96.730794 
L 55.861455 141.792319 
L 56.150658 145.59084 
L 56.439861 152.719673 
L 56.729064 134.71566 
L 57.018268 148.556953 
L 57.307471 149.701726 
L 57.596674 141.376286 
L 57.885877 148.03657 
L 58.17508 143.821675 
L 58.464284 132.63447 
L 58.753487 150.222109 
L 59.04269 149.701726 
L 59.331893 159.015758 
L 59.621097 154.800863 
L 59.9103 127.483159 
L 60.199503 149.75356 
L 60.488706 150.013751 
L 60.777909 156.153994 
L 61.067113 149.38936 
L 61.356316 159.90034 
L 61.645519 163.126304 
L 62.223926 151.418716 
L 62.513129 160.316715 
L 62.802332 148.140578 
L 63.091535 128.523584 
L 63.380738 145.22664 
L 63.669942 148.03657 
L 64.248348 161.357139 
L 64.537551 156.466019 
L 64.826755 165.936234 
L 65.115958 164.42726 
L 65.405161 166.404442 
L 65.694364 172.284493 
L 65.983567 154.072464 
L 66.272771 170.619337 
L 66.561974 175.250265 
L 67.14038 177.800004 
L 67.429583 174.365683 
L 67.718787 176.030839 
L 68.00799 170.723345 
L 68.297193 174.417858 
L 68.586396 172.804876 
L 68.8756 174.782057 
L 69.164803 166.404442 
L 69.454006 165.624209 
L 69.743209 172.180485 
L 70.032412 151.054517 
L 70.321616 149.701726 
L 70.610819 159.483966 
L 70.900022 165.415851 
L 71.189225 148.921152 
L 71.767632 159.744157 
L 72.056835 140.33552 
L 72.346038 138.253989 
L 72.635241 134.71566 
L 72.924445 96.366594 
L 73.213648 98.812324 
L 73.502851 125.505637 
L 73.792054 113.486025 
L 74.081258 123.060247 
L 74.370461 124.360863 
L 74.659664 26.692946 
L 74.948867 104.692035 
L 75.23807 116.347788 
L 75.527274 96.782968 
L 75.816477 123.008073 
L 76.10568 112.549268 
L 76.394883 119.209552 
L 76.684086 131.073322 
L 76.97329 135.548409 
L 77.262493 131.021489 
L 77.551696 134.663826 
L 77.840899 125.713995 
L 78.130103 138.98273 
L 78.419306 120.250317 
L 78.708509 142.625068 
L 78.997712 120.562342 
L 80.154525 155.633612 
L 80.443728 158.599384 
L 81.022135 139.815138 
L 81.311338 154.904871 
L 81.600541 145.643014 
L 81.889744 156.049645 
L 82.178948 156.882394 
L 82.468151 156.882394 
L 82.757354 164.687452 
L 83.046557 156.10182 
L 83.335761 165.572034 
L 83.624964 168.173607 
L 83.914167 162.658096 
L 84.20337 161.461488 
L 84.492573 163.126304 
L 84.781777 151.886924 
L 85.07098 162.762104 
L 85.360183 168.954181 
L 85.649386 170.619337 
L 85.938589 148.140578 
L 86.227793 157.09041 
L 86.516996 158.443201 
L 86.806199 117.648745 
L 87.095402 125.505637 
L 87.384606 88.821727 
L 87.673809 125.974186 
L 87.963012 114.734807 
L 88.252215 136.797191 
L 88.541418 141.896668 
L 88.830622 143.14545 
L 89.119825 128.523584 
L 89.409028 136.380816 
L 89.698231 136.797191 
L 89.987435 141.012086 
L 90.276638 149.38936 
L 90.565841 137.733607 
L 90.855044 151.002342 
L 91.144247 153.187881 
L 91.433451 146.735613 
L 91.722654 132.270271 
L 92.30106 150.169934 
L 92.590264 154.176472 
L 92.879467 150.273943 
L 93.16867 157.610793 
L 93.457873 150.169934 
L 93.747076 151.054517 
L 94.03628 158.443201 
L 94.325483 156.986402 
L 94.614686 158.079001 
L 94.903889 158.495375 
L 95.193092 163.230653 
L 95.482296 165.15566 
L 95.771499 164.271077 
L 96.060702 169.474563 
L 96.349905 151.106691 
L 96.639109 161.409314 
L 96.928312 147.308171 
L 97.217515 145.22664 
L 97.506718 146.007214 
L 97.795921 145.22664 
L 98.085125 149.701726 
L 98.374328 150.169934 
L 98.663531 124.621055 
L 98.952734 141.896668 
L 99.241938 147.308171 
L 99.531141 141.116094 
L 99.820344 147.151988 
L 100.109547 130.136906 
L 100.39875 147.151988 
L 100.687954 147.67237 
L 100.977157 68.163967 
L 101.26636 112.185068 
L 101.555563 128.419575 
L 101.844767 134.71566 
L 102.13397 80.860486 
L 102.423173 119.209552 
L 103.001579 137.993798 
L 103.290783 125.505637 
L 103.579986 138.566356 
L 103.869189 126.390219 
L 104.158392 131.333514 
L 104.447595 142.312702 
L 104.736799 141.376286 
L 105.315205 96.366594 
L 105.604408 98.812324 
L 105.893612 125.193612 
L 106.182815 121.863299 
L 106.472018 130.657289 
L 106.761221 133.570886 
L 107.050424 106.044825 
L 107.339628 104.588026 
L 107.628831 120.978717 
L 107.918034 129.304158 
L 108.207237 134.299627 
L 108.496441 135.132034 
L 108.785644 124.517046 
L 109.074847 138.045973 
L 109.36405 141.896668 
L 109.653253 136.432991 
L 109.942457 143.977858 
L 110.520863 151.522725 
L 110.810066 151.886924 
L 111.09927 156.518194 
L 111.388473 153.604256 
L 111.677676 158.54755 
L 111.966879 150.065926 
L 112.256082 158.131176 
L 112.545286 159.015758 
L 113.123692 165.988408 
L 113.412895 165.207834 
L 113.702098 169.526738 
L 113.991302 165.624209 
L 114.280505 164.895468 
L 114.569708 168.173607 
L 114.858911 169.942771 
L 115.148115 152.303299 
L 115.437318 154.38483 
L 115.726521 161.825688 
L 116.015724 165.624209 
L 116.304927 165.207834 
L 116.594131 163.178478 
L 116.883334 167.237191 
L 117.172537 165.207834 
L 117.46174 148.921152 
L 117.750944 158.963583 
L 118.32935 167.289024 
L 118.618553 168.589981 
L 118.907756 146.891796 
L 119.19696 159.119766 
L 119.486163 160.420723 
L 119.775366 154.800863 
L 120.064569 162.814279 
L 120.353773 166.976999 
L 120.642976 169.110364 
L 120.932179 163.282487 
L 121.221382 164.375086 
L 121.510585 168.589981 
L 121.799789 160.212365 
L 122.088992 166.976999 
L 122.378195 166.092417 
L 122.667398 167.341199 
L 122.956601 171.087545 
L 123.245805 149.129169 
L 123.535008 157.298768 
L 123.824211 130.397098 
L 124.113414 138.722539 
L 124.402618 151.418716 
L 124.981024 161.096948 
L 125.270227 145.22664 
L 125.55943 156.414186 
L 125.848634 146.371414 
L 126.137837 156.414186 
L 126.42704 160.576906 
L 126.716243 161.045114 
L 127.005447 156.934227 
L 127.29465 161.409314 
L 127.583853 152.407307 
L 127.873056 138.930555 
L 128.162259 154.749029 
L 128.451463 152.303299 
L 128.740666 158.54755 
L 129.029869 154.38483 
L 129.319072 157.81881 
L 129.608276 154.488838 
L 129.897479 161.877522 
L 130.186682 163.07447 
L 130.475885 137.629598 
L 130.765088 149.805735 
L 131.054292 153.604256 
L 131.343495 158.963583 
L 131.632698 159.327783 
L 131.921901 149.805735 
L 132.211104 159.432132 
L 132.500308 126.858768 
L 132.789511 140.907737 
L 133.078714 138.098147 
L 133.657121 143.977858 
L 133.946324 144.394232 
L 134.235527 145.22664 
L 134.813933 153.968455 
L 135.103137 138.149981 
L 135.39234 149.75356 
L 135.681543 138.253989 
L 135.970746 147.67237 
L 136.549153 146.891796 
L 136.838356 143.14545 
L 137.127559 151.886924 
L 137.416762 151.470891 
L 137.705966 157.298768 
L 137.995169 153.708264 
L 138.284372 156.934227 
L 138.573575 157.766976 
L 138.862779 160.62874 
L 139.151982 148.504778 
L 139.441185 122.643873 
L 140.019591 145.22664 
L 140.308795 133.519053 
L 140.597998 140.959911 
L 140.887201 144.446066 
L 141.176404 112.132893 
L 141.465607 135.548409 
L 141.754811 138.930555 
L 142.044014 146.059389 
L 142.333217 146.787788 
L 142.62242 151.002342 
L 142.911624 150.11776 
L 143.200827 149.75356 
L 143.49003 150.586309 
L 143.779233 148.504778 
L 144.068436 149.285352 
L 144.35764 152.147116 
L 144.646843 156.882394 
L 144.936046 131.073322 
L 145.225249 147.360004 
L 145.514453 141.844494 
L 145.803656 141.844494 
L 146.092859 149.909743 
L 146.382062 145.539006 
L 146.671265 143.561484 
L 146.960469 149.337527 
L 147.249672 149.337527 
L 147.538875 151.574899 
L 147.828078 147.776379 
L 148.117282 151.522725 
L 148.406485 143.14545 
L 148.695688 151.886924 
L 148.984891 143.093276 
L 149.274094 109.063113 
L 149.852501 136.849024 
L 150.141704 143.561484 
L 150.72011 151.002342 
L 151.009314 148.764969 
L 151.58772 156.830219 
L 151.876923 155.477429 
L 152.166127 157.246593 
L 152.744533 146.059389 
L 153.033736 156.153994 
L 153.322939 158.18335 
L 153.612143 155.633612 
L 153.901346 158.027167 
L 154.190549 161.877522 
L 154.479752 149.441535 
L 154.768956 159.796332 
L 155.347362 166.404442 
L 155.636565 154.696855 
L 155.925768 160.732748 
L 156.214972 164.271077 
L 156.504175 165.15566 
L 156.793378 162.397904 
L 157.082581 81.224685 
L 157.371785 85.855614 
L 157.950191 130.969314 
L 158.239394 118.064778 
L 158.817801 138.930555 
L 159.396207 148.088404 
L 159.68541 151.002342 
L 159.974613 145.694848 
L 160.263817 151.835091 
L 160.55302 151.835091 
L 160.842223 118.064778 
L 161.131426 141.428119 
L 161.42063 148.088404 
L 161.709833 151.835091 
L 161.999036 141.844494 
L 162.288239 151.470891 
L 162.577442 150.11776 
L 162.866646 151.886924 
L 163.155849 157.714801 
L 163.445052 153.916281 
L 163.734255 158.235184 
L 164.023459 137.993798 
L 164.312662 152.823682 
L 164.601865 157.298768 
L 164.891068 147.308171 
L 165.180271 143.977858 
L 165.758678 149.701726 
L 166.047881 132.270271 
L 166.337084 147.151988 
L 166.626288 152.251465 
L 166.915491 148.088404 
L 167.204694 148.972986 
L 167.493897 156.10182 
L 167.7831 148.192753 
L 168.072304 152.667498 
L 168.361507 136.432991 
L 168.65071 136.328983 
L 168.939913 145.694848 
L 169.51832 154.800863 
L 169.807523 153.552081 
L 170.385929 148.088404 
L 170.675133 148.817144 
L 170.964336 155.529603 
L 171.253539 151.522725 
L 171.542742 158.079001 
L 171.831945 158.131176 
L 172.410352 145.330648 
L 172.699555 156.466019 
L 172.988758 153.604256 
L 173.277962 159.483966 
L 173.567165 155.113229 
L 174.145571 163.959052 
L 174.434774 161.929696 
L 174.723978 144.654424 
L 175.013181 154.02063 
L 175.591587 162.293896 
L 176.7484 170.671512 
L 177.037603 154.749029 
L 177.326807 145.018623 
L 177.61601 158.027167 
L 177.905213 158.131176 
L 178.194416 165.207834 
L 178.483619 168.225781 
L 178.772823 162.658096 
L 179.062026 160.524731 
L 179.351229 161.045114 
L 179.640432 139.138572 
L 179.929636 152.719673 
L 180.218839 155.581437 
L 180.508042 149.649552 
L 180.797245 135.964783 
L 181.664855 156.466019 
L 181.954058 159.796332 
L 182.243261 159.796332 
L 182.821668 152.303299 
L 183.110871 160.62874 
L 183.400074 162.293896 
L 183.689277 150.638142 
L 183.978481 150.11776 
L 184.267684 148.921152 
L 184.556887 157.246593 
L 184.84609 155.269412 
L 185.135294 147.360004 
L 185.424497 155.217237 
L 185.7137 159.327783 
L 186.002903 155.529603 
L 186.292106 159.483966 
L 186.58131 150.638142 
L 186.870513 146.371414 
L 187.159716 155.997811 
L 187.448919 160.680914 
L 187.738122 163.542678 
L 188.027326 162.606262 
L 188.316529 166.092417 
L 188.605732 165.624209 
L 188.894935 164.79146 
L 189.184139 144.86244 
L 189.473342 158.963583 
L 189.762545 159.796332 
L 190.051748 164.999818 
L 190.630155 170.307312 
L 191.208561 173.8453 
L 191.497764 173.533275 
L 191.786968 176.134848 
L 192.076171 177.695996 
L 192.654577 160.992939 
L 192.94378 144.86244 
L 193.232984 144.602249 
L 193.522187 159.327783 
L 193.81139 160.212365 
L 194.100593 154.853038 
L 194.389797 157.350602 
L 194.679 164.42726 
L 194.968203 165.15566 
L 195.257406 160.212365 
L 195.546609 166.092417 
L 195.835813 152.511315 
L 196.125016 161.409314 
L 196.703422 167.809407 
L 196.992626 157.246593 
L 197.281829 157.714801 
L 197.571032 144.758432 
L 197.860235 156.986402 
L 198.149438 161.565497 
L 198.438642 138.045973 
L 198.727845 154.749029 
L 199.017048 159.379958 
L 199.306251 160.680914 
L 199.595454 164.323252 
L 199.884658 110.98812 
L 200.173861 136.380816 
L 200.463064 130.969314 
L 200.752267 134.767835 
L 201.041471 132.530462 
L 201.619877 145.278815 
L 201.90908 125.141437 
L 202.198283 141.012086 
L 202.77669 150.534134 
L 203.065893 152.667498 
L 203.6443 158.91175 
L 203.933503 151.470891 
L 204.222706 153.968455 
L 204.511909 153.916281 
L 204.801112 151.522725 
L 205.090316 157.662968 
L 205.379519 146.111222 
L 205.668722 156.466019 
L 205.957925 146.371414 
L 206.247129 145.59084 
L 206.536332 147.308171 
L 206.825535 130.136906 
L 207.114738 143.405642 
L 207.403941 150.586309 
L 207.693145 152.303299 
L 207.982348 155.997811 
L 208.271551 157.662968 
L 208.560754 140.647545 
L 208.849957 138.98273 
L 209.139161 148.556953 
L 209.428364 154.332655 
L 209.717567 151.886924 
L 210.00677 153.968455 
L 210.585177 159.432132 
L 211.452786 164.375086 
L 211.74199 159.796332 
L 212.031193 162.189888 
L 212.320396 162.397904 
L 212.898803 166.924825 
L 213.188006 149.337527 
L 213.477209 154.38483 
L 213.766412 150.534134 
L 214.055615 153.864447 
L 214.344819 159.640149 
L 214.634022 156.049645 
L 214.923225 159.587974 
L 215.212428 153.656089 
L 215.501632 159.848166 
L 216.080038 164.79146 
L 216.369241 161.565497 
L 216.658444 164.739626 
L 216.947648 161.045114 
L 217.236851 159.848166 
L 217.526054 159.796332 
L 217.815257 165.259668 
L 218.97207 173.116901 
L 219.261273 173.065067 
L 219.550477 162.970462 
L 219.83968 169.474563 
L 220.707289 175.66664 
L 220.996493 174.834232 
L 221.285696 168.954181 
L 221.574899 171.920294 
L 221.864102 168.433798 
L 222.153306 172.752701 
L 222.731712 177.38363 
L 223.310118 170.723345 
L 223.599322 172.49251 
L 223.888525 175.66664 
L 224.177728 176.967596 
L 224.756135 174.157666 
L 225.045338 169.474563 
L 225.334541 156.414186 
L 225.623744 164.739626 
L 225.912947 139.711129 
L 226.491354 157.350602 
L 226.780557 151.002342 
L 227.06976 160.680914 
L 227.358963 164.323252 
L 227.648167 163.906878 
L 227.93737 167.705399 
L 228.226573 164.479435 
L 228.515776 169.058189 
L 228.80498 171.451745 
L 229.094183 169.006355 
L 229.383386 128.10755 
L 229.672589 149.857568 
L 229.961792 157.714801 
L 230.250996 160.576906 
L 230.540199 166.092417 
L 231.118605 171.087545 
L 231.407809 172.284493 
L 231.697012 174.261675 
L 231.986215 170.723345 
L 232.275418 164.323252 
L 232.564621 169.42273 
L 233.143028 175.198432 
L 233.432231 174.365683 
L 233.721434 177.01943 
L 234.010638 177.800004 
L 234.299841 179.881535 
L 234.589044 180.609934 
L 234.878247 176.134848 
L 235.16745 179.777526 
L 235.456654 178.164204 
L 235.745857 180.297568 
L 236.03506 145.174806 
L 236.324263 130.240915 
L 236.613466 131.957905 
L 236.90267 149.493369 
L 237.191873 157.714801 
L 237.481076 150.11776 
L 237.770279 158.495375 
L 238.059483 159.848166 
L 238.348686 164.895468 
L 238.637889 166.092417 
L 238.927092 161.045114 
L 239.216295 161.72168 
L 239.794702 163.490503 
L 240.083905 148.03657 
L 240.373108 158.859575 
L 240.662312 118.064778 
L 240.951515 148.140578 
L 241.240718 152.147116 
L 241.529921 160.62874 
L 241.819124 162.241721 
L 242.108328 166.768983 
L 242.397531 168.173607 
L 242.686734 159.067933 
L 242.975937 165.207834 
L 243.265141 165.15566 
L 243.554344 160.992939 
L 243.843547 166.872991 
L 244.13275 170.202963 
L 245.00036 176.395039 
L 245.289563 175.250265 
L 245.578766 178.580578 
L 245.867969 179.725352 
L 246.157173 182.066733 
L 246.446376 180.19356 
L 246.735579 176.915422 
L 247.024782 182.066733 
L 248.181595 188.98755 
L 248.760002 191.901147 
L 249.049205 192.837904 
L 249.338408 190.288165 
L 249.627611 191.068739 
L 249.916815 184.408455 
L 250.206018 183.263681 
L 250.495221 186.853844 
L 250.784424 189.039383 
L 251.073627 189.611941 
L 251.362831 186.906019 
L 251.652034 186.593994 
L 251.941237 182.275091 
L 252.23044 186.073611 
L 252.519644 181.598525 
L 253.09805 155.633612 
L 253.387253 168.642156 
L 253.676456 170.671512 
L 253.96566 168.538147 
L 254.254863 168.017765 
L 254.544066 154.800863 
L 254.833269 153.187881 
L 255.122472 164.895468 
L 255.411676 167.289024 
L 255.990082 174.209841 
L 256.279285 158.131176 
L 256.568489 149.75356 
L 256.857692 161.929696 
L 257.436098 171.191894 
L 258.014505 176.343205 
L 258.303708 167.705399 
L 258.882114 123.008073 
L 259.171318 150.11776 
L 259.460521 150.638142 
L 259.749724 154.853038 
L 260.038927 138.878381 
L 260.32813 151.835091 
L 260.617334 137.681773 
L 260.906537 149.701726 
L 261.19574 156.153994 
L 261.484943 153.916281 
L 261.774147 158.495375 
L 262.06335 157.662968 
L 262.352553 161.98153 
L 262.641756 146.787788 
L 262.930959 154.332655 
L 263.220163 145.59084 
L 263.509366 157.81881 
L 264.087772 165.103826 
L 264.376975 165.15566 
L 264.666179 168.954181 
L 264.955382 149.38936 
L 265.244585 162.346071 
L 265.533788 163.959052 
L 265.822992 164.739626 
L 266.401398 171.920294 
L 266.690601 173.689458 
L 266.979804 174.470032 
L 267.269008 168.589981 
L 267.558211 171.920294 
L 267.847414 172.232319 
L 268.425821 177.852179 
L 268.715024 179.152794 
L 269.004227 172.336327 
L 269.29343 177.331796 
L 270.16104 182.430933 
L 270.450243 182.743299 
L 270.739446 183.627881 
L 271.02865 165.15566 
L 271.317853 171.972127 
L 271.607056 119.41791 
L 271.896259 138.098147 
L 272.185462 103.391078 
L 272.474666 122.227499 
L 273.631478 148.608786 
L 273.920682 138.149981 
L 274.209885 150.222109 
L 274.499088 152.771507 
L 275.077495 159.744157 
L 275.366698 162.658096 
L 275.655901 154.28048 
L 275.945104 155.061054 
L 276.234307 162.293896 
L 276.523511 146.423588 
L 276.812714 150.273943 
L 277.101917 161.357139 
L 277.39112 160.316715 
L 277.680324 164.375086 
L 277.969527 161.773513 
L 278.25873 166.924825 
L 278.547933 168.642156 
L 278.837136 171.451745 
L 279.12634 171.503919 
L 279.415543 165.15566 
L 279.704746 171.451745 
L 279.993949 169.942771 
L 280.283153 173.169076 
L 280.572356 171.399911 
L 280.861559 175.66664 
L 281.150762 168.538147 
L 281.439965 167.757573 
L 281.729169 160.680914 
L 282.018372 168.902347 
L 282.596778 174.625874 
L 282.885981 175.146257 
L 283.175185 177.695996 
L 283.464388 171.347736 
L 283.753591 177.435804 
L 284.042794 179.048786 
L 284.331998 179.777526 
L 284.621201 175.562631 
L 284.910404 180.662109 
L 285.199607 182.795473 
L 285.48881 182.430933 
L 285.778014 184.928838 
L 286.934827 189.507591 
L 287.22403 152.303299 
L 287.513233 135.132034 
L 287.802436 151.418716 
L 288.091639 159.015758 
L 288.380843 160.992939 
L 288.670046 168.954181 
L 288.959249 169.838763 
L 289.248452 172.752701 
L 289.537656 173.94965 
L 289.826859 176.499047 
L 290.116062 171.556094 
L 290.405265 176.083014 
L 290.694468 169.838763 
L 290.983672 176.030839 
L 291.272875 171.087545 
L 291.562078 153.812272 
L 291.851281 163.126304 
L 292.140484 164.687452 
L 292.429688 171.503919 
L 292.718891 168.902347 
L 293.297297 176.915422 
L 293.586501 174.886066 
L 294.164907 176.395039 
L 294.743313 180.713942 
L 295.032517 181.494517 
L 295.32172 180.662109 
L 295.610923 176.967596 
L 295.900126 180.349743 
L 296.18933 176.447214 
L 296.767736 182.014899 
L 297.056939 171.972127 
L 297.346142 180.19356 
L 297.635346 177.800004 
L 297.924549 182.951315 
L 298.213752 185.08468 
L 298.502955 183.107498 
L 298.792159 185.969262 
L 299.081362 175.822823 
L 299.370565 181.858716 
L 299.659768 175.458623 
L 299.948971 180.662109 
L 300.238175 171.451745 
L 300.527378 176.915422 
L 300.816581 173.220909 
L 301.105784 173.533275 
L 301.394987 172.804876 
L 301.684191 178.11237 
L 301.973394 173.637284 
L 302.5518 180.662109 
L 302.841004 176.863588 
L 303.130207 181.130317 
L 303.41941 182.014899 
L 303.708613 184.044255 
L 303.997816 182.326924 
L 304.28702 183.575706 
L 304.576223 185.709412 
L 304.865426 183.627881 
L 305.154629 154.488838 
L 305.443833 158.91175 
L 305.733036 159.015758 
L 306.022239 164.375086 
L 306.311442 167.289024 
L 306.600645 164.79146 
L 306.889849 160.680914 
L 307.468255 167.653565 
L 307.757458 161.409314 
L 308.046662 169.058189 
L 308.335865 165.780051 
L 308.625068 170.567162 
L 308.914271 170.723345 
L 309.203474 159.744157 
L 309.492678 168.225781 
L 309.781881 156.986402 
L 310.071084 167.289024 
L 310.360287 161.149122 
L 310.64949 170.307312 
L 310.938694 169.058189 
L 311.227897 155.685445 
L 311.5171 155.945637 
L 311.806303 159.015758 
L 312.095507 147.984395 
L 312.38471 156.466019 
L 312.673913 153.187881 
L 312.963116 160.680914 
L 313.541523 167.809407 
L 313.830726 168.642156 
L 314.119929 168.693989 
L 314.409132 167.705399 
L 314.698336 155.217237 
L 314.987539 165.15566 
L 315.276742 169.630746 
L 315.565945 171.868119 
L 315.855148 172.388502 
L 316.433555 177.331796 
L 316.722758 174.834232 
L 317.011961 175.510457 
L 317.301165 157.714801 
L 317.590368 157.350602 
L 317.879571 168.589981 
L 318.457977 174.93824 
L 319.325587 181.182151 
L 319.903993 182.743299 
L 320.193197 176.499047 
L 320.4824 180.245734 
L 320.771603 178.996952 
L 321.060806 182.275091 
L 321.35001 181.338334 
L 321.639213 183.055665 
L 321.928416 181.962725 
L 322.796026 188.675184 
L 323.085229 176.083014 
L 323.374432 180.974134 
L 323.952839 185.605062 
L 324.242042 187.426402 
L 324.531245 186.958194 
L 324.820448 189.559766 
L 325.109651 189.97614 
L 325.398855 190.184157 
L 325.688058 191.224922 
L 325.977261 170.359146 
L 326.266464 178.996952 
L 326.844871 184.928838 
L 327.134074 184.824829 
L 327.423277 179.725352 
L 327.71248 180.297568 
L 328.001684 178.996952 
L 328.58009 182.326924 
L 328.869293 185.240863 
L 329.158496 174.261675 
L 329.4477 178.216378 
L 329.736903 179.46516 
L 330.026106 179.82936 
L 330.315309 179.777526 
L 330.604513 173.637284 
L 330.893716 144.758432 
L 331.182919 148.764969 
L 331.472122 160.26454 
L 331.761325 159.067933 
L 332.339732 167.60139 
L 332.628935 170.255137 
L 332.918138 156.466019 
L 333.207342 158.651558 
L 333.496545 163.07447 
L 333.785748 162.241721 
L 334.364154 169.838763 
L 334.653358 167.705399 
L 334.942561 164.010886 
L 335.231764 151.939099 
L 335.520967 162.241721 
L 335.810171 168.069598 
L 336.099374 171.243728 
L 336.388577 169.526738 
L 336.966983 175.66664 
L 337.256187 176.551222 
L 337.834593 180.245734 
L 338.123796 181.54635 
L 338.412999 181.078142 
L 338.702203 183.263681 
L 338.991406 183.680056 
L 339.280609 185.657237 
L 339.569812 183.315515 
L 340.437422 146.423588 
L 340.726625 159.015758 
L 341.015828 160.941106 
L 341.305032 159.432132 
L 341.883438 167.393374 
L 342.461845 171.399911 
L 342.751048 166.040242 
L 343.040251 155.997811 
L 343.329454 162.241721 
L 343.907861 134.195618 
L 344.197064 136.797191 
L 344.77547 144.394232 
L 345.064674 151.418716 
L 345.64308 156.882394 
L 345.932283 158.54755 
L 346.51069 141.896668 
L 346.799893 146.371414 
L 347.089096 138.930555 
L 347.378299 143.925683 
L 347.667503 143.561484 
L 347.956706 146.059389 
L 348.245909 143.925683 
L 348.535112 151.470891 
L 348.824315 155.633612 
L 349.113519 149.909743 
L 349.402722 155.73762 
L 349.691925 155.633612 
L 349.981128 146.423588 
L 350.270331 157.038577 
L 350.559535 158.963583 
L 350.848738 163.07447 
L 351.137941 150.950508 
L 351.427144 148.088404 
L 351.716348 147.984395 
L 352.005551 149.75356 
L 352.294754 154.645021 
L 352.583957 153.500247 
L 352.87316 141.220103 
L 353.162364 135.132034 
L 353.451567 148.921152 
L 354.029973 158.235184 
L 354.319177 154.38483 
L 354.60838 153.552081 
L 354.897583 157.714801 
L 355.186786 154.436663 
L 355.475989 160.212365 
L 355.765193 163.542678 
L 356.054396 150.065926 
L 356.343599 147.151988 
L 356.632802 156.362011 
L 356.922006 157.402776 
L 357.211209 152.667498 
L 357.500412 157.714801 
L 357.789615 164.79146 
L 358.368022 168.121773 
L 358.657225 164.79146 
L 358.946428 167.757573 
L 359.524834 170.619337 
L 359.814038 172.85671 
L 360.392444 164.323252 
L 360.681647 167.393374 
L 360.970851 168.589981 
L 361.260054 167.60139 
L 361.549257 157.246593 
L 361.83846 153.916281 
L 362.127663 163.959052 
L 362.416867 161.513322 
L 362.70607 167.341199 
L 362.995273 169.474563 
L 363.284476 167.809407 
L 363.57368 167.861582 
L 363.862883 170.098954 
L 364.152086 167.705399 
L 364.441289 170.77552 
L 364.730492 155.113229 
L 365.019696 168.173607 
L 365.308899 160.212365 
L 365.598102 167.705399 
L 365.887305 168.173607 
L 366.176509 141.428119 
L 366.465712 144.081866 
L 366.754915 156.518194 
L 367.044118 148.972986 
L 367.333321 149.38936 
L 367.622525 150.898334 
L 367.911728 156.882394 
L 368.490134 162.606262 
L 368.779337 163.386495 
L 369.068541 165.8844 
L 369.357744 146.111222 
L 369.93615 152.355473 
L 370.225354 159.327783 
L 370.80376 166.560625 
L 371.092963 167.341199 
L 371.382166 170.047121 
L 371.67137 165.15566 
L 371.960573 170.307312 
L 372.828183 176.447214 
L 373.117386 176.967596 
L 373.406589 179.048786 
L 373.695792 173.533275 
L 373.984995 177.800004 
L 374.274199 178.892944 
L 374.852605 181.858716 
L 375.141808 178.944778 
L 375.431012 170.619337 
L 375.720215 176.551222 
L 376.009418 168.485973 
L 376.298621 170.77552 
L 376.587824 175.979006 
L 376.877028 175.458623 
L 377.166231 176.863588 
L 377.455434 177.279621 
L 378.03384 179.361152 
L 378.323044 179.412986 
L 378.612247 179.82936 
L 378.90145 180.817951 
L 379.190653 179.517335 
L 379.479857 181.442342 
L 379.76906 182.014899 
L 380.058263 178.632753 
L 380.347466 177.38363 
L 380.925873 180.297568 
L 381.215076 180.557759 
L 381.504279 181.54635 
L 382.082686 185.709412 
L 382.371889 186.125445 
L 382.661092 170.202963 
L 383.239498 180.713942 
L 383.528702 177.643821 
L 383.817905 181.130317 
L 384.107108 182.691124 
L 384.396311 182.014899 
L 384.685515 175.30244 
L 385.263921 180.609934 
L 385.553124 181.182151 
L 385.842327 182.743299 
L 386.131531 181.962725 
L 386.709937 185.240863 
L 386.99914 186.021437 
L 387.288343 187.738427 
L 387.86675 188.519001 
L 388.155953 187.374227 
L 388.445156 189.039383 
L 388.73436 189.767783 
L 389.023563 189.872132 
L 389.312766 191.120914 
L 389.601969 191.172748 
L 389.891172 136.797191 
L 390.180376 127.11896 
L 390.469579 148.921152 
L 390.758782 153.083873 
L 391.047985 159.90034 
L 391.337189 161.461488 
L 391.626392 159.223775 
L 391.915595 165.207834 
L 392.494001 170.671512 
L 393.361611 177.279621 
L 393.650814 170.723345 
L 393.940018 144.030033 
L 394.229221 149.857568 
L 394.518424 162.346071 
L 394.807627 163.126304 
L 395.09683 165.728217 
L 395.386034 164.167069 
L 395.675237 143.50965 
L 395.96444 156.10182 
L 396.253643 161.045114 
L 396.542846 141.428119 
L 396.83205 154.176472 
L 397.121253 160.212365 
L 397.410456 163.855044 
L 397.699659 158.391367 
L 398.278066 162.658096 
L 398.567269 166.456616 
L 398.856472 163.126304 
L 399.145675 167.913415 
L 400.013285 174.470032 
L 400.302488 175.66664 
L 400.591692 165.207834 
L 400.880895 171.087545 
L 401.170098 169.058189 
L 401.459301 174.105492 
L 401.748504 169.006355 
L 402.037708 174.313849 
L 402.326911 176.915422 
L 402.616114 177.695996 
L 402.905317 175.718814 
L 403.194521 178.580578 
L 403.483724 174.053658 
L 403.772927 136.224633 
L 404.06213 141.636477 
L 404.351333 150.950508 
L 404.640537 143.613658 
L 404.92974 141.376286 
L 405.218943 150.690317 
L 405.797349 160.26454 
L 406.086553 158.079001 
L 406.375756 163.178478 
L 406.664959 154.853038 
L 406.954162 164.323252 
L 407.243366 167.028833 
L 407.532569 160.160532 
L 407.821772 133.519053 
L 408.110975 150.586309 
L 408.400178 148.608786 
L 408.689382 148.972986 
L 408.978585 158.54755 
L 409.267788 160.732748 
L 409.556991 164.375086 
L 409.846195 164.323252 
L 410.135398 164.063061 
L 410.424601 150.638142 
L 410.713804 151.366883 
L 411.003007 159.90034 
L 411.292211 156.934227 
L 411.581414 163.906878 
L 411.870617 156.10182 
L 412.15982 164.375086 
L 412.449024 167.289024 
L 412.738227 166.924825 
L 413.02743 169.838763 
L 413.316633 165.207834 
L 413.605836 166.456616 
L 413.89504 170.723345 
L 414.184243 172.752701 
L 414.473446 170.307312 
L 414.762649 173.533275 
L 415.051852 162.606262 
L 415.341056 170.307312 
L 416.208665 177.279621 
L 416.787072 180.245734 
L 417.076275 181.026309 
L 417.365478 169.370555 
L 417.654681 171.868119 
L 417.943885 166.040242 
L 418.233088 169.006355 
L 418.522291 174.782057 
L 418.811494 176.759239 
L 419.100698 174.001483 
L 419.389901 176.239197 
L 419.679104 176.811413 
L 419.968307 178.424395 
L 420.25751 150.222109 
L 420.546714 164.375086 
L 420.835917 137.317573 
L 421.12512 138.045973 
L 421.414323 149.025161 
L 421.99273 141.896668 
L 422.281933 148.868978 
L 422.571136 145.174806 
L 423.149543 156.518194 
L 423.727949 162.606262 
L 424.017152 162.814279 
L 424.306355 165.311843 
L 424.595559 155.529603 
L 424.884762 158.91175 
L 425.173965 159.483966 
L 425.463168 164.999818 
L 426.041575 171.087545 
L 426.330778 173.533275 
L 426.619981 169.42273 
L 426.909184 169.734755 
L 427.198388 172.700868 
L 427.487591 168.642156 
L 427.776794 170.202963 
L 428.065997 167.653565 
L 428.355201 173.116901 
L 428.644404 175.30244 
L 428.933607 170.151129 
L 429.22281 168.069598 
L 429.512013 167.549216 
L 429.801217 172.752701 
L 430.379623 176.030839 
L 430.668826 176.083014 
L 430.95803 166.040242 
L 431.247233 169.838763 
L 431.536436 168.173607 
L 431.825639 172.336327 
L 432.114842 161.461488 
L 432.404046 170.307312 
L 432.693249 173.481101 
L 432.982452 168.173607 
L 433.271655 172.232319 
L 433.560858 170.255137 
L 433.850062 173.58545 
L 434.139265 166.976999 
L 434.717671 174.417858 
L 435.006875 176.499047 
L 435.296078 166.6128 
L 435.585281 171.972127 
L 435.874484 171.035711 
L 436.163687 168.850172 
L 436.452891 174.886066 
L 436.742094 176.863588 
L 437.031297 172.700868 
L 437.3205 151.418716 
L 437.609704 165.780051 
L 437.898907 168.954181 
L 438.18811 160.108357 
L 438.477313 167.757573 
L 439.05572 172.752701 
L 439.344923 174.782057 
L 439.634126 175.30244 
L 440.212533 178.632753 
L 440.501736 179.204969 
L 440.790939 177.74817 
L 441.080142 179.517335 
L 441.369345 176.811413 
L 441.658549 177.800004 
L 442.526158 182.275091 
L 442.815361 182.899482 
L 443.104565 179.725352 
L 443.393768 178.11237 
L 443.682971 172.700868 
L 443.972174 174.313849 
L 444.261378 174.574041 
L 444.550581 178.11237 
L 444.839784 176.915422 
L 445.128987 179.412986 
L 445.41819 174.001483 
L 445.707394 176.030839 
L 445.996597 170.671512 
L 446.2858 171.503919 
L 446.575003 160.160532 
L 446.864207 170.307312 
L 447.15341 172.908884 
L 447.442613 171.816285 
L 447.731816 169.006355 
L 448.021019 171.503919 
L 448.310223 176.239197 
L 448.599426 162.346071 
L 448.888629 169.058189 
L 449.467036 173.429267 
L 449.756239 174.782057 
L 450.045442 165.207834 
L 450.623848 172.700868 
L 450.913052 175.66664 
L 451.202255 175.250265 
L 451.491458 176.811413 
L 451.780661 176.915422 
L 452.069864 178.944778 
L 452.359068 174.053658 
L 452.937474 178.528403 
L 453.226677 174.365683 
L 453.515881 167.705399 
L 453.805084 146.371414 
L 454.38349 160.212365 
L 454.672693 156.882394 
L 454.961897 156.466019 
L 455.2511 164.375086 
L 455.540303 164.010886 
L 456.11871 169.734755 
L 456.407913 158.235184 
L 456.697116 165.676042 
L 456.986319 168.538147 
L 457.275522 163.959052 
L 457.564726 156.934227 
L 458.432335 167.757573 
L 458.721539 169.890938 
L 459.010742 162.293896 
L 459.299945 164.42726 
L 459.589148 169.838763 
L 459.878351 165.676042 
L 460.167555 170.619337 
L 460.456758 170.723345 
L 460.745961 160.680914 
L 461.324367 169.42273 
L 461.613571 166.872991 
L 461.902774 155.581437 
L 462.191977 156.414186 
L 462.48118 148.556953 
L 462.770384 158.235184 
L 463.34879 161.149122 
L 463.637993 158.54755 
L 463.927196 161.045114 
L 464.2164 161.929696 
L 464.505603 157.038577 
L 464.794806 163.906878 
L 465.084009 166.092417 
L 465.373213 160.212365 
L 465.662416 159.848166 
L 465.951619 163.698861 
L 466.240822 165.207834 
L 466.530025 164.479435 
L 466.819229 165.572034 
L 467.108432 165.207834 
L 467.397635 160.680914 
L 467.976042 164.42726 
L 468.265245 160.576906 
L 468.554448 160.992939 
L 468.843651 166.924825 
L 469.132854 166.924825 
L 469.422058 161.045114 
L 469.711261 165.676042 
L 470.000464 167.237191 
L 470.289667 170.77552 
L 470.57887 166.872991 
L 471.157277 171.711936 
L 471.44648 164.323252 
L 471.735683 170.307312 
L 472.024887 171.972127 
L 472.31409 168.069598 
L 472.892496 174.313849 
L 473.181699 175.562631 
L 473.470903 176.030839 
L 473.760106 176.967596 
L 474.049309 171.503919 
L 474.338512 173.58545 
L 474.627716 174.417858 
L 474.916919 144.394232 
L 475.495325 160.160532 
L 475.784528 160.212365 
L 476.073732 157.298768 
L 476.362935 164.79146 
L 476.652138 164.843635 
L 476.941341 166.820816 
L 477.230545 163.906878 
L 477.519748 168.538147 
L 477.808951 170.255137 
L 478.098154 171.035711 
L 478.387357 153.968455 
L 478.676561 166.196425 
L 478.965764 163.022295 
L 479.54417 169.31838 
L 479.833373 163.022295 
L 480.122577 168.433798 
L 480.41178 162.189888 
L 480.700983 170.307312 
L 480.990186 171.503919 
L 481.27939 170.515329 
L 481.568593 161.096948 
L 481.857796 163.594853 
L 482.146999 161.045114 
L 482.436202 160.680914 
L 482.725406 159.796332 
L 483.014609 168.173607 
L 483.303812 170.983537 
L 483.593015 170.255137 
L 483.882219 173.116901 
L 484.171422 167.757573 
L 484.460625 169.890938 
L 484.749828 174.417858 
L 485.039031 172.804876 
L 485.328235 167.757573 
L 485.617438 172.180485 
L 486.195844 176.811413 
L 486.485048 178.11237 
L 486.774251 178.11237 
L 487.352657 179.881535 
L 487.931064 170.202963 
L 488.798673 178.580578 
L 489.087877 180.297568 
L 489.37708 183.211507 
L 489.666283 182.014899 
L 489.955486 183.835898 
L 490.244689 184.824829 
L 490.533893 182.743299 
L 490.823096 177.74817 
L 491.401502 182.014899 
L 491.690705 181.858716 
L 491.979909 182.430933 
L 492.269112 185.293037 
L 492.558315 185.240863 
L 492.847518 181.390508 
L 493.136722 185.81342 
L 493.425925 185.605062 
L 493.715128 187.322393 
L 494.004331 186.541819 
L 494.293534 189.039383 
L 494.871941 190.288165 
L 495.161144 190.288165 
L 495.450347 191.120914 
L 495.739551 190.600531 
L 496.028754 189.819957 
L 496.317957 177.643821 
L 496.60716 183.159673 
L 496.896363 181.54635 
L 497.185567 183.575706 
L 497.47477 176.447214 
L 498.053176 181.182151 
L 498.34238 178.944778 
L 498.631583 174.782057 
L 498.920786 161.877522 
L 499.499192 172.336327 
L 500.077599 164.843635 
L 500.945208 176.967596 
L 501.234412 179.517335 
L 501.523615 181.078142 
L 501.812818 167.549216 
L 502.102021 166.924825 
L 502.391225 172.648693 
L 502.680428 176.030839 
L 502.969631 177.435804 
L 503.548037 181.130317 
L 504.126444 183.627881 
L 504.415647 185.189029 
L 504.70485 178.632753 
L 504.994054 181.754708 
L 505.283257 179.308977 
L 506.150866 185.397046 
L 506.44007 186.541819 
L 506.729273 188.571175 
L 507.018476 188.102967 
L 507.307679 188.154801 
L 507.596883 183.680056 
L 507.886086 186.749836 
L 509.042899 192.317521 
L 509.332102 192.785729 
L 509.621305 193.670312 
L 509.910508 193.254278 
L 510.199711 193.878669 
L 510.488915 195.335468 
L 510.778118 196.220051 
L 511.067321 193.51447 
L 511.356524 195.283635 
L 511.645728 190.70454 
L 511.934931 193.618478 
L 512.224134 195.283635 
L 512.513337 196.116042 
L 512.80254 196.116042 
L 513.091744 194.399052 
L 513.380947 197.416999 
L 513.959353 198.977806 
L 514.248557 198.977806 
L 514.53776 197.312991 
L 514.826963 194.50306 
L 515.116166 197.312991 
L 515.405369 196.948791 
L 515.694573 195.751843 
L 516.272979 199.029981 
L 516.562182 196.58425 
L 516.851386 182.847307 
L 517.140589 187.374227 
L 517.429792 189.455758 
L 517.718995 189.351749 
L 518.008198 189.872132 
L 518.297402 191.172748 
L 518.586605 190.808548 
L 519.165011 193.51447 
L 519.454214 194.138861 
L 520.032621 196.740433 
L 520.321824 197.052799 
L 520.611027 197.000625 
L 520.900231 197.364824 
L 521.189434 198.145398 
L 521.478637 196.480242 
L 521.76784 196.116042 
L 522.057043 197.312991 
L 522.346247 196.168217 
L 522.63545 182.847307 
L 522.924653 185.709412 
L 523.213856 185.605062 
L 523.50306 172.284493 
L 523.792263 179.777526 
L 524.081466 183.731889 
L 524.370669 174.834232 
L 524.659872 180.817951 
L 524.949076 182.483107 
L 525.238279 181.390508 
L 525.527482 179.308977 
L 525.816685 182.379099 
L 526.105889 180.662109 
L 526.395092 186.125445 
L 526.973498 179.412986 
L 527.262701 140.231512 
L 527.551905 161.877522 
L 528.130311 169.838763 
L 528.419514 149.75356 
L 528.708717 164.375086 
L 528.997921 159.848166 
L 529.287124 165.8844 
L 529.576327 151.054517 
L 530.154734 165.988408 
L 530.73314 171.868119 
L 531.022343 174.313849 
L 531.311546 169.474563 
L 532.179156 178.216378 
L 532.468359 161.877522 
L 532.757563 167.028833 
L 533.046766 166.456616 
L 533.335969 153.968455 
L 533.625172 166.040242 
L 533.914375 170.307312 
L 534.203579 167.028833 
L 534.492782 166.404442 
L 534.781985 169.890938 
L 535.071188 170.098954 
L 535.360392 173.065067 
L 535.649595 171.868119 
L 535.938798 167.705399 
L 536.517204 173.8453 
L 536.806408 169.42273 
L 537.095611 172.700868 
L 537.384814 169.890938 
L 537.674017 170.202963 
L 537.96322 173.169076 
L 538.541627 180.349743 
L 538.83083 156.362011 
L 539.120033 169.890938 
L 539.409237 174.365683 
L 539.69844 173.533275 
L 539.987643 176.967596 
L 540.276846 179.048786 
L 540.566049 173.637284 
L 540.855253 173.325259 
L 541.144456 176.811413 
L 541.433659 178.684586 
L 541.722862 179.46516 
L 542.012066 176.187022 
L 542.301269 179.777526 
L 542.590472 179.777526 
L 542.879675 181.130317 
L 543.168878 181.494517 
L 543.458082 181.182151 
L 544.036488 185.240863 
L 544.325691 185.240863 
L 544.614895 186.489645 
L 544.904098 186.489645 
L 545.193301 173.169076 
L 545.482504 166.924825 
L 545.771707 172.648693 
L 546.060911 174.365683 
L 546.639317 179.777526 
L 546.92852 163.542678 
L 547.506927 174.417858 
L 547.79613 176.030839 
L 548.085333 178.996952 
L 548.374536 178.11237 
L 548.66374 181.962725 
L 548.952943 183.575706 
L 549.531349 184.460289 
L 549.820552 185.605062 
L 550.398959 177.695996 
L 550.977365 185.553229 
L 551.266569 187.010027 
L 551.555772 183.627881 
L 552.134178 182.847307 
L 552.423381 180.245734 
L 552.712585 184.980671 
L 553.001788 186.958194 
L 553.290991 185.344871 
L 553.580194 170.619337 
L 553.869398 178.892944 
L 554.447804 184.928838 
L 554.737007 177.800004 
L 555.02621 183.211507 
L 555.315414 166.040242 
L 555.604617 176.863588 
L 555.89382 176.187022 
L 556.183023 180.609934 
L 556.472226 182.743299 
L 556.76143 170.202963 
L 557.050633 176.863588 
L 557.339836 171.191894 
L 557.629039 171.920294 
L 557.918243 177.38363 
L 558.207446 178.684586 
L 559.075055 166.092417 
L 559.364259 169.838763 
L 559.653462 169.890938 
L 559.942665 167.289024 
L 560.231868 175.250265 
L 560.521072 174.834232 
L 560.810275 176.499047 
L 561.099478 174.417858 
L 561.388681 176.083014 
L 561.677884 175.250265 
L 561.967088 178.528403 
L 562.256291 178.11237 
L 562.545494 181.338334 
L 563.123901 184.72048 
L 563.413104 185.969262 
L 563.702307 185.709412 
L 563.99151 187.010027 
L 564.280713 185.761245 
L 564.569917 185.189029 
L 564.85912 186.958194 
L 565.148323 187.062202 
L 565.437526 187.790601 
L 565.726729 189.455758 
L 566.015933 189.403583 
L 566.305136 191.172748 
L 566.594339 189.767783 
L 567.172746 191.901147 
L 567.461949 190.288165 
L 567.751152 192.42153 
L 568.040355 193.202104 
L 568.329558 185.240863 
L 568.618762 188.935375 
L 568.907965 191.068739 
L 569.486371 193.722486 
L 569.775575 192.837904 
L 570.064778 193.878669 
L 570.353981 192.785729 
L 570.643184 191.120914 
L 571.221591 195.23146 
L 571.510794 197.729024 
L 571.799997 197.312991 
L 572.0892 196.532417 
L 572.378404 194.034852 
L 572.667607 193.15027 
L 572.95681 194.399052 
L 573.246013 194.034852 
L 573.535216 195.283635 
L 573.82442 192.369696 
L 574.402826 195.699668 
L 574.692029 196.324059 
L 574.981232 192.369696 
L 575.559639 189.455758 
L 576.138045 195.387643 
L 576.427249 196.58425 
L 577.005655 192.265688 
L 577.294858 195.543826 
L 577.584061 195.959859 
L 578.162468 199.082155 
L 578.451671 199.75838 
L 579.030078 201.475711 
L 579.608484 202.360293 
L 579.897687 181.130317 
L 580.18689 170.202963 
L 581.0545 188.102967 
L 581.632907 193.045921 
L 582.211313 193.202104 
L 582.500516 183.159673 
L 582.789719 182.326924 
L 583.657329 189.403583 
L 583.946532 189.403583 
L 584.235735 191.172748 
L 584.524939 191.328931 
L 585.103345 194.450886 
L 585.970955 197.885207 
L 586.260158 184.35628 
L 586.838564 190.70454 
L 587.127768 192.890079 
L 587.416971 194.138861 
L 587.706174 196.116042 
L 588.284581 197.833373 
L 588.573784 199.082155 
L 588.862987 199.498189 
L 589.15219 198.301581 
L 589.441393 183.627881 
L 589.730597 189.403583 
L 590.0198 177.852179 
L 590.598206 187.270219 
L 590.88741 188.206976 
L 591.465816 192.369696 
L 591.755019 192.265688 
L 592.044222 194.086686 
L 592.333426 189.403583 
L 592.622629 186.958194 
L 592.911832 187.270219 
L 593.490238 191.120914 
L 593.779442 161.461488 
L 594.357848 178.320387 
L 594.936255 185.136854 
L 595.803864 190.756714 
L 596.093067 191.641297 
L 596.382271 191.797139 
L 597.539084 196.792608 
L 597.828287 197.729024 
L 598.11749 199.082155 
L 598.406693 198.769789 
L 598.695896 196.58425 
L 598.9851 198.509598 
L 599.274303 199.082155 
L 599.563506 200.330937 
L 599.852709 197.208641 
L 600.141913 190.70454 
L 600.720319 196.58425 
L 601.009522 196.012034 
L 601.298725 197.052799 
L 601.587929 189.872132 
L 601.877132 177.800004 
L 602.166335 174.729883 
L 602.744741 183.263681 
L 603.033945 186.489645 
L 603.323148 174.782057 
L 603.901554 180.609934 
L 604.190758 182.795473 
L 604.479961 179.82936 
L 604.769164 152.667498 
L 605.058367 169.006355 
L 605.636774 179.517335 
L 606.504383 186.489645 
L 606.793587 187.842776 
L 607.08279 181.182151 
L 607.371993 178.580578 
L 607.661196 179.412986 
L 608.239603 176.030839 
L 608.818009 177.279621 
L 609.107212 175.562631 
L 609.396416 177.643821 
L 609.974822 183.263681 
L 610.264025 185.657237 
L 610.842432 188.102967 
L 611.131635 187.686593 
L 611.420838 185.657237 
L 611.710041 186.073611 
L 611.999244 187.270219 
L 612.288448 189.351749 
L 612.577651 190.184157 
L 613.156057 193.202104 
L 613.445261 193.982678 
L 613.734464 190.652365 
L 614.602073 196.168217 
L 614.891277 197.468833 
L 615.18048 198.145398 
L 615.758886 194.450886 
L 616.04809 181.858716 
L 616.337293 178.164204 
L 616.626496 183.575706 
L 616.915699 185.397046 
L 617.494106 177.071605 
L 617.783309 177.695996 
L 618.072512 181.130317 
L 618.361715 181.54635 
L 618.940122 186.021437 
L 619.807731 190.808548 
L 620.096935 191.485114 
L 620.675341 194.086686 
L 620.964544 196.480242 
L 621.542951 198.665781 
L 621.832154 192.42153 
L 622.121357 192.317521 
L 622.41056 193.254278 
L 622.699764 190.236332 
L 623.856576 194.086686 
L 624.14578 191.120914 
L 624.724186 196.532417 
L 625.013389 197.312991 
L 625.591796 200.330937 
L 625.880999 200.591129 
L 626.748609 195.23146 
L 627.327015 199.810555 
L 627.616218 199.862388 
L 627.905422 201.163345 
L 628.194625 201.579719 
L 628.483828 202.412127 
L 628.773031 195.804017 
L 629.351438 199.290172 
L 629.640641 200.695137 
L 629.929844 201.527545 
L 630.219047 202.828501 
L 630.508251 201.059337 
L 631.086657 202.360293 
L 631.37586 198.613606 
L 631.665063 201.111511 
L 631.954267 201.943919 
L 632.24347 201.111511 
L 632.532673 185.293037 
L 633.111079 192.369696 
L 633.400283 192.681721 
L 633.978689 195.647834 
L 634.557096 198.977806 
L 634.846299 197.364824 
L 635.135502 199.082155 
L 635.424705 199.810555 
L 635.713908 201.111511 
L 636.292315 193.618478 
L 636.581518 196.532417 
L 636.870721 197.729024 
L 637.159925 189.767783 
L 637.449128 191.901147 
L 638.027534 198.249407 
L 638.316737 195.751843 
L 638.605941 198.301581 
L 638.895144 189.507591 
L 639.184347 189.767783 
L 639.762754 195.23146 
L 640.051957 181.962725 
L 640.34116 188.206976 
L 640.919566 192.837904 
L 641.20877 193.566303 
L 641.497973 177.539813 
L 641.787176 184.512463 
L 642.076379 186.853844 
L 642.365582 178.996952 
L 642.654786 185.189029 
L 643.233192 188.675184 
L 643.522395 170.098954 
L 644.100802 180.817951 
L 644.390005 183.627881 
L 644.968411 172.804876 
L 645.257615 179.412986 
L 645.546818 181.910891 
L 645.836021 183.00349 
L 646.125224 156.830219 
L 646.414428 165.519859 
L 646.992834 174.574041 
L 647.860444 179.881535 
L 648.149647 181.442342 
L 648.43885 180.19356 
L 649.017257 183.263681 
L 650.174069 188.623009 
L 650.463273 189.039383 
L 650.752476 190.600531 
L 651.041679 188.206976 
L 651.330882 190.652365 
L 651.620085 191.432939 
L 651.909289 192.890079 
L 652.198492 193.51447 
L 652.487695 194.450886 
L 652.776898 193.930503 
L 653.066102 194.034852 
L 653.355305 195.751843 
L 653.644508 196.168217 
L 653.933711 191.120914 
L 655.090524 196.376234 
L 655.379727 184.876663 
L 655.958134 191.485114 
L 656.247337 191.536947 
L 656.53654 190.756714 
L 656.825743 191.849313 
L 657.114947 196.168217 
L 657.40415 192.161338 
L 657.982556 196.220051 
L 658.27176 194.86726 
L 658.560963 194.295044 
L 658.850166 189.611941 
L 659.428572 193.670312 
L 660.006979 196.324059 
L 660.585385 198.301581 
L 660.874588 198.717956 
L 661.742198 200.746971 
L 662.031401 200.695137 
L 662.320605 198.561773 
L 662.899011 201.059337 
L 663.188214 201.943919 
L 663.477417 202.412127 
L 663.766621 203.192701 
L 664.055824 191.120914 
L 664.345027 192.785729 
L 664.63423 196.532417 
L 664.923434 198.665781 
L 665.50184 200.746971 
L 665.791043 200.382771 
L 666.36945 201.996094 
L 666.947856 203.192701 
L 667.237059 203.244876 
L 667.815466 204.857857 
L 668.104669 201.475711 
L 668.393872 192.369696 
L 668.683075 196.58425 
L 669.261482 199.914563 
L 669.550685 201.111511 
L 669.839888 201.163345 
L 670.129091 201.839911 
L 670.418295 203.244876 
L 670.707498 203.660909 
L 670.996701 204.493658 
L 671.285904 204.909691 
L 671.575108 206.054465 
L 671.864311 206.470839 
L 672.153514 205.690265 
L 672.442717 206.106639 
L 673.021124 207.927979 
L 673.310327 207.823629 
L 673.59953 200.330937 
L 673.888733 203.192701 
L 674.46714 206.470839 
L 674.756343 206.627022 
L 675.045546 206.574847 
L 675.334749 207.043396 
L 675.623953 205.118049 
L 675.913156 204.025109 
L 676.202359 204.545491 
L 676.491562 204.441483 
L 676.780766 202.828501 
L 677.069969 202.776327 
L 677.359172 202.360293 
L 677.937578 197.833373 
L 678.226782 196.948791 
L 678.515985 198.613606 
L 678.805188 199.498189 
L 679.383594 201.943919 
L 679.672798 202.464302 
L 681.118814 206.158814 
L 681.69722 206.939047 
L 681.986423 206.627022 
L 682.275627 207.043396 
L 682.56483 207.875804 
L 682.854033 208.240004 
L 683.143236 206.939047 
L 683.721643 208.656378 
L 684.010846 209.124586 
L 684.300049 192.317521 
L 684.589252 197.781199 
L 684.878456 200.746971 
L 685.167659 202.360293 
L 685.456862 191.589122 
L 685.746065 192.525879 
L 686.035269 195.699668 
L 686.324472 197.416999 
L 686.613675 198.093224 
L 686.902878 197.729024 
L 687.481285 167.393374 
L 688.638097 183.992081 
L 688.927301 182.795473 
L 689.216504 181.078142 
L 689.505707 175.979006 
L 689.79491 182.430933 
L 690.084114 166.924825 
L 690.373317 176.030839 
L 690.66252 178.996952 
L 690.951723 178.996952 
L 691.240926 177.695996 
L 691.53013 174.313849 
L 691.819333 179.82936 
L 692.108536 179.46516 
L 692.397739 176.447214 
L 692.686943 180.609934 
L 692.976146 170.255137 
L 693.554552 179.048786 
L 693.843755 181.130317 
L 694.132959 169.786929 
L 694.422162 175.198432 
L 694.711365 172.804876 
L 695.000568 177.956187 
L 695.289772 171.972127 
L 695.868178 177.539813 
L 696.157381 176.915422 
L 696.446584 177.331796 
L 697.024991 181.130317 
L 697.314194 178.996952 
L 697.603397 161.409314 
L 697.8926 171.451745 
L 698.471007 177.74817 
L 698.76021 178.788595 
L 699.338617 182.847307 
L 699.62782 181.858716 
L 699.917023 176.030839 
L 700.206226 178.164204 
L 700.495429 174.365683 
L 700.784633 179.46516 
L 701.073836 179.725352 
L 701.652242 169.110364 
L 702.230649 176.915422 
L 702.519852 177.331796 
L 702.809055 172.700868 
L 703.098258 180.19356 
L 703.387462 182.951315 
L 703.676665 183.263681 
L 703.965868 173.481101 
L 704.544275 180.19356 
L 704.833478 179.725352 
L 705.122681 180.662109 
L 705.411884 179.82936 
L 705.701087 183.263681 
L 705.990291 185.032846 
L 706.279494 184.35628 
L 706.568697 178.996952 
L 707.147103 185.293037 
L 707.72551 187.842776 
L 708.014713 189.767783 
L 709.171526 192.733896 
L 709.460729 192.369696 
L 709.749932 193.670312 
L 710.328339 194.50306 
L 710.617542 195.959859 
L 710.906745 196.272225 
L 711.195949 197.052799 
L 711.485152 197.104633 
L 711.774355 175.30244 
L 712.063558 181.598525 
L 712.352761 182.847307 
L 712.641965 183.575706 
L 713.220371 188.102967 
L 713.509574 187.686593 
L 713.798778 188.98755 
L 714.087981 191.120914 
L 714.377184 188.206976 
L 714.95559 191.953322 
L 715.244794 193.098095 
L 715.533997 192.785729 
L 716.112403 194.138861 
L 716.401606 195.699668 
L 716.69081 196.064209 
L 716.980013 196.948791 
L 717.269216 197.052799 
L 717.558419 197.416999 
L 717.847623 198.665781 
L 718.136826 196.480242 
L 719.004435 200.226929 
L 719.293639 200.642962 
L 719.582842 201.527545 
L 719.872045 201.475711 
L 720.161248 201.21552 
L 720.739655 189.039383 
L 721.028858 189.351749 
L 721.318061 185.553229 
L 721.607264 188.154801 
L 721.896468 189.403583 
L 722.185671 189.507591 
L 722.474874 191.120914 
L 722.764077 191.901147 
L 723.053281 192.161338 
L 723.342484 193.098095 
L 723.631687 193.618478 
L 723.92089 195.699668 
L 724.210093 196.948791 
L 724.499297 196.896616 
L 724.7885 197.312991 
L 725.945313 200.695137 
L 726.234516 201.163345 
L 726.523719 201.007162 
L 726.812922 201.21552 
L 727.680532 203.140526 
L 728.258938 205.274232 
L 728.548142 204.389649 
L 728.837345 205.638431 
L 729.704955 207.45943 
L 730.572564 208.55237 
L 731.150971 209.540961 
L 731.440174 209.436952 
L 731.729377 208.292178 
L 732.01858 208.240004 
L 732.307784 208.656378 
L 732.596987 208.604203 
L 733.175393 209.592794 
L 733.464596 209.644969 
L 734.043003 211.101768 
L 734.332206 210.737568 
L 734.621409 211.153942 
L 734.910612 210.26936 
L 735.489019 206.991222 
L 736.067425 208.708212 
L 736.645832 209.488786 
L 736.935035 210.321535 
L 737.224238 210.373368 
L 737.513441 210.945926 
L 737.802645 211.206117 
L 738.091848 211.257951 
L 738.381051 211.153942 
L 738.670254 212.038525 
L 738.959458 212.298716 
L 739.248661 212.71509 
L 739.537864 212.923107 
L 739.827067 211.98635 
L 740.11627 209.020578 
L 740.405474 210.373368 
L 740.694677 206.991222 
L 741.273083 209.072411 
L 741.85149 210.425543 
L 742.429896 211.101768 
L 743.008303 212.090699 
L 743.586709 211.98635 
L 743.875912 212.194708 
L 744.165115 212.819099 
L 744.454319 211.934516 
L 744.743522 208.656378 
L 745.611132 211.153942 
L 747.346351 213.703681 
L 747.635554 213.547498 
L 747.924757 213.547498 
L 748.503164 214.328072 
L 748.792367 214.484255 
L 749.659977 215.629029 
L 749.94918 216.14907 
L 750.238383 216.14907 
L 750.81679 216.981819 
L 751.105993 216.929644 
L 751.395196 216.201245 
L 751.684399 216.461436 
L 751.973602 217.033653 
L 752.262806 217.033653 
L 752.552009 217.450027 
L 752.841212 217.450027 
L 753.130415 217.814227 
L 753.419618 217.866401 
L 753.708822 217.762393 
L 753.998025 218.542626 
L 754.287228 218.230601 
L 754.576431 217.346019 
L 754.865635 218.750984 
L 755.154838 218.698809 
L 755.444041 219.3232 
L 755.733244 218.959 
L 756.022447 193.618478 
L 756.311651 192.369696 
L 756.600854 197.833373 
L 757.17926 201.21552 
L 757.468464 201.996094 
L 757.757667 203.660909 
L 758.04687 202.412127 
L 758.336073 189.039383 
L 758.625276 194.50306 
L 758.91448 197.364824 
L 759.203683 198.145398 
L 759.492886 199.550363 
L 759.782089 199.810555 
L 760.071293 201.21552 
L 760.360496 202.047927 
L 760.649699 202.360293 
L 761.228105 204.077283 
L 761.517309 204.2853 
L 761.806512 206.158814 
L 762.095715 206.470839 
L 762.384918 207.407596 
L 762.674121 207.667787 
L 763.252528 209.072411 
L 763.830934 209.956994 
L 764.120138 210.373368 
L 764.409341 210.321535 
L 764.698544 210.113177 
L 764.987747 210.477377 
L 765.27695 211.361959 
L 765.855357 211.62215 
L 766.722967 212.71509 
L 767.01217 212.298716 
L 767.301373 212.923107 
L 767.590576 212.766924 
L 767.879779 183.940247 
L 768.458186 196.896616 
L 769.036592 201.996094 
L 769.904202 205.638431 
L 770.193405 201.21552 
L 770.482608 201.631553 
L 770.771812 202.308119 
L 771.061015 203.713084 
L 771.350218 204.389649 
L 771.928624 206.574847 
L 772.217828 206.835039 
L 772.507031 207.875804 
L 772.796234 207.303588 
L 773.085437 208.135995 
L 773.663844 201.943919 
L 774.24225 204.805683 
L 774.820657 204.805683 
L 775.10986 192.681721 
L 775.399063 193.826495 
L 775.97747 199.446355 
L 776.845079 203.036518 
L 777.134282 203.609075 
L 777.423486 204.493658 
L 777.712689 204.805683 
L 778.291095 207.147405 
L 779.158705 208.187829 
L 779.447908 188.571175 
L 779.737111 190.236332 
L 780.026315 191.016565 
L 780.604721 197.000625 
L 780.893924 198.977806 
L 781.472331 200.591129 
L 782.050737 203.296709 
L 782.33994 202.255944 
L 782.629144 202.828501 
L 782.918347 201.891744 
L 784.07516 205.74244 
L 784.364363 205.690265 
L 784.653566 205.846448 
L 784.942769 200.278763 
L 785.521176 204.077283 
L 786.099582 206.106639 
L 786.388785 206.054465 
L 786.677989 206.210648 
L 786.967192 206.106639 
L 787.545598 207.927979 
L 787.834802 199.75838 
L 788.124005 197.573182 
L 788.413208 200.330937 
L 788.702411 199.810555 
L 788.991614 197.364824 
L 789.280818 199.498189 
L 789.570021 197.937382 
L 789.859224 197.833373 
L 790.148427 199.914563 
L 790.437631 201.059337 
L 790.726834 201.527545 
L 791.016037 196.168217 
L 791.30524 169.058189 
L 791.594443 180.662109 
L 792.17285 190.288165 
L 792.462053 187.270219 
L 792.751256 188.571175 
L 793.040459 188.519001 
L 793.908069 192.681721 
L 794.486476 191.901147 
L 794.775679 193.254278 
L 795.064882 196.220051 
L 795.354085 196.844442 
L 795.643288 198.613606 
L 795.932492 198.613606 
L 796.800101 201.163345 
L 797.089305 201.527545 
L 797.378508 202.360293 
L 797.667711 202.724493 
L 797.956914 202.724493 
L 798.246117 202.412127 
L 798.824524 204.545491 
L 799.113727 204.857857 
L 799.692134 173.533275 
L 799.981337 182.275091 
L 800.27054 185.344871 
L 800.559743 183.523873 
L 800.848946 188.102967 
L 801.13815 187.426402 
L 801.427353 176.811413 
L 802.294962 179.46516 
L 802.584166 182.951315 
L 803.162572 177.539813 
L 803.740979 183.211507 
L 804.030182 185.293037 
L 804.319385 184.564638 
L 804.608588 186.489645 
L 804.897791 184.408455 
L 805.186995 186.853844 
L 805.476198 188.206976 
L 805.765401 186.489645 
L 806.054604 187.218385 
L 806.343808 176.65523 
L 806.633011 183.211507 
L 807.211417 187.842776 
L 807.50062 187.374227 
L 808.079027 190.70454 
L 808.657433 192.369696 
L 808.946637 192.837904 
L 809.23584 193.566303 
L 809.525043 192.941912 
L 809.814246 194.034852 
L 810.103449 189.039383 
L 810.392653 191.068739 
L 810.971059 191.953322 
L 811.260262 193.566303 
L 811.549465 194.399052 
L 811.838669 192.317521 
L 812.127872 181.54635 
L 812.995482 196.168217 
L 813.284685 191.536947 
L 813.573888 192.473704 
L 814.441498 196.428408 
L 814.730701 196.948791 
L 815.598311 200.434946 
L 816.176717 200.278763 
L 816.755123 202.360293 
L 817.044327 202.776327 
L 817.33353 201.891744 
L 817.911936 204.025109 
L 818.20114 204.493658 
L 818.779546 206.627022 
L 819.068749 206.210648 
L 819.357952 205.326065 
L 819.647156 191.276756 
L 819.936359 193.202104 
L 820.225562 197.625016 
L 820.514765 198.145398 
L 820.803968 199.498189 
L 821.093172 194.034852 
L 821.382375 191.901147 
L 821.960781 172.284493 
L 822.249985 179.621343 
L 822.828391 182.847307 
L 823.117594 183.731889 
L 823.406797 185.344871 
L 823.696001 186.021437 
L 823.985204 162.293896 
L 824.274407 152.303299 
L 824.56361 154.800863 
L 824.852814 167.445207 
L 825.142017 171.347736 
L 825.43122 170.619337 
L 825.720423 169.370555 
L 826.009626 169.734755 
L 826.29883 171.556094 
L 826.588033 177.227788 
L 826.877236 179.881535 
L 827.166439 179.777526 
L 827.744846 184.564638 
L 828.323252 187.374227 
L 828.612455 186.489645 
L 828.901659 183.263681 
L 829.480065 186.958194 
L 830.347675 190.236332 
L 830.636878 188.154801 
L 830.926081 190.70454 
L 831.215284 191.589122 
L 831.504488 191.901147 
L 832.082894 189.039383 
L 832.372097 191.120914 
L 832.6613 189.403583 
L 832.950504 191.536947 
L 833.239707 192.265688 
L 834.39652 197.000625 
L 834.974926 198.301581 
L 835.553333 198.977806 
L 835.842536 199.342347 
L 836.131739 200.330937 
L 836.710146 201.163345 
L 836.999349 201.891744 
L 837.288552 202.047927 
L 837.577755 204.025109 
L 837.866958 200.591129 
L 838.156162 202.412127 
L 838.445365 196.896616 
L 838.734568 199.966738 
L 839.023771 200.642962 
L 839.312974 201.943919 
L 839.602178 202.412127 
L 839.891381 203.192701 
L 840.180584 203.556901 
L 840.469787 195.699668 
L 840.758991 198.561773 
L 841.048194 199.446355 
L 841.337397 201.059337 
L 841.6266 201.943919 
L 841.915803 202.412127 
L 842.205007 202.308119 
L 842.49421 201.111511 
L 843.072616 203.244876 
L 844.518632 206.939047 
L 844.807836 207.355421 
L 845.097039 208.240004 
L 845.675445 209.072411 
L 845.964649 208.968403 
L 846.253852 197.468833 
L 846.543055 196.064209 
L 847.121461 200.799145 
L 847.410665 201.475711 
L 847.699868 198.665781 
L 847.989071 200.695137 
L 848.278274 194.763252 
L 848.567477 198.665781 
L 848.856681 199.029981 
L 849.145884 194.815085 
L 849.435087 197.833373 
L 849.72429 192.42153 
L 850.5919 196.532417 
L 850.881103 193.566303 
L 851.170306 196.116042 
L 851.45951 196.532417 
L 852.327119 199.290172 
L 852.905526 190.652365 
L 853.194729 181.338334 
L 853.483932 188.206976 
L 853.773135 191.224922 
L 854.062339 192.785729 
L 854.351542 193.618478 
L 854.929948 196.064209 
L 855.219152 196.948791 
L 855.508355 197.312991 
L 855.797558 193.566303 
L 856.086761 193.566303 
L 856.375964 195.751843 
L 856.665168 195.647834 
L 856.954371 197.052799 
L 857.243574 189.299575 
L 857.82198 195.283635 
L 858.111184 192.265688 
L 858.400387 191.485114 
L 858.978793 195.23146 
L 859.267997 196.116042 
L 860.135606 199.39418 
L 860.424809 199.75838 
L 860.714013 200.642962 
L 861.003216 198.249407 
L 861.292419 188.98755 
L 861.581622 190.652365 
L 861.870826 191.016565 
L 862.160029 194.919435 
L 862.449232 196.480242 
L 862.738435 197.312991 
L 863.606045 200.746971 
L 863.895248 201.163345 
L 864.184451 200.330937 
L 864.473655 200.642962 
L 865.341264 203.140526 
L 865.630467 202.412127 
L 865.919671 202.516135 
L 866.208874 203.140526 
L 866.498077 203.348884 
L 866.78728 203.192701 
L 867.944093 206.158814 
L 868.233296 204.025109 
L 868.5225 203.765258 
L 868.811703 204.077283 
L 869.100906 204.857857 
L 869.390109 204.389649 
L 869.679312 205.690265 
L 869.968516 206.106639 
L 870.257719 191.69313 
L 870.836125 199.133989 
L 871.125329 200.330937 
L 871.414532 202.672318 
L 871.703735 201.579719 
L 872.282141 202.308119 
L 872.860548 204.077283 
L 873.149751 204.441483 
L 873.438954 205.326065 
L 873.728158 205.74244 
L 874.017361 199.39418 
L 874.306564 201.527545 
L 875.174174 204.077283 
L 875.463377 200.695137 
L 875.75258 203.192701 
L 876.330986 203.973275 
L 876.62019 204.077283 
L 876.909393 204.441483 
L 877.198596 205.690265 
L 878.066206 206.887213 
L 878.355409 199.810555 
L 878.644612 202.047927 
L 878.933815 203.192701 
L 879.223019 202.308119 
L 879.512222 204.025109 
L 879.801425 204.545491 
L 880.090628 200.330937 
L 880.379832 203.140526 
L 880.669035 201.943919 
L 880.958238 189.247741 
L 881.247441 193.15027 
L 881.536644 189.872132 
L 881.825848 194.50306 
L 882.115051 194.399052 
L 882.404254 196.480242 
L 882.693457 189.819957 
L 882.982661 193.618478 
L 883.271864 194.346877 
L 883.561067 194.399052 
L 883.85027 196.012034 
L 884.139473 178.528403 
L 884.428677 177.800004 
L 884.71788 175.718814 
L 885.007083 176.759239 
L 885.296286 166.872991 
L 885.585489 174.001483 
L 885.874693 158.235184 
L 886.453099 169.370555 
L 886.742302 174.417858 
L 887.031506 177.01943 
L 887.320709 174.729883 
L 888.477522 183.992081 
L 888.766725 186.437811 
L 889.055928 185.969262 
L 889.345131 188.779192 
L 889.923538 186.021437 
L 890.212741 186.073611 
L 890.501944 187.790601 
L 890.791147 187.790601 
L 891.080351 188.623009 
L 891.369554 187.686593 
L 891.658757 186.073611 
L 891.94796 187.842776 
L 892.237164 187.738427 
L 892.81557 191.016565 
L 893.104773 187.374227 
L 893.393976 189.767783 
L 893.972383 191.745305 
L 894.261586 191.589122 
L 894.550789 192.369696 
L 894.839992 193.670312 
L 895.129196 193.15027 
L 895.418399 194.086686 
L 895.707602 193.566303 
L 895.996805 180.297568 
L 896.286009 186.021437 
L 896.575212 185.240863 
L 896.864415 177.331796 
L 897.153618 184.096089 
L 897.732025 188.98755 
L 898.021228 190.288165 
L 898.310431 190.236332 
L 898.599634 183.627881 
L 898.888838 187.218385 
L 899.178041 189.403583 
L 899.756447 191.589122 
L 900.624057 194.086686 
L 901.202463 196.116042 
L 902.070073 197.729024 
L 902.648479 199.498189 
L 902.937683 200.018571 
L 903.516089 201.527545 
L 903.805292 201.527545 
L 904.383699 202.724493 
L 904.962105 203.765258 
L 905.251308 203.817092 
L 905.829715 204.909691 
L 906.118918 206.158814 
L 906.408121 206.054465 
L 906.986528 207.043396 
L 907.275731 206.366831 
L 907.564934 207.823629 
L 908.143341 206.210648 
L 908.432544 207.043396 
L 908.721747 205.690265 
L 909.300153 207.823629 
L 910.167763 209.020578 
L 910.456966 209.384778 
L 910.74617 210.061343 
L 911.613779 211.049934 
L 911.902982 211.570317 
L 912.481389 211.518142 
L 912.770592 211.674325 
L 913.059795 212.350891 
L 913.348998 212.506733 
L 913.638202 212.142533 
L 913.927405 213.183298 
L 914.216608 213.651506 
L 914.505811 213.703681 
L 914.795015 214.067881 
L 915.084218 214.015706 
L 915.373421 214.484255 
L 915.951827 214.484255 
L 916.241031 214.900288 
L 916.530234 214.379906 
L 917.10864 215.368837 
L 917.687047 216.877811 
L 917.97625 216.461436 
L 917.97625 216.461436 
" clip-path="url(#p4e75d8efe8)" style="fill: none; stroke: #2563eb; stroke-opacity: 0.95; stroke-width: 0.936; stroke-linecap: square"/>
   </g>
   <g id="patch_22">
    <path d="M 33.604375 228.954713 
L 33.604375 17.061433 
" style="fill: none; stroke: #cbd5e1; stroke-width: 0.8; stroke-linejoin: miter; stroke-linecap: square"/>
   </g>
   <g id="patch_23">
    <path d="M 935.316875 228.954713 
L 935.316875 17.061433 
" style="fill: none; stroke: #cbd5e1; stroke-width: 0.8; stroke-linejoin: miter; stroke-linecap: square"/>
   </g>
   <g id="patch_24">
    <path d="M 33.604375 228.954713 
L 935.316875 228.954713 
" style="fill: none; stroke: #cbd5e1; stroke-width: 0.8; stroke-linejoin: miter; stroke-linecap: square"/>
   </g>
   <g id="patch_25">
    <path d="M 33.604375 17.061433 
L 935.316875 17.061433 
" style="fill: none; stroke: #cbd5e1; stroke-width: 0.8; stroke-linejoin: miter; stroke-linecap: square"/>
   </g>
   <g id="text_16">
    <!-- ACC -->
    <g style="fill: #475569" transform="translate(116.039345 13.27875) scale(0.08 -0.08)">
     <defs>
      <path id="DejaVuSans-43" d="M 4122 4306 
L 4122 3641 
Q 3803 3938 3442 4084 
Q 3081 4231 2675 4231 
Q 1875 4231 1450 3742 
Q 1025 3253 1025 2328 
Q 1025 1406 1450 917 
Q 1875 428 2675 428 
Q 3081 428 3442 575 
Q 3803 722 4122 1019 
L 4122 359 
Q 3791 134 3420 21 
Q 3050 -91 2638 -91 
Q 1578 -91 968 557 
Q 359 1206 359 2328 
Q 359 3453 968 4101 
Q 1578 4750 2638 4750 
Q 3056 4750 3426 4639 
Q 3797 4528 4122 4306 
z
" transform="scale(0.015625)"/>
     </defs>
     <use xlink:href="#DejaVuSans-41"/>
     <use xlink:href="#DejaVuSans-43" transform="translate(66.658203 0)"/>
     <use xlink:href="#DejaVuSans-43" transform="translate(136.482422 0)"/>
    </g>
   </g>
   <g id="text_17">
    <!-- OC -->
    <g style="fill: #475569" transform="translate(222.73654 13.27875) scale(0.08 -0.08)">
     <defs>
      <path id="DejaVuSans-4f" d="M 2522 4238 
Q 1834 4238 1429 3725 
Q 1025 3213 1025 2328 
Q 1025 1447 1429 934 
Q 1834 422 2522 422 
Q 3209 422 3611 934 
Q 4013 1447 4013 2328 
Q 4013 3213 3611 3725 
Q 3209 4238 2522 4238 
z
M 2522 4750 
Q 3503 4750 4090 4092 
Q 4678 3434 4678 2328 
Q 4678 1225 4090 567 
Q 3503 -91 2522 -91 
Q 1538 -91 948 565 
Q 359 1222 359 2328 
Q 359 3434 948 4092 
Q 1538 4750 2522 4750 
z
" transform="scale(0.015625)"/>
     </defs>
     <use xlink:href="#DejaVuSans-4f"/>
     <use xlink:href="#DejaVuSans-43" transform="translate(78.710938 0)"/>
    </g>
   </g>
   <g id="text_18">
    <!-- FCS -->
    <g style="fill: #475569" transform="translate(248.44349 13.27875) scale(0.08 -0.08)">
     <defs>
      <path id="DejaVuSans-46" d="M 628 4666 
L 3309 4666 
L 3309 4134 
L 1259 4134 
L 1259 2759 
L 3109 2759 
L 3109 2228 
L 1259 2228 
L 1259 0 
L 628 0 
L 628 4666 
z
" transform="scale(0.015625)"/>
      <path id="DejaVuSans-53" d="M 3425 4513 
L 3425 3897 
Q 3066 4069 2747 4153 
Q 2428 4238 2131 4238 
Q 1616 4238 1336 4038 
Q 1056 3838 1056 3469 
Q 1056 3159 1242 3001 
Q 1428 2844 1947 2747 
L 2328 2669 
Q 3034 2534 3370 2195 
Q 3706 1856 3706 1288 
Q 3706 609 3251 259 
Q 2797 -91 1919 -91 
Q 1588 -91 1214 -16 
Q 841 59 441 206 
L 441 856 
Q 825 641 1194 531 
Q 1563 422 1919 422 
Q 2459 422 2753 634 
Q 3047 847 3047 1241 
Q 3047 1584 2836 1778 
Q 2625 1972 2144 2069 
L 1759 2144 
Q 1053 2284 737 2584 
Q 422 2884 422 3419 
Q 422 4038 858 4394 
Q 1294 4750 2059 4750 
Q 2388 4750 2728 4690 
Q 3069 4631 3425 4513 
z
" transform="scale(0.015625)"/>
     </defs>
     <use xlink:href="#DejaVuSans-46"/>
     <use xlink:href="#DejaVuSans-43" transform="translate(57.519531 0)"/>
     <use xlink:href="#DejaVuSans-53" transform="translate(127.34375 0)"/>
    </g>
   </g>
   <g id="text_19">
    <!-- SR -->
    <g style="fill: #475569" transform="translate(287.288798 13.27875) scale(0.08 -0.08)">
     <defs>
      <path id="DejaVuSans-52" d="M 2841 2188 
Q 3044 2119 3236 1894 
Q 3428 1669 3622 1275 
L 4263 0 
L 3584 0 
L 2988 1197 
Q 2756 1666 2539 1819 
Q 2322 1972 1947 1972 
L 1259 1972 
L 1259 0 
L 628 0 
L 628 4666 
L 2053 4666 
Q 2853 4666 3247 4331 
Q 3641 3997 3641 3322 
Q 3641 2881 3436 2590 
Q 3231 2300 2841 2188 
z
M 1259 4147 
L 1259 2491 
L 2053 2491 
Q 2509 2491 2742 2702 
Q 2975 2913 2975 3322 
Q 2975 3731 2742 3939 
Q 2509 4147 2053 4147 
L 1259 4147 
z
" transform="scale(0.015625)"/>
     </defs>
     <use xlink:href="#DejaVuSans-53"/>
     <use xlink:href="#DejaVuSans-52" transform="translate(63.476562 0)"/>
    </g>
   </g>
   <g id="text_20">
    <!-- FFC -->
    <g style="fill: #475569" transform="translate(328.593656 13.27875) scale(0.08 -0.08)">
     <use xlink:href="#DejaVuSans-46"/>
     <use xlink:href="#DejaVuSans-46" transform="translate(57.519531 0)"/>
     <use xlink:href="#DejaVuSans-43" transform="translate(115.039062 0)"/>
    </g>
   </g>
   <g id="text_21">
    <!-- SS -->
    <g style="fill: #475569" transform="translate(413.10388 13.27875) scale(0.08 -0.08)">
     <use xlink:href="#DejaVuSans-53"/>
     <use xlink:href="#DejaVuSans-53" transform="translate(63.476562 0)"/>
    </g>
   </g>
   <g id="text_22">
    <!-- OC -->
    <g style="fill: #475569" transform="translate(480.736254 13.27875) scale(0.08 -0.08)">
     <use xlink:href="#DejaVuSans-4f"/>
     <use xlink:href="#DejaVuSans-43" transform="translate(78.710938 0)"/>
    </g>
   </g>
   <g id="text_23">
    <!-- FCS -->
    <g style="fill: #475569" transform="translate(504.16002 13.27875) scale(0.08 -0.08)">
     <use xlink:href="#DejaVuSans-46"/>
     <use xlink:href="#DejaVuSans-43" transform="translate(57.519531 0)"/>
     <use xlink:href="#DejaVuSans-53" transform="translate(127.34375 0)"/>
    </g>
   </g>
   <g id="text_24">
    <!-- SR -->
    <g style="fill: #475569" transform="translate(540.722145 13.27875) scale(0.08 -0.08)">
     <use xlink:href="#DejaVuSans-53"/>
     <use xlink:href="#DejaVuSans-52" transform="translate(63.476562 0)"/>
    </g>
   </g>
   <g id="text_25">
    <!-- FFC -->
    <g style="fill: #475569" transform="translate(582.027003 13.27875) scale(0.08 -0.08)">
     <use xlink:href="#DejaVuSans-46"/>
     <use xlink:href="#DejaVuSans-46" transform="translate(57.519531 0)"/>
     <use xlink:href="#DejaVuSans-43" transform="translate(115.039062 0)"/>
    </g>
   </g>
   <g id="text_26">
    <!-- SS -->
    <g style="fill: #475569" transform="translate(668.82041 13.27875) scale(0.08 -0.08)">
     <use xlink:href="#DejaVuSans-53"/>
     <use xlink:href="#DejaVuSans-53" transform="translate(63.476562 0)"/>
    </g>
   </g>
   <g id="text_27">
    <!-- OC -->
    <g style="fill: #475569" transform="translate(736.452784 13.27875) scale(0.08 -0.08)">
     <use xlink:href="#DejaVuSans-4f"/>
     <use xlink:href="#DejaVuSans-43" transform="translate(78.710938 0)"/>
    </g>
   </g>
   <g id="text_28">
    <!-- FCS -->
    <g style="fill: #475569" transform="translate(759.87655 13.27875) scale(0.08 -0.08)">
     <use xlink:href="#DejaVuSans-46"/>
     <use xlink:href="#DejaVuSans-43" transform="translate(57.519531 0)"/>
     <use xlink:href="#DejaVuSans-53" transform="translate(127.34375 0)"/>
    </g>
   </g>
   <g id="text_29">
    <!-- SR -->
    <g style="fill: #475569" transform="translate(796.438675 13.27875) scale(0.08 -0.08)">
     <use xlink:href="#DejaVuSans-53"/>
     <use xlink:href="#DejaVuSans-52" transform="translate(63.476562 0)"/>
    </g>
   </g>
   <g id="text_30">
    <!-- FFC -->
    <g style="fill: #475569" transform="translate(840.026716 13.27875) scale(0.08 -0.08)">
     <use xlink:href="#DejaVuSans-46"/>
     <use xlink:href="#DejaVuSans-46" transform="translate(57.519531 0)"/>
     <use xlink:href="#DejaVuSans-43" transform="translate(115.039062 0)"/>
    </g>
   </g>
   <g id="text_31">
    <!-- SS -->
    <g style="fill: #475569" transform="translate(888.006007 13.27875) scale(0.08 -0.08)">
     <use xlink:href="#DejaVuSans-53"/>
     <use xlink:href="#DejaVuSans-53" transform="translate(63.476562 0)"/>
    </g>
   </g>
   <g id="legend_1">
    <g id="line2d_28">
     <path d="M 889.169375 27.540183 
L 897.169375 27.540183 
L 905.169375 27.540183 
" style="fill: none; stroke: #2563eb; stroke-opacity: 0.95; stroke-width: 1.3; stroke-linecap: square"/>
    </g>
    <g id="text_32">
     <!-- EDA -->
     <g transform="translate(911.569375 30.340183) scale(0.08 -0.08)">
      <use xlink:href="#DejaVuSans-45"/>
      <use xlink:href="#DejaVuSans-44" transform="translate(63.183594 0)"/>
      <use xlink:href="#DejaVuSans-41" transform="translate(138.435547 0)"/>
     </g>
    </g>
   </g>
  </g>
 </g>
 <defs>
  <clipPath id="p4e75d8efe8">
   <rect x="33.604375" y="17.061433" width="901.7125" height="211.89328"/>
  </clipPath>
 </defs>
</svg>
