<?xml version="1.0" encoding="utf-8" standalone="no"?>
<!DOCTYPE svg PUBLIC "-//W3C//DTD SVG 1.1//EN"
  "http://www.w3.org/Graphics/SVG/1.1/DTD/svg11.dtd">
<svg xmlns:xlink="http://www.w3.org/1999/xlink" width="942.553437pt" height="265.54315pt" viewBox="0 0 942.553437 265.54315" xmlns="http://www.w3.org/2000/svg" version="1.1">
 <metadata>
  <rdf:RDF xmlns:dc="http://purl.org/dc/elements/1.1/" xmlns:cc="http://creativecommons.org/ns#" xmlns:rdf="http://www.w3.org/1999/02/22-rdf-syntax-ns#">
   <cc:Work>
    <dc:type rdf:resource="http://purl.org/dc/dcmitype/StillImage"/>
    <dc:date>2026-04-17T13:13:44.854491</dc:date>
    <dc:format>image/svg+xml</dc:format>
    <dc:creator>
     <cc:Agent>
      <dc:title>Matplotlib v3.10.8, https://matplotlib.org/</dc:title>
     </cc:Agent>
    </dc:creator>
   </cc:Work>
  </rdf:RDF>
 </metadata>
 <defs>
  <style type="text/css">*{stroke-linejoin: round; stroke-linecap: butt}</style>
 </defs>
 <g id="figure_1">
  <g id="patch_1">
   <path d="M 0 265.54315 
L 942.553437 265.54315 
L 942.553437 0 
L 0 0 
z
" style="fill: #ffffff"/>
  </g>
  <g id="axes_1">
   <g id="patch_2">
    <path d="M 42.190938 228.954713 
L 935.353437 228.954713 
L 935.353437 17.061433 
L 42.190938 17.061433 
z
" style="fill: #ffffff"/>
   </g>
   <g id="patch_3">
    <path d="M 42.190938 228.954713 
L 222.799154 228.954713 
L 222.799154 17.061433 
L 42.190938 17.061433 
z
" clip-path="url(#pe3c561a403)" style="fill: #f8fafc; opacity: 0.45"/>
   </g>
   <g id="patch_4">
    <path d="M 222.799154 228.954713 
L 249.890387 228.954713 
L 249.890387 17.061433 
L 222.799154 17.061433 
z
" clip-path="url(#pe3c561a403)" style="fill: #eff6ff; opacity: 0.45"/>
   </g>
   <g id="patch_5">
    <path d="M 249.890387 228.954713 
L 276.981619 228.954713 
L 276.981619 17.061433 
L 249.890387 17.061433 
z
" clip-path="url(#pe3c561a403)" style="fill: #fef3c7; opacity: 0.45"/>
   </g>
   <g id="patch_6">
    <path d="M 276.981619 228.954713 
L 322.133673 228.954713 
L 322.133673 17.061433 
L 276.981619 17.061433 
z
" clip-path="url(#pe3c561a403)" style="fill: #dcfce7; opacity: 0.45"/>
   </g>
   <g id="patch_7">
    <path d="M 322.133673 228.954713 
L 362.770522 228.954713 
L 362.770522 17.061433 
L 322.133673 17.061433 
z
" clip-path="url(#pe3c561a403)" style="fill: #fee2e2; opacity: 0.45"/>
   </g>
   <g id="patch_8">
    <path d="M 362.770522 228.954713 
L 367.285727 228.954713 
L 367.285727 17.061433 
L 362.770522 17.061433 
z
" clip-path="url(#pe3c561a403)" style="fill: #ede9fe; opacity: 0.45"/>
   </g>
   <g id="patch_9">
    <path d="M 367.285727 228.954713 
L 480.165863 228.954713 
L 480.165863 17.061433 
L 367.285727 17.061433 
z
" clip-path="url(#pe3c561a403)" style="fill: #f8fafc; opacity: 0.45"/>
   </g>
   <g id="patch_10">
    <path d="M 480.165863 228.954713 
L 502.74189 228.954713 
L 502.74189 17.061433 
L 480.165863 17.061433 
z
" clip-path="url(#pe3c561a403)" style="fill: #eff6ff; opacity: 0.45"/>
   </g>
   <g id="patch_11">
    <path d="M 502.74189 228.954713 
L 529.833122 228.954713 
L 529.833122 17.061433 
L 502.74189 17.061433 
z
" clip-path="url(#pe3c561a403)" style="fill: #fef3c7; opacity: 0.45"/>
   </g>
   <g id="patch_12">
    <path d="M 529.833122 228.954713 
L 570.469971 228.954713 
L 570.469971 17.061433 
L 529.833122 17.061433 
z
" clip-path="url(#pe3c561a403)" style="fill: #dcfce7; opacity: 0.45"/>
   </g>
   <g id="patch_13">
    <path d="M 570.469971 228.954713 
L 615.622025 228.954713 
L 615.622025 17.061433 
L 570.469971 17.061433 
z
" clip-path="url(#pe3c561a403)" style="fill: #fee2e2; opacity: 0.45"/>
   </g>
   <g id="patch_14">
    <path d="M 615.622025 228.954713 
L 620.13723 228.954713 
L 620.13723 17.061433 
L 615.622025 17.061433 
z
" clip-path="url(#pe3c561a403)" style="fill: #ede9fe; opacity: 0.45"/>
   </g>
   <g id="patch_15">
    <path d="M 620.13723 228.954713 
L 733.017366 228.954713 
L 733.017366 17.061433 
L 620.13723 17.061433 
z
" clip-path="url(#pe3c561a403)" style="fill: #f8fafc; opacity: 0.45"/>
   </g>
   <g id="patch_16">
    <path d="M 733.017366 228.954713 
L 755.593393 228.954713 
L 755.593393 17.061433 
L 733.017366 17.061433 
z
" clip-path="url(#pe3c561a403)" style="fill: #eff6ff; opacity: 0.45"/>
   </g>
   <g id="patch_17">
    <path d="M 755.593393 228.954713 
L 782.684625 228.954713 
L 782.684625 17.061433 
L 755.593393 17.061433 
z
" clip-path="url(#pe3c561a403)" style="fill: #fef3c7; opacity: 0.45"/>
   </g>
   <g id="patch_18">
    <path d="M 782.684625 228.954713 
L 823.321474 228.954713 
L 823.321474 17.061433 
L 782.684625 17.061433 
z
" clip-path="url(#pe3c561a403)" style="fill: #dcfce7; opacity: 0.45"/>
   </g>
   <g id="patch_19">
    <path d="M 823.321474 228.954713 
L 872.988734 228.954713 
L 872.988734 17.061433 
L 823.321474 17.061433 
z
" clip-path="url(#pe3c561a403)" style="fill: #fee2e2; opacity: 0.45"/>
   </g>
   <g id="patch_20">
    <path d="M 872.988734 228.954713 
L 913.625582 228.954713 
L 913.625582 17.061433 
L 872.988734 17.061433 
z
" clip-path="url(#pe3c561a403)" style="fill: #ede9fe; opacity: 0.45"/>
   </g>
   <g id="patch_21">
    <path d="M 913.625582 228.954713 
L 918.140788 228.954713 
L 918.140788 17.061433 
L 913.625582 17.061433 
z
" clip-path="url(#pe3c561a403)" style="fill: #f8fafc; opacity: 0.45"/>
   </g>
   <g id="matplotlib.axis_1">
    <g id="xtick_1">
     <g id="line2d_1">
      <path d="M 42.190938 228.954713 
L 42.190938 17.061433 
" clip-path="url(#pe3c561a403)" style="fill: none; stroke: #eef2f7; stroke-width: 0.55; stroke-linecap: square"/>
     </g>
     <g id="line2d_2">
      <defs>
       <path id="m3e82621586" d="M 0 0 
L 0 3.5 
" style="stroke: #000000; stroke-width: 0.8"/>
      </defs>
      <g>
       <use xlink:href="#m3e82621586" x="42.190938" y="228.954713" style="stroke: #000000; stroke-width: 0.8"/>
      </g>
     </g>
     <g id="text_1">
      <!-- 0 -->
      <g transform="translate(39.327813 242.793307) scale(0.09 -0.09)">
       <defs>
        <path id="DejaVuSans-30" d="M 2034 4250 
Q 1547 4250 1301 3770 
Q 1056 3291 1056 2328 
Q 1056 1369 1301 889 
Q 1547 409 2034 409 
Q 2525 409 2770 889 
Q 3016 1369 3016 2328 
Q 3016 3291 2770 3770 
Q 2525 4250 2034 4250 
z
M 2034 4750 
Q 2819 4750 3233 4129 
Q 3647 3509 3647 2328 
Q 3647 1150 3233 529 
Q 2819 -91 2034 -91 
Q 1250 -91 836 529 
Q 422 1150 422 2328 
Q 422 3509 836 4129 
Q 1250 4750 2034 4750 
z
" transform="scale(0.015625)"/>
       </defs>
       <use xlink:href="#DejaVuSans-30"/>
      </g>
     </g>
    </g>
    <g id="xtick_2">
     <g id="line2d_3">
      <path d="M 155.071073 228.954713 
L 155.071073 17.061433 
" clip-path="url(#pe3c561a403)" style="fill: none; stroke: #eef2f7; stroke-width: 0.55; stroke-linecap: square"/>
     </g>
     <g id="line2d_4">
      <g>
       <use xlink:href="#m3e82621586" x="155.071073" y="228.954713" style="stroke: #000000; stroke-width: 0.8"/>
      </g>
     </g>
     <g id="text_2">
      <!-- 25 -->
      <g transform="translate(149.344823 242.793307) scale(0.09 -0.09)">
       <defs>
        <path id="DejaVuSans-32" d="M 1228 531 
L 3431 531 
L 3431 0 
L 469 0 
L 469 531 
Q 828 903 1448 1529 
Q 2069 2156 2228 2338 
Q 2531 2678 2651 2914 
Q 2772 3150 2772 3378 
Q 2772 3750 2511 3984 
Q 2250 4219 1831 4219 
Q 1534 4219 1204 4116 
Q 875 4013 500 3803 
L 500 4441 
Q 881 4594 1212 4672 
Q 1544 4750 1819 4750 
Q 2544 4750 2975 4387 
Q 3406 4025 3406 3419 
Q 3406 3131 3298 2873 
Q 3191 2616 2906 2266 
Q 2828 2175 2409 1742 
Q 1991 1309 1228 531 
z
" transform="scale(0.015625)"/>
        <path id="DejaVuSans-35" d="M 691 4666 
L 3169 4666 
L 3169 4134 
L 1269 4134 
L 1269 2991 
Q 1406 3038 1543 3061 
Q 1681 3084 1819 3084 
Q 2600 3084 3056 2656 
Q 3513 2228 3513 1497 
Q 3513 744 3044 326 
Q 2575 -91 1722 -91 
Q 1428 -91 1123 -41 
Q 819 9 494 109 
L 494 744 
Q 775 591 1075 516 
Q 1375 441 1709 441 
Q 2250 441 2565 725 
Q 2881 1009 2881 1497 
Q 2881 1984 2565 2268 
Q 2250 2553 1709 2553 
Q 1456 2553 1204 2497 
Q 953 2441 691 2322 
L 691 4666 
z
" transform="scale(0.015625)"/>
       </defs>
       <use xlink:href="#DejaVuSans-32"/>
       <use xlink:href="#DejaVuSans-35" transform="translate(63.623047 0)"/>
      </g>
     </g>
    </g>
    <g id="xtick_3">
     <g id="line2d_5">
      <path d="M 267.951208 228.954713 
L 267.951208 17.061433 
" clip-path="url(#pe3c561a403)" style="fill: none; stroke: #eef2f7; stroke-width: 0.55; stroke-linecap: square"/>
     </g>
     <g id="line2d_6">
      <g>
       <use xlink:href="#m3e82621586" x="267.951208" y="228.954713" style="stroke: #000000; stroke-width: 0.8"/>
      </g>
     </g>
     <g id="text_3">
      <!-- 50 -->
      <g transform="translate(262.224958 242.793307) scale(0.09 -0.09)">
       <use xlink:href="#DejaVuSans-35"/>
       <use xlink:href="#DejaVuSans-30" transform="translate(63.623047 0)"/>
      </g>
     </g>
    </g>
    <g id="xtick_4">
     <g id="line2d_7">
      <path d="M 380.831344 228.954713 
L 380.831344 17.061433 
" clip-path="url(#pe3c561a403)" style="fill: none; stroke: #eef2f7; stroke-width: 0.55; stroke-linecap: square"/>
     </g>
     <g id="line2d_8">
      <g>
       <use xlink:href="#m3e82621586" x="380.831344" y="228.954713" style="stroke: #000000; stroke-width: 0.8"/>
      </g>
     </g>
     <g id="text_4">
      <!-- 75 -->
      <g transform="translate(375.105094 242.793307) scale(0.09 -0.09)">
       <defs>
        <path id="DejaVuSans-37" d="M 525 4666 
L 3525 4666 
L 3525 4397 
L 1831 0 
L 1172 0 
L 2766 4134 
L 525 4134 
L 525 4666 
z
" transform="scale(0.015625)"/>
       </defs>
       <use xlink:href="#DejaVuSans-37"/>
       <use xlink:href="#DejaVuSans-35" transform="translate(63.623047 0)"/>
      </g>
     </g>
    </g>
    <g id="xtick_5">
     <g id="line2d_9">
      <path d="M 493.711479 228.954713 
L 493.711479 17.061433 
" clip-path="url(#pe3c561a403)" style="fill: none; stroke: #eef2f7; stroke-width: 0.55; stroke-linecap: square"/>
     </g>
     <g id="line2d_10">
      <g>
       <use xlink:href="#m3e82621586" x="493.711479" y="228.954713" style="stroke: #000000; stroke-width: 0.8"/>
      </g>
     </g>
     <g id="text_5">
      <!-- 100 -->
      <g transform="translate(485.122104 242.793307) scale(0.09 -0.09)">
       <defs>
        <path id="DejaVuSans-31" d="M 794 531 
L 1825 531 
L 1825 4091 
L 703 3866 
L 703 4441 
L 1819 4666 
L 2450 4666 
L 2450 531 
L 3481 531 
L 3481 0 
L 794 0 
L 794 531 
z
" transform="scale(0.015625)"/>
       </defs>
       <use xlink:href="#DejaVuSans-31"/>
       <use xlink:href="#DejaVuSans-30" transform="translate(63.623047 0)"/>
       <use xlink:href="#DejaVuSans-30" transform="translate(127.246094 0)"/>
      </g>
     </g>
    </g>
    <g id="xtick_6">
     <g id="line2d_11">
      <path d="M 606.591614 228.954713 
L 606.591614 17.061433 
" clip-path="url(#pe3c561a403)" style="fill: none; stroke: #eef2f7; stroke-width: 0.55; stroke-linecap: square"/>
     </g>
     <g id="line2d_12">
      <g>
       <use xlink:href="#m3e82621586" x="606.591614" y="228.954713" style="stroke: #000000; stroke-width: 0.8"/>
      </g>
     </g>
     <g id="text_6">
      <!-- 125 -->
      <g transform="translate(598.002239 242.793307) scale(0.09 -0.09)">
       <use xlink:href="#DejaVuSans-31"/>
       <use xlink:href="#DejaVuSans-32" transform="translate(63.623047 0)"/>
       <use xlink:href="#DejaVuSans-35" transform="translate(127.246094 0)"/>
      </g>
     </g>
    </g>
    <g id="xtick_7">
     <g id="line2d_13">
      <path d="M 719.47175 228.954713 
L 719.47175 17.061433 
" clip-path="url(#pe3c561a403)" style="fill: none; stroke: #eef2f7; stroke-width: 0.55; stroke-linecap: square"/>
     </g>
     <g id="line2d_14">
      <g>
       <use xlink:href="#m3e82621586" x="719.47175" y="228.954713" style="stroke: #000000; stroke-width: 0.8"/>
      </g>
     </g>
     <g id="text_7">
      <!-- 150 -->
      <g transform="translate(710.882375 242.793307) scale(0.09 -0.09)">
       <use xlink:href="#DejaVuSans-31"/>
       <use xlink:href="#DejaVuSans-35" transform="translate(63.623047 0)"/>
       <use xlink:href="#DejaVuSans-30" transform="translate(127.246094 0)"/>
      </g>
     </g>
    </g>
    <g id="xtick_8">
     <g id="line2d_15">
      <path d="M 832.351885 228.954713 
L 832.351885 17.061433 
" clip-path="url(#pe3c561a403)" style="fill: none; stroke: #eef2f7; stroke-width: 0.55; stroke-linecap: square"/>
     </g>
     <g id="line2d_16">
      <g>
       <use xlink:href="#m3e82621586" x="832.351885" y="228.954713" style="stroke: #000000; stroke-width: 0.8"/>
      </g>
     </g>
     <g id="text_8">
      <!-- 175 -->
      <g transform="translate(823.76251 242.793307) scale(0.09 -0.09)">
       <use xlink:href="#DejaVuSans-31"/>
       <use xlink:href="#DejaVuSans-37" transform="translate(63.623047 0)"/>
       <use xlink:href="#DejaVuSans-35" transform="translate(127.246094 0)"/>
      </g>
     </g>
    </g>
    <g id="text_9">
     <!-- Minutes since session start -->
     <g transform="translate(421.182344 256.263463) scale(0.1 -0.1)">
      <defs>
       <path id="DejaVuSans-4d" d="M 628 4666 
L 1569 4666 
L 2759 1491 
L 3956 4666 
L 4897 4666 
L 4897 0 
L 4281 0 
L 4281 4097 
L 3078 897 
L 2444 897 
L 1241 4097 
L 1241 0 
L 628 0 
L 628 4666 
z
" transform="scale(0.015625)"/>
       <path id="DejaVuSans-69" d="M 603 3500 
L 1178 3500 
L 1178 0 
L 603 0 
L 603 3500 
z
M 603 4863 
L 1178 4863 
L 1178 4134 
L 603 4134 
L 603 4863 
z
" transform="scale(0.015625)"/>
       <path id="DejaVuSans-6e" d="M 3513 2113 
L 3513 0 
L 2938 0 
L 2938 2094 
Q 2938 2591 2744 2837 
Q 2550 3084 2163 3084 
Q 1697 3084 1428 2787 
Q 1159 2491 1159 1978 
L 1159 0 
L 581 0 
L 581 3500 
L 1159 3500 
L 1159 2956 
Q 1366 3272 1645 3428 
Q 1925 3584 2291 3584 
Q 2894 3584 3203 3211 
Q 3513 2838 3513 2113 
z
" transform="scale(0.015625)"/>
       <path id="DejaVuSans-75" d="M 544 1381 
L 544 3500 
L 1119 3500 
L 1119 1403 
Q 1119 906 1312 657 
Q 1506 409 1894 409 
Q 2359 409 2629 706 
Q 2900 1003 2900 1516 
L 2900 3500 
L 3475 3500 
L 3475 0 
L 2900 0 
L 2900 538 
Q 2691 219 2414 64 
Q 2138 -91 1772 -91 
Q 1169 -91 856 284 
Q 544 659 544 1381 
z
M 1991 3584 
L 1991 3584 
z
" transform="scale(0.015625)"/>
       <path id="DejaVuSans-74" d="M 1172 4494 
L 1172 3500 
L 2356 3500 
L 2356 3053 
L 1172 3053 
L 1172 1153 
Q 1172 725 1289 603 
Q 1406 481 1766 481 
L 2356 481 
L 2356 0 
L 1766 0 
Q 1100 0 847 248 
Q 594 497 594 1153 
L 594 3053 
L 172 3053 
L 172 3500 
L 594 3500 
L 594 4494 
L 1172 4494 
z
" transform="scale(0.015625)"/>
       <path id="DejaVuSans-65" d="M 3597 1894 
L 3597 1613 
L 953 1613 
Q 991 1019 1311 708 
Q 1631 397 2203 397 
Q 2534 397 2845 478 
Q 3156 559 3463 722 
L 3463 178 
Q 3153 47 2828 -22 
Q 2503 -91 2169 -91 
Q 1331 -91 842 396 
Q 353 884 353 1716 
Q 353 2575 817 3079 
Q 1281 3584 2069 3584 
Q 2775 3584 3186 3129 
Q 3597 2675 3597 1894 
z
M 3022 2063 
Q 3016 2534 2758 2815 
Q 2500 3097 2075 3097 
Q 1594 3097 1305 2825 
Q 1016 2553 972 2059 
L 3022 2063 
z
" transform="scale(0.015625)"/>
       <path id="DejaVuSans-73" d="M 2834 3397 
L 2834 2853 
Q 2591 2978 2328 3040 
Q 2066 3103 1784 3103 
Q 1356 3103 1142 2972 
Q 928 2841 928 2578 
Q 928 2378 1081 2264 
Q 1234 2150 1697 2047 
L 1894 2003 
Q 2506 1872 2764 1633 
Q 3022 1394 3022 966 
Q 3022 478 2636 193 
Q 2250 -91 1575 -91 
Q 1294 -91 989 -36 
Q 684 19 347 128 
L 347 722 
Q 666 556 975 473 
Q 1284 391 1588 391 
Q 1994 391 2212 530 
Q 2431 669 2431 922 
Q 2431 1156 2273 1281 
Q 2116 1406 1581 1522 
L 1381 1569 
Q 847 1681 609 1914 
Q 372 2147 372 2553 
Q 372 3047 722 3315 
Q 1072 3584 1716 3584 
Q 2034 3584 2315 3537 
Q 2597 3491 2834 3397 
z
" transform="scale(0.015625)"/>
       <path id="DejaVuSans-20" transform="scale(0.015625)"/>
       <path id="DejaVuSans-63" d="M 3122 3366 
L 3122 2828 
Q 2878 2963 2633 3030 
Q 2388 3097 2138 3097 
Q 1578 3097 1268 2742 
Q 959 2388 959 1747 
Q 959 1106 1268 751 
Q 1578 397 2138 397 
Q 2388 397 2633 464 
Q 2878 531 3122 666 
L 3122 134 
Q 2881 22 2623 -34 
Q 2366 -91 2075 -91 
Q 1284 -91 818 406 
Q 353 903 353 1747 
Q 353 2603 823 3093 
Q 1294 3584 2113 3584 
Q 2378 3584 2631 3529 
Q 2884 3475 3122 3366 
z
" transform="scale(0.015625)"/>
       <path id="DejaVuSans-6f" d="M 1959 3097 
Q 1497 3097 1228 2736 
Q 959 2375 959 1747 
Q 959 1119 1226 758 
Q 1494 397 1959 397 
Q 2419 397 2687 759 
Q 2956 1122 2956 1747 
Q 2956 2369 2687 2733 
Q 2419 3097 1959 3097 
z
M 1959 3584 
Q 2709 3584 3137 3096 
Q 3566 2609 3566 1747 
Q 3566 888 3137 398 
Q 2709 -91 1959 -91 
Q 1206 -91 779 398 
Q 353 888 353 1747 
Q 353 2609 779 3096 
Q 1206 3584 1959 3584 
z
" transform="scale(0.015625)"/>
       <path id="DejaVuSans-61" d="M 2194 1759 
Q 1497 1759 1228 1600 
Q 959 1441 959 1056 
Q 959 750 1161 570 
Q 1363 391 1709 391 
Q 2188 391 2477 730 
Q 2766 1069 2766 1631 
L 2766 1759 
L 2194 1759 
z
M 3341 1997 
L 3341 0 
L 2766 0 
L 2766 531 
Q 2569 213 2275 61 
Q 1981 -91 1556 -91 
Q 1019 -91 701 211 
Q 384 513 384 1019 
Q 384 1609 779 1909 
Q 1175 2209 1959 2209 
L 2766 2209 
L 2766 2266 
Q 2766 2663 2505 2880 
Q 2244 3097 1772 3097 
Q 1472 3097 1187 3025 
Q 903 2953 641 2809 
L 641 3341 
Q 956 3463 1253 3523 
Q 1550 3584 1831 3584 
Q 2591 3584 2966 3190 
Q 3341 2797 3341 1997 
z
" transform="scale(0.015625)"/>
       <path id="DejaVuSans-72" d="M 2631 2963 
Q 2534 3019 2420 3045 
Q 2306 3072 2169 3072 
Q 1681 3072 1420 2755 
Q 1159 2438 1159 1844 
L 1159 0 
L 581 0 
L 581 3500 
L 1159 3500 
L 1159 2956 
Q 1341 3275 1631 3429 
Q 1922 3584 2338 3584 
Q 2397 3584 2469 3576 
Q 2541 3569 2628 3553 
L 2631 2963 
z
" transform="scale(0.015625)"/>
      </defs>
      <use xlink:href="#DejaVuSans-4d"/>
      <use xlink:href="#DejaVuSans-69" transform="translate(86.279297 0)"/>
      <use xlink:href="#DejaVuSans-6e" transform="translate(114.0625 0)"/>
      <use xlink:href="#DejaVuSans-75" transform="translate(177.441406 0)"/>
      <use xlink:href="#DejaVuSans-74" transform="translate(240.820312 0)"/>
      <use xlink:href="#DejaVuSans-65" transform="translate(280.029297 0)"/>
      <use xlink:href="#DejaVuSans-73" transform="translate(341.552734 0)"/>
      <use xlink:href="#DejaVuSans-20" transform="translate(393.652344 0)"/>
      <use xlink:href="#DejaVuSans-73" transform="translate(425.439453 0)"/>
      <use xlink:href="#DejaVuSans-69" transform="translate(477.539062 0)"/>
      <use xlink:href="#DejaVuSans-6e" transform="translate(505.322266 0)"/>
      <use xlink:href="#DejaVuSans-63" transform="translate(568.701172 0)"/>
      <use xlink:href="#DejaVuSans-65" transform="translate(623.681641 0)"/>
      <use xlink:href="#DejaVuSans-20" transform="translate(685.205078 0)"/>
      <use xlink:href="#DejaVuSans-73" transform="translate(716.992188 0)"/>
      <use xlink:href="#DejaVuSans-65" transform="translate(769.091797 0)"/>
      <use xlink:href="#DejaVuSans-73" transform="translate(830.615234 0)"/>
      <use xlink:href="#DejaVuSans-73" transform="translate(882.714844 0)"/>
      <use xlink:href="#DejaVuSans-69" transform="translate(934.814453 0)"/>
      <use xlink:href="#DejaVuSans-6f" transform="translate(962.597656 0)"/>
      <use xlink:href="#DejaVuSans-6e" transform="translate(1023.779297 0)"/>
      <use xlink:href="#DejaVuSans-20" transform="translate(1087.158203 0)"/>
      <use xlink:href="#DejaVuSans-73" transform="translate(1118.945312 0)"/>
      <use xlink:href="#DejaVuSans-74" transform="translate(1171.044922 0)"/>
      <use xlink:href="#DejaVuSans-61" transform="translate(1210.253906 0)"/>
      <use xlink:href="#DejaVuSans-72" transform="translate(1271.533203 0)"/>
      <use xlink:href="#DejaVuSans-74" transform="translate(1312.646484 0)"/>
     </g>
    </g>
   </g>
   <g id="matplotlib.axis_2">
    <g id="ytick_1">
     <g id="line2d_17">
      <path d="M 42.190938 214.210659 
L 935.353437 214.210659 
" clip-path="url(#pe3c561a403)" style="fill: none; stroke: #eef2f7; stroke-opacity: 0.25; stroke-width: 0.55; stroke-linecap: square"/>
     </g>
     <g id="line2d_18">
      <defs>
       <path id="m7724b0b697" d="M 0 0 
L -3.5 0 
" style="stroke: #000000; stroke-width: 0.8"/>
      </defs>
      <g>
       <use xlink:href="#m7724b0b697" x="42.190938" y="214.210659" style="stroke: #000000; stroke-width: 0.8"/>
      </g>
     </g>
     <g id="text_10">
      <!-- 2.5 -->
      <g transform="translate(20.878125 217.629956) scale(0.09 -0.09)">
       <defs>
        <path id="DejaVuSans-2e" d="M 684 794 
L 1344 794 
L 1344 0 
L 684 0 
L 684 794 
z
" transform="scale(0.015625)"/>
       </defs>
       <use xlink:href="#DejaVuSans-32"/>
       <use xlink:href="#DejaVuSans-2e" transform="translate(63.623047 0)"/>
       <use xlink:href="#DejaVuSans-35" transform="translate(95.410156 0)"/>
      </g>
     </g>
    </g>
    <g id="ytick_2">
     <g id="line2d_19">
      <path d="M 42.190938 188.888991 
L 935.353437 188.888991 
" clip-path="url(#pe3c561a403)" style="fill: none; stroke: #eef2f7; stroke-opacity: 0.25; stroke-width: 0.55; stroke-linecap: square"/>
     </g>
     <g id="line2d_20">
      <g>
       <use xlink:href="#m7724b0b697" x="42.190938" y="188.888991" style="stroke: #000000; stroke-width: 0.8"/>
      </g>
     </g>
     <g id="text_11">
      <!-- 3.0 -->
      <g transform="translate(20.878125 192.308288) scale(0.09 -0.09)">
       <defs>
        <path id="DejaVuSans-33" d="M 2597 2516 
Q 3050 2419 3304 2112 
Q 3559 1806 3559 1356 
Q 3559 666 3084 287 
Q 2609 -91 1734 -91 
Q 1441 -91 1130 -33 
Q 819 25 488 141 
L 488 750 
Q 750 597 1062 519 
Q 1375 441 1716 441 
Q 2309 441 2620 675 
Q 2931 909 2931 1356 
Q 2931 1769 2642 2001 
Q 2353 2234 1838 2234 
L 1294 2234 
L 1294 2753 
L 1863 2753 
Q 2328 2753 2575 2939 
Q 2822 3125 2822 3475 
Q 2822 3834 2567 4026 
Q 2313 4219 1838 4219 
Q 1578 4219 1281 4162 
Q 984 4106 628 3988 
L 628 4550 
Q 988 4650 1302 4700 
Q 1616 4750 1894 4750 
Q 2613 4750 3031 4423 
Q 3450 4097 3450 3541 
Q 3450 3153 3228 2886 
Q 3006 2619 2597 2516 
z
" transform="scale(0.015625)"/>
       </defs>
       <use xlink:href="#DejaVuSans-33"/>
       <use xlink:href="#DejaVuSans-2e" transform="translate(63.623047 0)"/>
       <use xlink:href="#DejaVuSans-30" transform="translate(95.410156 0)"/>
      </g>
     </g>
    </g>
    <g id="ytick_3">
     <g id="line2d_21">
      <path d="M 42.190938 163.567323 
L 935.353437 163.567323 
" clip-path="url(#pe3c561a403)" style="fill: none; stroke: #eef2f7; stroke-opacity: 0.25; stroke-width: 0.55; stroke-linecap: square"/>
     </g>
     <g id="line2d_22">
      <g>
       <use xlink:href="#m7724b0b697" x="42.190938" y="163.567323" style="stroke: #000000; stroke-width: 0.8"/>
      </g>
     </g>
     <g id="text_12">
      <!-- 3.5 -->
      <g transform="translate(20.878125 166.98662) scale(0.09 -0.09)">
       <use xlink:href="#DejaVuSans-33"/>
       <use xlink:href="#DejaVuSans-2e" transform="translate(63.623047 0)"/>
       <use xlink:href="#DejaVuSans-35" transform="translate(95.410156 0)"/>
      </g>
     </g>
    </g>
    <g id="ytick_4">
     <g id="line2d_23">
      <path d="M 42.190938 138.245655 
L 935.353437 138.245655 
" clip-path="url(#pe3c561a403)" style="fill: none; stroke: #eef2f7; stroke-opacity: 0.25; stroke-width: 0.55; stroke-linecap: square"/>
     </g>
     <g id="line2d_24">
      <g>
       <use xlink:href="#m7724b0b697" x="42.190938" y="138.245655" style="stroke: #000000; stroke-width: 0.8"/>
      </g>
     </g>
     <g id="text_13">
      <!-- 4.0 -->
      <g transform="translate(20.878125 141.664952) scale(0.09 -0.09)">
       <defs>
        <path id="DejaVuSans-34" d="M 2419 4116 
L 825 1625 
L 2419 1625 
L 2419 4116 
z
M 2253 4666 
L 3047 4666 
L 3047 1625 
L 3713 1625 
L 3713 1100 
L 3047 1100 
L 3047 0 
L 2419 0 
L 2419 1100 
L 313 1100 
L 313 1709 
L 2253 4666 
z
" transform="scale(0.015625)"/>
       </defs>
       <use xlink:href="#DejaVuSans-34"/>
       <use xlink:href="#DejaVuSans-2e" transform="translate(63.623047 0)"/>
       <use xlink:href="#DejaVuSans-30" transform="translate(95.410156 0)"/>
      </g>
     </g>
    </g>
    <g id="ytick_5">
     <g id="line2d_25">
      <path d="M 42.190938 112.923988 
L 935.353437 112.923988 
" clip-path="url(#pe3c561a403)" style="fill: none; stroke: #eef2f7; stroke-opacity: 0.25; stroke-width: 0.55; stroke-linecap: square"/>
     </g>
     <g id="line2d_26">
      <g>
       <use xlink:href="#m7724b0b697" x="42.190938" y="112.923988" style="stroke: #000000; stroke-width: 0.8"/>
      </g>
     </g>
     <g id="text_14">
      <!-- 4.5 -->
      <g transform="translate(20.878125 116.343285) scale(0.09 -0.09)">
       <use xlink:href="#DejaVuSans-34"/>
       <use xlink:href="#DejaVuSans-2e" transform="translate(63.623047 0)"/>
       <use xlink:href="#DejaVuSans-35" transform="translate(95.410156 0)"/>
      </g>
     </g>
    </g>
    <g id="ytick_6">
     <g id="line2d_27">
      <path d="M 42.190938 87.60232 
L 935.353437 87.60232 
" clip-path="url(#pe3c561a403)" style="fill: none; stroke: #eef2f7; stroke-opacity: 0.25; stroke-width: 0.55; stroke-linecap: square"/>
     </g>
     <g id="line2d_28">
      <g>
       <use xlink:href="#m7724b0b697" x="42.190938" y="87.60232" style="stroke: #000000; stroke-width: 0.8"/>
      </g>
     </g>
     <g id="text_15">
      <!-- 5.0 -->
      <g transform="translate(20.878125 91.021617) scale(0.09 -0.09)">
       <use xlink:href="#DejaVuSans-35"/>
       <use xlink:href="#DejaVuSans-2e" transform="translate(63.623047 0)"/>
       <use xlink:href="#DejaVuSans-30" transform="translate(95.410156 0)"/>
      </g>
     </g>
    </g>
    <g id="ytick_7">
     <g id="line2d_29">
      <path d="M 42.190938 62.280652 
L 935.353437 62.280652 
" clip-path="url(#pe3c561a403)" style="fill: none; stroke: #eef2f7; stroke-opacity: 0.25; stroke-width: 0.55; stroke-linecap: square"/>
     </g>
     <g id="line2d_30">
      <g>
       <use xlink:href="#m7724b0b697" x="42.190938" y="62.280652" style="stroke: #000000; stroke-width: 0.8"/>
      </g>
     </g>
     <g id="text_16">
      <!-- 5.5 -->
      <g transform="translate(20.878125 65.699949) scale(0.09 -0.09)">
       <use xlink:href="#DejaVuSans-35"/>
       <use xlink:href="#DejaVuSans-2e" transform="translate(63.623047 0)"/>
       <use xlink:href="#DejaVuSans-35" transform="translate(95.410156 0)"/>
      </g>
     </g>
    </g>
    <g id="ytick_8">
     <g id="line2d_31">
      <path d="M 42.190938 36.958984 
L 935.353437 36.958984 
" clip-path="url(#pe3c561a403)" style="fill: none; stroke: #eef2f7; stroke-opacity: 0.25; stroke-width: 0.55; stroke-linecap: square"/>
     </g>
     <g id="line2d_32">
      <g>
       <use xlink:href="#m7724b0b697" x="42.190938" y="36.958984" style="stroke: #000000; stroke-width: 0.8"/>
      </g>
     </g>
     <g id="text_17">
      <!-- 6.0 -->
      <g transform="translate(20.878125 40.378281) scale(0.09 -0.09)">
       <defs>
        <path id="DejaVuSans-36" d="M 2113 2584 
Q 1688 2584 1439 2293 
Q 1191 2003 1191 1497 
Q 1191 994 1439 701 
Q 1688 409 2113 409 
Q 2538 409 2786 701 
Q 3034 994 3034 1497 
Q 3034 2003 2786 2293 
Q 2538 2584 2113 2584 
z
M 3366 4563 
L 3366 3988 
Q 3128 4100 2886 4159 
Q 2644 4219 2406 4219 
Q 1781 4219 1451 3797 
Q 1122 3375 1075 2522 
Q 1259 2794 1537 2939 
Q 1816 3084 2150 3084 
Q 2853 3084 3261 2657 
Q 3669 2231 3669 1497 
Q 3669 778 3244 343 
Q 2819 -91 2113 -91 
Q 1303 -91 875 529 
Q 447 1150 447 2328 
Q 447 3434 972 4092 
Q 1497 4750 2381 4750 
Q 2619 4750 2861 4703 
Q 3103 4656 3366 4563 
z
" transform="scale(0.015625)"/>
       </defs>
       <use xlink:href="#DejaVuSans-36"/>
       <use xlink:href="#DejaVuSans-2e" transform="translate(63.623047 0)"/>
       <use xlink:href="#DejaVuSans-30" transform="translate(95.410156 0)"/>
      </g>
     </g>
    </g>
    <g id="text_18">
     <!-- EDA (uS) -->
     <g transform="translate(14.798438 145.183854) rotate(-90) scale(0.1 -0.1)">
      <defs>
       <path id="DejaVuSans-45" d="M 628 4666 
L 3578 4666 
L 3578 4134 
L 1259 4134 
L 1259 2753 
L 3481 2753 
L 3481 2222 
L 1259 2222 
L 1259 531 
L 3634 531 
L 3634 0 
L 628 0 
L 628 4666 
z
" transform="scale(0.015625)"/>
       <path id="DejaVuSans-44" d="M 1259 4147 
L 1259 519 
L 2022 519 
Q 2988 519 3436 956 
Q 3884 1394 3884 2338 
Q 3884 3275 3436 3711 
Q 2988 4147 2022 4147 
L 1259 4147 
z
M 628 4666 
L 1925 4666 
Q 3281 4666 3915 4102 
Q 4550 3538 4550 2338 
Q 4550 1131 3912 565 
Q 3275 0 1925 0 
L 628 0 
L 628 4666 
z
" transform="scale(0.015625)"/>
       <path id="DejaVuSans-41" d="M 2188 4044 
L 1331 1722 
L 3047 1722 
L 2188 4044 
z
M 1831 4666 
L 2547 4666 
L 4325 0 
L 3669 0 
L 3244 1197 
L 1141 1197 
L 716 0 
L 50 0 
L 1831 4666 
z
" transform="scale(0.015625)"/>
       <path id="DejaVuSans-28" d="M 1984 4856 
Q 1566 4138 1362 3434 
Q 1159 2731 1159 2009 
Q 1159 1288 1364 580 
Q 1569 -128 1984 -844 
L 1484 -844 
Q 1016 -109 783 600 
Q 550 1309 550 2009 
Q 550 2706 781 3412 
Q 1013 4119 1484 4856 
L 1984 4856 
z
" transform="scale(0.015625)"/>
       <path id="DejaVuSans-53" d="M 3425 4513 
L 3425 3897 
Q 3066 4069 2747 4153 
Q 2428 4238 2131 4238 
Q 1616 4238 1336 4038 
Q 1056 3838 1056 3469 
Q 1056 3159 1242 3001 
Q 1428 2844 1947 2747 
L 2328 2669 
Q 3034 2534 3370 2195 
Q 3706 1856 3706 1288 
Q 3706 609 3251 259 
Q 2797 -91 1919 -91 
Q 1588 -91 1214 -16 
Q 841 59 441 206 
L 441 856 
Q 825 641 1194 531 
Q 1563 422 1919 422 
Q 2459 422 2753 634 
Q 3047 847 3047 1241 
Q 3047 1584 2836 1778 
Q 2625 1972 2144 2069 
L 1759 2144 
Q 1053 2284 737 2584 
Q 422 2884 422 3419 
Q 422 4038 858 4394 
Q 1294 4750 2059 4750 
Q 2388 4750 2728 4690 
Q 3069 4631 3425 4513 
z
" transform="scale(0.015625)"/>
       <path id="DejaVuSans-29" d="M 513 4856 
L 1013 4856 
Q 1481 4119 1714 3412 
Q 1947 2706 1947 2009 
Q 1947 1309 1714 600 
Q 1481 -109 1013 -844 
L 513 -844 
Q 928 -128 1133 580 
Q 1338 1288 1338 2009 
Q 1338 2731 1133 3434 
Q 928 4138 513 4856 
z
" transform="scale(0.015625)"/>
      </defs>
      <use xlink:href="#DejaVuSans-45"/>
      <use xlink:href="#DejaVuSans-44" transform="translate(63.183594 0)"/>
      <use xlink:href="#DejaVuSans-41" transform="translate(138.435547 0)"/>
      <use xlink:href="#DejaVuSans-20" transform="translate(206.84375 0)"/>
      <use xlink:href="#DejaVuSans-28" transform="translate(238.630859 0)"/>
      <use xlink:href="#DejaVuSans-75" transform="translate(277.644531 0)"/>
      <use xlink:href="#DejaVuSans-53" transform="translate(341.023438 0)"/>
      <use xlink:href="#DejaVuSans-29" transform="translate(404.5 0)"/>
     </g>
    </g>
   </g>
   <g id="line2d_33">
    <path d="M 42.191631 35.520523 
L 42.492644 36.425662 
L 42.793658 36.58526 
L 43.094671 33.619906 
L 43.395685 36.598373 
L 43.696699 35.086186 
L 43.997712 31.224435 
L 44.59974 32.896944 
L 44.900753 32.337252 
L 45.201767 27.114194 
L 45.502781 30.926368 
L 45.803794 28.896025 
L 46.104808 29.764723 
L 46.405822 32.468451 
L 46.706835 29.830311 
L 47.007849 30.979568 
L 47.308863 30.860056 
L 47.609876 28.852291 
L 47.91089 31.183624 
L 48.211904 31.182899 
L 48.512917 30.855685 
L 48.813931 29.37919 
L 49.114945 31.287825 
L 49.415958 29.696213 
L 49.716972 29.493606 
L 50.017986 30.776961 
L 50.318999 31.239745 
L 51.22204 28.336332 
L 51.523054 31.234626 
L 51.824068 28.831161 
L 52.125081 29.178781 
L 52.426095 29.238549 
L 52.727109 31.220788 
L 53.028122 30.259552 
L 53.329136 31.918949 
L 53.63015 32.306655 
L 53.931163 30.591137 
L 54.232177 32.904237 
L 54.53319 28.853016 
L 54.834204 27.695017 
L 55.135218 29.894425 
L 55.436231 27.489488 
L 55.737245 29.242919 
L 56.038259 28.928818 
L 56.339272 27.262853 
L 56.640286 30.312752 
L 56.9413 28.698513 
L 57.242313 31.246289 
L 57.543327 30.152405 
L 57.844341 30.175733 
L 58.145354 29.781482 
L 58.446368 30.457764 
L 58.747382 32.09166 
L 59.048395 29.459364 
L 59.349409 29.208653 
L 59.650423 31.95976 
L 59.951436 30.673484 
L 60.25245 31.134795 
L 60.553464 29.418552 
L 61.155491 33.792617 
L 61.456505 28.435438 
L 61.757518 33.351711 
L 62.058532 32.01296 
L 62.359546 34.759697 
L 62.660559 31.882509 
L 62.961573 35.363099 
L 63.262587 35.993498 
L 63.5636 33.08499 
L 63.864614 36.831576 
L 64.165628 34.092132 
L 64.466641 35.334676 
L 64.767655 29.606574 
L 65.068668 32.112066 
L 65.369682 33.340772 
L 65.670696 32.90571 
L 65.971709 33.170234 
L 66.272723 30.513886 
L 66.573737 32.893322 
L 66.874751 32.694362 
L 67.175764 30.179379 
L 67.476778 30.485463 
L 67.777791 29.892252 
L 68.078805 27.455245 
L 68.379819 29.737024 
L 68.680832 31.149381 
L 69.28286 29.565038 
L 69.583873 31.488983 
L 69.884887 29.745042 
L 70.185901 31.994752 
L 70.486914 32.416701 
L 70.787928 31.427766 
L 71.088942 32.320493 
L 71.389955 32.089487 
L 71.690969 30.373244 
L 71.991983 32.851762 
L 72.59401 26.692946 
L 72.895024 30.10505 
L 73.196037 30.371047 
L 73.497051 30.978843 
L 73.798065 32.333629 
L 74.099078 30.579473 
L 74.400092 32.170385 
L 74.701106 32.12373 
L 75.303133 33.410006 
L 75.604147 31.405888 
L 75.905163 33.002619 
L 76.50719 34.227678 
L 76.808203 32.950168 
L 77.109217 34.799759 
L 77.711244 34.985607 
L 78.012257 35.113136 
L 78.313271 35.945394 
L 78.614284 34.007588 
L 78.915298 33.600949 
L 79.216311 34.785922 
L 79.517325 32.878736 
L 79.818338 32.944324 
L 80.119352 34.168659 
L 80.420365 33.440627 
L 81.022392 35.397365 
L 81.323406 31.857008 
L 81.624419 35.336149 
L 81.925433 34.342095 
L 82.226446 31.666065 
L 82.52746 32.362052 
L 82.828473 34.179599 
L 83.4305 35.559137 
L 83.731514 35.607966 
L 84.032527 29.608023 
L 84.333541 34.655471 
L 84.634555 35.254526 
L 84.935568 33.957311 
L 85.236582 35.141559 
L 85.537595 30.376142 
L 85.838609 34.389474 
L 86.139622 34.823811 
L 86.440636 31.696685 
L 86.741649 35.138637 
L 87.042663 36.233994 
L 87.343676 36.200452 
L 87.64469 36.857802 
L 87.945703 35.094204 
L 88.246717 37.115057 
L 88.54773 35.075247 
L 88.848744 36.472293 
L 89.450771 38.195104 
L 89.751784 38.4356 
L 90.353811 34.319516 
L 90.654825 38.016549 
L 90.955838 37.132565 
L 91.256852 38.722728 
L 91.557865 38.834222 
L 91.858879 37.903582 
L 92.159892 39.994418 
L 92.460906 39.249626 
L 92.761919 40.328201 
L 93.062933 40.948385 
L 93.363946 37.693706 
L 93.66496 38.117853 
L 93.965974 39.036829 
L 94.266987 40.605861 
L 94.568001 41.344109 
L 94.869014 41.285066 
L 95.170028 38.354703 
L 95.471041 39.155616 
L 95.772055 41.052587 
L 96.073068 39.753922 
L 96.374082 41.398033 
L 96.675095 37.10122 
L 96.976109 40.687484 
L 97.277122 38.208941 
L 97.578136 41.298202 
L 97.879149 42.221549 
L 98.180163 42.036426 
L 98.481176 42.370933 
L 98.78219 38.992371 
L 99.083203 42.107858 
L 99.384217 42.574264 
L 99.68523 41.863715 
L 99.986244 42.653713 
L 100.287257 43.799324 
L 100.588271 41.487673 
L 100.889284 37.991048 
L 101.190298 42.197497 
L 101.491311 42.669724 
L 101.792325 43.412342 
L 102.093338 42.521789 
L 102.394352 44.042742 
L 102.996379 42.631834 
L 103.297392 44.42388 
L 103.598406 44.36486 
L 103.899419 44.568892 
L 104.200433 44.43407 
L 104.501446 45.888711 
L 104.80246 46.03737 
L 105.103474 46.011869 
L 105.404487 46.424352 
L 105.705501 45.264155 
L 106.006514 44.818879 
L 106.307528 43.733012 
L 106.608541 46.287332 
L 106.909555 46.552605 
L 107.210568 46.050483 
L 107.511582 46.807687 
L 107.812595 42.701793 
L 108.414622 46.819351 
L 108.715636 46.282961 
L 109.016649 46.979673 
L 109.317663 45.778666 
L 109.618676 47.188825 
L 109.91969 46.934491 
L 110.220703 43.21413 
L 110.521717 46.057776 
L 110.82273 46.815704 
L 111.123744 46.481922 
L 111.424757 45.365459 
L 112.026784 47.62973 
L 112.327798 45.277992 
L 112.628811 48.181406 
L 112.929825 45.492988 
L 113.531852 48.858436 
L 113.832865 48.553801 
L 114.133879 48.014514 
L 114.434893 46.868904 
L 114.735906 44.089373 
L 115.337933 48.083024 
L 115.638947 47.984643 
L 115.93996 49.833534 
L 116.240974 48.018885 
L 116.541987 46.949053 
L 117.144014 49.655703 
L 117.445028 49.766473 
L 117.746041 46.731884 
L 118.047055 50.730631 
L 118.348068 51.282306 
L 118.649082 49.843724 
L 118.950095 51.195589 
L 119.251109 51.799739 
L 119.552122 50.695664 
L 119.853136 52.290197 
L 120.154149 51.803385 
L 120.756176 53.573552 
L 121.358203 51.382161 
L 121.659217 53.782727 
L 121.96023 54.764369 
L 122.261244 55.111264 
L 122.562257 55.113437 
L 122.863271 54.19009 
L 123.465298 55.589334 
L 123.766311 55.966004 
L 124.067325 53.453219 
L 124.368338 53.476523 
L 124.669352 55.705827 
L 124.970366 56.26552 
L 125.271379 56.04398 
L 125.572393 56.272088 
L 126.17442 57.156797 
L 126.475433 54.821118 
L 126.776447 57.008863 
L 127.378474 58.531264 
L 127.679487 55.593608 
L 127.980501 57.551072 
L 128.582528 57.408957 
L 129.485568 59.767988 
L 129.786582 57.946795 
L 130.087595 59.754875 
L 130.388609 60.577643 
L 130.689622 59.141983 
L 130.990636 60.549944 
L 131.291649 60.071874 
L 131.893676 61.815091 
L 132.19469 60.235119 
L 132.495703 62.078915 
L 133.09773 59.159467 
L 133.398744 61.17962 
L 134.000771 62.804025 
L 134.301784 61.793961 
L 134.903812 62.74928 
L 135.204825 63.411725 
L 135.505839 63.633989 
L 135.806852 62.99777 
L 136.107866 63.891245 
L 136.408879 62.94969 
L 136.709893 60.793266 
L 137.010906 62.744161 
L 137.31192 63.225153 
L 137.913947 63.902184 
L 138.21496 64.615655 
L 138.515974 64.051592 
L 138.816987 64.676872 
L 139.118001 65.636659 
L 139.419014 63.346862 
L 140.021041 65.664333 
L 140.322055 65.421664 
L 140.623068 64.794935 
L 140.924082 66.218931 
L 141.225095 64.706019 
L 141.526109 65.469768 
L 141.827122 64.349658 
L 142.128136 64.635312 
L 142.429149 65.955855 
L 142.730163 66.13441 
L 143.031176 66.090677 
L 143.633203 67.234115 
L 143.934217 64.419617 
L 144.23523 64.392643 
L 144.536244 66.61393 
L 144.837258 66.065176 
L 145.138271 66.260466 
L 145.439285 65.501837 
L 145.740298 67.297505 
L 146.041312 66.959376 
L 146.342325 68.543694 
L 146.643339 67.376954 
L 146.944352 68.368062 
L 147.546379 69.469239 
L 147.847393 67.566424 
L 148.148406 64.366417 
L 148.750433 68.156737 
L 149.051447 64.713312 
L 149.35246 66.251724 
L 149.653474 68.532055 
L 149.954487 67.788712 
L 150.255501 69.163155 
L 150.556514 69.422608 
L 150.857528 70.163029 
L 151.158541 70.39331 
L 151.459555 70.432576 
L 151.760568 69.332847 
L 152.061582 70.782369 
L 152.362595 69.515773 
L 152.663609 69.623645 
L 153.265636 71.175194 
L 153.566649 68.045122 
L 153.867663 70.747401 
L 154.46969 68.607737 
L 155.673744 71.648894 
L 155.974758 72.005979 
L 156.275771 69.908575 
L 156.576785 71.801199 
L 156.877798 70.791859 
L 157.178812 72.398781 
L 157.479825 70.998088 
L 157.780839 72.819281 
L 158.081852 71.119073 
L 158.382866 72.634182 
L 158.683879 73.086751 
L 158.984893 73.980202 
L 159.285906 74.171145 
L 159.58692 73.996985 
L 160.188947 75.460343 
L 160.48996 74.266629 
L 160.790974 75.439938 
L 161.091987 74.555929 
L 161.393001 74.095367 
L 161.694014 75.63815 
L 161.995028 73.44019 
L 162.296041 75.282513 
L 162.597055 76.189825 
L 162.898068 76.634377 
L 163.199082 76.661351 
L 163.801109 77.947 
L 164.102122 75.996081 
L 164.403136 77.726185 
L 164.70415 78.527098 
L 165.005163 78.567909 
L 165.60719 75.041389 
L 165.908204 75.464811 
L 166.209217 75.49688 
L 166.510231 76.948575 
L 166.811244 76.59586 
L 167.413271 78.313552 
L 168.015298 79.624605 
L 168.316312 79.339675 
L 168.617325 80.247712 
L 168.918339 79.631898 
L 169.219352 76.936187 
L 169.520366 78.803286 
L 169.821379 79.898619 
L 170.122393 80.408759 
L 170.423406 77.909086 
L 170.72442 80.352661 
L 171.025433 79.745589 
L 171.326447 80.307479 
L 171.62746 79.292295 
L 171.928474 80.942226 
L 172.229487 81.716914 
L 172.530501 79.860005 
L 172.831514 81.759174 
L 173.132528 78.522727 
L 173.433541 81.407908 
L 174.035568 81.90566 
L 174.336582 80.115812 
L 174.637595 82.130121 
L 174.938609 83.103745 
L 175.239622 81.915126 
L 175.540636 82.589235 
L 175.84165 83.772759 
L 176.142663 83.262619 
L 176.443677 84.057712 
L 176.74469 82.037559 
L 177.045704 84.066454 
L 177.647731 85.208443 
L 177.948744 85.252152 
L 178.249758 85.460144 
L 178.550771 84.976978 
L 178.851785 86.39443 
L 179.453812 86.266177 
L 179.754825 87.075832 
L 180.055839 86.755162 
L 180.356852 85.296175 
L 180.657866 84.901924 
L 180.958879 86.974528 
L 181.259893 86.594115 
L 181.560906 87.628231 
L 181.86192 87.772519 
L 182.463947 89.174685 
L 182.76496 86.944656 
L 183.366987 89.231531 
L 183.969014 90.176008 
L 184.270028 90.076902 
L 184.872055 91.102277 
L 185.173069 90.250337 
L 185.474082 89.805061 
L 185.775095 88.546483 
L 186.076109 89.102529 
L 186.678136 90.727683 
L 186.97915 89.666593 
L 187.280163 89.64766 
L 187.581177 90.245242 
L 187.88219 89.819647 
L 188.183204 91.052724 
L 188.785231 91.103001 
L 189.086244 90.775787 
L 189.387258 91.137244 
L 190.290298 92.911806 
L 190.591312 91.96076 
L 190.892325 93.00217 
L 191.193339 92.81707 
L 191.494352 93.579346 
L 191.795366 93.806729 
L 192.096379 91.624805 
L 192.397393 90.680304 
L 192.698406 92.752932 
L 192.99942 92.536488 
L 193.300433 90.690518 
L 193.601447 92.516806 
L 193.90246 93.253605 
L 194.203474 93.318444 
L 194.504487 93.672632 
L 194.805501 92.823615 
L 195.106515 93.163965 
L 196.009555 95.814035 
L 196.310569 95.918261 
L 196.912596 95.703266 
L 197.213609 92.606011 
L 197.514623 95.486822 
L 197.815636 96.080057 
L 198.11665 96.383943 
L 198.417663 97.098139 
L 199.320704 98.276543 
L 199.621717 98.108203 
L 199.922731 98.777217 
L 200.223744 97.34373 
L 200.524758 98.20586 
L 200.825771 97.727065 
L 201.126785 98.686128 
L 201.427798 98.11622 
L 201.728812 98.305715 
L 202.029825 98.795425 
L 202.330839 98.729112 
L 202.932866 99.81935 
L 203.233879 98.318827 
L 203.534893 99.674338 
L 203.835906 98.111125 
L 204.13692 99.831739 
L 204.437933 100.345525 
L 204.738947 99.715149 
L 205.03996 99.454247 
L 205.340974 100.817027 
L 205.641987 100.320748 
L 205.943001 101.206206 
L 206.244014 101.717794 
L 206.545028 100.236204 
L 206.846042 101.479496 
L 207.147055 101.416082 
L 207.448069 102.166717 
L 208.050096 99.030101 
L 208.351109 100.784233 
L 208.652123 100.000079 
L 208.953136 100.320024 
L 209.25415 100.363733 
L 209.555163 101.754959 
L 209.856177 98.150487 
L 210.15719 101.626706 
L 211.361244 104.525289 
L 211.662256 104.855425 
L 211.96327 102.394391 
L 212.264284 104.439296 
L 212.565298 103.886172 
L 212.866312 103.030586 
L 213.167326 103.858473 
L 213.468339 103.935725 
L 213.769353 100.312296 
L 214.070367 103.214236 
L 214.371381 102.81052 
L 214.672395 101.432406 
L 214.973409 103.605589 
L 215.274423 104.08803 
L 215.575437 104.205368 
L 215.876451 105.05511 
L 216.177464 104.977134 
L 216.478478 103.265987 
L 216.779492 102.965747 
L 217.38152 105.166604 
L 217.682534 103.358549 
L 217.983548 105.042722 
L 218.284562 105.983552 
L 218.585576 105.651968 
L 218.88659 106.669325 
L 219.187603 106.073192 
L 219.789631 107.12699 
L 220.090645 106.216031 
L 220.391659 107.183836 
L 220.692673 107.355846 
L 220.993687 105.251149 
L 221.294701 106.516295 
L 221.595715 105.993043 
L 221.896728 106.297654 
L 222.197742 107.409046 
L 222.498756 106.854448 
L 222.79977 107.718752 
L 223.100784 107.377701 
L 223.401798 108.607131 
L 223.702812 108.52406 
L 224.30484 109.668222 
L 224.605853 109.550884 
L 224.906867 109.571289 
L 225.207881 110.425402 
L 225.508895 110.335038 
L 225.809909 110.519413 
L 226.411937 111.4792 
L 226.712951 111.816628 
L 227.013965 112.565356 
L 227.314979 112.148503 
L 227.615992 113.001891 
L 227.917006 113.289743 
L 228.21802 113.743037 
L 228.519034 113.976264 
L 228.820048 111.969224 
L 229.121062 112.575571 
L 229.422076 110.499297 
L 229.72309 112.909329 
L 230.024103 113.542627 
L 230.325117 113.828305 
L 230.626131 112.891121 
L 231.228159 114.465974 
L 231.830187 115.064304 
L 232.131201 114.551991 
L 232.432215 114.873361 
L 232.733229 114.552716 
L 233.034242 113.488703 
L 233.335256 114.5957 
L 233.63627 111.16249 
L 234.238298 114.439024 
L 234.539312 114.436827 
L 234.840326 115.168506 
L 235.442354 115.989849 
L 236.044381 116.420539 
L 236.345395 116.841764 
L 236.646409 116.489049 
L 236.947423 115.898011 
L 237.248437 115.991298 
L 237.549451 116.642803 
L 239.05452 118.266509 
L 239.355534 118.402055 
L 239.656548 116.543697 
L 239.957562 117.577089 
L 240.258576 118.000511 
L 240.55959 118.661508 
L 240.860604 118.94791 
L 241.161617 118.891064 
L 241.462631 119.415041 
L 242.064659 119.412868 
L 242.365673 118.474935 
L 242.666687 119.465343 
L 242.967701 119.322504 
L 243.268715 120.014096 
L 243.870743 116.384824 
L 244.171756 117.978657 
L 244.773784 119.174545 
L 245.074798 118.274526 
L 245.375812 119.047741 
L 245.676826 119.049214 
L 245.97784 119.593596 
L 246.278854 119.751746 
L 246.880881 120.553383 
L 247.181895 121.502521 
L 247.482909 119.544333 
L 247.783923 120.319021 
L 248.084937 119.513713 
L 248.385951 119.217119 
L 248.686965 119.348294 
L 248.987979 120.550751 
L 249.288993 121.128676 
L 249.590006 121.356784 
L 249.89102 121.341474 
L 250.794062 122.715192 
L 251.095076 123.203477 
L 251.998118 123.842595 
L 252.299131 123.817818 
L 253.202173 124.802382 
L 253.804201 125.004989 
L 254.105215 125.260795 
L 254.406229 124.67268 
L 254.707243 125.646304 
L 255.008257 125.767289 
L 255.610284 126.16591 
L 256.212312 126.564555 
L 256.513326 126.53321 
L 256.81434 127.224827 
L 257.115354 127.259794 
L 257.416368 125.866395 
L 257.717381 126.182669 
L 258.018395 126.922366 
L 258.620423 127.380779 
L 258.921437 127.138085 
L 259.222451 127.519247 
L 259.523465 127.414297 
L 259.824479 127.874884 
L 260.125493 127.210966 
L 260.426507 127.384425 
L 260.72752 128.174399 
L 261.028534 128.297557 
L 261.329548 128.246555 
L 261.630562 127.49592 
L 261.931576 127.437625 
L 262.533604 128.54752 
L 263.135632 129.063503 
L 263.737659 129.424235 
L 264.038673 128.185339 
L 264.640701 129.961639 
L 265.242729 130.526427 
L 265.543743 130.742147 
L 265.844757 130.655429 
L 266.145771 130.09791 
L 266.446784 130.675835 
L 266.747798 129.468983 
L 267.048812 129.976201 
L 267.349826 129.317402 
L 267.65084 130.430967 
L 267.951854 129.515614 
L 268.252868 130.487789 
L 268.553882 130.874046 
L 268.854896 130.756708 
L 269.155909 131.322969 
L 269.456923 131.52193 
L 269.757937 131.160449 
L 270.058951 131.012515 
L 270.359965 131.519008 
L 270.961993 132.128254 
L 271.263007 132.560417 
L 271.564021 132.667541 
L 271.865034 132.995503 
L 272.166048 132.482441 
L 273.671118 134.075526 
L 273.972132 134.055121 
L 275.477201 134.651978 
L 275.778215 134.995226 
L 276.079229 135.053521 
L 276.380243 135.35451 
L 277.584298 135.813647 
L 277.885312 136.075274 
L 278.186326 134.590761 
L 278.48734 135.713793 
L 278.788354 130.360985 
L 279.089368 131.137122 
L 279.390382 129.036095 
L 279.691396 131.397299 
L 279.992409 131.194716 
L 280.293423 131.508793 
L 280.895451 132.542934 
L 281.196465 131.883386 
L 281.798493 132.522528 
L 282.400521 134.06094 
L 282.701535 133.305209 
L 283.002548 134.010663 
L 283.303562 133.289923 
L 283.604576 130.836882 
L 283.90559 130.977523 
L 284.206604 133.010789 
L 284.507618 132.501398 
L 284.808632 133.512187 
L 285.109646 133.816822 
L 285.41066 133.813175 
L 285.711673 134.191391 
L 286.012687 134.90194 
L 286.313701 135.134419 
L 286.614715 133.985162 
L 286.915729 135.025098 
L 287.216743 134.450844 
L 287.517757 135.171584 
L 288.119785 135.678826 
L 288.420798 133.876566 
L 288.721812 133.082945 
L 289.022826 134.960259 
L 290.226882 136.634218 
L 290.527896 136.053395 
L 290.82891 136.924291 
L 291.129924 137.215065 
L 291.430937 137.244936 
L 291.731951 136.442574 
L 292.032965 137.33093 
L 292.333979 137.822113 
L 292.634993 137.959856 
L 292.936007 138.937429 
L 293.237021 138.924304 
L 293.839049 139.418409 
L 294.140062 138.92649 
L 294.441076 138.758874 
L 294.74209 139.411853 
L 295.043104 137.628561 
L 295.344118 137.80347 
L 295.645132 138.729727 
L 295.946146 138.483399 
L 296.548174 139.667647 
L 296.849187 139.58239 
L 297.150201 139.747084 
L 297.451215 140.184343 
L 297.752229 139.777692 
L 298.053243 140.265241 
L 298.354257 140.002154 
L 298.655271 140.195283 
L 298.956285 139.909604 
L 299.257299 140.82567 
L 299.558312 141.370777 
L 299.859326 141.046485 
L 300.16034 141.454597 
L 300.461354 140.584438 
L 300.762368 141.208993 
L 301.063382 141.319763 
L 301.364396 141.799295 
L 301.966424 142.061657 
L 302.869465 142.902657 
L 303.170479 141.731521 
L 303.471493 142.732856 
L 303.772507 142.963874 
L 304.073521 140.33229 
L 304.374535 142.484343 
L 304.675549 142.006997 
L 304.976563 142.813742 
L 305.277576 141.842291 
L 305.57859 143.00541 
L 305.879604 143.177396 
L 306.180618 142.813018 
L 306.481632 142.181169 
L 306.782646 143.090678 
L 307.08366 141.107702 
L 307.384674 140.811085 
L 307.685688 139.36521 
L 307.986701 139.021237 
L 308.287715 139.916161 
L 308.588729 140.207671 
L 309.190757 141.58285 
L 309.491771 140.771734 
L 309.792785 141.291352 
L 310.093799 141.208993 
L 310.394813 142.16441 
L 310.695826 140.892707 
L 310.99684 142.391057 
L 311.297854 142.603854 
L 311.598868 141.345276 
L 312.200896 142.547745 
L 312.50191 142.391057 
L 312.802924 143.325343 
L 313.103938 143.527938 
L 313.404952 143.994344 
L 313.705965 144.031509 
L 314.006979 143.665669 
L 314.307993 144.399546 
L 314.609007 143.077554 
L 314.910021 144.088355 
L 315.211035 143.757494 
L 315.512049 144.679392 
L 315.813063 144.959239 
L 316.41509 142.425311 
L 316.716104 143.498054 
L 317.017118 142.388147 
L 317.318132 143.57021 
L 317.619146 143.542511 
L 317.92016 143.933127 
L 318.221174 143.613931 
L 318.522188 143.968843 
L 318.823202 141.944319 
L 319.124215 143.673687 
L 319.425229 143.84641 
L 320.328271 145.349855 
L 320.629285 145.160372 
L 320.930299 145.104988 
L 321.231313 144.930816 
L 321.532327 145.141428 
L 321.83334 144.982554 
L 322.134354 146.118711 
L 322.435368 146.710461 
L 322.736382 146.78927 
L 323.037396 147.505651 
L 323.639424 147.953837 
L 323.940438 146.411766 
L 324.241452 146.874538 
L 324.542465 147.9276 
L 325.144493 148.517901 
L 325.445507 148.987229 
L 326.047535 149.497369 
L 326.348549 149.447079 
L 326.649563 149.944831 
L 327.25159 150.266213 
L 327.552604 150.390844 
L 327.853618 149.914947 
L 328.154632 150.470269 
L 329.358688 151.483992 
L 329.659702 150.866729 
L 329.960716 151.469418 
L 330.562743 151.998502 
L 331.164771 152.384747 
L 331.465785 152.585881 
L 331.766799 152.946625 
L 332.368827 153.042821 
L 332.669841 151.129079 
L 332.970854 152.218593 
L 333.271868 152.733103 
L 333.873896 152.033481 
L 334.17491 152.819097 
L 334.475924 152.94153 
L 334.776938 153.29643 
L 335.077952 153.423247 
L 335.378966 153.837178 
L 335.679979 151.868051 
L 335.980993 153.050114 
L 336.282007 153.284042 
L 336.583021 153.294981 
L 336.884035 153.663006 
L 337.185049 153.240321 
L 337.486063 152.480219 
L 337.787077 152.345397 
L 338.088091 153.241045 
L 338.991132 154.216143 
L 339.292146 154.436958 
L 339.59316 153.156513 
L 339.894174 152.921849 
L 340.797216 154.216143 
L 341.09823 153.706728 
L 341.700257 151.344062 
L 342.001271 152.862818 
L 342.302285 153.52746 
L 342.603299 153.830622 
L 342.904313 153.58357 
L 343.205327 154.241644 
L 343.506341 154.534615 
L 343.807354 154.604573 
L 344.108368 154.404055 
L 344.409382 154.765524 
L 344.710396 154.707954 
L 345.312424 155.121173 
L 345.914452 155.623283 
L 346.215466 154.968855 
L 346.51648 153.649785 
L 346.817493 153.061669 
L 347.118507 154.061543 
L 347.419519 154.399684 
L 347.720533 154.041138 
L 348.32256 155.00311 
L 348.924587 155.75738 
L 349.526614 154.696302 
L 349.827627 155.170726 
L 350.128641 153.200138 
L 350.730668 155.105138 
L 351.031682 154.646012 
L 351.332695 155.459314 
L 351.934722 156.163307 
L 352.235736 156.294482 
L 352.536749 154.866103 
L 353.138776 154.49151 
L 353.43979 155.703457 
L 353.740803 156.01536 
L 354.041817 154.277251 
L 354.34283 155.42361 
L 354.643844 154.915656 
L 354.944857 156.068572 
L 355.245871 155.892939 
L 356.148911 156.827937 
L 356.750938 155.934474 
L 357.051952 156.92778 
L 357.352965 157.279046 
L 357.653979 157.428441 
L 357.954992 157.395647 
L 358.256006 156.845433 
L 358.557019 158.033328 
L 358.858033 157.846756 
L 359.159046 158.264346 
L 359.46006 156.548827 
L 359.761073 157.576388 
L 360.062087 158.145559 
L 360.3631 158.449445 
L 360.664114 157.639065 
L 360.965127 158.303696 
L 361.266141 158.001258 
L 361.567154 158.120046 
L 362.169181 159.221211 
L 362.470195 158.090174 
L 362.771209 158.883794 
L 363.072222 159.259836 
L 363.674249 158.839336 
L 364.276276 160.046176 
L 365.179317 160.542466 
L 365.781344 160.979738 
L 367.286411 161.692472 
L 367.587425 159.525109 
L 367.888438 158.41228 
L 368.189452 160.053469 
L 369.092492 161.341931 
L 369.393506 161.570763 
L 369.694519 160.535186 
L 369.995533 161.422829 
L 370.296546 161.77628 
L 370.59756 161.80032 
L 370.898573 160.952039 
L 371.199587 161.819277 
L 371.5006 161.493512 
L 371.801614 162.117343 
L 372.102627 161.390651 
L 372.403641 161.53349 
L 372.704655 160.460748 
L 373.005668 161.321429 
L 373.306682 158.606037 
L 373.607695 160.365276 
L 374.209722 161.301023 
L 374.510736 161.62022 
L 374.811749 161.507264 
L 375.112763 161.86144 
L 375.413776 161.618759 
L 375.71479 160.454191 
L 376.316817 162.007926 
L 376.61783 162.131808 
L 376.918844 162.405835 
L 377.219857 162.373029 
L 377.520871 162.57927 
L 377.821884 161.806055 
L 378.122898 162.405835 
L 379.326952 163.408618 
L 379.627965 163.501892 
L 380.229992 163.835675 
L 380.832019 164.221195 
L 381.133033 163.792678 
L 381.434046 162.369394 
L 381.73506 163.458896 
L 382.036074 161.6931 
L 382.638101 163.279616 
L 382.939114 163.57988 
L 383.240128 164.106043 
L 383.541141 164.361113 
L 383.842155 164.396092 
L 384.143168 164.656269 
L 384.745195 164.894568 
L 385.347222 165.344227 
L 385.648236 165.322361 
L 385.949249 164.622014 
L 387.454317 165.493623 
L 388.056344 165.984806 
L 388.357357 166.051854 
L 388.658371 164.106779 
L 388.959384 165.223243 
L 389.260398 165.623337 
L 389.561411 165.44698 
L 389.862425 165.941809 
L 390.163438 165.894442 
L 390.464452 164.390997 
L 390.765465 165.602931 
L 391.066479 165.984081 
L 391.367492 166.110161 
L 391.969519 166.623935 
L 392.571546 166.995607 
L 392.87256 166.927109 
L 393.173574 167.240474 
L 393.775601 167.443069 
L 394.076614 167.284931 
L 394.377628 167.683565 
L 394.678641 167.677008 
L 394.979655 167.972153 
L 395.280668 168.01224 
L 395.882695 165.255312 
L 396.183709 166.496406 
L 396.785736 167.216422 
L 397.086749 167.504285 
L 397.387763 167.572071 
L 398.290803 168.136859 
L 398.591817 168.327802 
L 398.89283 168.317599 
L 399.193844 168.50853 
L 399.494857 168.394838 
L 399.795871 165.917033 
L 400.397898 167.17124 
L 400.698911 166.894315 
L 400.999925 167.645676 
L 401.300938 166.764589 
L 401.902965 167.822033 
L 402.203979 167.929156 
L 402.504993 167.554575 
L 402.806006 168.078564 
L 403.408033 168.46918 
L 403.709047 167.657327 
L 404.311074 168.420351 
L 404.612087 168.109172 
L 404.913101 168.638257 
L 406.117155 169.265722 
L 406.418168 169.208876 
L 407.020195 168.2417 
L 407.321209 168.676774 
L 407.622222 168.469071 
L 407.923236 168.964637 
L 408.826276 169.210229 
L 409.12729 168.345189 
L 409.428303 165.80543 
L 409.729317 166.61145 
L 410.03033 166.616546 
L 410.331344 165.965752 
L 410.632357 165.041681 
L 410.933371 166.2048 
L 411.836411 166.518164 
L 412.137425 167.002066 
L 412.438438 166.272573 
L 412.739452 167.004252 
L 413.040466 167.327819 
L 413.341479 166.332329 
L 413.642493 165.728903 
L 413.943506 164.164241 
L 414.24452 164.15987 
L 414.545533 166.169084 
L 414.846547 165.624689 
L 415.14756 166.427064 
L 415.448574 166.309013 
L 415.749587 166.823524 
L 416.050601 166.343256 
L 416.351614 166.537109 
L 416.652628 167.171868 
L 416.953641 166.446745 
L 417.254655 167.247658 
L 417.555668 165.631258 
L 417.856682 166.737518 
L 418.157695 167.266615 
L 418.458709 167.190812 
L 418.759722 165.487682 
L 419.060736 166.709095 
L 419.963776 167.829942 
L 420.26479 168.34956 
L 420.565803 168.106154 
L 420.866817 167.075671 
L 421.16783 167.832864 
L 421.769857 168.377983 
L 422.070871 168.617018 
L 422.672898 169.390969 
L 422.973912 169.473316 
L 423.274925 168.451588 
L 423.575939 168.500416 
L 424.177966 169.512666 
L 425.081006 169.518498 
L 425.38202 169.970343 
L 425.683033 169.728386 
L 425.984047 169.998029 
L 426.28506 169.404818 
L 426.586074 168.312395 
L 426.887087 169.476962 
L 427.188101 167.676175 
L 427.790128 169.153395 
L 428.091141 168.216199 
L 428.392155 169.213875 
L 429.295195 170.40468 
L 429.596209 170.570847 
L 430.198236 171.161148 
L 430.499249 171.366653 
L 430.800263 171.288677 
L 432.004317 172.299478 
L 432.30533 172.23098 
L 432.907358 172.580061 
L 433.208371 172.507905 
L 433.509385 172.899257 
L 433.810398 172.805247 
L 434.111412 172.954642 
L 434.412425 171.05912 
L 434.713439 172.147897 
L 435.014452 172.200372 
L 435.616479 173.060316 
L 436.218506 173.399194 
L 436.51952 174.060915 
L 437.121547 174.482864 
L 437.42256 173.714744 
L 437.723574 174.016457 
L 438.024587 174.477768 
L 438.325601 173.410121 
L 438.626614 174.242379 
L 438.927628 174.262785 
L 439.228641 174.694937 
L 439.529655 174.065286 
L 440.733709 174.882233 
L 441.034722 175.433184 
L 441.335736 175.050574 
L 441.636749 175.231314 
L 441.937763 175.641611 
L 442.238776 175.746549 
L 442.53979 175.312212 
L 442.840803 174.464655 
L 443.442831 175.252444 
L 443.743844 175.215279 
L 444.345871 175.852948 
L 445.850939 176.575161 
L 446.151952 176.397342 
L 446.452966 175.920624 
L 446.753979 175.817872 
L 447.958033 176.432949 
L 448.56006 175.224649 
L 448.861074 176.073666 
L 449.162087 176.107184 
L 449.764114 176.660321 
L 450.065128 176.389228 
L 450.366141 176.682187 
L 450.667155 175.914792 
L 450.968168 176.569232 
L 451.570195 177.013048 
L 451.871209 176.778383 
L 452.473236 177.265208 
L 452.77425 177.220013 
L 453.376277 177.520265 
L 453.67729 175.423609 
L 453.978304 176.743404 
L 454.580331 177.316946 
L 454.881344 177.315485 
L 455.182358 177.796477 
L 455.483371 177.8249 
L 456.085398 178.176891 
L 456.386412 178.138989 
L 456.687425 178.30151 
L 456.988439 178.203853 
L 457.289452 178.399167 
L 457.590466 177.843845 
L 457.891479 178.120045 
L 458.192493 178.605408 
L 458.493506 177.898505 
L 458.79452 177.743278 
L 459.095533 176.405251 
L 459.396547 175.971638 
L 459.69756 176.674894 
L 459.998574 176.658135 
L 460.299587 177.364314 
L 460.600601 177.210547 
L 461.202628 177.958986 
L 461.503641 176.996289 
L 461.804655 177.900691 
L 462.105668 178.24831 
L 462.406682 177.765869 
L 462.707695 178.311712 
L 463.008709 178.198021 
L 463.309722 177.931299 
L 463.610736 178.439978 
L 463.91175 177.73817 
L 464.212763 177.37087 
L 464.513777 177.695174 
L 464.81479 178.185632 
L 465.115804 177.928377 
L 465.416817 177.396383 
L 465.717831 175.801113 
L 466.018844 177.416052 
L 466.620871 177.846755 
L 466.921885 177.066247 
L 467.523912 176.279183 
L 467.824925 177.195974 
L 468.125939 177.256454 
L 468.426952 177.633957 
L 470.233033 178.716178 
L 470.534047 177.022526 
L 470.83506 178.139726 
L 471.136074 178.04353 
L 471.437087 178.701604 
L 471.738101 177.411681 
L 472.039114 177.954615 
L 472.340128 177.681325 
L 472.641141 178.327747 
L 472.942155 178.005629 
L 473.243169 176.673446 
L 473.544182 176.847618 
L 473.845196 177.928377 
L 474.146209 178.276733 
L 474.447223 176.396509 
L 474.748236 177.943687 
L 475.350263 178.367834 
L 475.651277 178.232275 
L 475.95229 178.646944 
L 476.253304 178.581356 
L 476.554317 178.173244 
L 476.855331 178.823313 
L 477.156344 178.035513 
L 477.758371 179.240891 
L 478.360398 179.713866 
L 478.661412 179.743013 
L 478.962425 178.882332 
L 479.263439 179.280978 
L 479.564452 179.185506 
L 479.865466 177.720687 
L 480.166479 177.253544 
L 480.467493 178.466215 
L 480.768506 178.339411 
L 481.06952 177.424069 
L 481.370533 178.798525 
L 481.671547 178.103286 
L 481.97256 178.614886 
L 482.574587 179.04996 
L 482.875597 179.54916 
L 483.176611 177.898505 
L 483.778638 179.168011 
L 484.380665 179.915 
L 484.681679 178.177615 
L 484.982693 179.426002 
L 485.283706 178.331394 
L 485.58472 179.556453 
L 485.885734 180.063671 
L 486.186748 179.622765 
L 487.089789 180.065132 
L 487.390802 179.76488 
L 487.99283 180.695508 
L 488.293843 180.934543 
L 488.594857 180.914137 
L 488.895871 180.081167 
L 489.497898 181.020548 
L 489.798912 181.376185 
L 490.099926 180.722482 
L 490.701953 181.634889 
L 491.30398 182.106403 
L 491.604994 181.763891 
L 492.207021 182.36658 
L 492.508035 182.244871 
L 492.809049 182.279126 
L 493.110062 182.705458 
L 493.411076 182.317027 
L 493.71209 182.808935 
L 494.013104 182.88254 
L 494.314117 183.253487 
L 495.217158 183.555924 
L 495.518172 182.378232 
L 496.120199 183.217047 
L 496.722227 183.330738 
L 497.023241 183.63099 
L 497.324254 183.730108 
L 497.625268 183.204658 
L 498.227295 183.81755 
L 498.528309 183.698039 
L 498.829323 183.294926 
L 499.130336 183.394044 
L 499.732364 183.767164 
L 500.033377 183.739478 
L 500.334391 183.952276 
L 500.635405 183.645467 
L 500.936419 181.909543 
L 501.237432 183.007062 
L 501.538446 182.48672 
L 502.742501 183.748944 
L 503.043514 183.694296 
L 503.344528 183.82692 
L 503.645542 182.220723 
L 503.946555 183.364884 
L 504.247569 183.265778 
L 504.548583 183.668783 
L 504.849597 183.406432 
L 505.451624 183.60101 
L 506.053651 184.130818 
L 506.354665 182.632481 
L 506.655679 183.87721 
L 507.859734 184.498119 
L 508.461761 184.864695 
L 509.063788 185.097898 
L 509.364802 185.031574 
L 509.966829 185.428034 
L 510.267843 185.40106 
L 510.568857 185.641556 
L 511.471898 185.948365 
L 511.772912 185.466648 
L 512.374939 185.960028 
L 514.181021 186.71285 
L 514.482035 186.639245 
L 515.084062 186.942407 
L 515.385076 186.915445 
L 515.987103 187.088168 
L 516.288117 186.647986 
L 517.191158 187.149384 
L 517.492172 187.027675 
L 518.094199 187.334484 
L 518.696227 187.508656 
L 518.99724 187.592475 
L 519.298254 187.239749 
L 519.599268 187.623084 
L 519.900281 187.289302 
L 520.201295 187.601942 
L 520.502309 187.676283 
L 520.803322 187.880339 
L 521.104336 187.424848 
L 521.40535 187.34104 
L 521.706363 187.655141 
L 522.007377 187.352704 
L 522.308391 187.741134 
L 523.211432 188.014424 
L 525.318528 188.629502 
L 526.221569 188.837929 
L 526.823596 189.044906 
L 527.12461 189.020854 
L 527.425624 189.142564 
L 527.726637 189.052924 
L 528.027651 188.606186 
L 528.328665 188.959638 
L 529.231706 189.256243 
L 529.53272 189.139642 
L 529.833733 189.619173 
L 530.435761 189.324753 
L 530.736774 189.558681 
L 531.037788 189.650506 
L 531.338802 189.05657 
L 531.639815 188.028274 
L 531.940829 188.627316 
L 532.241843 188.394113 
L 532.542856 188.797854 
L 532.84387 188.243993 
L 533.144884 188.587242 
L 533.445898 188.280421 
L 533.746911 188.468455 
L 534.047925 187.616515 
L 534.348939 188.356948 
L 535.25198 188.993156 
L 535.552993 188.115728 
L 536.155021 189.15203 
L 536.757048 188.750486 
L 537.359076 189.155676 
L 537.660089 187.824942 
L 537.961103 188.772341 
L 538.262117 188.988061 
L 538.56313 188.534042 
L 539.165158 189.160784 
L 539.466171 189.182638 
L 539.767185 188.932676 
L 540.068199 188.91227 
L 540.369212 189.098106 
L 540.670226 189.458114 
L 540.97124 188.751935 
L 541.272254 189.195026 
L 541.573267 189.036165 
L 541.874281 189.419488 
L 542.175295 189.29342 
L 542.777322 189.649057 
L 543.078336 187.220067 
L 543.379349 188.63607 
L 543.680363 188.977858 
L 543.981377 188.973487 
L 544.282391 189.388155 
L 544.583404 188.028998 
L 544.884418 189.068959 
L 545.185432 189.453018 
L 545.787459 189.756917 
L 546.088473 189.301425 
L 546.389486 189.802823 
L 546.6905 189.696424 
L 546.991514 189.893187 
L 547.292527 189.791896 
L 547.593541 189.880799 
L 548.195569 190.358145 
L 548.496582 190.308592 
L 548.797596 190.512648 
L 549.09861 190.482039 
L 549.399623 190.590624 
L 549.700637 189.081347 
L 550.001651 189.916515 
L 550.302664 189.714644 
L 550.904692 190.264859 
L 551.205705 189.455204 
L 551.506719 190.15555 
L 551.807733 190.054971 
L 552.710774 190.474022 
L 553.312801 190.849328 
L 553.613815 190.758964 
L 554.215842 191.058491 
L 554.516856 189.030961 
L 554.81787 189.79908 
L 555.419897 190.186786 
L 555.720911 189.874134 
L 556.021925 190.064353 
L 556.322938 189.342864 
L 556.623952 189.420116 
L 556.924966 190.216658 
L 557.225979 189.994382 
L 557.526993 189.535993 
L 557.828007 190.11463 
L 558.430034 190.715871 
L 558.731048 189.330476 
L 559.032062 190.188235 
L 559.333075 188.203798 
L 559.634089 189.577529 
L 559.935103 189.423762 
L 560.53713 190.333996 
L 560.838144 187.956021 
L 561.139157 188.444294 
L 561.440171 188.696454 
L 561.741185 188.380892 
L 562.042198 189.159214 
L 562.343212 189.304239 
L 562.644226 188.966097 
L 562.94524 188.287618 
L 563.246253 189.132989 
L 563.547267 187.596013 
L 564.149294 188.566003 
L 564.450308 188.259919 
L 564.751322 188.874997 
L 565.052335 189.001077 
L 565.353349 189.309346 
L 565.654363 189.01565 
L 566.25639 189.243758 
L 566.557404 189.631464 
L 567.159431 190.030098 
L 567.460445 190.223214 
L 567.761459 190.027176 
L 568.6645 190.475374 
L 568.965513 190.121187 
L 569.266527 190.044672 
L 569.567541 190.527113 
L 569.868555 190.502336 
L 570.169568 190.831736 
L 570.771596 190.860159 
L 571.072609 190.964372 
L 571.373623 190.415619 
L 571.674637 191.025589 
L 571.97565 191.0132 
L 572.276664 190.521281 
L 572.577678 191.020493 
L 572.878691 191.239123 
L 573.781733 191.467955 
L 574.082746 191.650881 
L 574.38376 191.524065 
L 574.684774 191.806108 
L 574.985787 191.385608 
L 575.286801 192.075752 
L 576.79187 192.518843 
L 577.092883 192.496976 
L 577.694911 192.788487 
L 578.296938 192.911645 
L 579.500993 193.189305 
L 579.802006 193.328498 
L 580.404034 193.365663 
L 580.705048 193.543481 
L 581.006061 193.487372 
L 582.51113 193.909333 
L 583.414171 193.972735 
L 583.715184 193.768679 
L 585.220253 194.367722 
L 587.026335 194.644658 
L 587.327349 194.512747 
L 587.628362 194.751782 
L 588.23039 194.852349 
L 588.531404 194.836326 
L 589.434445 195.175192 
L 589.735458 195.017054 
L 590.036472 195.302733 
L 590.337486 195.358118 
L 590.638499 195.296901 
L 590.939513 195.433184 
L 591.240527 195.416424 
L 592.143568 195.720311 
L 592.444582 195.649628 
L 593.347623 195.828907 
L 593.648636 194.74304 
L 593.94965 195.204351 
L 594.852691 195.728328 
L 595.454719 195.855869 
L 596.35776 196.068667 
L 596.658773 195.940401 
L 597.862828 196.206398 
L 599.66891 196.527792 
L 599.969924 196.355806 
L 600.270938 196.580992 
L 600.571951 196.574435 
L 602.07702 197.084575 
L 602.980061 197.032825 
L 603.281075 197.134853 
L 603.582088 197.031364 
L 604.184116 197.227402 
L 605.38817 197.210643 
L 605.689184 196.993474 
L 606.291212 197.280614 
L 606.592225 197.333077 
L 606.893239 197.110076 
L 607.194253 197.436565 
L 608.097294 197.481023 
L 608.398307 197.750667 
L 609.903376 197.951076 
L 612.010472 198.131804 
L 612.311485 198.295786 
L 612.612499 198.236754 
L 612.913513 197.437193 
L 613.51554 197.576386 
L 613.816554 197.474358 
L 614.117568 197.643435 
L 614.719595 197.711932 
L 616.525677 197.949518 
L 618.030746 198.14482 
L 618.933785 198.327746 
L 619.234798 198.264344 
L 619.836826 198.466214 
L 620.438854 198.368557 
L 621.642909 198.467663 
L 622.244937 198.539083 
L 623.147979 198.662253 
L 623.448993 198.590097 
L 624.352034 198.671719 
L 624.653048 198.020938 
L 624.954062 198.781765 
L 625.255076 199.206635 
L 625.857104 199.485757 
L 626.158118 199.812247 
L 627.061159 200.187565 
L 627.362173 200.164237 
L 627.663187 199.996621 
L 627.964201 200.203599 
L 628.265215 200.157681 
L 628.566228 200.358827 
L 628.867242 200.358827 
L 629.168256 200.234208 
L 629.770284 200.500205 
L 630.071298 200.419307 
L 630.673326 200.578181 
L 631.275353 200.517688 
L 631.576367 200.68458 
L 632.780423 200.712278 
L 633.38245 200.940374 
L 634.285492 200.704261 
L 634.88752 200.925076 
L 635.188534 200.938925 
L 635.489548 200.665635 
L 637.596645 200.99431 
L 638.198672 201.189612 
L 638.499686 201.062807 
L 638.8007 201.236991 
L 639.101714 201.078118 
L 640.30577 201.089781 
L 640.606783 201.096338 
L 641.208811 201.3463 
L 641.810839 201.371077 
L 642.111853 201.25666 
L 642.713881 201.449053 
L 643.014894 201.309135 
L 643.315908 201.494971 
L 643.917936 201.648013 
L 644.21895 201.756597 
L 644.519964 201.420642 
L 644.820978 201.628332 
L 645.121992 201.644367 
L 645.423005 201.5438 
L 646.326047 201.740563 
L 646.627061 201.495696 
L 646.928075 201.709954 
L 647.229089 200.963701 
L 647.530103 201.807611 
L 648.13213 201.656755 
L 648.433144 201.83531 
L 648.734158 201.836034 
L 649.035172 201.3995 
L 649.6372 201.363059 
L 649.938214 201.588982 
L 650.239227 201.617405 
L 650.540241 201.810521 
L 650.841255 201.848422 
L 651.142269 202.016038 
L 651.443283 201.907454 
L 651.744297 202.255073 
L 652.045311 202.008757 
L 652.346325 202.136286 
L 652.948352 202.218633 
L 653.249366 202.35564 
L 653.851394 202.360748 
L 654.453422 202.467871 
L 656.259505 202.780511 
L 656.560519 202.691608 
L 657.162546 202.895664 
L 657.46356 203.144902 
L 657.764574 202.981657 
L 658.96863 203.148548 
L 659.269644 203.115754 
L 660.172685 203.4488 
L 660.473699 203.364992 
L 660.774713 203.504909 
L 661.978768 203.480133 
L 663.182824 203.724276 
L 663.483838 203.585071 
L 665.891949 203.78257 
L 666.192963 203.712612 
L 667.999046 203.963311 
L 668.30006 203.925409 
L 668.601074 204.055136 
L 669.203101 204.071895 
L 669.504115 204.214734 
L 669.805129 204.068249 
L 670.708171 204.224937 
L 671.009185 204.121448 
L 671.611212 204.255545 
L 672.514254 204.194329 
L 672.815268 204.377979 
L 673.116282 204.227122 
L 673.71831 204.447937 
L 674.320337 204.35028 
L 674.621351 204.498951 
L 674.922365 204.510615 
L 675.223379 204.681877 
L 676.126421 204.598794 
L 678.233518 204.804311 
L 678.835545 204.82398 
L 680.039601 204.966819 
L 680.641629 205.023665 
L 681.845684 205.063751 
L 683.651767 205.29914 
L 684.554809 205.385858 
L 684.855823 205.285291 
L 685.156837 205.398983 
L 685.758865 205.30944 
L 686.059878 205.213968 
L 686.661906 205.410731 
L 687.263934 205.209597 
L 687.564948 205.290483 
L 687.865962 204.989506 
L 688.467989 205.401989 
L 690.274073 205.616972 
L 690.575087 205.676004 
L 690.8761 205.885167 
L 691.177114 205.737957 
L 691.779142 205.907758 
L 692.080156 205.878598 
L 692.38117 205.415838 
L 692.682184 206.113999 
L 693.284211 206.239343 
L 693.585225 206.145332 
L 694.187253 206.280154 
L 696.595364 206.535948 
L 696.896378 206.672955 
L 697.197392 206.494413 
L 698.401447 206.558539 
L 699.003475 206.624863 
L 701.110572 206.76041 
L 701.411586 205.968238 
L 701.7126 206.933857 
L 703.217669 207.108766 
L 703.518683 207.281477 
L 704.421725 207.333227 
L 704.722739 207.476791 
L 705.324766 207.314282 
L 705.62578 207.470959 
L 705.926794 206.667136 
L 706.227808 207.473881 
L 706.528822 207.427238 
L 706.829836 207.550396 
L 707.13085 207.431609 
L 708.033891 207.69542 
L 708.635919 207.593392 
L 709.237947 207.650963 
L 709.538961 207.551857 
L 709.839974 207.777043 
L 710.442002 207.807651 
L 711.04403 207.78797 
L 711.947072 207.849187 
L 712.850113 207.98693 
L 713.151127 207.897291 
L 714.054169 208.005875 
L 714.355182 207.911864 
L 714.656196 207.997133 
L 714.95721 207.916235 
L 716.46228 208.053242 
L 717.666335 208.20556 
L 718.569377 208.559736 
L 719.171404 208.563382 
L 719.472418 208.707682 
L 720.676474 208.775455 
L 720.977488 208.859263 
L 721.278502 208.75505 
L 722.783571 209.080078 
L 723.084585 208.962016 
L 723.987626 209.081539 
L 724.28864 208.982421 
L 725.191682 209.230935 
L 725.492696 209.164622 
L 726.395737 209.217085 
L 727.900807 209.346087 
L 728.201821 209.41677 
L 728.502835 209.241862 
L 728.803848 209.402197 
L 729.104862 209.258633 
L 729.405876 209.400736 
L 729.70689 209.276853 
L 730.007904 209.311833 
L 730.308918 209.491112 
L 732.416015 209.4379 
L 733.319057 209.631753 
L 733.921084 209.566902 
L 734.222098 209.666745 
L 734.523112 209.489651 
L 734.824126 209.648525 
L 735.12514 209.59896 
L 735.426154 209.685689 
L 736.028181 209.672565 
L 736.630209 209.733057 
L 737.232237 209.780424 
L 737.533251 209.956057 
L 737.834265 209.762204 
L 738.135278 209.760755 
L 739.03832 209.985941 
L 739.339334 210.063193 
L 739.941362 209.979385 
L 742.9515 210.267249 
L 743.553528 210.351781 
L 744.155556 210.359798 
L 744.757584 210.53397 
L 745.961639 210.544173 
L 746.262653 210.700861 
L 746.563667 210.725638 
L 746.864681 210.544173 
L 747.466709 210.880865 
L 748.670764 210.850981 
L 749.272792 211.06233 
L 749.573806 210.963212 
L 749.87482 211.122086 
L 750.476847 211.00476 
L 750.777861 211.022243 
L 751.078875 210.896175 
L 751.379889 211.084197 
L 751.981917 210.998928 
L 752.282931 211.138121 
L 753.185972 211.159251 
L 753.486986 211.251812 
L 753.788 211.117715 
L 756.798137 211.359672 
L 757.09915 211.199337 
L 757.400164 211.373509 
L 759.206246 211.359672 
L 762.517397 211.812229 
L 763.119424 211.8698 
L 763.420438 211.998802 
L 764.022465 211.901145 
L 764.323479 212.05054 
L 764.624493 211.697813 
L 764.925506 212.142365 
L 766.430575 212.263338 
L 766.731589 212.521317 
L 767.032602 212.355163 
L 767.333616 212.436061 
L 768.236657 212.400345 
L 769.139698 212.551201 
L 769.440712 212.493631 
L 769.741726 212.576714 
L 770.343753 212.562129 
L 773.955917 212.853639 
L 774.256931 212.804086 
L 774.557945 212.938183 
L 775.159972 212.761089 
L 775.460986 212.907575 
L 776.966054 213.00231 
L 777.568082 213.166279 
L 777.869095 213.141502 
L 778.170109 212.370473 
L 778.471123 213.328799 
L 778.772136 213.298915 
L 779.07315 213.103613 
L 779.374164 213.242069 
L 779.675177 213.233328 
L 779.976191 213.376167 
L 780.277205 213.315674 
L 780.578219 213.455604 
L 781.782273 213.472363 
L 782.083287 213.355761 
L 782.384301 213.36961 
L 782.685314 212.970977 
L 783.889369 213.914295 
L 785.394438 213.878579 
L 785.695451 214.10304 
L 787.20052 214.119075 
L 788.103561 214.233491 
L 789.006602 214.236401 
L 789.909643 214.2641 
L 790.210657 214.175184 
L 790.51167 214.256082 
L 791.113698 214.089191 
L 791.414712 214.359571 
L 791.715725 214.263375 
L 792.618766 214.379977 
L 793.822821 214.306372 
L 794.725862 214.494393 
L 795.026876 214.399646 
L 795.32789 214.480544 
L 795.628903 214.262639 
L 795.929917 214.353003 
L 796.230931 213.93761 
L 796.531944 214.444103 
L 797.133972 214.519894 
L 798.338027 214.589852 
L 798.63904 214.489285 
L 799.241068 214.725411 
L 801.348163 214.798279 
L 801.649177 214.697712 
L 801.950191 214.867513 
L 802.251205 214.770593 
L 804.3583 214.992869 
L 805.261341 214.903954 
L 805.863369 215.010352 
L 806.465396 215.024202 
L 806.76641 215.089065 
L 807.368437 215.054086 
L 808.873506 215.038051 
L 809.17452 215.151743 
L 809.475533 215.134971 
L 809.776547 215.371821 
L 810.077561 215.213684 
L 810.378574 215.286564 
L 810.980602 215.164855 
L 811.582629 215.369636 
L 813.990739 215.289474 
L 814.592766 215.212223 
L 818.505944 215.359433 
L 818.806958 215.183075 
L 819.107971 215.411183 
L 819.408985 215.368187 
L 820.011013 215.497177 
L 821.215067 215.626166 
L 822.419122 215.669888 
L 822.720136 215.852813 
L 823.021149 215.692479 
L 823.623177 215.664792 
L 823.924191 215.785765 
L 824.225204 215.710699 
L 825.730273 215.960673 
L 826.031286 215.899456 
L 826.633314 216.05833 
L 827.536355 215.922047 
L 827.837369 216.120996 
L 828.138382 216.166915 
L 828.74041 216.016058 
L 829.342437 216.17201 
L 829.944464 216.198972 
L 831.148519 216.154526 
L 831.750547 216.175656 
L 832.954601 216.274774 
L 833.556629 216.282055 
L 833.857642 216.364402 
L 834.45967 216.275499 
L 836.566766 216.324327 
L 836.867779 216.259464 
L 838.071834 216.449671 
L 838.372848 216.343272 
L 838.974875 216.433636 
L 839.576903 216.443839 
L 840.17893 216.634782 
L 840.479944 216.548052 
L 840.780957 216.679964 
L 842.888053 216.636967 
L 843.189067 216.838101 
L 843.490081 216.745552 
L 843.791094 216.801673 
L 844.393122 216.662468 
L 846.199204 216.823528 
L 846.500218 217.082968 
L 846.801231 216.953979 
L 848.005286 216.978031 
L 848.607313 217.219976 
L 848.908327 217.148556 
L 849.209341 217.235286 
L 849.510355 217.165327 
L 850.112382 217.301598 
L 850.413396 217.232376 
L 850.714409 217.408733 
L 851.015423 217.227269 
L 851.61745 217.101189 
L 851.918464 217.293581 
L 852.520491 217.202492 
L 854.02556 217.425493 
L 854.326574 217.27099 
L 854.627587 217.366461 
L 854.928601 217.165327 
L 855.229615 217.428415 
L 856.132656 217.354797 
L 856.43367 217.448084 
L 856.734683 217.373018 
L 857.035697 217.432049 
L 857.336711 217.302335 
L 857.637724 217.442988 
L 863.356984 217.533352 
L 863.657998 217.480877 
L 863.959012 217.633195 
L 864.561039 217.570517 
L 865.163067 217.626638 
L 865.46408 217.733762 
L 866.969149 217.588737 
L 867.270163 217.700243 
L 867.571176 217.50202 
L 867.87219 217.625902 
L 868.173204 217.619346 
L 868.474217 217.830694 
L 871.484354 217.763646 
L 872.688409 217.811013 
L 872.989423 217.322004 
L 873.290436 217.743965 
L 873.59145 217.909395 
L 874.795505 217.834329 
L 877.504628 217.698058 
L 877.805642 217.960409 
L 878.407669 217.823401 
L 878.708683 217.81466 
L 879.31071 217.981539 
L 879.611724 217.905024 
L 880.514765 217.999034 
L 880.815779 217.808828 
L 881.116792 217.968426 
L 881.71882 217.922507 
L 882.019834 217.461208 
L 882.320847 217.996849 
L 883.524902 218.09523 
L 884.126929 217.854734 
L 884.427943 218.025996 
L 885.02997 217.880247 
L 885.933012 218.050773 
L 886.535039 218.021625 
L 886.836053 218.149891 
L 887.43808 217.89045 
L 888.341121 218.117821 
L 889.545176 218.11199 
L 889.84619 218.249733 
L 891.050242 218.223496 
L 891.953283 218.284713 
L 892.555311 218.230052 
L 893.157338 218.4035 
L 895.264434 218.42463 
L 895.565448 217.853285 
L 895.866461 218.288359 
L 896.468489 218.455975 
L 897.672543 218.448682 
L 897.973557 218.574037 
L 898.274571 218.47638 
L 898.876598 218.712493 
L 899.177612 218.909993 
L 899.779639 218.841495 
L 900.080653 219.149028 
L 900.381667 218.893958 
L 901.284708 218.873553 
L 901.886735 218.944972 
L 902.789776 218.864811 
L 903.09079 218.947158 
L 903.391804 218.834203 
L 904.294845 218.971934 
L 904.595858 218.905622 
L 904.896872 218.996723 
L 905.197886 218.877924 
L 906.100927 218.893958 
L 906.702954 219.060849 
L 907.304982 219.017853 
L 907.605995 219.055742 
L 907.907009 218.95299 
L 908.509036 219.023685 
L 908.81005 218.955912 
L 909.111064 219.076884 
L 909.412077 219.017128 
L 909.713091 219.144657 
L 910.014105 219.102385 
L 910.315119 219.22337 
L 910.616132 219.052108 
L 912.121201 219.22337 
L 912.422214 219.127162 
L 912.723228 219.26563 
L 913.325255 219.235021 
L 913.626269 218.943511 
L 913.927283 219.22337 
L 914.830324 219.167248 
L 915.131338 219.3232 
L 917.840461 219.231375 
L 917.840461 219.231375 
" clip-path="url(#pe3c561a403)" style="fill: none; stroke: #1d4ed8; stroke-opacity: 0.95; stroke-width: 1.3; stroke-linecap: square"/>
   </g>
   <g id="patch_22">
    <path d="M 42.190938 228.954713 
L 42.190938 17.061433 
" style="fill: none; stroke: #cbd5e1; stroke-width: 0.8; stroke-linejoin: miter; stroke-linecap: square"/>
   </g>
   <g id="patch_23">
    <path d="M 935.353437 228.954713 
L 935.353437 17.061433 
" style="fill: none; stroke: #cbd5e1; stroke-width: 0.8; stroke-linejoin: miter; stroke-linecap: square"/>
   </g>
   <g id="patch_24">
    <path d="M 42.190938 228.954713 
L 935.353438 228.954713 
" style="fill: none; stroke: #cbd5e1; stroke-width: 0.8; stroke-linejoin: miter; stroke-linecap: square"/>
   </g>
   <g id="patch_25">
    <path d="M 42.190938 17.061433 
L 935.353438 17.061433 
" style="fill: none; stroke: #cbd5e1; stroke-width: 0.8; stroke-linejoin: miter; stroke-linecap: square"/>
   </g>
   <g id="text_19">
    <!-- ACC -->
    <g style="fill: #475569" transform="translate(124.242546 13.27875) scale(0.08 -0.08)">
     <defs>
      <path id="DejaVuSans-43" d="M 4122 4306 
L 4122 3641 
Q 3803 3938 3442 4084 
Q 3081 4231 2675 4231 
Q 1875 4231 1450 3742 
Q 1025 3253 1025 2328 
Q 1025 1406 1450 917 
Q 1875 428 2675 428 
Q 3081 428 3442 575 
Q 3803 722 4122 1019 
L 4122 359 
Q 3791 134 3420 21 
Q 3050 -91 2638 -91 
Q 1578 -91 968 557 
Q 359 1206 359 2328 
Q 359 3453 968 4101 
Q 1578 4750 2638 4750 
Q 3056 4750 3426 4639 
Q 3797 4528 4122 4306 
z
" transform="scale(0.015625)"/>
     </defs>
     <use xlink:href="#DejaVuSans-41"/>
     <use xlink:href="#DejaVuSans-43" transform="translate(66.658203 0)"/>
     <use xlink:href="#DejaVuSans-43" transform="translate(136.482422 0)"/>
    </g>
   </g>
   <g id="text_20">
    <!-- OC -->
    <g style="fill: #475569" transform="translate(230.402895 13.27875) scale(0.08 -0.08)">
     <defs>
      <path id="DejaVuSans-4f" d="M 2522 4238 
Q 1834 4238 1429 3725 
Q 1025 3213 1025 2328 
Q 1025 1447 1429 934 
Q 1834 422 2522 422 
Q 3209 422 3611 934 
Q 4013 1447 4013 2328 
Q 4013 3213 3611 3725 
Q 3209 4238 2522 4238 
z
M 2522 4750 
Q 3503 4750 4090 4092 
Q 4678 3434 4678 2328 
Q 4678 1225 4090 567 
Q 3503 -91 2522 -91 
Q 1538 -91 948 565 
Q 359 1222 359 2328 
Q 359 3434 948 4092 
Q 1538 4750 2522 4750 
z
" transform="scale(0.015625)"/>
     </defs>
     <use xlink:href="#DejaVuSans-4f"/>
     <use xlink:href="#DejaVuSans-43" transform="translate(78.710938 0)"/>
    </g>
   </g>
   <g id="text_21">
    <!-- FCS -->
    <g style="fill: #475569" transform="translate(255.802878 13.27875) scale(0.08 -0.08)">
     <defs>
      <path id="DejaVuSans-46" d="M 628 4666 
L 3309 4666 
L 3309 4134 
L 1259 4134 
L 1259 2759 
L 3109 2759 
L 3109 2228 
L 1259 2228 
L 1259 0 
L 628 0 
L 628 4666 
z
" transform="scale(0.015625)"/>
     </defs>
     <use xlink:href="#DejaVuSans-46"/>
     <use xlink:href="#DejaVuSans-43" transform="translate(57.519531 0)"/>
     <use xlink:href="#DejaVuSans-53" transform="translate(127.34375 0)"/>
    </g>
   </g>
   <g id="text_22">
    <!-- SR -->
    <g style="fill: #475569" transform="translate(294.238896 13.27875) scale(0.08 -0.08)">
     <defs>
      <path id="DejaVuSans-52" d="M 2841 2188 
Q 3044 2119 3236 1894 
Q 3428 1669 3622 1275 
L 4263 0 
L 3584 0 
L 2988 1197 
Q 2756 1666 2539 1819 
Q 2322 1972 1947 1972 
L 1259 1972 
L 1259 0 
L 628 0 
L 628 4666 
L 2053 4666 
Q 2853 4666 3247 4331 
Q 3641 3997 3641 3322 
Q 3641 2881 3436 2590 
Q 3231 2300 2841 2188 
z
M 1259 4147 
L 1259 2491 
L 2053 2491 
Q 2509 2491 2742 2702 
Q 2975 2913 2975 3322 
Q 2975 3731 2742 3939 
Q 2509 4147 2053 4147 
L 1259 4147 
z
" transform="scale(0.015625)"/>
     </defs>
     <use xlink:href="#DejaVuSans-53"/>
     <use xlink:href="#DejaVuSans-52" transform="translate(63.476562 0)"/>
    </g>
   </g>
   <g id="text_23">
    <!-- FFC -->
    <g style="fill: #475569" transform="translate(335.057723 13.27875) scale(0.08 -0.08)">
     <use xlink:href="#DejaVuSans-46"/>
     <use xlink:href="#DejaVuSans-46" transform="translate(57.519531 0)"/>
     <use xlink:href="#DejaVuSans-43" transform="translate(115.039062 0)"/>
    </g>
   </g>
   <g id="text_24">
    <!-- SS -->
    <g style="fill: #475569" transform="translate(418.647045 13.27875) scale(0.08 -0.08)">
     <use xlink:href="#DejaVuSans-53"/>
     <use xlink:href="#DejaVuSans-53" transform="translate(63.476562 0)"/>
    </g>
   </g>
   <g id="text_25">
    <!-- OC -->
    <g style="fill: #475569" transform="translate(485.512001 13.27875) scale(0.08 -0.08)">
     <use xlink:href="#DejaVuSans-4f"/>
     <use xlink:href="#DejaVuSans-43" transform="translate(78.710938 0)"/>
    </g>
   </g>
   <g id="text_26">
    <!-- FCS -->
    <g style="fill: #475569" transform="translate(508.654381 13.27875) scale(0.08 -0.08)">
     <use xlink:href="#DejaVuSans-46"/>
     <use xlink:href="#DejaVuSans-43" transform="translate(57.519531 0)"/>
     <use xlink:href="#DejaVuSans-53" transform="translate(127.34375 0)"/>
    </g>
   </g>
   <g id="text_27">
    <!-- SR -->
    <g style="fill: #475569" transform="translate(544.832797 13.27875) scale(0.08 -0.08)">
     <use xlink:href="#DejaVuSans-53"/>
     <use xlink:href="#DejaVuSans-52" transform="translate(63.476562 0)"/>
    </g>
   </g>
   <g id="text_28">
    <!-- FFC -->
    <g style="fill: #475569" transform="translate(585.651623 13.27875) scale(0.08 -0.08)">
     <use xlink:href="#DejaVuSans-46"/>
     <use xlink:href="#DejaVuSans-46" transform="translate(57.519531 0)"/>
     <use xlink:href="#DejaVuSans-43" transform="translate(115.039062 0)"/>
    </g>
   </g>
   <g id="text_29">
    <!-- SS -->
    <g style="fill: #475569" transform="translate(671.498548 13.27875) scale(0.08 -0.08)">
     <use xlink:href="#DejaVuSans-53"/>
     <use xlink:href="#DejaVuSans-53" transform="translate(63.476562 0)"/>
    </g>
   </g>
   <g id="text_30">
    <!-- OC -->
    <g style="fill: #475569" transform="translate(738.363504 13.27875) scale(0.08 -0.08)">
     <use xlink:href="#DejaVuSans-4f"/>
     <use xlink:href="#DejaVuSans-43" transform="translate(78.710938 0)"/>
    </g>
   </g>
   <g id="text_31">
    <!-- FCS -->
    <g style="fill: #475569" transform="translate(761.505884 13.27875) scale(0.08 -0.08)">
     <use xlink:href="#DejaVuSans-46"/>
     <use xlink:href="#DejaVuSans-43" transform="translate(57.519531 0)"/>
     <use xlink:href="#DejaVuSans-53" transform="translate(127.34375 0)"/>
    </g>
   </g>
   <g id="text_32">
    <!-- SR -->
    <g style="fill: #475569" transform="translate(797.6843 13.27875) scale(0.08 -0.08)">
     <use xlink:href="#DejaVuSans-53"/>
     <use xlink:href="#DejaVuSans-52" transform="translate(63.476562 0)"/>
    </g>
   </g>
   <g id="text_33">
    <!-- FFC -->
    <g style="fill: #475569" transform="translate(840.760729 13.27875) scale(0.08 -0.08)">
     <use xlink:href="#DejaVuSans-46"/>
     <use xlink:href="#DejaVuSans-46" transform="translate(57.519531 0)"/>
     <use xlink:href="#DejaVuSans-43" transform="translate(115.039062 0)"/>
    </g>
   </g>
   <g id="text_34">
    <!-- SS -->
    <g style="fill: #475569" transform="translate(888.228408 13.27875) scale(0.08 -0.08)">
     <use xlink:href="#DejaVuSans-53"/>
     <use xlink:href="#DejaVuSans-53" transform="translate(63.476562 0)"/>
    </g>
   </g>
   <g id="legend_1">
    <g id="line2d_34">
     <path d="M 849.174688 27.540183 
L 857.174688 27.540183 
L 865.174688 27.540183 
" style="fill: none; stroke: #1d4ed8; stroke-opacity: 0.95; stroke-width: 1.3; stroke-linecap: square"/>
    </g>
    <g id="text_35">
     <!-- Empatica EDA -->
     <g transform="translate(871.574687 30.340183) scale(0.08 -0.08)">
      <defs>
       <path id="DejaVuSans-6d" d="M 3328 2828 
Q 3544 3216 3844 3400 
Q 4144 3584 4550 3584 
Q 5097 3584 5394 3201 
Q 5691 2819 5691 2113 
L 5691 0 
L 5113 0 
L 5113 2094 
Q 5113 2597 4934 2840 
Q 4756 3084 4391 3084 
Q 3944 3084 3684 2787 
Q 3425 2491 3425 1978 
L 3425 0 
L 2847 0 
L 2847 2094 
Q 2847 2600 2669 2842 
Q 2491 3084 2119 3084 
Q 1678 3084 1418 2786 
Q 1159 2488 1159 1978 
L 1159 0 
L 581 0 
L 581 3500 
L 1159 3500 
L 1159 2956 
Q 1356 3278 1631 3431 
Q 1906 3584 2284 3584 
Q 2666 3584 2933 3390 
Q 3200 3197 3328 2828 
z
" transform="scale(0.015625)"/>
       <path id="DejaVuSans-70" d="M 1159 525 
L 1159 -1331 
L 581 -1331 
L 581 3500 
L 1159 3500 
L 1159 2969 
Q 1341 3281 1617 3432 
Q 1894 3584 2278 3584 
Q 2916 3584 3314 3078 
Q 3713 2572 3713 1747 
Q 3713 922 3314 415 
Q 2916 -91 2278 -91 
Q 1894 -91 1617 61 
Q 1341 213 1159 525 
z
M 3116 1747 
Q 3116 2381 2855 2742 
Q 2594 3103 2138 3103 
Q 1681 3103 1420 2742 
Q 1159 2381 1159 1747 
Q 1159 1113 1420 752 
Q 1681 391 2138 391 
Q 2594 391 2855 752 
Q 3116 1113 3116 1747 
z
" transform="scale(0.015625)"/>
      </defs>
      <use xlink:href="#DejaVuSans-45"/>
      <use xlink:href="#DejaVuSans-6d" transform="translate(63.183594 0)"/>
      <use xlink:href="#DejaVuSans-70" transform="translate(160.595703 0)"/>
      <use xlink:href="#DejaVuSans-61" transform="translate(224.072266 0)"/>
      <use xlink:href="#DejaVuSans-74" transform="translate(285.351562 0)"/>
      <use xlink:href="#DejaVuSans-69" transform="translate(324.560547 0)"/>
      <use xlink:href="#DejaVuSans-63" transform="translate(352.34375 0)"/>
      <use xlink:href="#DejaVuSans-61" transform="translate(407.324219 0)"/>
      <use xlink:href="#DejaVuSans-20" transform="translate(468.603516 0)"/>
      <use xlink:href="#DejaVuSans-45" transform="translate(500.390625 0)"/>
      <use xlink:href="#DejaVuSans-44" transform="translate(563.574219 0)"/>
      <use xlink:href="#DejaVuSans-41" transform="translate(638.826172 0)"/>
     </g>
    </g>
   </g>
  </g>
 </g>
 <defs>
  <clipPath id="pe3c561a403">
   <rect x="42.190938" y="17.061433" width="893.1625" height="211.89328"/>
  </clipPath>
 </defs>
</svg>
