<?xml version="1.0" encoding="utf-8" standalone="no"?>
<!DOCTYPE svg PUBLIC "-//W3C//DTD SVG 1.1//EN"
  "http://www.w3.org/Graphics/SVG/1.1/DTD/svg11.dtd">
<svg xmlns:xlink="http://www.w3.org/1999/xlink" width="942.516875pt" height="265.54315pt" viewBox="0 0 942.516875 265.54315" xmlns="http://www.w3.org/2000/svg" version="1.1">
 <metadata>
  <rdf:RDF xmlns:dc="http://purl.org/dc/elements/1.1/" xmlns:cc="http://creativecommons.org/ns#" xmlns:rdf="http://www.w3.org/1999/02/22-rdf-syntax-ns#">
   <cc:Work>
    <dc:type rdf:resource="http://purl.org/dc/dcmitype/StillImage"/>
    <dc:date>2026-04-17T17:28:24.302454</dc:date>
    <dc:format>image/svg+xml</dc:format>
    <dc:creator>
     <cc:Agent>
      <dc:title>Matplotlib v3.10.8, https://matplotlib.org/</dc:title>
     </cc:Agent>
    </dc:creator>
   </cc:Work>
  </rdf:RDF>
 </metadata>
 <defs>
  <style type="text/css">*{stroke-linejoin: round; stroke-linecap: butt}</style>
 </defs>
 <g id="figure_1">
  <g id="patch_1">
   <path d="M 0 265.54315 
L 942.516875 265.54315 
L 942.516875 0 
L 0 0 
z
" style="fill: #ffffff"/>
  </g>
  <g id="axes_1">
   <g id="patch_2">
    <path d="M 33.604375 228.954713 
L 935.316875 228.954713 
L 935.316875 17.061433 
L 33.604375 17.061433 
z
" style="fill: #ffffff"/>
   </g>
   <g id="patch_3">
    <path d="M 33.604375 228.954713 
L 215.939343 228.954713 
L 215.939343 17.061433 
L 33.604375 17.061433 
z
" clip-path="url(#p094e0f37fb)" style="fill: #f8fafc; opacity: 0.45"/>
   </g>
   <g id="patch_4">
    <path d="M 215.939343 228.954713 
L 243.289589 228.954713 
L 243.289589 17.061433 
L 215.939343 17.061433 
z
" clip-path="url(#p094e0f37fb)" style="fill: #eff6ff; opacity: 0.45"/>
   </g>
   <g id="patch_5">
    <path d="M 243.289589 228.954713 
L 270.639834 228.954713 
L 270.639834 17.061433 
L 243.289589 17.061433 
z
" clip-path="url(#p094e0f37fb)" style="fill: #fef3c7; opacity: 0.45"/>
   </g>
   <g id="patch_6">
    <path d="M 270.639834 228.954713 
L 302.548453 228.954713 
L 302.548453 17.061433 
L 270.639834 17.061433 
z
" clip-path="url(#p094e0f37fb)" style="fill: #dcfce7; opacity: 0.45"/>
   </g>
   <g id="patch_7">
    <path d="M 302.548453 228.954713 
L 352.69057 228.954713 
L 352.69057 17.061433 
L 302.548453 17.061433 
z
" clip-path="url(#p094e0f37fb)" style="fill: #fee2e2; opacity: 0.45"/>
   </g>
   <g id="patch_8">
    <path d="M 352.69057 228.954713 
L 357.248944 228.954713 
L 357.248944 17.061433 
L 352.69057 17.061433 
z
" clip-path="url(#p094e0f37fb)" style="fill: #ede9fe; opacity: 0.45"/>
   </g>
   <g id="patch_9">
    <path d="M 357.248944 228.954713 
L 475.766673 228.954713 
L 475.766673 17.061433 
L 357.248944 17.061433 
z
" clip-path="url(#p094e0f37fb)" style="fill: #f8fafc; opacity: 0.45"/>
   </g>
   <g id="patch_10">
    <path d="M 475.766673 228.954713 
L 498.558544 228.954713 
L 498.558544 17.061433 
L 475.766673 17.061433 
z
" clip-path="url(#p094e0f37fb)" style="fill: #eff6ff; opacity: 0.45"/>
   </g>
   <g id="patch_11">
    <path d="M 498.558544 228.954713 
L 525.90879 228.954713 
L 525.90879 17.061433 
L 498.558544 17.061433 
z
" clip-path="url(#p094e0f37fb)" style="fill: #fef3c7; opacity: 0.45"/>
   </g>
   <g id="patch_12">
    <path d="M 525.90879 228.954713 
L 562.375783 228.954713 
L 562.375783 17.061433 
L 525.90879 17.061433 
z
" clip-path="url(#p094e0f37fb)" style="fill: #dcfce7; opacity: 0.45"/>
   </g>
   <g id="patch_13">
    <path d="M 562.375783 228.954713 
L 607.959525 228.954713 
L 607.959525 17.061433 
L 562.375783 17.061433 
z
" clip-path="url(#p094e0f37fb)" style="fill: #fee2e2; opacity: 0.45"/>
   </g>
   <g id="patch_14">
    <path d="M 607.959525 228.954713 
L 612.5179 228.954713 
L 612.5179 17.061433 
L 607.959525 17.061433 
z
" clip-path="url(#p094e0f37fb)" style="fill: #ede9fe; opacity: 0.45"/>
   </g>
   <g id="patch_15">
    <path d="M 612.5179 228.954713 
L 731.035629 228.954713 
L 731.035629 17.061433 
L 612.5179 17.061433 
z
" clip-path="url(#p094e0f37fb)" style="fill: #f8fafc; opacity: 0.45"/>
   </g>
   <g id="patch_16">
    <path d="M 731.035629 228.954713 
L 753.8275 228.954713 
L 753.8275 17.061433 
L 731.035629 17.061433 
z
" clip-path="url(#p094e0f37fb)" style="fill: #eff6ff; opacity: 0.45"/>
   </g>
   <g id="patch_17">
    <path d="M 753.8275 228.954713 
L 781.177745 228.954713 
L 781.177745 17.061433 
L 753.8275 17.061433 
z
" clip-path="url(#p094e0f37fb)" style="fill: #fef3c7; opacity: 0.45"/>
   </g>
   <g id="patch_18">
    <path d="M 781.177745 228.954713 
L 813.086365 228.954713 
L 813.086365 17.061433 
L 781.177745 17.061433 
z
" clip-path="url(#p094e0f37fb)" style="fill: #dcfce7; opacity: 0.45"/>
   </g>
   <g id="patch_19">
    <path d="M 813.086365 228.954713 
L 863.228481 228.954713 
L 863.228481 17.061433 
L 813.086365 17.061433 
z
" clip-path="url(#p094e0f37fb)" style="fill: #fee2e2; opacity: 0.45"/>
   </g>
   <g id="patch_20">
    <path d="M 863.228481 228.954713 
L 867.786855 228.954713 
L 867.786855 17.061433 
L 863.228481 17.061433 
z
" clip-path="url(#p094e0f37fb)" style="fill: #ede9fe; opacity: 0.45"/>
   </g>
   <g id="patch_21">
    <path d="M 867.786855 228.954713 
L 913.370598 228.954713 
L 913.370598 17.061433 
L 867.786855 17.061433 
z
" clip-path="url(#p094e0f37fb)" style="fill: #f8fafc; opacity: 0.45"/>
   </g>
   <g id="patch_22">
    <path d="M 913.370598 228.954713 
L 917.928972 228.954713 
L 917.928972 17.061433 
L 913.370598 17.061433 
z
" clip-path="url(#p094e0f37fb)" style="fill: #eff6ff; opacity: 0.45"/>
   </g>
   <g id="matplotlib.axis_1">
    <g id="xtick_1">
     <g id="line2d_1">
      <path d="M 33.604375 228.954713 
L 33.604375 17.061433 
" clip-path="url(#p094e0f37fb)" style="fill: none; stroke: #eef2f7; stroke-width: 0.55; stroke-linecap: square"/>
     </g>
     <g id="line2d_2">
      <defs>
       <path id="me1331b2b9c" d="M 0 0 
L 0 3.5 
" style="stroke: #000000; stroke-width: 0.8"/>
      </defs>
      <g>
       <use xlink:href="#me1331b2b9c" x="33.604375" y="228.954713" style="stroke: #000000; stroke-width: 0.8"/>
      </g>
     </g>
     <g id="text_1">
      <!-- 0 -->
      <g transform="translate(30.74125 242.793307) scale(0.09 -0.09)">
       <defs>
        <path id="DejaVuSans-30" d="M 2034 4250 
Q 1547 4250 1301 3770 
Q 1056 3291 1056 2328 
Q 1056 1369 1301 889 
Q 1547 409 2034 409 
Q 2525 409 2770 889 
Q 3016 1369 3016 2328 
Q 3016 3291 2770 3770 
Q 2525 4250 2034 4250 
z
M 2034 4750 
Q 2819 4750 3233 4129 
Q 3647 3509 3647 2328 
Q 3647 1150 3233 529 
Q 2819 -91 2034 -91 
Q 1250 -91 836 529 
Q 422 1150 422 2328 
Q 422 3509 836 4129 
Q 1250 4750 2034 4750 
z
" transform="scale(0.015625)"/>
       </defs>
       <use xlink:href="#DejaVuSans-30"/>
      </g>
     </g>
    </g>
    <g id="xtick_2">
     <g id="line2d_3">
      <path d="M 147.56373 228.954713 
L 147.56373 17.061433 
" clip-path="url(#p094e0f37fb)" style="fill: none; stroke: #eef2f7; stroke-width: 0.55; stroke-linecap: square"/>
     </g>
     <g id="line2d_4">
      <g>
       <use xlink:href="#me1331b2b9c" x="147.56373" y="228.954713" style="stroke: #000000; stroke-width: 0.8"/>
      </g>
     </g>
     <g id="text_2">
      <!-- 25 -->
      <g transform="translate(141.83748 242.793307) scale(0.09 -0.09)">
       <defs>
        <path id="DejaVuSans-32" d="M 1228 531 
L 3431 531 
L 3431 0 
L 469 0 
L 469 531 
Q 828 903 1448 1529 
Q 2069 2156 2228 2338 
Q 2531 2678 2651 2914 
Q 2772 3150 2772 3378 
Q 2772 3750 2511 3984 
Q 2250 4219 1831 4219 
Q 1534 4219 1204 4116 
Q 875 4013 500 3803 
L 500 4441 
Q 881 4594 1212 4672 
Q 1544 4750 1819 4750 
Q 2544 4750 2975 4387 
Q 3406 4025 3406 3419 
Q 3406 3131 3298 2873 
Q 3191 2616 2906 2266 
Q 2828 2175 2409 1742 
Q 1991 1309 1228 531 
z
" transform="scale(0.015625)"/>
        <path id="DejaVuSans-35" d="M 691 4666 
L 3169 4666 
L 3169 4134 
L 1269 4134 
L 1269 2991 
Q 1406 3038 1543 3061 
Q 1681 3084 1819 3084 
Q 2600 3084 3056 2656 
Q 3513 2228 3513 1497 
Q 3513 744 3044 326 
Q 2575 -91 1722 -91 
Q 1428 -91 1123 -41 
Q 819 9 494 109 
L 494 744 
Q 775 591 1075 516 
Q 1375 441 1709 441 
Q 2250 441 2565 725 
Q 2881 1009 2881 1497 
Q 2881 1984 2565 2268 
Q 2250 2553 1709 2553 
Q 1456 2553 1204 2497 
Q 953 2441 691 2322 
L 691 4666 
z
" transform="scale(0.015625)"/>
       </defs>
       <use xlink:href="#DejaVuSans-32"/>
       <use xlink:href="#DejaVuSans-35" transform="translate(63.623047 0)"/>
      </g>
     </g>
    </g>
    <g id="xtick_3">
     <g id="line2d_5">
      <path d="M 261.523086 228.954713 
L 261.523086 17.061433 
" clip-path="url(#p094e0f37fb)" style="fill: none; stroke: #eef2f7; stroke-width: 0.55; stroke-linecap: square"/>
     </g>
     <g id="line2d_6">
      <g>
       <use xlink:href="#me1331b2b9c" x="261.523086" y="228.954713" style="stroke: #000000; stroke-width: 0.8"/>
      </g>
     </g>
     <g id="text_3">
      <!-- 50 -->
      <g transform="translate(255.796836 242.793307) scale(0.09 -0.09)">
       <use xlink:href="#DejaVuSans-35"/>
       <use xlink:href="#DejaVuSans-30" transform="translate(63.623047 0)"/>
      </g>
     </g>
    </g>
    <g id="xtick_4">
     <g id="line2d_7">
      <path d="M 375.482441 228.954713 
L 375.482441 17.061433 
" clip-path="url(#p094e0f37fb)" style="fill: none; stroke: #eef2f7; stroke-width: 0.55; stroke-linecap: square"/>
     </g>
     <g id="line2d_8">
      <g>
       <use xlink:href="#me1331b2b9c" x="375.482441" y="228.954713" style="stroke: #000000; stroke-width: 0.8"/>
      </g>
     </g>
     <g id="text_4">
      <!-- 75 -->
      <g transform="translate(369.756191 242.793307) scale(0.09 -0.09)">
       <defs>
        <path id="DejaVuSans-37" d="M 525 4666 
L 3525 4666 
L 3525 4397 
L 1831 0 
L 1172 0 
L 2766 4134 
L 525 4134 
L 525 4666 
z
" transform="scale(0.015625)"/>
       </defs>
       <use xlink:href="#DejaVuSans-37"/>
       <use xlink:href="#DejaVuSans-35" transform="translate(63.623047 0)"/>
      </g>
     </g>
    </g>
    <g id="xtick_5">
     <g id="line2d_9">
      <path d="M 489.441796 228.954713 
L 489.441796 17.061433 
" clip-path="url(#p094e0f37fb)" style="fill: none; stroke: #eef2f7; stroke-width: 0.55; stroke-linecap: square"/>
     </g>
     <g id="line2d_10">
      <g>
       <use xlink:href="#me1331b2b9c" x="489.441796" y="228.954713" style="stroke: #000000; stroke-width: 0.8"/>
      </g>
     </g>
     <g id="text_5">
      <!-- 100 -->
      <g transform="translate(480.852421 242.793307) scale(0.09 -0.09)">
       <defs>
        <path id="DejaVuSans-31" d="M 794 531 
L 1825 531 
L 1825 4091 
L 703 3866 
L 703 4441 
L 1819 4666 
L 2450 4666 
L 2450 531 
L 3481 531 
L 3481 0 
L 794 0 
L 794 531 
z
" transform="scale(0.015625)"/>
       </defs>
       <use xlink:href="#DejaVuSans-31"/>
       <use xlink:href="#DejaVuSans-30" transform="translate(63.623047 0)"/>
       <use xlink:href="#DejaVuSans-30" transform="translate(127.246094 0)"/>
      </g>
     </g>
    </g>
    <g id="xtick_6">
     <g id="line2d_11">
      <path d="M 603.401151 228.954713 
L 603.401151 17.061433 
" clip-path="url(#p094e0f37fb)" style="fill: none; stroke: #eef2f7; stroke-width: 0.55; stroke-linecap: square"/>
     </g>
     <g id="line2d_12">
      <g>
       <use xlink:href="#me1331b2b9c" x="603.401151" y="228.954713" style="stroke: #000000; stroke-width: 0.8"/>
      </g>
     </g>
     <g id="text_6">
      <!-- 125 -->
      <g transform="translate(594.811776 242.793307) scale(0.09 -0.09)">
       <use xlink:href="#DejaVuSans-31"/>
       <use xlink:href="#DejaVuSans-32" transform="translate(63.623047 0)"/>
       <use xlink:href="#DejaVuSans-35" transform="translate(127.246094 0)"/>
      </g>
     </g>
    </g>
    <g id="xtick_7">
     <g id="line2d_13">
      <path d="M 717.360507 228.954713 
L 717.360507 17.061433 
" clip-path="url(#p094e0f37fb)" style="fill: none; stroke: #eef2f7; stroke-width: 0.55; stroke-linecap: square"/>
     </g>
     <g id="line2d_14">
      <g>
       <use xlink:href="#me1331b2b9c" x="717.360507" y="228.954713" style="stroke: #000000; stroke-width: 0.8"/>
      </g>
     </g>
     <g id="text_7">
      <!-- 150 -->
      <g transform="translate(708.771132 242.793307) scale(0.09 -0.09)">
       <use xlink:href="#DejaVuSans-31"/>
       <use xlink:href="#DejaVuSans-35" transform="translate(63.623047 0)"/>
       <use xlink:href="#DejaVuSans-30" transform="translate(127.246094 0)"/>
      </g>
     </g>
    </g>
    <g id="xtick_8">
     <g id="line2d_15">
      <path d="M 831.319862 228.954713 
L 831.319862 17.061433 
" clip-path="url(#p094e0f37fb)" style="fill: none; stroke: #eef2f7; stroke-width: 0.55; stroke-linecap: square"/>
     </g>
     <g id="line2d_16">
      <g>
       <use xlink:href="#me1331b2b9c" x="831.319862" y="228.954713" style="stroke: #000000; stroke-width: 0.8"/>
      </g>
     </g>
     <g id="text_8">
      <!-- 175 -->
      <g transform="translate(822.730487 242.793307) scale(0.09 -0.09)">
       <use xlink:href="#DejaVuSans-31"/>
       <use xlink:href="#DejaVuSans-37" transform="translate(63.623047 0)"/>
       <use xlink:href="#DejaVuSans-35" transform="translate(127.246094 0)"/>
      </g>
     </g>
    </g>
    <g id="text_9">
     <!-- Minutes since session start -->
     <g transform="translate(416.870781 256.263463) scale(0.1 -0.1)">
      <defs>
       <path id="DejaVuSans-4d" d="M 628 4666 
L 1569 4666 
L 2759 1491 
L 3956 4666 
L 4897 4666 
L 4897 0 
L 4281 0 
L 4281 4097 
L 3078 897 
L 2444 897 
L 1241 4097 
L 1241 0 
L 628 0 
L 628 4666 
z
" transform="scale(0.015625)"/>
       <path id="DejaVuSans-69" d="M 603 3500 
L 1178 3500 
L 1178 0 
L 603 0 
L 603 3500 
z
M 603 4863 
L 1178 4863 
L 1178 4134 
L 603 4134 
L 603 4863 
z
" transform="scale(0.015625)"/>
       <path id="DejaVuSans-6e" d="M 3513 2113 
L 3513 0 
L 2938 0 
L 2938 2094 
Q 2938 2591 2744 2837 
Q 2550 3084 2163 3084 
Q 1697 3084 1428 2787 
Q 1159 2491 1159 1978 
L 1159 0 
L 581 0 
L 581 3500 
L 1159 3500 
L 1159 2956 
Q 1366 3272 1645 3428 
Q 1925 3584 2291 3584 
Q 2894 3584 3203 3211 
Q 3513 2838 3513 2113 
z
" transform="scale(0.015625)"/>
       <path id="DejaVuSans-75" d="M 544 1381 
L 544 3500 
L 1119 3500 
L 1119 1403 
Q 1119 906 1312 657 
Q 1506 409 1894 409 
Q 2359 409 2629 706 
Q 2900 1003 2900 1516 
L 2900 3500 
L 3475 3500 
L 3475 0 
L 2900 0 
L 2900 538 
Q 2691 219 2414 64 
Q 2138 -91 1772 -91 
Q 1169 -91 856 284 
Q 544 659 544 1381 
z
M 1991 3584 
L 1991 3584 
z
" transform="scale(0.015625)"/>
       <path id="DejaVuSans-74" d="M 1172 4494 
L 1172 3500 
L 2356 3500 
L 2356 3053 
L 1172 3053 
L 1172 1153 
Q 1172 725 1289 603 
Q 1406 481 1766 481 
L 2356 481 
L 2356 0 
L 1766 0 
Q 1100 0 847 248 
Q 594 497 594 1153 
L 594 3053 
L 172 3053 
L 172 3500 
L 594 3500 
L 594 4494 
L 1172 4494 
z
" transform="scale(0.015625)"/>
       <path id="DejaVuSans-65" d="M 3597 1894 
L 3597 1613 
L 953 1613 
Q 991 1019 1311 708 
Q 1631 397 2203 397 
Q 2534 397 2845 478 
Q 3156 559 3463 722 
L 3463 178 
Q 3153 47 2828 -22 
Q 2503 -91 2169 -91 
Q 1331 -91 842 396 
Q 353 884 353 1716 
Q 353 2575 817 3079 
Q 1281 3584 2069 3584 
Q 2775 3584 3186 3129 
Q 3597 2675 3597 1894 
z
M 3022 2063 
Q 3016 2534 2758 2815 
Q 2500 3097 2075 3097 
Q 1594 3097 1305 2825 
Q 1016 2553 972 2059 
L 3022 2063 
z
" transform="scale(0.015625)"/>
       <path id="DejaVuSans-73" d="M 2834 3397 
L 2834 2853 
Q 2591 2978 2328 3040 
Q 2066 3103 1784 3103 
Q 1356 3103 1142 2972 
Q 928 2841 928 2578 
Q 928 2378 1081 2264 
Q 1234 2150 1697 2047 
L 1894 2003 
Q 2506 1872 2764 1633 
Q 3022 1394 3022 966 
Q 3022 478 2636 193 
Q 2250 -91 1575 -91 
Q 1294 -91 989 -36 
Q 684 19 347 128 
L 347 722 
Q 666 556 975 473 
Q 1284 391 1588 391 
Q 1994 391 2212 530 
Q 2431 669 2431 922 
Q 2431 1156 2273 1281 
Q 2116 1406 1581 1522 
L 1381 1569 
Q 847 1681 609 1914 
Q 372 2147 372 2553 
Q 372 3047 722 3315 
Q 1072 3584 1716 3584 
Q 2034 3584 2315 3537 
Q 2597 3491 2834 3397 
z
" transform="scale(0.015625)"/>
       <path id="DejaVuSans-20" transform="scale(0.015625)"/>
       <path id="DejaVuSans-63" d="M 3122 3366 
L 3122 2828 
Q 2878 2963 2633 3030 
Q 2388 3097 2138 3097 
Q 1578 3097 1268 2742 
Q 959 2388 959 1747 
Q 959 1106 1268 751 
Q 1578 397 2138 397 
Q 2388 397 2633 464 
Q 2878 531 3122 666 
L 3122 134 
Q 2881 22 2623 -34 
Q 2366 -91 2075 -91 
Q 1284 -91 818 406 
Q 353 903 353 1747 
Q 353 2603 823 3093 
Q 1294 3584 2113 3584 
Q 2378 3584 2631 3529 
Q 2884 3475 3122 3366 
z
" transform="scale(0.015625)"/>
       <path id="DejaVuSans-6f" d="M 1959 3097 
Q 1497 3097 1228 2736 
Q 959 2375 959 1747 
Q 959 1119 1226 758 
Q 1494 397 1959 397 
Q 2419 397 2687 759 
Q 2956 1122 2956 1747 
Q 2956 2369 2687 2733 
Q 2419 3097 1959 3097 
z
M 1959 3584 
Q 2709 3584 3137 3096 
Q 3566 2609 3566 1747 
Q 3566 888 3137 398 
Q 2709 -91 1959 -91 
Q 1206 -91 779 398 
Q 353 888 353 1747 
Q 353 2609 779 3096 
Q 1206 3584 1959 3584 
z
" transform="scale(0.015625)"/>
       <path id="DejaVuSans-61" d="M 2194 1759 
Q 1497 1759 1228 1600 
Q 959 1441 959 1056 
Q 959 750 1161 570 
Q 1363 391 1709 391 
Q 2188 391 2477 730 
Q 2766 1069 2766 1631 
L 2766 1759 
L 2194 1759 
z
M 3341 1997 
L 3341 0 
L 2766 0 
L 2766 531 
Q 2569 213 2275 61 
Q 1981 -91 1556 -91 
Q 1019 -91 701 211 
Q 384 513 384 1019 
Q 384 1609 779 1909 
Q 1175 2209 1959 2209 
L 2766 2209 
L 2766 2266 
Q 2766 2663 2505 2880 
Q 2244 3097 1772 3097 
Q 1472 3097 1187 3025 
Q 903 2953 641 2809 
L 641 3341 
Q 956 3463 1253 3523 
Q 1550 3584 1831 3584 
Q 2591 3584 2966 3190 
Q 3341 2797 3341 1997 
z
" transform="scale(0.015625)"/>
       <path id="DejaVuSans-72" d="M 2631 2963 
Q 2534 3019 2420 3045 
Q 2306 3072 2169 3072 
Q 1681 3072 1420 2755 
Q 1159 2438 1159 1844 
L 1159 0 
L 581 0 
L 581 3500 
L 1159 3500 
L 1159 2956 
Q 1341 3275 1631 3429 
Q 1922 3584 2338 3584 
Q 2397 3584 2469 3576 
Q 2541 3569 2628 3553 
L 2631 2963 
z
" transform="scale(0.015625)"/>
      </defs>
      <use xlink:href="#DejaVuSans-4d"/>
      <use xlink:href="#DejaVuSans-69" transform="translate(86.279297 0)"/>
      <use xlink:href="#DejaVuSans-6e" transform="translate(114.0625 0)"/>
      <use xlink:href="#DejaVuSans-75" transform="translate(177.441406 0)"/>
      <use xlink:href="#DejaVuSans-74" transform="translate(240.820312 0)"/>
      <use xlink:href="#DejaVuSans-65" transform="translate(280.029297 0)"/>
      <use xlink:href="#DejaVuSans-73" transform="translate(341.552734 0)"/>
      <use xlink:href="#DejaVuSans-20" transform="translate(393.652344 0)"/>
      <use xlink:href="#DejaVuSans-73" transform="translate(425.439453 0)"/>
      <use xlink:href="#DejaVuSans-69" transform="translate(477.539062 0)"/>
      <use xlink:href="#DejaVuSans-6e" transform="translate(505.322266 0)"/>
      <use xlink:href="#DejaVuSans-63" transform="translate(568.701172 0)"/>
      <use xlink:href="#DejaVuSans-65" transform="translate(623.681641 0)"/>
      <use xlink:href="#DejaVuSans-20" transform="translate(685.205078 0)"/>
      <use xlink:href="#DejaVuSans-73" transform="translate(716.992188 0)"/>
      <use xlink:href="#DejaVuSans-65" transform="translate(769.091797 0)"/>
      <use xlink:href="#DejaVuSans-73" transform="translate(830.615234 0)"/>
      <use xlink:href="#DejaVuSans-73" transform="translate(882.714844 0)"/>
      <use xlink:href="#DejaVuSans-69" transform="translate(934.814453 0)"/>
      <use xlink:href="#DejaVuSans-6f" transform="translate(962.597656 0)"/>
      <use xlink:href="#DejaVuSans-6e" transform="translate(1023.779297 0)"/>
      <use xlink:href="#DejaVuSans-20" transform="translate(1087.158203 0)"/>
      <use xlink:href="#DejaVuSans-73" transform="translate(1118.945312 0)"/>
      <use xlink:href="#DejaVuSans-74" transform="translate(1171.044922 0)"/>
      <use xlink:href="#DejaVuSans-61" transform="translate(1210.253906 0)"/>
      <use xlink:href="#DejaVuSans-72" transform="translate(1271.533203 0)"/>
      <use xlink:href="#DejaVuSans-74" transform="translate(1312.646484 0)"/>
     </g>
    </g>
   </g>
   <g id="matplotlib.axis_2">
    <g id="ytick_1">
     <g id="line2d_17">
      <path d="M 33.604375 227.39976 
L 935.316875 227.39976 
" clip-path="url(#p094e0f37fb)" style="fill: none; stroke: #eef2f7; stroke-opacity: 0.25; stroke-width: 0.55; stroke-linecap: square"/>
     </g>
     <g id="line2d_18">
      <defs>
       <path id="m3296afecc6" d="M 0 0 
L -3.5 0 
" style="stroke: #000000; stroke-width: 0.8"/>
      </defs>
      <g>
       <use xlink:href="#m3296afecc6" x="33.604375" y="227.39976" style="stroke: #000000; stroke-width: 0.8"/>
      </g>
     </g>
     <g id="text_10">
      <!-- 1 -->
      <g transform="translate(20.878125 230.819057) scale(0.09 -0.09)">
       <use xlink:href="#DejaVuSans-31"/>
      </g>
     </g>
    </g>
    <g id="ytick_2">
     <g id="line2d_19">
      <path d="M 33.604375 196.198059 
L 935.316875 196.198059 
" clip-path="url(#p094e0f37fb)" style="fill: none; stroke: #eef2f7; stroke-opacity: 0.25; stroke-width: 0.55; stroke-linecap: square"/>
     </g>
     <g id="line2d_20">
      <g>
       <use xlink:href="#m3296afecc6" x="33.604375" y="196.198059" style="stroke: #000000; stroke-width: 0.8"/>
      </g>
     </g>
     <g id="text_11">
      <!-- 2 -->
      <g transform="translate(20.878125 199.617356) scale(0.09 -0.09)">
       <use xlink:href="#DejaVuSans-32"/>
      </g>
     </g>
    </g>
    <g id="ytick_3">
     <g id="line2d_21">
      <path d="M 33.604375 164.996358 
L 935.316875 164.996358 
" clip-path="url(#p094e0f37fb)" style="fill: none; stroke: #eef2f7; stroke-opacity: 0.25; stroke-width: 0.55; stroke-linecap: square"/>
     </g>
     <g id="line2d_22">
      <g>
       <use xlink:href="#m3296afecc6" x="33.604375" y="164.996358" style="stroke: #000000; stroke-width: 0.8"/>
      </g>
     </g>
     <g id="text_12">
      <!-- 3 -->
      <g transform="translate(20.878125 168.415655) scale(0.09 -0.09)">
       <defs>
        <path id="DejaVuSans-33" d="M 2597 2516 
Q 3050 2419 3304 2112 
Q 3559 1806 3559 1356 
Q 3559 666 3084 287 
Q 2609 -91 1734 -91 
Q 1441 -91 1130 -33 
Q 819 25 488 141 
L 488 750 
Q 750 597 1062 519 
Q 1375 441 1716 441 
Q 2309 441 2620 675 
Q 2931 909 2931 1356 
Q 2931 1769 2642 2001 
Q 2353 2234 1838 2234 
L 1294 2234 
L 1294 2753 
L 1863 2753 
Q 2328 2753 2575 2939 
Q 2822 3125 2822 3475 
Q 2822 3834 2567 4026 
Q 2313 4219 1838 4219 
Q 1578 4219 1281 4162 
Q 984 4106 628 3988 
L 628 4550 
Q 988 4650 1302 4700 
Q 1616 4750 1894 4750 
Q 2613 4750 3031 4423 
Q 3450 4097 3450 3541 
Q 3450 3153 3228 2886 
Q 3006 2619 2597 2516 
z
" transform="scale(0.015625)"/>
       </defs>
       <use xlink:href="#DejaVuSans-33"/>
      </g>
     </g>
    </g>
    <g id="ytick_4">
     <g id="line2d_23">
      <path d="M 33.604375 133.794657 
L 935.316875 133.794657 
" clip-path="url(#p094e0f37fb)" style="fill: none; stroke: #eef2f7; stroke-opacity: 0.25; stroke-width: 0.55; stroke-linecap: square"/>
     </g>
     <g id="line2d_24">
      <g>
       <use xlink:href="#m3296afecc6" x="33.604375" y="133.794657" style="stroke: #000000; stroke-width: 0.8"/>
      </g>
     </g>
     <g id="text_13">
      <!-- 4 -->
      <g transform="translate(20.878125 137.213954) scale(0.09 -0.09)">
       <defs>
        <path id="DejaVuSans-34" d="M 2419 4116 
L 825 1625 
L 2419 1625 
L 2419 4116 
z
M 2253 4666 
L 3047 4666 
L 3047 1625 
L 3713 1625 
L 3713 1100 
L 3047 1100 
L 3047 0 
L 2419 0 
L 2419 1100 
L 313 1100 
L 313 1709 
L 2253 4666 
z
" transform="scale(0.015625)"/>
       </defs>
       <use xlink:href="#DejaVuSans-34"/>
      </g>
     </g>
    </g>
    <g id="ytick_5">
     <g id="line2d_25">
      <path d="M 33.604375 102.592956 
L 935.316875 102.592956 
" clip-path="url(#p094e0f37fb)" style="fill: none; stroke: #eef2f7; stroke-opacity: 0.25; stroke-width: 0.55; stroke-linecap: square"/>
     </g>
     <g id="line2d_26">
      <g>
       <use xlink:href="#m3296afecc6" x="33.604375" y="102.592956" style="stroke: #000000; stroke-width: 0.8"/>
      </g>
     </g>
     <g id="text_14">
      <!-- 5 -->
      <g transform="translate(20.878125 106.012253) scale(0.09 -0.09)">
       <use xlink:href="#DejaVuSans-35"/>
      </g>
     </g>
    </g>
    <g id="ytick_6">
     <g id="line2d_27">
      <path d="M 33.604375 71.391255 
L 935.316875 71.391255 
" clip-path="url(#p094e0f37fb)" style="fill: none; stroke: #eef2f7; stroke-opacity: 0.25; stroke-width: 0.55; stroke-linecap: square"/>
     </g>
     <g id="line2d_28">
      <g>
       <use xlink:href="#m3296afecc6" x="33.604375" y="71.391255" style="stroke: #000000; stroke-width: 0.8"/>
      </g>
     </g>
     <g id="text_15">
      <!-- 6 -->
      <g transform="translate(20.878125 74.810551) scale(0.09 -0.09)">
       <defs>
        <path id="DejaVuSans-36" d="M 2113 2584 
Q 1688 2584 1439 2293 
Q 1191 2003 1191 1497 
Q 1191 994 1439 701 
Q 1688 409 2113 409 
Q 2538 409 2786 701 
Q 3034 994 3034 1497 
Q 3034 2003 2786 2293 
Q 2538 2584 2113 2584 
z
M 3366 4563 
L 3366 3988 
Q 3128 4100 2886 4159 
Q 2644 4219 2406 4219 
Q 1781 4219 1451 3797 
Q 1122 3375 1075 2522 
Q 1259 2794 1537 2939 
Q 1816 3084 2150 3084 
Q 2853 3084 3261 2657 
Q 3669 2231 3669 1497 
Q 3669 778 3244 343 
Q 2819 -91 2113 -91 
Q 1303 -91 875 529 
Q 447 1150 447 2328 
Q 447 3434 972 4092 
Q 1497 4750 2381 4750 
Q 2619 4750 2861 4703 
Q 3103 4656 3366 4563 
z
" transform="scale(0.015625)"/>
       </defs>
       <use xlink:href="#DejaVuSans-36"/>
      </g>
     </g>
    </g>
    <g id="ytick_7">
     <g id="line2d_29">
      <path d="M 33.604375 40.189553 
L 935.316875 40.189553 
" clip-path="url(#p094e0f37fb)" style="fill: none; stroke: #eef2f7; stroke-opacity: 0.25; stroke-width: 0.55; stroke-linecap: square"/>
     </g>
     <g id="line2d_30">
      <g>
       <use xlink:href="#m3296afecc6" x="33.604375" y="40.189553" style="stroke: #000000; stroke-width: 0.8"/>
      </g>
     </g>
     <g id="text_16">
      <!-- 7 -->
      <g transform="translate(20.878125 43.60885) scale(0.09 -0.09)">
       <use xlink:href="#DejaVuSans-37"/>
      </g>
     </g>
    </g>
    <g id="text_17">
     <!-- EDA (microsiemens) -->
     <g transform="translate(14.798438 173.642448) rotate(-90) scale(0.1 -0.1)">
      <defs>
       <path id="DejaVuSans-45" d="M 628 4666 
L 3578 4666 
L 3578 4134 
L 1259 4134 
L 1259 2753 
L 3481 2753 
L 3481 2222 
L 1259 2222 
L 1259 531 
L 3634 531 
L 3634 0 
L 628 0 
L 628 4666 
z
" transform="scale(0.015625)"/>
       <path id="DejaVuSans-44" d="M 1259 4147 
L 1259 519 
L 2022 519 
Q 2988 519 3436 956 
Q 3884 1394 3884 2338 
Q 3884 3275 3436 3711 
Q 2988 4147 2022 4147 
L 1259 4147 
z
M 628 4666 
L 1925 4666 
Q 3281 4666 3915 4102 
Q 4550 3538 4550 2338 
Q 4550 1131 3912 565 
Q 3275 0 1925 0 
L 628 0 
L 628 4666 
z
" transform="scale(0.015625)"/>
       <path id="DejaVuSans-41" d="M 2188 4044 
L 1331 1722 
L 3047 1722 
L 2188 4044 
z
M 1831 4666 
L 2547 4666 
L 4325 0 
L 3669 0 
L 3244 1197 
L 1141 1197 
L 716 0 
L 50 0 
L 1831 4666 
z
" transform="scale(0.015625)"/>
       <path id="DejaVuSans-28" d="M 1984 4856 
Q 1566 4138 1362 3434 
Q 1159 2731 1159 2009 
Q 1159 1288 1364 580 
Q 1569 -128 1984 -844 
L 1484 -844 
Q 1016 -109 783 600 
Q 550 1309 550 2009 
Q 550 2706 781 3412 
Q 1013 4119 1484 4856 
L 1984 4856 
z
" transform="scale(0.015625)"/>
       <path id="DejaVuSans-6d" d="M 3328 2828 
Q 3544 3216 3844 3400 
Q 4144 3584 4550 3584 
Q 5097 3584 5394 3201 
Q 5691 2819 5691 2113 
L 5691 0 
L 5113 0 
L 5113 2094 
Q 5113 2597 4934 2840 
Q 4756 3084 4391 3084 
Q 3944 3084 3684 2787 
Q 3425 2491 3425 1978 
L 3425 0 
L 2847 0 
L 2847 2094 
Q 2847 2600 2669 2842 
Q 2491 3084 2119 3084 
Q 1678 3084 1418 2786 
Q 1159 2488 1159 1978 
L 1159 0 
L 581 0 
L 581 3500 
L 1159 3500 
L 1159 2956 
Q 1356 3278 1631 3431 
Q 1906 3584 2284 3584 
Q 2666 3584 2933 3390 
Q 3200 3197 3328 2828 
z
" transform="scale(0.015625)"/>
       <path id="DejaVuSans-29" d="M 513 4856 
L 1013 4856 
Q 1481 4119 1714 3412 
Q 1947 2706 1947 2009 
Q 1947 1309 1714 600 
Q 1481 -109 1013 -844 
L 513 -844 
Q 928 -128 1133 580 
Q 1338 1288 1338 2009 
Q 1338 2731 1133 3434 
Q 928 4138 513 4856 
z
" transform="scale(0.015625)"/>
      </defs>
      <use xlink:href="#DejaVuSans-45"/>
      <use xlink:href="#DejaVuSans-44" transform="translate(63.183594 0)"/>
      <use xlink:href="#DejaVuSans-41" transform="translate(138.435547 0)"/>
      <use xlink:href="#DejaVuSans-20" transform="translate(206.84375 0)"/>
      <use xlink:href="#DejaVuSans-28" transform="translate(238.630859 0)"/>
      <use xlink:href="#DejaVuSans-6d" transform="translate(277.644531 0)"/>
      <use xlink:href="#DejaVuSans-69" transform="translate(375.056641 0)"/>
      <use xlink:href="#DejaVuSans-63" transform="translate(402.839844 0)"/>
      <use xlink:href="#DejaVuSans-72" transform="translate(457.820312 0)"/>
      <use xlink:href="#DejaVuSans-6f" transform="translate(496.683594 0)"/>
      <use xlink:href="#DejaVuSans-73" transform="translate(557.865234 0)"/>
      <use xlink:href="#DejaVuSans-69" transform="translate(609.964844 0)"/>
      <use xlink:href="#DejaVuSans-65" transform="translate(637.748047 0)"/>
      <use xlink:href="#DejaVuSans-6d" transform="translate(699.271484 0)"/>
      <use xlink:href="#DejaVuSans-65" transform="translate(796.683594 0)"/>
      <use xlink:href="#DejaVuSans-6e" transform="translate(858.207031 0)"/>
      <use xlink:href="#DejaVuSans-73" transform="translate(921.585938 0)"/>
      <use xlink:href="#DejaVuSans-29" transform="translate(973.685547 0)"/>
     </g>
    </g>
   </g>
   <g id="line2d_31">
    <path d="M 33.604907 151.240776 
L 33.899682 142.052187 
L 34.194457 140.909581 
L 34.489231 142.385421 
L 34.784006 132.530052 
L 35.078781 140.528608 
L 35.373556 141.242815 
L 35.668331 145.19451 
L 36.257881 95.013438 
L 36.552655 108.43953 
L 36.84743 111.915088 
L 37.142205 96.156045 
L 37.43698 98.488996 
L 38.02653 108.486957 
L 38.321305 116.771321 
L 38.61608 120.675278 
L 38.910854 111.105716 
L 39.205629 114.533535 
L 39.500404 111.248308 
L 40.089954 110.010536 
L 40.384729 115.533237 
L 40.679504 118.865891 
L 40.974278 111.153142 
L 41.269053 107.249186 
L 41.563828 109.582137 
L 41.858603 90.109467 
L 42.153378 61.829181 
L 42.742928 90.347536 
L 43.037703 90.062041 
L 43.332477 86.63391 
L 43.627252 98.108023 
L 43.922027 102.297788 
L 44.216802 100.72647 
L 44.511577 87.348117 
L 44.806352 96.203783 
L 45.690676 111.153142 
L 45.985451 109.582137 
L 46.280226 110.677004 
L 46.575001 110.438936 
L 46.869776 112.200584 
L 47.164551 116.247444 
L 47.459325 117.19972 
L 47.7541 121.05625 
L 48.048875 119.627837 
L 48.34365 115.295168 
L 48.638425 114.485796 
L 48.9332 119.532671 
L 49.227975 116.866486 
L 49.52275 86.63391 
L 50.112299 97.393816 
L 50.407074 105.820772 
L 50.701849 103.535559 
L 50.996624 100.012575 
L 51.291399 87.681351 
L 51.586174 98.917395 
L 51.880948 102.726187 
L 52.175723 103.059421 
L 52.470498 105.106877 
L 52.765273 101.964553 
L 53.060048 90.347536 
L 53.649598 95.775072 
L 53.944373 101.631319 
L 54.239147 105.106877 
L 54.533922 104.011697 
L 54.828697 106.201744 
L 55.123472 106.630144 
L 55.418247 85.348712 
L 56.302571 105.344946 
L 56.597346 83.587063 
L 56.892121 84.063201 
L 57.186896 82.396719 
L 57.481671 92.490157 
L 57.776446 92.109184 
L 58.071221 96.775087 
L 58.365996 95.870549 
L 58.66077 98.250927 
L 58.955545 97.822528 
L 59.25032 99.964836 
L 59.545095 103.821367 
L 59.83987 100.060002 
L 60.134645 107.77275 
L 60.724194 113.390928 
L 61.018969 101.964553 
L 61.313744 109.96311 
L 61.608519 95.870549 
L 61.903294 104.678165 
L 62.198069 104.297505 
L 62.492844 92.061446 
L 63.082393 83.206091 
L 63.377168 92.394992 
L 63.671943 88.205227 
L 63.966718 87.157786 
L 64.261493 93.394694 
L 64.556268 95.775072 
L 64.851043 78.302431 
L 65.145817 89.776233 
L 65.440592 91.58562 
L 65.735367 98.203188 
L 66.030142 76.302714 
L 66.324917 72.874895 
L 66.619692 77.112086 
L 66.914467 77.112086 
L 67.209241 84.634505 
L 67.798791 38.548032 
L 68.093566 64.44794 
L 68.388341 67.923185 
L 69.272666 92.775652 
L 69.862215 77.302417 
L 70.15699 79.397299 
L 70.74654 88.919434 
L 71.041315 81.301851 
L 71.33609 79.445038 
L 71.925639 89.681068 
L 72.809964 99.583864 
L 73.104739 98.203188 
L 73.694289 70.922605 
L 73.989063 78.635666 
L 74.283838 52.735757 
L 74.578613 51.450247 
L 74.873388 68.399323 
L 75.168163 68.399323 
L 75.757713 86.681648 
L 76.347262 60.734314 
L 76.642037 60.305602 
L 76.936812 66.066684 
L 77.231587 74.064928 
L 77.526362 75.921742 
L 77.821137 82.968022 
L 78.115912 85.824537 
L 78.410686 62.638553 
L 78.705461 74.302997 
L 79.295011 72.255854 
L 79.589786 79.730533 
L 79.884561 83.253829 
L 80.179336 38.548032 
L 80.768885 61.829181 
L 81.358435 76.731114 
L 81.947985 86.63391 
L 82.832309 97.822528 
L 83.421859 102.583283 
L 83.716634 106.439813 
L 84.011409 108.106296 
L 84.306184 110.724743 
L 84.600959 109.201164 
L 84.895733 112.962529 
L 85.780058 119.10396 
L 86.074833 120.38947 
L 86.369608 122.579517 
L 86.664383 105.0114 
L 86.959157 54.211598 
L 87.548707 74.779135 
L 87.843482 72.541349 
L 88.433032 90.443013 
L 89.022582 47.451125 
L 89.317356 63.019526 
L 89.612131 70.780013 
L 89.906906 69.11353 
L 90.201681 66.018946 
L 90.791231 71.446482 
L 91.086006 67.542525 
L 91.38078 72.11295 
L 91.675555 48.879227 
L 91.97033 62.162415 
L 92.265105 45.879808 
L 92.55988 47.784359 
L 92.854655 26.692946 
L 93.14943 41.166479 
L 93.444205 38.071894 
L 93.738979 41.975851 
L 94.033754 44.308802 
L 94.328529 40.92841 
L 94.918079 59.829464 
L 95.212854 63.019526 
L 95.802403 74.064928 
L 97.276278 88.919434 
L 97.571053 80.111506 
L 97.865828 86.729387 
L 98.160602 90.49044 
L 98.455377 92.394992 
L 98.750152 89.966875 
L 99.044927 80.492479 
L 99.634477 92.014019 
L 99.929252 88.538461 
L 100.224026 90.109467 
L 100.518801 81.73025 
L 100.813576 89.681068 
L 101.108351 89.823972 
L 101.403126 93.156625 
L 101.697901 85.872276 
L 101.992676 93.06146 
L 102.582225 89.300095 
L 102.877 94.9657 
L 103.171775 89.300095 
L 103.46655 88.443296 
L 103.761325 81.635085 
L 104.645649 95.441838 
L 104.940424 95.489576 
L 105.235199 99.203203 
L 105.529974 98.584161 
L 105.824749 95.489576 
L 106.414299 102.250049 
L 106.709073 96.537018 
L 107.003848 101.202608 
L 107.298623 93.204364 
L 107.593398 89.442999 
L 107.888173 79.825698 
L 108.182948 78.683092 
L 108.477723 73.017487 
L 108.772498 84.015463 
L 109.067272 88.871696 
L 109.362047 89.776233 
L 109.656822 91.537881 
L 109.951597 89.728806 
L 110.541147 97.060582 
L 110.835922 96.203783 
L 111.130696 97.774789 
L 111.425471 87.776828 
L 111.720246 92.394992 
L 112.015021 88.681365 
L 112.604571 95.489576 
L 112.899346 93.918259 
L 113.194121 95.489576 
L 113.488895 99.298368 
L 113.78367 100.821947 
L 114.37322 106.439813 
L 114.667995 100.440974 
L 115.257545 108.43953 
L 115.847094 112.72446 
L 116.141869 114.485796 
L 116.436644 117.247147 
L 116.731419 115.009673 
L 117.026194 107.630158 
L 117.320969 111.534115 
L 117.615744 106.534979 
L 118.794843 117.961354 
L 119.089618 119.865905 
L 119.384393 118.723299 
L 119.679168 114.961934 
L 119.973942 117.580693 
L 120.268717 108.772765 
L 120.563492 114.247727 
L 120.858267 111.819611 
L 121.742592 120.818181 
L 122.626916 125.674414 
L 123.216466 123.341463 
L 123.511241 123.103394 
L 124.69034 131.340019 
L 124.985115 129.14966 
L 125.27989 131.72068 
L 125.574665 127.911888 
L 125.86944 130.578074 
L 126.164215 126.769282 
L 126.458989 130.959046 
L 127.343314 134.10137 
L 128.817188 141.623476 
L 129.111963 141.242815 
L 129.406738 142.908986 
L 129.701513 143.24222 
L 130.291063 146.337117 
L 130.880612 142.147352 
L 131.470162 146.337117 
L 132.059712 148.717495 
L 132.354487 146.622612 
L 132.649262 129.578371 
L 133.238811 138.14823 
L 133.533586 132.958451 
L 133.828361 138.243395 
L 134.123136 135.862706 
L 134.712686 140.576347 
L 135.007461 140.576347 
L 135.59701 142.004449 
L 135.891785 144.051592 
L 136.18656 140.909581 
L 136.481335 139.719236 
L 136.77611 134.10137 
L 137.365659 130.482908 
L 137.660434 127.530915 
L 137.955209 130.197101 
L 138.249984 124.436331 
L 138.544759 127.150255 
L 138.839534 123.769862 
L 139.134309 118.390065 
L 139.429084 109.96311 
L 139.723858 108.86793 
L 140.313408 91.96628 
L 140.608183 103.10716 
L 140.902958 97.441555 
L 141.197733 103.773628 
L 141.492508 102.345214 
L 141.787282 87.062621 
L 142.082057 101.535842 
L 142.376832 96.25121 
L 142.671607 105.440111 
L 143.261157 114.914508 
L 143.555932 117.628119 
L 143.850707 119.151699 
L 144.145481 121.913049 
L 144.440256 123.531793 
L 144.735031 108.391792 
L 145.029806 117.961354 
L 145.619356 124.865042 
L 145.914131 128.007053 
L 146.208905 126.81702 
L 146.50368 130.625812 
L 146.798455 132.149079 
L 147.09323 134.434604 
L 147.388005 134.863003 
L 147.68278 130.911308 
L 147.977555 135.815279 
L 148.567104 140.100209 
L 148.861879 141.76638 
L 149.156654 137.910161 
L 149.451429 141.671214 
L 149.746204 124.103097 
L 150.040979 113.771901 
L 150.335754 116.818747 
L 150.630528 122.198857 
L 150.925303 123.817601 
L 152.104403 136.005609 
L 152.399178 121.865623 
L 152.988727 130.578074 
L 153.283502 119.818167 
L 153.578277 126.436048 
L 153.873052 127.197681 
L 154.167827 121.770145 
L 154.462602 118.437492 
L 154.757377 119.532671 
L 155.052151 123.293724 
L 155.346926 120.484635 
L 155.641701 127.673819 
L 155.936476 131.482611 
L 156.231251 132.958451 
L 156.526026 132.482625 
L 156.820801 136.386582 
L 157.41035 140.433443 
L 157.705125 138.909864 
L 157.9999 136.434009 
L 158.294675 124.484069 
L 158.58945 133.720397 
L 159.179 140.433443 
L 159.768549 145.575171 
L 160.358099 148.955564 
L 162.716298 158.572864 
L 163.011073 158.810933 
L 163.305848 159.762897 
L 163.600623 149.288798 
L 163.895397 152.050148 
L 164.484947 148.860398 
L 164.779722 143.623193 
L 165.074497 141.195076 
L 165.369272 143.147055 
L 165.664047 148.241357 
L 165.958821 144.765799 
L 166.253596 149.66977 
L 166.548371 152.050148 
L 167.137921 137.814684 
L 168.022246 148.907825 
L 168.31702 150.431404 
L 168.90657 154.716334 
L 169.201345 151.240776 
L 169.49612 151.716914 
L 170.675219 131.815845 
L 170.969994 134.053631 
L 171.264769 140.576347 
L 171.854319 121.770145 
L 172.149094 131.768418 
L 172.738643 141.290242 
L 173.033418 138.57663 
L 173.622968 146.384543 
L 173.917743 148.527164 
L 174.212518 149.288798 
L 174.507293 143.289959 
L 174.802067 148.051026 
L 175.096842 148.574591 
L 175.686392 152.716617 
L 175.981167 148.907825 
L 176.275942 142.480586 
L 176.865491 139.671497 
L 177.160266 137.148216 
L 177.455041 141.004746 
L 177.749816 143.004463 
L 178.044591 147.384558 
L 178.339366 145.956144 
L 178.634141 147.09875 
L 178.928916 142.861559 
L 179.22369 141.671214 
L 179.518465 146.003883 
L 180.108015 128.864164 
L 180.40279 137.195954 
L 180.697565 137.053051 
L 180.99234 134.005892 
L 181.581889 145.62291 
L 182.171439 151.240776 
L 183.350539 158.525125 
L 183.645313 159.620305 
L 183.940088 161.239049 
L 184.234863 161.524545 
L 184.529638 138.671795 
L 185.708737 156.716051 
L 186.003512 158.858359 
L 186.298287 159.572566 
L 186.593062 158.906098 
L 186.887837 161.572283 
L 187.182612 163.095862 
L 187.477387 159.334497 
L 188.656486 166.047543 
L 188.951261 166.952081 
L 189.246036 168.523398 
L 189.540811 169.237293 
L 190.13036 171.094107 
L 190.425135 171.903479 
L 190.71991 170.332473 
L 191.014685 172.284451 
L 191.30946 170.046665 
L 191.604235 163.905235 
L 191.89901 142.147352 
L 192.488559 150.09817 
L 192.783334 118.48523 
L 193.078109 130.292578 
L 193.667659 142.62349 
L 194.257209 149.574605 
L 195.731083 159.334497 
L 196.025858 160.858076 
L 196.320633 160.334512 
L 196.910182 164.333634 
L 197.204957 164.666868 
L 197.794507 167.19015 
L 198.089282 166.952081 
L 198.384057 165.333336 
L 198.678832 142.099614 
L 199.268381 139.052768 
L 199.563156 147.09875 
L 199.857931 150.860115 
L 200.152706 148.622329 
L 201.03703 157.715753 
L 201.921355 162.762628 
L 202.21613 164.19073 
L 202.510905 161.286476 
L 202.80568 159.667732 
L 203.100455 157.382519 
L 203.395229 161.191311 
L 203.690004 163.476523 
L 203.984779 164.047826 
L 204.279554 159.287071 
L 204.574329 163.191028 
L 204.869104 163.429097 
L 205.163879 161.143884 
L 205.458653 149.66977 
L 205.753428 156.192174 
L 206.048203 160.14387 
L 206.637753 157.33478 
L 206.932528 158.096726 
L 207.227303 156.906381 
L 207.522078 161.477118 
L 207.816852 157.382519 
L 208.111627 161.953256 
L 208.995952 167.999522 
L 209.290727 160.381938 
L 209.585502 160.762911 
L 209.880276 163.095862 
L 210.175051 164.238469 
L 210.469826 158.096726 
L 210.764601 145.956144 
L 211.059376 155.097306 
L 211.354151 145.62291 
L 211.648926 130.149674 
L 212.238475 147.051324 
L 212.53325 142.432848 
L 212.828025 148.241357 
L 213.1228 148.907825 
L 213.417575 135.529471 
L 213.71235 141.004746 
L 214.007125 139.909566 
L 214.301899 145.527745 
L 214.596674 139.005029 
L 214.891449 147.09875 
L 215.480999 153.240493 
L 215.775774 153.9547 
L 216.070549 156.573147 
L 216.365323 156.573147 
L 216.660098 153.097589 
L 216.954873 134.529769 
L 217.544423 139.195671 
L 217.839198 146.622612 
L 218.723522 157.33478 
L 219.018297 158.477699 
L 219.313072 156.668312 
L 219.607847 159.71547 
L 220.786946 166.618847 
L 221.081721 167.285315 
L 221.376496 168.808894 
L 221.671271 168.856633 
L 221.966046 164.762033 
L 222.555596 169.237293 
L 222.850371 167.333053 
L 223.43992 171.522818 
L 223.734695 172.617686 
L 224.02947 174.141265 
L 224.61902 175.569679 
L 224.913795 176.902615 
L 225.208569 177.235849 
L 226.977219 181.520779 
L 227.566768 179.9972 
L 228.451093 182.996619 
L 229.040643 184.520199 
L 229.335418 184.520199 
L 230.514517 187.186384 
L 230.809292 187.472191 
L 231.104067 187.519618 
L 231.398842 166.904654 
L 231.693616 165.762048 
L 231.988391 168.427921 
L 232.283166 167.666288 
L 232.577941 165.095267 
L 232.872716 166.047543 
L 233.167491 169.237293 
L 233.462266 168.237591 
L 233.757041 166.047543 
L 234.051815 168.04726 
L 234.34659 163.381358 
L 234.641365 162.667151 
L 234.93614 165.47624 
L 235.230915 166.428516 
L 235.52569 168.856633 
L 235.820465 169.999239 
L 236.115239 163.238454 
L 236.704789 165.47624 
L 236.999564 159.191594 
L 237.294339 164.19073 
L 237.589114 162.71489 
L 237.883889 157.33478 
L 238.178664 160.000966 
L 238.473438 160.858076 
L 238.768213 162.28649 
L 239.062988 165.762048 
L 239.357763 167.380792 
L 239.652538 153.192755 
L 239.947313 158.144152 
L 240.242088 115.866471 
L 240.536862 120.246878 
L 240.831637 127.197681 
L 241.126412 117.294885 
L 241.421187 121.627554 
L 241.715962 132.577791 
L 242.305512 142.432848 
L 242.895061 142.480586 
L 243.189836 147.431984 
L 243.484611 148.907825 
L 243.779386 152.383382 
L 244.368936 144.004166 
L 244.663711 149.812674 
L 244.958485 141.576049 
L 245.25326 150.860115 
L 245.84281 158.525125 
L 246.137585 160.762911 
L 246.43236 155.525706 
L 246.727135 160.477104 
L 247.021909 159.71547 
L 247.611459 165.619144 
L 248.495784 169.999239 
L 248.790559 171.379914 
L 249.085334 171.998956 
L 249.380108 173.760292 
L 249.674883 173.093824 
L 249.969658 174.950637 
L 250.264433 175.569679 
L 250.559208 171.951217 
L 250.853983 175.71227 
L 251.148758 177.283588 
L 251.443532 166.190447 
L 251.738307 171.951217 
L 252.033082 172.189286 
L 252.327857 169.9515 
L 252.622632 163.143289 
L 252.917407 153.573727 
L 254.096506 163.476523 
L 254.391281 161.143884 
L 254.686056 163.095862 
L 254.980831 163.095862 
L 255.275606 164.095565 
L 255.570381 160.096443 
L 255.865155 161.572283 
L 256.15993 158.287056 
L 256.454705 164.19073 
L 256.74948 167.333053 
L 257.044255 166.523681 
L 257.633805 171.570244 
L 258.223354 169.523101 
L 259.107679 174.902898 
L 259.402454 174.950637 
L 259.697229 176.569381 
L 259.992004 173.712865 
L 260.286778 175.71227 
L 260.581553 173.950934 
L 260.876328 169.570839 
L 261.171103 171.856052 
L 261.465878 172.427355 
L 261.760653 169.475362 
L 262.055428 172.617686 
L 262.350203 170.094404 
L 262.644977 171.189584 
L 262.939752 158.382221 
L 263.234527 165.762048 
L 263.529302 164.285895 
L 263.824077 168.427921 
L 264.118852 168.523398 
L 264.413627 167.285315 
L 264.708401 168.332756 
L 265.003176 170.808611 
L 265.297951 169.618266 
L 265.592726 167.380792 
L 265.887501 171.04668 
L 266.182276 171.475079 
L 266.771825 175.807748 
L 267.0666 173.046085 
L 267.361375 175.617105 
L 267.65615 176.140982 
L 268.2457 178.759428 
L 268.540475 179.616539 
L 268.83525 179.092663 
L 269.130024 179.568801 
L 269.424799 178.378456 
L 269.719574 179.902035 
L 270.014349 178.759428 
L 270.309124 154.954403 
L 270.603899 163.000385 
L 271.193448 167.761453 
L 271.488223 167.333053 
L 271.782998 171.094107 
L 272.077773 172.189286 
L 272.372548 173.808031 
L 272.667323 174.617403 
L 272.962098 176.426477 
L 274.435972 181.854013 
L 274.730747 182.56822 
L 275.025522 182.615959 
L 275.320297 183.234688 
L 275.615071 178.71169 
L 275.909846 176.426477 
L 276.204621 178.807167 
L 276.499396 178.71169 
L 276.794171 170.713446 
L 277.088946 167.761453 
L 277.383721 172.617686 
L 277.678496 169.999239 
L 277.97327 174.093526 
L 279.15237 180.187842 
L 279.447145 181.044641 
L 279.74192 180.235269 
L 280.036694 169.666005 
L 280.331469 168.427921 
L 280.921019 171.856052 
L 281.215794 170.760872 
L 281.805344 176.379051 
L 282.100119 176.426477 
L 282.689668 179.9972 
L 282.984443 180.616242 
L 283.279218 181.806587 
L 283.573993 181.425614 
L 283.868768 173.712865 
L 284.458317 178.473933 
L 284.753092 180.140104 
L 285.047867 181.139806 
L 285.342642 179.092663 
L 285.637417 179.521062 
L 286.226967 182.949193 
L 286.521741 184.186964 
L 287.111291 185.662805 
L 287.406066 185.56764 
L 287.700841 186.329585 
L 287.995616 178.71169 
L 288.290391 182.234986 
L 288.585166 183.282427 
L 288.87994 184.853433 
L 289.174715 184.139226 
L 289.46949 184.901171 
L 289.764265 185.996039 
L 290.05904 175.760009 
L 290.64859 181.044641 
L 290.943364 179.568801 
L 291.532914 183.996634 
L 291.827689 184.091799 
L 292.712014 187.186384 
L 293.301563 183.758565 
L 293.596338 184.091799 
L 293.891113 182.711124 
L 294.480663 185.662805 
L 294.775438 183.901469 
L 295.070213 186.710246 
L 295.364987 187.519618 
L 295.659762 184.901171 
L 296.249312 188.186086 
L 296.544087 189.090936 
L 296.838862 177.854891 
L 297.133637 182.949193 
L 297.428412 185.186667 
L 298.017961 187.614783 
L 298.312736 187.234123 
L 298.607511 185.615378 
L 298.902286 185.56764 
L 299.197061 187.852852 
L 299.491836 187.852852 
L 299.78661 189.186101 
L 300.081385 185.996039 
L 300.37616 187.948329 
L 300.670935 187.900591 
L 301.260485 184.044061 
L 301.55526 186.85315 
L 301.850034 187.424453 
L 302.439584 189.043197 
L 302.734359 187.091219 
L 303.323909 189.804831 
L 303.618684 184.853433 
L 303.913459 187.519618 
L 304.208233 188.662224 
L 304.503008 188.567059 
L 304.797783 166.190447 
L 305.092558 173.284154 
L 305.387333 172.474782 
L 305.682108 177.616822 
L 305.976883 179.949773 
L 306.271657 181.377875 
L 306.566432 180.66398 
L 306.861207 177.711987 
L 307.155982 176.093243 
L 307.745532 181.09238 
L 308.040307 181.949178 
L 308.335082 181.09238 
L 308.629856 182.996619 
L 308.924631 181.806587 
L 309.219406 182.282725 
L 309.514181 184.139226 
L 309.808956 185.282144 
L 310.103731 184.520199 
L 310.398506 186.377012 
L 310.69328 187.138957 
L 310.988055 188.233825 
L 311.577605 188.995459 
L 311.87238 181.473352 
L 312.167155 166.904654 
L 312.46193 172.284451 
L 313.051479 178.378456 
L 313.935804 183.282427 
L 314.230579 171.475079 
L 314.820129 179.045236 
L 315.114903 180.283008 
L 315.704453 183.6634 
L 315.999228 184.853433 
L 316.294003 179.568801 
L 316.588778 183.377592 
L 316.883553 184.901171 
L 317.178328 185.662805 
L 317.473102 186.805411 
L 317.767877 184.948598 
L 318.062652 179.235566 
L 318.357427 179.568801 
L 318.652202 181.901752 
L 318.946977 182.139821 
L 319.241752 184.996337 
L 319.536526 181.09238 
L 319.831301 181.473352 
L 320.126076 178.664263 
L 320.420851 180.330434 
L 320.715626 180.283008 
L 321.305176 183.329854 
L 322.1895 186.710246 
L 322.484275 184.139226 
L 322.77905 186.043778 
L 323.073825 185.329571 
L 323.663375 187.472191 
L 323.958149 179.235566 
L 324.252924 183.234688 
L 324.547699 184.091799 
L 324.842474 166.190447 
L 325.137249 171.284749 
L 326.021573 178.759428 
L 326.316348 179.187828 
L 326.611123 179.949773 
L 327.790223 185.329571 
L 328.084998 186.043778 
L 328.379772 185.948612 
L 328.674547 186.757985 
L 328.969322 185.234405 
L 329.264097 185.186667 
L 329.558872 186.42475 
L 329.853647 185.56764 
L 330.148422 182.139821 
L 330.443196 185.044075 
L 330.737971 186.329585 
L 331.032746 186.281847 
L 331.327521 183.377592 
L 331.622296 185.900874 
L 331.917071 185.75797 
L 332.211846 187.805426 
L 332.506621 188.995459 
L 332.801395 188.614798 
L 333.09617 183.710826 
L 333.390945 184.758268 
L 333.980495 187.472191 
L 334.27527 188.614798 
L 334.570045 175.617105 
L 334.864819 181.806587 
L 335.159594 173.331893 
L 335.454369 177.188423 
L 336.633469 184.901171 
L 336.928244 186.091516 
L 337.223018 184.806006 
L 337.517793 180.283008 
L 337.812568 183.996634 
L 338.402118 184.091799 
L 338.696893 186.42475 
L 338.991668 187.186384 
L 339.286442 186.85315 
L 339.875992 188.614798 
L 340.170767 187.805426 
L 340.465542 188.233825 
L 340.760317 190.471611 
L 341.055092 188.995459 
L 341.349866 188.995459 
L 341.644641 179.330732 
L 341.939416 182.901454 
L 342.234191 183.710826 
L 342.528966 176.902615 
L 342.823741 181.473352 
L 343.118516 181.806587 
L 343.708065 185.948612 
L 344.297615 187.852852 
L 344.887165 189.519335 
L 345.18194 189.376431 
L 345.476715 190.661941 
L 345.771489 186.043778 
L 346.066264 183.472757 
L 346.361039 186.615081 
L 347.245364 190.328707 
L 347.540139 189.376431 
L 347.834914 190.90001 
L 348.129688 190.0429 
L 348.424463 182.139821 
L 348.719238 186.42475 
L 349.308788 190.70968 
L 349.603563 188.75739 
L 349.898338 190.185803 
L 350.193112 189.757404 
L 350.487887 190.138377 
L 350.782662 190.995176 
L 351.077437 189.42417 
L 351.372212 191.32841 
L 351.666987 192.137782 
L 351.961762 190.185803 
L 352.256537 190.233542 
L 352.846086 192.851989 
L 353.140861 193.613622 
L 353.435636 192.899727 
L 353.730411 192.899727 
L 354.025186 193.613622 
L 354.319961 191.376148 
L 354.614735 184.853433 
L 354.90951 189.043197 
L 355.204285 188.614798 
L 355.49906 185.234405 
L 355.793835 188.376729 
L 356.383385 189.900308 
L 356.678159 185.186667 
L 357.267709 189.804831 
L 357.562484 190.995176 
L 357.857259 191.661644 
L 358.152034 191.757121 
L 358.741584 193.994595 
L 359.036358 190.661941 
L 359.331133 163.381358 
L 359.625908 167.666288 
L 359.920683 174.522237 
L 361.099782 184.472772 
L 361.394557 179.521062 
L 362.278882 185.282144 
L 363.457981 189.519335 
L 363.752756 188.709963 
L 364.342306 189.852569 
L 364.637081 190.138377 
L 364.931856 187.757687 
L 365.226631 188.995459 
L 365.521405 184.139226 
L 365.81618 183.805992 
L 366.110955 184.853433 
L 366.700505 189.090936 
L 366.99528 190.233542 
L 367.58483 191.709383 
L 367.879604 192.851989 
L 368.174379 190.995176 
L 368.763929 193.137796 
L 369.353479 194.375568 
L 369.943028 181.377875 
L 370.237803 180.711407 
L 370.532578 184.853433 
L 370.827353 187.186384 
L 371.416903 177.331015 
L 371.711678 182.139821 
L 372.006453 183.710826 
L 372.301227 175.664844 
L 372.596002 175.71227 
L 372.890777 171.475079 
L 373.185552 176.474216 
L 373.775102 179.521062 
L 374.069877 179.902035 
L 374.659426 183.6634 
L 374.954201 184.044061 
L 375.248976 185.377309 
L 375.543751 185.900874 
L 375.838526 187.424453 
L 376.133301 187.091219 
L 376.428075 188.948032 
L 376.72285 183.282427 
L 377.017625 186.757985 
L 377.607175 184.853433 
L 377.90195 187.281549 
L 378.786274 191.376148 
L 379.081049 190.90001 
L 379.375824 179.235566 
L 379.670599 184.806006 
L 379.965374 187.138957 
L 380.554924 189.329005 
L 380.849698 179.045236 
L 381.144473 181.473352 
L 381.439248 184.901171 
L 382.618348 190.138377 
L 382.913123 190.090638 
L 383.207897 188.662224 
L 383.502672 190.995176 
L 383.797447 175.71227 
L 384.092222 178.331029 
L 384.681772 180.378173 
L 384.976547 184.044061 
L 385.271321 185.996039 
L 385.566096 187.138957 
L 385.860871 176.140982 
L 386.155646 181.044641 
L 386.450421 182.282725 
L 386.745196 179.9972 
L 387.039971 165.28591 
L 387.62952 177.188423 
L 388.21907 182.996619 
L 388.80862 186.091516 
L 389.103395 187.662522 
L 389.39817 187.900591 
L 389.692944 186.281847 
L 389.987719 188.567059 
L 390.577269 190.614203 
L 392.051143 194.375568 
L 392.345918 195.565913 
L 392.640693 196.041739 
L 392.935468 196.803684 
L 393.230243 195.18494 
L 393.525018 188.32899 
L 393.819793 186.329585 
L 394.114567 187.091219 
L 394.409342 189.376431 
L 394.704117 190.328707 
L 395.588442 194.08976 
L 395.883217 194.899132 
L 396.177991 194.042334 
L 396.472766 194.042334 
L 396.767541 195.470436 
L 397.062316 195.994312 
L 397.357091 180.283008 
L 397.651866 186.281847 
L 398.241416 190.185803 
L 398.830965 192.80425 
L 399.12574 193.7091 
L 399.420515 194.042334 
L 399.71529 194.851706 
L 400.010065 194.756541 
L 400.30484 195.18494 
L 400.599614 195.946574 
L 400.894389 196.327546 
L 401.189164 197.327249 
L 401.483939 197.470153 
L 401.778714 197.470153 
L 402.073489 198.041456 
L 402.368264 198.18436 
L 402.957813 199.374704 
L 403.252588 196.041739 
L 403.547363 197.75596 
L 403.842138 193.137796 
L 404.136913 196.375285 
L 404.431688 189.757404 
L 404.726463 193.613622 
L 405.021237 194.661063 
L 405.316012 185.282144 
L 405.610787 188.614798 
L 405.905562 190.614203 
L 406.200337 191.757121 
L 406.495112 188.852867 
L 406.789887 190.947749 
L 407.084662 191.947451 
L 407.379436 184.901171 
L 407.674211 180.711407 
L 407.968986 180.997214 
L 408.263761 170.760872 
L 408.558536 177.235849 
L 409.148086 184.091799 
L 409.44286 184.806006 
L 409.737635 172.33219 
L 410.03241 177.235849 
L 410.327185 174.998375 
L 410.916735 181.854013 
L 411.506284 185.996039 
L 412.095834 188.709963 
L 412.390609 188.948032 
L 412.685384 190.90001 
L 412.980159 191.280983 
L 413.274934 192.137782 
L 413.569709 193.7091 
L 413.864483 193.994595 
L 414.159258 181.425614 
L 414.748808 186.710246 
L 415.043583 183.377592 
L 415.338358 185.234405 
L 415.633133 184.567937 
L 416.222682 188.995459 
L 416.517457 189.42417 
L 416.812232 188.614798 
L 417.107007 189.42417 
L 417.401782 187.091219 
L 417.696557 189.42417 
L 417.991332 190.804845 
L 418.286106 187.329288 
L 418.580881 186.757985 
L 418.875656 189.043197 
L 419.759981 192.137782 
L 420.054756 192.899727 
L 420.644305 182.806289 
L 420.93908 184.567937 
L 421.233855 184.472772 
L 421.52863 179.568801 
L 421.823405 183.805992 
L 422.11818 183.996634 
L 422.412955 185.472474 
L 422.707729 176.045817 
L 423.002504 180.806572 
L 423.297279 180.66398 
L 423.592054 180.330434 
L 423.886829 180.711407 
L 424.181604 182.949193 
L 424.476379 122.341448 
L 424.771153 144.385138 
L 425.065928 153.906961 
L 425.360703 149.764936 
L 425.655478 150.09817 
L 425.950253 147.52715 
L 426.245028 148.479426 
L 426.539803 151.288515 
L 426.834578 159.52514 
L 427.129352 161.61971 
L 427.424127 166.57142 
L 427.718902 165.714309 
L 428.308452 174.522237 
L 428.603227 174.046099 
L 428.898002 167.475957 
L 429.192776 174.569664 
L 429.487551 174.569664 
L 430.077101 176.521642 
L 430.371876 173.712865 
L 430.666651 160.048704 
L 430.961426 157.810918 
L 431.2562 166.904654 
L 431.84575 174.855472 
L 432.4353 179.949773 
L 433.319625 185.186667 
L 433.614399 186.043778 
L 433.909174 187.614783 
L 434.203949 188.281564 
L 434.793499 190.995176 
L 435.088274 191.709383 
L 435.383049 193.232962 
L 435.972598 195.137201 
L 436.267373 183.6634 
L 436.562148 178.759428 
L 436.856923 184.044061 
L 437.446473 186.996054 
L 437.741248 187.567357 
L 438.036022 186.85315 
L 438.625572 190.185803 
L 438.920347 187.519618 
L 439.215122 186.329585 
L 439.509897 188.281564 
L 439.804672 189.471597 
L 440.099446 191.376148 
L 440.394221 191.709383 
L 440.688996 192.994893 
L 440.983771 193.042319 
L 441.573321 191.804548 
L 441.868096 193.947169 
L 442.457645 196.137216 
L 444.226295 199.803104 
L 444.521069 199.374704 
L 444.815844 199.803104 
L 445.405394 201.326683 
L 445.700169 197.851125 
L 445.994944 200.041173 
L 446.289719 200.184077 
L 446.584494 200.850545 
L 446.879268 201.231518 
L 447.174043 201.374109 
L 447.468818 201.326683 
L 447.763593 202.516716 
L 448.058368 203.230923 
L 448.353143 201.945413 
L 448.647918 194.613637 
L 448.942692 197.041753 
L 449.237467 198.231786 
L 449.532242 197.898552 
L 449.827017 194.470733 
L 450.121792 183.6634 
L 450.416567 187.900591 
L 450.711342 188.233825 
L 451.006116 190.090638 
L 451.595666 192.090355 
L 452.185216 194.756541 
L 452.479991 189.804831 
L 452.774766 190.614203 
L 453.069541 193.137796 
L 453.364315 194.470733 
L 453.65909 195.089775 
L 453.953865 196.708519 
L 454.24864 195.232367 
L 454.543415 185.282144 
L 454.83819 184.806006 
L 455.132965 180.711407 
L 455.427739 184.472772 
L 455.722514 186.377012 
L 456.017289 189.043197 
L 456.312064 188.567059 
L 456.606839 190.280969 
L 456.901614 185.377309 
L 457.196389 188.709963 
L 458.080713 193.613622 
L 458.670263 195.518174 
L 458.965038 191.280983 
L 459.259813 193.994595 
L 460.438912 198.18436 
L 461.028462 199.803104 
L 461.323237 199.803104 
L 461.618012 200.469572 
L 461.912787 200.469572 
L 462.207561 201.326683 
L 462.502336 200.517311 
L 463.091886 202.564454 
L 463.386661 202.23122 
L 463.681436 199.803104 
L 463.976211 187.04348 
L 464.270985 187.091219 
L 464.56576 188.281564 
L 465.450085 194.803967 
L 466.039635 196.708519 
L 466.923959 198.993732 
L 467.218734 199.088897 
L 468.397834 201.707344 
L 468.692608 202.754785 
L 468.987383 202.802523 
L 469.282158 196.708519 
L 469.576933 199.565035 
L 469.871708 200.041173 
L 470.166483 200.94571 
L 470.461258 201.374109 
L 470.756032 202.516716 
L 471.050807 201.278944 
L 471.640357 203.564157 
L 471.935132 200.897971 
L 472.819457 200.993449 
L 473.114231 200.422146 
L 473.409006 201.659917 
L 473.998556 190.566776 
L 474.293331 191.661644 
L 475.177655 196.279808 
L 475.47243 197.08918 
L 475.767205 190.995176 
L 476.06198 194.042334 
L 476.356755 194.422994 
L 476.65153 196.375285 
L 477.535854 199.422131 
L 478.125404 200.850545 
L 478.420179 196.375285 
L 478.714954 197.041753 
L 479.009729 191.519052 
L 479.304504 194.470733 
L 479.599278 195.518174 
L 479.894053 197.041753 
L 480.188828 197.898552 
L 480.483603 195.661078 
L 480.778378 195.946574 
L 481.367928 198.612759 
L 482.252252 200.94571 
L 482.547027 201.326683 
L 482.841802 202.421551 
L 483.136577 202.897689 
L 483.431352 203.611895 
L 483.726127 203.94513 
L 484.020901 203.468992 
L 484.315676 204.326102 
L 485.200001 205.468709 
L 485.789551 206.992288 
L 486.3791 207.325522 
L 486.673875 207.849086 
L 486.96865 208.134894 
L 487.263425 207.99199 
L 487.5582 208.944266 
L 488.14775 209.753638 
L 488.442524 209.658473 
L 488.737299 210.039134 
L 489.032074 205.42097 
L 489.621624 207.420687 
L 489.916399 206.278081 
L 490.505948 208.230059 
L 490.800723 208.515555 
L 491.095498 208.991693 
L 491.390273 197.851125 
L 491.685048 200.422146 
L 491.979823 199.041158 
L 492.864147 203.278661 
L 493.158922 203.564157 
L 493.453697 201.755082 
L 493.748472 203.611895 
L 494.043247 204.706763 
L 494.338022 205.135475 
L 494.632797 205.135475 
L 495.517121 207.039714 
L 496.106671 207.753921 
L 496.401446 208.515555 
L 498.170095 210.848506 
L 498.46487 204.754502 
L 499.05442 207.039714 
L 499.349194 183.377592 
L 499.643969 103.535559 
L 499.938744 140.909581 
L 500.233519 159.096428 
L 500.528294 165.47624 
L 500.823069 167.618549 
L 501.117844 166.904654 
L 502.002168 155.85894 
L 502.296943 164.238469 
L 502.591718 165.428502 
L 502.886493 165.762048 
L 503.476043 176.80745 
L 504.065592 182.234986 
L 504.949917 187.567357 
L 505.244692 184.853433 
L 505.539467 187.614783 
L 505.834241 187.805426 
L 506.423791 192.851989 
L 507.308116 197.136918 
L 507.602891 196.708519 
L 508.19244 199.374704 
L 508.78199 199.088897 
L 509.37154 200.517311 
L 509.666315 200.564737 
L 509.96109 202.469289 
L 511.140189 205.182901 
L 511.729739 205.897108 
L 512.024514 205.42097 
L 512.319289 206.659054 
L 512.614063 206.992288 
L 512.908838 207.706183 
L 513.203613 206.801645 
L 513.498388 208.182321 
L 513.793163 208.515555 
L 514.087938 209.324927 
L 514.382713 209.7059 
L 514.677487 210.467845 
L 514.972262 210.086872 
L 515.267037 205.611612 
L 515.856587 208.087155 
L 516.151362 208.515555 
L 516.740912 210.039134 
L 517.035686 210.467845 
L 517.330461 210.515272 
L 517.625236 210.801079 
L 517.920011 211.277217 
L 518.214786 211.991112 
L 518.509561 206.659054 
L 518.804336 208.515555 
L 519.09911 209.610735 
L 519.393885 210.039134 
L 519.68866 210.801079 
L 519.983435 211.991112 
L 520.27821 212.372085 
L 520.86776 208.896528 
L 521.752084 211.895947 
L 522.046859 212.27692 
L 522.341634 209.801065 
L 522.636409 208.944266 
L 523.225959 211.657878 
L 523.815508 212.657893 
L 524.405058 213.990829 
L 524.699833 214.228898 
L 525.289383 214.943105 
L 525.584157 205.182901 
L 525.878932 205.849681 
L 526.468482 208.896528 
L 526.763257 209.229762 
L 527.058032 210.420107 
L 527.352807 209.7059 
L 527.647582 210.848506 
L 527.942356 207.420687 
L 528.531906 210.372368 
L 529.416231 212.705319 
L 530.300555 213.895664 
L 531.77443 215.371505 
L 532.363979 216.276042 
L 532.658754 216.180877 
L 532.953529 216.56185 
L 533.248304 217.180579 
L 533.543079 217.418648 
L 533.837854 216.990249 
L 534.722178 218.085429 
L 535.016953 211.229479 
L 535.311728 199.707939 
L 535.606503 204.754502 
L 536.196053 208.182321 
L 536.490828 204.326102 
L 537.375152 208.182321 
L 537.669927 208.515555 
L 538.554252 211.229479 
L 539.143801 212.419824 
L 539.438576 212.800484 
L 539.733351 212.943388 
L 540.617676 214.419229 
L 541.207225 215.03827 
L 541.502 214.990532 
L 542.09155 215.847643 
L 542.386325 211.657878 
L 542.6811 195.946574 
L 542.975875 188.709963 
L 543.270649 195.37527 
L 543.565424 194.375568 
L 543.860199 197.517891 
L 544.449749 200.94571 
L 544.744524 195.470436 
L 545.039299 194.708802 
L 545.628848 198.707924 
L 545.923623 199.755365 
L 546.218398 199.755365 
L 546.807948 202.897689 
L 547.102723 203.135758 
L 547.397498 203.659634 
L 548.281822 206.611315 
L 548.576597 206.992288 
L 549.166147 208.515555 
L 549.460922 208.896528 
L 549.755696 209.753638 
L 550.345246 210.467845 
L 551.229571 212.419824 
L 552.113895 213.514691 
L 552.40867 213.990829 
L 552.703445 211.848521 
L 552.99822 189.900308 
L 553.292995 192.137782 
L 553.58777 197.041753 
L 554.177319 200.088599 
L 554.472094 202.421551 
L 555.356419 205.563874 
L 555.651194 206.325507 
L 555.945969 206.659054 
L 556.240744 207.563591 
L 556.830293 208.134894 
L 557.419843 209.2775 
L 557.714618 210.086872 
L 558.009393 210.086872 
L 558.304168 210.372368 
L 558.598942 211.229479 
L 558.893717 199.46987 
L 559.188492 199.374704 
L 559.483267 202.564454 
L 559.778042 202.326385 
L 560.072817 191.661644 
L 560.367592 195.232367 
L 561.841466 202.088316 
L 562.725791 205.040309 
L 563.31534 206.230342 
L 563.610115 206.944549 
L 563.90489 206.944549 
L 564.49444 208.611032 
L 564.789215 208.515555 
L 565.673539 210.086872 
L 565.968314 205.944847 
L 566.263089 206.230342 
L 566.852639 203.183496 
L 567.147414 203.992868 
L 567.442188 201.755082 
L 567.736963 203.135758 
L 568.031738 203.611895 
L 568.326513 202.516716 
L 568.621288 192.137782 
L 568.916063 194.708802 
L 569.210838 198.279525 
L 569.505612 187.995756 
L 569.800387 187.900591 
L 570.095162 183.758565 
L 570.389937 186.377012 
L 570.684712 184.853433 
L 570.979487 189.090936 
L 571.569037 194.470733 
L 571.863811 195.946574 
L 572.158586 186.329585 
L 572.453361 187.900591 
L 572.748136 191.757121 
L 573.042911 193.756526 
L 573.337686 191.709383 
L 573.632461 194.803967 
L 573.927235 195.946574 
L 574.22201 193.661361 
L 574.516785 189.519335 
L 574.81156 190.614203 
L 575.40111 192.090355 
L 575.695885 189.900308 
L 575.990659 194.422994 
L 576.285434 195.089775 
L 576.580209 196.708519 
L 577.169759 196.708519 
L 577.464534 197.517891 
L 577.759309 196.803684 
L 578.054084 196.613354 
L 578.348858 195.994312 
L 578.643633 193.994595 
L 578.938408 195.042036 
L 579.233183 190.90001 
L 579.527958 194.08976 
L 580.117508 197.041753 
L 580.412282 197.374987 
L 580.707057 198.612759 
L 581.001832 198.993732 
L 581.296607 197.470153 
L 581.591382 196.66078 
L 581.886157 198.565332 
L 582.475707 200.612476 
L 583.065256 202.897689 
L 583.360031 199.707939 
L 584.244356 203.992868 
L 584.539131 203.897391 
L 584.833905 204.992571 
L 585.12868 204.611598 
L 585.423455 205.849681 
L 585.71823 206.325507 
L 586.013005 199.6602 
L 586.30778 200.94571 
L 586.602555 203.230923 
L 586.89733 194.803967 
L 587.192104 199.041158 
L 587.486879 200.136338 
L 587.781654 199.85053 
L 588.076429 198.945993 
L 588.371204 194.803967 
L 588.665979 197.08918 
L 588.960754 197.565318 
L 589.255528 199.231801 
L 589.550303 197.374987 
L 589.845078 199.326966 
L 590.139853 196.232381 
L 590.434628 198.945993 
L 590.729403 195.994312 
L 591.024178 196.327546 
L 591.318953 192.851989 
L 591.613727 195.899147 
L 592.203277 199.326966 
L 592.498052 199.46987 
L 592.792827 200.659903 
L 593.087602 200.612476 
L 593.382377 200.041173 
L 593.677151 200.136338 
L 593.971926 194.375568 
L 594.266701 192.947154 
L 594.561476 195.137201 
L 594.856251 192.518755 
L 595.445801 197.851125 
L 596.03535 200.136338 
L 596.330125 195.565913 
L 597.21445 200.422146 
L 597.509225 189.138362 
L 597.804 188.376729 
L 598.393549 195.899147 
L 598.983099 198.279525 
L 599.572649 193.375865 
L 599.867424 194.375568 
L 600.456973 198.565332 
L 600.751748 198.945993 
L 601.046523 200.564737 
L 601.341298 200.374407 
L 601.636073 197.470153 
L 601.930848 192.375851 
L 602.225623 196.327546 
L 602.815172 199.85053 
L 603.994272 203.992868 
L 604.289047 204.373529 
L 604.878596 205.897108 
L 605.173371 206.230342 
L 605.468146 206.992288 
L 606.057696 207.80166 
L 606.352471 208.658459 
L 607.236795 209.610735 
L 607.53157 210.277203 
L 607.826345 198.327263 
L 608.12112 198.612759 
L 608.415895 197.946291 
L 608.71067 200.517311 
L 609.005444 200.993449 
L 609.300219 203.326088 
L 609.594994 203.135758 
L 609.889769 204.373529 
L 610.184544 197.08918 
L 610.479319 197.851125 
L 610.774094 200.469572 
L 611.068869 201.659917 
L 611.363643 172.665424 
L 611.658418 174.189003 
L 612.247968 184.853433 
L 612.542743 189.138362 
L 612.837518 182.615959 
L 613.132293 183.85373 
L 613.721842 189.043197 
L 614.016617 188.709963 
L 614.311392 191.376148 
L 614.606167 187.995756 
L 614.900942 190.614203 
L 615.195717 192.090355 
L 615.490491 194.803967 
L 615.785266 196.375285 
L 616.080041 196.327546 
L 616.669591 199.517296 
L 616.964366 196.755946 
L 617.259141 191.32841 
L 617.553916 193.328127 
L 617.84869 196.327546 
L 618.143465 198.18436 
L 618.43824 198.945993 
L 618.733015 200.517311 
L 619.02779 197.470153 
L 619.322565 199.374704 
L 619.61734 177.235849 
L 619.912114 185.853447 
L 620.206889 188.662224 
L 620.501664 189.804831 
L 621.091214 195.518174 
L 621.385989 194.803967 
L 621.680764 195.137201 
L 621.975539 193.661361 
L 622.270313 194.185238 
L 622.565088 196.708519 
L 622.859863 196.755946 
L 623.154638 195.280105 
L 623.449413 197.517891 
L 623.744188 182.615959 
L 624.038963 188.948032 
L 624.628512 194.756541 
L 625.512837 199.088897 
L 625.807612 200.136338 
L 626.102387 199.755365 
L 626.986711 203.278661 
L 627.576261 204.421268 
L 627.871036 202.754785 
L 628.165811 202.707358 
L 628.460586 204.278364 
L 628.75536 205.182901 
L 629.050135 205.516135 
L 629.34491 206.182916 
L 629.639685 206.182916 
L 629.93446 207.468426 
L 630.818784 208.515555 
L 631.113559 209.372666 
L 631.997884 210.515272 
L 632.587434 211.18174 
L 632.882209 204.373529 
L 633.471758 206.849384 
L 633.766533 207.753921 
L 634.061308 202.469289 
L 634.356083 199.326966 
L 634.650858 201.278944 
L 635.240407 198.231786 
L 635.829957 200.94571 
L 636.124732 200.94571 
L 636.419507 201.755082 
L 636.714282 203.278661 
L 637.009057 202.897689 
L 637.303832 203.897391 
L 637.598606 198.565332 
L 637.893381 200.041173 
L 638.482931 203.611895 
L 638.777706 204.326102 
L 639.072481 204.706763 
L 639.367256 200.136338 
L 639.66203 202.850262 
L 640.25158 205.278066 
L 640.546355 205.468709 
L 641.135905 207.420687 
L 641.725455 208.134894 
L 642.020229 209.515569 
L 642.315004 209.324927 
L 642.609779 209.324927 
L 642.904554 210.086872 
L 643.494104 210.086872 
L 643.788879 208.944266 
L 644.083653 209.658473 
L 644.378428 204.326102 
L 644.673203 206.278081 
L 644.967978 207.372949 
L 645.262753 202.421551 
L 645.557528 205.040309 
L 645.852303 206.230342 
L 646.147078 202.088316 
L 646.441852 204.80224 
L 646.736627 204.706763 
L 647.031402 202.707358 
L 647.326177 204.611598 
L 647.915727 206.230342 
L 648.210502 205.563874 
L 648.505276 202.850262 
L 649.094826 205.516135 
L 649.684376 205.23064 
L 650.273926 207.087453 
L 650.863475 208.515555 
L 651.15825 199.85053 
L 651.453025 196.994015 
L 651.7478 197.08918 
L 652.632125 202.992854 
L 652.926899 203.183496 
L 653.516449 205.23064 
L 653.811224 204.849667 
L 654.105999 204.230937 
L 654.400774 205.23064 
L 654.695549 204.754502 
L 655.285098 203.183496 
L 655.579873 204.992571 
L 656.169423 206.659054 
L 657.053748 207.849086 
L 657.348522 208.087155 
L 657.643297 208.182321 
L 657.938072 206.611315 
L 658.527622 208.134894 
L 658.822397 201.326683 
L 659.117172 205.087736 
L 659.411946 206.325507 
L 659.706721 206.659054 
L 660.296271 207.849086 
L 661.180596 209.610735 
L 661.475371 209.943969 
L 661.770145 209.562996 
L 662.06492 210.039134 
L 662.65447 208.230059 
L 662.949245 199.279227 
L 663.24402 201.755082 
L 663.538795 198.469855 
L 663.833569 201.326683 
L 664.128344 203.040592 
L 664.423119 195.232367 
L 664.717894 200.231503 
L 665.012669 202.374124 
L 665.602219 204.80224 
L 666.191768 206.420985 
L 666.486543 205.992273 
L 666.781318 206.373246 
L 667.076093 207.896825 
L 667.370868 207.80166 
L 667.665643 208.134894 
L 667.960418 208.944266 
L 668.255192 200.184077 
L 668.549967 200.231503 
L 669.139517 204.373529 
L 669.729067 196.327546 
L 670.023842 195.280105 
L 670.318616 186.234108 
L 670.908166 194.565898 
L 671.202941 187.948329 
L 671.497716 191.804548 
L 671.792491 187.900591 
L 672.087266 188.995459 
L 672.382041 147.003585 
L 672.676815 167.285315 
L 672.97159 174.950637 
L 673.266365 178.71169 
L 673.56114 170.380212 
L 673.855915 179.9972 
L 674.445465 186.710246 
L 675.329789 193.89943 
L 675.624564 195.280105 
L 676.214114 184.520199 
L 676.508889 189.804831 
L 676.803664 192.80425 
L 677.098438 194.042334 
L 677.393213 191.376148 
L 677.982763 175.379036 
L 678.277538 183.710826 
L 678.572313 187.995756 
L 678.867088 187.519618 
L 679.161862 191.32841 
L 680.046187 196.279808 
L 680.340962 197.517891 
L 680.635737 190.614203 
L 680.930512 190.661941 
L 681.225287 194.042334 
L 681.520061 196.041739 
L 681.814836 186.281847 
L 682.109611 190.471611 
L 682.404386 188.662224 
L 682.699161 193.756526 
L 683.583485 198.660498 
L 683.87826 198.279525 
L 684.173035 186.281847 
L 684.46781 190.661941 
L 685.05736 195.565913 
L 685.646909 198.327263 
L 685.941684 196.232381 
L 686.236459 172.712851 
L 686.531234 182.711124 
L 686.826009 181.854013 
L 687.120784 186.757985 
L 688.005108 193.661361 
L 688.889433 197.75596 
L 689.478983 199.041158 
L 690.363307 202.04089 
L 690.658082 184.806006 
L 691.247632 191.423575 
L 691.542407 190.566776 
L 691.837182 193.661361 
L 692.131957 190.519038 
L 692.426731 188.662224 
L 692.721506 183.187262 
L 693.016281 182.663385 
L 693.311056 184.186964 
L 694.490155 194.042334 
L 695.079705 196.994015 
L 696.258805 200.897971 
L 696.55358 197.517891 
L 696.848354 165.047841 
L 697.143129 168.237591 
L 697.732679 183.6634 
L 698.027454 176.188408 
L 698.322229 183.710826 
L 698.617004 186.329585 
L 699.206553 180.997214 
L 699.501328 176.855189 
L 700.090878 186.377012 
L 700.680428 190.185803 
L 700.975203 191.280983 
L 701.269977 192.899727 
L 701.859527 189.804831 
L 702.154302 189.043197 
L 702.449077 190.90001 
L 702.743852 194.422994 
L 703.038627 190.138377 
L 703.333401 188.281564 
L 703.922951 194.470733 
L 704.217726 193.280388 
L 704.512501 194.756541 
L 704.807276 196.994015 
L 705.396825 198.565332 
L 705.6916 198.136621 
L 705.986375 198.612759 
L 706.28115 200.136338 
L 706.575925 198.945993 
L 706.8707 197.279822 
L 707.165475 198.18436 
L 707.755024 193.185223 
L 708.049799 197.08918 
L 708.344574 198.612759 
L 708.639349 198.279525 
L 708.934124 198.755663 
L 709.228899 200.136338 
L 709.523674 200.897971 
L 709.818448 202.04089 
L 710.113223 199.374704 
L 710.702773 202.04089 
L 710.997548 199.041158 
L 711.587098 202.754785 
L 711.881873 202.850262 
L 712.176647 197.041753 
L 712.766197 201.993151 
L 713.355747 204.326102 
L 713.650522 204.278364 
L 713.945297 198.279525 
L 714.240071 200.041173 
L 714.534846 197.565318 
L 714.829621 198.660498 
L 715.124396 188.662224 
L 715.419171 192.851989 
L 715.713946 186.091516 
L 716.008721 184.901171 
L 716.303496 190.757107 
L 716.59827 177.616822 
L 716.893045 177.997795 
L 717.18782 184.186964 
L 717.77737 189.376431 
L 718.072145 190.233542 
L 718.36692 191.661644 
L 718.661694 191.709383 
L 720.135569 198.803401 
L 720.430344 199.898269 
L 720.725119 200.564737 
L 721.019893 196.66078 
L 721.314668 198.612759 
L 721.609443 198.993732 
L 721.904218 200.612476 
L 722.493768 202.04089 
L 722.788543 201.231518 
L 723.083317 197.184657 
L 723.378092 198.612759 
L 723.967642 202.945427 
L 724.262417 202.945427 
L 724.557192 203.564157 
L 724.851967 199.755365 
L 725.441516 201.374109 
L 725.736291 202.802523 
L 726.031066 203.135758 
L 726.325841 204.373529 
L 726.915391 205.040309 
L 727.210166 206.373246 
L 727.50494 205.801943 
L 727.799715 206.278081 
L 728.09449 207.420687 
L 728.389265 206.468411 
L 728.68404 198.422429 
L 728.978815 201.326683 
L 729.27359 199.374704 
L 729.568364 198.231786 
L 729.863139 198.993732 
L 730.157914 200.897971 
L 730.452689 197.422414 
L 730.747464 197.851125 
L 731.042239 200.897971 
L 731.337014 197.517891 
L 731.631789 200.517311 
L 731.926563 191.709383 
L 732.516113 198.136621 
L 732.810888 199.374704 
L 733.695213 197.517891 
L 733.989987 198.612759 
L 734.284762 189.804831 
L 734.579537 194.756541 
L 735.169087 198.612759 
L 735.463862 199.85053 
L 735.758637 200.184077 
L 736.348186 202.850262 
L 737.527286 205.516135 
L 737.822061 202.374124 
L 738.116836 204.373529 
L 738.41161 204.611598 
L 738.706385 204.469006 
L 739.00116 203.94513 
L 739.295935 205.135475 
L 739.59071 207.468426 
L 739.885485 205.897108 
L 740.475034 207.896825 
L 740.769809 208.134894 
L 741.064584 207.420687 
L 741.359359 185.662805 
L 741.654134 191.994878 
L 741.948909 195.18494 
L 742.243684 193.7091 
L 742.538459 194.137499 
L 742.833233 196.041739 
L 743.128008 196.089477 
L 743.422783 198.089194 
L 743.717558 198.565332 
L 744.601883 202.421551 
L 744.896657 203.611895 
L 745.191432 203.373826 
L 745.780982 205.182901 
L 746.075757 205.563874 
L 746.370532 206.278081 
L 746.665307 206.659054 
L 746.960082 205.135475 
L 747.254856 205.897108 
L 747.844406 207.80166 
L 748.433956 208.944266 
L 748.728731 208.515555 
L 749.023506 209.372666 
L 749.31828 209.610735 
L 750.202605 211.18174 
L 751.381705 212.753058 
L 751.676479 213.086292 
L 751.971254 213.133719 
L 752.266029 213.800499 
L 752.560804 211.848521 
L 752.855579 211.943686 
L 753.150354 212.753058 
L 753.445129 212.705319 
L 753.739903 213.276622 
L 754.329453 206.325507 
L 754.624228 207.468426 
L 754.919003 205.611612 
L 755.213778 200.564737 
L 755.508553 203.230923 
L 755.803328 201.326683 
L 756.098102 195.137201 
L 756.392877 197.946291 
L 756.687652 195.994312 
L 757.277202 200.993449 
L 757.571977 202.802523 
L 757.866752 203.564157 
L 758.161526 200.279242 
L 758.751076 203.51673 
L 759.045851 199.46987 
L 759.340626 202.992854 
L 759.635401 200.517311 
L 759.930176 202.802523 
L 760.519725 204.80224 
L 760.8145 205.42097 
L 761.109275 205.516135 
L 761.40405 205.087736 
L 761.698825 206.278081 
L 761.9936 203.611895 
L 762.877924 207.087453 
L 763.172699 207.277783 
L 763.467474 208.182321 
L 763.762249 207.13488 
L 764.057024 208.182321 
L 764.351799 208.134894 
L 765.236123 210.134299 
L 765.825673 210.705914 
L 766.120448 210.134299 
L 766.415223 198.660498 
L 766.709998 203.278661 
L 767.004772 200.422146 
L 767.299547 203.611895 
L 767.594322 205.087736 
L 767.889097 204.516433 
L 768.478647 207.039714 
L 769.068196 208.182321 
L 769.362971 209.515569 
L 769.657746 209.2775 
L 769.952521 210.086872 
L 770.542071 209.991707 
L 770.836846 208.182321 
L 771.426395 210.039134 
L 771.72117 203.897391 
L 772.015945 205.992273 
L 772.605495 208.182321 
L 772.90027 200.136338 
L 773.195045 197.803387 
L 773.781555 203.278661 
L 774.07785 204.80224 
L 774.374144 204.278364 
L 774.670438 198.993732 
L 774.966733 198.612759 
L 775.25543 197.803387 
L 775.848018 199.326966 
L 776.144313 200.850545 
L 776.440607 203.278661 
L 777.025598 203.897391 
L 777.914481 207.039714 
L 778.203178 207.563591 
L 778.499473 207.658756 
L 778.795767 208.563293 
L 779.388356 209.324927 
L 779.677053 210.229776 
L 779.973347 208.515555 
L 780.269641 200.469572 
L 780.565936 203.611895 
L 780.86223 203.51673 
L 781.150927 203.278661 
L 781.447221 198.612759 
L 782.03981 204.088033 
L 782.336104 202.04089 
L 782.624801 204.230937 
L 783.21739 206.278081 
L 784.098676 207.706183 
L 784.987559 209.801065 
L 785.283853 210.039134 
L 785.868844 210.848506 
L 786.165139 211.134314 
L 786.461433 211.991112 
L 787.639013 213.56243 
L 788.231602 214.228898 
L 788.520299 214.228898 
L 789.112887 214.990532 
L 789.409182 214.562132 
L 789.705476 215.561835 
L 789.994173 215.419243 
L 790.290467 215.942808 
L 790.586762 216.180877 
L 790.883056 216.13345 
L 791.17935 214.752463 
L 791.468047 215.03827 
L 791.764342 209.610735 
L 792.060636 211.895947 
L 792.35693 211.657878 
L 792.653225 213.133719 
L 792.941922 213.514691 
L 793.238216 213.514691 
L 793.53451 214.228898 
L 794.127099 215.03827 
L 794.415796 214.609871 
L 795.008385 215.895381 
L 795.304679 216.085712 
L 795.600973 216.609276 
L 795.88967 216.56185 
L 796.482259 217.371222 
L 796.778553 210.896245 
L 797.074848 211.229479 
L 797.363545 213.086292 
L 797.659839 213.943091 
L 797.956133 214.228898 
L 798.548722 215.46667 
L 798.837419 215.704739 
L 799.133713 216.180877 
L 799.430008 216.180877 
L 799.726302 216.609276 
L 800.022596 215.847643 
L 800.311293 210.753341 
L 800.607588 212.753058 
L 800.903882 212.419824 
L 801.496471 213.514691 
L 801.785168 214.609871 
L 802.081462 215.086009 
L 802.377756 215.03827 
L 802.674051 215.46667 
L 802.970345 216.13345 
L 803.259042 215.847643 
L 803.555336 216.466684 
L 803.851631 217.418648 
L 804.444219 215.371505 
L 804.732916 212.895962 
L 805.029211 212.753058 
L 805.918094 214.990532 
L 806.206791 215.371505 
L 806.503085 213.514691 
L 806.799379 212.372085 
L 807.095674 212.753058 
L 807.391968 211.562713 
L 807.680665 213.086292 
L 807.976959 213.943091 
L 808.569548 214.705036 
L 808.865842 214.228898 
L 809.154539 210.801079 
L 809.450834 204.373529 
L 809.747128 207.80166 
L 810.043422 209.229762 
L 810.339717 207.99199 
L 810.628414 207.849086 
L 810.924708 209.610735 
L 811.221002 203.611895 
L 811.517297 190.566776 
L 811.813591 196.66078 
L 812.102288 192.851989 
L 812.398582 195.565913 
L 812.694877 193.661361 
L 812.991171 197.08918 
L 813.287465 199.041158 
L 813.576162 189.519335 
L 813.872457 175.283871 
L 814.168751 142.813821 
L 814.465045 169.285032 
L 814.76134 164.714607 
L 815.050037 175.283871 
L 815.346331 160.810338 
L 815.642625 171.141845 
L 815.93892 168.523398 
L 816.235214 170.094404 
L 816.523911 175.617105 
L 816.820205 175.760009 
L 817.1165 176.950354 
L 817.412794 183.139523 
L 817.709088 185.662805 
L 817.997785 181.044641 
L 818.29408 185.996039 
L 819.182963 193.328127 
L 819.47166 194.08976 
L 819.767954 191.757121 
L 820.064248 188.281564 
L 820.656837 193.947169 
L 821.241828 197.422414 
L 821.538123 199.041158 
L 822.419408 201.326683 
L 822.715703 200.850545 
L 823.011997 202.850262 
L 823.604586 205.135475 
L 823.893283 205.040309 
L 824.189577 204.373529 
L 824.782166 206.51615 
L 825.07846 195.613339 
L 825.367157 190.804845 
L 825.663451 197.041753 
L 825.959746 198.279525 
L 826.25604 200.993449 
L 826.552334 202.183482 
L 826.841031 199.46987 
L 827.137326 201.707344 
L 827.43362 202.421551 
L 827.729914 203.564157 
L 828.026208 194.470733 
L 828.314906 195.661078 
L 828.6112 198.660498 
L 829.203788 201.612178 
L 829.500083 200.136338 
L 829.78878 197.136918 
L 830.085074 200.897971 
L 830.677663 203.94513 
L 830.973957 205.087736 
L 831.262654 205.087736 
L 831.558949 203.468992 
L 832.151537 206.278081 
L 832.447831 206.992288 
L 832.736529 205.468709 
L 833.032823 207.420687 
L 833.921706 209.420404 
L 835.099286 211.895947 
L 835.39558 202.469289 
L 835.684277 180.235269 
L 835.980571 187.519618 
L 836.276866 190.328707 
L 836.57316 188.233825 
L 836.869454 194.470733 
L 837.454446 198.18436 
L 837.75074 187.900591 
L 838.047034 193.756526 
L 838.343329 195.661078 
L 838.632026 184.806006 
L 838.92832 189.471597 
L 839.224614 188.32899 
L 839.520909 191.709383 
L 839.817203 185.996039 
L 840.1059 186.996054 
L 840.402194 189.519335 
L 840.698489 193.185223 
L 841.876069 199.85053 
L 842.172363 195.851408 
L 842.468657 193.7091 
L 843.053649 197.08918 
L 843.349943 198.612759 
L 843.646237 198.993732 
L 844.238826 201.278944 
L 844.527523 201.278944 
L 845.120112 204.659337 
L 845.7127 205.516135 
L 846.001397 205.563874 
L 846.297692 207.13488 
L 846.89028 208.706197 
L 847.186575 184.853433 
L 847.475272 194.470733 
L 848.06786 200.231503 
L 848.660449 203.564157 
L 848.949146 204.326102 
L 849.24544 205.516135 
L 849.541735 201.326683 
L 849.838029 200.184077 
L 850.134323 202.945427 
L 850.719315 205.516135 
L 851.311903 207.039714 
L 851.608198 207.13488 
L 851.896895 207.849086 
L 852.193189 207.944252 
L 852.489483 209.324927 
L 852.785778 210.134299 
L 853.370769 210.753341 
L 853.667063 211.895947 
L 853.963358 212.419824 
L 854.555946 213.133719 
L 855.140938 213.895664 
L 857.503695 216.942822 
L 858.088686 217.323483 
L 858.977569 218.561567 
L 859.562561 218.466089 
L 859.858855 217.752194 
L 860.740141 218.847062 
L 861.036435 218.942227 
L 861.332729 218.513828 
L 861.629024 218.370924 
L 861.925318 218.513828 
L 862.214015 217.942525 
L 862.806604 218.894801 
L 863.102898 219.228035 
L 863.687889 215.609574 
L 863.984184 217.466387 
L 864.280478 217.656717 
L 864.873067 218.513828 
L 865.161764 218.847062 
L 865.458058 214.609871 
L 865.754352 213.086292 
L 866.050647 199.422131 
L 866.346941 200.184077 
L 866.635638 201.755082 
L 866.931932 204.80224 
L 867.820815 208.611032 
L 868.109512 209.7059 
L 868.405807 207.80166 
L 868.702101 207.230357 
L 868.998395 207.706183 
L 869.29469 208.42039 
L 869.583387 210.039134 
L 869.879681 210.801079 
L 870.175975 199.136635 
L 870.47227 203.278661 
L 871.057261 206.896811 
L 871.64985 209.753638 
L 871.946144 208.944266 
L 872.242438 193.232962 
L 872.531135 191.32841 
L 872.82743 198.18436 
L 873.123724 200.802806 
L 873.420018 201.326683 
L 873.716313 200.94571 
L 874.00501 201.707344 
L 874.597598 206.325507 
L 874.893893 206.659054 
L 875.190187 206.135177 
L 875.775178 209.753638 
L 876.071473 209.610735 
L 876.367767 210.801079 
L 876.664061 210.467845 
L 877.249053 213.086292 
L 877.545347 213.086292 
L 877.841641 213.514691 
L 878.426633 213.609857 
L 879.019221 215.03827 
L 879.315516 215.086009 
L 879.61181 215.847643 
L 880.196801 216.466684 
L 880.493096 209.229762 
L 881.374381 213.56243 
L 881.670676 214.228898 
L 881.96697 213.467265 
L 882.263264 208.611032 
L 882.559559 212.08659 
L 882.848256 212.419824 
L 883.14455 211.895947 
L 883.440844 204.421268 
L 883.737139 207.849086 
L 884.033433 209.658473 
L 884.32213 209.896542 
L 884.618424 198.660498 
L 885.211013 205.801943 
L 885.507307 207.849086 
L 886.388593 211.086575 
L 887.269879 202.469289 
L 887.566173 197.08918 
L 887.862467 202.326385 
L 888.158762 205.087736 
L 888.743753 207.753921 
L 889.040047 207.468426 
L 889.336342 206.70648 
L 889.92893 209.610735 
L 890.513922 211.18174 
L 890.810216 211.229479 
L 891.402805 213.133719 
L 892.28409 214.705036 
L 893.757965 216.466684 
L 894.350553 216.75218 
L 894.63925 217.276056 
L 894.935545 217.133153 
L 895.231839 216.228615 
L 895.528133 215.847643 
L 895.824428 216.942822 
L 896.113125 216.895084 
L 897.002008 218.370924 
L 897.298302 218.513828 
L 897.883293 219.3232 
L 898.179588 219.037392 
L 898.475882 208.515555 
L 898.772176 210.896245 
L 899.060873 206.230342 
L 899.357168 192.042617 
L 899.949756 202.516716 
L 900.534748 206.325507 
L 900.831042 207.372949 
L 901.127336 207.849086 
L 901.423631 209.2775 
L 902.008622 210.801079 
L 902.601211 212.753058 
L 902.897505 213.038553 
L 903.193799 210.943671 
L 903.482496 207.420687 
L 903.778791 208.515555 
L 904.075085 210.515272 
L 904.371379 211.657878 
L 904.667674 210.610437 
L 904.956371 210.56301 
L 905.252665 211.705617 
L 905.845254 212.372085 
L 906.141548 210.753341 
L 906.726539 213.56243 
L 907.319128 214.18116 
L 907.615422 212.753058 
L 908.200414 213.800499 
L 908.496708 200.993449 
L 908.793002 201.469275 
L 909.089297 205.135475 
L 909.377994 207.039714 
L 909.674288 207.325522 
L 909.970582 206.659054 
L 910.266877 207.039714 
L 910.563171 201.278944 
L 911.148162 206.611315 
L 911.740751 202.374124 
L 912.325742 206.992288 
L 912.918331 209.420404 
L 913.214625 207.80166 
L 913.799617 198.279525 
L 914.095911 196.327546 
L 914.984794 204.13546 
L 915.273491 204.326102 
L 915.86608 206.992288 
L 916.162374 208.325224 
L 916.458668 208.515555 
L 916.747365 208.849101 
L 917.636248 211.229479 
L 917.636248 211.229479 
" clip-path="url(#p094e0f37fb)" style="fill: none; stroke: #2563eb; stroke-opacity: 0.95; stroke-width: 0.936; stroke-linecap: square"/>
   </g>
   <g id="patch_23">
    <path d="M 33.604375 228.954713 
L 33.604375 17.061433 
" style="fill: none; stroke: #cbd5e1; stroke-width: 0.8; stroke-linejoin: miter; stroke-linecap: square"/>
   </g>
   <g id="patch_24">
    <path d="M 935.316875 228.954713 
L 935.316875 17.061433 
" style="fill: none; stroke: #cbd5e1; stroke-width: 0.8; stroke-linejoin: miter; stroke-linecap: square"/>
   </g>
   <g id="patch_25">
    <path d="M 33.604375 228.954713 
L 935.316875 228.954713 
" style="fill: none; stroke: #cbd5e1; stroke-width: 0.8; stroke-linejoin: miter; stroke-linecap: square"/>
   </g>
   <g id="patch_26">
    <path d="M 33.604375 17.061433 
L 935.316875 17.061433 
" style="fill: none; stroke: #cbd5e1; stroke-width: 0.8; stroke-linejoin: miter; stroke-linecap: square"/>
   </g>
   <g id="text_18">
    <!-- ACC -->
    <g style="fill: #475569" transform="translate(116.519359 13.27875) scale(0.08 -0.08)">
     <defs>
      <path id="DejaVuSans-43" d="M 4122 4306 
L 4122 3641 
Q 3803 3938 3442 4084 
Q 3081 4231 2675 4231 
Q 1875 4231 1450 3742 
Q 1025 3253 1025 2328 
Q 1025 1406 1450 917 
Q 1875 428 2675 428 
Q 3081 428 3442 575 
Q 3803 722 4122 1019 
L 4122 359 
Q 3791 134 3420 21 
Q 3050 -91 2638 -91 
Q 1578 -91 968 557 
Q 359 1206 359 2328 
Q 359 3453 968 4101 
Q 1578 4750 2638 4750 
Q 3056 4750 3426 4639 
Q 3797 4528 4122 4306 
z
" transform="scale(0.015625)"/>
     </defs>
     <use xlink:href="#DejaVuSans-41"/>
     <use xlink:href="#DejaVuSans-43" transform="translate(66.658203 0)"/>
     <use xlink:href="#DejaVuSans-43" transform="translate(136.482422 0)"/>
    </g>
   </g>
   <g id="text_19">
    <!-- OC -->
    <g style="fill: #475569" transform="translate(223.672591 13.27875) scale(0.08 -0.08)">
     <defs>
      <path id="DejaVuSans-4f" d="M 2522 4238 
Q 1834 4238 1429 3725 
Q 1025 3213 1025 2328 
Q 1025 1447 1429 934 
Q 1834 422 2522 422 
Q 3209 422 3611 934 
Q 4013 1447 4013 2328 
Q 4013 3213 3611 3725 
Q 3209 4238 2522 4238 
z
M 2522 4750 
Q 3503 4750 4090 4092 
Q 4678 3434 4678 2328 
Q 4678 1225 4090 567 
Q 3503 -91 2522 -91 
Q 1538 -91 948 565 
Q 359 1222 359 2328 
Q 359 3434 948 4092 
Q 1538 4750 2522 4750 
z
" transform="scale(0.015625)"/>
     </defs>
     <use xlink:href="#DejaVuSans-4f"/>
     <use xlink:href="#DejaVuSans-43" transform="translate(78.710938 0)"/>
    </g>
   </g>
   <g id="text_20">
    <!-- FCS -->
    <g style="fill: #475569" transform="translate(249.331586 13.27875) scale(0.08 -0.08)">
     <defs>
      <path id="DejaVuSans-46" d="M 628 4666 
L 3309 4666 
L 3309 4134 
L 1259 4134 
L 1259 2759 
L 3109 2759 
L 3109 2228 
L 1259 2228 
L 1259 0 
L 628 0 
L 628 4666 
z
" transform="scale(0.015625)"/>
      <path id="DejaVuSans-53" d="M 3425 4513 
L 3425 3897 
Q 3066 4069 2747 4153 
Q 2428 4238 2131 4238 
Q 1616 4238 1336 4038 
Q 1056 3838 1056 3469 
Q 1056 3159 1242 3001 
Q 1428 2844 1947 2747 
L 2328 2669 
Q 3034 2534 3370 2195 
Q 3706 1856 3706 1288 
Q 3706 609 3251 259 
Q 2797 -91 1919 -91 
Q 1588 -91 1214 -16 
Q 841 59 441 206 
L 441 856 
Q 825 641 1194 531 
Q 1563 422 1919 422 
Q 2459 422 2753 634 
Q 3047 847 3047 1241 
Q 3047 1584 2836 1778 
Q 2625 1972 2144 2069 
L 1759 2144 
Q 1053 2284 737 2584 
Q 422 2884 422 3419 
Q 422 4038 858 4394 
Q 1294 4750 2059 4750 
Q 2388 4750 2728 4690 
Q 3069 4631 3425 4513 
z
" transform="scale(0.015625)"/>
     </defs>
     <use xlink:href="#DejaVuSans-46"/>
     <use xlink:href="#DejaVuSans-43" transform="translate(57.519531 0)"/>
     <use xlink:href="#DejaVuSans-53" transform="translate(127.34375 0)"/>
    </g>
   </g>
   <g id="text_21">
    <!-- SR -->
    <g style="fill: #475569" transform="translate(281.275394 13.27875) scale(0.08 -0.08)">
     <defs>
      <path id="DejaVuSans-52" d="M 2841 2188 
Q 3044 2119 3236 1894 
Q 3428 1669 3622 1275 
L 4263 0 
L 3584 0 
L 2988 1197 
Q 2756 1666 2539 1819 
Q 2322 1972 1947 1972 
L 1259 1972 
L 1259 0 
L 628 0 
L 628 4666 
L 2053 4666 
Q 2853 4666 3247 4331 
Q 3641 3997 3641 3322 
Q 3641 2881 3436 2590 
Q 3231 2300 2841 2188 
z
M 1259 4147 
L 1259 2491 
L 2053 2491 
Q 2509 2491 2742 2702 
Q 2975 2913 2975 3322 
Q 2975 3731 2742 3939 
Q 2509 4147 2053 4147 
L 1259 4147 
z
" transform="scale(0.015625)"/>
     </defs>
     <use xlink:href="#DejaVuSans-53"/>
     <use xlink:href="#DejaVuSans-52" transform="translate(63.476562 0)"/>
    </g>
   </g>
   <g id="text_22">
    <!-- FFC -->
    <g style="fill: #475569" transform="translate(320.225137 13.27875) scale(0.08 -0.08)">
     <use xlink:href="#DejaVuSans-46"/>
     <use xlink:href="#DejaVuSans-46" transform="translate(57.519531 0)"/>
     <use xlink:href="#DejaVuSans-43" transform="translate(115.039062 0)"/>
    </g>
   </g>
   <g id="text_23">
    <!-- SS -->
    <g style="fill: #475569" transform="translate(411.429059 13.27875) scale(0.08 -0.08)">
     <use xlink:href="#DejaVuSans-53"/>
     <use xlink:href="#DejaVuSans-53" transform="translate(63.476562 0)"/>
    </g>
   </g>
   <g id="text_24">
    <!-- OC -->
    <g style="fill: #475569" transform="translate(481.220734 13.27875) scale(0.08 -0.08)">
     <use xlink:href="#DejaVuSans-4f"/>
     <use xlink:href="#DejaVuSans-43" transform="translate(78.710938 0)"/>
    </g>
   </g>
   <g id="text_25">
    <!-- FCS -->
    <g style="fill: #475569" transform="translate(504.600542 13.27875) scale(0.08 -0.08)">
     <use xlink:href="#DejaVuSans-46"/>
     <use xlink:href="#DejaVuSans-43" transform="translate(57.519531 0)"/>
     <use xlink:href="#DejaVuSans-53" transform="translate(127.34375 0)"/>
    </g>
   </g>
   <g id="text_26">
    <!-- SR -->
    <g style="fill: #475569" transform="translate(538.823537 13.27875) scale(0.08 -0.08)">
     <use xlink:href="#DejaVuSans-53"/>
     <use xlink:href="#DejaVuSans-52" transform="translate(63.476562 0)"/>
    </g>
   </g>
   <g id="text_27">
    <!-- FFC -->
    <g style="fill: #475569" transform="translate(577.773279 13.27875) scale(0.08 -0.08)">
     <use xlink:href="#DejaVuSans-46"/>
     <use xlink:href="#DejaVuSans-46" transform="translate(57.519531 0)"/>
     <use xlink:href="#DejaVuSans-43" transform="translate(115.039062 0)"/>
    </g>
   </g>
   <g id="text_28">
    <!-- SS -->
    <g style="fill: #475569" transform="translate(666.698014 13.27875) scale(0.08 -0.08)">
     <use xlink:href="#DejaVuSans-53"/>
     <use xlink:href="#DejaVuSans-53" transform="translate(63.476562 0)"/>
    </g>
   </g>
   <g id="text_29">
    <!-- OC -->
    <g style="fill: #475569" transform="translate(736.48969 13.27875) scale(0.08 -0.08)">
     <use xlink:href="#DejaVuSans-4f"/>
     <use xlink:href="#DejaVuSans-43" transform="translate(78.710938 0)"/>
    </g>
   </g>
   <g id="text_30">
    <!-- FCS -->
    <g style="fill: #475569" transform="translate(759.869498 13.27875) scale(0.08 -0.08)">
     <use xlink:href="#DejaVuSans-46"/>
     <use xlink:href="#DejaVuSans-43" transform="translate(57.519531 0)"/>
     <use xlink:href="#DejaVuSans-53" transform="translate(127.34375 0)"/>
    </g>
   </g>
   <g id="text_31">
    <!-- SR -->
    <g style="fill: #475569" transform="translate(791.813305 13.27875) scale(0.08 -0.08)">
     <use xlink:href="#DejaVuSans-53"/>
     <use xlink:href="#DejaVuSans-52" transform="translate(63.476562 0)"/>
    </g>
   </g>
   <g id="text_32">
    <!-- FFC -->
    <g style="fill: #475569" transform="translate(830.763048 13.27875) scale(0.08 -0.08)">
     <use xlink:href="#DejaVuSans-46"/>
     <use xlink:href="#DejaVuSans-46" transform="translate(57.519531 0)"/>
     <use xlink:href="#DejaVuSans-43" transform="translate(115.039062 0)"/>
    </g>
   </g>
   <g id="text_33">
    <!-- SS -->
    <g style="fill: #475569" transform="translate(885.499977 13.27875) scale(0.08 -0.08)">
     <use xlink:href="#DejaVuSans-53"/>
     <use xlink:href="#DejaVuSans-53" transform="translate(63.476562 0)"/>
    </g>
   </g>
   <g id="legend_1">
    <g id="line2d_32">
     <path d="M 889.169375 27.540183 
L 897.169375 27.540183 
L 905.169375 27.540183 
" style="fill: none; stroke: #2563eb; stroke-opacity: 0.95; stroke-width: 1.3; stroke-linecap: square"/>
    </g>
    <g id="text_34">
     <!-- EDA -->
     <g transform="translate(911.569375 30.340183) scale(0.08 -0.08)">
      <use xlink:href="#DejaVuSans-45"/>
      <use xlink:href="#DejaVuSans-44" transform="translate(63.183594 0)"/>
      <use xlink:href="#DejaVuSans-41" transform="translate(138.435547 0)"/>
     </g>
    </g>
   </g>
  </g>
 </g>
 <defs>
  <clipPath id="p094e0f37fb">
   <rect x="33.604375" y="17.061433" width="901.7125" height="211.89328"/>
  </clipPath>
 </defs>
</svg>
