<?xml version="1.0" encoding="utf-8" standalone="no"?>
<!DOCTYPE svg PUBLIC "-//W3C//DTD SVG 1.1//EN"
  "http://www.w3.org/Graphics/SVG/1.1/DTD/svg11.dtd">
<svg xmlns:xlink="http://www.w3.org/1999/xlink" width="971.353438pt" height="294.407173pt" viewBox="0 0 971.353438 294.407173" xmlns="http://www.w3.org/2000/svg" version="1.1">
 <metadata>
  <rdf:RDF xmlns:dc="http://purl.org/dc/elements/1.1/" xmlns:cc="http://creativecommons.org/ns#" xmlns:rdf="http://www.w3.org/1999/02/22-rdf-syntax-ns#">
   <cc:Work>
    <dc:type rdf:resource="http://purl.org/dc/dcmitype/StillImage"/>
    <dc:date>2026-04-17T17:29:32.601783</dc:date>
    <dc:format>image/svg+xml</dc:format>
    <dc:creator>
     <cc:Agent>
      <dc:title>Matplotlib v3.10.8, https://matplotlib.org/</dc:title>
     </cc:Agent>
    </dc:creator>
   </cc:Work>
  </rdf:RDF>
 </metadata>
 <defs>
  <style type="text/css">*{stroke-linejoin: round; stroke-linecap: butt}</style>
 </defs>
 <g id="figure_1">
  <g id="patch_1">
   <path d="M 0 294.407173 
L 971.353438 294.407173 
L 971.353438 0 
L 0 0 
z
" style="fill: #ffffff"/>
  </g>
  <g id="axes_1">
   <g id="patch_2">
    <path d="M 42.190938 257.818735 
L 964.153437 257.818735 
L 964.153437 17.347215 
L 42.190938 17.347215 
z
" style="fill: #ffffff"/>
   </g>
   <g id="patch_3">
    <path d="M 42.190938 257.818735 
L 59.920986 257.818735 
L 59.920986 17.347215 
L 42.190938 17.347215 
z
" clip-path="url(#p7784641a7a)" style="fill: #f8fafc; opacity: 0.45"/>
   </g>
   <g id="patch_4">
    <path d="M 59.920986 257.818735 
L 94.685786 257.818735 
L 94.685786 17.347215 
L 59.920986 17.347215 
z
" clip-path="url(#p7784641a7a)" style="fill: #eff6ff; opacity: 0.45"/>
   </g>
   <g id="patch_5">
    <path d="M 94.685786 257.818735 
L 129.450586 257.818735 
L 129.450586 17.347215 
L 94.685786 17.347215 
z
" clip-path="url(#p7784641a7a)" style="fill: #fef3c7; opacity: 0.45"/>
   </g>
   <g id="patch_6">
    <path d="M 129.450586 257.818735 
L 164.215386 257.818735 
L 164.215386 17.347215 
L 129.450586 17.347215 
z
" clip-path="url(#p7784641a7a)" style="fill: #dcfce7; opacity: 0.45"/>
   </g>
   <g id="patch_7">
    <path d="M 164.215386 257.818735 
L 227.950853 257.818735 
L 227.950853 17.347215 
L 164.215386 17.347215 
z
" clip-path="url(#p7784641a7a)" style="fill: #fee2e2; opacity: 0.45"/>
   </g>
   <g id="patch_8">
    <path d="M 227.950853 257.818735 
L 239.53912 257.818735 
L 239.53912 17.347215 
L 227.950853 17.347215 
z
" clip-path="url(#p7784641a7a)" style="fill: #ede9fe; opacity: 0.45"/>
   </g>
   <g id="patch_9">
    <path d="M 239.53912 257.818735 
L 390.186587 257.818735 
L 390.186587 17.347215 
L 239.53912 17.347215 
z
" clip-path="url(#p7784641a7a)" style="fill: #f8fafc; opacity: 0.45"/>
   </g>
   <g id="patch_10">
    <path d="M 390.186587 257.818735 
L 419.157254 257.818735 
L 419.157254 17.347215 
L 390.186587 17.347215 
z
" clip-path="url(#p7784641a7a)" style="fill: #eff6ff; opacity: 0.45"/>
   </g>
   <g id="patch_11">
    <path d="M 419.157254 257.818735 
L 453.922054 257.818735 
L 453.922054 17.347215 
L 419.157254 17.347215 
z
" clip-path="url(#p7784641a7a)" style="fill: #fef3c7; opacity: 0.45"/>
   </g>
   <g id="patch_12">
    <path d="M 453.922054 257.818735 
L 494.480987 257.818735 
L 494.480987 17.347215 
L 453.922054 17.347215 
z
" clip-path="url(#p7784641a7a)" style="fill: #dcfce7; opacity: 0.45"/>
   </g>
   <g id="patch_13">
    <path d="M 494.480987 257.818735 
L 552.422321 257.818735 
L 552.422321 17.347215 
L 494.480987 17.347215 
z
" clip-path="url(#p7784641a7a)" style="fill: #fee2e2; opacity: 0.45"/>
   </g>
   <g id="patch_14">
    <path d="M 552.422321 257.818735 
L 564.010588 257.818735 
L 564.010588 17.347215 
L 552.422321 17.347215 
z
" clip-path="url(#p7784641a7a)" style="fill: #ede9fe; opacity: 0.45"/>
   </g>
   <g id="patch_15">
    <path d="M 564.010588 257.818735 
L 714.658055 257.818735 
L 714.658055 17.347215 
L 564.010588 17.347215 
z
" clip-path="url(#p7784641a7a)" style="fill: #f8fafc; opacity: 0.45"/>
   </g>
   <g id="patch_16">
    <path d="M 714.658055 257.818735 
L 743.628722 257.818735 
L 743.628722 17.347215 
L 714.658055 17.347215 
z
" clip-path="url(#p7784641a7a)" style="fill: #eff6ff; opacity: 0.45"/>
   </g>
   <g id="patch_17">
    <path d="M 743.628722 257.818735 
L 778.393522 257.818735 
L 778.393522 17.347215 
L 743.628722 17.347215 
z
" clip-path="url(#p7784641a7a)" style="fill: #fef3c7; opacity: 0.45"/>
   </g>
   <g id="patch_18">
    <path d="M 778.393522 257.818735 
L 818.952456 257.818735 
L 818.952456 17.347215 
L 778.393522 17.347215 
z
" clip-path="url(#p7784641a7a)" style="fill: #dcfce7; opacity: 0.45"/>
   </g>
   <g id="patch_19">
    <path d="M 818.952456 257.818735 
L 876.893789 257.818735 
L 876.893789 17.347215 
L 818.952456 17.347215 
z
" clip-path="url(#p7784641a7a)" style="fill: #fee2e2; opacity: 0.45"/>
   </g>
   <g id="patch_20">
    <path d="M 876.893789 257.818735 
L 888.482056 257.818735 
L 888.482056 17.347215 
L 876.893789 17.347215 
z
" clip-path="url(#p7784641a7a)" style="fill: #ede9fe; opacity: 0.45"/>
   </g>
   <g id="patch_21">
    <path d="M 888.482056 257.818735 
L 946.423389 257.818735 
L 946.423389 17.347215 
L 888.482056 17.347215 
z
" clip-path="url(#p7784641a7a)" style="fill: #f8fafc; opacity: 0.45"/>
   </g>
   <g id="patch_22">
    <path d="M 946.423389 257.818735 
L 952.217523 257.818735 
L 952.217523 17.347215 
L 946.423389 17.347215 
z
" clip-path="url(#p7784641a7a)" style="fill: #eff6ff; opacity: 0.45"/>
   </g>
   <g id="matplotlib.axis_1">
    <g id="xtick_1">
     <g id="line2d_1">
      <path d="M 59.920986 257.818735 
L 59.920986 17.347215 
" clip-path="url(#p7784641a7a)" style="fill: none; stroke: #eef2f7; stroke-width: 0.55; stroke-linecap: square"/>
     </g>
     <g id="line2d_2">
      <defs>
       <path id="med2c5471c8" d="M 0 0 
L 0 3.5 
" style="stroke: #000000; stroke-width: 0.8"/>
      </defs>
      <g>
       <use xlink:href="#med2c5471c8" x="59.920986" y="257.818735" style="stroke: #000000; stroke-width: 0.8"/>
      </g>
     </g>
     <g id="text_1">
      <!-- 40 -->
      <g transform="translate(54.194736 271.657329) scale(0.09 -0.09)">
       <defs>
        <path id="DejaVuSans-34" d="M 2419 4116 
L 825 1625 
L 2419 1625 
L 2419 4116 
z
M 2253 4666 
L 3047 4666 
L 3047 1625 
L 3713 1625 
L 3713 1100 
L 3047 1100 
L 3047 0 
L 2419 0 
L 2419 1100 
L 313 1100 
L 313 1709 
L 2253 4666 
z
" transform="scale(0.015625)"/>
        <path id="DejaVuSans-30" d="M 2034 4250 
Q 1547 4250 1301 3770 
Q 1056 3291 1056 2328 
Q 1056 1369 1301 889 
Q 1547 409 2034 409 
Q 2525 409 2770 889 
Q 3016 1369 3016 2328 
Q 3016 3291 2770 3770 
Q 2525 4250 2034 4250 
z
M 2034 4750 
Q 2819 4750 3233 4129 
Q 3647 3509 3647 2328 
Q 3647 1150 3233 529 
Q 2819 -91 2034 -91 
Q 1250 -91 836 529 
Q 422 1150 422 2328 
Q 422 3509 836 4129 
Q 1250 4750 2034 4750 
z
" transform="scale(0.015625)"/>
       </defs>
       <use xlink:href="#DejaVuSans-34"/>
       <use xlink:href="#DejaVuSans-30" transform="translate(63.623047 0)"/>
      </g>
     </g>
    </g>
    <g id="xtick_2">
     <g id="line2d_3">
      <path d="M 175.803653 257.818735 
L 175.803653 17.347215 
" clip-path="url(#p7784641a7a)" style="fill: none; stroke: #eef2f7; stroke-width: 0.55; stroke-linecap: square"/>
     </g>
     <g id="line2d_4">
      <g>
       <use xlink:href="#med2c5471c8" x="175.803653" y="257.818735" style="stroke: #000000; stroke-width: 0.8"/>
      </g>
     </g>
     <g id="text_2">
      <!-- 60 -->
      <g transform="translate(170.077403 271.657329) scale(0.09 -0.09)">
       <defs>
        <path id="DejaVuSans-36" d="M 2113 2584 
Q 1688 2584 1439 2293 
Q 1191 2003 1191 1497 
Q 1191 994 1439 701 
Q 1688 409 2113 409 
Q 2538 409 2786 701 
Q 3034 994 3034 1497 
Q 3034 2003 2786 2293 
Q 2538 2584 2113 2584 
z
M 3366 4563 
L 3366 3988 
Q 3128 4100 2886 4159 
Q 2644 4219 2406 4219 
Q 1781 4219 1451 3797 
Q 1122 3375 1075 2522 
Q 1259 2794 1537 2939 
Q 1816 3084 2150 3084 
Q 2853 3084 3261 2657 
Q 3669 2231 3669 1497 
Q 3669 778 3244 343 
Q 2819 -91 2113 -91 
Q 1303 -91 875 529 
Q 447 1150 447 2328 
Q 447 3434 972 4092 
Q 1497 4750 2381 4750 
Q 2619 4750 2861 4703 
Q 3103 4656 3366 4563 
z
" transform="scale(0.015625)"/>
       </defs>
       <use xlink:href="#DejaVuSans-36"/>
       <use xlink:href="#DejaVuSans-30" transform="translate(63.623047 0)"/>
      </g>
     </g>
    </g>
    <g id="xtick_3">
     <g id="line2d_5">
      <path d="M 291.68632 257.818735 
L 291.68632 17.347215 
" clip-path="url(#p7784641a7a)" style="fill: none; stroke: #eef2f7; stroke-width: 0.55; stroke-linecap: square"/>
     </g>
     <g id="line2d_6">
      <g>
       <use xlink:href="#med2c5471c8" x="291.68632" y="257.818735" style="stroke: #000000; stroke-width: 0.8"/>
      </g>
     </g>
     <g id="text_3">
      <!-- 80 -->
      <g transform="translate(285.96007 271.657329) scale(0.09 -0.09)">
       <defs>
        <path id="DejaVuSans-38" d="M 2034 2216 
Q 1584 2216 1326 1975 
Q 1069 1734 1069 1313 
Q 1069 891 1326 650 
Q 1584 409 2034 409 
Q 2484 409 2743 651 
Q 3003 894 3003 1313 
Q 3003 1734 2745 1975 
Q 2488 2216 2034 2216 
z
M 1403 2484 
Q 997 2584 770 2862 
Q 544 3141 544 3541 
Q 544 4100 942 4425 
Q 1341 4750 2034 4750 
Q 2731 4750 3128 4425 
Q 3525 4100 3525 3541 
Q 3525 3141 3298 2862 
Q 3072 2584 2669 2484 
Q 3125 2378 3379 2068 
Q 3634 1759 3634 1313 
Q 3634 634 3220 271 
Q 2806 -91 2034 -91 
Q 1263 -91 848 271 
Q 434 634 434 1313 
Q 434 1759 690 2068 
Q 947 2378 1403 2484 
z
M 1172 3481 
Q 1172 3119 1398 2916 
Q 1625 2713 2034 2713 
Q 2441 2713 2670 2916 
Q 2900 3119 2900 3481 
Q 2900 3844 2670 4047 
Q 2441 4250 2034 4250 
Q 1625 4250 1398 4047 
Q 1172 3844 1172 3481 
z
" transform="scale(0.015625)"/>
       </defs>
       <use xlink:href="#DejaVuSans-38"/>
       <use xlink:href="#DejaVuSans-30" transform="translate(63.623047 0)"/>
      </g>
     </g>
    </g>
    <g id="xtick_4">
     <g id="line2d_7">
      <path d="M 407.568987 257.818735 
L 407.568987 17.347215 
" clip-path="url(#p7784641a7a)" style="fill: none; stroke: #eef2f7; stroke-width: 0.55; stroke-linecap: square"/>
     </g>
     <g id="line2d_8">
      <g>
       <use xlink:href="#med2c5471c8" x="407.568987" y="257.818735" style="stroke: #000000; stroke-width: 0.8"/>
      </g>
     </g>
     <g id="text_4">
      <!-- 100 -->
      <g transform="translate(398.979612 271.657329) scale(0.09 -0.09)">
       <defs>
        <path id="DejaVuSans-31" d="M 794 531 
L 1825 531 
L 1825 4091 
L 703 3866 
L 703 4441 
L 1819 4666 
L 2450 4666 
L 2450 531 
L 3481 531 
L 3481 0 
L 794 0 
L 794 531 
z
" transform="scale(0.015625)"/>
       </defs>
       <use xlink:href="#DejaVuSans-31"/>
       <use xlink:href="#DejaVuSans-30" transform="translate(63.623047 0)"/>
       <use xlink:href="#DejaVuSans-30" transform="translate(127.246094 0)"/>
      </g>
     </g>
    </g>
    <g id="xtick_5">
     <g id="line2d_9">
      <path d="M 523.451654 257.818735 
L 523.451654 17.347215 
" clip-path="url(#p7784641a7a)" style="fill: none; stroke: #eef2f7; stroke-width: 0.55; stroke-linecap: square"/>
     </g>
     <g id="line2d_10">
      <g>
       <use xlink:href="#med2c5471c8" x="523.451654" y="257.818735" style="stroke: #000000; stroke-width: 0.8"/>
      </g>
     </g>
     <g id="text_5">
      <!-- 120 -->
      <g transform="translate(514.862279 271.657329) scale(0.09 -0.09)">
       <defs>
        <path id="DejaVuSans-32" d="M 1228 531 
L 3431 531 
L 3431 0 
L 469 0 
L 469 531 
Q 828 903 1448 1529 
Q 2069 2156 2228 2338 
Q 2531 2678 2651 2914 
Q 2772 3150 2772 3378 
Q 2772 3750 2511 3984 
Q 2250 4219 1831 4219 
Q 1534 4219 1204 4116 
Q 875 4013 500 3803 
L 500 4441 
Q 881 4594 1212 4672 
Q 1544 4750 1819 4750 
Q 2544 4750 2975 4387 
Q 3406 4025 3406 3419 
Q 3406 3131 3298 2873 
Q 3191 2616 2906 2266 
Q 2828 2175 2409 1742 
Q 1991 1309 1228 531 
z
" transform="scale(0.015625)"/>
       </defs>
       <use xlink:href="#DejaVuSans-31"/>
       <use xlink:href="#DejaVuSans-32" transform="translate(63.623047 0)"/>
       <use xlink:href="#DejaVuSans-30" transform="translate(127.246094 0)"/>
      </g>
     </g>
    </g>
    <g id="xtick_6">
     <g id="line2d_11">
      <path d="M 639.334321 257.818735 
L 639.334321 17.347215 
" clip-path="url(#p7784641a7a)" style="fill: none; stroke: #eef2f7; stroke-width: 0.55; stroke-linecap: square"/>
     </g>
     <g id="line2d_12">
      <g>
       <use xlink:href="#med2c5471c8" x="639.334321" y="257.818735" style="stroke: #000000; stroke-width: 0.8"/>
      </g>
     </g>
     <g id="text_6">
      <!-- 140 -->
      <g transform="translate(630.744946 271.657329) scale(0.09 -0.09)">
       <use xlink:href="#DejaVuSans-31"/>
       <use xlink:href="#DejaVuSans-34" transform="translate(63.623047 0)"/>
       <use xlink:href="#DejaVuSans-30" transform="translate(127.246094 0)"/>
      </g>
     </g>
    </g>
    <g id="xtick_7">
     <g id="line2d_13">
      <path d="M 755.216989 257.818735 
L 755.216989 17.347215 
" clip-path="url(#p7784641a7a)" style="fill: none; stroke: #eef2f7; stroke-width: 0.55; stroke-linecap: square"/>
     </g>
     <g id="line2d_14">
      <g>
       <use xlink:href="#med2c5471c8" x="755.216989" y="257.818735" style="stroke: #000000; stroke-width: 0.8"/>
      </g>
     </g>
     <g id="text_7">
      <!-- 160 -->
      <g transform="translate(746.627614 271.657329) scale(0.09 -0.09)">
       <use xlink:href="#DejaVuSans-31"/>
       <use xlink:href="#DejaVuSans-36" transform="translate(63.623047 0)"/>
       <use xlink:href="#DejaVuSans-30" transform="translate(127.246094 0)"/>
      </g>
     </g>
    </g>
    <g id="xtick_8">
     <g id="line2d_15">
      <path d="M 871.099656 257.818735 
L 871.099656 17.347215 
" clip-path="url(#p7784641a7a)" style="fill: none; stroke: #eef2f7; stroke-width: 0.55; stroke-linecap: square"/>
     </g>
     <g id="line2d_16">
      <g>
       <use xlink:href="#med2c5471c8" x="871.099656" y="257.818735" style="stroke: #000000; stroke-width: 0.8"/>
      </g>
     </g>
     <g id="text_8">
      <!-- 180 -->
      <g transform="translate(862.510281 271.657329) scale(0.09 -0.09)">
       <use xlink:href="#DejaVuSans-31"/>
       <use xlink:href="#DejaVuSans-38" transform="translate(63.623047 0)"/>
       <use xlink:href="#DejaVuSans-30" transform="translate(127.246094 0)"/>
      </g>
     </g>
    </g>
    <g id="text_9">
     <!-- Minutes since session start -->
     <g transform="translate(435.582344 285.127485) scale(0.1 -0.1)">
      <defs>
       <path id="DejaVuSans-4d" d="M 628 4666 
L 1569 4666 
L 2759 1491 
L 3956 4666 
L 4897 4666 
L 4897 0 
L 4281 0 
L 4281 4097 
L 3078 897 
L 2444 897 
L 1241 4097 
L 1241 0 
L 628 0 
L 628 4666 
z
" transform="scale(0.015625)"/>
       <path id="DejaVuSans-69" d="M 603 3500 
L 1178 3500 
L 1178 0 
L 603 0 
L 603 3500 
z
M 603 4863 
L 1178 4863 
L 1178 4134 
L 603 4134 
L 603 4863 
z
" transform="scale(0.015625)"/>
       <path id="DejaVuSans-6e" d="M 3513 2113 
L 3513 0 
L 2938 0 
L 2938 2094 
Q 2938 2591 2744 2837 
Q 2550 3084 2163 3084 
Q 1697 3084 1428 2787 
Q 1159 2491 1159 1978 
L 1159 0 
L 581 0 
L 581 3500 
L 1159 3500 
L 1159 2956 
Q 1366 3272 1645 3428 
Q 1925 3584 2291 3584 
Q 2894 3584 3203 3211 
Q 3513 2838 3513 2113 
z
" transform="scale(0.015625)"/>
       <path id="DejaVuSans-75" d="M 544 1381 
L 544 3500 
L 1119 3500 
L 1119 1403 
Q 1119 906 1312 657 
Q 1506 409 1894 409 
Q 2359 409 2629 706 
Q 2900 1003 2900 1516 
L 2900 3500 
L 3475 3500 
L 3475 0 
L 2900 0 
L 2900 538 
Q 2691 219 2414 64 
Q 2138 -91 1772 -91 
Q 1169 -91 856 284 
Q 544 659 544 1381 
z
M 1991 3584 
L 1991 3584 
z
" transform="scale(0.015625)"/>
       <path id="DejaVuSans-74" d="M 1172 4494 
L 1172 3500 
L 2356 3500 
L 2356 3053 
L 1172 3053 
L 1172 1153 
Q 1172 725 1289 603 
Q 1406 481 1766 481 
L 2356 481 
L 2356 0 
L 1766 0 
Q 1100 0 847 248 
Q 594 497 594 1153 
L 594 3053 
L 172 3053 
L 172 3500 
L 594 3500 
L 594 4494 
L 1172 4494 
z
" transform="scale(0.015625)"/>
       <path id="DejaVuSans-65" d="M 3597 1894 
L 3597 1613 
L 953 1613 
Q 991 1019 1311 708 
Q 1631 397 2203 397 
Q 2534 397 2845 478 
Q 3156 559 3463 722 
L 3463 178 
Q 3153 47 2828 -22 
Q 2503 -91 2169 -91 
Q 1331 -91 842 396 
Q 353 884 353 1716 
Q 353 2575 817 3079 
Q 1281 3584 2069 3584 
Q 2775 3584 3186 3129 
Q 3597 2675 3597 1894 
z
M 3022 2063 
Q 3016 2534 2758 2815 
Q 2500 3097 2075 3097 
Q 1594 3097 1305 2825 
Q 1016 2553 972 2059 
L 3022 2063 
z
" transform="scale(0.015625)"/>
       <path id="DejaVuSans-73" d="M 2834 3397 
L 2834 2853 
Q 2591 2978 2328 3040 
Q 2066 3103 1784 3103 
Q 1356 3103 1142 2972 
Q 928 2841 928 2578 
Q 928 2378 1081 2264 
Q 1234 2150 1697 2047 
L 1894 2003 
Q 2506 1872 2764 1633 
Q 3022 1394 3022 966 
Q 3022 478 2636 193 
Q 2250 -91 1575 -91 
Q 1294 -91 989 -36 
Q 684 19 347 128 
L 347 722 
Q 666 556 975 473 
Q 1284 391 1588 391 
Q 1994 391 2212 530 
Q 2431 669 2431 922 
Q 2431 1156 2273 1281 
Q 2116 1406 1581 1522 
L 1381 1569 
Q 847 1681 609 1914 
Q 372 2147 372 2553 
Q 372 3047 722 3315 
Q 1072 3584 1716 3584 
Q 2034 3584 2315 3537 
Q 2597 3491 2834 3397 
z
" transform="scale(0.015625)"/>
       <path id="DejaVuSans-20" transform="scale(0.015625)"/>
       <path id="DejaVuSans-63" d="M 3122 3366 
L 3122 2828 
Q 2878 2963 2633 3030 
Q 2388 3097 2138 3097 
Q 1578 3097 1268 2742 
Q 959 2388 959 1747 
Q 959 1106 1268 751 
Q 1578 397 2138 397 
Q 2388 397 2633 464 
Q 2878 531 3122 666 
L 3122 134 
Q 2881 22 2623 -34 
Q 2366 -91 2075 -91 
Q 1284 -91 818 406 
Q 353 903 353 1747 
Q 353 2603 823 3093 
Q 1294 3584 2113 3584 
Q 2378 3584 2631 3529 
Q 2884 3475 3122 3366 
z
" transform="scale(0.015625)"/>
       <path id="DejaVuSans-6f" d="M 1959 3097 
Q 1497 3097 1228 2736 
Q 959 2375 959 1747 
Q 959 1119 1226 758 
Q 1494 397 1959 397 
Q 2419 397 2687 759 
Q 2956 1122 2956 1747 
Q 2956 2369 2687 2733 
Q 2419 3097 1959 3097 
z
M 1959 3584 
Q 2709 3584 3137 3096 
Q 3566 2609 3566 1747 
Q 3566 888 3137 398 
Q 2709 -91 1959 -91 
Q 1206 -91 779 398 
Q 353 888 353 1747 
Q 353 2609 779 3096 
Q 1206 3584 1959 3584 
z
" transform="scale(0.015625)"/>
       <path id="DejaVuSans-61" d="M 2194 1759 
Q 1497 1759 1228 1600 
Q 959 1441 959 1056 
Q 959 750 1161 570 
Q 1363 391 1709 391 
Q 2188 391 2477 730 
Q 2766 1069 2766 1631 
L 2766 1759 
L 2194 1759 
z
M 3341 1997 
L 3341 0 
L 2766 0 
L 2766 531 
Q 2569 213 2275 61 
Q 1981 -91 1556 -91 
Q 1019 -91 701 211 
Q 384 513 384 1019 
Q 384 1609 779 1909 
Q 1175 2209 1959 2209 
L 2766 2209 
L 2766 2266 
Q 2766 2663 2505 2880 
Q 2244 3097 1772 3097 
Q 1472 3097 1187 3025 
Q 903 2953 641 2809 
L 641 3341 
Q 956 3463 1253 3523 
Q 1550 3584 1831 3584 
Q 2591 3584 2966 3190 
Q 3341 2797 3341 1997 
z
" transform="scale(0.015625)"/>
       <path id="DejaVuSans-72" d="M 2631 2963 
Q 2534 3019 2420 3045 
Q 2306 3072 2169 3072 
Q 1681 3072 1420 2755 
Q 1159 2438 1159 1844 
L 1159 0 
L 581 0 
L 581 3500 
L 1159 3500 
L 1159 2956 
Q 1341 3275 1631 3429 
Q 1922 3584 2338 3584 
Q 2397 3584 2469 3576 
Q 2541 3569 2628 3553 
L 2631 2963 
z
" transform="scale(0.015625)"/>
      </defs>
      <use xlink:href="#DejaVuSans-4d"/>
      <use xlink:href="#DejaVuSans-69" transform="translate(86.279297 0)"/>
      <use xlink:href="#DejaVuSans-6e" transform="translate(114.0625 0)"/>
      <use xlink:href="#DejaVuSans-75" transform="translate(177.441406 0)"/>
      <use xlink:href="#DejaVuSans-74" transform="translate(240.820312 0)"/>
      <use xlink:href="#DejaVuSans-65" transform="translate(280.029297 0)"/>
      <use xlink:href="#DejaVuSans-73" transform="translate(341.552734 0)"/>
      <use xlink:href="#DejaVuSans-20" transform="translate(393.652344 0)"/>
      <use xlink:href="#DejaVuSans-73" transform="translate(425.439453 0)"/>
      <use xlink:href="#DejaVuSans-69" transform="translate(477.539062 0)"/>
      <use xlink:href="#DejaVuSans-6e" transform="translate(505.322266 0)"/>
      <use xlink:href="#DejaVuSans-63" transform="translate(568.701172 0)"/>
      <use xlink:href="#DejaVuSans-65" transform="translate(623.681641 0)"/>
      <use xlink:href="#DejaVuSans-20" transform="translate(685.205078 0)"/>
      <use xlink:href="#DejaVuSans-73" transform="translate(716.992188 0)"/>
      <use xlink:href="#DejaVuSans-65" transform="translate(769.091797 0)"/>
      <use xlink:href="#DejaVuSans-73" transform="translate(830.615234 0)"/>
      <use xlink:href="#DejaVuSans-73" transform="translate(882.714844 0)"/>
      <use xlink:href="#DejaVuSans-69" transform="translate(934.814453 0)"/>
      <use xlink:href="#DejaVuSans-6f" transform="translate(962.597656 0)"/>
      <use xlink:href="#DejaVuSans-6e" transform="translate(1023.779297 0)"/>
      <use xlink:href="#DejaVuSans-20" transform="translate(1087.158203 0)"/>
      <use xlink:href="#DejaVuSans-73" transform="translate(1118.945312 0)"/>
      <use xlink:href="#DejaVuSans-74" transform="translate(1171.044922 0)"/>
      <use xlink:href="#DejaVuSans-61" transform="translate(1210.253906 0)"/>
      <use xlink:href="#DejaVuSans-72" transform="translate(1271.533203 0)"/>
      <use xlink:href="#DejaVuSans-74" transform="translate(1312.646484 0)"/>
     </g>
    </g>
   </g>
   <g id="matplotlib.axis_2">
    <g id="ytick_1">
     <g id="line2d_17">
      <path d="M 42.190938 256.584644 
L 964.153437 256.584644 
" clip-path="url(#p7784641a7a)" style="fill: none; stroke: #eef2f7; stroke-opacity: 0.25; stroke-width: 0.55; stroke-linecap: square"/>
     </g>
     <g id="line2d_18">
      <defs>
       <path id="m53b2db6a8d" d="M 0 0 
L -3.5 0 
" style="stroke: #000000; stroke-width: 0.8"/>
      </defs>
      <g>
       <use xlink:href="#m53b2db6a8d" x="42.190938" y="256.584644" style="stroke: #000000; stroke-width: 0.8"/>
      </g>
     </g>
     <g id="text_10">
      <!-- 0.1 -->
      <g transform="translate(20.878125 260.003941) scale(0.09 -0.09)">
       <defs>
        <path id="DejaVuSans-2e" d="M 684 794 
L 1344 794 
L 1344 0 
L 684 0 
L 684 794 
z
" transform="scale(0.015625)"/>
       </defs>
       <use xlink:href="#DejaVuSans-30"/>
       <use xlink:href="#DejaVuSans-2e" transform="translate(63.623047 0)"/>
       <use xlink:href="#DejaVuSans-31" transform="translate(95.410156 0)"/>
      </g>
     </g>
    </g>
    <g id="ytick_2">
     <g id="line2d_19">
      <path d="M 42.190938 227.201516 
L 964.153437 227.201516 
" clip-path="url(#p7784641a7a)" style="fill: none; stroke: #eef2f7; stroke-opacity: 0.25; stroke-width: 0.55; stroke-linecap: square"/>
     </g>
     <g id="line2d_20">
      <g>
       <use xlink:href="#m53b2db6a8d" x="42.190938" y="227.201516" style="stroke: #000000; stroke-width: 0.8"/>
      </g>
     </g>
     <g id="text_11">
      <!-- 0.2 -->
      <g transform="translate(20.878125 230.620813) scale(0.09 -0.09)">
       <use xlink:href="#DejaVuSans-30"/>
       <use xlink:href="#DejaVuSans-2e" transform="translate(63.623047 0)"/>
       <use xlink:href="#DejaVuSans-32" transform="translate(95.410156 0)"/>
      </g>
     </g>
    </g>
    <g id="ytick_3">
     <g id="line2d_21">
      <path d="M 42.190938 197.818388 
L 964.153437 197.818388 
" clip-path="url(#p7784641a7a)" style="fill: none; stroke: #eef2f7; stroke-opacity: 0.25; stroke-width: 0.55; stroke-linecap: square"/>
     </g>
     <g id="line2d_22">
      <g>
       <use xlink:href="#m53b2db6a8d" x="42.190938" y="197.818388" style="stroke: #000000; stroke-width: 0.8"/>
      </g>
     </g>
     <g id="text_12">
      <!-- 0.3 -->
      <g transform="translate(20.878125 201.237685) scale(0.09 -0.09)">
       <defs>
        <path id="DejaVuSans-33" d="M 2597 2516 
Q 3050 2419 3304 2112 
Q 3559 1806 3559 1356 
Q 3559 666 3084 287 
Q 2609 -91 1734 -91 
Q 1441 -91 1130 -33 
Q 819 25 488 141 
L 488 750 
Q 750 597 1062 519 
Q 1375 441 1716 441 
Q 2309 441 2620 675 
Q 2931 909 2931 1356 
Q 2931 1769 2642 2001 
Q 2353 2234 1838 2234 
L 1294 2234 
L 1294 2753 
L 1863 2753 
Q 2328 2753 2575 2939 
Q 2822 3125 2822 3475 
Q 2822 3834 2567 4026 
Q 2313 4219 1838 4219 
Q 1578 4219 1281 4162 
Q 984 4106 628 3988 
L 628 4550 
Q 988 4650 1302 4700 
Q 1616 4750 1894 4750 
Q 2613 4750 3031 4423 
Q 3450 4097 3450 3541 
Q 3450 3153 3228 2886 
Q 3006 2619 2597 2516 
z
" transform="scale(0.015625)"/>
       </defs>
       <use xlink:href="#DejaVuSans-30"/>
       <use xlink:href="#DejaVuSans-2e" transform="translate(63.623047 0)"/>
       <use xlink:href="#DejaVuSans-33" transform="translate(95.410156 0)"/>
      </g>
     </g>
    </g>
    <g id="ytick_4">
     <g id="line2d_23">
      <path d="M 42.190938 168.43526 
L 964.153437 168.43526 
" clip-path="url(#p7784641a7a)" style="fill: none; stroke: #eef2f7; stroke-opacity: 0.25; stroke-width: 0.55; stroke-linecap: square"/>
     </g>
     <g id="line2d_24">
      <g>
       <use xlink:href="#m53b2db6a8d" x="42.190938" y="168.43526" style="stroke: #000000; stroke-width: 0.8"/>
      </g>
     </g>
     <g id="text_13">
      <!-- 0.4 -->
      <g transform="translate(20.878125 171.854557) scale(0.09 -0.09)">
       <use xlink:href="#DejaVuSans-30"/>
       <use xlink:href="#DejaVuSans-2e" transform="translate(63.623047 0)"/>
       <use xlink:href="#DejaVuSans-34" transform="translate(95.410156 0)"/>
      </g>
     </g>
    </g>
    <g id="ytick_5">
     <g id="line2d_25">
      <path d="M 42.190938 139.052132 
L 964.153437 139.052132 
" clip-path="url(#p7784641a7a)" style="fill: none; stroke: #eef2f7; stroke-opacity: 0.25; stroke-width: 0.55; stroke-linecap: square"/>
     </g>
     <g id="line2d_26">
      <g>
       <use xlink:href="#m53b2db6a8d" x="42.190938" y="139.052132" style="stroke: #000000; stroke-width: 0.8"/>
      </g>
     </g>
     <g id="text_14">
      <!-- 0.5 -->
      <g transform="translate(20.878125 142.471428) scale(0.09 -0.09)">
       <defs>
        <path id="DejaVuSans-35" d="M 691 4666 
L 3169 4666 
L 3169 4134 
L 1269 4134 
L 1269 2991 
Q 1406 3038 1543 3061 
Q 1681 3084 1819 3084 
Q 2600 3084 3056 2656 
Q 3513 2228 3513 1497 
Q 3513 744 3044 326 
Q 2575 -91 1722 -91 
Q 1428 -91 1123 -41 
Q 819 9 494 109 
L 494 744 
Q 775 591 1075 516 
Q 1375 441 1709 441 
Q 2250 441 2565 725 
Q 2881 1009 2881 1497 
Q 2881 1984 2565 2268 
Q 2250 2553 1709 2553 
Q 1456 2553 1204 2497 
Q 953 2441 691 2322 
L 691 4666 
z
" transform="scale(0.015625)"/>
       </defs>
       <use xlink:href="#DejaVuSans-30"/>
       <use xlink:href="#DejaVuSans-2e" transform="translate(63.623047 0)"/>
       <use xlink:href="#DejaVuSans-35" transform="translate(95.410156 0)"/>
      </g>
     </g>
    </g>
    <g id="ytick_6">
     <g id="line2d_27">
      <path d="M 42.190938 109.669004 
L 964.153437 109.669004 
" clip-path="url(#p7784641a7a)" style="fill: none; stroke: #eef2f7; stroke-opacity: 0.25; stroke-width: 0.55; stroke-linecap: square"/>
     </g>
     <g id="line2d_28">
      <g>
       <use xlink:href="#m53b2db6a8d" x="42.190938" y="109.669004" style="stroke: #000000; stroke-width: 0.8"/>
      </g>
     </g>
     <g id="text_15">
      <!-- 0.6 -->
      <g transform="translate(20.878125 113.0883) scale(0.09 -0.09)">
       <use xlink:href="#DejaVuSans-30"/>
       <use xlink:href="#DejaVuSans-2e" transform="translate(63.623047 0)"/>
       <use xlink:href="#DejaVuSans-36" transform="translate(95.410156 0)"/>
      </g>
     </g>
    </g>
    <g id="ytick_7">
     <g id="line2d_29">
      <path d="M 42.190938 80.285875 
L 964.153437 80.285875 
" clip-path="url(#p7784641a7a)" style="fill: none; stroke: #eef2f7; stroke-opacity: 0.25; stroke-width: 0.55; stroke-linecap: square"/>
     </g>
     <g id="line2d_30">
      <g>
       <use xlink:href="#m53b2db6a8d" x="42.190938" y="80.285875" style="stroke: #000000; stroke-width: 0.8"/>
      </g>
     </g>
     <g id="text_16">
      <!-- 0.7 -->
      <g transform="translate(20.878125 83.705172) scale(0.09 -0.09)">
       <defs>
        <path id="DejaVuSans-37" d="M 525 4666 
L 3525 4666 
L 3525 4397 
L 1831 0 
L 1172 0 
L 2766 4134 
L 525 4134 
L 525 4666 
z
" transform="scale(0.015625)"/>
       </defs>
       <use xlink:href="#DejaVuSans-30"/>
       <use xlink:href="#DejaVuSans-2e" transform="translate(63.623047 0)"/>
       <use xlink:href="#DejaVuSans-37" transform="translate(95.410156 0)"/>
      </g>
     </g>
    </g>
    <g id="ytick_8">
     <g id="line2d_31">
      <path d="M 42.190938 50.902747 
L 964.153437 50.902747 
" clip-path="url(#p7784641a7a)" style="fill: none; stroke: #eef2f7; stroke-opacity: 0.25; stroke-width: 0.55; stroke-linecap: square"/>
     </g>
     <g id="line2d_32">
      <g>
       <use xlink:href="#m53b2db6a8d" x="42.190938" y="50.902747" style="stroke: #000000; stroke-width: 0.8"/>
      </g>
     </g>
     <g id="text_17">
      <!-- 0.8 -->
      <g transform="translate(20.878125 54.322044) scale(0.09 -0.09)">
       <use xlink:href="#DejaVuSans-30"/>
       <use xlink:href="#DejaVuSans-2e" transform="translate(63.623047 0)"/>
       <use xlink:href="#DejaVuSans-38" transform="translate(95.410156 0)"/>
      </g>
     </g>
    </g>
    <g id="ytick_9">
     <g id="line2d_33">
      <path d="M 42.190938 21.519619 
L 964.153437 21.519619 
" clip-path="url(#p7784641a7a)" style="fill: none; stroke: #eef2f7; stroke-opacity: 0.25; stroke-width: 0.55; stroke-linecap: square"/>
     </g>
     <g id="line2d_34">
      <g>
       <use xlink:href="#m53b2db6a8d" x="42.190938" y="21.519619" style="stroke: #000000; stroke-width: 0.8"/>
      </g>
     </g>
     <g id="text_18">
      <!-- 0.9 -->
      <g transform="translate(20.878125 24.938916) scale(0.09 -0.09)">
       <defs>
        <path id="DejaVuSans-39" d="M 703 97 
L 703 672 
Q 941 559 1184 500 
Q 1428 441 1663 441 
Q 2288 441 2617 861 
Q 2947 1281 2994 2138 
Q 2813 1869 2534 1725 
Q 2256 1581 1919 1581 
Q 1219 1581 811 2004 
Q 403 2428 403 3163 
Q 403 3881 828 4315 
Q 1253 4750 1959 4750 
Q 2769 4750 3195 4129 
Q 3622 3509 3622 2328 
Q 3622 1225 3098 567 
Q 2575 -91 1691 -91 
Q 1453 -91 1209 -44 
Q 966 3 703 97 
z
M 1959 2075 
Q 2384 2075 2632 2365 
Q 2881 2656 2881 3163 
Q 2881 3666 2632 3958 
Q 2384 4250 1959 4250 
Q 1534 4250 1286 3958 
Q 1038 3666 1038 3163 
Q 1038 2656 1286 2365 
Q 1534 2075 1959 2075 
z
" transform="scale(0.015625)"/>
       </defs>
       <use xlink:href="#DejaVuSans-30"/>
       <use xlink:href="#DejaVuSans-2e" transform="translate(63.623047 0)"/>
       <use xlink:href="#DejaVuSans-39" transform="translate(95.410156 0)"/>
      </g>
     </g>
    </g>
    <g id="text_19">
     <!-- Raw fan signal -->
     <g transform="translate(14.798438 174.058756) rotate(-90) scale(0.1 -0.1)">
      <defs>
       <path id="DejaVuSans-52" d="M 2841 2188 
Q 3044 2119 3236 1894 
Q 3428 1669 3622 1275 
L 4263 0 
L 3584 0 
L 2988 1197 
Q 2756 1666 2539 1819 
Q 2322 1972 1947 1972 
L 1259 1972 
L 1259 0 
L 628 0 
L 628 4666 
L 2053 4666 
Q 2853 4666 3247 4331 
Q 3641 3997 3641 3322 
Q 3641 2881 3436 2590 
Q 3231 2300 2841 2188 
z
M 1259 4147 
L 1259 2491 
L 2053 2491 
Q 2509 2491 2742 2702 
Q 2975 2913 2975 3322 
Q 2975 3731 2742 3939 
Q 2509 4147 2053 4147 
L 1259 4147 
z
" transform="scale(0.015625)"/>
       <path id="DejaVuSans-77" d="M 269 3500 
L 844 3500 
L 1563 769 
L 2278 3500 
L 2956 3500 
L 3675 769 
L 4391 3500 
L 4966 3500 
L 4050 0 
L 3372 0 
L 2619 2869 
L 1863 0 
L 1184 0 
L 269 3500 
z
" transform="scale(0.015625)"/>
       <path id="DejaVuSans-66" d="M 2375 4863 
L 2375 4384 
L 1825 4384 
Q 1516 4384 1395 4259 
Q 1275 4134 1275 3809 
L 1275 3500 
L 2222 3500 
L 2222 3053 
L 1275 3053 
L 1275 0 
L 697 0 
L 697 3053 
L 147 3053 
L 147 3500 
L 697 3500 
L 697 3744 
Q 697 4328 969 4595 
Q 1241 4863 1831 4863 
L 2375 4863 
z
" transform="scale(0.015625)"/>
       <path id="DejaVuSans-67" d="M 2906 1791 
Q 2906 2416 2648 2759 
Q 2391 3103 1925 3103 
Q 1463 3103 1205 2759 
Q 947 2416 947 1791 
Q 947 1169 1205 825 
Q 1463 481 1925 481 
Q 2391 481 2648 825 
Q 2906 1169 2906 1791 
z
M 3481 434 
Q 3481 -459 3084 -895 
Q 2688 -1331 1869 -1331 
Q 1566 -1331 1297 -1286 
Q 1028 -1241 775 -1147 
L 775 -588 
Q 1028 -725 1275 -790 
Q 1522 -856 1778 -856 
Q 2344 -856 2625 -561 
Q 2906 -266 2906 331 
L 2906 616 
Q 2728 306 2450 153 
Q 2172 0 1784 0 
Q 1141 0 747 490 
Q 353 981 353 1791 
Q 353 2603 747 3093 
Q 1141 3584 1784 3584 
Q 2172 3584 2450 3431 
Q 2728 3278 2906 2969 
L 2906 3500 
L 3481 3500 
L 3481 434 
z
" transform="scale(0.015625)"/>
       <path id="DejaVuSans-6c" d="M 603 4863 
L 1178 4863 
L 1178 0 
L 603 0 
L 603 4863 
z
" transform="scale(0.015625)"/>
      </defs>
      <use xlink:href="#DejaVuSans-52"/>
      <use xlink:href="#DejaVuSans-61" transform="translate(67.232422 0)"/>
      <use xlink:href="#DejaVuSans-77" transform="translate(128.511719 0)"/>
      <use xlink:href="#DejaVuSans-20" transform="translate(210.298828 0)"/>
      <use xlink:href="#DejaVuSans-66" transform="translate(242.085938 0)"/>
      <use xlink:href="#DejaVuSans-61" transform="translate(277.291016 0)"/>
      <use xlink:href="#DejaVuSans-6e" transform="translate(338.570312 0)"/>
      <use xlink:href="#DejaVuSans-20" transform="translate(401.949219 0)"/>
      <use xlink:href="#DejaVuSans-73" transform="translate(433.736328 0)"/>
      <use xlink:href="#DejaVuSans-69" transform="translate(485.835938 0)"/>
      <use xlink:href="#DejaVuSans-67" transform="translate(513.619141 0)"/>
      <use xlink:href="#DejaVuSans-6e" transform="translate(577.095703 0)"/>
      <use xlink:href="#DejaVuSans-61" transform="translate(640.474609 0)"/>
      <use xlink:href="#DejaVuSans-6c" transform="translate(701.753906 0)"/>
     </g>
    </g>
   </g>
   <g id="line2d_35">
    <path d="M 59.920986 246.888212 
L 65.715119 246.888212 
L 65.715119 232.78431 
L 71.509252 232.78431 
L 71.509252 199.875207 
L 77.303386 199.875207 
L 77.303386 173.430391 
L 83.097519 173.430391 
L 83.097519 159.32649 
L 88.891652 159.32649 
L 88.891652 173.724223 
L 94.685786 173.724223 
L 94.685786 171.373572 
L 100.479919 171.373572 
L 100.479919 159.32649 
L 106.274052 159.32649 
L 106.274052 157.857334 
L 112.068186 157.857334 
L 112.068186 246.888212 
L 135.244719 246.888212 
L 135.244719 243.656067 
L 141.038853 243.656067 
L 141.038853 243.949899 
L 146.832986 243.949899 
L 146.832986 246.888212 
L 158.421253 246.888212 
L 158.421253 232.78431 
L 164.215386 232.78431 
L 164.215386 193.998581 
L 170.009519 193.998581 
L 170.009519 63.537493 
L 175.803653 63.537493 
L 175.803653 63.243661 
L 181.597786 63.243661 
L 181.597786 46.201447 
L 187.391919 46.201447 
L 187.391919 59.423855 
L 193.186053 59.423855 
L 193.186053 46.495278 
L 198.980186 46.495278 
L 198.980186 53.84106 
L 204.77432 53.84106 
L 204.77432 40.912484 
L 210.568453 40.912484 
L 210.568453 52.078073 
L 216.362586 52.078073 
L 216.362586 45.319953 
L 222.15672 45.319953 
L 222.15672 150.805383 
L 227.950853 150.805383 
L 227.950853 246.300549 
L 233.744986 246.300549 
L 233.744986 246.888212 
L 251.127386 246.888212 
L 251.127386 243.949899 
L 256.92152 243.949899 
L 256.92152 246.888212 
L 265.61272 246.888212 
L 265.61272 238.073273 
L 268.509786 238.073273 
L 268.509786 229.258335 
L 274.30392 229.258335 
L 274.30392 246.888212 
L 303.274587 246.888212 
L 303.274587 232.78431 
L 309.06872 232.78431 
L 309.06872 246.888212 
L 332.245253 246.888212 
L 332.245253 245.712886 
L 338.039387 245.712886 
L 338.039387 246.888212 
L 343.83352 246.888212 
L 343.83352 243.362236 
L 349.627654 243.362236 
L 349.627654 246.888212 
L 384.392454 246.888212 
L 384.392454 232.490479 
L 390.186587 232.490479 
L 390.186587 246.888212 
L 401.774854 246.888212 
L 401.774854 197.524556 
L 407.568987 197.524556 
L 407.568987 171.373572 
L 413.36312 171.373572 
L 413.36312 173.430391 
L 419.157254 173.430391 
L 419.157254 169.904416 
L 424.951387 169.904416 
L 424.951387 169.316753 
L 430.745521 169.316753 
L 430.745521 165.496947 
L 436.539654 165.496947 
L 436.539654 246.888212 
L 459.716187 246.888212 
L 459.716187 232.490479 
L 465.510321 232.490479 
L 465.510321 246.888212 
L 471.304454 246.888212 
L 471.304454 244.24373 
L 477.098587 244.24373 
L 477.098587 241.89308 
L 482.892721 241.89308 
L 482.892721 246.888212 
L 494.480987 246.888212 
L 494.480987 50.315085 
L 500.275121 50.315085 
L 500.275121 53.84106 
L 506.069254 53.84106 
L 506.069254 55.604048 
L 511.863388 55.604048 
L 511.863388 57.073204 
L 517.657521 57.073204 
L 517.657521 57.954698 
L 523.451654 57.954698 
L 523.451654 56.779373 
L 529.245788 56.779373 
L 529.245788 31.216052 
L 535.039921 31.216052 
L 535.039921 47.964435 
L 540.834054 47.964435 
L 540.834054 50.021254 
L 546.628188 50.021254 
L 546.628188 149.042395 
L 552.422321 149.042395 
L 552.422321 246.888212 
L 558.216454 246.888212 
L 558.216454 232.78431 
L 564.010588 232.78431 
L 564.010588 246.888212 
L 569.804721 246.888212 
L 569.804721 232.196648 
L 575.598854 232.196648 
L 575.598854 246.888212 
L 581.392988 246.888212 
L 581.392988 232.78431 
L 587.187121 232.78431 
L 587.187121 244.831393 
L 590.084188 244.831393 
L 590.084188 238.954767 
L 592.981255 238.954767 
L 592.981255 232.78431 
L 598.775388 232.78431 
L 598.775388 246.888212 
L 604.569521 246.888212 
L 604.569521 232.196648 
L 610.363655 232.196648 
L 610.363655 243.656067 
L 616.157788 243.656067 
L 616.157788 232.78431 
L 627.746055 232.78431 
L 627.746055 218.386577 
L 633.540188 218.386577 
L 633.540188 246.888212 
L 662.510855 246.888212 
L 662.510855 232.78431 
L 668.304988 232.78431 
L 668.304988 246.006718 
L 674.099122 246.006718 
L 674.099122 229.258335 
L 679.893255 229.258335 
L 679.893255 243.656067 
L 685.687388 243.656067 
L 685.687388 232.78431 
L 691.481522 232.78431 
L 691.481522 246.888212 
L 697.275655 246.888212 
L 697.275655 232.78431 
L 703.069788 232.78431 
L 703.069788 246.888212 
L 708.863922 246.888212 
L 708.863922 232.78431 
L 714.658055 232.78431 
L 714.658055 246.888212 
L 720.452188 246.888212 
L 720.452188 232.490479 
L 726.246322 232.490479 
L 726.246322 211.628458 
L 732.040455 211.628458 
L 732.040455 175.781042 
L 737.834589 175.781042 
L 737.834589 157.857334 
L 743.628722 157.857334 
L 743.628722 159.32649 
L 749.422855 159.32649 
L 749.422855 160.501815 
L 755.216989 160.501815 
L 755.216989 166.084609 
L 761.011122 166.084609 
L 761.011122 218.386577 
L 766.805255 218.386577 
L 766.805255 246.888212 
L 784.187655 246.888212 
L 784.187655 244.24373 
L 789.981789 244.24373 
L 789.981789 246.888212 
L 807.364189 246.888212 
L 807.364189 242.186911 
L 813.158322 242.186911 
L 813.158322 237.779442 
L 818.952456 237.779442 
L 818.952456 58.542361 
L 824.746589 58.542361 
L 824.746589 33.566702 
L 830.540722 33.566702 
L 830.540722 28.277739 
L 836.334856 28.277739 
L 836.334856 39.149496 
L 842.128989 39.149496 
L 842.128989 52.959566 
L 847.923122 52.959566 
L 847.923122 54.428723 
L 853.717256 54.428723 
L 853.717256 48.552097 
L 859.511389 48.552097 
L 859.511389 50.902747 
L 865.305522 50.902747 
L 865.305522 60.011517 
L 871.099656 60.011517 
L 871.099656 145.51642 
L 876.893789 145.51642 
L 876.893789 243.949899 
L 882.687922 243.949899 
L 882.687922 244.24373 
L 888.482056 244.24373 
L 888.482056 238.367104 
L 894.276189 238.367104 
L 894.276189 246.888212 
L 900.070323 246.888212 
L 900.070323 232.78431 
L 905.864456 232.78431 
L 905.864456 246.888212 
L 911.658589 246.888212 
L 911.658589 243.949899 
L 917.452723 243.949899 
L 917.452723 246.888212 
L 946.423389 246.888212 
L 946.423389 242.774574 
L 946.423389 242.774574 
" clip-path="url(#p7784641a7a)" style="fill: none; stroke: #111827; stroke-width: 1.152; stroke-linecap: square"/>
   </g>
   <g id="line2d_36">
    <path d="M 187.391919 59.423855 
L 193.186053 59.423855 
L 193.186053 46.495278 
L 198.980186 46.495278 
L 198.980186 53.84106 
L 204.77432 53.84106 
L 204.77432 40.912484 
L 210.568453 40.912484 
L 210.568453 52.078073 
L 216.362586 52.078073 
L 216.362586 45.319953 
L 222.15672 45.319953 
M 511.863388 57.073204 
L 517.657521 57.073204 
L 517.657521 57.954698 
L 523.451654 57.954698 
L 523.451654 56.779373 
L 529.245788 56.779373 
L 529.245788 31.216052 
L 535.039921 31.216052 
L 535.039921 47.964435 
L 540.834054 47.964435 
L 540.834054 50.021254 
L 546.628188 50.021254 
M 836.334856 39.149496 
L 842.128989 39.149496 
L 842.128989 52.959566 
L 847.923122 52.959566 
L 847.923122 54.428723 
L 853.717256 54.428723 
L 853.717256 48.552097 
L 859.511389 48.552097 
L 859.511389 50.902747 
L 865.305522 50.902747 
L 865.305522 60.011517 
L 871.099656 60.011517 
L 871.099656 60.011517 
" clip-path="url(#p7784641a7a)" style="fill: none; stroke: #2563eb; stroke-width: 1.152; stroke-linecap: square"/>
   </g>
   <g id="line2d_37">
    <path d="M 187.391919 59.423855 
L 193.186053 59.423855 
L 193.186053 46.495278 
L 198.980186 46.495278 
L 198.980186 53.84106 
L 204.77432 53.84106 
L 204.77432 40.912484 
L 210.568453 40.912484 
L 210.568453 52.078073 
L 216.362586 52.078073 
L 216.362586 45.319953 
L 222.15672 45.319953 
M 511.863388 57.073204 
L 517.657521 57.073204 
L 517.657521 57.954698 
L 523.451654 57.954698 
L 523.451654 56.779373 
L 529.245788 56.779373 
L 529.245788 31.216052 
L 535.039921 31.216052 
L 535.039921 47.964435 
L 540.834054 47.964435 
L 540.834054 50.021254 
L 546.628188 50.021254 
M 836.334856 39.149496 
L 842.128989 39.149496 
L 842.128989 52.959566 
L 847.923122 52.959566 
L 847.923122 54.428723 
L 853.717256 54.428723 
L 853.717256 48.552097 
L 859.511389 48.552097 
L 859.511389 50.902747 
L 865.305522 50.902747 
L 865.305522 60.011517 
L 871.099656 60.011517 
L 871.099656 60.011517 
" clip-path="url(#p7784641a7a)" style="fill: none; stroke: #7c3aed; stroke-width: 1.152; stroke-linecap: square"/>
   </g>
   <g id="patch_23">
    <path d="M 42.190938 257.818735 
L 42.190938 17.347215 
" style="fill: none; stroke: #cbd5e1; stroke-width: 0.8; stroke-linejoin: miter; stroke-linecap: square"/>
   </g>
   <g id="patch_24">
    <path d="M 964.153437 257.818735 
L 964.153437 17.347215 
" style="fill: none; stroke: #cbd5e1; stroke-width: 0.8; stroke-linejoin: miter; stroke-linecap: square"/>
   </g>
   <g id="patch_25">
    <path d="M 42.190938 257.818735 
L 964.153438 257.818735 
" style="fill: none; stroke: #cbd5e1; stroke-width: 0.8; stroke-linejoin: miter; stroke-linecap: square"/>
   </g>
   <g id="patch_26">
    <path d="M 42.190938 17.347215 
L 964.153438 17.347215 
" style="fill: none; stroke: #cbd5e1; stroke-width: 0.8; stroke-linejoin: miter; stroke-linecap: square"/>
   </g>
   <g id="text_20">
    <!-- ACC -->
    <g style="fill: #475569" transform="translate(42.803462 13.27875) scale(0.08 -0.08)">
     <defs>
      <path id="DejaVuSans-41" d="M 2188 4044 
L 1331 1722 
L 3047 1722 
L 2188 4044 
z
M 1831 4666 
L 2547 4666 
L 4325 0 
L 3669 0 
L 3244 1197 
L 1141 1197 
L 716 0 
L 50 0 
L 1831 4666 
z
" transform="scale(0.015625)"/>
      <path id="DejaVuSans-43" d="M 4122 4306 
L 4122 3641 
Q 3803 3938 3442 4084 
Q 3081 4231 2675 4231 
Q 1875 4231 1450 3742 
Q 1025 3253 1025 2328 
Q 1025 1406 1450 917 
Q 1875 428 2675 428 
Q 3081 428 3442 575 
Q 3803 722 4122 1019 
L 4122 359 
Q 3791 134 3420 21 
Q 3050 -91 2638 -91 
Q 1578 -91 968 557 
Q 359 1206 359 2328 
Q 359 3453 968 4101 
Q 1578 4750 2638 4750 
Q 3056 4750 3426 4639 
Q 3797 4528 4122 4306 
z
" transform="scale(0.015625)"/>
     </defs>
     <use xlink:href="#DejaVuSans-41"/>
     <use xlink:href="#DejaVuSans-43" transform="translate(66.658203 0)"/>
     <use xlink:href="#DejaVuSans-43" transform="translate(136.482422 0)"/>
    </g>
   </g>
   <g id="text_21">
    <!-- OC -->
    <g style="fill: #475569" transform="translate(71.361511 13.27875) scale(0.08 -0.08)">
     <defs>
      <path id="DejaVuSans-4f" d="M 2522 4238 
Q 1834 4238 1429 3725 
Q 1025 3213 1025 2328 
Q 1025 1447 1429 934 
Q 1834 422 2522 422 
Q 3209 422 3611 934 
Q 4013 1447 4013 2328 
Q 4013 3213 3611 3725 
Q 3209 4238 2522 4238 
z
M 2522 4750 
Q 3503 4750 4090 4092 
Q 4678 3434 4678 2328 
Q 4678 1225 4090 567 
Q 3503 -91 2522 -91 
Q 1538 -91 948 565 
Q 359 1222 359 2328 
Q 359 3434 948 4092 
Q 1538 4750 2522 4750 
z
" transform="scale(0.015625)"/>
     </defs>
     <use xlink:href="#DejaVuSans-4f"/>
     <use xlink:href="#DejaVuSans-43" transform="translate(78.710938 0)"/>
    </g>
   </g>
   <g id="text_22">
    <!-- FCS -->
    <g style="fill: #475569" transform="translate(104.435061 13.27875) scale(0.08 -0.08)">
     <defs>
      <path id="DejaVuSans-46" d="M 628 4666 
L 3309 4666 
L 3309 4134 
L 1259 4134 
L 1259 2759 
L 3109 2759 
L 3109 2228 
L 1259 2228 
L 1259 0 
L 628 0 
L 628 4666 
z
" transform="scale(0.015625)"/>
      <path id="DejaVuSans-53" d="M 3425 4513 
L 3425 3897 
Q 3066 4069 2747 4153 
Q 2428 4238 2131 4238 
Q 1616 4238 1336 4038 
Q 1056 3838 1056 3469 
Q 1056 3159 1242 3001 
Q 1428 2844 1947 2747 
L 2328 2669 
Q 3034 2534 3370 2195 
Q 3706 1856 3706 1288 
Q 3706 609 3251 259 
Q 2797 -91 1919 -91 
Q 1588 -91 1214 -16 
Q 841 59 441 206 
L 441 856 
Q 825 641 1194 531 
Q 1563 422 1919 422 
Q 2459 422 2753 634 
Q 3047 847 3047 1241 
Q 3047 1584 2836 1778 
Q 2625 1972 2144 2069 
L 1759 2144 
Q 1053 2284 737 2584 
Q 422 2884 422 3419 
Q 422 4038 858 4394 
Q 1294 4750 2059 4750 
Q 2388 4750 2728 4690 
Q 3069 4631 3425 4513 
z
" transform="scale(0.015625)"/>
     </defs>
     <use xlink:href="#DejaVuSans-46"/>
     <use xlink:href="#DejaVuSans-43" transform="translate(57.519531 0)"/>
     <use xlink:href="#DejaVuSans-53" transform="translate(127.34375 0)"/>
    </g>
   </g>
   <g id="text_23">
    <!-- SR -->
    <g style="fill: #475569" transform="translate(141.514236 13.27875) scale(0.08 -0.08)">
     <use xlink:href="#DejaVuSans-53"/>
     <use xlink:href="#DejaVuSans-52" transform="translate(63.476562 0)"/>
    </g>
   </g>
   <g id="text_24">
    <!-- FFC -->
    <g style="fill: #475569" transform="translate(188.688745 13.27875) scale(0.08 -0.08)">
     <use xlink:href="#DejaVuSans-46"/>
     <use xlink:href="#DejaVuSans-46" transform="translate(57.519531 0)"/>
     <use xlink:href="#DejaVuSans-43" transform="translate(115.039062 0)"/>
    </g>
   </g>
   <g id="text_25">
    <!-- SS -->
    <g style="fill: #475569" transform="translate(309.784103 13.27875) scale(0.08 -0.08)">
     <use xlink:href="#DejaVuSans-53"/>
     <use xlink:href="#DejaVuSans-53" transform="translate(63.476562 0)"/>
    </g>
   </g>
   <g id="text_26">
    <!-- OC -->
    <g style="fill: #475569" transform="translate(398.730045 13.27875) scale(0.08 -0.08)">
     <use xlink:href="#DejaVuSans-4f"/>
     <use xlink:href="#DejaVuSans-43" transform="translate(78.710938 0)"/>
    </g>
   </g>
   <g id="text_27">
    <!-- FCS -->
    <g style="fill: #475569" transform="translate(428.906529 13.27875) scale(0.08 -0.08)">
     <use xlink:href="#DejaVuSans-46"/>
     <use xlink:href="#DejaVuSans-43" transform="translate(57.519531 0)"/>
     <use xlink:href="#DejaVuSans-53" transform="translate(127.34375 0)"/>
    </g>
   </g>
   <g id="text_28">
    <!-- SR -->
    <g style="fill: #475569" transform="translate(468.882771 13.27875) scale(0.08 -0.08)">
     <use xlink:href="#DejaVuSans-53"/>
     <use xlink:href="#DejaVuSans-52" transform="translate(63.476562 0)"/>
    </g>
   </g>
   <g id="text_29">
    <!-- FFC -->
    <g style="fill: #475569" transform="translate(516.057279 13.27875) scale(0.08 -0.08)">
     <use xlink:href="#DejaVuSans-46"/>
     <use xlink:href="#DejaVuSans-46" transform="translate(57.519531 0)"/>
     <use xlink:href="#DejaVuSans-43" transform="translate(115.039062 0)"/>
    </g>
   </g>
   <g id="text_30">
    <!-- SS -->
    <g style="fill: #475569" transform="translate(634.255571 13.27875) scale(0.08 -0.08)">
     <use xlink:href="#DejaVuSans-53"/>
     <use xlink:href="#DejaVuSans-53" transform="translate(63.476562 0)"/>
    </g>
   </g>
   <g id="text_31">
    <!-- OC -->
    <g style="fill: #475569" transform="translate(723.201513 13.27875) scale(0.08 -0.08)">
     <use xlink:href="#DejaVuSans-4f"/>
     <use xlink:href="#DejaVuSans-43" transform="translate(78.710938 0)"/>
    </g>
   </g>
   <g id="text_32">
    <!-- FCS -->
    <g style="fill: #475569" transform="translate(753.377997 13.27875) scale(0.08 -0.08)">
     <use xlink:href="#DejaVuSans-46"/>
     <use xlink:href="#DejaVuSans-43" transform="translate(57.519531 0)"/>
     <use xlink:href="#DejaVuSans-53" transform="translate(127.34375 0)"/>
    </g>
   </g>
   <g id="text_33">
    <!-- SR -->
    <g style="fill: #475569" transform="translate(793.354239 13.27875) scale(0.08 -0.08)">
     <use xlink:href="#DejaVuSans-53"/>
     <use xlink:href="#DejaVuSans-52" transform="translate(63.476562 0)"/>
    </g>
   </g>
   <g id="text_34">
    <!-- FFC -->
    <g style="fill: #475569" transform="translate(840.528747 13.27875) scale(0.08 -0.08)">
     <use xlink:href="#DejaVuSans-46"/>
     <use xlink:href="#DejaVuSans-46" transform="translate(57.519531 0)"/>
     <use xlink:href="#DejaVuSans-43" transform="translate(115.039062 0)"/>
    </g>
   </g>
   <g id="text_35">
    <!-- SS -->
    <g style="fill: #475569" transform="translate(912.373973 13.27875) scale(0.08 -0.08)">
     <use xlink:href="#DejaVuSans-53"/>
     <use xlink:href="#DejaVuSans-53" transform="translate(63.476562 0)"/>
    </g>
   </g>
   <g id="legend_1">
    <g id="line2d_38">
     <path d="M 762.942188 27.825965 
L 770.942188 27.825965 
L 770.942188 27.825965 
L 778.942188 27.825965 
L 778.942188 27.825965 
" style="fill: none; stroke: #111827; stroke-width: 1.6; stroke-linecap: square"/>
    </g>
    <g id="text_36">
     <!-- Fan current -->
     <g transform="translate(785.342188 30.625965) scale(0.08 -0.08)">
      <use xlink:href="#DejaVuSans-46"/>
      <use xlink:href="#DejaVuSans-61" transform="translate(48.394531 0)"/>
      <use xlink:href="#DejaVuSans-6e" transform="translate(109.673828 0)"/>
      <use xlink:href="#DejaVuSans-20" transform="translate(173.052734 0)"/>
      <use xlink:href="#DejaVuSans-63" transform="translate(204.839844 0)"/>
      <use xlink:href="#DejaVuSans-75" transform="translate(259.820312 0)"/>
      <use xlink:href="#DejaVuSans-72" transform="translate(323.199219 0)"/>
      <use xlink:href="#DejaVuSans-72" transform="translate(362.5625 0)"/>
      <use xlink:href="#DejaVuSans-65" transform="translate(401.425781 0)"/>
      <use xlink:href="#DejaVuSans-6e" transform="translate(462.949219 0)"/>
      <use xlink:href="#DejaVuSans-74" transform="translate(526.328125 0)"/>
     </g>
    </g>
    <g id="line2d_39">
     <path d="M 762.942188 39.568465 
L 770.942188 39.568465 
L 770.942188 39.568465 
L 778.942188 39.568465 
L 778.942188 39.568465 
" style="fill: none; stroke: #2563eb; stroke-width: 1.6; stroke-linecap: square"/>
    </g>
    <g id="text_37">
     <!-- Fan control -->
     <g transform="translate(785.342188 42.368465) scale(0.08 -0.08)">
      <use xlink:href="#DejaVuSans-46"/>
      <use xlink:href="#DejaVuSans-61" transform="translate(48.394531 0)"/>
      <use xlink:href="#DejaVuSans-6e" transform="translate(109.673828 0)"/>
      <use xlink:href="#DejaVuSans-20" transform="translate(173.052734 0)"/>
      <use xlink:href="#DejaVuSans-63" transform="translate(204.839844 0)"/>
      <use xlink:href="#DejaVuSans-6f" transform="translate(259.820312 0)"/>
      <use xlink:href="#DejaVuSans-6e" transform="translate(321.001953 0)"/>
      <use xlink:href="#DejaVuSans-74" transform="translate(384.380859 0)"/>
      <use xlink:href="#DejaVuSans-72" transform="translate(423.589844 0)"/>
      <use xlink:href="#DejaVuSans-6f" transform="translate(462.453125 0)"/>
      <use xlink:href="#DejaVuSans-6c" transform="translate(523.634766 0)"/>
     </g>
    </g>
    <g id="line2d_40">
     <path d="M 846.583438 27.825965 
L 854.583438 27.825965 
L 854.583438 27.825965 
L 862.583438 27.825965 
L 862.583438 27.825965 
" style="fill: none; stroke: #7c3aed; stroke-width: 1.6; stroke-linecap: square"/>
    </g>
    <g id="text_38">
     <!-- Secondary fan control -->
     <g transform="translate(868.983438 30.625965) scale(0.08 -0.08)">
      <defs>
       <path id="DejaVuSans-64" d="M 2906 2969 
L 2906 4863 
L 3481 4863 
L 3481 0 
L 2906 0 
L 2906 525 
Q 2725 213 2448 61 
Q 2172 -91 1784 -91 
Q 1150 -91 751 415 
Q 353 922 353 1747 
Q 353 2572 751 3078 
Q 1150 3584 1784 3584 
Q 2172 3584 2448 3432 
Q 2725 3281 2906 2969 
z
M 947 1747 
Q 947 1113 1208 752 
Q 1469 391 1925 391 
Q 2381 391 2643 752 
Q 2906 1113 2906 1747 
Q 2906 2381 2643 2742 
Q 2381 3103 1925 3103 
Q 1469 3103 1208 2742 
Q 947 2381 947 1747 
z
" transform="scale(0.015625)"/>
       <path id="DejaVuSans-79" d="M 2059 -325 
Q 1816 -950 1584 -1140 
Q 1353 -1331 966 -1331 
L 506 -1331 
L 506 -850 
L 844 -850 
Q 1081 -850 1212 -737 
Q 1344 -625 1503 -206 
L 1606 56 
L 191 3500 
L 800 3500 
L 1894 763 
L 2988 3500 
L 3597 3500 
L 2059 -325 
z
" transform="scale(0.015625)"/>
      </defs>
      <use xlink:href="#DejaVuSans-53"/>
      <use xlink:href="#DejaVuSans-65" transform="translate(63.476562 0)"/>
      <use xlink:href="#DejaVuSans-63" transform="translate(125 0)"/>
      <use xlink:href="#DejaVuSans-6f" transform="translate(179.980469 0)"/>
      <use xlink:href="#DejaVuSans-6e" transform="translate(241.162109 0)"/>
      <use xlink:href="#DejaVuSans-64" transform="translate(304.541016 0)"/>
      <use xlink:href="#DejaVuSans-61" transform="translate(368.017578 0)"/>
      <use xlink:href="#DejaVuSans-72" transform="translate(429.296875 0)"/>
      <use xlink:href="#DejaVuSans-79" transform="translate(470.410156 0)"/>
      <use xlink:href="#DejaVuSans-20" transform="translate(529.589844 0)"/>
      <use xlink:href="#DejaVuSans-66" transform="translate(561.376953 0)"/>
      <use xlink:href="#DejaVuSans-61" transform="translate(596.582031 0)"/>
      <use xlink:href="#DejaVuSans-6e" transform="translate(657.861328 0)"/>
      <use xlink:href="#DejaVuSans-20" transform="translate(721.240234 0)"/>
      <use xlink:href="#DejaVuSans-63" transform="translate(753.027344 0)"/>
      <use xlink:href="#DejaVuSans-6f" transform="translate(808.007812 0)"/>
      <use xlink:href="#DejaVuSans-6e" transform="translate(869.189453 0)"/>
      <use xlink:href="#DejaVuSans-74" transform="translate(932.568359 0)"/>
      <use xlink:href="#DejaVuSans-72" transform="translate(971.777344 0)"/>
      <use xlink:href="#DejaVuSans-6f" transform="translate(1010.640625 0)"/>
      <use xlink:href="#DejaVuSans-6c" transform="translate(1071.822266 0)"/>
     </g>
    </g>
   </g>
  </g>
 </g>
 <defs>
  <clipPath id="p7784641a7a">
   <rect x="42.190938" y="17.347215" width="921.9625" height="240.47152"/>
  </clipPath>
 </defs>
</svg>
