<?xml version="1.0" encoding="utf-8" standalone="no"?>
<!DOCTYPE svg PUBLIC "-//W3C//DTD SVG 1.1//EN"
  "http://www.w3.org/Graphics/SVG/1.1/DTD/svg11.dtd">
<svg xmlns:xlink="http://www.w3.org/1999/xlink" width="942.505625pt" height="265.54315pt" viewBox="0 0 942.505625 265.54315" xmlns="http://www.w3.org/2000/svg" version="1.1">
 <metadata>
  <rdf:RDF xmlns:dc="http://purl.org/dc/elements/1.1/" xmlns:cc="http://creativecommons.org/ns#" xmlns:rdf="http://www.w3.org/1999/02/22-rdf-syntax-ns#">
   <cc:Work>
    <dc:type rdf:resource="http://purl.org/dc/dcmitype/StillImage"/>
    <dc:date>2026-04-17T13:06:35.971470</dc:date>
    <dc:format>image/svg+xml</dc:format>
    <dc:creator>
     <cc:Agent>
      <dc:title>Matplotlib v3.10.8, https://matplotlib.org/</dc:title>
     </cc:Agent>
    </dc:creator>
   </cc:Work>
  </rdf:RDF>
 </metadata>
 <defs>
  <style type="text/css">*{stroke-linejoin: round; stroke-linecap: butt}</style>
 </defs>
 <g id="figure_1">
  <g id="patch_1">
   <path d="M 0 265.54315 
L 942.505625 265.54315 
L 942.505625 0 
L 0 0 
z
" style="fill: #ffffff"/>
  </g>
  <g id="axes_1">
   <g id="patch_2">
    <path d="M 39.330625 228.954713 
L 935.305625 228.954713 
L 935.305625 17.061433 
L 39.330625 17.061433 
z
" style="fill: #ffffff"/>
   </g>
   <g id="patch_3">
    <path d="M 39.330625 228.954713 
L 220.552135 228.954713 
L 220.552135 17.061433 
L 39.330625 17.061433 
z
" clip-path="url(#pa299d61c4f)" style="fill: #f8fafc; opacity: 0.45"/>
   </g>
   <g id="patch_4">
    <path d="M 220.552135 228.954713 
L 247.735361 228.954713 
L 247.735361 17.061433 
L 220.552135 17.061433 
z
" clip-path="url(#pa299d61c4f)" style="fill: #eff6ff; opacity: 0.45"/>
   </g>
   <g id="patch_5">
    <path d="M 247.735361 228.954713 
L 274.918587 228.954713 
L 274.918587 17.061433 
L 247.735361 17.061433 
z
" clip-path="url(#pa299d61c4f)" style="fill: #fef3c7; opacity: 0.45"/>
   </g>
   <g id="patch_6">
    <path d="M 274.918587 228.954713 
L 302.101814 228.954713 
L 302.101814 17.061433 
L 274.918587 17.061433 
z
" clip-path="url(#pa299d61c4f)" style="fill: #dcfce7; opacity: 0.45"/>
   </g>
   <g id="patch_7">
    <path d="M 302.101814 228.954713 
L 351.937729 228.954713 
L 351.937729 17.061433 
L 302.101814 17.061433 
z
" clip-path="url(#pa299d61c4f)" style="fill: #fee2e2; opacity: 0.45"/>
   </g>
   <g id="patch_8">
    <path d="M 351.937729 228.954713 
L 360.998804 228.954713 
L 360.998804 17.061433 
L 351.937729 17.061433 
z
" clip-path="url(#pa299d61c4f)" style="fill: #ede9fe; opacity: 0.45"/>
   </g>
   <g id="patch_9">
    <path d="M 360.998804 228.954713 
L 478.792786 228.954713 
L 478.792786 17.061433 
L 360.998804 17.061433 
z
" clip-path="url(#pa299d61c4f)" style="fill: #f8fafc; opacity: 0.45"/>
   </g>
   <g id="patch_10">
    <path d="M 478.792786 228.954713 
L 501.445474 228.954713 
L 501.445474 17.061433 
L 478.792786 17.061433 
z
" clip-path="url(#pa299d61c4f)" style="fill: #eff6ff; opacity: 0.45"/>
   </g>
   <g id="patch_11">
    <path d="M 501.445474 228.954713 
L 528.628701 228.954713 
L 528.628701 17.061433 
L 501.445474 17.061433 
z
" clip-path="url(#pa299d61c4f)" style="fill: #fef3c7; opacity: 0.45"/>
   </g>
   <g id="patch_12">
    <path d="M 528.628701 228.954713 
L 560.342465 228.954713 
L 560.342465 17.061433 
L 528.628701 17.061433 
z
" clip-path="url(#pa299d61c4f)" style="fill: #dcfce7; opacity: 0.45"/>
   </g>
   <g id="patch_13">
    <path d="M 560.342465 228.954713 
L 605.647842 228.954713 
L 605.647842 17.061433 
L 560.342465 17.061433 
z
" clip-path="url(#pa299d61c4f)" style="fill: #fee2e2; opacity: 0.45"/>
   </g>
   <g id="patch_14">
    <path d="M 605.647842 228.954713 
L 614.708918 228.954713 
L 614.708918 17.061433 
L 605.647842 17.061433 
z
" clip-path="url(#pa299d61c4f)" style="fill: #ede9fe; opacity: 0.45"/>
   </g>
   <g id="patch_15">
    <path d="M 614.708918 228.954713 
L 732.502899 228.954713 
L 732.502899 17.061433 
L 614.708918 17.061433 
z
" clip-path="url(#pa299d61c4f)" style="fill: #f8fafc; opacity: 0.45"/>
   </g>
   <g id="patch_16">
    <path d="M 732.502899 228.954713 
L 755.155588 228.954713 
L 755.155588 17.061433 
L 732.502899 17.061433 
z
" clip-path="url(#pa299d61c4f)" style="fill: #eff6ff; opacity: 0.45"/>
   </g>
   <g id="patch_17">
    <path d="M 755.155588 228.954713 
L 782.338814 228.954713 
L 782.338814 17.061433 
L 755.155588 17.061433 
z
" clip-path="url(#pa299d61c4f)" style="fill: #fef3c7; opacity: 0.45"/>
   </g>
   <g id="patch_18">
    <path d="M 782.338814 228.954713 
L 814.052578 228.954713 
L 814.052578 17.061433 
L 782.338814 17.061433 
z
" clip-path="url(#pa299d61c4f)" style="fill: #dcfce7; opacity: 0.45"/>
   </g>
   <g id="patch_19">
    <path d="M 814.052578 228.954713 
L 859.357956 228.954713 
L 859.357956 17.061433 
L 814.052578 17.061433 
z
" clip-path="url(#pa299d61c4f)" style="fill: #fee2e2; opacity: 0.45"/>
   </g>
   <g id="patch_20">
    <path d="M 859.357956 228.954713 
L 868.419031 228.954713 
L 868.419031 17.061433 
L 859.357956 17.061433 
z
" clip-path="url(#pa299d61c4f)" style="fill: #ede9fe; opacity: 0.45"/>
   </g>
   <g id="patch_21">
    <path d="M 868.419031 228.954713 
L 913.724408 228.954713 
L 913.724408 17.061433 
L 868.419031 17.061433 
z
" clip-path="url(#pa299d61c4f)" style="fill: #f8fafc; opacity: 0.45"/>
   </g>
   <g id="patch_22">
    <path d="M 913.724408 228.954713 
L 918.254946 228.954713 
L 918.254946 17.061433 
L 913.724408 17.061433 
z
" clip-path="url(#pa299d61c4f)" style="fill: #eff6ff; opacity: 0.45"/>
   </g>
   <g id="matplotlib.axis_1">
    <g id="xtick_1">
     <g id="line2d_1">
      <path d="M 39.330625 228.954713 
L 39.330625 17.061433 
" clip-path="url(#pa299d61c4f)" style="fill: none; stroke: #eef2f7; stroke-width: 0.55; stroke-linecap: square"/>
     </g>
     <g id="line2d_2">
      <defs>
       <path id="m66e623416d" d="M 0 0 
L 0 3.5 
" style="stroke: #000000; stroke-width: 0.8"/>
      </defs>
      <g>
       <use xlink:href="#m66e623416d" x="39.330625" y="228.954713" style="stroke: #000000; stroke-width: 0.8"/>
      </g>
     </g>
     <g id="text_1">
      <!-- 0 -->
      <g transform="translate(36.4675 242.793307) scale(0.09 -0.09)">
       <defs>
        <path id="DejaVuSans-30" d="M 2034 4250 
Q 1547 4250 1301 3770 
Q 1056 3291 1056 2328 
Q 1056 1369 1301 889 
Q 1547 409 2034 409 
Q 2525 409 2770 889 
Q 3016 1369 3016 2328 
Q 3016 3291 2770 3770 
Q 2525 4250 2034 4250 
z
M 2034 4750 
Q 2819 4750 3233 4129 
Q 3647 3509 3647 2328 
Q 3647 1150 3233 529 
Q 2819 -91 2034 -91 
Q 1250 -91 836 529 
Q 422 1150 422 2328 
Q 422 3509 836 4129 
Q 1250 4750 2034 4750 
z
" transform="scale(0.015625)"/>
       </defs>
       <use xlink:href="#DejaVuSans-30"/>
      </g>
     </g>
    </g>
    <g id="xtick_2">
     <g id="line2d_3">
      <path d="M 152.594068 228.954713 
L 152.594068 17.061433 
" clip-path="url(#pa299d61c4f)" style="fill: none; stroke: #eef2f7; stroke-width: 0.55; stroke-linecap: square"/>
     </g>
     <g id="line2d_4">
      <g>
       <use xlink:href="#m66e623416d" x="152.594068" y="228.954713" style="stroke: #000000; stroke-width: 0.8"/>
      </g>
     </g>
     <g id="text_2">
      <!-- 25 -->
      <g transform="translate(146.867818 242.793307) scale(0.09 -0.09)">
       <defs>
        <path id="DejaVuSans-32" d="M 1228 531 
L 3431 531 
L 3431 0 
L 469 0 
L 469 531 
Q 828 903 1448 1529 
Q 2069 2156 2228 2338 
Q 2531 2678 2651 2914 
Q 2772 3150 2772 3378 
Q 2772 3750 2511 3984 
Q 2250 4219 1831 4219 
Q 1534 4219 1204 4116 
Q 875 4013 500 3803 
L 500 4441 
Q 881 4594 1212 4672 
Q 1544 4750 1819 4750 
Q 2544 4750 2975 4387 
Q 3406 4025 3406 3419 
Q 3406 3131 3298 2873 
Q 3191 2616 2906 2266 
Q 2828 2175 2409 1742 
Q 1991 1309 1228 531 
z
" transform="scale(0.015625)"/>
        <path id="DejaVuSans-35" d="M 691 4666 
L 3169 4666 
L 3169 4134 
L 1269 4134 
L 1269 2991 
Q 1406 3038 1543 3061 
Q 1681 3084 1819 3084 
Q 2600 3084 3056 2656 
Q 3513 2228 3513 1497 
Q 3513 744 3044 326 
Q 2575 -91 1722 -91 
Q 1428 -91 1123 -41 
Q 819 9 494 109 
L 494 744 
Q 775 591 1075 516 
Q 1375 441 1709 441 
Q 2250 441 2565 725 
Q 2881 1009 2881 1497 
Q 2881 1984 2565 2268 
Q 2250 2553 1709 2553 
Q 1456 2553 1204 2497 
Q 953 2441 691 2322 
L 691 4666 
z
" transform="scale(0.015625)"/>
       </defs>
       <use xlink:href="#DejaVuSans-32"/>
       <use xlink:href="#DejaVuSans-35" transform="translate(63.623047 0)"/>
      </g>
     </g>
    </g>
    <g id="xtick_3">
     <g id="line2d_5">
      <path d="M 265.857512 228.954713 
L 265.857512 17.061433 
" clip-path="url(#pa299d61c4f)" style="fill: none; stroke: #eef2f7; stroke-width: 0.55; stroke-linecap: square"/>
     </g>
     <g id="line2d_6">
      <g>
       <use xlink:href="#m66e623416d" x="265.857512" y="228.954713" style="stroke: #000000; stroke-width: 0.8"/>
      </g>
     </g>
     <g id="text_3">
      <!-- 50 -->
      <g transform="translate(260.131262 242.793307) scale(0.09 -0.09)">
       <use xlink:href="#DejaVuSans-35"/>
       <use xlink:href="#DejaVuSans-30" transform="translate(63.623047 0)"/>
      </g>
     </g>
    </g>
    <g id="xtick_4">
     <g id="line2d_7">
      <path d="M 379.120955 228.954713 
L 379.120955 17.061433 
" clip-path="url(#pa299d61c4f)" style="fill: none; stroke: #eef2f7; stroke-width: 0.55; stroke-linecap: square"/>
     </g>
     <g id="line2d_8">
      <g>
       <use xlink:href="#m66e623416d" x="379.120955" y="228.954713" style="stroke: #000000; stroke-width: 0.8"/>
      </g>
     </g>
     <g id="text_4">
      <!-- 75 -->
      <g transform="translate(373.394705 242.793307) scale(0.09 -0.09)">
       <defs>
        <path id="DejaVuSans-37" d="M 525 4666 
L 3525 4666 
L 3525 4397 
L 1831 0 
L 1172 0 
L 2766 4134 
L 525 4134 
L 525 4666 
z
" transform="scale(0.015625)"/>
       </defs>
       <use xlink:href="#DejaVuSans-37"/>
       <use xlink:href="#DejaVuSans-35" transform="translate(63.623047 0)"/>
      </g>
     </g>
    </g>
    <g id="xtick_5">
     <g id="line2d_9">
      <path d="M 492.384399 228.954713 
L 492.384399 17.061433 
" clip-path="url(#pa299d61c4f)" style="fill: none; stroke: #eef2f7; stroke-width: 0.55; stroke-linecap: square"/>
     </g>
     <g id="line2d_10">
      <g>
       <use xlink:href="#m66e623416d" x="492.384399" y="228.954713" style="stroke: #000000; stroke-width: 0.8"/>
      </g>
     </g>
     <g id="text_5">
      <!-- 100 -->
      <g transform="translate(483.795024 242.793307) scale(0.09 -0.09)">
       <defs>
        <path id="DejaVuSans-31" d="M 794 531 
L 1825 531 
L 1825 4091 
L 703 3866 
L 703 4441 
L 1819 4666 
L 2450 4666 
L 2450 531 
L 3481 531 
L 3481 0 
L 794 0 
L 794 531 
z
" transform="scale(0.015625)"/>
       </defs>
       <use xlink:href="#DejaVuSans-31"/>
       <use xlink:href="#DejaVuSans-30" transform="translate(63.623047 0)"/>
       <use xlink:href="#DejaVuSans-30" transform="translate(127.246094 0)"/>
      </g>
     </g>
    </g>
    <g id="xtick_6">
     <g id="line2d_11">
      <path d="M 605.647842 228.954713 
L 605.647842 17.061433 
" clip-path="url(#pa299d61c4f)" style="fill: none; stroke: #eef2f7; stroke-width: 0.55; stroke-linecap: square"/>
     </g>
     <g id="line2d_12">
      <g>
       <use xlink:href="#m66e623416d" x="605.647842" y="228.954713" style="stroke: #000000; stroke-width: 0.8"/>
      </g>
     </g>
     <g id="text_6">
      <!-- 125 -->
      <g transform="translate(597.058467 242.793307) scale(0.09 -0.09)">
       <use xlink:href="#DejaVuSans-31"/>
       <use xlink:href="#DejaVuSans-32" transform="translate(63.623047 0)"/>
       <use xlink:href="#DejaVuSans-35" transform="translate(127.246094 0)"/>
      </g>
     </g>
    </g>
    <g id="xtick_7">
     <g id="line2d_13">
      <path d="M 718.911286 228.954713 
L 718.911286 17.061433 
" clip-path="url(#pa299d61c4f)" style="fill: none; stroke: #eef2f7; stroke-width: 0.55; stroke-linecap: square"/>
     </g>
     <g id="line2d_14">
      <g>
       <use xlink:href="#m66e623416d" x="718.911286" y="228.954713" style="stroke: #000000; stroke-width: 0.8"/>
      </g>
     </g>
     <g id="text_7">
      <!-- 150 -->
      <g transform="translate(710.321911 242.793307) scale(0.09 -0.09)">
       <use xlink:href="#DejaVuSans-31"/>
       <use xlink:href="#DejaVuSans-35" transform="translate(63.623047 0)"/>
       <use xlink:href="#DejaVuSans-30" transform="translate(127.246094 0)"/>
      </g>
     </g>
    </g>
    <g id="xtick_8">
     <g id="line2d_15">
      <path d="M 832.174729 228.954713 
L 832.174729 17.061433 
" clip-path="url(#pa299d61c4f)" style="fill: none; stroke: #eef2f7; stroke-width: 0.55; stroke-linecap: square"/>
     </g>
     <g id="line2d_16">
      <g>
       <use xlink:href="#m66e623416d" x="832.174729" y="228.954713" style="stroke: #000000; stroke-width: 0.8"/>
      </g>
     </g>
     <g id="text_8">
      <!-- 175 -->
      <g transform="translate(823.585354 242.793307) scale(0.09 -0.09)">
       <use xlink:href="#DejaVuSans-31"/>
       <use xlink:href="#DejaVuSans-37" transform="translate(63.623047 0)"/>
       <use xlink:href="#DejaVuSans-35" transform="translate(127.246094 0)"/>
      </g>
     </g>
    </g>
    <g id="text_9">
     <!-- Minutes since session start -->
     <g transform="translate(419.728281 256.263463) scale(0.1 -0.1)">
      <defs>
       <path id="DejaVuSans-4d" d="M 628 4666 
L 1569 4666 
L 2759 1491 
L 3956 4666 
L 4897 4666 
L 4897 0 
L 4281 0 
L 4281 4097 
L 3078 897 
L 2444 897 
L 1241 4097 
L 1241 0 
L 628 0 
L 628 4666 
z
" transform="scale(0.015625)"/>
       <path id="DejaVuSans-69" d="M 603 3500 
L 1178 3500 
L 1178 0 
L 603 0 
L 603 3500 
z
M 603 4863 
L 1178 4863 
L 1178 4134 
L 603 4134 
L 603 4863 
z
" transform="scale(0.015625)"/>
       <path id="DejaVuSans-6e" d="M 3513 2113 
L 3513 0 
L 2938 0 
L 2938 2094 
Q 2938 2591 2744 2837 
Q 2550 3084 2163 3084 
Q 1697 3084 1428 2787 
Q 1159 2491 1159 1978 
L 1159 0 
L 581 0 
L 581 3500 
L 1159 3500 
L 1159 2956 
Q 1366 3272 1645 3428 
Q 1925 3584 2291 3584 
Q 2894 3584 3203 3211 
Q 3513 2838 3513 2113 
z
" transform="scale(0.015625)"/>
       <path id="DejaVuSans-75" d="M 544 1381 
L 544 3500 
L 1119 3500 
L 1119 1403 
Q 1119 906 1312 657 
Q 1506 409 1894 409 
Q 2359 409 2629 706 
Q 2900 1003 2900 1516 
L 2900 3500 
L 3475 3500 
L 3475 0 
L 2900 0 
L 2900 538 
Q 2691 219 2414 64 
Q 2138 -91 1772 -91 
Q 1169 -91 856 284 
Q 544 659 544 1381 
z
M 1991 3584 
L 1991 3584 
z
" transform="scale(0.015625)"/>
       <path id="DejaVuSans-74" d="M 1172 4494 
L 1172 3500 
L 2356 3500 
L 2356 3053 
L 1172 3053 
L 1172 1153 
Q 1172 725 1289 603 
Q 1406 481 1766 481 
L 2356 481 
L 2356 0 
L 1766 0 
Q 1100 0 847 248 
Q 594 497 594 1153 
L 594 3053 
L 172 3053 
L 172 3500 
L 594 3500 
L 594 4494 
L 1172 4494 
z
" transform="scale(0.015625)"/>
       <path id="DejaVuSans-65" d="M 3597 1894 
L 3597 1613 
L 953 1613 
Q 991 1019 1311 708 
Q 1631 397 2203 397 
Q 2534 397 2845 478 
Q 3156 559 3463 722 
L 3463 178 
Q 3153 47 2828 -22 
Q 2503 -91 2169 -91 
Q 1331 -91 842 396 
Q 353 884 353 1716 
Q 353 2575 817 3079 
Q 1281 3584 2069 3584 
Q 2775 3584 3186 3129 
Q 3597 2675 3597 1894 
z
M 3022 2063 
Q 3016 2534 2758 2815 
Q 2500 3097 2075 3097 
Q 1594 3097 1305 2825 
Q 1016 2553 972 2059 
L 3022 2063 
z
" transform="scale(0.015625)"/>
       <path id="DejaVuSans-73" d="M 2834 3397 
L 2834 2853 
Q 2591 2978 2328 3040 
Q 2066 3103 1784 3103 
Q 1356 3103 1142 2972 
Q 928 2841 928 2578 
Q 928 2378 1081 2264 
Q 1234 2150 1697 2047 
L 1894 2003 
Q 2506 1872 2764 1633 
Q 3022 1394 3022 966 
Q 3022 478 2636 193 
Q 2250 -91 1575 -91 
Q 1294 -91 989 -36 
Q 684 19 347 128 
L 347 722 
Q 666 556 975 473 
Q 1284 391 1588 391 
Q 1994 391 2212 530 
Q 2431 669 2431 922 
Q 2431 1156 2273 1281 
Q 2116 1406 1581 1522 
L 1381 1569 
Q 847 1681 609 1914 
Q 372 2147 372 2553 
Q 372 3047 722 3315 
Q 1072 3584 1716 3584 
Q 2034 3584 2315 3537 
Q 2597 3491 2834 3397 
z
" transform="scale(0.015625)"/>
       <path id="DejaVuSans-20" transform="scale(0.015625)"/>
       <path id="DejaVuSans-63" d="M 3122 3366 
L 3122 2828 
Q 2878 2963 2633 3030 
Q 2388 3097 2138 3097 
Q 1578 3097 1268 2742 
Q 959 2388 959 1747 
Q 959 1106 1268 751 
Q 1578 397 2138 397 
Q 2388 397 2633 464 
Q 2878 531 3122 666 
L 3122 134 
Q 2881 22 2623 -34 
Q 2366 -91 2075 -91 
Q 1284 -91 818 406 
Q 353 903 353 1747 
Q 353 2603 823 3093 
Q 1294 3584 2113 3584 
Q 2378 3584 2631 3529 
Q 2884 3475 3122 3366 
z
" transform="scale(0.015625)"/>
       <path id="DejaVuSans-6f" d="M 1959 3097 
Q 1497 3097 1228 2736 
Q 959 2375 959 1747 
Q 959 1119 1226 758 
Q 1494 397 1959 397 
Q 2419 397 2687 759 
Q 2956 1122 2956 1747 
Q 2956 2369 2687 2733 
Q 2419 3097 1959 3097 
z
M 1959 3584 
Q 2709 3584 3137 3096 
Q 3566 2609 3566 1747 
Q 3566 888 3137 398 
Q 2709 -91 1959 -91 
Q 1206 -91 779 398 
Q 353 888 353 1747 
Q 353 2609 779 3096 
Q 1206 3584 1959 3584 
z
" transform="scale(0.015625)"/>
       <path id="DejaVuSans-61" d="M 2194 1759 
Q 1497 1759 1228 1600 
Q 959 1441 959 1056 
Q 959 750 1161 570 
Q 1363 391 1709 391 
Q 2188 391 2477 730 
Q 2766 1069 2766 1631 
L 2766 1759 
L 2194 1759 
z
M 3341 1997 
L 3341 0 
L 2766 0 
L 2766 531 
Q 2569 213 2275 61 
Q 1981 -91 1556 -91 
Q 1019 -91 701 211 
Q 384 513 384 1019 
Q 384 1609 779 1909 
Q 1175 2209 1959 2209 
L 2766 2209 
L 2766 2266 
Q 2766 2663 2505 2880 
Q 2244 3097 1772 3097 
Q 1472 3097 1187 3025 
Q 903 2953 641 2809 
L 641 3341 
Q 956 3463 1253 3523 
Q 1550 3584 1831 3584 
Q 2591 3584 2966 3190 
Q 3341 2797 3341 1997 
z
" transform="scale(0.015625)"/>
       <path id="DejaVuSans-72" d="M 2631 2963 
Q 2534 3019 2420 3045 
Q 2306 3072 2169 3072 
Q 1681 3072 1420 2755 
Q 1159 2438 1159 1844 
L 1159 0 
L 581 0 
L 581 3500 
L 1159 3500 
L 1159 2956 
Q 1341 3275 1631 3429 
Q 1922 3584 2338 3584 
Q 2397 3584 2469 3576 
Q 2541 3569 2628 3553 
L 2631 2963 
z
" transform="scale(0.015625)"/>
      </defs>
      <use xlink:href="#DejaVuSans-4d"/>
      <use xlink:href="#DejaVuSans-69" transform="translate(86.279297 0)"/>
      <use xlink:href="#DejaVuSans-6e" transform="translate(114.0625 0)"/>
      <use xlink:href="#DejaVuSans-75" transform="translate(177.441406 0)"/>
      <use xlink:href="#DejaVuSans-74" transform="translate(240.820312 0)"/>
      <use xlink:href="#DejaVuSans-65" transform="translate(280.029297 0)"/>
      <use xlink:href="#DejaVuSans-73" transform="translate(341.552734 0)"/>
      <use xlink:href="#DejaVuSans-20" transform="translate(393.652344 0)"/>
      <use xlink:href="#DejaVuSans-73" transform="translate(425.439453 0)"/>
      <use xlink:href="#DejaVuSans-69" transform="translate(477.539062 0)"/>
      <use xlink:href="#DejaVuSans-6e" transform="translate(505.322266 0)"/>
      <use xlink:href="#DejaVuSans-63" transform="translate(568.701172 0)"/>
      <use xlink:href="#DejaVuSans-65" transform="translate(623.681641 0)"/>
      <use xlink:href="#DejaVuSans-20" transform="translate(685.205078 0)"/>
      <use xlink:href="#DejaVuSans-73" transform="translate(716.992188 0)"/>
      <use xlink:href="#DejaVuSans-65" transform="translate(769.091797 0)"/>
      <use xlink:href="#DejaVuSans-73" transform="translate(830.615234 0)"/>
      <use xlink:href="#DejaVuSans-73" transform="translate(882.714844 0)"/>
      <use xlink:href="#DejaVuSans-69" transform="translate(934.814453 0)"/>
      <use xlink:href="#DejaVuSans-6f" transform="translate(962.597656 0)"/>
      <use xlink:href="#DejaVuSans-6e" transform="translate(1023.779297 0)"/>
      <use xlink:href="#DejaVuSans-20" transform="translate(1087.158203 0)"/>
      <use xlink:href="#DejaVuSans-73" transform="translate(1118.945312 0)"/>
      <use xlink:href="#DejaVuSans-74" transform="translate(1171.044922 0)"/>
      <use xlink:href="#DejaVuSans-61" transform="translate(1210.253906 0)"/>
      <use xlink:href="#DejaVuSans-72" transform="translate(1271.533203 0)"/>
      <use xlink:href="#DejaVuSans-74" transform="translate(1312.646484 0)"/>
     </g>
    </g>
   </g>
   <g id="matplotlib.axis_2">
    <g id="ytick_1">
     <g id="line2d_17">
      <path d="M 39.330625 219.298451 
L 935.305625 219.298451 
" clip-path="url(#pa299d61c4f)" style="fill: none; stroke: #eef2f7; stroke-opacity: 0.25; stroke-width: 0.55; stroke-linecap: square"/>
     </g>
     <g id="line2d_18">
      <defs>
       <path id="m3427876041" d="M 0 0 
L -3.5 0 
" style="stroke: #000000; stroke-width: 0.8"/>
      </defs>
      <g>
       <use xlink:href="#m3427876041" x="39.330625" y="219.298451" style="stroke: #000000; stroke-width: 0.8"/>
      </g>
     </g>
     <g id="text_10">
      <!-- 0 -->
      <g transform="translate(26.604375 222.717748) scale(0.09 -0.09)">
       <use xlink:href="#DejaVuSans-30"/>
      </g>
     </g>
    </g>
    <g id="ytick_2">
     <g id="line2d_19">
      <path d="M 39.330625 178.742581 
L 935.305625 178.742581 
" clip-path="url(#pa299d61c4f)" style="fill: none; stroke: #eef2f7; stroke-opacity: 0.25; stroke-width: 0.55; stroke-linecap: square"/>
     </g>
     <g id="line2d_20">
      <g>
       <use xlink:href="#m3427876041" x="39.330625" y="178.742581" style="stroke: #000000; stroke-width: 0.8"/>
      </g>
     </g>
     <g id="text_11">
      <!-- 5 -->
      <g transform="translate(26.604375 182.161878) scale(0.09 -0.09)">
       <use xlink:href="#DejaVuSans-35"/>
      </g>
     </g>
    </g>
    <g id="ytick_3">
     <g id="line2d_21">
      <path d="M 39.330625 138.186711 
L 935.305625 138.186711 
" clip-path="url(#pa299d61c4f)" style="fill: none; stroke: #eef2f7; stroke-opacity: 0.25; stroke-width: 0.55; stroke-linecap: square"/>
     </g>
     <g id="line2d_22">
      <g>
       <use xlink:href="#m3427876041" x="39.330625" y="138.186711" style="stroke: #000000; stroke-width: 0.8"/>
      </g>
     </g>
     <g id="text_12">
      <!-- 10 -->
      <g transform="translate(20.878125 141.606008) scale(0.09 -0.09)">
       <use xlink:href="#DejaVuSans-31"/>
       <use xlink:href="#DejaVuSans-30" transform="translate(63.623047 0)"/>
      </g>
     </g>
    </g>
    <g id="ytick_4">
     <g id="line2d_23">
      <path d="M 39.330625 97.630841 
L 935.305625 97.630841 
" clip-path="url(#pa299d61c4f)" style="fill: none; stroke: #eef2f7; stroke-opacity: 0.25; stroke-width: 0.55; stroke-linecap: square"/>
     </g>
     <g id="line2d_24">
      <g>
       <use xlink:href="#m3427876041" x="39.330625" y="97.630841" style="stroke: #000000; stroke-width: 0.8"/>
      </g>
     </g>
     <g id="text_13">
      <!-- 15 -->
      <g transform="translate(20.878125 101.050137) scale(0.09 -0.09)">
       <use xlink:href="#DejaVuSans-31"/>
       <use xlink:href="#DejaVuSans-35" transform="translate(63.623047 0)"/>
      </g>
     </g>
    </g>
    <g id="ytick_5">
     <g id="line2d_25">
      <path d="M 39.330625 57.07497 
L 935.305625 57.07497 
" clip-path="url(#pa299d61c4f)" style="fill: none; stroke: #eef2f7; stroke-opacity: 0.25; stroke-width: 0.55; stroke-linecap: square"/>
     </g>
     <g id="line2d_26">
      <g>
       <use xlink:href="#m3427876041" x="39.330625" y="57.07497" style="stroke: #000000; stroke-width: 0.8"/>
      </g>
     </g>
     <g id="text_14">
      <!-- 20 -->
      <g transform="translate(20.878125 60.494267) scale(0.09 -0.09)">
       <use xlink:href="#DejaVuSans-32"/>
       <use xlink:href="#DejaVuSans-30" transform="translate(63.623047 0)"/>
      </g>
     </g>
    </g>
    <g id="text_15">
     <!-- EDA (microsiemens) -->
     <g transform="translate(14.798438 173.642448) rotate(-90) scale(0.1 -0.1)">
      <defs>
       <path id="DejaVuSans-45" d="M 628 4666 
L 3578 4666 
L 3578 4134 
L 1259 4134 
L 1259 2753 
L 3481 2753 
L 3481 2222 
L 1259 2222 
L 1259 531 
L 3634 531 
L 3634 0 
L 628 0 
L 628 4666 
z
" transform="scale(0.015625)"/>
       <path id="DejaVuSans-44" d="M 1259 4147 
L 1259 519 
L 2022 519 
Q 2988 519 3436 956 
Q 3884 1394 3884 2338 
Q 3884 3275 3436 3711 
Q 2988 4147 2022 4147 
L 1259 4147 
z
M 628 4666 
L 1925 4666 
Q 3281 4666 3915 4102 
Q 4550 3538 4550 2338 
Q 4550 1131 3912 565 
Q 3275 0 1925 0 
L 628 0 
L 628 4666 
z
" transform="scale(0.015625)"/>
       <path id="DejaVuSans-41" d="M 2188 4044 
L 1331 1722 
L 3047 1722 
L 2188 4044 
z
M 1831 4666 
L 2547 4666 
L 4325 0 
L 3669 0 
L 3244 1197 
L 1141 1197 
L 716 0 
L 50 0 
L 1831 4666 
z
" transform="scale(0.015625)"/>
       <path id="DejaVuSans-28" d="M 1984 4856 
Q 1566 4138 1362 3434 
Q 1159 2731 1159 2009 
Q 1159 1288 1364 580 
Q 1569 -128 1984 -844 
L 1484 -844 
Q 1016 -109 783 600 
Q 550 1309 550 2009 
Q 550 2706 781 3412 
Q 1013 4119 1484 4856 
L 1984 4856 
z
" transform="scale(0.015625)"/>
       <path id="DejaVuSans-6d" d="M 3328 2828 
Q 3544 3216 3844 3400 
Q 4144 3584 4550 3584 
Q 5097 3584 5394 3201 
Q 5691 2819 5691 2113 
L 5691 0 
L 5113 0 
L 5113 2094 
Q 5113 2597 4934 2840 
Q 4756 3084 4391 3084 
Q 3944 3084 3684 2787 
Q 3425 2491 3425 1978 
L 3425 0 
L 2847 0 
L 2847 2094 
Q 2847 2600 2669 2842 
Q 2491 3084 2119 3084 
Q 1678 3084 1418 2786 
Q 1159 2488 1159 1978 
L 1159 0 
L 581 0 
L 581 3500 
L 1159 3500 
L 1159 2956 
Q 1356 3278 1631 3431 
Q 1906 3584 2284 3584 
Q 2666 3584 2933 3390 
Q 3200 3197 3328 2828 
z
" transform="scale(0.015625)"/>
       <path id="DejaVuSans-29" d="M 513 4856 
L 1013 4856 
Q 1481 4119 1714 3412 
Q 1947 2706 1947 2009 
Q 1947 1309 1714 600 
Q 1481 -109 1013 -844 
L 513 -844 
Q 928 -128 1133 580 
Q 1338 1288 1338 2009 
Q 1338 2731 1133 3434 
Q 928 4138 513 4856 
z
" transform="scale(0.015625)"/>
      </defs>
      <use xlink:href="#DejaVuSans-45"/>
      <use xlink:href="#DejaVuSans-44" transform="translate(63.183594 0)"/>
      <use xlink:href="#DejaVuSans-41" transform="translate(138.435547 0)"/>
      <use xlink:href="#DejaVuSans-20" transform="translate(206.84375 0)"/>
      <use xlink:href="#DejaVuSans-28" transform="translate(238.630859 0)"/>
      <use xlink:href="#DejaVuSans-6d" transform="translate(277.644531 0)"/>
      <use xlink:href="#DejaVuSans-69" transform="translate(375.056641 0)"/>
      <use xlink:href="#DejaVuSans-63" transform="translate(402.839844 0)"/>
      <use xlink:href="#DejaVuSans-72" transform="translate(457.820312 0)"/>
      <use xlink:href="#DejaVuSans-6f" transform="translate(496.683594 0)"/>
      <use xlink:href="#DejaVuSans-73" transform="translate(557.865234 0)"/>
      <use xlink:href="#DejaVuSans-69" transform="translate(609.964844 0)"/>
      <use xlink:href="#DejaVuSans-65" transform="translate(637.748047 0)"/>
      <use xlink:href="#DejaVuSans-6d" transform="translate(699.271484 0)"/>
      <use xlink:href="#DejaVuSans-65" transform="translate(796.683594 0)"/>
      <use xlink:href="#DejaVuSans-6e" transform="translate(858.207031 0)"/>
      <use xlink:href="#DejaVuSans-73" transform="translate(921.585938 0)"/>
      <use xlink:href="#DejaVuSans-29" transform="translate(973.685547 0)"/>
     </g>
    </g>
   </g>
   <g id="line2d_27">
    <path d="M 56.19374 181.945684 
L 56.482184 181.883795 
L 56.770628 178.393557 
L 57.924405 178.430706 
L 58.212849 219.3232 
L 58.789738 219.298447 
L 59.078182 219.112796 
L 59.366626 162.848492 
L 59.65507 166.586202 
L 59.943515 166.276761 
L 60.231959 166.586202 
L 60.520403 158.244346 
L 60.808847 155.360581 
L 61.097292 163.343517 
L 61.385736 167.935253 
L 61.67418 174.631027 
L 61.962624 177.799495 
L 62.251068 179.061918 
L 62.539513 173.1582 
L 62.827957 178.480185 
L 63.116401 175.051835 
L 63.404845 177.712868 
L 63.981734 183.839318 
L 64.270178 185.757692 
L 64.558622 180.720329 
L 64.847067 182.37882 
L 65.423955 186.772562 
L 65.712399 188.542421 
L 66.000844 188.851862 
L 66.289288 190.62172 
L 66.577732 185.522549 
L 66.866176 189.631589 
L 67.443065 192.626721 
L 67.731509 193.109417 
L 68.019953 194.681281 
L 68.308397 193.394038 
L 68.596842 191.228192 
L 69.17373 180.200565 
L 69.462174 180.02731 
L 69.750619 178.319259 
L 70.039063 180.509925 
L 70.327507 181.264913 
L 70.615951 168.875906 
L 70.904396 173.133461 
L 71.19284 162.130572 
L 71.481284 164.308909 
L 71.769728 170.658174 
L 72.058172 171.574007 
L 72.346617 173.566679 
L 72.923505 170.039291 
L 73.211949 172.279517 
L 73.500394 172.564138 
L 74.077282 177.428165 
L 74.365726 168.578874 
L 74.654171 167.440228 
L 74.942615 165.039158 
L 75.231059 169.779409 
L 75.519503 161.920168 
L 75.807948 168.281843 
L 76.096392 154.296151 
L 76.384836 153.491685 
L 76.67328 131.733461 
L 76.961725 153.281281 
L 77.538613 169.172937 
L 77.827057 145.966706 
L 78.115501 161.041485 
L 78.69239 172.440361 
L 79.269278 180.584223 
L 79.846167 186.067052 
L 80.423055 190.015247 
L 80.999944 192.824715 
L 82.442165 197.688743 
L 82.730609 196.686283 
L 83.019053 197.577376 
L 83.307498 198.072482 
L 83.884386 199.483421 
L 85.326607 202.676547 
L 87.057273 205.139505 
L 87.634161 205.622201 
L 87.922605 205.424207 
L 88.21105 205.523245 
L 89.076382 206.228673 
L 89.941715 206.587593 
L 90.230159 206.500965 
L 90.518604 204.64448 
L 91.095492 197.503159 
L 91.383936 200.275477 
L 91.672381 194.272803 
L 91.960825 195.795189 
L 92.826157 198.060072 
L 93.69149 200.968577 
L 93.979934 197.973445 
L 94.268379 198.567507 
L 94.556823 196.649133 
L 94.845267 196.550096 
L 95.133711 184.755151 
L 95.7106 191.723217 
L 96.287488 195.696152 
L 96.575933 196.673873 
L 97.152821 199.17398 
L 97.441265 188.765234 
L 97.729709 173.826561 
L 98.306598 184.198238 
L 98.595042 187.651327 
L 98.883486 179.64357 
L 99.171931 146.424581 
L 99.748819 158.578527 
L 100.037263 152.192113 
L 100.325708 154.085748 
L 101.19104 172.725063 
L 101.767929 181.685721 
L 102.633262 190.139024 
L 102.921706 147.922229 
L 103.21015 149.23413 
L 103.787038 166.586202 
L 104.363927 180.089198 
L 104.940815 188.22065 
L 105.806148 193.505486 
L 106.094592 194.916424 
L 106.383037 190.62172 
L 106.671481 192.998051 
L 107.536814 195.980773 
L 109.267479 199.953707 
L 110.421256 201.636938 
L 111.575033 203.035466 
L 112.151921 203.530572 
L 112.440366 203.716237 
L 113.017254 203.592461 
L 113.305698 199.928968 
L 113.882587 201.55031 
L 114.459475 202.56518 
L 114.747919 202.849883 
L 115.324808 203.62961 
L 115.613252 203.840014 
L 115.901696 176.710326 
L 116.190141 124.381493 
L 116.478585 119.455577 
L 116.767029 118.416535 
L 117.343918 144.852798 
L 118.20925 167.291712 
L 118.497694 118.428702 
L 118.786139 115.173688 
L 119.074583 133.045038 
L 119.651471 149.939559 
L 120.516804 170.955205 
L 121.093693 179.779757 
L 121.670581 186.450792 
L 122.24747 190.918751 
L 123.112802 195.312493 
L 123.689691 197.354643 
L 124.843468 200.065073 
L 125.420356 200.980987 
L 125.997245 201.55031 
L 126.285689 198.765582 
L 126.574133 200.028005 
L 127.439466 201.612199 
L 127.72791 201.92164 
L 128.016354 202.453814 
L 129.458575 203.728566 
L 130.035464 204.050418 
L 130.323908 188.827123 
L 130.612352 150.917361 
L 130.900797 152.204523 
L 131.189241 155.484357 
L 131.477685 160.348385 
L 132.054574 173.281977 
L 132.919906 185.559617 
L 133.208351 186.388904 
L 133.496795 151.424796 
L 134.939016 179.965422 
L 135.804349 188.554831 
L 136.092793 190.436055 
L 136.381237 190.918751 
L 136.958126 193.901554 
L 137.24657 173.752343 
L 137.535014 130.038225 
L 137.823458 150.323298 
L 138.111903 161.128112 
L 138.400347 122.277454 
L 138.977235 149.902491 
L 139.265679 128.837772 
L 139.554124 147.872669 
L 139.842568 129.876813 
L 140.419456 152.711958 
L 140.707901 154.803586 
L 140.996345 162.737045 
L 141.284789 167.403079 
L 141.861678 169.791738 
L 142.438566 176.450444 
L 143.303899 183.678393 
L 144.169231 188.715675 
L 144.457676 119.455577 
L 145.034564 153.491685 
L 145.323008 152.080746 
L 145.611453 163.615809 
L 146.188341 175.930599 
L 146.76523 183.208107 
L 147.053674 185.84432 
L 147.342118 180.089198 
L 147.919007 184.581896 
L 148.207451 185.584438 
L 149.072784 189.854322 
L 149.938116 192.614311 
L 150.22656 193.220783 
L 150.515005 98.922951 
L 150.803449 135.817437 
L 151.091893 118.379224 
L 151.380337 116.435786 
L 151.957226 143.974034 
L 152.24567 152.637741 
L 152.534114 138.379757 
L 152.822559 137.327737 
L 154.26478 170.361062 
L 154.841668 177.205433 
L 155.418557 182.477858 
L 155.707001 184.334343 
L 155.995445 173.356275 
L 156.283889 176.351407 
L 156.572334 173.86371 
L 157.437666 180.076788 
L 157.726111 177.527203 
L 158.014555 121.721027 
L 158.302999 142.860126 
L 158.879888 159.444881 
L 159.456776 170.10118 
L 160.322109 178.29452 
L 160.610553 178.801955 
L 160.898997 168.059029 
L 161.475886 174.358735 
L 161.76433 176.623699 
L 162.052774 82.98206 
L 162.341218 127.983665 
L 162.629663 120.730653 
L 163.206551 146.065662 
L 163.78344 162.427684 
L 164.071884 149.22172 
L 164.360328 113.205917 
L 164.648772 133.243761 
L 165.225661 154.184785 
L 165.802549 167.192675 
L 166.379438 175.509792 
L 167.533215 184.049722 
L 168.110103 187.044854 
L 168.398547 188.109203 
L 168.686992 188.344427 
L 169.840769 191.99551 
L 170.706101 193.901554 
L 170.994545 194.37184 
L 171.28299 195.077269 
L 171.571434 195.089679 
L 171.859878 195.807518 
L 172.148322 190.423645 
L 172.436767 187.836992 
L 172.725211 162.526641 
L 173.302099 173.925598 
L 173.590544 170.670503 
L 173.878988 161.449882 
L 174.167432 125.087165 
L 174.455876 134.604816 
L 174.744321 137.897142 
L 175.321209 156.437339 
L 175.609653 111.126212 
L 175.898097 133.800188 
L 176.186542 134.369592 
L 176.474986 142.575505 
L 176.76343 146.412252 
L 177.051874 152.860474 
L 177.340319 126.275452 
L 177.628763 141.337821 
L 178.205651 154.481816 
L 178.494096 147.724154 
L 178.78254 155.273953 
L 179.647873 166.177805 
L 179.936317 147.959297 
L 180.224761 156.585855 
L 180.513205 139.444186 
L 180.801649 151.62279 
L 181.666982 164.61835 
L 182.243871 170.571465 
L 182.532315 166.994681 
L 183.109203 172.762131 
L 183.397648 173.418163 
L 183.974536 177.118724 
L 184.26298 173.640896 
L 184.551425 116.7578 
L 184.839869 140.372429 
L 185.128313 88.056411 
L 185.416757 119.282809 
L 185.993646 141.68433 
L 186.28209 145.236457 
L 186.570534 151.003988 
L 186.858978 135.607357 
L 187.147423 129.951436 
L 187.724311 149.320757 
L 188.3012 161.004336 
L 188.589644 165.28663 
L 188.878088 159.246806 
L 189.166532 113.639054 
L 189.743421 140.570423 
L 190.031865 142.402169 
L 190.608753 156.276413 
L 191.185642 164.209872 
L 191.76253 170.262105 
L 192.050975 172.687914 
L 192.339419 173.8513 
L 192.916307 177.29206 
L 193.78164 181.797168 
L 194.646973 185.15122 
L 194.935417 186.054723 
L 195.223861 185.274996 
L 195.80075 187.18096 
L 196.666082 189.23552 
L 196.954527 188.121613 
L 197.242971 175.225089 
L 197.531415 179.3218 
L 198.108304 183.07192 
L 198.685192 185.175959 
L 198.973636 179.705459 
L 199.262081 176.537072 
L 199.838969 180.893664 
L 200.127413 181.314472 
L 200.415858 182.688262 
L 200.704302 183.294734 
L 201.28119 185.361624 
L 201.569634 182.774889 
L 201.858079 172.725063 
L 202.146523 156.907625 
L 202.434967 147.699415 
L 202.723411 158.553788 
L 203.3003 167.662961 
L 204.165633 176.153413 
L 204.742521 179.705459 
L 205.607854 183.406101 
L 206.184742 185.052182 
L 207.338519 188.084464 
L 207.626963 185.15122 
L 207.915408 186.364165 
L 208.203852 135.80527 
L 208.492296 156.053681 
L 209.069185 169.247235 
L 209.646073 176.512333 
L 210.222962 181.005031 
L 210.511406 182.081789 
L 210.79985 180.596633 
L 211.088294 170.06403 
L 211.376738 173.442902 
L 211.665183 174.532071 
L 212.242071 177.638569 
L 212.530515 177.898451 
L 212.81896 178.715328 
L 213.395848 181.636242 
L 214.261181 184.260126 
L 214.838069 185.869059 
L 215.126514 185.064592 
L 215.414958 185.460661 
L 215.991846 186.921078 
L 216.28029 187.725544 
L 216.857179 188.715675 
L 217.145623 186.883929 
L 217.434067 187.87406 
L 217.722512 188.134023 
L 218.010956 184.866518 
L 218.587844 186.747823 
L 219.453177 188.542421 
L 219.741621 188.616719 
L 220.030066 188.468203 
L 220.31851 187.861731 
L 220.606954 188.406315 
L 220.895398 187.923619 
L 221.183843 185.361624 
L 221.472287 186.388904 
L 221.760731 186.277456 
L 222.049175 187.416184 
L 224.068285 191.017789 
L 224.356729 191.413776 
L 224.645173 191.31482 
L 225.222062 159.172589 
L 225.79895 171.635895 
L 226.087395 174.655766 
L 226.375839 175.336537 
L 226.952727 180.00249 
L 227.241171 180.608962 
L 227.529616 182.094199 
L 227.81806 180.571813 
L 228.106504 110.643597 
L 228.394948 140.793237 
L 228.971837 158.343384 
L 229.260281 164.346058 
L 229.548725 151.932231 
L 229.83717 153.293691 
L 230.125614 160.84341 
L 230.414058 132.426966 
L 230.702502 132.340177 
L 230.990947 142.154697 
L 231.279391 145.743892 
L 231.567835 151.115354 
L 231.856279 144.543357 
L 232.144723 147.006315 
L 232.433168 137.10468 
L 232.721612 145.867668 
L 233.2985 155.360581 
L 233.875389 162.217281 
L 234.163833 161.833541 
L 234.452277 153.070877 
L 235.029166 162.142982 
L 235.31761 165.398078 
L 235.606054 164.506903 
L 235.894499 164.952531 
L 236.471387 170.44777 
L 237.048275 174.470182 
L 238.202052 180.262453 
L 239.644274 184.668524 
L 239.932718 185.015033 
L 240.221162 142.154697 
L 240.509606 156.548706 
L 241.086495 167.477296 
L 241.663383 173.764672 
L 242.240272 177.799495 
L 242.81716 180.596633 
L 243.682493 183.567026 
L 243.970937 184.371493 
L 244.259381 181.685721 
L 244.547826 140.731348 
L 244.83627 155.088289 
L 245.413158 166.487165 
L 245.701603 169.989813 
L 245.990047 150.904951 
L 246.278491 160.051354 
L 246.85538 167.898104 
L 247.432268 173.022094 
L 248.297601 177.997489 
L 248.874489 180.089198 
L 249.451378 181.995162 
L 249.739822 182.73774 
L 250.028266 182.465448 
L 250.893599 184.990294 
L 251.182043 185.646245 
L 251.470487 185.869059 
L 251.758932 164.828754 
L 252.047376 170.719981 
L 252.624264 175.868711 
L 253.201153 179.074247 
L 253.489597 180.113937 
L 253.778041 181.586764 
L 254.35493 117.920942 
L 254.643374 135.80527 
L 255.220262 154.184785 
L 255.797151 165.28663 
L 256.085595 156.660153 
L 256.374039 162.93512 
L 256.950928 169.42049 
L 257.239372 171.858709 
L 257.527816 137.030869 
L 257.81626 135.334822 
L 258.104705 146.82065 
L 258.393149 145.4716 
L 258.681593 153.504095 
L 259.258482 162.539051 
L 260.123814 171.252236 
L 260.700703 175.027096 
L 261.277591 114.15898 
L 261.566036 135.632502 
L 262.142924 153.788716 
L 262.719812 164.321319 
L 263.296701 171.066572 
L 263.873589 175.645897 
L 264.450478 178.888582 
L 265.027366 181.388689 
L 265.604255 183.393691 
L 267.33492 187.88647 
L 267.623365 187.923619 
L 268.200253 188.926079 
L 268.488697 125.310222 
L 269.35403 157.687352 
L 269.930918 167.00701 
L 270.219363 155.917494 
L 270.507807 125.743359 
L 270.796251 140.100137 
L 271.084695 76.335764 
L 271.661584 105.952905 
L 271.950028 110.000381 
L 272.238472 126.200829 
L 272.815361 142.575505 
L 273.392249 154.531375 
L 273.969138 162.625678 
L 274.257582 131.622338 
L 274.546026 124.480449 
L 274.83447 104.938197 
L 275.122915 123.094249 
L 275.411359 105.260211 
L 275.699803 125.470823 
L 276.276692 141.37497 
L 276.565136 128.565236 
L 276.85358 73.848067 
L 277.718913 131.646671 
L 278.584245 153.095617 
L 279.161134 162.130572 
L 279.738022 168.690241 
L 280.603355 175.497381 
L 280.891799 170.361062 
L 281.180244 133.429507 
L 281.468688 153.776387 
L 282.045576 165.781736 
L 282.622465 172.626026 
L 282.910909 174.457772 
L 283.199353 162.019206 
L 283.487797 119.629156 
L 283.776242 116.237874 
L 284.35313 143.76363 
L 284.930019 156.944774 
L 285.506907 164.630679 
L 286.083796 170.460099 
L 286.660684 174.420623 
L 286.949128 144.147288 
L 287.237573 154.073419 
L 287.814461 164.420276 
L 288.102905 167.799147 
L 288.391349 89.145741 
L 288.679794 134.320114 
L 289.256682 153.565984 
L 289.833571 132.439133 
L 290.122015 148.615247 
L 290.410459 149.320757 
L 290.698903 154.494226 
L 290.987348 144.964165 
L 291.275792 83.909978 
L 291.564236 109.393665 
L 292.141125 127.970687 
L 292.718013 141.424448 
L 293.294902 150.273739 
L 293.583346 152.179784 
L 293.87179 151.201982 
L 294.160234 155.174916 
L 294.448678 132.142264 
L 294.737123 143.441859 
L 295.025567 144.506208 
L 295.602455 156.04127 
L 295.8909 155.570985 
L 296.179344 160.472162 
L 296.467788 161.858361 
L 296.756232 164.321319 
L 297.044677 147.724154 
L 297.333121 155.075879 
L 297.621565 158.157719 
L 297.910009 115.54518 
L 298.198454 133.404363 
L 298.775342 150.298478 
L 299.063786 155.496686 
L 299.35223 158.665154 
L 299.640675 142.662132 
L 299.929119 135.397278 
L 300.217563 146.746433 
L 300.794452 156.177457 
L 301.082896 152.575852 
L 301.37134 62.064964 
L 301.659784 104.764618 
L 301.948229 110.903966 
L 302.525117 135.743625 
L 302.813561 143.77604 
L 303.102006 132.154431 
L 303.39045 141.68433 
L 303.678894 115.854215 
L 303.967338 117.153625 
L 304.255782 120.693342 
L 304.544227 129.382031 
L 304.832671 142.266064 
L 305.409559 154.803586 
L 305.698004 159.741913 
L 306.851781 171.376013 
L 307.140225 170.670503 
L 308.005558 176.636028 
L 308.582446 179.086657 
L 308.87089 154.778847 
L 309.159334 162.130572 
L 309.736223 169.556595 
L 310.313111 174.024555 
L 311.178444 178.504924 
L 312.043777 181.264913 
L 312.332221 180.893664 
L 312.90911 133.131827 
L 313.197554 146.325625 
L 313.485998 154.110568 
L 313.774442 109.87628 
L 314.062887 131.15189 
L 314.351331 141.857666 
L 314.639775 128.37949 
L 314.928219 79.528322 
L 315.216663 90.531941 
L 315.505108 120.520574 
L 315.793552 114.28227 
L 316.081996 81.088101 
L 316.658885 106.039695 
L 316.947329 108.849405 
L 317.235773 106.34873 
L 317.524217 83.081016 
L 317.812662 108.650682 
L 318.101106 119.653489 
L 318.38955 101.373336 
L 318.677994 118.775049 
L 318.966439 121.411181 
L 319.254883 119.431243 
L 319.831771 141.288262 
L 320.40866 153.801126 
L 320.985548 160.113242 
L 321.273992 160.831081 
L 321.562437 109.319042 
L 321.850881 131.832417 
L 322.139325 138.008265 
L 322.427769 148.120222 
L 322.716214 149.333167 
L 323.293102 159.939906 
L 323.869991 166.697569 
L 324.158435 169.259564 
L 324.446879 167.972402 
L 325.023767 173.034423 
L 325.8891 178.022228 
L 327.331321 183.554616 
L 328.196654 186.364165 
L 329.061987 188.245389 
L 329.350431 188.690936 
L 329.638875 184.965555 
L 329.927319 183.802169 
L 330.215764 185.572027 
L 330.504208 181.104068 
L 331.081096 184.161089 
L 331.369541 185.262586 
L 331.657985 148.838061 
L 331.946429 130.545174 
L 332.234873 127.191203 
L 332.811762 148.318216 
L 333.100206 129.76569 
L 333.38865 143.75122 
L 333.965539 155.583314 
L 334.542427 123.799921 
L 334.830871 136.300863 
L 335.119316 101.992219 
L 335.40776 119.319309 
L 335.696204 125.805004 
L 336.273093 144.370102 
L 336.561537 150.434665 
L 336.849981 153.070877 
L 337.42687 160.930037 
L 338.003758 166.375798 
L 338.292202 167.143197 
L 338.580647 169.581334 
L 338.869091 170.76954 
L 339.445979 174.519661 
L 340.599756 179.705459 
L 340.8882 180.881254 
L 341.176645 178.393557 
L 341.465089 180.522335 
L 342.618866 184.260126 
L 344.637976 188.332017 
L 344.92642 188.096874 
L 345.214864 188.802303 
L 345.503308 188.950818 
L 346.657085 190.62172 
L 347.810862 191.834584 
L 348.387751 192.527684 
L 348.676195 192.626721 
L 349.829972 193.69115 
L 350.118416 193.926293 
L 350.40686 193.220783 
L 350.983749 26.692946 
L 351.560637 121.423347 
L 352.137526 147.798452 
L 352.714414 162.130572 
L 353.579747 173.950337 
L 354.156635 178.814365 
L 354.44508 161.016746 
L 354.733524 86.075662 
L 355.021968 128.577403 
L 355.310412 143.837928 
L 355.887301 159.927577 
L 356.175745 165.039158 
L 356.464189 83.204306 
L 357.041078 122.00573 
L 357.329522 129.951436 
L 357.617966 103.638787 
L 357.90641 87.573796 
L 358.194855 119.059751 
L 358.771743 141.300672 
L 359.060187 142.315542 
L 359.348632 126.882168 
L 360.213964 149.110353 
L 360.790853 157.873017 
L 361.079297 156.338302 
L 361.367741 151.59805 
L 361.94463 161.239479 
L 362.521518 167.279302 
L 362.809962 169.370931 
L 363.098407 164.506903 
L 363.386851 167.972402 
L 363.675295 169.569005 
L 363.963739 137.476172 
L 364.252184 120.557074 
L 364.829072 145.174568 
L 365.405961 157.068551 
L 365.982849 163.727176 
L 366.271293 164.407947 
L 366.559737 152.031268 
L 367.136626 161.833541 
L 367.713514 166.771867 
L 368.001959 168.875906 
L 368.290403 66.521244 
L 368.578847 105.767159 
L 368.867291 121.547448 
L 369.155736 120.544907 
L 369.44418 118.032877 
L 369.732624 94.046513 
L 370.021068 115.148543 
L 370.597957 132.166597 
L 370.886401 122.227976 
L 371.174845 134.134368 
L 371.751734 142.884865 
L 372.040178 138.899602 
L 372.617066 150.211851 
L 373.193955 157.278955 
L 373.482399 118.626615 
L 373.770843 119.827068 
L 374.059288 136.64721 
L 374.347732 143.565636 
L 374.636176 130.446217 
L 374.92462 123.812088 
L 375.213065 136.22624 
L 375.501509 140.483795 
L 376.078397 144.729022 
L 376.655286 152.97184 
L 376.94373 155.768978 
L 377.232174 152.699629 
L 377.520618 123.911856 
L 377.809063 129.691067 
L 378.097507 139.270931 
L 378.385951 135.929371 
L 378.674395 119.715945 
L 378.96284 133.614442 
L 379.251284 139.345149 
L 379.828172 143.652263 
L 380.116617 148.652396 
L 380.405061 108.812094 
L 380.693505 110.804198 
L 380.981949 126.783211 
L 381.558838 140.99123 
L 381.847282 146.028594 
L 382.135726 143.454188 
L 382.712615 152.501554 
L 383.001059 155.06355 
L 383.289503 156.548706 
L 383.577947 141.548225 
L 384.154836 152.674809 
L 384.44328 149.531161 
L 384.731724 121.213268 
L 385.020169 134.110035 
L 385.597057 147.142501 
L 386.173946 154.457077 
L 387.327722 163.232151 
L 387.904611 166.276761 
L 388.193055 160.298826 
L 389.635276 168.875906 
L 390.789053 173.343865 
L 391.365942 175.274649 
L 391.654386 175.534531 
L 391.94283 92.648146 
L 392.231274 124.295514 
L 392.808163 143.77604 
L 393.385051 154.37045 
L 393.96194 160.991926 
L 394.538828 165.385667 
L 395.115717 168.690241 
L 395.692605 170.76954 
L 396.557938 173.739933 
L 396.846382 174.284518 
L 397.134826 159.816211 
L 397.423271 122.599468 
L 397.711715 137.203637 
L 398.288603 150.694547 
L 398.865492 158.640415 
L 399.730825 165.101046 
L 400.307713 168.294172 
L 400.596157 169.06157 
L 400.884602 168.677831 
L 401.749934 172.551728 
L 402.615267 175.027096 
L 402.903711 173.442902 
L 403.192155 173.937927 
L 403.769044 175.918189 
L 404.057488 176.499923 
L 404.634377 178.096526 
L 404.922821 177.391016 
L 405.211265 177.700457 
L 406.076598 180.212894 
L 406.365042 146.932098 
L 406.653486 157.179917 
L 406.94193 161.722175 
L 407.230375 128.218889 
L 407.518819 50.925889 
L 407.807263 91.088368 
L 408.095707 92.945015 
L 408.384152 73.278663 
L 408.672596 104.157902 
L 408.96104 104.839241 
L 409.249484 78.254057 
L 409.537929 31.767296 
L 409.826373 77.053603 
L 410.114817 52.832015 
L 410.403261 85.185055 
L 410.691706 90.061493 
L 410.98015 106.497165 
L 411.268594 116.113773 
L 411.557038 91.954641 
L 411.845483 111.311958 
L 412.133927 96.719956 
L 412.422371 102.549456 
L 412.710815 104.505061 
L 412.999259 99.863847 
L 413.287704 102.858492 
L 413.576148 111.782406 
L 413.864592 116.856756 
L 414.153036 102.215276 
L 414.441481 117.26556 
L 415.018369 129.468821 
L 415.306813 124.010812 
L 415.883702 138.30554 
L 416.46059 146.065662 
L 416.749035 143.280934 
L 417.037479 114.592117 
L 417.325923 115.978316 
L 417.614367 133.429507 
L 417.902811 136.869456 
L 418.191256 143.615114 
L 418.4797 117.760341 
L 418.768144 136.98139 
L 419.056588 144.048332 
L 419.345033 129.184119 
L 419.633477 139.295671 
L 419.921921 133.639587 
L 420.210365 130.273449 
L 420.49881 108.007465 
L 420.787254 124.456115 
L 421.075698 128.367323 
L 421.652587 139.778366 
L 421.941031 138.936751 
L 422.517919 147.909818 
L 423.383252 155.967053 
L 423.96014 160.633006 
L 424.537029 131.040766 
L 425.113917 147.823191 
L 425.690806 155.979382 
L 426.556139 162.93512 
L 427.133027 166.066357 
L 427.421471 166.252022 
L 427.709915 164.333648 
L 427.99836 166.994681 
L 428.863692 170.460099 
L 429.152137 166.994681 
L 429.440581 156.647743 
L 429.729025 154.197195 
L 430.017469 162.24202 
L 430.594358 167.279302 
L 431.459691 172.452771 
L 432.036579 175.225089 
L 432.613467 176.834103 
L 432.901912 173.653306 
L 433.190356 175.138462 
L 433.4788 159.952316 
L 433.767244 74.540761 
L 434.055689 116.547721 
L 434.344133 132.079808 
L 434.632577 126.176495 
L 434.921021 137.315571 
L 435.209466 140.855125 
L 435.49791 119.77759 
L 435.786354 133.045038 
L 436.363243 123.490886 
L 437.805464 149.246459 
L 438.093908 153.169915 
L 438.382352 153.578312 
L 438.670796 155.174916 
L 439.247685 117.240415 
L 439.536129 111.423081 
L 439.824573 128.156433 
L 440.401462 142.860126 
L 440.97835 151.895082 
L 441.843683 160.16272 
L 442.709016 165.31145 
L 442.99746 166.784277 
L 443.285904 166.895644 
L 443.862793 169.952664 
L 444.151237 170.979944 
L 444.439681 172.749802 
L 444.728125 173.455231 
L 445.593458 176.648438 
L 445.881902 176.623699 
L 446.458791 178.504924 
L 446.747235 178.715328 
L 447.324124 180.113937 
L 447.612568 173.108722 
L 447.901012 162.316237 
L 448.189456 166.784277 
L 448.4779 168.306582 
L 448.766345 170.744801 
L 449.343233 173.244827 
L 449.631677 145.347823 
L 450.785454 161.759324 
L 451.362343 166.487165 
L 451.650787 168.294172 
L 451.939231 159.927577 
L 452.227676 164.519313 
L 453.093008 170.06403 
L 453.381452 170.658174 
L 453.669897 148.045924 
L 453.958341 156.647743 
L 454.246785 155.311103 
L 454.535229 140.867454 
L 454.823674 149.419795 
L 455.400562 156.771519 
L 455.977451 161.895429 
L 456.265895 160.237019 
L 456.842783 164.296499 
L 457.131228 164.816344 
L 457.708116 166.982271 
L 457.99656 166.722389 
L 458.285005 148.243999 
L 458.573449 138.986229 
L 458.861893 148.714285 
L 459.438781 157.74924 
L 460.592558 166.289171 
L 461.169447 168.875906 
L 461.746335 171.165609 
L 462.323224 115.148543 
L 462.611668 133.701232 
L 463.188557 148.739024 
L 463.765445 157.068551 
L 464.342333 162.316237 
L 465.207666 167.403079 
L 465.49611 154.902624 
L 465.784555 106.943279 
L 466.649887 143.652263 
L 466.938332 149.580639 
L 467.226776 146.424581 
L 467.51522 123.119394 
L 467.803664 134.827874 
L 468.092109 108.515225 
L 468.957441 131.460925 
L 469.245885 134.84004 
L 469.53433 113.106961 
L 469.822774 127.95852 
L 470.399662 140.68187 
L 470.976551 148.615247 
L 471.553439 154.667481 
L 472.707216 162.440013 
L 472.995661 162.91038 
L 473.284105 144.258736 
L 473.572549 152.600592 
L 473.860993 128.849938 
L 474.149437 144.444319 
L 474.726326 153.578312 
L 475.01477 156.152718 
L 475.303214 134.221158 
L 475.591659 144.951754 
L 476.168547 153.095617 
L 476.456991 64.985798 
L 476.745436 46.297653 
L 477.03388 86.484465 
L 477.322324 108.316501 
L 477.899213 130.446217 
L 478.187657 138.689198 
L 478.476101 136.238407 
L 478.764545 146.201849 
L 479.052989 151.424796 
L 479.341434 154.110568 
L 479.629878 119.839235 
L 479.918322 137.377216 
L 480.206766 146.350364 
L 480.495211 149.345496 
L 480.783655 149.419795 
L 481.360543 122.326932 
L 481.937432 138.713937 
L 482.51432 148.144961 
L 482.802765 151.585721 
L 483.091209 144.852798 
L 483.668097 153.392648 
L 484.244986 157.551247 
L 484.53343 155.694761 
L 484.821874 156.462078 
L 485.110318 59.020841 
L 485.398763 109.641056 
L 485.975651 137.005724 
L 486.264095 142.773499 
L 486.55254 102.363711 
L 486.840984 125.049853 
L 487.129428 134.233325 
L 487.417872 132.736002 
L 487.706317 75.481658 
L 488.283205 122.413722 
L 488.860094 139.097596 
L 489.148538 145.087941 
L 489.436982 145.558227 
L 489.725426 150.508882 
L 490.01387 153.504095 
L 490.302315 136.176762 
L 490.879203 149.815863 
L 491.167647 153.083288 
L 491.456092 144.456729 
L 491.744536 152.98425 
L 492.03298 155.496686 
L 492.321424 154.37045 
L 492.609869 156.437339 
L 492.898313 154.915034 
L 493.186757 159.048813 
L 494.05209 85.222366 
L 494.340534 104.319315 
L 494.628978 96.02645 
L 494.917422 110.000381 
L 495.205867 84.008935 
L 495.782755 117.463472 
L 496.359644 129.864646 
L 496.936532 138.812975 
L 497.224976 140.65705 
L 497.801865 147.291017 
L 498.667198 155.174916 
L 499.244086 158.850819 
L 500.109419 163.739586 
L 500.397863 163.838623 
L 500.686307 165.794065 
L 500.974751 166.982271 
L 501.263196 167.601072 
L 501.55164 168.690241 
L 501.840084 156.858147 
L 502.128528 160.657826 
L 502.705417 164.704978 
L 503.282305 166.982271 
L 503.57075 168.269433 
L 503.859194 164.803934 
L 504.147638 165.99214 
L 504.436082 166.68524 
L 505.012971 169.358602 
L 505.589859 171.066572 
L 505.878303 169.073899 
L 506.166748 170.472509 
L 506.455192 168.467427 
L 506.743636 158.095831 
L 507.03208 163.417816 
L 507.608969 167.118376 
L 507.897413 168.046619 
L 508.474302 170.868578 
L 509.628079 174.247368 
L 510.204967 157.675023 
L 510.781855 165.088636 
L 511.358744 168.937794 
L 511.647188 170.237366 
L 511.935632 170.781869 
L 512.512521 173.356275 
L 512.800965 173.640896 
L 513.089409 174.742475 
L 513.377854 175.027096 
L 513.666298 175.014686 
L 513.954742 161.128112 
L 514.243186 165.707438 
L 514.820075 169.370931 
L 515.396963 171.474969 
L 515.685407 171.78441 
L 516.262296 173.950337 
L 516.55074 174.358735 
L 516.839184 175.472642 
L 517.127629 175.188021 
L 517.416073 176.153413 
L 517.992961 176.722737 
L 518.281406 176.784625 
L 518.56985 146.387513 
L 518.858294 140.360019 
L 519.435183 156.672482 
L 520.300515 164.989599 
L 520.588959 162.440013 
L 520.877404 161.746914 
L 521.454292 165.682699 
L 522.608069 170.76954 
L 522.896513 170.868578 
L 523.473402 172.947796 
L 523.761846 173.554269 
L 524.05029 173.838971 
L 524.338735 138.503533 
L 524.627179 150.100484 
L 524.915623 149.22172 
L 525.204067 155.868016 
L 525.780956 161.845951 
L 526.357844 164.853493 
L 526.934733 167.6877 
L 527.223177 164.234611 
L 527.511621 152.810995 
L 527.800065 157.600725 
L 528.08851 130.966144 
L 528.376954 80.729587 
L 528.665398 120.309683 
L 528.953842 134.122201 
L 529.242287 82.523779 
L 529.530731 64.317438 
L 529.819175 98.712871 
L 530.107619 118.886172 
L 530.396064 129.171141 
L 530.684508 127.884709 
L 531.261396 140.817976 
L 531.54984 112.488078 
L 531.838285 127.179036 
L 532.126729 120.841776 
L 532.415173 131.325469 
L 532.703617 131.387114 
L 533.280506 143.491338 
L 533.56895 141.572964 
L 533.857394 136.089972 
L 534.434283 146.238998 
L 534.722727 145.719153 
L 535.011171 117.463472 
L 535.299616 133.045038 
L 536.164948 148.924689 
L 536.453392 151.721827 
L 536.741837 152.674809 
L 537.030281 155.892755 
L 537.318725 153.776387 
L 538.184058 157.959644 
L 538.472502 157.650284 
L 539.337835 163.133113 
L 540.780056 169.494707 
L 542.222277 173.950337 
L 543.376054 176.957879 
L 543.664498 177.428165 
L 543.952943 168.071439 
L 544.241387 170.682913 
L 544.818275 173.442902 
L 545.683608 176.116264 
L 547.414273 179.990161 
L 547.702718 165.398078 
L 547.991162 170.051701 
L 548.56805 173.356275 
L 548.856495 174.433033 
L 549.144939 173.653306 
L 549.433383 174.259779 
L 550.010272 176.524662 
L 550.875604 178.393557 
L 551.452493 173.690455 
L 551.740937 172.84884 
L 552.317825 175.992488 
L 552.60627 176.22763 
L 553.183158 177.428165 
L 554.913824 180.200565 
L 555.202268 180.633701 
L 555.490712 180.782217 
L 556.356045 182.502597 
L 556.932933 137.40236 
L 557.221377 136.622065 
L 557.509822 147.736564 
L 558.08671 157.365582 
L 558.952043 165.880774 
L 559.240487 167.00701 
L 559.817376 170.175478 
L 560.394264 172.366144 
L 560.682708 169.383341 
L 561.259597 172.366144 
L 561.548041 173.554269 
L 561.836485 174.123592 
L 562.124929 130.434051 
L 562.413374 130.149348 
L 562.701818 143.342822 
L 563.278706 155.781388 
L 563.567151 157.563657 
L 563.855595 156.882886 
L 564.144039 155.793717 
L 564.720928 161.425143 
L 565.58626 166.796606 
L 565.874705 168.318911 
L 566.163149 111.955985 
L 566.451593 135.322655 
L 567.028481 149.692087 
L 567.60537 157.068551 
L 568.182258 162.22961 
L 569.047591 167.192675 
L 569.336035 168.554135 
L 569.62448 169.259564 
L 570.201368 171.574007 
L 570.489812 170.262105 
L 570.778257 141.090268 
L 571.066701 141.795778 
L 571.643589 151.499013 
L 571.932033 129.270908 
L 572.220478 144.258736 
L 572.797366 154.618003 
L 573.08581 155.868016 
L 573.374255 158.863148 
L 573.662699 124.282536 
L 573.951143 138.887192 
L 574.239587 129.283075 
L 574.528032 139.468925 
L 574.816476 135.80527 
L 575.10492 144.320624 
L 575.393364 148.627657 
L 575.681809 148.441993 
L 575.970253 142.340281 
L 576.547141 151.808454 
L 576.835585 154.481816 
L 577.12403 84.82573 
L 577.412474 117.649218 
L 577.700918 43.945413 
L 577.989362 96.595855 
L 578.566251 125.297244 
L 578.854695 124.307681 
L 579.431584 136.31303 
L 579.720028 137.909309 
L 580.008472 122.203642 
L 580.296916 125.099331 
L 580.873805 145.422121 
L 581.162249 149.593049 
L 581.450693 89.727313 
L 581.739138 122.191476 
L 582.027582 118.341912 
L 582.316026 120.149082 
L 582.60447 128.441135 
L 582.892914 116.534743 
L 583.181359 118.428702 
L 583.469803 129.25793 
L 583.758247 134.431237 
L 584.046691 122.116853 
L 584.335136 131.869728 
L 584.62358 136.918934 
L 584.912024 123.42843 
L 585.200468 134.802729 
L 585.777357 140.372429 
L 586.065801 131.250846 
L 586.354245 138.689198 
L 586.64269 136.869456 
L 586.931134 143.132418 
L 587.796466 153.182244 
L 588.084911 155.855606 
L 588.373355 144.555767 
L 588.661799 151.437206 
L 588.950243 154.902624 
L 589.527132 159.048813 
L 589.815576 159.655285 
L 590.10402 131.139723 
L 590.392465 113.688532 
L 590.680909 124.60455 
L 591.257797 127.970687 
L 591.546242 131.325469 
L 591.834686 139.605112 
L 592.411574 148.008856 
L 592.700018 148.974248 
L 592.988463 153.293691 
L 593.276907 119.641322 
L 593.565351 142.946753 
L 593.853795 148.52862 
L 594.14224 151.796125 
L 594.430684 156.771519 
L 594.719128 155.892755 
L 595.007572 156.165047 
L 595.584461 160.892969 
L 595.872905 159.123111 
L 596.161349 161.845951 
L 596.449794 162.712306 
L 596.738238 165.29904 
L 597.026682 158.677483 
L 597.315126 164.717307 
L 597.892015 169.643223 
L 598.180459 171.264565 
L 598.757347 150.409926 
L 599.045792 159.543919 
L 599.334236 160.633006 
L 599.62268 138.676788 
L 599.911124 144.951754 
L 600.199569 141.560554 
L 600.488013 142.476467 
L 600.776457 148.615247 
L 601.064901 148.825651 
L 601.353346 150.100484 
L 601.64179 136.115117 
L 601.930234 130.842043 
L 602.218678 140.446646 
L 602.795567 150.199522 
L 603.084011 151.400057 
L 603.372455 136.399819 
L 603.660899 145.43445 
L 604.237788 153.875344 
L 604.814676 159.061223 
L 605.680009 164.296499 
L 606.545342 168.3808 
L 607.987563 173.628567 
L 608.276007 174.358735 
L 608.564451 170.856168 
L 608.852896 128.58957 
L 609.14134 149.617788 
L 609.718228 159.234477 
L 610.295117 165.29904 
L 610.583561 167.266892 
L 610.872005 163.430145 
L 611.16045 167.192675 
L 611.737338 170.299173 
L 612.025782 166.190134 
L 612.314227 113.069649 
L 612.602671 127.216348 
L 612.891115 128.268367 
L 613.468003 146.15237 
L 614.044892 154.70463 
L 614.333336 157.947315 
L 614.62178 150.607919 
L 614.910225 83.19214 
L 615.198669 123.602009 
L 615.487113 103.848867 
L 615.775557 119.951169 
L 616.064002 122.636779 
L 616.64089 94.702707 
L 616.929334 114.270103 
L 617.217779 125.186121 
L 617.506223 120.631697 
L 617.794667 71.224102 
L 618.083111 53.785078 
L 618.371555 77.053603 
L 618.66 85.481924 
L 618.948444 70.494097 
L 619.813777 106.138651 
L 620.102221 115.87936 
L 620.390665 120.792298 
L 620.679109 116.052128 
L 620.967554 122.425888 
L 621.255998 133.11966 
L 621.832886 143.75122 
L 622.409775 137.005724 
L 622.698219 143.256195 
L 622.986663 122.698424 
L 623.275107 122.909314 
L 623.563552 138.887192 
L 623.851996 145.11268 
L 624.428884 151.214392 
L 624.717329 127.277993 
L 625.005773 139.902143 
L 625.294217 130.842043 
L 625.582661 141.981361 
L 626.15955 150.397516 
L 627.024883 158.479489 
L 627.313327 151.536162 
L 627.601771 152.489225 
L 627.890215 151.734237 
L 628.17866 137.983931 
L 628.755548 150.038596 
L 629.043992 153.615462 
L 629.332436 154.382779 
L 629.909325 159.209738 
L 631.351546 165.509444 
L 631.63999 166.400538 
L 631.928435 168.071439 
L 632.216879 153.30602 
L 632.505323 159.234477 
L 632.793767 162.24202 
L 633.082212 154.259083 
L 633.370656 155.892755 
L 633.947544 162.130572 
L 634.524433 165.484705 
L 635.101321 168.182806 
L 635.67821 170.076441 
L 636.831987 173.442902 
L 637.120431 171.388342 
L 637.408875 148.491552 
L 637.697319 155.608134 
L 638.274208 162.204871 
L 638.851096 165.719848 
L 639.427985 168.170396 
L 639.716429 163.999468 
L 640.004873 167.093637 
L 640.581762 169.766999 
L 641.447094 172.564138 
L 642.023983 173.54194 
L 642.312427 169.668043 
L 642.889316 172.452771 
L 643.754648 174.977617 
L 644.908425 177.749936 
L 646.062202 179.717869 
L 646.639091 180.571813 
L 646.927535 160.930037 
L 647.215979 167.056488 
L 647.792868 171.264565 
L 648.369756 173.826561 
L 650.388866 178.529663 
L 650.965754 179.408427 
L 651.831087 180.720329 
L 652.407975 181.203025 
L 652.69642 157.996793 
L 652.984864 165.200003 
L 653.561752 170.249695 
L 654.138641 173.145871 
L 655.003973 175.831562 
L 655.580862 177.118724 
L 656.734639 179.098986 
L 659.330637 182.812038 
L 659.619081 183.08433 
L 659.907525 181.190696 
L 660.19597 181.079329 
L 660.484414 181.698131 
L 660.772858 151.709417 
L 661.061302 152.315889 
L 661.349747 159.370583 
L 661.638191 108.984862 
L 661.926635 126.86919 
L 662.215079 136.065639 
L 662.503524 130.09987 
L 662.791968 64.837364 
L 663.080412 44.25526 
L 663.368856 87.066036 
L 663.945745 117.054669 
L 664.811077 139.691739 
L 665.67641 153.504095 
L 665.964854 90.036348 
L 666.253299 111.992485 
L 666.541743 60.567642 
L 666.830187 106.039695 
L 667.407076 128.577403 
L 667.983964 141.560554 
L 668.560853 150.310888 
L 669.426185 159.123111 
L 669.714629 161.029075 
L 670.003074 154.283822 
L 670.579962 160.620677 
L 671.156851 164.704978 
L 671.445295 166.363469 
L 671.733739 161.350845 
L 672.022183 95.011742 
L 672.310628 117.562429 
L 672.599072 107.549184 
L 672.887516 126.882168 
L 673.464405 143.738891 
L 674.041293 151.895082 
L 674.329737 131.709127 
L 674.618182 124.679173 
L 674.906626 113.997568 
L 675.483514 132.847125 
L 675.771958 125.842315 
L 676.060403 131.040766 
L 676.348847 112.599201 
L 676.637291 128.874272 
L 676.925735 136.325196 
L 677.21418 140.66946 
L 677.502624 136.906768 
L 677.791068 144.246326 
L 678.079512 135.322655 
L 678.367957 144.852798 
L 678.944845 151.907492 
L 679.233289 135.520568 
L 679.521734 112.389122 
L 679.810178 128.713671 
L 680.098622 137.786019 
L 680.387066 133.008537 
L 680.67551 142.959163 
L 681.252399 149.716826 
L 681.829287 155.137767 
L 682.69462 160.732044 
L 683.559953 165.200003 
L 684.425286 168.863496 
L 684.71373 167.167936 
L 685.290618 170.274434 
L 685.579062 170.856168 
L 686.444395 173.900859 
L 687.021284 175.324127 
L 687.309728 166.487165 
L 687.598172 105.804471 
L 687.886616 133.367051 
L 688.463505 148.615247 
L 688.751949 145.236457 
L 689.040393 151.895082 
L 689.617282 156.561116 
L 689.905726 158.281496 
L 690.19417 154.890295 
L 690.482614 143.540816 
L 690.771059 123.477908 
L 691.059503 138.664459 
L 691.347947 142.092809 
L 691.636391 143.652263 
L 691.924836 146.709284 
L 692.21328 134.703773 
L 692.501724 105.086632 
L 692.790168 124.889252 
L 693.655501 144.654723 
L 694.23239 151.994119 
L 694.520834 154.754108 
L 694.809278 155.793717 
L 695.386166 160.15031 
L 695.674611 151.684678 
L 695.963055 156.697221 
L 696.828388 162.328647 
L 697.116832 163.034076 
L 697.405276 164.445015 
L 697.982165 107.710597 
L 698.270609 129.864646 
L 698.559053 131.213534 
L 699.135942 144.444319 
L 699.71283 151.709417 
L 700.001274 154.01153 
L 700.289719 128.416802 
L 700.578163 139.122416 
L 700.866607 136.300863 
L 701.155051 144.976575 
L 701.443495 143.553226 
L 701.73194 148.850471 
L 702.308828 154.184785 
L 702.885717 158.071092 
L 704.039494 163.492033 
L 704.327938 163.318778 
L 704.616382 163.318778 
L 705.193271 165.97973 
L 706.347047 169.346192 
L 706.635492 170.373472 
L 706.923936 170.361062 
L 707.21238 158.677483 
L 707.500824 162.625678 
L 708.077713 166.289171 
L 708.654601 168.281843 
L 708.943046 161.041485 
L 709.23149 146.956837 
L 709.808378 155.113028 
L 710.096823 157.687352 
L 710.385267 159.061223 
L 710.673711 157.959644 
L 710.962155 160.447422 
L 711.250599 161.845951 
L 711.539044 155.199655 
L 712.115932 153.788716 
L 712.404376 151.288609 
L 712.692821 68.847528 
L 712.981265 107.920676 
L 713.558153 130.248305 
L 714.135042 142.773499 
L 714.71193 150.521292 
L 715.288819 155.694761 
L 716.154151 161.029075 
L 717.019484 165.039158 
L 717.307928 165.410407 
L 718.173261 168.578874 
L 718.461705 168.479837 
L 719.327038 171.376013 
L 719.615482 172.044292 
L 719.903927 172.15574 
L 720.192371 168.875906 
L 720.480815 149.741565 
L 720.769259 145.149829 
L 721.057704 82.523779 
L 721.346148 117.63624 
L 721.634592 130.09987 
L 722.21148 142.934424 
L 722.788369 150.508882 
L 723.365257 155.558575 
L 723.653702 154.568444 
L 724.23059 159.073552 
L 724.807479 162.031616 
L 725.384367 164.222282 
L 725.961256 166.474836 
L 727.115032 170.002142 
L 729.422586 175.039506 
L 729.999475 175.90586 
L 730.287919 176.450444 
L 730.576363 176.59896 
L 730.864808 176.92073 
L 731.153252 177.551942 
L 731.441696 177.712868 
L 731.73014 178.282191 
L 732.018584 174.55681 
L 732.307029 176.116264 
L 732.595473 164.123244 
L 732.883917 88.452236 
L 733.172361 59.664057 
L 733.460806 107.091714 
L 734.037694 130.657108 
L 734.326138 137.786019 
L 734.614583 141.981361 
L 734.903027 115.136376 
L 735.191471 118.737738 
L 735.479915 128.37949 
L 737.210581 151.919821 
L 737.787469 155.967053 
L 738.075913 141.857666 
L 738.364358 141.572964 
L 738.941246 150.706957 
L 739.518135 155.471947 
L 740.671912 161.821212 
L 742.979465 169.395751 
L 744.133242 172.069113 
L 744.421687 172.452771 
L 744.710131 124.282536 
L 744.998575 103.378418 
L 745.287019 129.270908 
L 745.863908 143.540816 
L 746.152352 147.922229 
L 746.440796 139.679329 
L 746.729241 136.325196 
L 747.017685 131.572859 
L 747.594573 142.785909 
L 748.171462 149.432124 
L 748.459906 151.932231 
L 749.036794 154.469487 
L 749.613683 158.355713 
L 750.76746 163.714847 
L 752.498125 167.997141 
L 752.786569 168.170396 
L 753.075014 167.997141 
L 753.363458 161.19 
L 753.940346 165.039158 
L 754.517235 167.01942 
L 754.805679 166.103506 
L 755.094123 166.821345 
L 755.382568 163.615809 
L 755.671012 80.196683 
L 755.959456 119.641322 
L 756.2479 124.295514 
L 756.536345 43.611232 
L 756.824789 60.158839 
L 757.113233 87.858498 
L 757.401677 98.452502 
L 757.978566 123.131561 
L 758.26701 124.134102 
L 758.843898 136.102139 
L 759.132343 141.560554 
L 759.420787 135.904226 
L 759.709231 144.134959 
L 760.574564 154.37045 
L 761.151452 159.358254 
L 762.016785 164.816344 
L 762.305229 166.190134 
L 762.593673 165.187674 
L 763.170562 168.356061 
L 763.459006 165.596071 
L 763.74745 160.732044 
L 764.035895 164.321319 
L 764.612783 167.71252 
L 764.901227 168.71498 
L 765.189672 166.907973 
L 765.478116 79.268765 
L 765.76656 84.689462 
L 766.055004 101.831618 
L 766.343449 111.187857 
L 766.631893 102.079008 
L 766.920337 106.237607 
L 767.208781 65.02311 
L 767.497225 102.66058 
L 767.78567 116.856756 
L 768.362558 131.498237 
L 768.651002 111.794573 
L 768.939447 126.312763 
L 769.516335 138.181844 
L 770.381668 149.741565 
L 770.670112 93.155095 
L 771.247001 124.889252 
L 771.535445 127.896875 
L 771.823889 137.043035 
L 772.112333 142.587834 
L 772.400778 141.288262 
L 772.977666 149.630199 
L 773.842999 157.179917 
L 774.708331 162.340976 
L 774.996776 162.427684 
L 775.28522 155.100699 
L 775.862108 160.954858 
L 776.150553 162.118243 
L 776.438997 86.150285 
L 776.727441 112.178231 
L 777.015885 118.05721 
L 777.30433 131.090245 
L 777.881218 142.191765 
L 778.169662 134.295781 
L 778.458106 134.802729 
L 778.746551 135.80527 
L 779.034995 127.95852 
L 779.323439 130.359428 
L 779.611883 131.387114 
L 779.900328 112.673824 
L 780.477216 136.201095 
L 780.76566 139.159484 
L 781.342549 147.748893 
L 781.630993 150.917361 
L 781.919437 146.226588 
L 782.207882 105.408645 
L 782.496326 131.077267 
L 783.073214 143.75122 
L 783.650103 150.533702 
L 783.938547 142.154697 
L 784.226991 100.469751 
L 784.515435 115.482724 
L 784.80388 119.753257 
L 785.092324 133.552797 
L 785.669212 144.555767 
L 785.957657 148.268738 
L 786.822989 155.880426 
L 787.111434 155.967053 
L 787.399878 136.918934 
L 788.26521 150.62033 
L 788.842099 154.098158 
L 789.130543 155.595724 
L 789.707432 159.061223 
L 789.995876 159.234477 
L 790.572764 162.526641 
L 790.861209 144.667133 
L 791.149653 150.719286 
L 791.438097 153.491685 
L 791.726541 142.05566 
L 792.014986 143.664592 
L 792.30343 146.15237 
L 792.591874 144.444319 
L 792.880318 149.246459 
L 793.168763 150.533702 
L 793.457207 141.461597 
L 793.745651 147.946968 
L 794.034095 151.338168 
L 794.322539 144.840388 
L 794.610984 55.183444 
L 794.899428 98.699893 
L 795.476316 119.839235 
L 796.053205 130.161515 
L 796.341649 79.132497 
L 796.630093 103.069383 
L 796.918538 116.263018 
L 797.206982 124.109768 
L 797.495426 125.48299 
L 797.78387 132.117119 
L 798.072315 115.866382 
L 798.360759 111.720761 
L 798.649203 123.898878 
L 799.226091 135.496234 
L 799.80298 141.869995 
L 800.091424 83.031538 
L 800.668313 120.149082 
L 801.245201 136.721022 
L 801.533645 141.882405 
L 801.82209 133.813166 
L 802.398978 109.752179 
L 802.975867 133.62742 
L 803.552755 142.38984 
L 804.129643 148.516291 
L 804.418088 147.439533 
L 805.860309 157.959644 
L 806.437197 160.930037 
L 806.725642 161.586069 
L 807.590974 165.682699 
L 807.879419 154.679891 
L 808.167863 160.038944 
L 808.744751 163.739586 
L 809.32164 165.97973 
L 809.898528 167.724849 
L 810.186972 168.281843 
L 811.052305 170.80669 
L 811.34377 171.153199 
L 812.204572 173.046834 
L 813.359859 175.24991 
L 813.933727 175.336537 
L 814.228212 173.640896 
L 814.80208 175.126133 
L 815.089014 175.831562 
L 815.375948 174.346406 
L 815.670433 164.209872 
L 815.957367 79.417199 
L 816.531235 92.351277 
L 816.818169 113.490619 
L 817.112654 124.579405 
L 817.399589 117.351538 
L 817.686523 121.436325 
L 818.260391 135.211532 
L 818.554876 140.384839 
L 818.84181 137.476172 
L 819.128744 129.270908 
L 819.415678 131.94354 
L 819.997097 141.560554 
L 820.857899 150.508882 
L 821.726252 156.647743 
L 822.013186 157.774061 
L 822.587054 161.053814 
L 822.881539 152.588181 
L 823.168473 138.590161 
L 823.742341 150.830733 
L 824.029275 152.30356 
L 824.32376 155.187326 
L 825.184563 159.952316 
L 825.471497 159.333515 
L 825.765982 68.587971 
L 826.052916 112.883903 
L 826.33985 126.696422 
L 826.626784 132.228242 
L 826.913718 130.928832 
L 827.495137 143.256195 
L 828.355939 151.796125 
L 829.224292 157.662613 
L 829.511226 159.184999 
L 829.79816 159.754323 
L 830.953447 165.088636 
L 831.240381 163.838623 
L 831.8218 166.586202 
L 832.977087 170.026962 
L 834.706243 173.826561 
L 835.567045 175.410754 
L 835.86153 152.909952 
L 836.148464 148.033595 
L 836.435398 156.177457 
L 837.009266 161.635547 
L 837.303751 162.724716 
L 837.877619 165.806475 
L 838.451487 167.885775 
L 838.745972 168.875906 
L 839.032906 166.68524 
L 839.31984 128.453302 
L 839.606774 140.966491 
L 840.762061 156.276413 
L 841.048995 42.86906 
L 841.33593 86.484465 
L 841.630415 111.485537 
L 842.204283 129.988747 
L 842.491217 95.197488 
L 842.778151 119.455577 
L 843.35957 134.035412 
L 843.646504 138.330279 
L 843.933438 128.973228 
L 844.220372 90.445151 
L 844.514857 120.693342 
L 845.088725 136.609899 
L 845.662593 145.545898 
L 846.244012 151.796125 
L 847.104814 158.566117 
L 848.260101 164.61835 
L 848.84152 166.759457 
L 849.128454 167.093637 
L 849.702323 169.383341 
L 850.283742 170.843758 
L 850.570676 171.363603 
L 851.725963 174.247368 
L 852.586765 176.054376 
L 853.742052 177.923271 
L 854.897339 179.507465 
L 855.471207 180.485186 
L 855.758141 178.603961 
L 856.052626 165.435146 
L 856.33956 126.188662 
L 856.626494 115.3716 
L 856.913428 131.238679 
L 857.494847 145.558227 
L 857.781782 149.122763 
L 858.068716 29.267432 
L 858.35565 94.331215 
L 858.642584 112.203376 
L 858.937069 89.244698 
L 859.224003 104.244692 
L 859.797871 116.955713 
L 860.084805 117.26556 
L 860.37929 129.975769 
L 860.666224 131.460925 
L 860.953158 138.317868 
L 861.240092 140.978901 
L 861.527026 113.874278 
L 861.821511 131.622338 
L 862.108445 138.293129 
L 862.395379 141.102678 
L 862.682313 139.394708 
L 862.969247 136.337363 
L 863.263732 115.842049 
L 863.550666 136.362508 
L 864.124534 146.721694 
L 864.705953 153.207064 
L 864.992887 147.83552 
L 865.279822 151.59805 
L 865.566756 150.607919 
L 865.85369 155.360581 
L 866.148175 157.984464 
L 866.435109 157.476948 
L 867.008977 162.130572 
L 867.295911 163.826213 
L 867.590396 164.123244 
L 867.87733 165.472295 
L 868.164264 160.991926 
L 869.032617 166.68524 
L 869.319551 166.957532 
L 869.606485 167.984812 
L 869.893419 167.588743 
L 870.180353 155.967053 
L 870.474838 129.777857 
L 871.048706 145.830519 
L 871.33564 149.135092 
L 871.622574 138.293129 
L 871.917059 147.130091 
L 872.203993 148.89995 
L 872.490927 136.003183 
L 873.064796 147.52616 
L 873.35928 147.427123 
L 873.646215 132.463466 
L 873.933149 139.085267 
L 874.220083 133.379218 
L 874.507017 141.164566 
L 875.088436 149.407385 
L 875.37537 152.315889 
L 875.662304 153.491685 
L 875.949238 63.649077 
L 876.243723 104.702973 
L 876.530657 124.195747 
L 876.817591 130.335094 
L 877.104525 130.359428 
L 877.391459 137.290426 
L 877.685944 138.107221 
L 877.972878 89.330676 
L 878.259812 125.198288 
L 878.546746 108.193211 
L 878.83368 102.401022 
L 879.128165 124.18358 
L 879.415099 132.933914 
L 879.988967 107.054403 
L 880.275901 118.341912 
L 880.570386 118.045043 
L 880.85732 129.468821 
L 881.431189 140.570423 
L 881.718123 141.35015 
L 882.299542 148.330626 
L 882.586476 150.211851 
L 882.87341 139.072857 
L 883.160344 145.533488 
L 883.454829 145.459271 
L 884.028697 151.994119 
L 884.602565 155.484357 
L 885.183984 158.182458 
L 885.470918 158.665154 
L 886.044786 161.363255 
L 886.339271 147.253868 
L 886.626205 154.593183 
L 887.200073 145.533488 
L 887.487007 149.840602 
L 887.781492 130.335094 
L 888.068426 141.37497 
L 888.642294 149.815863 
L 889.223713 153.67735 
L 889.510648 153.169915 
L 889.797582 132.736002 
L 890.084516 135.409445 
L 890.665935 145.669674 
L 890.952869 148.825651 
L 891.239803 141.176895 
L 891.526737 140.360019 
L 892.108156 149.630199 
L 892.39509 149.617788 
L 892.682024 146.337954 
L 892.968958 128.181578 
L 893.550377 137.996098 
L 893.837311 139.407037 
L 894.124245 138.812975 
L 894.411179 144.456729 
L 894.698113 129.975769 
L 894.992598 132.538089 
L 895.279532 137.996098 
L 895.8534 144.568096 
L 896.721753 147.501421 
L 897.008687 147.823191 
L 897.295622 150.818323 
L 897.582556 143.961623 
L 897.877041 148.739024 
L 898.163975 149.407385 
L 898.737843 153.479356 
L 899.024777 155.125438 
L 899.319262 155.051139 
L 899.606196 140.199174 
L 899.89313 146.15237 
L 900.466998 151.301019 
L 900.761483 153.182244 
L 901.048417 154.160046 
L 901.335351 155.682351 
L 901.622285 155.880426 
L 901.909219 157.155178 
L 902.203704 155.793717 
L 902.490638 157.563657 
L 904.219793 163.207412 
L 904.506727 163.863362 
L 904.793661 123.602009 
L 905.088146 124.195747 
L 905.37508 111.299791 
L 905.662015 128.391657 
L 905.948949 135.322655 
L 906.235883 135.310488 
L 906.817302 143.08294 
L 907.104236 131.931373 
L 907.39117 125.310222 
L 907.678104 124.666195 
L 908.259523 137.290426 
L 908.833391 143.330412 
L 909.120325 144.766171 
L 909.41481 137.897142 
L 909.701744 140.793237 
L 909.988678 142.179436 
L 910.562546 148.454403 
L 910.857031 150.508882 
L 911.717833 122.698424 
L 912.004767 121.510137 
L 912.87312 145.211718 
L 913.160054 117.51295 
L 913.446989 65.555203 
L 913.741474 63.686388 
L 914.028408 95.606291 
L 914.315342 110.705242 
L 914.88921 127.463739 
L 915.757563 141.869995 
L 916.044497 145.669674 
L 916.331431 147.018725 
L 916.625916 133.32974 
L 916.91285 143.07053 
L 917.199784 146.746433 
L 917.486718 120.805276 
L 917.773652 135.89206 
L 918.068137 141.672001 
L 918.068137 141.672001 
" clip-path="url(#pa299d61c4f)" style="fill: none; stroke: #2563eb; stroke-opacity: 0.95; stroke-width: 1.3; stroke-linecap: square"/>
   </g>
   <g id="patch_23">
    <path d="M 39.330625 228.954713 
L 39.330625 17.061433 
" style="fill: none; stroke: #cbd5e1; stroke-width: 0.8; stroke-linejoin: miter; stroke-linecap: square"/>
   </g>
   <g id="patch_24">
    <path d="M 935.305625 228.954713 
L 935.305625 17.061433 
" style="fill: none; stroke: #cbd5e1; stroke-width: 0.8; stroke-linejoin: miter; stroke-linecap: square"/>
   </g>
   <g id="patch_25">
    <path d="M 39.330625 228.954713 
L 935.305625 228.954713 
" style="fill: none; stroke: #cbd5e1; stroke-width: 0.8; stroke-linejoin: miter; stroke-linecap: square"/>
   </g>
   <g id="patch_26">
    <path d="M 39.330625 17.061433 
L 935.305625 17.061433 
" style="fill: none; stroke: #cbd5e1; stroke-width: 0.8; stroke-linejoin: miter; stroke-linecap: square"/>
   </g>
   <g id="text_16">
    <!-- ACC -->
    <g style="fill: #475569" transform="translate(121.68888 13.27875) scale(0.08 -0.08)">
     <defs>
      <path id="DejaVuSans-43" d="M 4122 4306 
L 4122 3641 
Q 3803 3938 3442 4084 
Q 3081 4231 2675 4231 
Q 1875 4231 1450 3742 
Q 1025 3253 1025 2328 
Q 1025 1406 1450 917 
Q 1875 428 2675 428 
Q 3081 428 3442 575 
Q 3803 722 4122 1019 
L 4122 359 
Q 3791 134 3420 21 
Q 3050 -91 2638 -91 
Q 1578 -91 968 557 
Q 359 1206 359 2328 
Q 359 3453 968 4101 
Q 1578 4750 2638 4750 
Q 3056 4750 3426 4639 
Q 3797 4528 4122 4306 
z
" transform="scale(0.015625)"/>
     </defs>
     <use xlink:href="#DejaVuSans-41"/>
     <use xlink:href="#DejaVuSans-43" transform="translate(66.658203 0)"/>
     <use xlink:href="#DejaVuSans-43" transform="translate(136.482422 0)"/>
    </g>
   </g>
   <g id="text_17">
    <!-- OC -->
    <g style="fill: #475569" transform="translate(228.201873 13.27875) scale(0.08 -0.08)">
     <defs>
      <path id="DejaVuSans-4f" d="M 2522 4238 
Q 1834 4238 1429 3725 
Q 1025 3213 1025 2328 
Q 1025 1447 1429 934 
Q 1834 422 2522 422 
Q 3209 422 3611 934 
Q 4013 1447 4013 2328 
Q 4013 3213 3611 3725 
Q 3209 4238 2522 4238 
z
M 2522 4750 
Q 3503 4750 4090 4092 
Q 4678 3434 4678 2328 
Q 4678 1225 4090 567 
Q 3503 -91 2522 -91 
Q 1538 -91 948 565 
Q 359 1222 359 2328 
Q 359 3434 948 4092 
Q 1538 4750 2522 4750 
z
" transform="scale(0.015625)"/>
     </defs>
     <use xlink:href="#DejaVuSans-4f"/>
     <use xlink:href="#DejaVuSans-43" transform="translate(78.710938 0)"/>
    </g>
   </g>
   <g id="text_18">
    <!-- FCS -->
    <g style="fill: #475569" transform="translate(253.693849 13.27875) scale(0.08 -0.08)">
     <defs>
      <path id="DejaVuSans-46" d="M 628 4666 
L 3309 4666 
L 3309 4134 
L 1259 4134 
L 1259 2759 
L 3109 2759 
L 3109 2228 
L 1259 2228 
L 1259 0 
L 628 0 
L 628 4666 
z
" transform="scale(0.015625)"/>
      <path id="DejaVuSans-53" d="M 3425 4513 
L 3425 3897 
Q 3066 4069 2747 4153 
Q 2428 4238 2131 4238 
Q 1616 4238 1336 4038 
Q 1056 3838 1056 3469 
Q 1056 3159 1242 3001 
Q 1428 2844 1947 2747 
L 2328 2669 
Q 3034 2534 3370 2195 
Q 3706 1856 3706 1288 
Q 3706 609 3251 259 
Q 2797 -91 1919 -91 
Q 1588 -91 1214 -16 
Q 841 59 441 206 
L 441 856 
Q 825 641 1194 531 
Q 1563 422 1919 422 
Q 2459 422 2753 634 
Q 3047 847 3047 1241 
Q 3047 1584 2836 1778 
Q 2625 1972 2144 2069 
L 1759 2144 
Q 1053 2284 737 2584 
Q 422 2884 422 3419 
Q 422 4038 858 4394 
Q 1294 4750 2059 4750 
Q 2388 4750 2728 4690 
Q 3069 4631 3425 4513 
z
" transform="scale(0.015625)"/>
     </defs>
     <use xlink:href="#DejaVuSans-46"/>
     <use xlink:href="#DejaVuSans-43" transform="translate(57.519531 0)"/>
     <use xlink:href="#DejaVuSans-53" transform="translate(127.34375 0)"/>
    </g>
   </g>
   <g id="text_19">
    <!-- SR -->
    <g style="fill: #475569" transform="translate(283.191451 13.27875) scale(0.08 -0.08)">
     <defs>
      <path id="DejaVuSans-52" d="M 2841 2188 
Q 3044 2119 3236 1894 
Q 3428 1669 3622 1275 
L 4263 0 
L 3584 0 
L 2988 1197 
Q 2756 1666 2539 1819 
Q 2322 1972 1947 1972 
L 1259 1972 
L 1259 0 
L 628 0 
L 628 4666 
L 2053 4666 
Q 2853 4666 3247 4331 
Q 3641 3997 3641 3322 
Q 3641 2881 3436 2590 
Q 3231 2300 2841 2188 
z
M 1259 4147 
L 1259 2491 
L 2053 2491 
Q 2509 2491 2742 2702 
Q 2975 2913 2975 3322 
Q 2975 3731 2742 3939 
Q 2509 4147 2053 4147 
L 1259 4147 
z
" transform="scale(0.015625)"/>
     </defs>
     <use xlink:href="#DejaVuSans-53"/>
     <use xlink:href="#DejaVuSans-52" transform="translate(63.476562 0)"/>
    </g>
   </g>
   <g id="text_20">
    <!-- FFC -->
    <g style="fill: #475569" transform="translate(319.625396 13.27875) scale(0.08 -0.08)">
     <use xlink:href="#DejaVuSans-46"/>
     <use xlink:href="#DejaVuSans-46" transform="translate(57.519531 0)"/>
     <use xlink:href="#DejaVuSans-43" transform="translate(115.039062 0)"/>
    </g>
   </g>
   <g id="text_21">
    <!-- SS -->
    <g style="fill: #475569" transform="translate(414.817045 13.27875) scale(0.08 -0.08)">
     <use xlink:href="#DejaVuSans-53"/>
     <use xlink:href="#DejaVuSans-53" transform="translate(63.476562 0)"/>
    </g>
   </g>
   <g id="text_22">
    <!-- OC -->
    <g style="fill: #475569" transform="translate(484.177255 13.27875) scale(0.08 -0.08)">
     <use xlink:href="#DejaVuSans-4f"/>
     <use xlink:href="#DejaVuSans-43" transform="translate(78.710938 0)"/>
    </g>
   </g>
   <g id="text_23">
    <!-- FCS -->
    <g style="fill: #475569" transform="translate(507.403963 13.27875) scale(0.08 -0.08)">
     <use xlink:href="#DejaVuSans-46"/>
     <use xlink:href="#DejaVuSans-43" transform="translate(57.519531 0)"/>
     <use xlink:href="#DejaVuSans-53" transform="translate(127.34375 0)"/>
    </g>
   </g>
   <g id="text_24">
    <!-- SR -->
    <g style="fill: #475569" transform="translate(539.166833 13.27875) scale(0.08 -0.08)">
     <use xlink:href="#DejaVuSans-53"/>
     <use xlink:href="#DejaVuSans-52" transform="translate(63.476562 0)"/>
    </g>
   </g>
   <g id="text_25">
    <!-- FFC -->
    <g style="fill: #475569" transform="translate(575.600779 13.27875) scale(0.08 -0.08)">
     <use xlink:href="#DejaVuSans-46"/>
     <use xlink:href="#DejaVuSans-46" transform="translate(57.519531 0)"/>
     <use xlink:href="#DejaVuSans-43" transform="translate(115.039062 0)"/>
    </g>
   </g>
   <g id="text_26">
    <!-- SS -->
    <g style="fill: #475569" transform="translate(668.527158 13.27875) scale(0.08 -0.08)">
     <use xlink:href="#DejaVuSans-53"/>
     <use xlink:href="#DejaVuSans-53" transform="translate(63.476562 0)"/>
    </g>
   </g>
   <g id="text_27">
    <!-- OC -->
    <g style="fill: #475569" transform="translate(737.887368 13.27875) scale(0.08 -0.08)">
     <use xlink:href="#DejaVuSans-4f"/>
     <use xlink:href="#DejaVuSans-43" transform="translate(78.710938 0)"/>
    </g>
   </g>
   <g id="text_28">
    <!-- FCS -->
    <g style="fill: #475569" transform="translate(761.114076 13.27875) scale(0.08 -0.08)">
     <use xlink:href="#DejaVuSans-46"/>
     <use xlink:href="#DejaVuSans-43" transform="translate(57.519531 0)"/>
     <use xlink:href="#DejaVuSans-53" transform="translate(127.34375 0)"/>
    </g>
   </g>
   <g id="text_29">
    <!-- SR -->
    <g style="fill: #475569" transform="translate(792.876946 13.27875) scale(0.08 -0.08)">
     <use xlink:href="#DejaVuSans-53"/>
     <use xlink:href="#DejaVuSans-52" transform="translate(63.476562 0)"/>
    </g>
   </g>
   <g id="text_30">
    <!-- FFC -->
    <g style="fill: #475569" transform="translate(829.310892 13.27875) scale(0.08 -0.08)">
     <use xlink:href="#DejaVuSans-46"/>
     <use xlink:href="#DejaVuSans-46" transform="translate(57.519531 0)"/>
     <use xlink:href="#DejaVuSans-43" transform="translate(115.039062 0)"/>
    </g>
   </g>
   <g id="text_31">
    <!-- SS -->
    <g style="fill: #475569" transform="translate(885.99297 13.27875) scale(0.08 -0.08)">
     <use xlink:href="#DejaVuSans-53"/>
     <use xlink:href="#DejaVuSans-53" transform="translate(63.476562 0)"/>
    </g>
   </g>
   <g id="legend_1">
    <g id="line2d_28">
     <path d="M 889.158125 27.540183 
L 897.158125 27.540183 
L 905.158125 27.540183 
" style="fill: none; stroke: #2563eb; stroke-opacity: 0.95; stroke-width: 1.3; stroke-linecap: square"/>
    </g>
    <g id="text_32">
     <!-- EDA -->
     <g transform="translate(911.558125 30.340183) scale(0.08 -0.08)">
      <use xlink:href="#DejaVuSans-45"/>
      <use xlink:href="#DejaVuSans-44" transform="translate(63.183594 0)"/>
      <use xlink:href="#DejaVuSans-41" transform="translate(138.435547 0)"/>
     </g>
    </g>
   </g>
  </g>
 </g>
 <defs>
  <clipPath id="pa299d61c4f">
   <rect x="39.330625" y="17.061433" width="895.975" height="211.89328"/>
  </clipPath>
 </defs>
</svg>
