<?xml version="1.0" encoding="utf-8" standalone="no"?>
<!DOCTYPE svg PUBLIC "-//W3C//DTD SVG 1.1//EN"
  "http://www.w3.org/Graphics/SVG/1.1/DTD/svg11.dtd">
<svg xmlns:xlink="http://www.w3.org/1999/xlink" width="942.553437pt" height="265.54315pt" viewBox="0 0 942.553437 265.54315" xmlns="http://www.w3.org/2000/svg" version="1.1">
 <metadata>
  <rdf:RDF xmlns:dc="http://purl.org/dc/elements/1.1/" xmlns:cc="http://creativecommons.org/ns#" xmlns:rdf="http://www.w3.org/1999/02/22-rdf-syntax-ns#">
   <cc:Work>
    <dc:type rdf:resource="http://purl.org/dc/dcmitype/StillImage"/>
    <dc:date>2026-04-17T13:17:47.155768</dc:date>
    <dc:format>image/svg+xml</dc:format>
    <dc:creator>
     <cc:Agent>
      <dc:title>Matplotlib v3.10.8, https://matplotlib.org/</dc:title>
     </cc:Agent>
    </dc:creator>
   </cc:Work>
  </rdf:RDF>
 </metadata>
 <defs>
  <style type="text/css">*{stroke-linejoin: round; stroke-linecap: butt}</style>
 </defs>
 <g id="figure_1">
  <g id="patch_1">
   <path d="M 0 265.54315 
L 942.553437 265.54315 
L 942.553437 0 
L 0 0 
z
" style="fill: #ffffff"/>
  </g>
  <g id="axes_1">
   <g id="patch_2">
    <path d="M 42.190938 228.954713 
L 935.353438 228.954713 
L 935.353438 17.061433 
L 42.190938 17.061433 
z
" style="fill: #ffffff"/>
   </g>
   <g id="patch_3">
    <path d="M 42.190938 228.954713 
L 222.797481 228.954713 
L 222.797481 17.061433 
L 42.190938 17.061433 
z
" clip-path="url(#p8fcd042e55)" style="fill: #f8fafc; opacity: 0.45"/>
   </g>
   <g id="patch_4">
    <path d="M 222.797481 228.954713 
L 254.403626 228.954713 
L 254.403626 17.061433 
L 222.797481 17.061433 
z
" clip-path="url(#p8fcd042e55)" style="fill: #eff6ff; opacity: 0.45"/>
   </g>
   <g id="patch_5">
    <path d="M 254.403626 228.954713 
L 276.979444 228.954713 
L 276.979444 17.061433 
L 254.403626 17.061433 
z
" clip-path="url(#p8fcd042e55)" style="fill: #fef3c7; opacity: 0.45"/>
   </g>
   <g id="patch_6">
    <path d="M 276.979444 228.954713 
L 322.13108 228.954713 
L 322.13108 17.061433 
L 276.979444 17.061433 
z
" clip-path="url(#p8fcd042e55)" style="fill: #dcfce7; opacity: 0.45"/>
   </g>
   <g id="patch_7">
    <path d="M 322.13108 228.954713 
L 367.282716 228.954713 
L 367.282716 17.061433 
L 322.13108 17.061433 
z
" clip-path="url(#p8fcd042e55)" style="fill: #fee2e2; opacity: 0.45"/>
   </g>
   <g id="patch_8">
    <path d="M 367.282716 228.954713 
L 484.676969 228.954713 
L 484.676969 17.061433 
L 367.282716 17.061433 
z
" clip-path="url(#p8fcd042e55)" style="fill: #ede9fe; opacity: 0.45"/>
   </g>
   <g id="patch_9">
    <path d="M 484.676969 228.954713 
L 507.252787 228.954713 
L 507.252787 17.061433 
L 484.676969 17.061433 
z
" clip-path="url(#p8fcd042e55)" style="fill: #f8fafc; opacity: 0.45"/>
   </g>
   <g id="patch_10">
    <path d="M 507.252787 228.954713 
L 529.828605 228.954713 
L 529.828605 17.061433 
L 507.252787 17.061433 
z
" clip-path="url(#p8fcd042e55)" style="fill: #eff6ff; opacity: 0.45"/>
   </g>
   <g id="patch_11">
    <path d="M 529.828605 228.954713 
L 574.98024 228.954713 
L 574.98024 17.061433 
L 529.828605 17.061433 
z
" clip-path="url(#p8fcd042e55)" style="fill: #fef3c7; opacity: 0.45"/>
   </g>
   <g id="patch_12">
    <path d="M 574.98024 228.954713 
L 620.131876 228.954713 
L 620.131876 17.061433 
L 574.98024 17.061433 
z
" clip-path="url(#p8fcd042e55)" style="fill: #dcfce7; opacity: 0.45"/>
   </g>
   <g id="patch_13">
    <path d="M 620.131876 228.954713 
L 737.526129 228.954713 
L 737.526129 17.061433 
L 620.131876 17.061433 
z
" clip-path="url(#p8fcd042e55)" style="fill: #fee2e2; opacity: 0.45"/>
   </g>
   <g id="patch_14">
    <path d="M 737.526129 228.954713 
L 760.101947 228.954713 
L 760.101947 17.061433 
L 737.526129 17.061433 
z
" clip-path="url(#p8fcd042e55)" style="fill: #ede9fe; opacity: 0.45"/>
   </g>
   <g id="patch_15">
    <path d="M 760.101947 228.954713 
L 782.677765 228.954713 
L 782.677765 17.061433 
L 760.101947 17.061433 
z
" clip-path="url(#p8fcd042e55)" style="fill: #f8fafc; opacity: 0.45"/>
   </g>
   <g id="patch_16">
    <path d="M 782.677765 228.954713 
L 827.829401 228.954713 
L 827.829401 17.061433 
L 782.677765 17.061433 
z
" clip-path="url(#p8fcd042e55)" style="fill: #eff6ff; opacity: 0.45"/>
   </g>
   <g id="patch_17">
    <path d="M 827.829401 228.954713 
L 872.981037 228.954713 
L 872.981037 17.061433 
L 827.829401 17.061433 
z
" clip-path="url(#p8fcd042e55)" style="fill: #fef3c7; opacity: 0.45"/>
   </g>
   <g id="patch_18">
    <path d="M 872.981037 228.954713 
L 913.617509 228.954713 
L 913.617509 17.061433 
L 872.981037 17.061433 
z
" clip-path="url(#p8fcd042e55)" style="fill: #dcfce7; opacity: 0.45"/>
   </g>
   <g id="patch_19">
    <path d="M 913.617509 228.954713 
L 918.132673 228.954713 
L 918.132673 17.061433 
L 913.617509 17.061433 
z
" clip-path="url(#p8fcd042e55)" style="fill: #fee2e2; opacity: 0.45"/>
   </g>
   <g id="matplotlib.axis_1">
    <g id="xtick_1">
     <g id="line2d_1">
      <path d="M 42.190938 228.954713 
L 42.190938 17.061433 
" clip-path="url(#p8fcd042e55)" style="fill: none; stroke: #eef2f7; stroke-width: 0.55; stroke-linecap: square"/>
     </g>
     <g id="line2d_2">
      <defs>
       <path id="m368227a24e" d="M 0 0 
L 0 3.5 
" style="stroke: #000000; stroke-width: 0.8"/>
      </defs>
      <g>
       <use xlink:href="#m368227a24e" x="42.190938" y="228.954713" style="stroke: #000000; stroke-width: 0.8"/>
      </g>
     </g>
     <g id="text_1">
      <!-- 0 -->
      <g transform="translate(39.327813 242.793307) scale(0.09 -0.09)">
       <defs>
        <path id="DejaVuSans-30" d="M 2034 4250 
Q 1547 4250 1301 3770 
Q 1056 3291 1056 2328 
Q 1056 1369 1301 889 
Q 1547 409 2034 409 
Q 2525 409 2770 889 
Q 3016 1369 3016 2328 
Q 3016 3291 2770 3770 
Q 2525 4250 2034 4250 
z
M 2034 4750 
Q 2819 4750 3233 4129 
Q 3647 3509 3647 2328 
Q 3647 1150 3233 529 
Q 2819 -91 2034 -91 
Q 1250 -91 836 529 
Q 422 1150 422 2328 
Q 422 3509 836 4129 
Q 1250 4750 2034 4750 
z
" transform="scale(0.015625)"/>
       </defs>
       <use xlink:href="#DejaVuSans-30"/>
      </g>
     </g>
    </g>
    <g id="xtick_2">
     <g id="line2d_3">
      <path d="M 155.070027 228.954713 
L 155.070027 17.061433 
" clip-path="url(#p8fcd042e55)" style="fill: none; stroke: #eef2f7; stroke-width: 0.55; stroke-linecap: square"/>
     </g>
     <g id="line2d_4">
      <g>
       <use xlink:href="#m368227a24e" x="155.070027" y="228.954713" style="stroke: #000000; stroke-width: 0.8"/>
      </g>
     </g>
     <g id="text_2">
      <!-- 25 -->
      <g transform="translate(149.343777 242.793307) scale(0.09 -0.09)">
       <defs>
        <path id="DejaVuSans-32" d="M 1228 531 
L 3431 531 
L 3431 0 
L 469 0 
L 469 531 
Q 828 903 1448 1529 
Q 2069 2156 2228 2338 
Q 2531 2678 2651 2914 
Q 2772 3150 2772 3378 
Q 2772 3750 2511 3984 
Q 2250 4219 1831 4219 
Q 1534 4219 1204 4116 
Q 875 4013 500 3803 
L 500 4441 
Q 881 4594 1212 4672 
Q 1544 4750 1819 4750 
Q 2544 4750 2975 4387 
Q 3406 4025 3406 3419 
Q 3406 3131 3298 2873 
Q 3191 2616 2906 2266 
Q 2828 2175 2409 1742 
Q 1991 1309 1228 531 
z
" transform="scale(0.015625)"/>
        <path id="DejaVuSans-35" d="M 691 4666 
L 3169 4666 
L 3169 4134 
L 1269 4134 
L 1269 2991 
Q 1406 3038 1543 3061 
Q 1681 3084 1819 3084 
Q 2600 3084 3056 2656 
Q 3513 2228 3513 1497 
Q 3513 744 3044 326 
Q 2575 -91 1722 -91 
Q 1428 -91 1123 -41 
Q 819 9 494 109 
L 494 744 
Q 775 591 1075 516 
Q 1375 441 1709 441 
Q 2250 441 2565 725 
Q 2881 1009 2881 1497 
Q 2881 1984 2565 2268 
Q 2250 2553 1709 2553 
Q 1456 2553 1204 2497 
Q 953 2441 691 2322 
L 691 4666 
z
" transform="scale(0.015625)"/>
       </defs>
       <use xlink:href="#DejaVuSans-32"/>
       <use xlink:href="#DejaVuSans-35" transform="translate(63.623047 0)"/>
      </g>
     </g>
    </g>
    <g id="xtick_3">
     <g id="line2d_5">
      <path d="M 267.949117 228.954713 
L 267.949117 17.061433 
" clip-path="url(#p8fcd042e55)" style="fill: none; stroke: #eef2f7; stroke-width: 0.55; stroke-linecap: square"/>
     </g>
     <g id="line2d_6">
      <g>
       <use xlink:href="#m368227a24e" x="267.949117" y="228.954713" style="stroke: #000000; stroke-width: 0.8"/>
      </g>
     </g>
     <g id="text_3">
      <!-- 50 -->
      <g transform="translate(262.222867 242.793307) scale(0.09 -0.09)">
       <use xlink:href="#DejaVuSans-35"/>
       <use xlink:href="#DejaVuSans-30" transform="translate(63.623047 0)"/>
      </g>
     </g>
    </g>
    <g id="xtick_4">
     <g id="line2d_7">
      <path d="M 380.828206 228.954713 
L 380.828206 17.061433 
" clip-path="url(#p8fcd042e55)" style="fill: none; stroke: #eef2f7; stroke-width: 0.55; stroke-linecap: square"/>
     </g>
     <g id="line2d_8">
      <g>
       <use xlink:href="#m368227a24e" x="380.828206" y="228.954713" style="stroke: #000000; stroke-width: 0.8"/>
      </g>
     </g>
     <g id="text_4">
      <!-- 75 -->
      <g transform="translate(375.101956 242.793307) scale(0.09 -0.09)">
       <defs>
        <path id="DejaVuSans-37" d="M 525 4666 
L 3525 4666 
L 3525 4397 
L 1831 0 
L 1172 0 
L 2766 4134 
L 525 4134 
L 525 4666 
z
" transform="scale(0.015625)"/>
       </defs>
       <use xlink:href="#DejaVuSans-37"/>
       <use xlink:href="#DejaVuSans-35" transform="translate(63.623047 0)"/>
      </g>
     </g>
    </g>
    <g id="xtick_5">
     <g id="line2d_9">
      <path d="M 493.707296 228.954713 
L 493.707296 17.061433 
" clip-path="url(#p8fcd042e55)" style="fill: none; stroke: #eef2f7; stroke-width: 0.55; stroke-linecap: square"/>
     </g>
     <g id="line2d_10">
      <g>
       <use xlink:href="#m368227a24e" x="493.707296" y="228.954713" style="stroke: #000000; stroke-width: 0.8"/>
      </g>
     </g>
     <g id="text_5">
      <!-- 100 -->
      <g transform="translate(485.117921 242.793307) scale(0.09 -0.09)">
       <defs>
        <path id="DejaVuSans-31" d="M 794 531 
L 1825 531 
L 1825 4091 
L 703 3866 
L 703 4441 
L 1819 4666 
L 2450 4666 
L 2450 531 
L 3481 531 
L 3481 0 
L 794 0 
L 794 531 
z
" transform="scale(0.015625)"/>
       </defs>
       <use xlink:href="#DejaVuSans-31"/>
       <use xlink:href="#DejaVuSans-30" transform="translate(63.623047 0)"/>
       <use xlink:href="#DejaVuSans-30" transform="translate(127.246094 0)"/>
      </g>
     </g>
    </g>
    <g id="xtick_6">
     <g id="line2d_11">
      <path d="M 606.586385 228.954713 
L 606.586385 17.061433 
" clip-path="url(#p8fcd042e55)" style="fill: none; stroke: #eef2f7; stroke-width: 0.55; stroke-linecap: square"/>
     </g>
     <g id="line2d_12">
      <g>
       <use xlink:href="#m368227a24e" x="606.586385" y="228.954713" style="stroke: #000000; stroke-width: 0.8"/>
      </g>
     </g>
     <g id="text_6">
      <!-- 125 -->
      <g transform="translate(597.99701 242.793307) scale(0.09 -0.09)">
       <use xlink:href="#DejaVuSans-31"/>
       <use xlink:href="#DejaVuSans-32" transform="translate(63.623047 0)"/>
       <use xlink:href="#DejaVuSans-35" transform="translate(127.246094 0)"/>
      </g>
     </g>
    </g>
    <g id="xtick_7">
     <g id="line2d_13">
      <path d="M 719.465475 228.954713 
L 719.465475 17.061433 
" clip-path="url(#p8fcd042e55)" style="fill: none; stroke: #eef2f7; stroke-width: 0.55; stroke-linecap: square"/>
     </g>
     <g id="line2d_14">
      <g>
       <use xlink:href="#m368227a24e" x="719.465475" y="228.954713" style="stroke: #000000; stroke-width: 0.8"/>
      </g>
     </g>
     <g id="text_7">
      <!-- 150 -->
      <g transform="translate(710.8761 242.793307) scale(0.09 -0.09)">
       <use xlink:href="#DejaVuSans-31"/>
       <use xlink:href="#DejaVuSans-35" transform="translate(63.623047 0)"/>
       <use xlink:href="#DejaVuSans-30" transform="translate(127.246094 0)"/>
      </g>
     </g>
    </g>
    <g id="xtick_8">
     <g id="line2d_15">
      <path d="M 832.344565 228.954713 
L 832.344565 17.061433 
" clip-path="url(#p8fcd042e55)" style="fill: none; stroke: #eef2f7; stroke-width: 0.55; stroke-linecap: square"/>
     </g>
     <g id="line2d_16">
      <g>
       <use xlink:href="#m368227a24e" x="832.344565" y="228.954713" style="stroke: #000000; stroke-width: 0.8"/>
      </g>
     </g>
     <g id="text_8">
      <!-- 175 -->
      <g transform="translate(823.75519 242.793307) scale(0.09 -0.09)">
       <use xlink:href="#DejaVuSans-31"/>
       <use xlink:href="#DejaVuSans-37" transform="translate(63.623047 0)"/>
       <use xlink:href="#DejaVuSans-35" transform="translate(127.246094 0)"/>
      </g>
     </g>
    </g>
    <g id="text_9">
     <!-- Minutes since session start -->
     <g transform="translate(421.182344 256.263463) scale(0.1 -0.1)">
      <defs>
       <path id="DejaVuSans-4d" d="M 628 4666 
L 1569 4666 
L 2759 1491 
L 3956 4666 
L 4897 4666 
L 4897 0 
L 4281 0 
L 4281 4097 
L 3078 897 
L 2444 897 
L 1241 4097 
L 1241 0 
L 628 0 
L 628 4666 
z
" transform="scale(0.015625)"/>
       <path id="DejaVuSans-69" d="M 603 3500 
L 1178 3500 
L 1178 0 
L 603 0 
L 603 3500 
z
M 603 4863 
L 1178 4863 
L 1178 4134 
L 603 4134 
L 603 4863 
z
" transform="scale(0.015625)"/>
       <path id="DejaVuSans-6e" d="M 3513 2113 
L 3513 0 
L 2938 0 
L 2938 2094 
Q 2938 2591 2744 2837 
Q 2550 3084 2163 3084 
Q 1697 3084 1428 2787 
Q 1159 2491 1159 1978 
L 1159 0 
L 581 0 
L 581 3500 
L 1159 3500 
L 1159 2956 
Q 1366 3272 1645 3428 
Q 1925 3584 2291 3584 
Q 2894 3584 3203 3211 
Q 3513 2838 3513 2113 
z
" transform="scale(0.015625)"/>
       <path id="DejaVuSans-75" d="M 544 1381 
L 544 3500 
L 1119 3500 
L 1119 1403 
Q 1119 906 1312 657 
Q 1506 409 1894 409 
Q 2359 409 2629 706 
Q 2900 1003 2900 1516 
L 2900 3500 
L 3475 3500 
L 3475 0 
L 2900 0 
L 2900 538 
Q 2691 219 2414 64 
Q 2138 -91 1772 -91 
Q 1169 -91 856 284 
Q 544 659 544 1381 
z
M 1991 3584 
L 1991 3584 
z
" transform="scale(0.015625)"/>
       <path id="DejaVuSans-74" d="M 1172 4494 
L 1172 3500 
L 2356 3500 
L 2356 3053 
L 1172 3053 
L 1172 1153 
Q 1172 725 1289 603 
Q 1406 481 1766 481 
L 2356 481 
L 2356 0 
L 1766 0 
Q 1100 0 847 248 
Q 594 497 594 1153 
L 594 3053 
L 172 3053 
L 172 3500 
L 594 3500 
L 594 4494 
L 1172 4494 
z
" transform="scale(0.015625)"/>
       <path id="DejaVuSans-65" d="M 3597 1894 
L 3597 1613 
L 953 1613 
Q 991 1019 1311 708 
Q 1631 397 2203 397 
Q 2534 397 2845 478 
Q 3156 559 3463 722 
L 3463 178 
Q 3153 47 2828 -22 
Q 2503 -91 2169 -91 
Q 1331 -91 842 396 
Q 353 884 353 1716 
Q 353 2575 817 3079 
Q 1281 3584 2069 3584 
Q 2775 3584 3186 3129 
Q 3597 2675 3597 1894 
z
M 3022 2063 
Q 3016 2534 2758 2815 
Q 2500 3097 2075 3097 
Q 1594 3097 1305 2825 
Q 1016 2553 972 2059 
L 3022 2063 
z
" transform="scale(0.015625)"/>
       <path id="DejaVuSans-73" d="M 2834 3397 
L 2834 2853 
Q 2591 2978 2328 3040 
Q 2066 3103 1784 3103 
Q 1356 3103 1142 2972 
Q 928 2841 928 2578 
Q 928 2378 1081 2264 
Q 1234 2150 1697 2047 
L 1894 2003 
Q 2506 1872 2764 1633 
Q 3022 1394 3022 966 
Q 3022 478 2636 193 
Q 2250 -91 1575 -91 
Q 1294 -91 989 -36 
Q 684 19 347 128 
L 347 722 
Q 666 556 975 473 
Q 1284 391 1588 391 
Q 1994 391 2212 530 
Q 2431 669 2431 922 
Q 2431 1156 2273 1281 
Q 2116 1406 1581 1522 
L 1381 1569 
Q 847 1681 609 1914 
Q 372 2147 372 2553 
Q 372 3047 722 3315 
Q 1072 3584 1716 3584 
Q 2034 3584 2315 3537 
Q 2597 3491 2834 3397 
z
" transform="scale(0.015625)"/>
       <path id="DejaVuSans-20" transform="scale(0.015625)"/>
       <path id="DejaVuSans-63" d="M 3122 3366 
L 3122 2828 
Q 2878 2963 2633 3030 
Q 2388 3097 2138 3097 
Q 1578 3097 1268 2742 
Q 959 2388 959 1747 
Q 959 1106 1268 751 
Q 1578 397 2138 397 
Q 2388 397 2633 464 
Q 2878 531 3122 666 
L 3122 134 
Q 2881 22 2623 -34 
Q 2366 -91 2075 -91 
Q 1284 -91 818 406 
Q 353 903 353 1747 
Q 353 2603 823 3093 
Q 1294 3584 2113 3584 
Q 2378 3584 2631 3529 
Q 2884 3475 3122 3366 
z
" transform="scale(0.015625)"/>
       <path id="DejaVuSans-6f" d="M 1959 3097 
Q 1497 3097 1228 2736 
Q 959 2375 959 1747 
Q 959 1119 1226 758 
Q 1494 397 1959 397 
Q 2419 397 2687 759 
Q 2956 1122 2956 1747 
Q 2956 2369 2687 2733 
Q 2419 3097 1959 3097 
z
M 1959 3584 
Q 2709 3584 3137 3096 
Q 3566 2609 3566 1747 
Q 3566 888 3137 398 
Q 2709 -91 1959 -91 
Q 1206 -91 779 398 
Q 353 888 353 1747 
Q 353 2609 779 3096 
Q 1206 3584 1959 3584 
z
" transform="scale(0.015625)"/>
       <path id="DejaVuSans-61" d="M 2194 1759 
Q 1497 1759 1228 1600 
Q 959 1441 959 1056 
Q 959 750 1161 570 
Q 1363 391 1709 391 
Q 2188 391 2477 730 
Q 2766 1069 2766 1631 
L 2766 1759 
L 2194 1759 
z
M 3341 1997 
L 3341 0 
L 2766 0 
L 2766 531 
Q 2569 213 2275 61 
Q 1981 -91 1556 -91 
Q 1019 -91 701 211 
Q 384 513 384 1019 
Q 384 1609 779 1909 
Q 1175 2209 1959 2209 
L 2766 2209 
L 2766 2266 
Q 2766 2663 2505 2880 
Q 2244 3097 1772 3097 
Q 1472 3097 1187 3025 
Q 903 2953 641 2809 
L 641 3341 
Q 956 3463 1253 3523 
Q 1550 3584 1831 3584 
Q 2591 3584 2966 3190 
Q 3341 2797 3341 1997 
z
" transform="scale(0.015625)"/>
       <path id="DejaVuSans-72" d="M 2631 2963 
Q 2534 3019 2420 3045 
Q 2306 3072 2169 3072 
Q 1681 3072 1420 2755 
Q 1159 2438 1159 1844 
L 1159 0 
L 581 0 
L 581 3500 
L 1159 3500 
L 1159 2956 
Q 1341 3275 1631 3429 
Q 1922 3584 2338 3584 
Q 2397 3584 2469 3576 
Q 2541 3569 2628 3553 
L 2631 2963 
z
" transform="scale(0.015625)"/>
      </defs>
      <use xlink:href="#DejaVuSans-4d"/>
      <use xlink:href="#DejaVuSans-69" transform="translate(86.279297 0)"/>
      <use xlink:href="#DejaVuSans-6e" transform="translate(114.0625 0)"/>
      <use xlink:href="#DejaVuSans-75" transform="translate(177.441406 0)"/>
      <use xlink:href="#DejaVuSans-74" transform="translate(240.820312 0)"/>
      <use xlink:href="#DejaVuSans-65" transform="translate(280.029297 0)"/>
      <use xlink:href="#DejaVuSans-73" transform="translate(341.552734 0)"/>
      <use xlink:href="#DejaVuSans-20" transform="translate(393.652344 0)"/>
      <use xlink:href="#DejaVuSans-73" transform="translate(425.439453 0)"/>
      <use xlink:href="#DejaVuSans-69" transform="translate(477.539062 0)"/>
      <use xlink:href="#DejaVuSans-6e" transform="translate(505.322266 0)"/>
      <use xlink:href="#DejaVuSans-63" transform="translate(568.701172 0)"/>
      <use xlink:href="#DejaVuSans-65" transform="translate(623.681641 0)"/>
      <use xlink:href="#DejaVuSans-20" transform="translate(685.205078 0)"/>
      <use xlink:href="#DejaVuSans-73" transform="translate(716.992188 0)"/>
      <use xlink:href="#DejaVuSans-65" transform="translate(769.091797 0)"/>
      <use xlink:href="#DejaVuSans-73" transform="translate(830.615234 0)"/>
      <use xlink:href="#DejaVuSans-73" transform="translate(882.714844 0)"/>
      <use xlink:href="#DejaVuSans-69" transform="translate(934.814453 0)"/>
      <use xlink:href="#DejaVuSans-6f" transform="translate(962.597656 0)"/>
      <use xlink:href="#DejaVuSans-6e" transform="translate(1023.779297 0)"/>
      <use xlink:href="#DejaVuSans-20" transform="translate(1087.158203 0)"/>
      <use xlink:href="#DejaVuSans-73" transform="translate(1118.945312 0)"/>
      <use xlink:href="#DejaVuSans-74" transform="translate(1171.044922 0)"/>
      <use xlink:href="#DejaVuSans-61" transform="translate(1210.253906 0)"/>
      <use xlink:href="#DejaVuSans-72" transform="translate(1271.533203 0)"/>
      <use xlink:href="#DejaVuSans-74" transform="translate(1312.646484 0)"/>
     </g>
    </g>
   </g>
   <g id="matplotlib.axis_2">
    <g id="ytick_1">
     <g id="line2d_17">
      <path d="M 42.190938 205.733017 
L 935.353438 205.733017 
" clip-path="url(#p8fcd042e55)" style="fill: none; stroke: #eef2f7; stroke-opacity: 0.25; stroke-width: 0.55; stroke-linecap: square"/>
     </g>
     <g id="line2d_18">
      <defs>
       <path id="m856d54ac01" d="M 0 0 
L -3.5 0 
" style="stroke: #000000; stroke-width: 0.8"/>
      </defs>
      <g>
       <use xlink:href="#m856d54ac01" x="42.190938" y="205.733017" style="stroke: #000000; stroke-width: 0.8"/>
      </g>
     </g>
     <g id="text_10">
      <!-- 1.0 -->
      <g transform="translate(20.878125 209.152314) scale(0.09 -0.09)">
       <defs>
        <path id="DejaVuSans-2e" d="M 684 794 
L 1344 794 
L 1344 0 
L 684 0 
L 684 794 
z
" transform="scale(0.015625)"/>
       </defs>
       <use xlink:href="#DejaVuSans-31"/>
       <use xlink:href="#DejaVuSans-2e" transform="translate(63.623047 0)"/>
       <use xlink:href="#DejaVuSans-30" transform="translate(95.410156 0)"/>
      </g>
     </g>
    </g>
    <g id="ytick_2">
     <g id="line2d_19">
      <path d="M 42.190938 172.760453 
L 935.353438 172.760453 
" clip-path="url(#p8fcd042e55)" style="fill: none; stroke: #eef2f7; stroke-opacity: 0.25; stroke-width: 0.55; stroke-linecap: square"/>
     </g>
     <g id="line2d_20">
      <g>
       <use xlink:href="#m856d54ac01" x="42.190938" y="172.760453" style="stroke: #000000; stroke-width: 0.8"/>
      </g>
     </g>
     <g id="text_11">
      <!-- 1.2 -->
      <g transform="translate(20.878125 176.17975) scale(0.09 -0.09)">
       <use xlink:href="#DejaVuSans-31"/>
       <use xlink:href="#DejaVuSans-2e" transform="translate(63.623047 0)"/>
       <use xlink:href="#DejaVuSans-32" transform="translate(95.410156 0)"/>
      </g>
     </g>
    </g>
    <g id="ytick_3">
     <g id="line2d_21">
      <path d="M 42.190938 139.78789 
L 935.353438 139.78789 
" clip-path="url(#p8fcd042e55)" style="fill: none; stroke: #eef2f7; stroke-opacity: 0.25; stroke-width: 0.55; stroke-linecap: square"/>
     </g>
     <g id="line2d_22">
      <g>
       <use xlink:href="#m856d54ac01" x="42.190938" y="139.78789" style="stroke: #000000; stroke-width: 0.8"/>
      </g>
     </g>
     <g id="text_12">
      <!-- 1.4 -->
      <g transform="translate(20.878125 143.207186) scale(0.09 -0.09)">
       <defs>
        <path id="DejaVuSans-34" d="M 2419 4116 
L 825 1625 
L 2419 1625 
L 2419 4116 
z
M 2253 4666 
L 3047 4666 
L 3047 1625 
L 3713 1625 
L 3713 1100 
L 3047 1100 
L 3047 0 
L 2419 0 
L 2419 1100 
L 313 1100 
L 313 1709 
L 2253 4666 
z
" transform="scale(0.015625)"/>
       </defs>
       <use xlink:href="#DejaVuSans-31"/>
       <use xlink:href="#DejaVuSans-2e" transform="translate(63.623047 0)"/>
       <use xlink:href="#DejaVuSans-34" transform="translate(95.410156 0)"/>
      </g>
     </g>
    </g>
    <g id="ytick_4">
     <g id="line2d_23">
      <path d="M 42.190938 106.815326 
L 935.353438 106.815326 
" clip-path="url(#p8fcd042e55)" style="fill: none; stroke: #eef2f7; stroke-opacity: 0.25; stroke-width: 0.55; stroke-linecap: square"/>
     </g>
     <g id="line2d_24">
      <g>
       <use xlink:href="#m856d54ac01" x="42.190938" y="106.815326" style="stroke: #000000; stroke-width: 0.8"/>
      </g>
     </g>
     <g id="text_13">
      <!-- 1.6 -->
      <g transform="translate(20.878125 110.234623) scale(0.09 -0.09)">
       <defs>
        <path id="DejaVuSans-36" d="M 2113 2584 
Q 1688 2584 1439 2293 
Q 1191 2003 1191 1497 
Q 1191 994 1439 701 
Q 1688 409 2113 409 
Q 2538 409 2786 701 
Q 3034 994 3034 1497 
Q 3034 2003 2786 2293 
Q 2538 2584 2113 2584 
z
M 3366 4563 
L 3366 3988 
Q 3128 4100 2886 4159 
Q 2644 4219 2406 4219 
Q 1781 4219 1451 3797 
Q 1122 3375 1075 2522 
Q 1259 2794 1537 2939 
Q 1816 3084 2150 3084 
Q 2853 3084 3261 2657 
Q 3669 2231 3669 1497 
Q 3669 778 3244 343 
Q 2819 -91 2113 -91 
Q 1303 -91 875 529 
Q 447 1150 447 2328 
Q 447 3434 972 4092 
Q 1497 4750 2381 4750 
Q 2619 4750 2861 4703 
Q 3103 4656 3366 4563 
z
" transform="scale(0.015625)"/>
       </defs>
       <use xlink:href="#DejaVuSans-31"/>
       <use xlink:href="#DejaVuSans-2e" transform="translate(63.623047 0)"/>
       <use xlink:href="#DejaVuSans-36" transform="translate(95.410156 0)"/>
      </g>
     </g>
    </g>
    <g id="ytick_5">
     <g id="line2d_25">
      <path d="M 42.190938 73.842762 
L 935.353438 73.842762 
" clip-path="url(#p8fcd042e55)" style="fill: none; stroke: #eef2f7; stroke-opacity: 0.25; stroke-width: 0.55; stroke-linecap: square"/>
     </g>
     <g id="line2d_26">
      <g>
       <use xlink:href="#m856d54ac01" x="42.190938" y="73.842762" style="stroke: #000000; stroke-width: 0.8"/>
      </g>
     </g>
     <g id="text_14">
      <!-- 1.8 -->
      <g transform="translate(20.878125 77.262059) scale(0.09 -0.09)">
       <defs>
        <path id="DejaVuSans-38" d="M 2034 2216 
Q 1584 2216 1326 1975 
Q 1069 1734 1069 1313 
Q 1069 891 1326 650 
Q 1584 409 2034 409 
Q 2484 409 2743 651 
Q 3003 894 3003 1313 
Q 3003 1734 2745 1975 
Q 2488 2216 2034 2216 
z
M 1403 2484 
Q 997 2584 770 2862 
Q 544 3141 544 3541 
Q 544 4100 942 4425 
Q 1341 4750 2034 4750 
Q 2731 4750 3128 4425 
Q 3525 4100 3525 3541 
Q 3525 3141 3298 2862 
Q 3072 2584 2669 2484 
Q 3125 2378 3379 2068 
Q 3634 1759 3634 1313 
Q 3634 634 3220 271 
Q 2806 -91 2034 -91 
Q 1263 -91 848 271 
Q 434 634 434 1313 
Q 434 1759 690 2068 
Q 947 2378 1403 2484 
z
M 1172 3481 
Q 1172 3119 1398 2916 
Q 1625 2713 2034 2713 
Q 2441 2713 2670 2916 
Q 2900 3119 2900 3481 
Q 2900 3844 2670 4047 
Q 2441 4250 2034 4250 
Q 1625 4250 1398 4047 
Q 1172 3844 1172 3481 
z
" transform="scale(0.015625)"/>
       </defs>
       <use xlink:href="#DejaVuSans-31"/>
       <use xlink:href="#DejaVuSans-2e" transform="translate(63.623047 0)"/>
       <use xlink:href="#DejaVuSans-38" transform="translate(95.410156 0)"/>
      </g>
     </g>
    </g>
    <g id="ytick_6">
     <g id="line2d_27">
      <path d="M 42.190938 40.870199 
L 935.353438 40.870199 
" clip-path="url(#p8fcd042e55)" style="fill: none; stroke: #eef2f7; stroke-opacity: 0.25; stroke-width: 0.55; stroke-linecap: square"/>
     </g>
     <g id="line2d_28">
      <g>
       <use xlink:href="#m856d54ac01" x="42.190938" y="40.870199" style="stroke: #000000; stroke-width: 0.8"/>
      </g>
     </g>
     <g id="text_15">
      <!-- 2.0 -->
      <g transform="translate(20.878125 44.289496) scale(0.09 -0.09)">
       <use xlink:href="#DejaVuSans-32"/>
       <use xlink:href="#DejaVuSans-2e" transform="translate(63.623047 0)"/>
       <use xlink:href="#DejaVuSans-30" transform="translate(95.410156 0)"/>
      </g>
     </g>
    </g>
    <g id="text_16">
     <!-- EDA (uS) -->
     <g transform="translate(14.798438 145.183854) rotate(-90) scale(0.1 -0.1)">
      <defs>
       <path id="DejaVuSans-45" d="M 628 4666 
L 3578 4666 
L 3578 4134 
L 1259 4134 
L 1259 2753 
L 3481 2753 
L 3481 2222 
L 1259 2222 
L 1259 531 
L 3634 531 
L 3634 0 
L 628 0 
L 628 4666 
z
" transform="scale(0.015625)"/>
       <path id="DejaVuSans-44" d="M 1259 4147 
L 1259 519 
L 2022 519 
Q 2988 519 3436 956 
Q 3884 1394 3884 2338 
Q 3884 3275 3436 3711 
Q 2988 4147 2022 4147 
L 1259 4147 
z
M 628 4666 
L 1925 4666 
Q 3281 4666 3915 4102 
Q 4550 3538 4550 2338 
Q 4550 1131 3912 565 
Q 3275 0 1925 0 
L 628 0 
L 628 4666 
z
" transform="scale(0.015625)"/>
       <path id="DejaVuSans-41" d="M 2188 4044 
L 1331 1722 
L 3047 1722 
L 2188 4044 
z
M 1831 4666 
L 2547 4666 
L 4325 0 
L 3669 0 
L 3244 1197 
L 1141 1197 
L 716 0 
L 50 0 
L 1831 4666 
z
" transform="scale(0.015625)"/>
       <path id="DejaVuSans-28" d="M 1984 4856 
Q 1566 4138 1362 3434 
Q 1159 2731 1159 2009 
Q 1159 1288 1364 580 
Q 1569 -128 1984 -844 
L 1484 -844 
Q 1016 -109 783 600 
Q 550 1309 550 2009 
Q 550 2706 781 3412 
Q 1013 4119 1484 4856 
L 1984 4856 
z
" transform="scale(0.015625)"/>
       <path id="DejaVuSans-53" d="M 3425 4513 
L 3425 3897 
Q 3066 4069 2747 4153 
Q 2428 4238 2131 4238 
Q 1616 4238 1336 4038 
Q 1056 3838 1056 3469 
Q 1056 3159 1242 3001 
Q 1428 2844 1947 2747 
L 2328 2669 
Q 3034 2534 3370 2195 
Q 3706 1856 3706 1288 
Q 3706 609 3251 259 
Q 2797 -91 1919 -91 
Q 1588 -91 1214 -16 
Q 841 59 441 206 
L 441 856 
Q 825 641 1194 531 
Q 1563 422 1919 422 
Q 2459 422 2753 634 
Q 3047 847 3047 1241 
Q 3047 1584 2836 1778 
Q 2625 1972 2144 2069 
L 1759 2144 
Q 1053 2284 737 2584 
Q 422 2884 422 3419 
Q 422 4038 858 4394 
Q 1294 4750 2059 4750 
Q 2388 4750 2728 4690 
Q 3069 4631 3425 4513 
z
" transform="scale(0.015625)"/>
       <path id="DejaVuSans-29" d="M 513 4856 
L 1013 4856 
Q 1481 4119 1714 3412 
Q 1947 2706 1947 2009 
Q 1947 1309 1714 600 
Q 1481 -109 1013 -844 
L 513 -844 
Q 928 -128 1133 580 
Q 1338 1288 1338 2009 
Q 1338 2731 1133 3434 
Q 928 4138 513 4856 
z
" transform="scale(0.015625)"/>
      </defs>
      <use xlink:href="#DejaVuSans-45"/>
      <use xlink:href="#DejaVuSans-44" transform="translate(63.183594 0)"/>
      <use xlink:href="#DejaVuSans-41" transform="translate(138.435547 0)"/>
      <use xlink:href="#DejaVuSans-20" transform="translate(206.84375 0)"/>
      <use xlink:href="#DejaVuSans-28" transform="translate(238.630859 0)"/>
      <use xlink:href="#DejaVuSans-75" transform="translate(277.644531 0)"/>
      <use xlink:href="#DejaVuSans-53" transform="translate(341.023438 0)"/>
      <use xlink:href="#DejaVuSans-29" transform="translate(404.5 0)"/>
     </g>
    </g>
   </g>
   <g id="line2d_29">
    <path d="M 42.199895 91.668892 
L 42.500906 80.501602 
L 42.801917 82.197514 
L 43.102928 115.489213 
L 43.403939 70.616583 
L 43.70495 62.059824 
L 44.005961 69.765109 
L 44.306972 71.53588 
L 44.607983 62.253978 
L 44.908994 110.272827 
L 45.210004 109.617865 
L 45.511015 105.273982 
L 45.812026 110.841256 
L 46.113037 111.851783 
L 46.414048 111.084523 
L 46.715059 112.794468 
L 47.317081 119.947714 
L 47.618092 119.100918 
L 47.919103 114.464654 
L 48.220114 96.228351 
L 48.521124 92.109044 
L 48.822135 101.409656 
L 49.123146 101.533628 
L 49.424157 108.455282 
L 49.725168 106.146505 
L 50.026179 101.510241 
L 50.32719 84.214284 
L 50.628201 88.654055 
L 50.929212 95.786233 
L 51.230223 97.854082 
L 51.531234 97.807307 
L 51.832244 54.125305 
L 52.133255 51.552193 
L 52.434266 66.064514 
L 52.735277 43.467956 
L 53.337299 46.457441 
L 53.63831 46.600142 
L 54.240332 57.701928 
L 54.541343 57.252794 
L 54.842353 50.26096 
L 55.143364 54.806013 
L 55.745386 58.707778 
L 56.046397 52.118283 
L 56.347408 58.630581 
L 56.648419 58.873848 
L 56.94943 58.097252 
L 57.250441 53.334658 
L 57.852463 61.096092 
L 58.153473 63.11013 
L 58.454484 62.848133 
L 58.755495 61.498431 
L 59.056506 54.946356 
L 59.357517 64.876204 
L 59.658528 61.570932 
L 59.959539 65.723 
L 60.26055 67.903127 
L 60.561561 60.087903 
L 60.862572 65.4306 
L 61.163582 62.714806 
L 61.464593 50.6984 
L 61.765604 60.763914 
L 62.066615 61.224741 
L 62.367626 54.202503 
L 62.668637 36.527593 
L 62.969648 56.63993 
L 63.270659 58.726488 
L 63.57167 47.287866 
L 63.872681 60.595505 
L 64.173692 42.391945 
L 64.474702 53.542844 
L 64.775713 28.910492 
L 65.076724 26.692946 
L 65.678746 45.27312 
L 65.979757 40.611131 
L 66.280768 55.046234 
L 66.581779 55.247404 
L 67.183801 69.972607 
L 67.484812 59.268483 
L 67.785822 64.316442 
L 68.086833 74.393669 
L 68.387844 70.459161 
L 68.688855 77.11414 
L 68.989866 72.201848 
L 69.290877 70.997167 
L 69.591888 48.877808 
L 69.892899 60.770242 
L 70.19391 64.185453 
L 70.494921 56.038051 
L 71.397953 67.001833 
L 71.698964 61.254457 
L 71.999975 68.484881 
L 72.300986 66.316448 
L 72.601997 68.515285 
L 72.903008 63.820533 
L 73.204019 69.89541 
L 73.50503 56.777246 
L 73.806041 61.864983 
L 74.107051 62.524622 
L 74.408062 63.855634 
L 74.709073 64.529305 
L 75.010084 59.75034 
L 75.311095 65.61703 
L 75.612106 61.951516 
L 75.913117 68.449781 
L 76.214128 61.233389 
L 76.515139 68.136332 
L 76.81615 63.366741 
L 77.11716 68.351534 
L 77.418171 71.268518 
L 77.719182 73.041608 
L 78.020193 70.824062 
L 78.321204 64.889548 
L 78.622215 71.273196 
L 78.923226 63.139826 
L 79.224237 67.881371 
L 79.525248 64.751524 
L 79.826259 70.166761 
L 80.42828 74.494254 
L 80.729291 72.534006 
L 81.030302 59.493041 
L 81.632324 67.546855 
L 81.933335 65.722293 
L 82.234346 70.440432 
L 82.836368 67.090724 
L 83.137379 68.365586 
L 83.438389 60.634556 
L 83.7394 67.846271 
L 84.040411 56.707065 
L 84.341422 55.486013 
L 84.642433 44.608784 
L 84.943444 52.926933 
L 85.244455 48.314057 
L 85.545466 56.578415 
L 85.846477 59.305903 
L 86.147488 60.145664 
L 86.448499 54.536293 
L 86.749509 60.11526 
L 87.05052 62.178431 
L 87.351531 62.662646 
L 87.652542 64.487208 
L 87.953553 56.604141 
L 88.555575 64.812351 
L 88.856586 66.76792 
L 89.157597 59.967901 
L 89.458608 60.501229 
L 89.759619 64.48487 
L 90.060629 63.16791 
L 90.36164 64.288377 
L 90.662651 67.907097 
L 90.963662 69.682546 
L 91.264673 69.846277 
L 91.565684 71.731665 
L 92.167706 74.066188 
L 92.468717 72.096585 
L 92.769728 74.286067 
L 93.371749 76.819402 
L 93.67276 69.649784 
L 93.973771 74.693085 
L 94.274782 75.364437 
L 94.575793 76.819402 
L 94.876804 78.880234 
L 95.177815 79.406546 
L 95.478826 80.517658 
L 95.779837 79.401869 
L 96.682869 82.426434 
L 96.98388 81.387842 
L 97.284891 83.600711 
L 97.585902 83.289602 
L 97.886913 83.144561 
L 98.488935 85.684931 
L 99.692978 88.723529 
L 99.993989 89.179679 
L 101.499044 92.730557 
L 101.800055 93.139913 
L 102.402077 94.508344 
L 102.703087 94.709514 
L 103.305109 95.90484 
L 103.60612 96.10601 
L 103.907131 96.545769 
L 104.208142 91.593718 
L 104.509153 94.725885 
L 105.111175 96.632322 
L 105.412186 96.50835 
L 106.014207 98.138758 
L 106.315218 98.124725 
L 106.616229 98.613618 
L 106.91724 98.57386 
L 107.218251 99.429991 
L 107.519262 99.446362 
L 108.121284 100.87562 
L 108.422295 100.800761 
L 108.723306 102.06391 
L 109.024316 102.075624 
L 109.325327 102.945788 
L 109.626338 102.440524 
L 110.22836 104.302526 
L 110.529371 104.251054 
L 110.830382 105.18908 
L 111.131393 105.748135 
L 111.432404 105.783235 
L 111.733415 106.466262 
L 112.034426 106.667432 
L 112.335436 107.397272 
L 112.636447 107.579732 
L 112.937458 107.516567 
L 113.238469 108.48032 
L 113.53948 108.660421 
L 113.840491 109.495524 
L 114.141502 109.815989 
L 114.442513 106.061583 
L 114.743524 108.739958 
L 115.044535 109.240544 
L 115.345545 109.373871 
L 115.947567 110.232361 
L 116.248578 110.311898 
L 116.549589 110.908391 
L 116.8506 111.121255 
L 117.452622 112.164524 
L 117.753633 112.959849 
L 118.054644 112.639385 
L 118.355655 113.030031 
L 119.258687 114.782092 
L 119.559698 115.095541 
L 119.860709 115.11425 
L 120.16172 113.563359 
L 120.462731 114.910742 
L 121.365764 116.410161 
L 121.666775 116.445242 
L 121.967785 117.221857 
L 122.268796 117.128289 
L 122.569807 117.586778 
L 122.870818 117.682685 
L 123.171829 118.22303 
L 123.47284 117.158692 
L 123.773851 114.470963 
L 124.074862 115.186771 
L 124.375873 114.817173 
L 124.676884 115.911914 
L 125.278905 116.63238 
L 125.579916 117.832383 
L 125.880927 118.136477 
L 126.181938 118.704906 
L 126.482949 118.550511 
L 126.78396 118.877992 
L 127.084971 119.787953 
L 127.385982 120.164548 
L 127.686993 120.042914 
L 128.289014 121.537656 
L 128.891036 122.223041 
L 129.493058 122.777418 
L 129.794069 123.217197 
L 130.09508 123.444093 
L 130.396091 122.747015 
L 130.998113 124.0172 
L 131.299123 124.209015 
L 131.600134 125.07684 
L 131.901145 125.376256 
L 132.202156 125.437083 
L 132.503167 127.847152 
L 133.707211 128.986329 
L 134.008222 129.182822 
L 134.610243 130.551253 
L 134.911254 130.544237 
L 135.212265 130.705629 
L 135.814287 131.323191 
L 136.416309 131.526699 
L 136.71732 131.952426 
L 137.018331 131.662365 
L 137.620353 132.864707 
L 137.921363 133.241321 
L 138.222374 134.130215 
L 138.523385 132.14658 
L 138.824396 133.044829 
L 139.125407 134.366466 
L 139.727429 134.298623 
L 140.02844 134.691608 
L 140.329451 135.337234 
L 140.630462 135.489271 
L 141.232483 136.663549 
L 141.533494 136.36881 
L 142.135516 137.470567 
L 143.33956 138.357122 
L 143.941582 139.126721 
L 144.242592 138.923213 
L 144.543603 139.168818 
L 144.844614 139.8963 
L 145.145625 139.800393 
L 145.446636 140.111503 
L 146.048658 140.216765 
L 146.349669 139.807409 
L 146.65068 140.450697 
L 147.553712 141.365317 
L 147.854723 140.848359 
L 148.155734 141.648362 
L 148.456745 141.971165 
L 149.058767 141.671749 
L 149.359778 140.768823 
L 149.660789 142.186368 
L 150.262811 143.02147 
L 150.563821 143.103326 
L 150.864832 143.971171 
L 151.165843 144.118531 
L 151.466854 144.039014 
L 152.068876 144.955972 
L 152.369887 144.930246 
L 152.670898 144.672927 
L 153.27292 145.791055 
L 153.874941 146.401581 
L 154.175952 145.973516 
L 154.777974 146.724405 
L 155.078985 146.441359 
L 155.379996 146.892813 
L 155.681007 147.596907 
L 155.982018 148.010941 
L 156.283029 148.172353 
L 156.58404 146.506844 
L 156.88505 141.88929 
L 157.186061 143.145443 
L 157.788083 144.417947 
L 158.089094 144.633169 
L 158.390105 142.621469 
L 158.691116 144.537261 
L 159.293138 145.271759 
L 159.594149 146.389888 
L 159.89516 146.18404 
L 160.19617 146.892813 
L 160.798192 147.669428 
L 161.099203 147.863581 
L 161.400214 147.795739 
L 161.701225 148.212111 
L 162.002236 148.113865 
L 162.303247 145.362989 
L 162.604258 144.995731 
L 162.905269 144.810932 
L 163.206279 146.099827 
L 163.50729 146.577025 
L 163.808301 147.370011 
L 164.109312 147.360657 
L 164.410323 148.041364 
L 164.711334 148.296325 
L 165.012345 148.39691 
L 165.313356 143.44252 
L 165.614367 142.869414 
L 165.915378 144.689298 
L 166.216389 145.505672 
L 167.119421 146.672933 
L 167.420432 141.865903 
L 167.721443 145.068251 
L 168.022454 146.057729 
L 168.624476 147.241362 
L 168.925487 147.961828 
L 169.527508 147.685799 
L 169.828519 146.56767 
L 170.12953 147.823823 
L 170.430541 145.702164 
L 170.731552 147.337269 
L 171.032563 147.608601 
L 171.333574 148.602757 
L 172.537618 150.726755 
L 172.838628 150.640202 
L 173.139639 151.276454 
L 173.44065 145.023815 
L 173.741661 147.901001 
L 174.042672 149.536106 
L 174.343683 149.765341 
L 174.644694 150.165342 
L 175.547727 151.861254 
L 175.848738 151.809783 
L 176.149748 152.401599 
L 176.75177 152.930269 
L 177.052781 152.193413 
L 177.955814 153.627348 
L 178.256825 154.361846 
L 178.557836 156.39764 
L 178.858847 156.404657 
L 179.159857 156.290039 
L 179.460868 153.964891 
L 179.761879 155.773082 
L 180.06289 156.028043 
L 180.363901 156.659637 
L 180.965923 157.059638 
L 181.567945 156.563729 
L 181.868956 157.228046 
L 182.169967 155.74032 
L 182.470977 157.029215 
L 182.771988 157.49472 
L 183.072999 157.702906 
L 183.37401 155.307577 
L 183.976032 157.693551 
L 184.879065 158.753192 
L 185.180076 158.755531 
L 185.481086 159.564908 
L 185.782097 159.148516 
L 186.083108 156.825706 
L 186.384119 158.042081 
L 186.68513 155.665481 
L 186.986141 158.236235 
L 187.287152 159.354363 
L 187.588163 159.712267 
L 187.889174 159.614021 
L 188.190185 159.7614 
L 188.792206 160.685375 
L 189.093217 157.33097 
L 189.394228 159.333314 
L 189.695239 159.735654 
L 189.99625 159.099402 
L 190.297261 159.766078 
L 190.598272 159.340331 
L 190.899283 159.756703 
L 191.200294 158.488876 
L 191.802316 160.152027 
L 192.103326 160.240918 
L 192.404337 160.69473 
L 192.705348 160.568419 
L 193.30737 161.160235 
L 193.909392 161.946185 
L 194.812425 162.399997 
L 195.113435 162.65028 
L 195.715457 163.50877 
L 196.61849 164.643269 
L 197.220512 165.644442 
L 197.521523 165.106436 
L 197.822534 164.942686 
L 198.424555 165.723978 
L 198.725566 165.716962 
L 199.92961 166.947369 
L 200.230621 167.356725 
L 201.434664 167.326322 
L 201.735675 166.512287 
L 202.036686 166.318133 
L 202.337697 143.082985 
L 202.638708 150.114578 
L 202.939719 148.937962 
L 203.24073 153.047913 
L 203.541741 142.566028 
L 203.842752 150.236212 
L 204.745784 153.050252 
L 205.046795 153.440898 
L 205.347806 154.128622 
L 205.648817 153.976585 
L 205.949828 154.456123 
L 206.250839 154.09588 
L 206.852861 155.723949 
L 207.153872 155.766066 
L 207.454883 155.218686 
L 207.755894 149.948489 
L 208.658926 154.58945 
L 208.959937 154.856124 
L 209.260948 156.039736 
L 210.163981 156.626875 
L 210.464992 157.426877 
L 211.067013 156.743831 
L 211.970046 156.930969 
L 212.271057 154.617514 
L 212.572068 153.197631 
L 212.873079 154.371909 
L 213.17409 155.012838 
L 213.475101 154.601143 
L 213.776112 155.087697 
L 214.077123 155.86899 
L 214.378133 154.683018 
L 214.679144 156.137983 
L 216.184199 158.771921 
L 216.48521 155.522779 
L 216.786221 158.095891 
L 217.087232 151.132121 
L 217.388242 156.137983 
L 217.689253 157.054941 
L 217.990264 157.614015 
L 218.291275 158.421034 
L 218.592286 158.8842 
L 219.194308 159.424545 
L 219.79633 160.327471 
L 220.097341 160.856121 
L 220.398352 160.912271 
L 220.699362 161.244429 
L 221.000373 159.160229 
L 221.301384 160.266664 
L 221.602395 159.971925 
L 221.903406 160.654952 
L 222.204417 157.141494 
L 222.505428 159.258475 
L 223.10745 160.472511 
L 224.010482 161.817535 
L 224.311493 161.80818 
L 224.612504 162.205843 
L 224.913515 156.423366 
L 225.214526 160.137994 
L 225.515537 161.207009 
L 225.816548 161.454954 
L 226.117559 162.112274 
L 226.41857 152.252588 
L 226.719581 152.781259 
L 227.020591 152.821017 
L 227.321595 148.402295 
L 227.622606 149.522762 
L 227.923617 151.962547 
L 228.224628 149.258446 
L 228.525639 149.314576 
L 228.82665 145.323919 
L 229.428672 149.230362 
L 229.729683 139.782391 
L 230.030694 143.3473 
L 230.331705 142.322741 
L 230.632715 122.292279 
L 230.933726 134.907518 
L 231.234737 135.220966 
L 231.836759 140.573038 
L 232.438781 143.628007 
L 233.040803 144.678312 
L 233.341814 145.941461 
L 233.943835 146.914569 
L 234.244846 148.236206 
L 234.545857 148.783586 
L 234.846868 144.549662 
L 235.749901 149.026853 
L 236.050912 149.737964 
L 236.351923 148.930946 
L 236.652934 148.668969 
L 236.953944 149.045563 
L 237.254955 150.736798 
L 237.555966 151.438554 
L 237.856977 151.501719 
L 238.458999 152.860795 
L 238.76001 153.101724 
L 239.061021 150.042058 
L 239.362032 149.796452 
L 239.663043 151.546155 
L 239.964053 152.06547 
L 240.265064 152.959042 
L 240.566075 150.891193 
L 240.867086 153.134466 
L 241.168097 152.43271 
L 241.469108 153.847916 
L 241.770119 154.692373 
L 242.07113 154.809329 
L 242.372141 155.618687 
L 242.974163 156.2526 
L 243.576184 157.375425 
L 243.877195 157.592967 
L 244.178206 157.978935 
L 244.479217 158.615187 
L 244.780228 158.769583 
L 245.081239 159.485371 
L 246.285282 159.925131 
L 246.586293 160.327471 
L 246.887304 160.177772 
L 247.188315 160.556705 
L 247.489326 161.185961 
L 247.790337 159.925131 
L 248.994381 161.588301 
L 249.295392 161.574268 
L 249.596402 153.969569 
L 249.897413 156.811674 
L 250.198424 158.18946 
L 250.499435 147.305215 
L 250.800446 152.933296 
L 251.101457 148.395279 
L 251.402468 140.830337 
L 251.703479 146.147309 
L 252.00449 144.376557 
L 252.305501 136.575365 
L 252.606512 144.04204 
L 253.208533 148.736792 
L 253.509544 148.123927 
L 254.111566 151.604643 
L 254.713588 153.527451 
L 255.014599 148.053765 
L 255.31561 150.378913 
L 255.616621 151.230368 
L 255.917631 152.736803 
L 256.218642 148.453766 
L 257.121675 153.106401 
L 257.422686 153.957875 
L 257.723697 149.574233 
L 258.62673 154.154368 
L 258.927741 154.769571 
L 259.529762 156.327459 
L 260.131784 157.534479 
L 260.432795 157.742665 
L 260.733806 157.29355 
L 261.034817 155.569573 
L 261.636839 158.306416 
L 261.93785 158.650268 
L 262.23886 159.263153 
L 262.539871 149.445564 
L 262.840882 150.144981 
L 263.141893 153.204647 
L 263.442904 154.392957 
L 263.743915 153.068981 
L 264.044926 155.127455 
L 264.345937 155.747336 
L 264.646948 148.900542 
L 264.947959 147.344973 
L 265.24897 136.631495 
L 265.54998 143.464276 
L 265.850991 145.826844 
L 267.356046 152.45142 
L 267.657057 152.975413 
L 267.958068 153.962553 
L 268.259079 154.313421 
L 268.56009 155.737982 
L 268.8611 156.481854 
L 269.162111 156.85613 
L 269.463122 153.410495 
L 269.764133 154.091202 
L 270.065144 155.637397 
L 270.366155 156.222197 
L 270.968177 158.081859 
L 271.269188 158.495893 
L 271.570199 159.190632 
L 271.871209 157.698229 
L 272.17222 159.321621 
L 272.774242 160.028054 
L 273.075253 160.636242 
L 273.677275 161.225719 
L 273.978286 161.602333 
L 274.279297 148.907558 
L 274.580308 143.95083 
L 274.881319 146.767209 
L 275.182329 150.89587 
L 275.48334 150.509902 
L 275.784351 147.95318 
L 276.085362 150.867806 
L 276.687384 153.976585 
L 276.988395 154.837394 
L 277.289406 150.643229 
L 277.590417 153.366059 
L 278.493449 156.683024 
L 278.79446 157.071332 
L 279.095471 154.109912 
L 279.396482 143.770709 
L 279.697493 151.660792 
L 279.998504 145.384746 
L 280.299515 149.272479 
L 280.600526 147.967213 
L 280.901537 150.105223 
L 281.202548 151.309904 
L 281.503558 150.355526 
L 281.804569 150.035042 
L 282.10558 152.004644 
L 282.406591 152.137971 
L 282.707602 153.960214 
L 283.911646 157.398813 
L 284.212657 157.616354 
L 285.115689 159.838578 
L 286.018722 161.13215 
L 286.319733 161.319288 
L 287.222766 162.32046 
L 287.523777 163.08772 
L 287.824787 161.539168 
L 288.125798 161.843261 
L 288.426809 163.024555 
L 288.72782 163.118124 
L 289.028831 163.06901 
L 289.329842 162.161407 
L 289.630853 160.680697 
L 289.931864 162.126306 
L 290.232875 156.701734 
L 290.533886 157.763733 
L 290.834897 157.581273 
L 291.135907 159.789465 
L 291.737929 161.595317 
L 292.03894 162.219875 
L 292.640962 164.217542 
L 292.941973 164.030405 
L 293.242984 157.171917 
L 293.543995 161.546184 
L 293.845006 160.519286 
L 294.146016 162.835079 
L 294.447027 163.588306 
L 294.748038 163.733327 
L 295.049049 164.065505 
L 295.35006 165.223392 
L 295.952082 165.920471 
L 296.554104 166.755554 
L 297.156126 167.277208 
L 297.457136 167.768439 
L 297.758147 165.618716 
L 298.059158 166.867852 
L 298.66118 168.049126 
L 298.962191 168.191828 
L 299.263202 166.774283 
L 299.564213 168.007029 
L 299.865224 168.348542 
L 300.166235 166.650291 
L 300.768256 168.27838 
L 301.069267 167.698258 
L 301.370278 168.456143 
L 301.671289 167.791827 
L 301.9723 167.84094 
L 302.273311 168.3158 
L 302.574322 168.290074 
L 303.176344 169.326327 
L 303.477355 169.625744 
L 303.778365 169.557901 
L 304.079376 169.810542 
L 304.380387 170.343871 
L 304.681398 170.554396 
L 304.982409 168.584813 
L 305.28342 170.194172 
L 305.584431 170.577802 
L 305.885442 170.484234 
L 306.186453 170.514637 
L 306.487464 168.601184 
L 306.788475 170.776634 
L 307.089485 171.616394 
L 307.992518 172.409381 
L 308.293529 172.652648 
L 308.59454 173.249141 
L 308.895551 173.438618 
L 309.196562 173.768457 
L 309.497573 169.957902 
L 310.099594 172.042122 
L 310.701616 172.547385 
L 311.002627 166.930998 
L 311.303638 167.45731 
L 311.604649 170.145039 
L 312.206671 171.377805 
L 312.507682 172.030428 
L 312.808693 172.194178 
L 313.109704 170.877219 
L 313.410714 170.168446 
L 313.711725 171.756738 
L 314.012736 171.892423 
L 314.313747 171.604701 
L 314.614758 172.350893 
L 314.915769 167.759065 
L 315.21678 168.467857 
L 315.517791 168.217554 
L 315.818802 169.740361 
L 316.119813 170.671371 
L 316.721834 170.98482 
L 317.022845 170.645626 
L 317.624867 172.014057 
L 317.925878 172.315812 
L 318.226889 172.196517 
L 319.129922 173.72634 
L 319.430933 174.156745 
L 319.731943 174.306463 
L 320.634976 175.649148 
L 320.935987 175.48074 
L 321.83902 176.41407 
L 322.140031 176.404715 
L 322.441042 176.556752 
L 322.742053 175.073723 
L 323.043063 170.355564 
L 323.344074 171.309962 
L 323.645085 173.375472 
L 323.946096 170.916977 
L 324.247107 173.389504 
L 324.548118 173.204705 
L 324.849129 174.194184 
L 326.053172 176.245642 
L 326.354183 176.409392 
L 326.655194 175.70062 
L 326.956205 176.729857 
L 327.257216 176.982498 
L 328.160249 178.11232 
L 328.46126 178.255003 
L 328.762271 178.626939 
L 329.063282 178.626939 
L 329.364292 178.764944 
L 329.665303 179.029279 
L 329.966314 179.607063 
L 330.568336 179.826942 
L 330.869347 180.250331 
L 331.170358 180.45384 
L 331.471369 179.667889 
L 331.77238 180.615251 
L 332.073391 180.790695 
L 332.374401 180.788356 
L 332.675412 180.98251 
L 332.976423 181.536887 
L 333.277434 181.761444 
L 333.578445 181.815255 
L 334.180467 182.308825 
L 334.481478 182.037473 
L 334.782489 182.519349 
L 335.0835 182.432797 
L 335.384511 182.643322 
L 335.685521 182.6831 
L 335.986532 183.13923 
L 336.287543 182.73689 
L 336.588554 184.852221 
L 337.190576 185.12825 
L 337.792598 185.771518 
L 338.093609 185.699018 
L 338.39462 186.02416 
L 338.695631 186.185552 
L 338.996641 185.855732 
L 339.899674 187.123578 
L 340.200685 187.160998 
L 340.501696 187.022993 
L 340.802707 187.612471 
L 341.103718 187.497834 
L 341.404729 188.000778 
L 341.70574 187.923581 
L 342.00675 188.384389 
L 342.909783 188.599611 
L 343.511805 189.086145 
L 344.113827 189.0955 
L 344.414838 189.336448 
L 344.715849 189.792578 
L 345.01686 189.614815 
L 345.31787 189.95399 
L 345.919892 190.272116 
L 346.220903 190.583226 
L 346.521914 190.42885 
L 346.822925 190.683811 
L 347.123936 190.587903 
L 347.424947 190.807803 
L 347.725958 191.245223 
L 348.026969 191.025344 
L 348.327979 191.640547 
L 349.231012 192.18323 
L 349.532023 192.187908 
L 349.833034 191.956334 
L 350.435056 192.828857 
L 350.736067 192.662768 
L 351.037078 192.244057 
L 351.338089 192.82418 
L 351.639099 192.882648 
L 351.94011 192.627687 
L 352.241121 193.242891 
L 352.542132 192.983233 
L 353.144154 193.621843 
L 353.445165 193.444061 
L 353.746176 193.982066 
L 354.047187 194.258095 
L 354.348198 194.040554 
L 354.649209 194.4312 
L 354.950219 194.361019 
L 356.154263 195.006645 
L 358.56235 195.869793 
L 358.863361 195.724773 
L 359.164372 194.700193 
L 359.465383 195.172715 
L 359.766394 195.427695 
L 360.368416 195.645236 
L 360.970438 196.183242 
L 361.271448 196.262778 
L 361.572459 196.07798 
L 361.87347 196.176226 
L 362.174481 196.517759 
L 362.475492 195.743482 
L 363.077514 196.033544 
L 363.378525 196.557517 
L 363.679536 196.4429 
L 363.980547 196.627699 
L 364.281558 196.470965 
L 364.582569 196.587921 
L 364.88358 196.927115 
L 365.184591 196.723606 
L 365.786613 197.053426 
L 366.388635 197.086168 
L 366.689646 196.903728 
L 366.990657 197.252257 
L 367.291668 197.067458 
L 367.592679 195.979733 
L 367.89369 196.51542 
L 368.495712 196.959857 
L 368.796723 197.329455 
L 369.097733 197.144656 
L 369.398744 197.352842 
L 369.699755 197.355181 
L 370.000766 193.465109 
L 370.301777 195.720095 
L 370.602788 195.331788 
L 370.903799 195.991427 
L 371.20481 196.321266 
L 371.505821 196.861611 
L 372.107843 197.072136 
L 372.408854 197.172721 
L 372.709865 197.537641 
L 373.010876 197.408991 
L 373.311887 197.806654 
L 373.612898 197.63121 
L 373.913909 197.63121 
L 374.21492 197.495524 
L 374.515931 197.614839 
L 374.816942 197.9774 
L 375.117953 196.143484 
L 375.418964 195.385578 
L 375.719975 195.196102 
L 376.020986 196.55284 
L 376.924019 197.408991 
L 378.128063 198.12478 
L 378.429074 198.038227 
L 378.730085 197.455766 
L 379.332107 198.555184 
L 379.633118 198.538813 
L 380.536151 198.821858 
L 380.837162 197.385584 
L 381.439184 198.185587 
L 382.041206 198.52712 
L 382.342216 198.938814 
L 382.643227 200.321278 
L 382.944238 200.309584 
L 383.245249 196.524775 
L 383.54626 197.231209 
L 384.449293 197.9049 
L 385.051315 198.239397 
L 385.352326 197.423024 
L 385.653337 196.234714 
L 385.954348 197.614839 
L 386.255359 198.021856 
L 386.55637 195.946991 
L 387.158392 197.259273 
L 387.459403 196.440561 
L 387.760414 197.193769 
L 388.663447 197.961029 
L 388.964458 198.204316 
L 389.56648 198.024195 
L 390.168502 198.531797 
L 390.469513 198.842907 
L 390.770524 198.644076 
L 391.071535 199.45811 
L 391.372546 199.341154 
L 391.673557 198.973895 
L 391.974568 199.467465 
L 392.57659 199.86045 
L 392.877601 198.61835 
L 393.178612 198.791435 
L 393.479623 197.086168 
L 393.780634 197.638226 
L 394.081645 195.692011 
L 394.382656 197.172721 
L 395.285689 198.840568 
L 395.586699 198.611333 
L 396.790743 199.324783 
L 397.091754 199.818353 
L 397.392765 199.745833 
L 397.693776 200.068636 
L 397.994787 199.25694 
L 398.295798 199.745833 
L 398.596809 199.867466 
L 399.198831 200.328294 
L 399.499842 200.496702 
L 399.800853 201.285011 
L 400.101864 201.163377 
L 400.402875 201.46981 
L 400.703886 201.472148 
L 401.004897 201.097873 
L 401.305908 201.654609 
L 401.606919 201.647592 
L 401.90793 201.85344 
L 402.208941 201.640576 
L 402.509952 201.993783 
L 402.810963 201.823036 
L 403.412985 202.197292 
L 403.713996 202.000799 
L 404.91804 202.566889 
L 405.219051 201.939992 
L 405.520062 202.031222 
L 406.122084 200.908417 
L 406.423095 201.965718 
L 407.326128 202.410175 
L 407.627139 202.672152 
L 407.92815 202.251102 
L 408.229161 202.765721 
L 408.530172 201.85344 
L 408.831183 201.778581 
L 409.132193 202.379752 
L 409.433204 202.517776 
L 409.734215 202.220699 
L 410.035226 202.445256 
L 410.336237 202.987939 
L 410.637248 202.9131 
L 410.938259 203.324795 
L 411.841292 203.493203 
L 412.142303 203.11427 
L 412.443314 202.433562 
L 412.744325 203.109592 
L 413.346347 203.603143 
L 413.647358 203.350521 
L 413.948369 203.970402 
L 414.24938 203.869817 
L 414.550391 203.902559 
L 414.851402 204.089696 
L 415.152413 200.882671 
L 415.754435 202.475659 
L 416.055446 198.842907 
L 416.356457 201.476826 
L 416.657468 201.738822 
L 416.958479 202.183259 
L 417.25949 202.003138 
L 417.560501 202.052271 
L 418.162523 202.941165 
L 418.463534 203.177416 
L 418.764545 202.934148 
L 419.065556 202.976246 
L 419.366567 203.217194 
L 419.667578 203.649937 
L 419.968589 200.630049 
L 420.2696 201.975073 
L 420.871622 202.445256 
L 421.172633 201.373902 
L 422.075666 202.744672 
L 422.677687 203.212516 
L 422.978698 202.938826 
L 423.58072 203.182093 
L 423.881731 203.263968 
L 424.182742 203.624211 
L 424.483753 203.500219 
L 425.085775 204.169233 
L 425.386786 204.005483 
L 425.988808 203.373908 
L 426.289819 203.82772 
L 426.59083 203.876833 
L 426.891841 204.08268 
L 427.192852 203.853446 
L 427.493863 204.162217 
L 427.794874 204.026551 
L 428.095885 204.248769 
L 428.396896 203.692034 
L 428.697907 204.459294 
L 429.299929 204.740001 
L 429.60094 204.475665 
L 429.901951 204.803146 
L 430.202962 204.854618 
L 430.804984 205.081514 
L 431.105995 204.606673 
L 431.407006 205.226554 
L 431.708017 204.255785 
L 432.009028 204.368064 
L 432.310039 204.859295 
L 432.61105 204.506069 
L 432.912061 203.876833 
L 433.213072 204.695545 
L 433.514083 204.590283 
L 433.815094 204.840585 
L 434.116105 204.772743 
L 434.718127 205.263974 
L 435.320149 205.285022 
L 435.92217 205.701395 
L 436.223181 204.508427 
L 436.524192 205.111937 
L 437.126214 205.56339 
L 437.728236 205.488531 
L 438.029247 203.142335 
L 438.330258 194.569205 
L 438.631269 197.830041 
L 438.93228 194.208982 
L 439.233291 196.55284 
L 439.534302 195.776225 
L 439.835313 195.755176 
L 441.039357 197.666291 
L 441.340368 198.28851 
L 441.641379 197.469798 
L 441.94239 198.534136 
L 442.243401 198.96454 
L 442.544412 199.027706 
L 442.845423 199.490852 
L 443.146434 199.666296 
L 443.447445 198.304901 
L 443.748456 188.302533 
L 444.049467 192.53178 
L 444.9525 195.851084 
L 445.253511 196.810159 
L 445.554522 194.452249 
L 445.855533 195.996104 
L 446.156544 196.283827 
L 446.457555 197.212499 
L 447.059577 198.075647 
L 447.360588 198.281494 
L 448.263621 199.561034 
L 448.564632 199.692022 
L 448.865643 199.416013 
L 449.166653 198.148167 
L 450.069686 199.86045 
L 450.370697 199.490852 
L 450.671708 198.620688 
L 450.972719 199.523614 
L 451.27373 199.84174 
L 451.875752 199.888515 
L 452.176763 200.339988 
L 452.477774 200.237064 
L 452.778785 200.838235 
L 453.079796 201.125958 
L 453.380807 201.144668 
L 453.982829 201.397289 
L 454.28384 201.254607 
L 455.788895 202.190276 
L 456.089906 202.557535 
L 456.691928 202.6207 
L 456.992939 202.938826 
L 457.29395 202.943503 
L 458.196983 203.458122 
L 458.497994 203.411347 
L 458.799005 203.932982 
L 459.401027 203.366892 
L 459.702038 203.390279 
L 460.003049 203.642921 
L 460.30406 202.758705 
L 460.906082 203.58911 
L 461.508104 203.977418 
L 462.110126 203.710763 
L 462.411136 204.078003 
L 462.712147 203.930643 
L 463.013158 204.024212 
L 463.314169 203.102557 
L 463.61518 202.742333 
L 463.916191 197.556351 
L 464.217202 199.808998 
L 464.819224 201.327128 
L 465.120235 200.576239 
L 465.421246 200.962207 
L 465.722257 201.535314 
L 466.023268 201.70608 
L 466.324279 202.232392 
L 467.227312 202.71193 
L 467.829334 203.409009 
L 468.130345 203.476832 
L 468.431356 203.841752 
L 468.732367 203.867478 
L 469.334389 204.166894 
L 469.6354 204.164555 
L 469.936411 204.41252 
L 470.538433 204.347016 
L 470.839444 204.417197 
L 471.140455 204.281511 
L 471.742477 204.847602 
L 472.64551 205.020707 
L 472.946521 205.565729 
L 473.247532 205.207844 
L 474.150565 205.397301 
L 474.451576 205.52597 
L 475.053598 205.986788 
L 476.859663 206.279179 
L 477.160674 206.145851 
L 477.461685 206.419532 
L 478.063707 206.372747 
L 478.364718 206.793807 
L 478.665729 206.899069 
L 478.96674 206.777426 
L 479.267751 206.417193 
L 480.170784 207.186792 
L 480.471795 204.810182 
L 480.772806 205.56339 
L 481.073817 206.012514 
L 481.374828 205.958714 
L 481.675839 206.248775 
L 481.97685 206.244098 
L 482.277861 205.278006 
L 482.578872 205.27099 
L 483.180894 206.194975 
L 483.782916 206.620702 
L 484.083927 206.674502 
L 484.384938 205.881516 
L 484.685949 205.872161 
L 484.98696 206.063976 
L 485.287971 203.724796 
L 485.588982 205.030062 
L 485.889993 205.303732 
L 486.191004 204.826553 
L 486.492015 200.66513 
L 486.793026 200.496702 
L 487.094037 198.985589 
L 487.696059 189.773869 
L 487.99707 188.669773 
L 488.298081 189.666267 
L 488.599092 192.22067 
L 488.900103 190.445221 
L 489.201113 193.004301 
L 489.803135 195.039388 
L 490.104146 195.65693 
L 490.405157 196.667457 
L 490.706168 197.182076 
L 491.007179 196.244069 
L 491.30819 174.321203 
L 491.609201 185.233512 
L 491.910212 185.121234 
L 492.211223 187.289648 
L 492.512234 177.507179 
L 492.813245 183.680282 
L 493.114256 181.17969 
L 493.415267 185.212464 
L 494.3183 189.05808 
L 494.619311 190.110724 
L 494.920322 189.963345 
L 496.124366 193.415996 
L 496.425377 182.178524 
L 496.726388 187.858077 
L 497.027399 189.282637 
L 497.930432 191.89083 
L 498.231443 192.12944 
L 498.532456 192.929442 
L 498.833467 187.320071 
L 499.134478 190.75867 
L 500.03751 193.647569 
L 500.338521 193.942308 
L 500.639532 194.456926 
L 500.940542 192.124762 
L 501.241553 193.893175 
L 501.542564 193.343476 
L 501.843575 186.765674 
L 502.144586 190.11774 
L 502.445597 191.661596 
L 502.746607 192.529441 
L 503.348629 193.322427 
L 503.64964 194.246402 
L 504.251662 194.562189 
L 504.552672 195.224187 
L 504.853683 195.245235 
L 505.455705 196.201952 
L 505.756716 196.562195 
L 506.057727 187.539951 
L 506.358738 190.94113 
L 506.659748 193.032366 
L 506.960759 189.151649 
L 507.26177 192.407807 
L 507.562781 193.946985 
L 508.164802 195.214832 
L 508.465813 186.412467 
L 508.766824 191.589076 
L 509.067835 192.924765 
L 509.368846 193.380895 
L 509.970867 194.983239 
L 510.271878 195.294348 
L 510.8739 196.208988 
L 511.776933 197.270967 
L 512.077943 197.77623 
L 512.679965 198.218348 
L 512.980976 198.447583 
L 513.582998 199.233553 
L 514.185019 199.350509 
L 514.787041 199.766881 
L 515.088052 200.108414 
L 515.389062 198.604317 
L 515.991084 199.56805 
L 516.593106 200.021862 
L 516.894117 200.37273 
L 517.195127 200.44525 
L 517.496138 200.824203 
L 517.797149 200.861622 
L 518.09816 200.33531 
L 518.399171 200.899042 
L 518.700182 201.21251 
L 519.302203 201.21251 
L 519.603214 201.366886 
L 519.904225 201.965718 
L 520.205236 201.921283 
L 520.506247 202.288522 
L 520.807258 202.41953 
L 521.108268 202.332977 
L 521.409279 202.442917 
L 521.71029 202.721285 
L 522.312312 202.9131 
L 522.914333 203.299049 
L 523.215344 203.308424 
L 523.516355 203.685018 
L 523.817366 203.663969 
L 524.118377 203.99145 
L 524.419388 203.923627 
L 524.720398 204.237076 
L 525.021409 204.253447 
L 525.32242 204.856957 
L 526.225453 204.84994 
L 526.827474 205.128308 
L 527.128485 205.118953 
L 527.429496 205.575084 
L 527.730507 205.451111 
L 528.332528 204.826553 
L 528.633539 204.835908 
L 529.235561 205.752866 
L 529.536572 205.621878 
L 529.837583 205.656959 
L 530.138593 205.94702 
L 530.740615 204.711936 
L 531.041626 204.164555 
L 531.643647 204.931816 
L 531.944658 204.866311 
L 532.245669 203.661631 
L 532.54668 204.227721 
L 532.847691 204.37508 
L 533.148702 204.718952 
L 533.449713 204.386774 
L 533.750723 195.881487 
L 534.051734 200.213677 
L 534.653756 194.842895 
L 534.954767 197.406652 
L 535.556788 199.766881 
L 536.15881 200.831219 
L 536.459821 200.931804 
L 537.061843 202.262796 
L 537.362853 202.028884 
L 537.663864 202.106081 
L 537.964875 202.721285 
L 538.265886 202.573906 
L 538.566897 203.088524 
L 539.168918 203.418363 
L 539.469929 203.33415 
L 539.77094 203.074492 
L 540.071951 201.219526 
L 540.372962 202.288522 
L 541.577005 204.150523 
L 542.179027 204.080342 
L 542.480038 203.521287 
L 542.781048 203.20548 
L 543.082059 198.262784 
L 543.38307 200.489686 
L 543.684081 196.070963 
L 543.985092 198.67214 
L 544.286103 199.869805 
L 544.587113 200.246419 
L 544.888124 199.235892 
L 545.189135 199.547002 
L 545.490146 200.307246 
L 545.791157 200.487347 
L 546.092168 200.449928 
L 546.393178 201.182087 
L 546.694189 201.535314 
L 546.9952 201.051099 
L 547.597222 202.192614 
L 547.898233 202.169227 
L 548.500254 202.952858 
L 548.801265 203.086185 
L 549.102276 203.525965 
L 550.005308 203.88151 
L 550.306319 204.218366 
L 550.60733 204.166894 
L 550.908341 203.778587 
L 551.510363 204.190281 
L 551.811373 203.830058 
L 552.112384 194.456926 
L 552.413395 199.584421 
L 552.714406 200.267468 
L 553.015417 198.218348 
L 553.316428 200.173899 
L 553.617438 194.010151 
L 553.918449 198.148167 
L 554.21946 199.088513 
L 554.520471 199.299037 
L 554.821482 199.210166 
L 555.122493 199.853434 
L 555.423503 199.67799 
L 555.724514 199.902547 
L 556.326536 200.833558 
L 556.627547 200.93882 
L 557.83159 202.199631 
L 558.132601 201.282672 
L 558.734623 202.227715 
L 559.035633 202.375074 
L 559.336644 202.721285 
L 559.637655 202.616022 
L 559.938666 202.723624 
L 560.239677 201.582088 
L 560.540688 202.12713 
L 560.841698 202.384429 
L 561.142709 202.812515 
L 561.44372 202.260457 
L 561.744731 202.903725 
L 562.045742 202.992617 
L 562.346753 203.47917 
L 562.647763 203.685018 
L 562.948774 204.246431 
L 563.851807 204.045261 
L 564.152818 204.37508 
L 564.453828 204.520121 
L 564.754839 204.922461 
L 565.05585 205.125969 
L 565.356861 202.564551 
L 565.657872 204.094374 
L 565.958883 204.204314 
L 566.259893 200.365714 
L 566.560904 202.293199 
L 566.861915 202.216021 
L 567.162926 200.707247 
L 567.463937 202.169227 
L 567.764948 202.992617 
L 568.065958 202.908422 
L 568.66798 203.865139 
L 568.968991 203.299049 
L 569.571013 203.930643 
L 569.872023 203.97274 
L 570.474045 204.48502 
L 570.775056 204.606673 
L 571.076067 204.48502 
L 571.377078 204.84994 
L 571.678088 204.714274 
L 571.979099 204.903731 
L 572.28011 205.366898 
L 572.581121 205.123631 
L 572.882132 205.19847 
L 573.183143 205.458128 
L 573.484153 205.273329 
L 573.785164 205.406656 
L 574.086175 205.813683 
L 574.387186 205.743511 
L 574.688197 205.809006 
L 574.989208 205.572745 
L 575.290218 205.989127 
L 575.591229 205.523632 
L 575.89224 200.604303 
L 576.193251 202.594954 
L 576.494262 200.777409 
L 576.795273 202.765721 
L 577.096283 203.565723 
L 577.397294 202.597293 
L 577.999316 204.46631 
L 578.300327 204.79613 
L 578.601338 204.90607 
L 579.203359 204.819537 
L 579.805381 205.748189 
L 580.106392 205.722463 
L 580.708413 206.173916 
L 581.009424 205.886203 
L 581.611446 206.620702 
L 581.912457 206.499068 
L 582.213468 206.527133 
L 582.815489 206.945854 
L 583.1165 205.645265 
L 583.417511 205.787957 
L 583.718522 204.166894 
L 584.019533 205.722463 
L 584.320543 206.227717 
L 584.621554 206.405499 
L 584.922565 204.800807 
L 585.223576 200.945836 
L 585.524587 203.872155 
L 586.126608 205.451111 
L 586.427619 203.13298 
L 586.72863 203.865139 
L 587.029641 204.927138 
L 587.330652 202.95052 
L 587.631663 204.541169 
L 587.932673 204.538831 
L 588.233684 204.676835 
L 588.534695 205.547019 
L 589.136717 206.031224 
L 589.437728 204.821876 
L 590.039749 205.78328 
L 590.34076 206.466316 
L 590.641771 206.536498 
L 591.243793 207.034745 
L 591.845814 207.554041 
L 592.447836 206.938838 
L 593.350868 207.75755 
L 593.651879 207.673336 
L 593.95289 208.045272 
L 594.554912 208.054627 
L 594.855923 208.431231 
L 595.758955 208.173922 
L 596.962998 209.048783 
L 597.264009 208.924801 
L 597.56502 208.623046 
L 597.866031 209.289721 
L 598.167042 209.07217 
L 598.769063 209.254631 
L 599.371085 209.652293 
L 599.672096 209.051122 
L 601.17715 209.848786 
L 601.478161 209.638261 
L 601.779172 209.958725 
L 602.080183 210.042939 
L 602.983215 210.737679 
L 603.284226 210.258142 
L 603.585237 210.379775 
L 603.886248 209.935338 
L 604.187258 209.827727 
L 605.090291 210.576268 
L 605.692313 210.48036 
L 605.993323 210.873345 
L 606.294334 211.060483 
L 606.595345 211.392651 
L 606.896356 211.411361 
L 607.197367 211.205513 
L 607.498378 211.612531 
L 607.799388 211.563408 
L 608.100399 211.806684 
L 608.40141 211.582117 
L 608.702421 211.713116 
L 609.003432 213.559434 
L 609.304443 213.80271 
L 609.605454 213.381661 
L 609.906464 213.348909 
L 610.508486 213.484584 
L 610.809497 214.00388 
L 611.110508 213.898618 
L 611.411519 214.415585 
L 611.712529 214.090433 
L 612.01354 213.994525 
L 612.314551 214.13254 
L 612.615562 213.95008 
L 612.916573 214.558267 
L 613.217583 214.635465 
L 613.819605 214.562945 
L 614.120616 214.948913 
L 614.722638 214.427279 
L 615.023648 214.836635 
L 615.324659 214.878742 
L 615.926681 215.30213 
L 616.227692 215.334882 
L 616.528703 215.571143 
L 617.130724 215.440145 
L 617.431735 215.52202 
L 618.033757 215.419096 
L 618.334768 215.819097 
L 618.635779 215.557101 
L 618.936789 215.805055 
L 619.538811 215.802716 
L 619.839822 216.406226 
L 620.140833 215.81441 
L 620.441843 212.275226 
L 620.742854 213.068212 
L 621.043865 212.829613 
L 621.946898 212.955924 
L 622.247909 213.086922 
L 622.548919 212.586336 
L 622.84993 212.65183 
L 623.150941 212.932536 
L 623.451952 212.845984 
L 623.752963 213.189846 
L 624.053974 213.285753 
L 624.354984 213.660019 
L 624.655995 213.578153 
L 624.957006 213.940725 
L 625.860039 214.22377 
L 626.161049 213.45651 
L 626.763071 214.13254 
L 627.064082 214.181663 
L 627.365093 214.609729 
L 627.666103 213.910312 
L 627.967114 214.364123 
L 628.268125 214.584003 
L 628.569136 214.403882 
L 629.171158 214.733711 
L 629.472169 214.483418 
L 629.773179 214.656513 
L 630.07419 215.117341 
L 630.375201 214.93722 
L 630.676212 215.089267 
L 631.278234 215.063531 
L 631.579244 214.962946 
L 631.880255 215.19219 
L 632.181266 215.196868 
L 632.482277 215.433128 
L 632.783288 215.227281 
L 633.084299 215.655347 
L 633.385309 215.844823 
L 633.68632 215.592191 
L 633.987331 216.045993 
L 634.288342 215.851839 
L 634.589353 215.872898 
L 634.890364 216.104471 
L 635.191375 216.003886 
L 635.492386 216.207395 
L 635.793397 215.980499 
L 636.094408 216.49044 
L 636.395418 216.322022 
L 636.99744 216.317345 
L 637.298451 216.637809 
L 637.599462 216.357103 
L 637.900473 216.403887 
L 638.201484 216.244824 
L 638.803506 215.243652 
L 639.104517 215.690438 
L 639.405528 215.936053 
L 640.007549 214.853006 
L 640.30856 215.384005 
L 640.609571 215.288098 
L 640.910582 215.653008 
L 641.211593 215.461193 
L 641.512604 215.99687 
L 641.813615 215.475235 
L 642.114626 215.907979 
L 642.415637 214.822602 
L 642.716647 215.456516 
L 643.017658 215.458854 
L 643.318669 215.821436 
L 643.61968 215.227281 
L 643.920691 215.486929 
L 644.221702 213.187507 
L 644.522713 214.331371 
L 644.823724 214.82728 
L 645.124735 212.191012 
L 645.425746 213.578153 
L 645.726757 213.723184 
L 646.027767 214.291603 
L 646.629789 214.427279 
L 647.231811 214.20505 
L 647.532822 213.267043 
L 647.833833 213.264705 
L 648.134844 206.406197 
L 648.435855 206.263515 
L 649.037877 208.495094 
L 649.338887 209.571125 
L 649.639898 209.129017 
L 649.940909 210.102115 
L 650.24192 210.258839 
L 650.542931 209.826096 
L 650.843942 210.382821 
L 651.144953 210.460009 
L 651.746975 211.276392 
L 652.047986 211.005041 
L 652.348996 211.437794 
L 652.650007 210.16528 
L 653.252029 211.547734 
L 654.155062 211.929025 
L 654.456073 212.024933 
L 654.757084 212.810893 
L 655.058095 212.693937 
L 655.359106 211.676394 
L 655.961127 212.675227 
L 656.262138 212.757092 
L 656.563149 212.976982 
L 656.86416 212.993353 
L 657.165171 213.34657 
L 657.466182 211.690426 
L 657.767193 208.04597 
L 658.068204 209.833112 
L 658.369215 210.371128 
L 658.670225 209.400359 
L 658.971236 192.102063 
L 659.272247 196.307922 
L 659.573258 195.477516 
L 659.874269 187.161706 
L 660.17528 189.772237 
L 660.476291 194.565235 
L 660.777302 196.333667 
L 661.680335 199.606177 
L 661.981345 196.937177 
L 662.282356 199.477528 
L 662.583367 200.403841 
L 662.884378 194.083359 
L 663.787411 200.815536 
L 664.088422 201.73953 
L 664.389433 201.645961 
L 664.690444 202.834271 
L 664.991455 203.367599 
L 665.292465 202.54421 
L 665.894487 204.26117 
L 666.195498 204.906777 
L 666.496509 200.523136 
L 666.79752 203.67637 
L 667.098531 204.455324 
L 667.399542 202.347717 
L 667.700553 203.671693 
L 668.001564 198.721961 
L 668.603585 198.270508 
L 668.904596 194.569913 
L 669.205607 197.905588 
L 669.506618 182.445905 
L 669.807629 187.028378 
L 670.10864 188.420177 
L 670.409651 184.955852 
L 670.710662 189.959375 
L 671.312684 193.026037 
L 671.613694 192.902065 
L 672.817738 196.902077 
L 673.118749 197.367582 
L 673.720771 199.339523 
L 674.021782 199.861158 
L 674.322793 199.996824 
L 674.623803 201.199166 
L 675.827847 203.131329 
L 676.128858 203.561753 
L 676.429869 203.550059 
L 676.73088 199.405007 
L 677.031891 202.155902 
L 677.332902 197.070504 
L 677.633913 200.58864 
L 678.536945 202.881046 
L 678.837956 202.874029 
L 679.138967 202.988647 
L 679.439978 203.578124 
L 679.740989 191.372242 
L 680.042 197.985124 
L 680.644022 200.677531 
L 680.945033 200.58864 
L 681.246043 200.665837 
L 681.547054 199.313777 
L 681.848065 201.196827 
L 682.149076 202.144209 
L 682.751098 202.934856 
L 683.052109 203.510281 
L 683.35312 203.650644 
L 683.654131 204.221392 
L 683.955142 204.219054 
L 684.256152 203.926654 
L 684.858174 205.026072 
L 685.159185 205.447142 
L 685.460196 205.61555 
L 685.761207 206.226085 
L 686.062218 205.136032 
L 686.363229 200.906766 
L 686.66424 202.663505 
L 686.965251 201.912616 
L 687.266262 203.180462 
L 687.567272 203.678709 
L 687.868283 199.865835 
L 688.169294 201.833099 
L 688.470305 200.600333 
L 688.771316 194.020193 
L 689.072327 198.190972 
L 689.373338 200.074021 
L 689.97536 201.601506 
L 690.276371 200.857652 
L 690.577381 201.858825 
L 690.878392 197.304417 
L 691.179403 183.285666 
L 691.480414 185.814323 
L 691.781425 189.514918 
L 692.082436 189.521934 
L 692.383447 190.415506 
L 692.985469 193.924286 
L 693.587491 195.676347 
L 693.888501 196.0553 
L 694.189512 195.702073 
L 694.490523 196.939516 
L 694.791534 197.496232 
L 695.092545 192.378092 
L 695.393556 195.493887 
L 695.694567 195.182777 
L 696.296589 196.546531 
L 696.89861 192.160551 
L 697.199621 195.334834 
L 697.801643 197.451796 
L 698.403665 196.902077 
L 698.704676 189.159373 
L 699.005687 194.120778 
L 699.306698 195.92663 
L 699.90872 177.559339 
L 700.20973 183.58976 
L 700.510741 186.864628 
L 701.112763 190.174577 
L 701.413774 187.61082 
L 702.015796 191.376919 
L 702.316807 192.167567 
L 702.617818 192.116095 
L 702.918829 193.447107 
L 703.21984 194.057633 
L 703.52085 195.276346 
L 703.821861 194.443602 
L 704.423883 196.261147 
L 704.724894 196.663487 
L 705.025905 196.724294 
L 705.326916 197.229558 
L 705.627927 197.2974 
L 705.928938 197.80968 
L 706.229949 197.893894 
L 706.83197 198.850631 
L 707.433992 199.447124 
L 707.735003 199.540693 
L 708.036014 195.858807 
L 708.337025 197.779277 
L 708.638036 198.7243 
L 708.939047 198.733674 
L 709.541069 199.898577 
L 709.842079 200.284546 
L 710.14309 200.29624 
L 710.444101 199.872851 
L 710.745112 200.214365 
L 711.046123 199.157063 
L 711.347134 200.630737 
L 711.648145 197.762906 
L 711.949156 199.236599 
L 712.250167 200.125473 
L 712.551178 200.036602 
L 713.153199 201.318461 
L 713.45421 198.932506 
L 713.755221 200.307933 
L 714.056232 200.796826 
L 714.357243 197.105585 
L 714.658254 199.638939 
L 714.959265 200.16759 
L 715.260276 183.194436 
L 715.561287 189.503225 
L 715.862298 190.235404 
L 716.163308 189.957036 
L 716.464319 193.061138 
L 717.066341 195.395641 
L 717.668363 197.475183 
L 717.969374 194.438924 
L 718.270385 197.028388 
L 718.571396 197.601494 
L 718.872407 198.551214 
L 719.775439 200.293901 
L 720.07645 200.006178 
L 720.377461 200.665837 
L 720.678472 200.778116 
L 720.979483 201.423723 
L 721.280494 201.608522 
L 721.581505 201.220214 
L 721.882516 201.718462 
L 722.183527 201.861163 
L 722.484537 202.485722 
L 723.086559 202.628404 
L 723.38757 203.23895 
L 723.688581 203.173446 
L 724.290603 203.795665 
L 724.591614 202.581629 
L 724.892625 203.313789 
L 725.193636 203.683387 
L 725.494647 203.470523 
L 726.096668 203.978125 
L 726.69869 204.799176 
L 726.999701 204.148892 
L 727.300712 205.117302 
L 728.504756 205.021395 
L 729.407788 204.897422 
L 729.708799 205.089238 
L 730.00981 204.998007 
L 730.310821 205.306779 
L 730.611832 205.367605 
L 730.912843 205.587485 
L 731.213854 206.18164 
L 731.514865 205.617888 
L 731.815876 206.289241 
L 732.116886 206.544212 
L 732.417897 206.247134 
L 732.718908 204.703269 
L 733.621941 205.692747 
L 733.922952 205.526658 
L 734.223963 203.557076 
L 734.524974 203.67637 
L 734.825985 204.569942 
L 735.126996 205.075205 
L 735.428006 205.044802 
L 735.729017 203.112619 
L 736.030028 203.964093 
L 736.331039 203.82373 
L 736.933061 204.546554 
L 737.234072 204.714962 
L 737.836094 205.538372 
L 738.137105 195.386286 
L 738.438115 195.325459 
L 738.739126 188.509069 
L 739.040137 196.14653 
L 739.341148 196.920787 
L 739.642159 193.610837 
L 739.94317 193.096219 
L 740.244181 187.306726 
L 740.846203 192.310249 
L 741.147214 187.093863 
L 741.448225 188.995622 
L 741.749235 164.859887 
L 742.050246 177.213129 
L 742.351257 181.358181 
L 742.652268 173.231846 
L 742.953279 178.497346 
L 743.555301 183.786252 
L 744.157323 187.262291 
L 744.458334 187.528964 
L 744.759344 189.133647 
L 745.060355 190.003811 
L 745.361366 190.427199 
L 745.662377 191.935993 
L 745.963388 192.726621 
L 746.264399 193.068154 
L 746.866421 194.455295 
L 748.070464 197.110263 
L 748.371475 196.916109 
L 748.672486 197.547703 
L 748.973497 198.495065 
L 749.274508 197.033085 
L 749.575519 198.270508 
L 749.87653 198.602666 
L 750.177541 199.201499 
L 750.478552 198.038935 
L 751.381584 200.36876 
L 751.983606 201.096242 
L 752.585628 201.39332 
L 752.886639 199.220209 
L 753.18765 200.930153 
L 753.488661 199.758234 
L 753.789672 201.229569 
L 754.090683 198.438936 
L 754.391693 200.675192 
L 754.692704 201.089226 
L 754.993715 200.766422 
L 755.294726 200.195655 
L 755.595737 198.7243 
L 755.896748 200.572269 
L 756.197759 199.928981 
L 756.49877 200.457651 
L 756.799781 201.372271 
L 757.100792 199.989807 
L 757.401803 201.610861 
L 757.702813 202.485722 
L 758.003824 202.869352 
L 758.304835 201.521969 
L 758.605846 202.373443 
L 758.906857 198.787465 
L 759.508879 188.810823 
L 759.80989 192.031901 
L 760.110901 187.435396 
L 760.411912 191.769904 
L 760.712922 193.337167 
L 761.314944 195.386286 
L 761.615955 195.512597 
L 761.916966 181.875138 
L 762.217977 188.008482 
L 762.518988 186.347671 
L 762.819999 190.013166 
L 763.422021 192.916097 
L 763.723032 190.712583 
L 764.024042 193.248276 
L 764.325053 194.431908 
L 764.626064 192.43658 
L 764.927075 194.291545 
L 765.228086 195.222536 
L 765.529097 195.056466 
L 765.830108 194.08102 
L 766.43213 196.588628 
L 767.034151 197.971092 
L 767.335162 196.022538 
L 767.636173 197.868168 
L 768.840217 199.917287 
L 769.442236 200.605011 
L 769.743247 200.637773 
L 770.044258 200.838943 
L 770.345269 201.262331 
L 770.64628 198.424884 
L 770.947291 199.386298 
L 771.248302 199.430733 
L 771.549313 200.750051 
L 771.850324 201.185133 
L 772.151335 200.937189 
L 772.753357 202.555903 
L 773.054368 200.647128 
L 773.656389 202.663505 
L 773.9574 199.049462 
L 774.258411 202.006184 
L 774.559422 202.478706 
L 774.860433 203.416713 
L 776.064477 204.51847 
L 776.365488 203.884557 
L 776.666499 204.548893 
L 776.96751 204.736031 
L 777.569531 205.734854 
L 777.870542 205.966438 
L 778.171553 205.833101 
L 778.472564 206.378132 
L 778.773575 206.338364 
L 779.074586 206.733688 
L 779.375597 204.237783 
L 779.676608 205.519642 
L 779.977619 203.943044 
L 780.27863 205.557081 
L 780.880652 195.697396 
L 781.482673 199.580451 
L 781.783684 198.373432 
L 782.084695 200.031905 
L 782.686717 201.910277 
L 782.987728 201.695074 
L 783.288739 202.36175 
L 783.58975 198.799159 
L 783.890761 201.664671 
L 784.191772 202.527819 
L 784.492783 201.971103 
L 784.793793 203.306773 
L 785.094804 200.518458 
L 785.395815 202.79917 
L 785.997837 203.893911 
L 786.298848 203.64129 
L 786.599859 201.596828 
L 786.90087 202.759412 
L 787.201881 202.990985 
L 787.803903 204.560587 
L 788.104914 205.180468 
L 788.405925 204.92081 
L 788.706936 205.238955 
L 789.007946 205.732506 
L 789.609968 203.992158 
L 789.910979 205.143048 
L 790.513001 206.176962 
L 790.814012 203.781633 
L 791.115023 205.676376 
L 791.416034 206.198011 
L 791.717045 206.221408 
L 792.319067 207.157076 
L 792.620078 206.317316 
L 792.921088 206.628425 
L 793.222099 206.633103 
L 793.52311 205.996841 
L 793.824121 207.068195 
L 794.125132 207.634275 
L 794.426143 207.671705 
L 794.727154 208.345386 
L 795.329176 208.810881 
L 795.630187 207.521996 
L 796.232209 194.223702 
L 796.53322 196.84127 
L 796.83423 196.352377 
L 797.135241 189.34651 
L 797.436252 188.001466 
L 797.737263 193.220191 
L 798.640296 197.695063 
L 798.941307 198.333673 
L 799.242318 197.966414 
L 799.543329 198.602666 
L 799.84434 195.400318 
L 800.145351 198.153552 
L 800.446362 199.058817 
L 800.747372 197.42605 
L 801.048383 194.216686 
L 801.349394 196.396813 
L 801.650405 197.477522 
L 801.951416 199.124301 
L 802.252427 191.945348 
L 802.553438 196.843609 
L 803.15546 199.468173 
L 803.456471 199.83777 
L 803.757482 199.470511 
L 804.660514 201.989813 
L 805.262536 197.840103 
L 805.563547 187.192109 
L 805.864558 192.321943 
L 806.165569 194.55588 
L 806.46658 189.666975 
L 806.767591 181.662274 
L 807.068602 191.105568 
L 807.670624 195.147696 
L 807.971635 196.03659 
L 808.272646 196.270502 
L 808.874667 198.233088 
L 809.476689 199.596822 
L 810.379722 202.79917 
L 810.680733 197.959398 
L 810.981744 188.462294 
L 811.282755 196.766411 
L 811.884777 200.226058 
L 812.486798 201.28338 
L 813.08882 203.133687 
L 813.389831 203.376954 
L 813.991853 198.081032 
L 814.292864 197.926636 
L 814.593875 198.820207 
L 814.894886 201.664671 
L 815.195897 202.801509 
L 816.700951 206.207366 
L 817.001962 206.193333 
L 817.603984 206.98632 
L 817.904995 206.56527 
L 818.206006 206.336025 
L 818.808028 207.491583 
L 819.109039 193.60616 
L 819.41005 188.911408 
L 819.711061 194.597977 
L 820.012072 196.123123 
L 820.313082 196.565241 
L 821.216115 201.278702 
L 821.517126 202.0132 
L 821.818137 203.171107 
L 822.72117 204.476373 
L 823.323192 205.96176 
L 823.624203 206.34538 
L 823.925214 207.04012 
L 824.226225 203.60385 
L 824.527235 205.063511 
L 824.828246 205.854149 
L 825.129257 206.988658 
L 825.430268 207.023749 
L 825.731279 207.788661 
L 826.03229 206.626087 
L 826.333301 207.959417 
L 826.634312 207.568781 
L 826.935323 208.202694 
L 827.236334 208.394509 
L 827.537345 208.890418 
L 827.838356 209.114985 
L 828.139367 207.5524 
L 828.440377 207.856494 
L 828.741388 208.497433 
L 829.042399 203.510281 
L 829.34341 205.393331 
L 829.644421 202.972276 
L 829.945432 205.641295 
L 830.547454 200.111441 
L 830.848465 203.999174 
L 831.450487 206.354735 
L 832.353519 207.8448 
L 832.65453 207.096259 
L 833.256552 208.619076 
L 833.858574 209.458837 
L 834.159585 205.641295 
L 834.460596 207.805032 
L 834.761607 209.042465 
L 835.062618 209.140711 
L 835.363629 208.675216 
L 835.66464 209.718495 
L 836.266661 210.387499 
L 836.567672 209.077555 
L 836.868683 210.502116 
L 837.169694 210.705625 
L 837.771716 211.688087 
L 838.072727 211.688087 
L 838.373738 210.967621 
L 838.674749 211.430778 
L 838.97576 210.088083 
L 839.276771 211.55475 
L 839.577782 211.945397 
L 839.878793 209.78165 
L 840.179803 209.407375 
L 840.480814 210.827268 
L 840.781825 211.44481 
L 841.082836 211.676394 
L 841.383847 212.097443 
L 841.684858 212.038965 
L 841.985869 212.174641 
L 842.28688 211.727855 
L 842.888902 212.87172 
L 843.189913 213.129029 
L 843.490924 213.737216 
L 843.791935 213.863527 
L 844.092946 213.751249 
L 844.393956 213.861188 
L 844.694967 212.277565 
L 844.995978 213.900957 
L 845.296989 213.784001 
L 845.598 214.123185 
L 845.899011 213.996864 
L 846.200022 214.49745 
L 846.501033 214.490434 
L 846.802044 214.635465 
L 847.103055 215.070557 
L 847.404066 215.129035 
L 847.705077 215.674067 
L 848.006087 215.695115 
L 848.307098 214.782834 
L 848.608109 215.489268 
L 848.90912 215.292775 
L 849.210131 215.671728 
L 849.511142 215.042482 
L 849.812153 215.213239 
L 850.113164 215.587514 
L 851.016197 215.88693 
L 851.317208 215.784006 
L 851.618219 215.919682 
L 851.91923 215.267049 
L 852.22024 215.772313 
L 852.521251 215.863533 
L 852.822262 214.546573 
L 853.123273 215.615588 
L 853.725295 215.900962 
L 854.026306 214.137217 
L 854.327317 215.093944 
L 854.628328 215.655347 
L 854.929339 215.730206 
L 855.23035 215.681083 
L 855.531361 217.208567 
L 855.832372 215.971144 
L 856.133382 216.682255 
L 856.434393 216.731378 
L 856.735404 217.119686 
L 857.036415 217.084595 
L 857.337426 217.180502 
L 857.638437 216.345409 
L 857.939448 216.679916 
L 858.240459 216.810905 
L 858.54147 216.333716 
L 858.842481 216.354764 
L 859.143492 216.91149 
L 859.444503 217.07524 
L 859.745514 217.447167 
L 860.046524 217.292781 
L 860.347535 217.594536 
L 860.949557 217.64132 
L 861.250568 217.98986 
L 861.551579 217.940736 
L 861.85259 218.181675 
L 862.454612 218.410909 
L 862.755623 218.778168 
L 863.056634 218.553601 
L 863.357645 218.752432 
L 863.658656 218.651847 
L 863.959666 219.005064 
L 864.260677 218.984016 
L 864.561688 219.3232 
L 864.862699 218.364125 
L 865.16371 218.86706 
L 865.464721 219.033139 
L 866.066743 210.333698 
L 866.367754 211.430778 
L 866.668765 211.058842 
L 866.969776 211.713823 
L 867.270787 208.289247 
L 867.571798 211.194517 
L 867.872808 210.499777 
L 868.173819 211.447149 
L 868.47483 209.112646 
L 868.775841 205.638957 
L 869.076852 208.986325 
L 869.377863 186.396784 
L 869.678874 195.748867 
L 869.979885 198.343028 
L 870.280896 198.387464 
L 870.581907 193.82604 
L 870.882918 198.857647 
L 871.183929 200.700918 
L 871.48494 201.699752 
L 871.78595 201.779288 
L 872.086961 203.393325 
L 872.387972 204.027239 
L 872.688983 201.559409 
L 872.989994 195.507919 
L 873.291005 193.320776 
L 873.592016 198.268169 
L 873.893027 198.314944 
L 874.194038 200.633095 
L 875.097071 203.592157 
L 875.398081 194.534832 
L 876.000103 196.546531 
L 876.903136 202.534855 
L 877.204147 203.519636 
L 877.505158 200.885717 
L 877.806169 201.674026 
L 878.10718 201.933684 
L 878.408191 203.369938 
L 878.709202 202.976953 
L 879.010213 204.205021 
L 879.311223 204.897422 
L 879.612234 205.241294 
L 880.214256 206.764101 
L 880.515267 206.892751 
L 880.816278 207.592168 
L 881.117289 207.281058 
L 881.4183 208.212059 
L 881.719311 208.067028 
L 882.622344 208.895095 
L 882.923355 207.809709 
L 883.525376 209.393343 
L 885.030431 211.164114 
L 885.331442 211.292764 
L 885.632453 210.490423 
L 886.234475 211.55475 
L 886.535486 211.117329 
L 886.836497 211.699781 
L 887.137508 211.819086 
L 887.438518 211.437794 
L 887.739529 207.945385 
L 888.04054 210.752409 
L 888.341551 211.433117 
L 888.943573 211.858844 
L 889.244584 212.055336 
L 889.545595 211.568792 
L 889.846606 212.193351 
L 890.147617 211.713823 
L 890.448628 211.840134 
L 891.050649 212.752415 
L 891.35166 211.732533 
L 891.652671 211.681071 
L 891.953682 207.676382 
L 892.254693 209.554744 
L 892.555704 210.060008 
L 892.856715 210.991009 
L 893.458737 211.81206 
L 893.759748 209.241296 
L 894.060759 211.442472 
L 894.36177 211.900951 
L 894.662781 211.819086 
L 894.963792 211.564115 
L 895.264802 212.506799 
L 895.565813 212.144228 
L 895.866824 212.513825 
L 896.167835 213.316166 
L 896.468846 213.114997 
L 897.070868 213.954757 
L 897.371879 213.905634 
L 898.274912 214.806221 
L 898.575923 212.824935 
L 898.876934 213.117335 
L 899.177944 213.889263 
L 899.779966 214.759437 
L 900.381988 214.523186 
L 900.682999 215.180497 
L 900.98401 215.309146 
L 901.285021 215.725528 
L 901.887043 215.989854 
L 902.188054 213.185168 
L 902.489065 211.854166 
L 902.790076 199.32781 
L 903.091086 202.796832 
L 903.392097 198.736013 
L 903.693108 203.171107 
L 903.994119 199.898577 
L 904.29513 201.309106 
L 904.59614 198.092725 
L 904.897151 201.397997 
L 905.198162 194.911426 
L 905.499173 190.871656 
L 905.800184 192.347688 
L 906.101195 191.058793 
L 906.402206 195.786287 
L 906.703217 197.893894 
L 907.004228 196.07401 
L 907.305239 199.091559 
L 907.60625 200.44128 
L 907.907261 201.208521 
L 908.509283 203.259998 
L 909.111305 204.471695 
L 909.412316 205.454158 
L 909.713327 205.711457 
L 910.014338 206.293918 
L 910.315349 206.544212 
L 910.616359 207.154738 
L 910.91737 207.344214 
L 911.218381 207.821413 
L 911.519392 208.081061 
L 911.820403 208.183984 
L 912.121414 208.897434 
L 912.422425 209.063523 
L 912.723436 209.554744 
L 913.024447 209.732527 
L 913.626469 210.471713 
L 913.92748 210.445977 
L 914.228491 210.904456 
L 914.529502 210.661179 
L 914.830513 199.3091 
L 915.131524 200.651805 
L 915.432535 203.31145 
L 916.034557 205.620227 
L 916.335568 201.828402 
L 916.636579 204.743047 
L 916.93759 196.997984 
L 917.238601 185.068131 
L 917.539612 192.069321 
L 917.840623 185.961702 
L 917.840623 185.961702 
" clip-path="url(#p8fcd042e55)" style="fill: none; stroke: #1d4ed8; stroke-opacity: 0.95; stroke-width: 1.3; stroke-linecap: square"/>
   </g>
   <g id="patch_20">
    <path d="M 42.190938 228.954713 
L 42.190938 17.061433 
" style="fill: none; stroke: #cbd5e1; stroke-width: 0.8; stroke-linejoin: miter; stroke-linecap: square"/>
   </g>
   <g id="patch_21">
    <path d="M 935.353438 228.954713 
L 935.353438 17.061433 
" style="fill: none; stroke: #cbd5e1; stroke-width: 0.8; stroke-linejoin: miter; stroke-linecap: square"/>
   </g>
   <g id="patch_22">
    <path d="M 42.190938 228.954713 
L 935.353437 228.954713 
" style="fill: none; stroke: #cbd5e1; stroke-width: 0.8; stroke-linejoin: miter; stroke-linecap: square"/>
   </g>
   <g id="patch_23">
    <path d="M 42.190938 17.061433 
L 935.353437 17.061433 
" style="fill: none; stroke: #cbd5e1; stroke-width: 0.8; stroke-linejoin: miter; stroke-linecap: square"/>
   </g>
   <g id="text_17">
    <!-- ACC -->
    <g style="fill: #475569" transform="translate(124.241709 13.27875) scale(0.08 -0.08)">
     <defs>
      <path id="DejaVuSans-43" d="M 4122 4306 
L 4122 3641 
Q 3803 3938 3442 4084 
Q 3081 4231 2675 4231 
Q 1875 4231 1450 3742 
Q 1025 3253 1025 2328 
Q 1025 1406 1450 917 
Q 1875 428 2675 428 
Q 3081 428 3442 575 
Q 3803 722 4122 1019 
L 4122 359 
Q 3791 134 3420 21 
Q 3050 -91 2638 -91 
Q 1578 -91 968 557 
Q 359 1206 359 2328 
Q 359 3453 968 4101 
Q 1578 4750 2638 4750 
Q 3056 4750 3426 4639 
Q 3797 4528 4122 4306 
z
" transform="scale(0.015625)"/>
     </defs>
     <use xlink:href="#DejaVuSans-41"/>
     <use xlink:href="#DejaVuSans-43" transform="translate(66.658203 0)"/>
     <use xlink:href="#DejaVuSans-43" transform="translate(136.482422 0)"/>
    </g>
   </g>
   <g id="text_18">
    <!-- OC -->
    <g style="fill: #475569" transform="translate(232.658678 13.27875) scale(0.08 -0.08)">
     <defs>
      <path id="DejaVuSans-4f" d="M 2522 4238 
Q 1834 4238 1429 3725 
Q 1025 3213 1025 2328 
Q 1025 1447 1429 934 
Q 1834 422 2522 422 
Q 3209 422 3611 934 
Q 4013 1447 4013 2328 
Q 4013 3213 3611 3725 
Q 3209 4238 2522 4238 
z
M 2522 4750 
Q 3503 4750 4090 4092 
Q 4678 3434 4678 2328 
Q 4678 1225 4090 567 
Q 3503 -91 2522 -91 
Q 1538 -91 948 565 
Q 359 1222 359 2328 
Q 359 3434 948 4092 
Q 1538 4750 2522 4750 
z
" transform="scale(0.015625)"/>
     </defs>
     <use xlink:href="#DejaVuSans-4f"/>
     <use xlink:href="#DejaVuSans-43" transform="translate(78.710938 0)"/>
    </g>
   </g>
   <g id="text_19">
    <!-- FCS -->
    <g style="fill: #475569" transform="translate(258.05841 13.27875) scale(0.08 -0.08)">
     <defs>
      <path id="DejaVuSans-46" d="M 628 4666 
L 3309 4666 
L 3309 4134 
L 1259 4134 
L 1259 2759 
L 3109 2759 
L 3109 2228 
L 1259 2228 
L 1259 0 
L 628 0 
L 628 4666 
z
" transform="scale(0.015625)"/>
     </defs>
     <use xlink:href="#DejaVuSans-46"/>
     <use xlink:href="#DejaVuSans-43" transform="translate(57.519531 0)"/>
     <use xlink:href="#DejaVuSans-53" transform="translate(127.34375 0)"/>
    </g>
   </g>
   <g id="text_20">
    <!-- SR -->
    <g style="fill: #475569" transform="translate(294.236512 13.27875) scale(0.08 -0.08)">
     <defs>
      <path id="DejaVuSans-52" d="M 2841 2188 
Q 3044 2119 3236 1894 
Q 3428 1669 3622 1275 
L 4263 0 
L 3584 0 
L 2988 1197 
Q 2756 1666 2539 1819 
Q 2322 1972 1947 1972 
L 1259 1972 
L 1259 0 
L 628 0 
L 628 4666 
L 2053 4666 
Q 2853 4666 3247 4331 
Q 3641 3997 3641 3322 
Q 3641 2881 3436 2590 
Q 3231 2300 2841 2188 
z
M 1259 4147 
L 1259 2491 
L 2053 2491 
Q 2509 2491 2742 2702 
Q 2975 2913 2975 3322 
Q 2975 3731 2742 3939 
Q 2509 4147 2053 4147 
L 1259 4147 
z
" transform="scale(0.015625)"/>
     </defs>
     <use xlink:href="#DejaVuSans-53"/>
     <use xlink:href="#DejaVuSans-52" transform="translate(63.476562 0)"/>
    </g>
   </g>
   <g id="text_21">
    <!-- FFC -->
    <g style="fill: #475569" transform="translate(337.312523 13.27875) scale(0.08 -0.08)">
     <use xlink:href="#DejaVuSans-46"/>
     <use xlink:href="#DejaVuSans-46" transform="translate(57.519531 0)"/>
     <use xlink:href="#DejaVuSans-43" transform="translate(115.039062 0)"/>
    </g>
   </g>
   <g id="text_22">
    <!-- SS -->
    <g style="fill: #475569" transform="translate(420.901092 13.27875) scale(0.08 -0.08)">
     <use xlink:href="#DejaVuSans-53"/>
     <use xlink:href="#DejaVuSans-53" transform="translate(63.476562 0)"/>
    </g>
   </g>
   <g id="text_23">
    <!-- OC -->
    <g style="fill: #475569" transform="translate(490.023003 13.27875) scale(0.08 -0.08)">
     <use xlink:href="#DejaVuSans-4f"/>
     <use xlink:href="#DejaVuSans-43" transform="translate(78.710938 0)"/>
    </g>
   </g>
   <g id="text_24">
    <!-- FCS -->
    <g style="fill: #475569" transform="translate(510.907571 13.27875) scale(0.08 -0.08)">
     <use xlink:href="#DejaVuSans-46"/>
     <use xlink:href="#DejaVuSans-43" transform="translate(57.519531 0)"/>
     <use xlink:href="#DejaVuSans-53" transform="translate(127.34375 0)"/>
    </g>
   </g>
   <g id="text_25">
    <!-- SR -->
    <g style="fill: #475569" transform="translate(547.085672 13.27875) scale(0.08 -0.08)">
     <use xlink:href="#DejaVuSans-53"/>
     <use xlink:href="#DejaVuSans-52" transform="translate(63.476562 0)"/>
    </g>
   </g>
   <g id="text_26">
    <!-- FFC -->
    <g style="fill: #475569" transform="translate(590.161683 13.27875) scale(0.08 -0.08)">
     <use xlink:href="#DejaVuSans-46"/>
     <use xlink:href="#DejaVuSans-46" transform="translate(57.519531 0)"/>
     <use xlink:href="#DejaVuSans-43" transform="translate(115.039062 0)"/>
    </g>
   </g>
   <g id="text_27">
    <!-- SS -->
    <g style="fill: #475569" transform="translate(673.750253 13.27875) scale(0.08 -0.08)">
     <use xlink:href="#DejaVuSans-53"/>
     <use xlink:href="#DejaVuSans-53" transform="translate(63.476562 0)"/>
    </g>
   </g>
   <g id="text_28">
    <!-- OC -->
    <g style="fill: #475569" transform="translate(742.872163 13.27875) scale(0.08 -0.08)">
     <use xlink:href="#DejaVuSans-4f"/>
     <use xlink:href="#DejaVuSans-43" transform="translate(78.710938 0)"/>
    </g>
   </g>
   <g id="text_29">
    <!-- FCS -->
    <g style="fill: #475569" transform="translate(763.756731 13.27875) scale(0.08 -0.08)">
     <use xlink:href="#DejaVuSans-46"/>
     <use xlink:href="#DejaVuSans-43" transform="translate(57.519531 0)"/>
     <use xlink:href="#DejaVuSans-53" transform="translate(127.34375 0)"/>
    </g>
   </g>
   <g id="text_30">
    <!-- SR -->
    <g style="fill: #475569" transform="translate(799.934833 13.27875) scale(0.08 -0.08)">
     <use xlink:href="#DejaVuSans-53"/>
     <use xlink:href="#DejaVuSans-52" transform="translate(63.476562 0)"/>
    </g>
   </g>
   <g id="text_31">
    <!-- FFC -->
    <g style="fill: #475569" transform="translate(843.010844 13.27875) scale(0.08 -0.08)">
     <use xlink:href="#DejaVuSans-46"/>
     <use xlink:href="#DejaVuSans-46" transform="translate(57.519531 0)"/>
     <use xlink:href="#DejaVuSans-43" transform="translate(115.039062 0)"/>
    </g>
   </g>
   <g id="text_32">
    <!-- SS -->
    <g style="fill: #475569" transform="translate(888.220523 13.27875) scale(0.08 -0.08)">
     <use xlink:href="#DejaVuSans-53"/>
     <use xlink:href="#DejaVuSans-53" transform="translate(63.476562 0)"/>
    </g>
   </g>
   <g id="legend_1">
    <g id="line2d_30">
     <path d="M 849.174688 27.540183 
L 857.174688 27.540183 
L 865.174688 27.540183 
" style="fill: none; stroke: #1d4ed8; stroke-opacity: 0.95; stroke-width: 1.3; stroke-linecap: square"/>
    </g>
    <g id="text_33">
     <!-- Empatica EDA -->
     <g transform="translate(871.574688 30.340183) scale(0.08 -0.08)">
      <defs>
       <path id="DejaVuSans-6d" d="M 3328 2828 
Q 3544 3216 3844 3400 
Q 4144 3584 4550 3584 
Q 5097 3584 5394 3201 
Q 5691 2819 5691 2113 
L 5691 0 
L 5113 0 
L 5113 2094 
Q 5113 2597 4934 2840 
Q 4756 3084 4391 3084 
Q 3944 3084 3684 2787 
Q 3425 2491 3425 1978 
L 3425 0 
L 2847 0 
L 2847 2094 
Q 2847 2600 2669 2842 
Q 2491 3084 2119 3084 
Q 1678 3084 1418 2786 
Q 1159 2488 1159 1978 
L 1159 0 
L 581 0 
L 581 3500 
L 1159 3500 
L 1159 2956 
Q 1356 3278 1631 3431 
Q 1906 3584 2284 3584 
Q 2666 3584 2933 3390 
Q 3200 3197 3328 2828 
z
" transform="scale(0.015625)"/>
       <path id="DejaVuSans-70" d="M 1159 525 
L 1159 -1331 
L 581 -1331 
L 581 3500 
L 1159 3500 
L 1159 2969 
Q 1341 3281 1617 3432 
Q 1894 3584 2278 3584 
Q 2916 3584 3314 3078 
Q 3713 2572 3713 1747 
Q 3713 922 3314 415 
Q 2916 -91 2278 -91 
Q 1894 -91 1617 61 
Q 1341 213 1159 525 
z
M 3116 1747 
Q 3116 2381 2855 2742 
Q 2594 3103 2138 3103 
Q 1681 3103 1420 2742 
Q 1159 2381 1159 1747 
Q 1159 1113 1420 752 
Q 1681 391 2138 391 
Q 2594 391 2855 752 
Q 3116 1113 3116 1747 
z
" transform="scale(0.015625)"/>
      </defs>
      <use xlink:href="#DejaVuSans-45"/>
      <use xlink:href="#DejaVuSans-6d" transform="translate(63.183594 0)"/>
      <use xlink:href="#DejaVuSans-70" transform="translate(160.595703 0)"/>
      <use xlink:href="#DejaVuSans-61" transform="translate(224.072266 0)"/>
      <use xlink:href="#DejaVuSans-74" transform="translate(285.351562 0)"/>
      <use xlink:href="#DejaVuSans-69" transform="translate(324.560547 0)"/>
      <use xlink:href="#DejaVuSans-63" transform="translate(352.34375 0)"/>
      <use xlink:href="#DejaVuSans-61" transform="translate(407.324219 0)"/>
      <use xlink:href="#DejaVuSans-20" transform="translate(468.603516 0)"/>
      <use xlink:href="#DejaVuSans-45" transform="translate(500.390625 0)"/>
      <use xlink:href="#DejaVuSans-44" transform="translate(563.574219 0)"/>
      <use xlink:href="#DejaVuSans-41" transform="translate(638.826172 0)"/>
     </g>
    </g>
   </g>
  </g>
 </g>
 <defs>
  <clipPath id="p8fcd042e55">
   <rect x="42.190938" y="17.061433" width="893.1625" height="211.89328"/>
  </clipPath>
 </defs>
</svg>
