<?xml version="1.0" encoding="utf-8" standalone="no"?>
<!DOCTYPE svg PUBLIC "-//W3C//DTD SVG 1.1//EN"
  "http://www.w3.org/Graphics/SVG/1.1/DTD/svg11.dtd">
<svg xmlns:xlink="http://www.w3.org/1999/xlink" width="942.553437pt" height="265.54315pt" viewBox="0 0 942.553437 265.54315" xmlns="http://www.w3.org/2000/svg" version="1.1">
 <metadata>
  <rdf:RDF xmlns:dc="http://purl.org/dc/elements/1.1/" xmlns:cc="http://creativecommons.org/ns#" xmlns:rdf="http://www.w3.org/1999/02/22-rdf-syntax-ns#">
   <cc:Work>
    <dc:type rdf:resource="http://purl.org/dc/dcmitype/StillImage"/>
    <dc:date>2026-04-17T13:17:47.471940</dc:date>
    <dc:format>image/svg+xml</dc:format>
    <dc:creator>
     <cc:Agent>
      <dc:title>Matplotlib v3.10.8, https://matplotlib.org/</dc:title>
     </cc:Agent>
    </dc:creator>
   </cc:Work>
  </rdf:RDF>
 </metadata>
 <defs>
  <style type="text/css">*{stroke-linejoin: round; stroke-linecap: butt}</style>
 </defs>
 <g id="figure_1">
  <g id="patch_1">
   <path d="M 0 265.54315 
L 942.553437 265.54315 
L 942.553437 0 
L 0 0 
z
" style="fill: #ffffff"/>
  </g>
  <g id="axes_1">
   <g id="patch_2">
    <path d="M 42.190938 228.954713 
L 935.353437 228.954713 
L 935.353437 17.061433 
L 42.190938 17.061433 
z
" style="fill: #ffffff"/>
   </g>
   <g id="patch_3">
    <path d="M 42.190938 228.954713 
L 59.367139 228.954713 
L 59.367139 17.061433 
L 42.190938 17.061433 
z
" clip-path="url(#p3773e39c4d)" style="fill: #f8fafc; opacity: 0.45"/>
   </g>
   <g id="patch_4">
    <path d="M 59.367139 228.954713 
L 98.659105 228.954713 
L 98.659105 17.061433 
L 59.367139 17.061433 
z
" clip-path="url(#p3773e39c4d)" style="fill: #eff6ff; opacity: 0.45"/>
   </g>
   <g id="patch_5">
    <path d="M 98.659105 228.954713 
L 126.724794 228.954713 
L 126.724794 17.061433 
L 98.659105 17.061433 
z
" clip-path="url(#p3773e39c4d)" style="fill: #fef3c7; opacity: 0.45"/>
   </g>
   <g id="patch_6">
    <path d="M 126.724794 228.954713 
L 182.856173 228.954713 
L 182.856173 17.061433 
L 126.724794 17.061433 
z
" clip-path="url(#p3773e39c4d)" style="fill: #dcfce7; opacity: 0.45"/>
   </g>
   <g id="patch_7">
    <path d="M 182.856173 228.954713 
L 238.987552 228.954713 
L 238.987552 17.061433 
L 182.856173 17.061433 
z
" clip-path="url(#p3773e39c4d)" style="fill: #fee2e2; opacity: 0.45"/>
   </g>
   <g id="patch_8">
    <path d="M 238.987552 228.954713 
L 384.929137 228.954713 
L 384.929137 17.061433 
L 238.987552 17.061433 
z
" clip-path="url(#p3773e39c4d)" style="fill: #ede9fe; opacity: 0.45"/>
   </g>
   <g id="patch_9">
    <path d="M 384.929137 228.954713 
L 412.994826 228.954713 
L 412.994826 17.061433 
L 384.929137 17.061433 
z
" clip-path="url(#p3773e39c4d)" style="fill: #f8fafc; opacity: 0.45"/>
   </g>
   <g id="patch_10">
    <path d="M 412.994826 228.954713 
L 441.060515 228.954713 
L 441.060515 17.061433 
L 412.994826 17.061433 
z
" clip-path="url(#p3773e39c4d)" style="fill: #eff6ff; opacity: 0.45"/>
   </g>
   <g id="patch_11">
    <path d="M 441.060515 228.954713 
L 497.191894 228.954713 
L 497.191894 17.061433 
L 441.060515 17.061433 
z
" clip-path="url(#p3773e39c4d)" style="fill: #fef3c7; opacity: 0.45"/>
   </g>
   <g id="patch_12">
    <path d="M 497.191894 228.954713 
L 553.323273 228.954713 
L 553.323273 17.061433 
L 497.191894 17.061433 
z
" clip-path="url(#p3773e39c4d)" style="fill: #dcfce7; opacity: 0.45"/>
   </g>
   <g id="patch_13">
    <path d="M 553.323273 228.954713 
L 699.264858 228.954713 
L 699.264858 17.061433 
L 553.323273 17.061433 
z
" clip-path="url(#p3773e39c4d)" style="fill: #fee2e2; opacity: 0.45"/>
   </g>
   <g id="patch_14">
    <path d="M 699.264858 228.954713 
L 727.330548 228.954713 
L 727.330548 17.061433 
L 699.264858 17.061433 
z
" clip-path="url(#p3773e39c4d)" style="fill: #ede9fe; opacity: 0.45"/>
   </g>
   <g id="patch_15">
    <path d="M 727.330548 228.954713 
L 755.396237 228.954713 
L 755.396237 17.061433 
L 727.330548 17.061433 
z
" clip-path="url(#p3773e39c4d)" style="fill: #f8fafc; opacity: 0.45"/>
   </g>
   <g id="patch_16">
    <path d="M 755.396237 228.954713 
L 811.527616 228.954713 
L 811.527616 17.061433 
L 755.396237 17.061433 
z
" clip-path="url(#p3773e39c4d)" style="fill: #eff6ff; opacity: 0.45"/>
   </g>
   <g id="patch_17">
    <path d="M 811.527616 228.954713 
L 867.658995 228.954713 
L 867.658995 17.061433 
L 811.527616 17.061433 
z
" clip-path="url(#p3773e39c4d)" style="fill: #fef3c7; opacity: 0.45"/>
   </g>
   <g id="patch_18">
    <path d="M 867.658995 228.954713 
L 918.177236 228.954713 
L 918.177236 17.061433 
L 867.658995 17.061433 
z
" clip-path="url(#p3773e39c4d)" style="fill: #dcfce7; opacity: 0.45"/>
   </g>
   <g id="patch_19">
    <path d="M 918.177236 228.954713 
L 923.790373 228.954713 
L 923.790373 17.061433 
L 918.177236 17.061433 
z
" clip-path="url(#p3773e39c4d)" style="fill: #fee2e2; opacity: 0.45"/>
   </g>
   <g id="matplotlib.axis_1">
    <g id="xtick_1">
     <g id="line2d_1">
      <path d="M 59.367139 228.954713 
L 59.367139 17.061433 
" clip-path="url(#p3773e39c4d)" style="fill: none; stroke: #eef2f7; stroke-width: 0.55; stroke-linecap: square"/>
     </g>
     <g id="line2d_2">
      <defs>
       <path id="m41b2739579" d="M 0 0 
L 0 3.5 
" style="stroke: #000000; stroke-width: 0.8"/>
      </defs>
      <g>
       <use xlink:href="#m41b2739579" x="59.367139" y="228.954713" style="stroke: #000000; stroke-width: 0.8"/>
      </g>
     </g>
     <g id="text_1">
      <!-- 40 -->
      <g transform="translate(53.640889 242.793307) scale(0.09 -0.09)">
       <defs>
        <path id="DejaVuSans-34" d="M 2419 4116 
L 825 1625 
L 2419 1625 
L 2419 4116 
z
M 2253 4666 
L 3047 4666 
L 3047 1625 
L 3713 1625 
L 3713 1100 
L 3047 1100 
L 3047 0 
L 2419 0 
L 2419 1100 
L 313 1100 
L 313 1709 
L 2253 4666 
z
" transform="scale(0.015625)"/>
        <path id="DejaVuSans-30" d="M 2034 4250 
Q 1547 4250 1301 3770 
Q 1056 3291 1056 2328 
Q 1056 1369 1301 889 
Q 1547 409 2034 409 
Q 2525 409 2770 889 
Q 3016 1369 3016 2328 
Q 3016 3291 2770 3770 
Q 2525 4250 2034 4250 
z
M 2034 4750 
Q 2819 4750 3233 4129 
Q 3647 3509 3647 2328 
Q 3647 1150 3233 529 
Q 2819 -91 2034 -91 
Q 1250 -91 836 529 
Q 422 1150 422 2328 
Q 422 3509 836 4129 
Q 1250 4750 2034 4750 
z
" transform="scale(0.015625)"/>
       </defs>
       <use xlink:href="#DejaVuSans-34"/>
       <use xlink:href="#DejaVuSans-30" transform="translate(63.623047 0)"/>
      </g>
     </g>
    </g>
    <g id="xtick_2">
     <g id="line2d_3">
      <path d="M 171.629897 228.954713 
L 171.629897 17.061433 
" clip-path="url(#p3773e39c4d)" style="fill: none; stroke: #eef2f7; stroke-width: 0.55; stroke-linecap: square"/>
     </g>
     <g id="line2d_4">
      <g>
       <use xlink:href="#m41b2739579" x="171.629897" y="228.954713" style="stroke: #000000; stroke-width: 0.8"/>
      </g>
     </g>
     <g id="text_2">
      <!-- 60 -->
      <g transform="translate(165.903647 242.793307) scale(0.09 -0.09)">
       <defs>
        <path id="DejaVuSans-36" d="M 2113 2584 
Q 1688 2584 1439 2293 
Q 1191 2003 1191 1497 
Q 1191 994 1439 701 
Q 1688 409 2113 409 
Q 2538 409 2786 701 
Q 3034 994 3034 1497 
Q 3034 2003 2786 2293 
Q 2538 2584 2113 2584 
z
M 3366 4563 
L 3366 3988 
Q 3128 4100 2886 4159 
Q 2644 4219 2406 4219 
Q 1781 4219 1451 3797 
Q 1122 3375 1075 2522 
Q 1259 2794 1537 2939 
Q 1816 3084 2150 3084 
Q 2853 3084 3261 2657 
Q 3669 2231 3669 1497 
Q 3669 778 3244 343 
Q 2819 -91 2113 -91 
Q 1303 -91 875 529 
Q 447 1150 447 2328 
Q 447 3434 972 4092 
Q 1497 4750 2381 4750 
Q 2619 4750 2861 4703 
Q 3103 4656 3366 4563 
z
" transform="scale(0.015625)"/>
       </defs>
       <use xlink:href="#DejaVuSans-36"/>
       <use xlink:href="#DejaVuSans-30" transform="translate(63.623047 0)"/>
      </g>
     </g>
    </g>
    <g id="xtick_3">
     <g id="line2d_5">
      <path d="M 283.892655 228.954713 
L 283.892655 17.061433 
" clip-path="url(#p3773e39c4d)" style="fill: none; stroke: #eef2f7; stroke-width: 0.55; stroke-linecap: square"/>
     </g>
     <g id="line2d_6">
      <g>
       <use xlink:href="#m41b2739579" x="283.892655" y="228.954713" style="stroke: #000000; stroke-width: 0.8"/>
      </g>
     </g>
     <g id="text_3">
      <!-- 80 -->
      <g transform="translate(278.166405 242.793307) scale(0.09 -0.09)">
       <defs>
        <path id="DejaVuSans-38" d="M 2034 2216 
Q 1584 2216 1326 1975 
Q 1069 1734 1069 1313 
Q 1069 891 1326 650 
Q 1584 409 2034 409 
Q 2484 409 2743 651 
Q 3003 894 3003 1313 
Q 3003 1734 2745 1975 
Q 2488 2216 2034 2216 
z
M 1403 2484 
Q 997 2584 770 2862 
Q 544 3141 544 3541 
Q 544 4100 942 4425 
Q 1341 4750 2034 4750 
Q 2731 4750 3128 4425 
Q 3525 4100 3525 3541 
Q 3525 3141 3298 2862 
Q 3072 2584 2669 2484 
Q 3125 2378 3379 2068 
Q 3634 1759 3634 1313 
Q 3634 634 3220 271 
Q 2806 -91 2034 -91 
Q 1263 -91 848 271 
Q 434 634 434 1313 
Q 434 1759 690 2068 
Q 947 2378 1403 2484 
z
M 1172 3481 
Q 1172 3119 1398 2916 
Q 1625 2713 2034 2713 
Q 2441 2713 2670 2916 
Q 2900 3119 2900 3481 
Q 2900 3844 2670 4047 
Q 2441 4250 2034 4250 
Q 1625 4250 1398 4047 
Q 1172 3844 1172 3481 
z
" transform="scale(0.015625)"/>
       </defs>
       <use xlink:href="#DejaVuSans-38"/>
       <use xlink:href="#DejaVuSans-30" transform="translate(63.623047 0)"/>
      </g>
     </g>
    </g>
    <g id="xtick_4">
     <g id="line2d_7">
      <path d="M 396.155412 228.954713 
L 396.155412 17.061433 
" clip-path="url(#p3773e39c4d)" style="fill: none; stroke: #eef2f7; stroke-width: 0.55; stroke-linecap: square"/>
     </g>
     <g id="line2d_8">
      <g>
       <use xlink:href="#m41b2739579" x="396.155412" y="228.954713" style="stroke: #000000; stroke-width: 0.8"/>
      </g>
     </g>
     <g id="text_4">
      <!-- 100 -->
      <g transform="translate(387.566037 242.793307) scale(0.09 -0.09)">
       <defs>
        <path id="DejaVuSans-31" d="M 794 531 
L 1825 531 
L 1825 4091 
L 703 3866 
L 703 4441 
L 1819 4666 
L 2450 4666 
L 2450 531 
L 3481 531 
L 3481 0 
L 794 0 
L 794 531 
z
" transform="scale(0.015625)"/>
       </defs>
       <use xlink:href="#DejaVuSans-31"/>
       <use xlink:href="#DejaVuSans-30" transform="translate(63.623047 0)"/>
       <use xlink:href="#DejaVuSans-30" transform="translate(127.246094 0)"/>
      </g>
     </g>
    </g>
    <g id="xtick_5">
     <g id="line2d_9">
      <path d="M 508.41817 228.954713 
L 508.41817 17.061433 
" clip-path="url(#p3773e39c4d)" style="fill: none; stroke: #eef2f7; stroke-width: 0.55; stroke-linecap: square"/>
     </g>
     <g id="line2d_10">
      <g>
       <use xlink:href="#m41b2739579" x="508.41817" y="228.954713" style="stroke: #000000; stroke-width: 0.8"/>
      </g>
     </g>
     <g id="text_5">
      <!-- 120 -->
      <g transform="translate(499.828795 242.793307) scale(0.09 -0.09)">
       <defs>
        <path id="DejaVuSans-32" d="M 1228 531 
L 3431 531 
L 3431 0 
L 469 0 
L 469 531 
Q 828 903 1448 1529 
Q 2069 2156 2228 2338 
Q 2531 2678 2651 2914 
Q 2772 3150 2772 3378 
Q 2772 3750 2511 3984 
Q 2250 4219 1831 4219 
Q 1534 4219 1204 4116 
Q 875 4013 500 3803 
L 500 4441 
Q 881 4594 1212 4672 
Q 1544 4750 1819 4750 
Q 2544 4750 2975 4387 
Q 3406 4025 3406 3419 
Q 3406 3131 3298 2873 
Q 3191 2616 2906 2266 
Q 2828 2175 2409 1742 
Q 1991 1309 1228 531 
z
" transform="scale(0.015625)"/>
       </defs>
       <use xlink:href="#DejaVuSans-31"/>
       <use xlink:href="#DejaVuSans-32" transform="translate(63.623047 0)"/>
       <use xlink:href="#DejaVuSans-30" transform="translate(127.246094 0)"/>
      </g>
     </g>
    </g>
    <g id="xtick_6">
     <g id="line2d_11">
      <path d="M 620.680928 228.954713 
L 620.680928 17.061433 
" clip-path="url(#p3773e39c4d)" style="fill: none; stroke: #eef2f7; stroke-width: 0.55; stroke-linecap: square"/>
     </g>
     <g id="line2d_12">
      <g>
       <use xlink:href="#m41b2739579" x="620.680928" y="228.954713" style="stroke: #000000; stroke-width: 0.8"/>
      </g>
     </g>
     <g id="text_6">
      <!-- 140 -->
      <g transform="translate(612.091553 242.793307) scale(0.09 -0.09)">
       <use xlink:href="#DejaVuSans-31"/>
       <use xlink:href="#DejaVuSans-34" transform="translate(63.623047 0)"/>
       <use xlink:href="#DejaVuSans-30" transform="translate(127.246094 0)"/>
      </g>
     </g>
    </g>
    <g id="xtick_7">
     <g id="line2d_13">
      <path d="M 732.943685 228.954713 
L 732.943685 17.061433 
" clip-path="url(#p3773e39c4d)" style="fill: none; stroke: #eef2f7; stroke-width: 0.55; stroke-linecap: square"/>
     </g>
     <g id="line2d_14">
      <g>
       <use xlink:href="#m41b2739579" x="732.943685" y="228.954713" style="stroke: #000000; stroke-width: 0.8"/>
      </g>
     </g>
     <g id="text_7">
      <!-- 160 -->
      <g transform="translate(724.35431 242.793307) scale(0.09 -0.09)">
       <use xlink:href="#DejaVuSans-31"/>
       <use xlink:href="#DejaVuSans-36" transform="translate(63.623047 0)"/>
       <use xlink:href="#DejaVuSans-30" transform="translate(127.246094 0)"/>
      </g>
     </g>
    </g>
    <g id="xtick_8">
     <g id="line2d_15">
      <path d="M 845.206443 228.954713 
L 845.206443 17.061433 
" clip-path="url(#p3773e39c4d)" style="fill: none; stroke: #eef2f7; stroke-width: 0.55; stroke-linecap: square"/>
     </g>
     <g id="line2d_16">
      <g>
       <use xlink:href="#m41b2739579" x="845.206443" y="228.954713" style="stroke: #000000; stroke-width: 0.8"/>
      </g>
     </g>
     <g id="text_8">
      <!-- 180 -->
      <g transform="translate(836.617068 242.793307) scale(0.09 -0.09)">
       <use xlink:href="#DejaVuSans-31"/>
       <use xlink:href="#DejaVuSans-38" transform="translate(63.623047 0)"/>
       <use xlink:href="#DejaVuSans-30" transform="translate(127.246094 0)"/>
      </g>
     </g>
    </g>
    <g id="text_9">
     <!-- Minutes since session start -->
     <g transform="translate(421.182344 256.263463) scale(0.1 -0.1)">
      <defs>
       <path id="DejaVuSans-4d" d="M 628 4666 
L 1569 4666 
L 2759 1491 
L 3956 4666 
L 4897 4666 
L 4897 0 
L 4281 0 
L 4281 4097 
L 3078 897 
L 2444 897 
L 1241 4097 
L 1241 0 
L 628 0 
L 628 4666 
z
" transform="scale(0.015625)"/>
       <path id="DejaVuSans-69" d="M 603 3500 
L 1178 3500 
L 1178 0 
L 603 0 
L 603 3500 
z
M 603 4863 
L 1178 4863 
L 1178 4134 
L 603 4134 
L 603 4863 
z
" transform="scale(0.015625)"/>
       <path id="DejaVuSans-6e" d="M 3513 2113 
L 3513 0 
L 2938 0 
L 2938 2094 
Q 2938 2591 2744 2837 
Q 2550 3084 2163 3084 
Q 1697 3084 1428 2787 
Q 1159 2491 1159 1978 
L 1159 0 
L 581 0 
L 581 3500 
L 1159 3500 
L 1159 2956 
Q 1366 3272 1645 3428 
Q 1925 3584 2291 3584 
Q 2894 3584 3203 3211 
Q 3513 2838 3513 2113 
z
" transform="scale(0.015625)"/>
       <path id="DejaVuSans-75" d="M 544 1381 
L 544 3500 
L 1119 3500 
L 1119 1403 
Q 1119 906 1312 657 
Q 1506 409 1894 409 
Q 2359 409 2629 706 
Q 2900 1003 2900 1516 
L 2900 3500 
L 3475 3500 
L 3475 0 
L 2900 0 
L 2900 538 
Q 2691 219 2414 64 
Q 2138 -91 1772 -91 
Q 1169 -91 856 284 
Q 544 659 544 1381 
z
M 1991 3584 
L 1991 3584 
z
" transform="scale(0.015625)"/>
       <path id="DejaVuSans-74" d="M 1172 4494 
L 1172 3500 
L 2356 3500 
L 2356 3053 
L 1172 3053 
L 1172 1153 
Q 1172 725 1289 603 
Q 1406 481 1766 481 
L 2356 481 
L 2356 0 
L 1766 0 
Q 1100 0 847 248 
Q 594 497 594 1153 
L 594 3053 
L 172 3053 
L 172 3500 
L 594 3500 
L 594 4494 
L 1172 4494 
z
" transform="scale(0.015625)"/>
       <path id="DejaVuSans-65" d="M 3597 1894 
L 3597 1613 
L 953 1613 
Q 991 1019 1311 708 
Q 1631 397 2203 397 
Q 2534 397 2845 478 
Q 3156 559 3463 722 
L 3463 178 
Q 3153 47 2828 -22 
Q 2503 -91 2169 -91 
Q 1331 -91 842 396 
Q 353 884 353 1716 
Q 353 2575 817 3079 
Q 1281 3584 2069 3584 
Q 2775 3584 3186 3129 
Q 3597 2675 3597 1894 
z
M 3022 2063 
Q 3016 2534 2758 2815 
Q 2500 3097 2075 3097 
Q 1594 3097 1305 2825 
Q 1016 2553 972 2059 
L 3022 2063 
z
" transform="scale(0.015625)"/>
       <path id="DejaVuSans-73" d="M 2834 3397 
L 2834 2853 
Q 2591 2978 2328 3040 
Q 2066 3103 1784 3103 
Q 1356 3103 1142 2972 
Q 928 2841 928 2578 
Q 928 2378 1081 2264 
Q 1234 2150 1697 2047 
L 1894 2003 
Q 2506 1872 2764 1633 
Q 3022 1394 3022 966 
Q 3022 478 2636 193 
Q 2250 -91 1575 -91 
Q 1294 -91 989 -36 
Q 684 19 347 128 
L 347 722 
Q 666 556 975 473 
Q 1284 391 1588 391 
Q 1994 391 2212 530 
Q 2431 669 2431 922 
Q 2431 1156 2273 1281 
Q 2116 1406 1581 1522 
L 1381 1569 
Q 847 1681 609 1914 
Q 372 2147 372 2553 
Q 372 3047 722 3315 
Q 1072 3584 1716 3584 
Q 2034 3584 2315 3537 
Q 2597 3491 2834 3397 
z
" transform="scale(0.015625)"/>
       <path id="DejaVuSans-20" transform="scale(0.015625)"/>
       <path id="DejaVuSans-63" d="M 3122 3366 
L 3122 2828 
Q 2878 2963 2633 3030 
Q 2388 3097 2138 3097 
Q 1578 3097 1268 2742 
Q 959 2388 959 1747 
Q 959 1106 1268 751 
Q 1578 397 2138 397 
Q 2388 397 2633 464 
Q 2878 531 3122 666 
L 3122 134 
Q 2881 22 2623 -34 
Q 2366 -91 2075 -91 
Q 1284 -91 818 406 
Q 353 903 353 1747 
Q 353 2603 823 3093 
Q 1294 3584 2113 3584 
Q 2378 3584 2631 3529 
Q 2884 3475 3122 3366 
z
" transform="scale(0.015625)"/>
       <path id="DejaVuSans-6f" d="M 1959 3097 
Q 1497 3097 1228 2736 
Q 959 2375 959 1747 
Q 959 1119 1226 758 
Q 1494 397 1959 397 
Q 2419 397 2687 759 
Q 2956 1122 2956 1747 
Q 2956 2369 2687 2733 
Q 2419 3097 1959 3097 
z
M 1959 3584 
Q 2709 3584 3137 3096 
Q 3566 2609 3566 1747 
Q 3566 888 3137 398 
Q 2709 -91 1959 -91 
Q 1206 -91 779 398 
Q 353 888 353 1747 
Q 353 2609 779 3096 
Q 1206 3584 1959 3584 
z
" transform="scale(0.015625)"/>
       <path id="DejaVuSans-61" d="M 2194 1759 
Q 1497 1759 1228 1600 
Q 959 1441 959 1056 
Q 959 750 1161 570 
Q 1363 391 1709 391 
Q 2188 391 2477 730 
Q 2766 1069 2766 1631 
L 2766 1759 
L 2194 1759 
z
M 3341 1997 
L 3341 0 
L 2766 0 
L 2766 531 
Q 2569 213 2275 61 
Q 1981 -91 1556 -91 
Q 1019 -91 701 211 
Q 384 513 384 1019 
Q 384 1609 779 1909 
Q 1175 2209 1959 2209 
L 2766 2209 
L 2766 2266 
Q 2766 2663 2505 2880 
Q 2244 3097 1772 3097 
Q 1472 3097 1187 3025 
Q 903 2953 641 2809 
L 641 3341 
Q 956 3463 1253 3523 
Q 1550 3584 1831 3584 
Q 2591 3584 2966 3190 
Q 3341 2797 3341 1997 
z
" transform="scale(0.015625)"/>
       <path id="DejaVuSans-72" d="M 2631 2963 
Q 2534 3019 2420 3045 
Q 2306 3072 2169 3072 
Q 1681 3072 1420 2755 
Q 1159 2438 1159 1844 
L 1159 0 
L 581 0 
L 581 3500 
L 1159 3500 
L 1159 2956 
Q 1341 3275 1631 3429 
Q 1922 3584 2338 3584 
Q 2397 3584 2469 3576 
Q 2541 3569 2628 3553 
L 2631 2963 
z
" transform="scale(0.015625)"/>
      </defs>
      <use xlink:href="#DejaVuSans-4d"/>
      <use xlink:href="#DejaVuSans-69" transform="translate(86.279297 0)"/>
      <use xlink:href="#DejaVuSans-6e" transform="translate(114.0625 0)"/>
      <use xlink:href="#DejaVuSans-75" transform="translate(177.441406 0)"/>
      <use xlink:href="#DejaVuSans-74" transform="translate(240.820312 0)"/>
      <use xlink:href="#DejaVuSans-65" transform="translate(280.029297 0)"/>
      <use xlink:href="#DejaVuSans-73" transform="translate(341.552734 0)"/>
      <use xlink:href="#DejaVuSans-20" transform="translate(393.652344 0)"/>
      <use xlink:href="#DejaVuSans-73" transform="translate(425.439453 0)"/>
      <use xlink:href="#DejaVuSans-69" transform="translate(477.539062 0)"/>
      <use xlink:href="#DejaVuSans-6e" transform="translate(505.322266 0)"/>
      <use xlink:href="#DejaVuSans-63" transform="translate(568.701172 0)"/>
      <use xlink:href="#DejaVuSans-65" transform="translate(623.681641 0)"/>
      <use xlink:href="#DejaVuSans-20" transform="translate(685.205078 0)"/>
      <use xlink:href="#DejaVuSans-73" transform="translate(716.992188 0)"/>
      <use xlink:href="#DejaVuSans-65" transform="translate(769.091797 0)"/>
      <use xlink:href="#DejaVuSans-73" transform="translate(830.615234 0)"/>
      <use xlink:href="#DejaVuSans-73" transform="translate(882.714844 0)"/>
      <use xlink:href="#DejaVuSans-69" transform="translate(934.814453 0)"/>
      <use xlink:href="#DejaVuSans-6f" transform="translate(962.597656 0)"/>
      <use xlink:href="#DejaVuSans-6e" transform="translate(1023.779297 0)"/>
      <use xlink:href="#DejaVuSans-20" transform="translate(1087.158203 0)"/>
      <use xlink:href="#DejaVuSans-73" transform="translate(1118.945312 0)"/>
      <use xlink:href="#DejaVuSans-74" transform="translate(1171.044922 0)"/>
      <use xlink:href="#DejaVuSans-61" transform="translate(1210.253906 0)"/>
      <use xlink:href="#DejaVuSans-72" transform="translate(1271.533203 0)"/>
      <use xlink:href="#DejaVuSans-74" transform="translate(1312.646484 0)"/>
     </g>
    </g>
   </g>
   <g id="matplotlib.axis_2">
    <g id="ytick_1">
     <g id="line2d_17">
      <path d="M 42.190938 219.3232 
L 935.353437 219.3232 
" clip-path="url(#p3773e39c4d)" style="fill: none; stroke: #eef2f7; stroke-opacity: 0.25; stroke-width: 0.55; stroke-linecap: square"/>
     </g>
     <g id="line2d_18">
      <defs>
       <path id="ma0dde6785c" d="M 0 0 
L -3.5 0 
" style="stroke: #000000; stroke-width: 0.8"/>
      </defs>
      <g>
       <use xlink:href="#ma0dde6785c" x="42.190938" y="219.3232" style="stroke: #000000; stroke-width: 0.8"/>
      </g>
     </g>
     <g id="text_10">
      <!-- 0.0 -->
      <g transform="translate(20.878125 222.742497) scale(0.09 -0.09)">
       <defs>
        <path id="DejaVuSans-2e" d="M 684 794 
L 1344 794 
L 1344 0 
L 684 0 
L 684 794 
z
" transform="scale(0.015625)"/>
       </defs>
       <use xlink:href="#DejaVuSans-30"/>
       <use xlink:href="#DejaVuSans-2e" transform="translate(63.623047 0)"/>
       <use xlink:href="#DejaVuSans-30" transform="translate(95.410156 0)"/>
      </g>
     </g>
    </g>
    <g id="ytick_2">
     <g id="line2d_19">
      <path d="M 42.190938 194.371095 
L 935.353437 194.371095 
" clip-path="url(#p3773e39c4d)" style="fill: none; stroke: #eef2f7; stroke-opacity: 0.25; stroke-width: 0.55; stroke-linecap: square"/>
     </g>
     <g id="line2d_20">
      <g>
       <use xlink:href="#ma0dde6785c" x="42.190938" y="194.371095" style="stroke: #000000; stroke-width: 0.8"/>
      </g>
     </g>
     <g id="text_11">
      <!-- 0.1 -->
      <g transform="translate(20.878125 197.790391) scale(0.09 -0.09)">
       <use xlink:href="#DejaVuSans-30"/>
       <use xlink:href="#DejaVuSans-2e" transform="translate(63.623047 0)"/>
       <use xlink:href="#DejaVuSans-31" transform="translate(95.410156 0)"/>
      </g>
     </g>
    </g>
    <g id="ytick_3">
     <g id="line2d_21">
      <path d="M 42.190938 169.418989 
L 935.353437 169.418989 
" clip-path="url(#p3773e39c4d)" style="fill: none; stroke: #eef2f7; stroke-opacity: 0.25; stroke-width: 0.55; stroke-linecap: square"/>
     </g>
     <g id="line2d_22">
      <g>
       <use xlink:href="#ma0dde6785c" x="42.190938" y="169.418989" style="stroke: #000000; stroke-width: 0.8"/>
      </g>
     </g>
     <g id="text_12">
      <!-- 0.2 -->
      <g transform="translate(20.878125 172.838286) scale(0.09 -0.09)">
       <use xlink:href="#DejaVuSans-30"/>
       <use xlink:href="#DejaVuSans-2e" transform="translate(63.623047 0)"/>
       <use xlink:href="#DejaVuSans-32" transform="translate(95.410156 0)"/>
      </g>
     </g>
    </g>
    <g id="ytick_4">
     <g id="line2d_23">
      <path d="M 42.190938 144.466884 
L 935.353437 144.466884 
" clip-path="url(#p3773e39c4d)" style="fill: none; stroke: #eef2f7; stroke-opacity: 0.25; stroke-width: 0.55; stroke-linecap: square"/>
     </g>
     <g id="line2d_24">
      <g>
       <use xlink:href="#ma0dde6785c" x="42.190938" y="144.466884" style="stroke: #000000; stroke-width: 0.8"/>
      </g>
     </g>
     <g id="text_13">
      <!-- 0.3 -->
      <g transform="translate(20.878125 147.88618) scale(0.09 -0.09)">
       <defs>
        <path id="DejaVuSans-33" d="M 2597 2516 
Q 3050 2419 3304 2112 
Q 3559 1806 3559 1356 
Q 3559 666 3084 287 
Q 2609 -91 1734 -91 
Q 1441 -91 1130 -33 
Q 819 25 488 141 
L 488 750 
Q 750 597 1062 519 
Q 1375 441 1716 441 
Q 2309 441 2620 675 
Q 2931 909 2931 1356 
Q 2931 1769 2642 2001 
Q 2353 2234 1838 2234 
L 1294 2234 
L 1294 2753 
L 1863 2753 
Q 2328 2753 2575 2939 
Q 2822 3125 2822 3475 
Q 2822 3834 2567 4026 
Q 2313 4219 1838 4219 
Q 1578 4219 1281 4162 
Q 984 4106 628 3988 
L 628 4550 
Q 988 4650 1302 4700 
Q 1616 4750 1894 4750 
Q 2613 4750 3031 4423 
Q 3450 4097 3450 3541 
Q 3450 3153 3228 2886 
Q 3006 2619 2597 2516 
z
" transform="scale(0.015625)"/>
       </defs>
       <use xlink:href="#DejaVuSans-30"/>
       <use xlink:href="#DejaVuSans-2e" transform="translate(63.623047 0)"/>
       <use xlink:href="#DejaVuSans-33" transform="translate(95.410156 0)"/>
      </g>
     </g>
    </g>
    <g id="ytick_5">
     <g id="line2d_25">
      <path d="M 42.190938 119.514778 
L 935.353437 119.514778 
" clip-path="url(#p3773e39c4d)" style="fill: none; stroke: #eef2f7; stroke-opacity: 0.25; stroke-width: 0.55; stroke-linecap: square"/>
     </g>
     <g id="line2d_26">
      <g>
       <use xlink:href="#ma0dde6785c" x="42.190938" y="119.514778" style="stroke: #000000; stroke-width: 0.8"/>
      </g>
     </g>
     <g id="text_14">
      <!-- 0.4 -->
      <g transform="translate(20.878125 122.934075) scale(0.09 -0.09)">
       <use xlink:href="#DejaVuSans-30"/>
       <use xlink:href="#DejaVuSans-2e" transform="translate(63.623047 0)"/>
       <use xlink:href="#DejaVuSans-34" transform="translate(95.410156 0)"/>
      </g>
     </g>
    </g>
    <g id="ytick_6">
     <g id="line2d_27">
      <path d="M 42.190938 94.562673 
L 935.353437 94.562673 
" clip-path="url(#p3773e39c4d)" style="fill: none; stroke: #eef2f7; stroke-opacity: 0.25; stroke-width: 0.55; stroke-linecap: square"/>
     </g>
     <g id="line2d_28">
      <g>
       <use xlink:href="#ma0dde6785c" x="42.190938" y="94.562673" style="stroke: #000000; stroke-width: 0.8"/>
      </g>
     </g>
     <g id="text_15">
      <!-- 0.5 -->
      <g transform="translate(20.878125 97.981969) scale(0.09 -0.09)">
       <defs>
        <path id="DejaVuSans-35" d="M 691 4666 
L 3169 4666 
L 3169 4134 
L 1269 4134 
L 1269 2991 
Q 1406 3038 1543 3061 
Q 1681 3084 1819 3084 
Q 2600 3084 3056 2656 
Q 3513 2228 3513 1497 
Q 3513 744 3044 326 
Q 2575 -91 1722 -91 
Q 1428 -91 1123 -41 
Q 819 9 494 109 
L 494 744 
Q 775 591 1075 516 
Q 1375 441 1709 441 
Q 2250 441 2565 725 
Q 2881 1009 2881 1497 
Q 2881 1984 2565 2268 
Q 2250 2553 1709 2553 
Q 1456 2553 1204 2497 
Q 953 2441 691 2322 
L 691 4666 
z
" transform="scale(0.015625)"/>
       </defs>
       <use xlink:href="#DejaVuSans-30"/>
       <use xlink:href="#DejaVuSans-2e" transform="translate(63.623047 0)"/>
       <use xlink:href="#DejaVuSans-35" transform="translate(95.410156 0)"/>
      </g>
     </g>
    </g>
    <g id="ytick_7">
     <g id="line2d_29">
      <path d="M 42.190938 69.610567 
L 935.353437 69.610567 
" clip-path="url(#p3773e39c4d)" style="fill: none; stroke: #eef2f7; stroke-opacity: 0.25; stroke-width: 0.55; stroke-linecap: square"/>
     </g>
     <g id="line2d_30">
      <g>
       <use xlink:href="#ma0dde6785c" x="42.190938" y="69.610567" style="stroke: #000000; stroke-width: 0.8"/>
      </g>
     </g>
     <g id="text_16">
      <!-- 0.6 -->
      <g transform="translate(20.878125 73.029864) scale(0.09 -0.09)">
       <use xlink:href="#DejaVuSans-30"/>
       <use xlink:href="#DejaVuSans-2e" transform="translate(63.623047 0)"/>
       <use xlink:href="#DejaVuSans-36" transform="translate(95.410156 0)"/>
      </g>
     </g>
    </g>
    <g id="ytick_8">
     <g id="line2d_31">
      <path d="M 42.190938 44.658461 
L 935.353437 44.658461 
" clip-path="url(#p3773e39c4d)" style="fill: none; stroke: #eef2f7; stroke-opacity: 0.25; stroke-width: 0.55; stroke-linecap: square"/>
     </g>
     <g id="line2d_32">
      <g>
       <use xlink:href="#ma0dde6785c" x="42.190938" y="44.658461" style="stroke: #000000; stroke-width: 0.8"/>
      </g>
     </g>
     <g id="text_17">
      <!-- 0.7 -->
      <g transform="translate(20.878125 48.077758) scale(0.09 -0.09)">
       <defs>
        <path id="DejaVuSans-37" d="M 525 4666 
L 3525 4666 
L 3525 4397 
L 1831 0 
L 1172 0 
L 2766 4134 
L 525 4134 
L 525 4666 
z
" transform="scale(0.015625)"/>
       </defs>
       <use xlink:href="#DejaVuSans-30"/>
       <use xlink:href="#DejaVuSans-2e" transform="translate(63.623047 0)"/>
       <use xlink:href="#DejaVuSans-37" transform="translate(95.410156 0)"/>
      </g>
     </g>
    </g>
    <g id="ytick_9">
     <g id="line2d_33">
      <path d="M 42.190938 19.706356 
L 935.353437 19.706356 
" clip-path="url(#p3773e39c4d)" style="fill: none; stroke: #eef2f7; stroke-opacity: 0.25; stroke-width: 0.55; stroke-linecap: square"/>
     </g>
     <g id="line2d_34">
      <g>
       <use xlink:href="#ma0dde6785c" x="42.190938" y="19.706356" style="stroke: #000000; stroke-width: 0.8"/>
      </g>
     </g>
     <g id="text_18">
      <!-- 0.8 -->
      <g transform="translate(20.878125 23.125653) scale(0.09 -0.09)">
       <use xlink:href="#DejaVuSans-30"/>
       <use xlink:href="#DejaVuSans-2e" transform="translate(63.623047 0)"/>
       <use xlink:href="#DejaVuSans-38" transform="translate(95.410156 0)"/>
      </g>
     </g>
    </g>
    <g id="text_19">
     <!-- Velocity (m/s) -->
     <g transform="translate(14.798438 157.273698) rotate(-90) scale(0.1 -0.1)">
      <defs>
       <path id="DejaVuSans-56" d="M 1831 0 
L 50 4666 
L 709 4666 
L 2188 738 
L 3669 4666 
L 4325 4666 
L 2547 0 
L 1831 0 
z
" transform="scale(0.015625)"/>
       <path id="DejaVuSans-6c" d="M 603 4863 
L 1178 4863 
L 1178 0 
L 603 0 
L 603 4863 
z
" transform="scale(0.015625)"/>
       <path id="DejaVuSans-79" d="M 2059 -325 
Q 1816 -950 1584 -1140 
Q 1353 -1331 966 -1331 
L 506 -1331 
L 506 -850 
L 844 -850 
Q 1081 -850 1212 -737 
Q 1344 -625 1503 -206 
L 1606 56 
L 191 3500 
L 800 3500 
L 1894 763 
L 2988 3500 
L 3597 3500 
L 2059 -325 
z
" transform="scale(0.015625)"/>
       <path id="DejaVuSans-28" d="M 1984 4856 
Q 1566 4138 1362 3434 
Q 1159 2731 1159 2009 
Q 1159 1288 1364 580 
Q 1569 -128 1984 -844 
L 1484 -844 
Q 1016 -109 783 600 
Q 550 1309 550 2009 
Q 550 2706 781 3412 
Q 1013 4119 1484 4856 
L 1984 4856 
z
" transform="scale(0.015625)"/>
       <path id="DejaVuSans-6d" d="M 3328 2828 
Q 3544 3216 3844 3400 
Q 4144 3584 4550 3584 
Q 5097 3584 5394 3201 
Q 5691 2819 5691 2113 
L 5691 0 
L 5113 0 
L 5113 2094 
Q 5113 2597 4934 2840 
Q 4756 3084 4391 3084 
Q 3944 3084 3684 2787 
Q 3425 2491 3425 1978 
L 3425 0 
L 2847 0 
L 2847 2094 
Q 2847 2600 2669 2842 
Q 2491 3084 2119 3084 
Q 1678 3084 1418 2786 
Q 1159 2488 1159 1978 
L 1159 0 
L 581 0 
L 581 3500 
L 1159 3500 
L 1159 2956 
Q 1356 3278 1631 3431 
Q 1906 3584 2284 3584 
Q 2666 3584 2933 3390 
Q 3200 3197 3328 2828 
z
" transform="scale(0.015625)"/>
       <path id="DejaVuSans-2f" d="M 1625 4666 
L 2156 4666 
L 531 -594 
L 0 -594 
L 1625 4666 
z
" transform="scale(0.015625)"/>
       <path id="DejaVuSans-29" d="M 513 4856 
L 1013 4856 
Q 1481 4119 1714 3412 
Q 1947 2706 1947 2009 
Q 1947 1309 1714 600 
Q 1481 -109 1013 -844 
L 513 -844 
Q 928 -128 1133 580 
Q 1338 1288 1338 2009 
Q 1338 2731 1133 3434 
Q 928 4138 513 4856 
z
" transform="scale(0.015625)"/>
      </defs>
      <use xlink:href="#DejaVuSans-56"/>
      <use xlink:href="#DejaVuSans-65" transform="translate(60.658203 0)"/>
      <use xlink:href="#DejaVuSans-6c" transform="translate(122.181641 0)"/>
      <use xlink:href="#DejaVuSans-6f" transform="translate(149.964844 0)"/>
      <use xlink:href="#DejaVuSans-63" transform="translate(211.146484 0)"/>
      <use xlink:href="#DejaVuSans-69" transform="translate(266.126953 0)"/>
      <use xlink:href="#DejaVuSans-74" transform="translate(293.910156 0)"/>
      <use xlink:href="#DejaVuSans-79" transform="translate(333.119141 0)"/>
      <use xlink:href="#DejaVuSans-20" transform="translate(392.298828 0)"/>
      <use xlink:href="#DejaVuSans-28" transform="translate(424.085938 0)"/>
      <use xlink:href="#DejaVuSans-6d" transform="translate(463.099609 0)"/>
      <use xlink:href="#DejaVuSans-2f" transform="translate(560.511719 0)"/>
      <use xlink:href="#DejaVuSans-73" transform="translate(594.203125 0)"/>
      <use xlink:href="#DejaVuSans-29" transform="translate(646.302734 0)"/>
     </g>
    </g>
   </g>
   <g id="line2d_35">
    <path d="M 59.367139 205.350021 
L 64.980277 203.353853 
L 70.593415 207.845232 
L 81.819691 207.096668 
L 87.432829 210.589963 
L 93.045967 206.597626 
L 98.659105 205.599542 
L 104.272242 206.348105 
L 109.88538 207.346189 
L 115.498518 204.601458 
L 121.111656 199.361516 
L 123.918225 198.862474 
L 126.724794 198.11391 
L 132.337932 210.340442 
L 137.95107 213.584216 
L 143.564208 209.342358 
L 149.177346 203.353853 
L 154.790483 200.110079 
L 166.016759 203.852895 
L 171.629897 203.852895 
L 177.243035 202.355768 
L 182.856173 205.350021 
L 188.469311 203.603374 
L 194.082449 198.612952 
L 199.695587 195.119658 
L 205.308724 197.864389 
L 210.921862 202.605289 
L 216.535 203.353853 
L 222.148138 188.133068 
L 227.761276 207.845232 
L 233.374414 205.350021 
L 238.987552 200.858642 
L 244.60069 209.591879 
L 250.213827 210.589963 
L 255.826965 211.837568 
L 261.440103 206.348105 
L 267.053241 213.833737 
L 272.666379 203.353853 
L 278.279517 206.348105 
L 283.892655 206.597626 
L 289.505793 209.591879 
L 295.118931 214.831821 
L 300.732068 206.597626 
L 306.345206 209.591879 
L 311.958344 209.092837 
L 317.571482 206.098584 
L 328.797758 204.850979 
L 334.410896 208.843316 
L 340.024034 207.59571 
L 345.637171 209.591879 
L 351.250309 202.85481 
L 356.863447 213.085174 
L 362.476585 206.597626 
L 368.089723 205.599542 
L 379.315999 209.092837 
L 384.929137 211.837568 
L 390.542275 206.098584 
L 396.155412 209.8414 
L 401.76855 206.098584 
L 407.381688 205.350021 
L 412.994826 204.850979 
L 418.607964 201.607205 
L 424.221102 206.348105 
L 429.83424 206.597626 
L 435.447378 200.3596 
L 441.060515 208.344274 
L 446.673653 212.336611 
L 452.286791 217.826074 
L 457.899929 208.094753 
L 463.513067 210.589963 
L 474.739343 206.348105 
L 480.352481 205.849063 
L 485.965619 203.353853 
L 491.578756 204.850979 
L 497.191894 200.3596 
L 502.805032 196.616784 
L 508.41817 183.641689 
L 514.031308 196.117742 
L 519.644446 199.860558 
L 525.257584 200.3596 
L 530.870722 199.111995 
L 536.48386 197.365347 
L 542.096997 194.371095 
L 547.710135 198.862474 
L 553.323273 202.106247 
L 558.936411 208.593795 
L 564.549549 214.083258 
L 570.162687 211.089005 
L 575.775825 210.589963 
L 581.388963 207.59571 
L 587.0021 208.094753 
L 592.615238 210.340442 
L 598.228376 205.849063 
L 603.841514 203.104331 
L 609.454652 204.601458 
L 615.06779 208.593795 
L 620.680928 214.083258 
L 626.294066 206.597626 
L 631.907204 204.351937 
L 643.133479 203.852895 
L 648.746617 206.098584 
L 654.359755 210.340442 
L 659.972893 203.104331 
L 665.586031 206.098584 
L 671.199169 212.087089 
L 676.812307 208.344274 
L 682.425444 204.850979 
L 688.038582 208.843316 
L 693.65172 204.850979 
L 699.264858 209.092837 
L 704.877996 208.344274 
L 710.491134 208.593795 
L 716.104272 206.348105 
L 721.71741 205.849063 
L 727.330548 198.612952 
L 732.943685 200.858642 
L 738.556823 204.601458 
L 744.169961 204.601458 
L 749.783099 203.353853 
L 755.396237 207.346189 
L 761.009375 213.833737 
L 766.622513 217.077511 
L 772.235651 213.085174 
L 777.848788 207.346189 
L 783.461926 206.348105 
L 794.688202 212.586132 
L 800.30134 212.336611 
L 805.914478 203.603374 
L 811.527616 200.110079 
L 817.140754 190.8778 
L 822.753892 196.866305 
L 828.367029 195.868221 
L 833.980167 203.603374 
L 839.593305 203.603374 
L 845.206443 201.856726 
L 850.819581 191.376842 
L 856.432719 201.607205 
L 862.045857 202.605289 
L 867.658995 194.371095 
L 873.272133 204.601458 
L 878.88527 208.593795 
L 884.498408 213.334695 
L 887.304977 210.589963 
L 890.111546 207.59571 
L 895.724684 211.837568 
L 901.337822 212.087089 
L 906.95096 208.593795 
L 912.564098 205.849063 
L 918.177236 206.348105 
L 918.177236 206.348105 
" clip-path="url(#p3773e39c4d)" style="fill: none; stroke: #b8e3b2; stroke-opacity: 0.95; stroke-width: 1.3; stroke-linecap: square"/>
   </g>
   <g id="line2d_36">
    <path d="M 59.367139 212.336611 
L 64.980277 209.342358 
L 70.593415 211.588047 
L 81.819691 207.845232 
L 87.432829 210.340442 
L 93.045967 206.098584 
L 98.659105 207.845232 
L 104.272242 203.104331 
L 109.88538 200.609121 
L 115.498518 207.845232 
L 121.111656 206.348105 
L 123.918225 206.847147 
L 126.724794 207.59571 
L 132.337932 206.348105 
L 137.95107 207.59571 
L 143.564208 206.847147 
L 149.177346 208.593795 
L 154.790483 209.342358 
L 166.016759 209.591879 
L 171.629897 209.092837 
L 177.243035 217.077511 
L 182.856173 205.1005 
L 188.469311 199.860558 
L 194.082449 198.612952 
L 199.695587 198.363431 
L 205.308724 191.127321 
L 210.921862 199.111995 
L 216.535 196.367263 
L 222.148138 200.609121 
L 227.761276 198.363431 
L 233.374414 199.111995 
L 238.987552 203.852895 
L 244.60069 207.845232 
L 250.213827 212.835653 
L 255.826965 207.346189 
L 261.440103 203.104331 
L 267.053241 210.589963 
L 272.666379 208.344274 
L 278.279517 218.075595 
L 283.892655 213.584216 
L 289.505793 215.081342 
L 295.118931 214.831821 
L 300.732068 207.845232 
L 306.345206 214.831821 
L 311.958344 209.591879 
L 317.571482 212.336611 
L 328.797758 214.083258 
L 334.410896 208.593795 
L 340.024034 214.083258 
L 345.637171 211.837568 
L 351.250309 211.089005 
L 356.863447 215.829905 
L 362.476585 211.089005 
L 368.089723 212.586132 
L 373.702861 218.075595 
L 379.315999 213.334695 
L 384.929137 207.346189 
L 390.542275 208.593795 
L 396.155412 211.338526 
L 407.381688 213.833737 
L 412.994826 200.110079 
L 418.607964 198.11391 
L 424.221102 208.593795 
L 429.83424 209.8414 
L 435.447378 203.353853 
L 441.060515 205.350021 
L 452.286791 208.843316 
L 457.899929 210.839484 
L 463.513067 207.59571 
L 474.739343 217.327032 
L 480.352481 215.081342 
L 485.965619 219.3232 
L 491.578756 218.075595 
L 497.191894 208.344274 
L 502.805032 199.860558 
L 508.41817 198.862474 
L 514.031308 199.860558 
L 519.644446 200.609121 
L 525.257584 197.115826 
L 530.870722 196.616784 
L 536.48386 186.386421 
L 542.096997 200.858642 
L 547.710135 197.864389 
L 553.323273 205.1005 
L 558.936411 206.847147 
L 564.549549 212.087089 
L 570.162687 209.8414 
L 575.775825 205.1005 
L 578.582394 207.096668 
L 581.388963 209.342358 
L 587.0021 206.098584 
L 592.615238 204.102416 
L 598.228376 209.092837 
L 603.841514 208.593795 
L 609.454652 209.591879 
L 615.06779 212.336611 
L 620.680928 214.831821 
L 626.294066 207.59571 
L 631.907204 218.574637 
L 643.133479 216.82799 
L 648.746617 210.090921 
L 654.359755 217.077511 
L 659.972893 215.081342 
L 665.586031 214.5823 
L 671.199169 212.087089 
L 676.812307 215.081342 
L 682.425444 217.327032 
L 688.038582 216.578468 
L 693.65172 214.831821 
L 699.264858 208.344274 
L 704.877996 210.090921 
L 710.491134 208.593795 
L 716.104272 210.839484 
L 721.71741 208.593795 
L 727.330548 201.108163 
L 732.943685 191.376842 
L 738.556823 203.104331 
L 744.169961 204.102416 
L 749.783099 199.361516 
L 752.589668 202.85481 
L 755.396237 206.597626 
L 761.009375 206.348105 
L 766.622513 211.837568 
L 772.235651 213.584216 
L 777.848788 205.849063 
L 783.461926 205.350021 
L 794.688202 206.847147 
L 800.30134 209.591879 
L 805.914478 211.837568 
L 811.527616 207.845232 
L 817.140754 195.369179 
L 822.753892 197.115826 
L 828.367029 200.609121 
L 833.980167 200.110079 
L 839.593305 200.110079 
L 845.206443 191.875884 
L 850.819581 199.860558 
L 856.432719 194.870137 
L 862.045857 193.872052 
L 867.658995 204.102416 
L 873.272133 204.601458 
L 878.88527 210.340442 
L 884.498408 205.350021 
L 887.304977 204.850979 
L 890.111546 204.102416 
L 895.724684 200.609121 
L 901.337822 208.843316 
L 906.95096 212.835653 
L 912.564098 209.342358 
L 918.177236 209.342358 
L 918.177236 209.342358 
" clip-path="url(#p3773e39c4d)" style="fill: none; stroke: #98d594; stroke-opacity: 0.95; stroke-width: 1.3; stroke-linecap: square"/>
   </g>
   <g id="line2d_37">
    <path d="M 59.367139 214.083258 
L 64.980277 213.584216 
L 70.593415 218.824158 
L 81.819691 213.833737 
L 87.432829 212.087089 
L 93.045967 148.209699 
L 98.659105 86.078957 
L 104.272242 97.307404 
L 109.88538 96.558841 
L 115.498518 80.589493 
L 121.111656 98.305488 
L 126.724794 133.487957 
L 132.337932 204.351937 
L 137.95107 208.593795 
L 143.564208 207.845232 
L 149.177346 208.843316 
L 154.790483 215.081342 
L 166.016759 216.079426 
L 171.629897 214.5823 
L 177.243035 215.330863 
L 182.856173 129.49562 
L 188.469311 59.629725 
L 194.082449 76.347635 
L 199.695587 81.338057 
L 205.308724 64.620146 
L 210.921862 76.597157 
L 216.535 79.84093 
L 222.148138 61.376372 
L 227.761276 56.385951 
L 233.374414 67.364878 
L 238.987552 149.457305 
L 244.60069 208.344274 
L 250.213827 202.85481 
L 255.826965 219.073679 
L 261.440103 211.588047 
L 267.053241 211.588047 
L 272.666379 210.340442 
L 278.279517 210.589963 
L 283.892655 214.5823 
L 289.505793 214.332779 
L 300.732068 214.831821 
L 306.345206 219.3232 
L 311.958344 215.330863 
L 317.571482 210.839484 
L 328.797758 210.090921 
L 334.410896 209.8414 
L 340.024034 209.8414 
L 345.637171 210.340442 
L 351.250309 209.342358 
L 356.863447 216.328947 
L 362.476585 210.090921 
L 368.089723 211.837568 
L 373.702861 210.839484 
L 379.315999 210.839484 
L 384.929137 208.843316 
L 390.542275 214.332779 
L 396.155412 212.336611 
L 401.76855 214.5823 
L 407.381688 213.334695 
L 412.994826 100.551178 
L 418.607964 75.10003 
L 424.221102 88.823688 
L 429.83424 88.075125 
L 435.447378 76.846678 
L 441.060515 134.23652 
L 446.673653 213.833737 
L 452.286791 215.081342 
L 457.899929 209.342358 
L 463.513067 206.847147 
L 474.739343 213.833737 
L 480.352481 212.586132 
L 485.965619 209.8414 
L 491.578756 208.593795 
L 497.191894 129.994662 
L 502.805032 66.366793 
L 508.41817 79.84093 
L 514.031308 83.084704 
L 519.644446 105.79112 
L 525.257584 59.380204 
L 530.870722 80.839014 
L 536.48386 40.915646 
L 542.096997 86.577999 
L 547.710135 83.084704 
L 553.323273 185.637858 
L 558.936411 207.346189 
L 564.549549 214.831821 
L 570.162687 210.340442 
L 575.775825 206.597626 
L 581.388963 207.59571 
L 587.0021 209.8414 
L 592.615238 212.586132 
L 598.228376 211.338526 
L 603.841514 207.845232 
L 609.454652 219.3232 
L 615.06779 213.085174 
L 620.680928 214.332779 
L 626.294066 210.589963 
L 631.907204 213.085174 
L 643.133479 209.8414 
L 648.746617 214.332779 
L 654.359755 214.332779 
L 659.972893 212.835653 
L 665.586031 208.593795 
L 671.199169 210.090921 
L 676.812307 215.330863 
L 682.425444 209.591879 
L 688.038582 208.843316 
L 693.65172 214.5823 
L 699.264858 208.094753 
L 704.877996 210.090921 
L 710.491134 211.588047 
L 716.104272 209.092837 
L 721.71741 213.833737 
L 727.330548 102.048304 
L 732.943685 82.336141 
L 738.556823 98.055967 
L 744.169961 81.088536 
L 749.783099 85.829436 
L 755.396237 105.541599 
L 761.009375 215.081342 
L 766.622513 208.843316 
L 772.235651 208.593795 
L 777.848788 211.338526 
L 783.461926 210.340442 
L 794.688202 204.850979 
L 800.30134 209.8414 
L 805.914478 212.087089 
L 811.527616 131.242268 
L 817.140754 54.639304 
L 822.753892 69.111525 
L 828.367029 85.080872 
L 833.980167 91.069378 
L 839.593305 88.075125 
L 845.206443 93.315067 
L 850.819581 47.403193 
L 856.432719 84.332309 
L 862.045857 71.357214 
L 867.658995 138.478378 
L 873.272133 213.833737 
L 878.88527 214.831821 
L 884.498408 212.087089 
L 890.111546 210.589963 
L 895.724684 208.593795 
L 901.337822 208.344274 
L 906.95096 217.826074 
L 912.564098 214.332779 
L 918.177236 210.589963 
L 918.177236 210.589963 
" clip-path="url(#p3773e39c4d)" style="fill: none; stroke: #73c476; stroke-opacity: 0.95; stroke-width: 1.3; stroke-linecap: square"/>
   </g>
   <g id="line2d_38">
    <path d="M 59.367139 209.8414 
L 64.980277 209.342358 
L 70.593415 209.8414 
L 81.819691 208.593795 
L 87.432829 209.342358 
L 93.045967 203.603374 
L 98.659105 203.852895 
L 104.272242 200.609121 
L 109.88538 199.111995 
L 115.498518 195.119658 
L 121.111656 197.864389 
L 126.724794 194.870137 
L 132.337932 208.344274 
L 137.95107 209.342358 
L 143.564208 207.845232 
L 149.177346 206.847147 
L 154.790483 209.342358 
L 166.016759 208.344274 
L 171.629897 208.344274 
L 177.243035 208.094753 
L 182.856173 205.1005 
L 188.469311 191.376842 
L 194.082449 182.144563 
L 199.695587 184.140731 
L 205.308724 183.641689 
L 210.921862 187.134984 
L 216.535 186.635942 
L 222.148138 191.626363 
L 227.761276 187.134984 
L 233.374414 176.904621 
L 238.987552 191.875884 
L 244.60069 208.593795 
L 250.213827 208.344274 
L 255.826965 209.342358 
L 261.440103 206.098584 
L 267.053241 208.593795 
L 272.666379 206.348105 
L 278.279517 207.845232 
L 283.892655 206.847147 
L 289.505793 208.843316 
L 295.118931 209.342358 
L 300.732068 207.845232 
L 306.345206 208.843316 
L 311.958344 208.094753 
L 317.571482 207.59571 
L 328.797758 206.348105 
L 334.410896 208.344274 
L 340.024034 207.845232 
L 345.637171 208.843316 
L 351.250309 207.346189 
L 356.863447 208.843316 
L 362.476585 206.348105 
L 368.089723 207.096668 
L 373.702861 208.344274 
L 379.315999 206.597626 
L 384.929137 206.847147 
L 390.542275 208.843316 
L 396.155412 207.096668 
L 401.76855 209.342358 
L 407.381688 208.344274 
L 412.994826 205.350021 
L 418.607964 201.108163 
L 424.221102 196.367263 
L 429.83424 198.612952 
L 435.447378 199.860558 
L 438.253947 198.11391 
L 441.060515 196.616784 
L 446.673653 208.094753 
L 452.286791 207.096668 
L 457.899929 207.845232 
L 463.513067 206.847147 
L 474.739343 207.096668 
L 480.352481 208.593795 
L 485.965619 207.845232 
L 491.578756 207.346189 
L 497.191894 201.607205 
L 502.805032 189.380673 
L 508.41817 183.142647 
L 514.031308 183.142647 
L 519.644446 181.895042 
L 525.257584 188.382589 
L 530.870722 183.392168 
L 536.48386 181.146479 
L 542.096997 182.893126 
L 547.710135 187.883547 
L 553.323273 191.875884 
L 558.936411 210.090921 
L 564.549549 210.340442 
L 570.162687 207.346189 
L 575.775825 207.346189 
L 578.582394 207.845232 
L 581.388963 208.094753 
L 587.0021 208.344274 
L 592.615238 206.847147 
L 598.228376 205.849063 
L 603.841514 208.094753 
L 609.454652 208.593795 
L 615.06779 208.094753 
L 620.680928 207.346189 
L 626.294066 206.098584 
L 631.907204 206.597626 
L 643.133479 208.344274 
L 654.359755 208.344274 
L 659.972893 207.59571 
L 665.586031 207.59571 
L 671.199169 208.843316 
L 676.812307 207.346189 
L 682.425444 208.593795 
L 688.038582 208.843316 
L 693.65172 206.847147 
L 699.264858 208.843316 
L 704.877996 207.096668 
L 710.491134 207.096668 
L 716.104272 206.348105 
L 721.71741 207.845232 
L 727.330548 203.353853 
L 732.943685 198.11391 
L 738.556823 193.872052 
L 744.169961 196.616784 
L 749.783099 200.3596 
L 752.589668 198.862474 
L 755.396237 197.115826 
L 761.009375 209.092837 
L 766.622513 207.845232 
L 772.235651 208.593795 
L 777.848788 208.344274 
L 783.461926 207.096668 
L 794.688202 206.847147 
L 800.30134 207.59571 
L 811.527616 207.096668 
L 817.140754 191.376842 
L 822.753892 187.634026 
L 828.367029 176.904621 
L 833.980167 183.89121 
L 839.593305 181.146479 
L 845.206443 191.626363 
L 850.819581 186.386421 
L 856.432719 180.647437 
L 862.045857 181.895042 
L 867.658995 184.639773 
L 873.272133 206.348105 
L 878.88527 207.096668 
L 884.498408 206.597626 
L 887.304977 206.847147 
L 890.111546 206.847147 
L 895.724684 205.599542 
L 901.337822 205.1005 
L 906.95096 207.59571 
L 912.564098 206.098584 
L 918.177236 206.098584 
L 918.177236 206.098584 
" clip-path="url(#p3773e39c4d)" style="fill: none; stroke: #4bb062; stroke-opacity: 0.95; stroke-width: 1.3; stroke-linecap: square"/>
   </g>
   <g id="line2d_39">
    <path d="M 59.367139 213.584216 
L 64.980277 217.077511 
L 70.593415 211.089005 
L 81.819691 212.336611 
L 87.432829 215.829905 
L 93.045967 209.342358 
L 98.659105 192.125405 
L 104.272242 196.117742 
L 109.88538 194.870137 
L 115.498518 182.893126 
L 121.111656 178.401747 
L 126.724794 182.893126 
L 132.337932 210.340442 
L 137.95107 213.584216 
L 143.564208 216.578468 
L 149.177346 212.586132 
L 154.790483 215.829905 
L 166.016759 214.083258 
L 171.629897 212.087089 
L 177.243035 216.328947 
L 182.856173 204.601458 
L 188.469311 186.635942 
L 194.082449 161.683836 
L 199.695587 165.676173 
L 205.308724 177.154142 
L 210.921862 183.89121 
L 216.535 173.910368 
L 222.148138 141.722152 
L 227.761276 135.484126 
L 233.374414 177.154142 
L 238.987552 184.390252 
L 244.60069 206.348105 
L 250.213827 207.096668 
L 255.826965 212.087089 
L 261.440103 212.087089 
L 267.053241 215.081342 
L 272.666379 212.336611 
L 278.279517 216.079426 
L 283.892655 213.334695 
L 289.505793 214.831821 
L 295.118931 218.075595 
L 300.732068 213.584216 
L 306.345206 219.073679 
L 311.958344 216.079426 
L 317.571482 215.081342 
L 328.797758 215.580384 
L 334.410896 212.336611 
L 340.024034 214.332779 
L 345.637171 215.829905 
L 351.250309 213.334695 
L 356.863447 216.079426 
L 362.476585 212.835653 
L 368.089723 216.079426 
L 373.702861 212.336611 
L 379.315999 214.332779 
L 384.929137 212.835653 
L 390.542275 214.083258 
L 396.155412 215.580384 
L 401.76855 218.325116 
L 407.381688 216.079426 
L 412.994826 198.862474 
L 418.607964 194.121574 
L 424.221102 183.89121 
L 429.83424 184.390252 
L 435.447378 188.133068 
L 441.060515 179.649352 
L 446.673653 208.344274 
L 452.286791 213.085174 
L 457.899929 215.580384 
L 463.513067 214.083258 
L 474.739343 210.839484 
L 480.352481 212.336611 
L 485.965619 215.829905 
L 497.191894 209.342358 
L 502.805032 191.626363 
L 508.41817 171.415157 
L 514.031308 176.405579 
L 519.644446 140.973589 
L 525.257584 151.702994 
L 530.870722 161.683836 
L 536.48386 176.6551 
L 542.096997 165.676173 
L 547.710135 175.157973 
L 553.323273 195.119658 
L 558.936411 207.59571 
L 564.549549 209.092837 
L 570.162687 211.588047 
L 575.775825 216.578468 
L 578.582394 218.075595 
L 581.388963 219.3232 
L 587.0021 215.580384 
L 598.228376 212.586132 
L 603.841514 212.835653 
L 609.454652 212.586132 
L 615.06779 211.837568 
L 620.680928 214.5823 
L 626.294066 213.334695 
L 631.907204 217.327032 
L 643.133479 212.835653 
L 648.746617 215.829905 
L 654.359755 215.081342 
L 659.972893 216.079426 
L 665.586031 212.835653 
L 671.199169 212.835653 
L 676.812307 216.328947 
L 682.425444 212.336611 
L 688.038582 218.075595 
L 699.264858 213.085174 
L 704.877996 211.588047 
L 710.491134 212.586132 
L 716.104272 214.831821 
L 721.71741 212.586132 
L 727.330548 199.611037 
L 732.943685 190.8778 
L 738.556823 191.626363 
L 744.169961 185.637858 
L 755.396237 188.63211 
L 761.009375 214.5823 
L 766.622513 210.090921 
L 772.235651 211.089005 
L 777.848788 213.833737 
L 783.461926 214.332779 
L 794.688202 212.586132 
L 800.30134 212.336611 
L 805.914478 216.079426 
L 811.527616 211.338526 
L 817.140754 182.394084 
L 822.753892 174.658931 
L 828.367029 148.45922 
L 839.593305 179.898873 
L 845.206443 149.207784 
L 850.819581 153.699163 
L 856.432719 178.152226 
L 862.045857 169.418989 
L 867.658995 174.159889 
L 873.272133 214.831821 
L 878.88527 217.826074 
L 884.498408 211.338526 
L 890.111546 214.831821 
L 895.724684 215.330863 
L 901.337822 214.5823 
L 906.95096 215.580384 
L 912.564098 212.586132 
L 918.177236 214.332779 
L 918.177236 214.332779 
" clip-path="url(#p3773e39c4d)" style="fill: none; stroke: #2f974e; stroke-opacity: 0.95; stroke-width: 1.3; stroke-linecap: square"/>
   </g>
   <g id="line2d_40">
    <path d="M 59.367139 215.081342 
L 64.980277 215.330863 
L 70.593415 218.325116 
L 81.819691 214.831821 
L 87.432829 210.090921 
L 93.045967 141.722152 
L 98.659105 95.311236 
L 104.272242 104.543515 
L 109.88538 101.549262 
L 115.498518 94.562673 
L 121.111656 93.814109 
L 126.724794 123.008073 
L 132.337932 207.346189 
L 137.95107 211.338526 
L 143.564208 209.342358 
L 149.177346 209.8414 
L 154.790483 215.580384 
L 166.016759 218.075595 
L 171.629897 216.079426 
L 177.243035 219.3232 
L 182.856173 128.747057 
L 188.469311 52.643135 
L 194.082449 58.631641 
L 199.695587 80.589493 
L 205.308724 77.34572 
L 210.921862 76.347635 
L 216.535 83.833267 
L 222.148138 61.625893 
L 227.761276 47.652714 
L 233.374414 82.835183 
L 238.987552 157.941021 
L 244.60069 211.837568 
L 250.213827 206.597626 
L 255.826965 219.3232 
L 261.440103 218.325116 
L 267.053241 214.831821 
L 272.666379 215.081342 
L 278.279517 219.3232 
L 283.892655 216.079426 
L 295.118931 214.083258 
L 300.732068 219.3232 
L 311.958344 219.3232 
L 317.571482 211.837568 
L 328.797758 217.077511 
L 334.410896 216.079426 
L 340.024034 211.089005 
L 345.637171 212.835653 
L 351.250309 210.340442 
L 356.863447 218.075595 
L 362.476585 215.829905 
L 368.089723 214.332779 
L 373.702861 210.340442 
L 379.315999 210.340442 
L 384.929137 210.589963 
L 390.542275 214.831821 
L 396.155412 215.829905 
L 401.76855 215.829905 
L 407.381688 213.833737 
L 412.994826 99.303573 
L 418.607964 63.871583 
L 424.221102 89.073209 
L 429.83424 89.572251 
L 435.447378 81.088536 
L 441.060515 133.737478 
L 446.673653 210.090921 
L 452.286791 215.580384 
L 457.899929 211.588047 
L 463.513067 207.845232 
L 474.739343 213.833737 
L 480.352481 219.3232 
L 485.965619 214.831821 
L 491.578756 211.338526 
L 497.191894 132.988915 
L 502.805032 50.896488 
L 508.41817 83.833267 
L 514.031308 76.597157 
L 519.644446 97.556925 
L 525.257584 43.410856 
L 530.870722 79.341888 
L 536.48386 47.153672 
L 542.096997 81.088536 
L 547.710135 80.839014 
L 553.323273 182.893126 
L 558.936411 208.094753 
L 564.549549 214.083258 
L 570.162687 214.5823 
L 575.775825 209.591879 
L 578.582394 209.591879 
L 581.388963 209.342358 
L 587.0021 209.591879 
L 592.615238 210.839484 
L 598.228376 212.336611 
L 603.841514 215.081342 
L 609.454652 219.3232 
L 615.06779 210.839484 
L 620.680928 211.338526 
L 626.294066 216.328947 
L 631.907204 216.328947 
L 643.133479 219.3232 
L 648.746617 218.325116 
L 654.359755 218.824158 
L 659.972893 213.584216 
L 665.586031 210.090921 
L 671.199169 214.831821 
L 676.812307 216.82799 
L 682.425444 210.090921 
L 688.038582 211.089005 
L 693.65172 214.5823 
L 699.264858 208.843316 
L 704.877996 210.589963 
L 710.491134 213.085174 
L 716.104272 211.338526 
L 721.71741 215.081342 
L 727.330548 99.303573 
L 732.943685 76.098114 
L 738.556823 88.574167 
L 744.169961 79.092367 
L 749.783099 89.073209 
L 755.396237 107.787288 
L 761.009375 213.833737 
L 766.622513 215.081342 
L 772.235651 214.332779 
L 777.848788 217.077511 
L 783.461926 214.831821 
L 794.688202 205.849063 
L 800.30134 215.580384 
L 805.914478 219.3232 
L 811.527616 138.478378 
L 817.140754 44.907983 
L 822.753892 80.589493 
L 828.367029 72.854341 
L 833.980167 86.328478 
L 839.593305 81.088536 
L 845.206443 80.839014 
L 850.819581 26.692946 
L 856.432719 85.080872 
L 862.045857 72.854341 
L 867.658995 143.219278 
L 873.272133 216.578468 
L 878.88527 215.829905 
L 884.498408 211.588047 
L 887.304977 212.087089 
L 890.111546 212.336611 
L 895.724684 208.593795 
L 901.337822 208.344274 
L 906.95096 217.077511 
L 912.564098 215.081342 
L 918.177236 216.328947 
L 918.177236 216.328947 
" clip-path="url(#p3773e39c4d)" style="fill: none; stroke: #157f3b; stroke-opacity: 0.95; stroke-width: 1.3; stroke-linecap: square"/>
   </g>
   <g id="patch_20">
    <path d="M 42.190938 228.954713 
L 42.190938 17.061433 
" style="fill: none; stroke: #cbd5e1; stroke-width: 0.8; stroke-linejoin: miter; stroke-linecap: square"/>
   </g>
   <g id="patch_21">
    <path d="M 935.353437 228.954713 
L 935.353437 17.061433 
" style="fill: none; stroke: #cbd5e1; stroke-width: 0.8; stroke-linejoin: miter; stroke-linecap: square"/>
   </g>
   <g id="patch_22">
    <path d="M 42.190938 228.954713 
L 935.353437 228.954713 
" style="fill: none; stroke: #cbd5e1; stroke-width: 0.8; stroke-linejoin: miter; stroke-linecap: square"/>
   </g>
   <g id="patch_23">
    <path d="M 42.190938 17.061433 
L 935.353437 17.061433 
" style="fill: none; stroke: #cbd5e1; stroke-width: 0.8; stroke-linejoin: miter; stroke-linecap: square"/>
   </g>
   <g id="text_20">
    <!-- ACC -->
    <g style="fill: #475569" transform="translate(42.526538 13.27875) scale(0.08 -0.08)">
     <defs>
      <path id="DejaVuSans-41" d="M 2188 4044 
L 1331 1722 
L 3047 1722 
L 2188 4044 
z
M 1831 4666 
L 2547 4666 
L 4325 0 
L 3669 0 
L 3244 1197 
L 1141 1197 
L 716 0 
L 50 0 
L 1831 4666 
z
" transform="scale(0.015625)"/>
      <path id="DejaVuSans-43" d="M 4122 4306 
L 4122 3641 
Q 3803 3938 3442 4084 
Q 3081 4231 2675 4231 
Q 1875 4231 1450 3742 
Q 1025 3253 1025 2328 
Q 1025 1406 1450 917 
Q 1875 428 2675 428 
Q 3081 428 3442 575 
Q 3803 722 4122 1019 
L 4122 359 
Q 3791 134 3420 21 
Q 3050 -91 2638 -91 
Q 1578 -91 968 557 
Q 359 1206 359 2328 
Q 359 3453 968 4101 
Q 1578 4750 2638 4750 
Q 3056 4750 3426 4639 
Q 3797 4528 4122 4306 
z
" transform="scale(0.015625)"/>
     </defs>
     <use xlink:href="#DejaVuSans-41"/>
     <use xlink:href="#DejaVuSans-43" transform="translate(66.658203 0)"/>
     <use xlink:href="#DejaVuSans-43" transform="translate(136.482422 0)"/>
    </g>
   </g>
   <g id="text_21">
    <!-- OC -->
    <g style="fill: #475569" transform="translate(73.071247 13.27875) scale(0.08 -0.08)">
     <defs>
      <path id="DejaVuSans-4f" d="M 2522 4238 
Q 1834 4238 1429 3725 
Q 1025 3213 1025 2328 
Q 1025 1447 1429 934 
Q 1834 422 2522 422 
Q 3209 422 3611 934 
Q 4013 1447 4013 2328 
Q 4013 3213 3611 3725 
Q 3209 4238 2522 4238 
z
M 2522 4750 
Q 3503 4750 4090 4092 
Q 4678 3434 4678 2328 
Q 4678 1225 4090 567 
Q 3503 -91 2522 -91 
Q 1538 -91 948 565 
Q 359 1222 359 2328 
Q 359 3434 948 4092 
Q 1538 4750 2522 4750 
z
" transform="scale(0.015625)"/>
     </defs>
     <use xlink:href="#DejaVuSans-4f"/>
     <use xlink:href="#DejaVuSans-43" transform="translate(78.710938 0)"/>
    </g>
   </g>
   <g id="text_22">
    <!-- FCS -->
    <g style="fill: #475569" transform="translate(105.058824 13.27875) scale(0.08 -0.08)">
     <defs>
      <path id="DejaVuSans-46" d="M 628 4666 
L 3309 4666 
L 3309 4134 
L 1259 4134 
L 1259 2759 
L 3109 2759 
L 3109 2228 
L 1259 2228 
L 1259 0 
L 628 0 
L 628 4666 
z
" transform="scale(0.015625)"/>
      <path id="DejaVuSans-53" d="M 3425 4513 
L 3425 3897 
Q 3066 4069 2747 4153 
Q 2428 4238 2131 4238 
Q 1616 4238 1336 4038 
Q 1056 3838 1056 3469 
Q 1056 3159 1242 3001 
Q 1428 2844 1947 2747 
L 2328 2669 
Q 3034 2534 3370 2195 
Q 3706 1856 3706 1288 
Q 3706 609 3251 259 
Q 2797 -91 1919 -91 
Q 1588 -91 1214 -16 
Q 841 59 441 206 
L 441 856 
Q 825 641 1194 531 
Q 1563 422 1919 422 
Q 2459 422 2753 634 
Q 3047 847 3047 1241 
Q 3047 1584 2836 1778 
Q 2625 1972 2144 2069 
L 1759 2144 
Q 1053 2284 737 2584 
Q 422 2884 422 3419 
Q 422 4038 858 4394 
Q 1294 4750 2059 4750 
Q 2388 4750 2728 4690 
Q 3069 4631 3425 4513 
z
" transform="scale(0.015625)"/>
     </defs>
     <use xlink:href="#DejaVuSans-46"/>
     <use xlink:href="#DejaVuSans-43" transform="translate(57.519531 0)"/>
     <use xlink:href="#DejaVuSans-53" transform="translate(127.34375 0)"/>
    </g>
   </g>
   <g id="text_23">
    <!-- SR -->
    <g style="fill: #475569" transform="translate(149.471733 13.27875) scale(0.08 -0.08)">
     <defs>
      <path id="DejaVuSans-52" d="M 2841 2188 
Q 3044 2119 3236 1894 
Q 3428 1669 3622 1275 
L 4263 0 
L 3584 0 
L 2988 1197 
Q 2756 1666 2539 1819 
Q 2322 1972 1947 1972 
L 1259 1972 
L 1259 0 
L 628 0 
L 628 4666 
L 2053 4666 
Q 2853 4666 3247 4331 
Q 3641 3997 3641 3322 
Q 3641 2881 3436 2590 
Q 3231 2300 2841 2188 
z
M 1259 4147 
L 1259 2491 
L 2053 2491 
Q 2509 2491 2742 2702 
Q 2975 2913 2975 3322 
Q 2975 3731 2742 3939 
Q 2509 4147 2053 4147 
L 1259 4147 
z
" transform="scale(0.015625)"/>
     </defs>
     <use xlink:href="#DejaVuSans-53"/>
     <use xlink:href="#DejaVuSans-52" transform="translate(63.476562 0)"/>
    </g>
   </g>
   <g id="text_24">
    <!-- FFC -->
    <g style="fill: #475569" transform="translate(203.527487 13.27875) scale(0.08 -0.08)">
     <use xlink:href="#DejaVuSans-46"/>
     <use xlink:href="#DejaVuSans-46" transform="translate(57.519531 0)"/>
     <use xlink:href="#DejaVuSans-43" transform="translate(115.039062 0)"/>
    </g>
   </g>
   <g id="text_25">
    <!-- SS -->
    <g style="fill: #475569" transform="translate(306.879594 13.27875) scale(0.08 -0.08)">
     <use xlink:href="#DejaVuSans-53"/>
     <use xlink:href="#DejaVuSans-53" transform="translate(63.476562 0)"/>
    </g>
   </g>
   <g id="text_26">
    <!-- OC -->
    <g style="fill: #475569" transform="translate(393.020106 13.27875) scale(0.08 -0.08)">
     <use xlink:href="#DejaVuSans-4f"/>
     <use xlink:href="#DejaVuSans-43" transform="translate(78.710938 0)"/>
    </g>
   </g>
   <g id="text_27">
    <!-- FCS -->
    <g style="fill: #475569" transform="translate(419.394546 13.27875) scale(0.08 -0.08)">
     <use xlink:href="#DejaVuSans-46"/>
     <use xlink:href="#DejaVuSans-43" transform="translate(57.519531 0)"/>
     <use xlink:href="#DejaVuSans-53" transform="translate(127.34375 0)"/>
    </g>
   </g>
   <g id="text_28">
    <!-- SR -->
    <g style="fill: #475569" transform="translate(463.807455 13.27875) scale(0.08 -0.08)">
     <use xlink:href="#DejaVuSans-53"/>
     <use xlink:href="#DejaVuSans-52" transform="translate(63.476562 0)"/>
    </g>
   </g>
   <g id="text_29">
    <!-- FFC -->
    <g style="fill: #475569" transform="translate(517.863209 13.27875) scale(0.08 -0.08)">
     <use xlink:href="#DejaVuSans-46"/>
     <use xlink:href="#DejaVuSans-46" transform="translate(57.519531 0)"/>
     <use xlink:href="#DejaVuSans-43" transform="translate(115.039062 0)"/>
    </g>
   </g>
   <g id="text_30">
    <!-- SS -->
    <g style="fill: #475569" transform="translate(621.215316 13.27875) scale(0.08 -0.08)">
     <use xlink:href="#DejaVuSans-53"/>
     <use xlink:href="#DejaVuSans-53" transform="translate(63.476562 0)"/>
    </g>
   </g>
   <g id="text_31">
    <!-- OC -->
    <g style="fill: #475569" transform="translate(707.355828 13.27875) scale(0.08 -0.08)">
     <use xlink:href="#DejaVuSans-4f"/>
     <use xlink:href="#DejaVuSans-43" transform="translate(78.710938 0)"/>
    </g>
   </g>
   <g id="text_32">
    <!-- FCS -->
    <g style="fill: #475569" transform="translate(733.730267 13.27875) scale(0.08 -0.08)">
     <use xlink:href="#DejaVuSans-46"/>
     <use xlink:href="#DejaVuSans-43" transform="translate(57.519531 0)"/>
     <use xlink:href="#DejaVuSans-53" transform="translate(127.34375 0)"/>
    </g>
   </g>
   <g id="text_33">
    <!-- SR -->
    <g style="fill: #475569" transform="translate(778.143176 13.27875) scale(0.08 -0.08)">
     <use xlink:href="#DejaVuSans-53"/>
     <use xlink:href="#DejaVuSans-52" transform="translate(63.476562 0)"/>
    </g>
   </g>
   <g id="text_34">
    <!-- FFC -->
    <g style="fill: #475569" transform="translate(832.19893 13.27875) scale(0.08 -0.08)">
     <use xlink:href="#DejaVuSans-46"/>
     <use xlink:href="#DejaVuSans-46" transform="translate(57.519531 0)"/>
     <use xlink:href="#DejaVuSans-43" transform="translate(115.039062 0)"/>
    </g>
   </g>
   <g id="text_35">
    <!-- SS -->
    <g style="fill: #475569" transform="translate(887.839365 13.27875) scale(0.08 -0.08)">
     <use xlink:href="#DejaVuSans-53"/>
     <use xlink:href="#DejaVuSans-53" transform="translate(63.476562 0)"/>
    </g>
   </g>
   <g id="legend_1">
    <g id="line2d_41">
     <path d="M 846.228437 27.540183 
L 854.228437 27.540183 
L 862.228437 27.540183 
" style="fill: none; stroke: #b8e3b2; stroke-opacity: 0.95; stroke-width: 1.3; stroke-linecap: square"/>
    </g>
    <g id="text_36">
     <!-- V1 -->
     <g transform="translate(868.628437 30.340183) scale(0.08 -0.08)">
      <use xlink:href="#DejaVuSans-56"/>
      <use xlink:href="#DejaVuSans-31" transform="translate(68.408203 0)"/>
     </g>
    </g>
    <g id="line2d_42">
     <path d="M 846.228437 39.282683 
L 854.228437 39.282683 
L 862.228437 39.282683 
" style="fill: none; stroke: #98d594; stroke-opacity: 0.95; stroke-width: 1.3; stroke-linecap: square"/>
    </g>
    <g id="text_37">
     <!-- V2 -->
     <g transform="translate(868.628437 42.082683) scale(0.08 -0.08)">
      <use xlink:href="#DejaVuSans-56"/>
      <use xlink:href="#DejaVuSans-32" transform="translate(68.408203 0)"/>
     </g>
    </g>
    <g id="line2d_43">
     <path d="M 846.228437 51.025183 
L 854.228437 51.025183 
L 862.228437 51.025183 
" style="fill: none; stroke: #73c476; stroke-opacity: 0.95; stroke-width: 1.3; stroke-linecap: square"/>
    </g>
    <g id="text_38">
     <!-- V3 -->
     <g transform="translate(868.628437 53.825183) scale(0.08 -0.08)">
      <use xlink:href="#DejaVuSans-56"/>
      <use xlink:href="#DejaVuSans-33" transform="translate(68.408203 0)"/>
     </g>
    </g>
    <g id="line2d_44">
     <path d="M 895.190937 27.540183 
L 903.190937 27.540183 
L 911.190937 27.540183 
" style="fill: none; stroke: #4bb062; stroke-opacity: 0.95; stroke-width: 1.3; stroke-linecap: square"/>
    </g>
    <g id="text_39">
     <!-- V4 -->
     <g transform="translate(917.590937 30.340183) scale(0.08 -0.08)">
      <use xlink:href="#DejaVuSans-56"/>
      <use xlink:href="#DejaVuSans-34" transform="translate(68.408203 0)"/>
     </g>
    </g>
    <g id="line2d_45">
     <path d="M 895.190937 39.282683 
L 903.190937 39.282683 
L 911.190937 39.282683 
" style="fill: none; stroke: #2f974e; stroke-opacity: 0.95; stroke-width: 1.3; stroke-linecap: square"/>
    </g>
    <g id="text_40">
     <!-- V5 -->
     <g transform="translate(917.590937 42.082683) scale(0.08 -0.08)">
      <use xlink:href="#DejaVuSans-56"/>
      <use xlink:href="#DejaVuSans-35" transform="translate(68.408203 0)"/>
     </g>
    </g>
    <g id="line2d_46">
     <path d="M 895.190937 51.025183 
L 903.190937 51.025183 
L 911.190937 51.025183 
" style="fill: none; stroke: #157f3b; stroke-opacity: 0.95; stroke-width: 1.3; stroke-linecap: square"/>
    </g>
    <g id="text_41">
     <!-- V6 -->
     <g transform="translate(917.590937 53.825183) scale(0.08 -0.08)">
      <use xlink:href="#DejaVuSans-56"/>
      <use xlink:href="#DejaVuSans-36" transform="translate(68.408203 0)"/>
     </g>
    </g>
   </g>
  </g>
 </g>
 <defs>
  <clipPath id="p3773e39c4d">
   <rect x="42.190938" y="17.061433" width="893.1625" height="211.89328"/>
  </clipPath>
 </defs>
</svg>
