<?xml version="1.0" encoding="utf-8" standalone="no"?>
<!DOCTYPE svg PUBLIC "-//W3C//DTD SVG 1.1//EN"
  "http://www.w3.org/Graphics/SVG/1.1/DTD/svg11.dtd">
<svg xmlns:xlink="http://www.w3.org/1999/xlink" width="942.505625pt" height="265.54315pt" viewBox="0 0 942.505625 265.54315" xmlns="http://www.w3.org/2000/svg" version="1.1">
 <metadata>
  <rdf:RDF xmlns:dc="http://purl.org/dc/elements/1.1/" xmlns:cc="http://creativecommons.org/ns#" xmlns:rdf="http://www.w3.org/1999/02/22-rdf-syntax-ns#">
   <cc:Work>
    <dc:type rdf:resource="http://purl.org/dc/dcmitype/StillImage"/>
    <dc:date>2026-04-17T17:35:38.401485</dc:date>
    <dc:format>image/svg+xml</dc:format>
    <dc:creator>
     <cc:Agent>
      <dc:title>Matplotlib v3.10.8, https://matplotlib.org/</dc:title>
     </cc:Agent>
    </dc:creator>
   </cc:Work>
  </rdf:RDF>
 </metadata>
 <defs>
  <style type="text/css">*{stroke-linejoin: round; stroke-linecap: butt}</style>
 </defs>
 <g id="figure_1">
  <g id="patch_1">
   <path d="M 0 265.54315 
L 942.505625 265.54315 
L 942.505625 0 
L 0 0 
z
" style="fill: #ffffff"/>
  </g>
  <g id="axes_1">
   <g id="patch_2">
    <path d="M 39.330625 228.954713 
L 935.305625 228.954713 
L 935.305625 17.061433 
L 39.330625 17.061433 
z
" style="fill: #ffffff"/>
   </g>
   <g id="patch_3">
    <path d="M 39.330625 228.954713 
L 221.437904 228.954713 
L 221.437904 17.061433 
L 39.330625 17.061433 
z
" clip-path="url(#p40fe94264c)" style="fill: #f8fafc; opacity: 0.45"/>
   </g>
   <g id="patch_4">
    <path d="M 221.437904 228.954713 
L 248.753996 228.954713 
L 248.753996 17.061433 
L 221.437904 17.061433 
z
" clip-path="url(#p40fe94264c)" style="fill: #eff6ff; opacity: 0.45"/>
   </g>
   <g id="patch_5">
    <path d="M 248.753996 228.954713 
L 276.070088 228.954713 
L 276.070088 17.061433 
L 248.753996 17.061433 
z
" clip-path="url(#p40fe94264c)" style="fill: #fef3c7; opacity: 0.45"/>
   </g>
   <g id="patch_6">
    <path d="M 276.070088 228.954713 
L 312.491544 228.954713 
L 312.491544 17.061433 
L 276.070088 17.061433 
z
" clip-path="url(#p40fe94264c)" style="fill: #dcfce7; opacity: 0.45"/>
   </g>
   <g id="patch_7">
    <path d="M 312.491544 228.954713 
L 362.571046 228.954713 
L 362.571046 17.061433 
L 312.491544 17.061433 
z
" clip-path="url(#p40fe94264c)" style="fill: #fee2e2; opacity: 0.45"/>
   </g>
   <g id="patch_8">
    <path d="M 362.571046 228.954713 
L 480.940778 228.954713 
L 480.940778 17.061433 
L 362.571046 17.061433 
z
" clip-path="url(#p40fe94264c)" style="fill: #ede9fe; opacity: 0.45"/>
   </g>
   <g id="patch_9">
    <path d="M 480.940778 228.954713 
L 503.704188 228.954713 
L 503.704188 17.061433 
L 480.940778 17.061433 
z
" clip-path="url(#p40fe94264c)" style="fill: #f8fafc; opacity: 0.45"/>
   </g>
   <g id="patch_10">
    <path d="M 503.704188 228.954713 
L 531.02028 228.954713 
L 531.02028 17.061433 
L 503.704188 17.061433 
z
" clip-path="url(#p40fe94264c)" style="fill: #eff6ff; opacity: 0.45"/>
   </g>
   <g id="patch_11">
    <path d="M 531.02028 228.954713 
L 567.441735 228.954713 
L 567.441735 17.061433 
L 531.02028 17.061433 
z
" clip-path="url(#p40fe94264c)" style="fill: #fef3c7; opacity: 0.45"/>
   </g>
   <g id="patch_12">
    <path d="M 567.441735 228.954713 
L 617.521237 228.954713 
L 617.521237 17.061433 
L 567.441735 17.061433 
z
" clip-path="url(#p40fe94264c)" style="fill: #dcfce7; opacity: 0.45"/>
   </g>
   <g id="patch_13">
    <path d="M 617.521237 228.954713 
L 735.890969 228.954713 
L 735.890969 17.061433 
L 617.521237 17.061433 
z
" clip-path="url(#p40fe94264c)" style="fill: #fee2e2; opacity: 0.45"/>
   </g>
   <g id="patch_14">
    <path d="M 735.890969 228.954713 
L 758.654379 228.954713 
L 758.654379 17.061433 
L 735.890969 17.061433 
z
" clip-path="url(#p40fe94264c)" style="fill: #ede9fe; opacity: 0.45"/>
   </g>
   <g id="patch_15">
    <path d="M 758.654379 228.954713 
L 785.970471 228.954713 
L 785.970471 17.061433 
L 758.654379 17.061433 
z
" clip-path="url(#p40fe94264c)" style="fill: #f8fafc; opacity: 0.45"/>
   </g>
   <g id="patch_16">
    <path d="M 785.970471 228.954713 
L 822.391927 228.954713 
L 822.391927 17.061433 
L 785.970471 17.061433 
z
" clip-path="url(#p40fe94264c)" style="fill: #eff6ff; opacity: 0.45"/>
   </g>
   <g id="patch_17">
    <path d="M 822.391927 228.954713 
L 872.471429 228.954713 
L 872.471429 17.061433 
L 822.391927 17.061433 
z
" clip-path="url(#p40fe94264c)" style="fill: #fef3c7; opacity: 0.45"/>
   </g>
   <g id="patch_18">
    <path d="M 872.471429 228.954713 
L 913.445566 228.954713 
L 913.445566 17.061433 
L 872.471429 17.061433 
z
" clip-path="url(#p40fe94264c)" style="fill: #dcfce7; opacity: 0.45"/>
   </g>
   <g id="patch_19">
    <path d="M 913.445566 228.954713 
L 917.998248 228.954713 
L 917.998248 17.061433 
L 913.445566 17.061433 
z
" clip-path="url(#p40fe94264c)" style="fill: #fee2e2; opacity: 0.45"/>
   </g>
   <g id="matplotlib.axis_1">
    <g id="xtick_1">
     <g id="line2d_1">
      <path d="M 39.330625 228.954713 
L 39.330625 17.061433 
" clip-path="url(#p40fe94264c)" style="fill: none; stroke: #eef2f7; stroke-width: 0.55; stroke-linecap: square"/>
     </g>
     <g id="line2d_2">
      <defs>
       <path id="m1b603ebb0f" d="M 0 0 
L 0 3.5 
" style="stroke: #000000; stroke-width: 0.8"/>
      </defs>
      <g>
       <use xlink:href="#m1b603ebb0f" x="39.330625" y="228.954713" style="stroke: #000000; stroke-width: 0.8"/>
      </g>
     </g>
     <g id="text_1">
      <!-- 0 -->
      <g transform="translate(36.4675 242.793307) scale(0.09 -0.09)">
       <defs>
        <path id="DejaVuSans-30" d="M 2034 4250 
Q 1547 4250 1301 3770 
Q 1056 3291 1056 2328 
Q 1056 1369 1301 889 
Q 1547 409 2034 409 
Q 2525 409 2770 889 
Q 3016 1369 3016 2328 
Q 3016 3291 2770 3770 
Q 2525 4250 2034 4250 
z
M 2034 4750 
Q 2819 4750 3233 4129 
Q 3647 3509 3647 2328 
Q 3647 1150 3233 529 
Q 2819 -91 2034 -91 
Q 1250 -91 836 529 
Q 422 1150 422 2328 
Q 422 3509 836 4129 
Q 1250 4750 2034 4750 
z
" transform="scale(0.015625)"/>
       </defs>
       <use xlink:href="#DejaVuSans-30"/>
      </g>
     </g>
    </g>
    <g id="xtick_2">
     <g id="line2d_3">
      <path d="M 153.147675 228.954713 
L 153.147675 17.061433 
" clip-path="url(#p40fe94264c)" style="fill: none; stroke: #eef2f7; stroke-width: 0.55; stroke-linecap: square"/>
     </g>
     <g id="line2d_4">
      <g>
       <use xlink:href="#m1b603ebb0f" x="153.147675" y="228.954713" style="stroke: #000000; stroke-width: 0.8"/>
      </g>
     </g>
     <g id="text_2">
      <!-- 25 -->
      <g transform="translate(147.421425 242.793307) scale(0.09 -0.09)">
       <defs>
        <path id="DejaVuSans-32" d="M 1228 531 
L 3431 531 
L 3431 0 
L 469 0 
L 469 531 
Q 828 903 1448 1529 
Q 2069 2156 2228 2338 
Q 2531 2678 2651 2914 
Q 2772 3150 2772 3378 
Q 2772 3750 2511 3984 
Q 2250 4219 1831 4219 
Q 1534 4219 1204 4116 
Q 875 4013 500 3803 
L 500 4441 
Q 881 4594 1212 4672 
Q 1544 4750 1819 4750 
Q 2544 4750 2975 4387 
Q 3406 4025 3406 3419 
Q 3406 3131 3298 2873 
Q 3191 2616 2906 2266 
Q 2828 2175 2409 1742 
Q 1991 1309 1228 531 
z
" transform="scale(0.015625)"/>
        <path id="DejaVuSans-35" d="M 691 4666 
L 3169 4666 
L 3169 4134 
L 1269 4134 
L 1269 2991 
Q 1406 3038 1543 3061 
Q 1681 3084 1819 3084 
Q 2600 3084 3056 2656 
Q 3513 2228 3513 1497 
Q 3513 744 3044 326 
Q 2575 -91 1722 -91 
Q 1428 -91 1123 -41 
Q 819 9 494 109 
L 494 744 
Q 775 591 1075 516 
Q 1375 441 1709 441 
Q 2250 441 2565 725 
Q 2881 1009 2881 1497 
Q 2881 1984 2565 2268 
Q 2250 2553 1709 2553 
Q 1456 2553 1204 2497 
Q 953 2441 691 2322 
L 691 4666 
z
" transform="scale(0.015625)"/>
       </defs>
       <use xlink:href="#DejaVuSans-32"/>
       <use xlink:href="#DejaVuSans-35" transform="translate(63.623047 0)"/>
      </g>
     </g>
    </g>
    <g id="xtick_3">
     <g id="line2d_5">
      <path d="M 266.964724 228.954713 
L 266.964724 17.061433 
" clip-path="url(#p40fe94264c)" style="fill: none; stroke: #eef2f7; stroke-width: 0.55; stroke-linecap: square"/>
     </g>
     <g id="line2d_6">
      <g>
       <use xlink:href="#m1b603ebb0f" x="266.964724" y="228.954713" style="stroke: #000000; stroke-width: 0.8"/>
      </g>
     </g>
     <g id="text_3">
      <!-- 50 -->
      <g transform="translate(261.238474 242.793307) scale(0.09 -0.09)">
       <use xlink:href="#DejaVuSans-35"/>
       <use xlink:href="#DejaVuSans-30" transform="translate(63.623047 0)"/>
      </g>
     </g>
    </g>
    <g id="xtick_4">
     <g id="line2d_7">
      <path d="M 380.781774 228.954713 
L 380.781774 17.061433 
" clip-path="url(#p40fe94264c)" style="fill: none; stroke: #eef2f7; stroke-width: 0.55; stroke-linecap: square"/>
     </g>
     <g id="line2d_8">
      <g>
       <use xlink:href="#m1b603ebb0f" x="380.781774" y="228.954713" style="stroke: #000000; stroke-width: 0.8"/>
      </g>
     </g>
     <g id="text_4">
      <!-- 75 -->
      <g transform="translate(375.055524 242.793307) scale(0.09 -0.09)">
       <defs>
        <path id="DejaVuSans-37" d="M 525 4666 
L 3525 4666 
L 3525 4397 
L 1831 0 
L 1172 0 
L 2766 4134 
L 525 4134 
L 525 4666 
z
" transform="scale(0.015625)"/>
       </defs>
       <use xlink:href="#DejaVuSans-37"/>
       <use xlink:href="#DejaVuSans-35" transform="translate(63.623047 0)"/>
      </g>
     </g>
    </g>
    <g id="xtick_5">
     <g id="line2d_9">
      <path d="M 494.598824 228.954713 
L 494.598824 17.061433 
" clip-path="url(#p40fe94264c)" style="fill: none; stroke: #eef2f7; stroke-width: 0.55; stroke-linecap: square"/>
     </g>
     <g id="line2d_10">
      <g>
       <use xlink:href="#m1b603ebb0f" x="494.598824" y="228.954713" style="stroke: #000000; stroke-width: 0.8"/>
      </g>
     </g>
     <g id="text_5">
      <!-- 100 -->
      <g transform="translate(486.009449 242.793307) scale(0.09 -0.09)">
       <defs>
        <path id="DejaVuSans-31" d="M 794 531 
L 1825 531 
L 1825 4091 
L 703 3866 
L 703 4441 
L 1819 4666 
L 2450 4666 
L 2450 531 
L 3481 531 
L 3481 0 
L 794 0 
L 794 531 
z
" transform="scale(0.015625)"/>
       </defs>
       <use xlink:href="#DejaVuSans-31"/>
       <use xlink:href="#DejaVuSans-30" transform="translate(63.623047 0)"/>
       <use xlink:href="#DejaVuSans-30" transform="translate(127.246094 0)"/>
      </g>
     </g>
    </g>
    <g id="xtick_6">
     <g id="line2d_11">
      <path d="M 608.415873 228.954713 
L 608.415873 17.061433 
" clip-path="url(#p40fe94264c)" style="fill: none; stroke: #eef2f7; stroke-width: 0.55; stroke-linecap: square"/>
     </g>
     <g id="line2d_12">
      <g>
       <use xlink:href="#m1b603ebb0f" x="608.415873" y="228.954713" style="stroke: #000000; stroke-width: 0.8"/>
      </g>
     </g>
     <g id="text_6">
      <!-- 125 -->
      <g transform="translate(599.826498 242.793307) scale(0.09 -0.09)">
       <use xlink:href="#DejaVuSans-31"/>
       <use xlink:href="#DejaVuSans-32" transform="translate(63.623047 0)"/>
       <use xlink:href="#DejaVuSans-35" transform="translate(127.246094 0)"/>
      </g>
     </g>
    </g>
    <g id="xtick_7">
     <g id="line2d_13">
      <path d="M 722.232923 228.954713 
L 722.232923 17.061433 
" clip-path="url(#p40fe94264c)" style="fill: none; stroke: #eef2f7; stroke-width: 0.55; stroke-linecap: square"/>
     </g>
     <g id="line2d_14">
      <g>
       <use xlink:href="#m1b603ebb0f" x="722.232923" y="228.954713" style="stroke: #000000; stroke-width: 0.8"/>
      </g>
     </g>
     <g id="text_7">
      <!-- 150 -->
      <g transform="translate(713.643548 242.793307) scale(0.09 -0.09)">
       <use xlink:href="#DejaVuSans-31"/>
       <use xlink:href="#DejaVuSans-35" transform="translate(63.623047 0)"/>
       <use xlink:href="#DejaVuSans-30" transform="translate(127.246094 0)"/>
      </g>
     </g>
    </g>
    <g id="xtick_8">
     <g id="line2d_15">
      <path d="M 836.049973 228.954713 
L 836.049973 17.061433 
" clip-path="url(#p40fe94264c)" style="fill: none; stroke: #eef2f7; stroke-width: 0.55; stroke-linecap: square"/>
     </g>
     <g id="line2d_16">
      <g>
       <use xlink:href="#m1b603ebb0f" x="836.049973" y="228.954713" style="stroke: #000000; stroke-width: 0.8"/>
      </g>
     </g>
     <g id="text_8">
      <!-- 175 -->
      <g transform="translate(827.460598 242.793307) scale(0.09 -0.09)">
       <use xlink:href="#DejaVuSans-31"/>
       <use xlink:href="#DejaVuSans-37" transform="translate(63.623047 0)"/>
       <use xlink:href="#DejaVuSans-35" transform="translate(127.246094 0)"/>
      </g>
     </g>
    </g>
    <g id="text_9">
     <!-- Minutes since session start -->
     <g transform="translate(419.728281 256.263463) scale(0.1 -0.1)">
      <defs>
       <path id="DejaVuSans-4d" d="M 628 4666 
L 1569 4666 
L 2759 1491 
L 3956 4666 
L 4897 4666 
L 4897 0 
L 4281 0 
L 4281 4097 
L 3078 897 
L 2444 897 
L 1241 4097 
L 1241 0 
L 628 0 
L 628 4666 
z
" transform="scale(0.015625)"/>
       <path id="DejaVuSans-69" d="M 603 3500 
L 1178 3500 
L 1178 0 
L 603 0 
L 603 3500 
z
M 603 4863 
L 1178 4863 
L 1178 4134 
L 603 4134 
L 603 4863 
z
" transform="scale(0.015625)"/>
       <path id="DejaVuSans-6e" d="M 3513 2113 
L 3513 0 
L 2938 0 
L 2938 2094 
Q 2938 2591 2744 2837 
Q 2550 3084 2163 3084 
Q 1697 3084 1428 2787 
Q 1159 2491 1159 1978 
L 1159 0 
L 581 0 
L 581 3500 
L 1159 3500 
L 1159 2956 
Q 1366 3272 1645 3428 
Q 1925 3584 2291 3584 
Q 2894 3584 3203 3211 
Q 3513 2838 3513 2113 
z
" transform="scale(0.015625)"/>
       <path id="DejaVuSans-75" d="M 544 1381 
L 544 3500 
L 1119 3500 
L 1119 1403 
Q 1119 906 1312 657 
Q 1506 409 1894 409 
Q 2359 409 2629 706 
Q 2900 1003 2900 1516 
L 2900 3500 
L 3475 3500 
L 3475 0 
L 2900 0 
L 2900 538 
Q 2691 219 2414 64 
Q 2138 -91 1772 -91 
Q 1169 -91 856 284 
Q 544 659 544 1381 
z
M 1991 3584 
L 1991 3584 
z
" transform="scale(0.015625)"/>
       <path id="DejaVuSans-74" d="M 1172 4494 
L 1172 3500 
L 2356 3500 
L 2356 3053 
L 1172 3053 
L 1172 1153 
Q 1172 725 1289 603 
Q 1406 481 1766 481 
L 2356 481 
L 2356 0 
L 1766 0 
Q 1100 0 847 248 
Q 594 497 594 1153 
L 594 3053 
L 172 3053 
L 172 3500 
L 594 3500 
L 594 4494 
L 1172 4494 
z
" transform="scale(0.015625)"/>
       <path id="DejaVuSans-65" d="M 3597 1894 
L 3597 1613 
L 953 1613 
Q 991 1019 1311 708 
Q 1631 397 2203 397 
Q 2534 397 2845 478 
Q 3156 559 3463 722 
L 3463 178 
Q 3153 47 2828 -22 
Q 2503 -91 2169 -91 
Q 1331 -91 842 396 
Q 353 884 353 1716 
Q 353 2575 817 3079 
Q 1281 3584 2069 3584 
Q 2775 3584 3186 3129 
Q 3597 2675 3597 1894 
z
M 3022 2063 
Q 3016 2534 2758 2815 
Q 2500 3097 2075 3097 
Q 1594 3097 1305 2825 
Q 1016 2553 972 2059 
L 3022 2063 
z
" transform="scale(0.015625)"/>
       <path id="DejaVuSans-73" d="M 2834 3397 
L 2834 2853 
Q 2591 2978 2328 3040 
Q 2066 3103 1784 3103 
Q 1356 3103 1142 2972 
Q 928 2841 928 2578 
Q 928 2378 1081 2264 
Q 1234 2150 1697 2047 
L 1894 2003 
Q 2506 1872 2764 1633 
Q 3022 1394 3022 966 
Q 3022 478 2636 193 
Q 2250 -91 1575 -91 
Q 1294 -91 989 -36 
Q 684 19 347 128 
L 347 722 
Q 666 556 975 473 
Q 1284 391 1588 391 
Q 1994 391 2212 530 
Q 2431 669 2431 922 
Q 2431 1156 2273 1281 
Q 2116 1406 1581 1522 
L 1381 1569 
Q 847 1681 609 1914 
Q 372 2147 372 2553 
Q 372 3047 722 3315 
Q 1072 3584 1716 3584 
Q 2034 3584 2315 3537 
Q 2597 3491 2834 3397 
z
" transform="scale(0.015625)"/>
       <path id="DejaVuSans-20" transform="scale(0.015625)"/>
       <path id="DejaVuSans-63" d="M 3122 3366 
L 3122 2828 
Q 2878 2963 2633 3030 
Q 2388 3097 2138 3097 
Q 1578 3097 1268 2742 
Q 959 2388 959 1747 
Q 959 1106 1268 751 
Q 1578 397 2138 397 
Q 2388 397 2633 464 
Q 2878 531 3122 666 
L 3122 134 
Q 2881 22 2623 -34 
Q 2366 -91 2075 -91 
Q 1284 -91 818 406 
Q 353 903 353 1747 
Q 353 2603 823 3093 
Q 1294 3584 2113 3584 
Q 2378 3584 2631 3529 
Q 2884 3475 3122 3366 
z
" transform="scale(0.015625)"/>
       <path id="DejaVuSans-6f" d="M 1959 3097 
Q 1497 3097 1228 2736 
Q 959 2375 959 1747 
Q 959 1119 1226 758 
Q 1494 397 1959 397 
Q 2419 397 2687 759 
Q 2956 1122 2956 1747 
Q 2956 2369 2687 2733 
Q 2419 3097 1959 3097 
z
M 1959 3584 
Q 2709 3584 3137 3096 
Q 3566 2609 3566 1747 
Q 3566 888 3137 398 
Q 2709 -91 1959 -91 
Q 1206 -91 779 398 
Q 353 888 353 1747 
Q 353 2609 779 3096 
Q 1206 3584 1959 3584 
z
" transform="scale(0.015625)"/>
       <path id="DejaVuSans-61" d="M 2194 1759 
Q 1497 1759 1228 1600 
Q 959 1441 959 1056 
Q 959 750 1161 570 
Q 1363 391 1709 391 
Q 2188 391 2477 730 
Q 2766 1069 2766 1631 
L 2766 1759 
L 2194 1759 
z
M 3341 1997 
L 3341 0 
L 2766 0 
L 2766 531 
Q 2569 213 2275 61 
Q 1981 -91 1556 -91 
Q 1019 -91 701 211 
Q 384 513 384 1019 
Q 384 1609 779 1909 
Q 1175 2209 1959 2209 
L 2766 2209 
L 2766 2266 
Q 2766 2663 2505 2880 
Q 2244 3097 1772 3097 
Q 1472 3097 1187 3025 
Q 903 2953 641 2809 
L 641 3341 
Q 956 3463 1253 3523 
Q 1550 3584 1831 3584 
Q 2591 3584 2966 3190 
Q 3341 2797 3341 1997 
z
" transform="scale(0.015625)"/>
       <path id="DejaVuSans-72" d="M 2631 2963 
Q 2534 3019 2420 3045 
Q 2306 3072 2169 3072 
Q 1681 3072 1420 2755 
Q 1159 2438 1159 1844 
L 1159 0 
L 581 0 
L 581 3500 
L 1159 3500 
L 1159 2956 
Q 1341 3275 1631 3429 
Q 1922 3584 2338 3584 
Q 2397 3584 2469 3576 
Q 2541 3569 2628 3553 
L 2631 2963 
z
" transform="scale(0.015625)"/>
      </defs>
      <use xlink:href="#DejaVuSans-4d"/>
      <use xlink:href="#DejaVuSans-69" transform="translate(86.279297 0)"/>
      <use xlink:href="#DejaVuSans-6e" transform="translate(114.0625 0)"/>
      <use xlink:href="#DejaVuSans-75" transform="translate(177.441406 0)"/>
      <use xlink:href="#DejaVuSans-74" transform="translate(240.820312 0)"/>
      <use xlink:href="#DejaVuSans-65" transform="translate(280.029297 0)"/>
      <use xlink:href="#DejaVuSans-73" transform="translate(341.552734 0)"/>
      <use xlink:href="#DejaVuSans-20" transform="translate(393.652344 0)"/>
      <use xlink:href="#DejaVuSans-73" transform="translate(425.439453 0)"/>
      <use xlink:href="#DejaVuSans-69" transform="translate(477.539062 0)"/>
      <use xlink:href="#DejaVuSans-6e" transform="translate(505.322266 0)"/>
      <use xlink:href="#DejaVuSans-63" transform="translate(568.701172 0)"/>
      <use xlink:href="#DejaVuSans-65" transform="translate(623.681641 0)"/>
      <use xlink:href="#DejaVuSans-20" transform="translate(685.205078 0)"/>
      <use xlink:href="#DejaVuSans-73" transform="translate(716.992188 0)"/>
      <use xlink:href="#DejaVuSans-65" transform="translate(769.091797 0)"/>
      <use xlink:href="#DejaVuSans-73" transform="translate(830.615234 0)"/>
      <use xlink:href="#DejaVuSans-73" transform="translate(882.714844 0)"/>
      <use xlink:href="#DejaVuSans-69" transform="translate(934.814453 0)"/>
      <use xlink:href="#DejaVuSans-6f" transform="translate(962.597656 0)"/>
      <use xlink:href="#DejaVuSans-6e" transform="translate(1023.779297 0)"/>
      <use xlink:href="#DejaVuSans-20" transform="translate(1087.158203 0)"/>
      <use xlink:href="#DejaVuSans-73" transform="translate(1118.945312 0)"/>
      <use xlink:href="#DejaVuSans-74" transform="translate(1171.044922 0)"/>
      <use xlink:href="#DejaVuSans-61" transform="translate(1210.253906 0)"/>
      <use xlink:href="#DejaVuSans-72" transform="translate(1271.533203 0)"/>
      <use xlink:href="#DejaVuSans-74" transform="translate(1312.646484 0)"/>
     </g>
    </g>
   </g>
   <g id="matplotlib.axis_2">
    <g id="ytick_1">
     <g id="line2d_17">
      <path d="M 39.330625 227.698429 
L 935.305625 227.698429 
" clip-path="url(#p40fe94264c)" style="fill: none; stroke: #eef2f7; stroke-opacity: 0.25; stroke-width: 0.55; stroke-linecap: square"/>
     </g>
     <g id="line2d_18">
      <defs>
       <path id="m80319a66f4" d="M 0 0 
L -3.5 0 
" style="stroke: #000000; stroke-width: 0.8"/>
      </defs>
      <g>
       <use xlink:href="#m80319a66f4" x="39.330625" y="227.698429" style="stroke: #000000; stroke-width: 0.8"/>
      </g>
     </g>
     <g id="text_10">
      <!-- 28 -->
      <g transform="translate(20.878125 231.117725) scale(0.09 -0.09)">
       <defs>
        <path id="DejaVuSans-38" d="M 2034 2216 
Q 1584 2216 1326 1975 
Q 1069 1734 1069 1313 
Q 1069 891 1326 650 
Q 1584 409 2034 409 
Q 2484 409 2743 651 
Q 3003 894 3003 1313 
Q 3003 1734 2745 1975 
Q 2488 2216 2034 2216 
z
M 1403 2484 
Q 997 2584 770 2862 
Q 544 3141 544 3541 
Q 544 4100 942 4425 
Q 1341 4750 2034 4750 
Q 2731 4750 3128 4425 
Q 3525 4100 3525 3541 
Q 3525 3141 3298 2862 
Q 3072 2584 2669 2484 
Q 3125 2378 3379 2068 
Q 3634 1759 3634 1313 
Q 3634 634 3220 271 
Q 2806 -91 2034 -91 
Q 1263 -91 848 271 
Q 434 634 434 1313 
Q 434 1759 690 2068 
Q 947 2378 1403 2484 
z
M 1172 3481 
Q 1172 3119 1398 2916 
Q 1625 2713 2034 2713 
Q 2441 2713 2670 2916 
Q 2900 3119 2900 3481 
Q 2900 3844 2670 4047 
Q 2441 4250 2034 4250 
Q 1625 4250 1398 4047 
Q 1172 3844 1172 3481 
z
" transform="scale(0.015625)"/>
       </defs>
       <use xlink:href="#DejaVuSans-32"/>
       <use xlink:href="#DejaVuSans-38" transform="translate(63.623047 0)"/>
      </g>
     </g>
    </g>
    <g id="ytick_2">
     <g id="line2d_19">
      <path d="M 39.330625 197.919838 
L 935.305625 197.919838 
" clip-path="url(#p40fe94264c)" style="fill: none; stroke: #eef2f7; stroke-opacity: 0.25; stroke-width: 0.55; stroke-linecap: square"/>
     </g>
     <g id="line2d_20">
      <g>
       <use xlink:href="#m80319a66f4" x="39.330625" y="197.919838" style="stroke: #000000; stroke-width: 0.8"/>
      </g>
     </g>
     <g id="text_11">
      <!-- 29 -->
      <g transform="translate(20.878125 201.339135) scale(0.09 -0.09)">
       <defs>
        <path id="DejaVuSans-39" d="M 703 97 
L 703 672 
Q 941 559 1184 500 
Q 1428 441 1663 441 
Q 2288 441 2617 861 
Q 2947 1281 2994 2138 
Q 2813 1869 2534 1725 
Q 2256 1581 1919 1581 
Q 1219 1581 811 2004 
Q 403 2428 403 3163 
Q 403 3881 828 4315 
Q 1253 4750 1959 4750 
Q 2769 4750 3195 4129 
Q 3622 3509 3622 2328 
Q 3622 1225 3098 567 
Q 2575 -91 1691 -91 
Q 1453 -91 1209 -44 
Q 966 3 703 97 
z
M 1959 2075 
Q 2384 2075 2632 2365 
Q 2881 2656 2881 3163 
Q 2881 3666 2632 3958 
Q 2384 4250 1959 4250 
Q 1534 4250 1286 3958 
Q 1038 3666 1038 3163 
Q 1038 2656 1286 2365 
Q 1534 2075 1959 2075 
z
" transform="scale(0.015625)"/>
       </defs>
       <use xlink:href="#DejaVuSans-32"/>
       <use xlink:href="#DejaVuSans-39" transform="translate(63.623047 0)"/>
      </g>
     </g>
    </g>
    <g id="ytick_3">
     <g id="line2d_21">
      <path d="M 39.330625 168.141248 
L 935.305625 168.141248 
" clip-path="url(#p40fe94264c)" style="fill: none; stroke: #eef2f7; stroke-opacity: 0.25; stroke-width: 0.55; stroke-linecap: square"/>
     </g>
     <g id="line2d_22">
      <g>
       <use xlink:href="#m80319a66f4" x="39.330625" y="168.141248" style="stroke: #000000; stroke-width: 0.8"/>
      </g>
     </g>
     <g id="text_12">
      <!-- 30 -->
      <g transform="translate(20.878125 171.560545) scale(0.09 -0.09)">
       <defs>
        <path id="DejaVuSans-33" d="M 2597 2516 
Q 3050 2419 3304 2112 
Q 3559 1806 3559 1356 
Q 3559 666 3084 287 
Q 2609 -91 1734 -91 
Q 1441 -91 1130 -33 
Q 819 25 488 141 
L 488 750 
Q 750 597 1062 519 
Q 1375 441 1716 441 
Q 2309 441 2620 675 
Q 2931 909 2931 1356 
Q 2931 1769 2642 2001 
Q 2353 2234 1838 2234 
L 1294 2234 
L 1294 2753 
L 1863 2753 
Q 2328 2753 2575 2939 
Q 2822 3125 2822 3475 
Q 2822 3834 2567 4026 
Q 2313 4219 1838 4219 
Q 1578 4219 1281 4162 
Q 984 4106 628 3988 
L 628 4550 
Q 988 4650 1302 4700 
Q 1616 4750 1894 4750 
Q 2613 4750 3031 4423 
Q 3450 4097 3450 3541 
Q 3450 3153 3228 2886 
Q 3006 2619 2597 2516 
z
" transform="scale(0.015625)"/>
       </defs>
       <use xlink:href="#DejaVuSans-33"/>
       <use xlink:href="#DejaVuSans-30" transform="translate(63.623047 0)"/>
      </g>
     </g>
    </g>
    <g id="ytick_4">
     <g id="line2d_23">
      <path d="M 39.330625 138.362658 
L 935.305625 138.362658 
" clip-path="url(#p40fe94264c)" style="fill: none; stroke: #eef2f7; stroke-opacity: 0.25; stroke-width: 0.55; stroke-linecap: square"/>
     </g>
     <g id="line2d_24">
      <g>
       <use xlink:href="#m80319a66f4" x="39.330625" y="138.362658" style="stroke: #000000; stroke-width: 0.8"/>
      </g>
     </g>
     <g id="text_13">
      <!-- 31 -->
      <g transform="translate(20.878125 141.781955) scale(0.09 -0.09)">
       <use xlink:href="#DejaVuSans-33"/>
       <use xlink:href="#DejaVuSans-31" transform="translate(63.623047 0)"/>
      </g>
     </g>
    </g>
    <g id="ytick_5">
     <g id="line2d_25">
      <path d="M 39.330625 108.584068 
L 935.305625 108.584068 
" clip-path="url(#p40fe94264c)" style="fill: none; stroke: #eef2f7; stroke-opacity: 0.25; stroke-width: 0.55; stroke-linecap: square"/>
     </g>
     <g id="line2d_26">
      <g>
       <use xlink:href="#m80319a66f4" x="39.330625" y="108.584068" style="stroke: #000000; stroke-width: 0.8"/>
      </g>
     </g>
     <g id="text_14">
      <!-- 32 -->
      <g transform="translate(20.878125 112.003365) scale(0.09 -0.09)">
       <use xlink:href="#DejaVuSans-33"/>
       <use xlink:href="#DejaVuSans-32" transform="translate(63.623047 0)"/>
      </g>
     </g>
    </g>
    <g id="ytick_6">
     <g id="line2d_27">
      <path d="M 39.330625 78.805478 
L 935.305625 78.805478 
" clip-path="url(#p40fe94264c)" style="fill: none; stroke: #eef2f7; stroke-opacity: 0.25; stroke-width: 0.55; stroke-linecap: square"/>
     </g>
     <g id="line2d_28">
      <g>
       <use xlink:href="#m80319a66f4" x="39.330625" y="78.805478" style="stroke: #000000; stroke-width: 0.8"/>
      </g>
     </g>
     <g id="text_15">
      <!-- 33 -->
      <g transform="translate(20.878125 82.224775) scale(0.09 -0.09)">
       <use xlink:href="#DejaVuSans-33"/>
       <use xlink:href="#DejaVuSans-33" transform="translate(63.623047 0)"/>
      </g>
     </g>
    </g>
    <g id="ytick_7">
     <g id="line2d_29">
      <path d="M 39.330625 49.026888 
L 935.305625 49.026888 
" clip-path="url(#p40fe94264c)" style="fill: none; stroke: #eef2f7; stroke-opacity: 0.25; stroke-width: 0.55; stroke-linecap: square"/>
     </g>
     <g id="line2d_30">
      <g>
       <use xlink:href="#m80319a66f4" x="39.330625" y="49.026888" style="stroke: #000000; stroke-width: 0.8"/>
      </g>
     </g>
     <g id="text_16">
      <!-- 34 -->
      <g transform="translate(20.878125 52.446185) scale(0.09 -0.09)">
       <defs>
        <path id="DejaVuSans-34" d="M 2419 4116 
L 825 1625 
L 2419 1625 
L 2419 4116 
z
M 2253 4666 
L 3047 4666 
L 3047 1625 
L 3713 1625 
L 3713 1100 
L 3047 1100 
L 3047 0 
L 2419 0 
L 2419 1100 
L 313 1100 
L 313 1709 
L 2253 4666 
z
" transform="scale(0.015625)"/>
       </defs>
       <use xlink:href="#DejaVuSans-33"/>
       <use xlink:href="#DejaVuSans-34" transform="translate(63.623047 0)"/>
      </g>
     </g>
    </g>
    <g id="ytick_8">
     <g id="line2d_31">
      <path d="M 39.330625 19.248298 
L 935.305625 19.248298 
" clip-path="url(#p40fe94264c)" style="fill: none; stroke: #eef2f7; stroke-opacity: 0.25; stroke-width: 0.55; stroke-linecap: square"/>
     </g>
     <g id="line2d_32">
      <g>
       <use xlink:href="#m80319a66f4" x="39.330625" y="19.248298" style="stroke: #000000; stroke-width: 0.8"/>
      </g>
     </g>
     <g id="text_17">
      <!-- 35 -->
      <g transform="translate(20.878125 22.667595) scale(0.09 -0.09)">
       <use xlink:href="#DejaVuSans-33"/>
       <use xlink:href="#DejaVuSans-35" transform="translate(63.623047 0)"/>
      </g>
     </g>
    </g>
    <g id="text_18">
     <!-- Temperature (C) -->
     <g transform="translate(14.798438 163.659635) rotate(-90) scale(0.1 -0.1)">
      <defs>
       <path id="DejaVuSans-54" d="M -19 4666 
L 3928 4666 
L 3928 4134 
L 2272 4134 
L 2272 0 
L 1638 0 
L 1638 4134 
L -19 4134 
L -19 4666 
z
" transform="scale(0.015625)"/>
       <path id="DejaVuSans-6d" d="M 3328 2828 
Q 3544 3216 3844 3400 
Q 4144 3584 4550 3584 
Q 5097 3584 5394 3201 
Q 5691 2819 5691 2113 
L 5691 0 
L 5113 0 
L 5113 2094 
Q 5113 2597 4934 2840 
Q 4756 3084 4391 3084 
Q 3944 3084 3684 2787 
Q 3425 2491 3425 1978 
L 3425 0 
L 2847 0 
L 2847 2094 
Q 2847 2600 2669 2842 
Q 2491 3084 2119 3084 
Q 1678 3084 1418 2786 
Q 1159 2488 1159 1978 
L 1159 0 
L 581 0 
L 581 3500 
L 1159 3500 
L 1159 2956 
Q 1356 3278 1631 3431 
Q 1906 3584 2284 3584 
Q 2666 3584 2933 3390 
Q 3200 3197 3328 2828 
z
" transform="scale(0.015625)"/>
       <path id="DejaVuSans-70" d="M 1159 525 
L 1159 -1331 
L 581 -1331 
L 581 3500 
L 1159 3500 
L 1159 2969 
Q 1341 3281 1617 3432 
Q 1894 3584 2278 3584 
Q 2916 3584 3314 3078 
Q 3713 2572 3713 1747 
Q 3713 922 3314 415 
Q 2916 -91 2278 -91 
Q 1894 -91 1617 61 
Q 1341 213 1159 525 
z
M 3116 1747 
Q 3116 2381 2855 2742 
Q 2594 3103 2138 3103 
Q 1681 3103 1420 2742 
Q 1159 2381 1159 1747 
Q 1159 1113 1420 752 
Q 1681 391 2138 391 
Q 2594 391 2855 752 
Q 3116 1113 3116 1747 
z
" transform="scale(0.015625)"/>
       <path id="DejaVuSans-28" d="M 1984 4856 
Q 1566 4138 1362 3434 
Q 1159 2731 1159 2009 
Q 1159 1288 1364 580 
Q 1569 -128 1984 -844 
L 1484 -844 
Q 1016 -109 783 600 
Q 550 1309 550 2009 
Q 550 2706 781 3412 
Q 1013 4119 1484 4856 
L 1984 4856 
z
" transform="scale(0.015625)"/>
       <path id="DejaVuSans-43" d="M 4122 4306 
L 4122 3641 
Q 3803 3938 3442 4084 
Q 3081 4231 2675 4231 
Q 1875 4231 1450 3742 
Q 1025 3253 1025 2328 
Q 1025 1406 1450 917 
Q 1875 428 2675 428 
Q 3081 428 3442 575 
Q 3803 722 4122 1019 
L 4122 359 
Q 3791 134 3420 21 
Q 3050 -91 2638 -91 
Q 1578 -91 968 557 
Q 359 1206 359 2328 
Q 359 3453 968 4101 
Q 1578 4750 2638 4750 
Q 3056 4750 3426 4639 
Q 3797 4528 4122 4306 
z
" transform="scale(0.015625)"/>
       <path id="DejaVuSans-29" d="M 513 4856 
L 1013 4856 
Q 1481 4119 1714 3412 
Q 1947 2706 1947 2009 
Q 1947 1309 1714 600 
Q 1481 -109 1013 -844 
L 513 -844 
Q 928 -128 1133 580 
Q 1338 1288 1338 2009 
Q 1338 2731 1133 3434 
Q 928 4138 513 4856 
z
" transform="scale(0.015625)"/>
      </defs>
      <use xlink:href="#DejaVuSans-54"/>
      <use xlink:href="#DejaVuSans-65" transform="translate(44.083984 0)"/>
      <use xlink:href="#DejaVuSans-6d" transform="translate(105.607422 0)"/>
      <use xlink:href="#DejaVuSans-70" transform="translate(203.019531 0)"/>
      <use xlink:href="#DejaVuSans-65" transform="translate(266.496094 0)"/>
      <use xlink:href="#DejaVuSans-72" transform="translate(328.019531 0)"/>
      <use xlink:href="#DejaVuSans-61" transform="translate(369.132812 0)"/>
      <use xlink:href="#DejaVuSans-74" transform="translate(430.412109 0)"/>
      <use xlink:href="#DejaVuSans-75" transform="translate(469.621094 0)"/>
      <use xlink:href="#DejaVuSans-72" transform="translate(533 0)"/>
      <use xlink:href="#DejaVuSans-65" transform="translate(571.863281 0)"/>
      <use xlink:href="#DejaVuSans-20" transform="translate(633.386719 0)"/>
      <use xlink:href="#DejaVuSans-28" transform="translate(665.173828 0)"/>
      <use xlink:href="#DejaVuSans-43" transform="translate(704.1875 0)"/>
      <use xlink:href="#DejaVuSans-29" transform="translate(774.011719 0)"/>
     </g>
    </g>
   </g>
   <g id="line2d_33">
    <path d="M 39.37422 213.507069 
L 39.677732 213.507069 
L 39.981244 213.041779 
L 40.284756 213.507069 
L 40.588269 213.274424 
L 40.891783 214.205005 
L 41.195295 214.670295 
L 41.498807 215.368231 
L 41.802319 215.600876 
L 42.105831 216.764102 
L 42.409343 216.996748 
L 42.712856 216.996748 
L 43.016368 217.462038 
L 43.31988 217.694683 
L 43.926904 217.694683 
L 44.230416 217.927329 
L 44.533928 217.694683 
L 44.837441 218.159974 
L 45.140953 218.85791 
L 45.444465 218.625264 
L 45.747977 218.85791 
L 46.051489 219.3232 
L 46.355001 218.85791 
L 46.658513 218.85791 
L 46.962025 218.625264 
L 47.56905 218.625264 
L 47.872562 218.85791 
L 48.176074 217.927329 
L 48.479586 218.392619 
L 49.08661 218.392619 
L 49.390123 217.927329 
L 49.997147 217.462038 
L 50.300659 216.764102 
L 50.604171 216.764102 
L 50.907683 216.298812 
L 51.211195 216.298812 
L 51.514707 215.368231 
L 52.425244 214.670295 
L 53.032268 213.507069 
L 53.639292 212.576488 
L 53.942805 211.413262 
L 54.246317 210.947972 
L 54.549829 210.017391 
L 54.853341 209.784745 
L 55.460365 208.621519 
L 55.763877 208.388874 
L 56.067389 207.458293 
L 56.370902 207.225648 
L 56.674414 206.295067 
L 56.977926 205.829776 
L 57.281438 205.829776 
L 57.58495 205.364486 
L 58.495487 203.503324 
L 58.798999 203.270679 
L 59.406023 201.874807 
L 59.709535 201.874807 
L 60.013047 201.176872 
L 60.316559 200.944227 
L 60.620071 200.246291 
L 61.227096 199.781 
L 61.530608 199.083065 
L 61.83412 198.850419 
L 62.137632 197.687193 
L 62.441144 197.687193 
L 62.744656 197.221903 
L 63.048168 196.291322 
L 63.351681 196.291322 
L 63.655193 195.826031 
L 64.565729 193.964869 
L 64.869241 193.499579 
L 65.172753 192.801643 
L 65.476266 192.568998 
L 66.386802 190.475191 
L 66.993826 190.0099 
L 67.904363 187.450803 
L 68.207875 187.218158 
L 68.511387 186.054931 
L 68.814899 185.589641 
L 69.118411 185.356996 
L 69.421923 184.65906 
L 69.725435 184.426415 
L 70.028948 183.495834 
L 70.635972 182.565253 
L 70.939484 181.634672 
L 71.242996 181.169382 
L 71.546508 180.238801 
L 71.85002 180.006155 
L 72.760557 177.912348 
L 73.064069 177.679703 
L 73.367581 176.516477 
L 73.974605 175.585896 
L 74.278117 174.88796 
L 74.58163 174.88796 
L 75.795678 172.328863 
L 76.09919 172.096217 
L 76.706214 170.932991 
L 77.009727 170.467701 
L 77.313239 169.769765 
L 77.616751 170.235055 
L 77.920263 169.071829 
L 78.223775 168.606539 
L 78.527287 168.373894 
L 79.437824 166.978022 
L 80.044848 166.512732 
L 80.651872 165.349506 
L 80.955384 164.884215 
L 81.258896 164.65157 
L 81.562409 163.953634 
L 82.169433 163.488344 
L 82.776457 162.325118 
L 83.079969 162.557763 
L 83.383481 162.092472 
L 83.686994 161.394537 
L 83.990506 161.161891 
L 84.901042 159.76602 
L 85.204554 159.533375 
L 85.508066 159.068084 
L 86.115091 158.602794 
L 86.418603 158.137503 
L 86.722115 157.439568 
L 87.025627 157.904858 
L 87.329139 156.741632 
L 87.632651 156.276341 
L 87.936163 155.34576 
L 88.239675 155.113115 
L 89.150212 153.717244 
L 89.453724 152.786663 
L 89.757236 152.786663 
L 90.060748 152.088727 
L 90.667773 151.623437 
L 90.971285 150.227565 
L 91.578309 149.296984 
L 91.881821 149.296984 
L 92.185333 149.064339 
L 93.09587 146.970532 
L 93.399382 146.737887 
L 93.702894 146.737887 
L 94.006406 145.574661 
L 94.309918 145.10937 
L 94.61343 144.876725 
L 94.916942 144.411434 
L 95.220455 143.713499 
L 95.523967 143.480853 
L 95.827479 143.015563 
L 96.434503 141.852337 
L 96.738015 141.387046 
L 97.041527 141.154401 
L 97.648552 140.22382 
L 97.952064 139.991175 
L 98.559088 138.595304 
L 99.166112 138.130013 
L 99.469624 137.432077 
L 100.076649 136.966787 
L 100.380161 136.501496 
L 100.683673 136.268851 
L 100.987185 135.105625 
L 101.290697 134.87298 
L 101.897721 133.942399 
L 102.201234 133.709754 
L 103.415282 131.848592 
L 103.718794 131.615946 
L 104.932843 129.754785 
L 105.236355 129.522139 
L 105.539867 129.754785 
L 105.843379 128.824204 
L 106.450403 127.893623 
L 106.753916 127.893623 
L 107.36094 126.497751 
L 107.664452 126.730397 
L 108.271476 125.56717 
L 108.574988 125.10188 
L 108.8785 124.869235 
L 109.182013 124.869235 
L 109.485525 124.403944 
L 109.789037 123.240718 
L 110.092549 123.473363 
L 110.396061 123.008073 
L 110.699573 122.310137 
L 111.306598 121.844847 
L 111.61011 121.844847 
L 111.913622 121.146911 
L 112.217134 121.146911 
L 112.520646 120.68162 
L 112.824158 121.146911 
L 113.12767 120.21633 
L 113.431182 119.75104 
L 114.038207 119.285749 
L 114.341719 118.820459 
L 114.948743 118.820459 
L 115.252255 117.889878 
L 115.555767 117.889878 
L 115.85928 117.424587 
L 116.162792 117.889878 
L 116.466304 117.191942 
L 116.769816 116.959297 
L 117.073328 116.494006 
L 117.37684 116.494006 
L 117.680352 116.028716 
L 117.983864 116.261361 
L 118.590889 115.098135 
L 118.894401 115.33078 
L 119.197913 114.632844 
L 119.501425 114.632844 
L 119.804937 114.400199 
L 120.108449 113.934909 
L 120.411962 113.934909 
L 120.715474 113.469618 
L 121.62601 112.771682 
L 121.929522 112.306392 
L 122.536546 111.143166 
L 122.840059 111.841102 
L 123.143571 111.608456 
L 123.447083 110.677875 
L 123.750595 110.910521 
L 124.054107 110.212585 
L 124.357619 110.44523 
L 124.964644 109.514649 
L 125.268156 109.514649 
L 125.571668 108.816713 
L 126.178692 108.351423 
L 126.482204 107.886133 
L 126.785716 108.118778 
L 127.089228 108.118778 
L 127.392741 107.420842 
L 127.696253 107.420842 
L 127.999765 106.955552 
L 128.303277 106.722906 
L 128.910301 105.55968 
L 129.213813 105.792325 
L 129.517326 105.792325 
L 129.820838 105.55968 
L 130.12435 105.09439 
L 130.427862 104.861744 
L 130.731374 104.163809 
L 131.034886 104.396454 
L 131.338398 103.931164 
L 131.64191 103.698518 
L 131.945423 103.233228 
L 132.248935 103.465873 
L 132.552447 102.767937 
L 132.855959 103.000583 
L 133.159471 102.535292 
L 133.462983 102.302647 
L 133.766495 101.837356 
L 134.070007 101.837356 
L 134.677032 101.372066 
L 134.980544 101.372066 
L 135.284056 100.67413 
L 135.587568 100.906775 
L 136.194592 99.976195 
L 136.801617 99.976195 
L 137.105129 99.743549 
L 137.408641 99.278259 
L 137.712153 99.278259 
L 138.015665 98.812968 
L 138.319177 98.580323 
L 138.622689 98.580323 
L 138.926202 98.347678 
L 139.229714 97.882387 
L 139.533226 97.649742 
L 139.836738 97.184452 
L 140.14025 97.184452 
L 140.443762 96.719161 
L 140.747274 96.719161 
L 141.354299 96.253871 
L 141.961323 96.253871 
L 142.264835 95.555935 
L 142.568347 95.32329 
L 142.871859 95.32329 
L 143.175371 95.090645 
L 143.782396 95.090645 
L 144.085908 94.857999 
L 144.38942 93.927418 
L 144.692932 93.462128 
L 144.996444 93.462128 
L 145.299956 93.694773 
L 145.603469 93.229483 
L 145.906981 92.996837 
L 146.210493 93.229483 
L 146.514005 92.531547 
L 146.817517 92.764192 
L 147.121029 92.066257 
L 147.424541 91.833611 
L 147.728053 91.833611 
L 148.031566 91.368321 
L 148.335078 91.368321 
L 148.63859 91.135676 
L 148.942102 90.670385 
L 149.245614 90.43774 
L 149.549126 90.670385 
L 149.852638 89.972449 
L 150.459663 89.507159 
L 151.066687 89.507159 
L 151.370199 88.809223 
L 151.673711 88.809223 
L 151.977223 88.343933 
L 152.584248 87.878642 
L 152.88776 87.878642 
L 153.191272 87.180707 
L 153.494784 87.413352 
L 154.101808 86.482771 
L 154.40532 86.482771 
L 155.619369 85.55219 
L 155.922881 85.0869 
L 156.226393 84.854254 
L 156.529905 84.854254 
L 157.13693 84.388964 
L 157.440442 83.923673 
L 157.743954 83.923673 
L 158.047466 83.225738 
L 158.350978 83.458383 
L 158.65449 82.993092 
L 158.958002 82.760447 
L 159.261514 82.993092 
L 159.565027 82.527802 
L 160.172051 82.062511 
L 160.475563 81.597221 
L 160.779075 81.597221 
L 161.082587 81.131931 
L 161.386099 81.131931 
L 161.689612 80.433995 
L 161.993124 80.433995 
L 162.296636 80.66664 
L 162.600148 80.433995 
L 162.90366 79.736059 
L 163.207172 79.736059 
L 163.510684 79.503414 
L 163.814196 79.038123 
L 164.117709 78.805478 
L 164.421221 78.805478 
L 166.545806 77.176962 
L 166.849318 76.479026 
L 167.15283 76.711671 
L 167.456342 76.711671 
L 168.366878 76.013735 
L 168.670391 76.246381 
L 168.973903 75.083154 
L 169.277415 75.083154 
L 169.580927 74.850509 
L 169.884439 74.850509 
L 170.491463 74.385219 
L 170.794976 73.919928 
L 171.098488 73.687283 
L 171.402 73.919928 
L 172.009024 72.989347 
L 172.312536 72.756702 
L 172.616048 72.756702 
L 172.91956 72.524057 
L 173.223073 72.058766 
L 173.526585 72.524057 
L 173.830097 71.826121 
L 174.133609 71.826121 
L 174.437121 71.360831 
L 175.044145 71.360831 
L 175.347658 70.89554 
L 175.65117 70.662895 
L 176.258194 70.662895 
L 176.865218 70.197604 
L 177.16873 70.197604 
L 177.472242 69.732314 
L 177.775757 68.801733 
L 178.686293 68.801733 
L 178.989805 68.336443 
L 179.59683 68.336443 
L 179.900342 68.103797 
L 180.203854 68.103797 
L 180.507366 67.638507 
L 180.810878 67.405862 
L 181.11439 67.405862 
L 181.417903 67.173216 
L 181.721415 66.707926 
L 182.024927 66.707926 
L 182.328439 66.242635 
L 182.935463 66.242635 
L 183.238975 65.777345 
L 183.542487 66.00999 
L 183.846 66.00999 
L 184.149512 65.312055 
L 184.453024 65.5447 
L 184.756536 65.079409 
L 185.060048 65.312055 
L 185.36356 64.846764 
L 185.667072 64.846764 
L 186.274097 64.381474 
L 186.577609 64.614119 
L 186.881121 63.916183 
L 187.184633 63.916183 
L 187.488145 64.148828 
L 187.791657 63.450893 
L 188.095169 63.683538 
L 188.398682 63.450893 
L 188.702194 63.450893 
L 189.005706 62.985602 
L 189.309218 62.752957 
L 189.61273 62.985602 
L 189.916242 62.752957 
L 190.219754 62.752957 
L 190.523266 62.055021 
L 190.826779 62.520312 
L 191.130291 61.822376 
L 191.433803 61.822376 
L 191.737315 61.12444 
L 192.040827 61.589731 
L 192.647851 61.12444 
L 192.951364 61.12444 
L 193.254876 60.65915 
L 193.558388 60.65915 
L 193.8619 60.426505 
L 194.165412 60.65915 
L 194.468924 60.193859 
L 194.772436 60.65915 
L 195.379461 59.728569 
L 195.682973 59.495924 
L 196.289997 59.495924 
L 196.593509 59.728569 
L 197.200533 59.263278 
L 197.504046 59.263278 
L 197.807558 59.030633 
L 198.11107 59.030633 
L 198.414582 58.565343 
L 198.718094 58.332697 
L 199.021606 59.030633 
L 199.325118 58.100052 
L 199.62863 58.100052 
L 199.932143 58.332697 
L 200.235655 58.100052 
L 200.539167 57.634762 
L 200.842679 57.867407 
L 201.146191 57.634762 
L 201.449703 56.936826 
L 201.753215 56.704181 
L 202.056728 56.936826 
L 202.36024 56.704181 
L 202.967264 56.704181 
L 203.270776 56.471536 
L 204.181312 56.471536 
L 205.091849 55.7736 
L 205.395361 56.006245 
L 206.002385 56.006245 
L 206.60941 55.540955 
L 206.912922 56.006245 
L 207.216434 55.075664 
L 207.823458 55.540955 
L 208.12697 55.075664 
L 208.430482 55.075664 
L 208.733994 54.610374 
L 209.341019 54.610374 
L 209.644531 54.843019 
L 209.948043 54.145083 
L 210.251555 54.377728 
L 210.858579 53.912438 
L 211.162091 54.377728 
L 211.465604 53.912438 
L 212.072628 53.912438 
L 212.37614 53.447148 
L 212.679652 53.447148 
L 212.983164 53.912438 
L 213.590189 52.981857 
L 213.893701 52.981857 
L 214.197213 52.516567 
L 214.500725 52.981857 
L 214.804237 52.749212 
L 215.411261 52.749212 
L 215.714773 52.981857 
L 216.018286 52.516567 
L 216.928822 51.818631 
L 217.232334 52.051276 
L 218.142871 52.051276 
L 218.446383 51.585986 
L 218.749895 51.35334 
L 219.053407 51.585986 
L 219.356919 51.585986 
L 219.660431 51.120695 
L 219.963943 50.88805 
L 220.570968 51.35334 
L 220.87448 51.120695 
L 221.177992 50.655405 
L 221.481504 50.655405 
L 221.785016 50.190114 
L 222.088528 50.422759 
L 222.39204 50.190114 
L 222.695553 49.724824 
L 222.999065 50.422759 
L 223.909601 49.724824 
L 224.213113 49.724824 
L 224.516625 49.492179 
L 224.820137 49.957469 
L 225.427162 49.026888 
L 226.034186 49.026888 
L 226.337698 49.259533 
L 226.64121 48.794243 
L 226.944722 49.026888 
L 227.248235 48.794243 
L 227.551747 48.328952 
L 227.855259 48.794243 
L 228.462283 48.328952 
L 229.069307 48.328952 
L 229.372819 48.096307 
L 229.676332 48.096307 
L 229.979844 47.863662 
L 230.283356 47.863662 
L 230.586868 47.631017 
L 230.89038 47.165726 
L 231.193892 47.398371 
L 231.497404 47.398371 
L 232.104429 46.933081 
L 232.407941 46.46779 
L 232.711453 47.631017 
L 233.014965 46.933081 
L 233.925501 46.933081 
L 234.229014 46.46779 
L 234.836038 46.0025 
L 235.13955 46.46779 
L 235.443062 46.0025 
L 235.746574 46.235145 
L 236.050086 45.769855 
L 236.353598 46.235145 
L 236.657111 46.0025 
L 236.960623 46.235145 
L 237.264135 45.769855 
L 237.567647 46.0025 
L 237.871159 45.304564 
L 238.174671 45.304564 
L 238.478183 45.53721 
L 238.781696 45.53721 
L 239.38872 45.071919 
L 239.995744 45.53721 
L 240.299256 45.304564 
L 240.602768 44.839274 
L 240.90628 44.839274 
L 241.209793 45.304564 
L 241.513305 44.839274 
L 241.816817 44.606629 
L 242.120329 44.606629 
L 242.727353 44.141338 
L 243.030865 44.141338 
L 243.334378 43.908693 
L 243.63789 43.908693 
L 243.941402 44.373983 
L 244.244914 44.373983 
L 244.548426 43.676048 
L 244.851938 43.908693 
L 245.458962 43.908693 
L 245.762475 43.676048 
L 246.065987 43.210757 
L 246.369499 43.676048 
L 246.673011 43.210757 
L 246.976523 43.443402 
L 247.280035 43.443402 
L 247.583547 43.210757 
L 247.88706 43.210757 
L 248.494084 42.745467 
L 248.797596 42.745467 
L 249.101108 42.512822 
L 249.40462 42.745467 
L 249.708132 42.512822 
L 250.922181 42.512822 
L 251.529205 42.047531 
L 251.832717 42.280176 
L 252.136229 42.745467 
L 252.439742 42.047531 
L 252.743254 41.814886 
L 253.046766 41.349595 
L 253.350278 42.047531 
L 253.65379 41.582241 
L 253.957302 41.814886 
L 254.564326 41.814886 
L 255.171351 41.349595 
L 255.474863 41.582241 
L 256.081887 41.582241 
L 256.385399 42.047531 
L 256.688911 41.582241 
L 257.295936 41.582241 
L 257.599448 41.11695 
L 257.90296 41.349595 
L 258.509984 40.884305 
L 258.813496 41.349595 
L 259.117008 41.11695 
L 259.420521 41.11695 
L 259.724033 40.884305 
L 260.027545 40.884305 
L 260.331057 40.65166 
L 260.634569 40.884305 
L 260.938081 40.65166 
L 261.241593 41.349595 
L 261.545105 40.65166 
L 261.848618 40.884305 
L 262.455642 40.884305 
L 262.759154 40.186369 
L 263.062666 40.186369 
L 263.973203 40.884305 
L 264.276715 40.419014 
L 264.580227 40.65166 
L 264.883739 40.419014 
L 265.187251 40.65166 
L 265.794275 40.65166 
L 266.097787 40.419014 
L 266.4013 39.953724 
L 266.704812 39.953724 
L 267.008324 40.65166 
L 267.311836 39.953724 
L 267.615348 40.65166 
L 267.91886 40.419014 
L 268.222372 40.65166 
L 268.525885 40.419014 
L 268.829397 39.953724 
L 269.132909 40.186369 
L 269.436421 40.186369 
L 269.739933 40.419014 
L 270.043445 40.186369 
L 270.346957 40.419014 
L 270.650469 40.186369 
L 270.953982 40.419014 
L 271.257494 39.953724 
L 271.561006 39.953724 
L 271.864518 40.186369 
L 272.471542 40.186369 
L 272.775054 39.953724 
L 273.078567 39.953724 
L 273.382079 40.419014 
L 273.685591 40.419014 
L 273.989103 39.953724 
L 274.292615 40.186369 
L 274.596127 40.186369 
L 274.899639 39.953724 
L 275.203151 40.186369 
L 275.506664 40.186369 
L 275.810176 39.953724 
L 276.113688 40.186369 
L 276.4172 39.953724 
L 276.720712 40.65166 
L 277.024224 40.186369 
L 277.327736 40.186369 
L 277.631249 39.953724 
L 277.934761 40.186369 
L 278.541785 40.186369 
L 278.845297 39.721079 
L 279.148809 40.419014 
L 279.452321 40.186369 
L 279.755833 39.721079 
L 280.059346 40.186369 
L 280.969882 39.488433 
L 281.576906 39.953724 
L 281.880418 39.488433 
L 282.18393 39.721079 
L 282.487443 39.488433 
L 282.790955 39.721079 
L 283.094467 39.721079 
L 283.397979 39.023143 
L 284.005003 39.488433 
L 284.308515 39.023143 
L 284.612028 39.023143 
L 284.91554 38.790498 
L 285.219052 39.721079 
L 285.522564 39.488433 
L 285.826076 38.790498 
L 286.129588 39.023143 
L 286.4331 38.790498 
L 286.736612 39.255788 
L 287.040125 38.790498 
L 287.647149 38.790498 
L 287.950661 39.023143 
L 288.254173 38.557853 
L 288.557685 38.557853 
L 288.861197 38.790498 
L 289.16471 38.325207 
L 289.468222 38.790498 
L 289.771734 37.859917 
L 290.075246 38.325207 
L 290.378758 38.092562 
L 290.985782 38.092562 
L 291.289294 38.790498 
L 291.592807 37.859917 
L 291.896319 37.627272 
L 292.199831 37.859917 
L 292.503343 37.394626 
L 292.806855 37.627272 
L 293.110367 37.394626 
L 293.413879 37.859917 
L 293.717392 37.627272 
L 294.020904 37.161981 
L 294.324416 37.394626 
L 294.627928 37.161981 
L 294.93144 37.394626 
L 295.234952 37.161981 
L 296.145489 37.161981 
L 296.449001 36.929336 
L 296.752513 36.464045 
L 297.056025 37.161981 
L 297.359537 36.696691 
L 297.663049 36.464045 
L 298.270074 36.464045 
L 298.573586 36.2314 
L 299.18061 36.2314 
L 299.484122 36.464045 
L 299.787634 35.76611 
L 300.091146 35.998755 
L 300.394658 35.76611 
L 301.001683 35.76611 
L 301.305195 35.533464 
L 301.912219 35.998755 
L 302.215731 35.533464 
L 302.519243 35.300819 
L 302.822755 35.533464 
L 303.126268 35.068174 
L 303.42978 35.300819 
L 303.733292 35.300819 
L 304.036804 35.068174 
L 304.643828 35.068174 
L 304.94734 35.300819 
L 305.250853 34.835529 
L 305.554365 34.835529 
L 305.857877 34.602884 
L 306.161389 34.835529 
L 306.464901 34.602884 
L 306.768413 34.602884 
L 307.071925 34.370238 
L 308.285974 34.370238 
L 308.589486 34.602884 
L 308.892998 34.137593 
L 309.803535 34.137593 
L 310.107047 33.904948 
L 310.410559 34.137593 
L 311.017583 33.672303 
L 312.231632 33.672303 
L 312.535144 33.439657 
L 312.838656 33.672303 
L 313.142168 33.439657 
L 313.44568 33.672303 
L 313.749192 33.672303 
L 314.052704 33.207012 
L 314.659731 33.207012 
L 314.963243 32.741722 
L 315.266755 32.974367 
L 315.570267 32.741722 
L 315.873779 33.207012 
L 316.177292 33.207012 
L 316.480804 32.509076 
L 316.784316 33.207012 
L 317.39134 32.741722 
L 317.694852 32.043786 
L 317.998364 32.974367 
L 318.301877 32.741722 
L 318.908901 32.741722 
L 319.212413 32.043786 
L 319.515925 32.509076 
L 320.122949 32.509076 
L 320.426461 32.043786 
L 320.729974 32.509076 
L 321.033486 31.811141 
L 321.336998 31.811141 
L 321.64051 32.276431 
L 321.944022 31.811141 
L 322.551046 32.276431 
L 324.372119 32.276431 
L 324.979143 32.741722 
L 325.282656 32.509076 
L 325.586168 32.974367 
L 325.88968 32.509076 
L 326.496704 32.509076 
L 326.800216 32.276431 
L 327.103728 32.974367 
L 327.407241 32.741722 
L 327.710753 33.439657 
L 328.014265 32.741722 
L 328.317777 33.207012 
L 328.621289 33.207012 
L 328.924801 33.439657 
L 329.228313 33.207012 
L 329.531825 33.439657 
L 329.835338 33.207012 
L 330.13885 34.137593 
L 330.442362 33.439657 
L 330.745874 34.137593 
L 331.049386 33.904948 
L 331.352898 33.904948 
L 331.65641 33.672303 
L 332.566947 33.672303 
L 333.477483 34.370238 
L 333.780995 34.370238 
L 334.084507 34.137593 
L 334.38802 34.835529 
L 334.691532 34.370238 
L 334.995044 34.602884 
L 335.298556 34.602884 
L 335.602068 34.835529 
L 335.90558 34.602884 
L 336.209092 34.602884 
L 336.512604 34.370238 
L 336.816117 35.068174 
L 337.423141 35.533464 
L 337.726653 35.068174 
L 338.030165 35.068174 
L 338.333677 35.300819 
L 338.637189 35.068174 
L 339.244214 35.533464 
L 339.547726 35.533464 
L 339.851238 35.76611 
L 340.15475 35.300819 
L 340.458262 35.76611 
L 341.065286 35.300819 
L 341.368799 35.998755 
L 341.975823 35.998755 
L 342.279335 35.76611 
L 342.582847 36.2314 
L 342.886359 36.464045 
L 343.189871 36.2314 
L 343.796896 36.2314 
L 344.100408 36.696691 
L 344.707432 36.696691 
L 345.010944 36.929336 
L 345.314456 36.464045 
L 345.617968 36.696691 
L 345.921481 36.464045 
L 346.224993 36.464045 
L 346.528505 37.161981 
L 347.135529 36.696691 
L 347.439041 37.161981 
L 348.046066 37.161981 
L 348.349578 36.929336 
L 348.65309 37.627272 
L 348.956602 37.394626 
L 349.563626 37.394626 
L 349.867138 37.627272 
L 350.17065 37.394626 
L 350.474163 37.627272 
L 351.081187 37.627272 
L 351.384699 37.161981 
L 351.688211 37.627272 
L 352.90226 37.627272 
L 353.205772 37.859917 
L 353.812796 37.859917 
L 354.116308 37.627272 
L 355.330357 37.627272 
L 355.633869 37.394626 
L 355.937381 37.859917 
L 356.847917 37.859917 
L 357.151429 38.092562 
L 357.454942 38.557853 
L 357.758454 38.092562 
L 358.061966 37.859917 
L 358.365478 37.859917 
L 358.66899 38.325207 
L 358.972502 37.859917 
L 359.276014 38.092562 
L 359.883039 38.092562 
L 360.186551 38.790498 
L 360.490063 38.092562 
L 360.793575 37.859917 
L 361.097087 37.859917 
L 361.400599 38.325207 
L 361.704111 38.325207 
L 362.007624 38.557853 
L 362.311136 38.325207 
L 362.614648 38.557853 
L 362.91816 38.557853 
L 363.221672 38.325207 
L 363.828696 38.790498 
L 364.132209 38.325207 
L 364.435721 38.790498 
L 364.739233 38.557853 
L 365.042745 39.023143 
L 365.346257 39.255788 
L 365.649769 38.790498 
L 365.953281 38.557853 
L 366.256793 38.790498 
L 366.560306 39.488433 
L 366.863818 38.790498 
L 367.16733 39.023143 
L 367.470842 39.023143 
L 367.774354 39.255788 
L 368.077866 39.023143 
L 368.381378 39.023143 
L 368.988403 38.557853 
L 369.291915 39.023143 
L 369.595427 38.790498 
L 369.898939 38.790498 
L 370.202451 39.255788 
L 370.505963 38.790498 
L 370.809475 39.023143 
L 371.4165 38.557853 
L 372.023524 39.023143 
L 372.327036 38.557853 
L 372.93406 39.023143 
L 373.237573 39.023143 
L 373.541085 38.325207 
L 373.844597 39.023143 
L 374.148109 38.790498 
L 374.451621 38.790498 
L 374.755133 39.023143 
L 375.058645 38.325207 
L 375.362157 38.325207 
L 375.66567 38.557853 
L 375.969182 38.325207 
L 376.272694 38.790498 
L 376.576206 38.325207 
L 376.879718 38.790498 
L 377.18323 38.325207 
L 377.790254 38.325207 
L 378.093767 38.557853 
L 378.397279 38.092562 
L 378.700791 38.557853 
L 379.004303 38.790498 
L 379.307815 37.859917 
L 380.521864 37.859917 
L 380.825376 37.627272 
L 381.128888 37.859917 
L 381.4324 37.859917 
L 381.735912 37.627272 
L 382.039424 37.627272 
L 382.646449 37.161981 
L 382.949961 37.394626 
L 383.253473 37.161981 
L 383.556985 37.394626 
L 383.860497 36.929336 
L 384.164009 37.161981 
L 384.467521 37.161981 
L 384.771034 37.627272 
L 385.378058 36.464045 
L 385.985082 36.929336 
L 386.288594 36.696691 
L 386.895618 36.696691 
L 387.199131 36.2314 
L 387.502643 36.2314 
L 387.806155 36.464045 
L 388.109667 35.998755 
L 389.020203 35.998755 
L 389.323716 36.464045 
L 389.627228 35.76611 
L 389.93074 36.2314 
L 390.234252 35.76611 
L 390.537764 36.2314 
L 390.841276 35.76611 
L 391.751813 35.76611 
L 392.055325 35.068174 
L 392.358837 35.533464 
L 392.662349 35.068174 
L 392.965861 35.068174 
L 393.269373 34.835529 
L 393.572885 35.300819 
L 393.876398 34.835529 
L 394.17991 34.835529 
L 394.483422 35.300819 
L 394.786934 34.602884 
L 395.090446 34.835529 
L 395.393958 34.835529 
L 395.69747 34.370238 
L 396.000982 34.835529 
L 396.608007 34.370238 
L 397.215031 34.370238 
L 397.518543 34.602884 
L 397.822055 34.602884 
L 398.125567 34.370238 
L 398.732592 34.370238 
L 399.036104 34.137593 
L 399.339616 34.137593 
L 399.643128 33.904948 
L 399.94664 34.370238 
L 400.250152 34.370238 
L 400.857177 33.904948 
L 401.160689 34.137593 
L 401.464201 34.137593 
L 401.767713 33.672303 
L 402.071225 34.602884 
L 402.374737 34.370238 
L 402.678249 33.904948 
L 402.981761 34.137593 
L 403.285274 34.137593 
L 403.588786 33.904948 
L 404.19581 33.904948 
L 404.499322 34.370238 
L 404.802834 33.672303 
L 405.106346 33.904948 
L 405.409859 33.672303 
L 405.713371 33.672303 
L 406.016883 33.439657 
L 406.320395 33.439657 
L 406.623907 33.672303 
L 407.230931 33.207012 
L 407.534443 32.741722 
L 407.837956 33.439657 
L 408.141468 32.974367 
L 408.44498 32.741722 
L 408.748492 32.741722 
L 409.052004 33.207012 
L 409.355516 33.207012 
L 409.962541 32.741722 
L 410.266053 32.974367 
L 410.569565 32.741722 
L 410.873077 32.974367 
L 411.176589 32.741722 
L 411.480101 32.276431 
L 411.783613 32.509076 
L 412.390638 32.509076 
L 412.69415 32.741722 
L 412.997662 32.276431 
L 413.301174 32.276431 
L 413.604686 32.509076 
L 413.908198 32.509076 
L 414.21171 32.043786 
L 414.515223 31.811141 
L 415.122247 32.276431 
L 415.729271 31.811141 
L 416.032783 31.811141 
L 416.336295 32.043786 
L 416.639807 31.34585 
L 416.94332 32.043786 
L 417.246832 31.578495 
L 417.550344 31.811141 
L 417.853856 31.34585 
L 418.46088 31.811141 
L 418.764392 31.34585 
L 419.067905 31.578495 
L 419.371417 31.113205 
L 419.674929 31.34585 
L 419.978441 31.811141 
L 420.281953 31.113205 
L 420.585465 31.578495 
L 420.888977 30.88056 
L 421.192489 31.34585 
L 421.496002 30.88056 
L 422.103026 31.34585 
L 422.406538 31.113205 
L 423.924099 31.113205 
L 424.531123 30.647915 
L 425.138147 30.647915 
L 425.441659 31.34585 
L 425.745171 31.34585 
L 426.048684 30.647915 
L 426.352196 30.88056 
L 426.655708 30.647915 
L 426.95922 30.647915 
L 427.262732 31.113205 
L 427.566244 30.647915 
L 427.869756 30.88056 
L 428.173268 30.647915 
L 428.476781 30.647915 
L 428.780293 31.113205 
L 429.083805 30.647915 
L 429.387317 30.88056 
L 429.690829 30.647915 
L 431.20839 30.647915 
L 431.815414 30.182624 
L 432.118926 30.647915 
L 432.422438 30.415269 
L 432.72595 30.415269 
L 433.029463 30.647915 
L 433.636487 29.717334 
L 433.939999 30.182624 
L 435.154048 30.182624 
L 435.45756 30.415269 
L 436.064584 29.949979 
L 436.671608 30.415269 
L 436.97512 30.415269 
L 437.278632 30.182624 
L 437.582145 30.182624 
L 437.885657 30.415269 
L 438.492681 30.415269 
L 438.796193 30.182624 
L 439.403217 30.182624 
L 439.70673 29.949979 
L 440.010242 29.949979 
L 440.313754 30.415269 
L 440.920778 29.949979 
L 441.22429 30.415269 
L 441.527802 30.182624 
L 442.134827 30.182624 
L 442.438339 29.949979 
L 442.741851 29.949979 
L 443.045363 30.182624 
L 443.348875 30.647915 
L 443.652387 30.182624 
L 443.955899 30.647915 
L 444.259411 30.415269 
L 444.562924 29.949979 
L 444.866436 30.647915 
L 445.169948 29.717334 
L 445.776972 30.182624 
L 446.383996 30.182624 
L 446.687509 29.949979 
L 447.598045 29.949979 
L 448.205069 30.415269 
L 448.508581 30.182624 
L 448.812093 29.717334 
L 449.419118 30.182624 
L 449.72263 30.182624 
L 450.026142 29.717334 
L 450.329654 30.182624 
L 450.633166 30.182624 
L 450.936678 29.717334 
L 451.543705 30.182624 
L 451.847217 29.949979 
L 453.061266 29.949979 
L 453.364778 30.182624 
L 453.971802 29.717334 
L 454.275314 29.717334 
L 454.578826 29.949979 
L 454.882338 29.717334 
L 455.489363 30.182624 
L 455.792875 29.949979 
L 456.096387 29.484688 
L 456.399899 29.949979 
L 456.703411 29.949979 
L 457.310436 29.484688 
L 457.613948 30.182624 
L 457.91746 29.484688 
L 458.220972 29.252043 
L 458.524484 29.717334 
L 459.43502 29.717334 
L 459.738533 29.484688 
L 460.042045 29.949979 
L 460.345557 29.252043 
L 460.649069 29.717334 
L 460.952581 29.949979 
L 461.256093 29.484688 
L 461.559605 29.717334 
L 461.863118 29.717334 
L 462.16663 29.949979 
L 462.470142 29.484688 
L 463.380678 29.484688 
L 463.68419 29.252043 
L 463.987702 29.484688 
L 464.291215 29.484688 
L 464.594727 29.717334 
L 464.898239 29.717334 
L 465.201751 29.949979 
L 465.505263 29.717334 
L 466.112287 29.717334 
L 466.4158 29.484688 
L 467.326336 29.484688 
L 467.629848 28.786753 
L 468.236872 29.717334 
L 468.540384 29.019398 
L 468.843897 29.717334 
L 469.147409 29.252043 
L 469.450921 29.484688 
L 469.754433 29.019398 
L 470.057945 29.019398 
L 470.361457 29.252043 
L 470.664969 29.019398 
L 470.968482 29.019398 
L 471.271994 28.786753 
L 471.575506 29.019398 
L 473.093066 29.019398 
L 473.396579 28.786753 
L 473.700091 29.019398 
L 474.003603 29.484688 
L 474.307115 28.786753 
L 474.610627 29.252043 
L 474.914139 29.019398 
L 475.217651 28.554107 
L 475.521163 28.786753 
L 476.4317 28.786753 
L 476.735212 28.321462 
L 477.038724 28.554107 
L 477.645748 28.554107 
L 477.949261 28.786753 
L 478.252773 28.088817 
L 478.556285 28.321462 
L 479.770333 28.321462 
L 480.073845 28.088817 
L 480.377358 28.554107 
L 480.68087 28.321462 
L 480.984382 28.321462 
L 481.287894 28.554107 
L 481.591406 28.088817 
L 481.894918 27.856172 
L 482.19843 28.321462 
L 482.501943 27.856172 
L 482.805455 28.088817 
L 483.108967 28.088817 
L 483.412479 27.856172 
L 484.019503 27.856172 
L 484.323015 27.623526 
L 484.626527 28.088817 
L 484.93004 27.856172 
L 485.537064 27.856172 
L 485.840576 27.390881 
L 486.144088 28.088817 
L 486.4476 28.088817 
L 486.751112 27.390881 
L 487.054625 27.623526 
L 487.661649 27.623526 
L 487.965161 27.856172 
L 488.268673 26.925591 
L 488.572185 27.623526 
L 488.875697 27.390881 
L 489.786234 27.390881 
L 490.089746 27.158236 
L 490.393258 27.623526 
L 490.69677 27.158236 
L 491.000282 27.390881 
L 491.303794 27.390881 
L 491.607307 27.158236 
L 491.910819 27.158236 
L 492.214331 26.925591 
L 492.517843 27.390881 
L 492.821355 27.623526 
L 493.124867 26.692946 
L 494.035404 27.390881 
L 494.338916 27.390881 
L 494.642428 27.158236 
L 494.94594 27.390881 
L 495.249452 26.925591 
L 495.552964 27.623526 
L 495.856476 27.158236 
L 496.159989 27.390881 
L 496.463501 27.158236 
L 497.374037 27.158236 
L 497.677549 27.390881 
L 498.284573 26.925591 
L 498.588086 27.158236 
L 498.891598 27.158236 
L 499.19511 27.390881 
L 499.498622 26.925591 
L 500.71267 26.925591 
L 501.016183 27.390881 
L 501.319695 26.925591 
L 501.623207 27.158236 
L 501.926719 26.692946 
L 502.230231 26.925591 
L 502.533743 26.692946 
L 503.140768 27.158236 
L 503.44428 26.925591 
L 503.747792 27.158236 
L 504.051304 27.158236 
L 504.354816 26.925591 
L 504.658328 26.925591 
L 504.96184 27.158236 
L 505.568865 27.158236 
L 505.872377 27.390881 
L 506.175889 27.158236 
L 506.782913 27.623526 
L 507.086425 27.158236 
L 507.389937 27.390881 
L 507.69345 27.158236 
L 507.996962 27.623526 
L 508.603986 27.158236 
L 508.907498 27.623526 
L 509.21101 27.390881 
L 509.818034 27.390881 
L 510.121547 28.088817 
L 510.425059 28.088817 
L 510.728571 27.390881 
L 511.032083 28.321462 
L 511.335595 27.856172 
L 511.639107 27.856172 
L 511.942619 28.554107 
L 512.246132 28.088817 
L 512.549644 28.321462 
L 513.156668 28.321462 
L 513.46018 28.088817 
L 513.763692 29.019398 
L 514.067204 28.786753 
L 514.370716 29.252043 
L 514.674229 28.554107 
L 515.281253 29.019398 
L 515.584765 29.484688 
L 516.798814 29.484688 
L 517.102326 29.949979 
L 517.405838 30.182624 
L 517.70935 30.647915 
L 518.012862 30.182624 
L 518.316374 30.647915 
L 518.619886 30.182624 
L 518.923398 30.415269 
L 519.226911 30.415269 
L 519.530423 30.647915 
L 519.833935 31.34585 
L 520.137447 31.113205 
L 520.440959 31.113205 
L 520.744471 31.34585 
L 521.047983 31.34585 
L 521.351495 31.578495 
L 522.262032 31.578495 
L 522.565544 32.043786 
L 522.869056 31.578495 
L 523.172568 31.811141 
L 523.47608 32.276431 
L 523.779593 31.811141 
L 524.083105 32.043786 
L 524.386617 32.509076 
L 524.690129 32.509076 
L 524.993641 32.741722 
L 525.297153 32.509076 
L 525.600665 32.741722 
L 525.904177 32.509076 
L 526.20769 32.509076 
L 526.511202 32.741722 
L 526.814714 32.509076 
L 527.118226 32.974367 
L 527.421738 32.974367 
L 527.72525 33.207012 
L 528.028762 32.974367 
L 528.332275 32.974367 
L 528.939299 33.439657 
L 529.546323 33.439657 
L 529.849835 33.207012 
L 530.153347 33.672303 
L 530.456859 33.207012 
L 530.760372 33.439657 
L 531.063884 33.904948 
L 531.367396 33.439657 
L 531.670908 33.672303 
L 531.97442 33.439657 
L 532.277932 33.672303 
L 532.581444 33.207012 
L 532.884957 34.137593 
L 533.188469 33.904948 
L 533.491981 34.137593 
L 533.795493 34.137593 
L 534.099005 33.904948 
L 534.402517 34.137593 
L 534.706029 34.137593 
L 535.009541 34.370238 
L 535.313054 34.370238 
L 535.616566 33.904948 
L 535.920078 34.370238 
L 536.22359 33.904948 
L 536.830614 34.370238 
L 537.134126 33.904948 
L 537.437639 33.672303 
L 537.741151 34.137593 
L 538.044663 33.904948 
L 538.348175 33.904948 
L 538.651687 34.137593 
L 538.955199 34.137593 
L 539.258711 33.672303 
L 539.562223 33.672303 
L 539.865736 33.439657 
L 540.47276 33.904948 
L 540.776272 33.672303 
L 541.079784 33.672303 
L 541.383296 33.439657 
L 541.686808 33.904948 
L 541.990321 33.904948 
L 542.293833 33.439657 
L 542.597345 33.207012 
L 542.900857 33.672303 
L 543.507881 33.207012 
L 544.114905 33.672303 
L 544.72193 33.207012 
L 545.025442 32.741722 
L 545.328954 33.207012 
L 545.632466 32.974367 
L 545.935978 33.207012 
L 546.23949 32.509076 
L 546.846515 32.974367 
L 547.150027 32.741722 
L 547.453539 32.741722 
L 547.757051 32.974367 
L 548.060563 32.741722 
L 548.364075 32.974367 
L 548.667587 32.974367 
L 548.9711 32.741722 
L 549.274612 32.974367 
L 549.578124 32.509076 
L 549.881636 32.741722 
L 550.185148 32.741722 
L 550.48866 32.276431 
L 550.792172 32.276431 
L 551.095684 32.509076 
L 551.399197 32.974367 
L 551.702709 32.741722 
L 552.006221 32.276431 
L 552.309733 32.043786 
L 552.613245 32.509076 
L 552.916757 32.509076 
L 553.220269 32.276431 
L 553.827294 32.276431 
L 554.130806 32.509076 
L 554.434318 32.276431 
L 554.73783 32.509076 
L 555.041342 31.811141 
L 555.344854 31.811141 
L 555.648366 32.043786 
L 557.165927 32.043786 
L 557.469439 31.578495 
L 558.076464 32.043786 
L 558.379976 31.811141 
L 558.987 32.276431 
L 559.290512 31.811141 
L 559.594024 31.578495 
L 559.897536 31.811141 
L 560.201048 31.811141 
L 560.504561 31.578495 
L 560.808073 31.811141 
L 561.111585 31.578495 
L 561.415097 31.113205 
L 561.718609 31.578495 
L 562.022121 31.578495 
L 562.325633 31.113205 
L 562.629146 31.34585 
L 562.932658 31.34585 
L 563.23617 31.578495 
L 563.539682 31.578495 
L 563.843194 31.34585 
L 564.146706 31.34585 
L 564.450218 31.113205 
L 564.75373 31.34585 
L 565.057243 31.34585 
L 565.360755 31.578495 
L 565.664267 31.113205 
L 565.967779 31.34585 
L 566.271291 31.113205 
L 566.574803 31.578495 
L 566.878315 31.113205 
L 567.48534 31.578495 
L 567.788852 31.34585 
L 568.395876 31.811141 
L 568.699388 31.113205 
L 569.0029 31.811141 
L 569.306412 31.578495 
L 571.127485 31.578495 
L 571.430997 31.34585 
L 571.734509 32.509076 
L 572.038022 31.578495 
L 572.341534 32.043786 
L 572.645046 31.578495 
L 572.948558 32.043786 
L 573.555582 32.043786 
L 573.859094 31.578495 
L 574.162607 32.276431 
L 574.466119 31.811141 
L 574.769631 32.043786 
L 575.073143 31.811141 
L 575.680167 31.811141 
L 575.983679 31.578495 
L 576.287191 32.043786 
L 576.590704 32.276431 
L 576.894216 31.811141 
L 577.197728 31.811141 
L 577.50124 32.276431 
L 577.804752 32.043786 
L 578.108264 32.276431 
L 578.411776 32.276431 
L 578.715289 32.509076 
L 579.018801 32.043786 
L 579.322313 32.509076 
L 579.625825 32.276431 
L 579.929337 32.974367 
L 580.232849 32.974367 
L 580.536361 32.741722 
L 580.839873 32.974367 
L 581.446898 32.974367 
L 581.75041 33.439657 
L 582.053922 33.672303 
L 582.357434 33.207012 
L 582.660946 33.439657 
L 582.964458 33.904948 
L 583.267971 33.904948 
L 583.571483 33.672303 
L 583.874995 33.672303 
L 584.178507 33.904948 
L 584.482019 34.370238 
L 584.785531 34.137593 
L 585.089043 34.137593 
L 585.392555 34.370238 
L 585.696068 34.370238 
L 585.99958 34.602884 
L 586.303092 35.300819 
L 586.606604 34.835529 
L 586.910116 35.068174 
L 587.213628 35.533464 
L 587.820653 35.068174 
L 588.124158 35.300819 
L 588.42767 35.76611 
L 588.731182 35.76611 
L 589.034694 36.464045 
L 589.338206 35.998755 
L 589.641718 35.998755 
L 589.945231 36.2314 
L 590.248743 36.929336 
L 590.552255 36.929336 
L 590.855767 36.696691 
L 591.159279 36.929336 
L 591.462791 37.394626 
L 591.766303 37.161981 
L 592.069816 37.161981 
L 592.373328 37.394626 
L 592.67684 37.394626 
L 592.980352 37.859917 
L 593.283864 38.092562 
L 593.587376 37.859917 
L 593.890889 38.092562 
L 594.194401 38.557853 
L 594.497913 38.557853 
L 594.801425 38.325207 
L 595.104937 38.790498 
L 595.408449 38.325207 
L 595.711961 38.790498 
L 596.015474 39.488433 
L 596.318986 39.023143 
L 596.622498 39.023143 
L 596.92601 39.488433 
L 597.229522 39.488433 
L 597.533034 39.721079 
L 597.836547 39.255788 
L 598.140059 39.953724 
L 598.443571 39.721079 
L 598.747083 39.721079 
L 599.050595 40.419014 
L 599.354107 40.419014 
L 599.657619 40.186369 
L 599.961132 40.419014 
L 600.264644 40.419014 
L 600.568156 40.65166 
L 600.871668 40.65166 
L 601.17518 40.419014 
L 601.478692 40.884305 
L 601.782204 40.65166 
L 602.085717 41.349595 
L 602.692741 40.884305 
L 602.996253 40.884305 
L 603.299765 41.11695 
L 603.603277 41.11695 
L 603.90679 41.582241 
L 604.210302 41.582241 
L 604.513814 41.349595 
L 604.817326 41.814886 
L 605.120838 41.582241 
L 605.42435 41.814886 
L 606.031375 41.814886 
L 606.334887 41.582241 
L 606.638399 42.280176 
L 607.245423 41.814886 
L 607.548935 42.280176 
L 607.852447 42.047531 
L 609.370008 42.047531 
L 609.67352 42.280176 
L 609.977032 42.745467 
L 610.280545 42.280176 
L 610.584057 42.512822 
L 610.887569 42.512822 
L 611.191081 42.745467 
L 611.494593 42.280176 
L 611.798105 42.745467 
L 612.101618 42.745467 
L 612.40513 42.512822 
L 613.012154 42.978112 
L 613.315666 42.978112 
L 613.619178 43.210757 
L 613.92269 42.978112 
L 614.226203 43.443402 
L 614.529715 42.978112 
L 614.833227 43.908693 
L 615.136739 43.210757 
L 615.440251 43.443402 
L 615.743763 43.908693 
L 616.047276 44.141338 
L 616.350788 43.210757 
L 616.6543 43.908693 
L 617.261324 43.443402 
L 617.564836 43.908693 
L 617.868348 43.443402 
L 618.171861 43.908693 
L 619.082397 43.908693 
L 619.385909 44.373983 
L 619.689421 43.908693 
L 619.992933 43.676048 
L 620.599958 44.606629 
L 620.90347 43.908693 
L 621.510494 43.908693 
L 621.814006 44.373983 
L 622.117519 43.908693 
L 623.028055 43.908693 
L 623.635079 44.373983 
L 623.938591 43.908693 
L 624.242104 43.676048 
L 624.545616 44.141338 
L 624.849128 44.141338 
L 625.15264 43.908693 
L 625.456152 43.443402 
L 625.759664 43.443402 
L 626.063176 43.908693 
L 626.366689 43.210757 
L 626.670201 43.443402 
L 626.973713 43.443402 
L 627.277225 43.210757 
L 627.580737 43.443402 
L 627.884249 43.210757 
L 629.098298 43.210757 
L 629.40181 42.978112 
L 629.705322 42.512822 
L 630.008834 42.745467 
L 630.312347 42.047531 
L 630.919371 42.512822 
L 631.222883 42.280176 
L 631.526395 41.814886 
L 631.829907 42.280176 
L 632.13342 42.047531 
L 632.740444 42.047531 
L 633.043956 41.814886 
L 633.347468 41.814886 
L 633.954492 41.349595 
L 634.258005 41.814886 
L 634.561517 41.582241 
L 634.865029 41.814886 
L 635.168541 41.11695 
L 635.775565 41.11695 
L 636.079077 41.349595 
L 636.38259 41.349595 
L 636.686102 40.884305 
L 636.989614 40.65166 
L 637.293126 40.884305 
L 637.90015 40.419014 
L 638.203662 40.884305 
L 638.507175 40.65166 
L 638.810687 40.65166 
L 639.114199 40.186369 
L 639.417711 39.953724 
L 639.721223 40.419014 
L 640.024735 40.186369 
L 640.328248 40.419014 
L 640.63176 39.953724 
L 641.238784 39.953724 
L 641.542296 39.488433 
L 641.845808 39.721079 
L 642.14932 39.721079 
L 642.452833 39.488433 
L 643.363369 39.488433 
L 643.666881 39.023143 
L 644.273906 39.488433 
L 644.88093 39.023143 
L 645.184442 39.488433 
L 645.487954 39.488433 
L 646.094978 39.023143 
L 646.398491 39.255788 
L 647.005515 38.790498 
L 647.309027 38.790498 
L 647.612539 39.023143 
L 647.916051 39.488433 
L 648.523076 38.325207 
L 649.1301 38.790498 
L 649.433612 38.557853 
L 649.737124 38.092562 
L 650.040636 38.092562 
L 650.344149 38.325207 
L 650.951173 38.325207 
L 651.254685 38.790498 
L 651.558197 38.092562 
L 651.861709 38.092562 
L 652.772246 38.790498 
L 653.075758 38.557853 
L 653.37927 38.557853 
L 653.682782 38.092562 
L 653.986294 38.325207 
L 654.289806 37.859917 
L 654.593319 37.627272 
L 654.896831 37.627272 
L 655.200343 38.092562 
L 655.503855 38.325207 
L 656.414392 37.627272 
L 657.021416 38.092562 
L 657.324928 38.092562 
L 657.62844 37.859917 
L 657.931952 37.859917 
L 658.235464 37.627272 
L 658.538977 37.859917 
L 658.842489 37.161981 
L 659.146001 37.161981 
L 659.449513 37.627272 
L 660.056537 37.161981 
L 660.36005 37.394626 
L 660.967074 36.929336 
L 661.87761 36.929336 
L 662.181122 37.161981 
L 662.484635 36.929336 
L 662.788147 36.929336 
L 663.091659 36.696691 
L 663.395171 36.929336 
L 663.698683 36.696691 
L 664.002195 36.929336 
L 664.305707 36.696691 
L 664.60922 36.696691 
L 664.912732 36.2314 
L 665.216244 36.929336 
L 665.519756 36.464045 
L 665.823268 36.2314 
L 666.12678 36.2314 
L 666.430292 36.464045 
L 666.733805 36.2314 
L 667.037317 36.696691 
L 667.340829 36.929336 
L 667.644341 36.2314 
L 667.947853 35.998755 
L 668.251365 35.998755 
L 668.554878 36.464045 
L 668.85839 35.998755 
L 669.161902 35.998755 
L 669.465414 36.696691 
L 669.768926 36.2314 
L 670.072438 36.2314 
L 670.37595 35.76611 
L 670.679463 36.2314 
L 670.982975 36.2314 
L 671.286487 35.998755 
L 671.893511 35.998755 
L 672.197023 35.76611 
L 672.500535 35.998755 
L 672.804048 35.533464 
L 673.10756 35.76611 
L 673.714584 35.76611 
L 674.018096 35.533464 
L 674.321608 35.533464 
L 674.625121 35.76611 
L 674.928633 35.300819 
L 675.535657 35.76611 
L 676.142681 35.300819 
L 676.446193 35.76611 
L 676.749706 35.533464 
L 677.053218 35.533464 
L 677.35673 35.068174 
L 677.660242 35.300819 
L 677.963754 35.300819 
L 678.267266 35.068174 
L 678.874291 35.533464 
L 679.177803 35.068174 
L 679.481315 35.300819 
L 679.784827 34.835529 
L 680.088339 35.533464 
L 680.391851 35.068174 
L 680.695364 35.068174 
L 681.302388 35.533464 
L 681.6059 34.835529 
L 681.909412 34.602884 
L 682.212924 34.835529 
L 682.516436 34.602884 
L 683.123461 35.068174 
L 683.426973 34.370238 
L 684.337509 34.370238 
L 684.641022 34.835529 
L 684.944534 34.602884 
L 685.551558 34.602884 
L 685.85507 35.068174 
L 686.158582 34.370238 
L 686.462094 34.602884 
L 686.765607 34.370238 
L 687.069119 34.602884 
L 687.676143 34.602884 
L 687.979655 34.370238 
L 688.283167 34.602884 
L 688.586679 34.370238 
L 688.890192 34.370238 
L 689.497216 33.904948 
L 689.800728 34.137593 
L 690.10424 34.602884 
L 690.407752 34.137593 
L 690.711265 34.137593 
L 691.014777 34.370238 
L 691.318289 34.137593 
L 691.621801 34.602884 
L 691.925313 34.137593 
L 692.532337 34.137593 
L 692.83585 33.904948 
L 693.442874 33.904948 
L 693.746386 33.439657 
L 694.656923 34.137593 
L 694.960435 33.672303 
L 695.263947 34.370238 
L 695.567459 33.207012 
L 695.870971 33.904948 
L 696.174483 33.904948 
L 696.477995 33.439657 
L 697.08502 33.439657 
L 697.388532 33.672303 
L 697.692044 33.672303 
L 697.995556 33.904948 
L 698.299068 33.672303 
L 698.60258 33.672303 
L 698.906093 34.137593 
L 699.209605 33.439657 
L 699.513117 33.904948 
L 699.816629 33.439657 
L 700.120141 33.672303 
L 700.423653 33.672303 
L 700.727166 33.439657 
L 701.33419 33.904948 
L 702.244726 33.904948 
L 702.548238 33.672303 
L 702.851751 34.137593 
L 703.155263 33.439657 
L 703.458775 34.137593 
L 703.762287 33.672303 
L 704.065799 33.439657 
L 704.369311 33.672303 
L 704.672823 33.672303 
L 704.976336 33.439657 
L 705.58336 33.904948 
L 705.886872 34.370238 
L 706.493896 33.439657 
L 706.797409 33.439657 
L 707.404433 33.904948 
L 707.707945 33.672303 
L 708.314969 33.672303 
L 708.618481 33.904948 
L 708.921994 33.439657 
L 709.225506 33.672303 
L 709.529018 34.137593 
L 709.83253 33.672303 
L 710.136042 33.439657 
L 710.439554 33.672303 
L 710.743066 33.672303 
L 711.046579 33.207012 
L 711.350091 33.904948 
L 711.653603 33.672303 
L 711.957115 33.904948 
L 712.564139 33.439657 
L 713.171164 33.904948 
L 713.474676 33.207012 
L 713.778188 33.904948 
L 714.688724 33.207012 
L 714.992237 33.439657 
L 715.295749 33.207012 
L 715.599261 33.439657 
L 716.206285 32.974367 
L 716.509797 32.974367 
L 716.813309 33.439657 
L 717.116822 32.974367 
L 717.723846 33.439657 
L 718.027358 33.207012 
L 718.33087 32.741722 
L 718.634382 32.974367 
L 718.937895 33.439657 
L 719.241407 32.741722 
L 719.544919 32.974367 
L 720.455455 32.974367 
L 720.758967 33.207012 
L 721.06248 32.974367 
L 721.365992 33.672303 
L 721.669504 33.207012 
L 721.973016 32.974367 
L 722.276528 32.974367 
L 722.883553 33.439657 
L 723.794089 32.741722 
L 724.401113 32.741722 
L 724.704625 33.439657 
L 725.008138 32.974367 
L 725.311649 32.741722 
L 725.615161 33.207012 
L 725.918673 33.439657 
L 726.222185 33.439657 
L 726.525697 32.741722 
L 726.829209 32.974367 
L 727.132721 32.741722 
L 727.436233 33.207012 
L 728.043258 32.741722 
L 728.34677 32.974367 
L 728.650282 32.509076 
L 728.953794 32.509076 
L 729.257306 33.207012 
L 729.560818 32.741722 
L 729.86433 32.974367 
L 730.167843 32.741722 
L 730.471355 32.974367 
L 730.774867 32.741722 
L 731.078379 32.974367 
L 731.381891 32.509076 
L 731.685403 32.741722 
L 731.988915 32.741722 
L 732.292428 32.509076 
L 733.202964 32.509076 
L 733.506476 32.741722 
L 733.809988 32.741722 
L 734.1135 32.974367 
L 734.417012 32.043786 
L 734.720525 32.741722 
L 735.024037 32.276431 
L 735.631061 32.276431 
L 735.934573 32.509076 
L 736.238085 32.509076 
L 736.84511 32.043786 
L 737.148622 32.043786 
L 737.452134 32.276431 
L 738.059158 32.276431 
L 738.36267 32.741722 
L 738.969694 31.811141 
L 739.273207 32.043786 
L 739.576719 32.509076 
L 739.880231 32.043786 
L 740.183743 32.276431 
L 740.790767 31.811141 
L 741.094279 32.043786 
L 741.397792 31.811141 
L 742.004816 31.811141 
L 742.308328 32.043786 
L 742.61184 31.811141 
L 742.915352 31.811141 
L 743.218864 32.043786 
L 743.522376 31.811141 
L 743.825889 31.811141 
L 744.129401 31.578495 
L 744.432913 32.276431 
L 744.736425 31.811141 
L 745.039937 31.578495 
L 745.343449 31.811141 
L 745.646961 31.811141 
L 745.950474 31.578495 
L 746.253986 31.811141 
L 746.557498 31.578495 
L 746.86101 31.811141 
L 747.164522 31.578495 
L 747.468034 31.811141 
L 747.771546 31.34585 
L 748.075058 31.811141 
L 748.378571 32.043786 
L 748.985595 31.578495 
L 749.289107 32.043786 
L 749.592619 31.34585 
L 749.896131 31.34585 
L 750.199643 32.276431 
L 750.503156 31.811141 
L 750.806668 31.578495 
L 751.717204 31.578495 
L 752.020716 31.34585 
L 752.324228 31.34585 
L 752.62774 31.811141 
L 752.931253 31.811141 
L 753.538277 31.34585 
L 753.841789 31.578495 
L 754.145301 31.578495 
L 754.448813 31.811141 
L 754.752325 31.578495 
L 755.055837 31.578495 
L 755.35935 31.811141 
L 755.662862 31.578495 
L 755.966374 32.043786 
L 756.269886 31.34585 
L 756.573398 31.811141 
L 756.87691 31.811141 
L 757.180422 31.578495 
L 757.483935 31.811141 
L 757.787447 31.811141 
L 758.090959 31.578495 
L 758.394471 31.578495 
L 759.001495 32.043786 
L 759.305007 32.043786 
L 759.608519 31.811141 
L 759.912032 32.043786 
L 760.215544 31.811141 
L 760.519056 31.811141 
L 760.822568 32.043786 
L 761.12608 31.811141 
L 761.429592 32.043786 
L 762.036617 32.043786 
L 762.340129 32.741722 
L 762.643641 32.509076 
L 762.947153 32.043786 
L 763.250665 32.276431 
L 763.857689 31.811141 
L 764.161201 31.811141 
L 764.464714 32.276431 
L 764.768226 32.276431 
L 765.071738 32.043786 
L 765.37525 32.509076 
L 765.678762 31.578495 
L 765.982274 32.276431 
L 766.285786 32.276431 
L 766.589299 32.509076 
L 766.892811 32.509076 
L 767.196323 32.043786 
L 767.499835 32.741722 
L 767.803347 32.509076 
L 768.713883 33.207012 
L 769.017396 32.741722 
L 769.320908 32.974367 
L 769.62442 32.974367 
L 769.927932 32.741722 
L 770.231444 32.741722 
L 770.534956 33.207012 
L 771.445493 33.207012 
L 771.749005 33.439657 
L 772.052517 33.207012 
L 772.356029 33.207012 
L 772.659541 33.439657 
L 772.963053 33.207012 
L 773.266565 33.439657 
L 773.570078 33.439657 
L 773.87359 33.672303 
L 774.177102 33.439657 
L 774.480614 33.904948 
L 774.784126 33.207012 
L 775.087638 33.904948 
L 775.694662 33.904948 
L 775.998175 34.370238 
L 776.301687 34.370238 
L 776.908711 33.904948 
L 777.212223 33.904948 
L 777.515735 34.602884 
L 777.819247 34.137593 
L 778.12276 34.370238 
L 778.729784 34.370238 
L 779.033296 34.835529 
L 779.336808 35.068174 
L 779.64032 34.835529 
L 780.247344 35.300819 
L 780.550857 35.068174 
L 780.854369 35.068174 
L 781.157881 35.300819 
L 781.461393 35.300819 
L 781.764905 35.533464 
L 782.068417 35.068174 
L 782.371929 35.533464 
L 783.282466 35.533464 
L 783.585978 35.998755 
L 783.88949 35.533464 
L 784.193002 35.998755 
L 784.496514 35.998755 
L 784.800026 35.76611 
L 785.103539 36.464045 
L 785.407051 36.464045 
L 785.710563 35.76611 
L 786.014075 36.696691 
L 786.317587 36.696691 
L 786.621099 35.998755 
L 786.924611 36.696691 
L 787.531636 36.2314 
L 787.835148 36.696691 
L 788.13866 36.464045 
L 788.442172 36.696691 
L 789.352708 36.696691 
L 789.656221 36.929336 
L 789.959733 36.929336 
L 790.263245 36.696691 
L 790.566757 36.2314 
L 790.870269 37.161981 
L 791.477293 36.696691 
L 791.780806 36.696691 
L 792.084318 37.394626 
L 792.38783 37.161981 
L 792.994854 37.161981 
L 793.298366 37.394626 
L 793.601878 37.161981 
L 793.90539 37.161981 
L 794.512415 36.696691 
L 795.119439 37.161981 
L 795.422951 36.929336 
L 795.726463 37.161981 
L 796.029975 37.161981 
L 796.333488 36.929336 
L 796.637 37.394626 
L 796.940512 36.929336 
L 797.547536 36.929336 
L 797.851048 36.696691 
L 798.15456 36.929336 
L 798.761585 36.929336 
L 799.065097 36.464045 
L 799.368609 36.696691 
L 799.672121 36.464045 
L 799.975633 36.464045 
L 800.582657 36.929336 
L 800.886169 36.464045 
L 801.189682 36.464045 
L 801.493194 36.2314 
L 801.796706 36.464045 
L 802.100218 36.464045 
L 802.40373 36.696691 
L 802.707242 36.464045 
L 803.010754 36.929336 
L 803.314267 35.998755 
L 803.617779 36.464045 
L 803.921291 36.464045 
L 804.224803 35.998755 
L 804.528315 36.464045 
L 804.831827 35.998755 
L 805.135339 36.464045 
L 805.438851 36.2314 
L 805.742364 36.696691 
L 806.045876 36.464045 
L 806.349388 36.464045 
L 806.6529 35.998755 
L 806.956412 35.998755 
L 807.259924 36.2314 
L 807.563436 35.998755 
L 808.170461 36.464045 
L 808.473973 35.998755 
L 808.777485 35.998755 
L 809.080997 36.2314 
L 809.384509 36.2314 
L 809.688021 35.998755 
L 809.991533 35.998755 
L 810.295046 35.76611 
L 810.598558 35.998755 
L 811.812606 35.998755 
L 812.116118 35.76611 
L 812.419631 36.2314 
L 812.723143 36.2314 
L 813.330167 35.76611 
L 813.633679 36.464045 
L 813.937191 35.998755 
L 814.847728 35.998755 
L 815.15124 36.2314 
L 815.454752 36.2314 
L 815.758264 35.998755 
L 816.365288 35.998755 
L 816.6688 35.76611 
L 816.972313 35.76611 
L 817.579337 36.2314 
L 817.882849 35.998755 
L 818.186361 36.2314 
L 818.489873 35.998755 
L 820.310946 35.998755 
L 820.614458 35.76611 
L 820.91797 35.998755 
L 821.524995 35.998755 
L 821.828507 35.533464 
L 822.435531 36.464045 
L 822.739043 36.464045 
L 823.346067 35.998755 
L 823.649579 36.464045 
L 823.953092 35.998755 
L 824.256604 35.998755 
L 824.560116 36.2314 
L 824.863628 35.76611 
L 825.16714 35.998755 
L 825.774164 35.998755 
L 826.077676 35.76611 
L 826.381189 36.2314 
L 826.684701 35.76611 
L 826.988213 35.998755 
L 827.291725 35.533464 
L 827.595237 35.998755 
L 827.898749 35.998755 
L 828.202261 35.76611 
L 828.505774 35.998755 
L 828.809286 35.76611 
L 829.112798 36.464045 
L 829.41631 35.76611 
L 830.023334 36.2314 
L 830.630358 35.76611 
L 830.933871 36.2314 
L 831.237383 35.76611 
L 831.540895 35.998755 
L 832.147919 35.998755 
L 832.451431 36.464045 
L 832.754943 35.998755 
L 833.361968 36.464045 
L 833.968992 36.464045 
L 834.272504 36.929336 
L 834.576016 36.464045 
L 834.879528 36.929336 
L 835.18304 36.929336 
L 835.486553 37.161981 
L 836.397089 37.161981 
L 836.700601 37.627272 
L 837.004113 37.161981 
L 837.307625 37.394626 
L 837.611138 38.092562 
L 837.91465 37.859917 
L 838.218162 38.092562 
L 838.521674 37.859917 
L 839.128698 37.859917 
L 839.735722 38.325207 
L 840.039235 38.092562 
L 840.342747 38.325207 
L 840.646259 38.790498 
L 840.949771 38.557853 
L 841.556795 39.023143 
L 841.860307 39.023143 
L 842.16382 39.255788 
L 842.467332 39.023143 
L 842.770844 39.255788 
L 843.377868 39.255788 
L 844.288404 39.953724 
L 844.591917 39.953724 
L 844.895429 40.419014 
L 845.198941 40.419014 
L 845.502453 40.186369 
L 845.805965 40.419014 
L 846.109477 40.419014 
L 846.412989 40.65166 
L 846.716501 40.186369 
L 847.020014 40.65166 
L 847.627038 40.65166 
L 847.93055 41.11695 
L 848.537574 41.11695 
L 848.841086 41.349595 
L 849.448111 41.349595 
L 849.751623 41.814886 
L 850.055135 41.11695 
L 850.358647 41.582241 
L 850.662159 42.512822 
L 850.965671 41.814886 
L 851.269183 42.280176 
L 851.572696 42.280176 
L 851.876208 42.512822 
L 852.17972 41.814886 
L 852.483232 42.512822 
L 852.786744 42.745467 
L 853.090256 42.745467 
L 853.393768 42.978112 
L 853.697281 42.978112 
L 854.000793 43.210757 
L 854.304305 43.210757 
L 854.607817 42.978112 
L 855.214841 43.443402 
L 855.518353 43.443402 
L 855.821865 44.373983 
L 856.42889 43.908693 
L 856.732402 44.373983 
L 857.035914 44.373983 
L 857.339426 44.839274 
L 857.642938 44.373983 
L 858.249963 44.839274 
L 858.856987 44.839274 
L 859.160499 45.304564 
L 860.071035 45.304564 
L 860.374547 45.769855 
L 860.981572 45.304564 
L 861.285084 46.0025 
L 861.588596 45.769855 
L 862.195616 46.235145 
L 862.499128 45.53721 
L 862.80264 46.235145 
L 863.106152 45.769855 
L 863.713177 46.700436 
L 864.016689 46.700436 
L 864.320201 46.46779 
L 864.623713 46.46779 
L 864.927225 46.700436 
L 865.53425 46.700436 
L 865.837762 46.46779 
L 866.141274 46.700436 
L 866.444786 46.700436 
L 866.748298 47.165726 
L 867.05181 46.700436 
L 867.355323 47.165726 
L 867.962347 47.165726 
L 868.265859 47.631017 
L 868.569371 47.165726 
L 868.872883 47.863662 
L 869.176396 47.631017 
L 869.479908 47.863662 
L 869.78342 47.398371 
L 870.086932 47.398371 
L 870.390444 47.863662 
L 870.693956 48.096307 
L 870.997469 48.096307 
L 871.300981 47.863662 
L 871.604493 48.096307 
L 871.908005 47.631017 
L 872.211517 48.328952 
L 872.515029 47.863662 
L 872.818542 48.561598 
L 873.122054 48.328952 
L 873.425566 48.561598 
L 873.729078 48.096307 
L 874.03259 48.561598 
L 874.336102 48.328952 
L 874.639615 48.328952 
L 874.943127 48.561598 
L 875.246639 48.096307 
L 875.853663 48.561598 
L 876.157175 48.561598 
L 876.460688 49.026888 
L 876.7642 49.259533 
L 877.371224 48.794243 
L 877.674736 48.328952 
L 877.978248 48.328952 
L 878.281761 48.561598 
L 878.585273 48.561598 
L 878.888785 48.794243 
L 879.192297 48.328952 
L 879.495809 48.561598 
L 879.799321 48.328952 
L 880.102834 48.328952 
L 880.406346 48.794243 
L 881.01337 48.794243 
L 881.316882 48.561598 
L 881.620394 48.794243 
L 881.923907 48.561598 
L 882.227419 48.096307 
L 882.530931 48.561598 
L 882.834443 48.561598 
L 883.137955 48.328952 
L 883.441467 48.328952 
L 883.74498 48.096307 
L 884.048492 49.259533 
L 884.352004 48.328952 
L 884.655516 47.863662 
L 885.26254 48.328952 
L 885.869565 47.863662 
L 886.173077 47.863662 
L 886.476589 47.165726 
L 886.780101 47.631017 
L 887.387126 47.631017 
L 887.690638 47.165726 
L 887.99415 47.631017 
L 888.297662 47.165726 
L 888.601174 47.398371 
L 889.208199 46.933081 
L 889.815223 46.933081 
L 890.118735 46.700436 
L 890.422247 46.933081 
L 890.72576 46.933081 
L 891.029272 46.235145 
L 891.332784 46.700436 
L 891.636296 46.700436 
L 891.939808 46.235145 
L 892.24332 46.235145 
L 892.546833 46.46779 
L 892.850345 46.46779 
L 893.153857 45.769855 
L 893.457369 46.235145 
L 893.760881 45.769855 
L 894.064393 46.235145 
L 894.367906 46.0025 
L 894.671418 45.53721 
L 894.97493 45.769855 
L 895.278442 45.769855 
L 895.581954 45.53721 
L 895.885466 45.53721 
L 896.188979 45.304564 
L 896.492491 45.769855 
L 897.099515 45.304564 
L 897.403027 45.304564 
L 897.706539 44.839274 
L 898.010052 45.071919 
L 898.617076 45.071919 
L 898.920588 44.839274 
L 899.2241 45.071919 
L 899.527612 44.606629 
L 899.831125 44.839274 
L 900.134637 44.606629 
L 900.741661 44.606629 
L 901.348685 44.141338 
L 901.652198 44.606629 
L 901.95571 44.373983 
L 902.259222 44.373983 
L 902.562734 43.908693 
L 902.866246 44.141338 
L 903.169758 44.141338 
L 903.473271 44.373983 
L 904.080295 43.908693 
L 904.687319 43.908693 
L 904.990831 43.676048 
L 905.294344 44.141338 
L 905.597856 43.443402 
L 905.901368 43.210757 
L 906.20488 43.443402 
L 906.508392 43.443402 
L 906.811904 43.210757 
L 907.115417 43.676048 
L 907.418929 43.210757 
L 907.722441 43.443402 
L 908.025953 43.443402 
L 908.632978 42.978112 
L 908.93649 42.978112 
L 909.240002 42.745467 
L 909.847026 42.745467 
L 910.150538 43.210757 
L 910.454051 42.978112 
L 910.757563 42.512822 
L 911.061075 42.978112 
L 911.364587 42.512822 
L 911.668099 42.745467 
L 911.971611 42.280176 
L 912.275124 42.047531 
L 912.882148 42.512822 
L 913.18566 42.512822 
L 913.489172 42.280176 
L 913.792684 41.814886 
L 914.399709 42.280176 
L 914.703221 42.047531 
L 915.006733 42.280176 
L 915.613757 41.814886 
L 915.91727 42.512822 
L 916.220782 42.280176 
L 916.524294 41.582241 
L 916.827806 41.814886 
L 917.43483 41.349595 
L 917.738343 41.582241 
L 917.738343 41.582241 
" clip-path="url(#p40fe94264c)" style="fill: none; stroke: #ea580c; stroke-opacity: 0.95; stroke-width: 0.936; stroke-linecap: square"/>
   </g>
   <g id="patch_20">
    <path d="M 39.330625 228.954713 
L 39.330625 17.061433 
" style="fill: none; stroke: #cbd5e1; stroke-width: 0.8; stroke-linejoin: miter; stroke-linecap: square"/>
   </g>
   <g id="patch_21">
    <path d="M 935.305625 228.954713 
L 935.305625 17.061433 
" style="fill: none; stroke: #cbd5e1; stroke-width: 0.8; stroke-linejoin: miter; stroke-linecap: square"/>
   </g>
   <g id="patch_22">
    <path d="M 39.330625 228.954713 
L 935.305625 228.954713 
" style="fill: none; stroke: #cbd5e1; stroke-width: 0.8; stroke-linejoin: miter; stroke-linecap: square"/>
   </g>
   <g id="patch_23">
    <path d="M 39.330625 17.061433 
L 935.305625 17.061433 
" style="fill: none; stroke: #cbd5e1; stroke-width: 0.8; stroke-linejoin: miter; stroke-linecap: square"/>
   </g>
   <g id="text_19">
    <!-- ACC -->
    <g style="fill: #475569" transform="translate(122.131765 13.27875) scale(0.08 -0.08)">
     <defs>
      <path id="DejaVuSans-41" d="M 2188 4044 
L 1331 1722 
L 3047 1722 
L 2188 4044 
z
M 1831 4666 
L 2547 4666 
L 4325 0 
L 3669 0 
L 3244 1197 
L 1141 1197 
L 716 0 
L 50 0 
L 1831 4666 
z
" transform="scale(0.015625)"/>
     </defs>
     <use xlink:href="#DejaVuSans-41"/>
     <use xlink:href="#DejaVuSans-43" transform="translate(66.658203 0)"/>
     <use xlink:href="#DejaVuSans-43" transform="translate(136.482422 0)"/>
    </g>
   </g>
   <g id="text_20">
    <!-- OC -->
    <g style="fill: #475569" transform="translate(229.154075 13.27875) scale(0.08 -0.08)">
     <defs>
      <path id="DejaVuSans-4f" d="M 2522 4238 
Q 1834 4238 1429 3725 
Q 1025 3213 1025 2328 
Q 1025 1447 1429 934 
Q 1834 422 2522 422 
Q 3209 422 3611 934 
Q 4013 1447 4013 2328 
Q 4013 3213 3611 3725 
Q 3209 4238 2522 4238 
z
M 2522 4750 
Q 3503 4750 4090 4092 
Q 4678 3434 4678 2328 
Q 4678 1225 4090 567 
Q 3503 -91 2522 -91 
Q 1538 -91 948 565 
Q 359 1222 359 2328 
Q 359 3434 948 4092 
Q 1538 4750 2522 4750 
z
" transform="scale(0.015625)"/>
     </defs>
     <use xlink:href="#DejaVuSans-4f"/>
     <use xlink:href="#DejaVuSans-43" transform="translate(78.710938 0)"/>
    </g>
   </g>
   <g id="text_21">
    <!-- FCS -->
    <g style="fill: #475569" transform="translate(254.778917 13.27875) scale(0.08 -0.08)">
     <defs>
      <path id="DejaVuSans-46" d="M 628 4666 
L 3309 4666 
L 3309 4134 
L 1259 4134 
L 1259 2759 
L 3109 2759 
L 3109 2228 
L 1259 2228 
L 1259 0 
L 628 0 
L 628 4666 
z
" transform="scale(0.015625)"/>
      <path id="DejaVuSans-53" d="M 3425 4513 
L 3425 3897 
Q 3066 4069 2747 4153 
Q 2428 4238 2131 4238 
Q 1616 4238 1336 4038 
Q 1056 3838 1056 3469 
Q 1056 3159 1242 3001 
Q 1428 2844 1947 2747 
L 2328 2669 
Q 3034 2534 3370 2195 
Q 3706 1856 3706 1288 
Q 3706 609 3251 259 
Q 2797 -91 1919 -91 
Q 1588 -91 1214 -16 
Q 841 59 441 206 
L 441 856 
Q 825 641 1194 531 
Q 1563 422 1919 422 
Q 2459 422 2753 634 
Q 3047 847 3047 1241 
Q 3047 1584 2836 1778 
Q 2625 1972 2144 2069 
L 1759 2144 
Q 1053 2284 737 2584 
Q 422 2884 422 3419 
Q 422 4038 858 4394 
Q 1294 4750 2059 4750 
Q 2388 4750 2728 4690 
Q 3069 4631 3425 4513 
z
" transform="scale(0.015625)"/>
     </defs>
     <use xlink:href="#DejaVuSans-46"/>
     <use xlink:href="#DejaVuSans-43" transform="translate(57.519531 0)"/>
     <use xlink:href="#DejaVuSans-53" transform="translate(127.34375 0)"/>
    </g>
   </g>
   <g id="text_22">
    <!-- SR -->
    <g style="fill: #475569" transform="translate(288.962066 13.27875) scale(0.08 -0.08)">
     <defs>
      <path id="DejaVuSans-52" d="M 2841 2188 
Q 3044 2119 3236 1894 
Q 3428 1669 3622 1275 
L 4263 0 
L 3584 0 
L 2988 1197 
Q 2756 1666 2539 1819 
Q 2322 1972 1947 1972 
L 1259 1972 
L 1259 0 
L 628 0 
L 628 4666 
L 2053 4666 
Q 2853 4666 3247 4331 
Q 3641 3997 3641 3322 
Q 3641 2881 3436 2590 
Q 3231 2300 2841 2188 
z
M 1259 4147 
L 1259 2491 
L 2053 2491 
Q 2509 2491 2742 2702 
Q 2975 2913 2975 3322 
Q 2975 3731 2742 3939 
Q 2509 4147 2053 4147 
L 1259 4147 
z
" transform="scale(0.015625)"/>
     </defs>
     <use xlink:href="#DejaVuSans-53"/>
     <use xlink:href="#DejaVuSans-52" transform="translate(63.476562 0)"/>
    </g>
   </g>
   <g id="text_23">
    <!-- FFC -->
    <g style="fill: #475569" transform="translate(330.13692 13.27875) scale(0.08 -0.08)">
     <use xlink:href="#DejaVuSans-46"/>
     <use xlink:href="#DejaVuSans-46" transform="translate(57.519531 0)"/>
     <use xlink:href="#DejaVuSans-43" transform="translate(115.039062 0)"/>
    </g>
   </g>
   <g id="text_24">
    <!-- SS -->
    <g style="fill: #475569" transform="translate(416.677162 13.27875) scale(0.08 -0.08)">
     <use xlink:href="#DejaVuSans-53"/>
     <use xlink:href="#DejaVuSans-53" transform="translate(63.476562 0)"/>
    </g>
   </g>
   <g id="text_25">
    <!-- OC -->
    <g style="fill: #475569" transform="translate(486.380608 13.27875) scale(0.08 -0.08)">
     <use xlink:href="#DejaVuSans-4f"/>
     <use xlink:href="#DejaVuSans-43" transform="translate(78.710938 0)"/>
    </g>
   </g>
   <g id="text_26">
    <!-- FCS -->
    <g style="fill: #475569" transform="translate(509.729109 13.27875) scale(0.08 -0.08)">
     <use xlink:href="#DejaVuSans-46"/>
     <use xlink:href="#DejaVuSans-43" transform="translate(57.519531 0)"/>
     <use xlink:href="#DejaVuSans-53" transform="translate(127.34375 0)"/>
    </g>
   </g>
   <g id="text_27">
    <!-- SR -->
    <g style="fill: #475569" transform="translate(543.912258 13.27875) scale(0.08 -0.08)">
     <use xlink:href="#DejaVuSans-53"/>
     <use xlink:href="#DejaVuSans-52" transform="translate(63.476562 0)"/>
    </g>
   </g>
   <g id="text_28">
    <!-- FFC -->
    <g style="fill: #475569" transform="translate(585.087111 13.27875) scale(0.08 -0.08)">
     <use xlink:href="#DejaVuSans-46"/>
     <use xlink:href="#DejaVuSans-46" transform="translate(57.519531 0)"/>
     <use xlink:href="#DejaVuSans-43" transform="translate(115.039062 0)"/>
    </g>
   </g>
   <g id="text_29">
    <!-- SS -->
    <g style="fill: #475569" transform="translate(671.627353 13.27875) scale(0.08 -0.08)">
     <use xlink:href="#DejaVuSans-53"/>
     <use xlink:href="#DejaVuSans-53" transform="translate(63.476562 0)"/>
    </g>
   </g>
   <g id="text_30">
    <!-- OC -->
    <g style="fill: #475569" transform="translate(741.330799 13.27875) scale(0.08 -0.08)">
     <use xlink:href="#DejaVuSans-4f"/>
     <use xlink:href="#DejaVuSans-43" transform="translate(78.710938 0)"/>
    </g>
   </g>
   <g id="text_31">
    <!-- FCS -->
    <g style="fill: #475569" transform="translate(764.6793 13.27875) scale(0.08 -0.08)">
     <use xlink:href="#DejaVuSans-46"/>
     <use xlink:href="#DejaVuSans-43" transform="translate(57.519531 0)"/>
     <use xlink:href="#DejaVuSans-53" transform="translate(127.34375 0)"/>
    </g>
   </g>
   <g id="text_32">
    <!-- SR -->
    <g style="fill: #475569" transform="translate(798.862449 13.27875) scale(0.08 -0.08)">
     <use xlink:href="#DejaVuSans-53"/>
     <use xlink:href="#DejaVuSans-52" transform="translate(63.476562 0)"/>
    </g>
   </g>
   <g id="text_33">
    <!-- FFC -->
    <g style="fill: #475569" transform="translate(840.037303 13.27875) scale(0.08 -0.08)">
     <use xlink:href="#DejaVuSans-46"/>
     <use xlink:href="#DejaVuSans-46" transform="translate(57.519531 0)"/>
     <use xlink:href="#DejaVuSans-43" transform="translate(115.039062 0)"/>
    </g>
   </g>
   <g id="text_34">
    <!-- SS -->
    <g style="fill: #475569" transform="translate(887.879748 13.27875) scale(0.08 -0.08)">
     <use xlink:href="#DejaVuSans-53"/>
     <use xlink:href="#DejaVuSans-53" transform="translate(63.476562 0)"/>
    </g>
   </g>
   <g id="legend_1">
    <g id="line2d_34">
     <path d="M 815.393125 27.540183 
L 823.393125 27.540183 
L 831.393125 27.540183 
" style="fill: none; stroke: #ea580c; stroke-opacity: 0.95; stroke-width: 1.3; stroke-linecap: square"/>
    </g>
    <g id="text_35">
     <!-- Empatica temperature -->
     <g transform="translate(837.793125 30.340183) scale(0.08 -0.08)">
      <defs>
       <path id="DejaVuSans-45" d="M 628 4666 
L 3578 4666 
L 3578 4134 
L 1259 4134 
L 1259 2753 
L 3481 2753 
L 3481 2222 
L 1259 2222 
L 1259 531 
L 3634 531 
L 3634 0 
L 628 0 
L 628 4666 
z
" transform="scale(0.015625)"/>
      </defs>
      <use xlink:href="#DejaVuSans-45"/>
      <use xlink:href="#DejaVuSans-6d" transform="translate(63.183594 0)"/>
      <use xlink:href="#DejaVuSans-70" transform="translate(160.595703 0)"/>
      <use xlink:href="#DejaVuSans-61" transform="translate(224.072266 0)"/>
      <use xlink:href="#DejaVuSans-74" transform="translate(285.351562 0)"/>
      <use xlink:href="#DejaVuSans-69" transform="translate(324.560547 0)"/>
      <use xlink:href="#DejaVuSans-63" transform="translate(352.34375 0)"/>
      <use xlink:href="#DejaVuSans-61" transform="translate(407.324219 0)"/>
      <use xlink:href="#DejaVuSans-20" transform="translate(468.603516 0)"/>
      <use xlink:href="#DejaVuSans-74" transform="translate(500.390625 0)"/>
      <use xlink:href="#DejaVuSans-65" transform="translate(539.599609 0)"/>
      <use xlink:href="#DejaVuSans-6d" transform="translate(601.123047 0)"/>
      <use xlink:href="#DejaVuSans-70" transform="translate(698.535156 0)"/>
      <use xlink:href="#DejaVuSans-65" transform="translate(762.011719 0)"/>
      <use xlink:href="#DejaVuSans-72" transform="translate(823.535156 0)"/>
      <use xlink:href="#DejaVuSans-61" transform="translate(864.648438 0)"/>
      <use xlink:href="#DejaVuSans-74" transform="translate(925.927734 0)"/>
      <use xlink:href="#DejaVuSans-75" transform="translate(965.136719 0)"/>
      <use xlink:href="#DejaVuSans-72" transform="translate(1028.515625 0)"/>
      <use xlink:href="#DejaVuSans-65" transform="translate(1067.378906 0)"/>
     </g>
    </g>
   </g>
  </g>
 </g>
 <defs>
  <clipPath id="p40fe94264c">
   <rect x="39.330625" y="17.061433" width="895.975" height="211.89328"/>
  </clipPath>
 </defs>
</svg>
