<?xml version="1.0" encoding="utf-8" standalone="no"?>
<!DOCTYPE svg PUBLIC "-//W3C//DTD SVG 1.1//EN"
  "http://www.w3.org/Graphics/SVG/1.1/DTD/svg11.dtd">
<svg xmlns:xlink="http://www.w3.org/1999/xlink" width="942.542187pt" height="265.54315pt" viewBox="0 0 942.542187 265.54315" xmlns="http://www.w3.org/2000/svg" version="1.1">
 <metadata>
  <rdf:RDF xmlns:dc="http://purl.org/dc/elements/1.1/" xmlns:cc="http://creativecommons.org/ns#" xmlns:rdf="http://www.w3.org/1999/02/22-rdf-syntax-ns#">
   <cc:Work>
    <dc:type rdf:resource="http://purl.org/dc/dcmitype/StillImage"/>
    <dc:date>2026-04-17T17:34:09.301917</dc:date>
    <dc:format>image/svg+xml</dc:format>
    <dc:creator>
     <cc:Agent>
      <dc:title>Matplotlib v3.10.8, https://matplotlib.org/</dc:title>
     </cc:Agent>
    </dc:creator>
   </cc:Work>
  </rdf:RDF>
 </metadata>
 <defs>
  <style type="text/css">*{stroke-linejoin: round; stroke-linecap: butt}</style>
 </defs>
 <g id="figure_1">
  <g id="patch_1">
   <path d="M 0 265.54315 
L 942.542187 265.54315 
L 942.542187 0 
L 0 0 
z
" style="fill: #ffffff"/>
  </g>
  <g id="axes_1">
   <g id="patch_2">
    <path d="M 47.917188 228.954713 
L 935.342187 228.954713 
L 935.342187 17.061433 
L 47.917188 17.061433 
z
" style="fill: #ffffff"/>
   </g>
   <g id="patch_3">
    <path d="M 47.917188 228.954713 
L 229.22608 228.954713 
L 229.22608 17.061433 
L 47.917188 17.061433 
z
" clip-path="url(#pa3987eaa51)" style="fill: #f8fafc; opacity: 0.45"/>
   </g>
   <g id="patch_4">
    <path d="M 229.22608 228.954713 
L 247.356969 228.954713 
L 247.356969 17.061433 
L 229.22608 17.061433 
z
" clip-path="url(#pa3987eaa51)" style="fill: #eff6ff; opacity: 0.45"/>
   </g>
   <g id="patch_5">
    <path d="M 247.356969 228.954713 
L 274.553303 228.954713 
L 274.553303 17.061433 
L 247.356969 17.061433 
z
" clip-path="url(#pa3987eaa51)" style="fill: #fef3c7; opacity: 0.45"/>
   </g>
   <g id="patch_6">
    <path d="M 274.553303 228.954713 
L 315.347803 228.954713 
L 315.347803 17.061433 
L 274.553303 17.061433 
z
" clip-path="url(#pa3987eaa51)" style="fill: #dcfce7; opacity: 0.45"/>
   </g>
   <g id="patch_7">
    <path d="M 315.347803 228.954713 
L 360.675026 228.954713 
L 360.675026 17.061433 
L 315.347803 17.061433 
z
" clip-path="url(#pa3987eaa51)" style="fill: #fee2e2; opacity: 0.45"/>
   </g>
   <g id="patch_8">
    <path d="M 360.675026 228.954713 
L 365.207749 228.954713 
L 365.207749 17.061433 
L 360.675026 17.061433 
z
" clip-path="url(#pa3987eaa51)" style="fill: #ede9fe; opacity: 0.45"/>
   </g>
   <g id="patch_9">
    <path d="M 365.207749 228.954713 
L 478.525806 228.954713 
L 478.525806 17.061433 
L 365.207749 17.061433 
z
" clip-path="url(#pa3987eaa51)" style="fill: #f8fafc; opacity: 0.45"/>
   </g>
   <g id="patch_10">
    <path d="M 478.525806 228.954713 
L 501.189418 228.954713 
L 501.189418 17.061433 
L 478.525806 17.061433 
z
" clip-path="url(#pa3987eaa51)" style="fill: #eff6ff; opacity: 0.45"/>
   </g>
   <g id="patch_11">
    <path d="M 501.189418 228.954713 
L 528.385752 228.954713 
L 528.385752 17.061433 
L 501.189418 17.061433 
z
" clip-path="url(#pa3987eaa51)" style="fill: #fef3c7; opacity: 0.45"/>
   </g>
   <g id="patch_12">
    <path d="M 528.385752 228.954713 
L 569.180252 228.954713 
L 569.180252 17.061433 
L 528.385752 17.061433 
z
" clip-path="url(#pa3987eaa51)" style="fill: #dcfce7; opacity: 0.45"/>
   </g>
   <g id="patch_13">
    <path d="M 569.180252 228.954713 
L 614.507475 228.954713 
L 614.507475 17.061433 
L 569.180252 17.061433 
z
" clip-path="url(#pa3987eaa51)" style="fill: #fee2e2; opacity: 0.45"/>
   </g>
   <g id="patch_14">
    <path d="M 614.507475 228.954713 
L 619.040198 228.954713 
L 619.040198 17.061433 
L 614.507475 17.061433 
z
" clip-path="url(#pa3987eaa51)" style="fill: #ede9fe; opacity: 0.45"/>
   </g>
   <g id="patch_15">
    <path d="M 619.040198 228.954713 
L 732.358255 228.954713 
L 732.358255 17.061433 
L 619.040198 17.061433 
z
" clip-path="url(#pa3987eaa51)" style="fill: #f8fafc; opacity: 0.45"/>
   </g>
   <g id="patch_16">
    <path d="M 732.358255 228.954713 
L 755.021867 228.954713 
L 755.021867 17.061433 
L 732.358255 17.061433 
z
" clip-path="url(#pa3987eaa51)" style="fill: #eff6ff; opacity: 0.45"/>
   </g>
   <g id="patch_17">
    <path d="M 755.021867 228.954713 
L 782.218201 228.954713 
L 782.218201 17.061433 
L 755.021867 17.061433 
z
" clip-path="url(#pa3987eaa51)" style="fill: #fef3c7; opacity: 0.45"/>
   </g>
   <g id="patch_18">
    <path d="M 782.218201 228.954713 
L 823.012701 228.954713 
L 823.012701 17.061433 
L 782.218201 17.061433 
z
" clip-path="url(#pa3987eaa51)" style="fill: #dcfce7; opacity: 0.45"/>
   </g>
   <g id="patch_19">
    <path d="M 823.012701 228.954713 
L 868.339924 228.954713 
L 868.339924 17.061433 
L 823.012701 17.061433 
z
" clip-path="url(#pa3987eaa51)" style="fill: #fee2e2; opacity: 0.45"/>
   </g>
   <g id="patch_20">
    <path d="M 868.339924 228.954713 
L 872.872647 228.954713 
L 872.872647 17.061433 
L 868.339924 17.061433 
z
" clip-path="url(#pa3987eaa51)" style="fill: #ede9fe; opacity: 0.45"/>
   </g>
   <g id="patch_21">
    <path d="M 872.872647 228.954713 
L 913.667147 228.954713 
L 913.667147 17.061433 
L 872.872647 17.061433 
z
" clip-path="url(#pa3987eaa51)" style="fill: #f8fafc; opacity: 0.45"/>
   </g>
   <g id="patch_22">
    <path d="M 913.667147 228.954713 
L 918.19987 228.954713 
L 918.19987 17.061433 
L 913.667147 17.061433 
z
" clip-path="url(#pa3987eaa51)" style="fill: #eff6ff; opacity: 0.45"/>
   </g>
   <g id="matplotlib.axis_1">
    <g id="xtick_1">
     <g id="line2d_1">
      <path d="M 47.917188 228.954713 
L 47.917188 17.061433 
" clip-path="url(#pa3987eaa51)" style="fill: none; stroke: #eef2f7; stroke-width: 0.55; stroke-linecap: square"/>
     </g>
     <g id="line2d_2">
      <defs>
       <path id="mb341f27a78" d="M 0 0 
L 0 3.5 
" style="stroke: #000000; stroke-width: 0.8"/>
      </defs>
      <g>
       <use xlink:href="#mb341f27a78" x="47.917188" y="228.954713" style="stroke: #000000; stroke-width: 0.8"/>
      </g>
     </g>
     <g id="text_1">
      <!-- 0 -->
      <g transform="translate(45.054063 242.793307) scale(0.09 -0.09)">
       <defs>
        <path id="DejaVuSans-30" d="M 2034 4250 
Q 1547 4250 1301 3770 
Q 1056 3291 1056 2328 
Q 1056 1369 1301 889 
Q 1547 409 2034 409 
Q 2525 409 2770 889 
Q 3016 1369 3016 2328 
Q 3016 3291 2770 3770 
Q 2525 4250 2034 4250 
z
M 2034 4750 
Q 2819 4750 3233 4129 
Q 3647 3509 3647 2328 
Q 3647 1150 3233 529 
Q 2819 -91 2034 -91 
Q 1250 -91 836 529 
Q 422 1150 422 2328 
Q 422 3509 836 4129 
Q 1250 4750 2034 4750 
z
" transform="scale(0.015625)"/>
       </defs>
       <use xlink:href="#DejaVuSans-30"/>
      </g>
     </g>
    </g>
    <g id="xtick_2">
     <g id="line2d_3">
      <path d="M 161.235245 228.954713 
L 161.235245 17.061433 
" clip-path="url(#pa3987eaa51)" style="fill: none; stroke: #eef2f7; stroke-width: 0.55; stroke-linecap: square"/>
     </g>
     <g id="line2d_4">
      <g>
       <use xlink:href="#mb341f27a78" x="161.235245" y="228.954713" style="stroke: #000000; stroke-width: 0.8"/>
      </g>
     </g>
     <g id="text_2">
      <!-- 25 -->
      <g transform="translate(155.508995 242.793307) scale(0.09 -0.09)">
       <defs>
        <path id="DejaVuSans-32" d="M 1228 531 
L 3431 531 
L 3431 0 
L 469 0 
L 469 531 
Q 828 903 1448 1529 
Q 2069 2156 2228 2338 
Q 2531 2678 2651 2914 
Q 2772 3150 2772 3378 
Q 2772 3750 2511 3984 
Q 2250 4219 1831 4219 
Q 1534 4219 1204 4116 
Q 875 4013 500 3803 
L 500 4441 
Q 881 4594 1212 4672 
Q 1544 4750 1819 4750 
Q 2544 4750 2975 4387 
Q 3406 4025 3406 3419 
Q 3406 3131 3298 2873 
Q 3191 2616 2906 2266 
Q 2828 2175 2409 1742 
Q 1991 1309 1228 531 
z
" transform="scale(0.015625)"/>
        <path id="DejaVuSans-35" d="M 691 4666 
L 3169 4666 
L 3169 4134 
L 1269 4134 
L 1269 2991 
Q 1406 3038 1543 3061 
Q 1681 3084 1819 3084 
Q 2600 3084 3056 2656 
Q 3513 2228 3513 1497 
Q 3513 744 3044 326 
Q 2575 -91 1722 -91 
Q 1428 -91 1123 -41 
Q 819 9 494 109 
L 494 744 
Q 775 591 1075 516 
Q 1375 441 1709 441 
Q 2250 441 2565 725 
Q 2881 1009 2881 1497 
Q 2881 1984 2565 2268 
Q 2250 2553 1709 2553 
Q 1456 2553 1204 2497 
Q 953 2441 691 2322 
L 691 4666 
z
" transform="scale(0.015625)"/>
       </defs>
       <use xlink:href="#DejaVuSans-32"/>
       <use xlink:href="#DejaVuSans-35" transform="translate(63.623047 0)"/>
      </g>
     </g>
    </g>
    <g id="xtick_3">
     <g id="line2d_5">
      <path d="M 274.553303 228.954713 
L 274.553303 17.061433 
" clip-path="url(#pa3987eaa51)" style="fill: none; stroke: #eef2f7; stroke-width: 0.55; stroke-linecap: square"/>
     </g>
     <g id="line2d_6">
      <g>
       <use xlink:href="#mb341f27a78" x="274.553303" y="228.954713" style="stroke: #000000; stroke-width: 0.8"/>
      </g>
     </g>
     <g id="text_3">
      <!-- 50 -->
      <g transform="translate(268.827053 242.793307) scale(0.09 -0.09)">
       <use xlink:href="#DejaVuSans-35"/>
       <use xlink:href="#DejaVuSans-30" transform="translate(63.623047 0)"/>
      </g>
     </g>
    </g>
    <g id="xtick_4">
     <g id="line2d_7">
      <path d="M 387.87136 228.954713 
L 387.87136 17.061433 
" clip-path="url(#pa3987eaa51)" style="fill: none; stroke: #eef2f7; stroke-width: 0.55; stroke-linecap: square"/>
     </g>
     <g id="line2d_8">
      <g>
       <use xlink:href="#mb341f27a78" x="387.87136" y="228.954713" style="stroke: #000000; stroke-width: 0.8"/>
      </g>
     </g>
     <g id="text_4">
      <!-- 75 -->
      <g transform="translate(382.14511 242.793307) scale(0.09 -0.09)">
       <defs>
        <path id="DejaVuSans-37" d="M 525 4666 
L 3525 4666 
L 3525 4397 
L 1831 0 
L 1172 0 
L 2766 4134 
L 525 4134 
L 525 4666 
z
" transform="scale(0.015625)"/>
       </defs>
       <use xlink:href="#DejaVuSans-37"/>
       <use xlink:href="#DejaVuSans-35" transform="translate(63.623047 0)"/>
      </g>
     </g>
    </g>
    <g id="xtick_5">
     <g id="line2d_9">
      <path d="M 501.189418 228.954713 
L 501.189418 17.061433 
" clip-path="url(#pa3987eaa51)" style="fill: none; stroke: #eef2f7; stroke-width: 0.55; stroke-linecap: square"/>
     </g>
     <g id="line2d_10">
      <g>
       <use xlink:href="#mb341f27a78" x="501.189418" y="228.954713" style="stroke: #000000; stroke-width: 0.8"/>
      </g>
     </g>
     <g id="text_5">
      <!-- 100 -->
      <g transform="translate(492.600043 242.793307) scale(0.09 -0.09)">
       <defs>
        <path id="DejaVuSans-31" d="M 794 531 
L 1825 531 
L 1825 4091 
L 703 3866 
L 703 4441 
L 1819 4666 
L 2450 4666 
L 2450 531 
L 3481 531 
L 3481 0 
L 794 0 
L 794 531 
z
" transform="scale(0.015625)"/>
       </defs>
       <use xlink:href="#DejaVuSans-31"/>
       <use xlink:href="#DejaVuSans-30" transform="translate(63.623047 0)"/>
       <use xlink:href="#DejaVuSans-30" transform="translate(127.246094 0)"/>
      </g>
     </g>
    </g>
    <g id="xtick_6">
     <g id="line2d_11">
      <path d="M 614.507475 228.954713 
L 614.507475 17.061433 
" clip-path="url(#pa3987eaa51)" style="fill: none; stroke: #eef2f7; stroke-width: 0.55; stroke-linecap: square"/>
     </g>
     <g id="line2d_12">
      <g>
       <use xlink:href="#mb341f27a78" x="614.507475" y="228.954713" style="stroke: #000000; stroke-width: 0.8"/>
      </g>
     </g>
     <g id="text_6">
      <!-- 125 -->
      <g transform="translate(605.9181 242.793307) scale(0.09 -0.09)">
       <use xlink:href="#DejaVuSans-31"/>
       <use xlink:href="#DejaVuSans-32" transform="translate(63.623047 0)"/>
       <use xlink:href="#DejaVuSans-35" transform="translate(127.246094 0)"/>
      </g>
     </g>
    </g>
    <g id="xtick_7">
     <g id="line2d_13">
      <path d="M 727.825533 228.954713 
L 727.825533 17.061433 
" clip-path="url(#pa3987eaa51)" style="fill: none; stroke: #eef2f7; stroke-width: 0.55; stroke-linecap: square"/>
     </g>
     <g id="line2d_14">
      <g>
       <use xlink:href="#mb341f27a78" x="727.825533" y="228.954713" style="stroke: #000000; stroke-width: 0.8"/>
      </g>
     </g>
     <g id="text_7">
      <!-- 150 -->
      <g transform="translate(719.236158 242.793307) scale(0.09 -0.09)">
       <use xlink:href="#DejaVuSans-31"/>
       <use xlink:href="#DejaVuSans-35" transform="translate(63.623047 0)"/>
       <use xlink:href="#DejaVuSans-30" transform="translate(127.246094 0)"/>
      </g>
     </g>
    </g>
    <g id="xtick_8">
     <g id="line2d_15">
      <path d="M 841.143591 228.954713 
L 841.143591 17.061433 
" clip-path="url(#pa3987eaa51)" style="fill: none; stroke: #eef2f7; stroke-width: 0.55; stroke-linecap: square"/>
     </g>
     <g id="line2d_16">
      <g>
       <use xlink:href="#mb341f27a78" x="841.143591" y="228.954713" style="stroke: #000000; stroke-width: 0.8"/>
      </g>
     </g>
     <g id="text_8">
      <!-- 175 -->
      <g transform="translate(832.554216 242.793307) scale(0.09 -0.09)">
       <use xlink:href="#DejaVuSans-31"/>
       <use xlink:href="#DejaVuSans-37" transform="translate(63.623047 0)"/>
       <use xlink:href="#DejaVuSans-35" transform="translate(127.246094 0)"/>
      </g>
     </g>
    </g>
    <g id="text_9">
     <!-- Minutes since session start -->
     <g transform="translate(424.039844 256.263463) scale(0.1 -0.1)">
      <defs>
       <path id="DejaVuSans-4d" d="M 628 4666 
L 1569 4666 
L 2759 1491 
L 3956 4666 
L 4897 4666 
L 4897 0 
L 4281 0 
L 4281 4097 
L 3078 897 
L 2444 897 
L 1241 4097 
L 1241 0 
L 628 0 
L 628 4666 
z
" transform="scale(0.015625)"/>
       <path id="DejaVuSans-69" d="M 603 3500 
L 1178 3500 
L 1178 0 
L 603 0 
L 603 3500 
z
M 603 4863 
L 1178 4863 
L 1178 4134 
L 603 4134 
L 603 4863 
z
" transform="scale(0.015625)"/>
       <path id="DejaVuSans-6e" d="M 3513 2113 
L 3513 0 
L 2938 0 
L 2938 2094 
Q 2938 2591 2744 2837 
Q 2550 3084 2163 3084 
Q 1697 3084 1428 2787 
Q 1159 2491 1159 1978 
L 1159 0 
L 581 0 
L 581 3500 
L 1159 3500 
L 1159 2956 
Q 1366 3272 1645 3428 
Q 1925 3584 2291 3584 
Q 2894 3584 3203 3211 
Q 3513 2838 3513 2113 
z
" transform="scale(0.015625)"/>
       <path id="DejaVuSans-75" d="M 544 1381 
L 544 3500 
L 1119 3500 
L 1119 1403 
Q 1119 906 1312 657 
Q 1506 409 1894 409 
Q 2359 409 2629 706 
Q 2900 1003 2900 1516 
L 2900 3500 
L 3475 3500 
L 3475 0 
L 2900 0 
L 2900 538 
Q 2691 219 2414 64 
Q 2138 -91 1772 -91 
Q 1169 -91 856 284 
Q 544 659 544 1381 
z
M 1991 3584 
L 1991 3584 
z
" transform="scale(0.015625)"/>
       <path id="DejaVuSans-74" d="M 1172 4494 
L 1172 3500 
L 2356 3500 
L 2356 3053 
L 1172 3053 
L 1172 1153 
Q 1172 725 1289 603 
Q 1406 481 1766 481 
L 2356 481 
L 2356 0 
L 1766 0 
Q 1100 0 847 248 
Q 594 497 594 1153 
L 594 3053 
L 172 3053 
L 172 3500 
L 594 3500 
L 594 4494 
L 1172 4494 
z
" transform="scale(0.015625)"/>
       <path id="DejaVuSans-65" d="M 3597 1894 
L 3597 1613 
L 953 1613 
Q 991 1019 1311 708 
Q 1631 397 2203 397 
Q 2534 397 2845 478 
Q 3156 559 3463 722 
L 3463 178 
Q 3153 47 2828 -22 
Q 2503 -91 2169 -91 
Q 1331 -91 842 396 
Q 353 884 353 1716 
Q 353 2575 817 3079 
Q 1281 3584 2069 3584 
Q 2775 3584 3186 3129 
Q 3597 2675 3597 1894 
z
M 3022 2063 
Q 3016 2534 2758 2815 
Q 2500 3097 2075 3097 
Q 1594 3097 1305 2825 
Q 1016 2553 972 2059 
L 3022 2063 
z
" transform="scale(0.015625)"/>
       <path id="DejaVuSans-73" d="M 2834 3397 
L 2834 2853 
Q 2591 2978 2328 3040 
Q 2066 3103 1784 3103 
Q 1356 3103 1142 2972 
Q 928 2841 928 2578 
Q 928 2378 1081 2264 
Q 1234 2150 1697 2047 
L 1894 2003 
Q 2506 1872 2764 1633 
Q 3022 1394 3022 966 
Q 3022 478 2636 193 
Q 2250 -91 1575 -91 
Q 1294 -91 989 -36 
Q 684 19 347 128 
L 347 722 
Q 666 556 975 473 
Q 1284 391 1588 391 
Q 1994 391 2212 530 
Q 2431 669 2431 922 
Q 2431 1156 2273 1281 
Q 2116 1406 1581 1522 
L 1381 1569 
Q 847 1681 609 1914 
Q 372 2147 372 2553 
Q 372 3047 722 3315 
Q 1072 3584 1716 3584 
Q 2034 3584 2315 3537 
Q 2597 3491 2834 3397 
z
" transform="scale(0.015625)"/>
       <path id="DejaVuSans-20" transform="scale(0.015625)"/>
       <path id="DejaVuSans-63" d="M 3122 3366 
L 3122 2828 
Q 2878 2963 2633 3030 
Q 2388 3097 2138 3097 
Q 1578 3097 1268 2742 
Q 959 2388 959 1747 
Q 959 1106 1268 751 
Q 1578 397 2138 397 
Q 2388 397 2633 464 
Q 2878 531 3122 666 
L 3122 134 
Q 2881 22 2623 -34 
Q 2366 -91 2075 -91 
Q 1284 -91 818 406 
Q 353 903 353 1747 
Q 353 2603 823 3093 
Q 1294 3584 2113 3584 
Q 2378 3584 2631 3529 
Q 2884 3475 3122 3366 
z
" transform="scale(0.015625)"/>
       <path id="DejaVuSans-6f" d="M 1959 3097 
Q 1497 3097 1228 2736 
Q 959 2375 959 1747 
Q 959 1119 1226 758 
Q 1494 397 1959 397 
Q 2419 397 2687 759 
Q 2956 1122 2956 1747 
Q 2956 2369 2687 2733 
Q 2419 3097 1959 3097 
z
M 1959 3584 
Q 2709 3584 3137 3096 
Q 3566 2609 3566 1747 
Q 3566 888 3137 398 
Q 2709 -91 1959 -91 
Q 1206 -91 779 398 
Q 353 888 353 1747 
Q 353 2609 779 3096 
Q 1206 3584 1959 3584 
z
" transform="scale(0.015625)"/>
       <path id="DejaVuSans-61" d="M 2194 1759 
Q 1497 1759 1228 1600 
Q 959 1441 959 1056 
Q 959 750 1161 570 
Q 1363 391 1709 391 
Q 2188 391 2477 730 
Q 2766 1069 2766 1631 
L 2766 1759 
L 2194 1759 
z
M 3341 1997 
L 3341 0 
L 2766 0 
L 2766 531 
Q 2569 213 2275 61 
Q 1981 -91 1556 -91 
Q 1019 -91 701 211 
Q 384 513 384 1019 
Q 384 1609 779 1909 
Q 1175 2209 1959 2209 
L 2766 2209 
L 2766 2266 
Q 2766 2663 2505 2880 
Q 2244 3097 1772 3097 
Q 1472 3097 1187 3025 
Q 903 2953 641 2809 
L 641 3341 
Q 956 3463 1253 3523 
Q 1550 3584 1831 3584 
Q 2591 3584 2966 3190 
Q 3341 2797 3341 1997 
z
" transform="scale(0.015625)"/>
       <path id="DejaVuSans-72" d="M 2631 2963 
Q 2534 3019 2420 3045 
Q 2306 3072 2169 3072 
Q 1681 3072 1420 2755 
Q 1159 2438 1159 1844 
L 1159 0 
L 581 0 
L 581 3500 
L 1159 3500 
L 1159 2956 
Q 1341 3275 1631 3429 
Q 1922 3584 2338 3584 
Q 2397 3584 2469 3576 
Q 2541 3569 2628 3553 
L 2631 2963 
z
" transform="scale(0.015625)"/>
      </defs>
      <use xlink:href="#DejaVuSans-4d"/>
      <use xlink:href="#DejaVuSans-69" transform="translate(86.279297 0)"/>
      <use xlink:href="#DejaVuSans-6e" transform="translate(114.0625 0)"/>
      <use xlink:href="#DejaVuSans-75" transform="translate(177.441406 0)"/>
      <use xlink:href="#DejaVuSans-74" transform="translate(240.820312 0)"/>
      <use xlink:href="#DejaVuSans-65" transform="translate(280.029297 0)"/>
      <use xlink:href="#DejaVuSans-73" transform="translate(341.552734 0)"/>
      <use xlink:href="#DejaVuSans-20" transform="translate(393.652344 0)"/>
      <use xlink:href="#DejaVuSans-73" transform="translate(425.439453 0)"/>
      <use xlink:href="#DejaVuSans-69" transform="translate(477.539062 0)"/>
      <use xlink:href="#DejaVuSans-6e" transform="translate(505.322266 0)"/>
      <use xlink:href="#DejaVuSans-63" transform="translate(568.701172 0)"/>
      <use xlink:href="#DejaVuSans-65" transform="translate(623.681641 0)"/>
      <use xlink:href="#DejaVuSans-20" transform="translate(685.205078 0)"/>
      <use xlink:href="#DejaVuSans-73" transform="translate(716.992188 0)"/>
      <use xlink:href="#DejaVuSans-65" transform="translate(769.091797 0)"/>
      <use xlink:href="#DejaVuSans-73" transform="translate(830.615234 0)"/>
      <use xlink:href="#DejaVuSans-73" transform="translate(882.714844 0)"/>
      <use xlink:href="#DejaVuSans-69" transform="translate(934.814453 0)"/>
      <use xlink:href="#DejaVuSans-6f" transform="translate(962.597656 0)"/>
      <use xlink:href="#DejaVuSans-6e" transform="translate(1023.779297 0)"/>
      <use xlink:href="#DejaVuSans-20" transform="translate(1087.158203 0)"/>
      <use xlink:href="#DejaVuSans-73" transform="translate(1118.945312 0)"/>
      <use xlink:href="#DejaVuSans-74" transform="translate(1171.044922 0)"/>
      <use xlink:href="#DejaVuSans-61" transform="translate(1210.253906 0)"/>
      <use xlink:href="#DejaVuSans-72" transform="translate(1271.533203 0)"/>
      <use xlink:href="#DejaVuSans-74" transform="translate(1312.646484 0)"/>
     </g>
    </g>
   </g>
   <g id="matplotlib.axis_2">
    <g id="ytick_1">
     <g id="line2d_17">
      <path d="M 47.917188 218.840417 
L 935.342187 218.840417 
" clip-path="url(#pa3987eaa51)" style="fill: none; stroke: #eef2f7; stroke-opacity: 0.25; stroke-width: 0.55; stroke-linecap: square"/>
     </g>
     <g id="line2d_18">
      <defs>
       <path id="md0e2b23d12" d="M 0 0 
L -3.5 0 
" style="stroke: #000000; stroke-width: 0.8"/>
      </defs>
      <g>
       <use xlink:href="#md0e2b23d12" x="47.917188" y="218.840417" style="stroke: #000000; stroke-width: 0.8"/>
      </g>
     </g>
     <g id="text_10">
      <!-- 32.5 -->
      <g transform="translate(20.878125 222.259714) scale(0.09 -0.09)">
       <defs>
        <path id="DejaVuSans-33" d="M 2597 2516 
Q 3050 2419 3304 2112 
Q 3559 1806 3559 1356 
Q 3559 666 3084 287 
Q 2609 -91 1734 -91 
Q 1441 -91 1130 -33 
Q 819 25 488 141 
L 488 750 
Q 750 597 1062 519 
Q 1375 441 1716 441 
Q 2309 441 2620 675 
Q 2931 909 2931 1356 
Q 2931 1769 2642 2001 
Q 2353 2234 1838 2234 
L 1294 2234 
L 1294 2753 
L 1863 2753 
Q 2328 2753 2575 2939 
Q 2822 3125 2822 3475 
Q 2822 3834 2567 4026 
Q 2313 4219 1838 4219 
Q 1578 4219 1281 4162 
Q 984 4106 628 3988 
L 628 4550 
Q 988 4650 1302 4700 
Q 1616 4750 1894 4750 
Q 2613 4750 3031 4423 
Q 3450 4097 3450 3541 
Q 3450 3153 3228 2886 
Q 3006 2619 2597 2516 
z
" transform="scale(0.015625)"/>
        <path id="DejaVuSans-2e" d="M 684 794 
L 1344 794 
L 1344 0 
L 684 0 
L 684 794 
z
" transform="scale(0.015625)"/>
       </defs>
       <use xlink:href="#DejaVuSans-33"/>
       <use xlink:href="#DejaVuSans-32" transform="translate(63.623047 0)"/>
       <use xlink:href="#DejaVuSans-2e" transform="translate(127.246094 0)"/>
       <use xlink:href="#DejaVuSans-35" transform="translate(159.033203 0)"/>
      </g>
     </g>
    </g>
    <g id="ytick_2">
     <g id="line2d_19">
      <path d="M 47.917188 187.942332 
L 935.342187 187.942332 
" clip-path="url(#pa3987eaa51)" style="fill: none; stroke: #eef2f7; stroke-opacity: 0.25; stroke-width: 0.55; stroke-linecap: square"/>
     </g>
     <g id="line2d_20">
      <g>
       <use xlink:href="#md0e2b23d12" x="47.917188" y="187.942332" style="stroke: #000000; stroke-width: 0.8"/>
      </g>
     </g>
     <g id="text_11">
      <!-- 33.0 -->
      <g transform="translate(20.878125 191.361628) scale(0.09 -0.09)">
       <use xlink:href="#DejaVuSans-33"/>
       <use xlink:href="#DejaVuSans-33" transform="translate(63.623047 0)"/>
       <use xlink:href="#DejaVuSans-2e" transform="translate(127.246094 0)"/>
       <use xlink:href="#DejaVuSans-30" transform="translate(159.033203 0)"/>
      </g>
     </g>
    </g>
    <g id="ytick_3">
     <g id="line2d_21">
      <path d="M 47.917188 157.044246 
L 935.342187 157.044246 
" clip-path="url(#pa3987eaa51)" style="fill: none; stroke: #eef2f7; stroke-opacity: 0.25; stroke-width: 0.55; stroke-linecap: square"/>
     </g>
     <g id="line2d_22">
      <g>
       <use xlink:href="#md0e2b23d12" x="47.917188" y="157.044246" style="stroke: #000000; stroke-width: 0.8"/>
      </g>
     </g>
     <g id="text_12">
      <!-- 33.5 -->
      <g transform="translate(20.878125 160.463542) scale(0.09 -0.09)">
       <use xlink:href="#DejaVuSans-33"/>
       <use xlink:href="#DejaVuSans-33" transform="translate(63.623047 0)"/>
       <use xlink:href="#DejaVuSans-2e" transform="translate(127.246094 0)"/>
       <use xlink:href="#DejaVuSans-35" transform="translate(159.033203 0)"/>
      </g>
     </g>
    </g>
    <g id="ytick_4">
     <g id="line2d_23">
      <path d="M 47.917188 126.14616 
L 935.342187 126.14616 
" clip-path="url(#pa3987eaa51)" style="fill: none; stroke: #eef2f7; stroke-opacity: 0.25; stroke-width: 0.55; stroke-linecap: square"/>
     </g>
     <g id="line2d_24">
      <g>
       <use xlink:href="#md0e2b23d12" x="47.917188" y="126.14616" style="stroke: #000000; stroke-width: 0.8"/>
      </g>
     </g>
     <g id="text_13">
      <!-- 34.0 -->
      <g transform="translate(20.878125 129.565457) scale(0.09 -0.09)">
       <defs>
        <path id="DejaVuSans-34" d="M 2419 4116 
L 825 1625 
L 2419 1625 
L 2419 4116 
z
M 2253 4666 
L 3047 4666 
L 3047 1625 
L 3713 1625 
L 3713 1100 
L 3047 1100 
L 3047 0 
L 2419 0 
L 2419 1100 
L 313 1100 
L 313 1709 
L 2253 4666 
z
" transform="scale(0.015625)"/>
       </defs>
       <use xlink:href="#DejaVuSans-33"/>
       <use xlink:href="#DejaVuSans-34" transform="translate(63.623047 0)"/>
       <use xlink:href="#DejaVuSans-2e" transform="translate(127.246094 0)"/>
       <use xlink:href="#DejaVuSans-30" transform="translate(159.033203 0)"/>
      </g>
     </g>
    </g>
    <g id="ytick_5">
     <g id="line2d_25">
      <path d="M 47.917188 95.248074 
L 935.342187 95.248074 
" clip-path="url(#pa3987eaa51)" style="fill: none; stroke: #eef2f7; stroke-opacity: 0.25; stroke-width: 0.55; stroke-linecap: square"/>
     </g>
     <g id="line2d_26">
      <g>
       <use xlink:href="#md0e2b23d12" x="47.917188" y="95.248074" style="stroke: #000000; stroke-width: 0.8"/>
      </g>
     </g>
     <g id="text_14">
      <!-- 34.5 -->
      <g transform="translate(20.878125 98.667371) scale(0.09 -0.09)">
       <use xlink:href="#DejaVuSans-33"/>
       <use xlink:href="#DejaVuSans-34" transform="translate(63.623047 0)"/>
       <use xlink:href="#DejaVuSans-2e" transform="translate(127.246094 0)"/>
       <use xlink:href="#DejaVuSans-35" transform="translate(159.033203 0)"/>
      </g>
     </g>
    </g>
    <g id="ytick_6">
     <g id="line2d_27">
      <path d="M 47.917188 64.349988 
L 935.342187 64.349988 
" clip-path="url(#pa3987eaa51)" style="fill: none; stroke: #eef2f7; stroke-opacity: 0.25; stroke-width: 0.55; stroke-linecap: square"/>
     </g>
     <g id="line2d_28">
      <g>
       <use xlink:href="#md0e2b23d12" x="47.917188" y="64.349988" style="stroke: #000000; stroke-width: 0.8"/>
      </g>
     </g>
     <g id="text_15">
      <!-- 35.0 -->
      <g transform="translate(20.878125 67.769285) scale(0.09 -0.09)">
       <use xlink:href="#DejaVuSans-33"/>
       <use xlink:href="#DejaVuSans-35" transform="translate(63.623047 0)"/>
       <use xlink:href="#DejaVuSans-2e" transform="translate(127.246094 0)"/>
       <use xlink:href="#DejaVuSans-30" transform="translate(159.033203 0)"/>
      </g>
     </g>
    </g>
    <g id="ytick_7">
     <g id="line2d_29">
      <path d="M 47.917188 33.451902 
L 935.342187 33.451902 
" clip-path="url(#pa3987eaa51)" style="fill: none; stroke: #eef2f7; stroke-opacity: 0.25; stroke-width: 0.55; stroke-linecap: square"/>
     </g>
     <g id="line2d_30">
      <g>
       <use xlink:href="#md0e2b23d12" x="47.917188" y="33.451902" style="stroke: #000000; stroke-width: 0.8"/>
      </g>
     </g>
     <g id="text_16">
      <!-- 35.5 -->
      <g transform="translate(20.878125 36.871199) scale(0.09 -0.09)">
       <use xlink:href="#DejaVuSans-33"/>
       <use xlink:href="#DejaVuSans-35" transform="translate(63.623047 0)"/>
       <use xlink:href="#DejaVuSans-2e" transform="translate(127.246094 0)"/>
       <use xlink:href="#DejaVuSans-35" transform="translate(159.033203 0)"/>
      </g>
     </g>
    </g>
    <g id="text_17">
     <!-- Temperature (C) -->
     <g transform="translate(14.798438 163.659635) rotate(-90) scale(0.1 -0.1)">
      <defs>
       <path id="DejaVuSans-54" d="M -19 4666 
L 3928 4666 
L 3928 4134 
L 2272 4134 
L 2272 0 
L 1638 0 
L 1638 4134 
L -19 4134 
L -19 4666 
z
" transform="scale(0.015625)"/>
       <path id="DejaVuSans-6d" d="M 3328 2828 
Q 3544 3216 3844 3400 
Q 4144 3584 4550 3584 
Q 5097 3584 5394 3201 
Q 5691 2819 5691 2113 
L 5691 0 
L 5113 0 
L 5113 2094 
Q 5113 2597 4934 2840 
Q 4756 3084 4391 3084 
Q 3944 3084 3684 2787 
Q 3425 2491 3425 1978 
L 3425 0 
L 2847 0 
L 2847 2094 
Q 2847 2600 2669 2842 
Q 2491 3084 2119 3084 
Q 1678 3084 1418 2786 
Q 1159 2488 1159 1978 
L 1159 0 
L 581 0 
L 581 3500 
L 1159 3500 
L 1159 2956 
Q 1356 3278 1631 3431 
Q 1906 3584 2284 3584 
Q 2666 3584 2933 3390 
Q 3200 3197 3328 2828 
z
" transform="scale(0.015625)"/>
       <path id="DejaVuSans-70" d="M 1159 525 
L 1159 -1331 
L 581 -1331 
L 581 3500 
L 1159 3500 
L 1159 2969 
Q 1341 3281 1617 3432 
Q 1894 3584 2278 3584 
Q 2916 3584 3314 3078 
Q 3713 2572 3713 1747 
Q 3713 922 3314 415 
Q 2916 -91 2278 -91 
Q 1894 -91 1617 61 
Q 1341 213 1159 525 
z
M 3116 1747 
Q 3116 2381 2855 2742 
Q 2594 3103 2138 3103 
Q 1681 3103 1420 2742 
Q 1159 2381 1159 1747 
Q 1159 1113 1420 752 
Q 1681 391 2138 391 
Q 2594 391 2855 752 
Q 3116 1113 3116 1747 
z
" transform="scale(0.015625)"/>
       <path id="DejaVuSans-28" d="M 1984 4856 
Q 1566 4138 1362 3434 
Q 1159 2731 1159 2009 
Q 1159 1288 1364 580 
Q 1569 -128 1984 -844 
L 1484 -844 
Q 1016 -109 783 600 
Q 550 1309 550 2009 
Q 550 2706 781 3412 
Q 1013 4119 1484 4856 
L 1984 4856 
z
" transform="scale(0.015625)"/>
       <path id="DejaVuSans-43" d="M 4122 4306 
L 4122 3641 
Q 3803 3938 3442 4084 
Q 3081 4231 2675 4231 
Q 1875 4231 1450 3742 
Q 1025 3253 1025 2328 
Q 1025 1406 1450 917 
Q 1875 428 2675 428 
Q 3081 428 3442 575 
Q 3803 722 4122 1019 
L 4122 359 
Q 3791 134 3420 21 
Q 3050 -91 2638 -91 
Q 1578 -91 968 557 
Q 359 1206 359 2328 
Q 359 3453 968 4101 
Q 1578 4750 2638 4750 
Q 3056 4750 3426 4639 
Q 3797 4528 4122 4306 
z
" transform="scale(0.015625)"/>
       <path id="DejaVuSans-29" d="M 513 4856 
L 1013 4856 
Q 1481 4119 1714 3412 
Q 1947 2706 1947 2009 
Q 1947 1309 1714 600 
Q 1481 -109 1013 -844 
L 513 -844 
Q 928 -128 1133 580 
Q 1338 1288 1338 2009 
Q 1338 2731 1133 3434 
Q 928 4138 513 4856 
z
" transform="scale(0.015625)"/>
      </defs>
      <use xlink:href="#DejaVuSans-54"/>
      <use xlink:href="#DejaVuSans-65" transform="translate(44.083984 0)"/>
      <use xlink:href="#DejaVuSans-6d" transform="translate(105.607422 0)"/>
      <use xlink:href="#DejaVuSans-70" transform="translate(203.019531 0)"/>
      <use xlink:href="#DejaVuSans-65" transform="translate(266.496094 0)"/>
      <use xlink:href="#DejaVuSans-72" transform="translate(328.019531 0)"/>
      <use xlink:href="#DejaVuSans-61" transform="translate(369.132812 0)"/>
      <use xlink:href="#DejaVuSans-74" transform="translate(430.412109 0)"/>
      <use xlink:href="#DejaVuSans-75" transform="translate(469.621094 0)"/>
      <use xlink:href="#DejaVuSans-72" transform="translate(533 0)"/>
      <use xlink:href="#DejaVuSans-65" transform="translate(571.863281 0)"/>
      <use xlink:href="#DejaVuSans-20" transform="translate(633.386719 0)"/>
      <use xlink:href="#DejaVuSans-28" transform="translate(665.173828 0)"/>
      <use xlink:href="#DejaVuSans-43" transform="translate(704.1875 0)"/>
      <use xlink:href="#DejaVuSans-29" transform="translate(774.011719 0)"/>
     </g>
    </g>
   </g>
   <g id="line2d_31">
    <path d="M 47.962006 219.3232 
L 48.264187 218.840417 
L 48.86855 216.909287 
L 49.472913 215.943722 
L 49.775095 214.978157 
L 50.077276 214.978157 
L 50.379458 214.012592 
L 50.681639 213.529809 
L 51.286002 211.115896 
L 51.588184 210.633113 
L 51.890365 210.633113 
L 52.494728 208.701983 
L 53.401273 207.253635 
L 53.703454 206.28807 
L 54.307817 205.322505 
L 54.609999 204.35694 
L 55.214362 203.391375 
L 55.516543 202.425809 
L 56.423087 200.977462 
L 56.725269 200.011896 
L 57.02745 199.529114 
L 57.329632 198.563549 
L 58.236176 197.115201 
L 58.538358 196.149636 
L 59.142721 195.18407 
L 59.444902 194.218505 
L 59.747084 193.735723 
L 60.049265 192.770157 
L 62.164536 189.390679 
L 62.466717 189.390679 
L 62.768899 188.425114 
L 63.07108 188.425114 
L 63.675443 187.459549 
L 63.977625 187.459549 
L 64.884169 186.011201 
L 65.186351 186.011201 
L 65.488532 185.045636 
L 65.790714 184.562853 
L 66.092895 183.597288 
L 66.697258 182.631723 
L 66.99944 182.631723 
L 67.301621 181.183375 
L 67.603802 180.700593 
L 67.905984 179.735027 
L 69.11471 177.803897 
L 69.416891 177.803897 
L 70.021254 175.872767 
L 71.532162 173.458854 
L 71.834343 172.493289 
L 72.136525 172.493289 
L 72.438706 171.527723 
L 72.740888 171.044941 
L 73.043069 170.079376 
L 73.345251 170.079376 
L 73.647432 169.596593 
L 73.949614 168.631028 
L 74.251795 168.631028 
L 74.856158 166.699897 
L 75.15834 166.699897 
L 75.460521 165.734332 
L 76.669247 163.803202 
L 76.971429 162.837637 
L 77.27361 162.354854 
L 77.575792 162.354854 
L 77.877973 161.389289 
L 78.180155 161.389289 
L 78.482336 160.423724 
L 78.784518 160.423724 
L 79.086699 159.458159 
L 79.38888 159.458159 
L 79.691062 158.492593 
L 80.295425 157.527028 
L 80.597606 157.527028 
L 80.899788 156.561463 
L 83.31724 152.699202 
L 83.619421 152.699202 
L 83.921603 151.733637 
L 84.223784 151.733637 
L 84.525966 151.250854 
L 84.828147 150.285289 
L 85.130329 150.285289 
L 85.43251 149.802507 
L 85.734692 148.836942 
L 86.339055 148.836942 
L 86.641236 147.871376 
L 87.245599 146.905811 
L 87.547781 146.905811 
L 88.152144 145.940246 
L 88.454325 145.940246 
L 89.058688 144.974681 
L 89.36087 144.974681 
L 89.965233 144.009116 
L 90.267414 143.04355 
L 90.871777 143.04355 
L 91.778321 141.595203 
L 92.382684 141.595203 
L 92.684866 140.629637 
L 92.987047 140.146855 
L 93.289229 140.146855 
L 93.893592 139.18129 
L 94.195773 139.18129 
L 94.800136 138.215724 
L 95.102318 138.215724 
L 95.404499 137.732942 
L 95.706681 137.732942 
L 96.915407 135.801812 
L 97.217588 135.801812 
L 97.51977 135.319029 
L 97.821951 135.319029 
L 98.124133 134.353464 
L 98.728496 134.353464 
L 99.332859 133.387899 
L 99.63504 133.387899 
L 100.239403 132.422333 
L 100.541585 132.422333 
L 101.448129 130.973986 
L 101.750311 130.973986 
L 102.052492 130.00842 
L 102.354673 130.00842 
L 102.656855 129.525638 
L 102.959036 129.525638 
L 103.261218 129.042855 
L 103.563399 129.042855 
L 103.865581 128.560073 
L 104.167762 127.594507 
L 104.469944 127.594507 
L 104.772125 126.628942 
L 105.074307 127.111725 
L 105.67867 126.14616 
L 105.980851 126.14616 
L 106.585214 125.180594 
L 106.887396 125.180594 
L 107.189577 124.215029 
L 107.79394 124.215029 
L 108.398303 123.249464 
L 108.700485 122.283899 
L 109.304848 122.283899 
L 109.909211 121.318334 
L 110.513574 121.318334 
L 111.117937 120.352769 
L 111.420118 119.387203 
L 111.7223 119.387203 
L 112.024481 118.904421 
L 112.326663 118.904421 
L 112.628844 118.421638 
L 112.931026 118.421638 
L 113.233207 117.938856 
L 113.535389 117.938856 
L 113.83757 116.97329 
L 114.139751 116.97329 
L 114.744114 116.007725 
L 115.046296 116.007725 
L 115.650659 115.04216 
L 115.95284 115.04216 
L 116.255022 114.559377 
L 116.557203 114.559377 
L 116.859385 114.076595 
L 117.161566 114.076595 
L 118.672474 111.662682 
L 118.974655 111.662682 
L 119.276837 111.179899 
L 119.579018 111.179899 
L 119.8812 110.697117 
L 120.183381 110.697117 
L 120.485563 110.214334 
L 120.787744 110.214334 
L 121.089926 109.731551 
L 121.392107 108.765986 
L 121.99647 108.765986 
L 122.600833 107.800421 
L 122.903015 107.800421 
L 123.205196 107.317639 
L 123.507378 107.317639 
L 123.809559 106.834856 
L 124.111741 106.834856 
L 124.413922 105.869291 
L 125.018285 105.869291 
L 125.924829 104.420943 
L 126.227011 104.420943 
L 126.831374 103.455378 
L 127.435737 103.455378 
L 128.342281 102.00703 
L 128.644463 102.00703 
L 128.946644 101.524247 
L 129.248826 101.524247 
L 129.551007 101.041465 
L 129.853189 101.041465 
L 130.15537 100.0759 
L 130.759733 99.110334 
L 131.061915 98.144769 
L 131.364096 98.144769 
L 131.666278 97.661987 
L 131.968459 97.661987 
L 132.875004 96.213639 
L 133.177185 96.213639 
L 133.781548 95.248074 
L 134.385911 95.248074 
L 134.688093 94.765291 
L 134.990274 93.799726 
L 135.594637 93.799726 
L 135.896819 93.316943 
L 136.199 92.351378 
L 136.501182 92.834161 
L 137.105544 91.868596 
L 137.407726 91.868596 
L 137.70991 91.385813 
L 138.012091 91.385813 
L 138.314273 90.90303 
L 138.918636 90.90303 
L 139.220817 89.937465 
L 139.522999 89.454683 
L 139.82518 89.454683 
L 140.127362 88.9719 
L 141.033906 88.9719 
L 141.940451 87.523552 
L 142.544814 87.523552 
L 142.846995 87.04077 
L 143.149177 87.04077 
L 143.451358 86.557987 
L 144.055721 86.557987 
L 144.357903 86.075204 
L 144.962265 86.075204 
L 145.264447 85.109639 
L 145.566628 85.109639 
L 145.86881 84.626857 
L 146.170991 84.626857 
L 146.473173 84.144074 
L 146.775354 84.144074 
L 147.379717 83.178509 
L 147.681899 83.178509 
L 147.98408 82.695726 
L 148.588443 82.695726 
L 148.890625 82.212944 
L 149.494988 82.212944 
L 149.797169 81.730161 
L 150.099351 81.730161 
L 150.401532 80.764596 
L 151.005895 80.764596 
L 151.610258 79.799031 
L 152.214621 79.799031 
L 152.516803 79.316248 
L 152.818984 79.316248 
L 153.121166 78.833466 
L 153.423347 78.833466 
L 153.725529 78.350683 
L 154.632073 78.350683 
L 154.934255 77.8679 
L 155.538618 77.8679 
L 156.14298 76.902335 
L 156.747343 76.902335 
L 157.049525 76.419553 
L 157.351706 76.419553 
L 157.653888 75.93677 
L 158.560432 75.93677 
L 158.862614 75.453987 
L 159.466977 75.453987 
L 159.769158 74.971205 
L 160.07134 75.453987 
L 160.373521 74.971205 
L 160.675703 74.971205 
L 160.977884 74.488422 
L 161.884429 74.488422 
L 162.18661 74.00564 
L 162.488792 74.00564 
L 162.790973 73.522857 
L 163.395336 73.522857 
L 163.697518 73.040074 
L 163.999699 73.040074 
L 164.301881 73.522857 
L 164.604062 73.040074 
L 164.906244 73.040074 
L 165.208425 72.557292 
L 165.812788 72.557292 
L 166.11497 72.074509 
L 166.719333 72.074509 
L 167.021514 71.591727 
L 167.928058 71.591727 
L 168.23024 71.108944 
L 168.532421 71.591727 
L 168.834603 71.108944 
L 169.136784 71.108944 
L 169.438966 70.626161 
L 170.34551 70.626161 
L 170.647692 70.143379 
L 171.856418 70.143379 
L 172.460781 69.177814 
L 172.762962 69.177814 
L 173.065144 68.695031 
L 173.971688 68.695031 
L 174.27387 68.212249 
L 175.482596 68.212249 
L 175.784777 67.729466 
L 176.086959 68.212249 
L 176.38914 67.729466 
L 176.691322 67.729466 
L 176.993503 67.246683 
L 177.597866 67.246683 
L 177.900048 66.763901 
L 178.504411 66.763901 
L 178.806592 66.281118 
L 179.410955 66.281118 
L 179.713136 65.798336 
L 180.015318 65.798336 
L 180.317499 65.315553 
L 180.619681 65.798336 
L 180.921862 65.798336 
L 181.224044 65.315553 
L 182.130588 65.315553 
L 182.43277 64.83277 
L 183.037133 64.83277 
L 183.339314 64.349988 
L 183.943677 64.349988 
L 184.245859 63.867205 
L 184.54804 64.349988 
L 184.850222 63.867205 
L 185.152403 63.867205 
L 185.454585 63.384423 
L 185.756766 63.867205 
L 186.058948 63.867205 
L 186.361129 63.384423 
L 187.267674 63.384423 
L 187.569855 62.90164 
L 188.778581 62.90164 
L 189.080763 62.418857 
L 190.289489 62.418857 
L 190.59167 61.936075 
L 190.893851 62.418857 
L 191.800396 60.97051 
L 192.102577 61.453292 
L 192.404759 61.453292 
L 192.70694 60.97051 
L 193.613485 60.97051 
L 193.915666 60.487727 
L 194.217848 60.97051 
L 194.520029 60.487727 
L 194.822211 60.487727 
L 195.124392 60.004944 
L 195.426574 60.487727 
L 195.728755 60.004944 
L 196.333118 60.004944 
L 196.937481 59.039379 
L 197.239663 59.522162 
L 197.844026 58.556597 
L 198.146207 59.039379 
L 198.448389 58.073814 
L 198.75057 58.556597 
L 199.052752 58.073814 
L 199.354933 58.556597 
L 199.959296 57.591031 
L 200.563659 57.591031 
L 200.865841 58.073814 
L 201.168022 58.073814 
L 201.470204 57.591031 
L 201.772385 57.591031 
L 202.376748 56.625466 
L 203.887655 56.625466 
L 204.189837 56.142684 
L 204.492018 56.625466 
L 204.7942 56.142684 
L 205.096381 56.142684 
L 205.398563 55.659901 
L 206.305107 55.659901 
L 206.607289 55.177119 
L 207.211652 55.177119 
L 207.513833 54.694336 
L 208.420378 54.694336 
L 208.722559 54.211553 
L 209.024741 54.694336 
L 209.326922 54.694336 
L 209.629104 54.211553 
L 209.931285 53.245988 
L 210.233467 53.728771 
L 211.140011 53.728771 
L 211.442193 53.245988 
L 211.744374 53.728771 
L 212.046556 53.245988 
L 212.348737 53.245988 
L 212.650919 52.763206 
L 212.9531 52.763206 
L 213.255282 52.280423 
L 213.557463 52.763206 
L 214.161826 52.763206 
L 214.464007 52.280423 
L 215.06837 52.280423 
L 215.370552 51.79764 
L 216.277096 51.79764 
L 216.579278 52.280423 
L 216.881459 51.79764 
L 217.183641 51.79764 
L 217.485822 51.314858 
L 218.090185 51.314858 
L 218.392367 50.832075 
L 219.298911 50.832075 
L 219.601093 50.349293 
L 220.809819 50.349293 
L 221.112 49.86651 
L 221.414182 50.349293 
L 221.716363 49.86651 
L 222.320726 49.86651 
L 222.622908 49.383727 
L 223.227271 49.383727 
L 223.529452 48.900945 
L 224.738178 48.900945 
L 225.04036 49.383727 
L 225.342541 48.900945 
L 225.946904 48.900945 
L 226.249085 49.383727 
L 226.551267 48.900945 
L 226.853448 49.383727 
L 227.15563 48.900945 
L 227.457811 49.383727 
L 227.759993 48.900945 
L 228.666537 48.900945 
L 228.968719 48.418162 
L 229.573082 48.418162 
L 229.875263 48.900945 
L 230.177445 48.900945 
L 230.479626 48.418162 
L 230.781808 48.900945 
L 231.083989 48.418162 
L 231.688352 48.418162 
L 231.990534 47.93538 
L 232.292715 48.418162 
L 232.594897 47.93538 
L 233.19926 47.93538 
L 233.501441 48.418162 
L 233.803623 47.93538 
L 235.616712 47.93538 
L 235.918893 48.418162 
L 236.523256 48.418162 
L 236.825437 47.93538 
L 237.127619 47.93538 
L 237.4298 48.418162 
L 237.731982 47.93538 
L 238.034163 47.93538 
L 238.336345 48.418162 
L 238.638526 47.93538 
L 239.242889 47.93538 
L 239.545071 48.418162 
L 239.847252 47.93538 
L 240.149434 47.93538 
L 240.451615 48.418162 
L 240.753797 47.93538 
L 243.47343 47.93538 
L 243.775612 47.452597 
L 245.588701 47.452597 
L 245.890882 46.969814 
L 246.193064 47.452597 
L 246.495245 46.969814 
L 248.610515 46.969814 
L 248.912697 47.452597 
L 249.214878 46.969814 
L 249.51706 46.969814 
L 249.819241 46.487032 
L 250.121423 46.969814 
L 251.330149 46.969814 
L 251.63233 47.452597 
L 251.934512 47.452597 
L 252.236693 46.969814 
L 252.538875 47.452597 
L 254.654145 47.452597 
L 255.258508 48.418162 
L 255.56069 47.93538 
L 255.862871 48.418162 
L 256.165053 47.93538 
L 256.769416 48.900945 
L 257.071597 48.418162 
L 257.373779 48.418162 
L 257.67596 48.900945 
L 257.978142 48.418162 
L 258.280323 48.900945 
L 259.186868 48.900945 
L 259.489049 49.383727 
L 260.093412 49.383727 
L 260.395593 49.86651 
L 261.302138 49.86651 
L 261.604319 50.349293 
L 261.906501 50.349293 
L 262.208682 50.832075 
L 263.71959 50.832075 
L 264.021771 51.314858 
L 264.626134 51.314858 
L 264.928316 51.79764 
L 265.230497 51.79764 
L 265.532679 52.280423 
L 265.83486 51.314858 
L 266.439223 52.280423 
L 266.741405 51.79764 
L 267.043586 52.280423 
L 267.345768 52.280423 
L 267.647949 52.763206 
L 267.950131 52.280423 
L 268.554494 53.245988 
L 269.76322 53.245988 
L 270.065401 53.728771 
L 270.669764 53.728771 
L 271.274127 54.694336 
L 271.576308 54.694336 
L 271.87849 54.211553 
L 272.482853 55.177119 
L 272.785034 55.177119 
L 273.087216 55.659901 
L 273.389397 55.177119 
L 273.691577 55.659901 
L 273.993758 55.659901 
L 274.29594 56.142684 
L 274.900303 56.142684 
L 275.202484 56.625466 
L 275.504665 56.625466 
L 275.806847 57.108249 
L 276.713391 57.108249 
L 277.015573 57.591031 
L 277.317754 57.108249 
L 277.619936 57.591031 
L 277.922117 57.591031 
L 278.224299 58.073814 
L 278.52648 57.591031 
L 279.130843 57.591031 
L 279.433025 57.108249 
L 279.735206 57.591031 
L 280.037388 57.108249 
L 280.339569 57.108249 
L 280.641751 57.591031 
L 282.757021 57.591031 
L 283.059203 57.108249 
L 283.361384 57.591031 
L 285.476655 57.591031 
L 285.778836 57.108249 
L 286.081018 57.591031 
L 286.383199 57.108249 
L 286.987562 57.108249 
L 287.289743 57.591031 
L 287.591925 57.108249 
L 288.800651 57.108249 
L 289.405014 56.142684 
L 290.009377 56.142684 
L 290.311558 55.659901 
L 291.218103 55.659901 
L 291.520284 55.177119 
L 291.822466 55.659901 
L 292.124647 55.177119 
L 293.031192 55.177119 
L 293.333373 54.694336 
L 294.239918 54.694336 
L 294.542099 55.177119 
L 294.844281 54.694336 
L 295.146462 54.694336 
L 295.448644 54.211553 
L 295.750825 54.694336 
L 296.355188 53.728771 
L 296.65737 54.211553 
L 297.261733 53.245988 
L 297.563914 53.728771 
L 297.866096 53.245988 
L 298.470458 53.245988 
L 298.77264 52.763206 
L 299.981366 52.763206 
L 300.283547 52.280423 
L 300.585729 52.280423 
L 300.88791 52.763206 
L 301.492273 51.79764 
L 301.794455 51.79764 
L 302.096636 51.314858 
L 302.398818 51.79764 
L 302.700999 51.314858 
L 303.607544 51.314858 
L 303.909725 50.832075 
L 304.211907 51.314858 
L 304.514088 50.832075 
L 304.81627 50.832075 
L 305.118451 50.349293 
L 305.420633 50.832075 
L 305.722814 50.349293 
L 306.327177 50.349293 
L 306.629359 49.86651 
L 306.93154 50.349293 
L 307.233722 49.86651 
L 307.535903 50.349293 
L 307.838085 49.86651 
L 309.348992 49.86651 
L 309.651173 49.383727 
L 310.255536 49.383727 
L 310.557718 48.900945 
L 311.162081 48.900945 
L 311.464262 48.418162 
L 311.766444 48.900945 
L 312.068625 47.93538 
L 312.370807 48.418162 
L 312.672988 47.93538 
L 313.881714 47.93538 
L 314.183896 47.452597 
L 315.09044 47.452597 
L 315.392622 46.969814 
L 316.299166 46.969814 
L 316.601348 46.487032 
L 317.205711 46.487032 
L 317.507892 46.004249 
L 317.810074 46.004249 
L 318.112255 46.487032 
L 319.925344 46.487032 
L 320.227526 46.004249 
L 320.529707 46.487032 
L 320.831889 46.004249 
L 321.13407 46.004249 
L 321.436251 46.487032 
L 322.040614 45.521467 
L 322.342796 45.521467 
L 322.644977 46.004249 
L 323.853703 46.004249 
L 324.155885 45.521467 
L 324.760248 45.521467 
L 325.062429 45.038684 
L 325.364611 45.521467 
L 326.271155 45.521467 
L 326.573337 45.038684 
L 326.875518 45.521467 
L 327.1777 45.521467 
L 327.479881 45.038684 
L 328.688607 45.038684 
L 328.990789 45.521467 
L 329.29297 45.038684 
L 329.595152 45.038684 
L 329.897333 44.555901 
L 330.199515 44.555901 
L 330.501696 45.038684 
L 330.803878 45.038684 
L 331.106059 44.555901 
L 331.408241 44.555901 
L 331.710422 44.073119 
L 332.012604 44.555901 
L 332.616966 44.555901 
L 332.919148 44.073119 
L 333.523511 44.073119 
L 333.825692 43.590336 
L 335.034418 43.590336 
L 335.3366 43.107554 
L 335.638781 43.590336 
L 335.940963 43.590336 
L 336.243144 43.107554 
L 336.545326 43.590336 
L 337.45187 43.590336 
L 337.754052 44.073119 
L 338.056233 43.590336 
L 339.264959 43.590336 
L 339.567141 44.073119 
L 339.869322 43.107554 
L 340.775867 43.107554 
L 341.078048 43.590336 
L 341.38023 43.107554 
L 341.682411 43.590336 
L 341.984593 43.107554 
L 342.286774 43.590336 
L 342.588956 43.107554 
L 343.193319 43.107554 
L 343.4955 42.624771 
L 343.797682 43.107554 
L 344.704226 43.107554 
L 345.006407 43.590336 
L 345.308589 43.590336 
L 345.61077 44.073119 
L 345.912952 43.107554 
L 346.517315 44.073119 
L 347.423859 44.073119 
L 347.726041 43.590336 
L 349.53913 43.590336 
L 349.841311 43.107554 
L 350.143493 43.107554 
L 350.445674 43.590336 
L 350.747856 43.590336 
L 351.050037 43.107554 
L 351.352219 43.107554 
L 351.6544 44.073119 
L 351.956582 43.590336 
L 352.863126 43.590336 
L 353.165308 44.073119 
L 353.467489 44.073119 
L 353.769671 43.590336 
L 354.071852 44.073119 
L 354.978397 44.073119 
L 355.280578 44.555901 
L 355.582759 44.555901 
L 355.884941 45.038684 
L 357.395848 45.038684 
L 357.69803 45.521467 
L 358.302393 45.521467 
L 358.604574 46.004249 
L 358.906756 45.521467 
L 359.208937 46.004249 
L 359.511119 45.521467 
L 359.8133 46.004249 
L 360.115482 46.004249 
L 360.417663 45.521467 
L 360.719845 46.004249 
L 361.022026 46.004249 
L 361.324208 46.487032 
L 361.626389 46.004249 
L 361.928571 46.487032 
L 362.230752 46.487032 
L 362.532934 46.969814 
L 362.835115 46.487032 
L 363.439478 46.487032 
L 363.74166 46.969814 
L 364.346023 46.969814 
L 364.648204 46.487032 
L 365.85693 46.487032 
L 366.159112 46.969814 
L 366.461293 46.969814 
L 366.763475 46.487032 
L 367.367837 46.487032 
L 367.670019 46.969814 
L 368.576563 46.969814 
L 368.878745 47.452597 
L 369.180926 46.969814 
L 369.483108 47.452597 
L 370.994015 47.452597 
L 371.296197 47.93538 
L 371.598378 47.93538 
L 371.90056 47.452597 
L 372.504923 48.418162 
L 372.807104 47.93538 
L 373.109286 48.418162 
L 373.411467 47.93538 
L 374.01583 47.93538 
L 374.318012 48.418162 
L 374.620193 48.418162 
L 374.922375 47.93538 
L 375.224556 47.93538 
L 375.526738 48.418162 
L 375.828919 47.93538 
L 376.735464 47.93538 
L 377.037645 47.452597 
L 377.339827 47.93538 
L 377.642008 47.452597 
L 377.94419 47.93538 
L 378.246371 47.452597 
L 378.548553 47.93538 
L 378.850734 47.452597 
L 380.05946 47.452597 
L 380.361641 46.969814 
L 380.663823 46.969814 
L 380.966004 47.452597 
L 381.268186 47.452597 
L 381.570367 46.969814 
L 382.476912 46.969814 
L 382.779093 46.487032 
L 384.894364 46.487032 
L 385.196545 46.004249 
L 385.800908 46.004249 
L 386.10309 45.521467 
L 387.311816 45.521467 
L 387.613997 46.004249 
L 387.916179 45.521467 
L 388.520542 45.521467 
L 389.124905 44.555901 
L 389.427086 45.038684 
L 389.729268 44.555901 
L 390.635812 44.555901 
L 390.937993 44.073119 
L 391.240175 44.555901 
L 391.542356 43.590336 
L 391.844538 44.555901 
L 392.146719 44.073119 
L 392.751082 44.073119 
L 393.053264 43.590336 
L 393.657627 43.590336 
L 393.959808 43.107554 
L 394.564171 43.107554 
L 394.866353 43.590336 
L 395.168534 43.590336 
L 395.470716 43.107554 
L 395.772897 43.590336 
L 396.075079 43.107554 
L 397.283805 43.107554 
L 397.585986 42.141988 
L 399.096894 42.141988 
L 399.399075 42.624771 
L 399.701257 42.141988 
L 401.212164 42.141988 
L 401.514346 41.659206 
L 402.118708 41.659206 
L 402.42089 41.176423 
L 402.723071 42.141988 
L 403.025253 41.659206 
L 403.327434 41.659206 
L 403.629616 41.176423 
L 403.931797 41.176423 
L 404.233979 41.659206 
L 404.53616 41.176423 
L 404.838342 41.176423 
L 405.140523 40.693641 
L 406.953612 40.693641 
L 407.255794 40.210858 
L 408.766701 40.210858 
L 409.068883 39.728076 
L 409.371064 39.728076 
L 409.673246 40.210858 
L 409.975427 39.728076 
L 410.277609 39.728076 
L 410.57979 40.210858 
L 410.881972 39.728076 
L 411.184153 39.728076 
L 411.486335 40.210858 
L 411.788516 39.245293 
L 412.392879 39.245293 
L 412.695061 39.728076 
L 415.112512 39.728076 
L 415.414694 39.245293 
L 415.716875 39.728076 
L 416.62342 39.728076 
L 416.925601 39.245293 
L 417.529964 39.245293 
L 417.832146 38.76251 
L 418.134327 38.76251 
L 418.436509 38.279728 
L 420.249598 38.279728 
L 420.551779 37.796945 
L 421.458324 37.796945 
L 421.760505 38.279728 
L 422.062687 37.796945 
L 422.364868 38.279728 
L 422.66705 38.279728 
L 422.969231 37.796945 
L 424.480139 37.796945 
L 424.78232 37.314163 
L 426.89759 37.314163 
L 427.199772 37.796945 
L 427.804135 37.796945 
L 428.106316 38.279728 
L 428.408498 38.279728 
L 428.710679 38.76251 
L 429.617224 38.76251 
L 429.919405 39.245293 
L 430.221587 38.76251 
L 430.523768 38.76251 
L 430.82595 39.245293 
L 431.128131 38.76251 
L 431.430313 39.245293 
L 431.732494 38.76251 
L 432.034676 39.245293 
L 435.660854 39.245293 
L 435.963035 39.728076 
L 436.265216 39.728076 
L 436.567398 39.245293 
L 436.869579 39.728076 
L 437.171761 39.245293 
L 437.473942 39.728076 
L 438.682668 39.728076 
L 438.98485 40.210858 
L 439.589213 40.210858 
L 439.891394 39.728076 
L 441.10012 39.728076 
L 441.402302 40.210858 
L 443.517572 40.210858 
L 443.819754 39.728076 
L 444.121935 40.210858 
L 446.237206 40.210858 
L 446.539387 39.728076 
L 446.841569 40.210858 
L 449.561202 40.210858 
L 449.863383 39.728076 
L 450.165565 40.210858 
L 450.467746 39.728076 
L 450.769928 40.210858 
L 451.072109 40.210858 
L 451.374291 39.728076 
L 452.885198 39.728076 
L 453.18738 39.245293 
L 453.489561 39.245293 
L 453.791743 39.728076 
L 454.093924 39.245293 
L 454.396106 39.245293 
L 454.698287 39.728076 
L 455.000469 39.245293 
L 455.30265 39.728076 
L 455.604832 39.728076 
L 455.907013 38.76251 
L 456.511376 38.76251 
L 456.813558 38.279728 
L 457.115739 38.279728 
L 457.417921 38.76251 
L 457.720102 38.279728 
L 458.324465 38.279728 
L 458.928828 37.314163 
L 459.533191 37.314163 
L 459.835372 36.83138 
L 460.741917 36.83138 
L 461.044098 36.348597 
L 461.34628 36.348597 
L 461.648461 36.83138 
L 461.950643 36.348597 
L 464.368095 36.348597 
L 464.670276 35.865815 
L 464.972458 35.865815 
L 465.274639 36.348597 
L 466.483365 36.348597 
L 466.785547 35.865815 
L 467.994273 35.865815 
L 468.296454 35.383032 
L 468.598636 35.865815 
L 468.900817 35.865815 
L 469.202999 35.383032 
L 469.50518 35.865815 
L 469.807362 35.383032 
L 470.109543 35.865815 
L 470.713906 35.865815 
L 471.016087 35.383032 
L 471.318269 35.865815 
L 471.922632 35.865815 
L 472.224813 35.383032 
L 473.433539 35.383032 
L 473.735721 35.865815 
L 474.037902 35.383032 
L 474.340084 35.383032 
L 474.642265 34.90025 
L 474.944447 35.383032 
L 475.850991 35.383032 
L 476.153173 35.865815 
L 477.361899 35.865815 
L 477.66408 36.348597 
L 478.268443 36.348597 
L 478.570625 36.83138 
L 478.872806 36.348597 
L 479.174988 36.83138 
L 480.081532 36.83138 
L 480.383714 37.314163 
L 480.685895 36.83138 
L 482.498984 36.83138 
L 482.801165 37.314163 
L 483.405528 37.314163 
L 483.70771 36.83138 
L 484.614254 36.83138 
L 484.916436 36.348597 
L 485.218617 36.83138 
L 485.520799 36.83138 
L 485.82298 37.314163 
L 486.125162 36.83138 
L 486.427343 37.314163 
L 486.729525 36.83138 
L 487.031706 37.314163 
L 487.333888 36.83138 
L 488.240432 36.83138 
L 488.542614 37.314163 
L 488.844795 36.83138 
L 489.146977 36.83138 
L 489.449158 37.314163 
L 489.75134 36.83138 
L 490.053521 37.314163 
L 490.960066 37.314163 
L 491.262247 36.83138 
L 491.564429 37.314163 
L 491.86661 36.83138 
L 493.075336 36.83138 
L 493.377518 36.348597 
L 494.284062 36.348597 
L 494.586243 35.865815 
L 494.888425 36.348597 
L 495.492788 36.348597 
L 495.794969 35.865815 
L 497.003695 35.865815 
L 497.305877 35.383032 
L 497.608058 35.865815 
L 497.91024 35.383032 
L 498.212421 35.865815 
L 498.816784 35.865815 
L 499.118966 35.383032 
L 499.421147 35.865815 
L 499.723329 35.865815 
L 500.02551 35.383032 
L 500.327692 35.865815 
L 500.932055 34.90025 
L 501.234236 34.90025 
L 501.536418 35.383032 
L 501.838599 35.383032 
L 502.140781 34.90025 
L 503.349507 34.90025 
L 503.651688 34.417467 
L 503.95387 34.90025 
L 504.256051 34.90025 
L 504.558233 34.417467 
L 505.162596 34.417467 
L 505.766958 35.383032 
L 506.06914 34.417467 
L 506.371321 34.417467 
L 506.673503 34.90025 
L 506.975684 34.417467 
L 507.882229 34.417467 
L 508.18441 34.90025 
L 509.090955 34.90025 
L 509.393136 35.383032 
L 509.695318 34.90025 
L 509.997499 34.90025 
L 510.299681 35.383032 
L 510.601862 35.383032 
L 510.904044 35.865815 
L 511.206225 35.383032 
L 511.508407 35.865815 
L 511.810588 35.383032 
L 512.11277 35.865815 
L 513.019314 35.865815 
L 513.321496 36.348597 
L 514.530222 36.348597 
L 515.134585 37.314163 
L 516.343311 37.314163 
L 516.645492 37.796945 
L 517.249855 37.796945 
L 517.552036 38.76251 
L 517.854218 38.76251 
L 518.156399 38.279728 
L 518.458581 38.76251 
L 519.365125 38.76251 
L 519.667307 39.245293 
L 519.969488 38.76251 
L 520.27167 39.245293 
L 520.876033 39.245293 
L 521.178214 39.728076 
L 521.480396 39.245293 
L 521.782577 39.728076 
L 522.084759 39.245293 
L 522.689122 40.210858 
L 523.897848 40.210858 
L 524.200029 40.693641 
L 524.502211 40.693641 
L 524.804392 41.176423 
L 525.106574 41.176423 
L 525.408755 41.659206 
L 525.710937 41.176423 
L 526.013118 41.659206 
L 526.3153 41.659206 
L 526.919663 42.624771 
L 527.524026 42.624771 
L 528.128389 43.590336 
L 529.034933 43.590336 
L 529.337114 44.073119 
L 529.941477 44.073119 
L 530.243659 44.555901 
L 530.54584 44.555901 
L 530.848022 45.038684 
L 531.754566 45.038684 
L 532.056748 45.521467 
L 532.358929 45.038684 
L 532.661111 46.004249 
L 532.963292 45.521467 
L 533.265474 46.004249 
L 533.567655 45.521467 
L 533.869837 46.004249 
L 535.078563 46.004249 
L 535.380744 46.487032 
L 535.682926 46.004249 
L 536.287289 46.004249 
L 536.58947 45.521467 
L 537.193833 45.521467 
L 537.496015 45.038684 
L 537.798196 45.038684 
L 538.100378 44.555901 
L 539.309104 44.555901 
L 539.611285 44.073119 
L 540.820011 44.073119 
L 541.122192 43.590336 
L 541.424374 44.073119 
L 542.028737 43.107554 
L 542.330918 43.590336 
L 542.6331 43.590336 
L 542.935281 43.107554 
L 543.237463 43.107554 
L 543.539644 42.624771 
L 544.446189 42.624771 
L 544.74837 43.107554 
L 545.050552 42.624771 
L 545.654917 42.624771 
L 545.957099 42.141988 
L 548.676732 42.141988 
L 548.978913 41.659206 
L 549.281095 42.141988 
L 549.885458 41.176423 
L 550.187639 41.659206 
L 550.489821 41.659206 
L 550.792002 41.176423 
L 551.094184 41.659206 
L 551.396365 41.176423 
L 551.698547 41.659206 
L 552.000728 41.176423 
L 552.907273 41.176423 
L 553.209454 40.693641 
L 553.813817 40.693641 
L 554.115999 40.210858 
L 555.929088 40.210858 
L 556.231269 40.693641 
L 556.533451 40.210858 
L 556.835632 40.693641 
L 557.137814 40.693641 
L 557.439995 40.210858 
L 557.742177 40.693641 
L 558.34654 40.693641 
L 558.648721 40.210858 
L 558.950903 40.693641 
L 559.857447 40.693641 
L 560.159628 41.176423 
L 560.46181 40.210858 
L 560.763991 40.693641 
L 561.066173 40.693641 
L 561.368354 40.210858 
L 562.57708 40.210858 
L 562.879262 40.693641 
L 563.181443 40.210858 
L 563.483625 40.693641 
L 564.390169 40.693641 
L 564.692351 40.210858 
L 564.994532 40.210858 
L 565.296714 39.728076 
L 565.598895 40.210858 
L 566.203258 40.210858 
L 566.50544 39.728076 
L 566.807621 39.728076 
L 567.109803 39.245293 
L 567.411984 39.728076 
L 567.714166 39.728076 
L 568.016347 39.245293 
L 568.318529 39.728076 
L 568.62071 39.245293 
L 569.225073 39.245293 
L 569.527255 38.76251 
L 570.433799 38.76251 
L 571.038162 37.796945 
L 571.340343 38.279728 
L 571.642525 37.796945 
L 571.944706 38.279728 
L 572.246888 37.796945 
L 572.851251 37.796945 
L 573.153432 38.279728 
L 573.455614 38.279728 
L 573.757795 38.76251 
L 574.362158 38.76251 
L 574.66434 39.245293 
L 574.966521 39.245293 
L 575.268703 39.728076 
L 575.873066 39.728076 
L 576.175247 40.210858 
L 577.081792 40.210858 
L 577.383973 40.693641 
L 577.988336 39.728076 
L 578.290518 39.728076 
L 578.592699 40.210858 
L 578.894881 39.728076 
L 579.197062 39.728076 
L 579.499244 40.210858 
L 580.103607 40.210858 
L 580.405788 39.728076 
L 580.70797 40.210858 
L 581.614514 40.210858 
L 581.916696 39.728076 
L 582.521058 40.693641 
L 582.82324 40.210858 
L 583.125421 40.210858 
L 583.427603 40.693641 
L 583.729784 40.693641 
L 584.031966 40.210858 
L 584.334147 40.693641 
L 584.93851 40.693641 
L 585.240692 41.176423 
L 585.542873 40.693641 
L 585.845055 40.693641 
L 586.147236 41.176423 
L 586.449418 41.176423 
L 586.751599 40.693641 
L 587.053781 41.176423 
L 587.355962 41.176423 
L 587.658144 40.693641 
L 587.960325 41.659206 
L 588.262507 41.176423 
L 591.586503 41.176423 
L 591.888685 41.659206 
L 592.493048 41.659206 
L 592.795229 41.176423 
L 593.097411 41.176423 
L 593.399592 41.659206 
L 593.701774 41.176423 
L 594.003955 41.659206 
L 598.234496 41.659206 
L 598.838859 40.693641 
L 599.14104 41.176423 
L 599.443222 40.693641 
L 602.767218 40.693641 
L 603.0694 40.210858 
L 603.975944 40.210858 
L 604.278126 40.693641 
L 604.580307 40.210858 
L 604.882489 40.210858 
L 605.18467 40.693641 
L 605.486851 40.693641 
L 605.789033 40.210858 
L 606.091214 40.210858 
L 606.393396 40.693641 
L 606.695577 40.210858 
L 606.997759 40.693641 
L 608.508666 40.693641 
L 608.810848 41.176423 
L 609.113029 41.176423 
L 609.415211 40.693641 
L 610.019574 40.693641 
L 610.321755 41.176423 
L 610.623937 41.176423 
L 610.926118 41.659206 
L 611.530481 41.659206 
L 612.134844 42.624771 
L 612.437026 42.141988 
L 612.739207 42.624771 
L 613.34357 42.624771 
L 613.947933 43.590336 
L 614.552296 43.590336 
L 614.854478 43.107554 
L 615.761022 43.107554 
L 616.063204 42.624771 
L 617.271929 42.624771 
L 617.574111 42.141988 
L 618.178474 42.141988 
L 618.480655 42.624771 
L 618.782837 42.624771 
L 619.085018 42.141988 
L 619.991563 42.141988 
L 620.293744 41.659206 
L 620.595926 41.659206 
L 620.898107 41.176423 
L 621.200289 41.659206 
L 621.50247 41.176423 
L 623.617741 41.176423 
L 623.919922 40.693641 
L 624.222104 41.176423 
L 624.524285 41.176423 
L 624.826467 41.659206 
L 625.128648 41.176423 
L 627.243919 41.176423 
L 627.5461 41.659206 
L 627.848282 41.176423 
L 628.150463 41.659206 
L 628.452644 41.659206 
L 628.754826 41.176423 
L 629.057007 41.659206 
L 629.359189 41.176423 
L 629.66137 41.659206 
L 631.172278 41.659206 
L 631.474459 41.176423 
L 631.776641 41.176423 
L 632.078822 41.659206 
L 633.891911 41.659206 
L 634.194093 41.176423 
L 635.100637 41.176423 
L 635.402819 40.693641 
L 635.705 41.176423 
L 636.007182 41.176423 
L 636.309363 40.693641 
L 636.611545 41.176423 
L 636.913726 41.176423 
L 637.215908 40.693641 
L 639.331178 40.693641 
L 639.63336 40.210858 
L 641.446448 40.210858 
L 641.74863 39.728076 
L 642.352993 39.728076 
L 642.655174 40.210858 
L 642.957356 39.728076 
L 643.259537 39.728076 
L 643.561719 39.245293 
L 643.8639 39.245293 
L 644.166082 38.76251 
L 644.468263 38.76251 
L 644.770445 38.279728 
L 645.072626 38.76251 
L 645.374808 37.796945 
L 645.676989 37.796945 
L 646.583534 36.348597 
L 646.885715 36.348597 
L 647.187897 35.865815 
L 648.094441 35.865815 
L 648.396623 35.383032 
L 648.698804 35.383032 
L 649.000986 34.90025 
L 649.605349 34.90025 
L 649.90753 34.417467 
L 650.209712 34.417467 
L 650.511893 33.934684 
L 650.814075 33.934684 
L 651.116256 33.451902 
L 652.0228 33.451902 
L 652.324982 32.969119 
L 652.929345 32.969119 
L 653.231526 32.486337 
L 653.533708 32.486337 
L 653.835889 32.003554 
L 655.95116 32.003554 
L 656.253341 31.520771 
L 656.555523 31.520771 
L 656.857704 31.037989 
L 657.159886 31.520771 
L 657.462067 31.520771 
L 657.764249 31.037989 
L 658.06643 31.037989 
L 658.368612 30.555206 
L 659.879519 30.555206 
L 660.483882 29.589641 
L 660.786064 29.589641 
L 661.088245 29.106858 
L 661.390427 29.589641 
L 661.99479 29.589641 
L 662.296971 30.072424 
L 662.599153 29.589641 
L 663.807878 29.589641 
L 664.11006 30.072424 
L 664.412241 29.589641 
L 664.714423 30.072424 
L 665.318786 30.072424 
L 665.620967 29.589641 
L 665.923149 30.072424 
L 666.22533 29.589641 
L 667.434056 29.589641 
L 667.736238 29.106858 
L 668.038419 29.589641 
L 668.340601 29.589641 
L 668.642782 29.106858 
L 668.944964 29.106858 
L 669.247145 29.589641 
L 669.549327 29.106858 
L 669.851508 29.589641 
L 670.15369 29.106858 
L 670.455871 29.106858 
L 671.060234 30.072424 
L 671.362416 29.589641 
L 671.664597 30.072424 
L 671.966779 29.589641 
L 672.26896 30.072424 
L 672.571142 29.589641 
L 672.873323 30.072424 
L 673.175505 29.589641 
L 673.779868 29.589641 
L 674.082049 30.072424 
L 674.384231 29.589641 
L 674.686412 30.072424 
L 676.499501 30.072424 
L 676.801682 30.555206 
L 677.103864 30.072424 
L 677.708227 30.072424 
L 678.010408 30.555206 
L 678.31259 30.072424 
L 679.219134 30.072424 
L 679.521316 30.555206 
L 681.032223 30.555206 
L 681.636582 29.589641 
L 683.751852 29.589641 
L 684.054033 29.106858 
L 684.356215 29.106858 
L 684.658396 29.589641 
L 684.960578 29.106858 
L 685.867122 29.106858 
L 686.169304 28.624076 
L 686.471485 29.106858 
L 688.284574 29.106858 
L 688.586756 28.624076 
L 689.191119 28.624076 
L 689.4933 29.106858 
L 692.515115 29.106858 
L 692.817297 29.589641 
L 693.723841 29.589641 
L 694.026023 29.106858 
L 694.328204 29.589641 
L 695.234748 29.589641 
L 695.53693 30.072424 
L 698.256563 30.072424 
L 698.558745 30.555206 
L 698.860926 30.555206 
L 699.163108 30.072424 
L 699.465289 30.555206 
L 699.767471 30.555206 
L 700.069652 31.037989 
L 700.674015 31.037989 
L 700.976197 30.555206 
L 701.278378 31.037989 
L 702.487104 31.037989 
L 702.789286 31.520771 
L 703.393649 31.520771 
L 703.69583 31.037989 
L 703.998012 31.520771 
L 704.300193 31.037989 
L 705.206738 31.037989 
L 705.508919 31.520771 
L 705.811101 31.037989 
L 706.113282 31.520771 
L 706.415464 31.520771 
L 706.717645 31.037989 
L 707.624189 31.037989 
L 707.926371 30.555206 
L 708.832915 30.555206 
L 709.135097 31.037989 
L 709.73946 30.072424 
L 710.041641 30.555206 
L 711.85473 30.555206 
L 712.156912 31.037989 
L 712.761275 31.037989 
L 713.063456 30.555206 
L 713.365638 31.037989 
L 714.272182 31.037989 
L 714.574364 31.520771 
L 715.178727 31.520771 
L 715.480908 31.037989 
L 716.991816 31.037989 
L 717.293997 30.555206 
L 717.596179 31.037989 
L 717.89836 31.037989 
L 718.200541 31.520771 
L 718.502723 31.037989 
L 718.804904 31.520771 
L 719.107086 31.037989 
L 720.315812 31.037989 
L 720.617993 30.555206 
L 720.920175 31.037989 
L 721.222356 31.037989 
L 721.524538 30.555206 
L 722.733264 30.555206 
L 723.035445 31.037989 
L 723.337627 30.555206 
L 723.639808 31.037989 
L 723.94199 30.555206 
L 725.755079 30.555206 
L 726.05726 30.072424 
L 726.359442 30.072424 
L 726.661623 30.555206 
L 726.963805 30.555206 
L 727.265986 30.072424 
L 727.568168 30.555206 
L 727.870349 30.072424 
L 728.172531 30.555206 
L 728.474712 30.072424 
L 729.079075 30.072424 
L 729.381257 29.589641 
L 729.683438 30.072424 
L 729.985619 29.589641 
L 730.287801 29.589641 
L 730.589982 30.072424 
L 730.892164 29.589641 
L 731.798708 29.589641 
L 732.10089 29.106858 
L 732.705253 29.106858 
L 733.007434 28.624076 
L 733.309616 29.106858 
L 733.611797 29.106858 
L 733.913979 28.624076 
L 734.21616 28.624076 
L 734.518342 29.589641 
L 734.820523 29.106858 
L 735.122705 29.106858 
L 735.424886 28.624076 
L 736.029249 28.624076 
L 736.331431 29.106858 
L 736.633612 29.106858 
L 736.935794 28.624076 
L 737.237975 29.106858 
L 737.540157 28.624076 
L 738.14452 28.624076 
L 738.446701 28.141293 
L 739.051064 28.141293 
L 739.353246 27.658511 
L 739.655427 28.141293 
L 739.957609 28.141293 
L 740.25979 28.624076 
L 740.864153 28.624076 
L 741.166334 27.658511 
L 741.468516 28.141293 
L 742.37506 28.141293 
L 742.677242 27.658511 
L 742.979423 27.658511 
L 743.281605 28.141293 
L 743.583786 27.658511 
L 743.885968 28.141293 
L 744.188149 27.658511 
L 744.490331 28.141293 
L 744.792512 27.658511 
L 746.605601 27.658511 
L 746.907783 28.141293 
L 747.209964 27.658511 
L 748.41869 27.658511 
L 748.720872 28.141293 
L 749.023053 27.175728 
L 749.325235 27.658511 
L 750.231779 27.658511 
L 750.533961 28.141293 
L 750.836142 27.658511 
L 751.138324 28.141293 
L 751.742687 28.141293 
L 752.044868 27.658511 
L 752.34705 28.141293 
L 752.649231 28.141293 
L 752.951412 27.658511 
L 753.857957 27.658511 
L 754.46232 26.692946 
L 755.368864 26.692946 
L 756.275409 28.141293 
L 757.484135 28.141293 
L 757.786316 28.624076 
L 758.088498 28.141293 
L 758.390679 28.141293 
L 758.692861 28.624076 
L 759.297224 28.624076 
L 759.599405 29.106858 
L 759.901587 29.106858 
L 760.203768 28.624076 
L 760.50595 29.106858 
L 760.808131 28.624076 
L 761.110313 29.106858 
L 762.923402 29.106858 
L 763.225583 29.589641 
L 763.527765 29.106858 
L 763.829946 29.589641 
L 764.434309 29.589641 
L 764.73649 29.106858 
L 765.340853 30.072424 
L 765.643035 29.589641 
L 766.247398 29.589641 
L 766.549579 30.072424 
L 767.456124 30.072424 
L 767.758305 30.555206 
L 768.060487 30.072424 
L 768.362668 30.555206 
L 768.66485 30.072424 
L 768.967031 30.555206 
L 770.477939 30.555206 
L 770.78012 30.072424 
L 771.082302 30.555206 
L 772.291028 30.555206 
L 772.593209 31.037989 
L 773.197572 31.037989 
L 773.499754 31.520771 
L 773.801935 31.520771 
L 774.104117 31.037989 
L 774.70848 32.003554 
L 775.312843 32.003554 
L 775.615024 32.486337 
L 775.917205 32.486337 
L 776.219387 32.969119 
L 776.521568 32.486337 
L 776.82375 32.969119 
L 777.730294 32.969119 
L 778.334657 33.934684 
L 778.636839 33.934684 
L 778.93902 33.451902 
L 779.845565 33.451902 
L 780.147746 33.934684 
L 780.752109 33.934684 
L 781.054291 34.417467 
L 781.356472 33.934684 
L 781.658654 34.417467 
L 781.960835 34.417467 
L 782.263017 34.90025 
L 783.169561 34.90025 
L 783.471743 35.383032 
L 784.378287 35.383032 
L 784.98265 36.348597 
L 787.097921 36.348597 
L 787.400102 36.83138 
L 788.306646 36.83138 
L 788.608828 37.314163 
L 789.515372 37.314163 
L 789.817554 36.83138 
L 790.421917 37.796945 
L 791.02628 37.796945 
L 791.328461 37.314163 
L 791.932824 37.314163 
L 792.235006 37.796945 
L 793.14155 37.796945 
L 793.443732 38.279728 
L 793.745913 37.796945 
L 794.048095 37.796945 
L 794.350276 38.279728 
L 794.954639 37.314163 
L 795.559002 38.279728 
L 795.861184 37.796945 
L 796.465547 37.796945 
L 796.767728 38.279728 
L 797.06991 37.796945 
L 797.372091 37.796945 
L 797.674273 38.279728 
L 797.976454 37.796945 
L 798.278636 37.796945 
L 798.580817 38.279728 
L 798.882998 37.796945 
L 799.18518 37.796945 
L 799.487361 38.279728 
L 799.789543 37.796945 
L 800.091724 37.796945 
L 800.393906 38.279728 
L 800.998269 38.279728 
L 801.30045 37.796945 
L 802.509176 37.796945 
L 802.811358 37.314163 
L 803.113539 37.314163 
L 803.415721 37.796945 
L 804.020084 37.796945 
L 804.322265 37.314163 
L 805.22881 37.314163 
L 805.530991 36.83138 
L 805.833173 37.314163 
L 806.135354 37.314163 
L 806.437536 36.83138 
L 807.646262 36.83138 
L 807.948443 36.348597 
L 808.552806 36.348597 
L 808.854988 35.865815 
L 809.157169 36.348597 
L 809.761532 36.348597 
L 810.063714 35.865815 
L 810.365895 36.348597 
L 810.668076 35.865815 
L 811.876802 35.865815 
L 812.178984 35.383032 
L 812.481165 35.383032 
L 812.783347 35.865815 
L 813.085528 35.383032 
L 813.992073 35.383032 
L 814.294254 35.865815 
L 814.596436 34.90025 
L 814.898617 35.383032 
L 818.524796 35.383032 
L 818.826978 35.865815 
L 819.129159 35.383032 
L 821.848795 35.383032 
L 822.150976 35.865815 
L 822.453158 35.865815 
L 822.75534 35.383032 
L 823.661885 35.383032 
L 823.964067 35.865815 
L 824.266248 35.383032 
L 825.172793 35.383032 
L 825.474975 35.865815 
L 825.777157 35.383032 
L 826.079338 35.865815 
L 826.38152 35.383032 
L 826.683702 35.383032 
L 826.985884 35.865815 
L 827.288065 35.865815 
L 827.590247 35.383032 
L 827.892429 35.383032 
L 828.19461 35.865815 
L 828.496792 35.383032 
L 828.798974 35.865815 
L 829.101155 35.383032 
L 829.403337 35.383032 
L 829.705519 35.865815 
L 830.007701 35.865815 
L 830.309882 35.383032 
L 830.612064 35.383032 
L 830.914246 35.865815 
L 831.216427 35.383032 
L 831.820791 35.383032 
L 832.122972 34.90025 
L 832.425154 35.383032 
L 833.331699 35.383032 
L 833.633881 35.865815 
L 833.936063 35.383032 
L 834.238244 35.865815 
L 834.540426 35.383032 
L 835.14479 35.383032 
L 835.446971 35.865815 
L 837.260061 35.865815 
L 837.562243 36.348597 
L 837.864425 36.348597 
L 838.166607 35.865815 
L 838.468788 36.348597 
L 839.375333 36.348597 
L 839.677515 36.83138 
L 839.979697 36.348597 
L 842.39715 36.348597 
L 842.699332 35.865815 
L 843.001514 36.348597 
L 843.908059 36.348597 
L 844.210241 36.83138 
L 845.418967 36.83138 
L 845.721149 37.314163 
L 846.325512 37.314163 
L 846.627694 36.83138 
L 846.929876 37.314163 
L 849.045148 37.314163 
L 849.34733 37.796945 
L 849.649511 37.796945 
L 849.951693 37.314163 
L 850.253875 37.314163 
L 850.556056 37.796945 
L 851.764783 37.796945 
L 852.066965 38.279728 
L 855.390964 38.279728 
L 855.693145 38.76251 
L 855.995327 38.279728 
L 857.204054 38.279728 
L 857.506236 38.76251 
L 857.808417 38.279728 
L 860.528053 38.279728 
L 860.830234 38.76251 
L 861.132416 38.279728 
L 861.434598 38.76251 
L 862.341143 38.76251 
L 862.643324 39.245293 
L 863.54987 39.245293 
L 864.154233 40.210858 
L 864.456415 39.728076 
L 865.967323 39.728076 
L 866.269505 40.210858 
L 866.873868 39.245293 
L 867.17605 39.728076 
L 868.384777 39.728076 
L 868.686959 39.245293 
L 869.291322 40.210858 
L 869.593504 39.728076 
L 869.895685 40.210858 
L 871.708776 40.210858 
L 872.010957 40.693641 
L 872.313139 40.693641 
L 872.615321 40.210858 
L 872.917502 40.693641 
L 873.219684 40.210858 
L 873.521866 40.693641 
L 873.824048 40.693641 
L 874.126229 40.210858 
L 874.428411 40.693641 
L 874.730593 40.210858 
L 875.032774 40.693641 
L 875.334956 40.210858 
L 875.637138 40.693641 
L 875.939319 40.210858 
L 876.241501 40.210858 
L 876.543683 39.728076 
L 876.845865 40.210858 
L 877.450228 40.210858 
L 877.75241 39.728076 
L 878.054591 39.728076 
L 878.356773 40.210858 
L 878.658955 40.210858 
L 878.961136 39.728076 
L 879.263318 40.210858 
L 880.472045 40.210858 
L 880.774227 39.728076 
L 881.076408 39.728076 
L 881.37859 40.210858 
L 881.680772 39.728076 
L 881.982953 40.210858 
L 882.285135 40.210858 
L 882.587317 39.728076 
L 883.796044 39.728076 
L 884.098225 40.210858 
L 884.400407 39.728076 
L 884.702589 39.728076 
L 885.004771 40.210858 
L 885.306952 40.210858 
L 885.609134 40.693641 
L 886.213497 40.693641 
L 886.515679 41.176423 
L 886.817861 40.693641 
L 887.422224 41.659206 
L 887.724406 41.176423 
L 888.026588 41.659206 
L 889.235314 41.659206 
L 889.537496 42.141988 
L 889.839678 41.659206 
L 891.048405 41.659206 
L 891.350586 42.141988 
L 891.652768 42.141988 
L 891.95495 41.659206 
L 892.257131 42.141988 
L 893.163676 42.141988 
L 893.465858 41.659206 
L 893.76804 41.659206 
L 894.070222 42.141988 
L 894.372403 41.659206 
L 895.883312 41.659206 
L 896.185493 41.176423 
L 896.789857 41.176423 
L 897.092039 40.693641 
L 897.39422 40.693641 
L 897.696402 41.176423 
L 897.998584 41.176423 
L 898.300765 40.693641 
L 899.207311 40.693641 
L 899.509492 41.176423 
L 899.811674 40.210858 
L 900.416037 40.210858 
L 900.718219 40.693641 
L 901.322582 40.693641 
L 901.624764 40.210858 
L 901.926946 40.693641 
L 903.740036 40.693641 
L 904.042218 41.176423 
L 904.3444 40.693641 
L 905.553126 40.693641 
L 905.855308 41.176423 
L 906.15749 40.693641 
L 906.459671 41.176423 
L 906.761853 40.693641 
L 907.668398 40.693641 
L 907.97058 41.176423 
L 908.877125 41.176423 
L 909.179307 40.693641 
L 909.481488 41.176423 
L 909.78367 41.176423 
L 910.085852 40.693641 
L 910.388034 40.693641 
L 910.690215 41.176423 
L 912.201124 41.176423 
L 912.503305 40.693641 
L 914.316396 40.693641 
L 914.618577 40.210858 
L 915.525123 40.210858 
L 915.827304 39.728076 
L 916.129486 39.728076 
L 916.431668 40.210858 
L 916.733849 39.728076 
L 917.338213 39.728076 
L 917.640394 40.210858 
L 917.942576 39.728076 
L 917.942576 39.728076 
" clip-path="url(#pa3987eaa51)" style="fill: none; stroke: #ea580c; stroke-opacity: 0.95; stroke-width: 0.936; stroke-linecap: square"/>
   </g>
   <g id="patch_23">
    <path d="M 47.917188 228.954713 
L 47.917188 17.061433 
" style="fill: none; stroke: #cbd5e1; stroke-width: 0.8; stroke-linejoin: miter; stroke-linecap: square"/>
   </g>
   <g id="patch_24">
    <path d="M 935.342187 228.954713 
L 935.342187 17.061433 
" style="fill: none; stroke: #cbd5e1; stroke-width: 0.8; stroke-linejoin: miter; stroke-linecap: square"/>
   </g>
   <g id="patch_25">
    <path d="M 47.917188 228.954713 
L 935.342187 228.954713 
" style="fill: none; stroke: #cbd5e1; stroke-width: 0.8; stroke-linejoin: miter; stroke-linecap: square"/>
   </g>
   <g id="patch_26">
    <path d="M 47.917188 17.061433 
L 935.342187 17.061433 
" style="fill: none; stroke: #cbd5e1; stroke-width: 0.8; stroke-linejoin: miter; stroke-linecap: square"/>
   </g>
   <g id="text_18">
    <!-- ACC -->
    <g style="fill: #475569" transform="translate(130.319134 13.27875) scale(0.08 -0.08)">
     <defs>
      <path id="DejaVuSans-41" d="M 2188 4044 
L 1331 1722 
L 3047 1722 
L 2188 4044 
z
M 1831 4666 
L 2547 4666 
L 4325 0 
L 3669 0 
L 3244 1197 
L 1141 1197 
L 716 0 
L 50 0 
L 1831 4666 
z
" transform="scale(0.015625)"/>
     </defs>
     <use xlink:href="#DejaVuSans-41"/>
     <use xlink:href="#DejaVuSans-43" transform="translate(66.658203 0)"/>
     <use xlink:href="#DejaVuSans-43" transform="translate(136.482422 0)"/>
    </g>
   </g>
   <g id="text_19">
    <!-- OC -->
    <g style="fill: #475569" transform="translate(232.349649 13.27875) scale(0.08 -0.08)">
     <defs>
      <path id="DejaVuSans-4f" d="M 2522 4238 
Q 1834 4238 1429 3725 
Q 1025 3213 1025 2328 
Q 1025 1447 1429 934 
Q 1834 422 2522 422 
Q 3209 422 3611 934 
Q 4013 1447 4013 2328 
Q 4013 3213 3611 3725 
Q 3209 4238 2522 4238 
z
M 2522 4750 
Q 3503 4750 4090 4092 
Q 4678 3434 4678 2328 
Q 4678 1225 4090 567 
Q 3503 -91 2522 -91 
Q 1538 -91 948 565 
Q 359 1222 359 2328 
Q 359 3434 948 4092 
Q 1538 4750 2522 4750 
z
" transform="scale(0.015625)"/>
     </defs>
     <use xlink:href="#DejaVuSans-4f"/>
     <use xlink:href="#DejaVuSans-43" transform="translate(78.710938 0)"/>
    </g>
   </g>
   <g id="text_20">
    <!-- FCS -->
    <g style="fill: #475569" transform="translate(253.322011 13.27875) scale(0.08 -0.08)">
     <defs>
      <path id="DejaVuSans-46" d="M 628 4666 
L 3309 4666 
L 3309 4134 
L 1259 4134 
L 1259 2759 
L 3109 2759 
L 3109 2228 
L 1259 2228 
L 1259 0 
L 628 0 
L 628 4666 
z
" transform="scale(0.015625)"/>
      <path id="DejaVuSans-53" d="M 3425 4513 
L 3425 3897 
Q 3066 4069 2747 4153 
Q 2428 4238 2131 4238 
Q 1616 4238 1336 4038 
Q 1056 3838 1056 3469 
Q 1056 3159 1242 3001 
Q 1428 2844 1947 2747 
L 2328 2669 
Q 3034 2534 3370 2195 
Q 3706 1856 3706 1288 
Q 3706 609 3251 259 
Q 2797 -91 1919 -91 
Q 1588 -91 1214 -16 
Q 841 59 441 206 
L 441 856 
Q 825 641 1194 531 
Q 1563 422 1919 422 
Q 2459 422 2753 634 
Q 3047 847 3047 1241 
Q 3047 1584 2836 1778 
Q 2625 1972 2144 2069 
L 1759 2144 
Q 1053 2284 737 2584 
Q 422 2884 422 3419 
Q 422 4038 858 4394 
Q 1294 4750 2059 4750 
Q 2388 4750 2728 4690 
Q 3069 4631 3425 4513 
z
" transform="scale(0.015625)"/>
     </defs>
     <use xlink:href="#DejaVuSans-46"/>
     <use xlink:href="#DejaVuSans-43" transform="translate(57.519531 0)"/>
     <use xlink:href="#DejaVuSans-53" transform="translate(127.34375 0)"/>
    </g>
   </g>
   <g id="text_21">
    <!-- SR -->
    <g style="fill: #475569" transform="translate(289.631803 13.27875) scale(0.08 -0.08)">
     <defs>
      <path id="DejaVuSans-52" d="M 2841 2188 
Q 3044 2119 3236 1894 
Q 3428 1669 3622 1275 
L 4263 0 
L 3584 0 
L 2988 1197 
Q 2756 1666 2539 1819 
Q 2322 1972 1947 1972 
L 1259 1972 
L 1259 0 
L 628 0 
L 628 4666 
L 2053 4666 
Q 2853 4666 3247 4331 
Q 3641 3997 3641 3322 
Q 3641 2881 3436 2590 
Q 3231 2300 2841 2188 
z
M 1259 4147 
L 1259 2491 
L 2053 2491 
Q 2509 2491 2742 2702 
Q 2975 2913 2975 3322 
Q 2975 3731 2742 3939 
Q 2509 4147 2053 4147 
L 1259 4147 
z
" transform="scale(0.015625)"/>
     </defs>
     <use xlink:href="#DejaVuSans-53"/>
     <use xlink:href="#DejaVuSans-52" transform="translate(63.476562 0)"/>
    </g>
   </g>
   <g id="text_22">
    <!-- FFC -->
    <g style="fill: #475569" transform="translate(330.61704 13.27875) scale(0.08 -0.08)">
     <use xlink:href="#DejaVuSans-46"/>
     <use xlink:href="#DejaVuSans-46" transform="translate(57.519531 0)"/>
     <use xlink:href="#DejaVuSans-43" transform="translate(115.039062 0)"/>
    </g>
   </g>
   <g id="text_23">
    <!-- SS -->
    <g style="fill: #475569" transform="translate(416.788028 13.27875) scale(0.08 -0.08)">
     <use xlink:href="#DejaVuSans-53"/>
     <use xlink:href="#DejaVuSans-53" transform="translate(63.476562 0)"/>
    </g>
   </g>
   <g id="text_24">
    <!-- OC -->
    <g style="fill: #475569" transform="translate(483.915737 13.27875) scale(0.08 -0.08)">
     <use xlink:href="#DejaVuSans-4f"/>
     <use xlink:href="#DejaVuSans-43" transform="translate(78.710938 0)"/>
    </g>
   </g>
   <g id="text_25">
    <!-- FCS -->
    <g style="fill: #475569" transform="translate(507.15446 13.27875) scale(0.08 -0.08)">
     <use xlink:href="#DejaVuSans-46"/>
     <use xlink:href="#DejaVuSans-43" transform="translate(57.519531 0)"/>
     <use xlink:href="#DejaVuSans-53" transform="translate(127.34375 0)"/>
    </g>
   </g>
   <g id="text_26">
    <!-- SR -->
    <g style="fill: #475569" transform="translate(543.464252 13.27875) scale(0.08 -0.08)">
     <use xlink:href="#DejaVuSans-53"/>
     <use xlink:href="#DejaVuSans-52" transform="translate(63.476562 0)"/>
    </g>
   </g>
   <g id="text_27">
    <!-- FFC -->
    <g style="fill: #475569" transform="translate(584.449489 13.27875) scale(0.08 -0.08)">
     <use xlink:href="#DejaVuSans-46"/>
     <use xlink:href="#DejaVuSans-46" transform="translate(57.519531 0)"/>
     <use xlink:href="#DejaVuSans-43" transform="translate(115.039062 0)"/>
    </g>
   </g>
   <g id="text_28">
    <!-- SS -->
    <g style="fill: #475569" transform="translate(670.620477 13.27875) scale(0.08 -0.08)">
     <use xlink:href="#DejaVuSans-53"/>
     <use xlink:href="#DejaVuSans-53" transform="translate(63.476562 0)"/>
    </g>
   </g>
   <g id="text_29">
    <!-- OC -->
    <g style="fill: #475569" transform="translate(737.748186 13.27875) scale(0.08 -0.08)">
     <use xlink:href="#DejaVuSans-4f"/>
     <use xlink:href="#DejaVuSans-43" transform="translate(78.710938 0)"/>
    </g>
   </g>
   <g id="text_30">
    <!-- FCS -->
    <g style="fill: #475569" transform="translate(760.986909 13.27875) scale(0.08 -0.08)">
     <use xlink:href="#DejaVuSans-46"/>
     <use xlink:href="#DejaVuSans-43" transform="translate(57.519531 0)"/>
     <use xlink:href="#DejaVuSans-53" transform="translate(127.34375 0)"/>
    </g>
   </g>
   <g id="text_31">
    <!-- SR -->
    <g style="fill: #475569" transform="translate(797.296701 13.27875) scale(0.08 -0.08)">
     <use xlink:href="#DejaVuSans-53"/>
     <use xlink:href="#DejaVuSans-52" transform="translate(63.476562 0)"/>
    </g>
   </g>
   <g id="text_32">
    <!-- FFC -->
    <g style="fill: #475569" transform="translate(838.281938 13.27875) scale(0.08 -0.08)">
     <use xlink:href="#DejaVuSans-46"/>
     <use xlink:href="#DejaVuSans-46" transform="translate(57.519531 0)"/>
     <use xlink:href="#DejaVuSans-43" transform="translate(115.039062 0)"/>
    </g>
   </g>
   <g id="text_33">
    <!-- SS -->
    <g style="fill: #475569" transform="translate(888.191147 13.27875) scale(0.08 -0.08)">
     <use xlink:href="#DejaVuSans-53"/>
     <use xlink:href="#DejaVuSans-53" transform="translate(63.476562 0)"/>
    </g>
   </g>
   <g id="legend_1">
    <g id="line2d_32">
     <path d="M 815.429688 27.540183 
L 823.429688 27.540183 
L 831.429688 27.540183 
" style="fill: none; stroke: #ea580c; stroke-opacity: 0.95; stroke-width: 1.3; stroke-linecap: square"/>
    </g>
    <g id="text_34">
     <!-- Empatica temperature -->
     <g transform="translate(837.829687 30.340183) scale(0.08 -0.08)">
      <defs>
       <path id="DejaVuSans-45" d="M 628 4666 
L 3578 4666 
L 3578 4134 
L 1259 4134 
L 1259 2753 
L 3481 2753 
L 3481 2222 
L 1259 2222 
L 1259 531 
L 3634 531 
L 3634 0 
L 628 0 
L 628 4666 
z
" transform="scale(0.015625)"/>
      </defs>
      <use xlink:href="#DejaVuSans-45"/>
      <use xlink:href="#DejaVuSans-6d" transform="translate(63.183594 0)"/>
      <use xlink:href="#DejaVuSans-70" transform="translate(160.595703 0)"/>
      <use xlink:href="#DejaVuSans-61" transform="translate(224.072266 0)"/>
      <use xlink:href="#DejaVuSans-74" transform="translate(285.351562 0)"/>
      <use xlink:href="#DejaVuSans-69" transform="translate(324.560547 0)"/>
      <use xlink:href="#DejaVuSans-63" transform="translate(352.34375 0)"/>
      <use xlink:href="#DejaVuSans-61" transform="translate(407.324219 0)"/>
      <use xlink:href="#DejaVuSans-20" transform="translate(468.603516 0)"/>
      <use xlink:href="#DejaVuSans-74" transform="translate(500.390625 0)"/>
      <use xlink:href="#DejaVuSans-65" transform="translate(539.599609 0)"/>
      <use xlink:href="#DejaVuSans-6d" transform="translate(601.123047 0)"/>
      <use xlink:href="#DejaVuSans-70" transform="translate(698.535156 0)"/>
      <use xlink:href="#DejaVuSans-65" transform="translate(762.011719 0)"/>
      <use xlink:href="#DejaVuSans-72" transform="translate(823.535156 0)"/>
      <use xlink:href="#DejaVuSans-61" transform="translate(864.648438 0)"/>
      <use xlink:href="#DejaVuSans-74" transform="translate(925.927734 0)"/>
      <use xlink:href="#DejaVuSans-75" transform="translate(965.136719 0)"/>
      <use xlink:href="#DejaVuSans-72" transform="translate(1028.515625 0)"/>
      <use xlink:href="#DejaVuSans-65" transform="translate(1067.378906 0)"/>
     </g>
    </g>
   </g>
  </g>
 </g>
 <defs>
  <clipPath id="pa3987eaa51">
   <rect x="47.917188" y="17.061433" width="887.425" height="211.89328"/>
  </clipPath>
 </defs>
</svg>
