<?xml version="1.0" encoding="utf-8" standalone="no"?>
<!DOCTYPE svg PUBLIC "-//W3C//DTD SVG 1.1//EN"
  "http://www.w3.org/Graphics/SVG/1.1/DTD/svg11.dtd">
<svg xmlns:xlink="http://www.w3.org/1999/xlink" width="942.530937pt" height="265.54315pt" viewBox="0 0 942.530937 265.54315" xmlns="http://www.w3.org/2000/svg" version="1.1">
 <metadata>
  <rdf:RDF xmlns:dc="http://purl.org/dc/elements/1.1/" xmlns:cc="http://creativecommons.org/ns#" xmlns:rdf="http://www.w3.org/1999/02/22-rdf-syntax-ns#">
   <cc:Work>
    <dc:type rdf:resource="http://purl.org/dc/dcmitype/StillImage"/>
    <dc:date>2026-04-17T17:30:12.621477</dc:date>
    <dc:format>image/svg+xml</dc:format>
    <dc:creator>
     <cc:Agent>
      <dc:title>Matplotlib v3.10.8, https://matplotlib.org/</dc:title>
     </cc:Agent>
    </dc:creator>
   </cc:Work>
  </rdf:RDF>
 </metadata>
 <defs>
  <style type="text/css">*{stroke-linejoin: round; stroke-linecap: butt}</style>
 </defs>
 <g id="figure_1">
  <g id="patch_1">
   <path d="M 0 265.54315 
L 942.530937 265.54315 
L 942.530937 0 
L 0 0 
z
" style="fill: #ffffff"/>
  </g>
  <g id="axes_1">
   <g id="patch_2">
    <path d="M 53.643438 228.954713 
L 935.330937 228.954713 
L 935.330937 17.061433 
L 53.643438 17.061433 
z
" style="fill: #ffffff"/>
   </g>
   <g id="patch_3">
    <path d="M 53.643438 228.954713 
L 70.598966 228.954713 
L 70.598966 17.061433 
L 53.643438 17.061433 
z
" clip-path="url(#p7e915ecaea)" style="fill: #f8fafc; opacity: 0.45"/>
   </g>
   <g id="patch_4">
    <path d="M 70.598966 228.954713 
L 109.386124 228.954713 
L 109.386124 17.061433 
L 70.598966 17.061433 
z
" clip-path="url(#p7e915ecaea)" style="fill: #eff6ff; opacity: 0.45"/>
   </g>
   <g id="patch_5">
    <path d="M 109.386124 228.954713 
L 137.091236 228.954713 
L 137.091236 17.061433 
L 109.386124 17.061433 
z
" clip-path="url(#p7e915ecaea)" style="fill: #fef3c7; opacity: 0.45"/>
   </g>
   <g id="patch_6">
    <path d="M 137.091236 228.954713 
L 181.419416 228.954713 
L 181.419416 17.061433 
L 137.091236 17.061433 
z
" clip-path="url(#p7e915ecaea)" style="fill: #dcfce7; opacity: 0.45"/>
   </g>
   <g id="patch_7">
    <path d="M 181.419416 228.954713 
L 236.829641 228.954713 
L 236.829641 17.061433 
L 181.419416 17.061433 
z
" clip-path="url(#p7e915ecaea)" style="fill: #fee2e2; opacity: 0.45"/>
   </g>
   <g id="patch_8">
    <path d="M 236.829641 228.954713 
L 247.911686 228.954713 
L 247.911686 17.061433 
L 236.829641 17.061433 
z
" clip-path="url(#p7e915ecaea)" style="fill: #ede9fe; opacity: 0.45"/>
   </g>
   <g id="patch_9">
    <path d="M 247.911686 228.954713 
L 386.437249 228.954713 
L 386.437249 17.061433 
L 247.911686 17.061433 
z
" clip-path="url(#p7e915ecaea)" style="fill: #f8fafc; opacity: 0.45"/>
   </g>
   <g id="patch_10">
    <path d="M 386.437249 228.954713 
L 419.683384 228.954713 
L 419.683384 17.061433 
L 386.437249 17.061433 
z
" clip-path="url(#p7e915ecaea)" style="fill: #eff6ff; opacity: 0.45"/>
   </g>
   <g id="patch_11">
    <path d="M 419.683384 228.954713 
L 447.388496 228.954713 
L 447.388496 17.061433 
L 419.683384 17.061433 
z
" clip-path="url(#p7e915ecaea)" style="fill: #fef3c7; opacity: 0.45"/>
   </g>
   <g id="patch_12">
    <path d="M 447.388496 228.954713 
L 491.716676 228.954713 
L 491.716676 17.061433 
L 447.388496 17.061433 
z
" clip-path="url(#p7e915ecaea)" style="fill: #dcfce7; opacity: 0.45"/>
   </g>
   <g id="patch_13">
    <path d="M 491.716676 228.954713 
L 547.126901 228.954713 
L 547.126901 17.061433 
L 491.716676 17.061433 
z
" clip-path="url(#p7e915ecaea)" style="fill: #fee2e2; opacity: 0.45"/>
   </g>
   <g id="patch_14">
    <path d="M 547.126901 228.954713 
L 558.208946 228.954713 
L 558.208946 17.061433 
L 547.126901 17.061433 
z
" clip-path="url(#p7e915ecaea)" style="fill: #ede9fe; opacity: 0.45"/>
   </g>
   <g id="patch_15">
    <path d="M 558.208946 228.954713 
L 702.275531 228.954713 
L 702.275531 17.061433 
L 558.208946 17.061433 
z
" clip-path="url(#p7e915ecaea)" style="fill: #f8fafc; opacity: 0.45"/>
   </g>
   <g id="patch_16">
    <path d="M 702.275531 228.954713 
L 729.980644 228.954713 
L 729.980644 17.061433 
L 702.275531 17.061433 
z
" clip-path="url(#p7e915ecaea)" style="fill: #eff6ff; opacity: 0.45"/>
   </g>
   <g id="patch_17">
    <path d="M 729.980644 228.954713 
L 757.685756 228.954713 
L 757.685756 17.061433 
L 729.980644 17.061433 
z
" clip-path="url(#p7e915ecaea)" style="fill: #fef3c7; opacity: 0.45"/>
   </g>
   <g id="patch_18">
    <path d="M 757.685756 228.954713 
L 796.472914 228.954713 
L 796.472914 17.061433 
L 757.685756 17.061433 
z
" clip-path="url(#p7e915ecaea)" style="fill: #dcfce7; opacity: 0.45"/>
   </g>
   <g id="patch_19">
    <path d="M 796.472914 228.954713 
L 857.424161 228.954713 
L 857.424161 17.061433 
L 796.472914 17.061433 
z
" clip-path="url(#p7e915ecaea)" style="fill: #fee2e2; opacity: 0.45"/>
   </g>
   <g id="patch_20">
    <path d="M 857.424161 228.954713 
L 868.506206 228.954713 
L 868.506206 17.061433 
L 857.424161 17.061433 
z
" clip-path="url(#p7e915ecaea)" style="fill: #ede9fe; opacity: 0.45"/>
   </g>
   <g id="patch_21">
    <path d="M 868.506206 228.954713 
L 918.375409 228.954713 
L 918.375409 17.061433 
L 868.506206 17.061433 
z
" clip-path="url(#p7e915ecaea)" style="fill: #f8fafc; opacity: 0.45"/>
   </g>
   <g id="patch_22">
    <path d="M 918.375409 228.954713 
L 923.916431 228.954713 
L 923.916431 17.061433 
L 918.375409 17.061433 
z
" clip-path="url(#p7e915ecaea)" style="fill: #eff6ff; opacity: 0.45"/>
   </g>
   <g id="matplotlib.axis_1">
    <g id="xtick_1">
     <g id="line2d_1">
      <path d="M 70.598966 228.954713 
L 70.598966 17.061433 
" clip-path="url(#p7e915ecaea)" style="fill: none; stroke: #eef2f7; stroke-width: 0.55; stroke-linecap: square"/>
     </g>
     <g id="line2d_2">
      <defs>
       <path id="m044ec3d9fe" d="M 0 0 
L 0 3.5 
" style="stroke: #000000; stroke-width: 0.8"/>
      </defs>
      <g>
       <use xlink:href="#m044ec3d9fe" x="70.598966" y="228.954713" style="stroke: #000000; stroke-width: 0.8"/>
      </g>
     </g>
     <g id="text_1">
      <!-- 40 -->
      <g transform="translate(64.872716 242.793307) scale(0.09 -0.09)">
       <defs>
        <path id="DejaVuSans-34" d="M 2419 4116 
L 825 1625 
L 2419 1625 
L 2419 4116 
z
M 2253 4666 
L 3047 4666 
L 3047 1625 
L 3713 1625 
L 3713 1100 
L 3047 1100 
L 3047 0 
L 2419 0 
L 2419 1100 
L 313 1100 
L 313 1709 
L 2253 4666 
z
" transform="scale(0.015625)"/>
        <path id="DejaVuSans-30" d="M 2034 4250 
Q 1547 4250 1301 3770 
Q 1056 3291 1056 2328 
Q 1056 1369 1301 889 
Q 1547 409 2034 409 
Q 2525 409 2770 889 
Q 3016 1369 3016 2328 
Q 3016 3291 2770 3770 
Q 2525 4250 2034 4250 
z
M 2034 4750 
Q 2819 4750 3233 4129 
Q 3647 3509 3647 2328 
Q 3647 1150 3233 529 
Q 2819 -91 2034 -91 
Q 1250 -91 836 529 
Q 422 1150 422 2328 
Q 422 3509 836 4129 
Q 1250 4750 2034 4750 
z
" transform="scale(0.015625)"/>
       </defs>
       <use xlink:href="#DejaVuSans-34"/>
       <use xlink:href="#DejaVuSans-30" transform="translate(63.623047 0)"/>
      </g>
     </g>
    </g>
    <g id="xtick_2">
     <g id="line2d_3">
      <path d="M 181.419416 228.954713 
L 181.419416 17.061433 
" clip-path="url(#p7e915ecaea)" style="fill: none; stroke: #eef2f7; stroke-width: 0.55; stroke-linecap: square"/>
     </g>
     <g id="line2d_4">
      <g>
       <use xlink:href="#m044ec3d9fe" x="181.419416" y="228.954713" style="stroke: #000000; stroke-width: 0.8"/>
      </g>
     </g>
     <g id="text_2">
      <!-- 60 -->
      <g transform="translate(175.693166 242.793307) scale(0.09 -0.09)">
       <defs>
        <path id="DejaVuSans-36" d="M 2113 2584 
Q 1688 2584 1439 2293 
Q 1191 2003 1191 1497 
Q 1191 994 1439 701 
Q 1688 409 2113 409 
Q 2538 409 2786 701 
Q 3034 994 3034 1497 
Q 3034 2003 2786 2293 
Q 2538 2584 2113 2584 
z
M 3366 4563 
L 3366 3988 
Q 3128 4100 2886 4159 
Q 2644 4219 2406 4219 
Q 1781 4219 1451 3797 
Q 1122 3375 1075 2522 
Q 1259 2794 1537 2939 
Q 1816 3084 2150 3084 
Q 2853 3084 3261 2657 
Q 3669 2231 3669 1497 
Q 3669 778 3244 343 
Q 2819 -91 2113 -91 
Q 1303 -91 875 529 
Q 447 1150 447 2328 
Q 447 3434 972 4092 
Q 1497 4750 2381 4750 
Q 2619 4750 2861 4703 
Q 3103 4656 3366 4563 
z
" transform="scale(0.015625)"/>
       </defs>
       <use xlink:href="#DejaVuSans-36"/>
       <use xlink:href="#DejaVuSans-30" transform="translate(63.623047 0)"/>
      </g>
     </g>
    </g>
    <g id="xtick_3">
     <g id="line2d_5">
      <path d="M 292.239866 228.954713 
L 292.239866 17.061433 
" clip-path="url(#p7e915ecaea)" style="fill: none; stroke: #eef2f7; stroke-width: 0.55; stroke-linecap: square"/>
     </g>
     <g id="line2d_6">
      <g>
       <use xlink:href="#m044ec3d9fe" x="292.239866" y="228.954713" style="stroke: #000000; stroke-width: 0.8"/>
      </g>
     </g>
     <g id="text_3">
      <!-- 80 -->
      <g transform="translate(286.513616 242.793307) scale(0.09 -0.09)">
       <defs>
        <path id="DejaVuSans-38" d="M 2034 2216 
Q 1584 2216 1326 1975 
Q 1069 1734 1069 1313 
Q 1069 891 1326 650 
Q 1584 409 2034 409 
Q 2484 409 2743 651 
Q 3003 894 3003 1313 
Q 3003 1734 2745 1975 
Q 2488 2216 2034 2216 
z
M 1403 2484 
Q 997 2584 770 2862 
Q 544 3141 544 3541 
Q 544 4100 942 4425 
Q 1341 4750 2034 4750 
Q 2731 4750 3128 4425 
Q 3525 4100 3525 3541 
Q 3525 3141 3298 2862 
Q 3072 2584 2669 2484 
Q 3125 2378 3379 2068 
Q 3634 1759 3634 1313 
Q 3634 634 3220 271 
Q 2806 -91 2034 -91 
Q 1263 -91 848 271 
Q 434 634 434 1313 
Q 434 1759 690 2068 
Q 947 2378 1403 2484 
z
M 1172 3481 
Q 1172 3119 1398 2916 
Q 1625 2713 2034 2713 
Q 2441 2713 2670 2916 
Q 2900 3119 2900 3481 
Q 2900 3844 2670 4047 
Q 2441 4250 2034 4250 
Q 1625 4250 1398 4047 
Q 1172 3844 1172 3481 
z
" transform="scale(0.015625)"/>
       </defs>
       <use xlink:href="#DejaVuSans-38"/>
       <use xlink:href="#DejaVuSans-30" transform="translate(63.623047 0)"/>
      </g>
     </g>
    </g>
    <g id="xtick_4">
     <g id="line2d_7">
      <path d="M 403.060316 228.954713 
L 403.060316 17.061433 
" clip-path="url(#p7e915ecaea)" style="fill: none; stroke: #eef2f7; stroke-width: 0.55; stroke-linecap: square"/>
     </g>
     <g id="line2d_8">
      <g>
       <use xlink:href="#m044ec3d9fe" x="403.060316" y="228.954713" style="stroke: #000000; stroke-width: 0.8"/>
      </g>
     </g>
     <g id="text_4">
      <!-- 100 -->
      <g transform="translate(394.470941 242.793307) scale(0.09 -0.09)">
       <defs>
        <path id="DejaVuSans-31" d="M 794 531 
L 1825 531 
L 1825 4091 
L 703 3866 
L 703 4441 
L 1819 4666 
L 2450 4666 
L 2450 531 
L 3481 531 
L 3481 0 
L 794 0 
L 794 531 
z
" transform="scale(0.015625)"/>
       </defs>
       <use xlink:href="#DejaVuSans-31"/>
       <use xlink:href="#DejaVuSans-30" transform="translate(63.623047 0)"/>
       <use xlink:href="#DejaVuSans-30" transform="translate(127.246094 0)"/>
      </g>
     </g>
    </g>
    <g id="xtick_5">
     <g id="line2d_9">
      <path d="M 513.880766 228.954713 
L 513.880766 17.061433 
" clip-path="url(#p7e915ecaea)" style="fill: none; stroke: #eef2f7; stroke-width: 0.55; stroke-linecap: square"/>
     </g>
     <g id="line2d_10">
      <g>
       <use xlink:href="#m044ec3d9fe" x="513.880766" y="228.954713" style="stroke: #000000; stroke-width: 0.8"/>
      </g>
     </g>
     <g id="text_5">
      <!-- 120 -->
      <g transform="translate(505.291391 242.793307) scale(0.09 -0.09)">
       <defs>
        <path id="DejaVuSans-32" d="M 1228 531 
L 3431 531 
L 3431 0 
L 469 0 
L 469 531 
Q 828 903 1448 1529 
Q 2069 2156 2228 2338 
Q 2531 2678 2651 2914 
Q 2772 3150 2772 3378 
Q 2772 3750 2511 3984 
Q 2250 4219 1831 4219 
Q 1534 4219 1204 4116 
Q 875 4013 500 3803 
L 500 4441 
Q 881 4594 1212 4672 
Q 1544 4750 1819 4750 
Q 2544 4750 2975 4387 
Q 3406 4025 3406 3419 
Q 3406 3131 3298 2873 
Q 3191 2616 2906 2266 
Q 2828 2175 2409 1742 
Q 1991 1309 1228 531 
z
" transform="scale(0.015625)"/>
       </defs>
       <use xlink:href="#DejaVuSans-31"/>
       <use xlink:href="#DejaVuSans-32" transform="translate(63.623047 0)"/>
       <use xlink:href="#DejaVuSans-30" transform="translate(127.246094 0)"/>
      </g>
     </g>
    </g>
    <g id="xtick_6">
     <g id="line2d_11">
      <path d="M 624.701216 228.954713 
L 624.701216 17.061433 
" clip-path="url(#p7e915ecaea)" style="fill: none; stroke: #eef2f7; stroke-width: 0.55; stroke-linecap: square"/>
     </g>
     <g id="line2d_12">
      <g>
       <use xlink:href="#m044ec3d9fe" x="624.701216" y="228.954713" style="stroke: #000000; stroke-width: 0.8"/>
      </g>
     </g>
     <g id="text_6">
      <!-- 140 -->
      <g transform="translate(616.111841 242.793307) scale(0.09 -0.09)">
       <use xlink:href="#DejaVuSans-31"/>
       <use xlink:href="#DejaVuSans-34" transform="translate(63.623047 0)"/>
       <use xlink:href="#DejaVuSans-30" transform="translate(127.246094 0)"/>
      </g>
     </g>
    </g>
    <g id="xtick_7">
     <g id="line2d_13">
      <path d="M 735.521666 228.954713 
L 735.521666 17.061433 
" clip-path="url(#p7e915ecaea)" style="fill: none; stroke: #eef2f7; stroke-width: 0.55; stroke-linecap: square"/>
     </g>
     <g id="line2d_14">
      <g>
       <use xlink:href="#m044ec3d9fe" x="735.521666" y="228.954713" style="stroke: #000000; stroke-width: 0.8"/>
      </g>
     </g>
     <g id="text_7">
      <!-- 160 -->
      <g transform="translate(726.932291 242.793307) scale(0.09 -0.09)">
       <use xlink:href="#DejaVuSans-31"/>
       <use xlink:href="#DejaVuSans-36" transform="translate(63.623047 0)"/>
       <use xlink:href="#DejaVuSans-30" transform="translate(127.246094 0)"/>
      </g>
     </g>
    </g>
    <g id="xtick_8">
     <g id="line2d_15">
      <path d="M 846.342116 228.954713 
L 846.342116 17.061433 
" clip-path="url(#p7e915ecaea)" style="fill: none; stroke: #eef2f7; stroke-width: 0.55; stroke-linecap: square"/>
     </g>
     <g id="line2d_16">
      <g>
       <use xlink:href="#m044ec3d9fe" x="846.342116" y="228.954713" style="stroke: #000000; stroke-width: 0.8"/>
      </g>
     </g>
     <g id="text_8">
      <!-- 180 -->
      <g transform="translate(837.752741 242.793307) scale(0.09 -0.09)">
       <use xlink:href="#DejaVuSans-31"/>
       <use xlink:href="#DejaVuSans-38" transform="translate(63.623047 0)"/>
       <use xlink:href="#DejaVuSans-30" transform="translate(127.246094 0)"/>
      </g>
     </g>
    </g>
    <g id="text_9">
     <!-- Minutes since session start -->
     <g transform="translate(426.897344 256.263463) scale(0.1 -0.1)">
      <defs>
       <path id="DejaVuSans-4d" d="M 628 4666 
L 1569 4666 
L 2759 1491 
L 3956 4666 
L 4897 4666 
L 4897 0 
L 4281 0 
L 4281 4097 
L 3078 897 
L 2444 897 
L 1241 4097 
L 1241 0 
L 628 0 
L 628 4666 
z
" transform="scale(0.015625)"/>
       <path id="DejaVuSans-69" d="M 603 3500 
L 1178 3500 
L 1178 0 
L 603 0 
L 603 3500 
z
M 603 4863 
L 1178 4863 
L 1178 4134 
L 603 4134 
L 603 4863 
z
" transform="scale(0.015625)"/>
       <path id="DejaVuSans-6e" d="M 3513 2113 
L 3513 0 
L 2938 0 
L 2938 2094 
Q 2938 2591 2744 2837 
Q 2550 3084 2163 3084 
Q 1697 3084 1428 2787 
Q 1159 2491 1159 1978 
L 1159 0 
L 581 0 
L 581 3500 
L 1159 3500 
L 1159 2956 
Q 1366 3272 1645 3428 
Q 1925 3584 2291 3584 
Q 2894 3584 3203 3211 
Q 3513 2838 3513 2113 
z
" transform="scale(0.015625)"/>
       <path id="DejaVuSans-75" d="M 544 1381 
L 544 3500 
L 1119 3500 
L 1119 1403 
Q 1119 906 1312 657 
Q 1506 409 1894 409 
Q 2359 409 2629 706 
Q 2900 1003 2900 1516 
L 2900 3500 
L 3475 3500 
L 3475 0 
L 2900 0 
L 2900 538 
Q 2691 219 2414 64 
Q 2138 -91 1772 -91 
Q 1169 -91 856 284 
Q 544 659 544 1381 
z
M 1991 3584 
L 1991 3584 
z
" transform="scale(0.015625)"/>
       <path id="DejaVuSans-74" d="M 1172 4494 
L 1172 3500 
L 2356 3500 
L 2356 3053 
L 1172 3053 
L 1172 1153 
Q 1172 725 1289 603 
Q 1406 481 1766 481 
L 2356 481 
L 2356 0 
L 1766 0 
Q 1100 0 847 248 
Q 594 497 594 1153 
L 594 3053 
L 172 3053 
L 172 3500 
L 594 3500 
L 594 4494 
L 1172 4494 
z
" transform="scale(0.015625)"/>
       <path id="DejaVuSans-65" d="M 3597 1894 
L 3597 1613 
L 953 1613 
Q 991 1019 1311 708 
Q 1631 397 2203 397 
Q 2534 397 2845 478 
Q 3156 559 3463 722 
L 3463 178 
Q 3153 47 2828 -22 
Q 2503 -91 2169 -91 
Q 1331 -91 842 396 
Q 353 884 353 1716 
Q 353 2575 817 3079 
Q 1281 3584 2069 3584 
Q 2775 3584 3186 3129 
Q 3597 2675 3597 1894 
z
M 3022 2063 
Q 3016 2534 2758 2815 
Q 2500 3097 2075 3097 
Q 1594 3097 1305 2825 
Q 1016 2553 972 2059 
L 3022 2063 
z
" transform="scale(0.015625)"/>
       <path id="DejaVuSans-73" d="M 2834 3397 
L 2834 2853 
Q 2591 2978 2328 3040 
Q 2066 3103 1784 3103 
Q 1356 3103 1142 2972 
Q 928 2841 928 2578 
Q 928 2378 1081 2264 
Q 1234 2150 1697 2047 
L 1894 2003 
Q 2506 1872 2764 1633 
Q 3022 1394 3022 966 
Q 3022 478 2636 193 
Q 2250 -91 1575 -91 
Q 1294 -91 989 -36 
Q 684 19 347 128 
L 347 722 
Q 666 556 975 473 
Q 1284 391 1588 391 
Q 1994 391 2212 530 
Q 2431 669 2431 922 
Q 2431 1156 2273 1281 
Q 2116 1406 1581 1522 
L 1381 1569 
Q 847 1681 609 1914 
Q 372 2147 372 2553 
Q 372 3047 722 3315 
Q 1072 3584 1716 3584 
Q 2034 3584 2315 3537 
Q 2597 3491 2834 3397 
z
" transform="scale(0.015625)"/>
       <path id="DejaVuSans-20" transform="scale(0.015625)"/>
       <path id="DejaVuSans-63" d="M 3122 3366 
L 3122 2828 
Q 2878 2963 2633 3030 
Q 2388 3097 2138 3097 
Q 1578 3097 1268 2742 
Q 959 2388 959 1747 
Q 959 1106 1268 751 
Q 1578 397 2138 397 
Q 2388 397 2633 464 
Q 2878 531 3122 666 
L 3122 134 
Q 2881 22 2623 -34 
Q 2366 -91 2075 -91 
Q 1284 -91 818 406 
Q 353 903 353 1747 
Q 353 2603 823 3093 
Q 1294 3584 2113 3584 
Q 2378 3584 2631 3529 
Q 2884 3475 3122 3366 
z
" transform="scale(0.015625)"/>
       <path id="DejaVuSans-6f" d="M 1959 3097 
Q 1497 3097 1228 2736 
Q 959 2375 959 1747 
Q 959 1119 1226 758 
Q 1494 397 1959 397 
Q 2419 397 2687 759 
Q 2956 1122 2956 1747 
Q 2956 2369 2687 2733 
Q 2419 3097 1959 3097 
z
M 1959 3584 
Q 2709 3584 3137 3096 
Q 3566 2609 3566 1747 
Q 3566 888 3137 398 
Q 2709 -91 1959 -91 
Q 1206 -91 779 398 
Q 353 888 353 1747 
Q 353 2609 779 3096 
Q 1206 3584 1959 3584 
z
" transform="scale(0.015625)"/>
       <path id="DejaVuSans-61" d="M 2194 1759 
Q 1497 1759 1228 1600 
Q 959 1441 959 1056 
Q 959 750 1161 570 
Q 1363 391 1709 391 
Q 2188 391 2477 730 
Q 2766 1069 2766 1631 
L 2766 1759 
L 2194 1759 
z
M 3341 1997 
L 3341 0 
L 2766 0 
L 2766 531 
Q 2569 213 2275 61 
Q 1981 -91 1556 -91 
Q 1019 -91 701 211 
Q 384 513 384 1019 
Q 384 1609 779 1909 
Q 1175 2209 1959 2209 
L 2766 2209 
L 2766 2266 
Q 2766 2663 2505 2880 
Q 2244 3097 1772 3097 
Q 1472 3097 1187 3025 
Q 903 2953 641 2809 
L 641 3341 
Q 956 3463 1253 3523 
Q 1550 3584 1831 3584 
Q 2591 3584 2966 3190 
Q 3341 2797 3341 1997 
z
" transform="scale(0.015625)"/>
       <path id="DejaVuSans-72" d="M 2631 2963 
Q 2534 3019 2420 3045 
Q 2306 3072 2169 3072 
Q 1681 3072 1420 2755 
Q 1159 2438 1159 1844 
L 1159 0 
L 581 0 
L 581 3500 
L 1159 3500 
L 1159 2956 
Q 1341 3275 1631 3429 
Q 1922 3584 2338 3584 
Q 2397 3584 2469 3576 
Q 2541 3569 2628 3553 
L 2631 2963 
z
" transform="scale(0.015625)"/>
      </defs>
      <use xlink:href="#DejaVuSans-4d"/>
      <use xlink:href="#DejaVuSans-69" transform="translate(86.279297 0)"/>
      <use xlink:href="#DejaVuSans-6e" transform="translate(114.0625 0)"/>
      <use xlink:href="#DejaVuSans-75" transform="translate(177.441406 0)"/>
      <use xlink:href="#DejaVuSans-74" transform="translate(240.820312 0)"/>
      <use xlink:href="#DejaVuSans-65" transform="translate(280.029297 0)"/>
      <use xlink:href="#DejaVuSans-73" transform="translate(341.552734 0)"/>
      <use xlink:href="#DejaVuSans-20" transform="translate(393.652344 0)"/>
      <use xlink:href="#DejaVuSans-73" transform="translate(425.439453 0)"/>
      <use xlink:href="#DejaVuSans-69" transform="translate(477.539062 0)"/>
      <use xlink:href="#DejaVuSans-6e" transform="translate(505.322266 0)"/>
      <use xlink:href="#DejaVuSans-63" transform="translate(568.701172 0)"/>
      <use xlink:href="#DejaVuSans-65" transform="translate(623.681641 0)"/>
      <use xlink:href="#DejaVuSans-20" transform="translate(685.205078 0)"/>
      <use xlink:href="#DejaVuSans-73" transform="translate(716.992188 0)"/>
      <use xlink:href="#DejaVuSans-65" transform="translate(769.091797 0)"/>
      <use xlink:href="#DejaVuSans-73" transform="translate(830.615234 0)"/>
      <use xlink:href="#DejaVuSans-73" transform="translate(882.714844 0)"/>
      <use xlink:href="#DejaVuSans-69" transform="translate(934.814453 0)"/>
      <use xlink:href="#DejaVuSans-6f" transform="translate(962.597656 0)"/>
      <use xlink:href="#DejaVuSans-6e" transform="translate(1023.779297 0)"/>
      <use xlink:href="#DejaVuSans-20" transform="translate(1087.158203 0)"/>
      <use xlink:href="#DejaVuSans-73" transform="translate(1118.945312 0)"/>
      <use xlink:href="#DejaVuSans-74" transform="translate(1171.044922 0)"/>
      <use xlink:href="#DejaVuSans-61" transform="translate(1210.253906 0)"/>
      <use xlink:href="#DejaVuSans-72" transform="translate(1271.533203 0)"/>
      <use xlink:href="#DejaVuSans-74" transform="translate(1312.646484 0)"/>
     </g>
    </g>
   </g>
   <g id="matplotlib.axis_2">
    <g id="ytick_1">
     <g id="line2d_17">
      <path d="M 53.643438 215.50874 
L 935.330937 215.50874 
" clip-path="url(#p7e915ecaea)" style="fill: none; stroke: #eef2f7; stroke-opacity: 0.25; stroke-width: 0.55; stroke-linecap: square"/>
     </g>
     <g id="line2d_18">
      <defs>
       <path id="m3cefe59133" d="M 0 0 
L -3.5 0 
" style="stroke: #000000; stroke-width: 0.8"/>
      </defs>
      <g>
       <use xlink:href="#m3cefe59133" x="53.643438" y="215.50874" style="stroke: #000000; stroke-width: 0.8"/>
      </g>
     </g>
     <g id="text_10">
      <!-- 28.50 -->
      <g transform="translate(20.878125 218.928036) scale(0.09 -0.09)">
       <defs>
        <path id="DejaVuSans-2e" d="M 684 794 
L 1344 794 
L 1344 0 
L 684 0 
L 684 794 
z
" transform="scale(0.015625)"/>
        <path id="DejaVuSans-35" d="M 691 4666 
L 3169 4666 
L 3169 4134 
L 1269 4134 
L 1269 2991 
Q 1406 3038 1543 3061 
Q 1681 3084 1819 3084 
Q 2600 3084 3056 2656 
Q 3513 2228 3513 1497 
Q 3513 744 3044 326 
Q 2575 -91 1722 -91 
Q 1428 -91 1123 -41 
Q 819 9 494 109 
L 494 744 
Q 775 591 1075 516 
Q 1375 441 1709 441 
Q 2250 441 2565 725 
Q 2881 1009 2881 1497 
Q 2881 1984 2565 2268 
Q 2250 2553 1709 2553 
Q 1456 2553 1204 2497 
Q 953 2441 691 2322 
L 691 4666 
z
" transform="scale(0.015625)"/>
       </defs>
       <use xlink:href="#DejaVuSans-32"/>
       <use xlink:href="#DejaVuSans-38" transform="translate(63.623047 0)"/>
       <use xlink:href="#DejaVuSans-2e" transform="translate(127.246094 0)"/>
       <use xlink:href="#DejaVuSans-35" transform="translate(159.033203 0)"/>
       <use xlink:href="#DejaVuSans-30" transform="translate(222.65625 0)"/>
      </g>
     </g>
    </g>
    <g id="ytick_2">
     <g id="line2d_19">
      <path d="M 53.643438 191.668362 
L 935.330937 191.668362 
" clip-path="url(#p7e915ecaea)" style="fill: none; stroke: #eef2f7; stroke-opacity: 0.25; stroke-width: 0.55; stroke-linecap: square"/>
     </g>
     <g id="line2d_20">
      <g>
       <use xlink:href="#m3cefe59133" x="53.643438" y="191.668362" style="stroke: #000000; stroke-width: 0.8"/>
      </g>
     </g>
     <g id="text_11">
      <!-- 28.75 -->
      <g transform="translate(20.878125 195.087658) scale(0.09 -0.09)">
       <defs>
        <path id="DejaVuSans-37" d="M 525 4666 
L 3525 4666 
L 3525 4397 
L 1831 0 
L 1172 0 
L 2766 4134 
L 525 4134 
L 525 4666 
z
" transform="scale(0.015625)"/>
       </defs>
       <use xlink:href="#DejaVuSans-32"/>
       <use xlink:href="#DejaVuSans-38" transform="translate(63.623047 0)"/>
       <use xlink:href="#DejaVuSans-2e" transform="translate(127.246094 0)"/>
       <use xlink:href="#DejaVuSans-37" transform="translate(159.033203 0)"/>
       <use xlink:href="#DejaVuSans-35" transform="translate(222.65625 0)"/>
      </g>
     </g>
    </g>
    <g id="ytick_3">
     <g id="line2d_21">
      <path d="M 53.643438 167.827984 
L 935.330937 167.827984 
" clip-path="url(#p7e915ecaea)" style="fill: none; stroke: #eef2f7; stroke-opacity: 0.25; stroke-width: 0.55; stroke-linecap: square"/>
     </g>
     <g id="line2d_22">
      <g>
       <use xlink:href="#m3cefe59133" x="53.643438" y="167.827984" style="stroke: #000000; stroke-width: 0.8"/>
      </g>
     </g>
     <g id="text_12">
      <!-- 29.00 -->
      <g transform="translate(20.878125 171.24728) scale(0.09 -0.09)">
       <defs>
        <path id="DejaVuSans-39" d="M 703 97 
L 703 672 
Q 941 559 1184 500 
Q 1428 441 1663 441 
Q 2288 441 2617 861 
Q 2947 1281 2994 2138 
Q 2813 1869 2534 1725 
Q 2256 1581 1919 1581 
Q 1219 1581 811 2004 
Q 403 2428 403 3163 
Q 403 3881 828 4315 
Q 1253 4750 1959 4750 
Q 2769 4750 3195 4129 
Q 3622 3509 3622 2328 
Q 3622 1225 3098 567 
Q 2575 -91 1691 -91 
Q 1453 -91 1209 -44 
Q 966 3 703 97 
z
M 1959 2075 
Q 2384 2075 2632 2365 
Q 2881 2656 2881 3163 
Q 2881 3666 2632 3958 
Q 2384 4250 1959 4250 
Q 1534 4250 1286 3958 
Q 1038 3666 1038 3163 
Q 1038 2656 1286 2365 
Q 1534 2075 1959 2075 
z
" transform="scale(0.015625)"/>
       </defs>
       <use xlink:href="#DejaVuSans-32"/>
       <use xlink:href="#DejaVuSans-39" transform="translate(63.623047 0)"/>
       <use xlink:href="#DejaVuSans-2e" transform="translate(127.246094 0)"/>
       <use xlink:href="#DejaVuSans-30" transform="translate(159.033203 0)"/>
       <use xlink:href="#DejaVuSans-30" transform="translate(222.65625 0)"/>
      </g>
     </g>
    </g>
    <g id="ytick_4">
     <g id="line2d_23">
      <path d="M 53.643438 143.987605 
L 935.330937 143.987605 
" clip-path="url(#p7e915ecaea)" style="fill: none; stroke: #eef2f7; stroke-opacity: 0.25; stroke-width: 0.55; stroke-linecap: square"/>
     </g>
     <g id="line2d_24">
      <g>
       <use xlink:href="#m3cefe59133" x="53.643438" y="143.987605" style="stroke: #000000; stroke-width: 0.8"/>
      </g>
     </g>
     <g id="text_13">
      <!-- 29.25 -->
      <g transform="translate(20.878125 147.406902) scale(0.09 -0.09)">
       <use xlink:href="#DejaVuSans-32"/>
       <use xlink:href="#DejaVuSans-39" transform="translate(63.623047 0)"/>
       <use xlink:href="#DejaVuSans-2e" transform="translate(127.246094 0)"/>
       <use xlink:href="#DejaVuSans-32" transform="translate(159.033203 0)"/>
       <use xlink:href="#DejaVuSans-35" transform="translate(222.65625 0)"/>
      </g>
     </g>
    </g>
    <g id="ytick_5">
     <g id="line2d_25">
      <path d="M 53.643438 120.147227 
L 935.330937 120.147227 
" clip-path="url(#p7e915ecaea)" style="fill: none; stroke: #eef2f7; stroke-opacity: 0.25; stroke-width: 0.55; stroke-linecap: square"/>
     </g>
     <g id="line2d_26">
      <g>
       <use xlink:href="#m3cefe59133" x="53.643438" y="120.147227" style="stroke: #000000; stroke-width: 0.8"/>
      </g>
     </g>
     <g id="text_14">
      <!-- 29.50 -->
      <g transform="translate(20.878125 123.566524) scale(0.09 -0.09)">
       <use xlink:href="#DejaVuSans-32"/>
       <use xlink:href="#DejaVuSans-39" transform="translate(63.623047 0)"/>
       <use xlink:href="#DejaVuSans-2e" transform="translate(127.246094 0)"/>
       <use xlink:href="#DejaVuSans-35" transform="translate(159.033203 0)"/>
       <use xlink:href="#DejaVuSans-30" transform="translate(222.65625 0)"/>
      </g>
     </g>
    </g>
    <g id="ytick_6">
     <g id="line2d_27">
      <path d="M 53.643438 96.306849 
L 935.330937 96.306849 
" clip-path="url(#p7e915ecaea)" style="fill: none; stroke: #eef2f7; stroke-opacity: 0.25; stroke-width: 0.55; stroke-linecap: square"/>
     </g>
     <g id="line2d_28">
      <g>
       <use xlink:href="#m3cefe59133" x="53.643438" y="96.306849" style="stroke: #000000; stroke-width: 0.8"/>
      </g>
     </g>
     <g id="text_15">
      <!-- 29.75 -->
      <g transform="translate(20.878125 99.726146) scale(0.09 -0.09)">
       <use xlink:href="#DejaVuSans-32"/>
       <use xlink:href="#DejaVuSans-39" transform="translate(63.623047 0)"/>
       <use xlink:href="#DejaVuSans-2e" transform="translate(127.246094 0)"/>
       <use xlink:href="#DejaVuSans-37" transform="translate(159.033203 0)"/>
       <use xlink:href="#DejaVuSans-35" transform="translate(222.65625 0)"/>
      </g>
     </g>
    </g>
    <g id="ytick_7">
     <g id="line2d_29">
      <path d="M 53.643438 72.466471 
L 935.330937 72.466471 
" clip-path="url(#p7e915ecaea)" style="fill: none; stroke: #eef2f7; stroke-opacity: 0.25; stroke-width: 0.55; stroke-linecap: square"/>
     </g>
     <g id="line2d_30">
      <g>
       <use xlink:href="#m3cefe59133" x="53.643438" y="72.466471" style="stroke: #000000; stroke-width: 0.8"/>
      </g>
     </g>
     <g id="text_16">
      <!-- 30.00 -->
      <g transform="translate(20.878125 75.885768) scale(0.09 -0.09)">
       <defs>
        <path id="DejaVuSans-33" d="M 2597 2516 
Q 3050 2419 3304 2112 
Q 3559 1806 3559 1356 
Q 3559 666 3084 287 
Q 2609 -91 1734 -91 
Q 1441 -91 1130 -33 
Q 819 25 488 141 
L 488 750 
Q 750 597 1062 519 
Q 1375 441 1716 441 
Q 2309 441 2620 675 
Q 2931 909 2931 1356 
Q 2931 1769 2642 2001 
Q 2353 2234 1838 2234 
L 1294 2234 
L 1294 2753 
L 1863 2753 
Q 2328 2753 2575 2939 
Q 2822 3125 2822 3475 
Q 2822 3834 2567 4026 
Q 2313 4219 1838 4219 
Q 1578 4219 1281 4162 
Q 984 4106 628 3988 
L 628 4550 
Q 988 4650 1302 4700 
Q 1616 4750 1894 4750 
Q 2613 4750 3031 4423 
Q 3450 4097 3450 3541 
Q 3450 3153 3228 2886 
Q 3006 2619 2597 2516 
z
" transform="scale(0.015625)"/>
       </defs>
       <use xlink:href="#DejaVuSans-33"/>
       <use xlink:href="#DejaVuSans-30" transform="translate(63.623047 0)"/>
       <use xlink:href="#DejaVuSans-2e" transform="translate(127.246094 0)"/>
       <use xlink:href="#DejaVuSans-30" transform="translate(159.033203 0)"/>
       <use xlink:href="#DejaVuSans-30" transform="translate(222.65625 0)"/>
      </g>
     </g>
    </g>
    <g id="ytick_8">
     <g id="line2d_31">
      <path d="M 53.643438 48.626093 
L 935.330937 48.626093 
" clip-path="url(#p7e915ecaea)" style="fill: none; stroke: #eef2f7; stroke-opacity: 0.25; stroke-width: 0.55; stroke-linecap: square"/>
     </g>
     <g id="line2d_32">
      <g>
       <use xlink:href="#m3cefe59133" x="53.643438" y="48.626093" style="stroke: #000000; stroke-width: 0.8"/>
      </g>
     </g>
     <g id="text_17">
      <!-- 30.25 -->
      <g transform="translate(20.878125 52.04539) scale(0.09 -0.09)">
       <use xlink:href="#DejaVuSans-33"/>
       <use xlink:href="#DejaVuSans-30" transform="translate(63.623047 0)"/>
       <use xlink:href="#DejaVuSans-2e" transform="translate(127.246094 0)"/>
       <use xlink:href="#DejaVuSans-32" transform="translate(159.033203 0)"/>
       <use xlink:href="#DejaVuSans-35" transform="translate(222.65625 0)"/>
      </g>
     </g>
    </g>
    <g id="ytick_9">
     <g id="line2d_33">
      <path d="M 53.643438 24.785715 
L 935.330937 24.785715 
" clip-path="url(#p7e915ecaea)" style="fill: none; stroke: #eef2f7; stroke-opacity: 0.25; stroke-width: 0.55; stroke-linecap: square"/>
     </g>
     <g id="line2d_34">
      <g>
       <use xlink:href="#m3cefe59133" x="53.643438" y="24.785715" style="stroke: #000000; stroke-width: 0.8"/>
      </g>
     </g>
     <g id="text_18">
      <!-- 30.50 -->
      <g transform="translate(20.878125 28.205012) scale(0.09 -0.09)">
       <use xlink:href="#DejaVuSans-33"/>
       <use xlink:href="#DejaVuSans-30" transform="translate(63.623047 0)"/>
       <use xlink:href="#DejaVuSans-2e" transform="translate(127.246094 0)"/>
       <use xlink:href="#DejaVuSans-35" transform="translate(159.033203 0)"/>
       <use xlink:href="#DejaVuSans-30" transform="translate(222.65625 0)"/>
      </g>
     </g>
    </g>
    <g id="text_19">
     <!-- Temperature (C) -->
     <g transform="translate(14.798438 163.659635) rotate(-90) scale(0.1 -0.1)">
      <defs>
       <path id="DejaVuSans-54" d="M -19 4666 
L 3928 4666 
L 3928 4134 
L 2272 4134 
L 2272 0 
L 1638 0 
L 1638 4134 
L -19 4134 
L -19 4666 
z
" transform="scale(0.015625)"/>
       <path id="DejaVuSans-6d" d="M 3328 2828 
Q 3544 3216 3844 3400 
Q 4144 3584 4550 3584 
Q 5097 3584 5394 3201 
Q 5691 2819 5691 2113 
L 5691 0 
L 5113 0 
L 5113 2094 
Q 5113 2597 4934 2840 
Q 4756 3084 4391 3084 
Q 3944 3084 3684 2787 
Q 3425 2491 3425 1978 
L 3425 0 
L 2847 0 
L 2847 2094 
Q 2847 2600 2669 2842 
Q 2491 3084 2119 3084 
Q 1678 3084 1418 2786 
Q 1159 2488 1159 1978 
L 1159 0 
L 581 0 
L 581 3500 
L 1159 3500 
L 1159 2956 
Q 1356 3278 1631 3431 
Q 1906 3584 2284 3584 
Q 2666 3584 2933 3390 
Q 3200 3197 3328 2828 
z
" transform="scale(0.015625)"/>
       <path id="DejaVuSans-70" d="M 1159 525 
L 1159 -1331 
L 581 -1331 
L 581 3500 
L 1159 3500 
L 1159 2969 
Q 1341 3281 1617 3432 
Q 1894 3584 2278 3584 
Q 2916 3584 3314 3078 
Q 3713 2572 3713 1747 
Q 3713 922 3314 415 
Q 2916 -91 2278 -91 
Q 1894 -91 1617 61 
Q 1341 213 1159 525 
z
M 3116 1747 
Q 3116 2381 2855 2742 
Q 2594 3103 2138 3103 
Q 1681 3103 1420 2742 
Q 1159 2381 1159 1747 
Q 1159 1113 1420 752 
Q 1681 391 2138 391 
Q 2594 391 2855 752 
Q 3116 1113 3116 1747 
z
" transform="scale(0.015625)"/>
       <path id="DejaVuSans-28" d="M 1984 4856 
Q 1566 4138 1362 3434 
Q 1159 2731 1159 2009 
Q 1159 1288 1364 580 
Q 1569 -128 1984 -844 
L 1484 -844 
Q 1016 -109 783 600 
Q 550 1309 550 2009 
Q 550 2706 781 3412 
Q 1013 4119 1484 4856 
L 1984 4856 
z
" transform="scale(0.015625)"/>
       <path id="DejaVuSans-43" d="M 4122 4306 
L 4122 3641 
Q 3803 3938 3442 4084 
Q 3081 4231 2675 4231 
Q 1875 4231 1450 3742 
Q 1025 3253 1025 2328 
Q 1025 1406 1450 917 
Q 1875 428 2675 428 
Q 3081 428 3442 575 
Q 3803 722 4122 1019 
L 4122 359 
Q 3791 134 3420 21 
Q 3050 -91 2638 -91 
Q 1578 -91 968 557 
Q 359 1206 359 2328 
Q 359 3453 968 4101 
Q 1578 4750 2638 4750 
Q 3056 4750 3426 4639 
Q 3797 4528 4122 4306 
z
" transform="scale(0.015625)"/>
       <path id="DejaVuSans-29" d="M 513 4856 
L 1013 4856 
Q 1481 4119 1714 3412 
Q 1947 2706 1947 2009 
Q 1947 1309 1714 600 
Q 1481 -109 1013 -844 
L 513 -844 
Q 928 -128 1133 580 
Q 1338 1288 1338 2009 
Q 1338 2731 1133 3434 
Q 928 4138 513 4856 
z
" transform="scale(0.015625)"/>
      </defs>
      <use xlink:href="#DejaVuSans-54"/>
      <use xlink:href="#DejaVuSans-65" transform="translate(44.083984 0)"/>
      <use xlink:href="#DejaVuSans-6d" transform="translate(105.607422 0)"/>
      <use xlink:href="#DejaVuSans-70" transform="translate(203.019531 0)"/>
      <use xlink:href="#DejaVuSans-65" transform="translate(266.496094 0)"/>
      <use xlink:href="#DejaVuSans-72" transform="translate(328.019531 0)"/>
      <use xlink:href="#DejaVuSans-61" transform="translate(369.132812 0)"/>
      <use xlink:href="#DejaVuSans-74" transform="translate(430.412109 0)"/>
      <use xlink:href="#DejaVuSans-75" transform="translate(469.621094 0)"/>
      <use xlink:href="#DejaVuSans-72" transform="translate(533 0)"/>
      <use xlink:href="#DejaVuSans-65" transform="translate(571.863281 0)"/>
      <use xlink:href="#DejaVuSans-20" transform="translate(633.386719 0)"/>
      <use xlink:href="#DejaVuSans-28" transform="translate(665.173828 0)"/>
      <use xlink:href="#DejaVuSans-43" transform="translate(704.1875 0)"/>
      <use xlink:href="#DejaVuSans-29" transform="translate(774.011719 0)"/>
     </g>
    </g>
   </g>
   <g id="line2d_35">
    <path d="M 70.598966 62.93032 
L 76.139989 64.83755 
L 87.222034 71.512856 
L 92.763056 68.652011 
L 98.304079 61.976705 
L 109.386124 69.605626 
L 114.927146 68.652011 
L 120.468169 69.605626 
L 126.009191 68.652011 
L 131.550214 66.744781 
L 134.320725 69.605626 
L 137.091236 71.512856 
L 142.632259 82.002623 
L 148.173281 77.234547 
L 153.714304 73.420086 
L 164.796349 73.420086 
L 170.337371 76.280932 
L 175.878394 76.280932 
L 181.419416 73.420086 
L 186.960439 62.93032 
L 192.501461 72.466471 
L 198.042484 71.512856 
L 203.583506 71.512856 
L 209.124529 70.559241 
L 220.206574 79.141777 
L 225.747596 75.327317 
L 231.288619 67.698396 
L 236.829641 57.208629 
L 242.370664 71.512856 
L 253.452709 77.234547 
L 258.993731 73.420086 
L 264.534754 67.698396 
L 270.075776 72.466471 
L 275.616799 73.420086 
L 281.157821 70.559241 
L 286.698844 70.559241 
L 292.239866 68.652011 
L 297.780889 71.512856 
L 303.321911 67.698396 
L 308.862934 74.373702 
L 314.403956 71.512856 
L 319.944979 74.373702 
L 325.486001 74.373702 
L 331.027024 75.327317 
L 336.568046 70.559241 
L 342.109069 71.512856 
L 347.650091 76.280932 
L 353.191114 74.373702 
L 358.732136 75.327317 
L 364.273159 70.559241 
L 369.814181 74.373702 
L 375.355204 75.327317 
L 380.896226 81.049007 
L 386.437249 80.095392 
L 391.978271 82.956238 
L 403.060316 77.234547 
L 408.601339 81.049007 
L 419.683384 75.327317 
L 425.224406 74.373702 
L 430.765429 82.956238 
L 436.306451 67.698396 
L 441.847474 65.791166 
L 444.617985 71.512856 
L 447.388496 78.188162 
L 452.929519 82.956238 
L 458.470541 81.049007 
L 464.011564 82.002623 
L 469.552586 84.863468 
L 475.093609 85.817083 
L 480.634631 84.863468 
L 486.175654 84.863468 
L 491.716676 76.280932 
L 502.798721 82.002623 
L 508.339744 80.095392 
L 513.880766 88.677928 
L 519.421789 85.817083 
L 530.503834 76.280932 
L 536.044856 78.188162 
L 541.585879 76.280932 
L 547.126901 65.791166 
L 552.667924 84.863468 
L 558.208946 82.956238 
L 563.749969 87.724313 
L 569.290991 85.817083 
L 574.832014 90.585159 
L 580.373036 87.724313 
L 585.914059 95.353234 
L 591.455081 99.167695 
L 596.996104 98.21408 
L 602.537126 99.167695 
L 613.619171 97.260465 
L 619.160194 95.353234 
L 624.701216 94.399619 
L 630.242239 99.167695 
L 635.783261 98.21408 
L 641.324284 100.12131 
L 646.865306 100.12131 
L 652.406329 104.889385 
L 657.947351 100.12131 
L 663.488374 99.167695 
L 669.029396 101.074925 
L 674.570419 105.843001 
L 685.652464 108.703846 
L 691.193486 102.982155 
L 696.734509 107.750231 
L 702.275531 105.843001 
L 707.816554 106.796616 
L 713.357576 111.564691 
L 718.898599 102.02854 
L 724.439621 103.93577 
L 729.980644 113.471922 
L 735.521666 104.889385 
L 741.062689 109.657461 
L 746.603711 89.631544 
L 752.144734 99.167695 
L 757.685756 104.889385 
L 763.226779 115.379152 
L 768.767801 109.657461 
L 774.308824 110.611076 
L 779.849846 114.425537 
L 796.472914 114.425537 
L 802.013936 103.93577 
L 807.554959 105.843001 
L 813.095981 108.703846 
L 818.637004 110.611076 
L 824.178026 108.703846 
L 829.719049 102.982155 
L 846.342116 105.843001 
L 851.883139 102.02854 
L 857.424161 92.492389 
L 862.965184 99.167695 
L 868.506206 103.93577 
L 874.047229 104.889385 
L 879.588251 106.796616 
L 885.129274 111.564691 
L 890.670296 102.02854 
L 896.211319 106.796616 
L 901.752341 104.889385 
L 907.293364 108.703846 
L 918.375409 104.889385 
L 918.375409 104.889385 
" clip-path="url(#p7e915ecaea)" style="fill: none; stroke: #fdc38d; stroke-opacity: 0.95; stroke-width: 0.936; stroke-linecap: square"/>
   </g>
   <g id="line2d_36">
    <path d="M 70.598966 82.956238 
L 76.139989 91.538774 
L 87.222034 89.631544 
L 92.763056 87.724313 
L 98.304079 80.095392 
L 103.845101 77.234547 
L 109.386124 82.956238 
L 114.927146 82.002623 
L 120.468169 83.909853 
L 126.009191 80.095392 
L 131.550214 91.538774 
L 137.091236 93.446004 
L 142.632259 102.982155 
L 148.173281 92.492389 
L 153.714304 99.167695 
L 159.255326 100.12131 
L 164.796349 93.446004 
L 170.337371 96.306849 
L 175.878394 102.982155 
L 181.419416 90.585159 
L 186.960439 88.677928 
L 192.501461 83.909853 
L 203.583506 85.817083 
L 209.124529 81.049007 
L 220.206574 82.956238 
L 225.747596 82.002623 
L 231.288619 80.095392 
L 236.829641 75.327317 
L 242.370664 88.677928 
L 253.452709 94.399619 
L 258.993731 85.817083 
L 264.534754 88.677928 
L 270.075776 100.12131 
L 281.157821 88.677928 
L 286.698844 89.631544 
L 292.239866 89.631544 
L 297.780889 93.446004 
L 303.321911 96.306849 
L 308.862934 92.492389 
L 314.403956 91.538774 
L 319.944979 99.167695 
L 325.486001 97.260465 
L 331.027024 97.260465 
L 336.568046 101.074925 
L 342.109069 89.631544 
L 347.650091 92.492389 
L 353.191114 108.703846 
L 358.732136 110.611076 
L 364.273159 100.12131 
L 369.814181 100.12131 
L 375.355204 96.306849 
L 380.896226 97.260465 
L 386.437249 102.02854 
L 391.978271 107.750231 
L 403.060316 101.074925 
L 408.601339 90.585159 
L 414.142361 93.446004 
L 419.683384 92.492389 
L 425.224406 95.353234 
L 430.765429 95.353234 
L 436.306451 86.770698 
L 441.847474 93.446004 
L 447.388496 102.982155 
L 452.929519 100.12131 
L 458.470541 104.889385 
L 464.011564 101.074925 
L 469.552586 101.074925 
L 475.093609 109.657461 
L 480.634631 106.796616 
L 486.175654 107.750231 
L 491.716676 94.399619 
L 497.257699 90.585159 
L 502.798721 88.677928 
L 508.339744 96.306849 
L 513.880766 94.399619 
L 519.421789 90.585159 
L 530.503834 101.074925 
L 536.044856 92.492389 
L 541.585879 99.167695 
L 547.126901 88.677928 
L 552.667924 104.889385 
L 558.208946 105.843001 
L 563.749969 102.02854 
L 569.290991 113.471922 
L 574.832014 114.425537 
L 580.373036 103.93577 
L 583.143547 107.750231 
L 585.914059 110.611076 
L 591.455081 107.750231 
L 596.996104 115.379152 
L 602.537126 119.193612 
L 608.078149 114.425537 
L 613.619171 117.286382 
L 619.160194 119.193612 
L 624.701216 111.564691 
L 630.242239 115.379152 
L 635.783261 113.471922 
L 641.324284 122.054458 
L 646.865306 120.147227 
L 657.947351 122.054458 
L 663.488374 125.868918 
L 669.029396 123.961688 
L 674.570419 123.961688 
L 685.652464 125.868918 
L 691.193486 120.147227 
L 696.734509 128.729764 
L 702.275531 131.590609 
L 707.816554 125.868918 
L 713.357576 126.822533 
L 718.898599 118.239997 
L 724.439621 117.286382 
L 729.980644 124.915303 
L 735.521666 121.100843 
L 741.062689 121.100843 
L 746.603711 107.750231 
L 752.144734 122.054458 
L 754.915245 125.868918 
L 757.685756 130.636994 
L 763.226779 130.636994 
L 768.767801 128.729764 
L 774.308824 128.729764 
L 779.849846 131.590609 
L 790.931891 135.405069 
L 796.472914 135.405069 
L 802.013936 120.147227 
L 807.554959 122.054458 
L 813.095981 128.729764 
L 818.637004 126.822533 
L 824.178026 125.868918 
L 829.719049 123.961688 
L 840.801094 121.100843 
L 846.342116 120.147227 
L 851.883139 110.611076 
L 857.424161 112.518306 
L 862.965184 122.054458 
L 868.506206 126.822533 
L 874.047229 121.100843 
L 879.588251 121.100843 
L 885.129274 129.683379 
L 896.211319 129.683379 
L 901.752341 123.961688 
L 907.293364 122.054458 
L 912.834386 124.915303 
L 918.375409 129.683379 
L 918.375409 129.683379 
" clip-path="url(#p7e915ecaea)" style="fill: none; stroke: #fdac67; stroke-opacity: 0.95; stroke-width: 0.936; stroke-linecap: square"/>
   </g>
   <g id="line2d_37">
    <path d="M 70.598966 189.761131 
L 76.139989 185.946671 
L 87.222034 199.297283 
L 92.763056 151.616526 
L 98.304079 154.477372 
L 103.845101 152.570142 
L 109.386124 142.080375 
L 114.927146 132.544224 
L 120.468169 135.405069 
L 126.009191 146.848451 
L 131.550214 155.430987 
L 137.091236 163.059908 
L 142.632259 181.178595 
L 148.173281 190.714746 
L 153.714304 193.575592 
L 159.255326 166.874368 
L 164.796349 180.22498 
L 170.337371 195.482822 
L 175.878394 186.900286 
L 181.419416 157.338217 
L 186.960439 142.080375 
L 192.501461 135.405069 
L 198.042484 117.286382 
L 203.583506 115.379152 
L 209.124529 120.147227 
L 220.206574 108.703846 
L 225.747596 122.054458 
L 231.288619 109.657461 
L 236.829641 125.868918 
L 242.370664 148.755681 
L 247.911686 173.549674 
L 253.452709 180.22498 
L 258.993731 181.178595 
L 264.534754 156.384602 
L 270.075776 165.920753 
L 275.616799 176.41052 
L 281.157821 167.827984 
L 286.698844 143.987605 
L 292.239866 157.338217 
L 297.780889 178.31775 
L 303.321911 170.688829 
L 308.862934 177.364135 
L 319.944979 169.735214 
L 325.486001 177.364135 
L 331.027024 171.642444 
L 336.568046 190.714746 
L 342.109069 177.364135 
L 347.650091 139.21953 
L 353.191114 168.781599 
L 358.732136 176.41052 
L 364.273159 158.291832 
L 369.814181 184.039441 
L 375.355204 191.668362 
L 380.896226 189.761131 
L 386.437249 182.13221 
L 391.978271 184.039441 
L 403.060316 170.688829 
L 408.601339 153.523757 
L 414.142361 137.3123 
L 419.683384 119.193612 
L 425.224406 121.100843 
L 430.765429 131.590609 
L 436.306451 145.894836 
L 441.847474 147.802066 
L 444.617985 157.338217 
L 447.388496 165.920753 
L 452.929519 180.22498 
L 458.470541 181.178595 
L 464.011564 180.22498 
L 469.552586 186.900286 
L 475.093609 151.616526 
L 480.634631 185.946671 
L 486.175654 194.529207 
L 491.716676 147.802066 
L 497.257699 140.173145 
L 502.798721 136.358685 
L 508.339744 129.683379 
L 513.880766 111.564691 
L 519.421789 119.193612 
L 530.503834 123.961688 
L 536.044856 128.729764 
L 541.585879 110.611076 
L 547.126901 132.544224 
L 552.667924 164.967138 
L 558.208946 168.781599 
L 563.749969 165.920753 
L 569.290991 191.668362 
L 574.832014 176.41052 
L 580.373036 171.642444 
L 585.914059 173.549674 
L 591.455081 158.291832 
L 596.996104 184.993056 
L 602.537126 195.482822 
L 608.078149 196.436437 
L 613.619171 192.621977 
L 619.160194 198.343667 
L 624.701216 183.085825 
L 630.242239 181.178595 
L 635.783261 171.642444 
L 641.324284 181.178595 
L 646.865306 200.250898 
L 652.406329 191.668362 
L 657.947351 195.482822 
L 663.488374 195.482822 
L 669.029396 203.111743 
L 674.570419 198.343667 
L 685.652464 184.993056 
L 691.193486 201.204513 
L 696.734509 186.900286 
L 702.275531 195.482822 
L 707.816554 194.529207 
L 713.357576 190.714746 
L 718.898599 168.781599 
L 724.439621 163.059908 
L 729.980644 139.21953 
L 735.521666 159.245447 
L 741.062689 148.755681 
L 746.603711 152.570142 
L 752.144734 149.709296 
L 757.685756 178.31775 
L 763.226779 194.529207 
L 768.767801 219.3232 
L 774.308824 180.22498 
L 779.849846 216.462355 
L 785.390869 196.436437 
L 790.931891 208.833434 
L 796.472914 163.059908 
L 802.013936 170.688829 
L 807.554959 159.245447 
L 813.095981 143.987605 
L 818.637004 140.173145 
L 824.178026 147.802066 
L 829.719049 142.080375 
L 840.801094 149.709296 
L 846.342116 146.848451 
L 851.883139 147.802066 
L 857.424161 174.503289 
L 862.965184 162.106293 
L 868.506206 193.575592 
L 874.047229 201.204513 
L 879.588251 193.575592 
L 890.670296 201.204513 
L 896.211319 196.436437 
L 901.752341 201.204513 
L 907.293364 194.529207 
L 912.834386 206.926203 
L 918.375409 216.462355 
L 918.375409 216.462355 
" clip-path="url(#p7e915ecaea)" style="fill: none; stroke: #fd9547; stroke-opacity: 0.95; stroke-width: 0.936; stroke-linecap: square"/>
   </g>
   <g id="line2d_38">
    <path d="M 70.598966 40.043557 
L 76.139989 50.533324 
L 87.222034 53.394169 
L 92.763056 61.976705 
L 98.304079 61.02309 
L 103.845101 69.605626 
L 109.386124 69.605626 
L 114.927146 74.373702 
L 120.468169 72.466471 
L 126.009191 51.486939 
L 131.550214 44.811633 
L 137.091236 48.626093 
L 148.173281 52.440554 
L 153.714304 56.255014 
L 159.255326 54.347784 
L 164.796349 53.394169 
L 170.337371 53.394169 
L 175.878394 48.626093 
L 181.419416 59.11586 
L 186.960439 73.420086 
L 192.501461 77.234547 
L 198.042484 72.466471 
L 203.583506 74.373702 
L 209.124529 64.83755 
L 220.206574 48.626093 
L 225.747596 45.765248 
L 231.288619 44.811633 
L 236.829641 41.950787 
L 242.370664 51.486939 
L 247.911686 47.672478 
L 253.452709 58.162245 
L 258.993731 47.672478 
L 264.534754 47.672478 
L 270.075776 40.997172 
L 275.616799 52.440554 
L 281.157821 41.950787 
L 286.698844 45.765248 
L 292.239866 52.440554 
L 297.780889 37.182712 
L 303.321911 55.301399 
L 308.862934 51.486939 
L 314.403956 53.394169 
L 319.944979 46.718863 
L 325.486001 52.440554 
L 331.027024 46.718863 
L 336.568046 48.626093 
L 342.109069 45.765248 
L 347.650091 52.440554 
L 353.191114 51.486939 
L 358.732136 62.93032 
L 364.273159 52.440554 
L 369.814181 57.208629 
L 375.355204 51.486939 
L 380.896226 56.255014 
L 386.437249 47.672478 
L 391.978271 55.301399 
L 403.060316 47.672478 
L 408.601339 54.347784 
L 414.142361 66.744781 
L 419.683384 67.698396 
L 425.224406 65.791166 
L 430.765429 52.440554 
L 436.306451 46.718863 
L 441.847474 47.672478 
L 444.617985 46.718863 
L 447.388496 44.811633 
L 452.929519 57.208629 
L 458.470541 57.208629 
L 464.011564 56.255014 
L 469.552586 59.11586 
L 475.093609 52.440554 
L 480.634631 51.486939 
L 486.175654 62.93032 
L 491.716676 64.83755 
L 497.257699 61.02309 
L 502.798721 55.301399 
L 508.339744 48.626093 
L 513.880766 44.811633 
L 519.421789 26.692946 
L 530.503834 34.321866 
L 536.044856 40.043557 
L 541.585879 43.858018 
L 547.126901 54.347784 
L 552.667924 65.791166 
L 558.208946 65.791166 
L 563.749969 69.605626 
L 569.290991 62.93032 
L 580.373036 61.02309 
L 583.143547 64.83755 
L 585.914059 69.605626 
L 591.455081 73.420086 
L 596.996104 74.373702 
L 602.537126 70.559241 
L 608.078149 81.049007 
L 613.619171 66.744781 
L 619.160194 62.93032 
L 624.701216 58.162245 
L 630.242239 59.11586 
L 635.783261 61.02309 
L 641.324284 68.652011 
L 646.865306 72.466471 
L 652.406329 80.095392 
L 657.947351 60.069475 
L 663.488374 69.605626 
L 669.029396 75.327317 
L 674.570419 79.141777 
L 685.652464 76.280932 
L 691.193486 77.234547 
L 696.734509 87.724313 
L 702.275531 74.373702 
L 707.816554 76.280932 
L 713.357576 77.234547 
L 718.898599 103.93577 
L 724.439621 77.234547 
L 729.980644 74.373702 
L 735.521666 77.234547 
L 741.062689 61.976705 
L 746.603711 66.744781 
L 752.144734 89.631544 
L 754.915245 84.863468 
L 757.685756 81.049007 
L 763.226779 93.446004 
L 768.767801 96.306849 
L 779.849846 90.585159 
L 785.390869 93.446004 
L 790.931891 79.141777 
L 796.472914 87.724313 
L 802.013936 102.02854 
L 807.554959 88.677928 
L 813.095981 78.188162 
L 818.637004 73.420086 
L 824.178026 69.605626 
L 829.719049 63.883935 
L 840.801094 69.605626 
L 846.342116 46.718863 
L 851.883139 60.069475 
L 857.424161 61.02309 
L 862.965184 72.466471 
L 868.506206 78.188162 
L 874.047229 74.373702 
L 879.588251 72.466471 
L 885.129274 74.373702 
L 887.899785 80.095392 
L 890.670296 86.770698 
L 896.211319 74.373702 
L 901.752341 78.188162 
L 907.293364 79.141777 
L 912.834386 70.559241 
L 918.375409 79.141777 
L 918.375409 79.141777 
" clip-path="url(#p7e915ecaea)" style="fill: none; stroke: #f87d29; stroke-opacity: 0.95; stroke-width: 0.936; stroke-linecap: square"/>
   </g>
   <g id="line2d_39">
    <path d="M 70.598966 107.750231 
L 76.139989 101.074925 
L 87.222034 104.889385 
L 92.763056 94.399619 
L 98.304079 87.724313 
L 103.845101 80.095392 
L 109.386124 85.817083 
L 114.927146 84.863468 
L 120.468169 81.049007 
L 126.009191 81.049007 
L 131.550214 105.843001 
L 134.320725 109.657461 
L 137.091236 112.518306 
L 142.632259 103.93577 
L 148.173281 109.657461 
L 153.714304 108.703846 
L 159.255326 112.518306 
L 164.796349 109.657461 
L 170.337371 108.703846 
L 175.878394 103.93577 
L 181.419416 96.306849 
L 186.960439 82.956238 
L 192.501461 82.002623 
L 198.042484 83.909853 
L 203.583506 81.049007 
L 209.124529 81.049007 
L 220.206574 78.188162 
L 225.747596 73.420086 
L 231.288619 70.559241 
L 236.829641 89.631544 
L 242.370664 103.93577 
L 247.911686 100.12131 
L 253.452709 98.21408 
L 258.993731 94.399619 
L 264.534754 97.260465 
L 270.075776 99.167695 
L 275.616799 102.02854 
L 281.157821 105.843001 
L 286.698844 104.889385 
L 292.239866 108.703846 
L 297.780889 98.21408 
L 303.321911 95.353234 
L 308.862934 101.074925 
L 314.403956 103.93577 
L 319.944979 102.02854 
L 325.486001 109.657461 
L 331.027024 102.982155 
L 336.568046 104.889385 
L 342.109069 98.21408 
L 347.650091 100.12131 
L 353.191114 90.585159 
L 358.732136 104.889385 
L 364.273159 110.611076 
L 369.814181 103.93577 
L 375.355204 111.564691 
L 380.896226 110.611076 
L 386.437249 105.843001 
L 391.978271 111.564691 
L 403.060316 114.425537 
L 408.601339 97.260465 
L 414.142361 85.817083 
L 419.683384 88.677928 
L 425.224406 80.095392 
L 430.765429 82.956238 
L 436.306451 88.677928 
L 441.847474 102.02854 
L 447.388496 105.843001 
L 452.929519 116.332767 
L 458.470541 110.611076 
L 464.011564 106.796616 
L 469.552586 109.657461 
L 475.093609 113.471922 
L 480.634631 115.379152 
L 486.175654 109.657461 
L 491.716676 101.074925 
L 497.257699 86.770698 
L 502.798721 84.863468 
L 508.339744 75.327317 
L 513.880766 82.956238 
L 519.421789 82.956238 
L 530.503834 80.095392 
L 536.044856 75.327317 
L 541.585879 80.095392 
L 547.126901 98.21408 
L 552.667924 112.518306 
L 558.208946 122.054458 
L 569.290991 120.147227 
L 574.832014 123.008073 
L 580.373036 122.054458 
L 585.914059 118.239997 
L 591.455081 118.239997 
L 596.996104 126.822533 
L 602.537126 132.544224 
L 608.078149 125.868918 
L 613.619171 123.961688 
L 619.160194 129.683379 
L 624.701216 123.961688 
L 630.242239 123.961688 
L 635.783261 133.497839 
L 641.324284 133.497839 
L 646.865306 128.729764 
L 652.406329 134.451454 
L 657.947351 128.729764 
L 663.488374 135.405069 
L 669.029396 134.451454 
L 674.570419 131.590609 
L 685.652464 134.451454 
L 691.193486 134.451454 
L 696.734509 139.21953 
L 702.275531 143.03399 
L 707.816554 143.03399 
L 713.357576 136.358685 
L 718.898599 118.239997 
L 724.439621 107.750231 
L 729.980644 107.750231 
L 735.521666 106.796616 
L 741.062689 104.889385 
L 746.603711 115.379152 
L 752.144734 132.544224 
L 754.915245 135.405069 
L 757.685756 137.3123 
L 763.226779 143.987605 
L 768.767801 143.03399 
L 774.308824 137.3123 
L 785.390869 148.755681 
L 790.931891 144.941221 
L 796.472914 139.21953 
L 802.013936 128.729764 
L 807.554959 111.564691 
L 813.095981 116.332767 
L 824.178026 97.260465 
L 829.719049 104.889385 
L 840.801094 102.02854 
L 846.342116 102.982155 
L 851.883139 102.982155 
L 857.424161 115.379152 
L 862.965184 123.961688 
L 868.506206 130.636994 
L 874.047229 127.776148 
L 879.588251 131.590609 
L 885.129274 128.729764 
L 890.670296 136.358685 
L 896.211319 126.822533 
L 901.752341 132.544224 
L 907.293364 129.683379 
L 912.834386 131.590609 
L 918.375409 137.3123 
L 918.375409 137.3123 
" clip-path="url(#p7e915ecaea)" style="fill: none; stroke: #ee6410; stroke-opacity: 0.95; stroke-width: 0.936; stroke-linecap: square"/>
   </g>
   <g id="line2d_40">
    <path d="M 70.598966 108.703846 
L 76.139989 98.21408 
L 87.222034 104.889385 
L 92.763056 111.564691 
L 98.304079 94.399619 
L 109.386124 82.956238 
L 114.927146 81.049007 
L 120.468169 80.095392 
L 126.009191 95.353234 
L 131.550214 106.796616 
L 142.632259 95.353234 
L 148.173281 99.167695 
L 153.714304 105.843001 
L 159.255326 103.93577 
L 164.796349 109.657461 
L 170.337371 113.471922 
L 175.878394 96.306849 
L 181.419416 95.353234 
L 186.960439 92.492389 
L 192.501461 94.399619 
L 198.042484 88.677928 
L 203.583506 89.631544 
L 209.124529 87.724313 
L 220.206574 64.83755 
L 225.747596 66.744781 
L 231.288619 70.559241 
L 236.829641 100.12131 
L 242.370664 90.585159 
L 247.911686 72.466471 
L 253.452709 61.976705 
L 258.993731 83.909853 
L 264.534754 82.002623 
L 270.075776 88.677928 
L 275.616799 90.585159 
L 281.157821 98.21408 
L 286.698844 86.770698 
L 292.239866 88.677928 
L 297.780889 100.12131 
L 303.321911 83.909853 
L 308.862934 78.188162 
L 314.403956 103.93577 
L 319.944979 102.02854 
L 325.486001 96.306849 
L 331.027024 92.492389 
L 336.568046 76.280932 
L 342.109069 83.909853 
L 353.191114 101.074925 
L 358.732136 88.677928 
L 364.273159 90.585159 
L 369.814181 89.631544 
L 375.355204 101.074925 
L 380.896226 99.167695 
L 386.437249 86.770698 
L 391.978271 102.982155 
L 403.060316 102.982155 
L 408.601339 92.492389 
L 414.142361 78.188162 
L 419.683384 91.538774 
L 425.224406 86.770698 
L 430.765429 72.466471 
L 436.306451 88.677928 
L 441.847474 73.420086 
L 444.617985 78.188162 
L 452.929519 95.353234 
L 458.470541 95.353234 
L 464.011564 90.585159 
L 469.552586 99.167695 
L 475.093609 85.817083 
L 480.634631 88.677928 
L 486.175654 106.796616 
L 491.716676 86.770698 
L 497.257699 79.141777 
L 502.798721 74.373702 
L 508.339744 74.373702 
L 513.880766 63.883935 
L 519.421789 63.883935 
L 530.503834 72.466471 
L 536.044856 71.512856 
L 541.585879 67.698396 
L 547.126901 95.353234 
L 563.749969 92.492389 
L 569.290991 100.12131 
L 574.832014 91.538774 
L 580.373036 106.796616 
L 583.143547 103.93577 
L 585.914059 102.02854 
L 591.455081 115.379152 
L 596.996104 114.425537 
L 602.537126 118.239997 
L 608.078149 110.611076 
L 613.619171 112.518306 
L 619.160194 90.585159 
L 624.701216 114.425537 
L 630.242239 103.93577 
L 635.783261 103.93577 
L 641.324284 104.889385 
L 646.865306 120.147227 
L 652.406329 134.451454 
L 657.947351 122.054458 
L 663.488374 107.750231 
L 669.029396 116.332767 
L 674.570419 118.239997 
L 685.652464 100.12131 
L 691.193486 117.286382 
L 696.734509 127.776148 
L 702.275531 135.405069 
L 707.816554 123.008073 
L 713.357576 121.100843 
L 718.898599 102.02854 
L 724.439621 103.93577 
L 729.980644 83.909853 
L 735.521666 89.631544 
L 741.062689 92.492389 
L 746.603711 120.147227 
L 752.144734 139.21953 
L 757.685756 127.776148 
L 763.226779 125.868918 
L 768.767801 115.379152 
L 774.308824 121.100843 
L 779.849846 109.657461 
L 785.390869 123.008073 
L 790.931891 133.497839 
L 796.472914 151.616526 
L 802.013936 114.425537 
L 807.554959 103.93577 
L 813.095981 106.796616 
L 818.637004 90.585159 
L 824.178026 90.585159 
L 829.719049 77.234547 
L 840.801094 86.770698 
L 846.342116 82.002623 
L 851.883139 99.167695 
L 857.424161 96.306849 
L 868.506206 109.657461 
L 874.047229 98.21408 
L 879.588251 109.657461 
L 885.129274 126.822533 
L 890.670296 123.008073 
L 896.211319 114.425537 
L 901.752341 120.147227 
L 907.293364 121.100843 
L 912.834386 126.822533 
L 918.375409 100.12131 
L 918.375409 100.12131 
" clip-path="url(#p7e915ecaea)" style="fill: none; stroke: #dd4d04; stroke-opacity: 0.95; stroke-width: 0.936; stroke-linecap: square"/>
   </g>
   <g id="patch_23">
    <path d="M 53.643438 228.954713 
L 53.643438 17.061433 
" style="fill: none; stroke: #cbd5e1; stroke-width: 0.8; stroke-linejoin: miter; stroke-linecap: square"/>
   </g>
   <g id="patch_24">
    <path d="M 935.330937 228.954713 
L 935.330937 17.061433 
" style="fill: none; stroke: #cbd5e1; stroke-width: 0.8; stroke-linejoin: miter; stroke-linecap: square"/>
   </g>
   <g id="patch_25">
    <path d="M 53.643438 228.954713 
L 935.330938 228.954713 
" style="fill: none; stroke: #cbd5e1; stroke-width: 0.8; stroke-linejoin: miter; stroke-linecap: square"/>
   </g>
   <g id="patch_26">
    <path d="M 53.643438 17.061433 
L 935.330938 17.061433 
" style="fill: none; stroke: #cbd5e1; stroke-width: 0.8; stroke-linejoin: miter; stroke-linecap: square"/>
   </g>
   <g id="text_20">
    <!-- ACC -->
    <g style="fill: #475569" transform="translate(53.868702 13.27875) scale(0.08 -0.08)">
     <defs>
      <path id="DejaVuSans-41" d="M 2188 4044 
L 1331 1722 
L 3047 1722 
L 2188 4044 
z
M 1831 4666 
L 2547 4666 
L 4325 0 
L 3669 0 
L 3244 1197 
L 1141 1197 
L 716 0 
L 50 0 
L 1831 4666 
z
" transform="scale(0.015625)"/>
     </defs>
     <use xlink:href="#DejaVuSans-41"/>
     <use xlink:href="#DejaVuSans-43" transform="translate(66.658203 0)"/>
     <use xlink:href="#DejaVuSans-43" transform="translate(136.482422 0)"/>
    </g>
   </g>
   <g id="text_21">
    <!-- OC -->
    <g style="fill: #475569" transform="translate(84.05067 13.27875) scale(0.08 -0.08)">
     <defs>
      <path id="DejaVuSans-4f" d="M 2522 4238 
Q 1834 4238 1429 3725 
Q 1025 3213 1025 2328 
Q 1025 1447 1429 934 
Q 1834 422 2522 422 
Q 3209 422 3611 934 
Q 4013 1447 4013 2328 
Q 4013 3213 3611 3725 
Q 3209 4238 2522 4238 
z
M 2522 4750 
Q 3503 4750 4090 4092 
Q 4678 3434 4678 2328 
Q 4678 1225 4090 567 
Q 3503 -91 2522 -91 
Q 1538 -91 948 565 
Q 359 1222 359 2328 
Q 359 3434 948 4092 
Q 1538 4750 2522 4750 
z
" transform="scale(0.015625)"/>
     </defs>
     <use xlink:href="#DejaVuSans-4f"/>
     <use xlink:href="#DejaVuSans-43" transform="translate(78.710938 0)"/>
    </g>
   </g>
   <g id="text_22">
    <!-- FCS -->
    <g style="fill: #475569" transform="translate(115.605555 13.27875) scale(0.08 -0.08)">
     <defs>
      <path id="DejaVuSans-46" d="M 628 4666 
L 3309 4666 
L 3309 4134 
L 1259 4134 
L 1259 2759 
L 3109 2759 
L 3109 2228 
L 1259 2228 
L 1259 0 
L 628 0 
L 628 4666 
z
" transform="scale(0.015625)"/>
      <path id="DejaVuSans-53" d="M 3425 4513 
L 3425 3897 
Q 3066 4069 2747 4153 
Q 2428 4238 2131 4238 
Q 1616 4238 1336 4038 
Q 1056 3838 1056 3469 
Q 1056 3159 1242 3001 
Q 1428 2844 1947 2747 
L 2328 2669 
Q 3034 2534 3370 2195 
Q 3706 1856 3706 1288 
Q 3706 609 3251 259 
Q 2797 -91 1919 -91 
Q 1588 -91 1214 -16 
Q 841 59 441 206 
L 441 856 
Q 825 641 1194 531 
Q 1563 422 1919 422 
Q 2459 422 2753 634 
Q 3047 847 3047 1241 
Q 3047 1584 2836 1778 
Q 2625 1972 2144 2069 
L 1759 2144 
Q 1053 2284 737 2584 
Q 422 2884 422 3419 
Q 422 4038 858 4394 
Q 1294 4750 2059 4750 
Q 2388 4750 2728 4690 
Q 3069 4631 3425 4513 
z
" transform="scale(0.015625)"/>
     </defs>
     <use xlink:href="#DejaVuSans-46"/>
     <use xlink:href="#DejaVuSans-43" transform="translate(57.519531 0)"/>
     <use xlink:href="#DejaVuSans-53" transform="translate(127.34375 0)"/>
    </g>
   </g>
   <g id="text_23">
    <!-- SR -->
    <g style="fill: #475569" transform="translate(153.936576 13.27875) scale(0.08 -0.08)">
     <defs>
      <path id="DejaVuSans-52" d="M 2841 2188 
Q 3044 2119 3236 1894 
Q 3428 1669 3622 1275 
L 4263 0 
L 3584 0 
L 2988 1197 
Q 2756 1666 2539 1819 
Q 2322 1972 1947 1972 
L 1259 1972 
L 1259 0 
L 628 0 
L 628 4666 
L 2053 4666 
Q 2853 4666 3247 4331 
Q 3641 3997 3641 3322 
Q 3641 2881 3436 2590 
Q 3231 2300 2841 2188 
z
M 1259 4147 
L 1259 2491 
L 2053 2491 
Q 2509 2491 2742 2702 
Q 2975 2913 2975 3322 
Q 2975 3731 2742 3939 
Q 2509 4147 2053 4147 
L 1259 4147 
z
" transform="scale(0.015625)"/>
     </defs>
     <use xlink:href="#DejaVuSans-53"/>
     <use xlink:href="#DejaVuSans-52" transform="translate(63.476562 0)"/>
    </g>
   </g>
   <g id="text_24">
    <!-- FFC -->
    <g style="fill: #475569" transform="translate(201.730154 13.27875) scale(0.08 -0.08)">
     <use xlink:href="#DejaVuSans-46"/>
     <use xlink:href="#DejaVuSans-46" transform="translate(57.519531 0)"/>
     <use xlink:href="#DejaVuSans-43" transform="translate(115.039062 0)"/>
    </g>
   </g>
   <g id="text_25">
    <!-- SS -->
    <g style="fill: #475569" transform="translate(312.095718 13.27875) scale(0.08 -0.08)">
     <use xlink:href="#DejaVuSans-53"/>
     <use xlink:href="#DejaVuSans-53" transform="translate(63.476562 0)"/>
    </g>
   </g>
   <g id="text_26">
    <!-- OC -->
    <g style="fill: #475569" transform="translate(397.118441 13.27875) scale(0.08 -0.08)">
     <use xlink:href="#DejaVuSans-4f"/>
     <use xlink:href="#DejaVuSans-43" transform="translate(78.710938 0)"/>
    </g>
   </g>
   <g id="text_27">
    <!-- FCS -->
    <g style="fill: #475569" transform="translate(425.902815 13.27875) scale(0.08 -0.08)">
     <use xlink:href="#DejaVuSans-46"/>
     <use xlink:href="#DejaVuSans-43" transform="translate(57.519531 0)"/>
     <use xlink:href="#DejaVuSans-53" transform="translate(127.34375 0)"/>
    </g>
   </g>
   <g id="text_28">
    <!-- SR -->
    <g style="fill: #475569" transform="translate(464.233836 13.27875) scale(0.08 -0.08)">
     <use xlink:href="#DejaVuSans-53"/>
     <use xlink:href="#DejaVuSans-52" transform="translate(63.476562 0)"/>
    </g>
   </g>
   <g id="text_29">
    <!-- FFC -->
    <g style="fill: #475569" transform="translate(512.027414 13.27875) scale(0.08 -0.08)">
     <use xlink:href="#DejaVuSans-46"/>
     <use xlink:href="#DejaVuSans-46" transform="translate(57.519531 0)"/>
     <use xlink:href="#DejaVuSans-43" transform="translate(115.039062 0)"/>
    </g>
   </g>
   <g id="text_30">
    <!-- SS -->
    <g style="fill: #475569" transform="translate(625.163489 13.27875) scale(0.08 -0.08)">
     <use xlink:href="#DejaVuSans-53"/>
     <use xlink:href="#DejaVuSans-53" transform="translate(63.476562 0)"/>
    </g>
   </g>
   <g id="text_31">
    <!-- OC -->
    <g style="fill: #475569" transform="translate(710.186212 13.27875) scale(0.08 -0.08)">
     <use xlink:href="#DejaVuSans-4f"/>
     <use xlink:href="#DejaVuSans-43" transform="translate(78.710938 0)"/>
    </g>
   </g>
   <g id="text_32">
    <!-- FCS -->
    <g style="fill: #475569" transform="translate(736.200075 13.27875) scale(0.08 -0.08)">
     <use xlink:href="#DejaVuSans-46"/>
     <use xlink:href="#DejaVuSans-43" transform="translate(57.519531 0)"/>
     <use xlink:href="#DejaVuSans-53" transform="translate(127.34375 0)"/>
    </g>
   </g>
   <g id="text_33">
    <!-- SR -->
    <g style="fill: #475569" transform="translate(771.760585 13.27875) scale(0.08 -0.08)">
     <use xlink:href="#DejaVuSans-53"/>
     <use xlink:href="#DejaVuSans-52" transform="translate(63.476562 0)"/>
    </g>
   </g>
   <g id="text_34">
    <!-- FFC -->
    <g style="fill: #475569" transform="translate(819.554162 13.27875) scale(0.08 -0.08)">
     <use xlink:href="#DejaVuSans-46"/>
     <use xlink:href="#DejaVuSans-46" transform="translate(57.519531 0)"/>
     <use xlink:href="#DejaVuSans-43" transform="translate(115.039062 0)"/>
    </g>
   </g>
   <g id="text_35">
    <!-- SS -->
    <g style="fill: #475569" transform="translate(888.362057 13.27875) scale(0.08 -0.08)">
     <use xlink:href="#DejaVuSans-53"/>
     <use xlink:href="#DejaVuSans-53" transform="translate(63.476562 0)"/>
    </g>
   </g>
   <g id="legend_1">
    <g id="line2d_41">
     <path d="M 847.378437 27.540183 
L 855.378437 27.540183 
L 863.378437 27.540183 
" style="fill: none; stroke: #fdc38d; stroke-opacity: 0.95; stroke-width: 1.3; stroke-linecap: square"/>
    </g>
    <g id="text_36">
     <!-- T1 -->
     <g transform="translate(869.778437 30.340183) scale(0.08 -0.08)">
      <use xlink:href="#DejaVuSans-54"/>
      <use xlink:href="#DejaVuSans-31" transform="translate(61.083984 0)"/>
     </g>
    </g>
    <g id="line2d_42">
     <path d="M 847.378437 39.282683 
L 855.378437 39.282683 
L 863.378437 39.282683 
" style="fill: none; stroke: #fdac67; stroke-opacity: 0.95; stroke-width: 1.3; stroke-linecap: square"/>
    </g>
    <g id="text_37">
     <!-- T2 -->
     <g transform="translate(869.778437 42.082683) scale(0.08 -0.08)">
      <use xlink:href="#DejaVuSans-54"/>
      <use xlink:href="#DejaVuSans-32" transform="translate(61.083984 0)"/>
     </g>
    </g>
    <g id="line2d_43">
     <path d="M 847.378437 51.025183 
L 855.378437 51.025183 
L 863.378437 51.025183 
" style="fill: none; stroke: #fd9547; stroke-opacity: 0.95; stroke-width: 1.3; stroke-linecap: square"/>
    </g>
    <g id="text_38">
     <!-- T3 -->
     <g transform="translate(869.778437 53.825183) scale(0.08 -0.08)">
      <use xlink:href="#DejaVuSans-54"/>
      <use xlink:href="#DejaVuSans-33" transform="translate(61.083984 0)"/>
     </g>
    </g>
    <g id="line2d_44">
     <path d="M 895.754687 27.540183 
L 903.754687 27.540183 
L 911.754687 27.540183 
" style="fill: none; stroke: #f87d29; stroke-opacity: 0.95; stroke-width: 1.3; stroke-linecap: square"/>
    </g>
    <g id="text_39">
     <!-- T4 -->
     <g transform="translate(918.154687 30.340183) scale(0.08 -0.08)">
      <use xlink:href="#DejaVuSans-54"/>
      <use xlink:href="#DejaVuSans-34" transform="translate(61.083984 0)"/>
     </g>
    </g>
    <g id="line2d_45">
     <path d="M 895.754687 39.282683 
L 903.754687 39.282683 
L 911.754687 39.282683 
" style="fill: none; stroke: #ee6410; stroke-opacity: 0.95; stroke-width: 1.3; stroke-linecap: square"/>
    </g>
    <g id="text_40">
     <!-- T5 -->
     <g transform="translate(918.154687 42.082683) scale(0.08 -0.08)">
      <use xlink:href="#DejaVuSans-54"/>
      <use xlink:href="#DejaVuSans-35" transform="translate(61.083984 0)"/>
     </g>
    </g>
    <g id="line2d_46">
     <path d="M 895.754687 51.025183 
L 903.754687 51.025183 
L 911.754687 51.025183 
" style="fill: none; stroke: #dd4d04; stroke-opacity: 0.95; stroke-width: 1.3; stroke-linecap: square"/>
    </g>
    <g id="text_41">
     <!-- T6 -->
     <g transform="translate(918.154687 53.825183) scale(0.08 -0.08)">
      <use xlink:href="#DejaVuSans-54"/>
      <use xlink:href="#DejaVuSans-36" transform="translate(61.083984 0)"/>
     </g>
    </g>
   </g>
  </g>
 </g>
 <defs>
  <clipPath id="p7e915ecaea">
   <rect x="53.643438" y="17.061433" width="881.6875" height="211.89328"/>
  </clipPath>
 </defs>
</svg>
