<?xml version="1.0" encoding="utf-8" standalone="no"?>
<!DOCTYPE svg PUBLIC "-//W3C//DTD SVG 1.1//EN"
  "http://www.w3.org/Graphics/SVG/1.1/DTD/svg11.dtd">
<svg xmlns:xlink="http://www.w3.org/1999/xlink" width="942.516875pt" height="265.54315pt" viewBox="0 0 942.516875 265.54315" xmlns="http://www.w3.org/2000/svg" version="1.1">
 <metadata>
  <rdf:RDF xmlns:dc="http://purl.org/dc/elements/1.1/" xmlns:cc="http://creativecommons.org/ns#" xmlns:rdf="http://www.w3.org/1999/02/22-rdf-syntax-ns#">
   <cc:Work>
    <dc:type rdf:resource="http://purl.org/dc/dcmitype/StillImage"/>
    <dc:date>2026-04-17T13:07:14.411833</dc:date>
    <dc:format>image/svg+xml</dc:format>
    <dc:creator>
     <cc:Agent>
      <dc:title>Matplotlib v3.10.8, https://matplotlib.org/</dc:title>
     </cc:Agent>
    </dc:creator>
   </cc:Work>
  </rdf:RDF>
 </metadata>
 <defs>
  <style type="text/css">*{stroke-linejoin: round; stroke-linecap: butt}</style>
 </defs>
 <g id="figure_1">
  <g id="patch_1">
   <path d="M 0 265.54315 
L 942.516875 265.54315 
L 942.516875 0 
L 0 0 
z
" style="fill: #ffffff"/>
  </g>
  <g id="axes_1">
   <g id="patch_2">
    <path d="M 33.604375 228.954713 
L 935.316875 228.954713 
L 935.316875 17.061433 
L 33.604375 17.061433 
z
" style="fill: #ffffff"/>
   </g>
   <g id="patch_3">
    <path d="M 33.604375 228.954713 
L 213.993316 228.954713 
L 213.993316 17.061433 
L 33.604375 17.061433 
z
" clip-path="url(#p784c778aba)" style="fill: #f8fafc; opacity: 0.45"/>
   </g>
   <g id="patch_4">
    <path d="M 213.993316 228.954713 
L 246.000587 228.954713 
L 246.000587 17.061433 
L 213.993316 17.061433 
z
" clip-path="url(#p784c778aba)" style="fill: #eff6ff; opacity: 0.45"/>
   </g>
   <g id="patch_5">
    <path d="M 246.000587 228.954713 
L 268.862924 228.954713 
L 268.862924 17.061433 
L 246.000587 17.061433 
z
" clip-path="url(#p784c778aba)" style="fill: #fef3c7; opacity: 0.45"/>
   </g>
   <g id="patch_6">
    <path d="M 268.862924 228.954713 
L 305.442662 228.954713 
L 305.442662 17.061433 
L 268.862924 17.061433 
z
" clip-path="url(#p784c778aba)" style="fill: #dcfce7; opacity: 0.45"/>
   </g>
   <g id="patch_7">
    <path d="M 305.442662 228.954713 
L 351.167335 228.954713 
L 351.167335 17.061433 
L 305.442662 17.061433 
z
" clip-path="url(#p784c778aba)" style="fill: #fee2e2; opacity: 0.45"/>
   </g>
   <g id="patch_8">
    <path d="M 351.167335 228.954713 
L 360.31227 228.954713 
L 360.31227 17.061433 
L 351.167335 17.061433 
z
" clip-path="url(#p784c778aba)" style="fill: #ede9fe; opacity: 0.45"/>
   </g>
   <g id="patch_9">
    <path d="M 360.31227 228.954713 
L 474.623952 228.954713 
L 474.623952 17.061433 
L 360.31227 17.061433 
z
" clip-path="url(#p784c778aba)" style="fill: #f8fafc; opacity: 0.45"/>
   </g>
   <g id="patch_10">
    <path d="M 474.623952 228.954713 
L 502.058756 228.954713 
L 502.058756 17.061433 
L 474.623952 17.061433 
z
" clip-path="url(#p784c778aba)" style="fill: #eff6ff; opacity: 0.45"/>
   </g>
   <g id="patch_11">
    <path d="M 502.058756 228.954713 
L 524.921093 228.954713 
L 524.921093 17.061433 
L 502.058756 17.061433 
z
" clip-path="url(#p784c778aba)" style="fill: #fef3c7; opacity: 0.45"/>
   </g>
   <g id="patch_12">
    <path d="M 524.921093 228.954713 
L 561.500831 228.954713 
L 561.500831 17.061433 
L 524.921093 17.061433 
z
" clip-path="url(#p784c778aba)" style="fill: #dcfce7; opacity: 0.45"/>
   </g>
   <g id="patch_13">
    <path d="M 561.500831 228.954713 
L 607.225504 228.954713 
L 607.225504 17.061433 
L 561.500831 17.061433 
z
" clip-path="url(#p784c778aba)" style="fill: #fee2e2; opacity: 0.45"/>
   </g>
   <g id="patch_14">
    <path d="M 607.225504 228.954713 
L 616.370439 228.954713 
L 616.370439 17.061433 
L 607.225504 17.061433 
z
" clip-path="url(#p784c778aba)" style="fill: #ede9fe; opacity: 0.45"/>
   </g>
   <g id="patch_15">
    <path d="M 616.370439 228.954713 
L 735.254589 228.954713 
L 735.254589 17.061433 
L 616.370439 17.061433 
z
" clip-path="url(#p784c778aba)" style="fill: #f8fafc; opacity: 0.45"/>
   </g>
   <g id="patch_16">
    <path d="M 735.254589 228.954713 
L 758.116925 228.954713 
L 758.116925 17.061433 
L 735.254589 17.061433 
z
" clip-path="url(#p784c778aba)" style="fill: #eff6ff; opacity: 0.45"/>
   </g>
   <g id="patch_17">
    <path d="M 758.116925 228.954713 
L 780.979262 228.954713 
L 780.979262 17.061433 
L 758.116925 17.061433 
z
" clip-path="url(#p784c778aba)" style="fill: #fef3c7; opacity: 0.45"/>
   </g>
   <g id="patch_18">
    <path d="M 780.979262 228.954713 
L 812.986533 228.954713 
L 812.986533 17.061433 
L 780.979262 17.061433 
z
" clip-path="url(#p784c778aba)" style="fill: #dcfce7; opacity: 0.45"/>
   </g>
   <g id="patch_19">
    <path d="M 812.986533 228.954713 
L 863.283673 228.954713 
L 863.283673 17.061433 
L 812.986533 17.061433 
z
" clip-path="url(#p784c778aba)" style="fill: #fee2e2; opacity: 0.45"/>
   </g>
   <g id="patch_20">
    <path d="M 863.283673 228.954713 
L 872.428608 228.954713 
L 872.428608 17.061433 
L 863.283673 17.061433 
z
" clip-path="url(#p784c778aba)" style="fill: #ede9fe; opacity: 0.45"/>
   </g>
   <g id="patch_21">
    <path d="M 872.428608 228.954713 
L 913.580813 228.954713 
L 913.580813 17.061433 
L 872.428608 17.061433 
z
" clip-path="url(#p784c778aba)" style="fill: #f8fafc; opacity: 0.45"/>
   </g>
   <g id="patch_22">
    <path d="M 913.580813 228.954713 
L 918.153281 228.954713 
L 918.153281 17.061433 
L 913.580813 17.061433 
z
" clip-path="url(#p784c778aba)" style="fill: #eff6ff; opacity: 0.45"/>
   </g>
   <g id="matplotlib.axis_1">
    <g id="xtick_1">
     <g id="line2d_1">
      <path d="M 145.406306 228.954713 
L 145.406306 17.061433 
" clip-path="url(#p784c778aba)" style="fill: none; stroke: #eef2f7; stroke-width: 0.55; stroke-linecap: square"/>
     </g>
     <g id="line2d_2">
      <defs>
       <path id="m8e23e01c6b" d="M 0 0 
L 0 3.5 
" style="stroke: #000000; stroke-width: 0.8"/>
      </defs>
      <g>
       <use xlink:href="#m8e23e01c6b" x="145.406306" y="228.954713" style="stroke: #000000; stroke-width: 0.8"/>
      </g>
     </g>
     <g id="text_1">
      <!-- 25 -->
      <g transform="translate(139.680056 242.793307) scale(0.09 -0.09)">
       <defs>
        <path id="DejaVuSans-32" d="M 1228 531 
L 3431 531 
L 3431 0 
L 469 0 
L 469 531 
Q 828 903 1448 1529 
Q 2069 2156 2228 2338 
Q 2531 2678 2651 2914 
Q 2772 3150 2772 3378 
Q 2772 3750 2511 3984 
Q 2250 4219 1831 4219 
Q 1534 4219 1204 4116 
Q 875 4013 500 3803 
L 500 4441 
Q 881 4594 1212 4672 
Q 1544 4750 1819 4750 
Q 2544 4750 2975 4387 
Q 3406 4025 3406 3419 
Q 3406 3131 3298 2873 
Q 3191 2616 2906 2266 
Q 2828 2175 2409 1742 
Q 1991 1309 1228 531 
z
" transform="scale(0.015625)"/>
        <path id="DejaVuSans-35" d="M 691 4666 
L 3169 4666 
L 3169 4134 
L 1269 4134 
L 1269 2991 
Q 1406 3038 1543 3061 
Q 1681 3084 1819 3084 
Q 2600 3084 3056 2656 
Q 3513 2228 3513 1497 
Q 3513 744 3044 326 
Q 2575 -91 1722 -91 
Q 1428 -91 1123 -41 
Q 819 9 494 109 
L 494 744 
Q 775 591 1075 516 
Q 1375 441 1709 441 
Q 2250 441 2565 725 
Q 2881 1009 2881 1497 
Q 2881 1984 2565 2268 
Q 2250 2553 1709 2553 
Q 1456 2553 1204 2497 
Q 953 2441 691 2322 
L 691 4666 
z
" transform="scale(0.015625)"/>
       </defs>
       <use xlink:href="#DejaVuSans-32"/>
       <use xlink:href="#DejaVuSans-35" transform="translate(63.623047 0)"/>
      </g>
     </g>
    </g>
    <g id="xtick_2">
     <g id="line2d_3">
      <path d="M 259.717989 228.954713 
L 259.717989 17.061433 
" clip-path="url(#p784c778aba)" style="fill: none; stroke: #eef2f7; stroke-width: 0.55; stroke-linecap: square"/>
     </g>
     <g id="line2d_4">
      <g>
       <use xlink:href="#m8e23e01c6b" x="259.717989" y="228.954713" style="stroke: #000000; stroke-width: 0.8"/>
      </g>
     </g>
     <g id="text_2">
      <!-- 50 -->
      <g transform="translate(253.991739 242.793307) scale(0.09 -0.09)">
       <defs>
        <path id="DejaVuSans-30" d="M 2034 4250 
Q 1547 4250 1301 3770 
Q 1056 3291 1056 2328 
Q 1056 1369 1301 889 
Q 1547 409 2034 409 
Q 2525 409 2770 889 
Q 3016 1369 3016 2328 
Q 3016 3291 2770 3770 
Q 2525 4250 2034 4250 
z
M 2034 4750 
Q 2819 4750 3233 4129 
Q 3647 3509 3647 2328 
Q 3647 1150 3233 529 
Q 2819 -91 2034 -91 
Q 1250 -91 836 529 
Q 422 1150 422 2328 
Q 422 3509 836 4129 
Q 1250 4750 2034 4750 
z
" transform="scale(0.015625)"/>
       </defs>
       <use xlink:href="#DejaVuSans-35"/>
       <use xlink:href="#DejaVuSans-30" transform="translate(63.623047 0)"/>
      </g>
     </g>
    </g>
    <g id="xtick_3">
     <g id="line2d_5">
      <path d="M 374.029672 228.954713 
L 374.029672 17.061433 
" clip-path="url(#p784c778aba)" style="fill: none; stroke: #eef2f7; stroke-width: 0.55; stroke-linecap: square"/>
     </g>
     <g id="line2d_6">
      <g>
       <use xlink:href="#m8e23e01c6b" x="374.029672" y="228.954713" style="stroke: #000000; stroke-width: 0.8"/>
      </g>
     </g>
     <g id="text_3">
      <!-- 75 -->
      <g transform="translate(368.303422 242.793307) scale(0.09 -0.09)">
       <defs>
        <path id="DejaVuSans-37" d="M 525 4666 
L 3525 4666 
L 3525 4397 
L 1831 0 
L 1172 0 
L 2766 4134 
L 525 4134 
L 525 4666 
z
" transform="scale(0.015625)"/>
       </defs>
       <use xlink:href="#DejaVuSans-37"/>
       <use xlink:href="#DejaVuSans-35" transform="translate(63.623047 0)"/>
      </g>
     </g>
    </g>
    <g id="xtick_4">
     <g id="line2d_7">
      <path d="M 488.341354 228.954713 
L 488.341354 17.061433 
" clip-path="url(#p784c778aba)" style="fill: none; stroke: #eef2f7; stroke-width: 0.55; stroke-linecap: square"/>
     </g>
     <g id="line2d_8">
      <g>
       <use xlink:href="#m8e23e01c6b" x="488.341354" y="228.954713" style="stroke: #000000; stroke-width: 0.8"/>
      </g>
     </g>
     <g id="text_4">
      <!-- 100 -->
      <g transform="translate(479.751979 242.793307) scale(0.09 -0.09)">
       <defs>
        <path id="DejaVuSans-31" d="M 794 531 
L 1825 531 
L 1825 4091 
L 703 3866 
L 703 4441 
L 1819 4666 
L 2450 4666 
L 2450 531 
L 3481 531 
L 3481 0 
L 794 0 
L 794 531 
z
" transform="scale(0.015625)"/>
       </defs>
       <use xlink:href="#DejaVuSans-31"/>
       <use xlink:href="#DejaVuSans-30" transform="translate(63.623047 0)"/>
       <use xlink:href="#DejaVuSans-30" transform="translate(127.246094 0)"/>
      </g>
     </g>
    </g>
    <g id="xtick_5">
     <g id="line2d_9">
      <path d="M 602.653037 228.954713 
L 602.653037 17.061433 
" clip-path="url(#p784c778aba)" style="fill: none; stroke: #eef2f7; stroke-width: 0.55; stroke-linecap: square"/>
     </g>
     <g id="line2d_10">
      <g>
       <use xlink:href="#m8e23e01c6b" x="602.653037" y="228.954713" style="stroke: #000000; stroke-width: 0.8"/>
      </g>
     </g>
     <g id="text_5">
      <!-- 125 -->
      <g transform="translate(594.063662 242.793307) scale(0.09 -0.09)">
       <use xlink:href="#DejaVuSans-31"/>
       <use xlink:href="#DejaVuSans-32" transform="translate(63.623047 0)"/>
       <use xlink:href="#DejaVuSans-35" transform="translate(127.246094 0)"/>
      </g>
     </g>
    </g>
    <g id="xtick_6">
     <g id="line2d_11">
      <path d="M 716.964719 228.954713 
L 716.964719 17.061433 
" clip-path="url(#p784c778aba)" style="fill: none; stroke: #eef2f7; stroke-width: 0.55; stroke-linecap: square"/>
     </g>
     <g id="line2d_12">
      <g>
       <use xlink:href="#m8e23e01c6b" x="716.964719" y="228.954713" style="stroke: #000000; stroke-width: 0.8"/>
      </g>
     </g>
     <g id="text_6">
      <!-- 150 -->
      <g transform="translate(708.375344 242.793307) scale(0.09 -0.09)">
       <use xlink:href="#DejaVuSans-31"/>
       <use xlink:href="#DejaVuSans-35" transform="translate(63.623047 0)"/>
       <use xlink:href="#DejaVuSans-30" transform="translate(127.246094 0)"/>
      </g>
     </g>
    </g>
    <g id="xtick_7">
     <g id="line2d_13">
      <path d="M 831.276402 228.954713 
L 831.276402 17.061433 
" clip-path="url(#p784c778aba)" style="fill: none; stroke: #eef2f7; stroke-width: 0.55; stroke-linecap: square"/>
     </g>
     <g id="line2d_14">
      <g>
       <use xlink:href="#m8e23e01c6b" x="831.276402" y="228.954713" style="stroke: #000000; stroke-width: 0.8"/>
      </g>
     </g>
     <g id="text_7">
      <!-- 175 -->
      <g transform="translate(822.687027 242.793307) scale(0.09 -0.09)">
       <use xlink:href="#DejaVuSans-31"/>
       <use xlink:href="#DejaVuSans-37" transform="translate(63.623047 0)"/>
       <use xlink:href="#DejaVuSans-35" transform="translate(127.246094 0)"/>
      </g>
     </g>
    </g>
    <g id="text_8">
     <!-- Minutes since session start -->
     <g transform="translate(416.870781 256.263463) scale(0.1 -0.1)">
      <defs>
       <path id="DejaVuSans-4d" d="M 628 4666 
L 1569 4666 
L 2759 1491 
L 3956 4666 
L 4897 4666 
L 4897 0 
L 4281 0 
L 4281 4097 
L 3078 897 
L 2444 897 
L 1241 4097 
L 1241 0 
L 628 0 
L 628 4666 
z
" transform="scale(0.015625)"/>
       <path id="DejaVuSans-69" d="M 603 3500 
L 1178 3500 
L 1178 0 
L 603 0 
L 603 3500 
z
M 603 4863 
L 1178 4863 
L 1178 4134 
L 603 4134 
L 603 4863 
z
" transform="scale(0.015625)"/>
       <path id="DejaVuSans-6e" d="M 3513 2113 
L 3513 0 
L 2938 0 
L 2938 2094 
Q 2938 2591 2744 2837 
Q 2550 3084 2163 3084 
Q 1697 3084 1428 2787 
Q 1159 2491 1159 1978 
L 1159 0 
L 581 0 
L 581 3500 
L 1159 3500 
L 1159 2956 
Q 1366 3272 1645 3428 
Q 1925 3584 2291 3584 
Q 2894 3584 3203 3211 
Q 3513 2838 3513 2113 
z
" transform="scale(0.015625)"/>
       <path id="DejaVuSans-75" d="M 544 1381 
L 544 3500 
L 1119 3500 
L 1119 1403 
Q 1119 906 1312 657 
Q 1506 409 1894 409 
Q 2359 409 2629 706 
Q 2900 1003 2900 1516 
L 2900 3500 
L 3475 3500 
L 3475 0 
L 2900 0 
L 2900 538 
Q 2691 219 2414 64 
Q 2138 -91 1772 -91 
Q 1169 -91 856 284 
Q 544 659 544 1381 
z
M 1991 3584 
L 1991 3584 
z
" transform="scale(0.015625)"/>
       <path id="DejaVuSans-74" d="M 1172 4494 
L 1172 3500 
L 2356 3500 
L 2356 3053 
L 1172 3053 
L 1172 1153 
Q 1172 725 1289 603 
Q 1406 481 1766 481 
L 2356 481 
L 2356 0 
L 1766 0 
Q 1100 0 847 248 
Q 594 497 594 1153 
L 594 3053 
L 172 3053 
L 172 3500 
L 594 3500 
L 594 4494 
L 1172 4494 
z
" transform="scale(0.015625)"/>
       <path id="DejaVuSans-65" d="M 3597 1894 
L 3597 1613 
L 953 1613 
Q 991 1019 1311 708 
Q 1631 397 2203 397 
Q 2534 397 2845 478 
Q 3156 559 3463 722 
L 3463 178 
Q 3153 47 2828 -22 
Q 2503 -91 2169 -91 
Q 1331 -91 842 396 
Q 353 884 353 1716 
Q 353 2575 817 3079 
Q 1281 3584 2069 3584 
Q 2775 3584 3186 3129 
Q 3597 2675 3597 1894 
z
M 3022 2063 
Q 3016 2534 2758 2815 
Q 2500 3097 2075 3097 
Q 1594 3097 1305 2825 
Q 1016 2553 972 2059 
L 3022 2063 
z
" transform="scale(0.015625)"/>
       <path id="DejaVuSans-73" d="M 2834 3397 
L 2834 2853 
Q 2591 2978 2328 3040 
Q 2066 3103 1784 3103 
Q 1356 3103 1142 2972 
Q 928 2841 928 2578 
Q 928 2378 1081 2264 
Q 1234 2150 1697 2047 
L 1894 2003 
Q 2506 1872 2764 1633 
Q 3022 1394 3022 966 
Q 3022 478 2636 193 
Q 2250 -91 1575 -91 
Q 1294 -91 989 -36 
Q 684 19 347 128 
L 347 722 
Q 666 556 975 473 
Q 1284 391 1588 391 
Q 1994 391 2212 530 
Q 2431 669 2431 922 
Q 2431 1156 2273 1281 
Q 2116 1406 1581 1522 
L 1381 1569 
Q 847 1681 609 1914 
Q 372 2147 372 2553 
Q 372 3047 722 3315 
Q 1072 3584 1716 3584 
Q 2034 3584 2315 3537 
Q 2597 3491 2834 3397 
z
" transform="scale(0.015625)"/>
       <path id="DejaVuSans-20" transform="scale(0.015625)"/>
       <path id="DejaVuSans-63" d="M 3122 3366 
L 3122 2828 
Q 2878 2963 2633 3030 
Q 2388 3097 2138 3097 
Q 1578 3097 1268 2742 
Q 959 2388 959 1747 
Q 959 1106 1268 751 
Q 1578 397 2138 397 
Q 2388 397 2633 464 
Q 2878 531 3122 666 
L 3122 134 
Q 2881 22 2623 -34 
Q 2366 -91 2075 -91 
Q 1284 -91 818 406 
Q 353 903 353 1747 
Q 353 2603 823 3093 
Q 1294 3584 2113 3584 
Q 2378 3584 2631 3529 
Q 2884 3475 3122 3366 
z
" transform="scale(0.015625)"/>
       <path id="DejaVuSans-6f" d="M 1959 3097 
Q 1497 3097 1228 2736 
Q 959 2375 959 1747 
Q 959 1119 1226 758 
Q 1494 397 1959 397 
Q 2419 397 2687 759 
Q 2956 1122 2956 1747 
Q 2956 2369 2687 2733 
Q 2419 3097 1959 3097 
z
M 1959 3584 
Q 2709 3584 3137 3096 
Q 3566 2609 3566 1747 
Q 3566 888 3137 398 
Q 2709 -91 1959 -91 
Q 1206 -91 779 398 
Q 353 888 353 1747 
Q 353 2609 779 3096 
Q 1206 3584 1959 3584 
z
" transform="scale(0.015625)"/>
       <path id="DejaVuSans-61" d="M 2194 1759 
Q 1497 1759 1228 1600 
Q 959 1441 959 1056 
Q 959 750 1161 570 
Q 1363 391 1709 391 
Q 2188 391 2477 730 
Q 2766 1069 2766 1631 
L 2766 1759 
L 2194 1759 
z
M 3341 1997 
L 3341 0 
L 2766 0 
L 2766 531 
Q 2569 213 2275 61 
Q 1981 -91 1556 -91 
Q 1019 -91 701 211 
Q 384 513 384 1019 
Q 384 1609 779 1909 
Q 1175 2209 1959 2209 
L 2766 2209 
L 2766 2266 
Q 2766 2663 2505 2880 
Q 2244 3097 1772 3097 
Q 1472 3097 1187 3025 
Q 903 2953 641 2809 
L 641 3341 
Q 956 3463 1253 3523 
Q 1550 3584 1831 3584 
Q 2591 3584 2966 3190 
Q 3341 2797 3341 1997 
z
" transform="scale(0.015625)"/>
       <path id="DejaVuSans-72" d="M 2631 2963 
Q 2534 3019 2420 3045 
Q 2306 3072 2169 3072 
Q 1681 3072 1420 2755 
Q 1159 2438 1159 1844 
L 1159 0 
L 581 0 
L 581 3500 
L 1159 3500 
L 1159 2956 
Q 1341 3275 1631 3429 
Q 1922 3584 2338 3584 
Q 2397 3584 2469 3576 
Q 2541 3569 2628 3553 
L 2631 2963 
z
" transform="scale(0.015625)"/>
      </defs>
      <use xlink:href="#DejaVuSans-4d"/>
      <use xlink:href="#DejaVuSans-69" transform="translate(86.279297 0)"/>
      <use xlink:href="#DejaVuSans-6e" transform="translate(114.0625 0)"/>
      <use xlink:href="#DejaVuSans-75" transform="translate(177.441406 0)"/>
      <use xlink:href="#DejaVuSans-74" transform="translate(240.820312 0)"/>
      <use xlink:href="#DejaVuSans-65" transform="translate(280.029297 0)"/>
      <use xlink:href="#DejaVuSans-73" transform="translate(341.552734 0)"/>
      <use xlink:href="#DejaVuSans-20" transform="translate(393.652344 0)"/>
      <use xlink:href="#DejaVuSans-73" transform="translate(425.439453 0)"/>
      <use xlink:href="#DejaVuSans-69" transform="translate(477.539062 0)"/>
      <use xlink:href="#DejaVuSans-6e" transform="translate(505.322266 0)"/>
      <use xlink:href="#DejaVuSans-63" transform="translate(568.701172 0)"/>
      <use xlink:href="#DejaVuSans-65" transform="translate(623.681641 0)"/>
      <use xlink:href="#DejaVuSans-20" transform="translate(685.205078 0)"/>
      <use xlink:href="#DejaVuSans-73" transform="translate(716.992188 0)"/>
      <use xlink:href="#DejaVuSans-65" transform="translate(769.091797 0)"/>
      <use xlink:href="#DejaVuSans-73" transform="translate(830.615234 0)"/>
      <use xlink:href="#DejaVuSans-73" transform="translate(882.714844 0)"/>
      <use xlink:href="#DejaVuSans-69" transform="translate(934.814453 0)"/>
      <use xlink:href="#DejaVuSans-6f" transform="translate(962.597656 0)"/>
      <use xlink:href="#DejaVuSans-6e" transform="translate(1023.779297 0)"/>
      <use xlink:href="#DejaVuSans-20" transform="translate(1087.158203 0)"/>
      <use xlink:href="#DejaVuSans-73" transform="translate(1118.945312 0)"/>
      <use xlink:href="#DejaVuSans-74" transform="translate(1171.044922 0)"/>
      <use xlink:href="#DejaVuSans-61" transform="translate(1210.253906 0)"/>
      <use xlink:href="#DejaVuSans-72" transform="translate(1271.533203 0)"/>
      <use xlink:href="#DejaVuSans-74" transform="translate(1312.646484 0)"/>
     </g>
    </g>
   </g>
   <g id="matplotlib.axis_2">
    <g id="ytick_1">
     <g id="line2d_15">
      <path d="M 33.604375 218.574742 
L 935.316875 218.574742 
" clip-path="url(#p784c778aba)" style="fill: none; stroke: #eef2f7; stroke-opacity: 0.25; stroke-width: 0.55; stroke-linecap: square"/>
     </g>
     <g id="line2d_16">
      <defs>
       <path id="m227c71c654" d="M 0 0 
L -3.5 0 
" style="stroke: #000000; stroke-width: 0.8"/>
      </defs>
      <g>
       <use xlink:href="#m227c71c654" x="33.604375" y="218.574742" style="stroke: #000000; stroke-width: 0.8"/>
      </g>
     </g>
     <g id="text_9">
      <!-- 0 -->
      <g transform="translate(20.878125 221.994039) scale(0.09 -0.09)">
       <use xlink:href="#DejaVuSans-30"/>
      </g>
     </g>
    </g>
    <g id="ytick_2">
     <g id="line2d_17">
      <path d="M 33.604375 173.981972 
L 935.316875 173.981972 
" clip-path="url(#p784c778aba)" style="fill: none; stroke: #eef2f7; stroke-opacity: 0.25; stroke-width: 0.55; stroke-linecap: square"/>
     </g>
     <g id="line2d_18">
      <g>
       <use xlink:href="#m227c71c654" x="33.604375" y="173.981972" style="stroke: #000000; stroke-width: 0.8"/>
      </g>
     </g>
     <g id="text_10">
      <!-- 1 -->
      <g transform="translate(20.878125 177.401269) scale(0.09 -0.09)">
       <use xlink:href="#DejaVuSans-31"/>
      </g>
     </g>
    </g>
    <g id="ytick_3">
     <g id="line2d_19">
      <path d="M 33.604375 129.389202 
L 935.316875 129.389202 
" clip-path="url(#p784c778aba)" style="fill: none; stroke: #eef2f7; stroke-opacity: 0.25; stroke-width: 0.55; stroke-linecap: square"/>
     </g>
     <g id="line2d_20">
      <g>
       <use xlink:href="#m227c71c654" x="33.604375" y="129.389202" style="stroke: #000000; stroke-width: 0.8"/>
      </g>
     </g>
     <g id="text_11">
      <!-- 2 -->
      <g transform="translate(20.878125 132.808499) scale(0.09 -0.09)">
       <use xlink:href="#DejaVuSans-32"/>
      </g>
     </g>
    </g>
    <g id="ytick_4">
     <g id="line2d_21">
      <path d="M 33.604375 84.796433 
L 935.316875 84.796433 
" clip-path="url(#p784c778aba)" style="fill: none; stroke: #eef2f7; stroke-opacity: 0.25; stroke-width: 0.55; stroke-linecap: square"/>
     </g>
     <g id="line2d_22">
      <g>
       <use xlink:href="#m227c71c654" x="33.604375" y="84.796433" style="stroke: #000000; stroke-width: 0.8"/>
      </g>
     </g>
     <g id="text_12">
      <!-- 3 -->
      <g transform="translate(20.878125 88.215729) scale(0.09 -0.09)">
       <defs>
        <path id="DejaVuSans-33" d="M 2597 2516 
Q 3050 2419 3304 2112 
Q 3559 1806 3559 1356 
Q 3559 666 3084 287 
Q 2609 -91 1734 -91 
Q 1441 -91 1130 -33 
Q 819 25 488 141 
L 488 750 
Q 750 597 1062 519 
Q 1375 441 1716 441 
Q 2309 441 2620 675 
Q 2931 909 2931 1356 
Q 2931 1769 2642 2001 
Q 2353 2234 1838 2234 
L 1294 2234 
L 1294 2753 
L 1863 2753 
Q 2328 2753 2575 2939 
Q 2822 3125 2822 3475 
Q 2822 3834 2567 4026 
Q 2313 4219 1838 4219 
Q 1578 4219 1281 4162 
Q 984 4106 628 3988 
L 628 4550 
Q 988 4650 1302 4700 
Q 1616 4750 1894 4750 
Q 2613 4750 3031 4423 
Q 3450 4097 3450 3541 
Q 3450 3153 3228 2886 
Q 3006 2619 2597 2516 
z
" transform="scale(0.015625)"/>
       </defs>
       <use xlink:href="#DejaVuSans-33"/>
      </g>
     </g>
    </g>
    <g id="ytick_5">
     <g id="line2d_23">
      <path d="M 33.604375 40.203663 
L 935.316875 40.203663 
" clip-path="url(#p784c778aba)" style="fill: none; stroke: #eef2f7; stroke-opacity: 0.25; stroke-width: 0.55; stroke-linecap: square"/>
     </g>
     <g id="line2d_24">
      <g>
       <use xlink:href="#m227c71c654" x="33.604375" y="40.203663" style="stroke: #000000; stroke-width: 0.8"/>
      </g>
     </g>
     <g id="text_13">
      <!-- 4 -->
      <g transform="translate(20.878125 43.62296) scale(0.09 -0.09)">
       <defs>
        <path id="DejaVuSans-34" d="M 2419 4116 
L 825 1625 
L 2419 1625 
L 2419 4116 
z
M 2253 4666 
L 3047 4666 
L 3047 1625 
L 3713 1625 
L 3713 1100 
L 3047 1100 
L 3047 0 
L 2419 0 
L 2419 1100 
L 313 1100 
L 313 1709 
L 2253 4666 
z
" transform="scale(0.015625)"/>
       </defs>
       <use xlink:href="#DejaVuSans-34"/>
      </g>
     </g>
    </g>
    <g id="text_14">
     <!-- EDA (microsiemens) -->
     <g transform="translate(14.798438 173.642448) rotate(-90) scale(0.1 -0.1)">
      <defs>
       <path id="DejaVuSans-45" d="M 628 4666 
L 3578 4666 
L 3578 4134 
L 1259 4134 
L 1259 2753 
L 3481 2753 
L 3481 2222 
L 1259 2222 
L 1259 531 
L 3634 531 
L 3634 0 
L 628 0 
L 628 4666 
z
" transform="scale(0.015625)"/>
       <path id="DejaVuSans-44" d="M 1259 4147 
L 1259 519 
L 2022 519 
Q 2988 519 3436 956 
Q 3884 1394 3884 2338 
Q 3884 3275 3436 3711 
Q 2988 4147 2022 4147 
L 1259 4147 
z
M 628 4666 
L 1925 4666 
Q 3281 4666 3915 4102 
Q 4550 3538 4550 2338 
Q 4550 1131 3912 565 
Q 3275 0 1925 0 
L 628 0 
L 628 4666 
z
" transform="scale(0.015625)"/>
       <path id="DejaVuSans-41" d="M 2188 4044 
L 1331 1722 
L 3047 1722 
L 2188 4044 
z
M 1831 4666 
L 2547 4666 
L 4325 0 
L 3669 0 
L 3244 1197 
L 1141 1197 
L 716 0 
L 50 0 
L 1831 4666 
z
" transform="scale(0.015625)"/>
       <path id="DejaVuSans-28" d="M 1984 4856 
Q 1566 4138 1362 3434 
Q 1159 2731 1159 2009 
Q 1159 1288 1364 580 
Q 1569 -128 1984 -844 
L 1484 -844 
Q 1016 -109 783 600 
Q 550 1309 550 2009 
Q 550 2706 781 3412 
Q 1013 4119 1484 4856 
L 1984 4856 
z
" transform="scale(0.015625)"/>
       <path id="DejaVuSans-6d" d="M 3328 2828 
Q 3544 3216 3844 3400 
Q 4144 3584 4550 3584 
Q 5097 3584 5394 3201 
Q 5691 2819 5691 2113 
L 5691 0 
L 5113 0 
L 5113 2094 
Q 5113 2597 4934 2840 
Q 4756 3084 4391 3084 
Q 3944 3084 3684 2787 
Q 3425 2491 3425 1978 
L 3425 0 
L 2847 0 
L 2847 2094 
Q 2847 2600 2669 2842 
Q 2491 3084 2119 3084 
Q 1678 3084 1418 2786 
Q 1159 2488 1159 1978 
L 1159 0 
L 581 0 
L 581 3500 
L 1159 3500 
L 1159 2956 
Q 1356 3278 1631 3431 
Q 1906 3584 2284 3584 
Q 2666 3584 2933 3390 
Q 3200 3197 3328 2828 
z
" transform="scale(0.015625)"/>
       <path id="DejaVuSans-29" d="M 513 4856 
L 1013 4856 
Q 1481 4119 1714 3412 
Q 1947 2706 1947 2009 
Q 1947 1309 1714 600 
Q 1481 -109 1013 -844 
L 513 -844 
Q 928 -128 1133 580 
Q 1338 1288 1338 2009 
Q 1338 2731 1133 3434 
Q 928 4138 513 4856 
z
" transform="scale(0.015625)"/>
      </defs>
      <use xlink:href="#DejaVuSans-45"/>
      <use xlink:href="#DejaVuSans-44" transform="translate(63.183594 0)"/>
      <use xlink:href="#DejaVuSans-41" transform="translate(138.435547 0)"/>
      <use xlink:href="#DejaVuSans-20" transform="translate(206.84375 0)"/>
      <use xlink:href="#DejaVuSans-28" transform="translate(238.630859 0)"/>
      <use xlink:href="#DejaVuSans-6d" transform="translate(277.644531 0)"/>
      <use xlink:href="#DejaVuSans-69" transform="translate(375.056641 0)"/>
      <use xlink:href="#DejaVuSans-63" transform="translate(402.839844 0)"/>
      <use xlink:href="#DejaVuSans-72" transform="translate(457.820312 0)"/>
      <use xlink:href="#DejaVuSans-6f" transform="translate(496.683594 0)"/>
      <use xlink:href="#DejaVuSans-73" transform="translate(557.865234 0)"/>
      <use xlink:href="#DejaVuSans-69" transform="translate(609.964844 0)"/>
      <use xlink:href="#DejaVuSans-65" transform="translate(637.748047 0)"/>
      <use xlink:href="#DejaVuSans-6d" transform="translate(699.271484 0)"/>
      <use xlink:href="#DejaVuSans-65" transform="translate(796.683594 0)"/>
      <use xlink:href="#DejaVuSans-6e" transform="translate(858.207031 0)"/>
      <use xlink:href="#DejaVuSans-73" transform="translate(921.585938 0)"/>
      <use xlink:href="#DejaVuSans-29" transform="translate(973.685547 0)"/>
     </g>
    </g>
   </g>
   <g id="line2d_25">
    <path d="M 50.945 212.859108 
L 51.23459 219.3232 
L 51.524179 212.723011 
L 51.813769 212.723011 
L 52.103358 212.246715 
L 52.392948 205.714588 
L 52.682538 211.226076 
L 52.972127 212.178667 
L 53.261717 212.110618 
L 53.551306 211.498226 
L 53.840896 212.654962 
L 54.130486 212.654962 
L 54.420075 212.04257 
L 54.709665 213.063209 
L 55.288844 211.77042 
L 55.578434 212.110618 
L 55.868023 212.110618 
L 56.447202 212.314764 
L 56.736792 212.246715 
L 57.026382 212.791059 
L 57.315971 211.498226 
L 57.605561 210.885833 
L 57.89515 212.791059 
L 58.18474 211.566274 
L 58.474329 211.566274 
L 58.763919 211.838469 
L 59.053509 211.089979 
L 59.343098 211.158028 
L 59.632688 210.953882 
L 59.922277 210.545635 
L 60.211867 210.409538 
L 60.501457 210.545635 
L 60.791046 210.545635 
L 61.949405 208.300211 
L 62.238994 208.232162 
L 62.818173 207.211523 
L 63.107763 206.122835 
L 63.397353 205.64654 
L 63.686942 205.442394 
L 63.976532 205.034147 
L 64.266121 204.89805 
L 64.845301 204.013508 
L 65.13489 203.945459 
L 65.42448 204.013508 
L 66.003659 203.809362 
L 66.293249 202.856771 
L 66.872428 202.856771 
L 67.162017 202.312427 
L 67.451607 200.611347 
L 67.741197 201.155691 
L 68.030786 201.427841 
L 68.320376 201.291744 
L 68.609965 200.815448 
L 68.899555 200.679351 
L 69.189145 200.815448 
L 69.478734 199.72676 
L 69.768324 199.658712 
L 70.057913 199.046319 
L 70.347503 198.706121 
L 70.926682 198.638072 
L 71.216272 198.638072 
L 71.505861 198.77417 
L 72.08504 197.413287 
L 72.37463 197.073089 
L 72.66422 196.3246 
L 72.953809 196.460697 
L 73.243399 194.623519 
L 73.532988 194.351369 
L 73.822578 194.351369 
L 74.112168 193.738977 
L 74.691347 194.555471 
L 74.980936 194.759616 
L 75.270526 193.466783 
L 75.560116 194.215272 
L 75.849705 195.30396 
L 76.139295 194.691568 
L 76.428884 194.691568 
L 76.718474 195.440057 
L 77.008064 195.372009 
L 77.297653 195.916353 
L 77.587243 195.235912 
L 77.876832 195.372009 
L 78.456012 195.372009 
L 78.745601 195.235912 
L 79.32478 195.372009 
L 79.61437 195.30396 
L 79.90396 194.895713 
L 80.193549 191.425504 
L 80.772728 194.283321 
L 81.062318 191.969848 
L 81.351908 191.969848 
L 81.641497 193.194633 
L 82.220676 194.283321 
L 82.510266 194.215272 
L 82.799856 194.691568 
L 83.089445 193.807026 
L 83.379035 194.283321 
L 83.668624 194.147224 
L 83.958214 193.126584 
L 84.247804 193.058536 
L 84.537393 195.372009 
L 84.826983 192.105945 
L 85.406162 192.105945 
L 85.695752 192.514192 
L 86.274931 192.58224 
L 86.56452 192.173994 
L 86.85411 192.037897 
L 87.143699 191.425504 
L 87.433289 191.969848 
L 87.722879 191.017257 
L 88.012468 191.15331 
L 88.302058 190.949209 
L 88.591647 191.425504 
L 88.881237 191.425504 
L 89.460416 189.316177 
L 89.750006 191.425504 
L 90.329185 188.703784 
L 90.618775 189.792472 
L 90.908364 189.724424 
L 91.197954 189.112031 
L 91.487543 188.839881 
L 91.777133 187.274854 
L 92.066723 188.227489 
L 92.356312 187.138801 
L 92.645902 187.274854 
L 92.935491 187.206805 
L 93.225081 186.526409 
L 93.80426 187.683145 
L 94.383439 187.751194 
L 94.673029 186.73051 
L 94.962619 184.825328 
L 95.252208 185.982065 
L 95.541798 185.70987 
L 95.831387 187.070753 
L 96.120977 187.615096 
L 96.410567 187.070753 
L 97.279335 187.206805 
L 97.568925 187.070753 
L 97.858515 187.138801 
L 98.148104 187.002704 
L 98.437694 187.683145 
L 98.727283 187.615096 
L 99.016873 186.594457 
L 99.306463 186.594457 
L 99.885642 187.751194 
L 100.175231 187.070753 
L 100.464821 186.050113 
L 100.75441 187.002704 
L 101.044 187.138801 
L 101.33359 189.452229 
L 101.912769 186.526409 
L 102.202358 186.594457 
L 102.491948 187.002704 
L 102.781538 187.206805 
L 103.071127 180.674678 
L 103.360717 180.742726 
L 103.650306 181.831414 
L 103.939896 181.219022 
L 104.519075 183.396397 
L 105.387844 184.349033 
L 105.677434 184.349033 
L 105.967023 184.485085 
L 106.546202 183.872693 
L 106.835792 184.689231 
L 107.125382 184.349033 
L 107.414971 184.553134 
L 107.704561 183.804689 
L 107.99415 183.804689 
L 108.28374 184.417037 
L 108.57333 184.417037 
L 108.862919 185.029429 
L 109.152509 184.349033 
L 109.442098 184.961381 
L 109.731688 185.029429 
L 110.021278 184.212936 
L 110.310867 184.212936 
L 110.890046 184.689231 
L 111.179636 184.485085 
L 111.469226 183.396397 
L 111.758815 184.00879 
L 112.048405 183.940741 
L 112.337994 184.553134 
L 112.627584 184.280984 
L 112.917174 184.485085 
L 113.496353 184.417037 
L 113.785942 183.804689 
L 114.075532 183.940741 
L 114.365121 184.349033 
L 114.654711 184.349033 
L 114.944301 184.553134 
L 115.23389 184.417037 
L 115.52348 184.00879 
L 115.813069 182.171612 
L 116.102659 182.239661 
L 116.392249 181.899463 
L 116.681838 179.858184 
L 116.971428 175.775582 
L 117.261017 174.006453 
L 117.550607 167.406322 
L 117.840197 167.474103 
L 118.129786 170.536289 
L 118.998555 174.550797 
L 119.288145 174.550797 
L 119.577734 175.571437 
L 119.867324 175.639485 
L 120.446503 176.86427 
L 121.025682 176.592076 
L 121.315272 176.86427 
L 121.604861 178.021007 
L 121.894451 177.88491 
L 122.76322 179.722087 
L 123.052809 179.994237 
L 123.342399 179.517941 
L 124.500757 181.559265 
L 124.790347 180.742726 
L 125.079937 181.150973 
L 125.369526 181.763366 
L 125.659116 181.695317 
L 125.948705 182.171612 
L 126.238295 182.375758 
L 126.527885 182.715956 
L 127.107064 181.627269 
L 127.396653 181.627269 
L 127.686243 181.763366 
L 127.975832 182.239661 
L 128.265422 182.171612 
L 128.555012 181.219022 
L 128.844601 182.239661 
L 129.134191 182.852054 
L 130.00296 181.219022 
L 130.292549 181.082925 
L 130.582139 181.831414 
L 131.161318 181.695317 
L 131.740497 182.443807 
L 132.030087 182.239661 
L 132.319676 182.852054 
L 132.898856 182.171612 
L 133.188445 182.784005 
L 133.478035 182.988151 
L 133.767624 182.579904 
L 134.057214 182.784005 
L 134.346804 181.150973 
L 134.636393 180.470532 
L 134.925983 179.041646 
L 135.505162 174.959044 
L 135.794752 175.707534 
L 136.084341 175.639485 
L 136.373931 176.387975 
L 136.66352 176.319926 
L 136.95311 176.524027 
L 137.2427 177.816861 
L 137.532289 174.006453 
L 137.821879 171.693025 
L 138.111468 164.752606 
L 138.401058 163.731878 
L 138.690648 161.554413 
L 139.269827 153.389477 
L 139.559416 154.410205 
L 139.849006 148.966766 
L 140.138596 151.620036 
L 140.428185 147.741803 
L 140.717775 141.277635 
L 141.296954 144.747844 
L 141.586544 141.48187 
L 141.876133 144.680063 
L 142.165723 142.978849 
L 142.455312 144.611836 
L 142.744902 144.611836 
L 143.034491 145.90458 
L 144.772029 159.445175 
L 145.061619 156.043193 
L 145.351208 157.743961 
L 145.640798 158.764689 
L 146.509567 163.051392 
L 147.378335 165.297084 
L 147.667925 166.521602 
L 147.957515 166.861844 
L 148.247104 168.018581 
L 148.536694 168.018581 
L 148.826283 166.861844 
L 149.115873 163.800105 
L 149.405463 159.445175 
L 149.695052 158.288439 
L 150.563821 161.962883 
L 151.143 164.208129 
L 151.722179 165.297084 
L 152.011769 165.16063 
L 152.301359 166.997852 
L 152.590948 166.861844 
L 152.880538 166.997852 
L 153.170127 166.317367 
L 153.459717 165.092849 
L 153.749307 164.820833 
L 154.038896 166.317367 
L 154.328486 166.997852 
L 154.618075 168.086808 
L 155.197255 169.039309 
L 155.486844 170.127819 
L 155.776434 170.332054 
L 156.066023 170.672297 
L 156.355613 170.127819 
L 156.645202 171.48879 
L 156.934792 171.829033 
L 157.224382 172.373511 
L 157.513971 172.237503 
L 157.803561 173.053996 
L 158.09315 173.530247 
L 158.38274 173.598028 
L 158.67233 173.394239 
L 159.251509 174.482749 
L 159.541098 174.618846 
L 159.830688 174.550797 
L 160.120278 175.16319 
L 160.409867 174.959044 
L 160.699457 175.571437 
L 160.989046 175.571437 
L 161.278636 175.707534 
L 161.568226 175.571437 
L 161.857815 175.775582 
L 162.147405 175.843631 
L 162.726584 176.319926 
L 163.016174 176.86427 
L 163.305763 176.728173 
L 163.595353 176.86427 
L 163.884942 176.183829 
L 164.174532 176.86427 
L 164.464122 176.660125 
L 164.753711 177.476663 
L 165.043301 177.408614 
L 165.33289 177.476663 
L 165.62248 176.932319 
L 165.91207 175.979683 
L 166.491249 176.932319 
L 166.780838 176.456023 
L 167.360018 154.818229 
L 167.649607 156.519443 
L 167.939197 156.995694 
L 168.228786 158.152431 
L 168.807966 158.152431 
L 169.387145 162.167118 
L 169.676734 162.711149 
L 170.255913 164.956841 
L 171.124682 168.699067 
L 171.414272 168.63084 
L 172.86222 171.352782 
L 173.151809 171.216774 
L 173.730989 172.441292 
L 174.020578 171.965041 
L 174.599757 171.760806 
L 174.889347 173.053996 
L 175.178937 172.917543 
L 175.468526 173.530247 
L 176.047705 172.169276 
L 176.337295 172.441292 
L 176.626885 172.441292 
L 177.206064 173.530247 
L 177.495653 172.373511 
L 177.785243 169.243544 
L 178.364422 169.175317 
L 178.654012 169.311325 
L 179.233191 171.760806 
L 179.522781 171.829033 
L 180.10196 173.053996 
L 180.681139 173.121777 
L 180.970729 172.373511 
L 181.260318 172.373511 
L 181.549908 154.477986 
L 181.839497 157.131702 
L 182.129087 157.67618 
L 182.708266 160.873927 
L 182.997856 161.010381 
L 183.287445 162.643368 
L 183.577035 161.078162 
L 183.866624 158.764689 
L 184.445804 161.554413 
L 184.735393 161.962883 
L 185.024983 163.1874 
L 185.314572 159.989653 
L 185.604162 145.088087 
L 185.893752 145.224095 
L 186.183341 147.333333 
L 186.472931 151.75649 
L 186.76252 148.28628 
L 187.3417 153.865728 
L 187.631289 154.613994 
L 188.210468 156.451216 
L 188.500058 155.974966 
L 189.079237 145.156314 
L 189.658416 147.333333 
L 189.948006 144.475828 
L 190.237596 144.611836 
L 190.527185 135.289718 
L 190.816775 137.399401 
L 191.395954 144.611836 
L 191.685544 147.469787 
L 192.264723 150.599753 
L 192.554312 148.558296 
L 193.133492 147.877811 
L 193.423081 147.265552 
L 194.00226 148.490069 
L 194.58144 152.708991 
L 194.871029 152.640764 
L 195.739798 156.246982 
L 196.029388 156.791459 
L 196.318977 157.812188 
L 196.898156 158.764689 
L 197.187746 159.785418 
L 197.477336 158.900697 
L 198.056515 159.64941 
L 198.346104 158.628681 
L 198.635694 159.377394 
L 198.925283 159.377394 
L 199.214873 159.853645 
L 199.504463 160.806146 
L 199.794052 161.146389 
L 200.083642 160.942154 
L 200.662821 162.098891 
L 201.242 152.981007 
L 201.53159 151.688263 
L 201.821179 152.23274 
L 202.400359 156.451216 
L 202.689948 156.655451 
L 202.979538 156.043193 
L 203.269127 157.948196 
L 203.558717 157.607953 
L 203.848307 158.968924 
L 204.137896 158.832916 
L 204.427486 159.921426 
L 205.296255 161.486632 
L 205.585844 161.486632 
L 206.165023 149.579025 
L 207.323382 157.26771 
L 207.612971 157.607953 
L 208.192151 159.785418 
L 208.48174 160.601911 
L 208.77133 161.010381 
L 209.060919 161.62264 
L 209.350509 161.146389 
L 209.640099 162.643368 
L 209.929688 163.323854 
L 210.219278 163.664097 
L 210.508867 163.664097 
L 210.798457 163.800105 
L 211.088047 164.344137 
L 211.377636 161.010381 
L 211.667226 161.486632 
L 211.956815 161.010381 
L 212.535994 162.711149 
L 212.825584 163.119619 
L 213.115174 163.1874 
L 213.404763 161.486632 
L 213.694353 161.62264 
L 213.983942 162.030664 
L 214.273532 162.711149 
L 214.563122 160.533684 
L 214.852711 161.146389 
L 215.43189 162.575141 
L 215.72148 163.255627 
L 216.01107 163.051392 
L 216.300659 163.664097 
L 216.879838 159.853645 
L 217.169428 153.865728 
L 217.459018 152.708991 
L 217.748607 148.354061 
L 218.038197 139.576421 
L 219.196555 149.510798 
L 219.486145 149.170555 
L 220.065324 151.143785 
L 220.354914 150.599753 
L 220.644503 152.844999 
L 221.223682 154.954237 
L 222.092451 156.451216 
L 222.382041 157.67618 
L 222.67163 157.812188 
L 222.96122 158.152431 
L 223.25081 156.043193 
L 223.540399 155.29448 
L 224.119578 156.587224 
L 224.409168 157.880415 
L 224.698758 157.948196 
L 224.988347 158.288439 
L 225.277937 157.880415 
L 225.567526 158.220658 
L 225.857116 158.288439 
L 226.146705 156.110974 
L 226.436295 156.110974 
L 226.725885 156.519443 
L 227.015474 155.430488 
L 227.305064 156.043193 
L 227.594653 156.043193 
L 228.173833 149.443017 
L 229.042601 154.273751 
L 229.332191 155.838958 
L 229.621781 155.090245 
L 229.91137 155.498715 
L 230.20096 155.498715 
L 230.490549 156.587224 
L 230.780139 156.043193 
L 231.359318 157.199929 
L 231.648908 156.791459 
L 231.938497 157.812188 
L 232.228087 158.084204 
L 232.517677 158.900697 
L 232.807266 156.519443 
L 233.096856 146.244823 
L 233.386445 145.564338 
L 233.676035 146.040588 
L 234.544804 151.076004 
L 234.834393 151.076004 
L 235.123983 152.913226 
L 235.413573 153.865728 
L 235.703162 154.341978 
L 235.992752 152.913226 
L 236.282341 149.919268 
L 236.571931 149.579025 
L 236.861521 138.01166 
L 237.15111 140.597149 
L 237.4407 130.254748 
L 237.730289 133.044472 
L 238.309469 141.413643 
L 238.599058 144.611836 
L 238.888648 142.502598 
L 240.047006 148.422288 
L 240.336596 149.443017 
L 240.626185 150.055275 
L 240.915775 147.40156 
L 241.205364 148.490069 
L 241.494954 148.966766 
L 241.784544 150.055275 
L 242.074133 150.531526 
L 242.363723 151.620036 
L 242.653312 153.253469 
L 242.942902 151.688263 
L 243.232492 151.076004 
L 243.811671 153.865728 
L 244.10126 154.477986 
L 244.39085 153.253469 
L 244.970029 155.634723 
L 245.259619 155.498715 
L 245.549208 155.566942 
L 245.838798 155.022464 
L 246.417977 148.490069 
L 246.707567 146.857082 
L 247.286746 150.599753 
L 247.576336 152.708991 
L 248.155515 155.022464 
L 248.445104 154.886456 
L 248.734694 156.110974 
L 249.313873 156.995694 
L 249.603463 158.220658 
L 249.893052 158.424446 
L 250.182642 158.764689 
L 250.472232 158.832916 
L 250.761821 157.743961 
L 251.051411 158.900697 
L 251.341 158.220658 
L 252.209769 159.921426 
L 252.499359 159.309167 
L 252.788948 160.533684 
L 253.078538 161.146389 
L 253.368128 161.486632 
L 253.657717 162.370907 
L 254.236896 162.098891 
L 254.526486 162.711149 
L 254.816075 162.711149 
L 255.105665 162.030664 
L 255.395255 161.962883 
L 255.684844 162.030664 
L 256.264023 163.391635 
L 256.553613 163.119619 
L 256.843203 162.643368 
L 257.132792 163.800105 
L 257.422382 163.664097 
L 257.711971 163.800105 
L 258.291151 164.344137 
L 258.58074 164.344137 
L 258.87033 164.820833 
L 259.159919 163.59587 
L 259.449509 164.208129 
L 259.739099 163.731878 
L 260.028688 164.276356 
L 260.318278 164.412364 
L 260.607867 164.276356 
L 261.187047 165.433092 
L 261.476636 164.208129 
L 261.766226 164.344137 
L 262.055815 164.208129 
L 262.345405 164.684379 
L 262.634995 164.684379 
L 262.924584 164.208129 
L 263.214174 164.820833 
L 263.503763 164.412364 
L 263.793353 164.888614 
L 264.082943 164.684379 
L 264.372532 164.752606 
L 264.662122 164.140348 
L 264.951711 162.030664 
L 265.241301 161.62264 
L 265.530891 162.575141 
L 265.82048 161.962883 
L 266.399659 163.119619 
L 266.978839 164.276356 
L 267.268428 164.208129 
L 267.558018 165.433092 
L 267.847607 164.820833 
L 268.137197 157.607953 
L 268.716376 159.785418 
L 269.295555 161.010381 
L 269.874734 152.776772 
L 270.743503 155.974966 
L 271.033093 149.306563 
L 271.322682 149.579025 
L 271.612272 150.055275 
L 272.191451 153.797501 
L 272.481041 154.477986 
L 272.77063 153.865728 
L 273.06022 153.797501 
L 273.639399 154.886456 
L 274.508168 154.750448 
L 274.797758 155.838958 
L 275.087347 156.451216 
L 275.376937 155.158472 
L 275.666526 155.022464 
L 275.956116 155.362707 
L 276.245706 156.043193 
L 276.824885 155.974966 
L 277.114474 154.341978 
L 277.693654 155.430488 
L 277.983243 156.791459 
L 278.562422 154.954237 
L 278.852012 153.525485 
L 279.141602 142.298363 
L 279.431191 123.994815 
L 279.720781 126.17228 
L 280.879139 140.256906 
L 281.458318 144.067358 
L 281.747908 144.543609 
L 282.616677 147.877811 
L 282.906266 148.354061 
L 284.354214 154.001736 
L 284.643804 153.389477 
L 284.933393 154.410205 
L 286.091752 156.791459 
L 286.381341 157.131702 
L 286.670931 157.812188 
L 286.960521 157.743961 
L 287.25011 158.084204 
L 287.5397 158.220658 
L 288.118879 159.309167 
L 288.408469 158.152431 
L 288.698058 158.424446 
L 288.987648 159.309167 
L 289.277237 159.309167 
L 289.566827 159.921426 
L 289.856417 159.785418 
L 290.146006 160.397677 
L 290.435596 160.465903 
L 290.725185 160.873927 
L 291.014775 161.486632 
L 291.304365 160.397677 
L 291.593954 159.921426 
L 291.883544 159.853645 
L 292.173133 160.533684 
L 292.462723 160.193888 
L 293.041902 160.873927 
L 293.331492 158.220658 
L 293.621081 158.424446 
L 293.910671 158.152431 
L 295.069029 160.601911 
L 295.358619 161.010381 
L 295.648209 160.942154 
L 296.227388 161.010381 
L 296.516977 160.465903 
L 296.806567 156.791459 
L 297.096156 156.110974 
L 297.385746 156.655451 
L 297.675336 156.791459 
L 297.964925 157.335937 
L 298.254515 156.519443 
L 298.544104 156.655451 
L 299.123284 158.220658 
L 299.412873 158.900697 
L 299.702463 157.948196 
L 299.992052 159.309167 
L 300.281642 159.377394 
L 300.571232 159.309167 
L 300.860821 159.785418 
L 301.150411 160.533684 
L 301.44 160.806146 
L 301.72959 160.397677 
L 302.01918 160.465903 
L 302.308769 160.942154 
L 302.598359 161.146389 
L 302.887948 161.690421 
L 303.177538 161.554413 
L 303.467128 160.465903 
L 303.756717 160.465903 
L 304.915076 162.030664 
L 305.204665 162.098891 
L 305.494255 161.554413 
L 306.363024 161.690421 
L 306.652613 160.533684 
L 306.942203 160.465903 
L 307.231792 161.146389 
L 307.521382 161.486632 
L 307.810972 162.030664 
L 308.100561 161.962883 
L 308.390151 161.62264 
L 308.67974 161.62264 
L 308.96933 160.533684 
L 309.25892 162.030664 
L 309.548509 161.690421 
L 309.838099 161.962883 
L 310.127688 161.962883 
L 310.417278 162.779376 
L 310.706867 162.098891 
L 310.996457 162.234899 
L 311.286047 162.575141 
L 311.575636 163.255627 
L 312.154815 163.664097 
L 312.444405 163.323854 
L 312.733995 161.554413 
L 313.023584 161.486632 
L 313.602763 160.601911 
L 313.892353 160.942154 
L 314.181943 160.329896 
L 314.471532 160.942154 
L 314.761122 161.078162 
L 315.050711 160.329896 
L 315.340301 155.634723 
L 315.629891 148.422288 
L 315.91948 150.123502 
L 316.20907 140.392914 
L 316.498659 141.753885 
L 317.367428 149.510798 
L 317.657018 150.25951 
L 317.946607 149.646806 
L 318.815376 146.653293 
L 319.104966 146.857082 
L 319.394555 146.789301 
L 319.684145 148.422288 
L 319.973735 146.31305 
L 320.263324 146.653293 
L 320.842503 149.034547 
L 321.132093 149.646806 
L 321.421683 150.599753 
L 321.711272 151.007777 
L 322.290451 152.776772 
L 322.580041 152.708991 
L 322.869631 153.32125 
L 323.15922 153.253469 
L 323.738399 154.341978 
L 324.027989 154.750448 
L 324.317578 156.043193 
L 324.607168 156.110974 
L 324.896758 156.519443 
L 325.186347 157.131702 
L 325.475937 157.131702 
L 326.344706 158.900697 
L 326.634295 159.64941 
L 326.923885 159.377394 
L 327.213474 159.377394 
L 327.792654 160.533684 
L 328.082243 160.533684 
L 328.371833 159.24094 
L 328.661422 160.397677 
L 328.951012 161.078162 
L 329.530191 160.873927 
L 329.819781 160.942154 
L 330.10937 160.670138 
L 330.68855 162.167118 
L 330.978139 162.234899 
L 331.557318 162.643368 
L 331.846908 162.711149 
L 332.426087 163.391635 
L 332.715677 163.1874 
L 333.005266 162.439134 
L 333.294856 162.643368 
L 333.584446 163.255627 
L 333.874035 162.711149 
L 334.163625 163.323854 
L 334.453214 161.962883 
L 334.742804 162.711149 
L 335.032394 163.051392 
L 335.321983 163.731878 
L 336.190752 163.800105 
L 336.480342 164.412364 
L 336.769931 164.208129 
L 337.059521 164.276356 
L 337.34911 164.820833 
L 337.6387 164.752606 
L 337.928289 164.412364 
L 338.217879 165.433092 
L 338.507469 165.364865 
L 338.797058 166.385594 
L 339.086648 166.521602 
L 339.376237 166.997852 
L 339.955417 167.134306 
L 340.245006 167.610557 
L 340.824185 167.474103 
L 341.113775 168.086808 
L 341.403365 167.54233 
L 341.692954 168.018581 
L 341.982544 167.9508 
L 342.272133 168.494832 
L 342.561723 168.63084 
L 342.851313 168.358824 
L 343.140902 168.494832 
L 343.430492 168.494832 
L 343.720081 169.107536 
L 344.009671 169.311325 
L 344.299261 169.107536 
L 344.58885 169.107536 
L 344.87844 169.583787 
L 345.457619 169.651568 
L 345.747209 170.264273 
L 346.036798 170.264273 
L 346.326388 169.243544 
L 346.615977 170.196046 
L 346.905567 170.127819 
L 347.195157 170.808305 
L 347.774336 170.944312 
L 348.063925 170.127819 
L 348.353515 170.944312 
L 348.643105 171.216774 
L 349.222284 171.284555 
L 349.511873 171.352782 
L 349.801463 171.829033 
L 350.091053 171.89726 
L 350.670232 171.829033 
L 350.959821 172.509519 
L 351.539001 172.441292 
L 352.407769 172.441292 
L 352.697359 172.849762 
L 354.145307 173.121777 
L 354.434896 173.46202 
L 354.724486 173.394239 
L 355.014076 173.598028 
L 355.303665 173.46202 
L 355.593255 173.46202 
L 355.882844 174.210599 
L 356.172434 174.142551 
L 356.462024 173.734482 
L 356.751613 174.006453 
L 357.041203 173.598028 
L 357.620382 173.530247 
L 357.909972 173.938271 
L 358.199561 174.142551 
L 358.489151 174.142551 
L 358.77874 173.938271 
L 359.06833 174.618846 
L 359.35792 174.482749 
L 359.937099 174.618846 
L 360.516278 168.494832 
L 360.805868 168.699067 
L 361.095457 168.427051 
L 361.385047 168.563059 
L 361.674636 168.154589 
L 361.964226 168.018581 
L 363.122584 163.664097 
L 363.412174 163.731878 
L 363.701764 163.527643 
L 364.280943 165.297084 
L 364.570532 165.433092 
L 364.860122 165.433092 
L 365.728891 161.62264 
L 366.01848 161.62264 
L 366.597659 157.812188 
L 366.887249 158.832916 
L 367.176839 159.309167 
L 367.466428 159.309167 
L 367.756018 152.708991 
L 368.045607 148.966766 
L 368.335197 149.102774 
L 368.624787 147.877811 
L 368.914376 149.510798 
L 369.203966 150.123502 
L 369.783145 153.457258 
L 370.072735 152.436975 
L 370.362324 149.987049 
L 370.651914 150.463299 
L 370.941503 151.824271 
L 371.231093 150.735761 
L 371.520683 152.844999 
L 371.810272 151.007777 
L 372.099862 152.164513 
L 372.389451 152.164513 
L 372.679041 152.844999 
L 372.968631 150.463299 
L 373.25822 140.937392 
L 373.54781 142.978849 
L 373.837399 141.413643 
L 374.416579 143.999577 
L 374.706168 131.411484 
L 374.995758 133.65673 
L 375.285347 128.281518 
L 375.574937 130.799226 
L 375.864527 129.982732 
L 376.154116 122.769852 
L 376.733295 115.217174 
L 377.022885 119.43565 
L 377.312475 105.963283 
L 377.602064 112.903701 
L 377.891654 115.081166 
L 378.181243 106.303525 
L 378.470833 115.557417 
L 379.050012 123.858807 
L 379.339602 126.648531 
L 379.629191 121.000856 
L 379.918781 121.205091 
L 380.20837 100.383835 
L 380.49796 108.072521 
L 380.78755 104.330295 
L 381.077139 103.105332 
L 381.656318 108.821233 
L 381.945908 95.484428 
L 382.235498 95.484428 
L 382.814677 104.670538 
L 383.104266 93.85144 
L 383.973035 111.678738 
L 384.262625 112.767693 
L 384.552214 110.249986 
L 384.841804 97.594112 
L 385.420983 102.629081 
L 385.710573 106.915784 
L 386.000162 108.616998 
L 386.289752 105.895056 
L 386.579342 110.385993 
L 386.868931 109.297484 
L 387.158521 113.039709 
L 387.44811 112.971928 
L 387.7377 110.318212 
L 388.316879 114.740923 
L 389.185648 122.089366 
L 389.475238 121.81735 
L 389.764827 126.035826 
L 390.054417 123.246102 
L 390.344006 123.926588 
L 390.633596 105.895056 
L 390.923186 104.806546 
L 391.791954 120.048355 
L 392.371134 126.512523 
L 393.239902 132.09197 
L 393.819081 134.813467 
L 395.267029 140.189125 
L 395.556619 141.822112 
L 395.846209 141.95812 
L 396.135798 142.978849 
L 396.425388 143.591108 
L 396.714977 137.943433 
L 397.004567 127.601032 
L 397.294157 127.260789 
L 397.583746 127.192562 
L 397.873336 128.213291 
L 398.162925 130.390756 
L 398.452515 131.207249 
L 398.742105 132.499994 
L 399.031694 134.337216 
L 399.321284 134.269435 
L 399.900463 136.446454 
L 400.479642 134.269435 
L 401.058821 136.378673 
L 401.92759 136.922705 
L 402.506769 139.10017 
L 403.375538 140.733157 
L 403.665128 140.325133 
L 403.954717 137.195167 
L 404.244307 139.10017 
L 404.533897 139.644647 
L 404.823486 141.005619 
L 405.402665 142.638606 
L 406.271434 143.93135 
L 406.561024 143.4551 
L 406.850613 143.999577 
L 407.140203 145.088087 
L 407.429793 145.156314 
L 407.719382 145.836799 
L 408.008972 143.4551 
L 408.298561 138.01166 
L 408.588151 139.780655 
L 408.87774 135.62996 
L 410.325688 141.822112 
L 410.615278 141.277635 
L 410.904868 136.378673 
L 411.194457 142.978849 
L 411.484047 142.434371 
L 411.773636 142.434371 
L 412.063226 142.570379 
L 412.352816 142.502598 
L 412.642405 139.712874 
L 412.931995 135.357944 
L 413.511174 138.896381 
L 413.800764 139.168397 
L 414.090353 139.712874 
L 414.669532 141.822112 
L 414.959122 142.570379 
L 415.248712 142.502598 
L 415.827891 144.067358 
L 416.11748 144.543609 
L 416.40707 126.988773 
L 416.69666 132.159751 
L 417.275839 136.446454 
L 417.565428 139.644647 
L 417.855018 140.189125 
L 418.144608 142.36659 
L 418.434197 143.523327 
L 418.723787 143.04663 
L 419.302966 145.768573 
L 419.592556 146.176596 
L 419.882145 147.333333 
L 420.171735 147.469787 
L 420.750914 148.422288 
L 421.330093 147.265552 
L 421.909272 148.490069 
L 422.198862 149.715033 
L 422.488451 149.102774 
L 423.067631 148.762531 
L 423.35722 148.966766 
L 423.64681 149.443017 
L 423.936399 149.443017 
L 424.225989 149.579025 
L 424.515579 150.463299 
L 424.805168 147.877811 
L 425.094758 148.013818 
L 425.384347 146.585066 
L 425.673937 147.877811 
L 425.963527 148.354061 
L 426.253116 148.490069 
L 426.542706 148.013818 
L 427.121885 148.966766 
L 427.411475 149.510798 
L 427.990654 149.715033 
L 428.569833 147.061317 
L 428.859423 148.490069 
L 429.149012 148.966766 
L 429.438602 148.966766 
L 429.728191 147.333333 
L 430.017781 140.733157 
L 430.307371 141.277635 
L 430.59696 140.801384 
L 430.88655 141.889893 
L 431.465729 139.304405 
L 431.755319 126.648531 
L 432.044908 128.14551 
L 432.334498 128.077283 
L 432.624087 130.254748 
L 432.913677 131.003015 
L 433.203267 133.452941 
L 433.492856 134.677459 
L 433.782446 133.65673 
L 434.940804 138.01166 
L 435.519983 138.692146 
L 435.809573 139.780655 
L 436.099162 139.644647 
L 436.388752 140.869611 
L 436.967931 136.242665 
L 437.257521 132.023743 
L 437.54711 118.347141 
L 437.8367 123.858807 
L 438.12629 126.035826 
L 438.415879 125.627802 
L 438.705469 123.382556 
L 439.284648 128.757769 
L 439.574238 127.669259 
L 439.863827 128.825996 
L 440.153417 127.192562 
L 440.443006 128.893777 
L 440.732596 129.914505 
L 441.022186 129.642489 
L 441.311775 105.895056 
L 441.601365 96.641164 
L 442.470134 113.856203 
L 442.759723 106.303525 
L 443.049313 109.297484 
L 443.338902 107.936513 
L 443.918082 117.666655 
L 444.78685 127.124781 
L 445.36603 129.370027 
L 445.945209 132.772456 
L 446.234798 134.813467 
L 447.103567 138.01166 
L 447.972336 141.549651 
L 448.261926 141.753885 
L 448.551515 142.978849 
L 448.841105 143.523327 
L 449.130694 144.680063 
L 449.420284 141.48187 
L 449.709873 141.345862 
L 449.999463 140.801384 
L 450.289053 142.36659 
L 450.578642 141.686104 
L 450.868232 142.910622 
L 451.157821 142.36659 
L 451.447411 143.93135 
L 452.02659 144.135585 
L 452.31618 145.292322 
L 452.605769 145.768573 
L 452.895359 145.700346 
L 453.184949 145.768573 
L 453.474538 146.789301 
L 453.764128 147.333333 
L 454.053717 142.434371 
L 454.343307 142.910622 
L 454.632897 142.910622 
L 454.922486 143.386873 
L 455.501665 145.292322 
L 455.791255 144.611836 
L 456.080845 142.502598 
L 456.370434 143.523327 
L 456.660024 144.067358 
L 456.949613 141.753885 
L 457.239203 143.591108 
L 457.528793 142.842841 
L 457.818382 144.135585 
L 458.107972 143.4551 
L 458.397561 145.088087 
L 458.687151 145.700346 
L 458.976741 145.088087 
L 459.26633 145.156314 
L 460.714278 147.877811 
L 461.003868 147.810029 
L 461.293457 147.469787 
L 461.872637 148.558296 
L 462.162226 147.469787 
L 462.451816 147.810029 
L 462.741405 147.333333 
L 463.030995 144.680063 
L 463.320585 144.067358 
L 463.610174 144.135585 
L 463.899764 141.889893 
L 464.189353 141.889893 
L 464.478943 142.434371 
L 464.768532 141.753885 
L 465.058122 141.95812 
L 465.347712 125.899818 
L 465.637301 120.048355 
L 465.926891 111.270714 
L 466.21648 108.072521 
L 466.50607 106.50776 
L 466.79566 107.528489 
L 467.085249 95.961124 
L 467.374839 97.525885 
L 467.664428 87.183484 
L 467.954018 92.150672 
L 468.533197 72.553934 
L 469.112376 80.174838 
L 469.691556 92.218453 
L 469.981145 95.076404 
L 470.270735 83.509039 
L 470.849914 93.239182 
L 471.139504 96.097132 
L 471.429093 100.860086 
L 471.718683 102.357065 
L 472.008272 92.150672 
L 472.297862 91.810429 
L 472.587452 94.804388 
L 472.877041 90.585466 
L 473.166631 95.416647 
L 473.45622 96.164913 
L 473.74581 93.37519 
L 474.0354 94.191683 
L 474.324989 96.097132 
L 474.614579 100.58807 
L 474.904168 102.5613 
L 475.772937 111.746965 
L 476.062527 112.903701 
L 476.352116 114.536688 
L 476.641706 113.788422 
L 477.220885 112.835474 
L 478.089654 118.823391 
L 478.379243 112.291443 
L 478.668833 115.761652 
L 478.958423 116.645926 
L 479.248012 116.781934 
L 479.537602 117.734882 
L 479.827191 117.122177 
L 480.116781 120.116136 
L 480.406371 121.885577 
L 480.69596 122.769852 
L 480.98555 125.695583 
L 481.275139 125.491794 
L 481.564729 123.178321 
L 481.854319 123.858807 
L 482.143908 119.980128 
L 482.433498 121.000856 
L 482.723087 122.633844 
L 483.012677 122.157593 
L 483.591856 126.104053 
L 484.460625 129.370027 
L 484.750215 129.302246 
L 485.039804 125.899818 
L 485.329394 126.104053 
L 485.618983 127.805267 
L 486.198163 129.438254 
L 486.487752 128.281518 
L 486.777342 128.757769 
L 487.066931 129.914505 
L 487.9357 131.547492 
L 488.22529 123.994815 
L 488.804469 127.669259 
L 489.383648 125.491794 
L 489.673238 119.572104 
L 489.962827 119.572104 
L 490.542007 98.138143 
L 490.831596 95.280639 
L 491.121186 94.327691 
L 491.410775 75.411884 
L 491.700365 75.207649 
L 491.989954 85.074246 
L 492.279544 85.278034 
L 492.569134 91.197725 
L 492.858723 88.884252 
L 493.148313 87.727515 
L 493.437902 90.245223 
L 493.727492 71.465424 
L 494.017082 75.888135 
L 494.306671 75.071641 
L 494.596261 80.719316 
L 494.88585 80.174838 
L 495.17544 81.740044 
L 495.46503 74.11914 
L 495.754619 74.255148 
L 496.044209 80.379073 
L 496.623388 95.34842 
L 497.202567 100.383835 
L 497.492157 98.750848 
L 498.071336 106.439533 
L 498.650515 112.359224 
L 499.808874 118.415368 
L 500.098463 117.87089 
L 500.677642 105.827275 
L 500.967232 105.215016 
L 501.546411 111.338495 
L 501.836001 110.522001 
L 502.12559 112.42745 
L 502.41518 102.016822 
L 502.70477 86.162755 
L 502.994359 81.876052 
L 503.573538 102.15283 
L 503.863128 108.140748 
L 504.152718 110.658455 
L 504.442307 115.217174 
L 504.731897 117.190404 
L 505.021486 111.746965 
L 505.600665 118.415368 
L 505.890255 120.388598 
L 506.179845 120.048355 
L 506.469434 122.22582 
L 506.759024 122.838078 
L 507.048613 124.335058 
L 507.627793 128.417526 
L 507.917382 126.512523 
L 508.206972 126.512523 
L 508.496561 111.882973 
L 508.786151 109.705508 
L 509.075741 112.903701 
L 509.65492 98.818629 
L 509.944509 79.154109 
L 510.234099 76.364386 
L 510.813278 95.34842 
L 511.102868 98.682621 
L 511.392457 104.330295 
L 511.682047 104.194287 
L 511.971637 102.357065 
L 512.261226 74.799625 
L 512.550816 80.583308 
L 513.129995 99.363107 
L 513.709174 109.025022 
L 513.998764 112.495231 
L 514.288353 112.359224 
L 514.867533 116.237903 
L 516.025891 123.246102 
L 516.60507 127.124781 
L 516.89466 128.825996 
L 517.473839 130.935234 
L 517.763429 131.479265 
L 518.053018 133.112699 
L 518.342608 133.724957 
L 518.921787 135.902422 
L 519.211377 138.147668 
L 519.500966 136.922705 
L 519.790556 137.399401 
L 520.369735 140.256906 
L 520.659324 140.120898 
L 520.948914 140.665376 
L 521.238504 142.094128 
L 521.528093 142.502598 
L 521.817683 141.277635 
L 522.107272 142.434371 
L 522.686452 143.659334 
L 523.265631 144.475828 
L 523.55522 145.224095 
L 523.84481 145.632565 
L 524.1344 146.244823 
L 524.423989 146.31305 
L 524.713579 148.082045 
L 525.003168 146.857082 
L 525.871937 148.626523 
L 526.161527 148.354061 
L 526.740706 149.443017 
L 527.030296 139.712874 
L 527.319885 141.277635 
L 527.609475 141.822112 
L 527.899064 141.95812 
L 528.188654 142.36659 
L 528.767833 144.33982 
L 529.057423 139.848882 
L 529.347012 141.889893 
L 529.636602 142.434371 
L 529.926192 140.120898 
L 530.215781 141.753885 
L 530.505371 135.289718 
L 530.79496 117.190404 
L 531.08455 113.92443 
L 531.37414 115.012939 
L 531.663729 115.148947 
L 531.953319 119.43565 
L 533.111677 128.14551 
L 533.690856 130.935234 
L 533.980446 131.071242 
L 534.270035 125.968045 
L 534.559625 125.559575 
L 534.849215 124.539293 
L 535.138804 125.423567 
L 535.428394 120.524606 
L 535.717983 121.681342 
L 536.007573 117.87089 
L 536.297163 111.338495 
L 536.586752 115.148947 
L 536.876342 111.815192 
L 537.165931 113.992211 
L 537.455521 84.529768 
L 538.0347 78.541851 
L 538.32429 79.154109 
L 538.613879 69.76421 
L 539.482648 94.940396 
L 539.772238 100.928313 
L 540.061827 104.12606 
L 540.641007 113.651968 
L 540.930596 114.672696 
L 541.509775 118.959399 
L 541.799365 117.326412 
L 543.247313 126.580304 
L 543.536903 128.281518 
L 543.826492 128.14551 
L 544.405671 130.935234 
L 544.695261 129.778497 
L 544.984851 131.479265 
L 545.56403 133.724957 
L 545.853619 133.65673 
L 546.143209 134.813467 
L 546.432799 133.65673 
L 546.722388 134.813467 
L 547.011978 134.269435 
L 547.301567 130.458983 
L 547.591157 129.234019 
L 547.880746 126.580304 
L 548.170336 128.14551 
L 549.039105 129.574262 
L 549.618284 132.09197 
L 549.907874 104.874773 
L 550.197463 96.505156 
L 550.487053 101.880815 
L 550.776642 95.484428 
L 551.355822 105.895056 
L 551.935001 112.563458 
L 552.51418 116.714153 
L 553.093359 114.536688 
L 553.382949 115.625198 
L 553.962128 119.980128 
L 554.541307 122.157593 
L 554.830897 121.545334 
L 555.120486 122.22582 
L 555.410076 123.382556 
L 555.699666 123.79058 
L 555.989255 125.491794 
L 556.278845 122.838078 
L 556.568434 125.015543 
L 556.858024 121.613115 
L 557.147614 114.604915 
L 557.437203 116.645926 
L 558.016382 122.293601 
L 558.305972 123.79058 
L 558.595562 125.968045 
L 558.885151 117.802663 
L 559.174741 120.048355 
L 559.46433 114.468462 
L 559.75392 115.965441 
L 560.333099 121.681342 
L 560.622689 121.069083 
L 560.912278 117.938671 
L 561.201868 105.62304 
L 561.491457 106.915784 
L 562.070637 115.081166 
L 562.360226 113.311725 
L 562.649816 115.625198 
L 563.228995 106.03151 
L 563.518585 106.848003 
L 563.808174 109.5695 
L 564.097764 110.726236 
L 564.387353 93.85144 
L 564.676943 101.812588 
L 564.966533 106.439533 
L 565.256122 107.664497 
L 565.545712 110.590228 
L 565.835301 109.161476 
L 566.124891 106.915784 
L 566.70407 111.882973 
L 566.99366 104.262068 
L 567.283249 102.016822 
L 567.572839 90.585466 
L 567.862429 92.218453 
L 568.441608 78.677859 
L 568.731197 63.164034 
L 569.599966 84.870011 
L 569.889556 74.799625 
L 570.179145 70.920946 
L 570.468735 64.320771 
L 571.047914 55.679584 
L 571.337504 65.681742 
L 571.627093 56.699866 
L 571.916683 64.933475 
L 572.495862 86.639006 
L 572.785452 93.37519 
L 573.075041 95.620881 
L 574.522989 113.651968 
L 575.102169 117.734882 
L 575.391758 115.217174 
L 575.970937 119.912347 
L 576.550116 123.314329 
L 576.839706 126.104053 
L 577.129296 126.648531 
L 577.418885 125.355786 
L 577.708475 127.396797 
L 577.998064 127.329016 
L 578.287654 127.601032 
L 578.577244 129.438254 
L 579.156423 131.411484 
L 579.446012 132.023743 
L 579.735602 133.112699 
L 580.025192 133.248706 
L 580.604371 135.357944 
L 582.052319 138.01166 
L 582.631498 139.98489 
L 582.921088 140.529368 
L 583.210677 140.801384 
L 584.079446 142.298363 
L 584.369036 142.978849 
L 584.658625 142.910622 
L 584.948215 144.135585 
L 585.237804 142.094128 
L 585.816984 143.4551 
L 586.685752 145.224095 
L 586.975342 145.700346 
L 587.264932 145.768573 
L 587.554521 146.244823 
L 587.844111 146.244823 
L 588.1337 146.721074 
L 588.42329 147.469787 
L 588.71288 147.810029 
L 589.292059 147.877811 
L 589.581648 143.523327 
L 589.871238 142.842841 
L 590.160827 140.189125 
L 590.450417 140.869611 
L 590.740007 141.209854 
L 591.029596 141.95812 
L 591.319186 141.889893 
L 591.608775 142.434371 
L 591.898365 142.026347 
L 592.187955 141.277635 
L 592.477544 140.869611 
L 593.056723 139.644647 
L 593.346313 139.780655 
L 593.635903 136.378673 
L 593.925492 136.446454 
L 594.215082 129.982732 
L 594.504671 129.982732 
L 594.794261 127.805267 
L 595.083851 126.648531 
L 595.37344 126.580304 
L 595.66303 126.648531 
L 596.242209 127.601032 
L 596.821388 129.778497 
L 597.110978 125.423567 
L 597.400567 124.471066 
L 597.690157 124.402839 
L 597.979747 126.376069 
L 598.269336 126.580304 
L 598.558926 128.14551 
L 598.848515 117.802663 
L 599.427695 121.81735 
L 599.717284 123.314329 
L 600.006874 118.823391 
L 600.296463 121.681342 
L 600.586053 123.382556 
L 600.875643 126.104053 
L 601.165232 127.669259 
L 601.454822 125.423567 
L 601.744411 118.278914 
L 602.034001 121.681342 
L 602.323591 121.885577 
L 602.90277 125.559575 
L 603.192359 126.648531 
L 603.771538 129.438254 
L 604.350718 131.479265 
L 604.640307 132.023743 
L 604.929897 132.840237 
L 605.219486 132.976245 
L 605.509076 133.929192 
L 605.798666 133.18048 
L 606.088255 129.370027 
L 606.377845 127.805267 
L 606.667434 115.625198 
L 606.957024 109.5695 
L 607.246614 97.253869 
L 607.536203 95.34842 
L 607.825793 97.049634 
L 608.115382 96.981407 
L 608.404972 83.440812 
L 608.984151 68.743481 
L 609.273741 50.303925 
L 610.14251 69.900218 
L 610.432099 79.154109 
L 610.721689 82.760773 
L 611.300868 93.919667 
L 612.169637 106.303525 
L 612.459226 109.773735 
L 612.748816 104.058279 
L 613.327995 108.548771 
L 613.617585 110.249986 
L 613.907174 109.773735 
L 614.775943 117.530647 
L 615.355122 119.980128 
L 615.644712 118.891618 
L 615.934302 117.326412 
L 616.223891 113.856203 
L 616.513481 113.584187 
L 616.80307 111.815192 
L 617.382249 112.835474 
L 617.671839 115.081166 
L 617.961429 109.297484 
L 618.251018 112.563458 
L 619.409377 118.959399 
L 619.698966 114.672696 
L 619.988556 116.101895 
L 620.278145 118.415368 
L 620.567735 118.415368 
L 620.857325 108.00474 
L 621.146914 109.637727 
L 621.436504 103.037551 
L 621.726093 101.472345 
L 622.594862 113.448179 
L 622.884452 115.625198 
L 623.174041 114.604915 
L 623.753221 118.347141 
L 624.3324 120.524606 
L 624.621989 114.060438 
L 625.201169 117.734882 
L 625.490758 117.938671 
L 625.780348 116.101895 
L 626.069937 117.802663 
L 626.359527 110.862244 
L 626.938706 115.557417 
L 627.517885 113.448179 
L 627.807475 99.29488 
L 628.097065 99.431334 
L 628.386654 94.872169 
L 628.676244 94.25991 
L 628.965833 95.484428 
L 629.255423 89.020706 
L 629.545013 87.251265 
L 629.834602 84.053517 
L 630.124192 79.154109 
L 630.413781 62.75601 
L 630.703371 69.628202 
L 630.992961 65.681742 
L 631.28255 68.131223 
L 631.57214 72.622161 
L 631.861729 79.086328 
L 632.151319 81.195566 
L 632.730498 66.498235 
L 633.020088 63.232261 
L 633.309677 72.009902 
L 633.599267 75.343657 
L 633.888856 74.050913 
L 634.757625 79.018101 
L 635.047215 82.828554 
L 635.336804 27.237423 
L 635.626394 26.692946 
L 635.915984 33.157113 
L 636.784752 71.873448 
L 637.653521 92.694704 
L 637.943111 92.694704 
L 638.2327 98.61484 
L 638.81188 104.738319 
L 639.101469 105.351024 
L 639.391059 108.616998 
L 639.970238 112.291443 
L 640.259828 115.148947 
L 641.997365 123.314329 
L 642.286955 124.130823 
L 642.576544 126.104053 
L 643.155724 128.213291 
L 643.445313 127.669259 
L 644.893261 132.499994 
L 645.182851 133.248706 
L 645.76203 134.201208 
L 646.051619 134.813467 
L 646.341209 134.745686 
L 646.920388 136.990932 
L 647.209978 136.922705 
L 647.499567 137.60319 
L 647.789157 137.943433 
L 648.078747 135.289718 
L 648.368336 135.221937 
L 648.657926 136.446454 
L 649.237105 137.535409 
L 649.526695 138.556138 
L 649.816284 136.922705 
L 650.105874 137.467182 
L 650.974643 140.529368 
L 651.264232 139.576421 
L 652.133001 141.277635 
L 652.422591 141.277635 
L 653.00177 142.434371 
L 653.291359 143.523327 
L 653.580949 138.623919 
L 653.870539 138.964162 
L 654.160128 136.378673 
L 654.739307 138.079441 
L 655.028897 135.357944 
L 655.318487 134.132981 
L 655.608076 132.023743 
L 655.897666 132.908464 
L 656.187255 131.547492 
L 656.476845 119.980128 
L 656.766435 118.006898 
L 657.056024 119.027626 
L 657.345614 118.959399 
L 657.635203 119.367869 
L 657.924793 119.027626 
L 658.214383 120.116136 
L 658.503972 122.157593 
L 658.793562 113.379952 
L 659.083151 110.726236 
L 659.66233 115.761652 
L 659.95192 113.992211 
L 660.531099 115.081166 
L 660.820689 113.788422 
L 661.110278 114.128665 
L 661.689458 92.150672 
L 661.979047 90.585466 
L 662.268637 74.867406 
L 662.847816 67.110494 
L 663.137406 62.211533 
L 663.716585 48.058679 
L 664.006174 47.990452 
L 664.295764 37.035347 
L 665.164533 65.953758 
L 665.454122 62.75601 
L 666.033302 68.063442 
L 666.322891 60.510318 
L 666.612481 62.75601 
L 666.90207 65.885977 
L 667.19166 66.566462 
L 667.48125 63.912747 
L 667.770839 66.974486 
L 668.060429 64.388997 
L 668.350018 59.421809 
L 668.639608 57.92483 
L 668.929198 60.646326 
L 669.218787 69.287959 
L 669.508377 71.941675 
L 669.797966 77.453341 
L 670.377146 84.529768 
L 670.666735 84.461541 
L 671.535504 96.505156 
L 671.825094 99.227099 
L 672.114683 95.416647 
L 672.693862 102.5613 
L 672.983452 102.424846 
L 673.273041 101.880815 
L 674.14181 109.637727 
L 674.4314 109.161476 
L 674.720989 107.324254 
L 675.300169 109.705508 
L 675.589758 110.726236 
L 675.879348 105.282797 
L 676.458527 111.882973 
L 676.748117 112.495231 
L 677.037706 115.081166 
L 677.327296 115.353182 
L 677.616885 115.012939 
L 677.906475 115.081166 
L 678.196065 116.781934 
L 678.485654 117.190404 
L 678.775244 118.347141 
L 679.064833 120.048355 
L 679.354423 120.524606 
L 679.644013 121.681342 
L 679.933602 122.22582 
L 680.802371 126.376069 
L 681.091961 126.444296 
L 681.38155 127.669259 
L 681.67114 128.213291 
L 681.960729 127.056554 
L 682.250319 128.349299 
L 682.539909 128.689542 
L 682.829498 127.124781 
L 683.119088 127.056554 
L 683.408677 128.213291 
L 683.698267 128.825996 
L 683.987857 128.349299 
L 684.567036 129.914505 
L 685.146215 130.458983 
L 685.435805 131.615719 
L 686.014984 132.499994 
L 686.304573 133.112699 
L 686.594163 132.636002 
L 686.883753 132.636002 
L 687.173342 133.65673 
L 687.462932 132.023743 
L 687.752521 123.382556 
L 688.3317 127.124781 
L 688.62129 126.035826 
L 688.91088 122.633844 
L 689.490059 126.104053 
L 689.779648 127.192562 
L 690.069238 127.192562 
L 690.358828 126.988773 
L 690.648417 127.056554 
L 691.227596 129.302246 
L 691.517186 128.14551 
L 691.806776 129.574262 
L 692.385955 130.867007 
L 692.675544 132.363986 
L 692.965134 132.023743 
L 693.254724 130.867007 
L 693.544313 131.547492 
L 693.833903 131.547492 
L 694.123492 132.772456 
L 695.281851 134.745686 
L 695.57144 134.881694 
L 695.86103 133.588949 
L 696.15062 134.132981 
L 696.440209 134.337216 
L 696.729799 135.357944 
L 697.019388 135.357944 
L 697.308978 135.902422 
L 697.598568 137.059159 
L 697.888157 136.854924 
L 698.177747 136.514681 
L 698.467336 136.990932 
L 698.756926 136.854924 
L 699.336105 137.943433 
L 699.625695 138.147668 
L 699.915284 137.943433 
L 700.204874 137.60319 
L 700.494464 137.943433 
L 700.784053 137.60319 
L 701.073643 139.576421 
L 701.363232 140.189125 
L 701.652822 140.053117 
L 701.942411 135.766414 
L 702.232001 118.278914 
L 702.81118 121.205091 
L 703.10077 122.702071 
L 703.390359 124.87909 
L 703.969539 121.000856 
L 704.259128 122.157593 
L 704.548718 122.702071 
L 705.127897 125.968045 
L 705.996666 129.234019 
L 706.286255 129.642489 
L 706.575845 130.458983 
L 706.865435 130.322529 
L 707.155024 131.887735 
L 708.023793 133.65673 
L 708.313383 134.201208 
L 708.602972 133.044472 
L 708.892562 134.132981 
L 709.182151 113.992211 
L 709.471741 116.781934 
L 709.761331 118.347141 
L 710.05092 118.959399 
L 710.34051 116.781934 
L 710.630099 116.645926 
L 710.919689 118.891618 
L 711.209279 117.598874 
L 711.498868 118.278914 
L 711.788458 109.5695 
L 712.078047 88.884252 
L 712.367637 89.496956 
L 712.946816 99.29488 
L 713.236406 102.084603 
L 713.525995 87.795742 
L 713.815585 88.271993 
L 714.394764 100.1796 
L 714.684354 86.775014 
L 715.263533 96.028905 
L 715.553122 95.144631 
L 715.842712 94.804388 
L 717.58025 110.318212 
L 717.869839 112.42745 
L 718.159429 108.140748 
L 718.449018 100.451616 
L 718.738608 100.791859 
L 719.028198 101.472345 
L 719.317787 100.928313 
L 719.607377 99.091091 
L 719.896966 99.29488 
L 720.186556 99.29488 
L 720.476146 102.016822 
L 721.055325 103.105332 
L 721.344914 101.540572 
L 721.634504 102.5613 
L 722.213683 108.140748 
L 722.503273 110.249986 
L 722.792862 109.161476 
L 723.372042 112.42745 
L 723.661631 90.925709 
L 723.951221 91.674421 
L 724.24081 88.952479 
L 724.5304 92.831158 
L 724.81999 88.952479 
L 725.109579 82.42053 
L 725.399169 89.496956 
L 725.688758 91.810429 
L 725.978348 79.018101 
L 726.557527 95.416647 
L 726.847117 100.928313 
L 727.136706 102.084603 
L 727.426296 98.682621 
L 727.715886 103.037551 
L 728.005475 105.351024 
L 728.295065 105.895056 
L 728.874244 111.882973 
L 729.163834 114.060438 
L 729.453423 115.081166 
L 729.743013 116.850161 
L 730.322192 118.891618 
L 730.611781 118.415368 
L 730.901371 120.184363 
L 731.48055 121.613115 
L 731.77014 118.959399 
L 732.059729 117.938671 
L 732.349319 117.87089 
L 732.638909 119.43565 
L 732.928498 118.347141 
L 733.218088 118.959399 
L 733.507677 118.142906 
L 733.797267 119.027626 
L 734.086857 118.959399 
L 734.376446 121.000856 
L 734.666036 119.572104 
L 734.955625 116.986169 
L 735.534805 114.128665 
L 735.824394 113.107936 
L 736.113984 112.971928 
L 736.403573 113.92443 
L 736.982753 112.971928 
L 737.272342 114.740923 
L 737.851521 116.714153 
L 738.141111 116.237903 
L 738.430701 116.237903 
L 738.72029 117.054396 
L 739.00988 118.415368 
L 739.589059 119.503877 
L 739.878649 120.524606 
L 740.168238 118.823391 
L 740.457828 119.43565 
L 740.747417 120.524606 
L 741.326597 121.749123 
L 741.616186 120.388598 
L 741.905776 121.681342 
L 742.195365 121.681342 
L 742.484955 115.693425 
L 742.774545 116.169676 
L 743.064134 117.938671 
L 743.353724 113.51596 
L 743.643313 115.081166 
L 743.932903 107.59627 
L 744.512082 109.705508 
L 744.801672 111.134706 
L 745.380851 102.5613 
L 745.67044 94.464145 
L 745.96003 99.567342 
L 746.24962 99.499115 
L 746.539209 92.218453 
L 746.828799 88.952479 
L 747.118388 87.251265 
L 747.697568 98.478386 
L 748.276747 103.24134 
L 748.566336 99.363107 
L 749.145516 105.963283 
L 749.435105 106.915784 
L 750.593464 113.107936 
L 750.883053 114.468462 
L 751.172643 115.217174 
L 751.462232 116.645926 
L 751.751822 116.714153 
L 752.331001 118.415368 
L 752.620591 119.367869 
L 752.91018 117.87089 
L 753.19977 114.672696 
L 753.48936 109.229257 
L 753.778949 109.025022 
L 754.068539 113.039709 
L 754.647718 116.169676 
L 755.516487 119.367869 
L 755.806076 120.048355 
L 756.095666 114.808704 
L 756.385256 99.431334 
L 756.674845 78.0656 
L 756.964435 85.142027 
L 757.254024 74.731399 
L 757.543614 73.098411 
L 757.833203 83.98529 
L 758.412383 96.097132 
L 758.991562 104.330295 
L 759.860331 111.474949 
L 760.14992 112.359224 
L 760.43951 104.670538 
L 760.729099 100.928313 
L 761.018689 100.451616 
L 761.597868 108.00474 
L 762.177047 113.51596 
L 763.624995 118.891618 
L 764.783354 123.382556 
L 765.072943 123.994815 
L 765.362533 125.015543 
L 765.652123 124.947316 
L 765.941712 125.899818 
L 766.231302 126.104053 
L 766.520891 126.580304 
L 767.100071 127.805267 
L 767.38966 128.349299 
L 767.67925 127.73704 
L 767.968839 122.838078 
L 768.258429 123.382556 
L 768.548019 122.905859 
L 769.416787 125.491794 
L 769.706377 126.035826 
L 769.995967 125.832037 
L 770.285556 126.104053 
L 770.575146 127.056554 
L 770.864735 127.192562 
L 771.443914 119.912347 
L 771.733504 113.448179 
L 772.023094 110.181759 
L 772.312683 112.359224 
L 772.602273 105.827275 
L 772.891862 105.963283 
L 773.181452 105.963283 
L 773.471042 106.439533 
L 774.050221 103.64981 
L 774.6294 97.525885 
L 774.91899 102.016822 
L 775.208579 103.105332 
L 775.787758 102.288838 
L 776.077348 104.194287 
L 776.366938 100.315608 
L 776.656527 89.564737 
L 776.946117 95.416647 
L 777.235706 98.818629 
L 777.525296 100.791859 
L 777.814886 101.67658 
L 778.104475 100.383835 
L 778.394065 104.738319 
L 778.683654 106.984011 
L 778.973244 107.051792 
L 779.262834 104.12606 
L 779.552423 103.445575 
L 779.842013 105.418805 
L 780.131602 105.827275 
L 780.421192 108.00474 
L 781.000371 95.34842 
L 781.289961 95.416647 
L 781.57955 96.028905 
L 781.86914 92.626923 
L 782.15873 92.28668 
L 783.027498 83.373031 
L 783.317088 88.476228 
L 783.606678 85.142027 
L 783.896267 86.094528 
L 784.765036 95.484428 
L 785.054626 94.464145 
L 785.344215 96.641164 
L 785.923394 102.493073 
L 786.212984 101.472345 
L 786.502573 104.806546 
L 787.081753 108.00474 
L 787.371342 107.460262 
L 788.240111 112.359224 
L 788.529701 112.903701 
L 789.688059 116.645926 
L 789.977649 116.850161 
L 790.267238 118.483149 
L 790.556828 118.347141 
L 791.425597 121.545334 
L 791.715186 122.22582 
L 792.004776 122.157593 
L 792.294365 122.22582 
L 792.583955 123.314329 
L 792.873545 123.722353 
L 793.163134 125.491794 
L 793.452724 125.559575 
L 793.742313 122.157593 
L 794.031903 120.456379 
L 794.321493 121.613115 
L 794.611082 117.190404 
L 794.900672 116.781934 
L 795.190261 117.802663 
L 795.479851 118.415368 
L 795.769441 116.169676 
L 796.05903 117.326412 
L 796.34862 114.740923 
L 796.927799 117.802663 
L 797.217389 117.734882 
L 797.506978 118.415368 
L 797.796568 118.483149 
L 798.086157 119.503877 
L 798.665337 120.660614 
L 798.954926 121.681342 
L 799.244516 122.22582 
L 799.534105 120.524606 
L 799.823695 121.681342 
L 800.113284 122.089366 
L 800.402874 122.702071 
L 800.692464 123.994815 
L 800.982053 123.79058 
L 801.271643 124.266831 
L 801.561232 124.402839 
L 801.850822 123.994815 
L 802.140412 124.471066 
L 802.719591 126.784539 
L 803.00918 123.586345 
L 803.29877 118.347141 
L 803.58836 118.347141 
L 803.877949 119.503877 
L 804.457128 120.524606 
L 804.746718 121.749123 
L 805.036308 119.367869 
L 805.615487 121.545334 
L 805.905076 120.592387 
L 806.194666 121.613115 
L 806.484256 122.157593 
L 806.773845 122.22582 
L 807.353024 123.450337 
L 807.642614 122.769852 
L 807.932204 122.974086 
L 808.221793 122.769852 
L 808.511383 121.681342 
L 808.800972 119.503877 
L 809.090562 118.959399 
L 809.380152 116.169676 
L 809.669741 116.781934 
L 809.959331 116.645926 
L 810.24892 109.161476 
L 810.53851 110.318212 
L 810.8281 103.990053 
L 811.117689 100.860086 
L 811.407279 96.028905 
L 811.696868 96.777618 
L 812.276048 100.860086 
L 812.565637 100.383835 
L 812.855227 98.682621 
L 813.144816 101.608353 
L 813.434406 102.493073 
L 813.723995 104.466303 
L 814.013585 104.806546 
L 814.592764 108.072521 
L 814.882354 101.540572 
L 815.171943 103.785818 
L 815.751123 96.709391 
L 816.040712 98.20637 
L 816.330302 98.61484 
L 816.619891 87.319491 
L 816.909481 71.397197 
L 817.199071 82.964562 
L 817.48866 80.107057 
L 817.77825 90.381231 
L 818.067839 94.940396 
L 818.357429 90.109215 
L 818.647019 92.28668 
L 818.936608 96.641164 
L 819.226198 92.762931 
L 819.805377 69.151951 
L 820.094967 75.888135 
L 820.384556 70.989173 
L 820.674146 73.098411 
L 821.253325 82.964562 
L 821.542915 79.018101 
L 821.832504 59.421809 
L 822.122094 62.687783 
L 822.411683 67.518964 
L 822.701273 65.885977 
L 822.990863 65.953758 
L 823.280452 49.079408 
L 823.570042 64.320771 
L 824.149221 79.63036 
L 824.438811 74.663618 
L 824.7284 78.610078 
L 825.01799 74.867406 
L 825.307579 76.500394 
L 825.597169 83.304804 
L 826.176348 91.606194 
L 826.465938 86.298763 
L 826.755527 72.962403 
L 827.045117 71.941675 
L 827.334706 59.353582 
L 827.624296 60.510318 
L 828.203475 77.65713 
L 828.493065 82.760773 
L 828.782654 84.597549 
L 829.361834 91.674421 
L 829.651423 93.919667 
L 829.941013 84.461541 
L 830.520192 79.698587 
L 830.809782 86.094528 
L 831.099371 88.952479 
L 831.388961 88.952479 
L 831.67855 92.422688 
L 831.96814 92.626923 
L 832.25773 93.239182 
L 832.547319 93.239182 
L 832.836909 96.164913 
L 833.126498 95.484428 
L 833.416088 94.327691 
L 834.284857 101.404564 
L 834.574446 98.750848 
L 834.864036 102.084603 
L 835.153626 102.493073 
L 835.443215 100.860086 
L 835.732805 103.173559 
L 836.022394 100.383835 
L 836.311984 101.472345 
L 836.601574 101.404564 
L 837.180753 105.963283 
L 837.759932 108.140748 
L 838.049522 105.827275 
L 839.20788 111.746965 
L 839.49747 110.726236 
L 840.076649 114.128665 
L 840.366238 112.495231 
L 840.655828 112.42745 
L 840.945418 113.448179 
L 841.235007 113.584187 
L 841.524597 115.217174 
L 841.814186 113.584187 
L 842.103776 114.672696 
L 842.682955 117.258631 
L 842.972545 118.278914 
L 843.262134 118.347141 
L 843.841313 113.720195 
L 844.130903 116.101895 
L 844.420493 114.536688 
L 844.710082 115.761652 
L 844.999672 115.761652 
L 845.289261 109.297484 
L 845.578851 109.705508 
L 846.44762 115.829433 
L 846.737209 116.714153 
L 847.026799 118.278914 
L 847.316389 118.347141 
L 847.605978 120.048355 
L 848.474747 121.681342 
L 849.053926 123.246102 
L 849.343516 123.858807 
L 849.922695 125.899818 
L 850.212285 125.968045 
L 850.501874 127.124781 
L 850.791464 127.124781 
L 851.660233 128.553534 
L 852.239412 129.982732 
L 852.529001 129.846278 
L 853.39777 131.479265 
L 853.976949 132.772456 
L 854.266539 132.499994 
L 854.556129 132.499994 
L 855.135308 133.588949 
L 855.424897 133.588949 
L 856.004076 134.677459 
L 856.293666 134.677459 
L 856.583256 135.289718 
L 856.872845 135.357944 
L 857.162435 135.834195 
L 857.452024 135.426171 
L 857.741614 135.493952 
L 858.320793 136.446454 
L 858.610383 136.378673 
L 858.899972 136.854924 
L 859.189562 137.60319 
L 859.479152 137.467182 
L 860.34792 139.10017 
L 860.63751 139.712874 
L 860.9271 139.848882 
L 861.216689 140.869611 
L 861.506279 140.461141 
L 861.795868 140.869611 
L 862.085458 140.801384 
L 862.375048 140.869611 
L 862.664637 141.413643 
L 862.954227 141.345862 
L 863.533406 142.162355 
L 863.822996 142.026347 
L 864.112585 137.535409 
L 864.402175 139.236178 
L 864.691764 140.189125 
L 864.981354 140.733157 
L 865.270944 140.733157 
L 865.560533 139.644647 
L 866.429302 141.345862 
L 866.718892 141.209854 
L 867.008481 139.848882 
L 867.58766 141.345862 
L 867.87725 141.822112 
L 868.16684 140.801384 
L 868.456429 140.869611 
L 868.746019 140.733157 
L 869.035608 141.617878 
L 869.325198 141.277635 
L 869.614787 140.733157 
L 870.193967 141.889893 
L 870.483556 141.822112 
L 870.773146 143.659334 
L 871.062735 142.910622 
L 871.352325 143.04663 
L 871.641915 143.4551 
L 871.931504 143.4551 
L 872.510683 141.95812 
L 872.800273 142.502598 
L 873.089863 142.434371 
L 873.379452 143.04663 
L 873.669042 142.910622 
L 873.958631 143.523327 
L 874.248221 143.591108 
L 874.537811 144.203366 
L 874.8274 144.067358 
L 875.11699 144.611836 
L 875.406579 144.203366 
L 875.696169 144.543609 
L 875.985759 145.156314 
L 876.275348 145.088087 
L 876.564938 145.700346 
L 877.144117 145.564338 
L 877.433707 145.224095 
L 878.012886 146.244823 
L 878.302475 146.31305 
L 878.592065 146.789301 
L 878.881655 146.789301 
L 879.171244 145.768573 
L 879.460834 146.993536 
L 880.329603 144.611836 
L 880.619192 141.889893 
L 880.908782 137.331175 
L 881.487961 139.644647 
L 882.646319 133.18048 
L 882.935909 130.458983 
L 883.515088 131.411484 
L 883.804678 130.730999 
L 884.094267 132.09197 
L 885.252626 134.269435 
L 885.542215 134.0652 
L 885.831805 134.473224 
L 886.121394 135.357944 
L 886.410984 135.834195 
L 886.700574 135.62996 
L 886.990163 134.405443 
L 887.279753 134.269435 
L 888.148522 135.970203 
L 888.438111 136.446454 
L 888.727701 136.378673 
L 889.01729 136.922705 
L 889.30688 135.357944 
L 889.59647 135.221937 
L 889.886059 135.902422 
L 890.175649 136.990932 
L 890.465238 137.60319 
L 890.754828 127.532805 
L 891.044418 127.601032 
L 891.334007 128.757769 
L 891.623597 128.825996 
L 891.913186 129.846278 
L 892.202776 128.213291 
L 892.492366 125.491794 
L 892.781955 125.491794 
L 893.071545 123.79058 
L 893.361134 123.858807 
L 893.650724 123.178321 
L 893.940314 112.903701 
L 894.229903 114.672696 
L 895.098672 105.827275 
L 895.388262 91.946437 
L 895.677851 98.20637 
L 895.967441 101.608353 
L 896.25703 94.940396 
L 896.54662 99.499115 
L 896.83621 100.996094 
L 897.125799 104.262068 
L 897.415389 104.12606 
L 897.704978 106.371752 
L 897.994568 106.984011 
L 898.284157 101.404564 
L 898.573747 104.330295 
L 898.863337 105.895056 
L 899.152926 102.016822 
L 899.442516 100.928313 
L 899.732105 94.940396 
L 900.021695 95.008177 
L 900.311285 98.138143 
L 900.600874 98.138143 
L 900.890464 99.907584 
L 901.180053 103.105332 
L 901.759233 104.874773 
L 902.048822 104.194287 
L 902.338412 105.963283 
L 902.628001 96.573383 
L 902.917591 96.573383 
L 903.207181 90.109215 
L 903.49677 86.707233 
L 904.075949 77.521122 
L 904.365539 79.154109 
L 904.655129 80.107057 
L 904.944718 83.509039 
L 905.234308 82.42053 
L 905.523897 60.578545 
L 905.813487 57.92483 
L 906.392666 62.075525 
L 906.682256 57.244344 
L 906.971845 47.378194 
L 907.261435 51.800905 
L 907.551025 65.885977 
L 908.130204 75.139868 
L 908.419793 72.553934 
L 908.709383 61.667055 
L 908.998973 70.580704 
L 909.288562 61.667055 
L 909.578152 60.578545 
L 909.867741 72.009902 
L 910.446921 82.42053 
L 910.73651 80.651089 
L 911.0261 86.094528 
L 911.315689 87.795742 
L 911.605279 81.331574 
L 912.184458 89.496956 
L 912.474048 88.408001 
L 912.763637 91.537967 
L 913.053227 92.218453 
L 913.342816 91.129944 
L 913.632406 95.416647 
L 914.211585 93.85144 
L 914.501175 93.37519 
L 914.790764 96.641164 
L 915.080354 94.464145 
L 915.369944 93.85144 
L 915.659533 89.632964 
L 915.949123 27.645447 
L 916.528302 66.021985 
L 916.817892 76.432613 
L 917.107481 79.018101 
L 917.68666 91.606194 
L 917.97625 93.85144 
L 917.97625 93.85144 
" clip-path="url(#p784c778aba)" style="fill: none; stroke: #2563eb; stroke-opacity: 0.95; stroke-width: 1.3; stroke-linecap: square"/>
   </g>
   <g id="patch_23">
    <path d="M 33.604375 228.954713 
L 33.604375 17.061433 
" style="fill: none; stroke: #cbd5e1; stroke-width: 0.8; stroke-linejoin: miter; stroke-linecap: square"/>
   </g>
   <g id="patch_24">
    <path d="M 935.316875 228.954713 
L 935.316875 17.061433 
" style="fill: none; stroke: #cbd5e1; stroke-width: 0.8; stroke-linejoin: miter; stroke-linecap: square"/>
   </g>
   <g id="patch_25">
    <path d="M 33.604375 228.954713 
L 935.316875 228.954713 
" style="fill: none; stroke: #cbd5e1; stroke-width: 0.8; stroke-linejoin: miter; stroke-linecap: square"/>
   </g>
   <g id="patch_26">
    <path d="M 33.604375 17.061433 
L 935.316875 17.061433 
" style="fill: none; stroke: #cbd5e1; stroke-width: 0.8; stroke-linejoin: miter; stroke-linecap: square"/>
   </g>
   <g id="text_15">
    <!-- ACC -->
    <g style="fill: #475569" transform="translate(115.546346 13.27875) scale(0.08 -0.08)">
     <defs>
      <path id="DejaVuSans-43" d="M 4122 4306 
L 4122 3641 
Q 3803 3938 3442 4084 
Q 3081 4231 2675 4231 
Q 1875 4231 1450 3742 
Q 1025 3253 1025 2328 
Q 1025 1406 1450 917 
Q 1875 428 2675 428 
Q 3081 428 3442 575 
Q 3803 722 4122 1019 
L 4122 359 
Q 3791 134 3420 21 
Q 3050 -91 2638 -91 
Q 1578 -91 968 557 
Q 359 1206 359 2328 
Q 359 3453 968 4101 
Q 1578 4750 2638 4750 
Q 3056 4750 3426 4639 
Q 3797 4528 4122 4306 
z
" transform="scale(0.015625)"/>
     </defs>
     <use xlink:href="#DejaVuSans-41"/>
     <use xlink:href="#DejaVuSans-43" transform="translate(66.658203 0)"/>
     <use xlink:href="#DejaVuSans-43" transform="translate(136.482422 0)"/>
    </g>
   </g>
   <g id="text_16">
    <!-- OC -->
    <g style="fill: #475569" transform="translate(224.055077 13.27875) scale(0.08 -0.08)">
     <defs>
      <path id="DejaVuSans-4f" d="M 2522 4238 
Q 1834 4238 1429 3725 
Q 1025 3213 1025 2328 
Q 1025 1447 1429 934 
Q 1834 422 2522 422 
Q 3209 422 3611 934 
Q 4013 1447 4013 2328 
Q 4013 3213 3611 3725 
Q 3209 4238 2522 4238 
z
M 2522 4750 
Q 3503 4750 4090 4092 
Q 4678 3434 4678 2328 
Q 4678 1225 4090 567 
Q 3503 -91 2522 -91 
Q 1538 -91 948 565 
Q 359 1222 359 2328 
Q 359 3434 948 4092 
Q 1538 4750 2522 4750 
z
" transform="scale(0.015625)"/>
     </defs>
     <use xlink:href="#DejaVuSans-4f"/>
     <use xlink:href="#DejaVuSans-43" transform="translate(78.710938 0)"/>
    </g>
   </g>
   <g id="text_17">
    <!-- FCS -->
    <g style="fill: #475569" transform="translate(249.79863 13.27875) scale(0.08 -0.08)">
     <defs>
      <path id="DejaVuSans-46" d="M 628 4666 
L 3309 4666 
L 3309 4134 
L 1259 4134 
L 1259 2759 
L 3109 2759 
L 3109 2228 
L 1259 2228 
L 1259 0 
L 628 0 
L 628 4666 
z
" transform="scale(0.015625)"/>
      <path id="DejaVuSans-53" d="M 3425 4513 
L 3425 3897 
Q 3066 4069 2747 4153 
Q 2428 4238 2131 4238 
Q 1616 4238 1336 4038 
Q 1056 3838 1056 3469 
Q 1056 3159 1242 3001 
Q 1428 2844 1947 2747 
L 2328 2669 
Q 3034 2534 3370 2195 
Q 3706 1856 3706 1288 
Q 3706 609 3251 259 
Q 2797 -91 1919 -91 
Q 1588 -91 1214 -16 
Q 841 59 441 206 
L 441 856 
Q 825 641 1194 531 
Q 1563 422 1919 422 
Q 2459 422 2753 634 
Q 3047 847 3047 1241 
Q 3047 1584 2836 1778 
Q 2625 1972 2144 2069 
L 1759 2144 
Q 1053 2284 737 2584 
Q 422 2884 422 3419 
Q 422 4038 858 4394 
Q 1294 4750 2059 4750 
Q 2388 4750 2728 4690 
Q 3069 4631 3425 4513 
z
" transform="scale(0.015625)"/>
     </defs>
     <use xlink:href="#DejaVuSans-46"/>
     <use xlink:href="#DejaVuSans-43" transform="translate(57.519531 0)"/>
     <use xlink:href="#DejaVuSans-53" transform="translate(127.34375 0)"/>
    </g>
   </g>
   <g id="text_18">
    <!-- SR -->
    <g style="fill: #475569" transform="translate(281.834043 13.27875) scale(0.08 -0.08)">
     <defs>
      <path id="DejaVuSans-52" d="M 2841 2188 
Q 3044 2119 3236 1894 
Q 3428 1669 3622 1275 
L 4263 0 
L 3584 0 
L 2988 1197 
Q 2756 1666 2539 1819 
Q 2322 1972 1947 1972 
L 1259 1972 
L 1259 0 
L 628 0 
L 628 4666 
L 2053 4666 
Q 2853 4666 3247 4331 
Q 3641 3997 3641 3322 
Q 3641 2881 3436 2590 
Q 3231 2300 2841 2188 
z
M 1259 4147 
L 1259 2491 
L 2053 2491 
Q 2509 2491 2742 2702 
Q 2975 2913 2975 3322 
Q 2975 3731 2742 3939 
Q 2509 4147 2053 4147 
L 1259 4147 
z
" transform="scale(0.015625)"/>
     </defs>
     <use xlink:href="#DejaVuSans-53"/>
     <use xlink:href="#DejaVuSans-52" transform="translate(63.476562 0)"/>
    </g>
   </g>
   <g id="text_19">
    <!-- FFC -->
    <g style="fill: #475569" transform="translate(320.910624 13.27875) scale(0.08 -0.08)">
     <use xlink:href="#DejaVuSans-46"/>
     <use xlink:href="#DejaVuSans-46" transform="translate(57.519531 0)"/>
     <use xlink:href="#DejaVuSans-43" transform="translate(115.039062 0)"/>
    </g>
   </g>
   <g id="text_20">
    <!-- SS -->
    <g style="fill: #475569" transform="translate(412.389361 13.27875) scale(0.08 -0.08)">
     <use xlink:href="#DejaVuSans-53"/>
     <use xlink:href="#DejaVuSans-53" transform="translate(63.476562 0)"/>
    </g>
   </g>
   <g id="text_21">
    <!-- OC -->
    <g style="fill: #475569" transform="translate(482.399479 13.27875) scale(0.08 -0.08)">
     <use xlink:href="#DejaVuSans-4f"/>
     <use xlink:href="#DejaVuSans-43" transform="translate(78.710938 0)"/>
    </g>
   </g>
   <g id="text_22">
    <!-- FCS -->
    <g style="fill: #475569" transform="translate(505.856799 13.27875) scale(0.08 -0.08)">
     <use xlink:href="#DejaVuSans-46"/>
     <use xlink:href="#DejaVuSans-43" transform="translate(57.519531 0)"/>
     <use xlink:href="#DejaVuSans-53" transform="translate(127.34375 0)"/>
    </g>
   </g>
   <g id="text_23">
    <!-- SR -->
    <g style="fill: #475569" transform="translate(537.892212 13.27875) scale(0.08 -0.08)">
     <use xlink:href="#DejaVuSans-53"/>
     <use xlink:href="#DejaVuSans-52" transform="translate(63.476562 0)"/>
    </g>
   </g>
   <g id="text_24">
    <!-- FFC -->
    <g style="fill: #475569" transform="translate(576.968793 13.27875) scale(0.08 -0.08)">
     <use xlink:href="#DejaVuSans-46"/>
     <use xlink:href="#DejaVuSans-46" transform="translate(57.519531 0)"/>
     <use xlink:href="#DejaVuSans-43" transform="translate(115.039062 0)"/>
    </g>
   </g>
   <g id="text_25">
    <!-- SS -->
    <g style="fill: #475569" transform="translate(670.733764 13.27875) scale(0.08 -0.08)">
     <use xlink:href="#DejaVuSans-53"/>
     <use xlink:href="#DejaVuSans-53" transform="translate(63.476562 0)"/>
    </g>
   </g>
   <g id="text_26">
    <!-- OC -->
    <g style="fill: #475569" transform="translate(740.743882 13.27875) scale(0.08 -0.08)">
     <use xlink:href="#DejaVuSans-4f"/>
     <use xlink:href="#DejaVuSans-43" transform="translate(78.710938 0)"/>
    </g>
   </g>
   <g id="text_27">
    <!-- FCS -->
    <g style="fill: #475569" transform="translate(761.914968 13.27875) scale(0.08 -0.08)">
     <use xlink:href="#DejaVuSans-46"/>
     <use xlink:href="#DejaVuSans-43" transform="translate(57.519531 0)"/>
     <use xlink:href="#DejaVuSans-53" transform="translate(127.34375 0)"/>
    </g>
   </g>
   <g id="text_28">
    <!-- SR -->
    <g style="fill: #475569" transform="translate(791.664147 13.27875) scale(0.08 -0.08)">
     <use xlink:href="#DejaVuSans-53"/>
     <use xlink:href="#DejaVuSans-52" transform="translate(63.476562 0)"/>
    </g>
   </g>
   <g id="text_29">
    <!-- FFC -->
    <g style="fill: #475569" transform="translate(830.740728 13.27875) scale(0.08 -0.08)">
     <use xlink:href="#DejaVuSans-46"/>
     <use xlink:href="#DejaVuSans-46" transform="translate(57.519531 0)"/>
     <use xlink:href="#DejaVuSans-43" transform="translate(115.039062 0)"/>
    </g>
   </g>
   <g id="text_30">
    <!-- SS -->
    <g style="fill: #475569" transform="translate(887.925961 13.27875) scale(0.08 -0.08)">
     <use xlink:href="#DejaVuSans-53"/>
     <use xlink:href="#DejaVuSans-53" transform="translate(63.476562 0)"/>
    </g>
   </g>
   <g id="legend_1">
    <g id="line2d_26">
     <path d="M 889.169375 27.540183 
L 897.169375 27.540183 
L 905.169375 27.540183 
" style="fill: none; stroke: #2563eb; stroke-opacity: 0.95; stroke-width: 1.3; stroke-linecap: square"/>
    </g>
    <g id="text_31">
     <!-- EDA -->
     <g transform="translate(911.569375 30.340183) scale(0.08 -0.08)">
      <use xlink:href="#DejaVuSans-45"/>
      <use xlink:href="#DejaVuSans-44" transform="translate(63.183594 0)"/>
      <use xlink:href="#DejaVuSans-41" transform="translate(138.435547 0)"/>
     </g>
    </g>
   </g>
  </g>
 </g>
 <defs>
  <clipPath id="p784c778aba">
   <rect x="33.604375" y="17.061433" width="901.7125" height="211.89328"/>
  </clipPath>
 </defs>
</svg>
