<?xml version="1.0" encoding="utf-8" standalone="no"?>
<!DOCTYPE svg PUBLIC "-//W3C//DTD SVG 1.1//EN"
  "http://www.w3.org/Graphics/SVG/1.1/DTD/svg11.dtd">
<svg xmlns:xlink="http://www.w3.org/1999/xlink" width="942.505625pt" height="265.54315pt" viewBox="0 0 942.505625 265.54315" xmlns="http://www.w3.org/2000/svg" version="1.1">
 <metadata>
  <rdf:RDF xmlns:dc="http://purl.org/dc/elements/1.1/" xmlns:cc="http://creativecommons.org/ns#" xmlns:rdf="http://www.w3.org/1999/02/22-rdf-syntax-ns#">
   <cc:Work>
    <dc:type rdf:resource="http://purl.org/dc/dcmitype/StillImage"/>
    <dc:date>2026-04-17T13:15:36.577470</dc:date>
    <dc:format>image/svg+xml</dc:format>
    <dc:creator>
     <cc:Agent>
      <dc:title>Matplotlib v3.10.8, https://matplotlib.org/</dc:title>
     </cc:Agent>
    </dc:creator>
   </cc:Work>
  </rdf:RDF>
 </metadata>
 <defs>
  <style type="text/css">*{stroke-linejoin: round; stroke-linecap: butt}</style>
 </defs>
 <g id="figure_1">
  <g id="patch_1">
   <path d="M 0 265.54315 
L 942.505625 265.54315 
L 942.505625 0 
L 0 0 
z
" style="fill: #ffffff"/>
  </g>
  <g id="axes_1">
   <g id="patch_2">
    <path d="M 39.330625 228.954713 
L 935.305625 228.954713 
L 935.305625 17.061433 
L 39.330625 17.061433 
z
" style="fill: #ffffff"/>
   </g>
   <g id="patch_3">
    <path d="M 39.330625 228.954713 
L 220.505732 228.954713 
L 220.505732 17.061433 
L 39.330625 17.061433 
z
" clip-path="url(#ped513b7617)" style="fill: #f8fafc; opacity: 0.45"/>
   </g>
   <g id="patch_4">
    <path d="M 220.505732 228.954713 
L 247.681998 228.954713 
L 247.681998 17.061433 
L 220.505732 17.061433 
z
" clip-path="url(#ped513b7617)" style="fill: #eff6ff; opacity: 0.45"/>
   </g>
   <g id="patch_5">
    <path d="M 247.681998 228.954713 
L 274.858264 228.954713 
L 274.858264 17.061433 
L 247.681998 17.061433 
z
" clip-path="url(#ped513b7617)" style="fill: #fef3c7; opacity: 0.45"/>
   </g>
   <g id="patch_6">
    <path d="M 274.858264 228.954713 
L 315.622663 228.954713 
L 315.622663 17.061433 
L 274.858264 17.061433 
z
" clip-path="url(#ped513b7617)" style="fill: #dcfce7; opacity: 0.45"/>
   </g>
   <g id="patch_7">
    <path d="M 315.622663 228.954713 
L 360.91644 228.954713 
L 360.91644 17.061433 
L 315.622663 17.061433 
z
" clip-path="url(#ped513b7617)" style="fill: #fee2e2; opacity: 0.45"/>
   </g>
   <g id="patch_8">
    <path d="M 360.91644 228.954713 
L 365.445818 228.954713 
L 365.445818 17.061433 
L 360.91644 17.061433 
z
" clip-path="url(#ped513b7617)" style="fill: #ede9fe; opacity: 0.45"/>
   </g>
   <g id="patch_9">
    <path d="M 365.445818 228.954713 
L 478.68026 228.954713 
L 478.68026 17.061433 
L 365.445818 17.061433 
z
" clip-path="url(#ped513b7617)" style="fill: #f8fafc; opacity: 0.45"/>
   </g>
   <g id="patch_10">
    <path d="M 478.68026 228.954713 
L 501.327148 228.954713 
L 501.327148 17.061433 
L 478.68026 17.061433 
z
" clip-path="url(#ped513b7617)" style="fill: #eff6ff; opacity: 0.45"/>
   </g>
   <g id="patch_11">
    <path d="M 501.327148 228.954713 
L 528.503414 228.954713 
L 528.503414 17.061433 
L 501.327148 17.061433 
z
" clip-path="url(#ped513b7617)" style="fill: #fef3c7; opacity: 0.45"/>
   </g>
   <g id="patch_12">
    <path d="M 528.503414 228.954713 
L 569.267813 228.954713 
L 569.267813 17.061433 
L 528.503414 17.061433 
z
" clip-path="url(#ped513b7617)" style="fill: #dcfce7; opacity: 0.45"/>
   </g>
   <g id="patch_13">
    <path d="M 569.267813 228.954713 
L 614.56159 228.954713 
L 614.56159 17.061433 
L 569.267813 17.061433 
z
" clip-path="url(#ped513b7617)" style="fill: #fee2e2; opacity: 0.45"/>
   </g>
   <g id="patch_14">
    <path d="M 614.56159 228.954713 
L 619.090968 228.954713 
L 619.090968 17.061433 
L 614.56159 17.061433 
z
" clip-path="url(#ped513b7617)" style="fill: #ede9fe; opacity: 0.45"/>
   </g>
   <g id="patch_15">
    <path d="M 619.090968 228.954713 
L 732.32541 228.954713 
L 732.32541 17.061433 
L 619.090968 17.061433 
z
" clip-path="url(#ped513b7617)" style="fill: #f8fafc; opacity: 0.45"/>
   </g>
   <g id="patch_16">
    <path d="M 732.32541 228.954713 
L 754.972298 228.954713 
L 754.972298 17.061433 
L 732.32541 17.061433 
z
" clip-path="url(#ped513b7617)" style="fill: #eff6ff; opacity: 0.45"/>
   </g>
   <g id="patch_17">
    <path d="M 754.972298 228.954713 
L 782.148564 228.954713 
L 782.148564 17.061433 
L 754.972298 17.061433 
z
" clip-path="url(#ped513b7617)" style="fill: #fef3c7; opacity: 0.45"/>
   </g>
   <g id="patch_18">
    <path d="M 782.148564 228.954713 
L 822.912963 228.954713 
L 822.912963 17.061433 
L 782.148564 17.061433 
z
" clip-path="url(#ped513b7617)" style="fill: #dcfce7; opacity: 0.45"/>
   </g>
   <g id="patch_19">
    <path d="M 822.912963 228.954713 
L 868.20674 228.954713 
L 868.20674 17.061433 
L 822.912963 17.061433 
z
" clip-path="url(#ped513b7617)" style="fill: #fee2e2; opacity: 0.45"/>
   </g>
   <g id="patch_20">
    <path d="M 868.20674 228.954713 
L 872.736118 228.954713 
L 872.736118 17.061433 
L 868.20674 17.061433 
z
" clip-path="url(#ped513b7617)" style="fill: #ede9fe; opacity: 0.45"/>
   </g>
   <g id="patch_21">
    <path d="M 872.736118 228.954713 
L 913.500517 228.954713 
L 913.500517 17.061433 
L 872.736118 17.061433 
z
" clip-path="url(#ped513b7617)" style="fill: #f8fafc; opacity: 0.45"/>
   </g>
   <g id="patch_22">
    <path d="M 913.500517 228.954713 
L 918.029895 228.954713 
L 918.029895 17.061433 
L 913.500517 17.061433 
z
" clip-path="url(#ped513b7617)" style="fill: #eff6ff; opacity: 0.45"/>
   </g>
   <g id="matplotlib.axis_1">
    <g id="xtick_1">
     <g id="line2d_1">
      <path d="M 39.330625 228.954713 
L 39.330625 17.061433 
" clip-path="url(#ped513b7617)" style="fill: none; stroke: #eef2f7; stroke-width: 0.55; stroke-linecap: square"/>
     </g>
     <g id="line2d_2">
      <defs>
       <path id="m798034c62a" d="M 0 0 
L 0 3.5 
" style="stroke: #000000; stroke-width: 0.8"/>
      </defs>
      <g>
       <use xlink:href="#m798034c62a" x="39.330625" y="228.954713" style="stroke: #000000; stroke-width: 0.8"/>
      </g>
     </g>
     <g id="text_1">
      <!-- 0 -->
      <g transform="translate(36.4675 242.793307) scale(0.09 -0.09)">
       <defs>
        <path id="DejaVuSans-30" d="M 2034 4250 
Q 1547 4250 1301 3770 
Q 1056 3291 1056 2328 
Q 1056 1369 1301 889 
Q 1547 409 2034 409 
Q 2525 409 2770 889 
Q 3016 1369 3016 2328 
Q 3016 3291 2770 3770 
Q 2525 4250 2034 4250 
z
M 2034 4750 
Q 2819 4750 3233 4129 
Q 3647 3509 3647 2328 
Q 3647 1150 3233 529 
Q 2819 -91 2034 -91 
Q 1250 -91 836 529 
Q 422 1150 422 2328 
Q 422 3509 836 4129 
Q 1250 4750 2034 4750 
z
" transform="scale(0.015625)"/>
       </defs>
       <use xlink:href="#DejaVuSans-30"/>
      </g>
     </g>
    </g>
    <g id="xtick_2">
     <g id="line2d_3">
      <path d="M 152.565067 228.954713 
L 152.565067 17.061433 
" clip-path="url(#ped513b7617)" style="fill: none; stroke: #eef2f7; stroke-width: 0.55; stroke-linecap: square"/>
     </g>
     <g id="line2d_4">
      <g>
       <use xlink:href="#m798034c62a" x="152.565067" y="228.954713" style="stroke: #000000; stroke-width: 0.8"/>
      </g>
     </g>
     <g id="text_2">
      <!-- 25 -->
      <g transform="translate(146.838817 242.793307) scale(0.09 -0.09)">
       <defs>
        <path id="DejaVuSans-32" d="M 1228 531 
L 3431 531 
L 3431 0 
L 469 0 
L 469 531 
Q 828 903 1448 1529 
Q 2069 2156 2228 2338 
Q 2531 2678 2651 2914 
Q 2772 3150 2772 3378 
Q 2772 3750 2511 3984 
Q 2250 4219 1831 4219 
Q 1534 4219 1204 4116 
Q 875 4013 500 3803 
L 500 4441 
Q 881 4594 1212 4672 
Q 1544 4750 1819 4750 
Q 2544 4750 2975 4387 
Q 3406 4025 3406 3419 
Q 3406 3131 3298 2873 
Q 3191 2616 2906 2266 
Q 2828 2175 2409 1742 
Q 1991 1309 1228 531 
z
" transform="scale(0.015625)"/>
        <path id="DejaVuSans-35" d="M 691 4666 
L 3169 4666 
L 3169 4134 
L 1269 4134 
L 1269 2991 
Q 1406 3038 1543 3061 
Q 1681 3084 1819 3084 
Q 2600 3084 3056 2656 
Q 3513 2228 3513 1497 
Q 3513 744 3044 326 
Q 2575 -91 1722 -91 
Q 1428 -91 1123 -41 
Q 819 9 494 109 
L 494 744 
Q 775 591 1075 516 
Q 1375 441 1709 441 
Q 2250 441 2565 725 
Q 2881 1009 2881 1497 
Q 2881 1984 2565 2268 
Q 2250 2553 1709 2553 
Q 1456 2553 1204 2497 
Q 953 2441 691 2322 
L 691 4666 
z
" transform="scale(0.015625)"/>
       </defs>
       <use xlink:href="#DejaVuSans-32"/>
       <use xlink:href="#DejaVuSans-35" transform="translate(63.623047 0)"/>
      </g>
     </g>
    </g>
    <g id="xtick_3">
     <g id="line2d_5">
      <path d="M 265.799509 228.954713 
L 265.799509 17.061433 
" clip-path="url(#ped513b7617)" style="fill: none; stroke: #eef2f7; stroke-width: 0.55; stroke-linecap: square"/>
     </g>
     <g id="line2d_6">
      <g>
       <use xlink:href="#m798034c62a" x="265.799509" y="228.954713" style="stroke: #000000; stroke-width: 0.8"/>
      </g>
     </g>
     <g id="text_3">
      <!-- 50 -->
      <g transform="translate(260.073259 242.793307) scale(0.09 -0.09)">
       <use xlink:href="#DejaVuSans-35"/>
       <use xlink:href="#DejaVuSans-30" transform="translate(63.623047 0)"/>
      </g>
     </g>
    </g>
    <g id="xtick_4">
     <g id="line2d_7">
      <path d="M 379.033951 228.954713 
L 379.033951 17.061433 
" clip-path="url(#ped513b7617)" style="fill: none; stroke: #eef2f7; stroke-width: 0.55; stroke-linecap: square"/>
     </g>
     <g id="line2d_8">
      <g>
       <use xlink:href="#m798034c62a" x="379.033951" y="228.954713" style="stroke: #000000; stroke-width: 0.8"/>
      </g>
     </g>
     <g id="text_4">
      <!-- 75 -->
      <g transform="translate(373.307701 242.793307) scale(0.09 -0.09)">
       <defs>
        <path id="DejaVuSans-37" d="M 525 4666 
L 3525 4666 
L 3525 4397 
L 1831 0 
L 1172 0 
L 2766 4134 
L 525 4134 
L 525 4666 
z
" transform="scale(0.015625)"/>
       </defs>
       <use xlink:href="#DejaVuSans-37"/>
       <use xlink:href="#DejaVuSans-35" transform="translate(63.623047 0)"/>
      </g>
     </g>
    </g>
    <g id="xtick_5">
     <g id="line2d_9">
      <path d="M 492.268393 228.954713 
L 492.268393 17.061433 
" clip-path="url(#ped513b7617)" style="fill: none; stroke: #eef2f7; stroke-width: 0.55; stroke-linecap: square"/>
     </g>
     <g id="line2d_10">
      <g>
       <use xlink:href="#m798034c62a" x="492.268393" y="228.954713" style="stroke: #000000; stroke-width: 0.8"/>
      </g>
     </g>
     <g id="text_5">
      <!-- 100 -->
      <g transform="translate(483.679018 242.793307) scale(0.09 -0.09)">
       <defs>
        <path id="DejaVuSans-31" d="M 794 531 
L 1825 531 
L 1825 4091 
L 703 3866 
L 703 4441 
L 1819 4666 
L 2450 4666 
L 2450 531 
L 3481 531 
L 3481 0 
L 794 0 
L 794 531 
z
" transform="scale(0.015625)"/>
       </defs>
       <use xlink:href="#DejaVuSans-31"/>
       <use xlink:href="#DejaVuSans-30" transform="translate(63.623047 0)"/>
       <use xlink:href="#DejaVuSans-30" transform="translate(127.246094 0)"/>
      </g>
     </g>
    </g>
    <g id="xtick_6">
     <g id="line2d_11">
      <path d="M 605.502835 228.954713 
L 605.502835 17.061433 
" clip-path="url(#ped513b7617)" style="fill: none; stroke: #eef2f7; stroke-width: 0.55; stroke-linecap: square"/>
     </g>
     <g id="line2d_12">
      <g>
       <use xlink:href="#m798034c62a" x="605.502835" y="228.954713" style="stroke: #000000; stroke-width: 0.8"/>
      </g>
     </g>
     <g id="text_6">
      <!-- 125 -->
      <g transform="translate(596.91346 242.793307) scale(0.09 -0.09)">
       <use xlink:href="#DejaVuSans-31"/>
       <use xlink:href="#DejaVuSans-32" transform="translate(63.623047 0)"/>
       <use xlink:href="#DejaVuSans-35" transform="translate(127.246094 0)"/>
      </g>
     </g>
    </g>
    <g id="xtick_7">
     <g id="line2d_13">
      <path d="M 718.737277 228.954713 
L 718.737277 17.061433 
" clip-path="url(#ped513b7617)" style="fill: none; stroke: #eef2f7; stroke-width: 0.55; stroke-linecap: square"/>
     </g>
     <g id="line2d_14">
      <g>
       <use xlink:href="#m798034c62a" x="718.737277" y="228.954713" style="stroke: #000000; stroke-width: 0.8"/>
      </g>
     </g>
     <g id="text_7">
      <!-- 150 -->
      <g transform="translate(710.147902 242.793307) scale(0.09 -0.09)">
       <use xlink:href="#DejaVuSans-31"/>
       <use xlink:href="#DejaVuSans-35" transform="translate(63.623047 0)"/>
       <use xlink:href="#DejaVuSans-30" transform="translate(127.246094 0)"/>
      </g>
     </g>
    </g>
    <g id="xtick_8">
     <g id="line2d_15">
      <path d="M 831.971719 228.954713 
L 831.971719 17.061433 
" clip-path="url(#ped513b7617)" style="fill: none; stroke: #eef2f7; stroke-width: 0.55; stroke-linecap: square"/>
     </g>
     <g id="line2d_16">
      <g>
       <use xlink:href="#m798034c62a" x="831.971719" y="228.954713" style="stroke: #000000; stroke-width: 0.8"/>
      </g>
     </g>
     <g id="text_8">
      <!-- 175 -->
      <g transform="translate(823.382344 242.793307) scale(0.09 -0.09)">
       <use xlink:href="#DejaVuSans-31"/>
       <use xlink:href="#DejaVuSans-37" transform="translate(63.623047 0)"/>
       <use xlink:href="#DejaVuSans-35" transform="translate(127.246094 0)"/>
      </g>
     </g>
    </g>
    <g id="text_9">
     <!-- Minutes since session start -->
     <g transform="translate(419.728281 256.263463) scale(0.1 -0.1)">
      <defs>
       <path id="DejaVuSans-4d" d="M 628 4666 
L 1569 4666 
L 2759 1491 
L 3956 4666 
L 4897 4666 
L 4897 0 
L 4281 0 
L 4281 4097 
L 3078 897 
L 2444 897 
L 1241 4097 
L 1241 0 
L 628 0 
L 628 4666 
z
" transform="scale(0.015625)"/>
       <path id="DejaVuSans-69" d="M 603 3500 
L 1178 3500 
L 1178 0 
L 603 0 
L 603 3500 
z
M 603 4863 
L 1178 4863 
L 1178 4134 
L 603 4134 
L 603 4863 
z
" transform="scale(0.015625)"/>
       <path id="DejaVuSans-6e" d="M 3513 2113 
L 3513 0 
L 2938 0 
L 2938 2094 
Q 2938 2591 2744 2837 
Q 2550 3084 2163 3084 
Q 1697 3084 1428 2787 
Q 1159 2491 1159 1978 
L 1159 0 
L 581 0 
L 581 3500 
L 1159 3500 
L 1159 2956 
Q 1366 3272 1645 3428 
Q 1925 3584 2291 3584 
Q 2894 3584 3203 3211 
Q 3513 2838 3513 2113 
z
" transform="scale(0.015625)"/>
       <path id="DejaVuSans-75" d="M 544 1381 
L 544 3500 
L 1119 3500 
L 1119 1403 
Q 1119 906 1312 657 
Q 1506 409 1894 409 
Q 2359 409 2629 706 
Q 2900 1003 2900 1516 
L 2900 3500 
L 3475 3500 
L 3475 0 
L 2900 0 
L 2900 538 
Q 2691 219 2414 64 
Q 2138 -91 1772 -91 
Q 1169 -91 856 284 
Q 544 659 544 1381 
z
M 1991 3584 
L 1991 3584 
z
" transform="scale(0.015625)"/>
       <path id="DejaVuSans-74" d="M 1172 4494 
L 1172 3500 
L 2356 3500 
L 2356 3053 
L 1172 3053 
L 1172 1153 
Q 1172 725 1289 603 
Q 1406 481 1766 481 
L 2356 481 
L 2356 0 
L 1766 0 
Q 1100 0 847 248 
Q 594 497 594 1153 
L 594 3053 
L 172 3053 
L 172 3500 
L 594 3500 
L 594 4494 
L 1172 4494 
z
" transform="scale(0.015625)"/>
       <path id="DejaVuSans-65" d="M 3597 1894 
L 3597 1613 
L 953 1613 
Q 991 1019 1311 708 
Q 1631 397 2203 397 
Q 2534 397 2845 478 
Q 3156 559 3463 722 
L 3463 178 
Q 3153 47 2828 -22 
Q 2503 -91 2169 -91 
Q 1331 -91 842 396 
Q 353 884 353 1716 
Q 353 2575 817 3079 
Q 1281 3584 2069 3584 
Q 2775 3584 3186 3129 
Q 3597 2675 3597 1894 
z
M 3022 2063 
Q 3016 2534 2758 2815 
Q 2500 3097 2075 3097 
Q 1594 3097 1305 2825 
Q 1016 2553 972 2059 
L 3022 2063 
z
" transform="scale(0.015625)"/>
       <path id="DejaVuSans-73" d="M 2834 3397 
L 2834 2853 
Q 2591 2978 2328 3040 
Q 2066 3103 1784 3103 
Q 1356 3103 1142 2972 
Q 928 2841 928 2578 
Q 928 2378 1081 2264 
Q 1234 2150 1697 2047 
L 1894 2003 
Q 2506 1872 2764 1633 
Q 3022 1394 3022 966 
Q 3022 478 2636 193 
Q 2250 -91 1575 -91 
Q 1294 -91 989 -36 
Q 684 19 347 128 
L 347 722 
Q 666 556 975 473 
Q 1284 391 1588 391 
Q 1994 391 2212 530 
Q 2431 669 2431 922 
Q 2431 1156 2273 1281 
Q 2116 1406 1581 1522 
L 1381 1569 
Q 847 1681 609 1914 
Q 372 2147 372 2553 
Q 372 3047 722 3315 
Q 1072 3584 1716 3584 
Q 2034 3584 2315 3537 
Q 2597 3491 2834 3397 
z
" transform="scale(0.015625)"/>
       <path id="DejaVuSans-20" transform="scale(0.015625)"/>
       <path id="DejaVuSans-63" d="M 3122 3366 
L 3122 2828 
Q 2878 2963 2633 3030 
Q 2388 3097 2138 3097 
Q 1578 3097 1268 2742 
Q 959 2388 959 1747 
Q 959 1106 1268 751 
Q 1578 397 2138 397 
Q 2388 397 2633 464 
Q 2878 531 3122 666 
L 3122 134 
Q 2881 22 2623 -34 
Q 2366 -91 2075 -91 
Q 1284 -91 818 406 
Q 353 903 353 1747 
Q 353 2603 823 3093 
Q 1294 3584 2113 3584 
Q 2378 3584 2631 3529 
Q 2884 3475 3122 3366 
z
" transform="scale(0.015625)"/>
       <path id="DejaVuSans-6f" d="M 1959 3097 
Q 1497 3097 1228 2736 
Q 959 2375 959 1747 
Q 959 1119 1226 758 
Q 1494 397 1959 397 
Q 2419 397 2687 759 
Q 2956 1122 2956 1747 
Q 2956 2369 2687 2733 
Q 2419 3097 1959 3097 
z
M 1959 3584 
Q 2709 3584 3137 3096 
Q 3566 2609 3566 1747 
Q 3566 888 3137 398 
Q 2709 -91 1959 -91 
Q 1206 -91 779 398 
Q 353 888 353 1747 
Q 353 2609 779 3096 
Q 1206 3584 1959 3584 
z
" transform="scale(0.015625)"/>
       <path id="DejaVuSans-61" d="M 2194 1759 
Q 1497 1759 1228 1600 
Q 959 1441 959 1056 
Q 959 750 1161 570 
Q 1363 391 1709 391 
Q 2188 391 2477 730 
Q 2766 1069 2766 1631 
L 2766 1759 
L 2194 1759 
z
M 3341 1997 
L 3341 0 
L 2766 0 
L 2766 531 
Q 2569 213 2275 61 
Q 1981 -91 1556 -91 
Q 1019 -91 701 211 
Q 384 513 384 1019 
Q 384 1609 779 1909 
Q 1175 2209 1959 2209 
L 2766 2209 
L 2766 2266 
Q 2766 2663 2505 2880 
Q 2244 3097 1772 3097 
Q 1472 3097 1187 3025 
Q 903 2953 641 2809 
L 641 3341 
Q 956 3463 1253 3523 
Q 1550 3584 1831 3584 
Q 2591 3584 2966 3190 
Q 3341 2797 3341 1997 
z
" transform="scale(0.015625)"/>
       <path id="DejaVuSans-72" d="M 2631 2963 
Q 2534 3019 2420 3045 
Q 2306 3072 2169 3072 
Q 1681 3072 1420 2755 
Q 1159 2438 1159 1844 
L 1159 0 
L 581 0 
L 581 3500 
L 1159 3500 
L 1159 2956 
Q 1341 3275 1631 3429 
Q 1922 3584 2338 3584 
Q 2397 3584 2469 3576 
Q 2541 3569 2628 3553 
L 2631 2963 
z
" transform="scale(0.015625)"/>
      </defs>
      <use xlink:href="#DejaVuSans-4d"/>
      <use xlink:href="#DejaVuSans-69" transform="translate(86.279297 0)"/>
      <use xlink:href="#DejaVuSans-6e" transform="translate(114.0625 0)"/>
      <use xlink:href="#DejaVuSans-75" transform="translate(177.441406 0)"/>
      <use xlink:href="#DejaVuSans-74" transform="translate(240.820312 0)"/>
      <use xlink:href="#DejaVuSans-65" transform="translate(280.029297 0)"/>
      <use xlink:href="#DejaVuSans-73" transform="translate(341.552734 0)"/>
      <use xlink:href="#DejaVuSans-20" transform="translate(393.652344 0)"/>
      <use xlink:href="#DejaVuSans-73" transform="translate(425.439453 0)"/>
      <use xlink:href="#DejaVuSans-69" transform="translate(477.539062 0)"/>
      <use xlink:href="#DejaVuSans-6e" transform="translate(505.322266 0)"/>
      <use xlink:href="#DejaVuSans-63" transform="translate(568.701172 0)"/>
      <use xlink:href="#DejaVuSans-65" transform="translate(623.681641 0)"/>
      <use xlink:href="#DejaVuSans-20" transform="translate(685.205078 0)"/>
      <use xlink:href="#DejaVuSans-73" transform="translate(716.992188 0)"/>
      <use xlink:href="#DejaVuSans-65" transform="translate(769.091797 0)"/>
      <use xlink:href="#DejaVuSans-73" transform="translate(830.615234 0)"/>
      <use xlink:href="#DejaVuSans-73" transform="translate(882.714844 0)"/>
      <use xlink:href="#DejaVuSans-69" transform="translate(934.814453 0)"/>
      <use xlink:href="#DejaVuSans-6f" transform="translate(962.597656 0)"/>
      <use xlink:href="#DejaVuSans-6e" transform="translate(1023.779297 0)"/>
      <use xlink:href="#DejaVuSans-20" transform="translate(1087.158203 0)"/>
      <use xlink:href="#DejaVuSans-73" transform="translate(1118.945312 0)"/>
      <use xlink:href="#DejaVuSans-74" transform="translate(1171.044922 0)"/>
      <use xlink:href="#DejaVuSans-61" transform="translate(1210.253906 0)"/>
      <use xlink:href="#DejaVuSans-72" transform="translate(1271.533203 0)"/>
      <use xlink:href="#DejaVuSans-74" transform="translate(1312.646484 0)"/>
     </g>
    </g>
   </g>
   <g id="matplotlib.axis_2">
    <g id="ytick_1">
     <g id="line2d_17">
      <path d="M 39.330625 205.336845 
L 935.305625 205.336845 
" clip-path="url(#ped513b7617)" style="fill: none; stroke: #eef2f7; stroke-opacity: 0.25; stroke-width: 0.55; stroke-linecap: square"/>
     </g>
     <g id="line2d_18">
      <defs>
       <path id="m917cbbebfe" d="M 0 0 
L -3.5 0 
" style="stroke: #000000; stroke-width: 0.8"/>
      </defs>
      <g>
       <use xlink:href="#m917cbbebfe" x="39.330625" y="205.336845" style="stroke: #000000; stroke-width: 0.8"/>
      </g>
     </g>
     <g id="text_10">
      <!-- 31 -->
      <g transform="translate(20.878125 208.756142) scale(0.09 -0.09)">
       <defs>
        <path id="DejaVuSans-33" d="M 2597 2516 
Q 3050 2419 3304 2112 
Q 3559 1806 3559 1356 
Q 3559 666 3084 287 
Q 2609 -91 1734 -91 
Q 1441 -91 1130 -33 
Q 819 25 488 141 
L 488 750 
Q 750 597 1062 519 
Q 1375 441 1716 441 
Q 2309 441 2620 675 
Q 2931 909 2931 1356 
Q 2931 1769 2642 2001 
Q 2353 2234 1838 2234 
L 1294 2234 
L 1294 2753 
L 1863 2753 
Q 2328 2753 2575 2939 
Q 2822 3125 2822 3475 
Q 2822 3834 2567 4026 
Q 2313 4219 1838 4219 
Q 1578 4219 1281 4162 
Q 984 4106 628 3988 
L 628 4550 
Q 988 4650 1302 4700 
Q 1616 4750 1894 4750 
Q 2613 4750 3031 4423 
Q 3450 4097 3450 3541 
Q 3450 3153 3228 2886 
Q 3006 2619 2597 2516 
z
" transform="scale(0.015625)"/>
       </defs>
       <use xlink:href="#DejaVuSans-33"/>
       <use xlink:href="#DejaVuSans-31" transform="translate(63.623047 0)"/>
      </g>
     </g>
    </g>
    <g id="ytick_2">
     <g id="line2d_19">
      <path d="M 39.330625 164.649266 
L 935.305625 164.649266 
" clip-path="url(#ped513b7617)" style="fill: none; stroke: #eef2f7; stroke-opacity: 0.25; stroke-width: 0.55; stroke-linecap: square"/>
     </g>
     <g id="line2d_20">
      <g>
       <use xlink:href="#m917cbbebfe" x="39.330625" y="164.649266" style="stroke: #000000; stroke-width: 0.8"/>
      </g>
     </g>
     <g id="text_11">
      <!-- 32 -->
      <g transform="translate(20.878125 168.068563) scale(0.09 -0.09)">
       <use xlink:href="#DejaVuSans-33"/>
       <use xlink:href="#DejaVuSans-32" transform="translate(63.623047 0)"/>
      </g>
     </g>
    </g>
    <g id="ytick_3">
     <g id="line2d_21">
      <path d="M 39.330625 123.961688 
L 935.305625 123.961688 
" clip-path="url(#ped513b7617)" style="fill: none; stroke: #eef2f7; stroke-opacity: 0.25; stroke-width: 0.55; stroke-linecap: square"/>
     </g>
     <g id="line2d_22">
      <g>
       <use xlink:href="#m917cbbebfe" x="39.330625" y="123.961688" style="stroke: #000000; stroke-width: 0.8"/>
      </g>
     </g>
     <g id="text_12">
      <!-- 33 -->
      <g transform="translate(20.878125 127.380985) scale(0.09 -0.09)">
       <use xlink:href="#DejaVuSans-33"/>
       <use xlink:href="#DejaVuSans-33" transform="translate(63.623047 0)"/>
      </g>
     </g>
    </g>
    <g id="ytick_4">
     <g id="line2d_23">
      <path d="M 39.330625 83.274109 
L 935.305625 83.274109 
" clip-path="url(#ped513b7617)" style="fill: none; stroke: #eef2f7; stroke-opacity: 0.25; stroke-width: 0.55; stroke-linecap: square"/>
     </g>
     <g id="line2d_24">
      <g>
       <use xlink:href="#m917cbbebfe" x="39.330625" y="83.274109" style="stroke: #000000; stroke-width: 0.8"/>
      </g>
     </g>
     <g id="text_13">
      <!-- 34 -->
      <g transform="translate(20.878125 86.693406) scale(0.09 -0.09)">
       <defs>
        <path id="DejaVuSans-34" d="M 2419 4116 
L 825 1625 
L 2419 1625 
L 2419 4116 
z
M 2253 4666 
L 3047 4666 
L 3047 1625 
L 3713 1625 
L 3713 1100 
L 3047 1100 
L 3047 0 
L 2419 0 
L 2419 1100 
L 313 1100 
L 313 1709 
L 2253 4666 
z
" transform="scale(0.015625)"/>
       </defs>
       <use xlink:href="#DejaVuSans-33"/>
       <use xlink:href="#DejaVuSans-34" transform="translate(63.623047 0)"/>
      </g>
     </g>
    </g>
    <g id="ytick_5">
     <g id="line2d_25">
      <path d="M 39.330625 42.586531 
L 935.305625 42.586531 
" clip-path="url(#ped513b7617)" style="fill: none; stroke: #eef2f7; stroke-opacity: 0.25; stroke-width: 0.55; stroke-linecap: square"/>
     </g>
     <g id="line2d_26">
      <g>
       <use xlink:href="#m917cbbebfe" x="39.330625" y="42.586531" style="stroke: #000000; stroke-width: 0.8"/>
      </g>
     </g>
     <g id="text_14">
      <!-- 35 -->
      <g transform="translate(20.878125 46.005828) scale(0.09 -0.09)">
       <use xlink:href="#DejaVuSans-33"/>
       <use xlink:href="#DejaVuSans-35" transform="translate(63.623047 0)"/>
      </g>
     </g>
    </g>
    <g id="text_15">
     <!-- Temperature (C) -->
     <g transform="translate(14.798438 163.659635) rotate(-90) scale(0.1 -0.1)">
      <defs>
       <path id="DejaVuSans-54" d="M -19 4666 
L 3928 4666 
L 3928 4134 
L 2272 4134 
L 2272 0 
L 1638 0 
L 1638 4134 
L -19 4134 
L -19 4666 
z
" transform="scale(0.015625)"/>
       <path id="DejaVuSans-6d" d="M 3328 2828 
Q 3544 3216 3844 3400 
Q 4144 3584 4550 3584 
Q 5097 3584 5394 3201 
Q 5691 2819 5691 2113 
L 5691 0 
L 5113 0 
L 5113 2094 
Q 5113 2597 4934 2840 
Q 4756 3084 4391 3084 
Q 3944 3084 3684 2787 
Q 3425 2491 3425 1978 
L 3425 0 
L 2847 0 
L 2847 2094 
Q 2847 2600 2669 2842 
Q 2491 3084 2119 3084 
Q 1678 3084 1418 2786 
Q 1159 2488 1159 1978 
L 1159 0 
L 581 0 
L 581 3500 
L 1159 3500 
L 1159 2956 
Q 1356 3278 1631 3431 
Q 1906 3584 2284 3584 
Q 2666 3584 2933 3390 
Q 3200 3197 3328 2828 
z
" transform="scale(0.015625)"/>
       <path id="DejaVuSans-70" d="M 1159 525 
L 1159 -1331 
L 581 -1331 
L 581 3500 
L 1159 3500 
L 1159 2969 
Q 1341 3281 1617 3432 
Q 1894 3584 2278 3584 
Q 2916 3584 3314 3078 
Q 3713 2572 3713 1747 
Q 3713 922 3314 415 
Q 2916 -91 2278 -91 
Q 1894 -91 1617 61 
Q 1341 213 1159 525 
z
M 3116 1747 
Q 3116 2381 2855 2742 
Q 2594 3103 2138 3103 
Q 1681 3103 1420 2742 
Q 1159 2381 1159 1747 
Q 1159 1113 1420 752 
Q 1681 391 2138 391 
Q 2594 391 2855 752 
Q 3116 1113 3116 1747 
z
" transform="scale(0.015625)"/>
       <path id="DejaVuSans-28" d="M 1984 4856 
Q 1566 4138 1362 3434 
Q 1159 2731 1159 2009 
Q 1159 1288 1364 580 
Q 1569 -128 1984 -844 
L 1484 -844 
Q 1016 -109 783 600 
Q 550 1309 550 2009 
Q 550 2706 781 3412 
Q 1013 4119 1484 4856 
L 1984 4856 
z
" transform="scale(0.015625)"/>
       <path id="DejaVuSans-43" d="M 4122 4306 
L 4122 3641 
Q 3803 3938 3442 4084 
Q 3081 4231 2675 4231 
Q 1875 4231 1450 3742 
Q 1025 3253 1025 2328 
Q 1025 1406 1450 917 
Q 1875 428 2675 428 
Q 3081 428 3442 575 
Q 3803 722 4122 1019 
L 4122 359 
Q 3791 134 3420 21 
Q 3050 -91 2638 -91 
Q 1578 -91 968 557 
Q 359 1206 359 2328 
Q 359 3453 968 4101 
Q 1578 4750 2638 4750 
Q 3056 4750 3426 4639 
Q 3797 4528 4122 4306 
z
" transform="scale(0.015625)"/>
       <path id="DejaVuSans-29" d="M 513 4856 
L 1013 4856 
Q 1481 4119 1714 3412 
Q 1947 2706 1947 2009 
Q 1947 1309 1714 600 
Q 1481 -109 1013 -844 
L 513 -844 
Q 928 -128 1133 580 
Q 1338 1288 1338 2009 
Q 1338 2731 1133 3434 
Q 928 4138 513 4856 
z
" transform="scale(0.015625)"/>
      </defs>
      <use xlink:href="#DejaVuSans-54"/>
      <use xlink:href="#DejaVuSans-65" transform="translate(44.083984 0)"/>
      <use xlink:href="#DejaVuSans-6d" transform="translate(105.607422 0)"/>
      <use xlink:href="#DejaVuSans-70" transform="translate(203.019531 0)"/>
      <use xlink:href="#DejaVuSans-65" transform="translate(266.496094 0)"/>
      <use xlink:href="#DejaVuSans-72" transform="translate(328.019531 0)"/>
      <use xlink:href="#DejaVuSans-61" transform="translate(369.132812 0)"/>
      <use xlink:href="#DejaVuSans-74" transform="translate(430.412109 0)"/>
      <use xlink:href="#DejaVuSans-75" transform="translate(469.621094 0)"/>
      <use xlink:href="#DejaVuSans-72" transform="translate(533 0)"/>
      <use xlink:href="#DejaVuSans-65" transform="translate(571.863281 0)"/>
      <use xlink:href="#DejaVuSans-20" transform="translate(633.386719 0)"/>
      <use xlink:href="#DejaVuSans-28" transform="translate(665.173828 0)"/>
      <use xlink:href="#DejaVuSans-43" transform="translate(704.1875 0)"/>
      <use xlink:href="#DejaVuSans-29" transform="translate(774.011719 0)"/>
     </g>
    </g>
   </g>
   <g id="line2d_27">
    <path d="M 39.340368 219.005328 
L 39.642326 219.3232 
L 39.944285 219.3232 
L 40.246243 219.005328 
L 40.85016 219.005328 
L 41.454077 217.733842 
L 41.756036 218.051713 
L 42.057994 217.41597 
L 42.359953 217.098098 
L 42.661911 216.462355 
L 42.96387 216.462355 
L 43.265828 215.826611 
L 43.567787 215.826611 
L 43.869745 214.872996 
L 44.171704 214.872996 
L 44.473662 214.555124 
L 44.775621 214.555124 
L 45.077579 213.601509 
L 45.379538 213.919381 
L 45.681496 213.601509 
L 45.983455 213.919381 
L 46.285413 213.283638 
L 46.88933 213.283638 
L 47.191289 212.330023 
L 47.493247 212.330023 
L 47.795206 212.647894 
L 48.097164 212.647894 
L 48.399123 212.012151 
L 49.606957 212.012151 
L 49.908915 211.376407 
L 50.210874 212.012151 
L 50.512832 211.694279 
L 50.814791 211.058536 
L 51.11675 211.694279 
L 51.418708 211.058536 
L 51.720667 211.694279 
L 52.022625 210.422792 
L 52.324584 211.058536 
L 52.626542 211.376407 
L 52.928501 211.058536 
L 53.230459 210.422792 
L 53.532418 210.740664 
L 53.834376 210.104921 
L 54.438293 210.104921 
L 54.740252 209.787049 
L 55.04221 210.104921 
L 55.646127 208.833434 
L 55.948086 209.151305 
L 56.250044 209.151305 
L 56.552003 209.469177 
L 56.853961 209.469177 
L 57.15592 208.833434 
L 57.759837 209.469177 
L 58.061795 208.833434 
L 58.363754 208.515562 
L 58.967671 208.515562 
L 59.269629 208.833434 
L 59.571588 208.19769 
L 59.873546 208.19769 
L 60.175505 207.879819 
L 60.477463 208.515562 
L 60.779422 207.561947 
L 61.08138 207.879819 
L 61.383339 207.561947 
L 61.685297 207.561947 
L 61.987256 206.926203 
L 62.591173 206.29046 
L 62.893131 206.29046 
L 63.19509 205.972588 
L 63.497048 205.972588 
L 63.799007 205.018973 
L 64.402924 205.018973 
L 64.704883 203.747486 
L 65.006841 203.111743 
L 65.3088 202.793871 
L 65.610758 202.793871 
L 65.912717 201.840256 
L 66.214675 201.522384 
L 66.516634 200.886641 
L 66.818592 200.568769 
L 67.120551 199.933026 
L 67.422509 198.661539 
L 67.724468 198.661539 
L 68.026426 197.072181 
L 68.328385 197.390052 
L 68.630343 196.754309 
L 68.932302 195.482822 
L 69.23426 195.16495 
L 70.442094 192.621977 
L 70.744053 191.668362 
L 71.046011 191.35049 
L 71.34797 190.714746 
L 71.649928 189.761131 
L 71.951887 189.44326 
L 72.253845 188.489644 
L 72.555804 188.807516 
L 72.857762 187.536029 
L 73.159721 186.900286 
L 73.461679 186.900286 
L 73.763638 185.628799 
L 74.065596 185.310927 
L 74.367555 184.039441 
L 74.971472 182.767954 
L 75.27343 182.450082 
L 75.877347 181.178595 
L 77.991057 174.821161 
L 78.293016 174.185418 
L 78.594974 173.867546 
L 78.896933 172.913931 
L 79.198891 172.596059 
L 79.50085 171.324572 
L 79.802808 171.006701 
L 80.104767 170.370957 
L 80.406725 169.417342 
L 80.708684 169.09947 
L 81.010642 168.145855 
L 81.312601 168.463727 
L 81.614559 166.874368 
L 81.916518 166.556497 
L 82.218476 166.874368 
L 83.124352 164.331395 
L 83.42631 164.331395 
L 84.030227 162.424164 
L 84.332186 162.106293 
L 84.634144 161.152678 
L 84.936103 161.152678 
L 85.238061 160.199063 
L 85.54002 160.199063 
L 85.841978 158.609704 
L 86.143937 158.291832 
L 86.445895 157.656089 
L 87.049812 157.020345 
L 87.351771 156.06673 
L 87.653729 156.06673 
L 88.257646 153.841628 
L 88.559605 154.1595 
L 88.861563 152.888013 
L 89.163522 152.888013 
L 89.465481 152.570142 
L 89.767439 151.616526 
L 90.069398 151.298655 
L 90.371356 150.34504 
L 91.277232 149.391424 
L 91.881149 147.802066 
L 92.183107 147.484194 
L 92.485066 146.530579 
L 92.787024 146.530579 
L 93.088983 146.212707 
L 93.390941 145.259092 
L 93.6929 145.259092 
L 93.994858 143.987605 
L 94.296817 144.305477 
L 94.598775 143.03399 
L 95.202692 142.398247 
L 95.504651 141.444632 
L 95.806609 141.762504 
L 96.108568 140.808888 
L 96.410526 140.808888 
L 96.712485 139.537402 
L 97.014443 139.21953 
L 97.61836 137.948043 
L 97.920319 138.583786 
L 98.222277 137.948043 
L 98.524236 136.994428 
L 98.826194 136.676556 
L 99.128153 136.040813 
L 99.430111 136.040813 
L 99.73207 135.722941 
L 100.335987 134.451454 
L 100.637945 134.451454 
L 100.939904 133.179967 
L 101.241862 133.179967 
L 101.543821 132.544224 
L 101.84578 132.544224 
L 102.449697 131.272737 
L 102.751655 130.954865 
L 103.053614 130.954865 
L 103.657531 129.683379 
L 103.959489 129.683379 
L 104.261448 129.047635 
L 104.563406 129.047635 
L 104.865365 128.09402 
L 105.167323 127.776148 
L 105.469282 127.140405 
L 105.77124 126.822533 
L 106.073199 126.18679 
L 106.677116 126.18679 
L 107.281033 124.915303 
L 107.582991 125.233175 
L 108.186908 123.961688 
L 109.696701 122.372329 
L 109.998659 121.736586 
L 110.300618 122.054458 
L 110.602576 121.736586 
L 111.206493 119.829356 
L 111.81041 119.829356 
L 112.112369 119.511484 
L 112.414327 118.557869 
L 112.716286 118.239997 
L 113.320203 118.239997 
L 113.92412 117.604254 
L 114.226079 116.96851 
L 114.829996 116.332767 
L 115.131954 115.697024 
L 115.735871 115.06128 
L 116.03783 115.379152 
L 116.339788 114.743408 
L 116.641747 113.789793 
L 116.943705 114.107665 
L 117.245664 113.789793 
L 117.547622 113.15405 
L 117.849581 112.836178 
L 118.151539 111.882563 
L 118.453498 112.518306 
L 118.755456 112.200435 
L 119.057415 111.564691 
L 119.359373 111.564691 
L 119.661332 110.611076 
L 119.96329 110.611076 
L 120.265249 110.928948 
L 120.869166 109.657461 
L 121.171124 109.339589 
L 121.473083 109.657461 
L 121.775041 109.339589 
L 122.378958 108.068103 
L 122.680917 108.068103 
L 122.982875 107.750231 
L 123.284834 107.750231 
L 123.586792 107.432359 
L 124.190709 105.843001 
L 124.492668 106.160872 
L 125.096585 106.160872 
L 126.00246 105.207257 
L 126.304419 105.207257 
L 127.210295 104.253642 
L 127.512253 104.889385 
L 127.814212 103.93577 
L 128.11617 103.93577 
L 128.418129 103.300027 
L 128.720087 102.982155 
L 129.022046 103.300027 
L 129.625963 102.02854 
L 129.927921 102.664284 
L 130.531838 101.392797 
L 130.833797 101.392797 
L 131.135755 101.710668 
L 131.437714 101.074925 
L 131.739672 100.757053 
L 132.041631 100.12131 
L 132.645548 100.757053 
L 132.947506 99.485566 
L 133.249465 100.12131 
L 133.551423 99.485566 
L 134.15534 98.849823 
L 134.457299 98.849823 
L 134.759257 98.531951 
L 135.061216 98.531951 
L 135.665133 97.896208 
L 135.967091 97.896208 
L 136.26905 98.21408 
L 136.571008 96.942593 
L 136.872967 97.260465 
L 137.174925 96.942593 
L 137.476884 96.942593 
L 137.778842 96.624721 
L 138.080801 95.988978 
L 138.382759 95.988978 
L 138.684718 95.671106 
L 138.986676 95.671106 
L 139.590594 95.035363 
L 139.892552 95.353234 
L 140.194511 94.717491 
L 140.496469 94.717491 
L 141.100386 94.081747 
L 141.402345 94.399619 
L 141.704303 94.081747 
L 142.006262 93.446004 
L 142.30822 93.763876 
L 142.610179 93.128132 
L 142.912137 93.763876 
L 143.214096 93.446004 
L 143.516054 92.810261 
L 143.818013 92.810261 
L 144.119971 92.174517 
L 144.42193 92.492389 
L 144.723888 91.856645 
L 145.025847 92.174517 
L 145.327805 91.856645 
L 145.629764 91.220902 
L 145.931722 91.856645 
L 146.233681 90.585159 
L 146.535639 91.538774 
L 146.837598 90.585159 
L 147.139556 90.267287 
L 147.441515 90.585159 
L 147.743473 90.267287 
L 148.045432 90.585159 
L 148.34739 89.313672 
L 148.649349 90.267287 
L 148.951307 89.949415 
L 149.253266 89.949415 
L 149.857183 88.677928 
L 150.159141 89.313672 
L 150.4611 88.042185 
L 151.065017 88.677928 
L 151.970892 87.724313 
L 152.272851 88.042185 
L 153.480685 86.770698 
L 153.782644 87.08857 
L 154.386561 87.08857 
L 154.688519 86.452826 
L 154.990478 87.08857 
L 155.292436 86.134955 
L 155.594395 86.452826 
L 155.896353 85.499211 
L 156.198312 85.817083 
L 156.50027 85.499211 
L 157.406146 85.499211 
L 157.708104 84.863468 
L 158.010063 84.863468 
L 158.312021 85.18134 
L 158.61398 85.18134 
L 158.915938 84.545596 
L 159.217897 84.863468 
L 159.519855 83.909853 
L 160.123772 83.909853 
L 160.425731 83.591981 
L 160.727689 83.909853 
L 161.029648 83.591981 
L 161.331606 83.591981 
L 161.633565 82.956238 
L 161.935523 82.638366 
L 162.237482 82.956238 
L 162.53944 82.320494 
L 163.747274 82.320494 
L 164.049233 81.684751 
L 164.351191 81.684751 
L 164.65315 80.731136 
L 164.955109 81.366879 
L 165.257067 81.684751 
L 165.559026 80.413264 
L 166.162943 80.413264 
L 166.76686 79.777521 
L 167.068818 80.095392 
L 167.370777 79.777521 
L 167.672735 79.777521 
L 168.276652 79.141777 
L 168.578611 79.141777 
L 169.182528 78.506034 
L 169.484486 78.823906 
L 170.088403 78.188162 
L 170.390362 78.823906 
L 170.69232 78.188162 
L 170.994279 78.188162 
L 171.296237 77.234547 
L 171.598196 77.87029 
L 171.900154 77.234547 
L 172.202113 77.234547 
L 172.504071 76.916675 
L 172.80603 77.552419 
L 173.107988 76.280932 
L 173.409947 76.280932 
L 173.711905 76.598804 
L 174.013864 75.645188 
L 174.315822 76.280932 
L 174.617781 75.96306 
L 174.919739 75.96306 
L 175.221698 75.327317 
L 175.523656 75.645188 
L 176.127573 75.009445 
L 176.429532 75.009445 
L 176.73149 74.691573 
L 177.033449 74.691573 
L 177.335407 74.05583 
L 177.939325 74.05583 
L 178.241283 73.737958 
L 178.543242 73.737958 
L 178.8452 72.784343 
L 179.147159 73.420086 
L 179.449117 73.420086 
L 180.053034 72.784343 
L 180.354993 72.784343 
L 180.656951 73.102215 
L 180.95891 72.1486 
L 181.260868 72.1486 
L 181.562827 71.830728 
L 181.864785 72.466471 
L 182.468702 71.830728 
L 182.770661 71.830728 
L 183.072619 72.1486 
L 183.374578 71.830728 
L 183.676536 72.1486 
L 183.978495 70.877113 
L 184.280453 71.512856 
L 184.88437 70.877113 
L 185.186329 70.877113 
L 185.488287 71.194985 
L 185.790246 70.559241 
L 186.394163 70.559241 
L 186.99808 69.923498 
L 187.300038 70.559241 
L 187.601997 69.923498 
L 187.903955 69.923498 
L 188.205914 69.605626 
L 188.507872 70.241369 
L 188.809831 69.287754 
L 189.111789 69.605626 
L 189.413748 68.652011 
L 189.715706 69.287754 
L 190.017665 68.652011 
L 190.319624 68.334139 
L 190.621582 68.969883 
L 190.923541 68.969883 
L 191.225499 68.334139 
L 191.829416 68.334139 
L 192.131375 67.698396 
L 192.433333 68.016267 
L 192.735292 67.380524 
L 193.03725 68.016267 
L 193.339209 67.380524 
L 193.641167 67.698396 
L 193.943126 67.698396 
L 194.547043 67.062652 
L 194.849001 67.380524 
L 195.15096 66.744781 
L 195.452918 66.744781 
L 195.754877 66.109037 
L 196.056835 66.426909 
L 196.358794 65.791166 
L 196.660752 65.473294 
L 196.962711 66.109037 
L 197.264669 65.791166 
L 197.566628 66.109037 
L 197.868586 66.109037 
L 198.170545 65.791166 
L 198.472503 66.109037 
L 198.774462 65.473294 
L 199.07642 65.473294 
L 199.378379 64.83755 
L 199.680337 65.473294 
L 200.586213 64.519679 
L 200.888171 64.83755 
L 201.19013 64.201807 
L 201.794047 64.201807 
L 202.096005 64.519679 
L 202.397964 64.519679 
L 202.699923 64.201807 
L 203.001881 64.201807 
L 203.30384 63.883935 
L 203.605798 63.883935 
L 203.907757 63.248192 
L 204.209715 64.201807 
L 204.511674 62.93032 
L 204.813632 63.248192 
L 205.115591 62.93032 
L 205.417549 62.93032 
L 205.719508 63.566064 
L 206.021466 62.294577 
L 206.323425 61.976705 
L 206.625383 62.612448 
L 206.927342 61.976705 
L 207.531259 61.976705 
L 208.135176 61.340962 
L 208.437134 61.658833 
L 208.739093 61.340962 
L 209.041051 61.976705 
L 209.34301 60.705218 
L 209.946927 61.340962 
L 210.248885 61.02309 
L 210.550844 61.02309 
L 210.852802 60.705218 
L 211.154761 60.705218 
L 211.456719 60.069475 
L 211.758678 60.069475 
L 212.060636 60.387346 
L 212.362595 60.069475 
L 212.966512 60.069475 
L 213.26847 59.433731 
L 213.570429 59.751603 
L 214.174346 59.11586 
L 214.476304 59.11586 
L 215.080221 59.751603 
L 215.38218 59.433731 
L 215.986097 58.162245 
L 216.288056 58.797988 
L 216.590014 58.162245 
L 216.891973 59.11586 
L 217.193931 58.162245 
L 217.49589 58.797988 
L 218.099807 58.162245 
L 218.401765 58.162245 
L 218.703724 57.844373 
L 219.005682 59.11586 
L 219.307641 57.844373 
L 219.609599 57.208629 
L 219.911558 58.162245 
L 220.213516 57.208629 
L 220.817433 57.208629 
L 221.119392 56.890758 
L 221.42135 57.208629 
L 221.723309 56.890758 
L 222.025267 57.208629 
L 222.327226 57.208629 
L 222.629184 56.890758 
L 222.931143 57.526501 
L 223.233101 56.890758 
L 223.53506 56.572886 
L 223.837018 56.572886 
L 224.138977 56.255014 
L 224.440935 56.572886 
L 224.742894 55.937143 
L 225.346811 55.937143 
L 225.648769 56.255014 
L 225.950728 55.619271 
L 226.252686 55.301399 
L 226.554645 55.619271 
L 227.158562 55.619271 
L 227.46052 54.983527 
L 227.762479 54.983527 
L 228.064438 55.301399 
L 228.366396 55.301399 
L 228.668355 54.983527 
L 228.970313 55.301399 
L 229.272272 54.665656 
L 229.57423 54.665656 
L 229.876189 54.347784 
L 230.178147 54.665656 
L 230.480106 54.029912 
L 230.782064 54.665656 
L 231.084023 54.029912 
L 231.385981 53.712041 
L 231.989898 53.712041 
L 232.291857 54.029912 
L 232.593815 54.029912 
L 232.895774 53.712041 
L 233.197732 53.712041 
L 233.499691 54.029912 
L 233.801649 53.076297 
L 234.707525 53.076297 
L 235.009483 53.394169 
L 235.311442 52.758426 
L 235.6134 52.758426 
L 235.915359 52.440554 
L 236.217317 52.758426 
L 236.821234 52.758426 
L 237.123193 52.122682 
L 237.425151 52.122682 
L 237.72711 52.440554 
L 238.029068 52.122682 
L 238.331027 51.486939 
L 238.632985 52.122682 
L 238.934944 51.486939 
L 239.236902 52.122682 
L 239.840819 51.486939 
L 240.142778 51.486939 
L 240.444736 51.80481 
L 240.746695 51.486939 
L 241.048654 52.122682 
L 241.350612 50.851195 
L 241.652571 51.169067 
L 241.954529 51.169067 
L 242.256488 51.486939 
L 242.558446 50.851195 
L 242.860405 50.851195 
L 243.76628 49.89758 
L 244.068239 50.533324 
L 244.370197 50.215452 
L 244.974114 50.215452 
L 245.276073 49.89758 
L 245.578031 50.215452 
L 245.87999 50.215452 
L 246.181948 49.579708 
L 246.483907 49.261837 
L 247.087824 49.261837 
L 247.389782 48.943965 
L 247.691741 49.261837 
L 247.993699 48.626093 
L 248.295658 48.943965 
L 248.899575 48.943965 
L 249.201533 48.626093 
L 249.503492 48.943965 
L 249.80545 48.626093 
L 250.107409 49.261837 
L 250.409367 48.308222 
L 250.711326 48.308222 
L 251.013284 48.943965 
L 251.315243 48.308222 
L 251.91916 48.943965 
L 252.221118 48.943965 
L 252.523077 48.308222 
L 252.825035 48.626093 
L 253.126994 49.261837 
L 253.428953 48.626093 
L 253.730911 49.261837 
L 254.334828 48.626093 
L 254.636787 48.626093 
L 254.938745 48.308222 
L 255.542662 48.943965 
L 255.844621 48.308222 
L 256.146579 48.943965 
L 256.448538 48.626093 
L 256.750496 48.626093 
L 257.052455 48.943965 
L 257.354413 48.626093 
L 257.656372 49.261837 
L 257.95833 48.626093 
L 258.260289 48.626093 
L 258.562247 48.943965 
L 258.864206 48.308222 
L 259.166164 49.261837 
L 259.770081 49.261837 
L 260.07204 48.943965 
L 260.373998 48.943965 
L 260.977915 49.579708 
L 261.279874 49.261837 
L 261.581832 49.261837 
L 261.883791 48.943965 
L 262.185749 49.89758 
L 262.789666 49.261837 
L 263.091625 49.89758 
L 263.393583 49.579708 
L 263.695542 49.579708 
L 263.9975 49.261837 
L 264.299459 49.261837 
L 264.601417 50.215452 
L 264.903376 49.89758 
L 265.205334 49.261837 
L 265.507293 49.579708 
L 265.809251 49.579708 
L 266.11121 49.89758 
L 266.413169 49.89758 
L 266.715127 50.215452 
L 267.017086 49.579708 
L 267.319044 49.89758 
L 267.621003 49.579708 
L 267.922961 50.533324 
L 268.22492 49.579708 
L 268.526878 50.215452 
L 268.828837 49.89758 
L 269.130795 50.215452 
L 269.432754 50.215452 
L 269.734712 49.579708 
L 270.036671 50.533324 
L 270.338629 49.89758 
L 270.640588 49.89758 
L 270.942546 50.533324 
L 271.244505 50.533324 
L 271.848422 49.89758 
L 272.15038 50.533324 
L 272.452339 50.215452 
L 272.754297 50.533324 
L 273.358214 50.533324 
L 273.660173 50.215452 
L 273.962131 50.533324 
L 274.26409 50.215452 
L 274.566048 50.215452 
L 274.868007 51.169067 
L 275.169965 50.851195 
L 275.471924 50.215452 
L 275.773882 50.215452 
L 276.075841 51.486939 
L 276.377799 50.533324 
L 276.679758 50.215452 
L 276.981716 50.851195 
L 277.283675 49.89758 
L 277.887592 50.533324 
L 278.491509 49.89758 
L 278.793468 50.215452 
L 279.095426 50.215452 
L 279.397385 50.533324 
L 279.699343 49.89758 
L 280.001302 49.579708 
L 280.30326 49.579708 
L 280.605219 49.89758 
L 280.907177 49.261837 
L 282.115011 49.261837 
L 282.41697 48.943965 
L 283.020887 48.943965 
L 283.322845 48.626093 
L 283.624804 49.261837 
L 283.926762 48.626093 
L 284.228721 48.626093 
L 284.530679 47.99035 
L 285.134596 48.626093 
L 285.436555 48.626093 
L 285.738513 48.943965 
L 286.040472 47.99035 
L 286.34243 47.99035 
L 286.644389 47.672478 
L 286.946347 47.99035 
L 287.248306 47.99035 
L 287.550264 47.672478 
L 287.852223 47.99035 
L 288.154181 47.354606 
L 288.45614 47.672478 
L 288.758098 47.354606 
L 289.060057 47.354606 
L 289.362015 47.672478 
L 289.663974 46.718863 
L 289.965932 47.036735 
L 290.267891 48.943965 
L 290.569849 47.036735 
L 290.871808 46.718863 
L 291.173766 46.718863 
L 291.475725 46.400991 
L 291.777684 46.718863 
L 292.683559 46.718863 
L 292.985518 46.08312 
L 293.287476 45.765248 
L 293.589435 46.08312 
L 293.891393 45.765248 
L 294.193352 46.08312 
L 295.099227 45.129505 
L 295.401186 45.447376 
L 295.703144 45.129505 
L 296.60902 45.129505 
L 296.910978 44.811633 
L 297.212937 45.129505 
L 297.514895 44.811633 
L 297.816854 44.811633 
L 298.118812 45.129505 
L 298.420771 44.811633 
L 298.722729 44.175889 
L 299.024688 43.222274 
L 299.326646 44.493761 
L 299.628605 44.493761 
L 300.232522 43.858018 
L 301.138397 43.858018 
L 301.440356 43.540146 
L 301.742314 43.540146 
L 302.044273 42.904403 
L 302.346231 43.540146 
L 302.64819 43.540146 
L 302.950148 43.222274 
L 303.252107 42.586531 
L 303.554065 42.586531 
L 303.856024 42.268659 
L 304.157983 43.222274 
L 304.459941 42.268659 
L 305.365817 42.268659 
L 305.969734 41.632916 
L 306.271692 42.586531 
L 306.573651 41.632916 
L 307.177568 40.997172 
L 307.479526 41.315044 
L 308.083443 40.679301 
L 308.385402 40.997172 
L 308.68736 40.679301 
L 309.895194 40.679301 
L 310.197153 40.361429 
L 310.499111 40.679301 
L 310.80107 40.043557 
L 311.706945 40.043557 
L 312.008904 39.725686 
L 312.310862 39.725686 
L 312.612821 39.089942 
L 312.914779 39.725686 
L 313.216738 40.043557 
L 313.518696 39.089942 
L 313.820655 39.089942 
L 314.122613 38.77207 
L 314.424572 39.089942 
L 314.72653 39.089942 
L 315.028489 38.77207 
L 315.330447 38.77207 
L 315.632406 38.454199 
L 315.934364 38.454199 
L 316.236323 38.77207 
L 316.84024 38.136327 
L 317.746116 38.136327 
L 318.048074 37.500584 
L 318.350033 38.136327 
L 319.255908 37.182712 
L 319.557867 37.818455 
L 319.859825 37.182712 
L 320.161784 37.818455 
L 320.463742 36.86484 
L 320.765701 37.182712 
L 321.067659 36.546968 
L 321.369618 36.86484 
L 321.973535 36.86484 
L 322.87941 37.818455 
L 323.181369 36.86484 
L 323.483327 37.182712 
L 323.785286 36.86484 
L 324.087244 37.500584 
L 324.389203 36.86484 
L 324.691161 37.500584 
L 324.99312 37.818455 
L 325.295078 37.818455 
L 325.597037 37.182712 
L 326.200954 38.454199 
L 326.804871 38.454199 
L 327.106829 37.500584 
L 327.710746 38.77207 
L 328.012705 38.454199 
L 328.314663 38.77207 
L 328.616622 38.77207 
L 328.91858 39.407814 
L 329.522498 39.407814 
L 329.824456 39.725686 
L 330.126415 39.089942 
L 330.428373 39.725686 
L 331.03229 39.725686 
L 331.334249 40.361429 
L 331.636207 40.361429 
L 331.938166 40.043557 
L 332.240124 40.997172 
L 332.542083 40.679301 
L 332.844041 40.997172 
L 333.146 40.997172 
L 333.447958 40.679301 
L 333.749917 40.997172 
L 334.051875 40.997172 
L 334.353834 41.632916 
L 334.655792 40.679301 
L 335.259709 41.950787 
L 335.561668 41.950787 
L 335.863626 42.268659 
L 336.165585 41.950787 
L 336.467543 42.268659 
L 336.769502 41.950787 
L 337.07146 42.268659 
L 337.373419 42.268659 
L 337.675377 42.904403 
L 337.977336 42.586531 
L 338.279294 42.586531 
L 338.581253 43.540146 
L 338.883211 42.586531 
L 339.18517 42.904403 
L 339.487128 43.540146 
L 339.789087 43.540146 
L 340.091045 43.222274 
L 340.393004 43.540146 
L 340.694962 43.540146 
L 340.996921 44.175889 
L 341.298879 43.858018 
L 341.600838 44.175889 
L 341.902797 43.858018 
L 342.506714 44.493761 
L 342.808672 43.858018 
L 343.110631 44.493761 
L 343.412589 44.493761 
L 343.714548 45.129505 
L 344.016506 44.811633 
L 344.318465 45.129505 
L 344.620423 44.493761 
L 344.922382 45.129505 
L 345.22434 45.447376 
L 345.828257 45.447376 
L 346.130216 44.811633 
L 346.432174 45.447376 
L 346.734133 45.765248 
L 347.036091 46.718863 
L 347.33805 45.765248 
L 348.243925 45.765248 
L 348.545884 46.08312 
L 349.149801 46.08312 
L 349.753718 46.718863 
L 350.055676 47.354606 
L 350.357635 46.400991 
L 350.659593 47.354606 
L 351.565469 46.400991 
L 351.867427 47.036735 
L 352.169386 47.354606 
L 352.471344 47.354606 
L 352.773303 46.718863 
L 353.075261 47.99035 
L 353.37722 47.354606 
L 353.679178 47.354606 
L 353.981137 47.672478 
L 354.283095 47.354606 
L 354.585054 47.99035 
L 354.887013 47.672478 
L 355.188971 47.99035 
L 355.49093 47.99035 
L 355.792888 48.308222 
L 357.302681 48.308222 
L 357.604639 48.626093 
L 358.208556 48.626093 
L 358.510515 48.943965 
L 358.812473 49.579708 
L 359.41639 48.943965 
L 360.322266 49.89758 
L 360.624224 49.579708 
L 360.926183 49.89758 
L 361.5301 49.261837 
L 361.832058 50.533324 
L 362.134017 49.261837 
L 362.435975 49.579708 
L 362.737934 50.215452 
L 363.039892 50.215452 
L 363.341851 50.533324 
L 363.643809 49.579708 
L 363.945768 49.89758 
L 364.247726 49.89758 
L 364.549685 50.215452 
L 364.851643 49.89758 
L 365.153602 50.215452 
L 365.757519 50.215452 
L 366.059477 49.89758 
L 366.361436 50.215452 
L 366.663394 50.215452 
L 366.965353 50.533324 
L 367.267312 49.89758 
L 367.56927 50.215452 
L 367.871229 49.89758 
L 368.173187 50.533324 
L 368.475146 50.215452 
L 368.777104 50.533324 
L 369.079063 50.215452 
L 369.381021 50.533324 
L 369.68298 50.533324 
L 370.286897 49.89758 
L 370.588855 50.215452 
L 370.890814 50.851195 
L 371.192772 50.533324 
L 371.494731 50.533324 
L 371.796689 50.215452 
L 372.400606 50.215452 
L 372.702565 50.533324 
L 373.004523 50.533324 
L 373.306482 49.89758 
L 373.60844 49.579708 
L 373.910399 50.215452 
L 374.514316 49.579708 
L 375.118233 49.579708 
L 375.420191 49.261837 
L 375.72215 49.261837 
L 376.024108 49.89758 
L 376.326067 49.579708 
L 376.628025 48.943965 
L 376.929984 49.261837 
L 377.231942 49.261837 
L 377.835859 48.626093 
L 378.137818 48.943965 
L 378.439776 48.626093 
L 378.741735 48.943965 
L 379.043693 48.626093 
L 379.345652 48.943965 
L 379.64761 48.308222 
L 379.949569 48.308222 
L 380.251528 47.99035 
L 380.553486 47.99035 
L 380.855445 47.672478 
L 381.157403 47.672478 
L 381.459362 47.99035 
L 381.76132 47.672478 
L 382.365237 47.672478 
L 382.969154 47.036735 
L 383.271113 47.036735 
L 383.573071 47.354606 
L 384.176988 46.718863 
L 384.780905 46.718863 
L 385.082864 47.354606 
L 385.384822 46.08312 
L 385.686781 46.08312 
L 385.988739 46.400991 
L 386.290698 46.400991 
L 386.894615 45.765248 
L 387.196573 46.08312 
L 387.498532 45.447376 
L 388.102449 45.447376 
L 388.404407 44.811633 
L 388.706366 45.129505 
L 389.008324 44.493761 
L 389.310283 44.493761 
L 389.612241 45.129505 
L 389.9142 44.493761 
L 390.518117 45.129505 
L 390.820075 43.858018 
L 391.122034 44.493761 
L 391.423992 44.175889 
L 392.027909 44.175889 
L 392.329868 44.493761 
L 392.631827 43.222274 
L 392.933785 43.540146 
L 393.235744 44.175889 
L 394.443578 42.904403 
L 394.745536 43.858018 
L 395.047495 43.222274 
L 395.349453 42.904403 
L 395.651412 43.222274 
L 395.95337 42.904403 
L 396.255329 43.222274 
L 396.557287 42.586531 
L 397.161204 42.586531 
L 397.463163 42.268659 
L 397.765121 42.586531 
L 398.06708 42.268659 
L 398.972955 42.268659 
L 399.274914 42.586531 
L 399.576872 42.268659 
L 399.878831 41.632916 
L 400.180789 42.268659 
L 400.482748 41.632916 
L 400.784706 42.268659 
L 401.086665 41.315044 
L 401.388623 41.632916 
L 401.690582 41.632916 
L 401.99254 41.315044 
L 402.294499 41.632916 
L 402.596457 41.632916 
L 402.898416 41.315044 
L 403.502333 41.315044 
L 403.804291 40.679301 
L 404.10625 40.679301 
L 404.408208 40.043557 
L 404.710167 40.043557 
L 405.012126 40.361429 
L 405.314084 40.361429 
L 405.616043 39.407814 
L 405.918001 40.361429 
L 406.521918 39.725686 
L 406.823877 40.361429 
L 407.125835 40.043557 
L 407.427794 40.361429 
L 407.729752 39.407814 
L 408.031711 39.725686 
L 408.635628 39.089942 
L 408.937586 39.089942 
L 409.239545 39.407814 
L 409.541503 39.089942 
L 409.843462 38.454199 
L 410.447379 39.725686 
L 410.749337 38.77207 
L 411.051296 38.77207 
L 411.353254 39.089942 
L 411.957171 38.454199 
L 412.25913 38.454199 
L 412.561088 38.136327 
L 412.863047 39.089942 
L 413.165005 38.454199 
L 413.466964 38.454199 
L 413.768922 38.136327 
L 414.070881 38.136327 
L 414.372839 38.454199 
L 415.882632 38.454199 
L 416.18459 37.818455 
L 416.486549 37.500584 
L 417.090466 37.500584 
L 417.392424 37.818455 
L 417.694383 37.500584 
L 417.996342 37.818455 
L 419.204176 37.818455 
L 419.808093 37.182712 
L 420.41201 37.818455 
L 421.015927 37.182712 
L 421.317885 37.182712 
L 421.619844 37.500584 
L 421.921802 36.546968 
L 422.223761 37.500584 
L 422.525719 37.182712 
L 422.827678 37.182712 
L 423.129636 36.86484 
L 423.431595 36.86484 
L 423.733553 36.546968 
L 424.035512 36.86484 
L 424.33747 36.546968 
L 424.639429 36.546968 
L 424.941387 36.86484 
L 425.545304 36.86484 
L 425.847263 35.593353 
L 426.149221 36.229097 
L 426.45118 36.546968 
L 426.753138 35.911225 
L 427.055097 35.593353 
L 427.357055 36.229097 
L 427.659014 35.275482 
L 427.960972 35.275482 
L 428.262931 35.593353 
L 428.564889 35.275482 
L 428.866848 35.275482 
L 429.168806 34.95761 
L 429.772721 34.95761 
L 430.376638 35.593353 
L 430.980555 35.593353 
L 431.282514 35.275482 
L 431.584472 35.275482 
L 431.886431 35.911225 
L 432.188389 35.275482 
L 432.490348 34.95761 
L 432.792306 35.593353 
L 433.094265 34.95761 
L 433.396223 35.275482 
L 434.302099 35.275482 
L 434.604057 34.95761 
L 434.906016 35.275482 
L 435.207974 34.95761 
L 435.509933 35.593353 
L 435.811891 34.639738 
L 436.11385 34.639738 
L 436.415808 34.95761 
L 436.717767 34.321866 
L 437.019726 34.639738 
L 437.321684 34.003995 
L 437.623643 34.639738 
L 437.925601 34.639738 
L 438.529518 34.003995 
L 439.133435 34.003995 
L 439.435394 34.321866 
L 439.737352 34.003995 
L 440.039311 34.321866 
L 440.341269 34.003995 
L 440.643228 34.003995 
L 440.945186 34.321866 
L 441.247145 34.003995 
L 441.851062 34.639738 
L 442.15302 33.686123 
L 442.454979 34.003995 
L 442.756937 33.368251 
L 443.058896 34.003995 
L 443.360854 34.003995 
L 443.662813 33.368251 
L 443.964771 33.05038 
L 444.26673 33.686123 
L 444.568688 33.368251 
L 444.870647 34.003995 
L 445.172605 33.368251 
L 445.776522 33.368251 
L 446.078481 33.686123 
L 446.380439 33.368251 
L 446.984356 33.368251 
L 447.286315 32.732508 
L 447.588273 32.732508 
L 447.890232 33.368251 
L 449.098066 33.368251 
L 449.400024 33.05038 
L 449.701983 33.368251 
L 450.3059 32.732508 
L 450.607859 32.732508 
L 450.909817 33.368251 
L 451.211776 32.732508 
L 451.513734 33.05038 
L 451.815693 32.414636 
L 452.117651 32.732508 
L 454.231361 32.732508 
L 454.533319 32.414636 
L 454.835278 32.414636 
L 455.137236 32.732508 
L 455.439195 32.732508 
L 455.741153 32.096765 
L 456.043112 32.414636 
L 456.647029 32.414636 
L 456.948987 32.096765 
L 457.250946 33.05038 
L 457.552904 33.05038 
L 457.854863 32.732508 
L 458.156821 32.732508 
L 458.45878 33.05038 
L 458.760738 32.732508 
L 459.062697 32.732508 
L 459.364655 33.05038 
L 459.968572 33.05038 
L 460.270531 33.368251 
L 460.572489 33.05038 
L 460.874448 33.368251 
L 461.176406 33.05038 
L 461.780323 33.05038 
L 462.082282 33.368251 
L 462.686199 32.732508 
L 462.988158 33.368251 
L 463.592075 32.732508 
L 463.894033 33.368251 
L 464.195992 33.05038 
L 464.49795 33.368251 
L 464.799909 32.732508 
L 465.101867 32.732508 
L 465.403826 33.05038 
L 465.705784 32.414636 
L 466.007743 33.05038 
L 466.309701 32.414636 
L 466.61166 32.096765 
L 466.913618 32.414636 
L 467.215577 32.096765 
L 467.517535 32.096765 
L 468.121452 32.732508 
L 468.423411 33.368251 
L 468.725369 32.732508 
L 469.027328 32.414636 
L 469.329286 32.732508 
L 469.631245 32.414636 
L 470.235162 33.05038 
L 470.53712 32.414636 
L 471.141037 33.05038 
L 471.442996 33.05038 
L 471.744954 32.414636 
L 472.046913 33.05038 
L 472.348871 33.05038 
L 472.65083 33.368251 
L 472.952788 32.732508 
L 473.254747 32.732508 
L 473.556705 32.414636 
L 474.160622 33.05038 
L 474.462581 33.05038 
L 474.764539 32.096765 
L 475.066498 32.414636 
L 475.368457 33.05038 
L 476.274332 32.096765 
L 476.576291 32.414636 
L 476.878249 32.414636 
L 477.482166 33.05038 
L 477.784125 32.732508 
L 478.388042 32.732508 
L 478.69 33.05038 
L 478.991959 33.05038 
L 479.293917 32.732508 
L 479.595876 33.05038 
L 479.897834 33.05038 
L 480.199793 32.732508 
L 480.501751 32.732508 
L 480.80371 33.368251 
L 481.105668 32.414636 
L 481.407627 33.368251 
L 481.709585 32.414636 
L 482.313502 33.05038 
L 482.615461 33.05038 
L 482.917419 32.732508 
L 483.521336 32.732508 
L 483.823295 32.414636 
L 484.125253 33.05038 
L 485.031129 32.096765 
L 485.635046 32.732508 
L 486.238963 32.096765 
L 486.540921 32.096765 
L 486.84288 32.414636 
L 487.144838 32.096765 
L 487.446797 32.096765 
L 487.748756 32.414636 
L 488.352673 31.778893 
L 488.95659 32.414636 
L 489.258548 31.778893 
L 489.560507 32.096765 
L 489.862465 31.461021 
L 490.164424 31.778893 
L 490.466382 31.461021 
L 490.768341 31.778893 
L 491.070299 31.778893 
L 491.372258 31.461021 
L 491.674216 31.778893 
L 491.976175 31.143149 
L 492.278133 31.778893 
L 492.580092 31.461021 
L 492.88205 31.778893 
L 493.184009 31.143149 
L 493.787926 31.778893 
L 494.089884 31.778893 
L 494.391843 30.825278 
L 494.693801 31.143149 
L 494.99576 31.778893 
L 495.297718 31.461021 
L 495.599677 31.461021 
L 495.901635 30.825278 
L 496.203594 31.778893 
L 496.505552 31.461021 
L 496.807511 31.461021 
L 497.109469 31.143149 
L 497.713386 31.778893 
L 498.015345 31.778893 
L 498.317303 31.461021 
L 498.619262 32.096765 
L 498.92122 31.778893 
L 499.223179 31.778893 
L 499.525137 32.414636 
L 499.827096 31.778893 
L 500.129054 31.778893 
L 500.431013 31.143149 
L 500.732972 31.778893 
L 501.03493 31.778893 
L 501.336889 32.096765 
L 501.638847 31.461021 
L 502.242764 32.096765 
L 502.846681 31.461021 
L 503.14864 32.096765 
L 503.450598 33.368251 
L 503.752557 31.778893 
L 504.054515 31.778893 
L 504.356474 32.414636 
L 504.960391 33.05038 
L 505.262349 32.732508 
L 505.564308 32.732508 
L 505.866266 32.414636 
L 506.772142 33.368251 
L 507.0741 33.368251 
L 507.376059 33.686123 
L 507.678017 33.368251 
L 507.979976 34.321866 
L 508.281934 34.003995 
L 508.885851 34.003995 
L 509.18781 33.686123 
L 509.791727 34.95761 
L 510.093685 35.275482 
L 510.395644 34.639738 
L 511.301519 35.593353 
L 512.811312 35.593353 
L 513.415229 36.229097 
L 513.717188 35.911225 
L 514.019146 36.546968 
L 514.321105 35.911225 
L 514.623063 36.546968 
L 514.925022 36.546968 
L 515.22698 36.86484 
L 515.528939 36.86484 
L 515.830897 37.500584 
L 516.132856 36.546968 
L 516.434814 37.500584 
L 516.736773 37.182712 
L 517.038731 37.500584 
L 517.34069 37.500584 
L 517.642648 36.86484 
L 517.944607 37.500584 
L 518.246565 37.818455 
L 518.548524 37.500584 
L 518.850482 37.818455 
L 519.152441 37.500584 
L 519.756358 37.500584 
L 520.058316 37.818455 
L 520.360275 37.818455 
L 520.662233 37.500584 
L 520.964192 37.818455 
L 521.26615 37.818455 
L 521.568109 38.454199 
L 521.870067 38.454199 
L 522.172026 38.136327 
L 522.775943 38.77207 
L 523.077901 38.136327 
L 523.37986 37.818455 
L 523.983777 39.089942 
L 524.285735 38.136327 
L 524.587694 39.089942 
L 525.191611 38.454199 
L 525.493569 39.725686 
L 525.795528 38.454199 
L 526.097487 38.454199 
L 527.003362 39.407814 
L 527.305321 38.77207 
L 527.607279 39.725686 
L 527.909238 39.089942 
L 528.513155 39.089942 
L 529.117072 39.725686 
L 529.41903 39.089942 
L 529.720989 39.089942 
L 530.022947 39.407814 
L 530.324906 39.407814 
L 530.626864 39.089942 
L 530.928823 39.407814 
L 531.230781 39.407814 
L 531.53274 38.77207 
L 531.834698 39.089942 
L 532.136657 38.77207 
L 532.438615 39.407814 
L 532.740574 39.089942 
L 533.042532 39.407814 
L 533.344491 39.089942 
L 533.646449 39.089942 
L 533.948408 38.454199 
L 534.250366 39.089942 
L 534.552325 38.77207 
L 534.854283 38.77207 
L 535.156242 38.454199 
L 535.4582 38.454199 
L 535.760159 38.77207 
L 536.062117 38.77207 
L 536.364076 39.089942 
L 536.666034 38.77207 
L 536.967993 38.77207 
L 537.269951 39.089942 
L 537.873868 38.454199 
L 538.175827 38.77207 
L 538.779744 38.136327 
L 539.081703 39.089942 
L 539.383661 38.454199 
L 539.68562 38.136327 
L 539.987578 38.454199 
L 540.289537 38.136327 
L 540.591495 38.454199 
L 540.893454 37.818455 
L 541.195412 38.136327 
L 541.497371 37.500584 
L 542.101288 38.136327 
L 542.403246 37.500584 
L 543.007163 38.136327 
L 543.309122 37.500584 
L 543.61108 37.500584 
L 543.913039 37.182712 
L 544.818914 37.182712 
L 545.120873 37.818455 
L 545.422831 37.182712 
L 545.72479 37.500584 
L 546.932624 36.229097 
L 547.234582 36.229097 
L 547.536541 36.546968 
L 547.838499 36.229097 
L 548.140458 36.86484 
L 548.442416 36.546968 
L 548.744375 36.86484 
L 549.046333 36.229097 
L 549.348292 36.229097 
L 549.952209 35.593353 
L 550.858085 35.593353 
L 551.160043 35.911225 
L 551.462002 35.275482 
L 551.76396 34.95761 
L 552.065919 35.593353 
L 552.367877 34.639738 
L 554.179628 34.639738 
L 554.481587 34.003995 
L 555.085504 34.639738 
L 555.387462 34.321866 
L 555.991379 34.321866 
L 556.293338 34.003995 
L 556.595296 35.275482 
L 556.897255 34.321866 
L 557.199213 34.003995 
L 557.501172 34.321866 
L 557.80313 34.003995 
L 558.105089 34.321866 
L 558.407047 34.321866 
L 558.709006 33.686123 
L 559.010964 33.686123 
L 559.312923 34.003995 
L 559.614881 33.368251 
L 559.91684 33.686123 
L 560.822715 33.686123 
L 561.124674 33.368251 
L 561.426632 34.003995 
L 561.728591 33.686123 
L 562.030549 33.686123 
L 562.332508 33.368251 
L 562.634466 33.686123 
L 562.936425 33.686123 
L 563.540342 33.05038 
L 563.842301 33.05038 
L 564.446218 33.686123 
L 564.748176 33.368251 
L 565.956012 33.368251 
L 566.257971 33.686123 
L 566.559929 33.686123 
L 566.861888 33.05038 
L 567.767763 33.05038 
L 568.069722 33.686123 
L 568.37168 32.732508 
L 568.673639 32.732508 
L 568.975597 33.368251 
L 569.277556 33.05038 
L 569.579515 33.686123 
L 569.881473 34.003995 
L 570.183432 33.368251 
L 570.48539 33.368251 
L 570.787349 34.003995 
L 571.089307 33.686123 
L 571.391266 33.05038 
L 571.995183 33.05038 
L 572.297141 33.368251 
L 572.5991 33.05038 
L 572.901058 33.686123 
L 573.203017 33.05038 
L 573.504975 33.05038 
L 573.806934 33.368251 
L 574.410851 33.368251 
L 574.712809 32.414636 
L 575.014768 33.05038 
L 576.222602 33.05038 
L 576.52456 33.368251 
L 576.826519 33.05038 
L 577.128477 33.05038 
L 577.430436 33.368251 
L 577.732394 33.05038 
L 578.034353 33.05038 
L 578.336311 33.368251 
L 578.63827 33.368251 
L 578.940228 34.003995 
L 579.242187 34.003995 
L 579.544145 33.686123 
L 579.846104 34.003995 
L 580.148062 33.686123 
L 580.450021 34.639738 
L 581.355896 33.686123 
L 581.657855 34.321866 
L 581.959813 34.321866 
L 582.261772 34.95761 
L 582.563731 35.275482 
L 583.167648 35.275482 
L 583.469606 34.95761 
L 583.771565 36.229097 
L 584.073523 36.229097 
L 584.375482 35.911225 
L 584.67744 36.546968 
L 584.979399 36.229097 
L 585.281357 36.229097 
L 585.583316 37.182712 
L 585.885274 36.86484 
L 586.489191 36.86484 
L 586.79115 37.818455 
L 587.093108 37.818455 
L 587.395067 38.136327 
L 587.697025 37.818455 
L 587.998984 37.818455 
L 588.300942 38.454199 
L 588.602901 38.77207 
L 589.206818 38.77207 
L 589.810735 39.407814 
L 590.112693 39.089942 
L 590.71661 39.725686 
L 591.320527 39.725686 
L 591.622486 40.361429 
L 591.924444 40.679301 
L 592.226403 40.361429 
L 592.528361 40.679301 
L 592.83032 40.679301 
L 593.132278 41.315044 
L 593.434237 40.361429 
L 593.736195 41.315044 
L 594.038154 40.997172 
L 594.642071 42.268659 
L 594.94403 40.997172 
L 595.245988 41.632916 
L 595.547947 41.950787 
L 596.151864 41.950787 
L 596.755781 42.586531 
L 597.057739 42.586531 
L 597.359698 42.904403 
L 597.661656 42.904403 
L 597.963615 43.222274 
L 598.265573 42.586531 
L 598.567532 43.222274 
L 598.86949 43.540146 
L 599.171449 43.222274 
L 599.473407 43.540146 
L 599.775366 43.540146 
L 600.379283 42.904403 
L 600.681241 43.222274 
L 600.9832 44.175889 
L 601.285158 44.493761 
L 601.587117 43.858018 
L 602.492992 43.858018 
L 602.794951 44.175889 
L 603.398868 44.175889 
L 603.700826 44.811633 
L 605.210619 44.811633 
L 605.512577 45.447376 
L 605.814536 45.447376 
L 606.116494 44.811633 
L 606.418453 45.447376 
L 606.720411 45.447376 
L 607.02237 45.765248 
L 607.324329 45.765248 
L 607.928246 46.400991 
L 608.230204 45.765248 
L 608.532163 45.447376 
L 608.834121 46.08312 
L 609.13608 46.08312 
L 609.438038 47.036735 
L 609.739997 46.400991 
L 610.041955 46.718863 
L 610.947831 46.718863 
L 611.249789 47.036735 
L 611.551748 47.036735 
L 611.853706 47.354606 
L 612.155665 47.036735 
L 612.457623 47.672478 
L 612.759582 47.354606 
L 613.06154 47.354606 
L 613.363499 47.672478 
L 613.665457 47.672478 
L 613.967416 48.308222 
L 614.269374 48.626093 
L 614.571333 48.308222 
L 614.873291 48.626093 
L 615.17525 48.308222 
L 615.477208 48.308222 
L 615.779167 48.626093 
L 616.081125 49.579708 
L 616.383084 48.943965 
L 616.685042 49.261837 
L 616.987001 48.626093 
L 617.288959 49.579708 
L 617.892876 49.579708 
L 618.194835 50.215452 
L 619.402669 50.215452 
L 619.704627 50.533324 
L 620.006586 50.215452 
L 620.308545 50.215452 
L 620.610503 50.851195 
L 620.912462 49.89758 
L 621.21442 50.851195 
L 621.516379 51.169067 
L 622.120296 50.533324 
L 622.422254 51.486939 
L 622.724213 50.533324 
L 623.026171 50.851195 
L 623.32813 50.851195 
L 623.630088 51.486939 
L 623.932047 50.851195 
L 624.234005 51.486939 
L 624.535964 51.169067 
L 625.139881 51.80481 
L 625.441839 51.486939 
L 625.743798 51.486939 
L 626.045756 50.851195 
L 626.347715 51.169067 
L 626.649673 51.169067 
L 626.951632 51.486939 
L 627.25359 50.533324 
L 627.555549 51.486939 
L 627.857507 51.486939 
L 628.159466 51.80481 
L 628.461424 50.533324 
L 628.763383 50.851195 
L 629.065341 51.486939 
L 629.3673 50.851195 
L 629.971217 50.851195 
L 630.273175 51.80481 
L 630.575134 50.533324 
L 630.877092 50.215452 
L 631.179051 50.533324 
L 631.782968 49.89758 
L 632.084926 50.215452 
L 632.386885 49.579708 
L 632.688844 49.89758 
L 633.292761 49.89758 
L 633.594719 49.579708 
L 633.896678 49.89758 
L 634.198636 49.579708 
L 634.500595 49.579708 
L 634.802553 49.261837 
L 635.104512 49.261837 
L 635.40647 48.943965 
L 635.708429 48.943965 
L 636.010387 48.626093 
L 636.312346 48.943965 
L 636.614304 48.943965 
L 636.916263 48.308222 
L 637.218221 48.308222 
L 637.52018 48.626093 
L 638.124097 47.99035 
L 638.426055 48.308222 
L 639.029972 47.672478 
L 639.331931 47.99035 
L 640.237806 47.99035 
L 641.143682 47.036735 
L 641.44564 47.354606 
L 642.049557 47.354606 
L 642.351516 47.672478 
L 642.653474 46.718863 
L 642.955433 47.036735 
L 643.257391 47.036735 
L 643.55935 46.400991 
L 643.861308 47.354606 
L 644.163267 46.718863 
L 644.465225 47.036735 
L 644.767184 46.400991 
L 645.069142 46.400991 
L 645.371101 46.08312 
L 645.975018 46.718863 
L 646.276977 45.765248 
L 646.578935 45.447376 
L 646.880894 45.447376 
L 647.182852 46.08312 
L 647.786769 44.811633 
L 648.088728 45.447376 
L 648.390686 45.765248 
L 648.692645 45.129505 
L 649.59852 45.129505 
L 649.900479 44.811633 
L 650.806354 44.811633 
L 651.108313 44.493761 
L 651.410271 44.811633 
L 652.014188 44.175889 
L 652.618105 44.175889 
L 652.920064 43.858018 
L 653.523981 43.858018 
L 653.825939 44.175889 
L 654.127898 43.540146 
L 654.429856 43.858018 
L 654.731815 43.858018 
L 655.033773 43.222274 
L 655.335732 42.904403 
L 655.63769 42.904403 
L 655.939649 43.858018 
L 656.241607 43.222274 
L 656.543566 42.904403 
L 657.147483 42.904403 
L 657.449441 43.222274 
L 657.7514 42.904403 
L 658.053359 43.222274 
L 658.355317 42.586531 
L 658.959234 42.586531 
L 659.261193 42.268659 
L 659.563151 42.586531 
L 659.86511 41.950787 
L 660.167068 41.950787 
L 660.469027 41.632916 
L 661.072944 41.632916 
L 661.676861 40.997172 
L 661.978819 41.632916 
L 662.280778 41.632916 
L 662.582736 40.997172 
L 662.884695 41.315044 
L 663.186653 40.679301 
L 663.488612 41.315044 
L 663.79057 40.679301 
L 664.092529 40.361429 
L 664.394487 41.315044 
L 664.696446 40.679301 
L 664.998404 40.997172 
L 665.602321 40.361429 
L 665.90428 40.361429 
L 666.206238 40.043557 
L 666.508197 40.679301 
L 666.810155 40.043557 
L 667.112114 39.725686 
L 667.414072 40.043557 
L 668.319948 40.043557 
L 668.621906 39.725686 
L 669.225823 39.725686 
L 669.82974 39.089942 
L 670.131699 39.407814 
L 670.433657 40.043557 
L 671.037575 39.407814 
L 671.339533 39.407814 
L 671.641492 38.454199 
L 671.94345 39.089942 
L 672.245409 38.77207 
L 672.547367 39.089942 
L 672.849326 38.77207 
L 673.151284 38.77207 
L 673.755201 38.136327 
L 674.05716 38.454199 
L 674.661077 38.454199 
L 674.963035 38.136327 
L 675.264994 38.454199 
L 675.566952 37.818455 
L 676.170869 38.454199 
L 676.472828 38.454199 
L 676.774786 38.77207 
L 677.076745 38.77207 
L 677.378703 38.136327 
L 677.680662 38.454199 
L 677.98262 38.454199 
L 678.586537 37.818455 
L 678.888496 37.818455 
L 679.190454 38.136327 
L 679.492413 38.136327 
L 679.794371 37.500584 
L 680.09633 37.818455 
L 680.398288 37.500584 
L 680.700247 38.136327 
L 681.002205 37.818455 
L 681.304164 37.818455 
L 682.210039 36.86484 
L 682.511998 37.818455 
L 682.813956 37.500584 
L 683.115915 36.86484 
L 683.417874 37.500584 
L 683.719832 36.86484 
L 684.021791 36.546968 
L 684.625708 37.182712 
L 684.927666 37.182712 
L 685.229625 36.86484 
L 685.531583 37.182712 
L 685.833542 36.86484 
L 686.1355 37.182712 
L 686.437459 36.546968 
L 687.041376 36.546968 
L 687.343334 35.911225 
L 687.645293 36.229097 
L 688.24921 36.229097 
L 688.551168 36.546968 
L 688.853127 35.911225 
L 689.155085 35.911225 
L 689.457044 35.593353 
L 689.759002 34.95761 
L 690.060961 36.546968 
L 690.362919 35.911225 
L 690.664878 35.593353 
L 690.966836 35.911225 
L 691.268795 35.593353 
L 691.570753 35.593353 
L 691.872712 35.275482 
L 692.476629 35.911225 
L 692.778587 34.95761 
L 693.080546 35.593353 
L 693.382504 35.275482 
L 693.684463 35.593353 
L 693.986421 34.95761 
L 694.590338 35.593353 
L 694.892297 34.95761 
L 695.496214 34.95761 
L 695.798172 34.639738 
L 696.100131 35.275482 
L 696.40209 34.95761 
L 697.006007 34.95761 
L 697.307965 34.639738 
L 697.911882 34.639738 
L 698.213841 34.95761 
L 698.515799 34.639738 
L 698.817758 34.639738 
L 699.119716 34.321866 
L 699.421675 34.321866 
L 700.025592 33.686123 
L 700.32755 33.686123 
L 700.629509 33.368251 
L 700.931467 34.003995 
L 701.233423 33.368251 
L 701.535382 33.05038 
L 701.83734 33.368251 
L 702.139299 32.732508 
L 702.441257 33.368251 
L 702.743216 32.732508 
L 703.045175 32.732508 
L 703.347133 32.096765 
L 703.649092 32.414636 
L 703.95105 32.096765 
L 704.253009 32.414636 
L 704.554967 32.096765 
L 705.460843 32.096765 
L 705.762801 31.778893 
L 706.06476 31.778893 
L 706.366718 32.096765 
L 706.668677 31.778893 
L 706.970635 31.778893 
L 707.272594 31.143149 
L 707.574552 31.778893 
L 707.876511 31.778893 
L 708.178469 31.461021 
L 708.782386 31.461021 
L 709.386303 30.825278 
L 709.688262 31.461021 
L 710.292179 31.461021 
L 710.594137 31.778893 
L 710.896096 30.825278 
L 711.198054 31.143149 
L 711.500013 30.507406 
L 711.801971 31.143149 
L 712.10393 31.461021 
L 712.405888 30.507406 
L 712.707847 30.507406 
L 713.009805 30.825278 
L 713.311764 30.825278 
L 713.613722 31.143149 
L 713.915681 30.189534 
L 714.217639 30.825278 
L 714.519598 30.507406 
L 714.821556 31.143149 
L 715.123515 30.189534 
L 715.425474 30.189534 
L 716.029391 30.825278 
L 716.331349 30.189534 
L 716.633308 31.143149 
L 716.935266 30.189534 
L 717.237225 30.189534 
L 717.539183 29.871663 
L 717.841142 30.189534 
L 718.1431 29.871663 
L 718.445059 30.189534 
L 718.747017 29.553791 
L 719.048976 29.871663 
L 719.350934 29.871663 
L 719.652893 29.553791 
L 719.954851 30.189534 
L 720.25681 29.553791 
L 720.558768 29.553791 
L 720.860727 29.235919 
L 721.162685 29.553791 
L 721.464644 29.235919 
L 721.766602 29.235919 
L 722.068561 29.871663 
L 722.370519 29.553791 
L 722.672478 29.553791 
L 722.974436 28.918047 
L 723.276395 29.553791 
L 723.578353 28.918047 
L 723.880312 28.600176 
L 724.18227 28.918047 
L 724.484229 29.553791 
L 724.786187 29.235919 
L 725.088146 29.553791 
L 725.692063 28.918047 
L 725.994021 28.918047 
L 726.29598 28.600176 
L 726.597938 29.553791 
L 726.899897 29.235919 
L 727.201855 28.600176 
L 727.503814 28.600176 
L 727.805773 28.918047 
L 728.107731 28.600176 
L 728.40969 28.918047 
L 728.711648 28.918047 
L 729.013607 27.964432 
L 729.315565 28.282304 
L 729.617524 29.235919 
L 729.919482 27.964432 
L 730.221441 28.282304 
L 730.523399 28.282304 
L 730.825358 28.918047 
L 731.127316 28.600176 
L 731.429275 27.964432 
L 731.731233 28.282304 
L 732.033192 27.646561 
L 732.637109 28.282304 
L 733.241026 27.646561 
L 733.542984 27.964432 
L 733.844943 27.328689 
L 734.146901 27.964432 
L 734.44886 28.282304 
L 734.750818 28.282304 
L 735.052777 27.964432 
L 735.354735 28.282304 
L 735.656694 27.328689 
L 736.260611 27.964432 
L 736.562569 28.600176 
L 736.864528 27.964432 
L 737.166486 27.964432 
L 737.770403 27.328689 
L 738.072362 27.964432 
L 738.37432 27.646561 
L 738.676279 27.964432 
L 738.978237 27.328689 
L 739.582154 27.964432 
L 740.186071 27.328689 
L 740.48803 27.646561 
L 740.789989 27.010817 
L 741.091947 27.010817 
L 741.393906 27.646561 
L 741.695864 27.646561 
L 741.997823 27.328689 
L 742.299781 26.692946 
L 742.60174 27.646561 
L 742.903698 27.010817 
L 743.507615 27.646561 
L 743.809574 27.646561 
L 744.111532 27.964432 
L 744.413491 27.328689 
L 744.715449 27.646561 
L 745.319366 27.010817 
L 745.621325 27.646561 
L 745.923283 27.646561 
L 746.225242 27.010817 
L 746.5272 27.010817 
L 746.829159 26.692946 
L 747.131117 27.328689 
L 747.433076 27.010817 
L 747.735034 27.328689 
L 748.036993 26.692946 
L 748.338951 26.692946 
L 748.64091 27.328689 
L 748.942868 26.692946 
L 749.244827 26.692946 
L 749.848744 27.328689 
L 750.150702 27.010817 
L 750.452661 27.646561 
L 750.754619 27.010817 
L 751.056578 27.328689 
L 751.358536 27.010817 
L 751.660495 27.646561 
L 751.962453 26.692946 
L 752.264412 27.010817 
L 752.56637 26.692946 
L 752.868329 27.328689 
L 753.170288 27.010817 
L 753.472246 27.646561 
L 753.774205 27.010817 
L 754.076163 27.010817 
L 754.378122 27.328689 
L 754.68008 27.328689 
L 754.982039 27.010817 
L 755.283997 27.010817 
L 755.887914 27.646561 
L 756.189873 26.692946 
L 756.491831 27.010817 
L 756.79379 27.010817 
L 757.095748 27.646561 
L 757.397707 27.328689 
L 757.699665 27.646561 
L 758.001624 27.010817 
L 758.303582 26.692946 
L 758.605541 28.282304 
L 758.907499 26.692946 
L 759.209458 27.328689 
L 759.813375 27.964432 
L 760.417292 27.964432 
L 760.71925 27.328689 
L 761.021209 27.646561 
L 761.323167 28.600176 
L 761.625126 28.600176 
L 761.927084 28.282304 
L 762.229043 28.282304 
L 762.531001 28.600176 
L 762.83296 28.282304 
L 763.134918 29.235919 
L 763.436877 28.600176 
L 763.738835 28.282304 
L 764.040794 29.871663 
L 764.342752 28.918047 
L 764.644711 28.918047 
L 764.946669 29.235919 
L 765.248628 29.235919 
L 765.550586 30.507406 
L 765.852545 29.871663 
L 766.154504 30.189534 
L 766.456462 30.189534 
L 766.758421 29.871663 
L 767.362338 30.507406 
L 767.664296 30.189534 
L 767.966255 31.143149 
L 768.268213 30.825278 
L 768.570172 30.825278 
L 768.87213 31.143149 
L 769.174089 30.825278 
L 769.476047 31.461021 
L 769.778006 31.143149 
L 770.079964 31.461021 
L 770.381923 31.461021 
L 770.683881 31.778893 
L 771.287798 31.778893 
L 771.589757 32.096765 
L 771.891715 31.778893 
L 772.193674 32.732508 
L 772.495632 32.414636 
L 772.797591 32.732508 
L 773.401508 32.732508 
L 773.703466 33.368251 
L 774.005425 32.414636 
L 774.307383 32.732508 
L 774.609342 33.368251 
L 774.9113 33.368251 
L 775.213259 33.05038 
L 775.515217 33.368251 
L 775.817176 33.368251 
L 776.119134 33.686123 
L 776.723051 33.05038 
L 777.02501 33.368251 
L 777.628927 33.368251 
L 777.930885 34.003995 
L 778.232844 33.368251 
L 778.534803 33.686123 
L 778.836761 33.686123 
L 779.13872 34.321866 
L 779.440678 34.321866 
L 779.742637 34.003995 
L 780.044595 34.321866 
L 780.346554 34.003995 
L 781.252429 34.003995 
L 781.554388 34.321866 
L 781.856346 34.003995 
L 782.158305 34.639738 
L 782.762222 34.003995 
L 783.06418 34.003995 
L 783.366139 34.639738 
L 783.668097 34.95761 
L 784.272014 34.95761 
L 784.573973 35.275482 
L 784.875931 34.003995 
L 785.17789 34.639738 
L 785.479848 34.95761 
L 785.781807 34.95761 
L 786.083765 35.275482 
L 786.385724 34.639738 
L 786.687682 35.275482 
L 786.989641 35.275482 
L 787.291599 35.593353 
L 787.593558 35.275482 
L 787.895516 35.275482 
L 788.197475 35.593353 
L 788.499433 34.95761 
L 789.405309 34.95761 
L 789.707267 35.275482 
L 790.009226 35.911225 
L 790.311184 35.593353 
L 790.613143 35.911225 
L 790.915101 35.593353 
L 791.21706 35.911225 
L 791.519019 35.275482 
L 791.820977 35.593353 
L 792.122936 35.275482 
L 792.726853 35.911225 
L 793.028811 35.593353 
L 793.33077 36.229097 
L 793.632728 35.593353 
L 794.236645 35.593353 
L 794.538604 34.95761 
L 794.840562 35.275482 
L 795.444479 34.639738 
L 795.746438 35.275482 
L 796.048396 34.321866 
L 796.954272 35.275482 
L 797.25623 34.321866 
L 797.860147 34.95761 
L 798.766023 34.003995 
L 799.067981 34.003995 
L 799.36994 34.639738 
L 799.671898 34.321866 
L 799.973857 33.686123 
L 800.275815 34.639738 
L 800.879732 34.003995 
L 801.181691 34.95761 
L 802.087566 34.003995 
L 802.389525 34.321866 
L 802.691483 34.003995 
L 802.993442 34.003995 
L 803.2954 34.321866 
L 803.597359 34.321866 
L 803.899318 34.003995 
L 804.503235 34.003995 
L 805.107152 34.639738 
L 805.40911 34.003995 
L 805.711069 34.639738 
L 806.616944 33.686123 
L 806.918903 34.003995 
L 807.220861 33.686123 
L 808.126737 33.686123 
L 808.730654 33.05038 
L 809.032612 33.686123 
L 809.334571 33.368251 
L 809.636529 32.732508 
L 810.240446 33.368251 
L 810.542405 33.368251 
L 810.844363 32.732508 
L 811.146322 33.686123 
L 811.44828 32.732508 
L 811.750239 32.732508 
L 812.052197 32.414636 
L 812.354156 33.05038 
L 812.656114 33.05038 
L 812.958073 32.096765 
L 813.260031 32.732508 
L 813.56199 32.414636 
L 813.863948 32.732508 
L 814.165907 32.096765 
L 814.467865 32.096765 
L 814.769824 32.732508 
L 815.071782 31.778893 
L 815.675699 32.414636 
L 815.977658 32.096765 
L 816.279616 31.461021 
L 817.185492 31.461021 
L 817.487451 30.825278 
L 817.789409 31.143149 
L 818.091368 31.143149 
L 818.393326 30.825278 
L 818.695285 31.461021 
L 818.997243 30.825278 
L 819.299202 30.825278 
L 819.60116 31.143149 
L 820.205077 31.143149 
L 820.507036 30.825278 
L 821.110953 31.461021 
L 821.412911 30.825278 
L 821.71487 30.825278 
L 822.016828 31.143149 
L 822.318787 31.143149 
L 822.620745 30.825278 
L 822.922704 30.825278 
L 823.224662 31.143149 
L 823.828579 30.507406 
L 824.130538 30.825278 
L 824.432496 30.825278 
L 824.734455 31.143149 
L 825.036413 31.143149 
L 825.64033 30.507406 
L 825.942289 30.507406 
L 826.546206 31.143149 
L 826.848164 29.553791 
L 827.150123 30.507406 
L 827.452081 30.825278 
L 827.75404 29.871663 
L 828.055998 30.189534 
L 829.86775 30.189534 
L 830.169708 29.871663 
L 831.075584 29.871663 
L 831.377542 29.553791 
L 831.679501 29.553791 
L 832.283418 30.189534 
L 832.585376 30.189534 
L 832.887335 29.871663 
L 833.189293 30.189534 
L 833.491252 29.235919 
L 833.79321 30.507406 
L 834.095169 30.189534 
L 834.699086 30.825278 
L 835.001044 30.189534 
L 835.604961 30.825278 
L 835.90692 30.507406 
L 836.208878 31.143149 
L 836.510837 30.507406 
L 836.812795 30.189534 
L 837.114756 30.189534 
L 837.416715 30.825278 
L 838.926507 30.825278 
L 839.228466 31.143149 
L 839.530424 30.507406 
L 839.832383 30.507406 
L 840.134341 31.143149 
L 840.4363 30.825278 
L 840.738258 31.143149 
L 841.040217 30.825278 
L 841.342175 30.825278 
L 841.946092 31.461021 
L 842.550009 31.461021 
L 842.851968 32.096765 
L 844.059802 32.096765 
L 844.36176 32.732508 
L 844.663719 32.732508 
L 844.965677 33.05038 
L 845.267636 33.05038 
L 845.871553 33.686123 
L 846.173511 33.368251 
L 846.47547 33.686123 
L 846.777428 33.686123 
L 847.079387 34.321866 
L 847.381345 34.321866 
L 847.683304 34.003995 
L 847.985263 34.639738 
L 848.287221 34.639738 
L 848.58918 34.321866 
L 848.891138 34.639738 
L 849.193097 35.275482 
L 849.495055 34.95761 
L 849.797014 35.593353 
L 850.098972 35.911225 
L 850.400931 35.911225 
L 850.702889 35.593353 
L 851.004848 36.229097 
L 851.306806 35.593353 
L 851.608765 35.593353 
L 851.910723 36.546968 
L 852.212682 36.229097 
L 852.51464 36.86484 
L 852.816599 36.546968 
L 853.118557 36.546968 
L 853.722474 37.182712 
L 854.024433 37.182712 
L 854.326391 36.86484 
L 854.930308 37.500584 
L 855.232267 37.182712 
L 855.534225 37.818455 
L 855.836184 37.500584 
L 856.440101 38.136327 
L 856.742059 37.500584 
L 857.044018 37.818455 
L 857.345976 38.454199 
L 857.647935 38.136327 
L 858.251852 38.77207 
L 858.855769 38.77207 
L 859.157727 38.454199 
L 859.459686 39.089942 
L 859.761644 39.407814 
L 860.063603 39.089942 
L 860.365562 39.407814 
L 860.969479 39.407814 
L 861.271437 38.77207 
L 862.177313 39.725686 
L 862.78123 39.725686 
L 863.083188 40.361429 
L 863.687105 39.725686 
L 863.989064 39.725686 
L 864.291022 39.407814 
L 864.592981 40.043557 
L 864.894939 40.361429 
L 865.196898 39.407814 
L 865.498856 40.043557 
L 865.800815 39.725686 
L 866.102773 40.043557 
L 867.008649 40.043557 
L 867.310607 40.361429 
L 867.914524 40.361429 
L 868.216483 40.997172 
L 868.518441 40.679301 
L 869.122358 40.679301 
L 869.424317 40.361429 
L 869.726275 40.997172 
L 870.028234 40.361429 
L 870.330192 40.997172 
L 870.632151 40.997172 
L 870.934109 41.632916 
L 871.538026 41.632916 
L 872.141943 42.268659 
L 872.443902 42.268659 
L 873.047819 42.904403 
L 873.349778 42.904403 
L 873.651736 43.222274 
L 873.953695 43.222274 
L 874.255653 43.858018 
L 874.557612 43.222274 
L 874.85957 43.222274 
L 875.463487 42.586531 
L 875.765446 42.904403 
L 876.067404 42.904403 
L 876.369363 42.586531 
L 876.671321 43.540146 
L 876.97328 43.222274 
L 877.275238 43.540146 
L 877.879155 42.904403 
L 878.181114 43.222274 
L 878.483072 42.586531 
L 878.785031 42.586531 
L 879.086989 42.904403 
L 879.690906 42.268659 
L 880.294823 42.904403 
L 880.596782 41.950787 
L 880.89874 42.586531 
L 881.502657 42.586531 
L 881.804616 41.950787 
L 882.106574 42.268659 
L 882.408533 42.268659 
L 882.710491 42.586531 
L 883.616367 42.586531 
L 883.918325 42.904403 
L 884.220284 42.586531 
L 884.522242 42.586531 
L 884.824201 42.268659 
L 885.126159 42.268659 
L 885.428118 41.950787 
L 885.730077 42.268659 
L 886.032035 42.268659 
L 886.333994 41.950787 
L 886.635952 42.586531 
L 886.937911 41.950787 
L 887.239869 41.950787 
L 887.843786 41.315044 
L 888.145745 41.315044 
L 888.447703 42.268659 
L 888.749662 42.268659 
L 889.05162 41.315044 
L 889.353579 41.632916 
L 889.655537 41.632916 
L 889.957496 41.315044 
L 890.259454 41.632916 
L 890.561413 41.315044 
L 890.863371 41.632916 
L 891.16533 40.997172 
L 891.467288 40.997172 
L 891.769247 41.632916 
L 892.977081 40.361429 
L 893.580998 40.997172 
L 893.882956 40.997172 
L 894.486873 40.361429 
L 895.09079 40.361429 
L 895.392749 40.679301 
L 895.694707 40.043557 
L 895.996666 40.043557 
L 896.600583 40.679301 
L 896.902541 40.043557 
L 897.2045 40.043557 
L 897.506458 39.725686 
L 897.808417 39.725686 
L 898.110375 39.407814 
L 898.412334 40.043557 
L 898.714293 40.043557 
L 899.016251 39.725686 
L 899.31821 40.043557 
L 899.620168 40.043557 
L 899.922127 39.407814 
L 900.224085 39.725686 
L 900.526044 39.725686 
L 901.129961 39.089942 
L 901.431919 39.407814 
L 901.733878 39.089942 
L 902.337795 39.089942 
L 902.639753 38.77207 
L 902.941712 39.089942 
L 903.545629 39.089942 
L 903.847587 40.043557 
L 904.149546 39.089942 
L 904.451504 39.089942 
L 904.753463 39.407814 
L 905.055421 38.454199 
L 905.35738 38.136327 
L 905.659338 38.77207 
L 905.961297 37.500584 
L 906.263255 38.454199 
L 906.565214 37.818455 
L 906.867172 37.818455 
L 907.169131 38.136327 
L 907.471089 37.182712 
L 907.773048 37.182712 
L 908.075006 36.86484 
L 908.376965 36.86484 
L 908.678923 37.182712 
L 908.980882 36.229097 
L 909.28284 37.182712 
L 909.584799 36.546968 
L 909.886757 37.182712 
L 910.188716 36.86484 
L 910.792633 36.86484 
L 911.094592 37.182712 
L 911.39655 36.546968 
L 911.698509 36.86484 
L 912.000467 36.229097 
L 912.302426 36.229097 
L 912.906343 36.86484 
L 913.208301 36.86484 
L 913.51026 36.229097 
L 914.114177 35.593353 
L 914.416135 36.546968 
L 914.718094 35.593353 
L 915.020052 35.593353 
L 915.322011 34.95761 
L 915.623969 35.275482 
L 915.925928 35.911225 
L 916.227886 35.911225 
L 916.529845 35.593353 
L 916.831803 35.593353 
L 917.133762 35.275482 
L 917.43572 35.593353 
L 917.737679 35.275482 
L 917.737679 35.275482 
" clip-path="url(#ped513b7617)" style="fill: none; stroke: #ea580c; stroke-opacity: 0.95; stroke-width: 1.3; stroke-linecap: square"/>
   </g>
   <g id="patch_23">
    <path d="M 39.330625 228.954713 
L 39.330625 17.061433 
" style="fill: none; stroke: #cbd5e1; stroke-width: 0.8; stroke-linejoin: miter; stroke-linecap: square"/>
   </g>
   <g id="patch_24">
    <path d="M 935.305625 228.954713 
L 935.305625 17.061433 
" style="fill: none; stroke: #cbd5e1; stroke-width: 0.8; stroke-linejoin: miter; stroke-linecap: square"/>
   </g>
   <g id="patch_25">
    <path d="M 39.330625 228.954713 
L 935.305625 228.954713 
" style="fill: none; stroke: #cbd5e1; stroke-width: 0.8; stroke-linejoin: miter; stroke-linecap: square"/>
   </g>
   <g id="patch_26">
    <path d="M 39.330625 17.061433 
L 935.305625 17.061433 
" style="fill: none; stroke: #cbd5e1; stroke-width: 0.8; stroke-linejoin: miter; stroke-linecap: square"/>
   </g>
   <g id="text_16">
    <!-- ACC -->
    <g style="fill: #475569" transform="translate(121.665679 13.27875) scale(0.08 -0.08)">
     <defs>
      <path id="DejaVuSans-41" d="M 2188 4044 
L 1331 1722 
L 3047 1722 
L 2188 4044 
z
M 1831 4666 
L 2547 4666 
L 4325 0 
L 3669 0 
L 3244 1197 
L 1141 1197 
L 716 0 
L 50 0 
L 1831 4666 
z
" transform="scale(0.015625)"/>
     </defs>
     <use xlink:href="#DejaVuSans-41"/>
     <use xlink:href="#DejaVuSans-43" transform="translate(66.658203 0)"/>
     <use xlink:href="#DejaVuSans-43" transform="translate(136.482422 0)"/>
    </g>
   </g>
   <g id="text_17">
    <!-- OC -->
    <g style="fill: #475569" transform="translate(228.15199 13.27875) scale(0.08 -0.08)">
     <defs>
      <path id="DejaVuSans-4f" d="M 2522 4238 
Q 1834 4238 1429 3725 
Q 1025 3213 1025 2328 
Q 1025 1447 1429 934 
Q 1834 422 2522 422 
Q 3209 422 3611 934 
Q 4013 1447 4013 2328 
Q 4013 3213 3611 3725 
Q 3209 4238 2522 4238 
z
M 2522 4750 
Q 3503 4750 4090 4092 
Q 4678 3434 4678 2328 
Q 4678 1225 4090 567 
Q 3503 -91 2522 -91 
Q 1538 -91 948 565 
Q 359 1222 359 2328 
Q 359 3434 948 4092 
Q 1538 4750 2522 4750 
z
" transform="scale(0.015625)"/>
     </defs>
     <use xlink:href="#DejaVuSans-4f"/>
     <use xlink:href="#DejaVuSans-43" transform="translate(78.710938 0)"/>
    </g>
   </g>
   <g id="text_18">
    <!-- FCS -->
    <g style="fill: #475569" transform="translate(253.637006 13.27875) scale(0.08 -0.08)">
     <defs>
      <path id="DejaVuSans-46" d="M 628 4666 
L 3309 4666 
L 3309 4134 
L 1259 4134 
L 1259 2759 
L 3109 2759 
L 3109 2228 
L 1259 2228 
L 1259 0 
L 628 0 
L 628 4666 
z
" transform="scale(0.015625)"/>
      <path id="DejaVuSans-53" d="M 3425 4513 
L 3425 3897 
Q 3066 4069 2747 4153 
Q 2428 4238 2131 4238 
Q 1616 4238 1336 4038 
Q 1056 3838 1056 3469 
Q 1056 3159 1242 3001 
Q 1428 2844 1947 2747 
L 2328 2669 
Q 3034 2534 3370 2195 
Q 3706 1856 3706 1288 
Q 3706 609 3251 259 
Q 2797 -91 1919 -91 
Q 1588 -91 1214 -16 
Q 841 59 441 206 
L 441 856 
Q 825 641 1194 531 
Q 1563 422 1919 422 
Q 2459 422 2753 634 
Q 3047 847 3047 1241 
Q 3047 1584 2836 1778 
Q 2625 1972 2144 2069 
L 1759 2144 
Q 1053 2284 737 2584 
Q 422 2884 422 3419 
Q 422 4038 858 4394 
Q 1294 4750 2059 4750 
Q 2388 4750 2728 4690 
Q 3069 4631 3425 4513 
z
" transform="scale(0.015625)"/>
     </defs>
     <use xlink:href="#DejaVuSans-46"/>
     <use xlink:href="#DejaVuSans-43" transform="translate(57.519531 0)"/>
     <use xlink:href="#DejaVuSans-53" transform="translate(127.34375 0)"/>
    </g>
   </g>
   <g id="text_19">
    <!-- SR -->
    <g style="fill: #475569" transform="translate(289.921714 13.27875) scale(0.08 -0.08)">
     <defs>
      <path id="DejaVuSans-52" d="M 2841 2188 
Q 3044 2119 3236 1894 
Q 3428 1669 3622 1275 
L 4263 0 
L 3584 0 
L 2988 1197 
Q 2756 1666 2539 1819 
Q 2322 1972 1947 1972 
L 1259 1972 
L 1259 0 
L 628 0 
L 628 4666 
L 2053 4666 
Q 2853 4666 3247 4331 
Q 3641 3997 3641 3322 
Q 3641 2881 3436 2590 
Q 3231 2300 2841 2188 
z
M 1259 4147 
L 1259 2491 
L 2053 2491 
Q 2509 2491 2742 2702 
Q 2975 2913 2975 3322 
Q 2975 3731 2742 3939 
Q 2509 4147 2053 4147 
L 1259 4147 
z
" transform="scale(0.015625)"/>
     </defs>
     <use xlink:href="#DejaVuSans-53"/>
     <use xlink:href="#DejaVuSans-52" transform="translate(63.476562 0)"/>
    </g>
   </g>
   <g id="text_20">
    <!-- FFC -->
    <g style="fill: #475569" transform="translate(330.875177 13.27875) scale(0.08 -0.08)">
     <use xlink:href="#DejaVuSans-46"/>
     <use xlink:href="#DejaVuSans-46" transform="translate(57.519531 0)"/>
     <use xlink:href="#DejaVuSans-43" transform="translate(115.039062 0)"/>
    </g>
   </g>
   <g id="text_21">
    <!-- SS -->
    <g style="fill: #475569" transform="translate(416.984289 13.27875) scale(0.08 -0.08)">
     <use xlink:href="#DejaVuSans-53"/>
     <use xlink:href="#DejaVuSans-53" transform="translate(63.476562 0)"/>
    </g>
   </g>
   <g id="text_22">
    <!-- OC -->
    <g style="fill: #475569" transform="translate(484.061829 13.27875) scale(0.08 -0.08)">
     <use xlink:href="#DejaVuSans-4f"/>
     <use xlink:href="#DejaVuSans-43" transform="translate(78.710938 0)"/>
    </g>
   </g>
   <g id="text_23">
    <!-- FCS -->
    <g style="fill: #475569" transform="translate(507.282156 13.27875) scale(0.08 -0.08)">
     <use xlink:href="#DejaVuSans-46"/>
     <use xlink:href="#DejaVuSans-43" transform="translate(57.519531 0)"/>
     <use xlink:href="#DejaVuSans-53" transform="translate(127.34375 0)"/>
    </g>
   </g>
   <g id="text_24">
    <!-- SR -->
    <g style="fill: #475569" transform="translate(543.566864 13.27875) scale(0.08 -0.08)">
     <use xlink:href="#DejaVuSans-53"/>
     <use xlink:href="#DejaVuSans-52" transform="translate(63.476562 0)"/>
    </g>
   </g>
   <g id="text_25">
    <!-- FFC -->
    <g style="fill: #475569" transform="translate(584.520327 13.27875) scale(0.08 -0.08)">
     <use xlink:href="#DejaVuSans-46"/>
     <use xlink:href="#DejaVuSans-46" transform="translate(57.519531 0)"/>
     <use xlink:href="#DejaVuSans-43" transform="translate(115.039062 0)"/>
    </g>
   </g>
   <g id="text_26">
    <!-- SS -->
    <g style="fill: #475569" transform="translate(670.629439 13.27875) scale(0.08 -0.08)">
     <use xlink:href="#DejaVuSans-53"/>
     <use xlink:href="#DejaVuSans-53" transform="translate(63.476562 0)"/>
    </g>
   </g>
   <g id="text_27">
    <!-- OC -->
    <g style="fill: #475569" transform="translate(737.706979 13.27875) scale(0.08 -0.08)">
     <use xlink:href="#DejaVuSans-4f"/>
     <use xlink:href="#DejaVuSans-43" transform="translate(78.710938 0)"/>
    </g>
   </g>
   <g id="text_28">
    <!-- FCS -->
    <g style="fill: #475569" transform="translate(760.927306 13.27875) scale(0.08 -0.08)">
     <use xlink:href="#DejaVuSans-46"/>
     <use xlink:href="#DejaVuSans-43" transform="translate(57.519531 0)"/>
     <use xlink:href="#DejaVuSans-53" transform="translate(127.34375 0)"/>
    </g>
   </g>
   <g id="text_29">
    <!-- SR -->
    <g style="fill: #475569" transform="translate(797.212014 13.27875) scale(0.08 -0.08)">
     <use xlink:href="#DejaVuSans-53"/>
     <use xlink:href="#DejaVuSans-52" transform="translate(63.476562 0)"/>
    </g>
   </g>
   <g id="text_30">
    <!-- FFC -->
    <g style="fill: #475569" transform="translate(838.165477 13.27875) scale(0.08 -0.08)">
     <use xlink:href="#DejaVuSans-46"/>
     <use xlink:href="#DejaVuSans-46" transform="translate(57.519531 0)"/>
     <use xlink:href="#DejaVuSans-43" transform="translate(115.039062 0)"/>
    </g>
   </g>
   <g id="text_31">
    <!-- SS -->
    <g style="fill: #475569" transform="translate(888.039568 13.27875) scale(0.08 -0.08)">
     <use xlink:href="#DejaVuSans-53"/>
     <use xlink:href="#DejaVuSans-53" transform="translate(63.476562 0)"/>
    </g>
   </g>
   <g id="legend_1">
    <g id="line2d_28">
     <path d="M 815.393125 27.540183 
L 823.393125 27.540183 
L 831.393125 27.540183 
" style="fill: none; stroke: #ea580c; stroke-opacity: 0.95; stroke-width: 1.3; stroke-linecap: square"/>
    </g>
    <g id="text_32">
     <!-- Empatica temperature -->
     <g transform="translate(837.793125 30.340183) scale(0.08 -0.08)">
      <defs>
       <path id="DejaVuSans-45" d="M 628 4666 
L 3578 4666 
L 3578 4134 
L 1259 4134 
L 1259 2753 
L 3481 2753 
L 3481 2222 
L 1259 2222 
L 1259 531 
L 3634 531 
L 3634 0 
L 628 0 
L 628 4666 
z
" transform="scale(0.015625)"/>
      </defs>
      <use xlink:href="#DejaVuSans-45"/>
      <use xlink:href="#DejaVuSans-6d" transform="translate(63.183594 0)"/>
      <use xlink:href="#DejaVuSans-70" transform="translate(160.595703 0)"/>
      <use xlink:href="#DejaVuSans-61" transform="translate(224.072266 0)"/>
      <use xlink:href="#DejaVuSans-74" transform="translate(285.351562 0)"/>
      <use xlink:href="#DejaVuSans-69" transform="translate(324.560547 0)"/>
      <use xlink:href="#DejaVuSans-63" transform="translate(352.34375 0)"/>
      <use xlink:href="#DejaVuSans-61" transform="translate(407.324219 0)"/>
      <use xlink:href="#DejaVuSans-20" transform="translate(468.603516 0)"/>
      <use xlink:href="#DejaVuSans-74" transform="translate(500.390625 0)"/>
      <use xlink:href="#DejaVuSans-65" transform="translate(539.599609 0)"/>
      <use xlink:href="#DejaVuSans-6d" transform="translate(601.123047 0)"/>
      <use xlink:href="#DejaVuSans-70" transform="translate(698.535156 0)"/>
      <use xlink:href="#DejaVuSans-65" transform="translate(762.011719 0)"/>
      <use xlink:href="#DejaVuSans-72" transform="translate(823.535156 0)"/>
      <use xlink:href="#DejaVuSans-61" transform="translate(864.648438 0)"/>
      <use xlink:href="#DejaVuSans-74" transform="translate(925.927734 0)"/>
      <use xlink:href="#DejaVuSans-75" transform="translate(965.136719 0)"/>
      <use xlink:href="#DejaVuSans-72" transform="translate(1028.515625 0)"/>
      <use xlink:href="#DejaVuSans-65" transform="translate(1067.378906 0)"/>
     </g>
    </g>
   </g>
  </g>
 </g>
 <defs>
  <clipPath id="ped513b7617">
   <rect x="39.330625" y="17.061433" width="895.975" height="211.89328"/>
  </clipPath>
 </defs>
</svg>
