<?xml version="1.0" encoding="utf-8" standalone="no"?>
<!DOCTYPE svg PUBLIC "-//W3C//DTD SVG 1.1//EN"
  "http://www.w3.org/Graphics/SVG/1.1/DTD/svg11.dtd">
<svg xmlns:xlink="http://www.w3.org/1999/xlink" width="971.353438pt" height="294.407173pt" viewBox="0 0 971.353438 294.407173" xmlns="http://www.w3.org/2000/svg" version="1.1">
 <metadata>
  <rdf:RDF xmlns:dc="http://purl.org/dc/elements/1.1/" xmlns:cc="http://creativecommons.org/ns#" xmlns:rdf="http://www.w3.org/1999/02/22-rdf-syntax-ns#">
   <cc:Work>
    <dc:type rdf:resource="http://purl.org/dc/dcmitype/StillImage"/>
    <dc:date>2026-04-17T13:12:55.335093</dc:date>
    <dc:format>image/svg+xml</dc:format>
    <dc:creator>
     <cc:Agent>
      <dc:title>Matplotlib v3.10.8, https://matplotlib.org/</dc:title>
     </cc:Agent>
    </dc:creator>
   </cc:Work>
  </rdf:RDF>
 </metadata>
 <defs>
  <style type="text/css">*{stroke-linejoin: round; stroke-linecap: butt}</style>
 </defs>
 <g id="figure_1">
  <g id="patch_1">
   <path d="M 0 294.407173 
L 971.353438 294.407173 
L 971.353438 0 
L 0 0 
z
" style="fill: #ffffff"/>
  </g>
  <g id="axes_1">
   <g id="patch_2">
    <path d="M 42.190938 257.818735 
L 964.153437 257.818735 
L 964.153437 17.347215 
L 42.190938 17.347215 
z
" style="fill: #ffffff"/>
   </g>
   <g id="patch_3">
    <path d="M 42.190937 257.818735 
L 59.920986 257.818735 
L 59.920986 17.347215 
L 42.190937 17.347215 
z
" clip-path="url(#p8f51461afe)" style="fill: #f8fafc; opacity: 0.45"/>
   </g>
   <g id="patch_4">
    <path d="M 59.920986 257.818735 
L 94.914502 257.818735 
L 94.914502 17.347215 
L 59.920986 17.347215 
z
" clip-path="url(#p8f51461afe)" style="fill: #eff6ff; opacity: 0.45"/>
   </g>
   <g id="patch_5">
    <path d="M 94.914502 257.818735 
L 124.075765 257.818735 
L 124.075765 17.347215 
L 94.914502 17.347215 
z
" clip-path="url(#p8f51461afe)" style="fill: #fef3c7; opacity: 0.45"/>
   </g>
   <g id="patch_6">
    <path d="M 124.075765 257.818735 
L 182.398291 257.818735 
L 182.398291 17.347215 
L 124.075765 17.347215 
z
" clip-path="url(#p8f51461afe)" style="fill: #dcfce7; opacity: 0.45"/>
   </g>
   <g id="patch_7">
    <path d="M 182.398291 257.818735 
L 240.720818 257.818735 
L 240.720818 17.347215 
L 182.398291 17.347215 
z
" clip-path="url(#p8f51461afe)" style="fill: #fee2e2; opacity: 0.45"/>
   </g>
   <g id="patch_8">
    <path d="M 240.720818 257.818735 
L 392.359387 257.818735 
L 392.359387 17.347215 
L 240.720818 17.347215 
z
" clip-path="url(#p8f51461afe)" style="fill: #ede9fe; opacity: 0.45"/>
   </g>
   <g id="patch_9">
    <path d="M 392.359387 257.818735 
L 421.52065 257.818735 
L 421.52065 17.347215 
L 392.359387 17.347215 
z
" clip-path="url(#p8f51461afe)" style="fill: #f8fafc; opacity: 0.45"/>
   </g>
   <g id="patch_10">
    <path d="M 421.52065 257.818735 
L 450.681914 257.818735 
L 450.681914 17.347215 
L 421.52065 17.347215 
z
" clip-path="url(#p8f51461afe)" style="fill: #eff6ff; opacity: 0.45"/>
   </g>
   <g id="patch_11">
    <path d="M 450.681914 257.818735 
L 509.00444 257.818735 
L 509.00444 17.347215 
L 450.681914 17.347215 
z
" clip-path="url(#p8f51461afe)" style="fill: #fef3c7; opacity: 0.45"/>
   </g>
   <g id="patch_12">
    <path d="M 509.00444 257.818735 
L 567.326967 257.818735 
L 567.326967 17.347215 
L 509.00444 17.347215 
z
" clip-path="url(#p8f51461afe)" style="fill: #dcfce7; opacity: 0.45"/>
   </g>
   <g id="patch_13">
    <path d="M 567.326967 257.818735 
L 718.965536 257.818735 
L 718.965536 17.347215 
L 567.326967 17.347215 
z
" clip-path="url(#p8f51461afe)" style="fill: #fee2e2; opacity: 0.45"/>
   </g>
   <g id="patch_14">
    <path d="M 718.965536 257.818735 
L 748.126799 257.818735 
L 748.126799 17.347215 
L 718.965536 17.347215 
z
" clip-path="url(#p8f51461afe)" style="fill: #ede9fe; opacity: 0.45"/>
   </g>
   <g id="patch_15">
    <path d="M 748.126799 257.818735 
L 783.120315 257.818735 
L 783.120315 17.347215 
L 748.126799 17.347215 
z
" clip-path="url(#p8f51461afe)" style="fill: #f8fafc; opacity: 0.45"/>
   </g>
   <g id="patch_16">
    <path d="M 783.120315 257.818735 
L 835.610589 257.818735 
L 835.610589 17.347215 
L 783.120315 17.347215 
z
" clip-path="url(#p8f51461afe)" style="fill: #eff6ff; opacity: 0.45"/>
   </g>
   <g id="patch_17">
    <path d="M 835.610589 257.818735 
L 893.933116 257.818735 
L 893.933116 17.347215 
L 835.610589 17.347215 
z
" clip-path="url(#p8f51461afe)" style="fill: #fef3c7; opacity: 0.45"/>
   </g>
   <g id="patch_18">
    <path d="M 893.933116 257.818735 
L 946.423389 257.818735 
L 946.423389 17.347215 
L 893.933116 17.347215 
z
" clip-path="url(#p8f51461afe)" style="fill: #dcfce7; opacity: 0.45"/>
   </g>
   <g id="patch_19">
    <path d="M 946.423389 257.818735 
L 952.255642 257.818735 
L 952.255642 17.347215 
L 946.423389 17.347215 
z
" clip-path="url(#p8f51461afe)" style="fill: #fee2e2; opacity: 0.45"/>
   </g>
   <g id="matplotlib.axis_1">
    <g id="xtick_1">
     <g id="line2d_1">
      <path d="M 59.920986 257.818735 
L 59.920986 17.347215 
" clip-path="url(#p8f51461afe)" style="fill: none; stroke: #eef2f7; stroke-width: 0.55; stroke-linecap: square"/>
     </g>
     <g id="line2d_2">
      <defs>
       <path id="m3c4fde6b9f" d="M 0 0 
L 0 3.5 
" style="stroke: #000000; stroke-width: 0.8"/>
      </defs>
      <g>
       <use xlink:href="#m3c4fde6b9f" x="59.920986" y="257.818735" style="stroke: #000000; stroke-width: 0.8"/>
      </g>
     </g>
     <g id="text_1">
      <!-- 40 -->
      <g transform="translate(54.194736 271.657329) scale(0.09 -0.09)">
       <defs>
        <path id="DejaVuSans-34" d="M 2419 4116 
L 825 1625 
L 2419 1625 
L 2419 4116 
z
M 2253 4666 
L 3047 4666 
L 3047 1625 
L 3713 1625 
L 3713 1100 
L 3047 1100 
L 3047 0 
L 2419 0 
L 2419 1100 
L 313 1100 
L 313 1709 
L 2253 4666 
z
" transform="scale(0.015625)"/>
        <path id="DejaVuSans-30" d="M 2034 4250 
Q 1547 4250 1301 3770 
Q 1056 3291 1056 2328 
Q 1056 1369 1301 889 
Q 1547 409 2034 409 
Q 2525 409 2770 889 
Q 3016 1369 3016 2328 
Q 3016 3291 2770 3770 
Q 2525 4250 2034 4250 
z
M 2034 4750 
Q 2819 4750 3233 4129 
Q 3647 3509 3647 2328 
Q 3647 1150 3233 529 
Q 2819 -91 2034 -91 
Q 1250 -91 836 529 
Q 422 1150 422 2328 
Q 422 3509 836 4129 
Q 1250 4750 2034 4750 
z
" transform="scale(0.015625)"/>
       </defs>
       <use xlink:href="#DejaVuSans-34"/>
       <use xlink:href="#DejaVuSans-30" transform="translate(63.623047 0)"/>
      </g>
     </g>
    </g>
    <g id="xtick_2">
     <g id="line2d_3">
      <path d="M 176.566039 257.818735 
L 176.566039 17.347215 
" clip-path="url(#p8f51461afe)" style="fill: none; stroke: #eef2f7; stroke-width: 0.55; stroke-linecap: square"/>
     </g>
     <g id="line2d_4">
      <g>
       <use xlink:href="#m3c4fde6b9f" x="176.566039" y="257.818735" style="stroke: #000000; stroke-width: 0.8"/>
      </g>
     </g>
     <g id="text_2">
      <!-- 60 -->
      <g transform="translate(170.839789 271.657329) scale(0.09 -0.09)">
       <defs>
        <path id="DejaVuSans-36" d="M 2113 2584 
Q 1688 2584 1439 2293 
Q 1191 2003 1191 1497 
Q 1191 994 1439 701 
Q 1688 409 2113 409 
Q 2538 409 2786 701 
Q 3034 994 3034 1497 
Q 3034 2003 2786 2293 
Q 2538 2584 2113 2584 
z
M 3366 4563 
L 3366 3988 
Q 3128 4100 2886 4159 
Q 2644 4219 2406 4219 
Q 1781 4219 1451 3797 
Q 1122 3375 1075 2522 
Q 1259 2794 1537 2939 
Q 1816 3084 2150 3084 
Q 2853 3084 3261 2657 
Q 3669 2231 3669 1497 
Q 3669 778 3244 343 
Q 2819 -91 2113 -91 
Q 1303 -91 875 529 
Q 447 1150 447 2328 
Q 447 3434 972 4092 
Q 1497 4750 2381 4750 
Q 2619 4750 2861 4703 
Q 3103 4656 3366 4563 
z
" transform="scale(0.015625)"/>
       </defs>
       <use xlink:href="#DejaVuSans-36"/>
       <use xlink:href="#DejaVuSans-30" transform="translate(63.623047 0)"/>
      </g>
     </g>
    </g>
    <g id="xtick_3">
     <g id="line2d_5">
      <path d="M 293.211092 257.818735 
L 293.211092 17.347215 
" clip-path="url(#p8f51461afe)" style="fill: none; stroke: #eef2f7; stroke-width: 0.55; stroke-linecap: square"/>
     </g>
     <g id="line2d_6">
      <g>
       <use xlink:href="#m3c4fde6b9f" x="293.211092" y="257.818735" style="stroke: #000000; stroke-width: 0.8"/>
      </g>
     </g>
     <g id="text_3">
      <!-- 80 -->
      <g transform="translate(287.484842 271.657329) scale(0.09 -0.09)">
       <defs>
        <path id="DejaVuSans-38" d="M 2034 2216 
Q 1584 2216 1326 1975 
Q 1069 1734 1069 1313 
Q 1069 891 1326 650 
Q 1584 409 2034 409 
Q 2484 409 2743 651 
Q 3003 894 3003 1313 
Q 3003 1734 2745 1975 
Q 2488 2216 2034 2216 
z
M 1403 2484 
Q 997 2584 770 2862 
Q 544 3141 544 3541 
Q 544 4100 942 4425 
Q 1341 4750 2034 4750 
Q 2731 4750 3128 4425 
Q 3525 4100 3525 3541 
Q 3525 3141 3298 2862 
Q 3072 2584 2669 2484 
Q 3125 2378 3379 2068 
Q 3634 1759 3634 1313 
Q 3634 634 3220 271 
Q 2806 -91 2034 -91 
Q 1263 -91 848 271 
Q 434 634 434 1313 
Q 434 1759 690 2068 
Q 947 2378 1403 2484 
z
M 1172 3481 
Q 1172 3119 1398 2916 
Q 1625 2713 2034 2713 
Q 2441 2713 2670 2916 
Q 2900 3119 2900 3481 
Q 2900 3844 2670 4047 
Q 2441 4250 2034 4250 
Q 1625 4250 1398 4047 
Q 1172 3844 1172 3481 
z
" transform="scale(0.015625)"/>
       </defs>
       <use xlink:href="#DejaVuSans-38"/>
       <use xlink:href="#DejaVuSans-30" transform="translate(63.623047 0)"/>
      </g>
     </g>
    </g>
    <g id="xtick_4">
     <g id="line2d_7">
      <path d="M 409.856145 257.818735 
L 409.856145 17.347215 
" clip-path="url(#p8f51461afe)" style="fill: none; stroke: #eef2f7; stroke-width: 0.55; stroke-linecap: square"/>
     </g>
     <g id="line2d_8">
      <g>
       <use xlink:href="#m3c4fde6b9f" x="409.856145" y="257.818735" style="stroke: #000000; stroke-width: 0.8"/>
      </g>
     </g>
     <g id="text_4">
      <!-- 100 -->
      <g transform="translate(401.26677 271.657329) scale(0.09 -0.09)">
       <defs>
        <path id="DejaVuSans-31" d="M 794 531 
L 1825 531 
L 1825 4091 
L 703 3866 
L 703 4441 
L 1819 4666 
L 2450 4666 
L 2450 531 
L 3481 531 
L 3481 0 
L 794 0 
L 794 531 
z
" transform="scale(0.015625)"/>
       </defs>
       <use xlink:href="#DejaVuSans-31"/>
       <use xlink:href="#DejaVuSans-30" transform="translate(63.623047 0)"/>
       <use xlink:href="#DejaVuSans-30" transform="translate(127.246094 0)"/>
      </g>
     </g>
    </g>
    <g id="xtick_5">
     <g id="line2d_9">
      <path d="M 526.501198 257.818735 
L 526.501198 17.347215 
" clip-path="url(#p8f51461afe)" style="fill: none; stroke: #eef2f7; stroke-width: 0.55; stroke-linecap: square"/>
     </g>
     <g id="line2d_10">
      <g>
       <use xlink:href="#m3c4fde6b9f" x="526.501198" y="257.818735" style="stroke: #000000; stroke-width: 0.8"/>
      </g>
     </g>
     <g id="text_5">
      <!-- 120 -->
      <g transform="translate(517.911823 271.657329) scale(0.09 -0.09)">
       <defs>
        <path id="DejaVuSans-32" d="M 1228 531 
L 3431 531 
L 3431 0 
L 469 0 
L 469 531 
Q 828 903 1448 1529 
Q 2069 2156 2228 2338 
Q 2531 2678 2651 2914 
Q 2772 3150 2772 3378 
Q 2772 3750 2511 3984 
Q 2250 4219 1831 4219 
Q 1534 4219 1204 4116 
Q 875 4013 500 3803 
L 500 4441 
Q 881 4594 1212 4672 
Q 1544 4750 1819 4750 
Q 2544 4750 2975 4387 
Q 3406 4025 3406 3419 
Q 3406 3131 3298 2873 
Q 3191 2616 2906 2266 
Q 2828 2175 2409 1742 
Q 1991 1309 1228 531 
z
" transform="scale(0.015625)"/>
       </defs>
       <use xlink:href="#DejaVuSans-31"/>
       <use xlink:href="#DejaVuSans-32" transform="translate(63.623047 0)"/>
       <use xlink:href="#DejaVuSans-30" transform="translate(127.246094 0)"/>
      </g>
     </g>
    </g>
    <g id="xtick_6">
     <g id="line2d_11">
      <path d="M 643.146251 257.818735 
L 643.146251 17.347215 
" clip-path="url(#p8f51461afe)" style="fill: none; stroke: #eef2f7; stroke-width: 0.55; stroke-linecap: square"/>
     </g>
     <g id="line2d_12">
      <g>
       <use xlink:href="#m3c4fde6b9f" x="643.146251" y="257.818735" style="stroke: #000000; stroke-width: 0.8"/>
      </g>
     </g>
     <g id="text_6">
      <!-- 140 -->
      <g transform="translate(634.556876 271.657329) scale(0.09 -0.09)">
       <use xlink:href="#DejaVuSans-31"/>
       <use xlink:href="#DejaVuSans-34" transform="translate(63.623047 0)"/>
       <use xlink:href="#DejaVuSans-30" transform="translate(127.246094 0)"/>
      </g>
     </g>
    </g>
    <g id="xtick_7">
     <g id="line2d_13">
      <path d="M 759.791304 257.818735 
L 759.791304 17.347215 
" clip-path="url(#p8f51461afe)" style="fill: none; stroke: #eef2f7; stroke-width: 0.55; stroke-linecap: square"/>
     </g>
     <g id="line2d_14">
      <g>
       <use xlink:href="#m3c4fde6b9f" x="759.791304" y="257.818735" style="stroke: #000000; stroke-width: 0.8"/>
      </g>
     </g>
     <g id="text_7">
      <!-- 160 -->
      <g transform="translate(751.201929 271.657329) scale(0.09 -0.09)">
       <use xlink:href="#DejaVuSans-31"/>
       <use xlink:href="#DejaVuSans-36" transform="translate(63.623047 0)"/>
       <use xlink:href="#DejaVuSans-30" transform="translate(127.246094 0)"/>
      </g>
     </g>
    </g>
    <g id="xtick_8">
     <g id="line2d_15">
      <path d="M 876.436358 257.818735 
L 876.436358 17.347215 
" clip-path="url(#p8f51461afe)" style="fill: none; stroke: #eef2f7; stroke-width: 0.55; stroke-linecap: square"/>
     </g>
     <g id="line2d_16">
      <g>
       <use xlink:href="#m3c4fde6b9f" x="876.436358" y="257.818735" style="stroke: #000000; stroke-width: 0.8"/>
      </g>
     </g>
     <g id="text_8">
      <!-- 180 -->
      <g transform="translate(867.846983 271.657329) scale(0.09 -0.09)">
       <use xlink:href="#DejaVuSans-31"/>
       <use xlink:href="#DejaVuSans-38" transform="translate(63.623047 0)"/>
       <use xlink:href="#DejaVuSans-30" transform="translate(127.246094 0)"/>
      </g>
     </g>
    </g>
    <g id="text_9">
     <!-- Minutes since session start -->
     <g transform="translate(435.582344 285.127485) scale(0.1 -0.1)">
      <defs>
       <path id="DejaVuSans-4d" d="M 628 4666 
L 1569 4666 
L 2759 1491 
L 3956 4666 
L 4897 4666 
L 4897 0 
L 4281 0 
L 4281 4097 
L 3078 897 
L 2444 897 
L 1241 4097 
L 1241 0 
L 628 0 
L 628 4666 
z
" transform="scale(0.015625)"/>
       <path id="DejaVuSans-69" d="M 603 3500 
L 1178 3500 
L 1178 0 
L 603 0 
L 603 3500 
z
M 603 4863 
L 1178 4863 
L 1178 4134 
L 603 4134 
L 603 4863 
z
" transform="scale(0.015625)"/>
       <path id="DejaVuSans-6e" d="M 3513 2113 
L 3513 0 
L 2938 0 
L 2938 2094 
Q 2938 2591 2744 2837 
Q 2550 3084 2163 3084 
Q 1697 3084 1428 2787 
Q 1159 2491 1159 1978 
L 1159 0 
L 581 0 
L 581 3500 
L 1159 3500 
L 1159 2956 
Q 1366 3272 1645 3428 
Q 1925 3584 2291 3584 
Q 2894 3584 3203 3211 
Q 3513 2838 3513 2113 
z
" transform="scale(0.015625)"/>
       <path id="DejaVuSans-75" d="M 544 1381 
L 544 3500 
L 1119 3500 
L 1119 1403 
Q 1119 906 1312 657 
Q 1506 409 1894 409 
Q 2359 409 2629 706 
Q 2900 1003 2900 1516 
L 2900 3500 
L 3475 3500 
L 3475 0 
L 2900 0 
L 2900 538 
Q 2691 219 2414 64 
Q 2138 -91 1772 -91 
Q 1169 -91 856 284 
Q 544 659 544 1381 
z
M 1991 3584 
L 1991 3584 
z
" transform="scale(0.015625)"/>
       <path id="DejaVuSans-74" d="M 1172 4494 
L 1172 3500 
L 2356 3500 
L 2356 3053 
L 1172 3053 
L 1172 1153 
Q 1172 725 1289 603 
Q 1406 481 1766 481 
L 2356 481 
L 2356 0 
L 1766 0 
Q 1100 0 847 248 
Q 594 497 594 1153 
L 594 3053 
L 172 3053 
L 172 3500 
L 594 3500 
L 594 4494 
L 1172 4494 
z
" transform="scale(0.015625)"/>
       <path id="DejaVuSans-65" d="M 3597 1894 
L 3597 1613 
L 953 1613 
Q 991 1019 1311 708 
Q 1631 397 2203 397 
Q 2534 397 2845 478 
Q 3156 559 3463 722 
L 3463 178 
Q 3153 47 2828 -22 
Q 2503 -91 2169 -91 
Q 1331 -91 842 396 
Q 353 884 353 1716 
Q 353 2575 817 3079 
Q 1281 3584 2069 3584 
Q 2775 3584 3186 3129 
Q 3597 2675 3597 1894 
z
M 3022 2063 
Q 3016 2534 2758 2815 
Q 2500 3097 2075 3097 
Q 1594 3097 1305 2825 
Q 1016 2553 972 2059 
L 3022 2063 
z
" transform="scale(0.015625)"/>
       <path id="DejaVuSans-73" d="M 2834 3397 
L 2834 2853 
Q 2591 2978 2328 3040 
Q 2066 3103 1784 3103 
Q 1356 3103 1142 2972 
Q 928 2841 928 2578 
Q 928 2378 1081 2264 
Q 1234 2150 1697 2047 
L 1894 2003 
Q 2506 1872 2764 1633 
Q 3022 1394 3022 966 
Q 3022 478 2636 193 
Q 2250 -91 1575 -91 
Q 1294 -91 989 -36 
Q 684 19 347 128 
L 347 722 
Q 666 556 975 473 
Q 1284 391 1588 391 
Q 1994 391 2212 530 
Q 2431 669 2431 922 
Q 2431 1156 2273 1281 
Q 2116 1406 1581 1522 
L 1381 1569 
Q 847 1681 609 1914 
Q 372 2147 372 2553 
Q 372 3047 722 3315 
Q 1072 3584 1716 3584 
Q 2034 3584 2315 3537 
Q 2597 3491 2834 3397 
z
" transform="scale(0.015625)"/>
       <path id="DejaVuSans-20" transform="scale(0.015625)"/>
       <path id="DejaVuSans-63" d="M 3122 3366 
L 3122 2828 
Q 2878 2963 2633 3030 
Q 2388 3097 2138 3097 
Q 1578 3097 1268 2742 
Q 959 2388 959 1747 
Q 959 1106 1268 751 
Q 1578 397 2138 397 
Q 2388 397 2633 464 
Q 2878 531 3122 666 
L 3122 134 
Q 2881 22 2623 -34 
Q 2366 -91 2075 -91 
Q 1284 -91 818 406 
Q 353 903 353 1747 
Q 353 2603 823 3093 
Q 1294 3584 2113 3584 
Q 2378 3584 2631 3529 
Q 2884 3475 3122 3366 
z
" transform="scale(0.015625)"/>
       <path id="DejaVuSans-6f" d="M 1959 3097 
Q 1497 3097 1228 2736 
Q 959 2375 959 1747 
Q 959 1119 1226 758 
Q 1494 397 1959 397 
Q 2419 397 2687 759 
Q 2956 1122 2956 1747 
Q 2956 2369 2687 2733 
Q 2419 3097 1959 3097 
z
M 1959 3584 
Q 2709 3584 3137 3096 
Q 3566 2609 3566 1747 
Q 3566 888 3137 398 
Q 2709 -91 1959 -91 
Q 1206 -91 779 398 
Q 353 888 353 1747 
Q 353 2609 779 3096 
Q 1206 3584 1959 3584 
z
" transform="scale(0.015625)"/>
       <path id="DejaVuSans-61" d="M 2194 1759 
Q 1497 1759 1228 1600 
Q 959 1441 959 1056 
Q 959 750 1161 570 
Q 1363 391 1709 391 
Q 2188 391 2477 730 
Q 2766 1069 2766 1631 
L 2766 1759 
L 2194 1759 
z
M 3341 1997 
L 3341 0 
L 2766 0 
L 2766 531 
Q 2569 213 2275 61 
Q 1981 -91 1556 -91 
Q 1019 -91 701 211 
Q 384 513 384 1019 
Q 384 1609 779 1909 
Q 1175 2209 1959 2209 
L 2766 2209 
L 2766 2266 
Q 2766 2663 2505 2880 
Q 2244 3097 1772 3097 
Q 1472 3097 1187 3025 
Q 903 2953 641 2809 
L 641 3341 
Q 956 3463 1253 3523 
Q 1550 3584 1831 3584 
Q 2591 3584 2966 3190 
Q 3341 2797 3341 1997 
z
" transform="scale(0.015625)"/>
       <path id="DejaVuSans-72" d="M 2631 2963 
Q 2534 3019 2420 3045 
Q 2306 3072 2169 3072 
Q 1681 3072 1420 2755 
Q 1159 2438 1159 1844 
L 1159 0 
L 581 0 
L 581 3500 
L 1159 3500 
L 1159 2956 
Q 1341 3275 1631 3429 
Q 1922 3584 2338 3584 
Q 2397 3584 2469 3576 
Q 2541 3569 2628 3553 
L 2631 2963 
z
" transform="scale(0.015625)"/>
      </defs>
      <use xlink:href="#DejaVuSans-4d"/>
      <use xlink:href="#DejaVuSans-69" transform="translate(86.279297 0)"/>
      <use xlink:href="#DejaVuSans-6e" transform="translate(114.0625 0)"/>
      <use xlink:href="#DejaVuSans-75" transform="translate(177.441406 0)"/>
      <use xlink:href="#DejaVuSans-74" transform="translate(240.820312 0)"/>
      <use xlink:href="#DejaVuSans-65" transform="translate(280.029297 0)"/>
      <use xlink:href="#DejaVuSans-73" transform="translate(341.552734 0)"/>
      <use xlink:href="#DejaVuSans-20" transform="translate(393.652344 0)"/>
      <use xlink:href="#DejaVuSans-73" transform="translate(425.439453 0)"/>
      <use xlink:href="#DejaVuSans-69" transform="translate(477.539062 0)"/>
      <use xlink:href="#DejaVuSans-6e" transform="translate(505.322266 0)"/>
      <use xlink:href="#DejaVuSans-63" transform="translate(568.701172 0)"/>
      <use xlink:href="#DejaVuSans-65" transform="translate(623.681641 0)"/>
      <use xlink:href="#DejaVuSans-20" transform="translate(685.205078 0)"/>
      <use xlink:href="#DejaVuSans-73" transform="translate(716.992188 0)"/>
      <use xlink:href="#DejaVuSans-65" transform="translate(769.091797 0)"/>
      <use xlink:href="#DejaVuSans-73" transform="translate(830.615234 0)"/>
      <use xlink:href="#DejaVuSans-73" transform="translate(882.714844 0)"/>
      <use xlink:href="#DejaVuSans-69" transform="translate(934.814453 0)"/>
      <use xlink:href="#DejaVuSans-6f" transform="translate(962.597656 0)"/>
      <use xlink:href="#DejaVuSans-6e" transform="translate(1023.779297 0)"/>
      <use xlink:href="#DejaVuSans-20" transform="translate(1087.158203 0)"/>
      <use xlink:href="#DejaVuSans-73" transform="translate(1118.945312 0)"/>
      <use xlink:href="#DejaVuSans-74" transform="translate(1171.044922 0)"/>
      <use xlink:href="#DejaVuSans-61" transform="translate(1210.253906 0)"/>
      <use xlink:href="#DejaVuSans-72" transform="translate(1271.533203 0)"/>
      <use xlink:href="#DejaVuSans-74" transform="translate(1312.646484 0)"/>
     </g>
    </g>
   </g>
   <g id="matplotlib.axis_2">
    <g id="ytick_1">
     <g id="line2d_17">
      <path d="M 42.190938 222.112358 
L 964.153437 222.112358 
" clip-path="url(#p8f51461afe)" style="fill: none; stroke: #eef2f7; stroke-opacity: 0.25; stroke-width: 0.55; stroke-linecap: square"/>
     </g>
     <g id="line2d_18">
      <defs>
       <path id="m273e5a7ab4" d="M 0 0 
L -3.5 0 
" style="stroke: #000000; stroke-width: 0.8"/>
      </defs>
      <g>
       <use xlink:href="#m273e5a7ab4" x="42.190938" y="222.112358" style="stroke: #000000; stroke-width: 0.8"/>
      </g>
     </g>
     <g id="text_10">
      <!-- 0.2 -->
      <g transform="translate(20.878125 225.531655) scale(0.09 -0.09)">
       <defs>
        <path id="DejaVuSans-2e" d="M 684 794 
L 1344 794 
L 1344 0 
L 684 0 
L 684 794 
z
" transform="scale(0.015625)"/>
       </defs>
       <use xlink:href="#DejaVuSans-30"/>
       <use xlink:href="#DejaVuSans-2e" transform="translate(63.623047 0)"/>
       <use xlink:href="#DejaVuSans-32" transform="translate(95.410156 0)"/>
      </g>
     </g>
    </g>
    <g id="ytick_2">
     <g id="line2d_19">
      <path d="M 42.190938 185.677279 
L 964.153437 185.677279 
" clip-path="url(#p8f51461afe)" style="fill: none; stroke: #eef2f7; stroke-opacity: 0.25; stroke-width: 0.55; stroke-linecap: square"/>
     </g>
     <g id="line2d_20">
      <g>
       <use xlink:href="#m273e5a7ab4" x="42.190938" y="185.677279" style="stroke: #000000; stroke-width: 0.8"/>
      </g>
     </g>
     <g id="text_11">
      <!-- 0.3 -->
      <g transform="translate(20.878125 189.096576) scale(0.09 -0.09)">
       <defs>
        <path id="DejaVuSans-33" d="M 2597 2516 
Q 3050 2419 3304 2112 
Q 3559 1806 3559 1356 
Q 3559 666 3084 287 
Q 2609 -91 1734 -91 
Q 1441 -91 1130 -33 
Q 819 25 488 141 
L 488 750 
Q 750 597 1062 519 
Q 1375 441 1716 441 
Q 2309 441 2620 675 
Q 2931 909 2931 1356 
Q 2931 1769 2642 2001 
Q 2353 2234 1838 2234 
L 1294 2234 
L 1294 2753 
L 1863 2753 
Q 2328 2753 2575 2939 
Q 2822 3125 2822 3475 
Q 2822 3834 2567 4026 
Q 2313 4219 1838 4219 
Q 1578 4219 1281 4162 
Q 984 4106 628 3988 
L 628 4550 
Q 988 4650 1302 4700 
Q 1616 4750 1894 4750 
Q 2613 4750 3031 4423 
Q 3450 4097 3450 3541 
Q 3450 3153 3228 2886 
Q 3006 2619 2597 2516 
z
" transform="scale(0.015625)"/>
       </defs>
       <use xlink:href="#DejaVuSans-30"/>
       <use xlink:href="#DejaVuSans-2e" transform="translate(63.623047 0)"/>
       <use xlink:href="#DejaVuSans-33" transform="translate(95.410156 0)"/>
      </g>
     </g>
    </g>
    <g id="ytick_3">
     <g id="line2d_21">
      <path d="M 42.190938 149.2422 
L 964.153437 149.2422 
" clip-path="url(#p8f51461afe)" style="fill: none; stroke: #eef2f7; stroke-opacity: 0.25; stroke-width: 0.55; stroke-linecap: square"/>
     </g>
     <g id="line2d_22">
      <g>
       <use xlink:href="#m273e5a7ab4" x="42.190938" y="149.2422" style="stroke: #000000; stroke-width: 0.8"/>
      </g>
     </g>
     <g id="text_12">
      <!-- 0.4 -->
      <g transform="translate(20.878125 152.661497) scale(0.09 -0.09)">
       <use xlink:href="#DejaVuSans-30"/>
       <use xlink:href="#DejaVuSans-2e" transform="translate(63.623047 0)"/>
       <use xlink:href="#DejaVuSans-34" transform="translate(95.410156 0)"/>
      </g>
     </g>
    </g>
    <g id="ytick_4">
     <g id="line2d_23">
      <path d="M 42.190938 112.807122 
L 964.153437 112.807122 
" clip-path="url(#p8f51461afe)" style="fill: none; stroke: #eef2f7; stroke-opacity: 0.25; stroke-width: 0.55; stroke-linecap: square"/>
     </g>
     <g id="line2d_24">
      <g>
       <use xlink:href="#m273e5a7ab4" x="42.190938" y="112.807122" style="stroke: #000000; stroke-width: 0.8"/>
      </g>
     </g>
     <g id="text_13">
      <!-- 0.5 -->
      <g transform="translate(20.878125 116.226418) scale(0.09 -0.09)">
       <defs>
        <path id="DejaVuSans-35" d="M 691 4666 
L 3169 4666 
L 3169 4134 
L 1269 4134 
L 1269 2991 
Q 1406 3038 1543 3061 
Q 1681 3084 1819 3084 
Q 2600 3084 3056 2656 
Q 3513 2228 3513 1497 
Q 3513 744 3044 326 
Q 2575 -91 1722 -91 
Q 1428 -91 1123 -41 
Q 819 9 494 109 
L 494 744 
Q 775 591 1075 516 
Q 1375 441 1709 441 
Q 2250 441 2565 725 
Q 2881 1009 2881 1497 
Q 2881 1984 2565 2268 
Q 2250 2553 1709 2553 
Q 1456 2553 1204 2497 
Q 953 2441 691 2322 
L 691 4666 
z
" transform="scale(0.015625)"/>
       </defs>
       <use xlink:href="#DejaVuSans-30"/>
       <use xlink:href="#DejaVuSans-2e" transform="translate(63.623047 0)"/>
       <use xlink:href="#DejaVuSans-35" transform="translate(95.410156 0)"/>
      </g>
     </g>
    </g>
    <g id="ytick_5">
     <g id="line2d_25">
      <path d="M 42.190938 76.372043 
L 964.153437 76.372043 
" clip-path="url(#p8f51461afe)" style="fill: none; stroke: #eef2f7; stroke-opacity: 0.25; stroke-width: 0.55; stroke-linecap: square"/>
     </g>
     <g id="line2d_26">
      <g>
       <use xlink:href="#m273e5a7ab4" x="42.190938" y="76.372043" style="stroke: #000000; stroke-width: 0.8"/>
      </g>
     </g>
     <g id="text_14">
      <!-- 0.6 -->
      <g transform="translate(20.878125 79.79134) scale(0.09 -0.09)">
       <use xlink:href="#DejaVuSans-30"/>
       <use xlink:href="#DejaVuSans-2e" transform="translate(63.623047 0)"/>
       <use xlink:href="#DejaVuSans-36" transform="translate(95.410156 0)"/>
      </g>
     </g>
    </g>
    <g id="ytick_6">
     <g id="line2d_27">
      <path d="M 42.190938 39.936964 
L 964.153437 39.936964 
" clip-path="url(#p8f51461afe)" style="fill: none; stroke: #eef2f7; stroke-opacity: 0.25; stroke-width: 0.55; stroke-linecap: square"/>
     </g>
     <g id="line2d_28">
      <g>
       <use xlink:href="#m273e5a7ab4" x="42.190938" y="39.936964" style="stroke: #000000; stroke-width: 0.8"/>
      </g>
     </g>
     <g id="text_15">
      <!-- 0.7 -->
      <g transform="translate(20.878125 43.356261) scale(0.09 -0.09)">
       <defs>
        <path id="DejaVuSans-37" d="M 525 4666 
L 3525 4666 
L 3525 4397 
L 1831 0 
L 1172 0 
L 2766 4134 
L 525 4134 
L 525 4666 
z
" transform="scale(0.015625)"/>
       </defs>
       <use xlink:href="#DejaVuSans-30"/>
       <use xlink:href="#DejaVuSans-2e" transform="translate(63.623047 0)"/>
       <use xlink:href="#DejaVuSans-37" transform="translate(95.410156 0)"/>
      </g>
     </g>
    </g>
    <g id="text_16">
     <!-- Raw fan signal -->
     <g transform="translate(14.798438 174.058756) rotate(-90) scale(0.1 -0.1)">
      <defs>
       <path id="DejaVuSans-52" d="M 2841 2188 
Q 3044 2119 3236 1894 
Q 3428 1669 3622 1275 
L 4263 0 
L 3584 0 
L 2988 1197 
Q 2756 1666 2539 1819 
Q 2322 1972 1947 1972 
L 1259 1972 
L 1259 0 
L 628 0 
L 628 4666 
L 2053 4666 
Q 2853 4666 3247 4331 
Q 3641 3997 3641 3322 
Q 3641 2881 3436 2590 
Q 3231 2300 2841 2188 
z
M 1259 4147 
L 1259 2491 
L 2053 2491 
Q 2509 2491 2742 2702 
Q 2975 2913 2975 3322 
Q 2975 3731 2742 3939 
Q 2509 4147 2053 4147 
L 1259 4147 
z
" transform="scale(0.015625)"/>
       <path id="DejaVuSans-77" d="M 269 3500 
L 844 3500 
L 1563 769 
L 2278 3500 
L 2956 3500 
L 3675 769 
L 4391 3500 
L 4966 3500 
L 4050 0 
L 3372 0 
L 2619 2869 
L 1863 0 
L 1184 0 
L 269 3500 
z
" transform="scale(0.015625)"/>
       <path id="DejaVuSans-66" d="M 2375 4863 
L 2375 4384 
L 1825 4384 
Q 1516 4384 1395 4259 
Q 1275 4134 1275 3809 
L 1275 3500 
L 2222 3500 
L 2222 3053 
L 1275 3053 
L 1275 0 
L 697 0 
L 697 3053 
L 147 3053 
L 147 3500 
L 697 3500 
L 697 3744 
Q 697 4328 969 4595 
Q 1241 4863 1831 4863 
L 2375 4863 
z
" transform="scale(0.015625)"/>
       <path id="DejaVuSans-67" d="M 2906 1791 
Q 2906 2416 2648 2759 
Q 2391 3103 1925 3103 
Q 1463 3103 1205 2759 
Q 947 2416 947 1791 
Q 947 1169 1205 825 
Q 1463 481 1925 481 
Q 2391 481 2648 825 
Q 2906 1169 2906 1791 
z
M 3481 434 
Q 3481 -459 3084 -895 
Q 2688 -1331 1869 -1331 
Q 1566 -1331 1297 -1286 
Q 1028 -1241 775 -1147 
L 775 -588 
Q 1028 -725 1275 -790 
Q 1522 -856 1778 -856 
Q 2344 -856 2625 -561 
Q 2906 -266 2906 331 
L 2906 616 
Q 2728 306 2450 153 
Q 2172 0 1784 0 
Q 1141 0 747 490 
Q 353 981 353 1791 
Q 353 2603 747 3093 
Q 1141 3584 1784 3584 
Q 2172 3584 2450 3431 
Q 2728 3278 2906 2969 
L 2906 3500 
L 3481 3500 
L 3481 434 
z
" transform="scale(0.015625)"/>
       <path id="DejaVuSans-6c" d="M 603 4863 
L 1178 4863 
L 1178 0 
L 603 0 
L 603 4863 
z
" transform="scale(0.015625)"/>
      </defs>
      <use xlink:href="#DejaVuSans-52"/>
      <use xlink:href="#DejaVuSans-61" transform="translate(67.232422 0)"/>
      <use xlink:href="#DejaVuSans-77" transform="translate(128.511719 0)"/>
      <use xlink:href="#DejaVuSans-20" transform="translate(210.298828 0)"/>
      <use xlink:href="#DejaVuSans-66" transform="translate(242.085938 0)"/>
      <use xlink:href="#DejaVuSans-61" transform="translate(277.291016 0)"/>
      <use xlink:href="#DejaVuSans-6e" transform="translate(338.570312 0)"/>
      <use xlink:href="#DejaVuSans-20" transform="translate(401.949219 0)"/>
      <use xlink:href="#DejaVuSans-73" transform="translate(433.736328 0)"/>
      <use xlink:href="#DejaVuSans-69" transform="translate(485.835938 0)"/>
      <use xlink:href="#DejaVuSans-67" transform="translate(513.619141 0)"/>
      <use xlink:href="#DejaVuSans-6e" transform="translate(577.095703 0)"/>
      <use xlink:href="#DejaVuSans-61" transform="translate(640.474609 0)"/>
      <use xlink:href="#DejaVuSans-6c" transform="translate(701.753906 0)"/>
     </g>
    </g>
   </g>
   <g id="line2d_29">
    <path d="M 59.920986 245.430808 
L 65.753238 245.430808 
L 65.753238 229.035023 
L 71.585491 229.035023 
L 71.585491 229.399374 
L 77.417744 229.399374 
L 77.417744 229.035023 
L 83.249996 229.035023 
L 83.249996 234.500285 
L 89.082249 234.500285 
L 89.082249 140.497782 
L 94.914502 140.497782 
L 94.914502 156.164865 
L 100.746754 156.164865 
L 100.746754 136.854274 
L 106.579007 136.854274 
L 106.579007 118.636734 
L 112.411259 118.636734 
L 112.411259 149.970902 
L 118.243512 149.970902 
L 118.243512 117.543682 
L 121.159638 117.543682 
L 121.159638 159.444022 
L 124.075765 159.444022 
L 124.075765 201.344363 
L 135.74027 201.344363 
L 135.74027 229.035023 
L 141.572523 229.035023 
L 141.572523 231.221128 
L 147.404775 231.221128 
L 147.404775 246.888212 
L 153.237028 246.888212 
L 153.237028 233.407232 
L 159.069281 233.407232 
L 159.069281 239.236845 
L 164.901533 239.236845 
L 164.901533 246.888212 
L 182.398291 246.888212 
L 182.398291 131.024661 
L 188.230544 131.024661 
L 188.230544 75.27899 
L 194.062797 75.27899 
L 194.062797 103.334001 
L 199.895049 103.334001 
L 199.895049 85.480813 
L 205.727302 85.480813 
L 205.727302 79.286849 
L 211.559555 79.286849 
L 211.559555 97.504389 
L 217.391807 97.504389 
L 217.391807 85.116462 
L 223.22406 85.116462 
L 223.22406 98.597441 
L 229.056313 98.597441 
L 229.056313 95.682635 
L 234.888565 95.682635 
L 234.888565 98.23309 
L 240.720818 98.23309 
L 240.720818 243.244704 
L 246.553071 243.244704 
L 246.553071 246.888212 
L 261.133702 246.888212 
L 261.133702 243.609054 
L 264.049829 243.609054 
L 264.049829 240.694248 
L 269.882081 240.694248 
L 269.882081 241.787301 
L 275.714334 241.787301 
L 275.714334 233.407232 
L 281.546587 233.407232 
L 281.546587 229.035023 
L 287.378839 229.035023 
L 287.378839 231.221128 
L 293.211092 231.221128 
L 293.211092 246.888212 
L 299.043345 246.888212 
L 299.043345 246.523861 
L 304.875597 246.523861 
L 304.875597 246.888212 
L 334.03686 246.888212 
L 334.03686 242.880353 
L 339.869113 242.880353 
L 339.869113 234.864636 
L 345.701366 234.864636 
L 345.701366 229.035023 
L 351.533618 229.035023 
L 351.533618 230.128075 
L 357.365871 230.128075 
L 357.365871 237.779442 
L 363.198124 237.779442 
L 363.198124 245.066458 
L 369.030376 245.066458 
L 369.030376 246.888212 
L 380.694882 246.888212 
L 380.694882 234.135934 
L 386.527134 234.135934 
L 386.527134 246.888212 
L 398.19164 246.888212 
L 398.19164 229.035023 
L 404.023892 229.035023 
L 404.023892 243.609054 
L 409.856145 243.609054 
L 409.856145 246.888212 
L 415.688398 246.888212 
L 415.688398 218.833201 
L 421.52065 218.833201 
L 421.52065 140.862132 
L 427.352903 140.862132 
L 427.352903 144.50564 
L 433.185156 144.50564 
L 433.185156 150.335253 
L 439.017408 150.335253 
L 439.017408 135.39687 
L 444.849661 135.39687 
L 444.849661 152.885708 
L 447.765787 152.885708 
L 447.765787 171.467598 
L 450.681914 171.467598 
L 450.681914 190.049489 
L 462.346419 190.049489 
L 462.346419 229.035023 
L 468.178672 229.035023 
L 468.178672 242.151651 
L 474.010924 242.151651 
L 474.010924 246.888212 
L 479.843177 246.888212 
L 479.843177 229.035023 
L 491.507682 229.035023 
L 491.507682 234.864636 
L 497.339935 234.864636 
L 497.339935 225.391515 
L 503.172188 225.391515 
L 503.172188 246.888212 
L 509.00444 246.888212 
L 509.00444 87.302566 
L 514.836693 87.302566 
L 514.836693 68.720676 
L 520.668945 68.720676 
L 520.668945 61.06931 
L 526.501198 61.06931 
L 526.501198 41.394367 
L 532.333451 41.394367 
L 532.333451 63.255414 
L 538.165703 63.255414 
L 538.165703 42.85177 
L 543.997956 42.85177 
L 543.997956 56.6971 
L 549.830209 56.6971 
L 549.830209 28.277739 
L 555.662461 28.277739 
L 555.662461 73.092886 
L 561.494714 73.092886 
L 561.494714 31.192545 
L 567.326967 31.192545 
L 567.326967 229.035023 
L 573.159219 229.035023 
L 573.159219 246.888212 
L 578.991472 246.888212 
L 578.991472 240.694248 
L 584.823725 240.694248 
L 584.823725 246.888212 
L 608.152735 246.888212 
L 608.152735 224.662814 
L 613.984988 224.662814 
L 613.984988 231.585478 
L 619.817241 231.585478 
L 619.817241 229.035023 
L 625.649493 229.035023 
L 625.649493 233.042882 
L 631.481746 233.042882 
L 631.481746 246.888212 
L 637.313999 246.888212 
L 637.313999 229.035023 
L 643.146251 229.035023 
L 643.146251 246.888212 
L 648.978504 246.888212 
L 648.978504 229.035023 
L 660.643009 229.035023 
L 660.643009 246.888212 
L 672.307515 246.888212 
L 672.307515 227.213269 
L 678.139767 227.213269 
L 678.139767 240.329897 
L 683.97202 240.329897 
L 683.97202 233.771583 
L 689.804273 233.771583 
L 689.804273 229.035023 
L 695.636525 229.035023 
L 695.636525 231.949829 
L 701.468778 231.949829 
L 701.468778 239.601196 
L 707.30103 239.601196 
L 707.30103 229.035023 
L 713.133283 229.035023 
L 713.133283 211.546185 
L 718.965536 211.546185 
L 718.965536 246.888212 
L 724.797788 246.888212 
L 724.797788 232.31418 
L 730.630041 232.31418 
L 730.630041 229.035023 
L 742.294546 229.035023 
L 742.294546 242.880353 
L 748.126799 242.880353 
L 748.126799 129.202907 
L 753.959052 129.202907 
L 753.959052 110.256666 
L 759.791304 110.256666 
L 759.791304 123.737645 
L 765.623557 123.737645 
L 765.623557 119.729787 
L 771.45581 119.729787 
L 771.45581 139.040378 
L 777.288062 139.040378 
L 777.288062 192.964295 
L 783.120315 192.964295 
L 783.120315 246.888212 
L 788.952568 246.888212 
L 788.952568 233.407232 
L 794.78482 233.407232 
L 794.78482 229.035023 
L 800.617073 229.035023 
L 800.617073 231.221128 
L 806.449326 231.221128 
L 806.449326 246.888212 
L 812.281578 246.888212 
L 812.281578 242.880353 
L 818.113831 242.880353 
L 818.113831 246.888212 
L 823.946084 246.888212 
L 823.946084 229.035023 
L 829.778336 229.035023 
L 829.778336 211.546185 
L 835.610589 211.546185 
L 835.610589 101.876598 
L 841.442842 101.876598 
L 841.442842 69.085027 
L 847.275094 69.085027 
L 847.275094 45.402226 
L 853.107347 45.402226 
L 853.107347 64.712818 
L 858.9396 64.712818 
L 858.9396 62.162362 
L 864.771852 62.162362 
L 864.771852 60.704959 
L 870.604105 60.704959 
L 870.604105 48.681383 
L 876.436358 48.681383 
L 876.436358 60.340608 
L 882.26861 60.340608 
L 882.26861 53.417943 
L 888.100863 53.417943 
L 888.100863 46.859629 
L 893.933116 46.859629 
L 893.933116 246.888212 
L 899.765368 246.888212 
L 899.765368 229.035023 
L 905.597621 229.035023 
L 905.597621 246.888212 
L 914.346 246.888212 
L 914.346 238.143793 
L 917.262126 238.143793 
L 917.262126 229.035023 
L 923.094379 229.035023 
L 923.094379 246.888212 
L 946.423389 246.888212 
L 946.423389 242.516002 
L 946.423389 242.516002 
" clip-path="url(#p8f51461afe)" style="fill: none; stroke: #111827; stroke-width: 1.6; stroke-linecap: square"/>
   </g>
   <g id="line2d_30">
    <path d="M 188.230544 75.27899 
L 194.062797 75.27899 
L 194.062797 103.334001 
L 199.895049 103.334001 
L 199.895049 85.480813 
L 205.727302 85.480813 
L 205.727302 79.286849 
L 211.559555 79.286849 
L 211.559555 97.504389 
L 217.391807 97.504389 
L 217.391807 85.116462 
L 223.22406 85.116462 
M 514.836693 68.720676 
L 520.668945 68.720676 
L 520.668945 61.06931 
L 526.501198 61.06931 
L 526.501198 41.394367 
L 532.333451 41.394367 
L 532.333451 63.255414 
L 538.165703 63.255414 
L 538.165703 42.85177 
L 543.997956 42.85177 
L 543.997956 56.6971 
L 549.830209 56.6971 
M 841.442842 69.085027 
L 847.275094 69.085027 
L 847.275094 45.402226 
L 853.107347 45.402226 
L 853.107347 64.712818 
L 858.9396 64.712818 
L 858.9396 62.162362 
L 864.771852 62.162362 
L 864.771852 60.704959 
L 870.604105 60.704959 
L 870.604105 48.681383 
L 876.436358 48.681383 
L 876.436358 48.681383 
" clip-path="url(#p8f51461afe)" style="fill: none; stroke: #2563eb; stroke-width: 1.6; stroke-linecap: square"/>
   </g>
   <g id="line2d_31">
    <path d="M 188.230544 75.27899 
L 194.062797 75.27899 
L 194.062797 103.334001 
L 199.895049 103.334001 
L 199.895049 85.480813 
L 205.727302 85.480813 
L 205.727302 79.286849 
L 211.559555 79.286849 
L 211.559555 97.504389 
L 217.391807 97.504389 
L 217.391807 85.116462 
L 223.22406 85.116462 
M 514.836693 68.720676 
L 520.668945 68.720676 
L 520.668945 61.06931 
L 526.501198 61.06931 
L 526.501198 41.394367 
L 532.333451 41.394367 
L 532.333451 63.255414 
L 538.165703 63.255414 
L 538.165703 42.85177 
L 543.997956 42.85177 
L 543.997956 56.6971 
L 549.830209 56.6971 
M 841.442842 69.085027 
L 847.275094 69.085027 
L 847.275094 45.402226 
L 853.107347 45.402226 
L 853.107347 64.712818 
L 858.9396 64.712818 
L 858.9396 62.162362 
L 864.771852 62.162362 
L 864.771852 60.704959 
L 870.604105 60.704959 
L 870.604105 48.681383 
L 876.436358 48.681383 
L 876.436358 48.681383 
" clip-path="url(#p8f51461afe)" style="fill: none; stroke: #7c3aed; stroke-width: 1.6; stroke-linecap: square"/>
   </g>
   <g id="patch_20">
    <path d="M 42.190938 257.818735 
L 42.190938 17.347215 
" style="fill: none; stroke: #cbd5e1; stroke-width: 0.8; stroke-linejoin: miter; stroke-linecap: square"/>
   </g>
   <g id="patch_21">
    <path d="M 964.153437 257.818735 
L 964.153437 17.347215 
" style="fill: none; stroke: #cbd5e1; stroke-width: 0.8; stroke-linejoin: miter; stroke-linecap: square"/>
   </g>
   <g id="patch_22">
    <path d="M 42.190937 257.818735 
L 964.153438 257.818735 
" style="fill: none; stroke: #cbd5e1; stroke-width: 0.8; stroke-linejoin: miter; stroke-linecap: square"/>
   </g>
   <g id="patch_23">
    <path d="M 42.190937 17.347215 
L 964.153438 17.347215 
" style="fill: none; stroke: #cbd5e1; stroke-width: 0.8; stroke-linejoin: miter; stroke-linecap: square"/>
   </g>
   <g id="text_17">
    <!-- ACC -->
    <g style="fill: #475569" transform="translate(42.803462 13.27875) scale(0.08 -0.08)">
     <defs>
      <path id="DejaVuSans-41" d="M 2188 4044 
L 1331 1722 
L 3047 1722 
L 2188 4044 
z
M 1831 4666 
L 2547 4666 
L 4325 0 
L 3669 0 
L 3244 1197 
L 1141 1197 
L 716 0 
L 50 0 
L 1831 4666 
z
" transform="scale(0.015625)"/>
      <path id="DejaVuSans-43" d="M 4122 4306 
L 4122 3641 
Q 3803 3938 3442 4084 
Q 3081 4231 2675 4231 
Q 1875 4231 1450 3742 
Q 1025 3253 1025 2328 
Q 1025 1406 1450 917 
Q 1875 428 2675 428 
Q 3081 428 3442 575 
Q 3803 722 4122 1019 
L 4122 359 
Q 3791 134 3420 21 
Q 3050 -91 2638 -91 
Q 1578 -91 968 557 
Q 359 1206 359 2328 
Q 359 3453 968 4101 
Q 1578 4750 2638 4750 
Q 3056 4750 3426 4639 
Q 3797 4528 4122 4306 
z
" transform="scale(0.015625)"/>
     </defs>
     <use xlink:href="#DejaVuSans-41"/>
     <use xlink:href="#DejaVuSans-43" transform="translate(66.658203 0)"/>
     <use xlink:href="#DejaVuSans-43" transform="translate(136.482422 0)"/>
    </g>
   </g>
   <g id="text_18">
    <!-- OC -->
    <g style="fill: #475569" transform="translate(71.475869 13.27875) scale(0.08 -0.08)">
     <defs>
      <path id="DejaVuSans-4f" d="M 2522 4238 
Q 1834 4238 1429 3725 
Q 1025 3213 1025 2328 
Q 1025 1447 1429 934 
Q 1834 422 2522 422 
Q 3209 422 3611 934 
Q 4013 1447 4013 2328 
Q 4013 3213 3611 3725 
Q 3209 4238 2522 4238 
z
M 2522 4750 
Q 3503 4750 4090 4092 
Q 4678 3434 4678 2328 
Q 4678 1225 4090 567 
Q 3503 -91 2522 -91 
Q 1538 -91 948 565 
Q 359 1222 359 2328 
Q 359 3434 948 4092 
Q 1538 4750 2522 4750 
z
" transform="scale(0.015625)"/>
     </defs>
     <use xlink:href="#DejaVuSans-4f"/>
     <use xlink:href="#DejaVuSans-43" transform="translate(78.710938 0)"/>
    </g>
   </g>
   <g id="text_19">
    <!-- FCS -->
    <g style="fill: #475569" transform="translate(101.862008 13.27875) scale(0.08 -0.08)">
     <defs>
      <path id="DejaVuSans-46" d="M 628 4666 
L 3309 4666 
L 3309 4134 
L 1259 4134 
L 1259 2759 
L 3109 2759 
L 3109 2228 
L 1259 2228 
L 1259 0 
L 628 0 
L 628 4666 
z
" transform="scale(0.015625)"/>
      <path id="DejaVuSans-53" d="M 3425 4513 
L 3425 3897 
Q 3066 4069 2747 4153 
Q 2428 4238 2131 4238 
Q 1616 4238 1336 4038 
Q 1056 3838 1056 3469 
Q 1056 3159 1242 3001 
Q 1428 2844 1947 2747 
L 2328 2669 
Q 3034 2534 3370 2195 
Q 3706 1856 3706 1288 
Q 3706 609 3251 259 
Q 2797 -91 1919 -91 
Q 1588 -91 1214 -16 
Q 841 59 441 206 
L 441 856 
Q 825 641 1194 531 
Q 1563 422 1919 422 
Q 2459 422 2753 634 
Q 3047 847 3047 1241 
Q 3047 1584 2836 1778 
Q 2625 1972 2144 2069 
L 1759 2144 
Q 1053 2284 737 2584 
Q 422 2884 422 3419 
Q 422 4038 858 4394 
Q 1294 4750 2059 4750 
Q 2388 4750 2728 4690 
Q 3069 4631 3425 4513 
z
" transform="scale(0.015625)"/>
     </defs>
     <use xlink:href="#DejaVuSans-46"/>
     <use xlink:href="#DejaVuSans-43" transform="translate(57.519531 0)"/>
     <use xlink:href="#DejaVuSans-53" transform="translate(127.34375 0)"/>
    </g>
   </g>
   <g id="text_20">
    <!-- SR -->
    <g style="fill: #475569" transform="translate(147.918278 13.27875) scale(0.08 -0.08)">
     <use xlink:href="#DejaVuSans-53"/>
     <use xlink:href="#DejaVuSans-52" transform="translate(63.476562 0)"/>
    </g>
   </g>
   <g id="text_21">
    <!-- FFC -->
    <g style="fill: #475569" transform="translate(204.16518 13.27875) scale(0.08 -0.08)">
     <use xlink:href="#DejaVuSans-46"/>
     <use xlink:href="#DejaVuSans-46" transform="translate(57.519531 0)"/>
     <use xlink:href="#DejaVuSans-43" transform="translate(115.039062 0)"/>
    </g>
   </g>
   <g id="text_22">
    <!-- SS -->
    <g style="fill: #475569" transform="translate(311.461352 13.27875) scale(0.08 -0.08)">
     <use xlink:href="#DejaVuSans-53"/>
     <use xlink:href="#DejaVuSans-53" transform="translate(63.476562 0)"/>
    </g>
   </g>
   <g id="text_23">
    <!-- OC -->
    <g style="fill: #475569" transform="translate(400.998144 13.27875) scale(0.08 -0.08)">
     <use xlink:href="#DejaVuSans-4f"/>
     <use xlink:href="#DejaVuSans-43" transform="translate(78.710938 0)"/>
    </g>
   </g>
   <g id="text_24">
    <!-- FCS -->
    <g style="fill: #475569" transform="translate(428.468157 13.27875) scale(0.08 -0.08)">
     <use xlink:href="#DejaVuSans-46"/>
     <use xlink:href="#DejaVuSans-43" transform="translate(57.519531 0)"/>
     <use xlink:href="#DejaVuSans-53" transform="translate(127.34375 0)"/>
    </g>
   </g>
   <g id="text_25">
    <!-- SR -->
    <g style="fill: #475569" transform="translate(474.524427 13.27875) scale(0.08 -0.08)">
     <use xlink:href="#DejaVuSans-53"/>
     <use xlink:href="#DejaVuSans-52" transform="translate(63.476562 0)"/>
    </g>
   </g>
   <g id="text_26">
    <!-- FFC -->
    <g style="fill: #475569" transform="translate(530.771328 13.27875) scale(0.08 -0.08)">
     <use xlink:href="#DejaVuSans-46"/>
     <use xlink:href="#DejaVuSans-46" transform="translate(57.519531 0)"/>
     <use xlink:href="#DejaVuSans-43" transform="translate(115.039062 0)"/>
    </g>
   </g>
   <g id="text_27">
    <!-- SS -->
    <g style="fill: #475569" transform="translate(638.067501 13.27875) scale(0.08 -0.08)">
     <use xlink:href="#DejaVuSans-53"/>
     <use xlink:href="#DejaVuSans-53" transform="translate(63.476562 0)"/>
    </g>
   </g>
   <g id="text_28">
    <!-- OC -->
    <g style="fill: #475569" transform="translate(727.604292 13.27875) scale(0.08 -0.08)">
     <use xlink:href="#DejaVuSans-4f"/>
     <use xlink:href="#DejaVuSans-43" transform="translate(78.710938 0)"/>
    </g>
   </g>
   <g id="text_29">
    <!-- FCS -->
    <g style="fill: #475569" transform="translate(757.990432 13.27875) scale(0.08 -0.08)">
     <use xlink:href="#DejaVuSans-46"/>
     <use xlink:href="#DejaVuSans-43" transform="translate(57.519531 0)"/>
     <use xlink:href="#DejaVuSans-53" transform="translate(127.34375 0)"/>
    </g>
   </g>
   <g id="text_30">
    <!-- SR -->
    <g style="fill: #475569" transform="translate(804.046702 13.27875) scale(0.08 -0.08)">
     <use xlink:href="#DejaVuSans-53"/>
     <use xlink:href="#DejaVuSans-52" transform="translate(63.476562 0)"/>
    </g>
   </g>
   <g id="text_31">
    <!-- FFC -->
    <g style="fill: #475569" transform="translate(857.377477 13.27875) scale(0.08 -0.08)">
     <use xlink:href="#DejaVuSans-46"/>
     <use xlink:href="#DejaVuSans-46" transform="translate(57.519531 0)"/>
     <use xlink:href="#DejaVuSans-43" transform="translate(115.039062 0)"/>
    </g>
   </g>
   <g id="text_32">
    <!-- SS -->
    <g style="fill: #475569" transform="translate(915.099502 13.27875) scale(0.08 -0.08)">
     <use xlink:href="#DejaVuSans-53"/>
     <use xlink:href="#DejaVuSans-53" transform="translate(63.476562 0)"/>
    </g>
   </g>
   <g id="legend_1">
    <g id="line2d_32">
     <path d="M 762.942188 27.825965 
L 770.942188 27.825965 
L 770.942188 27.825965 
L 778.942188 27.825965 
L 778.942188 27.825965 
" style="fill: none; stroke: #111827; stroke-width: 1.6; stroke-linecap: square"/>
    </g>
    <g id="text_33">
     <!-- Fan current -->
     <g transform="translate(785.342188 30.625965) scale(0.08 -0.08)">
      <use xlink:href="#DejaVuSans-46"/>
      <use xlink:href="#DejaVuSans-61" transform="translate(48.394531 0)"/>
      <use xlink:href="#DejaVuSans-6e" transform="translate(109.673828 0)"/>
      <use xlink:href="#DejaVuSans-20" transform="translate(173.052734 0)"/>
      <use xlink:href="#DejaVuSans-63" transform="translate(204.839844 0)"/>
      <use xlink:href="#DejaVuSans-75" transform="translate(259.820312 0)"/>
      <use xlink:href="#DejaVuSans-72" transform="translate(323.199219 0)"/>
      <use xlink:href="#DejaVuSans-72" transform="translate(362.5625 0)"/>
      <use xlink:href="#DejaVuSans-65" transform="translate(401.425781 0)"/>
      <use xlink:href="#DejaVuSans-6e" transform="translate(462.949219 0)"/>
      <use xlink:href="#DejaVuSans-74" transform="translate(526.328125 0)"/>
     </g>
    </g>
    <g id="line2d_33">
     <path d="M 762.942188 39.568465 
L 770.942188 39.568465 
L 770.942188 39.568465 
L 778.942188 39.568465 
L 778.942188 39.568465 
" style="fill: none; stroke: #2563eb; stroke-width: 1.6; stroke-linecap: square"/>
    </g>
    <g id="text_34">
     <!-- Fan control -->
     <g transform="translate(785.342188 42.368465) scale(0.08 -0.08)">
      <use xlink:href="#DejaVuSans-46"/>
      <use xlink:href="#DejaVuSans-61" transform="translate(48.394531 0)"/>
      <use xlink:href="#DejaVuSans-6e" transform="translate(109.673828 0)"/>
      <use xlink:href="#DejaVuSans-20" transform="translate(173.052734 0)"/>
      <use xlink:href="#DejaVuSans-63" transform="translate(204.839844 0)"/>
      <use xlink:href="#DejaVuSans-6f" transform="translate(259.820312 0)"/>
      <use xlink:href="#DejaVuSans-6e" transform="translate(321.001953 0)"/>
      <use xlink:href="#DejaVuSans-74" transform="translate(384.380859 0)"/>
      <use xlink:href="#DejaVuSans-72" transform="translate(423.589844 0)"/>
      <use xlink:href="#DejaVuSans-6f" transform="translate(462.453125 0)"/>
      <use xlink:href="#DejaVuSans-6c" transform="translate(523.634766 0)"/>
     </g>
    </g>
    <g id="line2d_34">
     <path d="M 846.583438 27.825965 
L 854.583438 27.825965 
L 854.583438 27.825965 
L 862.583438 27.825965 
L 862.583438 27.825965 
" style="fill: none; stroke: #7c3aed; stroke-width: 1.6; stroke-linecap: square"/>
    </g>
    <g id="text_35">
     <!-- Secondary fan control -->
     <g transform="translate(868.983438 30.625965) scale(0.08 -0.08)">
      <defs>
       <path id="DejaVuSans-64" d="M 2906 2969 
L 2906 4863 
L 3481 4863 
L 3481 0 
L 2906 0 
L 2906 525 
Q 2725 213 2448 61 
Q 2172 -91 1784 -91 
Q 1150 -91 751 415 
Q 353 922 353 1747 
Q 353 2572 751 3078 
Q 1150 3584 1784 3584 
Q 2172 3584 2448 3432 
Q 2725 3281 2906 2969 
z
M 947 1747 
Q 947 1113 1208 752 
Q 1469 391 1925 391 
Q 2381 391 2643 752 
Q 2906 1113 2906 1747 
Q 2906 2381 2643 2742 
Q 2381 3103 1925 3103 
Q 1469 3103 1208 2742 
Q 947 2381 947 1747 
z
" transform="scale(0.015625)"/>
       <path id="DejaVuSans-79" d="M 2059 -325 
Q 1816 -950 1584 -1140 
Q 1353 -1331 966 -1331 
L 506 -1331 
L 506 -850 
L 844 -850 
Q 1081 -850 1212 -737 
Q 1344 -625 1503 -206 
L 1606 56 
L 191 3500 
L 800 3500 
L 1894 763 
L 2988 3500 
L 3597 3500 
L 2059 -325 
z
" transform="scale(0.015625)"/>
      </defs>
      <use xlink:href="#DejaVuSans-53"/>
      <use xlink:href="#DejaVuSans-65" transform="translate(63.476562 0)"/>
      <use xlink:href="#DejaVuSans-63" transform="translate(125 0)"/>
      <use xlink:href="#DejaVuSans-6f" transform="translate(179.980469 0)"/>
      <use xlink:href="#DejaVuSans-6e" transform="translate(241.162109 0)"/>
      <use xlink:href="#DejaVuSans-64" transform="translate(304.541016 0)"/>
      <use xlink:href="#DejaVuSans-61" transform="translate(368.017578 0)"/>
      <use xlink:href="#DejaVuSans-72" transform="translate(429.296875 0)"/>
      <use xlink:href="#DejaVuSans-79" transform="translate(470.410156 0)"/>
      <use xlink:href="#DejaVuSans-20" transform="translate(529.589844 0)"/>
      <use xlink:href="#DejaVuSans-66" transform="translate(561.376953 0)"/>
      <use xlink:href="#DejaVuSans-61" transform="translate(596.582031 0)"/>
      <use xlink:href="#DejaVuSans-6e" transform="translate(657.861328 0)"/>
      <use xlink:href="#DejaVuSans-20" transform="translate(721.240234 0)"/>
      <use xlink:href="#DejaVuSans-63" transform="translate(753.027344 0)"/>
      <use xlink:href="#DejaVuSans-6f" transform="translate(808.007812 0)"/>
      <use xlink:href="#DejaVuSans-6e" transform="translate(869.189453 0)"/>
      <use xlink:href="#DejaVuSans-74" transform="translate(932.568359 0)"/>
      <use xlink:href="#DejaVuSans-72" transform="translate(971.777344 0)"/>
      <use xlink:href="#DejaVuSans-6f" transform="translate(1010.640625 0)"/>
      <use xlink:href="#DejaVuSans-6c" transform="translate(1071.822266 0)"/>
     </g>
    </g>
   </g>
  </g>
 </g>
 <defs>
  <clipPath id="p8f51461afe">
   <rect x="42.190938" y="17.347215" width="921.9625" height="240.47152"/>
  </clipPath>
 </defs>
</svg>
