<?xml version="1.0" encoding="utf-8" standalone="no"?>
<!DOCTYPE svg PUBLIC "-//W3C//DTD SVG 1.1//EN"
  "http://www.w3.org/Graphics/SVG/1.1/DTD/svg11.dtd">
<svg xmlns:xlink="http://www.w3.org/1999/xlink" width="942.542187pt" height="265.54315pt" viewBox="0 0 942.542187 265.54315" xmlns="http://www.w3.org/2000/svg" version="1.1">
 <metadata>
  <rdf:RDF xmlns:dc="http://purl.org/dc/elements/1.1/" xmlns:cc="http://creativecommons.org/ns#" xmlns:rdf="http://www.w3.org/1999/02/22-rdf-syntax-ns#">
   <cc:Work>
    <dc:type rdf:resource="http://purl.org/dc/dcmitype/StillImage"/>
    <dc:date>2026-04-17T17:38:30.759654</dc:date>
    <dc:format>image/svg+xml</dc:format>
    <dc:creator>
     <cc:Agent>
      <dc:title>Matplotlib v3.10.8, https://matplotlib.org/</dc:title>
     </cc:Agent>
    </dc:creator>
   </cc:Work>
  </rdf:RDF>
 </metadata>
 <defs>
  <style type="text/css">*{stroke-linejoin: round; stroke-linecap: butt}</style>
 </defs>
 <g id="figure_1">
  <g id="patch_1">
   <path d="M 0 265.54315 
L 942.542187 265.54315 
L 942.542187 0 
L 0 0 
z
" style="fill: #ffffff"/>
  </g>
  <g id="axes_1">
   <g id="patch_2">
    <path d="M 47.917188 228.954713 
L 935.342187 228.954713 
L 935.342187 17.061433 
L 47.917188 17.061433 
z
" style="fill: #ffffff"/>
   </g>
   <g id="patch_3">
    <path d="M 47.917188 228.954713 
L 228.291451 228.954713 
L 228.291451 17.061433 
L 47.917188 17.061433 
z
" clip-path="url(#p52e5fd5f8b)" style="fill: #f8fafc; opacity: 0.45"/>
   </g>
   <g id="patch_4">
    <path d="M 228.291451 228.954713 
L 255.347591 228.954713 
L 255.347591 17.061433 
L 228.291451 17.061433 
z
" clip-path="url(#p52e5fd5f8b)" style="fill: #eff6ff; opacity: 0.45"/>
   </g>
   <g id="patch_5">
    <path d="M 255.347591 228.954713 
L 282.403731 228.954713 
L 282.403731 17.061433 
L 255.347591 17.061433 
z
" clip-path="url(#p52e5fd5f8b)" style="fill: #fef3c7; opacity: 0.45"/>
   </g>
   <g id="patch_6">
    <path d="M 282.403731 228.954713 
L 318.478583 228.954713 
L 318.478583 17.061433 
L 282.403731 17.061433 
z
" clip-path="url(#p52e5fd5f8b)" style="fill: #dcfce7; opacity: 0.45"/>
   </g>
   <g id="patch_7">
    <path d="M 318.478583 228.954713 
L 368.081506 228.954713 
L 368.081506 17.061433 
L 318.478583 17.061433 
z
" clip-path="url(#p52e5fd5f8b)" style="fill: #fee2e2; opacity: 0.45"/>
   </g>
   <g id="patch_8">
    <path d="M 368.081506 228.954713 
L 485.324777 228.954713 
L 485.324777 17.061433 
L 368.081506 17.061433 
z
" clip-path="url(#p52e5fd5f8b)" style="fill: #ede9fe; opacity: 0.45"/>
   </g>
   <g id="patch_9">
    <path d="M 485.324777 228.954713 
L 507.87156 228.954713 
L 507.87156 17.061433 
L 485.324777 17.061433 
z
" clip-path="url(#p52e5fd5f8b)" style="fill: #f8fafc; opacity: 0.45"/>
   </g>
   <g id="patch_10">
    <path d="M 507.87156 228.954713 
L 530.418343 228.954713 
L 530.418343 17.061433 
L 507.87156 17.061433 
z
" clip-path="url(#p52e5fd5f8b)" style="fill: #eff6ff; opacity: 0.45"/>
   </g>
   <g id="patch_11">
    <path d="M 530.418343 228.954713 
L 571.002553 228.954713 
L 571.002553 17.061433 
L 530.418343 17.061433 
z
" clip-path="url(#p52e5fd5f8b)" style="fill: #fef3c7; opacity: 0.45"/>
   </g>
   <g id="patch_12">
    <path d="M 571.002553 228.954713 
L 620.605475 228.954713 
L 620.605475 17.061433 
L 571.002553 17.061433 
z
" clip-path="url(#p52e5fd5f8b)" style="fill: #dcfce7; opacity: 0.45"/>
   </g>
   <g id="patch_13">
    <path d="M 620.605475 228.954713 
L 737.848747 228.954713 
L 737.848747 17.061433 
L 620.605475 17.061433 
z
" clip-path="url(#p52e5fd5f8b)" style="fill: #fee2e2; opacity: 0.45"/>
   </g>
   <g id="patch_14">
    <path d="M 737.848747 228.954713 
L 760.39553 228.954713 
L 760.39553 17.061433 
L 737.848747 17.061433 
z
" clip-path="url(#p52e5fd5f8b)" style="fill: #ede9fe; opacity: 0.45"/>
   </g>
   <g id="patch_15">
    <path d="M 760.39553 228.954713 
L 782.942313 228.954713 
L 782.942313 17.061433 
L 760.39553 17.061433 
z
" clip-path="url(#p52e5fd5f8b)" style="fill: #f8fafc; opacity: 0.45"/>
   </g>
   <g id="patch_16">
    <path d="M 782.942313 228.954713 
L 823.526522 228.954713 
L 823.526522 17.061433 
L 782.942313 17.061433 
z
" clip-path="url(#p52e5fd5f8b)" style="fill: #eff6ff; opacity: 0.45"/>
   </g>
   <g id="patch_17">
    <path d="M 823.526522 228.954713 
L 873.129445 228.954713 
L 873.129445 17.061433 
L 823.526522 17.061433 
z
" clip-path="url(#p52e5fd5f8b)" style="fill: #fef3c7; opacity: 0.45"/>
   </g>
   <g id="patch_18">
    <path d="M 873.129445 228.954713 
L 913.713654 228.954713 
L 913.713654 17.061433 
L 873.129445 17.061433 
z
" clip-path="url(#p52e5fd5f8b)" style="fill: #dcfce7; opacity: 0.45"/>
   </g>
   <g id="patch_19">
    <path d="M 913.713654 228.954713 
L 918.223011 228.954713 
L 918.223011 17.061433 
L 913.713654 17.061433 
z
" clip-path="url(#p52e5fd5f8b)" style="fill: #fee2e2; opacity: 0.45"/>
   </g>
   <g id="matplotlib.axis_1">
    <g id="xtick_1">
     <g id="line2d_1">
      <path d="M 47.917188 228.954713 
L 47.917188 17.061433 
" clip-path="url(#p52e5fd5f8b)" style="fill: none; stroke: #eef2f7; stroke-width: 0.55; stroke-linecap: square"/>
     </g>
     <g id="line2d_2">
      <defs>
       <path id="m5d51e4f8a3" d="M 0 0 
L 0 3.5 
" style="stroke: #000000; stroke-width: 0.8"/>
      </defs>
      <g>
       <use xlink:href="#m5d51e4f8a3" x="47.917188" y="228.954713" style="stroke: #000000; stroke-width: 0.8"/>
      </g>
     </g>
     <g id="text_1">
      <!-- 0 -->
      <g transform="translate(45.054063 242.793307) scale(0.09 -0.09)">
       <defs>
        <path id="DejaVuSans-30" d="M 2034 4250 
Q 1547 4250 1301 3770 
Q 1056 3291 1056 2328 
Q 1056 1369 1301 889 
Q 1547 409 2034 409 
Q 2525 409 2770 889 
Q 3016 1369 3016 2328 
Q 3016 3291 2770 3770 
Q 2525 4250 2034 4250 
z
M 2034 4750 
Q 2819 4750 3233 4129 
Q 3647 3509 3647 2328 
Q 3647 1150 3233 529 
Q 2819 -91 2034 -91 
Q 1250 -91 836 529 
Q 422 1150 422 2328 
Q 422 3509 836 4129 
Q 1250 4750 2034 4750 
z
" transform="scale(0.015625)"/>
       </defs>
       <use xlink:href="#DejaVuSans-30"/>
      </g>
     </g>
    </g>
    <g id="xtick_2">
     <g id="line2d_3">
      <path d="M 160.651102 228.954713 
L 160.651102 17.061433 
" clip-path="url(#p52e5fd5f8b)" style="fill: none; stroke: #eef2f7; stroke-width: 0.55; stroke-linecap: square"/>
     </g>
     <g id="line2d_4">
      <g>
       <use xlink:href="#m5d51e4f8a3" x="160.651102" y="228.954713" style="stroke: #000000; stroke-width: 0.8"/>
      </g>
     </g>
     <g id="text_2">
      <!-- 25 -->
      <g transform="translate(154.924852 242.793307) scale(0.09 -0.09)">
       <defs>
        <path id="DejaVuSans-32" d="M 1228 531 
L 3431 531 
L 3431 0 
L 469 0 
L 469 531 
Q 828 903 1448 1529 
Q 2069 2156 2228 2338 
Q 2531 2678 2651 2914 
Q 2772 3150 2772 3378 
Q 2772 3750 2511 3984 
Q 2250 4219 1831 4219 
Q 1534 4219 1204 4116 
Q 875 4013 500 3803 
L 500 4441 
Q 881 4594 1212 4672 
Q 1544 4750 1819 4750 
Q 2544 4750 2975 4387 
Q 3406 4025 3406 3419 
Q 3406 3131 3298 2873 
Q 3191 2616 2906 2266 
Q 2828 2175 2409 1742 
Q 1991 1309 1228 531 
z
" transform="scale(0.015625)"/>
        <path id="DejaVuSans-35" d="M 691 4666 
L 3169 4666 
L 3169 4134 
L 1269 4134 
L 1269 2991 
Q 1406 3038 1543 3061 
Q 1681 3084 1819 3084 
Q 2600 3084 3056 2656 
Q 3513 2228 3513 1497 
Q 3513 744 3044 326 
Q 2575 -91 1722 -91 
Q 1428 -91 1123 -41 
Q 819 9 494 109 
L 494 744 
Q 775 591 1075 516 
Q 1375 441 1709 441 
Q 2250 441 2565 725 
Q 2881 1009 2881 1497 
Q 2881 1984 2565 2268 
Q 2250 2553 1709 2553 
Q 1456 2553 1204 2497 
Q 953 2441 691 2322 
L 691 4666 
z
" transform="scale(0.015625)"/>
       </defs>
       <use xlink:href="#DejaVuSans-32"/>
       <use xlink:href="#DejaVuSans-35" transform="translate(63.623047 0)"/>
      </g>
     </g>
    </g>
    <g id="xtick_3">
     <g id="line2d_5">
      <path d="M 273.385017 228.954713 
L 273.385017 17.061433 
" clip-path="url(#p52e5fd5f8b)" style="fill: none; stroke: #eef2f7; stroke-width: 0.55; stroke-linecap: square"/>
     </g>
     <g id="line2d_6">
      <g>
       <use xlink:href="#m5d51e4f8a3" x="273.385017" y="228.954713" style="stroke: #000000; stroke-width: 0.8"/>
      </g>
     </g>
     <g id="text_3">
      <!-- 50 -->
      <g transform="translate(267.658767 242.793307) scale(0.09 -0.09)">
       <use xlink:href="#DejaVuSans-35"/>
       <use xlink:href="#DejaVuSans-30" transform="translate(63.623047 0)"/>
      </g>
     </g>
    </g>
    <g id="xtick_4">
     <g id="line2d_7">
      <path d="M 386.118932 228.954713 
L 386.118932 17.061433 
" clip-path="url(#p52e5fd5f8b)" style="fill: none; stroke: #eef2f7; stroke-width: 0.55; stroke-linecap: square"/>
     </g>
     <g id="line2d_8">
      <g>
       <use xlink:href="#m5d51e4f8a3" x="386.118932" y="228.954713" style="stroke: #000000; stroke-width: 0.8"/>
      </g>
     </g>
     <g id="text_4">
      <!-- 75 -->
      <g transform="translate(380.392682 242.793307) scale(0.09 -0.09)">
       <defs>
        <path id="DejaVuSans-37" d="M 525 4666 
L 3525 4666 
L 3525 4397 
L 1831 0 
L 1172 0 
L 2766 4134 
L 525 4134 
L 525 4666 
z
" transform="scale(0.015625)"/>
       </defs>
       <use xlink:href="#DejaVuSans-37"/>
       <use xlink:href="#DejaVuSans-35" transform="translate(63.623047 0)"/>
      </g>
     </g>
    </g>
    <g id="xtick_5">
     <g id="line2d_9">
      <path d="M 498.852847 228.954713 
L 498.852847 17.061433 
" clip-path="url(#p52e5fd5f8b)" style="fill: none; stroke: #eef2f7; stroke-width: 0.55; stroke-linecap: square"/>
     </g>
     <g id="line2d_10">
      <g>
       <use xlink:href="#m5d51e4f8a3" x="498.852847" y="228.954713" style="stroke: #000000; stroke-width: 0.8"/>
      </g>
     </g>
     <g id="text_5">
      <!-- 100 -->
      <g transform="translate(490.263472 242.793307) scale(0.09 -0.09)">
       <defs>
        <path id="DejaVuSans-31" d="M 794 531 
L 1825 531 
L 1825 4091 
L 703 3866 
L 703 4441 
L 1819 4666 
L 2450 4666 
L 2450 531 
L 3481 531 
L 3481 0 
L 794 0 
L 794 531 
z
" transform="scale(0.015625)"/>
       </defs>
       <use xlink:href="#DejaVuSans-31"/>
       <use xlink:href="#DejaVuSans-30" transform="translate(63.623047 0)"/>
       <use xlink:href="#DejaVuSans-30" transform="translate(127.246094 0)"/>
      </g>
     </g>
    </g>
    <g id="xtick_6">
     <g id="line2d_11">
      <path d="M 611.586762 228.954713 
L 611.586762 17.061433 
" clip-path="url(#p52e5fd5f8b)" style="fill: none; stroke: #eef2f7; stroke-width: 0.55; stroke-linecap: square"/>
     </g>
     <g id="line2d_12">
      <g>
       <use xlink:href="#m5d51e4f8a3" x="611.586762" y="228.954713" style="stroke: #000000; stroke-width: 0.8"/>
      </g>
     </g>
     <g id="text_6">
      <!-- 125 -->
      <g transform="translate(602.997387 242.793307) scale(0.09 -0.09)">
       <use xlink:href="#DejaVuSans-31"/>
       <use xlink:href="#DejaVuSans-32" transform="translate(63.623047 0)"/>
       <use xlink:href="#DejaVuSans-35" transform="translate(127.246094 0)"/>
      </g>
     </g>
    </g>
    <g id="xtick_7">
     <g id="line2d_13">
      <path d="M 724.320677 228.954713 
L 724.320677 17.061433 
" clip-path="url(#p52e5fd5f8b)" style="fill: none; stroke: #eef2f7; stroke-width: 0.55; stroke-linecap: square"/>
     </g>
     <g id="line2d_14">
      <g>
       <use xlink:href="#m5d51e4f8a3" x="724.320677" y="228.954713" style="stroke: #000000; stroke-width: 0.8"/>
      </g>
     </g>
     <g id="text_7">
      <!-- 150 -->
      <g transform="translate(715.731302 242.793307) scale(0.09 -0.09)">
       <use xlink:href="#DejaVuSans-31"/>
       <use xlink:href="#DejaVuSans-35" transform="translate(63.623047 0)"/>
       <use xlink:href="#DejaVuSans-30" transform="translate(127.246094 0)"/>
      </g>
     </g>
    </g>
    <g id="xtick_8">
     <g id="line2d_15">
      <path d="M 837.054592 228.954713 
L 837.054592 17.061433 
" clip-path="url(#p52e5fd5f8b)" style="fill: none; stroke: #eef2f7; stroke-width: 0.55; stroke-linecap: square"/>
     </g>
     <g id="line2d_16">
      <g>
       <use xlink:href="#m5d51e4f8a3" x="837.054592" y="228.954713" style="stroke: #000000; stroke-width: 0.8"/>
      </g>
     </g>
     <g id="text_8">
      <!-- 175 -->
      <g transform="translate(828.465217 242.793307) scale(0.09 -0.09)">
       <use xlink:href="#DejaVuSans-31"/>
       <use xlink:href="#DejaVuSans-37" transform="translate(63.623047 0)"/>
       <use xlink:href="#DejaVuSans-35" transform="translate(127.246094 0)"/>
      </g>
     </g>
    </g>
    <g id="text_9">
     <!-- Minutes since session start -->
     <g transform="translate(424.039844 256.263463) scale(0.1 -0.1)">
      <defs>
       <path id="DejaVuSans-4d" d="M 628 4666 
L 1569 4666 
L 2759 1491 
L 3956 4666 
L 4897 4666 
L 4897 0 
L 4281 0 
L 4281 4097 
L 3078 897 
L 2444 897 
L 1241 4097 
L 1241 0 
L 628 0 
L 628 4666 
z
" transform="scale(0.015625)"/>
       <path id="DejaVuSans-69" d="M 603 3500 
L 1178 3500 
L 1178 0 
L 603 0 
L 603 3500 
z
M 603 4863 
L 1178 4863 
L 1178 4134 
L 603 4134 
L 603 4863 
z
" transform="scale(0.015625)"/>
       <path id="DejaVuSans-6e" d="M 3513 2113 
L 3513 0 
L 2938 0 
L 2938 2094 
Q 2938 2591 2744 2837 
Q 2550 3084 2163 3084 
Q 1697 3084 1428 2787 
Q 1159 2491 1159 1978 
L 1159 0 
L 581 0 
L 581 3500 
L 1159 3500 
L 1159 2956 
Q 1366 3272 1645 3428 
Q 1925 3584 2291 3584 
Q 2894 3584 3203 3211 
Q 3513 2838 3513 2113 
z
" transform="scale(0.015625)"/>
       <path id="DejaVuSans-75" d="M 544 1381 
L 544 3500 
L 1119 3500 
L 1119 1403 
Q 1119 906 1312 657 
Q 1506 409 1894 409 
Q 2359 409 2629 706 
Q 2900 1003 2900 1516 
L 2900 3500 
L 3475 3500 
L 3475 0 
L 2900 0 
L 2900 538 
Q 2691 219 2414 64 
Q 2138 -91 1772 -91 
Q 1169 -91 856 284 
Q 544 659 544 1381 
z
M 1991 3584 
L 1991 3584 
z
" transform="scale(0.015625)"/>
       <path id="DejaVuSans-74" d="M 1172 4494 
L 1172 3500 
L 2356 3500 
L 2356 3053 
L 1172 3053 
L 1172 1153 
Q 1172 725 1289 603 
Q 1406 481 1766 481 
L 2356 481 
L 2356 0 
L 1766 0 
Q 1100 0 847 248 
Q 594 497 594 1153 
L 594 3053 
L 172 3053 
L 172 3500 
L 594 3500 
L 594 4494 
L 1172 4494 
z
" transform="scale(0.015625)"/>
       <path id="DejaVuSans-65" d="M 3597 1894 
L 3597 1613 
L 953 1613 
Q 991 1019 1311 708 
Q 1631 397 2203 397 
Q 2534 397 2845 478 
Q 3156 559 3463 722 
L 3463 178 
Q 3153 47 2828 -22 
Q 2503 -91 2169 -91 
Q 1331 -91 842 396 
Q 353 884 353 1716 
Q 353 2575 817 3079 
Q 1281 3584 2069 3584 
Q 2775 3584 3186 3129 
Q 3597 2675 3597 1894 
z
M 3022 2063 
Q 3016 2534 2758 2815 
Q 2500 3097 2075 3097 
Q 1594 3097 1305 2825 
Q 1016 2553 972 2059 
L 3022 2063 
z
" transform="scale(0.015625)"/>
       <path id="DejaVuSans-73" d="M 2834 3397 
L 2834 2853 
Q 2591 2978 2328 3040 
Q 2066 3103 1784 3103 
Q 1356 3103 1142 2972 
Q 928 2841 928 2578 
Q 928 2378 1081 2264 
Q 1234 2150 1697 2047 
L 1894 2003 
Q 2506 1872 2764 1633 
Q 3022 1394 3022 966 
Q 3022 478 2636 193 
Q 2250 -91 1575 -91 
Q 1294 -91 989 -36 
Q 684 19 347 128 
L 347 722 
Q 666 556 975 473 
Q 1284 391 1588 391 
Q 1994 391 2212 530 
Q 2431 669 2431 922 
Q 2431 1156 2273 1281 
Q 2116 1406 1581 1522 
L 1381 1569 
Q 847 1681 609 1914 
Q 372 2147 372 2553 
Q 372 3047 722 3315 
Q 1072 3584 1716 3584 
Q 2034 3584 2315 3537 
Q 2597 3491 2834 3397 
z
" transform="scale(0.015625)"/>
       <path id="DejaVuSans-20" transform="scale(0.015625)"/>
       <path id="DejaVuSans-63" d="M 3122 3366 
L 3122 2828 
Q 2878 2963 2633 3030 
Q 2388 3097 2138 3097 
Q 1578 3097 1268 2742 
Q 959 2388 959 1747 
Q 959 1106 1268 751 
Q 1578 397 2138 397 
Q 2388 397 2633 464 
Q 2878 531 3122 666 
L 3122 134 
Q 2881 22 2623 -34 
Q 2366 -91 2075 -91 
Q 1284 -91 818 406 
Q 353 903 353 1747 
Q 353 2603 823 3093 
Q 1294 3584 2113 3584 
Q 2378 3584 2631 3529 
Q 2884 3475 3122 3366 
z
" transform="scale(0.015625)"/>
       <path id="DejaVuSans-6f" d="M 1959 3097 
Q 1497 3097 1228 2736 
Q 959 2375 959 1747 
Q 959 1119 1226 758 
Q 1494 397 1959 397 
Q 2419 397 2687 759 
Q 2956 1122 2956 1747 
Q 2956 2369 2687 2733 
Q 2419 3097 1959 3097 
z
M 1959 3584 
Q 2709 3584 3137 3096 
Q 3566 2609 3566 1747 
Q 3566 888 3137 398 
Q 2709 -91 1959 -91 
Q 1206 -91 779 398 
Q 353 888 353 1747 
Q 353 2609 779 3096 
Q 1206 3584 1959 3584 
z
" transform="scale(0.015625)"/>
       <path id="DejaVuSans-61" d="M 2194 1759 
Q 1497 1759 1228 1600 
Q 959 1441 959 1056 
Q 959 750 1161 570 
Q 1363 391 1709 391 
Q 2188 391 2477 730 
Q 2766 1069 2766 1631 
L 2766 1759 
L 2194 1759 
z
M 3341 1997 
L 3341 0 
L 2766 0 
L 2766 531 
Q 2569 213 2275 61 
Q 1981 -91 1556 -91 
Q 1019 -91 701 211 
Q 384 513 384 1019 
Q 384 1609 779 1909 
Q 1175 2209 1959 2209 
L 2766 2209 
L 2766 2266 
Q 2766 2663 2505 2880 
Q 2244 3097 1772 3097 
Q 1472 3097 1187 3025 
Q 903 2953 641 2809 
L 641 3341 
Q 956 3463 1253 3523 
Q 1550 3584 1831 3584 
Q 2591 3584 2966 3190 
Q 3341 2797 3341 1997 
z
" transform="scale(0.015625)"/>
       <path id="DejaVuSans-72" d="M 2631 2963 
Q 2534 3019 2420 3045 
Q 2306 3072 2169 3072 
Q 1681 3072 1420 2755 
Q 1159 2438 1159 1844 
L 1159 0 
L 581 0 
L 581 3500 
L 1159 3500 
L 1159 2956 
Q 1341 3275 1631 3429 
Q 1922 3584 2338 3584 
Q 2397 3584 2469 3576 
Q 2541 3569 2628 3553 
L 2631 2963 
z
" transform="scale(0.015625)"/>
      </defs>
      <use xlink:href="#DejaVuSans-4d"/>
      <use xlink:href="#DejaVuSans-69" transform="translate(86.279297 0)"/>
      <use xlink:href="#DejaVuSans-6e" transform="translate(114.0625 0)"/>
      <use xlink:href="#DejaVuSans-75" transform="translate(177.441406 0)"/>
      <use xlink:href="#DejaVuSans-74" transform="translate(240.820312 0)"/>
      <use xlink:href="#DejaVuSans-65" transform="translate(280.029297 0)"/>
      <use xlink:href="#DejaVuSans-73" transform="translate(341.552734 0)"/>
      <use xlink:href="#DejaVuSans-20" transform="translate(393.652344 0)"/>
      <use xlink:href="#DejaVuSans-73" transform="translate(425.439453 0)"/>
      <use xlink:href="#DejaVuSans-69" transform="translate(477.539062 0)"/>
      <use xlink:href="#DejaVuSans-6e" transform="translate(505.322266 0)"/>
      <use xlink:href="#DejaVuSans-63" transform="translate(568.701172 0)"/>
      <use xlink:href="#DejaVuSans-65" transform="translate(623.681641 0)"/>
      <use xlink:href="#DejaVuSans-20" transform="translate(685.205078 0)"/>
      <use xlink:href="#DejaVuSans-73" transform="translate(716.992188 0)"/>
      <use xlink:href="#DejaVuSans-65" transform="translate(769.091797 0)"/>
      <use xlink:href="#DejaVuSans-73" transform="translate(830.615234 0)"/>
      <use xlink:href="#DejaVuSans-73" transform="translate(882.714844 0)"/>
      <use xlink:href="#DejaVuSans-69" transform="translate(934.814453 0)"/>
      <use xlink:href="#DejaVuSans-6f" transform="translate(962.597656 0)"/>
      <use xlink:href="#DejaVuSans-6e" transform="translate(1023.779297 0)"/>
      <use xlink:href="#DejaVuSans-20" transform="translate(1087.158203 0)"/>
      <use xlink:href="#DejaVuSans-73" transform="translate(1118.945312 0)"/>
      <use xlink:href="#DejaVuSans-74" transform="translate(1171.044922 0)"/>
      <use xlink:href="#DejaVuSans-61" transform="translate(1210.253906 0)"/>
      <use xlink:href="#DejaVuSans-72" transform="translate(1271.533203 0)"/>
      <use xlink:href="#DejaVuSans-74" transform="translate(1312.646484 0)"/>
     </g>
    </g>
   </g>
   <g id="matplotlib.axis_2">
    <g id="ytick_1">
     <g id="line2d_17">
      <path d="M 47.917188 220.804971 
L 935.342187 220.804971 
" clip-path="url(#p52e5fd5f8b)" style="fill: none; stroke: #eef2f7; stroke-opacity: 0.25; stroke-width: 0.55; stroke-linecap: square"/>
     </g>
     <g id="line2d_18">
      <defs>
       <path id="m8a57df29ef" d="M 0 0 
L -3.5 0 
" style="stroke: #000000; stroke-width: 0.8"/>
      </defs>
      <g>
       <use xlink:href="#m8a57df29ef" x="47.917188" y="220.804971" style="stroke: #000000; stroke-width: 0.8"/>
      </g>
     </g>
     <g id="text_10">
      <!-- 31.0 -->
      <g transform="translate(20.878125 224.224268) scale(0.09 -0.09)">
       <defs>
        <path id="DejaVuSans-33" d="M 2597 2516 
Q 3050 2419 3304 2112 
Q 3559 1806 3559 1356 
Q 3559 666 3084 287 
Q 2609 -91 1734 -91 
Q 1441 -91 1130 -33 
Q 819 25 488 141 
L 488 750 
Q 750 597 1062 519 
Q 1375 441 1716 441 
Q 2309 441 2620 675 
Q 2931 909 2931 1356 
Q 2931 1769 2642 2001 
Q 2353 2234 1838 2234 
L 1294 2234 
L 1294 2753 
L 1863 2753 
Q 2328 2753 2575 2939 
Q 2822 3125 2822 3475 
Q 2822 3834 2567 4026 
Q 2313 4219 1838 4219 
Q 1578 4219 1281 4162 
Q 984 4106 628 3988 
L 628 4550 
Q 988 4650 1302 4700 
Q 1616 4750 1894 4750 
Q 2613 4750 3031 4423 
Q 3450 4097 3450 3541 
Q 3450 3153 3228 2886 
Q 3006 2619 2597 2516 
z
" transform="scale(0.015625)"/>
        <path id="DejaVuSans-2e" d="M 684 794 
L 1344 794 
L 1344 0 
L 684 0 
L 684 794 
z
" transform="scale(0.015625)"/>
       </defs>
       <use xlink:href="#DejaVuSans-33"/>
       <use xlink:href="#DejaVuSans-31" transform="translate(63.623047 0)"/>
       <use xlink:href="#DejaVuSans-2e" transform="translate(127.246094 0)"/>
       <use xlink:href="#DejaVuSans-30" transform="translate(159.033203 0)"/>
      </g>
     </g>
    </g>
    <g id="ytick_2">
     <g id="line2d_19">
      <path d="M 47.917188 197.096632 
L 935.342187 197.096632 
" clip-path="url(#p52e5fd5f8b)" style="fill: none; stroke: #eef2f7; stroke-opacity: 0.25; stroke-width: 0.55; stroke-linecap: square"/>
     </g>
     <g id="line2d_20">
      <g>
       <use xlink:href="#m8a57df29ef" x="47.917188" y="197.096632" style="stroke: #000000; stroke-width: 0.8"/>
      </g>
     </g>
     <g id="text_11">
      <!-- 31.5 -->
      <g transform="translate(20.878125 200.515929) scale(0.09 -0.09)">
       <use xlink:href="#DejaVuSans-33"/>
       <use xlink:href="#DejaVuSans-31" transform="translate(63.623047 0)"/>
       <use xlink:href="#DejaVuSans-2e" transform="translate(127.246094 0)"/>
       <use xlink:href="#DejaVuSans-35" transform="translate(159.033203 0)"/>
      </g>
     </g>
    </g>
    <g id="ytick_3">
     <g id="line2d_21">
      <path d="M 47.917188 173.388293 
L 935.342187 173.388293 
" clip-path="url(#p52e5fd5f8b)" style="fill: none; stroke: #eef2f7; stroke-opacity: 0.25; stroke-width: 0.55; stroke-linecap: square"/>
     </g>
     <g id="line2d_22">
      <g>
       <use xlink:href="#m8a57df29ef" x="47.917188" y="173.388293" style="stroke: #000000; stroke-width: 0.8"/>
      </g>
     </g>
     <g id="text_12">
      <!-- 32.0 -->
      <g transform="translate(20.878125 176.80759) scale(0.09 -0.09)">
       <use xlink:href="#DejaVuSans-33"/>
       <use xlink:href="#DejaVuSans-32" transform="translate(63.623047 0)"/>
       <use xlink:href="#DejaVuSans-2e" transform="translate(127.246094 0)"/>
       <use xlink:href="#DejaVuSans-30" transform="translate(159.033203 0)"/>
      </g>
     </g>
    </g>
    <g id="ytick_4">
     <g id="line2d_23">
      <path d="M 47.917188 149.679954 
L 935.342187 149.679954 
" clip-path="url(#p52e5fd5f8b)" style="fill: none; stroke: #eef2f7; stroke-opacity: 0.25; stroke-width: 0.55; stroke-linecap: square"/>
     </g>
     <g id="line2d_24">
      <g>
       <use xlink:href="#m8a57df29ef" x="47.917188" y="149.679954" style="stroke: #000000; stroke-width: 0.8"/>
      </g>
     </g>
     <g id="text_13">
      <!-- 32.5 -->
      <g transform="translate(20.878125 153.099251) scale(0.09 -0.09)">
       <use xlink:href="#DejaVuSans-33"/>
       <use xlink:href="#DejaVuSans-32" transform="translate(63.623047 0)"/>
       <use xlink:href="#DejaVuSans-2e" transform="translate(127.246094 0)"/>
       <use xlink:href="#DejaVuSans-35" transform="translate(159.033203 0)"/>
      </g>
     </g>
    </g>
    <g id="ytick_5">
     <g id="line2d_25">
      <path d="M 47.917188 125.971615 
L 935.342187 125.971615 
" clip-path="url(#p52e5fd5f8b)" style="fill: none; stroke: #eef2f7; stroke-opacity: 0.25; stroke-width: 0.55; stroke-linecap: square"/>
     </g>
     <g id="line2d_26">
      <g>
       <use xlink:href="#m8a57df29ef" x="47.917188" y="125.971615" style="stroke: #000000; stroke-width: 0.8"/>
      </g>
     </g>
     <g id="text_14">
      <!-- 33.0 -->
      <g transform="translate(20.878125 129.390912) scale(0.09 -0.09)">
       <use xlink:href="#DejaVuSans-33"/>
       <use xlink:href="#DejaVuSans-33" transform="translate(63.623047 0)"/>
       <use xlink:href="#DejaVuSans-2e" transform="translate(127.246094 0)"/>
       <use xlink:href="#DejaVuSans-30" transform="translate(159.033203 0)"/>
      </g>
     </g>
    </g>
    <g id="ytick_6">
     <g id="line2d_27">
      <path d="M 47.917188 102.263276 
L 935.342187 102.263276 
" clip-path="url(#p52e5fd5f8b)" style="fill: none; stroke: #eef2f7; stroke-opacity: 0.25; stroke-width: 0.55; stroke-linecap: square"/>
     </g>
     <g id="line2d_28">
      <g>
       <use xlink:href="#m8a57df29ef" x="47.917188" y="102.263276" style="stroke: #000000; stroke-width: 0.8"/>
      </g>
     </g>
     <g id="text_15">
      <!-- 33.5 -->
      <g transform="translate(20.878125 105.682573) scale(0.09 -0.09)">
       <use xlink:href="#DejaVuSans-33"/>
       <use xlink:href="#DejaVuSans-33" transform="translate(63.623047 0)"/>
       <use xlink:href="#DejaVuSans-2e" transform="translate(127.246094 0)"/>
       <use xlink:href="#DejaVuSans-35" transform="translate(159.033203 0)"/>
      </g>
     </g>
    </g>
    <g id="ytick_7">
     <g id="line2d_29">
      <path d="M 47.917188 78.554937 
L 935.342187 78.554937 
" clip-path="url(#p52e5fd5f8b)" style="fill: none; stroke: #eef2f7; stroke-opacity: 0.25; stroke-width: 0.55; stroke-linecap: square"/>
     </g>
     <g id="line2d_30">
      <g>
       <use xlink:href="#m8a57df29ef" x="47.917188" y="78.554937" style="stroke: #000000; stroke-width: 0.8"/>
      </g>
     </g>
     <g id="text_16">
      <!-- 34.0 -->
      <g transform="translate(20.878125 81.974234) scale(0.09 -0.09)">
       <defs>
        <path id="DejaVuSans-34" d="M 2419 4116 
L 825 1625 
L 2419 1625 
L 2419 4116 
z
M 2253 4666 
L 3047 4666 
L 3047 1625 
L 3713 1625 
L 3713 1100 
L 3047 1100 
L 3047 0 
L 2419 0 
L 2419 1100 
L 313 1100 
L 313 1709 
L 2253 4666 
z
" transform="scale(0.015625)"/>
       </defs>
       <use xlink:href="#DejaVuSans-33"/>
       <use xlink:href="#DejaVuSans-34" transform="translate(63.623047 0)"/>
       <use xlink:href="#DejaVuSans-2e" transform="translate(127.246094 0)"/>
       <use xlink:href="#DejaVuSans-30" transform="translate(159.033203 0)"/>
      </g>
     </g>
    </g>
    <g id="ytick_8">
     <g id="line2d_31">
      <path d="M 47.917188 54.846598 
L 935.342187 54.846598 
" clip-path="url(#p52e5fd5f8b)" style="fill: none; stroke: #eef2f7; stroke-opacity: 0.25; stroke-width: 0.55; stroke-linecap: square"/>
     </g>
     <g id="line2d_32">
      <g>
       <use xlink:href="#m8a57df29ef" x="47.917188" y="54.846598" style="stroke: #000000; stroke-width: 0.8"/>
      </g>
     </g>
     <g id="text_17">
      <!-- 34.5 -->
      <g transform="translate(20.878125 58.265895) scale(0.09 -0.09)">
       <use xlink:href="#DejaVuSans-33"/>
       <use xlink:href="#DejaVuSans-34" transform="translate(63.623047 0)"/>
       <use xlink:href="#DejaVuSans-2e" transform="translate(127.246094 0)"/>
       <use xlink:href="#DejaVuSans-35" transform="translate(159.033203 0)"/>
      </g>
     </g>
    </g>
    <g id="ytick_9">
     <g id="line2d_33">
      <path d="M 47.917188 31.138259 
L 935.342187 31.138259 
" clip-path="url(#p52e5fd5f8b)" style="fill: none; stroke: #eef2f7; stroke-opacity: 0.25; stroke-width: 0.55; stroke-linecap: square"/>
     </g>
     <g id="line2d_34">
      <g>
       <use xlink:href="#m8a57df29ef" x="47.917188" y="31.138259" style="stroke: #000000; stroke-width: 0.8"/>
      </g>
     </g>
     <g id="text_18">
      <!-- 35.0 -->
      <g transform="translate(20.878125 34.557556) scale(0.09 -0.09)">
       <use xlink:href="#DejaVuSans-33"/>
       <use xlink:href="#DejaVuSans-35" transform="translate(63.623047 0)"/>
       <use xlink:href="#DejaVuSans-2e" transform="translate(127.246094 0)"/>
       <use xlink:href="#DejaVuSans-30" transform="translate(159.033203 0)"/>
      </g>
     </g>
    </g>
    <g id="text_19">
     <!-- Temperature (C) -->
     <g transform="translate(14.798438 163.659635) rotate(-90) scale(0.1 -0.1)">
      <defs>
       <path id="DejaVuSans-54" d="M -19 4666 
L 3928 4666 
L 3928 4134 
L 2272 4134 
L 2272 0 
L 1638 0 
L 1638 4134 
L -19 4134 
L -19 4666 
z
" transform="scale(0.015625)"/>
       <path id="DejaVuSans-6d" d="M 3328 2828 
Q 3544 3216 3844 3400 
Q 4144 3584 4550 3584 
Q 5097 3584 5394 3201 
Q 5691 2819 5691 2113 
L 5691 0 
L 5113 0 
L 5113 2094 
Q 5113 2597 4934 2840 
Q 4756 3084 4391 3084 
Q 3944 3084 3684 2787 
Q 3425 2491 3425 1978 
L 3425 0 
L 2847 0 
L 2847 2094 
Q 2847 2600 2669 2842 
Q 2491 3084 2119 3084 
Q 1678 3084 1418 2786 
Q 1159 2488 1159 1978 
L 1159 0 
L 581 0 
L 581 3500 
L 1159 3500 
L 1159 2956 
Q 1356 3278 1631 3431 
Q 1906 3584 2284 3584 
Q 2666 3584 2933 3390 
Q 3200 3197 3328 2828 
z
" transform="scale(0.015625)"/>
       <path id="DejaVuSans-70" d="M 1159 525 
L 1159 -1331 
L 581 -1331 
L 581 3500 
L 1159 3500 
L 1159 2969 
Q 1341 3281 1617 3432 
Q 1894 3584 2278 3584 
Q 2916 3584 3314 3078 
Q 3713 2572 3713 1747 
Q 3713 922 3314 415 
Q 2916 -91 2278 -91 
Q 1894 -91 1617 61 
Q 1341 213 1159 525 
z
M 3116 1747 
Q 3116 2381 2855 2742 
Q 2594 3103 2138 3103 
Q 1681 3103 1420 2742 
Q 1159 2381 1159 1747 
Q 1159 1113 1420 752 
Q 1681 391 2138 391 
Q 2594 391 2855 752 
Q 3116 1113 3116 1747 
z
" transform="scale(0.015625)"/>
       <path id="DejaVuSans-28" d="M 1984 4856 
Q 1566 4138 1362 3434 
Q 1159 2731 1159 2009 
Q 1159 1288 1364 580 
Q 1569 -128 1984 -844 
L 1484 -844 
Q 1016 -109 783 600 
Q 550 1309 550 2009 
Q 550 2706 781 3412 
Q 1013 4119 1484 4856 
L 1984 4856 
z
" transform="scale(0.015625)"/>
       <path id="DejaVuSans-43" d="M 4122 4306 
L 4122 3641 
Q 3803 3938 3442 4084 
Q 3081 4231 2675 4231 
Q 1875 4231 1450 3742 
Q 1025 3253 1025 2328 
Q 1025 1406 1450 917 
Q 1875 428 2675 428 
Q 3081 428 3442 575 
Q 3803 722 4122 1019 
L 4122 359 
Q 3791 134 3420 21 
Q 3050 -91 2638 -91 
Q 1578 -91 968 557 
Q 359 1206 359 2328 
Q 359 3453 968 4101 
Q 1578 4750 2638 4750 
Q 3056 4750 3426 4639 
Q 3797 4528 4122 4306 
z
" transform="scale(0.015625)"/>
       <path id="DejaVuSans-29" d="M 513 4856 
L 1013 4856 
Q 1481 4119 1714 3412 
Q 1947 2706 1947 2009 
Q 1947 1309 1714 600 
Q 1481 -109 1013 -844 
L 513 -844 
Q 928 -128 1133 580 
Q 1338 1288 1338 2009 
Q 1338 2731 1133 3434 
Q 928 4138 513 4856 
z
" transform="scale(0.015625)"/>
      </defs>
      <use xlink:href="#DejaVuSans-54"/>
      <use xlink:href="#DejaVuSans-65" transform="translate(44.083984 0)"/>
      <use xlink:href="#DejaVuSans-6d" transform="translate(105.607422 0)"/>
      <use xlink:href="#DejaVuSans-70" transform="translate(203.019531 0)"/>
      <use xlink:href="#DejaVuSans-65" transform="translate(266.496094 0)"/>
      <use xlink:href="#DejaVuSans-72" transform="translate(328.019531 0)"/>
      <use xlink:href="#DejaVuSans-61" transform="translate(369.132812 0)"/>
      <use xlink:href="#DejaVuSans-74" transform="translate(430.412109 0)"/>
      <use xlink:href="#DejaVuSans-75" transform="translate(469.621094 0)"/>
      <use xlink:href="#DejaVuSans-72" transform="translate(533 0)"/>
      <use xlink:href="#DejaVuSans-65" transform="translate(571.863281 0)"/>
      <use xlink:href="#DejaVuSans-20" transform="translate(633.386719 0)"/>
      <use xlink:href="#DejaVuSans-28" transform="translate(665.173828 0)"/>
      <use xlink:href="#DejaVuSans-43" transform="translate(704.1875 0)"/>
      <use xlink:href="#DejaVuSans-29" transform="translate(774.011719 0)"/>
     </g>
    </g>
   </g>
   <g id="line2d_35">
    <path d="M 47.936894 219.3232 
L 48.538141 218.582314 
L 48.838765 217.841429 
L 49.139389 217.470986 
L 49.740636 217.470986 
L 50.341884 214.877887 
L 50.642507 215.618772 
L 50.943131 214.877887 
L 51.243755 213.396115 
L 51.544379 214.137001 
L 51.845003 214.137001 
L 52.44625 212.284787 
L 52.746874 211.543901 
L 53.047498 211.173459 
L 53.348121 211.173459 
L 53.949369 208.950802 
L 54.85124 208.950802 
L 55.151864 208.580359 
L 55.452488 207.839473 
L 55.753112 208.209916 
L 56.053735 208.209916 
L 56.354359 208.580359 
L 56.654983 207.839473 
L 56.955607 207.469031 
L 57.256231 208.209916 
L 57.556854 208.580359 
L 57.857478 207.469031 
L 58.158102 207.098588 
L 58.458726 207.098588 
L 58.759349 206.728145 
L 59.059973 206.728145 
L 59.360597 205.987259 
L 59.661221 205.616817 
L 59.961844 205.987259 
L 60.262468 204.875931 
L 60.863716 204.875931 
L 61.16434 205.246374 
L 61.765587 204.505488 
L 62.066211 205.246374 
L 62.366835 204.875931 
L 62.667458 204.875931 
L 62.968082 205.246374 
L 63.268706 204.875931 
L 63.56933 204.875931 
L 63.869954 204.135045 
L 64.170577 204.505488 
L 64.471201 204.505488 
L 64.771825 204.135045 
L 65.072449 204.135045 
L 65.373072 203.39416 
L 65.673696 203.023717 
L 65.97432 203.764603 
L 66.575567 201.912389 
L 66.876191 202.653274 
L 67.176815 201.912389 
L 67.477439 202.282831 
L 67.778063 201.541946 
L 68.078686 202.282831 
L 68.37931 201.541946 
L 68.679934 201.171503 
L 68.980558 200.430617 
L 69.281181 200.060175 
L 69.581805 200.060175 
L 69.882429 200.80106 
L 70.183053 199.319289 
L 70.483677 198.578403 
L 71.084924 198.578403 
L 71.385548 197.467075 
L 71.686172 197.837518 
L 71.986795 196.726189 
L 72.287419 196.726189 
L 72.888667 194.873975 
L 73.18929 194.873975 
L 73.489914 194.13309 
L 73.790538 193.762647 
L 74.091162 193.021761 
L 74.692409 192.280876 
L 75.293657 190.799105 
L 75.894904 190.799105 
L 76.496152 188.576448 
L 76.796776 188.946891 
L 77.398023 187.094677 
L 77.999271 185.612906 
L 78.299895 185.612906 
L 78.600518 184.87202 
L 78.901142 184.501577 
L 79.803013 182.27892 
L 80.103637 181.908478 
L 80.404261 181.167592 
L 80.704885 180.797149 
L 81.005509 179.685821 
L 81.306132 179.315378 
L 81.606756 178.20405 
L 81.90738 177.833607 
L 82.208004 177.092721 
L 82.508627 175.981393 
L 82.809251 175.981393 
L 83.410499 173.388293 
L 83.711123 173.388293 
L 84.011746 171.906522 
L 84.31237 171.165636 
L 84.612994 171.165636 
L 84.913618 170.424751 
L 85.214241 168.94298 
L 85.514865 168.202094 
L 85.815489 167.831651 
L 86.116113 167.831651 
L 86.416737 165.979437 
L 86.71736 165.979437 
L 87.017984 165.608994 
L 87.919855 163.386338 
L 88.220479 163.015895 
L 88.521103 163.015895 
L 89.12235 160.793238 
L 89.422974 161.163681 
L 89.723598 160.052353 
L 90.324846 159.311467 
L 90.625469 159.311467 
L 90.926093 157.829696 
L 91.226717 157.829696 
L 91.527341 157.459253 
L 91.827964 157.459253 
L 92.128588 156.718367 
L 92.429212 155.607039 
L 92.729836 155.236596 
L 93.331083 155.236596 
L 93.631707 154.125268 
L 93.932331 153.754825 
L 94.834202 151.532168 
L 95.43545 151.532168 
L 95.736073 150.050397 
L 96.036697 150.791283 
L 96.337321 149.679954 
L 96.637945 149.309511 
L 96.938569 149.309511 
L 97.239192 148.939069 
L 97.539816 148.198183 
L 97.84044 147.086855 
L 98.742311 145.975526 
L 99.042935 145.975526 
L 99.343559 145.605083 
L 99.644183 144.864198 
L 99.944806 145.605083 
L 100.24543 143.752869 
L 101.147301 142.641541 
L 101.748549 141.15977 
L 102.049173 142.271098 
L 102.65042 140.418884 
L 102.951044 140.418884 
L 103.251668 140.048441 
L 103.552292 139.307556 
L 104.153539 139.307556 
L 104.454163 138.196227 
L 104.754787 138.196227 
L 105.05541 137.825785 
L 105.356034 138.196227 
L 105.656658 137.825785 
L 105.957282 137.084899 
L 106.257906 137.084899 
L 106.558529 135.973571 
L 106.859153 135.973571 
L 107.159777 135.603128 
L 107.460401 135.973571 
L 108.061648 135.232685 
L 108.362272 134.4918 
L 108.662896 134.4918 
L 108.963519 133.750914 
L 109.264143 134.121357 
L 109.564767 133.380471 
L 109.865391 132.269143 
L 110.166015 132.269143 
L 110.466638 132.639586 
L 110.767262 132.639586 
L 111.067886 131.528257 
L 111.36851 131.528257 
L 111.669133 130.787372 
L 111.969757 131.528257 
L 113.472876 129.676043 
L 113.7735 129.676043 
L 114.074124 128.935158 
L 114.374747 129.676043 
L 114.675371 128.564715 
L 114.975995 128.935158 
L 115.276619 127.823829 
L 115.877866 128.564715 
L 116.479114 127.082944 
L 116.779738 127.082944 
L 117.080361 126.712501 
L 117.982233 126.712501 
L 118.282856 126.342058 
L 118.58348 125.23073 
L 118.884104 125.23073 
L 119.184728 125.601172 
L 119.485352 124.860287 
L 119.785975 124.860287 
L 120.086599 125.23073 
L 120.98847 124.119401 
L 121.289094 123.378516 
L 121.589718 123.378516 
L 121.890342 123.748958 
L 122.190966 123.008073 
L 122.792213 123.008073 
L 123.092837 122.267187 
L 123.393461 122.267187 
L 123.694084 121.526302 
L 123.994708 121.896744 
L 124.295332 121.526302 
L 124.595956 122.267187 
L 124.896579 121.155859 
L 125.798451 120.04453 
L 126.099075 121.526302 
L 126.399698 120.04453 
L 127.000946 120.04453 
L 127.30157 119.674088 
L 127.602193 119.674088 
L 127.902817 120.04453 
L 128.203441 118.933202 
L 128.504065 119.303645 
L 129.105312 118.562759 
L 129.405936 118.933202 
L 129.70656 118.192316 
L 130.007184 117.821874 
L 130.307807 118.192316 
L 130.608431 117.451431 
L 131.510302 117.451431 
L 132.11155 116.710545 
L 132.412174 117.451431 
L 132.712798 116.340102 
L 133.013421 115.96966 
L 133.314045 116.340102 
L 133.915293 115.599217 
L 134.215916 115.599217 
L 134.51654 115.228774 
L 135.117788 115.228774 
L 135.418412 114.487888 
L 135.719035 114.858331 
L 136.019659 114.487888 
L 136.320283 115.228774 
L 136.620907 113.747003 
L 136.92153 113.747003 
L 137.222154 114.117446 
L 137.522778 113.747003 
L 137.823402 114.117446 
L 139.025897 112.635674 
L 139.326521 113.006117 
L 139.627144 112.265232 
L 139.927768 112.265232 
L 140.228392 112.635674 
L 140.829639 111.894789 
L 141.130263 111.894789 
L 141.430887 111.153903 
L 141.731511 111.524346 
L 142.032135 111.153903 
L 142.63338 111.153903 
L 143.234627 110.413018 
L 143.535251 110.78346 
L 143.835875 109.672132 
L 144.136499 110.78346 
L 144.437122 109.301689 
L 145.03837 110.042575 
L 145.338994 108.560804 
L 145.639618 108.560804 
L 145.940241 109.672132 
L 146.240865 108.560804 
L 146.541489 108.560804 
L 146.842113 107.449475 
L 147.142736 108.190361 
L 147.44336 107.819918 
L 147.743984 107.819918 
L 148.044608 108.931247 
L 148.645855 107.079033 
L 148.946479 107.079033 
L 149.547727 107.819918 
L 149.84835 106.70859 
L 150.148974 106.70859 
L 150.449598 107.079033 
L 150.750222 106.338147 
L 151.050845 106.338147 
L 151.351469 105.597261 
L 151.652093 106.338147 
L 151.952717 105.967704 
L 152.253341 106.338147 
L 152.553964 105.597261 
L 152.854588 105.226819 
L 153.155212 105.597261 
L 153.455836 104.856376 
L 153.756459 104.856376 
L 154.057083 104.485933 
L 154.357707 104.856376 
L 154.658331 104.485933 
L 154.958955 103.745047 
L 155.259578 104.485933 
L 155.560202 104.11549 
L 156.16145 104.11549 
L 156.762697 102.633719 
L 157.063321 103.745047 
L 157.363945 103.004162 
L 157.664568 103.374605 
L 157.965192 103.374605 
L 158.265816 102.263276 
L 158.56644 101.892833 
L 158.867064 103.004162 
L 159.167687 101.522391 
L 159.468311 101.892833 
L 159.768935 102.633719 
L 161.272054 100.781505 
L 161.572678 101.892833 
L 161.873301 101.892833 
L 162.173925 101.151948 
L 162.474549 101.151948 
L 163.37642 100.040619 
L 163.677044 100.781505 
L 163.977668 100.040619 
L 164.278292 100.411062 
L 164.578915 100.040619 
L 165.180163 100.040619 
L 165.480787 99.670177 
L 165.78141 100.040619 
L 166.082034 98.929291 
L 166.382658 99.299734 
L 166.683282 98.558848 
L 167.284529 99.299734 
L 167.585153 98.929291 
L 167.885777 98.929291 
L 168.186401 98.188405 
L 168.487024 98.558848 
L 168.787648 98.188405 
L 169.388896 98.188405 
L 169.689519 97.44752 
L 169.990143 97.817963 
L 170.290767 96.706634 
L 170.892015 97.44752 
L 171.192638 97.077077 
L 171.493262 97.077077 
L 171.793886 96.336191 
L 172.09451 97.077077 
L 172.395133 97.077077 
L 172.695757 96.706634 
L 172.996381 95.965749 
L 173.297005 96.336191 
L 173.597628 96.336191 
L 174.198876 95.595306 
L 174.4995 95.965749 
L 174.800124 95.965749 
L 175.100747 95.224863 
L 175.401371 95.224863 
L 175.701995 94.85442 
L 176.002619 95.224863 
L 176.90449 95.224863 
L 177.205114 94.483977 
L 177.505738 94.483977 
L 177.806361 94.113535 
L 178.106985 94.85442 
L 178.407609 93.743092 
L 178.708233 94.85442 
L 179.008856 93.743092 
L 179.30948 93.372649 
L 179.610104 94.113535 
L 180.211351 93.372649 
L 180.511975 92.631763 
L 180.812599 92.631763 
L 181.113223 93.002206 
L 181.413847 93.002206 
L 181.71447 92.261321 
L 182.015094 93.372649 
L 182.315718 91.890878 
L 182.616342 92.261321 
L 182.916965 92.261321 
L 183.217589 91.520435 
L 183.518213 92.631763 
L 183.818837 91.149992 
L 184.119461 92.261321 
L 184.420084 91.520435 
L 184.720708 91.890878 
L 185.021332 90.779549 
L 185.321956 91.149992 
L 185.622579 92.261321 
L 186.223827 90.038664 
L 186.524451 91.149992 
L 186.825074 90.038664 
L 187.125698 90.779549 
L 187.426322 90.409107 
L 187.726946 90.409107 
L 188.02757 90.779549 
L 188.328193 90.038664 
L 188.628817 90.409107 
L 188.929441 90.038664 
L 189.230065 90.038664 
L 189.530688 89.668221 
L 189.831312 89.668221 
L 190.131936 90.038664 
L 190.43256 89.297778 
L 190.733184 89.297778 
L 191.033807 89.668221 
L 191.935679 88.556893 
L 192.236302 88.927335 
L 192.536926 88.927335 
L 192.83755 88.556893 
L 193.138174 88.927335 
L 193.438797 88.18645 
L 193.739421 87.816007 
L 194.040045 87.816007 
L 194.340669 88.18645 
L 194.641293 88.18645 
L 194.941916 87.075121 
L 195.24254 87.445564 
L 195.543164 87.445564 
L 195.843788 86.704679 
L 196.144411 86.704679 
L 196.445035 87.445564 
L 196.745659 87.445564 
L 197.046283 87.075121 
L 197.346907 87.445564 
L 197.64753 86.704679 
L 197.948154 86.704679 
L 198.248778 86.334236 
L 199.150649 86.334236 
L 199.451273 85.59335 
L 199.751897 86.334236 
L 200.052521 86.334236 
L 200.353144 85.222907 
L 200.954392 85.222907 
L 201.255016 85.59335 
L 201.555639 85.59335 
L 201.856263 85.222907 
L 202.156887 85.222907 
L 202.457511 84.482022 
L 202.758134 85.222907 
L 203.058758 84.482022 
L 203.359382 85.222907 
L 203.660006 84.852465 
L 203.96063 84.111579 
L 204.261253 84.482022 
L 204.561877 84.111579 
L 204.862501 84.111579 
L 205.163125 83.741136 
L 206.064996 83.741136 
L 206.36562 83.370693 
L 206.666244 84.111579 
L 206.966867 84.111579 
L 207.267491 83.741136 
L 207.568115 83.000251 
L 207.868739 83.741136 
L 208.169362 83.741136 
L 208.77061 83.000251 
L 209.071234 83.000251 
L 209.371857 82.629808 
L 209.672481 82.629808 
L 209.973105 83.000251 
L 210.273729 82.259365 
L 210.874976 83.000251 
L 211.1756 82.259365 
L 211.476224 81.888922 
L 211.776848 82.259365 
L 212.077471 81.51848 
L 212.378095 81.51848 
L 212.678719 81.888922 
L 213.279967 81.888922 
L 213.58059 81.148037 
L 213.881214 81.888922 
L 214.181838 81.148037 
L 214.482462 81.148037 
L 214.783085 81.51848 
L 215.384333 80.777594 
L 215.684957 81.51848 
L 215.98558 81.888922 
L 216.286204 81.888922 
L 216.586828 80.407151 
L 216.887452 80.777594 
L 217.488699 80.777594 
L 217.789323 81.148037 
L 218.691194 80.036708 
L 218.991818 80.036708 
L 219.292442 80.407151 
L 219.593066 80.036708 
L 219.89369 80.407151 
L 220.194313 80.036708 
L 220.494937 80.407151 
L 220.795561 80.036708 
L 221.096185 78.92538 
L 221.396808 78.92538 
L 221.697432 79.666266 
L 221.998056 79.295823 
L 222.29868 79.666266 
L 222.599303 79.666266 
L 222.899927 78.92538 
L 223.200551 80.036708 
L 223.501175 78.554937 
L 223.801799 78.92538 
L 224.102422 78.92538 
L 224.403046 78.554937 
L 224.70367 78.92538 
L 225.605541 78.92538 
L 225.906165 78.184494 
L 226.206789 78.554937 
L 226.507413 78.554937 
L 226.808036 78.184494 
L 227.10866 78.554937 
L 227.709908 77.814052 
L 228.010531 78.554937 
L 228.311155 78.184494 
L 228.611779 78.554937 
L 229.51365 77.443609 
L 229.814274 78.554937 
L 230.114898 77.443609 
L 230.716145 78.184494 
L 231.016769 78.184494 
L 231.317393 77.443609 
L 231.618017 78.554937 
L 231.91864 77.814052 
L 232.219264 77.814052 
L 232.519888 77.443609 
L 232.820512 78.184494 
L 233.121136 77.073166 
L 233.421759 77.073166 
L 233.722383 77.443609 
L 234.023007 76.702723 
L 234.323631 77.073166 
L 235.225502 77.073166 
L 235.526126 76.33228 
L 235.82675 76.33228 
L 236.127373 77.073166 
L 236.427997 76.702723 
L 236.728621 76.702723 
L 237.029245 75.961838 
L 237.329868 75.961838 
L 237.630492 76.33228 
L 237.931116 75.591395 
L 238.23174 76.702723 
L 238.532363 75.961838 
L 238.832987 76.33228 
L 239.133611 76.33228 
L 239.434235 74.850509 
L 239.734859 76.33228 
L 240.035482 75.591395 
L 240.336106 74.109624 
L 240.63673 74.850509 
L 241.237977 75.591395 
L 241.538601 74.109624 
L 241.839225 74.480066 
L 242.139849 75.220952 
L 242.440473 74.850509 
L 242.741096 74.850509 
L 243.342344 74.109624 
L 243.642968 74.480066 
L 244.244215 73.739181 
L 245.146086 73.739181 
L 245.44671 72.998295 
L 246.047958 73.739181 
L 246.348582 73.739181 
L 246.649205 72.998295 
L 246.949829 73.368738 
L 247.250453 72.998295 
L 247.551077 72.25741 
L 248.152324 72.998295 
L 248.452948 72.25741 
L 248.753572 72.25741 
L 249.054196 71.886967 
L 249.354819 71.886967 
L 249.655443 72.25741 
L 249.956067 71.886967 
L 250.557314 71.886967 
L 250.857938 72.25741 
L 251.158562 71.886967 
L 251.459186 71.146081 
L 251.759809 71.516524 
L 252.361057 71.516524 
L 252.661681 71.146081 
L 253.262928 71.146081 
L 253.563552 70.775638 
L 253.864176 71.146081 
L 254.1648 70.405196 
L 254.465423 70.775638 
L 254.766047 71.516524 
L 255.066671 70.405196 
L 255.667919 71.146081 
L 255.968542 70.775638 
L 256.269166 70.034753 
L 256.56979 69.66431 
L 256.870414 70.034753 
L 257.171037 70.034753 
L 257.471661 70.405196 
L 258.072909 70.405196 
L 258.373533 70.775638 
L 258.674156 69.66431 
L 258.97478 70.775638 
L 259.275404 69.66431 
L 259.576028 69.66431 
L 259.876651 70.034753 
L 260.177275 69.66431 
L 260.477899 69.66431 
L 260.778523 69.293867 
L 261.079146 70.405196 
L 261.37977 70.775638 
L 261.680394 69.66431 
L 261.981018 70.405196 
L 262.281642 69.293867 
L 262.582265 70.034753 
L 262.882889 69.66431 
L 263.183513 69.66431 
L 263.484137 70.405196 
L 263.78476 70.034753 
L 264.085384 70.034753 
L 264.386008 69.293867 
L 264.686632 69.66431 
L 264.987256 69.66431 
L 265.287879 68.923424 
L 265.588503 69.293867 
L 265.889127 70.034753 
L 266.189751 69.293867 
L 266.490374 70.405196 
L 266.790998 69.66431 
L 267.091622 69.293867 
L 267.392246 69.293867 
L 267.692869 69.66431 
L 267.993493 69.293867 
L 268.594741 69.293867 
L 268.895365 68.923424 
L 269.195988 69.293867 
L 269.797236 68.552982 
L 270.09786 69.293867 
L 270.398483 69.293867 
L 270.699107 68.923424 
L 270.999731 68.923424 
L 271.300355 69.293867 
L 271.600979 68.552982 
L 272.50285 68.552982 
L 272.803474 67.812096 
L 273.104097 68.182539 
L 273.404721 68.923424 
L 273.705345 67.441653 
L 274.005969 67.812096 
L 274.306592 67.07121 
L 274.607216 68.182539 
L 274.90784 67.441653 
L 275.208464 67.441653 
L 275.509088 66.700768 
L 275.809711 66.700768 
L 276.110335 67.07121 
L 276.711583 65.589439 
L 277.012206 66.330325 
L 277.31283 65.589439 
L 277.613454 65.959882 
L 277.91408 65.959882 
L 278.815951 64.848554 
L 279.116575 65.589439 
L 279.417199 65.959882 
L 279.717823 64.107668 
L 280.018446 65.589439 
L 280.31907 64.478111 
L 280.619694 65.589439 
L 280.920318 64.848554 
L 281.220942 64.478111 
L 281.822189 65.218996 
L 282.122813 65.218996 
L 282.423437 64.848554 
L 283.024684 64.848554 
L 283.325308 64.107668 
L 283.926555 65.589439 
L 284.227179 64.478111 
L 284.527803 65.218996 
L 284.828427 64.478111 
L 285.129051 65.218996 
L 285.429674 64.848554 
L 286.030922 64.848554 
L 286.331546 65.218996 
L 286.632169 65.218996 
L 286.932793 64.478111 
L 287.233417 64.848554 
L 287.534041 64.478111 
L 287.834665 64.848554 
L 288.135288 64.107668 
L 288.435912 64.848554 
L 288.736536 65.218996 
L 289.337783 65.218996 
L 289.638407 64.478111 
L 289.939031 64.848554 
L 290.540278 64.848554 
L 290.840902 64.478111 
L 291.141526 65.218996 
L 291.44215 64.107668 
L 291.742774 64.848554 
L 292.043397 64.478111 
L 292.344021 65.218996 
L 292.644645 64.848554 
L 292.945269 64.848554 
L 293.245892 65.959882 
L 293.546516 64.848554 
L 294.147764 64.848554 
L 294.749011 65.589439 
L 295.049635 65.218996 
L 295.350259 65.218996 
L 295.650883 64.848554 
L 295.951506 64.848554 
L 296.25213 65.218996 
L 296.552754 64.478111 
L 297.454625 64.478111 
L 297.755249 64.848554 
L 298.055873 64.848554 
L 298.65712 64.107668 
L 298.957744 64.107668 
L 299.258368 64.848554 
L 299.558992 64.107668 
L 300.160239 64.107668 
L 300.460863 63.737225 
L 300.761487 64.848554 
L 301.062111 63.737225 
L 301.362734 64.107668 
L 301.663358 64.107668 
L 301.963982 63.737225 
L 302.565229 63.737225 
L 302.865853 63.366782 
L 303.166477 63.737225 
L 303.467101 62.99634 
L 303.767725 63.366782 
L 304.068348 62.625897 
L 304.368972 62.99634 
L 304.669596 62.99634 
L 304.97022 62.625897 
L 305.270843 62.625897 
L 305.571467 62.255454 
L 305.872091 62.99634 
L 306.172715 62.255454 
L 306.473338 62.255454 
L 307.074586 61.514568 
L 307.37521 62.255454 
L 307.675834 61.514568 
L 307.976457 61.885011 
L 308.277081 61.144126 
L 308.577705 61.885011 
L 308.878329 61.514568 
L 309.7802 61.514568 
L 310.080824 61.144126 
L 310.381448 61.514568 
L 310.682071 61.514568 
L 310.982695 61.885011 
L 311.583943 61.144126 
L 311.884566 61.144126 
L 312.18519 60.773683 
L 313.688309 60.773683 
L 313.988933 61.144126 
L 314.289557 60.773683 
L 314.59018 60.032797 
L 314.890804 61.144126 
L 315.191428 60.40324 
L 315.492052 60.773683 
L 316.093299 60.032797 
L 316.393923 61.514568 
L 316.694547 60.773683 
L 316.995171 60.40324 
L 319.099537 60.40324 
L 319.400161 60.032797 
L 319.700784 60.40324 
L 320.001408 60.032797 
L 320.302032 60.032797 
L 320.602656 59.662354 
L 320.90328 60.40324 
L 321.203903 60.40324 
L 321.805151 59.662354 
L 322.105775 59.662354 
L 322.406398 60.40324 
L 322.707022 59.662354 
L 323.007646 59.662354 
L 323.30827 60.032797 
L 323.608894 59.662354 
L 323.909517 60.032797 
L 324.210141 59.291912 
L 324.510765 59.662354 
L 325.412636 59.662354 
L 325.71326 59.291912 
L 326.013884 60.032797 
L 326.314507 58.921469 
L 326.615131 59.291912 
L 328.11825 59.291912 
L 328.418874 59.662354 
L 328.719498 59.291912 
L 329.020121 58.180583 
L 329.621369 59.662354 
L 329.921993 58.551026 
L 330.222617 59.291912 
L 331.425112 59.291912 
L 331.725735 58.921469 
L 332.026359 59.291912 
L 332.326983 58.921469 
L 332.627607 59.662354 
L 332.928231 59.291912 
L 333.529478 59.291912 
L 334.130726 60.032797 
L 334.431349 60.032797 
L 334.731973 59.291912 
L 335.032597 60.40324 
L 335.333221 59.662354 
L 335.633844 60.40324 
L 335.934468 59.662354 
L 336.235092 59.662354 
L 336.535716 60.773683 
L 336.83634 60.40324 
L 337.136963 59.662354 
L 337.437587 60.773683 
L 337.738211 60.40324 
L 338.038835 61.144126 
L 338.339458 61.144126 
L 338.640082 60.40324 
L 338.940706 60.773683 
L 339.24133 60.773683 
L 339.541954 61.514568 
L 339.842577 61.885011 
L 340.143201 61.144126 
L 340.443825 61.144126 
L 340.744449 61.885011 
L 341.045072 61.514568 
L 341.345696 61.885011 
L 341.64632 61.885011 
L 341.946944 62.255454 
L 342.247567 62.255454 
L 342.548191 62.99634 
L 343.149439 62.255454 
L 343.750686 62.99634 
L 344.05131 62.99634 
L 344.351934 61.514568 
L 344.652558 63.366782 
L 345.253805 63.366782 
L 345.554429 62.99634 
L 345.855053 63.737225 
L 346.155677 62.99634 
L 346.4563 63.366782 
L 346.756924 63.366782 
L 347.358172 64.107668 
L 347.658795 64.107668 
L 347.959419 63.366782 
L 348.260043 63.737225 
L 348.560667 64.848554 
L 348.86129 64.107668 
L 349.161914 64.478111 
L 349.462538 64.107668 
L 349.763162 64.107668 
L 350.063786 64.478111 
L 350.665033 64.478111 
L 350.965657 64.848554 
L 351.266281 64.478111 
L 351.566904 64.478111 
L 351.867528 65.218996 
L 352.168152 65.589439 
L 352.468776 65.589439 
L 352.7694 64.848554 
L 353.070023 64.848554 
L 353.370647 65.218996 
L 353.671271 66.330325 
L 353.971895 65.959882 
L 354.272518 65.959882 
L 354.873766 66.700768 
L 355.17439 66.700768 
L 355.475013 65.959882 
L 356.076261 65.959882 
L 356.376885 66.700768 
L 356.677509 66.330325 
L 356.978132 66.700768 
L 357.278756 66.700768 
L 357.57938 66.330325 
L 357.880004 67.07121 
L 358.180627 67.441653 
L 358.481251 66.330325 
L 358.781875 67.441653 
L 359.082499 67.07121 
L 359.683746 67.812096 
L 359.98437 66.700768 
L 360.284994 67.812096 
L 360.585618 67.07121 
L 360.886241 67.812096 
L 361.186865 67.07121 
L 361.487489 67.441653 
L 361.788113 68.182539 
L 362.088737 67.441653 
L 362.689984 68.182539 
L 362.990608 67.812096 
L 363.591855 68.552982 
L 363.892479 68.182539 
L 364.193103 68.552982 
L 364.79435 68.552982 
L 365.094974 68.923424 
L 365.395598 68.182539 
L 365.696222 69.293867 
L 366.297469 68.552982 
L 366.598093 68.923424 
L 367.199341 68.923424 
L 367.499964 69.66431 
L 367.800588 69.66431 
L 368.101212 68.923424 
L 368.70246 69.66431 
L 369.003083 69.293867 
L 369.303707 70.034753 
L 369.604331 69.66431 
L 370.205578 69.66431 
L 370.506202 69.293867 
L 370.806826 70.405196 
L 371.10745 69.66431 
L 371.408073 69.66431 
L 371.708697 69.293867 
L 372.309945 70.034753 
L 372.610569 69.293867 
L 372.911192 69.293867 
L 373.211816 69.66431 
L 373.51244 69.66431 
L 373.813064 70.034753 
L 374.113687 69.293867 
L 374.414311 69.66431 
L 375.015559 69.66431 
L 375.316183 70.034753 
L 375.616806 68.923424 
L 375.91743 69.293867 
L 377.119925 69.293867 
L 377.420549 68.923424 
L 377.721173 68.182539 
L 378.021796 68.552982 
L 378.32242 68.552982 
L 378.623044 68.182539 
L 378.923668 68.552982 
L 379.825539 68.552982 
L 380.126163 67.812096 
L 380.426787 68.923424 
L 380.72741 67.812096 
L 381.028034 67.812096 
L 381.328658 67.441653 
L 381.929906 67.441653 
L 382.230529 68.182539 
L 382.831777 67.441653 
L 383.132401 67.812096 
L 383.733648 67.07121 
L 384.034272 67.441653 
L 384.334896 67.441653 
L 384.635519 66.700768 
L 384.936143 67.07121 
L 385.537391 66.330325 
L 385.838015 66.700768 
L 386.138638 66.700768 
L 386.439262 67.07121 
L 386.739886 66.330325 
L 387.942381 66.330325 
L 388.844252 65.218996 
L 389.4455 65.959882 
L 389.746124 65.218996 
L 390.347371 65.218996 
L 390.647995 64.848554 
L 390.948619 65.589439 
L 392.151114 64.107668 
L 392.451738 64.848554 
L 392.752361 63.737225 
L 393.052985 64.107668 
L 393.954856 64.107668 
L 394.25548 63.737225 
L 394.556104 63.737225 
L 394.856728 63.366782 
L 395.457975 63.366782 
L 395.758599 62.625897 
L 396.059223 62.625897 
L 396.359847 62.99634 
L 396.66047 61.885011 
L 396.961094 62.99634 
L 397.562342 62.255454 
L 397.862966 62.255454 
L 398.163589 61.885011 
L 398.464213 62.255454 
L 398.764837 61.885011 
L 399.065461 62.625897 
L 399.366084 61.144126 
L 399.967332 61.885011 
L 400.267956 61.514568 
L 400.568579 61.514568 
L 400.869203 60.773683 
L 401.169827 61.514568 
L 401.470451 61.144126 
L 401.771075 61.144126 
L 402.071698 60.40324 
L 402.372322 60.773683 
L 402.672946 60.40324 
L 402.97357 60.773683 
L 403.274193 59.662354 
L 403.574817 60.40324 
L 403.875441 59.662354 
L 404.176065 59.291912 
L 404.476689 60.40324 
L 404.777312 59.662354 
L 405.077936 60.40324 
L 405.37856 59.662354 
L 405.979807 59.662354 
L 406.280431 58.921469 
L 406.581055 58.921469 
L 406.881679 60.032797 
L 407.182302 58.921469 
L 407.482926 58.551026 
L 407.78355 58.551026 
L 408.084174 59.291912 
L 408.384798 58.551026 
L 408.685421 58.551026 
L 408.986045 58.180583 
L 409.286669 58.551026 
L 409.587293 57.81014 
L 409.887916 58.180583 
L 410.18854 57.81014 
L 410.489164 58.551026 
L 410.789788 57.81014 
L 411.090412 58.180583 
L 411.391035 57.81014 
L 411.691659 57.81014 
L 411.992283 56.698812 
L 412.292907 57.439698 
L 412.894154 57.439698 
L 413.194778 56.328369 
L 413.495402 56.698812 
L 413.796028 56.698812 
L 414.096652 57.439698 
L 414.397275 57.069255 
L 414.697899 56.328369 
L 414.998523 56.328369 
L 415.299147 56.698812 
L 415.900394 56.698812 
L 416.201018 55.957927 
L 416.501642 55.587484 
L 416.802266 55.587484 
L 417.102889 55.957927 
L 417.403513 55.957927 
L 417.704137 55.217041 
L 418.004761 55.957927 
L 418.906632 55.957927 
L 419.207256 55.217041 
L 419.808503 55.217041 
L 420.109127 54.846598 
L 420.409751 54.846598 
L 420.710375 55.217041 
L 421.311622 54.476155 
L 421.612246 53.73527 
L 421.91287 54.476155 
L 422.514117 54.476155 
L 422.814741 53.73527 
L 423.415989 54.476155 
L 423.716612 54.105713 
L 424.017236 54.105713 
L 424.31786 53.364827 
L 424.618484 54.105713 
L 424.919107 54.105713 
L 425.520355 53.364827 
L 426.422226 53.364827 
L 426.72285 53.73527 
L 427.023474 53.364827 
L 428.526593 53.364827 
L 428.827216 53.73527 
L 429.12784 52.253499 
L 429.428464 53.364827 
L 429.729088 52.623941 
L 430.029712 52.994384 
L 430.330335 52.623941 
L 430.630959 52.994384 
L 430.931583 52.623941 
L 431.232207 52.623941 
L 431.833454 51.883056 
L 432.134078 51.883056 
L 432.735326 52.623941 
L 433.035949 52.623941 
L 433.336573 51.883056 
L 433.637197 52.253499 
L 434.238444 52.253499 
L 434.539068 51.512613 
L 434.839692 51.512613 
L 435.140316 51.883056 
L 435.440939 51.512613 
L 435.741563 52.253499 
L 436.042187 51.512613 
L 436.342811 51.512613 
L 436.643435 51.14217 
L 436.944058 51.883056 
L 437.244682 51.512613 
L 438.146553 51.512613 
L 438.447177 50.771727 
L 438.747801 51.14217 
L 439.349049 50.401285 
L 439.649672 50.401285 
L 439.950296 49.660399 
L 440.25092 50.771727 
L 440.551544 50.771727 
L 440.852167 50.030842 
L 441.152791 50.401285 
L 441.453415 50.030842 
L 441.754039 50.401285 
L 442.054662 49.660399 
L 442.355286 50.030842 
L 442.65591 50.771727 
L 442.956534 49.660399 
L 443.257158 50.030842 
L 443.557781 49.660399 
L 443.858405 50.030842 
L 444.159029 49.660399 
L 444.760276 49.660399 
L 445.0609 48.919513 
L 445.361524 48.919513 
L 445.962772 49.660399 
L 446.263395 49.289956 
L 446.564019 49.660399 
L 447.165267 48.919513 
L 447.766514 48.919513 
L 448.367762 48.178628 
L 448.668386 48.919513 
L 448.969009 48.549071 
L 449.269633 49.660399 
L 449.570257 48.549071 
L 449.870881 48.549071 
L 450.171504 48.178628 
L 450.472128 48.549071 
L 450.772752 48.178628 
L 451.073376 48.178628 
L 451.373999 48.549071 
L 451.674623 47.808185 
L 451.975247 47.808185 
L 452.275871 49.289956 
L 452.576495 48.178628 
L 452.877118 48.178628 
L 453.177742 47.808185 
L 454.380237 47.808185 
L 454.680861 48.178628 
L 455.282109 47.437742 
L 455.582732 47.808185 
L 455.883356 47.808185 
L 456.18398 48.178628 
L 456.484604 48.178628 
L 456.785227 47.808185 
L 457.085851 47.808185 
L 457.386475 47.067299 
L 457.687099 47.808185 
L 457.987722 47.437742 
L 458.58897 47.437742 
L 458.889594 47.067299 
L 459.190218 47.437742 
L 459.490841 46.696857 
L 459.791465 46.696857 
L 460.092089 47.067299 
L 460.392713 47.067299 
L 460.693336 46.696857 
L 461.595208 46.696857 
L 461.895832 46.326414 
L 462.196455 46.326414 
L 462.497079 47.067299 
L 462.797703 45.955971 
L 463.098327 47.067299 
L 463.39895 46.326414 
L 463.699574 46.326414 
L 464.000198 47.067299 
L 464.300822 46.326414 
L 464.902069 46.326414 
L 465.202693 45.955971 
L 465.503317 45.955971 
L 465.803941 45.585528 
L 466.104564 46.696857 
L 466.405188 46.696857 
L 467.006436 45.955971 
L 467.307059 46.326414 
L 467.908307 45.585528 
L 468.208931 45.955971 
L 468.509555 45.955971 
L 468.810178 46.326414 
L 469.110802 45.215085 
L 469.411426 45.955971 
L 469.71205 45.215085 
L 470.012673 45.955971 
L 470.313297 45.585528 
L 470.613921 45.955971 
L 471.215168 45.955971 
L 471.515792 45.585528 
L 471.816416 45.955971 
L 472.11704 45.585528 
L 472.718287 45.585528 
L 473.018911 45.215085 
L 473.319535 45.955971 
L 473.620159 45.585528 
L 473.920782 45.955971 
L 474.221406 45.585528 
L 474.52203 45.955971 
L 474.822654 44.844643 
L 475.123278 44.844643 
L 475.724525 45.585528 
L 476.025149 44.844643 
L 476.325773 45.215085 
L 476.626396 45.955971 
L 476.92702 45.955971 
L 477.227644 45.215085 
L 477.528268 45.585528 
L 477.828892 45.585528 
L 478.430139 44.844643 
L 478.730763 45.585528 
L 479.031387 45.215085 
L 479.33201 45.585528 
L 479.632634 44.4742 
L 479.933258 45.585528 
L 480.233882 44.4742 
L 480.534505 45.215085 
L 480.835129 45.215085 
L 481.135753 44.844643 
L 481.436377 45.215085 
L 481.737001 45.215085 
L 482.037624 44.844643 
L 482.338248 45.585528 
L 482.638872 45.585528 
L 482.939496 45.215085 
L 483.240119 45.585528 
L 483.540743 45.215085 
L 483.841367 45.215085 
L 484.141991 45.585528 
L 484.442615 44.103757 
L 484.743238 45.215085 
L 485.043862 45.215085 
L 485.344486 44.844643 
L 485.64511 45.215085 
L 485.945733 45.215085 
L 486.246357 44.103757 
L 486.847605 44.844643 
L 487.749476 44.844643 
L 488.0501 44.4742 
L 488.651347 45.215085 
L 488.951971 44.844643 
L 489.553219 44.844643 
L 490.154466 44.103757 
L 490.45509 44.4742 
L 490.755714 44.4742 
L 491.056338 44.844643 
L 491.356961 44.4742 
L 491.657585 44.4742 
L 491.958209 44.103757 
L 492.258833 44.844643 
L 492.559456 44.103757 
L 492.86008 44.103757 
L 493.160704 44.844643 
L 493.461328 44.844643 
L 493.761951 44.103757 
L 494.062575 44.844643 
L 494.363199 44.4742 
L 494.663823 43.362871 
L 494.964447 44.103757 
L 496.166942 44.103757 
L 496.467565 43.362871 
L 496.768189 43.733314 
L 497.068813 44.844643 
L 497.369437 43.362871 
L 497.670061 43.733314 
L 497.970684 43.362871 
L 498.271308 43.362871 
L 498.571932 42.992429 
L 498.872556 43.362871 
L 499.173179 43.362871 
L 499.774427 44.103757 
L 500.075051 43.362871 
L 500.375674 43.362871 
L 500.676298 44.103757 
L 500.976922 43.362871 
L 501.277546 42.992429 
L 501.57817 44.103757 
L 501.878793 43.362871 
L 502.179417 42.992429 
L 502.480041 42.251543 
L 502.780665 43.733314 
L 503.081288 42.251543 
L 503.381912 42.251543 
L 503.682536 42.621986 
L 504.584407 42.621986 
L 504.885031 43.362871 
L 505.185655 42.621986 
L 505.486279 42.621986 
L 505.786902 42.251543 
L 506.087526 42.621986 
L 506.989397 42.621986 
L 507.590645 41.8811 
L 507.891269 42.621986 
L 508.191893 42.992429 
L 508.492516 41.8811 
L 508.79314 42.251543 
L 509.093764 41.8811 
L 509.394388 42.621986 
L 509.995635 41.8811 
L 510.296259 42.251543 
L 510.596883 42.251543 
L 510.897507 41.8811 
L 511.19813 41.8811 
L 511.498754 42.621986 
L 511.799378 41.8811 
L 512.100002 41.510657 
L 512.400625 42.621986 
L 512.701249 41.8811 
L 513.001873 42.251543 
L 513.302497 42.992429 
L 513.603121 41.8811 
L 514.204368 42.621986 
L 514.805616 42.621986 
L 515.106239 42.251543 
L 515.707487 42.251543 
L 516.008111 41.8811 
L 516.308734 41.8811 
L 516.609358 42.621986 
L 516.909982 42.621986 
L 517.210606 42.992429 
L 518.112477 42.992429 
L 518.413101 42.621986 
L 518.713725 42.621986 
L 519.014348 42.251543 
L 519.314972 42.621986 
L 519.615596 43.362871 
L 520.216844 43.362871 
L 520.517467 42.251543 
L 520.818091 43.362871 
L 521.118715 43.362871 
L 521.419339 43.733314 
L 522.020586 42.992429 
L 522.32121 42.992429 
L 522.621834 43.733314 
L 522.922457 43.362871 
L 523.223081 43.733314 
L 523.523705 43.362871 
L 523.824329 43.362871 
L 524.124953 43.733314 
L 524.7262 43.733314 
L 525.026824 44.103757 
L 525.628071 44.103757 
L 526.229319 43.362871 
L 526.529943 44.103757 
L 526.830567 43.733314 
L 527.431814 44.4742 
L 527.732438 43.733314 
L 528.033062 44.103757 
L 528.333685 44.103757 
L 528.634309 44.4742 
L 528.934933 44.103757 
L 529.235557 44.844643 
L 529.53618 44.844643 
L 529.836804 44.4742 
L 530.137428 44.4742 
L 530.438052 44.844643 
L 530.738676 44.4742 
L 531.039299 44.844643 
L 531.339923 44.844643 
L 531.640547 45.215085 
L 531.941171 44.844643 
L 532.241794 45.215085 
L 532.542418 45.215085 
L 532.843042 44.844643 
L 533.143666 45.585528 
L 533.744913 44.844643 
L 534.045537 45.215085 
L 534.346161 44.844643 
L 534.646785 45.955971 
L 534.947408 44.844643 
L 535.548656 45.585528 
L 535.84928 45.585528 
L 536.149903 45.955971 
L 536.450527 44.844643 
L 536.751151 44.844643 
L 537.051775 45.585528 
L 537.352399 44.844643 
L 537.653022 45.955971 
L 537.953646 45.215085 
L 538.25427 45.585528 
L 538.554894 45.215085 
L 538.855517 44.4742 
L 539.156141 45.215085 
L 539.456765 45.585528 
L 539.757389 44.844643 
L 540.358636 44.844643 
L 540.65926 45.215085 
L 540.959884 44.103757 
L 541.260508 45.215085 
L 541.561131 44.4742 
L 542.463003 44.4742 
L 542.763627 44.103757 
L 543.364874 44.103757 
L 543.665498 44.4742 
L 543.966122 44.103757 
L 544.266745 44.103757 
L 544.567369 43.362871 
L 544.867993 43.733314 
L 545.168617 44.4742 
L 545.46924 43.362871 
L 546.070488 43.362871 
L 546.371112 44.103757 
L 546.671736 44.4742 
L 546.972359 42.992429 
L 547.272983 43.362871 
L 547.573607 42.992429 
L 547.874231 42.992429 
L 548.174854 43.733314 
L 549.076726 43.733314 
L 549.37735 43.362871 
L 550.579845 43.362871 
L 550.880468 42.621986 
L 551.181092 42.992429 
L 551.78234 42.992429 
L 552.383587 43.733314 
L 552.684211 42.992429 
L 552.984835 43.362871 
L 553.586082 42.621986 
L 553.886706 42.992429 
L 554.18733 42.992429 
L 554.487954 42.251543 
L 554.788577 42.621986 
L 555.389825 41.8811 
L 555.690449 42.251543 
L 555.991073 42.251543 
L 556.291696 41.8811 
L 556.59232 41.8811 
L 556.892944 42.621986 
L 557.193568 41.8811 
L 557.494191 42.251543 
L 557.794815 42.251543 
L 558.095439 41.510657 
L 558.396063 41.8811 
L 558.696686 42.621986 
L 558.99731 40.399329 
L 559.297934 42.251543 
L 559.598558 40.769772 
L 559.899182 41.510657 
L 560.199805 41.8811 
L 560.500429 41.510657 
L 560.801053 40.769772 
L 561.101677 41.510657 
L 561.4023 40.769772 
L 561.702924 41.510657 
L 562.003548 40.399329 
L 562.304172 40.769772 
L 562.604796 40.769772 
L 562.905419 40.399329 
L 563.206043 41.8811 
L 563.506667 40.399329 
L 563.807291 41.140215 
L 564.408538 41.140215 
L 565.009786 40.399329 
L 565.310409 40.399329 
L 565.611033 40.769772 
L 565.911657 40.028886 
L 566.212281 40.769772 
L 566.813528 40.028886 
L 567.114152 40.769772 
L 567.414776 40.769772 
L 567.7154 40.399329 
L 568.016023 40.399329 
L 568.316647 39.658443 
L 568.917895 39.658443 
L 569.218519 40.399329 
L 569.519142 39.288001 
L 569.819766 39.288001 
L 570.12039 40.399329 
L 570.421014 39.658443 
L 570.721637 40.028886 
L 571.022261 39.658443 
L 571.322885 40.399329 
L 571.924133 39.658443 
L 572.224756 40.028886 
L 572.52538 39.288001 
L 573.427251 39.288001 
L 573.727875 38.917558 
L 574.028499 39.288001 
L 574.329123 39.288001 
L 574.629746 39.658443 
L 574.93037 38.917558 
L 575.531618 39.658443 
L 575.832242 38.917558 
L 576.132865 39.658443 
L 576.433489 38.917558 
L 577.034737 38.917558 
L 577.33536 39.658443 
L 577.635984 38.547115 
L 577.936608 38.917558 
L 578.237232 38.917558 
L 578.537856 39.288001 
L 578.838479 39.288001 
L 579.139103 38.917558 
L 579.439727 39.288001 
L 579.740351 38.917558 
L 580.040974 39.288001 
L 580.341598 38.917558 
L 581.243469 38.917558 
L 581.544093 39.658443 
L 582.145341 38.917558 
L 582.445965 39.658443 
L 582.746588 38.917558 
L 583.047212 39.658443 
L 583.347836 39.658443 
L 583.64846 38.547115 
L 584.249707 40.028886 
L 584.550331 39.658443 
L 585.752826 39.658443 
L 586.05345 40.399329 
L 586.354074 40.769772 
L 586.654697 40.399329 
L 587.255945 40.399329 
L 587.556569 40.028886 
L 587.857192 40.399329 
L 588.45844 40.399329 
L 588.759064 41.140215 
L 589.059688 40.399329 
L 589.660935 40.399329 
L 589.961559 41.140215 
L 590.262183 40.769772 
L 590.562806 41.510657 
L 590.86343 41.8811 
L 591.164054 40.769772 
L 591.464678 40.769772 
L 591.765302 41.510657 
L 592.065925 41.8811 
L 592.366549 41.8811 
L 592.667173 41.510657 
L 592.967797 42.251543 
L 593.26842 42.621986 
L 593.569044 42.621986 
L 593.869668 42.251543 
L 594.170292 42.992429 
L 594.771539 42.251543 
L 595.072163 42.992429 
L 595.372787 43.362871 
L 595.673411 42.992429 
L 595.974034 43.362871 
L 596.274658 44.103757 
L 596.575282 43.362871 
L 596.875906 44.103757 
L 597.176529 43.733314 
L 597.477153 44.103757 
L 597.777777 43.733314 
L 598.078401 43.733314 
L 598.379025 45.215085 
L 598.679648 45.215085 
L 598.980272 44.4742 
L 599.280896 45.215085 
L 599.58152 44.4742 
L 600.182767 45.215085 
L 600.483391 44.844643 
L 601.385262 45.955971 
L 601.685886 45.585528 
L 601.98651 46.326414 
L 602.287134 46.326414 
L 602.888381 45.585528 
L 603.489629 46.326414 
L 603.790252 45.955971 
L 604.090876 46.696857 
L 604.3915 46.326414 
L 605.894619 46.326414 
L 606.195243 47.067299 
L 606.495866 46.326414 
L 606.79649 47.067299 
L 607.097114 46.696857 
L 607.698362 46.696857 
L 607.998985 47.067299 
L 608.299609 47.808185 
L 608.600233 47.067299 
L 608.900857 46.696857 
L 609.502104 46.696857 
L 609.802728 47.067299 
L 610.704599 47.067299 
L 611.005223 47.437742 
L 611.305847 47.437742 
L 611.606471 47.067299 
L 611.907094 47.808185 
L 612.207718 47.437742 
L 612.508342 46.696857 
L 612.808966 47.808185 
L 613.109589 47.808185 
L 613.410213 48.178628 
L 613.710837 47.808185 
L 614.011461 46.696857 
L 614.312085 47.808185 
L 614.612708 47.437742 
L 614.913332 48.549071 
L 615.213956 47.437742 
L 615.51458 48.178628 
L 616.416451 48.178628 
L 616.717075 48.919513 
L 617.017698 47.808185 
L 617.91957 48.919513 
L 618.220194 48.178628 
L 618.520817 48.919513 
L 618.821441 48.178628 
L 619.122065 48.919513 
L 619.422689 48.178628 
L 619.723312 48.549071 
L 620.32456 48.549071 
L 620.625184 49.289956 
L 620.925808 49.660399 
L 621.226431 48.919513 
L 621.527055 49.289956 
L 621.827679 48.919513 
L 622.128303 49.660399 
L 622.428926 48.549071 
L 622.72955 49.289956 
L 623.030174 49.660399 
L 623.330798 49.289956 
L 623.631421 49.289956 
L 624.232669 50.030842 
L 624.833917 49.289956 
L 625.13454 49.660399 
L 625.735788 48.919513 
L 627.539531 48.919513 
L 627.840154 48.178628 
L 628.140778 48.549071 
L 628.441402 49.289956 
L 629.343273 48.178628 
L 629.643897 48.919513 
L 629.944521 48.178628 
L 630.545768 48.178628 
L 630.846392 48.549071 
L 631.44764 47.808185 
L 631.748263 48.549071 
L 632.048887 48.178628 
L 632.349511 48.178628 
L 632.650135 47.808185 
L 632.950758 48.178628 
L 633.251382 47.437742 
L 633.552006 48.178628 
L 634.153254 47.437742 
L 635.055125 47.437742 
L 635.355749 47.808185 
L 635.656372 46.696857 
L 635.956996 47.437742 
L 636.25762 47.067299 
L 636.558244 47.808185 
L 636.858868 46.696857 
L 637.159491 46.696857 
L 637.460115 46.326414 
L 638.061363 47.067299 
L 638.361986 46.696857 
L 638.963234 46.696857 
L 639.263858 46.326414 
L 639.564481 46.696857 
L 639.865105 46.696857 
L 640.466353 45.955971 
L 640.766977 45.955971 
L 641.0676 46.696857 
L 641.668848 45.955971 
L 641.969472 45.955971 
L 642.270095 45.215085 
L 642.570719 45.585528 
L 643.773214 45.585528 
L 644.073838 44.844643 
L 645.877581 44.844643 
L 646.178204 43.733314 
L 646.478828 44.4742 
L 646.779452 44.844643 
L 647.080076 44.4742 
L 647.681323 44.4742 
L 648.282571 43.733314 
L 648.583195 44.4742 
L 648.883818 43.362871 
L 649.184442 43.362871 
L 649.485066 42.621986 
L 649.78569 44.103757 
L 650.086314 43.362871 
L 650.386937 42.251543 
L 650.687561 42.992429 
L 651.288809 42.992429 
L 651.589432 43.362871 
L 651.890056 42.992429 
L 652.19068 42.992429 
L 652.491304 41.8811 
L 652.791927 41.510657 
L 653.092551 42.621986 
L 653.393175 41.140215 
L 653.693799 41.8811 
L 653.994423 41.8811 
L 654.295046 41.510657 
L 654.59567 40.769772 
L 655.196918 40.769772 
L 655.497541 41.140215 
L 655.798165 40.769772 
L 656.098789 40.769772 
L 656.399413 40.028886 
L 656.700037 40.769772 
L 657.301284 40.028886 
L 657.601908 40.769772 
L 657.902532 40.399329 
L 658.203155 39.658443 
L 658.804403 40.399329 
L 659.105027 40.399329 
L 659.40565 39.658443 
L 660.608146 39.658443 
L 660.908769 38.917558 
L 661.209393 38.917558 
L 661.510017 39.288001 
L 662.111264 39.288001 
L 662.411888 40.028886 
L 663.013136 38.176672 
L 663.31376 37.806229 
L 663.614383 38.176672 
L 663.915007 38.917558 
L 664.215631 38.547115 
L 664.816878 38.547115 
L 665.117502 38.917558 
L 665.71875 37.435787 
L 666.319997 38.176672 
L 666.620621 37.806229 
L 666.921245 38.176672 
L 667.221869 38.176672 
L 667.522492 37.435787 
L 667.823116 37.435787 
L 668.12374 38.176672 
L 668.724987 37.435787 
L 669.025611 37.806229 
L 669.326235 37.065344 
L 669.626859 37.435787 
L 670.52873 37.435787 
L 670.829354 37.806229 
L 671.129978 37.806229 
L 671.430601 37.065344 
L 672.031849 36.324458 
L 672.332473 36.694901 
L 672.633097 37.435787 
L 672.93372 36.324458 
L 673.234344 36.694901 
L 673.534968 35.954015 
L 673.835592 35.954015 
L 674.136215 36.324458 
L 674.436839 35.954015 
L 675.639334 35.954015 
L 676.240582 35.21313 
L 676.541206 35.954015 
L 676.841829 35.583573 
L 677.142453 35.954015 
L 677.443077 35.21313 
L 678.044324 35.21313 
L 678.344948 34.472244 
L 678.645572 35.21313 
L 678.946196 35.21313 
L 679.24682 34.472244 
L 679.547443 35.21313 
L 679.848067 35.21313 
L 680.148691 35.583573 
L 680.449315 34.101801 
L 680.749938 35.21313 
L 681.050562 34.472244 
L 681.351186 34.472244 
L 681.65181 35.21313 
L 681.952433 34.472244 
L 682.253057 34.842687 
L 683.154929 34.842687 
L 683.455552 34.101801 
L 684.357424 34.101801 
L 684.958671 34.842687 
L 685.259295 34.101801 
L 685.559919 33.731359 
L 685.860543 34.101801 
L 686.46179 33.360916 
L 686.762414 33.731359 
L 687.063038 33.360916 
L 687.363661 34.101801 
L 687.664285 34.101801 
L 687.964909 33.360916 
L 688.265533 33.731359 
L 688.86678 33.731359 
L 689.167404 34.101801 
L 689.468028 32.990473 
L 689.768652 33.360916 
L 690.670523 33.360916 
L 690.971147 32.990473 
L 691.27177 33.360916 
L 691.572394 32.62003 
L 691.873018 32.62003 
L 692.173642 33.360916 
L 692.474266 33.360916 
L 692.774889 32.62003 
L 693.075513 33.731359 
L 693.376137 32.62003 
L 693.676761 33.360916 
L 693.977384 32.62003 
L 694.278008 33.360916 
L 694.578632 32.62003 
L 694.879256 32.990473 
L 695.17988 32.62003 
L 695.781127 32.62003 
L 696.382375 31.879145 
L 696.682998 33.360916 
L 696.983622 32.62003 
L 697.284246 32.249587 
L 697.58487 32.990473 
L 697.885493 32.249587 
L 698.186117 32.990473 
L 698.486741 32.62003 
L 699.388612 32.62003 
L 699.689236 32.990473 
L 699.98986 32.249587 
L 700.290484 32.62003 
L 700.591107 32.62003 
L 700.891731 32.249587 
L 701.192355 32.62003 
L 701.492979 31.879145 
L 702.094226 31.879145 
L 702.39485 32.249587 
L 702.695474 32.249587 
L 702.996098 32.62003 
L 703.296721 32.249587 
L 703.597345 32.62003 
L 704.198593 31.879145 
L 704.499216 32.249587 
L 704.79984 31.879145 
L 705.100464 32.249587 
L 705.401088 31.879145 
L 705.701712 31.138259 
L 706.002335 31.879145 
L 706.302959 31.508702 
L 706.603583 31.879145 
L 706.904207 31.508702 
L 707.20483 31.508702 
L 707.505454 31.138259 
L 707.806078 31.879145 
L 708.407326 31.879145 
L 708.707949 32.249587 
L 709.008573 31.879145 
L 709.309197 31.879145 
L 709.609821 32.249587 
L 709.910444 31.508702 
L 710.211068 31.879145 
L 710.511692 31.138259 
L 710.812316 31.879145 
L 711.112939 31.879145 
L 711.413563 31.508702 
L 712.315435 31.508702 
L 712.616058 31.879145 
L 712.916682 31.508702 
L 716.223544 31.508702 
L 716.524167 31.138259 
L 716.824791 31.879145 
L 717.125415 30.767816 
L 717.426039 31.508702 
L 717.726662 31.879145 
L 718.027286 31.879145 
L 718.32791 31.508702 
L 718.628534 31.879145 
L 718.929158 31.508702 
L 719.530405 31.508702 
L 719.831029 31.879145 
L 720.432276 31.138259 
L 720.7329 32.249587 
L 721.033524 31.508702 
L 721.334148 31.138259 
L 721.634772 31.508702 
L 722.536643 31.508702 
L 722.837267 31.138259 
L 723.13789 31.508702 
L 723.438514 31.138259 
L 723.739138 31.508702 
L 724.039762 32.249587 
L 724.340385 31.138259 
L 724.641009 31.138259 
L 724.941633 31.508702 
L 725.242257 31.138259 
L 725.843504 31.138259 
L 726.144128 31.508702 
L 726.444752 31.508702 
L 727.045999 30.767816 
L 727.647247 31.508702 
L 727.947871 31.508702 
L 728.549118 30.767816 
L 728.849742 31.508702 
L 729.45099 30.767816 
L 729.751613 31.508702 
L 730.052237 31.508702 
L 730.352861 31.879145 
L 730.653485 30.397373 
L 730.954109 30.397373 
L 731.555356 31.138259 
L 731.85598 31.138259 
L 732.156604 30.397373 
L 732.457227 31.138259 
L 733.058475 30.397373 
L 733.659722 30.397373 
L 733.960346 31.138259 
L 734.26097 31.508702 
L 734.561594 30.397373 
L 735.162841 30.397373 
L 735.463465 30.767816 
L 735.764089 29.656488 
L 736.064713 30.026931 
L 736.365336 30.026931 
L 736.66596 29.286045 
L 736.966584 30.026931 
L 737.267208 29.656488 
L 737.567832 30.397373 
L 737.868455 29.286045 
L 738.169079 30.026931 
L 738.469703 29.286045 
L 739.07095 29.286045 
L 739.371574 28.915602 
L 740.273445 28.915602 
L 740.574069 28.174717 
L 740.874693 28.915602 
L 741.475941 28.174717 
L 741.776564 28.54516 
L 742.077188 28.54516 
L 742.678436 27.804274 
L 743.279683 27.804274 
L 743.580307 28.174717 
L 744.181555 28.174717 
L 744.482178 27.804274 
L 744.782802 27.804274 
L 745.083426 28.174717 
L 745.38405 27.433831 
L 745.684673 27.804274 
L 745.985297 27.433831 
L 746.586545 28.174717 
L 746.887168 27.433831 
L 747.187792 28.54516 
L 747.488416 27.804274 
L 748.089664 27.804274 
L 748.390287 26.692946 
L 748.991535 28.174717 
L 749.292159 27.433831 
L 749.893406 27.433831 
L 750.19403 27.804274 
L 750.494654 26.692946 
L 750.795278 27.433831 
L 751.095901 27.063388 
L 751.396525 27.063388 
L 751.697149 27.433831 
L 751.997773 27.063388 
L 752.298396 27.804274 
L 752.59902 27.063388 
L 752.899644 27.433831 
L 753.200268 27.433831 
L 753.500891 28.174717 
L 754.102139 27.433831 
L 754.402763 28.174717 
L 754.703387 28.174717 
L 755.00401 27.433831 
L 755.304634 27.063388 
L 755.605258 27.804274 
L 755.905882 27.433831 
L 756.206505 27.804274 
L 756.507129 27.804274 
L 757.108377 27.063388 
L 757.409001 27.063388 
L 757.709624 27.804274 
L 758.010248 27.063388 
L 758.611496 27.804274 
L 758.912119 26.692946 
L 759.212743 27.433831 
L 759.513367 27.804274 
L 759.813991 27.063388 
L 760.114615 27.433831 
L 760.415238 26.692946 
L 760.715862 28.174717 
L 761.016486 27.804274 
L 761.31711 27.804274 
L 761.617733 26.692946 
L 761.918357 27.063388 
L 762.519605 27.063388 
L 762.820228 27.433831 
L 763.421476 27.433831 
L 763.7221 28.174717 
L 764.022724 27.063388 
L 764.323347 28.174717 
L 764.623971 27.433831 
L 764.924595 27.063388 
L 765.225219 28.174717 
L 765.525842 28.174717 
L 765.826466 27.804274 
L 766.12709 28.174717 
L 766.427714 27.804274 
L 766.728338 28.54516 
L 767.028961 27.804274 
L 767.329585 28.915602 
L 767.630209 28.54516 
L 767.930833 28.54516 
L 768.231456 28.174717 
L 768.53208 28.54516 
L 768.832704 28.54516 
L 769.133328 28.174717 
L 769.734575 28.915602 
L 770.035199 28.54516 
L 770.335823 28.54516 
L 770.636447 28.915602 
L 770.93707 28.54516 
L 771.237694 29.286045 
L 771.538318 29.656488 
L 771.838942 29.656488 
L 772.139565 29.286045 
L 772.440189 30.397373 
L 772.740813 30.397373 
L 773.342061 29.656488 
L 773.943308 30.397373 
L 774.243932 30.026931 
L 774.544556 30.397373 
L 774.845179 30.397373 
L 775.145803 30.767816 
L 775.446427 30.767816 
L 775.747051 31.508702 
L 776.047674 30.767816 
L 776.348298 31.508702 
L 777.25017 31.508702 
L 777.851417 32.249587 
L 778.452665 31.508702 
L 778.753288 32.990473 
L 779.053912 32.990473 
L 779.354536 32.249587 
L 779.65516 32.990473 
L 779.955784 32.62003 
L 780.256407 32.62003 
L 780.557031 33.731359 
L 781.158279 32.990473 
L 781.458902 33.360916 
L 781.759526 34.472244 
L 782.06015 33.731359 
L 782.360774 33.731359 
L 782.661397 33.360916 
L 782.962021 34.101801 
L 783.262645 34.472244 
L 783.563269 34.101801 
L 783.863893 34.472244 
L 784.164516 34.472244 
L 784.46514 35.21313 
L 784.765764 35.583573 
L 785.066388 35.21313 
L 785.367011 35.21313 
L 785.667635 35.954015 
L 786.268883 35.954015 
L 786.569507 36.694901 
L 786.87013 36.324458 
L 787.170754 36.694901 
L 787.772002 36.694901 
L 788.072625 37.435787 
L 788.373249 37.806229 
L 788.673873 37.065344 
L 788.974497 37.435787 
L 789.275121 38.176672 
L 789.876368 37.435787 
L 790.176992 38.176672 
L 790.477616 38.176672 
L 790.778239 37.806229 
L 791.078863 37.806229 
L 791.379487 38.547115 
L 791.980734 37.806229 
L 792.581982 37.806229 
L 793.18323 37.065344 
L 793.483853 37.806229 
L 794.385725 37.806229 
L 794.686348 37.435787 
L 794.986972 37.806229 
L 795.287596 37.435787 
L 795.58822 37.806229 
L 795.888844 37.435787 
L 796.189467 37.806229 
L 796.490091 37.806229 
L 796.790715 37.435787 
L 797.091339 37.806229 
L 797.391962 37.806229 
L 797.692586 36.694901 
L 797.99321 37.806229 
L 798.293834 37.806229 
L 798.594457 37.435787 
L 798.895081 37.435787 
L 799.195705 37.806229 
L 799.496329 37.435787 
L 799.796953 37.806229 
L 800.097576 37.065344 
L 800.3982 37.806229 
L 800.698824 37.435787 
L 801.300071 37.435787 
L 801.901319 36.694901 
L 802.201943 37.065344 
L 802.502567 37.065344 
L 803.103814 36.324458 
L 803.404438 37.065344 
L 803.705062 37.065344 
L 804.005685 36.324458 
L 804.306309 37.065344 
L 804.907557 36.324458 
L 805.20818 35.583573 
L 805.508804 36.324458 
L 805.809428 35.954015 
L 806.110052 36.694901 
L 806.410676 36.324458 
L 806.711299 36.324458 
L 807.011923 35.583573 
L 807.312547 36.324458 
L 807.913794 35.583573 
L 808.214418 35.583573 
L 808.515042 34.842687 
L 808.815666 35.954015 
L 809.416913 35.21313 
L 810.018161 35.21313 
L 810.318785 35.583573 
L 810.920032 34.842687 
L 811.220656 35.21313 
L 811.52128 35.21313 
L 811.821903 34.472244 
L 812.122527 35.21313 
L 812.423151 34.842687 
L 812.723775 34.842687 
L 813.024399 34.472244 
L 813.325022 35.21313 
L 813.625646 34.472244 
L 813.92627 34.842687 
L 814.226894 34.101801 
L 814.527517 34.101801 
L 815.128765 34.842687 
L 815.429389 34.101801 
L 815.730013 34.101801 
L 816.030636 33.731359 
L 816.33126 34.101801 
L 816.631884 34.101801 
L 816.932508 33.731359 
L 817.233131 34.101801 
L 817.533755 33.731359 
L 817.834379 32.990473 
L 818.135003 33.731359 
L 818.435627 32.990473 
L 819.036874 33.731359 
L 819.337498 32.990473 
L 819.638122 33.360916 
L 820.239369 33.360916 
L 821.14124 32.249587 
L 821.441864 33.360916 
L 821.742488 32.62003 
L 822.043112 32.62003 
L 822.343735 32.990473 
L 822.944983 32.249587 
L 823.846854 32.249587 
L 824.147478 31.508702 
L 824.448101 32.249587 
L 824.748725 31.879145 
L 825.049349 32.62003 
L 825.349973 31.879145 
L 825.650596 32.249587 
L 825.95122 31.508702 
L 826.552468 31.508702 
L 826.853091 30.767816 
L 827.454339 31.508702 
L 827.754962 30.767816 
L 828.055586 31.508702 
L 828.35621 30.767816 
L 828.656834 30.767816 
L 828.957457 31.138259 
L 829.258081 30.767816 
L 829.558705 30.026931 
L 829.859329 30.767816 
L 830.460576 30.026931 
L 831.061824 30.767816 
L 831.362447 30.397373 
L 831.963695 31.138259 
L 832.564942 31.138259 
L 832.865566 31.879145 
L 833.16619 31.879145 
L 833.466814 32.249587 
L 833.767437 32.990473 
L 834.068061 32.990473 
L 834.368685 33.360916 
L 834.669309 32.990473 
L 834.969932 34.101801 
L 835.270556 33.731359 
L 835.871803 34.472244 
L 836.172427 34.472244 
L 836.473051 35.21313 
L 836.773675 35.583573 
L 837.074298 35.21313 
L 837.374922 35.21313 
L 837.675546 35.954015 
L 837.97617 35.954015 
L 838.276793 37.065344 
L 838.577417 36.694901 
L 838.878041 37.435787 
L 839.178665 37.435787 
L 839.479288 37.806229 
L 839.779912 38.917558 
L 840.080536 38.547115 
L 840.381159 38.547115 
L 840.681783 39.288001 
L 840.982407 39.658443 
L 841.283031 39.288001 
L 841.583654 40.769772 
L 841.884278 40.399329 
L 842.184902 41.510657 
L 842.485526 41.510657 
L 843.086773 42.251543 
L 843.387397 43.362871 
L 843.688021 42.621986 
L 843.988644 44.103757 
L 844.289268 42.992429 
L 844.890516 44.4742 
L 845.191139 44.844643 
L 845.491763 45.585528 
L 845.792387 45.585528 
L 846.694258 46.696857 
L 846.994882 46.696857 
L 847.295505 47.437742 
L 847.596129 47.067299 
L 847.896753 47.067299 
L 848.197377 48.178628 
L 848.798624 48.919513 
L 849.099248 49.660399 
L 849.399872 49.660399 
L 849.700495 49.289956 
L 850.001119 49.660399 
L 850.301743 50.401285 
L 850.602367 50.771727 
L 850.90299 51.512613 
L 851.203614 51.14217 
L 851.804861 52.994384 
L 852.105485 52.994384 
L 852.706733 54.846598 
L 853.007356 55.217041 
L 853.30798 55.957927 
L 853.608604 57.069255 
L 853.909228 56.698812 
L 854.209851 57.81014 
L 854.510475 57.81014 
L 854.811099 58.180583 
L 855.412346 59.662354 
L 855.71297 59.662354 
L 856.013594 60.773683 
L 856.314218 60.773683 
L 856.614841 61.514568 
L 856.915465 61.885011 
L 857.516713 61.885011 
L 857.817336 62.625897 
L 858.11796 62.625897 
L 858.418584 62.255454 
L 858.719207 62.99634 
L 859.019831 63.366782 
L 859.320455 64.107668 
L 859.621079 63.737225 
L 860.222326 64.478111 
L 860.52295 64.478111 
L 860.823574 64.107668 
L 861.124197 64.848554 
L 861.424821 64.848554 
L 861.725445 65.218996 
L 862.026069 65.959882 
L 862.627316 66.700768 
L 862.92794 67.441653 
L 863.228564 67.441653 
L 863.529187 67.07121 
L 863.829811 67.812096 
L 864.130435 67.07121 
L 864.431058 68.923424 
L 864.731682 68.923424 
L 865.33293 68.182539 
L 865.633553 68.923424 
L 865.934177 68.552982 
L 866.234801 69.293867 
L 866.535425 68.923424 
L 866.836048 69.66431 
L 867.136672 68.923424 
L 867.73792 69.66431 
L 868.038543 68.923424 
L 868.339167 68.923424 
L 868.639791 68.182539 
L 868.940415 69.293867 
L 869.241038 69.293867 
L 869.541662 70.034753 
L 869.842286 70.034753 
L 870.142909 70.405196 
L 870.443533 71.146081 
L 870.744157 70.405196 
L 871.044781 71.886967 
L 871.345404 71.516524 
L 871.646028 72.627852 
L 871.946652 72.627852 
L 872.848523 73.739181 
L 873.149147 73.368738 
L 873.449771 73.739181 
L 873.750394 73.739181 
L 874.051018 73.368738 
L 874.351642 72.627852 
L 874.652266 72.998295 
L 875.554137 72.998295 
L 875.85476 72.627852 
L 876.155384 72.627852 
L 876.456008 71.516524 
L 876.756632 71.516524 
L 877.057255 71.886967 
L 877.357879 70.775638 
L 877.658503 70.775638 
L 877.959127 70.405196 
L 878.25975 71.146081 
L 879.161622 70.034753 
L 879.462245 68.923424 
L 880.063493 69.66431 
L 880.66474 68.923424 
L 880.965364 69.293867 
L 881.265988 67.812096 
L 881.566612 68.552982 
L 881.867235 67.812096 
L 882.769106 66.700768 
L 883.370354 66.700768 
L 883.670978 65.959882 
L 883.971601 65.959882 
L 884.272225 65.218996 
L 884.572849 65.218996 
L 885.174096 64.478111 
L 885.47472 64.848554 
L 886.075968 63.366782 
L 886.376591 63.737225 
L 886.977839 62.99634 
L 887.278463 62.255454 
L 887.579086 62.255454 
L 888.180334 61.514568 
L 888.480957 60.773683 
L 888.781581 60.40324 
L 889.082205 60.773683 
L 889.382829 60.40324 
L 889.683452 59.662354 
L 890.2847 59.662354 
L 890.585324 58.921469 
L 890.885947 58.921469 
L 891.787819 57.81014 
L 892.088442 57.81014 
L 892.389066 57.439698 
L 892.68969 57.81014 
L 892.990314 57.069255 
L 893.290937 57.069255 
L 894.493432 55.587484 
L 894.794056 55.587484 
L 895.09468 55.957927 
L 895.395303 54.846598 
L 895.695927 55.957927 
L 895.996551 54.476155 
L 896.297175 54.105713 
L 896.597798 54.105713 
L 896.898422 53.364827 
L 897.49967 53.364827 
L 897.800293 52.994384 
L 898.100917 52.253499 
L 898.401541 52.623941 
L 899.002788 52.623941 
L 899.303412 52.253499 
L 899.604036 51.512613 
L 899.904659 51.883056 
L 900.205283 52.623941 
L 900.505907 50.401285 
L 900.806531 51.512613 
L 901.107154 50.771727 
L 901.407778 50.771727 
L 901.708402 50.030842 
L 902.009026 50.401285 
L 902.309649 49.660399 
L 902.610273 50.030842 
L 902.910897 49.660399 
L 903.211521 50.030842 
L 903.812768 49.289956 
L 904.113392 48.178628 
L 904.414016 49.289956 
L 904.714639 48.549071 
L 905.315887 48.549071 
L 905.616511 48.178628 
L 905.917134 47.437742 
L 906.518382 47.437742 
L 906.819005 47.067299 
L 907.119629 47.067299 
L 907.420253 46.696857 
L 907.720877 47.437742 
L 908.0215 46.696857 
L 908.322124 46.326414 
L 908.923372 46.326414 
L 909.223995 45.955971 
L 909.825243 45.955971 
L 910.125867 45.585528 
L 910.42649 44.844643 
L 911.027738 44.844643 
L 911.328362 44.4742 
L 912.230233 44.4742 
L 913.132104 43.362871 
L 913.733351 44.103757 
L 914.334599 44.103757 
L 914.635223 42.992429 
L 914.935846 42.992429 
L 915.23647 43.362871 
L 915.537094 43.362871 
L 915.837718 42.992429 
L 917.340836 42.992429 
L 917.64146 42.251543 
L 917.942084 42.251543 
L 917.942084 42.251543 
" clip-path="url(#p52e5fd5f8b)" style="fill: none; stroke: #ea580c; stroke-opacity: 0.95; stroke-width: 0.936; stroke-linecap: square"/>
   </g>
   <g id="patch_20">
    <path d="M 47.917188 228.954713 
L 47.917188 17.061433 
" style="fill: none; stroke: #cbd5e1; stroke-width: 0.8; stroke-linejoin: miter; stroke-linecap: square"/>
   </g>
   <g id="patch_21">
    <path d="M 935.342187 228.954713 
L 935.342187 17.061433 
" style="fill: none; stroke: #cbd5e1; stroke-width: 0.8; stroke-linejoin: miter; stroke-linecap: square"/>
   </g>
   <g id="patch_22">
    <path d="M 47.917188 228.954713 
L 935.342188 228.954713 
" style="fill: none; stroke: #cbd5e1; stroke-width: 0.8; stroke-linejoin: miter; stroke-linecap: square"/>
   </g>
   <g id="patch_23">
    <path d="M 47.917188 17.061433 
L 935.342188 17.061433 
" style="fill: none; stroke: #cbd5e1; stroke-width: 0.8; stroke-linejoin: miter; stroke-linecap: square"/>
   </g>
   <g id="text_20">
    <!-- ACC -->
    <g style="fill: #475569" transform="translate(129.851819 13.27875) scale(0.08 -0.08)">
     <defs>
      <path id="DejaVuSans-41" d="M 2188 4044 
L 1331 1722 
L 3047 1722 
L 2188 4044 
z
M 1831 4666 
L 2547 4666 
L 4325 0 
L 3669 0 
L 3244 1197 
L 1141 1197 
L 716 0 
L 50 0 
L 1831 4666 
z
" transform="scale(0.015625)"/>
     </defs>
     <use xlink:href="#DejaVuSans-41"/>
     <use xlink:href="#DejaVuSans-43" transform="translate(66.658203 0)"/>
     <use xlink:href="#DejaVuSans-43" transform="translate(136.482422 0)"/>
    </g>
   </g>
   <g id="text_21">
    <!-- OC -->
    <g style="fill: #475569" transform="translate(235.877646 13.27875) scale(0.08 -0.08)">
     <defs>
      <path id="DejaVuSans-4f" d="M 2522 4238 
Q 1834 4238 1429 3725 
Q 1025 3213 1025 2328 
Q 1025 1447 1429 934 
Q 1834 422 2522 422 
Q 3209 422 3611 934 
Q 4013 1447 4013 2328 
Q 4013 3213 3611 3725 
Q 3209 4238 2522 4238 
z
M 2522 4750 
Q 3503 4750 4090 4092 
Q 4678 3434 4678 2328 
Q 4678 1225 4090 567 
Q 3503 -91 2522 -91 
Q 1538 -91 948 565 
Q 359 1222 359 2328 
Q 359 3434 948 4092 
Q 1538 4750 2522 4750 
z
" transform="scale(0.015625)"/>
     </defs>
     <use xlink:href="#DejaVuSans-4f"/>
     <use xlink:href="#DejaVuSans-43" transform="translate(78.710938 0)"/>
    </g>
   </g>
   <g id="text_22">
    <!-- FCS -->
    <g style="fill: #475569" transform="translate(261.242536 13.27875) scale(0.08 -0.08)">
     <defs>
      <path id="DejaVuSans-46" d="M 628 4666 
L 3309 4666 
L 3309 4134 
L 1259 4134 
L 1259 2759 
L 3109 2759 
L 3109 2228 
L 1259 2228 
L 1259 0 
L 628 0 
L 628 4666 
z
" transform="scale(0.015625)"/>
      <path id="DejaVuSans-53" d="M 3425 4513 
L 3425 3897 
Q 3066 4069 2747 4153 
Q 2428 4238 2131 4238 
Q 1616 4238 1336 4038 
Q 1056 3838 1056 3469 
Q 1056 3159 1242 3001 
Q 1428 2844 1947 2747 
L 2328 2669 
Q 3034 2534 3370 2195 
Q 3706 1856 3706 1288 
Q 3706 609 3251 259 
Q 2797 -91 1919 -91 
Q 1588 -91 1214 -16 
Q 841 59 441 206 
L 441 856 
Q 825 641 1194 531 
Q 1563 422 1919 422 
Q 2459 422 2753 634 
Q 3047 847 3047 1241 
Q 3047 1584 2836 1778 
Q 2625 1972 2144 2069 
L 1759 2144 
Q 1053 2284 737 2584 
Q 422 2884 422 3419 
Q 422 4038 858 4394 
Q 1294 4750 2059 4750 
Q 2388 4750 2728 4690 
Q 3069 4631 3425 4513 
z
" transform="scale(0.015625)"/>
     </defs>
     <use xlink:href="#DejaVuSans-46"/>
     <use xlink:href="#DejaVuSans-43" transform="translate(57.519531 0)"/>
     <use xlink:href="#DejaVuSans-53" transform="translate(127.34375 0)"/>
    </g>
   </g>
   <g id="text_23">
    <!-- SR -->
    <g style="fill: #475569" transform="translate(295.122407 13.27875) scale(0.08 -0.08)">
     <defs>
      <path id="DejaVuSans-52" d="M 2841 2188 
Q 3044 2119 3236 1894 
Q 3428 1669 3622 1275 
L 4263 0 
L 3584 0 
L 2988 1197 
Q 2756 1666 2539 1819 
Q 2322 1972 1947 1972 
L 1259 1972 
L 1259 0 
L 628 0 
L 628 4666 
L 2053 4666 
Q 2853 4666 3247 4331 
Q 3641 3997 3641 3322 
Q 3641 2881 3436 2590 
Q 3231 2300 2841 2188 
z
M 1259 4147 
L 1259 2491 
L 2053 2491 
Q 2509 2491 2742 2702 
Q 2975 2913 2975 3322 
Q 2975 3731 2742 3939 
Q 2509 4147 2053 4147 
L 1259 4147 
z
" transform="scale(0.015625)"/>
     </defs>
     <use xlink:href="#DejaVuSans-53"/>
     <use xlink:href="#DejaVuSans-52" transform="translate(63.476562 0)"/>
    </g>
   </g>
   <g id="text_24">
    <!-- FFC -->
    <g style="fill: #475569" transform="translate(335.88567 13.27875) scale(0.08 -0.08)">
     <use xlink:href="#DejaVuSans-46"/>
     <use xlink:href="#DejaVuSans-46" transform="translate(57.519531 0)"/>
     <use xlink:href="#DejaVuSans-43" transform="translate(115.039062 0)"/>
    </g>
   </g>
   <g id="text_25">
    <!-- SS -->
    <g style="fill: #475569" transform="translate(421.624392 13.27875) scale(0.08 -0.08)">
     <use xlink:href="#DejaVuSans-53"/>
     <use xlink:href="#DejaVuSans-53" transform="translate(63.476562 0)"/>
    </g>
   </g>
   <g id="text_26">
    <!-- OC -->
    <g style="fill: #475569" transform="translate(490.656294 13.27875) scale(0.08 -0.08)">
     <use xlink:href="#DejaVuSans-4f"/>
     <use xlink:href="#DejaVuSans-43" transform="translate(78.710938 0)"/>
    </g>
   </g>
   <g id="text_27">
    <!-- FCS -->
    <g style="fill: #475569" transform="translate(511.511827 13.27875) scale(0.08 -0.08)">
     <use xlink:href="#DejaVuSans-46"/>
     <use xlink:href="#DejaVuSans-43" transform="translate(57.519531 0)"/>
     <use xlink:href="#DejaVuSans-53" transform="translate(127.34375 0)"/>
    </g>
   </g>
   <g id="text_28">
    <!-- SR -->
    <g style="fill: #475569" transform="translate(545.391698 13.27875) scale(0.08 -0.08)">
     <use xlink:href="#DejaVuSans-53"/>
     <use xlink:href="#DejaVuSans-52" transform="translate(63.476562 0)"/>
    </g>
   </g>
   <g id="text_29">
    <!-- FFC -->
    <g style="fill: #475569" transform="translate(588.409639 13.27875) scale(0.08 -0.08)">
     <use xlink:href="#DejaVuSans-46"/>
     <use xlink:href="#DejaVuSans-46" transform="translate(57.519531 0)"/>
     <use xlink:href="#DejaVuSans-43" transform="translate(115.039062 0)"/>
    </g>
   </g>
   <g id="text_30">
    <!-- SS -->
    <g style="fill: #475569" transform="translate(674.148361 13.27875) scale(0.08 -0.08)">
     <use xlink:href="#DejaVuSans-53"/>
     <use xlink:href="#DejaVuSans-53" transform="translate(63.476562 0)"/>
    </g>
   </g>
   <g id="text_31">
    <!-- OC -->
    <g style="fill: #475569" transform="translate(743.180263 13.27875) scale(0.08 -0.08)">
     <use xlink:href="#DejaVuSans-4f"/>
     <use xlink:href="#DejaVuSans-43" transform="translate(78.710938 0)"/>
    </g>
   </g>
   <g id="text_32">
    <!-- FCS -->
    <g style="fill: #475569" transform="translate(764.035796 13.27875) scale(0.08 -0.08)">
     <use xlink:href="#DejaVuSans-46"/>
     <use xlink:href="#DejaVuSans-43" transform="translate(57.519531 0)"/>
     <use xlink:href="#DejaVuSans-53" transform="translate(127.34375 0)"/>
    </g>
   </g>
   <g id="text_33">
    <!-- SR -->
    <g style="fill: #475569" transform="translate(797.915668 13.27875) scale(0.08 -0.08)">
     <use xlink:href="#DejaVuSans-53"/>
     <use xlink:href="#DejaVuSans-52" transform="translate(63.476562 0)"/>
    </g>
   </g>
   <g id="text_34">
    <!-- FFC -->
    <g style="fill: #475569" transform="translate(840.933609 13.27875) scale(0.08 -0.08)">
     <use xlink:href="#DejaVuSans-46"/>
     <use xlink:href="#DejaVuSans-46" transform="translate(57.519531 0)"/>
     <use xlink:href="#DejaVuSans-43" transform="translate(115.039062 0)"/>
    </g>
   </g>
   <g id="text_35">
    <!-- SS -->
    <g style="fill: #475569" transform="translate(888.3428 13.27875) scale(0.08 -0.08)">
     <use xlink:href="#DejaVuSans-53"/>
     <use xlink:href="#DejaVuSans-53" transform="translate(63.476562 0)"/>
    </g>
   </g>
   <g id="legend_1">
    <g id="line2d_36">
     <path d="M 815.429688 27.540183 
L 823.429688 27.540183 
L 831.429688 27.540183 
" style="fill: none; stroke: #ea580c; stroke-opacity: 0.95; stroke-width: 1.3; stroke-linecap: square"/>
    </g>
    <g id="text_36">
     <!-- Empatica temperature -->
     <g transform="translate(837.829687 30.340183) scale(0.08 -0.08)">
      <defs>
       <path id="DejaVuSans-45" d="M 628 4666 
L 3578 4666 
L 3578 4134 
L 1259 4134 
L 1259 2753 
L 3481 2753 
L 3481 2222 
L 1259 2222 
L 1259 531 
L 3634 531 
L 3634 0 
L 628 0 
L 628 4666 
z
" transform="scale(0.015625)"/>
      </defs>
      <use xlink:href="#DejaVuSans-45"/>
      <use xlink:href="#DejaVuSans-6d" transform="translate(63.183594 0)"/>
      <use xlink:href="#DejaVuSans-70" transform="translate(160.595703 0)"/>
      <use xlink:href="#DejaVuSans-61" transform="translate(224.072266 0)"/>
      <use xlink:href="#DejaVuSans-74" transform="translate(285.351562 0)"/>
      <use xlink:href="#DejaVuSans-69" transform="translate(324.560547 0)"/>
      <use xlink:href="#DejaVuSans-63" transform="translate(352.34375 0)"/>
      <use xlink:href="#DejaVuSans-61" transform="translate(407.324219 0)"/>
      <use xlink:href="#DejaVuSans-20" transform="translate(468.603516 0)"/>
      <use xlink:href="#DejaVuSans-74" transform="translate(500.390625 0)"/>
      <use xlink:href="#DejaVuSans-65" transform="translate(539.599609 0)"/>
      <use xlink:href="#DejaVuSans-6d" transform="translate(601.123047 0)"/>
      <use xlink:href="#DejaVuSans-70" transform="translate(698.535156 0)"/>
      <use xlink:href="#DejaVuSans-65" transform="translate(762.011719 0)"/>
      <use xlink:href="#DejaVuSans-72" transform="translate(823.535156 0)"/>
      <use xlink:href="#DejaVuSans-61" transform="translate(864.648438 0)"/>
      <use xlink:href="#DejaVuSans-74" transform="translate(925.927734 0)"/>
      <use xlink:href="#DejaVuSans-75" transform="translate(965.136719 0)"/>
      <use xlink:href="#DejaVuSans-72" transform="translate(1028.515625 0)"/>
      <use xlink:href="#DejaVuSans-65" transform="translate(1067.378906 0)"/>
     </g>
    </g>
   </g>
  </g>
 </g>
 <defs>
  <clipPath id="p52e5fd5f8b">
   <rect x="47.917188" y="17.061433" width="887.425" height="211.89328"/>
  </clipPath>
 </defs>
</svg>
