<?xml version="1.0" encoding="utf-8" standalone="no"?>
<!DOCTYPE svg PUBLIC "-//W3C//DTD SVG 1.1//EN"
  "http://www.w3.org/Graphics/SVG/1.1/DTD/svg11.dtd">
<svg xmlns:xlink="http://www.w3.org/1999/xlink" width="942.553437pt" height="265.54315pt" viewBox="0 0 942.553437 265.54315" xmlns="http://www.w3.org/2000/svg" version="1.1">
 <metadata>
  <rdf:RDF xmlns:dc="http://purl.org/dc/elements/1.1/" xmlns:cc="http://creativecommons.org/ns#" xmlns:rdf="http://www.w3.org/1999/02/22-rdf-syntax-ns#">
   <cc:Work>
    <dc:type rdf:resource="http://purl.org/dc/dcmitype/StillImage"/>
    <dc:date>2026-04-17T13:08:42.876179</dc:date>
    <dc:format>image/svg+xml</dc:format>
    <dc:creator>
     <cc:Agent>
      <dc:title>Matplotlib v3.10.8, https://matplotlib.org/</dc:title>
     </cc:Agent>
    </dc:creator>
   </cc:Work>
  </rdf:RDF>
 </metadata>
 <defs>
  <style type="text/css">*{stroke-linejoin: round; stroke-linecap: butt}</style>
 </defs>
 <g id="figure_1">
  <g id="patch_1">
   <path d="M 0 265.54315 
L 942.553437 265.54315 
L 942.553437 0 
L 0 0 
z
" style="fill: #ffffff"/>
  </g>
  <g id="axes_1">
   <g id="patch_2">
    <path d="M 42.190938 228.954713 
L 935.353438 228.954713 
L 935.353438 17.061433 
L 42.190938 17.061433 
z
" style="fill: #ffffff"/>
   </g>
   <g id="patch_3">
    <path d="M 42.190938 228.954713 
L 227.576275 228.954713 
L 227.576275 17.061433 
L 42.190938 17.061433 
z
" clip-path="url(#p3ce39d9737)" style="fill: #f8fafc; opacity: 0.45"/>
   </g>
   <g id="patch_4">
    <path d="M 227.576275 228.954713 
L 236.845541 228.954713 
L 236.845541 17.061433 
L 227.576275 17.061433 
z
" clip-path="url(#p3ce39d9737)" style="fill: #eff6ff; opacity: 0.45"/>
   </g>
   <g id="patch_5">
    <path d="M 236.845541 228.954713 
L 260.018709 228.954713 
L 260.018709 17.061433 
L 236.845541 17.061433 
z
" clip-path="url(#p3ce39d9737)" style="fill: #fef3c7; opacity: 0.45"/>
   </g>
   <g id="patch_6">
    <path d="M 260.018709 228.954713 
L 297.095776 228.954713 
L 297.095776 17.061433 
L 260.018709 17.061433 
z
" clip-path="url(#p3ce39d9737)" style="fill: #dcfce7; opacity: 0.45"/>
   </g>
   <g id="patch_7">
    <path d="M 297.095776 228.954713 
L 348.076744 228.954713 
L 348.076744 17.061433 
L 297.095776 17.061433 
z
" clip-path="url(#p3ce39d9737)" style="fill: #fee2e2; opacity: 0.45"/>
   </g>
   <g id="patch_8">
    <path d="M 348.076744 228.954713 
L 352.711377 228.954713 
L 352.711377 17.061433 
L 348.076744 17.061433 
z
" clip-path="url(#p3ce39d9737)" style="fill: #ede9fe; opacity: 0.45"/>
   </g>
   <g id="patch_9">
    <path d="M 352.711377 228.954713 
L 473.211846 228.954713 
L 473.211846 17.061433 
L 352.711377 17.061433 
z
" clip-path="url(#p3ce39d9737)" style="fill: #f8fafc; opacity: 0.45"/>
   </g>
   <g id="patch_10">
    <path d="M 473.211846 228.954713 
L 496.385013 228.954713 
L 496.385013 17.061433 
L 473.211846 17.061433 
z
" clip-path="url(#p3ce39d9737)" style="fill: #eff6ff; opacity: 0.45"/>
   </g>
   <g id="patch_11">
    <path d="M 496.385013 228.954713 
L 519.558181 228.954713 
L 519.558181 17.061433 
L 496.385013 17.061433 
z
" clip-path="url(#p3ce39d9737)" style="fill: #fef3c7; opacity: 0.45"/>
   </g>
   <g id="patch_12">
    <path d="M 519.558181 228.954713 
L 556.635248 228.954713 
L 556.635248 17.061433 
L 519.558181 17.061433 
z
" clip-path="url(#p3ce39d9737)" style="fill: #dcfce7; opacity: 0.45"/>
   </g>
   <g id="patch_13">
    <path d="M 556.635248 228.954713 
L 607.616216 228.954713 
L 607.616216 17.061433 
L 556.635248 17.061433 
z
" clip-path="url(#p3ce39d9737)" style="fill: #fee2e2; opacity: 0.45"/>
   </g>
   <g id="patch_14">
    <path d="M 607.616216 228.954713 
L 612.250849 228.954713 
L 612.250849 17.061433 
L 607.616216 17.061433 
z
" clip-path="url(#p3ce39d9737)" style="fill: #ede9fe; opacity: 0.45"/>
   </g>
   <g id="patch_15">
    <path d="M 612.250849 228.954713 
L 732.751318 228.954713 
L 732.751318 17.061433 
L 612.250849 17.061433 
z
" clip-path="url(#p3ce39d9737)" style="fill: #f8fafc; opacity: 0.45"/>
   </g>
   <g id="patch_16">
    <path d="M 732.751318 228.954713 
L 755.924485 228.954713 
L 755.924485 17.061433 
L 732.751318 17.061433 
z
" clip-path="url(#p3ce39d9737)" style="fill: #eff6ff; opacity: 0.45"/>
   </g>
   <g id="patch_17">
    <path d="M 755.924485 228.954713 
L 779.097653 228.954713 
L 779.097653 17.061433 
L 755.924485 17.061433 
z
" clip-path="url(#p3ce39d9737)" style="fill: #fef3c7; opacity: 0.45"/>
   </g>
   <g id="patch_18">
    <path d="M 779.097653 228.954713 
L 816.17472 228.954713 
L 816.17472 17.061433 
L 779.097653 17.061433 
z
" clip-path="url(#p3ce39d9737)" style="fill: #dcfce7; opacity: 0.45"/>
   </g>
   <g id="patch_19">
    <path d="M 816.17472 228.954713 
L 867.155688 228.954713 
L 867.155688 17.061433 
L 816.17472 17.061433 
z
" clip-path="url(#p3ce39d9737)" style="fill: #fee2e2; opacity: 0.45"/>
   </g>
   <g id="patch_20">
    <path d="M 867.155688 228.954713 
L 871.790321 228.954713 
L 871.790321 17.061433 
L 867.155688 17.061433 
z
" clip-path="url(#p3ce39d9737)" style="fill: #ede9fe; opacity: 0.45"/>
   </g>
   <g id="patch_21">
    <path d="M 871.790321 228.954713 
L 913.502022 228.954713 
L 913.502022 17.061433 
L 871.790321 17.061433 
z
" clip-path="url(#p3ce39d9737)" style="fill: #f8fafc; opacity: 0.45"/>
   </g>
   <g id="patch_22">
    <path d="M 913.502022 228.954713 
L 918.136655 228.954713 
L 918.136655 17.061433 
L 913.502022 17.061433 
z
" clip-path="url(#p3ce39d9737)" style="fill: #eff6ff; opacity: 0.45"/>
   </g>
   <g id="matplotlib.axis_1">
    <g id="xtick_1">
     <g id="line2d_1">
      <path d="M 42.190938 228.954713 
L 42.190938 17.061433 
" clip-path="url(#p3ce39d9737)" style="fill: none; stroke: #eef2f7; stroke-width: 0.55; stroke-linecap: square"/>
     </g>
     <g id="line2d_2">
      <defs>
       <path id="mfa4819777d" d="M 0 0 
L 0 3.5 
" style="stroke: #000000; stroke-width: 0.8"/>
      </defs>
      <g>
       <use xlink:href="#mfa4819777d" x="42.190938" y="228.954713" style="stroke: #000000; stroke-width: 0.8"/>
      </g>
     </g>
     <g id="text_1">
      <!-- 0 -->
      <g transform="translate(39.327813 242.793307) scale(0.09 -0.09)">
       <defs>
        <path id="DejaVuSans-30" d="M 2034 4250 
Q 1547 4250 1301 3770 
Q 1056 3291 1056 2328 
Q 1056 1369 1301 889 
Q 1547 409 2034 409 
Q 2525 409 2770 889 
Q 3016 1369 3016 2328 
Q 3016 3291 2770 3770 
Q 2525 4250 2034 4250 
z
M 2034 4750 
Q 2819 4750 3233 4129 
Q 3647 3509 3647 2328 
Q 3647 1150 3233 529 
Q 2819 -91 2034 -91 
Q 1250 -91 836 529 
Q 422 1150 422 2328 
Q 422 3509 836 4129 
Q 1250 4750 2034 4750 
z
" transform="scale(0.015625)"/>
       </defs>
       <use xlink:href="#DejaVuSans-30"/>
      </g>
     </g>
    </g>
    <g id="xtick_2">
     <g id="line2d_3">
      <path d="M 158.056773 228.954713 
L 158.056773 17.061433 
" clip-path="url(#p3ce39d9737)" style="fill: none; stroke: #eef2f7; stroke-width: 0.55; stroke-linecap: square"/>
     </g>
     <g id="line2d_4">
      <g>
       <use xlink:href="#mfa4819777d" x="158.056773" y="228.954713" style="stroke: #000000; stroke-width: 0.8"/>
      </g>
     </g>
     <g id="text_2">
      <!-- 25 -->
      <g transform="translate(152.330523 242.793307) scale(0.09 -0.09)">
       <defs>
        <path id="DejaVuSans-32" d="M 1228 531 
L 3431 531 
L 3431 0 
L 469 0 
L 469 531 
Q 828 903 1448 1529 
Q 2069 2156 2228 2338 
Q 2531 2678 2651 2914 
Q 2772 3150 2772 3378 
Q 2772 3750 2511 3984 
Q 2250 4219 1831 4219 
Q 1534 4219 1204 4116 
Q 875 4013 500 3803 
L 500 4441 
Q 881 4594 1212 4672 
Q 1544 4750 1819 4750 
Q 2544 4750 2975 4387 
Q 3406 4025 3406 3419 
Q 3406 3131 3298 2873 
Q 3191 2616 2906 2266 
Q 2828 2175 2409 1742 
Q 1991 1309 1228 531 
z
" transform="scale(0.015625)"/>
        <path id="DejaVuSans-35" d="M 691 4666 
L 3169 4666 
L 3169 4134 
L 1269 4134 
L 1269 2991 
Q 1406 3038 1543 3061 
Q 1681 3084 1819 3084 
Q 2600 3084 3056 2656 
Q 3513 2228 3513 1497 
Q 3513 744 3044 326 
Q 2575 -91 1722 -91 
Q 1428 -91 1123 -41 
Q 819 9 494 109 
L 494 744 
Q 775 591 1075 516 
Q 1375 441 1709 441 
Q 2250 441 2565 725 
Q 2881 1009 2881 1497 
Q 2881 1984 2565 2268 
Q 2250 2553 1709 2553 
Q 1456 2553 1204 2497 
Q 953 2441 691 2322 
L 691 4666 
z
" transform="scale(0.015625)"/>
       </defs>
       <use xlink:href="#DejaVuSans-32"/>
       <use xlink:href="#DejaVuSans-35" transform="translate(63.623047 0)"/>
      </g>
     </g>
    </g>
    <g id="xtick_3">
     <g id="line2d_5">
      <path d="M 273.922609 228.954713 
L 273.922609 17.061433 
" clip-path="url(#p3ce39d9737)" style="fill: none; stroke: #eef2f7; stroke-width: 0.55; stroke-linecap: square"/>
     </g>
     <g id="line2d_6">
      <g>
       <use xlink:href="#mfa4819777d" x="273.922609" y="228.954713" style="stroke: #000000; stroke-width: 0.8"/>
      </g>
     </g>
     <g id="text_3">
      <!-- 50 -->
      <g transform="translate(268.196359 242.793307) scale(0.09 -0.09)">
       <use xlink:href="#DejaVuSans-35"/>
       <use xlink:href="#DejaVuSans-30" transform="translate(63.623047 0)"/>
      </g>
     </g>
    </g>
    <g id="xtick_4">
     <g id="line2d_7">
      <path d="M 389.788445 228.954713 
L 389.788445 17.061433 
" clip-path="url(#p3ce39d9737)" style="fill: none; stroke: #eef2f7; stroke-width: 0.55; stroke-linecap: square"/>
     </g>
     <g id="line2d_8">
      <g>
       <use xlink:href="#mfa4819777d" x="389.788445" y="228.954713" style="stroke: #000000; stroke-width: 0.8"/>
      </g>
     </g>
     <g id="text_4">
      <!-- 75 -->
      <g transform="translate(384.062195 242.793307) scale(0.09 -0.09)">
       <defs>
        <path id="DejaVuSans-37" d="M 525 4666 
L 3525 4666 
L 3525 4397 
L 1831 0 
L 1172 0 
L 2766 4134 
L 525 4134 
L 525 4666 
z
" transform="scale(0.015625)"/>
       </defs>
       <use xlink:href="#DejaVuSans-37"/>
       <use xlink:href="#DejaVuSans-35" transform="translate(63.623047 0)"/>
      </g>
     </g>
    </g>
    <g id="xtick_5">
     <g id="line2d_9">
      <path d="M 505.65428 228.954713 
L 505.65428 17.061433 
" clip-path="url(#p3ce39d9737)" style="fill: none; stroke: #eef2f7; stroke-width: 0.55; stroke-linecap: square"/>
     </g>
     <g id="line2d_10">
      <g>
       <use xlink:href="#mfa4819777d" x="505.65428" y="228.954713" style="stroke: #000000; stroke-width: 0.8"/>
      </g>
     </g>
     <g id="text_5">
      <!-- 100 -->
      <g transform="translate(497.064905 242.793307) scale(0.09 -0.09)">
       <defs>
        <path id="DejaVuSans-31" d="M 794 531 
L 1825 531 
L 1825 4091 
L 703 3866 
L 703 4441 
L 1819 4666 
L 2450 4666 
L 2450 531 
L 3481 531 
L 3481 0 
L 794 0 
L 794 531 
z
" transform="scale(0.015625)"/>
       </defs>
       <use xlink:href="#DejaVuSans-31"/>
       <use xlink:href="#DejaVuSans-30" transform="translate(63.623047 0)"/>
       <use xlink:href="#DejaVuSans-30" transform="translate(127.246094 0)"/>
      </g>
     </g>
    </g>
    <g id="xtick_6">
     <g id="line2d_11">
      <path d="M 621.520116 228.954713 
L 621.520116 17.061433 
" clip-path="url(#p3ce39d9737)" style="fill: none; stroke: #eef2f7; stroke-width: 0.55; stroke-linecap: square"/>
     </g>
     <g id="line2d_12">
      <g>
       <use xlink:href="#mfa4819777d" x="621.520116" y="228.954713" style="stroke: #000000; stroke-width: 0.8"/>
      </g>
     </g>
     <g id="text_6">
      <!-- 125 -->
      <g transform="translate(612.930741 242.793307) scale(0.09 -0.09)">
       <use xlink:href="#DejaVuSans-31"/>
       <use xlink:href="#DejaVuSans-32" transform="translate(63.623047 0)"/>
       <use xlink:href="#DejaVuSans-35" transform="translate(127.246094 0)"/>
      </g>
     </g>
    </g>
    <g id="xtick_7">
     <g id="line2d_13">
      <path d="M 737.385952 228.954713 
L 737.385952 17.061433 
" clip-path="url(#p3ce39d9737)" style="fill: none; stroke: #eef2f7; stroke-width: 0.55; stroke-linecap: square"/>
     </g>
     <g id="line2d_14">
      <g>
       <use xlink:href="#mfa4819777d" x="737.385952" y="228.954713" style="stroke: #000000; stroke-width: 0.8"/>
      </g>
     </g>
     <g id="text_7">
      <!-- 150 -->
      <g transform="translate(728.796577 242.793307) scale(0.09 -0.09)">
       <use xlink:href="#DejaVuSans-31"/>
       <use xlink:href="#DejaVuSans-35" transform="translate(63.623047 0)"/>
       <use xlink:href="#DejaVuSans-30" transform="translate(127.246094 0)"/>
      </g>
     </g>
    </g>
    <g id="xtick_8">
     <g id="line2d_15">
      <path d="M 853.251787 228.954713 
L 853.251787 17.061433 
" clip-path="url(#p3ce39d9737)" style="fill: none; stroke: #eef2f7; stroke-width: 0.55; stroke-linecap: square"/>
     </g>
     <g id="line2d_16">
      <g>
       <use xlink:href="#mfa4819777d" x="853.251787" y="228.954713" style="stroke: #000000; stroke-width: 0.8"/>
      </g>
     </g>
     <g id="text_8">
      <!-- 175 -->
      <g transform="translate(844.662412 242.793307) scale(0.09 -0.09)">
       <use xlink:href="#DejaVuSans-31"/>
       <use xlink:href="#DejaVuSans-37" transform="translate(63.623047 0)"/>
       <use xlink:href="#DejaVuSans-35" transform="translate(127.246094 0)"/>
      </g>
     </g>
    </g>
    <g id="text_9">
     <!-- Minutes since session start -->
     <g transform="translate(421.182344 256.263463) scale(0.1 -0.1)">
      <defs>
       <path id="DejaVuSans-4d" d="M 628 4666 
L 1569 4666 
L 2759 1491 
L 3956 4666 
L 4897 4666 
L 4897 0 
L 4281 0 
L 4281 4097 
L 3078 897 
L 2444 897 
L 1241 4097 
L 1241 0 
L 628 0 
L 628 4666 
z
" transform="scale(0.015625)"/>
       <path id="DejaVuSans-69" d="M 603 3500 
L 1178 3500 
L 1178 0 
L 603 0 
L 603 3500 
z
M 603 4863 
L 1178 4863 
L 1178 4134 
L 603 4134 
L 603 4863 
z
" transform="scale(0.015625)"/>
       <path id="DejaVuSans-6e" d="M 3513 2113 
L 3513 0 
L 2938 0 
L 2938 2094 
Q 2938 2591 2744 2837 
Q 2550 3084 2163 3084 
Q 1697 3084 1428 2787 
Q 1159 2491 1159 1978 
L 1159 0 
L 581 0 
L 581 3500 
L 1159 3500 
L 1159 2956 
Q 1366 3272 1645 3428 
Q 1925 3584 2291 3584 
Q 2894 3584 3203 3211 
Q 3513 2838 3513 2113 
z
" transform="scale(0.015625)"/>
       <path id="DejaVuSans-75" d="M 544 1381 
L 544 3500 
L 1119 3500 
L 1119 1403 
Q 1119 906 1312 657 
Q 1506 409 1894 409 
Q 2359 409 2629 706 
Q 2900 1003 2900 1516 
L 2900 3500 
L 3475 3500 
L 3475 0 
L 2900 0 
L 2900 538 
Q 2691 219 2414 64 
Q 2138 -91 1772 -91 
Q 1169 -91 856 284 
Q 544 659 544 1381 
z
M 1991 3584 
L 1991 3584 
z
" transform="scale(0.015625)"/>
       <path id="DejaVuSans-74" d="M 1172 4494 
L 1172 3500 
L 2356 3500 
L 2356 3053 
L 1172 3053 
L 1172 1153 
Q 1172 725 1289 603 
Q 1406 481 1766 481 
L 2356 481 
L 2356 0 
L 1766 0 
Q 1100 0 847 248 
Q 594 497 594 1153 
L 594 3053 
L 172 3053 
L 172 3500 
L 594 3500 
L 594 4494 
L 1172 4494 
z
" transform="scale(0.015625)"/>
       <path id="DejaVuSans-65" d="M 3597 1894 
L 3597 1613 
L 953 1613 
Q 991 1019 1311 708 
Q 1631 397 2203 397 
Q 2534 397 2845 478 
Q 3156 559 3463 722 
L 3463 178 
Q 3153 47 2828 -22 
Q 2503 -91 2169 -91 
Q 1331 -91 842 396 
Q 353 884 353 1716 
Q 353 2575 817 3079 
Q 1281 3584 2069 3584 
Q 2775 3584 3186 3129 
Q 3597 2675 3597 1894 
z
M 3022 2063 
Q 3016 2534 2758 2815 
Q 2500 3097 2075 3097 
Q 1594 3097 1305 2825 
Q 1016 2553 972 2059 
L 3022 2063 
z
" transform="scale(0.015625)"/>
       <path id="DejaVuSans-73" d="M 2834 3397 
L 2834 2853 
Q 2591 2978 2328 3040 
Q 2066 3103 1784 3103 
Q 1356 3103 1142 2972 
Q 928 2841 928 2578 
Q 928 2378 1081 2264 
Q 1234 2150 1697 2047 
L 1894 2003 
Q 2506 1872 2764 1633 
Q 3022 1394 3022 966 
Q 3022 478 2636 193 
Q 2250 -91 1575 -91 
Q 1294 -91 989 -36 
Q 684 19 347 128 
L 347 722 
Q 666 556 975 473 
Q 1284 391 1588 391 
Q 1994 391 2212 530 
Q 2431 669 2431 922 
Q 2431 1156 2273 1281 
Q 2116 1406 1581 1522 
L 1381 1569 
Q 847 1681 609 1914 
Q 372 2147 372 2553 
Q 372 3047 722 3315 
Q 1072 3584 1716 3584 
Q 2034 3584 2315 3537 
Q 2597 3491 2834 3397 
z
" transform="scale(0.015625)"/>
       <path id="DejaVuSans-20" transform="scale(0.015625)"/>
       <path id="DejaVuSans-63" d="M 3122 3366 
L 3122 2828 
Q 2878 2963 2633 3030 
Q 2388 3097 2138 3097 
Q 1578 3097 1268 2742 
Q 959 2388 959 1747 
Q 959 1106 1268 751 
Q 1578 397 2138 397 
Q 2388 397 2633 464 
Q 2878 531 3122 666 
L 3122 134 
Q 2881 22 2623 -34 
Q 2366 -91 2075 -91 
Q 1284 -91 818 406 
Q 353 903 353 1747 
Q 353 2603 823 3093 
Q 1294 3584 2113 3584 
Q 2378 3584 2631 3529 
Q 2884 3475 3122 3366 
z
" transform="scale(0.015625)"/>
       <path id="DejaVuSans-6f" d="M 1959 3097 
Q 1497 3097 1228 2736 
Q 959 2375 959 1747 
Q 959 1119 1226 758 
Q 1494 397 1959 397 
Q 2419 397 2687 759 
Q 2956 1122 2956 1747 
Q 2956 2369 2687 2733 
Q 2419 3097 1959 3097 
z
M 1959 3584 
Q 2709 3584 3137 3096 
Q 3566 2609 3566 1747 
Q 3566 888 3137 398 
Q 2709 -91 1959 -91 
Q 1206 -91 779 398 
Q 353 888 353 1747 
Q 353 2609 779 3096 
Q 1206 3584 1959 3584 
z
" transform="scale(0.015625)"/>
       <path id="DejaVuSans-61" d="M 2194 1759 
Q 1497 1759 1228 1600 
Q 959 1441 959 1056 
Q 959 750 1161 570 
Q 1363 391 1709 391 
Q 2188 391 2477 730 
Q 2766 1069 2766 1631 
L 2766 1759 
L 2194 1759 
z
M 3341 1997 
L 3341 0 
L 2766 0 
L 2766 531 
Q 2569 213 2275 61 
Q 1981 -91 1556 -91 
Q 1019 -91 701 211 
Q 384 513 384 1019 
Q 384 1609 779 1909 
Q 1175 2209 1959 2209 
L 2766 2209 
L 2766 2266 
Q 2766 2663 2505 2880 
Q 2244 3097 1772 3097 
Q 1472 3097 1187 3025 
Q 903 2953 641 2809 
L 641 3341 
Q 956 3463 1253 3523 
Q 1550 3584 1831 3584 
Q 2591 3584 2966 3190 
Q 3341 2797 3341 1997 
z
" transform="scale(0.015625)"/>
       <path id="DejaVuSans-72" d="M 2631 2963 
Q 2534 3019 2420 3045 
Q 2306 3072 2169 3072 
Q 1681 3072 1420 2755 
Q 1159 2438 1159 1844 
L 1159 0 
L 581 0 
L 581 3500 
L 1159 3500 
L 1159 2956 
Q 1341 3275 1631 3429 
Q 1922 3584 2338 3584 
Q 2397 3584 2469 3576 
Q 2541 3569 2628 3553 
L 2631 2963 
z
" transform="scale(0.015625)"/>
      </defs>
      <use xlink:href="#DejaVuSans-4d"/>
      <use xlink:href="#DejaVuSans-69" transform="translate(86.279297 0)"/>
      <use xlink:href="#DejaVuSans-6e" transform="translate(114.0625 0)"/>
      <use xlink:href="#DejaVuSans-75" transform="translate(177.441406 0)"/>
      <use xlink:href="#DejaVuSans-74" transform="translate(240.820312 0)"/>
      <use xlink:href="#DejaVuSans-65" transform="translate(280.029297 0)"/>
      <use xlink:href="#DejaVuSans-73" transform="translate(341.552734 0)"/>
      <use xlink:href="#DejaVuSans-20" transform="translate(393.652344 0)"/>
      <use xlink:href="#DejaVuSans-73" transform="translate(425.439453 0)"/>
      <use xlink:href="#DejaVuSans-69" transform="translate(477.539062 0)"/>
      <use xlink:href="#DejaVuSans-6e" transform="translate(505.322266 0)"/>
      <use xlink:href="#DejaVuSans-63" transform="translate(568.701172 0)"/>
      <use xlink:href="#DejaVuSans-65" transform="translate(623.681641 0)"/>
      <use xlink:href="#DejaVuSans-20" transform="translate(685.205078 0)"/>
      <use xlink:href="#DejaVuSans-73" transform="translate(716.992188 0)"/>
      <use xlink:href="#DejaVuSans-65" transform="translate(769.091797 0)"/>
      <use xlink:href="#DejaVuSans-73" transform="translate(830.615234 0)"/>
      <use xlink:href="#DejaVuSans-73" transform="translate(882.714844 0)"/>
      <use xlink:href="#DejaVuSans-69" transform="translate(934.814453 0)"/>
      <use xlink:href="#DejaVuSans-6f" transform="translate(962.597656 0)"/>
      <use xlink:href="#DejaVuSans-6e" transform="translate(1023.779297 0)"/>
      <use xlink:href="#DejaVuSans-20" transform="translate(1087.158203 0)"/>
      <use xlink:href="#DejaVuSans-73" transform="translate(1118.945312 0)"/>
      <use xlink:href="#DejaVuSans-74" transform="translate(1171.044922 0)"/>
      <use xlink:href="#DejaVuSans-61" transform="translate(1210.253906 0)"/>
      <use xlink:href="#DejaVuSans-72" transform="translate(1271.533203 0)"/>
      <use xlink:href="#DejaVuSans-74" transform="translate(1312.646484 0)"/>
     </g>
    </g>
   </g>
   <g id="matplotlib.axis_2">
    <g id="ytick_1">
     <g id="line2d_17">
      <path d="M 42.190938 219.06894 
L 935.353438 219.06894 
" clip-path="url(#p3ce39d9737)" style="fill: none; stroke: #eef2f7; stroke-opacity: 0.25; stroke-width: 0.55; stroke-linecap: square"/>
     </g>
     <g id="line2d_18">
      <defs>
       <path id="m55013242cf" d="M 0 0 
L -3.5 0 
" style="stroke: #000000; stroke-width: 0.8"/>
      </defs>
      <g>
       <use xlink:href="#m55013242cf" x="42.190938" y="219.06894" style="stroke: #000000; stroke-width: 0.8"/>
      </g>
     </g>
     <g id="text_10">
      <!-- 0.8 -->
      <g transform="translate(20.878125 222.488237) scale(0.09 -0.09)">
       <defs>
        <path id="DejaVuSans-2e" d="M 684 794 
L 1344 794 
L 1344 0 
L 684 0 
L 684 794 
z
" transform="scale(0.015625)"/>
        <path id="DejaVuSans-38" d="M 2034 2216 
Q 1584 2216 1326 1975 
Q 1069 1734 1069 1313 
Q 1069 891 1326 650 
Q 1584 409 2034 409 
Q 2484 409 2743 651 
Q 3003 894 3003 1313 
Q 3003 1734 2745 1975 
Q 2488 2216 2034 2216 
z
M 1403 2484 
Q 997 2584 770 2862 
Q 544 3141 544 3541 
Q 544 4100 942 4425 
Q 1341 4750 2034 4750 
Q 2731 4750 3128 4425 
Q 3525 4100 3525 3541 
Q 3525 3141 3298 2862 
Q 3072 2584 2669 2484 
Q 3125 2378 3379 2068 
Q 3634 1759 3634 1313 
Q 3634 634 3220 271 
Q 2806 -91 2034 -91 
Q 1263 -91 848 271 
Q 434 634 434 1313 
Q 434 1759 690 2068 
Q 947 2378 1403 2484 
z
M 1172 3481 
Q 1172 3119 1398 2916 
Q 1625 2713 2034 2713 
Q 2441 2713 2670 2916 
Q 2900 3119 2900 3481 
Q 2900 3844 2670 4047 
Q 2441 4250 2034 4250 
Q 1625 4250 1398 4047 
Q 1172 3844 1172 3481 
z
" transform="scale(0.015625)"/>
       </defs>
       <use xlink:href="#DejaVuSans-30"/>
       <use xlink:href="#DejaVuSans-2e" transform="translate(63.623047 0)"/>
       <use xlink:href="#DejaVuSans-38" transform="translate(95.410156 0)"/>
      </g>
     </g>
    </g>
    <g id="ytick_2">
     <g id="line2d_19">
      <path d="M 42.190938 190.636914 
L 935.353438 190.636914 
" clip-path="url(#p3ce39d9737)" style="fill: none; stroke: #eef2f7; stroke-opacity: 0.25; stroke-width: 0.55; stroke-linecap: square"/>
     </g>
     <g id="line2d_20">
      <g>
       <use xlink:href="#m55013242cf" x="42.190938" y="190.636914" style="stroke: #000000; stroke-width: 0.8"/>
      </g>
     </g>
     <g id="text_11">
      <!-- 1.0 -->
      <g transform="translate(20.878125 194.05621) scale(0.09 -0.09)">
       <use xlink:href="#DejaVuSans-31"/>
       <use xlink:href="#DejaVuSans-2e" transform="translate(63.623047 0)"/>
       <use xlink:href="#DejaVuSans-30" transform="translate(95.410156 0)"/>
      </g>
     </g>
    </g>
    <g id="ytick_3">
     <g id="line2d_21">
      <path d="M 42.190938 162.204887 
L 935.353438 162.204887 
" clip-path="url(#p3ce39d9737)" style="fill: none; stroke: #eef2f7; stroke-opacity: 0.25; stroke-width: 0.55; stroke-linecap: square"/>
     </g>
     <g id="line2d_22">
      <g>
       <use xlink:href="#m55013242cf" x="42.190938" y="162.204887" style="stroke: #000000; stroke-width: 0.8"/>
      </g>
     </g>
     <g id="text_12">
      <!-- 1.2 -->
      <g transform="translate(20.878125 165.624184) scale(0.09 -0.09)">
       <use xlink:href="#DejaVuSans-31"/>
       <use xlink:href="#DejaVuSans-2e" transform="translate(63.623047 0)"/>
       <use xlink:href="#DejaVuSans-32" transform="translate(95.410156 0)"/>
      </g>
     </g>
    </g>
    <g id="ytick_4">
     <g id="line2d_23">
      <path d="M 42.190938 133.77286 
L 935.353438 133.77286 
" clip-path="url(#p3ce39d9737)" style="fill: none; stroke: #eef2f7; stroke-opacity: 0.25; stroke-width: 0.55; stroke-linecap: square"/>
     </g>
     <g id="line2d_24">
      <g>
       <use xlink:href="#m55013242cf" x="42.190938" y="133.77286" style="stroke: #000000; stroke-width: 0.8"/>
      </g>
     </g>
     <g id="text_13">
      <!-- 1.4 -->
      <g transform="translate(20.878125 137.192157) scale(0.09 -0.09)">
       <defs>
        <path id="DejaVuSans-34" d="M 2419 4116 
L 825 1625 
L 2419 1625 
L 2419 4116 
z
M 2253 4666 
L 3047 4666 
L 3047 1625 
L 3713 1625 
L 3713 1100 
L 3047 1100 
L 3047 0 
L 2419 0 
L 2419 1100 
L 313 1100 
L 313 1709 
L 2253 4666 
z
" transform="scale(0.015625)"/>
       </defs>
       <use xlink:href="#DejaVuSans-31"/>
       <use xlink:href="#DejaVuSans-2e" transform="translate(63.623047 0)"/>
       <use xlink:href="#DejaVuSans-34" transform="translate(95.410156 0)"/>
      </g>
     </g>
    </g>
    <g id="ytick_5">
     <g id="line2d_25">
      <path d="M 42.190938 105.340833 
L 935.353438 105.340833 
" clip-path="url(#p3ce39d9737)" style="fill: none; stroke: #eef2f7; stroke-opacity: 0.25; stroke-width: 0.55; stroke-linecap: square"/>
     </g>
     <g id="line2d_26">
      <g>
       <use xlink:href="#m55013242cf" x="42.190938" y="105.340833" style="stroke: #000000; stroke-width: 0.8"/>
      </g>
     </g>
     <g id="text_14">
      <!-- 1.6 -->
      <g transform="translate(20.878125 108.76013) scale(0.09 -0.09)">
       <defs>
        <path id="DejaVuSans-36" d="M 2113 2584 
Q 1688 2584 1439 2293 
Q 1191 2003 1191 1497 
Q 1191 994 1439 701 
Q 1688 409 2113 409 
Q 2538 409 2786 701 
Q 3034 994 3034 1497 
Q 3034 2003 2786 2293 
Q 2538 2584 2113 2584 
z
M 3366 4563 
L 3366 3988 
Q 3128 4100 2886 4159 
Q 2644 4219 2406 4219 
Q 1781 4219 1451 3797 
Q 1122 3375 1075 2522 
Q 1259 2794 1537 2939 
Q 1816 3084 2150 3084 
Q 2853 3084 3261 2657 
Q 3669 2231 3669 1497 
Q 3669 778 3244 343 
Q 2819 -91 2113 -91 
Q 1303 -91 875 529 
Q 447 1150 447 2328 
Q 447 3434 972 4092 
Q 1497 4750 2381 4750 
Q 2619 4750 2861 4703 
Q 3103 4656 3366 4563 
z
" transform="scale(0.015625)"/>
       </defs>
       <use xlink:href="#DejaVuSans-31"/>
       <use xlink:href="#DejaVuSans-2e" transform="translate(63.623047 0)"/>
       <use xlink:href="#DejaVuSans-36" transform="translate(95.410156 0)"/>
      </g>
     </g>
    </g>
    <g id="ytick_6">
     <g id="line2d_27">
      <path d="M 42.190938 76.908807 
L 935.353438 76.908807 
" clip-path="url(#p3ce39d9737)" style="fill: none; stroke: #eef2f7; stroke-opacity: 0.25; stroke-width: 0.55; stroke-linecap: square"/>
     </g>
     <g id="line2d_28">
      <g>
       <use xlink:href="#m55013242cf" x="42.190938" y="76.908807" style="stroke: #000000; stroke-width: 0.8"/>
      </g>
     </g>
     <g id="text_15">
      <!-- 1.8 -->
      <g transform="translate(20.878125 80.328104) scale(0.09 -0.09)">
       <use xlink:href="#DejaVuSans-31"/>
       <use xlink:href="#DejaVuSans-2e" transform="translate(63.623047 0)"/>
       <use xlink:href="#DejaVuSans-38" transform="translate(95.410156 0)"/>
      </g>
     </g>
    </g>
    <g id="ytick_7">
     <g id="line2d_29">
      <path d="M 42.190938 48.47678 
L 935.353438 48.47678 
" clip-path="url(#p3ce39d9737)" style="fill: none; stroke: #eef2f7; stroke-opacity: 0.25; stroke-width: 0.55; stroke-linecap: square"/>
     </g>
     <g id="line2d_30">
      <g>
       <use xlink:href="#m55013242cf" x="42.190938" y="48.47678" style="stroke: #000000; stroke-width: 0.8"/>
      </g>
     </g>
     <g id="text_16">
      <!-- 2.0 -->
      <g transform="translate(20.878125 51.896077) scale(0.09 -0.09)">
       <use xlink:href="#DejaVuSans-32"/>
       <use xlink:href="#DejaVuSans-2e" transform="translate(63.623047 0)"/>
       <use xlink:href="#DejaVuSans-30" transform="translate(95.410156 0)"/>
      </g>
     </g>
    </g>
    <g id="ytick_8">
     <g id="line2d_31">
      <path d="M 42.190938 20.044753 
L 935.353438 20.044753 
" clip-path="url(#p3ce39d9737)" style="fill: none; stroke: #eef2f7; stroke-opacity: 0.25; stroke-width: 0.55; stroke-linecap: square"/>
     </g>
     <g id="line2d_32">
      <g>
       <use xlink:href="#m55013242cf" x="42.190938" y="20.044753" style="stroke: #000000; stroke-width: 0.8"/>
      </g>
     </g>
     <g id="text_17">
      <!-- 2.2 -->
      <g transform="translate(20.878125 23.46405) scale(0.09 -0.09)">
       <use xlink:href="#DejaVuSans-32"/>
       <use xlink:href="#DejaVuSans-2e" transform="translate(63.623047 0)"/>
       <use xlink:href="#DejaVuSans-32" transform="translate(95.410156 0)"/>
      </g>
     </g>
    </g>
    <g id="text_18">
     <!-- EDA (uS) -->
     <g transform="translate(14.798438 145.183854) rotate(-90) scale(0.1 -0.1)">
      <defs>
       <path id="DejaVuSans-45" d="M 628 4666 
L 3578 4666 
L 3578 4134 
L 1259 4134 
L 1259 2753 
L 3481 2753 
L 3481 2222 
L 1259 2222 
L 1259 531 
L 3634 531 
L 3634 0 
L 628 0 
L 628 4666 
z
" transform="scale(0.015625)"/>
       <path id="DejaVuSans-44" d="M 1259 4147 
L 1259 519 
L 2022 519 
Q 2988 519 3436 956 
Q 3884 1394 3884 2338 
Q 3884 3275 3436 3711 
Q 2988 4147 2022 4147 
L 1259 4147 
z
M 628 4666 
L 1925 4666 
Q 3281 4666 3915 4102 
Q 4550 3538 4550 2338 
Q 4550 1131 3912 565 
Q 3275 0 1925 0 
L 628 0 
L 628 4666 
z
" transform="scale(0.015625)"/>
       <path id="DejaVuSans-41" d="M 2188 4044 
L 1331 1722 
L 3047 1722 
L 2188 4044 
z
M 1831 4666 
L 2547 4666 
L 4325 0 
L 3669 0 
L 3244 1197 
L 1141 1197 
L 716 0 
L 50 0 
L 1831 4666 
z
" transform="scale(0.015625)"/>
       <path id="DejaVuSans-28" d="M 1984 4856 
Q 1566 4138 1362 3434 
Q 1159 2731 1159 2009 
Q 1159 1288 1364 580 
Q 1569 -128 1984 -844 
L 1484 -844 
Q 1016 -109 783 600 
Q 550 1309 550 2009 
Q 550 2706 781 3412 
Q 1013 4119 1484 4856 
L 1984 4856 
z
" transform="scale(0.015625)"/>
       <path id="DejaVuSans-53" d="M 3425 4513 
L 3425 3897 
Q 3066 4069 2747 4153 
Q 2428 4238 2131 4238 
Q 1616 4238 1336 4038 
Q 1056 3838 1056 3469 
Q 1056 3159 1242 3001 
Q 1428 2844 1947 2747 
L 2328 2669 
Q 3034 2534 3370 2195 
Q 3706 1856 3706 1288 
Q 3706 609 3251 259 
Q 2797 -91 1919 -91 
Q 1588 -91 1214 -16 
Q 841 59 441 206 
L 441 856 
Q 825 641 1194 531 
Q 1563 422 1919 422 
Q 2459 422 2753 634 
Q 3047 847 3047 1241 
Q 3047 1584 2836 1778 
Q 2625 1972 2144 2069 
L 1759 2144 
Q 1053 2284 737 2584 
Q 422 2884 422 3419 
Q 422 4038 858 4394 
Q 1294 4750 2059 4750 
Q 2388 4750 2728 4690 
Q 3069 4631 3425 4513 
z
" transform="scale(0.015625)"/>
       <path id="DejaVuSans-29" d="M 513 4856 
L 1013 4856 
Q 1481 4119 1714 3412 
Q 1947 2706 1947 2009 
Q 1947 1309 1714 600 
Q 1481 -109 1013 -844 
L 513 -844 
Q 928 -128 1133 580 
Q 1338 1288 1338 2009 
Q 1338 2731 1133 3434 
Q 928 4138 513 4856 
z
" transform="scale(0.015625)"/>
      </defs>
      <use xlink:href="#DejaVuSans-45"/>
      <use xlink:href="#DejaVuSans-44" transform="translate(63.183594 0)"/>
      <use xlink:href="#DejaVuSans-41" transform="translate(138.435547 0)"/>
      <use xlink:href="#DejaVuSans-20" transform="translate(206.84375 0)"/>
      <use xlink:href="#DejaVuSans-28" transform="translate(238.630859 0)"/>
      <use xlink:href="#DejaVuSans-75" transform="translate(277.644531 0)"/>
      <use xlink:href="#DejaVuSans-53" transform="translate(341.023438 0)"/>
      <use xlink:href="#DejaVuSans-29" transform="translate(404.5 0)"/>
     </g>
    </g>
   </g>
   <g id="line2d_33">
    <path d="M 42.203644 142.957678 
L 42.512619 143.068612 
L 42.821595 143.45588 
L 43.439546 142.237574 
L 43.748521 138.695606 
L 44.057497 137.311289 
L 44.366473 137.930543 
L 44.675448 137.537207 
L 44.984424 138.142327 
L 45.293399 135.568547 
L 45.602375 137.151955 
L 45.91135 137.765142 
L 46.529302 138.479179 
L 46.838277 138.218977 
L 47.147253 128.996948 
L 47.456228 130.023636 
L 47.765204 129.099815 
L 48.074179 120.20657 
L 48.383155 126.068166 
L 48.69213 126.810454 
L 49.001106 124.18624 
L 49.310082 119.762818 
L 49.928033 123.863505 
L 50.237008 115.829532 
L 50.545984 119.843502 
L 50.854959 111.052515 
L 51.163935 115.960039 
L 51.472911 117.541414 
L 52.399837 119.659341 
L 53.017788 120.980514 
L 53.326764 120.865547 
L 53.635739 121.359733 
L 54.253691 122.719223 
L 54.562666 119.612941 
L 55.180617 115.53242 
L 55.489593 118.83637 
L 55.798568 117.783465 
L 56.107544 119.822725 
L 56.725495 121.724818 
L 57.343446 115.972139 
L 57.961397 107.655781 
L 58.270373 97.477663 
L 58.579348 106.469742 
L 58.888324 98.272384 
L 59.1973 103.54701 
L 60.124226 106.774327 
L 60.433202 94.813117 
L 60.742177 101.689301 
L 61.051153 100.519395 
L 61.360128 94.575099 
L 61.669104 78.316941 
L 61.97808 68.764109 
L 62.287055 80.931054 
L 62.596031 85.340376 
L 62.905006 76.687149 
L 63.213982 76.541932 
L 63.522957 81.161005 
L 63.831933 70.591586 
L 64.140909 67.876605 
L 64.449884 74.373571 
L 64.75886 77.266052 
L 65.067835 78.502508 
L 65.376811 78.742543 
L 65.685786 77.290252 
L 65.994762 77.802588 
L 66.303737 79.638114 
L 66.921689 63.305322 
L 67.230664 48.26003 
L 67.53964 65.507967 
L 67.848615 62.653819 
L 68.157591 68.386314 
L 68.466566 70.181507 
L 68.775542 70.619209 
L 69.084518 72.591902 
L 69.393493 73.669007 
L 69.702469 73.852575 
L 70.32042 76.347688 
L 70.629395 76.482822 
L 71.247346 79.464053 
L 71.556322 79.435803 
L 71.865298 78.044029 
L 72.174273 74.968014 
L 72.483249 79.683904 
L 72.792224 75.657851 
L 73.1012 80.262807 
L 73.410175 82.19515 
L 73.719151 82.778086 
L 74.028127 78.554349 
L 74.337102 71.795165 
L 74.646078 78.134796 
L 74.955053 75.411766 
L 75.264029 69.612687 
L 75.573004 75.462183 
L 75.88198 78.8448 
L 76.190955 75.968469 
L 76.499931 79.645587 
L 76.808907 80.539142 
L 77.117882 78.324397 
L 77.426858 80.573442 
L 78.044809 82.683286 
L 78.353784 82.77002 
L 78.66276 83.800742 
L 78.971736 82.753886 
L 79.280711 83.082671 
L 79.589687 84.77498 
L 79.898662 83.812842 
L 80.207638 84.724563 
L 80.516613 86.386621 
L 80.825589 81.48313 
L 81.134564 83.861259 
L 81.44354 77.687011 
L 81.752516 82.015633 
L 82.061491 84.282827 
L 82.370467 82.87692 
L 82.679442 85.019048 
L 82.988418 86.219204 
L 83.297393 83.927809 
L 83.606369 79.934022 
L 83.915345 82.221384 
L 84.22432 77.43891 
L 84.533296 82.461401 
L 84.842271 82.160867 
L 85.151247 81.539614 
L 85.460222 81.521464 
L 86.078173 84.331227 
L 86.387149 84.956514 
L 86.696125 85.991269 
L 87.0051 84.508728 
L 87.314076 86.70734 
L 87.623051 83.060471 
L 87.932027 83.54054 
L 88.241002 86.654889 
L 88.549978 84.436111 
L 88.858954 87.245892 
L 89.476905 89.351703 
L 89.78588 89.896322 
L 90.094856 90.765676 
L 90.403831 91.054111 
L 90.712807 91.957749 
L 91.021782 90.890727 
L 91.330758 92.835187 
L 91.639734 93.924392 
L 91.948709 94.533545 
L 92.257685 94.763496 
L 92.56666 95.931386 
L 92.875636 89.803538 
L 93.184611 93.121605 
L 93.493587 92.306718 
L 94.111538 95.768002 
L 94.420514 96.762406 
L 94.729489 95.300032 
L 95.038465 95.43115 
L 95.34744 95.082198 
L 95.656416 95.852719 
L 95.965391 95.332316 
L 96.583343 97.736645 
L 96.892318 90.509509 
L 97.819245 95.394833 
L 98.12822 95.453333 
L 98.437196 95.852719 
L 99.055147 97.583361 
L 99.673098 98.983201 
L 99.982074 98.196547 
L 100.600025 88.056746 
L 100.909 91.703615 
L 101.217976 93.910275 
L 101.526952 93.266839 
L 101.835927 94.604146 
L 102.144903 91.394996 
L 102.453878 94.380261 
L 102.762854 95.846669 
L 103.071829 96.02417 
L 103.380805 93.934475 
L 103.68978 93.761008 
L 103.998756 95.45535 
L 104.307732 93.230522 
L 104.616707 95.911202 
L 104.925683 82.072116 
L 105.234658 91.019828 
L 105.543634 93.016721 
L 105.852609 93.924392 
L 106.161585 93.898175 
L 106.470561 89.755121 
L 107.088512 94.22091 
L 107.397487 95.027731 
L 107.706463 84.547062 
L 108.015438 89.010818 
L 108.942365 82.941471 
L 109.560316 86.124403 
L 109.869292 87.122841 
L 110.178267 87.493993 
L 110.487243 88.24433 
L 110.796218 88.151547 
L 111.105194 80.958694 
L 111.41417 69.564287 
L 111.723145 66.028369 
L 112.032121 72.004932 
L 112.341096 69.471503 
L 112.650072 73.328139 
L 112.959047 69.56832 
L 113.268023 74.659396 
L 113.576998 76.119753 
L 113.885974 72.045283 
L 114.19495 74.588795 
L 114.503925 75.399666 
L 115.121876 78.09043 
L 115.430852 79.062651 
L 115.739827 73.388639 
L 116.357779 77.959312 
L 116.666754 73.283756 
L 116.97573 78.308264 
L 117.284705 80.061106 
L 118.211626 82.568319 
L 118.520603 66.942107 
L 119.138556 59.491053 
L 119.447532 67.200292 
L 119.756509 64.406644 
L 120.065485 67.859862 
L 120.374462 69.548154 
L 120.683438 65.538217 
L 120.992415 51.824181 
L 121.301391 63.010837 
L 121.610367 65.152965 
L 121.919344 57.970196 
L 122.22832 26.692946 
L 122.537297 50.8332 
L 123.15525 54.937937 
L 123.464226 55.718541 
L 123.773203 55.119471 
L 124.082179 56.85213 
L 124.391156 52.543675 
L 124.700132 55.918225 
L 125.009109 56.341811 
L 125.318085 59.290759 
L 125.627062 58.707822 
L 125.936038 60.575632 
L 126.553991 56.414428 
L 126.862968 47.763218 
L 127.171944 58.604955 
L 127.480921 61.083934 
L 127.789897 58.487972 
L 128.098874 61.392536 
L 128.40785 59.776878 
L 128.716827 52.335907 
L 129.025803 58.504105 
L 129.643756 61.826222 
L 130.570685 64.488735 
L 130.879662 65.059571 
L 131.497615 52.307674 
L 131.806591 62.93156 
L 132.115568 64.391918 
L 132.424544 63.579047 
L 132.733521 66.001542 
L 133.042497 67.377183 
L 133.351474 68.020619 
L 134.278403 71.336686 
L 134.58738 68.653989 
L 134.896356 71.387103 
L 135.205333 70.794083 
L 135.514309 72.387574 
L 135.823286 71.693704 
L 136.132262 72.091056 
L 136.441239 74.267484 
L 136.750215 73.839865 
L 137.059192 76.117126 
L 137.368168 75.173138 
L 137.986121 78.295554 
L 138.295098 70.8889 
L 138.604074 75.435356 
L 139.222027 78.598122 
L 139.531004 71.584787 
L 139.83998 75.752041 
L 140.148956 76.691996 
L 140.457933 78.559788 
L 140.766909 78.852273 
L 141.075886 70.882833 
L 141.384862 76.623412 
L 141.693839 78.051503 
L 142.002815 77.412083 
L 142.311792 76.123176 
L 142.620768 77.115581 
L 142.929745 56.731096 
L 143.238721 70.784 
L 143.547698 72.932177 
L 143.856674 73.730931 
L 144.165651 70.560115 
L 144.474627 74.075849 
L 144.783604 74.941187 
L 145.09258 70.305964 
L 145.401557 72.476325 
L 145.710533 73.815648 
L 146.01951 74.338084 
L 146.328486 70.199064 
L 146.637463 74.166633 
L 146.946439 74.428851 
L 147.255416 65.380289 
L 147.564392 73.462663 
L 148.491321 77.107515 
L 148.800298 73.184312 
L 149.109274 76.288577 
L 149.418251 74.378418 
L 149.727227 77.361666 
L 150.036204 71.171285 
L 150.34518 72.369424 
L 150.654157 68.547072 
L 150.963133 67.4619 
L 151.27211 72.980594 
L 151.581086 58.907524 
L 151.890063 65.406506 
L 152.199039 62.85491 
L 152.508016 66.118526 
L 152.816992 66.997964 
L 153.125969 66.358561 
L 153.434945 53.647014 
L 153.743922 57.013497 
L 154.361875 60.492931 
L 154.979828 62.191307 
L 155.288804 63.706114 
L 155.597781 63.316829 
L 155.906757 61.858488 
L 156.215734 66.271827 
L 157.760616 73.303329 
L 158.069592 70.707349 
L 158.378569 74.1989 
L 158.687545 69.743194 
L 158.996522 73.369879 
L 159.923451 78.390371 
L 160.232428 79.525977 
L 160.541404 73.412246 
L 160.850381 78.27337 
L 161.159357 78.192687 
L 161.77731 81.894005 
L 162.086287 82.15219 
L 162.395263 77.952652 
L 162.70424 81.910139 
L 163.013216 83.431013 
L 163.322193 83.957466 
L 163.631169 85.214105 
L 164.249122 86.511079 
L 164.867075 88.310287 
L 165.176052 89.236125 
L 165.485028 73.331562 
L 165.794005 83.318063 
L 166.411957 86.991131 
L 166.720934 85.216122 
L 167.02991 85.42589 
L 167.338887 81.296952 
L 167.647863 80.80075 
L 167.95684 83.134495 
L 168.265816 82.686709 
L 168.574793 75.596724 
L 168.883769 81.232402 
L 169.192746 82.366008 
L 169.501722 82.755293 
L 169.810699 79.54816 
L 170.119675 82.303474 
L 170.428652 79.255692 
L 170.737628 80.19563 
L 171.046605 78.715106 
L 171.355581 81.926272 
L 171.664558 82.327674 
L 171.973534 82.94691 
L 172.282511 84.356851 
L 172.591487 85.151572 
L 172.900464 80.705949 
L 173.20944 84.399201 
L 173.518417 69.224808 
L 173.827393 65.707041 
L 174.13637 72.696193 
L 174.445346 74.870587 
L 175.063299 69.138075 
L 175.372276 73.831798 
L 175.681252 70.529848 
L 175.990228 59.52071 
L 176.299205 68.627755 
L 176.608181 69.971129 
L 176.917158 70.751733 
L 177.226134 66.316211 
L 177.535111 67.740251 
L 177.844087 71.088585 
L 178.153064 72.026523 
L 178.46204 65.767558 
L 178.771017 62.709693 
L 179.079993 68.633805 
L 179.697946 71.725971 
L 180.006923 71.298352 
L 180.315899 73.103628 
L 180.624876 70.150647 
L 180.933852 73.904415 
L 181.242829 74.939154 
L 181.551805 76.542728 
L 181.860782 77.145832 
L 182.169758 75.175155 
L 182.478735 78.13622 
L 182.787711 77.155915 
L 183.096688 66.747863 
L 183.405664 67.572834 
L 183.714641 73.858015 
L 184.332593 76.125193 
L 184.64157 76.78478 
L 184.950546 74.729386 
L 185.568499 77.151882 
L 185.877476 76.881597 
L 186.186452 72.016439 
L 186.495429 76.669813 
L 187.113382 77.902235 
L 187.731335 80.385248 
L 188.349288 82.644359 
L 188.658264 73.45258 
L 188.967241 78.82404 
L 189.585194 82.301457 
L 190.512123 84.842953 
L 190.8211 83.915116 
L 191.130076 85.385556 
L 191.439053 85.976542 
L 191.748029 87.053664 
L 192.057006 87.529683 
L 192.365982 82.680659 
L 192.674959 86.381978 
L 192.983935 85.43194 
L 193.292911 87.473217 
L 193.601888 86.17221 
L 194.528817 89.359176 
L 194.837794 81.530937 
L 195.14677 79.925345 
L 195.455747 85.052738 
L 196.0737 87.166615 
L 196.382676 87.709218 
L 196.691653 87.077865 
L 197.000629 88.150953 
L 197.309606 88.725806 
L 197.618582 88.774223 
L 197.927559 84.143033 
L 198.236535 87.098031 
L 198.545512 88.574539 
L 198.854488 88.836757 
L 199.163465 89.55886 
L 199.472441 89.992529 
L 199.781418 89.845278 
L 200.090394 90.053046 
L 200.399371 88.090436 
L 200.708347 80.068563 
L 201.3263 84.90952 
L 201.635277 73.954832 
L 201.944253 83.025578 
L 202.25323 79.082225 
L 202.562206 77.6037 
L 202.871182 80.613165 
L 203.489135 69.083625 
L 203.798112 68.206187 
L 204.107088 70.638782 
L 204.725041 72.137456 
L 205.342994 61.041567 
L 205.651971 66.727679 
L 205.960947 68.928307 
L 206.269924 70.092146 
L 206.5789 70.505648 
L 206.887877 70.305964 
L 207.50583 73.055228 
L 207.814806 65.781675 
L 208.123783 72.605409 
L 208.741736 75.929542 
L 209.668665 79.400909 
L 210.904571 83.009444 
L 211.522524 85.327056 
L 211.8315 85.837375 
L 212.140477 87.071815 
L 212.75843 88.221537 
L 213.067406 89.526594 
L 213.685359 87.836285 
L 213.994336 90.212397 
L 214.303312 91.384303 
L 214.612289 85.742575 
L 214.921265 90.575466 
L 215.230242 85.611457 
L 215.539218 90.817517 
L 216.157171 92.302074 
L 216.466148 92.721626 
L 216.775124 80.738233 
L 217.084101 87.392533 
L 217.393077 88.927524 
L 217.702054 89.633494 
L 218.320007 89.954212 
L 218.628983 88.568472 
L 218.93796 89.794862 
L 219.555912 90.930467 
L 219.864889 89.921929 
L 220.173865 87.049631 
L 220.482842 90.514948 
L 220.791818 91.606187 
L 221.409771 92.471508 
L 221.718748 93.726114 
L 222.027724 91.910755 
L 222.336701 85.40169 
L 222.645677 70.116363 
L 222.954654 83.535897 
L 223.26363 85.724425 
L 223.572607 86.886247 
L 224.19056 87.735435 
L 224.499536 88.08237 
L 224.808513 81.040784 
L 225.117489 85.204005 
L 225.426466 79.138691 
L 225.735442 83.55203 
L 226.044419 83.915116 
L 226.353395 85.072905 
L 226.662372 85.177788 
L 227.280325 86.702696 
L 227.589301 87.672901 
L 227.898278 88.090436 
L 228.825207 90.809433 
L 229.134183 91.323786 
L 229.44316 73.125811 
L 229.752136 69.886412 
L 230.061113 76.026359 
L 230.370089 76.663746 
L 230.679066 80.203714 
L 230.988042 70.784 
L 231.297019 57.318066 
L 231.605995 71.171285 
L 231.914972 72.030556 
L 232.223948 61.64467 
L 232.532925 70.217214 
L 232.841901 70.810233 
L 233.150878 69.43056 
L 233.459854 72.625592 
L 233.768831 67.173448 
L 234.077807 72.371441 
L 234.386784 72.274624 
L 234.69576 72.056773 
L 235.004737 72.807127 
L 235.313713 74.697119 
L 235.62269 75.766158 
L 235.931666 70.628699 
L 236.240643 71.613021 
L 236.549619 73.383996 
L 236.858596 76.334978 
L 237.167572 74.051649 
L 237.476549 70.606499 
L 237.785525 75.401073 
L 238.094502 76.591146 
L 238.403478 75.368789 
L 238.712454 77.151882 
L 239.021431 75.733891 
L 239.330407 77.030864 
L 239.639384 77.589584 
L 240.257337 80.320697 
L 240.566313 75.992076 
L 240.87529 75.035988 
L 241.184266 78.914807 
L 241.493243 80.7947 
L 242.111196 82.658476 
L 242.420172 82.91061 
L 242.729149 82.13404 
L 243.038125 84.562585 
L 243.347102 85.50859 
L 243.656078 86.059243 
L 243.965055 86.960881 
L 244.274031 85.51464 
L 244.583008 82.138073 
L 244.891984 86.75918 
L 245.200961 86.888264 
L 245.509937 89.008208 
L 245.818914 88.122703 
L 246.436866 90.434265 
L 246.745843 90.282981 
L 247.054819 89.290592 
L 247.363796 91.146285 
L 247.672772 91.55172 
L 248.290725 93.48003 
L 248.599702 90.15793 
L 248.908678 92.560259 
L 249.526631 95.188488 
L 249.835608 95.370023 
L 250.453561 94.309051 
L 250.762537 96.265611 
L 251.071514 91.055518 
L 251.38049 88.11262 
L 251.689467 92.75591 
L 251.998443 94.030699 
L 252.30742 94.815337 
L 252.616396 95.077555 
L 252.925373 95.190505 
L 253.234349 95.712924 
L 253.543326 96.493528 
L 253.852302 95.708891 
L 254.470255 97.247915 
L 254.779232 97.296333 
L 255.088208 97.802618 
L 255.397185 98.732473 
L 255.706161 98.778873 
L 256.324114 100.519599 
L 256.63309 101.120685 
L 256.942065 99.045125 
L 257.25104 95.827909 
L 257.560016 98.936207 
L 257.868991 100.697099 
L 258.177967 101.471653 
L 258.486943 101.55032 
L 258.795918 102.577009 
L 259.104894 102.583059 
L 259.413869 101.122702 
L 259.722845 101.852872 
L 260.03182 103.422163 
L 260.340796 99.490893 
L 260.649772 99.738995 
L 260.958747 101.663271 
L 261.267723 102.449925 
L 261.576698 102.460025 
L 261.885674 102.10299 
L 262.194649 103.47863 
L 262.503625 103.916332 
L 262.812601 104.636436 
L 263.121576 101.731855 
L 263.430552 102.08484 
L 264.048503 104.622319 
L 264.357479 104.335884 
L 264.666454 105.322239 
L 264.97543 104.930921 
L 265.284405 105.534024 
L 265.593381 103.56133 
L 265.902356 105.743808 
L 266.211332 104.654586 
L 266.520308 107.044815 
L 266.829283 107.968619 
L 267.138259 108.533405 
L 267.75621 109.027591 
L 268.065186 107.381666 
L 268.992112 110.227747 
L 269.301088 110.284214 
L 269.610063 111.226185 
L 269.919039 109.584294 
L 270.228015 111.645738 
L 270.53699 112.240774 
L 270.845966 108.359938 
L 271.154941 110.869167 
L 271.463917 111.52472 
L 271.772892 111.095085 
L 272.081868 112.035023 
L 272.390844 110.272114 
L 272.699819 106.81083 
L 273.008795 109.854579 
L 273.31777 110.318514 
L 273.935722 111.744571 
L 274.244697 111.918039 
L 274.862648 112.773277 
L 275.171624 112.908427 
L 275.4806 112.694609 
L 275.789575 113.35823 
L 276.098551 113.51758 
L 276.407526 114.647136 
L 277.025477 115.155439 
L 277.334453 115.962259 
L 277.643429 116.234561 
L 277.952404 117.011131 
L 278.26138 117.370166 
L 278.570355 118.17902 
L 279.188306 118.774057 
L 279.806258 117.220916 
L 280.115233 118.653023 
L 281.04216 120.714466 
L 281.351135 121.279253 
L 281.660111 121.51322 
L 281.969087 123.171855 
L 282.278062 123.50669 
L 282.587038 121.54408 
L 282.896013 123.054871 
L 283.204989 123.778992 
L 283.513965 122.058433 
L 284.131916 123.684191 
L 284.440891 124.18846 
L 284.749867 122.780553 
L 285.058842 123.942376 
L 285.367818 124.355878 
L 285.676794 124.549512 
L 286.60372 125.900952 
L 286.912696 126.143004 
L 287.221671 126.552455 
L 287.530647 126.681556 
L 288.148598 127.43796 
L 288.457574 126.947808 
L 288.766549 126.67349 
L 289.075525 127.441993 
L 289.384501 127.732445 
L 290.002452 127.960379 
L 290.311427 125.094132 
L 290.620403 126.830824 
L 291.54733 129.023368 
L 291.856305 129.114135 
L 292.165281 126.937724 
L 293.092208 129.703121 
L 293.401183 129.854406 
L 293.710159 130.14284 
L 294.019134 130.83671 
L 294.32811 130.996061 
L 294.637085 131.689931 
L 295.255037 131.54873 
L 295.564012 130.871011 
L 295.872988 131.895666 
L 296.181963 132.434235 
L 296.490939 132.641986 
L 296.799915 130.530126 
L 297.10889 131.595131 
L 297.726841 133.005054 
L 298.035817 132.186134 
L 298.344792 131.780698 
L 298.653768 131.966266 
L 298.962744 132.839654 
L 299.271719 132.613753 
L 299.580695 133.295523 
L 299.88967 133.622274 
L 300.198646 133.618241 
L 300.816597 134.346411 
L 301.125573 132.0994 
L 301.434548 120.386291 
L 301.743524 124.547495 
L 302.361475 126.897374 
L 302.67045 127.264493 
L 302.979426 127.45006 
L 303.288402 127.865579 
L 303.597377 126.326554 
L 303.906353 127.208009 
L 304.215328 126.77434 
L 304.83328 128.319414 
L 305.451231 129.281553 
L 305.760206 128.154014 
L 306.378157 129.715221 
L 306.687133 111.634248 
L 306.996109 118.954167 
L 307.305084 121.435163 
L 307.61406 119.442303 
L 307.923035 122.2077 
L 308.232011 123.159755 
L 308.540987 123.468374 
L 308.849962 124.10576 
L 309.158938 124.335711 
L 309.467913 124.789547 
L 309.776889 124.68063 
L 310.085864 123.432057 
L 310.703816 125.48745 
L 311.012791 122.915687 
L 311.321767 124.71693 
L 312.557669 127.39761 
L 313.17562 127.994663 
L 313.484596 127.074892 
L 314.102547 129.723288 
L 314.411523 130.249741 
L 314.720498 130.217474 
L 315.029474 130.328408 
L 315.956401 132.641986 
L 316.265376 132.79327 
L 318.11923 135.088682 
L 318.428205 135.231899 
L 318.737181 134.408945 
L 319.046156 135.609084 
L 319.355132 135.958053 
L 319.664107 135.724068 
L 319.973083 134.096293 
L 320.591034 136.03872 
L 320.90001 136.194037 
L 321.208985 136.484505 
L 321.517961 135.266182 
L 321.826936 130.590626 
L 322.135912 133.406457 
L 322.444888 131.641514 
L 322.753863 133.176505 
L 323.062839 133.906692 
L 323.371814 134.281861 
L 323.68079 134.102343 
L 323.989766 134.693346 
L 324.298741 134.778063 
L 324.916692 135.730118 
L 325.225668 136.145637 
L 325.534643 136.343305 
L 325.843619 136.093187 
L 326.46157 137.176359 
L 326.770546 137.398226 
L 327.079521 134.659046 
L 327.388497 136.954474 
L 327.697473 137.198542 
L 328.006448 137.652378 
L 328.315424 137.287293 
L 328.624399 138.231281 
L 328.933375 138.453148 
L 329.24235 137.963013 
L 329.551326 138.775883 
L 329.860302 139.056251 
L 330.169277 139.697688 
L 330.478253 140.08294 
L 330.787228 137.795595 
L 331.096204 137.706845 
L 331.405179 139.056251 
L 332.332106 140.316924 
L 332.641082 140.444009 
L 333.568009 141.650198 
L 333.876984 141.803499 
L 334.18596 142.350135 
L 334.494935 142.561919 
L 334.803911 143.027855 
L 335.112887 143.084338 
L 335.421862 143.50994 
L 336.039813 143.584574 
L 336.348789 142.838254 
L 336.657764 143.044005 
L 336.96674 142.983488 
L 337.275716 144.042443 
L 337.584691 143.306223 
L 337.893667 144.504362 
L 338.202642 144.661679 
L 338.511618 144.455945 
L 338.820593 144.488212 
L 339.129569 144.877514 
L 339.438545 144.667729 
L 339.74752 145.295049 
L 340.056496 145.494734 
L 340.365471 141.980999 
L 340.674447 143.306223 
L 340.983422 142.842287 
L 341.292398 143.840742 
L 342.219325 145.067115 
L 342.5283 144.209861 
L 342.837276 144.470062 
L 343.146252 145.369683 
L 343.455227 145.385817 
L 343.764203 145.938486 
L 344.073178 144.159444 
L 344.382154 145.099382 
L 344.691129 145.038882 
L 345.000105 145.835619 
L 345.309081 146.12607 
L 345.618056 146.761457 
L 345.927032 148.365625 
L 346.236007 148.379741 
L 346.544983 147.328853 
L 346.853958 148.309141 
L 347.162934 148.785177 
L 347.47191 148.472525 
L 347.780885 148.635909 
L 348.089861 148.958644 
L 348.398836 148.68231 
L 348.707812 148.992928 
L 349.016788 149.589981 
L 349.634739 150.037766 
L 349.943714 150.086183 
L 350.561665 150.586419 
L 351.179617 151.233889 
L 351.797568 151.358957 
L 352.106543 151.919693 
L 352.415519 149.914733 
L 352.724495 151.153205 
L 353.342446 152.143594 
L 353.651421 152.189977 
L 354.887324 152.893948 
L 355.196299 152.813264 
L 355.505275 152.970581 
L 356.123226 153.718918 
L 356.432202 152.571213 
L 356.741177 153.440567 
L 357.050153 153.781452 
L 357.359128 149.977266 
L 357.668104 151.758325 
L 358.595031 152.859647 
L 360.139908 154.152587 
L 360.75786 154.340171 
L 361.684786 154.739557 
L 361.993762 154.735523 
L 362.302737 154.888824 
L 363.229664 155.943746 
L 364.156591 155.812629 
L 364.774542 156.413715 
L 365.392493 156.681983 
L 365.701469 156.893784 
L 366.31942 157.462604 
L 366.628396 157.601771 
L 366.937371 157.40007 
L 367.864298 157.868022 
L 368.173274 157.777255 
L 368.791225 158.208907 
L 369.1002 158.102007 
L 369.718151 154.997741 
L 370.027127 154.616523 
L 370.336103 155.879196 
L 370.645078 154.931174 
L 370.954054 155.566561 
L 371.263029 155.881212 
L 371.572005 155.44351 
L 371.880981 154.739557 
L 372.189956 154.77384 
L 372.498932 154.249404 
L 372.807907 156.185797 
L 373.116883 156.597266 
L 373.734834 154.297821 
L 374.04381 155.715812 
L 374.352785 155.996196 
L 374.661761 156.427849 
L 374.970736 156.351198 
L 375.279712 156.815117 
L 375.588688 156.907901 
L 375.897663 157.153985 
L 376.206639 156.268498 
L 376.515614 157.059185 
L 377.133565 157.379903 
L 377.442541 157.585638 
L 377.751517 151.637308 
L 378.060492 153.894402 
L 378.369468 154.560039 
L 378.678443 154.73149 
L 378.987419 154.584239 
L 379.296394 154.67299 
L 379.60537 155.417293 
L 379.914346 155.382993 
L 380.223321 155.582694 
L 380.532297 155.005808 
L 380.841272 155.405193 
L 381.150248 155.036058 
L 381.768199 156.15553 
L 382.077175 155.719845 
L 382.38615 152.934281 
L 382.695126 155.092542 
L 383.313077 155.659345 
L 383.622053 156.145447 
L 383.931028 156.284631 
L 384.548979 157.172136 
L 384.857955 157.143902 
L 385.16693 156.657783 
L 385.475906 157.123735 
L 385.784882 157.127769 
L 386.093857 157.404103 
L 386.402833 157.502937 
L 386.711808 157.888189 
L 387.020784 157.954756 
L 387.32976 158.305724 
L 388.256686 158.848327 
L 388.565662 157.857939 
L 388.874637 158.77571 
L 389.183613 158.926978 
L 389.492589 159.580514 
L 389.801564 159.48168 
L 390.419515 160.054533 
L 390.728491 160.139251 
L 391.037466 160.455919 
L 391.346442 160.415585 
L 391.655418 159.132729 
L 391.964393 160.078733 
L 392.273369 160.328851 
L 392.582344 160.75042 
L 392.89132 160.796804 
L 393.818247 161.40394 
L 394.127222 161.531024 
L 394.436198 161.871909 
L 394.745174 162.02721 
L 395.054149 161.797275 
L 395.6721 162.600063 
L 395.981076 162.561746 
L 396.290054 162.987348 
L 396.599029 162.74328 
L 397.216978 163.302 
L 397.525952 161.97276 
L 397.834927 162.825981 
L 398.143902 163.279816 
L 398.452876 163.239466 
L 398.761851 163.610618 
L 399.070825 163.578334 
L 399.3798 163.753818 
L 399.688775 163.652968 
L 399.997749 163.991836 
L 400.306724 163.784085 
L 400.615699 162.985331 
L 400.924673 162.775547 
L 401.233648 163.059948 
L 401.542622 158.884627 
L 401.851597 160.121084 
L 402.160572 160.873454 
L 402.469546 160.956154 
L 402.778521 159.941566 
L 403.087495 160.681837 
L 403.39647 160.770587 
L 403.705445 161.063055 
L 404.014419 160.883537 
L 404.323394 161.149789 
L 404.632368 161.149789 
L 404.941343 161.51084 
L 405.250318 161.686325 
L 405.868267 162.321711 
L 406.177241 162.398362 
L 407.41314 163.535984 
L 407.722114 161.28494 
L 408.031089 162.680746 
L 408.340064 163.074082 
L 408.649038 163.711468 
L 408.958013 163.594484 
L 409.266987 164.052353 
L 409.575962 163.907119 
L 410.193911 164.576789 
L 411.42981 165.39976 
L 412.047759 165.304943 
L 412.356733 165.633728 
L 412.665708 165.698278 
L 413.592632 166.599899 
L 413.901607 166.529316 
L 414.210581 165.633728 
L 414.519556 163.963603 
L 415.137505 162.257161 
L 415.44648 162.392312 
L 415.755454 163.685252 
L 416.064429 164.05437 
L 416.373403 162.69083 
L 416.682378 163.535984 
L 416.991353 161.855759 
L 417.300327 162.551646 
L 417.609302 161.557241 
L 417.918276 162.589979 
L 418.227251 162.753364 
L 418.536226 161.871909 
L 418.8452 162.781597 
L 419.154175 163.251583 
L 419.463149 163.283849 
L 419.772124 160.921871 
L 420.081099 160.732253 
L 421.316997 163.130549 
L 422.552895 164.568723 
L 422.86187 164.65949 
L 423.170845 164.891458 
L 423.479819 163.685252 
L 424.097768 164.619139 
L 424.406743 164.744207 
L 424.715718 165.321093 
L 425.024692 162.912714 
L 425.642641 164.145137 
L 425.951616 164.538473 
L 426.260591 165.115342 
L 426.569565 165.258559 
L 426.87854 164.806741 
L 427.805464 166.133964 
L 428.732388 166.545449 
L 429.041362 166.571666 
L 429.350337 166.985168 
L 429.659311 166.981135 
L 429.968286 167.249403 
L 430.277261 167.330086 
L 430.586235 167.634654 
L 430.89521 164.78454 
L 431.204184 166.10573 
L 431.513159 166.75925 
L 431.822134 166.950868 
L 432.131108 167.320003 
L 432.440083 167.330086 
L 432.749057 167.523721 
L 433.058032 166.228764 
L 433.675981 167.713322 
L 433.984956 167.664921 
L 434.29393 168.362825 
L 434.602905 168.266008 
L 434.91188 168.435442 
L 435.220854 168.802544 
L 435.838803 169.054678 
L 436.147778 169.389513 
L 437.074702 169.831249 
L 437.383676 170.297185 
L 437.692651 170.270968 
L 438.001626 170.381902 
L 438.3106 170.890204 
L 438.928549 171.142339 
L 439.237524 172.76669 
L 439.855473 173.162026 
L 440.164448 172.909891 
L 440.473422 172.314855 
L 440.782397 172.843341 
L 441.091372 173.079325 
L 441.400346 173.115642 
L 441.709321 173.468627 
L 442.018296 173.557378 
L 442.32727 173.99508 
L 442.636245 173.751012 
L 443.254194 174.293598 
L 443.872143 174.922935 
L 444.181118 174.842251 
L 444.799067 175.374753 
L 445.108042 175.356603 
L 445.417016 175.836656 
L 446.34394 175.636971 
L 446.961889 176.060557 
L 447.270864 176.11299 
L 448.197788 176.78266 
L 448.506762 176.708027 
L 448.815737 176.978311 
L 449.124711 176.762494 
L 449.433686 176.710043 
L 449.742661 172.466139 
L 450.051635 174.311765 
L 450.36061 174.285531 
L 450.669584 173.684445 
L 450.978559 174.525566 
L 451.287534 174.293598 
L 451.596508 174.489266 
L 451.905483 175.104469 
L 452.214457 174.870484 
L 452.832407 169.845976 
L 453.141381 168.472352 
L 453.450356 169.964976 
L 453.75933 170.685063 
L 454.37728 171.3386 
L 454.686254 171.655285 
L 455.613178 173.049075 
L 455.922153 173.347593 
L 456.231127 173.987013 
L 456.849077 174.469082 
L 457.158051 174.7313 
L 457.467026 175.411053 
L 457.776 175.374753 
L 458.084975 175.814472 
L 458.39395 175.858839 
L 458.702924 174.6123 
L 459.320873 176.244108 
L 459.938823 176.855277 
L 460.247797 174.580033 
L 460.865746 176.121074 
L 461.174721 176.558776 
L 461.483696 176.774594 
L 461.79267 177.131612 
L 462.410619 177.395847 
L 462.719594 177.809349 
L 463.028569 177.807332 
L 463.337543 177.639915 
L 463.646518 177.9566 
L 463.955492 177.613698 
L 464.264467 176.66366 
L 464.573442 176.990428 
L 464.882416 177.863816 
L 465.191391 175.998023 
L 465.500365 175.348537 
L 465.80934 176.435725 
L 466.118315 177.008578 
L 466.427289 177.028745 
L 466.736264 177.508814 
L 467.045238 176.74031 
L 467.354213 177.36358 
L 467.663188 177.45233 
L 467.972162 177.871883 
L 468.281137 178.03325 
L 468.590111 178.503219 
L 468.899086 179.195072 
L 469.208061 179.118422 
L 469.517035 178.446735 
L 469.82601 179.366523 
L 470.134985 179.769942 
L 470.443959 179.874826 
L 470.752934 180.415395 
L 471.370883 180.748214 
L 471.679858 181.317033 
L 472.297807 181.520751 
L 473.224731 182.616023 
L 473.533705 179.354423 
L 473.84268 181.139532 
L 474.460629 181.486467 
L 474.769604 181.423934 
L 475.078578 182.071403 
L 475.387553 182.198488 
L 475.696527 181.940303 
L 476.314477 182.751157 
L 476.623451 182.72494 
L 476.932426 183.277609 
L 477.550375 183.543878 
L 477.85935 182.880258 
L 478.168324 183.753645 
L 479.095248 184.530216 
L 479.404223 184.748067 
L 479.713197 184.056197 
L 480.022172 184.68755 
L 480.331146 184.667383 
L 480.640121 185.161552 
L 480.949096 185.183753 
L 481.567045 183.858529 
L 481.876019 185.371337 
L 482.184994 185.040535 
L 482.493969 181.3493 
L 482.802943 183.326026 
L 483.111918 183.991663 
L 483.420893 183.798012 
L 483.729867 184.209498 
L 484.038842 184.907401 
L 484.347816 184.746033 
L 484.965766 186.08134 
L 485.27474 185.095002 
L 485.583715 180.350862 
L 485.892689 182.216638 
L 486.201664 180.957998 
L 486.819613 183.451077 
L 487.128588 181.512684 
L 487.437562 183.404694 
L 487.746537 184.031997 
L 489.600385 185.849372 
L 489.909359 186.690493 
L 490.218334 186.299175 
L 490.527308 186.827661 
L 490.836283 186.234641 
L 491.145258 175.697488 
L 491.454232 180.187478 
L 492.072181 182.539373 
L 492.690131 183.729445 
L 493.30808 184.263965 
L 493.617054 184.744017 
L 494.543978 185.651705 
L 494.852953 183.566061 
L 495.470902 185.786856 
L 495.779877 185.32292 
L 496.088851 186.385908 
L 496.7068 187.434797 
L 497.633724 188.67327 
L 498.869623 189.756442 
L 499.178597 188.887071 
L 499.487572 190.095294 
L 499.796547 190.355495 
L 500.105521 190.131611 
L 501.650394 191.499184 
L 501.959369 191.468926 
L 502.268343 190.512829 
L 502.577318 188.405002 
L 502.886293 189.530524 
L 503.195267 188.967755 
L 503.504242 189.746342 
L 503.813216 189.867376 
L 504.122191 190.286928 
L 504.431166 190.367612 
L 504.74014 190.821447 
L 505.049115 191.019115 
L 505.358089 190.75488 
L 505.667064 190.801272 
L 506.285013 191.333783 
L 506.902962 191.224858 
L 507.829886 192.295921 
L 508.138861 192.358447 
L 509.065785 191.932853 
L 509.374759 189.619275 
L 509.683734 191.025173 
L 510.301683 191.872336 
L 511.228607 192.884908 
L 511.537582 192.959533 
L 512.464505 193.685678 
L 512.77348 194.234323 
L 513.082455 193.871254 
L 513.700404 194.542933 
L 514.009378 194.629666 
L 514.627328 195.162169 
L 515.863226 195.789481 
L 516.481175 196.267525 
L 516.79015 197.821276 
L 517.099124 197.762775 
L 517.408099 198.369912 
L 517.717074 198.565571 
L 518.026048 198.438496 
L 518.335023 196.964022 
L 518.643997 197.550983 
L 518.952972 197.867668 
L 519.570921 198.841906 
L 519.879896 198.753155 
L 520.18887 196.863163 
L 520.80682 196.141059 
L 521.115794 196.588845 
L 521.424769 196.0281 
L 522.351693 197.137489 
L 522.660667 196.546486 
L 522.969642 195.356413 
L 523.587591 195.911108 
L 523.896566 195.285821 
L 524.20554 196.048267 
L 524.514515 197.956418 
L 525.132464 198.698697 
L 525.441439 198.499004 
L 526.677337 199.184808 
L 526.986312 199.321967 
L 527.295286 199.707227 
L 527.604261 199.731435 
L 527.913235 200.185271 
L 528.22221 200.223596 
L 528.840159 200.153004 
L 529.149134 200.465647 
L 529.767083 200.792407 
L 530.076058 200.282096 
L 530.694007 200.937641 
L 531.002981 199.892803 
L 531.311956 200.667348 
L 531.929905 200.939658 
L 532.23888 201.008233 
L 532.547855 200.907383 
L 532.856829 200.534223 
L 533.165804 201.417702 
L 533.474778 201.554861 
L 534.092728 201.318868 
L 534.401702 200.665332 
L 534.710677 201.088917 
L 535.019651 200.673407 
L 535.328626 199.438959 
L 535.946586 200.925533 
L 536.564539 201.020342 
L 536.873515 201.538728 
L 537.182492 201.163551 
L 537.491468 201.314835 
L 537.800444 199.451059 
L 538.109421 199.797994 
L 538.418397 200.524139 
L 539.03635 200.881158 
L 539.345326 201.145401 
L 539.654303 200.935625 
L 540.272256 201.403585 
L 540.581232 201.544778 
L 540.890208 201.815062 
L 541.199185 199.731435 
L 541.817138 198.353778 
L 542.126114 198.797531 
L 542.43509 199.455092 
L 543.36202 196.304435 
L 543.670996 195.917158 
L 543.979972 196.548503 
L 544.288949 189.94867 
L 544.597925 191.179076 
L 545.215878 192.584966 
L 545.833831 192.996452 
L 546.451784 194.043307 
L 546.76076 194.263166 
L 547.069737 193.672163 
L 547.378713 194.694818 
L 547.687689 194.721044 
L 547.996666 194.950986 
L 548.305642 195.473406 
L 548.614619 198.577671 
L 549.232571 199.626543 
L 550.777453 201.09295 
L 551.704383 201.57907 
L 552.013359 201.456027 
L 552.322336 201.806996 
L 552.631312 201.811029 
L 552.940288 201.942138 
L 553.249265 200.332522 
L 553.558241 201.441902 
L 553.867218 201.568978 
L 554.176194 201.550828 
L 554.48517 201.980463 
L 555.4121 201.938105 
L 555.721076 202.446407 
L 556.030052 202.248731 
L 556.339029 202.283023 
L 556.648005 201.405602 
L 556.956982 201.788837 
L 557.265958 202.381857 
L 557.883911 200.025929 
L 558.501864 199.795977 
L 558.81084 194.926778 
L 559.119817 196.754245 
L 559.428793 196.992255 
L 559.737769 197.7063 
L 560.046746 198.00281 
L 560.355722 198.105677 
L 560.973675 198.989157 
L 561.282651 199.019407 
L 561.591628 199.588218 
L 561.900604 199.342142 
L 562.518557 200.231663 
L 562.827533 200.516073 
L 563.13651 200.544314 
L 563.445486 200.778291 
L 563.754463 199.436942 
L 564.063439 199.802027 
L 564.372415 199.09404 
L 564.681392 196.742137 
L 564.990368 198.432446 
L 565.299345 199.170691 
L 565.608321 197.440049 
L 565.917298 198.948815 
L 566.226274 199.031515 
L 566.844227 199.471234 
L 567.153203 198.000793 
L 567.46218 198.880231 
L 568.080132 199.557968 
L 568.389109 197.355332 
L 568.698085 199.4087 
L 569.007062 199.063782 
L 569.316038 199.691093 
L 569.933991 200.104587 
L 570.242967 200.269988 
L 570.86092 200.806532 
L 571.478873 201.260368 
L 571.787849 201.542761 
L 572.096826 201.556878 
L 572.405802 201.853388 
L 572.714779 201.960288 
L 573.950684 202.859901 
L 574.259661 202.849818 
L 574.568637 203.07976 
L 574.877613 202.539191 
L 575.18659 202.59365 
L 575.804543 203.170536 
L 576.113519 203.105986 
L 576.422495 203.511413 
L 576.731472 203.331895 
L 577.040448 200.834766 
L 577.658401 201.37131 
L 577.967378 201.919955 
L 578.276354 201.91793 
L 578.58533 202.170064 
L 578.894307 201.895746 
L 579.203283 201.800946 
L 579.821236 202.218473 
L 580.130212 202.309248 
L 580.439189 201.131276 
L 580.748165 202.103506 
L 581.366118 202.704592 
L 581.984071 202.172081 
L 582.293047 202.519016 
L 582.602024 203.06161 
L 582.911 203.06766 
L 583.219976 203.327862 
L 583.528953 203.807922 
L 583.837929 203.73128 
L 585.382811 204.346483 
L 585.691788 201.542761 
L 586.000764 203.023285 
L 587.23667 204.34245 
L 587.545646 204.834611 
L 587.854623 204.699469 
L 588.163599 205.090779 
L 588.472575 205.246096 
L 589.090528 205.213821 
L 590.017457 205.669673 
L 590.63541 206.313118 
L 591.562339 206.829487 
L 592.180292 206.781079 
L 592.489269 207.006988 
L 592.798245 205.082712 
L 593.107222 206.204201 
L 593.416198 206.752846 
L 594.034151 207.025147 
L 594.343127 205.881466 
L 595.579033 207.01708 
L 595.888009 207.117931 
L 596.196986 207.081622 
L 596.505962 206.66207 
L 597.123915 207.071539 
L 597.432891 207.549583 
L 597.741868 206.543069 
L 598.050844 207.458816 
L 598.359821 207.101797 
L 599.595726 207.938876 
L 599.904703 207.846093 
L 600.522655 208.120411 
L 600.831632 208.156719 
L 601.140608 208.501638 
L 601.758561 208.574255 
L 602.376514 208.995823 
L 602.994467 209.209633 
L 603.303443 209.197524 
L 603.612419 209.431509 
L 603.921396 209.373009 
L 604.230372 208.263628 
L 604.539349 208.61863 
L 604.848325 208.394737 
L 605.466278 209.114824 
L 606.393207 209.082557 
L 607.01116 208.846556 
L 607.320136 208.993807 
L 607.629113 208.842523 
L 607.938089 209.197524 
L 608.556042 209.483951 
L 608.865018 209.356875 
L 609.482971 209.740119 
L 609.791948 209.266108 
L 610.100924 205.645473 
L 610.4099 207.015063 
L 611.33683 208.076035 
L 611.645806 207.573791 
L 611.954782 208.146636 
L 612.263759 206.861763 
L 612.572735 207.535466 
L 613.190688 208.231353 
L 613.499665 208.140586 
L 613.808641 208.372545 
L 614.117617 208.844539 
L 614.426594 208.854623 
L 614.73557 209.048265 
L 615.044547 208.931273 
L 615.353523 208.995823 
L 615.971476 209.544459 
L 616.280452 207.791634 
L 616.898405 208.796131 
L 618.443287 209.449659 
L 618.752263 208.150669 
L 619.06124 209.397217 
L 619.370216 209.570685 
L 619.679193 209.889378 
L 619.988169 209.92972 
L 620.297146 210.22018 
L 620.915098 210.30893 
L 621.224075 210.028562 
L 621.533051 210.070912 
L 621.842028 210.270605 
L 622.151004 209.479917 
L 622.768957 209.794577 
L 623.077933 210.179838 
L 623.38691 209.98822 
L 624.313839 210.498531 
L 624.622815 204.876969 
L 624.931792 204.784186 
L 625.240768 206.450286 
L 625.549745 206.692328 
L 625.858721 205.627315 
L 626.167697 206.486586 
L 626.476674 206.94648 
L 626.78565 206.569286 
L 627.094627 207.503191 
L 627.712579 208.092177 
L 628.330532 208.594421 
L 628.639509 208.33422 
L 628.948485 208.64283 
L 629.257461 208.247486 
L 629.566438 208.711414 
L 629.875414 208.640813 
L 630.184391 208.140586 
L 630.493367 208.546013 
L 631.11132 208.634763 
L 631.420296 208.600471 
L 631.729273 208.751755 
L 632.038249 207.620183 
L 632.347225 208.495588 
L 633.274155 208.788064 
L 633.583131 208.71948 
L 633.892108 209.231816 
L 634.51006 209.108774 
L 635.128013 209.481934 
L 635.43699 209.514209 
L 635.745966 209.346792 
L 636.054942 209.586818 
L 636.363919 209.59691 
L 636.672895 209.808694 
L 636.981872 209.778444 
L 637.599824 210.591323 
L 637.908801 210.167738 
L 638.217777 210.333138 
L 638.83573 210.304897 
L 639.144706 210.228246 
L 639.453683 210.559048 
L 640.071636 210.557031 
L 640.998565 210.678057 
L 641.307541 210.59334 
L 642.234471 210.859591 
L 642.543447 211.059275 
L 642.852423 210.940275 
L 643.1614 211.146009 
L 643.470376 211.115759 
L 644.088329 211.799546 
L 644.397305 211.650278 
L 644.706282 211.803579 
L 645.015258 211.771304 
L 645.324235 211.950821 
L 645.633211 211.894346 
L 646.251164 212.134372 
L 646.869117 211.98108 
L 647.48707 212.200939 
L 648.413999 211.714829 
L 648.722975 212.073864 
L 649.340928 211.884263 
L 649.649904 212.209006 
L 649.958881 212.206989 
L 650.267857 211.763237 
L 650.576834 211.894346 
L 650.88581 211.117776 
L 651.194786 211.216609 
L 651.503763 211.656328 
L 651.812739 211.686587 
L 652.121716 211.888296 
L 652.430692 211.755171 
L 652.739669 212.027472 
L 653.048645 212.053689 
L 653.666598 211.785421 
L 654.902503 212.209006 
L 655.21148 212.130339 
L 655.520456 212.305823 
L 655.829433 212.328015 
L 656.138409 212.557958 
L 656.447385 212.39054 
L 656.756362 212.38449 
L 657.065338 212.727392 
L 657.374315 212.531741 
L 657.992267 212.640658 
L 658.301244 212.789926 
L 658.61022 213.068277 
L 658.919197 212.862534 
L 659.228173 213.128786 
L 659.537149 213.070294 
L 659.846126 212.067814 
L 660.155102 212.725375 
L 660.464079 212.541824 
L 660.773055 212.578133 
L 661.082032 208.929256 
L 661.391008 209.058349 
L 661.699984 207.182481 
L 662.008961 207.747259 
L 662.317937 207.833993 
L 662.626914 203.26937 
L 662.93589 194.918711 
L 663.244866 198.095594 
L 663.553843 199.031515 
L 663.862819 200.435389 
L 664.171796 200.818632 
L 664.480772 200.810566 
L 664.789748 201.764637 
L 665.098725 202.121656 
L 666.025654 203.795822 
L 666.33463 203.394429 
L 667.26156 205.072629 
L 667.570536 205.673715 
L 667.879513 203.083802 
L 668.188489 204.316225 
L 668.497465 204.596601 
L 668.806442 205.040354 
L 669.115418 205.707999 
L 669.424395 205.689848 
L 669.733371 205.966183 
L 670.042347 205.522431 
L 670.351324 203.874489 
L 670.969277 205.25618 
L 671.278253 205.209788 
L 671.587229 204.889069 
L 671.896206 205.302572 
L 672.514159 203.884573 
L 672.823135 203.374254 
L 673.132112 204.213358 
L 673.441088 204.475576 
L 674.059041 204.774102 
L 674.368017 205.375189 
L 674.676996 205.266263 
L 674.98597 205.55874 
L 675.294945 205.57084 
L 675.912894 203.019252 
L 676.221869 200.967891 
L 676.530844 202.775184 
L 676.839819 203.753464 
L 677.148793 204.310175 
L 677.457768 204.392875 
L 677.766743 204.64501 
L 678.075717 205.074645 
L 678.384692 205.310638 
L 679.002642 205.219871 
L 679.311616 205.413514 
L 679.620591 205.909708 
L 679.929566 205.814907 
L 680.547515 205.952066 
L 680.85649 205.788682 
L 681.165465 205.808857 
L 681.474439 206.052917 
L 681.783414 206.0509 
L 682.092389 205.824991 
L 682.401363 204.536084 
L 682.710338 202.329415 
L 683.019313 200.931591 
L 683.328288 202.938568 
L 683.637262 202.498849 
L 684.255212 203.76758 
L 684.564186 201.147417 
L 684.873161 194.430584 
L 685.182136 197.413824 
L 685.800085 198.769289 
L 686.10906 198.843923 
L 686.418035 199.156566 
L 686.727009 199.802027 
L 687.035984 199.933136 
L 687.344959 200.437405 
L 687.653934 200.661298 
L 687.962908 201.117159 
L 688.580858 201.526619 
L 688.889832 201.913896 
L 689.198807 201.934071 
L 689.507782 202.250748 
L 689.816757 200.340588 
L 690.125731 201.096984 
L 690.434706 197.425924 
L 690.743681 200.177204 
L 691.052655 201.026392 
L 691.670605 201.75657 
L 691.97958 202.262848 
L 692.288554 202.551291 
L 692.597529 202.418165 
L 692.906504 202.821576 
L 693.215478 202.684417 
L 693.524453 203.390395 
L 693.833428 203.329878 
L 694.142403 203.699005 
L 694.451377 203.805906 
L 694.760352 204.221424 
L 695.069327 204.185116 
L 695.996251 205.078679 
L 696.305226 204.991945 
L 696.6142 205.393339 
L 696.923175 205.306605 
L 697.541124 205.760449 
L 697.850099 206.048884 
L 698.159074 205.693882 
L 698.468049 206.087209 
L 698.777023 206.182009 
L 699.085998 206.601561 
L 699.394973 204.221424 
L 699.703947 205.34493 
L 700.012922 205.157346 
L 700.321897 205.66564 
L 700.630872 205.865333 
L 700.939846 206.208234 
L 701.248821 206.065025 
L 701.557796 206.222351 
L 701.86677 206.089225 
L 702.175745 205.534531 
L 702.48472 206.113434 
L 702.793695 206.369602 
L 703.411644 206.64997 
L 703.720619 206.861763 
L 704.029593 206.93438 
L 704.338568 205.457889 
L 704.647543 206.325227 
L 704.956518 206.565253 
L 705.265492 207.073555 
L 705.574467 207.132047 
L 705.883442 207.495124 
L 706.192416 207.638333 
L 706.501391 207.543533 
L 707.73729 208.396754 
L 708.35524 203.604205 
L 708.973189 205.143221 
L 709.282164 204.802336 
L 709.591138 200.592723 
L 709.900113 201.373327 
L 710.209088 199.176741 
L 710.827037 200.134846 
L 711.136012 198.263011 
L 711.444987 197.607466 
L 711.753961 192.244081 
L 712.062936 194.372092 
L 712.371911 193.924298 
L 712.680885 195.66099 
L 712.98986 195.35238 
L 713.298835 191.443311 
L 713.60781 194.662543 
L 713.916784 195.610565 
L 714.534734 196.274185 
L 715.152683 197.958435 
L 715.461658 196.606995 
L 715.770633 197.129414 
L 716.079607 197.922126 
L 716.697557 194.854169 
L 717.006531 196.635236 
L 717.624481 198.222669 
L 717.933456 198.981082 
L 718.551405 199.328017 
L 718.86038 199.654785 
L 719.169355 200.276038 
L 719.478329 200.508006 
L 719.787304 199.188841 
L 720.096279 200.659282 
L 720.405253 201.361227 
L 720.714228 201.613353 
L 721.023203 200.673407 
L 721.950127 201.849354 
L 722.259102 201.792879 
L 722.877051 202.309248 
L 723.186026 202.200323 
L 723.495 202.763084 
L 723.803975 202.777201 
L 724.11295 203.182636 
L 724.421925 201.29466 
L 724.730899 200.118712 
L 725.039874 196.451686 
L 725.348849 198.61398 
L 725.657823 196.931746 
L 725.966798 197.928176 
L 726.275773 197.807151 
L 726.584748 198.543379 
L 727.202697 194.757344 
L 727.511672 195.378605 
L 727.820646 194.198624 
L 728.129621 196.124917 
L 728.438596 196.641286 
L 728.747571 195.26363 
L 729.056545 196.24191 
L 729.36552 195.824374 
L 730.292444 197.867668 
L 730.601419 197.92011 
L 730.910394 198.666422 
L 731.219368 199.01134 
L 731.837318 199.945245 
L 732.455267 200.443456 
L 732.764242 200.219563 
L 733.073217 199.02344 
L 733.382191 199.11219 
L 733.691166 199.539809 
L 734.000141 198.98714 
L 734.61809 199.404667 
L 734.927065 200.461614 
L 735.545014 201.024375 
L 735.853989 201.137326 
L 736.780913 201.817079 
L 737.089888 201.817079 
L 737.707837 202.123672 
L 738.016812 202.696525 
L 738.325787 201.550828 
L 738.634761 201.532678 
L 738.943736 202.113589 
L 739.561686 202.644075 
L 739.87066 201.913896 
L 740.179635 202.726775 
L 740.48861 202.849818 
L 740.797585 203.606221 
L 741.106559 202.982943 
L 741.415534 203.73128 
L 741.724509 203.902731 
L 742.033483 203.793806 
L 742.342458 203.892639 
L 742.651433 204.179066 
L 742.960408 204.241591 
L 743.269382 202.799392 
L 743.578357 203.045477 
L 743.887332 203.547721 
L 744.196306 202.66425 
L 744.505281 203.791789 
L 745.432205 204.386825 
L 745.74118 204.887053 
L 746.050155 204.864869 
L 746.359129 205.145237 
L 746.668104 205.117004 
L 746.977079 205.510331 
L 747.286054 205.409472 
L 747.595028 205.617231 
L 747.904003 205.984342 
L 748.212978 205.867349 
L 748.830927 206.496678 
L 749.448877 206.680228 
L 749.757851 206.623753 
L 750.375801 207.232906 
L 750.684775 207.166339 
L 750.99375 207.452766 
L 751.302725 207.299465 
L 751.6117 207.593958 
L 752.538624 208.023593 
L 752.847598 207.926776 
L 754.083497 208.515754 
L 754.392472 207.406374 
L 754.701447 206.752846 
L 755.010421 207.852143 
L 755.319396 208.455246 
L 755.628371 208.546013 
L 756.24632 209.040199 
L 757.482219 208.888914 
L 758.100169 209.088607 
L 758.409143 209.514209 
L 758.718118 209.447642 
L 759.027093 209.496051 
L 759.645042 209.889378 
L 759.954017 209.891394 
L 760.262992 208.913123 
L 760.571966 209.40125 
L 760.880941 209.471851 
L 761.189916 209.70986 
L 761.49889 209.69776 
L 761.807865 209.044232 
L 762.11684 209.161216 
L 762.425815 209.60296 
L 762.734789 209.695744 
L 763.043764 207.507224 
L 763.352739 208.217236 
L 763.661713 208.414904 
L 763.970688 208.459279 
L 764.279663 208.878831 
L 764.588638 208.91514 
L 764.897612 208.820339 
L 765.206587 209.112807 
L 765.515562 209.155166 
L 765.824536 209.524293 
L 766.442486 208.217236 
L 766.751461 208.880848 
L 767.36941 209.334683 
L 767.678385 207.658508 
L 767.987359 208.396754 
L 769.532233 209.342758 
L 769.841208 209.262075 
L 770.459157 209.245933 
L 771.077107 210.510639 
L 771.386081 210.567115 
L 772.004031 210.938258 
L 772.313005 211.031042 
L 772.62198 211.636162 
L 772.930955 211.218626 
L 773.23993 210.569131 
L 773.548904 210.498531 
L 774.166854 210.758732 
L 774.475828 210.470297 
L 774.784803 210.690157 
L 775.402753 210.690157 
L 775.711727 210.9322 
L 776.020702 210.686124 
L 776.638651 211.36991 
L 777.256601 211.662378 
L 777.565576 211.632128 
L 777.87455 211.722895 
L 778.183525 211.67247 
L 778.801474 211.979063 
L 779.110449 211.989147 
L 779.419424 212.28364 
L 779.728399 212.124289 
L 780.037373 212.408699 
L 780.346348 212.501483 
L 780.655323 213.07231 
L 781.582247 210.22018 
L 781.891222 211.218626 
L 782.509171 211.402177 
L 782.818146 212.027472 
L 783.436095 212.202956 
L 783.74507 211.866104 
L 784.054045 212.273557 
L 784.363019 212.275573 
L 784.671994 212.471224 
L 784.980969 212.299773 
L 785.598918 212.739492 
L 785.907893 212.608383 
L 786.216868 212.806059 
L 786.834817 212.789926 
L 787.143792 213.062227 
L 787.452766 212.808076 
L 788.379691 213.29822 
L 789.306615 213.518079 
L 789.615589 213.288137 
L 789.924564 213.294187 
L 790.233539 213.667347 
L 790.542514 213.806522 
L 790.851488 213.447487 
L 791.160463 213.431346 
L 791.469438 213.249811 
L 791.778412 213.28612 
L 792.087387 211.055242 
L 792.396362 212.481307 
L 792.705337 212.303807 
L 793.014311 212.570058 
L 793.632261 212.68705 
L 793.941236 213.044069 
L 794.25021 212.785884 
L 794.559185 212.834301 
L 794.86816 213.068277 
L 795.177134 213.102569 
L 795.486109 212.315915 
L 796.104058 212.890776 
L 796.413033 211.856021 
L 797.030983 212.68705 
L 797.339957 212.90691 
L 797.957907 212.211023 
L 798.884831 212.993643 
L 799.193806 212.97146 
L 799.50278 213.243761 
L 799.811755 213.263936 
L 800.12073 213.532204 
L 800.429704 213.276036 
L 800.738679 213.324445 
L 801.047654 213.635072 
L 801.665603 213.814589 
L 801.974578 211.501019 
L 802.283553 212.388524 
L 802.592527 212.658808 
L 802.901502 212.501483 
L 803.210477 212.886743 
L 803.519452 212.245315 
L 803.828426 212.709242 
L 804.137401 211.279143 
L 804.755351 211.950821 
L 805.3733 212.624525 
L 805.682275 212.305823 
L 805.991249 212.30784 
L 806.300224 212.727392 
L 806.609199 212.705209 
L 806.918173 213.086427 
L 807.536123 213.124752 
L 807.845098 213.157028 
L 808.154072 212.949268 
L 808.463047 206.571303 
L 808.772022 206.670145 
L 809.080996 208.374562 
L 809.698946 209.397217 
L 810.007921 209.574718 
L 810.316895 209.937786 
L 810.62587 209.901486 
L 810.934845 210.278671 
L 811.243819 210.423906 
L 811.552794 210.762774 
L 811.861769 210.167738 
L 812.170744 210.756715 
L 812.479718 210.9322 
L 812.788693 210.813199 
L 813.097668 211.283177 
L 813.715617 211.006833 
L 814.333562 211.557495 
L 814.642539 211.29931 
L 814.951515 211.642212 
L 815.260492 211.182318 
L 815.878445 212.073864 
L 816.187422 211.827779 
L 817.114351 211.88628 
L 817.732304 211.565561 
L 818.350257 212.279607 
L 818.659234 212.198923 
L 818.96821 212.321965 
L 819.277187 212.211023 
L 819.586163 212.551908 
L 819.89514 212.596283 
L 820.513093 210.236313 
L 820.822069 210.924133 
L 821.131046 210.889841 
L 821.440022 211.141976 
L 821.748999 211.188368 
L 822.057975 211.476811 
L 822.366952 211.58977 
L 822.675928 211.573628 
L 822.984905 210.861608 
L 823.602858 211.238801 
L 824.220811 211.940738 
L 824.529788 212.073864 
L 824.838764 212.426849 
L 825.456717 212.533758 
L 825.765694 212.408699 
L 826.07467 211.698687 
L 826.383647 211.69062 
L 826.692623 211.519169 
L 827.0016 211.854004 
L 827.619553 212.073864 
L 827.928529 211.995197 
L 828.237506 212.447024 
L 828.546482 212.656792 
L 829.164435 212.789926 
L 829.473412 212.305823 
L 829.782388 212.459124 
L 830.091365 212.27154 
L 830.400341 212.570058 
L 831.018294 212.88876 
L 831.327271 212.864551 
L 831.945224 213.265953 
L 832.2542 212.678983 
L 832.872154 213.443454 
L 833.18113 213.29217 
L 833.490107 213.455554 
L 833.799083 213.425296 
L 834.10806 212.931118 
L 834.726013 213.510013 
L 835.034989 213.269986 
L 835.343966 213.701639 
L 835.652942 213.87309 
L 835.961919 213.752064 
L 836.270895 214.076807 
L 836.579872 214.030415 
L 836.888848 214.252291 
L 837.506801 214.060674 
L 838.433731 214.445934 
L 838.742707 214.486276 
L 839.051684 214.357184 
L 839.36066 214.696052 
L 839.669637 214.447951 
L 840.905543 214.530651 
L 841.21452 214.934061 
L 841.523496 214.815052 
L 842.141449 214.978437 
L 842.759402 215.024829 
L 843.068379 215.545231 
L 843.377355 215.478673 
L 844.304285 215.785266 
L 844.613261 214.932045 
L 844.922238 215.270913 
L 845.231214 215.192246 
L 845.540191 215.545231 
L 846.46712 215.359664 
L 847.085073 215.742907 
L 847.703026 215.906291 
L 848.012003 216.384335 
L 848.32098 216.279443 
L 848.629956 216.66672 
L 848.938933 216.658653 
L 849.247909 216.920871 
L 849.865862 216.620328 
L 850.792792 216.96928 
L 851.410745 217.140731 
L 851.719721 216.789762 
L 852.028698 216.614278 
L 852.337674 216.886588 
L 852.955627 216.640503 
L 853.264604 215.9426 
L 853.57358 215.980925 
L 854.191533 216.799846 
L 854.50051 216.761529 
L 854.809486 216.454927 
L 855.427439 216.765562 
L 855.736416 216.618311 
L 856.354369 216.729254 
L 856.663346 216.828088 
L 856.972322 216.783712 
L 857.281299 217.118547 
L 857.590275 217.015672 
L 857.899252 217.122581 
L 858.208228 217.394882 
L 858.517205 217.122581 
L 859.135158 217.239573 
L 859.444134 216.967263 
L 860.062087 217.685342 
L 860.371064 216.55377 
L 860.68004 217.136697 
L 860.989017 217.138714 
L 861.297993 217.455399 
L 862.842876 217.606675 
L 863.460829 217.955627 
L 863.769805 217.919318 
L 864.078782 217.519941 
L 864.387759 217.457416 
L 864.696735 217.532041 
L 865.005712 216.830104 
L 865.623665 217.281932 
L 865.932641 217.177039 
L 866.241618 217.56835 
L 866.550594 217.600625 
L 866.859571 217.249656 
L 867.168547 217.427157 
L 867.477524 217.463466 
L 868.095477 217.856793 
L 868.404453 217.675259 
L 868.71343 217.893101 
L 869.022406 217.683325 
L 869.331383 217.991935 
L 869.640359 217.784176 
L 869.949336 217.991935 
L 870.567289 218.082702 
L 871.185242 218.143219 
L 871.494218 218.060519 
L 871.803195 215.906291 
L 872.112172 216.801871 
L 872.730125 217.386815 
L 873.657054 217.951593 
L 873.966031 217.687359 
L 874.583984 217.608691 
L 874.89296 217.955627 
L 875.81989 217.830568 
L 876.128866 218.068585 
L 877.364772 218.084719 
L 877.982725 218.143219 
L 878.291702 218.092786 
L 878.600678 218.409471 
L 878.909655 218.217844 
L 879.527608 218.490154 
L 879.836584 218.312653 
L 880.145561 218.609155 
L 880.454538 218.455862 
L 881.381467 218.772539 
L 881.690444 218.70598 
L 881.99942 218.478046 
L 882.92635 218.631347 
L 883.235326 218.93794 
L 883.853279 218.768506 
L 884.471232 218.974248 
L 884.780209 218.649497 
L 885.089185 219.03879 
L 885.398162 219.004507 
L 885.707138 219.210241 
L 886.016115 218.907681 
L 886.325091 219.137633 
L 886.634068 219.173941 
L 886.943044 219.071065 
L 887.252021 219.3232 
L 887.560997 219.31715 
L 887.869974 219.139649 
L 889.10588 219.056949 
L 889.723833 219.296975 
L 890.341786 218.962148 
L 890.650763 219.121491 
L 891.268716 219.238483 
L 891.577692 218.772539 
L 891.886669 219.145699 
L 892.195645 218.986348 
L 892.504622 216.765562 
L 892.813598 216.390385 
L 893.431551 217.162923 
L 893.740528 217.489682 
L 894.049504 217.5502 
L 894.358481 217.453382 
L 894.667457 217.6208 
L 894.976434 217.608691 
L 895.28541 217.804351 
L 895.594387 217.70955 
L 896.21234 217.955627 
L 896.521317 218.195661 
L 896.830293 217.766026 
L 897.13927 218.010094 
L 897.448246 218.088752 
L 897.757223 217.95361 
L 898.375176 218.026227 
L 898.684152 218.300545 
L 898.993129 218.084719 
L 899.302105 217.713584 
L 899.611082 218.084719 
L 899.920058 217.967735 
L 900.229035 216.686895 
L 900.538011 217.312182 
L 900.846988 217.261756 
L 901.155964 217.534066 
L 901.464941 217.356557 
L 901.773917 217.741817 
L 902.082894 217.786192 
L 902.700847 218.199694 
L 903.009823 218.004035 
L 903.627776 218.22592 
L 903.936753 218.205744 
L 904.24573 218.367112 
L 904.554706 218.385262 
L 904.863683 218.586971 
L 905.481636 218.512338 
L 905.790612 218.387279 
L 906.099589 218.722114 
L 906.408565 218.599071 
L 906.717542 218.157336 
L 907.026518 217.955627 
L 907.335495 217.461449 
L 907.644471 217.394882 
L 907.953448 216.471069 
L 908.571401 217.517924 
L 909.189354 217.427157 
L 909.49833 217.826534 
L 909.807307 217.967735 
L 910.116283 217.963693 
L 910.42526 217.62685 
L 910.734236 217.961677 
L 911.043213 217.584491 
L 911.352189 217.862843 
L 911.661166 217.818468 
L 911.970143 218.01816 
L 912.588096 218.014127 
L 912.897072 218.286428 
L 913.206049 218.367112 
L 913.515025 217.415057 
L 913.824002 217.082239 
L 914.132978 217.24764 
L 914.441955 217.179056 
L 914.750931 216.64252 
L 915.059908 216.74942 
L 915.677861 216.487203 
L 915.986837 216.124134 
L 916.295814 211.823746 
L 916.60479 210.163704 
L 917.222743 212.475257 
L 917.840696 213.269986 
L 917.840696 213.269986 
" clip-path="url(#p3ce39d9737)" style="fill: none; stroke: #1d4ed8; stroke-opacity: 0.95; stroke-width: 1.3; stroke-linecap: square"/>
   </g>
   <g id="patch_23">
    <path d="M 42.190938 228.954713 
L 42.190938 17.061433 
" style="fill: none; stroke: #cbd5e1; stroke-width: 0.8; stroke-linejoin: miter; stroke-linecap: square"/>
   </g>
   <g id="patch_24">
    <path d="M 935.353438 228.954713 
L 935.353438 17.061433 
" style="fill: none; stroke: #cbd5e1; stroke-width: 0.8; stroke-linejoin: miter; stroke-linecap: square"/>
   </g>
   <g id="patch_25">
    <path d="M 42.190938 228.954713 
L 935.353438 228.954713 
" style="fill: none; stroke: #cbd5e1; stroke-width: 0.8; stroke-linejoin: miter; stroke-linecap: square"/>
   </g>
   <g id="patch_26">
    <path d="M 42.190938 17.061433 
L 935.353438 17.061433 
" style="fill: none; stroke: #cbd5e1; stroke-width: 0.8; stroke-linejoin: miter; stroke-linecap: square"/>
   </g>
   <g id="text_19">
    <!-- ACC -->
    <g style="fill: #475569" transform="translate(126.631106 13.27875) scale(0.08 -0.08)">
     <defs>
      <path id="DejaVuSans-43" d="M 4122 4306 
L 4122 3641 
Q 3803 3938 3442 4084 
Q 3081 4231 2675 4231 
Q 1875 4231 1450 3742 
Q 1025 3253 1025 2328 
Q 1025 1406 1450 917 
Q 1875 428 2675 428 
Q 3081 428 3442 575 
Q 3803 722 4122 1019 
L 4122 359 
Q 3791 134 3420 21 
Q 3050 -91 2638 -91 
Q 1578 -91 968 557 
Q 359 1206 359 2328 
Q 359 3453 968 4101 
Q 1578 4750 2638 4750 
Q 3056 4750 3426 4639 
Q 3797 4528 4122 4306 
z
" transform="scale(0.015625)"/>
     </defs>
     <use xlink:href="#DejaVuSans-41"/>
     <use xlink:href="#DejaVuSans-43" transform="translate(66.658203 0)"/>
     <use xlink:href="#DejaVuSans-43" transform="translate(136.482422 0)"/>
    </g>
   </g>
   <g id="text_20">
    <!-- FCS -->
    <g style="fill: #475569" transform="translate(240.799 13.27875) scale(0.08 -0.08)">
     <defs>
      <path id="DejaVuSans-46" d="M 628 4666 
L 3309 4666 
L 3309 4134 
L 1259 4134 
L 1259 2759 
L 3109 2759 
L 3109 2228 
L 1259 2228 
L 1259 0 
L 628 0 
L 628 4666 
z
" transform="scale(0.015625)"/>
     </defs>
     <use xlink:href="#DejaVuSans-46"/>
     <use xlink:href="#DejaVuSans-43" transform="translate(57.519531 0)"/>
     <use xlink:href="#DejaVuSans-53" transform="translate(127.34375 0)"/>
    </g>
   </g>
   <g id="text_21">
    <!-- SR -->
    <g style="fill: #475569" transform="translate(273.238492 13.27875) scale(0.08 -0.08)">
     <defs>
      <path id="DejaVuSans-52" d="M 2841 2188 
Q 3044 2119 3236 1894 
Q 3428 1669 3622 1275 
L 4263 0 
L 3584 0 
L 2988 1197 
Q 2756 1666 2539 1819 
Q 2322 1972 1947 1972 
L 1259 1972 
L 1259 0 
L 628 0 
L 628 4666 
L 2053 4666 
Q 2853 4666 3247 4331 
Q 3641 3997 3641 3322 
Q 3641 2881 3436 2590 
Q 3231 2300 2841 2188 
z
M 1259 4147 
L 1259 2491 
L 2053 2491 
Q 2509 2491 2742 2702 
Q 2975 2913 2975 3322 
Q 2975 3731 2742 3939 
Q 2509 4147 2053 4147 
L 1259 4147 
z
" transform="scale(0.015625)"/>
     </defs>
     <use xlink:href="#DejaVuSans-53"/>
     <use xlink:href="#DejaVuSans-52" transform="translate(63.476562 0)"/>
    </g>
   </g>
   <g id="text_22">
    <!-- FFC -->
    <g style="fill: #475569" transform="translate(315.191885 13.27875) scale(0.08 -0.08)">
     <use xlink:href="#DejaVuSans-46"/>
     <use xlink:href="#DejaVuSans-46" transform="translate(57.519531 0)"/>
     <use xlink:href="#DejaVuSans-43" transform="translate(115.039062 0)"/>
    </g>
   </g>
   <g id="text_23">
    <!-- SS -->
    <g style="fill: #475569" transform="translate(407.882862 13.27875) scale(0.08 -0.08)">
     <use xlink:href="#DejaVuSans-53"/>
     <use xlink:href="#DejaVuSans-53" transform="translate(63.476562 0)"/>
    </g>
   </g>
   <g id="text_24">
    <!-- OC -->
    <g style="fill: #475569" transform="translate(478.856555 13.27875) scale(0.08 -0.08)">
     <defs>
      <path id="DejaVuSans-4f" d="M 2522 4238 
Q 1834 4238 1429 3725 
Q 1025 3213 1025 2328 
Q 1025 1447 1429 934 
Q 1834 422 2522 422 
Q 3209 422 3611 934 
Q 4013 1447 4013 2328 
Q 4013 3213 3611 3725 
Q 3209 4238 2522 4238 
z
M 2522 4750 
Q 3503 4750 4090 4092 
Q 4678 3434 4678 2328 
Q 4678 1225 4090 567 
Q 3503 -91 2522 -91 
Q 1538 -91 948 565 
Q 359 1222 359 2328 
Q 359 3434 948 4092 
Q 1538 4750 2522 4750 
z
" transform="scale(0.015625)"/>
     </defs>
     <use xlink:href="#DejaVuSans-4f"/>
     <use xlink:href="#DejaVuSans-43" transform="translate(78.710938 0)"/>
    </g>
   </g>
   <g id="text_25">
    <!-- FCS -->
    <g style="fill: #475569" transform="translate(500.338472 13.27875) scale(0.08 -0.08)">
     <use xlink:href="#DejaVuSans-46"/>
     <use xlink:href="#DejaVuSans-43" transform="translate(57.519531 0)"/>
     <use xlink:href="#DejaVuSans-53" transform="translate(127.34375 0)"/>
    </g>
   </g>
   <g id="text_26">
    <!-- SR -->
    <g style="fill: #475569" transform="translate(532.777964 13.27875) scale(0.08 -0.08)">
     <use xlink:href="#DejaVuSans-53"/>
     <use xlink:href="#DejaVuSans-52" transform="translate(63.476562 0)"/>
    </g>
   </g>
   <g id="text_27">
    <!-- FFC -->
    <g style="fill: #475569" transform="translate(574.731357 13.27875) scale(0.08 -0.08)">
     <use xlink:href="#DejaVuSans-46"/>
     <use xlink:href="#DejaVuSans-46" transform="translate(57.519531 0)"/>
     <use xlink:href="#DejaVuSans-43" transform="translate(115.039062 0)"/>
    </g>
   </g>
   <g id="text_28">
    <!-- SS -->
    <g style="fill: #475569" transform="translate(667.422334 13.27875) scale(0.08 -0.08)">
     <use xlink:href="#DejaVuSans-53"/>
     <use xlink:href="#DejaVuSans-53" transform="translate(63.476562 0)"/>
    </g>
   </g>
   <g id="text_29">
    <!-- OC -->
    <g style="fill: #475569" transform="translate(738.396027 13.27875) scale(0.08 -0.08)">
     <use xlink:href="#DejaVuSans-4f"/>
     <use xlink:href="#DejaVuSans-43" transform="translate(78.710938 0)"/>
    </g>
   </g>
   <g id="text_30">
    <!-- FCS -->
    <g style="fill: #475569" transform="translate(759.877944 13.27875) scale(0.08 -0.08)">
     <use xlink:href="#DejaVuSans-46"/>
     <use xlink:href="#DejaVuSans-43" transform="translate(57.519531 0)"/>
     <use xlink:href="#DejaVuSans-53" transform="translate(127.34375 0)"/>
    </g>
   </g>
   <g id="text_31">
    <!-- SR -->
    <g style="fill: #475569" transform="translate(792.317436 13.27875) scale(0.08 -0.08)">
     <use xlink:href="#DejaVuSans-53"/>
     <use xlink:href="#DejaVuSans-52" transform="translate(63.476562 0)"/>
    </g>
   </g>
   <g id="text_32">
    <!-- FFC -->
    <g style="fill: #475569" transform="translate(834.270829 13.27875) scale(0.08 -0.08)">
     <use xlink:href="#DejaVuSans-46"/>
     <use xlink:href="#DejaVuSans-46" transform="translate(57.519531 0)"/>
     <use xlink:href="#DejaVuSans-43" transform="translate(115.039062 0)"/>
    </g>
   </g>
   <g id="text_33">
    <!-- SS -->
    <g style="fill: #475569" transform="translate(887.567422 13.27875) scale(0.08 -0.08)">
     <use xlink:href="#DejaVuSans-53"/>
     <use xlink:href="#DejaVuSans-53" transform="translate(63.476562 0)"/>
    </g>
   </g>
   <g id="legend_1">
    <g id="line2d_34">
     <path d="M 849.174688 27.540183 
L 857.174688 27.540183 
L 865.174688 27.540183 
" style="fill: none; stroke: #1d4ed8; stroke-opacity: 0.95; stroke-width: 1.3; stroke-linecap: square"/>
    </g>
    <g id="text_34">
     <!-- Empatica EDA -->
     <g transform="translate(871.574688 30.340183) scale(0.08 -0.08)">
      <defs>
       <path id="DejaVuSans-6d" d="M 3328 2828 
Q 3544 3216 3844 3400 
Q 4144 3584 4550 3584 
Q 5097 3584 5394 3201 
Q 5691 2819 5691 2113 
L 5691 0 
L 5113 0 
L 5113 2094 
Q 5113 2597 4934 2840 
Q 4756 3084 4391 3084 
Q 3944 3084 3684 2787 
Q 3425 2491 3425 1978 
L 3425 0 
L 2847 0 
L 2847 2094 
Q 2847 2600 2669 2842 
Q 2491 3084 2119 3084 
Q 1678 3084 1418 2786 
Q 1159 2488 1159 1978 
L 1159 0 
L 581 0 
L 581 3500 
L 1159 3500 
L 1159 2956 
Q 1356 3278 1631 3431 
Q 1906 3584 2284 3584 
Q 2666 3584 2933 3390 
Q 3200 3197 3328 2828 
z
" transform="scale(0.015625)"/>
       <path id="DejaVuSans-70" d="M 1159 525 
L 1159 -1331 
L 581 -1331 
L 581 3500 
L 1159 3500 
L 1159 2969 
Q 1341 3281 1617 3432 
Q 1894 3584 2278 3584 
Q 2916 3584 3314 3078 
Q 3713 2572 3713 1747 
Q 3713 922 3314 415 
Q 2916 -91 2278 -91 
Q 1894 -91 1617 61 
Q 1341 213 1159 525 
z
M 3116 1747 
Q 3116 2381 2855 2742 
Q 2594 3103 2138 3103 
Q 1681 3103 1420 2742 
Q 1159 2381 1159 1747 
Q 1159 1113 1420 752 
Q 1681 391 2138 391 
Q 2594 391 2855 752 
Q 3116 1113 3116 1747 
z
" transform="scale(0.015625)"/>
      </defs>
      <use xlink:href="#DejaVuSans-45"/>
      <use xlink:href="#DejaVuSans-6d" transform="translate(63.183594 0)"/>
      <use xlink:href="#DejaVuSans-70" transform="translate(160.595703 0)"/>
      <use xlink:href="#DejaVuSans-61" transform="translate(224.072266 0)"/>
      <use xlink:href="#DejaVuSans-74" transform="translate(285.351562 0)"/>
      <use xlink:href="#DejaVuSans-69" transform="translate(324.560547 0)"/>
      <use xlink:href="#DejaVuSans-63" transform="translate(352.34375 0)"/>
      <use xlink:href="#DejaVuSans-61" transform="translate(407.324219 0)"/>
      <use xlink:href="#DejaVuSans-20" transform="translate(468.603516 0)"/>
      <use xlink:href="#DejaVuSans-45" transform="translate(500.390625 0)"/>
      <use xlink:href="#DejaVuSans-44" transform="translate(563.574219 0)"/>
      <use xlink:href="#DejaVuSans-41" transform="translate(638.826172 0)"/>
     </g>
    </g>
   </g>
  </g>
 </g>
 <defs>
  <clipPath id="p3ce39d9737">
   <rect x="42.190938" y="17.061433" width="893.1625" height="211.89328"/>
  </clipPath>
 </defs>
</svg>
