<?xml version="1.0" encoding="utf-8" standalone="no"?>
<!DOCTYPE svg PUBLIC "-//W3C//DTD SVG 1.1//EN"
  "http://www.w3.org/Graphics/SVG/1.1/DTD/svg11.dtd">
<svg xmlns:xlink="http://www.w3.org/1999/xlink" width="942.483125pt" height="265.54315pt" viewBox="0 0 942.483125 265.54315" xmlns="http://www.w3.org/2000/svg" version="1.1">
 <metadata>
  <rdf:RDF xmlns:dc="http://purl.org/dc/elements/1.1/" xmlns:cc="http://creativecommons.org/ns#" xmlns:rdf="http://www.w3.org/1999/02/22-rdf-syntax-ns#">
   <cc:Work>
    <dc:type rdf:resource="http://purl.org/dc/dcmitype/StillImage"/>
    <dc:date>2026-04-17T13:08:23.958171</dc:date>
    <dc:format>image/svg+xml</dc:format>
    <dc:creator>
     <cc:Agent>
      <dc:title>Matplotlib v3.10.8, https://matplotlib.org/</dc:title>
     </cc:Agent>
    </dc:creator>
   </cc:Work>
  </rdf:RDF>
 </metadata>
 <defs>
  <style type="text/css">*{stroke-linejoin: round; stroke-linecap: butt}</style>
 </defs>
 <g id="figure_1">
  <g id="patch_1">
   <path d="M 0 265.54315 
L 942.483125 265.54315 
L 942.483125 0 
L 0 0 
z
" style="fill: #ffffff"/>
  </g>
  <g id="axes_1">
   <g id="patch_2">
    <path d="M 50.783125 228.954713 
L 935.283125 228.954713 
L 935.283125 17.061433 
L 50.783125 17.061433 
z
" style="fill: #ffffff"/>
   </g>
   <g id="patch_3">
    <path d="M 50.783125 228.954713 
L 67.79274 228.954713 
L 67.79274 17.061433 
L 50.783125 17.061433 
z
" clip-path="url(#p6b713682d8)" style="fill: #f8fafc; opacity: 0.45"/>
   </g>
   <g id="patch_4">
    <path d="M 67.79274 228.954713 
L 243.435508 228.954713 
L 243.435508 17.061433 
L 67.79274 17.061433 
z
" clip-path="url(#p6b713682d8)" style="fill: #eff6ff; opacity: 0.45"/>
   </g>
   <g id="patch_5">
    <path d="M 243.435508 228.954713 
L 266.546398 228.954713 
L 266.546398 17.061433 
L 243.435508 17.061433 
z
" clip-path="url(#p6b713682d8)" style="fill: #fef3c7; opacity: 0.45"/>
   </g>
   <g id="patch_6">
    <path d="M 266.546398 228.954713 
L 303.523823 228.954713 
L 303.523823 17.061433 
L 266.546398 17.061433 
z
" clip-path="url(#p6b713682d8)" style="fill: #dcfce7; opacity: 0.45"/>
   </g>
   <g id="patch_7">
    <path d="M 303.523823 228.954713 
L 349.745604 228.954713 
L 349.745604 17.061433 
L 303.523823 17.061433 
z
" clip-path="url(#p6b713682d8)" style="fill: #fee2e2; opacity: 0.45"/>
   </g>
   <g id="patch_8">
    <path d="M 349.745604 228.954713 
L 358.98996 228.954713 
L 358.98996 17.061433 
L 349.745604 17.061433 
z
" clip-path="url(#p6b713682d8)" style="fill: #ede9fe; opacity: 0.45"/>
   </g>
   <g id="patch_9">
    <path d="M 358.98996 228.954713 
L 479.166591 228.954713 
L 479.166591 17.061433 
L 358.98996 17.061433 
z
" clip-path="url(#p6b713682d8)" style="fill: #f8fafc; opacity: 0.45"/>
   </g>
   <g id="patch_10">
    <path d="M 479.166591 228.954713 
L 502.277481 228.954713 
L 502.277481 17.061433 
L 479.166591 17.061433 
z
" clip-path="url(#p6b713682d8)" style="fill: #eff6ff; opacity: 0.45"/>
   </g>
   <g id="patch_11">
    <path d="M 502.277481 228.954713 
L 525.388372 228.954713 
L 525.388372 17.061433 
L 502.277481 17.061433 
z
" clip-path="url(#p6b713682d8)" style="fill: #fef3c7; opacity: 0.45"/>
   </g>
   <g id="patch_12">
    <path d="M 525.388372 228.954713 
L 562.365796 228.954713 
L 562.365796 17.061433 
L 525.388372 17.061433 
z
" clip-path="url(#p6b713682d8)" style="fill: #dcfce7; opacity: 0.45"/>
   </g>
   <g id="patch_13">
    <path d="M 562.365796 228.954713 
L 608.587577 228.954713 
L 608.587577 17.061433 
L 562.365796 17.061433 
z
" clip-path="url(#p6b713682d8)" style="fill: #fee2e2; opacity: 0.45"/>
   </g>
   <g id="patch_14">
    <path d="M 608.587577 228.954713 
L 617.831934 228.954713 
L 617.831934 17.061433 
L 608.587577 17.061433 
z
" clip-path="url(#p6b713682d8)" style="fill: #ede9fe; opacity: 0.45"/>
   </g>
   <g id="patch_15">
    <path d="M 617.831934 228.954713 
L 738.008564 228.954713 
L 738.008564 17.061433 
L 617.831934 17.061433 
z
" clip-path="url(#p6b713682d8)" style="fill: #f8fafc; opacity: 0.45"/>
   </g>
   <g id="patch_16">
    <path d="M 738.008564 228.954713 
L 761.119454 228.954713 
L 761.119454 17.061433 
L 738.008564 17.061433 
z
" clip-path="url(#p6b713682d8)" style="fill: #eff6ff; opacity: 0.45"/>
   </g>
   <g id="patch_17">
    <path d="M 761.119454 228.954713 
L 784.230345 228.954713 
L 784.230345 17.061433 
L 761.119454 17.061433 
z
" clip-path="url(#p6b713682d8)" style="fill: #fef3c7; opacity: 0.45"/>
   </g>
   <g id="patch_18">
    <path d="M 784.230345 228.954713 
L 821.20777 228.954713 
L 821.20777 17.061433 
L 784.230345 17.061433 
z
" clip-path="url(#p6b713682d8)" style="fill: #dcfce7; opacity: 0.45"/>
   </g>
   <g id="patch_19">
    <path d="M 821.20777 228.954713 
L 867.429551 228.954713 
L 867.429551 17.061433 
L 821.20777 17.061433 
z
" clip-path="url(#p6b713682d8)" style="fill: #fee2e2; opacity: 0.45"/>
   </g>
   <g id="patch_20">
    <path d="M 867.429551 228.954713 
L 876.673907 228.954713 
L 876.673907 17.061433 
L 867.429551 17.061433 
z
" clip-path="url(#p6b713682d8)" style="fill: #ede9fe; opacity: 0.45"/>
   </g>
   <g id="patch_21">
    <path d="M 876.673907 228.954713 
L 918.27351 228.954713 
L 918.27351 17.061433 
L 876.673907 17.061433 
z
" clip-path="url(#p6b713682d8)" style="fill: #f8fafc; opacity: 0.45"/>
   </g>
   <g id="patch_22">
    <path d="M 918.27351 228.954713 
L 922.895688 228.954713 
L 922.895688 17.061433 
L 918.27351 17.061433 
z
" clip-path="url(#p6b713682d8)" style="fill: #eff6ff; opacity: 0.45"/>
   </g>
   <g id="matplotlib.axis_1">
    <g id="xtick_1">
     <g id="line2d_1">
      <path d="M 114.014521 228.954713 
L 114.014521 17.061433 
" clip-path="url(#p6b713682d8)" style="fill: none; stroke: #eef2f7; stroke-width: 0.55; stroke-linecap: square"/>
     </g>
     <g id="line2d_2">
      <defs>
       <path id="mc1605b202c" d="M 0 0 
L 0 3.5 
" style="stroke: #000000; stroke-width: 0.8"/>
      </defs>
      <g>
       <use xlink:href="#mc1605b202c" x="114.014521" y="228.954713" style="stroke: #000000; stroke-width: 0.8"/>
      </g>
     </g>
     <g id="text_1">
      <!-- 50 -->
      <g transform="translate(108.288271 242.793307) scale(0.09 -0.09)">
       <defs>
        <path id="DejaVuSans-35" d="M 691 4666 
L 3169 4666 
L 3169 4134 
L 1269 4134 
L 1269 2991 
Q 1406 3038 1543 3061 
Q 1681 3084 1819 3084 
Q 2600 3084 3056 2656 
Q 3513 2228 3513 1497 
Q 3513 744 3044 326 
Q 2575 -91 1722 -91 
Q 1428 -91 1123 -41 
Q 819 9 494 109 
L 494 744 
Q 775 591 1075 516 
Q 1375 441 1709 441 
Q 2250 441 2565 725 
Q 2881 1009 2881 1497 
Q 2881 1984 2565 2268 
Q 2250 2553 1709 2553 
Q 1456 2553 1204 2497 
Q 953 2441 691 2322 
L 691 4666 
z
" transform="scale(0.015625)"/>
        <path id="DejaVuSans-30" d="M 2034 4250 
Q 1547 4250 1301 3770 
Q 1056 3291 1056 2328 
Q 1056 1369 1301 889 
Q 1547 409 2034 409 
Q 2525 409 2770 889 
Q 3016 1369 3016 2328 
Q 3016 3291 2770 3770 
Q 2525 4250 2034 4250 
z
M 2034 4750 
Q 2819 4750 3233 4129 
Q 3647 3509 3647 2328 
Q 3647 1150 3233 529 
Q 2819 -91 2034 -91 
Q 1250 -91 836 529 
Q 422 1150 422 2328 
Q 422 3509 836 4129 
Q 1250 4750 2034 4750 
z
" transform="scale(0.015625)"/>
       </defs>
       <use xlink:href="#DejaVuSans-35"/>
       <use xlink:href="#DejaVuSans-30" transform="translate(63.623047 0)"/>
      </g>
     </g>
    </g>
    <g id="xtick_2">
     <g id="line2d_3">
      <path d="M 229.568974 228.954713 
L 229.568974 17.061433 
" clip-path="url(#p6b713682d8)" style="fill: none; stroke: #eef2f7; stroke-width: 0.55; stroke-linecap: square"/>
     </g>
     <g id="line2d_4">
      <g>
       <use xlink:href="#mc1605b202c" x="229.568974" y="228.954713" style="stroke: #000000; stroke-width: 0.8"/>
      </g>
     </g>
     <g id="text_2">
      <!-- 75 -->
      <g transform="translate(223.842724 242.793307) scale(0.09 -0.09)">
       <defs>
        <path id="DejaVuSans-37" d="M 525 4666 
L 3525 4666 
L 3525 4397 
L 1831 0 
L 1172 0 
L 2766 4134 
L 525 4134 
L 525 4666 
z
" transform="scale(0.015625)"/>
       </defs>
       <use xlink:href="#DejaVuSans-37"/>
       <use xlink:href="#DejaVuSans-35" transform="translate(63.623047 0)"/>
      </g>
     </g>
    </g>
    <g id="xtick_3">
     <g id="line2d_5">
      <path d="M 345.123426 228.954713 
L 345.123426 17.061433 
" clip-path="url(#p6b713682d8)" style="fill: none; stroke: #eef2f7; stroke-width: 0.55; stroke-linecap: square"/>
     </g>
     <g id="line2d_6">
      <g>
       <use xlink:href="#mc1605b202c" x="345.123426" y="228.954713" style="stroke: #000000; stroke-width: 0.8"/>
      </g>
     </g>
     <g id="text_3">
      <!-- 100 -->
      <g transform="translate(336.534051 242.793307) scale(0.09 -0.09)">
       <defs>
        <path id="DejaVuSans-31" d="M 794 531 
L 1825 531 
L 1825 4091 
L 703 3866 
L 703 4441 
L 1819 4666 
L 2450 4666 
L 2450 531 
L 3481 531 
L 3481 0 
L 794 0 
L 794 531 
z
" transform="scale(0.015625)"/>
       </defs>
       <use xlink:href="#DejaVuSans-31"/>
       <use xlink:href="#DejaVuSans-30" transform="translate(63.623047 0)"/>
       <use xlink:href="#DejaVuSans-30" transform="translate(127.246094 0)"/>
      </g>
     </g>
    </g>
    <g id="xtick_4">
     <g id="line2d_7">
      <path d="M 460.677878 228.954713 
L 460.677878 17.061433 
" clip-path="url(#p6b713682d8)" style="fill: none; stroke: #eef2f7; stroke-width: 0.55; stroke-linecap: square"/>
     </g>
     <g id="line2d_8">
      <g>
       <use xlink:href="#mc1605b202c" x="460.677878" y="228.954713" style="stroke: #000000; stroke-width: 0.8"/>
      </g>
     </g>
     <g id="text_4">
      <!-- 125 -->
      <g transform="translate(452.088503 242.793307) scale(0.09 -0.09)">
       <defs>
        <path id="DejaVuSans-32" d="M 1228 531 
L 3431 531 
L 3431 0 
L 469 0 
L 469 531 
Q 828 903 1448 1529 
Q 2069 2156 2228 2338 
Q 2531 2678 2651 2914 
Q 2772 3150 2772 3378 
Q 2772 3750 2511 3984 
Q 2250 4219 1831 4219 
Q 1534 4219 1204 4116 
Q 875 4013 500 3803 
L 500 4441 
Q 881 4594 1212 4672 
Q 1544 4750 1819 4750 
Q 2544 4750 2975 4387 
Q 3406 4025 3406 3419 
Q 3406 3131 3298 2873 
Q 3191 2616 2906 2266 
Q 2828 2175 2409 1742 
Q 1991 1309 1228 531 
z
" transform="scale(0.015625)"/>
       </defs>
       <use xlink:href="#DejaVuSans-31"/>
       <use xlink:href="#DejaVuSans-32" transform="translate(63.623047 0)"/>
       <use xlink:href="#DejaVuSans-35" transform="translate(127.246094 0)"/>
      </g>
     </g>
    </g>
    <g id="xtick_5">
     <g id="line2d_9">
      <path d="M 576.232331 228.954713 
L 576.232331 17.061433 
" clip-path="url(#p6b713682d8)" style="fill: none; stroke: #eef2f7; stroke-width: 0.55; stroke-linecap: square"/>
     </g>
     <g id="line2d_10">
      <g>
       <use xlink:href="#mc1605b202c" x="576.232331" y="228.954713" style="stroke: #000000; stroke-width: 0.8"/>
      </g>
     </g>
     <g id="text_5">
      <!-- 150 -->
      <g transform="translate(567.642956 242.793307) scale(0.09 -0.09)">
       <use xlink:href="#DejaVuSans-31"/>
       <use xlink:href="#DejaVuSans-35" transform="translate(63.623047 0)"/>
       <use xlink:href="#DejaVuSans-30" transform="translate(127.246094 0)"/>
      </g>
     </g>
    </g>
    <g id="xtick_6">
     <g id="line2d_11">
      <path d="M 691.786783 228.954713 
L 691.786783 17.061433 
" clip-path="url(#p6b713682d8)" style="fill: none; stroke: #eef2f7; stroke-width: 0.55; stroke-linecap: square"/>
     </g>
     <g id="line2d_12">
      <g>
       <use xlink:href="#mc1605b202c" x="691.786783" y="228.954713" style="stroke: #000000; stroke-width: 0.8"/>
      </g>
     </g>
     <g id="text_6">
      <!-- 175 -->
      <g transform="translate(683.197408 242.793307) scale(0.09 -0.09)">
       <use xlink:href="#DejaVuSans-31"/>
       <use xlink:href="#DejaVuSans-37" transform="translate(63.623047 0)"/>
       <use xlink:href="#DejaVuSans-35" transform="translate(127.246094 0)"/>
      </g>
     </g>
    </g>
    <g id="xtick_7">
     <g id="line2d_13">
      <path d="M 807.341235 228.954713 
L 807.341235 17.061433 
" clip-path="url(#p6b713682d8)" style="fill: none; stroke: #eef2f7; stroke-width: 0.55; stroke-linecap: square"/>
     </g>
     <g id="line2d_14">
      <g>
       <use xlink:href="#mc1605b202c" x="807.341235" y="228.954713" style="stroke: #000000; stroke-width: 0.8"/>
      </g>
     </g>
     <g id="text_7">
      <!-- 200 -->
      <g transform="translate(798.75186 242.793307) scale(0.09 -0.09)">
       <use xlink:href="#DejaVuSans-32"/>
       <use xlink:href="#DejaVuSans-30" transform="translate(63.623047 0)"/>
       <use xlink:href="#DejaVuSans-30" transform="translate(127.246094 0)"/>
      </g>
     </g>
    </g>
    <g id="xtick_8">
     <g id="line2d_15">
      <path d="M 922.895688 228.954713 
L 922.895688 17.061433 
" clip-path="url(#p6b713682d8)" style="fill: none; stroke: #eef2f7; stroke-width: 0.55; stroke-linecap: square"/>
     </g>
     <g id="line2d_16">
      <g>
       <use xlink:href="#mc1605b202c" x="922.895688" y="228.954713" style="stroke: #000000; stroke-width: 0.8"/>
      </g>
     </g>
     <g id="text_8">
      <!-- 225 -->
      <g transform="translate(914.306313 242.793307) scale(0.09 -0.09)">
       <use xlink:href="#DejaVuSans-32"/>
       <use xlink:href="#DejaVuSans-32" transform="translate(63.623047 0)"/>
       <use xlink:href="#DejaVuSans-35" transform="translate(127.246094 0)"/>
      </g>
     </g>
    </g>
    <g id="text_9">
     <!-- Minutes since session start -->
     <g transform="translate(425.443281 256.263463) scale(0.1 -0.1)">
      <defs>
       <path id="DejaVuSans-4d" d="M 628 4666 
L 1569 4666 
L 2759 1491 
L 3956 4666 
L 4897 4666 
L 4897 0 
L 4281 0 
L 4281 4097 
L 3078 897 
L 2444 897 
L 1241 4097 
L 1241 0 
L 628 0 
L 628 4666 
z
" transform="scale(0.015625)"/>
       <path id="DejaVuSans-69" d="M 603 3500 
L 1178 3500 
L 1178 0 
L 603 0 
L 603 3500 
z
M 603 4863 
L 1178 4863 
L 1178 4134 
L 603 4134 
L 603 4863 
z
" transform="scale(0.015625)"/>
       <path id="DejaVuSans-6e" d="M 3513 2113 
L 3513 0 
L 2938 0 
L 2938 2094 
Q 2938 2591 2744 2837 
Q 2550 3084 2163 3084 
Q 1697 3084 1428 2787 
Q 1159 2491 1159 1978 
L 1159 0 
L 581 0 
L 581 3500 
L 1159 3500 
L 1159 2956 
Q 1366 3272 1645 3428 
Q 1925 3584 2291 3584 
Q 2894 3584 3203 3211 
Q 3513 2838 3513 2113 
z
" transform="scale(0.015625)"/>
       <path id="DejaVuSans-75" d="M 544 1381 
L 544 3500 
L 1119 3500 
L 1119 1403 
Q 1119 906 1312 657 
Q 1506 409 1894 409 
Q 2359 409 2629 706 
Q 2900 1003 2900 1516 
L 2900 3500 
L 3475 3500 
L 3475 0 
L 2900 0 
L 2900 538 
Q 2691 219 2414 64 
Q 2138 -91 1772 -91 
Q 1169 -91 856 284 
Q 544 659 544 1381 
z
M 1991 3584 
L 1991 3584 
z
" transform="scale(0.015625)"/>
       <path id="DejaVuSans-74" d="M 1172 4494 
L 1172 3500 
L 2356 3500 
L 2356 3053 
L 1172 3053 
L 1172 1153 
Q 1172 725 1289 603 
Q 1406 481 1766 481 
L 2356 481 
L 2356 0 
L 1766 0 
Q 1100 0 847 248 
Q 594 497 594 1153 
L 594 3053 
L 172 3053 
L 172 3500 
L 594 3500 
L 594 4494 
L 1172 4494 
z
" transform="scale(0.015625)"/>
       <path id="DejaVuSans-65" d="M 3597 1894 
L 3597 1613 
L 953 1613 
Q 991 1019 1311 708 
Q 1631 397 2203 397 
Q 2534 397 2845 478 
Q 3156 559 3463 722 
L 3463 178 
Q 3153 47 2828 -22 
Q 2503 -91 2169 -91 
Q 1331 -91 842 396 
Q 353 884 353 1716 
Q 353 2575 817 3079 
Q 1281 3584 2069 3584 
Q 2775 3584 3186 3129 
Q 3597 2675 3597 1894 
z
M 3022 2063 
Q 3016 2534 2758 2815 
Q 2500 3097 2075 3097 
Q 1594 3097 1305 2825 
Q 1016 2553 972 2059 
L 3022 2063 
z
" transform="scale(0.015625)"/>
       <path id="DejaVuSans-73" d="M 2834 3397 
L 2834 2853 
Q 2591 2978 2328 3040 
Q 2066 3103 1784 3103 
Q 1356 3103 1142 2972 
Q 928 2841 928 2578 
Q 928 2378 1081 2264 
Q 1234 2150 1697 2047 
L 1894 2003 
Q 2506 1872 2764 1633 
Q 3022 1394 3022 966 
Q 3022 478 2636 193 
Q 2250 -91 1575 -91 
Q 1294 -91 989 -36 
Q 684 19 347 128 
L 347 722 
Q 666 556 975 473 
Q 1284 391 1588 391 
Q 1994 391 2212 530 
Q 2431 669 2431 922 
Q 2431 1156 2273 1281 
Q 2116 1406 1581 1522 
L 1381 1569 
Q 847 1681 609 1914 
Q 372 2147 372 2553 
Q 372 3047 722 3315 
Q 1072 3584 1716 3584 
Q 2034 3584 2315 3537 
Q 2597 3491 2834 3397 
z
" transform="scale(0.015625)"/>
       <path id="DejaVuSans-20" transform="scale(0.015625)"/>
       <path id="DejaVuSans-63" d="M 3122 3366 
L 3122 2828 
Q 2878 2963 2633 3030 
Q 2388 3097 2138 3097 
Q 1578 3097 1268 2742 
Q 959 2388 959 1747 
Q 959 1106 1268 751 
Q 1578 397 2138 397 
Q 2388 397 2633 464 
Q 2878 531 3122 666 
L 3122 134 
Q 2881 22 2623 -34 
Q 2366 -91 2075 -91 
Q 1284 -91 818 406 
Q 353 903 353 1747 
Q 353 2603 823 3093 
Q 1294 3584 2113 3584 
Q 2378 3584 2631 3529 
Q 2884 3475 3122 3366 
z
" transform="scale(0.015625)"/>
       <path id="DejaVuSans-6f" d="M 1959 3097 
Q 1497 3097 1228 2736 
Q 959 2375 959 1747 
Q 959 1119 1226 758 
Q 1494 397 1959 397 
Q 2419 397 2687 759 
Q 2956 1122 2956 1747 
Q 2956 2369 2687 2733 
Q 2419 3097 1959 3097 
z
M 1959 3584 
Q 2709 3584 3137 3096 
Q 3566 2609 3566 1747 
Q 3566 888 3137 398 
Q 2709 -91 1959 -91 
Q 1206 -91 779 398 
Q 353 888 353 1747 
Q 353 2609 779 3096 
Q 1206 3584 1959 3584 
z
" transform="scale(0.015625)"/>
       <path id="DejaVuSans-61" d="M 2194 1759 
Q 1497 1759 1228 1600 
Q 959 1441 959 1056 
Q 959 750 1161 570 
Q 1363 391 1709 391 
Q 2188 391 2477 730 
Q 2766 1069 2766 1631 
L 2766 1759 
L 2194 1759 
z
M 3341 1997 
L 3341 0 
L 2766 0 
L 2766 531 
Q 2569 213 2275 61 
Q 1981 -91 1556 -91 
Q 1019 -91 701 211 
Q 384 513 384 1019 
Q 384 1609 779 1909 
Q 1175 2209 1959 2209 
L 2766 2209 
L 2766 2266 
Q 2766 2663 2505 2880 
Q 2244 3097 1772 3097 
Q 1472 3097 1187 3025 
Q 903 2953 641 2809 
L 641 3341 
Q 956 3463 1253 3523 
Q 1550 3584 1831 3584 
Q 2591 3584 2966 3190 
Q 3341 2797 3341 1997 
z
" transform="scale(0.015625)"/>
       <path id="DejaVuSans-72" d="M 2631 2963 
Q 2534 3019 2420 3045 
Q 2306 3072 2169 3072 
Q 1681 3072 1420 2755 
Q 1159 2438 1159 1844 
L 1159 0 
L 581 0 
L 581 3500 
L 1159 3500 
L 1159 2956 
Q 1341 3275 1631 3429 
Q 1922 3584 2338 3584 
Q 2397 3584 2469 3576 
Q 2541 3569 2628 3553 
L 2631 2963 
z
" transform="scale(0.015625)"/>
      </defs>
      <use xlink:href="#DejaVuSans-4d"/>
      <use xlink:href="#DejaVuSans-69" transform="translate(86.279297 0)"/>
      <use xlink:href="#DejaVuSans-6e" transform="translate(114.0625 0)"/>
      <use xlink:href="#DejaVuSans-75" transform="translate(177.441406 0)"/>
      <use xlink:href="#DejaVuSans-74" transform="translate(240.820312 0)"/>
      <use xlink:href="#DejaVuSans-65" transform="translate(280.029297 0)"/>
      <use xlink:href="#DejaVuSans-73" transform="translate(341.552734 0)"/>
      <use xlink:href="#DejaVuSans-20" transform="translate(393.652344 0)"/>
      <use xlink:href="#DejaVuSans-73" transform="translate(425.439453 0)"/>
      <use xlink:href="#DejaVuSans-69" transform="translate(477.539062 0)"/>
      <use xlink:href="#DejaVuSans-6e" transform="translate(505.322266 0)"/>
      <use xlink:href="#DejaVuSans-63" transform="translate(568.701172 0)"/>
      <use xlink:href="#DejaVuSans-65" transform="translate(623.681641 0)"/>
      <use xlink:href="#DejaVuSans-20" transform="translate(685.205078 0)"/>
      <use xlink:href="#DejaVuSans-73" transform="translate(716.992188 0)"/>
      <use xlink:href="#DejaVuSans-65" transform="translate(769.091797 0)"/>
      <use xlink:href="#DejaVuSans-73" transform="translate(830.615234 0)"/>
      <use xlink:href="#DejaVuSans-73" transform="translate(882.714844 0)"/>
      <use xlink:href="#DejaVuSans-69" transform="translate(934.814453 0)"/>
      <use xlink:href="#DejaVuSans-6f" transform="translate(962.597656 0)"/>
      <use xlink:href="#DejaVuSans-6e" transform="translate(1023.779297 0)"/>
      <use xlink:href="#DejaVuSans-20" transform="translate(1087.158203 0)"/>
      <use xlink:href="#DejaVuSans-73" transform="translate(1118.945312 0)"/>
      <use xlink:href="#DejaVuSans-74" transform="translate(1171.044922 0)"/>
      <use xlink:href="#DejaVuSans-61" transform="translate(1210.253906 0)"/>
      <use xlink:href="#DejaVuSans-72" transform="translate(1271.533203 0)"/>
      <use xlink:href="#DejaVuSans-74" transform="translate(1312.646484 0)"/>
     </g>
    </g>
   </g>
   <g id="matplotlib.axis_2">
    <g id="ytick_1">
     <g id="line2d_17">
      <path d="M 50.783125 219.467829 
L 935.283125 219.467829 
" clip-path="url(#p6b713682d8)" style="fill: none; stroke: #eef2f7; stroke-opacity: 0.25; stroke-width: 0.55; stroke-linecap: square"/>
     </g>
     <g id="line2d_18">
      <defs>
       <path id="m559dc9857e" d="M 0 0 
L -3.5 0 
" style="stroke: #000000; stroke-width: 0.8"/>
      </defs>
      <g>
       <use xlink:href="#m559dc9857e" x="50.783125" y="219.467829" style="stroke: #000000; stroke-width: 0.8"/>
      </g>
     </g>
     <g id="text_10">
      <!-- 0 -->
      <g transform="translate(38.056875 222.887126) scale(0.09 -0.09)">
       <use xlink:href="#DejaVuSans-30"/>
      </g>
     </g>
    </g>
    <g id="ytick_2">
     <g id="line2d_19">
      <path d="M 50.783125 181.407635 
L 935.283125 181.407635 
" clip-path="url(#p6b713682d8)" style="fill: none; stroke: #eef2f7; stroke-opacity: 0.25; stroke-width: 0.55; stroke-linecap: square"/>
     </g>
     <g id="line2d_20">
      <g>
       <use xlink:href="#m559dc9857e" x="50.783125" y="181.407635" style="stroke: #000000; stroke-width: 0.8"/>
      </g>
     </g>
     <g id="text_11">
      <!-- 200 -->
      <g transform="translate(26.604375 184.826932) scale(0.09 -0.09)">
       <use xlink:href="#DejaVuSans-32"/>
       <use xlink:href="#DejaVuSans-30" transform="translate(63.623047 0)"/>
       <use xlink:href="#DejaVuSans-30" transform="translate(127.246094 0)"/>
      </g>
     </g>
    </g>
    <g id="ytick_3">
     <g id="line2d_21">
      <path d="M 50.783125 143.347441 
L 935.283125 143.347441 
" clip-path="url(#p6b713682d8)" style="fill: none; stroke: #eef2f7; stroke-opacity: 0.25; stroke-width: 0.55; stroke-linecap: square"/>
     </g>
     <g id="line2d_22">
      <g>
       <use xlink:href="#m559dc9857e" x="50.783125" y="143.347441" style="stroke: #000000; stroke-width: 0.8"/>
      </g>
     </g>
     <g id="text_12">
      <!-- 400 -->
      <g transform="translate(26.604375 146.766737) scale(0.09 -0.09)">
       <defs>
        <path id="DejaVuSans-34" d="M 2419 4116 
L 825 1625 
L 2419 1625 
L 2419 4116 
z
M 2253 4666 
L 3047 4666 
L 3047 1625 
L 3713 1625 
L 3713 1100 
L 3047 1100 
L 3047 0 
L 2419 0 
L 2419 1100 
L 313 1100 
L 313 1709 
L 2253 4666 
z
" transform="scale(0.015625)"/>
       </defs>
       <use xlink:href="#DejaVuSans-34"/>
       <use xlink:href="#DejaVuSans-30" transform="translate(63.623047 0)"/>
       <use xlink:href="#DejaVuSans-30" transform="translate(127.246094 0)"/>
      </g>
     </g>
    </g>
    <g id="ytick_4">
     <g id="line2d_23">
      <path d="M 50.783125 105.287246 
L 935.283125 105.287246 
" clip-path="url(#p6b713682d8)" style="fill: none; stroke: #eef2f7; stroke-opacity: 0.25; stroke-width: 0.55; stroke-linecap: square"/>
     </g>
     <g id="line2d_24">
      <g>
       <use xlink:href="#m559dc9857e" x="50.783125" y="105.287246" style="stroke: #000000; stroke-width: 0.8"/>
      </g>
     </g>
     <g id="text_13">
      <!-- 600 -->
      <g transform="translate(26.604375 108.706543) scale(0.09 -0.09)">
       <defs>
        <path id="DejaVuSans-36" d="M 2113 2584 
Q 1688 2584 1439 2293 
Q 1191 2003 1191 1497 
Q 1191 994 1439 701 
Q 1688 409 2113 409 
Q 2538 409 2786 701 
Q 3034 994 3034 1497 
Q 3034 2003 2786 2293 
Q 2538 2584 2113 2584 
z
M 3366 4563 
L 3366 3988 
Q 3128 4100 2886 4159 
Q 2644 4219 2406 4219 
Q 1781 4219 1451 3797 
Q 1122 3375 1075 2522 
Q 1259 2794 1537 2939 
Q 1816 3084 2150 3084 
Q 2853 3084 3261 2657 
Q 3669 2231 3669 1497 
Q 3669 778 3244 343 
Q 2819 -91 2113 -91 
Q 1303 -91 875 529 
Q 447 1150 447 2328 
Q 447 3434 972 4092 
Q 1497 4750 2381 4750 
Q 2619 4750 2861 4703 
Q 3103 4656 3366 4563 
z
" transform="scale(0.015625)"/>
       </defs>
       <use xlink:href="#DejaVuSans-36"/>
       <use xlink:href="#DejaVuSans-30" transform="translate(63.623047 0)"/>
       <use xlink:href="#DejaVuSans-30" transform="translate(127.246094 0)"/>
      </g>
     </g>
    </g>
    <g id="ytick_5">
     <g id="line2d_25">
      <path d="M 50.783125 67.227052 
L 935.283125 67.227052 
" clip-path="url(#p6b713682d8)" style="fill: none; stroke: #eef2f7; stroke-opacity: 0.25; stroke-width: 0.55; stroke-linecap: square"/>
     </g>
     <g id="line2d_26">
      <g>
       <use xlink:href="#m559dc9857e" x="50.783125" y="67.227052" style="stroke: #000000; stroke-width: 0.8"/>
      </g>
     </g>
     <g id="text_14">
      <!-- 800 -->
      <g transform="translate(26.604375 70.646349) scale(0.09 -0.09)">
       <defs>
        <path id="DejaVuSans-38" d="M 2034 2216 
Q 1584 2216 1326 1975 
Q 1069 1734 1069 1313 
Q 1069 891 1326 650 
Q 1584 409 2034 409 
Q 2484 409 2743 651 
Q 3003 894 3003 1313 
Q 3003 1734 2745 1975 
Q 2488 2216 2034 2216 
z
M 1403 2484 
Q 997 2584 770 2862 
Q 544 3141 544 3541 
Q 544 4100 942 4425 
Q 1341 4750 2034 4750 
Q 2731 4750 3128 4425 
Q 3525 4100 3525 3541 
Q 3525 3141 3298 2862 
Q 3072 2584 2669 2484 
Q 3125 2378 3379 2068 
Q 3634 1759 3634 1313 
Q 3634 634 3220 271 
Q 2806 -91 2034 -91 
Q 1263 -91 848 271 
Q 434 634 434 1313 
Q 434 1759 690 2068 
Q 947 2378 1403 2484 
z
M 1172 3481 
Q 1172 3119 1398 2916 
Q 1625 2713 2034 2713 
Q 2441 2713 2670 2916 
Q 2900 3119 2900 3481 
Q 2900 3844 2670 4047 
Q 2441 4250 2034 4250 
Q 1625 4250 1398 4047 
Q 1172 3844 1172 3481 
z
" transform="scale(0.015625)"/>
       </defs>
       <use xlink:href="#DejaVuSans-38"/>
       <use xlink:href="#DejaVuSans-30" transform="translate(63.623047 0)"/>
       <use xlink:href="#DejaVuSans-30" transform="translate(127.246094 0)"/>
      </g>
     </g>
    </g>
    <g id="ytick_6">
     <g id="line2d_27">
      <path d="M 50.783125 29.166858 
L 935.283125 29.166858 
" clip-path="url(#p6b713682d8)" style="fill: none; stroke: #eef2f7; stroke-opacity: 0.25; stroke-width: 0.55; stroke-linecap: square"/>
     </g>
     <g id="line2d_28">
      <g>
       <use xlink:href="#m559dc9857e" x="50.783125" y="29.166858" style="stroke: #000000; stroke-width: 0.8"/>
      </g>
     </g>
     <g id="text_15">
      <!-- 1000 -->
      <g transform="translate(20.878125 32.586155) scale(0.09 -0.09)">
       <use xlink:href="#DejaVuSans-31"/>
       <use xlink:href="#DejaVuSans-30" transform="translate(63.623047 0)"/>
       <use xlink:href="#DejaVuSans-30" transform="translate(127.246094 0)"/>
       <use xlink:href="#DejaVuSans-30" transform="translate(190.869141 0)"/>
      </g>
     </g>
    </g>
    <g id="text_16">
     <!-- Raw ambient value -->
     <g transform="translate(14.798438 171.061979) rotate(-90) scale(0.1 -0.1)">
      <defs>
       <path id="DejaVuSans-52" d="M 2841 2188 
Q 3044 2119 3236 1894 
Q 3428 1669 3622 1275 
L 4263 0 
L 3584 0 
L 2988 1197 
Q 2756 1666 2539 1819 
Q 2322 1972 1947 1972 
L 1259 1972 
L 1259 0 
L 628 0 
L 628 4666 
L 2053 4666 
Q 2853 4666 3247 4331 
Q 3641 3997 3641 3322 
Q 3641 2881 3436 2590 
Q 3231 2300 2841 2188 
z
M 1259 4147 
L 1259 2491 
L 2053 2491 
Q 2509 2491 2742 2702 
Q 2975 2913 2975 3322 
Q 2975 3731 2742 3939 
Q 2509 4147 2053 4147 
L 1259 4147 
z
" transform="scale(0.015625)"/>
       <path id="DejaVuSans-77" d="M 269 3500 
L 844 3500 
L 1563 769 
L 2278 3500 
L 2956 3500 
L 3675 769 
L 4391 3500 
L 4966 3500 
L 4050 0 
L 3372 0 
L 2619 2869 
L 1863 0 
L 1184 0 
L 269 3500 
z
" transform="scale(0.015625)"/>
       <path id="DejaVuSans-6d" d="M 3328 2828 
Q 3544 3216 3844 3400 
Q 4144 3584 4550 3584 
Q 5097 3584 5394 3201 
Q 5691 2819 5691 2113 
L 5691 0 
L 5113 0 
L 5113 2094 
Q 5113 2597 4934 2840 
Q 4756 3084 4391 3084 
Q 3944 3084 3684 2787 
Q 3425 2491 3425 1978 
L 3425 0 
L 2847 0 
L 2847 2094 
Q 2847 2600 2669 2842 
Q 2491 3084 2119 3084 
Q 1678 3084 1418 2786 
Q 1159 2488 1159 1978 
L 1159 0 
L 581 0 
L 581 3500 
L 1159 3500 
L 1159 2956 
Q 1356 3278 1631 3431 
Q 1906 3584 2284 3584 
Q 2666 3584 2933 3390 
Q 3200 3197 3328 2828 
z
" transform="scale(0.015625)"/>
       <path id="DejaVuSans-62" d="M 3116 1747 
Q 3116 2381 2855 2742 
Q 2594 3103 2138 3103 
Q 1681 3103 1420 2742 
Q 1159 2381 1159 1747 
Q 1159 1113 1420 752 
Q 1681 391 2138 391 
Q 2594 391 2855 752 
Q 3116 1113 3116 1747 
z
M 1159 2969 
Q 1341 3281 1617 3432 
Q 1894 3584 2278 3584 
Q 2916 3584 3314 3078 
Q 3713 2572 3713 1747 
Q 3713 922 3314 415 
Q 2916 -91 2278 -91 
Q 1894 -91 1617 61 
Q 1341 213 1159 525 
L 1159 0 
L 581 0 
L 581 4863 
L 1159 4863 
L 1159 2969 
z
" transform="scale(0.015625)"/>
       <path id="DejaVuSans-76" d="M 191 3500 
L 800 3500 
L 1894 563 
L 2988 3500 
L 3597 3500 
L 2284 0 
L 1503 0 
L 191 3500 
z
" transform="scale(0.015625)"/>
       <path id="DejaVuSans-6c" d="M 603 4863 
L 1178 4863 
L 1178 0 
L 603 0 
L 603 4863 
z
" transform="scale(0.015625)"/>
      </defs>
      <use xlink:href="#DejaVuSans-52"/>
      <use xlink:href="#DejaVuSans-61" transform="translate(67.232422 0)"/>
      <use xlink:href="#DejaVuSans-77" transform="translate(128.511719 0)"/>
      <use xlink:href="#DejaVuSans-20" transform="translate(210.298828 0)"/>
      <use xlink:href="#DejaVuSans-61" transform="translate(242.085938 0)"/>
      <use xlink:href="#DejaVuSans-6d" transform="translate(303.365234 0)"/>
      <use xlink:href="#DejaVuSans-62" transform="translate(400.777344 0)"/>
      <use xlink:href="#DejaVuSans-69" transform="translate(464.253906 0)"/>
      <use xlink:href="#DejaVuSans-65" transform="translate(492.037109 0)"/>
      <use xlink:href="#DejaVuSans-6e" transform="translate(553.560547 0)"/>
      <use xlink:href="#DejaVuSans-74" transform="translate(616.939453 0)"/>
      <use xlink:href="#DejaVuSans-20" transform="translate(656.148438 0)"/>
      <use xlink:href="#DejaVuSans-76" transform="translate(687.935547 0)"/>
      <use xlink:href="#DejaVuSans-61" transform="translate(747.115234 0)"/>
      <use xlink:href="#DejaVuSans-6c" transform="translate(808.394531 0)"/>
      <use xlink:href="#DejaVuSans-75" transform="translate(836.177734 0)"/>
      <use xlink:href="#DejaVuSans-65" transform="translate(899.556641 0)"/>
     </g>
    </g>
   </g>
   <g id="line2d_29">
    <path d="M 67.79274 214.044251 
L 220.324617 213.949101 
L 234.191152 213.587529 
L 264.235309 213.682679 
L 289.657289 213.79686 
L 312.768179 213.89201 
L 345.123426 213.968131 
L 354.367782 213.91104 
L 437.566988 213.968131 
L 446.811344 214.006191 
L 918.27351 214.025221 
L 918.27351 214.025221 
" clip-path="url(#p6b713682d8)" style="fill: none; stroke: #2563eb; stroke-opacity: 0.95; stroke-width: 1.3; stroke-linecap: square"/>
   </g>
   <g id="line2d_30">
    <path d="M 67.79274 216.803615 
L 220.324617 217.564819 
L 224.946796 216.993916 
L 229.568974 206.717664 
L 234.191152 198.725023 
L 238.81333 198.725023 
L 243.435508 198.915324 
L 248.057686 198.915324 
L 252.679864 198.725023 
L 257.302042 198.725023 
L 264.235309 198.915324 
L 266.546398 198.915324 
L 271.168577 198.725023 
L 298.901645 198.725023 
L 303.523823 201.769839 
L 308.146001 198.725023 
L 322.012536 198.725023 
L 326.634714 198.915324 
L 335.87907 198.915324 
L 340.501248 203.863149 
L 345.123426 201.008635 
L 349.745604 198.725023 
L 354.367782 198.725023 
L 358.98996 198.915324 
L 382.100851 198.915324 
L 386.723029 198.725023 
L 395.967385 198.725023 
L 400.589563 198.915324 
L 423.700454 198.915324 
L 428.322632 198.725023 
L 442.189166 198.725023 
L 446.811344 198.915324 
L 451.433522 198.915324 
L 456.0557 198.725023 
L 465.300056 198.725023 
L 469.922235 198.915324 
L 483.788769 198.915324 
L 488.410947 207.288567 
L 493.033125 198.725023 
L 497.655303 198.725023 
L 502.277481 198.915324 
L 506.899659 198.915324 
L 511.521837 198.725023 
L 530.01055 198.725023 
L 534.632728 198.915324 
L 557.743618 198.915324 
L 562.365796 198.725023 
L 580.854509 198.725023 
L 585.476687 198.915324 
L 677.920249 198.915324 
L 682.542427 198.725023 
L 687.164605 198.915324 
L 691.786783 198.15412 
L 696.408961 198.915324 
L 742.630742 198.915324 
L 747.25292 207.098266 
L 751.875098 199.866829 
L 756.497276 198.915324 
L 761.119454 199.105625 
L 765.741633 199.105625 
L 770.363811 198.915324 
L 811.963413 198.915324 
L 816.585592 198.725023 
L 825.829948 198.725023 
L 830.452126 198.915324 
L 853.563016 198.915324 
L 858.185194 198.725023 
L 904.406975 198.725023 
L 913.651332 199.105625 
L 918.27351 199.105625 
L 918.27351 199.105625 
" clip-path="url(#p6b713682d8)" style="fill: none; stroke: #f59e0b; stroke-opacity: 0.95; stroke-width: 1.3; stroke-linecap: square"/>
   </g>
   <g id="line2d_31">
    <path d="M 67.79274 209.80054 
L 220.324617 209.99084 
L 224.946796 209.039336 
L 229.568974 210.162111 
L 234.191152 210.200172 
L 238.81333 209.91472 
L 243.435508 209.153516 
L 248.057686 209.93375 
L 252.679864 210.028901 
L 257.302042 209.93375 
L 271.168577 210.143081 
L 275.790755 210.009871 
L 285.035111 210.066961 
L 289.657289 210.105021 
L 294.279467 210.009871 
L 298.901645 210.085991 
L 312.768179 209.97181 
L 317.390357 210.085991 
L 326.634714 210.009871 
L 340.501248 210.162111 
L 345.123426 209.496058 
L 349.745604 209.95278 
L 358.98996 210.047931 
L 363.612138 210.047931 
L 368.234316 209.91472 
L 372.856495 210.085991 
L 382.100851 210.143081 
L 386.723029 209.97181 
L 391.345207 210.105021 
L 405.211741 209.93375 
L 409.833919 210.085991 
L 414.456097 210.105021 
L 419.078276 209.134486 
L 423.700454 210.009871 
L 432.94481 209.93375 
L 437.566988 210.009871 
L 442.189166 209.93375 
L 446.811344 210.200172 
L 456.0557 210.143081 
L 469.922235 209.8386 
L 474.544413 210.009871 
L 479.166591 209.89569 
L 483.788769 210.124051 
L 488.410947 210.162111 
L 497.655303 209.95278 
L 502.277481 209.172546 
L 506.899659 209.95278 
L 516.144015 209.686359 
L 520.766194 210.009871 
L 534.632728 209.97181 
L 539.254906 210.124051 
L 548.499262 210.124051 
L 553.12144 209.95278 
L 557.743618 210.200172 
L 571.610153 209.93375 
L 576.232331 210.124051 
L 580.854509 210.124051 
L 585.476687 209.91472 
L 617.831934 210.085991 
L 627.07629 209.93375 
L 631.698468 210.085991 
L 636.320646 210.009871 
L 640.942824 210.181141 
L 645.565002 209.97181 
L 650.18718 210.105021 
L 659.431536 210.066961 
L 664.053714 209.8386 
L 668.675893 210.105021 
L 673.298071 210.105021 
L 677.920249 209.81957 
L 682.542427 209.85763 
L 687.164605 210.143081 
L 691.786783 209.343817 
L 696.408961 210.124051 
L 701.031139 210.028901 
L 728.764208 210.162111 
L 733.386386 210.181141 
L 738.008564 209.93375 
L 742.630742 210.047931 
L 747.25292 209.667329 
L 751.875098 210.143081 
L 756.497276 209.99084 
L 761.119454 209.496058 
L 765.741633 210.162111 
L 770.363811 210.066961 
L 774.985989 209.400907 
L 779.608167 210.028901 
L 788.852523 210.143081 
L 793.474701 209.99084 
L 798.096879 210.162111 
L 807.341235 210.066961 
L 811.963413 209.91472 
L 816.585592 210.028901 
L 821.20777 209.99084 
L 825.829948 210.200172 
L 830.452126 209.93375 
L 835.074304 210.105021 
L 848.940838 209.97181 
L 853.563016 210.143081 
L 858.185194 210.028901 
L 872.051729 210.047931 
L 876.673907 210.162111 
L 881.296085 210.162111 
L 885.918263 209.93375 
L 895.162619 210.085991 
L 899.784797 210.124051 
L 904.406975 209.93375 
L 913.651332 210.105021 
L 918.27351 209.362847 
L 918.27351 209.362847 
" clip-path="url(#p6b713682d8)" style="fill: none; stroke: #64748b; stroke-opacity: 0.95; stroke-width: 1.3; stroke-linecap: square"/>
   </g>
   <g id="line2d_32">
    <path d="M 67.79274 86.066848 
L 220.324617 48.577557 
L 224.946796 26.692946 
L 229.568974 41.34612 
L 234.191152 44.390936 
L 238.81333 48.577557 
L 243.435508 50.670868 
L 248.057686 52.002975 
L 252.679864 54.096285 
L 257.302042 57.521703 
L 261.92422 57.712004 
L 264.235309 56.9508 
L 266.546398 55.999295 
L 271.168577 56.570198 
L 275.790755 59.805314 
L 280.412933 62.469528 
L 285.035111 62.659829 
L 289.657289 63.991936 
L 294.279467 62.279227 
L 298.901645 64.75314 
L 303.523823 68.559159 
L 308.146001 69.320363 
L 312.768179 67.036751 
L 317.390357 69.320363 
L 322.012536 70.65247 
L 326.634714 72.936081 
L 340.501248 72.74578 
L 345.123426 72.74578 
L 349.745604 71.033072 
L 354.367782 71.603975 
L 358.98996 71.984577 
L 363.612138 70.842771 
L 368.234316 73.697285 
L 372.856495 73.697285 
L 377.478673 73.316683 
L 382.100851 74.458489 
L 386.723029 72.936081 
L 391.345207 70.462169 
L 395.967385 74.64879 
L 400.589563 77.122703 
L 405.211741 75.600295 
L 409.833919 77.313004 
L 414.456097 76.742101 
L 419.078276 79.406314 
L 423.700454 77.122703 
L 428.322632 79.025712 
L 432.94481 78.45481 
L 437.566988 76.932402 
L 442.189166 77.503305 
L 446.811344 76.5518 
L 456.0557 79.216013 
L 465.300056 79.596615 
L 469.922235 79.596615 
L 474.544413 78.45481 
L 479.166591 78.835411 
L 483.788769 81.689926 
L 488.410947 80.54812 
L 493.033125 78.264509 
L 497.655303 78.835411 
L 502.277481 78.264509 
L 506.899659 79.596615 
L 511.521837 81.689926 
L 516.144015 82.831732 
L 520.766194 80.54812 
L 523.077283 81.499625 
L 525.388372 82.260829 
L 530.01055 81.689926 
L 534.632728 79.596615 
L 539.254906 77.883907 
L 548.499262 82.45113 
L 553.12144 82.831732 
L 557.743618 81.499625 
L 562.365796 82.260829 
L 566.987974 78.264509 
L 571.610153 81.689926 
L 576.232331 83.783237 
L 580.854509 84.163839 
L 585.476687 83.973538 
L 590.098865 83.592936 
L 599.343221 85.115344 
L 603.965399 86.066848 
L 608.587577 86.44745 
L 613.209755 84.544441 
L 617.831934 85.305644 
L 622.454112 84.925043 
L 631.698468 83.022033 
L 636.320646 82.831732 
L 638.631735 84.35414 
L 640.942824 86.066848 
L 650.18718 87.969858 
L 654.809358 85.876547 
L 659.431536 87.398955 
L 668.675893 88.160159 
L 673.298071 88.921363 
L 677.920249 88.35046 
L 682.542427 87.398955 
L 687.164605 88.921363 
L 691.786783 89.301965 
L 696.408961 86.44745 
L 701.031139 86.637751 
L 705.653317 87.208654 
L 710.275495 89.301965 
L 714.897673 90.063169 
L 724.14203 89.682567 
L 728.764208 90.634072 
L 733.386386 89.301965 
L 738.008564 88.160159 
L 742.630742 90.25347 
L 747.25292 91.014674 
L 751.875098 90.634072 
L 756.497276 87.779557 
L 761.119454 86.828052 
L 765.741633 89.111664 
L 770.363811 89.301965 
L 774.985989 89.111664 
L 779.608167 88.35046 
L 784.230345 86.828052 
L 788.852523 86.828052 
L 793.474701 87.208654 
L 798.096879 87.208654 
L 802.719057 88.921363 
L 807.341235 87.398955 
L 811.963413 86.828052 
L 816.585592 82.831732 
L 821.20777 87.969858 
L 825.829948 86.828052 
L 830.452126 88.35046 
L 835.074304 87.398955 
L 839.696482 91.395276 
L 848.940838 88.731062 
L 853.563016 89.301965 
L 858.185194 88.35046 
L 862.807372 89.492266 
L 867.429551 89.301965 
L 872.051729 83.973538 
L 876.673907 84.544441 
L 881.296085 88.35046 
L 885.918263 88.35046 
L 890.540441 87.018353 
L 895.162619 88.540761 
L 897.473708 88.921363 
L 899.784797 89.111664 
L 904.406975 87.779557 
L 909.029153 90.443771 
L 913.651332 89.111664 
L 918.27351 91.775877 
L 918.27351 91.775877 
" clip-path="url(#p6b713682d8)" style="fill: none; stroke: #0f766e; stroke-opacity: 0.95; stroke-width: 1.3; stroke-linecap: square"/>
   </g>
   <g id="line2d_33">
    <path d="M 67.79274 219.214729 
L 918.27351 219.239468 
L 918.27351 219.239468 
" clip-path="url(#p6b713682d8)" style="fill: none; stroke: #b91c1c; stroke-opacity: 0.95; stroke-width: 1.3; stroke-linecap: square"/>
   </g>
   <g id="patch_23">
    <path d="M 50.783125 228.954713 
L 50.783125 17.061433 
" style="fill: none; stroke: #cbd5e1; stroke-width: 0.8; stroke-linejoin: miter; stroke-linecap: square"/>
   </g>
   <g id="patch_24">
    <path d="M 935.283125 228.954713 
L 935.283125 17.061433 
" style="fill: none; stroke: #cbd5e1; stroke-width: 0.8; stroke-linejoin: miter; stroke-linecap: square"/>
   </g>
   <g id="patch_25">
    <path d="M 50.783125 228.954713 
L 935.283125 228.954713 
" style="fill: none; stroke: #cbd5e1; stroke-width: 0.8; stroke-linejoin: miter; stroke-linecap: square"/>
   </g>
   <g id="patch_26">
    <path d="M 50.783125 17.061433 
L 935.283125 17.061433 
" style="fill: none; stroke: #cbd5e1; stroke-width: 0.8; stroke-linejoin: miter; stroke-linecap: square"/>
   </g>
   <g id="text_17">
    <!-- ACC -->
    <g style="fill: #475569" transform="translate(51.035433 13.27875) scale(0.08 -0.08)">
     <defs>
      <path id="DejaVuSans-41" d="M 2188 4044 
L 1331 1722 
L 3047 1722 
L 2188 4044 
z
M 1831 4666 
L 2547 4666 
L 4325 0 
L 3669 0 
L 3244 1197 
L 1141 1197 
L 716 0 
L 50 0 
L 1831 4666 
z
" transform="scale(0.015625)"/>
      <path id="DejaVuSans-43" d="M 4122 4306 
L 4122 3641 
Q 3803 3938 3442 4084 
Q 3081 4231 2675 4231 
Q 1875 4231 1450 3742 
Q 1025 3253 1025 2328 
Q 1025 1406 1450 917 
Q 1875 428 2675 428 
Q 3081 428 3442 575 
Q 3803 722 4122 1019 
L 4122 359 
Q 3791 134 3420 21 
Q 3050 -91 2638 -91 
Q 1578 -91 968 557 
Q 359 1206 359 2328 
Q 359 3453 968 4101 
Q 1578 4750 2638 4750 
Q 3056 4750 3426 4639 
Q 3797 4528 4122 4306 
z
" transform="scale(0.015625)"/>
     </defs>
     <use xlink:href="#DejaVuSans-41"/>
     <use xlink:href="#DejaVuSans-43" transform="translate(66.658203 0)"/>
     <use xlink:href="#DejaVuSans-43" transform="translate(136.482422 0)"/>
    </g>
   </g>
   <g id="text_18">
    <!-- OC -->
    <g style="fill: #475569" transform="translate(149.672249 13.27875) scale(0.08 -0.08)">
     <defs>
      <path id="DejaVuSans-4f" d="M 2522 4238 
Q 1834 4238 1429 3725 
Q 1025 3213 1025 2328 
Q 1025 1447 1429 934 
Q 1834 422 2522 422 
Q 3209 422 3611 934 
Q 4013 1447 4013 2328 
Q 4013 3213 3611 3725 
Q 3209 4238 2522 4238 
z
M 2522 4750 
Q 3503 4750 4090 4092 
Q 4678 3434 4678 2328 
Q 4678 1225 4090 567 
Q 3503 -91 2522 -91 
Q 1538 -91 948 565 
Q 359 1222 359 2328 
Q 359 3434 948 4092 
Q 1538 4750 2522 4750 
z
" transform="scale(0.015625)"/>
     </defs>
     <use xlink:href="#DejaVuSans-4f"/>
     <use xlink:href="#DejaVuSans-43" transform="translate(78.710938 0)"/>
    </g>
   </g>
   <g id="text_19">
    <!-- FCS -->
    <g style="fill: #475569" transform="translate(247.357828 13.27875) scale(0.08 -0.08)">
     <defs>
      <path id="DejaVuSans-46" d="M 628 4666 
L 3309 4666 
L 3309 4134 
L 1259 4134 
L 1259 2759 
L 3109 2759 
L 3109 2228 
L 1259 2228 
L 1259 0 
L 628 0 
L 628 4666 
z
" transform="scale(0.015625)"/>
      <path id="DejaVuSans-53" d="M 3425 4513 
L 3425 3897 
Q 3066 4069 2747 4153 
Q 2428 4238 2131 4238 
Q 1616 4238 1336 4038 
Q 1056 3838 1056 3469 
Q 1056 3159 1242 3001 
Q 1428 2844 1947 2747 
L 2328 2669 
Q 3034 2534 3370 2195 
Q 3706 1856 3706 1288 
Q 3706 609 3251 259 
Q 2797 -91 1919 -91 
Q 1588 -91 1214 -16 
Q 841 59 441 206 
L 441 856 
Q 825 641 1194 531 
Q 1563 422 1919 422 
Q 2459 422 2753 634 
Q 3047 847 3047 1241 
Q 3047 1584 2836 1778 
Q 2625 1972 2144 2069 
L 1759 2144 
Q 1053 2284 737 2584 
Q 422 2884 422 3419 
Q 422 4038 858 4394 
Q 1294 4750 2059 4750 
Q 2388 4750 2728 4690 
Q 3069 4631 3425 4513 
z
" transform="scale(0.015625)"/>
     </defs>
     <use xlink:href="#DejaVuSans-46"/>
     <use xlink:href="#DejaVuSans-43" transform="translate(57.519531 0)"/>
     <use xlink:href="#DejaVuSans-53" transform="translate(127.34375 0)"/>
    </g>
   </g>
   <g id="text_20">
    <!-- SR -->
    <g style="fill: #475569" transform="translate(279.716361 13.27875) scale(0.08 -0.08)">
     <use xlink:href="#DejaVuSans-53"/>
     <use xlink:href="#DejaVuSans-52" transform="translate(63.476562 0)"/>
    </g>
   </g>
   <g id="text_21">
    <!-- FFC -->
    <g style="fill: #475569" transform="translate(319.240339 13.27875) scale(0.08 -0.08)">
     <use xlink:href="#DejaVuSans-46"/>
     <use xlink:href="#DejaVuSans-46" transform="translate(57.519531 0)"/>
     <use xlink:href="#DejaVuSans-43" transform="translate(115.039062 0)"/>
    </g>
   </g>
   <g id="text_22">
    <!-- SS -->
    <g style="fill: #475569" transform="translate(413.999526 13.27875) scale(0.08 -0.08)">
     <use xlink:href="#DejaVuSans-53"/>
     <use xlink:href="#DejaVuSans-53" transform="translate(63.476562 0)"/>
    </g>
   </g>
   <g id="text_23">
    <!-- OC -->
    <g style="fill: #475569" transform="translate(484.780161 13.27875) scale(0.08 -0.08)">
     <use xlink:href="#DejaVuSans-4f"/>
     <use xlink:href="#DejaVuSans-43" transform="translate(78.710938 0)"/>
    </g>
   </g>
   <g id="text_24">
    <!-- FCS -->
    <g style="fill: #475569" transform="translate(506.199801 13.27875) scale(0.08 -0.08)">
     <use xlink:href="#DejaVuSans-46"/>
     <use xlink:href="#DejaVuSans-43" transform="translate(57.519531 0)"/>
     <use xlink:href="#DejaVuSans-53" transform="translate(127.34375 0)"/>
    </g>
   </g>
   <g id="text_25">
    <!-- SR -->
    <g style="fill: #475569" transform="translate(538.558334 13.27875) scale(0.08 -0.08)">
     <use xlink:href="#DejaVuSans-53"/>
     <use xlink:href="#DejaVuSans-52" transform="translate(63.476562 0)"/>
    </g>
   </g>
   <g id="text_26">
    <!-- FFC -->
    <g style="fill: #475569" transform="translate(578.082312 13.27875) scale(0.08 -0.08)">
     <use xlink:href="#DejaVuSans-46"/>
     <use xlink:href="#DejaVuSans-46" transform="translate(57.519531 0)"/>
     <use xlink:href="#DejaVuSans-43" transform="translate(115.039062 0)"/>
    </g>
   </g>
   <g id="text_27">
    <!-- SS -->
    <g style="fill: #475569" transform="translate(672.841499 13.27875) scale(0.08 -0.08)">
     <use xlink:href="#DejaVuSans-53"/>
     <use xlink:href="#DejaVuSans-53" transform="translate(63.476562 0)"/>
    </g>
   </g>
   <g id="text_28">
    <!-- OC -->
    <g style="fill: #475569" transform="translate(743.622134 13.27875) scale(0.08 -0.08)">
     <use xlink:href="#DejaVuSans-4f"/>
     <use xlink:href="#DejaVuSans-43" transform="translate(78.710938 0)"/>
    </g>
   </g>
   <g id="text_29">
    <!-- FCS -->
    <g style="fill: #475569" transform="translate(765.041775 13.27875) scale(0.08 -0.08)">
     <use xlink:href="#DejaVuSans-46"/>
     <use xlink:href="#DejaVuSans-43" transform="translate(57.519531 0)"/>
     <use xlink:href="#DejaVuSans-53" transform="translate(127.34375 0)"/>
    </g>
   </g>
   <g id="text_30">
    <!-- SR -->
    <g style="fill: #475569" transform="translate(797.400307 13.27875) scale(0.08 -0.08)">
     <use xlink:href="#DejaVuSans-53"/>
     <use xlink:href="#DejaVuSans-52" transform="translate(63.476562 0)"/>
    </g>
   </g>
   <g id="text_31">
    <!-- FFC -->
    <g style="fill: #475569" transform="translate(836.924285 13.27875) scale(0.08 -0.08)">
     <use xlink:href="#DejaVuSans-46"/>
     <use xlink:href="#DejaVuSans-46" transform="translate(57.519531 0)"/>
     <use xlink:href="#DejaVuSans-43" transform="translate(115.039062 0)"/>
    </g>
   </g>
   <g id="text_32">
    <!-- SS -->
    <g style="fill: #475569" transform="translate(892.394958 13.27875) scale(0.08 -0.08)">
     <use xlink:href="#DejaVuSans-53"/>
     <use xlink:href="#DejaVuSans-53" transform="translate(63.476562 0)"/>
    </g>
   </g>
   <g id="legend_1">
    <g id="line2d_34">
     <path d="M 779.951875 27.540183 
L 787.951875 27.540183 
L 795.951875 27.540183 
" style="fill: none; stroke: #2563eb; stroke-opacity: 0.95; stroke-width: 1.3; stroke-linecap: square"/>
    </g>
    <g id="text_33">
     <!-- Relative humidity -->
     <g transform="translate(802.351875 30.340183) scale(0.08 -0.08)">
      <defs>
       <path id="DejaVuSans-68" d="M 3513 2113 
L 3513 0 
L 2938 0 
L 2938 2094 
Q 2938 2591 2744 2837 
Q 2550 3084 2163 3084 
Q 1697 3084 1428 2787 
Q 1159 2491 1159 1978 
L 1159 0 
L 581 0 
L 581 4863 
L 1159 4863 
L 1159 2956 
Q 1366 3272 1645 3428 
Q 1925 3584 2291 3584 
Q 2894 3584 3203 3211 
Q 3513 2838 3513 2113 
z
" transform="scale(0.015625)"/>
       <path id="DejaVuSans-64" d="M 2906 2969 
L 2906 4863 
L 3481 4863 
L 3481 0 
L 2906 0 
L 2906 525 
Q 2725 213 2448 61 
Q 2172 -91 1784 -91 
Q 1150 -91 751 415 
Q 353 922 353 1747 
Q 353 2572 751 3078 
Q 1150 3584 1784 3584 
Q 2172 3584 2448 3432 
Q 2725 3281 2906 2969 
z
M 947 1747 
Q 947 1113 1208 752 
Q 1469 391 1925 391 
Q 2381 391 2643 752 
Q 2906 1113 2906 1747 
Q 2906 2381 2643 2742 
Q 2381 3103 1925 3103 
Q 1469 3103 1208 2742 
Q 947 2381 947 1747 
z
" transform="scale(0.015625)"/>
       <path id="DejaVuSans-79" d="M 2059 -325 
Q 1816 -950 1584 -1140 
Q 1353 -1331 966 -1331 
L 506 -1331 
L 506 -850 
L 844 -850 
Q 1081 -850 1212 -737 
Q 1344 -625 1503 -206 
L 1606 56 
L 191 3500 
L 800 3500 
L 1894 763 
L 2988 3500 
L 3597 3500 
L 2059 -325 
z
" transform="scale(0.015625)"/>
      </defs>
      <use xlink:href="#DejaVuSans-52"/>
      <use xlink:href="#DejaVuSans-65" transform="translate(64.982422 0)"/>
      <use xlink:href="#DejaVuSans-6c" transform="translate(126.505859 0)"/>
      <use xlink:href="#DejaVuSans-61" transform="translate(154.289062 0)"/>
      <use xlink:href="#DejaVuSans-74" transform="translate(215.568359 0)"/>
      <use xlink:href="#DejaVuSans-69" transform="translate(254.777344 0)"/>
      <use xlink:href="#DejaVuSans-76" transform="translate(282.560547 0)"/>
      <use xlink:href="#DejaVuSans-65" transform="translate(341.740234 0)"/>
      <use xlink:href="#DejaVuSans-20" transform="translate(403.263672 0)"/>
      <use xlink:href="#DejaVuSans-68" transform="translate(435.050781 0)"/>
      <use xlink:href="#DejaVuSans-75" transform="translate(498.429688 0)"/>
      <use xlink:href="#DejaVuSans-6d" transform="translate(561.808594 0)"/>
      <use xlink:href="#DejaVuSans-69" transform="translate(659.220703 0)"/>
      <use xlink:href="#DejaVuSans-64" transform="translate(687.003906 0)"/>
      <use xlink:href="#DejaVuSans-69" transform="translate(750.480469 0)"/>
      <use xlink:href="#DejaVuSans-74" transform="translate(778.263672 0)"/>
      <use xlink:href="#DejaVuSans-79" transform="translate(817.472656 0)"/>
     </g>
    </g>
    <g id="line2d_35">
     <path d="M 779.951875 39.282683 
L 787.951875 39.282683 
L 795.951875 39.282683 
" style="fill: none; stroke: #f59e0b; stroke-opacity: 0.95; stroke-width: 1.3; stroke-linecap: square"/>
    </g>
    <g id="text_34">
     <!-- Illuminance -->
     <g transform="translate(802.351875 42.082683) scale(0.08 -0.08)">
      <defs>
       <path id="DejaVuSans-49" d="M 628 4666 
L 1259 4666 
L 1259 0 
L 628 0 
L 628 4666 
z
" transform="scale(0.015625)"/>
      </defs>
      <use xlink:href="#DejaVuSans-49"/>
      <use xlink:href="#DejaVuSans-6c" transform="translate(29.492188 0)"/>
      <use xlink:href="#DejaVuSans-6c" transform="translate(57.275391 0)"/>
      <use xlink:href="#DejaVuSans-75" transform="translate(85.058594 0)"/>
      <use xlink:href="#DejaVuSans-6d" transform="translate(148.4375 0)"/>
      <use xlink:href="#DejaVuSans-69" transform="translate(245.849609 0)"/>
      <use xlink:href="#DejaVuSans-6e" transform="translate(273.632812 0)"/>
      <use xlink:href="#DejaVuSans-61" transform="translate(337.011719 0)"/>
      <use xlink:href="#DejaVuSans-6e" transform="translate(398.291016 0)"/>
      <use xlink:href="#DejaVuSans-63" transform="translate(461.669922 0)"/>
      <use xlink:href="#DejaVuSans-65" transform="translate(516.650391 0)"/>
     </g>
    </g>
    <g id="line2d_36">
     <path d="M 779.951875 51.025183 
L 787.951875 51.025183 
L 795.951875 51.025183 
" style="fill: none; stroke: #64748b; stroke-opacity: 0.95; stroke-width: 1.3; stroke-linecap: square"/>
    </g>
    <g id="text_35">
     <!-- Sound level -->
     <g transform="translate(802.351875 53.825183) scale(0.08 -0.08)">
      <use xlink:href="#DejaVuSans-53"/>
      <use xlink:href="#DejaVuSans-6f" transform="translate(63.476562 0)"/>
      <use xlink:href="#DejaVuSans-75" transform="translate(124.658203 0)"/>
      <use xlink:href="#DejaVuSans-6e" transform="translate(188.037109 0)"/>
      <use xlink:href="#DejaVuSans-64" transform="translate(251.416016 0)"/>
      <use xlink:href="#DejaVuSans-20" transform="translate(314.892578 0)"/>
      <use xlink:href="#DejaVuSans-6c" transform="translate(346.679688 0)"/>
      <use xlink:href="#DejaVuSans-65" transform="translate(374.462891 0)"/>
      <use xlink:href="#DejaVuSans-76" transform="translate(435.986328 0)"/>
      <use xlink:href="#DejaVuSans-65" transform="translate(495.166016 0)"/>
      <use xlink:href="#DejaVuSans-6c" transform="translate(556.689453 0)"/>
     </g>
    </g>
    <g id="line2d_37">
     <path d="M 888.484375 27.540183 
L 896.484375 27.540183 
L 904.484375 27.540183 
" style="fill: none; stroke: #0f766e; stroke-opacity: 0.95; stroke-width: 1.3; stroke-linecap: square"/>
    </g>
    <g id="text_36">
     <!-- CO2 -->
     <g transform="translate(910.884375 30.340183) scale(0.08 -0.08)">
      <use xlink:href="#DejaVuSans-43"/>
      <use xlink:href="#DejaVuSans-4f" transform="translate(69.824219 0)"/>
      <use xlink:href="#DejaVuSans-32" transform="translate(148.535156 0)"/>
     </g>
    </g>
    <g id="line2d_38">
     <path d="M 888.484375 39.282683 
L 896.484375 39.282683 
L 904.484375 39.282683 
" style="fill: none; stroke: #b91c1c; stroke-opacity: 0.95; stroke-width: 1.3; stroke-linecap: square"/>
    </g>
    <g id="text_37">
     <!-- PMV -->
     <g transform="translate(910.884375 42.082683) scale(0.08 -0.08)">
      <defs>
       <path id="DejaVuSans-50" d="M 1259 4147 
L 1259 2394 
L 2053 2394 
Q 2494 2394 2734 2622 
Q 2975 2850 2975 3272 
Q 2975 3691 2734 3919 
Q 2494 4147 2053 4147 
L 1259 4147 
z
M 628 4666 
L 2053 4666 
Q 2838 4666 3239 4311 
Q 3641 3956 3641 3272 
Q 3641 2581 3239 2228 
Q 2838 1875 2053 1875 
L 1259 1875 
L 1259 0 
L 628 0 
L 628 4666 
z
" transform="scale(0.015625)"/>
       <path id="DejaVuSans-56" d="M 1831 0 
L 50 4666 
L 709 4666 
L 2188 738 
L 3669 4666 
L 4325 4666 
L 2547 0 
L 1831 0 
z
" transform="scale(0.015625)"/>
      </defs>
      <use xlink:href="#DejaVuSans-50"/>
      <use xlink:href="#DejaVuSans-4d" transform="translate(60.302734 0)"/>
      <use xlink:href="#DejaVuSans-56" transform="translate(146.582031 0)"/>
     </g>
    </g>
   </g>
  </g>
 </g>
 <defs>
  <clipPath id="p6b713682d8">
   <rect x="50.783125" y="17.061433" width="884.5" height="211.89328"/>
  </clipPath>
 </defs>
</svg>
