<?xml version="1.0" encoding="utf-8" standalone="no"?>
<!DOCTYPE svg PUBLIC "-//W3C//DTD SVG 1.1//EN"
  "http://www.w3.org/Graphics/SVG/1.1/DTD/svg11.dtd">
<svg xmlns:xlink="http://www.w3.org/1999/xlink" width="942.553437pt" height="265.54315pt" viewBox="0 0 942.553437 265.54315" xmlns="http://www.w3.org/2000/svg" version="1.1">
 <metadata>
  <rdf:RDF xmlns:dc="http://purl.org/dc/elements/1.1/" xmlns:cc="http://creativecommons.org/ns#" xmlns:rdf="http://www.w3.org/1999/02/22-rdf-syntax-ns#">
   <cc:Work>
    <dc:type rdf:resource="http://purl.org/dc/dcmitype/StillImage"/>
    <dc:date>2026-04-17T17:33:50.136049</dc:date>
    <dc:format>image/svg+xml</dc:format>
    <dc:creator>
     <cc:Agent>
      <dc:title>Matplotlib v3.10.8, https://matplotlib.org/</dc:title>
     </cc:Agent>
    </dc:creator>
   </cc:Work>
  </rdf:RDF>
 </metadata>
 <defs>
  <style type="text/css">*{stroke-linejoin: round; stroke-linecap: butt}</style>
 </defs>
 <g id="figure_1">
  <g id="patch_1">
   <path d="M 0 265.54315 
L 942.553437 265.54315 
L 942.553437 0 
L 0 0 
z
" style="fill: #ffffff"/>
  </g>
  <g id="axes_1">
   <g id="patch_2">
    <path d="M 42.190938 228.954713 
L 935.353437 228.954713 
L 935.353437 17.061433 
L 42.190938 17.061433 
z
" style="fill: #ffffff"/>
   </g>
   <g id="patch_3">
    <path d="M 42.190938 228.954713 
L 59.367139 228.954713 
L 59.367139 17.061433 
L 42.190938 17.061433 
z
" clip-path="url(#p6befebcca2)" style="fill: #f8fafc; opacity: 0.45"/>
   </g>
   <g id="patch_4">
    <path d="M 59.367139 228.954713 
L 98.659105 228.954713 
L 98.659105 17.061433 
L 59.367139 17.061433 
z
" clip-path="url(#p6befebcca2)" style="fill: #eff6ff; opacity: 0.45"/>
   </g>
   <g id="patch_5">
    <path d="M 98.659105 228.954713 
L 126.724794 228.954713 
L 126.724794 17.061433 
L 98.659105 17.061433 
z
" clip-path="url(#p6befebcca2)" style="fill: #fef3c7; opacity: 0.45"/>
   </g>
   <g id="patch_6">
    <path d="M 126.724794 228.954713 
L 177.243035 228.954713 
L 177.243035 17.061433 
L 126.724794 17.061433 
z
" clip-path="url(#p6befebcca2)" style="fill: #dcfce7; opacity: 0.45"/>
   </g>
   <g id="patch_7">
    <path d="M 177.243035 228.954713 
L 233.374414 228.954713 
L 233.374414 17.061433 
L 177.243035 17.061433 
z
" clip-path="url(#p6befebcca2)" style="fill: #fee2e2; opacity: 0.45"/>
   </g>
   <g id="patch_8">
    <path d="M 233.374414 228.954713 
L 238.987552 228.954713 
L 238.987552 17.061433 
L 233.374414 17.061433 
z
" clip-path="url(#p6befebcca2)" style="fill: #ede9fe; opacity: 0.45"/>
   </g>
   <g id="patch_9">
    <path d="M 238.987552 228.954713 
L 384.929137 228.954713 
L 384.929137 17.061433 
L 238.987552 17.061433 
z
" clip-path="url(#p6befebcca2)" style="fill: #f8fafc; opacity: 0.45"/>
   </g>
   <g id="patch_10">
    <path d="M 384.929137 228.954713 
L 412.994826 228.954713 
L 412.994826 17.061433 
L 384.929137 17.061433 
z
" clip-path="url(#p6befebcca2)" style="fill: #eff6ff; opacity: 0.45"/>
   </g>
   <g id="patch_11">
    <path d="M 412.994826 228.954713 
L 441.060515 228.954713 
L 441.060515 17.061433 
L 412.994826 17.061433 
z
" clip-path="url(#p6befebcca2)" style="fill: #fef3c7; opacity: 0.45"/>
   </g>
   <g id="patch_12">
    <path d="M 441.060515 228.954713 
L 497.191894 228.954713 
L 497.191894 17.061433 
L 441.060515 17.061433 
z
" clip-path="url(#p6befebcca2)" style="fill: #dcfce7; opacity: 0.45"/>
   </g>
   <g id="patch_13">
    <path d="M 497.191894 228.954713 
L 553.323273 228.954713 
L 553.323273 17.061433 
L 497.191894 17.061433 
z
" clip-path="url(#p6befebcca2)" style="fill: #fee2e2; opacity: 0.45"/>
   </g>
   <g id="patch_14">
    <path d="M 553.323273 228.954713 
L 699.264858 228.954713 
L 699.264858 17.061433 
L 553.323273 17.061433 
z
" clip-path="url(#p6befebcca2)" style="fill: #ede9fe; opacity: 0.45"/>
   </g>
   <g id="patch_15">
    <path d="M 699.264858 228.954713 
L 727.330548 228.954713 
L 727.330548 17.061433 
L 699.264858 17.061433 
z
" clip-path="url(#p6befebcca2)" style="fill: #f8fafc; opacity: 0.45"/>
   </g>
   <g id="patch_16">
    <path d="M 727.330548 228.954713 
L 755.396237 228.954713 
L 755.396237 17.061433 
L 727.330548 17.061433 
z
" clip-path="url(#p6befebcca2)" style="fill: #eff6ff; opacity: 0.45"/>
   </g>
   <g id="patch_17">
    <path d="M 755.396237 228.954713 
L 811.527616 228.954713 
L 811.527616 17.061433 
L 755.396237 17.061433 
z
" clip-path="url(#p6befebcca2)" style="fill: #fef3c7; opacity: 0.45"/>
   </g>
   <g id="patch_18">
    <path d="M 811.527616 228.954713 
L 867.658995 228.954713 
L 867.658995 17.061433 
L 811.527616 17.061433 
z
" clip-path="url(#p6befebcca2)" style="fill: #dcfce7; opacity: 0.45"/>
   </g>
   <g id="patch_19">
    <path d="M 867.658995 228.954713 
L 918.177236 228.954713 
L 918.177236 17.061433 
L 867.658995 17.061433 
z
" clip-path="url(#p6befebcca2)" style="fill: #fee2e2; opacity: 0.45"/>
   </g>
   <g id="patch_20">
    <path d="M 918.177236 228.954713 
L 923.790373 228.954713 
L 923.790373 17.061433 
L 918.177236 17.061433 
z
" clip-path="url(#p6befebcca2)" style="fill: #ede9fe; opacity: 0.45"/>
   </g>
   <g id="matplotlib.axis_1">
    <g id="xtick_1">
     <g id="line2d_1">
      <path d="M 59.367139 228.954713 
L 59.367139 17.061433 
" clip-path="url(#p6befebcca2)" style="fill: none; stroke: #eef2f7; stroke-width: 0.55; stroke-linecap: square"/>
     </g>
     <g id="line2d_2">
      <defs>
       <path id="m94b6ee860a" d="M 0 0 
L 0 3.5 
" style="stroke: #000000; stroke-width: 0.8"/>
      </defs>
      <g>
       <use xlink:href="#m94b6ee860a" x="59.367139" y="228.954713" style="stroke: #000000; stroke-width: 0.8"/>
      </g>
     </g>
     <g id="text_1">
      <!-- 40 -->
      <g transform="translate(53.640889 242.793307) scale(0.09 -0.09)">
       <defs>
        <path id="DejaVuSans-34" d="M 2419 4116 
L 825 1625 
L 2419 1625 
L 2419 4116 
z
M 2253 4666 
L 3047 4666 
L 3047 1625 
L 3713 1625 
L 3713 1100 
L 3047 1100 
L 3047 0 
L 2419 0 
L 2419 1100 
L 313 1100 
L 313 1709 
L 2253 4666 
z
" transform="scale(0.015625)"/>
        <path id="DejaVuSans-30" d="M 2034 4250 
Q 1547 4250 1301 3770 
Q 1056 3291 1056 2328 
Q 1056 1369 1301 889 
Q 1547 409 2034 409 
Q 2525 409 2770 889 
Q 3016 1369 3016 2328 
Q 3016 3291 2770 3770 
Q 2525 4250 2034 4250 
z
M 2034 4750 
Q 2819 4750 3233 4129 
Q 3647 3509 3647 2328 
Q 3647 1150 3233 529 
Q 2819 -91 2034 -91 
Q 1250 -91 836 529 
Q 422 1150 422 2328 
Q 422 3509 836 4129 
Q 1250 4750 2034 4750 
z
" transform="scale(0.015625)"/>
       </defs>
       <use xlink:href="#DejaVuSans-34"/>
       <use xlink:href="#DejaVuSans-30" transform="translate(63.623047 0)"/>
      </g>
     </g>
    </g>
    <g id="xtick_2">
     <g id="line2d_3">
      <path d="M 171.629897 228.954713 
L 171.629897 17.061433 
" clip-path="url(#p6befebcca2)" style="fill: none; stroke: #eef2f7; stroke-width: 0.55; stroke-linecap: square"/>
     </g>
     <g id="line2d_4">
      <g>
       <use xlink:href="#m94b6ee860a" x="171.629897" y="228.954713" style="stroke: #000000; stroke-width: 0.8"/>
      </g>
     </g>
     <g id="text_2">
      <!-- 60 -->
      <g transform="translate(165.903647 242.793307) scale(0.09 -0.09)">
       <defs>
        <path id="DejaVuSans-36" d="M 2113 2584 
Q 1688 2584 1439 2293 
Q 1191 2003 1191 1497 
Q 1191 994 1439 701 
Q 1688 409 2113 409 
Q 2538 409 2786 701 
Q 3034 994 3034 1497 
Q 3034 2003 2786 2293 
Q 2538 2584 2113 2584 
z
M 3366 4563 
L 3366 3988 
Q 3128 4100 2886 4159 
Q 2644 4219 2406 4219 
Q 1781 4219 1451 3797 
Q 1122 3375 1075 2522 
Q 1259 2794 1537 2939 
Q 1816 3084 2150 3084 
Q 2853 3084 3261 2657 
Q 3669 2231 3669 1497 
Q 3669 778 3244 343 
Q 2819 -91 2113 -91 
Q 1303 -91 875 529 
Q 447 1150 447 2328 
Q 447 3434 972 4092 
Q 1497 4750 2381 4750 
Q 2619 4750 2861 4703 
Q 3103 4656 3366 4563 
z
" transform="scale(0.015625)"/>
       </defs>
       <use xlink:href="#DejaVuSans-36"/>
       <use xlink:href="#DejaVuSans-30" transform="translate(63.623047 0)"/>
      </g>
     </g>
    </g>
    <g id="xtick_3">
     <g id="line2d_5">
      <path d="M 283.892655 228.954713 
L 283.892655 17.061433 
" clip-path="url(#p6befebcca2)" style="fill: none; stroke: #eef2f7; stroke-width: 0.55; stroke-linecap: square"/>
     </g>
     <g id="line2d_6">
      <g>
       <use xlink:href="#m94b6ee860a" x="283.892655" y="228.954713" style="stroke: #000000; stroke-width: 0.8"/>
      </g>
     </g>
     <g id="text_3">
      <!-- 80 -->
      <g transform="translate(278.166405 242.793307) scale(0.09 -0.09)">
       <defs>
        <path id="DejaVuSans-38" d="M 2034 2216 
Q 1584 2216 1326 1975 
Q 1069 1734 1069 1313 
Q 1069 891 1326 650 
Q 1584 409 2034 409 
Q 2484 409 2743 651 
Q 3003 894 3003 1313 
Q 3003 1734 2745 1975 
Q 2488 2216 2034 2216 
z
M 1403 2484 
Q 997 2584 770 2862 
Q 544 3141 544 3541 
Q 544 4100 942 4425 
Q 1341 4750 2034 4750 
Q 2731 4750 3128 4425 
Q 3525 4100 3525 3541 
Q 3525 3141 3298 2862 
Q 3072 2584 2669 2484 
Q 3125 2378 3379 2068 
Q 3634 1759 3634 1313 
Q 3634 634 3220 271 
Q 2806 -91 2034 -91 
Q 1263 -91 848 271 
Q 434 634 434 1313 
Q 434 1759 690 2068 
Q 947 2378 1403 2484 
z
M 1172 3481 
Q 1172 3119 1398 2916 
Q 1625 2713 2034 2713 
Q 2441 2713 2670 2916 
Q 2900 3119 2900 3481 
Q 2900 3844 2670 4047 
Q 2441 4250 2034 4250 
Q 1625 4250 1398 4047 
Q 1172 3844 1172 3481 
z
" transform="scale(0.015625)"/>
       </defs>
       <use xlink:href="#DejaVuSans-38"/>
       <use xlink:href="#DejaVuSans-30" transform="translate(63.623047 0)"/>
      </g>
     </g>
    </g>
    <g id="xtick_4">
     <g id="line2d_7">
      <path d="M 396.155412 228.954713 
L 396.155412 17.061433 
" clip-path="url(#p6befebcca2)" style="fill: none; stroke: #eef2f7; stroke-width: 0.55; stroke-linecap: square"/>
     </g>
     <g id="line2d_8">
      <g>
       <use xlink:href="#m94b6ee860a" x="396.155412" y="228.954713" style="stroke: #000000; stroke-width: 0.8"/>
      </g>
     </g>
     <g id="text_4">
      <!-- 100 -->
      <g transform="translate(387.566037 242.793307) scale(0.09 -0.09)">
       <defs>
        <path id="DejaVuSans-31" d="M 794 531 
L 1825 531 
L 1825 4091 
L 703 3866 
L 703 4441 
L 1819 4666 
L 2450 4666 
L 2450 531 
L 3481 531 
L 3481 0 
L 794 0 
L 794 531 
z
" transform="scale(0.015625)"/>
       </defs>
       <use xlink:href="#DejaVuSans-31"/>
       <use xlink:href="#DejaVuSans-30" transform="translate(63.623047 0)"/>
       <use xlink:href="#DejaVuSans-30" transform="translate(127.246094 0)"/>
      </g>
     </g>
    </g>
    <g id="xtick_5">
     <g id="line2d_9">
      <path d="M 508.41817 228.954713 
L 508.41817 17.061433 
" clip-path="url(#p6befebcca2)" style="fill: none; stroke: #eef2f7; stroke-width: 0.55; stroke-linecap: square"/>
     </g>
     <g id="line2d_10">
      <g>
       <use xlink:href="#m94b6ee860a" x="508.41817" y="228.954713" style="stroke: #000000; stroke-width: 0.8"/>
      </g>
     </g>
     <g id="text_5">
      <!-- 120 -->
      <g transform="translate(499.828795 242.793307) scale(0.09 -0.09)">
       <defs>
        <path id="DejaVuSans-32" d="M 1228 531 
L 3431 531 
L 3431 0 
L 469 0 
L 469 531 
Q 828 903 1448 1529 
Q 2069 2156 2228 2338 
Q 2531 2678 2651 2914 
Q 2772 3150 2772 3378 
Q 2772 3750 2511 3984 
Q 2250 4219 1831 4219 
Q 1534 4219 1204 4116 
Q 875 4013 500 3803 
L 500 4441 
Q 881 4594 1212 4672 
Q 1544 4750 1819 4750 
Q 2544 4750 2975 4387 
Q 3406 4025 3406 3419 
Q 3406 3131 3298 2873 
Q 3191 2616 2906 2266 
Q 2828 2175 2409 1742 
Q 1991 1309 1228 531 
z
" transform="scale(0.015625)"/>
       </defs>
       <use xlink:href="#DejaVuSans-31"/>
       <use xlink:href="#DejaVuSans-32" transform="translate(63.623047 0)"/>
       <use xlink:href="#DejaVuSans-30" transform="translate(127.246094 0)"/>
      </g>
     </g>
    </g>
    <g id="xtick_6">
     <g id="line2d_11">
      <path d="M 620.680928 228.954713 
L 620.680928 17.061433 
" clip-path="url(#p6befebcca2)" style="fill: none; stroke: #eef2f7; stroke-width: 0.55; stroke-linecap: square"/>
     </g>
     <g id="line2d_12">
      <g>
       <use xlink:href="#m94b6ee860a" x="620.680928" y="228.954713" style="stroke: #000000; stroke-width: 0.8"/>
      </g>
     </g>
     <g id="text_6">
      <!-- 140 -->
      <g transform="translate(612.091553 242.793307) scale(0.09 -0.09)">
       <use xlink:href="#DejaVuSans-31"/>
       <use xlink:href="#DejaVuSans-34" transform="translate(63.623047 0)"/>
       <use xlink:href="#DejaVuSans-30" transform="translate(127.246094 0)"/>
      </g>
     </g>
    </g>
    <g id="xtick_7">
     <g id="line2d_13">
      <path d="M 732.943685 228.954713 
L 732.943685 17.061433 
" clip-path="url(#p6befebcca2)" style="fill: none; stroke: #eef2f7; stroke-width: 0.55; stroke-linecap: square"/>
     </g>
     <g id="line2d_14">
      <g>
       <use xlink:href="#m94b6ee860a" x="732.943685" y="228.954713" style="stroke: #000000; stroke-width: 0.8"/>
      </g>
     </g>
     <g id="text_7">
      <!-- 160 -->
      <g transform="translate(724.35431 242.793307) scale(0.09 -0.09)">
       <use xlink:href="#DejaVuSans-31"/>
       <use xlink:href="#DejaVuSans-36" transform="translate(63.623047 0)"/>
       <use xlink:href="#DejaVuSans-30" transform="translate(127.246094 0)"/>
      </g>
     </g>
    </g>
    <g id="xtick_8">
     <g id="line2d_15">
      <path d="M 845.206443 228.954713 
L 845.206443 17.061433 
" clip-path="url(#p6befebcca2)" style="fill: none; stroke: #eef2f7; stroke-width: 0.55; stroke-linecap: square"/>
     </g>
     <g id="line2d_16">
      <g>
       <use xlink:href="#m94b6ee860a" x="845.206443" y="228.954713" style="stroke: #000000; stroke-width: 0.8"/>
      </g>
     </g>
     <g id="text_8">
      <!-- 180 -->
      <g transform="translate(836.617068 242.793307) scale(0.09 -0.09)">
       <use xlink:href="#DejaVuSans-31"/>
       <use xlink:href="#DejaVuSans-38" transform="translate(63.623047 0)"/>
       <use xlink:href="#DejaVuSans-30" transform="translate(127.246094 0)"/>
      </g>
     </g>
    </g>
    <g id="text_9">
     <!-- Minutes since session start -->
     <g transform="translate(421.182344 256.263463) scale(0.1 -0.1)">
      <defs>
       <path id="DejaVuSans-4d" d="M 628 4666 
L 1569 4666 
L 2759 1491 
L 3956 4666 
L 4897 4666 
L 4897 0 
L 4281 0 
L 4281 4097 
L 3078 897 
L 2444 897 
L 1241 4097 
L 1241 0 
L 628 0 
L 628 4666 
z
" transform="scale(0.015625)"/>
       <path id="DejaVuSans-69" d="M 603 3500 
L 1178 3500 
L 1178 0 
L 603 0 
L 603 3500 
z
M 603 4863 
L 1178 4863 
L 1178 4134 
L 603 4134 
L 603 4863 
z
" transform="scale(0.015625)"/>
       <path id="DejaVuSans-6e" d="M 3513 2113 
L 3513 0 
L 2938 0 
L 2938 2094 
Q 2938 2591 2744 2837 
Q 2550 3084 2163 3084 
Q 1697 3084 1428 2787 
Q 1159 2491 1159 1978 
L 1159 0 
L 581 0 
L 581 3500 
L 1159 3500 
L 1159 2956 
Q 1366 3272 1645 3428 
Q 1925 3584 2291 3584 
Q 2894 3584 3203 3211 
Q 3513 2838 3513 2113 
z
" transform="scale(0.015625)"/>
       <path id="DejaVuSans-75" d="M 544 1381 
L 544 3500 
L 1119 3500 
L 1119 1403 
Q 1119 906 1312 657 
Q 1506 409 1894 409 
Q 2359 409 2629 706 
Q 2900 1003 2900 1516 
L 2900 3500 
L 3475 3500 
L 3475 0 
L 2900 0 
L 2900 538 
Q 2691 219 2414 64 
Q 2138 -91 1772 -91 
Q 1169 -91 856 284 
Q 544 659 544 1381 
z
M 1991 3584 
L 1991 3584 
z
" transform="scale(0.015625)"/>
       <path id="DejaVuSans-74" d="M 1172 4494 
L 1172 3500 
L 2356 3500 
L 2356 3053 
L 1172 3053 
L 1172 1153 
Q 1172 725 1289 603 
Q 1406 481 1766 481 
L 2356 481 
L 2356 0 
L 1766 0 
Q 1100 0 847 248 
Q 594 497 594 1153 
L 594 3053 
L 172 3053 
L 172 3500 
L 594 3500 
L 594 4494 
L 1172 4494 
z
" transform="scale(0.015625)"/>
       <path id="DejaVuSans-65" d="M 3597 1894 
L 3597 1613 
L 953 1613 
Q 991 1019 1311 708 
Q 1631 397 2203 397 
Q 2534 397 2845 478 
Q 3156 559 3463 722 
L 3463 178 
Q 3153 47 2828 -22 
Q 2503 -91 2169 -91 
Q 1331 -91 842 396 
Q 353 884 353 1716 
Q 353 2575 817 3079 
Q 1281 3584 2069 3584 
Q 2775 3584 3186 3129 
Q 3597 2675 3597 1894 
z
M 3022 2063 
Q 3016 2534 2758 2815 
Q 2500 3097 2075 3097 
Q 1594 3097 1305 2825 
Q 1016 2553 972 2059 
L 3022 2063 
z
" transform="scale(0.015625)"/>
       <path id="DejaVuSans-73" d="M 2834 3397 
L 2834 2853 
Q 2591 2978 2328 3040 
Q 2066 3103 1784 3103 
Q 1356 3103 1142 2972 
Q 928 2841 928 2578 
Q 928 2378 1081 2264 
Q 1234 2150 1697 2047 
L 1894 2003 
Q 2506 1872 2764 1633 
Q 3022 1394 3022 966 
Q 3022 478 2636 193 
Q 2250 -91 1575 -91 
Q 1294 -91 989 -36 
Q 684 19 347 128 
L 347 722 
Q 666 556 975 473 
Q 1284 391 1588 391 
Q 1994 391 2212 530 
Q 2431 669 2431 922 
Q 2431 1156 2273 1281 
Q 2116 1406 1581 1522 
L 1381 1569 
Q 847 1681 609 1914 
Q 372 2147 372 2553 
Q 372 3047 722 3315 
Q 1072 3584 1716 3584 
Q 2034 3584 2315 3537 
Q 2597 3491 2834 3397 
z
" transform="scale(0.015625)"/>
       <path id="DejaVuSans-20" transform="scale(0.015625)"/>
       <path id="DejaVuSans-63" d="M 3122 3366 
L 3122 2828 
Q 2878 2963 2633 3030 
Q 2388 3097 2138 3097 
Q 1578 3097 1268 2742 
Q 959 2388 959 1747 
Q 959 1106 1268 751 
Q 1578 397 2138 397 
Q 2388 397 2633 464 
Q 2878 531 3122 666 
L 3122 134 
Q 2881 22 2623 -34 
Q 2366 -91 2075 -91 
Q 1284 -91 818 406 
Q 353 903 353 1747 
Q 353 2603 823 3093 
Q 1294 3584 2113 3584 
Q 2378 3584 2631 3529 
Q 2884 3475 3122 3366 
z
" transform="scale(0.015625)"/>
       <path id="DejaVuSans-6f" d="M 1959 3097 
Q 1497 3097 1228 2736 
Q 959 2375 959 1747 
Q 959 1119 1226 758 
Q 1494 397 1959 397 
Q 2419 397 2687 759 
Q 2956 1122 2956 1747 
Q 2956 2369 2687 2733 
Q 2419 3097 1959 3097 
z
M 1959 3584 
Q 2709 3584 3137 3096 
Q 3566 2609 3566 1747 
Q 3566 888 3137 398 
Q 2709 -91 1959 -91 
Q 1206 -91 779 398 
Q 353 888 353 1747 
Q 353 2609 779 3096 
Q 1206 3584 1959 3584 
z
" transform="scale(0.015625)"/>
       <path id="DejaVuSans-61" d="M 2194 1759 
Q 1497 1759 1228 1600 
Q 959 1441 959 1056 
Q 959 750 1161 570 
Q 1363 391 1709 391 
Q 2188 391 2477 730 
Q 2766 1069 2766 1631 
L 2766 1759 
L 2194 1759 
z
M 3341 1997 
L 3341 0 
L 2766 0 
L 2766 531 
Q 2569 213 2275 61 
Q 1981 -91 1556 -91 
Q 1019 -91 701 211 
Q 384 513 384 1019 
Q 384 1609 779 1909 
Q 1175 2209 1959 2209 
L 2766 2209 
L 2766 2266 
Q 2766 2663 2505 2880 
Q 2244 3097 1772 3097 
Q 1472 3097 1187 3025 
Q 903 2953 641 2809 
L 641 3341 
Q 956 3463 1253 3523 
Q 1550 3584 1831 3584 
Q 2591 3584 2966 3190 
Q 3341 2797 3341 1997 
z
" transform="scale(0.015625)"/>
       <path id="DejaVuSans-72" d="M 2631 2963 
Q 2534 3019 2420 3045 
Q 2306 3072 2169 3072 
Q 1681 3072 1420 2755 
Q 1159 2438 1159 1844 
L 1159 0 
L 581 0 
L 581 3500 
L 1159 3500 
L 1159 2956 
Q 1341 3275 1631 3429 
Q 1922 3584 2338 3584 
Q 2397 3584 2469 3576 
Q 2541 3569 2628 3553 
L 2631 2963 
z
" transform="scale(0.015625)"/>
      </defs>
      <use xlink:href="#DejaVuSans-4d"/>
      <use xlink:href="#DejaVuSans-69" transform="translate(86.279297 0)"/>
      <use xlink:href="#DejaVuSans-6e" transform="translate(114.0625 0)"/>
      <use xlink:href="#DejaVuSans-75" transform="translate(177.441406 0)"/>
      <use xlink:href="#DejaVuSans-74" transform="translate(240.820312 0)"/>
      <use xlink:href="#DejaVuSans-65" transform="translate(280.029297 0)"/>
      <use xlink:href="#DejaVuSans-73" transform="translate(341.552734 0)"/>
      <use xlink:href="#DejaVuSans-20" transform="translate(393.652344 0)"/>
      <use xlink:href="#DejaVuSans-73" transform="translate(425.439453 0)"/>
      <use xlink:href="#DejaVuSans-69" transform="translate(477.539062 0)"/>
      <use xlink:href="#DejaVuSans-6e" transform="translate(505.322266 0)"/>
      <use xlink:href="#DejaVuSans-63" transform="translate(568.701172 0)"/>
      <use xlink:href="#DejaVuSans-65" transform="translate(623.681641 0)"/>
      <use xlink:href="#DejaVuSans-20" transform="translate(685.205078 0)"/>
      <use xlink:href="#DejaVuSans-73" transform="translate(716.992188 0)"/>
      <use xlink:href="#DejaVuSans-65" transform="translate(769.091797 0)"/>
      <use xlink:href="#DejaVuSans-73" transform="translate(830.615234 0)"/>
      <use xlink:href="#DejaVuSans-73" transform="translate(882.714844 0)"/>
      <use xlink:href="#DejaVuSans-69" transform="translate(934.814453 0)"/>
      <use xlink:href="#DejaVuSans-6f" transform="translate(962.597656 0)"/>
      <use xlink:href="#DejaVuSans-6e" transform="translate(1023.779297 0)"/>
      <use xlink:href="#DejaVuSans-20" transform="translate(1087.158203 0)"/>
      <use xlink:href="#DejaVuSans-73" transform="translate(1118.945312 0)"/>
      <use xlink:href="#DejaVuSans-74" transform="translate(1171.044922 0)"/>
      <use xlink:href="#DejaVuSans-61" transform="translate(1210.253906 0)"/>
      <use xlink:href="#DejaVuSans-72" transform="translate(1271.533203 0)"/>
      <use xlink:href="#DejaVuSans-74" transform="translate(1312.646484 0)"/>
     </g>
    </g>
   </g>
   <g id="matplotlib.axis_2">
    <g id="ytick_1">
     <g id="line2d_17">
      <path d="M 42.190938 219.3232 
L 935.353437 219.3232 
" clip-path="url(#p6befebcca2)" style="fill: none; stroke: #eef2f7; stroke-opacity: 0.25; stroke-width: 0.55; stroke-linecap: square"/>
     </g>
     <g id="line2d_18">
      <defs>
       <path id="m1dc5d53020" d="M 0 0 
L -3.5 0 
" style="stroke: #000000; stroke-width: 0.8"/>
      </defs>
      <g>
       <use xlink:href="#m1dc5d53020" x="42.190938" y="219.3232" style="stroke: #000000; stroke-width: 0.8"/>
      </g>
     </g>
     <g id="text_10">
      <!-- 0.0 -->
      <g transform="translate(20.878125 222.742497) scale(0.09 -0.09)">
       <defs>
        <path id="DejaVuSans-2e" d="M 684 794 
L 1344 794 
L 1344 0 
L 684 0 
L 684 794 
z
" transform="scale(0.015625)"/>
       </defs>
       <use xlink:href="#DejaVuSans-30"/>
       <use xlink:href="#DejaVuSans-2e" transform="translate(63.623047 0)"/>
       <use xlink:href="#DejaVuSans-30" transform="translate(95.410156 0)"/>
      </g>
     </g>
    </g>
    <g id="ytick_2">
     <g id="line2d_19">
      <path d="M 42.190938 186.225218 
L 935.353437 186.225218 
" clip-path="url(#p6befebcca2)" style="fill: none; stroke: #eef2f7; stroke-opacity: 0.25; stroke-width: 0.55; stroke-linecap: square"/>
     </g>
     <g id="line2d_20">
      <g>
       <use xlink:href="#m1dc5d53020" x="42.190938" y="186.225218" style="stroke: #000000; stroke-width: 0.8"/>
      </g>
     </g>
     <g id="text_11">
      <!-- 0.1 -->
      <g transform="translate(20.878125 189.644515) scale(0.09 -0.09)">
       <use xlink:href="#DejaVuSans-30"/>
       <use xlink:href="#DejaVuSans-2e" transform="translate(63.623047 0)"/>
       <use xlink:href="#DejaVuSans-31" transform="translate(95.410156 0)"/>
      </g>
     </g>
    </g>
    <g id="ytick_3">
     <g id="line2d_21">
      <path d="M 42.190938 153.127236 
L 935.353437 153.127236 
" clip-path="url(#p6befebcca2)" style="fill: none; stroke: #eef2f7; stroke-opacity: 0.25; stroke-width: 0.55; stroke-linecap: square"/>
     </g>
     <g id="line2d_22">
      <g>
       <use xlink:href="#m1dc5d53020" x="42.190938" y="153.127236" style="stroke: #000000; stroke-width: 0.8"/>
      </g>
     </g>
     <g id="text_12">
      <!-- 0.2 -->
      <g transform="translate(20.878125 156.546533) scale(0.09 -0.09)">
       <use xlink:href="#DejaVuSans-30"/>
       <use xlink:href="#DejaVuSans-2e" transform="translate(63.623047 0)"/>
       <use xlink:href="#DejaVuSans-32" transform="translate(95.410156 0)"/>
      </g>
     </g>
    </g>
    <g id="ytick_4">
     <g id="line2d_23">
      <path d="M 42.190938 120.029254 
L 935.353437 120.029254 
" clip-path="url(#p6befebcca2)" style="fill: none; stroke: #eef2f7; stroke-opacity: 0.25; stroke-width: 0.55; stroke-linecap: square"/>
     </g>
     <g id="line2d_24">
      <g>
       <use xlink:href="#m1dc5d53020" x="42.190938" y="120.029254" style="stroke: #000000; stroke-width: 0.8"/>
      </g>
     </g>
     <g id="text_13">
      <!-- 0.3 -->
      <g transform="translate(20.878125 123.448551) scale(0.09 -0.09)">
       <defs>
        <path id="DejaVuSans-33" d="M 2597 2516 
Q 3050 2419 3304 2112 
Q 3559 1806 3559 1356 
Q 3559 666 3084 287 
Q 2609 -91 1734 -91 
Q 1441 -91 1130 -33 
Q 819 25 488 141 
L 488 750 
Q 750 597 1062 519 
Q 1375 441 1716 441 
Q 2309 441 2620 675 
Q 2931 909 2931 1356 
Q 2931 1769 2642 2001 
Q 2353 2234 1838 2234 
L 1294 2234 
L 1294 2753 
L 1863 2753 
Q 2328 2753 2575 2939 
Q 2822 3125 2822 3475 
Q 2822 3834 2567 4026 
Q 2313 4219 1838 4219 
Q 1578 4219 1281 4162 
Q 984 4106 628 3988 
L 628 4550 
Q 988 4650 1302 4700 
Q 1616 4750 1894 4750 
Q 2613 4750 3031 4423 
Q 3450 4097 3450 3541 
Q 3450 3153 3228 2886 
Q 3006 2619 2597 2516 
z
" transform="scale(0.015625)"/>
       </defs>
       <use xlink:href="#DejaVuSans-30"/>
       <use xlink:href="#DejaVuSans-2e" transform="translate(63.623047 0)"/>
       <use xlink:href="#DejaVuSans-33" transform="translate(95.410156 0)"/>
      </g>
     </g>
    </g>
    <g id="ytick_5">
     <g id="line2d_25">
      <path d="M 42.190938 86.931273 
L 935.353437 86.931273 
" clip-path="url(#p6befebcca2)" style="fill: none; stroke: #eef2f7; stroke-opacity: 0.25; stroke-width: 0.55; stroke-linecap: square"/>
     </g>
     <g id="line2d_26">
      <g>
       <use xlink:href="#m1dc5d53020" x="42.190938" y="86.931273" style="stroke: #000000; stroke-width: 0.8"/>
      </g>
     </g>
     <g id="text_14">
      <!-- 0.4 -->
      <g transform="translate(20.878125 90.350569) scale(0.09 -0.09)">
       <use xlink:href="#DejaVuSans-30"/>
       <use xlink:href="#DejaVuSans-2e" transform="translate(63.623047 0)"/>
       <use xlink:href="#DejaVuSans-34" transform="translate(95.410156 0)"/>
      </g>
     </g>
    </g>
    <g id="ytick_6">
     <g id="line2d_27">
      <path d="M 42.190938 53.833291 
L 935.353437 53.833291 
" clip-path="url(#p6befebcca2)" style="fill: none; stroke: #eef2f7; stroke-opacity: 0.25; stroke-width: 0.55; stroke-linecap: square"/>
     </g>
     <g id="line2d_28">
      <g>
       <use xlink:href="#m1dc5d53020" x="42.190938" y="53.833291" style="stroke: #000000; stroke-width: 0.8"/>
      </g>
     </g>
     <g id="text_15">
      <!-- 0.5 -->
      <g transform="translate(20.878125 57.252588) scale(0.09 -0.09)">
       <defs>
        <path id="DejaVuSans-35" d="M 691 4666 
L 3169 4666 
L 3169 4134 
L 1269 4134 
L 1269 2991 
Q 1406 3038 1543 3061 
Q 1681 3084 1819 3084 
Q 2600 3084 3056 2656 
Q 3513 2228 3513 1497 
Q 3513 744 3044 326 
Q 2575 -91 1722 -91 
Q 1428 -91 1123 -41 
Q 819 9 494 109 
L 494 744 
Q 775 591 1075 516 
Q 1375 441 1709 441 
Q 2250 441 2565 725 
Q 2881 1009 2881 1497 
Q 2881 1984 2565 2268 
Q 2250 2553 1709 2553 
Q 1456 2553 1204 2497 
Q 953 2441 691 2322 
L 691 4666 
z
" transform="scale(0.015625)"/>
       </defs>
       <use xlink:href="#DejaVuSans-30"/>
       <use xlink:href="#DejaVuSans-2e" transform="translate(63.623047 0)"/>
       <use xlink:href="#DejaVuSans-35" transform="translate(95.410156 0)"/>
      </g>
     </g>
    </g>
    <g id="ytick_7">
     <g id="line2d_29">
      <path d="M 42.190938 20.735309 
L 935.353437 20.735309 
" clip-path="url(#p6befebcca2)" style="fill: none; stroke: #eef2f7; stroke-opacity: 0.25; stroke-width: 0.55; stroke-linecap: square"/>
     </g>
     <g id="line2d_30">
      <g>
       <use xlink:href="#m1dc5d53020" x="42.190938" y="20.735309" style="stroke: #000000; stroke-width: 0.8"/>
      </g>
     </g>
     <g id="text_16">
      <!-- 0.6 -->
      <g transform="translate(20.878125 24.154606) scale(0.09 -0.09)">
       <use xlink:href="#DejaVuSans-30"/>
       <use xlink:href="#DejaVuSans-2e" transform="translate(63.623047 0)"/>
       <use xlink:href="#DejaVuSans-36" transform="translate(95.410156 0)"/>
      </g>
     </g>
    </g>
    <g id="text_17">
     <!-- Velocity (m/s) -->
     <g transform="translate(14.798438 157.273698) rotate(-90) scale(0.1 -0.1)">
      <defs>
       <path id="DejaVuSans-56" d="M 1831 0 
L 50 4666 
L 709 4666 
L 2188 738 
L 3669 4666 
L 4325 4666 
L 2547 0 
L 1831 0 
z
" transform="scale(0.015625)"/>
       <path id="DejaVuSans-6c" d="M 603 4863 
L 1178 4863 
L 1178 0 
L 603 0 
L 603 4863 
z
" transform="scale(0.015625)"/>
       <path id="DejaVuSans-79" d="M 2059 -325 
Q 1816 -950 1584 -1140 
Q 1353 -1331 966 -1331 
L 506 -1331 
L 506 -850 
L 844 -850 
Q 1081 -850 1212 -737 
Q 1344 -625 1503 -206 
L 1606 56 
L 191 3500 
L 800 3500 
L 1894 763 
L 2988 3500 
L 3597 3500 
L 2059 -325 
z
" transform="scale(0.015625)"/>
       <path id="DejaVuSans-28" d="M 1984 4856 
Q 1566 4138 1362 3434 
Q 1159 2731 1159 2009 
Q 1159 1288 1364 580 
Q 1569 -128 1984 -844 
L 1484 -844 
Q 1016 -109 783 600 
Q 550 1309 550 2009 
Q 550 2706 781 3412 
Q 1013 4119 1484 4856 
L 1984 4856 
z
" transform="scale(0.015625)"/>
       <path id="DejaVuSans-6d" d="M 3328 2828 
Q 3544 3216 3844 3400 
Q 4144 3584 4550 3584 
Q 5097 3584 5394 3201 
Q 5691 2819 5691 2113 
L 5691 0 
L 5113 0 
L 5113 2094 
Q 5113 2597 4934 2840 
Q 4756 3084 4391 3084 
Q 3944 3084 3684 2787 
Q 3425 2491 3425 1978 
L 3425 0 
L 2847 0 
L 2847 2094 
Q 2847 2600 2669 2842 
Q 2491 3084 2119 3084 
Q 1678 3084 1418 2786 
Q 1159 2488 1159 1978 
L 1159 0 
L 581 0 
L 581 3500 
L 1159 3500 
L 1159 2956 
Q 1356 3278 1631 3431 
Q 1906 3584 2284 3584 
Q 2666 3584 2933 3390 
Q 3200 3197 3328 2828 
z
" transform="scale(0.015625)"/>
       <path id="DejaVuSans-2f" d="M 1625 4666 
L 2156 4666 
L 531 -594 
L 0 -594 
L 1625 4666 
z
" transform="scale(0.015625)"/>
       <path id="DejaVuSans-29" d="M 513 4856 
L 1013 4856 
Q 1481 4119 1714 3412 
Q 1947 2706 1947 2009 
Q 1947 1309 1714 600 
Q 1481 -109 1013 -844 
L 513 -844 
Q 928 -128 1133 580 
Q 1338 1288 1338 2009 
Q 1338 2731 1133 3434 
Q 928 4138 513 4856 
z
" transform="scale(0.015625)"/>
      </defs>
      <use xlink:href="#DejaVuSans-56"/>
      <use xlink:href="#DejaVuSans-65" transform="translate(60.658203 0)"/>
      <use xlink:href="#DejaVuSans-6c" transform="translate(122.181641 0)"/>
      <use xlink:href="#DejaVuSans-6f" transform="translate(149.964844 0)"/>
      <use xlink:href="#DejaVuSans-63" transform="translate(211.146484 0)"/>
      <use xlink:href="#DejaVuSans-69" transform="translate(266.126953 0)"/>
      <use xlink:href="#DejaVuSans-74" transform="translate(293.910156 0)"/>
      <use xlink:href="#DejaVuSans-79" transform="translate(333.119141 0)"/>
      <use xlink:href="#DejaVuSans-20" transform="translate(392.298828 0)"/>
      <use xlink:href="#DejaVuSans-28" transform="translate(424.085938 0)"/>
      <use xlink:href="#DejaVuSans-6d" transform="translate(463.099609 0)"/>
      <use xlink:href="#DejaVuSans-2f" transform="translate(560.511719 0)"/>
      <use xlink:href="#DejaVuSans-73" transform="translate(594.203125 0)"/>
      <use xlink:href="#DejaVuSans-29" transform="translate(646.302734 0)"/>
     </g>
    </g>
   </g>
   <g id="line2d_31">
    <path d="M 59.367139 200.78833 
L 64.980277 204.760088 
L 76.206553 205.091068 
L 81.819691 200.78833 
L 87.432829 195.492653 
L 93.045967 197.809512 
L 98.659105 206.414987 
L 104.272242 201.78127 
L 109.88538 203.436169 
L 115.498518 203.105189 
L 121.111656 198.471471 
L 123.918225 200.78833 
L 126.724794 203.436169 
L 132.337932 204.098128 
L 137.95107 201.45029 
L 143.564208 197.147552 
L 149.177346 201.11931 
L 154.790483 207.076947 
L 160.403621 194.830693 
L 166.016759 202.112249 
L 171.629897 199.795391 
L 177.243035 202.774209 
L 182.856173 196.816572 
L 188.469311 196.485593 
L 194.082449 200.78833 
L 205.308724 203.436169 
L 210.921862 200.45735 
L 216.535 203.105189 
L 222.148138 200.126371 
L 227.761276 206.745967 
L 233.374414 203.436169 
L 238.987552 206.745967 
L 244.60069 199.464411 
L 250.213827 199.464411 
L 255.826965 212.703604 
L 261.440103 204.098128 
L 264.246672 204.098128 
L 272.666379 203.105189 
L 278.279517 198.471471 
L 283.892655 199.795391 
L 289.505793 203.105189 
L 295.118931 207.738906 
L 300.732068 207.407927 
L 306.345206 212.041644 
L 311.958344 211.710664 
L 317.571482 204.429108 
L 323.18462 202.443229 
L 334.410896 203.767149 
L 340.024034 210.386745 
L 345.637171 216.013402 
L 351.250309 201.78127 
L 356.863447 210.717725 
L 368.089723 204.760088 
L 373.702861 209.393806 
L 379.315999 203.767149 
L 384.929137 206.414987 
L 390.542275 201.78127 
L 396.155412 206.084007 
L 401.76855 202.774209 
L 407.381688 198.140492 
L 412.994826 192.182855 
L 418.607964 201.45029 
L 424.221102 204.429108 
L 429.83424 190.196976 
L 435.447378 186.887178 
L 441.060515 203.767149 
L 446.673653 204.760088 
L 452.286791 202.112249 
L 457.899929 208.400866 
L 463.513067 203.105189 
L 469.126205 198.140492 
L 474.739343 199.795391 
L 480.352481 205.422048 
L 485.965619 200.78833 
L 491.578756 199.464411 
L 497.191894 194.830693 
L 502.805032 198.140492 
L 514.031308 202.774209 
L 519.644446 194.830693 
L 525.257584 197.478532 
L 530.870722 204.429108 
L 536.48386 198.471471 
L 542.096997 198.471471 
L 547.710135 205.753028 
L 553.323273 203.767149 
L 558.936411 212.041644 
L 564.549549 203.105189 
L 570.162687 210.055765 
L 575.775825 211.710664 
L 578.582394 208.069886 
L 581.388963 204.760088 
L 587.0021 214.027523 
L 592.615238 205.753028 
L 598.228376 205.422048 
L 603.841514 210.386745 
L 609.454652 211.379684 
L 615.06779 207.407927 
L 620.680928 204.429108 
L 626.294066 203.105189 
L 631.907204 204.429108 
L 637.520341 210.055765 
L 643.133479 210.717725 
L 648.746617 201.45029 
L 654.359755 209.062826 
L 659.972893 212.703604 
L 665.586031 203.436169 
L 671.199169 203.105189 
L 676.812307 203.105189 
L 688.038582 201.78127 
L 693.65172 205.753028 
L 699.264858 208.400866 
L 704.877996 207.407927 
L 710.491134 206.745967 
L 716.104272 209.062826 
L 721.71741 196.154613 
L 727.330548 191.851875 
L 732.943685 198.802451 
L 738.556823 200.45735 
L 744.169961 202.443229 
L 749.783099 201.45029 
L 752.589668 202.112249 
L 755.396237 202.443229 
L 761.009375 208.400866 
L 766.622513 205.091068 
L 772.235651 206.084007 
L 777.848788 212.703604 
L 783.461926 211.379684 
L 789.075064 201.78127 
L 794.688202 209.062826 
L 800.30134 210.055765 
L 805.914478 200.45735 
L 811.527616 201.78127 
L 817.140754 208.400866 
L 822.753892 204.098128 
L 833.980167 196.485593 
L 839.593305 200.78833 
L 845.206443 206.084007 
L 850.819581 195.161673 
L 856.432719 201.45029 
L 862.045857 204.098128 
L 867.658995 199.133431 
L 873.272133 201.45029 
L 878.88527 202.443229 
L 884.498408 204.098128 
L 890.111546 200.78833 
L 895.724684 206.084007 
L 901.337822 202.443229 
L 906.95096 202.112249 
L 912.564098 205.753028 
L 918.177236 202.443229 
L 918.177236 202.443229 
" clip-path="url(#p6befebcca2)" style="fill: none; stroke: #b8e3b2; stroke-opacity: 0.95; stroke-width: 0.936; stroke-linecap: square"/>
   </g>
   <g id="line2d_32">
    <path d="M 59.367139 206.084007 
L 64.980277 212.372624 
L 76.206553 205.091068 
L 81.819691 205.753028 
L 87.432829 207.407927 
L 93.045967 196.485593 
L 98.659105 186.556198 
L 104.272242 194.168734 
L 109.88538 207.738906 
L 115.498518 204.098128 
L 121.111656 201.45029 
L 123.918225 201.45029 
L 126.724794 201.11931 
L 132.337932 196.154613 
L 137.95107 192.844815 
L 143.564208 199.133431 
L 149.177346 202.443229 
L 154.790483 205.091068 
L 160.403621 204.760088 
L 166.016759 202.774209 
L 171.629897 199.464411 
L 177.243035 193.506774 
L 182.856173 192.844815 
L 188.469311 200.126371 
L 194.082449 201.11931 
L 205.308724 193.506774 
L 210.921862 190.527956 
L 216.535 199.464411 
L 222.148138 191.851875 
L 227.761276 185.563259 
L 233.374414 194.830693 
L 238.987552 196.154613 
L 244.60069 199.464411 
L 250.213827 206.414987 
L 255.826965 197.147552 
L 261.440103 205.091068 
L 267.053241 202.443229 
L 272.666379 209.393806 
L 278.279517 204.098128 
L 283.892655 206.745967 
L 289.505793 206.414987 
L 295.118931 213.696543 
L 300.732068 205.422048 
L 306.345206 205.091068 
L 311.958344 203.436169 
L 317.571482 203.105189 
L 323.18462 204.098128 
L 328.797758 204.429108 
L 334.410896 207.076947 
L 340.024034 209.393806 
L 345.637171 207.407927 
L 351.250309 201.45029 
L 356.863447 207.076947 
L 368.089723 204.429108 
L 373.702861 206.084007 
L 379.315999 205.753028 
L 384.929137 203.105189 
L 390.542275 209.724785 
L 396.155412 203.105189 
L 401.76855 203.767149 
L 407.381688 209.393806 
L 412.994826 196.816572 
L 418.607964 204.429108 
L 424.221102 194.168734 
L 429.83424 194.830693 
L 435.447378 210.055765 
L 438.253947 205.422048 
L 441.060515 201.11931 
L 446.673653 204.098128 
L 452.286791 199.464411 
L 457.899929 206.414987 
L 463.513067 205.422048 
L 469.126205 207.738906 
L 474.739343 204.760088 
L 480.352481 211.710664 
L 485.965619 204.429108 
L 497.191894 197.809512 
L 502.805032 192.182855 
L 514.031308 194.499714 
L 519.644446 204.429108 
L 525.257584 208.731846 
L 530.870722 212.372624 
L 536.48386 186.556198 
L 542.096997 203.105189 
L 547.710135 192.513835 
L 553.323273 193.506774 
L 558.936411 201.45029 
L 564.549549 201.11931 
L 570.162687 201.78127 
L 575.775825 205.091068 
L 578.582394 203.105189 
L 581.388963 201.45029 
L 587.0021 211.379684 
L 592.615238 201.11931 
L 598.228376 204.429108 
L 603.841514 206.084007 
L 609.454652 206.414987 
L 615.06779 219.3232 
L 620.680928 205.753028 
L 626.294066 209.062826 
L 631.907204 210.055765 
L 637.520341 202.443229 
L 643.133479 203.767149 
L 648.746617 204.429108 
L 654.359755 206.084007 
L 659.972893 204.429108 
L 665.586031 203.436169 
L 671.199169 203.105189 
L 676.812307 198.140492 
L 688.038582 203.436169 
L 693.65172 212.372624 
L 699.264858 202.774209 
L 704.877996 199.464411 
L 710.491134 194.168734 
L 716.104272 203.105189 
L 721.71741 209.062826 
L 727.330548 179.605622 
L 732.943685 197.478532 
L 738.556823 205.091068 
L 744.169961 200.45735 
L 749.783099 200.45735 
L 755.396237 197.147552 
L 761.009375 206.745967 
L 766.622513 201.45029 
L 772.235651 202.443229 
L 777.848788 202.443229 
L 783.461926 211.710664 
L 789.075064 203.767149 
L 794.688202 202.443229 
L 800.30134 202.774209 
L 805.914478 203.767149 
L 811.527616 202.774209 
L 817.140754 188.873057 
L 822.753892 195.492653 
L 833.980167 191.520895 
L 839.593305 196.154613 
L 845.206443 193.506774 
L 850.819581 192.513835 
L 856.432719 181.591501 
L 862.045857 191.851875 
L 867.658995 200.126371 
L 873.272133 200.126371 
L 878.88527 214.689483 
L 884.498408 211.048705 
L 887.304977 207.407927 
L 890.111546 204.098128 
L 895.724684 211.048705 
L 901.337822 216.013402 
L 906.95096 207.407927 
L 912.564098 203.436169 
L 918.177236 201.78127 
L 918.177236 201.78127 
" clip-path="url(#p6befebcca2)" style="fill: none; stroke: #98d594; stroke-opacity: 0.95; stroke-width: 0.936; stroke-linecap: square"/>
   </g>
   <g id="line2d_33">
    <path d="M 59.367139 212.372624 
L 64.980277 212.703604 
L 76.206553 218.99222 
L 81.819691 210.055765 
L 87.432829 207.738906 
L 93.045967 37.2843 
L 98.659105 53.502311 
L 104.272242 48.537614 
L 109.88538 48.868593 
L 115.498518 36.29136 
L 121.111656 74.02306 
L 126.724794 195.823633 
L 132.337932 204.429108 
L 137.95107 215.351442 
L 143.564208 204.429108 
L 149.177346 207.738906 
L 154.790483 213.696543 
L 160.403621 214.027523 
L 166.016759 216.013402 
L 171.629897 207.407927 
L 177.243035 157.760954 
L 182.856173 52.178392 
L 188.469311 68.065423 
L 194.082449 116.057497 
L 205.308724 75.346979 
L 210.921862 76.670898 
L 216.535 66.741504 
L 222.148138 76.670898 
L 227.761276 81.635595 
L 233.374414 139.888044 
L 238.987552 202.443229 
L 244.60069 203.105189 
L 250.213827 217.668301 
L 255.826965 218.99222 
L 261.440103 218.66124 
L 267.053241 219.3232 
L 272.666379 215.351442 
L 278.279517 208.069886 
L 283.892655 201.78127 
L 289.505793 217.999281 
L 295.118931 207.407927 
L 300.732068 213.034584 
L 306.345206 207.076947 
L 311.958344 207.407927 
L 317.571482 214.358503 
L 323.18462 208.400866 
L 328.797758 213.034584 
L 334.410896 213.365563 
L 340.024034 208.731846 
L 345.637171 210.386745 
L 351.250309 205.091068 
L 356.863447 206.084007 
L 368.089723 204.429108 
L 373.702861 210.055765 
L 379.315999 207.407927 
L 384.929137 207.076947 
L 390.542275 206.414987 
L 396.155412 212.703604 
L 401.76855 208.731846 
L 407.381688 124.001012 
L 412.994826 30.333724 
L 418.607964 57.805048 
L 424.221102 52.509371 
L 429.83424 48.206634 
L 435.447378 56.812109 
L 441.060515 197.809512 
L 446.673653 213.365563 
L 452.286791 219.3232 
L 457.899929 217.999281 
L 463.513067 210.055765 
L 469.126205 209.062826 
L 474.739343 217.006341 
L 480.352481 206.084007 
L 485.965619 219.3232 
L 491.578756 169.014268 
L 497.191894 87.262252 
L 502.805032 69.389342 
L 514.031308 74.685019 
L 519.644446 80.311676 
L 525.257584 102.818304 
L 530.870722 76.339918 
L 536.48386 77.001878 
L 542.096997 74.685019 
L 547.710135 139.557064 
L 553.323273 209.062826 
L 558.936411 208.400866 
L 564.549549 206.745967 
L 570.162687 208.069886 
L 575.775825 207.738906 
L 581.388963 207.738906 
L 587.0021 206.414987 
L 592.615238 207.407927 
L 598.228376 212.041644 
L 603.841514 209.393806 
L 609.454652 205.091068 
L 615.06779 204.429108 
L 620.680928 207.407927 
L 626.294066 212.372624 
L 631.907204 203.767149 
L 637.520341 206.745967 
L 643.133479 206.745967 
L 648.746617 212.041644 
L 654.359755 205.422048 
L 659.972893 211.048705 
L 665.586031 213.696543 
L 671.199169 206.414987 
L 676.812307 205.753028 
L 688.038582 205.091068 
L 693.65172 204.098128 
L 699.264858 206.414987 
L 704.877996 206.745967 
L 710.491134 212.041644 
L 716.104272 210.386745 
L 721.71741 118.374355 
L 727.330548 45.889775 
L 732.943685 45.889775 
L 738.556823 60.783867 
L 744.169961 74.685019 
L 749.783099 48.537614 
L 755.396237 203.436169 
L 761.009375 201.11931 
L 766.622513 204.098128 
L 772.235651 210.055765 
L 777.848788 213.696543 
L 783.461926 205.753028 
L 789.075064 204.098128 
L 794.688202 207.407927 
L 800.30134 209.724785 
L 805.914478 184.239339 
L 811.527616 82.297555 
L 817.140754 84.283434 
L 822.753892 100.170465 
L 833.980167 90.572051 
L 839.593305 77.663838 
L 845.206443 85.938333 
L 850.819581 80.973636 
L 856.432719 81.635595 
L 862.045857 142.204902 
L 867.658995 210.386745 
L 873.272133 219.3232 
L 878.88527 214.358503 
L 884.498408 207.407927 
L 887.304977 212.372624 
L 890.111546 217.668301 
L 895.724684 210.717725 
L 901.337822 204.429108 
L 906.95096 204.098128 
L 912.564098 206.084007 
L 918.177236 206.414987 
L 918.177236 206.414987 
" clip-path="url(#p6befebcca2)" style="fill: none; stroke: #73c476; stroke-opacity: 0.95; stroke-width: 0.936; stroke-linecap: square"/>
   </g>
   <g id="line2d_34">
    <path d="M 59.367139 207.076947 
L 64.980277 208.400866 
L 76.206553 206.414987 
L 81.819691 209.062826 
L 87.432829 209.393806 
L 93.045967 200.45735 
L 98.659105 190.196976 
L 104.272242 198.802451 
L 109.88538 191.189915 
L 115.498518 199.795391 
L 121.111656 194.168734 
L 123.918225 195.823633 
L 126.724794 197.809512 
L 132.337932 202.112249 
L 137.95107 205.753028 
L 143.564208 205.091068 
L 149.177346 206.414987 
L 154.790483 208.069886 
L 160.403621 208.069886 
L 166.016759 206.745967 
L 171.629897 207.738906 
L 177.243035 203.105189 
L 182.856173 201.45029 
L 188.469311 189.865996 
L 194.082449 191.189915 
L 205.308724 192.844815 
L 210.921862 197.809512 
L 216.535 196.154613 
L 222.148138 197.478532 
L 227.761276 196.485593 
L 233.374414 199.133431 
L 238.987552 204.098128 
L 244.60069 204.098128 
L 250.213827 206.745967 
L 255.826965 205.753028 
L 261.440103 206.084007 
L 264.246672 206.084007 
L 267.053241 205.753028 
L 272.666379 208.069886 
L 278.279517 205.422048 
L 283.892655 205.753028 
L 289.505793 204.760088 
L 295.118931 205.753028 
L 300.732068 203.105189 
L 306.345206 203.767149 
L 311.958344 204.098128 
L 317.571482 203.767149 
L 323.18462 204.429108 
L 328.797758 206.745967 
L 334.410896 203.105189 
L 345.637171 203.767149 
L 351.250309 202.774209 
L 356.863447 203.436169 
L 368.089723 205.422048 
L 373.702861 205.422048 
L 384.929137 206.745967 
L 390.542275 205.753028 
L 396.155412 203.105189 
L 401.76855 203.436169 
L 407.381688 201.11931 
L 412.994826 193.506774 
L 418.607964 193.506774 
L 424.221102 194.830693 
L 429.83424 194.168734 
L 435.447378 195.492653 
L 441.060515 198.802451 
L 446.673653 204.098128 
L 452.286791 203.767149 
L 457.899929 205.091068 
L 469.126205 203.767149 
L 474.739343 206.745967 
L 480.352481 202.443229 
L 485.965619 204.429108 
L 491.578756 205.753028 
L 497.191894 196.816572 
L 502.805032 191.520895 
L 514.031308 198.471471 
L 519.644446 195.823633 
L 525.257584 196.154613 
L 530.870722 194.830693 
L 536.48386 191.851875 
L 542.096997 194.830693 
L 547.710135 195.823633 
L 553.323273 204.098128 
L 558.936411 204.429108 
L 564.549549 205.753028 
L 570.162687 201.78127 
L 575.775825 206.084007 
L 581.388963 202.112249 
L 587.0021 203.767149 
L 592.615238 202.774209 
L 598.228376 201.45029 
L 603.841514 203.767149 
L 609.454652 204.098128 
L 615.06779 202.774209 
L 620.680928 203.767149 
L 626.294066 206.745967 
L 631.907204 204.098128 
L 637.520341 200.126371 
L 643.133479 205.753028 
L 648.746617 202.112249 
L 654.359755 201.45029 
L 659.972893 204.760088 
L 665.586031 205.091068 
L 671.199169 203.767149 
L 676.812307 202.774209 
L 688.038582 204.760088 
L 693.65172 205.422048 
L 699.264858 202.774209 
L 704.877996 202.443229 
L 710.491134 204.760088 
L 716.104272 205.422048 
L 721.71741 199.464411 
L 727.330548 194.168734 
L 738.556823 191.520895 
L 744.169961 191.189915 
L 749.783099 192.182855 
L 752.589668 195.823633 
L 755.396237 199.795391 
L 761.009375 204.429108 
L 766.622513 203.436169 
L 772.235651 201.45029 
L 777.848788 202.774209 
L 783.461926 210.055765 
L 789.075064 204.760088 
L 794.688202 202.112249 
L 800.30134 204.098128 
L 805.914478 205.091068 
L 811.527616 198.802451 
L 817.140754 199.133431 
L 822.753892 198.802451 
L 833.980167 197.147552 
L 839.593305 197.147552 
L 845.206443 199.795391 
L 850.819581 200.126371 
L 856.432719 197.809512 
L 862.045857 200.45735 
L 867.658995 200.45735 
L 873.272133 203.767149 
L 878.88527 205.753028 
L 884.498408 205.091068 
L 890.111546 201.78127 
L 895.724684 205.091068 
L 901.337822 203.436169 
L 906.95096 204.098128 
L 912.564098 203.767149 
L 918.177236 206.414987 
L 918.177236 206.414987 
" clip-path="url(#p6befebcca2)" style="fill: none; stroke: #4bb062; stroke-opacity: 0.95; stroke-width: 0.936; stroke-linecap: square"/>
   </g>
   <g id="line2d_35">
    <path d="M 59.367139 211.048705 
L 64.980277 214.689483 
L 76.206553 215.020462 
L 81.819691 214.027523 
L 87.432829 214.358503 
L 93.045967 191.851875 
L 98.659105 194.168734 
L 104.272242 192.513835 
L 109.88538 190.196976 
L 115.498518 194.168734 
L 121.111656 189.204037 
L 123.918225 194.168734 
L 126.724794 198.802451 
L 132.337932 210.386745 
L 137.95107 210.055765 
L 143.564208 210.055765 
L 149.177346 209.724785 
L 154.790483 207.076947 
L 160.403621 215.020462 
L 166.016759 210.717725 
L 171.629897 211.379684 
L 177.243035 204.098128 
L 182.856173 197.147552 
L 188.469311 187.549137 
L 194.082449 164.04957 
L 205.308724 193.837754 
L 210.921862 199.464411 
L 216.535 203.436169 
L 222.148138 198.802451 
L 227.761276 202.443229 
L 233.374414 201.11931 
L 238.987552 207.076947 
L 244.60069 208.069886 
L 250.213827 213.696543 
L 255.826965 210.386745 
L 261.440103 208.731846 
L 264.246672 208.731846 
L 267.053241 209.062826 
L 272.666379 206.084007 
L 278.279517 211.048705 
L 283.892655 212.372624 
L 289.505793 219.3232 
L 295.118931 213.365563 
L 300.732068 217.006341 
L 306.345206 214.358503 
L 311.958344 210.386745 
L 317.571482 209.724785 
L 323.18462 209.724785 
L 328.797758 209.393806 
L 334.410896 214.027523 
L 340.024034 215.020462 
L 345.637171 210.717725 
L 351.250309 214.027523 
L 356.863447 215.020462 
L 368.089723 213.696543 
L 379.315999 213.696543 
L 384.929137 214.689483 
L 390.542275 210.717725 
L 396.155412 211.048705 
L 401.76855 210.386745 
L 407.381688 205.753028 
L 412.994826 196.816572 
L 418.607964 180.929541 
L 424.221102 188.873057 
L 429.83424 173.978965 
L 435.447378 160.739772 
L 441.060515 197.478532 
L 446.673653 214.689483 
L 452.286791 211.048705 
L 457.899929 212.703604 
L 463.513067 212.703604 
L 469.126205 208.400866 
L 474.739343 216.675362 
L 480.352481 210.055765 
L 485.965619 214.358503 
L 491.578756 210.386745 
L 497.191894 191.189915 
L 502.805032 198.471471 
L 514.031308 205.091068 
L 519.644446 198.802451 
L 525.257584 198.140492 
L 530.870722 196.485593 
L 536.48386 200.45735 
L 542.096997 200.45735 
L 547.710135 202.112249 
L 553.323273 204.429108 
L 558.936411 204.098128 
L 564.549549 214.358503 
L 570.162687 214.689483 
L 575.775825 209.724785 
L 581.388963 213.696543 
L 587.0021 209.724785 
L 592.615238 213.034584 
L 598.228376 214.358503 
L 603.841514 215.020462 
L 609.454652 210.717725 
L 615.06779 213.696543 
L 620.680928 211.048705 
L 626.294066 214.689483 
L 631.907204 212.041644 
L 637.520341 210.386745 
L 643.133479 214.358503 
L 648.746617 214.689483 
L 654.359755 212.703604 
L 659.972893 210.055765 
L 665.586031 211.048705 
L 671.199169 212.372624 
L 676.812307 213.365563 
L 688.038582 208.731846 
L 693.65172 212.703604 
L 699.264858 213.034584 
L 710.491134 211.710664 
L 716.104272 213.696543 
L 721.71741 201.78127 
L 727.330548 194.830693 
L 732.943685 175.302884 
L 738.556823 170.338187 
L 744.169961 167.690348 
L 749.783099 181.260521 
L 755.396237 201.11931 
L 761.009375 208.069886 
L 772.235651 210.055765 
L 777.848788 216.675362 
L 783.461926 211.048705 
L 789.075064 212.703604 
L 794.688202 215.020462 
L 800.30134 213.034584 
L 805.914478 206.414987 
L 811.527616 202.774209 
L 817.140754 204.429108 
L 822.753892 205.091068 
L 833.980167 190.527956 
L 839.593305 201.11931 
L 845.206443 199.464411 
L 850.819581 206.084007 
L 856.432719 202.112249 
L 862.045857 203.105189 
L 867.658995 212.372624 
L 873.272133 213.696543 
L 878.88527 210.386745 
L 884.498408 214.358503 
L 890.111546 209.724785 
L 895.724684 214.689483 
L 901.337822 209.724785 
L 906.95096 211.048705 
L 912.564098 215.351442 
L 918.177236 211.048705 
L 918.177236 211.048705 
" clip-path="url(#p6befebcca2)" style="fill: none; stroke: #2f974e; stroke-opacity: 0.95; stroke-width: 0.936; stroke-linecap: square"/>
   </g>
   <g id="line2d_36">
    <path d="M 59.367139 218.66124 
L 64.980277 215.020462 
L 76.206553 219.3232 
L 81.819691 215.020462 
L 87.432829 211.379684 
L 93.045967 42.579977 
L 98.659105 43.572916 
L 104.272242 56.481129 
L 109.88538 62.438766 
L 115.498518 54.82623 
L 121.111656 84.614414 
L 126.724794 194.830693 
L 137.95107 219.3232 
L 143.564208 207.407927 
L 149.177346 218.330261 
L 154.790483 219.3232 
L 160.403621 219.3232 
L 166.016759 218.99222 
L 171.629897 216.344382 
L 177.243035 168.683288 
L 182.856173 36.29136 
L 188.469311 68.065423 
L 194.082449 85.938333 
L 205.308724 47.544674 
L 210.921862 56.812109 
L 216.535 55.48819 
L 222.148138 72.69914 
L 227.761276 69.720322 
L 233.374414 133.268447 
L 238.987552 203.436169 
L 244.60069 206.745967 
L 250.213827 214.689483 
L 255.826965 219.3232 
L 267.053241 219.3232 
L 272.666379 218.330261 
L 278.279517 207.407927 
L 283.892655 201.78127 
L 289.505793 219.3232 
L 306.345206 219.3232 
L 311.958344 210.717725 
L 317.571482 219.3232 
L 323.18462 218.99222 
L 328.797758 219.3232 
L 334.410896 219.3232 
L 340.024034 218.330261 
L 345.637171 216.013402 
L 351.250309 217.668301 
L 356.863447 208.400866 
L 368.089723 205.422048 
L 373.702861 212.041644 
L 379.315999 219.3232 
L 384.929137 212.703604 
L 390.542275 213.696543 
L 396.155412 214.027523 
L 401.76855 219.3232 
L 407.381688 119.698275 
L 412.994826 44.234876 
L 418.607964 55.48819 
L 424.221102 53.833291 
L 429.83424 46.882714 
L 435.447378 54.49525 
L 441.060515 197.478532 
L 446.673653 217.668301 
L 452.286791 217.006341 
L 457.899929 214.358503 
L 463.513067 219.3232 
L 469.126205 206.745967 
L 474.739343 212.041644 
L 480.352481 206.745967 
L 485.965619 219.3232 
L 491.578756 181.591501 
L 497.191894 69.058362 
L 502.805032 58.467008 
L 514.031308 78.656777 
L 519.644446 85.938333 
L 525.257584 88.255192 
L 530.870722 77.663838 
L 536.48386 79.980696 
L 542.096997 77.663838 
L 547.710135 127.97277 
L 553.323273 211.379684 
L 558.936411 215.351442 
L 564.549549 215.351442 
L 570.162687 213.365563 
L 575.775825 216.344382 
L 578.582394 217.668301 
L 581.388963 219.3232 
L 587.0021 209.062826 
L 592.615238 216.675362 
L 598.228376 216.675362 
L 603.841514 217.337321 
L 609.454652 212.372624 
L 615.06779 208.069886 
L 620.680928 215.020462 
L 626.294066 210.386745 
L 631.907204 205.422048 
L 637.520341 210.717725 
L 643.133479 215.351442 
L 648.746617 214.689483 
L 654.359755 209.393806 
L 659.972893 217.337321 
L 665.586031 214.027523 
L 671.199169 213.365563 
L 676.812307 217.999281 
L 688.038582 212.372624 
L 693.65172 207.407927 
L 699.264858 216.344382 
L 704.877996 213.696543 
L 710.491134 213.696543 
L 716.104272 208.731846 
L 721.71741 113.078678 
L 727.330548 26.692946 
L 732.943685 41.587037 
L 738.556823 72.368161 
L 744.169961 85.938333 
L 749.783099 49.530553 
L 755.396237 201.45029 
L 761.009375 206.084007 
L 766.622513 213.034584 
L 772.235651 211.710664 
L 777.848788 213.696543 
L 783.461926 207.076947 
L 789.075064 208.731846 
L 794.688202 217.999281 
L 800.30134 212.041644 
L 805.914478 184.901299 
L 811.527616 79.649717 
L 817.140754 77.994817 
L 822.753892 87.924212 
L 833.980167 86.600293 
L 839.593305 66.410524 
L 845.206443 55.81917 
L 850.819581 70.382282 
L 856.432719 67.734443 
L 867.658995 210.386745 
L 873.272133 218.66124 
L 878.88527 218.99222 
L 884.498408 207.407927 
L 890.111546 216.675362 
L 895.724684 217.668301 
L 901.337822 205.091068 
L 906.95096 208.069886 
L 912.564098 205.753028 
L 918.177236 208.731846 
L 918.177236 208.731846 
" clip-path="url(#p6befebcca2)" style="fill: none; stroke: #157f3b; stroke-opacity: 0.95; stroke-width: 0.936; stroke-linecap: square"/>
   </g>
   <g id="patch_21">
    <path d="M 42.190938 228.954713 
L 42.190938 17.061433 
" style="fill: none; stroke: #cbd5e1; stroke-width: 0.8; stroke-linejoin: miter; stroke-linecap: square"/>
   </g>
   <g id="patch_22">
    <path d="M 935.353437 228.954713 
L 935.353437 17.061433 
" style="fill: none; stroke: #cbd5e1; stroke-width: 0.8; stroke-linejoin: miter; stroke-linecap: square"/>
   </g>
   <g id="patch_23">
    <path d="M 42.190938 228.954713 
L 935.353437 228.954713 
" style="fill: none; stroke: #cbd5e1; stroke-width: 0.8; stroke-linejoin: miter; stroke-linecap: square"/>
   </g>
   <g id="patch_24">
    <path d="M 42.190938 17.061433 
L 935.353437 17.061433 
" style="fill: none; stroke: #cbd5e1; stroke-width: 0.8; stroke-linejoin: miter; stroke-linecap: square"/>
   </g>
   <g id="text_18">
    <!-- ACC -->
    <g style="fill: #475569" transform="translate(42.526538 13.27875) scale(0.08 -0.08)">
     <defs>
      <path id="DejaVuSans-41" d="M 2188 4044 
L 1331 1722 
L 3047 1722 
L 2188 4044 
z
M 1831 4666 
L 2547 4666 
L 4325 0 
L 3669 0 
L 3244 1197 
L 1141 1197 
L 716 0 
L 50 0 
L 1831 4666 
z
" transform="scale(0.015625)"/>
      <path id="DejaVuSans-43" d="M 4122 4306 
L 4122 3641 
Q 3803 3938 3442 4084 
Q 3081 4231 2675 4231 
Q 1875 4231 1450 3742 
Q 1025 3253 1025 2328 
Q 1025 1406 1450 917 
Q 1875 428 2675 428 
Q 3081 428 3442 575 
Q 3803 722 4122 1019 
L 4122 359 
Q 3791 134 3420 21 
Q 3050 -91 2638 -91 
Q 1578 -91 968 557 
Q 359 1206 359 2328 
Q 359 3453 968 4101 
Q 1578 4750 2638 4750 
Q 3056 4750 3426 4639 
Q 3797 4528 4122 4306 
z
" transform="scale(0.015625)"/>
     </defs>
     <use xlink:href="#DejaVuSans-41"/>
     <use xlink:href="#DejaVuSans-43" transform="translate(66.658203 0)"/>
     <use xlink:href="#DejaVuSans-43" transform="translate(136.482422 0)"/>
    </g>
   </g>
   <g id="text_19">
    <!-- OC -->
    <g style="fill: #475569" transform="translate(73.071247 13.27875) scale(0.08 -0.08)">
     <defs>
      <path id="DejaVuSans-4f" d="M 2522 4238 
Q 1834 4238 1429 3725 
Q 1025 3213 1025 2328 
Q 1025 1447 1429 934 
Q 1834 422 2522 422 
Q 3209 422 3611 934 
Q 4013 1447 4013 2328 
Q 4013 3213 3611 3725 
Q 3209 4238 2522 4238 
z
M 2522 4750 
Q 3503 4750 4090 4092 
Q 4678 3434 4678 2328 
Q 4678 1225 4090 567 
Q 3503 -91 2522 -91 
Q 1538 -91 948 565 
Q 359 1222 359 2328 
Q 359 3434 948 4092 
Q 1538 4750 2522 4750 
z
" transform="scale(0.015625)"/>
     </defs>
     <use xlink:href="#DejaVuSans-4f"/>
     <use xlink:href="#DejaVuSans-43" transform="translate(78.710938 0)"/>
    </g>
   </g>
   <g id="text_20">
    <!-- FCS -->
    <g style="fill: #475569" transform="translate(105.058824 13.27875) scale(0.08 -0.08)">
     <defs>
      <path id="DejaVuSans-46" d="M 628 4666 
L 3309 4666 
L 3309 4134 
L 1259 4134 
L 1259 2759 
L 3109 2759 
L 3109 2228 
L 1259 2228 
L 1259 0 
L 628 0 
L 628 4666 
z
" transform="scale(0.015625)"/>
      <path id="DejaVuSans-53" d="M 3425 4513 
L 3425 3897 
Q 3066 4069 2747 4153 
Q 2428 4238 2131 4238 
Q 1616 4238 1336 4038 
Q 1056 3838 1056 3469 
Q 1056 3159 1242 3001 
Q 1428 2844 1947 2747 
L 2328 2669 
Q 3034 2534 3370 2195 
Q 3706 1856 3706 1288 
Q 3706 609 3251 259 
Q 2797 -91 1919 -91 
Q 1588 -91 1214 -16 
Q 841 59 441 206 
L 441 856 
Q 825 641 1194 531 
Q 1563 422 1919 422 
Q 2459 422 2753 634 
Q 3047 847 3047 1241 
Q 3047 1584 2836 1778 
Q 2625 1972 2144 2069 
L 1759 2144 
Q 1053 2284 737 2584 
Q 422 2884 422 3419 
Q 422 4038 858 4394 
Q 1294 4750 2059 4750 
Q 2388 4750 2728 4690 
Q 3069 4631 3425 4513 
z
" transform="scale(0.015625)"/>
     </defs>
     <use xlink:href="#DejaVuSans-46"/>
     <use xlink:href="#DejaVuSans-43" transform="translate(57.519531 0)"/>
     <use xlink:href="#DejaVuSans-53" transform="translate(127.34375 0)"/>
    </g>
   </g>
   <g id="text_21">
    <!-- SR -->
    <g style="fill: #475569" transform="translate(146.665164 13.27875) scale(0.08 -0.08)">
     <defs>
      <path id="DejaVuSans-52" d="M 2841 2188 
Q 3044 2119 3236 1894 
Q 3428 1669 3622 1275 
L 4263 0 
L 3584 0 
L 2988 1197 
Q 2756 1666 2539 1819 
Q 2322 1972 1947 1972 
L 1259 1972 
L 1259 0 
L 628 0 
L 628 4666 
L 2053 4666 
Q 2853 4666 3247 4331 
Q 3641 3997 3641 3322 
Q 3641 2881 3436 2590 
Q 3231 2300 2841 2188 
z
M 1259 4147 
L 1259 2491 
L 2053 2491 
Q 2509 2491 2742 2702 
Q 2975 2913 2975 3322 
Q 2975 3731 2742 3939 
Q 2509 4147 2053 4147 
L 1259 4147 
z
" transform="scale(0.015625)"/>
     </defs>
     <use xlink:href="#DejaVuSans-53"/>
     <use xlink:href="#DejaVuSans-52" transform="translate(63.476562 0)"/>
    </g>
   </g>
   <g id="text_22">
    <!-- FFC -->
    <g style="fill: #475569" transform="translate(197.914349 13.27875) scale(0.08 -0.08)">
     <use xlink:href="#DejaVuSans-46"/>
     <use xlink:href="#DejaVuSans-46" transform="translate(57.519531 0)"/>
     <use xlink:href="#DejaVuSans-43" transform="translate(115.039062 0)"/>
    </g>
   </g>
   <g id="text_23">
    <!-- SS -->
    <g style="fill: #475569" transform="translate(306.879594 13.27875) scale(0.08 -0.08)">
     <use xlink:href="#DejaVuSans-53"/>
     <use xlink:href="#DejaVuSans-53" transform="translate(63.476562 0)"/>
    </g>
   </g>
   <g id="text_24">
    <!-- OC -->
    <g style="fill: #475569" transform="translate(393.020106 13.27875) scale(0.08 -0.08)">
     <use xlink:href="#DejaVuSans-4f"/>
     <use xlink:href="#DejaVuSans-43" transform="translate(78.710938 0)"/>
    </g>
   </g>
   <g id="text_25">
    <!-- FCS -->
    <g style="fill: #475569" transform="translate(419.394546 13.27875) scale(0.08 -0.08)">
     <use xlink:href="#DejaVuSans-46"/>
     <use xlink:href="#DejaVuSans-43" transform="translate(57.519531 0)"/>
     <use xlink:href="#DejaVuSans-53" transform="translate(127.34375 0)"/>
    </g>
   </g>
   <g id="text_26">
    <!-- SR -->
    <g style="fill: #475569" transform="translate(463.807455 13.27875) scale(0.08 -0.08)">
     <use xlink:href="#DejaVuSans-53"/>
     <use xlink:href="#DejaVuSans-52" transform="translate(63.476562 0)"/>
    </g>
   </g>
   <g id="text_27">
    <!-- FFC -->
    <g style="fill: #475569" transform="translate(517.863209 13.27875) scale(0.08 -0.08)">
     <use xlink:href="#DejaVuSans-46"/>
     <use xlink:href="#DejaVuSans-46" transform="translate(57.519531 0)"/>
     <use xlink:href="#DejaVuSans-43" transform="translate(115.039062 0)"/>
    </g>
   </g>
   <g id="text_28">
    <!-- SS -->
    <g style="fill: #475569" transform="translate(621.215316 13.27875) scale(0.08 -0.08)">
     <use xlink:href="#DejaVuSans-53"/>
     <use xlink:href="#DejaVuSans-53" transform="translate(63.476562 0)"/>
    </g>
   </g>
   <g id="text_29">
    <!-- OC -->
    <g style="fill: #475569" transform="translate(707.355828 13.27875) scale(0.08 -0.08)">
     <use xlink:href="#DejaVuSans-4f"/>
     <use xlink:href="#DejaVuSans-43" transform="translate(78.710938 0)"/>
    </g>
   </g>
   <g id="text_30">
    <!-- FCS -->
    <g style="fill: #475569" transform="translate(733.730267 13.27875) scale(0.08 -0.08)">
     <use xlink:href="#DejaVuSans-46"/>
     <use xlink:href="#DejaVuSans-43" transform="translate(57.519531 0)"/>
     <use xlink:href="#DejaVuSans-53" transform="translate(127.34375 0)"/>
    </g>
   </g>
   <g id="text_31">
    <!-- SR -->
    <g style="fill: #475569" transform="translate(778.143176 13.27875) scale(0.08 -0.08)">
     <use xlink:href="#DejaVuSans-53"/>
     <use xlink:href="#DejaVuSans-52" transform="translate(63.476562 0)"/>
    </g>
   </g>
   <g id="text_32">
    <!-- FFC -->
    <g style="fill: #475569" transform="translate(832.19893 13.27875) scale(0.08 -0.08)">
     <use xlink:href="#DejaVuSans-46"/>
     <use xlink:href="#DejaVuSans-46" transform="translate(57.519531 0)"/>
     <use xlink:href="#DejaVuSans-43" transform="translate(115.039062 0)"/>
    </g>
   </g>
   <g id="text_33">
    <!-- SS -->
    <g style="fill: #475569" transform="translate(887.839365 13.27875) scale(0.08 -0.08)">
     <use xlink:href="#DejaVuSans-53"/>
     <use xlink:href="#DejaVuSans-53" transform="translate(63.476562 0)"/>
    </g>
   </g>
   <g id="legend_1">
    <g id="line2d_37">
     <path d="M 846.228437 27.540183 
L 854.228437 27.540183 
L 862.228437 27.540183 
" style="fill: none; stroke: #b8e3b2; stroke-opacity: 0.95; stroke-width: 1.3; stroke-linecap: square"/>
    </g>
    <g id="text_34">
     <!-- V1 -->
     <g transform="translate(868.628437 30.340183) scale(0.08 -0.08)">
      <use xlink:href="#DejaVuSans-56"/>
      <use xlink:href="#DejaVuSans-31" transform="translate(68.408203 0)"/>
     </g>
    </g>
    <g id="line2d_38">
     <path d="M 846.228437 39.282683 
L 854.228437 39.282683 
L 862.228437 39.282683 
" style="fill: none; stroke: #98d594; stroke-opacity: 0.95; stroke-width: 1.3; stroke-linecap: square"/>
    </g>
    <g id="text_35">
     <!-- V2 -->
     <g transform="translate(868.628437 42.082683) scale(0.08 -0.08)">
      <use xlink:href="#DejaVuSans-56"/>
      <use xlink:href="#DejaVuSans-32" transform="translate(68.408203 0)"/>
     </g>
    </g>
    <g id="line2d_39">
     <path d="M 846.228437 51.025183 
L 854.228437 51.025183 
L 862.228437 51.025183 
" style="fill: none; stroke: #73c476; stroke-opacity: 0.95; stroke-width: 1.3; stroke-linecap: square"/>
    </g>
    <g id="text_36">
     <!-- V3 -->
     <g transform="translate(868.628437 53.825183) scale(0.08 -0.08)">
      <use xlink:href="#DejaVuSans-56"/>
      <use xlink:href="#DejaVuSans-33" transform="translate(68.408203 0)"/>
     </g>
    </g>
    <g id="line2d_40">
     <path d="M 895.190937 27.540183 
L 903.190937 27.540183 
L 911.190937 27.540183 
" style="fill: none; stroke: #4bb062; stroke-opacity: 0.95; stroke-width: 1.3; stroke-linecap: square"/>
    </g>
    <g id="text_37">
     <!-- V4 -->
     <g transform="translate(917.590937 30.340183) scale(0.08 -0.08)">
      <use xlink:href="#DejaVuSans-56"/>
      <use xlink:href="#DejaVuSans-34" transform="translate(68.408203 0)"/>
     </g>
    </g>
    <g id="line2d_41">
     <path d="M 895.190937 39.282683 
L 903.190937 39.282683 
L 911.190937 39.282683 
" style="fill: none; stroke: #2f974e; stroke-opacity: 0.95; stroke-width: 1.3; stroke-linecap: square"/>
    </g>
    <g id="text_38">
     <!-- V5 -->
     <g transform="translate(917.590937 42.082683) scale(0.08 -0.08)">
      <use xlink:href="#DejaVuSans-56"/>
      <use xlink:href="#DejaVuSans-35" transform="translate(68.408203 0)"/>
     </g>
    </g>
    <g id="line2d_42">
     <path d="M 895.190937 51.025183 
L 903.190937 51.025183 
L 911.190937 51.025183 
" style="fill: none; stroke: #157f3b; stroke-opacity: 0.95; stroke-width: 1.3; stroke-linecap: square"/>
    </g>
    <g id="text_39">
     <!-- V6 -->
     <g transform="translate(917.590937 53.825183) scale(0.08 -0.08)">
      <use xlink:href="#DejaVuSans-56"/>
      <use xlink:href="#DejaVuSans-36" transform="translate(68.408203 0)"/>
     </g>
    </g>
   </g>
  </g>
 </g>
 <defs>
  <clipPath id="p6befebcca2">
   <rect x="42.190938" y="17.061433" width="893.1625" height="211.89328"/>
  </clipPath>
 </defs>
</svg>
