<?xml version="1.0" encoding="utf-8" standalone="no"?>
<!DOCTYPE svg PUBLIC "-//W3C//DTD SVG 1.1//EN"
  "http://www.w3.org/Graphics/SVG/1.1/DTD/svg11.dtd">
<svg xmlns:xlink="http://www.w3.org/1999/xlink" width="942.553437pt" height="265.54315pt" viewBox="0 0 942.553437 265.54315" xmlns="http://www.w3.org/2000/svg" version="1.1">
 <metadata>
  <rdf:RDF xmlns:dc="http://purl.org/dc/elements/1.1/" xmlns:cc="http://creativecommons.org/ns#" xmlns:rdf="http://www.w3.org/1999/02/22-rdf-syntax-ns#">
   <cc:Work>
    <dc:type rdf:resource="http://purl.org/dc/dcmitype/StillImage"/>
    <dc:date>2026-04-17T13:11:44.394224</dc:date>
    <dc:format>image/svg+xml</dc:format>
    <dc:creator>
     <cc:Agent>
      <dc:title>Matplotlib v3.10.8, https://matplotlib.org/</dc:title>
     </cc:Agent>
    </dc:creator>
   </cc:Work>
  </rdf:RDF>
 </metadata>
 <defs>
  <style type="text/css">*{stroke-linejoin: round; stroke-linecap: butt}</style>
 </defs>
 <g id="figure_1">
  <g id="patch_1">
   <path d="M 0 265.54315 
L 942.553437 265.54315 
L 942.553437 0 
L 0 0 
z
" style="fill: #ffffff"/>
  </g>
  <g id="axes_1">
   <g id="patch_2">
    <path d="M 42.190938 228.954713 
L 935.353437 228.954713 
L 935.353437 17.061433 
L 42.190938 17.061433 
z
" style="fill: #ffffff"/>
   </g>
   <g id="patch_3">
    <path d="M 42.190938 228.954713 
L 59.367139 228.954713 
L 59.367139 17.061433 
L 42.190938 17.061433 
z
" clip-path="url(#p4cd6200944)" style="fill: #f8fafc; opacity: 0.45"/>
   </g>
   <g id="patch_4">
    <path d="M 59.367139 228.954713 
L 93.045967 228.954713 
L 93.045967 17.061433 
L 59.367139 17.061433 
z
" clip-path="url(#p4cd6200944)" style="fill: #eff6ff; opacity: 0.45"/>
   </g>
   <g id="patch_5">
    <path d="M 93.045967 228.954713 
L 126.724794 228.954713 
L 126.724794 17.061433 
L 93.045967 17.061433 
z
" clip-path="url(#p4cd6200944)" style="fill: #fef3c7; opacity: 0.45"/>
   </g>
   <g id="patch_6">
    <path d="M 126.724794 228.954713 
L 177.243035 228.954713 
L 177.243035 17.061433 
L 126.724794 17.061433 
z
" clip-path="url(#p4cd6200944)" style="fill: #dcfce7; opacity: 0.45"/>
   </g>
   <g id="patch_7">
    <path d="M 177.243035 228.954713 
L 233.374414 228.954713 
L 233.374414 17.061433 
L 177.243035 17.061433 
z
" clip-path="url(#p4cd6200944)" style="fill: #fee2e2; opacity: 0.45"/>
   </g>
   <g id="patch_8">
    <path d="M 233.374414 228.954713 
L 238.987552 228.954713 
L 238.987552 17.061433 
L 233.374414 17.061433 
z
" clip-path="url(#p4cd6200944)" style="fill: #ede9fe; opacity: 0.45"/>
   </g>
   <g id="patch_9">
    <path d="M 238.987552 228.954713 
L 379.315999 228.954713 
L 379.315999 17.061433 
L 238.987552 17.061433 
z
" clip-path="url(#p4cd6200944)" style="fill: #f8fafc; opacity: 0.45"/>
   </g>
   <g id="patch_10">
    <path d="M 379.315999 228.954713 
L 412.994826 228.954713 
L 412.994826 17.061433 
L 379.315999 17.061433 
z
" clip-path="url(#p4cd6200944)" style="fill: #eff6ff; opacity: 0.45"/>
   </g>
   <g id="patch_11">
    <path d="M 412.994826 228.954713 
L 441.060515 228.954713 
L 441.060515 17.061433 
L 412.994826 17.061433 
z
" clip-path="url(#p4cd6200944)" style="fill: #fef3c7; opacity: 0.45"/>
   </g>
   <g id="patch_12">
    <path d="M 441.060515 228.954713 
L 491.578756 228.954713 
L 491.578756 17.061433 
L 441.060515 17.061433 
z
" clip-path="url(#p4cd6200944)" style="fill: #dcfce7; opacity: 0.45"/>
   </g>
   <g id="patch_13">
    <path d="M 491.578756 228.954713 
L 547.710135 228.954713 
L 547.710135 17.061433 
L 491.578756 17.061433 
z
" clip-path="url(#p4cd6200944)" style="fill: #fee2e2; opacity: 0.45"/>
   </g>
   <g id="patch_14">
    <path d="M 547.710135 228.954713 
L 553.323273 228.954713 
L 553.323273 17.061433 
L 547.710135 17.061433 
z
" clip-path="url(#p4cd6200944)" style="fill: #ede9fe; opacity: 0.45"/>
   </g>
   <g id="patch_15">
    <path d="M 553.323273 228.954713 
L 693.65172 228.954713 
L 693.65172 17.061433 
L 553.323273 17.061433 
z
" clip-path="url(#p4cd6200944)" style="fill: #f8fafc; opacity: 0.45"/>
   </g>
   <g id="patch_16">
    <path d="M 693.65172 228.954713 
L 727.330548 228.954713 
L 727.330548 17.061433 
L 693.65172 17.061433 
z
" clip-path="url(#p4cd6200944)" style="fill: #eff6ff; opacity: 0.45"/>
   </g>
   <g id="patch_17">
    <path d="M 727.330548 228.954713 
L 755.396237 228.954713 
L 755.396237 17.061433 
L 727.330548 17.061433 
z
" clip-path="url(#p4cd6200944)" style="fill: #fef3c7; opacity: 0.45"/>
   </g>
   <g id="patch_18">
    <path d="M 755.396237 228.954713 
L 805.914478 228.954713 
L 805.914478 17.061433 
L 755.396237 17.061433 
z
" clip-path="url(#p4cd6200944)" style="fill: #dcfce7; opacity: 0.45"/>
   </g>
   <g id="patch_19">
    <path d="M 805.914478 228.954713 
L 862.045857 228.954713 
L 862.045857 17.061433 
L 805.914478 17.061433 
z
" clip-path="url(#p4cd6200944)" style="fill: #fee2e2; opacity: 0.45"/>
   </g>
   <g id="patch_20">
    <path d="M 862.045857 228.954713 
L 867.658995 228.954713 
L 867.658995 17.061433 
L 862.045857 17.061433 
z
" clip-path="url(#p4cd6200944)" style="fill: #ede9fe; opacity: 0.45"/>
   </g>
   <g id="patch_21">
    <path d="M 867.658995 228.954713 
L 918.177236 228.954713 
L 918.177236 17.061433 
L 867.658995 17.061433 
z
" clip-path="url(#p4cd6200944)" style="fill: #f8fafc; opacity: 0.45"/>
   </g>
   <g id="patch_22">
    <path d="M 918.177236 228.954713 
L 923.790373 228.954713 
L 923.790373 17.061433 
L 918.177236 17.061433 
z
" clip-path="url(#p4cd6200944)" style="fill: #eff6ff; opacity: 0.45"/>
   </g>
   <g id="matplotlib.axis_1">
    <g id="xtick_1">
     <g id="line2d_1">
      <path d="M 59.367139 228.954713 
L 59.367139 17.061433 
" clip-path="url(#p4cd6200944)" style="fill: none; stroke: #eef2f7; stroke-width: 0.55; stroke-linecap: square"/>
     </g>
     <g id="line2d_2">
      <defs>
       <path id="m5eec8171eb" d="M 0 0 
L 0 3.5 
" style="stroke: #000000; stroke-width: 0.8"/>
      </defs>
      <g>
       <use xlink:href="#m5eec8171eb" x="59.367139" y="228.954713" style="stroke: #000000; stroke-width: 0.8"/>
      </g>
     </g>
     <g id="text_1">
      <!-- 40 -->
      <g transform="translate(53.640889 242.793307) scale(0.09 -0.09)">
       <defs>
        <path id="DejaVuSans-34" d="M 2419 4116 
L 825 1625 
L 2419 1625 
L 2419 4116 
z
M 2253 4666 
L 3047 4666 
L 3047 1625 
L 3713 1625 
L 3713 1100 
L 3047 1100 
L 3047 0 
L 2419 0 
L 2419 1100 
L 313 1100 
L 313 1709 
L 2253 4666 
z
" transform="scale(0.015625)"/>
        <path id="DejaVuSans-30" d="M 2034 4250 
Q 1547 4250 1301 3770 
Q 1056 3291 1056 2328 
Q 1056 1369 1301 889 
Q 1547 409 2034 409 
Q 2525 409 2770 889 
Q 3016 1369 3016 2328 
Q 3016 3291 2770 3770 
Q 2525 4250 2034 4250 
z
M 2034 4750 
Q 2819 4750 3233 4129 
Q 3647 3509 3647 2328 
Q 3647 1150 3233 529 
Q 2819 -91 2034 -91 
Q 1250 -91 836 529 
Q 422 1150 422 2328 
Q 422 3509 836 4129 
Q 1250 4750 2034 4750 
z
" transform="scale(0.015625)"/>
       </defs>
       <use xlink:href="#DejaVuSans-34"/>
       <use xlink:href="#DejaVuSans-30" transform="translate(63.623047 0)"/>
      </g>
     </g>
    </g>
    <g id="xtick_2">
     <g id="line2d_3">
      <path d="M 171.629897 228.954713 
L 171.629897 17.061433 
" clip-path="url(#p4cd6200944)" style="fill: none; stroke: #eef2f7; stroke-width: 0.55; stroke-linecap: square"/>
     </g>
     <g id="line2d_4">
      <g>
       <use xlink:href="#m5eec8171eb" x="171.629897" y="228.954713" style="stroke: #000000; stroke-width: 0.8"/>
      </g>
     </g>
     <g id="text_2">
      <!-- 60 -->
      <g transform="translate(165.903647 242.793307) scale(0.09 -0.09)">
       <defs>
        <path id="DejaVuSans-36" d="M 2113 2584 
Q 1688 2584 1439 2293 
Q 1191 2003 1191 1497 
Q 1191 994 1439 701 
Q 1688 409 2113 409 
Q 2538 409 2786 701 
Q 3034 994 3034 1497 
Q 3034 2003 2786 2293 
Q 2538 2584 2113 2584 
z
M 3366 4563 
L 3366 3988 
Q 3128 4100 2886 4159 
Q 2644 4219 2406 4219 
Q 1781 4219 1451 3797 
Q 1122 3375 1075 2522 
Q 1259 2794 1537 2939 
Q 1816 3084 2150 3084 
Q 2853 3084 3261 2657 
Q 3669 2231 3669 1497 
Q 3669 778 3244 343 
Q 2819 -91 2113 -91 
Q 1303 -91 875 529 
Q 447 1150 447 2328 
Q 447 3434 972 4092 
Q 1497 4750 2381 4750 
Q 2619 4750 2861 4703 
Q 3103 4656 3366 4563 
z
" transform="scale(0.015625)"/>
       </defs>
       <use xlink:href="#DejaVuSans-36"/>
       <use xlink:href="#DejaVuSans-30" transform="translate(63.623047 0)"/>
      </g>
     </g>
    </g>
    <g id="xtick_3">
     <g id="line2d_5">
      <path d="M 283.892655 228.954713 
L 283.892655 17.061433 
" clip-path="url(#p4cd6200944)" style="fill: none; stroke: #eef2f7; stroke-width: 0.55; stroke-linecap: square"/>
     </g>
     <g id="line2d_6">
      <g>
       <use xlink:href="#m5eec8171eb" x="283.892655" y="228.954713" style="stroke: #000000; stroke-width: 0.8"/>
      </g>
     </g>
     <g id="text_3">
      <!-- 80 -->
      <g transform="translate(278.166405 242.793307) scale(0.09 -0.09)">
       <defs>
        <path id="DejaVuSans-38" d="M 2034 2216 
Q 1584 2216 1326 1975 
Q 1069 1734 1069 1313 
Q 1069 891 1326 650 
Q 1584 409 2034 409 
Q 2484 409 2743 651 
Q 3003 894 3003 1313 
Q 3003 1734 2745 1975 
Q 2488 2216 2034 2216 
z
M 1403 2484 
Q 997 2584 770 2862 
Q 544 3141 544 3541 
Q 544 4100 942 4425 
Q 1341 4750 2034 4750 
Q 2731 4750 3128 4425 
Q 3525 4100 3525 3541 
Q 3525 3141 3298 2862 
Q 3072 2584 2669 2484 
Q 3125 2378 3379 2068 
Q 3634 1759 3634 1313 
Q 3634 634 3220 271 
Q 2806 -91 2034 -91 
Q 1263 -91 848 271 
Q 434 634 434 1313 
Q 434 1759 690 2068 
Q 947 2378 1403 2484 
z
M 1172 3481 
Q 1172 3119 1398 2916 
Q 1625 2713 2034 2713 
Q 2441 2713 2670 2916 
Q 2900 3119 2900 3481 
Q 2900 3844 2670 4047 
Q 2441 4250 2034 4250 
Q 1625 4250 1398 4047 
Q 1172 3844 1172 3481 
z
" transform="scale(0.015625)"/>
       </defs>
       <use xlink:href="#DejaVuSans-38"/>
       <use xlink:href="#DejaVuSans-30" transform="translate(63.623047 0)"/>
      </g>
     </g>
    </g>
    <g id="xtick_4">
     <g id="line2d_7">
      <path d="M 396.155412 228.954713 
L 396.155412 17.061433 
" clip-path="url(#p4cd6200944)" style="fill: none; stroke: #eef2f7; stroke-width: 0.55; stroke-linecap: square"/>
     </g>
     <g id="line2d_8">
      <g>
       <use xlink:href="#m5eec8171eb" x="396.155412" y="228.954713" style="stroke: #000000; stroke-width: 0.8"/>
      </g>
     </g>
     <g id="text_4">
      <!-- 100 -->
      <g transform="translate(387.566037 242.793307) scale(0.09 -0.09)">
       <defs>
        <path id="DejaVuSans-31" d="M 794 531 
L 1825 531 
L 1825 4091 
L 703 3866 
L 703 4441 
L 1819 4666 
L 2450 4666 
L 2450 531 
L 3481 531 
L 3481 0 
L 794 0 
L 794 531 
z
" transform="scale(0.015625)"/>
       </defs>
       <use xlink:href="#DejaVuSans-31"/>
       <use xlink:href="#DejaVuSans-30" transform="translate(63.623047 0)"/>
       <use xlink:href="#DejaVuSans-30" transform="translate(127.246094 0)"/>
      </g>
     </g>
    </g>
    <g id="xtick_5">
     <g id="line2d_9">
      <path d="M 508.41817 228.954713 
L 508.41817 17.061433 
" clip-path="url(#p4cd6200944)" style="fill: none; stroke: #eef2f7; stroke-width: 0.55; stroke-linecap: square"/>
     </g>
     <g id="line2d_10">
      <g>
       <use xlink:href="#m5eec8171eb" x="508.41817" y="228.954713" style="stroke: #000000; stroke-width: 0.8"/>
      </g>
     </g>
     <g id="text_5">
      <!-- 120 -->
      <g transform="translate(499.828795 242.793307) scale(0.09 -0.09)">
       <defs>
        <path id="DejaVuSans-32" d="M 1228 531 
L 3431 531 
L 3431 0 
L 469 0 
L 469 531 
Q 828 903 1448 1529 
Q 2069 2156 2228 2338 
Q 2531 2678 2651 2914 
Q 2772 3150 2772 3378 
Q 2772 3750 2511 3984 
Q 2250 4219 1831 4219 
Q 1534 4219 1204 4116 
Q 875 4013 500 3803 
L 500 4441 
Q 881 4594 1212 4672 
Q 1544 4750 1819 4750 
Q 2544 4750 2975 4387 
Q 3406 4025 3406 3419 
Q 3406 3131 3298 2873 
Q 3191 2616 2906 2266 
Q 2828 2175 2409 1742 
Q 1991 1309 1228 531 
z
" transform="scale(0.015625)"/>
       </defs>
       <use xlink:href="#DejaVuSans-31"/>
       <use xlink:href="#DejaVuSans-32" transform="translate(63.623047 0)"/>
       <use xlink:href="#DejaVuSans-30" transform="translate(127.246094 0)"/>
      </g>
     </g>
    </g>
    <g id="xtick_6">
     <g id="line2d_11">
      <path d="M 620.680928 228.954713 
L 620.680928 17.061433 
" clip-path="url(#p4cd6200944)" style="fill: none; stroke: #eef2f7; stroke-width: 0.55; stroke-linecap: square"/>
     </g>
     <g id="line2d_12">
      <g>
       <use xlink:href="#m5eec8171eb" x="620.680928" y="228.954713" style="stroke: #000000; stroke-width: 0.8"/>
      </g>
     </g>
     <g id="text_6">
      <!-- 140 -->
      <g transform="translate(612.091553 242.793307) scale(0.09 -0.09)">
       <use xlink:href="#DejaVuSans-31"/>
       <use xlink:href="#DejaVuSans-34" transform="translate(63.623047 0)"/>
       <use xlink:href="#DejaVuSans-30" transform="translate(127.246094 0)"/>
      </g>
     </g>
    </g>
    <g id="xtick_7">
     <g id="line2d_13">
      <path d="M 732.943685 228.954713 
L 732.943685 17.061433 
" clip-path="url(#p4cd6200944)" style="fill: none; stroke: #eef2f7; stroke-width: 0.55; stroke-linecap: square"/>
     </g>
     <g id="line2d_14">
      <g>
       <use xlink:href="#m5eec8171eb" x="732.943685" y="228.954713" style="stroke: #000000; stroke-width: 0.8"/>
      </g>
     </g>
     <g id="text_7">
      <!-- 160 -->
      <g transform="translate(724.35431 242.793307) scale(0.09 -0.09)">
       <use xlink:href="#DejaVuSans-31"/>
       <use xlink:href="#DejaVuSans-36" transform="translate(63.623047 0)"/>
       <use xlink:href="#DejaVuSans-30" transform="translate(127.246094 0)"/>
      </g>
     </g>
    </g>
    <g id="xtick_8">
     <g id="line2d_15">
      <path d="M 845.206443 228.954713 
L 845.206443 17.061433 
" clip-path="url(#p4cd6200944)" style="fill: none; stroke: #eef2f7; stroke-width: 0.55; stroke-linecap: square"/>
     </g>
     <g id="line2d_16">
      <g>
       <use xlink:href="#m5eec8171eb" x="845.206443" y="228.954713" style="stroke: #000000; stroke-width: 0.8"/>
      </g>
     </g>
     <g id="text_8">
      <!-- 180 -->
      <g transform="translate(836.617068 242.793307) scale(0.09 -0.09)">
       <use xlink:href="#DejaVuSans-31"/>
       <use xlink:href="#DejaVuSans-38" transform="translate(63.623047 0)"/>
       <use xlink:href="#DejaVuSans-30" transform="translate(127.246094 0)"/>
      </g>
     </g>
    </g>
    <g id="text_9">
     <!-- Minutes since session start -->
     <g transform="translate(421.182344 256.263463) scale(0.1 -0.1)">
      <defs>
       <path id="DejaVuSans-4d" d="M 628 4666 
L 1569 4666 
L 2759 1491 
L 3956 4666 
L 4897 4666 
L 4897 0 
L 4281 0 
L 4281 4097 
L 3078 897 
L 2444 897 
L 1241 4097 
L 1241 0 
L 628 0 
L 628 4666 
z
" transform="scale(0.015625)"/>
       <path id="DejaVuSans-69" d="M 603 3500 
L 1178 3500 
L 1178 0 
L 603 0 
L 603 3500 
z
M 603 4863 
L 1178 4863 
L 1178 4134 
L 603 4134 
L 603 4863 
z
" transform="scale(0.015625)"/>
       <path id="DejaVuSans-6e" d="M 3513 2113 
L 3513 0 
L 2938 0 
L 2938 2094 
Q 2938 2591 2744 2837 
Q 2550 3084 2163 3084 
Q 1697 3084 1428 2787 
Q 1159 2491 1159 1978 
L 1159 0 
L 581 0 
L 581 3500 
L 1159 3500 
L 1159 2956 
Q 1366 3272 1645 3428 
Q 1925 3584 2291 3584 
Q 2894 3584 3203 3211 
Q 3513 2838 3513 2113 
z
" transform="scale(0.015625)"/>
       <path id="DejaVuSans-75" d="M 544 1381 
L 544 3500 
L 1119 3500 
L 1119 1403 
Q 1119 906 1312 657 
Q 1506 409 1894 409 
Q 2359 409 2629 706 
Q 2900 1003 2900 1516 
L 2900 3500 
L 3475 3500 
L 3475 0 
L 2900 0 
L 2900 538 
Q 2691 219 2414 64 
Q 2138 -91 1772 -91 
Q 1169 -91 856 284 
Q 544 659 544 1381 
z
M 1991 3584 
L 1991 3584 
z
" transform="scale(0.015625)"/>
       <path id="DejaVuSans-74" d="M 1172 4494 
L 1172 3500 
L 2356 3500 
L 2356 3053 
L 1172 3053 
L 1172 1153 
Q 1172 725 1289 603 
Q 1406 481 1766 481 
L 2356 481 
L 2356 0 
L 1766 0 
Q 1100 0 847 248 
Q 594 497 594 1153 
L 594 3053 
L 172 3053 
L 172 3500 
L 594 3500 
L 594 4494 
L 1172 4494 
z
" transform="scale(0.015625)"/>
       <path id="DejaVuSans-65" d="M 3597 1894 
L 3597 1613 
L 953 1613 
Q 991 1019 1311 708 
Q 1631 397 2203 397 
Q 2534 397 2845 478 
Q 3156 559 3463 722 
L 3463 178 
Q 3153 47 2828 -22 
Q 2503 -91 2169 -91 
Q 1331 -91 842 396 
Q 353 884 353 1716 
Q 353 2575 817 3079 
Q 1281 3584 2069 3584 
Q 2775 3584 3186 3129 
Q 3597 2675 3597 1894 
z
M 3022 2063 
Q 3016 2534 2758 2815 
Q 2500 3097 2075 3097 
Q 1594 3097 1305 2825 
Q 1016 2553 972 2059 
L 3022 2063 
z
" transform="scale(0.015625)"/>
       <path id="DejaVuSans-73" d="M 2834 3397 
L 2834 2853 
Q 2591 2978 2328 3040 
Q 2066 3103 1784 3103 
Q 1356 3103 1142 2972 
Q 928 2841 928 2578 
Q 928 2378 1081 2264 
Q 1234 2150 1697 2047 
L 1894 2003 
Q 2506 1872 2764 1633 
Q 3022 1394 3022 966 
Q 3022 478 2636 193 
Q 2250 -91 1575 -91 
Q 1294 -91 989 -36 
Q 684 19 347 128 
L 347 722 
Q 666 556 975 473 
Q 1284 391 1588 391 
Q 1994 391 2212 530 
Q 2431 669 2431 922 
Q 2431 1156 2273 1281 
Q 2116 1406 1581 1522 
L 1381 1569 
Q 847 1681 609 1914 
Q 372 2147 372 2553 
Q 372 3047 722 3315 
Q 1072 3584 1716 3584 
Q 2034 3584 2315 3537 
Q 2597 3491 2834 3397 
z
" transform="scale(0.015625)"/>
       <path id="DejaVuSans-20" transform="scale(0.015625)"/>
       <path id="DejaVuSans-63" d="M 3122 3366 
L 3122 2828 
Q 2878 2963 2633 3030 
Q 2388 3097 2138 3097 
Q 1578 3097 1268 2742 
Q 959 2388 959 1747 
Q 959 1106 1268 751 
Q 1578 397 2138 397 
Q 2388 397 2633 464 
Q 2878 531 3122 666 
L 3122 134 
Q 2881 22 2623 -34 
Q 2366 -91 2075 -91 
Q 1284 -91 818 406 
Q 353 903 353 1747 
Q 353 2603 823 3093 
Q 1294 3584 2113 3584 
Q 2378 3584 2631 3529 
Q 2884 3475 3122 3366 
z
" transform="scale(0.015625)"/>
       <path id="DejaVuSans-6f" d="M 1959 3097 
Q 1497 3097 1228 2736 
Q 959 2375 959 1747 
Q 959 1119 1226 758 
Q 1494 397 1959 397 
Q 2419 397 2687 759 
Q 2956 1122 2956 1747 
Q 2956 2369 2687 2733 
Q 2419 3097 1959 3097 
z
M 1959 3584 
Q 2709 3584 3137 3096 
Q 3566 2609 3566 1747 
Q 3566 888 3137 398 
Q 2709 -91 1959 -91 
Q 1206 -91 779 398 
Q 353 888 353 1747 
Q 353 2609 779 3096 
Q 1206 3584 1959 3584 
z
" transform="scale(0.015625)"/>
       <path id="DejaVuSans-61" d="M 2194 1759 
Q 1497 1759 1228 1600 
Q 959 1441 959 1056 
Q 959 750 1161 570 
Q 1363 391 1709 391 
Q 2188 391 2477 730 
Q 2766 1069 2766 1631 
L 2766 1759 
L 2194 1759 
z
M 3341 1997 
L 3341 0 
L 2766 0 
L 2766 531 
Q 2569 213 2275 61 
Q 1981 -91 1556 -91 
Q 1019 -91 701 211 
Q 384 513 384 1019 
Q 384 1609 779 1909 
Q 1175 2209 1959 2209 
L 2766 2209 
L 2766 2266 
Q 2766 2663 2505 2880 
Q 2244 3097 1772 3097 
Q 1472 3097 1187 3025 
Q 903 2953 641 2809 
L 641 3341 
Q 956 3463 1253 3523 
Q 1550 3584 1831 3584 
Q 2591 3584 2966 3190 
Q 3341 2797 3341 1997 
z
" transform="scale(0.015625)"/>
       <path id="DejaVuSans-72" d="M 2631 2963 
Q 2534 3019 2420 3045 
Q 2306 3072 2169 3072 
Q 1681 3072 1420 2755 
Q 1159 2438 1159 1844 
L 1159 0 
L 581 0 
L 581 3500 
L 1159 3500 
L 1159 2956 
Q 1341 3275 1631 3429 
Q 1922 3584 2338 3584 
Q 2397 3584 2469 3576 
Q 2541 3569 2628 3553 
L 2631 2963 
z
" transform="scale(0.015625)"/>
      </defs>
      <use xlink:href="#DejaVuSans-4d"/>
      <use xlink:href="#DejaVuSans-69" transform="translate(86.279297 0)"/>
      <use xlink:href="#DejaVuSans-6e" transform="translate(114.0625 0)"/>
      <use xlink:href="#DejaVuSans-75" transform="translate(177.441406 0)"/>
      <use xlink:href="#DejaVuSans-74" transform="translate(240.820312 0)"/>
      <use xlink:href="#DejaVuSans-65" transform="translate(280.029297 0)"/>
      <use xlink:href="#DejaVuSans-73" transform="translate(341.552734 0)"/>
      <use xlink:href="#DejaVuSans-20" transform="translate(393.652344 0)"/>
      <use xlink:href="#DejaVuSans-73" transform="translate(425.439453 0)"/>
      <use xlink:href="#DejaVuSans-69" transform="translate(477.539062 0)"/>
      <use xlink:href="#DejaVuSans-6e" transform="translate(505.322266 0)"/>
      <use xlink:href="#DejaVuSans-63" transform="translate(568.701172 0)"/>
      <use xlink:href="#DejaVuSans-65" transform="translate(623.681641 0)"/>
      <use xlink:href="#DejaVuSans-20" transform="translate(685.205078 0)"/>
      <use xlink:href="#DejaVuSans-73" transform="translate(716.992188 0)"/>
      <use xlink:href="#DejaVuSans-65" transform="translate(769.091797 0)"/>
      <use xlink:href="#DejaVuSans-73" transform="translate(830.615234 0)"/>
      <use xlink:href="#DejaVuSans-73" transform="translate(882.714844 0)"/>
      <use xlink:href="#DejaVuSans-69" transform="translate(934.814453 0)"/>
      <use xlink:href="#DejaVuSans-6f" transform="translate(962.597656 0)"/>
      <use xlink:href="#DejaVuSans-6e" transform="translate(1023.779297 0)"/>
      <use xlink:href="#DejaVuSans-20" transform="translate(1087.158203 0)"/>
      <use xlink:href="#DejaVuSans-73" transform="translate(1118.945312 0)"/>
      <use xlink:href="#DejaVuSans-74" transform="translate(1171.044922 0)"/>
      <use xlink:href="#DejaVuSans-61" transform="translate(1210.253906 0)"/>
      <use xlink:href="#DejaVuSans-72" transform="translate(1271.533203 0)"/>
      <use xlink:href="#DejaVuSans-74" transform="translate(1312.646484 0)"/>
     </g>
    </g>
   </g>
   <g id="matplotlib.axis_2">
    <g id="ytick_1">
     <g id="line2d_17">
      <path d="M 42.190938 219.3232 
L 935.353437 219.3232 
" clip-path="url(#p4cd6200944)" style="fill: none; stroke: #eef2f7; stroke-opacity: 0.25; stroke-width: 0.55; stroke-linecap: square"/>
     </g>
     <g id="line2d_18">
      <defs>
       <path id="m9daf93527e" d="M 0 0 
L -3.5 0 
" style="stroke: #000000; stroke-width: 0.8"/>
      </defs>
      <g>
       <use xlink:href="#m9daf93527e" x="42.190938" y="219.3232" style="stroke: #000000; stroke-width: 0.8"/>
      </g>
     </g>
     <g id="text_10">
      <!-- 0.0 -->
      <g transform="translate(20.878125 222.742497) scale(0.09 -0.09)">
       <defs>
        <path id="DejaVuSans-2e" d="M 684 794 
L 1344 794 
L 1344 0 
L 684 0 
L 684 794 
z
" transform="scale(0.015625)"/>
       </defs>
       <use xlink:href="#DejaVuSans-30"/>
       <use xlink:href="#DejaVuSans-2e" transform="translate(63.623047 0)"/>
       <use xlink:href="#DejaVuSans-30" transform="translate(95.410156 0)"/>
      </g>
     </g>
    </g>
    <g id="ytick_2">
     <g id="line2d_19">
      <path d="M 42.190938 190.092509 
L 935.353437 190.092509 
" clip-path="url(#p4cd6200944)" style="fill: none; stroke: #eef2f7; stroke-opacity: 0.25; stroke-width: 0.55; stroke-linecap: square"/>
     </g>
     <g id="line2d_20">
      <g>
       <use xlink:href="#m9daf93527e" x="42.190938" y="190.092509" style="stroke: #000000; stroke-width: 0.8"/>
      </g>
     </g>
     <g id="text_11">
      <!-- 0.1 -->
      <g transform="translate(20.878125 193.511806) scale(0.09 -0.09)">
       <use xlink:href="#DejaVuSans-30"/>
       <use xlink:href="#DejaVuSans-2e" transform="translate(63.623047 0)"/>
       <use xlink:href="#DejaVuSans-31" transform="translate(95.410156 0)"/>
      </g>
     </g>
    </g>
    <g id="ytick_3">
     <g id="line2d_21">
      <path d="M 42.190938 160.861818 
L 935.353437 160.861818 
" clip-path="url(#p4cd6200944)" style="fill: none; stroke: #eef2f7; stroke-opacity: 0.25; stroke-width: 0.55; stroke-linecap: square"/>
     </g>
     <g id="line2d_22">
      <g>
       <use xlink:href="#m9daf93527e" x="42.190938" y="160.861818" style="stroke: #000000; stroke-width: 0.8"/>
      </g>
     </g>
     <g id="text_12">
      <!-- 0.2 -->
      <g transform="translate(20.878125 164.281115) scale(0.09 -0.09)">
       <use xlink:href="#DejaVuSans-30"/>
       <use xlink:href="#DejaVuSans-2e" transform="translate(63.623047 0)"/>
       <use xlink:href="#DejaVuSans-32" transform="translate(95.410156 0)"/>
      </g>
     </g>
    </g>
    <g id="ytick_4">
     <g id="line2d_23">
      <path d="M 42.190938 131.631127 
L 935.353437 131.631127 
" clip-path="url(#p4cd6200944)" style="fill: none; stroke: #eef2f7; stroke-opacity: 0.25; stroke-width: 0.55; stroke-linecap: square"/>
     </g>
     <g id="line2d_24">
      <g>
       <use xlink:href="#m9daf93527e" x="42.190938" y="131.631127" style="stroke: #000000; stroke-width: 0.8"/>
      </g>
     </g>
     <g id="text_13">
      <!-- 0.3 -->
      <g transform="translate(20.878125 135.050424) scale(0.09 -0.09)">
       <defs>
        <path id="DejaVuSans-33" d="M 2597 2516 
Q 3050 2419 3304 2112 
Q 3559 1806 3559 1356 
Q 3559 666 3084 287 
Q 2609 -91 1734 -91 
Q 1441 -91 1130 -33 
Q 819 25 488 141 
L 488 750 
Q 750 597 1062 519 
Q 1375 441 1716 441 
Q 2309 441 2620 675 
Q 2931 909 2931 1356 
Q 2931 1769 2642 2001 
Q 2353 2234 1838 2234 
L 1294 2234 
L 1294 2753 
L 1863 2753 
Q 2328 2753 2575 2939 
Q 2822 3125 2822 3475 
Q 2822 3834 2567 4026 
Q 2313 4219 1838 4219 
Q 1578 4219 1281 4162 
Q 984 4106 628 3988 
L 628 4550 
Q 988 4650 1302 4700 
Q 1616 4750 1894 4750 
Q 2613 4750 3031 4423 
Q 3450 4097 3450 3541 
Q 3450 3153 3228 2886 
Q 3006 2619 2597 2516 
z
" transform="scale(0.015625)"/>
       </defs>
       <use xlink:href="#DejaVuSans-30"/>
       <use xlink:href="#DejaVuSans-2e" transform="translate(63.623047 0)"/>
       <use xlink:href="#DejaVuSans-33" transform="translate(95.410156 0)"/>
      </g>
     </g>
    </g>
    <g id="ytick_5">
     <g id="line2d_25">
      <path d="M 42.190938 102.400436 
L 935.353437 102.400436 
" clip-path="url(#p4cd6200944)" style="fill: none; stroke: #eef2f7; stroke-opacity: 0.25; stroke-width: 0.55; stroke-linecap: square"/>
     </g>
     <g id="line2d_26">
      <g>
       <use xlink:href="#m9daf93527e" x="42.190938" y="102.400436" style="stroke: #000000; stroke-width: 0.8"/>
      </g>
     </g>
     <g id="text_14">
      <!-- 0.4 -->
      <g transform="translate(20.878125 105.819732) scale(0.09 -0.09)">
       <use xlink:href="#DejaVuSans-30"/>
       <use xlink:href="#DejaVuSans-2e" transform="translate(63.623047 0)"/>
       <use xlink:href="#DejaVuSans-34" transform="translate(95.410156 0)"/>
      </g>
     </g>
    </g>
    <g id="ytick_6">
     <g id="line2d_27">
      <path d="M 42.190938 73.169744 
L 935.353437 73.169744 
" clip-path="url(#p4cd6200944)" style="fill: none; stroke: #eef2f7; stroke-opacity: 0.25; stroke-width: 0.55; stroke-linecap: square"/>
     </g>
     <g id="line2d_28">
      <g>
       <use xlink:href="#m9daf93527e" x="42.190938" y="73.169744" style="stroke: #000000; stroke-width: 0.8"/>
      </g>
     </g>
     <g id="text_15">
      <!-- 0.5 -->
      <g transform="translate(20.878125 76.589041) scale(0.09 -0.09)">
       <defs>
        <path id="DejaVuSans-35" d="M 691 4666 
L 3169 4666 
L 3169 4134 
L 1269 4134 
L 1269 2991 
Q 1406 3038 1543 3061 
Q 1681 3084 1819 3084 
Q 2600 3084 3056 2656 
Q 3513 2228 3513 1497 
Q 3513 744 3044 326 
Q 2575 -91 1722 -91 
Q 1428 -91 1123 -41 
Q 819 9 494 109 
L 494 744 
Q 775 591 1075 516 
Q 1375 441 1709 441 
Q 2250 441 2565 725 
Q 2881 1009 2881 1497 
Q 2881 1984 2565 2268 
Q 2250 2553 1709 2553 
Q 1456 2553 1204 2497 
Q 953 2441 691 2322 
L 691 4666 
z
" transform="scale(0.015625)"/>
       </defs>
       <use xlink:href="#DejaVuSans-30"/>
       <use xlink:href="#DejaVuSans-2e" transform="translate(63.623047 0)"/>
       <use xlink:href="#DejaVuSans-35" transform="translate(95.410156 0)"/>
      </g>
     </g>
    </g>
    <g id="ytick_7">
     <g id="line2d_29">
      <path d="M 42.190938 43.939053 
L 935.353437 43.939053 
" clip-path="url(#p4cd6200944)" style="fill: none; stroke: #eef2f7; stroke-opacity: 0.25; stroke-width: 0.55; stroke-linecap: square"/>
     </g>
     <g id="line2d_30">
      <g>
       <use xlink:href="#m9daf93527e" x="42.190938" y="43.939053" style="stroke: #000000; stroke-width: 0.8"/>
      </g>
     </g>
     <g id="text_16">
      <!-- 0.6 -->
      <g transform="translate(20.878125 47.35835) scale(0.09 -0.09)">
       <use xlink:href="#DejaVuSans-30"/>
       <use xlink:href="#DejaVuSans-2e" transform="translate(63.623047 0)"/>
       <use xlink:href="#DejaVuSans-36" transform="translate(95.410156 0)"/>
      </g>
     </g>
    </g>
    <g id="text_17">
     <!-- Velocity (m/s) -->
     <g transform="translate(14.798438 157.273698) rotate(-90) scale(0.1 -0.1)">
      <defs>
       <path id="DejaVuSans-56" d="M 1831 0 
L 50 4666 
L 709 4666 
L 2188 738 
L 3669 4666 
L 4325 4666 
L 2547 0 
L 1831 0 
z
" transform="scale(0.015625)"/>
       <path id="DejaVuSans-6c" d="M 603 4863 
L 1178 4863 
L 1178 0 
L 603 0 
L 603 4863 
z
" transform="scale(0.015625)"/>
       <path id="DejaVuSans-79" d="M 2059 -325 
Q 1816 -950 1584 -1140 
Q 1353 -1331 966 -1331 
L 506 -1331 
L 506 -850 
L 844 -850 
Q 1081 -850 1212 -737 
Q 1344 -625 1503 -206 
L 1606 56 
L 191 3500 
L 800 3500 
L 1894 763 
L 2988 3500 
L 3597 3500 
L 2059 -325 
z
" transform="scale(0.015625)"/>
       <path id="DejaVuSans-28" d="M 1984 4856 
Q 1566 4138 1362 3434 
Q 1159 2731 1159 2009 
Q 1159 1288 1364 580 
Q 1569 -128 1984 -844 
L 1484 -844 
Q 1016 -109 783 600 
Q 550 1309 550 2009 
Q 550 2706 781 3412 
Q 1013 4119 1484 4856 
L 1984 4856 
z
" transform="scale(0.015625)"/>
       <path id="DejaVuSans-6d" d="M 3328 2828 
Q 3544 3216 3844 3400 
Q 4144 3584 4550 3584 
Q 5097 3584 5394 3201 
Q 5691 2819 5691 2113 
L 5691 0 
L 5113 0 
L 5113 2094 
Q 5113 2597 4934 2840 
Q 4756 3084 4391 3084 
Q 3944 3084 3684 2787 
Q 3425 2491 3425 1978 
L 3425 0 
L 2847 0 
L 2847 2094 
Q 2847 2600 2669 2842 
Q 2491 3084 2119 3084 
Q 1678 3084 1418 2786 
Q 1159 2488 1159 1978 
L 1159 0 
L 581 0 
L 581 3500 
L 1159 3500 
L 1159 2956 
Q 1356 3278 1631 3431 
Q 1906 3584 2284 3584 
Q 2666 3584 2933 3390 
Q 3200 3197 3328 2828 
z
" transform="scale(0.015625)"/>
       <path id="DejaVuSans-2f" d="M 1625 4666 
L 2156 4666 
L 531 -594 
L 0 -594 
L 1625 4666 
z
" transform="scale(0.015625)"/>
       <path id="DejaVuSans-29" d="M 513 4856 
L 1013 4856 
Q 1481 4119 1714 3412 
Q 1947 2706 1947 2009 
Q 1947 1309 1714 600 
Q 1481 -109 1013 -844 
L 513 -844 
Q 928 -128 1133 580 
Q 1338 1288 1338 2009 
Q 1338 2731 1133 3434 
Q 928 4138 513 4856 
z
" transform="scale(0.015625)"/>
      </defs>
      <use xlink:href="#DejaVuSans-56"/>
      <use xlink:href="#DejaVuSans-65" transform="translate(60.658203 0)"/>
      <use xlink:href="#DejaVuSans-6c" transform="translate(122.181641 0)"/>
      <use xlink:href="#DejaVuSans-6f" transform="translate(149.964844 0)"/>
      <use xlink:href="#DejaVuSans-63" transform="translate(211.146484 0)"/>
      <use xlink:href="#DejaVuSans-69" transform="translate(266.126953 0)"/>
      <use xlink:href="#DejaVuSans-74" transform="translate(293.910156 0)"/>
      <use xlink:href="#DejaVuSans-79" transform="translate(333.119141 0)"/>
      <use xlink:href="#DejaVuSans-20" transform="translate(392.298828 0)"/>
      <use xlink:href="#DejaVuSans-28" transform="translate(424.085938 0)"/>
      <use xlink:href="#DejaVuSans-6d" transform="translate(463.099609 0)"/>
      <use xlink:href="#DejaVuSans-2f" transform="translate(560.511719 0)"/>
      <use xlink:href="#DejaVuSans-73" transform="translate(594.203125 0)"/>
      <use xlink:href="#DejaVuSans-29" transform="translate(646.302734 0)"/>
     </g>
    </g>
   </g>
   <g id="line2d_31">
    <path d="M 59.367139 201.492478 
L 64.980277 207.338617 
L 70.593415 205.292468 
L 81.819691 201.784785 
L 87.432829 195.938647 
L 93.045967 204.123241 
L 104.272242 201.200172 
L 109.88538 204.415548 
L 115.498518 195.64634 
L 121.111656 205.584775 
L 123.918225 203.538627 
L 126.724794 201.200172 
L 132.337932 214.938596 
L 137.95107 206.754003 
L 143.564208 201.492478 
L 149.177346 203.830934 
L 154.790483 204.415548 
L 160.403621 196.523261 
L 166.016759 201.492478 
L 171.629897 204.123241 
L 177.243035 200.615558 
L 182.856173 195.061726 
L 188.469311 187.754054 
L 199.695587 200.323251 
L 205.308724 202.954013 
L 210.921862 203.24632 
L 216.535 201.200172 
L 222.148138 200.323251 
L 227.761276 193.015578 
L 233.374414 204.415548 
L 238.987552 207.04631 
L 244.60069 202.077092 
L 250.213827 202.661706 
L 255.826965 200.323251 
L 261.440103 199.154023 
L 267.053241 198.569409 
L 272.666379 206.461696 
L 278.279517 202.369399 
L 283.892655 212.892448 
L 289.505793 204.123241 
L 295.118931 202.954013 
L 300.732068 200.615558 
L 306.345206 200.615558 
L 311.958344 204.415548 
L 317.571482 199.44633 
L 323.18462 200.615558 
L 328.797758 206.461696 
L 334.410896 200.907865 
L 340.024034 201.784785 
L 345.637171 209.677072 
L 351.250309 200.030944 
L 356.863447 202.077092 
L 362.476585 208.215537 
L 368.089723 208.800151 
L 373.702861 206.754003 
L 379.315999 202.661706 
L 384.929137 202.954013 
L 396.155412 201.200172 
L 401.76855 200.907865 
L 407.381688 203.24632 
L 412.994826 203.830934 
L 418.607964 198.569409 
L 424.221102 203.24632 
L 429.83424 201.492478 
L 435.447378 205.584775 
L 438.253947 205.584775 
L 441.060515 205.292468 
L 446.673653 217.277052 
L 452.286791 204.415548 
L 457.899929 200.907865 
L 463.513067 202.369399 
L 469.126205 205.292468 
L 474.739343 205.292468 
L 480.352481 206.461696 
L 485.965619 204.415548 
L 491.578756 193.892499 
L 497.191894 180.446381 
L 502.805032 188.630974 
L 508.41817 203.24632 
L 519.644446 191.554043 
L 525.257584 199.44633 
L 530.870722 195.64634 
L 536.48386 190.96943 
L 542.096997 191.84635 
L 547.710135 188.630974 
L 553.323273 212.600141 
L 558.936411 213.477062 
L 564.549549 202.954013 
L 570.162687 197.984796 
L 572.969256 202.077092 
L 575.775825 205.877082 
L 581.388963 205.000161 
L 587.0021 200.615558 
L 592.615238 204.123241 
L 598.228376 208.800151 
L 603.841514 201.784785 
L 609.454652 206.461696 
L 615.06779 205.000161 
L 620.680928 205.584775 
L 626.294066 211.72322 
L 631.907204 202.077092 
L 637.520341 206.754003 
L 643.133479 200.323251 
L 648.746617 208.215537 
L 654.359755 205.877082 
L 659.972893 200.907865 
L 665.586031 208.507844 
L 671.199169 208.507844 
L 676.812307 210.553993 
L 682.425444 203.830934 
L 688.038582 203.24632 
L 693.65172 200.907865 
L 699.264858 203.538627 
L 710.491134 207.04631 
L 716.104272 202.369399 
L 721.71741 201.784785 
L 727.330548 211.430913 
L 732.943685 197.984796 
L 738.556823 207.923231 
L 744.169961 202.954013 
L 749.783099 205.584775 
L 752.589668 206.169389 
L 755.396237 206.461696 
L 761.009375 213.184755 
L 766.622513 200.615558 
L 772.235651 210.261686 
L 777.848788 198.569409 
L 783.461926 204.415548 
L 789.075064 202.954013 
L 794.688202 207.04631 
L 800.30134 207.04631 
L 805.914478 192.138657 
L 811.527616 197.692489 
L 817.140754 202.369399 
L 822.753892 194.184806 
L 828.367029 184.830985 
L 839.593305 181.323302 
L 845.206443 197.107875 
L 850.819581 191.554043 
L 856.432719 192.430964 
L 862.045857 205.292468 
L 867.658995 205.292468 
L 873.272133 207.04631 
L 878.88527 204.123241 
L 884.498408 219.030893 
L 890.111546 198.277102 
L 895.724684 204.415548 
L 901.337822 204.415548 
L 906.95096 201.492478 
L 912.564098 202.369399 
L 918.177236 207.923231 
L 918.177236 207.923231 
" clip-path="url(#p4cd6200944)" style="fill: none; stroke: #b8e3b2; stroke-opacity: 0.95; stroke-width: 1.3; stroke-linecap: square"/>
   </g>
   <g id="line2d_32">
    <path d="M 59.367139 203.830934 
L 64.980277 202.661706 
L 70.593415 207.338617 
L 76.206553 206.754003 
L 81.819691 206.461696 
L 87.432829 197.400182 
L 93.045967 197.692489 
L 104.272242 204.707855 
L 109.88538 208.800151 
L 115.498518 204.415548 
L 121.111656 206.169389 
L 123.918225 205.292468 
L 126.724794 204.707855 
L 132.337932 204.415548 
L 137.95107 200.615558 
L 143.564208 195.354033 
L 149.177346 202.954013 
L 154.790483 202.954013 
L 160.403621 204.123241 
L 166.016759 206.169389 
L 171.629897 203.24632 
L 177.243035 182.492529 
L 182.856173 197.984796 
L 188.469311 197.984796 
L 199.695587 187.16944 
L 205.308724 191.261737 
L 210.921862 195.64634 
L 216.535 185.415598 
L 222.148138 194.184806 
L 227.761276 191.84635 
L 233.374414 200.907865 
L 238.987552 204.123241 
L 244.60069 195.354033 
L 250.213827 197.984796 
L 255.826965 205.584775 
L 261.440103 205.877082 
L 267.053241 210.553993 
L 272.666379 207.04631 
L 278.279517 203.24632 
L 283.892655 202.077092 
L 289.505793 208.215537 
L 295.118931 198.277102 
L 300.732068 201.784785 
L 306.345206 197.400182 
L 311.958344 200.615558 
L 317.571482 201.492478 
L 323.18462 203.538627 
L 328.797758 201.492478 
L 334.410896 205.877082 
L 340.024034 202.661706 
L 345.637171 203.538627 
L 351.250309 197.984796 
L 356.863447 204.123241 
L 362.476585 200.323251 
L 368.089723 203.830934 
L 373.702861 204.707855 
L 379.315999 202.954013 
L 384.929137 199.44633 
L 396.155412 206.754003 
L 401.76855 204.415548 
L 407.381688 200.323251 
L 412.994826 203.24632 
L 418.607964 200.323251 
L 424.221102 197.692489 
L 429.83424 198.277102 
L 435.447378 203.830934 
L 438.253947 199.44633 
L 441.060515 195.354033 
L 446.673653 194.76942 
L 452.286791 198.277102 
L 457.899929 207.04631 
L 463.513067 200.030944 
L 469.126205 202.661706 
L 474.739343 197.400182 
L 480.352481 200.030944 
L 485.965619 200.615558 
L 491.578756 196.523261 
L 497.191894 186.584826 
L 502.805032 196.230954 
L 508.41817 192.723271 
L 519.644446 195.938647 
L 525.257584 195.061726 
L 530.870722 195.061726 
L 536.48386 192.138657 
L 542.096997 190.96943 
L 547.710135 201.200172 
L 553.323273 205.877082 
L 558.936411 204.415548 
L 564.549549 196.230954 
L 570.162687 205.877082 
L 572.969256 202.954013 
L 575.775825 199.738637 
L 581.388963 207.04631 
L 592.615238 200.615558 
L 598.228376 204.415548 
L 603.841514 201.492478 
L 609.454652 206.169389 
L 615.06779 206.169389 
L 620.680928 205.877082 
L 626.294066 211.72322 
L 631.907204 203.830934 
L 637.520341 208.507844 
L 643.133479 211.430913 
L 648.746617 205.877082 
L 654.359755 206.169389 
L 659.972893 204.415548 
L 665.586031 212.892448 
L 671.199169 208.215537 
L 676.812307 207.04631 
L 682.425444 205.000161 
L 688.038582 202.661706 
L 693.65172 204.707855 
L 699.264858 207.923231 
L 710.491134 202.077092 
L 716.104272 208.507844 
L 721.71741 201.200172 
L 727.330548 200.030944 
L 732.943685 202.661706 
L 738.556823 202.369399 
L 744.169961 205.000161 
L 749.783099 202.077092 
L 755.396237 201.492478 
L 761.009375 200.323251 
L 766.622513 187.754054 
L 772.235651 205.877082 
L 777.848788 207.630924 
L 783.461926 207.630924 
L 789.075064 202.661706 
L 794.688202 204.707855 
L 800.30134 201.492478 
L 805.914478 197.107875 
L 811.527616 195.64634 
L 817.140754 198.569409 
L 828.367029 194.477113 
L 839.593305 194.184806 
L 845.206443 189.800202 
L 850.819581 201.492478 
L 856.432719 198.861716 
L 862.045857 204.707855 
L 867.658995 209.384765 
L 873.272133 202.661706 
L 878.88527 200.907865 
L 884.498408 211.138607 
L 890.111546 207.630924 
L 895.724684 213.769369 
L 901.337822 205.584775 
L 906.95096 204.707855 
L 912.564098 209.677072 
L 918.177236 202.954013 
L 918.177236 202.954013 
" clip-path="url(#p4cd6200944)" style="fill: none; stroke: #98d594; stroke-opacity: 0.95; stroke-width: 1.3; stroke-linecap: square"/>
   </g>
   <g id="line2d_33">
    <path d="M 59.367139 210.261686 
L 64.980277 207.04631 
L 70.593415 208.215537 
L 76.206553 212.307834 
L 81.819691 216.984745 
L 87.432829 60.30824 
L 93.045967 96.554297 
L 104.272242 92.462001 
L 109.88538 91.292773 
L 115.498518 61.477468 
L 121.111656 137.477265 
L 126.724794 193.600192 
L 132.337932 208.507844 
L 137.95107 210.8463 
L 143.564208 206.461696 
L 149.177346 218.446279 
L 154.790483 213.184755 
L 160.403621 210.8463 
L 166.016759 213.184755 
L 171.629897 217.277052 
L 177.243035 60.30824 
L 182.856173 99.18506 
L 188.469311 50.954419 
L 199.695587 68.492834 
L 205.308724 80.18511 
L 210.921862 45.692895 
L 216.535 64.985151 
L 222.148138 49.200578 
L 227.761276 80.769724 
L 233.374414 192.430964 
L 238.987552 210.553993 
L 244.60069 206.754003 
L 250.213827 209.384765 
L 255.826965 213.477062 
L 261.440103 208.215537 
L 264.246672 210.553993 
L 267.053241 213.184755 
L 272.666379 210.8463 
L 278.279517 208.215537 
L 283.892655 207.338617 
L 289.505793 213.769369 
L 295.118931 215.52321 
L 300.732068 212.892448 
L 306.345206 207.338617 
L 311.958344 215.230903 
L 317.571482 214.938596 
L 323.18462 214.061676 
L 328.797758 214.353983 
L 334.410896 207.630924 
L 340.024034 210.553993 
L 345.637171 209.384765 
L 351.250309 209.677072 
L 356.863447 212.892448 
L 362.476585 208.800151 
L 368.089723 206.461696 
L 373.702861 207.338617 
L 379.315999 216.984745 
L 384.929137 209.384765 
L 396.155412 213.184755 
L 401.76855 182.200222 
L 407.381688 74.046665 
L 412.994826 99.18506 
L 418.607964 90.123545 
L 424.221102 105.031198 
L 429.83424 98.600446 
L 435.447378 147.708007 
L 441.060515 209.092458 
L 446.673653 212.892448 
L 452.286791 211.430913 
L 457.899929 218.446279 
L 463.513067 209.969379 
L 469.126205 207.630924 
L 474.739343 213.184755 
L 480.352481 219.3232 
L 485.965619 212.015527 
L 491.578756 77.262041 
L 497.191894 43.354439 
L 502.805032 76.38512 
L 508.41817 73.754358 
L 519.644446 86.323555 
L 525.257584 61.477468 
L 530.870722 67.615913 
L 536.48386 40.139063 
L 542.096997 69.662061 
L 547.710135 188.923281 
L 553.323273 211.138607 
L 558.936411 210.8463 
L 564.549549 207.338617 
L 570.162687 207.923231 
L 575.775825 214.353983 
L 581.388963 207.630924 
L 587.0021 208.507844 
L 592.615238 219.030893 
L 598.228376 206.461696 
L 603.841514 213.477062 
L 609.454652 211.138607 
L 615.06779 213.769369 
L 620.680928 209.384765 
L 626.294066 210.8463 
L 631.907204 208.215537 
L 637.520341 213.184755 
L 643.133479 207.923231 
L 648.746617 218.738586 
L 654.359755 214.061676 
L 659.972893 213.184755 
L 665.586031 214.646289 
L 671.199169 210.8463 
L 676.812307 207.630924 
L 682.425444 214.353983 
L 688.038582 207.923231 
L 693.65172 208.800151 
L 699.264858 208.215537 
L 710.491134 213.184755 
L 716.104272 206.754003 
L 721.71741 64.400537 
L 727.330548 106.492732 
L 732.943685 97.723525 
L 738.556823 83.400486 
L 744.169961 99.477366 
L 749.783099 135.13881 
L 755.396237 203.24632 
L 761.009375 211.138607 
L 766.622513 212.307834 
L 772.235651 216.107824 
L 777.848788 213.769369 
L 783.461926 212.892448 
L 789.075064 208.800151 
L 794.688202 214.061676 
L 800.30134 213.769369 
L 805.914478 61.185161 
L 811.527616 49.492885 
L 817.140754 72.877438 
L 822.753892 69.077448 
L 828.367029 71.123596 
L 839.593305 55.63133 
L 845.206443 86.908169 
L 850.819581 63.815923 
L 856.432719 60.015933 
L 862.045857 193.600192 
L 867.658995 205.292468 
L 873.272133 208.215537 
L 878.88527 208.800151 
L 884.498408 208.215537 
L 887.304977 209.092458 
L 890.111546 209.677072 
L 895.724684 212.015527 
L 901.337822 208.507844 
L 906.95096 209.677072 
L 912.564098 214.353983 
L 918.177236 207.923231 
L 918.177236 207.923231 
" clip-path="url(#p4cd6200944)" style="fill: none; stroke: #73c476; stroke-opacity: 0.95; stroke-width: 1.3; stroke-linecap: square"/>
   </g>
   <g id="line2d_34">
    <path d="M 59.367139 209.092458 
L 64.980277 209.384765 
L 70.593415 207.923231 
L 76.206553 207.04631 
L 81.819691 208.800151 
L 87.432829 203.538627 
L 93.045967 190.384816 
L 104.272242 195.354033 
L 109.88538 192.138657 
L 115.498518 187.754054 
L 121.111656 195.354033 
L 126.724794 204.123241 
L 132.337932 207.630924 
L 137.95107 206.754003 
L 143.564208 205.292468 
L 149.177346 207.630924 
L 154.790483 205.877082 
L 160.403621 208.215537 
L 166.016759 207.630924 
L 171.629897 209.092458 
L 177.243035 204.123241 
L 182.856173 183.661757 
L 188.469311 179.861767 
L 199.695587 183.077143 
L 205.308724 179.861767 
L 210.921862 181.907915 
L 216.535 183.077143 
L 222.148138 182.492529 
L 227.761276 176.354084 
L 233.374414 188.046361 
L 238.987552 206.461696 
L 244.60069 207.338617 
L 250.213827 206.754003 
L 255.826965 203.538627 
L 261.440103 206.461696 
L 264.246672 205.584775 
L 267.053241 204.415548 
L 272.666379 207.630924 
L 278.279517 205.877082 
L 283.892655 206.754003 
L 289.505793 209.092458 
L 300.732068 207.923231 
L 311.958344 207.338617 
L 317.571482 205.877082 
L 323.18462 208.215537 
L 328.797758 205.292468 
L 340.024034 207.630924 
L 345.637171 207.630924 
L 351.250309 206.169389 
L 356.863447 207.338617 
L 362.476585 205.000161 
L 368.089723 209.092458 
L 373.702861 207.630924 
L 379.315999 205.877082 
L 384.929137 207.923231 
L 396.155412 207.338617 
L 401.76855 206.754003 
L 407.381688 200.030944 
L 412.994826 191.84635 
L 418.607964 184.830985 
L 424.221102 183.077143 
L 435.447378 193.600192 
L 441.060515 203.538627 
L 446.673653 204.123241 
L 452.286791 204.415548 
L 457.899929 206.461696 
L 463.513067 206.754003 
L 469.126205 207.338617 
L 474.739343 205.000161 
L 480.352481 206.169389 
L 485.965619 207.630924 
L 491.578756 199.738637 
L 497.191894 183.954064 
L 502.805032 176.938698 
L 508.41817 167.000263 
L 519.644446 178.692539 
L 525.257584 176.354084 
L 530.870722 179.277153 
L 536.48386 183.36945 
L 542.096997 174.015629 
L 547.710135 189.215588 
L 553.323273 205.584775 
L 558.936411 204.415548 
L 564.549549 206.169389 
L 570.162687 204.123241 
L 572.969256 205.584775 
L 575.775825 206.754003 
L 581.388963 206.461696 
L 587.0021 207.630924 
L 592.615238 205.292468 
L 598.228376 206.461696 
L 603.841514 206.169389 
L 609.454652 206.169389 
L 615.06779 207.04631 
L 620.680928 208.507844 
L 626.294066 208.800151 
L 631.907204 207.04631 
L 637.520341 205.877082 
L 643.133479 207.630924 
L 648.746617 208.800151 
L 654.359755 207.338617 
L 659.972893 207.630924 
L 665.586031 203.830934 
L 671.199169 209.677072 
L 676.812307 204.415548 
L 682.425444 207.923231 
L 688.038582 206.461696 
L 693.65172 206.169389 
L 699.264858 207.338617 
L 710.491134 207.338617 
L 716.104272 207.04631 
L 721.71741 199.44633 
L 727.330548 193.015578 
L 732.943685 188.046361 
L 738.556823 189.507895 
L 744.169961 193.892499 
L 749.783099 199.738637 
L 755.396237 203.24632 
L 761.009375 208.215537 
L 766.622513 205.292468 
L 772.235651 205.000161 
L 777.848788 208.800151 
L 783.461926 206.169389 
L 789.075064 207.630924 
L 794.688202 205.000161 
L 800.30134 205.877082 
L 805.914478 196.523261 
L 811.527616 192.430964 
L 817.140754 182.200222 
L 822.753892 173.138708 
L 828.367029 177.815619 
L 839.593305 178.400232 
L 845.206443 175.184856 
L 850.819581 181.907915 
L 856.432719 175.477163 
L 862.045857 196.230954 
L 867.658995 204.707855 
L 873.272133 207.630924 
L 878.88527 207.338617 
L 884.498408 205.292468 
L 887.304977 206.754003 
L 890.111546 207.923231 
L 895.724684 208.800151 
L 901.337822 206.169389 
L 912.564098 205.000161 
L 918.177236 205.000161 
L 918.177236 205.000161 
" clip-path="url(#p4cd6200944)" style="fill: none; stroke: #4bb062; stroke-opacity: 0.95; stroke-width: 1.3; stroke-linecap: square"/>
   </g>
   <g id="line2d_35">
    <path d="M 59.367139 208.800151 
L 64.980277 210.261686 
L 70.593415 213.184755 
L 76.206553 208.215537 
L 81.819691 210.261686 
L 87.432829 194.477113 
L 93.045967 170.215639 
L 104.272242 179.56946 
L 109.88538 161.154125 
L 115.498518 147.123393 
L 121.111656 181.907915 
L 126.724794 203.538627 
L 132.337932 211.430913 
L 137.95107 219.030893 
L 143.564208 211.138607 
L 149.177346 210.8463 
L 154.790483 210.261686 
L 160.403621 210.8463 
L 166.016759 219.030893 
L 171.629897 214.646289 
L 177.243035 195.938647 
L 182.856173 156.477214 
L 188.469311 171.384867 
L 199.695587 189.507895 
L 205.308724 180.446381 
L 210.921862 182.200222 
L 216.535 186.877133 
L 222.148138 184.246371 
L 227.761276 178.107926 
L 233.374414 185.707905 
L 238.987552 202.954013 
L 244.60069 212.307834 
L 250.213827 215.52321 
L 255.826965 209.969379 
L 261.440103 210.8463 
L 267.053241 213.184755 
L 272.666379 214.646289 
L 278.279517 215.230903 
L 283.892655 215.230903 
L 289.505793 214.061676 
L 295.118931 211.430913 
L 300.732068 210.8463 
L 306.345206 209.677072 
L 311.958344 219.030893 
L 317.571482 216.400131 
L 323.18462 213.477062 
L 328.797758 209.969379 
L 334.410896 214.938596 
L 340.024034 216.984745 
L 345.637171 209.384765 
L 351.250309 210.553993 
L 356.863447 214.938596 
L 362.476585 212.600141 
L 368.089723 219.3232 
L 373.702861 209.677072 
L 379.315999 211.72322 
L 384.929137 217.861666 
L 396.155412 216.107824 
L 401.76855 208.507844 
L 407.381688 192.430964 
L 412.994826 159.984897 
L 418.607964 171.96948 
L 424.221102 160.861818 
L 429.83424 177.231005 
L 435.447378 187.754054 
L 441.060515 210.261686 
L 446.673653 207.338617 
L 452.286791 210.553993 
L 457.899929 210.553993 
L 463.513067 213.184755 
L 469.126205 215.230903 
L 474.739343 214.646289 
L 480.352481 214.646289 
L 485.965619 209.677072 
L 491.578756 194.184806 
L 497.191894 162.615659 
L 502.805032 176.061777 
L 508.41817 140.692641 
L 519.644446 165.246421 
L 525.257584 143.031096 
L 530.870722 170.215639 
L 536.48386 181.907915 
L 542.096997 167.877184 
L 547.710135 185.415598 
L 553.323273 210.261686 
L 558.936411 211.430913 
L 564.549549 209.677072 
L 570.162687 214.646289 
L 575.775825 214.646289 
L 581.388963 214.938596 
L 587.0021 209.677072 
L 592.615238 214.938596 
L 598.228376 210.553993 
L 603.841514 213.477062 
L 609.454652 212.600141 
L 615.06779 218.153972 
L 620.680928 212.015527 
L 626.294066 214.061676 
L 631.907204 214.646289 
L 637.520341 219.3232 
L 643.133479 211.72322 
L 648.746617 216.400131 
L 654.359755 215.52321 
L 659.972893 215.52321 
L 665.586031 215.230903 
L 671.199169 219.3232 
L 676.812307 217.861666 
L 682.425444 215.230903 
L 688.038582 210.553993 
L 693.65172 210.8463 
L 699.264858 212.015527 
L 710.491134 212.600141 
L 716.104272 212.600141 
L 727.330548 169.631025 
L 732.943685 145.369552 
L 738.556823 174.89255 
L 744.169961 183.954064 
L 749.783099 193.600192 
L 755.396237 212.892448 
L 761.009375 209.384765 
L 766.622513 212.015527 
L 772.235651 216.400131 
L 777.848788 212.307834 
L 783.461926 213.769369 
L 789.075064 211.138607 
L 794.688202 215.230903 
L 800.30134 212.307834 
L 805.914478 187.16944 
L 811.527616 182.784836 
L 817.140754 157.354135 
L 822.753892 123.154226 
L 828.367029 137.769572 
L 839.593305 157.354135 
L 845.206443 158.815669 
L 850.819581 142.738789 
L 856.432719 120.231157 
L 862.045857 202.954013 
L 867.658995 204.123241 
L 873.272133 206.461696 
L 878.88527 213.769369 
L 884.498408 215.230903 
L 890.111546 209.969379 
L 901.337822 214.061676 
L 906.95096 210.8463 
L 912.564098 218.738586 
L 918.177236 210.8463 
L 918.177236 210.8463 
" clip-path="url(#p4cd6200944)" style="fill: none; stroke: #2f974e; stroke-opacity: 0.95; stroke-width: 1.3; stroke-linecap: square"/>
   </g>
   <g id="line2d_36">
    <path d="M 59.367139 211.72322 
L 64.980277 209.092458 
L 70.593415 214.353983 
L 76.206553 219.3232 
L 81.819691 216.107824 
L 87.432829 67.031299 
L 93.045967 93.338921 
L 104.272242 93.338921 
L 109.88538 99.769673 
L 115.498518 78.431269 
L 123.918225 168.169491 
L 126.724794 198.861716 
L 132.337932 214.061676 
L 137.95107 215.815517 
L 143.564208 211.138607 
L 149.177346 207.630924 
L 154.790483 214.061676 
L 160.403621 208.507844 
L 166.016759 219.3232 
L 171.629897 219.3232 
L 177.243035 62.062082 
L 182.856173 62.354389 
L 188.469311 50.954419 
L 199.695587 61.477468 
L 205.308724 63.815923 
L 210.921862 43.646746 
L 216.535 66.446685 
L 222.148138 62.062082 
L 227.761276 67.90822 
L 233.374414 190.677123 
L 238.987552 208.800151 
L 244.60069 208.215537 
L 250.213827 217.569359 
L 255.826965 214.061676 
L 261.440103 212.892448 
L 267.053241 214.061676 
L 272.666379 213.769369 
L 278.279517 219.3232 
L 283.892655 212.307834 
L 289.505793 216.984745 
L 295.118931 213.477062 
L 300.732068 214.353983 
L 306.345206 212.600141 
L 311.958344 219.3232 
L 317.571482 219.3232 
L 323.18462 213.477062 
L 328.797758 219.030893 
L 334.410896 209.677072 
L 340.024034 211.430913 
L 345.637171 217.861666 
L 351.250309 213.769369 
L 356.863447 213.184755 
L 362.476585 216.984745 
L 368.089723 210.8463 
L 373.702861 209.092458 
L 379.315999 215.52321 
L 384.929137 217.861666 
L 396.155412 214.061676 
L 401.76855 190.677123 
L 407.381688 62.062082 
L 412.994826 99.769673 
L 418.607964 95.092763 
L 424.221102 117.015781 
L 429.83424 117.892702 
L 435.447378 156.477214 
L 441.060515 206.169389 
L 446.673653 211.430913 
L 452.286791 213.477062 
L 457.899929 219.3232 
L 463.513067 212.307834 
L 469.126205 207.923231 
L 474.739343 219.3232 
L 480.352481 217.861666 
L 485.965619 208.800151 
L 491.578756 74.923586 
L 497.191894 26.692946 
L 502.805032 77.554348 
L 508.41817 39.846757 
L 519.644446 86.031249 
L 525.257584 62.939003 
L 530.870722 73.169744 
L 536.48386 56.50825 
L 542.096997 70.246675 
L 547.710135 187.461747 
L 553.323273 212.307834 
L 558.936411 219.3232 
L 564.549549 208.507844 
L 570.162687 205.877082 
L 572.969256 209.969379 
L 575.775825 214.353983 
L 581.388963 209.384765 
L 592.615238 219.3232 
L 598.228376 210.553993 
L 603.841514 218.153972 
L 609.454652 214.646289 
L 615.06779 219.3232 
L 620.680928 219.3232 
L 626.294066 214.353983 
L 631.907204 212.600141 
L 637.520341 219.3232 
L 643.133479 214.938596 
L 648.746617 219.3232 
L 659.972893 214.646289 
L 665.586031 219.3232 
L 671.199169 212.015527 
L 676.812307 209.969379 
L 682.425444 219.3232 
L 688.038582 213.769369 
L 693.65172 217.277052 
L 699.264858 205.000161 
L 710.491134 219.3232 
L 716.104272 213.184755 
L 721.71741 43.939053 
L 727.330548 107.369653 
L 732.943685 95.677377 
L 738.556823 99.18506 
L 744.169961 107.077346 
L 749.783099 151.21569 
L 755.396237 203.830934 
L 761.009375 210.261686 
L 766.622513 212.892448 
L 772.235651 218.153972 
L 777.848788 212.892448 
L 783.461926 206.169389 
L 789.075064 216.107824 
L 794.688202 211.430913 
L 800.30134 215.815517 
L 805.914478 50.077498 
L 811.527616 44.523667 
L 817.140754 66.738992 
L 822.753892 73.462051 
L 828.367029 86.615862 
L 839.593305 75.800507 
L 845.206443 78.431269 
L 850.819581 49.785192 
L 856.432719 62.939003 
L 862.045857 195.354033 
L 867.658995 206.169389 
L 873.272133 211.138607 
L 878.88527 211.138607 
L 884.498408 215.52321 
L 887.304977 215.230903 
L 890.111546 214.646289 
L 895.724684 219.3232 
L 901.337822 219.3232 
L 906.95096 215.52321 
L 912.564098 218.446279 
L 918.177236 216.107824 
L 918.177236 216.107824 
" clip-path="url(#p4cd6200944)" style="fill: none; stroke: #157f3b; stroke-opacity: 0.95; stroke-width: 1.3; stroke-linecap: square"/>
   </g>
   <g id="patch_23">
    <path d="M 42.190938 228.954713 
L 42.190938 17.061433 
" style="fill: none; stroke: #cbd5e1; stroke-width: 0.8; stroke-linejoin: miter; stroke-linecap: square"/>
   </g>
   <g id="patch_24">
    <path d="M 935.353437 228.954713 
L 935.353437 17.061433 
" style="fill: none; stroke: #cbd5e1; stroke-width: 0.8; stroke-linejoin: miter; stroke-linecap: square"/>
   </g>
   <g id="patch_25">
    <path d="M 42.190938 228.954713 
L 935.353437 228.954713 
" style="fill: none; stroke: #cbd5e1; stroke-width: 0.8; stroke-linejoin: miter; stroke-linecap: square"/>
   </g>
   <g id="patch_26">
    <path d="M 42.190938 17.061433 
L 935.353437 17.061433 
" style="fill: none; stroke: #cbd5e1; stroke-width: 0.8; stroke-linejoin: miter; stroke-linecap: square"/>
   </g>
   <g id="text_18">
    <!-- ACC -->
    <g style="fill: #475569" transform="translate(42.526538 13.27875) scale(0.08 -0.08)">
     <defs>
      <path id="DejaVuSans-41" d="M 2188 4044 
L 1331 1722 
L 3047 1722 
L 2188 4044 
z
M 1831 4666 
L 2547 4666 
L 4325 0 
L 3669 0 
L 3244 1197 
L 1141 1197 
L 716 0 
L 50 0 
L 1831 4666 
z
" transform="scale(0.015625)"/>
      <path id="DejaVuSans-43" d="M 4122 4306 
L 4122 3641 
Q 3803 3938 3442 4084 
Q 3081 4231 2675 4231 
Q 1875 4231 1450 3742 
Q 1025 3253 1025 2328 
Q 1025 1406 1450 917 
Q 1875 428 2675 428 
Q 3081 428 3442 575 
Q 3803 722 4122 1019 
L 4122 359 
Q 3791 134 3420 21 
Q 3050 -91 2638 -91 
Q 1578 -91 968 557 
Q 359 1206 359 2328 
Q 359 3453 968 4101 
Q 1578 4750 2638 4750 
Q 3056 4750 3426 4639 
Q 3797 4528 4122 4306 
z
" transform="scale(0.015625)"/>
     </defs>
     <use xlink:href="#DejaVuSans-41"/>
     <use xlink:href="#DejaVuSans-43" transform="translate(66.658203 0)"/>
     <use xlink:href="#DejaVuSans-43" transform="translate(136.482422 0)"/>
    </g>
   </g>
   <g id="text_19">
    <!-- OC -->
    <g style="fill: #475569" transform="translate(70.264678 13.27875) scale(0.08 -0.08)">
     <defs>
      <path id="DejaVuSans-4f" d="M 2522 4238 
Q 1834 4238 1429 3725 
Q 1025 3213 1025 2328 
Q 1025 1447 1429 934 
Q 1834 422 2522 422 
Q 3209 422 3611 934 
Q 4013 1447 4013 2328 
Q 4013 3213 3611 3725 
Q 3209 4238 2522 4238 
z
M 2522 4750 
Q 3503 4750 4090 4092 
Q 4678 3434 4678 2328 
Q 4678 1225 4090 567 
Q 3503 -91 2522 -91 
Q 1538 -91 948 565 
Q 359 1222 359 2328 
Q 359 3434 948 4092 
Q 1538 4750 2522 4750 
z
" transform="scale(0.015625)"/>
     </defs>
     <use xlink:href="#DejaVuSans-4f"/>
     <use xlink:href="#DejaVuSans-43" transform="translate(78.710938 0)"/>
    </g>
   </g>
   <g id="text_20">
    <!-- FCS -->
    <g style="fill: #475569" transform="translate(102.252255 13.27875) scale(0.08 -0.08)">
     <defs>
      <path id="DejaVuSans-46" d="M 628 4666 
L 3309 4666 
L 3309 4134 
L 1259 4134 
L 1259 2759 
L 3109 2759 
L 3109 2228 
L 1259 2228 
L 1259 0 
L 628 0 
L 628 4666 
z
" transform="scale(0.015625)"/>
      <path id="DejaVuSans-53" d="M 3425 4513 
L 3425 3897 
Q 3066 4069 2747 4153 
Q 2428 4238 2131 4238 
Q 1616 4238 1336 4038 
Q 1056 3838 1056 3469 
Q 1056 3159 1242 3001 
Q 1428 2844 1947 2747 
L 2328 2669 
Q 3034 2534 3370 2195 
Q 3706 1856 3706 1288 
Q 3706 609 3251 259 
Q 2797 -91 1919 -91 
Q 1588 -91 1214 -16 
Q 841 59 441 206 
L 441 856 
Q 825 641 1194 531 
Q 1563 422 1919 422 
Q 2459 422 2753 634 
Q 3047 847 3047 1241 
Q 3047 1584 2836 1778 
Q 2625 1972 2144 2069 
L 1759 2144 
Q 1053 2284 737 2584 
Q 422 2884 422 3419 
Q 422 4038 858 4394 
Q 1294 4750 2059 4750 
Q 2388 4750 2728 4690 
Q 3069 4631 3425 4513 
z
" transform="scale(0.015625)"/>
     </defs>
     <use xlink:href="#DejaVuSans-46"/>
     <use xlink:href="#DejaVuSans-43" transform="translate(57.519531 0)"/>
     <use xlink:href="#DejaVuSans-53" transform="translate(127.34375 0)"/>
    </g>
   </g>
   <g id="text_21">
    <!-- SR -->
    <g style="fill: #475569" transform="translate(146.665164 13.27875) scale(0.08 -0.08)">
     <defs>
      <path id="DejaVuSans-52" d="M 2841 2188 
Q 3044 2119 3236 1894 
Q 3428 1669 3622 1275 
L 4263 0 
L 3584 0 
L 2988 1197 
Q 2756 1666 2539 1819 
Q 2322 1972 1947 1972 
L 1259 1972 
L 1259 0 
L 628 0 
L 628 4666 
L 2053 4666 
Q 2853 4666 3247 4331 
Q 3641 3997 3641 3322 
Q 3641 2881 3436 2590 
Q 3231 2300 2841 2188 
z
M 1259 4147 
L 1259 2491 
L 2053 2491 
Q 2509 2491 2742 2702 
Q 2975 2913 2975 3322 
Q 2975 3731 2742 3939 
Q 2509 4147 2053 4147 
L 1259 4147 
z
" transform="scale(0.015625)"/>
     </defs>
     <use xlink:href="#DejaVuSans-53"/>
     <use xlink:href="#DejaVuSans-52" transform="translate(63.476562 0)"/>
    </g>
   </g>
   <g id="text_22">
    <!-- FFC -->
    <g style="fill: #475569" transform="translate(197.914349 13.27875) scale(0.08 -0.08)">
     <use xlink:href="#DejaVuSans-46"/>
     <use xlink:href="#DejaVuSans-46" transform="translate(57.519531 0)"/>
     <use xlink:href="#DejaVuSans-43" transform="translate(115.039062 0)"/>
    </g>
   </g>
   <g id="text_23">
    <!-- SS -->
    <g style="fill: #475569" transform="translate(304.073025 13.27875) scale(0.08 -0.08)">
     <use xlink:href="#DejaVuSans-53"/>
     <use xlink:href="#DejaVuSans-53" transform="translate(63.476562 0)"/>
    </g>
   </g>
   <g id="text_24">
    <!-- OC -->
    <g style="fill: #475569" transform="translate(390.213537 13.27875) scale(0.08 -0.08)">
     <use xlink:href="#DejaVuSans-4f"/>
     <use xlink:href="#DejaVuSans-43" transform="translate(78.710938 0)"/>
    </g>
   </g>
   <g id="text_25">
    <!-- FCS -->
    <g style="fill: #475569" transform="translate(419.394546 13.27875) scale(0.08 -0.08)">
     <use xlink:href="#DejaVuSans-46"/>
     <use xlink:href="#DejaVuSans-43" transform="translate(57.519531 0)"/>
     <use xlink:href="#DejaVuSans-53" transform="translate(127.34375 0)"/>
    </g>
   </g>
   <g id="text_26">
    <!-- SR -->
    <g style="fill: #475569" transform="translate(461.000886 13.27875) scale(0.08 -0.08)">
     <use xlink:href="#DejaVuSans-53"/>
     <use xlink:href="#DejaVuSans-52" transform="translate(63.476562 0)"/>
    </g>
   </g>
   <g id="text_27">
    <!-- FFC -->
    <g style="fill: #475569" transform="translate(512.250071 13.27875) scale(0.08 -0.08)">
     <use xlink:href="#DejaVuSans-46"/>
     <use xlink:href="#DejaVuSans-46" transform="translate(57.519531 0)"/>
     <use xlink:href="#DejaVuSans-43" transform="translate(115.039062 0)"/>
    </g>
   </g>
   <g id="text_28">
    <!-- SS -->
    <g style="fill: #475569" transform="translate(618.408747 13.27875) scale(0.08 -0.08)">
     <use xlink:href="#DejaVuSans-53"/>
     <use xlink:href="#DejaVuSans-53" transform="translate(63.476562 0)"/>
    </g>
   </g>
   <g id="text_29">
    <!-- OC -->
    <g style="fill: #475569" transform="translate(704.549259 13.27875) scale(0.08 -0.08)">
     <use xlink:href="#DejaVuSans-4f"/>
     <use xlink:href="#DejaVuSans-43" transform="translate(78.710938 0)"/>
    </g>
   </g>
   <g id="text_30">
    <!-- FCS -->
    <g style="fill: #475569" transform="translate(733.730267 13.27875) scale(0.08 -0.08)">
     <use xlink:href="#DejaVuSans-46"/>
     <use xlink:href="#DejaVuSans-43" transform="translate(57.519531 0)"/>
     <use xlink:href="#DejaVuSans-53" transform="translate(127.34375 0)"/>
    </g>
   </g>
   <g id="text_31">
    <!-- SR -->
    <g style="fill: #475569" transform="translate(775.336607 13.27875) scale(0.08 -0.08)">
     <use xlink:href="#DejaVuSans-53"/>
     <use xlink:href="#DejaVuSans-52" transform="translate(63.476562 0)"/>
    </g>
   </g>
   <g id="text_32">
    <!-- FFC -->
    <g style="fill: #475569" transform="translate(826.585792 13.27875) scale(0.08 -0.08)">
     <use xlink:href="#DejaVuSans-46"/>
     <use xlink:href="#DejaVuSans-46" transform="translate(57.519531 0)"/>
     <use xlink:href="#DejaVuSans-43" transform="translate(115.039062 0)"/>
    </g>
   </g>
   <g id="text_33">
    <!-- SS -->
    <g style="fill: #475569" transform="translate(887.839365 13.27875) scale(0.08 -0.08)">
     <use xlink:href="#DejaVuSans-53"/>
     <use xlink:href="#DejaVuSans-53" transform="translate(63.476562 0)"/>
    </g>
   </g>
   <g id="legend_1">
    <g id="line2d_37">
     <path d="M 846.228437 27.540183 
L 854.228437 27.540183 
L 862.228437 27.540183 
" style="fill: none; stroke: #b8e3b2; stroke-opacity: 0.95; stroke-width: 1.3; stroke-linecap: square"/>
    </g>
    <g id="text_34">
     <!-- V1 -->
     <g transform="translate(868.628437 30.340183) scale(0.08 -0.08)">
      <use xlink:href="#DejaVuSans-56"/>
      <use xlink:href="#DejaVuSans-31" transform="translate(68.408203 0)"/>
     </g>
    </g>
    <g id="line2d_38">
     <path d="M 846.228437 39.282683 
L 854.228437 39.282683 
L 862.228437 39.282683 
" style="fill: none; stroke: #98d594; stroke-opacity: 0.95; stroke-width: 1.3; stroke-linecap: square"/>
    </g>
    <g id="text_35">
     <!-- V2 -->
     <g transform="translate(868.628437 42.082683) scale(0.08 -0.08)">
      <use xlink:href="#DejaVuSans-56"/>
      <use xlink:href="#DejaVuSans-32" transform="translate(68.408203 0)"/>
     </g>
    </g>
    <g id="line2d_39">
     <path d="M 846.228437 51.025183 
L 854.228437 51.025183 
L 862.228437 51.025183 
" style="fill: none; stroke: #73c476; stroke-opacity: 0.95; stroke-width: 1.3; stroke-linecap: square"/>
    </g>
    <g id="text_36">
     <!-- V3 -->
     <g transform="translate(868.628437 53.825183) scale(0.08 -0.08)">
      <use xlink:href="#DejaVuSans-56"/>
      <use xlink:href="#DejaVuSans-33" transform="translate(68.408203 0)"/>
     </g>
    </g>
    <g id="line2d_40">
     <path d="M 895.190937 27.540183 
L 903.190937 27.540183 
L 911.190937 27.540183 
" style="fill: none; stroke: #4bb062; stroke-opacity: 0.95; stroke-width: 1.3; stroke-linecap: square"/>
    </g>
    <g id="text_37">
     <!-- V4 -->
     <g transform="translate(917.590937 30.340183) scale(0.08 -0.08)">
      <use xlink:href="#DejaVuSans-56"/>
      <use xlink:href="#DejaVuSans-34" transform="translate(68.408203 0)"/>
     </g>
    </g>
    <g id="line2d_41">
     <path d="M 895.190937 39.282683 
L 903.190937 39.282683 
L 911.190937 39.282683 
" style="fill: none; stroke: #2f974e; stroke-opacity: 0.95; stroke-width: 1.3; stroke-linecap: square"/>
    </g>
    <g id="text_38">
     <!-- V5 -->
     <g transform="translate(917.590937 42.082683) scale(0.08 -0.08)">
      <use xlink:href="#DejaVuSans-56"/>
      <use xlink:href="#DejaVuSans-35" transform="translate(68.408203 0)"/>
     </g>
    </g>
    <g id="line2d_42">
     <path d="M 895.190937 51.025183 
L 903.190937 51.025183 
L 911.190937 51.025183 
" style="fill: none; stroke: #157f3b; stroke-opacity: 0.95; stroke-width: 1.3; stroke-linecap: square"/>
    </g>
    <g id="text_39">
     <!-- V6 -->
     <g transform="translate(917.590937 53.825183) scale(0.08 -0.08)">
      <use xlink:href="#DejaVuSans-56"/>
      <use xlink:href="#DejaVuSans-36" transform="translate(68.408203 0)"/>
     </g>
    </g>
   </g>
  </g>
 </g>
 <defs>
  <clipPath id="p4cd6200944">
   <rect x="42.190938" y="17.061433" width="893.1625" height="211.89328"/>
  </clipPath>
 </defs>
</svg>
