<?xml version="1.0" encoding="utf-8" standalone="no"?>
<!DOCTYPE svg PUBLIC "-//W3C//DTD SVG 1.1//EN"
  "http://www.w3.org/Graphics/SVG/1.1/DTD/svg11.dtd">
<svg xmlns:xlink="http://www.w3.org/1999/xlink" width="942.553437pt" height="265.54315pt" viewBox="0 0 942.553437 265.54315" xmlns="http://www.w3.org/2000/svg" version="1.1">
 <metadata>
  <rdf:RDF xmlns:dc="http://purl.org/dc/elements/1.1/" xmlns:cc="http://creativecommons.org/ns#" xmlns:rdf="http://www.w3.org/1999/02/22-rdf-syntax-ns#">
   <cc:Work>
    <dc:type rdf:resource="http://purl.org/dc/dcmitype/StillImage"/>
    <dc:date>2026-04-17T13:08:52.733746</dc:date>
    <dc:format>image/svg+xml</dc:format>
    <dc:creator>
     <cc:Agent>
      <dc:title>Matplotlib v3.10.8, https://matplotlib.org/</dc:title>
     </cc:Agent>
    </dc:creator>
   </cc:Work>
  </rdf:RDF>
 </metadata>
 <defs>
  <style type="text/css">*{stroke-linejoin: round; stroke-linecap: butt}</style>
 </defs>
 <g id="figure_1">
  <g id="patch_1">
   <path d="M 0 265.54315 
L 942.553437 265.54315 
L 942.553437 0 
L 0 0 
z
" style="fill: #ffffff"/>
  </g>
  <g id="axes_1">
   <g id="patch_2">
    <path d="M 42.190938 228.954713 
L 935.353438 228.954713 
L 935.353438 17.061433 
L 42.190938 17.061433 
z
" style="fill: #ffffff"/>
   </g>
   <g id="patch_3">
    <path d="M 42.190938 228.954713 
L 222.798125 228.954713 
L 222.798125 17.061433 
L 42.190938 17.061433 
z
" clip-path="url(#pfc5e7b76e6)" style="fill: #f8fafc; opacity: 0.45"/>
   </g>
   <g id="patch_4">
    <path d="M 222.798125 228.954713 
L 254.404383 228.954713 
L 254.404383 17.061433 
L 222.798125 17.061433 
z
" clip-path="url(#pfc5e7b76e6)" style="fill: #eff6ff; opacity: 0.45"/>
   </g>
   <g id="patch_5">
    <path d="M 254.404383 228.954713 
L 276.980281 228.954713 
L 276.980281 17.061433 
L 254.404383 17.061433 
z
" clip-path="url(#pfc5e7b76e6)" style="fill: #fef3c7; opacity: 0.45"/>
   </g>
   <g id="patch_6">
    <path d="M 276.980281 228.954713 
L 317.616898 228.954713 
L 317.616898 17.061433 
L 276.980281 17.061433 
z
" clip-path="url(#pfc5e7b76e6)" style="fill: #dcfce7; opacity: 0.45"/>
   </g>
   <g id="patch_7">
    <path d="M 317.616898 228.954713 
L 362.768695 228.954713 
L 362.768695 17.061433 
L 317.616898 17.061433 
z
" clip-path="url(#pfc5e7b76e6)" style="fill: #fee2e2; opacity: 0.45"/>
   </g>
   <g id="patch_8">
    <path d="M 362.768695 228.954713 
L 367.283875 228.954713 
L 367.283875 17.061433 
L 362.768695 17.061433 
z
" clip-path="url(#pfc5e7b76e6)" style="fill: #ede9fe; opacity: 0.45"/>
   </g>
   <g id="patch_9">
    <path d="M 367.283875 228.954713 
L 484.678546 228.954713 
L 484.678546 17.061433 
L 367.283875 17.061433 
z
" clip-path="url(#pfc5e7b76e6)" style="fill: #f8fafc; opacity: 0.45"/>
   </g>
   <g id="patch_10">
    <path d="M 484.678546 228.954713 
L 507.254445 228.954713 
L 507.254445 17.061433 
L 484.678546 17.061433 
z
" clip-path="url(#pfc5e7b76e6)" style="fill: #eff6ff; opacity: 0.45"/>
   </g>
   <g id="patch_11">
    <path d="M 507.254445 228.954713 
L 529.830343 228.954713 
L 529.830343 17.061433 
L 507.254445 17.061433 
z
" clip-path="url(#pfc5e7b76e6)" style="fill: #fef3c7; opacity: 0.45"/>
   </g>
   <g id="patch_12">
    <path d="M 529.830343 228.954713 
L 570.46696 228.954713 
L 570.46696 17.061433 
L 529.830343 17.061433 
z
" clip-path="url(#pfc5e7b76e6)" style="fill: #dcfce7; opacity: 0.45"/>
   </g>
   <g id="patch_13">
    <path d="M 570.46696 228.954713 
L 615.618757 228.954713 
L 615.618757 17.061433 
L 570.46696 17.061433 
z
" clip-path="url(#pfc5e7b76e6)" style="fill: #fee2e2; opacity: 0.45"/>
   </g>
   <g id="patch_14">
    <path d="M 615.618757 228.954713 
L 620.133937 228.954713 
L 620.133937 17.061433 
L 615.618757 17.061433 
z
" clip-path="url(#pfc5e7b76e6)" style="fill: #ede9fe; opacity: 0.45"/>
   </g>
   <g id="patch_15">
    <path d="M 620.133937 228.954713 
L 737.528608 228.954713 
L 737.528608 17.061433 
L 620.133937 17.061433 
z
" clip-path="url(#pfc5e7b76e6)" style="fill: #f8fafc; opacity: 0.45"/>
   </g>
   <g id="patch_16">
    <path d="M 737.528608 228.954713 
L 760.104507 228.954713 
L 760.104507 17.061433 
L 737.528608 17.061433 
z
" clip-path="url(#pfc5e7b76e6)" style="fill: #eff6ff; opacity: 0.45"/>
   </g>
   <g id="patch_17">
    <path d="M 760.104507 228.954713 
L 782.680405 228.954713 
L 782.680405 17.061433 
L 760.104507 17.061433 
z
" clip-path="url(#pfc5e7b76e6)" style="fill: #fef3c7; opacity: 0.45"/>
   </g>
   <g id="patch_18">
    <path d="M 782.680405 228.954713 
L 823.317022 228.954713 
L 823.317022 17.061433 
L 782.680405 17.061433 
z
" clip-path="url(#pfc5e7b76e6)" style="fill: #dcfce7; opacity: 0.45"/>
   </g>
   <g id="patch_19">
    <path d="M 823.317022 228.954713 
L 868.468819 228.954713 
L 868.468819 17.061433 
L 823.317022 17.061433 
z
" clip-path="url(#pfc5e7b76e6)" style="fill: #fee2e2; opacity: 0.45"/>
   </g>
   <g id="patch_20">
    <path d="M 868.468819 228.954713 
L 872.983999 228.954713 
L 872.983999 17.061433 
L 868.468819 17.061433 
z
" clip-path="url(#pfc5e7b76e6)" style="fill: #ede9fe; opacity: 0.45"/>
   </g>
   <g id="patch_21">
    <path d="M 872.983999 228.954713 
L 913.620616 228.954713 
L 913.620616 17.061433 
L 872.983999 17.061433 
z
" clip-path="url(#pfc5e7b76e6)" style="fill: #f8fafc; opacity: 0.45"/>
   </g>
   <g id="patch_22">
    <path d="M 913.620616 228.954713 
L 918.135796 228.954713 
L 918.135796 17.061433 
L 913.620616 17.061433 
z
" clip-path="url(#pfc5e7b76e6)" style="fill: #eff6ff; opacity: 0.45"/>
   </g>
   <g id="matplotlib.axis_1">
    <g id="xtick_1">
     <g id="line2d_1">
      <path d="M 42.190938 228.954713 
L 42.190938 17.061433 
" clip-path="url(#pfc5e7b76e6)" style="fill: none; stroke: #eef2f7; stroke-width: 0.55; stroke-linecap: square"/>
     </g>
     <g id="line2d_2">
      <defs>
       <path id="mfb7c69adc7" d="M 0 0 
L 0 3.5 
" style="stroke: #000000; stroke-width: 0.8"/>
      </defs>
      <g>
       <use xlink:href="#mfb7c69adc7" x="42.190938" y="228.954713" style="stroke: #000000; stroke-width: 0.8"/>
      </g>
     </g>
     <g id="text_1">
      <!-- 0 -->
      <g transform="translate(39.327813 242.793307) scale(0.09 -0.09)">
       <defs>
        <path id="DejaVuSans-30" d="M 2034 4250 
Q 1547 4250 1301 3770 
Q 1056 3291 1056 2328 
Q 1056 1369 1301 889 
Q 1547 409 2034 409 
Q 2525 409 2770 889 
Q 3016 1369 3016 2328 
Q 3016 3291 2770 3770 
Q 2525 4250 2034 4250 
z
M 2034 4750 
Q 2819 4750 3233 4129 
Q 3647 3509 3647 2328 
Q 3647 1150 3233 529 
Q 2819 -91 2034 -91 
Q 1250 -91 836 529 
Q 422 1150 422 2328 
Q 422 3509 836 4129 
Q 1250 4750 2034 4750 
z
" transform="scale(0.015625)"/>
       </defs>
       <use xlink:href="#DejaVuSans-30"/>
      </g>
     </g>
    </g>
    <g id="xtick_2">
     <g id="line2d_3">
      <path d="M 155.07043 228.954713 
L 155.07043 17.061433 
" clip-path="url(#pfc5e7b76e6)" style="fill: none; stroke: #eef2f7; stroke-width: 0.55; stroke-linecap: square"/>
     </g>
     <g id="line2d_4">
      <g>
       <use xlink:href="#mfb7c69adc7" x="155.07043" y="228.954713" style="stroke: #000000; stroke-width: 0.8"/>
      </g>
     </g>
     <g id="text_2">
      <!-- 25 -->
      <g transform="translate(149.34418 242.793307) scale(0.09 -0.09)">
       <defs>
        <path id="DejaVuSans-32" d="M 1228 531 
L 3431 531 
L 3431 0 
L 469 0 
L 469 531 
Q 828 903 1448 1529 
Q 2069 2156 2228 2338 
Q 2531 2678 2651 2914 
Q 2772 3150 2772 3378 
Q 2772 3750 2511 3984 
Q 2250 4219 1831 4219 
Q 1534 4219 1204 4116 
Q 875 4013 500 3803 
L 500 4441 
Q 881 4594 1212 4672 
Q 1544 4750 1819 4750 
Q 2544 4750 2975 4387 
Q 3406 4025 3406 3419 
Q 3406 3131 3298 2873 
Q 3191 2616 2906 2266 
Q 2828 2175 2409 1742 
Q 1991 1309 1228 531 
z
" transform="scale(0.015625)"/>
        <path id="DejaVuSans-35" d="M 691 4666 
L 3169 4666 
L 3169 4134 
L 1269 4134 
L 1269 2991 
Q 1406 3038 1543 3061 
Q 1681 3084 1819 3084 
Q 2600 3084 3056 2656 
Q 3513 2228 3513 1497 
Q 3513 744 3044 326 
Q 2575 -91 1722 -91 
Q 1428 -91 1123 -41 
Q 819 9 494 109 
L 494 744 
Q 775 591 1075 516 
Q 1375 441 1709 441 
Q 2250 441 2565 725 
Q 2881 1009 2881 1497 
Q 2881 1984 2565 2268 
Q 2250 2553 1709 2553 
Q 1456 2553 1204 2497 
Q 953 2441 691 2322 
L 691 4666 
z
" transform="scale(0.015625)"/>
       </defs>
       <use xlink:href="#DejaVuSans-32"/>
       <use xlink:href="#DejaVuSans-35" transform="translate(63.623047 0)"/>
      </g>
     </g>
    </g>
    <g id="xtick_3">
     <g id="line2d_5">
      <path d="M 267.949922 228.954713 
L 267.949922 17.061433 
" clip-path="url(#pfc5e7b76e6)" style="fill: none; stroke: #eef2f7; stroke-width: 0.55; stroke-linecap: square"/>
     </g>
     <g id="line2d_6">
      <g>
       <use xlink:href="#mfb7c69adc7" x="267.949922" y="228.954713" style="stroke: #000000; stroke-width: 0.8"/>
      </g>
     </g>
     <g id="text_3">
      <!-- 50 -->
      <g transform="translate(262.223672 242.793307) scale(0.09 -0.09)">
       <use xlink:href="#DejaVuSans-35"/>
       <use xlink:href="#DejaVuSans-30" transform="translate(63.623047 0)"/>
      </g>
     </g>
    </g>
    <g id="xtick_4">
     <g id="line2d_7">
      <path d="M 380.829414 228.954713 
L 380.829414 17.061433 
" clip-path="url(#pfc5e7b76e6)" style="fill: none; stroke: #eef2f7; stroke-width: 0.55; stroke-linecap: square"/>
     </g>
     <g id="line2d_8">
      <g>
       <use xlink:href="#mfb7c69adc7" x="380.829414" y="228.954713" style="stroke: #000000; stroke-width: 0.8"/>
      </g>
     </g>
     <g id="text_4">
      <!-- 75 -->
      <g transform="translate(375.103164 242.793307) scale(0.09 -0.09)">
       <defs>
        <path id="DejaVuSans-37" d="M 525 4666 
L 3525 4666 
L 3525 4397 
L 1831 0 
L 1172 0 
L 2766 4134 
L 525 4134 
L 525 4666 
z
" transform="scale(0.015625)"/>
       </defs>
       <use xlink:href="#DejaVuSans-37"/>
       <use xlink:href="#DejaVuSans-35" transform="translate(63.623047 0)"/>
      </g>
     </g>
    </g>
    <g id="xtick_5">
     <g id="line2d_9">
      <path d="M 493.708906 228.954713 
L 493.708906 17.061433 
" clip-path="url(#pfc5e7b76e6)" style="fill: none; stroke: #eef2f7; stroke-width: 0.55; stroke-linecap: square"/>
     </g>
     <g id="line2d_10">
      <g>
       <use xlink:href="#mfb7c69adc7" x="493.708906" y="228.954713" style="stroke: #000000; stroke-width: 0.8"/>
      </g>
     </g>
     <g id="text_5">
      <!-- 100 -->
      <g transform="translate(485.119531 242.793307) scale(0.09 -0.09)">
       <defs>
        <path id="DejaVuSans-31" d="M 794 531 
L 1825 531 
L 1825 4091 
L 703 3866 
L 703 4441 
L 1819 4666 
L 2450 4666 
L 2450 531 
L 3481 531 
L 3481 0 
L 794 0 
L 794 531 
z
" transform="scale(0.015625)"/>
       </defs>
       <use xlink:href="#DejaVuSans-31"/>
       <use xlink:href="#DejaVuSans-30" transform="translate(63.623047 0)"/>
       <use xlink:href="#DejaVuSans-30" transform="translate(127.246094 0)"/>
      </g>
     </g>
    </g>
    <g id="xtick_6">
     <g id="line2d_11">
      <path d="M 606.588398 228.954713 
L 606.588398 17.061433 
" clip-path="url(#pfc5e7b76e6)" style="fill: none; stroke: #eef2f7; stroke-width: 0.55; stroke-linecap: square"/>
     </g>
     <g id="line2d_12">
      <g>
       <use xlink:href="#mfb7c69adc7" x="606.588398" y="228.954713" style="stroke: #000000; stroke-width: 0.8"/>
      </g>
     </g>
     <g id="text_6">
      <!-- 125 -->
      <g transform="translate(597.999023 242.793307) scale(0.09 -0.09)">
       <use xlink:href="#DejaVuSans-31"/>
       <use xlink:href="#DejaVuSans-32" transform="translate(63.623047 0)"/>
       <use xlink:href="#DejaVuSans-35" transform="translate(127.246094 0)"/>
      </g>
     </g>
    </g>
    <g id="xtick_7">
     <g id="line2d_13">
      <path d="M 719.46789 228.954713 
L 719.46789 17.061433 
" clip-path="url(#pfc5e7b76e6)" style="fill: none; stroke: #eef2f7; stroke-width: 0.55; stroke-linecap: square"/>
     </g>
     <g id="line2d_14">
      <g>
       <use xlink:href="#mfb7c69adc7" x="719.46789" y="228.954713" style="stroke: #000000; stroke-width: 0.8"/>
      </g>
     </g>
     <g id="text_7">
      <!-- 150 -->
      <g transform="translate(710.878515 242.793307) scale(0.09 -0.09)">
       <use xlink:href="#DejaVuSans-31"/>
       <use xlink:href="#DejaVuSans-35" transform="translate(63.623047 0)"/>
       <use xlink:href="#DejaVuSans-30" transform="translate(127.246094 0)"/>
      </g>
     </g>
    </g>
    <g id="xtick_8">
     <g id="line2d_15">
      <path d="M 832.347382 228.954713 
L 832.347382 17.061433 
" clip-path="url(#pfc5e7b76e6)" style="fill: none; stroke: #eef2f7; stroke-width: 0.55; stroke-linecap: square"/>
     </g>
     <g id="line2d_16">
      <g>
       <use xlink:href="#mfb7c69adc7" x="832.347382" y="228.954713" style="stroke: #000000; stroke-width: 0.8"/>
      </g>
     </g>
     <g id="text_8">
      <!-- 175 -->
      <g transform="translate(823.758007 242.793307) scale(0.09 -0.09)">
       <use xlink:href="#DejaVuSans-31"/>
       <use xlink:href="#DejaVuSans-37" transform="translate(63.623047 0)"/>
       <use xlink:href="#DejaVuSans-35" transform="translate(127.246094 0)"/>
      </g>
     </g>
    </g>
    <g id="text_9">
     <!-- Minutes since session start -->
     <g transform="translate(421.182344 256.263463) scale(0.1 -0.1)">
      <defs>
       <path id="DejaVuSans-4d" d="M 628 4666 
L 1569 4666 
L 2759 1491 
L 3956 4666 
L 4897 4666 
L 4897 0 
L 4281 0 
L 4281 4097 
L 3078 897 
L 2444 897 
L 1241 4097 
L 1241 0 
L 628 0 
L 628 4666 
z
" transform="scale(0.015625)"/>
       <path id="DejaVuSans-69" d="M 603 3500 
L 1178 3500 
L 1178 0 
L 603 0 
L 603 3500 
z
M 603 4863 
L 1178 4863 
L 1178 4134 
L 603 4134 
L 603 4863 
z
" transform="scale(0.015625)"/>
       <path id="DejaVuSans-6e" d="M 3513 2113 
L 3513 0 
L 2938 0 
L 2938 2094 
Q 2938 2591 2744 2837 
Q 2550 3084 2163 3084 
Q 1697 3084 1428 2787 
Q 1159 2491 1159 1978 
L 1159 0 
L 581 0 
L 581 3500 
L 1159 3500 
L 1159 2956 
Q 1366 3272 1645 3428 
Q 1925 3584 2291 3584 
Q 2894 3584 3203 3211 
Q 3513 2838 3513 2113 
z
" transform="scale(0.015625)"/>
       <path id="DejaVuSans-75" d="M 544 1381 
L 544 3500 
L 1119 3500 
L 1119 1403 
Q 1119 906 1312 657 
Q 1506 409 1894 409 
Q 2359 409 2629 706 
Q 2900 1003 2900 1516 
L 2900 3500 
L 3475 3500 
L 3475 0 
L 2900 0 
L 2900 538 
Q 2691 219 2414 64 
Q 2138 -91 1772 -91 
Q 1169 -91 856 284 
Q 544 659 544 1381 
z
M 1991 3584 
L 1991 3584 
z
" transform="scale(0.015625)"/>
       <path id="DejaVuSans-74" d="M 1172 4494 
L 1172 3500 
L 2356 3500 
L 2356 3053 
L 1172 3053 
L 1172 1153 
Q 1172 725 1289 603 
Q 1406 481 1766 481 
L 2356 481 
L 2356 0 
L 1766 0 
Q 1100 0 847 248 
Q 594 497 594 1153 
L 594 3053 
L 172 3053 
L 172 3500 
L 594 3500 
L 594 4494 
L 1172 4494 
z
" transform="scale(0.015625)"/>
       <path id="DejaVuSans-65" d="M 3597 1894 
L 3597 1613 
L 953 1613 
Q 991 1019 1311 708 
Q 1631 397 2203 397 
Q 2534 397 2845 478 
Q 3156 559 3463 722 
L 3463 178 
Q 3153 47 2828 -22 
Q 2503 -91 2169 -91 
Q 1331 -91 842 396 
Q 353 884 353 1716 
Q 353 2575 817 3079 
Q 1281 3584 2069 3584 
Q 2775 3584 3186 3129 
Q 3597 2675 3597 1894 
z
M 3022 2063 
Q 3016 2534 2758 2815 
Q 2500 3097 2075 3097 
Q 1594 3097 1305 2825 
Q 1016 2553 972 2059 
L 3022 2063 
z
" transform="scale(0.015625)"/>
       <path id="DejaVuSans-73" d="M 2834 3397 
L 2834 2853 
Q 2591 2978 2328 3040 
Q 2066 3103 1784 3103 
Q 1356 3103 1142 2972 
Q 928 2841 928 2578 
Q 928 2378 1081 2264 
Q 1234 2150 1697 2047 
L 1894 2003 
Q 2506 1872 2764 1633 
Q 3022 1394 3022 966 
Q 3022 478 2636 193 
Q 2250 -91 1575 -91 
Q 1294 -91 989 -36 
Q 684 19 347 128 
L 347 722 
Q 666 556 975 473 
Q 1284 391 1588 391 
Q 1994 391 2212 530 
Q 2431 669 2431 922 
Q 2431 1156 2273 1281 
Q 2116 1406 1581 1522 
L 1381 1569 
Q 847 1681 609 1914 
Q 372 2147 372 2553 
Q 372 3047 722 3315 
Q 1072 3584 1716 3584 
Q 2034 3584 2315 3537 
Q 2597 3491 2834 3397 
z
" transform="scale(0.015625)"/>
       <path id="DejaVuSans-20" transform="scale(0.015625)"/>
       <path id="DejaVuSans-63" d="M 3122 3366 
L 3122 2828 
Q 2878 2963 2633 3030 
Q 2388 3097 2138 3097 
Q 1578 3097 1268 2742 
Q 959 2388 959 1747 
Q 959 1106 1268 751 
Q 1578 397 2138 397 
Q 2388 397 2633 464 
Q 2878 531 3122 666 
L 3122 134 
Q 2881 22 2623 -34 
Q 2366 -91 2075 -91 
Q 1284 -91 818 406 
Q 353 903 353 1747 
Q 353 2603 823 3093 
Q 1294 3584 2113 3584 
Q 2378 3584 2631 3529 
Q 2884 3475 3122 3366 
z
" transform="scale(0.015625)"/>
       <path id="DejaVuSans-6f" d="M 1959 3097 
Q 1497 3097 1228 2736 
Q 959 2375 959 1747 
Q 959 1119 1226 758 
Q 1494 397 1959 397 
Q 2419 397 2687 759 
Q 2956 1122 2956 1747 
Q 2956 2369 2687 2733 
Q 2419 3097 1959 3097 
z
M 1959 3584 
Q 2709 3584 3137 3096 
Q 3566 2609 3566 1747 
Q 3566 888 3137 398 
Q 2709 -91 1959 -91 
Q 1206 -91 779 398 
Q 353 888 353 1747 
Q 353 2609 779 3096 
Q 1206 3584 1959 3584 
z
" transform="scale(0.015625)"/>
       <path id="DejaVuSans-61" d="M 2194 1759 
Q 1497 1759 1228 1600 
Q 959 1441 959 1056 
Q 959 750 1161 570 
Q 1363 391 1709 391 
Q 2188 391 2477 730 
Q 2766 1069 2766 1631 
L 2766 1759 
L 2194 1759 
z
M 3341 1997 
L 3341 0 
L 2766 0 
L 2766 531 
Q 2569 213 2275 61 
Q 1981 -91 1556 -91 
Q 1019 -91 701 211 
Q 384 513 384 1019 
Q 384 1609 779 1909 
Q 1175 2209 1959 2209 
L 2766 2209 
L 2766 2266 
Q 2766 2663 2505 2880 
Q 2244 3097 1772 3097 
Q 1472 3097 1187 3025 
Q 903 2953 641 2809 
L 641 3341 
Q 956 3463 1253 3523 
Q 1550 3584 1831 3584 
Q 2591 3584 2966 3190 
Q 3341 2797 3341 1997 
z
" transform="scale(0.015625)"/>
       <path id="DejaVuSans-72" d="M 2631 2963 
Q 2534 3019 2420 3045 
Q 2306 3072 2169 3072 
Q 1681 3072 1420 2755 
Q 1159 2438 1159 1844 
L 1159 0 
L 581 0 
L 581 3500 
L 1159 3500 
L 1159 2956 
Q 1341 3275 1631 3429 
Q 1922 3584 2338 3584 
Q 2397 3584 2469 3576 
Q 2541 3569 2628 3553 
L 2631 2963 
z
" transform="scale(0.015625)"/>
      </defs>
      <use xlink:href="#DejaVuSans-4d"/>
      <use xlink:href="#DejaVuSans-69" transform="translate(86.279297 0)"/>
      <use xlink:href="#DejaVuSans-6e" transform="translate(114.0625 0)"/>
      <use xlink:href="#DejaVuSans-75" transform="translate(177.441406 0)"/>
      <use xlink:href="#DejaVuSans-74" transform="translate(240.820312 0)"/>
      <use xlink:href="#DejaVuSans-65" transform="translate(280.029297 0)"/>
      <use xlink:href="#DejaVuSans-73" transform="translate(341.552734 0)"/>
      <use xlink:href="#DejaVuSans-20" transform="translate(393.652344 0)"/>
      <use xlink:href="#DejaVuSans-73" transform="translate(425.439453 0)"/>
      <use xlink:href="#DejaVuSans-69" transform="translate(477.539062 0)"/>
      <use xlink:href="#DejaVuSans-6e" transform="translate(505.322266 0)"/>
      <use xlink:href="#DejaVuSans-63" transform="translate(568.701172 0)"/>
      <use xlink:href="#DejaVuSans-65" transform="translate(623.681641 0)"/>
      <use xlink:href="#DejaVuSans-20" transform="translate(685.205078 0)"/>
      <use xlink:href="#DejaVuSans-73" transform="translate(716.992188 0)"/>
      <use xlink:href="#DejaVuSans-65" transform="translate(769.091797 0)"/>
      <use xlink:href="#DejaVuSans-73" transform="translate(830.615234 0)"/>
      <use xlink:href="#DejaVuSans-73" transform="translate(882.714844 0)"/>
      <use xlink:href="#DejaVuSans-69" transform="translate(934.814453 0)"/>
      <use xlink:href="#DejaVuSans-6f" transform="translate(962.597656 0)"/>
      <use xlink:href="#DejaVuSans-6e" transform="translate(1023.779297 0)"/>
      <use xlink:href="#DejaVuSans-20" transform="translate(1087.158203 0)"/>
      <use xlink:href="#DejaVuSans-73" transform="translate(1118.945312 0)"/>
      <use xlink:href="#DejaVuSans-74" transform="translate(1171.044922 0)"/>
      <use xlink:href="#DejaVuSans-61" transform="translate(1210.253906 0)"/>
      <use xlink:href="#DejaVuSans-72" transform="translate(1271.533203 0)"/>
      <use xlink:href="#DejaVuSans-74" transform="translate(1312.646484 0)"/>
     </g>
    </g>
   </g>
   <g id="matplotlib.axis_2">
    <g id="ytick_1">
     <g id="line2d_17">
      <path d="M 42.190938 196.39468 
L 935.353438 196.39468 
" clip-path="url(#pfc5e7b76e6)" style="fill: none; stroke: #eef2f7; stroke-opacity: 0.25; stroke-width: 0.55; stroke-linecap: square"/>
     </g>
     <g id="line2d_18">
      <defs>
       <path id="mc91b55db09" d="M 0 0 
L -3.5 0 
" style="stroke: #000000; stroke-width: 0.8"/>
      </defs>
      <g>
       <use xlink:href="#mc91b55db09" x="42.190938" y="196.39468" style="stroke: #000000; stroke-width: 0.8"/>
      </g>
     </g>
     <g id="text_10">
      <!-- 0.7 -->
      <g transform="translate(20.878125 199.813977) scale(0.09 -0.09)">
       <defs>
        <path id="DejaVuSans-2e" d="M 684 794 
L 1344 794 
L 1344 0 
L 684 0 
L 684 794 
z
" transform="scale(0.015625)"/>
       </defs>
       <use xlink:href="#DejaVuSans-30"/>
       <use xlink:href="#DejaVuSans-2e" transform="translate(63.623047 0)"/>
       <use xlink:href="#DejaVuSans-37" transform="translate(95.410156 0)"/>
      </g>
     </g>
    </g>
    <g id="ytick_2">
     <g id="line2d_19">
      <path d="M 42.190938 152.649909 
L 935.353438 152.649909 
" clip-path="url(#pfc5e7b76e6)" style="fill: none; stroke: #eef2f7; stroke-opacity: 0.25; stroke-width: 0.55; stroke-linecap: square"/>
     </g>
     <g id="line2d_20">
      <g>
       <use xlink:href="#mc91b55db09" x="42.190938" y="152.649909" style="stroke: #000000; stroke-width: 0.8"/>
      </g>
     </g>
     <g id="text_11">
      <!-- 0.8 -->
      <g transform="translate(20.878125 156.069206) scale(0.09 -0.09)">
       <defs>
        <path id="DejaVuSans-38" d="M 2034 2216 
Q 1584 2216 1326 1975 
Q 1069 1734 1069 1313 
Q 1069 891 1326 650 
Q 1584 409 2034 409 
Q 2484 409 2743 651 
Q 3003 894 3003 1313 
Q 3003 1734 2745 1975 
Q 2488 2216 2034 2216 
z
M 1403 2484 
Q 997 2584 770 2862 
Q 544 3141 544 3541 
Q 544 4100 942 4425 
Q 1341 4750 2034 4750 
Q 2731 4750 3128 4425 
Q 3525 4100 3525 3541 
Q 3525 3141 3298 2862 
Q 3072 2584 2669 2484 
Q 3125 2378 3379 2068 
Q 3634 1759 3634 1313 
Q 3634 634 3220 271 
Q 2806 -91 2034 -91 
Q 1263 -91 848 271 
Q 434 634 434 1313 
Q 434 1759 690 2068 
Q 947 2378 1403 2484 
z
M 1172 3481 
Q 1172 3119 1398 2916 
Q 1625 2713 2034 2713 
Q 2441 2713 2670 2916 
Q 2900 3119 2900 3481 
Q 2900 3844 2670 4047 
Q 2441 4250 2034 4250 
Q 1625 4250 1398 4047 
Q 1172 3844 1172 3481 
z
" transform="scale(0.015625)"/>
       </defs>
       <use xlink:href="#DejaVuSans-30"/>
       <use xlink:href="#DejaVuSans-2e" transform="translate(63.623047 0)"/>
       <use xlink:href="#DejaVuSans-38" transform="translate(95.410156 0)"/>
      </g>
     </g>
    </g>
    <g id="ytick_3">
     <g id="line2d_21">
      <path d="M 42.190938 108.905138 
L 935.353438 108.905138 
" clip-path="url(#pfc5e7b76e6)" style="fill: none; stroke: #eef2f7; stroke-opacity: 0.25; stroke-width: 0.55; stroke-linecap: square"/>
     </g>
     <g id="line2d_22">
      <g>
       <use xlink:href="#mc91b55db09" x="42.190938" y="108.905138" style="stroke: #000000; stroke-width: 0.8"/>
      </g>
     </g>
     <g id="text_12">
      <!-- 0.9 -->
      <g transform="translate(20.878125 112.324435) scale(0.09 -0.09)">
       <defs>
        <path id="DejaVuSans-39" d="M 703 97 
L 703 672 
Q 941 559 1184 500 
Q 1428 441 1663 441 
Q 2288 441 2617 861 
Q 2947 1281 2994 2138 
Q 2813 1869 2534 1725 
Q 2256 1581 1919 1581 
Q 1219 1581 811 2004 
Q 403 2428 403 3163 
Q 403 3881 828 4315 
Q 1253 4750 1959 4750 
Q 2769 4750 3195 4129 
Q 3622 3509 3622 2328 
Q 3622 1225 3098 567 
Q 2575 -91 1691 -91 
Q 1453 -91 1209 -44 
Q 966 3 703 97 
z
M 1959 2075 
Q 2384 2075 2632 2365 
Q 2881 2656 2881 3163 
Q 2881 3666 2632 3958 
Q 2384 4250 1959 4250 
Q 1534 4250 1286 3958 
Q 1038 3666 1038 3163 
Q 1038 2656 1286 2365 
Q 1534 2075 1959 2075 
z
" transform="scale(0.015625)"/>
       </defs>
       <use xlink:href="#DejaVuSans-30"/>
       <use xlink:href="#DejaVuSans-2e" transform="translate(63.623047 0)"/>
       <use xlink:href="#DejaVuSans-39" transform="translate(95.410156 0)"/>
      </g>
     </g>
    </g>
    <g id="ytick_4">
     <g id="line2d_23">
      <path d="M 42.190938 65.160367 
L 935.353438 65.160367 
" clip-path="url(#pfc5e7b76e6)" style="fill: none; stroke: #eef2f7; stroke-opacity: 0.25; stroke-width: 0.55; stroke-linecap: square"/>
     </g>
     <g id="line2d_24">
      <g>
       <use xlink:href="#mc91b55db09" x="42.190938" y="65.160367" style="stroke: #000000; stroke-width: 0.8"/>
      </g>
     </g>
     <g id="text_13">
      <!-- 1.0 -->
      <g transform="translate(20.878125 68.579664) scale(0.09 -0.09)">
       <use xlink:href="#DejaVuSans-31"/>
       <use xlink:href="#DejaVuSans-2e" transform="translate(63.623047 0)"/>
       <use xlink:href="#DejaVuSans-30" transform="translate(95.410156 0)"/>
      </g>
     </g>
    </g>
    <g id="ytick_5">
     <g id="line2d_25">
      <path d="M 42.190938 21.415595 
L 935.353438 21.415595 
" clip-path="url(#pfc5e7b76e6)" style="fill: none; stroke: #eef2f7; stroke-opacity: 0.25; stroke-width: 0.55; stroke-linecap: square"/>
     </g>
     <g id="line2d_26">
      <g>
       <use xlink:href="#mc91b55db09" x="42.190938" y="21.415595" style="stroke: #000000; stroke-width: 0.8"/>
      </g>
     </g>
     <g id="text_14">
      <!-- 1.1 -->
      <g transform="translate(20.878125 24.834892) scale(0.09 -0.09)">
       <use xlink:href="#DejaVuSans-31"/>
       <use xlink:href="#DejaVuSans-2e" transform="translate(63.623047 0)"/>
       <use xlink:href="#DejaVuSans-31" transform="translate(95.410156 0)"/>
      </g>
     </g>
    </g>
    <g id="text_15">
     <!-- EDA (uS) -->
     <g transform="translate(14.798438 145.183854) rotate(-90) scale(0.1 -0.1)">
      <defs>
       <path id="DejaVuSans-45" d="M 628 4666 
L 3578 4666 
L 3578 4134 
L 1259 4134 
L 1259 2753 
L 3481 2753 
L 3481 2222 
L 1259 2222 
L 1259 531 
L 3634 531 
L 3634 0 
L 628 0 
L 628 4666 
z
" transform="scale(0.015625)"/>
       <path id="DejaVuSans-44" d="M 1259 4147 
L 1259 519 
L 2022 519 
Q 2988 519 3436 956 
Q 3884 1394 3884 2338 
Q 3884 3275 3436 3711 
Q 2988 4147 2022 4147 
L 1259 4147 
z
M 628 4666 
L 1925 4666 
Q 3281 4666 3915 4102 
Q 4550 3538 4550 2338 
Q 4550 1131 3912 565 
Q 3275 0 1925 0 
L 628 0 
L 628 4666 
z
" transform="scale(0.015625)"/>
       <path id="DejaVuSans-41" d="M 2188 4044 
L 1331 1722 
L 3047 1722 
L 2188 4044 
z
M 1831 4666 
L 2547 4666 
L 4325 0 
L 3669 0 
L 3244 1197 
L 1141 1197 
L 716 0 
L 50 0 
L 1831 4666 
z
" transform="scale(0.015625)"/>
       <path id="DejaVuSans-28" d="M 1984 4856 
Q 1566 4138 1362 3434 
Q 1159 2731 1159 2009 
Q 1159 1288 1364 580 
Q 1569 -128 1984 -844 
L 1484 -844 
Q 1016 -109 783 600 
Q 550 1309 550 2009 
Q 550 2706 781 3412 
Q 1013 4119 1484 4856 
L 1984 4856 
z
" transform="scale(0.015625)"/>
       <path id="DejaVuSans-53" d="M 3425 4513 
L 3425 3897 
Q 3066 4069 2747 4153 
Q 2428 4238 2131 4238 
Q 1616 4238 1336 4038 
Q 1056 3838 1056 3469 
Q 1056 3159 1242 3001 
Q 1428 2844 1947 2747 
L 2328 2669 
Q 3034 2534 3370 2195 
Q 3706 1856 3706 1288 
Q 3706 609 3251 259 
Q 2797 -91 1919 -91 
Q 1588 -91 1214 -16 
Q 841 59 441 206 
L 441 856 
Q 825 641 1194 531 
Q 1563 422 1919 422 
Q 2459 422 2753 634 
Q 3047 847 3047 1241 
Q 3047 1584 2836 1778 
Q 2625 1972 2144 2069 
L 1759 2144 
Q 1053 2284 737 2584 
Q 422 2884 422 3419 
Q 422 4038 858 4394 
Q 1294 4750 2059 4750 
Q 2388 4750 2728 4690 
Q 3069 4631 3425 4513 
z
" transform="scale(0.015625)"/>
       <path id="DejaVuSans-29" d="M 513 4856 
L 1013 4856 
Q 1481 4119 1714 3412 
Q 1947 2706 1947 2009 
Q 1947 1309 1714 600 
Q 1481 -109 1013 -844 
L 513 -844 
Q 928 -128 1133 580 
Q 1338 1288 1338 2009 
Q 1338 2731 1133 3434 
Q 928 4138 513 4856 
z
" transform="scale(0.015625)"/>
      </defs>
      <use xlink:href="#DejaVuSans-45"/>
      <use xlink:href="#DejaVuSans-44" transform="translate(63.183594 0)"/>
      <use xlink:href="#DejaVuSans-41" transform="translate(138.435547 0)"/>
      <use xlink:href="#DejaVuSans-20" transform="translate(206.84375 0)"/>
      <use xlink:href="#DejaVuSans-28" transform="translate(238.630859 0)"/>
      <use xlink:href="#DejaVuSans-75" transform="translate(277.644531 0)"/>
      <use xlink:href="#DejaVuSans-53" transform="translate(341.023438 0)"/>
      <use xlink:href="#DejaVuSans-29" transform="translate(404.5 0)"/>
     </g>
    </g>
   </g>
   <g id="line2d_27">
    <path d="M 42.196656 170.84715 
L 42.497669 174.819511 
L 42.798682 156.6832 
L 43.099695 164.832758 
L 43.400708 149.422083 
L 43.701721 185.669858 
L 44.002734 168.719049 
L 44.303747 178.712034 
L 44.604759 169.035613 
L 44.905772 174.460369 
L 45.206785 194.409052 
L 45.507798 193.111823 
L 45.808811 183.689883 
L 46.410837 219.3232 
L 46.71185 218.06941 
L 47.313875 213.681196 
L 47.614888 210.236414 
L 47.915901 193.533881 
L 48.216914 202.751011 
L 48.517927 202.30413 
L 48.81894 184.918851 
L 49.119953 179.829249 
L 49.420965 178.985132 
L 49.721978 176.285152 
L 50.022991 209.398503 
L 50.324004 202.577228 
L 50.625017 207.455762 
L 50.92603 202.335158 
L 51.227043 162.338449 
L 51.528056 200.038619 
L 51.829068 215.779103 
L 52.130081 186.228466 
L 52.431094 177.079624 
L 52.732107 175.813449 
L 53.03312 193.962172 
L 53.334133 188.2457 
L 53.635146 189.220161 
L 53.936159 205.767528 
L 54.237171 192.497365 
L 54.538184 185.440199 
L 54.839197 186.451919 
L 55.14021 202.955821 
L 55.441223 206.530946 
L 55.742236 203.228919 
L 56.043249 177.818246 
L 56.344262 176.297589 
L 56.645274 167.682533 
L 56.946287 165.354967 
L 57.2473 170.022484 
L 57.548313 170.078361 
L 57.849326 163.79705 
L 58.150339 145.896629 
L 58.451352 164.982553 
L 58.752365 162.990167 
L 59.053377 164.765331 
L 59.35439 162.425354 
L 59.655403 153.897202 
L 59.956416 156.913719 
L 60.257429 155.380625 
L 60.558442 154.90269 
L 60.859455 153.717187 
L 61.160468 151.991694 
L 61.46148 152.028953 
L 61.762493 154.486837 
L 62.063506 154.070984 
L 62.364519 153.189608 
L 62.665532 159.43989 
L 62.966545 157.888179 
L 63.267558 163.070866 
L 63.568571 162.263982 
L 63.869583 162.164667 
L 64.170596 162.338449 
L 64.471609 162.692246 
L 64.772622 163.902571 
L 65.073635 163.989476 
L 65.374648 160.060554 
L 65.675661 158.800584 
L 65.976674 156.795787 
L 66.277686 156.826815 
L 66.578699 154.294438 
L 66.879712 152.941358 
L 67.180725 154.623386 
L 67.481738 152.959975 
L 67.782751 156.640595 
L 68.083764 163.027426 
L 68.384777 163.871543 
L 68.685789 162.059145 
L 68.986802 161.81087 
L 69.287815 158.570925 
L 69.588828 159.036449 
L 69.889841 162.282599 
L 70.190854 160.048143 
L 70.79288 159.247465 
L 71.093892 153.3448 
L 71.695918 152.686877 
L 71.996931 151.619306 
L 72.297944 151.65654 
L 72.598957 151.557224 
L 72.89997 150.756546 
L 73.200983 150.837245 
L 73.501995 151.153782 
L 73.803008 150.880684 
L 74.104021 151.116549 
L 74.706047 149.428289 
L 75.00706 150.197939 
L 75.308073 148.366924 
L 75.609086 152.28964 
L 75.910098 151.873788 
L 76.211111 153.419267 
L 76.512124 153.903407 
L 76.813137 154.157889 
L 77.415163 154.039956 
L 77.716176 152.77996 
L 78.017189 147.510396 
L 78.619214 144.866292 
L 78.920227 145.375255 
L 79.22124 144.580783 
L 79.522253 144.400769 
L 80.425292 143.15321 
L 80.726304 143.804928 
L 81.027317 141.024275 
L 82.833395 140.980836 
L 83.134408 138.858106 
L 83.43542 139.124999 
L 83.736433 140.931165 
L 84.338459 138.013963 
L 84.639472 138.746379 
L 84.940485 137.647755 
L 85.241498 140.999453 
L 85.542511 140.521518 
L 85.843523 139.739457 
L 86.144536 140.775999 
L 86.445549 140.322913 
L 86.746562 138.870517 
L 87.047575 134.40781 
L 87.348588 134.805046 
L 87.649601 134.004369 
L 87.950614 134.718142 
L 88.251626 133.507817 
L 88.552639 133.116786 
L 88.853652 133.079553 
L 89.756691 129.516839 
L 90.057704 129.063753 
L 90.358717 128.85271 
L 90.659729 129.479606 
L 90.960742 129.144425 
L 91.261755 128.424446 
L 91.562768 126.506527 
L 91.863781 127.449986 
L 92.164794 127.05275 
L 92.465807 127.245149 
L 93.368845 124.762417 
L 93.669858 125.035515 
L 93.970871 124.954843 
L 94.271884 126.692747 
L 94.572897 119.412154 
L 94.87391 118.822518 
L 95.174923 121.094208 
L 95.475935 120.628685 
L 95.776948 124.830705 
L 96.077961 124.048644 
L 96.378974 124.185193 
L 96.679987 123.086594 
L 96.981 123.446571 
L 97.583026 122.285917 
L 97.884038 122.366589 
L 99.08809 120.523163 
L 99.389103 120.833521 
L 99.690116 120.82111 
L 99.991129 119.877678 
L 100.292141 120.678355 
L 100.593154 120.063871 
L 100.894167 117.674249 
L 101.19518 119.275605 
L 101.496193 119.641813 
L 101.797206 116.67494 
L 102.098219 115.731508 
L 102.399232 115.79359 
L 102.700244 115.601164 
L 103.001257 115.253599 
L 103.30227 115.11705 
L 103.603283 114.63291 
L 104.205309 114.96809 
L 104.506322 112.826717 
L 105.40936 110.91503 
L 105.710373 111.566747 
L 106.011386 115.886674 
L 106.312399 116.029455 
L 106.613412 117.183903 
L 106.914425 116.271499 
L 107.215438 116.705994 
L 107.51645 114.601882 
L 108.118476 114.322578 
L 108.419489 114.465332 
L 109.021515 112.255699 
L 109.322528 112.497769 
L 109.623541 113.019143 
L 109.924553 112.243287 
L 110.225566 112.026039 
L 110.526579 110.660549 
L 110.827592 110.38745 
L 111.128605 109.946775 
L 111.429618 110.046065 
L 112.031644 108.1592 
L 112.332656 108.45712 
L 112.934682 107.159917 
L 113.235695 107.04819 
L 113.536708 107.519893 
L 113.837721 106.514405 
L 114.138734 106.80612 
L 114.439747 106.65716 
L 114.740759 107.308877 
L 115.041772 106.731627 
L 115.342785 105.26682 
L 115.643798 104.869584 
L 116.245824 104.813734 
L 116.546837 104.646157 
L 117.148862 103.553764 
L 117.449875 103.609614 
L 117.750888 103.510299 
L 119.255953 101.952382 
L 119.556965 101.772394 
L 119.857978 100.748263 
L 120.158991 101.021361 
L 120.460004 100.946894 
L 120.761017 99.997256 
L 121.06203 100.928277 
L 121.363043 100.270354 
L 121.664056 99.227606 
L 121.965068 98.68141 
L 122.266081 98.675204 
L 122.567094 97.824855 
L 123.16912 97.620045 
L 123.470133 97.831061 
L 123.771146 96.806956 
L 124.072159 96.453159 
L 124.373171 96.620736 
L 124.674184 98.054514 
L 124.975197 96.620736 
L 125.27621 97.166932 
L 125.577223 96.490392 
L 125.878236 96.571091 
L 126.179249 95.35456 
L 126.480262 95.596631 
L 126.781274 94.771104 
L 127.082287 95.143518 
L 127.3833 95.093873 
L 127.684313 94.603527 
L 127.985326 93.815261 
L 128.286339 93.933193 
L 128.888365 92.989761 
L 129.189377 93.753205 
L 129.49039 92.704251 
L 130.092416 92.307015 
L 130.393429 93.082871 
L 130.694442 91.77323 
L 130.995455 91.276678 
L 131.296468 91.202185 
L 131.597481 90.593933 
L 131.898493 90.395302 
L 132.199506 91.022197 
L 132.500519 92.847006 
L 132.801532 84.542281 
L 133.102545 83.214024 
L 133.403558 77.466525 
L 133.704571 78.540301 
L 134.005583 78.037543 
L 134.306596 77.863761 
L 134.607609 77.85135 
L 135.209635 76.833424 
L 135.510648 76.994795 
L 135.811661 76.895506 
L 136.112674 76.11965 
L 136.413687 76.088623 
L 136.714699 77.019644 
L 137.015712 75.945868 
L 137.316723 76.057568 
L 137.617734 75.716209 
L 137.918745 75.846552 
L 138.520767 75.095519 
L 138.821778 75.120342 
L 139.122789 74.673461 
L 139.423801 74.61761 
L 139.724812 74.37554 
L 140.025823 74.679666 
L 140.326834 73.140367 
L 140.627845 73.699 
L 140.928856 73.078311 
L 141.229867 72.842446 
L 141.831889 72.147289 
L 142.1329 72.308661 
L 142.433911 71.452133 
L 142.734922 71.123158 
L 143.035933 71.123158 
L 143.637956 70.396974 
L 143.938967 69.236293 
L 144.239978 69.34802 
L 144.540989 69.081127 
L 144.842 69.118361 
L 145.444022 68.286655 
L 145.745033 68.801824 
L 146.046044 76.175501 
L 146.347055 77.56584 
L 146.648067 77.392031 
L 146.949078 78.602383 
L 147.250089 78.260997 
L 147.852111 78.29823 
L 148.153122 77.869966 
L 148.454133 78.087214 
L 148.755144 77.143782 
L 149.056155 77.900994 
L 149.658177 76.771368 
L 149.959188 77.491347 
L 150.260199 76.83963 
L 150.56121 77.32377 
L 150.862222 75.939636 
L 151.163233 76.237583 
L 151.464244 75.505167 
L 151.765255 75.97069 
L 152.367277 75.964485 
L 152.668288 75.474139 
L 152.969299 76.74034 
L 153.27031 75.63551 
L 153.571321 76.094828 
L 153.872332 75.871375 
L 154.173344 75.232068 
L 154.474355 74.971381 
L 154.775366 75.840347 
L 155.076377 75.232068 
L 155.377388 76.169295 
L 155.678399 75.070697 
L 155.97941 74.915531 
L 156.280421 75.20104 
L 156.581432 74.301047 
L 156.882443 74.816215 
L 157.183454 74.145881 
L 157.484465 73.847961 
L 157.785476 74.18932 
L 158.086488 73.959687 
L 158.387499 73.878989 
L 158.68851 73.432108 
L 158.989521 73.581068 
L 159.290532 73.537603 
L 159.591543 72.451416 
L 159.892554 72.947967 
L 160.494576 72.308661 
L 160.795587 71.632121 
L 161.397609 71.402462 
L 161.698621 71.085925 
L 161.999632 71.632121 
L 162.300643 71.439722 
L 162.902665 71.985918 
L 163.203676 71.061102 
L 163.504687 70.893499 
L 163.805698 70.564551 
L 164.106709 70.986609 
L 164.40772 70.055588 
L 164.708731 70.291452 
L 165.009742 69.825929 
L 165.310754 69.596296 
L 165.611765 69.770078 
L 166.213787 70.452824 
L 166.514798 69.881805 
L 166.815809 70.601784 
L 167.11682 68.956989 
L 167.417831 69.695585 
L 167.718842 69.01284 
L 168.019853 68.981812 
L 168.320864 68.448027 
L 168.621875 68.584576 
L 168.922886 68.491466 
L 169.223898 68.690097 
L 169.524909 68.162517 
L 169.82592 68.435615 
L 170.126931 67.858391 
L 170.728953 67.864597 
L 171.029964 67.163208 
L 171.330975 67.759076 
L 171.631986 66.902521 
L 171.932997 67.113564 
L 172.234008 67.144592 
L 172.535019 66.567367 
L 173.137042 67.287346 
L 173.739064 66.002554 
L 174.040075 66.703916 
L 174.341086 66.15772 
L 174.642097 66.530134 
L 174.943108 66.703916 
L 175.244119 66.635629 
L 175.846141 66.021171 
L 176.147152 65.121151 
L 176.448164 66.219776 
L 176.749175 66.368736 
L 177.050186 65.456358 
L 177.351197 65.028068 
L 177.652208 65.897033 
L 178.555241 64.28324 
L 178.856252 64.457049 
L 179.157263 63.879824 
L 179.458274 63.855002 
L 179.759285 63.606726 
L 180.060297 64.370171 
L 180.361308 63.395684 
L 180.662319 64.835642 
L 180.96333 63.867413 
L 181.565352 63.333628 
L 181.866363 63.873619 
L 182.468385 62.911544 
L 182.769396 62.81846 
L 183.070407 62.557773 
L 183.371418 62.63224 
L 183.672429 61.558464 
L 183.973441 61.7633 
L 184.274452 62.87431 
L 184.575463 62.303291 
L 184.876474 62.098455 
L 185.177485 62.067427 
L 185.478496 62.53295 
L 186.080518 62.675679 
L 186.381529 61.924646 
L 186.68254 61.769506 
L 186.983551 62.259852 
L 187.284562 61.831562 
L 187.585574 61.955726 
L 187.886585 61.341216 
L 188.187596 61.99296 
L 188.488607 61.347422 
L 188.789618 61.09294 
L 189.090629 60.689524 
L 189.39164 60.683319 
L 189.692651 60.043986 
L 189.993662 60.484688 
L 190.294673 60.372987 
L 190.595684 60.683319 
L 190.896695 60.720552 
L 191.197707 59.032319 
L 191.498718 59.721244 
L 191.799729 60.056398 
L 192.10074 59.448145 
L 192.401751 59.621954 
L 192.702762 59.193664 
L 193.003773 59.131608 
L 193.304784 59.268131 
L 193.605795 59.274337 
L 194.207817 58.976416 
L 194.80984 58.777837 
L 195.411862 59.373678 
L 196.013884 58.982622 
L 196.314895 59.119197 
L 196.615906 57.859201 
L 196.916917 58.194355 
L 197.217928 58.132299 
L 197.518939 57.877818 
L 197.81995 58.082654 
L 198.120961 57.238537 
L 198.421973 57.524047 
L 198.722984 57.50543 
L 199.023995 57.046112 
L 199.325006 57.50543 
L 199.626017 57.437169 
L 199.927028 50.595373 
L 200.228039 49.881574 
L 200.52905 49.776079 
L 200.830061 50.285041 
L 201.131072 50.446387 
L 201.432083 49.906396 
L 201.733094 50.210574 
L 202.034105 49.751256 
L 202.335117 50.173289 
L 202.636128 50.396742 
L 202.937139 48.30504 
L 203.23815 47.845774 
L 203.539161 46.858877 
L 203.840172 46.281652 
L 204.141183 46.914727 
L 204.442194 46.815438 
L 204.743205 47.163003 
L 205.044216 46.883699 
L 205.646238 47.18162 
L 205.94725 47.088536 
L 206.248261 47.225059 
L 206.549272 46.821643 
L 206.850283 47.069919 
L 207.151294 46.815438 
L 207.452305 47.349223 
L 207.753316 46.449203 
L 208.054327 46.492695 
L 208.355338 46.834054 
L 208.656349 50.465056 
L 208.95736 50.235397 
L 209.258371 50.229191 
L 209.559383 50.570551 
L 209.860394 50.229191 
L 210.161405 50.247808 
L 210.462416 49.651967 
L 211.064438 49.627092 
L 211.365449 49.918859 
L 211.66646 50.452645 
L 211.967471 49.881574 
L 212.268482 49.651967 
L 212.569493 50.173289 
L 213.472527 49.484364 
L 213.773538 50.03056 
L 214.37556 50.260219 
L 214.676571 49.813312 
L 214.977582 49.645709 
L 215.278593 49.670584 
L 215.579604 49.056073 
L 216.181626 49.254705 
L 216.783649 49.291938 
L 217.08466 49.496775 
L 217.385671 49.378816 
L 217.686682 48.67748 
L 217.987693 49.161621 
L 218.288704 47.988503 
L 218.589715 47.653349 
L 218.890726 48.472644 
L 219.191737 48.255396 
L 219.793759 48.224368 
L 220.09477 48.050559 
L 220.395781 48.286424 
L 220.696793 48.714714 
L 220.997804 47.969886 
L 221.298815 47.808541 
L 221.900837 48.497466 
L 222.201848 48.360943 
L 222.502859 47.752638 
L 223.104881 47.79613 
L 223.706903 46.629218 
L 224.007914 47.175414 
L 224.308926 47.200236 
L 224.609937 47.343017 
L 224.910948 47.336812 
L 225.211959 46.865082 
L 225.813981 47.572676 
L 226.114992 46.933344 
L 227.018025 46.399559 
L 227.319036 46.815438 
L 227.620047 46.89611 
L 227.921059 46.107844 
L 228.22207 46.939549 
L 228.523081 47.094741 
L 228.824092 46.722302 
L 229.426114 46.834054 
L 229.727125 46.4989 
L 230.028136 47.3244 
L 230.329147 44.183745 
L 230.630158 44.580955 
L 230.931169 43.563082 
L 231.23218 43.997525 
L 231.533192 43.898236 
L 231.834203 43.383067 
L 232.436225 43.078941 
L 233.038247 43.370656 
L 233.339258 42.613418 
L 233.640269 42.334114 
L 233.94128 41.856179 
L 234.242291 42.458226 
L 234.543302 42.39617 
L 234.844313 42.029988 
L 235.446336 40.931389 
L 235.747347 41.09894 
L 236.048358 40.689319 
L 236.65038 40.695525 
L 236.951391 40.310674 
L 237.252402 43.060324 
L 237.553413 44.456843 
L 237.854424 44.487871 
L 238.155435 45.164437 
L 238.456446 44.835437 
L 238.757457 44.767175 
L 239.058469 44.940984 
L 239.35948 44.276829 
L 239.660491 44.636858 
L 239.961502 44.276829 
L 240.262513 44.612035 
L 240.563524 44.549927 
L 240.864535 44.351348 
L 241.466557 44.494077 
L 241.767568 44.400993 
L 242.068579 44.655474 
L 242.36959 44.295446 
L 242.971613 44.07825 
L 243.573635 44.580955 
L 243.874646 44.189951 
L 244.175657 44.276829 
L 244.476668 44.481666 
L 245.07869 43.538207 
L 245.379701 43.556876 
L 245.680712 44.220979 
L 246.282735 44.121689 
L 246.583746 43.370656 
L 246.884757 43.550671 
L 247.185768 44.351348 
L 247.486779 44.009936 
L 247.78779 44.084456 
L 248.088801 44.71753 
L 248.389812 44.208568 
L 248.690823 42.427198 
L 248.991834 43.153408 
L 249.292845 43.3086 
L 249.593856 42.017576 
L 249.894867 43.12238 
L 250.195879 42.05481 
L 250.49689 42.365142 
L 250.797901 42.036193 
L 251.098912 42.067221 
L 251.399923 42.942366 
L 251.700934 43.078941 
L 252.001945 42.892721 
L 252.302956 42.923749 
L 252.603967 43.227875 
L 252.904978 42.104455 
L 253.205989 42.470637 
L 253.507 43.258903 
L 253.808012 42.929955 
L 254.109023 43.618932 
L 254.410034 43.513385 
L 254.711045 43.097558 
L 255.012056 43.389273 
L 255.313067 44.04717 
L 255.614078 43.12238 
L 255.915089 41.589286 
L 256.2161 42.992011 
L 256.517111 42.93616 
L 256.818122 43.625138 
L 257.119133 43.532002 
L 257.420144 44.034759 
L 257.721156 43.972703 
L 258.323178 43.376862 
L 258.624189 43.513385 
L 258.9252 43.51959 
L 259.226211 43.89203 
L 259.828233 44.053376 
L 260.129244 44.152717 
L 260.430255 44.065787 
L 260.731266 43.736838 
L 261.032278 44.034759 
L 261.333289 43.581698 
L 261.6343 43.761661 
L 261.935311 44.146512 
L 262.236322 44.090661 
L 262.537333 45.319577 
L 262.838344 45.816129 
L 263.139355 44.096867 
L 263.440366 44.804409 
L 263.741377 44.798203 
L 264.64441 43.606521 
L 265.246433 44.612035 
L 265.547444 44.258212 
L 265.848455 44.307857 
L 266.149466 43.947881 
L 266.751488 45.065096 
L 267.052499 44.283035 
L 267.35351 45.536825 
L 267.955532 46.349914 
L 268.256544 45.338194 
L 268.557555 45.480975 
L 268.858566 45.207876 
L 269.159577 44.17754 
L 269.460588 44.723736 
L 270.06261 44.866465 
L 270.363621 43.904441 
L 270.664632 44.456843 
L 270.965643 44.388582 
L 271.266654 44.754764 
L 271.567665 44.841642 
L 271.868676 44.444432 
L 272.169687 44.612035 
L 272.470699 45.071301 
L 273.072728 44.270623 
L 273.37374 44.487871 
L 273.975764 44.41961 
L 274.276776 43.89203 
L 274.8788 44.972012 
L 275.179812 44.618241 
L 275.480824 41.154791 
L 275.781836 41.111351 
L 276.082848 39.845202 
L 276.38386 40.956212 
L 276.684872 40.621005 
L 276.985883 39.553435 
L 277.286895 39.435529 
L 277.587907 43.482357 
L 277.888919 44.686502 
L 278.189931 44.643063 
L 278.490943 44.990629 
L 278.791955 44.57475 
L 279.092967 44.692708 
L 279.393979 44.47546 
L 279.694991 44.562338 
L 279.996003 44.208568 
L 280.297015 44.878928 
L 280.598027 44.171334 
L 280.899039 43.910647 
L 281.200051 44.487871 
L 281.501063 43.997525 
L 282.103086 44.065787 
L 282.404098 44.17754 
L 283.006122 43.383067 
L 283.307134 44.028553 
L 283.608146 43.51959 
L 284.21017 43.64996 
L 284.511182 43.556876 
L 284.812194 43.600315 
L 285.113206 42.998216 
L 285.414218 43.302395 
L 286.317254 43.339628 
L 286.618266 43.159614 
L 286.919278 42.787226 
L 287.22029 43.792689 
L 287.822313 42.05481 
L 288.123325 41.986548 
L 288.424337 41.552053 
L 288.725349 41.539642 
L 289.026361 41.223104 
L 289.327373 41.34101 
L 289.628385 40.993445 
L 290.230409 40.993445 
L 290.531421 41.055501 
L 290.832433 28.71018 
L 291.133445 26.692946 
L 291.434457 27.412951 
L 291.735469 27.369511 
L 292.036481 28.257068 
L 292.337492 28.443287 
L 292.638504 37.765912 
L 292.939516 38.653468 
L 293.54154 39.528613 
L 293.842552 40.27344 
L 294.143564 40.254823 
L 294.444576 39.93208 
L 294.745588 39.435529 
L 295.0466 39.162431 
L 295.347612 39.901052 
L 295.648624 39.541024 
L 295.949636 40.062398 
L 296.250648 39.541024 
L 296.852672 39.783094 
L 297.454696 38.907949 
L 297.755707 38.703112 
L 298.056719 33.725289 
L 298.357731 33.973513 
L 298.658743 33.731495 
L 298.959755 34.116294 
L 299.260767 34.774191 
L 299.561779 37.995571 
L 299.862791 38.007982 
L 300.163803 38.510739 
L 300.464815 40.664497 
L 300.765827 41.241721 
L 301.066839 41.092735 
L 301.367851 40.745169 
L 301.668863 39.63416 
L 301.969875 40.64588 
L 302.270887 39.901052 
L 302.571899 40.540333 
L 302.872911 40.124506 
L 303.173923 39.50379 
L 303.474934 39.963108 
L 303.775946 39.820328 
L 304.076958 39.460351 
L 304.37797 39.783094 
L 304.678982 39.441734 
L 304.979994 39.454146 
L 305.281006 38.703112 
L 305.582018 38.86451 
L 305.88303 37.834173 
L 306.184042 38.914155 
L 306.485054 38.250052 
L 307.087078 35.947308 
L 307.38809 37.331416 
L 307.689102 36.636233 
L 307.990114 37.362444 
L 308.291125 32.694952 
L 308.592137 36.01557 
L 308.893149 36.096242 
L 309.194161 35.61836 
L 309.495173 35.891458 
L 310.097197 34.786654 
L 310.398209 35.717649 
L 310.699221 35.034878 
L 311.301245 35.078369 
L 311.602257 36.15835 
L 311.903269 36.419037 
L 312.204281 35.239714 
L 312.505293 35.705238 
L 313.107317 37.542458 
L 313.408329 37.331416 
L 313.70934 36.518327 
L 314.010352 36.543149 
L 314.311364 36.096242 
L 314.612376 36.009364 
L 314.913388 36.474888 
L 315.2144 35.922486 
L 315.515412 37.145196 
L 315.816424 37.585897 
L 316.418448 37.623131 
L 316.71946 37.337622 
L 317.020472 36.822453 
L 317.321484 37.449374 
L 317.622496 36.797631 
L 317.923508 37.486608 
L 318.826544 36.903126 
L 319.127555 35.872841 
L 319.428567 36.729369 
L 319.729579 36.921795 
L 320.030591 36.325901 
L 320.331603 36.319696 
L 320.632615 36.791425 
L 320.933627 36.661108 
L 321.234639 36.294873 
L 321.836663 36.592794 
L 322.137675 36.176967 
L 322.438687 36.207995 
L 322.739699 36.040392 
L 323.040711 36.152145 
L 323.341723 36.536944 
L 323.642735 37.443169 
L 324.244758 36.673519 
L 324.54577 37.002467 
L 324.846782 36.89692 
L 325.147794 37.225921 
L 325.448806 37.312799 
L 325.749818 37.225921 
L 326.05083 36.536944 
L 326.652854 36.648697 
L 326.953866 36.692136 
L 327.254878 37.182482 
L 327.55589 36.959028 
L 327.856902 37.170018 
L 328.157914 37.623131 
L 328.458926 37.430705 
L 328.759938 36.207995 
L 329.06095 36.654902 
L 329.361961 35.742472 
L 329.963985 36.611411 
L 330.264997 35.270742 
L 330.566009 35.705238 
L 330.867021 36.55556 
L 331.168033 36.282462 
L 331.469045 36.164556 
L 331.770057 36.294873 
L 332.071069 37.232126 
L 332.372081 36.983851 
L 332.673093 36.400421 
L 332.974105 36.983851 
L 333.275117 37.008673 
L 333.576129 37.418294 
L 333.877141 36.536944 
L 334.178153 36.971439 
L 334.479165 36.07142 
L 334.780176 36.890715 
L 335.081188 37.039701 
L 335.3822 36.083831 
L 335.683212 35.835555 
L 335.984224 37.151402 
L 336.285236 37.170018 
L 336.586248 37.356238 
L 336.88726 37.095551 
L 337.188272 35.953514 
L 337.489284 37.26936 
L 338.091308 38.287286 
L 338.39232 38.28108 
L 338.693332 38.03901 
L 338.994344 38.262463 
L 339.295356 37.933463 
L 339.596368 38.367958 
L 339.897379 37.579692 
L 340.198391 37.79694 
L 340.499403 36.747986 
L 340.800415 37.461785 
L 341.101427 37.536253 
L 341.402439 37.089346 
L 341.703451 38.324519 
L 342.004463 37.151402 
L 342.305475 38.206561 
L 342.606487 38.293491 
L 342.907499 36.928 
L 343.208511 37.548664 
L 343.509523 38.709318 
L 343.810535 37.989365 
L 344.111547 38.554178 
L 344.412559 38.330725 
L 344.713571 38.585206 
L 345.014583 39.044524 
L 345.616606 37.697598 
L 345.917618 36.220406 
L 346.21863 36.611411 
L 346.519642 37.250743 
L 346.820654 37.275566 
L 347.121666 37.691392 
L 347.422678 37.486608 
L 347.72369 36.754192 
L 348.024702 37.598309 
L 348.325714 36.692136 
L 348.626726 36.921795 
L 348.927738 36.822453 
L 349.22875 37.244538 
L 349.529762 37.076935 
L 349.830774 36.350724 
L 350.131786 37.672776 
L 350.432797 36.940411 
L 350.733809 37.784528 
L 351.034821 38.187944 
L 351.335833 38.250052 
L 351.636845 37.145196 
L 351.937857 37.170018 
L 352.238869 37.064523 
L 352.840893 36.543149 
L 353.141905 36.059009 
L 353.442917 36.754192 
L 353.743929 36.338313 
L 354.345953 37.958285 
L 354.947977 37.26936 
L 355.248989 37.964491 
L 355.55 37.697598 
L 355.851012 37.697598 
L 356.152024 38.386575 
L 356.453036 37.778323 
L 356.754048 38.057627 
L 357.356072 36.959028 
L 357.657084 36.89692 
L 357.958096 37.474197 
L 358.259108 37.548664 
L 358.56012 36.996262 
L 358.861132 36.990056 
L 359.162144 37.21351 
L 359.463156 36.884509 
L 359.764168 37.182482 
L 360.06518 36.884509 
L 360.366192 37.474197 
L 360.667204 37.387266 
L 360.968216 37.815556 
L 361.570239 36.928 
L 362.172263 37.703804 
L 362.473275 37.877612 
L 363.075299 38.746552 
L 363.677323 39.025855 
L 363.978335 38.163122 
L 364.279347 38.212766 
L 364.580359 37.672776 
L 364.881371 38.647262 
L 365.483395 38.541767 
L 366.085419 37.846584 
L 366.38643 37.008673 
L 366.687442 37.592103 
L 366.988454 37.492813 
L 367.289466 37.058318 
L 367.590478 38.305902 
L 368.192502 37.865201 
L 368.493514 36.909384 
L 369.095538 38.119683 
L 369.39655 37.927257 
L 369.697562 38.305902 
L 369.998574 37.592103 
L 370.299586 37.474197 
L 370.90161 35.922486 
L 371.202622 36.183173 
L 371.503633 35.990747 
L 371.804645 35.512812 
L 372.105657 35.605948 
L 372.406669 37.759706 
L 372.707681 36.586588 
L 373.008693 37.319005 
L 373.309705 36.474888 
L 373.610717 36.44386 
L 373.911729 36.940411 
L 374.513753 37.263154 
L 374.814765 37.598309 
L 375.115777 37.188687 
L 375.416789 37.182482 
L 375.717801 37.4245 
L 376.018813 36.68593 
L 376.319825 37.896229 
L 376.620837 37.505225 
L 376.921848 37.964491 
L 377.523872 37.846584 
L 377.824884 37.02729 
L 378.125896 37.275566 
L 378.426908 37.840379 
L 378.72792 37.834173 
L 379.630956 37.461785 
L 381.136016 37.51143 
L 381.437028 37.145196 
L 382.039051 38.088655 
L 382.340063 37.418294 
L 382.641075 37.26936 
L 382.942087 36.946617 
L 383.243099 36.928 
L 383.544111 37.449374 
L 383.845123 36.803836 
L 384.146135 37.300388 
L 384.447147 36.518327 
L 384.748159 36.791425 
L 385.049171 36.872098 
L 385.350183 36.55556 
L 385.651195 36.692136 
L 386.253219 36.605205 
L 386.554231 36.207995 
L 387.156254 36.990056 
L 387.457266 36.344518 
L 387.758278 36.636233 
L 388.05929 35.475579 
L 388.360302 36.220406 
L 388.661314 36.152145 
L 388.962326 35.481785 
L 389.263338 36.716958 
L 389.56435 35.593537 
L 389.865362 35.550046 
L 390.166374 35.289359 
L 390.768398 37.492813 
L 391.06941 37.368649 
L 391.370422 37.014879 
L 391.671434 37.331416 
L 391.972446 36.127323 
L 392.273458 36.406626 
L 392.57447 37.337622 
L 393.176493 36.990056 
L 393.477505 37.263154 
L 393.778517 33.619742 
L 394.079529 35.00385 
L 394.380541 34.643873 
L 394.681553 35.214892 
L 394.982565 34.910766 
L 395.283577 35.469373 
L 395.584589 34.823887 
L 395.885601 35.214892 
L 396.186613 35.196275 
L 396.487625 34.544584 
L 396.788637 35.835555 
L 397.089649 34.271485 
L 397.390661 34.954205 
L 397.691673 34.966616 
L 397.992684 34.79286 
L 398.293696 34.159733 
L 398.594708 35.438345 
L 398.89572 35.568663 
L 399.196732 32.365952 
L 399.497744 33.079751 
L 399.798756 35.345261 
L 400.099768 34.625256 
L 400.40078 35.668004 
L 400.701792 35.512812 
L 401.002804 36.139734 
L 401.303816 35.705238 
L 401.604828 35.761088 
L 401.90584 36.170762 
L 402.206852 35.252125 
L 402.507864 35.537635 
L 402.808876 36.481093 
L 403.109887 36.723164 
L 403.410899 35.450757 
L 403.711911 36.282462 
L 404.012923 36.245229 
L 404.313935 35.661799 
L 404.614947 35.61836 
L 404.915959 35.363878 
L 405.517983 35.953514 
L 405.818995 36.505916 
L 406.120007 35.252125 
L 406.421019 34.972822 
L 406.722031 35.848019 
L 407.324055 35.680416 
L 407.625067 35.295565 
L 408.227091 35.953514 
L 408.528107 35.934897 
L 408.829119 36.270051 
L 409.130131 35.953514 
L 409.431143 36.332107 
L 409.732155 36.065214 
L 410.033167 36.462477 
L 410.334179 38.070038 
L 410.635191 38.324519 
L 410.936203 38.19415 
L 411.237215 38.287286 
L 411.538227 38.144505 
L 411.839239 38.312108 
L 412.140251 38.088655 
L 412.441263 38.063832 
L 412.742275 36.176967 
L 413.043287 37.592103 
L 413.344299 37.343827 
L 413.645311 37.26936 
L 413.946323 36.816247 
L 414.247335 38.256258 
L 414.548347 37.846584 
L 414.849359 38.361753 
L 415.150371 38.218972 
L 415.752395 37.449374 
L 416.053407 37.722473 
L 416.354419 37.722473 
L 416.655431 37.08314 
L 416.956443 37.517636 
L 417.257455 38.218972 
L 418.16049 37.399677 
L 418.461502 37.107962 
L 418.762514 37.014879 
L 419.063526 36.096242 
L 419.364538 37.542458 
L 419.66555 37.412089 
L 419.966562 37.008673 
L 420.568586 36.890715 
L 420.869598 36.617616 
L 421.17061 37.641748 
L 421.471622 36.983851 
L 421.772634 37.120374 
L 422.073646 36.952823 
L 422.976682 36.977645 
L 423.277694 36.369341 
L 423.578706 36.68593 
L 423.879718 37.393472 
L 424.18073 36.623822 
L 424.481742 36.220406 
L 424.782754 37.207304 
L 425.083766 36.599 
L 425.68579 38.411397 
L 426.588826 38.386575 
L 426.889838 38.274874 
L 427.19085 37.7535 
L 427.491862 38.38037 
L 427.792874 38.119683 
L 428.093886 38.504534 
L 428.394898 37.85279 
L 428.69591 38.082449 
L 428.996922 32.074237 
L 429.297934 36.561766 
L 429.598946 36.431449 
L 429.899958 36.909384 
L 430.20097 36.027981 
L 430.501982 36.636233 
L 430.802994 36.276257 
L 431.104006 36.952823 
L 431.405018 36.760397 
L 431.70603 37.399677 
L 432.007042 37.045907 
L 432.308053 37.430705 
L 432.609065 37.182482 
L 432.910077 37.945874 
L 433.211089 38.367958 
L 433.813113 37.728678 
L 434.114125 38.169327 
L 434.415137 38.262463 
L 434.716149 38.206561 
L 435.017161 37.939668 
L 435.318173 38.33693 
L 435.619185 37.505225 
L 435.920197 38.03901 
L 436.221209 38.293491 
L 436.522221 37.734884 
L 436.823233 37.933463 
L 437.124245 38.361753 
L 437.425257 37.970748 
L 437.726269 37.194893 
L 438.027281 38.063832 
L 438.328293 37.492813 
L 438.930317 38.287286 
L 439.231329 37.914846 
L 439.532341 38.746552 
L 439.833353 38.09486 
L 440.134365 38.070038 
L 440.435377 38.169327 
L 440.736389 39.125197 
L 441.037401 39.01965 
L 441.338413 38.125888 
L 441.639425 38.063832 
L 441.940437 37.877612 
L 442.241449 38.740346 
L 442.843473 37.678981 
L 443.144485 38.125888 
L 443.746509 38.200355 
L 444.047521 37.678981 
L 444.649545 37.287977 
L 444.950557 38.03901 
L 445.251569 38.448631 
L 445.552581 37.101757 
L 445.853593 37.26936 
L 446.154605 37.722473 
L 446.455616 37.747295 
L 446.756628 37.921051 
L 447.05764 37.21351 
L 447.358652 37.08314 
L 447.659664 37.337622 
L 447.960676 38.417603 
L 448.261688 37.21351 
L 448.863712 36.462477 
L 450.06776 37.374855 
L 450.368772 35.922486 
L 450.669784 36.648697 
L 450.970796 37.045907 
L 451.57282 36.406626 
L 451.873832 35.810733 
L 452.174844 37.089346 
L 452.475856 36.55556 
L 452.776868 35.264537 
L 453.07788 36.251434 
L 453.378892 35.643182 
L 453.980916 36.462477 
L 454.281928 36.226612 
L 454.58294 36.915589 
L 454.883952 35.866635 
L 455.485976 36.406626 
L 455.786988 35.339056 
L 456.088 37.070729 
L 456.690024 37.008673 
L 456.991036 36.009364 
L 457.292048 36.760397 
L 457.894072 37.176276 
L 458.195084 36.561766 
L 458.496096 37.244538 
L 458.797108 36.474888 
L 459.09812 37.095551 
L 459.399132 37.405883 
L 459.700144 36.940411 
L 460.001156 37.101757 
L 460.302168 36.834864 
L 460.603179 37.517636 
L 460.904191 37.660364 
L 461.205203 37.033495 
L 461.506215 37.685187 
L 461.807227 37.021084 
L 462.710263 37.163813 
L 463.011275 37.877612 
L 463.312287 37.052112 
L 463.613299 37.045907 
L 463.914311 38.09486 
L 464.215323 37.058318 
L 464.516335 37.952079 
L 464.817347 36.729369 
L 465.118359 36.164556 
L 465.419371 36.474888 
L 465.720383 36.009364 
L 466.021395 36.710752 
L 466.322407 36.928 
L 466.623419 36.536944 
L 466.924431 36.723164 
L 467.225443 36.437654 
L 467.526455 36.617616 
L 467.827467 37.784528 
L 468.128479 37.381061 
L 468.730503 37.21351 
L 469.332527 37.976954 
L 469.633539 37.474197 
L 469.934551 38.101066 
L 471.138599 38.287286 
L 471.439611 38.312108 
L 471.740623 38.181738 
L 472.041635 38.398986 
L 472.643659 38.132094 
L 472.944671 37.405883 
L 473.245683 38.237641 
L 473.546695 38.672085 
L 474.148719 38.305902 
L 474.449731 38.802454 
L 474.750742 38.442425 
L 475.051754 38.765168 
L 475.653778 38.970005 
L 475.95479 38.423809 
L 476.255802 38.963799 
L 476.556814 39.267926 
L 477.158838 38.442425 
L 477.45985 38.156916 
L 477.760862 38.610029 
L 478.061874 39.336239 
L 478.362886 38.287286 
L 478.663898 38.206561 
L 478.96491 38.883127 
L 479.265922 39.212075 
L 479.566934 39.174842 
L 480.168958 38.535561 
L 480.46997 39.075552 
L 480.770982 38.92036 
L 481.071994 38.963799 
L 481.373006 38.473453 
L 481.674018 39.267926 
L 481.97503 39.733449 
L 482.276042 38.740346 
L 482.577054 39.292748 
L 482.878066 38.156916 
L 483.179078 39.10658 
L 483.48009 39.20587 
L 483.781102 38.579001 
L 484.082114 38.386575 
L 484.383126 38.783837 
L 484.684138 38.721729 
L 485.286162 39.454146 
L 485.587174 39.330034 
L 485.888186 39.7893 
L 486.189198 38.895538 
L 486.49021 39.553435 
L 486.791222 39.274131 
L 487.092234 39.398295 
L 487.393246 39.081758 
L 487.694258 39.764477 
L 487.99527 39.776888 
L 488.296282 39.901052 
L 488.898305 39.404501 
L 489.199317 40.254823 
L 489.801341 39.168636 
L 490.403365 39.460351 
L 490.704377 38.547973 
L 491.005389 39.44794 
L 491.306401 38.914155 
L 491.607413 39.243103 
L 491.908425 39.069347 
L 492.209437 39.472762 
L 492.510449 40.323085 
L 492.811461 39.596926 
L 493.112473 39.708627 
L 494.015509 38.901744 
L 494.617533 39.249309 
L 494.918545 38.932772 
L 495.219557 39.385884 
L 495.520569 39.621749 
L 495.821581 38.43622 
L 496.122593 39.044524 
L 496.423605 38.579001 
L 496.724617 39.69001 
L 497.025629 39.423118 
L 497.326641 38.790043 
L 497.627653 38.541767 
L 497.928665 39.776888 
L 498.229677 39.038319 
L 498.530689 38.628645 
L 498.831701 39.683805 
L 499.132713 37.039701 
L 499.433725 37.157607 
L 499.734737 39.559641 
L 500.035749 39.472762 
L 500.336761 40.205179 
L 500.637773 39.714833 
L 500.938785 39.441734 
L 501.239797 40.776197 
L 501.540809 39.26172 
L 501.841821 39.919669 
L 502.443845 39.851408 
L 502.744857 41.198282 
L 503.045868 40.180356 
L 503.647892 39.776888 
L 503.948904 40.70173 
L 504.249916 40.869281 
L 504.550928 42.445814 
L 504.85194 40.248618 
L 505.152952 40.261029 
L 505.453964 40.683113 
L 505.754976 40.149328 
L 506.055988 40.776197 
L 506.357 40.683113 
L 506.658012 40.093426 
L 506.959024 40.546538 
L 507.561048 40.627263 
L 507.86206 41.04309 
L 508.163072 39.801711 
L 508.464084 40.261029 
L 508.765096 41.092735 
L 509.36712 40.956212 
L 509.668132 40.962417 
L 509.969144 39.845202 
L 510.270156 40.025164 
L 510.571168 40.769992 
L 510.87218 35.103191 
L 511.474204 42.874105 
L 511.775216 41.825151 
L 512.076228 42.681679 
L 512.37724 41.496202 
L 512.678252 42.712707 
L 512.979264 42.172716 
L 513.280276 42.76861 
L 513.581288 41.881001 
L 513.8823 42.762404 
L 514.183312 41.266543 
L 514.484324 42.588595 
L 514.785336 41.732067 
L 515.086348 42.147894 
L 515.38736 41.012062 
L 515.688372 40.732758 
L 515.989384 41.38445 
L 516.290396 41.09894 
L 516.591408 41.179665 
L 516.89242 42.576184 
L 517.193431 43.085147 
L 517.494443 42.216155 
L 517.795455 43.414095 
L 518.096467 42.874105 
L 518.397479 43.426507 
L 518.999503 43.569287 
L 519.300515 42.967188 
L 519.601527 43.631343 
L 519.902539 43.370656 
L 520.203551 43.550671 
L 520.504563 42.619623 
L 520.805575 43.252698 
L 521.106587 42.911338 
L 521.407599 41.123763 
L 521.708611 43.091352 
L 522.009623 43.712016 
L 522.310635 40.689319 
L 522.611647 41.024473 
L 522.912659 41.887207 
L 523.213671 41.688628 
L 523.514683 42.855488 
L 523.815695 42.191333 
L 524.116707 41.154791 
L 524.718731 40.974828 
L 525.019743 41.241721 
L 525.320755 41.71345 
L 525.922779 36.940411 
L 526.223791 36.431449 
L 526.524803 36.654902 
L 527.126827 35.289359 
L 527.427839 36.350724 
L 527.728851 36.003159 
L 528.029863 36.021775 
L 528.330875 36.959028 
L 528.631887 37.070729 
L 528.932899 35.711444 
L 529.233911 35.699032 
L 529.534923 36.412832 
L 530.437959 37.052112 
L 530.738971 36.810042 
L 531.039983 37.008673 
L 531.340994 37.399677 
L 531.943018 37.480402 
L 532.24403 38.250052 
L 532.545042 37.902435 
L 533.147066 38.647262 
L 533.448078 38.256258 
L 533.74909 38.721729 
L 534.351114 38.641057 
L 534.652126 37.778323 
L 534.953138 38.430014 
L 535.25415 37.772117 
L 535.555162 38.032804 
L 535.856174 38.051421 
L 536.157186 40.018959 
L 536.458198 38.262463 
L 536.75921 37.989365 
L 537.361234 38.579001 
L 537.963258 38.802454 
L 538.26427 39.267926 
L 538.565282 39.454146 
L 538.866294 38.970005 
L 539.167306 39.292748 
L 539.468318 39.224486 
L 539.76933 38.858304 
L 540.070342 39.969314 
L 540.371354 39.547229 
L 540.672366 39.97552 
L 540.973378 40.174151 
L 541.27439 41.198282 
L 541.575402 40.652085 
L 541.876414 36.704547 
L 542.177426 38.262463 
L 542.77945 38.821071 
L 543.381474 38.386575 
L 543.682486 39.485173 
L 543.983498 38.33693 
L 544.28451 38.485865 
L 544.585522 38.945183 
L 545.187546 43.420301 
L 545.789569 44.189951 
L 546.090581 44.003731 
L 546.391593 44.301651 
L 546.692605 45.269932 
L 546.993617 44.934778 
L 547.294629 44.891339 
L 547.595641 45.580264 
L 547.896653 45.754073 
L 548.197665 44.978217 
L 548.498677 44.773381 
L 549.100701 45.598881 
L 549.401713 45.741662 
L 550.003737 44.698914 
L 550.304749 45.530619 
L 550.906773 44.897545 
L 551.207785 44.953395 
L 551.508797 45.158232 
L 551.809809 44.953395 
L 552.110821 45.474769 
L 552.712845 44.972012 
L 553.013857 44.947189 
L 553.314869 45.555442 
L 553.615881 44.41961 
L 553.916893 44.990629 
L 554.518917 45.027862 
L 554.819929 45.313372 
L 555.120941 44.835437 
L 555.722965 44.748558 
L 556.324989 44.990629 
L 556.626001 44.916161 
L 556.927013 44.71753 
L 557.228025 44.984423 
L 557.529037 44.47546 
L 557.830049 44.748558 
L 558.131061 44.711325 
L 558.432073 44.009936 
L 558.733085 44.605778 
L 559.034097 44.121689 
L 559.335109 44.040964 
L 559.636121 43.525796 
L 559.937132 44.189951 
L 560.238144 44.17754 
L 560.539156 44.357554 
L 560.840168 43.879619 
L 561.14118 44.53131 
L 561.442192 43.83618 
L 561.743204 44.258212 
L 562.044216 44.382376 
L 562.345228 44.189951 
L 562.64624 44.487871 
L 562.947252 43.985114 
L 563.248264 44.096867 
L 563.549276 43.960292 
L 563.850288 44.469255 
L 564.452312 44.463049 
L 564.753324 43.923058 
L 565.054336 44.314063 
L 565.355348 44.456843 
L 565.65636 44.059581 
L 565.957372 43.954086 
L 566.258384 43.687194 
L 566.559396 43.885825 
L 566.860408 43.575493 
L 567.16142 43.854797 
L 567.462432 43.563082 
L 567.763444 43.457535 
L 568.064456 42.82446 
L 568.365468 43.240287 
L 568.66648 43.265109 
L 568.967492 42.867899 
L 569.268504 43.556876 
L 569.569516 43.40789 
L 569.870528 41.235515 
L 570.17154 42.526539 
L 570.472552 42.843077 
L 570.773564 42.76861 
L 571.375588 43.618932 
L 571.6766 43.16582 
L 571.977612 42.998216 
L 572.278624 43.27752 
L 572.579636 43.258903 
L 572.880648 43.383067 
L 573.18166 43.333423 
L 573.783684 41.992754 
L 574.084695 43.023091 
L 574.385707 41.930646 
L 574.686719 42.88031 
L 574.987731 41.533436 
L 575.288743 43.476151 
L 575.589755 42.762404 
L 575.890767 41.57067 
L 576.191779 43.712016 
L 576.492791 43.116175 
L 576.793803 43.023091 
L 577.395827 43.184436 
L 577.696839 43.507179 
L 577.997851 43.364451 
L 578.599875 42.843077 
L 578.900887 42.799637 
L 579.502911 41.272749 
L 579.803923 43.16582 
L 580.104935 42.427198 
L 580.405947 43.941675 
L 580.706959 44.009936 
L 581.007971 43.339628 
L 581.308983 43.538207 
L 581.609995 43.27752 
L 581.911007 43.370656 
L 582.513031 43.730633 
L 582.814043 42.76861 
L 583.416067 44.295446 
L 583.717079 44.090661 
L 584.018091 44.47546 
L 584.319103 43.966497 
L 584.620115 44.245801 
L 585.222139 43.935469 
L 585.523151 43.606521 
L 585.824163 43.923058 
L 586.125175 44.469255 
L 586.426187 44.022348 
L 587.028211 42.483048 
L 587.630235 43.978909 
L 587.931247 42.985805 
L 588.232258 44.053376 
L 588.53327 43.3086 
L 588.834282 44.332679 
L 589.135294 44.158923 
L 589.436306 43.072736 
L 590.03833 44.146512 
L 590.339342 43.544413 
L 590.640354 44.165128 
L 590.941366 43.885825 
L 591.242378 45.214082 
L 591.54339 44.996834 
L 591.844402 44.320268 
L 592.145414 44.655474 
L 592.446426 44.767175 
L 592.747438 45.102329 
L 593.04845 44.940984 
L 593.349462 44.599572 
L 593.650474 44.866465 
L 593.951486 45.443741 
L 594.252498 46.269241 
L 594.55351 45.536825 
L 594.854522 46.666451 
L 595.155534 45.667142 
L 595.456546 45.766484 
L 596.359582 46.89611 
L 596.660594 46.083021 
L 596.961606 45.989937 
L 597.262618 47.18162 
L 597.56363 46.989194 
L 598.165654 47.547854 
L 599.06869 47.547854 
L 599.369702 47.094741 
L 599.670714 47.709199 
L 599.971726 48.019531 
L 600.272738 47.715405 
L 600.57375 48.149901 
L 600.874762 47.820952 
L 601.175774 48.634041 
L 601.476786 48.174723 
L 602.07881 48.671275 
L 602.379821 49.322966 
L 602.680833 48.838826 
L 602.981845 49.633298 
L 603.884881 48.975401 
L 604.185893 49.664378 
L 604.486905 49.310555 
L 604.787917 49.620887 
L 605.088929 49.3602 
L 605.389941 50.235397 
L 605.690953 50.340892 
L 605.991965 49.912602 
L 606.292977 50.136055 
L 606.593989 49.515392 
L 606.895001 50.750565 
L 607.196013 50.347097 
L 607.497025 50.738154 
L 607.798037 50.167083 
L 608.099049 50.198163 
L 608.400061 51.048486 
L 608.701073 49.695406 
L 609.002085 50.477467 
L 609.303097 50.278836 
L 609.604109 50.409153 
L 609.905121 51.147775 
L 610.206133 50.433976 
L 610.507145 50.756771 
L 610.808157 50.589168 
L 611.410181 48.522288 
L 611.711193 49.248499 
L 612.012205 48.454027 
L 612.313217 49.07469 
L 612.614229 48.534699 
L 612.915241 48.96299 
L 613.216253 48.559522 
L 613.517265 49.353994 
L 613.818277 49.416102 
L 614.119289 49.192649 
L 614.420301 49.78849 
L 614.721313 49.385022 
L 615.022325 49.670584 
L 615.323337 48.168517 
L 615.624349 48.336121 
L 615.925361 48.274012 
L 616.226373 48.013325 
L 616.527384 48.255396 
L 616.828396 47.591293 
L 617.43042 47.920242 
L 617.731432 47.634732 
L 618.634468 47.76505 
L 618.93548 47.572676 
L 619.537504 48.485055 
L 619.838516 48.031942 
L 620.139528 48.652658 
L 620.741552 47.131975 
L 621.042564 47.628527 
L 621.343576 47.55406 
L 621.644588 47.659555 
L 621.9456 47.616115 
L 623.149648 47.90783 
L 623.45066 47.783666 
L 623.751672 47.014069 
L 624.052684 47.088536 
L 624.353696 47.398868 
L 625.256732 45.462358 
L 625.557744 46.039582 
L 625.858756 45.096124 
L 626.159768 45.64232 
L 626.46078 45.183054 
L 627.062804 45.543031 
L 627.363816 44.57475 
L 627.664828 44.587161 
L 627.96584 44.87267 
L 628.266852 44.798203 
L 628.567864 45.027862 
L 628.868876 45.623703 
L 629.169888 45.083712 
L 630.373936 44.798203 
L 630.674947 44.320268 
L 630.975959 45.052685 
L 631.276971 44.208568 
L 631.577983 45.667142 
L 631.878995 45.890596 
L 632.481019 46.858877 
L 632.782031 46.790615 
L 633.083043 47.007863 
L 633.384055 48.100256 
L 633.986079 46.579573 
L 634.287091 47.280961 
L 634.588103 47.150592 
L 634.889115 46.536134 
L 635.491139 47.864391 
L 635.792151 46.70989 
L 636.093163 47.057508 
L 636.394175 46.883699 
L 636.996199 47.789872 
L 637.297211 47.560265 
L 637.598223 47.585087 
L 637.899235 46.834054 
L 638.200247 47.734022 
L 638.501259 47.448512 
L 638.802271 48.224368 
L 639.103283 47.678171 
L 639.404295 47.55406 
L 639.705307 47.585087 
L 640.006319 48.267807 
L 640.307331 47.535443 
L 640.608343 47.709199 
L 640.909355 47.690583 
L 641.210367 48.205751 
L 641.511379 48.019531 
L 641.812391 48.360943 
L 642.113403 47.85198 
L 642.414415 47.839569 
L 642.715427 48.354737 
L 643.016439 48.168517 
L 643.317451 48.429204 
L 643.618463 49.080896 
L 644.521499 48.503672 
L 644.82251 48.540905 
L 645.123522 49.000223 
L 645.424534 49.111924 
L 645.725546 48.168517 
L 646.026558 47.90783 
L 646.32757 48.460232 
L 646.929594 47.79613 
L 647.230606 48.565727 
L 647.531618 47.76505 
L 648.133642 47.535443 
L 648.434654 47.777461 
L 648.735666 47.734022 
L 649.036678 48.149901 
L 649.33769 48.000914 
L 649.638702 48.199545 
L 649.939714 47.95127 
L 650.541738 48.317452 
L 650.84275 48.087845 
L 651.143762 48.168517 
L 651.444774 48.00712 
L 651.745786 48.547111 
L 652.046798 48.509877 
L 652.34781 48.838826 
L 652.648822 48.143695 
L 652.949834 48.261601 
L 653.250846 49.062279 
L 653.551858 48.230573 
L 653.85287 48.429204 
L 654.153882 47.572676 
L 654.454894 47.566471 
L 654.755906 48.478849 
L 655.056918 46.796821 
L 655.35793 47.411279 
L 655.658942 47.057508 
L 655.959954 47.864391 
L 656.260966 46.163694 
L 656.561978 47.622321 
L 656.86299 47.85198 
L 657.164002 47.280961 
L 657.766026 47.622321 
L 658.669062 47.541648 
L 658.970073 47.42369 
L 659.271085 48.323657 
L 659.572097 47.256087 
L 659.873109 48.255396 
L 660.475133 47.398868 
L 660.776145 47.597499 
L 661.077157 48.454027 
L 661.378169 48.205751 
L 661.679181 47.361634 
L 662.281205 47.678171 
L 662.582217 47.827158 
L 662.883229 47.833363 
L 663.184241 48.112667 
L 663.485253 47.647143 
L 664.087277 47.709199 
L 664.388289 47.702994 
L 664.689301 48.199545 
L 664.990313 47.591293 
L 665.291325 47.777461 
L 665.592337 47.789872 
L 665.893349 47.585087 
L 666.495373 48.162312 
L 666.796385 47.709199 
L 667.097397 47.932653 
L 667.398409 47.678171 
L 667.699421 47.876802 
L 668.000433 47.870597 
L 668.301445 47.628527 
L 668.602457 47.535443 
L 668.903469 47.858186 
L 669.204481 47.100947 
L 669.505493 47.653349 
L 669.806505 44.47546 
L 670.408529 46.591984 
L 671.311565 46.989194 
L 671.913589 46.455409 
L 672.214601 46.89611 
L 672.515613 46.970577 
L 672.816625 47.603704 
L 673.117636 46.747176 
L 673.418648 47.752638 
L 673.71966 47.684377 
L 674.020672 46.976783 
L 674.622696 47.777461 
L 674.923708 47.529237 
L 675.22472 48.584344 
L 675.525732 49.174032 
L 675.826744 48.447821 
L 676.127756 48.478849 
L 676.428768 48.317452 
L 677.030792 48.559522 
L 677.331804 48.472644 
L 677.632816 48.907139 
L 677.933828 47.932653 
L 678.23484 49.192649 
L 678.535852 49.596064 
L 678.836864 49.273321 
L 679.137876 49.329172 
L 679.438888 48.447821 
L 679.7399 49.496775 
L 680.341919 49.037457 
L 680.642931 48.994018 
L 681.244955 48.571933 
L 681.545967 48.609219 
L 681.846979 49.329172 
L 682.147991 49.298144 
L 682.449003 48.609219 
L 683.352039 49.217471 
L 683.653051 48.956784 
L 683.954063 48.472644 
L 684.255075 48.739536 
L 684.556087 48.460232 
L 684.857099 49.143004 
L 685.158111 48.516083 
L 685.459123 48.454027 
L 685.760135 48.540905 
L 686.061147 48.131284 
L 686.362159 48.789181 
L 686.663171 49.01884 
L 686.964183 47.988503 
L 687.265195 47.42369 
L 687.566207 48.640247 
L 687.867219 47.901625 
L 688.168231 48.398176 
L 688.770255 47.858186 
L 689.071267 48.540905 
L 689.673291 48.255396 
L 689.974303 48.131284 
L 690.576327 48.938167 
L 690.877339 48.255396 
L 691.178351 48.472644 
L 692.081387 47.994709 
L 692.382399 48.348532 
L 692.683411 48.100256 
L 692.984423 48.516083 
L 693.285434 48.137489 
L 693.586446 48.485055 
L 693.887458 48.031942 
L 694.18847 48.367148 
L 694.489482 47.578882 
L 695.091506 48.09405 
L 695.392518 48.646452 
L 695.994542 48.441616 
L 696.295554 48.739536 
L 696.596566 48.553316 
L 696.897578 48.118873 
L 697.19859 48.627835 
L 697.499602 48.180929 
L 697.800614 48.460232 
L 698.101626 48.373354 
L 698.402638 49.000223 
L 698.70365 49.291938 
L 699.004662 49.105718 
L 699.305674 49.105718 
L 699.606686 48.876111 
L 699.907698 49.341583 
L 700.20871 49.155415 
L 700.509722 48.559522 
L 700.810734 48.764359 
L 701.412758 48.292629 
L 701.71377 48.67748 
L 702.014782 48.565727 
L 702.315794 48.931962 
L 702.616806 48.311246 
L 703.21883 48.727125 
L 703.519842 49.378816 
L 703.820854 48.485055 
L 704.121866 48.876111 
L 704.422878 48.683686 
L 704.72389 49.540214 
L 705.024902 48.739536 
L 705.325914 48.882317 
L 705.626926 48.112667 
L 705.927938 48.845031 
L 706.22895 48.739536 
L 706.529962 48.416793 
L 706.830974 49.124387 
L 707.131986 48.230573 
L 707.432997 49.105718 
L 707.734009 49.341583 
L 708.035021 49.291938 
L 708.637045 49.78849 
L 708.938057 49.906396 
L 709.540081 49.229882 
L 709.841093 50.465056 
L 710.142105 50.222985 
L 710.443117 49.813312 
L 710.744129 50.018149 
L 711.045141 49.192649 
L 711.647165 50.316069 
L 711.948177 49.732639 
L 712.249189 50.998841 
L 712.550201 49.620887 
L 712.851213 50.210574 
L 713.754249 49.006429 
L 714.055261 49.596064 
L 714.356273 49.608475 
L 714.657285 49.937476 
L 714.958297 48.826414 
L 715.259309 49.353994 
L 715.560321 49.248499 
L 715.861333 49.918859 
L 716.463357 49.335377 
L 716.764369 49.620887 
L 717.065381 49.012634 
L 717.667405 48.67748 
L 717.968417 49.589859 
L 718.269429 49.608475 
L 718.570441 49.310555 
L 718.871453 49.552625 
L 719.172465 48.745742 
L 719.473477 49.174032 
L 719.774489 49.006429 
L 720.376513 49.229882 
L 720.677525 49.633298 
L 720.978537 48.634041 
L 721.279549 49.347788 
L 721.58056 49.006429 
L 721.881572 49.000223 
L 722.182584 48.8637 
L 722.483596 49.279527 
L 723.386632 49.329172 
L 723.687644 49.031251 
L 723.988656 49.118129 
L 724.289668 49.068485 
L 724.59068 47.802335 
L 725.192704 48.460232 
L 725.794728 47.932653 
L 726.09574 48.000914 
L 726.396752 48.329915 
L 726.697764 49.26091 
L 726.998776 49.07469 
L 727.901812 48.100256 
L 728.202824 48.398176 
L 728.503836 48.882317 
L 728.804848 48.956784 
L 729.406872 48.30504 
L 729.707884 48.49126 
L 730.008896 49.285733 
L 730.309908 49.279527 
L 730.61092 49.124387 
L 730.911932 49.956093 
L 731.513956 49.217471 
L 731.814968 49.304349 
L 732.11598 49.78849 
L 732.416992 50.924322 
L 732.718004 51.04228 
L 733.019016 50.21678 
L 733.320028 50.694663 
L 733.922052 50.254013 
L 734.223064 50.725743 
L 734.524076 50.564345 
L 734.825088 49.881574 
L 735.1261 49.869162 
L 735.427112 45.64232 
L 735.728123 45.071301 
L 736.029135 41.465174 
L 736.330147 46.25683 
L 736.932171 40.143123 
L 737.233183 40.279646 
L 737.534195 39.963108 
L 737.835207 41.694834 
L 738.136219 42.520334 
L 738.437231 42.743735 
L 738.738243 42.222413 
L 739.039255 41.161048 
L 739.340267 41.192076 
L 739.641279 41.62652 
L 740.243303 40.27344 
L 740.544315 40.950006 
L 740.845327 40.887898 
L 741.146339 40.447249 
L 741.447351 39.466557 
L 741.748363 39.361062 
L 742.049375 40.000342 
L 742.350387 39.683805 
L 742.651399 39.783094 
L 742.952411 39.733449 
L 743.253423 39.801711 
L 743.554435 40.223795 
L 743.855447 39.69001 
L 744.156459 41.272749 
L 744.457471 43.736838 
L 744.758483 43.041708 
L 745.059495 42.849282 
L 745.360507 43.054119 
L 745.661519 42.892721 
L 746.263543 43.3086 
L 747.166579 42.58239 
L 747.467591 43.3086 
L 747.768603 42.166511 
L 748.370627 44.57475 
L 748.671639 43.389273 
L 748.972651 43.289984 
L 749.273663 43.985114 
L 749.574675 43.923058 
L 750.176698 44.425815 
L 750.47771 44.587161 
L 750.778722 44.146512 
L 751.079734 45.934035 
L 751.380746 43.792689 
L 751.98277 44.103073 
L 752.283782 43.569287 
L 752.584794 45.903007 
L 752.885806 44.891339 
L 753.186818 45.214082 
L 753.48783 44.779586 
L 753.788842 45.288549 
L 754.089854 44.87267 
L 754.390866 45.089918 
L 754.691878 45.468563 
L 754.99289 44.748558 
L 755.594914 46.716096 
L 755.895926 45.983732 
L 756.196938 46.325092 
L 756.49795 46.442998 
L 756.798962 45.629909 
L 757.099974 45.363016 
L 757.400986 46.387147 
L 757.701998 45.18926 
L 758.00301 46.418175 
L 758.304022 45.871979 
L 758.906046 46.771998 
L 759.50807 45.946498 
L 759.809082 45.592675 
L 760.110094 45.82854 
L 760.411106 45.133357 
L 760.712118 45.524414 
L 761.01313 46.430587 
L 761.314142 46.089227 
L 761.615154 45.462358 
L 761.916166 45.257521 
L 762.217178 45.524414 
L 762.51819 45.425124 
L 762.819202 45.965115 
L 763.120214 45.567853 
L 763.722238 45.462358 
L 764.023249 45.530619 
L 764.324261 45.890596 
L 764.625273 45.859568 
L 765.528309 45.288549 
L 765.829321 46.194722 
L 766.130333 46.182311 
L 766.431345 45.915418 
L 766.732357 46.244419 
L 767.033369 45.72925 
L 767.334381 45.518208 
L 767.936405 46.213391 
L 768.237417 45.598881 
L 768.538429 45.685811 
L 769.140453 45.598881 
L 769.441465 45.139615 
L 769.742477 45.530619 
L 770.043489 45.170643 
L 770.645513 46.250624 
L 771.247537 46.796821 
L 771.548549 46.59819 
L 771.849561 46.560956 
L 772.150573 46.803026 
L 772.451585 47.23747 
L 773.053609 46.647835 
L 773.354621 47.3244 
L 773.956645 46.976783 
L 774.257657 47.47954 
L 774.558669 47.014069 
L 774.859681 47.659555 
L 775.160693 47.976092 
L 775.461705 47.560265 
L 775.762717 47.55406 
L 776.063729 48.081639 
L 776.364741 47.901625 
L 776.665753 48.180929 
L 777.267777 48.106461 
L 777.568789 48.354737 
L 777.869801 49.099513 
L 778.471824 48.056765 
L 778.772836 48.764359 
L 779.073848 48.534699 
L 779.37486 48.522288 
L 779.675872 47.820952 
L 779.976884 47.702994 
L 780.277896 48.795386 
L 780.578908 47.932653 
L 780.87992 49.056073 
L 781.180932 49.428513 
L 781.481944 49.130593 
L 781.782956 49.39128 
L 782.083968 49.031251 
L 782.685992 47.684377 
L 782.987004 48.814003 
L 783.288016 45.543031 
L 783.589028 45.139615 
L 783.89004 48.118873 
L 784.191052 47.758844 
L 784.492064 47.616115 
L 784.793076 45.015451 
L 785.094088 45.754073 
L 785.3951 45.890596 
L 785.696112 47.088536 
L 785.997124 48.944373 
L 786.298136 48.329915 
L 786.599148 48.274012 
L 787.201172 48.733331 
L 787.502184 48.764359 
L 788.40522 49.335377 
L 788.706232 49.192649 
L 789.007244 50.402948 
L 789.308256 49.453336 
L 789.609268 49.825723 
L 789.91028 49.670584 
L 790.813316 49.90019 
L 791.114328 49.645709 
L 791.41534 48.96299 
L 791.716352 48.665069 
L 792.017364 49.589859 
L 792.318375 49.589859 
L 792.619387 50.27263 
L 792.920399 50.37192 
L 793.221411 49.751256 
L 793.522423 49.937476 
L 793.823435 49.26091 
L 794.124447 49.248499 
L 794.425459 48.485055 
L 794.726471 49.180237 
L 795.027483 49.440924 
L 795.328495 50.148466 
L 795.629507 49.509186 
L 796.231531 50.465056 
L 796.532543 50.185752 
L 796.833555 50.247808 
L 797.134567 51.420873 
L 797.435579 51.073308 
L 798.037603 52.680869 
L 798.338615 51.185009 
L 798.940639 51.067102 
L 799.542663 52.116056 
L 799.843675 51.954659 
L 800.445699 50.316069 
L 801.047723 50.340892 
L 801.348735 50.645018 
L 801.649747 50.148466 
L 801.950759 51.191214 
L 802.552783 49.478158 
L 802.853795 51.085719 
L 803.154807 50.899499 
L 803.455819 51.43949 
L 804.057843 51.532626 
L 804.358855 51.104336 
L 804.659867 51.445696 
L 804.960879 52.246373 
L 805.261891 52.63743 
L 805.562903 52.600197 
L 805.863915 52.798775 
L 806.164927 52.351921 
L 806.465938 52.320893 
L 806.76695 51.315378 
L 807.067962 52.122262 
L 807.368974 52.544294 
L 807.669986 52.649841 
L 807.970998 52.351921 
L 808.27201 52.432593 
L 808.573022 52.091234 
L 808.874034 53.028435 
L 809.175046 53.301533 
L 809.476058 52.680869 
L 809.77707 53.059462 
L 810.078082 52.33951 
L 810.379094 52.445005 
L 810.680106 52.867089 
L 810.981118 52.457416 
L 811.28213 52.482238 
L 811.583142 52.984995 
L 811.884154 53.040846 
L 812.185166 52.606402 
L 812.486178 53.40708 
L 812.78719 52.860884 
L 813.088202 52.618813 
L 813.389214 52.612608 
L 813.690226 52.494649 
L 813.991238 52.147084 
L 814.29225 51.451901 
L 814.593262 51.700177 
L 814.894274 52.221551 
L 815.195286 52.010509 
L 815.496298 51.582271 
L 815.79731 52.140878 
L 816.098323 53.109159 
L 816.399335 52.134673 
L 816.700348 51.86778 
L 817.00136 50.843649 
L 817.302373 51.985686 
L 817.603385 52.469827 
L 818.20541 51.911219 
L 818.506423 52.271196 
L 818.807435 51.712588 
L 819.108448 52.50706 
L 819.409461 52.128467 
L 819.710473 52.519472 
L 820.011486 50.750565 
L 820.613511 52.122262 
L 820.914523 51.489135 
L 821.215536 52.308482 
L 821.516548 51.178803 
L 821.817561 51.942247 
L 822.118573 51.873986 
L 822.419586 51.563654 
L 823.021611 51.979481 
L 823.623636 50.309864 
L 823.924649 51.054691 
L 824.225661 52.122262 
L 824.526674 51.451901 
L 824.827686 51.309173 
L 825.128699 50.762976 
L 825.429711 51.538832 
L 825.730724 51.433285 
L 826.031736 51.582271 
L 826.332749 50.719537 
L 826.633761 51.532626 
L 826.934774 51.185009 
L 827.235786 51.135364 
L 827.536799 51.855369 
L 827.837811 51.507752 
L 828.439837 51.619504 
L 828.740849 52.836009 
L 829.041862 52.972584 
L 829.342874 52.8795 
L 829.643887 51.942247 
L 829.944899 52.029126 
L 830.245912 52.761542 
L 830.546924 52.680869 
L 830.847937 51.656738 
L 831.148949 52.327098 
L 831.449962 51.43949 
L 831.750975 51.532626 
L 832.051987 51.936042 
L 832.353 52.140878 
L 832.955025 52.116056 
L 833.256037 52.345715 
L 833.55705 51.873986 
L 833.858062 50.21678 
L 834.159075 52.103645 
L 834.7611 52.054 
L 835.062112 51.557448 
L 835.363125 51.762233 
L 835.664137 53.506369 
L 835.96515 52.997407 
L 836.266162 53.22086 
L 836.567175 52.438799 
L 836.868188 52.873295 
L 837.1692 52.947762 
L 837.470213 52.63743 
L 837.771225 53.549809 
L 838.072238 52.562911 
L 838.37325 52.991201 
L 838.674263 52.947762 
L 839.276288 54.015332 
L 839.5773 53.009818 
L 839.878313 53.798084 
L 840.179325 52.947762 
L 840.480338 52.947762 
L 840.78135 53.338766 
L 841.082363 53.363589 
L 841.684388 52.463621 
L 841.985401 53.084285 
L 842.286413 53.22086 
L 842.587426 52.463621 
L 842.888438 53.531192 
L 843.189451 52.525677 
L 843.490463 53.568425 
L 843.791476 50.179494 
L 844.092488 51.631916 
L 844.393501 52.047795 
L 844.694513 52.140878 
L 845.296539 51.787108 
L 845.597551 52.711897 
L 845.898564 51.464312 
L 846.199576 52.116056 
L 846.500589 51.538832 
L 846.801601 52.103645 
L 847.102614 51.644327 
L 847.403626 52.258785 
L 847.704639 52.289813 
L 848.005651 52.060206 
L 848.607676 52.103645 
L 848.908689 51.849163 
L 849.209701 52.103645 
L 849.510714 51.371229 
L 849.811727 52.283607 
L 850.112739 51.56986 
L 850.413752 52.122262 
L 850.714764 51.489135 
L 851.015777 52.947762 
L 851.316789 51.600888 
L 851.918814 52.749131 
L 852.219827 52.351921 
L 852.520839 52.15329 
L 853.122864 53.599453 
L 853.423877 52.085028 
L 854.025902 53.723617 
L 854.326915 52.122262 
L 854.627927 52.891911 
L 854.92894 52.463621 
L 855.831977 45.996143 
L 856.13299 44.829231 
L 856.735015 48.031942 
L 857.036027 47.727816 
L 857.33704 47.982297 
L 857.638052 48.907139 
L 857.939065 49.366405 
L 858.240078 50.123644 
L 859.143115 48.485055 
L 859.444128 48.696097 
L 860.046153 49.54642 
L 860.347165 49.236088 
L 860.94919 49.353994 
L 861.250203 49.273321 
L 861.852228 50.142261 
L 862.15324 49.862957 
L 862.454253 53.171215 
L 862.755266 53.320149 
L 863.056278 52.680869 
L 863.357291 53.835318 
L 863.658303 52.960173 
L 863.959316 53.450519 
L 864.260328 53.332561 
L 864.561341 53.673973 
L 864.862353 53.444313 
L 865.163366 55.560837 
L 865.464378 55.356001 
L 865.765391 55.976664 
L 866.066403 55.144959 
L 866.367416 55.815319 
L 866.668429 55.207014 
L 866.969441 55.461496 
L 867.270454 55.2443 
L 867.571466 55.238095 
L 867.872479 55.492576 
L 868.173491 54.983613 
L 868.474504 55.660127 
L 868.775516 55.747005 
L 869.076529 56.218735 
L 869.377541 55.424262 
L 869.678554 55.672538 
L 869.979566 56.715286 
L 870.280579 55.877375 
L 870.882604 55.703566 
L 871.484629 56.684258 
L 871.785642 56.777342 
L 872.086654 55.88358 
L 872.387667 56.380132 
L 872.688679 57.118754 
L 873.290704 56.268379 
L 873.591717 56.187707 
L 873.892729 57.894609 
L 874.494754 56.529066 
L 874.795767 56.22494 
L 875.09678 56.100828 
L 875.397792 55.175986 
L 875.698805 56.380132 
L 875.999817 56.510449 
L 876.30083 58.018721 
L 876.601842 56.522861 
L 876.902855 55.709772 
L 877.203867 55.833936 
L 877.50488 56.603585 
L 877.805892 55.250506 
L 878.106905 52.116056 
L 878.407917 52.97879 
L 878.70893 51.482929 
L 879.009942 51.538832 
L 879.611967 50.291247 
L 879.91298 51.048486 
L 880.515005 51.56986 
L 880.816018 50.198163 
L 881.11703 50.818827 
L 881.418043 50.85606 
L 881.719055 51.793313 
L 882.020068 51.507752 
L 882.32108 51.62571 
L 882.622093 51.228448 
L 882.923105 52.488444 
L 883.224118 51.060897 
L 883.826143 52.10985 
L 884.127156 52.15329 
L 884.428168 52.767747 
L 884.729181 52.50706 
L 885.030193 53.09049 
L 885.331206 51.942247 
L 885.933231 53.282916 
L 886.234243 52.997407 
L 886.535256 53.313944 
L 886.836268 53.115365 
L 887.137281 53.301533 
L 887.438293 53.196038 
L 887.739306 53.487753 
L 888.040319 53.313944 
L 888.341331 52.991201 
L 888.642344 54.170524 
L 888.943356 53.978099 
L 889.244369 54.089799 
L 889.545381 54.437417 
L 889.846394 53.978099 
L 890.147406 53.971893 
L 890.448419 54.350486 
L 890.749431 54.226374 
L 891.050444 54.226374 
L 891.351456 55.107725 
L 891.652469 55.250506 
L 891.953481 54.375309 
L 892.254494 55.045669 
L 892.555506 55.070491 
L 892.856519 54.375309 
L 893.157532 54.971202 
L 893.458544 54.487061 
L 893.759557 54.530501 
L 894.060569 53.419491 
L 894.361582 54.611173 
L 894.662594 54.10221 
L 895.264619 54.276019 
L 895.565632 53.655356 
L 896.167657 54.424953 
L 896.468669 54.201552 
L 897.070695 54.213963 
L 897.371707 53.487753 
L 897.67272 53.93466 
L 898.575757 54.294636 
L 898.87677 53.729823 
L 899.177782 54.542912 
L 899.478795 55.970459 
L 899.779807 54.28843 
L 900.08082 53.822907 
L 900.381832 54.561529 
L 900.983857 54.213963 
L 901.28487 54.213963 
L 901.585883 54.853244 
L 901.886895 53.059462 
L 902.187908 54.338075 
L 902.48892 54.294636 
L 902.789933 53.971893 
L 903.090945 54.015332 
L 903.391958 53.80429 
L 903.69297 49.825723 
L 904.294995 49.434719 
L 904.89702 47.802335 
L 905.198033 48.199545 
L 905.499046 48.329915 
L 905.800058 48.174723 
L 906.101071 48.174723 
L 906.402083 47.79613 
L 906.703096 47.150592 
L 907.004108 48.056765 
L 907.305121 47.038891 
L 907.606133 48.441616 
L 907.907146 49.20506 
L 908.208158 48.410588 
L 908.810183 48.565727 
L 909.111196 48.081639 
L 909.412208 48.603013 
L 909.713221 48.274012 
L 910.014234 48.360943 
L 910.315246 48.67748 
L 910.616259 48.286424 
L 910.917271 48.454027 
L 911.218284 47.932653 
L 912.121321 49.825723 
L 912.422334 49.341583 
L 912.723346 50.241602 
L 913.024359 49.571242 
L 913.325371 50.278836 
L 913.626384 50.328481 
L 913.927396 49.763667 
L 914.529422 50.849855 
L 914.830434 50.74436 
L 915.131447 50.247808 
L 915.432459 50.694663 
L 915.733472 50.160877 
L 916.034484 50.607784 
L 916.335497 51.551243 
L 916.636509 50.45885 
L 916.937522 52.134673 
L 917.238534 51.110542 
L 917.539547 51.060897 
L 917.840559 51.929836 
L 917.840559 51.929836 
" clip-path="url(#pfc5e7b76e6)" style="fill: none; stroke: #1d4ed8; stroke-opacity: 0.95; stroke-width: 1.3; stroke-linecap: square"/>
   </g>
   <g id="patch_23">
    <path d="M 42.190938 228.954713 
L 42.190938 17.061433 
" style="fill: none; stroke: #cbd5e1; stroke-width: 0.8; stroke-linejoin: miter; stroke-linecap: square"/>
   </g>
   <g id="patch_24">
    <path d="M 935.353438 228.954713 
L 935.353438 17.061433 
" style="fill: none; stroke: #cbd5e1; stroke-width: 0.8; stroke-linejoin: miter; stroke-linecap: square"/>
   </g>
   <g id="patch_25">
    <path d="M 42.190938 228.954713 
L 935.353438 228.954713 
" style="fill: none; stroke: #cbd5e1; stroke-width: 0.8; stroke-linejoin: miter; stroke-linecap: square"/>
   </g>
   <g id="patch_26">
    <path d="M 42.190938 17.061433 
L 935.353438 17.061433 
" style="fill: none; stroke: #cbd5e1; stroke-width: 0.8; stroke-linejoin: miter; stroke-linecap: square"/>
   </g>
   <g id="text_16">
    <!-- ACC -->
    <g style="fill: #475569" transform="translate(124.242031 13.27875) scale(0.08 -0.08)">
     <defs>
      <path id="DejaVuSans-43" d="M 4122 4306 
L 4122 3641 
Q 3803 3938 3442 4084 
Q 3081 4231 2675 4231 
Q 1875 4231 1450 3742 
Q 1025 3253 1025 2328 
Q 1025 1406 1450 917 
Q 1875 428 2675 428 
Q 3081 428 3442 575 
Q 3803 722 4122 1019 
L 4122 359 
Q 3791 134 3420 21 
Q 3050 -91 2638 -91 
Q 1578 -91 968 557 
Q 359 1206 359 2328 
Q 359 3453 968 4101 
Q 1578 4750 2638 4750 
Q 3056 4750 3426 4639 
Q 3797 4528 4122 4306 
z
" transform="scale(0.015625)"/>
     </defs>
     <use xlink:href="#DejaVuSans-41"/>
     <use xlink:href="#DejaVuSans-43" transform="translate(66.658203 0)"/>
     <use xlink:href="#DejaVuSans-43" transform="translate(136.482422 0)"/>
    </g>
   </g>
   <g id="text_17">
    <!-- OC -->
    <g style="fill: #475569" transform="translate(232.659379 13.27875) scale(0.08 -0.08)">
     <defs>
      <path id="DejaVuSans-4f" d="M 2522 4238 
Q 1834 4238 1429 3725 
Q 1025 3213 1025 2328 
Q 1025 1447 1429 934 
Q 1834 422 2522 422 
Q 3209 422 3611 934 
Q 4013 1447 4013 2328 
Q 4013 3213 3611 3725 
Q 3209 4238 2522 4238 
z
M 2522 4750 
Q 3503 4750 4090 4092 
Q 4678 3434 4678 2328 
Q 4678 1225 4090 567 
Q 3503 -91 2522 -91 
Q 1538 -91 948 565 
Q 359 1222 359 2328 
Q 359 3434 948 4092 
Q 1538 4750 2522 4750 
z
" transform="scale(0.015625)"/>
     </defs>
     <use xlink:href="#DejaVuSans-4f"/>
     <use xlink:href="#DejaVuSans-43" transform="translate(78.710938 0)"/>
    </g>
   </g>
   <g id="text_18">
    <!-- FCS -->
    <g style="fill: #475569" transform="translate(258.059207 13.27875) scale(0.08 -0.08)">
     <defs>
      <path id="DejaVuSans-46" d="M 628 4666 
L 3309 4666 
L 3309 4134 
L 1259 4134 
L 1259 2759 
L 3109 2759 
L 3109 2228 
L 1259 2228 
L 1259 0 
L 628 0 
L 628 4666 
z
" transform="scale(0.015625)"/>
     </defs>
     <use xlink:href="#DejaVuSans-46"/>
     <use xlink:href="#DejaVuSans-43" transform="translate(57.519531 0)"/>
     <use xlink:href="#DejaVuSans-53" transform="translate(127.34375 0)"/>
    </g>
   </g>
   <g id="text_19">
    <!-- SR -->
    <g style="fill: #475569" transform="translate(291.979839 13.27875) scale(0.08 -0.08)">
     <defs>
      <path id="DejaVuSans-52" d="M 2841 2188 
Q 3044 2119 3236 1894 
Q 3428 1669 3622 1275 
L 4263 0 
L 3584 0 
L 2988 1197 
Q 2756 1666 2539 1819 
Q 2322 1972 1947 1972 
L 1259 1972 
L 1259 0 
L 628 0 
L 628 4666 
L 2053 4666 
Q 2853 4666 3247 4331 
Q 3641 3997 3641 3322 
Q 3641 2881 3436 2590 
Q 3231 2300 2841 2188 
z
M 1259 4147 
L 1259 2491 
L 2053 2491 
Q 2509 2491 2742 2702 
Q 2975 2913 2975 3322 
Q 2975 3731 2742 3939 
Q 2509 4147 2053 4147 
L 1259 4147 
z
" transform="scale(0.015625)"/>
     </defs>
     <use xlink:href="#DejaVuSans-53"/>
     <use xlink:href="#DejaVuSans-52" transform="translate(63.476562 0)"/>
    </g>
   </g>
   <g id="text_20">
    <!-- FFC -->
    <g style="fill: #475569" transform="translate(332.798421 13.27875) scale(0.08 -0.08)">
     <use xlink:href="#DejaVuSans-46"/>
     <use xlink:href="#DejaVuSans-46" transform="translate(57.519531 0)"/>
     <use xlink:href="#DejaVuSans-43" transform="translate(115.039062 0)"/>
    </g>
   </g>
   <g id="text_21">
    <!-- SS -->
    <g style="fill: #475569" transform="translate(420.90246 13.27875) scale(0.08 -0.08)">
     <use xlink:href="#DejaVuSans-53"/>
     <use xlink:href="#DejaVuSans-53" transform="translate(63.476562 0)"/>
    </g>
   </g>
   <g id="text_22">
    <!-- OC -->
    <g style="fill: #475569" transform="translate(490.02462 13.27875) scale(0.08 -0.08)">
     <use xlink:href="#DejaVuSans-4f"/>
     <use xlink:href="#DejaVuSans-43" transform="translate(78.710938 0)"/>
    </g>
   </g>
   <g id="text_23">
    <!-- FCS -->
    <g style="fill: #475569" transform="translate(510.909269 13.27875) scale(0.08 -0.08)">
     <use xlink:href="#DejaVuSans-46"/>
     <use xlink:href="#DejaVuSans-43" transform="translate(57.519531 0)"/>
     <use xlink:href="#DejaVuSans-53" transform="translate(127.34375 0)"/>
    </g>
   </g>
   <g id="text_24">
    <!-- SR -->
    <g style="fill: #475569" transform="translate(544.829902 13.27875) scale(0.08 -0.08)">
     <use xlink:href="#DejaVuSans-53"/>
     <use xlink:href="#DejaVuSans-52" transform="translate(63.476562 0)"/>
    </g>
   </g>
   <g id="text_25">
    <!-- FFC -->
    <g style="fill: #475569" transform="translate(585.648484 13.27875) scale(0.08 -0.08)">
     <use xlink:href="#DejaVuSans-46"/>
     <use xlink:href="#DejaVuSans-46" transform="translate(57.519531 0)"/>
     <use xlink:href="#DejaVuSans-43" transform="translate(115.039062 0)"/>
    </g>
   </g>
   <g id="text_26">
    <!-- SS -->
    <g style="fill: #475569" transform="translate(673.752523 13.27875) scale(0.08 -0.08)">
     <use xlink:href="#DejaVuSans-53"/>
     <use xlink:href="#DejaVuSans-53" transform="translate(63.476562 0)"/>
    </g>
   </g>
   <g id="text_27">
    <!-- OC -->
    <g style="fill: #475569" transform="translate(742.874683 13.27875) scale(0.08 -0.08)">
     <use xlink:href="#DejaVuSans-4f"/>
     <use xlink:href="#DejaVuSans-43" transform="translate(78.710938 0)"/>
    </g>
   </g>
   <g id="text_28">
    <!-- FCS -->
    <g style="fill: #475569" transform="translate(763.759331 13.27875) scale(0.08 -0.08)">
     <use xlink:href="#DejaVuSans-46"/>
     <use xlink:href="#DejaVuSans-43" transform="translate(57.519531 0)"/>
     <use xlink:href="#DejaVuSans-53" transform="translate(127.34375 0)"/>
    </g>
   </g>
   <g id="text_29">
    <!-- SR -->
    <g style="fill: #475569" transform="translate(797.679964 13.27875) scale(0.08 -0.08)">
     <use xlink:href="#DejaVuSans-53"/>
     <use xlink:href="#DejaVuSans-52" transform="translate(63.476562 0)"/>
    </g>
   </g>
   <g id="text_30">
    <!-- FFC -->
    <g style="fill: #475569" transform="translate(838.498546 13.27875) scale(0.08 -0.08)">
     <use xlink:href="#DejaVuSans-46"/>
     <use xlink:href="#DejaVuSans-46" transform="translate(57.519531 0)"/>
     <use xlink:href="#DejaVuSans-43" transform="translate(115.039062 0)"/>
    </g>
   </g>
   <g id="text_31">
    <!-- SS -->
    <g style="fill: #475569" transform="translate(888.223557 13.27875) scale(0.08 -0.08)">
     <use xlink:href="#DejaVuSans-53"/>
     <use xlink:href="#DejaVuSans-53" transform="translate(63.476562 0)"/>
    </g>
   </g>
   <g id="legend_1">
    <g id="line2d_28">
     <path d="M 849.174688 27.540183 
L 857.174688 27.540183 
L 865.174688 27.540183 
" style="fill: none; stroke: #1d4ed8; stroke-opacity: 0.95; stroke-width: 1.3; stroke-linecap: square"/>
    </g>
    <g id="text_32">
     <!-- Empatica EDA -->
     <g transform="translate(871.574688 30.340183) scale(0.08 -0.08)">
      <defs>
       <path id="DejaVuSans-6d" d="M 3328 2828 
Q 3544 3216 3844 3400 
Q 4144 3584 4550 3584 
Q 5097 3584 5394 3201 
Q 5691 2819 5691 2113 
L 5691 0 
L 5113 0 
L 5113 2094 
Q 5113 2597 4934 2840 
Q 4756 3084 4391 3084 
Q 3944 3084 3684 2787 
Q 3425 2491 3425 1978 
L 3425 0 
L 2847 0 
L 2847 2094 
Q 2847 2600 2669 2842 
Q 2491 3084 2119 3084 
Q 1678 3084 1418 2786 
Q 1159 2488 1159 1978 
L 1159 0 
L 581 0 
L 581 3500 
L 1159 3500 
L 1159 2956 
Q 1356 3278 1631 3431 
Q 1906 3584 2284 3584 
Q 2666 3584 2933 3390 
Q 3200 3197 3328 2828 
z
" transform="scale(0.015625)"/>
       <path id="DejaVuSans-70" d="M 1159 525 
L 1159 -1331 
L 581 -1331 
L 581 3500 
L 1159 3500 
L 1159 2969 
Q 1341 3281 1617 3432 
Q 1894 3584 2278 3584 
Q 2916 3584 3314 3078 
Q 3713 2572 3713 1747 
Q 3713 922 3314 415 
Q 2916 -91 2278 -91 
Q 1894 -91 1617 61 
Q 1341 213 1159 525 
z
M 3116 1747 
Q 3116 2381 2855 2742 
Q 2594 3103 2138 3103 
Q 1681 3103 1420 2742 
Q 1159 2381 1159 1747 
Q 1159 1113 1420 752 
Q 1681 391 2138 391 
Q 2594 391 2855 752 
Q 3116 1113 3116 1747 
z
" transform="scale(0.015625)"/>
      </defs>
      <use xlink:href="#DejaVuSans-45"/>
      <use xlink:href="#DejaVuSans-6d" transform="translate(63.183594 0)"/>
      <use xlink:href="#DejaVuSans-70" transform="translate(160.595703 0)"/>
      <use xlink:href="#DejaVuSans-61" transform="translate(224.072266 0)"/>
      <use xlink:href="#DejaVuSans-74" transform="translate(285.351562 0)"/>
      <use xlink:href="#DejaVuSans-69" transform="translate(324.560547 0)"/>
      <use xlink:href="#DejaVuSans-63" transform="translate(352.34375 0)"/>
      <use xlink:href="#DejaVuSans-61" transform="translate(407.324219 0)"/>
      <use xlink:href="#DejaVuSans-20" transform="translate(468.603516 0)"/>
      <use xlink:href="#DejaVuSans-45" transform="translate(500.390625 0)"/>
      <use xlink:href="#DejaVuSans-44" transform="translate(563.574219 0)"/>
      <use xlink:href="#DejaVuSans-41" transform="translate(638.826172 0)"/>
     </g>
    </g>
   </g>
  </g>
 </g>
 <defs>
  <clipPath id="pfc5e7b76e6">
   <rect x="42.190938" y="17.061433" width="893.1625" height="211.89328"/>
  </clipPath>
 </defs>
</svg>
