<?xml version="1.0" encoding="utf-8" standalone="no"?>
<!DOCTYPE svg PUBLIC "-//W3C//DTD SVG 1.1//EN"
  "http://www.w3.org/Graphics/SVG/1.1/DTD/svg11.dtd">
<svg xmlns:xlink="http://www.w3.org/1999/xlink" width="942.505625pt" height="265.54315pt" viewBox="0 0 942.505625 265.54315" xmlns="http://www.w3.org/2000/svg" version="1.1">
 <metadata>
  <rdf:RDF xmlns:dc="http://purl.org/dc/elements/1.1/" xmlns:cc="http://creativecommons.org/ns#" xmlns:rdf="http://www.w3.org/1999/02/22-rdf-syntax-ns#">
   <cc:Work>
    <dc:type rdf:resource="http://purl.org/dc/dcmitype/StillImage"/>
    <dc:date>2026-04-17T13:08:52.765016</dc:date>
    <dc:format>image/svg+xml</dc:format>
    <dc:creator>
     <cc:Agent>
      <dc:title>Matplotlib v3.10.8, https://matplotlib.org/</dc:title>
     </cc:Agent>
    </dc:creator>
   </cc:Work>
  </rdf:RDF>
 </metadata>
 <defs>
  <style type="text/css">*{stroke-linejoin: round; stroke-linecap: butt}</style>
 </defs>
 <g id="figure_1">
  <g id="patch_1">
   <path d="M 0 265.54315 
L 942.505625 265.54315 
L 942.505625 0 
L 0 0 
z
" style="fill: #ffffff"/>
  </g>
  <g id="axes_1">
   <g id="patch_2">
    <path d="M 39.330625 228.954713 
L 935.305625 228.954713 
L 935.305625 17.061433 
L 39.330625 17.061433 
z
" style="fill: #ffffff"/>
   </g>
   <g id="patch_3">
    <path d="M 39.330625 228.954713 
L 220.500857 228.954713 
L 220.500857 17.061433 
L 39.330625 17.061433 
z
" clip-path="url(#p3d36a718ab)" style="fill: #f8fafc; opacity: 0.45"/>
   </g>
   <g id="patch_4">
    <path d="M 220.500857 228.954713 
L 252.205647 228.954713 
L 252.205647 17.061433 
L 220.500857 17.061433 
z
" clip-path="url(#p3d36a718ab)" style="fill: #eff6ff; opacity: 0.45"/>
   </g>
   <g id="patch_5">
    <path d="M 252.205647 228.954713 
L 274.851926 228.954713 
L 274.851926 17.061433 
L 252.205647 17.061433 
z
" clip-path="url(#p3d36a718ab)" style="fill: #fef3c7; opacity: 0.45"/>
   </g>
   <g id="patch_6">
    <path d="M 274.851926 228.954713 
L 315.615228 228.954713 
L 315.615228 17.061433 
L 274.851926 17.061433 
z
" clip-path="url(#p3d36a718ab)" style="fill: #dcfce7; opacity: 0.45"/>
   </g>
   <g id="patch_7">
    <path d="M 315.615228 228.954713 
L 360.907786 228.954713 
L 360.907786 17.061433 
L 315.615228 17.061433 
z
" clip-path="url(#p3d36a718ab)" style="fill: #fee2e2; opacity: 0.45"/>
   </g>
   <g id="patch_8">
    <path d="M 360.907786 228.954713 
L 365.437042 228.954713 
L 365.437042 17.061433 
L 360.907786 17.061433 
z
" clip-path="url(#p3d36a718ab)" style="fill: #ede9fe; opacity: 0.45"/>
   </g>
   <g id="patch_9">
    <path d="M 365.437042 228.954713 
L 483.197692 228.954713 
L 483.197692 17.061433 
L 365.437042 17.061433 
z
" clip-path="url(#p3d36a718ab)" style="fill: #f8fafc; opacity: 0.45"/>
   </g>
   <g id="patch_10">
    <path d="M 483.197692 228.954713 
L 505.843971 228.954713 
L 505.843971 17.061433 
L 483.197692 17.061433 
z
" clip-path="url(#p3d36a718ab)" style="fill: #eff6ff; opacity: 0.45"/>
   </g>
   <g id="patch_11">
    <path d="M 505.843971 228.954713 
L 528.49025 228.954713 
L 528.49025 17.061433 
L 505.843971 17.061433 
z
" clip-path="url(#p3d36a718ab)" style="fill: #fef3c7; opacity: 0.45"/>
   </g>
   <g id="patch_12">
    <path d="M 528.49025 228.954713 
L 569.253552 228.954713 
L 569.253552 17.061433 
L 528.49025 17.061433 
z
" clip-path="url(#p3d36a718ab)" style="fill: #dcfce7; opacity: 0.45"/>
   </g>
   <g id="patch_13">
    <path d="M 569.253552 228.954713 
L 614.54611 228.954713 
L 614.54611 17.061433 
L 569.253552 17.061433 
z
" clip-path="url(#p3d36a718ab)" style="fill: #fee2e2; opacity: 0.45"/>
   </g>
   <g id="patch_14">
    <path d="M 614.54611 228.954713 
L 619.075366 228.954713 
L 619.075366 17.061433 
L 614.54611 17.061433 
z
" clip-path="url(#p3d36a718ab)" style="fill: #ede9fe; opacity: 0.45"/>
   </g>
   <g id="patch_15">
    <path d="M 619.075366 228.954713 
L 736.836017 228.954713 
L 736.836017 17.061433 
L 619.075366 17.061433 
z
" clip-path="url(#p3d36a718ab)" style="fill: #f8fafc; opacity: 0.45"/>
   </g>
   <g id="patch_16">
    <path d="M 736.836017 228.954713 
L 759.482296 228.954713 
L 759.482296 17.061433 
L 736.836017 17.061433 
z
" clip-path="url(#p3d36a718ab)" style="fill: #eff6ff; opacity: 0.45"/>
   </g>
   <g id="patch_17">
    <path d="M 759.482296 228.954713 
L 782.128575 228.954713 
L 782.128575 17.061433 
L 759.482296 17.061433 
z
" clip-path="url(#p3d36a718ab)" style="fill: #fef3c7; opacity: 0.45"/>
   </g>
   <g id="patch_18">
    <path d="M 782.128575 228.954713 
L 822.891877 228.954713 
L 822.891877 17.061433 
L 782.128575 17.061433 
z
" clip-path="url(#p3d36a718ab)" style="fill: #dcfce7; opacity: 0.45"/>
   </g>
   <g id="patch_19">
    <path d="M 822.891877 228.954713 
L 868.184435 228.954713 
L 868.184435 17.061433 
L 822.891877 17.061433 
z
" clip-path="url(#p3d36a718ab)" style="fill: #fee2e2; opacity: 0.45"/>
   </g>
   <g id="patch_20">
    <path d="M 868.184435 228.954713 
L 872.71369 228.954713 
L 872.71369 17.061433 
L 868.184435 17.061433 
z
" clip-path="url(#p3d36a718ab)" style="fill: #ede9fe; opacity: 0.45"/>
   </g>
   <g id="patch_21">
    <path d="M 872.71369 228.954713 
L 913.476992 228.954713 
L 913.476992 17.061433 
L 872.71369 17.061433 
z
" clip-path="url(#p3d36a718ab)" style="fill: #f8fafc; opacity: 0.45"/>
   </g>
   <g id="patch_22">
    <path d="M 913.476992 228.954713 
L 918.006248 228.954713 
L 918.006248 17.061433 
L 913.476992 17.061433 
z
" clip-path="url(#p3d36a718ab)" style="fill: #eff6ff; opacity: 0.45"/>
   </g>
   <g id="matplotlib.axis_1">
    <g id="xtick_1">
     <g id="line2d_1">
      <path d="M 39.330625 228.954713 
L 39.330625 17.061433 
" clip-path="url(#p3d36a718ab)" style="fill: none; stroke: #eef2f7; stroke-width: 0.55; stroke-linecap: square"/>
     </g>
     <g id="line2d_2">
      <defs>
       <path id="me6136eb101" d="M 0 0 
L 0 3.5 
" style="stroke: #000000; stroke-width: 0.8"/>
      </defs>
      <g>
       <use xlink:href="#me6136eb101" x="39.330625" y="228.954713" style="stroke: #000000; stroke-width: 0.8"/>
      </g>
     </g>
     <g id="text_1">
      <!-- 0 -->
      <g transform="translate(36.4675 242.793307) scale(0.09 -0.09)">
       <defs>
        <path id="DejaVuSans-30" d="M 2034 4250 
Q 1547 4250 1301 3770 
Q 1056 3291 1056 2328 
Q 1056 1369 1301 889 
Q 1547 409 2034 409 
Q 2525 409 2770 889 
Q 3016 1369 3016 2328 
Q 3016 3291 2770 3770 
Q 2525 4250 2034 4250 
z
M 2034 4750 
Q 2819 4750 3233 4129 
Q 3647 3509 3647 2328 
Q 3647 1150 3233 529 
Q 2819 -91 2034 -91 
Q 1250 -91 836 529 
Q 422 1150 422 2328 
Q 422 3509 836 4129 
Q 1250 4750 2034 4750 
z
" transform="scale(0.015625)"/>
       </defs>
       <use xlink:href="#DejaVuSans-30"/>
      </g>
     </g>
    </g>
    <g id="xtick_2">
     <g id="line2d_3">
      <path d="M 152.56202 228.954713 
L 152.56202 17.061433 
" clip-path="url(#p3d36a718ab)" style="fill: none; stroke: #eef2f7; stroke-width: 0.55; stroke-linecap: square"/>
     </g>
     <g id="line2d_4">
      <g>
       <use xlink:href="#me6136eb101" x="152.56202" y="228.954713" style="stroke: #000000; stroke-width: 0.8"/>
      </g>
     </g>
     <g id="text_2">
      <!-- 25 -->
      <g transform="translate(146.83577 242.793307) scale(0.09 -0.09)">
       <defs>
        <path id="DejaVuSans-32" d="M 1228 531 
L 3431 531 
L 3431 0 
L 469 0 
L 469 531 
Q 828 903 1448 1529 
Q 2069 2156 2228 2338 
Q 2531 2678 2651 2914 
Q 2772 3150 2772 3378 
Q 2772 3750 2511 3984 
Q 2250 4219 1831 4219 
Q 1534 4219 1204 4116 
Q 875 4013 500 3803 
L 500 4441 
Q 881 4594 1212 4672 
Q 1544 4750 1819 4750 
Q 2544 4750 2975 4387 
Q 3406 4025 3406 3419 
Q 3406 3131 3298 2873 
Q 3191 2616 2906 2266 
Q 2828 2175 2409 1742 
Q 1991 1309 1228 531 
z
" transform="scale(0.015625)"/>
        <path id="DejaVuSans-35" d="M 691 4666 
L 3169 4666 
L 3169 4134 
L 1269 4134 
L 1269 2991 
Q 1406 3038 1543 3061 
Q 1681 3084 1819 3084 
Q 2600 3084 3056 2656 
Q 3513 2228 3513 1497 
Q 3513 744 3044 326 
Q 2575 -91 1722 -91 
Q 1428 -91 1123 -41 
Q 819 9 494 109 
L 494 744 
Q 775 591 1075 516 
Q 1375 441 1709 441 
Q 2250 441 2565 725 
Q 2881 1009 2881 1497 
Q 2881 1984 2565 2268 
Q 2250 2553 1709 2553 
Q 1456 2553 1204 2497 
Q 953 2441 691 2322 
L 691 4666 
z
" transform="scale(0.015625)"/>
       </defs>
       <use xlink:href="#DejaVuSans-32"/>
       <use xlink:href="#DejaVuSans-35" transform="translate(63.623047 0)"/>
      </g>
     </g>
    </g>
    <g id="xtick_3">
     <g id="line2d_5">
      <path d="M 265.793414 228.954713 
L 265.793414 17.061433 
" clip-path="url(#p3d36a718ab)" style="fill: none; stroke: #eef2f7; stroke-width: 0.55; stroke-linecap: square"/>
     </g>
     <g id="line2d_6">
      <g>
       <use xlink:href="#me6136eb101" x="265.793414" y="228.954713" style="stroke: #000000; stroke-width: 0.8"/>
      </g>
     </g>
     <g id="text_3">
      <!-- 50 -->
      <g transform="translate(260.067164 242.793307) scale(0.09 -0.09)">
       <use xlink:href="#DejaVuSans-35"/>
       <use xlink:href="#DejaVuSans-30" transform="translate(63.623047 0)"/>
      </g>
     </g>
    </g>
    <g id="xtick_4">
     <g id="line2d_7">
      <path d="M 379.024809 228.954713 
L 379.024809 17.061433 
" clip-path="url(#p3d36a718ab)" style="fill: none; stroke: #eef2f7; stroke-width: 0.55; stroke-linecap: square"/>
     </g>
     <g id="line2d_8">
      <g>
       <use xlink:href="#me6136eb101" x="379.024809" y="228.954713" style="stroke: #000000; stroke-width: 0.8"/>
      </g>
     </g>
     <g id="text_4">
      <!-- 75 -->
      <g transform="translate(373.298559 242.793307) scale(0.09 -0.09)">
       <defs>
        <path id="DejaVuSans-37" d="M 525 4666 
L 3525 4666 
L 3525 4397 
L 1831 0 
L 1172 0 
L 2766 4134 
L 525 4134 
L 525 4666 
z
" transform="scale(0.015625)"/>
       </defs>
       <use xlink:href="#DejaVuSans-37"/>
       <use xlink:href="#DejaVuSans-35" transform="translate(63.623047 0)"/>
      </g>
     </g>
    </g>
    <g id="xtick_5">
     <g id="line2d_9">
      <path d="M 492.256204 228.954713 
L 492.256204 17.061433 
" clip-path="url(#p3d36a718ab)" style="fill: none; stroke: #eef2f7; stroke-width: 0.55; stroke-linecap: square"/>
     </g>
     <g id="line2d_10">
      <g>
       <use xlink:href="#me6136eb101" x="492.256204" y="228.954713" style="stroke: #000000; stroke-width: 0.8"/>
      </g>
     </g>
     <g id="text_5">
      <!-- 100 -->
      <g transform="translate(483.666829 242.793307) scale(0.09 -0.09)">
       <defs>
        <path id="DejaVuSans-31" d="M 794 531 
L 1825 531 
L 1825 4091 
L 703 3866 
L 703 4441 
L 1819 4666 
L 2450 4666 
L 2450 531 
L 3481 531 
L 3481 0 
L 794 0 
L 794 531 
z
" transform="scale(0.015625)"/>
       </defs>
       <use xlink:href="#DejaVuSans-31"/>
       <use xlink:href="#DejaVuSans-30" transform="translate(63.623047 0)"/>
       <use xlink:href="#DejaVuSans-30" transform="translate(127.246094 0)"/>
      </g>
     </g>
    </g>
    <g id="xtick_6">
     <g id="line2d_11">
      <path d="M 605.487599 228.954713 
L 605.487599 17.061433 
" clip-path="url(#p3d36a718ab)" style="fill: none; stroke: #eef2f7; stroke-width: 0.55; stroke-linecap: square"/>
     </g>
     <g id="line2d_12">
      <g>
       <use xlink:href="#me6136eb101" x="605.487599" y="228.954713" style="stroke: #000000; stroke-width: 0.8"/>
      </g>
     </g>
     <g id="text_6">
      <!-- 125 -->
      <g transform="translate(596.898224 242.793307) scale(0.09 -0.09)">
       <use xlink:href="#DejaVuSans-31"/>
       <use xlink:href="#DejaVuSans-32" transform="translate(63.623047 0)"/>
       <use xlink:href="#DejaVuSans-35" transform="translate(127.246094 0)"/>
      </g>
     </g>
    </g>
    <g id="xtick_7">
     <g id="line2d_13">
      <path d="M 718.718993 228.954713 
L 718.718993 17.061433 
" clip-path="url(#p3d36a718ab)" style="fill: none; stroke: #eef2f7; stroke-width: 0.55; stroke-linecap: square"/>
     </g>
     <g id="line2d_14">
      <g>
       <use xlink:href="#me6136eb101" x="718.718993" y="228.954713" style="stroke: #000000; stroke-width: 0.8"/>
      </g>
     </g>
     <g id="text_7">
      <!-- 150 -->
      <g transform="translate(710.129618 242.793307) scale(0.09 -0.09)">
       <use xlink:href="#DejaVuSans-31"/>
       <use xlink:href="#DejaVuSans-35" transform="translate(63.623047 0)"/>
       <use xlink:href="#DejaVuSans-30" transform="translate(127.246094 0)"/>
      </g>
     </g>
    </g>
    <g id="xtick_8">
     <g id="line2d_15">
      <path d="M 831.950388 228.954713 
L 831.950388 17.061433 
" clip-path="url(#p3d36a718ab)" style="fill: none; stroke: #eef2f7; stroke-width: 0.55; stroke-linecap: square"/>
     </g>
     <g id="line2d_16">
      <g>
       <use xlink:href="#me6136eb101" x="831.950388" y="228.954713" style="stroke: #000000; stroke-width: 0.8"/>
      </g>
     </g>
     <g id="text_8">
      <!-- 175 -->
      <g transform="translate(823.361013 242.793307) scale(0.09 -0.09)">
       <use xlink:href="#DejaVuSans-31"/>
       <use xlink:href="#DejaVuSans-37" transform="translate(63.623047 0)"/>
       <use xlink:href="#DejaVuSans-35" transform="translate(127.246094 0)"/>
      </g>
     </g>
    </g>
    <g id="text_9">
     <!-- Minutes since session start -->
     <g transform="translate(419.728281 256.263463) scale(0.1 -0.1)">
      <defs>
       <path id="DejaVuSans-4d" d="M 628 4666 
L 1569 4666 
L 2759 1491 
L 3956 4666 
L 4897 4666 
L 4897 0 
L 4281 0 
L 4281 4097 
L 3078 897 
L 2444 897 
L 1241 4097 
L 1241 0 
L 628 0 
L 628 4666 
z
" transform="scale(0.015625)"/>
       <path id="DejaVuSans-69" d="M 603 3500 
L 1178 3500 
L 1178 0 
L 603 0 
L 603 3500 
z
M 603 4863 
L 1178 4863 
L 1178 4134 
L 603 4134 
L 603 4863 
z
" transform="scale(0.015625)"/>
       <path id="DejaVuSans-6e" d="M 3513 2113 
L 3513 0 
L 2938 0 
L 2938 2094 
Q 2938 2591 2744 2837 
Q 2550 3084 2163 3084 
Q 1697 3084 1428 2787 
Q 1159 2491 1159 1978 
L 1159 0 
L 581 0 
L 581 3500 
L 1159 3500 
L 1159 2956 
Q 1366 3272 1645 3428 
Q 1925 3584 2291 3584 
Q 2894 3584 3203 3211 
Q 3513 2838 3513 2113 
z
" transform="scale(0.015625)"/>
       <path id="DejaVuSans-75" d="M 544 1381 
L 544 3500 
L 1119 3500 
L 1119 1403 
Q 1119 906 1312 657 
Q 1506 409 1894 409 
Q 2359 409 2629 706 
Q 2900 1003 2900 1516 
L 2900 3500 
L 3475 3500 
L 3475 0 
L 2900 0 
L 2900 538 
Q 2691 219 2414 64 
Q 2138 -91 1772 -91 
Q 1169 -91 856 284 
Q 544 659 544 1381 
z
M 1991 3584 
L 1991 3584 
z
" transform="scale(0.015625)"/>
       <path id="DejaVuSans-74" d="M 1172 4494 
L 1172 3500 
L 2356 3500 
L 2356 3053 
L 1172 3053 
L 1172 1153 
Q 1172 725 1289 603 
Q 1406 481 1766 481 
L 2356 481 
L 2356 0 
L 1766 0 
Q 1100 0 847 248 
Q 594 497 594 1153 
L 594 3053 
L 172 3053 
L 172 3500 
L 594 3500 
L 594 4494 
L 1172 4494 
z
" transform="scale(0.015625)"/>
       <path id="DejaVuSans-65" d="M 3597 1894 
L 3597 1613 
L 953 1613 
Q 991 1019 1311 708 
Q 1631 397 2203 397 
Q 2534 397 2845 478 
Q 3156 559 3463 722 
L 3463 178 
Q 3153 47 2828 -22 
Q 2503 -91 2169 -91 
Q 1331 -91 842 396 
Q 353 884 353 1716 
Q 353 2575 817 3079 
Q 1281 3584 2069 3584 
Q 2775 3584 3186 3129 
Q 3597 2675 3597 1894 
z
M 3022 2063 
Q 3016 2534 2758 2815 
Q 2500 3097 2075 3097 
Q 1594 3097 1305 2825 
Q 1016 2553 972 2059 
L 3022 2063 
z
" transform="scale(0.015625)"/>
       <path id="DejaVuSans-73" d="M 2834 3397 
L 2834 2853 
Q 2591 2978 2328 3040 
Q 2066 3103 1784 3103 
Q 1356 3103 1142 2972 
Q 928 2841 928 2578 
Q 928 2378 1081 2264 
Q 1234 2150 1697 2047 
L 1894 2003 
Q 2506 1872 2764 1633 
Q 3022 1394 3022 966 
Q 3022 478 2636 193 
Q 2250 -91 1575 -91 
Q 1294 -91 989 -36 
Q 684 19 347 128 
L 347 722 
Q 666 556 975 473 
Q 1284 391 1588 391 
Q 1994 391 2212 530 
Q 2431 669 2431 922 
Q 2431 1156 2273 1281 
Q 2116 1406 1581 1522 
L 1381 1569 
Q 847 1681 609 1914 
Q 372 2147 372 2553 
Q 372 3047 722 3315 
Q 1072 3584 1716 3584 
Q 2034 3584 2315 3537 
Q 2597 3491 2834 3397 
z
" transform="scale(0.015625)"/>
       <path id="DejaVuSans-20" transform="scale(0.015625)"/>
       <path id="DejaVuSans-63" d="M 3122 3366 
L 3122 2828 
Q 2878 2963 2633 3030 
Q 2388 3097 2138 3097 
Q 1578 3097 1268 2742 
Q 959 2388 959 1747 
Q 959 1106 1268 751 
Q 1578 397 2138 397 
Q 2388 397 2633 464 
Q 2878 531 3122 666 
L 3122 134 
Q 2881 22 2623 -34 
Q 2366 -91 2075 -91 
Q 1284 -91 818 406 
Q 353 903 353 1747 
Q 353 2603 823 3093 
Q 1294 3584 2113 3584 
Q 2378 3584 2631 3529 
Q 2884 3475 3122 3366 
z
" transform="scale(0.015625)"/>
       <path id="DejaVuSans-6f" d="M 1959 3097 
Q 1497 3097 1228 2736 
Q 959 2375 959 1747 
Q 959 1119 1226 758 
Q 1494 397 1959 397 
Q 2419 397 2687 759 
Q 2956 1122 2956 1747 
Q 2956 2369 2687 2733 
Q 2419 3097 1959 3097 
z
M 1959 3584 
Q 2709 3584 3137 3096 
Q 3566 2609 3566 1747 
Q 3566 888 3137 398 
Q 2709 -91 1959 -91 
Q 1206 -91 779 398 
Q 353 888 353 1747 
Q 353 2609 779 3096 
Q 1206 3584 1959 3584 
z
" transform="scale(0.015625)"/>
       <path id="DejaVuSans-61" d="M 2194 1759 
Q 1497 1759 1228 1600 
Q 959 1441 959 1056 
Q 959 750 1161 570 
Q 1363 391 1709 391 
Q 2188 391 2477 730 
Q 2766 1069 2766 1631 
L 2766 1759 
L 2194 1759 
z
M 3341 1997 
L 3341 0 
L 2766 0 
L 2766 531 
Q 2569 213 2275 61 
Q 1981 -91 1556 -91 
Q 1019 -91 701 211 
Q 384 513 384 1019 
Q 384 1609 779 1909 
Q 1175 2209 1959 2209 
L 2766 2209 
L 2766 2266 
Q 2766 2663 2505 2880 
Q 2244 3097 1772 3097 
Q 1472 3097 1187 3025 
Q 903 2953 641 2809 
L 641 3341 
Q 956 3463 1253 3523 
Q 1550 3584 1831 3584 
Q 2591 3584 2966 3190 
Q 3341 2797 3341 1997 
z
" transform="scale(0.015625)"/>
       <path id="DejaVuSans-72" d="M 2631 2963 
Q 2534 3019 2420 3045 
Q 2306 3072 2169 3072 
Q 1681 3072 1420 2755 
Q 1159 2438 1159 1844 
L 1159 0 
L 581 0 
L 581 3500 
L 1159 3500 
L 1159 2956 
Q 1341 3275 1631 3429 
Q 1922 3584 2338 3584 
Q 2397 3584 2469 3576 
Q 2541 3569 2628 3553 
L 2631 2963 
z
" transform="scale(0.015625)"/>
      </defs>
      <use xlink:href="#DejaVuSans-4d"/>
      <use xlink:href="#DejaVuSans-69" transform="translate(86.279297 0)"/>
      <use xlink:href="#DejaVuSans-6e" transform="translate(114.0625 0)"/>
      <use xlink:href="#DejaVuSans-75" transform="translate(177.441406 0)"/>
      <use xlink:href="#DejaVuSans-74" transform="translate(240.820312 0)"/>
      <use xlink:href="#DejaVuSans-65" transform="translate(280.029297 0)"/>
      <use xlink:href="#DejaVuSans-73" transform="translate(341.552734 0)"/>
      <use xlink:href="#DejaVuSans-20" transform="translate(393.652344 0)"/>
      <use xlink:href="#DejaVuSans-73" transform="translate(425.439453 0)"/>
      <use xlink:href="#DejaVuSans-69" transform="translate(477.539062 0)"/>
      <use xlink:href="#DejaVuSans-6e" transform="translate(505.322266 0)"/>
      <use xlink:href="#DejaVuSans-63" transform="translate(568.701172 0)"/>
      <use xlink:href="#DejaVuSans-65" transform="translate(623.681641 0)"/>
      <use xlink:href="#DejaVuSans-20" transform="translate(685.205078 0)"/>
      <use xlink:href="#DejaVuSans-73" transform="translate(716.992188 0)"/>
      <use xlink:href="#DejaVuSans-65" transform="translate(769.091797 0)"/>
      <use xlink:href="#DejaVuSans-73" transform="translate(830.615234 0)"/>
      <use xlink:href="#DejaVuSans-73" transform="translate(882.714844 0)"/>
      <use xlink:href="#DejaVuSans-69" transform="translate(934.814453 0)"/>
      <use xlink:href="#DejaVuSans-6f" transform="translate(962.597656 0)"/>
      <use xlink:href="#DejaVuSans-6e" transform="translate(1023.779297 0)"/>
      <use xlink:href="#DejaVuSans-20" transform="translate(1087.158203 0)"/>
      <use xlink:href="#DejaVuSans-73" transform="translate(1118.945312 0)"/>
      <use xlink:href="#DejaVuSans-74" transform="translate(1171.044922 0)"/>
      <use xlink:href="#DejaVuSans-61" transform="translate(1210.253906 0)"/>
      <use xlink:href="#DejaVuSans-72" transform="translate(1271.533203 0)"/>
      <use xlink:href="#DejaVuSans-74" transform="translate(1312.646484 0)"/>
     </g>
    </g>
   </g>
   <g id="matplotlib.axis_2">
    <g id="ytick_1">
     <g id="line2d_17">
      <path d="M 39.330625 227.48957 
L 935.305625 227.48957 
" clip-path="url(#p3d36a718ab)" style="fill: none; stroke: #eef2f7; stroke-opacity: 0.25; stroke-width: 0.55; stroke-linecap: square"/>
     </g>
     <g id="line2d_18">
      <defs>
       <path id="m95224bed4f" d="M 0 0 
L -3.5 0 
" style="stroke: #000000; stroke-width: 0.8"/>
      </defs>
      <g>
       <use xlink:href="#m95224bed4f" x="39.330625" y="227.48957" style="stroke: #000000; stroke-width: 0.8"/>
      </g>
     </g>
     <g id="text_10">
      <!-- 29 -->
      <g transform="translate(20.878125 230.908867) scale(0.09 -0.09)">
       <defs>
        <path id="DejaVuSans-39" d="M 703 97 
L 703 672 
Q 941 559 1184 500 
Q 1428 441 1663 441 
Q 2288 441 2617 861 
Q 2947 1281 2994 2138 
Q 2813 1869 2534 1725 
Q 2256 1581 1919 1581 
Q 1219 1581 811 2004 
Q 403 2428 403 3163 
Q 403 3881 828 4315 
Q 1253 4750 1959 4750 
Q 2769 4750 3195 4129 
Q 3622 3509 3622 2328 
Q 3622 1225 3098 567 
Q 2575 -91 1691 -91 
Q 1453 -91 1209 -44 
Q 966 3 703 97 
z
M 1959 2075 
Q 2384 2075 2632 2365 
Q 2881 2656 2881 3163 
Q 2881 3666 2632 3958 
Q 2384 4250 1959 4250 
Q 1534 4250 1286 3958 
Q 1038 3666 1038 3163 
Q 1038 2656 1286 2365 
Q 1534 2075 1959 2075 
z
" transform="scale(0.015625)"/>
       </defs>
       <use xlink:href="#DejaVuSans-32"/>
       <use xlink:href="#DejaVuSans-39" transform="translate(63.623047 0)"/>
      </g>
     </g>
    </g>
    <g id="ytick_2">
     <g id="line2d_19">
      <path d="M 39.330625 196.745589 
L 935.305625 196.745589 
" clip-path="url(#p3d36a718ab)" style="fill: none; stroke: #eef2f7; stroke-opacity: 0.25; stroke-width: 0.55; stroke-linecap: square"/>
     </g>
     <g id="line2d_20">
      <g>
       <use xlink:href="#m95224bed4f" x="39.330625" y="196.745589" style="stroke: #000000; stroke-width: 0.8"/>
      </g>
     </g>
     <g id="text_11">
      <!-- 30 -->
      <g transform="translate(20.878125 200.164886) scale(0.09 -0.09)">
       <defs>
        <path id="DejaVuSans-33" d="M 2597 2516 
Q 3050 2419 3304 2112 
Q 3559 1806 3559 1356 
Q 3559 666 3084 287 
Q 2609 -91 1734 -91 
Q 1441 -91 1130 -33 
Q 819 25 488 141 
L 488 750 
Q 750 597 1062 519 
Q 1375 441 1716 441 
Q 2309 441 2620 675 
Q 2931 909 2931 1356 
Q 2931 1769 2642 2001 
Q 2353 2234 1838 2234 
L 1294 2234 
L 1294 2753 
L 1863 2753 
Q 2328 2753 2575 2939 
Q 2822 3125 2822 3475 
Q 2822 3834 2567 4026 
Q 2313 4219 1838 4219 
Q 1578 4219 1281 4162 
Q 984 4106 628 3988 
L 628 4550 
Q 988 4650 1302 4700 
Q 1616 4750 1894 4750 
Q 2613 4750 3031 4423 
Q 3450 4097 3450 3541 
Q 3450 3153 3228 2886 
Q 3006 2619 2597 2516 
z
" transform="scale(0.015625)"/>
       </defs>
       <use xlink:href="#DejaVuSans-33"/>
       <use xlink:href="#DejaVuSans-30" transform="translate(63.623047 0)"/>
      </g>
     </g>
    </g>
    <g id="ytick_3">
     <g id="line2d_21">
      <path d="M 39.330625 166.001608 
L 935.305625 166.001608 
" clip-path="url(#p3d36a718ab)" style="fill: none; stroke: #eef2f7; stroke-opacity: 0.25; stroke-width: 0.55; stroke-linecap: square"/>
     </g>
     <g id="line2d_22">
      <g>
       <use xlink:href="#m95224bed4f" x="39.330625" y="166.001608" style="stroke: #000000; stroke-width: 0.8"/>
      </g>
     </g>
     <g id="text_12">
      <!-- 31 -->
      <g transform="translate(20.878125 169.420905) scale(0.09 -0.09)">
       <use xlink:href="#DejaVuSans-33"/>
       <use xlink:href="#DejaVuSans-31" transform="translate(63.623047 0)"/>
      </g>
     </g>
    </g>
    <g id="ytick_4">
     <g id="line2d_23">
      <path d="M 39.330625 135.257628 
L 935.305625 135.257628 
" clip-path="url(#p3d36a718ab)" style="fill: none; stroke: #eef2f7; stroke-opacity: 0.25; stroke-width: 0.55; stroke-linecap: square"/>
     </g>
     <g id="line2d_24">
      <g>
       <use xlink:href="#m95224bed4f" x="39.330625" y="135.257628" style="stroke: #000000; stroke-width: 0.8"/>
      </g>
     </g>
     <g id="text_13">
      <!-- 32 -->
      <g transform="translate(20.878125 138.676925) scale(0.09 -0.09)">
       <use xlink:href="#DejaVuSans-33"/>
       <use xlink:href="#DejaVuSans-32" transform="translate(63.623047 0)"/>
      </g>
     </g>
    </g>
    <g id="ytick_5">
     <g id="line2d_25">
      <path d="M 39.330625 104.513647 
L 935.305625 104.513647 
" clip-path="url(#p3d36a718ab)" style="fill: none; stroke: #eef2f7; stroke-opacity: 0.25; stroke-width: 0.55; stroke-linecap: square"/>
     </g>
     <g id="line2d_26">
      <g>
       <use xlink:href="#m95224bed4f" x="39.330625" y="104.513647" style="stroke: #000000; stroke-width: 0.8"/>
      </g>
     </g>
     <g id="text_14">
      <!-- 33 -->
      <g transform="translate(20.878125 107.932944) scale(0.09 -0.09)">
       <use xlink:href="#DejaVuSans-33"/>
       <use xlink:href="#DejaVuSans-33" transform="translate(63.623047 0)"/>
      </g>
     </g>
    </g>
    <g id="ytick_6">
     <g id="line2d_27">
      <path d="M 39.330625 73.769666 
L 935.305625 73.769666 
" clip-path="url(#p3d36a718ab)" style="fill: none; stroke: #eef2f7; stroke-opacity: 0.25; stroke-width: 0.55; stroke-linecap: square"/>
     </g>
     <g id="line2d_28">
      <g>
       <use xlink:href="#m95224bed4f" x="39.330625" y="73.769666" style="stroke: #000000; stroke-width: 0.8"/>
      </g>
     </g>
     <g id="text_15">
      <!-- 34 -->
      <g transform="translate(20.878125 77.188963) scale(0.09 -0.09)">
       <defs>
        <path id="DejaVuSans-34" d="M 2419 4116 
L 825 1625 
L 2419 1625 
L 2419 4116 
z
M 2253 4666 
L 3047 4666 
L 3047 1625 
L 3713 1625 
L 3713 1100 
L 3047 1100 
L 3047 0 
L 2419 0 
L 2419 1100 
L 313 1100 
L 313 1709 
L 2253 4666 
z
" transform="scale(0.015625)"/>
       </defs>
       <use xlink:href="#DejaVuSans-33"/>
       <use xlink:href="#DejaVuSans-34" transform="translate(63.623047 0)"/>
      </g>
     </g>
    </g>
    <g id="ytick_7">
     <g id="line2d_29">
      <path d="M 39.330625 43.025685 
L 935.305625 43.025685 
" clip-path="url(#p3d36a718ab)" style="fill: none; stroke: #eef2f7; stroke-opacity: 0.25; stroke-width: 0.55; stroke-linecap: square"/>
     </g>
     <g id="line2d_30">
      <g>
       <use xlink:href="#m95224bed4f" x="39.330625" y="43.025685" style="stroke: #000000; stroke-width: 0.8"/>
      </g>
     </g>
     <g id="text_16">
      <!-- 35 -->
      <g transform="translate(20.878125 46.444982) scale(0.09 -0.09)">
       <use xlink:href="#DejaVuSans-33"/>
       <use xlink:href="#DejaVuSans-35" transform="translate(63.623047 0)"/>
      </g>
     </g>
    </g>
    <g id="text_17">
     <!-- Temperature (C) -->
     <g transform="translate(14.798438 163.659635) rotate(-90) scale(0.1 -0.1)">
      <defs>
       <path id="DejaVuSans-54" d="M -19 4666 
L 3928 4666 
L 3928 4134 
L 2272 4134 
L 2272 0 
L 1638 0 
L 1638 4134 
L -19 4134 
L -19 4666 
z
" transform="scale(0.015625)"/>
       <path id="DejaVuSans-6d" d="M 3328 2828 
Q 3544 3216 3844 3400 
Q 4144 3584 4550 3584 
Q 5097 3584 5394 3201 
Q 5691 2819 5691 2113 
L 5691 0 
L 5113 0 
L 5113 2094 
Q 5113 2597 4934 2840 
Q 4756 3084 4391 3084 
Q 3944 3084 3684 2787 
Q 3425 2491 3425 1978 
L 3425 0 
L 2847 0 
L 2847 2094 
Q 2847 2600 2669 2842 
Q 2491 3084 2119 3084 
Q 1678 3084 1418 2786 
Q 1159 2488 1159 1978 
L 1159 0 
L 581 0 
L 581 3500 
L 1159 3500 
L 1159 2956 
Q 1356 3278 1631 3431 
Q 1906 3584 2284 3584 
Q 2666 3584 2933 3390 
Q 3200 3197 3328 2828 
z
" transform="scale(0.015625)"/>
       <path id="DejaVuSans-70" d="M 1159 525 
L 1159 -1331 
L 581 -1331 
L 581 3500 
L 1159 3500 
L 1159 2969 
Q 1341 3281 1617 3432 
Q 1894 3584 2278 3584 
Q 2916 3584 3314 3078 
Q 3713 2572 3713 1747 
Q 3713 922 3314 415 
Q 2916 -91 2278 -91 
Q 1894 -91 1617 61 
Q 1341 213 1159 525 
z
M 3116 1747 
Q 3116 2381 2855 2742 
Q 2594 3103 2138 3103 
Q 1681 3103 1420 2742 
Q 1159 2381 1159 1747 
Q 1159 1113 1420 752 
Q 1681 391 2138 391 
Q 2594 391 2855 752 
Q 3116 1113 3116 1747 
z
" transform="scale(0.015625)"/>
       <path id="DejaVuSans-28" d="M 1984 4856 
Q 1566 4138 1362 3434 
Q 1159 2731 1159 2009 
Q 1159 1288 1364 580 
Q 1569 -128 1984 -844 
L 1484 -844 
Q 1016 -109 783 600 
Q 550 1309 550 2009 
Q 550 2706 781 3412 
Q 1013 4119 1484 4856 
L 1984 4856 
z
" transform="scale(0.015625)"/>
       <path id="DejaVuSans-43" d="M 4122 4306 
L 4122 3641 
Q 3803 3938 3442 4084 
Q 3081 4231 2675 4231 
Q 1875 4231 1450 3742 
Q 1025 3253 1025 2328 
Q 1025 1406 1450 917 
Q 1875 428 2675 428 
Q 3081 428 3442 575 
Q 3803 722 4122 1019 
L 4122 359 
Q 3791 134 3420 21 
Q 3050 -91 2638 -91 
Q 1578 -91 968 557 
Q 359 1206 359 2328 
Q 359 3453 968 4101 
Q 1578 4750 2638 4750 
Q 3056 4750 3426 4639 
Q 3797 4528 4122 4306 
z
" transform="scale(0.015625)"/>
       <path id="DejaVuSans-29" d="M 513 4856 
L 1013 4856 
Q 1481 4119 1714 3412 
Q 1947 2706 1947 2009 
Q 1947 1309 1714 600 
Q 1481 -109 1013 -844 
L 513 -844 
Q 928 -128 1133 580 
Q 1338 1288 1338 2009 
Q 1338 2731 1133 3434 
Q 928 4138 513 4856 
z
" transform="scale(0.015625)"/>
      </defs>
      <use xlink:href="#DejaVuSans-54"/>
      <use xlink:href="#DejaVuSans-65" transform="translate(44.083984 0)"/>
      <use xlink:href="#DejaVuSans-6d" transform="translate(105.607422 0)"/>
      <use xlink:href="#DejaVuSans-70" transform="translate(203.019531 0)"/>
      <use xlink:href="#DejaVuSans-65" transform="translate(266.496094 0)"/>
      <use xlink:href="#DejaVuSans-72" transform="translate(328.019531 0)"/>
      <use xlink:href="#DejaVuSans-61" transform="translate(369.132812 0)"/>
      <use xlink:href="#DejaVuSans-74" transform="translate(430.412109 0)"/>
      <use xlink:href="#DejaVuSans-75" transform="translate(469.621094 0)"/>
      <use xlink:href="#DejaVuSans-72" transform="translate(533 0)"/>
      <use xlink:href="#DejaVuSans-65" transform="translate(571.863281 0)"/>
      <use xlink:href="#DejaVuSans-20" transform="translate(633.386719 0)"/>
      <use xlink:href="#DejaVuSans-28" transform="translate(665.173828 0)"/>
      <use xlink:href="#DejaVuSans-43" transform="translate(704.1875 0)"/>
      <use xlink:href="#DejaVuSans-29" transform="translate(774.011719 0)"/>
     </g>
    </g>
   </g>
   <g id="line2d_31">
    <path d="M 39.364484 218.602638 
L 39.666435 219.083013 
L 39.968385 217.641889 
L 40.270335 218.362451 
L 40.572286 218.602638 
L 40.874236 219.083013 
L 41.176187 218.842825 
L 41.478137 219.083013 
L 41.780087 218.842825 
L 42.082038 219.3232 
L 42.383988 219.083013 
L 42.685939 218.362451 
L 42.987889 218.122263 
L 43.289839 218.122263 
L 43.59179 217.882076 
L 43.89374 218.362451 
L 44.497641 217.882076 
L 44.799591 217.882076 
L 45.101542 218.122263 
L 45.403492 218.122263 
L 45.705442 219.083013 
L 46.007393 218.602638 
L 46.611294 219.083013 
L 46.913244 218.602638 
L 47.215194 217.161514 
L 47.517145 217.161514 
L 47.819095 216.681139 
L 48.121045 217.882076 
L 48.724946 216.681139 
L 49.026897 216.921327 
L 49.328847 216.681139 
L 49.630797 216.921327 
L 49.932748 216.681139 
L 50.234698 216.921327 
L 51.140549 216.921327 
L 51.4425 216.681139 
L 51.74445 216.681139 
L 52.0464 216.440952 
L 52.348351 215.960577 
L 52.952252 216.440952 
L 53.556152 215.480202 
L 53.858103 215.960577 
L 54.160053 216.200765 
L 54.462004 216.200765 
L 54.763954 215.72039 
L 55.065904 215.72039 
L 55.669805 216.921327 
L 55.971756 216.440952 
L 56.273706 216.681139 
L 56.575656 216.200765 
L 56.877607 216.681139 
L 57.179557 216.200765 
L 57.481507 216.200765 
L 57.783458 216.440952 
L 58.085408 216.440952 
L 58.387359 215.960577 
L 58.689309 215.240015 
L 58.991259 215.480202 
L 59.29321 214.999828 
L 59.897111 215.480202 
L 60.501011 214.279266 
L 60.802962 214.039078 
L 61.708813 214.039078 
L 62.010763 213.798891 
L 62.312714 213.318516 
L 62.614664 213.318516 
L 62.916614 214.039078 
L 63.218565 214.279266 
L 63.520515 214.039078 
L 64.124416 214.519453 
L 64.426366 214.039078 
L 64.728317 214.039078 
L 65.030267 213.558704 
L 65.634168 213.078329 
L 65.936118 213.558704 
L 66.238069 213.078329 
L 66.540019 212.357767 
L 66.841969 212.838142 
L 67.14392 212.357767 
L 67.44587 212.11758 
L 67.747821 212.357767 
L 68.049771 212.357767 
L 68.351721 211.877392 
L 68.653672 211.877392 
L 69.559523 210.436268 
L 70.163424 209.235331 
L 70.465374 208.995144 
L 70.767324 208.995144 
L 71.069275 208.514769 
L 71.673176 208.034395 
L 71.975126 208.034395 
L 72.277076 207.073645 
L 72.579027 206.833458 
L 72.880977 207.073645 
L 73.182928 206.353083 
L 73.484878 206.833458 
L 74.088779 205.632521 
L 74.390729 205.632521 
L 74.99463 205.152146 
L 75.29658 204.671772 
L 75.598531 204.431584 
L 75.900481 203.95121 
L 76.202431 203.95121 
L 76.806332 202.99046 
L 77.108283 202.750273 
L 77.410233 202.99046 
L 78.014134 202.029711 
L 78.316084 202.029711 
L 78.618034 201.789524 
L 78.919985 201.309149 
L 79.221935 201.068961 
L 79.523886 200.348399 
L 80.127786 200.348399 
L 80.429737 199.868025 
L 80.731687 200.108212 
L 81.335588 198.907275 
L 81.939489 197.946526 
L 82.241439 198.186713 
L 82.84534 196.985777 
L 83.14729 196.985777 
L 84.053141 196.265214 
L 84.355092 195.304465 
L 84.657042 195.304465 
L 84.958993 194.82409 
L 85.260943 194.82409 
L 85.562893 194.343716 
L 86.166794 194.343716 
L 86.468744 193.623154 
L 86.770695 193.863341 
L 87.072645 193.863341 
L 87.374596 193.382966 
L 87.676546 193.382966 
L 88.280447 192.422217 
L 88.582397 192.902592 
L 88.884348 191.701655 
L 89.186298 192.18203 
L 89.488248 191.461467 
L 89.790199 191.461467 
L 90.092149 191.22128 
L 90.3941 191.461467 
L 90.69605 190.740905 
L 90.998 190.740905 
L 91.601901 189.780156 
L 91.903851 189.539969 
L 92.205802 189.059594 
L 92.507752 189.299781 
L 93.111653 188.339032 
L 93.413603 188.098845 
L 93.715554 188.098845 
L 94.017504 187.858657 
L 94.319455 187.858657 
L 94.621405 187.378283 
L 94.923355 187.61847 
L 95.527256 186.65772 
L 95.829206 186.65772 
L 96.131157 186.177346 
L 96.735058 186.177346 
L 97.037008 185.937158 
L 97.338958 185.216596 
L 97.640909 185.456784 
L 97.942859 185.216596 
L 98.24481 185.216596 
L 98.54676 184.976409 
L 98.84871 185.216596 
L 99.150661 184.255847 
L 99.754561 184.255847 
L 100.056512 184.736222 
L 100.358462 184.01566 
L 100.660413 184.01566 
L 101.264313 183.535285 
L 101.566264 183.775472 
L 101.868214 183.535285 
L 102.170165 184.01566 
L 102.472115 183.535285 
L 103.377966 183.535285 
L 103.679916 183.295098 
L 103.981867 183.535285 
L 104.283817 183.535285 
L 104.585768 182.574536 
L 104.887718 182.574536 
L 105.189668 182.334348 
L 105.793569 182.334348 
L 106.39747 182.814723 
L 106.69942 182.814723 
L 107.001371 182.574536 
L 107.303321 182.814723 
L 107.605272 182.814723 
L 107.907222 183.05491 
L 108.209172 182.814723 
L 108.511123 183.295098 
L 108.813073 183.535285 
L 109.416974 183.535285 
L 109.718924 183.295098 
L 110.020875 183.535285 
L 110.322825 183.535285 
L 110.624775 183.775472 
L 110.926726 183.535285 
L 111.530627 183.535285 
L 112.134527 184.01566 
L 113.040378 183.295098 
L 113.94623 183.295098 
L 114.24818 183.775472 
L 114.55013 183.295098 
L 114.852081 183.535285 
L 115.154031 184.01566 
L 115.455982 183.775472 
L 115.757932 183.775472 
L 116.059882 184.01566 
L 116.361833 183.775472 
L 116.663783 184.01566 
L 117.569634 184.01566 
L 117.871585 184.496034 
L 118.173535 184.255847 
L 118.475485 184.255847 
L 118.777436 184.976409 
L 119.079386 184.255847 
L 119.683287 184.736222 
L 119.985237 184.736222 
L 120.287188 184.255847 
L 120.891088 184.255847 
L 121.193039 184.736222 
L 121.494989 184.255847 
L 121.79694 183.295098 
L 122.09889 183.535285 
L 122.40084 183.295098 
L 122.702791 182.574536 
L 123.306692 182.574536 
L 123.910592 181.373599 
L 124.212543 181.373599 
L 125.118394 180.653037 
L 125.420344 180.653037 
L 125.722295 179.4521 
L 126.024245 179.211913 
L 126.628146 178.251163 
L 126.930096 178.010976 
L 127.232047 177.290414 
L 127.533997 177.050227 
L 130.855451 169.124044 
L 131.157402 167.923107 
L 131.459352 167.68292 
L 131.761302 166.481983 
L 132.063253 166.481983 
L 132.667154 164.800672 
L 132.969104 164.560484 
L 133.271054 163.359548 
L 133.874955 161.918423 
L 134.176905 161.678236 
L 134.478856 160.957674 
L 135.082757 158.795988 
L 136.290558 156.153927 
L 136.894459 153.752054 
L 137.196409 153.271679 
L 137.49836 151.830555 
L 137.80031 151.590367 
L 138.10226 150.629618 
L 138.404211 149.188494 
L 139.008112 147.74737 
L 139.310062 146.546433 
L 139.612012 146.066058 
L 140.517864 142.703435 
L 140.819814 141.742686 
L 141.121764 141.502499 
L 144.141268 131.895005 
L 144.745169 129.252944 
L 145.047119 129.012757 
L 145.65102 127.331445 
L 145.952971 126.85107 
L 146.254921 125.890321 
L 146.556871 125.409946 
L 147.160772 123.728635 
L 147.462722 123.24826 
L 147.764673 122.527698 
L 148.066623 122.527698 
L 148.368574 121.326761 
L 149.274425 119.885637 
L 149.576375 118.924888 
L 149.878326 118.684701 
L 150.482226 117.723951 
L 150.784177 116.763202 
L 151.086127 116.523014 
L 151.388077 116.04264 
L 151.690028 115.322078 
L 151.991978 115.322078 
L 152.293929 114.841703 
L 152.595879 114.601516 
L 152.897829 113.160391 
L 153.19978 113.400579 
L 153.50173 112.680017 
L 153.803681 112.920204 
L 154.105631 111.719267 
L 154.407581 111.238893 
L 154.709532 111.238893 
L 155.011482 110.518331 
L 155.615383 110.037956 
L 155.917333 108.837019 
L 156.219284 108.837019 
L 156.823184 107.87627 
L 157.125135 107.636082 
L 157.427085 106.91552 
L 158.030986 106.435146 
L 158.634887 105.234209 
L 158.936837 104.994022 
L 159.238788 104.994022 
L 159.540738 104.513647 
L 159.842688 103.793085 
L 160.144639 103.552897 
L 160.748539 102.592148 
L 161.05049 103.072523 
L 161.35244 102.111773 
L 161.654391 101.631399 
L 161.956341 101.631399 
L 162.258291 100.910837 
L 162.560242 100.670649 
L 163.164143 100.670649 
L 164.371944 98.74915 
L 164.673894 98.508963 
L 164.975845 98.028588 
L 165.579746 97.548214 
L 165.881696 97.548214 
L 166.183646 96.827652 
L 166.485597 96.587464 
L 166.787547 97.308026 
L 167.089498 95.866902 
L 167.391448 95.626715 
L 167.693398 95.866902 
L 167.995349 95.866902 
L 168.599249 94.906153 
L 168.9012 94.665966 
L 169.20315 94.185591 
L 169.807051 94.185591 
L 170.109001 92.984654 
L 170.410952 93.465029 
L 171.014853 93.465029 
L 171.316803 92.744467 
L 171.618753 92.504279 
L 171.920704 92.023905 
L 172.222654 92.264092 
L 172.524604 91.54353 
L 172.826555 91.303343 
L 173.128505 90.582781 
L 173.430456 91.303343 
L 173.732406 90.822968 
L 174.336307 90.342593 
L 174.638257 89.622031 
L 174.940208 90.102406 
L 175.242158 89.862219 
L 175.544108 89.862219 
L 175.846059 89.381844 
L 176.148009 89.381844 
L 176.44996 89.141656 
L 176.75191 88.661282 
L 177.05386 88.421094 
L 177.355811 87.94072 
L 177.657761 88.421094 
L 177.959711 87.700532 
L 178.563612 87.220158 
L 178.865563 87.460345 
L 179.469463 86.259408 
L 179.771414 85.779034 
L 180.375315 85.779034 
L 180.979215 85.298659 
L 181.281166 84.578097 
L 181.583116 84.337909 
L 181.885066 84.578097 
L 182.187017 84.337909 
L 182.488967 83.857535 
L 182.790918 83.857535 
L 183.092868 84.097722 
L 183.394818 83.37716 
L 183.998719 82.896785 
L 184.30067 83.136973 
L 184.90457 82.176223 
L 185.508471 82.176223 
L 186.112372 81.215474 
L 186.414322 81.936036 
L 186.716273 81.215474 
L 187.018223 80.975287 
L 187.320173 81.215474 
L 187.622124 80.735099 
L 187.924074 80.014537 
L 188.226025 80.014537 
L 188.527975 80.494912 
L 188.829925 80.014537 
L 189.131876 79.77435 
L 189.433826 79.77435 
L 189.735776 79.534162 
L 190.037727 79.053788 
L 190.339677 79.053788 
L 190.641628 78.8136 
L 191.245528 77.852851 
L 191.547479 78.093038 
L 191.849429 78.093038 
L 192.75528 77.372476 
L 193.057231 77.372476 
L 193.359181 76.892102 
L 193.661132 77.132289 
L 193.963082 77.132289 
L 194.265032 76.892102 
L 194.566983 76.17154 
L 194.868933 76.411727 
L 195.170883 75.931352 
L 195.472834 76.17154 
L 195.774784 75.931352 
L 196.076735 75.931352 
L 196.378685 75.450978 
L 196.680635 75.450978 
L 196.982586 75.21079 
L 197.284536 74.730415 
L 197.586487 74.730415 
L 197.888437 74.970603 
L 198.190387 74.490228 
L 198.794288 74.009853 
L 199.096238 74.009853 
L 199.398189 73.769666 
L 200.00209 72.568729 
L 200.30404 73.289291 
L 200.60599 72.568729 
L 200.907941 72.808917 
L 201.209891 72.808917 
L 201.511842 72.568729 
L 201.813792 71.848167 
L 202.417693 71.848167 
L 202.719643 71.60798 
L 203.021593 71.127605 
L 203.323544 70.887418 
L 203.625494 70.887418 
L 203.927445 70.166856 
L 204.229395 70.407043 
L 204.531345 69.926668 
L 204.833296 70.166856 
L 205.135246 69.686481 
L 205.437197 69.686481 
L 206.041097 69.206106 
L 206.343048 69.206106 
L 206.644998 69.446294 
L 207.248899 68.485544 
L 207.550849 68.245357 
L 208.15475 68.725732 
L 208.4567 67.764982 
L 208.758651 68.245357 
L 209.060601 68.245357 
L 209.362552 67.764982 
L 209.664502 67.524795 
L 210.268403 67.524795 
L 210.570353 67.764982 
L 210.872304 67.04442 
L 211.174254 66.804233 
L 211.476204 67.04442 
L 211.778155 66.323858 
L 212.080105 66.804233 
L 212.382055 66.323858 
L 212.684006 66.564046 
L 212.985956 66.323858 
L 213.287907 66.323858 
L 213.589857 65.603296 
L 213.891807 65.843484 
L 214.193758 65.843484 
L 214.797659 65.363109 
L 215.099609 64.882734 
L 215.401559 64.882734 
L 215.70351 64.642547 
L 216.00546 64.882734 
L 216.911311 64.162172 
L 217.213262 64.402359 
L 217.515212 64.162172 
L 217.817162 63.681797 
L 218.119113 63.44161 
L 218.723014 63.44161 
L 219.024964 63.201423 
L 219.326914 62.721048 
L 219.628865 62.721048 
L 220.232765 62.240673 
L 220.534716 62.480861 
L 220.836666 62.000486 
L 221.440567 61.520111 
L 221.742517 61.760299 
L 222.044468 61.279924 
L 222.346418 61.279924 
L 222.648369 61.039737 
L 222.950319 60.559362 
L 223.252269 61.039737 
L 223.85617 60.078987 
L 224.15812 60.319175 
L 224.460071 60.319175 
L 224.762021 60.559362 
L 225.063972 60.559362 
L 225.365922 60.319175 
L 225.667872 59.8388 
L 225.969823 60.319175 
L 226.271773 59.8388 
L 226.573724 59.8388 
L 226.875674 59.598612 
L 227.177624 60.078987 
L 227.479575 59.118238 
L 227.781525 59.358425 
L 228.083476 59.358425 
L 228.385426 59.598612 
L 228.687376 59.118238 
L 229.291277 58.637863 
L 229.593227 58.637863 
L 229.895178 58.87805 
L 230.197128 58.397676 
L 230.499079 58.637863 
L 230.801029 58.157488 
L 231.102979 58.397676 
L 231.40493 58.157488 
L 231.70688 58.397676 
L 232.008831 58.157488 
L 232.310781 58.157488 
L 232.612731 57.677114 
L 232.914682 57.436926 
L 233.216632 57.436926 
L 233.518582 57.917301 
L 234.424434 57.196739 
L 234.726384 57.196739 
L 235.028334 56.956552 
L 235.330285 57.196739 
L 235.632235 56.476177 
L 236.236136 56.956552 
L 236.538086 56.23599 
L 237.745888 56.23599 
L 238.047838 55.755615 
L 238.349789 55.755615 
L 238.651739 55.515428 
L 238.953689 55.515428 
L 239.25564 55.27524 
L 239.55759 55.755615 
L 239.859541 55.27524 
L 240.161491 55.515428 
L 240.463441 55.035053 
L 240.765392 55.035053 
L 241.369293 54.554678 
L 241.671243 54.554678 
L 241.973193 54.314491 
L 242.275144 55.035053 
L 242.577094 54.314491 
L 242.879044 54.554678 
L 243.180995 54.074303 
L 243.482945 54.554678 
L 243.784896 54.554678 
L 244.388796 53.353741 
L 244.690747 53.593929 
L 244.992697 53.353741 
L 245.294648 53.593929 
L 245.596598 53.593929 
L 245.898548 52.873367 
L 246.502449 52.873367 
L 246.804399 53.113554 
L 247.10635 52.873367 
L 247.4083 53.113554 
L 247.710251 52.392992 
L 248.012201 52.873367 
L 248.918052 52.152805 
L 249.220003 52.152805 
L 249.521953 51.912617 
L 249.823903 51.192055 
L 250.427804 51.192055 
L 250.729754 50.951868 
L 251.031705 51.192055 
L 251.333655 50.951868 
L 251.937556 51.432243 
L 252.239506 50.711681 
L 252.541457 51.432243 
L 252.843407 51.432243 
L 253.447308 50.951868 
L 254.051209 51.432243 
L 254.353159 51.432243 
L 254.655109 51.67243 
L 254.95706 51.432243 
L 255.25901 50.951868 
L 255.560961 51.192055 
L 255.862911 51.192055 
L 256.164861 51.912617 
L 256.466812 51.192055 
L 256.768762 51.432243 
L 257.372663 51.432243 
L 257.674613 51.67243 
L 258.278514 51.67243 
L 258.580465 51.432243 
L 258.882415 51.67243 
L 260.090216 51.67243 
L 260.392167 51.192055 
L 260.694117 52.152805 
L 260.996068 51.432243 
L 261.599968 51.912617 
L 261.901919 51.67243 
L 262.203869 52.152805 
L 262.50582 52.152805 
L 262.80777 51.912617 
L 263.411671 51.912617 
L 263.713621 52.152805 
L 264.015571 52.152805 
L 264.317522 52.392992 
L 264.619472 52.152805 
L 264.921423 52.633179 
L 265.223373 52.152805 
L 265.525323 52.392992 
L 265.827274 52.392992 
L 266.129224 51.912617 
L 266.431175 52.392992 
L 266.733125 52.633179 
L 267.337026 52.152805 
L 267.638976 52.873367 
L 267.940926 52.873367 
L 268.242877 51.912617 
L 268.544827 52.152805 
L 268.846778 52.633179 
L 269.450678 52.633179 
L 270.054579 52.152805 
L 270.35653 52.633179 
L 270.960428 52.633179 
L 271.262378 52.152805 
L 271.564329 52.392992 
L 271.866279 51.912617 
L 272.16823 52.392992 
L 272.47018 52.633179 
L 272.77213 51.912617 
L 273.074081 51.912617 
L 273.376031 52.152805 
L 273.677981 52.633179 
L 273.979932 52.152805 
L 274.583833 52.152805 
L 274.885783 52.633179 
L 275.187733 52.633179 
L 275.791634 52.152805 
L 276.093585 52.392992 
L 276.395535 53.113554 
L 276.697485 52.392992 
L 277.301386 52.392992 
L 277.603336 52.633179 
L 277.905287 52.392992 
L 278.509188 52.873367 
L 278.811138 52.633179 
L 279.716989 52.633179 
L 280.32089 53.113554 
L 280.924791 52.633179 
L 281.226741 52.633179 
L 281.830642 53.113554 
L 282.132592 52.152805 
L 282.434543 52.152805 
L 282.736493 52.633179 
L 283.340394 52.152805 
L 283.642344 52.392992 
L 284.850146 52.392992 
L 285.152096 51.67243 
L 285.454047 51.912617 
L 285.755997 51.432243 
L 286.057947 51.67243 
L 286.359898 51.192055 
L 286.661848 50.471493 
L 286.963798 51.432243 
L 287.265749 51.192055 
L 287.567699 50.711681 
L 287.86965 50.711681 
L 288.47355 50.231306 
L 288.775501 50.471493 
L 289.077451 50.471493 
L 289.983302 49.750931 
L 290.285253 49.991118 
L 290.587203 49.750931 
L 290.889153 49.270556 
L 291.493054 49.270556 
L 291.795005 48.549994 
L 292.096955 49.030369 
L 292.398905 49.030369 
L 292.700856 48.549994 
L 293.002806 48.790182 
L 293.304757 48.309807 
L 293.606707 48.06962 
L 294.210608 48.06962 
L 294.512558 47.349058 
L 294.814508 47.349058 
L 295.116459 46.868683 
L 295.418409 47.10887 
L 296.626211 46.148121 
L 296.928161 46.388308 
L 297.230112 46.148121 
L 297.532062 46.148121 
L 297.834012 45.907934 
L 298.135963 45.907934 
L 298.437913 46.148121 
L 298.739863 45.667746 
L 299.041814 45.907934 
L 299.343764 45.427559 
L 299.947665 45.427559 
L 300.249615 44.947184 
L 300.853516 44.947184 
L 301.155467 44.466809 
L 301.457417 44.706997 
L 302.061318 44.706997 
L 302.665219 43.746247 
L 302.967169 44.226622 
L 303.57107 43.746247 
L 303.87302 43.746247 
L 304.17497 43.986435 
L 304.476921 43.50606 
L 304.778871 43.746247 
L 305.986673 42.785498 
L 306.590574 42.785498 
L 306.892524 43.265873 
L 307.194474 42.785498 
L 307.496425 42.545311 
L 307.798375 42.545311 
L 308.100325 42.305123 
L 308.402276 42.545311 
L 308.704226 42.064936 
L 309.308127 42.545311 
L 309.610077 42.305123 
L 309.912028 41.584561 
L 310.213978 42.305123 
L 310.515929 41.824749 
L 310.817879 41.584561 
L 311.119829 41.584561 
L 311.42178 41.344374 
L 312.02568 41.344374 
L 312.327631 40.623812 
L 312.629581 40.863999 
L 312.931532 40.863999 
L 313.535432 40.383624 
L 313.837383 40.383624 
L 314.139333 40.623812 
L 314.743234 40.143437 
L 315.347135 40.623812 
L 315.649085 39.90325 
L 315.951035 40.383624 
L 316.252986 40.383624 
L 317.158837 39.663062 
L 317.460787 40.143437 
L 317.762738 39.663062 
L 318.064688 39.663062 
L 318.366639 39.182688 
L 318.668589 38.9425 
L 318.970539 39.663062 
L 319.27249 38.702313 
L 319.57444 39.182688 
L 319.876391 39.182688 
L 320.178341 38.702313 
L 320.480291 38.702313 
L 320.782242 38.462126 
L 321.084192 38.462126 
L 321.386142 38.221938 
L 321.688093 38.462126 
L 322.291994 37.981751 
L 322.593944 37.981751 
L 322.895894 37.741564 
L 323.197845 38.221938 
L 323.499795 37.501376 
L 323.801746 37.981751 
L 324.103696 37.501376 
L 324.405646 37.501376 
L 324.707597 37.741564 
L 325.009547 37.501376 
L 325.311497 37.741564 
L 325.613448 37.741564 
L 325.915398 37.021002 
L 326.217349 37.501376 
L 326.519299 37.741564 
L 326.821249 37.741564 
L 327.1232 37.261189 
L 327.42515 37.021002 
L 327.727101 37.261189 
L 328.029051 37.261189 
L 328.331001 37.501376 
L 328.934902 37.501376 
L 329.236852 37.741564 
L 329.538803 37.501376 
L 329.840753 37.501376 
L 330.142704 37.741564 
L 330.444654 37.741564 
L 330.746604 37.501376 
L 331.048555 37.741564 
L 331.350505 37.501376 
L 331.652456 37.741564 
L 331.954406 37.741564 
L 332.256356 37.981751 
L 332.558307 37.741564 
L 332.860257 38.462126 
L 333.162207 37.741564 
L 333.464158 38.462126 
L 333.766108 37.981751 
L 334.068059 37.981751 
L 334.370009 38.221938 
L 334.671959 37.981751 
L 334.97391 38.462126 
L 335.27586 37.741564 
L 335.577811 38.9425 
L 335.879761 38.462126 
L 336.181711 38.9425 
L 336.785612 38.462126 
L 337.087563 38.462126 
L 337.691463 38.9425 
L 337.993414 38.702313 
L 338.899265 38.702313 
L 339.201215 38.462126 
L 339.503166 38.9425 
L 339.805116 39.182688 
L 340.107066 38.702313 
L 340.710967 39.182688 
L 341.012918 39.182688 
L 341.314868 39.663062 
L 341.918769 39.182688 
L 342.220719 39.422875 
L 342.522669 39.422875 
L 342.82462 40.143437 
L 343.12657 39.663062 
L 343.428521 40.383624 
L 343.730471 39.663062 
L 344.334372 40.143437 
L 344.636322 40.143437 
L 345.240223 39.663062 
L 345.542173 39.663062 
L 345.844124 40.383624 
L 346.146074 40.623812 
L 346.448024 40.383624 
L 346.749975 40.863999 
L 347.051925 40.623812 
L 347.353876 40.623812 
L 347.655826 40.863999 
L 347.957776 40.623812 
L 348.259727 41.104187 
L 348.561677 41.104187 
L 348.863628 40.863999 
L 349.165578 41.104187 
L 349.467528 41.104187 
L 349.769479 40.863999 
L 350.071429 41.104187 
L 350.373379 41.104187 
L 350.67533 40.863999 
L 351.581181 41.584561 
L 351.883131 40.863999 
L 352.487032 41.344374 
L 352.788983 41.344374 
L 353.090933 40.863999 
L 353.392883 40.623812 
L 353.694834 41.104187 
L 353.996784 40.863999 
L 354.298735 40.863999 
L 354.600685 41.104187 
L 354.902635 40.623812 
L 355.204586 40.863999 
L 355.506536 40.623812 
L 356.412387 40.623812 
L 356.714338 40.383624 
L 357.016288 40.623812 
L 357.318238 40.623812 
L 357.620189 40.383624 
L 357.922139 41.104187 
L 358.22409 40.623812 
L 358.52604 40.383624 
L 358.82799 40.863999 
L 359.129941 40.383624 
L 359.733841 40.383624 
L 360.035792 40.143437 
L 360.337742 40.623812 
L 360.639693 40.143437 
L 361.243593 40.623812 
L 361.847494 40.143437 
L 362.149445 40.623812 
L 362.451395 39.90325 
L 362.753345 40.383624 
L 363.055296 40.383624 
L 363.357246 40.623812 
L 363.659196 40.383624 
L 363.961147 40.383624 
L 364.263097 40.623812 
L 364.866998 40.143437 
L 365.168948 40.143437 
L 365.470899 40.623812 
L 365.772849 40.143437 
L 366.0748 40.143437 
L 366.37675 39.90325 
L 366.6787 39.90325 
L 366.980651 40.143437 
L 367.282601 39.90325 
L 367.584551 39.90325 
L 368.188452 40.383624 
L 369.094303 40.383624 
L 369.396254 39.90325 
L 369.698204 39.90325 
L 370.000155 40.383624 
L 370.302105 40.383624 
L 370.604055 39.90325 
L 370.906006 40.143437 
L 371.207956 39.663062 
L 371.509907 39.663062 
L 371.811857 40.143437 
L 372.415758 40.143437 
L 373.019658 39.663062 
L 373.321609 39.663062 
L 373.623559 39.90325 
L 373.92551 38.9425 
L 374.22746 39.90325 
L 374.52941 39.422875 
L 375.133311 38.9425 
L 375.435262 39.663062 
L 375.737212 38.9425 
L 376.039162 38.702313 
L 376.341113 38.9425 
L 376.643063 38.462126 
L 376.945013 38.462126 
L 377.246964 38.702313 
L 377.850865 38.221938 
L 378.152815 38.221938 
L 378.756716 37.741564 
L 379.360617 37.741564 
L 379.662567 37.021002 
L 379.964517 37.261189 
L 380.266468 37.021002 
L 380.568418 37.021002 
L 380.870368 36.30044 
L 381.172319 36.540627 
L 381.474269 36.060252 
L 381.77622 36.540627 
L 382.38012 35.579877 
L 382.682071 35.820065 
L 382.984021 35.820065 
L 383.285972 35.579877 
L 383.587922 35.099503 
L 383.889872 35.099503 
L 384.191823 34.859315 
L 384.493773 35.099503 
L 384.795723 34.378941 
L 385.399624 34.378941 
L 386.003525 33.898566 
L 386.607426 33.898566 
L 387.211327 33.418191 
L 387.513277 33.658379 
L 387.815227 32.937817 
L 388.117178 33.658379 
L 388.419128 33.178004 
L 389.023029 32.697629 
L 389.324979 32.697629 
L 389.62693 33.178004 
L 390.23083 32.697629 
L 390.532781 32.937817 
L 391.438632 32.217255 
L 391.740582 32.457442 
L 392.042533 32.457442 
L 392.344483 31.977067 
L 392.646434 32.697629 
L 393.250334 32.217255 
L 393.552285 31.73688 
L 394.156185 32.217255 
L 394.760086 31.73688 
L 395.062037 31.73688 
L 395.363987 31.496693 
L 395.665937 31.73688 
L 395.967888 31.73688 
L 396.269838 31.496693 
L 396.571789 31.73688 
L 396.873739 31.73688 
L 397.47764 31.256505 
L 397.77959 31.977067 
L 398.08154 31.73688 
L 398.383491 31.016318 
L 398.685441 31.256505 
L 398.987392 31.73688 
L 399.289342 31.977067 
L 399.893243 31.496693 
L 400.497144 31.496693 
L 400.799094 31.256505 
L 401.101044 30.77613 
L 401.402995 31.256505 
L 401.704945 31.256505 
L 402.006895 31.016318 
L 402.308846 31.016318 
L 402.610796 30.77613 
L 402.912747 31.496693 
L 403.214697 31.016318 
L 403.818598 30.535943 
L 404.120548 31.016318 
L 404.422499 30.77613 
L 404.724449 31.016318 
L 405.32835 31.016318 
L 405.6303 30.77613 
L 405.932251 30.77613 
L 406.234201 30.535943 
L 406.838097 30.535943 
L 407.140047 30.77613 
L 407.441998 30.535943 
L 407.743948 30.535943 
L 408.045899 30.295756 
L 408.347849 30.295756 
L 408.649799 30.535943 
L 408.95175 30.535943 
L 409.2537 30.055568 
L 409.555651 30.295756 
L 410.461502 29.575194 
L 410.763452 29.575194 
L 411.065402 29.815381 
L 411.367353 29.815381 
L 411.669303 30.535943 
L 412.273204 29.575194 
L 412.575154 29.815381 
L 412.877105 30.295756 
L 413.179055 29.815381 
L 413.481006 29.815381 
L 413.782956 29.575194 
L 414.084906 30.055568 
L 414.386857 30.055568 
L 414.688807 30.295756 
L 415.594658 30.295756 
L 416.198559 30.77613 
L 416.500509 30.77613 
L 416.80246 31.016318 
L 417.10441 31.016318 
L 417.406361 30.77613 
L 418.010261 30.77613 
L 418.312212 31.016318 
L 418.614162 31.016318 
L 418.916113 31.73688 
L 419.218063 31.016318 
L 419.520013 31.496693 
L 419.821964 31.016318 
L 420.123914 31.256505 
L 420.727815 30.77613 
L 421.029765 31.016318 
L 421.331716 31.016318 
L 421.633666 30.77613 
L 421.935616 31.016318 
L 422.237567 31.016318 
L 422.539517 30.535943 
L 422.841468 30.77613 
L 423.143418 30.295756 
L 423.445368 30.77613 
L 423.747319 30.535943 
L 424.049269 31.016318 
L 424.65317 30.055568 
L 424.95512 30.535943 
L 425.559021 30.535943 
L 425.860971 31.256505 
L 426.162922 31.256505 
L 426.464872 30.77613 
L 426.766823 31.73688 
L 427.068773 32.217255 
L 427.370723 31.73688 
L 427.672674 31.496693 
L 427.974624 31.496693 
L 428.276574 31.977067 
L 429.182426 31.256505 
L 429.484376 31.496693 
L 429.786326 31.016318 
L 430.088277 31.496693 
L 430.692178 31.496693 
L 430.994128 31.73688 
L 431.296078 31.496693 
L 431.598029 31.496693 
L 431.899979 31.977067 
L 432.201929 31.016318 
L 432.50388 31.016318 
L 432.80583 31.496693 
L 433.107781 31.016318 
L 433.711681 31.016318 
L 434.013632 31.496693 
L 434.315582 31.016318 
L 434.617533 31.256505 
L 434.919483 31.256505 
L 435.221433 30.77613 
L 435.523384 30.77613 
L 435.825334 31.016318 
L 436.127285 30.535943 
L 436.429235 30.295756 
L 436.731185 30.77613 
L 437.033136 30.295756 
L 437.335086 30.77613 
L 437.637036 30.535943 
L 437.938987 30.77613 
L 438.542888 30.295756 
L 438.844838 30.295756 
L 439.448739 30.77613 
L 439.750689 30.295756 
L 440.05264 30.295756 
L 440.35459 30.055568 
L 440.65654 30.295756 
L 440.958491 30.295756 
L 441.260441 29.815381 
L 441.562391 29.575194 
L 442.166292 30.055568 
L 442.468243 29.815381 
L 442.770193 29.815381 
L 443.072143 30.055568 
L 443.676044 29.575194 
L 443.977995 29.575194 
L 444.279945 30.055568 
L 444.581895 29.575194 
L 444.883846 29.575194 
L 445.487746 30.055568 
L 445.789697 29.575194 
L 446.091647 30.055568 
L 446.393598 29.335006 
L 446.695548 29.335006 
L 446.997498 29.575194 
L 447.299449 29.335006 
L 447.601399 29.575194 
L 447.90335 29.335006 
L 448.2053 29.335006 
L 448.50725 29.094819 
L 448.809201 29.335006 
L 449.111151 29.094819 
L 449.413101 29.094819 
L 449.715052 29.335006 
L 450.017002 28.854632 
L 450.318953 28.854632 
L 450.620903 28.614444 
L 450.922853 28.614444 
L 451.224804 29.094819 
L 451.828705 28.614444 
L 452.130655 28.13407 
L 452.432605 28.13407 
L 452.734556 28.374257 
L 453.036506 28.13407 
L 453.338457 28.614444 
L 453.942357 28.614444 
L 454.244308 27.893882 
L 454.546258 28.13407 
L 454.848208 28.614444 
L 455.150159 27.653695 
L 455.452109 27.893882 
L 455.75406 27.893882 
L 456.05601 28.374257 
L 456.35796 27.653695 
L 457.263812 28.374257 
L 457.867712 27.893882 
L 459.679415 27.893882 
L 459.981365 28.374257 
L 460.283315 28.13407 
L 460.585266 28.374257 
L 460.887216 28.13407 
L 461.189167 28.13407 
L 461.491117 28.374257 
L 461.793067 28.374257 
L 462.095018 27.653695 
L 462.396968 27.893882 
L 463.000869 28.854632 
L 463.302819 27.893882 
L 463.60477 28.13407 
L 463.90672 28.614444 
L 464.20867 28.374257 
L 464.510621 28.614444 
L 464.812571 29.094819 
L 465.416472 28.614444 
L 465.718422 28.614444 
L 466.020373 28.854632 
L 466.322323 28.854632 
L 466.624273 28.614444 
L 467.228174 28.614444 
L 467.530125 28.374257 
L 467.832075 28.614444 
L 468.134025 29.094819 
L 468.435976 29.094819 
L 468.737926 28.614444 
L 469.039877 29.094819 
L 469.341827 28.854632 
L 469.643777 28.854632 
L 469.945728 29.815381 
L 470.247678 29.094819 
L 470.549629 28.854632 
L 470.851579 28.854632 
L 471.153529 29.335006 
L 471.45548 28.854632 
L 471.75743 29.094819 
L 472.05938 29.094819 
L 472.361331 28.854632 
L 472.663281 29.094819 
L 472.965232 28.854632 
L 473.267182 29.094819 
L 473.569132 29.575194 
L 473.871083 28.614444 
L 474.173033 29.094819 
L 474.776934 29.094819 
L 475.078884 28.854632 
L 475.380835 28.854632 
L 475.682785 28.614444 
L 475.984735 29.094819 
L 476.286686 28.854632 
L 476.588636 28.374257 
L 476.890587 29.094819 
L 477.192537 28.854632 
L 477.494487 28.854632 
L 477.796438 28.614444 
L 478.098388 28.614444 
L 478.400339 28.374257 
L 478.702289 28.854632 
L 479.004239 28.614444 
L 479.30619 28.854632 
L 479.60814 28.854632 
L 479.91009 28.614444 
L 480.212041 28.854632 
L 480.513991 28.614444 
L 480.815942 28.854632 
L 481.117892 28.854632 
L 481.419842 28.614444 
L 481.721793 28.13407 
L 482.023743 28.374257 
L 482.627644 28.374257 
L 482.929594 28.614444 
L 483.231545 28.13407 
L 483.533495 28.614444 
L 483.835445 28.614444 
L 484.137396 28.374257 
L 485.043247 28.374257 
L 485.647148 27.893882 
L 485.949098 28.13407 
L 487.1569 28.13407 
L 487.45885 27.653695 
L 487.760801 27.653695 
L 488.364701 28.13407 
L 488.666652 27.893882 
L 488.968602 28.374257 
L 489.270552 27.653695 
L 489.874453 28.13407 
L 490.176404 27.893882 
L 490.478354 28.374257 
L 490.780304 28.614444 
L 491.082255 27.893882 
L 491.384205 28.13407 
L 491.686156 28.13407 
L 491.988106 28.374257 
L 492.592007 27.893882 
L 492.893957 28.13407 
L 493.195907 27.893882 
L 493.497858 27.893882 
L 493.799808 28.13407 
L 494.101759 28.13407 
L 494.403709 27.653695 
L 494.705659 27.893882 
L 495.611511 27.893882 
L 495.913461 27.653695 
L 496.215411 27.653695 
L 496.517362 27.413508 
L 496.819312 26.933133 
L 497.121262 27.653695 
L 497.423213 27.413508 
L 497.725163 27.893882 
L 498.027114 27.413508 
L 498.329064 27.413508 
L 498.631014 27.653695 
L 498.932965 26.933133 
L 499.536866 26.933133 
L 499.838816 27.413508 
L 500.140766 26.692946 
L 500.442717 27.893882 
L 500.744667 27.17332 
L 501.046617 27.413508 
L 501.348568 27.17332 
L 501.650518 27.17332 
L 501.952469 27.653695 
L 502.254419 27.17332 
L 502.556369 27.413508 
L 502.85832 26.692946 
L 503.16027 27.17332 
L 503.462221 26.933133 
L 503.764171 27.413508 
L 504.066121 26.692946 
L 504.368072 27.413508 
L 504.670022 26.933133 
L 504.971973 26.933133 
L 505.575873 27.413508 
L 506.179774 27.413508 
L 506.481724 26.692946 
L 506.783675 27.413508 
L 507.085625 26.933133 
L 507.387576 26.692946 
L 507.689526 27.413508 
L 507.991476 26.933133 
L 508.293427 27.413508 
L 508.595377 27.413508 
L 508.897328 26.933133 
L 509.501228 26.933133 
L 509.803179 27.413508 
L 510.105129 27.653695 
L 510.70903 27.653695 
L 511.01098 27.17332 
L 511.614881 28.374257 
L 511.916831 27.413508 
L 512.218782 27.413508 
L 512.520732 28.374257 
L 513.124633 27.893882 
L 513.426583 28.13407 
L 513.728534 28.13407 
L 514.030484 27.893882 
L 514.332434 28.614444 
L 514.634385 28.13407 
L 514.936335 28.374257 
L 515.842186 28.374257 
L 516.748038 29.094819 
L 517.049988 28.614444 
L 517.351938 28.614444 
L 517.653889 29.094819 
L 517.955839 28.854632 
L 518.257789 29.094819 
L 518.55974 29.575194 
L 518.86169 29.575194 
L 519.163641 29.815381 
L 519.465591 29.575194 
L 520.069492 29.575194 
L 520.673393 30.535943 
L 520.975343 30.055568 
L 521.277293 30.295756 
L 521.579244 30.295756 
L 521.881194 29.815381 
L 522.183145 30.535943 
L 522.485095 30.295756 
L 522.787045 31.016318 
L 523.088996 30.295756 
L 523.390946 30.535943 
L 523.692896 31.016318 
L 523.994847 31.016318 
L 524.296797 31.256505 
L 524.598748 31.016318 
L 524.900698 31.977067 
L 525.202648 31.016318 
L 525.504599 31.496693 
L 525.806549 31.73688 
L 526.1085 32.457442 
L 526.41045 32.457442 
L 526.7124 32.217255 
L 527.014351 32.697629 
L 527.316301 32.217255 
L 527.618251 32.697629 
L 527.920202 32.937817 
L 528.222152 32.937817 
L 528.524103 33.178004 
L 528.826053 33.178004 
L 529.128003 33.418191 
L 529.429954 33.418191 
L 530.033855 33.898566 
L 530.335805 33.418191 
L 530.637755 33.898566 
L 530.939706 33.658379 
L 531.241656 33.898566 
L 531.543606 34.378941 
L 531.845557 34.619128 
L 532.147507 34.378941 
L 532.449458 34.619128 
L 532.751408 35.099503 
L 533.053358 35.099503 
L 533.355309 34.859315 
L 533.657259 35.099503 
L 533.95921 35.099503 
L 534.26116 35.820065 
L 534.56311 35.33969 
L 534.865061 35.33969 
L 535.167011 36.30044 
L 535.468961 35.820065 
L 535.770912 35.579877 
L 536.072862 35.579877 
L 536.374813 36.060252 
L 536.676763 36.30044 
L 536.978713 36.060252 
L 537.582614 36.060252 
L 537.884565 36.30044 
L 538.186515 35.820065 
L 538.488465 36.060252 
L 538.790416 35.579877 
L 539.394317 36.060252 
L 539.696267 36.060252 
L 539.998217 35.820065 
L 540.300168 36.060252 
L 540.602118 36.060252 
L 540.904068 35.820065 
L 541.206019 35.820065 
L 541.507969 35.579877 
L 541.80992 35.579877 
L 542.41382 35.099503 
L 542.715771 35.33969 
L 543.017723 35.33969 
L 543.319674 35.099503 
L 543.621624 35.33969 
L 544.225525 34.859315 
L 544.527475 35.099503 
L 545.131376 35.099503 
L 545.433326 34.859315 
L 545.735277 34.859315 
L 546.037227 35.099503 
L 546.641128 35.099503 
L 546.943078 34.619128 
L 547.245029 34.619128 
L 547.546979 34.859315 
L 547.84893 34.859315 
L 548.15088 34.619128 
L 548.45283 34.859315 
L 548.754781 34.859315 
L 549.056731 34.619128 
L 549.358682 34.619128 
L 549.660632 34.378941 
L 550.264533 34.378941 
L 550.566483 34.619128 
L 550.868433 34.138753 
L 551.170384 33.898566 
L 551.472334 34.138753 
L 552.378185 34.138753 
L 552.680136 33.898566 
L 552.982086 34.138753 
L 553.284037 33.898566 
L 553.585987 33.898566 
L 553.887937 33.658379 
L 554.189888 33.658379 
L 554.491838 33.418191 
L 554.793788 33.898566 
L 555.095739 33.418191 
L 555.397689 33.898566 
L 555.69964 33.418191 
L 556.00159 33.178004 
L 556.30354 33.658379 
L 556.605491 33.658379 
L 557.209392 33.178004 
L 557.813292 33.178004 
L 558.115243 32.937817 
L 558.417193 33.178004 
L 558.719143 32.697629 
L 559.021094 32.697629 
L 559.323044 33.178004 
L 559.624995 33.418191 
L 559.926945 32.937817 
L 560.228895 33.658379 
L 560.530846 33.178004 
L 560.832796 33.418191 
L 561.134747 33.418191 
L 561.436697 32.937817 
L 562.342548 32.937817 
L 562.644498 33.658379 
L 562.946449 32.697629 
L 563.55035 33.178004 
L 563.8523 32.937817 
L 564.15425 32.937817 
L 564.456201 32.697629 
L 564.758151 32.697629 
L 565.060102 32.937817 
L 565.362052 32.457442 
L 565.664002 32.217255 
L 565.965953 32.697629 
L 566.267903 32.697629 
L 566.569854 32.217255 
L 566.871804 32.217255 
L 567.173754 32.457442 
L 567.777655 32.457442 
L 568.079605 32.697629 
L 568.381556 32.217255 
L 568.683506 31.977067 
L 568.985457 31.977067 
L 569.287407 32.217255 
L 570.193258 32.217255 
L 570.495209 31.73688 
L 570.797159 31.977067 
L 571.099109 31.977067 
L 571.40106 31.496693 
L 571.70301 31.73688 
L 572.00496 31.256505 
L 572.306911 31.73688 
L 572.608861 31.496693 
L 573.212762 31.977067 
L 573.514712 31.256505 
L 573.816663 31.496693 
L 574.118613 31.016318 
L 574.420564 31.496693 
L 574.722514 31.496693 
L 575.326415 31.016318 
L 575.930315 31.016318 
L 576.232266 30.77613 
L 576.534216 30.77613 
L 576.836167 31.256505 
L 577.138117 30.77613 
L 577.440067 31.016318 
L 577.742018 31.016318 
L 578.043968 30.535943 
L 578.345919 30.295756 
L 578.647869 31.256505 
L 578.949819 31.256505 
L 579.55372 30.77613 
L 579.85567 31.256505 
L 580.157621 31.256505 
L 580.459571 31.016318 
L 580.761522 31.256505 
L 581.365422 31.256505 
L 581.667373 31.73688 
L 582.271274 32.217255 
L 582.573224 31.73688 
L 582.875174 31.73688 
L 583.479075 32.697629 
L 584.082976 32.697629 
L 584.384926 32.937817 
L 584.686877 33.418191 
L 585.290777 32.937817 
L 585.894678 33.418191 
L 586.196629 32.937817 
L 586.498579 33.178004 
L 586.800529 33.178004 
L 587.10248 33.658379 
L 587.40443 33.658379 
L 587.706381 33.898566 
L 588.008331 33.658379 
L 588.310281 33.898566 
L 588.612232 33.898566 
L 588.914182 34.378941 
L 589.518083 33.898566 
L 589.820033 34.378941 
L 590.121984 34.378941 
L 590.423934 34.138753 
L 591.329785 34.859315 
L 591.631736 35.33969 
L 591.933686 34.859315 
L 592.235636 35.099503 
L 592.537587 35.579877 
L 593.141487 35.579877 
L 593.443438 35.33969 
L 593.745388 35.33969 
L 594.047339 35.820065 
L 594.349289 35.820065 
L 594.651239 35.579877 
L 594.95319 35.820065 
L 595.25514 35.579877 
L 595.557091 36.30044 
L 595.859041 36.060252 
L 596.160991 36.540627 
L 596.462942 36.540627 
L 596.764892 36.780814 
L 597.066843 36.540627 
L 597.670743 37.021002 
L 597.972694 37.021002 
L 598.274644 36.780814 
L 598.576594 38.221938 
L 598.878545 37.501376 
L 599.482446 37.501376 
L 599.784396 37.981751 
L 600.086346 37.501376 
L 600.690247 37.981751 
L 600.992198 37.981751 
L 601.294148 38.221938 
L 601.596098 38.221938 
L 601.898049 38.462126 
L 602.501949 37.981751 
L 602.8039 38.462126 
L 603.10585 38.702313 
L 603.407801 39.182688 
L 603.709751 38.462126 
L 604.011701 38.9425 
L 604.615602 38.9425 
L 605.219503 39.422875 
L 605.521453 39.422875 
L 605.823404 39.90325 
L 606.125354 39.663062 
L 607.031205 40.383624 
L 607.333156 39.90325 
L 607.635106 40.143437 
L 607.937056 40.143437 
L 608.239007 40.383624 
L 608.540957 40.143437 
L 609.144858 40.623812 
L 609.446808 40.623812 
L 609.748759 41.104187 
L 610.050709 40.623812 
L 610.352659 41.584561 
L 610.65461 41.344374 
L 610.95656 41.584561 
L 611.258511 42.064936 
L 611.560461 41.824749 
L 612.768263 42.785498 
L 613.070213 42.545311 
L 613.674114 43.50606 
L 613.976064 44.226622 
L 614.278015 43.50606 
L 614.579965 43.50606 
L 614.881915 44.226622 
L 615.485816 44.226622 
L 615.787766 44.466809 
L 616.391667 44.466809 
L 617.297518 45.187371 
L 618.20337 45.187371 
L 618.50532 45.667746 
L 618.80727 45.187371 
L 619.109221 45.427559 
L 619.411171 45.907934 
L 619.713121 46.148121 
L 620.015072 46.148121 
L 620.317022 46.388308 
L 620.618973 45.907934 
L 620.920923 46.388308 
L 621.222873 46.628496 
L 621.524824 47.10887 
L 621.826774 46.388308 
L 622.128725 46.148121 
L 622.430675 46.388308 
L 622.732625 46.388308 
L 623.034576 46.628496 
L 623.336526 46.388308 
L 623.638476 46.868683 
L 623.940427 46.148121 
L 624.544328 46.628496 
L 624.846278 45.907934 
L 625.148228 46.388308 
L 625.450179 46.148121 
L 625.752129 46.148121 
L 626.05408 46.388308 
L 626.35603 45.907934 
L 626.65798 45.667746 
L 626.959931 45.907934 
L 627.261881 45.667746 
L 627.865782 45.667746 
L 628.167732 45.427559 
L 628.469683 45.667746 
L 628.771633 45.427559 
L 629.073583 45.427559 
L 629.375534 44.706997 
L 629.677484 45.427559 
L 629.979435 45.187371 
L 630.281385 44.706997 
L 630.583335 44.947184 
L 630.885286 44.226622 
L 631.187236 44.466809 
L 631.489187 43.986435 
L 631.791137 43.746247 
L 632.093087 43.746247 
L 632.395038 43.986435 
L 632.696988 43.50606 
L 632.998938 43.746247 
L 633.300889 43.50606 
L 633.90479 43.986435 
L 634.20674 43.50606 
L 634.50869 43.50606 
L 634.810641 43.265873 
L 635.716492 43.265873 
L 636.018442 43.025685 
L 636.320393 43.025685 
L 637.226244 42.305123 
L 637.528194 42.545311 
L 637.830145 42.545311 
L 638.132095 42.064936 
L 638.434045 42.305123 
L 638.735996 41.824749 
L 639.037946 41.584561 
L 639.339897 41.824749 
L 639.641847 41.824749 
L 639.943797 41.584561 
L 640.245748 41.824749 
L 640.547698 41.824749 
L 640.849648 41.344374 
L 641.151599 41.584561 
L 641.453549 41.104187 
L 641.7555 41.104187 
L 642.661351 40.383624 
L 642.963301 40.623812 
L 643.567202 40.143437 
L 643.869152 40.383624 
L 644.171103 40.383624 
L 644.473053 40.143437 
L 644.775003 40.143437 
L 645.076954 40.383624 
L 645.378904 39.90325 
L 645.680855 39.90325 
L 645.982805 40.143437 
L 646.284755 39.90325 
L 646.586706 39.422875 
L 646.888656 39.90325 
L 647.190607 39.90325 
L 647.492557 39.182688 
L 648.096458 39.663062 
L 648.398408 39.182688 
L 648.700359 39.422875 
L 649.304259 39.422875 
L 649.60621 39.182688 
L 649.90816 39.182688 
L 650.21011 38.702313 
L 650.512061 39.182688 
L 650.814011 38.702313 
L 651.115962 38.9425 
L 651.417912 38.9425 
L 651.719862 38.702313 
L 652.021813 39.182688 
L 652.323763 38.462126 
L 652.927664 38.462126 
L 653.229614 38.702313 
L 653.531565 38.221938 
L 653.833515 38.221938 
L 654.135465 37.981751 
L 655.041317 37.981751 
L 655.343267 37.741564 
L 655.645217 37.981751 
L 655.947168 37.741564 
L 656.249118 37.981751 
L 656.551069 37.741564 
L 656.853019 37.981751 
L 657.154969 37.501376 
L 657.75887 37.021002 
L 658.06082 37.981751 
L 658.362771 37.261189 
L 658.664721 37.501376 
L 659.268622 37.021002 
L 659.570572 37.501376 
L 659.872523 37.261189 
L 660.174473 37.741564 
L 660.476424 36.780814 
L 660.778374 37.021002 
L 661.080324 36.780814 
L 661.382275 37.021002 
L 661.684225 37.021002 
L 661.986175 36.780814 
L 662.288126 37.021002 
L 662.590076 36.780814 
L 662.892027 36.780814 
L 663.193977 37.261189 
L 663.495927 36.540627 
L 663.797878 36.780814 
L 664.401779 36.780814 
L 664.703729 36.540627 
L 665.005679 36.780814 
L 665.60958 36.30044 
L 666.213481 36.780814 
L 666.515431 36.540627 
L 667.119332 37.021002 
L 667.421282 36.30044 
L 667.723233 36.30044 
L 668.025183 36.540627 
L 668.327134 36.540627 
L 668.629084 36.780814 
L 668.931034 36.30044 
L 669.232985 36.540627 
L 669.534935 36.540627 
L 669.836886 36.30044 
L 670.138836 36.30044 
L 670.440786 36.060252 
L 670.742737 36.060252 
L 671.044687 36.540627 
L 671.346637 36.30044 
L 671.950538 36.780814 
L 672.252489 36.540627 
L 672.554439 36.540627 
L 672.856389 37.261189 
L 673.15834 36.540627 
L 673.46029 36.780814 
L 673.762241 37.261189 
L 674.064191 36.780814 
L 675.271992 36.780814 
L 675.573943 37.021002 
L 675.875893 37.021002 
L 676.177844 36.540627 
L 676.479794 36.540627 
L 676.781744 36.780814 
L 677.083695 36.780814 
L 677.385645 37.261189 
L 677.687596 36.780814 
L 677.989546 37.021002 
L 678.291496 36.30044 
L 678.593447 36.780814 
L 678.895397 36.780814 
L 679.197341 36.540627 
L 679.499291 36.780814 
L 679.801241 36.780814 
L 680.103192 37.021002 
L 680.405142 36.780814 
L 681.009043 36.780814 
L 681.310993 37.021002 
L 681.612944 36.780814 
L 681.914894 37.021002 
L 682.216844 37.021002 
L 682.518795 36.540627 
L 682.820745 36.30044 
L 683.424646 37.261189 
L 683.726596 36.780814 
L 684.028547 37.021002 
L 684.330497 37.021002 
L 684.632448 36.780814 
L 685.236348 36.780814 
L 685.538299 36.540627 
L 686.142199 37.021002 
L 686.44415 36.30044 
L 686.7461 37.021002 
L 687.048051 36.060252 
L 687.350001 36.30044 
L 687.651951 36.780814 
L 687.953902 36.540627 
L 688.255852 37.021002 
L 688.557803 36.780814 
L 688.859753 37.021002 
L 689.161703 36.30044 
L 689.463654 37.021002 
L 689.765604 36.780814 
L 690.067555 37.021002 
L 690.369505 36.540627 
L 690.671455 37.021002 
L 690.973406 37.261189 
L 691.275356 36.780814 
L 692.785108 36.780814 
L 693.087058 37.261189 
L 693.389009 37.021002 
L 693.690959 37.261189 
L 693.99291 37.021002 
L 694.29486 37.261189 
L 694.59681 37.261189 
L 694.898761 37.021002 
L 695.502661 37.021002 
L 695.804612 37.261189 
L 696.408513 37.261189 
L 696.710463 37.741564 
L 697.012413 37.261189 
L 697.314364 37.501376 
L 697.616314 37.261189 
L 697.918265 37.741564 
L 698.220215 37.261189 
L 698.522165 37.261189 
L 698.824116 37.021002 
L 699.126066 37.261189 
L 699.428016 37.021002 
L 699.729967 37.261189 
L 700.031917 37.021002 
L 700.333868 37.261189 
L 700.635818 37.261189 
L 700.937768 37.021002 
L 701.239719 37.261189 
L 701.541669 37.021002 
L 701.84362 37.261189 
L 702.14557 37.261189 
L 702.749471 36.780814 
L 703.051421 36.780814 
L 703.353371 37.261189 
L 703.655322 37.021002 
L 703.957272 37.261189 
L 704.259223 37.021002 
L 704.863123 37.021002 
L 705.165074 36.780814 
L 705.467024 37.261189 
L 705.768975 36.540627 
L 706.372875 37.021002 
L 706.674826 37.021002 
L 706.976776 37.261189 
L 707.278727 37.261189 
L 707.580677 37.021002 
L 707.882627 37.021002 
L 708.184578 37.261189 
L 708.788478 37.261189 
L 709.090429 36.780814 
L 709.392379 37.021002 
L 709.99628 36.540627 
L 710.600181 37.021002 
L 710.902131 37.501376 
L 711.204082 37.261189 
L 711.506032 36.780814 
L 712.109933 37.261189 
L 712.411883 36.540627 
L 712.713833 36.540627 
L 713.015784 36.780814 
L 713.317734 36.30044 
L 713.619685 36.540627 
L 713.921635 36.30044 
L 714.223585 36.30044 
L 714.525536 36.540627 
L 714.827486 36.540627 
L 715.129437 36.060252 
L 715.431387 36.30044 
L 715.733337 36.060252 
L 716.035288 36.30044 
L 716.337238 36.30044 
L 716.639188 36.060252 
L 716.941139 36.30044 
L 717.243089 36.30044 
L 717.54504 35.820065 
L 717.84699 36.30044 
L 718.14894 36.060252 
L 718.450891 36.540627 
L 718.752841 36.780814 
L 719.054792 36.540627 
L 719.356742 36.060252 
L 719.658692 36.30044 
L 719.960643 35.820065 
L 720.564543 36.30044 
L 720.866494 35.820065 
L 721.470395 35.820065 
L 721.772345 36.060252 
L 722.074295 36.060252 
L 722.376246 36.30044 
L 722.678196 36.30044 
L 722.980147 35.820065 
L 723.282097 36.060252 
L 723.584047 36.060252 
L 723.885998 35.579877 
L 724.187948 36.060252 
L 724.489899 35.820065 
L 724.791849 36.060252 
L 725.093799 35.820065 
L 725.39575 35.820065 
L 725.6977 35.579877 
L 726.603551 35.579877 
L 726.905502 35.33969 
L 727.207452 35.820065 
L 727.509402 35.33969 
L 728.717204 35.33969 
L 729.019154 35.099503 
L 729.321105 35.33969 
L 729.623055 35.33969 
L 729.925005 35.099503 
L 730.226956 35.33969 
L 730.830857 34.859315 
L 731.132807 35.579877 
L 731.434757 35.33969 
L 731.736708 35.33969 
L 732.038658 35.099503 
L 732.340609 35.33969 
L 732.642559 34.859315 
L 732.944509 35.579877 
L 733.54841 36.060252 
L 733.85036 35.820065 
L 734.152311 35.820065 
L 734.454261 35.579877 
L 734.756212 36.30044 
L 735.058162 35.579877 
L 735.360112 35.820065 
L 735.662063 35.820065 
L 735.964013 35.579877 
L 736.567914 36.060252 
L 736.869864 36.060252 
L 737.171815 36.30044 
L 737.473765 36.060252 
L 738.077666 36.060252 
L 738.379616 36.30044 
L 738.681567 35.820065 
L 738.983517 36.060252 
L 739.285467 36.540627 
L 739.587418 36.540627 
L 739.889368 36.30044 
L 740.191319 36.540627 
L 740.493269 36.540627 
L 740.795219 36.780814 
L 741.09717 36.540627 
L 741.39912 37.261189 
L 741.701071 37.021002 
L 742.003021 37.261189 
L 742.304971 37.021002 
L 742.606922 37.741564 
L 742.908872 37.261189 
L 743.210822 37.261189 
L 743.512773 36.780814 
L 743.814723 37.741564 
L 744.116674 37.261189 
L 744.418624 37.261189 
L 744.720574 37.501376 
L 745.022525 37.501376 
L 745.324475 37.741564 
L 745.626426 37.741564 
L 745.928376 37.981751 
L 747.438128 37.981751 
L 747.740078 38.221938 
L 748.343979 37.741564 
L 748.645929 37.981751 
L 748.94788 37.981751 
L 749.24983 38.462126 
L 749.551781 37.981751 
L 750.155681 37.981751 
L 750.457632 38.462126 
L 750.759582 38.702313 
L 751.363483 38.221938 
L 751.665433 38.221938 
L 751.967384 38.462126 
L 752.269334 38.221938 
L 752.571284 38.221938 
L 752.873235 38.462126 
L 753.175185 37.981751 
L 753.477136 38.462126 
L 754.081036 38.462126 
L 754.382987 38.702313 
L 754.684937 37.981751 
L 754.986887 38.462126 
L 756.496639 38.462126 
L 756.79859 38.9425 
L 757.10054 38.462126 
L 757.402491 38.702313 
L 758.308342 37.981751 
L 758.610292 38.462126 
L 758.912243 38.221938 
L 759.214193 38.221938 
L 759.516143 37.981751 
L 759.818094 38.462126 
L 760.120044 38.221938 
L 760.723945 38.702313 
L 761.327846 38.221938 
L 761.629796 38.702313 
L 763.441498 38.702313 
L 763.743449 39.422875 
L 764.045399 39.182688 
L 764.6493 39.182688 
L 764.95125 39.663062 
L 765.253201 39.182688 
L 765.857101 39.663062 
L 766.159052 39.663062 
L 766.762953 40.143437 
L 767.366853 40.143437 
L 767.668804 40.623812 
L 767.970754 40.623812 
L 768.272704 41.104187 
L 768.574655 40.623812 
L 768.876605 40.623812 
L 769.178556 40.863999 
L 769.480506 40.863999 
L 769.782456 41.104187 
L 770.084407 41.104187 
L 770.688308 41.584561 
L 770.990258 42.305123 
L 771.292208 41.824749 
L 771.594159 42.064936 
L 771.896109 41.824749 
L 772.198059 42.785498 
L 772.50001 42.785498 
L 773.103911 42.305123 
L 773.405861 42.785498 
L 774.311712 43.50606 
L 774.915613 43.025685 
L 775.217563 43.50606 
L 775.519514 43.746247 
L 775.821464 43.265873 
L 776.123415 43.986435 
L 776.425365 43.986435 
L 776.727315 44.706997 
L 777.029266 44.226622 
L 777.331216 44.226622 
L 777.633166 44.466809 
L 777.935117 44.947184 
L 778.237067 45.187371 
L 778.840968 44.706997 
L 779.444869 45.187371 
L 779.746819 45.187371 
L 780.04877 45.427559 
L 780.35072 45.427559 
L 780.65267 45.907934 
L 780.954621 45.667746 
L 781.256571 46.148121 
L 781.558521 45.907934 
L 782.162422 45.907934 
L 782.464373 46.148121 
L 782.766323 45.907934 
L 783.068273 45.907934 
L 783.370224 46.388308 
L 783.672174 46.628496 
L 783.974125 47.10887 
L 784.276075 46.628496 
L 784.879976 46.628496 
L 785.181926 46.868683 
L 785.483876 47.349058 
L 785.785827 47.10887 
L 786.389728 47.10887 
L 786.993628 47.589245 
L 787.295579 47.589245 
L 787.597529 48.309807 
L 787.89948 47.589245 
L 788.20143 47.589245 
L 788.50338 47.829432 
L 788.805331 47.829432 
L 789.107281 48.06962 
L 789.409231 48.06962 
L 789.711182 47.589245 
L 790.013132 48.06962 
L 790.617033 47.589245 
L 791.220934 47.589245 
L 791.522884 47.349058 
L 791.824835 47.589245 
L 792.126785 47.10887 
L 792.428735 47.349058 
L 792.730686 46.868683 
L 793.032636 47.349058 
L 793.334587 47.10887 
L 793.636537 47.349058 
L 793.938487 47.829432 
L 794.240438 47.10887 
L 794.542388 47.10887 
L 794.844338 46.868683 
L 795.146289 47.10887 
L 795.75019 46.628496 
L 796.05214 46.628496 
L 796.35409 47.10887 
L 797.259942 46.388308 
L 797.561892 46.628496 
L 798.165793 46.148121 
L 798.467743 46.148121 
L 798.769693 45.907934 
L 799.071644 46.388308 
L 799.373594 45.907934 
L 799.977495 45.427559 
L 800.279445 45.427559 
L 800.581396 45.667746 
L 800.883346 45.667746 
L 801.185297 45.907934 
L 801.487247 45.427559 
L 801.789197 45.667746 
L 802.091148 45.667746 
L 802.393098 45.427559 
L 802.996999 45.427559 
L 803.298949 45.667746 
L 803.6009 44.947184 
L 803.90285 45.427559 
L 804.2048 45.187371 
L 804.506751 44.706997 
L 804.808701 45.427559 
L 805.412602 44.947184 
L 805.714552 45.187371 
L 806.016503 44.947184 
L 806.620403 45.427559 
L 806.922354 44.947184 
L 807.224304 45.427559 
L 807.526255 44.947184 
L 808.130155 45.427559 
L 808.432106 45.187371 
L 809.036007 45.187371 
L 809.337957 45.907934 
L 809.639907 44.947184 
L 810.243808 44.947184 
L 810.545759 45.187371 
L 810.847709 44.706997 
L 811.149659 44.947184 
L 811.45161 44.706997 
L 812.05551 44.706997 
L 812.357461 44.947184 
L 812.659411 44.466809 
L 812.961362 44.947184 
L 813.263312 44.466809 
L 813.565262 44.706997 
L 813.867213 44.226622 
L 814.169163 44.466809 
L 814.471114 43.746247 
L 814.773064 44.226622 
L 815.678915 43.50606 
L 815.980866 43.986435 
L 816.282816 43.50606 
L 816.584766 43.50606 
L 817.188667 43.025685 
L 817.490618 43.746247 
L 817.792568 43.50606 
L 818.094518 42.545311 
L 819.00037 43.265873 
L 819.30232 43.025685 
L 819.60427 43.265873 
L 819.906221 42.545311 
L 820.208171 42.785498 
L 820.510122 42.785498 
L 820.812072 42.305123 
L 821.415973 42.785498 
L 821.717923 42.064936 
L 822.019874 42.305123 
L 822.321824 42.064936 
L 822.623774 42.305123 
L 822.925725 42.305123 
L 823.227675 42.545311 
L 823.529626 42.545311 
L 823.831576 42.305123 
L 824.737427 42.305123 
L 825.039378 42.545311 
L 825.643278 42.064936 
L 825.945229 42.785498 
L 826.247179 41.824749 
L 826.54913 42.064936 
L 826.85108 42.545311 
L 827.153031 42.064936 
L 827.454981 42.785498 
L 827.756931 42.064936 
L 828.360832 42.064936 
L 828.662783 42.545311 
L 828.964733 42.545311 
L 829.266683 42.305123 
L 829.568634 43.025685 
L 829.870584 42.785498 
L 830.172535 43.025685 
L 830.474485 42.785498 
L 830.776435 42.785498 
L 831.078386 43.025685 
L 831.380336 43.50606 
L 831.682287 43.50606 
L 831.984237 43.746247 
L 832.286187 43.50606 
L 832.588138 43.986435 
L 832.890088 43.986435 
L 833.192039 43.746247 
L 833.493989 43.986435 
L 833.795939 43.746247 
L 834.09789 44.226622 
L 834.39984 44.466809 
L 835.305691 44.466809 
L 836.513493 45.427559 
L 836.815443 45.187371 
L 837.117394 45.187371 
L 837.419344 45.907934 
L 837.721295 45.667746 
L 838.023245 45.907934 
L 838.325195 45.907934 
L 838.627146 45.427559 
L 838.929096 46.388308 
L 839.231047 45.907934 
L 839.532997 46.148121 
L 839.834947 46.628496 
L 840.136898 46.628496 
L 840.438848 46.868683 
L 841.344699 46.868683 
L 841.64665 47.829432 
L 841.9486 47.10887 
L 842.250551 47.349058 
L 842.552501 46.868683 
L 843.156402 48.309807 
L 843.458352 47.829432 
L 843.760303 48.309807 
L 844.062253 47.829432 
L 844.364203 48.309807 
L 844.666154 48.549994 
L 844.968104 48.549994 
L 845.270055 49.030369 
L 845.572005 48.309807 
L 845.873955 49.270556 
L 846.175906 49.270556 
L 846.477856 49.750931 
L 846.779807 49.510744 
L 847.081757 49.510744 
L 847.383708 49.991118 
L 847.685658 49.991118 
L 847.987608 50.231306 
L 848.289559 49.991118 
L 848.591509 50.471493 
L 849.49736 51.192055 
L 849.799311 50.951868 
L 850.101261 51.432243 
L 850.403212 51.432243 
L 850.705162 51.67243 
L 851.007112 51.67243 
L 851.309063 51.912617 
L 851.611013 51.67243 
L 852.214914 52.152805 
L 852.516864 52.152805 
L 852.818815 52.392992 
L 853.120765 52.152805 
L 853.422716 52.633179 
L 853.724666 52.633179 
L 854.026616 52.873367 
L 854.630517 52.873367 
L 855.234418 53.353741 
L 855.838319 53.353741 
L 856.44222 53.834116 
L 856.74417 53.834116 
L 857.04612 53.593929 
L 857.348071 54.554678 
L 857.650021 53.834116 
L 857.951972 54.314491 
L 858.857823 54.314491 
L 859.159773 54.554678 
L 859.461724 54.554678 
L 859.763674 55.27524 
L 860.367575 54.794865 
L 860.669525 55.515428 
L 860.971476 55.035053 
L 861.273426 55.755615 
L 861.575377 55.27524 
L 861.877327 55.515428 
L 862.179277 55.515428 
L 862.481228 55.755615 
L 862.783178 55.515428 
L 863.085129 55.995802 
L 863.387079 55.995802 
L 863.689029 55.515428 
L 863.99098 56.23599 
L 864.29293 55.995802 
L 864.594881 55.995802 
L 864.896831 56.23599 
L 865.500732 56.23599 
L 865.802682 55.515428 
L 866.104633 56.716364 
L 866.406583 56.476177 
L 866.708533 56.956552 
L 867.010484 56.956552 
L 867.312434 57.196739 
L 867.614385 56.476177 
L 867.916335 57.196739 
L 868.218285 56.716364 
L 868.520236 56.956552 
L 870.029988 56.956552 
L 870.331938 57.436926 
L 870.633889 57.196739 
L 870.935839 57.436926 
L 871.237789 56.956552 
L 871.53974 56.956552 
L 872.143641 57.436926 
L 872.747542 56.956552 
L 873.653393 57.677114 
L 874.257294 57.677114 
L 874.559244 58.157488 
L 874.861194 57.677114 
L 875.163145 57.436926 
L 875.465095 57.677114 
L 875.767046 58.157488 
L 876.068996 58.397676 
L 876.370946 58.157488 
L 876.672897 58.397676 
L 876.974847 58.157488 
L 877.276798 58.157488 
L 877.578748 57.917301 
L 877.880698 58.397676 
L 878.182649 58.397676 
L 878.484599 58.157488 
L 878.78655 58.87805 
L 879.0885 58.637863 
L 879.39045 58.87805 
L 879.692401 58.637863 
L 879.994351 58.637863 
L 880.296302 58.397676 
L 881.202153 58.397676 
L 881.504103 58.157488 
L 881.806054 58.157488 
L 882.108004 58.87805 
L 882.409954 58.637863 
L 882.711905 58.157488 
L 883.013855 58.157488 
L 883.315806 58.637863 
L 883.617756 58.157488 
L 883.919706 57.436926 
L 884.221657 57.436926 
L 884.523607 57.677114 
L 884.825558 57.677114 
L 885.127508 57.196739 
L 885.429458 57.436926 
L 885.731409 57.436926 
L 886.033359 57.196739 
L 886.33531 57.436926 
L 886.63726 57.436926 
L 886.93921 56.716364 
L 887.241161 56.956552 
L 888.147012 56.956552 
L 888.448962 56.716364 
L 888.750913 56.23599 
L 889.052863 55.995802 
L 889.354814 56.23599 
L 889.958714 56.23599 
L 890.260665 55.755615 
L 890.562615 56.23599 
L 890.864566 56.23599 
L 891.166516 55.515428 
L 891.468466 55.515428 
L 891.770417 55.755615 
L 892.072367 55.035053 
L 892.676268 55.035053 
L 892.978219 54.794865 
L 893.280169 55.27524 
L 893.88407 54.314491 
L 894.18602 54.314491 
L 894.487971 54.554678 
L 894.789921 54.074303 
L 895.091871 54.074303 
L 895.393822 53.834116 
L 896.299673 53.834116 
L 896.601623 54.074303 
L 896.903574 53.593929 
L 897.205524 53.593929 
L 897.809425 53.113554 
L 898.111375 53.113554 
L 898.413326 52.873367 
L 898.715276 53.353741 
L 899.017227 52.633179 
L 899.319177 53.113554 
L 899.621127 52.873367 
L 899.923078 52.873367 
L 900.225028 52.392992 
L 900.828929 52.392992 
L 901.130879 52.152805 
L 901.43283 52.392992 
L 901.73478 52.152805 
L 902.036731 52.152805 
L 902.640631 51.67243 
L 902.942582 51.67243 
L 903.244532 51.912617 
L 903.848433 51.432243 
L 904.754284 51.432243 
L 905.056235 51.192055 
L 905.358185 51.432243 
L 905.660136 51.192055 
L 906.264036 51.192055 
L 906.565987 50.951868 
L 906.867937 51.192055 
L 907.169888 50.471493 
L 907.773788 50.471493 
L 908.075739 50.951868 
L 908.377689 50.231306 
L 908.67964 50.231306 
L 908.98159 50.471493 
L 909.28354 49.991118 
L 909.585491 49.750931 
L 909.887441 50.231306 
L 910.189392 49.991118 
L 910.491342 50.471493 
L 911.095243 49.510744 
L 911.397193 49.270556 
L 911.699144 49.270556 
L 912.303044 50.231306 
L 912.604995 49.270556 
L 912.906945 49.030369 
L 913.208896 48.549994 
L 913.510846 48.790182 
L 913.812796 48.790182 
L 914.114747 49.270556 
L 914.416697 48.790182 
L 914.718648 48.790182 
L 915.020598 48.309807 
L 915.322548 48.790182 
L 915.624499 49.030369 
L 915.926449 48.790182 
L 916.2284 48.790182 
L 916.53035 48.549994 
L 916.8323 48.06962 
L 917.134251 48.06962 
L 917.436201 48.309807 
L 917.738152 48.309807 
L 917.738152 48.309807 
" clip-path="url(#p3d36a718ab)" style="fill: none; stroke: #ea580c; stroke-opacity: 0.95; stroke-width: 1.3; stroke-linecap: square"/>
   </g>
   <g id="patch_23">
    <path d="M 39.330625 228.954713 
L 39.330625 17.061433 
" style="fill: none; stroke: #cbd5e1; stroke-width: 0.8; stroke-linejoin: miter; stroke-linecap: square"/>
   </g>
   <g id="patch_24">
    <path d="M 935.305625 228.954713 
L 935.305625 17.061433 
" style="fill: none; stroke: #cbd5e1; stroke-width: 0.8; stroke-linejoin: miter; stroke-linecap: square"/>
   </g>
   <g id="patch_25">
    <path d="M 39.330625 228.954713 
L 935.305625 228.954713 
" style="fill: none; stroke: #cbd5e1; stroke-width: 0.8; stroke-linejoin: miter; stroke-linecap: square"/>
   </g>
   <g id="patch_26">
    <path d="M 39.330625 17.061433 
L 935.305625 17.061433 
" style="fill: none; stroke: #cbd5e1; stroke-width: 0.8; stroke-linejoin: miter; stroke-linecap: square"/>
   </g>
   <g id="text_18">
    <!-- ACC -->
    <g style="fill: #475569" transform="translate(121.663241 13.27875) scale(0.08 -0.08)">
     <defs>
      <path id="DejaVuSans-41" d="M 2188 4044 
L 1331 1722 
L 3047 1722 
L 2188 4044 
z
M 1831 4666 
L 2547 4666 
L 4325 0 
L 3669 0 
L 3244 1197 
L 1141 1197 
L 716 0 
L 50 0 
L 1831 4666 
z
" transform="scale(0.015625)"/>
     </defs>
     <use xlink:href="#DejaVuSans-41"/>
     <use xlink:href="#DejaVuSans-43" transform="translate(66.658203 0)"/>
     <use xlink:href="#DejaVuSans-43" transform="translate(136.482422 0)"/>
    </g>
   </g>
   <g id="text_19">
    <!-- OC -->
    <g style="fill: #475569" transform="translate(230.411377 13.27875) scale(0.08 -0.08)">
     <defs>
      <path id="DejaVuSans-4f" d="M 2522 4238 
Q 1834 4238 1429 3725 
Q 1025 3213 1025 2328 
Q 1025 1447 1429 934 
Q 1834 422 2522 422 
Q 3209 422 3611 934 
Q 4013 1447 4013 2328 
Q 4013 3213 3611 3725 
Q 3209 4238 2522 4238 
z
M 2522 4750 
Q 3503 4750 4090 4092 
Q 4678 3434 4678 2328 
Q 4678 1225 4090 567 
Q 3503 -91 2522 -91 
Q 1538 -91 948 565 
Q 359 1222 359 2328 
Q 359 3434 948 4092 
Q 1538 4750 2522 4750 
z
" transform="scale(0.015625)"/>
     </defs>
     <use xlink:href="#DejaVuSans-4f"/>
     <use xlink:href="#DejaVuSans-43" transform="translate(78.710938 0)"/>
    </g>
   </g>
   <g id="text_20">
    <!-- FCS -->
    <g style="fill: #475569" transform="translate(255.895662 13.27875) scale(0.08 -0.08)">
     <defs>
      <path id="DejaVuSans-46" d="M 628 4666 
L 3309 4666 
L 3309 4134 
L 1259 4134 
L 1259 2759 
L 3109 2759 
L 3109 2228 
L 1259 2228 
L 1259 0 
L 628 0 
L 628 4666 
z
" transform="scale(0.015625)"/>
      <path id="DejaVuSans-53" d="M 3425 4513 
L 3425 3897 
Q 3066 4069 2747 4153 
Q 2428 4238 2131 4238 
Q 1616 4238 1336 4038 
Q 1056 3838 1056 3469 
Q 1056 3159 1242 3001 
Q 1428 2844 1947 2747 
L 2328 2669 
Q 3034 2534 3370 2195 
Q 3706 1856 3706 1288 
Q 3706 609 3251 259 
Q 2797 -91 1919 -91 
Q 1588 -91 1214 -16 
Q 841 59 441 206 
L 441 856 
Q 825 641 1194 531 
Q 1563 422 1919 422 
Q 2459 422 2753 634 
Q 3047 847 3047 1241 
Q 3047 1584 2836 1778 
Q 2625 1972 2144 2069 
L 1759 2144 
Q 1053 2284 737 2584 
Q 422 2884 422 3419 
Q 422 4038 858 4394 
Q 1294 4750 2059 4750 
Q 2388 4750 2728 4690 
Q 3069 4631 3425 4513 
z
" transform="scale(0.015625)"/>
     </defs>
     <use xlink:href="#DejaVuSans-46"/>
     <use xlink:href="#DejaVuSans-43" transform="translate(57.519531 0)"/>
     <use xlink:href="#DejaVuSans-53" transform="translate(127.34375 0)"/>
    </g>
   </g>
   <g id="text_21">
    <!-- SR -->
    <g style="fill: #475569" transform="translate(289.914827 13.27875) scale(0.08 -0.08)">
     <defs>
      <path id="DejaVuSans-52" d="M 2841 2188 
Q 3044 2119 3236 1894 
Q 3428 1669 3622 1275 
L 4263 0 
L 3584 0 
L 2988 1197 
Q 2756 1666 2539 1819 
Q 2322 1972 1947 1972 
L 1259 1972 
L 1259 0 
L 628 0 
L 628 4666 
L 2053 4666 
Q 2853 4666 3247 4331 
Q 3641 3997 3641 3322 
Q 3641 2881 3436 2590 
Q 3231 2300 2841 2188 
z
M 1259 4147 
L 1259 2491 
L 2053 2491 
Q 2509 2491 2742 2702 
Q 2975 2913 2975 3322 
Q 2975 3731 2742 3939 
Q 2509 4147 2053 4147 
L 1259 4147 
z
" transform="scale(0.015625)"/>
     </defs>
     <use xlink:href="#DejaVuSans-53"/>
     <use xlink:href="#DejaVuSans-52" transform="translate(63.476562 0)"/>
    </g>
   </g>
   <g id="text_22">
    <!-- FFC -->
    <g style="fill: #475569" transform="translate(330.867132 13.27875) scale(0.08 -0.08)">
     <use xlink:href="#DejaVuSans-46"/>
     <use xlink:href="#DejaVuSans-46" transform="translate(57.519531 0)"/>
     <use xlink:href="#DejaVuSans-43" transform="translate(115.039062 0)"/>
    </g>
   </g>
   <g id="text_23">
    <!-- SS -->
    <g style="fill: #475569" transform="translate(419.238617 13.27875) scale(0.08 -0.08)">
     <use xlink:href="#DejaVuSans-53"/>
     <use xlink:href="#DejaVuSans-53" transform="translate(63.476562 0)"/>
    </g>
   </g>
   <g id="text_24">
    <!-- OC -->
    <g style="fill: #475569" transform="translate(488.578957 13.27875) scale(0.08 -0.08)">
     <use xlink:href="#DejaVuSans-4f"/>
     <use xlink:href="#DejaVuSans-43" transform="translate(78.710938 0)"/>
    </g>
   </g>
   <g id="text_25">
    <!-- FCS -->
    <g style="fill: #475569" transform="translate(509.533986 13.27875) scale(0.08 -0.08)">
     <use xlink:href="#DejaVuSans-46"/>
     <use xlink:href="#DejaVuSans-43" transform="translate(57.519531 0)"/>
     <use xlink:href="#DejaVuSans-53" transform="translate(127.34375 0)"/>
    </g>
   </g>
   <g id="text_26">
    <!-- SR -->
    <g style="fill: #475569" transform="translate(543.553151 13.27875) scale(0.08 -0.08)">
     <use xlink:href="#DejaVuSans-53"/>
     <use xlink:href="#DejaVuSans-52" transform="translate(63.476562 0)"/>
    </g>
   </g>
   <g id="text_27">
    <!-- FFC -->
    <g style="fill: #475569" transform="translate(584.505456 13.27875) scale(0.08 -0.08)">
     <use xlink:href="#DejaVuSans-46"/>
     <use xlink:href="#DejaVuSans-46" transform="translate(57.519531 0)"/>
     <use xlink:href="#DejaVuSans-43" transform="translate(115.039062 0)"/>
    </g>
   </g>
   <g id="text_28">
    <!-- SS -->
    <g style="fill: #475569" transform="translate(672.876941 13.27875) scale(0.08 -0.08)">
     <use xlink:href="#DejaVuSans-53"/>
     <use xlink:href="#DejaVuSans-53" transform="translate(63.476562 0)"/>
    </g>
   </g>
   <g id="text_29">
    <!-- OC -->
    <g style="fill: #475569" transform="translate(742.217281 13.27875) scale(0.08 -0.08)">
     <use xlink:href="#DejaVuSans-4f"/>
     <use xlink:href="#DejaVuSans-43" transform="translate(78.710938 0)"/>
    </g>
   </g>
   <g id="text_30">
    <!-- FCS -->
    <g style="fill: #475569" transform="translate(763.17231 13.27875) scale(0.08 -0.08)">
     <use xlink:href="#DejaVuSans-46"/>
     <use xlink:href="#DejaVuSans-43" transform="translate(57.519531 0)"/>
     <use xlink:href="#DejaVuSans-53" transform="translate(127.34375 0)"/>
    </g>
   </g>
   <g id="text_31">
    <!-- SR -->
    <g style="fill: #475569" transform="translate(797.191476 13.27875) scale(0.08 -0.08)">
     <use xlink:href="#DejaVuSans-53"/>
     <use xlink:href="#DejaVuSans-52" transform="translate(63.476562 0)"/>
    </g>
   </g>
   <g id="text_32">
    <!-- FFC -->
    <g style="fill: #475569" transform="translate(838.143781 13.27875) scale(0.08 -0.08)">
     <use xlink:href="#DejaVuSans-46"/>
     <use xlink:href="#DejaVuSans-46" transform="translate(57.519531 0)"/>
     <use xlink:href="#DejaVuSans-43" transform="translate(115.039062 0)"/>
    </g>
   </g>
   <g id="text_33">
    <!-- SS -->
    <g style="fill: #475569" transform="translate(888.016591 13.27875) scale(0.08 -0.08)">
     <use xlink:href="#DejaVuSans-53"/>
     <use xlink:href="#DejaVuSans-53" transform="translate(63.476562 0)"/>
    </g>
   </g>
   <g id="legend_1">
    <g id="line2d_32">
     <path d="M 815.393125 27.540183 
L 823.393125 27.540183 
L 831.393125 27.540183 
" style="fill: none; stroke: #ea580c; stroke-opacity: 0.95; stroke-width: 1.3; stroke-linecap: square"/>
    </g>
    <g id="text_34">
     <!-- Empatica temperature -->
     <g transform="translate(837.793125 30.340183) scale(0.08 -0.08)">
      <defs>
       <path id="DejaVuSans-45" d="M 628 4666 
L 3578 4666 
L 3578 4134 
L 1259 4134 
L 1259 2753 
L 3481 2753 
L 3481 2222 
L 1259 2222 
L 1259 531 
L 3634 531 
L 3634 0 
L 628 0 
L 628 4666 
z
" transform="scale(0.015625)"/>
      </defs>
      <use xlink:href="#DejaVuSans-45"/>
      <use xlink:href="#DejaVuSans-6d" transform="translate(63.183594 0)"/>
      <use xlink:href="#DejaVuSans-70" transform="translate(160.595703 0)"/>
      <use xlink:href="#DejaVuSans-61" transform="translate(224.072266 0)"/>
      <use xlink:href="#DejaVuSans-74" transform="translate(285.351562 0)"/>
      <use xlink:href="#DejaVuSans-69" transform="translate(324.560547 0)"/>
      <use xlink:href="#DejaVuSans-63" transform="translate(352.34375 0)"/>
      <use xlink:href="#DejaVuSans-61" transform="translate(407.324219 0)"/>
      <use xlink:href="#DejaVuSans-20" transform="translate(468.603516 0)"/>
      <use xlink:href="#DejaVuSans-74" transform="translate(500.390625 0)"/>
      <use xlink:href="#DejaVuSans-65" transform="translate(539.599609 0)"/>
      <use xlink:href="#DejaVuSans-6d" transform="translate(601.123047 0)"/>
      <use xlink:href="#DejaVuSans-70" transform="translate(698.535156 0)"/>
      <use xlink:href="#DejaVuSans-65" transform="translate(762.011719 0)"/>
      <use xlink:href="#DejaVuSans-72" transform="translate(823.535156 0)"/>
      <use xlink:href="#DejaVuSans-61" transform="translate(864.648438 0)"/>
      <use xlink:href="#DejaVuSans-74" transform="translate(925.927734 0)"/>
      <use xlink:href="#DejaVuSans-75" transform="translate(965.136719 0)"/>
      <use xlink:href="#DejaVuSans-72" transform="translate(1028.515625 0)"/>
      <use xlink:href="#DejaVuSans-65" transform="translate(1067.378906 0)"/>
     </g>
    </g>
   </g>
  </g>
 </g>
 <defs>
  <clipPath id="p3d36a718ab">
   <rect x="39.330625" y="17.061433" width="895.975" height="211.89328"/>
  </clipPath>
 </defs>
</svg>
