<?xml version="1.0" encoding="utf-8" standalone="no"?>
<!DOCTYPE svg PUBLIC "-//W3C//DTD SVG 1.1//EN"
  "http://www.w3.org/Graphics/SVG/1.1/DTD/svg11.dtd">
<svg xmlns:xlink="http://www.w3.org/1999/xlink" width="942.505625pt" height="265.54315pt" viewBox="0 0 942.505625 265.54315" xmlns="http://www.w3.org/2000/svg" version="1.1">
 <metadata>
  <rdf:RDF xmlns:dc="http://purl.org/dc/elements/1.1/" xmlns:cc="http://creativecommons.org/ns#" xmlns:rdf="http://www.w3.org/1999/02/22-rdf-syntax-ns#">
   <cc:Work>
    <dc:type rdf:resource="http://purl.org/dc/dcmitype/StillImage"/>
    <dc:date>2026-04-17T17:38:51.084969</dc:date>
    <dc:format>image/svg+xml</dc:format>
    <dc:creator>
     <cc:Agent>
      <dc:title>Matplotlib v3.10.8, https://matplotlib.org/</dc:title>
     </cc:Agent>
    </dc:creator>
   </cc:Work>
  </rdf:RDF>
 </metadata>
 <defs>
  <style type="text/css">*{stroke-linejoin: round; stroke-linecap: butt}</style>
 </defs>
 <g id="figure_1">
  <g id="patch_1">
   <path d="M 0 265.54315 
L 942.505625 265.54315 
L 942.505625 0 
L 0 0 
z
" style="fill: #ffffff"/>
  </g>
  <g id="axes_1">
   <g id="patch_2">
    <path d="M 39.330625 228.954713 
L 935.305625 228.954713 
L 935.305625 17.061433 
L 39.330625 17.061433 
z
" style="fill: #ffffff"/>
   </g>
   <g id="patch_3">
    <path d="M 39.330625 228.954713 
L 220.546973 228.954713 
L 220.546973 17.061433 
L 39.330625 17.061433 
z
" clip-path="url(#p2c098f6034)" style="fill: #f8fafc; opacity: 0.45"/>
   </g>
   <g id="patch_4">
    <path d="M 220.546973 228.954713 
L 247.729425 228.954713 
L 247.729425 17.061433 
L 220.546973 17.061433 
z
" clip-path="url(#p2c098f6034)" style="fill: #eff6ff; opacity: 0.45"/>
   </g>
   <g id="patch_5">
    <path d="M 247.729425 228.954713 
L 274.911877 228.954713 
L 274.911877 17.061433 
L 247.729425 17.061433 
z
" clip-path="url(#p2c098f6034)" style="fill: #fef3c7; opacity: 0.45"/>
   </g>
   <g id="patch_6">
    <path d="M 274.911877 228.954713 
L 315.685555 228.954713 
L 315.685555 17.061433 
L 274.911877 17.061433 
z
" clip-path="url(#p2c098f6034)" style="fill: #dcfce7; opacity: 0.45"/>
   </g>
   <g id="patch_7">
    <path d="M 315.685555 228.954713 
L 360.989642 228.954713 
L 360.989642 17.061433 
L 315.685555 17.061433 
z
" clip-path="url(#p2c098f6034)" style="fill: #fee2e2; opacity: 0.45"/>
   </g>
   <g id="patch_8">
    <path d="M 360.989642 228.954713 
L 478.780268 228.954713 
L 478.780268 17.061433 
L 360.989642 17.061433 
z
" clip-path="url(#p2c098f6034)" style="fill: #ede9fe; opacity: 0.45"/>
   </g>
   <g id="patch_9">
    <path d="M 478.780268 228.954713 
L 501.432311 228.954713 
L 501.432311 17.061433 
L 478.780268 17.061433 
z
" clip-path="url(#p2c098f6034)" style="fill: #f8fafc; opacity: 0.45"/>
   </g>
   <g id="patch_10">
    <path d="M 501.432311 228.954713 
L 528.614763 228.954713 
L 528.614763 17.061433 
L 501.432311 17.061433 
z
" clip-path="url(#p2c098f6034)" style="fill: #eff6ff; opacity: 0.45"/>
   </g>
   <g id="patch_11">
    <path d="M 528.614763 228.954713 
L 569.388442 228.954713 
L 569.388442 17.061433 
L 528.614763 17.061433 
z
" clip-path="url(#p2c098f6034)" style="fill: #fef3c7; opacity: 0.45"/>
   </g>
   <g id="patch_12">
    <path d="M 569.388442 228.954713 
L 614.692528 228.954713 
L 614.692528 17.061433 
L 569.388442 17.061433 
z
" clip-path="url(#p2c098f6034)" style="fill: #dcfce7; opacity: 0.45"/>
   </g>
   <g id="patch_13">
    <path d="M 614.692528 228.954713 
L 732.483154 228.954713 
L 732.483154 17.061433 
L 614.692528 17.061433 
z
" clip-path="url(#p2c098f6034)" style="fill: #fee2e2; opacity: 0.45"/>
   </g>
   <g id="patch_14">
    <path d="M 732.483154 228.954713 
L 755.135198 228.954713 
L 755.135198 17.061433 
L 732.483154 17.061433 
z
" clip-path="url(#p2c098f6034)" style="fill: #ede9fe; opacity: 0.45"/>
   </g>
   <g id="patch_15">
    <path d="M 755.135198 228.954713 
L 782.31765 228.954713 
L 782.31765 17.061433 
L 755.135198 17.061433 
z
" clip-path="url(#p2c098f6034)" style="fill: #f8fafc; opacity: 0.45"/>
   </g>
   <g id="patch_16">
    <path d="M 782.31765 228.954713 
L 823.091328 228.954713 
L 823.091328 17.061433 
L 782.31765 17.061433 
z
" clip-path="url(#p2c098f6034)" style="fill: #eff6ff; opacity: 0.45"/>
   </g>
   <g id="patch_17">
    <path d="M 823.091328 228.954713 
L 868.395415 228.954713 
L 868.395415 17.061433 
L 823.091328 17.061433 
z
" clip-path="url(#p2c098f6034)" style="fill: #fef3c7; opacity: 0.45"/>
   </g>
   <g id="patch_18">
    <path d="M 868.395415 228.954713 
L 913.699502 228.954713 
L 913.699502 17.061433 
L 868.395415 17.061433 
z
" clip-path="url(#p2c098f6034)" style="fill: #dcfce7; opacity: 0.45"/>
   </g>
   <g id="patch_19">
    <path d="M 913.699502 228.954713 
L 918.229911 228.954713 
L 918.229911 17.061433 
L 913.699502 17.061433 
z
" clip-path="url(#p2c098f6034)" style="fill: #fee2e2; opacity: 0.45"/>
   </g>
   <g id="matplotlib.axis_1">
    <g id="xtick_1">
     <g id="line2d_1">
      <path d="M 39.330625 228.954713 
L 39.330625 17.061433 
" clip-path="url(#p2c098f6034)" style="fill: none; stroke: #eef2f7; stroke-width: 0.55; stroke-linecap: square"/>
     </g>
     <g id="line2d_2">
      <defs>
       <path id="m97a36933a5" d="M 0 0 
L 0 3.5 
" style="stroke: #000000; stroke-width: 0.8"/>
      </defs>
      <g>
       <use xlink:href="#m97a36933a5" x="39.330625" y="228.954713" style="stroke: #000000; stroke-width: 0.8"/>
      </g>
     </g>
     <g id="text_1">
      <!-- 0 -->
      <g transform="translate(36.4675 242.793307) scale(0.09 -0.09)">
       <defs>
        <path id="DejaVuSans-30" d="M 2034 4250 
Q 1547 4250 1301 3770 
Q 1056 3291 1056 2328 
Q 1056 1369 1301 889 
Q 1547 409 2034 409 
Q 2525 409 2770 889 
Q 3016 1369 3016 2328 
Q 3016 3291 2770 3770 
Q 2525 4250 2034 4250 
z
M 2034 4750 
Q 2819 4750 3233 4129 
Q 3647 3509 3647 2328 
Q 3647 1150 3233 529 
Q 2819 -91 2034 -91 
Q 1250 -91 836 529 
Q 422 1150 422 2328 
Q 422 3509 836 4129 
Q 1250 4750 2034 4750 
z
" transform="scale(0.015625)"/>
       </defs>
       <use xlink:href="#DejaVuSans-30"/>
      </g>
     </g>
    </g>
    <g id="xtick_2">
     <g id="line2d_3">
      <path d="M 152.590842 228.954713 
L 152.590842 17.061433 
" clip-path="url(#p2c098f6034)" style="fill: none; stroke: #eef2f7; stroke-width: 0.55; stroke-linecap: square"/>
     </g>
     <g id="line2d_4">
      <g>
       <use xlink:href="#m97a36933a5" x="152.590842" y="228.954713" style="stroke: #000000; stroke-width: 0.8"/>
      </g>
     </g>
     <g id="text_2">
      <!-- 25 -->
      <g transform="translate(146.864592 242.793307) scale(0.09 -0.09)">
       <defs>
        <path id="DejaVuSans-32" d="M 1228 531 
L 3431 531 
L 3431 0 
L 469 0 
L 469 531 
Q 828 903 1448 1529 
Q 2069 2156 2228 2338 
Q 2531 2678 2651 2914 
Q 2772 3150 2772 3378 
Q 2772 3750 2511 3984 
Q 2250 4219 1831 4219 
Q 1534 4219 1204 4116 
Q 875 4013 500 3803 
L 500 4441 
Q 881 4594 1212 4672 
Q 1544 4750 1819 4750 
Q 2544 4750 2975 4387 
Q 3406 4025 3406 3419 
Q 3406 3131 3298 2873 
Q 3191 2616 2906 2266 
Q 2828 2175 2409 1742 
Q 1991 1309 1228 531 
z
" transform="scale(0.015625)"/>
        <path id="DejaVuSans-35" d="M 691 4666 
L 3169 4666 
L 3169 4134 
L 1269 4134 
L 1269 2991 
Q 1406 3038 1543 3061 
Q 1681 3084 1819 3084 
Q 2600 3084 3056 2656 
Q 3513 2228 3513 1497 
Q 3513 744 3044 326 
Q 2575 -91 1722 -91 
Q 1428 -91 1123 -41 
Q 819 9 494 109 
L 494 744 
Q 775 591 1075 516 
Q 1375 441 1709 441 
Q 2250 441 2565 725 
Q 2881 1009 2881 1497 
Q 2881 1984 2565 2268 
Q 2250 2553 1709 2553 
Q 1456 2553 1204 2497 
Q 953 2441 691 2322 
L 691 4666 
z
" transform="scale(0.015625)"/>
       </defs>
       <use xlink:href="#DejaVuSans-32"/>
       <use xlink:href="#DejaVuSans-35" transform="translate(63.623047 0)"/>
      </g>
     </g>
    </g>
    <g id="xtick_3">
     <g id="line2d_5">
      <path d="M 265.851059 228.954713 
L 265.851059 17.061433 
" clip-path="url(#p2c098f6034)" style="fill: none; stroke: #eef2f7; stroke-width: 0.55; stroke-linecap: square"/>
     </g>
     <g id="line2d_6">
      <g>
       <use xlink:href="#m97a36933a5" x="265.851059" y="228.954713" style="stroke: #000000; stroke-width: 0.8"/>
      </g>
     </g>
     <g id="text_3">
      <!-- 50 -->
      <g transform="translate(260.124809 242.793307) scale(0.09 -0.09)">
       <use xlink:href="#DejaVuSans-35"/>
       <use xlink:href="#DejaVuSans-30" transform="translate(63.623047 0)"/>
      </g>
     </g>
    </g>
    <g id="xtick_4">
     <g id="line2d_7">
      <path d="M 379.111277 228.954713 
L 379.111277 17.061433 
" clip-path="url(#p2c098f6034)" style="fill: none; stroke: #eef2f7; stroke-width: 0.55; stroke-linecap: square"/>
     </g>
     <g id="line2d_8">
      <g>
       <use xlink:href="#m97a36933a5" x="379.111277" y="228.954713" style="stroke: #000000; stroke-width: 0.8"/>
      </g>
     </g>
     <g id="text_4">
      <!-- 75 -->
      <g transform="translate(373.385027 242.793307) scale(0.09 -0.09)">
       <defs>
        <path id="DejaVuSans-37" d="M 525 4666 
L 3525 4666 
L 3525 4397 
L 1831 0 
L 1172 0 
L 2766 4134 
L 525 4134 
L 525 4666 
z
" transform="scale(0.015625)"/>
       </defs>
       <use xlink:href="#DejaVuSans-37"/>
       <use xlink:href="#DejaVuSans-35" transform="translate(63.623047 0)"/>
      </g>
     </g>
    </g>
    <g id="xtick_5">
     <g id="line2d_9">
      <path d="M 492.371494 228.954713 
L 492.371494 17.061433 
" clip-path="url(#p2c098f6034)" style="fill: none; stroke: #eef2f7; stroke-width: 0.55; stroke-linecap: square"/>
     </g>
     <g id="line2d_10">
      <g>
       <use xlink:href="#m97a36933a5" x="492.371494" y="228.954713" style="stroke: #000000; stroke-width: 0.8"/>
      </g>
     </g>
     <g id="text_5">
      <!-- 100 -->
      <g transform="translate(483.782119 242.793307) scale(0.09 -0.09)">
       <defs>
        <path id="DejaVuSans-31" d="M 794 531 
L 1825 531 
L 1825 4091 
L 703 3866 
L 703 4441 
L 1819 4666 
L 2450 4666 
L 2450 531 
L 3481 531 
L 3481 0 
L 794 0 
L 794 531 
z
" transform="scale(0.015625)"/>
       </defs>
       <use xlink:href="#DejaVuSans-31"/>
       <use xlink:href="#DejaVuSans-30" transform="translate(63.623047 0)"/>
       <use xlink:href="#DejaVuSans-30" transform="translate(127.246094 0)"/>
      </g>
     </g>
    </g>
    <g id="xtick_6">
     <g id="line2d_11">
      <path d="M 605.631711 228.954713 
L 605.631711 17.061433 
" clip-path="url(#p2c098f6034)" style="fill: none; stroke: #eef2f7; stroke-width: 0.55; stroke-linecap: square"/>
     </g>
     <g id="line2d_12">
      <g>
       <use xlink:href="#m97a36933a5" x="605.631711" y="228.954713" style="stroke: #000000; stroke-width: 0.8"/>
      </g>
     </g>
     <g id="text_6">
      <!-- 125 -->
      <g transform="translate(597.042336 242.793307) scale(0.09 -0.09)">
       <use xlink:href="#DejaVuSans-31"/>
       <use xlink:href="#DejaVuSans-32" transform="translate(63.623047 0)"/>
       <use xlink:href="#DejaVuSans-35" transform="translate(127.246094 0)"/>
      </g>
     </g>
    </g>
    <g id="xtick_7">
     <g id="line2d_13">
      <path d="M 718.891928 228.954713 
L 718.891928 17.061433 
" clip-path="url(#p2c098f6034)" style="fill: none; stroke: #eef2f7; stroke-width: 0.55; stroke-linecap: square"/>
     </g>
     <g id="line2d_14">
      <g>
       <use xlink:href="#m97a36933a5" x="718.891928" y="228.954713" style="stroke: #000000; stroke-width: 0.8"/>
      </g>
     </g>
     <g id="text_7">
      <!-- 150 -->
      <g transform="translate(710.302553 242.793307) scale(0.09 -0.09)">
       <use xlink:href="#DejaVuSans-31"/>
       <use xlink:href="#DejaVuSans-35" transform="translate(63.623047 0)"/>
       <use xlink:href="#DejaVuSans-30" transform="translate(127.246094 0)"/>
      </g>
     </g>
    </g>
    <g id="xtick_8">
     <g id="line2d_15">
      <path d="M 832.152146 228.954713 
L 832.152146 17.061433 
" clip-path="url(#p2c098f6034)" style="fill: none; stroke: #eef2f7; stroke-width: 0.55; stroke-linecap: square"/>
     </g>
     <g id="line2d_16">
      <g>
       <use xlink:href="#m97a36933a5" x="832.152146" y="228.954713" style="stroke: #000000; stroke-width: 0.8"/>
      </g>
     </g>
     <g id="text_8">
      <!-- 175 -->
      <g transform="translate(823.562771 242.793307) scale(0.09 -0.09)">
       <use xlink:href="#DejaVuSans-31"/>
       <use xlink:href="#DejaVuSans-37" transform="translate(63.623047 0)"/>
       <use xlink:href="#DejaVuSans-35" transform="translate(127.246094 0)"/>
      </g>
     </g>
    </g>
    <g id="text_9">
     <!-- Minutes since session start -->
     <g transform="translate(419.728281 256.263463) scale(0.1 -0.1)">
      <defs>
       <path id="DejaVuSans-4d" d="M 628 4666 
L 1569 4666 
L 2759 1491 
L 3956 4666 
L 4897 4666 
L 4897 0 
L 4281 0 
L 4281 4097 
L 3078 897 
L 2444 897 
L 1241 4097 
L 1241 0 
L 628 0 
L 628 4666 
z
" transform="scale(0.015625)"/>
       <path id="DejaVuSans-69" d="M 603 3500 
L 1178 3500 
L 1178 0 
L 603 0 
L 603 3500 
z
M 603 4863 
L 1178 4863 
L 1178 4134 
L 603 4134 
L 603 4863 
z
" transform="scale(0.015625)"/>
       <path id="DejaVuSans-6e" d="M 3513 2113 
L 3513 0 
L 2938 0 
L 2938 2094 
Q 2938 2591 2744 2837 
Q 2550 3084 2163 3084 
Q 1697 3084 1428 2787 
Q 1159 2491 1159 1978 
L 1159 0 
L 581 0 
L 581 3500 
L 1159 3500 
L 1159 2956 
Q 1366 3272 1645 3428 
Q 1925 3584 2291 3584 
Q 2894 3584 3203 3211 
Q 3513 2838 3513 2113 
z
" transform="scale(0.015625)"/>
       <path id="DejaVuSans-75" d="M 544 1381 
L 544 3500 
L 1119 3500 
L 1119 1403 
Q 1119 906 1312 657 
Q 1506 409 1894 409 
Q 2359 409 2629 706 
Q 2900 1003 2900 1516 
L 2900 3500 
L 3475 3500 
L 3475 0 
L 2900 0 
L 2900 538 
Q 2691 219 2414 64 
Q 2138 -91 1772 -91 
Q 1169 -91 856 284 
Q 544 659 544 1381 
z
M 1991 3584 
L 1991 3584 
z
" transform="scale(0.015625)"/>
       <path id="DejaVuSans-74" d="M 1172 4494 
L 1172 3500 
L 2356 3500 
L 2356 3053 
L 1172 3053 
L 1172 1153 
Q 1172 725 1289 603 
Q 1406 481 1766 481 
L 2356 481 
L 2356 0 
L 1766 0 
Q 1100 0 847 248 
Q 594 497 594 1153 
L 594 3053 
L 172 3053 
L 172 3500 
L 594 3500 
L 594 4494 
L 1172 4494 
z
" transform="scale(0.015625)"/>
       <path id="DejaVuSans-65" d="M 3597 1894 
L 3597 1613 
L 953 1613 
Q 991 1019 1311 708 
Q 1631 397 2203 397 
Q 2534 397 2845 478 
Q 3156 559 3463 722 
L 3463 178 
Q 3153 47 2828 -22 
Q 2503 -91 2169 -91 
Q 1331 -91 842 396 
Q 353 884 353 1716 
Q 353 2575 817 3079 
Q 1281 3584 2069 3584 
Q 2775 3584 3186 3129 
Q 3597 2675 3597 1894 
z
M 3022 2063 
Q 3016 2534 2758 2815 
Q 2500 3097 2075 3097 
Q 1594 3097 1305 2825 
Q 1016 2553 972 2059 
L 3022 2063 
z
" transform="scale(0.015625)"/>
       <path id="DejaVuSans-73" d="M 2834 3397 
L 2834 2853 
Q 2591 2978 2328 3040 
Q 2066 3103 1784 3103 
Q 1356 3103 1142 2972 
Q 928 2841 928 2578 
Q 928 2378 1081 2264 
Q 1234 2150 1697 2047 
L 1894 2003 
Q 2506 1872 2764 1633 
Q 3022 1394 3022 966 
Q 3022 478 2636 193 
Q 2250 -91 1575 -91 
Q 1294 -91 989 -36 
Q 684 19 347 128 
L 347 722 
Q 666 556 975 473 
Q 1284 391 1588 391 
Q 1994 391 2212 530 
Q 2431 669 2431 922 
Q 2431 1156 2273 1281 
Q 2116 1406 1581 1522 
L 1381 1569 
Q 847 1681 609 1914 
Q 372 2147 372 2553 
Q 372 3047 722 3315 
Q 1072 3584 1716 3584 
Q 2034 3584 2315 3537 
Q 2597 3491 2834 3397 
z
" transform="scale(0.015625)"/>
       <path id="DejaVuSans-20" transform="scale(0.015625)"/>
       <path id="DejaVuSans-63" d="M 3122 3366 
L 3122 2828 
Q 2878 2963 2633 3030 
Q 2388 3097 2138 3097 
Q 1578 3097 1268 2742 
Q 959 2388 959 1747 
Q 959 1106 1268 751 
Q 1578 397 2138 397 
Q 2388 397 2633 464 
Q 2878 531 3122 666 
L 3122 134 
Q 2881 22 2623 -34 
Q 2366 -91 2075 -91 
Q 1284 -91 818 406 
Q 353 903 353 1747 
Q 353 2603 823 3093 
Q 1294 3584 2113 3584 
Q 2378 3584 2631 3529 
Q 2884 3475 3122 3366 
z
" transform="scale(0.015625)"/>
       <path id="DejaVuSans-6f" d="M 1959 3097 
Q 1497 3097 1228 2736 
Q 959 2375 959 1747 
Q 959 1119 1226 758 
Q 1494 397 1959 397 
Q 2419 397 2687 759 
Q 2956 1122 2956 1747 
Q 2956 2369 2687 2733 
Q 2419 3097 1959 3097 
z
M 1959 3584 
Q 2709 3584 3137 3096 
Q 3566 2609 3566 1747 
Q 3566 888 3137 398 
Q 2709 -91 1959 -91 
Q 1206 -91 779 398 
Q 353 888 353 1747 
Q 353 2609 779 3096 
Q 1206 3584 1959 3584 
z
" transform="scale(0.015625)"/>
       <path id="DejaVuSans-61" d="M 2194 1759 
Q 1497 1759 1228 1600 
Q 959 1441 959 1056 
Q 959 750 1161 570 
Q 1363 391 1709 391 
Q 2188 391 2477 730 
Q 2766 1069 2766 1631 
L 2766 1759 
L 2194 1759 
z
M 3341 1997 
L 3341 0 
L 2766 0 
L 2766 531 
Q 2569 213 2275 61 
Q 1981 -91 1556 -91 
Q 1019 -91 701 211 
Q 384 513 384 1019 
Q 384 1609 779 1909 
Q 1175 2209 1959 2209 
L 2766 2209 
L 2766 2266 
Q 2766 2663 2505 2880 
Q 2244 3097 1772 3097 
Q 1472 3097 1187 3025 
Q 903 2953 641 2809 
L 641 3341 
Q 956 3463 1253 3523 
Q 1550 3584 1831 3584 
Q 2591 3584 2966 3190 
Q 3341 2797 3341 1997 
z
" transform="scale(0.015625)"/>
       <path id="DejaVuSans-72" d="M 2631 2963 
Q 2534 3019 2420 3045 
Q 2306 3072 2169 3072 
Q 1681 3072 1420 2755 
Q 1159 2438 1159 1844 
L 1159 0 
L 581 0 
L 581 3500 
L 1159 3500 
L 1159 2956 
Q 1341 3275 1631 3429 
Q 1922 3584 2338 3584 
Q 2397 3584 2469 3576 
Q 2541 3569 2628 3553 
L 2631 2963 
z
" transform="scale(0.015625)"/>
      </defs>
      <use xlink:href="#DejaVuSans-4d"/>
      <use xlink:href="#DejaVuSans-69" transform="translate(86.279297 0)"/>
      <use xlink:href="#DejaVuSans-6e" transform="translate(114.0625 0)"/>
      <use xlink:href="#DejaVuSans-75" transform="translate(177.441406 0)"/>
      <use xlink:href="#DejaVuSans-74" transform="translate(240.820312 0)"/>
      <use xlink:href="#DejaVuSans-65" transform="translate(280.029297 0)"/>
      <use xlink:href="#DejaVuSans-73" transform="translate(341.552734 0)"/>
      <use xlink:href="#DejaVuSans-20" transform="translate(393.652344 0)"/>
      <use xlink:href="#DejaVuSans-73" transform="translate(425.439453 0)"/>
      <use xlink:href="#DejaVuSans-69" transform="translate(477.539062 0)"/>
      <use xlink:href="#DejaVuSans-6e" transform="translate(505.322266 0)"/>
      <use xlink:href="#DejaVuSans-63" transform="translate(568.701172 0)"/>
      <use xlink:href="#DejaVuSans-65" transform="translate(623.681641 0)"/>
      <use xlink:href="#DejaVuSans-20" transform="translate(685.205078 0)"/>
      <use xlink:href="#DejaVuSans-73" transform="translate(716.992188 0)"/>
      <use xlink:href="#DejaVuSans-65" transform="translate(769.091797 0)"/>
      <use xlink:href="#DejaVuSans-73" transform="translate(830.615234 0)"/>
      <use xlink:href="#DejaVuSans-73" transform="translate(882.714844 0)"/>
      <use xlink:href="#DejaVuSans-69" transform="translate(934.814453 0)"/>
      <use xlink:href="#DejaVuSans-6f" transform="translate(962.597656 0)"/>
      <use xlink:href="#DejaVuSans-6e" transform="translate(1023.779297 0)"/>
      <use xlink:href="#DejaVuSans-20" transform="translate(1087.158203 0)"/>
      <use xlink:href="#DejaVuSans-73" transform="translate(1118.945312 0)"/>
      <use xlink:href="#DejaVuSans-74" transform="translate(1171.044922 0)"/>
      <use xlink:href="#DejaVuSans-61" transform="translate(1210.253906 0)"/>
      <use xlink:href="#DejaVuSans-72" transform="translate(1271.533203 0)"/>
      <use xlink:href="#DejaVuSans-74" transform="translate(1312.646484 0)"/>
     </g>
    </g>
   </g>
   <g id="matplotlib.axis_2">
    <g id="ytick_1">
     <g id="line2d_17">
      <path d="M 39.330625 191.476515 
L 935.305625 191.476515 
" clip-path="url(#p2c098f6034)" style="fill: none; stroke: #eef2f7; stroke-opacity: 0.25; stroke-width: 0.55; stroke-linecap: square"/>
     </g>
     <g id="line2d_18">
      <defs>
       <path id="mbe27f3470f" d="M 0 0 
L -3.5 0 
" style="stroke: #000000; stroke-width: 0.8"/>
      </defs>
      <g>
       <use xlink:href="#mbe27f3470f" x="39.330625" y="191.476515" style="stroke: #000000; stroke-width: 0.8"/>
      </g>
     </g>
     <g id="text_10">
      <!-- 4 -->
      <g transform="translate(26.604375 194.895812) scale(0.09 -0.09)">
       <defs>
        <path id="DejaVuSans-34" d="M 2419 4116 
L 825 1625 
L 2419 1625 
L 2419 4116 
z
M 2253 4666 
L 3047 4666 
L 3047 1625 
L 3713 1625 
L 3713 1100 
L 3047 1100 
L 3047 0 
L 2419 0 
L 2419 1100 
L 313 1100 
L 313 1709 
L 2253 4666 
z
" transform="scale(0.015625)"/>
       </defs>
       <use xlink:href="#DejaVuSans-34"/>
      </g>
     </g>
    </g>
    <g id="ytick_2">
     <g id="line2d_19">
      <path d="M 39.330625 149.736437 
L 935.305625 149.736437 
" clip-path="url(#p2c098f6034)" style="fill: none; stroke: #eef2f7; stroke-opacity: 0.25; stroke-width: 0.55; stroke-linecap: square"/>
     </g>
     <g id="line2d_20">
      <g>
       <use xlink:href="#mbe27f3470f" x="39.330625" y="149.736437" style="stroke: #000000; stroke-width: 0.8"/>
      </g>
     </g>
     <g id="text_11">
      <!-- 6 -->
      <g transform="translate(26.604375 153.155733) scale(0.09 -0.09)">
       <defs>
        <path id="DejaVuSans-36" d="M 2113 2584 
Q 1688 2584 1439 2293 
Q 1191 2003 1191 1497 
Q 1191 994 1439 701 
Q 1688 409 2113 409 
Q 2538 409 2786 701 
Q 3034 994 3034 1497 
Q 3034 2003 2786 2293 
Q 2538 2584 2113 2584 
z
M 3366 4563 
L 3366 3988 
Q 3128 4100 2886 4159 
Q 2644 4219 2406 4219 
Q 1781 4219 1451 3797 
Q 1122 3375 1075 2522 
Q 1259 2794 1537 2939 
Q 1816 3084 2150 3084 
Q 2853 3084 3261 2657 
Q 3669 2231 3669 1497 
Q 3669 778 3244 343 
Q 2819 -91 2113 -91 
Q 1303 -91 875 529 
Q 447 1150 447 2328 
Q 447 3434 972 4092 
Q 1497 4750 2381 4750 
Q 2619 4750 2861 4703 
Q 3103 4656 3366 4563 
z
" transform="scale(0.015625)"/>
       </defs>
       <use xlink:href="#DejaVuSans-36"/>
      </g>
     </g>
    </g>
    <g id="ytick_3">
     <g id="line2d_21">
      <path d="M 39.330625 107.996358 
L 935.305625 107.996358 
" clip-path="url(#p2c098f6034)" style="fill: none; stroke: #eef2f7; stroke-opacity: 0.25; stroke-width: 0.55; stroke-linecap: square"/>
     </g>
     <g id="line2d_22">
      <g>
       <use xlink:href="#mbe27f3470f" x="39.330625" y="107.996358" style="stroke: #000000; stroke-width: 0.8"/>
      </g>
     </g>
     <g id="text_12">
      <!-- 8 -->
      <g transform="translate(26.604375 111.415655) scale(0.09 -0.09)">
       <defs>
        <path id="DejaVuSans-38" d="M 2034 2216 
Q 1584 2216 1326 1975 
Q 1069 1734 1069 1313 
Q 1069 891 1326 650 
Q 1584 409 2034 409 
Q 2484 409 2743 651 
Q 3003 894 3003 1313 
Q 3003 1734 2745 1975 
Q 2488 2216 2034 2216 
z
M 1403 2484 
Q 997 2584 770 2862 
Q 544 3141 544 3541 
Q 544 4100 942 4425 
Q 1341 4750 2034 4750 
Q 2731 4750 3128 4425 
Q 3525 4100 3525 3541 
Q 3525 3141 3298 2862 
Q 3072 2584 2669 2484 
Q 3125 2378 3379 2068 
Q 3634 1759 3634 1313 
Q 3634 634 3220 271 
Q 2806 -91 2034 -91 
Q 1263 -91 848 271 
Q 434 634 434 1313 
Q 434 1759 690 2068 
Q 947 2378 1403 2484 
z
M 1172 3481 
Q 1172 3119 1398 2916 
Q 1625 2713 2034 2713 
Q 2441 2713 2670 2916 
Q 2900 3119 2900 3481 
Q 2900 3844 2670 4047 
Q 2441 4250 2034 4250 
Q 1625 4250 1398 4047 
Q 1172 3844 1172 3481 
z
" transform="scale(0.015625)"/>
       </defs>
       <use xlink:href="#DejaVuSans-38"/>
      </g>
     </g>
    </g>
    <g id="ytick_4">
     <g id="line2d_23">
      <path d="M 39.330625 66.256279 
L 935.305625 66.256279 
" clip-path="url(#p2c098f6034)" style="fill: none; stroke: #eef2f7; stroke-opacity: 0.25; stroke-width: 0.55; stroke-linecap: square"/>
     </g>
     <g id="line2d_24">
      <g>
       <use xlink:href="#mbe27f3470f" x="39.330625" y="66.256279" style="stroke: #000000; stroke-width: 0.8"/>
      </g>
     </g>
     <g id="text_13">
      <!-- 10 -->
      <g transform="translate(20.878125 69.675576) scale(0.09 -0.09)">
       <use xlink:href="#DejaVuSans-31"/>
       <use xlink:href="#DejaVuSans-30" transform="translate(63.623047 0)"/>
      </g>
     </g>
    </g>
    <g id="ytick_5">
     <g id="line2d_25">
      <path d="M 39.330625 24.5162 
L 935.305625 24.5162 
" clip-path="url(#p2c098f6034)" style="fill: none; stroke: #eef2f7; stroke-opacity: 0.25; stroke-width: 0.55; stroke-linecap: square"/>
     </g>
     <g id="line2d_26">
      <g>
       <use xlink:href="#mbe27f3470f" x="39.330625" y="24.5162" style="stroke: #000000; stroke-width: 0.8"/>
      </g>
     </g>
     <g id="text_14">
      <!-- 12 -->
      <g transform="translate(20.878125 27.935497) scale(0.09 -0.09)">
       <use xlink:href="#DejaVuSans-31"/>
       <use xlink:href="#DejaVuSans-32" transform="translate(63.623047 0)"/>
      </g>
     </g>
    </g>
    <g id="text_15">
     <!-- EDA (microsiemens) -->
     <g transform="translate(14.798438 173.642448) rotate(-90) scale(0.1 -0.1)">
      <defs>
       <path id="DejaVuSans-45" d="M 628 4666 
L 3578 4666 
L 3578 4134 
L 1259 4134 
L 1259 2753 
L 3481 2753 
L 3481 2222 
L 1259 2222 
L 1259 531 
L 3634 531 
L 3634 0 
L 628 0 
L 628 4666 
z
" transform="scale(0.015625)"/>
       <path id="DejaVuSans-44" d="M 1259 4147 
L 1259 519 
L 2022 519 
Q 2988 519 3436 956 
Q 3884 1394 3884 2338 
Q 3884 3275 3436 3711 
Q 2988 4147 2022 4147 
L 1259 4147 
z
M 628 4666 
L 1925 4666 
Q 3281 4666 3915 4102 
Q 4550 3538 4550 2338 
Q 4550 1131 3912 565 
Q 3275 0 1925 0 
L 628 0 
L 628 4666 
z
" transform="scale(0.015625)"/>
       <path id="DejaVuSans-41" d="M 2188 4044 
L 1331 1722 
L 3047 1722 
L 2188 4044 
z
M 1831 4666 
L 2547 4666 
L 4325 0 
L 3669 0 
L 3244 1197 
L 1141 1197 
L 716 0 
L 50 0 
L 1831 4666 
z
" transform="scale(0.015625)"/>
       <path id="DejaVuSans-28" d="M 1984 4856 
Q 1566 4138 1362 3434 
Q 1159 2731 1159 2009 
Q 1159 1288 1364 580 
Q 1569 -128 1984 -844 
L 1484 -844 
Q 1016 -109 783 600 
Q 550 1309 550 2009 
Q 550 2706 781 3412 
Q 1013 4119 1484 4856 
L 1984 4856 
z
" transform="scale(0.015625)"/>
       <path id="DejaVuSans-6d" d="M 3328 2828 
Q 3544 3216 3844 3400 
Q 4144 3584 4550 3584 
Q 5097 3584 5394 3201 
Q 5691 2819 5691 2113 
L 5691 0 
L 5113 0 
L 5113 2094 
Q 5113 2597 4934 2840 
Q 4756 3084 4391 3084 
Q 3944 3084 3684 2787 
Q 3425 2491 3425 1978 
L 3425 0 
L 2847 0 
L 2847 2094 
Q 2847 2600 2669 2842 
Q 2491 3084 2119 3084 
Q 1678 3084 1418 2786 
Q 1159 2488 1159 1978 
L 1159 0 
L 581 0 
L 581 3500 
L 1159 3500 
L 1159 2956 
Q 1356 3278 1631 3431 
Q 1906 3584 2284 3584 
Q 2666 3584 2933 3390 
Q 3200 3197 3328 2828 
z
" transform="scale(0.015625)"/>
       <path id="DejaVuSans-29" d="M 513 4856 
L 1013 4856 
Q 1481 4119 1714 3412 
Q 1947 2706 1947 2009 
Q 1947 1309 1714 600 
Q 1481 -109 1013 -844 
L 513 -844 
Q 928 -128 1133 580 
Q 1338 1288 1338 2009 
Q 1338 2731 1133 3434 
Q 928 4138 513 4856 
z
" transform="scale(0.015625)"/>
      </defs>
      <use xlink:href="#DejaVuSans-45"/>
      <use xlink:href="#DejaVuSans-44" transform="translate(63.183594 0)"/>
      <use xlink:href="#DejaVuSans-41" transform="translate(138.435547 0)"/>
      <use xlink:href="#DejaVuSans-20" transform="translate(206.84375 0)"/>
      <use xlink:href="#DejaVuSans-28" transform="translate(238.630859 0)"/>
      <use xlink:href="#DejaVuSans-6d" transform="translate(277.644531 0)"/>
      <use xlink:href="#DejaVuSans-69" transform="translate(375.056641 0)"/>
      <use xlink:href="#DejaVuSans-63" transform="translate(402.839844 0)"/>
      <use xlink:href="#DejaVuSans-72" transform="translate(457.820312 0)"/>
      <use xlink:href="#DejaVuSans-6f" transform="translate(496.683594 0)"/>
      <use xlink:href="#DejaVuSans-73" transform="translate(557.865234 0)"/>
      <use xlink:href="#DejaVuSans-69" transform="translate(609.964844 0)"/>
      <use xlink:href="#DejaVuSans-65" transform="translate(637.748047 0)"/>
      <use xlink:href="#DejaVuSans-6d" transform="translate(699.271484 0)"/>
      <use xlink:href="#DejaVuSans-65" transform="translate(796.683594 0)"/>
      <use xlink:href="#DejaVuSans-6e" transform="translate(858.207031 0)"/>
      <use xlink:href="#DejaVuSans-73" transform="translate(921.585938 0)"/>
      <use xlink:href="#DejaVuSans-29" transform="translate(973.685547 0)"/>
     </g>
    </g>
   </g>
   <g id="line2d_27">
    <path d="M 55.926116 175.854665 
L 56.214552 167.606616 
L 56.791424 183.815959 
L 57.07986 171.428129 
L 57.368296 179.739623 
L 57.656732 162.352167 
L 57.945168 173.784565 
L 58.233604 180.567746 
L 58.52204 164.581504 
L 58.810476 179.070946 
L 59.675784 116.144856 
L 59.96422 134.519673 
L 60.252656 124.520212 
L 60.541092 140.888583 
L 60.829528 135.315657 
L 61.4064 159.454362 
L 61.694836 147.894656 
L 61.983272 164.645158 
L 62.271709 171.491783 
L 62.560145 171.460061 
L 63.137017 181.745859 
L 63.425453 184.070573 
L 63.713889 169.199 
L 64.290761 186.395287 
L 64.579197 180.981599 
L 64.867633 184.325396 
L 65.156069 175.822734 
L 65.444505 180.026377 
L 65.732941 163.307597 
L 66.021377 165.695964 
L 66.309813 172.797413 
L 66.598249 182.764943 
L 67.175121 159.23147 
L 67.751993 166.396572 
L 68.040429 163.052774 
L 68.328865 167.925093 
L 68.617301 169.835954 
L 68.905737 173.912081 
L 69.194173 168.179916 
L 69.482609 164.836119 
L 69.771045 155.059757 
L 70.059481 166.141748 
L 70.347917 166.17368 
L 70.636353 163.912619 
L 70.924789 165.632311 
L 71.213225 156.683864 
L 71.501661 172.096805 
L 71.790097 177.606078 
L 72.078533 164.613227 
L 72.366969 168.466462 
L 72.655405 170.281738 
L 72.943841 169.007831 
L 73.232277 178.211101 
L 73.520713 183.08342 
L 73.809149 184.325396 
L 74.097585 181.745859 
L 74.674457 160.600753 
L 74.962893 174.039389 
L 75.251329 178.465924 
L 75.539765 176.905471 
L 75.828201 166.460225 
L 76.116637 169.517477 
L 76.405073 166.078095 
L 76.69351 165.568657 
L 77.270382 180.695053 
L 77.558818 181.077183 
L 77.847254 177.574147 
L 78.13569 185.153311 
L 78.424126 187.60554 
L 78.712562 176.364102 
L 79.000998 175.886387 
L 79.289434 162.320444 
L 79.57787 173.593605 
L 79.866306 177.383186 
L 80.154742 176.173142 
L 80.443178 184.038851 
L 80.731614 170.536561 
L 81.02005 178.40227 
L 81.308486 178.306686 
L 81.596922 153.626612 
L 81.885358 171.523714 
L 82.173794 178.465924 
L 82.46223 156.556348 
L 82.750666 174.867303 
L 83.039102 146.302272 
L 83.327538 164.135512 
L 83.615974 160.855576 
L 83.90441 171.842191 
L 84.192846 171.491783 
L 84.481282 163.944551 
L 84.769718 168.880524 
L 85.058154 170.058846 
L 85.34659 176.937402 
L 85.635026 180.758707 
L 85.923462 167.957024 
L 86.211898 175.854665 
L 86.500334 175.18578 
L 86.78877 178.115516 
L 87.077206 178.179378 
L 87.365642 178.688816 
L 87.654078 179.453077 
L 87.942514 185.853918 
L 88.807822 195.343734 
L 89.384694 186.904933 
L 89.961566 162.065621 
L 90.250002 175.058473 
L 90.538438 160.314207 
L 91.115311 176.33238 
L 91.403747 182.987835 
L 91.692183 179.230185 
L 91.980619 168.944177 
L 92.269055 177.128363 
L 92.557491 174.039389 
L 92.845927 141.143407 
L 93.134363 165.122873 
L 93.422799 173.084167 
L 93.711235 149.518762 
L 93.999671 154.295497 
L 94.288107 142.958474 
L 94.576543 166.141748 
L 94.864979 168.466462 
L 95.153415 165.918856 
L 95.441851 173.561673 
L 95.730287 176.586994 
L 96.018723 169.772092 
L 96.307159 172.542798 
L 96.595595 143.977558 
L 96.884031 162.957398 
L 97.172467 160.791922 
L 97.460903 170.982345 
L 97.749339 176.618926 
L 98.037775 178.40227 
L 98.614647 188.178632 
L 98.903083 192.031867 
L 99.191519 193.783489 
L 99.479955 194.802573 
L 99.768391 181.236422 
L 100.056827 179.230185 
L 100.633699 192.47786 
L 101.210571 199.929507 
L 101.499007 203.687367 
L 101.787443 191.203953 
L 102.075879 189.229647 
L 102.652751 200.279915 
L 102.941187 203.400612 
L 103.229623 204.833758 
L 103.518059 197.063425 
L 104.094931 205.215888 
L 104.383367 208.018108 
L 104.671803 194.515819 
L 105.248675 203.782743 
L 105.537111 199.483723 
L 105.825548 199.101593 
L 106.113984 203.719089 
L 106.40242 204.738173 
L 106.690856 205.279542 
L 106.979292 209.3876 
L 107.267728 192.254759 
L 107.556164 188.91117 
L 107.8446 190.758169 
L 108.133036 197.573071 
L 108.421472 197.095356 
L 108.709908 161.269429 
L 108.998344 155.983257 
L 109.28678 163.116636 
L 109.575216 136.239156 
L 109.863652 138.054432 
L 110.152088 124.965996 
L 110.440524 147.257702 
L 111.305832 170.854829 
L 111.594268 148.021963 
L 111.882704 148.5314 
L 112.17114 145.219534 
L 112.459576 150.792461 
L 113.036448 167.51124 
L 113.324884 173.784565 
L 113.61332 168.43474 
L 114.190192 178.688816 
L 114.478628 178.656885 
L 114.767064 154.550111 
L 115.0555 162.352167 
L 115.343936 141.111475 
L 115.632372 162.129275 
L 115.920808 170.058846 
L 116.209244 173.561673 
L 116.49768 163.880897 
L 116.786116 170.759453 
L 117.074552 150.091853 
L 117.362988 150.505915 
L 117.93986 163.594143 
L 118.228296 150.0282 
L 118.516732 145.601664 
L 119.093604 167.352002 
L 119.38204 174.103042 
L 119.670476 175.090404 
L 119.958912 175.56791 
L 120.535785 181.236422 
L 120.824221 177.606078 
L 121.112657 159.99573 
L 121.401093 161.842729 
L 121.977965 178.211101 
L 122.266401 152.09809 
L 122.843273 140.315492 
L 123.131709 145.442426 
L 123.420145 139.837777 
L 123.708581 117.609724 
L 123.997017 139.551231 
L 124.285453 151.747891 
L 124.573889 144.455273 
L 125.150761 161.333291 
L 125.727633 172.542798 
L 126.016069 174.867303 
L 126.304505 174.644411 
L 126.592941 171.300822 
L 127.169813 180.695053 
L 127.458249 172.065083 
L 128.035121 183.27459 
L 128.323557 184.325396 
L 128.611993 173.529951 
L 128.900429 180.249269 
L 129.477301 185.057935 
L 129.765737 186.586456 
L 130.054173 189.388885 
L 130.342609 173.211474 
L 130.631045 176.14121 
L 131.207917 172.606452 
L 131.784789 183.019767 
L 132.361661 191.267606 
L 132.650097 191.968213 
L 132.938533 194.292927 
L 133.226969 175.058473 
L 133.515405 175.886387 
L 133.803841 177.192017 
L 134.092277 183.051698 
L 134.380713 178.40227 
L 134.669149 169.007831 
L 134.957586 149.327592 
L 135.246022 159.390708 
L 135.534458 154.072605 
L 136.11133 168.24357 
L 136.399766 167.670479 
L 136.688202 134.99718 
L 136.976638 149.041047 
L 137.55351 163.912619 
L 137.841946 162.256791 
L 138.130382 162.384098 
L 138.707254 174.357865 
L 138.99569 179.516731 
L 139.284126 178.497855 
L 140.149434 155.155342 
L 140.43787 152.09809 
L 140.726306 147.544248 
L 141.014742 152.352913 
L 141.303178 134.61505 
L 141.591614 124.329042 
L 141.88005 149.83703 
L 142.168486 120.475807 
L 142.456922 140.538384 
L 143.033794 110.763099 
L 143.32223 127.864009 
L 143.610666 135.538549 
L 143.899102 133.373073 
L 144.475974 151.270176 
L 144.76441 159.263192 
L 145.052846 147.512316 
L 145.341282 144.232381 
L 145.918154 159.772838 
L 146.20659 165.377488 
L 146.783462 130.602576 
L 147.071898 136.812456 
L 147.360334 121.240067 
L 147.64877 142.89482 
L 147.937206 136.016264 
L 148.225642 145.792834 
L 148.514078 143.945835 
L 148.802514 110.22173 
L 149.09095 132.417852 
L 149.379387 118.660739 
L 149.667823 139.805846 
L 149.956259 127.864009 
L 150.244695 94.617619 
L 150.533131 125.316404 
L 151.110003 142.958474 
L 151.398439 150.346677 
L 151.686875 125.06158 
L 151.975311 134.99718 
L 152.263747 131.207598 
L 152.552183 122.768798 
L 152.840619 139.296408 
L 153.129055 143.245228 
L 153.994363 158.976646 
L 154.282799 141.875736 
L 154.859671 148.276786 
L 155.436543 160.059384 
L 155.724979 163.848966 
L 156.013415 142.608275 
L 156.878723 162.129275 
L 157.167159 145.251465 
L 157.744031 161.30136 
L 158.032467 166.683117 
L 158.609339 148.5314 
L 158.897775 147.002879 
L 159.186211 141.111475 
L 159.474647 154.677627 
L 159.763083 160.314207 
L 160.051519 151.333829 
L 160.339955 156.23808 
L 160.628391 142.640206 
L 160.916827 111.463706 
L 161.493699 147.990032 
L 162.070571 161.365014 
L 162.647443 143.181575 
L 163.512751 164.29475 
L 164.089624 172.096805 
L 164.37806 174.103042 
L 164.666496 157.002341 
L 164.954932 95.636703 
L 165.243368 133.500589 
L 165.531804 147.257702 
L 166.108676 162.320444 
L 166.397112 159.963799 
L 166.685548 160.282276 
L 166.973984 119.870784 
L 167.839292 146.206687 
L 168.127728 143.691012 
L 168.416164 152.894282 
L 168.7046 153.085243 
L 168.993036 119.647892 
L 169.281472 124.520212 
L 169.858344 89.808953 
L 170.14678 121.463168 
L 171.300524 153.626612 
L 171.58896 140.82493 
L 171.877396 120.444084 
L 172.165832 139.805846 
L 172.454268 136.016264 
L 172.742704 145.187811 
L 173.03114 128.214208 
L 173.319576 136.430326 
L 173.608012 140.792999 
L 173.896448 139.296408 
L 174.184884 149.518762 
L 174.761756 160.091315 
L 175.627064 171.587368 
L 175.9155 158.530862 
L 176.780808 175.345018 
L 178.222988 189.834669 
L 178.511425 173.784565 
L 178.799861 182.064336 
L 179.376733 190.503345 
L 179.953605 196.617641 
L 180.242041 198.337332 
L 180.530477 177.192017 
L 180.818913 186.395287 
L 181.107349 175.918318 
L 181.395785 185.853918 
L 181.972657 193.783489 
L 182.261093 196.904186 
L 182.549529 197.413833 
L 183.126401 202.986759 
L 183.991709 209.355669 
L 184.280145 206.55324 
L 184.857017 211.521145 
L 185.433889 215.724788 
L 185.722325 214.928596 
L 186.299197 219.3232 
L 186.587633 199.897785 
L 187.164505 210.088208 
L 187.452941 212.667536 
L 187.741377 212.667536 
L 188.029813 215.692857 
L 188.318249 189.134062 
L 188.606685 188.114978 
L 188.895121 188.210563 
L 189.183557 193.815212 
L 189.471993 196.776879 
L 189.760429 188.656347 
L 190.048865 193.019229 
L 190.337301 187.191479 
L 190.914173 197.350179 
L 191.491045 203.432543 
L 191.779481 204.992996 
L 192.067917 186.554525 
L 192.644789 165.98251 
L 192.933226 175.854665 
L 193.221662 153.658543 
L 193.510098 171.300822 
L 193.798534 148.053685 
L 194.08697 136.557633 
L 194.375406 142.194213 
L 194.663842 133.30942 
L 194.952278 120.252915 
L 195.240714 119.393069 
L 195.52915 138.118086 
L 195.817586 117.35511 
L 196.106022 135.315657 
L 196.394458 128.373447 
L 196.682894 140.570107 
L 196.97133 113.119744 
L 197.259766 128.086901 
L 197.548202 118.11937 
L 197.836638 134.519673 
L 198.125074 143.340604 
L 198.41351 101.273283 
L 198.701946 110.731168 
L 198.990382 114.361511 
L 199.278818 115.953895 
L 199.567254 115.635418 
L 199.85569 122.068191 
L 200.144126 116.813741 
L 200.432562 124.806757 
L 200.720998 117.928201 
L 201.009434 126.048733 
L 201.29787 130.188723 
L 201.586306 114.138619 
L 201.874742 109.744015 
L 202.163178 116.877394 
L 202.451614 110.699445 
L 202.74005 115.09405 
L 203.028486 91.81519 
L 203.316922 121.813367 
L 203.893794 137.353825 
L 204.18223 134.519673 
L 204.470666 142.703859 
L 204.759102 130.124861 
L 205.047538 141.652844 
L 205.335974 145.028573 
L 205.62441 120.953522 
L 205.912846 139.200823 
L 206.489718 155.28265 
L 206.778154 159.549946 
L 207.06659 162.097552 
L 207.355026 166.651395 
L 207.643463 140.124323 
L 207.931899 154.167981 
L 208.220335 154.741281 
L 208.508771 159.549946 
L 208.797207 160.887299 
L 209.085643 153.945089 
L 209.374079 143.977558 
L 209.662515 152.830629 
L 209.950951 148.053685 
L 210.239387 156.938478 
L 210.527823 133.564243 
L 210.816259 137.576717 
L 211.104695 135.092765 
L 211.393131 119.711546 
L 211.681567 137.321894 
L 211.970003 115.348873 
L 212.258439 117.132218 
L 212.546875 129.679077 
L 212.835311 121.717783 
L 213.123747 125.571018 
L 213.412183 96.815026 
L 213.700619 126.908579 
L 214.277491 145.760903 
L 214.854363 157.225233 
L 216.008107 173.848428 
L 216.296543 165.664242 
L 216.584979 137.608648 
L 216.873415 152.130021 
L 217.161851 158.785686 
L 217.450287 160.282276 
L 217.738723 156.174218 
L 218.027159 155.027826 
L 218.315595 138.595801 
L 218.604031 142.958474 
L 219.180903 156.206149 
L 219.469339 98.439132 
L 219.757775 119.425 
L 220.046211 128.691924 
L 220.334647 97.228878 
L 220.911519 89.586061 
L 221.199955 109.998838 
L 221.488391 112.037006 
L 221.776827 111.782183 
L 222.065264 108.948032 
L 222.3537 109.4894 
L 222.930572 128.883093 
L 223.219008 95.38188 
L 223.507444 110.476553 
L 223.79588 112.259898 
L 224.084316 123.819604 
L 224.661188 116.622571 
L 224.949624 99.999376 
L 225.23806 121.526822 
L 225.526496 130.666229 
L 225.814932 110.189799 
L 226.103368 126.303556 
L 226.391804 133.723481 
L 226.68024 118.628808 
L 226.968676 132.990943 
L 227.545548 143.913904 
L 227.833984 138.786762 
L 228.12242 126.080664 
L 228.410856 136.844387 
L 228.699292 116.144856 
L 228.987728 135.825303 
L 229.276164 142.926751 
L 229.5646 145.72918 
L 229.853036 125.825841 
L 230.141472 83.631004 
L 230.429908 90.095708 
L 230.718344 93.407574 
L 231.00678 98.311616 
L 231.295216 82.898675 
L 231.583652 91.050929 
L 231.872088 107.132756 
L 232.160524 113.119744 
L 232.44896 122.768798 
L 233.025832 109.712292 
L 233.314268 117.641655 
L 233.602704 108.565693 
L 233.89114 117.100286 
L 234.179576 109.935184 
L 234.468012 115.635418 
L 234.756448 96.178072 
L 235.044884 121.749714 
L 235.33332 104.362258 
L 235.621756 126.844925 
L 235.910192 133.277697 
L 236.198628 81.847659 
L 236.487065 85.000288 
L 236.775501 114.011312 
L 237.352373 134.646981 
L 238.217681 149.041047 
L 238.794553 156.97041 
L 239.082989 159.486293 
L 239.371425 149.868961 
L 239.659861 150.569569 
L 240.236733 161.046537 
L 241.102041 172.797413 
L 241.390477 167.256417 
L 241.678913 143.659081 
L 241.967349 158.753754 
L 242.255785 164.804396 
L 242.544221 116.622571 
L 242.832657 141.429952 
L 243.121093 150.123784 
L 243.409529 141.047822 
L 243.697965 142.990405 
L 243.986401 150.919768 
L 244.274837 103.820889 
L 244.563273 103.375105 
L 244.851709 129.201361 
L 245.140145 138.022501 
L 245.428581 115.380595 
L 245.717017 134.583327 
L 246.005453 141.652844 
L 246.293889 123.182651 
L 246.582325 135.506826 
L 246.870761 92.101945 
L 247.159197 126.335488 
L 248.024505 148.5314 
L 248.312941 152.862351 
L 248.601377 101.241352 
L 248.889813 111.304468 
L 249.178249 130.443337 
L 249.466685 139.837777 
L 249.755121 119.202108 
L 250.043557 129.711008 
L 250.331993 129.392531 
L 250.620429 119.647892 
L 251.197302 139.646607 
L 252.06261 154.613973 
L 252.351046 142.417105 
L 252.639482 88.089262 
L 252.927918 126.271625 
L 253.50479 145.72918 
L 253.793226 151.301898 
L 254.081662 130.602576 
L 254.370098 132.959221 
L 254.658534 129.0104 
L 254.94697 139.105239 
L 255.235406 122.004537 
L 255.523842 139.837777 
L 256.100714 151.843267 
L 256.38915 155.696711 
L 256.677586 155.250718 
L 256.966022 102.865459 
L 257.254458 119.202108 
L 257.542894 112.928574 
L 257.83133 128.596339 
L 258.119766 127.004164 
L 258.408202 135.538549 
L 258.696638 102.801805 
L 258.985074 124.583865 
L 259.27351 133.245766 
L 259.561946 100.477091 
L 259.850382 128.4371 
L 260.138818 137.353825 
L 260.427254 138.150017 
L 260.71569 145.665318 
L 261.004126 112.514513 
L 261.292562 111.208883 
L 261.580998 122.004537 
L 261.869434 126.526448 
L 262.15787 111.304468 
L 262.446306 125.98508 
L 263.023178 139.328131 
L 263.311614 143.372535 
L 263.888486 75.733364 
L 264.753794 115.189634 
L 265.04223 125.63488 
L 265.907539 143.659081 
L 266.484411 115.380595 
L 266.772847 114.043243 
L 267.061283 127.418225 
L 267.349719 73.663474 
L 267.638155 114.552681 
L 267.926591 120.985453 
L 268.503463 72.166883 
L 268.791899 105.222104 
L 269.080335 103.566066 
L 269.368771 90.031845 
L 270.810951 127.609186 
L 271.099387 127.768424 
L 271.387823 126.303556 
L 271.676259 106.877932 
L 271.964695 108.247424 
L 272.253131 121.972606 
L 272.541567 128.405378 
L 272.830003 130.952984 
L 273.118439 138.022501 
L 273.406875 141.684775 
L 273.695311 124.074427 
L 273.983747 131.685313 
L 274.849055 88.598908 
L 275.137491 97.420048 
L 275.425927 101.750999 
L 275.714363 96.209794 
L 276.002799 113.533597 
L 276.291235 105.635956 
L 276.579671 81.943244 
L 276.868107 70.861045 
L 277.156543 100.795568 
L 277.444979 101.496175 
L 277.733415 86.847495 
L 278.021851 107.674124 
L 278.310287 111.750252 
L 278.598723 120.15733 
L 278.887159 125.316404 
L 279.175595 127.832078 
L 279.464031 131.366837 
L 279.752467 105.190172 
L 280.040903 119.9983 
L 280.32934 115.603487 
L 280.617776 125.316404 
L 280.906212 112.801267 
L 281.194648 128.691924 
L 281.483084 124.297319 
L 281.77152 115.316942 
L 282.059956 90.859969 
L 282.348392 113.852073 
L 282.636828 123.533059 
L 283.790572 141.429952 
L 284.079008 144.232381 
L 284.367444 69.842169 
L 284.65588 109.998838 
L 285.232752 130.698161 
L 285.521188 64.874683 
L 285.809624 92.547729 
L 286.09806 109.138992 
L 286.386496 107.164687 
L 286.674932 97.833901 
L 286.963368 104.362258 
L 287.251804 74.523319 
L 287.828676 75.319511 
L 288.117112 101.050391 
L 288.405548 108.470316 
L 288.693984 96.68751 
L 288.98242 111.718529 
L 289.559292 126.622033 
L 290.713036 143.149643 
L 291.001472 125.380057 
L 291.578344 139.360062 
L 291.86678 142.671928 
L 292.155216 133.500589 
L 292.443652 103.343174 
L 292.732088 124.010774 
L 293.885832 145.251465 
L 294.174268 148.308508 
L 294.462704 147.002879 
L 294.751141 151.270176 
L 295.039577 153.658543 
L 295.328013 149.805308 
L 295.616449 154.104327 
L 295.904885 152.926005 
L 296.770193 162.097552 
L 297.058629 151.397483 
L 297.347065 159.549946 
L 297.923937 166.396572 
L 298.500809 171.07793 
L 298.789245 153.913366 
L 299.366117 164.613227 
L 299.654553 167.479309 
L 299.942989 154.486458 
L 300.231425 161.30136 
L 300.519861 161.046537 
L 300.808297 129.679077 
L 301.096733 140.156254 
L 301.385169 98.502786 
L 301.673605 104.234951 
L 302.250477 125.825841 
L 302.827349 138.118086 
L 303.404221 146.46151 
L 303.692657 147.289424 
L 303.981093 145.72918 
L 304.269529 149.805308 
L 304.557965 146.174964 
L 304.846401 152.862351 
L 305.711709 163.753381 
L 306.000145 161.556183 
L 306.288581 165.122873 
L 306.577017 167.224486 
L 306.865453 143.436189 
L 307.153889 131.143945 
L 307.442325 141.589191 
L 308.019197 120.666976 
L 308.596069 140.060669 
L 309.172942 148.5314 
L 309.461378 149.805308 
L 309.749814 138.500216 
L 310.03825 138.404631 
L 310.326686 144.646443 
L 310.615122 136.812456 
L 310.903558 135.825303 
L 311.191994 133.500589 
L 311.768866 145.187811 
L 312.057302 146.302272 
L 312.345738 135.347588 
L 312.634174 142.703859 
L 312.92261 109.712292 
L 313.211046 115.380595 
L 313.499482 125.507364 
L 313.787918 123.501127 
L 314.076354 73.727127 
L 314.36479 96.146141 
L 314.653226 109.775946 
L 314.941662 101.814652 
L 315.230098 109.361885 
L 315.518534 67.804001 
L 315.80697 95.477465 
L 316.672278 123.278235 
L 317.537586 140.602038 
L 317.826022 131.430699 
L 318.114458 139.837777 
L 318.402894 140.060669 
L 318.69133 65.542524 
L 318.979766 101.241352 
L 319.556638 80.128177 
L 319.845074 44.843619 
L 320.13351 63.250993 
L 320.421946 95.127057 
L 321.57569 129.74273 
L 323.01787 152.130021 
L 323.306306 147.735417 
L 323.594742 153.594889 
L 323.883179 100.986738 
L 324.171615 105.444996 
L 324.748487 132.19496 
L 325.325359 143.149643 
L 325.613795 63.282299 
L 326.190667 110.763099 
L 326.479103 92.866205 
L 326.767539 96.910402 
L 327.055975 92.611382 
L 327.344411 112.291621 
L 327.632847 70.924907 
L 327.921283 102.101198 
L 328.209719 91.178445 
L 328.498155 109.775946 
L 328.786591 84.682019 
L 329.075027 94.617619 
L 329.363463 112.196245 
L 329.651899 84.904911 
L 329.940335 110.635792 
L 330.228771 106.909864 
L 330.805643 66.593956 
L 331.382515 106.46408 
L 331.670951 117.35511 
L 331.959387 123.023412 
L 332.247823 105.349411 
L 332.536259 120.444084 
L 332.824695 115.66735 
L 333.113131 127.290709 
L 334.843747 153.085243 
L 335.132183 155.728434 
L 335.420619 152.607737 
L 335.709055 159.0403 
L 335.997491 159.772838 
L 336.285927 164.135512 
L 336.574363 152.480221 
L 336.862799 97.738525 
L 338.016543 140.347215 
L 338.30498 145.442426 
L 338.593416 128.405378 
L 338.881852 139.264477 
L 339.458724 149.295661 
L 339.74716 152.416567 
L 340.035596 149.518762 
L 340.324032 127.067817 
L 340.900904 144.20045 
L 341.18934 149.83703 
L 341.477776 146.525164 
L 341.766212 134.201197 
L 342.054648 143.913904 
L 342.343084 145.983795 
L 342.63152 69.555415 
L 342.919956 109.584777 
L 343.208392 110.985991 
L 343.496828 124.552143 
L 343.785264 99.203393 
L 344.0737 120.985453 
L 344.362136 129.169639 
L 344.650572 132.19496 
L 345.51588 145.952072 
L 345.804316 149.582416 
L 346.092752 122.959759 
L 346.381188 138.340978 
L 346.669624 145.474357 
L 346.95806 116.845463 
L 347.246496 134.551396 
L 347.823368 146.46151 
L 348.111804 144.136796 
L 348.40024 69.555415 
L 348.977112 91.401337 
L 349.265548 98.247962 
L 349.553984 108.502039 
L 349.84242 85.732826 
L 350.419292 76.97534 
L 350.707728 54.556535 
L 351.2846 76.179357 
L 351.573036 42.009467 
L 351.861472 74.204842 
L 352.149908 86.242264 
L 352.438344 105.094588 
L 352.726781 116.144856 
L 353.015217 122.354736 
L 353.303653 109.234577 
L 353.592089 123.501127 
L 354.168961 137.353825 
L 354.457397 99.267046 
L 355.034269 123.501127 
L 355.611141 139.837777 
L 355.899577 114.074966 
L 356.188013 104.425912 
L 356.476449 123.787882 
L 356.764885 123.278235 
L 357.053321 135.061042 
L 357.341757 83.949481 
L 357.918629 106.65504 
L 358.207065 74.045604 
L 358.495501 84.87298 
L 359.072373 114.998465 
L 359.649245 82.739436 
L 359.937681 107.22834 
L 360.226117 103.438759 
L 360.514553 95.286295 
L 360.802989 111.941421 
L 361.379861 85.191457 
L 361.956733 115.571765 
L 362.245169 106.941795 
L 362.533605 89.649715 
L 362.822041 108.661277 
L 363.110477 118.310331 
L 363.398913 92.292905 
L 363.975785 116.081202 
L 364.552657 128.62827 
L 364.841093 77.070925 
L 365.129529 81.401875 
L 365.417965 105.094588 
L 365.706401 106.686972 
L 366.283273 119.488654 
L 366.860145 127.768424 
L 367.148581 125.602949 
L 367.437018 132.226682 
L 368.01389 109.425538 
L 368.302326 95.891526 
L 368.590762 110.22173 
L 368.879198 81.975175 
L 369.167634 112.037006 
L 369.744506 127.099748 
L 370.032942 125.602949 
L 370.321378 87.707132 
L 370.609814 109.234577 
L 370.89825 73.313274 
L 371.186686 82.866743 
L 371.475122 88.726216 
L 371.763558 103.375105 
L 372.34043 119.138454 
L 373.205738 133.500589 
L 374.071046 144.932988 
L 374.359482 145.251465 
L 374.647918 147.576179 
L 374.936354 136.303018 
L 375.22479 102.833736 
L 375.513226 89.044693 
L 375.801662 112.323552 
L 376.378534 130.156792 
L 377.243842 142.703859 
L 377.532278 143.977558 
L 377.820714 147.194048 
L 378.10915 140.63376 
L 378.397586 146.015726 
L 378.686022 143.945835 
L 378.974458 135.857026 
L 379.55133 144.710096 
L 379.839766 140.028738 
L 380.128202 142.926751 
L 380.416638 148.849877 
L 380.99351 154.964173 
L 381.281946 156.651933 
L 381.570382 141.143407 
L 381.858819 141.939599 
L 382.147255 110.444622 
L 382.435691 134.201197 
L 382.724127 78.058078 
L 383.012563 109.011685 
L 383.589435 126.017011 
L 383.877871 128.086901 
L 384.166307 97.706594 
L 384.454743 110.985991 
L 384.743179 103.152213 
L 385.031615 114.106897 
L 385.320051 119.361346 
L 385.608487 113.852073 
L 385.896923 121.208345 
L 386.185359 102.833736 
L 386.473795 114.90288 
L 387.050667 126.399141 
L 387.339103 126.112387 
L 387.627539 126.017011 
L 387.915975 123.023412 
L 388.204411 88.853732 
L 388.492847 101.814652 
L 388.781283 100.763637 
L 389.069719 113.629181 
L 389.646591 126.590102 
L 389.935027 125.093511 
L 390.223463 129.997553 
L 390.511899 130.093138 
L 390.800335 135.220281 
L 391.088771 138.181739 
L 391.377207 128.182486 
L 391.665643 129.137708 
L 391.954079 62.007139 
L 392.242515 96.400964 
L 392.530951 88.8218 
L 392.819387 71.975713 
L 393.107823 96.178072 
L 393.396259 87.006524 
L 393.684695 100.031307 
L 393.973131 75.319511 
L 394.261567 94.07625 
L 394.550003 74.300427 
L 395.126875 102.610844 
L 395.415311 81.815937 
L 395.703747 99.999376 
L 395.992183 103.056628 
L 396.280619 110.763099 
L 396.569056 109.680361 
L 396.857492 105.667888 
L 397.145928 104.58515 
L 397.434364 84.968565 
L 397.7228 102.292367 
L 398.011236 73.40865 
L 398.299672 87.930232 
L 398.588108 85.44628 
L 398.876544 97.45177 
L 399.453416 108.788793 
L 399.741852 69.651 
L 400.030288 95.509187 
L 400.318724 100.763637 
L 400.60716 76.529556 
L 400.895596 67.135325 
L 401.184032 88.789869 
L 401.760904 108.438385 
L 402.04934 114.839226 
L 402.337776 94.904165 
L 402.626212 101.273283 
L 402.914648 104.362258 
L 403.203084 115.157703 
L 403.49152 65.542524 
L 403.779956 79.554877 
L 404.356828 42.295387 
L 404.645264 32.582471 
L 404.9337 82.452682 
L 405.222136 64.620068 
L 405.510572 67.358217 
L 405.799008 89.840885 
L 406.087444 99.935723 
L 406.37588 98.630093 
L 406.664316 77.293817 
L 406.952752 75.988187 
L 407.241188 51.340462 
L 407.529624 59.684304 
L 407.81806 84.458919 
L 408.106496 46.243998 
L 408.394932 79.077162 
L 408.683368 91.560576 
L 410.125548 121.271999 
L 410.70242 129.105985 
L 410.990857 130.475269 
L 411.279293 113.565528 
L 411.567729 127.32264 
L 411.856165 121.494891 
L 412.144601 124.552143 
L 412.721473 138.946 
L 413.298345 146.493441 
L 414.452089 157.288886 
L 414.740525 155.951326 
L 415.317397 161.587906 
L 415.605833 160.282276 
L 415.894269 161.333291 
L 416.182705 164.358404 
L 416.471141 131.207598 
L 417.048013 148.021963 
L 417.336449 152.862351 
L 417.624885 152.09809 
L 417.913321 153.40372 
L 418.201757 86.242264 
L 418.490193 110.476553 
L 418.778629 121.431237 
L 419.067065 71.72089 
L 419.355501 70.160437 
L 420.220809 106.65504 
L 420.509245 103.056628 
L 420.797681 113.087813 
L 421.086117 100.795568 
L 421.374553 106.209256 
L 421.662989 113.852073 
L 421.951425 125.316404 
L 422.239861 130.5072 
L 422.528297 118.947285 
L 423.105169 134.296781 
L 423.393605 137.608648 
L 423.682041 137.895194 
L 423.970477 136.780525 
L 424.258913 95.158988 
L 424.547349 90.095708 
L 424.835785 93.375643 
L 425.124221 78.28097 
L 425.412658 97.64294 
L 425.701094 61.72122 
L 425.98953 64.77868 
L 426.854838 107.419301 
L 427.143274 115.635418 
L 427.43171 102.610844 
L 427.720146 98.534508 
L 428.297018 119.202108 
L 428.87389 130.793745 
L 429.162326 132.417852 
L 429.450762 137.353825 
L 429.739198 98.502786 
L 430.027634 85.573588 
L 430.31607 84.172373 
L 430.604506 110.540207 
L 430.892942 118.374194 
L 431.181378 106.65504 
L 431.469814 84.87298 
L 431.75825 94.681273 
L 432.046686 87.48424 
L 432.335122 101.01846 
L 432.623558 85.509934 
L 432.911994 52.995456 
L 433.20043 38.284165 
L 433.488866 39.461236 
L 433.777302 50.703926 
L 434.065738 71.91206 
L 434.354174 66.562025 
L 434.64261 26.692946 
L 434.931046 76.97534 
L 435.507918 53.7593 
L 436.08479 75.446818 
L 436.373226 94.362796 
L 436.661662 102.356021 
L 436.950098 74.013881 
L 437.238534 96.910402 
L 437.52697 85.478003 
L 437.815406 101.082114 
L 438.103842 105.827126 
L 438.680714 67.071463 
L 438.96915 71.402413 
L 439.257586 89.331238 
L 439.834458 99.426285 
L 440.411331 115.603487 
L 440.988203 125.348126 
L 441.276639 126.239903 
L 441.565075 115.221357 
L 441.853511 98.184309 
L 442.141947 115.603487 
L 442.430383 124.329042 
L 442.718819 95.445534 
L 443.007255 111.049645 
L 443.295691 49.428766 
L 443.584127 96.68751 
L 443.872563 111.240814 
L 444.160999 92.101945 
L 444.449435 89.808953 
L 444.737871 108.629555 
L 445.026307 116.144856 
L 445.314743 110.22173 
L 445.891615 123.278235 
L 446.180051 118.214955 
L 446.468487 89.617992 
L 446.756923 113.756489 
L 447.045359 121.240067 
L 447.333795 111.304468 
L 447.622231 129.105985 
L 448.199103 138.627523 
L 448.487539 141.939599 
L 448.775975 139.328131 
L 449.064411 113.756489 
L 449.352847 130.984706 
L 449.929719 142.926751 
L 450.506591 148.881808 
L 451.083463 152.639459 
L 451.371899 146.493441 
L 451.660335 127.927663 
L 451.948771 138.882346 
L 452.237207 144.264312 
L 452.525643 145.665318 
L 452.814079 128.373447 
L 453.390951 142.480967 
L 453.679387 146.238618 
L 453.967823 139.360062 
L 454.544696 147.544248 
L 455.986876 158.212386 
L 456.275312 159.709185 
L 456.563748 159.0403 
L 456.852184 161.046537 
L 457.429056 121.017175 
L 457.717492 112.068729 
L 458.005928 58.442536 
L 458.294364 103.916474 
L 458.5828 78.599447 
L 458.871236 99.776484 
L 459.159672 111.782183 
L 459.448108 117.35511 
L 460.02498 124.870411 
L 460.313416 123.118997 
L 461.178724 136.079918 
L 462.332468 147.512316 
L 462.620904 149.295661 
L 462.90934 145.920141 
L 463.197776 147.289424 
L 463.486212 86.911148 
L 463.774648 113.406289 
L 464.063084 123.755951 
L 464.35152 126.303556 
L 464.639956 82.420959 
L 464.928392 105.094588 
L 465.216828 110.954269 
L 465.505264 114.138619 
L 465.7937 68.568262 
L 466.370572 93.853358 
L 466.659008 91.878844 
L 467.23588 108.9161 
L 467.812752 120.252915 
L 468.101188 97.706594 
L 468.389624 104.362258 
L 468.67806 108.183562 
L 469.254933 122.99169 
L 469.831805 128.914816 
L 470.120241 125.284472 
L 470.408677 130.730092 
L 470.697113 128.819231 
L 470.985549 132.736329 
L 471.273985 129.169639 
L 471.562421 134.487742 
L 471.850857 136.812456 
L 472.139293 123.501127 
L 472.427729 122.768798 
L 472.716165 104.425912 
L 473.004601 112.896643 
L 473.293037 101.782721 
L 473.869909 118.947285 
L 474.446781 127.67284 
L 475.312089 135.57048 
L 475.600525 138.118086 
L 475.888961 65.765833 
L 476.177397 78.85427 
L 476.465833 100.063238 
L 476.754269 91.847121 
L 477.042705 105.859057 
L 477.331141 105.89078 
L 477.619577 116.336026 
L 477.908013 109.966907 
L 478.196449 55.92561 
L 478.484885 50.797841 
L 478.773321 51.213155 
L 479.061757 42.487391 
L 479.350193 70.383538 
L 479.927065 99.744762 
L 480.503937 114.90288 
L 480.792373 116.877394 
L 481.080809 103.820889 
L 481.369245 83.440043 
L 481.657681 106.241188 
L 481.946117 77.739601 
L 482.234553 80.860507 
L 482.522989 103.056628 
L 483.099861 119.138454 
L 483.388297 114.616334 
L 483.676734 122.227429 
L 483.96517 119.456931 
L 484.542042 132.449574 
L 484.830478 136.748802 
L 485.118914 86.719979 
L 485.40735 87.006524 
L 485.695786 105.572303 
L 486.561094 127.577255 
L 486.84953 132.927289 
L 487.137966 133.978305 
L 487.426402 138.659454 
L 487.714838 140.697623 
L 488.003274 144.710096 
L 488.29171 144.232381 
L 488.868582 152.130021 
L 490.310762 164.740743 
L 491.464506 172.76569 
L 492.61825 179.962723 
L 492.906686 143.181575 
L 493.195122 154.996104 
L 493.483558 160.027662 
L 493.771994 160.314207 
L 494.06043 151.333829 
L 494.637302 143.117712 
L 494.925738 150.0282 
L 495.214174 150.314745 
L 495.791046 145.474357 
L 496.367918 153.149105 
L 496.656354 151.970783 
L 496.94479 120.985453 
L 497.233226 127.131471 
L 497.521662 114.106897 
L 497.810098 129.233292 
L 498.098535 129.870246 
L 498.386971 131.494353 
L 498.675407 138.150017 
L 498.963843 59.619607 
L 499.252279 103.056628 
L 499.540715 115.348873 
L 499.829151 112.355274 
L 500.406023 127.386294 
L 500.694459 129.647354 
L 500.982895 134.487742 
L 501.271331 130.475269 
L 501.559767 114.361511 
L 501.848203 42.009467 
L 502.425075 95.158988 
L 502.713511 104.043781 
L 503.001947 43.28254 
L 503.290383 83.981412 
L 503.578819 95.923249 
L 503.867255 102.610844 
L 504.444127 118.788046 
L 504.732563 124.233666 
L 505.309435 34.302162 
L 505.597871 74.459666 
L 505.886307 91.464991 
L 506.174743 48.506311 
L 506.463179 65.479914 
L 506.751615 55.065764 
L 507.040051 85.414349 
L 507.328487 71.434345 
L 507.616923 91.305753 
L 507.905359 102.32409 
L 508.193795 94.490312 
L 508.482231 90.859969 
L 508.770667 103.852612 
L 509.059103 70.415261 
L 509.347539 92.643313 
L 509.635975 63.472216 
L 509.924411 74.17312 
L 510.212847 97.45177 
L 510.501283 99.489939 
L 510.789719 107.164687 
L 511.078155 99.680899 
L 511.366591 98.247962 
L 511.943463 86.688256 
L 512.231899 85.000288 
L 512.520335 102.32409 
L 512.808772 111.336399 
L 513.097208 67.03974 
L 513.962516 92.38849 
L 514.250952 105.922711 
L 514.539388 91.337475 
L 515.693132 122.513975 
L 516.270004 131.143945 
L 516.55844 124.520212 
L 516.846876 125.157165 
L 517.135312 132.895567 
L 517.712184 135.984542 
L 518.00062 137.608648 
L 518.577492 147.862724 
L 518.865928 145.283188 
L 519.154364 150.346677 
L 519.4428 137.608648 
L 519.731236 148.626985 
L 520.019672 125.794119 
L 520.308108 87.261348 
L 520.596544 70.956629 
L 520.88498 73.822712 
L 521.461852 105.190172 
L 521.750288 110.79503 
L 522.038724 85.478003 
L 522.32716 81.147052 
L 522.615596 100.254199 
L 522.904032 70.670084 
L 523.192468 87.930232 
L 523.76934 108.247424 
L 524.057776 70.924907 
L 524.346212 90.891691 
L 524.923084 112.037006 
L 525.21152 100.668261 
L 525.788392 113.852073 
L 526.076828 115.508111 
L 526.6537 127.545532 
L 526.942136 114.297858 
L 527.230573 124.838688 
L 527.519009 105.635956 
L 527.807445 113.820142 
L 528.095881 114.361511 
L 528.384317 67.294564 
L 528.672753 70.096784 
L 528.961189 99.203393 
L 529.249625 110.79503 
L 529.538061 111.017922 
L 529.826497 77.262094 
L 530.691805 109.680361 
L 530.980241 102.101198 
L 531.268677 104.935349 
L 531.557113 99.075877 
L 531.845549 56.403534 
L 532.133985 85.159526 
L 532.422421 64.204754 
L 532.710857 98.02507 
L 532.999293 110.476553 
L 533.287729 108.53397 
L 533.576165 118.214955 
L 533.864601 117.132218 
L 534.153037 76.784379 
L 534.441473 81.083399 
L 534.729909 97.356394 
L 535.306781 48.919537 
L 535.883653 99.712831 
L 536.172089 104.903627 
L 536.460525 105.444996 
L 536.748961 112.10066 
L 537.037397 103.788958 
L 537.325833 85.478003 
L 537.614269 109.234577 
L 537.902705 111.750252 
L 538.191141 94.681273 
L 538.479577 69.045977 
L 538.768013 104.107435 
L 539.056449 79.777769 
L 539.344885 109.712292 
L 539.921757 126.112387 
L 540.498629 136.52591 
L 541.075501 144.168727 
L 541.363937 143.436189 
L 541.94081 149.263939 
L 542.229246 148.563332 
L 542.517682 143.022336 
L 542.806118 151.238245 
L 543.094554 154.422804 
L 543.38299 153.881435 
L 543.959862 70.160437 
L 544.248298 93.407574 
L 544.536734 103.375105 
L 544.82517 79.045439 
L 545.113606 105.954433 
L 545.690478 122.99169 
L 545.978914 98.789331 
L 546.844222 126.590102 
L 547.132658 131.494353 
L 547.421094 131.685313 
L 547.997966 140.442799 
L 548.286402 143.754666 
L 548.574838 117.35511 
L 548.863274 123.023412 
L 549.15171 120.221192 
L 549.728582 137.767886 
L 550.017018 142.958474 
L 550.305454 144.805681 
L 551.170762 101.01846 
L 551.459198 115.380595 
L 551.747634 89.808953 
L 552.324506 115.890242 
L 552.612942 53.727995 
L 553.189814 107.164687 
L 553.766686 123.469405 
L 554.343558 133.245766 
L 554.631994 136.589564 
L 554.92043 135.506826 
L 555.208866 140.124323 
L 555.497302 138.882346 
L 555.785738 142.926751 
L 556.074174 143.404467 
L 556.362611 129.201361 
L 556.651047 101.814652 
L 556.939483 110.22173 
L 557.227919 123.787882 
L 557.516355 128.62827 
L 557.804791 121.176414 
L 558.381663 135.506826 
L 558.670099 134.041958 
L 558.958535 139.901431 
L 559.246971 142.162491 
L 559.535407 143.149643 
L 560.977587 152.130021 
L 561.266023 144.232381 
L 561.554459 130.825468 
L 561.842895 97.483702 
L 562.131331 121.144691 
L 562.708203 136.048195 
L 562.996639 140.47473 
L 563.285075 130.411615 
L 563.573511 137.958847 
L 564.438819 147.576179 
L 564.727255 149.773377 
L 565.015691 97.005986 
L 565.304127 121.208345 
L 565.880999 136.589564 
L 566.457871 144.264312 
L 566.746307 140.124323 
L 567.034743 114.393442 
L 567.323179 122.99169 
L 567.611615 121.049107 
L 568.188487 127.004164 
L 568.476923 109.234577 
L 568.765359 124.583865 
L 569.053795 129.679077 
L 569.342231 131.494353 
L 569.630667 132.035721 
L 569.919103 114.361511 
L 570.207539 105.381342 
L 570.495975 117.864547 
L 570.784412 95.509187 
L 571.072848 114.584612 
L 571.361284 122.577628 
L 571.64972 126.017011 
L 571.938156 116.654502 
L 572.226592 118.11937 
L 572.515028 121.590475 
L 572.803464 127.864009 
L 574.245644 144.741819 
L 574.53408 140.856861 
L 574.822516 146.334203 
L 575.110952 141.366299 
L 575.399388 42.646004 
L 575.687824 95.509187 
L 575.97626 111.845837 
L 576.264696 75.191995 
L 576.553132 96.209794 
L 576.841568 92.611382 
L 577.130004 30.608165 
L 577.41844 85.732826 
L 577.706876 90.3186 
L 577.995312 60.416842 
L 578.283748 86.337848 
L 578.572184 97.738525 
L 579.149056 107.164687 
L 579.437492 107.196409 
L 579.725928 108.215493 
L 580.3028 121.68606 
L 580.591236 83.025982 
L 580.879672 107.928948 
L 581.168108 117.386832 
L 581.74498 34.907393 
L 582.033416 81.369944 
L 582.321852 102.578913 
L 582.610288 91.81519 
L 582.898724 107.769709 
L 583.475596 123.819604 
L 583.764032 128.914816 
L 584.052468 107.865294 
L 584.340904 119.520585 
L 584.62934 119.966369 
L 585.206212 130.188723 
L 585.494649 134.83815 
L 585.783085 136.334741 
L 586.071521 140.761276 
L 586.359957 143.436189 
L 586.648393 108.183562 
L 586.936829 124.074427 
L 587.225265 131.685313 
L 587.513701 98.980501 
L 587.802137 123.533059 
L 588.090573 122.482043 
L 588.379009 42.518696 
L 588.667445 99.3307 
L 588.955881 90.541492 
L 589.244317 97.483702 
L 589.532753 56.244921 
L 589.821189 79.395639 
L 590.109625 64.809985 
L 590.398061 93.152751 
L 590.974933 116.399679 
L 591.551805 128.182486 
L 591.840241 104.712457 
L 592.128677 102.546982 
L 592.417113 116.718156 
L 592.993985 129.5837 
L 593.282421 92.897928 
L 593.570857 121.781436 
L 593.859293 129.392531 
L 594.147729 133.022874 
L 594.436165 128.883093 
L 594.724601 100.540745 
L 595.013037 57.645301 
L 595.589909 111.017922 
L 595.878345 121.972606 
L 596.166781 117.896478 
L 596.455217 121.717783 
L 596.743653 123.469405 
L 597.032089 107.737778 
L 597.320525 120.252915 
L 597.897397 133.214044 
L 598.185833 137.353825 
L 598.474269 134.742565 
L 598.762705 120.475807 
L 599.051141 133.500589 
L 599.628013 144.264312 
L 599.91645 146.302272 
L 600.204886 125.602949 
L 600.493322 52.486227 
L 600.781758 99.776484 
L 601.070194 83.631004 
L 601.35863 91.624229 
L 601.647066 76.848033 
L 601.935502 89.554339 
L 602.223938 108.948032 
L 602.80081 124.583865 
L 603.089246 115.062118 
L 603.377682 84.363543 
L 603.954554 117.864547 
L 604.24299 89.586061 
L 604.531426 77.803463 
L 605.108298 115.157703 
L 605.396734 112.037006 
L 605.68517 113.852073 
L 605.973606 83.91755 
L 606.262042 83.153289 
L 606.550478 87.102109 
L 606.838914 109.457469 
L 607.12735 113.533597 
L 607.415786 114.679988 
L 607.704222 108.247424 
L 607.992658 114.871158 
L 608.281094 66.848571 
L 608.857966 112.992228 
L 609.146402 104.903627 
L 609.723274 125.284472 
L 610.300146 132.035721 
L 610.588582 128.883093 
L 611.45389 138.372909 
L 611.742326 103.852612 
L 612.030762 130.984706 
L 612.319198 138.340978 
L 612.607634 135.761649 
L 612.89607 104.903627 
L 613.184506 122.227429 
L 613.472942 125.571018 
L 613.761378 116.43161 
L 614.049814 94.139904 
L 614.33825 119.393069 
L 614.626687 129.965831 
L 614.915123 119.934438 
L 615.203559 130.411615 
L 615.491995 136.016264 
L 615.780431 127.386294 
L 616.068867 136.398394 
L 616.357303 89.808953 
L 616.934175 125.380057 
L 617.222611 130.411615 
L 617.511047 118.724393 
L 617.799483 80.319138 
L 618.087919 92.675036 
L 618.376355 113.087813 
L 618.664791 104.871696 
L 618.953227 112.291621 
L 619.241663 123.501127 
L 619.530099 107.132756 
L 619.818535 102.992975 
L 620.106971 95.031681 
L 620.395407 95.38188 
L 620.683843 120.953522 
L 620.972279 91.337475 
L 621.549151 122.80052 
L 621.837587 127.864009 
L 622.126023 125.157165 
L 622.414459 132.768051 
L 622.702895 136.048195 
L 622.991331 134.487742 
L 623.279767 119.520585 
L 623.568203 130.730092 
L 623.856639 134.360435 
L 624.433511 144.550858 
L 624.721947 143.245228 
L 625.010383 116.240441 
L 625.298819 117.068355 
L 625.587255 136.334741 
L 625.875691 131.940137 
L 626.164127 137.863262 
L 626.452563 93.598535 
L 626.740999 111.559291 
L 627.029435 116.941048 
L 627.317871 118.788046 
L 627.606307 129.169639 
L 628.471615 146.047448 
L 628.760051 132.990943 
L 629.048488 113.884005 
L 629.336924 118.151093 
L 629.62536 129.201361 
L 630.202232 135.984542 
L 630.490668 128.564616 
L 630.779104 137.321894 
L 631.355976 125.093511 
L 631.644412 111.782183 
L 631.932848 129.647354 
L 632.221284 135.506826 
L 632.50972 134.551396 
L 632.798156 139.869499 
L 633.086592 140.856861 
L 633.375028 133.500589 
L 633.663464 75.064688 
L 633.9519 66.11645 
L 634.240336 51.02115 
L 634.528772 79.873354 
L 634.817208 84.363543 
L 635.105644 108.661277 
L 635.39408 120.794283 
L 636.259388 136.844387 
L 636.83626 143.977558 
L 637.124696 143.722943 
L 637.701568 150.6015 
L 638.27844 154.741281 
L 638.566876 90.923622 
L 638.855312 115.571765 
L 639.143748 108.852447 
L 639.432184 71.402413 
L 640.009056 116.686225 
L 640.297492 126.844925 
L 640.585928 130.952984 
L 640.874364 136.87611 
L 641.1628 122.036259 
L 641.451236 131.207598 
L 641.739672 135.252003 
L 642.028108 125.539296 
L 642.316544 135.825303 
L 642.60498 141.143407 
L 642.893416 144.009489 
L 643.470289 90.3186 
L 644.335597 129.424462 
L 645.200905 142.162491 
L 645.489341 127.577255 
L 645.777777 119.202108 
L 646.354649 136.621286 
L 646.643085 108.9161 
L 646.931521 109.521123 
L 647.219957 90.605145 
L 647.508393 116.877394 
L 647.796829 127.864009 
L 648.085265 134.296781 
L 648.373701 122.068191 
L 648.950573 136.589564 
L 649.239009 137.385756 
L 649.527445 126.112387 
L 649.815881 132.672675 
L 650.104317 114.648265 
L 650.392753 111.559291 
L 650.681189 126.430864 
L 651.258061 137.863262 
L 651.546497 141.429952 
L 651.834933 143.213297 
L 652.123369 128.118624 
L 652.411805 136.557633 
L 652.988677 145.474357 
L 653.277113 147.385009 
L 653.565549 147.990032 
L 653.853985 146.811918 
L 654.142421 146.46151 
L 654.430857 151.429414 
L 655.296165 157.798324 
L 655.584601 157.511778 
L 655.873037 154.741281 
L 656.161473 156.811171 
L 656.449909 143.754666 
L 656.738345 138.309255 
L 657.026781 145.665318 
L 657.315217 149.868961 
L 657.892089 154.390873 
L 658.468962 157.798324 
L 658.757398 157.034063 
L 659.045834 159.072231 
L 659.33427 158.530862 
L 659.622706 94.936096 
L 659.911142 99.075877 
L 660.488014 111.017922 
L 660.77645 96.464618 
L 661.064886 105.15845 
L 661.353322 120.985453 
L 661.930194 133.787135 
L 662.507066 140.920515 
L 662.795502 142.385383 
L 663.083938 142.703859 
L 663.372374 142.194213 
L 663.949246 149.550485 
L 664.237682 149.168354 
L 664.526118 153.467373 
L 665.10299 158.244317 
L 665.391426 142.608275 
L 665.679862 151.397483 
L 665.968298 147.576179 
L 666.54517 156.492694 
L 666.833606 159.23147 
L 667.122042 131.048569 
L 667.410478 141.429952 
L 667.98735 152.193675 
L 668.564222 157.225233 
L 668.852658 101.496175 
L 669.141094 129.169639 
L 669.42953 137.83154 
L 669.717966 140.442799 
L 670.294838 149.263939 
L 670.87171 154.932242 
L 671.160146 156.460972 
L 671.448582 151.365761 
L 671.737018 116.113134 
L 672.025454 94.617619 
L 672.31389 85.191457 
L 672.602327 112.450859 
L 672.890763 114.807504 
L 673.179199 126.685687 
L 673.756071 138.372909 
L 674.332943 146.015726 
L 675.198251 154.645696 
L 675.486687 146.047448 
L 675.775123 152.798697 
L 676.063559 156.429041 
L 676.351995 142.226144 
L 676.640431 153.149105 
L 676.928867 133.723481 
L 677.217303 130.156792 
L 677.505739 72.899213 
L 677.794175 84.841258 
L 678.082611 102.037544 
L 678.371047 87.006524 
L 678.659483 114.584612 
L 678.947919 125.602949 
L 679.236355 114.839226 
L 679.524791 43.092622 
L 679.813227 96.974264 
L 680.101663 106.432148 
L 680.390099 109.616708 
L 680.966971 122.036259 
L 681.255407 111.017922 
L 681.543843 119.807131 
L 681.832279 124.806757 
L 682.120715 136.812456 
L 682.409151 143.245228 
L 682.697587 142.51269 
L 682.986023 141.334367 
L 683.274459 135.124696 
L 683.562895 145.760903 
L 684.139767 155.47361 
L 684.716639 161.842729 
L 685.293511 167.256417 
L 685.581947 147.671555 
L 685.870383 150.537637 
L 686.158819 159.0403 
L 686.447255 162.638921 
L 686.735691 160.855576 
L 687.024127 135.825303 
L 687.312564 60.160141 
L 687.601 99.999376 
L 687.889436 66.307202 
L 688.177872 82.452682 
L 688.466308 110.763099 
L 688.754744 88.789869 
L 689.620052 127.67284 
L 689.908488 81.656699 
L 690.196924 119.233831 
L 690.48536 130.443337 
L 690.773796 120.475807 
L 691.350668 140.602038 
L 691.639104 125.093511 
L 691.92754 128.405378 
L 692.215976 128.596339 
L 692.504412 136.048195 
L 692.792848 121.176414 
L 693.36972 143.977558 
L 693.946592 154.35915 
L 694.235028 157.193302 
L 694.523464 149.518762 
L 694.8119 151.588653 
L 695.100336 148.818155 
L 695.388772 154.932242 
L 695.677208 155.983257 
L 695.965644 158.339693 
L 696.25408 162.416029 
L 696.542516 163.626074 
L 696.830952 157.575432 
L 697.119388 134.519673 
L 697.407824 153.658543 
L 697.69626 156.811171 
L 697.984696 149.518762 
L 698.561568 161.110399 
L 699.13844 166.396572 
L 699.426876 168.43474 
L 700.003748 110.826753 
L 700.292184 103.566066 
L 700.58062 102.515259 
L 700.869056 105.126519 
L 701.157492 129.169639 
L 701.445928 96.305379 
L 701.734365 115.794657 
L 702.022801 100.031307 
L 702.311237 128.691924 
L 702.599673 134.424089 
L 703.176545 149.359524 
L 703.464981 153.085243 
L 703.753417 146.970948 
L 704.041853 111.208883 
L 704.330289 122.545906 
L 704.618725 139.582954 
L 704.907161 146.811918 
L 705.195597 150.856114 
L 705.484033 136.621286 
L 705.772469 137.385756 
L 706.060905 152.862351 
L 706.349341 158.276039 
L 706.637777 158.785686 
L 706.926213 161.30136 
L 707.214649 162.288513 
L 708.079957 169.230723 
L 708.368393 170.026915 
L 708.656829 172.096805 
L 708.945265 167.447587 
L 709.233701 147.448663 
L 709.522137 159.072231 
L 709.810573 154.422804 
L 710.099009 154.932242 
L 710.387445 153.085243 
L 710.675881 159.804561 
L 710.964317 136.844387 
L 711.252753 130.793745 
L 711.829625 149.550485 
L 712.694933 158.690101 
L 712.983369 86.17861 
L 713.560241 124.806757 
L 714.137113 143.913904 
L 714.425549 149.041047 
L 714.713985 151.079006 
L 715.002421 151.174591 
L 715.290857 145.028573 
L 715.867729 123.055343 
L 716.156166 143.754666 
L 716.444602 124.743104 
L 717.021474 144.964711 
L 717.598346 153.117174 
L 717.886782 155.155342 
L 718.175218 152.639459 
L 718.75209 159.581669 
L 719.040526 160.855576 
L 719.328962 167.160832 
L 719.905834 171.045999 
L 720.19427 172.797413 
L 720.482706 173.593605 
L 720.771142 172.574521 
L 721.059578 171.07793 
L 721.348014 142.863098 
L 721.63645 97.674662 
L 721.924886 105.763472 
L 722.213322 104.521496 
L 722.501758 126.36721 
L 723.07863 142.89482 
L 723.655502 151.938852 
L 723.943938 151.588653 
L 724.232374 155.218996 
L 724.52081 138.595801 
L 724.809246 148.626985 
L 725.097682 148.977393 
L 725.386118 124.456558 
L 725.674554 114.202481 
L 725.96299 134.678912 
L 726.251426 126.303556 
L 726.828298 145.219534 
L 727.116734 148.818155 
L 727.40517 150.537637 
L 727.693606 153.754128 
L 727.982042 154.70935 
L 728.270478 158.276039 
L 728.558914 159.327054 
L 728.84735 157.830255 
L 729.135786 143.786597 
L 729.424222 111.782183 
L 729.712658 116.081202 
L 730.001094 134.328504 
L 730.28953 123.023412 
L 730.577966 139.5193 
L 730.866403 143.627359 
L 731.154839 118.46957 
L 731.443275 139.168892 
L 731.731711 144.678165 
L 732.308583 150.537637 
L 732.597019 151.047284 
L 732.885455 152.384636 
L 733.173891 140.856861 
L 733.462327 150.283023 
L 733.750763 143.977558 
L 734.039199 152.862351 
L 734.616071 97.993139 
L 734.904507 129.137708 
L 735.192943 140.347215 
L 735.481379 142.703859 
L 735.769815 114.584612 
L 736.346687 140.856861 
L 736.635123 129.647354 
L 736.923559 133.69155 
L 737.211995 142.926751 
L 737.500431 137.799609 
L 738.077303 77.803463 
L 738.654175 112.132382 
L 738.942611 60.638065 
L 739.231047 116.113134 
L 739.519483 129.137708 
L 739.807919 97.993139 
L 740.096355 111.017922 
L 740.384791 78.090009 
L 741.250099 131.016637 
L 741.538535 114.043243 
L 742.115407 135.57048 
L 742.403843 141.621122 
L 742.692279 142.257867 
L 742.980715 141.429952 
L 743.269151 137.130933 
L 743.846023 144.77375 
L 744.134459 135.857026 
L 744.422895 148.021963 
L 744.711331 146.779987 
L 744.999767 137.608648 
L 745.288204 149.327592 
L 745.57664 155.218996 
L 745.865076 139.13717 
L 746.153512 152.416567 
L 746.441948 139.13717 
L 746.730384 150.888045 
L 747.595692 159.932077 
L 747.884128 161.779075 
L 748.172564 160.887299 
L 748.461 162.60699 
L 748.749436 160.823645 
L 749.037872 137.799609 
L 749.326308 149.232008 
L 749.614744 150.314745 
L 749.90318 156.492694 
L 750.480052 161.619837 
L 750.768488 163.626074 
L 751.056924 97.228878 
L 751.34536 128.118624 
L 752.210668 143.436189 
L 752.499104 135.029111 
L 752.78754 132.640744 
L 753.075976 140.888583 
L 753.364412 134.010027 
L 753.652848 139.805846 
L 753.941284 133.564243 
L 754.22972 144.232381 
L 754.518156 128.62827 
L 754.806592 119.170177 
L 755.095028 136.844387 
L 755.6719 117.673586 
L 755.960336 134.774288 
L 756.248772 132.959221 
L 756.537208 121.463168 
L 756.825644 137.576717 
L 757.402516 148.276786 
L 757.690952 87.86637 
L 757.979388 62.453758 
L 758.267824 113.469943 
L 758.55626 133.277697 
L 759.133132 107.164687 
L 759.421568 121.749714 
L 759.710005 125.316404 
L 759.998441 118.915562 
L 760.286877 136.334741 
L 760.575313 122.322805 
L 760.863749 86.019372 
L 761.152185 121.176414 
L 761.440621 120.826215 
L 761.729057 109.170924 
L 762.017493 122.068191 
L 762.305929 112.068729 
L 762.594365 123.310167 
L 762.882801 118.724393 
L 763.171237 123.023412 
L 763.459673 116.081202 
L 763.748109 123.564781 
L 764.036545 117.482417 
L 764.324981 115.125981 
L 764.613417 130.379684 
L 764.901853 137.417478 
L 765.190289 115.603487 
L 765.478725 133.532312 
L 765.767161 141.111475 
L 766.055597 123.533059 
L 766.344033 141.111475 
L 766.632469 130.730092 
L 766.920905 144.168727 
L 767.209341 139.328131 
L 767.497777 150.569569 
L 767.786213 155.155342 
L 768.074649 154.773212 
L 768.363085 159.295123 
L 768.939957 163.976273 
L 769.228393 130.666229 
L 769.516829 153.945089 
L 769.805265 137.64037 
L 770.093701 152.161744 
L 770.382137 160.059384 
L 770.670573 163.626074 
L 770.959009 164.135512 
L 771.247445 166.906218 
L 771.535881 168.020678 
L 771.824317 160.250554 
L 772.112753 165.122873 
L 772.401189 163.594143 
L 772.689625 163.403182 
L 772.978061 153.117174 
L 773.266497 126.844925 
L 773.554933 138.882346 
L 773.843369 143.786597 
L 774.131805 154.199912 
L 774.420242 152.09809 
L 774.708678 153.690474 
L 774.997114 152.034437 
L 775.28555 156.906756 
L 775.573986 159.836492 
L 775.862422 159.932077 
L 776.150858 163.116636 
L 776.72773 138.595801 
L 777.016166 152.894282 
L 777.304602 130.061207 
L 777.593038 143.436189 
L 777.881474 136.111849 
L 778.458346 80.382791 
L 779.035218 120.921799 
L 779.61209 145.123949 
L 779.900526 147.002879 
L 780.477398 156.779449 
L 780.765834 161.078468 
L 781.05427 161.619837 
L 781.342706 159.836492 
L 781.631142 163.626074 
L 781.919578 163.403182 
L 782.208014 167.160832 
L 782.49645 131.780898 
L 782.784886 154.900519 
L 783.361758 166.17368 
L 783.650194 153.308135 
L 783.93863 162.352167 
L 784.227066 137.130933 
L 784.803938 158.467209 
L 785.092374 161.333291 
L 785.38081 147.990032 
L 786.246118 164.167443 
L 786.534554 159.0403 
L 786.82299 165.090942 
L 787.111426 166.683117 
L 787.399862 163.403182 
L 787.688298 161.619837 
L 787.976734 165.695964 
L 788.26517 167.574894 
L 788.553606 166.969872 
L 788.842043 167.415656 
L 789.130479 170.568284 
L 789.707351 155.378234 
L 789.995787 152.830629 
L 790.284223 159.167816 
L 790.572659 161.110399 
L 790.861095 82.166136 
L 791.149531 114.90288 
L 792.014839 142.162491 
L 792.303275 126.622033 
L 792.591711 141.907667 
L 792.880147 148.276786 
L 793.168583 150.123784 
L 793.457019 148.276786 
L 793.745455 151.047284 
L 794.322327 158.244317 
L 794.899199 163.339528 
L 795.187635 164.86805 
L 795.476071 165.122873 
L 796.052943 167.988747 
L 796.918251 173.147821 
L 797.206687 171.332545 
L 797.783559 174.676342 
L 798.360431 177.415118 
L 798.648867 173.020305 
L 798.937303 175.154057 
L 799.225739 164.931704 
L 799.514175 168.275501 
L 799.802611 164.931704 
L 800.379483 169.199 
L 800.667919 160.027662 
L 800.956355 166.17368 
L 801.244791 168.466462 
L 801.533227 128.564616 
L 802.110099 143.149643 
L 802.398535 138.340978 
L 802.686971 146.46151 
L 802.975407 136.748802 
L 803.55228 82.930397 
L 803.840716 113.852073 
L 804.129152 128.978469 
L 804.417588 105.922711 
L 804.706024 128.946747 
L 805.282896 143.627359 
L 805.571332 143.149643 
L 805.859768 147.194048 
L 806.148204 147.76714 
L 806.725076 153.117174 
L 807.013512 153.945089 
L 807.301948 156.23808 
L 807.590384 156.460972 
L 807.87882 154.199912 
L 808.167256 158.721823 
L 808.744128 162.511405 
L 809.032564 163.116636 
L 809.321 165.98251 
L 809.609436 167.415656 
L 809.897872 166.460225 
L 810.186308 152.607737 
L 810.474744 154.231843 
L 810.76318 152.862351 
L 811.054636 155.218996 
L 811.341562 156.492694 
L 811.628488 135.283934 
L 812.20234 148.276786 
L 812.496816 150.0282 
L 812.783742 101.59176 
L 813.070668 120.698699 
L 813.64452 138.659454 
L 813.938997 139.582954 
L 814.512848 124.775035 
L 814.799774 137.799609 
L 815.0867 99.553592 
L 815.381177 104.107435 
L 815.668102 124.424627 
L 815.955028 99.52187 
L 816.241954 125.794119 
L 816.52888 135.029111 
L 816.823357 136.207434 
L 817.110283 141.907667 
L 817.397208 141.716498 
L 817.684134 144.77375 
L 817.97106 141.844014 
L 818.265537 146.748056 
L 818.552463 90.3186 
L 818.839389 111.240814 
L 819.126314 77.484986 
L 819.41324 90.923622 
L 819.707717 118.533432 
L 819.994643 115.157703 
L 820.568495 136.079918 
L 820.85542 98.470854 
L 821.149897 88.853732 
L 821.436823 125.571018 
L 821.723749 122.004537 
L 822.010675 135.57048 
L 822.297601 109.457469 
L 822.592077 121.30393 
L 822.879003 99.458007 
L 823.165929 93.630466 
L 823.452855 129.169639 
L 824.034257 144.964711 
L 824.608109 153.149105 
L 825.181961 158.626447 
L 825.476437 138.150017 
L 825.763363 152.480221 
L 826.050289 156.23808 
L 826.337215 157.957562 
L 826.624141 142.162491 
L 826.918617 144.741819 
L 827.205543 145.028573 
L 827.492469 142.385383 
L 827.779395 154.199912 
L 828.066321 144.455273 
L 828.360797 152.480221 
L 828.647723 148.053685 
L 828.934649 148.849877 
L 829.221575 139.710261 
L 829.508501 150.060131 
L 829.802978 155.187065 
L 830.089903 131.430699 
L 830.376829 150.888045 
L 830.663755 137.608648 
L 830.950681 143.46812 
L 831.245158 147.194048 
L 831.532084 128.341724 
L 831.819009 141.143407 
L 832.105935 122.832451 
L 832.392861 122.545906 
L 832.687338 144.009489 
L 832.974264 151.238245 
L 833.26119 155.441888 
L 833.548115 134.869873 
L 833.835041 138.309255 
L 834.129518 143.181575 
L 834.416444 141.716498 
L 834.70337 143.722943 
L 834.990296 150.378399 
L 835.277221 127.800356 
L 835.571698 147.894656 
L 835.858624 152.989867 
L 836.14555 143.404467 
L 836.432476 147.002879 
L 836.719402 140.410868 
L 837.013878 144.964711 
L 837.300804 153.913366 
L 837.58773 152.926005 
L 837.874656 150.378399 
L 838.161582 157.384471 
L 838.456058 161.396945 
L 838.742984 156.715586 
L 839.02991 161.619837 
L 839.603762 166.17368 
L 839.898238 166.683117 
L 840.185164 156.429041 
L 840.47209 156.23808 
L 840.759016 158.276039 
L 841.045942 129.965831 
L 841.340418 135.825303 
L 841.627344 130.411615 
L 842.201196 150.824392 
L 842.488122 140.920515 
L 842.782598 151.938852 
L 843.069524 156.811171 
L 843.35645 151.174591 
L 843.643376 154.35915 
L 843.930302 159.0403 
L 844.224779 160.123038 
L 844.511704 147.03481 
L 844.79863 156.683864 
L 845.085556 139.837777 
L 845.372482 100.222268 
L 845.666959 136.079918 
L 845.953885 140.888583 
L 846.24081 149.773377 
L 846.527736 143.499843 
L 847.109139 157.989494 
L 847.396065 158.021216 
L 847.682991 161.842729 
L 847.969916 157.193302 
L 848.551319 166.269264 
L 848.838245 166.17368 
L 849.412097 172.319697 
L 849.699022 173.784565 
L 849.993499 174.357865 
L 850.280425 115.85831 
L 850.567351 148.818155 
L 850.854277 145.824556 
L 851.141203 156.874825 
L 851.722605 146.015726 
L 852.009531 157.161579 
L 852.583383 167.51124 
L 853.164785 173.020305 
L 853.451711 152.926005 
L 853.738637 143.977558 
L 854.025563 156.174218 
L 854.320039 162.256791 
L 854.606965 162.320444 
L 854.893891 168.753216 
L 855.180817 172.128737 
L 855.467743 165.345765 
L 855.762219 172.001429 
L 856.049145 172.033152 
L 856.336071 179.230185 
L 856.909923 183.08342 
L 857.204399 179.230185 
L 857.491325 179.485008 
L 858.065177 184.38905 
L 858.352103 185.471788 
L 858.64658 187.446302 
L 858.933505 188.369801 
L 859.220431 174.644411 
L 859.507357 175.663495 
L 859.794283 170.058846 
L 860.08876 176.682579 
L 860.662611 182.287228 
L 860.949537 183.847681 
L 861.236463 173.370713 
L 861.53094 173.625536 
L 861.817866 177.192017 
L 862.104792 176.077557 
L 862.391717 178.75247 
L 862.678643 150.98363 
L 863.546972 169.485546 
L 863.833898 140.156254 
L 864.120823 158.498931 
L 864.702226 168.211848 
L 864.989152 170.791176 
L 865.276078 172.065083 
L 865.563004 169.5492 
L 865.85748 173.338781 
L 866.144406 165.186527 
L 866.431332 172.733759 
L 866.718258 174.899234 
L 867.005184 159.0403 
L 867.29966 162.129275 
L 867.586586 160.537099 
L 867.873512 163.403182 
L 868.447364 147.512316 
L 868.74184 157.989494 
L 869.028766 163.594143 
L 869.315692 158.976646 
L 869.602618 165.186527 
L 869.889544 168.43474 
L 870.18402 164.199374 
L 870.470946 164.899772 
L 870.757872 169.581131 
L 871.044798 159.804561 
L 871.331724 139.264477 
L 871.6262 157.002341 
L 871.913126 147.480594 
L 872.200052 155.378234 
L 872.486978 153.212759 
L 873.068381 165.345765 
L 873.355306 165.122873 
L 873.642232 162.384098 
L 873.929158 140.0926 
L 874.216084 106.65504 
L 874.510561 104.075712 
L 875.084412 147.76714 
L 875.371338 156.524626 
L 875.658264 161.524252 
L 875.952741 161.333291 
L 876.239667 89.044693 
L 876.526593 137.83154 
L 876.813518 154.518389 
L 877.100444 160.56903 
L 877.394921 162.60699 
L 877.681847 167.192764 
L 877.968773 168.81687 
L 878.255699 162.320444 
L 878.542624 171.555437 
L 879.124027 178.943639 
L 879.410953 142.417105 
L 880.279281 169.612853 
L 880.853133 177.956486 
L 881.426985 182.223575 
L 881.721461 178.433993 
L 882.008387 182.542051 
L 882.295313 184.484635 
L 882.869165 185.535441 
L 883.450567 188.688278 
L 883.737493 189.229647 
L 884.311345 192.031867 
L 884.605821 187.637263 
L 885.179673 193.082882 
L 885.753525 194.961603 
L 886.048001 194.038104 
L 886.334927 184.357327 
L 886.908779 193.847143 
L 887.195705 194.993534 
L 887.490182 192.445929 
L 887.777107 192.987297 
L 888.064033 194.070035 
L 888.350959 183.27459 
L 888.637885 160.664407 
L 888.932362 173.307059 
L 889.219288 177.701663 
L 889.793139 179.485008 
L 890.080065 172.988582 
L 890.374542 169.358239 
L 890.661468 176.396034 
L 890.948394 115.221357 
L 891.522245 153.149105 
L 891.816722 161.078468 
L 892.103648 152.448498 
L 892.390574 152.352913 
L 892.6775 160.250554 
L 892.964425 163.403182 
L 893.258902 156.588279 
L 893.545828 163.944551 
L 893.832754 164.422266 
L 894.11968 92.101945 
L 894.406605 132.799982 
L 894.701082 147.735417 
L 894.988008 150.6015 
L 895.274934 136.908041 
L 895.56186 150.6015 
L 895.848786 143.754666 
L 896.143262 154.104327 
L 896.430188 151.907129 
L 896.717114 153.658543 
L 897.00404 160.34593 
L 897.290966 157.002341 
L 897.585442 113.501874 
L 897.872368 143.404467 
L 898.159294 142.926751 
L 898.733146 130.347961 
L 899.027622 121.972606 
L 899.8884 153.435651 
L 900.175326 147.002879 
L 900.469802 155.505542 
L 900.756728 160.537099 
L 901.043654 162.925467 
L 901.33058 166.428503 
L 901.911983 149.009116 
L 902.198908 158.180454 
L 902.485834 162.861813 
L 902.77276 163.976273 
L 903.059686 167.447587 
L 903.354163 167.224486 
L 903.641089 165.25018 
L 903.928014 168.944177 
L 904.21494 152.894282 
L 904.501866 150.346677 
L 904.796343 161.906383 
L 905.083269 166.683117 
L 905.65712 171.81026 
L 905.944046 172.096805 
L 906.238523 172.096805 
L 906.525449 161.333291 
L 906.812375 166.237333 
L 907.099301 169.071485 
L 907.386226 102.005613 
L 907.680703 139.5193 
L 907.967629 150.060131 
L 908.254555 154.932242 
L 908.541481 149.83703 
L 908.828406 159.804561 
L 909.122883 164.67688 
L 909.983661 171.651021 
L 910.565063 149.582416 
L 910.851989 145.760903 
L 911.138915 147.862724 
L 911.425841 159.868423 
L 912.007243 168.179916 
L 912.294169 161.842729 
L 912.581095 168.721285 
L 912.868021 171.555437 
L 913.154947 120.316568 
L 913.449423 135.029111 
L 913.736349 113.438012 
L 914.023275 142.417105 
L 914.310201 153.117174 
L 914.597127 89.267585 
L 914.891603 134.774288 
L 915.178529 109.775946 
L 915.465455 141.652844 
L 915.752381 144.041212 
L 916.907635 165.695964 
L 917.194561 169.708438 
L 917.481487 160.951161 
L 917.775964 161.906383 
L 918.06289 168.753216 
L 918.06289 168.753216 
" clip-path="url(#p2c098f6034)" style="fill: none; stroke: #2563eb; stroke-opacity: 0.95; stroke-width: 0.936; stroke-linecap: square"/>
   </g>
   <g id="patch_20">
    <path d="M 39.330625 228.954713 
L 39.330625 17.061433 
" style="fill: none; stroke: #cbd5e1; stroke-width: 0.8; stroke-linejoin: miter; stroke-linecap: square"/>
   </g>
   <g id="patch_21">
    <path d="M 935.305625 228.954713 
L 935.305625 17.061433 
" style="fill: none; stroke: #cbd5e1; stroke-width: 0.8; stroke-linejoin: miter; stroke-linecap: square"/>
   </g>
   <g id="patch_22">
    <path d="M 39.330625 228.954713 
L 935.305625 228.954713 
" style="fill: none; stroke: #cbd5e1; stroke-width: 0.8; stroke-linejoin: miter; stroke-linecap: square"/>
   </g>
   <g id="patch_23">
    <path d="M 39.330625 17.061433 
L 935.305625 17.061433 
" style="fill: none; stroke: #cbd5e1; stroke-width: 0.8; stroke-linejoin: miter; stroke-linecap: square"/>
   </g>
   <g id="text_16">
    <!-- ACC -->
    <g style="fill: #475569" transform="translate(121.686299 13.27875) scale(0.08 -0.08)">
     <defs>
      <path id="DejaVuSans-43" d="M 4122 4306 
L 4122 3641 
Q 3803 3938 3442 4084 
Q 3081 4231 2675 4231 
Q 1875 4231 1450 3742 
Q 1025 3253 1025 2328 
Q 1025 1406 1450 917 
Q 1875 428 2675 428 
Q 3081 428 3442 575 
Q 3803 722 4122 1019 
L 4122 359 
Q 3791 134 3420 21 
Q 3050 -91 2638 -91 
Q 1578 -91 968 557 
Q 359 1206 359 2328 
Q 359 3453 968 4101 
Q 1578 4750 2638 4750 
Q 3056 4750 3426 4639 
Q 3797 4528 4122 4306 
z
" transform="scale(0.015625)"/>
     </defs>
     <use xlink:href="#DejaVuSans-41"/>
     <use xlink:href="#DejaVuSans-43" transform="translate(66.658203 0)"/>
     <use xlink:href="#DejaVuSans-43" transform="translate(136.482422 0)"/>
    </g>
   </g>
   <g id="text_17">
    <!-- OC -->
    <g style="fill: #475569" transform="translate(228.196324 13.27875) scale(0.08 -0.08)">
     <defs>
      <path id="DejaVuSans-4f" d="M 2522 4238 
Q 1834 4238 1429 3725 
Q 1025 3213 1025 2328 
Q 1025 1447 1429 934 
Q 1834 422 2522 422 
Q 3209 422 3611 934 
Q 4013 1447 4013 2328 
Q 4013 3213 3611 3725 
Q 3209 4238 2522 4238 
z
M 2522 4750 
Q 3503 4750 4090 4092 
Q 4678 3434 4678 2328 
Q 4678 1225 4090 567 
Q 3503 -91 2522 -91 
Q 1538 -91 948 565 
Q 359 1222 359 2328 
Q 359 3434 948 4092 
Q 1538 4750 2522 4750 
z
" transform="scale(0.015625)"/>
     </defs>
     <use xlink:href="#DejaVuSans-4f"/>
     <use xlink:href="#DejaVuSans-43" transform="translate(78.710938 0)"/>
    </g>
   </g>
   <g id="text_18">
    <!-- FCS -->
    <g style="fill: #475569" transform="translate(253.687526 13.27875) scale(0.08 -0.08)">
     <defs>
      <path id="DejaVuSans-46" d="M 628 4666 
L 3309 4666 
L 3309 4134 
L 1259 4134 
L 1259 2759 
L 3109 2759 
L 3109 2228 
L 1259 2228 
L 1259 0 
L 628 0 
L 628 4666 
z
" transform="scale(0.015625)"/>
      <path id="DejaVuSans-53" d="M 3425 4513 
L 3425 3897 
Q 3066 4069 2747 4153 
Q 2428 4238 2131 4238 
Q 1616 4238 1336 4038 
Q 1056 3838 1056 3469 
Q 1056 3159 1242 3001 
Q 1428 2844 1947 2747 
L 2328 2669 
Q 3034 2534 3370 2195 
Q 3706 1856 3706 1288 
Q 3706 609 3251 259 
Q 2797 -91 1919 -91 
Q 1588 -91 1214 -16 
Q 841 59 441 206 
L 441 856 
Q 825 641 1194 531 
Q 1563 422 1919 422 
Q 2459 422 2753 634 
Q 3047 847 3047 1241 
Q 3047 1584 2836 1778 
Q 2625 1972 2144 2069 
L 1759 2144 
Q 1053 2284 737 2584 
Q 422 2884 422 3419 
Q 422 4038 858 4394 
Q 1294 4750 2059 4750 
Q 2388 4750 2728 4690 
Q 3069 4631 3425 4513 
z
" transform="scale(0.015625)"/>
     </defs>
     <use xlink:href="#DejaVuSans-46"/>
     <use xlink:href="#DejaVuSans-43" transform="translate(57.519531 0)"/>
     <use xlink:href="#DejaVuSans-53" transform="translate(127.34375 0)"/>
    </g>
   </g>
   <g id="text_19">
    <!-- SR -->
    <g style="fill: #475569" transform="translate(289.979966 13.27875) scale(0.08 -0.08)">
     <defs>
      <path id="DejaVuSans-52" d="M 2841 2188 
Q 3044 2119 3236 1894 
Q 3428 1669 3622 1275 
L 4263 0 
L 3584 0 
L 2988 1197 
Q 2756 1666 2539 1819 
Q 2322 1972 1947 1972 
L 1259 1972 
L 1259 0 
L 628 0 
L 628 4666 
L 2053 4666 
Q 2853 4666 3247 4331 
Q 3641 3997 3641 3322 
Q 3641 2881 3436 2590 
Q 3231 2300 2841 2188 
z
M 1259 4147 
L 1259 2491 
L 2053 2491 
Q 2509 2491 2742 2702 
Q 2975 2913 2975 3322 
Q 2975 3731 2742 3939 
Q 2509 4147 2053 4147 
L 1259 4147 
z
" transform="scale(0.015625)"/>
     </defs>
     <use xlink:href="#DejaVuSans-53"/>
     <use xlink:href="#DejaVuSans-52" transform="translate(63.476562 0)"/>
    </g>
   </g>
   <g id="text_20">
    <!-- FFC -->
    <g style="fill: #475569" transform="translate(330.943223 13.27875) scale(0.08 -0.08)">
     <use xlink:href="#DejaVuSans-46"/>
     <use xlink:href="#DejaVuSans-46" transform="translate(57.519531 0)"/>
     <use xlink:href="#DejaVuSans-43" transform="translate(115.039062 0)"/>
    </g>
   </g>
   <g id="text_21">
    <!-- SS -->
    <g style="fill: #475569" transform="translate(414.806205 13.27875) scale(0.08 -0.08)">
     <use xlink:href="#DejaVuSans-53"/>
     <use xlink:href="#DejaVuSans-53" transform="translate(63.476562 0)"/>
    </g>
   </g>
   <g id="text_22">
    <!-- OC -->
    <g style="fill: #475569" transform="translate(484.164415 13.27875) scale(0.08 -0.08)">
     <use xlink:href="#DejaVuSans-4f"/>
     <use xlink:href="#DejaVuSans-43" transform="translate(78.710938 0)"/>
    </g>
   </g>
   <g id="text_23">
    <!-- FCS -->
    <g style="fill: #475569" transform="translate(507.390412 13.27875) scale(0.08 -0.08)">
     <use xlink:href="#DejaVuSans-46"/>
     <use xlink:href="#DejaVuSans-43" transform="translate(57.519531 0)"/>
     <use xlink:href="#DejaVuSans-53" transform="translate(127.34375 0)"/>
    </g>
   </g>
   <g id="text_24">
    <!-- SR -->
    <g style="fill: #475569" transform="translate(543.682852 13.27875) scale(0.08 -0.08)">
     <use xlink:href="#DejaVuSans-53"/>
     <use xlink:href="#DejaVuSans-52" transform="translate(63.476562 0)"/>
    </g>
   </g>
   <g id="text_25">
    <!-- FFC -->
    <g style="fill: #475569" transform="translate(584.64611 13.27875) scale(0.08 -0.08)">
     <use xlink:href="#DejaVuSans-46"/>
     <use xlink:href="#DejaVuSans-46" transform="translate(57.519531 0)"/>
     <use xlink:href="#DejaVuSans-43" transform="translate(115.039062 0)"/>
    </g>
   </g>
   <g id="text_26">
    <!-- SS -->
    <g style="fill: #475569" transform="translate(668.509091 13.27875) scale(0.08 -0.08)">
     <use xlink:href="#DejaVuSans-53"/>
     <use xlink:href="#DejaVuSans-53" transform="translate(63.476562 0)"/>
    </g>
   </g>
   <g id="text_27">
    <!-- OC -->
    <g style="fill: #475569" transform="translate(737.867301 13.27875) scale(0.08 -0.08)">
     <use xlink:href="#DejaVuSans-4f"/>
     <use xlink:href="#DejaVuSans-43" transform="translate(78.710938 0)"/>
    </g>
   </g>
   <g id="text_28">
    <!-- FCS -->
    <g style="fill: #475569" transform="translate(761.093299 13.27875) scale(0.08 -0.08)">
     <use xlink:href="#DejaVuSans-46"/>
     <use xlink:href="#DejaVuSans-43" transform="translate(57.519531 0)"/>
     <use xlink:href="#DejaVuSans-53" transform="translate(127.34375 0)"/>
    </g>
   </g>
   <g id="text_29">
    <!-- SR -->
    <g style="fill: #475569" transform="translate(797.385739 13.27875) scale(0.08 -0.08)">
     <use xlink:href="#DejaVuSans-53"/>
     <use xlink:href="#DejaVuSans-52" transform="translate(63.476562 0)"/>
    </g>
   </g>
   <g id="text_30">
    <!-- FFC -->
    <g style="fill: #475569" transform="translate(838.348997 13.27875) scale(0.08 -0.08)">
     <use xlink:href="#DejaVuSans-46"/>
     <use xlink:href="#DejaVuSans-46" transform="translate(57.519531 0)"/>
     <use xlink:href="#DejaVuSans-43" transform="translate(115.039062 0)"/>
    </g>
   </g>
   <g id="text_31">
    <!-- SS -->
    <g style="fill: #475569" transform="translate(885.968708 13.27875) scale(0.08 -0.08)">
     <use xlink:href="#DejaVuSans-53"/>
     <use xlink:href="#DejaVuSans-53" transform="translate(63.476562 0)"/>
    </g>
   </g>
   <g id="legend_1">
    <g id="line2d_28">
     <path d="M 889.158125 27.540183 
L 897.158125 27.540183 
L 905.158125 27.540183 
" style="fill: none; stroke: #2563eb; stroke-opacity: 0.95; stroke-width: 1.3; stroke-linecap: square"/>
    </g>
    <g id="text_32">
     <!-- EDA -->
     <g transform="translate(911.558125 30.340183) scale(0.08 -0.08)">
      <use xlink:href="#DejaVuSans-45"/>
      <use xlink:href="#DejaVuSans-44" transform="translate(63.183594 0)"/>
      <use xlink:href="#DejaVuSans-41" transform="translate(138.435547 0)"/>
     </g>
    </g>
   </g>
  </g>
 </g>
 <defs>
  <clipPath id="p2c098f6034">
   <rect x="39.330625" y="17.061433" width="895.975" height="211.89328"/>
  </clipPath>
 </defs>
</svg>
