<?xml version="1.0" encoding="utf-8" standalone="no"?>
<!DOCTYPE svg PUBLIC "-//W3C//DTD SVG 1.1//EN"
  "http://www.w3.org/Graphics/SVG/1.1/DTD/svg11.dtd">
<svg xmlns:xlink="http://www.w3.org/1999/xlink" width="942.553437pt" height="265.54315pt" viewBox="0 0 942.553437 265.54315" xmlns="http://www.w3.org/2000/svg" version="1.1">
 <metadata>
  <rdf:RDF xmlns:dc="http://purl.org/dc/elements/1.1/" xmlns:cc="http://creativecommons.org/ns#" xmlns:rdf="http://www.w3.org/1999/02/22-rdf-syntax-ns#">
   <cc:Work>
    <dc:type rdf:resource="http://purl.org/dc/dcmitype/StillImage"/>
    <dc:date>2026-04-17T13:15:47.178686</dc:date>
    <dc:format>image/svg+xml</dc:format>
    <dc:creator>
     <cc:Agent>
      <dc:title>Matplotlib v3.10.8, https://matplotlib.org/</dc:title>
     </cc:Agent>
    </dc:creator>
   </cc:Work>
  </rdf:RDF>
 </metadata>
 <defs>
  <style type="text/css">*{stroke-linejoin: round; stroke-linecap: butt}</style>
 </defs>
 <g id="figure_1">
  <g id="patch_1">
   <path d="M 0 265.54315 
L 942.553437 265.54315 
L 942.553437 0 
L 0 0 
z
" style="fill: #ffffff"/>
  </g>
  <g id="axes_1">
   <g id="patch_2">
    <path d="M 42.190938 228.954713 
L 935.353437 228.954713 
L 935.353437 17.061433 
L 42.190938 17.061433 
z
" style="fill: #ffffff"/>
   </g>
   <g id="patch_3">
    <path d="M 42.190938 228.954713 
L 59.367139 228.954713 
L 59.367139 17.061433 
L 42.190938 17.061433 
z
" clip-path="url(#pc1f5015369)" style="fill: #f8fafc; opacity: 0.45"/>
   </g>
   <g id="patch_4">
    <path d="M 59.367139 228.954713 
L 93.045967 228.954713 
L 93.045967 17.061433 
L 59.367139 17.061433 
z
" clip-path="url(#pc1f5015369)" style="fill: #eff6ff; opacity: 0.45"/>
   </g>
   <g id="patch_5">
    <path d="M 93.045967 228.954713 
L 126.724794 228.954713 
L 126.724794 17.061433 
L 93.045967 17.061433 
z
" clip-path="url(#pc1f5015369)" style="fill: #fef3c7; opacity: 0.45"/>
   </g>
   <g id="patch_6">
    <path d="M 126.724794 228.954713 
L 177.243035 228.954713 
L 177.243035 17.061433 
L 126.724794 17.061433 
z
" clip-path="url(#pc1f5015369)" style="fill: #dcfce7; opacity: 0.45"/>
   </g>
   <g id="patch_7">
    <path d="M 177.243035 228.954713 
L 233.374414 228.954713 
L 233.374414 17.061433 
L 177.243035 17.061433 
z
" clip-path="url(#pc1f5015369)" style="fill: #fee2e2; opacity: 0.45"/>
   </g>
   <g id="patch_8">
    <path d="M 233.374414 228.954713 
L 379.315999 228.954713 
L 379.315999 17.061433 
L 233.374414 17.061433 
z
" clip-path="url(#pc1f5015369)" style="fill: #ede9fe; opacity: 0.45"/>
   </g>
   <g id="patch_9">
    <path d="M 379.315999 228.954713 
L 407.381688 228.954713 
L 407.381688 17.061433 
L 379.315999 17.061433 
z
" clip-path="url(#pc1f5015369)" style="fill: #f8fafc; opacity: 0.45"/>
   </g>
   <g id="patch_10">
    <path d="M 407.381688 228.954713 
L 441.060515 228.954713 
L 441.060515 17.061433 
L 407.381688 17.061433 
z
" clip-path="url(#pc1f5015369)" style="fill: #eff6ff; opacity: 0.45"/>
   </g>
   <g id="patch_11">
    <path d="M 441.060515 228.954713 
L 491.578756 228.954713 
L 491.578756 17.061433 
L 441.060515 17.061433 
z
" clip-path="url(#pc1f5015369)" style="fill: #fef3c7; opacity: 0.45"/>
   </g>
   <g id="patch_12">
    <path d="M 491.578756 228.954713 
L 547.710135 228.954713 
L 547.710135 17.061433 
L 491.578756 17.061433 
z
" clip-path="url(#pc1f5015369)" style="fill: #dcfce7; opacity: 0.45"/>
   </g>
   <g id="patch_13">
    <path d="M 547.710135 228.954713 
L 693.65172 228.954713 
L 693.65172 17.061433 
L 547.710135 17.061433 
z
" clip-path="url(#pc1f5015369)" style="fill: #fee2e2; opacity: 0.45"/>
   </g>
   <g id="patch_14">
    <path d="M 693.65172 228.954713 
L 721.71741 228.954713 
L 721.71741 17.061433 
L 693.65172 17.061433 
z
" clip-path="url(#pc1f5015369)" style="fill: #ede9fe; opacity: 0.45"/>
   </g>
   <g id="patch_15">
    <path d="M 721.71741 228.954713 
L 755.396237 228.954713 
L 755.396237 17.061433 
L 721.71741 17.061433 
z
" clip-path="url(#pc1f5015369)" style="fill: #f8fafc; opacity: 0.45"/>
   </g>
   <g id="patch_16">
    <path d="M 755.396237 228.954713 
L 805.914478 228.954713 
L 805.914478 17.061433 
L 755.396237 17.061433 
z
" clip-path="url(#pc1f5015369)" style="fill: #eff6ff; opacity: 0.45"/>
   </g>
   <g id="patch_17">
    <path d="M 805.914478 228.954713 
L 862.045857 228.954713 
L 862.045857 17.061433 
L 805.914478 17.061433 
z
" clip-path="url(#pc1f5015369)" style="fill: #fef3c7; opacity: 0.45"/>
   </g>
   <g id="patch_18">
    <path d="M 862.045857 228.954713 
L 918.177236 228.954713 
L 918.177236 17.061433 
L 862.045857 17.061433 
z
" clip-path="url(#pc1f5015369)" style="fill: #dcfce7; opacity: 0.45"/>
   </g>
   <g id="patch_19">
    <path d="M 918.177236 228.954713 
L 923.790373 228.954713 
L 923.790373 17.061433 
L 918.177236 17.061433 
z
" clip-path="url(#pc1f5015369)" style="fill: #fee2e2; opacity: 0.45"/>
   </g>
   <g id="matplotlib.axis_1">
    <g id="xtick_1">
     <g id="line2d_1">
      <path d="M 59.367139 228.954713 
L 59.367139 17.061433 
" clip-path="url(#pc1f5015369)" style="fill: none; stroke: #eef2f7; stroke-width: 0.55; stroke-linecap: square"/>
     </g>
     <g id="line2d_2">
      <defs>
       <path id="m42043eaf82" d="M 0 0 
L 0 3.5 
" style="stroke: #000000; stroke-width: 0.8"/>
      </defs>
      <g>
       <use xlink:href="#m42043eaf82" x="59.367139" y="228.954713" style="stroke: #000000; stroke-width: 0.8"/>
      </g>
     </g>
     <g id="text_1">
      <!-- 40 -->
      <g transform="translate(53.640889 242.793307) scale(0.09 -0.09)">
       <defs>
        <path id="DejaVuSans-34" d="M 2419 4116 
L 825 1625 
L 2419 1625 
L 2419 4116 
z
M 2253 4666 
L 3047 4666 
L 3047 1625 
L 3713 1625 
L 3713 1100 
L 3047 1100 
L 3047 0 
L 2419 0 
L 2419 1100 
L 313 1100 
L 313 1709 
L 2253 4666 
z
" transform="scale(0.015625)"/>
        <path id="DejaVuSans-30" d="M 2034 4250 
Q 1547 4250 1301 3770 
Q 1056 3291 1056 2328 
Q 1056 1369 1301 889 
Q 1547 409 2034 409 
Q 2525 409 2770 889 
Q 3016 1369 3016 2328 
Q 3016 3291 2770 3770 
Q 2525 4250 2034 4250 
z
M 2034 4750 
Q 2819 4750 3233 4129 
Q 3647 3509 3647 2328 
Q 3647 1150 3233 529 
Q 2819 -91 2034 -91 
Q 1250 -91 836 529 
Q 422 1150 422 2328 
Q 422 3509 836 4129 
Q 1250 4750 2034 4750 
z
" transform="scale(0.015625)"/>
       </defs>
       <use xlink:href="#DejaVuSans-34"/>
       <use xlink:href="#DejaVuSans-30" transform="translate(63.623047 0)"/>
      </g>
     </g>
    </g>
    <g id="xtick_2">
     <g id="line2d_3">
      <path d="M 171.629897 228.954713 
L 171.629897 17.061433 
" clip-path="url(#pc1f5015369)" style="fill: none; stroke: #eef2f7; stroke-width: 0.55; stroke-linecap: square"/>
     </g>
     <g id="line2d_4">
      <g>
       <use xlink:href="#m42043eaf82" x="171.629897" y="228.954713" style="stroke: #000000; stroke-width: 0.8"/>
      </g>
     </g>
     <g id="text_2">
      <!-- 60 -->
      <g transform="translate(165.903647 242.793307) scale(0.09 -0.09)">
       <defs>
        <path id="DejaVuSans-36" d="M 2113 2584 
Q 1688 2584 1439 2293 
Q 1191 2003 1191 1497 
Q 1191 994 1439 701 
Q 1688 409 2113 409 
Q 2538 409 2786 701 
Q 3034 994 3034 1497 
Q 3034 2003 2786 2293 
Q 2538 2584 2113 2584 
z
M 3366 4563 
L 3366 3988 
Q 3128 4100 2886 4159 
Q 2644 4219 2406 4219 
Q 1781 4219 1451 3797 
Q 1122 3375 1075 2522 
Q 1259 2794 1537 2939 
Q 1816 3084 2150 3084 
Q 2853 3084 3261 2657 
Q 3669 2231 3669 1497 
Q 3669 778 3244 343 
Q 2819 -91 2113 -91 
Q 1303 -91 875 529 
Q 447 1150 447 2328 
Q 447 3434 972 4092 
Q 1497 4750 2381 4750 
Q 2619 4750 2861 4703 
Q 3103 4656 3366 4563 
z
" transform="scale(0.015625)"/>
       </defs>
       <use xlink:href="#DejaVuSans-36"/>
       <use xlink:href="#DejaVuSans-30" transform="translate(63.623047 0)"/>
      </g>
     </g>
    </g>
    <g id="xtick_3">
     <g id="line2d_5">
      <path d="M 283.892655 228.954713 
L 283.892655 17.061433 
" clip-path="url(#pc1f5015369)" style="fill: none; stroke: #eef2f7; stroke-width: 0.55; stroke-linecap: square"/>
     </g>
     <g id="line2d_6">
      <g>
       <use xlink:href="#m42043eaf82" x="283.892655" y="228.954713" style="stroke: #000000; stroke-width: 0.8"/>
      </g>
     </g>
     <g id="text_3">
      <!-- 80 -->
      <g transform="translate(278.166405 242.793307) scale(0.09 -0.09)">
       <defs>
        <path id="DejaVuSans-38" d="M 2034 2216 
Q 1584 2216 1326 1975 
Q 1069 1734 1069 1313 
Q 1069 891 1326 650 
Q 1584 409 2034 409 
Q 2484 409 2743 651 
Q 3003 894 3003 1313 
Q 3003 1734 2745 1975 
Q 2488 2216 2034 2216 
z
M 1403 2484 
Q 997 2584 770 2862 
Q 544 3141 544 3541 
Q 544 4100 942 4425 
Q 1341 4750 2034 4750 
Q 2731 4750 3128 4425 
Q 3525 4100 3525 3541 
Q 3525 3141 3298 2862 
Q 3072 2584 2669 2484 
Q 3125 2378 3379 2068 
Q 3634 1759 3634 1313 
Q 3634 634 3220 271 
Q 2806 -91 2034 -91 
Q 1263 -91 848 271 
Q 434 634 434 1313 
Q 434 1759 690 2068 
Q 947 2378 1403 2484 
z
M 1172 3481 
Q 1172 3119 1398 2916 
Q 1625 2713 2034 2713 
Q 2441 2713 2670 2916 
Q 2900 3119 2900 3481 
Q 2900 3844 2670 4047 
Q 2441 4250 2034 4250 
Q 1625 4250 1398 4047 
Q 1172 3844 1172 3481 
z
" transform="scale(0.015625)"/>
       </defs>
       <use xlink:href="#DejaVuSans-38"/>
       <use xlink:href="#DejaVuSans-30" transform="translate(63.623047 0)"/>
      </g>
     </g>
    </g>
    <g id="xtick_4">
     <g id="line2d_7">
      <path d="M 396.155412 228.954713 
L 396.155412 17.061433 
" clip-path="url(#pc1f5015369)" style="fill: none; stroke: #eef2f7; stroke-width: 0.55; stroke-linecap: square"/>
     </g>
     <g id="line2d_8">
      <g>
       <use xlink:href="#m42043eaf82" x="396.155412" y="228.954713" style="stroke: #000000; stroke-width: 0.8"/>
      </g>
     </g>
     <g id="text_4">
      <!-- 100 -->
      <g transform="translate(387.566037 242.793307) scale(0.09 -0.09)">
       <defs>
        <path id="DejaVuSans-31" d="M 794 531 
L 1825 531 
L 1825 4091 
L 703 3866 
L 703 4441 
L 1819 4666 
L 2450 4666 
L 2450 531 
L 3481 531 
L 3481 0 
L 794 0 
L 794 531 
z
" transform="scale(0.015625)"/>
       </defs>
       <use xlink:href="#DejaVuSans-31"/>
       <use xlink:href="#DejaVuSans-30" transform="translate(63.623047 0)"/>
       <use xlink:href="#DejaVuSans-30" transform="translate(127.246094 0)"/>
      </g>
     </g>
    </g>
    <g id="xtick_5">
     <g id="line2d_9">
      <path d="M 508.41817 228.954713 
L 508.41817 17.061433 
" clip-path="url(#pc1f5015369)" style="fill: none; stroke: #eef2f7; stroke-width: 0.55; stroke-linecap: square"/>
     </g>
     <g id="line2d_10">
      <g>
       <use xlink:href="#m42043eaf82" x="508.41817" y="228.954713" style="stroke: #000000; stroke-width: 0.8"/>
      </g>
     </g>
     <g id="text_5">
      <!-- 120 -->
      <g transform="translate(499.828795 242.793307) scale(0.09 -0.09)">
       <defs>
        <path id="DejaVuSans-32" d="M 1228 531 
L 3431 531 
L 3431 0 
L 469 0 
L 469 531 
Q 828 903 1448 1529 
Q 2069 2156 2228 2338 
Q 2531 2678 2651 2914 
Q 2772 3150 2772 3378 
Q 2772 3750 2511 3984 
Q 2250 4219 1831 4219 
Q 1534 4219 1204 4116 
Q 875 4013 500 3803 
L 500 4441 
Q 881 4594 1212 4672 
Q 1544 4750 1819 4750 
Q 2544 4750 2975 4387 
Q 3406 4025 3406 3419 
Q 3406 3131 3298 2873 
Q 3191 2616 2906 2266 
Q 2828 2175 2409 1742 
Q 1991 1309 1228 531 
z
" transform="scale(0.015625)"/>
       </defs>
       <use xlink:href="#DejaVuSans-31"/>
       <use xlink:href="#DejaVuSans-32" transform="translate(63.623047 0)"/>
       <use xlink:href="#DejaVuSans-30" transform="translate(127.246094 0)"/>
      </g>
     </g>
    </g>
    <g id="xtick_6">
     <g id="line2d_11">
      <path d="M 620.680928 228.954713 
L 620.680928 17.061433 
" clip-path="url(#pc1f5015369)" style="fill: none; stroke: #eef2f7; stroke-width: 0.55; stroke-linecap: square"/>
     </g>
     <g id="line2d_12">
      <g>
       <use xlink:href="#m42043eaf82" x="620.680928" y="228.954713" style="stroke: #000000; stroke-width: 0.8"/>
      </g>
     </g>
     <g id="text_6">
      <!-- 140 -->
      <g transform="translate(612.091553 242.793307) scale(0.09 -0.09)">
       <use xlink:href="#DejaVuSans-31"/>
       <use xlink:href="#DejaVuSans-34" transform="translate(63.623047 0)"/>
       <use xlink:href="#DejaVuSans-30" transform="translate(127.246094 0)"/>
      </g>
     </g>
    </g>
    <g id="xtick_7">
     <g id="line2d_13">
      <path d="M 732.943685 228.954713 
L 732.943685 17.061433 
" clip-path="url(#pc1f5015369)" style="fill: none; stroke: #eef2f7; stroke-width: 0.55; stroke-linecap: square"/>
     </g>
     <g id="line2d_14">
      <g>
       <use xlink:href="#m42043eaf82" x="732.943685" y="228.954713" style="stroke: #000000; stroke-width: 0.8"/>
      </g>
     </g>
     <g id="text_7">
      <!-- 160 -->
      <g transform="translate(724.35431 242.793307) scale(0.09 -0.09)">
       <use xlink:href="#DejaVuSans-31"/>
       <use xlink:href="#DejaVuSans-36" transform="translate(63.623047 0)"/>
       <use xlink:href="#DejaVuSans-30" transform="translate(127.246094 0)"/>
      </g>
     </g>
    </g>
    <g id="xtick_8">
     <g id="line2d_15">
      <path d="M 845.206443 228.954713 
L 845.206443 17.061433 
" clip-path="url(#pc1f5015369)" style="fill: none; stroke: #eef2f7; stroke-width: 0.55; stroke-linecap: square"/>
     </g>
     <g id="line2d_16">
      <g>
       <use xlink:href="#m42043eaf82" x="845.206443" y="228.954713" style="stroke: #000000; stroke-width: 0.8"/>
      </g>
     </g>
     <g id="text_8">
      <!-- 180 -->
      <g transform="translate(836.617068 242.793307) scale(0.09 -0.09)">
       <use xlink:href="#DejaVuSans-31"/>
       <use xlink:href="#DejaVuSans-38" transform="translate(63.623047 0)"/>
       <use xlink:href="#DejaVuSans-30" transform="translate(127.246094 0)"/>
      </g>
     </g>
    </g>
    <g id="text_9">
     <!-- Minutes since session start -->
     <g transform="translate(421.182344 256.263463) scale(0.1 -0.1)">
      <defs>
       <path id="DejaVuSans-4d" d="M 628 4666 
L 1569 4666 
L 2759 1491 
L 3956 4666 
L 4897 4666 
L 4897 0 
L 4281 0 
L 4281 4097 
L 3078 897 
L 2444 897 
L 1241 4097 
L 1241 0 
L 628 0 
L 628 4666 
z
" transform="scale(0.015625)"/>
       <path id="DejaVuSans-69" d="M 603 3500 
L 1178 3500 
L 1178 0 
L 603 0 
L 603 3500 
z
M 603 4863 
L 1178 4863 
L 1178 4134 
L 603 4134 
L 603 4863 
z
" transform="scale(0.015625)"/>
       <path id="DejaVuSans-6e" d="M 3513 2113 
L 3513 0 
L 2938 0 
L 2938 2094 
Q 2938 2591 2744 2837 
Q 2550 3084 2163 3084 
Q 1697 3084 1428 2787 
Q 1159 2491 1159 1978 
L 1159 0 
L 581 0 
L 581 3500 
L 1159 3500 
L 1159 2956 
Q 1366 3272 1645 3428 
Q 1925 3584 2291 3584 
Q 2894 3584 3203 3211 
Q 3513 2838 3513 2113 
z
" transform="scale(0.015625)"/>
       <path id="DejaVuSans-75" d="M 544 1381 
L 544 3500 
L 1119 3500 
L 1119 1403 
Q 1119 906 1312 657 
Q 1506 409 1894 409 
Q 2359 409 2629 706 
Q 2900 1003 2900 1516 
L 2900 3500 
L 3475 3500 
L 3475 0 
L 2900 0 
L 2900 538 
Q 2691 219 2414 64 
Q 2138 -91 1772 -91 
Q 1169 -91 856 284 
Q 544 659 544 1381 
z
M 1991 3584 
L 1991 3584 
z
" transform="scale(0.015625)"/>
       <path id="DejaVuSans-74" d="M 1172 4494 
L 1172 3500 
L 2356 3500 
L 2356 3053 
L 1172 3053 
L 1172 1153 
Q 1172 725 1289 603 
Q 1406 481 1766 481 
L 2356 481 
L 2356 0 
L 1766 0 
Q 1100 0 847 248 
Q 594 497 594 1153 
L 594 3053 
L 172 3053 
L 172 3500 
L 594 3500 
L 594 4494 
L 1172 4494 
z
" transform="scale(0.015625)"/>
       <path id="DejaVuSans-65" d="M 3597 1894 
L 3597 1613 
L 953 1613 
Q 991 1019 1311 708 
Q 1631 397 2203 397 
Q 2534 397 2845 478 
Q 3156 559 3463 722 
L 3463 178 
Q 3153 47 2828 -22 
Q 2503 -91 2169 -91 
Q 1331 -91 842 396 
Q 353 884 353 1716 
Q 353 2575 817 3079 
Q 1281 3584 2069 3584 
Q 2775 3584 3186 3129 
Q 3597 2675 3597 1894 
z
M 3022 2063 
Q 3016 2534 2758 2815 
Q 2500 3097 2075 3097 
Q 1594 3097 1305 2825 
Q 1016 2553 972 2059 
L 3022 2063 
z
" transform="scale(0.015625)"/>
       <path id="DejaVuSans-73" d="M 2834 3397 
L 2834 2853 
Q 2591 2978 2328 3040 
Q 2066 3103 1784 3103 
Q 1356 3103 1142 2972 
Q 928 2841 928 2578 
Q 928 2378 1081 2264 
Q 1234 2150 1697 2047 
L 1894 2003 
Q 2506 1872 2764 1633 
Q 3022 1394 3022 966 
Q 3022 478 2636 193 
Q 2250 -91 1575 -91 
Q 1294 -91 989 -36 
Q 684 19 347 128 
L 347 722 
Q 666 556 975 473 
Q 1284 391 1588 391 
Q 1994 391 2212 530 
Q 2431 669 2431 922 
Q 2431 1156 2273 1281 
Q 2116 1406 1581 1522 
L 1381 1569 
Q 847 1681 609 1914 
Q 372 2147 372 2553 
Q 372 3047 722 3315 
Q 1072 3584 1716 3584 
Q 2034 3584 2315 3537 
Q 2597 3491 2834 3397 
z
" transform="scale(0.015625)"/>
       <path id="DejaVuSans-20" transform="scale(0.015625)"/>
       <path id="DejaVuSans-63" d="M 3122 3366 
L 3122 2828 
Q 2878 2963 2633 3030 
Q 2388 3097 2138 3097 
Q 1578 3097 1268 2742 
Q 959 2388 959 1747 
Q 959 1106 1268 751 
Q 1578 397 2138 397 
Q 2388 397 2633 464 
Q 2878 531 3122 666 
L 3122 134 
Q 2881 22 2623 -34 
Q 2366 -91 2075 -91 
Q 1284 -91 818 406 
Q 353 903 353 1747 
Q 353 2603 823 3093 
Q 1294 3584 2113 3584 
Q 2378 3584 2631 3529 
Q 2884 3475 3122 3366 
z
" transform="scale(0.015625)"/>
       <path id="DejaVuSans-6f" d="M 1959 3097 
Q 1497 3097 1228 2736 
Q 959 2375 959 1747 
Q 959 1119 1226 758 
Q 1494 397 1959 397 
Q 2419 397 2687 759 
Q 2956 1122 2956 1747 
Q 2956 2369 2687 2733 
Q 2419 3097 1959 3097 
z
M 1959 3584 
Q 2709 3584 3137 3096 
Q 3566 2609 3566 1747 
Q 3566 888 3137 398 
Q 2709 -91 1959 -91 
Q 1206 -91 779 398 
Q 353 888 353 1747 
Q 353 2609 779 3096 
Q 1206 3584 1959 3584 
z
" transform="scale(0.015625)"/>
       <path id="DejaVuSans-61" d="M 2194 1759 
Q 1497 1759 1228 1600 
Q 959 1441 959 1056 
Q 959 750 1161 570 
Q 1363 391 1709 391 
Q 2188 391 2477 730 
Q 2766 1069 2766 1631 
L 2766 1759 
L 2194 1759 
z
M 3341 1997 
L 3341 0 
L 2766 0 
L 2766 531 
Q 2569 213 2275 61 
Q 1981 -91 1556 -91 
Q 1019 -91 701 211 
Q 384 513 384 1019 
Q 384 1609 779 1909 
Q 1175 2209 1959 2209 
L 2766 2209 
L 2766 2266 
Q 2766 2663 2505 2880 
Q 2244 3097 1772 3097 
Q 1472 3097 1187 3025 
Q 903 2953 641 2809 
L 641 3341 
Q 956 3463 1253 3523 
Q 1550 3584 1831 3584 
Q 2591 3584 2966 3190 
Q 3341 2797 3341 1997 
z
" transform="scale(0.015625)"/>
       <path id="DejaVuSans-72" d="M 2631 2963 
Q 2534 3019 2420 3045 
Q 2306 3072 2169 3072 
Q 1681 3072 1420 2755 
Q 1159 2438 1159 1844 
L 1159 0 
L 581 0 
L 581 3500 
L 1159 3500 
L 1159 2956 
Q 1341 3275 1631 3429 
Q 1922 3584 2338 3584 
Q 2397 3584 2469 3576 
Q 2541 3569 2628 3553 
L 2631 2963 
z
" transform="scale(0.015625)"/>
      </defs>
      <use xlink:href="#DejaVuSans-4d"/>
      <use xlink:href="#DejaVuSans-69" transform="translate(86.279297 0)"/>
      <use xlink:href="#DejaVuSans-6e" transform="translate(114.0625 0)"/>
      <use xlink:href="#DejaVuSans-75" transform="translate(177.441406 0)"/>
      <use xlink:href="#DejaVuSans-74" transform="translate(240.820312 0)"/>
      <use xlink:href="#DejaVuSans-65" transform="translate(280.029297 0)"/>
      <use xlink:href="#DejaVuSans-73" transform="translate(341.552734 0)"/>
      <use xlink:href="#DejaVuSans-20" transform="translate(393.652344 0)"/>
      <use xlink:href="#DejaVuSans-73" transform="translate(425.439453 0)"/>
      <use xlink:href="#DejaVuSans-69" transform="translate(477.539062 0)"/>
      <use xlink:href="#DejaVuSans-6e" transform="translate(505.322266 0)"/>
      <use xlink:href="#DejaVuSans-63" transform="translate(568.701172 0)"/>
      <use xlink:href="#DejaVuSans-65" transform="translate(623.681641 0)"/>
      <use xlink:href="#DejaVuSans-20" transform="translate(685.205078 0)"/>
      <use xlink:href="#DejaVuSans-73" transform="translate(716.992188 0)"/>
      <use xlink:href="#DejaVuSans-65" transform="translate(769.091797 0)"/>
      <use xlink:href="#DejaVuSans-73" transform="translate(830.615234 0)"/>
      <use xlink:href="#DejaVuSans-73" transform="translate(882.714844 0)"/>
      <use xlink:href="#DejaVuSans-69" transform="translate(934.814453 0)"/>
      <use xlink:href="#DejaVuSans-6f" transform="translate(962.597656 0)"/>
      <use xlink:href="#DejaVuSans-6e" transform="translate(1023.779297 0)"/>
      <use xlink:href="#DejaVuSans-20" transform="translate(1087.158203 0)"/>
      <use xlink:href="#DejaVuSans-73" transform="translate(1118.945312 0)"/>
      <use xlink:href="#DejaVuSans-74" transform="translate(1171.044922 0)"/>
      <use xlink:href="#DejaVuSans-61" transform="translate(1210.253906 0)"/>
      <use xlink:href="#DejaVuSans-72" transform="translate(1271.533203 0)"/>
      <use xlink:href="#DejaVuSans-74" transform="translate(1312.646484 0)"/>
     </g>
    </g>
   </g>
   <g id="matplotlib.axis_2">
    <g id="ytick_1">
     <g id="line2d_17">
      <path d="M 42.190938 219.3232 
L 935.353437 219.3232 
" clip-path="url(#pc1f5015369)" style="fill: none; stroke: #eef2f7; stroke-opacity: 0.25; stroke-width: 0.55; stroke-linecap: square"/>
     </g>
     <g id="line2d_18">
      <defs>
       <path id="me6a6f04c9e" d="M 0 0 
L -3.5 0 
" style="stroke: #000000; stroke-width: 0.8"/>
      </defs>
      <g>
       <use xlink:href="#me6a6f04c9e" x="42.190938" y="219.3232" style="stroke: #000000; stroke-width: 0.8"/>
      </g>
     </g>
     <g id="text_10">
      <!-- 0.0 -->
      <g transform="translate(20.878125 222.742497) scale(0.09 -0.09)">
       <defs>
        <path id="DejaVuSans-2e" d="M 684 794 
L 1344 794 
L 1344 0 
L 684 0 
L 684 794 
z
" transform="scale(0.015625)"/>
       </defs>
       <use xlink:href="#DejaVuSans-30"/>
       <use xlink:href="#DejaVuSans-2e" transform="translate(63.623047 0)"/>
       <use xlink:href="#DejaVuSans-30" transform="translate(95.410156 0)"/>
      </g>
     </g>
    </g>
    <g id="ytick_2">
     <g id="line2d_19">
      <path d="M 42.190938 193.775421 
L 935.353437 193.775421 
" clip-path="url(#pc1f5015369)" style="fill: none; stroke: #eef2f7; stroke-opacity: 0.25; stroke-width: 0.55; stroke-linecap: square"/>
     </g>
     <g id="line2d_20">
      <g>
       <use xlink:href="#me6a6f04c9e" x="42.190938" y="193.775421" style="stroke: #000000; stroke-width: 0.8"/>
      </g>
     </g>
     <g id="text_11">
      <!-- 0.1 -->
      <g transform="translate(20.878125 197.194718) scale(0.09 -0.09)">
       <use xlink:href="#DejaVuSans-30"/>
       <use xlink:href="#DejaVuSans-2e" transform="translate(63.623047 0)"/>
       <use xlink:href="#DejaVuSans-31" transform="translate(95.410156 0)"/>
      </g>
     </g>
    </g>
    <g id="ytick_3">
     <g id="line2d_21">
      <path d="M 42.190938 168.227642 
L 935.353437 168.227642 
" clip-path="url(#pc1f5015369)" style="fill: none; stroke: #eef2f7; stroke-opacity: 0.25; stroke-width: 0.55; stroke-linecap: square"/>
     </g>
     <g id="line2d_22">
      <g>
       <use xlink:href="#me6a6f04c9e" x="42.190938" y="168.227642" style="stroke: #000000; stroke-width: 0.8"/>
      </g>
     </g>
     <g id="text_12">
      <!-- 0.2 -->
      <g transform="translate(20.878125 171.646939) scale(0.09 -0.09)">
       <use xlink:href="#DejaVuSans-30"/>
       <use xlink:href="#DejaVuSans-2e" transform="translate(63.623047 0)"/>
       <use xlink:href="#DejaVuSans-32" transform="translate(95.410156 0)"/>
      </g>
     </g>
    </g>
    <g id="ytick_4">
     <g id="line2d_23">
      <path d="M 42.190938 142.679863 
L 935.353437 142.679863 
" clip-path="url(#pc1f5015369)" style="fill: none; stroke: #eef2f7; stroke-opacity: 0.25; stroke-width: 0.55; stroke-linecap: square"/>
     </g>
     <g id="line2d_24">
      <g>
       <use xlink:href="#me6a6f04c9e" x="42.190938" y="142.679863" style="stroke: #000000; stroke-width: 0.8"/>
      </g>
     </g>
     <g id="text_13">
      <!-- 0.3 -->
      <g transform="translate(20.878125 146.09916) scale(0.09 -0.09)">
       <defs>
        <path id="DejaVuSans-33" d="M 2597 2516 
Q 3050 2419 3304 2112 
Q 3559 1806 3559 1356 
Q 3559 666 3084 287 
Q 2609 -91 1734 -91 
Q 1441 -91 1130 -33 
Q 819 25 488 141 
L 488 750 
Q 750 597 1062 519 
Q 1375 441 1716 441 
Q 2309 441 2620 675 
Q 2931 909 2931 1356 
Q 2931 1769 2642 2001 
Q 2353 2234 1838 2234 
L 1294 2234 
L 1294 2753 
L 1863 2753 
Q 2328 2753 2575 2939 
Q 2822 3125 2822 3475 
Q 2822 3834 2567 4026 
Q 2313 4219 1838 4219 
Q 1578 4219 1281 4162 
Q 984 4106 628 3988 
L 628 4550 
Q 988 4650 1302 4700 
Q 1616 4750 1894 4750 
Q 2613 4750 3031 4423 
Q 3450 4097 3450 3541 
Q 3450 3153 3228 2886 
Q 3006 2619 2597 2516 
z
" transform="scale(0.015625)"/>
       </defs>
       <use xlink:href="#DejaVuSans-30"/>
       <use xlink:href="#DejaVuSans-2e" transform="translate(63.623047 0)"/>
       <use xlink:href="#DejaVuSans-33" transform="translate(95.410156 0)"/>
      </g>
     </g>
    </g>
    <g id="ytick_5">
     <g id="line2d_25">
      <path d="M 42.190938 117.132084 
L 935.353437 117.132084 
" clip-path="url(#pc1f5015369)" style="fill: none; stroke: #eef2f7; stroke-opacity: 0.25; stroke-width: 0.55; stroke-linecap: square"/>
     </g>
     <g id="line2d_26">
      <g>
       <use xlink:href="#me6a6f04c9e" x="42.190938" y="117.132084" style="stroke: #000000; stroke-width: 0.8"/>
      </g>
     </g>
     <g id="text_14">
      <!-- 0.4 -->
      <g transform="translate(20.878125 120.55138) scale(0.09 -0.09)">
       <use xlink:href="#DejaVuSans-30"/>
       <use xlink:href="#DejaVuSans-2e" transform="translate(63.623047 0)"/>
       <use xlink:href="#DejaVuSans-34" transform="translate(95.410156 0)"/>
      </g>
     </g>
    </g>
    <g id="ytick_6">
     <g id="line2d_27">
      <path d="M 42.190938 91.584304 
L 935.353437 91.584304 
" clip-path="url(#pc1f5015369)" style="fill: none; stroke: #eef2f7; stroke-opacity: 0.25; stroke-width: 0.55; stroke-linecap: square"/>
     </g>
     <g id="line2d_28">
      <g>
       <use xlink:href="#me6a6f04c9e" x="42.190938" y="91.584304" style="stroke: #000000; stroke-width: 0.8"/>
      </g>
     </g>
     <g id="text_15">
      <!-- 0.5 -->
      <g transform="translate(20.878125 95.003601) scale(0.09 -0.09)">
       <defs>
        <path id="DejaVuSans-35" d="M 691 4666 
L 3169 4666 
L 3169 4134 
L 1269 4134 
L 1269 2991 
Q 1406 3038 1543 3061 
Q 1681 3084 1819 3084 
Q 2600 3084 3056 2656 
Q 3513 2228 3513 1497 
Q 3513 744 3044 326 
Q 2575 -91 1722 -91 
Q 1428 -91 1123 -41 
Q 819 9 494 109 
L 494 744 
Q 775 591 1075 516 
Q 1375 441 1709 441 
Q 2250 441 2565 725 
Q 2881 1009 2881 1497 
Q 2881 1984 2565 2268 
Q 2250 2553 1709 2553 
Q 1456 2553 1204 2497 
Q 953 2441 691 2322 
L 691 4666 
z
" transform="scale(0.015625)"/>
       </defs>
       <use xlink:href="#DejaVuSans-30"/>
       <use xlink:href="#DejaVuSans-2e" transform="translate(63.623047 0)"/>
       <use xlink:href="#DejaVuSans-35" transform="translate(95.410156 0)"/>
      </g>
     </g>
    </g>
    <g id="ytick_7">
     <g id="line2d_29">
      <path d="M 42.190938 66.036525 
L 935.353437 66.036525 
" clip-path="url(#pc1f5015369)" style="fill: none; stroke: #eef2f7; stroke-opacity: 0.25; stroke-width: 0.55; stroke-linecap: square"/>
     </g>
     <g id="line2d_30">
      <g>
       <use xlink:href="#me6a6f04c9e" x="42.190938" y="66.036525" style="stroke: #000000; stroke-width: 0.8"/>
      </g>
     </g>
     <g id="text_16">
      <!-- 0.6 -->
      <g transform="translate(20.878125 69.455822) scale(0.09 -0.09)">
       <use xlink:href="#DejaVuSans-30"/>
       <use xlink:href="#DejaVuSans-2e" transform="translate(63.623047 0)"/>
       <use xlink:href="#DejaVuSans-36" transform="translate(95.410156 0)"/>
      </g>
     </g>
    </g>
    <g id="ytick_8">
     <g id="line2d_31">
      <path d="M 42.190938 40.488746 
L 935.353437 40.488746 
" clip-path="url(#pc1f5015369)" style="fill: none; stroke: #eef2f7; stroke-opacity: 0.25; stroke-width: 0.55; stroke-linecap: square"/>
     </g>
     <g id="line2d_32">
      <g>
       <use xlink:href="#me6a6f04c9e" x="42.190938" y="40.488746" style="stroke: #000000; stroke-width: 0.8"/>
      </g>
     </g>
     <g id="text_17">
      <!-- 0.7 -->
      <g transform="translate(20.878125 43.908043) scale(0.09 -0.09)">
       <defs>
        <path id="DejaVuSans-37" d="M 525 4666 
L 3525 4666 
L 3525 4397 
L 1831 0 
L 1172 0 
L 2766 4134 
L 525 4134 
L 525 4666 
z
" transform="scale(0.015625)"/>
       </defs>
       <use xlink:href="#DejaVuSans-30"/>
       <use xlink:href="#DejaVuSans-2e" transform="translate(63.623047 0)"/>
       <use xlink:href="#DejaVuSans-37" transform="translate(95.410156 0)"/>
      </g>
     </g>
    </g>
    <g id="text_18">
     <!-- Velocity (m/s) -->
     <g transform="translate(14.798438 157.273698) rotate(-90) scale(0.1 -0.1)">
      <defs>
       <path id="DejaVuSans-56" d="M 1831 0 
L 50 4666 
L 709 4666 
L 2188 738 
L 3669 4666 
L 4325 4666 
L 2547 0 
L 1831 0 
z
" transform="scale(0.015625)"/>
       <path id="DejaVuSans-6c" d="M 603 4863 
L 1178 4863 
L 1178 0 
L 603 0 
L 603 4863 
z
" transform="scale(0.015625)"/>
       <path id="DejaVuSans-79" d="M 2059 -325 
Q 1816 -950 1584 -1140 
Q 1353 -1331 966 -1331 
L 506 -1331 
L 506 -850 
L 844 -850 
Q 1081 -850 1212 -737 
Q 1344 -625 1503 -206 
L 1606 56 
L 191 3500 
L 800 3500 
L 1894 763 
L 2988 3500 
L 3597 3500 
L 2059 -325 
z
" transform="scale(0.015625)"/>
       <path id="DejaVuSans-28" d="M 1984 4856 
Q 1566 4138 1362 3434 
Q 1159 2731 1159 2009 
Q 1159 1288 1364 580 
Q 1569 -128 1984 -844 
L 1484 -844 
Q 1016 -109 783 600 
Q 550 1309 550 2009 
Q 550 2706 781 3412 
Q 1013 4119 1484 4856 
L 1984 4856 
z
" transform="scale(0.015625)"/>
       <path id="DejaVuSans-6d" d="M 3328 2828 
Q 3544 3216 3844 3400 
Q 4144 3584 4550 3584 
Q 5097 3584 5394 3201 
Q 5691 2819 5691 2113 
L 5691 0 
L 5113 0 
L 5113 2094 
Q 5113 2597 4934 2840 
Q 4756 3084 4391 3084 
Q 3944 3084 3684 2787 
Q 3425 2491 3425 1978 
L 3425 0 
L 2847 0 
L 2847 2094 
Q 2847 2600 2669 2842 
Q 2491 3084 2119 3084 
Q 1678 3084 1418 2786 
Q 1159 2488 1159 1978 
L 1159 0 
L 581 0 
L 581 3500 
L 1159 3500 
L 1159 2956 
Q 1356 3278 1631 3431 
Q 1906 3584 2284 3584 
Q 2666 3584 2933 3390 
Q 3200 3197 3328 2828 
z
" transform="scale(0.015625)"/>
       <path id="DejaVuSans-2f" d="M 1625 4666 
L 2156 4666 
L 531 -594 
L 0 -594 
L 1625 4666 
z
" transform="scale(0.015625)"/>
       <path id="DejaVuSans-29" d="M 513 4856 
L 1013 4856 
Q 1481 4119 1714 3412 
Q 1947 2706 1947 2009 
Q 1947 1309 1714 600 
Q 1481 -109 1013 -844 
L 513 -844 
Q 928 -128 1133 580 
Q 1338 1288 1338 2009 
Q 1338 2731 1133 3434 
Q 928 4138 513 4856 
z
" transform="scale(0.015625)"/>
      </defs>
      <use xlink:href="#DejaVuSans-56"/>
      <use xlink:href="#DejaVuSans-65" transform="translate(60.658203 0)"/>
      <use xlink:href="#DejaVuSans-6c" transform="translate(122.181641 0)"/>
      <use xlink:href="#DejaVuSans-6f" transform="translate(149.964844 0)"/>
      <use xlink:href="#DejaVuSans-63" transform="translate(211.146484 0)"/>
      <use xlink:href="#DejaVuSans-69" transform="translate(266.126953 0)"/>
      <use xlink:href="#DejaVuSans-74" transform="translate(293.910156 0)"/>
      <use xlink:href="#DejaVuSans-79" transform="translate(333.119141 0)"/>
      <use xlink:href="#DejaVuSans-20" transform="translate(392.298828 0)"/>
      <use xlink:href="#DejaVuSans-28" transform="translate(424.085938 0)"/>
      <use xlink:href="#DejaVuSans-6d" transform="translate(463.099609 0)"/>
      <use xlink:href="#DejaVuSans-2f" transform="translate(560.511719 0)"/>
      <use xlink:href="#DejaVuSans-73" transform="translate(594.203125 0)"/>
      <use xlink:href="#DejaVuSans-29" transform="translate(646.302734 0)"/>
     </g>
    </g>
   </g>
   <g id="line2d_33">
    <path d="M 59.367139 209.870522 
L 64.980277 207.826699 
L 70.593415 208.082177 
L 76.206553 205.527399 
L 81.819691 210.126 
L 87.432829 194.797332 
L 93.045967 203.228099 
L 98.659105 205.016444 
L 104.272242 206.038355 
L 109.88538 202.972621 
L 115.498518 201.184277 
L 121.111656 202.717144 
L 126.724794 200.928799 
L 132.337932 210.892433 
L 137.95107 206.549311 
L 143.564208 208.337655 
L 149.177346 219.067722 
L 154.790483 210.892433 
L 160.403621 206.549311 
L 166.016759 209.104088 
L 171.629897 206.804788 
L 177.243035 191.220643 
L 182.856173 206.038355 
L 188.469311 194.541854 
L 194.082449 202.717144 
L 199.695587 198.629499 
L 205.308724 203.228099 
L 210.921862 198.118543 
L 216.535 200.928799 
L 222.148138 193.264465 
L 227.761276 204.25001 
L 233.374414 206.549311 
L 238.987552 205.271922 
L 244.60069 213.191733 
L 250.213827 210.636955 
L 253.020396 214.7246 
L 255.826965 218.556767 
L 261.440103 210.126 
L 267.053241 208.848611 
L 272.666379 210.892433 
L 278.279517 211.914344 
L 283.892655 211.403389 
L 289.505793 206.804788 
L 295.118931 212.4253 
L 300.732068 208.848611 
L 306.345206 217.790333 
L 311.958344 217.279378 
L 317.571482 209.615044 
L 328.797758 209.870522 
L 334.410896 218.812244 
L 340.024034 217.790333 
L 345.637171 205.782877 
L 351.250309 209.870522 
L 356.863447 205.527399 
L 362.476585 209.359566 
L 368.089723 208.337655 
L 373.702861 206.804788 
L 379.315999 213.702689 
L 384.929137 204.760966 
L 390.542275 208.337655 
L 396.155412 213.447211 
L 401.76855 201.695232 
L 407.381688 208.848611 
L 412.994826 210.636955 
L 418.607964 202.206188 
L 424.221102 205.527399 
L 429.83424 206.038355 
L 435.447378 203.739055 
L 441.060515 208.593133 
L 446.673653 209.359566 
L 452.286791 208.082177 
L 457.899929 208.593133 
L 463.513067 213.447211 
L 469.126205 215.746511 
L 474.739343 207.571222 
L 480.352481 206.804788 
L 485.965619 216.257467 
L 491.578756 199.906888 
L 497.191894 196.330199 
L 508.41817 196.330199 
L 514.031308 192.498032 
L 519.644446 194.030899 
L 525.257584 201.184277 
L 530.870722 200.673321 
L 536.48386 197.607588 
L 542.096997 193.264465 
L 547.710135 209.104088 
L 553.323273 211.658866 
L 558.936411 206.293833 
L 564.549549 205.782877 
L 570.162687 207.060266 
L 572.969256 206.293833 
L 575.775825 205.271922 
L 581.388963 203.739055 
L 587.0021 211.658866 
L 592.615238 209.359566 
L 598.228376 211.914344 
L 603.841514 206.293833 
L 609.454652 202.717144 
L 615.06779 206.804788 
L 620.680928 204.25001 
L 626.294066 206.293833 
L 637.520341 207.315744 
L 643.133479 209.104088 
L 648.746617 218.045811 
L 654.359755 208.082177 
L 659.972893 208.082177 
L 665.586031 211.658866 
L 671.199169 213.191733 
L 676.812307 213.191733 
L 682.425444 206.293833 
L 688.038582 212.4253 
L 693.65172 208.082177 
L 699.264858 203.483577 
L 704.877996 204.505488 
L 710.491134 202.717144 
L 716.104272 210.636955 
L 721.71741 208.337655 
L 727.330548 206.549311 
L 732.943685 197.096632 
L 738.556823 191.987076 
L 744.169961 203.994533 
L 749.783099 207.060266 
L 755.396237 211.658866 
L 761.009375 207.826699 
L 766.622513 202.717144 
L 772.235651 208.593133 
L 777.848788 210.126 
L 783.461926 206.549311 
L 789.075064 208.848611 
L 794.688202 204.505488 
L 800.30134 206.804788 
L 805.914478 190.45421 
L 811.527616 197.863066 
L 817.140754 201.695232 
L 822.753892 197.35211 
L 828.367029 196.841154 
L 833.980167 195.308288 
L 839.593305 196.330199 
L 845.206443 190.198732 
L 850.819581 198.629499 
L 856.432719 195.05281 
L 862.045857 206.293833 
L 867.658995 207.571222 
L 873.272133 206.293833 
L 878.88527 198.374021 
L 884.498408 203.483577 
L 890.111546 204.505488 
L 895.724684 211.658866 
L 901.337822 207.826699 
L 906.95096 214.213644 
L 912.564098 210.126 
L 918.177236 205.016444 
L 918.177236 205.016444 
" clip-path="url(#pc1f5015369)" style="fill: none; stroke: #b8e3b2; stroke-opacity: 0.95; stroke-width: 1.3; stroke-linecap: square"/>
   </g>
   <g id="line2d_34">
    <path d="M 59.367139 207.315744 
L 64.980277 204.25001 
L 70.593415 206.549311 
L 76.206553 209.870522 
L 81.819691 208.593133 
L 87.432829 195.05281 
L 93.045967 201.695232 
L 98.659105 207.315744 
L 104.272242 205.527399 
L 109.88538 201.439755 
L 115.498518 203.994533 
L 121.111656 204.25001 
L 126.724794 205.271922 
L 132.337932 206.549311 
L 137.95107 204.505488 
L 143.564208 206.293833 
L 149.177346 212.169822 
L 154.790483 209.104088 
L 160.403621 216.257467 
L 166.016759 207.826699 
L 171.629897 209.615044 
L 177.243035 188.665865 
L 182.856173 198.374021 
L 188.469311 197.863066 
L 194.082449 191.987076 
L 199.695587 193.519943 
L 205.308724 192.75351 
L 210.921862 197.096632 
L 216.535 190.45421 
L 222.148138 195.05281 
L 227.761276 197.607588 
L 233.374414 199.65141 
L 238.987552 205.271922 
L 244.60069 208.082177 
L 253.020396 205.782877 
L 255.826965 204.760966 
L 261.440103 201.95071 
L 267.053241 206.549311 
L 272.666379 209.359566 
L 278.279517 206.293833 
L 283.892655 208.337655 
L 289.505793 205.271922 
L 295.118931 206.549311 
L 300.732068 213.191733 
L 306.345206 208.593133 
L 311.958344 208.082177 
L 328.797758 202.717144 
L 334.410896 206.549311 
L 340.024034 208.593133 
L 345.637171 208.848611 
L 351.250309 207.571222 
L 356.863447 206.804788 
L 362.476585 201.439755 
L 368.089723 207.826699 
L 379.315999 205.782877 
L 384.929137 208.337655 
L 390.542275 207.315744 
L 396.155412 204.505488 
L 401.76855 198.884977 
L 407.381688 196.074721 
L 412.994826 199.140455 
L 418.607964 203.994533 
L 424.221102 204.505488 
L 429.83424 199.906888 
L 435.447378 201.695232 
L 441.060515 208.082177 
L 446.673653 208.337655 
L 452.286791 205.016444 
L 457.899929 207.060266 
L 463.513067 207.060266 
L 469.126205 204.760966 
L 474.739343 206.293833 
L 480.352481 206.549311 
L 485.965619 202.461666 
L 491.578756 196.074721 
L 497.191894 189.176821 
L 502.805032 190.198732 
L 508.41817 199.906888 
L 514.031308 201.439755 
L 519.644446 197.096632 
L 525.257584 197.35211 
L 530.870722 194.541854 
L 536.48386 200.928799 
L 542.096997 191.731599 
L 547.710135 200.673321 
L 553.323273 207.060266 
L 558.936411 205.782877 
L 564.549549 206.038355 
L 570.162687 209.104088 
L 572.969256 209.359566 
L 575.775825 209.870522 
L 581.388963 204.760966 
L 587.0021 210.126 
L 592.615238 208.593133 
L 598.228376 211.147911 
L 603.841514 209.870522 
L 609.454652 209.359566 
L 615.06779 209.870522 
L 620.680928 209.104088 
L 626.294066 209.870522 
L 637.520341 206.804788 
L 643.133479 204.505488 
L 648.746617 205.016444 
L 654.359755 205.782877 
L 659.972893 208.337655 
L 665.586031 206.549311 
L 671.199169 206.549311 
L 682.425444 208.593133 
L 688.038582 198.629499 
L 693.65172 203.994533 
L 699.264858 206.804788 
L 704.877996 210.636955 
L 710.491134 210.381477 
L 716.104272 207.315744 
L 721.71741 207.571222 
L 727.330548 207.571222 
L 732.943685 200.162366 
L 738.556823 202.461666 
L 744.169961 199.906888 
L 755.396237 208.593133 
L 761.009375 213.958166 
L 766.622513 205.271922 
L 772.235651 207.060266 
L 777.848788 210.636955 
L 783.461926 204.25001 
L 789.075064 209.870522 
L 794.688202 218.556767 
L 800.30134 211.658866 
L 805.914478 184.067265 
L 811.527616 202.206188 
L 817.140754 198.884977 
L 822.753892 200.417844 
L 828.367029 193.775421 
L 833.980167 193.775421 
L 839.593305 197.096632 
L 845.206443 196.330199 
L 850.819581 202.717144 
L 856.432719 197.35211 
L 862.045857 206.293833 
L 867.658995 208.337655 
L 873.272133 203.739055 
L 878.88527 209.104088 
L 884.498408 209.359566 
L 890.111546 206.549311 
L 895.724684 209.104088 
L 901.337822 207.826699 
L 906.95096 207.060266 
L 912.564098 212.4253 
L 918.177236 207.315744 
L 918.177236 207.315744 
" clip-path="url(#pc1f5015369)" style="fill: none; stroke: #98d594; stroke-opacity: 0.95; stroke-width: 1.3; stroke-linecap: square"/>
   </g>
   <g id="line2d_35">
    <path d="M 59.367139 211.914344 
L 64.980277 212.936255 
L 70.593415 209.104088 
L 76.206553 214.7246 
L 81.819691 210.381477 
L 87.432829 79.065893 
L 93.045967 83.153537 
L 98.659105 87.49666 
L 104.272242 72.42347 
L 109.88538 88.774049 
L 115.498518 111.511572 
L 121.111656 147.022985 
L 126.724794 210.381477 
L 132.337932 209.104088 
L 137.95107 210.126 
L 149.177346 213.702689 
L 154.790483 210.126 
L 160.403621 218.301289 
L 166.016759 218.556767 
L 171.629897 210.636955 
L 177.243035 44.065435 
L 182.856173 58.627669 
L 188.469311 91.073349 
L 194.082449 58.883147 
L 199.695587 77.277548 
L 205.308724 53.262636 
L 210.921862 65.014614 
L 216.535 90.051438 
L 222.148138 37.933968 
L 227.761276 67.058437 
L 233.374414 207.571222 
L 238.987552 206.293833 
L 244.60069 209.359566 
L 250.213827 211.914344 
L 255.826965 209.359566 
L 261.440103 210.381477 
L 267.053241 213.191733 
L 272.666379 213.191733 
L 278.279517 211.147911 
L 283.892655 219.3232 
L 289.505793 210.381477 
L 295.118931 214.7246 
L 300.732068 213.702689 
L 306.345206 209.615044 
L 311.958344 211.658866 
L 317.571482 214.7246 
L 328.797758 217.0239 
L 334.410896 210.636955 
L 340.024034 210.381477 
L 345.637171 211.403389 
L 351.250309 211.914344 
L 356.863447 209.615044 
L 362.476585 210.892433 
L 368.089723 209.104088 
L 373.702861 210.126 
L 379.315999 210.892433 
L 384.929137 214.7246 
L 390.542275 208.337655 
L 396.155412 213.958166 
L 401.76855 167.716686 
L 407.381688 77.788504 
L 412.994826 79.576848 
L 418.607964 78.299459 
L 424.221102 87.49666 
L 429.83424 70.635126 
L 435.447378 144.979163 
L 441.060515 206.549311 
L 446.673653 207.826699 
L 452.286791 207.571222 
L 457.899929 208.337655 
L 463.513067 215.491033 
L 469.126205 211.914344 
L 474.739343 218.812244 
L 480.352481 210.381477 
L 485.965619 210.126 
L 491.578756 79.321371 
L 497.191894 49.430469 
L 502.805032 81.620671 
L 508.41817 65.52557 
L 514.031308 73.445381 
L 519.644446 66.292003 
L 525.257584 58.883147 
L 530.870722 54.029069 
L 536.48386 41.25518 
L 542.096997 51.729769 
L 547.710135 195.563765 
L 553.323273 205.271922 
L 558.936411 207.060266 
L 564.549549 214.469122 
L 570.162687 211.914344 
L 572.969256 210.892433 
L 575.775825 209.615044 
L 581.388963 210.636955 
L 587.0021 208.593133 
L 598.228376 209.615044 
L 603.841514 208.337655 
L 609.454652 208.593133 
L 615.06779 214.213644 
L 620.680928 209.359566 
L 626.294066 211.658866 
L 637.520341 210.126 
L 643.133479 210.892433 
L 648.746617 218.045811 
L 654.359755 210.381477 
L 659.972893 210.126 
L 665.586031 209.359566 
L 671.199169 212.4253 
L 676.812307 212.4253 
L 682.425444 214.7246 
L 688.038582 215.491033 
L 693.65172 209.104088 
L 699.264858 214.469122 
L 704.877996 211.403389 
L 710.491134 214.213644 
L 721.71741 209.104088 
L 727.330548 208.082177 
L 732.943685 77.533026 
L 738.556823 82.642582 
L 744.169961 75.489204 
L 749.783099 136.803874 
L 755.396237 214.213644 
L 761.009375 207.826699 
L 766.622513 212.680778 
L 772.235651 208.848611 
L 777.848788 209.359566 
L 783.461926 210.126 
L 789.075064 213.958166 
L 794.688202 217.534856 
L 800.30134 209.359566 
L 805.914478 53.518114 
L 811.527616 57.094803 
L 817.140754 53.773591 
L 822.753892 62.459836 
L 828.367029 83.664493 
L 833.980167 63.737225 
L 839.593305 72.167992 
L 845.206443 45.342824 
L 850.819581 74.72277 
L 856.432719 51.729769 
L 862.045857 201.184277 
L 867.658995 209.104088 
L 873.272133 207.571222 
L 878.88527 212.169822 
L 884.498408 217.534856 
L 890.111546 211.403389 
L 895.724684 209.359566 
L 901.337822 211.403389 
L 906.95096 210.126 
L 912.564098 213.191733 
L 918.177236 208.848611 
L 918.177236 208.848611 
" clip-path="url(#pc1f5015369)" style="fill: none; stroke: #73c476; stroke-opacity: 0.95; stroke-width: 1.3; stroke-linecap: square"/>
   </g>
   <g id="line2d_36">
    <path d="M 59.367139 208.848611 
L 64.980277 209.615044 
L 70.593415 207.571222 
L 76.206553 209.615044 
L 81.819691 208.337655 
L 87.432829 204.25001 
L 93.045967 203.739055 
L 98.659105 201.95071 
L 104.272242 201.439755 
L 109.88538 201.95071 
L 115.498518 200.162366 
L 121.111656 203.739055 
L 126.724794 208.337655 
L 132.337932 208.593133 
L 137.95107 209.104088 
L 143.564208 207.060266 
L 149.177346 207.315744 
L 154.790483 209.104088 
L 160.403621 210.126 
L 166.016759 208.082177 
L 171.629897 208.593133 
L 177.243035 200.673321 
L 182.856173 197.607588 
L 188.469311 184.322743 
L 194.082449 189.943254 
L 199.695587 181.257009 
L 205.308724 183.300832 
L 210.921862 185.855609 
L 216.535 185.344654 
L 222.148138 186.366565 
L 227.761276 194.286377 
L 233.374414 201.439755 
L 238.987552 207.060266 
L 244.60069 206.549311 
L 250.213827 207.315744 
L 253.020396 207.826699 
L 255.826965 208.082177 
L 261.440103 207.826699 
L 267.053241 207.315744 
L 272.666379 206.038355 
L 278.279517 207.060266 
L 283.892655 208.337655 
L 289.505793 207.060266 
L 295.118931 206.549311 
L 300.732068 208.082177 
L 306.345206 207.315744 
L 311.958344 208.082177 
L 317.571482 206.804788 
L 328.797758 207.060266 
L 334.410896 207.315744 
L 340.024034 206.293833 
L 345.637171 208.082177 
L 351.250309 208.848611 
L 356.863447 208.082177 
L 362.476585 207.571222 
L 368.089723 206.293833 
L 373.702861 207.826699 
L 384.929137 206.804788 
L 390.542275 208.337655 
L 396.155412 208.082177 
L 401.76855 205.271922 
L 407.381688 204.25001 
L 412.994826 201.95071 
L 418.607964 198.118543 
L 424.221102 202.461666 
L 429.83424 199.140455 
L 435.447378 203.739055 
L 441.060515 207.826699 
L 446.673653 205.527399 
L 452.286791 205.782877 
L 457.899929 205.527399 
L 463.513067 207.826699 
L 469.126205 208.082177 
L 474.739343 206.038355 
L 480.352481 207.060266 
L 485.965619 206.549311 
L 491.578756 203.994533 
L 497.191894 184.067265 
L 502.805032 178.957709 
L 508.41817 185.600132 
L 514.031308 177.424842 
L 519.644446 182.023443 
L 525.257584 180.490576 
L 530.870722 185.855609 
L 536.48386 185.089176 
L 542.096997 183.045354 
L 547.710135 195.563765 
L 553.323273 205.271922 
L 558.936411 206.804788 
L 564.549549 207.060266 
L 570.162687 205.527399 
L 572.969256 206.549311 
L 575.775825 207.315744 
L 581.388963 207.826699 
L 587.0021 204.760966 
L 592.615238 208.082177 
L 598.228376 206.293833 
L 603.841514 206.549311 
L 609.454652 207.826699 
L 620.680928 207.826699 
L 626.294066 206.804788 
L 637.520341 206.804788 
L 643.133479 207.060266 
L 648.746617 208.082177 
L 654.359755 207.571222 
L 659.972893 207.826699 
L 665.586031 206.549311 
L 671.199169 207.315744 
L 676.812307 206.804788 
L 682.425444 207.060266 
L 688.038582 206.038355 
L 693.65172 207.060266 
L 699.264858 206.038355 
L 704.877996 206.038355 
L 710.491134 207.826699 
L 716.104272 207.826699 
L 721.71741 207.315744 
L 727.330548 203.994533 
L 732.943685 201.95071 
L 738.556823 199.65141 
L 744.169961 198.374021 
L 749.783099 201.184277 
L 755.396237 208.337655 
L 761.009375 207.315744 
L 766.622513 206.804788 
L 772.235651 204.760966 
L 777.848788 206.804788 
L 789.075064 205.782877 
L 794.688202 208.593133 
L 800.30134 206.038355 
L 805.914478 195.308288 
L 811.527616 178.957709 
L 817.140754 176.658409 
L 822.753892 186.622043 
L 828.367029 186.622043 
L 833.980167 178.702231 
L 839.593305 191.987076 
L 845.206443 196.330199 
L 850.819581 189.176821 
L 856.432719 187.643954 
L 862.045857 196.330199 
L 867.658995 207.060266 
L 873.272133 205.527399 
L 878.88527 205.016444 
L 890.111546 207.060266 
L 895.724684 206.804788 
L 901.337822 207.315744 
L 906.95096 206.804788 
L 912.564098 207.315744 
L 918.177236 207.060266 
L 918.177236 207.060266 
" clip-path="url(#pc1f5015369)" style="fill: none; stroke: #4bb062; stroke-opacity: 0.95; stroke-width: 1.3; stroke-linecap: square"/>
   </g>
   <g id="line2d_37">
    <path d="M 59.367139 213.447211 
L 64.980277 215.491033 
L 70.593415 214.469122 
L 76.206553 211.914344 
L 81.819691 211.403389 
L 87.432829 197.607588 
L 93.045967 192.75351 
L 98.659105 184.833698 
L 104.272242 177.935798 
L 109.88538 187.899432 
L 115.498518 188.665865 
L 121.111656 198.629499 
L 126.724794 210.892433 
L 132.337932 212.4253 
L 137.95107 214.469122 
L 143.564208 214.980078 
L 149.177346 210.892433 
L 154.790483 215.746511 
L 160.403621 215.235555 
L 166.016759 213.447211 
L 171.629897 216.001989 
L 177.243035 197.607588 
L 182.856173 182.534398 
L 188.469311 169.249553 
L 194.082449 168.994075 
L 199.695587 152.898974 
L 205.308724 151.11063 
L 210.921862 163.884519 
L 216.535 157.242097 
L 222.148138 164.650953 
L 227.761276 180.235098 
L 233.374414 205.271922 
L 238.987552 209.615044 
L 244.60069 218.045811 
L 250.213827 210.381477 
L 255.826965 216.512944 
L 261.440103 211.914344 
L 267.053241 212.169822 
L 272.666379 213.958166 
L 278.279517 212.4253 
L 283.892655 212.680778 
L 289.505793 213.958166 
L 295.118931 212.4253 
L 300.732068 215.491033 
L 306.345206 214.980078 
L 311.958344 215.235555 
L 317.571482 212.4253 
L 328.797758 213.958166 
L 334.410896 215.746511 
L 340.024034 212.680778 
L 345.637171 212.4253 
L 351.250309 215.746511 
L 356.863447 215.235555 
L 362.476585 218.301289 
L 368.089723 212.4253 
L 373.702861 215.235555 
L 379.315999 212.169822 
L 384.929137 217.534856 
L 390.542275 212.169822 
L 396.155412 211.658866 
L 401.76855 207.315744 
L 407.381688 198.884977 
L 412.994826 200.162366 
L 418.607964 193.008988 
L 424.221102 192.242554 
L 429.83424 191.731599 
L 435.447378 203.228099 
L 441.060515 214.213644 
L 446.673653 214.469122 
L 452.286791 212.680778 
L 457.899929 214.7246 
L 463.513067 215.746511 
L 469.126205 213.702689 
L 474.739343 215.746511 
L 480.352481 212.680778 
L 485.965619 217.790333 
L 491.578756 201.184277 
L 497.191894 173.848153 
L 502.805032 158.00853 
L 508.41817 150.344196 
L 514.031308 119.431384 
L 519.644446 136.03744 
L 525.257584 155.198274 
L 530.870722 143.190818 
L 536.48386 144.212729 
L 542.096997 165.672864 
L 547.710135 190.709687 
L 553.323273 211.658866 
L 558.936411 212.4253 
L 564.549549 211.658866 
L 570.162687 214.469122 
L 572.969256 213.447211 
L 575.775825 212.169822 
L 581.388963 212.936255 
L 587.0021 214.980078 
L 592.615238 216.768422 
L 598.228376 212.680778 
L 603.841514 212.936255 
L 609.454652 213.447211 
L 615.06779 211.403389 
L 620.680928 212.4253 
L 626.294066 212.4253 
L 637.520341 212.936255 
L 643.133479 216.001989 
L 648.746617 212.680778 
L 654.359755 214.213644 
L 659.972893 212.936255 
L 665.586031 212.4253 
L 671.199169 216.257467 
L 676.812307 212.4253 
L 682.425444 214.980078 
L 688.038582 213.447211 
L 693.65172 214.213644 
L 699.264858 212.936255 
L 704.877996 214.469122 
L 710.491134 212.680778 
L 716.104272 212.169822 
L 721.71741 212.169822 
L 727.330548 208.848611 
L 732.943685 201.695232 
L 738.556823 184.322743 
L 744.169961 177.169365 
L 749.783099 199.906888 
L 755.396237 209.615044 
L 761.009375 210.892433 
L 766.622513 210.892433 
L 772.235651 212.680778 
L 777.848788 214.980078 
L 783.461926 214.980078 
L 789.075064 210.892433 
L 794.688202 218.556767 
L 800.30134 213.447211 
L 805.914478 193.519943 
L 811.527616 169.505031 
L 817.140754 147.278463 
L 822.753892 172.826242 
L 828.367029 155.198274 
L 833.980167 151.366108 
L 839.593305 149.833241 
L 845.206443 143.701774 
L 850.819581 137.314829 
L 856.432719 142.935341 
L 862.045857 199.65141 
L 867.658995 213.702689 
L 873.272133 215.491033 
L 878.88527 212.169822 
L 890.111546 214.213644 
L 895.724684 215.746511 
L 901.337822 215.235555 
L 906.95096 213.447211 
L 912.564098 214.469122 
L 918.177236 213.958166 
L 918.177236 213.958166 
" clip-path="url(#pc1f5015369)" style="fill: none; stroke: #2f974e; stroke-opacity: 0.95; stroke-width: 1.3; stroke-linecap: square"/>
   </g>
   <g id="line2d_38">
    <path d="M 59.367139 214.980078 
L 64.980277 208.848611 
L 70.593415 214.469122 
L 76.206553 219.3232 
L 81.819691 219.067722 
L 87.432829 75.489204 
L 93.045967 85.708315 
L 98.659105 90.051438 
L 104.272242 87.752138 
L 109.88538 97.715771 
L 115.498518 120.96425 
L 121.111656 155.453752 
L 126.724794 211.147911 
L 132.337932 214.469122 
L 137.95107 216.001989 
L 143.564208 213.447211 
L 149.177346 212.169822 
L 154.790483 219.3232 
L 160.403621 219.3232 
L 166.016759 219.067722 
L 171.629897 214.980078 
L 177.243035 34.101801 
L 182.856173 63.992703 
L 188.469311 73.445381 
L 194.082449 65.52557 
L 199.695587 62.715314 
L 205.308724 47.897602 
L 210.921862 65.52557 
L 216.535 74.211815 
L 222.148138 38.444924 
L 227.761276 57.605758 
L 233.374414 205.271922 
L 238.987552 207.826699 
L 250.213827 212.4253 
L 253.020396 210.892433 
L 255.826965 209.615044 
L 261.440103 215.746511 
L 267.053241 215.746511 
L 272.666379 214.7246 
L 278.279517 217.534856 
L 283.892655 214.7246 
L 289.505793 212.169822 
L 295.118931 218.045811 
L 300.732068 213.958166 
L 306.345206 211.914344 
L 311.958344 213.702689 
L 317.571482 215.235555 
L 328.797758 216.257467 
L 334.410896 217.534856 
L 345.637171 219.067722 
L 351.250309 210.636955 
L 356.863447 219.067722 
L 362.476585 215.491033 
L 368.089723 214.980078 
L 373.702861 217.0239 
L 379.315999 219.3232 
L 384.929137 219.3232 
L 390.542275 214.7246 
L 396.155412 208.848611 
L 401.76855 178.957709 
L 407.381688 63.737225 
L 412.994826 85.963793 
L 418.607964 78.043982 
L 424.221102 89.540482 
L 429.83424 81.365193 
L 435.447378 146.256552 
L 441.060515 206.549311 
L 446.673653 209.870522 
L 452.286791 208.848611 
L 457.899929 210.892433 
L 463.513067 219.3232 
L 469.126205 213.702689 
L 474.739343 217.279378 
L 480.352481 215.491033 
L 485.965619 217.279378 
L 491.578756 82.642582 
L 497.191894 26.948423 
L 502.805032 72.678948 
L 508.41817 64.503659 
L 514.031308 65.52557 
L 519.644446 70.635126 
L 525.257584 59.394103 
L 530.870722 63.22627 
L 536.48386 40.999702 
L 542.096997 66.036525 
L 547.710135 195.05281 
L 553.323273 206.549311 
L 558.936411 208.593133 
L 564.549549 218.045811 
L 570.162687 217.0239 
L 572.969256 218.045811 
L 575.775825 218.812244 
L 581.388963 216.768422 
L 587.0021 212.4253 
L 592.615238 217.534856 
L 598.228376 219.3232 
L 603.841514 211.403389 
L 609.454652 212.4253 
L 615.06779 219.3232 
L 620.680928 213.702689 
L 626.294066 218.301289 
L 637.520341 213.702689 
L 643.133479 216.257467 
L 648.746617 215.235555 
L 654.359755 217.534856 
L 659.972893 213.447211 
L 665.586031 212.4253 
L 671.199169 215.235555 
L 676.812307 214.980078 
L 682.425444 213.958166 
L 688.038582 215.746511 
L 693.65172 210.636955 
L 699.264858 213.958166 
L 704.877996 216.001989 
L 710.491134 219.3232 
L 716.104272 210.636955 
L 721.71741 208.593133 
L 727.330548 209.104088 
L 732.943685 56.328369 
L 738.556823 68.591303 
L 744.169961 66.292003 
L 749.783099 137.570307 
L 755.396237 214.980078 
L 761.009375 208.848611 
L 766.622513 213.447211 
L 772.235651 213.702689 
L 777.848788 217.0239 
L 783.461926 216.768422 
L 789.075064 215.491033 
L 794.688202 214.980078 
L 800.30134 216.257467 
L 805.914478 45.598302 
L 811.527616 36.912057 
L 817.140754 61.182447 
L 822.753892 70.12417 
L 828.367029 75.744681 
L 833.980167 48.664036 
L 839.593305 51.729769 
L 845.206443 26.692946 
L 850.819581 57.605758 
L 856.432719 45.598302 
L 862.045857 202.972621 
L 867.658995 213.191733 
L 873.272133 208.082177 
L 878.88527 213.702689 
L 884.498408 217.279378 
L 890.111546 219.3232 
L 895.724684 214.469122 
L 901.337822 219.3232 
L 906.95096 218.812244 
L 912.564098 214.213644 
L 918.177236 216.768422 
L 918.177236 216.768422 
" clip-path="url(#pc1f5015369)" style="fill: none; stroke: #157f3b; stroke-opacity: 0.95; stroke-width: 1.3; stroke-linecap: square"/>
   </g>
   <g id="patch_20">
    <path d="M 42.190938 228.954713 
L 42.190938 17.061433 
" style="fill: none; stroke: #cbd5e1; stroke-width: 0.8; stroke-linejoin: miter; stroke-linecap: square"/>
   </g>
   <g id="patch_21">
    <path d="M 935.353437 228.954713 
L 935.353437 17.061433 
" style="fill: none; stroke: #cbd5e1; stroke-width: 0.8; stroke-linejoin: miter; stroke-linecap: square"/>
   </g>
   <g id="patch_22">
    <path d="M 42.190938 228.954713 
L 935.353437 228.954713 
" style="fill: none; stroke: #cbd5e1; stroke-width: 0.8; stroke-linejoin: miter; stroke-linecap: square"/>
   </g>
   <g id="patch_23">
    <path d="M 42.190938 17.061433 
L 935.353437 17.061433 
" style="fill: none; stroke: #cbd5e1; stroke-width: 0.8; stroke-linejoin: miter; stroke-linecap: square"/>
   </g>
   <g id="text_19">
    <!-- ACC -->
    <g style="fill: #475569" transform="translate(42.526538 13.27875) scale(0.08 -0.08)">
     <defs>
      <path id="DejaVuSans-41" d="M 2188 4044 
L 1331 1722 
L 3047 1722 
L 2188 4044 
z
M 1831 4666 
L 2547 4666 
L 4325 0 
L 3669 0 
L 3244 1197 
L 1141 1197 
L 716 0 
L 50 0 
L 1831 4666 
z
" transform="scale(0.015625)"/>
      <path id="DejaVuSans-43" d="M 4122 4306 
L 4122 3641 
Q 3803 3938 3442 4084 
Q 3081 4231 2675 4231 
Q 1875 4231 1450 3742 
Q 1025 3253 1025 2328 
Q 1025 1406 1450 917 
Q 1875 428 2675 428 
Q 3081 428 3442 575 
Q 3803 722 4122 1019 
L 4122 359 
Q 3791 134 3420 21 
Q 3050 -91 2638 -91 
Q 1578 -91 968 557 
Q 359 1206 359 2328 
Q 359 3453 968 4101 
Q 1578 4750 2638 4750 
Q 3056 4750 3426 4639 
Q 3797 4528 4122 4306 
z
" transform="scale(0.015625)"/>
     </defs>
     <use xlink:href="#DejaVuSans-41"/>
     <use xlink:href="#DejaVuSans-43" transform="translate(66.658203 0)"/>
     <use xlink:href="#DejaVuSans-43" transform="translate(136.482422 0)"/>
    </g>
   </g>
   <g id="text_20">
    <!-- OC -->
    <g style="fill: #475569" transform="translate(70.264678 13.27875) scale(0.08 -0.08)">
     <defs>
      <path id="DejaVuSans-4f" d="M 2522 4238 
Q 1834 4238 1429 3725 
Q 1025 3213 1025 2328 
Q 1025 1447 1429 934 
Q 1834 422 2522 422 
Q 3209 422 3611 934 
Q 4013 1447 4013 2328 
Q 4013 3213 3611 3725 
Q 3209 4238 2522 4238 
z
M 2522 4750 
Q 3503 4750 4090 4092 
Q 4678 3434 4678 2328 
Q 4678 1225 4090 567 
Q 3503 -91 2522 -91 
Q 1538 -91 948 565 
Q 359 1222 359 2328 
Q 359 3434 948 4092 
Q 1538 4750 2522 4750 
z
" transform="scale(0.015625)"/>
     </defs>
     <use xlink:href="#DejaVuSans-4f"/>
     <use xlink:href="#DejaVuSans-43" transform="translate(78.710938 0)"/>
    </g>
   </g>
   <g id="text_21">
    <!-- FCS -->
    <g style="fill: #475569" transform="translate(102.252255 13.27875) scale(0.08 -0.08)">
     <defs>
      <path id="DejaVuSans-46" d="M 628 4666 
L 3309 4666 
L 3309 4134 
L 1259 4134 
L 1259 2759 
L 3109 2759 
L 3109 2228 
L 1259 2228 
L 1259 0 
L 628 0 
L 628 4666 
z
" transform="scale(0.015625)"/>
      <path id="DejaVuSans-53" d="M 3425 4513 
L 3425 3897 
Q 3066 4069 2747 4153 
Q 2428 4238 2131 4238 
Q 1616 4238 1336 4038 
Q 1056 3838 1056 3469 
Q 1056 3159 1242 3001 
Q 1428 2844 1947 2747 
L 2328 2669 
Q 3034 2534 3370 2195 
Q 3706 1856 3706 1288 
Q 3706 609 3251 259 
Q 2797 -91 1919 -91 
Q 1588 -91 1214 -16 
Q 841 59 441 206 
L 441 856 
Q 825 641 1194 531 
Q 1563 422 1919 422 
Q 2459 422 2753 634 
Q 3047 847 3047 1241 
Q 3047 1584 2836 1778 
Q 2625 1972 2144 2069 
L 1759 2144 
Q 1053 2284 737 2584 
Q 422 2884 422 3419 
Q 422 4038 858 4394 
Q 1294 4750 2059 4750 
Q 2388 4750 2728 4690 
Q 3069 4631 3425 4513 
z
" transform="scale(0.015625)"/>
     </defs>
     <use xlink:href="#DejaVuSans-46"/>
     <use xlink:href="#DejaVuSans-43" transform="translate(57.519531 0)"/>
     <use xlink:href="#DejaVuSans-53" transform="translate(127.34375 0)"/>
    </g>
   </g>
   <g id="text_22">
    <!-- SR -->
    <g style="fill: #475569" transform="translate(146.665164 13.27875) scale(0.08 -0.08)">
     <defs>
      <path id="DejaVuSans-52" d="M 2841 2188 
Q 3044 2119 3236 1894 
Q 3428 1669 3622 1275 
L 4263 0 
L 3584 0 
L 2988 1197 
Q 2756 1666 2539 1819 
Q 2322 1972 1947 1972 
L 1259 1972 
L 1259 0 
L 628 0 
L 628 4666 
L 2053 4666 
Q 2853 4666 3247 4331 
Q 3641 3997 3641 3322 
Q 3641 2881 3436 2590 
Q 3231 2300 2841 2188 
z
M 1259 4147 
L 1259 2491 
L 2053 2491 
Q 2509 2491 2742 2702 
Q 2975 2913 2975 3322 
Q 2975 3731 2742 3939 
Q 2509 4147 2053 4147 
L 1259 4147 
z
" transform="scale(0.015625)"/>
     </defs>
     <use xlink:href="#DejaVuSans-53"/>
     <use xlink:href="#DejaVuSans-52" transform="translate(63.476562 0)"/>
    </g>
   </g>
   <g id="text_23">
    <!-- FFC -->
    <g style="fill: #475569" transform="translate(197.914349 13.27875) scale(0.08 -0.08)">
     <use xlink:href="#DejaVuSans-46"/>
     <use xlink:href="#DejaVuSans-46" transform="translate(57.519531 0)"/>
     <use xlink:href="#DejaVuSans-43" transform="translate(115.039062 0)"/>
    </g>
   </g>
   <g id="text_24">
    <!-- SS -->
    <g style="fill: #475569" transform="translate(301.266456 13.27875) scale(0.08 -0.08)">
     <use xlink:href="#DejaVuSans-53"/>
     <use xlink:href="#DejaVuSans-53" transform="translate(63.476562 0)"/>
    </g>
   </g>
   <g id="text_25">
    <!-- OC -->
    <g style="fill: #475569" transform="translate(387.406968 13.27875) scale(0.08 -0.08)">
     <use xlink:href="#DejaVuSans-4f"/>
     <use xlink:href="#DejaVuSans-43" transform="translate(78.710938 0)"/>
    </g>
   </g>
   <g id="text_26">
    <!-- FCS -->
    <g style="fill: #475569" transform="translate(416.587977 13.27875) scale(0.08 -0.08)">
     <use xlink:href="#DejaVuSans-46"/>
     <use xlink:href="#DejaVuSans-43" transform="translate(57.519531 0)"/>
     <use xlink:href="#DejaVuSans-53" transform="translate(127.34375 0)"/>
    </g>
   </g>
   <g id="text_27">
    <!-- SR -->
    <g style="fill: #475569" transform="translate(461.000886 13.27875) scale(0.08 -0.08)">
     <use xlink:href="#DejaVuSans-53"/>
     <use xlink:href="#DejaVuSans-52" transform="translate(63.476562 0)"/>
    </g>
   </g>
   <g id="text_28">
    <!-- FFC -->
    <g style="fill: #475569" transform="translate(512.250071 13.27875) scale(0.08 -0.08)">
     <use xlink:href="#DejaVuSans-46"/>
     <use xlink:href="#DejaVuSans-46" transform="translate(57.519531 0)"/>
     <use xlink:href="#DejaVuSans-43" transform="translate(115.039062 0)"/>
    </g>
   </g>
   <g id="text_29">
    <!-- SS -->
    <g style="fill: #475569" transform="translate(615.602178 13.27875) scale(0.08 -0.08)">
     <use xlink:href="#DejaVuSans-53"/>
     <use xlink:href="#DejaVuSans-53" transform="translate(63.476562 0)"/>
    </g>
   </g>
   <g id="text_30">
    <!-- OC -->
    <g style="fill: #475569" transform="translate(701.74269 13.27875) scale(0.08 -0.08)">
     <use xlink:href="#DejaVuSans-4f"/>
     <use xlink:href="#DejaVuSans-43" transform="translate(78.710938 0)"/>
    </g>
   </g>
   <g id="text_31">
    <!-- FCS -->
    <g style="fill: #475569" transform="translate(730.923698 13.27875) scale(0.08 -0.08)">
     <use xlink:href="#DejaVuSans-46"/>
     <use xlink:href="#DejaVuSans-43" transform="translate(57.519531 0)"/>
     <use xlink:href="#DejaVuSans-53" transform="translate(127.34375 0)"/>
    </g>
   </g>
   <g id="text_32">
    <!-- SR -->
    <g style="fill: #475569" transform="translate(775.336607 13.27875) scale(0.08 -0.08)">
     <use xlink:href="#DejaVuSans-53"/>
     <use xlink:href="#DejaVuSans-52" transform="translate(63.476562 0)"/>
    </g>
   </g>
   <g id="text_33">
    <!-- FFC -->
    <g style="fill: #475569" transform="translate(826.585792 13.27875) scale(0.08 -0.08)">
     <use xlink:href="#DejaVuSans-46"/>
     <use xlink:href="#DejaVuSans-46" transform="translate(57.519531 0)"/>
     <use xlink:href="#DejaVuSans-43" transform="translate(115.039062 0)"/>
    </g>
   </g>
   <g id="text_34">
    <!-- SS -->
    <g style="fill: #475569" transform="translate(885.032796 13.27875) scale(0.08 -0.08)">
     <use xlink:href="#DejaVuSans-53"/>
     <use xlink:href="#DejaVuSans-53" transform="translate(63.476562 0)"/>
    </g>
   </g>
   <g id="legend_1">
    <g id="line2d_39">
     <path d="M 846.228437 27.540183 
L 854.228437 27.540183 
L 862.228437 27.540183 
" style="fill: none; stroke: #b8e3b2; stroke-opacity: 0.95; stroke-width: 1.3; stroke-linecap: square"/>
    </g>
    <g id="text_35">
     <!-- V1 -->
     <g transform="translate(868.628437 30.340183) scale(0.08 -0.08)">
      <use xlink:href="#DejaVuSans-56"/>
      <use xlink:href="#DejaVuSans-31" transform="translate(68.408203 0)"/>
     </g>
    </g>
    <g id="line2d_40">
     <path d="M 846.228437 39.282683 
L 854.228437 39.282683 
L 862.228437 39.282683 
" style="fill: none; stroke: #98d594; stroke-opacity: 0.95; stroke-width: 1.3; stroke-linecap: square"/>
    </g>
    <g id="text_36">
     <!-- V2 -->
     <g transform="translate(868.628437 42.082683) scale(0.08 -0.08)">
      <use xlink:href="#DejaVuSans-56"/>
      <use xlink:href="#DejaVuSans-32" transform="translate(68.408203 0)"/>
     </g>
    </g>
    <g id="line2d_41">
     <path d="M 846.228437 51.025183 
L 854.228437 51.025183 
L 862.228437 51.025183 
" style="fill: none; stroke: #73c476; stroke-opacity: 0.95; stroke-width: 1.3; stroke-linecap: square"/>
    </g>
    <g id="text_37">
     <!-- V3 -->
     <g transform="translate(868.628437 53.825183) scale(0.08 -0.08)">
      <use xlink:href="#DejaVuSans-56"/>
      <use xlink:href="#DejaVuSans-33" transform="translate(68.408203 0)"/>
     </g>
    </g>
    <g id="line2d_42">
     <path d="M 895.190937 27.540183 
L 903.190937 27.540183 
L 911.190937 27.540183 
" style="fill: none; stroke: #4bb062; stroke-opacity: 0.95; stroke-width: 1.3; stroke-linecap: square"/>
    </g>
    <g id="text_38">
     <!-- V4 -->
     <g transform="translate(917.590937 30.340183) scale(0.08 -0.08)">
      <use xlink:href="#DejaVuSans-56"/>
      <use xlink:href="#DejaVuSans-34" transform="translate(68.408203 0)"/>
     </g>
    </g>
    <g id="line2d_43">
     <path d="M 895.190937 39.282683 
L 903.190937 39.282683 
L 911.190937 39.282683 
" style="fill: none; stroke: #2f974e; stroke-opacity: 0.95; stroke-width: 1.3; stroke-linecap: square"/>
    </g>
    <g id="text_39">
     <!-- V5 -->
     <g transform="translate(917.590937 42.082683) scale(0.08 -0.08)">
      <use xlink:href="#DejaVuSans-56"/>
      <use xlink:href="#DejaVuSans-35" transform="translate(68.408203 0)"/>
     </g>
    </g>
    <g id="line2d_44">
     <path d="M 895.190937 51.025183 
L 903.190937 51.025183 
L 911.190937 51.025183 
" style="fill: none; stroke: #157f3b; stroke-opacity: 0.95; stroke-width: 1.3; stroke-linecap: square"/>
    </g>
    <g id="text_40">
     <!-- V6 -->
     <g transform="translate(917.590937 53.825183) scale(0.08 -0.08)">
      <use xlink:href="#DejaVuSans-56"/>
      <use xlink:href="#DejaVuSans-36" transform="translate(68.408203 0)"/>
     </g>
    </g>
   </g>
  </g>
 </g>
 <defs>
  <clipPath id="pc1f5015369">
   <rect x="42.190938" y="17.061433" width="893.1625" height="211.89328"/>
  </clipPath>
 </defs>
</svg>
