<?xml version="1.0" encoding="utf-8" standalone="no"?>
<!DOCTYPE svg PUBLIC "-//W3C//DTD SVG 1.1//EN"
  "http://www.w3.org/Graphics/SVG/1.1/DTD/svg11.dtd">
<svg xmlns:xlink="http://www.w3.org/1999/xlink" width="942.505625pt" height="265.54315pt" viewBox="0 0 942.505625 265.54315" xmlns="http://www.w3.org/2000/svg" version="1.1">
 <metadata>
  <rdf:RDF xmlns:dc="http://purl.org/dc/elements/1.1/" xmlns:cc="http://creativecommons.org/ns#" xmlns:rdf="http://www.w3.org/1999/02/22-rdf-syntax-ns#">
   <cc:Work>
    <dc:type rdf:resource="http://purl.org/dc/dcmitype/StillImage"/>
    <dc:date>2026-04-17T17:34:28.927819</dc:date>
    <dc:format>image/svg+xml</dc:format>
    <dc:creator>
     <cc:Agent>
      <dc:title>Matplotlib v3.10.8, https://matplotlib.org/</dc:title>
     </cc:Agent>
    </dc:creator>
   </cc:Work>
  </rdf:RDF>
 </metadata>
 <defs>
  <style type="text/css">*{stroke-linejoin: round; stroke-linecap: butt}</style>
 </defs>
 <g id="figure_1">
  <g id="patch_1">
   <path d="M 0 265.54315 
L 942.505625 265.54315 
L 942.505625 0 
L 0 0 
z
" style="fill: #ffffff"/>
  </g>
  <g id="axes_1">
   <g id="patch_2">
    <path d="M 39.330625 228.954713 
L 935.305625 228.954713 
L 935.305625 17.061433 
L 39.330625 17.061433 
z
" style="fill: #ffffff"/>
   </g>
   <g id="patch_3">
    <path d="M 39.330625 228.954713 
L 220.471215 228.954713 
L 220.471215 17.061433 
L 39.330625 17.061433 
z
" clip-path="url(#pca6df7b166)" style="fill: #f8fafc; opacity: 0.45"/>
   </g>
   <g id="patch_4">
    <path d="M 220.471215 228.954713 
L 252.170818 228.954713 
L 252.170818 17.061433 
L 220.471215 17.061433 
z
" clip-path="url(#pca6df7b166)" style="fill: #eff6ff; opacity: 0.45"/>
   </g>
   <g id="patch_5">
    <path d="M 252.170818 228.954713 
L 274.813392 228.954713 
L 274.813392 17.061433 
L 252.170818 17.061433 
z
" clip-path="url(#pca6df7b166)" style="fill: #fef3c7; opacity: 0.45"/>
   </g>
   <g id="patch_6">
    <path d="M 274.813392 228.954713 
L 315.570024 228.954713 
L 315.570024 17.061433 
L 274.813392 17.061433 
z
" clip-path="url(#pca6df7b166)" style="fill: #dcfce7; opacity: 0.45"/>
   </g>
   <g id="patch_7">
    <path d="M 315.570024 228.954713 
L 360.855172 228.954713 
L 360.855172 17.061433 
L 315.570024 17.061433 
z
" clip-path="url(#pca6df7b166)" style="fill: #fee2e2; opacity: 0.45"/>
   </g>
   <g id="patch_8">
    <path d="M 360.855172 228.954713 
L 365.383687 228.954713 
L 365.383687 17.061433 
L 360.855172 17.061433 
z
" clip-path="url(#pca6df7b166)" style="fill: #ede9fe; opacity: 0.45"/>
   </g>
   <g id="patch_9">
    <path d="M 365.383687 228.954713 
L 483.12507 228.954713 
L 483.12507 17.061433 
L 365.383687 17.061433 
z
" clip-path="url(#pca6df7b166)" style="fill: #f8fafc; opacity: 0.45"/>
   </g>
   <g id="patch_10">
    <path d="M 483.12507 228.954713 
L 505.767644 228.954713 
L 505.767644 17.061433 
L 483.12507 17.061433 
z
" clip-path="url(#pca6df7b166)" style="fill: #eff6ff; opacity: 0.45"/>
   </g>
   <g id="patch_11">
    <path d="M 505.767644 228.954713 
L 528.410218 228.954713 
L 528.410218 17.061433 
L 505.767644 17.061433 
z
" clip-path="url(#pca6df7b166)" style="fill: #fef3c7; opacity: 0.45"/>
   </g>
   <g id="patch_12">
    <path d="M 528.410218 228.954713 
L 569.16685 228.954713 
L 569.16685 17.061433 
L 528.410218 17.061433 
z
" clip-path="url(#pca6df7b166)" style="fill: #dcfce7; opacity: 0.45"/>
   </g>
   <g id="patch_13">
    <path d="M 569.16685 228.954713 
L 614.451998 228.954713 
L 614.451998 17.061433 
L 569.16685 17.061433 
z
" clip-path="url(#pca6df7b166)" style="fill: #fee2e2; opacity: 0.45"/>
   </g>
   <g id="patch_14">
    <path d="M 614.451998 228.954713 
L 618.980512 228.954713 
L 618.980512 17.061433 
L 614.451998 17.061433 
z
" clip-path="url(#pca6df7b166)" style="fill: #ede9fe; opacity: 0.45"/>
   </g>
   <g id="patch_15">
    <path d="M 618.980512 228.954713 
L 736.721896 228.954713 
L 736.721896 17.061433 
L 618.980512 17.061433 
z
" clip-path="url(#pca6df7b166)" style="fill: #f8fafc; opacity: 0.45"/>
   </g>
   <g id="patch_16">
    <path d="M 736.721896 228.954713 
L 759.36447 228.954713 
L 759.36447 17.061433 
L 736.721896 17.061433 
z
" clip-path="url(#pca6df7b166)" style="fill: #eff6ff; opacity: 0.45"/>
   </g>
   <g id="patch_17">
    <path d="M 759.36447 228.954713 
L 782.007043 228.954713 
L 782.007043 17.061433 
L 759.36447 17.061433 
z
" clip-path="url(#pca6df7b166)" style="fill: #fef3c7; opacity: 0.45"/>
   </g>
   <g id="patch_18">
    <path d="M 782.007043 228.954713 
L 822.763676 228.954713 
L 822.763676 17.061433 
L 782.007043 17.061433 
z
" clip-path="url(#pca6df7b166)" style="fill: #dcfce7; opacity: 0.45"/>
   </g>
   <g id="patch_19">
    <path d="M 822.763676 228.954713 
L 868.048823 228.954713 
L 868.048823 17.061433 
L 822.763676 17.061433 
z
" clip-path="url(#pca6df7b166)" style="fill: #fee2e2; opacity: 0.45"/>
   </g>
   <g id="patch_20">
    <path d="M 868.048823 228.954713 
L 872.577338 228.954713 
L 872.577338 17.061433 
L 868.048823 17.061433 
z
" clip-path="url(#pca6df7b166)" style="fill: #ede9fe; opacity: 0.45"/>
   </g>
   <g id="patch_21">
    <path d="M 872.577338 228.954713 
L 913.333971 228.954713 
L 913.333971 17.061433 
L 872.577338 17.061433 
z
" clip-path="url(#pca6df7b166)" style="fill: #f8fafc; opacity: 0.45"/>
   </g>
   <g id="patch_22">
    <path d="M 913.333971 228.954713 
L 917.862486 228.954713 
L 917.862486 17.061433 
L 913.333971 17.061433 
z
" clip-path="url(#pca6df7b166)" style="fill: #eff6ff; opacity: 0.45"/>
   </g>
   <g id="matplotlib.axis_1">
    <g id="xtick_1">
     <g id="line2d_1">
      <path d="M 39.330625 228.954713 
L 39.330625 17.061433 
" clip-path="url(#pca6df7b166)" style="fill: none; stroke: #eef2f7; stroke-width: 0.55; stroke-linecap: square"/>
     </g>
     <g id="line2d_2">
      <defs>
       <path id="mfff994b840" d="M 0 0 
L 0 3.5 
" style="stroke: #000000; stroke-width: 0.8"/>
      </defs>
      <g>
       <use xlink:href="#mfff994b840" x="39.330625" y="228.954713" style="stroke: #000000; stroke-width: 0.8"/>
      </g>
     </g>
     <g id="text_1">
      <!-- 0 -->
      <g transform="translate(36.4675 242.793307) scale(0.09 -0.09)">
       <defs>
        <path id="DejaVuSans-30" d="M 2034 4250 
Q 1547 4250 1301 3770 
Q 1056 3291 1056 2328 
Q 1056 1369 1301 889 
Q 1547 409 2034 409 
Q 2525 409 2770 889 
Q 3016 1369 3016 2328 
Q 3016 3291 2770 3770 
Q 2525 4250 2034 4250 
z
M 2034 4750 
Q 2819 4750 3233 4129 
Q 3647 3509 3647 2328 
Q 3647 1150 3233 529 
Q 2819 -91 2034 -91 
Q 1250 -91 836 529 
Q 422 1150 422 2328 
Q 422 3509 836 4129 
Q 1250 4750 2034 4750 
z
" transform="scale(0.015625)"/>
       </defs>
       <use xlink:href="#DejaVuSans-30"/>
      </g>
     </g>
    </g>
    <g id="xtick_2">
     <g id="line2d_3">
      <path d="M 152.543494 228.954713 
L 152.543494 17.061433 
" clip-path="url(#pca6df7b166)" style="fill: none; stroke: #eef2f7; stroke-width: 0.55; stroke-linecap: square"/>
     </g>
     <g id="line2d_4">
      <g>
       <use xlink:href="#mfff994b840" x="152.543494" y="228.954713" style="stroke: #000000; stroke-width: 0.8"/>
      </g>
     </g>
     <g id="text_2">
      <!-- 25 -->
      <g transform="translate(146.817244 242.793307) scale(0.09 -0.09)">
       <defs>
        <path id="DejaVuSans-32" d="M 1228 531 
L 3431 531 
L 3431 0 
L 469 0 
L 469 531 
Q 828 903 1448 1529 
Q 2069 2156 2228 2338 
Q 2531 2678 2651 2914 
Q 2772 3150 2772 3378 
Q 2772 3750 2511 3984 
Q 2250 4219 1831 4219 
Q 1534 4219 1204 4116 
Q 875 4013 500 3803 
L 500 4441 
Q 881 4594 1212 4672 
Q 1544 4750 1819 4750 
Q 2544 4750 2975 4387 
Q 3406 4025 3406 3419 
Q 3406 3131 3298 2873 
Q 3191 2616 2906 2266 
Q 2828 2175 2409 1742 
Q 1991 1309 1228 531 
z
" transform="scale(0.015625)"/>
        <path id="DejaVuSans-35" d="M 691 4666 
L 3169 4666 
L 3169 4134 
L 1269 4134 
L 1269 2991 
Q 1406 3038 1543 3061 
Q 1681 3084 1819 3084 
Q 2600 3084 3056 2656 
Q 3513 2228 3513 1497 
Q 3513 744 3044 326 
Q 2575 -91 1722 -91 
Q 1428 -91 1123 -41 
Q 819 9 494 109 
L 494 744 
Q 775 591 1075 516 
Q 1375 441 1709 441 
Q 2250 441 2565 725 
Q 2881 1009 2881 1497 
Q 2881 1984 2565 2268 
Q 2250 2553 1709 2553 
Q 1456 2553 1204 2497 
Q 953 2441 691 2322 
L 691 4666 
z
" transform="scale(0.015625)"/>
       </defs>
       <use xlink:href="#DejaVuSans-32"/>
       <use xlink:href="#DejaVuSans-35" transform="translate(63.623047 0)"/>
      </g>
     </g>
    </g>
    <g id="xtick_3">
     <g id="line2d_5">
      <path d="M 265.756362 228.954713 
L 265.756362 17.061433 
" clip-path="url(#pca6df7b166)" style="fill: none; stroke: #eef2f7; stroke-width: 0.55; stroke-linecap: square"/>
     </g>
     <g id="line2d_6">
      <g>
       <use xlink:href="#mfff994b840" x="265.756362" y="228.954713" style="stroke: #000000; stroke-width: 0.8"/>
      </g>
     </g>
     <g id="text_3">
      <!-- 50 -->
      <g transform="translate(260.030112 242.793307) scale(0.09 -0.09)">
       <use xlink:href="#DejaVuSans-35"/>
       <use xlink:href="#DejaVuSans-30" transform="translate(63.623047 0)"/>
      </g>
     </g>
    </g>
    <g id="xtick_4">
     <g id="line2d_7">
      <path d="M 378.969231 228.954713 
L 378.969231 17.061433 
" clip-path="url(#pca6df7b166)" style="fill: none; stroke: #eef2f7; stroke-width: 0.55; stroke-linecap: square"/>
     </g>
     <g id="line2d_8">
      <g>
       <use xlink:href="#mfff994b840" x="378.969231" y="228.954713" style="stroke: #000000; stroke-width: 0.8"/>
      </g>
     </g>
     <g id="text_4">
      <!-- 75 -->
      <g transform="translate(373.242981 242.793307) scale(0.09 -0.09)">
       <defs>
        <path id="DejaVuSans-37" d="M 525 4666 
L 3525 4666 
L 3525 4397 
L 1831 0 
L 1172 0 
L 2766 4134 
L 525 4134 
L 525 4666 
z
" transform="scale(0.015625)"/>
       </defs>
       <use xlink:href="#DejaVuSans-37"/>
       <use xlink:href="#DejaVuSans-35" transform="translate(63.623047 0)"/>
      </g>
     </g>
    </g>
    <g id="xtick_5">
     <g id="line2d_9">
      <path d="M 492.1821 228.954713 
L 492.1821 17.061433 
" clip-path="url(#pca6df7b166)" style="fill: none; stroke: #eef2f7; stroke-width: 0.55; stroke-linecap: square"/>
     </g>
     <g id="line2d_10">
      <g>
       <use xlink:href="#mfff994b840" x="492.1821" y="228.954713" style="stroke: #000000; stroke-width: 0.8"/>
      </g>
     </g>
     <g id="text_5">
      <!-- 100 -->
      <g transform="translate(483.592725 242.793307) scale(0.09 -0.09)">
       <defs>
        <path id="DejaVuSans-31" d="M 794 531 
L 1825 531 
L 1825 4091 
L 703 3866 
L 703 4441 
L 1819 4666 
L 2450 4666 
L 2450 531 
L 3481 531 
L 3481 0 
L 794 0 
L 794 531 
z
" transform="scale(0.015625)"/>
       </defs>
       <use xlink:href="#DejaVuSans-31"/>
       <use xlink:href="#DejaVuSans-30" transform="translate(63.623047 0)"/>
       <use xlink:href="#DejaVuSans-30" transform="translate(127.246094 0)"/>
      </g>
     </g>
    </g>
    <g id="xtick_6">
     <g id="line2d_11">
      <path d="M 605.394968 228.954713 
L 605.394968 17.061433 
" clip-path="url(#pca6df7b166)" style="fill: none; stroke: #eef2f7; stroke-width: 0.55; stroke-linecap: square"/>
     </g>
     <g id="line2d_12">
      <g>
       <use xlink:href="#mfff994b840" x="605.394968" y="228.954713" style="stroke: #000000; stroke-width: 0.8"/>
      </g>
     </g>
     <g id="text_6">
      <!-- 125 -->
      <g transform="translate(596.805593 242.793307) scale(0.09 -0.09)">
       <use xlink:href="#DejaVuSans-31"/>
       <use xlink:href="#DejaVuSans-32" transform="translate(63.623047 0)"/>
       <use xlink:href="#DejaVuSans-35" transform="translate(127.246094 0)"/>
      </g>
     </g>
    </g>
    <g id="xtick_7">
     <g id="line2d_13">
      <path d="M 718.607837 228.954713 
L 718.607837 17.061433 
" clip-path="url(#pca6df7b166)" style="fill: none; stroke: #eef2f7; stroke-width: 0.55; stroke-linecap: square"/>
     </g>
     <g id="line2d_14">
      <g>
       <use xlink:href="#mfff994b840" x="718.607837" y="228.954713" style="stroke: #000000; stroke-width: 0.8"/>
      </g>
     </g>
     <g id="text_7">
      <!-- 150 -->
      <g transform="translate(710.018462 242.793307) scale(0.09 -0.09)">
       <use xlink:href="#DejaVuSans-31"/>
       <use xlink:href="#DejaVuSans-35" transform="translate(63.623047 0)"/>
       <use xlink:href="#DejaVuSans-30" transform="translate(127.246094 0)"/>
      </g>
     </g>
    </g>
    <g id="xtick_8">
     <g id="line2d_15">
      <path d="M 831.820705 228.954713 
L 831.820705 17.061433 
" clip-path="url(#pca6df7b166)" style="fill: none; stroke: #eef2f7; stroke-width: 0.55; stroke-linecap: square"/>
     </g>
     <g id="line2d_16">
      <g>
       <use xlink:href="#mfff994b840" x="831.820705" y="228.954713" style="stroke: #000000; stroke-width: 0.8"/>
      </g>
     </g>
     <g id="text_8">
      <!-- 175 -->
      <g transform="translate(823.23133 242.793307) scale(0.09 -0.09)">
       <use xlink:href="#DejaVuSans-31"/>
       <use xlink:href="#DejaVuSans-37" transform="translate(63.623047 0)"/>
       <use xlink:href="#DejaVuSans-35" transform="translate(127.246094 0)"/>
      </g>
     </g>
    </g>
    <g id="text_9">
     <!-- Minutes since session start -->
     <g transform="translate(419.728281 256.263463) scale(0.1 -0.1)">
      <defs>
       <path id="DejaVuSans-4d" d="M 628 4666 
L 1569 4666 
L 2759 1491 
L 3956 4666 
L 4897 4666 
L 4897 0 
L 4281 0 
L 4281 4097 
L 3078 897 
L 2444 897 
L 1241 4097 
L 1241 0 
L 628 0 
L 628 4666 
z
" transform="scale(0.015625)"/>
       <path id="DejaVuSans-69" d="M 603 3500 
L 1178 3500 
L 1178 0 
L 603 0 
L 603 3500 
z
M 603 4863 
L 1178 4863 
L 1178 4134 
L 603 4134 
L 603 4863 
z
" transform="scale(0.015625)"/>
       <path id="DejaVuSans-6e" d="M 3513 2113 
L 3513 0 
L 2938 0 
L 2938 2094 
Q 2938 2591 2744 2837 
Q 2550 3084 2163 3084 
Q 1697 3084 1428 2787 
Q 1159 2491 1159 1978 
L 1159 0 
L 581 0 
L 581 3500 
L 1159 3500 
L 1159 2956 
Q 1366 3272 1645 3428 
Q 1925 3584 2291 3584 
Q 2894 3584 3203 3211 
Q 3513 2838 3513 2113 
z
" transform="scale(0.015625)"/>
       <path id="DejaVuSans-75" d="M 544 1381 
L 544 3500 
L 1119 3500 
L 1119 1403 
Q 1119 906 1312 657 
Q 1506 409 1894 409 
Q 2359 409 2629 706 
Q 2900 1003 2900 1516 
L 2900 3500 
L 3475 3500 
L 3475 0 
L 2900 0 
L 2900 538 
Q 2691 219 2414 64 
Q 2138 -91 1772 -91 
Q 1169 -91 856 284 
Q 544 659 544 1381 
z
M 1991 3584 
L 1991 3584 
z
" transform="scale(0.015625)"/>
       <path id="DejaVuSans-74" d="M 1172 4494 
L 1172 3500 
L 2356 3500 
L 2356 3053 
L 1172 3053 
L 1172 1153 
Q 1172 725 1289 603 
Q 1406 481 1766 481 
L 2356 481 
L 2356 0 
L 1766 0 
Q 1100 0 847 248 
Q 594 497 594 1153 
L 594 3053 
L 172 3053 
L 172 3500 
L 594 3500 
L 594 4494 
L 1172 4494 
z
" transform="scale(0.015625)"/>
       <path id="DejaVuSans-65" d="M 3597 1894 
L 3597 1613 
L 953 1613 
Q 991 1019 1311 708 
Q 1631 397 2203 397 
Q 2534 397 2845 478 
Q 3156 559 3463 722 
L 3463 178 
Q 3153 47 2828 -22 
Q 2503 -91 2169 -91 
Q 1331 -91 842 396 
Q 353 884 353 1716 
Q 353 2575 817 3079 
Q 1281 3584 2069 3584 
Q 2775 3584 3186 3129 
Q 3597 2675 3597 1894 
z
M 3022 2063 
Q 3016 2534 2758 2815 
Q 2500 3097 2075 3097 
Q 1594 3097 1305 2825 
Q 1016 2553 972 2059 
L 3022 2063 
z
" transform="scale(0.015625)"/>
       <path id="DejaVuSans-73" d="M 2834 3397 
L 2834 2853 
Q 2591 2978 2328 3040 
Q 2066 3103 1784 3103 
Q 1356 3103 1142 2972 
Q 928 2841 928 2578 
Q 928 2378 1081 2264 
Q 1234 2150 1697 2047 
L 1894 2003 
Q 2506 1872 2764 1633 
Q 3022 1394 3022 966 
Q 3022 478 2636 193 
Q 2250 -91 1575 -91 
Q 1294 -91 989 -36 
Q 684 19 347 128 
L 347 722 
Q 666 556 975 473 
Q 1284 391 1588 391 
Q 1994 391 2212 530 
Q 2431 669 2431 922 
Q 2431 1156 2273 1281 
Q 2116 1406 1581 1522 
L 1381 1569 
Q 847 1681 609 1914 
Q 372 2147 372 2553 
Q 372 3047 722 3315 
Q 1072 3584 1716 3584 
Q 2034 3584 2315 3537 
Q 2597 3491 2834 3397 
z
" transform="scale(0.015625)"/>
       <path id="DejaVuSans-20" transform="scale(0.015625)"/>
       <path id="DejaVuSans-63" d="M 3122 3366 
L 3122 2828 
Q 2878 2963 2633 3030 
Q 2388 3097 2138 3097 
Q 1578 3097 1268 2742 
Q 959 2388 959 1747 
Q 959 1106 1268 751 
Q 1578 397 2138 397 
Q 2388 397 2633 464 
Q 2878 531 3122 666 
L 3122 134 
Q 2881 22 2623 -34 
Q 2366 -91 2075 -91 
Q 1284 -91 818 406 
Q 353 903 353 1747 
Q 353 2603 823 3093 
Q 1294 3584 2113 3584 
Q 2378 3584 2631 3529 
Q 2884 3475 3122 3366 
z
" transform="scale(0.015625)"/>
       <path id="DejaVuSans-6f" d="M 1959 3097 
Q 1497 3097 1228 2736 
Q 959 2375 959 1747 
Q 959 1119 1226 758 
Q 1494 397 1959 397 
Q 2419 397 2687 759 
Q 2956 1122 2956 1747 
Q 2956 2369 2687 2733 
Q 2419 3097 1959 3097 
z
M 1959 3584 
Q 2709 3584 3137 3096 
Q 3566 2609 3566 1747 
Q 3566 888 3137 398 
Q 2709 -91 1959 -91 
Q 1206 -91 779 398 
Q 353 888 353 1747 
Q 353 2609 779 3096 
Q 1206 3584 1959 3584 
z
" transform="scale(0.015625)"/>
       <path id="DejaVuSans-61" d="M 2194 1759 
Q 1497 1759 1228 1600 
Q 959 1441 959 1056 
Q 959 750 1161 570 
Q 1363 391 1709 391 
Q 2188 391 2477 730 
Q 2766 1069 2766 1631 
L 2766 1759 
L 2194 1759 
z
M 3341 1997 
L 3341 0 
L 2766 0 
L 2766 531 
Q 2569 213 2275 61 
Q 1981 -91 1556 -91 
Q 1019 -91 701 211 
Q 384 513 384 1019 
Q 384 1609 779 1909 
Q 1175 2209 1959 2209 
L 2766 2209 
L 2766 2266 
Q 2766 2663 2505 2880 
Q 2244 3097 1772 3097 
Q 1472 3097 1187 3025 
Q 903 2953 641 2809 
L 641 3341 
Q 956 3463 1253 3523 
Q 1550 3584 1831 3584 
Q 2591 3584 2966 3190 
Q 3341 2797 3341 1997 
z
" transform="scale(0.015625)"/>
       <path id="DejaVuSans-72" d="M 2631 2963 
Q 2534 3019 2420 3045 
Q 2306 3072 2169 3072 
Q 1681 3072 1420 2755 
Q 1159 2438 1159 1844 
L 1159 0 
L 581 0 
L 581 3500 
L 1159 3500 
L 1159 2956 
Q 1341 3275 1631 3429 
Q 1922 3584 2338 3584 
Q 2397 3584 2469 3576 
Q 2541 3569 2628 3553 
L 2631 2963 
z
" transform="scale(0.015625)"/>
      </defs>
      <use xlink:href="#DejaVuSans-4d"/>
      <use xlink:href="#DejaVuSans-69" transform="translate(86.279297 0)"/>
      <use xlink:href="#DejaVuSans-6e" transform="translate(114.0625 0)"/>
      <use xlink:href="#DejaVuSans-75" transform="translate(177.441406 0)"/>
      <use xlink:href="#DejaVuSans-74" transform="translate(240.820312 0)"/>
      <use xlink:href="#DejaVuSans-65" transform="translate(280.029297 0)"/>
      <use xlink:href="#DejaVuSans-73" transform="translate(341.552734 0)"/>
      <use xlink:href="#DejaVuSans-20" transform="translate(393.652344 0)"/>
      <use xlink:href="#DejaVuSans-73" transform="translate(425.439453 0)"/>
      <use xlink:href="#DejaVuSans-69" transform="translate(477.539062 0)"/>
      <use xlink:href="#DejaVuSans-6e" transform="translate(505.322266 0)"/>
      <use xlink:href="#DejaVuSans-63" transform="translate(568.701172 0)"/>
      <use xlink:href="#DejaVuSans-65" transform="translate(623.681641 0)"/>
      <use xlink:href="#DejaVuSans-20" transform="translate(685.205078 0)"/>
      <use xlink:href="#DejaVuSans-73" transform="translate(716.992188 0)"/>
      <use xlink:href="#DejaVuSans-65" transform="translate(769.091797 0)"/>
      <use xlink:href="#DejaVuSans-73" transform="translate(830.615234 0)"/>
      <use xlink:href="#DejaVuSans-73" transform="translate(882.714844 0)"/>
      <use xlink:href="#DejaVuSans-69" transform="translate(934.814453 0)"/>
      <use xlink:href="#DejaVuSans-6f" transform="translate(962.597656 0)"/>
      <use xlink:href="#DejaVuSans-6e" transform="translate(1023.779297 0)"/>
      <use xlink:href="#DejaVuSans-20" transform="translate(1087.158203 0)"/>
      <use xlink:href="#DejaVuSans-73" transform="translate(1118.945312 0)"/>
      <use xlink:href="#DejaVuSans-74" transform="translate(1171.044922 0)"/>
      <use xlink:href="#DejaVuSans-61" transform="translate(1210.253906 0)"/>
      <use xlink:href="#DejaVuSans-72" transform="translate(1271.533203 0)"/>
      <use xlink:href="#DejaVuSans-74" transform="translate(1312.646484 0)"/>
     </g>
    </g>
   </g>
   <g id="matplotlib.axis_2">
    <g id="ytick_1">
     <g id="line2d_17">
      <path d="M 39.330625 192.79509 
L 935.305625 192.79509 
" clip-path="url(#pca6df7b166)" style="fill: none; stroke: #eef2f7; stroke-opacity: 0.25; stroke-width: 0.55; stroke-linecap: square"/>
     </g>
     <g id="line2d_18">
      <defs>
       <path id="m7668caefe1" d="M 0 0 
L -3.5 0 
" style="stroke: #000000; stroke-width: 0.8"/>
      </defs>
      <g>
       <use xlink:href="#m7668caefe1" x="39.330625" y="192.79509" style="stroke: #000000; stroke-width: 0.8"/>
      </g>
     </g>
     <g id="text_10">
      <!-- 31 -->
      <g transform="translate(20.878125 196.214387) scale(0.09 -0.09)">
       <defs>
        <path id="DejaVuSans-33" d="M 2597 2516 
Q 3050 2419 3304 2112 
Q 3559 1806 3559 1356 
Q 3559 666 3084 287 
Q 2609 -91 1734 -91 
Q 1441 -91 1130 -33 
Q 819 25 488 141 
L 488 750 
Q 750 597 1062 519 
Q 1375 441 1716 441 
Q 2309 441 2620 675 
Q 2931 909 2931 1356 
Q 2931 1769 2642 2001 
Q 2353 2234 1838 2234 
L 1294 2234 
L 1294 2753 
L 1863 2753 
Q 2328 2753 2575 2939 
Q 2822 3125 2822 3475 
Q 2822 3834 2567 4026 
Q 2313 4219 1838 4219 
Q 1578 4219 1281 4162 
Q 984 4106 628 3988 
L 628 4550 
Q 988 4650 1302 4700 
Q 1616 4750 1894 4750 
Q 2613 4750 3031 4423 
Q 3450 4097 3450 3541 
Q 3450 3153 3228 2886 
Q 3006 2619 2597 2516 
z
" transform="scale(0.015625)"/>
       </defs>
       <use xlink:href="#DejaVuSans-33"/>
       <use xlink:href="#DejaVuSans-31" transform="translate(63.623047 0)"/>
      </g>
     </g>
    </g>
    <g id="ytick_2">
     <g id="line2d_19">
      <path d="M 39.330625 154.208748 
L 935.305625 154.208748 
" clip-path="url(#pca6df7b166)" style="fill: none; stroke: #eef2f7; stroke-opacity: 0.25; stroke-width: 0.55; stroke-linecap: square"/>
     </g>
     <g id="line2d_20">
      <g>
       <use xlink:href="#m7668caefe1" x="39.330625" y="154.208748" style="stroke: #000000; stroke-width: 0.8"/>
      </g>
     </g>
     <g id="text_11">
      <!-- 32 -->
      <g transform="translate(20.878125 157.628045) scale(0.09 -0.09)">
       <use xlink:href="#DejaVuSans-33"/>
       <use xlink:href="#DejaVuSans-32" transform="translate(63.623047 0)"/>
      </g>
     </g>
    </g>
    <g id="ytick_3">
     <g id="line2d_21">
      <path d="M 39.330625 115.622406 
L 935.305625 115.622406 
" clip-path="url(#pca6df7b166)" style="fill: none; stroke: #eef2f7; stroke-opacity: 0.25; stroke-width: 0.55; stroke-linecap: square"/>
     </g>
     <g id="line2d_22">
      <g>
       <use xlink:href="#m7668caefe1" x="39.330625" y="115.622406" style="stroke: #000000; stroke-width: 0.8"/>
      </g>
     </g>
     <g id="text_12">
      <!-- 33 -->
      <g transform="translate(20.878125 119.041703) scale(0.09 -0.09)">
       <use xlink:href="#DejaVuSans-33"/>
       <use xlink:href="#DejaVuSans-33" transform="translate(63.623047 0)"/>
      </g>
     </g>
    </g>
    <g id="ytick_4">
     <g id="line2d_23">
      <path d="M 39.330625 77.036064 
L 935.305625 77.036064 
" clip-path="url(#pca6df7b166)" style="fill: none; stroke: #eef2f7; stroke-opacity: 0.25; stroke-width: 0.55; stroke-linecap: square"/>
     </g>
     <g id="line2d_24">
      <g>
       <use xlink:href="#m7668caefe1" x="39.330625" y="77.036064" style="stroke: #000000; stroke-width: 0.8"/>
      </g>
     </g>
     <g id="text_13">
      <!-- 34 -->
      <g transform="translate(20.878125 80.455361) scale(0.09 -0.09)">
       <defs>
        <path id="DejaVuSans-34" d="M 2419 4116 
L 825 1625 
L 2419 1625 
L 2419 4116 
z
M 2253 4666 
L 3047 4666 
L 3047 1625 
L 3713 1625 
L 3713 1100 
L 3047 1100 
L 3047 0 
L 2419 0 
L 2419 1100 
L 313 1100 
L 313 1709 
L 2253 4666 
z
" transform="scale(0.015625)"/>
       </defs>
       <use xlink:href="#DejaVuSans-33"/>
       <use xlink:href="#DejaVuSans-34" transform="translate(63.623047 0)"/>
      </g>
     </g>
    </g>
    <g id="ytick_5">
     <g id="line2d_25">
      <path d="M 39.330625 38.449722 
L 935.305625 38.449722 
" clip-path="url(#pca6df7b166)" style="fill: none; stroke: #eef2f7; stroke-opacity: 0.25; stroke-width: 0.55; stroke-linecap: square"/>
     </g>
     <g id="line2d_26">
      <g>
       <use xlink:href="#m7668caefe1" x="39.330625" y="38.449722" style="stroke: #000000; stroke-width: 0.8"/>
      </g>
     </g>
     <g id="text_14">
      <!-- 35 -->
      <g transform="translate(20.878125 41.869019) scale(0.09 -0.09)">
       <use xlink:href="#DejaVuSans-33"/>
       <use xlink:href="#DejaVuSans-35" transform="translate(63.623047 0)"/>
      </g>
     </g>
    </g>
    <g id="text_15">
     <!-- Temperature (C) -->
     <g transform="translate(14.798438 163.659635) rotate(-90) scale(0.1 -0.1)">
      <defs>
       <path id="DejaVuSans-54" d="M -19 4666 
L 3928 4666 
L 3928 4134 
L 2272 4134 
L 2272 0 
L 1638 0 
L 1638 4134 
L -19 4134 
L -19 4666 
z
" transform="scale(0.015625)"/>
       <path id="DejaVuSans-6d" d="M 3328 2828 
Q 3544 3216 3844 3400 
Q 4144 3584 4550 3584 
Q 5097 3584 5394 3201 
Q 5691 2819 5691 2113 
L 5691 0 
L 5113 0 
L 5113 2094 
Q 5113 2597 4934 2840 
Q 4756 3084 4391 3084 
Q 3944 3084 3684 2787 
Q 3425 2491 3425 1978 
L 3425 0 
L 2847 0 
L 2847 2094 
Q 2847 2600 2669 2842 
Q 2491 3084 2119 3084 
Q 1678 3084 1418 2786 
Q 1159 2488 1159 1978 
L 1159 0 
L 581 0 
L 581 3500 
L 1159 3500 
L 1159 2956 
Q 1356 3278 1631 3431 
Q 1906 3584 2284 3584 
Q 2666 3584 2933 3390 
Q 3200 3197 3328 2828 
z
" transform="scale(0.015625)"/>
       <path id="DejaVuSans-70" d="M 1159 525 
L 1159 -1331 
L 581 -1331 
L 581 3500 
L 1159 3500 
L 1159 2969 
Q 1341 3281 1617 3432 
Q 1894 3584 2278 3584 
Q 2916 3584 3314 3078 
Q 3713 2572 3713 1747 
Q 3713 922 3314 415 
Q 2916 -91 2278 -91 
Q 1894 -91 1617 61 
Q 1341 213 1159 525 
z
M 3116 1747 
Q 3116 2381 2855 2742 
Q 2594 3103 2138 3103 
Q 1681 3103 1420 2742 
Q 1159 2381 1159 1747 
Q 1159 1113 1420 752 
Q 1681 391 2138 391 
Q 2594 391 2855 752 
Q 3116 1113 3116 1747 
z
" transform="scale(0.015625)"/>
       <path id="DejaVuSans-28" d="M 1984 4856 
Q 1566 4138 1362 3434 
Q 1159 2731 1159 2009 
Q 1159 1288 1364 580 
Q 1569 -128 1984 -844 
L 1484 -844 
Q 1016 -109 783 600 
Q 550 1309 550 2009 
Q 550 2706 781 3412 
Q 1013 4119 1484 4856 
L 1984 4856 
z
" transform="scale(0.015625)"/>
       <path id="DejaVuSans-43" d="M 4122 4306 
L 4122 3641 
Q 3803 3938 3442 4084 
Q 3081 4231 2675 4231 
Q 1875 4231 1450 3742 
Q 1025 3253 1025 2328 
Q 1025 1406 1450 917 
Q 1875 428 2675 428 
Q 3081 428 3442 575 
Q 3803 722 4122 1019 
L 4122 359 
Q 3791 134 3420 21 
Q 3050 -91 2638 -91 
Q 1578 -91 968 557 
Q 359 1206 359 2328 
Q 359 3453 968 4101 
Q 1578 4750 2638 4750 
Q 3056 4750 3426 4639 
Q 3797 4528 4122 4306 
z
" transform="scale(0.015625)"/>
       <path id="DejaVuSans-29" d="M 513 4856 
L 1013 4856 
Q 1481 4119 1714 3412 
Q 1947 2706 1947 2009 
Q 1947 1309 1714 600 
Q 1481 -109 1013 -844 
L 513 -844 
Q 928 -128 1133 580 
Q 1338 1288 1338 2009 
Q 1338 2731 1133 3434 
Q 928 4138 513 4856 
z
" transform="scale(0.015625)"/>
      </defs>
      <use xlink:href="#DejaVuSans-54"/>
      <use xlink:href="#DejaVuSans-65" transform="translate(44.083984 0)"/>
      <use xlink:href="#DejaVuSans-6d" transform="translate(105.607422 0)"/>
      <use xlink:href="#DejaVuSans-70" transform="translate(203.019531 0)"/>
      <use xlink:href="#DejaVuSans-65" transform="translate(266.496094 0)"/>
      <use xlink:href="#DejaVuSans-72" transform="translate(328.019531 0)"/>
      <use xlink:href="#DejaVuSans-61" transform="translate(369.132812 0)"/>
      <use xlink:href="#DejaVuSans-74" transform="translate(430.412109 0)"/>
      <use xlink:href="#DejaVuSans-75" transform="translate(469.621094 0)"/>
      <use xlink:href="#DejaVuSans-72" transform="translate(533 0)"/>
      <use xlink:href="#DejaVuSans-65" transform="translate(571.863281 0)"/>
      <use xlink:href="#DejaVuSans-20" transform="translate(633.386719 0)"/>
      <use xlink:href="#DejaVuSans-28" transform="translate(665.173828 0)"/>
      <use xlink:href="#DejaVuSans-43" transform="translate(704.1875 0)"/>
      <use xlink:href="#DejaVuSans-29" transform="translate(774.011719 0)"/>
     </g>
    </g>
   </g>
   <g id="line2d_27">
    <path d="M 39.357097 218.117377 
L 39.960899 218.117377 
L 40.564701 218.720288 
L 40.866602 218.418833 
L 41.168503 219.3232 
L 41.470404 218.418833 
L 41.772305 218.418833 
L 42.074206 217.815921 
L 42.376106 217.514465 
L 42.678007 216.911554 
L 42.979908 217.213009 
L 43.281809 215.705731 
L 43.58371 214.801363 
L 44.187512 214.198452 
L 44.489413 213.59554 
L 44.791314 213.896996 
L 45.093215 213.294084 
L 45.395116 212.992628 
L 45.697017 212.389717 
L 46.300819 212.992628 
L 46.60272 211.786805 
L 46.904621 211.786805 
L 47.206522 211.485349 
L 47.508423 211.485349 
L 47.810324 210.279526 
L 48.112225 210.279526 
L 48.414126 210.882438 
L 48.716027 210.580982 
L 49.319829 208.470791 
L 49.62173 206.963512 
L 49.923631 206.059145 
L 51.131235 206.059145 
L 51.433136 206.662057 
L 51.735037 206.360601 
L 52.036938 206.360601 
L 52.338839 206.963512 
L 52.64074 206.662057 
L 52.942641 206.059145 
L 53.244542 207.264968 
L 53.546443 206.963512 
L 53.848344 207.264968 
L 54.452146 206.662057 
L 54.754047 206.662057 
L 55.055948 207.264968 
L 55.357849 206.662057 
L 55.65975 205.757689 
L 55.961651 206.360601 
L 56.565453 204.853322 
L 56.867354 204.551866 
L 57.169255 204.551866 
L 57.773057 203.948954 
L 58.074958 203.948954 
L 58.980661 202.14022 
L 59.282562 202.743131 
L 59.584463 202.14022 
L 59.886364 202.14022 
L 60.188264 201.235852 
L 60.490165 201.537308 
L 60.792066 200.934396 
L 61.093967 200.632941 
L 61.395868 199.728573 
L 61.99967 199.125662 
L 62.301571 198.52275 
L 62.603472 197.618383 
L 62.905373 197.919838 
L 63.207274 197.919838 
L 63.509175 197.015471 
L 63.811076 197.015471 
L 64.112977 196.412559 
L 64.414878 197.015471 
L 65.01868 196.412559 
L 65.320581 196.714015 
L 65.924383 195.508192 
L 66.226284 195.809648 
L 66.528185 195.206736 
L 66.830086 195.206736 
L 67.131987 194.302369 
L 67.433888 194.302369 
L 67.735789 193.398001 
L 68.339591 192.79509 
L 68.641492 192.192178 
L 68.943393 191.287811 
L 69.245294 191.287811 
L 69.547195 190.081988 
L 69.849096 190.684899 
L 70.150997 190.081988 
L 71.0567 187.368886 
L 71.358601 187.06743 
L 71.660502 186.464518 
L 71.962403 186.163062 
L 72.264304 185.560151 
L 72.566205 183.751416 
L 72.868106 183.44996 
L 73.471908 182.244137 
L 73.773809 182.244137 
L 74.07571 180.435402 
L 74.377611 179.832491 
L 74.679512 178.626667 
L 74.981413 178.626667 
L 75.585215 177.420844 
L 76.189017 175.612109 
L 76.490918 175.310654 
L 76.792819 174.707742 
L 77.09472 174.406286 
L 77.396621 173.803375 
L 77.698522 172.296096 
L 78.000422 171.693184 
L 78.302323 171.391728 
L 78.604224 169.884449 
L 78.906125 168.980082 
L 79.208026 168.678626 
L 79.509927 167.472803 
L 79.811828 167.171347 
L 80.113729 166.568436 
L 80.41563 165.061157 
L 81.019432 163.855333 
L 81.321333 162.950966 
L 81.623234 162.64951 
L 81.925135 161.745143 
L 82.227036 160.237864 
L 82.528937 160.840775 
L 82.830838 159.333496 
L 83.132739 158.730585 
L 83.43464 157.524762 
L 83.736541 157.223306 
L 84.038442 157.223306 
L 84.642244 154.510204 
L 84.944145 154.208748 
L 85.246046 152.701469 
L 85.547947 152.400013 
L 86.45365 149.988367 
L 86.755551 149.686911 
L 87.661254 146.973809 
L 87.963155 146.973809 
L 88.566957 144.863618 
L 88.868858 145.165074 
L 89.170759 143.657795 
L 89.47266 142.753428 
L 89.774561 142.753428 
L 90.076462 142.451972 
L 91.585967 138.231591 
L 91.887868 137.930135 
L 92.189769 137.327223 
L 92.49167 137.327223 
L 92.793571 137.025767 
L 93.095472 135.518488 
L 93.397373 135.518488 
L 94.001175 133.408298 
L 94.303076 133.408298 
L 94.604977 133.709754 
L 94.906878 132.202475 
L 95.208779 132.202475 
L 95.51068 130.996651 
L 95.81258 130.695196 
L 96.416382 129.489372 
L 97.020184 127.982093 
L 97.322085 127.680638 
L 97.623986 126.474814 
L 97.925887 126.474814 
L 98.529689 124.967535 
L 98.83159 124.364624 
L 99.435392 122.857345 
L 99.737293 122.555889 
L 100.039194 121.952978 
L 100.341095 121.651522 
L 100.944897 120.144243 
L 101.246798 120.445699 
L 101.548699 120.144243 
L 102.152501 118.636964 
L 102.454402 118.335508 
L 102.756303 118.335508 
L 103.058204 117.732596 
L 103.360105 116.828229 
L 103.662006 116.828229 
L 103.963907 116.225317 
L 104.265808 115.923862 
L 104.86961 115.923862 
L 105.171511 114.718038 
L 105.473412 114.115127 
L 105.775313 114.416583 
L 106.077214 113.512215 
L 106.681016 113.512215 
L 106.982917 112.306392 
L 107.284818 112.004936 
L 107.586719 112.306392 
L 107.88862 112.004936 
L 108.190521 112.004936 
L 108.794323 110.799113 
L 109.096224 110.799113 
L 109.700026 110.196201 
L 110.001927 110.196201 
L 110.605729 108.387467 
L 110.90763 108.688922 
L 111.209531 108.387467 
L 111.511432 107.181643 
L 111.813333 107.483099 
L 112.115234 106.578732 
L 112.417135 106.880188 
L 112.719036 106.277276 
L 113.322838 105.674364 
L 113.624738 105.071453 
L 113.926639 104.167085 
L 114.22854 103.86563 
L 114.530441 103.86563 
L 114.832342 103.262718 
L 115.134243 102.358351 
L 115.436144 102.056895 
L 115.738045 102.056895 
L 116.039946 101.152527 
L 116.341847 100.851072 
L 116.643748 101.152527 
L 116.945649 99.645249 
L 117.24755 99.343793 
L 117.549451 99.343793 
L 117.851352 99.042337 
L 118.153253 98.13797 
L 118.455154 98.439425 
L 118.757055 97.836514 
L 119.058956 97.836514 
L 119.360857 97.535058 
L 119.964659 96.027779 
L 120.26656 95.726323 
L 120.568461 96.027779 
L 121.172263 94.821956 
L 121.776065 94.219044 
L 122.077966 93.314677 
L 122.379867 93.616133 
L 122.983669 91.807398 
L 123.28557 91.807398 
L 123.587471 91.204486 
L 124.191273 90.601575 
L 124.493174 89.697207 
L 124.795075 89.697207 
L 125.096976 90.300119 
L 125.398877 88.491384 
L 125.700778 88.79284 
L 126.002679 88.491384 
L 126.30458 87.888472 
L 126.908382 87.888472 
L 127.210283 87.285561 
L 127.512184 86.381193 
L 127.814085 86.381193 
L 128.115986 85.778282 
L 129.021689 84.873914 
L 129.32359 84.271003 
L 129.625491 84.271003 
L 130.229293 82.763724 
L 130.531194 82.763724 
L 130.833095 82.160812 
L 131.436896 82.160812 
L 131.738797 81.256445 
L 132.040698 81.557901 
L 132.342599 80.653533 
L 132.6445 81.256445 
L 133.248302 79.44771 
L 133.550203 80.050622 
L 133.852104 80.050622 
L 134.154005 79.44771 
L 134.455906 79.146254 
L 134.757807 78.543343 
L 135.361609 78.543343 
L 136.267312 77.638975 
L 136.569213 77.940431 
L 137.173015 77.337519 
L 137.474916 76.734608 
L 137.776817 77.337519 
L 138.380619 76.131696 
L 138.68252 76.131696 
L 138.984421 76.433152 
L 139.286322 75.830241 
L 139.588223 74.925873 
L 139.890124 75.528785 
L 140.192025 75.227329 
L 140.493926 75.227329 
L 140.795827 74.624417 
L 141.097728 74.322962 
L 141.399629 73.72005 
L 141.70153 73.72005 
L 142.305332 73.117138 
L 142.607233 73.418594 
L 142.909134 72.815683 
L 143.211035 72.514227 
L 143.512936 72.514227 
L 143.814837 72.212771 
L 144.116738 72.514227 
L 145.022441 72.514227 
L 145.324342 71.911315 
L 145.626243 71.911315 
L 145.928144 71.609859 
L 146.230045 71.006948 
L 146.833847 71.006948 
L 147.437649 70.404036 
L 147.73955 70.705492 
L 148.041451 70.10258 
L 148.343352 70.404036 
L 148.645253 70.10258 
L 148.947154 69.499669 
L 149.249054 69.801125 
L 149.852856 68.595301 
L 150.154757 68.896757 
L 150.758559 68.293846 
L 151.06046 68.595301 
L 151.362361 68.293846 
L 151.664262 68.896757 
L 151.966163 67.690934 
L 152.268064 68.293846 
L 152.569965 67.088022 
L 152.871866 67.99239 
L 153.173767 67.088022 
L 153.777569 67.088022 
L 154.07947 66.485111 
L 154.381371 66.485111 
L 154.683272 66.786567 
L 154.985173 66.786567 
L 155.287074 65.882199 
L 155.588975 66.786567 
L 155.890876 66.183655 
L 156.192777 65.279288 
L 156.796577 65.882199 
L 157.098478 64.977832 
L 157.400379 65.279288 
L 157.70228 64.073464 
L 158.004181 64.676376 
L 158.306082 64.676376 
L 158.607983 64.073464 
L 158.909884 63.772009 
L 159.211785 63.169097 
L 159.815587 63.169097 
L 160.117488 63.470553 
L 160.419389 62.566185 
L 160.721289 63.169097 
L 161.02319 62.867641 
L 161.325091 62.867641 
L 161.928893 62.26473 
L 162.230794 62.26473 
L 162.532695 61.963274 
L 162.834596 61.360362 
L 163.136497 61.360362 
L 163.438398 61.058906 
L 164.0422 61.058906 
L 164.344101 61.360362 
L 164.646002 61.058906 
L 164.947903 60.455995 
L 165.249804 60.757451 
L 165.551705 61.360362 
L 165.853606 59.853083 
L 166.155507 59.551627 
L 166.457408 59.853083 
L 167.06121 59.250172 
L 167.363111 59.250172 
L 167.665012 58.948716 
L 167.966913 59.250172 
L 168.872616 58.345804 
L 169.174517 58.64726 
L 169.476418 58.345804 
L 169.778319 57.742893 
L 170.08022 58.044348 
L 170.684022 57.441437 
L 170.985923 57.742893 
L 171.287824 57.139981 
L 171.589725 57.742893 
L 171.891626 57.139981 
L 172.193527 57.441437 
L 172.495428 56.838525 
L 172.797329 57.139981 
L 173.401131 56.537069 
L 173.703032 56.537069 
L 174.004933 57.139981 
L 174.306834 56.235614 
L 175.514438 56.235614 
L 175.816339 55.934158 
L 176.11824 55.934158 
L 176.420141 55.632702 
L 176.722042 55.632702 
L 177.023943 55.331246 
L 177.325844 55.331246 
L 177.627745 55.934158 
L 177.929646 55.02979 
L 178.231547 55.331246 
L 178.533447 55.02979 
L 178.835348 55.331246 
L 179.137249 55.02979 
L 179.43915 55.331246 
L 179.741051 54.728335 
L 180.042952 54.728335 
L 180.344853 55.331246 
L 180.646754 54.125423 
L 180.948655 54.728335 
L 181.250556 54.426879 
L 181.552457 54.426879 
L 181.854358 53.823967 
L 182.156259 54.125423 
L 182.45816 54.125423 
L 182.760061 54.426879 
L 183.061962 53.823967 
L 183.363863 53.823967 
L 183.665764 53.221056 
L 183.967665 53.823967 
L 184.571467 53.221056 
L 184.873368 53.823967 
L 185.175269 52.9196 
L 185.779071 52.9196 
L 186.080972 53.221056 
L 186.382873 52.618144 
L 186.684774 52.9196 
L 186.986675 52.9196 
L 187.288576 52.316688 
L 187.590477 52.9196 
L 187.892378 52.618144 
L 188.194279 52.618144 
L 188.798081 52.015233 
L 189.099982 52.618144 
L 189.401883 52.618144 
L 189.703784 51.713777 
L 190.005685 51.713777 
L 190.307586 52.316688 
L 190.609487 51.412321 
L 190.911388 52.015233 
L 191.213289 51.713777 
L 191.51519 51.713777 
L 191.817091 51.412321 
L 192.118992 51.713777 
L 192.722794 51.110865 
L 193.024695 51.713777 
L 193.326596 51.713777 
L 193.628497 51.110865 
L 193.930398 51.412321 
L 194.232299 51.110865 
L 196.043705 51.110865 
L 196.345605 50.507954 
L 196.647506 50.507954 
L 197.553209 51.412321 
L 198.458912 50.507954 
L 198.760813 51.713777 
L 199.062714 50.507954 
L 200.572219 50.507954 
L 200.87412 49.905042 
L 201.176021 49.905042 
L 201.477922 50.507954 
L 201.779823 49.905042 
L 202.987427 49.905042 
L 203.289328 50.206498 
L 203.591229 49.603586 
L 203.89313 49.30213 
L 204.195031 49.603586 
L 204.496932 49.30213 
L 204.798833 49.905042 
L 205.100734 49.000675 
L 205.402635 49.000675 
L 206.006437 49.603586 
L 206.308338 49.30213 
L 206.610239 49.603586 
L 206.91214 49.603586 
L 207.214041 49.30213 
L 207.515942 49.30213 
L 207.817843 48.699219 
L 208.119744 49.30213 
L 208.421645 48.699219 
L 208.723546 48.397763 
L 209.025447 49.000675 
L 209.629249 48.397763 
L 210.233051 48.397763 
L 210.534952 48.699219 
L 210.836853 48.096307 
L 211.138754 49.000675 
L 211.440655 47.794851 
L 211.742556 48.397763 
L 212.044457 48.096307 
L 212.346358 48.096307 
L 212.95016 47.493396 
L 213.252061 48.096307 
L 213.553962 47.19194 
L 213.855863 47.493396 
L 214.157763 47.493396 
L 214.459664 47.794851 
L 214.761565 47.19194 
L 215.063466 47.19194 
L 215.365367 47.493396 
L 215.667268 47.19194 
L 215.969169 46.287572 
L 216.27107 47.19194 
L 216.572971 47.19194 
L 217.176773 45.986117 
L 217.478674 46.589028 
L 217.780575 46.287572 
L 218.082476 46.287572 
L 218.384377 45.986117 
L 218.686278 46.287572 
L 218.988179 45.684661 
L 219.29008 46.287572 
L 219.591981 46.589028 
L 219.893882 45.684661 
L 220.195783 46.287572 
L 220.497684 46.287572 
L 221.101486 45.684661 
L 221.403387 45.684661 
L 221.705288 45.986117 
L 222.007189 45.684661 
L 222.30909 45.986117 
L 222.610991 45.684661 
L 223.214793 45.684661 
L 223.516694 45.383205 
L 224.422397 45.383205 
L 224.724298 45.986117 
L 225.3281 45.383205 
L 225.630001 44.780293 
L 225.931902 44.478838 
L 226.233803 45.383205 
L 226.535704 45.383205 
L 226.837605 44.478838 
L 227.139506 45.081749 
L 227.441407 45.081749 
L 227.743308 44.780293 
L 228.34711 44.780293 
L 228.649011 44.478838 
L 228.950912 45.081749 
L 229.252813 44.780293 
L 229.554714 43.875926 
L 229.856615 44.780293 
L 230.460417 44.177382 
L 230.762318 44.478838 
L 231.064219 44.177382 
L 231.36612 44.177382 
L 231.668021 44.478838 
L 231.969921 44.177382 
L 232.271822 44.177382 
L 232.573723 43.273014 
L 232.875624 43.57447 
L 233.479426 43.57447 
L 233.781327 42.971559 
L 234.083228 43.273014 
L 234.385129 42.971559 
L 234.68703 42.971559 
L 234.988931 43.273014 
L 235.592733 42.670103 
L 235.894634 42.971559 
L 236.196535 43.57447 
L 236.498436 42.670103 
L 236.800337 42.368647 
L 237.102238 42.670103 
L 237.404139 42.368647 
L 237.70604 42.971559 
L 238.007941 42.670103 
L 238.611743 42.670103 
L 238.913644 42.067191 
L 239.215545 42.067191 
L 239.517446 42.670103 
L 239.819347 42.067191 
L 240.121248 42.067191 
L 240.423149 42.670103 
L 240.72505 42.067191 
L 241.026951 42.670103 
L 241.328852 42.368647 
L 241.630753 42.368647 
L 241.932654 42.971559 
L 242.234555 42.670103 
L 242.536456 42.067191 
L 242.838357 42.670103 
L 243.140258 42.670103 
L 243.442159 42.971559 
L 243.74406 42.670103 
L 244.347862 43.273014 
L 244.951664 42.670103 
L 245.253565 42.971559 
L 245.555466 43.57447 
L 245.857367 43.273014 
L 246.461169 43.875926 
L 246.76307 43.57447 
L 247.064971 42.971559 
L 247.366872 43.57447 
L 247.668773 43.57447 
L 247.970674 44.177382 
L 248.272575 43.57447 
L 248.574476 44.177382 
L 248.876377 44.177382 
L 249.178278 43.875926 
L 249.782079 44.478838 
L 250.08398 44.478838 
L 250.385881 44.177382 
L 250.989683 44.177382 
L 251.291584 44.478838 
L 251.593485 45.383205 
L 251.895386 44.780293 
L 252.499188 44.780293 
L 252.801089 45.684661 
L 253.10299 45.081749 
L 253.404891 45.383205 
L 253.706792 44.478838 
L 254.008693 45.081749 
L 254.310594 45.081749 
L 254.914396 44.478838 
L 255.216297 45.081749 
L 255.518198 44.780293 
L 255.820099 44.780293 
L 256.122 45.081749 
L 256.725802 44.478838 
L 257.027703 45.081749 
L 257.933406 45.081749 
L 258.235307 44.780293 
L 258.537208 45.383205 
L 259.14101 44.780293 
L 259.744812 44.780293 
L 260.046713 45.081749 
L 260.348614 45.081749 
L 260.650515 44.478838 
L 260.952416 45.383205 
L 261.254317 44.478838 
L 261.858119 45.081749 
L 262.16002 44.478838 
L 262.763822 45.081749 
L 263.065723 44.780293 
L 263.669525 44.780293 
L 264.273327 45.383205 
L 264.575228 44.780293 
L 264.877129 44.478838 
L 265.17903 44.780293 
L 265.480931 44.780293 
L 265.782832 44.478838 
L 266.084733 44.780293 
L 266.386634 44.780293 
L 266.688535 44.177382 
L 266.990436 45.081749 
L 267.292337 44.780293 
L 267.594237 45.081749 
L 267.896138 44.177382 
L 268.198039 45.383205 
L 268.49994 44.780293 
L 269.103742 44.780293 
L 269.405643 44.478838 
L 269.707544 45.383205 
L 270.009445 44.780293 
L 270.311346 44.478838 
L 270.613247 44.780293 
L 271.51895 44.780293 
L 271.820851 44.478838 
L 272.122752 44.478838 
L 272.424653 44.780293 
L 272.726554 44.177382 
L 273.330356 44.780293 
L 273.632257 44.478838 
L 273.934158 44.780293 
L 274.236059 44.478838 
L 274.53796 44.780293 
L 274.839861 44.478838 
L 275.443663 44.478838 
L 276.047465 43.875926 
L 276.349366 44.177382 
L 276.651267 44.780293 
L 276.953168 43.57447 
L 277.255069 44.177382 
L 277.55697 44.478838 
L 277.858871 44.177382 
L 278.160772 44.177382 
L 278.462673 44.478838 
L 279.368376 44.478838 
L 279.670277 44.177382 
L 279.972178 44.478838 
L 280.274079 43.875926 
L 280.877881 43.875926 
L 281.179782 44.177382 
L 281.783584 42.971559 
L 282.085485 43.273014 
L 282.387386 43.273014 
L 282.689287 43.875926 
L 282.991188 43.273014 
L 283.293089 42.971559 
L 283.59499 43.273014 
L 283.896891 43.273014 
L 284.198792 42.971559 
L 284.500693 42.971559 
L 284.802594 43.273014 
L 285.406395 42.067191 
L 285.708296 42.368647 
L 286.312098 41.765735 
L 286.613999 41.765735 
L 286.9159 42.368647 
L 287.217801 41.765735 
L 287.519702 41.46428 
L 287.821603 41.765735 
L 288.727306 40.861368 
L 289.029207 41.46428 
L 289.331108 40.559912 
L 289.633009 40.861368 
L 289.93491 41.46428 
L 290.236811 40.258456 
L 290.538712 40.258456 
L 290.840613 41.162824 
L 291.142514 40.861368 
L 291.444415 39.957001 
L 291.746316 39.957001 
L 292.048217 40.258456 
L 292.953918 40.258456 
L 293.255819 39.957001 
L 293.55772 39.957001 
L 293.859621 39.655545 
L 294.161522 40.559912 
L 294.463423 39.957001 
L 294.765324 39.957001 
L 295.067225 39.655545 
L 295.972928 39.655545 
L 296.274829 39.354089 
L 296.57673 39.655545 
L 296.878631 39.354089 
L 297.180532 38.751177 
L 297.482433 39.354089 
L 297.784334 39.354089 
L 298.086235 39.052633 
L 298.388136 39.354089 
L 298.690037 39.354089 
L 298.991938 39.052633 
L 299.293839 39.957001 
L 299.59574 38.751177 
L 299.897641 38.751177 
L 300.199542 39.052633 
L 300.501443 39.052633 
L 300.803344 38.449722 
L 301.407146 39.052633 
L 301.709047 38.449722 
L 302.010948 38.751177 
L 302.312849 39.354089 
L 302.61475 38.148266 
L 302.916651 38.751177 
L 303.218552 38.449722 
L 303.520453 38.449722 
L 303.822354 38.751177 
L 304.124255 38.449722 
L 304.426156 38.449722 
L 305.029958 37.84681 
L 305.331859 38.751177 
L 305.63376 38.751177 
L 305.935661 38.449722 
L 306.237562 38.449722 
L 306.539463 37.84681 
L 306.841364 38.148266 
L 307.143265 37.84681 
L 307.445166 38.148266 
L 307.747067 37.545354 
L 308.048968 37.84681 
L 308.350869 37.84681 
L 308.65277 37.243898 
L 309.558473 37.243898 
L 309.860374 37.545354 
L 310.162275 37.545354 
L 310.464176 37.243898 
L 310.766077 37.84681 
L 311.369879 37.84681 
L 311.67178 37.243898 
L 311.973681 37.545354 
L 312.275582 37.545354 
L 312.879384 36.942443 
L 313.181285 37.243898 
L 313.483186 37.84681 
L 313.785087 36.942443 
L 314.086988 37.243898 
L 314.388889 36.942443 
L 314.69079 37.545354 
L 314.992691 37.243898 
L 315.294592 37.84681 
L 315.596493 36.942443 
L 315.898394 37.243898 
L 317.7098 37.243898 
L 318.011701 36.038075 
L 318.313602 36.640987 
L 318.615503 36.339531 
L 318.917404 36.339531 
L 319.219305 36.038075 
L 319.823107 36.640987 
L 320.125008 36.038075 
L 320.426909 36.038075 
L 320.72881 36.640987 
L 321.030711 36.038075 
L 321.332612 36.339531 
L 321.936414 35.736619 
L 322.238315 36.038075 
L 322.540216 35.736619 
L 322.842117 35.736619 
L 323.144018 36.038075 
L 323.74782 36.038075 
L 324.049721 35.736619 
L 324.351622 35.133708 
L 324.955424 36.339531 
L 325.257325 36.339531 
L 325.559226 35.435164 
L 325.861127 35.736619 
L 326.163028 35.736619 
L 326.464929 36.339531 
L 326.76683 36.038075 
L 327.370632 36.038075 
L 327.672533 36.640987 
L 327.974434 35.736619 
L 328.276335 36.339531 
L 328.578236 36.339531 
L 328.880137 36.640987 
L 330.087741 36.640987 
L 330.389642 36.339531 
L 330.691543 36.640987 
L 331.295345 36.640987 
L 331.597246 36.339531 
L 331.899147 36.942443 
L 332.201048 36.640987 
L 332.502949 37.243898 
L 332.80485 37.243898 
L 333.106751 36.942443 
L 333.408652 37.243898 
L 334.616256 37.243898 
L 334.918157 37.545354 
L 335.220058 36.942443 
L 335.82386 38.148266 
L 336.125761 37.243898 
L 336.427662 37.243898 
L 337.031464 37.84681 
L 337.333365 37.84681 
L 337.937167 38.449722 
L 338.239068 37.545354 
L 338.540969 37.84681 
L 338.84287 38.449722 
L 339.144771 38.148266 
L 339.446672 38.148266 
L 339.748573 38.449722 
L 340.050474 38.449722 
L 340.352375 38.148266 
L 340.956177 38.751177 
L 341.258078 38.751177 
L 341.559979 39.354089 
L 341.86188 38.449722 
L 342.163781 39.052633 
L 342.767583 39.655545 
L 343.069484 40.559912 
L 343.371385 39.354089 
L 343.673286 39.655545 
L 343.975187 40.258456 
L 344.277088 39.655545 
L 344.578989 39.957001 
L 344.88089 39.655545 
L 345.484692 40.258456 
L 345.786593 39.957001 
L 346.088494 40.258456 
L 346.390395 40.861368 
L 346.994197 39.655545 
L 347.296098 40.258456 
L 347.597999 39.957001 
L 348.201801 39.957001 
L 348.503702 40.861368 
L 348.805603 40.559912 
L 349.107504 39.957001 
L 349.409405 40.258456 
L 349.711306 40.861368 
L 350.013207 40.258456 
L 350.315108 41.162824 
L 350.617009 40.258456 
L 350.91891 40.559912 
L 352.126514 40.559912 
L 352.428415 41.162824 
L 352.730316 40.559912 
L 353.334118 40.559912 
L 353.636019 40.861368 
L 353.93792 40.861368 
L 354.541722 40.258456 
L 354.843623 40.861368 
L 355.145524 40.861368 
L 355.447425 41.162824 
L 355.749326 40.861368 
L 356.051227 41.162824 
L 356.353128 40.559912 
L 356.655029 41.162824 
L 356.95693 41.46428 
L 357.258831 40.861368 
L 357.560732 41.162824 
L 357.862633 40.861368 
L 358.164534 41.162824 
L 358.466435 41.162824 
L 358.768336 41.765735 
L 359.070237 40.861368 
L 359.674039 41.46428 
L 359.97594 40.861368 
L 360.579742 41.46428 
L 360.881643 41.162824 
L 361.183544 41.46428 
L 361.485445 41.162824 
L 361.787346 41.162824 
L 362.089247 41.46428 
L 362.391148 41.46428 
L 362.693049 41.765735 
L 362.99495 41.162824 
L 363.296851 41.765735 
L 363.598752 40.258456 
L 363.900653 41.765735 
L 364.202554 40.861368 
L 364.806356 41.46428 
L 365.108257 41.46428 
L 365.410158 41.162824 
L 365.712059 41.162824 
L 366.01396 41.46428 
L 366.315861 41.162824 
L 366.919663 41.162824 
L 367.221564 41.765735 
L 367.523465 41.162824 
L 368.429168 41.162824 
L 368.731069 40.861368 
L 369.03297 41.162824 
L 369.334871 41.162824 
L 369.636772 41.46428 
L 369.938673 41.162824 
L 370.542475 41.162824 
L 370.844376 40.861368 
L 371.146277 41.162824 
L 371.448178 41.162824 
L 371.750079 41.46428 
L 372.353881 41.46428 
L 372.655782 40.559912 
L 373.259584 41.162824 
L 373.561485 42.067191 
L 373.863386 40.559912 
L 374.165287 41.162824 
L 374.467188 41.46428 
L 374.769089 40.861368 
L 375.07099 41.46428 
L 375.372891 41.46428 
L 375.674792 41.162824 
L 375.976693 41.46428 
L 376.278594 41.162824 
L 376.580495 40.559912 
L 376.882396 40.861368 
L 377.184297 41.46428 
L 377.486198 40.861368 
L 377.788099 40.861368 
L 378.09 40.258456 
L 378.391901 41.46428 
L 378.693802 40.559912 
L 378.995703 40.861368 
L 379.297604 40.559912 
L 379.599505 40.861368 
L 379.901406 40.258456 
L 380.203307 40.559912 
L 380.505208 40.258456 
L 380.807109 40.559912 
L 381.10901 40.559912 
L 381.410911 39.655545 
L 381.712812 39.957001 
L 382.014713 40.559912 
L 382.316614 40.258456 
L 382.618515 40.861368 
L 382.920416 40.258456 
L 383.222317 40.559912 
L 383.524218 40.258456 
L 383.826119 40.258456 
L 384.12802 40.559912 
L 384.429921 40.258456 
L 384.731822 40.258456 
L 385.033723 41.162824 
L 385.335624 40.258456 
L 385.637525 40.258456 
L 385.939426 40.559912 
L 386.241327 41.162824 
L 386.543228 39.655545 
L 386.845129 40.258456 
L 387.14703 40.258456 
L 387.448931 39.957001 
L 387.750832 40.258456 
L 388.052733 40.258456 
L 388.354634 40.559912 
L 388.656535 39.957001 
L 388.958436 40.258456 
L 389.260337 39.957001 
L 389.562238 39.957001 
L 389.864139 40.559912 
L 390.16604 40.258456 
L 390.467941 39.655545 
L 390.769842 39.655545 
L 391.071743 40.559912 
L 391.373644 39.957001 
L 391.977446 39.354089 
L 392.581248 39.354089 
L 392.883149 39.655545 
L 393.18505 39.354089 
L 394.090753 39.354089 
L 394.392654 39.655545 
L 394.694555 38.751177 
L 394.996456 38.751177 
L 395.298357 39.354089 
L 395.600258 39.052633 
L 395.902159 38.449722 
L 396.20406 38.148266 
L 396.505961 39.052633 
L 397.109763 39.052633 
L 397.411664 38.751177 
L 397.713565 39.052633 
L 398.015466 38.449722 
L 398.317367 39.354089 
L 398.619268 38.751177 
L 398.921169 38.751177 
L 399.22307 38.148266 
L 399.524971 38.751177 
L 399.826872 38.148266 
L 400.128773 38.148266 
L 400.430674 38.751177 
L 400.732575 38.449722 
L 401.034476 38.449722 
L 401.336377 38.148266 
L 401.940179 38.751177 
L 402.24208 38.449722 
L 402.543981 37.84681 
L 402.845882 37.84681 
L 403.147783 38.449722 
L 403.449684 38.449722 
L 403.751585 37.84681 
L 404.657288 37.84681 
L 404.959189 38.148266 
L 405.26109 37.84681 
L 405.562991 38.449722 
L 405.864892 38.148266 
L 406.166793 37.545354 
L 406.468694 38.148266 
L 406.770595 37.84681 
L 407.072496 38.148266 
L 407.374397 37.545354 
L 407.676298 37.243898 
L 408.582001 38.148266 
L 408.883902 37.545354 
L 409.487704 37.545354 
L 409.789605 37.84681 
L 410.091506 37.243898 
L 411.601011 37.243898 
L 411.902912 37.545354 
L 412.204813 37.545354 
L 412.506714 37.84681 
L 412.808615 37.84681 
L 413.110516 37.243898 
L 413.412417 37.243898 
L 413.714318 37.545354 
L 414.016219 37.243898 
L 414.31812 36.640987 
L 414.620021 37.243898 
L 415.223823 37.243898 
L 415.525724 37.545354 
L 415.827625 36.942443 
L 416.431427 36.942443 
L 416.733328 37.545354 
L 417.035229 37.243898 
L 417.33713 36.640987 
L 417.940932 36.640987 
L 418.242833 36.339531 
L 418.544734 36.640987 
L 418.846635 36.339531 
L 419.450437 36.339531 
L 420.054239 36.942443 
L 420.35614 36.339531 
L 420.658041 36.640987 
L 420.959942 36.339531 
L 421.261843 36.640987 
L 421.563744 36.038075 
L 421.865645 36.339531 
L 422.167546 35.736619 
L 422.469447 36.339531 
L 423.073249 35.736619 
L 423.37515 36.038075 
L 423.677051 36.038075 
L 423.978952 36.339531 
L 424.582754 34.832252 
L 424.884655 35.133708 
L 425.186556 34.832252 
L 425.488457 35.435164 
L 425.790358 35.435164 
L 426.092259 35.133708 
L 426.39416 35.133708 
L 426.696061 34.832252 
L 426.997962 35.435164 
L 427.299863 35.133708 
L 427.601764 35.133708 
L 427.903665 35.435164 
L 428.205566 35.133708 
L 429.111268 35.133708 
L 429.413169 34.832252 
L 429.71507 35.133708 
L 430.016971 34.832252 
L 430.318872 35.133708 
L 430.620773 34.530796 
L 430.922674 35.133708 
L 431.224575 35.133708 
L 431.526476 33.927885 
L 432.130277 35.435164 
L 432.432178 34.832252 
L 433.03598 34.22934 
L 433.337881 34.530796 
L 433.639782 34.530796 
L 433.941683 34.832252 
L 434.545485 34.22934 
L 434.847386 34.22934 
L 435.149287 34.832252 
L 435.451188 34.530796 
L 435.753089 33.927885 
L 436.05499 34.832252 
L 436.356891 34.832252 
L 436.658792 34.530796 
L 436.960693 33.626429 
L 437.262594 34.22934 
L 437.564494 33.927885 
L 437.866395 34.22934 
L 438.168296 33.927885 
L 439.073999 33.927885 
L 439.3759 34.22934 
L 439.677801 33.626429 
L 439.979702 34.530796 
L 440.281603 33.927885 
L 440.583504 33.626429 
L 440.885405 33.927885 
L 441.187306 33.626429 
L 441.791108 34.22934 
L 442.093009 34.22934 
L 442.696811 33.626429 
L 442.998712 33.927885 
L 443.300612 34.530796 
L 443.602513 33.927885 
L 443.904414 33.927885 
L 444.206315 34.22934 
L 444.508216 33.927885 
L 444.810117 34.22934 
L 445.112018 33.927885 
L 445.413919 34.530796 
L 445.71582 34.530796 
L 446.017721 33.927885 
L 446.319622 34.22934 
L 446.621523 33.927885 
L 446.923424 35.133708 
L 447.225325 33.927885 
L 447.829127 34.530796 
L 449.942433 34.530796 
L 450.244334 35.133708 
L 450.546235 34.530796 
L 450.848136 34.832252 
L 451.150037 35.435164 
L 451.451938 34.530796 
L 451.753839 34.832252 
L 452.05574 34.832252 
L 452.357641 35.133708 
L 452.659542 35.133708 
L 452.961443 34.832252 
L 453.263344 34.832252 
L 453.565245 34.530796 
L 454.169047 35.133708 
L 454.470948 35.133708 
L 454.772848 34.832252 
L 455.37665 34.832252 
L 455.678551 35.133708 
L 456.584254 35.133708 
L 456.886155 34.832252 
L 457.489957 35.435164 
L 457.791858 34.832252 
L 458.093759 34.832252 
L 458.697561 35.435164 
L 458.999462 34.832252 
L 459.301363 35.133708 
L 459.603264 34.832252 
L 459.905165 35.133708 
L 460.207065 35.133708 
L 460.508966 34.832252 
L 460.810867 35.133708 
L 462.018471 35.133708 
L 462.320372 34.832252 
L 462.924174 34.832252 
L 463.226075 35.133708 
L 463.829877 35.133708 
L 464.131778 34.832252 
L 464.433679 35.736619 
L 465.339382 34.832252 
L 465.641283 35.133708 
L 465.943183 35.133708 
L 466.245084 35.435164 
L 466.546985 35.133708 
L 466.848886 35.435164 
L 467.150787 35.435164 
L 467.452688 35.133708 
L 467.754589 35.133708 
L 468.05649 35.736619 
L 468.358391 35.435164 
L 468.660292 35.435164 
L 468.962193 35.133708 
L 469.264094 35.133708 
L 469.565995 35.435164 
L 469.867896 35.435164 
L 470.169797 35.133708 
L 470.773599 35.133708 
L 471.0755 35.435164 
L 471.377401 36.038075 
L 471.679301 35.435164 
L 472.283103 35.435164 
L 472.585004 36.038075 
L 472.886905 35.736619 
L 473.188806 35.736619 
L 473.490707 35.435164 
L 473.792608 36.038075 
L 474.094509 35.736619 
L 474.39641 35.736619 
L 474.698311 36.339531 
L 475.000212 36.038075 
L 475.302113 36.038075 
L 475.905915 35.435164 
L 476.509717 36.038075 
L 476.811618 36.038075 
L 477.113519 35.435164 
L 477.415419 35.736619 
L 478.321122 35.736619 
L 478.623023 35.435164 
L 478.924924 34.832252 
L 479.226825 36.038075 
L 479.528726 34.832252 
L 479.830627 36.038075 
L 480.434429 35.435164 
L 480.73633 35.435164 
L 481.038231 35.133708 
L 481.340132 35.435164 
L 481.642033 35.435164 
L 481.943934 35.736619 
L 482.245835 35.133708 
L 482.547736 35.736619 
L 482.849637 35.133708 
L 483.453438 35.736619 
L 483.755339 35.435164 
L 484.05724 35.736619 
L 484.359141 35.736619 
L 484.661042 36.038075 
L 484.962943 35.736619 
L 485.264844 36.038075 
L 485.566745 35.435164 
L 485.868646 36.339531 
L 486.170547 35.435164 
L 486.472448 36.038075 
L 486.774349 36.339531 
L 487.07625 36.339531 
L 487.378151 36.038075 
L 487.680052 36.038075 
L 487.981953 36.339531 
L 488.283854 35.736619 
L 488.585755 36.339531 
L 488.887655 35.736619 
L 489.189556 36.640987 
L 489.491457 36.339531 
L 489.793358 36.942443 
L 490.095259 36.339531 
L 491.000962 36.339531 
L 491.302863 36.640987 
L 491.604764 36.038075 
L 491.906665 37.243898 
L 492.208566 36.640987 
L 492.510467 36.942443 
L 492.812368 36.640987 
L 493.114269 37.243898 
L 493.718071 37.243898 
L 494.019972 36.339531 
L 494.321873 36.640987 
L 494.623773 36.640987 
L 494.925674 36.942443 
L 495.227575 36.339531 
L 495.529476 36.640987 
L 495.831377 36.640987 
L 496.133278 37.243898 
L 496.435179 36.640987 
L 497.340882 36.640987 
L 497.642783 36.339531 
L 497.944684 36.640987 
L 498.246585 36.339531 
L 498.548486 36.640987 
L 498.850387 36.640987 
L 499.152288 36.339531 
L 499.454189 36.339531 
L 499.75609 36.038075 
L 500.057991 36.640987 
L 500.359891 36.640987 
L 500.661792 36.038075 
L 500.963693 36.339531 
L 501.265594 36.339531 
L 501.567495 36.640987 
L 501.869396 36.038075 
L 502.775099 36.038075 
L 503.077 36.339531 
L 503.378901 36.942443 
L 503.680802 36.038075 
L 504.284604 36.038075 
L 504.586505 35.736619 
L 505.190307 36.339531 
L 505.492208 36.038075 
L 505.794109 36.038075 
L 506.096009 36.339531 
L 506.699811 35.736619 
L 507.303613 36.339531 
L 507.605514 36.038075 
L 507.907415 35.435164 
L 508.209316 36.038075 
L 508.511217 36.038075 
L 508.813118 35.736619 
L 509.115019 36.640987 
L 509.41692 36.339531 
L 509.718821 35.435164 
L 510.020722 36.339531 
L 510.322623 36.339531 
L 510.624524 35.736619 
L 511.681182 36.640987 
L 511.983083 36.339531 
L 512.284984 36.640987 
L 512.586885 36.038075 
L 512.888786 36.339531 
L 513.190687 37.243898 
L 513.492588 37.243898 
L 513.794489 36.339531 
L 514.09639 36.339531 
L 514.398291 37.243898 
L 514.700192 36.942443 
L 515.303994 37.545354 
L 515.605895 36.640987 
L 515.907796 36.640987 
L 516.209697 37.545354 
L 516.511598 37.545354 
L 516.813499 36.942443 
L 517.1154 37.243898 
L 518.323004 37.243898 
L 518.926806 37.84681 
L 519.228707 37.243898 
L 519.530608 37.545354 
L 519.832509 37.545354 
L 520.13441 37.84681 
L 520.436311 38.449722 
L 520.738212 37.545354 
L 521.040113 38.148266 
L 521.643915 38.751177 
L 521.945816 37.84681 
L 522.247717 38.148266 
L 522.549618 38.148266 
L 522.851519 38.449722 
L 523.15342 37.84681 
L 523.455321 38.148266 
L 523.757222 38.751177 
L 524.059123 38.148266 
L 524.662925 38.751177 
L 524.964826 38.751177 
L 525.266727 39.354089 
L 525.568628 38.751177 
L 525.870529 39.052633 
L 526.17243 38.449722 
L 526.474331 39.052633 
L 526.776232 38.751177 
L 527.078133 38.751177 
L 527.380034 39.354089 
L 527.681935 39.052633 
L 527.983836 39.354089 
L 528.285737 39.354089 
L 528.587638 39.957001 
L 528.889539 39.354089 
L 529.19144 39.052633 
L 529.493341 39.655545 
L 529.795242 39.957001 
L 530.097143 39.655545 
L 530.399044 39.957001 
L 530.700945 39.655545 
L 531.002846 39.655545 
L 531.304747 39.354089 
L 531.606648 39.957001 
L 531.908549 40.258456 
L 532.512351 39.655545 
L 532.814252 40.258456 
L 534.021856 40.258456 
L 534.625658 40.861368 
L 534.927559 40.559912 
L 536.135163 40.559912 
L 536.437064 40.861368 
L 536.738965 40.559912 
L 537.040866 41.162824 
L 537.342767 40.861368 
L 537.644668 40.861368 
L 537.946569 40.559912 
L 538.24847 41.162824 
L 538.852272 40.559912 
L 539.154173 40.861368 
L 539.456074 40.559912 
L 539.757975 40.861368 
L 540.059876 40.559912 
L 540.361777 40.861368 
L 540.965579 40.861368 
L 541.26748 40.559912 
L 541.569381 40.559912 
L 541.871282 40.258456 
L 542.173183 40.559912 
L 542.475084 39.957001 
L 542.776985 40.258456 
L 543.078886 40.258456 
L 543.380787 39.957001 
L 543.682688 39.957001 
L 543.984589 40.258456 
L 544.28649 39.655545 
L 544.588391 40.258456 
L 544.890292 39.957001 
L 545.192193 39.957001 
L 545.795995 39.354089 
L 546.097896 39.957001 
L 546.399797 39.354089 
L 546.701698 39.957001 
L 547.003599 39.655545 
L 547.3055 39.052633 
L 547.607401 39.655545 
L 547.909302 39.655545 
L 548.211203 39.354089 
L 548.513104 39.354089 
L 548.815005 39.052633 
L 549.116906 39.655545 
L 549.418807 39.354089 
L 550.626411 39.354089 
L 550.928312 39.655545 
L 551.230213 39.655545 
L 551.532114 39.354089 
L 551.834015 38.751177 
L 552.135916 39.354089 
L 552.739718 38.751177 
L 553.041619 38.751177 
L 553.34352 39.052633 
L 553.645421 38.751177 
L 553.947322 38.751177 
L 554.249223 39.052633 
L 554.551124 38.751177 
L 554.853025 39.354089 
L 555.154926 38.449722 
L 555.456827 38.148266 
L 555.758728 38.449722 
L 556.060629 38.148266 
L 556.36253 38.449722 
L 556.664431 38.148266 
L 556.966332 38.148266 
L 557.268233 37.84681 
L 557.570134 38.148266 
L 557.872035 38.148266 
L 558.173936 37.84681 
L 558.475837 38.148266 
L 558.777738 37.84681 
L 559.38154 38.449722 
L 559.683441 37.84681 
L 559.985342 38.148266 
L 560.287243 38.148266 
L 560.589144 37.545354 
L 560.891045 38.148266 
L 561.192946 37.545354 
L 561.494847 37.84681 
L 561.796748 37.84681 
L 562.098649 37.243898 
L 562.40055 37.545354 
L 562.702451 37.243898 
L 563.004352 37.243898 
L 563.608154 37.84681 
L 563.910055 36.942443 
L 564.211956 37.243898 
L 564.513857 37.243898 
L 564.815758 36.640987 
L 565.117659 36.942443 
L 566.325263 36.942443 
L 566.627165 37.243898 
L 567.230966 36.640987 
L 567.532867 36.942443 
L 568.740471 36.942443 
L 569.042373 36.640987 
L 569.344274 36.640987 
L 569.646174 36.339531 
L 569.948075 36.640987 
L 570.249976 36.038075 
L 570.551877 36.339531 
L 570.853778 36.038075 
L 571.45758 36.640987 
L 572.061383 36.038075 
L 572.665184 36.038075 
L 572.967085 36.339531 
L 573.268987 35.435164 
L 573.570887 36.339531 
L 573.872788 35.435164 
L 574.17469 35.435164 
L 574.476591 35.736619 
L 574.778492 36.339531 
L 575.080392 35.435164 
L 575.382293 35.435164 
L 575.684195 34.832252 
L 575.986096 35.736619 
L 576.287996 35.435164 
L 577.495601 35.435164 
L 577.797501 34.832252 
L 578.099402 35.435164 
L 578.401304 35.133708 
L 578.703205 35.736619 
L 579.005105 35.133708 
L 579.307007 35.133708 
L 579.910809 35.736619 
L 580.21271 35.435164 
L 581.118413 35.435164 
L 581.420314 35.133708 
L 581.722215 35.736619 
L 582.024116 35.736619 
L 582.326017 35.435164 
L 582.627918 36.038075 
L 582.929818 35.435164 
L 583.835522 35.435164 
L 584.137423 35.736619 
L 584.439324 35.736619 
L 584.741225 36.038075 
L 585.043126 35.736619 
L 585.345027 36.038075 
L 585.646927 35.736619 
L 585.948829 36.339531 
L 586.552631 36.339531 
L 586.854532 36.038075 
L 587.156433 36.339531 
L 587.458334 36.339531 
L 587.760235 36.640987 
L 588.062136 36.038075 
L 588.364037 36.038075 
L 588.967839 37.243898 
L 589.26974 36.942443 
L 589.873542 36.942443 
L 590.175443 37.545354 
L 590.477344 37.243898 
L 590.779245 37.243898 
L 591.081146 37.545354 
L 591.383047 37.243898 
L 591.986849 37.84681 
L 592.28875 37.243898 
L 592.590651 37.84681 
L 592.892552 37.243898 
L 593.496354 37.84681 
L 593.798255 37.545354 
L 594.100156 38.148266 
L 594.402057 38.148266 
L 594.703958 37.84681 
L 595.30776 38.449722 
L 595.609661 38.148266 
L 595.911562 38.148266 
L 596.213463 38.449722 
L 596.515364 37.84681 
L 596.817265 38.751177 
L 597.119166 38.449722 
L 597.421067 39.052633 
L 598.024869 38.449722 
L 598.32677 39.052633 
L 598.628671 39.354089 
L 598.930572 38.751177 
L 599.232473 39.052633 
L 599.836275 39.052633 
L 600.138176 39.354089 
L 600.440077 39.052633 
L 600.741978 39.354089 
L 601.043879 39.957001 
L 601.34578 39.354089 
L 601.647681 39.354089 
L 601.949582 40.258456 
L 602.251483 39.957001 
L 602.855285 39.957001 
L 603.157186 40.258456 
L 603.459087 40.861368 
L 603.760988 39.655545 
L 604.062889 40.861368 
L 604.36479 40.258456 
L 604.666691 41.162824 
L 604.968592 40.861368 
L 605.270493 39.957001 
L 605.572394 40.861368 
L 605.874295 40.861368 
L 606.176196 41.162824 
L 606.478097 40.861368 
L 606.779998 41.765735 
L 607.081899 41.162824 
L 607.3838 41.46428 
L 607.685701 41.162824 
L 607.987602 41.46428 
L 608.591404 41.46428 
L 608.893305 41.765735 
L 609.195206 41.162824 
L 609.497107 41.765735 
L 609.799008 41.46428 
L 610.100909 42.067191 
L 610.40281 42.368647 
L 610.704711 41.765735 
L 611.006612 42.368647 
L 611.308513 41.765735 
L 611.610414 42.067191 
L 611.912315 42.067191 
L 612.214216 42.670103 
L 612.516117 42.368647 
L 612.818018 42.670103 
L 613.119919 42.368647 
L 613.42182 42.670103 
L 613.723721 42.670103 
L 614.025622 42.971559 
L 614.629424 42.971559 
L 614.931325 43.273014 
L 615.233226 43.273014 
L 615.535127 42.971559 
L 616.742731 42.971559 
L 617.044632 43.57447 
L 617.648434 43.57447 
L 617.950335 44.478838 
L 618.252236 44.177382 
L 618.554137 42.971559 
L 618.856038 43.57447 
L 619.157939 43.57447 
L 619.45984 43.875926 
L 619.761741 43.875926 
L 620.063642 44.478838 
L 620.365543 44.478838 
L 620.667444 43.875926 
L 620.969345 43.57447 
L 621.271246 44.478838 
L 621.875048 44.478838 
L 622.176949 44.177382 
L 622.47885 44.478838 
L 622.780751 44.478838 
L 623.082652 44.780293 
L 623.686454 44.177382 
L 623.988355 44.478838 
L 624.290256 45.081749 
L 624.894058 44.478838 
L 625.195959 44.478838 
L 625.49786 44.780293 
L 625.799761 44.177382 
L 626.403563 44.177382 
L 626.705464 44.478838 
L 627.007365 44.478838 
L 627.309266 43.875926 
L 627.611167 44.780293 
L 627.913068 44.177382 
L 628.51687 44.177382 
L 628.818771 44.478838 
L 629.120672 44.177382 
L 629.422573 44.478838 
L 629.724474 43.875926 
L 630.026375 43.875926 
L 630.328276 43.57447 
L 631.233979 43.57447 
L 631.53588 43.273014 
L 632.441583 43.273014 
L 632.743484 43.57447 
L 633.045385 42.971559 
L 633.951088 42.971559 
L 634.252989 42.670103 
L 634.55489 42.670103 
L 635.158692 43.273014 
L 635.762494 42.670103 
L 636.064395 43.273014 
L 636.668197 41.765735 
L 636.970098 42.067191 
L 637.5739 42.067191 
L 637.875801 41.765735 
L 638.177702 42.368647 
L 638.479603 42.067191 
L 638.781504 42.368647 
L 639.083405 41.765735 
L 639.687207 41.765735 
L 639.989108 41.46428 
L 640.291009 41.765735 
L 640.59291 41.46428 
L 640.894811 41.765735 
L 641.196712 41.46428 
L 641.498613 41.765735 
L 641.800514 41.162824 
L 642.102415 41.162824 
L 642.404316 41.46428 
L 642.706217 41.162824 
L 643.008118 41.162824 
L 643.310019 41.46428 
L 643.61192 41.46428 
L 643.913821 40.559912 
L 644.215722 40.861368 
L 644.517623 41.46428 
L 644.819524 39.655545 
L 645.121425 40.258456 
L 645.423326 40.559912 
L 645.725227 40.559912 
L 646.027128 41.162824 
L 646.329029 40.559912 
L 646.932831 40.559912 
L 647.234732 39.957001 
L 647.536633 39.957001 
L 647.83853 39.655545 
L 648.140431 39.957001 
L 648.442332 39.655545 
L 649.046134 39.655545 
L 649.348035 39.957001 
L 649.649936 39.957001 
L 649.951837 39.354089 
L 650.253738 39.655545 
L 650.85754 39.655545 
L 651.159441 39.354089 
L 651.461342 39.655545 
L 651.763243 39.655545 
L 652.065144 39.052633 
L 652.367045 39.052633 
L 652.668946 39.655545 
L 653.574649 38.751177 
L 653.87655 39.052633 
L 654.178451 38.751177 
L 654.480352 38.751177 
L 654.782253 39.052633 
L 655.084154 38.751177 
L 655.386055 39.052633 
L 655.687956 38.751177 
L 655.989857 38.751177 
L 656.291758 39.052633 
L 656.593659 37.84681 
L 656.89556 38.449722 
L 657.499362 38.449722 
L 657.801263 37.84681 
L 658.103164 38.751177 
L 658.405065 38.148266 
L 658.706966 37.84681 
L 659.008867 38.449722 
L 659.310768 38.449722 
L 659.612669 37.84681 
L 659.91457 39.052633 
L 660.820272 38.148266 
L 661.424074 38.751177 
L 661.725975 38.449722 
L 662.027876 38.751177 
L 662.329777 37.84681 
L 662.631678 38.449722 
L 662.933579 38.751177 
L 663.537381 38.751177 
L 663.839282 38.449722 
L 664.141183 38.449722 
L 664.744985 39.052633 
L 665.046886 38.751177 
L 665.348787 39.052633 
L 665.650688 38.449722 
L 666.25449 39.052633 
L 666.556391 38.449722 
L 666.858292 38.449722 
L 667.160193 39.052633 
L 667.763995 38.449722 
L 668.065896 38.751177 
L 668.367797 39.655545 
L 668.669698 38.751177 
L 668.971599 38.449722 
L 669.575401 38.449722 
L 669.877302 38.751177 
L 670.783005 38.751177 
L 671.084906 39.052633 
L 671.386807 38.148266 
L 671.688708 39.052633 
L 671.990609 38.148266 
L 672.29251 38.751177 
L 672.594411 38.751177 
L 672.896312 38.449722 
L 673.500114 38.449722 
L 673.802015 37.84681 
L 674.103916 38.449722 
L 674.707718 37.84681 
L 675.009619 38.148266 
L 675.31152 37.545354 
L 675.613421 39.052633 
L 675.915322 37.84681 
L 676.519124 38.449722 
L 677.122926 37.84681 
L 677.424827 37.84681 
L 678.028629 37.243898 
L 678.33053 37.545354 
L 678.63243 37.243898 
L 679.236232 37.243898 
L 679.538133 36.640987 
L 679.840034 37.243898 
L 680.141935 37.243898 
L 680.443836 37.84681 
L 680.745737 36.942443 
L 681.047638 36.942443 
L 681.349539 37.243898 
L 681.65144 36.640987 
L 681.953341 37.243898 
L 682.557143 36.640987 
L 682.859044 36.942443 
L 683.160945 36.640987 
L 683.462846 36.640987 
L 683.764747 36.339531 
L 684.066648 37.243898 
L 684.368549 37.243898 
L 684.67045 36.339531 
L 684.972351 36.942443 
L 685.274252 36.038075 
L 685.576153 36.640987 
L 685.878054 36.038075 
L 686.179955 36.339531 
L 686.481856 36.339531 
L 686.783757 36.038075 
L 687.085658 36.640987 
L 687.387559 36.038075 
L 687.991361 36.038075 
L 688.293262 35.435164 
L 688.595163 35.736619 
L 688.897064 36.339531 
L 689.198965 35.435164 
L 689.500866 36.038075 
L 690.104668 36.038075 
L 690.70847 35.435164 
L 691.010371 35.736619 
L 691.614173 35.133708 
L 691.916074 35.435164 
L 692.217975 35.435164 
L 692.519876 35.736619 
L 692.821777 35.435164 
L 693.123678 35.435164 
L 693.425579 35.736619 
L 693.72748 35.133708 
L 694.029381 35.133708 
L 694.331282 35.435164 
L 694.633183 35.435164 
L 694.935084 34.832252 
L 695.538886 35.435164 
L 695.840787 35.435164 
L 696.142688 35.133708 
L 696.444588 35.133708 
L 696.746489 34.832252 
L 697.652192 34.832252 
L 697.954093 34.22934 
L 698.255994 35.133708 
L 698.859796 34.530796 
L 699.463598 35.133708 
L 699.765499 34.530796 
L 700.369301 35.133708 
L 700.671202 34.530796 
L 700.973103 34.832252 
L 701.576905 34.22934 
L 701.878806 34.530796 
L 702.180707 34.22934 
L 702.482608 34.530796 
L 702.784509 33.927885 
L 703.08641 33.927885 
L 703.388311 34.22934 
L 703.690212 33.927885 
L 703.992113 34.832252 
L 704.294014 33.626429 
L 705.199717 33.626429 
L 705.501618 33.927885 
L 705.803519 33.324973 
L 706.10542 33.626429 
L 706.407321 33.626429 
L 706.709222 33.324973 
L 707.011123 33.626429 
L 707.313024 33.023517 
L 707.614925 32.722061 
L 707.916826 33.324973 
L 708.218727 32.722061 
L 709.426331 32.722061 
L 709.728232 33.324973 
L 710.030133 32.722061 
L 710.332034 32.420606 
L 710.633935 32.722061 
L 711.237737 32.11915 
L 711.841539 32.11915 
L 712.445341 32.722061 
L 712.747242 31.817694 
L 713.049143 31.817694 
L 713.351044 32.420606 
L 713.652945 32.420606 
L 713.954846 31.817694 
L 714.256746 31.817694 
L 714.558647 31.516238 
L 714.860548 31.817694 
L 715.162449 31.516238 
L 715.46435 32.11915 
L 715.766251 31.817694 
L 716.068152 31.817694 
L 716.370053 32.11915 
L 716.671954 31.516238 
L 717.275756 31.516238 
L 717.577657 31.214782 
L 717.879558 31.516238 
L 718.181459 31.214782 
L 718.48336 31.516238 
L 719.087162 31.516238 
L 719.389063 32.11915 
L 719.690964 31.817694 
L 719.992865 31.214782 
L 720.596667 31.817694 
L 721.200469 30.611871 
L 721.50237 31.516238 
L 721.804271 30.913327 
L 722.106172 31.214782 
L 723.011875 30.310415 
L 723.313776 30.913327 
L 723.615677 31.214782 
L 724.219479 30.008959 
L 724.52138 30.611871 
L 724.823281 30.008959 
L 725.728984 30.008959 
L 726.332786 30.611871 
L 726.936588 30.008959 
L 727.238489 30.008959 
L 727.54039 30.310415 
L 727.842291 30.008959 
L 728.144192 30.008959 
L 728.747994 29.406048 
L 729.049895 29.707504 
L 729.351796 29.406048 
L 729.653697 29.707504 
L 730.257499 29.104592 
L 730.5594 29.707504 
L 730.861301 29.406048 
L 731.163202 29.406048 
L 731.465103 29.707504 
L 731.767004 29.707504 
L 732.068904 29.406048 
L 732.370805 28.803136 
L 732.672706 29.406048 
L 733.276508 28.803136 
L 733.578409 29.104592 
L 734.182211 29.104592 
L 734.484112 29.406048 
L 734.786013 29.406048 
L 735.087914 29.104592 
L 735.389815 29.104592 
L 735.691716 28.50168 
L 735.993617 28.50168 
L 736.295518 29.104592 
L 736.597419 28.50168 
L 736.89932 28.50168 
L 737.201221 28.200225 
L 737.503122 28.803136 
L 737.805023 28.200225 
L 738.106924 28.50168 
L 738.408825 27.898769 
L 738.710726 27.898769 
L 739.012627 28.200225 
L 739.314528 28.200225 
L 739.616429 27.898769 
L 739.91833 28.803136 
L 740.220231 27.597313 
L 740.522132 27.898769 
L 740.824033 27.597313 
L 741.427835 28.200225 
L 741.729736 27.597313 
L 742.031637 27.898769 
L 742.333538 27.597313 
L 742.635439 28.200225 
L 742.93734 27.597313 
L 743.239241 28.50168 
L 743.541142 27.597313 
L 743.843043 27.898769 
L 744.144944 26.994401 
L 744.446845 27.898769 
L 744.748746 27.898769 
L 745.352548 27.295857 
L 745.654449 27.597313 
L 745.95635 27.295857 
L 746.560152 27.898769 
L 746.862053 27.295857 
L 747.163954 27.597313 
L 747.465855 27.597313 
L 747.767756 27.898769 
L 748.069657 27.597313 
L 748.371558 28.200225 
L 748.673459 27.597313 
L 748.97536 27.597313 
L 749.277261 27.898769 
L 749.579162 27.295857 
L 750.182963 27.898769 
L 750.786765 27.295857 
L 751.088666 27.295857 
L 751.390567 26.692946 
L 751.692468 27.597313 
L 751.994369 26.994401 
L 752.29627 27.295857 
L 752.598171 26.994401 
L 752.900072 26.994401 
L 753.503874 27.597313 
L 753.805775 27.597313 
L 754.107676 26.994401 
L 754.409577 26.994401 
L 754.711478 26.692946 
L 755.31528 27.295857 
L 755.617181 27.295857 
L 755.919082 26.994401 
L 756.220983 27.295857 
L 756.824785 26.692946 
L 757.126686 26.692946 
L 757.428587 26.994401 
L 758.032389 26.994401 
L 758.33429 26.692946 
L 758.636191 27.295857 
L 759.239993 26.692946 
L 759.541894 27.295857 
L 759.843795 27.295857 
L 760.145696 26.994401 
L 760.447597 26.994401 
L 760.749498 26.692946 
L 761.051399 26.994401 
L 761.3533 26.994401 
L 761.655201 27.295857 
L 761.957102 27.295857 
L 762.259003 26.994401 
L 762.862805 26.994401 
L 763.164706 27.597313 
L 763.466607 27.898769 
L 764.070409 27.295857 
L 764.37231 27.597313 
L 764.674211 27.597313 
L 764.976112 27.898769 
L 765.579914 27.898769 
L 765.881815 28.200225 
L 766.183716 28.200225 
L 766.485617 27.898769 
L 766.787518 28.200225 
L 767.089419 28.200225 
L 767.995121 29.104592 
L 768.297022 28.803136 
L 768.900824 29.406048 
L 769.202725 29.104592 
L 769.504626 28.50168 
L 769.806527 28.803136 
L 770.108428 29.406048 
L 771.014131 29.406048 
L 771.316032 30.611871 
L 771.617933 29.104592 
L 771.919834 29.406048 
L 772.221735 30.008959 
L 772.523636 30.310415 
L 772.825537 30.310415 
L 773.127438 30.611871 
L 773.429339 30.310415 
L 773.73124 30.611871 
L 774.033141 30.611871 
L 774.335042 30.913327 
L 774.636943 30.611871 
L 774.938844 30.611871 
L 775.240745 30.913327 
L 776.146448 30.913327 
L 776.448349 31.214782 
L 776.75025 30.913327 
L 777.052151 31.214782 
L 777.354052 31.214782 
L 777.655953 30.913327 
L 777.957854 30.913327 
L 778.259755 31.516238 
L 778.561656 31.214782 
L 778.863557 31.817694 
L 779.165458 31.817694 
L 779.467359 32.11915 
L 779.76926 31.817694 
L 780.373062 31.817694 
L 780.674963 32.11915 
L 780.976864 32.11915 
L 781.278765 32.420606 
L 781.580666 32.420606 
L 781.882567 32.722061 
L 782.486369 32.11915 
L 782.78827 32.420606 
L 783.69397 32.420606 
L 783.995871 32.11915 
L 784.297772 32.722061 
L 784.599673 32.722061 
L 784.901574 32.11915 
L 785.203475 32.420606 
L 785.505376 33.023517 
L 785.807277 32.420606 
L 786.109178 32.420606 
L 786.411079 32.722061 
L 787.014881 32.722061 
L 787.316782 32.420606 
L 787.618683 33.023517 
L 787.920584 32.420606 
L 788.222485 32.420606 
L 788.826287 33.023517 
L 789.128188 32.420606 
L 789.430089 32.722061 
L 789.73199 32.722061 
L 790.033891 33.023517 
L 790.335792 33.023517 
L 790.637693 33.626429 
L 790.939594 32.722061 
L 791.543396 33.324973 
L 791.845297 32.722061 
L 792.449099 33.324973 
L 792.751 33.023517 
L 793.052901 33.023517 
L 793.354802 32.722061 
L 793.656703 32.722061 
L 793.958604 33.324973 
L 794.260505 33.324973 
L 794.562406 33.023517 
L 794.864307 33.023517 
L 795.166208 32.420606 
L 795.468109 32.722061 
L 795.77001 33.324973 
L 796.071911 32.722061 
L 796.373812 32.722061 
L 796.675713 32.420606 
L 796.977614 33.023517 
L 797.279515 32.722061 
L 798.487118 32.722061 
L 798.789019 32.420606 
L 799.09092 32.722061 
L 799.392821 33.324973 
L 799.694722 33.023517 
L 799.996623 33.023517 
L 800.600425 32.420606 
L 800.902326 32.722061 
L 801.204227 32.420606 
L 801.506128 33.626429 
L 801.808029 32.722061 
L 802.10993 33.023517 
L 802.411831 33.023517 
L 802.713732 32.722061 
L 803.015633 33.023517 
L 803.619435 33.023517 
L 803.921336 32.722061 
L 804.223237 33.023517 
L 804.525138 32.722061 
L 804.827039 33.023517 
L 805.12894 32.722061 
L 805.430841 33.023517 
L 805.732742 33.023517 
L 806.034643 32.420606 
L 806.336544 32.722061 
L 806.638445 32.420606 
L 806.940346 32.420606 
L 807.242247 32.722061 
L 807.544148 32.722061 
L 807.846049 32.420606 
L 808.14795 32.420606 
L 808.449851 32.722061 
L 808.751752 32.11915 
L 809.053653 32.722061 
L 809.355554 32.11915 
L 809.657455 31.817694 
L 809.959356 31.817694 
L 810.261257 32.420606 
L 810.865059 31.817694 
L 811.468861 31.817694 
L 811.770762 32.11915 
L 812.072663 31.817694 
L 812.374564 31.817694 
L 812.978366 31.214782 
L 813.280267 31.817694 
L 813.884069 31.214782 
L 814.487871 31.214782 
L 814.789772 30.913327 
L 815.091673 31.516238 
L 815.393574 31.214782 
L 815.695475 30.611871 
L 815.997376 31.214782 
L 816.299276 31.214782 
L 816.601177 30.611871 
L 816.903078 31.214782 
L 817.204979 30.913327 
L 817.50688 31.214782 
L 817.808781 31.214782 
L 818.110682 30.913327 
L 818.412583 31.516238 
L 818.714484 30.913327 
L 819.016385 30.913327 
L 819.318286 31.214782 
L 819.620187 31.214782 
L 819.922088 30.611871 
L 820.223989 31.516238 
L 820.52589 30.913327 
L 820.827791 31.214782 
L 821.129692 31.214782 
L 821.431593 31.817694 
L 822.035395 30.611871 
L 822.639197 31.214782 
L 822.941098 30.913327 
L 823.5449 31.516238 
L 823.846801 30.611871 
L 824.148702 30.913327 
L 824.450603 30.913327 
L 824.752504 30.611871 
L 825.054405 30.913327 
L 825.356306 30.611871 
L 825.960108 31.214782 
L 826.56391 30.008959 
L 826.865811 30.008959 
L 827.167712 30.611871 
L 827.469613 30.913327 
L 828.073415 30.310415 
L 828.375316 30.611871 
L 828.677217 30.008959 
L 828.979118 30.008959 
L 829.281019 30.310415 
L 829.58292 30.310415 
L 829.884821 30.008959 
L 830.186722 30.310415 
L 830.488623 30.310415 
L 830.790524 30.611871 
L 831.092425 30.310415 
L 831.394326 30.310415 
L 831.696227 30.611871 
L 831.998128 30.611871 
L 832.300029 30.310415 
L 832.60193 30.310415 
L 832.903831 30.611871 
L 833.205732 30.611871 
L 833.507633 30.310415 
L 833.809534 30.611871 
L 834.111434 31.516238 
L 834.413335 30.611871 
L 834.715236 31.214782 
L 835.017137 30.611871 
L 835.319038 31.214782 
L 835.620939 30.913327 
L 835.92284 31.516238 
L 836.224741 31.214782 
L 836.526642 31.817694 
L 836.828543 31.214782 
L 837.130444 32.11915 
L 837.432345 31.516238 
L 838.036147 32.11915 
L 838.338048 31.516238 
L 838.639949 31.817694 
L 838.94185 31.214782 
L 839.243751 32.11915 
L 839.847553 32.11915 
L 840.149454 32.420606 
L 840.753256 32.420606 
L 841.357058 33.023517 
L 841.658959 32.420606 
L 841.96086 33.023517 
L 842.262761 32.722061 
L 842.564662 32.722061 
L 842.866563 33.023517 
L 843.168464 32.722061 
L 843.470365 33.626429 
L 843.772266 33.023517 
L 844.074167 33.023517 
L 844.677969 33.626429 
L 844.97987 33.626429 
L 845.281771 33.023517 
L 845.583672 33.626429 
L 845.885573 33.927885 
L 846.187474 33.927885 
L 846.489375 34.22934 
L 846.791276 33.927885 
L 847.093177 34.832252 
L 847.395078 34.530796 
L 847.696979 35.435164 
L 847.99888 34.832252 
L 848.300781 35.435164 
L 848.602682 35.133708 
L 848.904583 36.038075 
L 849.206484 35.736619 
L 849.508385 36.038075 
L 849.810286 36.640987 
L 850.112187 35.435164 
L 850.414088 36.038075 
L 850.715989 36.339531 
L 851.01789 36.038075 
L 851.319791 36.339531 
L 851.923592 36.339531 
L 852.225493 36.640987 
L 852.527394 36.339531 
L 852.829295 36.339531 
L 853.131196 36.640987 
L 853.433097 36.339531 
L 853.734998 36.942443 
L 854.3388 36.942443 
L 854.640701 37.243898 
L 854.942602 36.640987 
L 855.244503 37.243898 
L 856.150206 37.243898 
L 856.452107 37.545354 
L 856.754008 37.545354 
L 857.659711 38.449722 
L 858.263513 38.449722 
L 858.565414 37.84681 
L 858.867315 38.751177 
L 859.169216 38.751177 
L 859.471117 39.052633 
L 859.773018 38.751177 
L 860.074919 39.354089 
L 860.37682 39.052633 
L 860.678721 39.354089 
L 861.282523 38.751177 
L 861.584424 39.354089 
L 861.886325 39.052633 
L 862.188226 39.655545 
L 862.490127 39.052633 
L 862.792028 39.655545 
L 863.093929 39.655545 
L 863.39583 39.354089 
L 863.697731 39.655545 
L 864.603434 39.655545 
L 864.905335 40.258456 
L 865.509137 39.655545 
L 865.811038 40.559912 
L 866.112939 40.258456 
L 866.41484 40.258456 
L 866.716741 40.861368 
L 867.320543 40.861368 
L 867.622444 39.957001 
L 867.924345 40.559912 
L 868.830048 41.46428 
L 869.131949 40.861368 
L 869.73575 41.46428 
L 870.037651 41.162824 
L 870.339552 41.162824 
L 870.641453 41.765735 
L 870.943354 41.46428 
L 871.245255 41.765735 
L 871.547156 41.46428 
L 872.150958 42.067191 
L 872.452859 41.46428 
L 872.75476 42.067191 
L 873.056661 42.368647 
L 873.358562 42.368647 
L 873.660463 41.765735 
L 873.962364 42.368647 
L 874.264265 41.765735 
L 874.868067 42.368647 
L 875.169968 42.368647 
L 875.471869 42.670103 
L 875.77377 42.368647 
L 876.075671 42.670103 
L 876.377572 42.368647 
L 876.679473 42.670103 
L 876.981374 42.670103 
L 877.283275 42.368647 
L 877.585176 42.670103 
L 877.887077 42.368647 
L 878.188978 43.273014 
L 878.490879 42.971559 
L 878.79278 42.368647 
L 879.094681 42.971559 
L 879.698483 42.368647 
L 880.000384 42.971559 
L 880.302285 42.670103 
L 880.906087 42.670103 
L 881.207988 43.273014 
L 881.509889 42.971559 
L 881.81179 42.971559 
L 882.113691 42.670103 
L 882.415592 43.273014 
L 882.717493 42.670103 
L 883.019394 42.368647 
L 883.321295 42.971559 
L 883.623196 42.368647 
L 883.925097 42.067191 
L 884.226998 42.670103 
L 884.528899 42.971559 
L 884.8308 42.368647 
L 885.132701 42.368647 
L 885.434602 42.067191 
L 885.736503 42.368647 
L 886.642206 42.368647 
L 886.944107 42.067191 
L 887.246008 42.368647 
L 887.547908 42.368647 
L 887.849809 42.067191 
L 888.15171 42.067191 
L 888.453611 41.765735 
L 888.755512 42.670103 
L 889.359314 42.067191 
L 889.661215 41.46428 
L 889.963116 41.765735 
L 890.265017 41.46428 
L 890.566918 41.765735 
L 890.868819 41.46428 
L 891.17072 42.067191 
L 891.472621 41.765735 
L 891.774522 42.067191 
L 892.076423 41.46428 
L 892.378324 41.765735 
L 892.680225 41.765735 
L 892.982126 41.162824 
L 893.284027 41.46428 
L 893.585928 41.46428 
L 893.887829 41.162824 
L 894.18973 41.46428 
L 894.491631 40.559912 
L 894.793532 40.861368 
L 895.397334 40.861368 
L 895.699235 41.765735 
L 896.001136 41.162824 
L 896.604938 40.559912 
L 897.20874 40.559912 
L 897.510641 39.957001 
L 897.812542 40.559912 
L 898.416344 40.559912 
L 898.718245 39.957001 
L 899.020146 40.258456 
L 899.322047 40.258456 
L 899.623948 39.655545 
L 899.925849 39.957001 
L 900.22775 39.957001 
L 900.529651 39.655545 
L 900.831552 40.258456 
L 901.133453 39.655545 
L 901.737255 39.655545 
L 902.341057 39.052633 
L 902.944859 39.655545 
L 903.24676 39.655545 
L 903.548661 39.957001 
L 903.850562 39.655545 
L 904.152463 39.052633 
L 904.454364 39.655545 
L 904.756265 39.052633 
L 905.058166 39.052633 
L 905.360066 39.354089 
L 905.661967 39.052633 
L 905.963868 39.354089 
L 906.265769 38.751177 
L 906.56767 39.052633 
L 907.171472 39.052633 
L 907.473373 38.751177 
L 908.379076 38.751177 
L 908.680977 38.148266 
L 908.982878 38.148266 
L 909.58668 38.751177 
L 909.888581 38.148266 
L 910.190482 38.751177 
L 910.492383 38.148266 
L 910.794284 38.148266 
L 911.398086 38.751177 
L 911.699987 38.148266 
L 912.001888 37.84681 
L 912.303789 38.148266 
L 912.60569 37.545354 
L 912.907591 37.84681 
L 913.209492 37.545354 
L 913.511393 37.84681 
L 914.115195 37.84681 
L 914.417096 38.148266 
L 914.718997 37.545354 
L 915.020898 38.449722 
L 915.322799 38.449722 
L 915.6247 37.243898 
L 916.228502 37.84681 
L 916.530403 37.545354 
L 917.738007 37.545354 
L 917.738007 37.545354 
" clip-path="url(#pca6df7b166)" style="fill: none; stroke: #ea580c; stroke-opacity: 0.95; stroke-width: 0.936; stroke-linecap: square"/>
   </g>
   <g id="patch_23">
    <path d="M 39.330625 228.954713 
L 39.330625 17.061433 
" style="fill: none; stroke: #cbd5e1; stroke-width: 0.8; stroke-linejoin: miter; stroke-linecap: square"/>
   </g>
   <g id="patch_24">
    <path d="M 935.305625 228.954713 
L 935.305625 17.061433 
" style="fill: none; stroke: #cbd5e1; stroke-width: 0.8; stroke-linejoin: miter; stroke-linecap: square"/>
   </g>
   <g id="patch_25">
    <path d="M 39.330625 228.954713 
L 935.305625 228.954713 
" style="fill: none; stroke: #cbd5e1; stroke-width: 0.8; stroke-linejoin: miter; stroke-linecap: square"/>
   </g>
   <g id="patch_26">
    <path d="M 39.330625 17.061433 
L 935.305625 17.061433 
" style="fill: none; stroke: #cbd5e1; stroke-width: 0.8; stroke-linejoin: miter; stroke-linecap: square"/>
   </g>
   <g id="text_16">
    <!-- ACC -->
    <g style="fill: #475569" transform="translate(121.64842 13.27875) scale(0.08 -0.08)">
     <defs>
      <path id="DejaVuSans-41" d="M 2188 4044 
L 1331 1722 
L 3047 1722 
L 2188 4044 
z
M 1831 4666 
L 2547 4666 
L 4325 0 
L 3669 0 
L 3244 1197 
L 1141 1197 
L 716 0 
L 50 0 
L 1831 4666 
z
" transform="scale(0.015625)"/>
     </defs>
     <use xlink:href="#DejaVuSans-41"/>
     <use xlink:href="#DejaVuSans-43" transform="translate(66.658203 0)"/>
     <use xlink:href="#DejaVuSans-43" transform="translate(136.482422 0)"/>
    </g>
   </g>
   <g id="text_17">
    <!-- OC -->
    <g style="fill: #475569" transform="translate(230.379141 13.27875) scale(0.08 -0.08)">
     <defs>
      <path id="DejaVuSans-4f" d="M 2522 4238 
Q 1834 4238 1429 3725 
Q 1025 3213 1025 2328 
Q 1025 1447 1429 934 
Q 1834 422 2522 422 
Q 3209 422 3611 934 
Q 4013 1447 4013 2328 
Q 4013 3213 3611 3725 
Q 3209 4238 2522 4238 
z
M 2522 4750 
Q 3503 4750 4090 4092 
Q 4678 3434 4678 2328 
Q 4678 1225 4090 567 
Q 3503 -91 2522 -91 
Q 1538 -91 948 565 
Q 359 1222 359 2328 
Q 359 3434 948 4092 
Q 1538 4750 2522 4750 
z
" transform="scale(0.015625)"/>
     </defs>
     <use xlink:href="#DejaVuSans-4f"/>
     <use xlink:href="#DejaVuSans-43" transform="translate(78.710938 0)"/>
    </g>
   </g>
   <g id="text_18">
    <!-- FCS -->
    <g style="fill: #475569" transform="translate(255.85898 13.27875) scale(0.08 -0.08)">
     <defs>
      <path id="DejaVuSans-46" d="M 628 4666 
L 3309 4666 
L 3309 4134 
L 1259 4134 
L 1259 2759 
L 3109 2759 
L 3109 2228 
L 1259 2228 
L 1259 0 
L 628 0 
L 628 4666 
z
" transform="scale(0.015625)"/>
      <path id="DejaVuSans-53" d="M 3425 4513 
L 3425 3897 
Q 3066 4069 2747 4153 
Q 2428 4238 2131 4238 
Q 1616 4238 1336 4038 
Q 1056 3838 1056 3469 
Q 1056 3159 1242 3001 
Q 1428 2844 1947 2747 
L 2328 2669 
Q 3034 2534 3370 2195 
Q 3706 1856 3706 1288 
Q 3706 609 3251 259 
Q 2797 -91 1919 -91 
Q 1588 -91 1214 -16 
Q 841 59 441 206 
L 441 856 
Q 825 641 1194 531 
Q 1563 422 1919 422 
Q 2459 422 2753 634 
Q 3047 847 3047 1241 
Q 3047 1584 2836 1778 
Q 2625 1972 2144 2069 
L 1759 2144 
Q 1053 2284 737 2584 
Q 422 2884 422 3419 
Q 422 4038 858 4394 
Q 1294 4750 2059 4750 
Q 2388 4750 2728 4690 
Q 3069 4631 3425 4513 
z
" transform="scale(0.015625)"/>
     </defs>
     <use xlink:href="#DejaVuSans-46"/>
     <use xlink:href="#DejaVuSans-43" transform="translate(57.519531 0)"/>
     <use xlink:href="#DejaVuSans-53" transform="translate(127.34375 0)"/>
    </g>
   </g>
   <g id="text_19">
    <!-- SR -->
    <g style="fill: #475569" transform="translate(289.872958 13.27875) scale(0.08 -0.08)">
     <defs>
      <path id="DejaVuSans-52" d="M 2841 2188 
Q 3044 2119 3236 1894 
Q 3428 1669 3622 1275 
L 4263 0 
L 3584 0 
L 2988 1197 
Q 2756 1666 2539 1819 
Q 2322 1972 1947 1972 
L 1259 1972 
L 1259 0 
L 628 0 
L 628 4666 
L 2053 4666 
Q 2853 4666 3247 4331 
Q 3641 3997 3641 3322 
Q 3641 2881 3436 2590 
Q 3231 2300 2841 2188 
z
M 1259 4147 
L 1259 2491 
L 2053 2491 
Q 2509 2491 2742 2702 
Q 2975 2913 2975 3322 
Q 2975 3731 2742 3939 
Q 2509 4147 2053 4147 
L 1259 4147 
z
" transform="scale(0.015625)"/>
     </defs>
     <use xlink:href="#DejaVuSans-53"/>
     <use xlink:href="#DejaVuSans-52" transform="translate(63.476562 0)"/>
    </g>
   </g>
   <g id="text_20">
    <!-- FFC -->
    <g style="fill: #475569" transform="translate(330.818223 13.27875) scale(0.08 -0.08)">
     <use xlink:href="#DejaVuSans-46"/>
     <use xlink:href="#DejaVuSans-46" transform="translate(57.519531 0)"/>
     <use xlink:href="#DejaVuSans-43" transform="translate(115.039062 0)"/>
    </g>
   </g>
   <g id="text_21">
    <!-- SS -->
    <g style="fill: #475569" transform="translate(419.175628 13.27875) scale(0.08 -0.08)">
     <use xlink:href="#DejaVuSans-53"/>
     <use xlink:href="#DejaVuSans-53" transform="translate(63.476562 0)"/>
    </g>
   </g>
   <g id="text_22">
    <!-- OC -->
    <g style="fill: #475569" transform="translate(488.504482 13.27875) scale(0.08 -0.08)">
     <use xlink:href="#DejaVuSans-4f"/>
     <use xlink:href="#DejaVuSans-43" transform="translate(78.710938 0)"/>
    </g>
   </g>
   <g id="text_23">
    <!-- FCS -->
    <g style="fill: #475569" transform="translate(509.455806 13.27875) scale(0.08 -0.08)">
     <use xlink:href="#DejaVuSans-46"/>
     <use xlink:href="#DejaVuSans-43" transform="translate(57.519531 0)"/>
     <use xlink:href="#DejaVuSans-53" transform="translate(127.34375 0)"/>
    </g>
   </g>
   <g id="text_24">
    <!-- SR -->
    <g style="fill: #475569" transform="translate(543.469784 13.27875) scale(0.08 -0.08)">
     <use xlink:href="#DejaVuSans-53"/>
     <use xlink:href="#DejaVuSans-52" transform="translate(63.476562 0)"/>
    </g>
   </g>
   <g id="text_25">
    <!-- FFC -->
    <g style="fill: #475569" transform="translate(584.415049 13.27875) scale(0.08 -0.08)">
     <use xlink:href="#DejaVuSans-46"/>
     <use xlink:href="#DejaVuSans-46" transform="translate(57.519531 0)"/>
     <use xlink:href="#DejaVuSans-43" transform="translate(115.039062 0)"/>
    </g>
   </g>
   <g id="text_26">
    <!-- SS -->
    <g style="fill: #475569" transform="translate(672.772454 13.27875) scale(0.08 -0.08)">
     <use xlink:href="#DejaVuSans-53"/>
     <use xlink:href="#DejaVuSans-53" transform="translate(63.476562 0)"/>
    </g>
   </g>
   <g id="text_27">
    <!-- OC -->
    <g style="fill: #475569" transform="translate(742.101308 13.27875) scale(0.08 -0.08)">
     <use xlink:href="#DejaVuSans-4f"/>
     <use xlink:href="#DejaVuSans-43" transform="translate(78.710938 0)"/>
    </g>
   </g>
   <g id="text_28">
    <!-- FCS -->
    <g style="fill: #475569" transform="translate(763.052631 13.27875) scale(0.08 -0.08)">
     <use xlink:href="#DejaVuSans-46"/>
     <use xlink:href="#DejaVuSans-43" transform="translate(57.519531 0)"/>
     <use xlink:href="#DejaVuSans-53" transform="translate(127.34375 0)"/>
    </g>
   </g>
   <g id="text_29">
    <!-- SR -->
    <g style="fill: #475569" transform="translate(797.06661 13.27875) scale(0.08 -0.08)">
     <use xlink:href="#DejaVuSans-53"/>
     <use xlink:href="#DejaVuSans-52" transform="translate(63.476562 0)"/>
    </g>
   </g>
   <g id="text_30">
    <!-- FFC -->
    <g style="fill: #475569" transform="translate(838.011875 13.27875) scale(0.08 -0.08)">
     <use xlink:href="#DejaVuSans-46"/>
     <use xlink:href="#DejaVuSans-46" transform="translate(57.519531 0)"/>
     <use xlink:href="#DejaVuSans-43" transform="translate(115.039062 0)"/>
    </g>
   </g>
   <g id="text_31">
    <!-- SS -->
    <g style="fill: #475569" transform="translate(887.876905 13.27875) scale(0.08 -0.08)">
     <use xlink:href="#DejaVuSans-53"/>
     <use xlink:href="#DejaVuSans-53" transform="translate(63.476562 0)"/>
    </g>
   </g>
   <g id="legend_1">
    <g id="line2d_28">
     <path d="M 815.393125 27.540183 
L 823.393125 27.540183 
L 831.393125 27.540183 
" style="fill: none; stroke: #ea580c; stroke-opacity: 0.95; stroke-width: 1.3; stroke-linecap: square"/>
    </g>
    <g id="text_32">
     <!-- Empatica temperature -->
     <g transform="translate(837.793125 30.340183) scale(0.08 -0.08)">
      <defs>
       <path id="DejaVuSans-45" d="M 628 4666 
L 3578 4666 
L 3578 4134 
L 1259 4134 
L 1259 2753 
L 3481 2753 
L 3481 2222 
L 1259 2222 
L 1259 531 
L 3634 531 
L 3634 0 
L 628 0 
L 628 4666 
z
" transform="scale(0.015625)"/>
      </defs>
      <use xlink:href="#DejaVuSans-45"/>
      <use xlink:href="#DejaVuSans-6d" transform="translate(63.183594 0)"/>
      <use xlink:href="#DejaVuSans-70" transform="translate(160.595703 0)"/>
      <use xlink:href="#DejaVuSans-61" transform="translate(224.072266 0)"/>
      <use xlink:href="#DejaVuSans-74" transform="translate(285.351562 0)"/>
      <use xlink:href="#DejaVuSans-69" transform="translate(324.560547 0)"/>
      <use xlink:href="#DejaVuSans-63" transform="translate(352.34375 0)"/>
      <use xlink:href="#DejaVuSans-61" transform="translate(407.324219 0)"/>
      <use xlink:href="#DejaVuSans-20" transform="translate(468.603516 0)"/>
      <use xlink:href="#DejaVuSans-74" transform="translate(500.390625 0)"/>
      <use xlink:href="#DejaVuSans-65" transform="translate(539.599609 0)"/>
      <use xlink:href="#DejaVuSans-6d" transform="translate(601.123047 0)"/>
      <use xlink:href="#DejaVuSans-70" transform="translate(698.535156 0)"/>
      <use xlink:href="#DejaVuSans-65" transform="translate(762.011719 0)"/>
      <use xlink:href="#DejaVuSans-72" transform="translate(823.535156 0)"/>
      <use xlink:href="#DejaVuSans-61" transform="translate(864.648438 0)"/>
      <use xlink:href="#DejaVuSans-74" transform="translate(925.927734 0)"/>
      <use xlink:href="#DejaVuSans-75" transform="translate(965.136719 0)"/>
      <use xlink:href="#DejaVuSans-72" transform="translate(1028.515625 0)"/>
      <use xlink:href="#DejaVuSans-65" transform="translate(1067.378906 0)"/>
     </g>
    </g>
   </g>
  </g>
 </g>
 <defs>
  <clipPath id="pca6df7b166">
   <rect x="39.330625" y="17.061433" width="895.975" height="211.89328"/>
  </clipPath>
 </defs>
</svg>
