<?xml version="1.0" encoding="utf-8" standalone="no"?>
<!DOCTYPE svg PUBLIC "-//W3C//DTD SVG 1.1//EN"
  "http://www.w3.org/Graphics/SVG/1.1/DTD/svg11.dtd">
<svg xmlns:xlink="http://www.w3.org/1999/xlink" width="942.553437pt" height="265.54315pt" viewBox="0 0 942.553437 265.54315" xmlns="http://www.w3.org/2000/svg" version="1.1">
 <metadata>
  <rdf:RDF xmlns:dc="http://purl.org/dc/elements/1.1/" xmlns:cc="http://creativecommons.org/ns#" xmlns:rdf="http://www.w3.org/1999/02/22-rdf-syntax-ns#">
   <cc:Work>
    <dc:type rdf:resource="http://purl.org/dc/dcmitype/StillImage"/>
    <dc:date>2026-04-17T13:11:55.200364</dc:date>
    <dc:format>image/svg+xml</dc:format>
    <dc:creator>
     <cc:Agent>
      <dc:title>Matplotlib v3.10.8, https://matplotlib.org/</dc:title>
     </cc:Agent>
    </dc:creator>
   </cc:Work>
  </rdf:RDF>
 </metadata>
 <defs>
  <style type="text/css">*{stroke-linejoin: round; stroke-linecap: butt}</style>
 </defs>
 <g id="figure_1">
  <g id="patch_1">
   <path d="M 0 265.54315 
L 942.553437 265.54315 
L 942.553437 0 
L 0 0 
z
" style="fill: #ffffff"/>
  </g>
  <g id="axes_1">
   <g id="patch_2">
    <path d="M 42.190938 228.954713 
L 935.353437 228.954713 
L 935.353437 17.061433 
L 42.190938 17.061433 
z
" style="fill: #ffffff"/>
   </g>
   <g id="patch_3">
    <path d="M 42.190938 228.954713 
L 59.367139 228.954713 
L 59.367139 17.061433 
L 42.190938 17.061433 
z
" clip-path="url(#p961a9bc05c)" style="fill: #f8fafc; opacity: 0.45"/>
   </g>
   <g id="patch_4">
    <path d="M 59.367139 228.954713 
L 93.045967 228.954713 
L 93.045967 17.061433 
L 59.367139 17.061433 
z
" clip-path="url(#p961a9bc05c)" style="fill: #eff6ff; opacity: 0.45"/>
   </g>
   <g id="patch_5">
    <path d="M 93.045967 228.954713 
L 126.724794 228.954713 
L 126.724794 17.061433 
L 93.045967 17.061433 
z
" clip-path="url(#p961a9bc05c)" style="fill: #fef3c7; opacity: 0.45"/>
   </g>
   <g id="patch_6">
    <path d="M 126.724794 228.954713 
L 171.629897 228.954713 
L 171.629897 17.061433 
L 126.724794 17.061433 
z
" clip-path="url(#p961a9bc05c)" style="fill: #dcfce7; opacity: 0.45"/>
   </g>
   <g id="patch_7">
    <path d="M 171.629897 228.954713 
L 233.374414 228.954713 
L 233.374414 17.061433 
L 171.629897 17.061433 
z
" clip-path="url(#p961a9bc05c)" style="fill: #fee2e2; opacity: 0.45"/>
   </g>
   <g id="patch_8">
    <path d="M 233.374414 228.954713 
L 238.987552 228.954713 
L 238.987552 17.061433 
L 233.374414 17.061433 
z
" clip-path="url(#p961a9bc05c)" style="fill: #ede9fe; opacity: 0.45"/>
   </g>
   <g id="patch_9">
    <path d="M 238.987552 228.954713 
L 379.315999 228.954713 
L 379.315999 17.061433 
L 238.987552 17.061433 
z
" clip-path="url(#p961a9bc05c)" style="fill: #f8fafc; opacity: 0.45"/>
   </g>
   <g id="patch_10">
    <path d="M 379.315999 228.954713 
L 407.381688 228.954713 
L 407.381688 17.061433 
L 379.315999 17.061433 
z
" clip-path="url(#p961a9bc05c)" style="fill: #eff6ff; opacity: 0.45"/>
   </g>
   <g id="patch_11">
    <path d="M 407.381688 228.954713 
L 441.060515 228.954713 
L 441.060515 17.061433 
L 407.381688 17.061433 
z
" clip-path="url(#p961a9bc05c)" style="fill: #fef3c7; opacity: 0.45"/>
   </g>
   <g id="patch_12">
    <path d="M 441.060515 228.954713 
L 485.965619 228.954713 
L 485.965619 17.061433 
L 441.060515 17.061433 
z
" clip-path="url(#p961a9bc05c)" style="fill: #dcfce7; opacity: 0.45"/>
   </g>
   <g id="patch_13">
    <path d="M 485.965619 228.954713 
L 547.710135 228.954713 
L 547.710135 17.061433 
L 485.965619 17.061433 
z
" clip-path="url(#p961a9bc05c)" style="fill: #fee2e2; opacity: 0.45"/>
   </g>
   <g id="patch_14">
    <path d="M 547.710135 228.954713 
L 553.323273 228.954713 
L 553.323273 17.061433 
L 547.710135 17.061433 
z
" clip-path="url(#p961a9bc05c)" style="fill: #ede9fe; opacity: 0.45"/>
   </g>
   <g id="patch_15">
    <path d="M 553.323273 228.954713 
L 693.65172 228.954713 
L 693.65172 17.061433 
L 553.323273 17.061433 
z
" clip-path="url(#p961a9bc05c)" style="fill: #f8fafc; opacity: 0.45"/>
   </g>
   <g id="patch_16">
    <path d="M 693.65172 228.954713 
L 721.71741 228.954713 
L 721.71741 17.061433 
L 693.65172 17.061433 
z
" clip-path="url(#p961a9bc05c)" style="fill: #eff6ff; opacity: 0.45"/>
   </g>
   <g id="patch_17">
    <path d="M 721.71741 228.954713 
L 755.396237 228.954713 
L 755.396237 17.061433 
L 721.71741 17.061433 
z
" clip-path="url(#p961a9bc05c)" style="fill: #fef3c7; opacity: 0.45"/>
   </g>
   <g id="patch_18">
    <path d="M 755.396237 228.954713 
L 805.914478 228.954713 
L 805.914478 17.061433 
L 755.396237 17.061433 
z
" clip-path="url(#p961a9bc05c)" style="fill: #dcfce7; opacity: 0.45"/>
   </g>
   <g id="patch_19">
    <path d="M 805.914478 228.954713 
L 862.045857 228.954713 
L 862.045857 17.061433 
L 805.914478 17.061433 
z
" clip-path="url(#p961a9bc05c)" style="fill: #fee2e2; opacity: 0.45"/>
   </g>
   <g id="patch_20">
    <path d="M 862.045857 228.954713 
L 867.658995 228.954713 
L 867.658995 17.061433 
L 862.045857 17.061433 
z
" clip-path="url(#p961a9bc05c)" style="fill: #ede9fe; opacity: 0.45"/>
   </g>
   <g id="patch_21">
    <path d="M 867.658995 228.954713 
L 918.177236 228.954713 
L 918.177236 17.061433 
L 867.658995 17.061433 
z
" clip-path="url(#p961a9bc05c)" style="fill: #f8fafc; opacity: 0.45"/>
   </g>
   <g id="patch_22">
    <path d="M 918.177236 228.954713 
L 923.790373 228.954713 
L 923.790373 17.061433 
L 918.177236 17.061433 
z
" clip-path="url(#p961a9bc05c)" style="fill: #eff6ff; opacity: 0.45"/>
   </g>
   <g id="matplotlib.axis_1">
    <g id="xtick_1">
     <g id="line2d_1">
      <path d="M 59.367139 228.954713 
L 59.367139 17.061433 
" clip-path="url(#p961a9bc05c)" style="fill: none; stroke: #eef2f7; stroke-width: 0.55; stroke-linecap: square"/>
     </g>
     <g id="line2d_2">
      <defs>
       <path id="ma96f455164" d="M 0 0 
L 0 3.5 
" style="stroke: #000000; stroke-width: 0.8"/>
      </defs>
      <g>
       <use xlink:href="#ma96f455164" x="59.367139" y="228.954713" style="stroke: #000000; stroke-width: 0.8"/>
      </g>
     </g>
     <g id="text_1">
      <!-- 40 -->
      <g transform="translate(53.640889 242.793307) scale(0.09 -0.09)">
       <defs>
        <path id="DejaVuSans-34" d="M 2419 4116 
L 825 1625 
L 2419 1625 
L 2419 4116 
z
M 2253 4666 
L 3047 4666 
L 3047 1625 
L 3713 1625 
L 3713 1100 
L 3047 1100 
L 3047 0 
L 2419 0 
L 2419 1100 
L 313 1100 
L 313 1709 
L 2253 4666 
z
" transform="scale(0.015625)"/>
        <path id="DejaVuSans-30" d="M 2034 4250 
Q 1547 4250 1301 3770 
Q 1056 3291 1056 2328 
Q 1056 1369 1301 889 
Q 1547 409 2034 409 
Q 2525 409 2770 889 
Q 3016 1369 3016 2328 
Q 3016 3291 2770 3770 
Q 2525 4250 2034 4250 
z
M 2034 4750 
Q 2819 4750 3233 4129 
Q 3647 3509 3647 2328 
Q 3647 1150 3233 529 
Q 2819 -91 2034 -91 
Q 1250 -91 836 529 
Q 422 1150 422 2328 
Q 422 3509 836 4129 
Q 1250 4750 2034 4750 
z
" transform="scale(0.015625)"/>
       </defs>
       <use xlink:href="#DejaVuSans-34"/>
       <use xlink:href="#DejaVuSans-30" transform="translate(63.623047 0)"/>
      </g>
     </g>
    </g>
    <g id="xtick_2">
     <g id="line2d_3">
      <path d="M 171.629897 228.954713 
L 171.629897 17.061433 
" clip-path="url(#p961a9bc05c)" style="fill: none; stroke: #eef2f7; stroke-width: 0.55; stroke-linecap: square"/>
     </g>
     <g id="line2d_4">
      <g>
       <use xlink:href="#ma96f455164" x="171.629897" y="228.954713" style="stroke: #000000; stroke-width: 0.8"/>
      </g>
     </g>
     <g id="text_2">
      <!-- 60 -->
      <g transform="translate(165.903647 242.793307) scale(0.09 -0.09)">
       <defs>
        <path id="DejaVuSans-36" d="M 2113 2584 
Q 1688 2584 1439 2293 
Q 1191 2003 1191 1497 
Q 1191 994 1439 701 
Q 1688 409 2113 409 
Q 2538 409 2786 701 
Q 3034 994 3034 1497 
Q 3034 2003 2786 2293 
Q 2538 2584 2113 2584 
z
M 3366 4563 
L 3366 3988 
Q 3128 4100 2886 4159 
Q 2644 4219 2406 4219 
Q 1781 4219 1451 3797 
Q 1122 3375 1075 2522 
Q 1259 2794 1537 2939 
Q 1816 3084 2150 3084 
Q 2853 3084 3261 2657 
Q 3669 2231 3669 1497 
Q 3669 778 3244 343 
Q 2819 -91 2113 -91 
Q 1303 -91 875 529 
Q 447 1150 447 2328 
Q 447 3434 972 4092 
Q 1497 4750 2381 4750 
Q 2619 4750 2861 4703 
Q 3103 4656 3366 4563 
z
" transform="scale(0.015625)"/>
       </defs>
       <use xlink:href="#DejaVuSans-36"/>
       <use xlink:href="#DejaVuSans-30" transform="translate(63.623047 0)"/>
      </g>
     </g>
    </g>
    <g id="xtick_3">
     <g id="line2d_5">
      <path d="M 283.892655 228.954713 
L 283.892655 17.061433 
" clip-path="url(#p961a9bc05c)" style="fill: none; stroke: #eef2f7; stroke-width: 0.55; stroke-linecap: square"/>
     </g>
     <g id="line2d_6">
      <g>
       <use xlink:href="#ma96f455164" x="283.892655" y="228.954713" style="stroke: #000000; stroke-width: 0.8"/>
      </g>
     </g>
     <g id="text_3">
      <!-- 80 -->
      <g transform="translate(278.166405 242.793307) scale(0.09 -0.09)">
       <defs>
        <path id="DejaVuSans-38" d="M 2034 2216 
Q 1584 2216 1326 1975 
Q 1069 1734 1069 1313 
Q 1069 891 1326 650 
Q 1584 409 2034 409 
Q 2484 409 2743 651 
Q 3003 894 3003 1313 
Q 3003 1734 2745 1975 
Q 2488 2216 2034 2216 
z
M 1403 2484 
Q 997 2584 770 2862 
Q 544 3141 544 3541 
Q 544 4100 942 4425 
Q 1341 4750 2034 4750 
Q 2731 4750 3128 4425 
Q 3525 4100 3525 3541 
Q 3525 3141 3298 2862 
Q 3072 2584 2669 2484 
Q 3125 2378 3379 2068 
Q 3634 1759 3634 1313 
Q 3634 634 3220 271 
Q 2806 -91 2034 -91 
Q 1263 -91 848 271 
Q 434 634 434 1313 
Q 434 1759 690 2068 
Q 947 2378 1403 2484 
z
M 1172 3481 
Q 1172 3119 1398 2916 
Q 1625 2713 2034 2713 
Q 2441 2713 2670 2916 
Q 2900 3119 2900 3481 
Q 2900 3844 2670 4047 
Q 2441 4250 2034 4250 
Q 1625 4250 1398 4047 
Q 1172 3844 1172 3481 
z
" transform="scale(0.015625)"/>
       </defs>
       <use xlink:href="#DejaVuSans-38"/>
       <use xlink:href="#DejaVuSans-30" transform="translate(63.623047 0)"/>
      </g>
     </g>
    </g>
    <g id="xtick_4">
     <g id="line2d_7">
      <path d="M 396.155412 228.954713 
L 396.155412 17.061433 
" clip-path="url(#p961a9bc05c)" style="fill: none; stroke: #eef2f7; stroke-width: 0.55; stroke-linecap: square"/>
     </g>
     <g id="line2d_8">
      <g>
       <use xlink:href="#ma96f455164" x="396.155412" y="228.954713" style="stroke: #000000; stroke-width: 0.8"/>
      </g>
     </g>
     <g id="text_4">
      <!-- 100 -->
      <g transform="translate(387.566037 242.793307) scale(0.09 -0.09)">
       <defs>
        <path id="DejaVuSans-31" d="M 794 531 
L 1825 531 
L 1825 4091 
L 703 3866 
L 703 4441 
L 1819 4666 
L 2450 4666 
L 2450 531 
L 3481 531 
L 3481 0 
L 794 0 
L 794 531 
z
" transform="scale(0.015625)"/>
       </defs>
       <use xlink:href="#DejaVuSans-31"/>
       <use xlink:href="#DejaVuSans-30" transform="translate(63.623047 0)"/>
       <use xlink:href="#DejaVuSans-30" transform="translate(127.246094 0)"/>
      </g>
     </g>
    </g>
    <g id="xtick_5">
     <g id="line2d_9">
      <path d="M 508.41817 228.954713 
L 508.41817 17.061433 
" clip-path="url(#p961a9bc05c)" style="fill: none; stroke: #eef2f7; stroke-width: 0.55; stroke-linecap: square"/>
     </g>
     <g id="line2d_10">
      <g>
       <use xlink:href="#ma96f455164" x="508.41817" y="228.954713" style="stroke: #000000; stroke-width: 0.8"/>
      </g>
     </g>
     <g id="text_5">
      <!-- 120 -->
      <g transform="translate(499.828795 242.793307) scale(0.09 -0.09)">
       <defs>
        <path id="DejaVuSans-32" d="M 1228 531 
L 3431 531 
L 3431 0 
L 469 0 
L 469 531 
Q 828 903 1448 1529 
Q 2069 2156 2228 2338 
Q 2531 2678 2651 2914 
Q 2772 3150 2772 3378 
Q 2772 3750 2511 3984 
Q 2250 4219 1831 4219 
Q 1534 4219 1204 4116 
Q 875 4013 500 3803 
L 500 4441 
Q 881 4594 1212 4672 
Q 1544 4750 1819 4750 
Q 2544 4750 2975 4387 
Q 3406 4025 3406 3419 
Q 3406 3131 3298 2873 
Q 3191 2616 2906 2266 
Q 2828 2175 2409 1742 
Q 1991 1309 1228 531 
z
" transform="scale(0.015625)"/>
       </defs>
       <use xlink:href="#DejaVuSans-31"/>
       <use xlink:href="#DejaVuSans-32" transform="translate(63.623047 0)"/>
       <use xlink:href="#DejaVuSans-30" transform="translate(127.246094 0)"/>
      </g>
     </g>
    </g>
    <g id="xtick_6">
     <g id="line2d_11">
      <path d="M 620.680928 228.954713 
L 620.680928 17.061433 
" clip-path="url(#p961a9bc05c)" style="fill: none; stroke: #eef2f7; stroke-width: 0.55; stroke-linecap: square"/>
     </g>
     <g id="line2d_12">
      <g>
       <use xlink:href="#ma96f455164" x="620.680928" y="228.954713" style="stroke: #000000; stroke-width: 0.8"/>
      </g>
     </g>
     <g id="text_6">
      <!-- 140 -->
      <g transform="translate(612.091553 242.793307) scale(0.09 -0.09)">
       <use xlink:href="#DejaVuSans-31"/>
       <use xlink:href="#DejaVuSans-34" transform="translate(63.623047 0)"/>
       <use xlink:href="#DejaVuSans-30" transform="translate(127.246094 0)"/>
      </g>
     </g>
    </g>
    <g id="xtick_7">
     <g id="line2d_13">
      <path d="M 732.943685 228.954713 
L 732.943685 17.061433 
" clip-path="url(#p961a9bc05c)" style="fill: none; stroke: #eef2f7; stroke-width: 0.55; stroke-linecap: square"/>
     </g>
     <g id="line2d_14">
      <g>
       <use xlink:href="#ma96f455164" x="732.943685" y="228.954713" style="stroke: #000000; stroke-width: 0.8"/>
      </g>
     </g>
     <g id="text_7">
      <!-- 160 -->
      <g transform="translate(724.35431 242.793307) scale(0.09 -0.09)">
       <use xlink:href="#DejaVuSans-31"/>
       <use xlink:href="#DejaVuSans-36" transform="translate(63.623047 0)"/>
       <use xlink:href="#DejaVuSans-30" transform="translate(127.246094 0)"/>
      </g>
     </g>
    </g>
    <g id="xtick_8">
     <g id="line2d_15">
      <path d="M 845.206443 228.954713 
L 845.206443 17.061433 
" clip-path="url(#p961a9bc05c)" style="fill: none; stroke: #eef2f7; stroke-width: 0.55; stroke-linecap: square"/>
     </g>
     <g id="line2d_16">
      <g>
       <use xlink:href="#ma96f455164" x="845.206443" y="228.954713" style="stroke: #000000; stroke-width: 0.8"/>
      </g>
     </g>
     <g id="text_8">
      <!-- 180 -->
      <g transform="translate(836.617068 242.793307) scale(0.09 -0.09)">
       <use xlink:href="#DejaVuSans-31"/>
       <use xlink:href="#DejaVuSans-38" transform="translate(63.623047 0)"/>
       <use xlink:href="#DejaVuSans-30" transform="translate(127.246094 0)"/>
      </g>
     </g>
    </g>
    <g id="text_9">
     <!-- Minutes since session start -->
     <g transform="translate(421.182344 256.263463) scale(0.1 -0.1)">
      <defs>
       <path id="DejaVuSans-4d" d="M 628 4666 
L 1569 4666 
L 2759 1491 
L 3956 4666 
L 4897 4666 
L 4897 0 
L 4281 0 
L 4281 4097 
L 3078 897 
L 2444 897 
L 1241 4097 
L 1241 0 
L 628 0 
L 628 4666 
z
" transform="scale(0.015625)"/>
       <path id="DejaVuSans-69" d="M 603 3500 
L 1178 3500 
L 1178 0 
L 603 0 
L 603 3500 
z
M 603 4863 
L 1178 4863 
L 1178 4134 
L 603 4134 
L 603 4863 
z
" transform="scale(0.015625)"/>
       <path id="DejaVuSans-6e" d="M 3513 2113 
L 3513 0 
L 2938 0 
L 2938 2094 
Q 2938 2591 2744 2837 
Q 2550 3084 2163 3084 
Q 1697 3084 1428 2787 
Q 1159 2491 1159 1978 
L 1159 0 
L 581 0 
L 581 3500 
L 1159 3500 
L 1159 2956 
Q 1366 3272 1645 3428 
Q 1925 3584 2291 3584 
Q 2894 3584 3203 3211 
Q 3513 2838 3513 2113 
z
" transform="scale(0.015625)"/>
       <path id="DejaVuSans-75" d="M 544 1381 
L 544 3500 
L 1119 3500 
L 1119 1403 
Q 1119 906 1312 657 
Q 1506 409 1894 409 
Q 2359 409 2629 706 
Q 2900 1003 2900 1516 
L 2900 3500 
L 3475 3500 
L 3475 0 
L 2900 0 
L 2900 538 
Q 2691 219 2414 64 
Q 2138 -91 1772 -91 
Q 1169 -91 856 284 
Q 544 659 544 1381 
z
M 1991 3584 
L 1991 3584 
z
" transform="scale(0.015625)"/>
       <path id="DejaVuSans-74" d="M 1172 4494 
L 1172 3500 
L 2356 3500 
L 2356 3053 
L 1172 3053 
L 1172 1153 
Q 1172 725 1289 603 
Q 1406 481 1766 481 
L 2356 481 
L 2356 0 
L 1766 0 
Q 1100 0 847 248 
Q 594 497 594 1153 
L 594 3053 
L 172 3053 
L 172 3500 
L 594 3500 
L 594 4494 
L 1172 4494 
z
" transform="scale(0.015625)"/>
       <path id="DejaVuSans-65" d="M 3597 1894 
L 3597 1613 
L 953 1613 
Q 991 1019 1311 708 
Q 1631 397 2203 397 
Q 2534 397 2845 478 
Q 3156 559 3463 722 
L 3463 178 
Q 3153 47 2828 -22 
Q 2503 -91 2169 -91 
Q 1331 -91 842 396 
Q 353 884 353 1716 
Q 353 2575 817 3079 
Q 1281 3584 2069 3584 
Q 2775 3584 3186 3129 
Q 3597 2675 3597 1894 
z
M 3022 2063 
Q 3016 2534 2758 2815 
Q 2500 3097 2075 3097 
Q 1594 3097 1305 2825 
Q 1016 2553 972 2059 
L 3022 2063 
z
" transform="scale(0.015625)"/>
       <path id="DejaVuSans-73" d="M 2834 3397 
L 2834 2853 
Q 2591 2978 2328 3040 
Q 2066 3103 1784 3103 
Q 1356 3103 1142 2972 
Q 928 2841 928 2578 
Q 928 2378 1081 2264 
Q 1234 2150 1697 2047 
L 1894 2003 
Q 2506 1872 2764 1633 
Q 3022 1394 3022 966 
Q 3022 478 2636 193 
Q 2250 -91 1575 -91 
Q 1294 -91 989 -36 
Q 684 19 347 128 
L 347 722 
Q 666 556 975 473 
Q 1284 391 1588 391 
Q 1994 391 2212 530 
Q 2431 669 2431 922 
Q 2431 1156 2273 1281 
Q 2116 1406 1581 1522 
L 1381 1569 
Q 847 1681 609 1914 
Q 372 2147 372 2553 
Q 372 3047 722 3315 
Q 1072 3584 1716 3584 
Q 2034 3584 2315 3537 
Q 2597 3491 2834 3397 
z
" transform="scale(0.015625)"/>
       <path id="DejaVuSans-20" transform="scale(0.015625)"/>
       <path id="DejaVuSans-63" d="M 3122 3366 
L 3122 2828 
Q 2878 2963 2633 3030 
Q 2388 3097 2138 3097 
Q 1578 3097 1268 2742 
Q 959 2388 959 1747 
Q 959 1106 1268 751 
Q 1578 397 2138 397 
Q 2388 397 2633 464 
Q 2878 531 3122 666 
L 3122 134 
Q 2881 22 2623 -34 
Q 2366 -91 2075 -91 
Q 1284 -91 818 406 
Q 353 903 353 1747 
Q 353 2603 823 3093 
Q 1294 3584 2113 3584 
Q 2378 3584 2631 3529 
Q 2884 3475 3122 3366 
z
" transform="scale(0.015625)"/>
       <path id="DejaVuSans-6f" d="M 1959 3097 
Q 1497 3097 1228 2736 
Q 959 2375 959 1747 
Q 959 1119 1226 758 
Q 1494 397 1959 397 
Q 2419 397 2687 759 
Q 2956 1122 2956 1747 
Q 2956 2369 2687 2733 
Q 2419 3097 1959 3097 
z
M 1959 3584 
Q 2709 3584 3137 3096 
Q 3566 2609 3566 1747 
Q 3566 888 3137 398 
Q 2709 -91 1959 -91 
Q 1206 -91 779 398 
Q 353 888 353 1747 
Q 353 2609 779 3096 
Q 1206 3584 1959 3584 
z
" transform="scale(0.015625)"/>
       <path id="DejaVuSans-61" d="M 2194 1759 
Q 1497 1759 1228 1600 
Q 959 1441 959 1056 
Q 959 750 1161 570 
Q 1363 391 1709 391 
Q 2188 391 2477 730 
Q 2766 1069 2766 1631 
L 2766 1759 
L 2194 1759 
z
M 3341 1997 
L 3341 0 
L 2766 0 
L 2766 531 
Q 2569 213 2275 61 
Q 1981 -91 1556 -91 
Q 1019 -91 701 211 
Q 384 513 384 1019 
Q 384 1609 779 1909 
Q 1175 2209 1959 2209 
L 2766 2209 
L 2766 2266 
Q 2766 2663 2505 2880 
Q 2244 3097 1772 3097 
Q 1472 3097 1187 3025 
Q 903 2953 641 2809 
L 641 3341 
Q 956 3463 1253 3523 
Q 1550 3584 1831 3584 
Q 2591 3584 2966 3190 
Q 3341 2797 3341 1997 
z
" transform="scale(0.015625)"/>
       <path id="DejaVuSans-72" d="M 2631 2963 
Q 2534 3019 2420 3045 
Q 2306 3072 2169 3072 
Q 1681 3072 1420 2755 
Q 1159 2438 1159 1844 
L 1159 0 
L 581 0 
L 581 3500 
L 1159 3500 
L 1159 2956 
Q 1341 3275 1631 3429 
Q 1922 3584 2338 3584 
Q 2397 3584 2469 3576 
Q 2541 3569 2628 3553 
L 2631 2963 
z
" transform="scale(0.015625)"/>
      </defs>
      <use xlink:href="#DejaVuSans-4d"/>
      <use xlink:href="#DejaVuSans-69" transform="translate(86.279297 0)"/>
      <use xlink:href="#DejaVuSans-6e" transform="translate(114.0625 0)"/>
      <use xlink:href="#DejaVuSans-75" transform="translate(177.441406 0)"/>
      <use xlink:href="#DejaVuSans-74" transform="translate(240.820312 0)"/>
      <use xlink:href="#DejaVuSans-65" transform="translate(280.029297 0)"/>
      <use xlink:href="#DejaVuSans-73" transform="translate(341.552734 0)"/>
      <use xlink:href="#DejaVuSans-20" transform="translate(393.652344 0)"/>
      <use xlink:href="#DejaVuSans-73" transform="translate(425.439453 0)"/>
      <use xlink:href="#DejaVuSans-69" transform="translate(477.539062 0)"/>
      <use xlink:href="#DejaVuSans-6e" transform="translate(505.322266 0)"/>
      <use xlink:href="#DejaVuSans-63" transform="translate(568.701172 0)"/>
      <use xlink:href="#DejaVuSans-65" transform="translate(623.681641 0)"/>
      <use xlink:href="#DejaVuSans-20" transform="translate(685.205078 0)"/>
      <use xlink:href="#DejaVuSans-73" transform="translate(716.992188 0)"/>
      <use xlink:href="#DejaVuSans-65" transform="translate(769.091797 0)"/>
      <use xlink:href="#DejaVuSans-73" transform="translate(830.615234 0)"/>
      <use xlink:href="#DejaVuSans-73" transform="translate(882.714844 0)"/>
      <use xlink:href="#DejaVuSans-69" transform="translate(934.814453 0)"/>
      <use xlink:href="#DejaVuSans-6f" transform="translate(962.597656 0)"/>
      <use xlink:href="#DejaVuSans-6e" transform="translate(1023.779297 0)"/>
      <use xlink:href="#DejaVuSans-20" transform="translate(1087.158203 0)"/>
      <use xlink:href="#DejaVuSans-73" transform="translate(1118.945312 0)"/>
      <use xlink:href="#DejaVuSans-74" transform="translate(1171.044922 0)"/>
      <use xlink:href="#DejaVuSans-61" transform="translate(1210.253906 0)"/>
      <use xlink:href="#DejaVuSans-72" transform="translate(1271.533203 0)"/>
      <use xlink:href="#DejaVuSans-74" transform="translate(1312.646484 0)"/>
     </g>
    </g>
   </g>
   <g id="matplotlib.axis_2">
    <g id="ytick_1">
     <g id="line2d_17">
      <path d="M 42.190938 219.3232 
L 935.353437 219.3232 
" clip-path="url(#p961a9bc05c)" style="fill: none; stroke: #eef2f7; stroke-opacity: 0.25; stroke-width: 0.55; stroke-linecap: square"/>
     </g>
     <g id="line2d_18">
      <defs>
       <path id="m87de3d832f" d="M 0 0 
L -3.5 0 
" style="stroke: #000000; stroke-width: 0.8"/>
      </defs>
      <g>
       <use xlink:href="#m87de3d832f" x="42.190938" y="219.3232" style="stroke: #000000; stroke-width: 0.8"/>
      </g>
     </g>
     <g id="text_10">
      <!-- 0.0 -->
      <g transform="translate(20.878125 222.742497) scale(0.09 -0.09)">
       <defs>
        <path id="DejaVuSans-2e" d="M 684 794 
L 1344 794 
L 1344 0 
L 684 0 
L 684 794 
z
" transform="scale(0.015625)"/>
       </defs>
       <use xlink:href="#DejaVuSans-30"/>
       <use xlink:href="#DejaVuSans-2e" transform="translate(63.623047 0)"/>
       <use xlink:href="#DejaVuSans-30" transform="translate(95.410156 0)"/>
      </g>
     </g>
    </g>
    <g id="ytick_2">
     <g id="line2d_19">
      <path d="M 42.190938 193.673366 
L 935.353437 193.673366 
" clip-path="url(#p961a9bc05c)" style="fill: none; stroke: #eef2f7; stroke-opacity: 0.25; stroke-width: 0.55; stroke-linecap: square"/>
     </g>
     <g id="line2d_20">
      <g>
       <use xlink:href="#m87de3d832f" x="42.190938" y="193.673366" style="stroke: #000000; stroke-width: 0.8"/>
      </g>
     </g>
     <g id="text_11">
      <!-- 0.1 -->
      <g transform="translate(20.878125 197.092663) scale(0.09 -0.09)">
       <use xlink:href="#DejaVuSans-30"/>
       <use xlink:href="#DejaVuSans-2e" transform="translate(63.623047 0)"/>
       <use xlink:href="#DejaVuSans-31" transform="translate(95.410156 0)"/>
      </g>
     </g>
    </g>
    <g id="ytick_3">
     <g id="line2d_21">
      <path d="M 42.190938 168.023532 
L 935.353437 168.023532 
" clip-path="url(#p961a9bc05c)" style="fill: none; stroke: #eef2f7; stroke-opacity: 0.25; stroke-width: 0.55; stroke-linecap: square"/>
     </g>
     <g id="line2d_22">
      <g>
       <use xlink:href="#m87de3d832f" x="42.190938" y="168.023532" style="stroke: #000000; stroke-width: 0.8"/>
      </g>
     </g>
     <g id="text_12">
      <!-- 0.2 -->
      <g transform="translate(20.878125 171.442829) scale(0.09 -0.09)">
       <use xlink:href="#DejaVuSans-30"/>
       <use xlink:href="#DejaVuSans-2e" transform="translate(63.623047 0)"/>
       <use xlink:href="#DejaVuSans-32" transform="translate(95.410156 0)"/>
      </g>
     </g>
    </g>
    <g id="ytick_4">
     <g id="line2d_23">
      <path d="M 42.190938 142.373698 
L 935.353437 142.373698 
" clip-path="url(#p961a9bc05c)" style="fill: none; stroke: #eef2f7; stroke-opacity: 0.25; stroke-width: 0.55; stroke-linecap: square"/>
     </g>
     <g id="line2d_24">
      <g>
       <use xlink:href="#m87de3d832f" x="42.190938" y="142.373698" style="stroke: #000000; stroke-width: 0.8"/>
      </g>
     </g>
     <g id="text_13">
      <!-- 0.3 -->
      <g transform="translate(20.878125 145.792994) scale(0.09 -0.09)">
       <defs>
        <path id="DejaVuSans-33" d="M 2597 2516 
Q 3050 2419 3304 2112 
Q 3559 1806 3559 1356 
Q 3559 666 3084 287 
Q 2609 -91 1734 -91 
Q 1441 -91 1130 -33 
Q 819 25 488 141 
L 488 750 
Q 750 597 1062 519 
Q 1375 441 1716 441 
Q 2309 441 2620 675 
Q 2931 909 2931 1356 
Q 2931 1769 2642 2001 
Q 2353 2234 1838 2234 
L 1294 2234 
L 1294 2753 
L 1863 2753 
Q 2328 2753 2575 2939 
Q 2822 3125 2822 3475 
Q 2822 3834 2567 4026 
Q 2313 4219 1838 4219 
Q 1578 4219 1281 4162 
Q 984 4106 628 3988 
L 628 4550 
Q 988 4650 1302 4700 
Q 1616 4750 1894 4750 
Q 2613 4750 3031 4423 
Q 3450 4097 3450 3541 
Q 3450 3153 3228 2886 
Q 3006 2619 2597 2516 
z
" transform="scale(0.015625)"/>
       </defs>
       <use xlink:href="#DejaVuSans-30"/>
       <use xlink:href="#DejaVuSans-2e" transform="translate(63.623047 0)"/>
       <use xlink:href="#DejaVuSans-33" transform="translate(95.410156 0)"/>
      </g>
     </g>
    </g>
    <g id="ytick_5">
     <g id="line2d_25">
      <path d="M 42.190938 116.723863 
L 935.353437 116.723863 
" clip-path="url(#p961a9bc05c)" style="fill: none; stroke: #eef2f7; stroke-opacity: 0.25; stroke-width: 0.55; stroke-linecap: square"/>
     </g>
     <g id="line2d_26">
      <g>
       <use xlink:href="#m87de3d832f" x="42.190938" y="116.723863" style="stroke: #000000; stroke-width: 0.8"/>
      </g>
     </g>
     <g id="text_14">
      <!-- 0.4 -->
      <g transform="translate(20.878125 120.14316) scale(0.09 -0.09)">
       <use xlink:href="#DejaVuSans-30"/>
       <use xlink:href="#DejaVuSans-2e" transform="translate(63.623047 0)"/>
       <use xlink:href="#DejaVuSans-34" transform="translate(95.410156 0)"/>
      </g>
     </g>
    </g>
    <g id="ytick_6">
     <g id="line2d_27">
      <path d="M 42.190938 91.074029 
L 935.353437 91.074029 
" clip-path="url(#p961a9bc05c)" style="fill: none; stroke: #eef2f7; stroke-opacity: 0.25; stroke-width: 0.55; stroke-linecap: square"/>
     </g>
     <g id="line2d_28">
      <g>
       <use xlink:href="#m87de3d832f" x="42.190938" y="91.074029" style="stroke: #000000; stroke-width: 0.8"/>
      </g>
     </g>
     <g id="text_15">
      <!-- 0.5 -->
      <g transform="translate(20.878125 94.493326) scale(0.09 -0.09)">
       <defs>
        <path id="DejaVuSans-35" d="M 691 4666 
L 3169 4666 
L 3169 4134 
L 1269 4134 
L 1269 2991 
Q 1406 3038 1543 3061 
Q 1681 3084 1819 3084 
Q 2600 3084 3056 2656 
Q 3513 2228 3513 1497 
Q 3513 744 3044 326 
Q 2575 -91 1722 -91 
Q 1428 -91 1123 -41 
Q 819 9 494 109 
L 494 744 
Q 775 591 1075 516 
Q 1375 441 1709 441 
Q 2250 441 2565 725 
Q 2881 1009 2881 1497 
Q 2881 1984 2565 2268 
Q 2250 2553 1709 2553 
Q 1456 2553 1204 2497 
Q 953 2441 691 2322 
L 691 4666 
z
" transform="scale(0.015625)"/>
       </defs>
       <use xlink:href="#DejaVuSans-30"/>
       <use xlink:href="#DejaVuSans-2e" transform="translate(63.623047 0)"/>
       <use xlink:href="#DejaVuSans-35" transform="translate(95.410156 0)"/>
      </g>
     </g>
    </g>
    <g id="ytick_7">
     <g id="line2d_29">
      <path d="M 42.190938 65.424195 
L 935.353437 65.424195 
" clip-path="url(#p961a9bc05c)" style="fill: none; stroke: #eef2f7; stroke-opacity: 0.25; stroke-width: 0.55; stroke-linecap: square"/>
     </g>
     <g id="line2d_30">
      <g>
       <use xlink:href="#m87de3d832f" x="42.190938" y="65.424195" style="stroke: #000000; stroke-width: 0.8"/>
      </g>
     </g>
     <g id="text_16">
      <!-- 0.6 -->
      <g transform="translate(20.878125 68.843492) scale(0.09 -0.09)">
       <use xlink:href="#DejaVuSans-30"/>
       <use xlink:href="#DejaVuSans-2e" transform="translate(63.623047 0)"/>
       <use xlink:href="#DejaVuSans-36" transform="translate(95.410156 0)"/>
      </g>
     </g>
    </g>
    <g id="ytick_8">
     <g id="line2d_31">
      <path d="M 42.190938 39.774361 
L 935.353437 39.774361 
" clip-path="url(#p961a9bc05c)" style="fill: none; stroke: #eef2f7; stroke-opacity: 0.25; stroke-width: 0.55; stroke-linecap: square"/>
     </g>
     <g id="line2d_32">
      <g>
       <use xlink:href="#m87de3d832f" x="42.190938" y="39.774361" style="stroke: #000000; stroke-width: 0.8"/>
      </g>
     </g>
     <g id="text_17">
      <!-- 0.7 -->
      <g transform="translate(20.878125 43.193658) scale(0.09 -0.09)">
       <defs>
        <path id="DejaVuSans-37" d="M 525 4666 
L 3525 4666 
L 3525 4397 
L 1831 0 
L 1172 0 
L 2766 4134 
L 525 4134 
L 525 4666 
z
" transform="scale(0.015625)"/>
       </defs>
       <use xlink:href="#DejaVuSans-30"/>
       <use xlink:href="#DejaVuSans-2e" transform="translate(63.623047 0)"/>
       <use xlink:href="#DejaVuSans-37" transform="translate(95.410156 0)"/>
      </g>
     </g>
    </g>
    <g id="text_18">
     <!-- Velocity (m/s) -->
     <g transform="translate(14.798438 157.273698) rotate(-90) scale(0.1 -0.1)">
      <defs>
       <path id="DejaVuSans-56" d="M 1831 0 
L 50 4666 
L 709 4666 
L 2188 738 
L 3669 4666 
L 4325 4666 
L 2547 0 
L 1831 0 
z
" transform="scale(0.015625)"/>
       <path id="DejaVuSans-6c" d="M 603 4863 
L 1178 4863 
L 1178 0 
L 603 0 
L 603 4863 
z
" transform="scale(0.015625)"/>
       <path id="DejaVuSans-79" d="M 2059 -325 
Q 1816 -950 1584 -1140 
Q 1353 -1331 966 -1331 
L 506 -1331 
L 506 -850 
L 844 -850 
Q 1081 -850 1212 -737 
Q 1344 -625 1503 -206 
L 1606 56 
L 191 3500 
L 800 3500 
L 1894 763 
L 2988 3500 
L 3597 3500 
L 2059 -325 
z
" transform="scale(0.015625)"/>
       <path id="DejaVuSans-28" d="M 1984 4856 
Q 1566 4138 1362 3434 
Q 1159 2731 1159 2009 
Q 1159 1288 1364 580 
Q 1569 -128 1984 -844 
L 1484 -844 
Q 1016 -109 783 600 
Q 550 1309 550 2009 
Q 550 2706 781 3412 
Q 1013 4119 1484 4856 
L 1984 4856 
z
" transform="scale(0.015625)"/>
       <path id="DejaVuSans-6d" d="M 3328 2828 
Q 3544 3216 3844 3400 
Q 4144 3584 4550 3584 
Q 5097 3584 5394 3201 
Q 5691 2819 5691 2113 
L 5691 0 
L 5113 0 
L 5113 2094 
Q 5113 2597 4934 2840 
Q 4756 3084 4391 3084 
Q 3944 3084 3684 2787 
Q 3425 2491 3425 1978 
L 3425 0 
L 2847 0 
L 2847 2094 
Q 2847 2600 2669 2842 
Q 2491 3084 2119 3084 
Q 1678 3084 1418 2786 
Q 1159 2488 1159 1978 
L 1159 0 
L 581 0 
L 581 3500 
L 1159 3500 
L 1159 2956 
Q 1356 3278 1631 3431 
Q 1906 3584 2284 3584 
Q 2666 3584 2933 3390 
Q 3200 3197 3328 2828 
z
" transform="scale(0.015625)"/>
       <path id="DejaVuSans-2f" d="M 1625 4666 
L 2156 4666 
L 531 -594 
L 0 -594 
L 1625 4666 
z
" transform="scale(0.015625)"/>
       <path id="DejaVuSans-29" d="M 513 4856 
L 1013 4856 
Q 1481 4119 1714 3412 
Q 1947 2706 1947 2009 
Q 1947 1309 1714 600 
Q 1481 -109 1013 -844 
L 513 -844 
Q 928 -128 1133 580 
Q 1338 1288 1338 2009 
Q 1338 2731 1133 3434 
Q 928 4138 513 4856 
z
" transform="scale(0.015625)"/>
      </defs>
      <use xlink:href="#DejaVuSans-56"/>
      <use xlink:href="#DejaVuSans-65" transform="translate(60.658203 0)"/>
      <use xlink:href="#DejaVuSans-6c" transform="translate(122.181641 0)"/>
      <use xlink:href="#DejaVuSans-6f" transform="translate(149.964844 0)"/>
      <use xlink:href="#DejaVuSans-63" transform="translate(211.146484 0)"/>
      <use xlink:href="#DejaVuSans-69" transform="translate(266.126953 0)"/>
      <use xlink:href="#DejaVuSans-74" transform="translate(293.910156 0)"/>
      <use xlink:href="#DejaVuSans-79" transform="translate(333.119141 0)"/>
      <use xlink:href="#DejaVuSans-20" transform="translate(392.298828 0)"/>
      <use xlink:href="#DejaVuSans-28" transform="translate(424.085938 0)"/>
      <use xlink:href="#DejaVuSans-6d" transform="translate(463.099609 0)"/>
      <use xlink:href="#DejaVuSans-2f" transform="translate(560.511719 0)"/>
      <use xlink:href="#DejaVuSans-73" transform="translate(594.203125 0)"/>
      <use xlink:href="#DejaVuSans-29" transform="translate(646.302734 0)"/>
     </g>
    </g>
   </g>
   <g id="line2d_33">
    <path d="M 59.367139 207.780775 
L 64.980277 208.037273 
L 70.593415 204.189798 
L 76.206553 208.806768 
L 81.819691 203.9333 
L 87.432829 199.316329 
L 93.045967 206.498283 
L 98.659105 201.624815 
L 104.272242 200.085824 
L 115.498518 200.342323 
L 121.111656 205.215791 
L 123.918225 208.293771 
L 126.724794 211.115253 
L 132.337932 205.215791 
L 149.177346 208.293771 
L 154.790483 210.602256 
L 160.403621 208.293771 
L 171.629897 205.728788 
L 177.243035 201.111818 
L 182.856173 196.751346 
L 188.469311 197.007844 
L 194.082449 193.416868 
L 205.308724 189.825891 
L 210.921862 190.595386 
L 216.535 198.803333 
L 222.148138 193.929864 
L 227.761276 200.855319 
L 233.374414 204.959293 
L 238.987552 215.219227 
L 244.60069 217.78421 
L 250.213827 207.267778 
L 255.826965 207.01128 
L 261.440103 208.806768 
L 267.053241 204.189798 
L 272.666379 209.319765 
L 278.279517 206.754781 
L 283.892655 204.959293 
L 295.118931 207.01128 
L 300.732068 209.319765 
L 306.345206 209.063266 
L 311.958344 212.397745 
L 317.571482 205.728788 
L 323.18462 209.576263 
L 328.797758 205.985286 
L 334.410896 206.241785 
L 340.024034 210.858755 
L 345.637171 214.193233 
L 351.250309 204.959293 
L 356.863447 207.267778 
L 362.476585 205.47229 
L 368.089723 209.576263 
L 373.702861 214.962728 
L 379.315999 208.037273 
L 384.929137 205.728788 
L 390.542275 209.576263 
L 396.155412 207.780775 
L 401.76855 202.137811 
L 407.381688 204.702795 
L 412.994826 205.728788 
L 418.607964 204.702795 
L 429.83424 204.446296 
L 435.447378 206.754781 
L 441.060515 202.650808 
L 446.673653 207.01128 
L 452.286791 209.576263 
L 457.899929 207.524276 
L 469.126205 214.70623 
L 474.739343 207.267778 
L 480.352481 208.037273 
L 485.965619 206.241785 
L 491.578756 198.546834 
L 497.191894 192.903871 
L 502.805032 187.773904 
L 508.41817 189.825891 
L 519.644446 192.390874 
L 525.257584 198.033838 
L 530.870722 198.033838 
L 536.48386 197.520841 
L 542.096997 195.468854 
L 547.710135 207.01128 
L 553.323273 206.241785 
L 558.936411 209.063266 
L 564.549549 209.319765 
L 570.162687 201.368316 
L 575.775825 202.39431 
L 581.388963 201.881313 
L 587.0021 206.241785 
L 592.615238 213.423738 
L 598.228376 206.754781 
L 603.841514 207.267778 
L 609.454652 202.39431 
L 615.06779 206.498283 
L 620.680928 206.498283 
L 626.294066 207.780775 
L 631.907204 211.115253 
L 637.520341 212.397745 
L 643.133479 207.01128 
L 648.746617 205.47229 
L 659.972893 205.985286 
L 665.586031 206.498283 
L 671.199169 208.806768 
L 676.812307 209.063266 
L 682.425444 205.728788 
L 688.038582 213.423738 
L 693.65172 211.62825 
L 699.264858 204.959293 
L 704.877996 208.293771 
L 710.491134 213.680237 
L 716.104272 205.728788 
L 721.71741 201.881313 
L 732.943685 205.985286 
L 738.556823 205.728788 
L 744.169961 205.985286 
L 749.783099 207.780775 
L 755.396237 211.371751 
L 761.009375 210.08926 
L 766.622513 211.884748 
L 772.235651 207.267778 
L 777.848788 208.55027 
L 783.461926 212.397745 
L 789.075064 207.01128 
L 794.688202 205.728788 
L 800.30134 208.293771 
L 805.914478 190.595386 
L 811.527616 198.290336 
L 817.140754 190.338887 
L 822.753892 195.212356 
L 833.980167 190.595386 
L 839.593305 186.747911 
L 845.206443 199.829326 
L 850.819581 194.955858 
L 856.432719 195.981851 
L 862.045857 209.576263 
L 867.658995 213.16724 
L 873.272133 206.241785 
L 878.88527 203.676801 
L 884.498408 211.62825 
L 890.111546 213.16724 
L 892.918115 212.654243 
L 895.724684 211.884748 
L 901.337822 212.141247 
L 906.95096 208.037273 
L 912.564098 209.063266 
L 918.177236 205.985286 
L 918.177236 205.985286 
" clip-path="url(#p961a9bc05c)" style="fill: none; stroke: #b8e3b2; stroke-opacity: 0.95; stroke-width: 1.3; stroke-linecap: square"/>
   </g>
   <g id="line2d_34">
    <path d="M 59.367139 212.654243 
L 64.980277 210.08926 
L 70.593415 213.16724 
L 76.206553 208.293771 
L 81.819691 207.01128 
L 87.432829 208.037273 
L 93.045967 202.907306 
L 98.659105 205.728788 
L 104.272242 200.598821 
L 115.498518 201.624815 
L 121.111656 197.520841 
L 126.724794 212.397745 
L 132.337932 203.163805 
L 137.95107 208.806768 
L 143.564208 210.602256 
L 149.177346 208.806768 
L 154.790483 205.215791 
L 160.403621 208.037273 
L 166.016759 204.702795 
L 171.629897 212.654243 
L 177.243035 192.647373 
L 182.856173 200.085824 
L 188.469311 202.650808 
L 194.082449 192.903871 
L 210.921862 205.985286 
L 222.148138 195.725353 
L 227.761276 202.137811 
L 233.374414 210.345758 
L 238.987552 208.55027 
L 244.60069 214.70623 
L 250.213827 201.111818 
L 255.826965 199.316329 
L 261.440103 214.449732 
L 267.053241 211.884748 
L 272.666379 213.936735 
L 278.279517 206.754781 
L 283.892655 211.884748 
L 289.505793 209.319765 
L 295.118931 205.215791 
L 306.345206 207.780775 
L 311.958344 208.037273 
L 317.571482 212.397745 
L 323.18462 208.806768 
L 328.797758 205.47229 
L 334.410896 207.780775 
L 340.024034 206.241785 
L 345.637171 210.345758 
L 351.250309 208.55027 
L 356.863447 211.884748 
L 362.476585 208.55027 
L 368.089723 207.01128 
L 373.702861 207.780775 
L 379.315999 204.446296 
L 384.929137 213.423738 
L 390.542275 207.780775 
L 396.155412 213.680237 
L 401.76855 204.446296 
L 407.381688 200.598821 
L 412.994826 205.215791 
L 418.607964 207.524276 
L 429.83424 210.08926 
L 435.447378 209.319765 
L 441.060515 209.832761 
L 446.673653 205.728788 
L 452.286791 209.832761 
L 457.899929 199.572828 
L 463.513067 204.702795 
L 469.126205 208.55027 
L 480.352481 200.855319 
L 485.965619 210.858755 
L 491.578756 203.676801 
L 497.191894 198.546834 
L 502.805032 195.725353 
L 508.41817 188.286901 
L 519.644446 196.238349 
L 525.257584 195.468854 
L 530.870722 188.543399 
L 536.48386 189.312894 
L 542.096997 197.264343 
L 547.710135 204.702795 
L 553.323273 213.936735 
L 558.936411 208.55027 
L 564.549549 203.9333 
L 570.162687 200.855319 
L 575.775825 203.676801 
L 578.582394 204.959293 
L 581.388963 206.498283 
L 587.0021 208.55027 
L 592.615238 207.780775 
L 598.228376 206.754781 
L 603.841514 206.498283 
L 609.454652 208.55027 
L 615.06779 202.907306 
L 620.680928 207.01128 
L 626.294066 208.55027 
L 631.907204 204.446296 
L 637.520341 207.267778 
L 643.133479 201.368316 
L 648.746617 210.345758 
L 654.359755 206.754781 
L 659.972893 210.858755 
L 665.586031 206.754781 
L 671.199169 209.063266 
L 676.812307 205.215791 
L 682.425444 205.985286 
L 688.038582 208.55027 
L 699.264858 208.55027 
L 704.877996 206.754781 
L 710.491134 206.754781 
L 716.104272 203.163805 
L 721.71741 201.111818 
L 732.943685 199.572828 
L 738.556823 206.498283 
L 744.169961 201.624815 
L 749.783099 206.754781 
L 755.396237 212.910742 
L 761.009375 206.498283 
L 766.622513 207.267778 
L 772.235651 201.111818 
L 777.848788 204.702795 
L 783.461926 206.754781 
L 789.075064 206.498283 
L 794.688202 208.55027 
L 800.30134 207.01128 
L 805.914478 202.650808 
L 811.527616 200.342323 
L 817.140754 195.725353 
L 822.753892 193.160369 
L 833.980167 181.874442 
L 839.593305 191.621379 
L 845.206443 202.650808 
L 850.819581 198.546834 
L 856.432719 198.546834 
L 862.045857 206.241785 
L 867.658995 206.754781 
L 873.272133 205.47229 
L 878.88527 205.728788 
L 884.498408 207.524276 
L 890.111546 210.08926 
L 892.918115 209.319765 
L 895.724684 208.806768 
L 901.337822 210.08926 
L 906.95096 208.293771 
L 912.564098 209.832761 
L 918.177236 209.576263 
L 918.177236 209.576263 
" clip-path="url(#p961a9bc05c)" style="fill: none; stroke: #98d594; stroke-opacity: 0.95; stroke-width: 1.3; stroke-linecap: square"/>
   </g>
   <g id="line2d_35">
    <path d="M 59.367139 209.832761 
L 70.593415 211.371751 
L 76.206553 213.936735 
L 81.819691 202.137811 
L 87.432829 82.609584 
L 93.045967 111.0809 
L 98.659105 113.132887 
L 104.272242 111.850395 
L 115.498518 118.77585 
L 121.111656 198.290336 
L 123.918225 203.676801 
L 126.724794 208.806768 
L 132.337932 211.884748 
L 137.95107 218.040708 
L 143.564208 219.066702 
L 149.177346 210.08926 
L 154.790483 213.423738 
L 160.403621 214.193233 
L 166.016759 210.858755 
L 171.629897 210.858755 
L 177.243035 49.008301 
L 182.856173 112.106893 
L 188.469311 77.736116 
L 194.082449 59.268235 
L 205.308724 59.781232 
L 210.921862 64.6547 
L 216.535 85.174567 
L 222.148138 102.872953 
L 227.761276 108.259418 
L 233.374414 199.316329 
L 238.987552 205.985286 
L 244.60069 211.62825 
L 250.213827 208.55027 
L 255.826965 216.758217 
L 261.440103 214.449732 
L 264.246672 212.654243 
L 267.053241 210.602256 
L 272.666379 213.936735 
L 278.279517 208.293771 
L 283.892655 209.576263 
L 289.505793 210.345758 
L 295.118931 213.936735 
L 306.345206 208.806768 
L 311.958344 212.654243 
L 317.571482 213.16724 
L 323.18462 214.962728 
L 328.797758 213.680237 
L 334.410896 208.55027 
L 340.024034 208.806768 
L 345.637171 208.55027 
L 351.250309 209.576263 
L 356.863447 210.08926 
L 362.476585 209.319765 
L 368.089723 213.936735 
L 373.702861 212.141247 
L 379.315999 209.576263 
L 384.929137 208.037273 
L 390.542275 213.936735 
L 396.155412 210.08926 
L 401.76855 150.581645 
L 407.381688 89.535039 
L 412.994826 107.746421 
L 418.607964 99.794973 
L 429.83424 104.92494 
L 435.447378 193.416868 
L 441.060515 208.293771 
L 446.673653 207.01128 
L 452.286791 207.267778 
L 457.899929 210.858755 
L 463.513067 208.806768 
L 469.126205 208.55027 
L 474.739343 209.063266 
L 480.352481 208.037273 
L 485.965619 209.576263 
L 491.578756 58.242242 
L 497.191894 78.762109 
L 502.805032 78.249112 
L 508.41817 67.219684 
L 519.644446 42.082846 
L 525.257584 72.093152 
L 530.870722 56.95975 
L 536.48386 83.122581 
L 542.096997 84.405072 
L 547.710135 208.806768 
L 553.323273 208.037273 
L 558.936411 213.423738 
L 564.549549 219.066702 
L 570.162687 209.063266 
L 575.775825 217.78421 
L 581.388963 219.3232 
L 587.0021 215.988722 
L 592.615238 217.271213 
L 598.228376 214.449732 
L 603.841514 214.193233 
L 609.454652 209.319765 
L 615.06779 214.449732 
L 620.680928 209.063266 
L 626.294066 213.936735 
L 631.907204 210.08926 
L 637.520341 209.832761 
L 643.133479 209.063266 
L 648.746617 212.654243 
L 654.359755 209.576263 
L 659.972893 212.910742 
L 665.586031 214.193233 
L 671.199169 217.527712 
L 676.812307 209.063266 
L 682.425444 212.910742 
L 688.038582 211.884748 
L 693.65172 212.654243 
L 699.264858 215.732223 
L 704.877996 209.832761 
L 710.491134 210.602256 
L 716.104272 145.964674 
L 721.71741 91.330528 
L 732.943685 94.408508 
L 738.556823 104.155445 
L 744.169961 100.564468 
L 749.783099 201.881313 
L 752.589668 203.9333 
L 755.396237 205.728788 
L 761.009375 206.241785 
L 766.622513 209.319765 
L 772.235651 205.985286 
L 777.848788 205.215791 
L 783.461926 207.524276 
L 789.075064 208.037273 
L 794.688202 219.066702 
L 800.30134 214.70623 
L 805.914478 36.696381 
L 811.527616 55.677258 
L 817.140754 63.628707 
L 822.753892 63.628707 
L 833.980167 70.554162 
L 839.593305 51.829783 
L 845.206443 33.618401 
L 850.819581 56.703251 
L 856.432719 68.245677 
L 862.045857 209.063266 
L 867.658995 215.988722 
L 873.272133 205.728788 
L 878.88527 208.806768 
L 884.498408 210.08926 
L 890.111546 208.55027 
L 895.724684 209.063266 
L 901.337822 211.371751 
L 906.95096 211.62825 
L 912.564098 212.141247 
L 918.177236 210.08926 
L 918.177236 210.08926 
" clip-path="url(#p961a9bc05c)" style="fill: none; stroke: #73c476; stroke-opacity: 0.95; stroke-width: 1.3; stroke-linecap: square"/>
   </g>
   <g id="line2d_36">
    <path d="M 59.367139 208.806768 
L 64.980277 208.806768 
L 70.593415 209.576263 
L 76.206553 208.293771 
L 81.819691 209.319765 
L 87.432829 201.368316 
L 93.045967 198.033838 
L 98.659105 191.364881 
L 104.272242 188.799897 
L 115.498518 190.851884 
L 121.111656 195.468854 
L 126.724794 207.524276 
L 132.337932 207.524276 
L 137.95107 205.985286 
L 143.564208 207.267778 
L 149.177346 208.037273 
L 154.790483 210.08926 
L 160.403621 209.576263 
L 166.016759 210.858755 
L 171.629897 210.345758 
L 177.243035 197.520841 
L 182.856173 173.922994 
L 188.469311 179.822455 
L 194.082449 182.643937 
L 205.308724 187.004409 
L 210.921862 179.565957 
L 216.535 180.59195 
L 222.148138 174.43599 
L 227.761276 182.643937 
L 233.374414 207.01128 
L 238.987552 207.780775 
L 244.60069 209.576263 
L 250.213827 209.832761 
L 255.826965 208.293771 
L 261.440103 208.806768 
L 264.246672 209.576263 
L 267.053241 210.08926 
L 272.666379 208.293771 
L 278.279517 208.037273 
L 283.892655 208.55027 
L 289.505793 207.267778 
L 295.118931 207.524276 
L 300.732068 209.063266 
L 306.345206 208.55027 
L 311.958344 209.319765 
L 317.571482 209.576263 
L 323.18462 208.293771 
L 328.797758 210.08926 
L 334.410896 210.345758 
L 340.024034 207.267778 
L 345.637171 207.780775 
L 351.250309 210.858755 
L 356.863447 210.08926 
L 362.476585 209.576263 
L 368.089723 208.293771 
L 379.315999 209.319765 
L 384.929137 206.754781 
L 390.542275 209.319765 
L 396.155412 207.524276 
L 401.76855 204.189798 
L 407.381688 199.316329 
L 412.994826 192.647373 
L 418.607964 195.981851 
L 429.83424 191.877878 
L 435.447378 199.059831 
L 438.253947 203.676801 
L 441.060515 208.55027 
L 446.673653 208.806768 
L 452.286791 208.806768 
L 463.513067 207.267778 
L 469.126205 209.063266 
L 480.352481 208.55027 
L 485.965619 208.806768 
L 491.578756 201.368316 
L 497.191894 178.026967 
L 502.805032 180.59195 
L 508.41817 180.848449 
L 519.644446 179.822455 
L 525.257584 177.000974 
L 530.870722 178.026967 
L 536.48386 177.51397 
L 542.096997 180.59195 
L 547.710135 203.676801 
L 553.323273 207.524276 
L 558.936411 209.576263 
L 564.549549 208.293771 
L 570.162687 210.345758 
L 575.775825 207.780775 
L 581.388963 207.780775 
L 587.0021 208.806768 
L 592.615238 207.524276 
L 603.841514 206.498283 
L 615.06779 210.602256 
L 620.680928 208.037273 
L 626.294066 205.985286 
L 631.907204 207.01128 
L 637.520341 208.55027 
L 643.133479 208.037273 
L 648.746617 209.063266 
L 654.359755 208.55027 
L 659.972893 208.293771 
L 665.586031 208.293771 
L 671.199169 205.728788 
L 676.812307 207.267778 
L 682.425444 209.319765 
L 688.038582 208.806768 
L 693.65172 208.55027 
L 699.264858 209.576263 
L 704.877996 208.037273 
L 710.491134 206.754781 
L 716.104272 201.881313 
L 732.943685 188.030402 
L 738.556823 188.543399 
L 744.169961 191.108382 
L 749.783099 197.007844 
L 752.589668 202.39431 
L 755.396237 207.524276 
L 761.009375 208.037273 
L 766.622513 206.754781 
L 772.235651 207.524276 
L 777.848788 209.576263 
L 783.461926 209.063266 
L 789.075064 208.293771 
L 794.688202 208.293771 
L 800.30134 209.319765 
L 805.914478 194.442861 
L 811.527616 176.487977 
L 817.140754 179.05296 
L 822.753892 176.487977 
L 833.980167 178.026967 
L 839.593305 172.897 
L 845.206443 182.900436 
L 850.819581 174.692489 
L 856.432719 175.97498 
L 862.045857 198.290336 
L 867.658995 205.215791 
L 873.272133 207.524276 
L 878.88527 208.55027 
L 884.498408 208.55027 
L 890.111546 207.524276 
L 892.918115 208.293771 
L 895.724684 208.806768 
L 901.337822 208.037273 
L 906.95096 207.01128 
L 918.177236 207.524276 
L 918.177236 207.524276 
" clip-path="url(#p961a9bc05c)" style="fill: none; stroke: #4bb062; stroke-opacity: 0.95; stroke-width: 1.3; stroke-linecap: square"/>
   </g>
   <g id="line2d_37">
    <path d="M 59.367139 216.501718 
L 64.980277 206.498283 
L 70.593415 214.70623 
L 76.206553 214.962728 
L 81.819691 207.267778 
L 87.432829 195.981851 
L 93.045967 193.929864 
L 98.659105 155.198615 
L 104.272242 162.637067 
L 115.498518 191.877878 
L 121.111656 196.494848 
L 126.724794 210.345758 
L 132.337932 213.423738 
L 137.95107 215.475725 
L 143.564208 213.423738 
L 149.177346 213.936735 
L 154.790483 213.680237 
L 160.403621 212.141247 
L 166.016759 210.858755 
L 171.629897 213.936735 
L 177.243035 186.747911 
L 182.856173 161.098077 
L 188.469311 149.299153 
L 194.082449 190.851884 
L 205.308724 187.004409 
L 210.921862 158.533093 
L 216.535 164.176057 
L 222.148138 158.789591 
L 227.761276 170.332017 
L 233.374414 207.780775 
L 238.987552 208.55027 
L 244.60069 207.267778 
L 250.213827 215.732223 
L 255.826965 213.680237 
L 261.440103 211.884748 
L 267.053241 211.884748 
L 272.666379 212.910742 
L 278.279517 212.654243 
L 283.892655 216.758217 
L 289.505793 215.475725 
L 295.118931 212.910742 
L 300.732068 215.988722 
L 306.345206 214.962728 
L 311.958344 212.141247 
L 317.571482 215.219227 
L 323.18462 214.962728 
L 328.797758 219.3232 
L 334.410896 219.066702 
L 340.024034 213.423738 
L 345.637171 212.654243 
L 351.250309 216.24522 
L 356.863447 214.962728 
L 362.476585 215.988722 
L 368.089723 214.70623 
L 373.702861 212.654243 
L 379.315999 212.654243 
L 384.929137 212.910742 
L 390.542275 215.988722 
L 396.155412 213.423738 
L 401.76855 209.832761 
L 407.381688 187.004409 
L 412.994826 177.770469 
L 418.607964 178.026967 
L 429.83424 166.997538 
L 435.447378 190.851884 
L 441.060515 211.115253 
L 446.673653 211.62825 
L 452.286791 215.475725 
L 457.899929 212.397745 
L 469.126205 213.423738 
L 474.739343 215.475725 
L 480.352481 212.397745 
L 485.965619 218.810203 
L 491.578756 178.796462 
L 497.191894 143.143193 
L 502.805032 176.231479 
L 508.41817 148.529658 
L 519.644446 171.614509 
L 525.257584 192.903871 
L 530.870722 191.364881 
L 536.48386 169.049525 
L 542.096997 155.198615 
L 547.710135 203.163805 
L 553.323273 209.576263 
L 558.936411 214.449732 
L 564.549549 212.910742 
L 570.162687 213.16724 
L 575.775825 209.576263 
L 581.388963 215.732223 
L 587.0021 212.397745 
L 592.615238 212.654243 
L 598.228376 212.141247 
L 603.841514 212.910742 
L 609.454652 212.141247 
L 615.06779 212.910742 
L 626.294066 211.884748 
L 631.907204 212.910742 
L 637.520341 211.62825 
L 648.746617 214.70623 
L 654.359755 213.16724 
L 659.972893 212.141247 
L 665.586031 212.397745 
L 671.199169 213.16724 
L 676.812307 212.141247 
L 682.425444 212.397745 
L 693.65172 214.449732 
L 699.264858 212.141247 
L 704.877996 215.732223 
L 710.491134 212.654243 
L 716.104272 209.063266 
L 721.71741 188.030402 
L 732.943685 180.078954 
L 738.556823 190.851884 
L 744.169961 192.903871 
L 749.783099 202.907306 
L 755.396237 209.063266 
L 761.009375 206.498283 
L 766.622513 213.16724 
L 772.235651 213.16724 
L 777.848788 214.70623 
L 783.461926 211.884748 
L 794.688202 212.910742 
L 800.30134 211.62825 
L 805.914478 198.033838 
L 811.527616 176.231479 
L 817.140754 174.179492 
L 822.753892 181.617944 
L 833.980167 155.96811 
L 839.593305 148.786156 
L 845.206443 186.234914 
L 850.819581 143.656189 
L 856.432719 170.332017 
L 862.045857 205.728788 
L 867.658995 209.319765 
L 873.272133 208.806768 
L 878.88527 213.423738 
L 884.498408 212.141247 
L 890.111546 215.475725 
L 895.724684 212.397745 
L 901.337822 215.732223 
L 906.95096 215.732223 
L 912.564098 215.988722 
L 918.177236 215.219227 
L 918.177236 215.219227 
" clip-path="url(#p961a9bc05c)" style="fill: none; stroke: #2f974e; stroke-opacity: 0.95; stroke-width: 1.3; stroke-linecap: square"/>
   </g>
   <g id="line2d_38">
    <path d="M 59.367139 218.040708 
L 64.980277 219.3232 
L 70.593415 214.193233 
L 76.206553 215.475725 
L 81.819691 204.702795 
L 87.432829 66.19369 
L 93.045967 117.23686 
L 98.659105 122.366827 
L 104.272242 110.567903 
L 115.498518 122.366827 
L 121.111656 197.264343 
L 126.724794 213.936735 
L 132.337932 213.936735 
L 137.95107 214.70623 
L 143.564208 216.758217 
L 149.177346 215.732223 
L 154.790483 218.297207 
L 160.403621 214.70623 
L 166.016759 209.063266 
L 171.629897 209.319765 
L 177.243035 29.770926 
L 182.856173 91.587026 
L 188.469311 68.502175 
L 194.082449 74.914634 
L 205.308724 53.112275 
L 210.921862 45.417324 
L 216.535 78.762109 
L 222.148138 90.561033 
L 227.761276 106.976926 
L 233.374414 201.368316 
L 238.987552 207.780775 
L 244.60069 216.24522 
L 250.213827 214.70623 
L 255.826965 219.3232 
L 261.440103 218.040708 
L 264.246672 216.501718 
L 267.053241 214.70623 
L 272.666379 210.602256 
L 278.279517 210.08926 
L 283.892655 218.810203 
L 289.505793 218.040708 
L 295.118931 214.193233 
L 300.732068 213.936735 
L 306.345206 216.501718 
L 311.958344 214.449732 
L 317.571482 214.70623 
L 323.18462 217.271213 
L 328.797758 210.602256 
L 334.410896 213.16724 
L 340.024034 218.553705 
L 345.637171 212.397745 
L 351.250309 212.654243 
L 356.863447 209.319765 
L 362.476585 211.62825 
L 368.089723 211.115253 
L 373.702861 213.936735 
L 379.315999 215.219227 
L 384.929137 213.680237 
L 390.542275 219.3232 
L 396.155412 215.475725 
L 401.76855 142.630196 
L 407.381688 80.301099 
L 412.994826 109.028913 
L 418.607964 107.233425 
L 429.83424 116.210867 
L 435.447378 193.160369 
L 441.060515 209.832761 
L 446.673653 207.780775 
L 452.286791 211.115253 
L 457.899929 209.576263 
L 463.513067 209.832761 
L 469.126205 209.063266 
L 474.739343 213.16724 
L 480.352481 211.884748 
L 485.965619 212.397745 
L 491.578756 32.592407 
L 497.191894 69.784667 
L 502.805032 63.372208 
L 508.41817 55.164261 
L 519.644446 51.316786 
L 525.257584 63.885205 
L 530.870722 36.952879 
L 536.48386 62.346215 
L 542.096997 90.304534 
L 547.710135 207.01128 
L 553.323273 209.576263 
L 558.936411 214.962728 
L 564.549549 217.78421 
L 570.162687 210.08926 
L 575.775825 219.3232 
L 587.0021 219.3232 
L 592.615238 216.501718 
L 598.228376 212.141247 
L 603.841514 219.3232 
L 609.454652 214.449732 
L 615.06779 219.3232 
L 620.680928 215.475725 
L 626.294066 217.271213 
L 631.907204 217.271213 
L 637.520341 212.910742 
L 643.133479 213.16724 
L 648.746617 209.576263 
L 654.359755 214.962728 
L 659.972893 212.910742 
L 665.586031 214.962728 
L 671.199169 219.066702 
L 676.812307 211.62825 
L 682.425444 216.758217 
L 688.038582 217.78421 
L 693.65172 218.040708 
L 699.264858 219.3232 
L 704.877996 210.602256 
L 710.491134 212.910742 
L 716.104272 142.886694 
L 721.71741 77.223119 
L 732.943685 109.798408 
L 738.556823 109.028913 
L 744.169961 90.048036 
L 749.783099 197.264343 
L 755.396237 209.832761 
L 761.009375 205.215791 
L 766.622513 209.832761 
L 772.235651 207.780775 
L 777.848788 206.498283 
L 783.461926 208.293771 
L 789.075064 210.345758 
L 794.688202 219.3232 
L 800.30134 219.3232 
L 805.914478 26.692946 
L 811.527616 45.673823 
L 817.140754 51.060288 
L 822.753892 53.368773 
L 833.980167 40.287358 
L 839.593305 46.956315 
L 845.206443 39.261364 
L 850.819581 27.975437 
L 856.432719 56.95975 
L 862.045857 203.9333 
L 867.658995 209.576263 
L 873.272133 207.780775 
L 878.88527 212.654243 
L 884.498408 214.70623 
L 890.111546 213.680237 
L 892.918115 213.423738 
L 895.724684 212.910742 
L 901.337822 214.193233 
L 906.95096 218.297207 
L 912.564098 214.962728 
L 918.177236 216.758217 
L 918.177236 216.758217 
" clip-path="url(#p961a9bc05c)" style="fill: none; stroke: #157f3b; stroke-opacity: 0.95; stroke-width: 1.3; stroke-linecap: square"/>
   </g>
   <g id="patch_23">
    <path d="M 42.190938 228.954713 
L 42.190938 17.061433 
" style="fill: none; stroke: #cbd5e1; stroke-width: 0.8; stroke-linejoin: miter; stroke-linecap: square"/>
   </g>
   <g id="patch_24">
    <path d="M 935.353437 228.954713 
L 935.353437 17.061433 
" style="fill: none; stroke: #cbd5e1; stroke-width: 0.8; stroke-linejoin: miter; stroke-linecap: square"/>
   </g>
   <g id="patch_25">
    <path d="M 42.190938 228.954713 
L 935.353437 228.954713 
" style="fill: none; stroke: #cbd5e1; stroke-width: 0.8; stroke-linejoin: miter; stroke-linecap: square"/>
   </g>
   <g id="patch_26">
    <path d="M 42.190938 17.061433 
L 935.353437 17.061433 
" style="fill: none; stroke: #cbd5e1; stroke-width: 0.8; stroke-linejoin: miter; stroke-linecap: square"/>
   </g>
   <g id="text_19">
    <!-- ACC -->
    <g style="fill: #475569" transform="translate(42.526538 13.27875) scale(0.08 -0.08)">
     <defs>
      <path id="DejaVuSans-41" d="M 2188 4044 
L 1331 1722 
L 3047 1722 
L 2188 4044 
z
M 1831 4666 
L 2547 4666 
L 4325 0 
L 3669 0 
L 3244 1197 
L 1141 1197 
L 716 0 
L 50 0 
L 1831 4666 
z
" transform="scale(0.015625)"/>
      <path id="DejaVuSans-43" d="M 4122 4306 
L 4122 3641 
Q 3803 3938 3442 4084 
Q 3081 4231 2675 4231 
Q 1875 4231 1450 3742 
Q 1025 3253 1025 2328 
Q 1025 1406 1450 917 
Q 1875 428 2675 428 
Q 3081 428 3442 575 
Q 3803 722 4122 1019 
L 4122 359 
Q 3791 134 3420 21 
Q 3050 -91 2638 -91 
Q 1578 -91 968 557 
Q 359 1206 359 2328 
Q 359 3453 968 4101 
Q 1578 4750 2638 4750 
Q 3056 4750 3426 4639 
Q 3797 4528 4122 4306 
z
" transform="scale(0.015625)"/>
     </defs>
     <use xlink:href="#DejaVuSans-41"/>
     <use xlink:href="#DejaVuSans-43" transform="translate(66.658203 0)"/>
     <use xlink:href="#DejaVuSans-43" transform="translate(136.482422 0)"/>
    </g>
   </g>
   <g id="text_20">
    <!-- OC -->
    <g style="fill: #475569" transform="translate(70.264678 13.27875) scale(0.08 -0.08)">
     <defs>
      <path id="DejaVuSans-4f" d="M 2522 4238 
Q 1834 4238 1429 3725 
Q 1025 3213 1025 2328 
Q 1025 1447 1429 934 
Q 1834 422 2522 422 
Q 3209 422 3611 934 
Q 4013 1447 4013 2328 
Q 4013 3213 3611 3725 
Q 3209 4238 2522 4238 
z
M 2522 4750 
Q 3503 4750 4090 4092 
Q 4678 3434 4678 2328 
Q 4678 1225 4090 567 
Q 3503 -91 2522 -91 
Q 1538 -91 948 565 
Q 359 1222 359 2328 
Q 359 3434 948 4092 
Q 1538 4750 2522 4750 
z
" transform="scale(0.015625)"/>
     </defs>
     <use xlink:href="#DejaVuSans-4f"/>
     <use xlink:href="#DejaVuSans-43" transform="translate(78.710938 0)"/>
    </g>
   </g>
   <g id="text_21">
    <!-- FCS -->
    <g style="fill: #475569" transform="translate(102.252255 13.27875) scale(0.08 -0.08)">
     <defs>
      <path id="DejaVuSans-46" d="M 628 4666 
L 3309 4666 
L 3309 4134 
L 1259 4134 
L 1259 2759 
L 3109 2759 
L 3109 2228 
L 1259 2228 
L 1259 0 
L 628 0 
L 628 4666 
z
" transform="scale(0.015625)"/>
      <path id="DejaVuSans-53" d="M 3425 4513 
L 3425 3897 
Q 3066 4069 2747 4153 
Q 2428 4238 2131 4238 
Q 1616 4238 1336 4038 
Q 1056 3838 1056 3469 
Q 1056 3159 1242 3001 
Q 1428 2844 1947 2747 
L 2328 2669 
Q 3034 2534 3370 2195 
Q 3706 1856 3706 1288 
Q 3706 609 3251 259 
Q 2797 -91 1919 -91 
Q 1588 -91 1214 -16 
Q 841 59 441 206 
L 441 856 
Q 825 641 1194 531 
Q 1563 422 1919 422 
Q 2459 422 2753 634 
Q 3047 847 3047 1241 
Q 3047 1584 2836 1778 
Q 2625 1972 2144 2069 
L 1759 2144 
Q 1053 2284 737 2584 
Q 422 2884 422 3419 
Q 422 4038 858 4394 
Q 1294 4750 2059 4750 
Q 2388 4750 2728 4690 
Q 3069 4631 3425 4513 
z
" transform="scale(0.015625)"/>
     </defs>
     <use xlink:href="#DejaVuSans-46"/>
     <use xlink:href="#DejaVuSans-43" transform="translate(57.519531 0)"/>
     <use xlink:href="#DejaVuSans-53" transform="translate(127.34375 0)"/>
    </g>
   </g>
   <g id="text_22">
    <!-- SR -->
    <g style="fill: #475569" transform="translate(143.858596 13.27875) scale(0.08 -0.08)">
     <defs>
      <path id="DejaVuSans-52" d="M 2841 2188 
Q 3044 2119 3236 1894 
Q 3428 1669 3622 1275 
L 4263 0 
L 3584 0 
L 2988 1197 
Q 2756 1666 2539 1819 
Q 2322 1972 1947 1972 
L 1259 1972 
L 1259 0 
L 628 0 
L 628 4666 
L 2053 4666 
Q 2853 4666 3247 4331 
Q 3641 3997 3641 3322 
Q 3641 2881 3436 2590 
Q 3231 2300 2841 2188 
z
M 1259 4147 
L 1259 2491 
L 2053 2491 
Q 2509 2491 2742 2702 
Q 2975 2913 2975 3322 
Q 2975 3731 2742 3939 
Q 2509 4147 2053 4147 
L 1259 4147 
z
" transform="scale(0.015625)"/>
     </defs>
     <use xlink:href="#DejaVuSans-53"/>
     <use xlink:href="#DejaVuSans-52" transform="translate(63.476562 0)"/>
    </g>
   </g>
   <g id="text_23">
    <!-- FFC -->
    <g style="fill: #475569" transform="translate(195.10778 13.27875) scale(0.08 -0.08)">
     <use xlink:href="#DejaVuSans-46"/>
     <use xlink:href="#DejaVuSans-46" transform="translate(57.519531 0)"/>
     <use xlink:href="#DejaVuSans-43" transform="translate(115.039062 0)"/>
    </g>
   </g>
   <g id="text_24">
    <!-- SS -->
    <g style="fill: #475569" transform="translate(304.073025 13.27875) scale(0.08 -0.08)">
     <use xlink:href="#DejaVuSans-53"/>
     <use xlink:href="#DejaVuSans-53" transform="translate(63.476562 0)"/>
    </g>
   </g>
   <g id="text_25">
    <!-- OC -->
    <g style="fill: #475569" transform="translate(387.406968 13.27875) scale(0.08 -0.08)">
     <use xlink:href="#DejaVuSans-4f"/>
     <use xlink:href="#DejaVuSans-43" transform="translate(78.710938 0)"/>
    </g>
   </g>
   <g id="text_26">
    <!-- FCS -->
    <g style="fill: #475569" transform="translate(416.587977 13.27875) scale(0.08 -0.08)">
     <use xlink:href="#DejaVuSans-46"/>
     <use xlink:href="#DejaVuSans-43" transform="translate(57.519531 0)"/>
     <use xlink:href="#DejaVuSans-53" transform="translate(127.34375 0)"/>
    </g>
   </g>
   <g id="text_27">
    <!-- SR -->
    <g style="fill: #475569" transform="translate(458.194317 13.27875) scale(0.08 -0.08)">
     <use xlink:href="#DejaVuSans-53"/>
     <use xlink:href="#DejaVuSans-52" transform="translate(63.476562 0)"/>
    </g>
   </g>
   <g id="text_28">
    <!-- FFC -->
    <g style="fill: #475569" transform="translate(509.443502 13.27875) scale(0.08 -0.08)">
     <use xlink:href="#DejaVuSans-46"/>
     <use xlink:href="#DejaVuSans-46" transform="translate(57.519531 0)"/>
     <use xlink:href="#DejaVuSans-43" transform="translate(115.039062 0)"/>
    </g>
   </g>
   <g id="text_29">
    <!-- SS -->
    <g style="fill: #475569" transform="translate(618.408747 13.27875) scale(0.08 -0.08)">
     <use xlink:href="#DejaVuSans-53"/>
     <use xlink:href="#DejaVuSans-53" transform="translate(63.476562 0)"/>
    </g>
   </g>
   <g id="text_30">
    <!-- OC -->
    <g style="fill: #475569" transform="translate(701.74269 13.27875) scale(0.08 -0.08)">
     <use xlink:href="#DejaVuSans-4f"/>
     <use xlink:href="#DejaVuSans-43" transform="translate(78.710938 0)"/>
    </g>
   </g>
   <g id="text_31">
    <!-- FCS -->
    <g style="fill: #475569" transform="translate(730.923698 13.27875) scale(0.08 -0.08)">
     <use xlink:href="#DejaVuSans-46"/>
     <use xlink:href="#DejaVuSans-43" transform="translate(57.519531 0)"/>
     <use xlink:href="#DejaVuSans-53" transform="translate(127.34375 0)"/>
    </g>
   </g>
   <g id="text_32">
    <!-- SR -->
    <g style="fill: #475569" transform="translate(775.336607 13.27875) scale(0.08 -0.08)">
     <use xlink:href="#DejaVuSans-53"/>
     <use xlink:href="#DejaVuSans-52" transform="translate(63.476562 0)"/>
    </g>
   </g>
   <g id="text_33">
    <!-- FFC -->
    <g style="fill: #475569" transform="translate(826.585792 13.27875) scale(0.08 -0.08)">
     <use xlink:href="#DejaVuSans-46"/>
     <use xlink:href="#DejaVuSans-46" transform="translate(57.519531 0)"/>
     <use xlink:href="#DejaVuSans-43" transform="translate(115.039062 0)"/>
    </g>
   </g>
   <g id="text_34">
    <!-- SS -->
    <g style="fill: #475569" transform="translate(887.839365 13.27875) scale(0.08 -0.08)">
     <use xlink:href="#DejaVuSans-53"/>
     <use xlink:href="#DejaVuSans-53" transform="translate(63.476562 0)"/>
    </g>
   </g>
   <g id="legend_1">
    <g id="line2d_39">
     <path d="M 846.228437 27.540183 
L 854.228437 27.540183 
L 862.228437 27.540183 
" style="fill: none; stroke: #b8e3b2; stroke-opacity: 0.95; stroke-width: 1.3; stroke-linecap: square"/>
    </g>
    <g id="text_35">
     <!-- V1 -->
     <g transform="translate(868.628437 30.340183) scale(0.08 -0.08)">
      <use xlink:href="#DejaVuSans-56"/>
      <use xlink:href="#DejaVuSans-31" transform="translate(68.408203 0)"/>
     </g>
    </g>
    <g id="line2d_40">
     <path d="M 846.228437 39.282683 
L 854.228437 39.282683 
L 862.228437 39.282683 
" style="fill: none; stroke: #98d594; stroke-opacity: 0.95; stroke-width: 1.3; stroke-linecap: square"/>
    </g>
    <g id="text_36">
     <!-- V2 -->
     <g transform="translate(868.628437 42.082683) scale(0.08 -0.08)">
      <use xlink:href="#DejaVuSans-56"/>
      <use xlink:href="#DejaVuSans-32" transform="translate(68.408203 0)"/>
     </g>
    </g>
    <g id="line2d_41">
     <path d="M 846.228437 51.025183 
L 854.228437 51.025183 
L 862.228437 51.025183 
" style="fill: none; stroke: #73c476; stroke-opacity: 0.95; stroke-width: 1.3; stroke-linecap: square"/>
    </g>
    <g id="text_37">
     <!-- V3 -->
     <g transform="translate(868.628437 53.825183) scale(0.08 -0.08)">
      <use xlink:href="#DejaVuSans-56"/>
      <use xlink:href="#DejaVuSans-33" transform="translate(68.408203 0)"/>
     </g>
    </g>
    <g id="line2d_42">
     <path d="M 895.190937 27.540183 
L 903.190937 27.540183 
L 911.190937 27.540183 
" style="fill: none; stroke: #4bb062; stroke-opacity: 0.95; stroke-width: 1.3; stroke-linecap: square"/>
    </g>
    <g id="text_38">
     <!-- V4 -->
     <g transform="translate(917.590937 30.340183) scale(0.08 -0.08)">
      <use xlink:href="#DejaVuSans-56"/>
      <use xlink:href="#DejaVuSans-34" transform="translate(68.408203 0)"/>
     </g>
    </g>
    <g id="line2d_43">
     <path d="M 895.190937 39.282683 
L 903.190937 39.282683 
L 911.190937 39.282683 
" style="fill: none; stroke: #2f974e; stroke-opacity: 0.95; stroke-width: 1.3; stroke-linecap: square"/>
    </g>
    <g id="text_39">
     <!-- V5 -->
     <g transform="translate(917.590937 42.082683) scale(0.08 -0.08)">
      <use xlink:href="#DejaVuSans-56"/>
      <use xlink:href="#DejaVuSans-35" transform="translate(68.408203 0)"/>
     </g>
    </g>
    <g id="line2d_44">
     <path d="M 895.190937 51.025183 
L 903.190937 51.025183 
L 911.190937 51.025183 
" style="fill: none; stroke: #157f3b; stroke-opacity: 0.95; stroke-width: 1.3; stroke-linecap: square"/>
    </g>
    <g id="text_40">
     <!-- V6 -->
     <g transform="translate(917.590937 53.825183) scale(0.08 -0.08)">
      <use xlink:href="#DejaVuSans-56"/>
      <use xlink:href="#DejaVuSans-36" transform="translate(68.408203 0)"/>
     </g>
    </g>
   </g>
  </g>
 </g>
 <defs>
  <clipPath id="p961a9bc05c">
   <rect x="42.190938" y="17.061433" width="893.1625" height="211.89328"/>
  </clipPath>
 </defs>
</svg>
