<?xml version="1.0" encoding="utf-8" standalone="no"?>
<!DOCTYPE svg PUBLIC "-//W3C//DTD SVG 1.1//EN"
  "http://www.w3.org/Graphics/SVG/1.1/DTD/svg11.dtd">
<svg xmlns:xlink="http://www.w3.org/1999/xlink" width="942.530937pt" height="265.54315pt" viewBox="0 0 942.530937 265.54315" xmlns="http://www.w3.org/2000/svg" version="1.1">
 <metadata>
  <rdf:RDF xmlns:dc="http://purl.org/dc/elements/1.1/" xmlns:cc="http://creativecommons.org/ns#" xmlns:rdf="http://www.w3.org/1999/02/22-rdf-syntax-ns#">
   <cc:Work>
    <dc:type rdf:resource="http://purl.org/dc/dcmitype/StillImage"/>
    <dc:date>2026-04-17T17:30:22.451856</dc:date>
    <dc:format>image/svg+xml</dc:format>
    <dc:creator>
     <cc:Agent>
      <dc:title>Matplotlib v3.10.8, https://matplotlib.org/</dc:title>
     </cc:Agent>
    </dc:creator>
   </cc:Work>
  </rdf:RDF>
 </metadata>
 <defs>
  <style type="text/css">*{stroke-linejoin: round; stroke-linecap: butt}</style>
 </defs>
 <g id="figure_1">
  <g id="patch_1">
   <path d="M 0 265.54315 
L 942.530937 265.54315 
L 942.530937 0 
L 0 0 
z
" style="fill: #ffffff"/>
  </g>
  <g id="axes_1">
   <g id="patch_2">
    <path d="M 53.643438 228.954713 
L 935.330937 228.954713 
L 935.330937 17.061433 
L 53.643438 17.061433 
z
" style="fill: #ffffff"/>
   </g>
   <g id="patch_3">
    <path d="M 53.643438 228.954713 
L 70.598966 228.954713 
L 70.598966 17.061433 
L 53.643438 17.061433 
z
" clip-path="url(#p9670cc3c84)" style="fill: #f8fafc; opacity: 0.45"/>
   </g>
   <g id="patch_4">
    <path d="M 70.598966 228.954713 
L 103.845101 228.954713 
L 103.845101 17.061433 
L 70.598966 17.061433 
z
" clip-path="url(#p9670cc3c84)" style="fill: #eff6ff; opacity: 0.45"/>
   </g>
   <g id="patch_5">
    <path d="M 103.845101 228.954713 
L 137.091236 228.954713 
L 137.091236 17.061433 
L 103.845101 17.061433 
z
" clip-path="url(#p9670cc3c84)" style="fill: #fef3c7; opacity: 0.45"/>
   </g>
   <g id="patch_6">
    <path d="M 137.091236 228.954713 
L 175.878394 228.954713 
L 175.878394 17.061433 
L 137.091236 17.061433 
z
" clip-path="url(#p9670cc3c84)" style="fill: #dcfce7; opacity: 0.45"/>
   </g>
   <g id="patch_7">
    <path d="M 175.878394 228.954713 
L 231.288619 228.954713 
L 231.288619 17.061433 
L 175.878394 17.061433 
z
" clip-path="url(#p9670cc3c84)" style="fill: #fee2e2; opacity: 0.45"/>
   </g>
   <g id="patch_8">
    <path d="M 231.288619 228.954713 
L 242.370664 228.954713 
L 242.370664 17.061433 
L 231.288619 17.061433 
z
" clip-path="url(#p9670cc3c84)" style="fill: #ede9fe; opacity: 0.45"/>
   </g>
   <g id="patch_9">
    <path d="M 242.370664 228.954713 
L 386.437249 228.954713 
L 386.437249 17.061433 
L 242.370664 17.061433 
z
" clip-path="url(#p9670cc3c84)" style="fill: #f8fafc; opacity: 0.45"/>
   </g>
   <g id="patch_10">
    <path d="M 386.437249 228.954713 
L 414.142361 228.954713 
L 414.142361 17.061433 
L 386.437249 17.061433 
z
" clip-path="url(#p9670cc3c84)" style="fill: #eff6ff; opacity: 0.45"/>
   </g>
   <g id="patch_11">
    <path d="M 414.142361 228.954713 
L 447.388496 228.954713 
L 447.388496 17.061433 
L 414.142361 17.061433 
z
" clip-path="url(#p9670cc3c84)" style="fill: #fef3c7; opacity: 0.45"/>
   </g>
   <g id="patch_12">
    <path d="M 447.388496 228.954713 
L 486.175654 228.954713 
L 486.175654 17.061433 
L 447.388496 17.061433 
z
" clip-path="url(#p9670cc3c84)" style="fill: #dcfce7; opacity: 0.45"/>
   </g>
   <g id="patch_13">
    <path d="M 486.175654 228.954713 
L 541.585879 228.954713 
L 541.585879 17.061433 
L 486.175654 17.061433 
z
" clip-path="url(#p9670cc3c84)" style="fill: #fee2e2; opacity: 0.45"/>
   </g>
   <g id="patch_14">
    <path d="M 541.585879 228.954713 
L 552.667924 228.954713 
L 552.667924 17.061433 
L 541.585879 17.061433 
z
" clip-path="url(#p9670cc3c84)" style="fill: #ede9fe; opacity: 0.45"/>
   </g>
   <g id="patch_15">
    <path d="M 552.667924 228.954713 
L 696.734509 228.954713 
L 696.734509 17.061433 
L 552.667924 17.061433 
z
" clip-path="url(#p9670cc3c84)" style="fill: #f8fafc; opacity: 0.45"/>
   </g>
   <g id="patch_16">
    <path d="M 696.734509 228.954713 
L 724.439621 228.954713 
L 724.439621 17.061433 
L 696.734509 17.061433 
z
" clip-path="url(#p9670cc3c84)" style="fill: #eff6ff; opacity: 0.45"/>
   </g>
   <g id="patch_17">
    <path d="M 724.439621 228.954713 
L 757.685756 228.954713 
L 757.685756 17.061433 
L 724.439621 17.061433 
z
" clip-path="url(#p9670cc3c84)" style="fill: #fef3c7; opacity: 0.45"/>
   </g>
   <g id="patch_18">
    <path d="M 757.685756 228.954713 
L 796.472914 228.954713 
L 796.472914 17.061433 
L 757.685756 17.061433 
z
" clip-path="url(#p9670cc3c84)" style="fill: #dcfce7; opacity: 0.45"/>
   </g>
   <g id="patch_19">
    <path d="M 796.472914 228.954713 
L 851.883139 228.954713 
L 851.883139 17.061433 
L 796.472914 17.061433 
z
" clip-path="url(#p9670cc3c84)" style="fill: #fee2e2; opacity: 0.45"/>
   </g>
   <g id="patch_20">
    <path d="M 851.883139 228.954713 
L 862.965184 228.954713 
L 862.965184 17.061433 
L 851.883139 17.061433 
z
" clip-path="url(#p9670cc3c84)" style="fill: #ede9fe; opacity: 0.45"/>
   </g>
   <g id="patch_21">
    <path d="M 862.965184 228.954713 
L 918.375409 228.954713 
L 918.375409 17.061433 
L 862.965184 17.061433 
z
" clip-path="url(#p9670cc3c84)" style="fill: #f8fafc; opacity: 0.45"/>
   </g>
   <g id="patch_22">
    <path d="M 918.375409 228.954713 
L 923.916431 228.954713 
L 923.916431 17.061433 
L 918.375409 17.061433 
z
" clip-path="url(#p9670cc3c84)" style="fill: #eff6ff; opacity: 0.45"/>
   </g>
   <g id="matplotlib.axis_1">
    <g id="xtick_1">
     <g id="line2d_1">
      <path d="M 70.598966 228.954713 
L 70.598966 17.061433 
" clip-path="url(#p9670cc3c84)" style="fill: none; stroke: #eef2f7; stroke-width: 0.55; stroke-linecap: square"/>
     </g>
     <g id="line2d_2">
      <defs>
       <path id="ma26d482e1a" d="M 0 0 
L 0 3.5 
" style="stroke: #000000; stroke-width: 0.8"/>
      </defs>
      <g>
       <use xlink:href="#ma26d482e1a" x="70.598966" y="228.954713" style="stroke: #000000; stroke-width: 0.8"/>
      </g>
     </g>
     <g id="text_1">
      <!-- 40 -->
      <g transform="translate(64.872716 242.793307) scale(0.09 -0.09)">
       <defs>
        <path id="DejaVuSans-34" d="M 2419 4116 
L 825 1625 
L 2419 1625 
L 2419 4116 
z
M 2253 4666 
L 3047 4666 
L 3047 1625 
L 3713 1625 
L 3713 1100 
L 3047 1100 
L 3047 0 
L 2419 0 
L 2419 1100 
L 313 1100 
L 313 1709 
L 2253 4666 
z
" transform="scale(0.015625)"/>
        <path id="DejaVuSans-30" d="M 2034 4250 
Q 1547 4250 1301 3770 
Q 1056 3291 1056 2328 
Q 1056 1369 1301 889 
Q 1547 409 2034 409 
Q 2525 409 2770 889 
Q 3016 1369 3016 2328 
Q 3016 3291 2770 3770 
Q 2525 4250 2034 4250 
z
M 2034 4750 
Q 2819 4750 3233 4129 
Q 3647 3509 3647 2328 
Q 3647 1150 3233 529 
Q 2819 -91 2034 -91 
Q 1250 -91 836 529 
Q 422 1150 422 2328 
Q 422 3509 836 4129 
Q 1250 4750 2034 4750 
z
" transform="scale(0.015625)"/>
       </defs>
       <use xlink:href="#DejaVuSans-34"/>
       <use xlink:href="#DejaVuSans-30" transform="translate(63.623047 0)"/>
      </g>
     </g>
    </g>
    <g id="xtick_2">
     <g id="line2d_3">
      <path d="M 181.419416 228.954713 
L 181.419416 17.061433 
" clip-path="url(#p9670cc3c84)" style="fill: none; stroke: #eef2f7; stroke-width: 0.55; stroke-linecap: square"/>
     </g>
     <g id="line2d_4">
      <g>
       <use xlink:href="#ma26d482e1a" x="181.419416" y="228.954713" style="stroke: #000000; stroke-width: 0.8"/>
      </g>
     </g>
     <g id="text_2">
      <!-- 60 -->
      <g transform="translate(175.693166 242.793307) scale(0.09 -0.09)">
       <defs>
        <path id="DejaVuSans-36" d="M 2113 2584 
Q 1688 2584 1439 2293 
Q 1191 2003 1191 1497 
Q 1191 994 1439 701 
Q 1688 409 2113 409 
Q 2538 409 2786 701 
Q 3034 994 3034 1497 
Q 3034 2003 2786 2293 
Q 2538 2584 2113 2584 
z
M 3366 4563 
L 3366 3988 
Q 3128 4100 2886 4159 
Q 2644 4219 2406 4219 
Q 1781 4219 1451 3797 
Q 1122 3375 1075 2522 
Q 1259 2794 1537 2939 
Q 1816 3084 2150 3084 
Q 2853 3084 3261 2657 
Q 3669 2231 3669 1497 
Q 3669 778 3244 343 
Q 2819 -91 2113 -91 
Q 1303 -91 875 529 
Q 447 1150 447 2328 
Q 447 3434 972 4092 
Q 1497 4750 2381 4750 
Q 2619 4750 2861 4703 
Q 3103 4656 3366 4563 
z
" transform="scale(0.015625)"/>
       </defs>
       <use xlink:href="#DejaVuSans-36"/>
       <use xlink:href="#DejaVuSans-30" transform="translate(63.623047 0)"/>
      </g>
     </g>
    </g>
    <g id="xtick_3">
     <g id="line2d_5">
      <path d="M 292.239866 228.954713 
L 292.239866 17.061433 
" clip-path="url(#p9670cc3c84)" style="fill: none; stroke: #eef2f7; stroke-width: 0.55; stroke-linecap: square"/>
     </g>
     <g id="line2d_6">
      <g>
       <use xlink:href="#ma26d482e1a" x="292.239866" y="228.954713" style="stroke: #000000; stroke-width: 0.8"/>
      </g>
     </g>
     <g id="text_3">
      <!-- 80 -->
      <g transform="translate(286.513616 242.793307) scale(0.09 -0.09)">
       <defs>
        <path id="DejaVuSans-38" d="M 2034 2216 
Q 1584 2216 1326 1975 
Q 1069 1734 1069 1313 
Q 1069 891 1326 650 
Q 1584 409 2034 409 
Q 2484 409 2743 651 
Q 3003 894 3003 1313 
Q 3003 1734 2745 1975 
Q 2488 2216 2034 2216 
z
M 1403 2484 
Q 997 2584 770 2862 
Q 544 3141 544 3541 
Q 544 4100 942 4425 
Q 1341 4750 2034 4750 
Q 2731 4750 3128 4425 
Q 3525 4100 3525 3541 
Q 3525 3141 3298 2862 
Q 3072 2584 2669 2484 
Q 3125 2378 3379 2068 
Q 3634 1759 3634 1313 
Q 3634 634 3220 271 
Q 2806 -91 2034 -91 
Q 1263 -91 848 271 
Q 434 634 434 1313 
Q 434 1759 690 2068 
Q 947 2378 1403 2484 
z
M 1172 3481 
Q 1172 3119 1398 2916 
Q 1625 2713 2034 2713 
Q 2441 2713 2670 2916 
Q 2900 3119 2900 3481 
Q 2900 3844 2670 4047 
Q 2441 4250 2034 4250 
Q 1625 4250 1398 4047 
Q 1172 3844 1172 3481 
z
" transform="scale(0.015625)"/>
       </defs>
       <use xlink:href="#DejaVuSans-38"/>
       <use xlink:href="#DejaVuSans-30" transform="translate(63.623047 0)"/>
      </g>
     </g>
    </g>
    <g id="xtick_4">
     <g id="line2d_7">
      <path d="M 403.060316 228.954713 
L 403.060316 17.061433 
" clip-path="url(#p9670cc3c84)" style="fill: none; stroke: #eef2f7; stroke-width: 0.55; stroke-linecap: square"/>
     </g>
     <g id="line2d_8">
      <g>
       <use xlink:href="#ma26d482e1a" x="403.060316" y="228.954713" style="stroke: #000000; stroke-width: 0.8"/>
      </g>
     </g>
     <g id="text_4">
      <!-- 100 -->
      <g transform="translate(394.470941 242.793307) scale(0.09 -0.09)">
       <defs>
        <path id="DejaVuSans-31" d="M 794 531 
L 1825 531 
L 1825 4091 
L 703 3866 
L 703 4441 
L 1819 4666 
L 2450 4666 
L 2450 531 
L 3481 531 
L 3481 0 
L 794 0 
L 794 531 
z
" transform="scale(0.015625)"/>
       </defs>
       <use xlink:href="#DejaVuSans-31"/>
       <use xlink:href="#DejaVuSans-30" transform="translate(63.623047 0)"/>
       <use xlink:href="#DejaVuSans-30" transform="translate(127.246094 0)"/>
      </g>
     </g>
    </g>
    <g id="xtick_5">
     <g id="line2d_9">
      <path d="M 513.880766 228.954713 
L 513.880766 17.061433 
" clip-path="url(#p9670cc3c84)" style="fill: none; stroke: #eef2f7; stroke-width: 0.55; stroke-linecap: square"/>
     </g>
     <g id="line2d_10">
      <g>
       <use xlink:href="#ma26d482e1a" x="513.880766" y="228.954713" style="stroke: #000000; stroke-width: 0.8"/>
      </g>
     </g>
     <g id="text_5">
      <!-- 120 -->
      <g transform="translate(505.291391 242.793307) scale(0.09 -0.09)">
       <defs>
        <path id="DejaVuSans-32" d="M 1228 531 
L 3431 531 
L 3431 0 
L 469 0 
L 469 531 
Q 828 903 1448 1529 
Q 2069 2156 2228 2338 
Q 2531 2678 2651 2914 
Q 2772 3150 2772 3378 
Q 2772 3750 2511 3984 
Q 2250 4219 1831 4219 
Q 1534 4219 1204 4116 
Q 875 4013 500 3803 
L 500 4441 
Q 881 4594 1212 4672 
Q 1544 4750 1819 4750 
Q 2544 4750 2975 4387 
Q 3406 4025 3406 3419 
Q 3406 3131 3298 2873 
Q 3191 2616 2906 2266 
Q 2828 2175 2409 1742 
Q 1991 1309 1228 531 
z
" transform="scale(0.015625)"/>
       </defs>
       <use xlink:href="#DejaVuSans-31"/>
       <use xlink:href="#DejaVuSans-32" transform="translate(63.623047 0)"/>
       <use xlink:href="#DejaVuSans-30" transform="translate(127.246094 0)"/>
      </g>
     </g>
    </g>
    <g id="xtick_6">
     <g id="line2d_11">
      <path d="M 624.701216 228.954713 
L 624.701216 17.061433 
" clip-path="url(#p9670cc3c84)" style="fill: none; stroke: #eef2f7; stroke-width: 0.55; stroke-linecap: square"/>
     </g>
     <g id="line2d_12">
      <g>
       <use xlink:href="#ma26d482e1a" x="624.701216" y="228.954713" style="stroke: #000000; stroke-width: 0.8"/>
      </g>
     </g>
     <g id="text_6">
      <!-- 140 -->
      <g transform="translate(616.111841 242.793307) scale(0.09 -0.09)">
       <use xlink:href="#DejaVuSans-31"/>
       <use xlink:href="#DejaVuSans-34" transform="translate(63.623047 0)"/>
       <use xlink:href="#DejaVuSans-30" transform="translate(127.246094 0)"/>
      </g>
     </g>
    </g>
    <g id="xtick_7">
     <g id="line2d_13">
      <path d="M 735.521666 228.954713 
L 735.521666 17.061433 
" clip-path="url(#p9670cc3c84)" style="fill: none; stroke: #eef2f7; stroke-width: 0.55; stroke-linecap: square"/>
     </g>
     <g id="line2d_14">
      <g>
       <use xlink:href="#ma26d482e1a" x="735.521666" y="228.954713" style="stroke: #000000; stroke-width: 0.8"/>
      </g>
     </g>
     <g id="text_7">
      <!-- 160 -->
      <g transform="translate(726.932291 242.793307) scale(0.09 -0.09)">
       <use xlink:href="#DejaVuSans-31"/>
       <use xlink:href="#DejaVuSans-36" transform="translate(63.623047 0)"/>
       <use xlink:href="#DejaVuSans-30" transform="translate(127.246094 0)"/>
      </g>
     </g>
    </g>
    <g id="xtick_8">
     <g id="line2d_15">
      <path d="M 846.342116 228.954713 
L 846.342116 17.061433 
" clip-path="url(#p9670cc3c84)" style="fill: none; stroke: #eef2f7; stroke-width: 0.55; stroke-linecap: square"/>
     </g>
     <g id="line2d_16">
      <g>
       <use xlink:href="#ma26d482e1a" x="846.342116" y="228.954713" style="stroke: #000000; stroke-width: 0.8"/>
      </g>
     </g>
     <g id="text_8">
      <!-- 180 -->
      <g transform="translate(837.752741 242.793307) scale(0.09 -0.09)">
       <use xlink:href="#DejaVuSans-31"/>
       <use xlink:href="#DejaVuSans-38" transform="translate(63.623047 0)"/>
       <use xlink:href="#DejaVuSans-30" transform="translate(127.246094 0)"/>
      </g>
     </g>
    </g>
    <g id="text_9">
     <!-- Minutes since session start -->
     <g transform="translate(426.897344 256.263463) scale(0.1 -0.1)">
      <defs>
       <path id="DejaVuSans-4d" d="M 628 4666 
L 1569 4666 
L 2759 1491 
L 3956 4666 
L 4897 4666 
L 4897 0 
L 4281 0 
L 4281 4097 
L 3078 897 
L 2444 897 
L 1241 4097 
L 1241 0 
L 628 0 
L 628 4666 
z
" transform="scale(0.015625)"/>
       <path id="DejaVuSans-69" d="M 603 3500 
L 1178 3500 
L 1178 0 
L 603 0 
L 603 3500 
z
M 603 4863 
L 1178 4863 
L 1178 4134 
L 603 4134 
L 603 4863 
z
" transform="scale(0.015625)"/>
       <path id="DejaVuSans-6e" d="M 3513 2113 
L 3513 0 
L 2938 0 
L 2938 2094 
Q 2938 2591 2744 2837 
Q 2550 3084 2163 3084 
Q 1697 3084 1428 2787 
Q 1159 2491 1159 1978 
L 1159 0 
L 581 0 
L 581 3500 
L 1159 3500 
L 1159 2956 
Q 1366 3272 1645 3428 
Q 1925 3584 2291 3584 
Q 2894 3584 3203 3211 
Q 3513 2838 3513 2113 
z
" transform="scale(0.015625)"/>
       <path id="DejaVuSans-75" d="M 544 1381 
L 544 3500 
L 1119 3500 
L 1119 1403 
Q 1119 906 1312 657 
Q 1506 409 1894 409 
Q 2359 409 2629 706 
Q 2900 1003 2900 1516 
L 2900 3500 
L 3475 3500 
L 3475 0 
L 2900 0 
L 2900 538 
Q 2691 219 2414 64 
Q 2138 -91 1772 -91 
Q 1169 -91 856 284 
Q 544 659 544 1381 
z
M 1991 3584 
L 1991 3584 
z
" transform="scale(0.015625)"/>
       <path id="DejaVuSans-74" d="M 1172 4494 
L 1172 3500 
L 2356 3500 
L 2356 3053 
L 1172 3053 
L 1172 1153 
Q 1172 725 1289 603 
Q 1406 481 1766 481 
L 2356 481 
L 2356 0 
L 1766 0 
Q 1100 0 847 248 
Q 594 497 594 1153 
L 594 3053 
L 172 3053 
L 172 3500 
L 594 3500 
L 594 4494 
L 1172 4494 
z
" transform="scale(0.015625)"/>
       <path id="DejaVuSans-65" d="M 3597 1894 
L 3597 1613 
L 953 1613 
Q 991 1019 1311 708 
Q 1631 397 2203 397 
Q 2534 397 2845 478 
Q 3156 559 3463 722 
L 3463 178 
Q 3153 47 2828 -22 
Q 2503 -91 2169 -91 
Q 1331 -91 842 396 
Q 353 884 353 1716 
Q 353 2575 817 3079 
Q 1281 3584 2069 3584 
Q 2775 3584 3186 3129 
Q 3597 2675 3597 1894 
z
M 3022 2063 
Q 3016 2534 2758 2815 
Q 2500 3097 2075 3097 
Q 1594 3097 1305 2825 
Q 1016 2553 972 2059 
L 3022 2063 
z
" transform="scale(0.015625)"/>
       <path id="DejaVuSans-73" d="M 2834 3397 
L 2834 2853 
Q 2591 2978 2328 3040 
Q 2066 3103 1784 3103 
Q 1356 3103 1142 2972 
Q 928 2841 928 2578 
Q 928 2378 1081 2264 
Q 1234 2150 1697 2047 
L 1894 2003 
Q 2506 1872 2764 1633 
Q 3022 1394 3022 966 
Q 3022 478 2636 193 
Q 2250 -91 1575 -91 
Q 1294 -91 989 -36 
Q 684 19 347 128 
L 347 722 
Q 666 556 975 473 
Q 1284 391 1588 391 
Q 1994 391 2212 530 
Q 2431 669 2431 922 
Q 2431 1156 2273 1281 
Q 2116 1406 1581 1522 
L 1381 1569 
Q 847 1681 609 1914 
Q 372 2147 372 2553 
Q 372 3047 722 3315 
Q 1072 3584 1716 3584 
Q 2034 3584 2315 3537 
Q 2597 3491 2834 3397 
z
" transform="scale(0.015625)"/>
       <path id="DejaVuSans-20" transform="scale(0.015625)"/>
       <path id="DejaVuSans-63" d="M 3122 3366 
L 3122 2828 
Q 2878 2963 2633 3030 
Q 2388 3097 2138 3097 
Q 1578 3097 1268 2742 
Q 959 2388 959 1747 
Q 959 1106 1268 751 
Q 1578 397 2138 397 
Q 2388 397 2633 464 
Q 2878 531 3122 666 
L 3122 134 
Q 2881 22 2623 -34 
Q 2366 -91 2075 -91 
Q 1284 -91 818 406 
Q 353 903 353 1747 
Q 353 2603 823 3093 
Q 1294 3584 2113 3584 
Q 2378 3584 2631 3529 
Q 2884 3475 3122 3366 
z
" transform="scale(0.015625)"/>
       <path id="DejaVuSans-6f" d="M 1959 3097 
Q 1497 3097 1228 2736 
Q 959 2375 959 1747 
Q 959 1119 1226 758 
Q 1494 397 1959 397 
Q 2419 397 2687 759 
Q 2956 1122 2956 1747 
Q 2956 2369 2687 2733 
Q 2419 3097 1959 3097 
z
M 1959 3584 
Q 2709 3584 3137 3096 
Q 3566 2609 3566 1747 
Q 3566 888 3137 398 
Q 2709 -91 1959 -91 
Q 1206 -91 779 398 
Q 353 888 353 1747 
Q 353 2609 779 3096 
Q 1206 3584 1959 3584 
z
" transform="scale(0.015625)"/>
       <path id="DejaVuSans-61" d="M 2194 1759 
Q 1497 1759 1228 1600 
Q 959 1441 959 1056 
Q 959 750 1161 570 
Q 1363 391 1709 391 
Q 2188 391 2477 730 
Q 2766 1069 2766 1631 
L 2766 1759 
L 2194 1759 
z
M 3341 1997 
L 3341 0 
L 2766 0 
L 2766 531 
Q 2569 213 2275 61 
Q 1981 -91 1556 -91 
Q 1019 -91 701 211 
Q 384 513 384 1019 
Q 384 1609 779 1909 
Q 1175 2209 1959 2209 
L 2766 2209 
L 2766 2266 
Q 2766 2663 2505 2880 
Q 2244 3097 1772 3097 
Q 1472 3097 1187 3025 
Q 903 2953 641 2809 
L 641 3341 
Q 956 3463 1253 3523 
Q 1550 3584 1831 3584 
Q 2591 3584 2966 3190 
Q 3341 2797 3341 1997 
z
" transform="scale(0.015625)"/>
       <path id="DejaVuSans-72" d="M 2631 2963 
Q 2534 3019 2420 3045 
Q 2306 3072 2169 3072 
Q 1681 3072 1420 2755 
Q 1159 2438 1159 1844 
L 1159 0 
L 581 0 
L 581 3500 
L 1159 3500 
L 1159 2956 
Q 1341 3275 1631 3429 
Q 1922 3584 2338 3584 
Q 2397 3584 2469 3576 
Q 2541 3569 2628 3553 
L 2631 2963 
z
" transform="scale(0.015625)"/>
      </defs>
      <use xlink:href="#DejaVuSans-4d"/>
      <use xlink:href="#DejaVuSans-69" transform="translate(86.279297 0)"/>
      <use xlink:href="#DejaVuSans-6e" transform="translate(114.0625 0)"/>
      <use xlink:href="#DejaVuSans-75" transform="translate(177.441406 0)"/>
      <use xlink:href="#DejaVuSans-74" transform="translate(240.820312 0)"/>
      <use xlink:href="#DejaVuSans-65" transform="translate(280.029297 0)"/>
      <use xlink:href="#DejaVuSans-73" transform="translate(341.552734 0)"/>
      <use xlink:href="#DejaVuSans-20" transform="translate(393.652344 0)"/>
      <use xlink:href="#DejaVuSans-73" transform="translate(425.439453 0)"/>
      <use xlink:href="#DejaVuSans-69" transform="translate(477.539062 0)"/>
      <use xlink:href="#DejaVuSans-6e" transform="translate(505.322266 0)"/>
      <use xlink:href="#DejaVuSans-63" transform="translate(568.701172 0)"/>
      <use xlink:href="#DejaVuSans-65" transform="translate(623.681641 0)"/>
      <use xlink:href="#DejaVuSans-20" transform="translate(685.205078 0)"/>
      <use xlink:href="#DejaVuSans-73" transform="translate(716.992188 0)"/>
      <use xlink:href="#DejaVuSans-65" transform="translate(769.091797 0)"/>
      <use xlink:href="#DejaVuSans-73" transform="translate(830.615234 0)"/>
      <use xlink:href="#DejaVuSans-73" transform="translate(882.714844 0)"/>
      <use xlink:href="#DejaVuSans-69" transform="translate(934.814453 0)"/>
      <use xlink:href="#DejaVuSans-6f" transform="translate(962.597656 0)"/>
      <use xlink:href="#DejaVuSans-6e" transform="translate(1023.779297 0)"/>
      <use xlink:href="#DejaVuSans-20" transform="translate(1087.158203 0)"/>
      <use xlink:href="#DejaVuSans-73" transform="translate(1118.945312 0)"/>
      <use xlink:href="#DejaVuSans-74" transform="translate(1171.044922 0)"/>
      <use xlink:href="#DejaVuSans-61" transform="translate(1210.253906 0)"/>
      <use xlink:href="#DejaVuSans-72" transform="translate(1271.533203 0)"/>
      <use xlink:href="#DejaVuSans-74" transform="translate(1312.646484 0)"/>
     </g>
    </g>
   </g>
   <g id="matplotlib.axis_2">
    <g id="ytick_1">
     <g id="line2d_17">
      <path d="M 53.643438 228.496069 
L 935.330937 228.496069 
" clip-path="url(#p9670cc3c84)" style="fill: none; stroke: #eef2f7; stroke-opacity: 0.25; stroke-width: 0.55; stroke-linecap: square"/>
     </g>
     <g id="line2d_18">
      <defs>
       <path id="m6748a794bd" d="M 0 0 
L -3.5 0 
" style="stroke: #000000; stroke-width: 0.8"/>
      </defs>
      <g>
       <use xlink:href="#m6748a794bd" x="53.643438" y="228.496069" style="stroke: #000000; stroke-width: 0.8"/>
      </g>
     </g>
     <g id="text_10">
      <!-- 28.50 -->
      <g transform="translate(20.878125 231.915366) scale(0.09 -0.09)">
       <defs>
        <path id="DejaVuSans-2e" d="M 684 794 
L 1344 794 
L 1344 0 
L 684 0 
L 684 794 
z
" transform="scale(0.015625)"/>
        <path id="DejaVuSans-35" d="M 691 4666 
L 3169 4666 
L 3169 4134 
L 1269 4134 
L 1269 2991 
Q 1406 3038 1543 3061 
Q 1681 3084 1819 3084 
Q 2600 3084 3056 2656 
Q 3513 2228 3513 1497 
Q 3513 744 3044 326 
Q 2575 -91 1722 -91 
Q 1428 -91 1123 -41 
Q 819 9 494 109 
L 494 744 
Q 775 591 1075 516 
Q 1375 441 1709 441 
Q 2250 441 2565 725 
Q 2881 1009 2881 1497 
Q 2881 1984 2565 2268 
Q 2250 2553 1709 2553 
Q 1456 2553 1204 2497 
Q 953 2441 691 2322 
L 691 4666 
z
" transform="scale(0.015625)"/>
       </defs>
       <use xlink:href="#DejaVuSans-32"/>
       <use xlink:href="#DejaVuSans-38" transform="translate(63.623047 0)"/>
       <use xlink:href="#DejaVuSans-2e" transform="translate(127.246094 0)"/>
       <use xlink:href="#DejaVuSans-35" transform="translate(159.033203 0)"/>
       <use xlink:href="#DejaVuSans-30" transform="translate(222.65625 0)"/>
      </g>
     </g>
    </g>
    <g id="ytick_2">
     <g id="line2d_19">
      <path d="M 53.643438 199.830853 
L 935.330937 199.830853 
" clip-path="url(#p9670cc3c84)" style="fill: none; stroke: #eef2f7; stroke-opacity: 0.25; stroke-width: 0.55; stroke-linecap: square"/>
     </g>
     <g id="line2d_20">
      <g>
       <use xlink:href="#m6748a794bd" x="53.643438" y="199.830853" style="stroke: #000000; stroke-width: 0.8"/>
      </g>
     </g>
     <g id="text_11">
      <!-- 28.75 -->
      <g transform="translate(20.878125 203.25015) scale(0.09 -0.09)">
       <defs>
        <path id="DejaVuSans-37" d="M 525 4666 
L 3525 4666 
L 3525 4397 
L 1831 0 
L 1172 0 
L 2766 4134 
L 525 4134 
L 525 4666 
z
" transform="scale(0.015625)"/>
       </defs>
       <use xlink:href="#DejaVuSans-32"/>
       <use xlink:href="#DejaVuSans-38" transform="translate(63.623047 0)"/>
       <use xlink:href="#DejaVuSans-2e" transform="translate(127.246094 0)"/>
       <use xlink:href="#DejaVuSans-37" transform="translate(159.033203 0)"/>
       <use xlink:href="#DejaVuSans-35" transform="translate(222.65625 0)"/>
      </g>
     </g>
    </g>
    <g id="ytick_3">
     <g id="line2d_21">
      <path d="M 53.643438 171.165636 
L 935.330937 171.165636 
" clip-path="url(#p9670cc3c84)" style="fill: none; stroke: #eef2f7; stroke-opacity: 0.25; stroke-width: 0.55; stroke-linecap: square"/>
     </g>
     <g id="line2d_22">
      <g>
       <use xlink:href="#m6748a794bd" x="53.643438" y="171.165636" style="stroke: #000000; stroke-width: 0.8"/>
      </g>
     </g>
     <g id="text_12">
      <!-- 29.00 -->
      <g transform="translate(20.878125 174.584933) scale(0.09 -0.09)">
       <defs>
        <path id="DejaVuSans-39" d="M 703 97 
L 703 672 
Q 941 559 1184 500 
Q 1428 441 1663 441 
Q 2288 441 2617 861 
Q 2947 1281 2994 2138 
Q 2813 1869 2534 1725 
Q 2256 1581 1919 1581 
Q 1219 1581 811 2004 
Q 403 2428 403 3163 
Q 403 3881 828 4315 
Q 1253 4750 1959 4750 
Q 2769 4750 3195 4129 
Q 3622 3509 3622 2328 
Q 3622 1225 3098 567 
Q 2575 -91 1691 -91 
Q 1453 -91 1209 -44 
Q 966 3 703 97 
z
M 1959 2075 
Q 2384 2075 2632 2365 
Q 2881 2656 2881 3163 
Q 2881 3666 2632 3958 
Q 2384 4250 1959 4250 
Q 1534 4250 1286 3958 
Q 1038 3666 1038 3163 
Q 1038 2656 1286 2365 
Q 1534 2075 1959 2075 
z
" transform="scale(0.015625)"/>
       </defs>
       <use xlink:href="#DejaVuSans-32"/>
       <use xlink:href="#DejaVuSans-39" transform="translate(63.623047 0)"/>
       <use xlink:href="#DejaVuSans-2e" transform="translate(127.246094 0)"/>
       <use xlink:href="#DejaVuSans-30" transform="translate(159.033203 0)"/>
       <use xlink:href="#DejaVuSans-30" transform="translate(222.65625 0)"/>
      </g>
     </g>
    </g>
    <g id="ytick_4">
     <g id="line2d_23">
      <path d="M 53.643438 142.50042 
L 935.330937 142.50042 
" clip-path="url(#p9670cc3c84)" style="fill: none; stroke: #eef2f7; stroke-opacity: 0.25; stroke-width: 0.55; stroke-linecap: square"/>
     </g>
     <g id="line2d_24">
      <g>
       <use xlink:href="#m6748a794bd" x="53.643438" y="142.50042" style="stroke: #000000; stroke-width: 0.8"/>
      </g>
     </g>
     <g id="text_13">
      <!-- 29.25 -->
      <g transform="translate(20.878125 145.919717) scale(0.09 -0.09)">
       <use xlink:href="#DejaVuSans-32"/>
       <use xlink:href="#DejaVuSans-39" transform="translate(63.623047 0)"/>
       <use xlink:href="#DejaVuSans-2e" transform="translate(127.246094 0)"/>
       <use xlink:href="#DejaVuSans-32" transform="translate(159.033203 0)"/>
       <use xlink:href="#DejaVuSans-35" transform="translate(222.65625 0)"/>
      </g>
     </g>
    </g>
    <g id="ytick_5">
     <g id="line2d_25">
      <path d="M 53.643438 113.835204 
L 935.330937 113.835204 
" clip-path="url(#p9670cc3c84)" style="fill: none; stroke: #eef2f7; stroke-opacity: 0.25; stroke-width: 0.55; stroke-linecap: square"/>
     </g>
     <g id="line2d_26">
      <g>
       <use xlink:href="#m6748a794bd" x="53.643438" y="113.835204" style="stroke: #000000; stroke-width: 0.8"/>
      </g>
     </g>
     <g id="text_14">
      <!-- 29.50 -->
      <g transform="translate(20.878125 117.2545) scale(0.09 -0.09)">
       <use xlink:href="#DejaVuSans-32"/>
       <use xlink:href="#DejaVuSans-39" transform="translate(63.623047 0)"/>
       <use xlink:href="#DejaVuSans-2e" transform="translate(127.246094 0)"/>
       <use xlink:href="#DejaVuSans-35" transform="translate(159.033203 0)"/>
       <use xlink:href="#DejaVuSans-30" transform="translate(222.65625 0)"/>
      </g>
     </g>
    </g>
    <g id="ytick_6">
     <g id="line2d_27">
      <path d="M 53.643438 85.169987 
L 935.330937 85.169987 
" clip-path="url(#p9670cc3c84)" style="fill: none; stroke: #eef2f7; stroke-opacity: 0.25; stroke-width: 0.55; stroke-linecap: square"/>
     </g>
     <g id="line2d_28">
      <g>
       <use xlink:href="#m6748a794bd" x="53.643438" y="85.169987" style="stroke: #000000; stroke-width: 0.8"/>
      </g>
     </g>
     <g id="text_15">
      <!-- 29.75 -->
      <g transform="translate(20.878125 88.589284) scale(0.09 -0.09)">
       <use xlink:href="#DejaVuSans-32"/>
       <use xlink:href="#DejaVuSans-39" transform="translate(63.623047 0)"/>
       <use xlink:href="#DejaVuSans-2e" transform="translate(127.246094 0)"/>
       <use xlink:href="#DejaVuSans-37" transform="translate(159.033203 0)"/>
       <use xlink:href="#DejaVuSans-35" transform="translate(222.65625 0)"/>
      </g>
     </g>
    </g>
    <g id="ytick_7">
     <g id="line2d_29">
      <path d="M 53.643438 56.504771 
L 935.330937 56.504771 
" clip-path="url(#p9670cc3c84)" style="fill: none; stroke: #eef2f7; stroke-opacity: 0.25; stroke-width: 0.55; stroke-linecap: square"/>
     </g>
     <g id="line2d_30">
      <g>
       <use xlink:href="#m6748a794bd" x="53.643438" y="56.504771" style="stroke: #000000; stroke-width: 0.8"/>
      </g>
     </g>
     <g id="text_16">
      <!-- 30.00 -->
      <g transform="translate(20.878125 59.924068) scale(0.09 -0.09)">
       <defs>
        <path id="DejaVuSans-33" d="M 2597 2516 
Q 3050 2419 3304 2112 
Q 3559 1806 3559 1356 
Q 3559 666 3084 287 
Q 2609 -91 1734 -91 
Q 1441 -91 1130 -33 
Q 819 25 488 141 
L 488 750 
Q 750 597 1062 519 
Q 1375 441 1716 441 
Q 2309 441 2620 675 
Q 2931 909 2931 1356 
Q 2931 1769 2642 2001 
Q 2353 2234 1838 2234 
L 1294 2234 
L 1294 2753 
L 1863 2753 
Q 2328 2753 2575 2939 
Q 2822 3125 2822 3475 
Q 2822 3834 2567 4026 
Q 2313 4219 1838 4219 
Q 1578 4219 1281 4162 
Q 984 4106 628 3988 
L 628 4550 
Q 988 4650 1302 4700 
Q 1616 4750 1894 4750 
Q 2613 4750 3031 4423 
Q 3450 4097 3450 3541 
Q 3450 3153 3228 2886 
Q 3006 2619 2597 2516 
z
" transform="scale(0.015625)"/>
       </defs>
       <use xlink:href="#DejaVuSans-33"/>
       <use xlink:href="#DejaVuSans-30" transform="translate(63.623047 0)"/>
       <use xlink:href="#DejaVuSans-2e" transform="translate(127.246094 0)"/>
       <use xlink:href="#DejaVuSans-30" transform="translate(159.033203 0)"/>
       <use xlink:href="#DejaVuSans-30" transform="translate(222.65625 0)"/>
      </g>
     </g>
    </g>
    <g id="ytick_8">
     <g id="line2d_31">
      <path d="M 53.643438 27.839554 
L 935.330937 27.839554 
" clip-path="url(#p9670cc3c84)" style="fill: none; stroke: #eef2f7; stroke-opacity: 0.25; stroke-width: 0.55; stroke-linecap: square"/>
     </g>
     <g id="line2d_32">
      <g>
       <use xlink:href="#m6748a794bd" x="53.643438" y="27.839554" style="stroke: #000000; stroke-width: 0.8"/>
      </g>
     </g>
     <g id="text_17">
      <!-- 30.25 -->
      <g transform="translate(20.878125 31.258851) scale(0.09 -0.09)">
       <use xlink:href="#DejaVuSans-33"/>
       <use xlink:href="#DejaVuSans-30" transform="translate(63.623047 0)"/>
       <use xlink:href="#DejaVuSans-2e" transform="translate(127.246094 0)"/>
       <use xlink:href="#DejaVuSans-32" transform="translate(159.033203 0)"/>
       <use xlink:href="#DejaVuSans-35" transform="translate(222.65625 0)"/>
      </g>
     </g>
    </g>
    <g id="text_18">
     <!-- Temperature (C) -->
     <g transform="translate(14.798438 163.659635) rotate(-90) scale(0.1 -0.1)">
      <defs>
       <path id="DejaVuSans-54" d="M -19 4666 
L 3928 4666 
L 3928 4134 
L 2272 4134 
L 2272 0 
L 1638 0 
L 1638 4134 
L -19 4134 
L -19 4666 
z
" transform="scale(0.015625)"/>
       <path id="DejaVuSans-6d" d="M 3328 2828 
Q 3544 3216 3844 3400 
Q 4144 3584 4550 3584 
Q 5097 3584 5394 3201 
Q 5691 2819 5691 2113 
L 5691 0 
L 5113 0 
L 5113 2094 
Q 5113 2597 4934 2840 
Q 4756 3084 4391 3084 
Q 3944 3084 3684 2787 
Q 3425 2491 3425 1978 
L 3425 0 
L 2847 0 
L 2847 2094 
Q 2847 2600 2669 2842 
Q 2491 3084 2119 3084 
Q 1678 3084 1418 2786 
Q 1159 2488 1159 1978 
L 1159 0 
L 581 0 
L 581 3500 
L 1159 3500 
L 1159 2956 
Q 1356 3278 1631 3431 
Q 1906 3584 2284 3584 
Q 2666 3584 2933 3390 
Q 3200 3197 3328 2828 
z
" transform="scale(0.015625)"/>
       <path id="DejaVuSans-70" d="M 1159 525 
L 1159 -1331 
L 581 -1331 
L 581 3500 
L 1159 3500 
L 1159 2969 
Q 1341 3281 1617 3432 
Q 1894 3584 2278 3584 
Q 2916 3584 3314 3078 
Q 3713 2572 3713 1747 
Q 3713 922 3314 415 
Q 2916 -91 2278 -91 
Q 1894 -91 1617 61 
Q 1341 213 1159 525 
z
M 3116 1747 
Q 3116 2381 2855 2742 
Q 2594 3103 2138 3103 
Q 1681 3103 1420 2742 
Q 1159 2381 1159 1747 
Q 1159 1113 1420 752 
Q 1681 391 2138 391 
Q 2594 391 2855 752 
Q 3116 1113 3116 1747 
z
" transform="scale(0.015625)"/>
       <path id="DejaVuSans-28" d="M 1984 4856 
Q 1566 4138 1362 3434 
Q 1159 2731 1159 2009 
Q 1159 1288 1364 580 
Q 1569 -128 1984 -844 
L 1484 -844 
Q 1016 -109 783 600 
Q 550 1309 550 2009 
Q 550 2706 781 3412 
Q 1013 4119 1484 4856 
L 1984 4856 
z
" transform="scale(0.015625)"/>
       <path id="DejaVuSans-43" d="M 4122 4306 
L 4122 3641 
Q 3803 3938 3442 4084 
Q 3081 4231 2675 4231 
Q 1875 4231 1450 3742 
Q 1025 3253 1025 2328 
Q 1025 1406 1450 917 
Q 1875 428 2675 428 
Q 3081 428 3442 575 
Q 3803 722 4122 1019 
L 4122 359 
Q 3791 134 3420 21 
Q 3050 -91 2638 -91 
Q 1578 -91 968 557 
Q 359 1206 359 2328 
Q 359 3453 968 4101 
Q 1578 4750 2638 4750 
Q 3056 4750 3426 4639 
Q 3797 4528 4122 4306 
z
" transform="scale(0.015625)"/>
       <path id="DejaVuSans-29" d="M 513 4856 
L 1013 4856 
Q 1481 4119 1714 3412 
Q 1947 2706 1947 2009 
Q 1947 1309 1714 600 
Q 1481 -109 1013 -844 
L 513 -844 
Q 928 -128 1133 580 
Q 1338 1288 1338 2009 
Q 1338 2731 1133 3434 
Q 928 4138 513 4856 
z
" transform="scale(0.015625)"/>
      </defs>
      <use xlink:href="#DejaVuSans-54"/>
      <use xlink:href="#DejaVuSans-65" transform="translate(44.083984 0)"/>
      <use xlink:href="#DejaVuSans-6d" transform="translate(105.607422 0)"/>
      <use xlink:href="#DejaVuSans-70" transform="translate(203.019531 0)"/>
      <use xlink:href="#DejaVuSans-65" transform="translate(266.496094 0)"/>
      <use xlink:href="#DejaVuSans-72" transform="translate(328.019531 0)"/>
      <use xlink:href="#DejaVuSans-61" transform="translate(369.132812 0)"/>
      <use xlink:href="#DejaVuSans-74" transform="translate(430.412109 0)"/>
      <use xlink:href="#DejaVuSans-75" transform="translate(469.621094 0)"/>
      <use xlink:href="#DejaVuSans-72" transform="translate(533 0)"/>
      <use xlink:href="#DejaVuSans-65" transform="translate(571.863281 0)"/>
      <use xlink:href="#DejaVuSans-20" transform="translate(633.386719 0)"/>
      <use xlink:href="#DejaVuSans-28" transform="translate(665.173828 0)"/>
      <use xlink:href="#DejaVuSans-43" transform="translate(704.1875 0)"/>
      <use xlink:href="#DejaVuSans-29" transform="translate(774.011719 0)"/>
     </g>
    </g>
   </g>
   <g id="line2d_33">
    <path d="M 70.598966 72.557292 
L 76.139989 75.997118 
L 81.681011 71.410683 
L 87.222034 89.756422 
L 92.763056 71.410683 
L 98.304079 71.410683 
L 103.845101 73.703901 
L 109.386124 66.824249 
L 120.468169 55.358162 
L 126.009191 69.117466 
L 131.550214 49.625119 
L 137.091236 55.358162 
L 142.632259 70.264075 
L 148.173281 79.436944 
L 153.714304 70.264075 
L 159.255326 65.67764 
L 164.796349 72.557292 
L 170.337371 75.997118 
L 175.878394 70.264075 
L 181.419416 59.944597 
L 186.960439 45.038684 
L 192.501461 61.091205 
L 198.042484 48.47851 
L 203.583506 48.47851 
L 209.124529 42.745467 
L 214.665551 45.038684 
L 220.206574 40.452249 
L 225.747596 42.745467 
L 231.288619 31.27938 
L 236.829641 26.692946 
L 242.370664 27.839554 
L 247.911686 40.452249 
L 253.452709 49.625119 
L 258.993731 53.064945 
L 264.534754 58.797988 
L 270.075776 59.944597 
L 275.616799 67.970857 
L 281.157821 48.47851 
L 286.698844 62.237814 
L 292.239866 56.504771 
L 297.780889 53.064945 
L 303.321911 65.67764 
L 314.403956 61.091205 
L 319.944979 64.531031 
L 325.486001 59.944597 
L 331.027024 66.824249 
L 336.568046 57.651379 
L 342.109069 67.970857 
L 347.650091 63.384423 
L 353.191114 63.384423 
L 358.732136 62.237814 
L 364.273159 67.970857 
L 369.814181 66.824249 
L 375.355204 64.531031 
L 380.896226 63.384423 
L 386.437249 67.970857 
L 391.978271 64.531031 
L 397.519294 73.703901 
L 403.060316 66.824249 
L 408.601339 58.797988 
L 414.142361 51.918336 
L 419.683384 38.159032 
L 430.765429 51.918336 
L 436.306451 40.452249 
L 441.847474 50.771727 
L 447.388496 49.625119 
L 452.929519 69.117466 
L 458.470541 75.997118 
L 464.011564 77.143726 
L 469.552586 79.436944 
L 475.093609 71.410683 
L 480.634631 73.703901 
L 486.175654 70.264075 
L 491.716676 63.384423 
L 497.257699 49.625119 
L 502.798721 55.358162 
L 508.339744 54.211553 
L 513.880766 55.358162 
L 519.421789 48.47851 
L 524.962811 71.410683 
L 530.503834 71.410683 
L 536.044856 61.091205 
L 541.585879 49.625119 
L 547.126901 33.572597 
L 552.667924 32.425989 
L 558.208946 32.425989 
L 563.749969 31.27938 
L 569.290991 64.531031 
L 574.832014 58.797988 
L 585.914059 84.023378 
L 591.455081 77.143726 
L 596.996104 77.143726 
L 602.537126 81.730161 
L 608.078149 80.583552 
L 613.619171 87.463204 
L 619.160194 81.730161 
L 624.701216 80.583552 
L 630.242239 77.143726 
L 635.783261 89.756422 
L 646.865306 87.463204 
L 652.406329 80.583552 
L 657.947351 90.90303 
L 663.488374 84.023378 
L 669.029396 88.609813 
L 674.570419 87.463204 
L 680.111441 87.463204 
L 685.652464 95.489465 
L 691.193486 92.049639 
L 696.734509 96.636074 
L 702.275531 82.87677 
L 707.816554 96.636074 
L 713.357576 97.782682 
L 718.898599 88.609813 
L 724.439621 72.557292 
L 729.980644 70.264075 
L 735.521666 56.504771 
L 741.062689 59.944597 
L 746.603711 73.703901 
L 752.144734 74.850509 
L 757.685756 65.67764 
L 763.226779 45.038684 
L 768.767801 66.824249 
L 774.308824 55.358162 
L 779.849846 56.504771 
L 785.390869 31.27938 
L 790.931891 51.918336 
L 796.472914 80.583552 
L 802.013936 84.023378 
L 807.554959 81.730161 
L 813.095981 81.730161 
L 818.637004 78.290335 
L 824.178026 86.316596 
L 829.719049 78.290335 
L 835.260071 72.557292 
L 840.801094 72.557292 
L 846.342116 79.436944 
L 851.883139 67.970857 
L 857.424161 62.237814 
L 862.965184 53.064945 
L 868.506206 69.117466 
L 874.047229 86.316596 
L 879.588251 88.609813 
L 885.129274 80.583552 
L 890.670296 82.87677 
L 896.211319 77.143726 
L 901.752341 85.169987 
L 907.293364 80.583552 
L 912.834386 79.436944 
L 918.375409 84.023378 
L 918.375409 84.023378 
" clip-path="url(#p9670cc3c84)" style="fill: none; stroke: #fdc38d; stroke-opacity: 0.95; stroke-width: 0.936; stroke-linecap: square"/>
   </g>
   <g id="line2d_34">
    <path d="M 70.598966 106.955552 
L 76.139989 102.369117 
L 81.681011 100.0759 
L 87.222034 106.955552 
L 92.763056 114.981812 
L 98.304079 103.515726 
L 103.845101 101.222508 
L 109.386124 90.90303 
L 114.927146 101.222508 
L 120.468169 90.90303 
L 126.009191 87.463204 
L 131.550214 94.342856 
L 137.091236 93.196248 
L 142.632259 112.688595 
L 148.173281 104.662334 
L 159.255326 100.0759 
L 164.796349 105.808943 
L 175.878394 87.463204 
L 181.419416 86.316596 
L 186.960439 72.557292 
L 192.501461 89.756422 
L 198.042484 90.90303 
L 203.583506 97.782682 
L 209.124529 73.703901 
L 214.665551 75.997118 
L 220.206574 82.87677 
L 225.747596 84.023378 
L 231.288619 73.703901 
L 236.829641 78.290335 
L 242.370664 72.557292 
L 247.911686 73.703901 
L 258.993731 87.463204 
L 264.534754 88.609813 
L 270.075776 82.87677 
L 275.616799 78.290335 
L 281.157821 80.583552 
L 286.698844 88.609813 
L 292.239866 82.87677 
L 297.780889 82.87677 
L 303.321911 93.196248 
L 308.862934 98.929291 
L 314.403956 90.90303 
L 319.944979 87.463204 
L 325.486001 82.87677 
L 331.027024 85.169987 
L 336.568046 96.636074 
L 342.109069 93.196248 
L 347.650091 98.929291 
L 353.191114 88.609813 
L 358.732136 93.196248 
L 364.273159 89.756422 
L 369.814181 96.636074 
L 375.355204 94.342856 
L 380.896226 95.489465 
L 386.437249 94.342856 
L 391.978271 98.929291 
L 397.519294 100.0759 
L 403.060316 78.290335 
L 414.142361 85.169987 
L 419.683384 82.87677 
L 425.224406 93.196248 
L 430.765429 80.583552 
L 436.306451 74.850509 
L 441.847474 86.316596 
L 447.388496 82.87677 
L 452.929519 101.222508 
L 458.470541 94.342856 
L 464.011564 94.342856 
L 469.552586 102.369117 
L 475.093609 104.662334 
L 480.634631 105.808943 
L 486.175654 87.463204 
L 491.716676 86.316596 
L 497.257699 82.87677 
L 502.798721 87.463204 
L 508.339744 90.90303 
L 513.880766 100.0759 
L 519.421789 97.782682 
L 524.962811 97.782682 
L 530.503834 93.196248 
L 536.044856 93.196248 
L 541.585879 78.290335 
L 547.126901 78.290335 
L 552.667924 85.169987 
L 558.208946 86.316596 
L 563.749969 85.169987 
L 569.290991 93.196248 
L 574.832014 94.342856 
L 580.373036 101.222508 
L 585.914059 111.541986 
L 591.455081 105.808943 
L 596.996104 113.835204 
L 602.537126 108.10216 
L 608.078149 106.955552 
L 613.619171 111.541986 
L 619.160194 101.222508 
L 624.701216 108.10216 
L 630.242239 111.541986 
L 646.865306 111.541986 
L 652.406329 109.248769 
L 657.947351 120.714855 
L 663.488374 120.714855 
L 669.029396 118.421638 
L 674.570419 114.981812 
L 680.111441 121.861464 
L 685.652464 114.981812 
L 691.193486 120.714855 
L 696.734509 114.981812 
L 702.275531 110.395378 
L 707.816554 116.128421 
L 713.357576 101.222508 
L 718.898599 94.342856 
L 724.439621 98.929291 
L 729.980644 102.369117 
L 735.521666 94.342856 
L 741.062689 98.929291 
L 746.603711 98.929291 
L 752.144734 103.515726 
L 757.685756 106.955552 
L 768.767801 106.955552 
L 774.308824 104.662334 
L 785.390869 109.248769 
L 790.931891 105.808943 
L 796.472914 118.421638 
L 807.554959 120.714855 
L 813.095981 114.981812 
L 818.637004 104.662334 
L 824.178026 110.395378 
L 829.719049 105.808943 
L 835.260071 111.541986 
L 846.342116 95.489465 
L 851.883139 88.609813 
L 857.424161 97.782682 
L 862.965184 95.489465 
L 868.506206 106.955552 
L 874.047229 112.688595 
L 879.588251 104.662334 
L 890.670296 106.955552 
L 896.211319 111.541986 
L 901.752341 114.981812 
L 907.293364 103.515726 
L 912.834386 108.10216 
L 918.375409 106.955552 
L 918.375409 106.955552 
" clip-path="url(#p9670cc3c84)" style="fill: none; stroke: #fdac67; stroke-opacity: 0.95; stroke-width: 0.936; stroke-linecap: square"/>
   </g>
   <g id="line2d_35">
    <path d="M 70.598966 194.09781 
L 76.139989 196.391027 
L 81.681011 186.071549 
L 87.222034 215.883374 
L 92.763056 190.657984 
L 98.304079 167.72581 
L 103.845101 152.819898 
L 109.386124 167.72581 
L 114.927146 171.165636 
L 120.468169 198.684244 
L 126.009191 204.417288 
L 131.550214 207.857113 
L 137.091236 198.684244 
L 142.632259 202.12407 
L 148.173281 209.003722 
L 153.714304 142.50042 
L 159.255326 186.071549 
L 164.796349 199.830853 
L 170.337371 188.364766 
L 175.878394 157.406333 
L 181.419416 137.913985 
L 186.960439 134.474159 
L 192.501461 124.154681 
L 198.042484 125.30129 
L 203.583506 128.741116 
L 209.124529 142.50042 
L 214.665551 144.793637 
L 220.206574 139.060594 
L 225.747596 145.940246 
L 231.288619 179.191897 
L 236.829641 176.89868 
L 242.370664 183.778332 
L 247.911686 195.244418 
L 253.452709 191.804592 
L 258.993731 167.72581 
L 264.534754 194.09781 
L 270.075776 204.417288 
L 275.616799 191.804592 
L 281.157821 194.09781 
L 286.698844 181.485114 
L 292.239866 186.071549 
L 297.780889 191.804592 
L 303.321911 179.191897 
L 308.862934 173.458854 
L 314.403956 191.804592 
L 319.944979 195.244418 
L 325.486001 196.391027 
L 331.027024 181.485114 
L 336.568046 192.951201 
L 342.109069 178.045288 
L 347.650091 186.071549 
L 353.191114 192.951201 
L 358.732136 180.338506 
L 364.273159 182.631723 
L 369.814181 178.045288 
L 375.355204 187.218158 
L 380.896226 198.684244 
L 386.437249 182.631723 
L 391.978271 189.511375 
L 397.519294 184.92494 
L 403.060316 159.69955 
L 408.601339 173.458854 
L 414.142361 166.579202 
L 419.683384 170.019028 
L 425.224406 180.338506 
L 430.765429 174.605462 
L 436.306451 194.09781 
L 441.847474 202.12407 
L 447.388496 190.657984 
L 452.929519 198.684244 
L 458.470541 205.563896 
L 464.011564 189.511375 
L 469.552586 174.605462 
L 475.093609 187.218158 
L 480.634631 189.511375 
L 486.175654 133.327551 
L 491.716676 153.966507 
L 497.257699 153.966507 
L 502.798721 129.887725 
L 508.339744 152.819898 
L 513.880766 145.940246 
L 519.421789 150.526681 
L 524.962811 137.913985 
L 530.503834 124.154681 
L 536.044856 156.259724 
L 541.585879 164.285984 
L 547.126901 182.631723 
L 552.667924 187.218158 
L 558.208946 198.684244 
L 563.749969 200.977462 
L 569.290991 200.977462 
L 574.832014 197.537636 
L 580.373036 204.417288 
L 585.914059 205.563896 
L 591.455081 192.951201 
L 596.996104 176.89868 
L 602.537126 186.071549 
L 608.078149 194.09781 
L 613.619171 179.191897 
L 619.160194 206.710505 
L 624.701216 182.631723 
L 630.242239 174.605462 
L 635.783261 189.511375 
L 641.324284 182.631723 
L 646.865306 182.631723 
L 652.406329 190.657984 
L 657.947351 188.364766 
L 663.488374 194.09781 
L 669.029396 174.605462 
L 674.570419 192.951201 
L 680.111441 192.951201 
L 685.652464 194.09781 
L 691.193486 188.364766 
L 696.734509 200.977462 
L 702.275531 175.752071 
L 707.816554 200.977462 
L 713.357576 180.338506 
L 718.898599 167.72581 
L 724.439621 184.92494 
L 729.980644 196.391027 
L 735.521666 200.977462 
L 741.062689 195.244418 
L 746.603711 210.150331 
L 752.144734 207.857113 
L 757.685756 214.736765 
L 763.226779 204.417288 
L 768.767801 213.590157 
L 774.308824 204.417288 
L 779.849846 206.710505 
L 785.390869 215.883374 
L 790.931891 219.3232 
L 796.472914 203.270679 
L 802.013936 167.72581 
L 807.554959 164.285984 
L 813.095981 180.338506 
L 818.637004 167.72581 
L 824.178026 157.406333 
L 829.719049 172.312245 
L 835.260071 163.139376 
L 840.801094 152.819898 
L 846.342116 159.69955 
L 851.883139 156.259724 
L 857.424161 194.09781 
L 862.965184 199.830853 
L 874.047229 206.710505 
L 879.588251 205.563896 
L 885.129274 195.244418 
L 890.670296 160.846159 
L 896.211319 195.244418 
L 901.752341 205.563896 
L 907.293364 206.710505 
L 912.834386 202.12407 
L 918.375409 170.019028 
L 918.375409 170.019028 
" clip-path="url(#p9670cc3c84)" style="fill: none; stroke: #fd9547; stroke-opacity: 0.95; stroke-width: 0.936; stroke-linecap: square"/>
   </g>
   <g id="line2d_36">
    <path d="M 70.598966 53.064945 
L 76.139989 58.797988 
L 81.681011 58.797988 
L 87.222034 85.169987 
L 92.763056 92.049639 
L 98.304079 100.0759 
L 103.845101 88.609813 
L 109.386124 92.049639 
L 114.927146 82.87677 
L 120.468169 75.997118 
L 126.009191 79.436944 
L 131.550214 72.557292 
L 137.091236 69.117466 
L 142.632259 63.384423 
L 148.173281 63.384423 
L 153.714304 65.67764 
L 159.255326 59.944597 
L 164.796349 63.384423 
L 170.337371 54.211553 
L 175.878394 61.091205 
L 181.419416 62.237814 
L 186.960439 53.064945 
L 192.501461 57.651379 
L 198.042484 40.452249 
L 203.583506 33.572597 
L 209.124529 54.211553 
L 214.665551 48.47851 
L 220.206574 53.064945 
L 225.747596 41.598858 
L 231.288619 61.091205 
L 236.829641 45.038684 
L 242.370664 47.331901 
L 253.452709 45.038684 
L 258.993731 39.305641 
L 264.534754 35.865815 
L 270.075776 35.865815 
L 275.616799 51.918336 
L 281.157821 43.892075 
L 286.698844 46.185293 
L 292.239866 53.064945 
L 303.321911 48.47851 
L 308.862934 51.918336 
L 314.403956 54.211553 
L 319.944979 55.358162 
L 325.486001 49.625119 
L 331.027024 59.944597 
L 336.568046 51.918336 
L 342.109069 49.625119 
L 353.191114 56.504771 
L 358.732136 53.064945 
L 364.273159 54.211553 
L 369.814181 50.771727 
L 375.355204 55.358162 
L 380.896226 41.598858 
L 386.437249 54.211553 
L 391.978271 49.625119 
L 397.519294 50.771727 
L 403.060316 66.824249 
L 408.601339 81.730161 
L 414.142361 57.651379 
L 419.683384 73.703901 
L 425.224406 61.091205 
L 430.765429 71.410683 
L 436.306451 59.944597 
L 441.847474 55.358162 
L 447.388496 66.824249 
L 452.929519 61.091205 
L 458.470541 58.797988 
L 464.011564 48.47851 
L 469.552586 62.237814 
L 475.093609 50.771727 
L 480.634631 53.064945 
L 486.175654 85.169987 
L 491.716676 72.557292 
L 497.257699 67.970857 
L 502.798721 67.970857 
L 508.339744 63.384423 
L 513.880766 59.944597 
L 519.421789 43.892075 
L 524.962811 54.211553 
L 530.503834 63.384423 
L 536.044856 58.797988 
L 541.585879 69.117466 
L 547.126901 69.117466 
L 552.667924 63.384423 
L 558.208946 81.730161 
L 563.749969 58.797988 
L 569.290991 67.970857 
L 574.832014 61.091205 
L 580.373036 67.970857 
L 585.914059 57.651379 
L 591.455081 59.944597 
L 602.537126 66.824249 
L 608.078149 74.850509 
L 613.619171 69.117466 
L 619.160194 67.970857 
L 624.701216 70.264075 
L 630.242239 77.143726 
L 641.324284 70.264075 
L 646.865306 64.531031 
L 652.406329 67.970857 
L 657.947351 75.997118 
L 663.488374 87.463204 
L 669.029396 74.850509 
L 674.570419 78.290335 
L 680.111441 82.87677 
L 685.652464 86.316596 
L 691.193486 86.316596 
L 696.734509 72.557292 
L 702.275531 71.410683 
L 707.816554 75.997118 
L 713.357576 66.824249 
L 718.898599 98.929291 
L 724.439621 86.316596 
L 729.980644 86.316596 
L 735.521666 82.87677 
L 741.062689 98.929291 
L 746.603711 74.850509 
L 752.144734 66.824249 
L 757.685756 75.997118 
L 763.226779 77.143726 
L 768.767801 71.410683 
L 774.308824 66.824249 
L 779.849846 84.023378 
L 785.390869 90.90303 
L 790.931891 92.049639 
L 796.472914 87.463204 
L 802.013936 90.90303 
L 807.554959 59.944597 
L 813.095981 78.290335 
L 818.637004 88.609813 
L 824.178026 85.169987 
L 829.719049 57.651379 
L 835.260071 81.730161 
L 840.801094 79.436944 
L 846.342116 70.264075 
L 851.883139 87.463204 
L 857.424161 71.410683 
L 862.965184 78.290335 
L 868.506206 66.824249 
L 874.047229 78.290335 
L 879.588251 71.410683 
L 885.129274 73.703901 
L 890.670296 67.970857 
L 896.211319 69.117466 
L 901.752341 71.410683 
L 907.293364 67.970857 
L 912.834386 55.358162 
L 918.375409 67.970857 
L 918.375409 67.970857 
" clip-path="url(#p9670cc3c84)" style="fill: none; stroke: #f87d29; stroke-opacity: 0.95; stroke-width: 0.936; stroke-linecap: square"/>
   </g>
   <g id="line2d_37">
    <path d="M 70.598966 92.049639 
L 76.139989 96.636074 
L 81.681011 105.808943 
L 87.222034 110.395378 
L 92.763056 106.955552 
L 98.304079 87.463204 
L 103.845101 86.316596 
L 109.386124 84.023378 
L 114.927146 84.023378 
L 120.468169 82.87677 
L 126.009191 92.049639 
L 131.550214 86.316596 
L 137.091236 97.782682 
L 142.632259 105.808943 
L 148.173281 105.808943 
L 153.714304 97.782682 
L 164.796349 102.369117 
L 170.337371 106.955552 
L 175.878394 81.730161 
L 181.419416 67.970857 
L 186.960439 59.944597 
L 192.501461 56.504771 
L 198.042484 51.918336 
L 203.583506 56.504771 
L 214.665551 49.625119 
L 220.206574 50.771727 
L 225.747596 49.625119 
L 231.288619 58.797988 
L 236.829641 59.944597 
L 242.370664 55.358162 
L 247.911686 73.703901 
L 253.452709 77.143726 
L 258.993731 88.609813 
L 264.534754 82.87677 
L 270.075776 94.342856 
L 275.616799 92.049639 
L 281.157821 86.316596 
L 286.698844 87.463204 
L 292.239866 89.756422 
L 297.780889 87.463204 
L 303.321911 95.489465 
L 308.862934 95.489465 
L 314.403956 102.369117 
L 319.944979 95.489465 
L 325.486001 100.0759 
L 331.027024 95.489465 
L 336.568046 98.929291 
L 342.109069 95.489465 
L 347.650091 94.342856 
L 358.732136 103.515726 
L 364.273159 97.782682 
L 369.814181 97.782682 
L 375.355204 101.222508 
L 380.896226 95.489465 
L 386.437249 106.955552 
L 391.978271 101.222508 
L 397.519294 100.0759 
L 403.060316 71.410683 
L 408.601339 71.410683 
L 414.142361 65.67764 
L 419.683384 73.703901 
L 425.224406 63.384423 
L 430.765429 63.384423 
L 436.306451 73.703901 
L 441.847474 92.049639 
L 447.388496 78.290335 
L 452.929519 111.541986 
L 458.470541 106.955552 
L 464.011564 106.955552 
L 469.552586 112.688595 
L 475.093609 105.808943 
L 480.634631 111.541986 
L 486.175654 82.87677 
L 491.716676 75.997118 
L 497.257699 66.824249 
L 502.798721 66.824249 
L 508.339744 67.970857 
L 513.880766 66.824249 
L 519.421789 61.091205 
L 524.962811 65.67764 
L 530.503834 61.091205 
L 536.044856 62.237814 
L 541.585879 77.143726 
L 547.126901 73.703901 
L 552.667924 90.90303 
L 558.208946 89.756422 
L 563.749969 85.169987 
L 569.290991 86.316596 
L 574.832014 100.0759 
L 580.373036 114.981812 
L 585.914059 112.688595 
L 591.455081 113.835204 
L 596.996104 118.421638 
L 602.537126 125.30129 
L 608.078149 117.27503 
L 619.160194 114.981812 
L 624.701216 117.27503 
L 630.242239 118.421638 
L 635.783261 111.541986 
L 641.324284 123.008073 
L 646.865306 118.421638 
L 652.406329 119.568247 
L 657.947351 131.034333 
L 663.488374 133.327551 
L 669.029396 128.741116 
L 674.570419 129.887725 
L 680.111441 120.714855 
L 685.652464 133.327551 
L 691.193486 133.327551 
L 696.734509 121.861464 
L 702.275531 121.861464 
L 707.816554 131.034333 
L 713.357576 101.222508 
L 718.898599 88.609813 
L 724.439621 86.316596 
L 729.980644 95.489465 
L 735.521666 90.90303 
L 741.062689 87.463204 
L 746.603711 95.489465 
L 752.144734 96.636074 
L 757.685756 103.515726 
L 763.226779 114.981812 
L 768.767801 105.808943 
L 774.308824 106.955552 
L 779.849846 98.929291 
L 785.390869 98.929291 
L 790.931891 110.395378 
L 796.472914 104.662334 
L 802.013936 94.342856 
L 807.554959 92.049639 
L 813.095981 93.196248 
L 818.637004 88.609813 
L 824.178026 85.169987 
L 829.719049 79.436944 
L 835.260071 82.87677 
L 840.801094 81.730161 
L 846.342116 79.436944 
L 851.883139 87.463204 
L 857.424161 92.049639 
L 862.965184 101.222508 
L 868.506206 116.128421 
L 874.047229 128.741116 
L 885.129274 117.27503 
L 890.670296 116.128421 
L 896.211319 123.008073 
L 901.752341 123.008073 
L 907.293364 118.421638 
L 912.834386 114.981812 
L 918.375409 120.714855 
L 918.375409 120.714855 
" clip-path="url(#p9670cc3c84)" style="fill: none; stroke: #ee6410; stroke-opacity: 0.95; stroke-width: 0.936; stroke-linecap: square"/>
   </g>
   <g id="line2d_38">
    <path d="M 70.598966 103.515726 
L 76.139989 128.741116 
L 81.681011 96.636074 
L 87.222034 167.72581 
L 92.763056 135.620768 
L 98.304079 108.10216 
L 103.845101 95.489465 
L 109.386124 61.091205 
L 114.927146 69.117466 
L 120.468169 58.797988 
L 126.009191 112.688595 
L 131.550214 124.154681 
L 137.091236 124.154681 
L 142.632259 100.0759 
L 148.173281 97.782682 
L 153.714304 112.688595 
L 159.255326 95.489465 
L 164.796349 84.023378 
L 170.337371 98.929291 
L 175.878394 92.049639 
L 181.419416 55.358162 
L 186.960439 58.797988 
L 192.501461 58.797988 
L 198.042484 74.850509 
L 203.583506 75.997118 
L 209.124529 66.824249 
L 214.665551 45.038684 
L 220.206574 48.47851 
L 225.747596 43.892075 
L 231.288619 92.049639 
L 236.829641 92.049639 
L 242.370664 117.27503 
L 247.911686 103.515726 
L 253.452709 92.049639 
L 258.993731 69.117466 
L 264.534754 102.369117 
L 270.075776 78.290335 
L 275.616799 87.463204 
L 281.157821 97.782682 
L 286.698844 70.264075 
L 292.239866 74.850509 
L 297.780889 94.342856 
L 303.321911 70.264075 
L 308.862934 86.316596 
L 314.403956 86.316596 
L 319.944979 93.196248 
L 331.027024 102.369117 
L 336.568046 89.756422 
L 342.109069 95.489465 
L 347.650091 89.756422 
L 353.191114 88.609813 
L 358.732136 92.049639 
L 364.273159 94.342856 
L 369.814181 86.316596 
L 375.355204 82.87677 
L 380.896226 103.515726 
L 386.437249 90.90303 
L 391.978271 98.929291 
L 397.519294 98.929291 
L 403.060316 71.410683 
L 408.601339 64.531031 
L 414.142361 61.091205 
L 419.683384 42.745467 
L 425.224406 54.211553 
L 430.765429 67.970857 
L 436.306451 125.30129 
L 441.847474 124.154681 
L 447.388496 126.447899 
L 452.929519 102.369117 
L 458.470541 109.248769 
L 464.011564 123.008073 
L 469.552586 84.023378 
L 475.093609 104.662334 
L 480.634631 92.049639 
L 486.175654 78.290335 
L 491.716676 74.850509 
L 497.257699 67.970857 
L 502.798721 54.211553 
L 508.339744 58.797988 
L 513.880766 56.504771 
L 519.421789 67.970857 
L 524.962811 58.797988 
L 530.503834 74.850509 
L 536.044856 71.410683 
L 541.585879 105.808943 
L 547.126901 118.421638 
L 552.667924 128.741116 
L 558.208946 128.741116 
L 563.749969 142.50042 
L 569.290991 148.233463 
L 574.832014 131.034333 
L 580.373036 106.955552 
L 585.914059 111.541986 
L 591.455081 106.955552 
L 596.996104 106.955552 
L 602.537126 104.662334 
L 608.078149 105.808943 
L 613.619171 110.395378 
L 619.160194 119.568247 
L 624.701216 105.808943 
L 630.242239 108.10216 
L 635.783261 120.714855 
L 641.324284 103.515726 
L 646.865306 93.196248 
L 652.406329 120.714855 
L 657.947351 147.086855 
L 663.488374 101.222508 
L 669.029396 103.515726 
L 674.570419 98.929291 
L 680.111441 131.034333 
L 685.652464 117.27503 
L 691.193486 110.395378 
L 696.734509 97.782682 
L 702.275531 129.887725 
L 707.816554 114.981812 
L 713.357576 97.782682 
L 718.898599 87.463204 
L 724.439621 63.384423 
L 729.980644 77.143726 
L 735.521666 70.264075 
L 741.062689 62.237814 
L 746.603711 127.594507 
L 752.144734 148.233463 
L 757.685756 144.793637 
L 763.226779 131.034333 
L 768.767801 149.380072 
L 774.308824 147.086855 
L 779.849846 142.50042 
L 785.390869 108.10216 
L 790.931891 137.913985 
L 796.472914 120.714855 
L 802.013936 89.756422 
L 807.554959 75.997118 
L 813.095981 72.557292 
L 818.637004 75.997118 
L 824.178026 78.290335 
L 829.719049 70.264075 
L 835.260071 75.997118 
L 840.801094 69.117466 
L 846.342116 73.703901 
L 851.883139 86.316596 
L 857.424161 131.034333 
L 862.965184 127.594507 
L 868.506206 101.222508 
L 874.047229 84.023378 
L 879.588251 104.662334 
L 885.129274 120.714855 
L 890.670296 95.489465 
L 896.211319 106.955552 
L 901.752341 111.541986 
L 907.293364 106.955552 
L 912.834386 103.515726 
L 918.375409 93.196248 
L 918.375409 93.196248 
" clip-path="url(#p9670cc3c84)" style="fill: none; stroke: #dd4d04; stroke-opacity: 0.95; stroke-width: 0.936; stroke-linecap: square"/>
   </g>
   <g id="patch_23">
    <path d="M 53.643438 228.954713 
L 53.643438 17.061433 
" style="fill: none; stroke: #cbd5e1; stroke-width: 0.8; stroke-linejoin: miter; stroke-linecap: square"/>
   </g>
   <g id="patch_24">
    <path d="M 935.330937 228.954713 
L 935.330937 17.061433 
" style="fill: none; stroke: #cbd5e1; stroke-width: 0.8; stroke-linejoin: miter; stroke-linecap: square"/>
   </g>
   <g id="patch_25">
    <path d="M 53.643438 228.954713 
L 935.330938 228.954713 
" style="fill: none; stroke: #cbd5e1; stroke-width: 0.8; stroke-linejoin: miter; stroke-linecap: square"/>
   </g>
   <g id="patch_26">
    <path d="M 53.643438 17.061433 
L 935.330938 17.061433 
" style="fill: none; stroke: #cbd5e1; stroke-width: 0.8; stroke-linejoin: miter; stroke-linecap: square"/>
   </g>
   <g id="text_19">
    <!-- ACC -->
    <g style="fill: #475569" transform="translate(53.868702 13.27875) scale(0.08 -0.08)">
     <defs>
      <path id="DejaVuSans-41" d="M 2188 4044 
L 1331 1722 
L 3047 1722 
L 2188 4044 
z
M 1831 4666 
L 2547 4666 
L 4325 0 
L 3669 0 
L 3244 1197 
L 1141 1197 
L 716 0 
L 50 0 
L 1831 4666 
z
" transform="scale(0.015625)"/>
     </defs>
     <use xlink:href="#DejaVuSans-41"/>
     <use xlink:href="#DejaVuSans-43" transform="translate(66.658203 0)"/>
     <use xlink:href="#DejaVuSans-43" transform="translate(136.482422 0)"/>
    </g>
   </g>
   <g id="text_20">
    <!-- OC -->
    <g style="fill: #475569" transform="translate(81.280159 13.27875) scale(0.08 -0.08)">
     <defs>
      <path id="DejaVuSans-4f" d="M 2522 4238 
Q 1834 4238 1429 3725 
Q 1025 3213 1025 2328 
Q 1025 1447 1429 934 
Q 1834 422 2522 422 
Q 3209 422 3611 934 
Q 4013 1447 4013 2328 
Q 4013 3213 3611 3725 
Q 3209 4238 2522 4238 
z
M 2522 4750 
Q 3503 4750 4090 4092 
Q 4678 3434 4678 2328 
Q 4678 1225 4090 567 
Q 3503 -91 2522 -91 
Q 1538 -91 948 565 
Q 359 1222 359 2328 
Q 359 3434 948 4092 
Q 1538 4750 2522 4750 
z
" transform="scale(0.015625)"/>
     </defs>
     <use xlink:href="#DejaVuSans-4f"/>
     <use xlink:href="#DejaVuSans-43" transform="translate(78.710938 0)"/>
    </g>
   </g>
   <g id="text_21">
    <!-- FCS -->
    <g style="fill: #475569" transform="translate(112.835044 13.27875) scale(0.08 -0.08)">
     <defs>
      <path id="DejaVuSans-46" d="M 628 4666 
L 3309 4666 
L 3309 4134 
L 1259 4134 
L 1259 2759 
L 3109 2759 
L 3109 2228 
L 1259 2228 
L 1259 0 
L 628 0 
L 628 4666 
z
" transform="scale(0.015625)"/>
      <path id="DejaVuSans-53" d="M 3425 4513 
L 3425 3897 
Q 3066 4069 2747 4153 
Q 2428 4238 2131 4238 
Q 1616 4238 1336 4038 
Q 1056 3838 1056 3469 
Q 1056 3159 1242 3001 
Q 1428 2844 1947 2747 
L 2328 2669 
Q 3034 2534 3370 2195 
Q 3706 1856 3706 1288 
Q 3706 609 3251 259 
Q 2797 -91 1919 -91 
Q 1588 -91 1214 -16 
Q 841 59 441 206 
L 441 856 
Q 825 641 1194 531 
Q 1563 422 1919 422 
Q 2459 422 2753 634 
Q 3047 847 3047 1241 
Q 3047 1584 2836 1778 
Q 2625 1972 2144 2069 
L 1759 2144 
Q 1053 2284 737 2584 
Q 422 2884 422 3419 
Q 422 4038 858 4394 
Q 1294 4750 2059 4750 
Q 2388 4750 2728 4690 
Q 3069 4631 3425 4513 
z
" transform="scale(0.015625)"/>
     </defs>
     <use xlink:href="#DejaVuSans-46"/>
     <use xlink:href="#DejaVuSans-43" transform="translate(57.519531 0)"/>
     <use xlink:href="#DejaVuSans-53" transform="translate(127.34375 0)"/>
    </g>
   </g>
   <g id="text_22">
    <!-- SR -->
    <g style="fill: #475569" transform="translate(151.166065 13.27875) scale(0.08 -0.08)">
     <defs>
      <path id="DejaVuSans-52" d="M 2841 2188 
Q 3044 2119 3236 1894 
Q 3428 1669 3622 1275 
L 4263 0 
L 3584 0 
L 2988 1197 
Q 2756 1666 2539 1819 
Q 2322 1972 1947 1972 
L 1259 1972 
L 1259 0 
L 628 0 
L 628 4666 
L 2053 4666 
Q 2853 4666 3247 4331 
Q 3641 3997 3641 3322 
Q 3641 2881 3436 2590 
Q 3231 2300 2841 2188 
z
M 1259 4147 
L 1259 2491 
L 2053 2491 
Q 2509 2491 2742 2702 
Q 2975 2913 2975 3322 
Q 2975 3731 2742 3939 
Q 2509 4147 2053 4147 
L 1259 4147 
z
" transform="scale(0.015625)"/>
     </defs>
     <use xlink:href="#DejaVuSans-53"/>
     <use xlink:href="#DejaVuSans-52" transform="translate(63.476562 0)"/>
    </g>
   </g>
   <g id="text_23">
    <!-- FFC -->
    <g style="fill: #475569" transform="translate(196.189131 13.27875) scale(0.08 -0.08)">
     <use xlink:href="#DejaVuSans-46"/>
     <use xlink:href="#DejaVuSans-46" transform="translate(57.519531 0)"/>
     <use xlink:href="#DejaVuSans-43" transform="translate(115.039062 0)"/>
    </g>
   </g>
   <g id="text_24">
    <!-- SS -->
    <g style="fill: #475569" transform="translate(309.325206 13.27875) scale(0.08 -0.08)">
     <use xlink:href="#DejaVuSans-53"/>
     <use xlink:href="#DejaVuSans-53" transform="translate(63.476562 0)"/>
    </g>
   </g>
   <g id="text_25">
    <!-- OC -->
    <g style="fill: #475569" transform="translate(394.34793 13.27875) scale(0.08 -0.08)">
     <use xlink:href="#DejaVuSans-4f"/>
     <use xlink:href="#DejaVuSans-43" transform="translate(78.710938 0)"/>
    </g>
   </g>
   <g id="text_26">
    <!-- FCS -->
    <g style="fill: #475569" transform="translate(423.132304 13.27875) scale(0.08 -0.08)">
     <use xlink:href="#DejaVuSans-46"/>
     <use xlink:href="#DejaVuSans-43" transform="translate(57.519531 0)"/>
     <use xlink:href="#DejaVuSans-53" transform="translate(127.34375 0)"/>
    </g>
   </g>
   <g id="text_27">
    <!-- SR -->
    <g style="fill: #475569" transform="translate(461.463325 13.27875) scale(0.08 -0.08)">
     <use xlink:href="#DejaVuSans-53"/>
     <use xlink:href="#DejaVuSans-52" transform="translate(63.476562 0)"/>
    </g>
   </g>
   <g id="text_28">
    <!-- FFC -->
    <g style="fill: #475569" transform="translate(506.486391 13.27875) scale(0.08 -0.08)">
     <use xlink:href="#DejaVuSans-46"/>
     <use xlink:href="#DejaVuSans-46" transform="translate(57.519531 0)"/>
     <use xlink:href="#DejaVuSans-43" transform="translate(115.039062 0)"/>
    </g>
   </g>
   <g id="text_29">
    <!-- SS -->
    <g style="fill: #475569" transform="translate(619.622466 13.27875) scale(0.08 -0.08)">
     <use xlink:href="#DejaVuSans-53"/>
     <use xlink:href="#DejaVuSans-53" transform="translate(63.476562 0)"/>
    </g>
   </g>
   <g id="text_30">
    <!-- OC -->
    <g style="fill: #475569" transform="translate(704.64519 13.27875) scale(0.08 -0.08)">
     <use xlink:href="#DejaVuSans-4f"/>
     <use xlink:href="#DejaVuSans-43" transform="translate(78.710938 0)"/>
    </g>
   </g>
   <g id="text_31">
    <!-- FCS -->
    <g style="fill: #475569" transform="translate(733.429564 13.27875) scale(0.08 -0.08)">
     <use xlink:href="#DejaVuSans-46"/>
     <use xlink:href="#DejaVuSans-43" transform="translate(57.519531 0)"/>
     <use xlink:href="#DejaVuSans-53" transform="translate(127.34375 0)"/>
    </g>
   </g>
   <g id="text_32">
    <!-- SR -->
    <g style="fill: #475569" transform="translate(771.760585 13.27875) scale(0.08 -0.08)">
     <use xlink:href="#DejaVuSans-53"/>
     <use xlink:href="#DejaVuSans-52" transform="translate(63.476562 0)"/>
    </g>
   </g>
   <g id="text_33">
    <!-- FFC -->
    <g style="fill: #475569" transform="translate(816.783651 13.27875) scale(0.08 -0.08)">
     <use xlink:href="#DejaVuSans-46"/>
     <use xlink:href="#DejaVuSans-46" transform="translate(57.519531 0)"/>
     <use xlink:href="#DejaVuSans-43" transform="translate(115.039062 0)"/>
    </g>
   </g>
   <g id="text_34">
    <!-- SS -->
    <g style="fill: #475569" transform="translate(885.591546 13.27875) scale(0.08 -0.08)">
     <use xlink:href="#DejaVuSans-53"/>
     <use xlink:href="#DejaVuSans-53" transform="translate(63.476562 0)"/>
    </g>
   </g>
   <g id="legend_1">
    <g id="line2d_39">
     <path d="M 847.378437 27.540183 
L 855.378437 27.540183 
L 863.378437 27.540183 
" style="fill: none; stroke: #fdc38d; stroke-opacity: 0.95; stroke-width: 1.3; stroke-linecap: square"/>
    </g>
    <g id="text_35">
     <!-- T1 -->
     <g transform="translate(869.778437 30.340183) scale(0.08 -0.08)">
      <use xlink:href="#DejaVuSans-54"/>
      <use xlink:href="#DejaVuSans-31" transform="translate(61.083984 0)"/>
     </g>
    </g>
    <g id="line2d_40">
     <path d="M 847.378437 39.282683 
L 855.378437 39.282683 
L 863.378437 39.282683 
" style="fill: none; stroke: #fdac67; stroke-opacity: 0.95; stroke-width: 1.3; stroke-linecap: square"/>
    </g>
    <g id="text_36">
     <!-- T2 -->
     <g transform="translate(869.778437 42.082683) scale(0.08 -0.08)">
      <use xlink:href="#DejaVuSans-54"/>
      <use xlink:href="#DejaVuSans-32" transform="translate(61.083984 0)"/>
     </g>
    </g>
    <g id="line2d_41">
     <path d="M 847.378437 51.025183 
L 855.378437 51.025183 
L 863.378437 51.025183 
" style="fill: none; stroke: #fd9547; stroke-opacity: 0.95; stroke-width: 1.3; stroke-linecap: square"/>
    </g>
    <g id="text_37">
     <!-- T3 -->
     <g transform="translate(869.778437 53.825183) scale(0.08 -0.08)">
      <use xlink:href="#DejaVuSans-54"/>
      <use xlink:href="#DejaVuSans-33" transform="translate(61.083984 0)"/>
     </g>
    </g>
    <g id="line2d_42">
     <path d="M 895.754687 27.540183 
L 903.754687 27.540183 
L 911.754687 27.540183 
" style="fill: none; stroke: #f87d29; stroke-opacity: 0.95; stroke-width: 1.3; stroke-linecap: square"/>
    </g>
    <g id="text_38">
     <!-- T4 -->
     <g transform="translate(918.154687 30.340183) scale(0.08 -0.08)">
      <use xlink:href="#DejaVuSans-54"/>
      <use xlink:href="#DejaVuSans-34" transform="translate(61.083984 0)"/>
     </g>
    </g>
    <g id="line2d_43">
     <path d="M 895.754687 39.282683 
L 903.754687 39.282683 
L 911.754687 39.282683 
" style="fill: none; stroke: #ee6410; stroke-opacity: 0.95; stroke-width: 1.3; stroke-linecap: square"/>
    </g>
    <g id="text_39">
     <!-- T5 -->
     <g transform="translate(918.154687 42.082683) scale(0.08 -0.08)">
      <use xlink:href="#DejaVuSans-54"/>
      <use xlink:href="#DejaVuSans-35" transform="translate(61.083984 0)"/>
     </g>
    </g>
    <g id="line2d_44">
     <path d="M 895.754687 51.025183 
L 903.754687 51.025183 
L 911.754687 51.025183 
" style="fill: none; stroke: #dd4d04; stroke-opacity: 0.95; stroke-width: 1.3; stroke-linecap: square"/>
    </g>
    <g id="text_40">
     <!-- T6 -->
     <g transform="translate(918.154687 53.825183) scale(0.08 -0.08)">
      <use xlink:href="#DejaVuSans-54"/>
      <use xlink:href="#DejaVuSans-36" transform="translate(61.083984 0)"/>
     </g>
    </g>
   </g>
  </g>
 </g>
 <defs>
  <clipPath id="p9670cc3c84">
   <rect x="53.643438" y="17.061433" width="881.6875" height="211.89328"/>
  </clipPath>
 </defs>
</svg>
