<?xml version="1.0" encoding="utf-8" standalone="no"?>
<!DOCTYPE svg PUBLIC "-//W3C//DTD SVG 1.1//EN"
  "http://www.w3.org/Graphics/SVG/1.1/DTD/svg11.dtd">
<svg xmlns:xlink="http://www.w3.org/1999/xlink" width="942.505625pt" height="265.54315pt" viewBox="0 0 942.505625 265.54315" xmlns="http://www.w3.org/2000/svg" version="1.1">
 <metadata>
  <rdf:RDF xmlns:dc="http://purl.org/dc/elements/1.1/" xmlns:cc="http://creativecommons.org/ns#" xmlns:rdf="http://www.w3.org/1999/02/22-rdf-syntax-ns#">
   <cc:Work>
    <dc:type rdf:resource="http://purl.org/dc/dcmitype/StillImage"/>
    <dc:date>2026-04-17T13:17:57.280061</dc:date>
    <dc:format>image/svg+xml</dc:format>
    <dc:creator>
     <cc:Agent>
      <dc:title>Matplotlib v3.10.8, https://matplotlib.org/</dc:title>
     </cc:Agent>
    </dc:creator>
   </cc:Work>
  </rdf:RDF>
 </metadata>
 <defs>
  <style type="text/css">*{stroke-linejoin: round; stroke-linecap: butt}</style>
 </defs>
 <g id="figure_1">
  <g id="patch_1">
   <path d="M 0 265.54315 
L 942.505625 265.54315 
L 942.505625 0 
L 0 0 
z
" style="fill: #ffffff"/>
  </g>
  <g id="axes_1">
   <g id="patch_2">
    <path d="M 39.330625 228.954713 
L 935.305625 228.954713 
L 935.305625 17.061433 
L 39.330625 17.061433 
z
" style="fill: #ffffff"/>
   </g>
   <g id="patch_3">
    <path d="M 39.330625 228.954713 
L 218.164291 228.954713 
L 218.164291 17.061433 
L 39.330625 17.061433 
z
" clip-path="url(#pb0fa26fedd)" style="fill: #f8fafc; opacity: 0.45"/>
   </g>
   <g id="patch_4">
    <path d="M 218.164291 228.954713 
L 249.978529 228.954713 
L 249.978529 17.061433 
L 218.164291 17.061433 
z
" clip-path="url(#pb0fa26fedd)" style="fill: #eff6ff; opacity: 0.45"/>
   </g>
   <g id="patch_5">
    <path d="M 249.978529 228.954713 
L 272.702985 228.954713 
L 272.702985 17.061433 
L 249.978529 17.061433 
z
" clip-path="url(#pb0fa26fedd)" style="fill: #fef3c7; opacity: 0.45"/>
   </g>
   <g id="patch_6">
    <path d="M 272.702985 228.954713 
L 318.151897 228.954713 
L 318.151897 17.061433 
L 272.702985 17.061433 
z
" clip-path="url(#pb0fa26fedd)" style="fill: #dcfce7; opacity: 0.45"/>
   </g>
   <g id="patch_7">
    <path d="M 318.151897 228.954713 
L 363.600809 228.954713 
L 363.600809 17.061433 
L 318.151897 17.061433 
z
" clip-path="url(#pb0fa26fedd)" style="fill: #fee2e2; opacity: 0.45"/>
   </g>
   <g id="patch_8">
    <path d="M 363.600809 228.954713 
L 481.76798 228.954713 
L 481.76798 17.061433 
L 363.600809 17.061433 
z
" clip-path="url(#pb0fa26fedd)" style="fill: #ede9fe; opacity: 0.45"/>
   </g>
   <g id="patch_9">
    <path d="M 481.76798 228.954713 
L 504.492436 228.954713 
L 504.492436 17.061433 
L 481.76798 17.061433 
z
" clip-path="url(#pb0fa26fedd)" style="fill: #f8fafc; opacity: 0.45"/>
   </g>
   <g id="patch_10">
    <path d="M 504.492436 228.954713 
L 527.216891 228.954713 
L 527.216891 17.061433 
L 504.492436 17.061433 
z
" clip-path="url(#pb0fa26fedd)" style="fill: #eff6ff; opacity: 0.45"/>
   </g>
   <g id="patch_11">
    <path d="M 527.216891 228.954713 
L 572.665803 228.954713 
L 572.665803 17.061433 
L 527.216891 17.061433 
z
" clip-path="url(#pb0fa26fedd)" style="fill: #fef3c7; opacity: 0.45"/>
   </g>
   <g id="patch_12">
    <path d="M 572.665803 228.954713 
L 618.114715 228.954713 
L 618.114715 17.061433 
L 572.665803 17.061433 
z
" clip-path="url(#pb0fa26fedd)" style="fill: #dcfce7; opacity: 0.45"/>
   </g>
   <g id="patch_13">
    <path d="M 618.114715 228.954713 
L 736.281886 228.954713 
L 736.281886 17.061433 
L 618.114715 17.061433 
z
" clip-path="url(#pb0fa26fedd)" style="fill: #fee2e2; opacity: 0.45"/>
   </g>
   <g id="patch_14">
    <path d="M 736.281886 228.954713 
L 759.006342 228.954713 
L 759.006342 17.061433 
L 736.281886 17.061433 
z
" clip-path="url(#pb0fa26fedd)" style="fill: #ede9fe; opacity: 0.45"/>
   </g>
   <g id="patch_15">
    <path d="M 759.006342 228.954713 
L 781.730798 228.954713 
L 781.730798 17.061433 
L 759.006342 17.061433 
z
" clip-path="url(#pb0fa26fedd)" style="fill: #f8fafc; opacity: 0.45"/>
   </g>
   <g id="patch_16">
    <path d="M 781.730798 228.954713 
L 827.17971 228.954713 
L 827.17971 17.061433 
L 781.730798 17.061433 
z
" clip-path="url(#pb0fa26fedd)" style="fill: #eff6ff; opacity: 0.45"/>
   </g>
   <g id="patch_17">
    <path d="M 827.17971 228.954713 
L 872.628621 228.954713 
L 872.628621 17.061433 
L 827.17971 17.061433 
z
" clip-path="url(#pb0fa26fedd)" style="fill: #fef3c7; opacity: 0.45"/>
   </g>
   <g id="patch_18">
    <path d="M 872.628621 228.954713 
L 913.532642 228.954713 
L 913.532642 17.061433 
L 872.628621 17.061433 
z
" clip-path="url(#pb0fa26fedd)" style="fill: #dcfce7; opacity: 0.45"/>
   </g>
   <g id="patch_19">
    <path d="M 913.532642 228.954713 
L 918.077533 228.954713 
L 918.077533 17.061433 
L 913.532642 17.061433 
z
" clip-path="url(#pb0fa26fedd)" style="fill: #fee2e2; opacity: 0.45"/>
   </g>
   <g id="matplotlib.axis_1">
    <g id="xtick_1">
     <g id="line2d_1">
      <path d="M 149.990923 228.954713 
L 149.990923 17.061433 
" clip-path="url(#pb0fa26fedd)" style="fill: none; stroke: #eef2f7; stroke-width: 0.55; stroke-linecap: square"/>
     </g>
     <g id="line2d_2">
      <defs>
       <path id="m4f0eef16df" d="M 0 0 
L 0 3.5 
" style="stroke: #000000; stroke-width: 0.8"/>
      </defs>
      <g>
       <use xlink:href="#m4f0eef16df" x="149.990923" y="228.954713" style="stroke: #000000; stroke-width: 0.8"/>
      </g>
     </g>
     <g id="text_1">
      <!-- 25 -->
      <g transform="translate(144.264673 242.793307) scale(0.09 -0.09)">
       <defs>
        <path id="DejaVuSans-32" d="M 1228 531 
L 3431 531 
L 3431 0 
L 469 0 
L 469 531 
Q 828 903 1448 1529 
Q 2069 2156 2228 2338 
Q 2531 2678 2651 2914 
Q 2772 3150 2772 3378 
Q 2772 3750 2511 3984 
Q 2250 4219 1831 4219 
Q 1534 4219 1204 4116 
Q 875 4013 500 3803 
L 500 4441 
Q 881 4594 1212 4672 
Q 1544 4750 1819 4750 
Q 2544 4750 2975 4387 
Q 3406 4025 3406 3419 
Q 3406 3131 3298 2873 
Q 3191 2616 2906 2266 
Q 2828 2175 2409 1742 
Q 1991 1309 1228 531 
z
" transform="scale(0.015625)"/>
        <path id="DejaVuSans-35" d="M 691 4666 
L 3169 4666 
L 3169 4134 
L 1269 4134 
L 1269 2991 
Q 1406 3038 1543 3061 
Q 1681 3084 1819 3084 
Q 2600 3084 3056 2656 
Q 3513 2228 3513 1497 
Q 3513 744 3044 326 
Q 2575 -91 1722 -91 
Q 1428 -91 1123 -41 
Q 819 9 494 109 
L 494 744 
Q 775 591 1075 516 
Q 1375 441 1709 441 
Q 2250 441 2565 725 
Q 2881 1009 2881 1497 
Q 2881 1984 2565 2268 
Q 2250 2553 1709 2553 
Q 1456 2553 1204 2497 
Q 953 2441 691 2322 
L 691 4666 
z
" transform="scale(0.015625)"/>
       </defs>
       <use xlink:href="#DejaVuSans-32"/>
       <use xlink:href="#DejaVuSans-35" transform="translate(63.623047 0)"/>
      </g>
     </g>
    </g>
    <g id="xtick_2">
     <g id="line2d_3">
      <path d="M 263.613203 228.954713 
L 263.613203 17.061433 
" clip-path="url(#pb0fa26fedd)" style="fill: none; stroke: #eef2f7; stroke-width: 0.55; stroke-linecap: square"/>
     </g>
     <g id="line2d_4">
      <g>
       <use xlink:href="#m4f0eef16df" x="263.613203" y="228.954713" style="stroke: #000000; stroke-width: 0.8"/>
      </g>
     </g>
     <g id="text_2">
      <!-- 50 -->
      <g transform="translate(257.886953 242.793307) scale(0.09 -0.09)">
       <defs>
        <path id="DejaVuSans-30" d="M 2034 4250 
Q 1547 4250 1301 3770 
Q 1056 3291 1056 2328 
Q 1056 1369 1301 889 
Q 1547 409 2034 409 
Q 2525 409 2770 889 
Q 3016 1369 3016 2328 
Q 3016 3291 2770 3770 
Q 2525 4250 2034 4250 
z
M 2034 4750 
Q 2819 4750 3233 4129 
Q 3647 3509 3647 2328 
Q 3647 1150 3233 529 
Q 2819 -91 2034 -91 
Q 1250 -91 836 529 
Q 422 1150 422 2328 
Q 422 3509 836 4129 
Q 1250 4750 2034 4750 
z
" transform="scale(0.015625)"/>
       </defs>
       <use xlink:href="#DejaVuSans-35"/>
       <use xlink:href="#DejaVuSans-30" transform="translate(63.623047 0)"/>
      </g>
     </g>
    </g>
    <g id="xtick_3">
     <g id="line2d_5">
      <path d="M 377.235482 228.954713 
L 377.235482 17.061433 
" clip-path="url(#pb0fa26fedd)" style="fill: none; stroke: #eef2f7; stroke-width: 0.55; stroke-linecap: square"/>
     </g>
     <g id="line2d_6">
      <g>
       <use xlink:href="#m4f0eef16df" x="377.235482" y="228.954713" style="stroke: #000000; stroke-width: 0.8"/>
      </g>
     </g>
     <g id="text_3">
      <!-- 75 -->
      <g transform="translate(371.509232 242.793307) scale(0.09 -0.09)">
       <defs>
        <path id="DejaVuSans-37" d="M 525 4666 
L 3525 4666 
L 3525 4397 
L 1831 0 
L 1172 0 
L 2766 4134 
L 525 4134 
L 525 4666 
z
" transform="scale(0.015625)"/>
       </defs>
       <use xlink:href="#DejaVuSans-37"/>
       <use xlink:href="#DejaVuSans-35" transform="translate(63.623047 0)"/>
      </g>
     </g>
    </g>
    <g id="xtick_4">
     <g id="line2d_7">
      <path d="M 490.857762 228.954713 
L 490.857762 17.061433 
" clip-path="url(#pb0fa26fedd)" style="fill: none; stroke: #eef2f7; stroke-width: 0.55; stroke-linecap: square"/>
     </g>
     <g id="line2d_8">
      <g>
       <use xlink:href="#m4f0eef16df" x="490.857762" y="228.954713" style="stroke: #000000; stroke-width: 0.8"/>
      </g>
     </g>
     <g id="text_4">
      <!-- 100 -->
      <g transform="translate(482.268387 242.793307) scale(0.09 -0.09)">
       <defs>
        <path id="DejaVuSans-31" d="M 794 531 
L 1825 531 
L 1825 4091 
L 703 3866 
L 703 4441 
L 1819 4666 
L 2450 4666 
L 2450 531 
L 3481 531 
L 3481 0 
L 794 0 
L 794 531 
z
" transform="scale(0.015625)"/>
       </defs>
       <use xlink:href="#DejaVuSans-31"/>
       <use xlink:href="#DejaVuSans-30" transform="translate(63.623047 0)"/>
       <use xlink:href="#DejaVuSans-30" transform="translate(127.246094 0)"/>
      </g>
     </g>
    </g>
    <g id="xtick_5">
     <g id="line2d_9">
      <path d="M 604.480042 228.954713 
L 604.480042 17.061433 
" clip-path="url(#pb0fa26fedd)" style="fill: none; stroke: #eef2f7; stroke-width: 0.55; stroke-linecap: square"/>
     </g>
     <g id="line2d_10">
      <g>
       <use xlink:href="#m4f0eef16df" x="604.480042" y="228.954713" style="stroke: #000000; stroke-width: 0.8"/>
      </g>
     </g>
     <g id="text_5">
      <!-- 125 -->
      <g transform="translate(595.890667 242.793307) scale(0.09 -0.09)">
       <use xlink:href="#DejaVuSans-31"/>
       <use xlink:href="#DejaVuSans-32" transform="translate(63.623047 0)"/>
       <use xlink:href="#DejaVuSans-35" transform="translate(127.246094 0)"/>
      </g>
     </g>
    </g>
    <g id="xtick_6">
     <g id="line2d_11">
      <path d="M 718.102321 228.954713 
L 718.102321 17.061433 
" clip-path="url(#pb0fa26fedd)" style="fill: none; stroke: #eef2f7; stroke-width: 0.55; stroke-linecap: square"/>
     </g>
     <g id="line2d_12">
      <g>
       <use xlink:href="#m4f0eef16df" x="718.102321" y="228.954713" style="stroke: #000000; stroke-width: 0.8"/>
      </g>
     </g>
     <g id="text_6">
      <!-- 150 -->
      <g transform="translate(709.512946 242.793307) scale(0.09 -0.09)">
       <use xlink:href="#DejaVuSans-31"/>
       <use xlink:href="#DejaVuSans-35" transform="translate(63.623047 0)"/>
       <use xlink:href="#DejaVuSans-30" transform="translate(127.246094 0)"/>
      </g>
     </g>
    </g>
    <g id="xtick_7">
     <g id="line2d_13">
      <path d="M 831.724601 228.954713 
L 831.724601 17.061433 
" clip-path="url(#pb0fa26fedd)" style="fill: none; stroke: #eef2f7; stroke-width: 0.55; stroke-linecap: square"/>
     </g>
     <g id="line2d_14">
      <g>
       <use xlink:href="#m4f0eef16df" x="831.724601" y="228.954713" style="stroke: #000000; stroke-width: 0.8"/>
      </g>
     </g>
     <g id="text_7">
      <!-- 175 -->
      <g transform="translate(823.135226 242.793307) scale(0.09 -0.09)">
       <use xlink:href="#DejaVuSans-31"/>
       <use xlink:href="#DejaVuSans-37" transform="translate(63.623047 0)"/>
       <use xlink:href="#DejaVuSans-35" transform="translate(127.246094 0)"/>
      </g>
     </g>
    </g>
    <g id="text_8">
     <!-- Minutes since session start -->
     <g transform="translate(419.728281 256.263463) scale(0.1 -0.1)">
      <defs>
       <path id="DejaVuSans-4d" d="M 628 4666 
L 1569 4666 
L 2759 1491 
L 3956 4666 
L 4897 4666 
L 4897 0 
L 4281 0 
L 4281 4097 
L 3078 897 
L 2444 897 
L 1241 4097 
L 1241 0 
L 628 0 
L 628 4666 
z
" transform="scale(0.015625)"/>
       <path id="DejaVuSans-69" d="M 603 3500 
L 1178 3500 
L 1178 0 
L 603 0 
L 603 3500 
z
M 603 4863 
L 1178 4863 
L 1178 4134 
L 603 4134 
L 603 4863 
z
" transform="scale(0.015625)"/>
       <path id="DejaVuSans-6e" d="M 3513 2113 
L 3513 0 
L 2938 0 
L 2938 2094 
Q 2938 2591 2744 2837 
Q 2550 3084 2163 3084 
Q 1697 3084 1428 2787 
Q 1159 2491 1159 1978 
L 1159 0 
L 581 0 
L 581 3500 
L 1159 3500 
L 1159 2956 
Q 1366 3272 1645 3428 
Q 1925 3584 2291 3584 
Q 2894 3584 3203 3211 
Q 3513 2838 3513 2113 
z
" transform="scale(0.015625)"/>
       <path id="DejaVuSans-75" d="M 544 1381 
L 544 3500 
L 1119 3500 
L 1119 1403 
Q 1119 906 1312 657 
Q 1506 409 1894 409 
Q 2359 409 2629 706 
Q 2900 1003 2900 1516 
L 2900 3500 
L 3475 3500 
L 3475 0 
L 2900 0 
L 2900 538 
Q 2691 219 2414 64 
Q 2138 -91 1772 -91 
Q 1169 -91 856 284 
Q 544 659 544 1381 
z
M 1991 3584 
L 1991 3584 
z
" transform="scale(0.015625)"/>
       <path id="DejaVuSans-74" d="M 1172 4494 
L 1172 3500 
L 2356 3500 
L 2356 3053 
L 1172 3053 
L 1172 1153 
Q 1172 725 1289 603 
Q 1406 481 1766 481 
L 2356 481 
L 2356 0 
L 1766 0 
Q 1100 0 847 248 
Q 594 497 594 1153 
L 594 3053 
L 172 3053 
L 172 3500 
L 594 3500 
L 594 4494 
L 1172 4494 
z
" transform="scale(0.015625)"/>
       <path id="DejaVuSans-65" d="M 3597 1894 
L 3597 1613 
L 953 1613 
Q 991 1019 1311 708 
Q 1631 397 2203 397 
Q 2534 397 2845 478 
Q 3156 559 3463 722 
L 3463 178 
Q 3153 47 2828 -22 
Q 2503 -91 2169 -91 
Q 1331 -91 842 396 
Q 353 884 353 1716 
Q 353 2575 817 3079 
Q 1281 3584 2069 3584 
Q 2775 3584 3186 3129 
Q 3597 2675 3597 1894 
z
M 3022 2063 
Q 3016 2534 2758 2815 
Q 2500 3097 2075 3097 
Q 1594 3097 1305 2825 
Q 1016 2553 972 2059 
L 3022 2063 
z
" transform="scale(0.015625)"/>
       <path id="DejaVuSans-73" d="M 2834 3397 
L 2834 2853 
Q 2591 2978 2328 3040 
Q 2066 3103 1784 3103 
Q 1356 3103 1142 2972 
Q 928 2841 928 2578 
Q 928 2378 1081 2264 
Q 1234 2150 1697 2047 
L 1894 2003 
Q 2506 1872 2764 1633 
Q 3022 1394 3022 966 
Q 3022 478 2636 193 
Q 2250 -91 1575 -91 
Q 1294 -91 989 -36 
Q 684 19 347 128 
L 347 722 
Q 666 556 975 473 
Q 1284 391 1588 391 
Q 1994 391 2212 530 
Q 2431 669 2431 922 
Q 2431 1156 2273 1281 
Q 2116 1406 1581 1522 
L 1381 1569 
Q 847 1681 609 1914 
Q 372 2147 372 2553 
Q 372 3047 722 3315 
Q 1072 3584 1716 3584 
Q 2034 3584 2315 3537 
Q 2597 3491 2834 3397 
z
" transform="scale(0.015625)"/>
       <path id="DejaVuSans-20" transform="scale(0.015625)"/>
       <path id="DejaVuSans-63" d="M 3122 3366 
L 3122 2828 
Q 2878 2963 2633 3030 
Q 2388 3097 2138 3097 
Q 1578 3097 1268 2742 
Q 959 2388 959 1747 
Q 959 1106 1268 751 
Q 1578 397 2138 397 
Q 2388 397 2633 464 
Q 2878 531 3122 666 
L 3122 134 
Q 2881 22 2623 -34 
Q 2366 -91 2075 -91 
Q 1284 -91 818 406 
Q 353 903 353 1747 
Q 353 2603 823 3093 
Q 1294 3584 2113 3584 
Q 2378 3584 2631 3529 
Q 2884 3475 3122 3366 
z
" transform="scale(0.015625)"/>
       <path id="DejaVuSans-6f" d="M 1959 3097 
Q 1497 3097 1228 2736 
Q 959 2375 959 1747 
Q 959 1119 1226 758 
Q 1494 397 1959 397 
Q 2419 397 2687 759 
Q 2956 1122 2956 1747 
Q 2956 2369 2687 2733 
Q 2419 3097 1959 3097 
z
M 1959 3584 
Q 2709 3584 3137 3096 
Q 3566 2609 3566 1747 
Q 3566 888 3137 398 
Q 2709 -91 1959 -91 
Q 1206 -91 779 398 
Q 353 888 353 1747 
Q 353 2609 779 3096 
Q 1206 3584 1959 3584 
z
" transform="scale(0.015625)"/>
       <path id="DejaVuSans-61" d="M 2194 1759 
Q 1497 1759 1228 1600 
Q 959 1441 959 1056 
Q 959 750 1161 570 
Q 1363 391 1709 391 
Q 2188 391 2477 730 
Q 2766 1069 2766 1631 
L 2766 1759 
L 2194 1759 
z
M 3341 1997 
L 3341 0 
L 2766 0 
L 2766 531 
Q 2569 213 2275 61 
Q 1981 -91 1556 -91 
Q 1019 -91 701 211 
Q 384 513 384 1019 
Q 384 1609 779 1909 
Q 1175 2209 1959 2209 
L 2766 2209 
L 2766 2266 
Q 2766 2663 2505 2880 
Q 2244 3097 1772 3097 
Q 1472 3097 1187 3025 
Q 903 2953 641 2809 
L 641 3341 
Q 956 3463 1253 3523 
Q 1550 3584 1831 3584 
Q 2591 3584 2966 3190 
Q 3341 2797 3341 1997 
z
" transform="scale(0.015625)"/>
       <path id="DejaVuSans-72" d="M 2631 2963 
Q 2534 3019 2420 3045 
Q 2306 3072 2169 3072 
Q 1681 3072 1420 2755 
Q 1159 2438 1159 1844 
L 1159 0 
L 581 0 
L 581 3500 
L 1159 3500 
L 1159 2956 
Q 1341 3275 1631 3429 
Q 1922 3584 2338 3584 
Q 2397 3584 2469 3576 
Q 2541 3569 2628 3553 
L 2631 2963 
z
" transform="scale(0.015625)"/>
      </defs>
      <use xlink:href="#DejaVuSans-4d"/>
      <use xlink:href="#DejaVuSans-69" transform="translate(86.279297 0)"/>
      <use xlink:href="#DejaVuSans-6e" transform="translate(114.0625 0)"/>
      <use xlink:href="#DejaVuSans-75" transform="translate(177.441406 0)"/>
      <use xlink:href="#DejaVuSans-74" transform="translate(240.820312 0)"/>
      <use xlink:href="#DejaVuSans-65" transform="translate(280.029297 0)"/>
      <use xlink:href="#DejaVuSans-73" transform="translate(341.552734 0)"/>
      <use xlink:href="#DejaVuSans-20" transform="translate(393.652344 0)"/>
      <use xlink:href="#DejaVuSans-73" transform="translate(425.439453 0)"/>
      <use xlink:href="#DejaVuSans-69" transform="translate(477.539062 0)"/>
      <use xlink:href="#DejaVuSans-6e" transform="translate(505.322266 0)"/>
      <use xlink:href="#DejaVuSans-63" transform="translate(568.701172 0)"/>
      <use xlink:href="#DejaVuSans-65" transform="translate(623.681641 0)"/>
      <use xlink:href="#DejaVuSans-20" transform="translate(685.205078 0)"/>
      <use xlink:href="#DejaVuSans-73" transform="translate(716.992188 0)"/>
      <use xlink:href="#DejaVuSans-65" transform="translate(769.091797 0)"/>
      <use xlink:href="#DejaVuSans-73" transform="translate(830.615234 0)"/>
      <use xlink:href="#DejaVuSans-73" transform="translate(882.714844 0)"/>
      <use xlink:href="#DejaVuSans-69" transform="translate(934.814453 0)"/>
      <use xlink:href="#DejaVuSans-6f" transform="translate(962.597656 0)"/>
      <use xlink:href="#DejaVuSans-6e" transform="translate(1023.779297 0)"/>
      <use xlink:href="#DejaVuSans-20" transform="translate(1087.158203 0)"/>
      <use xlink:href="#DejaVuSans-73" transform="translate(1118.945312 0)"/>
      <use xlink:href="#DejaVuSans-74" transform="translate(1171.044922 0)"/>
      <use xlink:href="#DejaVuSans-61" transform="translate(1210.253906 0)"/>
      <use xlink:href="#DejaVuSans-72" transform="translate(1271.533203 0)"/>
      <use xlink:href="#DejaVuSans-74" transform="translate(1312.646484 0)"/>
     </g>
    </g>
   </g>
   <g id="matplotlib.axis_2">
    <g id="ytick_1">
     <g id="line2d_15">
      <path d="M 39.330625 226.674745 
L 935.305625 226.674745 
" clip-path="url(#pb0fa26fedd)" style="fill: none; stroke: #eef2f7; stroke-opacity: 0.25; stroke-width: 0.55; stroke-linecap: square"/>
     </g>
     <g id="line2d_16">
      <defs>
       <path id="m7c603b0353" d="M 0 0 
L -3.5 0 
" style="stroke: #000000; stroke-width: 0.8"/>
      </defs>
      <g>
       <use xlink:href="#m7c603b0353" x="39.330625" y="226.674745" style="stroke: #000000; stroke-width: 0.8"/>
      </g>
     </g>
     <g id="text_9">
      <!-- 0 -->
      <g transform="translate(26.604375 230.094042) scale(0.09 -0.09)">
       <use xlink:href="#DejaVuSans-30"/>
      </g>
     </g>
    </g>
    <g id="ytick_2">
     <g id="line2d_17">
      <path d="M 39.330625 199.908615 
L 935.305625 199.908615 
" clip-path="url(#pb0fa26fedd)" style="fill: none; stroke: #eef2f7; stroke-opacity: 0.25; stroke-width: 0.55; stroke-linecap: square"/>
     </g>
     <g id="line2d_18">
      <g>
       <use xlink:href="#m7c603b0353" x="39.330625" y="199.908615" style="stroke: #000000; stroke-width: 0.8"/>
      </g>
     </g>
     <g id="text_10">
      <!-- 2 -->
      <g transform="translate(26.604375 203.327912) scale(0.09 -0.09)">
       <use xlink:href="#DejaVuSans-32"/>
      </g>
     </g>
    </g>
    <g id="ytick_3">
     <g id="line2d_19">
      <path d="M 39.330625 173.142486 
L 935.305625 173.142486 
" clip-path="url(#pb0fa26fedd)" style="fill: none; stroke: #eef2f7; stroke-opacity: 0.25; stroke-width: 0.55; stroke-linecap: square"/>
     </g>
     <g id="line2d_20">
      <g>
       <use xlink:href="#m7c603b0353" x="39.330625" y="173.142486" style="stroke: #000000; stroke-width: 0.8"/>
      </g>
     </g>
     <g id="text_11">
      <!-- 4 -->
      <g transform="translate(26.604375 176.561783) scale(0.09 -0.09)">
       <defs>
        <path id="DejaVuSans-34" d="M 2419 4116 
L 825 1625 
L 2419 1625 
L 2419 4116 
z
M 2253 4666 
L 3047 4666 
L 3047 1625 
L 3713 1625 
L 3713 1100 
L 3047 1100 
L 3047 0 
L 2419 0 
L 2419 1100 
L 313 1100 
L 313 1709 
L 2253 4666 
z
" transform="scale(0.015625)"/>
       </defs>
       <use xlink:href="#DejaVuSans-34"/>
      </g>
     </g>
    </g>
    <g id="ytick_4">
     <g id="line2d_21">
      <path d="M 39.330625 146.376356 
L 935.305625 146.376356 
" clip-path="url(#pb0fa26fedd)" style="fill: none; stroke: #eef2f7; stroke-opacity: 0.25; stroke-width: 0.55; stroke-linecap: square"/>
     </g>
     <g id="line2d_22">
      <g>
       <use xlink:href="#m7c603b0353" x="39.330625" y="146.376356" style="stroke: #000000; stroke-width: 0.8"/>
      </g>
     </g>
     <g id="text_12">
      <!-- 6 -->
      <g transform="translate(26.604375 149.795653) scale(0.09 -0.09)">
       <defs>
        <path id="DejaVuSans-36" d="M 2113 2584 
Q 1688 2584 1439 2293 
Q 1191 2003 1191 1497 
Q 1191 994 1439 701 
Q 1688 409 2113 409 
Q 2538 409 2786 701 
Q 3034 994 3034 1497 
Q 3034 2003 2786 2293 
Q 2538 2584 2113 2584 
z
M 3366 4563 
L 3366 3988 
Q 3128 4100 2886 4159 
Q 2644 4219 2406 4219 
Q 1781 4219 1451 3797 
Q 1122 3375 1075 2522 
Q 1259 2794 1537 2939 
Q 1816 3084 2150 3084 
Q 2853 3084 3261 2657 
Q 3669 2231 3669 1497 
Q 3669 778 3244 343 
Q 2819 -91 2113 -91 
Q 1303 -91 875 529 
Q 447 1150 447 2328 
Q 447 3434 972 4092 
Q 1497 4750 2381 4750 
Q 2619 4750 2861 4703 
Q 3103 4656 3366 4563 
z
" transform="scale(0.015625)"/>
       </defs>
       <use xlink:href="#DejaVuSans-36"/>
      </g>
     </g>
    </g>
    <g id="ytick_5">
     <g id="line2d_23">
      <path d="M 39.330625 119.610226 
L 935.305625 119.610226 
" clip-path="url(#pb0fa26fedd)" style="fill: none; stroke: #eef2f7; stroke-opacity: 0.25; stroke-width: 0.55; stroke-linecap: square"/>
     </g>
     <g id="line2d_24">
      <g>
       <use xlink:href="#m7c603b0353" x="39.330625" y="119.610226" style="stroke: #000000; stroke-width: 0.8"/>
      </g>
     </g>
     <g id="text_13">
      <!-- 8 -->
      <g transform="translate(26.604375 123.029523) scale(0.09 -0.09)">
       <defs>
        <path id="DejaVuSans-38" d="M 2034 2216 
Q 1584 2216 1326 1975 
Q 1069 1734 1069 1313 
Q 1069 891 1326 650 
Q 1584 409 2034 409 
Q 2484 409 2743 651 
Q 3003 894 3003 1313 
Q 3003 1734 2745 1975 
Q 2488 2216 2034 2216 
z
M 1403 2484 
Q 997 2584 770 2862 
Q 544 3141 544 3541 
Q 544 4100 942 4425 
Q 1341 4750 2034 4750 
Q 2731 4750 3128 4425 
Q 3525 4100 3525 3541 
Q 3525 3141 3298 2862 
Q 3072 2584 2669 2484 
Q 3125 2378 3379 2068 
Q 3634 1759 3634 1313 
Q 3634 634 3220 271 
Q 2806 -91 2034 -91 
Q 1263 -91 848 271 
Q 434 634 434 1313 
Q 434 1759 690 2068 
Q 947 2378 1403 2484 
z
M 1172 3481 
Q 1172 3119 1398 2916 
Q 1625 2713 2034 2713 
Q 2441 2713 2670 2916 
Q 2900 3119 2900 3481 
Q 2900 3844 2670 4047 
Q 2441 4250 2034 4250 
Q 1625 4250 1398 4047 
Q 1172 3844 1172 3481 
z
" transform="scale(0.015625)"/>
       </defs>
       <use xlink:href="#DejaVuSans-38"/>
      </g>
     </g>
    </g>
    <g id="ytick_6">
     <g id="line2d_25">
      <path d="M 39.330625 92.844097 
L 935.305625 92.844097 
" clip-path="url(#pb0fa26fedd)" style="fill: none; stroke: #eef2f7; stroke-opacity: 0.25; stroke-width: 0.55; stroke-linecap: square"/>
     </g>
     <g id="line2d_26">
      <g>
       <use xlink:href="#m7c603b0353" x="39.330625" y="92.844097" style="stroke: #000000; stroke-width: 0.8"/>
      </g>
     </g>
     <g id="text_14">
      <!-- 10 -->
      <g transform="translate(20.878125 96.263394) scale(0.09 -0.09)">
       <use xlink:href="#DejaVuSans-31"/>
       <use xlink:href="#DejaVuSans-30" transform="translate(63.623047 0)"/>
      </g>
     </g>
    </g>
    <g id="ytick_7">
     <g id="line2d_27">
      <path d="M 39.330625 66.077967 
L 935.305625 66.077967 
" clip-path="url(#pb0fa26fedd)" style="fill: none; stroke: #eef2f7; stroke-opacity: 0.25; stroke-width: 0.55; stroke-linecap: square"/>
     </g>
     <g id="line2d_28">
      <g>
       <use xlink:href="#m7c603b0353" x="39.330625" y="66.077967" style="stroke: #000000; stroke-width: 0.8"/>
      </g>
     </g>
     <g id="text_15">
      <!-- 12 -->
      <g transform="translate(20.878125 69.497264) scale(0.09 -0.09)">
       <use xlink:href="#DejaVuSans-31"/>
       <use xlink:href="#DejaVuSans-32" transform="translate(63.623047 0)"/>
      </g>
     </g>
    </g>
    <g id="ytick_8">
     <g id="line2d_29">
      <path d="M 39.330625 39.311837 
L 935.305625 39.311837 
" clip-path="url(#pb0fa26fedd)" style="fill: none; stroke: #eef2f7; stroke-opacity: 0.25; stroke-width: 0.55; stroke-linecap: square"/>
     </g>
     <g id="line2d_30">
      <g>
       <use xlink:href="#m7c603b0353" x="39.330625" y="39.311837" style="stroke: #000000; stroke-width: 0.8"/>
      </g>
     </g>
     <g id="text_16">
      <!-- 14 -->
      <g transform="translate(20.878125 42.731134) scale(0.09 -0.09)">
       <use xlink:href="#DejaVuSans-31"/>
       <use xlink:href="#DejaVuSans-34" transform="translate(63.623047 0)"/>
      </g>
     </g>
    </g>
    <g id="text_17">
     <!-- EDA (microsiemens) -->
     <g transform="translate(14.798438 173.642448) rotate(-90) scale(0.1 -0.1)">
      <defs>
       <path id="DejaVuSans-45" d="M 628 4666 
L 3578 4666 
L 3578 4134 
L 1259 4134 
L 1259 2753 
L 3481 2753 
L 3481 2222 
L 1259 2222 
L 1259 531 
L 3634 531 
L 3634 0 
L 628 0 
L 628 4666 
z
" transform="scale(0.015625)"/>
       <path id="DejaVuSans-44" d="M 1259 4147 
L 1259 519 
L 2022 519 
Q 2988 519 3436 956 
Q 3884 1394 3884 2338 
Q 3884 3275 3436 3711 
Q 2988 4147 2022 4147 
L 1259 4147 
z
M 628 4666 
L 1925 4666 
Q 3281 4666 3915 4102 
Q 4550 3538 4550 2338 
Q 4550 1131 3912 565 
Q 3275 0 1925 0 
L 628 0 
L 628 4666 
z
" transform="scale(0.015625)"/>
       <path id="DejaVuSans-41" d="M 2188 4044 
L 1331 1722 
L 3047 1722 
L 2188 4044 
z
M 1831 4666 
L 2547 4666 
L 4325 0 
L 3669 0 
L 3244 1197 
L 1141 1197 
L 716 0 
L 50 0 
L 1831 4666 
z
" transform="scale(0.015625)"/>
       <path id="DejaVuSans-28" d="M 1984 4856 
Q 1566 4138 1362 3434 
Q 1159 2731 1159 2009 
Q 1159 1288 1364 580 
Q 1569 -128 1984 -844 
L 1484 -844 
Q 1016 -109 783 600 
Q 550 1309 550 2009 
Q 550 2706 781 3412 
Q 1013 4119 1484 4856 
L 1984 4856 
z
" transform="scale(0.015625)"/>
       <path id="DejaVuSans-6d" d="M 3328 2828 
Q 3544 3216 3844 3400 
Q 4144 3584 4550 3584 
Q 5097 3584 5394 3201 
Q 5691 2819 5691 2113 
L 5691 0 
L 5113 0 
L 5113 2094 
Q 5113 2597 4934 2840 
Q 4756 3084 4391 3084 
Q 3944 3084 3684 2787 
Q 3425 2491 3425 1978 
L 3425 0 
L 2847 0 
L 2847 2094 
Q 2847 2600 2669 2842 
Q 2491 3084 2119 3084 
Q 1678 3084 1418 2786 
Q 1159 2488 1159 1978 
L 1159 0 
L 581 0 
L 581 3500 
L 1159 3500 
L 1159 2956 
Q 1356 3278 1631 3431 
Q 1906 3584 2284 3584 
Q 2666 3584 2933 3390 
Q 3200 3197 3328 2828 
z
" transform="scale(0.015625)"/>
       <path id="DejaVuSans-29" d="M 513 4856 
L 1013 4856 
Q 1481 4119 1714 3412 
Q 1947 2706 1947 2009 
Q 1947 1309 1714 600 
Q 1481 -109 1013 -844 
L 513 -844 
Q 928 -128 1133 580 
Q 1338 1288 1338 2009 
Q 1338 2731 1133 3434 
Q 928 4138 513 4856 
z
" transform="scale(0.015625)"/>
      </defs>
      <use xlink:href="#DejaVuSans-45"/>
      <use xlink:href="#DejaVuSans-44" transform="translate(63.183594 0)"/>
      <use xlink:href="#DejaVuSans-41" transform="translate(138.435547 0)"/>
      <use xlink:href="#DejaVuSans-20" transform="translate(206.84375 0)"/>
      <use xlink:href="#DejaVuSans-28" transform="translate(238.630859 0)"/>
      <use xlink:href="#DejaVuSans-6d" transform="translate(277.644531 0)"/>
      <use xlink:href="#DejaVuSans-69" transform="translate(375.056641 0)"/>
      <use xlink:href="#DejaVuSans-63" transform="translate(402.839844 0)"/>
      <use xlink:href="#DejaVuSans-72" transform="translate(457.820312 0)"/>
      <use xlink:href="#DejaVuSans-6f" transform="translate(496.683594 0)"/>
      <use xlink:href="#DejaVuSans-73" transform="translate(557.865234 0)"/>
      <use xlink:href="#DejaVuSans-69" transform="translate(609.964844 0)"/>
      <use xlink:href="#DejaVuSans-65" transform="translate(637.748047 0)"/>
      <use xlink:href="#DejaVuSans-6d" transform="translate(699.271484 0)"/>
      <use xlink:href="#DejaVuSans-65" transform="translate(796.683594 0)"/>
      <use xlink:href="#DejaVuSans-6e" transform="translate(858.207031 0)"/>
      <use xlink:href="#DejaVuSans-73" transform="translate(921.585938 0)"/>
      <use xlink:href="#DejaVuSans-29" transform="translate(973.685547 0)"/>
     </g>
    </g>
   </g>
   <g id="line2d_31">
    <path d="M 56.560913 179.870019 
L 56.848757 177.194744 
L 57.1366 171.885414 
L 57.424443 174.192923 
L 57.712286 174.192923 
L 58.000129 161.715757 
L 58.287972 162.573478 
L 59.151501 153.016364 
L 59.439345 147.318925 
L 59.727188 154.874736 
L 60.015031 147.318925 
L 60.302874 153.669859 
L 60.87856 155.834569 
L 61.166403 156.365476 
L 61.454246 148.23794 
L 61.742089 156.487931 
L 62.029933 158.652641 
L 62.605619 160.919331 
L 63.181305 163.553654 
L 63.756991 167.92376 
L 64.044834 167.270265 
L 64.908364 175.173098 
L 65.196207 177.296857 
L 65.48405 178.399621 
L 65.771893 180.891013 
L 66.059736 180.503038 
L 66.347579 180.503038 
L 66.635422 184.301285 
L 68.650324 197.452422 
L 69.22601 200.372606 
L 70.08954 204.027923 
L 70.377383 204.518011 
L 70.953069 206.294612 
L 72.104441 208.602254 
L 72.967971 210.235925 
L 73.543657 211.379508 
L 73.8315 211.604076 
L 74.407186 212.339208 
L 74.695029 212.666022 
L 75.270715 213.523649 
L 75.846402 213.829974 
L 76.709931 215.300278 
L 77.285617 215.749534 
L 77.57346 216.117113 
L 77.861303 216.076268 
L 78.149147 216.300903 
L 78.43699 216.117113 
L 78.724833 215.463645 
L 79.012676 215.3207 
L 79.876205 216.137535 
L 80.164048 215.953746 
L 80.739735 215.912901 
L 81.315421 216.586792 
L 81.603264 214.993966 
L 81.891107 215.23901 
L 82.17895 215.259432 
L 82.466793 215.096065 
L 83.618166 215.300278 
L 84.193852 215.790379 
L 84.481695 215.831224 
L 85.057381 216.484692 
L 85.345224 216.443847 
L 86.496597 217.13816 
L 86.78444 217.117738 
L 87.360126 217.444472 
L 87.647969 217.607839 
L 88.223655 217.607839 
L 89.087185 218.138785 
L 89.950714 218.077518 
L 90.238557 218.240885 
L 90.814243 218.240885 
L 91.102086 218.424674 
L 91.677773 218.383843 
L 92.253459 218.404265 
L 92.541302 218.383843 
L 93.116988 218.914776 
L 93.404831 218.730999 
L 93.692674 218.751409 
L 93.980518 218.404265 
L 94.268361 218.588042 
L 94.556204 218.588042 
L 95.13189 218.914776 
L 95.419733 218.751409 
L 95.707576 218.383843 
L 96.283262 218.669732 
L 96.571106 218.730999 
L 96.858949 218.54721 
L 97.146792 217.281105 
L 97.722478 217.097315 
L 98.010321 215.769956 
L 98.298164 215.749534 
L 98.586007 215.606589 
L 98.87385 214.667232 
L 99.161693 212.420978 
L 99.449537 211.930756 
L 99.73738 211.07317 
L 100.025223 210.909762 
L 100.313066 211.052694 
L 100.600909 211.052694 
L 101.176595 211.644894 
L 101.464438 212.216752 
L 102.327968 212.666022 
L 102.903654 213.339873 
L 103.191497 213.360282 
L 104.055026 214.483442 
L 104.918556 215.790379 
L 105.782085 216.300903 
L 106.069928 216.300903 
L 106.645614 216.586792 
L 108.660516 216.933948 
L 108.948359 217.219851 
L 109.236202 217.076893 
L 109.524045 217.24026 
L 110.099732 217.219851 
L 110.387575 217.566994 
L 110.675418 217.444472 
L 111.251104 217.587417 
L 111.82679 217.607839 
L 112.114633 217.791629 
L 112.402476 217.771206 
L 113.266006 218.077518 
L 113.553849 217.709952 
L 113.841692 218.077518 
L 114.129535 218.077518 
L 114.417378 218.261307 
L 114.993064 218.28173 
L 115.280908 218.424674 
L 115.856594 218.424674 
L 117.583652 218.383843 
L 117.871496 218.567632 
L 118.159339 218.424674 
L 119.310711 218.669732 
L 119.886397 218.567632 
L 120.462083 218.608464 
L 120.749927 218.751409 
L 121.613456 218.588042 
L 122.189142 218.751409 
L 122.764828 218.730999 
L 123.052671 218.54721 
L 123.916201 218.853521 
L 124.204044 218.751409 
L 125.067573 219.057734 
L 126.506789 219.057734 
L 126.794632 219.3232 
L 127.082475 219.282355 
L 127.370318 219.078156 
L 128.233847 219.078156 
L 128.521691 219.200678 
L 128.809534 219.200678 
L 129.097377 219.078156 
L 129.673063 219.261932 
L 130.536592 219.261932 
L 130.824435 219.078156 
L 132.551494 219.057734 
L 132.839337 219.200678 
L 133.702866 218.833099 
L 134.566396 219.057734 
L 135.429925 218.730999 
L 136.005611 218.792254 
L 136.293454 218.935198 
L 136.869141 218.914776 
L 137.156984 219.098565 
L 137.73267 219.098565 
L 138.308356 219.078156 
L 138.596199 218.914776 
L 138.884042 218.914776 
L 139.459729 218.649309 
L 139.747572 219.078156 
L 140.611101 218.976043 
L 140.898944 219.098565 
L 141.186787 219.078156 
L 141.47463 218.812676 
L 141.762474 218.771831 
L 142.050317 218.955621 
L 143.201689 218.710577 
L 143.777375 218.751409 
L 144.065218 218.588042 
L 144.353061 219.118988 
L 144.640905 218.751409 
L 145.216591 218.608464 
L 145.504434 218.28173 
L 147.231493 218.261307 
L 148.095022 218.200053 
L 148.382865 218.138785 
L 148.670708 218.200053 
L 148.958551 218.016263 
L 149.246394 217.50574 
L 149.534237 217.403627 
L 149.822081 217.954996 
L 150.109924 217.403627 
L 150.397767 217.587417 
L 151.549139 217.117738 
L 152.124825 216.954371 
L 152.700512 216.627637 
L 152.988355 216.791004 
L 153.276198 216.54596 
L 153.564041 216.607214 
L 153.851884 215.810801 
L 154.139727 215.50449 
L 155.003256 215.606589 
L 155.578943 215.810801 
L 156.154629 216.157958 
L 157.881688 216.811426 
L 158.169531 216.729736 
L 158.457374 216.913526 
L 159.03306 216.913526 
L 159.320903 217.158583 
L 160.184432 217.097315 
L 160.472276 217.526162 
L 161.047962 217.097315 
L 161.335805 217.24026 
L 162.487177 217.281105 
L 163.63855 217.607839 
L 163.926393 217.444472 
L 164.214236 217.587417 
L 164.502079 217.383218 
L 166.804824 217.607839 
L 167.956196 217.485317 
L 168.244039 217.709952 
L 168.531883 217.750784 
L 168.819726 217.628262 
L 169.683255 217.587417 
L 169.971098 217.750784 
L 170.258941 217.709952 
L 170.546784 217.444472 
L 170.834627 217.383218 
L 171.122471 217.076893 
L 171.410314 214.891853 
L 171.698157 214.503865 
L 171.986 214.483442 
L 172.273843 214.340498 
L 172.561686 213.360282 
L 172.849529 213.217404 
L 173.137372 212.666022 
L 173.425215 212.359684 
L 173.713059 212.237095 
L 174.000902 212.339208 
L 174.288745 212.196276 
L 174.576588 212.339208 
L 174.864431 212.686364 
L 175.152274 212.70684 
L 175.72796 213.523649 
L 176.015803 212.829295 
L 176.303647 212.523091 
L 176.59149 212.666022 
L 177.455019 213.544071 
L 177.742862 213.523649 
L 178.030705 213.850396 
L 178.318548 213.829974 
L 178.606391 214.177131 
L 179.469921 214.626387 
L 179.757764 215.014389 
L 180.33345 215.177756 
L 180.621293 215.627012 
L 180.909136 215.279855 
L 181.196979 215.484067 
L 181.484822 215.484067 
L 181.772666 215.627012 
L 182.060509 215.402377 
L 182.636195 215.790379 
L 182.924038 215.810801 
L 183.499724 215.463645 
L 183.787567 215.13691 
L 184.07541 214.177131 
L 184.651097 214.401752 
L 185.226783 214.136285 
L 186.090312 214.646809 
L 186.378155 214.626387 
L 186.665998 214.340498 
L 186.953842 214.320075 
L 187.241685 214.136285 
L 187.529528 214.340498 
L 188.105214 214.320075 
L 189.544429 215.3207 
L 190.407959 215.443222 
L 190.983645 215.810801 
L 191.271488 215.810801 
L 191.847174 215.974168 
L 192.135017 215.810801 
L 192.422861 214.993966 
L 192.710704 212.502615 
L 193.574233 198.228372 
L 193.862076 195.982024 
L 195.013449 198.759278 
L 195.301292 199.555704 
L 195.589135 186.833495 
L 195.876978 190.733855 
L 196.452664 192.857614 
L 196.740507 179.114411 
L 197.02835 172.232571 
L 197.316193 119.566865 
L 197.89188 135.10728 
L 199.618938 155.344348 
L 201.058154 173.539427 
L 202.209526 185.526505 
L 202.785212 190.407175 
L 203.073056 190.52963 
L 204.800114 199.106435 
L 205.087957 199.739587 
L 206.815016 204.96728 
L 207.102859 205.498186 
L 207.390702 205.641117 
L 207.678545 205.334913 
L 208.542075 205.784182 
L 209.117761 206.355907 
L 209.405604 206.110863 
L 209.693447 206.27427 
L 209.98129 207.131857 
L 210.269133 207.111515 
L 210.556976 186.629269 
L 210.844819 185.975774 
L 211.132663 185.975774 
L 211.420506 186.322931 
L 211.996192 188.26294 
L 214.298937 198.555052 
L 215.450309 202.332958 
L 216.313839 204.660942 
L 216.601682 205.15103 
L 217.465211 207.111515 
L 218.616583 208.888117 
L 220.055799 210.052042 
L 220.343642 210.419675 
L 220.631485 210.501311 
L 220.919328 210.930238 
L 221.495015 211.216101 
L 221.782858 210.031699 
L 222.358544 210.378856 
L 222.646387 210.848468 
L 222.93423 210.950581 
L 223.797759 211.542781 
L 224.085602 211.501963 
L 224.949132 212.012527 
L 225.524818 212.196276 
L 225.812661 212.380026 
L 226.100504 212.237095 
L 226.388347 212.543433 
L 226.964034 212.829295 
L 227.827563 213.217404 
L 228.115406 213.15611 
L 228.403249 213.462395 
L 228.978935 213.217404 
L 229.266778 213.687016 
L 230.130308 213.687016 
L 230.418151 213.809551 
L 230.705994 213.646184 
L 231.569523 214.013764 
L 231.857366 213.972918 
L 232.14521 214.258807 
L 232.720896 214.136285 
L 233.296582 214.360907 
L 234.447954 214.299653 
L 234.735797 214.503865 
L 236.175013 214.483442 
L 236.462856 214.667232 
L 237.614229 214.810176 
L 237.902072 214.953121 
L 238.189915 214.953121 
L 238.477758 215.218587 
L 239.341287 215.157333 
L 239.62913 215.3207 
L 240.204817 215.279855 
L 240.49266 215.647434 
L 240.780503 215.3207 
L 241.068346 215.279855 
L 241.356189 215.484067 
L 241.644032 215.443222 
L 241.931875 215.545321 
L 242.219718 215.279855 
L 242.507561 215.279855 
L 242.795405 215.443222 
L 243.083248 215.300278 
L 243.371091 214.667232 
L 243.946777 214.687654 
L 244.23462 214.789754 
L 244.522463 214.340498 
L 244.810306 213.196928 
L 245.098149 208.908459 
L 245.673836 207.581126 
L 245.961679 200.719763 
L 246.249522 189.590272 
L 246.537365 189.56993 
L 246.825208 189.386047 
L 247.113051 190.060018 
L 247.400894 191.223943 
L 247.97658 192.735159 
L 248.264424 193.837923 
L 248.552267 193.858266 
L 248.84011 194.021673 
L 249.127953 192.42882 
L 249.415796 182.361276 
L 249.991482 180.911355 
L 250.279325 182.381752 
L 250.567168 170.905105 
L 250.855012 165.820343 
L 251.718541 172.824772 
L 253.157756 183.382404 
L 253.4456 183.688609 
L 254.309129 188.242598 
L 254.884815 189.774156 
L 255.172658 191.244419 
L 255.460501 187.446172 
L 256.036187 189.590272 
L 256.324031 189.733204 
L 256.611874 190.52963 
L 257.18756 179.441091 
L 257.475403 154.527579 
L 258.338932 163.410722 
L 258.626775 155.814093 
L 259.202462 162.410071 
L 259.490305 164.002923 
L 259.778148 166.963926 
L 260.065991 164.86051 
L 260.353834 143.377747 
L 260.92952 154.650034 
L 261.79305 166.290089 
L 262.080893 164.656418 
L 262.368736 124.447535 
L 262.656579 140.927174 
L 263.232265 152.219938 
L 264.383638 169.108161 
L 265.247167 179.277684 
L 265.53501 182.034596 
L 265.822853 183.035247 
L 266.974226 189.590272 
L 267.262069 187.446172 
L 267.549912 183.954129 
L 267.837755 185.322279 
L 268.413441 176.418794 
L 268.701284 177.133583 
L 268.989127 176.765951 
L 269.27697 177.460264 
L 269.564814 179.093935 
L 269.852657 158.121601 
L 270.1405 158.611823 
L 270.716186 163.859992 
L 271.867558 173.662016 
L 272.155402 174.846418 
L 273.306774 183.13736 
L 273.594617 165.146506 
L 273.88246 165.146506 
L 274.458146 170.496788 
L 274.74599 148.442166 
L 275.033833 148.42169 
L 275.609519 155.181074 
L 276.185205 160.51088 
L 277.912264 178.297508 
L 278.48795 182.892316 
L 278.775793 182.524683 
L 279.639322 187.466514 
L 280.502852 191.06067 
L 280.790695 191.530282 
L 281.078538 190.713513 
L 281.366381 191.530282 
L 281.654224 191.714031 
L 284.244812 197.636171 
L 285.108341 198.943161 
L 285.396185 184.68926 
L 285.684028 182.340934 
L 285.971871 182.504207 
L 286.8354 185.159006 
L 287.123243 184.893486 
L 287.986773 188.487642 
L 288.562459 189.48816 
L 288.850302 190.182473 
L 289.138145 191.223943 
L 289.425988 190.774674 
L 289.713831 191.407826 
L 290.001674 191.714031 
L 290.57736 193.674516 
L 290.865204 191.223943 
L 291.153047 190.427517 
L 291.44089 191.019718 
L 291.728733 190.897263 
L 292.592262 193.65404 
L 292.880105 194.36883 
L 293.167948 187.507332 
L 293.743635 151.076488 
L 294.607164 158.285009 
L 294.895007 157.774445 
L 295.18285 159.55118 
L 296.04638 167.168152 
L 296.622066 170.905105 
L 296.909909 172.702183 
L 297.197752 172.988045 
L 297.773438 176.561725 
L 298.061281 143.03059 
L 298.636968 151.893257 
L 300.939712 178.420097 
L 302.091085 184.975123 
L 302.378928 184.995599 
L 302.666771 185.771549 
L 302.954614 186.95595 
L 303.242457 185.13853 
L 303.5303 184.95478 
L 303.818143 185.628618 
L 304.105987 186.7722 
L 304.39383 185.179348 
L 304.681673 185.383574 
L 304.969516 186.527157 
L 305.257359 186.996902 
L 306.984418 191.714031 
L 307.847947 193.674516 
L 308.13579 194.532237 
L 308.711476 195.491936 
L 308.999319 188.732686 
L 309.287163 190.407175 
L 309.862849 190.693037 
L 310.438535 192.061188 
L 311.014221 193.204771 
L 311.302064 193.796971 
L 311.589907 194.675168 
L 311.877751 195.103961 
L 312.453437 196.349657 
L 313.029123 197.125607 
L 313.316966 197.248196 
L 313.604809 197.105265 
L 314.468338 198.289666 
L 315.044025 199.065616 
L 315.331868 199.086092 
L 315.619711 196.839745 
L 315.907554 196.77845 
L 316.195397 195.553231 
L 316.48324 191.38735 
L 316.771083 190.713513 
L 317.058926 190.427517 
L 317.34677 189.774156 
L 317.634613 189.896611 
L 317.922456 189.855792 
L 318.210299 190.060018 
L 318.498142 185.077235 
L 318.785985 183.178178 
L 319.073828 183.178178 
L 319.361671 183.504859 
L 319.649514 184.09706 
L 319.937358 183.668266 
L 320.513044 184.95478 
L 320.800887 185.199824 
L 321.08873 186.26177 
L 321.376573 186.486338 
L 321.664416 179.29816 
L 322.240102 180.911355 
L 322.815789 181.401577 
L 323.391475 183.91331 
L 323.967161 185.608275 
L 324.255004 185.649094 
L 324.83069 186.425044 
L 325.406377 182.87184 
L 325.982063 183.361928 
L 326.269906 182.728909 
L 326.557749 182.708433 
L 326.845592 177.296857 
L 327.133435 177.970828 
L 327.421278 176.684314 
L 327.709121 177.644013 
L 327.996965 176.970176 
L 328.284808 176.602543 
L 328.572651 172.681841 
L 328.860494 172.885932 
L 329.43618 164.880986 
L 329.724023 147.64574 
L 330.011866 141.948301 
L 330.299709 119.689454 
L 330.587553 107.150995 
L 330.875396 120.526699 
L 331.163239 119.954974 
L 331.738925 128.960572 
L 332.314611 135.331848 
L 332.890297 122.119551 
L 333.178141 128.450008 
L 333.753827 134.555898 
L 334.04167 133.698177 
L 334.329513 137.986647 
L 334.905199 143.091884 
L 335.193042 142.377095 
L 335.768728 148.585097 
L 336.056572 142.152527 
L 336.344415 147.053539 
L 336.632258 149.095661 
L 336.920101 152.26089 
L 337.207944 153.690335 
L 337.78363 158.611823 
L 338.071473 138.109102 
L 338.359316 136.005819 
L 338.64716 136.516249 
L 338.935003 139.579499 
L 339.222846 138.742121 
L 339.510689 139.293503 
L 340.086375 144.031242 
L 340.374218 146.828837 
L 340.662061 148.299235 
L 342.101277 159.918679 
L 342.676963 163.737403 
L 342.964806 162.716409 
L 343.252649 144.194515 
L 343.540492 146.33875 
L 343.828336 127.000087 
L 344.116179 134.698829 
L 344.691865 141.866531 
L 344.979708 143.500202 
L 345.267551 146.155 
L 345.555394 137.96617 
L 346.13108 127.347244 
L 346.418923 111.929552 
L 346.706767 123.058908 
L 346.99461 127.571945 
L 347.282453 92.40647 
L 347.570296 114.461628 
L 347.858139 121.323125 
L 348.145982 93.571065 
L 348.433825 91.325119 
L 348.721668 107.702377 
L 349.009511 117.422764 
L 349.297355 122.75257 
L 349.585198 89.344425 
L 349.873041 111.766144 
L 350.160884 99.002983 
L 350.448727 114.318696 
L 351.024413 125.366416 
L 351.312256 118.566347 
L 351.600099 120.771743 
L 351.887943 125.203143 
L 352.175786 107.80449 
L 352.463629 119.750749 
L 353.039315 129.614067 
L 353.327158 133.391839 
L 353.615001 98.655826 
L 353.902844 121.629463 
L 354.478531 133.555246 
L 355.054217 134.372148 
L 355.629903 142.193345 
L 356.781275 155.364824 
L 357.069119 141.090581 
L 357.356962 148.299235 
L 357.932648 154.34383 
L 358.220491 150.463812 
L 358.508334 148.23794 
L 358.796177 126.775519 
L 359.371863 140.1717 
L 360.235393 148.299235 
L 360.523236 146.502157 
L 360.811079 146.645088 
L 361.386765 151.852439 
L 361.674608 139.150572 
L 361.962451 136.557201 
L 362.250294 137.619014 
L 362.538138 141.744076 
L 362.825981 131.71735 
L 363.113824 138.476734 
L 363.68951 119.485229 
L 364.553039 137.210563 
L 365.416569 148.176646 
L 365.704412 134.372148 
L 365.992255 132.942703 
L 366.567941 141.376443 
L 366.855784 144.480511 
L 367.143627 144.153697 
L 367.43147 148.340053 
L 368.582843 158.815915 
L 368.870686 154.976849 
L 369.158529 158.754754 
L 369.446372 146.828837 
L 369.734215 150.565925 
L 370.022058 152.363002 
L 370.597745 157.97867 
L 370.885588 158.285009 
L 371.173431 160.082087 
L 371.461274 151.81162 
L 372.03696 156.447112 
L 372.324803 128.470484 
L 372.612646 137.782421 
L 373.188333 145.971251 
L 374.339705 157.611171 
L 375.491077 166.637246 
L 376.354607 172.130458 
L 376.64245 173.355678 
L 377.505979 178.052465 
L 379.808724 185.955432 
L 380.672253 188.467166 
L 382.687155 191.693689 
L 383.262841 192.347184 
L 383.550684 191.857096 
L 383.838528 177.582853 
L 384.126371 180.237518 
L 384.414214 181.56485 
L 384.702057 180.115063 
L 384.9899 170.088337 
L 385.277743 171.191101 
L 385.565586 171.109331 
L 385.853429 160.919331 
L 386.141272 163.533178 
L 386.429116 163.533178 
L 386.716959 164.186673 
L 387.292645 166.106206 
L 387.580488 166.637246 
L 388.156174 168.740528 
L 388.73186 165.983751 
L 389.59539 168.944754 
L 390.458919 174.172446 
L 390.746762 175.642844 
L 391.034605 175.826593 
L 391.322448 176.643496 
L 391.898135 179.543204 
L 392.185978 180.298812 
L 392.473821 180.707263 
L 392.761664 178.277166 
L 393.625193 180.891013 
L 394.200879 181.217693 
L 394.488723 181.728257 
L 394.776566 182.728909 
L 395.064409 182.87184 
L 395.352252 167.98492 
L 398.230683 180.891013 
L 398.518526 180.891013 
L 398.806369 173.559904 
L 399.094212 175.683662 
L 400.245585 180.400925 
L 400.533428 181.217693 
L 401.109114 183.545677 
L 401.396957 184.158354 
L 402.260487 186.792677 
L 402.54833 186.813019 
L 403.124016 188.426347 
L 403.411859 186.486338 
L 403.699702 179.318636 
L 404.275388 178.746778 
L 404.563231 179.114411 
L 404.851074 174.989349 
L 405.138918 172.702183 
L 405.426761 172.743001 
L 405.714604 172.60007 
L 406.002447 162.716409 
L 406.29029 164.35008 
L 406.578133 162.900159 
L 406.865976 164.043741 
L 407.153819 152.914251 
L 407.729506 156.140774 
L 408.017349 157.815397 
L 408.305192 158.632165 
L 408.880878 162.042438 
L 409.168721 163.553654 
L 409.456564 163.90081 
L 409.744407 160.408767 
L 410.89578 166.310431 
L 411.183623 167.47449 
L 411.471466 145.174825 
L 411.759309 142.111575 
L 412.047152 144.827668 
L 412.334995 144.153697 
L 412.910682 150.280062 
L 413.198525 152.730501 
L 413.486368 153.690335 
L 414.63774 162.226321 
L 414.925583 159.775748 
L 415.213426 161.715757 
L 415.501269 162.573478 
L 416.076956 163.737403 
L 416.364799 152.199595 
L 416.652642 145.174825 
L 417.228328 150.565925 
L 417.516171 151.260238 
L 417.804014 151.239762 
L 418.091857 152.240414 
L 418.379701 154.34383 
L 418.667544 155.507755 
L 420.106759 166.310431 
L 420.970289 170.251744 
L 421.258132 171.681189 
L 421.545975 172.375502 
L 422.121661 174.846418 
L 422.697347 176.602543 
L 422.98519 174.131628 
L 423.273033 170.435493 
L 423.560877 171.415669 
L 423.84872 168.761004 
L 424.136563 169.904587 
L 424.424406 170.415017 
L 424.712249 150.402517 
L 425.575778 153.547404 
L 427.014994 161.858688 
L 427.59068 165.350732 
L 429.029896 173.028997 
L 429.317739 174.172446 
L 429.893425 170.108679 
L 430.469111 171.456487 
L 431.044797 173.355678 
L 431.33264 173.212747 
L 431.620484 174.029515 
L 431.908327 174.417624 
L 432.484013 176.480088 
L 433.347542 179.196047 
L 433.923228 180.584674 
L 434.498915 181.585326 
L 434.786758 114.727148 
L 436.225973 138.987298 
L 436.513816 142.397571 
L 436.801659 131.942051 
L 437.089503 136.822588 
L 437.953032 143.80654 
L 439.680091 159.939155 
L 440.255777 164.513353 
L 440.54362 156.794269 
L 441.119306 162.083256 
L 442.846365 171.885414 
L 443.134208 171.374851 
L 443.422051 160.408767 
L 443.997737 163.696585 
L 444.28558 163.839516 
L 444.573423 140.273812 
L 444.861267 139.701954 
L 445.14911 141.825713 
L 445.436953 143.051066 
L 446.012639 147.135176 
L 446.876168 153.996673 
L 447.164011 152.056664 
L 448.027541 158.795573 
L 449.466756 167.617421 
L 449.754599 168.781346 
L 450.330286 171.783302 
L 450.618129 172.86559 
L 450.905972 172.722659 
L 451.481658 159.28566 
L 452.057344 161.388943 
L 452.345187 158.95898 
L 452.63303 152.730501 
L 453.208717 154.731805 
L 453.784403 140.437086 
L 454.072246 142.25464 
L 454.360089 143.214339 
L 454.935775 137.63949 
L 455.223618 136.536725 
L 456.087148 143.35727 
L 457.814206 156.835087 
L 458.677736 162.083256 
L 458.965579 131.697008 
L 459.541265 117.320652 
L 460.116951 127.653582 
L 461.268324 141.948301 
L 462.419696 151.586919 
L 462.707539 152.403821 
L 462.995382 137.782421 
L 463.571069 144.031242 
L 463.858912 145.991593 
L 464.146755 145.338098 
L 466.161657 158.754754 
L 466.4495 160.429243 
L 466.737343 161.286964 
L 467.313029 164.002923 
L 468.752245 169.945405 
L 471.918519 178.501734 
L 472.206362 178.930527 
L 472.494205 179.645317 
L 472.782048 179.931179 
L 473.645577 181.258512 
L 473.93342 179.073592 
L 474.221264 179.971998 
L 474.509107 179.257342 
L 474.79695 179.890361 
L 475.084793 179.257342 
L 475.372636 174.68301 
L 475.948322 176.582201 
L 476.811852 177.787078 
L 477.099695 166.494181 
L 477.387538 165.330255 
L 477.675381 166.1675 
L 477.963224 166.147024 
L 478.251067 165.820343 
L 478.53891 166.657588 
L 478.826753 167.127333 
L 479.114596 167.270265 
L 479.40244 162.675457 
L 479.690283 140.94765 
L 479.978126 142.724252 
L 480.265969 138.456258 
L 481.129498 144.317104 
L 481.417341 145.338098 
L 481.705184 126.346726 
L 481.993027 126.06073 
L 482.280871 89.037953 
L 482.568714 80.195762 
L 482.856557 98.165739 
L 483.432243 111.112649 
L 484.007929 119.44441 
L 484.295772 103.863177 
L 484.583615 107.681901 
L 485.159302 118.321303 
L 485.447145 120.118248 
L 486.310674 129.307729 
L 486.598517 129.491478 
L 487.462047 138.783073 
L 487.74989 140.743424 
L 488.613419 148.278759 
L 489.476948 154.548055 
L 491.204007 164.554305 
L 491.779693 167.494832 
L 493.506752 173.947879 
L 494.082438 175.806251 
L 494.658124 177.460264 
L 494.945967 176.623019 
L 495.809497 179.073592 
L 496.09734 179.604499 
L 496.385183 179.379797 
L 496.673026 179.420749 
L 497.248712 180.462219 
L 497.536555 181.074762 
L 497.824398 180.421267 
L 498.112242 176.296339 
L 498.400085 176.623019 
L 499.263614 178.787596 
L 499.551457 178.930527 
L 499.8393 175.091461 
L 500.127143 173.519085 
L 500.414986 174.458443 
L 500.70283 175.009825 
L 500.990673 175.091461 
L 501.566359 175.99 
L 501.854202 176.337157 
L 502.142045 175.683662 
L 502.429888 175.499913 
L 502.717731 174.519603 
L 503.005574 164.983099 
L 503.293418 151.750326 
L 503.869104 155.691505 
L 504.156947 157.223196 
L 504.44479 157.345651 
L 504.732633 155.528231 
L 505.020476 156.671814 
L 505.308319 148.789323 
L 505.884005 151.709507 
L 506.459692 152.465115 
L 507.323221 156.467588 
L 507.611064 155.957025 
L 508.18675 127.469833 
L 508.474593 122.568821 
L 508.762437 121.629463 
L 509.05028 118.647984 
L 509.338123 125.162325 
L 509.625966 128.307077 
L 509.913809 129.593591 
L 510.489495 134.882578 
L 510.777338 134.06581 
L 511.065181 120.240836 
L 511.640868 126.693883 
L 511.928711 101.943644 
L 512.216554 106.170819 
L 512.79224 118.13742 
L 513.080083 113.052658 
L 513.367926 116.524225 
L 513.655769 117.953671 
L 514.231456 123.222316 
L 514.519299 126.203795 
L 514.807142 98.798891 
L 515.094985 111.459806 
L 515.670671 121.241488 
L 515.958514 123.896153 
L 516.246357 117.851558 
L 516.5342 118.13742 
L 516.822044 118.811391 
L 517.39773 126.979745 
L 517.685573 114.727148 
L 517.973416 115.27853 
L 518.261259 119.70993 
L 518.549102 103.128045 
L 518.836945 103.413907 
L 519.124788 110.643038 
L 519.700475 100.309973 
L 519.988318 108.805141 
L 520.276161 112.072483 
L 520.564004 106.681383 
L 520.851847 76.069763 
L 521.13969 100.20786 
L 521.427533 108.376214 
L 521.715376 111.276057 
L 522.291063 95.776594 
L 522.578906 104.863829 
L 522.866749 101.474032 
L 523.442435 115.196893 
L 523.730278 117.994489 
L 524.018121 122.282958 
L 524.305964 73.109429 
L 524.593808 99.002983 
L 525.169494 119.934498 
L 525.457337 125.223485 
L 525.74518 128.164146 
L 526.033023 126.836814 
L 526.608709 137.333151 
L 527.760082 147.788671 
L 528.911454 155.017667 
L 529.199297 150.77015 
L 529.48714 131.288556 
L 529.774983 137.353628 
L 530.926356 150.443336 
L 532.653415 163.145202 
L 533.516944 167.801171 
L 534.668316 173.04934 
L 534.956159 173.376154 
L 535.531846 175.479437 
L 536.683218 179.29816 
L 537.834591 182.585978 
L 538.122434 183.014771 
L 538.410277 182.259163 
L 538.69812 183.035247 
L 538.985963 180.911355 
L 539.273806 177.827897 
L 539.561649 178.603847 
L 539.849492 178.624323 
L 540.137335 166.473838 
L 540.425178 161.470713 
L 540.713022 162.716409 
L 541.288708 163.880334 
L 541.576551 164.778873 
L 541.864394 162.900159 
L 542.152237 163.226839 
L 543.015766 166.330907 
L 543.30361 165.452711 
L 543.591453 154.85426 
L 543.879296 125.693231 
L 544.167139 136.005819 
L 544.454982 140.437086 
L 544.742825 142.111575 
L 545.318511 147.625264 
L 545.606354 149.769498 
L 545.894198 141.396919 
L 546.182041 145.685255 
L 546.757727 149.46316 
L 547.04557 148.115352 
L 547.621256 150.749674 
L 547.909099 152.77132 
L 548.196942 151.260238 
L 548.484786 150.749674 
L 548.772629 152.730501 
L 549.060472 150.586267 
L 549.348315 152.730501 
L 549.636158 145.031893 
L 549.924001 121.731576 
L 550.211844 120.93515 
L 550.499687 130.124497 
L 551.363217 139.967474 
L 551.938903 144.990941 
L 552.802432 151.750326 
L 553.090275 152.036188 
L 553.378118 154.139604 
L 553.665961 155.324006 
L 554.817334 161.899507 
L 555.105177 163.04309 
L 555.39302 150.137131 
L 555.680863 127.041039 
L 556.256549 138.946346 
L 556.832236 146.665564 
L 557.695765 155.140256 
L 557.983608 157.304833 
L 558.271451 156.794269 
L 558.559294 158.95898 
L 558.847137 159.939155 
L 559.422824 162.85934 
L 559.710667 141.417395 
L 559.99851 144.664261 
L 560.286353 146.359226 
L 560.574196 125.366416 
L 560.862039 128.980915 
L 561.149882 124.202491 
L 561.725568 133.269384 
L 563.164784 147.666082 
L 563.452627 148.176646 
L 563.74047 104.925123 
L 564.028313 118.688802 
L 564.604 129.940748 
L 565.179686 138.006989 
L 565.467529 138.599189 
L 565.755372 142.070756 
L 566.043215 143.704427 
L 566.331058 127.980397 
L 566.906744 136.720475 
L 567.482431 141.948301 
L 567.770274 144.031242 
L 568.34596 149.218116 
L 568.633803 122.75257 
L 568.921646 130.798469 
L 569.209489 135.168575 
L 569.497332 122.895501 
L 570.073019 132.554594 
L 570.648705 139.436434 
L 570.936548 141.887007 
L 571.224391 110.643038 
L 571.512234 115.217235 
L 572.08792 126.019911 
L 572.375763 129.164798 
L 572.663607 128.347896 
L 572.95145 131.901233 
L 573.239293 129.797817 
L 573.814979 135.352324 
L 574.102822 136.843064 
L 574.390665 134.698829 
L 574.678508 119.11773 
L 574.966351 123.896153 
L 575.254195 123.589815 
L 575.542038 127.490309 
L 575.829881 112.378821 
L 576.117724 116.238363 
L 576.405567 92.75443 
L 576.69341 109.295229 
L 576.981253 114.23706 
L 577.269096 101.126876 
L 577.556939 109.193116 
L 577.844783 113.726496 
L 578.132626 111.43933 
L 578.708312 85.851445 
L 578.996155 99.819885 
L 579.283998 105.905299 
L 579.571841 107.048882 
L 579.859684 112.562571 
L 580.147527 114.379991 
L 580.435371 102.331619 
L 580.723214 110.295881 
L 581.011057 89.3645 
L 581.2989 103.270976 
L 581.586743 110.765493 
L 581.874586 94.633011 
L 582.162429 97.369312 
L 582.450272 102.311277 
L 582.738115 109.642386 
L 583.025959 109.662728 
L 583.313802 90.895522 
L 583.601645 90.324066 
L 584.177331 111.459806 
L 584.465174 113.093477 
L 584.753017 117.483925 
L 585.04086 86.21948 
L 585.328703 103.904129 
L 585.616546 96.225863 
L 585.90439 92.75443 
L 586.192233 105.190643 
L 586.767919 115.074304 
L 587.055762 78.378342 
L 587.343605 102.617615 
L 587.919291 117.320652 
L 588.207134 121.772394 
L 588.494978 122.609639 
L 588.782821 121.466056 
L 589.070664 124.855986 
L 589.358507 123.242658 
L 589.64635 116.850906 
L 589.934193 118.607166 
L 590.509879 128.021215 
L 591.661252 136.700133 
L 591.949095 136.802245 
L 592.236938 139.232342 
L 592.524781 137.619014 
L 592.812624 138.742121 
L 593.963997 146.134524 
L 594.539683 149.177298 
L 594.827526 140.906831 
L 595.115369 127.020563 
L 595.403212 135.02551 
L 595.978898 141.560326 
L 596.554585 146.155 
L 597.705957 152.873433 
L 598.281643 109.764841 
L 598.857329 125.10103 
L 599.145173 123.058908 
L 599.433016 130.247086 
L 600.008702 137.659832 
L 600.296545 117.422764 
L 600.584388 117.014313 
L 600.872231 59.651419 
L 601.160074 91.222069 
L 601.447917 106.681383 
L 602.023604 122.875159 
L 602.59929 133.228566 
L 602.887133 137.455607 
L 603.174976 121.772394 
L 603.462819 58.570068 
L 603.750662 106.865132 
L 604.038505 118.484577 
L 605.189878 140.089929 
L 605.765564 147.033063 
L 606.053407 121.241488 
L 606.34125 124.713055 
L 606.629093 132.064507 
L 606.916936 130.594243 
L 607.20478 137.067631 
L 608.068309 147.012721 
L 608.643995 151.913733 
L 609.795368 159.122253 
L 610.371054 162.695933 
L 610.658897 163.063566 
L 611.522426 167.47449 
L 612.961642 173.192271 
L 613.249485 174.68301 
L 613.825171 176.010343 
L 614.113014 134.433309 
L 614.400857 114.216584 
L 614.6887 129.920406 
L 614.976544 137.333151 
L 615.264387 126.040388 
L 615.55223 133.330678 
L 615.840073 131.98287 
L 616.415759 141.53985 
L 616.703602 141.601145 
L 616.991445 135.045986 
L 617.279288 139.804067 
L 617.854975 144.010766 
L 618.142818 112.276708 
L 618.430661 97.553196 
L 619.006347 120.118248 
L 619.582033 132.125801 
L 620.157719 139.45691 
L 620.445563 90.140718 
L 620.733406 89.915882 
L 621.021249 109.131822 
L 621.596935 124.222834 
L 621.884778 117.974147 
L 622.172621 93.918222 
L 622.460464 110.969718 
L 623.036151 123.916629 
L 623.89968 136.536725 
L 624.475366 143.29611 
L 624.763209 143.908653 
L 625.051052 143.541154 
L 625.626739 148.830141 
L 625.914582 148.442166 
L 626.202425 151.21942 
L 627.353797 158.203372 
L 627.929483 161.429895 
L 628.217327 130.594243 
L 628.50517 139.90618 
L 629.368699 150.075837 
L 630.520071 158.448416 
L 630.807914 156.753451 
L 631.383601 159.101911 
L 632.534973 165.085212 
L 633.398502 168.801822 
L 633.974189 170.639719 
L 634.262032 156.651338 
L 634.837718 161.756576 
L 635.701247 166.473838 
L 635.98909 167.494832 
L 636.564777 169.945405 
L 636.85262 164.002923 
L 637.428306 167.351901 
L 637.716149 168.107509 
L 638.579678 171.252262 
L 639.443208 173.866242 
L 639.731051 174.029515 
L 640.018894 154.364172 
L 640.306737 158.305485 
L 640.59458 160.082087 
L 640.882423 159.591999 
L 643.473011 171.252262 
L 644.336541 174.254217 
L 644.912227 105.721549 
L 645.20007 122.568821 
L 645.775756 134.698829 
L 646.063599 137.476083 
L 646.639285 141.070239 
L 647.214972 145.971251 
L 647.502815 147.788671 
L 647.790658 147.155652 
L 648.078501 147.931602 
L 648.366344 140.723082 
L 648.654187 110.275405 
L 649.229873 126.571294 
L 650.093403 137.251515 
L 650.669089 142.417913 
L 650.956932 139.987816 
L 651.244775 130.635061 
L 651.820461 137.496559 
L 652.108304 140.314631 
L 652.396148 140.784242 
L 653.259677 147.952078 
L 653.54752 147.952078 
L 653.835363 141.356101 
L 654.123206 141.866531 
L 654.698892 145.971251 
L 654.986736 143.602314 
L 655.274579 132.411663 
L 656.425951 137.516901 
L 656.713794 138.14992 
L 657.001637 128.878936 
L 657.28948 129.328071 
L 657.577324 130.49213 
L 658.15301 136.14875 
L 658.440853 138.252033 
L 658.728696 138.946346 
L 659.016539 141.437737 
L 659.304382 142.356753 
L 659.592225 138.619666 
L 659.880068 140.927174 
L 660.167912 140.273812 
L 660.455755 142.397571 
L 660.743598 141.417395 
L 661.319284 89.01654 
L 661.607127 109.131822 
L 661.89497 111.112649 
L 662.182813 111.255581 
L 662.470656 108.805141 
L 663.046343 118.341646 
L 663.334186 121.425238 
L 663.622029 119.587341 
L 664.197715 125.039736 
L 665.061244 133.228566 
L 665.349087 114.522922 
L 665.636931 121.466056 
L 665.924774 116.197411 
L 666.212617 93.632359 
L 666.50046 96.205387 
L 666.788303 78.684814 
L 667.076146 87.505592 
L 667.363989 75.927903 
L 667.651832 96.797588 
L 667.939675 103.904129 
L 668.227519 79.521256 
L 668.515362 91.303706 
L 668.803205 87.710353 
L 669.091048 97.022156 
L 669.378891 98.145396 
L 669.666734 73.680886 
L 669.954577 84.770094 
L 670.24242 52.19839 
L 670.530263 90.365553 
L 670.818107 101.167694 
L 671.681636 118.198715 
L 671.969479 108.84596 
L 672.545165 121.302649 
L 672.833008 118.933846 
L 673.120851 123.426541 
L 673.408695 119.995792 
L 673.696538 119.975316 
L 673.984381 125.407369 
L 674.272224 128.000739 
L 674.560067 128.797165 
L 674.84791 132.064507 
L 675.135753 132.513776 
L 675.423596 131.921575 
L 675.711439 131.737826 
L 676.287126 137.782421 
L 677.726341 146.665564 
L 678.014184 147.114834 
L 678.302027 147.788671 
L 680.029086 155.3853 
L 680.316929 129.103503 
L 680.604772 135.842412 
L 680.892615 139.436434 
L 681.180458 134.045334 
L 681.468302 82.604714 
L 681.756145 104.067403 
L 682.331831 120.281655 
L 682.619674 125.529824 
L 682.907517 101.596487 
L 683.19536 114.870079 
L 683.483203 69.657937 
L 684.05889 96.205387 
L 684.346733 81.971695 
L 684.634576 97.34897 
L 685.210262 110.9289 
L 685.498105 115.707323 
L 685.785948 93.611883 
L 686.073791 107.865784 
L 686.361634 94.469604 
L 686.649477 108.805141 
L 686.937321 114.420809 
L 687.225164 116.177069 
L 687.513007 97.144745 
L 687.80085 109.131822 
L 688.376536 121.118899 
L 688.952222 129.144322 
L 689.240065 82.482928 
L 689.527909 89.834245 
L 689.815752 108.641734 
L 690.391438 125.060212 
L 690.679281 130.777993 
L 691.54281 140.723082 
L 691.830653 138.762597 
L 692.118497 142.234164 
L 692.40634 144.33758 
L 692.694183 127.980397 
L 692.982026 136.352976 
L 693.557712 142.724252 
L 693.845555 135.699481 
L 694.133398 139.824543 
L 694.421241 141.437737 
L 694.709085 144.194515 
L 694.996928 138.926004 
L 695.284771 139.171048 
L 695.572614 117.218539 
L 695.860457 126.775519 
L 696.436143 135.658662 
L 697.011829 142.091233 
L 697.875359 148.973072 
L 698.163202 150.586267 
L 698.451045 151.096831 
L 698.738888 116.401637 
L 699.026731 125.87698 
L 699.602417 135.413619 
L 700.178104 142.070756 
L 700.465947 144.521329 
L 700.75379 145.971251 
L 701.041633 148.115352 
L 701.329476 123.222316 
L 701.617319 131.962394 
L 702.193005 139.538547 
L 702.480848 139.946998 
L 703.056535 145.542323 
L 703.632221 149.258934 
L 703.920064 149.585749 
L 704.207907 142.560844 
L 704.783593 147.64574 
L 705.35928 151.260238 
L 706.222809 154.976849 
L 706.510652 138.313327 
L 706.798495 105.496848 
L 707.086338 119.138072 
L 707.374181 82.809475 
L 707.662024 107.457333 
L 707.949867 114.706805 
L 708.237711 109.764841 
L 708.813397 120.66963 
L 709.10124 124.079902 
L 709.389083 124.549648 
L 709.676926 127.326902 
L 709.964769 95.020986 
L 710.252612 110.969718 
L 710.540455 105.844004 
L 710.828299 115.053962 
L 711.116142 119.321821 
L 711.403985 85.688172 
L 711.691828 106.191161 
L 711.979671 106.865132 
L 712.267514 91.610178 
L 712.555357 106.375044 
L 713.131043 117.790263 
L 713.418887 121.915325 
L 713.70673 74.600303 
L 713.994573 65.921385 
L 714.282416 89.834245 
L 714.570259 93.285203 
L 714.858102 103.577315 
L 715.145945 105.884957 
L 715.721631 116.850906 
L 716.585161 126.550951 
L 716.873004 104.108221 
L 717.160847 115.932025 
L 717.44869 114.706805 
L 717.736533 121.282307 
L 718.024376 123.610291 
L 718.887906 133.534904 
L 719.175749 127.816989 
L 719.463592 126.367068 
L 720.039278 133.391839 
L 720.614964 138.272509 
L 722.342023 148.625915 
L 722.629866 147.931602 
L 722.917709 111.745668 
L 723.205552 121.26183 
L 723.493395 118.933846 
L 723.781238 43.457911 
L 724.069082 92.938046 
L 724.356925 106.272932 
L 724.644768 106.027888 
L 724.932611 104.067403 
L 725.508297 117.36147 
L 725.79614 118.831734 
L 726.371826 126.979745 
L 726.65967 88.894754 
L 726.947513 106.865132 
L 727.523199 119.791567 
L 728.386728 132.105325 
L 728.962414 138.109102 
L 729.250258 141.090581 
L 729.538101 89.956031 
L 729.825944 81.931546 
L 730.113787 104.475854 
L 730.689473 122.75257 
L 730.977316 128.817641 
L 732.128689 142.805888 
L 732.704375 147.46199 
L 732.992218 149.442818 
L 733.280061 114.155423 
L 733.855747 127.143152 
L 734.431433 135.536074 
L 734.719277 111.725326 
L 735.00712 122.058257 
L 735.294963 118.811391 
L 735.582806 125.856638 
L 735.870649 130.124497 
L 736.158492 126.244613 
L 736.446335 128.000739 
L 736.734178 74.600303 
L 737.022021 84.278935 
L 737.309865 84.238786 
L 737.597708 103.413907 
L 737.885551 108.457985 
L 738.173394 115.707323 
L 738.461237 109.805659 
L 739.036923 117.647332 
L 739.612609 122.773046 
L 740.188296 127.081858 
L 740.476139 106.04823 
L 740.763982 115.196893 
L 741.339668 124.079902 
L 741.627511 112.419639 
L 741.915354 121.568169 
L 743.066727 135.005167 
L 743.642413 140.130747 
L 743.930256 139.273161 
L 744.505942 144.174173 
L 745.081628 147.604921 
L 745.369472 147.441514 
L 745.657315 149.46316 
L 745.945158 149.299753 
L 746.520844 86.444315 
L 746.808687 94.428785 
L 747.09653 109.62191 
L 747.672216 121.608987 
L 748.247903 129.654886 
L 749.399275 139.926656 
L 749.974961 143.541154 
L 750.262804 144.84801 
L 750.550648 112.909727 
L 750.838491 61.163706 
L 751.126334 77.172528 
L 751.414177 70.372593 
L 751.70202 93.591541 
L 751.989863 93.366839 
L 752.277706 102.392913 
L 752.565549 84.115662 
L 752.853392 97.308152 
L 753.141235 91.100283 
L 753.429079 101.800713 
L 754.292608 117.177721 
L 754.580451 121.425238 
L 754.868294 120.1592 
L 755.44398 128.633758 
L 755.731823 123.855335 
L 756.019667 115.707323 
L 756.595353 126.693883 
L 756.883196 128.960572 
L 757.458882 135.862888 
L 757.746725 93.101453 
L 758.034568 105.313098 
L 758.322411 99.288979 
L 758.898098 117.504401 
L 759.473784 86.689225 
L 760.04947 109.295229 
L 760.625156 118.321303 
L 760.912999 107.988239 
L 761.488686 113.399815 
L 761.776529 97.165221 
L 762.064372 111.378169 
L 762.352215 114.073652 
L 762.927901 122.895501 
L 763.215744 124.733397 
L 763.503587 100.963468 
L 763.791431 114.032834 
L 764.367117 125.060212 
L 764.942803 131.921575 
L 765.230646 133.269384 
L 765.518489 114.910897 
L 765.806332 125.346074 
L 766.094175 129.307729 
L 766.382018 131.411011 
L 766.669862 126.224137 
L 766.957705 89.486286 
L 767.245548 84.565333 
L 767.533391 100.616312 
L 767.821234 94.530898 
L 768.109077 99.002983 
L 768.39692 80.767219 
L 768.684763 87.832139 
L 768.972606 64.61386 
L 769.26045 85.3817 
L 769.548293 75.90649 
L 769.836136 94.347015 
L 770.123979 102.903477 
L 770.411822 105.476505 
L 770.699665 87.30217 
L 770.987508 89.11959 
L 771.275351 80.480821 
L 771.563194 77.030667 
L 771.851038 97.103926 
L 772.138881 89.527773 
L 772.426724 91.488392 
L 772.714567 103.087227 
L 773.00241 109.989543 
L 773.290253 105.517324 
L 773.578096 88.689993 
L 773.865939 106.354568 
L 774.153782 100.534675 
L 774.441626 111.949894 
L 774.729469 99.676954 
L 775.017312 101.514851 
L 775.305155 109.519797 
L 775.592998 103.45486 
L 775.880841 114.890555 
L 776.168684 120.1592 
L 776.456527 122.221664 
L 776.74437 120.48588 
L 777.032213 121.180194 
L 777.6079 112.787138 
L 777.895743 121.241488 
L 778.183586 124.733397 
L 778.759272 110.949242 
L 779.047115 118.382464 
L 779.622801 125.836162 
L 780.198488 108.682552 
L 780.486331 104.414559 
L 780.774174 114.747624 
L 781.34986 119.464886 
L 781.637703 101.167694 
L 781.925546 112.725978 
L 782.213389 97.512377 
L 782.501233 112.542095 
L 782.789076 95.837754 
L 783.076919 112.582913 
L 783.364762 117.014313 
L 783.652605 113.379339 
L 783.940448 119.281003 
L 784.228291 120.465404 
L 784.516134 59.344947 
L 784.803977 102.903477 
L 785.379664 119.852861 
L 785.667507 120.547175 
L 786.243193 129.63441 
L 786.818879 135.188917 
L 787.106722 136.843064 
L 787.682408 107.498151 
L 787.970252 121.404762 
L 788.545938 130.22661 
L 788.833781 133.718653 
L 789.121624 131.942051 
L 789.409467 135.699481 
L 789.69731 137.945828 
L 789.985153 126.040388 
L 790.56084 134.903055 
L 790.848683 137.19022 
L 791.424369 136.352976 
L 792.000055 140.334973 
L 792.287898 141.907483 
L 792.575741 141.641963 
L 793.439271 145.685255 
L 793.727114 145.358574 
L 794.014957 142.070756 
L 794.590643 145.338098 
L 794.878486 146.012069 
L 795.166329 146.216295 
L 795.454172 147.46199 
L 795.742016 142.234164 
L 796.317702 146.012069 
L 797.756917 150.606743 
L 798.332603 152.056664 
L 798.620447 152.893909 
L 798.90829 152.750978 
L 799.196133 104.067403 
L 799.483976 89.956031 
L 799.771819 107.191813 
L 800.347505 121.078081 
L 800.923191 129.471136 
L 801.786721 137.823239 
L 802.074564 139.865361 
L 802.362407 137.312675 
L 802.938093 141.580669 
L 803.801623 146.175342 
L 804.089466 140.886355 
L 804.665152 144.84801 
L 805.528681 148.809665 
L 805.816524 150.218768 
L 806.104367 131.615237 
L 806.392211 136.659314 
L 806.680054 139.45691 
L 806.967897 135.985343 
L 807.25574 139.763248 
L 807.543583 141.968644 
L 807.831426 140.7639 
L 808.119269 140.273812 
L 808.407112 136.700133 
L 808.694955 138.987298 
L 808.982799 138.946346 
L 809.270642 126.509999 
L 809.558485 76.519434 
L 809.846328 96.470907 
L 810.134171 101.780237 
L 810.422014 77.703835 
L 810.709857 87.668866 
L 810.9977 42.661618 
L 811.285543 86.21948 
L 811.86123 107.681901 
L 812.149073 115.033486 
L 812.436916 117.831082 
L 812.724759 122.425889 
L 813.012602 102.045757 
L 813.588288 118.014965 
L 814.163974 125.713573 
L 814.451818 117.851558 
L 814.739661 106.027888 
L 815.315347 120.261179 
L 815.60319 124.549648 
L 815.891033 98.676303 
L 816.466719 116.646681 
L 816.754562 121.935802 
L 817.042406 87.54708 
L 817.618092 102.249982 
L 817.905935 84.443547 
L 818.193778 94.939216 
L 818.481621 98.451735 
L 818.769464 106.252456 
L 819.920837 121.118899 
L 820.784366 129.511955 
L 821.072209 129.144322 
L 821.360052 129.328071 
L 821.935738 134.882578 
L 823.662797 145.664912 
L 823.95064 146.481681 
L 824.238483 148.115352 
L 824.526326 147.809147 
L 824.814169 140.661787 
L 825.389856 145.705731 
L 825.965542 148.605439 
L 826.253385 149.116003 
L 826.541228 148.585097 
L 827.116914 151.260238 
L 827.404757 152.097482 
L 827.692601 141.621487 
L 827.980444 145.338098 
L 828.268287 135.188917 
L 828.55613 137.843715 
L 829.131816 122.936319 
L 829.419659 122.385071 
L 829.707502 122.568821 
L 829.995345 107.641082 
L 830.283189 116.830564 
L 830.858875 124.876329 
L 831.146718 116.789745 
L 831.434561 119.199366 
L 832.010247 125.203143 
L 832.585933 129.63441 
L 832.873776 131.411011 
L 833.16162 130.798469 
L 833.449463 130.777993 
L 833.737306 132.554594 
L 834.025149 115.54405 
L 834.312992 123.896153 
L 834.600835 125.529824 
L 834.888678 128.817641 
L 835.176521 111.459806 
L 835.464364 118.321303 
L 835.752208 115.360166 
L 836.040051 90.957085 
L 836.327894 94.714648 
L 836.615737 104.904647 
L 836.90358 95.551892 
L 837.479266 108.212941 
L 837.767109 108.233283 
L 838.054952 112.092825 
L 838.342796 108.784665 
L 838.630639 113.624383 
L 838.918482 86.362678 
L 839.206325 85.361625 
L 839.494168 88.343372 
L 840.069854 105.08853 
L 840.357697 99.819885 
L 840.64554 109.519797 
L 840.933384 114.05331 
L 841.221227 109.499455 
L 841.50907 107.824832 
L 841.796913 113.726496 
L 842.372599 119.62816 
L 842.660442 121.282307 
L 842.948285 102.41339 
L 843.236128 110.602085 
L 843.523971 68.698371 
L 843.811815 99.595318 
L 844.099658 108.988891 
L 844.387501 113.236408 
L 844.675344 115.564392 
L 844.963187 115.074304 
L 845.25103 118.688802 
L 845.538873 89.078102 
L 846.114559 109.336048 
L 846.402403 97.675651 
L 846.690246 77.357214 
L 846.978089 94.857579 
L 847.265932 75.294884 
L 847.553775 98.962165 
L 847.841618 96.572886 
L 848.129461 86.689225 
L 848.705147 102.433732 
L 849.280834 112.685026 
L 850.144363 120.628811 
L 850.432206 121.772394 
L 850.720049 124.427059 
L 851.007892 123.916629 
L 851.295735 120.322473 
L 851.583579 80.460747 
L 851.871422 104.720898 
L 852.447108 117.300176 
L 852.734951 109.111346 
L 853.022794 117.504401 
L 853.886323 126.693883 
L 854.174167 127.510651 
L 854.46201 79.869215 
L 854.749853 103.720246 
L 855.037696 112.297051 
L 855.325539 114.05331 
L 855.613382 118.627508 
L 856.189068 116.646681 
L 856.476911 103.944948 
L 856.764754 114.420809 
L 857.052598 118.607166 
L 857.340441 102.964772 
L 857.628284 105.578618 
L 858.20397 117.198063 
L 858.491813 116.850906 
L 858.779656 114.257536 
L 859.067499 56.364539 
L 859.355342 92.447958 
L 859.643186 106.722201 
L 859.931029 114.379991 
L 860.218872 80.072638 
L 860.506715 100.820537 
L 860.794558 109.499455 
L 861.370244 119.11773 
L 861.658087 91.713228 
L 861.94593 81.135253 
L 862.233774 100.963468 
L 862.521617 109.62191 
L 862.80946 114.910897 
L 863.097303 116.871382 
L 863.385146 116.524225 
L 863.672989 90.119305 
L 863.960832 107.35522 
L 864.248675 109.152298 
L 864.824362 119.505705 
L 865.112205 123.079384 
L 865.400048 124.876329 
L 865.687891 127.816989 
L 865.975734 128.307077 
L 866.263577 114.56374 
L 866.55142 115.360166 
L 866.839263 112.092825 
L 867.127106 116.095432 
L 867.414949 116.871382 
L 867.702793 119.097254 
L 867.990636 123.222316 
L 868.566322 111.929552 
L 868.854165 118.811391 
L 869.429851 124.896805 
L 870.005537 128.980915 
L 870.293381 128.511303 
L 870.581224 117.504401 
L 870.869067 93.632359 
L 871.15691 97.696127 
L 871.444753 103.883653 
L 871.732596 85.259914 
L 872.020439 104.741374 
L 872.308282 106.375044 
L 872.596125 39.414887 
L 872.883969 88.160024 
L 873.171812 97.389789 
L 873.459655 57.855412 
L 874.035341 94.428785 
L 874.611027 109.478979 
L 874.89887 109.519797 
L 875.186713 114.23706 
L 875.474557 112.276708 
L 875.7624 117.647332 
L 876.050243 111.112649 
L 876.338086 120.261179 
L 876.913772 127.531127 
L 877.201615 125.754525 
L 877.777301 132.57507 
L 878.065144 134.555898 
L 878.352988 111.459806 
L 878.640831 120.649288 
L 879.216517 129.961224 
L 879.50436 132.24839 
L 879.792203 116.217887 
L 880.080046 124.05956 
L 880.367889 128.327553 
L 881.231419 134.576374 
L 881.519262 133.228566 
L 881.807105 135.862888 
L 882.958477 140.069587 
L 883.534164 142.540502 
L 883.822007 134.06581 
L 884.10985 137.619014 
L 884.685536 141.560326 
L 884.973379 132.084983 
L 885.549065 137.149402 
L 886.124752 140.518856 
L 886.700438 143.214339 
L 886.988281 144.174173 
L 887.276124 139.926656 
L 887.563967 142.356753 
L 888.139653 144.827668 
L 888.427496 144.868486 
L 888.715339 145.358574 
L 889.291026 147.318925 
L 889.578869 147.441514 
L 889.866712 147.788671 
L 890.442398 150.116655 
L 890.730241 150.729332 
L 891.305927 133.534904 
L 891.881614 139.763248 
L 892.169457 140.089929 
L 892.745143 143.520678 
L 893.320829 146.052887 
L 893.608672 146.236637 
L 894.184359 116.993837 
L 894.472202 125.407369 
L 895.047888 132.146277 
L 895.335731 131.962394 
L 895.623574 134.188265 
L 895.911417 116.462931 
L 896.19926 125.713573 
L 896.487103 129.12398 
L 896.774947 96.389137 
L 897.06279 112.725978 
L 897.350633 101.759895 
L 897.638476 114.216584 
L 898.214162 122.568821 
L 898.502005 125.386893 
L 898.789848 92.591157 
L 899.077691 110.785969 
L 899.653378 119.954974 
L 899.941221 121.915325 
L 900.229064 125.366416 
L 900.516907 126.816338 
L 900.80475 120.771743 
L 901.380436 127.694401 
L 901.956122 131.962394 
L 902.243966 133.248908 
L 902.531809 130.716698 
L 902.819652 130.083679 
L 903.107495 97.471425 
L 903.395338 110.459154 
L 903.971024 120.93515 
L 904.258867 120.792219 
L 904.54671 99.636136 
L 904.834554 108.703029 
L 905.122397 109.805659 
L 905.698083 119.281003 
L 906.561612 125.856638 
L 906.849455 118.198715 
L 907.137298 68.208551 
L 907.425142 69.657937 
L 907.712985 93.223908 
L 908.288671 109.111346 
L 909.440043 122.017438 
L 910.01573 126.734701 
L 910.591416 130.75765 
L 910.879259 129.736522 
L 911.454945 133.044682 
L 912.318474 137.63949 
L 912.606317 138.742121 
L 912.894161 139.232342 
L 914.045533 143.62279 
L 914.621219 145.338098 
L 915.196905 146.951426 
L 915.484749 141.233512 
L 915.772592 124.406717 
L 916.060435 85.218426 
L 916.348278 70.16917 
L 916.636121 90.303991 
L 916.923964 95.26603 
L 917.211807 26.692946 
L 917.49965 74.966999 
L 917.787493 74.580228 
L 918.075337 85.463336 
L 918.075337 85.463336 
" clip-path="url(#pb0fa26fedd)" style="fill: none; stroke: #2563eb; stroke-opacity: 0.95; stroke-width: 1.3; stroke-linecap: square"/>
   </g>
   <g id="patch_20">
    <path d="M 39.330625 228.954713 
L 39.330625 17.061433 
" style="fill: none; stroke: #cbd5e1; stroke-width: 0.8; stroke-linejoin: miter; stroke-linecap: square"/>
   </g>
   <g id="patch_21">
    <path d="M 935.305625 228.954713 
L 935.305625 17.061433 
" style="fill: none; stroke: #cbd5e1; stroke-width: 0.8; stroke-linejoin: miter; stroke-linecap: square"/>
   </g>
   <g id="patch_22">
    <path d="M 39.330625 228.954713 
L 935.305625 228.954713 
" style="fill: none; stroke: #cbd5e1; stroke-width: 0.8; stroke-linejoin: miter; stroke-linecap: square"/>
   </g>
   <g id="patch_23">
    <path d="M 39.330625 17.061433 
L 935.305625 17.061433 
" style="fill: none; stroke: #cbd5e1; stroke-width: 0.8; stroke-linejoin: miter; stroke-linecap: square"/>
   </g>
   <g id="text_18">
    <!-- ACC -->
    <g style="fill: #475569" transform="translate(120.494958 13.27875) scale(0.08 -0.08)">
     <defs>
      <path id="DejaVuSans-43" d="M 4122 4306 
L 4122 3641 
Q 3803 3938 3442 4084 
Q 3081 4231 2675 4231 
Q 1875 4231 1450 3742 
Q 1025 3253 1025 2328 
Q 1025 1406 1450 917 
Q 1875 428 2675 428 
Q 3081 428 3442 575 
Q 3803 722 4122 1019 
L 4122 359 
Q 3791 134 3420 21 
Q 3050 -91 2638 -91 
Q 1578 -91 968 557 
Q 359 1206 359 2328 
Q 359 3453 968 4101 
Q 1578 4750 2638 4750 
Q 3056 4750 3426 4639 
Q 3797 4528 4122 4306 
z
" transform="scale(0.015625)"/>
     </defs>
     <use xlink:href="#DejaVuSans-41"/>
     <use xlink:href="#DejaVuSans-43" transform="translate(66.658203 0)"/>
     <use xlink:href="#DejaVuSans-43" transform="translate(136.482422 0)"/>
    </g>
   </g>
   <g id="text_19">
    <!-- OC -->
    <g style="fill: #475569" transform="translate(228.129535 13.27875) scale(0.08 -0.08)">
     <defs>
      <path id="DejaVuSans-4f" d="M 2522 4238 
Q 1834 4238 1429 3725 
Q 1025 3213 1025 2328 
Q 1025 1447 1429 934 
Q 1834 422 2522 422 
Q 3209 422 3611 934 
Q 4013 1447 4013 2328 
Q 4013 3213 3611 3725 
Q 3209 4238 2522 4238 
z
M 2522 4750 
Q 3503 4750 4090 4092 
Q 4678 3434 4678 2328 
Q 4678 1225 4090 567 
Q 3503 -91 2522 -91 
Q 1538 -91 948 565 
Q 359 1222 359 2328 
Q 359 3434 948 4092 
Q 1538 4750 2522 4750 
z
" transform="scale(0.015625)"/>
     </defs>
     <use xlink:href="#DejaVuSans-4f"/>
     <use xlink:href="#DejaVuSans-43" transform="translate(78.710938 0)"/>
    </g>
   </g>
   <g id="text_20">
    <!-- FCS -->
    <g style="fill: #475569" transform="translate(253.707632 13.27875) scale(0.08 -0.08)">
     <defs>
      <path id="DejaVuSans-46" d="M 628 4666 
L 3309 4666 
L 3309 4134 
L 1259 4134 
L 1259 2759 
L 3109 2759 
L 3109 2228 
L 1259 2228 
L 1259 0 
L 628 0 
L 628 4666 
z
" transform="scale(0.015625)"/>
      <path id="DejaVuSans-53" d="M 3425 4513 
L 3425 3897 
Q 3066 4069 2747 4153 
Q 2428 4238 2131 4238 
Q 1616 4238 1336 4038 
Q 1056 3838 1056 3469 
Q 1056 3159 1242 3001 
Q 1428 2844 1947 2747 
L 2328 2669 
Q 3034 2534 3370 2195 
Q 3706 1856 3706 1288 
Q 3706 609 3251 259 
Q 2797 -91 1919 -91 
Q 1588 -91 1214 -16 
Q 841 59 441 206 
L 441 856 
Q 825 641 1194 531 
Q 1563 422 1919 422 
Q 2459 422 2753 634 
Q 3047 847 3047 1241 
Q 3047 1584 2836 1778 
Q 2625 1972 2144 2069 
L 1759 2144 
Q 1053 2284 737 2584 
Q 422 2884 422 3419 
Q 422 4038 858 4394 
Q 1294 4750 2059 4750 
Q 2388 4750 2728 4690 
Q 3069 4631 3425 4513 
z
" transform="scale(0.015625)"/>
     </defs>
     <use xlink:href="#DejaVuSans-46"/>
     <use xlink:href="#DejaVuSans-43" transform="translate(57.519531 0)"/>
     <use xlink:href="#DejaVuSans-53" transform="translate(127.34375 0)"/>
    </g>
   </g>
   <g id="text_21">
    <!-- SR -->
    <g style="fill: #475569" transform="translate(290.108691 13.27875) scale(0.08 -0.08)">
     <defs>
      <path id="DejaVuSans-52" d="M 2841 2188 
Q 3044 2119 3236 1894 
Q 3428 1669 3622 1275 
L 4263 0 
L 3584 0 
L 2988 1197 
Q 2756 1666 2539 1819 
Q 2322 1972 1947 1972 
L 1259 1972 
L 1259 0 
L 628 0 
L 628 4666 
L 2053 4666 
Q 2853 4666 3247 4331 
Q 3641 3997 3641 3322 
Q 3641 2881 3436 2590 
Q 3231 2300 2841 2188 
z
M 1259 4147 
L 1259 2491 
L 2053 2491 
Q 2509 2491 2742 2702 
Q 2975 2913 2975 3322 
Q 2975 3731 2742 3939 
Q 2509 4147 2053 4147 
L 1259 4147 
z
" transform="scale(0.015625)"/>
     </defs>
     <use xlink:href="#DejaVuSans-53"/>
     <use xlink:href="#DejaVuSans-52" transform="translate(63.476562 0)"/>
    </g>
   </g>
   <g id="text_22">
    <!-- FFC -->
    <g style="fill: #475569" transform="translate(333.481978 13.27875) scale(0.08 -0.08)">
     <use xlink:href="#DejaVuSans-46"/>
     <use xlink:href="#DejaVuSans-46" transform="translate(57.519531 0)"/>
     <use xlink:href="#DejaVuSans-43" transform="translate(115.039062 0)"/>
    </g>
   </g>
   <g id="text_23">
    <!-- SS -->
    <g style="fill: #475569" transform="translate(417.605644 13.27875) scale(0.08 -0.08)">
     <use xlink:href="#DejaVuSans-53"/>
     <use xlink:href="#DejaVuSans-53" transform="translate(63.476562 0)"/>
    </g>
   </g>
   <g id="text_24">
    <!-- OC -->
    <g style="fill: #475569" transform="translate(487.188333 13.27875) scale(0.08 -0.08)">
     <use xlink:href="#DejaVuSans-4f"/>
     <use xlink:href="#DejaVuSans-43" transform="translate(78.710938 0)"/>
    </g>
   </g>
   <g id="text_25">
    <!-- FCS -->
    <g style="fill: #475569" transform="translate(508.221539 13.27875) scale(0.08 -0.08)">
     <use xlink:href="#DejaVuSans-46"/>
     <use xlink:href="#DejaVuSans-43" transform="translate(57.519531 0)"/>
     <use xlink:href="#DejaVuSans-53" transform="translate(127.34375 0)"/>
    </g>
   </g>
   <g id="text_26">
    <!-- SR -->
    <g style="fill: #475569" transform="translate(544.622597 13.27875) scale(0.08 -0.08)">
     <use xlink:href="#DejaVuSans-53"/>
     <use xlink:href="#DejaVuSans-52" transform="translate(63.476562 0)"/>
    </g>
   </g>
   <g id="text_27">
    <!-- FFC -->
    <g style="fill: #475569" transform="translate(587.995884 13.27875) scale(0.08 -0.08)">
     <use xlink:href="#DejaVuSans-46"/>
     <use xlink:href="#DejaVuSans-46" transform="translate(57.519531 0)"/>
     <use xlink:href="#DejaVuSans-43" transform="translate(115.039062 0)"/>
    </g>
   </g>
   <g id="text_28">
    <!-- SS -->
    <g style="fill: #475569" transform="translate(672.119551 13.27875) scale(0.08 -0.08)">
     <use xlink:href="#DejaVuSans-53"/>
     <use xlink:href="#DejaVuSans-53" transform="translate(63.476562 0)"/>
    </g>
   </g>
   <g id="text_29">
    <!-- OC -->
    <g style="fill: #475569" transform="translate(741.702239 13.27875) scale(0.08 -0.08)">
     <use xlink:href="#DejaVuSans-4f"/>
     <use xlink:href="#DejaVuSans-43" transform="translate(78.710938 0)"/>
    </g>
   </g>
   <g id="text_30">
    <!-- FCS -->
    <g style="fill: #475569" transform="translate(762.735445 13.27875) scale(0.08 -0.08)">
     <use xlink:href="#DejaVuSans-46"/>
     <use xlink:href="#DejaVuSans-43" transform="translate(57.519531 0)"/>
     <use xlink:href="#DejaVuSans-53" transform="translate(127.34375 0)"/>
    </g>
   </g>
   <g id="text_31">
    <!-- SR -->
    <g style="fill: #475569" transform="translate(799.136504 13.27875) scale(0.08 -0.08)">
     <use xlink:href="#DejaVuSans-53"/>
     <use xlink:href="#DejaVuSans-52" transform="translate(63.476562 0)"/>
    </g>
   </g>
   <g id="text_32">
    <!-- FFC -->
    <g style="fill: #475569" transform="translate(842.50979 13.27875) scale(0.08 -0.08)">
     <use xlink:href="#DejaVuSans-46"/>
     <use xlink:href="#DejaVuSans-46" transform="translate(57.519531 0)"/>
     <use xlink:href="#DejaVuSans-43" transform="translate(115.039062 0)"/>
    </g>
   </g>
   <g id="text_33">
    <!-- SS -->
    <g style="fill: #475569" transform="translate(888.001882 13.27875) scale(0.08 -0.08)">
     <use xlink:href="#DejaVuSans-53"/>
     <use xlink:href="#DejaVuSans-53" transform="translate(63.476562 0)"/>
    </g>
   </g>
   <g id="legend_1">
    <g id="line2d_32">
     <path d="M 889.158125 27.540183 
L 897.158125 27.540183 
L 905.158125 27.540183 
" style="fill: none; stroke: #2563eb; stroke-opacity: 0.95; stroke-width: 1.3; stroke-linecap: square"/>
    </g>
    <g id="text_34">
     <!-- EDA -->
     <g transform="translate(911.558125 30.340183) scale(0.08 -0.08)">
      <use xlink:href="#DejaVuSans-45"/>
      <use xlink:href="#DejaVuSans-44" transform="translate(63.183594 0)"/>
      <use xlink:href="#DejaVuSans-41" transform="translate(138.435547 0)"/>
     </g>
    </g>
   </g>
  </g>
 </g>
 <defs>
  <clipPath id="pb0fa26fedd">
   <rect x="39.330625" y="17.061433" width="895.975" height="211.89328"/>
  </clipPath>
 </defs>
</svg>
