<?xml version="1.0" encoding="utf-8" standalone="no"?>
<!DOCTYPE svg PUBLIC "-//W3C//DTD SVG 1.1//EN"
  "http://www.w3.org/Graphics/SVG/1.1/DTD/svg11.dtd">
<svg xmlns:xlink="http://www.w3.org/1999/xlink" width="942.530937pt" height="265.54315pt" viewBox="0 0 942.530937 265.54315" xmlns="http://www.w3.org/2000/svg" version="1.1">
 <metadata>
  <rdf:RDF xmlns:dc="http://purl.org/dc/elements/1.1/" xmlns:cc="http://creativecommons.org/ns#" xmlns:rdf="http://www.w3.org/1999/02/22-rdf-syntax-ns#">
   <cc:Work>
    <dc:type rdf:resource="http://purl.org/dc/dcmitype/StillImage"/>
    <dc:date>2026-04-17T13:09:41.684280</dc:date>
    <dc:format>image/svg+xml</dc:format>
    <dc:creator>
     <cc:Agent>
      <dc:title>Matplotlib v3.10.8, https://matplotlib.org/</dc:title>
     </cc:Agent>
    </dc:creator>
   </cc:Work>
  </rdf:RDF>
 </metadata>
 <defs>
  <style type="text/css">*{stroke-linejoin: round; stroke-linecap: butt}</style>
 </defs>
 <g id="figure_1">
  <g id="patch_1">
   <path d="M 0 265.54315 
L 942.530937 265.54315 
L 942.530937 0 
L 0 0 
z
" style="fill: #ffffff"/>
  </g>
  <g id="axes_1">
   <g id="patch_2">
    <path d="M 53.643438 228.954713 
L 935.330937 228.954713 
L 935.330937 17.061433 
L 53.643438 17.061433 
z
" style="fill: #ffffff"/>
   </g>
   <g id="patch_3">
    <path d="M 53.643438 228.954713 
L 70.598966 228.954713 
L 70.598966 17.061433 
L 53.643438 17.061433 
z
" clip-path="url(#peef9f40b99)" style="fill: #f8fafc; opacity: 0.45"/>
   </g>
   <g id="patch_4">
    <path d="M 70.598966 228.954713 
L 103.845101 228.954713 
L 103.845101 17.061433 
L 70.598966 17.061433 
z
" clip-path="url(#peef9f40b99)" style="fill: #eff6ff; opacity: 0.45"/>
   </g>
   <g id="patch_5">
    <path d="M 103.845101 228.954713 
L 137.091236 228.954713 
L 137.091236 17.061433 
L 103.845101 17.061433 
z
" clip-path="url(#peef9f40b99)" style="fill: #fef3c7; opacity: 0.45"/>
   </g>
   <g id="patch_6">
    <path d="M 137.091236 228.954713 
L 186.960439 228.954713 
L 186.960439 17.061433 
L 137.091236 17.061433 
z
" clip-path="url(#peef9f40b99)" style="fill: #dcfce7; opacity: 0.45"/>
   </g>
   <g id="patch_7">
    <path d="M 186.960439 228.954713 
L 247.911686 228.954713 
L 247.911686 17.061433 
L 186.960439 17.061433 
z
" clip-path="url(#peef9f40b99)" style="fill: #fee2e2; opacity: 0.45"/>
   </g>
   <g id="patch_8">
    <path d="M 247.911686 228.954713 
L 386.437249 228.954713 
L 386.437249 17.061433 
L 247.911686 17.061433 
z
" clip-path="url(#peef9f40b99)" style="fill: #ede9fe; opacity: 0.45"/>
   </g>
   <g id="patch_9">
    <path d="M 386.437249 228.954713 
L 414.142361 228.954713 
L 414.142361 17.061433 
L 386.437249 17.061433 
z
" clip-path="url(#peef9f40b99)" style="fill: #f8fafc; opacity: 0.45"/>
   </g>
   <g id="patch_10">
    <path d="M 414.142361 228.954713 
L 447.388496 228.954713 
L 447.388496 17.061433 
L 414.142361 17.061433 
z
" clip-path="url(#peef9f40b99)" style="fill: #eff6ff; opacity: 0.45"/>
   </g>
   <g id="patch_11">
    <path d="M 447.388496 228.954713 
L 497.257699 228.954713 
L 497.257699 17.061433 
L 447.388496 17.061433 
z
" clip-path="url(#peef9f40b99)" style="fill: #fef3c7; opacity: 0.45"/>
   </g>
   <g id="patch_12">
    <path d="M 497.257699 228.954713 
L 552.667924 228.954713 
L 552.667924 17.061433 
L 497.257699 17.061433 
z
" clip-path="url(#peef9f40b99)" style="fill: #dcfce7; opacity: 0.45"/>
   </g>
   <g id="patch_13">
    <path d="M 552.667924 228.954713 
L 558.208946 228.954713 
L 558.208946 17.061433 
L 552.667924 17.061433 
z
" clip-path="url(#peef9f40b99)" style="fill: #fee2e2; opacity: 0.45"/>
   </g>
   <g id="patch_14">
    <path d="M 558.208946 228.954713 
L 696.734509 228.954713 
L 696.734509 17.061433 
L 558.208946 17.061433 
z
" clip-path="url(#peef9f40b99)" style="fill: #ede9fe; opacity: 0.45"/>
   </g>
   <g id="patch_15">
    <path d="M 696.734509 228.954713 
L 724.439621 228.954713 
L 724.439621 17.061433 
L 696.734509 17.061433 
z
" clip-path="url(#peef9f40b99)" style="fill: #f8fafc; opacity: 0.45"/>
   </g>
   <g id="patch_16">
    <path d="M 724.439621 228.954713 
L 757.685756 228.954713 
L 757.685756 17.061433 
L 724.439621 17.061433 
z
" clip-path="url(#peef9f40b99)" style="fill: #eff6ff; opacity: 0.45"/>
   </g>
   <g id="patch_17">
    <path d="M 757.685756 228.954713 
L 807.554959 228.954713 
L 807.554959 17.061433 
L 757.685756 17.061433 
z
" clip-path="url(#peef9f40b99)" style="fill: #fef3c7; opacity: 0.45"/>
   </g>
   <g id="patch_18">
    <path d="M 807.554959 228.954713 
L 862.965184 228.954713 
L 862.965184 17.061433 
L 807.554959 17.061433 
z
" clip-path="url(#peef9f40b99)" style="fill: #dcfce7; opacity: 0.45"/>
   </g>
   <g id="patch_19">
    <path d="M 862.965184 228.954713 
L 868.506206 228.954713 
L 868.506206 17.061433 
L 862.965184 17.061433 
z
" clip-path="url(#peef9f40b99)" style="fill: #fee2e2; opacity: 0.45"/>
   </g>
   <g id="patch_20">
    <path d="M 868.506206 228.954713 
L 918.375409 228.954713 
L 918.375409 17.061433 
L 868.506206 17.061433 
z
" clip-path="url(#peef9f40b99)" style="fill: #ede9fe; opacity: 0.45"/>
   </g>
   <g id="patch_21">
    <path d="M 918.375409 228.954713 
L 923.916431 228.954713 
L 923.916431 17.061433 
L 918.375409 17.061433 
z
" clip-path="url(#peef9f40b99)" style="fill: #f8fafc; opacity: 0.45"/>
   </g>
   <g id="matplotlib.axis_1">
    <g id="xtick_1">
     <g id="line2d_1">
      <path d="M 70.598966 228.954713 
L 70.598966 17.061433 
" clip-path="url(#peef9f40b99)" style="fill: none; stroke: #eef2f7; stroke-width: 0.55; stroke-linecap: square"/>
     </g>
     <g id="line2d_2">
      <defs>
       <path id="mcf62b3e61c" d="M 0 0 
L 0 3.5 
" style="stroke: #000000; stroke-width: 0.8"/>
      </defs>
      <g>
       <use xlink:href="#mcf62b3e61c" x="70.598966" y="228.954713" style="stroke: #000000; stroke-width: 0.8"/>
      </g>
     </g>
     <g id="text_1">
      <!-- 40 -->
      <g transform="translate(64.872716 242.793307) scale(0.09 -0.09)">
       <defs>
        <path id="DejaVuSans-34" d="M 2419 4116 
L 825 1625 
L 2419 1625 
L 2419 4116 
z
M 2253 4666 
L 3047 4666 
L 3047 1625 
L 3713 1625 
L 3713 1100 
L 3047 1100 
L 3047 0 
L 2419 0 
L 2419 1100 
L 313 1100 
L 313 1709 
L 2253 4666 
z
" transform="scale(0.015625)"/>
        <path id="DejaVuSans-30" d="M 2034 4250 
Q 1547 4250 1301 3770 
Q 1056 3291 1056 2328 
Q 1056 1369 1301 889 
Q 1547 409 2034 409 
Q 2525 409 2770 889 
Q 3016 1369 3016 2328 
Q 3016 3291 2770 3770 
Q 2525 4250 2034 4250 
z
M 2034 4750 
Q 2819 4750 3233 4129 
Q 3647 3509 3647 2328 
Q 3647 1150 3233 529 
Q 2819 -91 2034 -91 
Q 1250 -91 836 529 
Q 422 1150 422 2328 
Q 422 3509 836 4129 
Q 1250 4750 2034 4750 
z
" transform="scale(0.015625)"/>
       </defs>
       <use xlink:href="#DejaVuSans-34"/>
       <use xlink:href="#DejaVuSans-30" transform="translate(63.623047 0)"/>
      </g>
     </g>
    </g>
    <g id="xtick_2">
     <g id="line2d_3">
      <path d="M 181.419416 228.954713 
L 181.419416 17.061433 
" clip-path="url(#peef9f40b99)" style="fill: none; stroke: #eef2f7; stroke-width: 0.55; stroke-linecap: square"/>
     </g>
     <g id="line2d_4">
      <g>
       <use xlink:href="#mcf62b3e61c" x="181.419416" y="228.954713" style="stroke: #000000; stroke-width: 0.8"/>
      </g>
     </g>
     <g id="text_2">
      <!-- 60 -->
      <g transform="translate(175.693166 242.793307) scale(0.09 -0.09)">
       <defs>
        <path id="DejaVuSans-36" d="M 2113 2584 
Q 1688 2584 1439 2293 
Q 1191 2003 1191 1497 
Q 1191 994 1439 701 
Q 1688 409 2113 409 
Q 2538 409 2786 701 
Q 3034 994 3034 1497 
Q 3034 2003 2786 2293 
Q 2538 2584 2113 2584 
z
M 3366 4563 
L 3366 3988 
Q 3128 4100 2886 4159 
Q 2644 4219 2406 4219 
Q 1781 4219 1451 3797 
Q 1122 3375 1075 2522 
Q 1259 2794 1537 2939 
Q 1816 3084 2150 3084 
Q 2853 3084 3261 2657 
Q 3669 2231 3669 1497 
Q 3669 778 3244 343 
Q 2819 -91 2113 -91 
Q 1303 -91 875 529 
Q 447 1150 447 2328 
Q 447 3434 972 4092 
Q 1497 4750 2381 4750 
Q 2619 4750 2861 4703 
Q 3103 4656 3366 4563 
z
" transform="scale(0.015625)"/>
       </defs>
       <use xlink:href="#DejaVuSans-36"/>
       <use xlink:href="#DejaVuSans-30" transform="translate(63.623047 0)"/>
      </g>
     </g>
    </g>
    <g id="xtick_3">
     <g id="line2d_5">
      <path d="M 292.239866 228.954713 
L 292.239866 17.061433 
" clip-path="url(#peef9f40b99)" style="fill: none; stroke: #eef2f7; stroke-width: 0.55; stroke-linecap: square"/>
     </g>
     <g id="line2d_6">
      <g>
       <use xlink:href="#mcf62b3e61c" x="292.239866" y="228.954713" style="stroke: #000000; stroke-width: 0.8"/>
      </g>
     </g>
     <g id="text_3">
      <!-- 80 -->
      <g transform="translate(286.513616 242.793307) scale(0.09 -0.09)">
       <defs>
        <path id="DejaVuSans-38" d="M 2034 2216 
Q 1584 2216 1326 1975 
Q 1069 1734 1069 1313 
Q 1069 891 1326 650 
Q 1584 409 2034 409 
Q 2484 409 2743 651 
Q 3003 894 3003 1313 
Q 3003 1734 2745 1975 
Q 2488 2216 2034 2216 
z
M 1403 2484 
Q 997 2584 770 2862 
Q 544 3141 544 3541 
Q 544 4100 942 4425 
Q 1341 4750 2034 4750 
Q 2731 4750 3128 4425 
Q 3525 4100 3525 3541 
Q 3525 3141 3298 2862 
Q 3072 2584 2669 2484 
Q 3125 2378 3379 2068 
Q 3634 1759 3634 1313 
Q 3634 634 3220 271 
Q 2806 -91 2034 -91 
Q 1263 -91 848 271 
Q 434 634 434 1313 
Q 434 1759 690 2068 
Q 947 2378 1403 2484 
z
M 1172 3481 
Q 1172 3119 1398 2916 
Q 1625 2713 2034 2713 
Q 2441 2713 2670 2916 
Q 2900 3119 2900 3481 
Q 2900 3844 2670 4047 
Q 2441 4250 2034 4250 
Q 1625 4250 1398 4047 
Q 1172 3844 1172 3481 
z
" transform="scale(0.015625)"/>
       </defs>
       <use xlink:href="#DejaVuSans-38"/>
       <use xlink:href="#DejaVuSans-30" transform="translate(63.623047 0)"/>
      </g>
     </g>
    </g>
    <g id="xtick_4">
     <g id="line2d_7">
      <path d="M 403.060316 228.954713 
L 403.060316 17.061433 
" clip-path="url(#peef9f40b99)" style="fill: none; stroke: #eef2f7; stroke-width: 0.55; stroke-linecap: square"/>
     </g>
     <g id="line2d_8">
      <g>
       <use xlink:href="#mcf62b3e61c" x="403.060316" y="228.954713" style="stroke: #000000; stroke-width: 0.8"/>
      </g>
     </g>
     <g id="text_4">
      <!-- 100 -->
      <g transform="translate(394.470941 242.793307) scale(0.09 -0.09)">
       <defs>
        <path id="DejaVuSans-31" d="M 794 531 
L 1825 531 
L 1825 4091 
L 703 3866 
L 703 4441 
L 1819 4666 
L 2450 4666 
L 2450 531 
L 3481 531 
L 3481 0 
L 794 0 
L 794 531 
z
" transform="scale(0.015625)"/>
       </defs>
       <use xlink:href="#DejaVuSans-31"/>
       <use xlink:href="#DejaVuSans-30" transform="translate(63.623047 0)"/>
       <use xlink:href="#DejaVuSans-30" transform="translate(127.246094 0)"/>
      </g>
     </g>
    </g>
    <g id="xtick_5">
     <g id="line2d_9">
      <path d="M 513.880766 228.954713 
L 513.880766 17.061433 
" clip-path="url(#peef9f40b99)" style="fill: none; stroke: #eef2f7; stroke-width: 0.55; stroke-linecap: square"/>
     </g>
     <g id="line2d_10">
      <g>
       <use xlink:href="#mcf62b3e61c" x="513.880766" y="228.954713" style="stroke: #000000; stroke-width: 0.8"/>
      </g>
     </g>
     <g id="text_5">
      <!-- 120 -->
      <g transform="translate(505.291391 242.793307) scale(0.09 -0.09)">
       <defs>
        <path id="DejaVuSans-32" d="M 1228 531 
L 3431 531 
L 3431 0 
L 469 0 
L 469 531 
Q 828 903 1448 1529 
Q 2069 2156 2228 2338 
Q 2531 2678 2651 2914 
Q 2772 3150 2772 3378 
Q 2772 3750 2511 3984 
Q 2250 4219 1831 4219 
Q 1534 4219 1204 4116 
Q 875 4013 500 3803 
L 500 4441 
Q 881 4594 1212 4672 
Q 1544 4750 1819 4750 
Q 2544 4750 2975 4387 
Q 3406 4025 3406 3419 
Q 3406 3131 3298 2873 
Q 3191 2616 2906 2266 
Q 2828 2175 2409 1742 
Q 1991 1309 1228 531 
z
" transform="scale(0.015625)"/>
       </defs>
       <use xlink:href="#DejaVuSans-31"/>
       <use xlink:href="#DejaVuSans-32" transform="translate(63.623047 0)"/>
       <use xlink:href="#DejaVuSans-30" transform="translate(127.246094 0)"/>
      </g>
     </g>
    </g>
    <g id="xtick_6">
     <g id="line2d_11">
      <path d="M 624.701216 228.954713 
L 624.701216 17.061433 
" clip-path="url(#peef9f40b99)" style="fill: none; stroke: #eef2f7; stroke-width: 0.55; stroke-linecap: square"/>
     </g>
     <g id="line2d_12">
      <g>
       <use xlink:href="#mcf62b3e61c" x="624.701216" y="228.954713" style="stroke: #000000; stroke-width: 0.8"/>
      </g>
     </g>
     <g id="text_6">
      <!-- 140 -->
      <g transform="translate(616.111841 242.793307) scale(0.09 -0.09)">
       <use xlink:href="#DejaVuSans-31"/>
       <use xlink:href="#DejaVuSans-34" transform="translate(63.623047 0)"/>
       <use xlink:href="#DejaVuSans-30" transform="translate(127.246094 0)"/>
      </g>
     </g>
    </g>
    <g id="xtick_7">
     <g id="line2d_13">
      <path d="M 735.521666 228.954713 
L 735.521666 17.061433 
" clip-path="url(#peef9f40b99)" style="fill: none; stroke: #eef2f7; stroke-width: 0.55; stroke-linecap: square"/>
     </g>
     <g id="line2d_14">
      <g>
       <use xlink:href="#mcf62b3e61c" x="735.521666" y="228.954713" style="stroke: #000000; stroke-width: 0.8"/>
      </g>
     </g>
     <g id="text_7">
      <!-- 160 -->
      <g transform="translate(726.932291 242.793307) scale(0.09 -0.09)">
       <use xlink:href="#DejaVuSans-31"/>
       <use xlink:href="#DejaVuSans-36" transform="translate(63.623047 0)"/>
       <use xlink:href="#DejaVuSans-30" transform="translate(127.246094 0)"/>
      </g>
     </g>
    </g>
    <g id="xtick_8">
     <g id="line2d_15">
      <path d="M 846.342116 228.954713 
L 846.342116 17.061433 
" clip-path="url(#peef9f40b99)" style="fill: none; stroke: #eef2f7; stroke-width: 0.55; stroke-linecap: square"/>
     </g>
     <g id="line2d_16">
      <g>
       <use xlink:href="#mcf62b3e61c" x="846.342116" y="228.954713" style="stroke: #000000; stroke-width: 0.8"/>
      </g>
     </g>
     <g id="text_8">
      <!-- 180 -->
      <g transform="translate(837.752741 242.793307) scale(0.09 -0.09)">
       <use xlink:href="#DejaVuSans-31"/>
       <use xlink:href="#DejaVuSans-38" transform="translate(63.623047 0)"/>
       <use xlink:href="#DejaVuSans-30" transform="translate(127.246094 0)"/>
      </g>
     </g>
    </g>
    <g id="text_9">
     <!-- Minutes since session start -->
     <g transform="translate(426.897344 256.263463) scale(0.1 -0.1)">
      <defs>
       <path id="DejaVuSans-4d" d="M 628 4666 
L 1569 4666 
L 2759 1491 
L 3956 4666 
L 4897 4666 
L 4897 0 
L 4281 0 
L 4281 4097 
L 3078 897 
L 2444 897 
L 1241 4097 
L 1241 0 
L 628 0 
L 628 4666 
z
" transform="scale(0.015625)"/>
       <path id="DejaVuSans-69" d="M 603 3500 
L 1178 3500 
L 1178 0 
L 603 0 
L 603 3500 
z
M 603 4863 
L 1178 4863 
L 1178 4134 
L 603 4134 
L 603 4863 
z
" transform="scale(0.015625)"/>
       <path id="DejaVuSans-6e" d="M 3513 2113 
L 3513 0 
L 2938 0 
L 2938 2094 
Q 2938 2591 2744 2837 
Q 2550 3084 2163 3084 
Q 1697 3084 1428 2787 
Q 1159 2491 1159 1978 
L 1159 0 
L 581 0 
L 581 3500 
L 1159 3500 
L 1159 2956 
Q 1366 3272 1645 3428 
Q 1925 3584 2291 3584 
Q 2894 3584 3203 3211 
Q 3513 2838 3513 2113 
z
" transform="scale(0.015625)"/>
       <path id="DejaVuSans-75" d="M 544 1381 
L 544 3500 
L 1119 3500 
L 1119 1403 
Q 1119 906 1312 657 
Q 1506 409 1894 409 
Q 2359 409 2629 706 
Q 2900 1003 2900 1516 
L 2900 3500 
L 3475 3500 
L 3475 0 
L 2900 0 
L 2900 538 
Q 2691 219 2414 64 
Q 2138 -91 1772 -91 
Q 1169 -91 856 284 
Q 544 659 544 1381 
z
M 1991 3584 
L 1991 3584 
z
" transform="scale(0.015625)"/>
       <path id="DejaVuSans-74" d="M 1172 4494 
L 1172 3500 
L 2356 3500 
L 2356 3053 
L 1172 3053 
L 1172 1153 
Q 1172 725 1289 603 
Q 1406 481 1766 481 
L 2356 481 
L 2356 0 
L 1766 0 
Q 1100 0 847 248 
Q 594 497 594 1153 
L 594 3053 
L 172 3053 
L 172 3500 
L 594 3500 
L 594 4494 
L 1172 4494 
z
" transform="scale(0.015625)"/>
       <path id="DejaVuSans-65" d="M 3597 1894 
L 3597 1613 
L 953 1613 
Q 991 1019 1311 708 
Q 1631 397 2203 397 
Q 2534 397 2845 478 
Q 3156 559 3463 722 
L 3463 178 
Q 3153 47 2828 -22 
Q 2503 -91 2169 -91 
Q 1331 -91 842 396 
Q 353 884 353 1716 
Q 353 2575 817 3079 
Q 1281 3584 2069 3584 
Q 2775 3584 3186 3129 
Q 3597 2675 3597 1894 
z
M 3022 2063 
Q 3016 2534 2758 2815 
Q 2500 3097 2075 3097 
Q 1594 3097 1305 2825 
Q 1016 2553 972 2059 
L 3022 2063 
z
" transform="scale(0.015625)"/>
       <path id="DejaVuSans-73" d="M 2834 3397 
L 2834 2853 
Q 2591 2978 2328 3040 
Q 2066 3103 1784 3103 
Q 1356 3103 1142 2972 
Q 928 2841 928 2578 
Q 928 2378 1081 2264 
Q 1234 2150 1697 2047 
L 1894 2003 
Q 2506 1872 2764 1633 
Q 3022 1394 3022 966 
Q 3022 478 2636 193 
Q 2250 -91 1575 -91 
Q 1294 -91 989 -36 
Q 684 19 347 128 
L 347 722 
Q 666 556 975 473 
Q 1284 391 1588 391 
Q 1994 391 2212 530 
Q 2431 669 2431 922 
Q 2431 1156 2273 1281 
Q 2116 1406 1581 1522 
L 1381 1569 
Q 847 1681 609 1914 
Q 372 2147 372 2553 
Q 372 3047 722 3315 
Q 1072 3584 1716 3584 
Q 2034 3584 2315 3537 
Q 2597 3491 2834 3397 
z
" transform="scale(0.015625)"/>
       <path id="DejaVuSans-20" transform="scale(0.015625)"/>
       <path id="DejaVuSans-63" d="M 3122 3366 
L 3122 2828 
Q 2878 2963 2633 3030 
Q 2388 3097 2138 3097 
Q 1578 3097 1268 2742 
Q 959 2388 959 1747 
Q 959 1106 1268 751 
Q 1578 397 2138 397 
Q 2388 397 2633 464 
Q 2878 531 3122 666 
L 3122 134 
Q 2881 22 2623 -34 
Q 2366 -91 2075 -91 
Q 1284 -91 818 406 
Q 353 903 353 1747 
Q 353 2603 823 3093 
Q 1294 3584 2113 3584 
Q 2378 3584 2631 3529 
Q 2884 3475 3122 3366 
z
" transform="scale(0.015625)"/>
       <path id="DejaVuSans-6f" d="M 1959 3097 
Q 1497 3097 1228 2736 
Q 959 2375 959 1747 
Q 959 1119 1226 758 
Q 1494 397 1959 397 
Q 2419 397 2687 759 
Q 2956 1122 2956 1747 
Q 2956 2369 2687 2733 
Q 2419 3097 1959 3097 
z
M 1959 3584 
Q 2709 3584 3137 3096 
Q 3566 2609 3566 1747 
Q 3566 888 3137 398 
Q 2709 -91 1959 -91 
Q 1206 -91 779 398 
Q 353 888 353 1747 
Q 353 2609 779 3096 
Q 1206 3584 1959 3584 
z
" transform="scale(0.015625)"/>
       <path id="DejaVuSans-61" d="M 2194 1759 
Q 1497 1759 1228 1600 
Q 959 1441 959 1056 
Q 959 750 1161 570 
Q 1363 391 1709 391 
Q 2188 391 2477 730 
Q 2766 1069 2766 1631 
L 2766 1759 
L 2194 1759 
z
M 3341 1997 
L 3341 0 
L 2766 0 
L 2766 531 
Q 2569 213 2275 61 
Q 1981 -91 1556 -91 
Q 1019 -91 701 211 
Q 384 513 384 1019 
Q 384 1609 779 1909 
Q 1175 2209 1959 2209 
L 2766 2209 
L 2766 2266 
Q 2766 2663 2505 2880 
Q 2244 3097 1772 3097 
Q 1472 3097 1187 3025 
Q 903 2953 641 2809 
L 641 3341 
Q 956 3463 1253 3523 
Q 1550 3584 1831 3584 
Q 2591 3584 2966 3190 
Q 3341 2797 3341 1997 
z
" transform="scale(0.015625)"/>
       <path id="DejaVuSans-72" d="M 2631 2963 
Q 2534 3019 2420 3045 
Q 2306 3072 2169 3072 
Q 1681 3072 1420 2755 
Q 1159 2438 1159 1844 
L 1159 0 
L 581 0 
L 581 3500 
L 1159 3500 
L 1159 2956 
Q 1341 3275 1631 3429 
Q 1922 3584 2338 3584 
Q 2397 3584 2469 3576 
Q 2541 3569 2628 3553 
L 2631 2963 
z
" transform="scale(0.015625)"/>
      </defs>
      <use xlink:href="#DejaVuSans-4d"/>
      <use xlink:href="#DejaVuSans-69" transform="translate(86.279297 0)"/>
      <use xlink:href="#DejaVuSans-6e" transform="translate(114.0625 0)"/>
      <use xlink:href="#DejaVuSans-75" transform="translate(177.441406 0)"/>
      <use xlink:href="#DejaVuSans-74" transform="translate(240.820312 0)"/>
      <use xlink:href="#DejaVuSans-65" transform="translate(280.029297 0)"/>
      <use xlink:href="#DejaVuSans-73" transform="translate(341.552734 0)"/>
      <use xlink:href="#DejaVuSans-20" transform="translate(393.652344 0)"/>
      <use xlink:href="#DejaVuSans-73" transform="translate(425.439453 0)"/>
      <use xlink:href="#DejaVuSans-69" transform="translate(477.539062 0)"/>
      <use xlink:href="#DejaVuSans-6e" transform="translate(505.322266 0)"/>
      <use xlink:href="#DejaVuSans-63" transform="translate(568.701172 0)"/>
      <use xlink:href="#DejaVuSans-65" transform="translate(623.681641 0)"/>
      <use xlink:href="#DejaVuSans-20" transform="translate(685.205078 0)"/>
      <use xlink:href="#DejaVuSans-73" transform="translate(716.992188 0)"/>
      <use xlink:href="#DejaVuSans-65" transform="translate(769.091797 0)"/>
      <use xlink:href="#DejaVuSans-73" transform="translate(830.615234 0)"/>
      <use xlink:href="#DejaVuSans-73" transform="translate(882.714844 0)"/>
      <use xlink:href="#DejaVuSans-69" transform="translate(934.814453 0)"/>
      <use xlink:href="#DejaVuSans-6f" transform="translate(962.597656 0)"/>
      <use xlink:href="#DejaVuSans-6e" transform="translate(1023.779297 0)"/>
      <use xlink:href="#DejaVuSans-20" transform="translate(1087.158203 0)"/>
      <use xlink:href="#DejaVuSans-73" transform="translate(1118.945312 0)"/>
      <use xlink:href="#DejaVuSans-74" transform="translate(1171.044922 0)"/>
      <use xlink:href="#DejaVuSans-61" transform="translate(1210.253906 0)"/>
      <use xlink:href="#DejaVuSans-72" transform="translate(1271.533203 0)"/>
      <use xlink:href="#DejaVuSans-74" transform="translate(1312.646484 0)"/>
     </g>
    </g>
   </g>
   <g id="matplotlib.axis_2">
    <g id="ytick_1">
     <g id="line2d_17">
      <path d="M 53.643438 227.22598 
L 935.330937 227.22598 
" clip-path="url(#peef9f40b99)" style="fill: none; stroke: #eef2f7; stroke-opacity: 0.25; stroke-width: 0.55; stroke-linecap: square"/>
     </g>
     <g id="line2d_18">
      <defs>
       <path id="m1d18c3930e" d="M 0 0 
L -3.5 0 
" style="stroke: #000000; stroke-width: 0.8"/>
      </defs>
      <g>
       <use xlink:href="#m1d18c3930e" x="53.643438" y="227.22598" style="stroke: #000000; stroke-width: 0.8"/>
      </g>
     </g>
     <g id="text_10">
      <!-- 28.75 -->
      <g transform="translate(20.878125 230.645277) scale(0.09 -0.09)">
       <defs>
        <path id="DejaVuSans-2e" d="M 684 794 
L 1344 794 
L 1344 0 
L 684 0 
L 684 794 
z
" transform="scale(0.015625)"/>
        <path id="DejaVuSans-37" d="M 525 4666 
L 3525 4666 
L 3525 4397 
L 1831 0 
L 1172 0 
L 2766 4134 
L 525 4134 
L 525 4666 
z
" transform="scale(0.015625)"/>
        <path id="DejaVuSans-35" d="M 691 4666 
L 3169 4666 
L 3169 4134 
L 1269 4134 
L 1269 2991 
Q 1406 3038 1543 3061 
Q 1681 3084 1819 3084 
Q 2600 3084 3056 2656 
Q 3513 2228 3513 1497 
Q 3513 744 3044 326 
Q 2575 -91 1722 -91 
Q 1428 -91 1123 -41 
Q 819 9 494 109 
L 494 744 
Q 775 591 1075 516 
Q 1375 441 1709 441 
Q 2250 441 2565 725 
Q 2881 1009 2881 1497 
Q 2881 1984 2565 2268 
Q 2250 2553 1709 2553 
Q 1456 2553 1204 2497 
Q 953 2441 691 2322 
L 691 4666 
z
" transform="scale(0.015625)"/>
       </defs>
       <use xlink:href="#DejaVuSans-32"/>
       <use xlink:href="#DejaVuSans-38" transform="translate(63.623047 0)"/>
       <use xlink:href="#DejaVuSans-2e" transform="translate(127.246094 0)"/>
       <use xlink:href="#DejaVuSans-37" transform="translate(159.033203 0)"/>
       <use xlink:href="#DejaVuSans-35" transform="translate(222.65625 0)"/>
      </g>
     </g>
    </g>
    <g id="ytick_2">
     <g id="line2d_19">
      <path d="M 53.643438 202.529793 
L 935.330937 202.529793 
" clip-path="url(#peef9f40b99)" style="fill: none; stroke: #eef2f7; stroke-opacity: 0.25; stroke-width: 0.55; stroke-linecap: square"/>
     </g>
     <g id="line2d_20">
      <g>
       <use xlink:href="#m1d18c3930e" x="53.643438" y="202.529793" style="stroke: #000000; stroke-width: 0.8"/>
      </g>
     </g>
     <g id="text_11">
      <!-- 29.00 -->
      <g transform="translate(20.878125 205.94909) scale(0.09 -0.09)">
       <defs>
        <path id="DejaVuSans-39" d="M 703 97 
L 703 672 
Q 941 559 1184 500 
Q 1428 441 1663 441 
Q 2288 441 2617 861 
Q 2947 1281 2994 2138 
Q 2813 1869 2534 1725 
Q 2256 1581 1919 1581 
Q 1219 1581 811 2004 
Q 403 2428 403 3163 
Q 403 3881 828 4315 
Q 1253 4750 1959 4750 
Q 2769 4750 3195 4129 
Q 3622 3509 3622 2328 
Q 3622 1225 3098 567 
Q 2575 -91 1691 -91 
Q 1453 -91 1209 -44 
Q 966 3 703 97 
z
M 1959 2075 
Q 2384 2075 2632 2365 
Q 2881 2656 2881 3163 
Q 2881 3666 2632 3958 
Q 2384 4250 1959 4250 
Q 1534 4250 1286 3958 
Q 1038 3666 1038 3163 
Q 1038 2656 1286 2365 
Q 1534 2075 1959 2075 
z
" transform="scale(0.015625)"/>
       </defs>
       <use xlink:href="#DejaVuSans-32"/>
       <use xlink:href="#DejaVuSans-39" transform="translate(63.623047 0)"/>
       <use xlink:href="#DejaVuSans-2e" transform="translate(127.246094 0)"/>
       <use xlink:href="#DejaVuSans-30" transform="translate(159.033203 0)"/>
       <use xlink:href="#DejaVuSans-30" transform="translate(222.65625 0)"/>
      </g>
     </g>
    </g>
    <g id="ytick_3">
     <g id="line2d_21">
      <path d="M 53.643438 177.833607 
L 935.330937 177.833607 
" clip-path="url(#peef9f40b99)" style="fill: none; stroke: #eef2f7; stroke-opacity: 0.25; stroke-width: 0.55; stroke-linecap: square"/>
     </g>
     <g id="line2d_22">
      <g>
       <use xlink:href="#m1d18c3930e" x="53.643438" y="177.833607" style="stroke: #000000; stroke-width: 0.8"/>
      </g>
     </g>
     <g id="text_12">
      <!-- 29.25 -->
      <g transform="translate(20.878125 181.252904) scale(0.09 -0.09)">
       <use xlink:href="#DejaVuSans-32"/>
       <use xlink:href="#DejaVuSans-39" transform="translate(63.623047 0)"/>
       <use xlink:href="#DejaVuSans-2e" transform="translate(127.246094 0)"/>
       <use xlink:href="#DejaVuSans-32" transform="translate(159.033203 0)"/>
       <use xlink:href="#DejaVuSans-35" transform="translate(222.65625 0)"/>
      </g>
     </g>
    </g>
    <g id="ytick_4">
     <g id="line2d_23">
      <path d="M 53.643438 153.13742 
L 935.330937 153.13742 
" clip-path="url(#peef9f40b99)" style="fill: none; stroke: #eef2f7; stroke-opacity: 0.25; stroke-width: 0.55; stroke-linecap: square"/>
     </g>
     <g id="line2d_24">
      <g>
       <use xlink:href="#m1d18c3930e" x="53.643438" y="153.13742" style="stroke: #000000; stroke-width: 0.8"/>
      </g>
     </g>
     <g id="text_13">
      <!-- 29.50 -->
      <g transform="translate(20.878125 156.556717) scale(0.09 -0.09)">
       <use xlink:href="#DejaVuSans-32"/>
       <use xlink:href="#DejaVuSans-39" transform="translate(63.623047 0)"/>
       <use xlink:href="#DejaVuSans-2e" transform="translate(127.246094 0)"/>
       <use xlink:href="#DejaVuSans-35" transform="translate(159.033203 0)"/>
       <use xlink:href="#DejaVuSans-30" transform="translate(222.65625 0)"/>
      </g>
     </g>
    </g>
    <g id="ytick_5">
     <g id="line2d_25">
      <path d="M 53.643438 128.441234 
L 935.330937 128.441234 
" clip-path="url(#peef9f40b99)" style="fill: none; stroke: #eef2f7; stroke-opacity: 0.25; stroke-width: 0.55; stroke-linecap: square"/>
     </g>
     <g id="line2d_26">
      <g>
       <use xlink:href="#m1d18c3930e" x="53.643438" y="128.441234" style="stroke: #000000; stroke-width: 0.8"/>
      </g>
     </g>
     <g id="text_14">
      <!-- 29.75 -->
      <g transform="translate(20.878125 131.860531) scale(0.09 -0.09)">
       <use xlink:href="#DejaVuSans-32"/>
       <use xlink:href="#DejaVuSans-39" transform="translate(63.623047 0)"/>
       <use xlink:href="#DejaVuSans-2e" transform="translate(127.246094 0)"/>
       <use xlink:href="#DejaVuSans-37" transform="translate(159.033203 0)"/>
       <use xlink:href="#DejaVuSans-35" transform="translate(222.65625 0)"/>
      </g>
     </g>
    </g>
    <g id="ytick_6">
     <g id="line2d_27">
      <path d="M 53.643438 103.745047 
L 935.330937 103.745047 
" clip-path="url(#peef9f40b99)" style="fill: none; stroke: #eef2f7; stroke-opacity: 0.25; stroke-width: 0.55; stroke-linecap: square"/>
     </g>
     <g id="line2d_28">
      <g>
       <use xlink:href="#m1d18c3930e" x="53.643438" y="103.745047" style="stroke: #000000; stroke-width: 0.8"/>
      </g>
     </g>
     <g id="text_15">
      <!-- 30.00 -->
      <g transform="translate(20.878125 107.164344) scale(0.09 -0.09)">
       <defs>
        <path id="DejaVuSans-33" d="M 2597 2516 
Q 3050 2419 3304 2112 
Q 3559 1806 3559 1356 
Q 3559 666 3084 287 
Q 2609 -91 1734 -91 
Q 1441 -91 1130 -33 
Q 819 25 488 141 
L 488 750 
Q 750 597 1062 519 
Q 1375 441 1716 441 
Q 2309 441 2620 675 
Q 2931 909 2931 1356 
Q 2931 1769 2642 2001 
Q 2353 2234 1838 2234 
L 1294 2234 
L 1294 2753 
L 1863 2753 
Q 2328 2753 2575 2939 
Q 2822 3125 2822 3475 
Q 2822 3834 2567 4026 
Q 2313 4219 1838 4219 
Q 1578 4219 1281 4162 
Q 984 4106 628 3988 
L 628 4550 
Q 988 4650 1302 4700 
Q 1616 4750 1894 4750 
Q 2613 4750 3031 4423 
Q 3450 4097 3450 3541 
Q 3450 3153 3228 2886 
Q 3006 2619 2597 2516 
z
" transform="scale(0.015625)"/>
       </defs>
       <use xlink:href="#DejaVuSans-33"/>
       <use xlink:href="#DejaVuSans-30" transform="translate(63.623047 0)"/>
       <use xlink:href="#DejaVuSans-2e" transform="translate(127.246094 0)"/>
       <use xlink:href="#DejaVuSans-30" transform="translate(159.033203 0)"/>
       <use xlink:href="#DejaVuSans-30" transform="translate(222.65625 0)"/>
      </g>
     </g>
    </g>
    <g id="ytick_7">
     <g id="line2d_29">
      <path d="M 53.643438 79.048861 
L 935.330937 79.048861 
" clip-path="url(#peef9f40b99)" style="fill: none; stroke: #eef2f7; stroke-opacity: 0.25; stroke-width: 0.55; stroke-linecap: square"/>
     </g>
     <g id="line2d_30">
      <g>
       <use xlink:href="#m1d18c3930e" x="53.643438" y="79.048861" style="stroke: #000000; stroke-width: 0.8"/>
      </g>
     </g>
     <g id="text_16">
      <!-- 30.25 -->
      <g transform="translate(20.878125 82.468158) scale(0.09 -0.09)">
       <use xlink:href="#DejaVuSans-33"/>
       <use xlink:href="#DejaVuSans-30" transform="translate(63.623047 0)"/>
       <use xlink:href="#DejaVuSans-2e" transform="translate(127.246094 0)"/>
       <use xlink:href="#DejaVuSans-32" transform="translate(159.033203 0)"/>
       <use xlink:href="#DejaVuSans-35" transform="translate(222.65625 0)"/>
      </g>
     </g>
    </g>
    <g id="ytick_8">
     <g id="line2d_31">
      <path d="M 53.643438 54.352674 
L 935.330937 54.352674 
" clip-path="url(#peef9f40b99)" style="fill: none; stroke: #eef2f7; stroke-opacity: 0.25; stroke-width: 0.55; stroke-linecap: square"/>
     </g>
     <g id="line2d_32">
      <g>
       <use xlink:href="#m1d18c3930e" x="53.643438" y="54.352674" style="stroke: #000000; stroke-width: 0.8"/>
      </g>
     </g>
     <g id="text_17">
      <!-- 30.50 -->
      <g transform="translate(20.878125 57.771971) scale(0.09 -0.09)">
       <use xlink:href="#DejaVuSans-33"/>
       <use xlink:href="#DejaVuSans-30" transform="translate(63.623047 0)"/>
       <use xlink:href="#DejaVuSans-2e" transform="translate(127.246094 0)"/>
       <use xlink:href="#DejaVuSans-35" transform="translate(159.033203 0)"/>
       <use xlink:href="#DejaVuSans-30" transform="translate(222.65625 0)"/>
      </g>
     </g>
    </g>
    <g id="ytick_9">
     <g id="line2d_33">
      <path d="M 53.643438 29.656488 
L 935.330937 29.656488 
" clip-path="url(#peef9f40b99)" style="fill: none; stroke: #eef2f7; stroke-opacity: 0.25; stroke-width: 0.55; stroke-linecap: square"/>
     </g>
     <g id="line2d_34">
      <g>
       <use xlink:href="#m1d18c3930e" x="53.643438" y="29.656488" style="stroke: #000000; stroke-width: 0.8"/>
      </g>
     </g>
     <g id="text_18">
      <!-- 30.75 -->
      <g transform="translate(20.878125 33.075785) scale(0.09 -0.09)">
       <use xlink:href="#DejaVuSans-33"/>
       <use xlink:href="#DejaVuSans-30" transform="translate(63.623047 0)"/>
       <use xlink:href="#DejaVuSans-2e" transform="translate(127.246094 0)"/>
       <use xlink:href="#DejaVuSans-37" transform="translate(159.033203 0)"/>
       <use xlink:href="#DejaVuSans-35" transform="translate(222.65625 0)"/>
      </g>
     </g>
    </g>
    <g id="text_19">
     <!-- Temperature (C) -->
     <g transform="translate(14.798438 163.659635) rotate(-90) scale(0.1 -0.1)">
      <defs>
       <path id="DejaVuSans-54" d="M -19 4666 
L 3928 4666 
L 3928 4134 
L 2272 4134 
L 2272 0 
L 1638 0 
L 1638 4134 
L -19 4134 
L -19 4666 
z
" transform="scale(0.015625)"/>
       <path id="DejaVuSans-6d" d="M 3328 2828 
Q 3544 3216 3844 3400 
Q 4144 3584 4550 3584 
Q 5097 3584 5394 3201 
Q 5691 2819 5691 2113 
L 5691 0 
L 5113 0 
L 5113 2094 
Q 5113 2597 4934 2840 
Q 4756 3084 4391 3084 
Q 3944 3084 3684 2787 
Q 3425 2491 3425 1978 
L 3425 0 
L 2847 0 
L 2847 2094 
Q 2847 2600 2669 2842 
Q 2491 3084 2119 3084 
Q 1678 3084 1418 2786 
Q 1159 2488 1159 1978 
L 1159 0 
L 581 0 
L 581 3500 
L 1159 3500 
L 1159 2956 
Q 1356 3278 1631 3431 
Q 1906 3584 2284 3584 
Q 2666 3584 2933 3390 
Q 3200 3197 3328 2828 
z
" transform="scale(0.015625)"/>
       <path id="DejaVuSans-70" d="M 1159 525 
L 1159 -1331 
L 581 -1331 
L 581 3500 
L 1159 3500 
L 1159 2969 
Q 1341 3281 1617 3432 
Q 1894 3584 2278 3584 
Q 2916 3584 3314 3078 
Q 3713 2572 3713 1747 
Q 3713 922 3314 415 
Q 2916 -91 2278 -91 
Q 1894 -91 1617 61 
Q 1341 213 1159 525 
z
M 3116 1747 
Q 3116 2381 2855 2742 
Q 2594 3103 2138 3103 
Q 1681 3103 1420 2742 
Q 1159 2381 1159 1747 
Q 1159 1113 1420 752 
Q 1681 391 2138 391 
Q 2594 391 2855 752 
Q 3116 1113 3116 1747 
z
" transform="scale(0.015625)"/>
       <path id="DejaVuSans-28" d="M 1984 4856 
Q 1566 4138 1362 3434 
Q 1159 2731 1159 2009 
Q 1159 1288 1364 580 
Q 1569 -128 1984 -844 
L 1484 -844 
Q 1016 -109 783 600 
Q 550 1309 550 2009 
Q 550 2706 781 3412 
Q 1013 4119 1484 4856 
L 1984 4856 
z
" transform="scale(0.015625)"/>
       <path id="DejaVuSans-43" d="M 4122 4306 
L 4122 3641 
Q 3803 3938 3442 4084 
Q 3081 4231 2675 4231 
Q 1875 4231 1450 3742 
Q 1025 3253 1025 2328 
Q 1025 1406 1450 917 
Q 1875 428 2675 428 
Q 3081 428 3442 575 
Q 3803 722 4122 1019 
L 4122 359 
Q 3791 134 3420 21 
Q 3050 -91 2638 -91 
Q 1578 -91 968 557 
Q 359 1206 359 2328 
Q 359 3453 968 4101 
Q 1578 4750 2638 4750 
Q 3056 4750 3426 4639 
Q 3797 4528 4122 4306 
z
" transform="scale(0.015625)"/>
       <path id="DejaVuSans-29" d="M 513 4856 
L 1013 4856 
Q 1481 4119 1714 3412 
Q 1947 2706 1947 2009 
Q 1947 1309 1714 600 
Q 1481 -109 1013 -844 
L 513 -844 
Q 928 -128 1133 580 
Q 1338 1288 1338 2009 
Q 1338 2731 1133 3434 
Q 928 4138 513 4856 
z
" transform="scale(0.015625)"/>
      </defs>
      <use xlink:href="#DejaVuSans-54"/>
      <use xlink:href="#DejaVuSans-65" transform="translate(44.083984 0)"/>
      <use xlink:href="#DejaVuSans-6d" transform="translate(105.607422 0)"/>
      <use xlink:href="#DejaVuSans-70" transform="translate(203.019531 0)"/>
      <use xlink:href="#DejaVuSans-65" transform="translate(266.496094 0)"/>
      <use xlink:href="#DejaVuSans-72" transform="translate(328.019531 0)"/>
      <use xlink:href="#DejaVuSans-61" transform="translate(369.132812 0)"/>
      <use xlink:href="#DejaVuSans-74" transform="translate(430.412109 0)"/>
      <use xlink:href="#DejaVuSans-75" transform="translate(469.621094 0)"/>
      <use xlink:href="#DejaVuSans-72" transform="translate(533 0)"/>
      <use xlink:href="#DejaVuSans-65" transform="translate(571.863281 0)"/>
      <use xlink:href="#DejaVuSans-20" transform="translate(633.386719 0)"/>
      <use xlink:href="#DejaVuSans-28" transform="translate(665.173828 0)"/>
      <use xlink:href="#DejaVuSans-43" transform="translate(704.1875 0)"/>
      <use xlink:href="#DejaVuSans-29" transform="translate(774.011719 0)"/>
     </g>
    </g>
   </g>
   <g id="line2d_35">
    <path d="M 70.598966 83.988098 
L 76.139989 100.781505 
L 81.681011 92.878725 
L 87.222034 87.939488 
L 92.763056 95.842268 
L 98.304079 92.878725 
L 103.845101 79.048861 
L 109.386124 73.121776 
L 114.927146 75.097471 
L 126.009191 74.109624 
L 131.550214 83.000251 
L 134.320725 80.036708 
L 137.091236 78.061013 
L 142.632259 83.000251 
L 148.173281 80.036708 
L 153.714304 84.975946 
L 159.255326 82.012403 
L 164.796349 81.024556 
L 175.878394 81.024556 
L 181.419416 78.061013 
L 186.960439 78.061013 
L 192.501461 72.133929 
L 198.042484 78.061013 
L 203.583506 71.146081 
L 214.665551 76.085318 
L 231.288619 73.121776 
L 236.829641 70.158234 
L 242.370664 69.170386 
L 247.911686 64.231149 
L 253.452709 74.109624 
L 258.993731 55.340522 
L 264.534754 83.988098 
L 270.075776 82.012403 
L 275.616799 83.988098 
L 281.157821 89.915183 
L 286.698844 81.024556 
L 292.239866 85.963793 
L 297.780889 82.012403 
L 303.321911 86.951641 
L 308.862934 88.927335 
L 314.403956 83.988098 
L 319.944979 83.000251 
L 331.027024 84.975946 
L 336.568046 86.951641 
L 342.109069 83.000251 
L 347.650091 82.012403 
L 353.191114 82.012403 
L 358.732136 77.073166 
L 364.273159 83.000251 
L 369.814181 83.988098 
L 375.355204 85.963793 
L 380.896226 76.085318 
L 386.437249 80.036708 
L 391.978271 75.097471 
L 397.519294 85.963793 
L 403.060316 80.036708 
L 408.601339 81.024556 
L 414.142361 83.988098 
L 419.683384 80.036708 
L 425.224406 70.158234 
L 436.306451 59.291912 
L 441.847474 65.218996 
L 447.388496 59.291912 
L 452.929519 70.158234 
L 458.470541 78.061013 
L 464.011564 79.048861 
L 469.552586 82.012403 
L 475.093609 78.061013 
L 480.634631 85.963793 
L 486.175654 83.988098 
L 491.716676 90.90303 
L 497.257699 90.90303 
L 502.798721 80.036708 
L 508.339744 78.061013 
L 513.880766 71.146081 
L 519.421789 70.158234 
L 530.503834 73.121776 
L 536.044856 78.061013 
L 541.585879 81.024556 
L 547.126901 72.133929 
L 552.667924 57.316217 
L 558.208946 60.279759 
L 563.749969 67.194691 
L 574.832014 88.927335 
L 580.373036 86.951641 
L 585.914059 85.963793 
L 591.455081 88.927335 
L 596.996104 92.878725 
L 602.537126 92.878725 
L 608.078149 91.890878 
L 619.160194 87.939488 
L 624.701216 94.85442 
L 630.242239 91.890878 
L 635.783261 89.915183 
L 641.324284 91.890878 
L 646.865306 92.878725 
L 652.406329 95.842268 
L 657.947351 90.90303 
L 663.488374 93.866573 
L 669.029396 95.842268 
L 680.111441 93.866573 
L 685.652464 91.890878 
L 691.193486 96.830115 
L 696.734509 90.90303 
L 702.275531 93.866573 
L 707.816554 94.85442 
L 713.357576 93.866573 
L 718.898599 93.866573 
L 724.439621 92.878725 
L 729.980644 81.024556 
L 735.521666 83.000251 
L 741.062689 76.085318 
L 746.603711 80.036708 
L 752.144734 81.024556 
L 757.685756 77.073166 
L 763.226779 76.085318 
L 774.308824 91.890878 
L 779.849846 91.890878 
L 785.390869 95.842268 
L 790.931891 92.878725 
L 802.013936 94.85442 
L 807.554959 99.793658 
L 813.095981 87.939488 
L 818.637004 81.024556 
L 829.719049 83.000251 
L 835.260071 84.975946 
L 840.801094 83.988098 
L 846.342116 81.024556 
L 851.883139 79.048861 
L 857.424161 81.024556 
L 862.965184 72.133929 
L 868.506206 83.000251 
L 874.047229 73.121776 
L 879.588251 92.878725 
L 885.129274 94.85442 
L 887.899785 97.817963 
L 890.670296 101.769352 
L 896.211319 101.769352 
L 901.752341 102.7572 
L 907.293364 100.781505 
L 912.834386 105.720742 
L 918.375409 100.781505 
L 918.375409 100.781505 
" clip-path="url(#peef9f40b99)" style="fill: none; stroke: #fdc38d; stroke-opacity: 0.95; stroke-width: 1.3; stroke-linecap: square"/>
   </g>
   <g id="line2d_36">
    <path d="M 70.598966 115.599217 
L 76.139989 115.599217 
L 81.681011 116.587064 
L 87.222034 108.684285 
L 92.763056 108.684285 
L 98.304079 116.587064 
L 103.845101 102.7572 
L 109.386124 100.781505 
L 114.927146 100.781505 
L 126.009191 97.817963 
L 137.091236 89.915183 
L 142.632259 98.80581 
L 148.173281 102.7572 
L 153.714304 102.7572 
L 159.255326 106.70859 
L 164.796349 100.781505 
L 170.337371 106.70859 
L 175.878394 114.611369 
L 181.419416 108.684285 
L 186.960439 104.732895 
L 192.501461 96.830115 
L 198.042484 98.80581 
L 203.583506 88.927335 
L 214.665551 93.866573 
L 220.206574 109.672132 
L 225.747596 103.745047 
L 231.288619 102.7572 
L 236.829641 99.793658 
L 242.370664 83.988098 
L 247.911686 81.024556 
L 253.452709 93.866573 
L 258.993731 86.951641 
L 264.534754 104.732895 
L 270.075776 98.80581 
L 275.616799 106.70859 
L 286.698844 104.732895 
L 292.239866 111.647827 
L 297.780889 104.732895 
L 303.321911 109.672132 
L 308.862934 109.672132 
L 314.403956 111.647827 
L 319.944979 109.672132 
L 325.486001 106.70859 
L 331.027024 108.684285 
L 336.568046 113.623522 
L 342.109069 110.65998 
L 347.650091 115.599217 
L 353.191114 108.684285 
L 358.732136 107.696437 
L 364.273159 120.538454 
L 369.814181 115.599217 
L 375.355204 115.599217 
L 380.896226 104.732895 
L 386.437249 113.623522 
L 391.978271 108.684285 
L 397.519294 113.623522 
L 403.060316 105.720742 
L 408.601339 100.781505 
L 414.142361 105.720742 
L 419.683384 94.85442 
L 425.224406 92.878725 
L 436.306451 84.975946 
L 441.847474 89.915183 
L 447.388496 87.939488 
L 452.929519 93.866573 
L 458.470541 101.769352 
L 464.011564 105.720742 
L 469.552586 116.587064 
L 475.093609 114.611369 
L 480.634631 113.623522 
L 486.175654 117.574912 
L 491.716676 113.623522 
L 497.257699 115.599217 
L 502.798721 95.842268 
L 508.339744 93.866573 
L 513.880766 92.878725 
L 519.421789 93.866573 
L 530.503834 91.890878 
L 536.044856 92.878725 
L 541.585879 96.830115 
L 547.126901 88.927335 
L 552.667924 85.963793 
L 558.208946 93.866573 
L 563.749969 96.830115 
L 569.290991 111.647827 
L 574.832014 116.587064 
L 577.602525 117.574912 
L 580.373036 117.574912 
L 591.455081 113.623522 
L 596.996104 119.550607 
L 602.537126 127.453386 
L 608.078149 123.501997 
L 613.619171 118.562759 
L 619.160194 117.574912 
L 624.701216 128.441234 
L 630.242239 118.562759 
L 635.783261 116.587064 
L 641.324284 116.587064 
L 646.865306 121.526302 
L 652.406329 118.562759 
L 657.947351 126.465539 
L 663.488374 118.562759 
L 669.029396 118.562759 
L 674.570419 127.453386 
L 691.193486 124.489844 
L 696.734509 124.489844 
L 702.275531 120.538454 
L 707.816554 127.453386 
L 713.357576 118.562759 
L 718.898599 119.550607 
L 724.439621 115.599217 
L 729.980644 109.672132 
L 735.521666 99.793658 
L 741.062689 107.696437 
L 746.603711 99.793658 
L 752.144734 107.696437 
L 757.685756 105.720742 
L 763.226779 105.720742 
L 768.767801 114.611369 
L 774.308824 120.538454 
L 779.849846 128.441234 
L 785.390869 115.599217 
L 790.931891 122.514149 
L 796.472914 124.489844 
L 802.013936 121.526302 
L 807.554959 128.441234 
L 813.095981 115.599217 
L 818.637004 105.720742 
L 829.719049 105.720742 
L 835.260071 107.696437 
L 840.801094 110.65998 
L 846.342116 112.635674 
L 851.883139 108.684285 
L 857.424161 113.623522 
L 862.965184 103.745047 
L 868.506206 111.647827 
L 874.047229 107.696437 
L 879.588251 125.477691 
L 885.129274 122.514149 
L 887.899785 123.501997 
L 890.670296 125.477691 
L 896.211319 121.526302 
L 901.752341 124.489844 
L 907.293364 119.550607 
L 912.834386 135.356166 
L 918.375409 130.416929 
L 918.375409 130.416929 
" clip-path="url(#peef9f40b99)" style="fill: none; stroke: #fdac67; stroke-opacity: 0.95; stroke-width: 1.3; stroke-linecap: square"/>
   </g>
   <g id="line2d_37">
    <path d="M 70.598966 186.724234 
L 76.139989 189.687776 
L 81.681011 183.760692 
L 87.222034 206.481183 
L 92.763056 197.590556 
L 98.304079 199.566251 
L 103.845101 197.590556 
L 109.386124 209.444725 
L 114.927146 198.578403 
L 126.009191 184.748539 
L 131.550214 178.821454 
L 134.320725 188.699929 
L 137.091236 197.590556 
L 142.632259 196.602709 
L 148.173281 192.651319 
L 159.255326 208.456878 
L 164.796349 184.748539 
L 170.337371 185.736386 
L 175.878394 192.651319 
L 181.419416 195.614861 
L 186.960439 174.870064 
L 192.501461 175.857912 
L 198.042484 150.173878 
L 203.583506 146.222488 
L 214.665551 164.003742 
L 220.206574 153.13742 
L 225.747596 151.161725 
L 231.288619 146.222488 
L 236.829641 147.210336 
L 242.370664 162.028047 
L 247.911686 171.906522 
L 253.452709 142.271098 
L 258.993731 173.882217 
L 264.534754 186.724234 
L 270.075776 176.845759 
L 275.616799 181.784997 
L 281.157821 196.602709 
L 286.698844 189.687776 
L 292.239866 190.675624 
L 297.780889 166.967285 
L 303.321911 168.94298 
L 308.862934 184.748539 
L 314.403956 178.821454 
L 319.944979 177.833607 
L 325.486001 180.797149 
L 331.027024 160.052353 
L 336.568046 184.748539 
L 342.109069 188.699929 
L 347.650091 188.699929 
L 353.191114 181.784997 
L 358.732136 180.797149 
L 364.273159 177.833607 
L 369.814181 178.821454 
L 375.355204 196.602709 
L 380.896226 178.821454 
L 386.437249 170.918675 
L 391.978271 191.663471 
L 403.060316 195.614861 
L 408.601339 182.772844 
L 414.142361 164.003742 
L 419.683384 193.639166 
L 425.224406 206.481183 
L 436.306451 191.663471 
L 441.847474 203.517641 
L 444.617985 200.554098 
L 447.388496 198.578403 
L 452.929519 187.712081 
L 458.470541 184.748539 
L 464.011564 191.663471 
L 469.552586 188.699929 
L 475.093609 177.833607 
L 480.634631 184.748539 
L 486.175654 184.748539 
L 491.716676 183.760692 
L 497.257699 185.736386 
L 502.798721 180.797149 
L 508.339744 202.529793 
L 513.880766 185.736386 
L 519.421789 202.529793 
L 530.503834 203.517641 
L 536.044856 181.784997 
L 541.585879 187.712081 
L 547.126901 195.614861 
L 552.667924 194.627014 
L 558.208946 192.651319 
L 563.749969 195.614861 
L 569.290991 196.602709 
L 574.832014 199.566251 
L 580.373036 201.541946 
L 585.914059 194.627014 
L 591.455081 182.772844 
L 602.537126 180.797149 
L 608.078149 189.687776 
L 613.619171 195.614861 
L 619.160194 171.906522 
L 624.701216 196.602709 
L 630.242239 177.833607 
L 635.783261 187.712081 
L 641.324284 188.699929 
L 646.865306 183.760692 
L 652.406329 191.663471 
L 657.947351 186.724234 
L 663.488374 199.566251 
L 669.029396 189.687776 
L 674.570419 188.699929 
L 680.111441 192.651319 
L 685.652464 191.663471 
L 691.193486 194.627014 
L 696.734509 186.724234 
L 702.275531 188.699929 
L 713.357576 200.554098 
L 718.898599 186.724234 
L 724.439621 203.517641 
L 735.521666 211.42042 
L 741.062689 201.541946 
L 746.603711 176.845759 
L 752.144734 196.602709 
L 757.685756 211.42042 
L 763.226779 206.481183 
L 768.767801 203.517641 
L 774.308824 210.432573 
L 779.849846 186.724234 
L 785.390869 197.590556 
L 790.931891 195.614861 
L 796.472914 194.627014 
L 802.013936 202.529793 
L 807.554959 181.784997 
L 813.095981 209.444725 
L 818.637004 217.347505 
L 829.719049 214.383963 
L 835.260071 212.408268 
L 840.801094 208.456878 
L 846.342116 218.335353 
L 851.883139 202.529793 
L 857.424161 202.529793 
L 862.965184 212.408268 
L 868.506206 213.396115 
L 874.047229 202.529793 
L 879.588251 205.493336 
L 885.129274 209.444725 
L 887.899785 202.529793 
L 890.670296 194.627014 
L 896.211319 198.578403 
L 901.752341 219.3232 
L 907.293364 204.505488 
L 912.834386 205.493336 
L 918.375409 203.517641 
L 918.375409 203.517641 
" clip-path="url(#peef9f40b99)" style="fill: none; stroke: #fd9547; stroke-opacity: 0.95; stroke-width: 1.3; stroke-linecap: square"/>
   </g>
   <g id="line2d_38">
    <path d="M 70.598966 61.267607 
L 76.139989 58.304064 
L 81.681011 51.389132 
L 87.222034 62.255454 
L 92.763056 57.316217 
L 98.304079 61.267607 
L 103.845101 83.988098 
L 109.386124 70.158234 
L 114.927146 62.255454 
L 126.009191 78.061013 
L 131.550214 80.036708 
L 134.320725 65.218996 
L 137.091236 49.413437 
L 142.632259 38.547115 
L 148.173281 45.462047 
L 153.714304 48.42559 
L 159.255326 52.376979 
L 164.796349 44.4742 
L 170.337371 48.42559 
L 175.878394 36.57142 
L 181.419416 48.42559 
L 186.960439 52.376979 
L 192.501461 63.243302 
L 198.042484 67.194691 
L 203.583506 57.316217 
L 214.665551 64.231149 
L 220.206574 48.42559 
L 225.747596 63.243302 
L 231.288619 52.376979 
L 236.829641 52.376979 
L 242.370664 74.109624 
L 247.911686 50.401285 
L 253.452709 57.316217 
L 258.993731 52.376979 
L 264.534754 42.498505 
L 270.075776 38.547115 
L 275.616799 44.4742 
L 281.157821 46.449895 
L 286.698844 55.340522 
L 292.239866 63.243302 
L 297.780889 48.42559 
L 303.321911 65.218996 
L 308.862934 49.413437 
L 314.403956 69.170386 
L 319.944979 64.231149 
L 325.486001 47.437742 
L 331.027024 53.364827 
L 336.568046 54.352674 
L 342.109069 27.680793 
L 347.650091 38.547115 
L 353.191114 50.401285 
L 358.732136 43.486352 
L 364.273159 57.316217 
L 369.814181 48.42559 
L 375.355204 54.352674 
L 380.896226 42.498505 
L 386.437249 35.583573 
L 391.978271 26.692946 
L 397.519294 47.437742 
L 403.060316 53.364827 
L 408.601339 53.364827 
L 414.142361 64.231149 
L 419.683384 80.036708 
L 425.224406 55.340522 
L 436.306451 50.401285 
L 441.847474 68.182539 
L 447.388496 50.401285 
L 452.929519 43.486352 
L 458.470541 37.559268 
L 464.011564 42.498505 
L 469.552586 38.547115 
L 475.093609 53.364827 
L 480.634631 42.498505 
L 486.175654 56.328369 
L 491.716676 56.328369 
L 497.257699 67.194691 
L 502.798721 70.158234 
L 508.339744 71.146081 
L 513.880766 58.304064 
L 519.421789 55.340522 
L 530.503834 75.097471 
L 536.044856 66.206844 
L 541.585879 69.170386 
L 547.126901 62.255454 
L 552.667924 75.097471 
L 558.208946 69.170386 
L 563.749969 66.206844 
L 569.290991 53.364827 
L 574.832014 50.401285 
L 577.602525 53.364827 
L 580.373036 57.316217 
L 585.914059 55.340522 
L 591.455081 60.279759 
L 596.996104 54.352674 
L 602.537126 59.291912 
L 608.078149 60.279759 
L 613.619171 65.218996 
L 619.160194 69.170386 
L 624.701216 69.170386 
L 630.242239 57.316217 
L 635.783261 47.437742 
L 641.324284 53.364827 
L 646.865306 48.42559 
L 652.406329 54.352674 
L 657.947351 45.462047 
L 663.488374 60.279759 
L 669.029396 48.42559 
L 674.570419 51.389132 
L 680.111441 53.364827 
L 685.652464 54.352674 
L 691.193486 59.291912 
L 696.734509 49.413437 
L 702.275531 56.328369 
L 707.816554 65.218996 
L 713.357576 51.389132 
L 718.898599 63.243302 
L 724.439621 65.218996 
L 729.980644 77.073166 
L 735.521666 64.231149 
L 741.062689 61.267607 
L 746.603711 70.158234 
L 752.144734 67.194691 
L 757.685756 53.364827 
L 763.226779 46.449895 
L 768.767801 54.352674 
L 774.308824 57.316217 
L 779.849846 46.449895 
L 785.390869 51.389132 
L 790.931891 57.316217 
L 796.472914 64.231149 
L 802.013936 66.206844 
L 807.554959 69.170386 
L 813.095981 84.975946 
L 829.719049 73.121776 
L 835.260071 73.121776 
L 840.801094 68.182539 
L 846.342116 67.194691 
L 851.883139 60.279759 
L 857.424161 68.182539 
L 862.965184 63.243302 
L 868.506206 53.364827 
L 874.047229 73.121776 
L 879.588251 62.255454 
L 885.129274 61.267607 
L 887.899785 60.279759 
L 890.670296 60.279759 
L 896.211319 53.364827 
L 901.752341 63.243302 
L 907.293364 60.279759 
L 912.834386 54.352674 
L 918.375409 66.206844 
L 918.375409 66.206844 
" clip-path="url(#peef9f40b99)" style="fill: none; stroke: #f87d29; stroke-opacity: 0.95; stroke-width: 1.3; stroke-linecap: square"/>
   </g>
   <g id="line2d_39">
    <path d="M 70.598966 121.526302 
L 76.139989 118.562759 
L 81.681011 123.501997 
L 87.222034 120.538454 
L 92.763056 128.441234 
L 98.304079 107.696437 
L 103.845101 93.866573 
L 109.386124 92.878725 
L 114.927146 93.866573 
L 131.550214 90.90303 
L 134.320725 96.830115 
L 137.091236 101.769352 
L 142.632259 120.538454 
L 148.173281 115.599217 
L 153.714304 117.574912 
L 159.255326 117.574912 
L 164.796349 115.599217 
L 170.337371 107.696437 
L 175.878394 119.550607 
L 181.419416 121.526302 
L 186.960439 107.696437 
L 198.042484 85.963793 
L 203.583506 94.85442 
L 214.665551 96.830115 
L 220.206574 93.866573 
L 225.747596 96.830115 
L 231.288619 94.85442 
L 236.829641 82.012403 
L 247.911686 85.963793 
L 253.452709 91.890878 
L 258.993731 102.7572 
L 264.534754 112.635674 
L 267.305265 115.599217 
L 270.075776 117.574912 
L 275.616799 114.611369 
L 281.157821 112.635674 
L 286.698844 116.587064 
L 292.239866 112.635674 
L 297.780889 129.429081 
L 303.321911 118.562759 
L 308.862934 124.489844 
L 314.403956 121.526302 
L 319.944979 128.441234 
L 325.486001 123.501997 
L 336.568046 131.404776 
L 342.109069 119.550607 
L 347.650091 122.514149 
L 353.191114 129.429081 
L 358.732136 125.477691 
L 364.273159 126.465539 
L 369.814181 120.538454 
L 375.355204 125.477691 
L 380.896226 116.587064 
L 386.437249 110.65998 
L 391.978271 119.550607 
L 397.519294 125.477691 
L 403.060316 128.441234 
L 408.601339 129.429081 
L 414.142361 103.745047 
L 419.683384 81.024556 
L 425.224406 85.963793 
L 436.306451 83.000251 
L 441.847474 83.000251 
L 444.617985 91.890878 
L 447.388496 101.769352 
L 452.929519 103.745047 
L 458.470541 114.611369 
L 464.011564 127.453386 
L 469.552586 123.501997 
L 475.093609 124.489844 
L 480.634631 124.489844 
L 486.175654 120.538454 
L 491.716676 126.465539 
L 497.257699 117.574912 
L 502.798721 99.793658 
L 508.339744 94.85442 
L 513.880766 87.939488 
L 519.421789 85.963793 
L 530.503834 86.951641 
L 536.044856 90.90303 
L 547.126901 86.951641 
L 552.667924 89.915183 
L 558.208946 113.623522 
L 563.749969 106.70859 
L 569.290991 112.635674 
L 574.832014 126.465539 
L 577.602525 127.453386 
L 580.373036 127.453386 
L 585.914059 126.465539 
L 591.455081 128.441234 
L 596.996104 134.368319 
L 602.537126 128.441234 
L 608.078149 128.441234 
L 613.619171 135.356166 
L 619.160194 141.283251 
L 624.701216 139.307556 
L 630.242239 142.271098 
L 635.783261 123.501997 
L 641.324284 126.465539 
L 652.406329 130.416929 
L 657.947351 126.465539 
L 663.488374 128.441234 
L 669.029396 133.380471 
L 674.570419 140.295403 
L 680.111441 131.404776 
L 685.652464 138.319708 
L 691.193486 140.295403 
L 696.734509 140.295403 
L 702.275531 127.453386 
L 707.816554 133.380471 
L 713.357576 133.380471 
L 718.898599 127.453386 
L 724.439621 115.599217 
L 729.980644 96.830115 
L 735.521666 100.781505 
L 741.062689 92.878725 
L 746.603711 98.80581 
L 752.144734 92.878725 
L 757.685756 102.7572 
L 763.226779 128.441234 
L 768.767801 124.489844 
L 774.308824 140.295403 
L 779.849846 130.416929 
L 785.390869 139.307556 
L 790.931891 137.331861 
L 796.472914 131.404776 
L 802.013936 133.380471 
L 807.554959 129.429081 
L 813.095981 107.696437 
L 818.637004 106.70859 
L 829.719049 103.745047 
L 835.260071 93.866573 
L 840.801094 97.817963 
L 846.342116 99.793658 
L 851.883139 103.745047 
L 857.424161 98.80581 
L 862.965184 94.85442 
L 868.506206 112.635674 
L 874.047229 125.477691 
L 879.588251 126.465539 
L 885.129274 138.319708 
L 887.899785 140.295403 
L 890.670296 141.283251 
L 896.211319 145.234641 
L 901.752341 138.319708 
L 912.834386 152.149573 
L 918.375409 143.258946 
L 918.375409 143.258946 
" clip-path="url(#peef9f40b99)" style="fill: none; stroke: #ee6410; stroke-opacity: 0.95; stroke-width: 1.3; stroke-linecap: square"/>
   </g>
   <g id="line2d_40">
    <path d="M 70.598966 128.441234 
L 76.139989 114.611369 
L 81.681011 130.416929 
L 87.222034 137.331861 
L 92.763056 129.429081 
L 98.304079 106.70859 
L 103.845101 87.939488 
L 109.386124 76.085318 
L 114.927146 79.048861 
L 126.009191 79.048861 
L 131.550214 80.036708 
L 134.320725 100.781505 
L 137.091236 120.538454 
L 142.632259 132.392624 
L 148.173281 127.453386 
L 153.714304 137.331861 
L 159.255326 135.356166 
L 164.796349 141.283251 
L 170.337371 152.149573 
L 175.878394 128.441234 
L 181.419416 117.574912 
L 186.960439 104.732895 
L 192.501461 99.793658 
L 198.042484 90.90303 
L 203.583506 87.939488 
L 214.665551 87.939488 
L 220.206574 93.866573 
L 231.288619 82.012403 
L 236.829641 68.182539 
L 242.370664 68.182539 
L 247.911686 65.218996 
L 253.452709 78.061013 
L 258.993731 132.392624 
L 264.534754 144.246793 
L 270.075776 152.149573 
L 275.616799 131.404776 
L 281.157821 136.344013 
L 286.698844 122.514149 
L 292.239866 147.210336 
L 297.780889 119.550607 
L 303.321911 122.514149 
L 308.862934 130.416929 
L 314.403956 132.392624 
L 319.944979 115.599217 
L 325.486001 125.477691 
L 331.027024 122.514149 
L 336.568046 136.344013 
L 342.109069 162.028047 
L 347.650091 143.258946 
L 353.191114 134.368319 
L 358.732136 164.003742 
L 364.273159 165.979437 
L 369.814181 152.149573 
L 375.355204 132.392624 
L 380.896226 128.441234 
L 386.437249 136.344013 
L 391.978271 117.574912 
L 397.519294 125.477691 
L 403.060316 144.246793 
L 408.601339 160.052353 
L 414.142361 121.526302 
L 419.683384 74.109624 
L 425.224406 61.267607 
L 436.306451 66.206844 
L 441.847474 60.279759 
L 447.388496 128.441234 
L 452.929519 152.149573 
L 458.470541 151.161725 
L 464.011564 163.015895 
L 469.552586 167.955132 
L 475.093609 152.149573 
L 480.634631 160.052353 
L 486.175654 146.222488 
L 491.716676 161.0402 
L 497.257699 130.416929 
L 502.798721 77.073166 
L 508.339744 71.146081 
L 513.880766 81.024556 
L 519.421789 69.170386 
L 530.503834 78.061013 
L 536.044856 76.085318 
L 541.585879 76.085318 
L 547.126901 78.061013 
L 552.667924 92.878725 
L 558.208946 139.307556 
L 563.749969 148.198183 
L 569.290991 136.344013 
L 574.832014 118.562759 
L 580.373036 146.222488 
L 585.914059 147.210336 
L 591.455081 154.125268 
L 596.996104 164.99159 
L 602.537126 165.979437 
L 608.078149 149.18603 
L 613.619171 160.052353 
L 619.160194 159.064505 
L 624.701216 153.13742 
L 630.242239 146.222488 
L 635.783261 169.930827 
L 641.324284 171.906522 
L 646.865306 149.18603 
L 652.406329 158.076658 
L 657.947351 142.271098 
L 669.029396 164.003742 
L 674.570419 141.283251 
L 680.111441 130.416929 
L 685.652464 153.13742 
L 691.193486 164.99159 
L 696.734509 175.857912 
L 702.275531 181.784997 
L 707.816554 169.930827 
L 713.357576 174.870064 
L 718.898599 170.918675 
L 724.439621 142.271098 
L 729.980644 87.939488 
L 735.521666 98.80581 
L 741.062689 92.878725 
L 746.603711 90.90303 
L 752.144734 96.830115 
L 757.685756 134.368319 
L 763.226779 157.08881 
L 768.767801 152.149573 
L 774.308824 140.295403 
L 779.849846 164.003742 
L 785.390869 177.833607 
L 790.931891 185.736386 
L 796.472914 167.955132 
L 802.013936 151.161725 
L 807.554959 145.234641 
L 813.095981 100.781505 
L 818.637004 97.817963 
L 829.719049 92.878725 
L 835.260071 93.866573 
L 840.801094 93.866573 
L 846.342116 87.939488 
L 851.883139 94.85442 
L 857.424161 90.90303 
L 862.965184 111.647827 
L 868.506206 148.198183 
L 874.047229 156.100963 
L 879.588251 143.258946 
L 885.129274 141.283251 
L 887.899785 161.0402 
L 890.670296 179.809302 
L 896.211319 185.736386 
L 901.752341 186.724234 
L 907.293364 166.967285 
L 912.834386 156.100963 
L 918.375409 171.906522 
L 918.375409 171.906522 
" clip-path="url(#peef9f40b99)" style="fill: none; stroke: #dd4d04; stroke-opacity: 0.95; stroke-width: 1.3; stroke-linecap: square"/>
   </g>
   <g id="patch_22">
    <path d="M 53.643438 228.954713 
L 53.643438 17.061433 
" style="fill: none; stroke: #cbd5e1; stroke-width: 0.8; stroke-linejoin: miter; stroke-linecap: square"/>
   </g>
   <g id="patch_23">
    <path d="M 935.330937 228.954713 
L 935.330937 17.061433 
" style="fill: none; stroke: #cbd5e1; stroke-width: 0.8; stroke-linejoin: miter; stroke-linecap: square"/>
   </g>
   <g id="patch_24">
    <path d="M 53.643438 228.954713 
L 935.330938 228.954713 
" style="fill: none; stroke: #cbd5e1; stroke-width: 0.8; stroke-linejoin: miter; stroke-linecap: square"/>
   </g>
   <g id="patch_25">
    <path d="M 53.643438 17.061433 
L 935.330938 17.061433 
" style="fill: none; stroke: #cbd5e1; stroke-width: 0.8; stroke-linejoin: miter; stroke-linecap: square"/>
   </g>
   <g id="text_20">
    <!-- ACC -->
    <g style="fill: #475569" transform="translate(53.868702 13.27875) scale(0.08 -0.08)">
     <defs>
      <path id="DejaVuSans-41" d="M 2188 4044 
L 1331 1722 
L 3047 1722 
L 2188 4044 
z
M 1831 4666 
L 2547 4666 
L 4325 0 
L 3669 0 
L 3244 1197 
L 1141 1197 
L 716 0 
L 50 0 
L 1831 4666 
z
" transform="scale(0.015625)"/>
     </defs>
     <use xlink:href="#DejaVuSans-41"/>
     <use xlink:href="#DejaVuSans-43" transform="translate(66.658203 0)"/>
     <use xlink:href="#DejaVuSans-43" transform="translate(136.482422 0)"/>
    </g>
   </g>
   <g id="text_21">
    <!-- OC -->
    <g style="fill: #475569" transform="translate(81.280159 13.27875) scale(0.08 -0.08)">
     <defs>
      <path id="DejaVuSans-4f" d="M 2522 4238 
Q 1834 4238 1429 3725 
Q 1025 3213 1025 2328 
Q 1025 1447 1429 934 
Q 1834 422 2522 422 
Q 3209 422 3611 934 
Q 4013 1447 4013 2328 
Q 4013 3213 3611 3725 
Q 3209 4238 2522 4238 
z
M 2522 4750 
Q 3503 4750 4090 4092 
Q 4678 3434 4678 2328 
Q 4678 1225 4090 567 
Q 3503 -91 2522 -91 
Q 1538 -91 948 565 
Q 359 1222 359 2328 
Q 359 3434 948 4092 
Q 1538 4750 2522 4750 
z
" transform="scale(0.015625)"/>
     </defs>
     <use xlink:href="#DejaVuSans-4f"/>
     <use xlink:href="#DejaVuSans-43" transform="translate(78.710938 0)"/>
    </g>
   </g>
   <g id="text_22">
    <!-- FCS -->
    <g style="fill: #475569" transform="translate(112.835044 13.27875) scale(0.08 -0.08)">
     <defs>
      <path id="DejaVuSans-46" d="M 628 4666 
L 3309 4666 
L 3309 4134 
L 1259 4134 
L 1259 2759 
L 3109 2759 
L 3109 2228 
L 1259 2228 
L 1259 0 
L 628 0 
L 628 4666 
z
" transform="scale(0.015625)"/>
      <path id="DejaVuSans-53" d="M 3425 4513 
L 3425 3897 
Q 3066 4069 2747 4153 
Q 2428 4238 2131 4238 
Q 1616 4238 1336 4038 
Q 1056 3838 1056 3469 
Q 1056 3159 1242 3001 
Q 1428 2844 1947 2747 
L 2328 2669 
Q 3034 2534 3370 2195 
Q 3706 1856 3706 1288 
Q 3706 609 3251 259 
Q 2797 -91 1919 -91 
Q 1588 -91 1214 -16 
Q 841 59 441 206 
L 441 856 
Q 825 641 1194 531 
Q 1563 422 1919 422 
Q 2459 422 2753 634 
Q 3047 847 3047 1241 
Q 3047 1584 2836 1778 
Q 2625 1972 2144 2069 
L 1759 2144 
Q 1053 2284 737 2584 
Q 422 2884 422 3419 
Q 422 4038 858 4394 
Q 1294 4750 2059 4750 
Q 2388 4750 2728 4690 
Q 3069 4631 3425 4513 
z
" transform="scale(0.015625)"/>
     </defs>
     <use xlink:href="#DejaVuSans-46"/>
     <use xlink:href="#DejaVuSans-43" transform="translate(57.519531 0)"/>
     <use xlink:href="#DejaVuSans-53" transform="translate(127.34375 0)"/>
    </g>
   </g>
   <g id="text_23">
    <!-- SR -->
    <g style="fill: #475569" transform="translate(156.707088 13.27875) scale(0.08 -0.08)">
     <defs>
      <path id="DejaVuSans-52" d="M 2841 2188 
Q 3044 2119 3236 1894 
Q 3428 1669 3622 1275 
L 4263 0 
L 3584 0 
L 2988 1197 
Q 2756 1666 2539 1819 
Q 2322 1972 1947 1972 
L 1259 1972 
L 1259 0 
L 628 0 
L 628 4666 
L 2053 4666 
Q 2853 4666 3247 4331 
Q 3641 3997 3641 3322 
Q 3641 2881 3436 2590 
Q 3231 2300 2841 2188 
z
M 1259 4147 
L 1259 2491 
L 2053 2491 
Q 2509 2491 2742 2702 
Q 2975 2913 2975 3322 
Q 2975 3731 2742 3939 
Q 2509 4147 2053 4147 
L 1259 4147 
z
" transform="scale(0.015625)"/>
     </defs>
     <use xlink:href="#DejaVuSans-53"/>
     <use xlink:href="#DejaVuSans-52" transform="translate(63.476562 0)"/>
    </g>
   </g>
   <g id="text_24">
    <!-- FFC -->
    <g style="fill: #475569" transform="translate(210.041688 13.27875) scale(0.08 -0.08)">
     <use xlink:href="#DejaVuSans-46"/>
     <use xlink:href="#DejaVuSans-46" transform="translate(57.519531 0)"/>
     <use xlink:href="#DejaVuSans-43" transform="translate(115.039062 0)"/>
    </g>
   </g>
   <g id="text_25">
    <!-- SS -->
    <g style="fill: #475569" transform="translate(312.095718 13.27875) scale(0.08 -0.08)">
     <use xlink:href="#DejaVuSans-53"/>
     <use xlink:href="#DejaVuSans-53" transform="translate(63.476562 0)"/>
    </g>
   </g>
   <g id="text_26">
    <!-- OC -->
    <g style="fill: #475569" transform="translate(394.34793 13.27875) scale(0.08 -0.08)">
     <use xlink:href="#DejaVuSans-4f"/>
     <use xlink:href="#DejaVuSans-43" transform="translate(78.710938 0)"/>
    </g>
   </g>
   <g id="text_27">
    <!-- FCS -->
    <g style="fill: #475569" transform="translate(423.132304 13.27875) scale(0.08 -0.08)">
     <use xlink:href="#DejaVuSans-46"/>
     <use xlink:href="#DejaVuSans-43" transform="translate(57.519531 0)"/>
     <use xlink:href="#DejaVuSans-53" transform="translate(127.34375 0)"/>
    </g>
   </g>
   <g id="text_28">
    <!-- SR -->
    <g style="fill: #475569" transform="translate(467.004348 13.27875) scale(0.08 -0.08)">
     <use xlink:href="#DejaVuSans-53"/>
     <use xlink:href="#DejaVuSans-52" transform="translate(63.476562 0)"/>
    </g>
   </g>
   <g id="text_29">
    <!-- FFC -->
    <g style="fill: #475569" transform="translate(517.568436 13.27875) scale(0.08 -0.08)">
     <use xlink:href="#DejaVuSans-46"/>
     <use xlink:href="#DejaVuSans-46" transform="translate(57.519531 0)"/>
     <use xlink:href="#DejaVuSans-43" transform="translate(115.039062 0)"/>
    </g>
   </g>
   <g id="text_30">
    <!-- SS -->
    <g style="fill: #475569" transform="translate(622.392977 13.27875) scale(0.08 -0.08)">
     <use xlink:href="#DejaVuSans-53"/>
     <use xlink:href="#DejaVuSans-53" transform="translate(63.476562 0)"/>
    </g>
   </g>
   <g id="text_31">
    <!-- OC -->
    <g style="fill: #475569" transform="translate(704.64519 13.27875) scale(0.08 -0.08)">
     <use xlink:href="#DejaVuSans-4f"/>
     <use xlink:href="#DejaVuSans-43" transform="translate(78.710938 0)"/>
    </g>
   </g>
   <g id="text_32">
    <!-- FCS -->
    <g style="fill: #475569" transform="translate(733.429564 13.27875) scale(0.08 -0.08)">
     <use xlink:href="#DejaVuSans-46"/>
     <use xlink:href="#DejaVuSans-43" transform="translate(57.519531 0)"/>
     <use xlink:href="#DejaVuSans-53" transform="translate(127.34375 0)"/>
    </g>
   </g>
   <g id="text_33">
    <!-- SR -->
    <g style="fill: #475569" transform="translate(777.301607 13.27875) scale(0.08 -0.08)">
     <use xlink:href="#DejaVuSans-53"/>
     <use xlink:href="#DejaVuSans-52" transform="translate(63.476562 0)"/>
    </g>
   </g>
   <g id="text_34">
    <!-- FFC -->
    <g style="fill: #475569" transform="translate(827.865696 13.27875) scale(0.08 -0.08)">
     <use xlink:href="#DejaVuSans-46"/>
     <use xlink:href="#DejaVuSans-46" transform="translate(57.519531 0)"/>
     <use xlink:href="#DejaVuSans-43" transform="translate(115.039062 0)"/>
    </g>
   </g>
   <g id="text_35">
    <!-- SS -->
    <g style="fill: #475569" transform="translate(888.362057 13.27875) scale(0.08 -0.08)">
     <use xlink:href="#DejaVuSans-53"/>
     <use xlink:href="#DejaVuSans-53" transform="translate(63.476562 0)"/>
    </g>
   </g>
   <g id="legend_1">
    <g id="line2d_41">
     <path d="M 847.378437 27.540183 
L 855.378437 27.540183 
L 863.378437 27.540183 
" style="fill: none; stroke: #fdc38d; stroke-opacity: 0.95; stroke-width: 1.3; stroke-linecap: square"/>
    </g>
    <g id="text_36">
     <!-- T1 -->
     <g transform="translate(869.778437 30.340183) scale(0.08 -0.08)">
      <use xlink:href="#DejaVuSans-54"/>
      <use xlink:href="#DejaVuSans-31" transform="translate(61.083984 0)"/>
     </g>
    </g>
    <g id="line2d_42">
     <path d="M 847.378437 39.282683 
L 855.378437 39.282683 
L 863.378437 39.282683 
" style="fill: none; stroke: #fdac67; stroke-opacity: 0.95; stroke-width: 1.3; stroke-linecap: square"/>
    </g>
    <g id="text_37">
     <!-- T2 -->
     <g transform="translate(869.778437 42.082683) scale(0.08 -0.08)">
      <use xlink:href="#DejaVuSans-54"/>
      <use xlink:href="#DejaVuSans-32" transform="translate(61.083984 0)"/>
     </g>
    </g>
    <g id="line2d_43">
     <path d="M 847.378437 51.025183 
L 855.378437 51.025183 
L 863.378437 51.025183 
" style="fill: none; stroke: #fd9547; stroke-opacity: 0.95; stroke-width: 1.3; stroke-linecap: square"/>
    </g>
    <g id="text_38">
     <!-- T3 -->
     <g transform="translate(869.778437 53.825183) scale(0.08 -0.08)">
      <use xlink:href="#DejaVuSans-54"/>
      <use xlink:href="#DejaVuSans-33" transform="translate(61.083984 0)"/>
     </g>
    </g>
    <g id="line2d_44">
     <path d="M 895.754687 27.540183 
L 903.754687 27.540183 
L 911.754687 27.540183 
" style="fill: none; stroke: #f87d29; stroke-opacity: 0.95; stroke-width: 1.3; stroke-linecap: square"/>
    </g>
    <g id="text_39">
     <!-- T4 -->
     <g transform="translate(918.154687 30.340183) scale(0.08 -0.08)">
      <use xlink:href="#DejaVuSans-54"/>
      <use xlink:href="#DejaVuSans-34" transform="translate(61.083984 0)"/>
     </g>
    </g>
    <g id="line2d_45">
     <path d="M 895.754687 39.282683 
L 903.754687 39.282683 
L 911.754687 39.282683 
" style="fill: none; stroke: #ee6410; stroke-opacity: 0.95; stroke-width: 1.3; stroke-linecap: square"/>
    </g>
    <g id="text_40">
     <!-- T5 -->
     <g transform="translate(918.154687 42.082683) scale(0.08 -0.08)">
      <use xlink:href="#DejaVuSans-54"/>
      <use xlink:href="#DejaVuSans-35" transform="translate(61.083984 0)"/>
     </g>
    </g>
    <g id="line2d_46">
     <path d="M 895.754687 51.025183 
L 903.754687 51.025183 
L 911.754687 51.025183 
" style="fill: none; stroke: #dd4d04; stroke-opacity: 0.95; stroke-width: 1.3; stroke-linecap: square"/>
    </g>
    <g id="text_41">
     <!-- T6 -->
     <g transform="translate(918.154687 53.825183) scale(0.08 -0.08)">
      <use xlink:href="#DejaVuSans-54"/>
      <use xlink:href="#DejaVuSans-36" transform="translate(61.083984 0)"/>
     </g>
    </g>
   </g>
  </g>
 </g>
 <defs>
  <clipPath id="peef9f40b99">
   <rect x="53.643438" y="17.061433" width="881.6875" height="211.89328"/>
  </clipPath>
 </defs>
</svg>
