<?xml version="1.0" encoding="utf-8" standalone="no"?>
<!DOCTYPE svg PUBLIC "-//W3C//DTD SVG 1.1//EN"
  "http://www.w3.org/Graphics/SVG/1.1/DTD/svg11.dtd">
<svg xmlns:xlink="http://www.w3.org/1999/xlink" width="942.553437pt" height="265.54315pt" viewBox="0 0 942.553437 265.54315" xmlns="http://www.w3.org/2000/svg" version="1.1">
 <metadata>
  <rdf:RDF xmlns:dc="http://purl.org/dc/elements/1.1/" xmlns:cc="http://creativecommons.org/ns#" xmlns:rdf="http://www.w3.org/1999/02/22-rdf-syntax-ns#">
   <cc:Work>
    <dc:type rdf:resource="http://purl.org/dc/dcmitype/StillImage"/>
    <dc:date>2026-04-17T13:15:06.116473</dc:date>
    <dc:format>image/svg+xml</dc:format>
    <dc:creator>
     <cc:Agent>
      <dc:title>Matplotlib v3.10.8, https://matplotlib.org/</dc:title>
     </cc:Agent>
    </dc:creator>
   </cc:Work>
  </rdf:RDF>
 </metadata>
 <defs>
  <style type="text/css">*{stroke-linejoin: round; stroke-linecap: butt}</style>
 </defs>
 <g id="figure_1">
  <g id="patch_1">
   <path d="M 0 265.54315 
L 942.553437 265.54315 
L 942.553437 0 
L 0 0 
z
" style="fill: #ffffff"/>
  </g>
  <g id="axes_1">
   <g id="patch_2">
    <path d="M 42.190938 228.954713 
L 935.353437 228.954713 
L 935.353437 17.061433 
L 42.190938 17.061433 
z
" style="fill: #ffffff"/>
   </g>
   <g id="patch_3">
    <path d="M 42.190938 228.954713 
L 222.799271 228.954713 
L 222.799271 17.061433 
L 42.190938 17.061433 
z
" clip-path="url(#p63dda4d56c)" style="fill: #f8fafc; opacity: 0.45"/>
   </g>
   <g id="patch_4">
    <path d="M 222.799271 228.954713 
L 249.890521 228.954713 
L 249.890521 17.061433 
L 222.799271 17.061433 
z
" clip-path="url(#p63dda4d56c)" style="fill: #eff6ff; opacity: 0.45"/>
   </g>
   <g id="patch_5">
    <path d="M 249.890521 228.954713 
L 276.981771 228.954713 
L 276.981771 17.061433 
L 249.890521 17.061433 
z
" clip-path="url(#p63dda4d56c)" style="fill: #fef3c7; opacity: 0.45"/>
   </g>
   <g id="patch_6">
    <path d="M 276.981771 228.954713 
L 317.618646 228.954713 
L 317.618646 17.061433 
L 276.981771 17.061433 
z
" clip-path="url(#p63dda4d56c)" style="fill: #dcfce7; opacity: 0.45"/>
   </g>
   <g id="patch_7">
    <path d="M 317.618646 228.954713 
L 362.770729 228.954713 
L 362.770729 17.061433 
L 317.618646 17.061433 
z
" clip-path="url(#p63dda4d56c)" style="fill: #fee2e2; opacity: 0.45"/>
   </g>
   <g id="patch_8">
    <path d="M 362.770729 228.954713 
L 367.285938 228.954713 
L 367.285938 17.061433 
L 362.770729 17.061433 
z
" clip-path="url(#p63dda4d56c)" style="fill: #ede9fe; opacity: 0.45"/>
   </g>
   <g id="patch_9">
    <path d="M 367.285938 228.954713 
L 480.166146 228.954713 
L 480.166146 17.061433 
L 367.285938 17.061433 
z
" clip-path="url(#p63dda4d56c)" style="fill: #f8fafc; opacity: 0.45"/>
   </g>
   <g id="patch_10">
    <path d="M 480.166146 228.954713 
L 502.742188 228.954713 
L 502.742188 17.061433 
L 480.166146 17.061433 
z
" clip-path="url(#p63dda4d56c)" style="fill: #eff6ff; opacity: 0.45"/>
   </g>
   <g id="patch_11">
    <path d="M 502.742188 228.954713 
L 529.833438 228.954713 
L 529.833438 17.061433 
L 502.742188 17.061433 
z
" clip-path="url(#p63dda4d56c)" style="fill: #fef3c7; opacity: 0.45"/>
   </g>
   <g id="patch_12">
    <path d="M 529.833438 228.954713 
L 570.470313 228.954713 
L 570.470313 17.061433 
L 529.833438 17.061433 
z
" clip-path="url(#p63dda4d56c)" style="fill: #dcfce7; opacity: 0.45"/>
   </g>
   <g id="patch_13">
    <path d="M 570.470313 228.954713 
L 615.622396 228.954713 
L 615.622396 17.061433 
L 570.470313 17.061433 
z
" clip-path="url(#p63dda4d56c)" style="fill: #fee2e2; opacity: 0.45"/>
   </g>
   <g id="patch_14">
    <path d="M 615.622396 228.954713 
L 620.137604 228.954713 
L 620.137604 17.061433 
L 615.622396 17.061433 
z
" clip-path="url(#p63dda4d56c)" style="fill: #ede9fe; opacity: 0.45"/>
   </g>
   <g id="patch_15">
    <path d="M 620.137604 228.954713 
L 733.017813 228.954713 
L 733.017813 17.061433 
L 620.137604 17.061433 
z
" clip-path="url(#p63dda4d56c)" style="fill: #f8fafc; opacity: 0.45"/>
   </g>
   <g id="patch_16">
    <path d="M 733.017813 228.954713 
L 755.593855 228.954713 
L 755.593855 17.061433 
L 733.017813 17.061433 
z
" clip-path="url(#p63dda4d56c)" style="fill: #eff6ff; opacity: 0.45"/>
   </g>
   <g id="patch_17">
    <path d="M 755.593855 228.954713 
L 782.685105 228.954713 
L 782.685105 17.061433 
L 755.593855 17.061433 
z
" clip-path="url(#p63dda4d56c)" style="fill: #fef3c7; opacity: 0.45"/>
   </g>
   <g id="patch_18">
    <path d="M 782.685105 228.954713 
L 823.32198 228.954713 
L 823.32198 17.061433 
L 782.685105 17.061433 
z
" clip-path="url(#p63dda4d56c)" style="fill: #dcfce7; opacity: 0.45"/>
   </g>
   <g id="patch_19">
    <path d="M 823.32198 228.954713 
L 868.474063 228.954713 
L 868.474063 17.061433 
L 823.32198 17.061433 
z
" clip-path="url(#p63dda4d56c)" style="fill: #fee2e2; opacity: 0.45"/>
   </g>
   <g id="patch_20">
    <path d="M 868.474063 228.954713 
L 872.989271 228.954713 
L 872.989271 17.061433 
L 868.474063 17.061433 
z
" clip-path="url(#p63dda4d56c)" style="fill: #ede9fe; opacity: 0.45"/>
   </g>
   <g id="patch_21">
    <path d="M 872.989271 228.954713 
L 913.626146 228.954713 
L 913.626146 17.061433 
L 872.989271 17.061433 
z
" clip-path="url(#p63dda4d56c)" style="fill: #f8fafc; opacity: 0.45"/>
   </g>
   <g id="patch_22">
    <path d="M 913.626146 228.954713 
L 918.141355 228.954713 
L 918.141355 17.061433 
L 913.626146 17.061433 
z
" clip-path="url(#p63dda4d56c)" style="fill: #eff6ff; opacity: 0.45"/>
   </g>
   <g id="matplotlib.axis_1">
    <g id="xtick_1">
     <g id="line2d_1">
      <path d="M 42.190938 228.954713 
L 42.190938 17.061433 
" clip-path="url(#p63dda4d56c)" style="fill: none; stroke: #eef2f7; stroke-width: 0.55; stroke-linecap: square"/>
     </g>
     <g id="line2d_2">
      <defs>
       <path id="m7ae4e51251" d="M 0 0 
L 0 3.5 
" style="stroke: #000000; stroke-width: 0.8"/>
      </defs>
      <g>
       <use xlink:href="#m7ae4e51251" x="42.190938" y="228.954713" style="stroke: #000000; stroke-width: 0.8"/>
      </g>
     </g>
     <g id="text_1">
      <!-- 0 -->
      <g transform="translate(39.327813 242.793307) scale(0.09 -0.09)">
       <defs>
        <path id="DejaVuSans-30" d="M 2034 4250 
Q 1547 4250 1301 3770 
Q 1056 3291 1056 2328 
Q 1056 1369 1301 889 
Q 1547 409 2034 409 
Q 2525 409 2770 889 
Q 3016 1369 3016 2328 
Q 3016 3291 2770 3770 
Q 2525 4250 2034 4250 
z
M 2034 4750 
Q 2819 4750 3233 4129 
Q 3647 3509 3647 2328 
Q 3647 1150 3233 529 
Q 2819 -91 2034 -91 
Q 1250 -91 836 529 
Q 422 1150 422 2328 
Q 422 3509 836 4129 
Q 1250 4750 2034 4750 
z
" transform="scale(0.015625)"/>
       </defs>
       <use xlink:href="#DejaVuSans-30"/>
      </g>
     </g>
    </g>
    <g id="xtick_2">
     <g id="line2d_3">
      <path d="M 155.071146 228.954713 
L 155.071146 17.061433 
" clip-path="url(#p63dda4d56c)" style="fill: none; stroke: #eef2f7; stroke-width: 0.55; stroke-linecap: square"/>
     </g>
     <g id="line2d_4">
      <g>
       <use xlink:href="#m7ae4e51251" x="155.071146" y="228.954713" style="stroke: #000000; stroke-width: 0.8"/>
      </g>
     </g>
     <g id="text_2">
      <!-- 25 -->
      <g transform="translate(149.344896 242.793307) scale(0.09 -0.09)">
       <defs>
        <path id="DejaVuSans-32" d="M 1228 531 
L 3431 531 
L 3431 0 
L 469 0 
L 469 531 
Q 828 903 1448 1529 
Q 2069 2156 2228 2338 
Q 2531 2678 2651 2914 
Q 2772 3150 2772 3378 
Q 2772 3750 2511 3984 
Q 2250 4219 1831 4219 
Q 1534 4219 1204 4116 
Q 875 4013 500 3803 
L 500 4441 
Q 881 4594 1212 4672 
Q 1544 4750 1819 4750 
Q 2544 4750 2975 4387 
Q 3406 4025 3406 3419 
Q 3406 3131 3298 2873 
Q 3191 2616 2906 2266 
Q 2828 2175 2409 1742 
Q 1991 1309 1228 531 
z
" transform="scale(0.015625)"/>
        <path id="DejaVuSans-35" d="M 691 4666 
L 3169 4666 
L 3169 4134 
L 1269 4134 
L 1269 2991 
Q 1406 3038 1543 3061 
Q 1681 3084 1819 3084 
Q 2600 3084 3056 2656 
Q 3513 2228 3513 1497 
Q 3513 744 3044 326 
Q 2575 -91 1722 -91 
Q 1428 -91 1123 -41 
Q 819 9 494 109 
L 494 744 
Q 775 591 1075 516 
Q 1375 441 1709 441 
Q 2250 441 2565 725 
Q 2881 1009 2881 1497 
Q 2881 1984 2565 2268 
Q 2250 2553 1709 2553 
Q 1456 2553 1204 2497 
Q 953 2441 691 2322 
L 691 4666 
z
" transform="scale(0.015625)"/>
       </defs>
       <use xlink:href="#DejaVuSans-32"/>
       <use xlink:href="#DejaVuSans-35" transform="translate(63.623047 0)"/>
      </g>
     </g>
    </g>
    <g id="xtick_3">
     <g id="line2d_5">
      <path d="M 267.951354 228.954713 
L 267.951354 17.061433 
" clip-path="url(#p63dda4d56c)" style="fill: none; stroke: #eef2f7; stroke-width: 0.55; stroke-linecap: square"/>
     </g>
     <g id="line2d_6">
      <g>
       <use xlink:href="#m7ae4e51251" x="267.951354" y="228.954713" style="stroke: #000000; stroke-width: 0.8"/>
      </g>
     </g>
     <g id="text_3">
      <!-- 50 -->
      <g transform="translate(262.225104 242.793307) scale(0.09 -0.09)">
       <use xlink:href="#DejaVuSans-35"/>
       <use xlink:href="#DejaVuSans-30" transform="translate(63.623047 0)"/>
      </g>
     </g>
    </g>
    <g id="xtick_4">
     <g id="line2d_7">
      <path d="M 380.831563 228.954713 
L 380.831563 17.061433 
" clip-path="url(#p63dda4d56c)" style="fill: none; stroke: #eef2f7; stroke-width: 0.55; stroke-linecap: square"/>
     </g>
     <g id="line2d_8">
      <g>
       <use xlink:href="#m7ae4e51251" x="380.831563" y="228.954713" style="stroke: #000000; stroke-width: 0.8"/>
      </g>
     </g>
     <g id="text_4">
      <!-- 75 -->
      <g transform="translate(375.105313 242.793307) scale(0.09 -0.09)">
       <defs>
        <path id="DejaVuSans-37" d="M 525 4666 
L 3525 4666 
L 3525 4397 
L 1831 0 
L 1172 0 
L 2766 4134 
L 525 4134 
L 525 4666 
z
" transform="scale(0.015625)"/>
       </defs>
       <use xlink:href="#DejaVuSans-37"/>
       <use xlink:href="#DejaVuSans-35" transform="translate(63.623047 0)"/>
      </g>
     </g>
    </g>
    <g id="xtick_5">
     <g id="line2d_9">
      <path d="M 493.711771 228.954713 
L 493.711771 17.061433 
" clip-path="url(#p63dda4d56c)" style="fill: none; stroke: #eef2f7; stroke-width: 0.55; stroke-linecap: square"/>
     </g>
     <g id="line2d_10">
      <g>
       <use xlink:href="#m7ae4e51251" x="493.711771" y="228.954713" style="stroke: #000000; stroke-width: 0.8"/>
      </g>
     </g>
     <g id="text_5">
      <!-- 100 -->
      <g transform="translate(485.122396 242.793307) scale(0.09 -0.09)">
       <defs>
        <path id="DejaVuSans-31" d="M 794 531 
L 1825 531 
L 1825 4091 
L 703 3866 
L 703 4441 
L 1819 4666 
L 2450 4666 
L 2450 531 
L 3481 531 
L 3481 0 
L 794 0 
L 794 531 
z
" transform="scale(0.015625)"/>
       </defs>
       <use xlink:href="#DejaVuSans-31"/>
       <use xlink:href="#DejaVuSans-30" transform="translate(63.623047 0)"/>
       <use xlink:href="#DejaVuSans-30" transform="translate(127.246094 0)"/>
      </g>
     </g>
    </g>
    <g id="xtick_6">
     <g id="line2d_11">
      <path d="M 606.591979 228.954713 
L 606.591979 17.061433 
" clip-path="url(#p63dda4d56c)" style="fill: none; stroke: #eef2f7; stroke-width: 0.55; stroke-linecap: square"/>
     </g>
     <g id="line2d_12">
      <g>
       <use xlink:href="#m7ae4e51251" x="606.591979" y="228.954713" style="stroke: #000000; stroke-width: 0.8"/>
      </g>
     </g>
     <g id="text_6">
      <!-- 125 -->
      <g transform="translate(598.002604 242.793307) scale(0.09 -0.09)">
       <use xlink:href="#DejaVuSans-31"/>
       <use xlink:href="#DejaVuSans-32" transform="translate(63.623047 0)"/>
       <use xlink:href="#DejaVuSans-35" transform="translate(127.246094 0)"/>
      </g>
     </g>
    </g>
    <g id="xtick_7">
     <g id="line2d_13">
      <path d="M 719.472188 228.954713 
L 719.472188 17.061433 
" clip-path="url(#p63dda4d56c)" style="fill: none; stroke: #eef2f7; stroke-width: 0.55; stroke-linecap: square"/>
     </g>
     <g id="line2d_14">
      <g>
       <use xlink:href="#m7ae4e51251" x="719.472188" y="228.954713" style="stroke: #000000; stroke-width: 0.8"/>
      </g>
     </g>
     <g id="text_7">
      <!-- 150 -->
      <g transform="translate(710.882813 242.793307) scale(0.09 -0.09)">
       <use xlink:href="#DejaVuSans-31"/>
       <use xlink:href="#DejaVuSans-35" transform="translate(63.623047 0)"/>
       <use xlink:href="#DejaVuSans-30" transform="translate(127.246094 0)"/>
      </g>
     </g>
    </g>
    <g id="xtick_8">
     <g id="line2d_15">
      <path d="M 832.352396 228.954713 
L 832.352396 17.061433 
" clip-path="url(#p63dda4d56c)" style="fill: none; stroke: #eef2f7; stroke-width: 0.55; stroke-linecap: square"/>
     </g>
     <g id="line2d_16">
      <g>
       <use xlink:href="#m7ae4e51251" x="832.352396" y="228.954713" style="stroke: #000000; stroke-width: 0.8"/>
      </g>
     </g>
     <g id="text_8">
      <!-- 175 -->
      <g transform="translate(823.763021 242.793307) scale(0.09 -0.09)">
       <use xlink:href="#DejaVuSans-31"/>
       <use xlink:href="#DejaVuSans-37" transform="translate(63.623047 0)"/>
       <use xlink:href="#DejaVuSans-35" transform="translate(127.246094 0)"/>
      </g>
     </g>
    </g>
    <g id="text_9">
     <!-- Minutes since session start -->
     <g transform="translate(421.182344 256.263463) scale(0.1 -0.1)">
      <defs>
       <path id="DejaVuSans-4d" d="M 628 4666 
L 1569 4666 
L 2759 1491 
L 3956 4666 
L 4897 4666 
L 4897 0 
L 4281 0 
L 4281 4097 
L 3078 897 
L 2444 897 
L 1241 4097 
L 1241 0 
L 628 0 
L 628 4666 
z
" transform="scale(0.015625)"/>
       <path id="DejaVuSans-69" d="M 603 3500 
L 1178 3500 
L 1178 0 
L 603 0 
L 603 3500 
z
M 603 4863 
L 1178 4863 
L 1178 4134 
L 603 4134 
L 603 4863 
z
" transform="scale(0.015625)"/>
       <path id="DejaVuSans-6e" d="M 3513 2113 
L 3513 0 
L 2938 0 
L 2938 2094 
Q 2938 2591 2744 2837 
Q 2550 3084 2163 3084 
Q 1697 3084 1428 2787 
Q 1159 2491 1159 1978 
L 1159 0 
L 581 0 
L 581 3500 
L 1159 3500 
L 1159 2956 
Q 1366 3272 1645 3428 
Q 1925 3584 2291 3584 
Q 2894 3584 3203 3211 
Q 3513 2838 3513 2113 
z
" transform="scale(0.015625)"/>
       <path id="DejaVuSans-75" d="M 544 1381 
L 544 3500 
L 1119 3500 
L 1119 1403 
Q 1119 906 1312 657 
Q 1506 409 1894 409 
Q 2359 409 2629 706 
Q 2900 1003 2900 1516 
L 2900 3500 
L 3475 3500 
L 3475 0 
L 2900 0 
L 2900 538 
Q 2691 219 2414 64 
Q 2138 -91 1772 -91 
Q 1169 -91 856 284 
Q 544 659 544 1381 
z
M 1991 3584 
L 1991 3584 
z
" transform="scale(0.015625)"/>
       <path id="DejaVuSans-74" d="M 1172 4494 
L 1172 3500 
L 2356 3500 
L 2356 3053 
L 1172 3053 
L 1172 1153 
Q 1172 725 1289 603 
Q 1406 481 1766 481 
L 2356 481 
L 2356 0 
L 1766 0 
Q 1100 0 847 248 
Q 594 497 594 1153 
L 594 3053 
L 172 3053 
L 172 3500 
L 594 3500 
L 594 4494 
L 1172 4494 
z
" transform="scale(0.015625)"/>
       <path id="DejaVuSans-65" d="M 3597 1894 
L 3597 1613 
L 953 1613 
Q 991 1019 1311 708 
Q 1631 397 2203 397 
Q 2534 397 2845 478 
Q 3156 559 3463 722 
L 3463 178 
Q 3153 47 2828 -22 
Q 2503 -91 2169 -91 
Q 1331 -91 842 396 
Q 353 884 353 1716 
Q 353 2575 817 3079 
Q 1281 3584 2069 3584 
Q 2775 3584 3186 3129 
Q 3597 2675 3597 1894 
z
M 3022 2063 
Q 3016 2534 2758 2815 
Q 2500 3097 2075 3097 
Q 1594 3097 1305 2825 
Q 1016 2553 972 2059 
L 3022 2063 
z
" transform="scale(0.015625)"/>
       <path id="DejaVuSans-73" d="M 2834 3397 
L 2834 2853 
Q 2591 2978 2328 3040 
Q 2066 3103 1784 3103 
Q 1356 3103 1142 2972 
Q 928 2841 928 2578 
Q 928 2378 1081 2264 
Q 1234 2150 1697 2047 
L 1894 2003 
Q 2506 1872 2764 1633 
Q 3022 1394 3022 966 
Q 3022 478 2636 193 
Q 2250 -91 1575 -91 
Q 1294 -91 989 -36 
Q 684 19 347 128 
L 347 722 
Q 666 556 975 473 
Q 1284 391 1588 391 
Q 1994 391 2212 530 
Q 2431 669 2431 922 
Q 2431 1156 2273 1281 
Q 2116 1406 1581 1522 
L 1381 1569 
Q 847 1681 609 1914 
Q 372 2147 372 2553 
Q 372 3047 722 3315 
Q 1072 3584 1716 3584 
Q 2034 3584 2315 3537 
Q 2597 3491 2834 3397 
z
" transform="scale(0.015625)"/>
       <path id="DejaVuSans-20" transform="scale(0.015625)"/>
       <path id="DejaVuSans-63" d="M 3122 3366 
L 3122 2828 
Q 2878 2963 2633 3030 
Q 2388 3097 2138 3097 
Q 1578 3097 1268 2742 
Q 959 2388 959 1747 
Q 959 1106 1268 751 
Q 1578 397 2138 397 
Q 2388 397 2633 464 
Q 2878 531 3122 666 
L 3122 134 
Q 2881 22 2623 -34 
Q 2366 -91 2075 -91 
Q 1284 -91 818 406 
Q 353 903 353 1747 
Q 353 2603 823 3093 
Q 1294 3584 2113 3584 
Q 2378 3584 2631 3529 
Q 2884 3475 3122 3366 
z
" transform="scale(0.015625)"/>
       <path id="DejaVuSans-6f" d="M 1959 3097 
Q 1497 3097 1228 2736 
Q 959 2375 959 1747 
Q 959 1119 1226 758 
Q 1494 397 1959 397 
Q 2419 397 2687 759 
Q 2956 1122 2956 1747 
Q 2956 2369 2687 2733 
Q 2419 3097 1959 3097 
z
M 1959 3584 
Q 2709 3584 3137 3096 
Q 3566 2609 3566 1747 
Q 3566 888 3137 398 
Q 2709 -91 1959 -91 
Q 1206 -91 779 398 
Q 353 888 353 1747 
Q 353 2609 779 3096 
Q 1206 3584 1959 3584 
z
" transform="scale(0.015625)"/>
       <path id="DejaVuSans-61" d="M 2194 1759 
Q 1497 1759 1228 1600 
Q 959 1441 959 1056 
Q 959 750 1161 570 
Q 1363 391 1709 391 
Q 2188 391 2477 730 
Q 2766 1069 2766 1631 
L 2766 1759 
L 2194 1759 
z
M 3341 1997 
L 3341 0 
L 2766 0 
L 2766 531 
Q 2569 213 2275 61 
Q 1981 -91 1556 -91 
Q 1019 -91 701 211 
Q 384 513 384 1019 
Q 384 1609 779 1909 
Q 1175 2209 1959 2209 
L 2766 2209 
L 2766 2266 
Q 2766 2663 2505 2880 
Q 2244 3097 1772 3097 
Q 1472 3097 1187 3025 
Q 903 2953 641 2809 
L 641 3341 
Q 956 3463 1253 3523 
Q 1550 3584 1831 3584 
Q 2591 3584 2966 3190 
Q 3341 2797 3341 1997 
z
" transform="scale(0.015625)"/>
       <path id="DejaVuSans-72" d="M 2631 2963 
Q 2534 3019 2420 3045 
Q 2306 3072 2169 3072 
Q 1681 3072 1420 2755 
Q 1159 2438 1159 1844 
L 1159 0 
L 581 0 
L 581 3500 
L 1159 3500 
L 1159 2956 
Q 1341 3275 1631 3429 
Q 1922 3584 2338 3584 
Q 2397 3584 2469 3576 
Q 2541 3569 2628 3553 
L 2631 2963 
z
" transform="scale(0.015625)"/>
      </defs>
      <use xlink:href="#DejaVuSans-4d"/>
      <use xlink:href="#DejaVuSans-69" transform="translate(86.279297 0)"/>
      <use xlink:href="#DejaVuSans-6e" transform="translate(114.0625 0)"/>
      <use xlink:href="#DejaVuSans-75" transform="translate(177.441406 0)"/>
      <use xlink:href="#DejaVuSans-74" transform="translate(240.820312 0)"/>
      <use xlink:href="#DejaVuSans-65" transform="translate(280.029297 0)"/>
      <use xlink:href="#DejaVuSans-73" transform="translate(341.552734 0)"/>
      <use xlink:href="#DejaVuSans-20" transform="translate(393.652344 0)"/>
      <use xlink:href="#DejaVuSans-73" transform="translate(425.439453 0)"/>
      <use xlink:href="#DejaVuSans-69" transform="translate(477.539062 0)"/>
      <use xlink:href="#DejaVuSans-6e" transform="translate(505.322266 0)"/>
      <use xlink:href="#DejaVuSans-63" transform="translate(568.701172 0)"/>
      <use xlink:href="#DejaVuSans-65" transform="translate(623.681641 0)"/>
      <use xlink:href="#DejaVuSans-20" transform="translate(685.205078 0)"/>
      <use xlink:href="#DejaVuSans-73" transform="translate(716.992188 0)"/>
      <use xlink:href="#DejaVuSans-65" transform="translate(769.091797 0)"/>
      <use xlink:href="#DejaVuSans-73" transform="translate(830.615234 0)"/>
      <use xlink:href="#DejaVuSans-73" transform="translate(882.714844 0)"/>
      <use xlink:href="#DejaVuSans-69" transform="translate(934.814453 0)"/>
      <use xlink:href="#DejaVuSans-6f" transform="translate(962.597656 0)"/>
      <use xlink:href="#DejaVuSans-6e" transform="translate(1023.779297 0)"/>
      <use xlink:href="#DejaVuSans-20" transform="translate(1087.158203 0)"/>
      <use xlink:href="#DejaVuSans-73" transform="translate(1118.945312 0)"/>
      <use xlink:href="#DejaVuSans-74" transform="translate(1171.044922 0)"/>
      <use xlink:href="#DejaVuSans-61" transform="translate(1210.253906 0)"/>
      <use xlink:href="#DejaVuSans-72" transform="translate(1271.533203 0)"/>
      <use xlink:href="#DejaVuSans-74" transform="translate(1312.646484 0)"/>
     </g>
    </g>
   </g>
   <g id="matplotlib.axis_2">
    <g id="ytick_1">
     <g id="line2d_17">
      <path d="M 42.190938 217.534635 
L 935.353437 217.534635 
" clip-path="url(#p63dda4d56c)" style="fill: none; stroke: #eef2f7; stroke-opacity: 0.25; stroke-width: 0.55; stroke-linecap: square"/>
     </g>
     <g id="line2d_18">
      <defs>
       <path id="mbaa8870ec5" d="M 0 0 
L -3.5 0 
" style="stroke: #000000; stroke-width: 0.8"/>
      </defs>
      <g>
       <use xlink:href="#mbaa8870ec5" x="42.190938" y="217.534635" style="stroke: #000000; stroke-width: 0.8"/>
      </g>
     </g>
     <g id="text_10">
      <!-- 0.8 -->
      <g transform="translate(20.878125 220.953931) scale(0.09 -0.09)">
       <defs>
        <path id="DejaVuSans-2e" d="M 684 794 
L 1344 794 
L 1344 0 
L 684 0 
L 684 794 
z
" transform="scale(0.015625)"/>
        <path id="DejaVuSans-38" d="M 2034 2216 
Q 1584 2216 1326 1975 
Q 1069 1734 1069 1313 
Q 1069 891 1326 650 
Q 1584 409 2034 409 
Q 2484 409 2743 651 
Q 3003 894 3003 1313 
Q 3003 1734 2745 1975 
Q 2488 2216 2034 2216 
z
M 1403 2484 
Q 997 2584 770 2862 
Q 544 3141 544 3541 
Q 544 4100 942 4425 
Q 1341 4750 2034 4750 
Q 2731 4750 3128 4425 
Q 3525 4100 3525 3541 
Q 3525 3141 3298 2862 
Q 3072 2584 2669 2484 
Q 3125 2378 3379 2068 
Q 3634 1759 3634 1313 
Q 3634 634 3220 271 
Q 2806 -91 2034 -91 
Q 1263 -91 848 271 
Q 434 634 434 1313 
Q 434 1759 690 2068 
Q 947 2378 1403 2484 
z
M 1172 3481 
Q 1172 3119 1398 2916 
Q 1625 2713 2034 2713 
Q 2441 2713 2670 2916 
Q 2900 3119 2900 3481 
Q 2900 3844 2670 4047 
Q 2441 4250 2034 4250 
Q 1625 4250 1398 4047 
Q 1172 3844 1172 3481 
z
" transform="scale(0.015625)"/>
       </defs>
       <use xlink:href="#DejaVuSans-30"/>
       <use xlink:href="#DejaVuSans-2e" transform="translate(63.623047 0)"/>
       <use xlink:href="#DejaVuSans-38" transform="translate(95.410156 0)"/>
      </g>
     </g>
    </g>
    <g id="ytick_2">
     <g id="line2d_19">
      <path d="M 42.190938 171.271854 
L 935.353437 171.271854 
" clip-path="url(#p63dda4d56c)" style="fill: none; stroke: #eef2f7; stroke-opacity: 0.25; stroke-width: 0.55; stroke-linecap: square"/>
     </g>
     <g id="line2d_20">
      <g>
       <use xlink:href="#mbaa8870ec5" x="42.190938" y="171.271854" style="stroke: #000000; stroke-width: 0.8"/>
      </g>
     </g>
     <g id="text_11">
      <!-- 1.0 -->
      <g transform="translate(20.878125 174.691151) scale(0.09 -0.09)">
       <use xlink:href="#DejaVuSans-31"/>
       <use xlink:href="#DejaVuSans-2e" transform="translate(63.623047 0)"/>
       <use xlink:href="#DejaVuSans-30" transform="translate(95.410156 0)"/>
      </g>
     </g>
    </g>
    <g id="ytick_3">
     <g id="line2d_21">
      <path d="M 42.190938 125.009074 
L 935.353437 125.009074 
" clip-path="url(#p63dda4d56c)" style="fill: none; stroke: #eef2f7; stroke-opacity: 0.25; stroke-width: 0.55; stroke-linecap: square"/>
     </g>
     <g id="line2d_22">
      <g>
       <use xlink:href="#mbaa8870ec5" x="42.190938" y="125.009074" style="stroke: #000000; stroke-width: 0.8"/>
      </g>
     </g>
     <g id="text_12">
      <!-- 1.2 -->
      <g transform="translate(20.878125 128.428371) scale(0.09 -0.09)">
       <use xlink:href="#DejaVuSans-31"/>
       <use xlink:href="#DejaVuSans-2e" transform="translate(63.623047 0)"/>
       <use xlink:href="#DejaVuSans-32" transform="translate(95.410156 0)"/>
      </g>
     </g>
    </g>
    <g id="ytick_4">
     <g id="line2d_23">
      <path d="M 42.190938 78.746294 
L 935.353437 78.746294 
" clip-path="url(#p63dda4d56c)" style="fill: none; stroke: #eef2f7; stroke-opacity: 0.25; stroke-width: 0.55; stroke-linecap: square"/>
     </g>
     <g id="line2d_24">
      <g>
       <use xlink:href="#mbaa8870ec5" x="42.190938" y="78.746294" style="stroke: #000000; stroke-width: 0.8"/>
      </g>
     </g>
     <g id="text_13">
      <!-- 1.4 -->
      <g transform="translate(20.878125 82.165591) scale(0.09 -0.09)">
       <defs>
        <path id="DejaVuSans-34" d="M 2419 4116 
L 825 1625 
L 2419 1625 
L 2419 4116 
z
M 2253 4666 
L 3047 4666 
L 3047 1625 
L 3713 1625 
L 3713 1100 
L 3047 1100 
L 3047 0 
L 2419 0 
L 2419 1100 
L 313 1100 
L 313 1709 
L 2253 4666 
z
" transform="scale(0.015625)"/>
       </defs>
       <use xlink:href="#DejaVuSans-31"/>
       <use xlink:href="#DejaVuSans-2e" transform="translate(63.623047 0)"/>
       <use xlink:href="#DejaVuSans-34" transform="translate(95.410156 0)"/>
      </g>
     </g>
    </g>
    <g id="ytick_5">
     <g id="line2d_25">
      <path d="M 42.190938 32.483514 
L 935.353437 32.483514 
" clip-path="url(#p63dda4d56c)" style="fill: none; stroke: #eef2f7; stroke-opacity: 0.25; stroke-width: 0.55; stroke-linecap: square"/>
     </g>
     <g id="line2d_26">
      <g>
       <use xlink:href="#mbaa8870ec5" x="42.190938" y="32.483514" style="stroke: #000000; stroke-width: 0.8"/>
      </g>
     </g>
     <g id="text_14">
      <!-- 1.6 -->
      <g transform="translate(20.878125 35.902811) scale(0.09 -0.09)">
       <defs>
        <path id="DejaVuSans-36" d="M 2113 2584 
Q 1688 2584 1439 2293 
Q 1191 2003 1191 1497 
Q 1191 994 1439 701 
Q 1688 409 2113 409 
Q 2538 409 2786 701 
Q 3034 994 3034 1497 
Q 3034 2003 2786 2293 
Q 2538 2584 2113 2584 
z
M 3366 4563 
L 3366 3988 
Q 3128 4100 2886 4159 
Q 2644 4219 2406 4219 
Q 1781 4219 1451 3797 
Q 1122 3375 1075 2522 
Q 1259 2794 1537 2939 
Q 1816 3084 2150 3084 
Q 2853 3084 3261 2657 
Q 3669 2231 3669 1497 
Q 3669 778 3244 343 
Q 2819 -91 2113 -91 
Q 1303 -91 875 529 
Q 447 1150 447 2328 
Q 447 3434 972 4092 
Q 1497 4750 2381 4750 
Q 2619 4750 2861 4703 
Q 3103 4656 3366 4563 
z
" transform="scale(0.015625)"/>
       </defs>
       <use xlink:href="#DejaVuSans-31"/>
       <use xlink:href="#DejaVuSans-2e" transform="translate(63.623047 0)"/>
       <use xlink:href="#DejaVuSans-36" transform="translate(95.410156 0)"/>
      </g>
     </g>
    </g>
    <g id="text_15">
     <!-- EDA (uS) -->
     <g transform="translate(14.798438 145.183854) rotate(-90) scale(0.1 -0.1)">
      <defs>
       <path id="DejaVuSans-45" d="M 628 4666 
L 3578 4666 
L 3578 4134 
L 1259 4134 
L 1259 2753 
L 3481 2753 
L 3481 2222 
L 1259 2222 
L 1259 531 
L 3634 531 
L 3634 0 
L 628 0 
L 628 4666 
z
" transform="scale(0.015625)"/>
       <path id="DejaVuSans-44" d="M 1259 4147 
L 1259 519 
L 2022 519 
Q 2988 519 3436 956 
Q 3884 1394 3884 2338 
Q 3884 3275 3436 3711 
Q 2988 4147 2022 4147 
L 1259 4147 
z
M 628 4666 
L 1925 4666 
Q 3281 4666 3915 4102 
Q 4550 3538 4550 2338 
Q 4550 1131 3912 565 
Q 3275 0 1925 0 
L 628 0 
L 628 4666 
z
" transform="scale(0.015625)"/>
       <path id="DejaVuSans-41" d="M 2188 4044 
L 1331 1722 
L 3047 1722 
L 2188 4044 
z
M 1831 4666 
L 2547 4666 
L 4325 0 
L 3669 0 
L 3244 1197 
L 1141 1197 
L 716 0 
L 50 0 
L 1831 4666 
z
" transform="scale(0.015625)"/>
       <path id="DejaVuSans-28" d="M 1984 4856 
Q 1566 4138 1362 3434 
Q 1159 2731 1159 2009 
Q 1159 1288 1364 580 
Q 1569 -128 1984 -844 
L 1484 -844 
Q 1016 -109 783 600 
Q 550 1309 550 2009 
Q 550 2706 781 3412 
Q 1013 4119 1484 4856 
L 1984 4856 
z
" transform="scale(0.015625)"/>
       <path id="DejaVuSans-53" d="M 3425 4513 
L 3425 3897 
Q 3066 4069 2747 4153 
Q 2428 4238 2131 4238 
Q 1616 4238 1336 4038 
Q 1056 3838 1056 3469 
Q 1056 3159 1242 3001 
Q 1428 2844 1947 2747 
L 2328 2669 
Q 3034 2534 3370 2195 
Q 3706 1856 3706 1288 
Q 3706 609 3251 259 
Q 2797 -91 1919 -91 
Q 1588 -91 1214 -16 
Q 841 59 441 206 
L 441 856 
Q 825 641 1194 531 
Q 1563 422 1919 422 
Q 2459 422 2753 634 
Q 3047 847 3047 1241 
Q 3047 1584 2836 1778 
Q 2625 1972 2144 2069 
L 1759 2144 
Q 1053 2284 737 2584 
Q 422 2884 422 3419 
Q 422 4038 858 4394 
Q 1294 4750 2059 4750 
Q 2388 4750 2728 4690 
Q 3069 4631 3425 4513 
z
" transform="scale(0.015625)"/>
       <path id="DejaVuSans-29" d="M 513 4856 
L 1013 4856 
Q 1481 4119 1714 3412 
Q 1947 2706 1947 2009 
Q 1947 1309 1714 600 
Q 1481 -109 1013 -844 
L 513 -844 
Q 928 -128 1133 580 
Q 1338 1288 1338 2009 
Q 1338 2731 1133 3434 
Q 928 4138 513 4856 
z
" transform="scale(0.015625)"/>
      </defs>
      <use xlink:href="#DejaVuSans-45"/>
      <use xlink:href="#DejaVuSans-44" transform="translate(63.183594 0)"/>
      <use xlink:href="#DejaVuSans-41" transform="translate(138.435547 0)"/>
      <use xlink:href="#DejaVuSans-20" transform="translate(206.84375 0)"/>
      <use xlink:href="#DejaVuSans-28" transform="translate(238.630859 0)"/>
      <use xlink:href="#DejaVuSans-75" transform="translate(277.644531 0)"/>
      <use xlink:href="#DejaVuSans-53" transform="translate(341.023438 0)"/>
      <use xlink:href="#DejaVuSans-29" transform="translate(404.5 0)"/>
     </g>
    </g>
   </g>
   <g id="line2d_27">
    <path d="M 42.191065 219.273965 
L 42.492079 219.3232 
L 42.793093 218.745564 
L 43.094107 218.791503 
L 43.395121 218.607718 
L 43.696135 218.765252 
L 43.997149 218.739001 
L 44.298162 218.584734 
L 44.599176 217.36382 
L 44.90019 217.514792 
L 45.201204 218.505967 
L 45.502218 218.181053 
L 45.803232 217.308022 
L 46.104246 213.855317 
L 46.405259 212.916658 
L 46.706273 213.001988 
L 47.007287 213.257979 
L 47.609315 215.916434 
L 47.910329 215.460237 
L 48.211343 213.523827 
L 48.81337 213.67808 
L 49.114384 213.202195 
L 49.415398 214.222902 
L 49.716412 213.973475 
L 50.017426 215.010589 
L 50.31844 216.599103 
L 50.619453 211.078704 
L 50.920467 208.561389 
L 51.221481 208.174102 
L 51.522495 208.653282 
L 51.823509 208.768159 
L 52.124523 208.302104 
L 52.425536 208.564671 
L 53.027564 205.948873 
L 53.328578 205.643648 
L 53.629592 206.546212 
L 54.833647 207.340462 
L 55.134661 207.836049 
L 55.435675 208.088772 
L 55.736689 207.714624 
L 56.037703 207.786828 
L 56.940744 207.196052 
L 57.542772 206.172064 
L 57.843786 207.783533 
L 58.1448 208.183946 
L 58.445814 207.43565 
L 58.746827 208.830505 
L 59.348855 209.490204 
L 59.950883 208.853489 
L 60.251897 209.158714 
L 60.552911 208.551531 
L 60.853924 209.165277 
L 61.154938 209.14887 
L 61.455952 208.630313 
L 61.756966 208.489185 
L 62.05798 208.482608 
L 62.358994 208.712361 
L 62.660007 208.64672 
L 63.262035 208.860052 
L 63.563049 209.217793 
L 63.864063 207.547231 
L 64.165077 204.429297 
L 64.466091 203.16243 
L 64.767104 203.602219 
L 65.068118 203.572673 
L 65.369132 203.260885 
L 65.670146 203.638315 
L 66.272174 203.021302 
L 66.573188 203.654736 
L 67.175215 203.096788 
L 67.476229 202.233601 
L 67.777243 204.750929 
L 68.078257 204.764055 
L 68.379271 205.171031 
L 68.680285 204.56058 
L 68.981298 202.364885 
L 69.282312 201.357303 
L 69.583326 202.026832 
L 69.88434 202.076066 
L 70.185354 201.744576 
L 70.486368 201.810218 
L 70.787382 201.140689 
L 71.088395 201.757716 
L 71.389409 200.84859 
L 71.690423 200.976592 
L 71.991437 200.503974 
L 72.292451 200.487567 
L 72.593465 200.648383 
L 72.894479 200.658227 
L 73.195492 200.48099 
L 73.496506 200.625413 
L 73.79752 200.228281 
L 74.098534 200.674634 
L 74.399548 200.622118 
L 74.700562 200.205312 
L 75.001575 199.358532 
L 75.302589 199.273202 
L 75.603603 199.345406 
L 75.904617 199.240388 
L 76.205631 198.518329 
L 76.506645 198.866226 
L 76.807659 198.646331 
L 77.108672 198.587252 
L 77.409686 198.065413 
L 77.7107 198.058851 
L 78.011714 197.566544 
L 78.613742 197.313822 
L 78.914756 197.47137 
L 79.516783 196.217628 
L 79.817797 196.457212 
L 80.118811 197.051269 
L 80.720839 195.439785 
L 81.021853 195.964906 
L 81.924894 194.921214 
L 82.225908 194.865417 
L 82.526922 195.446348 
L 82.827936 195.367581 
L 83.12895 195.567774 
L 83.730977 194.688194 
L 84.031991 194.55691 
L 84.333005 194.596301 
L 84.634019 195.111577 
L 84.935033 193.72327 
L 85.236046 193.788912 
L 85.53706 192.751784 
L 85.838074 192.466247 
L 86.440102 192.935583 
L 86.741116 192.650046 
L 87.04213 192.098661 
L 87.343143 192.193836 
L 87.945171 191.639169 
L 88.246185 191.452102 
L 88.547199 190.976203 
L 88.848213 192.387479 
L 89.149227 192.213538 
L 89.45024 190.851482 
L 89.751254 187.763081 
L 90.052268 187.205133 
L 90.353282 188.57047 
L 90.654296 188.688614 
L 90.95531 189.630568 
L 91.256324 189.417236 
L 91.557337 189.840619 
L 91.858351 189.752007 
L 92.159365 190.093328 
L 92.460379 189.266264 
L 92.761393 188.901946 
L 93.062407 189.30236 
L 93.363421 189.40411 
L 93.664434 189.305641 
L 93.965448 189.518973 
L 94.266462 189.400829 
L 94.567476 189.42708 
L 94.86849 189.8439 
L 95.169504 188.462156 
L 95.470517 189.400829 
L 95.771531 189.102153 
L 96.072545 189.039793 
L 96.373559 189.656819 
L 96.674573 190.579071 
L 96.975587 189.902979 
L 97.276601 190.244314 
L 97.878628 189.039793 
L 98.179642 189.400829 
L 98.78167 189.089027 
L 99.082684 189.410673 
L 99.383698 189.322048 
L 99.684711 188.554063 
L 100.286739 188.728005 
L 100.587753 188.330873 
L 100.888767 188.389952 
L 101.189781 188.209447 
L 101.490794 188.291496 
L 102.393836 188.009241 
L 102.69485 188.235699 
L 102.995864 188.00596 
L 103.296878 188.967588 
L 103.597891 188.317747 
L 104.199919 188.120822 
L 104.500933 187.559593 
L 104.801947 187.927192 
L 105.102961 188.025648 
L 105.704988 187.854988 
L 106.006002 188.143806 
L 106.307016 187.684314 
L 106.60803 187.943599 
L 106.909044 187.661344 
L 107.210058 188.012522 
L 107.511072 187.618672 
L 107.812085 187.749955 
L 108.113099 187.605546 
L 108.414113 187.09027 
L 109.317155 187.323291 
L 109.618169 187.004927 
L 109.919182 187.152631 
L 110.220196 186.995082 
L 110.52121 187.38237 
L 110.822224 187.064006 
L 111.123238 187.165756 
L 111.424252 186.98852 
L 111.725266 186.486369 
L 112.026279 187.152631 
L 112.327293 186.732529 
L 112.628307 186.863799 
L 112.929321 186.351804 
L 113.230335 186.653748 
L 113.531349 186.207395 
L 113.832363 186.433853 
L 115.036418 185.619915 
L 115.638446 185.547711 
L 115.93946 185.770887 
L 116.240473 185.836529 
L 116.541487 185.002888 
L 116.842501 185.36063 
L 117.143515 185.029139 
L 117.444529 185.235909 
L 118.046556 184.671398 
L 118.34757 184.743603 
L 118.648584 184.687805 
L 118.949598 184.169248 
L 119.250612 184.267704 
L 119.551626 184.195499 
L 119.85264 184.536833 
L 120.153653 184.284124 
L 120.454667 184.290687 
L 120.755681 183.778679 
L 121.056695 184.129857 
L 121.357709 183.493142 
L 121.658723 183.489861 
L 121.959737 182.951615 
L 122.26075 182.977866 
L 122.561764 183.6113 
L 122.862778 183.493142 
L 123.163792 183.781974 
L 123.464806 183.503 
L 124.367847 183.197761 
L 124.668861 183.430796 
L 124.969875 182.652939 
L 125.270889 183.053352 
L 125.571903 182.974585 
L 126.173931 182.954897 
L 126.775958 182.735002 
L 127.076972 182.836739 
L 127.377986 182.433044 
L 127.679 182.738283 
L 127.980014 182.86299 
L 128.281027 181.930894 
L 128.883055 182.242696 
L 129.184069 182.16721 
L 129.485083 181.924331 
L 129.786097 181.96044 
L 130.087111 181.39593 
L 130.388124 181.701155 
L 130.689138 180.956126 
L 130.990152 181.730687 
L 131.291166 181.586278 
L 131.59218 181.031612 
L 132.194208 180.900328 
L 132.495221 180.660745 
L 132.796235 180.759201 
L 133.097249 180.52618 
L 133.398263 180.85767 
L 134.000291 180.608229 
L 134.301304 180.778903 
L 134.602318 180.44085 
L 134.903332 180.913468 
L 135.806374 180.253769 
L 136.107388 180.358801 
L 136.408401 179.574396 
L 136.709415 180.263613 
L 137.010429 180.224237 
L 137.311443 179.899309 
L 137.612457 179.968232 
L 137.913471 179.66957 
L 138.214485 179.856651 
L 138.515498 179.7549 
L 138.816512 179.836949 
L 139.117526 179.525161 
L 140.020568 179.370908 
L 140.923609 178.816241 
L 141.224623 179.00659 
L 141.525637 178.993464 
L 141.826651 178.7506 
L 142.127665 179.121466 
L 142.428679 178.537268 
L 142.729692 178.730911 
L 143.030706 178.573363 
L 143.33172 178.675114 
L 143.632734 178.373156 
L 144.234762 177.030803 
L 144.535776 176.75511 
L 144.836789 177.017677 
L 145.137803 177.076756 
L 145.438817 176.886394 
L 145.739831 176.892957 
L 146.040845 177.437779 
L 146.341859 176.728859 
L 146.642873 176.508964 
L 146.943886 176.551636 
L 147.2449 176.1906 
L 147.846928 176.213583 
L 148.74997 175.731121 
L 149.050983 176.197163 
L 149.351997 175.878812 
L 149.653011 175.37338 
L 149.954025 175.45871 
L 150.255039 175.882093 
L 150.556053 176.062612 
L 150.857066 176.036347 
L 151.15808 176.489276 
L 151.459094 175.337271 
L 152.061122 174.920451 
L 152.362136 175.058297 
L 152.66315 174.762916 
L 152.964163 174.838402 
L 153.265177 175.087844 
L 153.566191 174.618507 
L 153.867205 174.995937 
L 154.168219 174.989374 
L 154.770247 174.365785 
L 155.07126 174.835121 
L 155.372274 174.588975 
L 155.673288 174.506912 
L 155.974302 173.925995 
L 156.57633 173.68313 
L 156.877344 173.755334 
L 157.178357 173.115338 
L 157.479371 173.220356 
L 157.780385 172.770722 
L 158.081399 173.184261 
L 158.382413 172.97421 
L 158.683427 173.223638 
L 158.984441 172.68866 
L 159.285454 172.714925 
L 159.887482 172.435951 
L 160.188496 172.573797 
L 160.48951 172.183228 
L 160.790524 172.242307 
L 161.392551 171.887847 
L 161.693565 171.428369 
L 161.994579 171.605592 
L 162.295593 170.145094 
L 162.596607 169.409896 
L 162.897621 169.22611 
L 163.198634 168.477814 
L 163.499648 168.828978 
L 163.800662 168.51719 
L 164.101676 167.946117 
L 164.703704 167.955961 
L 165.004718 168.083963 
L 165.305731 167.381606 
L 165.606745 167.841085 
L 165.907759 164.978162 
L 166.509789 164.28565 
L 166.810803 164.33818 
L 167.111817 164.085457 
L 167.713845 164.082175 
L 168.014859 163.491386 
L 168.315873 163.369974 
L 168.616886 163.783513 
L 168.9179 163.287912 
L 169.519928 163.018782 
L 169.820942 163.169754 
L 170.121956 162.825152 
L 170.42297 162.985968 
L 170.723984 162.936747 
L 171.024998 162.592118 
L 171.326011 162.746371 
L 171.627025 162.175298 
L 171.928039 161.860228 
L 172.229053 161.377753 
L 172.530067 161.650164 
L 172.831081 161.587817 
L 173.132095 161.34822 
L 173.433109 160.934681 
L 173.734123 161.210374 
L 174.33615 160.655707 
L 174.637164 160.731207 
L 175.239192 160.658989 
L 176.443248 160.977367 
L 176.744261 160.747614 
L 177.346289 160.636019 
L 178.249331 160.570391 
L 178.550345 160.114167 
L 178.851359 160.278292 
L 180.055414 158.775108 
L 180.657442 158.775108 
L 180.958456 158.939206 
L 181.560484 158.696327 
L 181.861498 158.318912 
L 182.162511 158.125254 
L 182.463525 157.734685 
L 182.764539 158.089159 
L 183.065553 157.885684 
L 183.667581 157.314583 
L 183.968595 157.485271 
L 184.570623 157.268644 
L 184.871636 157.088139 
L 185.17265 156.74351 
L 185.473664 156.825573 
L 186.075692 156.645068 
L 186.67772 156.32669 
L 186.978734 156.448129 
L 187.279748 157.616555 
L 188.182789 155.568549 
L 188.483803 156.060869 
L 189.085831 155.430703 
L 189.386845 155.404452 
L 189.687859 155.785177 
L 189.988873 155.726084 
L 190.289886 154.856348 
L 190.5909 155.132041 
L 190.891914 154.547842 
L 191.192928 154.318089 
L 191.493942 154.652874 
L 192.09597 154.098208 
L 192.396984 154.593781 
L 192.697998 154.449372 
L 192.999011 154.721783 
L 193.300025 154.140866 
L 193.601039 153.822515 
L 193.902053 153.786392 
L 194.203067 153.63542 
L 194.504081 153.911113 
L 194.805095 153.747015 
L 195.106109 153.750297 
L 195.407123 154.111333 
L 195.708136 152.834622 
L 196.00915 152.273392 
L 196.310164 152.293081 
L 196.611178 151.564473 
L 196.912192 151.840138 
L 197.51422 151.479129 
L 198.116248 151.456159 
L 198.718275 151.029495 
L 199.019289 150.970402 
L 199.621317 150.343545 
L 199.922331 150.501079 
L 200.223345 149.838099 
L 200.524359 149.664158 
L 200.825373 149.710097 
L 201.126386 149.158712 
L 201.4274 149.913599 
L 201.728414 149.831537 
L 202.029428 150.11051 
L 202.631456 149.628062 
L 202.93247 150.156478 
L 203.233484 149.811848 
L 203.835511 149.946413 
L 204.136525 150.071134 
L 204.437539 149.667439 
L 204.738553 149.555844 
L 205.039567 149.152149 
L 205.340581 149.043863 
L 205.641595 149.532874 
L 205.942609 149.250619 
L 206.544637 149.959539 
L 206.84565 147.281395 
L 207.146664 148.1741 
L 207.447678 148.489197 
L 207.748692 147.9575 
L 208.049706 146.309908 
L 208.35072 145.666644 
L 208.651734 145.650209 
L 208.952748 146.48385 
L 209.253762 146.539661 
L 209.554775 146.926921 
L 209.855789 146.887544 
L 210.156803 146.339441 
L 210.457817 146.336159 
L 211.059845 145.299045 
L 211.360859 145.41064 
L 211.661873 145.213701 
L 211.962887 145.325296 
L 212.564914 145.236671 
L 213.166942 144.603251 
L 213.76897 145.039759 
L 214.069984 144.353809 
L 214.370998 144.668879 
L 214.973025 144.26193 
L 215.274039 144.465404 
L 215.575053 144.091242 
L 215.876067 143.999363 
L 216.177081 144.032177 
L 216.478095 144.26193 
L 216.779109 143.927145 
L 217.080123 143.835238 
L 217.381137 143.959959 
L 217.68215 144.347246 
L 218.284178 143.615357 
L 218.585192 143.940271 
L 219.18722 143.484074 
L 219.488234 143.84511 
L 220.090262 143.15916 
L 220.391275 143.264165 
L 220.993303 145.029915 
L 221.294317 144.606532 
L 221.595331 144.64919 
L 221.896345 142.68981 
L 222.197359 142.98191 
L 222.799387 142.781717 
L 223.1004 142.355052 
L 223.401414 142.443678 
L 223.702428 142.355052 
L 224.003442 141.931669 
L 224.906484 141.925107 
L 225.207498 142.141706 
L 225.508512 142.752184 
L 225.809525 142.099048 
L 226.110539 142.03342 
L 226.411553 142.279553 
L 226.712567 142.338645 
L 227.013581 141.462347 
L 227.314595 142.10233 
L 227.615609 141.58704 
L 228.51865 141.879167 
L 228.819664 141.012685 
L 229.120678 141.354033 
L 229.421692 141.380284 
L 230.02372 141.613319 
L 230.625748 141.396691 
L 230.926762 141.084904 
L 231.227775 141.134124 
L 231.829803 140.815774 
L 232.130817 141.065215 
L 232.431831 140.287359 
L 232.732845 140.349733 
L 233.334873 141.045527 
L 233.9369 140.349733 
L 234.237914 140.507267 
L 234.538928 140.231575 
L 235.140956 140.605709 
L 235.742984 140.234856 
L 236.043998 139.749099 
L 236.345012 140.2447 
L 236.646025 140.136387 
L 236.947039 139.844287 
L 237.248053 139.197714 
L 237.850081 139.292902 
L 238.151095 139.637532 
L 239.054137 138.866238 
L 239.35515 139.253525 
L 239.656164 138.787484 
L 240.258192 138.974552 
L 241.161234 138.127786 
L 241.763262 138.50192 
L 242.064275 138.616797 
L 242.365289 138.321416 
L 242.967317 138.213102 
L 243.268331 138.222946 
L 243.569345 139.453718 
L 243.870359 138.593827 
L 244.171373 138.35423 
L 244.7734 138.350948 
L 245.074414 137.894751 
L 245.375428 138.068693 
L 246.27847 137.359773 
L 246.579484 137.602652 
L 246.880498 137.477931 
L 247.181512 137.11036 
L 247.482525 137.42871 
L 247.783539 136.874044 
L 248.084553 136.916702 
L 248.385567 136.631165 
L 248.686581 136.916702 
L 248.987595 136.604914 
L 249.589623 136.440817 
L 249.890637 136.506445 
L 250.19165 136.447379 
L 250.492664 135.974748 
L 250.793678 136.240596 
L 251.094692 136.053529 
L 251.395706 136.703384 
L 251.69672 136.394849 
L 251.997734 136.312815 
L 252.298748 136.027278 
L 252.599762 136.224189 
L 252.900775 136.598351 
L 253.201789 136.106031 
L 253.502803 135.866462 
L 253.803817 135.840211 
L 254.104831 136.168406 
L 254.405845 135.876306 
L 254.706859 135.817213 
L 255.007873 135.571081 
L 255.308887 135.764711 
L 255.6099 133.992398 
L 256.211928 133.349134 
L 256.512942 132.820719 
L 256.813956 132.715686 
L 257.11497 133.857833 
L 258.018012 134.419062 
L 258.319025 135.380705 
L 258.620039 135.406956 
L 258.921053 135.725334 
L 259.222067 136.276719 
L 259.523081 135.827057 
L 259.824095 136.092906 
L 260.125109 136.168406 
L 260.426123 136.509726 
L 260.727137 135.544802 
L 261.02815 135.485737 
L 261.329164 134.980292 
L 261.630178 134.793224 
L 261.931192 134.392811 
L 262.232206 135.000008 
L 263.135248 134.602876 
L 263.436262 134.570034 
L 264.038289 137.064392 
L 264.339303 136.54913 
L 265.242345 137.556712 
L 265.844373 137.559994 
L 266.145387 138.147474 
L 266.4464 137.894751 
L 266.747414 137.930847 
L 267.048428 138.941738 
L 267.349442 138.757924 
L 267.650456 138.856394 
L 267.95147 138.613515 
L 268.553498 138.754643 
L 269.155525 138.961426 
L 269.456539 138.413322 
L 269.757553 138.387071 
L 270.359581 138.603671 
L 270.660595 138.006346 
L 270.961609 138.213102 
L 271.262623 137.989939 
L 271.563637 138.239381 
L 271.86465 137.927565 
L 272.466678 137.989939 
L 272.767692 138.213102 
L 273.36972 138.098253 
L 273.670734 137.773312 
L 273.971748 137.917721 
L 274.573775 137.740498 
L 274.874789 138.140911 
L 275.175803 138.13763 
L 275.476817 137.651873 
L 276.078845 137.330241 
L 276.379859 137.064392 
L 276.680873 137.402459 
L 276.981887 137.944 
L 277.2829 137.842249 
L 278.185942 138.538043 
L 278.486956 138.265632 
L 278.78797 138.610234 
L 279.691012 138.213102 
L 279.992025 138.38379 
L 280.594053 138.344385 
L 280.895067 138.081819 
L 282.099123 138.108097 
L 282.400137 137.973532 
L 282.70115 137.707684 
L 283.002164 137.940691 
L 283.303178 137.49762 
L 283.604192 137.635466 
L 284.20622 136.814951 
L 284.507234 136.844511 
L 285.109262 137.326959 
L 285.410275 136.657416 
L 285.711289 136.732916 
L 286.012303 136.588507 
L 286.313317 136.8642 
L 286.915345 136.670542 
L 287.216359 136.165124 
L 287.818387 136.335784 
L 288.721428 136.027278 
L 289.022442 136.014152 
L 289.323456 135.682648 
L 289.62447 135.813932 
L 289.925484 135.26911 
L 290.226498 135.29867 
L 290.527512 135.521832 
L 290.828525 135.150979 
L 291.129539 135.160824 
L 291.430553 134.839164 
L 291.731567 135.324921 
L 292.032581 134.990136 
L 292.333595 135.656397 
L 292.634609 135.364298 
L 292.935623 135.495581 
L 293.236637 135.22317 
L 293.53765 135.489018 
L 293.838664 135.390549 
L 294.139678 134.990136 
L 294.440692 135.315077 
L 294.741706 135.059073 
L 295.04272 134.494562 
L 295.343734 134.36656 
L 295.644748 134.081023 
L 295.945762 134.504406 
L 296.246775 134.435497 
L 296.547789 133.805331 
L 296.848803 133.654359 
L 297.149817 134.084305 
L 297.751845 134.126963 
L 298.052859 133.562452 
L 298.353873 131.373347 
L 298.654887 130.40186 
L 298.9559 130.342767 
L 299.256914 130.053949 
L 299.557928 129.358155 
L 299.858942 129.02996 
L 300.159956 129.194058 
L 301.364012 127.720435 
L 301.665025 127.772937 
L 301.966042 127.175613 
L 302.267055 127.58587 
L 302.568069 127.421773 
L 302.869083 127.43818 
L 303.170097 127.247803 
L 303.471111 127.375805 
L 303.772125 127.185457 
L 304.073139 127.329866 
L 304.374153 126.781762 
L 304.675167 123.784275 
L 304.97618 124.171562 
L 305.277194 124.306127 
L 305.879222 123.482331 
L 306.180236 123.938528 
L 306.48125 123.817089 
L 306.782264 123.45608 
L 307.083278 123.419957 
L 307.384292 123.948372 
L 308.287333 124.096063 
L 308.588347 123.826933 
L 308.889361 124.027153 
L 309.491389 122.635565 
L 309.792403 123.23289 
L 310.093417 123.167262 
L 310.39443 122.599442 
L 310.695444 123.242734 
L 311.297472 123.081918 
L 312.501528 122.195775 
L 312.802542 122.317187 
L 313.103555 121.900367 
L 313.404569 121.834739 
L 313.705583 121.972585 
L 314.006597 121.631265 
L 314.608625 120.17074 
L 314.909639 120.157614 
L 315.210653 120.390648 
L 315.511667 121.716581 
L 315.81268 121.726425 
L 316.113694 121.985711 
L 316.414708 121.650953 
L 316.715722 121.742832 
L 317.016736 121.352291 
L 317.31775 121.2046 
L 317.919778 121.732988 
L 318.220792 121.10285 
L 318.521805 121.063473 
L 318.822819 121.454014 
L 319.123833 120.636781 
L 319.424847 121.053601 
L 319.725861 120.987973 
L 320.026875 120.577716 
L 320.628903 110.695499 
L 320.929917 108.565431 
L 321.23093 107.607097 
L 321.531944 107.954981 
L 321.832958 107.761351 
L 322.434986 108.207703 
L 322.736 107.859792 
L 323.037014 110.18349 
L 323.338028 110.268834 
L 323.639042 110.921943 
L 324.241069 110.446057 
L 324.542083 110.469027 
L 324.843097 110.787378 
L 325.144111 110.28196 
L 325.746139 110.406681 
L 326.047153 110.360713 
L 326.348167 109.681326 
L 326.64918 110.245837 
L 326.950194 110.029237 
L 327.251208 109.980016 
L 327.552222 109.720731 
L 327.853236 109.78964 
L 328.15425 109.59601 
L 328.756278 110.05877 
L 329.358305 109.730575 
L 330.261347 109.724012 
L 330.562361 109.458164 
L 331.766417 109.402352 
L 332.06743 109.559915 
L 332.368444 109.569759 
L 332.669458 109.198878 
L 332.970472 109.819173 
L 333.271486 109.727294 
L 333.873514 109.408943 
L 334.174528 109.248099 
L 334.475542 109.218567 
L 334.776555 108.923186 
L 335.077569 109.274378 
L 335.378583 108.808309 
L 335.679597 109.149657 
L 335.980611 109.175908 
L 336.281625 109.346569 
L 336.582639 109.340006 
L 336.883653 109.15622 
L 337.184667 109.149657 
L 337.48568 108.962563 
L 337.786694 108.634368 
L 338.087708 108.631086 
L 338.388722 108.965844 
L 338.689736 108.969125 
L 338.99075 110.455902 
L 339.291764 110.048926 
L 339.592778 110.629843 
L 339.893792 110.291804 
L 340.194805 111.023694 
L 340.495819 111.260009 
L 340.796833 111.033538 
L 341.097847 110.619999 
L 341.398861 110.606873 
L 342.000889 110.905536 
L 342.602917 110.370558 
L 342.90393 110.780815 
L 343.204944 110.416525 
L 343.505958 110.419806 
L 344.107986 109.389227 
L 344.409 108.355394 
L 345.011028 111.870459 
L 345.613055 113.705119 
L 346.215083 113.672305 
L 346.516097 113.849528 
L 346.817111 113.675586 
L 347.118125 113.655898 
L 347.419139 113.275173 
L 348.32218 113.73137 
L 348.924208 113.947997 
L 349.225222 114.092407 
L 349.526236 113.662461 
L 349.82725 113.970967 
L 350.128264 113.810151 
L 350.429278 114.230253 
L 350.730292 114.39435 
L 351.031305 114.007063 
L 351.332319 114.309006 
L 351.633333 114.31885 
L 351.934347 114.555166 
L 352.235361 114.56501 
L 352.536375 114.404194 
L 352.837389 114.079281 
L 353.138403 114.220409 
L 353.439417 113.675586 
L 353.74043 114.207283 
L 354.041444 113.626365 
L 354.342458 114.05303 
L 354.643472 114.118658 
L 354.944486 114.322159 
L 355.2455 114.312288 
L 355.847528 113.741214 
L 356.148542 114.144909 
L 356.449555 113.409738 
L 357.051583 113.285017 
L 357.352597 113.485238 
L 357.653611 113.216108 
L 357.954625 113.324394 
L 358.857667 113.130764 
L 359.459694 113.534459 
L 360.061722 112.881323 
L 360.362736 112.713944 
L 360.66375 112.720507 
L 360.964764 112.352908 
L 361.265778 113.006043 
L 361.566792 112.864916 
L 361.867805 112.110057 
L 362.168819 112.608912 
L 362.469833 112.123182 
L 363.071861 112.238059 
L 363.372875 111.909836 
L 363.974903 112.454658 
L 364.576931 111.857334 
L 364.877944 111.867178 
L 365.178958 111.699799 
L 365.780986 111.742457 
L 366.082 111.683392 
L 366.383014 111.296105 
L 366.684028 111.680111 
L 366.985042 111.358451 
L 367.286056 111.227168 
L 367.888083 111.404418 
L 368.189097 111.16154 
L 368.490111 111.404418 
L 368.791125 111.214042 
L 369.092139 111.289542 
L 369.393153 111.066352 
L 370.296194 111.443795 
L 370.898222 111.391293 
L 372.102278 112.398875 
L 372.403292 112.083805 
L 372.704306 112.178966 
L 373.306333 111.949241 
L 373.607347 112.766446 
L 373.908361 112.405437 
L 374.811403 112.100212 
L 375.112417 111.722769 
L 375.413431 112.21178 
L 376.015458 111.798269 
L 376.316472 112.172403 
L 376.617486 112.064089 
L 376.9185 112.149433 
L 377.219514 111.483172 
L 377.520528 111.151696 
L 377.821542 111.292823 
L 378.122556 111.230449 
L 378.423569 111.456921 
L 379.025597 111.145133 
L 379.326611 111.066352 
L 379.627625 111.210761 
L 379.928639 110.987598 
L 380.229653 110.908817 
L 380.530667 110.692217 
L 380.831681 110.728313 
L 381.132694 110.62328 
L 381.433708 110.107991 
L 381.734722 110.442776 
L 382.035736 110.137551 
L 382.33675 110.245837 
L 382.637764 110.491997 
L 382.938778 110.05877 
L 383.239792 110.278679 
L 383.841819 110.426369 
L 384.142833 110.124425 
L 384.443847 110.337744 
L 384.744861 110.400118 
L 385.045875 110.180209 
L 385.346889 109.76667 
L 385.647903 109.61898 
L 385.948917 109.792921 
L 386.550944 109.490978 
L 386.851958 109.632105 
L 387.453986 109.382664 
L 387.755 108.614679 
L 388.357028 109.100409 
L 388.658042 108.808309 
L 388.959056 108.726274 
L 389.260069 109.047906 
L 389.561083 108.752526 
L 389.862097 108.207703 
L 390.163111 109.346569 
L 390.464125 108.972407 
L 390.765139 109.208722 
L 391.066153 109.123379 
L 391.367167 109.205441 
L 391.668181 108.644212 
L 391.969194 108.355394 
L 392.270208 108.877246 
L 392.571222 108.624523 
L 392.872236 108.936311 
L 393.17325 108.197859 
L 393.474264 108.460426 
L 393.775278 108.522773 
L 394.076292 108.466989 
L 394.377306 109.031499 
L 394.979333 108.598272 
L 395.581361 108.59171 
L 395.882375 108.414459 
L 396.183389 109.038062 
L 397.086431 107.843386 
L 397.387444 108.47027 
L 397.989472 108.371801 
L 398.290486 108.017355 
L 398.5915 107.85323 
L 398.892514 108.496521 
L 399.193528 108.332424 
L 399.494542 108.47027 
L 400.096569 104.344727 
L 400.397583 104.019813 
L 400.698597 103.038483 
L 400.999611 103.20258 
L 401.300625 103.123826 
L 401.902653 102.611818 
L 402.805694 101.961964 
L 403.106708 102.014494 
L 403.407722 102.208124 
L 403.708736 101.88321 
L 404.00975 102.011212 
L 404.310764 101.522174 
L 404.611778 101.909461 
L 404.912792 101.742083 
L 405.213806 101.961964 
L 405.514819 101.597673 
L 406.116847 101.709269 
L 406.417861 101.495923 
L 406.718875 101.98168 
L 407.320903 101.154602 
L 407.621917 101.3187 
L 407.922931 101.856959 
L 408.825972 100.225774 
L 409.126986 100.481778 
L 409.428 100.527717 
L 409.729014 100.402997 
L 410.030028 100.406278 
L 410.632056 100.662282 
L 410.933069 100.373464 
L 411.234083 101.151321 
L 411.535097 100.524436 
L 411.836111 101.292448 
L 412.137125 101.131632 
L 412.438139 101.341669 
L 412.739153 101.374483 
L 413.040167 101.276041 
L 413.341181 101.059414 
L 413.642194 100.258588 
L 413.943208 100.455527 
L 414.244222 100.40956 
L 414.545236 100.130586 
L 414.84625 100.009174 
L 415.749292 100.629468 
L 416.050306 100.429276 
L 416.351319 100.028862 
L 416.652333 100.445683 
L 416.953347 100.590092 
L 417.254361 100.21593 
L 418.458417 99.907423 
L 418.759431 99.493884 
L 419.060444 99.77614 
L 419.361458 99.152536 
L 419.662472 99.569356 
L 420.2645 98.588026 
L 420.565514 99.073783 
L 420.866528 98.926092 
L 421.468556 99.264131 
L 421.769569 99.388852 
L 422.070583 99.270694 
L 422.371597 98.889997 
L 422.672611 99.50701 
L 422.973625 99.362601 
L 423.274639 99.024562 
L 423.575653 99.073783 
L 423.876667 98.778402 
L 424.177681 98.643837 
L 424.478694 98.660244 
L 424.779708 98.207328 
L 425.080722 98.161361 
L 425.381736 97.74126 
L 425.68275 97.885669 
L 426.886806 97.98742 
L 427.488833 97.698602 
L 427.789847 98.240142 
L 428.993903 97.938199 
L 429.294917 98.200766 
L 429.595931 98.010389 
L 430.197958 97.94148 
L 430.498972 97.583725 
L 430.799986 97.91851 
L 431.101 97.606695 
L 431.402014 98.469895 
L 432.004042 98.010389 
L 432.305056 98.204047 
L 432.606069 96.474392 
L 432.907083 93.182517 
L 433.208097 95.680156 
L 434.111139 95.158304 
L 434.412153 95.644033 
L 434.713167 95.079523 
L 435.014181 95.12549 
L 435.315194 95.456966 
L 435.616208 96.93718 
L 435.917222 96.494081 
L 436.218236 96.582706 
L 436.51925 96.93718 
L 436.820264 96.520359 
L 437.121278 95.693282 
L 437.422292 95.942723 
L 437.723303 95.775317 
L 438.024317 95.75891 
L 438.325331 95.483217 
L 438.626345 95.591531 
L 438.927359 95.473373 
L 439.228373 95.775317 
L 439.830401 95.683438 
L 440.131414 95.328964 
L 440.432428 95.411027 
L 440.733442 95.328964 
L 441.034456 95.007332 
L 441.33547 95.27318 
L 441.636484 94.813702 
L 442.238512 94.613482 
L 442.840539 95.010613 
L 443.141553 94.688981 
L 443.442567 94.87933 
L 443.743581 94.41657 
L 444.044595 94.738202 
L 444.345609 94.357478 
L 444.646623 94.331226 
L 444.947637 94.515012 
L 445.248651 93.82909 
L 445.549664 94.055534 
L 445.850678 93.993187 
L 446.151692 94.163848 
L 446.452706 93.865185 
L 446.75372 93.993187 
L 447.355748 93.385991 
L 447.656762 93.717495 
L 447.957776 93.238301 
L 448.559803 92.959327 
L 449.161831 92.325907 
L 449.462845 92.378409 
L 449.763859 92.27994 
L 450.064873 92.473597 
L 450.365887 92.171653 
L 450.666901 92.316062 
L 450.967914 91.968152 
L 451.268928 92.204467 
L 451.569942 91.991121 
L 452.17197 91.915649 
L 452.472984 92.352158 
L 452.773998 92.174935 
L 453.075012 92.532662 
L 453.677039 92.194623 
L 453.978053 91.462734 
L 454.279067 92.194623 
L 454.580081 91.981277 
L 454.881095 92.388253 
L 455.182109 91.81718 
L 456.085151 91.886117 
L 456.988192 91.170634 
L 457.289206 91.393797 
L 457.59022 91.249388 
L 458.192248 91.265795 
L 458.493262 91.137793 
L 458.794276 91.193604 
L 459.095289 90.694721 
L 459.396303 90.793191 
L 459.697317 91.121386 
L 460.299345 90.681596 
L 460.600359 90.888379 
L 460.901373 90.717691 
L 461.503401 90.602842 
L 461.804414 90.990102 
L 462.105428 90.284464 
L 462.707456 90.655345 
L 463.00847 90.373089 
L 463.309484 90.359964 
L 463.610498 90.908067 
L 463.911512 90.373089 
L 464.212526 90.205711 
L 464.513539 90.189304 
L 464.814553 89.989083 
L 465.115567 89.975958 
L 465.416581 90.087553 
L 465.717595 90.711128 
L 466.018609 90.865382 
L 466.319623 91.590736 
L 466.620637 91.918931 
L 466.921651 91.541487 
L 467.222664 91.429892 
L 467.523678 91.653082 
L 468.42672 90.586408 
L 469.028748 91.482422 
L 469.630776 90.432154 
L 470.232803 90.812879 
L 470.533817 90.484684 
L 470.834831 90.750533 
L 471.436859 90.186022 
L 472.038887 90.189304 
L 472.339901 89.887332 
L 472.640914 90.192585 
L 472.941928 89.952988 
L 473.242942 89.378633 
L 473.543956 89.431135 
L 473.84497 89.270319 
L 474.145984 89.240787 
L 474.446998 89.408166 
L 474.748012 88.810841 
L 475.049026 89.178413 
L 475.350039 89.3491 
L 475.651053 88.623746 
L 476.253081 88.695965 
L 476.554095 88.275863 
L 476.855109 88.650025 
L 477.156123 88.525304 
L 477.457137 88.275863 
L 478.360178 88.134735 
L 478.661192 87.770417 
L 478.962206 88.170831 
L 479.26322 88.275863 
L 479.564234 87.964075 
L 480.166262 87.960794 
L 480.467276 87.954231 
L 480.768289 87.570225 
L 481.069303 87.849199 
L 481.370317 87.33719 
L 481.671331 87.589913 
L 481.972345 86.9729 
L 482.273359 87.061498 
L 482.574373 83.96885 
L 482.875387 84.464424 
L 483.176401 83.87038 
L 483.477414 84.027915 
L 483.778428 83.922883 
L 484.079442 83.985257 
L 484.68147 83.680004 
L 484.982484 84.576019 
L 485.283498 84.073855 
L 485.584512 83.857255 
L 485.885526 82.96124 
L 486.186539 83.007208 
L 486.487553 82.672422 
L 486.788567 83.076117 
L 487.089581 84.267512 
L 487.390595 82.938271 
L 487.691609 82.639608 
L 487.992623 81.970066 
L 488.293637 82.245758 
L 488.594651 81.218488 
L 489.497692 80.916544 
L 489.798706 81.060953 
L 490.09972 80.926388 
L 490.400734 81.05439 
L 490.701748 80.565352 
L 491.002762 80.48988 
L 491.604789 80.555508 
L 492.206817 80.007404 
L 492.507831 80.164939 
L 492.808845 79.833462 
L 493.109859 79.830181 
L 493.410873 79.961464 
L 494.012901 79.876121 
L 494.313914 81.037983 
L 494.614928 79.866276 
L 495.216956 79.99756 
L 495.818984 80.151813 
L 496.119998 80.558789 
L 496.421012 80.260127 
L 496.722026 80.41438 
L 497.023039 80.178092 
L 497.324053 80.306066 
L 497.625067 80.082904 
L 497.926081 80.427506 
L 498.227095 80.184655 
L 498.528109 80.525975 
L 498.829123 80.58504 
L 500.635206 80.187936 
L 500.93622 79.882683 
L 501.237234 79.971309 
L 501.839262 79.905681 
L 502.140276 80.233876 
L 502.441289 79.971309 
L 502.742303 80.135406 
L 503.043317 79.794086 
L 503.344331 79.692335 
L 503.645345 79.738274 
L 503.946359 80.12228 
L 504.849401 79.216449 
L 505.150414 79.426486 
L 505.752442 79.160638 
L 506.053456 79.876121 
L 506.35447 78.802911 
L 506.655484 78.1629 
L 506.956498 78.415623 
L 507.257512 76.676152 
L 507.558526 77.739517 
L 508.160553 77.483513 
L 508.461567 77.142193 
L 509.063595 77.342386 
L 509.364609 78.21543 
L 509.665623 77.578701 
L 509.966637 77.437574 
L 510.267651 76.941972 
L 510.568664 76.669589 
L 510.869678 76.784438 
L 511.170692 76.200239 
L 511.471706 76.699121 
L 511.77272 76.47265 
L 512.073734 75.842511 
L 512.675762 75.744042 
L 512.976776 76.00989 
L 513.277789 74.260547 
L 513.578803 73.335028 
L 514.180831 72.478418 
L 515.083873 72.416043 
L 515.384887 71.877784 
L 515.685901 72.032065 
L 516.287928 71.198424 
L 516.588942 71.395336 
L 516.889956 70.35494 
L 517.19097 70.607635 
L 517.491984 70.699542 
L 517.792998 71.966409 
L 518.094012 72.074723 
L 518.395026 72.675329 
L 518.696039 72.458729 
L 518.997053 72.583422 
L 519.298067 72.465292 
L 519.599081 72.511231 
L 519.900095 72.731113 
L 520.201109 72.412762 
L 520.502123 72.534201 
L 520.803137 72.06816 
L 521.104151 72.760673 
L 521.405164 73.797787 
L 521.706178 73.620564 
L 522.007192 73.082305 
L 522.308206 73.58775 
L 522.60922 73.581188 
L 522.910234 73.699318 
L 523.512262 73.092149 
L 523.813276 72.809894 
L 524.114289 73.692755 
L 524.415303 73.61072 
L 524.716317 73.705881 
L 525.017331 73.407218 
L 525.318345 73.53522 
L 525.619359 72.882112 
L 525.920373 73.38753 
L 526.221387 73.09543 
L 526.522401 73.568034 
L 526.823414 73.318621 
L 527.124428 74.539521 
L 527.425442 75.205782 
L 528.02747 75.524133 
L 528.328484 76.758187 
L 528.629498 77.266913 
L 528.930512 76.96497 
L 529.231526 77.063412 
L 529.532539 77.391634 
L 530.435581 77.273476 
L 530.736595 77.257069 
L 531.037609 77.06013 
L 531.338623 77.204539 
L 531.639637 76.67287 
L 531.940651 76.659717 
L 532.241664 77.007628 
L 532.542678 76.561275 
L 532.843692 76.535024 
L 533.144706 76.065674 
L 533.44572 76.443117 
L 533.746734 76.164143 
L 534.047748 76.128048 
L 534.348762 76.531743 
L 534.649776 76.177269 
L 534.950789 76.082081 
L 535.251803 76.134611 
L 535.853831 75.950797 
L 536.154845 76.068955 
L 536.455859 75.724353 
L 536.756873 75.80967 
L 537.057887 75.383005 
L 537.358901 75.17625 
L 537.659914 75.212345 
L 537.960928 74.933371 
L 538.261942 75.494601 
L 538.562956 75.054811 
L 538.86397 75.094187 
L 539.164984 74.805369 
L 539.465998 74.910402 
L 539.767012 74.756148 
L 540.670053 74.716772 
L 540.971067 73.925789 
L 541.272081 74.089887 
L 541.573095 74.02754 
L 541.874109 74.135854 
L 542.175123 74.037384 
L 542.476137 73.640253 
L 542.777151 73.522095 
L 543.078164 73.797787 
L 543.379178 74.654397 
L 543.680192 74.828339 
L 543.981206 74.194919 
L 544.28222 75.044966 
L 544.884248 75.251722 
L 545.787289 74.752867 
L 546.088303 75.097469 
L 546.690331 74.890713 
L 547.292359 74.22117 
L 547.894387 74.811932 
L 548.195401 74.093168 
L 548.496414 74.477174 
L 548.797428 74.398393 
L 549.098442 74.040666 
L 549.399456 74.112857 
L 549.70047 73.1939 
L 550.001484 73.485999 
L 550.302498 73.384249 
L 550.603512 73.577906 
L 550.904526 73.220151 
L 551.205539 73.600876 
L 551.506553 72.534201 
L 552.108581 73.256247 
L 552.409595 72.527638 
L 552.710609 72.619545 
L 553.011623 72.258509 
L 553.312637 72.790205 
L 553.613651 72.458729 
L 553.914664 72.462011 
L 554.516692 72.317601 
L 554.817706 72.55389 
L 555.11872 71.907344 
L 555.419734 72.386511 
L 555.720748 71.723531 
L 556.021762 71.815437 
L 556.623789 71.743219 
L 556.924803 72.038628 
L 557.526831 71.900781 
L 558.128859 71.342834 
L 558.429873 71.703842 
L 559.031901 71.287022 
L 559.633928 71.506931 
L 559.934942 71.139332 
L 560.235956 71.55287 
L 560.53697 71.470836 
L 561.138998 70.903016 
L 561.440012 71.323118 
L 561.741026 71.073704 
L 562.042039 71.040862 
L 562.343053 70.876765 
L 562.644067 71.175427 
L 563.547109 71.18858 
L 563.848123 71.434713 
L 564.149137 71.25749 
L 564.450151 71.65134 
L 564.751164 71.559433 
L 565.353192 71.700561 
L 565.95522 71.38221 
L 566.256234 71.395336 
L 566.557248 71.713687 
L 566.858262 71.221394 
L 567.159276 71.487243 
L 568.062317 71.346115 
L 568.363331 71.569277 
L 568.664345 71.362522 
L 569.266373 71.441275 
L 569.567387 71.221394 
L 569.868401 71.319836 
L 570.169414 71.093392 
L 570.470428 71.332989 
L 571.072456 71.004767 
L 571.37347 71.040862 
L 571.674484 70.853795 
L 571.975498 71.119643 
L 572.276512 70.820981 
L 572.577526 71.13605 
L 572.878539 70.676572 
L 573.179556 71.086829 
L 573.480569 72.130507 
L 573.781583 71.434713 
L 574.082597 71.109799 
L 574.985639 70.604354 
L 575.286653 70.082529 
L 575.587667 70.653602 
L 575.888681 70.850514 
L 576.189694 70.784886 
L 576.490708 70.466507 
L 576.791722 70.436975 
L 577.092736 70.676572 
L 577.39375 70.374628 
L 577.995778 70.272877 
L 578.296792 70.492786 
L 578.597806 70.263033 
L 578.898819 70.689698 
L 579.801861 70.834107 
L 580.102875 71.529901 
L 580.403889 70.689698 
L 580.704903 70.443538 
L 581.005917 70.417286 
L 581.306931 69.829806 
L 581.607944 68.56622 
L 581.908958 68.871445 
L 582.209972 68.448062 
L 582.510986 68.326623 
L 582.812 68.366 
L 583.113014 68.66469 
L 583.414028 68.146118 
L 584.016056 68.41853 
L 584.317069 68.018116 
L 584.618083 68.349593 
L 584.919097 68.198621 
L 585.521125 68.17237 
L 585.822139 68.986322 
L 586.123153 68.454625 
L 586.424167 68.228153 
L 587.026194 68.090307 
L 587.327208 67.873707 
L 587.929236 68.828787 
L 588.23025 68.260995 
L 588.531264 68.087026 
L 588.832278 68.625285 
L 589.133292 68.336467 
L 589.434306 68.339748 
L 589.735319 68.799227 
L 590.638361 68.198621 
L 590.939375 67.801489 
L 591.240389 68.123149 
L 591.541403 67.909803 
L 592.444444 68.211746 
L 593.046472 68.211746 
L 593.347486 68.457906 
L 593.6485 68.211746 
L 593.949514 68.290528 
L 594.250528 68.201902 
L 594.551542 68.444781 
L 594.852556 68.011554 
L 595.153569 68.32006 
L 596.357625 68.011554 
L 596.658639 68.077182 
L 596.959653 67.982021 
L 597.260667 68.32006 
L 597.561681 67.883552 
L 597.862695 68.333186 
L 598.163708 68.221591 
L 598.464722 67.798208 
L 599.06675 68.237998 
L 599.367764 67.525797 
L 599.668778 67.758831 
L 599.969792 67.735861 
L 600.270806 67.8573 
L 600.57182 68.169088 
L 600.872833 67.627547 
L 601.173847 68.027961 
L 601.775875 67.46345 
L 602.377903 68.011554 
L 602.678917 67.50939 
L 602.979931 67.653799 
L 603.280945 66.984283 
L 603.882972 67.512671 
L 604.183986 67.598015 
L 604.786014 67.003972 
L 605.087028 67.561919 
L 605.388042 67.125411 
L 605.689056 67.63411 
L 605.99007 67.02366 
L 606.291083 67.647236 
L 606.592097 67.322322 
L 606.893111 67.230416 
L 607.495139 67.286227 
L 607.796153 67.266539 
L 608.097167 67.427355 
L 608.398181 67.348574 
L 608.699195 66.967849 
L 609.000208 67.259976 
L 609.301222 66.744686 
L 609.602236 66.994127 
L 610.204264 65.832265 
L 610.505278 66.235959 
L 610.806292 66.173613 
L 611.107306 65.917609 
L 611.40832 66.127646 
L 611.709333 66.157206 
L 612.010347 61.654247 
L 612.311361 66.757812 
L 613.214403 68.129712 
L 613.515417 68.021398 
L 613.816431 68.221591 
L 614.117445 68.562939 
L 614.418458 68.175651 
L 614.719472 69.324361 
L 615.020486 68.231435 
L 615.3215 68.707348 
L 615.622514 68.169088 
L 615.923528 69.514737 
L 616.224542 70.016873 
L 616.525556 70.016873 
L 616.82657 70.604354 
L 617.127583 70.029999 
L 617.428597 70.305691 
L 618.030625 69.901997 
L 618.331639 70.249908 
L 618.933667 70.263033 
L 619.234681 69.875746 
L 619.535695 70.266315 
L 619.836708 69.974215 
L 620.137722 69.984059 
L 620.438736 69.560676 
L 620.73975 69.88559 
L 621.341778 69.524581 
L 621.642792 69.504893 
L 621.943806 69.609897 
L 622.24482 69.216047 
L 622.545833 69.629586 
L 622.846847 69.038824 
L 623.147861 69.206203 
L 623.448875 68.674534 
L 623.749889 68.963352 
L 624.050903 69.061794 
L 624.351917 68.848475 
L 624.652931 68.822224 
L 624.953945 68.605597 
L 625.254958 68.576064 
L 625.555972 69.993904 
L 625.856986 68.815661 
L 626.158 68.421811 
L 626.459014 68.914103 
L 626.760028 68.533406 
L 627.061042 68.405404 
L 627.362056 68.0739 
L 627.66307 68.221591 
L 627.964083 68.024679 
L 628.265097 68.123149 
L 628.867125 68.014835 
L 629.168139 68.215028 
L 629.469153 67.752268 
L 629.770167 67.532359 
L 630.071181 67.70961 
L 630.372195 67.70961 
L 630.673208 67.26982 
L 630.974222 67.092569 
L 631.275236 67.361699 
L 631.57625 66.915346 
L 631.877264 67.063037 
L 632.178278 66.596996 
L 632.479292 66.787344 
L 632.780306 66.600277 
L 633.08132 66.196583 
L 633.382333 66.016078 
L 633.683347 66.55431 
L 633.984361 66.600277 
L 634.586389 65.950423 
L 634.887403 66.377087 
L 635.188417 66.098113 
L 635.489431 65.438442 
L 635.790445 65.861825 
L 636.091458 65.372786 
L 636.392472 65.556572 
L 636.693486 65.963548 
L 637.295514 65.372786 
L 638.198556 65.067561 
L 638.49957 64.686837 
L 639.101597 64.765618 
L 639.402611 64.404581 
L 639.703625 64.598239 
L 640.305653 64.450548 
L 640.606667 63.918852 
L 640.907681 63.941822 
L 641.208695 63.79085 
L 641.509708 64.063261 
L 641.810722 63.91557 
L 642.111736 63.167246 
L 642.713764 63.96151 
L 643.315792 63.754754 
L 643.616806 63.272279 
L 644.519847 63.239465 
L 644.820861 62.714331 
L 645.121875 62.704487 
L 645.422889 62.983461 
L 646.024917 62.215476 
L 646.325931 62.66511 
L 646.626945 62.451764 
L 646.927958 62.49445 
L 647.228972 62.169509 
L 647.529986 62.484605 
L 648.132014 62.061195 
L 648.433028 61.733 
L 648.734042 62.14982 
L 649.035056 61.716593 
L 649.33607 61.499966 
L 649.637083 61.683779 
L 649.938097 61.667372 
L 650.239111 61.201303 
L 650.540125 61.572184 
L 651.142153 61.155364 
L 651.443167 61.181615 
L 651.744181 61.549214 
L 652.045195 61.444182 
L 652.346208 61.138957 
L 652.647222 61.381835 
L 652.948236 61.125831 
L 653.24925 61.073301 
L 653.550264 60.672916 
L 653.851278 61.119269 
L 654.152292 60.965015 
L 654.453306 60.676197 
L 654.75432 60.745107 
L 655.356347 60.354538 
L 655.657361 60.738544 
L 655.958375 60.712293 
L 656.259389 60.387379 
L 656.560403 60.249533 
L 656.861417 60.23638 
L 657.162431 59.940999 
L 657.463445 60.131375 
L 657.764458 60.456288 
L 658.065472 59.819587 
L 658.366486 60.069001 
L 658.6675 60.036187 
L 658.968514 59.724399 
L 659.269528 59.875371 
L 659.570542 59.832713 
L 659.871556 59.662025 
L 660.17257 59.760494 
L 660.473583 59.701429 
L 660.774597 60.512072 
L 661.075611 60.118249 
L 661.376625 60.433319 
L 661.978653 60.046031 
L 662.279667 59.622648 
L 662.580681 59.832713 
L 662.881695 59.721118 
L 663.182708 59.92131 
L 663.483722 59.957406 
L 664.08575 59.593116 
L 664.687778 59.593116 
L 664.988792 59.143481 
L 665.289806 59.885215 
L 665.59082 59.179577 
L 665.891833 59.150044 
L 666.192847 59.694866 
L 666.493861 59.415892 
L 666.794875 59.691585 
L 667.396903 59.589834 
L 667.697917 59.1402 
L 668.901972 59.451988 
L 669.202986 59.018761 
L 669.504 59.268202 
L 669.805014 59.074544 
L 670.106028 59.222235 
L 670.407042 59.153326 
L 670.708056 59.218954 
L 671.310083 58.956387 
L 671.611097 58.556001 
L 671.912111 59.415892 
L 672.514139 58.880914 
L 672.815153 59.176295 
L 673.116167 59.16317 
L 673.417181 58.562564 
L 673.718195 58.621629 
L 674.019208 59.11723 
L 674.320222 58.953105 
L 674.621236 59.153326 
L 674.92225 58.605222 
L 675.223264 58.605222 
L 675.524278 57.20379 
L 675.825292 56.599902 
L 676.126306 56.606465 
L 676.42732 56.048517 
L 676.728333 56.767281 
L 677.029347 56.537528 
L 677.330361 56.573624 
L 677.631375 55.805639 
L 677.932389 55.851578 
L 678.534417 56.514558 
L 679.136445 55.805639 
L 679.437458 56.32421 
L 679.738472 55.930359 
L 680.3405 56.379994 
L 680.641514 55.85486 
L 681.544556 56.22574 
L 682.146583 55.913952 
L 682.447597 55.85486 
L 682.748611 55.579167 
L 683.049625 55.477444 
L 683.350639 55.579167 
L 683.651653 55.405226 
L 683.952667 55.411788 
L 684.253681 54.926059 
L 684.554695 54.886654 
L 684.855708 54.410769 
L 685.457736 55.024501 
L 685.75875 54.561741 
L 686.059764 54.574867 
L 686.661792 55.254254 
L 686.962806 55.218158 
L 687.26382 54.738964 
L 687.564833 54.788213 
L 687.865847 54.968717 
L 688.166861 54.709431 
L 688.768889 54.53549 
L 689.069903 54.92934 
L 689.671931 54.433739 
L 689.972945 54.181016 
L 690.273958 54.361548 
L 690.574972 54.249953 
L 691.177 54.696306 
L 691.478014 54.167891 
L 691.779028 54.295893 
L 692.080042 53.810163 
L 692.381056 54.161328 
L 692.68207 54.693024 
L 692.983083 54.354985 
L 693.585111 54.171172 
L 694.187139 53.957854 
L 694.789167 54.059577 
L 695.090181 53.632913 
L 695.391195 53.567285 
L 695.692208 53.629631 
L 695.993222 53.298155 
L 696.294236 53.600099 
L 696.59525 53.724819 
L 696.896264 53.183278 
L 697.197278 53.534471 
L 697.498292 53.567285 
L 697.799306 52.907586 
L 698.10032 53.324406 
L 698.401333 53.199685 
L 699.003361 52.766458 
L 699.605389 52.517017 
L 699.906403 52.743489 
L 700.207417 52.346357 
L 700.508431 51.663688 
L 700.809445 52.096943 
L 701.110458 51.660407 
L 701.411472 52.45467 
L 702.0135 50.885859 
L 702.615528 50.196628 
L 702.916542 50.57079 
L 703.217556 50.488728 
L 703.819583 50.938362 
L 704.120597 49.891403 
L 704.722625 51.118894 
L 705.625667 47.387201 
L 705.926681 46.950692 
L 706.227695 47.223103 
L 706.829722 46.067831 
L 707.43175 46.86863 
L 707.732764 46.487932 
L 708.033778 46.399307 
L 708.334792 46.665155 
L 708.93682 46.13674 
L 709.237831 46.734065 
L 709.538845 46.084238 
L 709.839859 43.444478 
L 710.140873 43.585606 
L 710.441887 43.290225 
L 710.742901 44.117302 
L 711.043915 44.442216 
L 711.344928 44.461904 
L 711.645942 44.278118 
L 711.946956 44.530841 
L 712.24797 44.330621 
L 712.849998 44.777001 
L 713.151012 44.563655 
L 713.452026 44.586625 
L 713.75304 44.937817 
L 714.656081 45.193821 
L 714.957095 45.026415 
L 715.258109 45.134728 
L 715.559123 45.062538 
L 715.860137 44.796689 
L 716.161151 44.937817 
L 716.462165 45.311951 
L 717.064192 44.547248 
L 717.365206 44.52756 
L 717.66622 43.250848 
L 718.268248 44.89844 
L 718.870276 44.813096 
L 719.17129 44.990319 
L 719.472303 46.349093 
L 719.773317 46.263749 
L 720.074331 46.38847 
L 720.375345 46.322842 
L 720.676359 46.588691 
L 720.977373 47.323861 
L 721.278387 47.314017 
L 721.579401 47.484677 
L 721.880415 47.822716 
L 722.181428 47.675026 
L 722.783456 48.219848 
L 723.08447 48.121379 
L 723.385484 48.534917 
L 723.686498 48.328162 
L 723.987512 48.59401 
L 724.58954 48.032781 
L 724.890553 48.525073 
L 725.492581 48.653075 
L 725.793595 48.643231 
L 726.094609 48.751545 
L 726.395623 49.119144 
L 727.298665 48.354413 
L 727.599678 49.086303 
L 727.900692 48.374101 
L 728.201706 48.66292 
L 728.803734 48.354413 
L 729.104748 48.633387 
L 729.405762 48.666201 
L 730.00779 49.066614 
L 730.308803 49.000986 
L 730.910831 48.377383 
L 731.211845 48.722012 
L 731.512859 48.416787 
L 732.114887 48.567759 
L 732.415901 48.324881 
L 732.716915 48.685889 
L 733.017928 48.744982 
L 733.318942 48.584166 
L 733.619956 48.69248 
L 733.92097 48.009811 
L 734.221984 48.722012 
L 734.522998 48.022937 
L 734.824012 48.203441 
L 735.125026 48.538199 
L 735.42604 48.34785 
L 735.727053 48.534917 
L 736.329081 48.262506 
L 736.931109 48.180471 
L 737.232123 48.34785 
L 737.533137 49.109272 
L 738.135165 48.84017 
L 739.038206 47.776777 
L 739.33922 47.806309 
L 739.640234 48.160783 
L 739.941248 47.629086 
L 740.242262 47.56015 
L 740.543276 47.12036 
L 740.84429 47.166327 
L 741.446317 46.500065 
L 741.747331 46.621504 
L 742.048345 46.352375 
L 742.349359 46.270312 
L 742.650373 46.624786 
L 742.951387 46.706821 
L 743.553415 46.198122 
L 744.456456 46.050431 
L 744.75747 46.444281 
L 745.058484 46.598535 
L 745.359498 46.572256 
L 745.660512 46.227654 
L 746.26254 46.116059 
L 746.864567 46.286719 
L 747.466595 46.014308 
L 747.767609 46.473814 
L 748.068623 46.316279 
L 748.369637 45.942117 
L 748.670651 46.257187 
L 748.971665 45.709083 
L 749.272678 45.902741 
L 749.573692 45.640174 
L 749.874706 46.349093 
L 750.17572 45.745206 
L 750.476734 46.037306 
L 750.777748 45.715646 
L 751.078762 45.892896 
L 751.379776 45.787864 
L 751.68079 45.965087 
L 751.981803 45.502327 
L 752.282817 45.2857 
L 752.884845 45.692676 
L 753.185859 45.229916 
L 753.486873 45.315233 
L 753.787887 45.062538 
L 754.088901 44.967349 
L 754.389915 45.154417 
L 754.991942 44.72119 
L 755.292956 44.498027 
L 755.894984 44.360181 
L 756.195998 42.696181 
L 756.497012 43.756266 
L 757.09904 44.829503 
L 757.400053 44.586625 
L 758.002081 45.032977 
L 758.303095 44.783564 
L 758.604109 44.908284 
L 759.206137 44.970631 
L 759.507151 44.59975 
L 759.808165 45.075663 
L 760.109178 45.075663 
L 760.711206 44.228897 
L 761.01222 44.593187 
L 761.313234 44.432371 
L 761.614248 44.074644 
L 761.915262 44.455341 
L 762.216276 44.186211 
L 762.51729 44.136991 
L 762.818303 44.360181 
L 763.420331 44.314214 
L 764.022359 43.815358 
L 764.323373 44.310932 
L 764.624387 44.146835 
L 764.925401 44.324058 
L 765.226415 43.890831 
L 765.527428 44.107458 
L 765.828442 43.917109 
L 766.129456 44.307651 
L 766.43047 43.602012 
L 766.731484 43.654542 
L 767.333512 44.153398 
L 767.634526 44.960787 
L 767.93554 44.888568 
L 768.236553 45.426828 
L 768.537567 45.60736 
L 768.838581 45.600797 
L 769.139595 45.295544 
L 769.440609 47.038325 
L 769.741623 46.457407 
L 770.042637 46.299845 
L 770.343651 46.7331 
L 770.644665 46.335968 
L 770.945678 46.572256 
L 771.547706 46.073401 
L 772.751762 46.716665 
L 773.35379 46.775758 
L 773.654803 46.496784 
L 773.955817 47.048169 
L 774.256831 46.654318 
L 774.557845 46.519754 
L 775.460887 46.641193 
L 775.761901 46.237498 
L 776.062915 46.312998 
L 776.363928 46.588691 
L 776.664942 46.457407 
L 776.965956 46.706821 
L 777.26697 46.270312 
L 777.567984 46.253905 
L 777.868998 46.480377 
L 778.170012 46.404877 
L 778.471026 46.562412 
L 779.073053 46.178433 
L 779.976095 46.532879 
L 780.277109 46.211247 
L 780.578123 46.263749 
L 780.879137 46.001183 
L 781.180151 46.096371 
L 781.782178 46.460688 
L 782.083192 46.011027 
L 782.384206 45.830522 
L 782.68522 45.846929 
L 782.986234 45.692676 
L 783.287248 45.928992 
L 783.588262 45.902741 
L 784.19029 45.627048 
L 784.491303 45.928992 
L 784.792317 45.663144 
L 785.093331 46.04715 
L 785.394345 45.695957 
L 785.695359 45.99462 
L 785.996373 45.787864 
L 786.297387 45.945399 
L 786.598401 45.646737 
L 787.200428 45.850211 
L 787.802456 45.761613 
L 788.705498 45.745206 
L 789.006512 45.528579 
L 789.307526 45.544986 
L 789.909553 45.200384 
L 790.210567 45.55483 
L 790.511581 45.403858 
L 790.812595 45.472795 
L 791.113609 45.200384 
L 791.414623 45.810834 
L 791.715637 45.433391 
L 792.317665 45.535141 
L 792.618678 45.029696 
L 792.919692 45.203665 
L 793.220706 45.128165 
L 793.822734 45.377607 
L 794.123748 45.243042 
L 794.424762 45.489202 
L 795.02679 44.609594 
L 795.327803 44.836066 
L 796.230845 44.852473 
L 796.531859 44.619466 
L 796.832873 44.744159 
L 797.133887 44.333902 
L 797.434901 44.15996 
L 797.735915 44.317495 
L 798.036928 43.575761 
L 798.337942 43.395257 
L 798.638956 42.637089 
L 798.93997 42.604275 
L 799.240984 42.436896 
L 799.843012 41.298031 
L 800.44504 40.68099 
L 800.746053 40.136195 
L 801.047067 40.461109 
L 801.348081 40.579267 
L 802.552137 39.732501 
L 802.853151 39.82438 
L 803.154165 39.745626 
L 803.455178 39.309118 
L 804.35822 39.417404 
L 804.659234 39.148302 
L 804.960248 39.509311 
L 805.261262 39.43712 
L 805.562276 39.565122 
L 805.86329 39.886754 
L 806.164303 39.496185 
L 806.766331 39.709531 
L 807.067345 39.404278 
L 807.368359 38.587073 
L 807.669373 38.662545 
L 807.970387 38.852893 
L 808.271401 39.38459 
L 808.572415 38.23588 
L 808.873428 38.124285 
L 809.174442 37.84203 
L 809.77647 39.102335 
L 810.077484 39.059676 
L 810.378498 39.43712 
L 810.980526 38.977614 
L 811.582553 39.177834 
L 811.883567 39.345213 
L 812.184581 38.879172 
L 812.485595 38.816798 
L 812.786609 39.141711 
L 813.087623 39.240181 
L 813.388637 38.820079 
L 813.990665 39.420685 
L 814.291678 39.030144 
L 814.592692 39.483059 
L 815.19472 39.893317 
L 815.495734 39.528999 
L 815.796748 39.981915 
L 816.398776 39.453527 
L 816.69979 39.981915 
L 817.000803 40.159165 
L 817.301817 39.765315 
L 817.602831 39.811254 
L 817.903845 39.348495 
L 818.204859 39.502748 
L 818.505873 39.2369 
L 818.806887 39.561813 
L 819.107901 39.204086 
L 819.408915 39.417404 
L 819.709928 39.16799 
L 820.010942 39.374746 
L 820.61297 39.322243 
L 820.913984 39.351776 
L 821.214998 39.506029 
L 821.817026 39.423994 
L 822.419053 39.131867 
L 822.720067 38.793828 
L 823.021081 38.925112 
L 823.322095 39.279558 
L 823.924123 39.066239 
L 824.526151 38.688796 
L 824.827165 38.938237 
L 825.128178 38.491884 
L 825.429192 38.616605 
L 825.730206 38.600198 
L 826.03122 37.81906 
L 826.332234 38.695359 
L 826.633248 37.970032 
L 826.934262 37.5729 
L 827.53629 37.825623 
L 827.837303 38.117722 
L 828.138317 37.507272 
L 828.740345 37.641837 
L 829.041359 37.704184 
L 829.342373 37.930655 
L 829.643387 38.718328 
L 829.944401 37.986439 
L 830.546428 37.773121 
L 830.847442 38.495166 
L 831.148456 37.868281 
L 831.750484 37.553212 
L 832.95454 37.815779 
L 833.255553 36.965731 
L 833.556567 37.067482 
L 833.857581 36.982138 
L 834.158595 37.195484 
L 834.459609 36.562037 
L 834.760623 37.067482 
L 835.061637 36.936199 
L 835.362651 36.982138 
L 835.964678 37.293926 
L 836.566706 36.726134 
L 836.86772 37.215173 
L 837.168734 36.98542 
L 837.469748 37.628712 
L 837.770762 35.213135 
L 838.071776 34.51734 
L 838.37279 33.440822 
L 838.673803 33.41457 
L 838.974817 33.040408 
L 839.877859 32.633432 
L 840.178873 32.725339 
L 840.479887 32.449647 
L 840.780901 32.866467 
L 841.081915 32.689244 
L 841.382928 32.308519 
L 841.683942 32.295393 
L 842.28597 31.980297 
L 842.586984 32.144422 
L 842.887998 34.543592 
L 843.490026 33.270161 
L 843.79104 33.421133 
L 844.092053 32.374147 
L 844.393067 32.987906 
L 844.995097 32.511993 
L 845.296111 32.498868 
L 845.597125 32.823781 
L 846.199153 32.315082 
L 846.801181 32.508712 
L 847.102194 32.045952 
L 847.403208 32.462772 
L 847.704222 34.428715 
L 848.30625 35.66605 
L 849.209291 36.073026 
L 849.510305 36.397939 
L 849.811319 36.109121 
L 850.112333 36.601414 
L 850.413347 36.325721 
L 850.714361 36.650662 
L 851.015374 36.611258 
L 851.617402 37.251268 
L 851.918416 37.021515 
L 852.21943 37.293926 
L 852.520444 37.730435 
L 852.821458 37.717309 
L 853.122471 38.314661 
L 853.423485 38.610042 
L 853.724499 38.537824 
L 854.025513 38.754451 
L 854.326527 38.662545 
L 854.627541 38.895579 
L 854.928555 38.265413 
L 855.229568 38.875891 
L 855.530582 38.905423 
L 855.831596 38.682233 
L 856.13261 39.066239 
L 856.433624 38.718328 
L 856.734638 38.747889 
L 857.035651 39.181116 
L 857.336665 38.445945 
L 857.637679 38.573919 
L 857.938693 39.066239 
L 858.239707 38.7282 
L 858.841735 38.495166 
L 859.443762 39.085928 
L 859.744776 39.256588 
L 860.04579 38.790547 
L 860.647818 38.377008 
L 860.948832 37.805935 
L 861.249845 39.069521 
L 861.550859 38.862765 
L 861.851873 38.984177 
L 862.152887 38.783984 
L 862.453901 38.846331 
L 862.754915 38.275257 
L 863.055929 38.646138 
L 863.356942 38.659263 
L 863.657956 38.833205 
L 864.259984 38.626449 
L 864.560998 38.117722 
L 865.163026 39.217211 
L 865.464039 39.066239 
L 865.765053 39.085928 
L 866.066067 38.92183 
L 866.367081 38.478759 
L 866.668095 37.782965 
L 866.969109 38.642856 
L 867.270122 38.449226 
L 867.571136 38.475477 
L 868.173164 38.186659 
L 868.474178 38.468915 
L 869.076206 38.567357 
L 869.377219 39.007174 
L 869.979247 38.872609 
L 870.280261 38.843049 
L 870.581275 39.053114 
L 871.484316 38.705203 
L 871.78533 38.902142 
L 872.086344 38.521417 
L 872.387358 38.701921 
L 872.688372 38.216192 
L 872.989386 38.738044 
L 873.2904 38.820079 
L 873.591413 38.783984 
L 873.892427 38.157099 
L 874.193441 38.547668 
L 874.494455 38.183378 
L 874.795469 38.636294 
L 875.096483 37.970032 
L 875.397497 38.626449 
L 875.69851 37.927374 
L 876.300538 37.868281 
L 876.601552 37.592589 
L 876.902566 37.684495 
L 877.20358 37.533523 
L 877.504593 37.851874 
L 877.805607 37.431773 
L 878.407635 36.900104 
L 878.708649 36.929636 
L 879.009663 37.297208 
L 879.310677 37.110141 
L 879.61169 37.303771 
L 879.912704 37.093734 
L 880.213718 37.743588 
L 880.514732 35.748085 
L 880.815746 36.063182 
L 881.11676 35.823585 
L 881.417774 35.127791 
L 881.718787 35.751366 
L 882.019801 34.389338 
L 882.621829 33.755891 
L 882.922843 34.356497 
L 883.223857 32.948502 
L 883.524871 33.325945 
L 883.825884 33.516294 
L 884.126898 33.53601 
L 884.427912 33.270161 
L 884.728926 32.702369 
L 885.330954 33.024001 
L 885.631968 32.925532 
L 885.932981 32.548116 
L 886.233995 32.469335 
L 886.535009 32.941939 
L 886.836023 32.836934 
L 887.137037 31.668509 
L 887.438051 32.25927 
L 887.739065 31.721039 
L 888.040078 30.910368 
L 888.341092 31.077747 
L 888.642106 30.736426 
L 888.94312 32.06564 
L 889.244134 31.176216 
L 889.545148 30.877554 
L 889.846161 30.864429 
L 890.147175 31.327188 
L 890.448189 32.498868 
L 890.749203 31.717757 
L 891.050217 31.609444 
L 891.351231 30.884117 
L 891.652245 31.021963 
L 891.953258 31.520818 
L 892.254272 30.910368 
L 892.555286 31.130249 
L 892.8563 31.094154 
L 893.157314 31.425658 
L 893.458328 31.077747 
L 893.759342 31.120405 
L 894.060355 30.690459 
L 894.361369 30.651083 
L 894.662383 31.005556 
L 894.963397 31.097435 
L 895.264411 31.353439 
L 895.565425 31.126968 
L 895.866439 31.28453 
L 896.167452 31.005556 
L 896.468466 30.424611 
L 896.76948 30.381953 
L 897.070494 30.89068 
L 897.371508 29.955288 
L 897.672522 30.408204 
L 897.973536 29.617249 
L 898.274549 29.843693 
L 898.575563 28.514479 
L 898.876577 29.29559 
L 899.779619 29.915912 
L 900.381646 29.899505 
L 900.68266 29.561438 
L 900.983674 29.476122 
L 901.284688 26.692946 
L 901.886716 29.344838 
L 902.187729 29.948726 
L 902.488743 28.68514 
L 902.789757 29.597561 
L 903.090771 29.902786 
L 903.391785 29.449843 
L 903.692799 30.572301 
L 903.993813 30.319606 
L 904.294826 29.892942 
L 904.59584 30.004509 
L 904.896854 29.459715 
L 905.197868 29.686159 
L 905.498882 29.604124 
L 905.799896 29.157744 
L 906.10091 29.233243 
L 906.401923 29.466278 
L 906.702937 29.128211 
L 907.003951 29.630375 
L 907.304965 29.522061 
L 907.605979 28.658888 
L 907.906993 29.252932 
L 908.50902 28.242068 
L 908.810034 28.777046 
L 909.111048 28.544012 
L 909.412062 29.046176 
L 909.713076 28.373352 
L 910.01409 28.845956 
L 910.315103 28.790172 
L 910.616117 28.481665 
L 910.917131 29.05602 
L 911.519159 29.092116 
L 911.820173 28.740923 
L 912.723214 28.6392 
L 913.024228 28.826267 
L 913.325242 28.793453 
L 913.626256 28.937862 
L 913.92727 28.777046 
L 914.228284 28.379915 
L 914.529297 28.186257 
L 914.830311 26.755292 
L 915.131325 27.372333 
L 915.432339 26.883294 
L 915.733353 27.254175 
L 916.034367 26.883294 
L 916.335381 26.889857 
L 916.636394 27.132735 
L 916.937408 27.821967 
L 917.238422 27.214798 
L 917.84045 27.264019 
L 917.84045 27.264019 
" clip-path="url(#p63dda4d56c)" style="fill: none; stroke: #1d4ed8; stroke-opacity: 0.95; stroke-width: 1.3; stroke-linecap: square"/>
   </g>
   <g id="patch_23">
    <path d="M 42.190938 228.954713 
L 42.190938 17.061433 
" style="fill: none; stroke: #cbd5e1; stroke-width: 0.8; stroke-linejoin: miter; stroke-linecap: square"/>
   </g>
   <g id="patch_24">
    <path d="M 935.353437 228.954713 
L 935.353437 17.061433 
" style="fill: none; stroke: #cbd5e1; stroke-width: 0.8; stroke-linejoin: miter; stroke-linecap: square"/>
   </g>
   <g id="patch_25">
    <path d="M 42.190938 228.954713 
L 935.353438 228.954713 
" style="fill: none; stroke: #cbd5e1; stroke-width: 0.8; stroke-linejoin: miter; stroke-linecap: square"/>
   </g>
   <g id="patch_26">
    <path d="M 42.190938 17.061433 
L 935.353438 17.061433 
" style="fill: none; stroke: #cbd5e1; stroke-width: 0.8; stroke-linejoin: miter; stroke-linecap: square"/>
   </g>
   <g id="text_16">
    <!-- ACC -->
    <g style="fill: #475569" transform="translate(124.242604 13.27875) scale(0.08 -0.08)">
     <defs>
      <path id="DejaVuSans-43" d="M 4122 4306 
L 4122 3641 
Q 3803 3938 3442 4084 
Q 3081 4231 2675 4231 
Q 1875 4231 1450 3742 
Q 1025 3253 1025 2328 
Q 1025 1406 1450 917 
Q 1875 428 2675 428 
Q 3081 428 3442 575 
Q 3803 722 4122 1019 
L 4122 359 
Q 3791 134 3420 21 
Q 3050 -91 2638 -91 
Q 1578 -91 968 557 
Q 359 1206 359 2328 
Q 359 3453 968 4101 
Q 1578 4750 2638 4750 
Q 3056 4750 3426 4639 
Q 3797 4528 4122 4306 
z
" transform="scale(0.015625)"/>
     </defs>
     <use xlink:href="#DejaVuSans-41"/>
     <use xlink:href="#DejaVuSans-43" transform="translate(66.658203 0)"/>
     <use xlink:href="#DejaVuSans-43" transform="translate(136.482422 0)"/>
    </g>
   </g>
   <g id="text_17">
    <!-- OC -->
    <g style="fill: #475569" transform="translate(230.403021 13.27875) scale(0.08 -0.08)">
     <defs>
      <path id="DejaVuSans-4f" d="M 2522 4238 
Q 1834 4238 1429 3725 
Q 1025 3213 1025 2328 
Q 1025 1447 1429 934 
Q 1834 422 2522 422 
Q 3209 422 3611 934 
Q 4013 1447 4013 2328 
Q 4013 3213 3611 3725 
Q 3209 4238 2522 4238 
z
M 2522 4750 
Q 3503 4750 4090 4092 
Q 4678 3434 4678 2328 
Q 4678 1225 4090 567 
Q 3503 -91 2522 -91 
Q 1538 -91 948 565 
Q 359 1222 359 2328 
Q 359 3434 948 4092 
Q 1538 4750 2522 4750 
z
" transform="scale(0.015625)"/>
     </defs>
     <use xlink:href="#DejaVuSans-4f"/>
     <use xlink:href="#DejaVuSans-43" transform="translate(78.710938 0)"/>
    </g>
   </g>
   <g id="text_18">
    <!-- FCS -->
    <g style="fill: #475569" transform="translate(255.803021 13.27875) scale(0.08 -0.08)">
     <defs>
      <path id="DejaVuSans-46" d="M 628 4666 
L 3309 4666 
L 3309 4134 
L 1259 4134 
L 1259 2759 
L 3109 2759 
L 3109 2228 
L 1259 2228 
L 1259 0 
L 628 0 
L 628 4666 
z
" transform="scale(0.015625)"/>
     </defs>
     <use xlink:href="#DejaVuSans-46"/>
     <use xlink:href="#DejaVuSans-43" transform="translate(57.519531 0)"/>
     <use xlink:href="#DejaVuSans-53" transform="translate(127.34375 0)"/>
    </g>
   </g>
   <g id="text_19">
    <!-- SR -->
    <g style="fill: #475569" transform="translate(291.981458 13.27875) scale(0.08 -0.08)">
     <defs>
      <path id="DejaVuSans-52" d="M 2841 2188 
Q 3044 2119 3236 1894 
Q 3428 1669 3622 1275 
L 4263 0 
L 3584 0 
L 2988 1197 
Q 2756 1666 2539 1819 
Q 2322 1972 1947 1972 
L 1259 1972 
L 1259 0 
L 628 0 
L 628 4666 
L 2053 4666 
Q 2853 4666 3247 4331 
Q 3641 3997 3641 3322 
Q 3641 2881 3436 2590 
Q 3231 2300 2841 2188 
z
M 1259 4147 
L 1259 2491 
L 2053 2491 
Q 2509 2491 2742 2702 
Q 2975 2913 2975 3322 
Q 2975 3731 2742 3939 
Q 2509 4147 2053 4147 
L 1259 4147 
z
" transform="scale(0.015625)"/>
     </defs>
     <use xlink:href="#DejaVuSans-53"/>
     <use xlink:href="#DejaVuSans-52" transform="translate(63.476562 0)"/>
    </g>
   </g>
   <g id="text_20">
    <!-- FFC -->
    <g style="fill: #475569" transform="translate(332.800313 13.27875) scale(0.08 -0.08)">
     <use xlink:href="#DejaVuSans-46"/>
     <use xlink:href="#DejaVuSans-46" transform="translate(57.519531 0)"/>
     <use xlink:href="#DejaVuSans-43" transform="translate(115.039062 0)"/>
    </g>
   </g>
   <g id="text_21">
    <!-- SS -->
    <g style="fill: #475569" transform="translate(418.647292 13.27875) scale(0.08 -0.08)">
     <use xlink:href="#DejaVuSans-53"/>
     <use xlink:href="#DejaVuSans-53" transform="translate(63.476562 0)"/>
    </g>
   </g>
   <g id="text_22">
    <!-- OC -->
    <g style="fill: #475569" transform="translate(485.512292 13.27875) scale(0.08 -0.08)">
     <use xlink:href="#DejaVuSans-4f"/>
     <use xlink:href="#DejaVuSans-43" transform="translate(78.710938 0)"/>
    </g>
   </g>
   <g id="text_23">
    <!-- FCS -->
    <g style="fill: #475569" transform="translate(508.654688 13.27875) scale(0.08 -0.08)">
     <use xlink:href="#DejaVuSans-46"/>
     <use xlink:href="#DejaVuSans-43" transform="translate(57.519531 0)"/>
     <use xlink:href="#DejaVuSans-53" transform="translate(127.34375 0)"/>
    </g>
   </g>
   <g id="text_24">
    <!-- SR -->
    <g style="fill: #475569" transform="translate(544.833125 13.27875) scale(0.08 -0.08)">
     <use xlink:href="#DejaVuSans-53"/>
     <use xlink:href="#DejaVuSans-52" transform="translate(63.476562 0)"/>
    </g>
   </g>
   <g id="text_25">
    <!-- FFC -->
    <g style="fill: #475569" transform="translate(585.651979 13.27875) scale(0.08 -0.08)">
     <use xlink:href="#DejaVuSans-46"/>
     <use xlink:href="#DejaVuSans-46" transform="translate(57.519531 0)"/>
     <use xlink:href="#DejaVuSans-43" transform="translate(115.039062 0)"/>
    </g>
   </g>
   <g id="text_26">
    <!-- SS -->
    <g style="fill: #475569" transform="translate(671.498959 13.27875) scale(0.08 -0.08)">
     <use xlink:href="#DejaVuSans-53"/>
     <use xlink:href="#DejaVuSans-53" transform="translate(63.476562 0)"/>
    </g>
   </g>
   <g id="text_27">
    <!-- OC -->
    <g style="fill: #475569" transform="translate(738.363959 13.27875) scale(0.08 -0.08)">
     <use xlink:href="#DejaVuSans-4f"/>
     <use xlink:href="#DejaVuSans-43" transform="translate(78.710938 0)"/>
    </g>
   </g>
   <g id="text_28">
    <!-- FCS -->
    <g style="fill: #475569" transform="translate(761.506355 13.27875) scale(0.08 -0.08)">
     <use xlink:href="#DejaVuSans-46"/>
     <use xlink:href="#DejaVuSans-43" transform="translate(57.519531 0)"/>
     <use xlink:href="#DejaVuSans-53" transform="translate(127.34375 0)"/>
    </g>
   </g>
   <g id="text_29">
    <!-- SR -->
    <g style="fill: #475569" transform="translate(797.684792 13.27875) scale(0.08 -0.08)">
     <use xlink:href="#DejaVuSans-53"/>
     <use xlink:href="#DejaVuSans-52" transform="translate(63.476562 0)"/>
    </g>
   </g>
   <g id="text_30">
    <!-- FFC -->
    <g style="fill: #475569" transform="translate(838.503646 13.27875) scale(0.08 -0.08)">
     <use xlink:href="#DejaVuSans-46"/>
     <use xlink:href="#DejaVuSans-46" transform="translate(57.519531 0)"/>
     <use xlink:href="#DejaVuSans-43" transform="translate(115.039062 0)"/>
    </g>
   </g>
   <g id="text_31">
    <!-- SS -->
    <g style="fill: #475569" transform="translate(888.228959 13.27875) scale(0.08 -0.08)">
     <use xlink:href="#DejaVuSans-53"/>
     <use xlink:href="#DejaVuSans-53" transform="translate(63.476562 0)"/>
    </g>
   </g>
   <g id="legend_1">
    <g id="line2d_28">
     <path d="M 849.174688 27.540183 
L 857.174688 27.540183 
L 865.174688 27.540183 
" style="fill: none; stroke: #1d4ed8; stroke-opacity: 0.95; stroke-width: 1.3; stroke-linecap: square"/>
    </g>
    <g id="text_32">
     <!-- Empatica EDA -->
     <g transform="translate(871.574687 30.340183) scale(0.08 -0.08)">
      <defs>
       <path id="DejaVuSans-6d" d="M 3328 2828 
Q 3544 3216 3844 3400 
Q 4144 3584 4550 3584 
Q 5097 3584 5394 3201 
Q 5691 2819 5691 2113 
L 5691 0 
L 5113 0 
L 5113 2094 
Q 5113 2597 4934 2840 
Q 4756 3084 4391 3084 
Q 3944 3084 3684 2787 
Q 3425 2491 3425 1978 
L 3425 0 
L 2847 0 
L 2847 2094 
Q 2847 2600 2669 2842 
Q 2491 3084 2119 3084 
Q 1678 3084 1418 2786 
Q 1159 2488 1159 1978 
L 1159 0 
L 581 0 
L 581 3500 
L 1159 3500 
L 1159 2956 
Q 1356 3278 1631 3431 
Q 1906 3584 2284 3584 
Q 2666 3584 2933 3390 
Q 3200 3197 3328 2828 
z
" transform="scale(0.015625)"/>
       <path id="DejaVuSans-70" d="M 1159 525 
L 1159 -1331 
L 581 -1331 
L 581 3500 
L 1159 3500 
L 1159 2969 
Q 1341 3281 1617 3432 
Q 1894 3584 2278 3584 
Q 2916 3584 3314 3078 
Q 3713 2572 3713 1747 
Q 3713 922 3314 415 
Q 2916 -91 2278 -91 
Q 1894 -91 1617 61 
Q 1341 213 1159 525 
z
M 3116 1747 
Q 3116 2381 2855 2742 
Q 2594 3103 2138 3103 
Q 1681 3103 1420 2742 
Q 1159 2381 1159 1747 
Q 1159 1113 1420 752 
Q 1681 391 2138 391 
Q 2594 391 2855 752 
Q 3116 1113 3116 1747 
z
" transform="scale(0.015625)"/>
      </defs>
      <use xlink:href="#DejaVuSans-45"/>
      <use xlink:href="#DejaVuSans-6d" transform="translate(63.183594 0)"/>
      <use xlink:href="#DejaVuSans-70" transform="translate(160.595703 0)"/>
      <use xlink:href="#DejaVuSans-61" transform="translate(224.072266 0)"/>
      <use xlink:href="#DejaVuSans-74" transform="translate(285.351562 0)"/>
      <use xlink:href="#DejaVuSans-69" transform="translate(324.560547 0)"/>
      <use xlink:href="#DejaVuSans-63" transform="translate(352.34375 0)"/>
      <use xlink:href="#DejaVuSans-61" transform="translate(407.324219 0)"/>
      <use xlink:href="#DejaVuSans-20" transform="translate(468.603516 0)"/>
      <use xlink:href="#DejaVuSans-45" transform="translate(500.390625 0)"/>
      <use xlink:href="#DejaVuSans-44" transform="translate(563.574219 0)"/>
      <use xlink:href="#DejaVuSans-41" transform="translate(638.826172 0)"/>
     </g>
    </g>
   </g>
  </g>
 </g>
 <defs>
  <clipPath id="p63dda4d56c">
   <rect x="42.190938" y="17.061433" width="893.1625" height="211.89328"/>
  </clipPath>
 </defs>
</svg>
