<?xml version="1.0" encoding="utf-8" standalone="no"?>
<!DOCTYPE svg PUBLIC "-//W3C//DTD SVG 1.1//EN"
  "http://www.w3.org/Graphics/SVG/1.1/DTD/svg11.dtd">
<svg xmlns:xlink="http://www.w3.org/1999/xlink" width="942.505625pt" height="265.54315pt" viewBox="0 0 942.505625 265.54315" xmlns="http://www.w3.org/2000/svg" version="1.1">
 <metadata>
  <rdf:RDF xmlns:dc="http://purl.org/dc/elements/1.1/" xmlns:cc="http://creativecommons.org/ns#" xmlns:rdf="http://www.w3.org/1999/02/22-rdf-syntax-ns#">
   <cc:Work>
    <dc:type rdf:resource="http://purl.org/dc/dcmitype/StillImage"/>
    <dc:date>2026-04-17T13:11:13.172902</dc:date>
    <dc:format>image/svg+xml</dc:format>
    <dc:creator>
     <cc:Agent>
      <dc:title>Matplotlib v3.10.8, https://matplotlib.org/</dc:title>
     </cc:Agent>
    </dc:creator>
   </cc:Work>
  </rdf:RDF>
 </metadata>
 <defs>
  <style type="text/css">*{stroke-linejoin: round; stroke-linecap: butt}</style>
 </defs>
 <g id="figure_1">
  <g id="patch_1">
   <path d="M 0 265.54315 
L 942.505625 265.54315 
L 942.505625 0 
L 0 0 
z
" style="fill: #ffffff"/>
  </g>
  <g id="axes_1">
   <g id="patch_2">
    <path d="M 39.330625 228.954713 
L 935.305625 228.954713 
L 935.305625 17.061433 
L 39.330625 17.061433 
z
" style="fill: #ffffff"/>
   </g>
   <g id="patch_3">
    <path d="M 39.330625 228.954713 
L 220.541475 228.954713 
L 220.541475 17.061433 
L 39.330625 17.061433 
z
" clip-path="url(#p32c0d773fe)" style="fill: #f8fafc; opacity: 0.45"/>
   </g>
   <g id="patch_4">
    <path d="M 220.541475 228.954713 
L 247.723102 228.954713 
L 247.723102 17.061433 
L 220.541475 17.061433 
z
" clip-path="url(#p32c0d773fe)" style="fill: #eff6ff; opacity: 0.45"/>
   </g>
   <g id="patch_5">
    <path d="M 247.723102 228.954713 
L 274.90473 228.954713 
L 274.90473 17.061433 
L 247.723102 17.061433 
z
" clip-path="url(#p32c0d773fe)" style="fill: #fef3c7; opacity: 0.45"/>
   </g>
   <g id="patch_6">
    <path d="M 274.90473 228.954713 
L 315.677171 228.954713 
L 315.677171 17.061433 
L 274.90473 17.061433 
z
" clip-path="url(#p32c0d773fe)" style="fill: #dcfce7; opacity: 0.45"/>
   </g>
   <g id="patch_7">
    <path d="M 315.677171 228.954713 
L 360.979884 228.954713 
L 360.979884 17.061433 
L 315.677171 17.061433 
z
" clip-path="url(#p32c0d773fe)" style="fill: #fee2e2; opacity: 0.45"/>
   </g>
   <g id="patch_8">
    <path d="M 360.979884 228.954713 
L 365.510155 228.954713 
L 365.510155 17.061433 
L 360.979884 17.061433 
z
" clip-path="url(#p32c0d773fe)" style="fill: #ede9fe; opacity: 0.45"/>
   </g>
   <g id="patch_9">
    <path d="M 365.510155 228.954713 
L 478.766936 228.954713 
L 478.766936 17.061433 
L 365.510155 17.061433 
z
" clip-path="url(#p32c0d773fe)" style="fill: #f8fafc; opacity: 0.45"/>
   </g>
   <g id="patch_10">
    <path d="M 478.766936 228.954713 
L 501.418292 228.954713 
L 501.418292 17.061433 
L 478.766936 17.061433 
z
" clip-path="url(#p32c0d773fe)" style="fill: #eff6ff; opacity: 0.45"/>
   </g>
   <g id="patch_11">
    <path d="M 501.418292 228.954713 
L 528.59992 228.954713 
L 528.59992 17.061433 
L 501.418292 17.061433 
z
" clip-path="url(#p32c0d773fe)" style="fill: #fef3c7; opacity: 0.45"/>
   </g>
   <g id="patch_12">
    <path d="M 528.59992 228.954713 
L 569.372361 228.954713 
L 569.372361 17.061433 
L 528.59992 17.061433 
z
" clip-path="url(#p32c0d773fe)" style="fill: #dcfce7; opacity: 0.45"/>
   </g>
   <g id="patch_13">
    <path d="M 569.372361 228.954713 
L 614.675073 228.954713 
L 614.675073 17.061433 
L 569.372361 17.061433 
z
" clip-path="url(#p32c0d773fe)" style="fill: #fee2e2; opacity: 0.45"/>
   </g>
   <g id="patch_14">
    <path d="M 614.675073 228.954713 
L 619.205345 228.954713 
L 619.205345 17.061433 
L 614.675073 17.061433 
z
" clip-path="url(#p32c0d773fe)" style="fill: #ede9fe; opacity: 0.45"/>
   </g>
   <g id="patch_15">
    <path d="M 619.205345 228.954713 
L 732.462126 228.954713 
L 732.462126 17.061433 
L 619.205345 17.061433 
z
" clip-path="url(#p32c0d773fe)" style="fill: #f8fafc; opacity: 0.45"/>
   </g>
   <g id="patch_16">
    <path d="M 732.462126 228.954713 
L 755.113482 228.954713 
L 755.113482 17.061433 
L 732.462126 17.061433 
z
" clip-path="url(#p32c0d773fe)" style="fill: #eff6ff; opacity: 0.45"/>
   </g>
   <g id="patch_17">
    <path d="M 755.113482 228.954713 
L 782.29511 228.954713 
L 782.29511 17.061433 
L 755.113482 17.061433 
z
" clip-path="url(#p32c0d773fe)" style="fill: #fef3c7; opacity: 0.45"/>
   </g>
   <g id="patch_18">
    <path d="M 782.29511 228.954713 
L 823.067551 228.954713 
L 823.067551 17.061433 
L 782.29511 17.061433 
z
" clip-path="url(#p32c0d773fe)" style="fill: #dcfce7; opacity: 0.45"/>
   </g>
   <g id="patch_19">
    <path d="M 823.067551 228.954713 
L 868.370263 228.954713 
L 868.370263 17.061433 
L 823.067551 17.061433 
z
" clip-path="url(#p32c0d773fe)" style="fill: #fee2e2; opacity: 0.45"/>
   </g>
   <g id="patch_20">
    <path d="M 868.370263 228.954713 
L 872.900535 228.954713 
L 872.900535 17.061433 
L 868.370263 17.061433 
z
" clip-path="url(#p32c0d773fe)" style="fill: #ede9fe; opacity: 0.45"/>
   </g>
   <g id="patch_21">
    <path d="M 872.900535 228.954713 
L 913.672976 228.954713 
L 913.672976 17.061433 
L 872.900535 17.061433 
z
" clip-path="url(#p32c0d773fe)" style="fill: #f8fafc; opacity: 0.45"/>
   </g>
   <g id="patch_22">
    <path d="M 913.672976 228.954713 
L 918.203247 228.954713 
L 918.203247 17.061433 
L 913.672976 17.061433 
z
" clip-path="url(#p32c0d773fe)" style="fill: #eff6ff; opacity: 0.45"/>
   </g>
   <g id="matplotlib.axis_1">
    <g id="xtick_1">
     <g id="line2d_1">
      <path d="M 39.330625 228.954713 
L 39.330625 17.061433 
" clip-path="url(#p32c0d773fe)" style="fill: none; stroke: #eef2f7; stroke-width: 0.55; stroke-linecap: square"/>
     </g>
     <g id="line2d_2">
      <defs>
       <path id="m74ef4f00d5" d="M 0 0 
L 0 3.5 
" style="stroke: #000000; stroke-width: 0.8"/>
      </defs>
      <g>
       <use xlink:href="#m74ef4f00d5" x="39.330625" y="228.954713" style="stroke: #000000; stroke-width: 0.8"/>
      </g>
     </g>
     <g id="text_1">
      <!-- 0 -->
      <g transform="translate(36.4675 242.793307) scale(0.09 -0.09)">
       <defs>
        <path id="DejaVuSans-30" d="M 2034 4250 
Q 1547 4250 1301 3770 
Q 1056 3291 1056 2328 
Q 1056 1369 1301 889 
Q 1547 409 2034 409 
Q 2525 409 2770 889 
Q 3016 1369 3016 2328 
Q 3016 3291 2770 3770 
Q 2525 4250 2034 4250 
z
M 2034 4750 
Q 2819 4750 3233 4129 
Q 3647 3509 3647 2328 
Q 3647 1150 3233 529 
Q 2819 -91 2034 -91 
Q 1250 -91 836 529 
Q 422 1150 422 2328 
Q 422 3509 836 4129 
Q 1250 4750 2034 4750 
z
" transform="scale(0.015625)"/>
       </defs>
       <use xlink:href="#DejaVuSans-30"/>
      </g>
     </g>
    </g>
    <g id="xtick_2">
     <g id="line2d_3">
      <path d="M 152.587406 228.954713 
L 152.587406 17.061433 
" clip-path="url(#p32c0d773fe)" style="fill: none; stroke: #eef2f7; stroke-width: 0.55; stroke-linecap: square"/>
     </g>
     <g id="line2d_4">
      <g>
       <use xlink:href="#m74ef4f00d5" x="152.587406" y="228.954713" style="stroke: #000000; stroke-width: 0.8"/>
      </g>
     </g>
     <g id="text_2">
      <!-- 25 -->
      <g transform="translate(146.861156 242.793307) scale(0.09 -0.09)">
       <defs>
        <path id="DejaVuSans-32" d="M 1228 531 
L 3431 531 
L 3431 0 
L 469 0 
L 469 531 
Q 828 903 1448 1529 
Q 2069 2156 2228 2338 
Q 2531 2678 2651 2914 
Q 2772 3150 2772 3378 
Q 2772 3750 2511 3984 
Q 2250 4219 1831 4219 
Q 1534 4219 1204 4116 
Q 875 4013 500 3803 
L 500 4441 
Q 881 4594 1212 4672 
Q 1544 4750 1819 4750 
Q 2544 4750 2975 4387 
Q 3406 4025 3406 3419 
Q 3406 3131 3298 2873 
Q 3191 2616 2906 2266 
Q 2828 2175 2409 1742 
Q 1991 1309 1228 531 
z
" transform="scale(0.015625)"/>
        <path id="DejaVuSans-35" d="M 691 4666 
L 3169 4666 
L 3169 4134 
L 1269 4134 
L 1269 2991 
Q 1406 3038 1543 3061 
Q 1681 3084 1819 3084 
Q 2600 3084 3056 2656 
Q 3513 2228 3513 1497 
Q 3513 744 3044 326 
Q 2575 -91 1722 -91 
Q 1428 -91 1123 -41 
Q 819 9 494 109 
L 494 744 
Q 775 591 1075 516 
Q 1375 441 1709 441 
Q 2250 441 2565 725 
Q 2881 1009 2881 1497 
Q 2881 1984 2565 2268 
Q 2250 2553 1709 2553 
Q 1456 2553 1204 2497 
Q 953 2441 691 2322 
L 691 4666 
z
" transform="scale(0.015625)"/>
       </defs>
       <use xlink:href="#DejaVuSans-32"/>
       <use xlink:href="#DejaVuSans-35" transform="translate(63.623047 0)"/>
      </g>
     </g>
    </g>
    <g id="xtick_3">
     <g id="line2d_5">
      <path d="M 265.844187 228.954713 
L 265.844187 17.061433 
" clip-path="url(#p32c0d773fe)" style="fill: none; stroke: #eef2f7; stroke-width: 0.55; stroke-linecap: square"/>
     </g>
     <g id="line2d_6">
      <g>
       <use xlink:href="#m74ef4f00d5" x="265.844187" y="228.954713" style="stroke: #000000; stroke-width: 0.8"/>
      </g>
     </g>
     <g id="text_3">
      <!-- 50 -->
      <g transform="translate(260.117937 242.793307) scale(0.09 -0.09)">
       <use xlink:href="#DejaVuSans-35"/>
       <use xlink:href="#DejaVuSans-30" transform="translate(63.623047 0)"/>
      </g>
     </g>
    </g>
    <g id="xtick_4">
     <g id="line2d_7">
      <path d="M 379.100969 228.954713 
L 379.100969 17.061433 
" clip-path="url(#p32c0d773fe)" style="fill: none; stroke: #eef2f7; stroke-width: 0.55; stroke-linecap: square"/>
     </g>
     <g id="line2d_8">
      <g>
       <use xlink:href="#m74ef4f00d5" x="379.100969" y="228.954713" style="stroke: #000000; stroke-width: 0.8"/>
      </g>
     </g>
     <g id="text_4">
      <!-- 75 -->
      <g transform="translate(373.374719 242.793307) scale(0.09 -0.09)">
       <defs>
        <path id="DejaVuSans-37" d="M 525 4666 
L 3525 4666 
L 3525 4397 
L 1831 0 
L 1172 0 
L 2766 4134 
L 525 4134 
L 525 4666 
z
" transform="scale(0.015625)"/>
       </defs>
       <use xlink:href="#DejaVuSans-37"/>
       <use xlink:href="#DejaVuSans-35" transform="translate(63.623047 0)"/>
      </g>
     </g>
    </g>
    <g id="xtick_5">
     <g id="line2d_9">
      <path d="M 492.35775 228.954713 
L 492.35775 17.061433 
" clip-path="url(#p32c0d773fe)" style="fill: none; stroke: #eef2f7; stroke-width: 0.55; stroke-linecap: square"/>
     </g>
     <g id="line2d_10">
      <g>
       <use xlink:href="#m74ef4f00d5" x="492.35775" y="228.954713" style="stroke: #000000; stroke-width: 0.8"/>
      </g>
     </g>
     <g id="text_5">
      <!-- 100 -->
      <g transform="translate(483.768375 242.793307) scale(0.09 -0.09)">
       <defs>
        <path id="DejaVuSans-31" d="M 794 531 
L 1825 531 
L 1825 4091 
L 703 3866 
L 703 4441 
L 1819 4666 
L 2450 4666 
L 2450 531 
L 3481 531 
L 3481 0 
L 794 0 
L 794 531 
z
" transform="scale(0.015625)"/>
       </defs>
       <use xlink:href="#DejaVuSans-31"/>
       <use xlink:href="#DejaVuSans-30" transform="translate(63.623047 0)"/>
       <use xlink:href="#DejaVuSans-30" transform="translate(127.246094 0)"/>
      </g>
     </g>
    </g>
    <g id="xtick_6">
     <g id="line2d_11">
      <path d="M 605.614531 228.954713 
L 605.614531 17.061433 
" clip-path="url(#p32c0d773fe)" style="fill: none; stroke: #eef2f7; stroke-width: 0.55; stroke-linecap: square"/>
     </g>
     <g id="line2d_12">
      <g>
       <use xlink:href="#m74ef4f00d5" x="605.614531" y="228.954713" style="stroke: #000000; stroke-width: 0.8"/>
      </g>
     </g>
     <g id="text_6">
      <!-- 125 -->
      <g transform="translate(597.025156 242.793307) scale(0.09 -0.09)">
       <use xlink:href="#DejaVuSans-31"/>
       <use xlink:href="#DejaVuSans-32" transform="translate(63.623047 0)"/>
       <use xlink:href="#DejaVuSans-35" transform="translate(127.246094 0)"/>
      </g>
     </g>
    </g>
    <g id="xtick_7">
     <g id="line2d_13">
      <path d="M 718.871312 228.954713 
L 718.871312 17.061433 
" clip-path="url(#p32c0d773fe)" style="fill: none; stroke: #eef2f7; stroke-width: 0.55; stroke-linecap: square"/>
     </g>
     <g id="line2d_14">
      <g>
       <use xlink:href="#m74ef4f00d5" x="718.871312" y="228.954713" style="stroke: #000000; stroke-width: 0.8"/>
      </g>
     </g>
     <g id="text_7">
      <!-- 150 -->
      <g transform="translate(710.281937 242.793307) scale(0.09 -0.09)">
       <use xlink:href="#DejaVuSans-31"/>
       <use xlink:href="#DejaVuSans-35" transform="translate(63.623047 0)"/>
       <use xlink:href="#DejaVuSans-30" transform="translate(127.246094 0)"/>
      </g>
     </g>
    </g>
    <g id="xtick_8">
     <g id="line2d_15">
      <path d="M 832.128093 228.954713 
L 832.128093 17.061433 
" clip-path="url(#p32c0d773fe)" style="fill: none; stroke: #eef2f7; stroke-width: 0.55; stroke-linecap: square"/>
     </g>
     <g id="line2d_16">
      <g>
       <use xlink:href="#m74ef4f00d5" x="832.128093" y="228.954713" style="stroke: #000000; stroke-width: 0.8"/>
      </g>
     </g>
     <g id="text_8">
      <!-- 175 -->
      <g transform="translate(823.538718 242.793307) scale(0.09 -0.09)">
       <use xlink:href="#DejaVuSans-31"/>
       <use xlink:href="#DejaVuSans-37" transform="translate(63.623047 0)"/>
       <use xlink:href="#DejaVuSans-35" transform="translate(127.246094 0)"/>
      </g>
     </g>
    </g>
    <g id="text_9">
     <!-- Minutes since session start -->
     <g transform="translate(419.728281 256.263463) scale(0.1 -0.1)">
      <defs>
       <path id="DejaVuSans-4d" d="M 628 4666 
L 1569 4666 
L 2759 1491 
L 3956 4666 
L 4897 4666 
L 4897 0 
L 4281 0 
L 4281 4097 
L 3078 897 
L 2444 897 
L 1241 4097 
L 1241 0 
L 628 0 
L 628 4666 
z
" transform="scale(0.015625)"/>
       <path id="DejaVuSans-69" d="M 603 3500 
L 1178 3500 
L 1178 0 
L 603 0 
L 603 3500 
z
M 603 4863 
L 1178 4863 
L 1178 4134 
L 603 4134 
L 603 4863 
z
" transform="scale(0.015625)"/>
       <path id="DejaVuSans-6e" d="M 3513 2113 
L 3513 0 
L 2938 0 
L 2938 2094 
Q 2938 2591 2744 2837 
Q 2550 3084 2163 3084 
Q 1697 3084 1428 2787 
Q 1159 2491 1159 1978 
L 1159 0 
L 581 0 
L 581 3500 
L 1159 3500 
L 1159 2956 
Q 1366 3272 1645 3428 
Q 1925 3584 2291 3584 
Q 2894 3584 3203 3211 
Q 3513 2838 3513 2113 
z
" transform="scale(0.015625)"/>
       <path id="DejaVuSans-75" d="M 544 1381 
L 544 3500 
L 1119 3500 
L 1119 1403 
Q 1119 906 1312 657 
Q 1506 409 1894 409 
Q 2359 409 2629 706 
Q 2900 1003 2900 1516 
L 2900 3500 
L 3475 3500 
L 3475 0 
L 2900 0 
L 2900 538 
Q 2691 219 2414 64 
Q 2138 -91 1772 -91 
Q 1169 -91 856 284 
Q 544 659 544 1381 
z
M 1991 3584 
L 1991 3584 
z
" transform="scale(0.015625)"/>
       <path id="DejaVuSans-74" d="M 1172 4494 
L 1172 3500 
L 2356 3500 
L 2356 3053 
L 1172 3053 
L 1172 1153 
Q 1172 725 1289 603 
Q 1406 481 1766 481 
L 2356 481 
L 2356 0 
L 1766 0 
Q 1100 0 847 248 
Q 594 497 594 1153 
L 594 3053 
L 172 3053 
L 172 3500 
L 594 3500 
L 594 4494 
L 1172 4494 
z
" transform="scale(0.015625)"/>
       <path id="DejaVuSans-65" d="M 3597 1894 
L 3597 1613 
L 953 1613 
Q 991 1019 1311 708 
Q 1631 397 2203 397 
Q 2534 397 2845 478 
Q 3156 559 3463 722 
L 3463 178 
Q 3153 47 2828 -22 
Q 2503 -91 2169 -91 
Q 1331 -91 842 396 
Q 353 884 353 1716 
Q 353 2575 817 3079 
Q 1281 3584 2069 3584 
Q 2775 3584 3186 3129 
Q 3597 2675 3597 1894 
z
M 3022 2063 
Q 3016 2534 2758 2815 
Q 2500 3097 2075 3097 
Q 1594 3097 1305 2825 
Q 1016 2553 972 2059 
L 3022 2063 
z
" transform="scale(0.015625)"/>
       <path id="DejaVuSans-73" d="M 2834 3397 
L 2834 2853 
Q 2591 2978 2328 3040 
Q 2066 3103 1784 3103 
Q 1356 3103 1142 2972 
Q 928 2841 928 2578 
Q 928 2378 1081 2264 
Q 1234 2150 1697 2047 
L 1894 2003 
Q 2506 1872 2764 1633 
Q 3022 1394 3022 966 
Q 3022 478 2636 193 
Q 2250 -91 1575 -91 
Q 1294 -91 989 -36 
Q 684 19 347 128 
L 347 722 
Q 666 556 975 473 
Q 1284 391 1588 391 
Q 1994 391 2212 530 
Q 2431 669 2431 922 
Q 2431 1156 2273 1281 
Q 2116 1406 1581 1522 
L 1381 1569 
Q 847 1681 609 1914 
Q 372 2147 372 2553 
Q 372 3047 722 3315 
Q 1072 3584 1716 3584 
Q 2034 3584 2315 3537 
Q 2597 3491 2834 3397 
z
" transform="scale(0.015625)"/>
       <path id="DejaVuSans-20" transform="scale(0.015625)"/>
       <path id="DejaVuSans-63" d="M 3122 3366 
L 3122 2828 
Q 2878 2963 2633 3030 
Q 2388 3097 2138 3097 
Q 1578 3097 1268 2742 
Q 959 2388 959 1747 
Q 959 1106 1268 751 
Q 1578 397 2138 397 
Q 2388 397 2633 464 
Q 2878 531 3122 666 
L 3122 134 
Q 2881 22 2623 -34 
Q 2366 -91 2075 -91 
Q 1284 -91 818 406 
Q 353 903 353 1747 
Q 353 2603 823 3093 
Q 1294 3584 2113 3584 
Q 2378 3584 2631 3529 
Q 2884 3475 3122 3366 
z
" transform="scale(0.015625)"/>
       <path id="DejaVuSans-6f" d="M 1959 3097 
Q 1497 3097 1228 2736 
Q 959 2375 959 1747 
Q 959 1119 1226 758 
Q 1494 397 1959 397 
Q 2419 397 2687 759 
Q 2956 1122 2956 1747 
Q 2956 2369 2687 2733 
Q 2419 3097 1959 3097 
z
M 1959 3584 
Q 2709 3584 3137 3096 
Q 3566 2609 3566 1747 
Q 3566 888 3137 398 
Q 2709 -91 1959 -91 
Q 1206 -91 779 398 
Q 353 888 353 1747 
Q 353 2609 779 3096 
Q 1206 3584 1959 3584 
z
" transform="scale(0.015625)"/>
       <path id="DejaVuSans-61" d="M 2194 1759 
Q 1497 1759 1228 1600 
Q 959 1441 959 1056 
Q 959 750 1161 570 
Q 1363 391 1709 391 
Q 2188 391 2477 730 
Q 2766 1069 2766 1631 
L 2766 1759 
L 2194 1759 
z
M 3341 1997 
L 3341 0 
L 2766 0 
L 2766 531 
Q 2569 213 2275 61 
Q 1981 -91 1556 -91 
Q 1019 -91 701 211 
Q 384 513 384 1019 
Q 384 1609 779 1909 
Q 1175 2209 1959 2209 
L 2766 2209 
L 2766 2266 
Q 2766 2663 2505 2880 
Q 2244 3097 1772 3097 
Q 1472 3097 1187 3025 
Q 903 2953 641 2809 
L 641 3341 
Q 956 3463 1253 3523 
Q 1550 3584 1831 3584 
Q 2591 3584 2966 3190 
Q 3341 2797 3341 1997 
z
" transform="scale(0.015625)"/>
       <path id="DejaVuSans-72" d="M 2631 2963 
Q 2534 3019 2420 3045 
Q 2306 3072 2169 3072 
Q 1681 3072 1420 2755 
Q 1159 2438 1159 1844 
L 1159 0 
L 581 0 
L 581 3500 
L 1159 3500 
L 1159 2956 
Q 1341 3275 1631 3429 
Q 1922 3584 2338 3584 
Q 2397 3584 2469 3576 
Q 2541 3569 2628 3553 
L 2631 2963 
z
" transform="scale(0.015625)"/>
      </defs>
      <use xlink:href="#DejaVuSans-4d"/>
      <use xlink:href="#DejaVuSans-69" transform="translate(86.279297 0)"/>
      <use xlink:href="#DejaVuSans-6e" transform="translate(114.0625 0)"/>
      <use xlink:href="#DejaVuSans-75" transform="translate(177.441406 0)"/>
      <use xlink:href="#DejaVuSans-74" transform="translate(240.820312 0)"/>
      <use xlink:href="#DejaVuSans-65" transform="translate(280.029297 0)"/>
      <use xlink:href="#DejaVuSans-73" transform="translate(341.552734 0)"/>
      <use xlink:href="#DejaVuSans-20" transform="translate(393.652344 0)"/>
      <use xlink:href="#DejaVuSans-73" transform="translate(425.439453 0)"/>
      <use xlink:href="#DejaVuSans-69" transform="translate(477.539062 0)"/>
      <use xlink:href="#DejaVuSans-6e" transform="translate(505.322266 0)"/>
      <use xlink:href="#DejaVuSans-63" transform="translate(568.701172 0)"/>
      <use xlink:href="#DejaVuSans-65" transform="translate(623.681641 0)"/>
      <use xlink:href="#DejaVuSans-20" transform="translate(685.205078 0)"/>
      <use xlink:href="#DejaVuSans-73" transform="translate(716.992188 0)"/>
      <use xlink:href="#DejaVuSans-65" transform="translate(769.091797 0)"/>
      <use xlink:href="#DejaVuSans-73" transform="translate(830.615234 0)"/>
      <use xlink:href="#DejaVuSans-73" transform="translate(882.714844 0)"/>
      <use xlink:href="#DejaVuSans-69" transform="translate(934.814453 0)"/>
      <use xlink:href="#DejaVuSans-6f" transform="translate(962.597656 0)"/>
      <use xlink:href="#DejaVuSans-6e" transform="translate(1023.779297 0)"/>
      <use xlink:href="#DejaVuSans-20" transform="translate(1087.158203 0)"/>
      <use xlink:href="#DejaVuSans-73" transform="translate(1118.945312 0)"/>
      <use xlink:href="#DejaVuSans-74" transform="translate(1171.044922 0)"/>
      <use xlink:href="#DejaVuSans-61" transform="translate(1210.253906 0)"/>
      <use xlink:href="#DejaVuSans-72" transform="translate(1271.533203 0)"/>
      <use xlink:href="#DejaVuSans-74" transform="translate(1312.646484 0)"/>
     </g>
    </g>
   </g>
   <g id="matplotlib.axis_2">
    <g id="ytick_1">
     <g id="line2d_17">
      <path d="M 39.330625 220.758674 
L 935.305625 220.758674 
" clip-path="url(#p32c0d773fe)" style="fill: none; stroke: #eef2f7; stroke-opacity: 0.25; stroke-width: 0.55; stroke-linecap: square"/>
     </g>
     <g id="line2d_18">
      <defs>
       <path id="ma4a5c295fc" d="M 0 0 
L -3.5 0 
" style="stroke: #000000; stroke-width: 0.8"/>
      </defs>
      <g>
       <use xlink:href="#ma4a5c295fc" x="39.330625" y="220.758674" style="stroke: #000000; stroke-width: 0.8"/>
      </g>
     </g>
     <g id="text_10">
      <!-- 3 -->
      <g transform="translate(26.604375 224.177971) scale(0.09 -0.09)">
       <defs>
        <path id="DejaVuSans-33" d="M 2597 2516 
Q 3050 2419 3304 2112 
Q 3559 1806 3559 1356 
Q 3559 666 3084 287 
Q 2609 -91 1734 -91 
Q 1441 -91 1130 -33 
Q 819 25 488 141 
L 488 750 
Q 750 597 1062 519 
Q 1375 441 1716 441 
Q 2309 441 2620 675 
Q 2931 909 2931 1356 
Q 2931 1769 2642 2001 
Q 2353 2234 1838 2234 
L 1294 2234 
L 1294 2753 
L 1863 2753 
Q 2328 2753 2575 2939 
Q 2822 3125 2822 3475 
Q 2822 3834 2567 4026 
Q 2313 4219 1838 4219 
Q 1578 4219 1281 4162 
Q 984 4106 628 3988 
L 628 4550 
Q 988 4650 1302 4700 
Q 1616 4750 1894 4750 
Q 2613 4750 3031 4423 
Q 3450 4097 3450 3541 
Q 3450 3153 3228 2886 
Q 3006 2619 2597 2516 
z
" transform="scale(0.015625)"/>
       </defs>
       <use xlink:href="#DejaVuSans-33"/>
      </g>
     </g>
    </g>
    <g id="ytick_2">
     <g id="line2d_19">
      <path d="M 39.330625 196.588377 
L 935.305625 196.588377 
" clip-path="url(#p32c0d773fe)" style="fill: none; stroke: #eef2f7; stroke-opacity: 0.25; stroke-width: 0.55; stroke-linecap: square"/>
     </g>
     <g id="line2d_20">
      <g>
       <use xlink:href="#ma4a5c295fc" x="39.330625" y="196.588377" style="stroke: #000000; stroke-width: 0.8"/>
      </g>
     </g>
     <g id="text_11">
      <!-- 4 -->
      <g transform="translate(26.604375 200.007674) scale(0.09 -0.09)">
       <defs>
        <path id="DejaVuSans-34" d="M 2419 4116 
L 825 1625 
L 2419 1625 
L 2419 4116 
z
M 2253 4666 
L 3047 4666 
L 3047 1625 
L 3713 1625 
L 3713 1100 
L 3047 1100 
L 3047 0 
L 2419 0 
L 2419 1100 
L 313 1100 
L 313 1709 
L 2253 4666 
z
" transform="scale(0.015625)"/>
       </defs>
       <use xlink:href="#DejaVuSans-34"/>
      </g>
     </g>
    </g>
    <g id="ytick_3">
     <g id="line2d_21">
      <path d="M 39.330625 172.418081 
L 935.305625 172.418081 
" clip-path="url(#p32c0d773fe)" style="fill: none; stroke: #eef2f7; stroke-opacity: 0.25; stroke-width: 0.55; stroke-linecap: square"/>
     </g>
     <g id="line2d_22">
      <g>
       <use xlink:href="#ma4a5c295fc" x="39.330625" y="172.418081" style="stroke: #000000; stroke-width: 0.8"/>
      </g>
     </g>
     <g id="text_12">
      <!-- 5 -->
      <g transform="translate(26.604375 175.837378) scale(0.09 -0.09)">
       <use xlink:href="#DejaVuSans-35"/>
      </g>
     </g>
    </g>
    <g id="ytick_4">
     <g id="line2d_23">
      <path d="M 39.330625 148.247784 
L 935.305625 148.247784 
" clip-path="url(#p32c0d773fe)" style="fill: none; stroke: #eef2f7; stroke-opacity: 0.25; stroke-width: 0.55; stroke-linecap: square"/>
     </g>
     <g id="line2d_24">
      <g>
       <use xlink:href="#ma4a5c295fc" x="39.330625" y="148.247784" style="stroke: #000000; stroke-width: 0.8"/>
      </g>
     </g>
     <g id="text_13">
      <!-- 6 -->
      <g transform="translate(26.604375 151.667081) scale(0.09 -0.09)">
       <defs>
        <path id="DejaVuSans-36" d="M 2113 2584 
Q 1688 2584 1439 2293 
Q 1191 2003 1191 1497 
Q 1191 994 1439 701 
Q 1688 409 2113 409 
Q 2538 409 2786 701 
Q 3034 994 3034 1497 
Q 3034 2003 2786 2293 
Q 2538 2584 2113 2584 
z
M 3366 4563 
L 3366 3988 
Q 3128 4100 2886 4159 
Q 2644 4219 2406 4219 
Q 1781 4219 1451 3797 
Q 1122 3375 1075 2522 
Q 1259 2794 1537 2939 
Q 1816 3084 2150 3084 
Q 2853 3084 3261 2657 
Q 3669 2231 3669 1497 
Q 3669 778 3244 343 
Q 2819 -91 2113 -91 
Q 1303 -91 875 529 
Q 447 1150 447 2328 
Q 447 3434 972 4092 
Q 1497 4750 2381 4750 
Q 2619 4750 2861 4703 
Q 3103 4656 3366 4563 
z
" transform="scale(0.015625)"/>
       </defs>
       <use xlink:href="#DejaVuSans-36"/>
      </g>
     </g>
    </g>
    <g id="ytick_5">
     <g id="line2d_25">
      <path d="M 39.330625 124.077488 
L 935.305625 124.077488 
" clip-path="url(#p32c0d773fe)" style="fill: none; stroke: #eef2f7; stroke-opacity: 0.25; stroke-width: 0.55; stroke-linecap: square"/>
     </g>
     <g id="line2d_26">
      <g>
       <use xlink:href="#ma4a5c295fc" x="39.330625" y="124.077488" style="stroke: #000000; stroke-width: 0.8"/>
      </g>
     </g>
     <g id="text_14">
      <!-- 7 -->
      <g transform="translate(26.604375 127.496784) scale(0.09 -0.09)">
       <use xlink:href="#DejaVuSans-37"/>
      </g>
     </g>
    </g>
    <g id="ytick_6">
     <g id="line2d_27">
      <path d="M 39.330625 99.907191 
L 935.305625 99.907191 
" clip-path="url(#p32c0d773fe)" style="fill: none; stroke: #eef2f7; stroke-opacity: 0.25; stroke-width: 0.55; stroke-linecap: square"/>
     </g>
     <g id="line2d_28">
      <g>
       <use xlink:href="#ma4a5c295fc" x="39.330625" y="99.907191" style="stroke: #000000; stroke-width: 0.8"/>
      </g>
     </g>
     <g id="text_15">
      <!-- 8 -->
      <g transform="translate(26.604375 103.326488) scale(0.09 -0.09)">
       <defs>
        <path id="DejaVuSans-38" d="M 2034 2216 
Q 1584 2216 1326 1975 
Q 1069 1734 1069 1313 
Q 1069 891 1326 650 
Q 1584 409 2034 409 
Q 2484 409 2743 651 
Q 3003 894 3003 1313 
Q 3003 1734 2745 1975 
Q 2488 2216 2034 2216 
z
M 1403 2484 
Q 997 2584 770 2862 
Q 544 3141 544 3541 
Q 544 4100 942 4425 
Q 1341 4750 2034 4750 
Q 2731 4750 3128 4425 
Q 3525 4100 3525 3541 
Q 3525 3141 3298 2862 
Q 3072 2584 2669 2484 
Q 3125 2378 3379 2068 
Q 3634 1759 3634 1313 
Q 3634 634 3220 271 
Q 2806 -91 2034 -91 
Q 1263 -91 848 271 
Q 434 634 434 1313 
Q 434 1759 690 2068 
Q 947 2378 1403 2484 
z
M 1172 3481 
Q 1172 3119 1398 2916 
Q 1625 2713 2034 2713 
Q 2441 2713 2670 2916 
Q 2900 3119 2900 3481 
Q 2900 3844 2670 4047 
Q 2441 4250 2034 4250 
Q 1625 4250 1398 4047 
Q 1172 3844 1172 3481 
z
" transform="scale(0.015625)"/>
       </defs>
       <use xlink:href="#DejaVuSans-38"/>
      </g>
     </g>
    </g>
    <g id="ytick_7">
     <g id="line2d_29">
      <path d="M 39.330625 75.736894 
L 935.305625 75.736894 
" clip-path="url(#p32c0d773fe)" style="fill: none; stroke: #eef2f7; stroke-opacity: 0.25; stroke-width: 0.55; stroke-linecap: square"/>
     </g>
     <g id="line2d_30">
      <g>
       <use xlink:href="#ma4a5c295fc" x="39.330625" y="75.736894" style="stroke: #000000; stroke-width: 0.8"/>
      </g>
     </g>
     <g id="text_16">
      <!-- 9 -->
      <g transform="translate(26.604375 79.156191) scale(0.09 -0.09)">
       <defs>
        <path id="DejaVuSans-39" d="M 703 97 
L 703 672 
Q 941 559 1184 500 
Q 1428 441 1663 441 
Q 2288 441 2617 861 
Q 2947 1281 2994 2138 
Q 2813 1869 2534 1725 
Q 2256 1581 1919 1581 
Q 1219 1581 811 2004 
Q 403 2428 403 3163 
Q 403 3881 828 4315 
Q 1253 4750 1959 4750 
Q 2769 4750 3195 4129 
Q 3622 3509 3622 2328 
Q 3622 1225 3098 567 
Q 2575 -91 1691 -91 
Q 1453 -91 1209 -44 
Q 966 3 703 97 
z
M 1959 2075 
Q 2384 2075 2632 2365 
Q 2881 2656 2881 3163 
Q 2881 3666 2632 3958 
Q 2384 4250 1959 4250 
Q 1534 4250 1286 3958 
Q 1038 3666 1038 3163 
Q 1038 2656 1286 2365 
Q 1534 2075 1959 2075 
z
" transform="scale(0.015625)"/>
       </defs>
       <use xlink:href="#DejaVuSans-39"/>
      </g>
     </g>
    </g>
    <g id="ytick_8">
     <g id="line2d_31">
      <path d="M 39.330625 51.566598 
L 935.305625 51.566598 
" clip-path="url(#p32c0d773fe)" style="fill: none; stroke: #eef2f7; stroke-opacity: 0.25; stroke-width: 0.55; stroke-linecap: square"/>
     </g>
     <g id="line2d_32">
      <g>
       <use xlink:href="#ma4a5c295fc" x="39.330625" y="51.566598" style="stroke: #000000; stroke-width: 0.8"/>
      </g>
     </g>
     <g id="text_17">
      <!-- 10 -->
      <g transform="translate(20.878125 54.985895) scale(0.09 -0.09)">
       <use xlink:href="#DejaVuSans-31"/>
       <use xlink:href="#DejaVuSans-30" transform="translate(63.623047 0)"/>
      </g>
     </g>
    </g>
    <g id="ytick_9">
     <g id="line2d_33">
      <path d="M 39.330625 27.396301 
L 935.305625 27.396301 
" clip-path="url(#p32c0d773fe)" style="fill: none; stroke: #eef2f7; stroke-opacity: 0.25; stroke-width: 0.55; stroke-linecap: square"/>
     </g>
     <g id="line2d_34">
      <g>
       <use xlink:href="#ma4a5c295fc" x="39.330625" y="27.396301" style="stroke: #000000; stroke-width: 0.8"/>
      </g>
     </g>
     <g id="text_18">
      <!-- 11 -->
      <g transform="translate(20.878125 30.815598) scale(0.09 -0.09)">
       <use xlink:href="#DejaVuSans-31"/>
       <use xlink:href="#DejaVuSans-31" transform="translate(63.623047 0)"/>
      </g>
     </g>
    </g>
    <g id="text_19">
     <!-- EDA (microsiemens) -->
     <g transform="translate(14.798438 173.642448) rotate(-90) scale(0.1 -0.1)">
      <defs>
       <path id="DejaVuSans-45" d="M 628 4666 
L 3578 4666 
L 3578 4134 
L 1259 4134 
L 1259 2753 
L 3481 2753 
L 3481 2222 
L 1259 2222 
L 1259 531 
L 3634 531 
L 3634 0 
L 628 0 
L 628 4666 
z
" transform="scale(0.015625)"/>
       <path id="DejaVuSans-44" d="M 1259 4147 
L 1259 519 
L 2022 519 
Q 2988 519 3436 956 
Q 3884 1394 3884 2338 
Q 3884 3275 3436 3711 
Q 2988 4147 2022 4147 
L 1259 4147 
z
M 628 4666 
L 1925 4666 
Q 3281 4666 3915 4102 
Q 4550 3538 4550 2338 
Q 4550 1131 3912 565 
Q 3275 0 1925 0 
L 628 0 
L 628 4666 
z
" transform="scale(0.015625)"/>
       <path id="DejaVuSans-41" d="M 2188 4044 
L 1331 1722 
L 3047 1722 
L 2188 4044 
z
M 1831 4666 
L 2547 4666 
L 4325 0 
L 3669 0 
L 3244 1197 
L 1141 1197 
L 716 0 
L 50 0 
L 1831 4666 
z
" transform="scale(0.015625)"/>
       <path id="DejaVuSans-28" d="M 1984 4856 
Q 1566 4138 1362 3434 
Q 1159 2731 1159 2009 
Q 1159 1288 1364 580 
Q 1569 -128 1984 -844 
L 1484 -844 
Q 1016 -109 783 600 
Q 550 1309 550 2009 
Q 550 2706 781 3412 
Q 1013 4119 1484 4856 
L 1984 4856 
z
" transform="scale(0.015625)"/>
       <path id="DejaVuSans-6d" d="M 3328 2828 
Q 3544 3216 3844 3400 
Q 4144 3584 4550 3584 
Q 5097 3584 5394 3201 
Q 5691 2819 5691 2113 
L 5691 0 
L 5113 0 
L 5113 2094 
Q 5113 2597 4934 2840 
Q 4756 3084 4391 3084 
Q 3944 3084 3684 2787 
Q 3425 2491 3425 1978 
L 3425 0 
L 2847 0 
L 2847 2094 
Q 2847 2600 2669 2842 
Q 2491 3084 2119 3084 
Q 1678 3084 1418 2786 
Q 1159 2488 1159 1978 
L 1159 0 
L 581 0 
L 581 3500 
L 1159 3500 
L 1159 2956 
Q 1356 3278 1631 3431 
Q 1906 3584 2284 3584 
Q 2666 3584 2933 3390 
Q 3200 3197 3328 2828 
z
" transform="scale(0.015625)"/>
       <path id="DejaVuSans-29" d="M 513 4856 
L 1013 4856 
Q 1481 4119 1714 3412 
Q 1947 2706 1947 2009 
Q 1947 1309 1714 600 
Q 1481 -109 1013 -844 
L 513 -844 
Q 928 -128 1133 580 
Q 1338 1288 1338 2009 
Q 1338 2731 1133 3434 
Q 928 4138 513 4856 
z
" transform="scale(0.015625)"/>
      </defs>
      <use xlink:href="#DejaVuSans-45"/>
      <use xlink:href="#DejaVuSans-44" transform="translate(63.183594 0)"/>
      <use xlink:href="#DejaVuSans-41" transform="translate(138.435547 0)"/>
      <use xlink:href="#DejaVuSans-20" transform="translate(206.84375 0)"/>
      <use xlink:href="#DejaVuSans-28" transform="translate(238.630859 0)"/>
      <use xlink:href="#DejaVuSans-6d" transform="translate(277.644531 0)"/>
      <use xlink:href="#DejaVuSans-69" transform="translate(375.056641 0)"/>
      <use xlink:href="#DejaVuSans-63" transform="translate(402.839844 0)"/>
      <use xlink:href="#DejaVuSans-72" transform="translate(457.820312 0)"/>
      <use xlink:href="#DejaVuSans-6f" transform="translate(496.683594 0)"/>
      <use xlink:href="#DejaVuSans-73" transform="translate(557.865234 0)"/>
      <use xlink:href="#DejaVuSans-69" transform="translate(609.964844 0)"/>
      <use xlink:href="#DejaVuSans-65" transform="translate(637.748047 0)"/>
      <use xlink:href="#DejaVuSans-6d" transform="translate(699.271484 0)"/>
      <use xlink:href="#DejaVuSans-65" transform="translate(796.683594 0)"/>
      <use xlink:href="#DejaVuSans-6e" transform="translate(858.207031 0)"/>
      <use xlink:href="#DejaVuSans-73" transform="translate(921.585938 0)"/>
      <use xlink:href="#DejaVuSans-29" transform="translate(973.685547 0)"/>
     </g>
    </g>
   </g>
   <g id="line2d_35">
    <path d="M 56.24545 216.372732 
L 56.822304 216.409713 
L 57.110732 215.340177 
L 57.399159 216.040874 
L 57.687586 215.819474 
L 57.976013 216.483432 
L 58.264441 217.921806 
L 58.552868 218.106226 
L 58.841295 214.455061 
L 59.129722 219.3232 
L 59.41815 214.897619 
L 59.706577 213.791103 
L 59.995004 216.778551 
L 60.283432 215.856454 
L 60.571859 212.205289 
L 60.860286 206.857611 
L 61.148713 204.828998 
L 61.437141 203.612024 
L 62.013995 206.709931 
L 62.59085 197.969226 
L 62.879277 198.706904 
L 63.167704 195.682475 
L 63.456132 195.387597 
L 63.744559 188.933403 
L 64.032986 188.306425 
L 64.321413 190.888055 
L 64.609841 189.4127 
L 64.898268 189.818519 
L 65.186695 188.859683 
L 65.475122 188.933403 
L 65.76355 178.569905 
L 66.340404 169.017562 
L 66.917259 176.172453 
L 67.205686 174.29152 
L 67.782541 159.281041 
L 68.070968 157.14197 
L 68.359395 162.19477 
L 68.647822 156.330573 
L 69.513104 174.62362 
L 69.801531 160.092438 
L 70.666813 180.524557 
L 70.955241 166.399194 
L 71.243668 171.378033 
L 71.532095 173.369665 
L 71.820522 180.856415 
L 72.397377 140.029158 
L 72.685804 142.647768 
L 72.974231 131.546593 
L 73.262659 131.989151 
L 73.551086 127.563569 
L 74.12794 140.619397 
L 74.704795 151.314753 
L 74.993222 144.860559 
L 75.28165 142.869168 
L 75.570077 142.09451 
L 75.858504 148.585685 
L 76.146931 151.204053 
L 77.012213 126.383334 
L 77.30064 139.771019 
L 77.589068 145.598236 
L 77.877495 120.519137 
L 78.165922 117.568668 
L 78.45435 102.890047 
L 78.742777 103.369586 
L 79.031204 115.872155 
L 79.319631 116.425413 
L 79.608059 121.994491 
L 79.896486 114.323323 
L 80.47334 127.674028 
L 81.050195 135.529858 
L 81.627049 105.471677 
L 81.915477 108.385406 
L 82.492331 127.34217 
L 82.780759 134.091483 
L 83.069186 137.07869 
L 83.357613 117.568668 
L 83.64604 123.432866 
L 83.934468 120.666817 
L 84.222895 103.959583 
L 84.511322 120.224259 
L 84.799749 125.313798 
L 85.088177 132.947986 
L 85.665031 140.914274 
L 85.953459 140.324278 
L 86.241886 142.352649 
L 86.81874 147.516149 
L 87.107168 118.417046 
L 87.395595 119.892159 
L 87.972449 139.144042 
L 88.260877 141.799391 
L 88.549304 139.070323 
L 89.126158 152.900566 
L 89.414586 157.473828 
L 89.99144 121.072395 
L 90.279868 107.352609 
L 90.568295 99.497021 
L 90.856722 107.795167 
L 91.145149 125.645656 
L 91.433577 136.230554 
L 91.722004 127.674028 
L 92.010431 105.988196 
L 92.298858 97.136792 
L 92.875713 122.25263 
L 93.16414 127.600308 
L 93.452568 95.624456 
L 93.740995 87.953287 
L 94.029422 99.497021 
L 94.317849 90.719336 
L 94.894704 110.561458 
L 95.183131 118.859604 
L 95.471558 111.114474 
L 96.33684 129.149383 
L 97.202122 141.873352 
L 97.490549 141.873352 
L 98.355831 151.536153 
L 98.644258 139.734281 
L 98.932686 135.972416 
L 99.221113 140.287297 
L 99.50954 140.656136 
L 100.086395 142.09451 
L 100.663249 150.392656 
L 101.240104 155.224057 
L 101.528531 157.879647 
L 102.105386 160.461277 
L 102.393813 162.526629 
L 102.68224 158.985922 
L 103.259095 147.11033 
L 103.835949 156.920812 
L 104.124376 160.166157 
L 104.412804 158.100806 
L 104.701231 137.963806 
L 105.278086 151.572892 
L 105.566513 152.753127 
L 106.143367 160.424296 
L 106.431795 160.203138 
L 106.720222 163.338025 
L 107.008649 164.518261 
L 107.297076 144.159862 
L 107.585504 136.119854 
L 107.873931 134.939619 
L 108.162358 140.029158 
L 108.450786 139.217761 
L 108.739213 135.013338 
L 109.02764 141.246374 
L 109.316067 125.240079 
L 109.604495 134.6445 
L 110.181349 144.123123 
L 110.469776 148.290566 
L 110.758204 149.286382 
L 111.046631 151.609872 
L 111.335058 128.485425 
L 111.623485 133.796364 
L 111.911913 135.824735 
L 112.488767 145.598236 
L 114.219331 158.654064 
L 114.507758 157.25267 
L 114.796185 151.278014 
L 115.084613 123.727743 
L 115.37304 128.559144 
L 115.661467 129.73938 
L 115.949895 140.029158 
L 116.815176 154.560341 
L 117.103604 157.473828 
L 117.392031 157.215689 
L 117.680458 156.293834 
L 117.968885 143.791023 
L 118.54574 153.933363 
L 119.122594 160.239877 
L 119.411022 158.137786 
L 119.699449 160.756396 
L 120.276304 147.22103 
L 120.564731 152.163131 
L 120.853158 153.121966 
L 121.141585 156.625692 
L 121.430013 155.445457 
L 121.71844 153.380105 
L 122.872149 160.756396 
L 123.160576 160.977554 
L 123.449004 152.12615 
L 123.737431 157.473828 
L 124.025858 158.985922 
L 124.314285 161.93639 
L 124.602713 158.691044 
L 124.89114 150.355917 
L 125.467994 159.612899 
L 126.044849 162.784767 
L 126.621704 167.468729 
L 127.198558 159.059883 
L 127.486985 160.166157 
L 127.775413 148.622424 
L 128.06384 148.770104 
L 128.640694 151.499172 
L 129.217549 157.805928 
L 130.082831 165.108258 
L 130.371258 167.026171 
L 130.659685 163.374764 
L 130.948113 166.067094 
L 131.23654 165.181977 
L 131.813394 169.68152 
L 132.101822 169.68152 
L 132.390249 168.206165 
L 133.543958 172.927107 
L 133.832385 164.260122 
L 134.40924 163.116626 
L 134.697667 158.100806 
L 134.986094 157.289409 
L 135.274522 141.651952 
L 135.562949 148.843824 
L 135.851376 151.904992 
L 136.139803 152.753127 
L 136.428231 144.786839 
L 136.716658 150.798476 
L 137.005085 147.958707 
L 137.58194 153.970102 
L 137.870367 155.888015 
L 138.158794 149.581501 
L 138.447222 133.132406 
L 138.735649 136.119854 
L 139.312503 119.597281 
L 139.600931 134.165203 
L 140.177785 146.925911 
L 140.75464 154.85546 
L 141.331494 141.209394 
L 141.619922 144.71312 
L 141.908349 134.460322 
L 143.062058 150.724756 
L 143.350485 152.199869 
L 143.92734 157.805928 
L 145.369476 169.091523 
L 145.657903 170.788036 
L 145.946331 170.861755 
L 147.388467 178.791063 
L 147.676894 179.270602 
L 147.965321 180.045018 
L 149.119031 185.687815 
L 149.407458 186.167354 
L 149.695885 187.12619 
L 149.984312 187.421309 
L 150.27274 172.631988 
L 150.561167 173.554085 
L 150.849594 173.480124 
L 151.426449 178.164085 
L 152.29173 183.843863 
L 152.580158 185.650835 
L 152.868585 186.277812 
L 153.157012 184.987118 
L 153.44544 172.041991 
L 154.310721 178.495944 
L 154.887576 181.114553 
L 155.176003 182.626647 
L 155.46443 180.524557 
L 155.752858 182.184089 
L 156.041285 182.663628 
L 156.329712 182.552928 
L 156.61814 180.266418 
L 157.483421 184.43386 
L 157.771849 177.574088 
L 158.060276 180.045018 
L 158.348703 181.520373 
L 158.925558 165.477097 
L 159.502412 171.415013 
L 160.367694 177.278969 
L 160.656121 178.717343 
L 160.944549 175.287337 
L 161.521403 178.717343 
L 162.386685 182.995486 
L 162.675112 178.864782 
L 162.963539 178.348505 
L 163.251967 180.561295 
L 163.540394 180.524557 
L 163.828821 182.03665 
L 164.117249 181.594092 
L 164.405676 179.381302 
L 164.98253 182.03665 
L 165.270958 183.032467 
L 165.559385 184.72898 
L 165.847812 184.987118 
L 166.136239 185.060838 
L 167.001521 188.306425 
L 167.289948 188.859683 
L 167.866803 178.901763 
L 168.15523 179.455021 
L 168.443658 181.225253 
L 168.732085 182.294789 
L 169.020512 184.028283 
L 169.308939 184.987118 
L 169.597367 180.856415 
L 169.885794 157.14197 
L 170.174221 158.985922 
L 170.462648 133.243106 
L 170.751076 135.382177 
L 171.039503 132.911248 
L 171.616358 141.283113 
L 171.904785 143.828004 
L 172.193212 144.454981 
L 172.481639 130.882635 
L 172.770067 138.554045 
L 173.923776 152.12615 
L 174.212203 153.859644 
L 174.50063 150.097779 
L 175.654339 158.432905 
L 175.942767 158.100806 
L 176.231194 159.059883 
L 176.519621 158.691044 
L 176.808048 144.123123 
L 177.096476 151.572892 
L 177.384903 150.024059 
L 177.67333 154.52336 
L 177.961757 157.14197 
L 178.250185 157.25267 
L 178.538612 156.035454 
L 178.827039 158.985922 
L 179.115467 160.239877 
L 179.692321 163.706864 
L 179.980748 163.633145 
L 180.269176 164.370581 
L 180.84603 167.616168 
L 181.134457 168.722684 
L 181.422885 169.128262 
L 181.711312 169.939659 
L 181.999739 168.833142 
L 182.288167 158.100806 
L 182.576594 155.777315 
L 182.865021 159.244302 
L 183.153448 159.834299 
L 183.730303 163.965003 
L 184.01873 163.854303 
L 184.307157 165.772216 
L 184.595585 166.767791 
L 185.172439 170.013378 
L 185.460866 164.518261 
L 185.749294 124.686821 
L 186.326148 96.288414 
L 186.614576 90.240039 
L 186.903003 108.385406 
L 187.19143 111.335874 
L 187.479857 102.226331 
L 187.768285 80.540257 
L 188.345139 105.176799 
L 188.633566 83.601425 
L 188.921994 51.257218 
L 189.210421 67.226291 
L 190.652557 109.344242 
L 191.517839 123.727743 
L 191.806266 99.828879 
L 192.094694 100.455857 
L 192.671548 61.620233 
L 193.248403 85.334677 
L 194.113685 113.991223 
L 194.402112 120.556117 
L 194.690539 62.24721 
L 194.978966 68.738385 
L 195.267394 92.415849 
L 195.844248 115.982855 
L 196.421103 130.071479 
L 196.997957 139.4759 
L 197.574812 145.967075 
L 197.863239 85.002819 
L 198.151666 88.875384 
L 198.440094 106.320054 
L 198.728521 89.170504 
L 199.016948 95.956556 
L 199.305375 109.8975 
L 199.593803 117.568668 
L 199.88223 74.086063 
L 200.170657 95.108179 
L 201.324366 124.281001 
L 201.901221 93.596085 
L 202.189648 107.832148 
L 202.478075 115.798436 
L 202.766503 117.31053 
L 203.343357 105.066099 
L 203.631784 93.300966 
L 203.920212 61.067216 
L 204.785494 93.669804 
L 205.073921 103.148186 
L 205.362348 106.910051 
L 205.650775 52.805809 
L 205.939203 56.936513 
L 206.22763 81.720493 
L 206.804484 106.172615 
L 207.092912 114.101923 
L 207.669766 95.698417 
L 207.958193 103.996563 
L 208.246621 107.537028 
L 208.535048 105.176799 
L 208.823475 111.114474 
L 209.111903 105.139818 
L 209.40033 112.22099 
L 209.688757 111.372613 
L 209.977184 105.988196 
L 210.265612 113.437965 
L 210.554039 115.761455 
L 211.130893 125.240079 
L 213.149884 140.840555 
L 213.438312 142.426368 
L 213.726739 135.013338 
L 214.015166 137.373809 
L 214.303593 140.656136 
L 214.880448 136.562413 
L 215.457302 142.389629 
L 216.034157 144.454981 
L 216.322584 146.594052 
L 216.611012 143.606604 
L 216.899439 145.930094 
L 217.187866 145.340097 
L 217.476293 125.018679 
L 217.764721 115.503317 
L 218.053148 124.317982 
L 218.341575 127.305189 
L 218.630002 132.616128 
L 218.91843 127.305189 
L 219.206857 107.42657 
L 219.495284 104.623541 
L 219.783712 114.876339 
L 220.360566 125.240079 
L 220.648993 121.441233 
L 220.937421 126.530773 
L 221.225848 120.260998 
L 221.514275 85.961655 
L 221.802702 97.136792 
L 222.09113 86.847013 
L 222.379557 88.875384 
L 222.667984 73.864905 
L 222.956411 74.381182 
L 223.244839 88.875384 
L 223.533266 96.362134 
L 223.821693 99.238882 
L 224.110121 99.90284 
L 224.398548 99.497021 
L 224.686975 102.558189 
L 224.975402 97.39493 
L 225.26383 99.534002 
L 225.552257 89.133523 
L 226.129111 106.467493 
L 226.417539 95.624456 
L 226.705966 72.50025 
L 227.282821 101.230515 
L 227.571248 108.422145 
L 227.859675 88.027007 
L 228.148102 91.899572 
L 228.43653 59.260003 
L 228.724957 78.548625 
L 229.301811 100.08726 
L 230.167093 118.490765 
L 231.032375 129.518221 
L 231.320802 127.415889 
L 231.60923 130.550776 
L 231.897657 130.661476 
L 232.474511 135.603577 
L 232.762939 137.263109 
L 233.051366 136.783812 
L 233.339793 126.788911 
L 233.62822 131.030315 
L 233.916648 132.579389 
L 234.205075 124.686821 
L 234.78193 132.579389 
L 235.070357 122.32635 
L 235.647211 130.071479 
L 236.224066 127.932166 
L 236.512493 123.506585 
L 236.80092 124.354721 
L 237.089348 116.425413 
L 237.377775 118.453785 
L 237.666202 93.042827 
L 237.95463 54.502322 
L 238.243057 66.451633 
L 238.531484 84.154684 
L 238.819911 69.291643 
L 239.108339 88.875384 
L 239.396766 99.312602 
L 240.262048 113.143087 
L 240.838902 122.289369 
L 241.415757 128.854263 
L 241.704184 126.125195 
L 241.992611 118.417046 
L 242.281039 120.224259 
L 242.857893 129.407521 
L 243.14632 133.243106 
L 243.434748 134.90288 
L 243.723175 127.674028 
L 244.300029 135.271477 
L 244.588457 137.963806 
L 244.876884 139.107303 
L 245.165311 107.832148 
L 245.453739 101.820512 
L 246.030593 120.556117 
L 246.31902 111.446574 
L 246.607448 97.431669 
L 246.895875 105.766796 
L 247.184302 59.444423 
L 247.472729 69.586521 
L 248.049584 96.878411 
L 248.626438 105.840515 
L 248.914866 79.397002 
L 249.203293 71.504434 
L 249.49172 74.934441 
L 249.780148 82.089332 
L 250.068575 93.042827 
L 250.645429 106.283074 
L 250.933857 103.406325 
L 251.222284 107.31587 
L 251.510711 112.810987 
L 251.799138 98.870044 
L 252.087566 104.69726 
L 252.375993 100.566557 
L 252.66442 110.155638 
L 252.952848 114.397042 
L 253.241275 113.474945 
L 253.529702 114.544481 
L 253.818129 104.217722 
L 254.106557 105.434938 
L 254.683411 118.417046 
L 255.548693 127.895428 
L 255.83712 130.034499 
L 256.125547 130.292638 
L 256.702402 109.8975 
L 256.990829 118.490765 
L 257.279257 123.211466 
L 257.567684 122.473788 
L 258.144538 111.409593 
L 258.432966 67.631869 
L 258.721393 89.428642 
L 259.00982 95.624456 
L 259.586675 111.925871 
L 260.163529 122.32635 
L 260.740384 128.264266 
L 261.605666 134.423341 
L 261.894093 123.174727 
L 262.18252 104.033302 
L 262.470947 113.733084 
L 262.759375 104.549822 
L 263.047802 107.758428 
L 263.336229 95.07144 
L 263.624656 100.750976 
L 263.913084 108.790983 
L 264.201511 107.61099 
L 264.778366 117.753088 
L 265.35522 124.317982 
L 266.220502 131.546593 
L 266.797356 134.718461 
L 267.374211 105.139818 
L 267.951066 118.785885 
L 268.52792 128.485425 
L 268.816347 126.125195 
L 269.393202 131.952412 
L 270.258484 113.770065 
L 270.546911 120.224259 
L 270.835338 111.667732 
L 271.123765 91.235614 
L 271.412193 106.947032 
L 271.70062 99.718421 
L 271.989047 69.918621 
L 272.277475 92.637249 
L 272.565902 93.559346 
L 272.854329 78.511886 
L 273.142756 84.154684 
L 273.431184 87.400029 
L 273.719611 67.300011 
L 274.008038 84.412822 
L 274.584893 98.058647 
L 274.87332 76.040715 
L 275.161747 65.123959 
L 275.738602 92.710969 
L 276.027029 96.288414 
L 276.315456 94.96074 
L 276.603884 98.316785 
L 276.892311 99.534002 
L 277.180738 91.825852 
L 277.469165 95.145159 
L 278.04602 104.844699 
L 278.334447 95.661437 
L 278.622874 90.424459 
L 278.911302 73.200947 
L 279.199729 86.183055 
L 279.488156 82.937467 
L 279.776584 59.554881 
L 280.065011 66.746753 
L 280.353438 77.958628 
L 280.641865 69.660482 
L 280.930293 83.933284 
L 281.21872 87.621429 
L 281.507147 88.248407 
L 282.372429 102.48447 
L 282.949284 111.077735 
L 283.526138 116.314713 
L 283.814565 115.208439 
L 284.102993 92.821669 
L 284.39142 91.530733 
L 284.679847 84.7077 
L 285.256702 102.48447 
L 285.545129 107.832148 
L 285.833556 109.60238 
L 286.410411 118.158907 
L 286.698838 99.497021 
L 286.987265 65.898617 
L 287.56412 98.353766 
L 287.852547 103.111447 
L 288.140974 68.406527 
L 288.429402 76.962812 
L 288.717829 93.337946 
L 289.006256 83.269567 
L 289.583111 103.664705 
L 289.871538 109.8975 
L 290.159965 105.988196 
L 290.448393 99.86586 
L 291.025247 111.925871 
L 291.313674 102.853308 
L 291.602102 107.09447 
L 291.890529 109.344242 
L 292.178956 114.028203 
L 292.467383 116.019836 
L 292.755811 98.943763 
L 293.044238 102.816328 
L 293.332665 102.816328 
L 293.621092 67.521169 
L 293.90952 71.725834 
L 294.197947 82.42119 
L 294.774802 94.85004 
L 295.063229 77.036531 
L 295.351656 91.567714 
L 295.928511 107.27889 
L 296.505365 116.941691 
L 296.793792 117.568668 
L 297.08222 63.501165 
L 297.659074 96.509814 
L 297.947502 105.988196 
L 298.235929 106.283074 
L 298.524356 112.22099 
L 298.812783 115.798436 
L 299.101211 121.146114 
L 299.389638 114.286342 
L 299.678065 116.093555 
L 299.966492 109.8975 
L 300.25492 112.921687 
L 300.543347 108.385406 
L 301.120202 119.338901 
L 301.697056 125.534956 
L 301.985483 120.260998 
L 302.273911 122.621469 
L 302.850765 123.064027 
L 303.139192 123.211466 
L 303.42762 126.457053 
L 303.716047 102.816328 
L 304.004474 102.779589 
L 304.292901 90.645617 
L 304.581329 105.250518 
L 305.158183 120.556117 
L 305.446611 122.953327 
L 305.735038 122.621469 
L 306.023465 123.543324 
L 306.311892 127.674028 
L 306.60032 126.494034 
L 306.888747 121.699372 
L 307.177174 95.403298 
L 307.754029 115.245178 
L 308.330883 123.764724 
L 308.619311 125.830076 
L 309.196165 85.519097 
L 309.484592 88.838404 
L 309.77302 74.012344 
L 310.061447 75.303279 
L 310.638301 96.509814 
L 310.926729 89.133523 
L 311.215156 92.710969 
L 311.79201 106.283074 
L 312.080438 111.630993 
L 312.368865 112.29471 
L 312.94572 119.338901 
L 313.522574 121.183095 
L 313.811001 120.224259 
L 314.099429 110.450758 
L 314.387856 109.639361 
L 314.96471 121.441233 
L 315.541565 128.227286 
L 315.829992 130.661476 
L 316.11842 130.919615 
L 316.406847 133.206367 
L 316.695274 129.333802 
L 316.983701 127.37915 
L 317.560556 133.833344 
L 317.848983 135.566596 
L 318.13741 122.658208 
L 318.425838 127.010311 
L 318.714265 126.198915 
L 319.002692 130.292638 
L 319.291119 132.026131 
L 319.579547 129.62868 
L 320.156401 135.013338 
L 321.021683 139.771019 
L 321.598538 140.840555 
L 321.886965 141.762652 
L 322.175392 141.762652 
L 322.463819 142.426368 
L 322.752247 141.799391 
L 323.040674 142.389629 
L 323.329101 143.643584 
L 323.617529 142.721488 
L 323.905956 122.842627 
L 324.48281 134.460322 
L 325.636519 142.905907 
L 326.213374 145.635217 
L 326.501801 146.594052 
L 326.790228 144.159862 
L 327.367083 147.479169 
L 327.65551 145.708936 
L 327.943938 145.893356 
L 328.520792 148.401266 
L 328.809219 149.50754 
L 329.097647 149.655221 
L 329.674501 151.868011 
L 329.962928 152.384289 
L 331.116638 155.998715 
L 331.405065 155.408476 
L 332.270347 157.473828 
L 332.558774 156.920812 
L 333.135628 157.437089 
L 333.712483 159.207322 
L 334.00091 153.638244 
L 334.289337 152.34755 
L 334.577765 154.080802 
L 334.866192 142.942887 
L 335.154619 124.613101 
L 335.443047 125.055659 
L 335.731474 123.764724 
L 336.019901 118.785885 
L 336.308328 105.176799 
L 336.596756 117.23681 
L 337.17361 128.817524 
L 337.462037 130.292638 
L 337.750465 134.423341 
L 338.038892 135.529858 
L 338.615747 124.64984 
L 338.904174 121.183095 
L 339.192601 124.907979 
L 339.481028 126.457053 
L 340.057883 133.759383 
L 340.34631 135.898455 
L 340.634737 137.115671 
L 340.923165 135.898455 
L 341.211592 115.540297 
L 341.500019 125.129379 
L 341.788446 130.366357 
L 342.076874 121.957511 
L 342.365301 127.305189 
L 342.653728 127.010311 
L 343.230583 127.637289 
L 343.807437 132.800548 
L 344.095865 134.165203 
L 344.384292 136.304274 
L 344.672719 134.091483 
L 344.961146 136.857532 
L 345.249574 130.882635 
L 345.538001 135.271477 
L 346.114856 140.066139 
L 346.403283 140.582416 
L 346.69171 92.15771 
L 346.980137 92.784688 
L 347.268565 103.959583 
L 347.845419 115.245178 
L 348.133846 123.027046 
L 348.710701 132.026131 
L 348.999128 134.976599 
L 349.287555 136.451713 
L 349.575983 134.091483 
L 349.86441 135.013338 
L 350.152837 132.579389 
L 350.441265 133.243106 
L 350.729692 136.156835 
L 351.018119 132.911248 
L 351.306546 125.608676 
L 351.594974 129.66566 
L 351.883401 123.137746 
L 352.171828 123.211466 
L 352.460255 128.854263 
L 352.748683 130.919615 
L 353.03711 129.112402 
L 353.325537 132.653109 
L 353.613965 130.366357 
L 353.902392 131.731012 
L 354.479246 137.07869 
L 354.767674 132.28427 
L 355.056101 136.193574 
L 355.921383 142.758468 
L 356.786665 118.417046 
L 357.075092 125.793095 
L 357.651946 134.423341 
L 357.940374 124.76054 
L 358.517228 133.132406 
L 358.805655 135.898455 
L 359.094083 137.07869 
L 359.38251 132.616128 
L 359.670937 134.939619 
L 359.959364 133.648925 
L 360.247792 135.013338 
L 360.536219 126.088215 
L 360.824646 110.524477 
L 361.113074 121.736353 
L 361.401501 119.338901 
L 361.689928 111.077735 
L 361.978355 110.192619 
L 362.266783 118.417046 
L 363.132064 130.034499 
L 363.420492 119.449601 
L 363.708919 113.733084 
L 363.997346 121.109375 
L 364.285774 116.388433 
L 364.862628 125.240079 
L 365.439483 130.845896 
L 365.72791 131.804731 
L 366.016337 133.280086 
L 366.304764 134.165203 
L 366.593192 124.797279 
L 366.881619 106.357035 
L 367.170046 107.242151 
L 367.458473 111.667732 
L 367.746901 113.733084 
L 368.323755 114.876339 
L 368.612183 121.219833 
L 368.90061 122.953327 
L 369.189037 127.194731 
L 369.477464 117.19983 
L 369.765892 121.146114 
L 370.054319 122.289369 
L 370.342746 127.04705 
L 370.631173 122.842627 
L 370.919601 111.741452 
L 371.208028 117.863788 
L 371.496455 120.814256 
L 371.784883 118.859604 
L 372.07331 118.785885 
L 372.361737 121.146114 
L 372.650164 121.478214 
L 373.515446 130.624496 
L 374.092301 134.718461 
L 374.380728 114.69192 
L 374.957582 124.797279 
L 375.24601 123.174727 
L 375.822864 61.362094 
L 376.111292 54.391622 
L 376.399719 84.486542 
L 376.688146 84.9291 
L 377.265001 65.787917 
L 377.553428 75.561418 
L 377.841855 91.493994 
L 378.41871 106.283074 
L 378.707137 107.352609 
L 379.283992 96.583533 
L 379.860846 113.143087 
L 380.149273 118.195646 
L 380.437701 102.853308 
L 380.726128 102.26307 
L 381.014555 106.947032 
L 381.302982 79.618161 
L 381.59141 76.741412 
L 381.879837 91.973291 
L 382.456691 108.975403 
L 382.745119 113.733084 
L 383.033546 113.069368 
L 383.321973 114.028203 
L 383.610401 115.466578 
L 384.187255 122.990308 
L 384.475682 104.217722 
L 384.76411 113.770065 
L 385.052537 106.172615 
L 385.629391 113.733084 
L 385.917819 115.835416 
L 386.206246 91.235614 
L 386.494673 106.578193 
L 386.783101 111.667732 
L 387.071528 114.360062 
L 387.359955 114.987039 
L 387.648382 111.704713 
L 387.93681 92.15771 
L 388.225237 87.990268 
L 388.513664 96.325395 
L 388.802091 93.374927 
L 389.090519 60.735116 
L 389.378946 83.011187 
L 389.667373 88.543526 
L 389.9558 97.689808 
L 390.244228 83.380026 
L 390.532655 93.891204 
L 390.821082 48.011147 
L 391.10951 57.268371 
L 391.397937 76.446534 
L 391.686364 82.42119 
L 392.840073 116.351694 
L 393.1285 121.404253 
L 393.416928 121.183095 
L 393.705355 126.051234 
L 393.993782 128.448686 
L 394.570637 134.6445 
L 394.859064 137.004971 
L 395.147491 138.185206 
L 395.435919 134.7552 
L 395.724346 137.705668 
L 396.012773 138.111487 
L 396.3012 127.084031 
L 396.589628 63.611865 
L 396.878055 74.89746 
L 397.454909 108.754245 
L 397.743337 117.900768 
L 398.320191 127.747989 
L 398.608619 80.798396 
L 398.897046 90.903755 
L 399.185473 105.840515 
L 399.762328 119.007043 
L 400.339182 125.867056 
L 400.627609 127.969147 
L 400.916037 121.330533 
L 401.492891 130.440076 
L 402.6466 140.029158 
L 403.223455 143.016607 
L 403.511882 132.357989 
L 404.088737 140.656136 
L 404.954018 147.442188 
L 405.530873 149.802659 
L 405.8193 150.392656 
L 406.107728 147.737308 
L 406.396155 137.373809 
L 406.684582 135.603577 
L 406.973009 140.397997 
L 407.261437 142.942887 
L 407.549864 143.311726 
L 407.838291 145.081959 
L 408.126718 145.377078 
L 408.415146 147.368469 
L 408.703573 143.606604 
L 408.992 130.698457 
L 409.280428 127.969147 
L 409.568855 114.8396 
L 409.857282 126.383334 
L 410.145709 132.726828 
L 410.434137 99.828879 
L 410.722564 87.400029 
L 411.010991 104.80796 
L 411.299418 102.521209 
L 411.587846 109.233542 
L 411.876273 110.229358 
L 412.453128 96.767953 
L 412.741555 103.037728 
L 413.029982 100.824695 
L 413.318409 108.717264 
L 413.606837 111.778432 
L 414.183691 121.736353 
L 414.472118 125.276818 
L 414.760546 112.33169 
L 415.048973 118.195646 
L 415.3374 100.160979 
L 415.625827 112.036571 
L 415.914255 118.453785 
L 416.202682 115.208439 
L 416.491109 120.777275 
L 416.779537 123.986124 
L 417.067964 124.72356 
L 417.356391 117.642388 
L 417.644818 117.273791 
L 417.933246 119.302162 
L 418.221673 123.211466 
L 418.5101 125.313798 
L 418.798527 125.940776 
L 419.375382 105.508657 
L 419.663809 112.589829 
L 419.952237 83.859564 
L 420.240664 87.43701 
L 420.529091 100.345398 
L 420.817518 97.726789 
L 421.105946 110.487497 
L 421.6828 124.133563 
L 422.259655 132.689848 
L 422.836509 117.605649 
L 423.124936 125.276818 
L 423.990218 137.30009 
L 424.567073 142.647768 
L 425.432355 148.511724 
L 426.009209 150.724756 
L 426.297636 148.991263 
L 427.162918 154.302202 
L 427.451346 155.334757 
L 428.0282 144.750101 
L 428.316627 146.262194 
L 428.605055 149.175682 
L 428.893482 147.184049 
L 429.181909 141.467533 
L 429.470336 142.131491 
L 429.758764 134.165203 
L 430.047191 113.991223 
L 430.335618 123.801704 
L 430.624045 59.518142 
L 430.912473 62.616049 
L 431.489327 104.365402 
L 431.777755 110.524477 
L 432.066182 100.419118 
L 432.643036 122.289369 
L 432.931464 128.927983 
L 433.219891 132.06287 
L 433.508318 126.678211 
L 433.796745 127.637289 
L 434.085173 127.010311 
L 434.662027 64.644662 
L 434.950455 72.905828 
L 435.238882 91.014455 
L 435.527309 92.37911 
L 435.815736 101.304234 
L 436.104164 79.101883 
L 436.392591 75.598157 
L 436.681018 87.21561 
L 436.969445 88.248407 
L 437.5463 106.061915 
L 438.123154 88.912123 
L 438.411582 87.400029 
L 438.700009 76.483273 
L 438.988436 78.806764 
L 439.276864 84.449561 
L 439.565291 80.613977 
L 439.853718 85.666777 
L 440.142145 77.700489 
L 441.007427 104.88168 
L 441.584282 112.663548 
L 441.872709 112.552848 
L 442.737991 127.34217 
L 443.026418 129.260083 
L 443.314845 130.329618 
L 443.603273 126.752173 
L 443.8917 119.70774 
L 444.180127 126.788911 
L 444.468554 130.108218 
L 444.756982 134.828919 
L 445.045409 53.469525 
L 445.333836 26.692946 
L 445.622263 76.151415 
L 446.199118 109.270522 
L 446.487545 106.320054 
L 446.775973 111.335874 
L 447.0644 119.70774 
L 447.352827 117.826807 
L 447.929682 130.071479 
L 448.506536 137.373809 
L 448.794963 135.345438 
L 449.083391 139.144042 
L 449.371818 141.393813 
L 449.660245 140.029158 
L 449.948673 142.942887 
L 450.2371 116.351694 
L 450.525527 127.305189 
L 451.102382 137.30009 
L 451.390809 140.951255 
L 451.679236 127.34217 
L 451.967663 124.354721 
L 452.544518 133.648925 
L 453.121372 141.283113 
L 453.4098 141.762652 
L 453.698227 143.569865 
L 453.986654 143.569865 
L 454.275082 128.337986 
L 454.563509 127.637289 
L 454.851936 133.280086 
L 455.140363 136.488693 
L 455.428791 129.73938 
L 455.717218 130.624496 
L 456.005645 113.143087 
L 456.294072 105.361218 
L 456.5825 110.155638 
L 456.870927 121.736353 
L 457.447782 132.911248 
L 458.024636 137.963806 
L 458.601491 122.21565 
L 458.889918 117.494949 
L 459.178345 124.76054 
L 459.466772 128.448686 
L 459.7552 114.249362 
L 460.043627 76.999792 
L 460.332054 99.534002 
L 460.620481 96.841672 
L 461.197336 117.01541 
L 461.774191 126.494034 
L 462.062618 125.276818 
L 462.351045 128.264266 
L 462.639472 129.444502 
L 463.216327 107.795167 
L 463.504754 118.453785 
L 463.793181 120.150298 
L 464.081609 107.352609 
L 464.370036 101.046095 
L 464.658463 102.890047 
L 465.235318 119.375881 
L 465.523745 124.096582 
L 465.812172 122.068211 
L 466.677454 129.702641 
L 466.965881 127.858447 
L 468.11959 136.193574 
L 468.408018 96.325395 
L 468.696445 105.176799 
L 468.984872 89.83422 
L 469.561727 111.298893 
L 470.138581 122.400069 
L 470.715436 128.891244 
L 471.29229 133.833344 
L 471.580718 135.566596 
L 471.869145 122.105191 
L 472.157572 127.34217 
L 472.446 118.343326 
L 473.311281 130.919615 
L 473.888136 135.935435 
L 474.46499 138.590784 
L 474.753418 122.879608 
L 475.330272 102.816328 
L 475.6187 111.446574 
L 475.907127 107.832148 
L 476.195554 102.26307 
L 476.483981 110.745635 
L 476.772409 113.401226 
L 477.060836 113.474945 
L 477.63769 122.36333 
L 478.214545 127.637289 
L 478.502972 119.671001 
L 478.791399 102.521209 
L 479.079827 63.464426 
L 479.656681 98.390747 
L 480.233536 117.273791 
L 480.81039 126.494034 
L 481.387245 132.06287 
L 481.675672 128.559144 
L 481.964099 120.187278 
L 482.252527 120.851236 
L 482.540954 97.17353 
L 482.829381 93.374927 
L 483.117809 67.521169 
L 483.406236 71.467453 
L 483.694663 84.486542 
L 484.271518 99.86586 
L 484.559945 91.493994 
L 484.848372 94.88702 
L 485.425227 81.462354 
L 485.713654 93.079807 
L 486.002081 82.052351 
L 486.290508 90.092359 
L 486.578936 90.682597 
L 486.867363 85.002819 
L 487.15579 87.36329 
L 487.444218 93.300966 
L 487.732645 103.074467 
L 488.309499 111.704713 
L 488.597927 108.717264 
L 488.886354 112.589829 
L 489.174781 114.9503 
L 489.751636 121.441233 
L 490.040063 107.50029 
L 490.32849 104.254702 
L 490.616918 110.229358 
L 490.905345 106.024935 
L 491.193772 113.954484 
L 491.482199 115.798436 
L 491.770627 120.03984 
L 492.059054 95.07144 
L 492.635908 111.262155 
L 492.924336 103.406325 
L 493.212763 109.049122 
L 493.50119 92.45283 
L 493.789617 87.47399 
L 494.078045 101.894231 
L 494.943327 119.007043 
L 495.231754 117.089371 
L 495.520181 118.785885 
L 495.808608 117.19983 
L 496.097036 101.009115 
L 496.385463 103.959583 
L 496.67389 111.077735 
L 496.962317 108.274706 
L 497.250745 113.696345 
L 498.116027 123.211466 
L 498.404454 119.338901 
L 499.269736 88.063987 
L 499.558163 88.506545 
L 499.84659 102.816328 
L 500.135017 108.090287 
L 500.423445 105.693077 
L 500.711872 105.951215 
L 501.000299 102.152612 
L 501.288726 105.766796 
L 501.577154 105.951215 
L 501.865581 112.29471 
L 502.442436 117.605649 
L 502.730863 92.45283 
L 503.01929 104.844699 
L 503.307717 98.648885 
L 503.596145 106.947032 
L 503.884572 104.033302 
L 504.172999 79.765841 
L 504.749854 103.701444 
L 505.038281 80.208399 
L 505.326708 35.065536 
L 505.615136 69.291643 
L 505.903563 90.05562 
L 506.19199 101.968192 
L 506.480417 71.725834 
L 506.768845 91.235614 
L 507.057272 98.206327 
L 507.345699 94.813301 
L 507.634126 93.374927 
L 507.922554 98.058647 
L 508.210981 65.419078 
L 508.499408 86.220035 
L 508.787835 85.887936 
L 509.076263 98.538185 
L 509.36469 95.698417 
L 509.653117 103.037728 
L 509.941545 87.695149 
L 510.229972 98.021908 
L 510.806826 107.869128 
L 511.095254 103.480286 
L 511.383681 104.549822 
L 511.960535 114.6182 
L 512.248963 118.453785 
L 512.53739 115.503317 
L 513.402672 124.72356 
L 513.691099 126.457053 
L 513.979526 124.907979 
L 514.267954 106.320054 
L 514.556381 107.795167 
L 514.844808 113.401226 
L 515.133235 106.393773 
L 515.421663 109.565641 
L 515.71009 114.323323 
L 515.998517 107.647728 
L 516.286944 110.561458 
L 516.575372 92.415849 
L 516.863799 102.742608 
L 517.152226 108.901683 
L 517.440654 112.257971 
L 517.729081 88.248407 
L 518.305935 105.656096 
L 518.594363 95.366317 
L 518.88279 105.213538 
L 519.171217 106.651912 
L 519.459644 109.82378 
L 519.748072 103.000747 
L 520.036499 101.046095 
L 520.324926 104.254702 
L 520.613354 97.726789 
L 521.190208 107.832148 
L 521.478635 110.819596 
L 521.767063 105.434938 
L 522.05549 111.114474 
L 522.632344 98.980744 
L 522.920772 95.698417 
L 523.209199 97.726789 
L 523.497626 104.58656 
L 523.786053 105.361218 
L 524.074481 94.444462 
L 524.651335 86.441194 
L 524.939763 97.542369 
L 525.22819 101.304234 
L 525.516617 91.567714 
L 525.805044 100.345398 
L 526.093472 105.471677 
L 526.381899 102.30005 
L 526.670326 95.440278 
L 527.247181 105.988196 
L 527.535608 99.497021 
L 527.824035 87.990268 
L 528.112463 98.648885 
L 528.40089 98.353766 
L 528.689317 52.879528 
L 528.977744 76.741412 
L 529.266172 85.408639 
L 529.554599 90.424459 
L 529.843026 99.497021 
L 530.131453 101.673073 
L 530.419881 95.661437 
L 530.708308 93.669804 
L 530.996735 89.428642 
L 531.285163 99.828879 
L 531.862017 109.049122 
L 532.150444 106.357035 
L 532.438872 105.877496 
L 532.727299 104.476102 
L 533.304153 112.29471 
L 533.592581 110.561458 
L 533.881008 110.598197 
L 534.457862 106.615173 
L 535.034717 113.216806 
L 535.323144 112.958668 
L 535.611572 110.487497 
L 536.188426 117.790068 
L 536.476853 120.150298 
L 537.342135 124.096582 
L 537.630562 124.613101 
L 537.91899 125.830076 
L 538.207417 125.018679 
L 538.495844 121.441233 
L 538.784272 124.981698 
L 539.072699 124.022863 
L 539.361126 125.977515 
L 539.649553 115.835416 
L 539.937981 95.661437 
L 540.226408 90.608878 
L 540.514835 104.623541 
L 540.803262 108.127267 
L 541.09169 109.639361 
L 541.380117 106.357035 
L 541.956971 116.130294 
L 542.245399 117.605649 
L 542.533826 115.872155 
L 542.822253 108.348425 
L 543.110681 88.322126 
L 543.687535 107.20517 
L 544.26439 117.01541 
L 544.552817 113.991223 
L 544.841244 112.257971 
L 545.129671 114.064942 
L 545.418099 112.22099 
L 545.706526 115.540297 
L 545.994953 116.056575 
L 546.283381 112.810987 
L 546.571808 108.164006 
L 546.860235 99.238882 
L 547.148662 94.591901 
L 547.43709 103.148186 
L 547.725517 90.05562 
L 548.590799 110.266338 
L 549.45608 118.195646 
L 549.744508 112.589829 
L 550.032935 101.377954 
L 550.321362 95.956556 
L 550.60979 104.844699 
L 551.186644 114.028203 
L 551.475071 112.774248 
L 551.763499 103.074467 
L 552.051926 107.758428 
L 552.62878 83.564445 
L 552.917208 70.840476 
L 553.494062 98.390747 
L 554.070917 110.745635 
L 554.647771 117.605649 
L 555.224626 113.696345 
L 555.513053 79.986999 
L 555.80148 94.223062 
L 556.089908 71.393734 
L 556.378335 89.465381 
L 556.955189 104.80796 
L 557.243617 107.20517 
L 557.532044 103.996563 
L 557.820471 107.50029 
L 558.108899 106.541212 
L 558.397326 71.467453 
L 559.262608 99.238882 
L 559.551035 105.766796 
L 559.839462 100.750976 
L 560.416317 106.873312 
L 560.993171 114.138903 
L 561.281599 116.794252 
L 561.570026 118.195646 
L 561.858453 120.260998 
L 562.435308 122.990308 
L 562.723735 124.64984 
L 563.012162 97.689808 
L 563.300589 102.779589 
L 563.589017 96.288414 
L 563.877444 80.613977 
L 564.165871 95.993295 
L 564.454298 100.123999 
L 564.742726 99.534002 
L 565.31958 56.641393 
L 565.608008 43.21576 
L 565.896435 69.99234 
L 566.184862 78.216767 
L 566.473289 75.229318 
L 566.761717 84.744681 
L 567.626998 92.747949 
L 567.915426 98.907024 
L 568.203853 98.907024 
L 568.49228 103.074467 
L 568.780708 104.623541 
L 569.357562 111.298893 
L 569.645989 110.561458 
L 570.222844 115.982855 
L 570.511271 117.31053 
L 570.799698 109.971219 
L 571.088126 114.323323 
L 571.376553 115.503317 
L 571.66498 119.044023 
L 571.953407 121.072395 
L 572.241835 121.736353 
L 572.530262 87.621429 
L 572.818689 104.033302 
L 573.107117 110.487497 
L 573.395544 111.335874 
L 573.972398 120.224259 
L 574.549253 124.281001 
L 574.83768 124.354721 
L 575.414535 127.637289 
L 575.702962 128.891244 
L 575.991389 129.149383 
L 576.568244 105.471677 
L 577.145098 117.23681 
L 577.433526 116.056575 
L 578.01038 120.814256 
L 578.587235 124.64984 
L 578.875662 119.965878 
L 579.164089 105.471677 
L 579.452516 112.51611 
L 579.740944 97.431669 
L 580.029371 98.611905 
L 580.317798 102.41075 
L 580.606226 107.758428 
L 580.894653 58.153487 
L 581.18308 71.172576 
L 581.471507 69.660482 
L 581.759935 82.64259 
L 582.048362 86.478174 
L 582.336789 80.872116 
L 582.625216 92.45283 
L 583.202071 104.77098 
L 583.778926 104.91866 
L 584.067353 104.58656 
L 584.35578 100.419118 
L 584.644207 98.390747 
L 584.932635 101.341215 
L 585.221062 97.431669 
L 585.509489 101.894231 
L 585.797916 102.07865 
L 586.086344 104.291683 
L 586.374771 90.977475 
L 586.663198 100.750976 
L 587.240053 108.422145 
L 587.816907 89.244223 
L 588.105335 98.353766 
L 588.393762 101.857492 
L 588.682189 95.993295 
L 588.970616 99.939579 
L 589.259044 95.403298 
L 589.547471 99.828879 
L 589.835898 99.128182 
L 590.124325 100.160979 
L 590.412753 91.678413 
L 590.70118 102.816328 
L 590.989607 108.164006 
L 591.566462 92.37911 
L 591.854889 69.918621 
L 592.143316 88.359107 
L 592.431744 95.735156 
L 592.720171 60.0714 
L 593.008598 86.478174 
L 593.297025 96.989111 
L 593.585453 93.374927 
L 593.87388 103.037728 
L 594.450735 112.22099 
L 594.739162 113.991223 
L 595.027589 114.286342 
L 595.316016 106.615173 
L 595.604444 110.524477 
L 595.892871 98.943763 
L 596.181298 104.844699 
L 596.469725 106.615173 
L 596.758153 112.700529 
L 597.335007 116.462394 
L 597.623434 110.745635 
L 597.911862 107.795167 
L 598.488716 116.425413 
L 599.065571 121.773091 
L 599.353998 121.441233 
L 599.642425 123.580305 
L 599.930853 119.080762 
L 600.21928 109.93448 
L 600.507707 112.29471 
L 600.796134 111.077735 
L 601.372989 119.412862 
L 601.949844 124.428682 
L 602.238271 126.198915 
L 602.526698 118.417046 
L 602.815125 121.146114 
L 603.103553 121.773091 
L 603.39198 122.916347 
L 603.680407 125.498218 
L 603.968834 118.453785 
L 604.257262 114.7289 
L 604.545689 115.872155 
L 604.834116 103.664705 
L 605.122543 106.615173 
L 605.699398 117.01541 
L 605.987825 118.195646 
L 606.56468 79.101883 
L 606.853107 98.132366 
L 607.141534 106.762612 
L 608.006816 119.080762 
L 608.295243 110.782616 
L 608.583671 116.904952 
L 609.160525 122.54775 
L 609.73738 126.494034 
L 610.314234 129.149383 
L 610.602662 129.112402 
L 610.891089 124.94496 
L 611.179516 127.858447 
L 611.467943 128.227286 
L 611.756371 129.038683 
L 612.044798 131.177754 
L 612.333225 131.104034 
L 612.91008 131.841712 
L 613.198507 123.285185 
L 613.486934 73.274666 
L 613.775362 91.235614 
L 614.063789 101.525634 
L 614.352216 102.48447 
L 614.640643 92.489569 
L 614.929071 104.623541 
L 615.217498 107.463309 
L 615.505925 112.257971 
L 615.794352 111.667732 
L 616.08278 89.465381 
L 616.371207 91.862591 
L 616.659634 100.123999 
L 616.948062 90.350497 
L 617.236489 96.251434 
L 617.524916 93.559346 
L 617.813343 77.073512 
L 618.101771 86.514913 
L 618.390198 75.00816 
L 618.678625 75.266299 
L 619.543907 98.280047 
L 619.832334 103.111447 
L 620.120761 71.172576 
L 620.409189 85.961655 
L 621.274471 106.320054 
L 621.562898 110.819596 
L 621.851325 113.474945 
L 622.42818 116.019836 
L 622.716607 119.597281 
L 623.005034 121.183095 
L 623.293461 120.851236 
L 623.870316 125.571937 
L 624.447171 128.485425 
L 624.735598 129.112402 
L 625.312452 132.099851 
L 626.177734 135.308458 
L 626.466161 134.054503 
L 626.754589 134.460322 
L 627.043016 135.197758 
L 627.331443 134.68148 
L 627.61987 136.119854 
L 627.908298 132.28427 
L 628.485152 135.861716 
L 628.77358 136.673113 
L 629.062007 135.566596 
L 630.215716 140.102878 
L 630.504143 140.951255 
L 630.79257 140.877536 
L 631.080998 142.463349 
L 631.657852 143.569865 
L 632.811561 146.188233 
L 633.099989 145.561256 
L 633.388416 142.684749 
L 633.676843 142.09451 
L 633.96527 139.439161 
L 634.542125 141.836371 
L 634.830552 142.463349 
L 635.118979 138.554045 
L 635.407407 136.820551 
L 635.695834 138.000787 
L 635.984261 140.066139 
L 636.272689 137.890087 
L 636.849543 131.804731 
L 637.13797 134.68148 
L 637.426398 130.698457 
L 637.714825 133.722644 
L 638.003252 134.7552 
L 638.291679 136.857532 
L 638.580107 112.589829 
L 639.156961 122.400069 
L 639.445389 115.872155 
L 639.733816 114.91332 
L 640.31067 122.43705 
L 641.175952 128.817524 
L 642.041234 133.058686 
L 642.329661 134.128222 
L 642.618088 134.165203 
L 642.906516 133.796364 
L 643.48337 136.709851 
L 644.060225 137.927068 
L 644.348652 139.4759 
L 645.213934 141.799391 
L 645.502361 142.31591 
L 645.790788 143.274746 
L 646.079216 143.053346 
L 646.367643 141.283113 
L 646.65607 140.397997 
L 646.944498 126.752173 
L 647.232925 119.892159 
L 647.521352 127.563569 
L 648.098207 134.054503 
L 648.386634 136.746832 
L 648.675061 137.07869 
L 648.963488 138.295906 
L 649.251916 134.128222 
L 649.82877 137.668929 
L 650.117198 124.686821 
L 650.405625 127.674028 
L 650.694052 129.112402 
L 650.982479 132.579389 
L 651.270907 132.13659 
L 651.847761 135.898455 
L 652.136188 133.501245 
L 652.424616 128.891244 
L 653.00147 134.423341 
L 653.578325 137.705668 
L 653.866752 139.144042 
L 654.443607 140.324278 
L 655.020461 140.619397 
L 655.885743 143.864743 
L 656.17417 143.901723 
L 656.462597 145.081959 
L 656.751025 145.671956 
L 657.039452 146.594052 
L 657.327879 144.123123 
L 657.904734 143.791023 
L 658.481588 145.671956 
L 658.770016 140.324278 
L 659.058443 141.172413 
L 659.635297 143.828004 
L 659.923725 145.081959 
L 660.212152 145.598236 
L 660.500579 147.11033 
L 661.077434 148.327546 
L 661.654288 148.917543 
L 661.942716 149.249401 
L 662.51957 150.134518 
L 662.807997 149.83964 
L 663.096425 146.99963 
L 663.384852 147.737308 
L 663.673279 147.774288 
L 663.961706 148.622424 
L 664.250134 143.053346 
L 664.538561 104.80796 
L 664.826988 118.490765 
L 665.403843 126.088215 
L 665.69227 109.381222 
L 665.980697 103.332605 
L 666.269125 94.66562 
L 666.557552 96.583533 
L 666.845979 106.098654 
L 667.134406 105.434938 
L 667.422834 111.188435 
L 667.711261 112.073551 
L 667.999688 107.31587 
L 668.288115 112.368429 
L 668.576543 114.175642 
L 668.86497 101.230515 
L 669.153397 110.487497 
L 669.441825 111.704713 
L 669.730252 116.351694 
L 670.018679 117.273791 
L 670.307106 117.052391 
L 670.595534 83.011187 
L 670.883961 101.894231 
L 671.172388 110.487497 
L 671.460815 114.876339 
L 671.749243 112.51611 
L 672.326097 118.158907 
L 673.191379 125.534956 
L 673.479806 110.487497 
L 673.768234 111.925871 
L 674.056661 110.303077 
L 674.345088 112.552848 
L 674.633515 118.822623 
L 674.921943 106.947032 
L 675.21037 114.323323 
L 675.498797 114.6182 
L 675.787224 118.859604 
L 676.075652 115.798436 
L 676.364079 120.519137 
L 676.940934 125.092398 
L 677.229361 124.72356 
L 677.517788 106.578193 
L 677.806215 115.282158 
L 678.38307 123.211466 
L 678.671497 120.556117 
L 678.959924 123.469605 
L 679.248352 124.686821 
L 679.536779 124.391701 
L 679.825206 121.183095 
L 680.113634 125.756356 
L 680.402061 122.953327 
L 680.978915 128.264266 
L 681.267343 126.161934 
L 681.55577 128.227286 
L 681.844197 128.522405 
L 682.132624 126.125195 
L 682.421052 126.088215 
L 682.709479 127.415889 
L 682.997906 121.736353 
L 683.286333 124.686821 
L 683.574761 121.736353 
L 683.863188 98.021908 
L 684.151615 104.291683 
L 684.440043 105.434938 
L 684.72847 110.819596 
L 685.016897 107.50029 
L 685.305324 110.266338 
L 685.593752 111.704713 
L 685.882179 85.961655 
L 686.170606 100.787957 
L 686.459033 102.152612 
L 686.747461 105.803777 
L 687.035888 112.29471 
L 687.324315 110.708897 
L 687.612743 104.91866 
L 687.90117 111.114474 
L 688.189597 96.251434 
L 688.478024 89.83422 
L 688.766452 73.827924 
L 689.631733 104.844699 
L 689.920161 90.313759 
L 690.497015 104.217722 
L 690.785442 104.328422 
L 691.07387 108.717264 
L 691.362297 110.782616 
L 691.939152 116.978671 
L 692.227579 114.286342 
L 692.516006 114.9503 
L 692.804433 117.900768 
L 693.092861 119.080762 
L 693.381288 121.846811 
L 693.669715 123.506585 
L 693.958142 115.245178 
L 694.24657 113.585645 
L 694.534997 117.568668 
L 694.823424 117.753088 
L 695.111852 119.080762 
L 695.400279 111.372613 
L 695.977133 120.814256 
L 696.265561 118.453785 
L 696.553988 118.748904 
L 696.842415 114.581461 
L 697.130842 105.176799 
L 697.41927 114.397042 
L 697.707697 118.748904 
L 697.996124 120.777275 
L 698.284551 106.357035 
L 698.861406 117.01541 
L 699.149833 117.863788 
L 700.015115 105.176799 
L 700.880397 116.978671 
L 701.168824 120.519137 
L 701.457251 114.6182 
L 702.034106 119.412862 
L 702.322533 78.290486 
L 702.610961 97.136792 
L 703.187815 109.639361 
L 703.476242 111.483313 
L 703.76467 96.804692 
L 704.053097 98.353766 
L 704.629951 99.312602 
L 704.918379 107.16819 
L 705.783661 117.605649 
L 706.072088 115.245178 
L 706.360515 106.873312 
L 706.648942 111.335874 
L 706.93737 106.688893 
L 707.225797 113.143087 
L 707.514224 113.143087 
L 707.802651 106.098654 
L 708.379506 116.941691 
L 708.667933 116.425413 
L 708.95636 120.260998 
L 709.244788 122.36333 
L 709.533215 119.412862 
L 709.821642 122.03123 
L 710.398497 124.686821 
L 710.686924 89.7605 
L 710.975351 99.97656 
L 711.263779 105.766796 
L 711.552206 105.988196 
L 712.12906 116.425413 
L 712.417488 103.443305 
L 712.705915 98.685624 
L 712.994342 107.574009 
L 713.28277 102.816328 
L 714.148051 115.503317 
L 714.436479 109.307503 
L 714.724906 115.503317 
L 715.30176 121.920772 
L 715.590188 123.506585 
L 715.878615 122.990308 
L 716.167042 123.838443 
L 716.743897 127.305189 
L 717.032324 127.37915 
L 717.320751 127.637289 
L 717.897606 131.251473 
L 718.47446 133.870083 
L 718.762888 134.128222 
L 719.051315 135.308458 
L 719.339742 132.357989 
L 719.916597 119.412862 
L 720.205024 124.94496 
L 721.070306 132.17357 
L 721.358733 133.501245 
L 721.64716 133.759383 
L 721.935588 135.013338 
L 722.224015 133.501245 
L 722.800869 136.267293 
L 723.089297 136.820551 
L 723.666151 138.812184 
L 723.954578 139.771019 
L 724.243006 139.144042 
L 724.81986 141.209394 
L 725.108288 141.209394 
L 725.685142 142.352649 
L 726.261997 125.793095 
L 726.550424 123.359146 
L 726.838851 127.711008 
L 727.127278 130.292638 
L 727.415706 129.702641 
L 727.704133 129.702641 
L 727.99256 132.39497 
L 728.280988 129.260083 
L 728.569415 132.099851 
L 729.146269 134.976599 
L 729.434697 134.460322 
L 730.011551 129.112402 
L 730.299978 108.422145 
L 730.588406 112.33169 
L 730.876833 121.330533 
L 731.16526 99.534002 
L 731.453687 111.667732 
L 732.030542 122.03123 
L 732.318969 119.338901 
L 732.895824 126.752173 
L 733.184251 126.752173 
L 733.472678 127.674028 
L 733.761106 129.923799 
L 734.049533 130.550776 
L 734.33796 132.17357 
L 734.626387 122.068211 
L 734.914815 98.058647 
L 735.203242 111.99959 
L 735.491669 110.487497 
L 736.068524 101.562373 
L 736.356951 111.114474 
L 736.645378 110.155638 
L 737.222233 120.187278 
L 737.51066 115.540297 
L 737.799087 103.701444 
L 738.087515 113.659365 
L 738.375942 114.6182 
L 738.664369 118.970304 
L 738.952796 105.397957 
L 739.241224 114.91332 
L 739.529651 119.375881 
L 739.818078 109.93448 
L 740.106506 114.9503 
L 740.394933 114.80262 
L 740.68336 112.552848 
L 741.260215 62.57931 
L 741.837069 101.009115 
L 742.125496 105.766796 
L 742.702351 118.822623 
L 742.990778 119.007043 
L 743.279206 115.503317 
L 743.567633 119.965878 
L 743.85606 119.965878 
L 744.144487 121.478214 
L 744.432915 122.36333 
L 745.586624 130.919615 
L 745.875051 128.780544 
L 746.163478 129.223102 
L 746.451905 129.149383 
L 747.02876 133.833344 
L 747.317187 132.099851 
L 747.605615 124.94496 
L 748.182469 129.186121 
L 748.470896 124.981698 
L 748.759324 127.600308 
L 749.047751 116.683552 
L 749.336178 123.211466 
L 749.624605 119.117743 
L 749.913033 123.801704 
L 750.20146 122.658208 
L 750.489887 126.752173 
L 751.066742 130.919615 
L 751.643596 118.417046 
L 751.932024 104.58656 
L 752.508878 119.597281 
L 752.797305 123.174727 
L 753.085733 122.621469 
L 753.37416 121.146114 
L 753.951014 125.940776 
L 754.239442 129.149383 
L 754.527869 128.854263 
L 754.816296 126.788911 
L 755.393151 131.141015 
L 755.970005 128.559144 
L 756.258433 125.276818 
L 756.54686 115.208439 
L 756.835287 122.400069 
L 757.123714 126.715192 
L 757.412142 123.432866 
L 757.700569 127.895428 
L 757.988996 124.686821 
L 758.277424 127.711008 
L 758.565851 125.276818 
L 759.142705 117.900768 
L 759.431133 119.117743 
L 759.71956 112.33169 
L 760.296414 122.621469 
L 760.873269 126.530773 
L 761.161696 125.830076 
L 762.026978 131.472873 
L 762.315405 125.350537 
L 762.603833 93.300966 
L 762.89226 80.613977 
L 763.180687 85.297939 
L 763.469114 82.937467 
L 763.757542 99.017724 
L 764.045969 101.009115 
L 764.622823 111.262155 
L 764.911251 110.782616 
L 765.199678 111.409593 
L 765.488105 103.000747 
L 765.776533 90.534917 
L 766.06496 102.226331 
L 766.353387 106.024935 
L 766.641814 112.29471 
L 766.930242 111.667732 
L 767.218669 114.9503 
L 767.795523 109.93448 
L 768.083951 93.042827 
L 768.372378 68.480246 
L 768.660805 87.621429 
L 768.949233 86.183055 
L 769.526087 107.16819 
L 769.814514 107.869128 
L 770.102942 105.10308 
L 770.391369 108.827964 
L 770.679796 114.286342 
L 771.256651 119.375881 
L 771.545078 112.29471 
L 772.121932 114.91332 
L 772.41036 120.224259 
L 772.698787 122.068211 
L 772.987214 122.289369 
L 773.275642 123.764724 
L 773.852496 129.149383 
L 774.140923 129.112402 
L 774.429351 131.731012 
L 774.717778 131.878451 
L 775.006205 133.464506 
L 775.294632 133.759383 
L 775.58306 124.72356 
L 775.871487 119.671001 
L 776.736769 130.034499 
L 777.025196 131.251473 
L 777.313623 132.984967 
L 777.602051 118.453785 
L 777.890478 111.99959 
L 778.178905 114.544481 
L 778.75576 123.506585 
L 779.044187 122.916347 
L 779.332614 127.084031 
L 779.621041 129.186121 
L 779.909469 129.481241 
L 780.197896 127.637289 
L 780.486323 127.932166 
L 780.774751 128.522405 
L 781.063178 128.817524 
L 781.351605 131.804731 
L 781.640032 133.538225 
L 781.92846 134.091483 
L 782.216887 135.898455 
L 782.505314 136.119854 
L 782.793741 127.010311 
L 783.082169 131.767993 
L 783.659023 136.488693 
L 783.947451 137.373809 
L 784.235878 123.617285 
L 784.524305 129.77636 
L 784.812732 128.485425 
L 785.10116 132.653109 
L 785.389587 133.833344 
L 785.678014 130.071479 
L 785.966441 133.538225 
L 786.254869 135.640316 
L 786.543296 136.746832 
L 786.831723 138.664745 
L 787.12015 135.529858 
L 787.408578 135.492877 
L 787.697005 135.640316 
L 788.27386 136.746832 
L 788.562287 130.882635 
L 788.850714 115.798436 
L 789.139141 125.534956 
L 789.427569 130.108218 
L 789.715996 120.187278 
L 790.004423 120.814256 
L 790.29285 119.044023 
L 790.581278 113.770065 
L 790.869705 121.773091 
L 791.158132 125.276818 
L 791.44656 127.34217 
L 791.734987 127.194731 
L 792.023414 130.661476 
L 792.600269 134.312641 
L 792.888696 134.017522 
L 793.177123 124.72356 
L 793.46555 107.20517 
L 793.753978 119.338901 
L 794.330832 128.669844 
L 794.907687 133.796364 
L 795.196114 130.255657 
L 795.484541 134.165203 
L 795.772969 119.92914 
L 796.061396 127.637289 
L 796.63825 134.128222 
L 797.215105 126.530773 
L 797.503532 126.715192 
L 797.791959 131.214734 
L 798.368814 135.308458 
L 799.522523 139.181023 
L 799.81095 140.619397 
L 800.099378 141.246374 
L 800.387805 142.500329 
L 800.676232 142.758468 
L 800.964659 135.861716 
L 801.829941 141.836371 
L 802.406796 143.901723 
L 803.272078 146.520333 
L 803.560505 141.504513 
L 803.848932 143.606604 
L 804.137359 144.71312 
L 804.425787 145.044978 
L 804.714214 145.708936 
L 805.002641 147.184049 
L 805.579496 148.585685 
L 806.15635 149.581501 
L 806.444778 148.659404 
L 806.733205 148.327546 
L 807.021632 147.258011 
L 807.310059 148.032427 
L 807.886914 150.134518 
L 809.040623 152.494989 
L 809.32905 152.199869 
L 811.351061 156.293834 
L 811.924896 156.883831 
L 812.49873 155.998715 
L 813.367032 157.879647 
L 813.653949 158.137786 
L 813.940866 158.801744 
L 814.809168 159.53918 
L 815.096086 155.740576 
L 815.964388 158.727783 
L 816.251305 157.215689 
L 816.538222 150.024059 
L 816.825139 151.278014 
L 817.119607 153.675224 
L 817.406524 153.896382 
L 817.693441 155.076618 
L 817.980358 155.703596 
L 818.267275 147.995446 
L 818.561743 150.466617 
L 819.135577 152.753127 
L 819.422495 154.228482 
L 820.003879 156.072434 
L 820.577714 156.330573 
L 821.151548 158.137786 
L 821.446016 158.395925 
L 822.01985 159.64988 
L 822.306767 159.87128 
L 822.888152 161.383374 
L 823.175069 161.641512 
L 823.461986 159.281041 
L 823.748904 143.311726 
L 824.035821 148.548704 
L 824.330288 151.314753 
L 824.617206 152.12615 
L 825.19104 155.482437 
L 825.477957 154.818479 
L 825.772425 154.892199 
L 826.059342 155.998715 
L 826.346259 146.741491 
L 826.920093 149.876379 
L 827.214561 138.590784 
L 827.501478 141.98381 
L 827.788395 142.426368 
L 828.075313 135.345438 
L 828.36223 137.631948 
L 828.656697 136.820551 
L 828.943615 134.68148 
L 829.230532 136.451713 
L 829.517449 139.844739 
L 829.804366 137.927068 
L 830.098834 141.320094 
L 830.385751 143.127307 
L 830.672668 144.196842 
L 830.959585 144.786839 
L 832.114805 149.212662 
L 832.688639 149.175682 
L 832.983106 150.982895 
L 833.843858 153.675224 
L 834.130775 154.302202 
L 834.425243 154.560341 
L 834.999077 156.330573 
L 835.285994 156.625692 
L 835.867379 127.415889 
L 836.154296 112.589829 
L 836.441214 124.133563 
L 836.728131 127.600308 
L 837.015048 128.227286 
L 837.309516 133.722644 
L 837.88335 77.073512 
L 838.170267 98.611905 
L 838.751652 119.117743 
L 840.193788 134.939619 
L 840.480705 126.125195 
L 841.05454 134.054503 
L 841.922842 141.283113 
L 842.496676 143.643584 
L 842.783593 139.181023 
L 843.078061 141.578233 
L 843.364978 126.125195 
L 843.651895 127.489608 
L 843.938812 133.538225 
L 844.22573 137.07869 
L 844.520197 130.624496 
L 844.807114 127.563569 
L 845.094032 133.538225 
L 846.249251 141.283113 
L 846.536168 142.684749 
L 846.823085 136.230554 
L 847.110002 136.193574 
L 847.40447 140.361258 
L 847.978304 143.606604 
L 848.265222 109.8975 
L 848.552139 113.733084 
L 848.846606 124.170302 
L 849.133523 125.903795 
L 849.420441 131.214734 
L 849.707358 133.206367 
L 850.288743 139.439161 
L 850.57566 135.345438 
L 850.862577 140.102878 
L 851.149494 140.693116 
L 851.436411 142.721488 
L 851.730879 142.647768 
L 852.878548 147.184049 
L 853.74685 148.917543 
L 854.033767 148.069166 
L 854.320684 149.212662 
L 854.615152 149.249401 
L 855.188986 151.314753 
L 855.475903 151.868011 
L 855.76282 152.716389 
L 856.344205 144.418001 
L 856.631122 145.930094 
L 857.204957 149.72894 
L 857.499424 150.687776 
L 857.786342 150.651037 
L 858.073259 147.700569 
L 858.360176 149.802659 
L 858.647093 150.282198 
L 859.228478 151.904992 
L 859.515395 150.835456 
L 859.802312 148.659404 
L 860.089229 137.15241 
L 860.383697 133.648925 
L 860.670614 122.03123 
L 860.957531 105.730057 
L 861.244449 107.16819 
L 861.825833 113.954484 
L 862.112751 122.32635 
L 862.399668 116.499133 
L 862.686585 124.613101 
L 862.973502 123.469605 
L 863.26797 126.457053 
L 863.841804 129.186121 
L 864.128721 131.546593 
L 864.415639 115.798436 
L 864.997023 125.571937 
L 865.28394 126.420073 
L 865.570858 128.227286 
L 865.857775 114.581461 
L 866.152242 106.947032 
L 866.43916 110.487497 
L 866.726077 99.57074 
L 867.012994 113.401226 
L 867.299911 114.064942 
L 867.594379 121.736353 
L 868.45513 132.06287 
L 868.742048 127.637289 
L 869.036515 125.867056 
L 869.323432 107.131451 
L 869.61035 111.667732 
L 870.184184 126.198915 
L 870.478652 125.608676 
L 870.765569 127.858447 
L 871.052486 109.012383 
L 871.339403 113.991223 
L 871.62632 116.425413 
L 871.920788 115.282158 
L 872.494622 124.391701 
L 872.781539 127.194731 
L 873.068457 125.018679 
L 873.362924 127.858447 
L 873.649841 109.381222 
L 873.936759 110.155638 
L 874.223676 114.064942 
L 874.510593 121.219833 
L 874.805061 116.167275 
L 875.091978 124.096582 
L 875.378895 116.019836 
L 875.665812 117.31053 
L 875.952729 123.137746 
L 876.247197 116.462394 
L 876.534114 122.621469 
L 876.821031 121.146114 
L 877.107948 118.748904 
L 877.394866 103.664705 
L 877.97625 116.351694 
L 878.263168 116.609833 
L 878.550085 119.375881 
L 878.837002 123.543324 
L 879.13147 126.198915 
L 879.418387 125.645656 
L 879.705304 119.671001 
L 879.992221 126.973331 
L 880.279138 128.190547 
L 880.573606 124.133563 
L 880.860523 128.854263 
L 881.14744 130.034499 
L 881.721275 134.68148 
L 882.302659 137.631948 
L 882.589577 135.603577 
L 882.876494 135.861716 
L 883.163411 137.963806 
L 883.457879 136.783812 
L 883.744796 139.439161 
L 884.031713 140.324278 
L 884.605547 142.758468 
L 884.900015 141.246374 
L 885.473849 132.874267 
L 885.760767 117.273791 
L 886.047684 118.490765 
L 886.629069 126.125195 
L 886.915986 130.366357 
L 887.202903 132.616128 
L 887.48982 133.870083 
L 887.784288 130.661476 
L 888.071205 133.870083 
L 888.358122 128.522405 
L 888.645039 133.611944 
L 889.226424 137.484509 
L 889.513341 137.447529 
L 889.800258 140.029158 
L 890.66856 143.274746 
L 890.955478 141.541252 
L 891.242395 142.426368 
L 891.529312 135.013338 
L 891.816229 120.482398 
L 892.110697 129.444502 
L 892.397614 119.338901 
L 892.684531 127.932166 
L 892.971448 132.321009 
L 893.258365 132.06287 
L 893.552833 135.640316 
L 894.126667 138.738464 
L 894.413585 129.481241 
L 894.700502 130.366357 
L 894.994969 134.6445 
L 895.568804 137.447529 
L 895.855721 137.41079 
L 896.142638 140.066139 
L 897.01094 143.569865 
L 897.297857 136.783812 
L 897.584774 137.705668 
L 898.166159 142.426368 
L 899.608296 147.774288 
L 899.895213 144.159862 
L 900.18213 146.815211 
L 900.469047 146.889172 
L 900.763515 147.405449 
L 901.050432 148.659404 
L 901.337349 149.286382 
L 901.624266 149.101962 
L 901.911184 150.835456 
L 902.205651 146.594052 
L 902.492568 146.667772 
L 902.779486 148.069166 
L 903.066403 145.598236 
L 903.35332 148.069166 
L 903.647788 145.671956 
L 903.934705 144.934278 
L 904.221622 125.240079 
L 904.508539 126.678211 
L 904.795456 120.260998 
L 905.089924 109.639361 
L 905.376841 88.248407 
L 905.950675 113.216806 
L 906.237593 111.99959 
L 906.53206 121.146114 
L 906.818977 117.568668 
L 907.105895 125.608676 
L 907.392812 129.149383 
L 907.679729 127.637289 
L 908.261114 134.091483 
L 908.548031 134.386361 
L 908.834948 134.165203 
L 909.121865 125.977515 
L 909.70325 135.308458 
L 909.990167 137.705668 
L 910.277084 138.295906 
L 910.564002 139.439161 
L 910.858469 141.651952 
L 911.719221 145.377078 
L 912.006138 144.196842 
L 912.300606 144.307301 
L 912.587523 144.159862 
L 913.448274 148.401266 
L 913.742742 144.454981 
L 914.029659 94.85004 
L 914.316576 91.272594 
L 914.603493 92.489569 
L 914.890411 101.082834 
L 915.184878 103.885863 
L 915.471795 109.565641 
L 915.758713 107.242151 
L 916.332547 98.058647 
L 916.627015 107.057732 
L 917.200849 101.341215 
L 917.487766 109.860519 
L 917.774683 113.069368 
L 918.069151 74.344202 
L 918.069151 74.344202 
" clip-path="url(#p32c0d773fe)" style="fill: none; stroke: #2563eb; stroke-opacity: 0.95; stroke-width: 1.3; stroke-linecap: square"/>
   </g>
   <g id="patch_23">
    <path d="M 39.330625 228.954713 
L 39.330625 17.061433 
" style="fill: none; stroke: #cbd5e1; stroke-width: 0.8; stroke-linejoin: miter; stroke-linecap: square"/>
   </g>
   <g id="patch_24">
    <path d="M 935.305625 228.954713 
L 935.305625 17.061433 
" style="fill: none; stroke: #cbd5e1; stroke-width: 0.8; stroke-linejoin: miter; stroke-linecap: square"/>
   </g>
   <g id="patch_25">
    <path d="M 39.330625 228.954713 
L 935.305625 228.954713 
" style="fill: none; stroke: #cbd5e1; stroke-width: 0.8; stroke-linejoin: miter; stroke-linecap: square"/>
   </g>
   <g id="patch_26">
    <path d="M 39.330625 17.061433 
L 935.305625 17.061433 
" style="fill: none; stroke: #cbd5e1; stroke-width: 0.8; stroke-linejoin: miter; stroke-linecap: square"/>
   </g>
   <g id="text_20">
    <!-- ACC -->
    <g style="fill: #475569" transform="translate(121.68355 13.27875) scale(0.08 -0.08)">
     <defs>
      <path id="DejaVuSans-43" d="M 4122 4306 
L 4122 3641 
Q 3803 3938 3442 4084 
Q 3081 4231 2675 4231 
Q 1875 4231 1450 3742 
Q 1025 3253 1025 2328 
Q 1025 1406 1450 917 
Q 1875 428 2675 428 
Q 3081 428 3442 575 
Q 3803 722 4122 1019 
L 4122 359 
Q 3791 134 3420 21 
Q 3050 -91 2638 -91 
Q 1578 -91 968 557 
Q 359 1206 359 2328 
Q 359 3453 968 4101 
Q 1578 4750 2638 4750 
Q 3056 4750 3426 4639 
Q 3797 4528 4122 4306 
z
" transform="scale(0.015625)"/>
     </defs>
     <use xlink:href="#DejaVuSans-41"/>
     <use xlink:href="#DejaVuSans-43" transform="translate(66.658203 0)"/>
     <use xlink:href="#DejaVuSans-43" transform="translate(136.482422 0)"/>
    </g>
   </g>
   <g id="text_21">
    <!-- OC -->
    <g style="fill: #475569" transform="translate(228.190414 13.27875) scale(0.08 -0.08)">
     <defs>
      <path id="DejaVuSans-4f" d="M 2522 4238 
Q 1834 4238 1429 3725 
Q 1025 3213 1025 2328 
Q 1025 1447 1429 934 
Q 1834 422 2522 422 
Q 3209 422 3611 934 
Q 4013 1447 4013 2328 
Q 4013 3213 3611 3725 
Q 3209 4238 2522 4238 
z
M 2522 4750 
Q 3503 4750 4090 4092 
Q 4678 3434 4678 2328 
Q 4678 1225 4090 567 
Q 3503 -91 2522 -91 
Q 1538 -91 948 565 
Q 359 1222 359 2328 
Q 359 3434 948 4092 
Q 1538 4750 2522 4750 
z
" transform="scale(0.015625)"/>
     </defs>
     <use xlink:href="#DejaVuSans-4f"/>
     <use xlink:href="#DejaVuSans-43" transform="translate(78.710938 0)"/>
    </g>
   </g>
   <g id="text_22">
    <!-- FCS -->
    <g style="fill: #475569" transform="translate(253.680791 13.27875) scale(0.08 -0.08)">
     <defs>
      <path id="DejaVuSans-46" d="M 628 4666 
L 3309 4666 
L 3309 4134 
L 1259 4134 
L 1259 2759 
L 3109 2759 
L 3109 2228 
L 1259 2228 
L 1259 0 
L 628 0 
L 628 4666 
z
" transform="scale(0.015625)"/>
      <path id="DejaVuSans-53" d="M 3425 4513 
L 3425 3897 
Q 3066 4069 2747 4153 
Q 2428 4238 2131 4238 
Q 1616 4238 1336 4038 
Q 1056 3838 1056 3469 
Q 1056 3159 1242 3001 
Q 1428 2844 1947 2747 
L 2328 2669 
Q 3034 2534 3370 2195 
Q 3706 1856 3706 1288 
Q 3706 609 3251 259 
Q 2797 -91 1919 -91 
Q 1588 -91 1214 -16 
Q 841 59 441 206 
L 441 856 
Q 825 641 1194 531 
Q 1563 422 1919 422 
Q 2459 422 2753 634 
Q 3047 847 3047 1241 
Q 3047 1584 2836 1778 
Q 2625 1972 2144 2069 
L 1759 2144 
Q 1053 2284 737 2584 
Q 422 2884 422 3419 
Q 422 4038 858 4394 
Q 1294 4750 2059 4750 
Q 2388 4750 2728 4690 
Q 3069 4631 3425 4513 
z
" transform="scale(0.015625)"/>
     </defs>
     <use xlink:href="#DejaVuSans-46"/>
     <use xlink:href="#DejaVuSans-43" transform="translate(57.519531 0)"/>
     <use xlink:href="#DejaVuSans-53" transform="translate(127.34375 0)"/>
    </g>
   </g>
   <g id="text_23">
    <!-- SR -->
    <g style="fill: #475569" transform="translate(289.9722 13.27875) scale(0.08 -0.08)">
     <defs>
      <path id="DejaVuSans-52" d="M 2841 2188 
Q 3044 2119 3236 1894 
Q 3428 1669 3622 1275 
L 4263 0 
L 3584 0 
L 2988 1197 
Q 2756 1666 2539 1819 
Q 2322 1972 1947 1972 
L 1259 1972 
L 1259 0 
L 628 0 
L 628 4666 
L 2053 4666 
Q 2853 4666 3247 4331 
Q 3641 3997 3641 3322 
Q 3641 2881 3436 2590 
Q 3231 2300 2841 2188 
z
M 1259 4147 
L 1259 2491 
L 2053 2491 
Q 2509 2491 2742 2702 
Q 2975 2913 2975 3322 
Q 2975 3731 2742 3939 
Q 2509 4147 2053 4147 
L 1259 4147 
z
" transform="scale(0.015625)"/>
     </defs>
     <use xlink:href="#DejaVuSans-53"/>
     <use xlink:href="#DejaVuSans-52" transform="translate(63.476562 0)"/>
    </g>
   </g>
   <g id="text_24">
    <!-- FFC -->
    <g style="fill: #475569" transform="translate(330.934152 13.27875) scale(0.08 -0.08)">
     <use xlink:href="#DejaVuSans-46"/>
     <use xlink:href="#DejaVuSans-46" transform="translate(57.519531 0)"/>
     <use xlink:href="#DejaVuSans-43" transform="translate(115.039062 0)"/>
    </g>
   </g>
   <g id="text_25">
    <!-- SS -->
    <g style="fill: #475569" transform="translate(417.059795 13.27875) scale(0.08 -0.08)">
     <use xlink:href="#DejaVuSans-53"/>
     <use xlink:href="#DejaVuSans-53" transform="translate(63.476562 0)"/>
    </g>
   </g>
   <g id="text_26">
    <!-- OC -->
    <g style="fill: #475569" transform="translate(484.150739 13.27875) scale(0.08 -0.08)">
     <use xlink:href="#DejaVuSans-4f"/>
     <use xlink:href="#DejaVuSans-43" transform="translate(78.710938 0)"/>
    </g>
   </g>
   <g id="text_27">
    <!-- FCS -->
    <g style="fill: #475569" transform="translate(507.375981 13.27875) scale(0.08 -0.08)">
     <use xlink:href="#DejaVuSans-46"/>
     <use xlink:href="#DejaVuSans-43" transform="translate(57.519531 0)"/>
     <use xlink:href="#DejaVuSans-53" transform="translate(127.34375 0)"/>
    </g>
   </g>
   <g id="text_28">
    <!-- SR -->
    <g style="fill: #475569" transform="translate(543.66739 13.27875) scale(0.08 -0.08)">
     <use xlink:href="#DejaVuSans-53"/>
     <use xlink:href="#DejaVuSans-52" transform="translate(63.476562 0)"/>
    </g>
   </g>
   <g id="text_29">
    <!-- FFC -->
    <g style="fill: #475569" transform="translate(584.629342 13.27875) scale(0.08 -0.08)">
     <use xlink:href="#DejaVuSans-46"/>
     <use xlink:href="#DejaVuSans-46" transform="translate(57.519531 0)"/>
     <use xlink:href="#DejaVuSans-43" transform="translate(115.039062 0)"/>
    </g>
   </g>
   <g id="text_30">
    <!-- SS -->
    <g style="fill: #475569" transform="translate(670.754985 13.27875) scale(0.08 -0.08)">
     <use xlink:href="#DejaVuSans-53"/>
     <use xlink:href="#DejaVuSans-53" transform="translate(63.476562 0)"/>
    </g>
   </g>
   <g id="text_31">
    <!-- OC -->
    <g style="fill: #475569" transform="translate(737.845929 13.27875) scale(0.08 -0.08)">
     <use xlink:href="#DejaVuSans-4f"/>
     <use xlink:href="#DejaVuSans-43" transform="translate(78.710938 0)"/>
    </g>
   </g>
   <g id="text_32">
    <!-- FCS -->
    <g style="fill: #475569" transform="translate(761.071171 13.27875) scale(0.08 -0.08)">
     <use xlink:href="#DejaVuSans-46"/>
     <use xlink:href="#DejaVuSans-43" transform="translate(57.519531 0)"/>
     <use xlink:href="#DejaVuSans-53" transform="translate(127.34375 0)"/>
    </g>
   </g>
   <g id="text_33">
    <!-- SR -->
    <g style="fill: #475569" transform="translate(797.36258 13.27875) scale(0.08 -0.08)">
     <use xlink:href="#DejaVuSans-53"/>
     <use xlink:href="#DejaVuSans-52" transform="translate(63.476562 0)"/>
    </g>
   </g>
   <g id="text_34">
    <!-- FFC -->
    <g style="fill: #475569" transform="translate(838.324532 13.27875) scale(0.08 -0.08)">
     <use xlink:href="#DejaVuSans-46"/>
     <use xlink:href="#DejaVuSans-46" transform="translate(57.519531 0)"/>
     <use xlink:href="#DejaVuSans-43" transform="translate(115.039062 0)"/>
    </g>
   </g>
   <g id="text_35">
    <!-- SS -->
    <g style="fill: #475569" transform="translate(888.208005 13.27875) scale(0.08 -0.08)">
     <use xlink:href="#DejaVuSans-53"/>
     <use xlink:href="#DejaVuSans-53" transform="translate(63.476562 0)"/>
    </g>
   </g>
   <g id="legend_1">
    <g id="line2d_36">
     <path d="M 889.158125 27.540183 
L 897.158125 27.540183 
L 905.158125 27.540183 
" style="fill: none; stroke: #2563eb; stroke-opacity: 0.95; stroke-width: 1.3; stroke-linecap: square"/>
    </g>
    <g id="text_36">
     <!-- EDA -->
     <g transform="translate(911.558125 30.340183) scale(0.08 -0.08)">
      <use xlink:href="#DejaVuSans-45"/>
      <use xlink:href="#DejaVuSans-44" transform="translate(63.183594 0)"/>
      <use xlink:href="#DejaVuSans-41" transform="translate(138.435547 0)"/>
     </g>
    </g>
   </g>
  </g>
 </g>
 <defs>
  <clipPath id="p32c0d773fe">
   <rect x="39.330625" y="17.061433" width="895.975" height="211.89328"/>
  </clipPath>
 </defs>
</svg>
