<?xml version="1.0" encoding="utf-8" standalone="no"?>
<!DOCTYPE svg PUBLIC "-//W3C//DTD SVG 1.1//EN"
  "http://www.w3.org/Graphics/SVG/1.1/DTD/svg11.dtd">
<svg xmlns:xlink="http://www.w3.org/1999/xlink" width="942.542187pt" height="265.54315pt" viewBox="0 0 942.542187 265.54315" xmlns="http://www.w3.org/2000/svg" version="1.1">
 <metadata>
  <rdf:RDF xmlns:dc="http://purl.org/dc/elements/1.1/" xmlns:cc="http://creativecommons.org/ns#" xmlns:rdf="http://www.w3.org/1999/02/22-rdf-syntax-ns#">
   <cc:Work>
    <dc:type rdf:resource="http://purl.org/dc/dcmitype/StillImage"/>
    <dc:date>2026-04-17T17:40:11.894994</dc:date>
    <dc:format>image/svg+xml</dc:format>
    <dc:creator>
     <cc:Agent>
      <dc:title>Matplotlib v3.10.8, https://matplotlib.org/</dc:title>
     </cc:Agent>
    </dc:creator>
   </cc:Work>
  </rdf:RDF>
 </metadata>
 <defs>
  <style type="text/css">*{stroke-linejoin: round; stroke-linecap: butt}</style>
 </defs>
 <g id="figure_1">
  <g id="patch_1">
   <path d="M 0 265.54315 
L 942.542187 265.54315 
L 942.542187 0 
L 0 0 
z
" style="fill: #ffffff"/>
  </g>
  <g id="axes_1">
   <g id="patch_2">
    <path d="M 47.917188 228.954713 
L 935.342188 228.954713 
L 935.342188 17.061433 
L 47.917188 17.061433 
z
" style="fill: #ffffff"/>
   </g>
   <g id="patch_3">
    <path d="M 47.917188 228.954713 
L 227.363029 228.954713 
L 227.363029 17.061433 
L 47.917188 17.061433 
z
" clip-path="url(#p2e5a873b2b)" style="fill: #f8fafc; opacity: 0.45"/>
   </g>
   <g id="patch_4">
    <path d="M 227.363029 228.954713 
L 254.279905 228.954713 
L 254.279905 17.061433 
L 227.363029 17.061433 
z
" clip-path="url(#p2e5a873b2b)" style="fill: #eff6ff; opacity: 0.45"/>
   </g>
   <g id="patch_5">
    <path d="M 254.279905 228.954713 
L 281.196781 228.954713 
L 281.196781 17.061433 
L 254.279905 17.061433 
z
" clip-path="url(#p2e5a873b2b)" style="fill: #fef3c7; opacity: 0.45"/>
   </g>
   <g id="patch_6">
    <path d="M 281.196781 228.954713 
L 326.058242 228.954713 
L 326.058242 17.061433 
L 281.196781 17.061433 
z
" clip-path="url(#p2e5a873b2b)" style="fill: #dcfce7; opacity: 0.45"/>
   </g>
   <g id="patch_7">
    <path d="M 326.058242 228.954713 
L 370.919702 228.954713 
L 370.919702 17.061433 
L 326.058242 17.061433 
z
" clip-path="url(#p2e5a873b2b)" style="fill: #fee2e2; opacity: 0.45"/>
   </g>
   <g id="patch_8">
    <path d="M 370.919702 228.954713 
L 483.073353 228.954713 
L 483.073353 17.061433 
L 370.919702 17.061433 
z
" clip-path="url(#p2e5a873b2b)" style="fill: #ede9fe; opacity: 0.45"/>
   </g>
   <g id="patch_9">
    <path d="M 483.073353 228.954713 
L 505.504083 228.954713 
L 505.504083 17.061433 
L 483.073353 17.061433 
z
" clip-path="url(#p2e5a873b2b)" style="fill: #f8fafc; opacity: 0.45"/>
   </g>
   <g id="patch_10">
    <path d="M 505.504083 228.954713 
L 532.42096 228.954713 
L 532.42096 17.061433 
L 505.504083 17.061433 
z
" clip-path="url(#p2e5a873b2b)" style="fill: #eff6ff; opacity: 0.45"/>
   </g>
   <g id="patch_11">
    <path d="M 532.42096 228.954713 
L 577.28242 228.954713 
L 577.28242 17.061433 
L 532.42096 17.061433 
z
" clip-path="url(#p2e5a873b2b)" style="fill: #fef3c7; opacity: 0.45"/>
   </g>
   <g id="patch_12">
    <path d="M 577.28242 228.954713 
L 622.14388 228.954713 
L 622.14388 17.061433 
L 577.28242 17.061433 
z
" clip-path="url(#p2e5a873b2b)" style="fill: #dcfce7; opacity: 0.45"/>
   </g>
   <g id="patch_13">
    <path d="M 622.14388 228.954713 
L 734.297531 228.954713 
L 734.297531 17.061433 
L 622.14388 17.061433 
z
" clip-path="url(#p2e5a873b2b)" style="fill: #fee2e2; opacity: 0.45"/>
   </g>
   <g id="patch_14">
    <path d="M 734.297531 228.954713 
L 756.728261 228.954713 
L 756.728261 17.061433 
L 734.297531 17.061433 
z
" clip-path="url(#p2e5a873b2b)" style="fill: #ede9fe; opacity: 0.45"/>
   </g>
   <g id="patch_15">
    <path d="M 756.728261 228.954713 
L 783.645138 228.954713 
L 783.645138 17.061433 
L 756.728261 17.061433 
z
" clip-path="url(#p2e5a873b2b)" style="fill: #f8fafc; opacity: 0.45"/>
   </g>
   <g id="patch_16">
    <path d="M 783.645138 228.954713 
L 828.506598 228.954713 
L 828.506598 17.061433 
L 783.645138 17.061433 
z
" clip-path="url(#p2e5a873b2b)" style="fill: #eff6ff; opacity: 0.45"/>
   </g>
   <g id="patch_17">
    <path d="M 828.506598 228.954713 
L 873.368058 228.954713 
L 873.368058 17.061433 
L 828.506598 17.061433 
z
" clip-path="url(#p2e5a873b2b)" style="fill: #fef3c7; opacity: 0.45"/>
   </g>
   <g id="patch_18">
    <path d="M 873.368058 228.954713 
L 913.743373 228.954713 
L 913.743373 17.061433 
L 873.368058 17.061433 
z
" clip-path="url(#p2e5a873b2b)" style="fill: #dcfce7; opacity: 0.45"/>
   </g>
   <g id="patch_19">
    <path d="M 913.743373 228.954713 
L 918.229519 228.954713 
L 918.229519 17.061433 
L 913.743373 17.061433 
z
" clip-path="url(#p2e5a873b2b)" style="fill: #fee2e2; opacity: 0.45"/>
   </g>
   <g id="matplotlib.axis_1">
    <g id="xtick_1">
     <g id="line2d_1">
      <path d="M 47.917188 228.954713 
L 47.917188 17.061433 
" clip-path="url(#p2e5a873b2b)" style="fill: none; stroke: #eef2f7; stroke-width: 0.55; stroke-linecap: square"/>
     </g>
     <g id="line2d_2">
      <defs>
       <path id="m664a1bb456" d="M 0 0 
L 0 3.5 
" style="stroke: #000000; stroke-width: 0.8"/>
      </defs>
      <g>
       <use xlink:href="#m664a1bb456" x="47.917188" y="228.954713" style="stroke: #000000; stroke-width: 0.8"/>
      </g>
     </g>
     <g id="text_1">
      <!-- 0 -->
      <g transform="translate(45.054063 242.793307) scale(0.09 -0.09)">
       <defs>
        <path id="DejaVuSans-30" d="M 2034 4250 
Q 1547 4250 1301 3770 
Q 1056 3291 1056 2328 
Q 1056 1369 1301 889 
Q 1547 409 2034 409 
Q 2525 409 2770 889 
Q 3016 1369 3016 2328 
Q 3016 3291 2770 3770 
Q 2525 4250 2034 4250 
z
M 2034 4750 
Q 2819 4750 3233 4129 
Q 3647 3509 3647 2328 
Q 3647 1150 3233 529 
Q 2819 -91 2034 -91 
Q 1250 -91 836 529 
Q 422 1150 422 2328 
Q 422 3509 836 4129 
Q 1250 4750 2034 4750 
z
" transform="scale(0.015625)"/>
       </defs>
       <use xlink:href="#DejaVuSans-30"/>
      </g>
     </g>
    </g>
    <g id="xtick_2">
     <g id="line2d_3">
      <path d="M 160.070838 228.954713 
L 160.070838 17.061433 
" clip-path="url(#p2e5a873b2b)" style="fill: none; stroke: #eef2f7; stroke-width: 0.55; stroke-linecap: square"/>
     </g>
     <g id="line2d_4">
      <g>
       <use xlink:href="#m664a1bb456" x="160.070838" y="228.954713" style="stroke: #000000; stroke-width: 0.8"/>
      </g>
     </g>
     <g id="text_2">
      <!-- 25 -->
      <g transform="translate(154.344588 242.793307) scale(0.09 -0.09)">
       <defs>
        <path id="DejaVuSans-32" d="M 1228 531 
L 3431 531 
L 3431 0 
L 469 0 
L 469 531 
Q 828 903 1448 1529 
Q 2069 2156 2228 2338 
Q 2531 2678 2651 2914 
Q 2772 3150 2772 3378 
Q 2772 3750 2511 3984 
Q 2250 4219 1831 4219 
Q 1534 4219 1204 4116 
Q 875 4013 500 3803 
L 500 4441 
Q 881 4594 1212 4672 
Q 1544 4750 1819 4750 
Q 2544 4750 2975 4387 
Q 3406 4025 3406 3419 
Q 3406 3131 3298 2873 
Q 3191 2616 2906 2266 
Q 2828 2175 2409 1742 
Q 1991 1309 1228 531 
z
" transform="scale(0.015625)"/>
        <path id="DejaVuSans-35" d="M 691 4666 
L 3169 4666 
L 3169 4134 
L 1269 4134 
L 1269 2991 
Q 1406 3038 1543 3061 
Q 1681 3084 1819 3084 
Q 2600 3084 3056 2656 
Q 3513 2228 3513 1497 
Q 3513 744 3044 326 
Q 2575 -91 1722 -91 
Q 1428 -91 1123 -41 
Q 819 9 494 109 
L 494 744 
Q 775 591 1075 516 
Q 1375 441 1709 441 
Q 2250 441 2565 725 
Q 2881 1009 2881 1497 
Q 2881 1984 2565 2268 
Q 2250 2553 1709 2553 
Q 1456 2553 1204 2497 
Q 953 2441 691 2322 
L 691 4666 
z
" transform="scale(0.015625)"/>
       </defs>
       <use xlink:href="#DejaVuSans-32"/>
       <use xlink:href="#DejaVuSans-35" transform="translate(63.623047 0)"/>
      </g>
     </g>
    </g>
    <g id="xtick_3">
     <g id="line2d_5">
      <path d="M 272.224489 228.954713 
L 272.224489 17.061433 
" clip-path="url(#p2e5a873b2b)" style="fill: none; stroke: #eef2f7; stroke-width: 0.55; stroke-linecap: square"/>
     </g>
     <g id="line2d_6">
      <g>
       <use xlink:href="#m664a1bb456" x="272.224489" y="228.954713" style="stroke: #000000; stroke-width: 0.8"/>
      </g>
     </g>
     <g id="text_3">
      <!-- 50 -->
      <g transform="translate(266.498239 242.793307) scale(0.09 -0.09)">
       <use xlink:href="#DejaVuSans-35"/>
       <use xlink:href="#DejaVuSans-30" transform="translate(63.623047 0)"/>
      </g>
     </g>
    </g>
    <g id="xtick_4">
     <g id="line2d_7">
      <path d="M 384.37814 228.954713 
L 384.37814 17.061433 
" clip-path="url(#p2e5a873b2b)" style="fill: none; stroke: #eef2f7; stroke-width: 0.55; stroke-linecap: square"/>
     </g>
     <g id="line2d_8">
      <g>
       <use xlink:href="#m664a1bb456" x="384.37814" y="228.954713" style="stroke: #000000; stroke-width: 0.8"/>
      </g>
     </g>
     <g id="text_4">
      <!-- 75 -->
      <g transform="translate(378.65189 242.793307) scale(0.09 -0.09)">
       <defs>
        <path id="DejaVuSans-37" d="M 525 4666 
L 3525 4666 
L 3525 4397 
L 1831 0 
L 1172 0 
L 2766 4134 
L 525 4134 
L 525 4666 
z
" transform="scale(0.015625)"/>
       </defs>
       <use xlink:href="#DejaVuSans-37"/>
       <use xlink:href="#DejaVuSans-35" transform="translate(63.623047 0)"/>
      </g>
     </g>
    </g>
    <g id="xtick_5">
     <g id="line2d_9">
      <path d="M 496.531791 228.954713 
L 496.531791 17.061433 
" clip-path="url(#p2e5a873b2b)" style="fill: none; stroke: #eef2f7; stroke-width: 0.55; stroke-linecap: square"/>
     </g>
     <g id="line2d_10">
      <g>
       <use xlink:href="#m664a1bb456" x="496.531791" y="228.954713" style="stroke: #000000; stroke-width: 0.8"/>
      </g>
     </g>
     <g id="text_5">
      <!-- 100 -->
      <g transform="translate(487.942416 242.793307) scale(0.09 -0.09)">
       <defs>
        <path id="DejaVuSans-31" d="M 794 531 
L 1825 531 
L 1825 4091 
L 703 3866 
L 703 4441 
L 1819 4666 
L 2450 4666 
L 2450 531 
L 3481 531 
L 3481 0 
L 794 0 
L 794 531 
z
" transform="scale(0.015625)"/>
       </defs>
       <use xlink:href="#DejaVuSans-31"/>
       <use xlink:href="#DejaVuSans-30" transform="translate(63.623047 0)"/>
       <use xlink:href="#DejaVuSans-30" transform="translate(127.246094 0)"/>
      </g>
     </g>
    </g>
    <g id="xtick_6">
     <g id="line2d_11">
      <path d="M 608.685442 228.954713 
L 608.685442 17.061433 
" clip-path="url(#p2e5a873b2b)" style="fill: none; stroke: #eef2f7; stroke-width: 0.55; stroke-linecap: square"/>
     </g>
     <g id="line2d_12">
      <g>
       <use xlink:href="#m664a1bb456" x="608.685442" y="228.954713" style="stroke: #000000; stroke-width: 0.8"/>
      </g>
     </g>
     <g id="text_6">
      <!-- 125 -->
      <g transform="translate(600.096067 242.793307) scale(0.09 -0.09)">
       <use xlink:href="#DejaVuSans-31"/>
       <use xlink:href="#DejaVuSans-32" transform="translate(63.623047 0)"/>
       <use xlink:href="#DejaVuSans-35" transform="translate(127.246094 0)"/>
      </g>
     </g>
    </g>
    <g id="xtick_7">
     <g id="line2d_13">
      <path d="M 720.839093 228.954713 
L 720.839093 17.061433 
" clip-path="url(#p2e5a873b2b)" style="fill: none; stroke: #eef2f7; stroke-width: 0.55; stroke-linecap: square"/>
     </g>
     <g id="line2d_14">
      <g>
       <use xlink:href="#m664a1bb456" x="720.839093" y="228.954713" style="stroke: #000000; stroke-width: 0.8"/>
      </g>
     </g>
     <g id="text_7">
      <!-- 150 -->
      <g transform="translate(712.249718 242.793307) scale(0.09 -0.09)">
       <use xlink:href="#DejaVuSans-31"/>
       <use xlink:href="#DejaVuSans-35" transform="translate(63.623047 0)"/>
       <use xlink:href="#DejaVuSans-30" transform="translate(127.246094 0)"/>
      </g>
     </g>
    </g>
    <g id="xtick_8">
     <g id="line2d_15">
      <path d="M 832.992744 228.954713 
L 832.992744 17.061433 
" clip-path="url(#p2e5a873b2b)" style="fill: none; stroke: #eef2f7; stroke-width: 0.55; stroke-linecap: square"/>
     </g>
     <g id="line2d_16">
      <g>
       <use xlink:href="#m664a1bb456" x="832.992744" y="228.954713" style="stroke: #000000; stroke-width: 0.8"/>
      </g>
     </g>
     <g id="text_8">
      <!-- 175 -->
      <g transform="translate(824.403369 242.793307) scale(0.09 -0.09)">
       <use xlink:href="#DejaVuSans-31"/>
       <use xlink:href="#DejaVuSans-37" transform="translate(63.623047 0)"/>
       <use xlink:href="#DejaVuSans-35" transform="translate(127.246094 0)"/>
      </g>
     </g>
    </g>
    <g id="text_9">
     <!-- Minutes since session start -->
     <g transform="translate(424.039844 256.263463) scale(0.1 -0.1)">
      <defs>
       <path id="DejaVuSans-4d" d="M 628 4666 
L 1569 4666 
L 2759 1491 
L 3956 4666 
L 4897 4666 
L 4897 0 
L 4281 0 
L 4281 4097 
L 3078 897 
L 2444 897 
L 1241 4097 
L 1241 0 
L 628 0 
L 628 4666 
z
" transform="scale(0.015625)"/>
       <path id="DejaVuSans-69" d="M 603 3500 
L 1178 3500 
L 1178 0 
L 603 0 
L 603 3500 
z
M 603 4863 
L 1178 4863 
L 1178 4134 
L 603 4134 
L 603 4863 
z
" transform="scale(0.015625)"/>
       <path id="DejaVuSans-6e" d="M 3513 2113 
L 3513 0 
L 2938 0 
L 2938 2094 
Q 2938 2591 2744 2837 
Q 2550 3084 2163 3084 
Q 1697 3084 1428 2787 
Q 1159 2491 1159 1978 
L 1159 0 
L 581 0 
L 581 3500 
L 1159 3500 
L 1159 2956 
Q 1366 3272 1645 3428 
Q 1925 3584 2291 3584 
Q 2894 3584 3203 3211 
Q 3513 2838 3513 2113 
z
" transform="scale(0.015625)"/>
       <path id="DejaVuSans-75" d="M 544 1381 
L 544 3500 
L 1119 3500 
L 1119 1403 
Q 1119 906 1312 657 
Q 1506 409 1894 409 
Q 2359 409 2629 706 
Q 2900 1003 2900 1516 
L 2900 3500 
L 3475 3500 
L 3475 0 
L 2900 0 
L 2900 538 
Q 2691 219 2414 64 
Q 2138 -91 1772 -91 
Q 1169 -91 856 284 
Q 544 659 544 1381 
z
M 1991 3584 
L 1991 3584 
z
" transform="scale(0.015625)"/>
       <path id="DejaVuSans-74" d="M 1172 4494 
L 1172 3500 
L 2356 3500 
L 2356 3053 
L 1172 3053 
L 1172 1153 
Q 1172 725 1289 603 
Q 1406 481 1766 481 
L 2356 481 
L 2356 0 
L 1766 0 
Q 1100 0 847 248 
Q 594 497 594 1153 
L 594 3053 
L 172 3053 
L 172 3500 
L 594 3500 
L 594 4494 
L 1172 4494 
z
" transform="scale(0.015625)"/>
       <path id="DejaVuSans-65" d="M 3597 1894 
L 3597 1613 
L 953 1613 
Q 991 1019 1311 708 
Q 1631 397 2203 397 
Q 2534 397 2845 478 
Q 3156 559 3463 722 
L 3463 178 
Q 3153 47 2828 -22 
Q 2503 -91 2169 -91 
Q 1331 -91 842 396 
Q 353 884 353 1716 
Q 353 2575 817 3079 
Q 1281 3584 2069 3584 
Q 2775 3584 3186 3129 
Q 3597 2675 3597 1894 
z
M 3022 2063 
Q 3016 2534 2758 2815 
Q 2500 3097 2075 3097 
Q 1594 3097 1305 2825 
Q 1016 2553 972 2059 
L 3022 2063 
z
" transform="scale(0.015625)"/>
       <path id="DejaVuSans-73" d="M 2834 3397 
L 2834 2853 
Q 2591 2978 2328 3040 
Q 2066 3103 1784 3103 
Q 1356 3103 1142 2972 
Q 928 2841 928 2578 
Q 928 2378 1081 2264 
Q 1234 2150 1697 2047 
L 1894 2003 
Q 2506 1872 2764 1633 
Q 3022 1394 3022 966 
Q 3022 478 2636 193 
Q 2250 -91 1575 -91 
Q 1294 -91 989 -36 
Q 684 19 347 128 
L 347 722 
Q 666 556 975 473 
Q 1284 391 1588 391 
Q 1994 391 2212 530 
Q 2431 669 2431 922 
Q 2431 1156 2273 1281 
Q 2116 1406 1581 1522 
L 1381 1569 
Q 847 1681 609 1914 
Q 372 2147 372 2553 
Q 372 3047 722 3315 
Q 1072 3584 1716 3584 
Q 2034 3584 2315 3537 
Q 2597 3491 2834 3397 
z
" transform="scale(0.015625)"/>
       <path id="DejaVuSans-20" transform="scale(0.015625)"/>
       <path id="DejaVuSans-63" d="M 3122 3366 
L 3122 2828 
Q 2878 2963 2633 3030 
Q 2388 3097 2138 3097 
Q 1578 3097 1268 2742 
Q 959 2388 959 1747 
Q 959 1106 1268 751 
Q 1578 397 2138 397 
Q 2388 397 2633 464 
Q 2878 531 3122 666 
L 3122 134 
Q 2881 22 2623 -34 
Q 2366 -91 2075 -91 
Q 1284 -91 818 406 
Q 353 903 353 1747 
Q 353 2603 823 3093 
Q 1294 3584 2113 3584 
Q 2378 3584 2631 3529 
Q 2884 3475 3122 3366 
z
" transform="scale(0.015625)"/>
       <path id="DejaVuSans-6f" d="M 1959 3097 
Q 1497 3097 1228 2736 
Q 959 2375 959 1747 
Q 959 1119 1226 758 
Q 1494 397 1959 397 
Q 2419 397 2687 759 
Q 2956 1122 2956 1747 
Q 2956 2369 2687 2733 
Q 2419 3097 1959 3097 
z
M 1959 3584 
Q 2709 3584 3137 3096 
Q 3566 2609 3566 1747 
Q 3566 888 3137 398 
Q 2709 -91 1959 -91 
Q 1206 -91 779 398 
Q 353 888 353 1747 
Q 353 2609 779 3096 
Q 1206 3584 1959 3584 
z
" transform="scale(0.015625)"/>
       <path id="DejaVuSans-61" d="M 2194 1759 
Q 1497 1759 1228 1600 
Q 959 1441 959 1056 
Q 959 750 1161 570 
Q 1363 391 1709 391 
Q 2188 391 2477 730 
Q 2766 1069 2766 1631 
L 2766 1759 
L 2194 1759 
z
M 3341 1997 
L 3341 0 
L 2766 0 
L 2766 531 
Q 2569 213 2275 61 
Q 1981 -91 1556 -91 
Q 1019 -91 701 211 
Q 384 513 384 1019 
Q 384 1609 779 1909 
Q 1175 2209 1959 2209 
L 2766 2209 
L 2766 2266 
Q 2766 2663 2505 2880 
Q 2244 3097 1772 3097 
Q 1472 3097 1187 3025 
Q 903 2953 641 2809 
L 641 3341 
Q 956 3463 1253 3523 
Q 1550 3584 1831 3584 
Q 2591 3584 2966 3190 
Q 3341 2797 3341 1997 
z
" transform="scale(0.015625)"/>
       <path id="DejaVuSans-72" d="M 2631 2963 
Q 2534 3019 2420 3045 
Q 2306 3072 2169 3072 
Q 1681 3072 1420 2755 
Q 1159 2438 1159 1844 
L 1159 0 
L 581 0 
L 581 3500 
L 1159 3500 
L 1159 2956 
Q 1341 3275 1631 3429 
Q 1922 3584 2338 3584 
Q 2397 3584 2469 3576 
Q 2541 3569 2628 3553 
L 2631 2963 
z
" transform="scale(0.015625)"/>
      </defs>
      <use xlink:href="#DejaVuSans-4d"/>
      <use xlink:href="#DejaVuSans-69" transform="translate(86.279297 0)"/>
      <use xlink:href="#DejaVuSans-6e" transform="translate(114.0625 0)"/>
      <use xlink:href="#DejaVuSans-75" transform="translate(177.441406 0)"/>
      <use xlink:href="#DejaVuSans-74" transform="translate(240.820312 0)"/>
      <use xlink:href="#DejaVuSans-65" transform="translate(280.029297 0)"/>
      <use xlink:href="#DejaVuSans-73" transform="translate(341.552734 0)"/>
      <use xlink:href="#DejaVuSans-20" transform="translate(393.652344 0)"/>
      <use xlink:href="#DejaVuSans-73" transform="translate(425.439453 0)"/>
      <use xlink:href="#DejaVuSans-69" transform="translate(477.539062 0)"/>
      <use xlink:href="#DejaVuSans-6e" transform="translate(505.322266 0)"/>
      <use xlink:href="#DejaVuSans-63" transform="translate(568.701172 0)"/>
      <use xlink:href="#DejaVuSans-65" transform="translate(623.681641 0)"/>
      <use xlink:href="#DejaVuSans-20" transform="translate(685.205078 0)"/>
      <use xlink:href="#DejaVuSans-73" transform="translate(716.992188 0)"/>
      <use xlink:href="#DejaVuSans-65" transform="translate(769.091797 0)"/>
      <use xlink:href="#DejaVuSans-73" transform="translate(830.615234 0)"/>
      <use xlink:href="#DejaVuSans-73" transform="translate(882.714844 0)"/>
      <use xlink:href="#DejaVuSans-69" transform="translate(934.814453 0)"/>
      <use xlink:href="#DejaVuSans-6f" transform="translate(962.597656 0)"/>
      <use xlink:href="#DejaVuSans-6e" transform="translate(1023.779297 0)"/>
      <use xlink:href="#DejaVuSans-20" transform="translate(1087.158203 0)"/>
      <use xlink:href="#DejaVuSans-73" transform="translate(1118.945312 0)"/>
      <use xlink:href="#DejaVuSans-74" transform="translate(1171.044922 0)"/>
      <use xlink:href="#DejaVuSans-61" transform="translate(1210.253906 0)"/>
      <use xlink:href="#DejaVuSans-72" transform="translate(1271.533203 0)"/>
      <use xlink:href="#DejaVuSans-74" transform="translate(1312.646484 0)"/>
     </g>
    </g>
   </g>
   <g id="matplotlib.axis_2">
    <g id="ytick_1">
     <g id="line2d_17">
      <path d="M 47.917188 204.841067 
L 935.342188 204.841067 
" clip-path="url(#p2e5a873b2b)" style="fill: none; stroke: #eef2f7; stroke-opacity: 0.25; stroke-width: 0.55; stroke-linecap: square"/>
     </g>
     <g id="line2d_18">
      <defs>
       <path id="mdc460e13f1" d="M 0 0 
L -3.5 0 
" style="stroke: #000000; stroke-width: 0.8"/>
      </defs>
      <g>
       <use xlink:href="#mdc460e13f1" x="47.917188" y="204.841067" style="stroke: #000000; stroke-width: 0.8"/>
      </g>
     </g>
     <g id="text_10">
      <!-- 1.25 -->
      <g transform="translate(20.878125 208.260364) scale(0.09 -0.09)">
       <defs>
        <path id="DejaVuSans-2e" d="M 684 794 
L 1344 794 
L 1344 0 
L 684 0 
L 684 794 
z
" transform="scale(0.015625)"/>
       </defs>
       <use xlink:href="#DejaVuSans-31"/>
       <use xlink:href="#DejaVuSans-2e" transform="translate(63.623047 0)"/>
       <use xlink:href="#DejaVuSans-32" transform="translate(95.410156 0)"/>
       <use xlink:href="#DejaVuSans-35" transform="translate(159.033203 0)"/>
      </g>
     </g>
    </g>
    <g id="ytick_2">
     <g id="line2d_19">
      <path d="M 47.917188 178.146597 
L 935.342188 178.146597 
" clip-path="url(#p2e5a873b2b)" style="fill: none; stroke: #eef2f7; stroke-opacity: 0.25; stroke-width: 0.55; stroke-linecap: square"/>
     </g>
     <g id="line2d_20">
      <g>
       <use xlink:href="#mdc460e13f1" x="47.917188" y="178.146597" style="stroke: #000000; stroke-width: 0.8"/>
      </g>
     </g>
     <g id="text_11">
      <!-- 1.50 -->
      <g transform="translate(20.878125 181.565894) scale(0.09 -0.09)">
       <use xlink:href="#DejaVuSans-31"/>
       <use xlink:href="#DejaVuSans-2e" transform="translate(63.623047 0)"/>
       <use xlink:href="#DejaVuSans-35" transform="translate(95.410156 0)"/>
       <use xlink:href="#DejaVuSans-30" transform="translate(159.033203 0)"/>
      </g>
     </g>
    </g>
    <g id="ytick_3">
     <g id="line2d_21">
      <path d="M 47.917188 151.452126 
L 935.342188 151.452126 
" clip-path="url(#p2e5a873b2b)" style="fill: none; stroke: #eef2f7; stroke-opacity: 0.25; stroke-width: 0.55; stroke-linecap: square"/>
     </g>
     <g id="line2d_22">
      <g>
       <use xlink:href="#mdc460e13f1" x="47.917188" y="151.452126" style="stroke: #000000; stroke-width: 0.8"/>
      </g>
     </g>
     <g id="text_12">
      <!-- 1.75 -->
      <g transform="translate(20.878125 154.871423) scale(0.09 -0.09)">
       <use xlink:href="#DejaVuSans-31"/>
       <use xlink:href="#DejaVuSans-2e" transform="translate(63.623047 0)"/>
       <use xlink:href="#DejaVuSans-37" transform="translate(95.410156 0)"/>
       <use xlink:href="#DejaVuSans-35" transform="translate(159.033203 0)"/>
      </g>
     </g>
    </g>
    <g id="ytick_4">
     <g id="line2d_23">
      <path d="M 47.917188 124.757656 
L 935.342188 124.757656 
" clip-path="url(#p2e5a873b2b)" style="fill: none; stroke: #eef2f7; stroke-opacity: 0.25; stroke-width: 0.55; stroke-linecap: square"/>
     </g>
     <g id="line2d_24">
      <g>
       <use xlink:href="#mdc460e13f1" x="47.917188" y="124.757656" style="stroke: #000000; stroke-width: 0.8"/>
      </g>
     </g>
     <g id="text_13">
      <!-- 2.00 -->
      <g transform="translate(20.878125 128.176953) scale(0.09 -0.09)">
       <use xlink:href="#DejaVuSans-32"/>
       <use xlink:href="#DejaVuSans-2e" transform="translate(63.623047 0)"/>
       <use xlink:href="#DejaVuSans-30" transform="translate(95.410156 0)"/>
       <use xlink:href="#DejaVuSans-30" transform="translate(159.033203 0)"/>
      </g>
     </g>
    </g>
    <g id="ytick_5">
     <g id="line2d_25">
      <path d="M 47.917188 98.063185 
L 935.342188 98.063185 
" clip-path="url(#p2e5a873b2b)" style="fill: none; stroke: #eef2f7; stroke-opacity: 0.25; stroke-width: 0.55; stroke-linecap: square"/>
     </g>
     <g id="line2d_26">
      <g>
       <use xlink:href="#mdc460e13f1" x="47.917188" y="98.063185" style="stroke: #000000; stroke-width: 0.8"/>
      </g>
     </g>
     <g id="text_14">
      <!-- 2.25 -->
      <g transform="translate(20.878125 101.482482) scale(0.09 -0.09)">
       <use xlink:href="#DejaVuSans-32"/>
       <use xlink:href="#DejaVuSans-2e" transform="translate(63.623047 0)"/>
       <use xlink:href="#DejaVuSans-32" transform="translate(95.410156 0)"/>
       <use xlink:href="#DejaVuSans-35" transform="translate(159.033203 0)"/>
      </g>
     </g>
    </g>
    <g id="ytick_6">
     <g id="line2d_27">
      <path d="M 47.917188 71.368715 
L 935.342188 71.368715 
" clip-path="url(#p2e5a873b2b)" style="fill: none; stroke: #eef2f7; stroke-opacity: 0.25; stroke-width: 0.55; stroke-linecap: square"/>
     </g>
     <g id="line2d_28">
      <g>
       <use xlink:href="#mdc460e13f1" x="47.917188" y="71.368715" style="stroke: #000000; stroke-width: 0.8"/>
      </g>
     </g>
     <g id="text_15">
      <!-- 2.50 -->
      <g transform="translate(20.878125 74.788012) scale(0.09 -0.09)">
       <use xlink:href="#DejaVuSans-32"/>
       <use xlink:href="#DejaVuSans-2e" transform="translate(63.623047 0)"/>
       <use xlink:href="#DejaVuSans-35" transform="translate(95.410156 0)"/>
       <use xlink:href="#DejaVuSans-30" transform="translate(159.033203 0)"/>
      </g>
     </g>
    </g>
    <g id="ytick_7">
     <g id="line2d_29">
      <path d="M 47.917188 44.674244 
L 935.342188 44.674244 
" clip-path="url(#p2e5a873b2b)" style="fill: none; stroke: #eef2f7; stroke-opacity: 0.25; stroke-width: 0.55; stroke-linecap: square"/>
     </g>
     <g id="line2d_30">
      <g>
       <use xlink:href="#mdc460e13f1" x="47.917188" y="44.674244" style="stroke: #000000; stroke-width: 0.8"/>
      </g>
     </g>
     <g id="text_16">
      <!-- 2.75 -->
      <g transform="translate(20.878125 48.093541) scale(0.09 -0.09)">
       <use xlink:href="#DejaVuSans-32"/>
       <use xlink:href="#DejaVuSans-2e" transform="translate(63.623047 0)"/>
       <use xlink:href="#DejaVuSans-37" transform="translate(95.410156 0)"/>
       <use xlink:href="#DejaVuSans-35" transform="translate(159.033203 0)"/>
      </g>
     </g>
    </g>
    <g id="ytick_8">
     <g id="line2d_31">
      <path d="M 47.917188 17.979774 
L 935.342188 17.979774 
" clip-path="url(#p2e5a873b2b)" style="fill: none; stroke: #eef2f7; stroke-opacity: 0.25; stroke-width: 0.55; stroke-linecap: square"/>
     </g>
     <g id="line2d_32">
      <g>
       <use xlink:href="#mdc460e13f1" x="47.917188" y="17.979774" style="stroke: #000000; stroke-width: 0.8"/>
      </g>
     </g>
     <g id="text_17">
      <!-- 3.00 -->
      <g transform="translate(20.878125 21.399071) scale(0.09 -0.09)">
       <defs>
        <path id="DejaVuSans-33" d="M 2597 2516 
Q 3050 2419 3304 2112 
Q 3559 1806 3559 1356 
Q 3559 666 3084 287 
Q 2609 -91 1734 -91 
Q 1441 -91 1130 -33 
Q 819 25 488 141 
L 488 750 
Q 750 597 1062 519 
Q 1375 441 1716 441 
Q 2309 441 2620 675 
Q 2931 909 2931 1356 
Q 2931 1769 2642 2001 
Q 2353 2234 1838 2234 
L 1294 2234 
L 1294 2753 
L 1863 2753 
Q 2328 2753 2575 2939 
Q 2822 3125 2822 3475 
Q 2822 3834 2567 4026 
Q 2313 4219 1838 4219 
Q 1578 4219 1281 4162 
Q 984 4106 628 3988 
L 628 4550 
Q 988 4650 1302 4700 
Q 1616 4750 1894 4750 
Q 2613 4750 3031 4423 
Q 3450 4097 3450 3541 
Q 3450 3153 3228 2886 
Q 3006 2619 2597 2516 
z
" transform="scale(0.015625)"/>
       </defs>
       <use xlink:href="#DejaVuSans-33"/>
       <use xlink:href="#DejaVuSans-2e" transform="translate(63.623047 0)"/>
       <use xlink:href="#DejaVuSans-30" transform="translate(95.410156 0)"/>
       <use xlink:href="#DejaVuSans-30" transform="translate(159.033203 0)"/>
      </g>
     </g>
    </g>
    <g id="text_18">
     <!-- EDA (uS) -->
     <g transform="translate(14.798438 145.183854) rotate(-90) scale(0.1 -0.1)">
      <defs>
       <path id="DejaVuSans-45" d="M 628 4666 
L 3578 4666 
L 3578 4134 
L 1259 4134 
L 1259 2753 
L 3481 2753 
L 3481 2222 
L 1259 2222 
L 1259 531 
L 3634 531 
L 3634 0 
L 628 0 
L 628 4666 
z
" transform="scale(0.015625)"/>
       <path id="DejaVuSans-44" d="M 1259 4147 
L 1259 519 
L 2022 519 
Q 2988 519 3436 956 
Q 3884 1394 3884 2338 
Q 3884 3275 3436 3711 
Q 2988 4147 2022 4147 
L 1259 4147 
z
M 628 4666 
L 1925 4666 
Q 3281 4666 3915 4102 
Q 4550 3538 4550 2338 
Q 4550 1131 3912 565 
Q 3275 0 1925 0 
L 628 0 
L 628 4666 
z
" transform="scale(0.015625)"/>
       <path id="DejaVuSans-41" d="M 2188 4044 
L 1331 1722 
L 3047 1722 
L 2188 4044 
z
M 1831 4666 
L 2547 4666 
L 4325 0 
L 3669 0 
L 3244 1197 
L 1141 1197 
L 716 0 
L 50 0 
L 1831 4666 
z
" transform="scale(0.015625)"/>
       <path id="DejaVuSans-28" d="M 1984 4856 
Q 1566 4138 1362 3434 
Q 1159 2731 1159 2009 
Q 1159 1288 1364 580 
Q 1569 -128 1984 -844 
L 1484 -844 
Q 1016 -109 783 600 
Q 550 1309 550 2009 
Q 550 2706 781 3412 
Q 1013 4119 1484 4856 
L 1984 4856 
z
" transform="scale(0.015625)"/>
       <path id="DejaVuSans-53" d="M 3425 4513 
L 3425 3897 
Q 3066 4069 2747 4153 
Q 2428 4238 2131 4238 
Q 1616 4238 1336 4038 
Q 1056 3838 1056 3469 
Q 1056 3159 1242 3001 
Q 1428 2844 1947 2747 
L 2328 2669 
Q 3034 2534 3370 2195 
Q 3706 1856 3706 1288 
Q 3706 609 3251 259 
Q 2797 -91 1919 -91 
Q 1588 -91 1214 -16 
Q 841 59 441 206 
L 441 856 
Q 825 641 1194 531 
Q 1563 422 1919 422 
Q 2459 422 2753 634 
Q 3047 847 3047 1241 
Q 3047 1584 2836 1778 
Q 2625 1972 2144 2069 
L 1759 2144 
Q 1053 2284 737 2584 
Q 422 2884 422 3419 
Q 422 4038 858 4394 
Q 1294 4750 2059 4750 
Q 2388 4750 2728 4690 
Q 3069 4631 3425 4513 
z
" transform="scale(0.015625)"/>
       <path id="DejaVuSans-29" d="M 513 4856 
L 1013 4856 
Q 1481 4119 1714 3412 
Q 1947 2706 1947 2009 
Q 1947 1309 1714 600 
Q 1481 -109 1013 -844 
L 513 -844 
Q 928 -128 1133 580 
Q 1338 1288 1338 2009 
Q 1338 2731 1133 3434 
Q 928 4138 513 4856 
z
" transform="scale(0.015625)"/>
      </defs>
      <use xlink:href="#DejaVuSans-45"/>
      <use xlink:href="#DejaVuSans-44" transform="translate(63.183594 0)"/>
      <use xlink:href="#DejaVuSans-41" transform="translate(138.435547 0)"/>
      <use xlink:href="#DejaVuSans-20" transform="translate(206.84375 0)"/>
      <use xlink:href="#DejaVuSans-28" transform="translate(238.630859 0)"/>
      <use xlink:href="#DejaVuSans-75" transform="translate(277.644531 0)"/>
      <use xlink:href="#DejaVuSans-53" transform="translate(341.023438 0)"/>
      <use xlink:href="#DejaVuSans-29" transform="translate(404.5 0)"/>
     </g>
    </g>
   </g>
   <g id="line2d_33">
    <path d="M 47.928447 134.36553 
L 48.227523 132.945747 
L 48.526599 130.181485 
L 48.825676 130.468827 
L 49.124752 129.811175 
L 49.423829 133.876905 
L 49.722905 127.95656 
L 50.021981 126.479929 
L 50.321058 124.07368 
L 50.919211 126.166467 
L 51.218287 119.995667 
L 51.81644 127.90278 
L 52.115516 124.683701 
L 52.414593 143.947489 
L 52.713669 144.906294 
L 53.311822 129.391694 
L 53.610898 114.609426 
L 53.909975 118.034395 
L 54.209051 125.116382 
L 54.508127 139.887296 
L 54.807204 137.359664 
L 55.405357 120.892393 
L 55.704433 123.060484 
L 56.003509 116.471717 
L 56.302586 94.971637 
L 56.601662 88.902236 
L 56.900739 86.70189 
L 57.199815 86.797153 
L 57.797968 102.881818 
L 58.396121 74.971202 
L 58.994273 70.619695 
L 59.29335 72.632569 
L 59.891503 65.479911 
L 60.190579 66.523224 
L 60.489655 62.687976 
L 60.788732 66.232827 
L 61.087808 66.166738 
L 61.386885 68.387068 
L 61.685961 68.729731 
L 61.985037 65.469143 
L 62.284114 66.652295 
L 62.58319 68.695923 
L 63.181343 70.114153 
L 63.480419 69.524117 
L 63.779496 70.349256 
L 64.078572 71.63536 
L 64.377649 71.928838 
L 64.676725 68.974024 
L 64.975801 70.662718 
L 65.573954 71.616903 
L 65.873031 70.462951 
L 66.172107 70.098802 
L 66.471183 70.565902 
L 66.77026 78.844865 
L 67.069336 77.586434 
L 67.368413 79.003136 
L 67.667492 77.930623 
L 67.966569 80.756341 
L 68.265646 82.013245 
L 68.564722 79.96501 
L 68.863799 80.992971 
L 69.162876 79.059984 
L 69.461953 81.733591 
L 69.76103 82.237579 
L 70.060107 82.183812 
L 70.359184 81.564576 
L 70.658261 79.245902 
L 70.957337 78.09503 
L 71.256414 75.316944 
L 71.555491 77.045557 
L 71.854568 75.619638 
L 72.153645 75.177104 
L 72.452722 71.509344 
L 73.050875 76.758214 
L 73.349952 75.87778 
L 73.649029 75.794813 
L 73.948106 74.880546 
L 74.247183 72.829256 
L 74.54626 69.955882 
L 74.845337 69.342806 
L 75.144414 70.650422 
L 75.44349 68.967889 
L 75.742567 70.811748 
L 76.041644 68.325613 
L 76.340721 69.439622 
L 76.639798 71.902718 
L 76.938875 69.321294 
L 77.237952 68.688234 
L 77.537028 70.776413 
L 77.836105 65.028162 
L 78.135182 63.706722 
L 78.733336 66.729127 
L 79.032413 60.725203 
L 79.33149 62.959331 
L 79.630567 63.030028 
L 79.929643 63.723015 
L 80.22872 59.926184 
L 80.527797 61.232247 
L 80.826874 59.975343 
L 81.125951 61.550317 
L 81.425028 61.342886 
L 81.724105 52.538423 
L 82.023181 54.099573 
L 82.322258 52.427783 
L 82.621335 52.70899 
L 82.920412 49.569785 
L 83.219489 43.859339 
L 83.518566 50.357425 
L 83.817643 45.070139 
L 84.116719 49.629102 
L 84.415796 44.885773 
L 84.714873 44.504695 
L 85.01395 42.622419 
L 85.313027 42.545588 
L 85.612104 41.328627 
L 85.911181 43.11564 
L 86.210258 42.902074 
L 86.509334 43.896228 
L 86.808411 42.133782 
L 87.107488 41.523787 
L 87.406565 39.160562 
L 87.705642 39.543168 
L 88.004719 40.588008 
L 88.303796 42.096919 
L 88.602872 38.97309 
L 88.901949 37.859107 
L 89.201026 40.910686 
L 89.500103 39.773637 
L 90.098257 40.707863 
L 90.397334 37.206062 
L 90.696411 37.995841 
L 90.995487 39.304984 
L 91.593641 37.396589 
L 91.892718 35.956847 
L 92.191795 38.353854 
L 92.490872 36.560706 
L 92.789949 31.525402 
L 93.089025 32.554917 
L 93.388102 35.176259 
L 93.687179 32.029391 
L 93.986256 30.472873 
L 94.285333 33.163384 
L 94.883487 28.664349 
L 95.182564 28.684333 
L 95.48164 29.000851 
L 96.079794 26.692946 
L 96.677948 30.743312 
L 96.977025 28.280216 
L 97.276102 30.497466 
L 97.874255 27.959065 
L 98.173332 29.735335 
L 98.472409 30.737151 
L 98.771486 31.245748 
L 99.070563 30.956878 
L 99.36964 30.904638 
L 99.668716 30.712584 
L 99.967793 30.89695 
L 100.26687 31.61453 
L 100.565947 31.470108 
L 100.865024 33.012801 
L 101.164101 32.345933 
L 101.463178 33.535221 
L 101.762255 32.252198 
L 102.360408 34.538591 
L 102.958562 33.974674 
L 103.257639 35.38985 
L 103.855793 34.146769 
L 104.154869 32.352069 
L 104.753023 35.674112 
L 105.0521 35.38985 
L 105.351177 36.234948 
L 105.650254 35.720216 
L 105.949331 35.711 
L 106.248408 36.327156 
L 106.547484 34.739886 
L 106.846561 36.308699 
L 107.145638 34.521687 
L 107.444715 34.798286 
L 107.743792 33.739597 
L 108.042869 34.81519 
L 108.341946 33.870195 
L 108.641022 35.068699 
L 108.940099 35.684881 
L 109.239176 34.160618 
L 109.83733 37.009375 
L 110.136407 35.485113 
L 110.435484 37.319757 
L 111.332714 40.042548 
L 111.631791 41.104293 
L 111.930868 41.167301 
L 112.229945 42.069246 
L 112.529022 40.475841 
L 112.828099 41.433131 
L 113.127175 41.267172 
L 113.426252 42.568627 
L 113.725329 41.153477 
L 114.323483 44.04065 
L 114.921637 45.239179 
L 115.220713 45.586424 
L 115.818867 46.929375 
L 116.117944 46.760361 
L 116.716098 48.705645 
L 117.015175 48.0818 
L 117.314252 49.005258 
L 117.912405 47.290469 
L 118.211482 48.77018 
L 118.510559 48.469014 
L 118.809636 48.65646 
L 119.108713 48.691821 
L 119.40779 49.118978 
L 119.706867 49.037538 
L 120.30502 49.92566 
L 120.604097 50.000964 
L 120.903174 49.115898 
L 121.202251 47.229014 
L 121.501328 48.845459 
L 121.800405 48.453638 
L 122.099481 49.43244 
L 122.398558 47.984984 
L 123.893943 51.010469 
L 124.193019 51.145701 
L 124.791173 52.849721 
L 125.09025 51.746481 
L 125.389327 53.133983 
L 125.987481 54.152729 
L 126.286558 52.941929 
L 126.585634 54.33404 
L 126.884711 52.396445 
L 127.183788 54.035954 
L 127.482865 53.565774 
L 127.781942 52.709907 
L 128.081019 53.381383 
L 128.380096 53.172399 
L 128.679173 50.64324 
L 129.576403 53.744004 
L 129.87548 54.086666 
L 130.174557 53.831579 
L 130.473634 54.498447 
L 130.772711 54.705877 
L 131.370864 55.978158 
L 131.669941 56.477538 
L 131.969018 55.166868 
L 132.268095 56.58357 
L 132.567172 55.474169 
L 132.866249 55.71388 
L 133.165325 56.437595 
L 133.464402 57.546971 
L 133.763479 57.096775 
L 134.062556 57.983369 
L 134.361633 58.476589 
L 134.66071 59.357048 
L 134.959787 58.879179 
L 135.258864 58.974443 
L 135.55794 56.23322 
L 135.857017 58.733204 
L 136.455171 60.269762 
L 136.754248 59.963988 
L 137.053325 60.945846 
L 137.352402 60.089979 
L 137.651478 60.440304 
L 138.249632 62.090583 
L 138.548709 62.651419 
L 138.847786 60.278978 
L 139.146863 62.337957 
L 139.44594 62.317972 
L 139.745017 63.367446 
L 140.044093 63.828411 
L 140.34317 63.35515 
L 140.642247 64.07273 
L 140.941324 64.166465 
L 141.240401 64.516791 
L 141.539478 62.886522 
L 141.838555 62.935681 
L 142.137631 63.502678 
L 142.436708 65.194427 
L 142.735785 63.253751 
L 143.034862 62.576115 
L 143.333939 62.951058 
L 143.633016 64.260201 
L 144.530246 66.386796 
L 144.829323 66.10098 
L 145.1284 66.667977 
L 145.427477 66.320707 
L 145.726554 67.523844 
L 146.025631 66.995263 
L 146.324708 67.164278 
L 146.623784 66.49741 
L 147.221938 68.309014 
L 147.521015 68.537957 
L 148.119169 70.263514 
L 148.418246 68.968194 
L 148.717323 68.852947 
L 149.016399 69.733406 
L 149.315476 69.453751 
L 149.614553 68.608653 
L 149.91363 69.466047 
L 150.212707 69.845573 
L 150.511784 70.936517 
L 150.810861 69.965428 
L 151.109937 71.28226 
L 151.409014 70.192843 
L 151.708091 70.692224 
L 152.306245 72.317885 
L 152.605322 72.81113 
L 152.904399 72.580635 
L 153.203476 71.485083 
L 153.502552 72.588323 
L 153.801629 72.663602 
L 154.100706 72.339396 
L 154.399783 71.763184 
L 154.69886 73.262879 
L 154.997937 74.138705 
L 155.59609 75.208138 
L 155.895167 74.301584 
L 156.792398 76.70936 
L 157.091475 76.737033 
L 157.390552 75.371017 
L 157.689629 75.518545 
L 157.988705 76.435867 
L 158.287782 76.468122 
L 158.586859 74.722606 
L 158.885936 74.996099 
L 159.185013 75.89807 
L 159.48409 75.749015 
L 159.783167 77.005919 
L 160.082243 77.408509 
L 160.38132 77.16419 
L 160.680397 78.135279 
L 160.979474 77.944753 
L 161.278551 75.154371 
L 161.577628 76.869159 
L 161.876705 77.259453 
L 162.175782 78.129144 
L 162.474858 77.606724 
L 162.773935 77.539108 
L 163.372089 78.616228 
L 163.671166 79.507431 
L 163.970243 78.60854 
L 164.26932 79.324592 
L 164.568396 78.497926 
L 164.867473 79.765573 
L 165.16655 79.853148 
L 165.465627 79.811677 
L 165.764704 78.961946 
L 166.063781 80.598375 
L 166.362858 80.970238 
L 166.661935 80.891878 
L 166.961011 81.508034 
L 167.260088 80.346393 
L 167.858242 82.314717 
L 168.157319 82.220981 
L 168.456396 83.09836 
L 169.054549 84.177033 
L 169.652703 85.20805 
L 170.250857 86.168396 
L 170.549934 85.022131 
L 170.849011 86.216027 
L 171.148087 86.475723 
L 171.447164 86.45113 
L 172.344395 87.807905 
L 172.643472 88.233535 
L 172.942549 88.341094 
L 173.241626 87.992297 
L 173.540702 88.227374 
L 173.839779 88.227374 
L 174.138856 87.612771 
L 174.437933 86.388122 
L 174.73701 87.142565 
L 175.036087 87.262421 
L 175.335164 88.164391 
L 175.63424 88.465558 
L 175.933317 88.949562 
L 176.232394 89.03869 
L 176.531471 86.936688 
L 176.830548 87.237854 
L 177.727779 88.795898 
L 178.026855 89.679438 
L 178.325932 89.805429 
L 178.625009 90.074314 
L 178.924086 89.554975 
L 179.223163 90.186482 
L 179.52224 90.000563 
L 179.821317 91.054644 
L 180.120393 91.487962 
L 180.41947 90.227978 
L 180.718547 90.738127 
L 181.017624 91.747632 
L 181.316701 91.979655 
L 181.914855 93.122839 
L 182.213932 93.440909 
L 182.513008 93.94029 
L 182.812085 94.014041 
L 183.410239 94.644046 
L 183.709316 93.783571 
L 184.008393 95.112699 
L 184.606546 95.896342 
L 184.905623 95.793391 
L 185.2047 96.727617 
L 185.503777 96.723009 
L 185.802854 97.16707 
L 186.101931 96.931967 
L 186.401008 96.300434 
L 186.700084 96.005429 
L 186.999161 96.758344 
L 187.298238 96.664608 
L 187.597315 96.451017 
L 187.896392 97.323788 
L 188.195469 97.703313 
L 188.494546 98.328711 
L 188.793623 97.549675 
L 189.092699 98.175047 
L 189.391776 98.465445 
L 189.690853 98.277999 
L 189.98993 98.451621 
L 190.289007 98.898762 
L 190.588084 98.748179 
L 190.887161 99.421182 
L 191.186237 99.737725 
L 191.485314 99.436559 
L 191.784391 99.59175 
L 192.083468 99.564103 
L 192.382545 100.257065 
L 192.980699 100.026595 
L 194.77516 102.354485 
L 195.074237 102.560362 
L 195.373314 103.274862 
L 195.67239 103.300981 
L 196.569621 104.345847 
L 196.868698 104.3182 
L 197.167775 105.118747 
L 197.765929 105.435264 
L 198.065005 104.8145 
L 198.663159 105.26933 
L 198.962236 105.796358 
L 199.261313 105.252426 
L 199.56039 105.088019 
L 199.859467 105.055739 
L 200.158543 105.814789 
L 200.45762 105.409144 
L 201.354851 106.423282 
L 202.252085 107.286812 
L 202.551161 109.271123 
L 202.850238 109.266515 
L 204.644696 111.20103 
L 204.943772 107.694621 
L 205.242849 107.994234 
L 205.541925 108.587351 
L 205.841002 109.541561 
L 206.140078 109.49393 
L 206.439154 110.053238 
L 207.336384 110.844569 
L 207.63546 111.096551 
L 207.934536 110.050158 
L 208.532689 111.021272 
L 208.831766 111.033543 
L 209.130842 111.477629 
L 209.429918 111.539084 
L 209.728995 111.393109 
L 210.028071 111.4899 
L 210.327148 109.119012 
L 210.626224 110.434291 
L 210.9253 110.397428 
L 211.224377 111.231758 
L 212.420682 112.387263 
L 212.719759 112.367279 
L 213.018835 113.014162 
L 213.317912 112.998811 
L 213.616988 113.130963 
L 213.916064 112.095313 
L 214.514217 113.055658 
L 214.813294 112.464095 
L 215.411446 114.05134 
L 215.710523 114.559936 
L 216.308676 114.914895 
L 216.607752 114.735111 
L 216.906828 115.388156 
L 217.804058 116.145679 
L 218.103134 115.978192 
L 218.40221 116.19023 
L 218.701287 116.19023 
L 219.29944 113.917661 
L 219.598516 112.829797 
L 220.196669 113.874637 
L 220.495745 114.718207 
L 220.794822 111.835643 
L 221.392974 113.462856 
L 221.692051 114.131252 
L 221.991127 113.682583 
L 222.58928 114.696696 
L 222.888356 114.394002 
L 223.187433 113.854678 
L 223.486509 114.043677 
L 224.084662 115.295948 
L 224.383738 115.652434 
L 224.682815 115.451138 
L 224.981891 113.670287 
L 225.580044 115.824528 
L 225.879121 116.208662 
L 226.178197 114.768919 
L 226.477273 116.383837 
L 226.77635 116.665019 
L 227.075426 117.107552 
L 227.374503 117.327279 
L 227.673579 117.854332 
L 227.972655 116.731107 
L 228.271732 117.490158 
L 228.869885 113.673367 
L 229.168961 115.275989 
L 229.767114 116.695772 
L 230.06619 117.169007 
L 230.365267 117.024585 
L 230.664343 117.91426 
L 230.963419 116.821763 
L 231.262496 117.665333 
L 231.561572 117.755989 
L 231.860649 117.490158 
L 232.159725 118.379833 
L 232.458801 118.040251 
L 232.757878 118.508904 
L 233.056954 115.869105 
L 233.356031 117.666861 
L 233.655107 118.278409 
L 234.25326 118.833109 
L 234.552336 118.544239 
L 234.851413 117.886587 
L 235.150489 118.050994 
L 235.449565 117.872764 
L 235.748642 118.482784 
L 236.047718 118.435153 
L 236.346795 119.209554 
L 236.645871 119.593713 
L 236.944947 119.6736 
L 237.244024 118.793166 
L 237.842177 120.134565 
L 238.141253 118.840798 
L 238.440329 119.30021 
L 238.739406 120.136118 
L 239.038482 120.575571 
L 239.337559 121.26087 
L 239.636635 119.750431 
L 239.935711 121.101071 
L 240.533864 120.724601 
L 240.832941 121.425277 
L 241.132017 119.572201 
L 241.431093 120.59553 
L 241.73017 119.885638 
L 242.328323 121.107207 
L 242.627399 120.263636 
L 242.926475 121.028847 
L 243.225552 120.813729 
L 243.524628 118.89151 
L 244.122781 119.954807 
L 244.421857 120.554059 
L 244.720934 119.30021 
L 245.02001 119.850303 
L 245.319087 120.743058 
L 245.618163 121.097991 
L 245.917239 120.706169 
L 246.216316 121.154838 
L 246.515392 119.672072 
L 246.814469 120.744585 
L 247.113545 121.039591 
L 247.412621 116.867867 
L 247.711698 118.797774 
L 248.010774 119.029797 
L 248.309851 120.386572 
L 248.608927 120.922816 
L 248.908004 119.068213 
L 249.20708 116.42378 
L 249.805233 118.196969 
L 250.104309 118.501216 
L 250.403386 117.064528 
L 250.702462 118.954492 
L 251.001538 119.321722 
L 251.300615 119.306371 
L 251.599691 115.271381 
L 251.898768 117.550086 
L 252.197844 117.305767 
L 252.49692 118.263058 
L 252.795997 117.742165 
L 253.095073 119.068213 
L 253.39415 119.27717 
L 253.992302 120.045462 
L 254.291379 120.279012 
L 254.590455 121.122583 
L 254.889532 121.399157 
L 255.188608 118.481231 
L 255.487684 120.05007 
L 256.085837 121.657299 
L 256.68399 121.996881 
L 256.983066 122.777444 
L 257.282143 122.540813 
L 257.581219 123.047882 
L 257.880296 122.543894 
L 258.179372 122.897299 
L 258.478448 123.545736 
L 258.777525 122.746716 
L 259.076601 123.780813 
L 259.375678 122.420958 
L 260.571983 124.112707 
L 260.87106 124.876378 
L 261.768289 125.801389 
L 262.067365 124.822599 
L 262.665518 126.004211 
L 262.964594 124.194758 
L 263.263671 126.116989 
L 264.1609 127.644332 
L 264.459976 127.88403 
L 265.357206 129.142474 
L 265.656282 129.147082 
L 266.254435 129.824706 
L 266.553511 130.085916 
L 266.852588 127.982374 
L 267.151664 129.422129 
L 267.45074 129.84007 
L 267.749817 128.878184 
L 268.048893 129.823166 
L 268.34797 130.373259 
L 268.647046 130.50079 
L 269.245199 131.580991 
L 269.544275 131.803785 
L 269.843352 132.224807 
L 270.740581 132.913187 
L 271.039657 133.318832 
L 271.63781 133.647658 
L 272.235963 134.465096 
L 272.834116 133.166708 
L 273.133192 134.064059 
L 273.731345 134.56652 
L 274.030421 134.634123 
L 274.329498 133.682993 
L 274.628574 134.286866 
L 274.927651 133.784404 
L 275.226727 134.415937 
L 275.525803 134.694051 
L 275.82488 134.623367 
L 276.123956 133.84894 
L 276.423033 133.466334 
L 277.021185 134.697119 
L 277.320262 134.611071 
L 277.619338 133.79516 
L 277.918415 134.110163 
L 278.815644 135.422374 
L 279.712873 136.448796 
L 280.311026 136.96354 
L 280.909179 137.736427 
L 281.507331 137.777911 
L 281.806408 137.318486 
L 282.105484 138.049889 
L 282.404561 137.943858 
L 282.703637 136.745354 
L 283.002713 136.968148 
L 283.30179 137.693403 
L 283.600866 137.527457 
L 283.899943 138.000718 
L 284.199019 137.974598 
L 284.498095 138.54619 
L 284.797172 137.853202 
L 285.096248 138.503166 
L 285.395325 138.853504 
L 285.993477 138.788969 
L 286.292554 138.959523 
L 286.890707 139.687859 
L 287.189783 139.832294 
L 287.488859 139.763151 
L 288.087012 140.459206 
L 288.386089 139.993633 
L 288.685165 139.830754 
L 288.984241 140.056628 
L 289.283318 140.572913 
L 289.582394 140.678932 
L 289.881471 140.993922 
L 290.180547 140.835664 
L 290.7787 141.212121 
L 291.077776 141.593187 
L 291.376853 140.858703 
L 291.675929 141.133749 
L 291.975005 140.834123 
L 292.274082 141.71611 
L 292.573158 141.71303 
L 292.872235 141.960416 
L 293.171311 141.374988 
L 293.470387 142.080271 
L 293.769464 142.051071 
L 294.06854 142.387586 
L 294.367617 142.341482 
L 294.666693 142.496672 
L 294.965769 142.203195 
L 295.563922 143.321812 
L 295.862999 143.412467 
L 296.162075 143.307975 
L 296.461151 142.327658 
L 296.760228 143.249588 
L 297.059304 143.581482 
L 297.358381 142.52894 
L 297.657457 143.209644 
L 297.956534 143.317204 
L 298.25561 142.455189 
L 298.853763 142.745599 
L 299.152839 142.992986 
L 299.451916 142.6657 
L 299.750992 143.005282 
L 300.050068 142.696427 
L 300.349145 140.620545 
L 300.648221 139.543411 
L 300.947298 140.745008 
L 301.246374 139.618703 
L 301.844527 140.812611 
L 302.143603 138.931863 
L 302.44268 140.139596 
L 302.741756 138.905744 
L 303.040832 140.403886 
L 303.339909 140.924779 
L 303.638985 139.465052 
L 303.938062 140.055088 
L 304.237138 139.882993 
L 304.536214 137.973058 
L 304.835291 137.954614 
L 305.134367 137.449097 
L 305.433444 138.739797 
L 305.73252 139.176182 
L 306.031596 138.168205 
L 306.330673 138.275764 
L 306.629749 136.350452 
L 306.928826 133.275808 
L 307.227902 135.838788 
L 307.526978 135.878731 
L 307.826055 134.345253 
L 308.125131 133.807457 
L 308.424208 134.863065 
L 308.723284 133.507831 
L 309.02236 131.471891 
L 309.321437 133.386435 
L 309.620513 133.240472 
L 309.91959 132.667328 
L 310.517742 134.966017 
L 310.816819 133.112929 
L 311.115895 134.714023 
L 311.414972 133.21434 
L 311.714048 134.675607 
L 312.013124 135.568349 
L 312.312201 135.69742 
L 313.508506 137.870106 
L 313.807583 134.821582 
L 314.106659 136.865197 
L 314.405736 137.771763 
L 314.704812 137.773303 
L 315.003888 137.296974 
L 315.302965 138.178961 
L 315.602041 138.108277 
L 315.901118 137.57048 
L 316.200194 137.450625 
L 316.49927 137.676499 
L 316.798347 138.606118 
L 317.097423 138.125181 
L 317.3965 138.894988 
L 317.994652 136.404232 
L 318.293729 138.099061 
L 318.592805 138.787428 
L 318.891882 138.772065 
L 319.190958 139.311401 
L 319.490034 135.709717 
L 319.789111 138.564634 
L 320.088187 139.17925 
L 320.387264 138.371027 
L 320.68634 139.279134 
L 320.985416 138.930336 
L 321.284493 139.700142 
L 321.583569 139.712439 
L 322.181722 141.161409 
L 322.480799 141.430308 
L 322.779875 142.061827 
L 323.078951 142.278486 
L 323.378028 141.37038 
L 323.677104 142.183223 
L 323.976181 141.540935 
L 324.275257 138.509314 
L 324.87341 139.959825 
L 325.172486 139.836902 
L 325.471563 140.216427 
L 325.770639 137.195563 
L 326.069715 136.576327 
L 326.667868 138.14822 
L 326.966945 138.157449 
L 327.266021 138.729041 
L 327.565097 139.544952 
L 327.864174 139.678631 
L 328.16325 135.841855 
L 328.462327 137.338458 
L 328.761403 138.105197 
L 329.359556 140.032036 
L 329.957709 141.275117 
L 330.256785 141.805225 
L 330.555861 141.756053 
L 331.752167 144.48652 
L 332.051243 145.977585 
L 332.35032 144.70225 
L 333.546625 147.382005 
L 333.845702 147.964353 
L 334.443855 148.454518 
L 335.042007 149.035338 
L 335.64016 149.666858 
L 335.939237 149.822049 
L 336.238313 150.27073 
L 336.537389 149.152113 
L 336.836466 149.421012 
L 337.135542 148.978478 
L 337.434619 150.0341 
L 337.733695 150.21541 
L 338.032771 150.255354 
L 338.331848 149.777485 
L 338.630924 150.630284 
L 338.930001 150.879198 
L 339.229077 151.423143 
L 339.528153 151.357067 
L 339.82723 151.862596 
L 340.126306 152.005491 
L 340.425383 152.385029 
L 341.920765 153.495957 
L 342.518917 154.055266 
L 342.817994 154.344136 
L 343.11707 154.420955 
L 343.416147 154.863488 
L 343.715223 154.954144 
L 344.014299 154.702149 
L 344.612452 155.714735 
L 344.911529 156.091192 
L 345.210605 156.218736 
L 345.509681 156.478406 
L 345.808758 156.52143 
L 346.107834 156.418478 
L 346.406911 156.996231 
L 347.30414 157.368081 
L 347.603216 157.901257 
L 347.902293 158.034936 
L 348.201369 158.328427 
L 348.500446 158.004208 
L 349.098598 158.669536 
L 350.294904 159.377887 
L 350.59398 159.715929 
L 351.192133 159.825029 
L 351.49121 159.631422 
L 352.388439 160.439644 
L 352.687515 160.411985 
L 352.986592 159.818881 
L 353.285668 160.553352 
L 353.584744 160.87757 
L 353.883821 160.782307 
L 355.678279 161.821012 
L 355.977356 161.845591 
L 356.575508 162.306569 
L 356.874585 162.186714 
L 357.173661 162.583143 
L 357.771814 162.918117 
L 358.07089 163.656267 
L 358.669043 164.20636 
L 358.96812 164.459894 
L 359.267196 164.189456 
L 359.566272 164.568981 
L 359.865349 164.644273 
L 360.463502 165.246605 
L 361.360731 165.563135 
L 361.659807 165.904257 
L 362.856113 166.02872 
L 363.753342 166.574193 
L 364.052418 166.303754 
L 364.351495 166.624892 
L 364.949648 166.846159 
L 365.248724 166.795459 
L 365.5478 167.056669 
L 365.846877 166.796987 
L 366.145953 167.107381 
L 366.44503 167.135029 
L 366.744106 167.345539 
L 367.043182 167.113517 
L 367.342259 167.416223 
L 367.641335 167.396251 
L 367.940412 168.023163 
L 368.538564 168.159923 
L 368.837641 167.783465 
L 369.136717 168.166058 
L 369.73487 168.402688 
L 370.033947 168.405769 
L 370.333023 168.685423 
L 370.632099 168.557879 
L 370.931176 167.788073 
L 371.230252 168.182962 
L 371.529329 168.278238 
L 371.828405 168.597836 
L 372.127481 168.58862 
L 372.426558 168.359665 
L 372.725634 168.699247 
L 373.024711 168.537908 
L 373.323787 168.101522 
L 374.221016 168.829858 
L 374.520093 168.522544 
L 374.819169 169.203235 
L 375.118245 169.117188 
L 375.417322 169.307727 
L 375.716398 169.341522 
L 376.015475 169.688793 
L 376.314551 169.859347 
L 376.613627 169.74718 
L 377.21178 169.224747 
L 377.510857 169.780988 
L 377.809933 169.439866 
L 378.408086 169.979203 
L 378.707162 169.676497 
L 379.604391 170.002242 
L 379.903468 169.104905 
L 380.202544 169.930031 
L 380.501621 167.915604 
L 380.800697 168.5041 
L 381.099773 168.45032 
L 381.39885 168.258253 
L 381.697926 168.332018 
L 381.997003 167.167296 
L 382.296079 167.456179 
L 382.595155 167.228764 
L 382.894232 165.334192 
L 383.193308 166.412854 
L 383.492385 166.159319 
L 383.791461 166.612608 
L 384.090537 166.091716 
L 384.389614 165.796698 
L 384.68869 166.31451 
L 384.987767 165.553919 
L 385.286843 165.993372 
L 385.585919 164.957735 
L 385.884996 164.473718 
L 386.483149 165.60001 
L 386.782225 165.051471 
L 387.081301 165.303465 
L 387.380378 164.923927 
L 387.679454 165.245077 
L 387.978531 165.303465 
L 388.277607 165.789009 
L 388.576683 163.817606 
L 388.87576 165.097562 
L 389.473913 165.924229 
L 389.772989 165.97032 
L 390.371142 166.402098 
L 390.670218 166.601852 
L 391.268371 166.720168 
L 391.567447 167.024402 
L 391.866524 166.744747 
L 392.1656 167.331716 
L 392.464677 166.746287 
L 392.763753 167.304056 
L 393.062829 167.302516 
L 393.361906 166.861522 
L 393.660982 167.66515 
L 393.960059 167.430059 
L 394.259135 168.210622 
L 394.857288 166.635648 
L 395.156364 167.482299 
L 395.455441 167.800369 
L 396.35267 166.182371 
L 396.651746 166.411313 
L 396.950823 165.950348 
L 397.548976 166.680212 
L 397.848052 166.793919 
L 398.147128 165.232781 
L 398.446205 164.927007 
L 398.745281 166.414394 
L 399.044358 166.723235 
L 399.343434 166.697116 
L 399.64251 167.010578 
L 399.941587 166.973702 
L 400.240663 167.466935 
L 400.53974 167.505338 
L 400.838816 167.881796 
L 401.137892 168.471832 
L 401.436969 168.739203 
L 401.736045 168.854438 
L 402.035122 168.742271 
L 402.633274 169.547425 
L 402.932351 168.977361 
L 403.231427 169.083393 
L 403.530504 169.728736 
L 404.128656 170.211213 
L 404.427733 169.973055 
L 404.726809 170.155906 
L 405.025886 170.160514 
L 405.923115 171.0133 
L 406.521268 170.98872 
L 406.820344 171.477345 
L 407.11942 171.472725 
L 407.717573 171.955214 
L 408.315726 172.030506 
L 408.614802 172.274812 
L 408.913879 172.173401 
L 409.212955 172.500686 
L 409.512032 172.489931 
L 409.811108 172.851024 
L 410.110184 172.77726 
L 410.409261 173.093803 
L 410.708337 173.161406 
L 411.007414 173.371917 
L 411.30649 172.901724 
L 411.904643 173.46718 
L 412.203719 173.305841 
L 412.502796 173.842098 
L 412.801872 173.556295 
L 413.100948 173.6024 
L 413.400025 174.224703 
L 413.998178 173.680759 
L 414.297254 174.021881 
L 415.194483 174.201651 
L 415.49356 173.374985 
L 415.792636 173.986533 
L 416.091712 174.112536 
L 416.390789 173.931226 
L 416.689865 173.897418 
L 416.988942 174.12482 
L 417.288018 173.427224 
L 417.587094 173.72839 
L 417.886171 173.860542 
L 418.484324 174.427526 
L 418.7834 174.189355 
L 419.979706 175.07595 
L 420.278782 174.856223 
L 420.577859 174.0987 
L 420.876935 174.770176 
L 421.176011 173.983465 
L 421.475088 174.304603 
L 421.774164 174.290779 
L 422.671393 174.67952 
L 422.97047 173.860542 
L 423.269546 174.740988 
L 423.867699 174.913083 
L 424.465852 175.120514 
L 424.764928 175.252653 
L 425.064005 175.111298 
L 425.363081 175.550751 
L 425.662157 174.823955 
L 425.961234 173.759131 
L 426.26031 174.313819 
L 426.858463 173.994221 
L 427.157539 174.484373 
L 427.456616 174.404474 
L 427.755692 174.96839 
L 428.054769 174.919219 
L 428.353845 175.221925 
L 428.652921 173.674611 
L 428.951998 174.061824 
L 429.251074 173.113775 
L 429.550151 173.436453 
L 429.849227 172.94168 
L 430.148303 172.900196 
L 430.44738 171.521897 
L 430.746456 172.635906 
L 431.045533 173.103019 
L 431.344609 172.780341 
L 431.942762 173.524028 
L 432.540915 173.729931 
L 432.839991 174.121752 
L 434.036297 174.551989 
L 434.634449 175.208101 
L 435.232602 174.888491 
L 435.531679 175.453948 
L 435.830755 175.71209 
L 436.428908 175.770478 
L 436.727984 176.024012 
L 437.027061 176.486517 
L 437.326137 176.007108 
L 438.522443 176.681651 
L 438.821519 176.547972 
L 439.120595 174.985294 
L 439.419672 176.111587 
L 439.718748 176.657072 
L 440.316901 176.66168 
L 440.615977 176.964386 
L 440.915054 177.048893 
L 441.513207 176.965914 
L 441.812283 177.276296 
L 442.111359 177.153372 
L 442.410436 177.413055 
L 442.709512 177.431499 
L 443.008589 177.995403 
L 443.307665 177.724977 
L 443.606742 178.029211 
L 443.905818 177.95546 
L 444.204894 178.338065 
L 444.503971 178.019995 
L 444.803047 178.493256 
L 445.4012 177.681953 
L 445.700276 177.855588 
L 445.999353 178.210522 
L 446.298429 178.063019 
L 446.597506 178.302717 
L 446.896582 177.494495 
L 447.195658 178.284286 
L 447.494735 178.583912 
L 447.793811 178.61772 
L 448.092888 177.460687 
L 448.391964 177.079621 
L 449.289193 178.30119 
L 449.58827 177.995403 
L 449.887346 178.015387 
L 450.186422 178.401061 
L 450.485499 178.101435 
L 450.784575 178.511688 
L 451.083652 178.319621 
L 451.382728 178.591587 
L 451.681804 178.42564 
L 451.980881 178.593127 
L 452.279957 179.186244 
L 452.579034 179.164732 
L 453.476263 179.647209 
L 453.775339 179.558081 
L 454.074416 179.261535 
L 454.373492 179.135532 
L 454.672568 179.438238 
L 454.971645 179.409038 
L 455.270721 179.147828 
L 455.569798 179.542717 
L 455.868874 179.149368 
L 456.16795 179.72096 
L 456.766103 180.387828 
L 457.06518 180.395504 
L 457.364256 180.72587 
L 457.663332 180.114322 
L 457.962409 180.117389 
L 458.261485 180.543019 
L 458.560562 179.876151 
L 458.859638 180.334048 
L 459.158714 180.480024 
L 459.457791 181.119231 
L 460.055944 183.266409 
L 460.35502 181.863529 
L 460.654096 182.009505 
L 461.252249 182.547301 
L 461.551326 182.631808 
L 461.850402 181.586955 
L 462.149478 181.679151 
L 462.448555 182.086336 
L 462.747631 181.794386 
L 463.046708 181.828194 
L 463.64486 182.146264 
L 463.943937 182.233839 
L 464.243013 181.669923 
L 464.54209 181.706798 
L 464.841166 180.890887 
L 465.140242 180.405343 
L 465.439319 181.41332 
L 465.738395 179.905962 
L 466.037472 180.170253 
L 466.336548 179.712355 
L 466.635624 180.522118 
L 467.233777 180.777193 
L 467.532854 180.148741 
L 467.83193 180.700361 
L 468.430083 179.718503 
L 468.729159 180.242464 
L 469.028236 179.56638 
L 469.327312 180.417639 
L 469.626389 177.478202 
L 469.925465 179.01322 
L 470.224541 177.816243 
L 470.523618 179.471117 
L 471.121771 179.518749 
L 471.420847 178.733565 
L 471.719923 179.480333 
L 472.019002 179.257538 
L 472.318078 179.756919 
L 472.916231 180.142593 
L 473.215308 179.933622 
L 473.514384 179.173018 
L 473.81346 179.260606 
L 474.112537 179.958202 
L 474.411613 178.807329 
L 474.71069 180.207128 
L 475.009766 179.670872 
L 475.308842 179.744623 
L 475.607919 180.184076 
L 475.906995 179.726179 
L 476.206072 180.360779 
L 476.505148 180.452975 
L 476.804224 179.712355 
L 477.103301 179.544868 
L 477.701454 179.853723 
L 478.00053 178.377092 
L 478.598683 179.085444 
L 478.897759 179.995077 
L 479.196836 180.323903 
L 479.794988 180.605098 
L 480.094065 180.373075 
L 480.393141 178.854961 
L 480.692218 179.04242 
L 480.991294 179.689303 
L 481.29037 178.939468 
L 481.589447 179.91057 
L 481.888523 177.556573 
L 482.1876 179.30209 
L 482.486676 178.775062 
L 483.084829 174.153091 
L 483.383905 175.429979 
L 483.682982 174.574112 
L 483.982058 175.61283 
L 484.281134 172.553537 
L 484.580211 172.024969 
L 484.879287 173.613766 
L 485.178364 174.246826 
L 485.47744 174.440433 
L 485.776517 174.417381 
L 486.075593 174.647864 
L 486.374669 175.118057 
L 486.673746 173.563054 
L 487.271899 175.142637 
L 487.570975 174.953638 
L 487.870051 175.145717 
L 489.365433 177.548885 
L 489.66451 177.77476 
L 490.262663 173.698274 
L 490.860815 177.960678 
L 491.458968 178.639842 
L 491.758045 179.6217 
L 492.057121 177.82854 
L 492.655274 179.096199 
L 492.95435 179.326682 
L 493.253427 179.898274 
L 493.552503 179.852182 
L 493.851579 180.528266 
L 494.449732 180.711117 
L 494.748809 180.890887 
L 495.047885 181.228929 
L 495.346961 181.298085 
L 497.440496 182.966783 
L 497.739573 182.919151 
L 498.337725 183.538375 
L 499.234955 183.526091 
L 499.534031 183.235681 
L 499.833107 183.261801 
L 500.132184 183.804205 
L 500.43126 183.933276 
L 500.730337 184.424969 
L 501.328489 184.761471 
L 502.524795 184.904378 
L 502.823871 185.331535 
L 503.122948 185.482118 
L 503.721101 185.440635 
L 504.319253 185.703385 
L 504.61833 185.800188 
L 504.917406 185.499022 
L 505.216483 185.950771 
L 505.515559 186.11057 
L 505.814635 186.485488 
L 506.412788 186.216589 
L 506.711865 186.557712 
L 507.010941 186.639151 
L 507.310017 187.0617 
L 508.207247 187.608713 
L 508.506323 187.937539 
L 509.104476 187.900663 
L 509.702629 188.30324 
L 510.001705 187.785415 
L 510.300782 188.496847 
L 510.599858 188.667402 
L 510.898934 188.584422 
L 511.198011 188.885588 
L 512.394316 189.059223 
L 513.291546 189.490988 
L 514.188775 189.56628 
L 514.487851 189.849014 
L 514.786928 189.865918 
L 515.684157 190.474386 
L 515.983233 190.170152 
L 516.28231 190.617294 
L 517.179539 190.502046 
L 517.777692 190.801672 
L 518.076768 190.571189 
L 518.375844 190.618821 
L 518.674921 190.526638 
L 519.273074 191.030627 
L 519.871226 191.004507 
L 520.469379 191.345617 
L 520.768456 191.258029 
L 521.366608 191.829634 
L 522.263838 191.471607 
L 522.562914 190.7525 
L 522.86199 192.696244 
L 523.161067 192.991262 
L 523.75922 193.249404 
L 524.058296 193.501399 
L 524.357372 193.436863 
L 524.656449 193.174113 
L 524.955525 193.092686 
L 525.553678 193.575163 
L 525.852754 193.34314 
L 526.151831 193.324696 
L 526.450907 192.856055 
L 526.749984 192.995882 
L 527.04906 192.897539 
L 527.348136 193.124954 
L 527.647213 192.906755 
L 527.946289 193.250944 
L 528.245366 192.960534 
L 528.544442 193.086538 
L 529.142595 193.725746 
L 529.441671 193.845588 
L 529.740748 193.793349 
L 530.039824 193.902448 
L 530.3389 194.189778 
L 530.637977 194.062247 
L 531.535206 194.248166 
L 531.834282 194.513996 
L 532.133359 194.552412 
L 532.432435 192.73466 
L 533.030588 194.406437 
L 533.329664 194.288122 
L 533.628741 194.386465 
L 533.927817 194.283514 
L 534.226894 194.441773 
L 535.722276 194.518604 
L 536.021352 194.744479 
L 536.320429 194.271218 
L 536.619505 194.592356 
L 537.516734 194.454069 
L 537.815811 194.517064 
L 538.114887 194.719887 
L 538.413963 194.724507 
L 538.71304 194.948842 
L 539.012116 197.951262 
L 539.311193 192.204551 
L 539.610269 191.652931 
L 539.909345 190.83702 
L 540.208422 191.102838 
L 540.806575 190.821656 
L 541.105651 191.238057 
L 541.404727 191.422448 
L 541.703804 191.471607 
L 542.00288 191.354832 
L 542.301957 190.800144 
L 543.199186 191.55152 
L 543.498262 189.904322 
L 544.096415 190.986063 
L 544.395491 191.233449 
L 544.694568 190.320735 
L 544.993644 190.299223 
L 545.591797 191.170454 
L 546.489026 191.692874 
L 546.788103 191.931045 
L 547.087179 191.651391 
L 547.386255 191.579167 
L 547.685332 191.772774 
L 547.984408 191.695955 
L 548.582561 192.179972 
L 548.881637 191.748194 
L 549.180714 192.224523 
L 549.47979 192.461153 
L 550.077943 192.697784 
L 550.377019 193.031218 
L 550.676096 192.722376 
L 550.975172 193.068094 
L 551.274249 193.086538 
L 551.573325 193.360044 
L 551.872401 192.676272 
L 552.171478 192.848367 
L 552.769631 190.786308 
L 553.367783 191.78815 
L 554.265013 192.292139 
L 554.564089 192.352054 
L 554.863165 191.603759 
L 555.162242 192.009404 
L 555.461318 192.07394 
L 555.760395 191.927965 
L 556.059471 192.276775 
L 556.358547 192.355134 
L 556.657624 191.258029 
L 556.9567 191.963313 
L 557.255777 191.021398 
L 557.554853 191.935653 
L 558.153006 192.657841 
L 559.050235 192.668597 
L 559.349312 192.127719 
L 559.648388 192.285991 
L 559.947464 192.742348 
L 560.545617 193.069634 
L 560.844694 191.955624 
L 561.14377 192.68396 
L 561.442846 192.919051 
L 561.741923 192.455005 
L 562.040999 192.759252 
L 562.340076 192.771535 
L 562.938228 193.486035 
L 563.536381 193.39846 
L 563.835458 193.254012 
L 564.134534 193.913204 
L 564.732687 194.016156 
L 565.031763 193.57823 
L 565.33084 193.890152 
L 565.629916 193.736502 
L 565.928992 198.230916 
L 566.228069 199.151319 
L 566.527145 193.482967 
L 567.125298 193.759541 
L 567.424374 193.244796 
L 567.723451 192.989734 
L 568.022527 193.095753 
L 568.321604 193.655062 
L 568.62068 193.747258 
L 568.919756 193.690397 
L 569.218833 194.197467 
L 569.517909 194.222046 
L 569.816986 193.790281 
L 570.116062 193.979267 
L 570.415138 194.006927 
L 570.714215 194.346509 
L 571.013291 194.177482 
L 571.312368 194.278906 
L 571.611444 194.175955 
L 571.91052 194.301945 
L 572.508673 194.275826 
L 572.80775 194.618475 
L 573.704979 194.79057 
L 574.004055 194.928857 
L 574.602208 194.726035 
L 574.901284 195.124004 
L 575.200361 195.211592 
L 575.798514 195.128612 
L 576.396666 194.341902 
L 576.994819 194.970354 
L 577.293896 194.623083 
L 577.892048 194.98111 
L 578.191125 194.964206 
L 578.789278 195.552701 
L 579.088354 195.104033 
L 579.38743 195.485098 
L 579.686507 195.368323 
L 580.28466 195.549634 
L 580.882812 195.947603 
L 581.181889 196.098186 
L 581.480965 196.027503 
L 581.780042 196.199598 
L 582.378194 196.253377 
L 582.976347 196.417784 
L 583.275424 196.236473 
L 583.5745 195.687921 
L 584.172653 196.099714 
L 584.471729 196.574515 
L 584.770806 196.147358 
L 585.368959 196.476172 
L 586.565264 195.927619 
L 587.163417 196.173478 
L 587.462493 195.305315 
L 587.76157 195.489706 
L 588.359723 196.062838 
L 588.957875 196.411636 
L 589.256952 196.241081 
L 589.556028 196.594487 
L 589.855105 196.496156 
L 590.154181 196.66517 
L 590.453257 196.694371 
L 590.752334 196.884897 
L 591.05141 196.901801 
L 591.350487 197.362766 
L 591.649563 197.365846 
L 591.948639 197.622449 
L 592.546792 197.682376 
L 592.845869 197.690052 
L 593.144945 198.031174 
L 593.444021 197.232155 
L 594.042174 197.997366 
L 594.341251 198.005042 
L 595.23848 197.739224 
L 595.537556 197.906711 
L 595.836633 198.269332 
L 597.332015 198.164853 
L 597.631091 198.575106 
L 598.229244 198.53823 
L 598.52832 198.705717 
L 598.827397 198.432211 
L 599.126473 198.439887 
L 599.425549 198.784077 
L 600.621855 199.168223 
L 601.220008 198.817885 
L 601.519084 199.094471 
L 601.818161 199.166682 
L 602.416313 199.063731 
L 602.71539 199.301902 
L 603.014466 199.360289 
L 603.313543 199.583096 
L 603.911695 199.321873 
L 604.210772 199.430973 
L 604.509848 199.188194 
L 604.808925 199.767474 
L 605.108001 199.443269 
L 606.00523 199.901154 
L 606.304307 199.695454 
L 606.603383 199.864482 
L 606.90246 201.324208 
L 607.201536 200.777196 
L 607.500612 200.514445 
L 607.799689 199.335901 
L 608.098765 199.143834 
L 608.397842 199.592503 
L 608.696918 199.432704 
L 608.995994 199.534115 
L 609.295071 199.773826 
L 609.594147 199.78919 
L 609.893224 199.936693 
L 610.491376 199.913653 
L 610.790453 200.098032 
L 611.089529 199.847578 
L 611.388606 200.219427 
L 611.687682 200.39613 
L 612.285835 199.979716 
L 612.883988 200.380766 
L 613.183064 199.984324 
L 613.48214 200.148744 
L 613.781217 199.826066 
L 614.37937 196.968068 
L 614.678446 197.547348 
L 614.977522 197.830083 
L 615.575675 197.62572 
L 615.874752 197.742495 
L 616.173828 198.195784 
L 616.472904 197.954546 
L 617.071057 198.530746 
L 617.370134 198.713597 
L 617.968286 198.469291 
L 618.267363 198.878016 
L 618.566439 198.815008 
L 618.865516 199.318997 
L 619.164592 199.20991 
L 619.463668 199.277513 
L 619.762745 199.466512 
L 620.360898 199.351264 
L 620.659974 197.83469 
L 621.258127 199.056246 
L 621.557203 199.008615 
L 621.85628 199.174562 
L 622.155356 199.039342 
L 622.454432 199.743086 
L 622.753509 199.686239 
L 623.052585 199.81531 
L 623.351662 199.743086 
L 623.650738 199.501847 
L 623.949814 199.70775 
L 624.248891 199.661659 
L 624.547967 199.978189 
L 625.14612 200.167175 
L 625.445196 200.560537 
L 625.744273 200.13338 
L 626.043349 200.858635 
L 626.342426 200.706512 
L 626.641502 200.254763 
L 626.940578 200.772588 
L 627.538731 200.780263 
L 627.837808 201.155181 
L 628.43596 200.715728 
L 628.735037 200.723416 
L 629.034113 201.195137 
L 629.33319 200.932387 
L 629.632266 201.384136 
L 629.931342 201.061458 
L 630.230419 201.377988 
L 630.529495 201.437916 
L 630.828572 201.674546 
L 631.127648 201.543935 
L 631.426725 201.765201 
L 631.725801 201.757513 
L 632.024877 201.986455 
L 632.323954 201.631522 
L 632.62303 201.456347 
L 633.520259 202.031019 
L 634.417489 202.007967 
L 634.716565 201.736001 
L 635.314718 202.107851 
L 635.912871 202.29377 
L 636.211947 201.769809 
L 636.511023 201.95266 
L 636.8101 204.790674 
L 637.109176 201.825129 
L 637.408253 201.71757 
L 637.707329 201.957268 
L 638.006405 201.723705 
L 638.305482 201.957268 
L 638.604558 201.640738 
L 638.903635 201.619226 
L 639.202711 201.411796 
L 639.501787 201.706814 
L 640.09994 201.614618 
L 640.399017 201.179773 
L 640.698093 201.419471 
L 640.997169 201.503979 
L 641.296246 201.465575 
L 641.595322 200.912415 
L 642.193475 199.040883 
L 642.492551 198.404755 
L 642.791628 198.762768 
L 643.090704 199.300565 
L 643.389781 199.589435 
L 643.688857 197.585764 
L 643.987933 198.609118 
L 644.28701 198.768917 
L 644.586086 197.773223 
L 644.885163 198.721285 
L 645.184239 199.131538 
L 645.782392 199.448068 
L 646.081468 199.68009 
L 646.380545 199.749234 
L 646.679621 200.101112 
L 646.978697 199.958205 
L 647.277774 199.257541 
L 647.57685 199.297485 
L 647.875927 199.764598 
L 648.175003 199.684698 
L 648.773156 198.736649 
L 649.072232 198.825764 
L 649.371309 198.632157 
L 649.670385 199.268297 
L 649.969461 199.008615 
L 650.268538 198.54611 
L 650.567614 199.338981 
L 650.866691 199.517211 
L 651.165767 199.915181 
L 651.464843 199.970501 
L 651.76392 200.174863 
L 652.062996 200.514445 
L 652.661149 194.896793 
L 652.960225 196.926584 
L 653.259302 195.457642 
L 653.558378 196.563963 
L 653.857455 197.038751 
L 654.156531 196.977296 
L 654.455607 197.464381 
L 654.754684 197.54274 
L 655.05376 197.800882 
L 655.352837 197.83469 
L 655.651913 198.068241 
L 655.95099 198.607578 
L 656.250066 198.775065 
L 656.848219 199.397369 
L 657.446372 199.776894 
L 657.745448 200.197915 
L 658.044524 200.256303 
L 658.343601 200.512905 
L 658.642677 200.960047 
L 658.941754 201.03073 
L 659.24083 201.251984 
L 659.539906 201.281184 
L 659.838983 200.640436 
L 660.138059 201.016894 
L 660.437136 201.179773 
L 660.736212 201.623834 
L 661.334365 201.625374 
L 662.231594 202.017196 
L 662.53067 201.679154 
L 662.829747 202.327578 
L 663.128823 202.049464 
L 663.4279 202.338334 
L 663.726976 202.425921 
L 664.026052 202.021804 
L 664.325129 201.935756 
L 664.624205 200.062696 
L 664.923282 200.893971 
L 665.222358 200.771048 
L 665.521434 201.248917 
L 665.820511 201.256592 
L 666.119587 201.671466 
L 666.418664 201.537787 
L 667.315893 201.628442 
L 667.614969 200.445302 
L 667.914046 199.893669 
L 668.213122 199.81377 
L 668.512198 199.998161 
L 669.110351 197.779371 
L 669.708504 198.902596 
L 670.00758 199.194546 
L 670.306657 197.994489 
L 670.605733 198.49387 
L 671.802039 199.177642 
L 672.101115 197.949925 
L 672.699268 199.13001 
L 672.998344 199.271365 
L 673.297421 199.781502 
L 673.596497 199.96896 
L 673.895574 199.44346 
L 674.19465 199.990472 
L 674.493726 199.889061 
L 674.792803 200.468341 
L 675.091879 200.704972 
L 675.690032 198.085145 
L 675.989108 197.966829 
L 676.288185 198.901055 
L 676.587261 199.189925 
L 676.886338 198.870328 
L 677.185414 199.365101 
L 677.48449 199.538723 
L 677.783567 199.33436 
L 678.082643 199.629391 
L 678.38172 199.07161 
L 678.680796 199.085446 
L 678.979872 199.770746 
L 679.278949 200.055008 
L 679.578025 199.981257 
L 679.877102 200.070372 
L 680.176178 198.834992 
L 680.475255 199.343589 
L 680.774331 199.166886 
L 681.073407 199.595583 
L 681.372484 199.607879 
L 681.67156 199.846037 
L 681.970637 199.841429 
L 682.269713 200.310083 
L 682.568789 199.271365 
L 682.867866 195.761876 
L 683.166942 197.791667 
L 683.765095 198.606037 
L 685.260477 199.798406 
L 685.559553 199.527967 
L 685.85863 199.801473 
L 686.157706 199.881386 
L 686.456783 199.835281 
L 687.054935 199.392761 
L 687.354012 198.727433 
L 687.653088 199.193006 
L 687.952165 199.919789 
L 688.849394 200.767967 
L 689.14847 199.677023 
L 689.447547 200.0796 
L 689.746623 199.199154 
L 690.045699 200.013524 
L 690.344776 197.467449 
L 690.643852 197.456693 
L 691.541081 198.974807 
L 691.840158 198.189636 
L 692.139234 198.507694 
L 692.737387 197.386009 
L 693.036463 197.064871 
L 693.33554 197.089463 
L 693.634616 197.54582 
L 693.933693 197.56886 
L 694.531845 198.244943 
L 694.830922 198.228052 
L 695.429075 197.379874 
L 695.728151 197.976058 
L 696.027227 194.784626 
L 696.62538 197.851594 
L 697.223533 195.731148 
L 697.522609 195.617441 
L 697.821686 197.27999 
L 698.120762 196.945028 
L 698.419839 197.458233 
L 699.317068 198.221904 
L 699.616144 198.166584 
L 700.214297 198.934863 
L 700.513373 199.145374 
L 700.81245 198.928715 
L 701.410603 199.78611 
L 701.709679 199.282121 
L 702.008755 199.73233 
L 702.307832 199.901357 
L 702.905985 199.200681 
L 703.504137 198.367879 
L 703.803214 199.07161 
L 704.10229 201.192057 
L 704.401367 200.388442 
L 704.700443 200.199443 
L 704.99952 200.25783 
L 705.597672 200.777196 
L 705.896749 200.113395 
L 706.494902 200.514445 
L 706.793978 200.497541 
L 707.093054 200.878607 
L 707.392131 200.71112 
L 707.990284 201.007678 
L 708.28936 201.013826 
L 708.588436 201.499371 
L 708.887513 201.762121 
L 709.186589 201.755973 
L 709.485666 201.244309 
L 709.784742 201.60539 
L 710.083818 201.63613 
L 710.382895 201.940364 
L 710.681971 201.991076 
L 711.280124 202.344482 
L 712.177353 202.750127 
L 712.47643 202.750127 
L 712.775506 202.521184 
L 713.074582 202.493524 
L 713.373659 202.043315 
L 713.672735 202.444353 
L 713.971812 202.416693 
L 714.270888 202.252286 
L 714.569964 202.23999 
L 714.869041 202.496592 
L 715.168117 202.255354 
L 715.467194 202.659471 
L 716.962576 203.436966 
L 717.560728 203.206484 
L 718.158881 203.727376 
L 719.05611 204.348153 
L 719.355187 204.286685 
L 719.654263 204.589391 
L 720.551492 204.491048 
L 720.850569 203.664381 
L 721.149645 204.252877 
L 721.747798 204.312805 
L 722.046874 204.560191 
L 722.345951 204.478752 
L 722.645027 204.74765 
L 722.944104 204.69233 
L 723.24318 205.071868 
L 723.841333 205.00886 
L 724.140409 203.930199 
L 724.439486 207.236866 
L 724.738562 207.957513 
L 725.037638 204.065418 
L 725.336715 203.401631 
L 725.635791 203.682813 
L 725.934868 203.183444 
L 726.53302 203.764252 
L 726.832097 203.461558 
L 727.131173 201.732934 
L 727.43025 201.957268 
L 728.028403 203.295612 
L 728.327479 202.043315 
L 728.626555 202.596476 
L 729.224708 202.688671 
L 729.523785 201.885044 
L 729.822861 201.63613 
L 730.121937 202.346022 
L 730.421014 201.723705 
L 730.72009 201.903488 
L 731.019167 199.477268 
L 731.318243 201.202812 
L 731.617319 201.198205 
L 731.916396 201.566987 
L 732.215472 199.620163 
L 732.813625 201.059918 
L 733.112701 200.067304 
L 733.411778 199.798406 
L 733.710854 200.167175 
L 734.009931 199.601731 
L 734.608083 199.984324 
L 735.206236 200.563617 
L 735.505313 200.729564 
L 735.804389 201.238161 
L 736.402542 201.278104 
L 736.701618 201.565447 
L 737.000695 202.750127 
L 737.299771 197.54582 
L 737.598847 196.866656 
L 737.897924 198.052877 
L 738.197 198.334071 
L 738.496077 199.016303 
L 738.795153 198.901055 
L 739.094229 199.196073 
L 739.692382 198.934863 
L 739.991459 199.246785 
L 740.888688 199.570991 
L 741.187764 199.809162 
L 741.486838 199.838362 
L 742.084991 200.25783 
L 742.384068 197.825475 
L 742.683144 199.335901 
L 742.98222 199.78765 
L 743.281297 199.849118 
L 743.580373 200.13338 
L 743.87945 200.734172 
L 744.178526 200.695756 
L 745.374832 201.539327 
L 745.673908 201.388744 
L 745.972984 201.828197 
L 746.272061 201.792861 
L 746.571137 201.911177 
L 746.870214 201.825129 
L 747.16929 202.259974 
L 747.468366 202.310674 
L 747.767443 201.921933 
L 748.066519 202.6103 
L 748.963748 202.653323 
L 749.262825 202.982149 
L 749.561901 202.937585 
L 749.860978 203.407779 
L 750.160054 203.532242 
L 751.057283 203.572185 
L 751.35636 203.295612 
L 751.655436 200.325446 
L 752.253589 201.571595 
L 752.851742 202.301458 
L 753.150818 202.283014 
L 753.449894 202.5304 
L 754.6462 202.767031 
L 754.945276 202.951422 
L 755.244353 203.346311 
L 755.543429 203.458478 
L 756.141582 202.799298 
L 756.440658 202.754735 
L 756.739735 201.268888 
L 757.038811 201.848168 
L 757.337888 202.113999 
L 757.636964 202.625663 
L 757.936041 201.29194 
L 758.235117 201.938824 
L 758.534193 201.857397 
L 758.83327 202.259974 
L 759.132346 202.107851 
L 760.029575 202.52886 
L 760.328652 202.381357 
L 760.926805 202.905318 
L 761.225881 206.591522 
L 761.524957 201.74369 
L 761.824034 202.132431 
L 762.12311 202.23999 
L 762.422187 202.047923 
L 762.721263 202.332185 
L 763.020339 202.037167 
L 763.618492 202.66716 
L 764.515721 202.645648 
L 765.113874 203.181904 
L 765.412951 203.188052 
L 765.712027 202.908398 
L 766.011103 203.255656 
L 766.31018 203.318651 
L 766.609256 203.684353 
L 766.908333 203.51073 
L 767.207409 203.066657 
L 767.506485 203.650557 
L 767.805562 203.436966 
L 768.104638 203.722769 
L 768.403715 207.857642 
L 768.702791 209.526339 
L 769.001867 204.495656 
L 769.300944 203.526094 
L 769.60002 204.06081 
L 769.899097 204.13917 
L 770.198173 203.466166 
L 770.497249 204.007031 
L 770.796326 204.208326 
L 771.095402 204.590919 
L 771.394479 204.469536 
L 771.693555 203.85184 
L 771.992631 204.14379 
L 772.291708 203.916375 
L 773.188937 204.529464 
L 773.488013 204.420364 
L 774.086166 204.478752 
L 774.385243 204.335857 
L 774.684319 204.570947 
L 775.581548 204.856749 
L 775.880625 205.267002 
L 776.179701 205.479053 
L 776.478777 205.393006 
L 776.777854 205.488269 
L 777.376007 205.485201 
L 777.675083 205.296203 
L 777.974159 205.775612 
L 778.273236 205.944626 
L 778.572312 205.853971 
L 778.871389 205.563561 
L 779.170465 205.537441 
L 779.469541 205.950774 
L 779.768618 205.555885 
L 780.665847 205.995338 
L 780.964923 206.436331 
L 781.264 206.165893 
L 781.563076 206.196621 
L 781.862153 206.507002 
L 782.460306 206.348744 
L 782.759382 207.848426 
L 783.357535 214.954993 
L 783.656611 208.664337 
L 783.955688 207.098579 
L 784.254764 206.971048 
L 784.55384 206.424035 
L 784.852917 206.714446 
L 785.151993 206.725202 
L 785.45107 205.915439 
L 785.750146 204.718463 
L 786.049222 205.652689 
L 786.647375 205.846283 
L 786.946452 205.626556 
L 787.245528 203.53531 
L 787.544604 204.298981 
L 787.843681 204.222149 
L 788.142757 204.272861 
L 788.441834 204.752258 
L 788.74091 204.789133 
L 789.039986 205.274691 
L 789.339063 204.787606 
L 789.638139 205.393006 
L 789.937216 205.35613 
L 790.236292 205.628096 
L 790.535368 205.277758 
L 790.834445 205.625029 
L 791.133521 205.571249 
L 791.432598 205.843215 
L 791.731674 204.839845 
L 792.329827 205.331538 
L 792.628903 205.337686 
L 792.92798 205.197859 
L 793.227056 205.563561 
L 793.526132 205.503633 
L 793.825209 206.184337 
L 794.423362 205.943086 
L 794.722438 205.835527 
L 795.021514 206.241184 
L 795.320591 204.892085 
L 795.918744 205.601977 
L 796.21782 205.872415 
L 796.516896 205.526685 
L 797.115049 205.996866 
L 797.414126 205.929262 
L 797.713202 203.819572 
L 798.012278 204.149926 
L 798.311355 204.16991 
L 798.610431 202.255354 
L 798.909508 202.235382 
L 799.208584 203.057441 
L 799.50766 203.125044 
L 799.806737 202.937585 
L 800.105813 203.320191 
L 800.40489 202.353697 
L 800.703966 202.647175 
L 801.003042 202.399789 
L 801.302119 203.029781 
L 801.900272 203.541458 
L 802.199348 202.382897 
L 802.498424 209.732242 
L 802.797501 205.259327 
L 803.096577 203.456951 
L 803.395654 202.605692 
L 803.993806 203.784237 
L 804.292883 204.014719 
L 804.591959 204.028543 
L 804.891036 203.314043 
L 805.190112 203.993207 
L 805.489188 204.228297 
L 805.788265 204.298981 
L 806.087341 203.692041 
L 806.386418 204.620119 
L 806.685494 204.779918 
L 806.984571 205.179427 
L 807.283647 204.670818 
L 807.8818 204.833697 
L 808.479953 205.443705 
L 808.779029 204.426512 
L 809.078105 204.550975 
L 809.377182 205.216303 
L 809.676258 205.339226 
L 809.975335 204.919745 
L 810.274411 205.43757 
L 810.573487 203.93482 
L 810.872564 204.159154 
L 811.17164 203.814964 
L 811.470717 200.330054 
L 811.769793 202.15855 
L 812.068869 202.304526 
L 812.367946 202.112459 
L 812.667022 202.699427 
L 812.966099 202.6395 
L 813.863328 203.397023 
L 814.162404 202.468945 
L 814.461481 202.627204 
L 815.059633 203.730457 
L 815.35871 203.964007 
L 815.657786 203.865663 
L 815.956863 204.090011 
L 816.255939 204.108442 
L 817.452245 204.809118 
L 817.751321 204.208326 
L 818.050397 205.085692 
L 819.545779 205.548197 
L 819.844856 205.843215 
L 821.041161 208.212588 
L 821.340238 207.963661 
L 821.639314 207.966742 
L 821.938391 207.814618 
L 822.237467 208.329363 
L 822.536543 208.553697 
L 822.83562 208.20336 
L 823.134696 208.604409 
L 823.433773 208.065073 
L 823.732849 208.20336 
L 824.031925 207.885302 
L 824.331002 208.613625 
L 824.630078 208.585965 
L 824.929155 208.771897 
L 825.228231 208.509134 
L 825.826384 208.369319 
L 826.12546 208.20798 
L 826.424537 208.426166 
L 827.321766 207.631768 
L 828.218995 207.876074 
L 828.518071 207.562624 
L 828.817148 206.742106 
L 829.415301 207.594892 
L 831.209759 208.091192 
L 831.508836 208.427707 
L 831.807912 208.186468 
L 832.106988 208.461502 
L 832.406065 208.357023 
L 832.705141 208.458434 
L 833.004218 208.366239 
L 833.60237 208.553697 
L 833.901447 208.094273 
L 834.798676 208.048169 
L 835.097752 208.456894 
L 835.994982 208.393899 
L 836.294058 208.226412 
L 836.593134 208.572142 
L 837.191287 208.771897 
L 837.490364 208.335511 
L 837.78944 208.146512 
L 838.387593 208.821056 
L 838.686669 208.486094 
L 839.284822 208.476866 
L 840.780204 208.747304 
L 841.07928 208.636677 
L 841.378357 208.701213 
L 841.677433 208.450746 
L 841.97651 208.664337 
L 842.275586 208.49531 
L 842.574662 208.573669 
L 843.172815 208.973179 
L 843.471892 208.899428 
L 843.770968 208.970111 
L 844.369121 208.816448 
L 844.668197 209.116074 
L 845.26635 208.997758 
L 845.565426 209.15603 
L 845.864503 209.151422 
L 846.163579 209.010055 
L 846.462656 209.194446 
L 846.761732 212.888326 
L 847.060808 209.630615 
L 847.359885 209.183473 
L 847.658961 209.191149 
L 847.958038 208.885375 
L 848.257114 208.748628 
L 848.55619 209.025202 
L 848.855267 208.361414 
L 849.154343 208.470514 
L 849.45342 208.352199 
L 850.649725 208.803948 
L 851.247878 208.50739 
L 851.846031 208.74248 
L 852.74326 208.412126 
L 853.042336 208.816231 
L 853.341413 208.487405 
L 853.640489 208.662581 
L 853.939566 208.547333 
L 854.238642 207.837454 
L 854.537719 208.060248 
L 855.135871 207.636159 
L 855.434948 207.245878 
L 856.033101 207.863574 
L 856.631253 207.751407 
L 857.229406 207.972661 
L 857.528483 207.868182 
L 859.322941 208.114028 
L 859.622017 208.362955 
L 859.921094 208.905359 
L 860.22017 208.790112 
L 860.818323 208.819312 
L 861.416476 208.367563 
L 861.715552 208.204683 
L 862.612781 208.449002 
L 863.510011 208.598045 
L 864.108163 208.45361 
L 864.40724 208.624165 
L 864.706316 208.385994 
L 865.005393 208.296879 
L 865.304469 208.676404 
L 867.098927 208.676404 
L 867.398004 208.793192 
L 867.996157 208.794719 
L 868.295233 208.919183 
L 868.594309 209.258765 
L 868.893386 208.578073 
L 869.192462 209.188081 
L 869.491539 208.882307 
L 869.790615 208.908427 
L 870.089691 209.089738 
L 870.388768 208.883847 
L 870.986921 209.042106 
L 871.285997 209.303329 
L 871.585073 208.906887 
L 872.183226 209.228037 
L 872.482303 209.082062 
L 872.781379 208.805475 
L 873.379532 209.00369 
L 873.678608 208.671796 
L 873.977685 207.983417 
L 874.276761 207.917354 
L 874.575837 208.375238 
L 875.17399 207.743718 
L 875.473067 208.147836 
L 875.772143 207.869722 
L 876.071222 207.981889 
L 876.370298 207.886613 
L 876.669375 207.968053 
L 877.267527 208.464366 
L 877.566604 208.255395 
L 878.164757 208.260003 
L 878.463833 208.153984 
L 878.762909 208.183171 
L 879.061986 208.533509 
L 879.361062 208.290731 
L 879.660139 208.548873 
L 879.959215 208.45207 
L 880.258291 208.645677 
L 880.557368 208.445922 
L 880.856444 208.395222 
L 881.155521 208.21852 
L 881.753673 208.616476 
L 882.05275 208.401371 
L 882.351826 208.654892 
L 882.949979 208.42441 
L 883.548132 208.590357 
L 883.847208 208.763992 
L 884.146285 208.730184 
L 884.744437 208.473582 
L 885.641667 208.45053 
L 885.940743 207.925029 
L 886.239819 208.395222 
L 886.538896 208.459758 
L 886.837972 208.152444 
L 887.137049 208.582681 
L 887.436125 208.405978 
L 887.735201 208.385994 
L 888.034278 208.181631 
L 888.333354 208.209291 
L 888.632431 208.422882 
L 889.230583 208.118636 
L 889.52966 208.184712 
L 889.828736 208.395222 
L 890.127813 208.212372 
L 890.426889 207.732962 
L 890.725965 207.802106 
L 891.025042 208.235411 
L 891.324118 208.21852 
L 891.623195 208.339903 
L 891.922271 208.221587 
L 892.8195 208.48127 
L 893.118577 208.316851 
L 893.417653 208.390615 
L 893.716729 208.330687 
L 894.015806 207.797498 
L 895.212111 208.502782 
L 895.511188 208.840824 
L 896.408417 208.18932 
L 896.707493 207.619255 
L 897.00657 208.10788 
L 897.305646 207.517844 
L 897.604723 207.90199 
L 897.903799 208.038736 
L 898.202876 207.745259 
L 898.501952 207.937325 
L 898.801028 207.986497 
L 899.100105 208.278435 
L 899.399181 208.315323 
L 899.698258 219.3232 
L 899.997334 208.673337 
L 900.29641 208.103272 
L 900.595487 208.883847 
L 900.894563 208.187779 
L 901.492716 208.71482 
L 901.791792 208.240032 
L 902.090869 208.338362 
L 902.689022 207.79443 
L 903.287174 207.851278 
L 903.586251 207.991105 
L 903.885327 207.703762 
L 904.184404 207.731422 
L 904.782556 208.092516 
L 905.081633 208.05256 
L 905.380709 208.318391 
L 905.978862 206.78644 
L 906.277938 207.451768 
L 907.175168 207.537815 
L 907.474244 207.351897 
L 907.77332 206.012026 
L 908.072397 205.406613 
L 908.371473 206.300896 
L 908.67055 206.345447 
L 908.969626 206.774157 
L 909.268702 206.637397 
L 909.567779 206.723445 
L 909.866855 206.413063 
L 910.165932 206.646613 
L 910.465008 207.043055 
L 911.362237 207.453308 
L 913.754848 207.974201 
L 914.053925 207.837454 
L 914.353001 206.068873 
L 914.652078 207.470212 
L 914.951154 207.58546 
L 915.25023 207.5286 
L 915.848383 207.756015 
L 916.446536 208.006469 
L 916.745612 207.875857 
L 917.044689 207.551652 
L 917.343765 207.799038 
L 917.642842 207.725274 
L 917.941918 207.946541 
L 917.941918 207.946541 
" clip-path="url(#p2e5a873b2b)" style="fill: none; stroke: #1d4ed8; stroke-opacity: 0.95; stroke-width: 0.936; stroke-linecap: square"/>
   </g>
   <g id="patch_20">
    <path d="M 47.917188 228.954713 
L 47.917188 17.061433 
" style="fill: none; stroke: #cbd5e1; stroke-width: 0.8; stroke-linejoin: miter; stroke-linecap: square"/>
   </g>
   <g id="patch_21">
    <path d="M 935.342188 228.954713 
L 935.342188 17.061433 
" style="fill: none; stroke: #cbd5e1; stroke-width: 0.8; stroke-linejoin: miter; stroke-linecap: square"/>
   </g>
   <g id="patch_22">
    <path d="M 47.917188 228.954713 
L 935.342187 228.954713 
" style="fill: none; stroke: #cbd5e1; stroke-width: 0.8; stroke-linejoin: miter; stroke-linecap: square"/>
   </g>
   <g id="patch_23">
    <path d="M 47.917188 17.061433 
L 935.342187 17.061433 
" style="fill: none; stroke: #cbd5e1; stroke-width: 0.8; stroke-linejoin: miter; stroke-linecap: square"/>
   </g>
   <g id="text_19">
    <!-- ACC -->
    <g style="fill: #475569" transform="translate(129.387608 13.27875) scale(0.08 -0.08)">
     <defs>
      <path id="DejaVuSans-43" d="M 4122 4306 
L 4122 3641 
Q 3803 3938 3442 4084 
Q 3081 4231 2675 4231 
Q 1875 4231 1450 3742 
Q 1025 3253 1025 2328 
Q 1025 1406 1450 917 
Q 1875 428 2675 428 
Q 3081 428 3442 575 
Q 3803 722 4122 1019 
L 4122 359 
Q 3791 134 3420 21 
Q 3050 -91 2638 -91 
Q 1578 -91 968 557 
Q 359 1206 359 2328 
Q 359 3453 968 4101 
Q 1578 4750 2638 4750 
Q 3056 4750 3426 4639 
Q 3797 4528 4122 4306 
z
" transform="scale(0.015625)"/>
     </defs>
     <use xlink:href="#DejaVuSans-41"/>
     <use xlink:href="#DejaVuSans-43" transform="translate(66.658203 0)"/>
     <use xlink:href="#DejaVuSans-43" transform="translate(136.482422 0)"/>
    </g>
   </g>
   <g id="text_20">
    <!-- OC -->
    <g style="fill: #475569" transform="translate(234.879592 13.27875) scale(0.08 -0.08)">
     <defs>
      <path id="DejaVuSans-4f" d="M 2522 4238 
Q 1834 4238 1429 3725 
Q 1025 3213 1025 2328 
Q 1025 1447 1429 934 
Q 1834 422 2522 422 
Q 3209 422 3611 934 
Q 4013 1447 4013 2328 
Q 4013 3213 3611 3725 
Q 3209 4238 2522 4238 
z
M 2522 4750 
Q 3503 4750 4090 4092 
Q 4678 3434 4678 2328 
Q 4678 1225 4090 567 
Q 3503 -91 2522 -91 
Q 1538 -91 948 565 
Q 359 1222 359 2328 
Q 359 3434 948 4092 
Q 1538 4750 2522 4750 
z
" transform="scale(0.015625)"/>
     </defs>
     <use xlink:href="#DejaVuSans-4f"/>
     <use xlink:href="#DejaVuSans-43" transform="translate(78.710938 0)"/>
    </g>
   </g>
   <g id="text_21">
    <!-- FCS -->
    <g style="fill: #475569" transform="translate(260.105218 13.27875) scale(0.08 -0.08)">
     <defs>
      <path id="DejaVuSans-46" d="M 628 4666 
L 3309 4666 
L 3309 4134 
L 1259 4134 
L 1259 2759 
L 3109 2759 
L 3109 2228 
L 1259 2228 
L 1259 0 
L 628 0 
L 628 4666 
z
" transform="scale(0.015625)"/>
     </defs>
     <use xlink:href="#DejaVuSans-46"/>
     <use xlink:href="#DejaVuSans-43" transform="translate(57.519531 0)"/>
     <use xlink:href="#DejaVuSans-53" transform="translate(127.34375 0)"/>
    </g>
   </g>
   <g id="text_22">
    <!-- SR -->
    <g style="fill: #475569" transform="translate(298.308762 13.27875) scale(0.08 -0.08)">
     <defs>
      <path id="DejaVuSans-52" d="M 2841 2188 
Q 3044 2119 3236 1894 
Q 3428 1669 3622 1275 
L 4263 0 
L 3584 0 
L 2988 1197 
Q 2756 1666 2539 1819 
Q 2322 1972 1947 1972 
L 1259 1972 
L 1259 0 
L 628 0 
L 628 4666 
L 2053 4666 
Q 2853 4666 3247 4331 
Q 3641 3997 3641 3322 
Q 3641 2881 3436 2590 
Q 3231 2300 2841 2188 
z
M 1259 4147 
L 1259 2491 
L 2053 2491 
Q 2509 2491 2742 2702 
Q 2975 2913 2975 3322 
Q 2975 3731 2742 3939 
Q 2509 4147 2053 4147 
L 1259 4147 
z
" transform="scale(0.015625)"/>
     </defs>
     <use xlink:href="#DejaVuSans-53"/>
     <use xlink:href="#DejaVuSans-52" transform="translate(63.476562 0)"/>
    </g>
   </g>
   <g id="text_23">
    <!-- FFC -->
    <g style="fill: #475569" transform="translate(341.094597 13.27875) scale(0.08 -0.08)">
     <use xlink:href="#DejaVuSans-46"/>
     <use xlink:href="#DejaVuSans-46" transform="translate(57.519531 0)"/>
     <use xlink:href="#DejaVuSans-43" transform="translate(115.039062 0)"/>
    </g>
   </g>
   <g id="text_24">
    <!-- SS -->
    <g style="fill: #475569" transform="translate(421.917778 13.27875) scale(0.08 -0.08)">
     <use xlink:href="#DejaVuSans-53"/>
     <use xlink:href="#DejaVuSans-53" transform="translate(63.476562 0)"/>
    </g>
   </g>
   <g id="text_25">
    <!-- OC -->
    <g style="fill: #475569" transform="translate(488.346843 13.27875) scale(0.08 -0.08)">
     <use xlink:href="#DejaVuSans-4f"/>
     <use xlink:href="#DejaVuSans-43" transform="translate(78.710938 0)"/>
    </g>
   </g>
   <g id="text_26">
    <!-- FCS -->
    <g style="fill: #475569" transform="translate(511.329396 13.27875) scale(0.08 -0.08)">
     <use xlink:href="#DejaVuSans-46"/>
     <use xlink:href="#DejaVuSans-43" transform="translate(57.519531 0)"/>
     <use xlink:href="#DejaVuSans-53" transform="translate(127.34375 0)"/>
    </g>
   </g>
   <g id="text_27">
    <!-- SR -->
    <g style="fill: #475569" transform="translate(549.53294 13.27875) scale(0.08 -0.08)">
     <use xlink:href="#DejaVuSans-53"/>
     <use xlink:href="#DejaVuSans-52" transform="translate(63.476562 0)"/>
    </g>
   </g>
   <g id="text_28">
    <!-- FFC -->
    <g style="fill: #475569" transform="translate(592.318775 13.27875) scale(0.08 -0.08)">
     <use xlink:href="#DejaVuSans-46"/>
     <use xlink:href="#DejaVuSans-46" transform="translate(57.519531 0)"/>
     <use xlink:href="#DejaVuSans-43" transform="translate(115.039062 0)"/>
    </g>
   </g>
   <g id="text_29">
    <!-- SS -->
    <g style="fill: #475569" transform="translate(673.141956 13.27875) scale(0.08 -0.08)">
     <use xlink:href="#DejaVuSans-53"/>
     <use xlink:href="#DejaVuSans-53" transform="translate(63.476562 0)"/>
    </g>
   </g>
   <g id="text_30">
    <!-- OC -->
    <g style="fill: #475569" transform="translate(739.571021 13.27875) scale(0.08 -0.08)">
     <use xlink:href="#DejaVuSans-4f"/>
     <use xlink:href="#DejaVuSans-43" transform="translate(78.710938 0)"/>
    </g>
   </g>
   <g id="text_31">
    <!-- FCS -->
    <g style="fill: #475569" transform="translate(762.553574 13.27875) scale(0.08 -0.08)">
     <use xlink:href="#DejaVuSans-46"/>
     <use xlink:href="#DejaVuSans-43" transform="translate(57.519531 0)"/>
     <use xlink:href="#DejaVuSans-53" transform="translate(127.34375 0)"/>
    </g>
   </g>
   <g id="text_32">
    <!-- SR -->
    <g style="fill: #475569" transform="translate(800.757118 13.27875) scale(0.08 -0.08)">
     <use xlink:href="#DejaVuSans-53"/>
     <use xlink:href="#DejaVuSans-52" transform="translate(63.476562 0)"/>
    </g>
   </g>
   <g id="text_33">
    <!-- FFC -->
    <g style="fill: #475569" transform="translate(843.542953 13.27875) scale(0.08 -0.08)">
     <use xlink:href="#DejaVuSans-46"/>
     <use xlink:href="#DejaVuSans-46" transform="translate(57.519531 0)"/>
     <use xlink:href="#DejaVuSans-43" transform="translate(115.039062 0)"/>
    </g>
   </g>
   <g id="text_34">
    <!-- SS -->
    <g style="fill: #475569" transform="translate(888.476965 13.27875) scale(0.08 -0.08)">
     <use xlink:href="#DejaVuSans-53"/>
     <use xlink:href="#DejaVuSans-53" transform="translate(63.476562 0)"/>
    </g>
   </g>
   <g id="legend_1">
    <g id="line2d_34">
     <path d="M 849.163438 27.540183 
L 857.163438 27.540183 
L 865.163438 27.540183 
" style="fill: none; stroke: #1d4ed8; stroke-opacity: 0.95; stroke-width: 1.3; stroke-linecap: square"/>
    </g>
    <g id="text_35">
     <!-- Empatica EDA -->
     <g transform="translate(871.563438 30.340183) scale(0.08 -0.08)">
      <defs>
       <path id="DejaVuSans-6d" d="M 3328 2828 
Q 3544 3216 3844 3400 
Q 4144 3584 4550 3584 
Q 5097 3584 5394 3201 
Q 5691 2819 5691 2113 
L 5691 0 
L 5113 0 
L 5113 2094 
Q 5113 2597 4934 2840 
Q 4756 3084 4391 3084 
Q 3944 3084 3684 2787 
Q 3425 2491 3425 1978 
L 3425 0 
L 2847 0 
L 2847 2094 
Q 2847 2600 2669 2842 
Q 2491 3084 2119 3084 
Q 1678 3084 1418 2786 
Q 1159 2488 1159 1978 
L 1159 0 
L 581 0 
L 581 3500 
L 1159 3500 
L 1159 2956 
Q 1356 3278 1631 3431 
Q 1906 3584 2284 3584 
Q 2666 3584 2933 3390 
Q 3200 3197 3328 2828 
z
" transform="scale(0.015625)"/>
       <path id="DejaVuSans-70" d="M 1159 525 
L 1159 -1331 
L 581 -1331 
L 581 3500 
L 1159 3500 
L 1159 2969 
Q 1341 3281 1617 3432 
Q 1894 3584 2278 3584 
Q 2916 3584 3314 3078 
Q 3713 2572 3713 1747 
Q 3713 922 3314 415 
Q 2916 -91 2278 -91 
Q 1894 -91 1617 61 
Q 1341 213 1159 525 
z
M 3116 1747 
Q 3116 2381 2855 2742 
Q 2594 3103 2138 3103 
Q 1681 3103 1420 2742 
Q 1159 2381 1159 1747 
Q 1159 1113 1420 752 
Q 1681 391 2138 391 
Q 2594 391 2855 752 
Q 3116 1113 3116 1747 
z
" transform="scale(0.015625)"/>
      </defs>
      <use xlink:href="#DejaVuSans-45"/>
      <use xlink:href="#DejaVuSans-6d" transform="translate(63.183594 0)"/>
      <use xlink:href="#DejaVuSans-70" transform="translate(160.595703 0)"/>
      <use xlink:href="#DejaVuSans-61" transform="translate(224.072266 0)"/>
      <use xlink:href="#DejaVuSans-74" transform="translate(285.351562 0)"/>
      <use xlink:href="#DejaVuSans-69" transform="translate(324.560547 0)"/>
      <use xlink:href="#DejaVuSans-63" transform="translate(352.34375 0)"/>
      <use xlink:href="#DejaVuSans-61" transform="translate(407.324219 0)"/>
      <use xlink:href="#DejaVuSans-20" transform="translate(468.603516 0)"/>
      <use xlink:href="#DejaVuSans-45" transform="translate(500.390625 0)"/>
      <use xlink:href="#DejaVuSans-44" transform="translate(563.574219 0)"/>
      <use xlink:href="#DejaVuSans-41" transform="translate(638.826172 0)"/>
     </g>
    </g>
   </g>
  </g>
 </g>
 <defs>
  <clipPath id="p2e5a873b2b">
   <rect x="47.917188" y="17.061433" width="887.425" height="211.89328"/>
  </clipPath>
 </defs>
</svg>
