<?xml version="1.0" encoding="utf-8" standalone="no"?>
<!DOCTYPE svg PUBLIC "-//W3C//DTD SVG 1.1//EN"
  "http://www.w3.org/Graphics/SVG/1.1/DTD/svg11.dtd">
<svg xmlns:xlink="http://www.w3.org/1999/xlink" width="942.505625pt" height="265.54315pt" viewBox="0 0 942.505625 265.54315" xmlns="http://www.w3.org/2000/svg" version="1.1">
 <metadata>
  <rdf:RDF xmlns:dc="http://purl.org/dc/elements/1.1/" xmlns:cc="http://creativecommons.org/ns#" xmlns:rdf="http://www.w3.org/1999/02/22-rdf-syntax-ns#">
   <cc:Work>
    <dc:type rdf:resource="http://purl.org/dc/dcmitype/StillImage"/>
    <dc:date>2026-04-17T17:40:12.091390</dc:date>
    <dc:format>image/svg+xml</dc:format>
    <dc:creator>
     <cc:Agent>
      <dc:title>Matplotlib v3.10.8, https://matplotlib.org/</dc:title>
     </cc:Agent>
    </dc:creator>
   </cc:Work>
  </rdf:RDF>
 </metadata>
 <defs>
  <style type="text/css">*{stroke-linejoin: round; stroke-linecap: butt}</style>
 </defs>
 <g id="figure_1">
  <g id="patch_1">
   <path d="M 0 265.54315 
L 942.505625 265.54315 
L 942.505625 0 
L 0 0 
z
" style="fill: #ffffff"/>
  </g>
  <g id="axes_1">
   <g id="patch_2">
    <path d="M 39.330625 228.954713 
L 935.305625 228.954713 
L 935.305625 17.061433 
L 39.330625 17.061433 
z
" style="fill: #ffffff"/>
   </g>
   <g id="patch_3">
    <path d="M 39.330625 228.954713 
L 220.542865 228.954713 
L 220.542865 17.061433 
L 39.330625 17.061433 
z
" clip-path="url(#p0d6c98a096)" style="fill: #f8fafc; opacity: 0.45"/>
   </g>
   <g id="patch_4">
    <path d="M 220.542865 228.954713 
L 247.7247 228.954713 
L 247.7247 17.061433 
L 220.542865 17.061433 
z
" clip-path="url(#p0d6c98a096)" style="fill: #eff6ff; opacity: 0.45"/>
   </g>
   <g id="patch_5">
    <path d="M 247.7247 228.954713 
L 274.906536 228.954713 
L 274.906536 17.061433 
L 247.7247 17.061433 
z
" clip-path="url(#p0d6c98a096)" style="fill: #fef3c7; opacity: 0.45"/>
   </g>
   <g id="patch_6">
    <path d="M 274.906536 228.954713 
L 320.209596 228.954713 
L 320.209596 17.061433 
L 274.906536 17.061433 
z
" clip-path="url(#p0d6c98a096)" style="fill: #dcfce7; opacity: 0.45"/>
   </g>
   <g id="patch_7">
    <path d="M 320.209596 228.954713 
L 365.512656 228.954713 
L 365.512656 17.061433 
L 320.209596 17.061433 
z
" clip-path="url(#p0d6c98a096)" style="fill: #fee2e2; opacity: 0.45"/>
   </g>
   <g id="patch_8">
    <path d="M 365.512656 228.954713 
L 478.770306 228.954713 
L 478.770306 17.061433 
L 365.512656 17.061433 
z
" clip-path="url(#p0d6c98a096)" style="fill: #ede9fe; opacity: 0.45"/>
   </g>
   <g id="patch_9">
    <path d="M 478.770306 228.954713 
L 501.421836 228.954713 
L 501.421836 17.061433 
L 478.770306 17.061433 
z
" clip-path="url(#p0d6c98a096)" style="fill: #f8fafc; opacity: 0.45"/>
   </g>
   <g id="patch_10">
    <path d="M 501.421836 228.954713 
L 528.603672 228.954713 
L 528.603672 17.061433 
L 501.421836 17.061433 
z
" clip-path="url(#p0d6c98a096)" style="fill: #eff6ff; opacity: 0.45"/>
   </g>
   <g id="patch_11">
    <path d="M 528.603672 228.954713 
L 573.906732 228.954713 
L 573.906732 17.061433 
L 528.603672 17.061433 
z
" clip-path="url(#p0d6c98a096)" style="fill: #fef3c7; opacity: 0.45"/>
   </g>
   <g id="patch_12">
    <path d="M 573.906732 228.954713 
L 619.209792 228.954713 
L 619.209792 17.061433 
L 573.906732 17.061433 
z
" clip-path="url(#p0d6c98a096)" style="fill: #dcfce7; opacity: 0.45"/>
   </g>
   <g id="patch_13">
    <path d="M 619.209792 228.954713 
L 732.467441 228.954713 
L 732.467441 17.061433 
L 619.209792 17.061433 
z
" clip-path="url(#p0d6c98a096)" style="fill: #fee2e2; opacity: 0.45"/>
   </g>
   <g id="patch_14">
    <path d="M 732.467441 228.954713 
L 755.118971 228.954713 
L 755.118971 17.061433 
L 732.467441 17.061433 
z
" clip-path="url(#p0d6c98a096)" style="fill: #ede9fe; opacity: 0.45"/>
   </g>
   <g id="patch_15">
    <path d="M 755.118971 228.954713 
L 782.300807 228.954713 
L 782.300807 17.061433 
L 755.118971 17.061433 
z
" clip-path="url(#p0d6c98a096)" style="fill: #f8fafc; opacity: 0.45"/>
   </g>
   <g id="patch_16">
    <path d="M 782.300807 228.954713 
L 827.603867 228.954713 
L 827.603867 17.061433 
L 782.300807 17.061433 
z
" clip-path="url(#p0d6c98a096)" style="fill: #eff6ff; opacity: 0.45"/>
   </g>
   <g id="patch_17">
    <path d="M 827.603867 228.954713 
L 872.906927 228.954713 
L 872.906927 17.061433 
L 827.603867 17.061433 
z
" clip-path="url(#p0d6c98a096)" style="fill: #fef3c7; opacity: 0.45"/>
   </g>
   <g id="patch_18">
    <path d="M 872.906927 228.954713 
L 913.679681 228.954713 
L 913.679681 17.061433 
L 872.906927 17.061433 
z
" clip-path="url(#p0d6c98a096)" style="fill: #dcfce7; opacity: 0.45"/>
   </g>
   <g id="patch_19">
    <path d="M 913.679681 228.954713 
L 918.209987 228.954713 
L 918.209987 17.061433 
L 913.679681 17.061433 
z
" clip-path="url(#p0d6c98a096)" style="fill: #fee2e2; opacity: 0.45"/>
   </g>
   <g id="matplotlib.axis_1">
    <g id="xtick_1">
     <g id="line2d_1">
      <path d="M 39.330625 228.954713 
L 39.330625 17.061433 
" clip-path="url(#p0d6c98a096)" style="fill: none; stroke: #eef2f7; stroke-width: 0.55; stroke-linecap: square"/>
     </g>
     <g id="line2d_2">
      <defs>
       <path id="m5c4b603d2c" d="M 0 0 
L 0 3.5 
" style="stroke: #000000; stroke-width: 0.8"/>
      </defs>
      <g>
       <use xlink:href="#m5c4b603d2c" x="39.330625" y="228.954713" style="stroke: #000000; stroke-width: 0.8"/>
      </g>
     </g>
     <g id="text_1">
      <!-- 0 -->
      <g transform="translate(36.4675 242.793307) scale(0.09 -0.09)">
       <defs>
        <path id="DejaVuSans-30" d="M 2034 4250 
Q 1547 4250 1301 3770 
Q 1056 3291 1056 2328 
Q 1056 1369 1301 889 
Q 1547 409 2034 409 
Q 2525 409 2770 889 
Q 3016 1369 3016 2328 
Q 3016 3291 2770 3770 
Q 2525 4250 2034 4250 
z
M 2034 4750 
Q 2819 4750 3233 4129 
Q 3647 3509 3647 2328 
Q 3647 1150 3233 529 
Q 2819 -91 2034 -91 
Q 1250 -91 836 529 
Q 422 1150 422 2328 
Q 422 3509 836 4129 
Q 1250 4750 2034 4750 
z
" transform="scale(0.015625)"/>
       </defs>
       <use xlink:href="#DejaVuSans-30"/>
      </g>
     </g>
    </g>
    <g id="xtick_2">
     <g id="line2d_3">
      <path d="M 152.588275 228.954713 
L 152.588275 17.061433 
" clip-path="url(#p0d6c98a096)" style="fill: none; stroke: #eef2f7; stroke-width: 0.55; stroke-linecap: square"/>
     </g>
     <g id="line2d_4">
      <g>
       <use xlink:href="#m5c4b603d2c" x="152.588275" y="228.954713" style="stroke: #000000; stroke-width: 0.8"/>
      </g>
     </g>
     <g id="text_2">
      <!-- 25 -->
      <g transform="translate(146.862025 242.793307) scale(0.09 -0.09)">
       <defs>
        <path id="DejaVuSans-32" d="M 1228 531 
L 3431 531 
L 3431 0 
L 469 0 
L 469 531 
Q 828 903 1448 1529 
Q 2069 2156 2228 2338 
Q 2531 2678 2651 2914 
Q 2772 3150 2772 3378 
Q 2772 3750 2511 3984 
Q 2250 4219 1831 4219 
Q 1534 4219 1204 4116 
Q 875 4013 500 3803 
L 500 4441 
Q 881 4594 1212 4672 
Q 1544 4750 1819 4750 
Q 2544 4750 2975 4387 
Q 3406 4025 3406 3419 
Q 3406 3131 3298 2873 
Q 3191 2616 2906 2266 
Q 2828 2175 2409 1742 
Q 1991 1309 1228 531 
z
" transform="scale(0.015625)"/>
        <path id="DejaVuSans-35" d="M 691 4666 
L 3169 4666 
L 3169 4134 
L 1269 4134 
L 1269 2991 
Q 1406 3038 1543 3061 
Q 1681 3084 1819 3084 
Q 2600 3084 3056 2656 
Q 3513 2228 3513 1497 
Q 3513 744 3044 326 
Q 2575 -91 1722 -91 
Q 1428 -91 1123 -41 
Q 819 9 494 109 
L 494 744 
Q 775 591 1075 516 
Q 1375 441 1709 441 
Q 2250 441 2565 725 
Q 2881 1009 2881 1497 
Q 2881 1984 2565 2268 
Q 2250 2553 1709 2553 
Q 1456 2553 1204 2497 
Q 953 2441 691 2322 
L 691 4666 
z
" transform="scale(0.015625)"/>
       </defs>
       <use xlink:href="#DejaVuSans-32"/>
       <use xlink:href="#DejaVuSans-35" transform="translate(63.623047 0)"/>
      </g>
     </g>
    </g>
    <g id="xtick_3">
     <g id="line2d_5">
      <path d="M 265.845924 228.954713 
L 265.845924 17.061433 
" clip-path="url(#p0d6c98a096)" style="fill: none; stroke: #eef2f7; stroke-width: 0.55; stroke-linecap: square"/>
     </g>
     <g id="line2d_6">
      <g>
       <use xlink:href="#m5c4b603d2c" x="265.845924" y="228.954713" style="stroke: #000000; stroke-width: 0.8"/>
      </g>
     </g>
     <g id="text_3">
      <!-- 50 -->
      <g transform="translate(260.119674 242.793307) scale(0.09 -0.09)">
       <use xlink:href="#DejaVuSans-35"/>
       <use xlink:href="#DejaVuSans-30" transform="translate(63.623047 0)"/>
      </g>
     </g>
    </g>
    <g id="xtick_4">
     <g id="line2d_7">
      <path d="M 379.103574 228.954713 
L 379.103574 17.061433 
" clip-path="url(#p0d6c98a096)" style="fill: none; stroke: #eef2f7; stroke-width: 0.55; stroke-linecap: square"/>
     </g>
     <g id="line2d_8">
      <g>
       <use xlink:href="#m5c4b603d2c" x="379.103574" y="228.954713" style="stroke: #000000; stroke-width: 0.8"/>
      </g>
     </g>
     <g id="text_4">
      <!-- 75 -->
      <g transform="translate(373.377324 242.793307) scale(0.09 -0.09)">
       <defs>
        <path id="DejaVuSans-37" d="M 525 4666 
L 3525 4666 
L 3525 4397 
L 1831 0 
L 1172 0 
L 2766 4134 
L 525 4134 
L 525 4666 
z
" transform="scale(0.015625)"/>
       </defs>
       <use xlink:href="#DejaVuSans-37"/>
       <use xlink:href="#DejaVuSans-35" transform="translate(63.623047 0)"/>
      </g>
     </g>
    </g>
    <g id="xtick_5">
     <g id="line2d_9">
      <path d="M 492.361224 228.954713 
L 492.361224 17.061433 
" clip-path="url(#p0d6c98a096)" style="fill: none; stroke: #eef2f7; stroke-width: 0.55; stroke-linecap: square"/>
     </g>
     <g id="line2d_10">
      <g>
       <use xlink:href="#m5c4b603d2c" x="492.361224" y="228.954713" style="stroke: #000000; stroke-width: 0.8"/>
      </g>
     </g>
     <g id="text_5">
      <!-- 100 -->
      <g transform="translate(483.771849 242.793307) scale(0.09 -0.09)">
       <defs>
        <path id="DejaVuSans-31" d="M 794 531 
L 1825 531 
L 1825 4091 
L 703 3866 
L 703 4441 
L 1819 4666 
L 2450 4666 
L 2450 531 
L 3481 531 
L 3481 0 
L 794 0 
L 794 531 
z
" transform="scale(0.015625)"/>
       </defs>
       <use xlink:href="#DejaVuSans-31"/>
       <use xlink:href="#DejaVuSans-30" transform="translate(63.623047 0)"/>
       <use xlink:href="#DejaVuSans-30" transform="translate(127.246094 0)"/>
      </g>
     </g>
    </g>
    <g id="xtick_6">
     <g id="line2d_11">
      <path d="M 605.618874 228.954713 
L 605.618874 17.061433 
" clip-path="url(#p0d6c98a096)" style="fill: none; stroke: #eef2f7; stroke-width: 0.55; stroke-linecap: square"/>
     </g>
     <g id="line2d_12">
      <g>
       <use xlink:href="#m5c4b603d2c" x="605.618874" y="228.954713" style="stroke: #000000; stroke-width: 0.8"/>
      </g>
     </g>
     <g id="text_6">
      <!-- 125 -->
      <g transform="translate(597.029499 242.793307) scale(0.09 -0.09)">
       <use xlink:href="#DejaVuSans-31"/>
       <use xlink:href="#DejaVuSans-32" transform="translate(63.623047 0)"/>
       <use xlink:href="#DejaVuSans-35" transform="translate(127.246094 0)"/>
      </g>
     </g>
    </g>
    <g id="xtick_7">
     <g id="line2d_13">
      <path d="M 718.876523 228.954713 
L 718.876523 17.061433 
" clip-path="url(#p0d6c98a096)" style="fill: none; stroke: #eef2f7; stroke-width: 0.55; stroke-linecap: square"/>
     </g>
     <g id="line2d_14">
      <g>
       <use xlink:href="#m5c4b603d2c" x="718.876523" y="228.954713" style="stroke: #000000; stroke-width: 0.8"/>
      </g>
     </g>
     <g id="text_7">
      <!-- 150 -->
      <g transform="translate(710.287148 242.793307) scale(0.09 -0.09)">
       <use xlink:href="#DejaVuSans-31"/>
       <use xlink:href="#DejaVuSans-35" transform="translate(63.623047 0)"/>
       <use xlink:href="#DejaVuSans-30" transform="translate(127.246094 0)"/>
      </g>
     </g>
    </g>
    <g id="xtick_8">
     <g id="line2d_15">
      <path d="M 832.134173 228.954713 
L 832.134173 17.061433 
" clip-path="url(#p0d6c98a096)" style="fill: none; stroke: #eef2f7; stroke-width: 0.55; stroke-linecap: square"/>
     </g>
     <g id="line2d_16">
      <g>
       <use xlink:href="#m5c4b603d2c" x="832.134173" y="228.954713" style="stroke: #000000; stroke-width: 0.8"/>
      </g>
     </g>
     <g id="text_8">
      <!-- 175 -->
      <g transform="translate(823.544798 242.793307) scale(0.09 -0.09)">
       <use xlink:href="#DejaVuSans-31"/>
       <use xlink:href="#DejaVuSans-37" transform="translate(63.623047 0)"/>
       <use xlink:href="#DejaVuSans-35" transform="translate(127.246094 0)"/>
      </g>
     </g>
    </g>
    <g id="text_9">
     <!-- Minutes since session start -->
     <g transform="translate(419.728281 256.263463) scale(0.1 -0.1)">
      <defs>
       <path id="DejaVuSans-4d" d="M 628 4666 
L 1569 4666 
L 2759 1491 
L 3956 4666 
L 4897 4666 
L 4897 0 
L 4281 0 
L 4281 4097 
L 3078 897 
L 2444 897 
L 1241 4097 
L 1241 0 
L 628 0 
L 628 4666 
z
" transform="scale(0.015625)"/>
       <path id="DejaVuSans-69" d="M 603 3500 
L 1178 3500 
L 1178 0 
L 603 0 
L 603 3500 
z
M 603 4863 
L 1178 4863 
L 1178 4134 
L 603 4134 
L 603 4863 
z
" transform="scale(0.015625)"/>
       <path id="DejaVuSans-6e" d="M 3513 2113 
L 3513 0 
L 2938 0 
L 2938 2094 
Q 2938 2591 2744 2837 
Q 2550 3084 2163 3084 
Q 1697 3084 1428 2787 
Q 1159 2491 1159 1978 
L 1159 0 
L 581 0 
L 581 3500 
L 1159 3500 
L 1159 2956 
Q 1366 3272 1645 3428 
Q 1925 3584 2291 3584 
Q 2894 3584 3203 3211 
Q 3513 2838 3513 2113 
z
" transform="scale(0.015625)"/>
       <path id="DejaVuSans-75" d="M 544 1381 
L 544 3500 
L 1119 3500 
L 1119 1403 
Q 1119 906 1312 657 
Q 1506 409 1894 409 
Q 2359 409 2629 706 
Q 2900 1003 2900 1516 
L 2900 3500 
L 3475 3500 
L 3475 0 
L 2900 0 
L 2900 538 
Q 2691 219 2414 64 
Q 2138 -91 1772 -91 
Q 1169 -91 856 284 
Q 544 659 544 1381 
z
M 1991 3584 
L 1991 3584 
z
" transform="scale(0.015625)"/>
       <path id="DejaVuSans-74" d="M 1172 4494 
L 1172 3500 
L 2356 3500 
L 2356 3053 
L 1172 3053 
L 1172 1153 
Q 1172 725 1289 603 
Q 1406 481 1766 481 
L 2356 481 
L 2356 0 
L 1766 0 
Q 1100 0 847 248 
Q 594 497 594 1153 
L 594 3053 
L 172 3053 
L 172 3500 
L 594 3500 
L 594 4494 
L 1172 4494 
z
" transform="scale(0.015625)"/>
       <path id="DejaVuSans-65" d="M 3597 1894 
L 3597 1613 
L 953 1613 
Q 991 1019 1311 708 
Q 1631 397 2203 397 
Q 2534 397 2845 478 
Q 3156 559 3463 722 
L 3463 178 
Q 3153 47 2828 -22 
Q 2503 -91 2169 -91 
Q 1331 -91 842 396 
Q 353 884 353 1716 
Q 353 2575 817 3079 
Q 1281 3584 2069 3584 
Q 2775 3584 3186 3129 
Q 3597 2675 3597 1894 
z
M 3022 2063 
Q 3016 2534 2758 2815 
Q 2500 3097 2075 3097 
Q 1594 3097 1305 2825 
Q 1016 2553 972 2059 
L 3022 2063 
z
" transform="scale(0.015625)"/>
       <path id="DejaVuSans-73" d="M 2834 3397 
L 2834 2853 
Q 2591 2978 2328 3040 
Q 2066 3103 1784 3103 
Q 1356 3103 1142 2972 
Q 928 2841 928 2578 
Q 928 2378 1081 2264 
Q 1234 2150 1697 2047 
L 1894 2003 
Q 2506 1872 2764 1633 
Q 3022 1394 3022 966 
Q 3022 478 2636 193 
Q 2250 -91 1575 -91 
Q 1294 -91 989 -36 
Q 684 19 347 128 
L 347 722 
Q 666 556 975 473 
Q 1284 391 1588 391 
Q 1994 391 2212 530 
Q 2431 669 2431 922 
Q 2431 1156 2273 1281 
Q 2116 1406 1581 1522 
L 1381 1569 
Q 847 1681 609 1914 
Q 372 2147 372 2553 
Q 372 3047 722 3315 
Q 1072 3584 1716 3584 
Q 2034 3584 2315 3537 
Q 2597 3491 2834 3397 
z
" transform="scale(0.015625)"/>
       <path id="DejaVuSans-20" transform="scale(0.015625)"/>
       <path id="DejaVuSans-63" d="M 3122 3366 
L 3122 2828 
Q 2878 2963 2633 3030 
Q 2388 3097 2138 3097 
Q 1578 3097 1268 2742 
Q 959 2388 959 1747 
Q 959 1106 1268 751 
Q 1578 397 2138 397 
Q 2388 397 2633 464 
Q 2878 531 3122 666 
L 3122 134 
Q 2881 22 2623 -34 
Q 2366 -91 2075 -91 
Q 1284 -91 818 406 
Q 353 903 353 1747 
Q 353 2603 823 3093 
Q 1294 3584 2113 3584 
Q 2378 3584 2631 3529 
Q 2884 3475 3122 3366 
z
" transform="scale(0.015625)"/>
       <path id="DejaVuSans-6f" d="M 1959 3097 
Q 1497 3097 1228 2736 
Q 959 2375 959 1747 
Q 959 1119 1226 758 
Q 1494 397 1959 397 
Q 2419 397 2687 759 
Q 2956 1122 2956 1747 
Q 2956 2369 2687 2733 
Q 2419 3097 1959 3097 
z
M 1959 3584 
Q 2709 3584 3137 3096 
Q 3566 2609 3566 1747 
Q 3566 888 3137 398 
Q 2709 -91 1959 -91 
Q 1206 -91 779 398 
Q 353 888 353 1747 
Q 353 2609 779 3096 
Q 1206 3584 1959 3584 
z
" transform="scale(0.015625)"/>
       <path id="DejaVuSans-61" d="M 2194 1759 
Q 1497 1759 1228 1600 
Q 959 1441 959 1056 
Q 959 750 1161 570 
Q 1363 391 1709 391 
Q 2188 391 2477 730 
Q 2766 1069 2766 1631 
L 2766 1759 
L 2194 1759 
z
M 3341 1997 
L 3341 0 
L 2766 0 
L 2766 531 
Q 2569 213 2275 61 
Q 1981 -91 1556 -91 
Q 1019 -91 701 211 
Q 384 513 384 1019 
Q 384 1609 779 1909 
Q 1175 2209 1959 2209 
L 2766 2209 
L 2766 2266 
Q 2766 2663 2505 2880 
Q 2244 3097 1772 3097 
Q 1472 3097 1187 3025 
Q 903 2953 641 2809 
L 641 3341 
Q 956 3463 1253 3523 
Q 1550 3584 1831 3584 
Q 2591 3584 2966 3190 
Q 3341 2797 3341 1997 
z
" transform="scale(0.015625)"/>
       <path id="DejaVuSans-72" d="M 2631 2963 
Q 2534 3019 2420 3045 
Q 2306 3072 2169 3072 
Q 1681 3072 1420 2755 
Q 1159 2438 1159 1844 
L 1159 0 
L 581 0 
L 581 3500 
L 1159 3500 
L 1159 2956 
Q 1341 3275 1631 3429 
Q 1922 3584 2338 3584 
Q 2397 3584 2469 3576 
Q 2541 3569 2628 3553 
L 2631 2963 
z
" transform="scale(0.015625)"/>
      </defs>
      <use xlink:href="#DejaVuSans-4d"/>
      <use xlink:href="#DejaVuSans-69" transform="translate(86.279297 0)"/>
      <use xlink:href="#DejaVuSans-6e" transform="translate(114.0625 0)"/>
      <use xlink:href="#DejaVuSans-75" transform="translate(177.441406 0)"/>
      <use xlink:href="#DejaVuSans-74" transform="translate(240.820312 0)"/>
      <use xlink:href="#DejaVuSans-65" transform="translate(280.029297 0)"/>
      <use xlink:href="#DejaVuSans-73" transform="translate(341.552734 0)"/>
      <use xlink:href="#DejaVuSans-20" transform="translate(393.652344 0)"/>
      <use xlink:href="#DejaVuSans-73" transform="translate(425.439453 0)"/>
      <use xlink:href="#DejaVuSans-69" transform="translate(477.539062 0)"/>
      <use xlink:href="#DejaVuSans-6e" transform="translate(505.322266 0)"/>
      <use xlink:href="#DejaVuSans-63" transform="translate(568.701172 0)"/>
      <use xlink:href="#DejaVuSans-65" transform="translate(623.681641 0)"/>
      <use xlink:href="#DejaVuSans-20" transform="translate(685.205078 0)"/>
      <use xlink:href="#DejaVuSans-73" transform="translate(716.992188 0)"/>
      <use xlink:href="#DejaVuSans-65" transform="translate(769.091797 0)"/>
      <use xlink:href="#DejaVuSans-73" transform="translate(830.615234 0)"/>
      <use xlink:href="#DejaVuSans-73" transform="translate(882.714844 0)"/>
      <use xlink:href="#DejaVuSans-69" transform="translate(934.814453 0)"/>
      <use xlink:href="#DejaVuSans-6f" transform="translate(962.597656 0)"/>
      <use xlink:href="#DejaVuSans-6e" transform="translate(1023.779297 0)"/>
      <use xlink:href="#DejaVuSans-20" transform="translate(1087.158203 0)"/>
      <use xlink:href="#DejaVuSans-73" transform="translate(1118.945312 0)"/>
      <use xlink:href="#DejaVuSans-74" transform="translate(1171.044922 0)"/>
      <use xlink:href="#DejaVuSans-61" transform="translate(1210.253906 0)"/>
      <use xlink:href="#DejaVuSans-72" transform="translate(1271.533203 0)"/>
      <use xlink:href="#DejaVuSans-74" transform="translate(1312.646484 0)"/>
     </g>
    </g>
   </g>
   <g id="matplotlib.axis_2">
    <g id="ytick_1">
     <g id="line2d_17">
      <path d="M 39.330625 208.012867 
L 935.305625 208.012867 
" clip-path="url(#p0d6c98a096)" style="fill: none; stroke: #eef2f7; stroke-opacity: 0.25; stroke-width: 0.55; stroke-linecap: square"/>
     </g>
     <g id="line2d_18">
      <defs>
       <path id="m1314546c94" d="M 0 0 
L -3.5 0 
" style="stroke: #000000; stroke-width: 0.8"/>
      </defs>
      <g>
       <use xlink:href="#m1314546c94" x="39.330625" y="208.012867" style="stroke: #000000; stroke-width: 0.8"/>
      </g>
     </g>
     <g id="text_10">
      <!-- 2 -->
      <g transform="translate(26.604375 211.432164) scale(0.09 -0.09)">
       <use xlink:href="#DejaVuSans-32"/>
      </g>
     </g>
    </g>
    <g id="ytick_2">
     <g id="line2d_19">
      <path d="M 39.330625 174.145032 
L 935.305625 174.145032 
" clip-path="url(#p0d6c98a096)" style="fill: none; stroke: #eef2f7; stroke-opacity: 0.25; stroke-width: 0.55; stroke-linecap: square"/>
     </g>
     <g id="line2d_20">
      <g>
       <use xlink:href="#m1314546c94" x="39.330625" y="174.145032" style="stroke: #000000; stroke-width: 0.8"/>
      </g>
     </g>
     <g id="text_11">
      <!-- 4 -->
      <g transform="translate(26.604375 177.564329) scale(0.09 -0.09)">
       <defs>
        <path id="DejaVuSans-34" d="M 2419 4116 
L 825 1625 
L 2419 1625 
L 2419 4116 
z
M 2253 4666 
L 3047 4666 
L 3047 1625 
L 3713 1625 
L 3713 1100 
L 3047 1100 
L 3047 0 
L 2419 0 
L 2419 1100 
L 313 1100 
L 313 1709 
L 2253 4666 
z
" transform="scale(0.015625)"/>
       </defs>
       <use xlink:href="#DejaVuSans-34"/>
      </g>
     </g>
    </g>
    <g id="ytick_3">
     <g id="line2d_21">
      <path d="M 39.330625 140.277197 
L 935.305625 140.277197 
" clip-path="url(#p0d6c98a096)" style="fill: none; stroke: #eef2f7; stroke-opacity: 0.25; stroke-width: 0.55; stroke-linecap: square"/>
     </g>
     <g id="line2d_22">
      <g>
       <use xlink:href="#m1314546c94" x="39.330625" y="140.277197" style="stroke: #000000; stroke-width: 0.8"/>
      </g>
     </g>
     <g id="text_12">
      <!-- 6 -->
      <g transform="translate(26.604375 143.696494) scale(0.09 -0.09)">
       <defs>
        <path id="DejaVuSans-36" d="M 2113 2584 
Q 1688 2584 1439 2293 
Q 1191 2003 1191 1497 
Q 1191 994 1439 701 
Q 1688 409 2113 409 
Q 2538 409 2786 701 
Q 3034 994 3034 1497 
Q 3034 2003 2786 2293 
Q 2538 2584 2113 2584 
z
M 3366 4563 
L 3366 3988 
Q 3128 4100 2886 4159 
Q 2644 4219 2406 4219 
Q 1781 4219 1451 3797 
Q 1122 3375 1075 2522 
Q 1259 2794 1537 2939 
Q 1816 3084 2150 3084 
Q 2853 3084 3261 2657 
Q 3669 2231 3669 1497 
Q 3669 778 3244 343 
Q 2819 -91 2113 -91 
Q 1303 -91 875 529 
Q 447 1150 447 2328 
Q 447 3434 972 4092 
Q 1497 4750 2381 4750 
Q 2619 4750 2861 4703 
Q 3103 4656 3366 4563 
z
" transform="scale(0.015625)"/>
       </defs>
       <use xlink:href="#DejaVuSans-36"/>
      </g>
     </g>
    </g>
    <g id="ytick_4">
     <g id="line2d_23">
      <path d="M 39.330625 106.409362 
L 935.305625 106.409362 
" clip-path="url(#p0d6c98a096)" style="fill: none; stroke: #eef2f7; stroke-opacity: 0.25; stroke-width: 0.55; stroke-linecap: square"/>
     </g>
     <g id="line2d_24">
      <g>
       <use xlink:href="#m1314546c94" x="39.330625" y="106.409362" style="stroke: #000000; stroke-width: 0.8"/>
      </g>
     </g>
     <g id="text_13">
      <!-- 8 -->
      <g transform="translate(26.604375 109.828659) scale(0.09 -0.09)">
       <defs>
        <path id="DejaVuSans-38" d="M 2034 2216 
Q 1584 2216 1326 1975 
Q 1069 1734 1069 1313 
Q 1069 891 1326 650 
Q 1584 409 2034 409 
Q 2484 409 2743 651 
Q 3003 894 3003 1313 
Q 3003 1734 2745 1975 
Q 2488 2216 2034 2216 
z
M 1403 2484 
Q 997 2584 770 2862 
Q 544 3141 544 3541 
Q 544 4100 942 4425 
Q 1341 4750 2034 4750 
Q 2731 4750 3128 4425 
Q 3525 4100 3525 3541 
Q 3525 3141 3298 2862 
Q 3072 2584 2669 2484 
Q 3125 2378 3379 2068 
Q 3634 1759 3634 1313 
Q 3634 634 3220 271 
Q 2806 -91 2034 -91 
Q 1263 -91 848 271 
Q 434 634 434 1313 
Q 434 1759 690 2068 
Q 947 2378 1403 2484 
z
M 1172 3481 
Q 1172 3119 1398 2916 
Q 1625 2713 2034 2713 
Q 2441 2713 2670 2916 
Q 2900 3119 2900 3481 
Q 2900 3844 2670 4047 
Q 2441 4250 2034 4250 
Q 1625 4250 1398 4047 
Q 1172 3844 1172 3481 
z
" transform="scale(0.015625)"/>
       </defs>
       <use xlink:href="#DejaVuSans-38"/>
      </g>
     </g>
    </g>
    <g id="ytick_5">
     <g id="line2d_25">
      <path d="M 39.330625 72.541527 
L 935.305625 72.541527 
" clip-path="url(#p0d6c98a096)" style="fill: none; stroke: #eef2f7; stroke-opacity: 0.25; stroke-width: 0.55; stroke-linecap: square"/>
     </g>
     <g id="line2d_26">
      <g>
       <use xlink:href="#m1314546c94" x="39.330625" y="72.541527" style="stroke: #000000; stroke-width: 0.8"/>
      </g>
     </g>
     <g id="text_14">
      <!-- 10 -->
      <g transform="translate(20.878125 75.960824) scale(0.09 -0.09)">
       <use xlink:href="#DejaVuSans-31"/>
       <use xlink:href="#DejaVuSans-30" transform="translate(63.623047 0)"/>
      </g>
     </g>
    </g>
    <g id="ytick_6">
     <g id="line2d_27">
      <path d="M 39.330625 38.673692 
L 935.305625 38.673692 
" clip-path="url(#p0d6c98a096)" style="fill: none; stroke: #eef2f7; stroke-opacity: 0.25; stroke-width: 0.55; stroke-linecap: square"/>
     </g>
     <g id="line2d_28">
      <g>
       <use xlink:href="#m1314546c94" x="39.330625" y="38.673692" style="stroke: #000000; stroke-width: 0.8"/>
      </g>
     </g>
     <g id="text_15">
      <!-- 12 -->
      <g transform="translate(20.878125 42.092989) scale(0.09 -0.09)">
       <use xlink:href="#DejaVuSans-31"/>
       <use xlink:href="#DejaVuSans-32" transform="translate(63.623047 0)"/>
      </g>
     </g>
    </g>
    <g id="text_16">
     <!-- EDA (microsiemens) -->
     <g transform="translate(14.798438 173.642448) rotate(-90) scale(0.1 -0.1)">
      <defs>
       <path id="DejaVuSans-45" d="M 628 4666 
L 3578 4666 
L 3578 4134 
L 1259 4134 
L 1259 2753 
L 3481 2753 
L 3481 2222 
L 1259 2222 
L 1259 531 
L 3634 531 
L 3634 0 
L 628 0 
L 628 4666 
z
" transform="scale(0.015625)"/>
       <path id="DejaVuSans-44" d="M 1259 4147 
L 1259 519 
L 2022 519 
Q 2988 519 3436 956 
Q 3884 1394 3884 2338 
Q 3884 3275 3436 3711 
Q 2988 4147 2022 4147 
L 1259 4147 
z
M 628 4666 
L 1925 4666 
Q 3281 4666 3915 4102 
Q 4550 3538 4550 2338 
Q 4550 1131 3912 565 
Q 3275 0 1925 0 
L 628 0 
L 628 4666 
z
" transform="scale(0.015625)"/>
       <path id="DejaVuSans-41" d="M 2188 4044 
L 1331 1722 
L 3047 1722 
L 2188 4044 
z
M 1831 4666 
L 2547 4666 
L 4325 0 
L 3669 0 
L 3244 1197 
L 1141 1197 
L 716 0 
L 50 0 
L 1831 4666 
z
" transform="scale(0.015625)"/>
       <path id="DejaVuSans-28" d="M 1984 4856 
Q 1566 4138 1362 3434 
Q 1159 2731 1159 2009 
Q 1159 1288 1364 580 
Q 1569 -128 1984 -844 
L 1484 -844 
Q 1016 -109 783 600 
Q 550 1309 550 2009 
Q 550 2706 781 3412 
Q 1013 4119 1484 4856 
L 1984 4856 
z
" transform="scale(0.015625)"/>
       <path id="DejaVuSans-6d" d="M 3328 2828 
Q 3544 3216 3844 3400 
Q 4144 3584 4550 3584 
Q 5097 3584 5394 3201 
Q 5691 2819 5691 2113 
L 5691 0 
L 5113 0 
L 5113 2094 
Q 5113 2597 4934 2840 
Q 4756 3084 4391 3084 
Q 3944 3084 3684 2787 
Q 3425 2491 3425 1978 
L 3425 0 
L 2847 0 
L 2847 2094 
Q 2847 2600 2669 2842 
Q 2491 3084 2119 3084 
Q 1678 3084 1418 2786 
Q 1159 2488 1159 1978 
L 1159 0 
L 581 0 
L 581 3500 
L 1159 3500 
L 1159 2956 
Q 1356 3278 1631 3431 
Q 1906 3584 2284 3584 
Q 2666 3584 2933 3390 
Q 3200 3197 3328 2828 
z
" transform="scale(0.015625)"/>
       <path id="DejaVuSans-29" d="M 513 4856 
L 1013 4856 
Q 1481 4119 1714 3412 
Q 1947 2706 1947 2009 
Q 1947 1309 1714 600 
Q 1481 -109 1013 -844 
L 513 -844 
Q 928 -128 1133 580 
Q 1338 1288 1338 2009 
Q 1338 2731 1133 3434 
Q 928 4138 513 4856 
z
" transform="scale(0.015625)"/>
      </defs>
      <use xlink:href="#DejaVuSans-45"/>
      <use xlink:href="#DejaVuSans-44" transform="translate(63.183594 0)"/>
      <use xlink:href="#DejaVuSans-41" transform="translate(138.435547 0)"/>
      <use xlink:href="#DejaVuSans-20" transform="translate(206.84375 0)"/>
      <use xlink:href="#DejaVuSans-28" transform="translate(238.630859 0)"/>
      <use xlink:href="#DejaVuSans-6d" transform="translate(277.644531 0)"/>
      <use xlink:href="#DejaVuSans-69" transform="translate(375.056641 0)"/>
      <use xlink:href="#DejaVuSans-63" transform="translate(402.839844 0)"/>
      <use xlink:href="#DejaVuSans-72" transform="translate(457.820312 0)"/>
      <use xlink:href="#DejaVuSans-6f" transform="translate(496.683594 0)"/>
      <use xlink:href="#DejaVuSans-73" transform="translate(557.865234 0)"/>
      <use xlink:href="#DejaVuSans-69" transform="translate(609.964844 0)"/>
      <use xlink:href="#DejaVuSans-65" transform="translate(637.748047 0)"/>
      <use xlink:href="#DejaVuSans-6d" transform="translate(699.271484 0)"/>
      <use xlink:href="#DejaVuSans-65" transform="translate(796.683594 0)"/>
      <use xlink:href="#DejaVuSans-6e" transform="translate(858.207031 0)"/>
      <use xlink:href="#DejaVuSans-73" transform="translate(921.585938 0)"/>
      <use xlink:href="#DejaVuSans-29" transform="translate(973.685547 0)"/>
     </g>
    </g>
   </g>
   <g id="line2d_29">
    <path d="M 56.238709 208.987584 
L 56.527138 211.028798 
L 57.103997 213.328424 
L 57.392426 213.095921 
L 57.680856 213.070012 
L 57.969285 204.801519 
L 58.546144 198.57441 
L 58.834574 200.098801 
L 59.699862 188.833004 
L 59.988292 189.039767 
L 60.276721 187.799358 
L 60.565151 187.592764 
L 60.85358 170.590603 
L 61.14201 175.138206 
L 61.430439 171.830843 
L 62.007298 178.652333 
L 62.295728 186.739972 
L 62.584157 189.039767 
L 62.872587 185.112115 
L 63.161016 184.104377 
L 63.449446 180.564511 
L 63.737875 180.357748 
L 64.026305 172.476872 
L 64.314734 180.745365 
L 64.603163 180.564511 
L 64.891593 179.970131 
L 65.468452 186.094112 
L 65.756881 185.732235 
L 66.045311 183.044991 
L 66.33374 179.03995 
L 66.62217 170.228894 
L 66.910599 175.784235 
L 67.199029 173.096992 
L 67.487458 177.024476 
L 67.775888 176.998736 
L 68.352747 181.21054 
L 68.641176 181.83066 
L 68.929606 178.833187 
L 69.218035 181.391394 
L 69.506465 174.285584 
L 69.794894 174.182287 
L 70.083324 172.916138 
L 70.371753 177.412093 
L 70.660183 168.962745 
L 70.948612 174.078821 
L 71.237042 169.73798 
L 71.525471 170.6939 
L 71.813901 164.18247 
L 72.10233 168.265068 
L 72.390759 168.704334 
L 72.679189 166.068739 
L 72.967618 172.450963 
L 73.256048 168.368365 
L 73.544477 162.089607 
L 73.832907 160.074132 
L 74.121336 166.688859 
L 74.409766 162.347849 
L 74.698195 167.851711 
L 74.986625 166.611302 
L 75.275054 170.771457 
L 75.563484 157.774337 
L 75.851913 167.696596 
L 76.140343 167.489833 
L 76.428772 166.01709 
L 76.717202 170.797366 
L 77.294061 163.097175 
L 77.58249 161.495227 
L 77.87092 167.257331 
L 78.159349 170.642251 
L 78.447779 172.683635 
L 78.736208 173.484609 
L 79.024638 175.732587 
L 79.313067 174.750758 
L 80.178355 181.391394 
L 80.755214 179.479216 
L 81.043644 182.76084 
L 81.332073 181.649806 
L 81.908932 186.765881 
L 82.197362 181.779012 
L 82.485791 182.218277 
L 82.774221 183.484257 
L 83.06265 183.251754 
L 83.35108 178.910745 
L 83.639509 180.099336 
L 83.927939 183.871874 
L 84.216368 182.399132 
L 84.504798 172.373575 
L 84.793227 174.311493 
L 85.081657 174.595644 
L 85.370086 177.644596 
L 85.658516 175.784235 
L 85.946945 177.851359 
L 86.235375 167.619039 
L 86.523804 169.324454 
L 86.812234 172.244369 
L 87.100663 167.722505 
L 87.389092 167.334888 
L 87.677522 165.810327 
L 87.965951 163.355587 
L 88.254381 169.169509 
L 88.54281 171.856752 
L 88.83124 169.556957 
L 89.119669 172.244369 
L 89.408099 171.830843 
L 89.696528 172.321757 
L 89.984958 174.156378 
L 90.273387 175.190024 
L 90.561817 177.644596 
L 90.850246 178.652333 
L 91.427105 184.078638 
L 91.715535 185.758144 
L 92.003964 186.585027 
L 92.869253 194.207491 
L 93.446112 198.548501 
L 93.734541 198.212532 
L 94.3114 202.450245 
L 94.59983 203.147922 
L 94.888259 204.413902 
L 95.176688 206.248522 
L 95.465118 205.189136 
L 95.753547 206.687788 
L 96.041977 204.594925 
L 96.330406 205.163397 
L 96.618836 206.868642 
L 97.195695 207.902289 
L 97.484124 206.481194 
L 97.772554 205.628402 
L 98.060983 207.514671 
L 98.349413 207.282169 
L 98.637842 206.662049 
L 98.926272 204.388162 
L 99.214701 204.801519 
L 99.79156 203.768042 
L 100.07999 204.982373 
L 100.368419 203.535539 
L 100.656849 204.930725 
L 100.945278 205.421639 
L 101.233708 203.096274 
L 101.810567 205.137488 
L 102.387426 203.948896 
L 103.829573 209.814297 
L 104.118002 210.873683 
L 104.406432 209.452589 
L 104.694861 208.961675 
L 104.983291 209.736909 
L 105.27172 209.995152 
L 105.56015 211.364767 
L 105.848579 209.323383 
L 106.137009 209.943503 
L 106.713868 212.243299 
L 107.579156 214.568833 
L 107.867586 215.576401 
L 108.156015 215.137136 
L 108.444445 215.705607 
L 108.732874 216.868459 
L 109.021304 216.403285 
L 109.598163 213.509278 
L 109.886592 206.041929 
L 110.175022 204.362253 
L 110.463451 203.509631 
L 110.75188 201.907513 
L 111.04031 202.708656 
L 111.328739 202.91525 
L 111.617169 202.527802 
L 111.905598 202.941159 
L 112.194028 202.682747 
L 112.770887 202.708656 
L 113.059316 201.33921 
L 113.347746 197.153146 
L 113.636175 199.452941 
L 113.924605 199.659535 
L 114.213034 200.073061 
L 114.501464 198.135144 
L 114.789893 200.331473 
L 115.078323 200.460679 
L 115.655182 202.26939 
L 115.943611 202.682747 
L 116.52047 205.421639 
L 116.8089 206.997848 
L 117.097329 207.721435 
L 117.385759 207.049497 
L 117.674188 208.341555 
L 117.962618 208.910026 
L 118.251047 210.201915 
L 118.539476 209.349292 
L 118.827906 209.581795 
L 119.116335 203.380425 
L 119.404765 204.569016 
L 119.693194 202.91525 
L 119.981624 199.633796 
L 120.270053 198.987767 
L 120.558483 197.540763 
L 120.846912 186.48173 
L 121.423771 191.287745 
L 122.00063 192.99316 
L 122.28906 192.140368 
L 122.577489 191.675362 
L 122.865919 193.664928 
L 123.154348 193.819874 
L 124.019637 197.334 
L 124.308066 196.274614 
L 124.596496 196.894734 
L 124.884925 190.383304 
L 125.173355 190.073244 
L 125.750214 193.819874 
L 126.038643 193.639019 
L 126.327072 195.499549 
L 126.615502 195.266877 
L 126.903931 197.179055 
L 127.192361 196.09376 
L 127.48079 196.507286 
L 127.76922 175.31923 
L 128.057649 181.804751 
L 128.634508 187.386001 
L 128.922938 187.799358 
L 129.499797 191.520248 
L 129.788226 191.055242 
L 130.365085 193.561631 
L 130.653515 194.672666 
L 131.230374 171.00396 
L 131.518803 175.835884 
L 131.807233 177.79971 
L 132.095662 180.771274 
L 132.384092 181.8564 
L 132.672521 174.053081 
L 132.960951 176.998736 
L 133.24938 176.766064 
L 133.53781 178.290625 
L 134.114668 152.735819 
L 134.691527 161.08187 
L 134.979957 159.84146 
L 135.268386 159.660606 
L 135.556816 158.730426 
L 136.133675 163.949967 
L 136.710534 167.102385 
L 136.998963 167.489833 
L 137.287393 169.996222 
L 137.575822 170.3581 
L 138.152681 174.104729 
L 138.441111 174.311493 
L 138.72954 175.577472 
L 139.01797 173.639555 
L 139.306399 175.370879 
L 139.883258 180.383657 
L 140.460117 185.112115 
L 140.748547 185.525641 
L 141.036976 183.742669 
L 141.325405 184.440346 
L 141.902264 186.145761 
L 142.190694 183.510166 
L 142.479123 185.732235 
L 143.055982 187.670321 
L 143.344412 188.03203 
L 143.632841 188.05777 
L 143.921271 184.543643 
L 144.2097 185.138023 
L 144.786559 188.05777 
L 145.074989 188.497035 
L 145.363418 188.626241 
L 145.651848 188.988119 
L 145.940277 190.51251 
L 146.517136 192.166277 
L 146.805566 189.039767 
L 147.093995 192.192016 
L 147.382425 194.078285 
L 147.670854 195.060283 
L 147.959284 196.946552 
L 148.247713 197.721618 
L 148.536143 197.618321 
L 149.401431 201.881773 
L 149.68986 201.494156 
L 149.97829 195.680403 
L 150.266719 194.621017 
L 150.555149 194.646757 
L 150.843578 195.060283 
L 151.132008 187.773618 
L 151.420437 183.484257 
L 151.708867 185.112115 
L 151.997296 184.698758 
L 152.574155 188.212884 
L 152.862585 187.618504 
L 153.151014 189.453124 
L 153.439444 189.685627 
L 153.727873 183.639372 
L 154.016303 183.122549 
L 154.304732 183.742669 
L 154.881591 186.404172 
L 155.170021 175.758496 
L 155.45845 179.711719 
L 155.74688 180.977868 
L 156.323739 184.156195 
L 156.612168 181.804751 
L 156.900597 183.019252 
L 157.189027 181.184631 
L 157.477456 183.0709 
L 158.054315 183.897783 
L 158.342745 179.530865 
L 158.919604 183.871874 
L 159.208033 184.440346 
L 159.496463 184.026989 
L 159.784892 173.458701 
L 160.073322 176.86953 
L 160.361751 178.652333 
L 160.650181 182.218277 
L 161.22704 186.559118 
L 162.669187 196.507286 
L 162.957617 197.592412 
L 163.246046 194.000897 
L 163.534476 194.85352 
L 163.822905 193.406517 
L 164.111335 193.794134 
L 164.399764 194.414254 
L 164.976623 196.868995 
L 165.553482 198.806912 
L 165.841911 197.540763 
L 166.130341 194.621017 
L 166.7072 183.484257 
L 166.995629 181.132983 
L 167.284059 176.171853 
L 167.572488 176.817882 
L 167.860918 178.523127 
L 168.149347 179.091599 
L 168.726206 181.339746 
L 169.303065 171.572431 
L 169.591495 170.745548 
L 169.879924 171.805103 
L 170.168354 170.3581 
L 170.745213 173.794669 
L 171.033642 174.41479 
L 171.322072 175.990999 
L 171.610501 173.613815 
L 171.898931 173.665464 
L 172.18736 173.045344 
L 172.764219 177.412093 
L 173.052648 163.355587 
L 173.341078 164.828499 
L 175.360084 178.678242 
L 176.225373 183.768578 
L 176.513802 183.277663 
L 178.244379 192.37304 
L 178.821238 194.646757 
L 179.109668 192.734748 
L 179.398097 182.192368 
L 179.686527 182.683283 
L 179.974956 182.605725 
L 180.263385 182.993343 
L 180.551815 183.69102 
L 181.128674 186.145761 
L 181.417103 182.838397 
L 181.705533 182.373223 
L 181.993962 182.373223 
L 182.282392 183.613463 
L 182.570821 177.644596 
L 182.859251 178.678242 
L 183.14768 180.564511 
L 183.43611 179.918482 
L 184.012969 183.303403 
L 184.301398 184.259492 
L 184.589828 184.285401 
L 184.878257 183.639372 
L 185.166687 185.086375 
L 185.455116 182.605725 
L 185.743546 183.665111 
L 186.320405 186.946735 
L 187.762552 194.2334 
L 188.050981 195.111932 
L 188.62784 197.64406 
L 190.069988 203.122013 
L 190.646847 204.620665 
L 190.935276 204.413902 
L 191.223706 204.620665 
L 191.512135 204.543108 
L 191.800565 205.421639 
L 192.088994 205.628402 
L 192.377424 204.956634 
L 192.665853 203.897248 
L 192.954283 203.561279 
L 193.242712 203.768042 
L 193.819571 202.941159 
L 194.108001 201.442507 
L 194.39643 201.313301 
L 194.973289 201.67501 
L 195.261718 202.114276 
L 195.838577 203.535539 
L 196.703866 205.628402 
L 197.280725 207.359726 
L 197.569154 208.083143 
L 197.857584 183.225845 
L 198.146013 171.081517 
L 198.434443 172.864489 
L 198.722872 175.784235 
L 199.011302 176.58521 
L 199.87659 180.926219 
L 200.453449 184.078638 
L 200.741879 184.285401 
L 201.030308 175.784235 
L 201.318738 175.758496 
L 201.607167 175.96509 
L 201.895597 175.784235 
L 202.184026 174.72485 
L 202.472456 175.577472 
L 202.760885 163.329847 
L 203.049314 161.08187 
L 203.337744 140.100407 
L 203.626173 143.407771 
L 203.914603 139.480287 
L 204.491462 147.180309 
L 205.35675 154.854591 
L 205.64518 155.448802 
L 206.510468 160.306635 
L 206.798898 161.572784 
L 207.087327 161.262724 
L 207.375757 163.071436 
L 207.664186 158.136215 
L 207.952616 159.143952 
L 209.394763 170.38384 
L 209.683193 171.753286 
L 210.83691 179.970131 
L 211.12534 181.959866 
L 211.413769 182.16646 
L 211.702199 183.251754 
L 212.567487 173.484609 
L 212.855917 163.355587 
L 213.144346 159.996575 
L 213.432776 160.642604 
L 213.721205 161.882844 
L 214.009635 122.504035 
L 214.298064 125.656453 
L 214.874923 133.899037 
L 215.163353 135.087629 
L 215.740212 140.565582 
L 216.028641 141.108145 
L 216.317071 140.333079 
L 216.6055 140.539673 
L 216.89393 141.340647 
L 217.759218 149.29925 
L 218.047648 132.090325 
L 218.624506 133.692274 
L 218.912936 136.224572 
L 219.201365 137.774872 
L 219.489795 134.312563 
L 220.355083 145.526712 
L 220.643513 148.575663 
L 220.931942 142.581057 
L 221.220372 141.108145 
L 221.508801 144.234654 
L 222.08566 100.695858 
L 222.662519 118.343879 
L 223.239378 127.28431 
L 223.816237 134.338303 
L 224.104667 134.260746 
L 224.681526 140.333079 
L 224.969955 143.433679 
L 225.258385 142.994414 
L 225.546814 146.120923 
L 225.835244 147.361163 
L 226.123673 86.303383 
L 226.412102 96.01888 
L 226.700532 110.488912 
L 226.988961 118.989908 
L 227.56582 129.325525 
L 227.85425 126.638281 
L 228.142679 116.690282 
L 228.431109 111.935746 
L 228.719538 111.961655 
L 229.584827 126.405779 
L 230.161686 134.751829 
L 230.450115 133.304826 
L 231.026974 141.392465 
L 231.603833 145.087446 
L 232.757551 160.668343 
L 233.045981 158.549572 
L 233.62284 165.216116 
L 233.911269 167.257331 
L 234.199698 170.435488 
L 234.488128 167.308979 
L 234.776557 168.52348 
L 235.064987 168.058305 
L 235.641846 172.425224 
L 235.930275 172.140903 
L 236.218705 174.776498 
L 236.507134 176.016738 
L 236.795564 176.171853 
L 237.083993 174.363141 
L 237.660852 177.618856 
L 237.949282 178.885005 
L 238.237711 179.117508 
L 238.526141 179.143417 
L 238.81457 181.003777 
L 239.103 177.903007 
L 239.679859 181.443043 
L 239.968288 178.549036 
L 240.256718 179.918482 
L 240.545147 177.644596 
L 240.833577 167.670857 
L 241.122006 167.696596 
L 241.410436 167.412445 
L 241.698865 170.228894 
L 241.987294 171.856752 
L 242.275724 163.975707 
L 242.564153 162.94223 
L 242.852583 147.206218 
L 243.141012 150.901198 
L 243.429442 151.908936 
L 243.717871 150.203521 
L 244.58316 157.541834 
L 244.871589 158.523663 
L 245.160019 135.501155 
L 245.448448 135.940421 
L 245.736878 141.960937 
L 246.025307 142.813559 
L 247.179025 155.345505 
L 247.755884 160.048223 
L 248.332743 165.861976 
L 248.909602 155.707213 
L 249.77489 162.657909 
L 250.06332 163.56235 
L 250.351749 167.28324 
L 250.640179 167.076476 
L 251.217038 172.270109 
L 251.505467 167.955008 
L 251.793897 170.590603 
L 252.082326 169.531217 
L 252.370756 160.900846 
L 252.659185 160.46158 
L 252.947615 147.800429 
L 253.524474 156.689211 
L 253.812903 159.608957 
L 254.101333 158.807983 
L 254.389762 161.934492 
L 254.678192 163.355587 
L 254.966621 165.836236 
L 255.255051 167.205682 
L 255.54348 166.869713 
L 255.83191 163.588259 
L 256.120339 166.482096 
L 256.408769 145.707566 
L 256.697198 139.325342 
L 257.274057 147.955543 
L 257.850916 155.888068 
L 258.139345 158.88554 
L 258.427775 158.368717 
L 259.004634 160.074132 
L 260.158352 169.531217 
L 260.446781 141.366556 
L 261.02364 149.686698 
L 261.31207 149.738516 
L 262.177358 161.159258 
L 263.907935 175.551733 
L 264.196365 175.577472 
L 264.773223 178.678242 
L 265.061653 180.564511 
L 265.350082 180.745365 
L 265.638512 181.184631 
L 265.926941 182.424871 
L 266.215371 176.456004 
L 266.5038 133.873298 
L 266.79223 139.531935 
L 267.080659 141.159793 
L 267.369089 145.500803 
L 267.657518 147.74878 
L 267.945948 121.005383 
L 268.234377 126.483167 
L 268.811236 120.411003 
L 269.388095 125.863047 
L 269.676525 124.958775 
L 269.964954 103.227987 
L 270.253384 94.959494 
L 270.830243 105.708637 
L 271.118672 110.643858 
L 271.407102 102.556219 
L 271.695531 98.008615 
L 272.27239 109.041909 
L 272.560819 111.858358 
L 273.426108 124.338655 
L 273.714537 124.571158 
L 274.002967 126.638281 
L 274.579826 134.493418 
L 274.868255 131.780265 
L 275.156685 135.785306 
L 275.445114 136.405426 
L 275.733544 135.578543 
L 276.021973 132.426294 
L 276.310403 118.550642 
L 276.887262 127.749316 
L 277.175691 128.136933 
L 277.75255 135.759397 
L 278.04098 137.387424 
L 278.329409 140.720527 
L 278.617839 139.06693 
L 278.906268 140.746436 
L 279.194698 141.340647 
L 280.636845 153.226733 
L 280.925274 156.172388 
L 281.213704 157.567743 
L 281.790563 162.735467 
L 282.078992 161.262724 
L 282.367422 162.94223 
L 282.655851 162.890581 
L 282.944281 165.655382 
L 283.23271 167.257331 
L 283.809569 168.342625 
L 284.386428 171.00396 
L 284.674858 172.916138 
L 284.963287 173.458701 
L 285.251717 156.069091 
L 285.540146 156.327334 
L 285.828576 157.593483 
L 286.117005 159.84146 
L 286.405435 159.247249 
L 286.693864 160.409932 
L 286.982294 155.888068 
L 287.559153 157.903543 
L 287.847582 160.229077 
L 288.136011 161.08187 
L 288.424441 162.735467 
L 288.71287 160.409932 
L 289.289729 163.743204 
L 289.866588 167.102385 
L 290.155018 167.619039 
L 290.443447 161.288463 
L 290.731877 163.123084 
L 291.308736 154.027708 
L 291.597165 155.836419 
L 291.885595 156.069091 
L 292.174024 141.831731 
L 292.462454 141.805822 
L 293.039313 145.991717 
L 293.327742 144.234654 
L 293.904601 146.766952 
L 294.48146 74.029849 
L 294.76989 89.094093 
L 295.058319 81.058102 
L 295.346749 92.27225 
L 295.923607 103.202248 
L 296.212037 101.186773 
L 297.077325 114.493953 
L 297.365755 88.551361 
L 297.654184 88.938978 
L 297.942614 99.713861 
L 298.231043 103.047133 
L 298.519473 99.09374 
L 298.807902 107.827408 
L 299.096332 105.346928 
L 299.673191 116.535168 
L 299.96162 118.989908 
L 300.25005 117.310402 
L 300.538479 114.829753 
L 300.826909 102.039395 
L 301.115338 112.142509 
L 301.403768 114.080427 
L 301.692197 116.896876 
L 301.980627 109.016 
L 302.269056 116.896876 
L 302.557486 121.005383 
L 302.845915 118.163025 
L 303.422774 127.490904 
L 303.711203 130.152408 
L 303.999633 129.945645 
L 304.576492 136.999807 
L 304.864921 135.165186 
L 305.153351 139.09267 
L 305.44178 138.240047 
L 306.307069 145.164834 
L 306.595498 147.800429 
L 307.460787 157.955191 
L 307.749216 160.254986 
L 308.037646 152.580704 
L 308.614505 158.161954 
L 308.902934 156.999271 
L 309.479793 162.94223 
L 309.768223 163.355587 
L 310.345082 165.577825 
L 310.92194 169.970483 
L 311.21037 170.797366 
L 311.498799 172.657726 
L 311.787229 171.055778 
L 312.075658 168.575128 
L 313.229376 174.104729 
L 313.806235 158.782074 
L 314.094665 160.435841 
L 314.383094 158.859632 
L 314.671524 161.236815 
L 314.959953 162.528873 
L 315.536812 166.404708 
L 316.97896 175.138206 
L 317.267389 175.190024 
L 318.132678 171.236632 
L 318.421107 167.308979 
L 318.709536 160.254986 
L 318.997966 162.141255 
L 319.286395 158.161954 
L 319.574825 156.895805 
L 319.863254 129.997293 
L 320.151684 118.989908 
L 321.016972 135.165186 
L 321.305402 139.919553 
L 321.593831 141.340647 
L 321.882261 139.945462 
L 322.17069 142.374294 
L 322.45912 134.880866 
L 322.747549 134.312563 
L 323.035979 135.96616 
L 323.324408 142.994414 
L 325.343415 171.649989 
L 326.208703 180.357748 
L 326.785562 183.484257 
L 327.073991 184.259492 
L 327.93928 189.89239 
L 328.516139 193.018899 
L 329.669857 197.566672 
L 330.535145 200.641533 
L 331.112004 201.05489 
L 331.400434 199.866298 
L 332.265722 201.67501 
L 332.554152 197.385818 
L 333.131011 197.721618 
L 333.41944 198.186792 
L 333.70787 198.419295 
L 333.996299 198.806912 
L 334.573158 200.047152 
L 334.861587 200.460679 
L 335.438446 201.881773 
L 335.726876 201.95933 
L 336.015305 202.26939 
L 336.303735 202.321039 
L 336.880594 203.742133 
L 337.457453 204.982373 
L 337.745882 205.292433 
L 338.611171 206.894551 
L 339.476459 208.109052 
L 339.764889 208.548318 
L 340.053318 208.729172 
L 341.207036 210.150266 
L 341.783895 210.770386 
L 342.072324 210.899592 
L 342.360754 211.468064 
L 342.937613 211.855681 
L 343.802901 212.915067 
L 344.091331 213.095921 
L 344.37976 213.095921 
L 344.956619 213.793599 
L 345.533478 214.155307 
L 345.821908 214.181216 
L 346.398767 214.568833 
L 346.687196 214.491276 
L 346.975626 215.059748 
L 347.552485 215.008099 
L 348.417773 215.421456 
L 348.706203 215.395547 
L 349.85992 215.964019 
L 350.14835 215.989928 
L 351.013638 216.584139 
L 351.302068 216.610048 
L 351.590497 217.100962 
L 352.167356 216.816811 
L 352.455786 217.075223 
L 352.744215 217.049314 
L 353.032645 217.281816 
L 353.897933 217.256077 
L 354.186363 217.462671 
L 354.474792 217.281816 
L 354.763222 217.462671 
L 355.051651 217.462671 
L 355.62851 217.850288 
L 355.91694 217.824548 
L 356.205369 218.082791 
L 356.493799 217.901936 
L 356.782228 218.289554 
L 357.070657 218.289554 
L 357.359087 218.522056 
L 357.647516 218.547965 
L 357.935946 218.70308 
L 358.224375 218.677171 
L 358.512805 218.883934 
L 359.378093 218.909674 
L 359.666523 219.090528 
L 359.954952 218.883934 
L 360.243382 219.064788 
L 360.820241 219.142346 
L 361.10867 219.3232 
L 361.3971 219.3232 
L 361.685529 218.858025 
L 361.973959 218.858025 
L 362.262388 218.72882 
L 362.839247 219.142346 
L 363.127677 219.090528 
L 363.704536 218.057051 
L 364.281395 218.289554 
L 364.858253 218.70308 
L 365.146683 218.70308 
L 366.011971 216.196691 
L 366.300401 216.610048 
L 366.58883 216.610048 
L 367.165689 216.067485 
L 367.742548 213.922804 
L 368.030978 213.948544 
L 368.607837 213.251036 
L 368.896266 213.509278 
L 369.184696 213.095921 
L 369.473125 213.12183 
L 369.761555 213.561096 
L 370.626843 214.155307 
L 370.915273 214.517016 
L 371.203702 213.690302 
L 371.492132 211.261301 
L 371.780561 211.855681 
L 372.068991 212.062444 
L 372.35742 209.194177 
L 372.645849 210.124357 
L 372.934279 210.589532 
L 373.511138 203.974805 
L 373.799567 204.362253 
L 374.087997 204.026454 
L 374.376426 203.922987 
L 374.664856 202.837862 
L 374.953285 203.122013 
L 375.241715 185.525641 
L 375.530144 185.138023 
L 375.818574 185.86144 
L 376.107003 180.822923 
L 376.395433 179.789276 
L 376.683862 170.849015 
L 376.972292 173.277846 
L 377.260721 173.717112 
L 377.549151 124.338655 
L 377.83758 102.840539 
L 378.12601 98.421972 
L 378.414439 104.67499 
L 378.702869 89.300687 
L 379.279728 100.98001 
L 379.568157 96.380758 
L 379.856587 99.09374 
L 380.145016 104.235725 
L 380.721875 91.161216 
L 381.010304 99.09374 
L 381.298734 99.274595 
L 381.587163 104.416579 
L 381.875593 65.116004 
L 382.452452 95.527965 
L 383.029311 108.835146 
L 383.31774 92.453105 
L 383.60617 94.132611 
L 383.894599 98.835329 
L 384.759888 117.904613 
L 385.048317 120.256057 
L 385.625176 131.005031 
L 385.913606 131.883562 
L 386.202035 137.025546 
L 386.778894 139.583584 
L 387.067324 142.425942 
L 387.355753 137.103104 
L 387.932612 145.681657 
L 388.221041 140.978939 
L 388.509471 138.911815 
L 388.7979 139.428639 
L 389.08633 142.813559 
L 389.374759 142.994414 
L 389.663189 136.147015 
L 389.951618 135.371949 
L 390.528477 144.854774 
L 391.105336 129.273876 
L 391.682195 140.772345 
L 392.259054 148.033101 
L 392.835913 155.888068 
L 393.124343 144.312211 
L 393.412772 146.534449 
L 394.56649 161.288463 
L 395.720208 173.562167 
L 396.585496 181.391394 
L 396.873926 183.225845 
L 397.450785 187.618504 
L 398.604503 193.819874 
L 399.758221 197.747526 
L 400.04665 197.980029 
L 400.33508 198.781003 
L 400.623509 199.142881 
L 400.911939 199.892207 
L 401.200368 200.073061 
L 401.488798 200.899945 
L 401.777227 201.05489 
L 402.642516 202.734396 
L 403.507804 203.948896 
L 403.796233 200.460679 
L 404.084663 193.148105 
L 404.373092 192.99316 
L 404.661522 191.546157 
L 404.949951 192.605542 
L 405.238381 193.199754 
L 405.52681 192.605542 
L 405.81524 193.406517 
L 406.103669 190.667625 
L 406.392099 189.220622 
L 406.680528 189.866651 
L 406.968958 191.106891 
L 407.257387 190.254099 
L 407.545817 191.339393 
L 407.834246 185.189672 
L 408.122676 187.205147 
L 408.699535 189.220622 
L 408.987964 186.972644 
L 409.276394 188.393738 
L 409.564823 187.463558 
L 409.853253 188.03203 
L 410.141682 188.238624 
L 410.430112 187.954473 
L 410.718541 187.179238 
L 411.00697 188.212884 
L 411.2954 177.851359 
L 411.583829 178.264885 
L 411.872259 179.091599 
L 412.160688 170.590603 
L 412.449118 172.140903 
L 412.737547 171.546692 
L 413.025977 173.562167 
L 413.602836 173.510349 
L 414.179695 175.758496 
L 414.468124 177.257148 
L 414.756554 177.748062 
L 415.044983 179.375919 
L 415.333413 171.62408 
L 415.621842 149.815904 
L 415.910272 154.466973 
L 416.198701 150.487841 
L 416.487131 141.366556 
L 416.77556 139.71279 
L 417.06399 146.766952 
L 417.352419 150.281078 
L 417.640849 152.39985 
L 417.929278 155.474711 
L 418.217708 149.893461 
L 419.082996 157.335071 
L 419.371425 158.110306 
L 419.948284 163.174732 
L 420.236714 165.629473 
L 420.525143 165.035262 
L 420.813573 160.849198 
L 421.102002 147.412981 
L 421.390432 150.048576 
L 421.678861 151.443761 
L 421.967291 153.64009 
L 422.25572 157.567743 
L 422.54415 158.239512 
L 423.409438 166.249593 
L 423.697868 157.696949 
L 423.986297 116.121811 
L 424.274727 127.490904 
L 424.563156 86.303383 
L 424.851586 87.33703 
L 425.140015 64.262535 
L 425.428445 62.892581 
L 425.716874 67.803417 
L 426.293733 83.512843 
L 427.447451 104.907662 
L 430.043316 152.813207 
L 430.331746 146.792861 
L 431.197034 157.929451 
L 432.350752 172.296018 
L 432.639182 173.122901 
L 433.7929 178.445739 
L 434.081329 178.238976 
L 434.658188 138.911815 
L 435.235047 146.999454 
L 436.677194 160.074132 
L 436.965624 161.340112 
L 437.830912 167.28324 
L 438.696201 171.210723 
L 438.98463 172.244369 
L 439.561489 175.577472 
L 439.849919 175.758496 
L 440.138348 175.758496 
L 440.426778 164.15673 
L 441.003637 157.154217 
L 441.292066 159.22134 
L 441.580496 159.066395 
L 441.868925 161.08187 
L 442.157354 158.782074 
L 442.445784 158.342808 
L 442.734213 160.254986 
L 443.022643 161.107609 
L 443.311072 156.224037 
L 443.599502 131.857823 
L 444.176361 139.71279 
L 445.330079 150.487841 
L 445.618508 151.676433 
L 449.079662 174.543995 
L 449.368092 176.378616 
L 449.656521 167.929099 
L 449.94495 163.794852 
L 450.23338 165.241856 
L 450.521809 157.722688 
L 450.810239 143.821297 
L 451.098668 144.67392 
L 451.387098 140.333079 
L 451.675527 140.565582 
L 451.963957 141.263259 
L 452.829245 147.025363 
L 453.117675 147.593835 
L 453.406104 145.113185 
L 453.694534 140.384728 
L 453.982963 133.48568 
L 454.271393 136.793044 
L 454.559822 143.459588 
L 455.425111 149.867552 
L 455.71354 138.059193 
L 456.00197 135.733658 
L 456.578829 145.139094 
L 457.155687 151.934675 
L 457.444117 88.344767 
L 457.732546 74.236612 
L 458.309405 93.719254 
L 458.597835 90.231036 
L 458.886264 99.068001 
L 459.174694 101.445184 
L 459.463123 105.372668 
L 459.751553 61.368528 
L 460.039982 71.755793 
L 460.616841 82.453457 
L 460.905271 90.153479 
L 461.1937 53.230088 
L 461.48213 65.295504 
L 461.770559 48.759533 
L 462.058989 70.929418 
L 462.347418 79.430245 
L 462.924277 68.810985 
L 463.212707 55.114833 
L 463.501136 57.622746 
L 463.789566 75.890209 
L 464.077995 72.918815 
L 464.366425 80.102013 
L 464.654854 64.521624 
L 464.943283 76.768741 
L 465.520142 86.251735 
L 465.808572 78.732567 
L 466.385431 90.696041 
L 466.67386 94.907845 
L 466.96229 70.050548 
L 467.250719 85.16644 
L 468.116008 103.098781 
L 468.404437 107.207288 
L 468.692867 109.067649 
L 468.981296 119.196671 
L 469.269726 120.075203 
L 469.558155 124.984515 
L 469.846585 121.470388 
L 470.135014 122.090508 
L 470.423444 126.612372 
L 470.711873 110.928178 
L 471.000303 118.395528 
L 471.288732 119.971737 
L 471.577162 116.690282 
L 471.865591 122.323181 
L 472.154021 125.552987 
L 472.730879 98.421972 
L 473.307738 109.481175 
L 473.596168 107.388143 
L 473.884597 107.8015 
L 474.173027 106.199551 
L 474.461456 110.307889 
L 474.749886 112.375012 
L 475.326745 117.956262 
L 475.615174 127.749316 
L 476.192033 97.362586 
L 476.480463 74.236612 
L 476.768892 89.79177 
L 477.057322 95.734729 
L 477.345751 97.104175 
L 477.634181 80.799691 
L 477.92261 93.977665 
L 478.21104 97.026617 
L 478.499469 84.184611 
L 478.787899 77.621533 
L 479.076328 88.525621 
L 479.364758 87.285381 
L 479.653187 95.114609 
L 479.941617 81.083842 
L 480.230046 59.456689 
L 480.518475 83.331989 
L 481.095334 96.148086 
L 481.383764 101.031658 
L 481.672193 99.558915 
L 482.249052 108.266674 
L 482.537482 105.29511 
L 483.114341 112.969392 
L 483.40277 114.881401 
L 483.979629 121.496297 
L 485.421777 139.893813 
L 485.998636 123.537512 
L 486.287065 125.604635 
L 487.440783 146.947806 
L 487.729213 149.764255 
L 488.017642 148.007192 
L 488.88293 156.508357 
L 489.748219 162.32211 
L 490.613507 168.988654 
L 491.478796 174.698941 
L 491.767225 169.195248 
L 492.055655 170.254634 
L 492.344084 172.037606 
L 492.920943 174.078821 
L 493.209373 175.990999 
L 493.497802 176.86953 
L 494.65152 182.78658 
L 495.805238 187.205147 
L 496.093667 187.592764 
L 496.670526 189.504773 
L 497.824244 193.819874 
L 498.401103 195.086023 
L 498.977962 196.894734 
L 499.843251 199.039415 
L 500.13168 199.375384 
L 500.42011 200.098801 
L 500.708539 199.013675 
L 500.996969 199.220269 
L 502.150687 201.726658 
L 502.439116 201.33921 
L 503.015975 199.375384 
L 503.304405 201.700919 
L 503.592834 199.633796 
L 503.881263 194.000897 
L 504.169693 190.926036 
L 504.458122 190.874219 
L 505.034981 187.799358 
L 505.323411 188.05777 
L 505.61184 188.006121 
L 505.90027 188.445387 
L 506.188699 188.238624 
L 506.477129 187.825267 
L 506.765558 188.884653 
L 507.053988 189.246361 
L 507.342417 189.840742 
L 507.630847 189.866651 
L 508.207706 191.339393 
L 509.361424 194.672666 
L 509.649853 195.241137 
L 509.938283 196.352172 
L 510.226712 196.71388 
L 511.092 199.220269 
L 511.38043 192.967251 
L 511.668859 182.47652 
L 511.957289 181.391394 
L 512.245718 181.623897 
L 512.822577 165.241856 
L 513.111007 166.223854 
L 513.399436 167.722505 
L 514.264725 147.74878 
L 514.553154 146.586098 
L 514.841584 146.353595 
L 515.130013 148.162307 
L 515.706872 153.820944 
L 516.283731 158.57548 
L 516.572161 157.515925 
L 517.437449 165.216116 
L 517.725879 167.489833 
L 518.014308 161.70199 
L 518.302738 145.914329 
L 518.591167 150.875289 
L 518.879596 140.772345 
L 519.168026 138.834258 
L 519.744885 150.022667 
L 520.033314 154.079356 
L 520.321744 149.505844 
L 520.898603 155.681474 
L 521.187032 157.800246 
L 521.763891 162.968139 
L 522.917609 168.161771 
L 523.206039 170.3581 
L 523.494468 170.513046 
L 523.782898 168.807631 
L 524.359757 174.957352 
L 524.648186 169.970483 
L 524.936616 171.830843 
L 525.225045 172.270109 
L 525.513475 172.296018 
L 525.801904 173.096992 
L 527.82091 182.838397 
L 528.397769 185.758144 
L 528.686199 188.161236 
L 529.263058 176.378616 
L 529.551487 177.257148 
L 529.839917 176.791973 
L 530.128346 173.923875 
L 530.416776 174.104729 
L 530.705205 173.510349 
L 530.993635 134.984332 
L 531.282064 130.204056 
L 532.147353 137.077195 
L 532.435782 130.359171 
L 533.301071 138.265786 
L 533.5895 139.480287 
L 533.87793 95.011142 
L 534.166359 100.747507 
L 534.743218 114.855662 
L 535.031647 56.769276 
L 535.320077 87.104358 
L 535.608506 42.118051 
L 535.896936 59.895278 
L 536.473795 75.037587 
L 536.762224 72.996203 
L 537.050654 74.598321 
L 537.915942 93.900108 
L 538.492801 102.840539 
L 538.781231 100.385798 
L 539.06966 100.333981 
L 539.35809 107.000525 
L 539.646519 101.987747 
L 540.223378 112.762629 
L 540.800237 123.460124 
L 541.088667 96.044789 
L 541.377096 94.287725 
L 541.953955 112.995301 
L 542.530814 124.803661 
L 543.396102 135.34604 
L 543.684532 134.932683 
L 543.972961 138.937724 
L 544.261391 139.06693 
L 544.54982 139.351081 
L 544.83825 140.746436 
L 545.415109 147.774689 
L 546.568827 159.247249 
L 546.857256 159.376455 
L 547.145686 157.36098 
L 547.434115 149.273341 
L 548.587833 158.782074 
L 549.164692 107.000525 
L 549.741551 115.114073 
L 550.02998 121.547946 
L 550.895269 130.023202 
L 551.183698 128.731314 
L 551.472128 131.987029 
L 551.760557 130.798437 
L 552.625846 139.893813 
L 552.914275 120.643675 
L 553.202705 112.142509 
L 553.491134 118.653939 
L 553.779564 120.695323 
L 555.221711 144.803125 
L 555.510141 148.239695 
L 555.79857 147.774689 
L 556.087 150.22943 
L 556.375429 151.314555 
L 556.952288 157.154217 
L 557.240718 156.12074 
L 557.529147 156.327334 
L 557.817576 158.962928 
L 558.106006 158.988837 
L 558.394435 160.694252 
L 558.682865 161.70199 
L 559.548153 167.515742 
L 560.125012 169.117691 
L 560.413442 171.029869 
L 560.701871 171.856752 
L 561.27873 174.388881 
L 561.56716 172.657726 
L 562.144019 173.665464 
L 562.432448 161.288463 
L 562.720878 157.9811 
L 563.297737 127.723576 
L 563.586166 132.658797 
L 563.874596 121.211977 
L 564.163025 116.948524 
L 564.451455 97.052526 
L 564.739884 93.099134 
L 565.028313 98.47362 
L 565.316743 100.127387 
L 565.605172 90.876896 
L 565.893602 62.428592 
L 566.182031 47.492876 
L 566.470461 49.741701 
L 567.04732 72.478872 
L 567.624179 88.809772 
L 568.201038 99.352152 
L 568.777897 108.628383 
L 569.643185 125.165369 
L 569.931615 130.746619 
L 570.220044 132.8913 
L 570.796903 106.147903 
L 571.085333 114.90731 
L 572.239051 132.632888 
L 572.52748 133.48568 
L 572.815909 135.578543 
L 573.104339 136.379687 
L 573.681198 141.366556 
L 573.969627 148.394809 
L 574.258057 148.188046 
L 574.546486 145.940069 
L 574.834916 146.999454 
L 575.988634 154.647828 
L 576.277063 155.009536 
L 576.853922 158.60122 
L 577.430781 161.70199 
L 579.449788 172.476872 
L 580.026647 175.396618 
L 580.315076 153.226733 
L 580.603505 152.39985 
L 581.180364 156.714951 
L 581.757223 159.815721 
L 582.045653 159.764072 
L 582.334082 159.5314 
L 582.622512 152.968322 
L 582.910941 141.573319 
L 583.199371 64.03054 
L 583.4878 75.399295 
L 583.77623 78.810125 
L 584.064659 75.657707 
L 584.641518 50.361482 
L 584.929948 68.629792 
L 585.218377 75.528501 
L 585.506807 79.197742 
L 585.795236 71.677897 
L 586.372095 85.16644 
L 586.660525 89.119832 
L 587.814243 111.315626 
L 588.102672 115.449873 
L 588.391101 117.723759 
L 588.96796 127.878521 
L 589.25639 122.03886 
L 589.833249 132.24544 
L 590.410108 104.649251 
L 590.986967 117.103639 
L 591.275396 120.643675 
L 591.852255 130.152408 
L 592.140685 123.124155 
L 593.005973 131.418557 
L 593.294403 126.896693 
L 594.448121 137.619927 
L 594.73655 139.247784 
L 595.02498 127.051638 
L 595.313409 120.850268 
L 595.890268 129.971554 
L 596.755556 139.790347 
L 597.620845 146.999454 
L 597.909274 148.265603 
L 598.197704 140.823993 
L 601.081999 161.831195 
L 601.658858 152.70991 
L 602.524146 158.807983 
L 602.812576 160.513398 
L 603.101005 161.288463 
L 603.389435 162.94223 
L 603.677864 162.502964 
L 603.966293 148.808166 
L 604.254723 148.007192 
L 604.543152 136.767135 
L 605.120011 58.035933 
L 605.408441 58.035933 
L 605.9853 71.395101 
L 608.869595 123.563421 
L 609.158024 113.770367 
L 609.734883 121.70306 
L 610.311742 130.204056 
L 610.600172 92.892371 
L 610.888601 39.173243 
L 611.177031 26.692946 
L 611.46546 55.787109 
L 612.042319 75.812821 
L 612.330748 75.037587 
L 613.196037 91.419628 
L 613.484466 91.807076 
L 614.349755 104.494136 
L 614.638184 71.781194 
L 614.926614 85.218258 
L 616.368761 115.269018 
L 616.94562 124.183541 
L 617.23405 119.429174 
L 617.522479 117.103639 
L 617.810909 106.147903 
L 618.099338 113.382749 
L 618.387768 114.442135 
L 619.541485 129.558027 
L 619.829915 129.506379 
L 620.406774 135.087629 
L 620.695203 136.172924 
L 620.983633 138.265786 
L 621.272062 139.273524 
L 625.021646 165.784588 
L 625.310075 165.836236 
L 625.886934 168.135862 
L 626.175364 168.006656 
L 626.463793 167.308979 
L 627.040652 169.996222 
L 627.617511 172.037606 
L 627.90594 172.321757 
L 628.482799 174.001433 
L 629.059658 175.990999 
L 629.348088 176.791973 
L 629.636517 176.378616 
L 630.213376 178.264885 
L 630.501806 177.076293 
L 631.078665 166.223854 
L 631.367094 166.663119 
L 631.655524 165.526176 
L 631.943953 165.784588 
L 632.232383 166.430447 
L 632.809242 168.497571 
L 633.097671 169.117691 
L 633.386101 151.443761 
L 633.67453 153.01997 
L 633.96296 128.472902 
L 634.251389 131.547763 
L 634.539818 121.10868 
L 634.828248 124.416043 
L 635.116677 125.372132 
L 635.405107 126.870784 
L 635.693536 117.000342 
L 635.981966 98.421972 
L 636.270395 103.667253 
L 636.847254 107.414052 
L 637.135684 110.023738 
L 637.424113 104.933402 
L 638.000972 111.961655 
L 638.289402 115.036516 
L 638.577831 97.23338 
L 638.866261 59.895278 
L 639.15469 49.767102 
L 639.44312 33.591824 
L 639.731549 62.247399 
L 640.308408 76.639535 
L 640.596838 82.091579 
L 640.885267 69.688162 
L 641.173697 78.34495 
L 641.462126 82.944371 
L 641.750556 84.417114 
L 642.038985 79.016719 
L 643.192703 97.078266 
L 644.346421 112.323364 
L 644.63485 63.539457 
L 644.92328 61.161935 
L 645.211709 76.329475 
L 645.500139 79.145924 
L 645.788568 80.463722 
L 646.076998 91.988099 
L 646.365427 96.61326 
L 646.653857 95.553874 
L 646.942286 97.181732 
L 647.230716 95.347111 
L 647.519145 85.192349 
L 647.807575 87.517884 
L 648.384434 96.01888 
L 649.249722 106.302848 
L 649.538152 91.264513 
L 649.826581 36.717825 
L 650.40344 76.48459 
L 650.691869 70.644928 
L 650.980299 81.936634 
L 652.422446 105.424316 
L 653.864594 126.457427 
L 654.441453 134.079891 
L 654.729882 134.932683 
L 656.17203 153.226733 
L 657.037318 162.709727 
L 657.325748 165.861976 
L 657.614177 167.489833 
L 658.191036 172.296018 
L 658.479465 170.306282 
L 658.767895 166.04283 
L 659.344754 170.797366 
L 660.498472 176.197762 
L 661.36376 179.892742 
L 661.65219 180.306099 
L 662.229049 105.760285 
L 662.517478 111.134772 
L 662.805908 101.031658 
L 664.536485 129.971554 
L 664.824914 126.302312 
L 665.113344 92.892371 
L 665.401773 74.62423 
L 665.690202 81.342253 
L 665.978632 85.450761 
L 666.267061 67.957516 
L 666.555491 64.624921 
L 667.13235 79.249391 
L 667.420779 85.16644 
L 667.709209 74.00394 
L 667.997638 84.003757 
L 669.151356 102.556219 
L 669.439786 89.48171 
L 670.016645 101.186773 
L 670.593504 109.506914 
L 671.170363 117.129548 
L 671.458792 114.700547 
L 671.747222 114.648898 
L 672.61251 127.180844 
L 672.900939 90.876896 
L 673.189369 103.383102 
L 673.477798 67.569729 
L 673.766228 83.9262 
L 674.343087 96.587351 
L 674.631516 89.610916 
L 675.208375 96.845763 
L 675.496805 98.447881 
L 675.785234 99.274595 
L 676.073664 85.192349 
L 677.227382 103.874016 
L 677.515811 108.473437 
L 677.804241 71.213908 
L 678.3811 78.370859 
L 678.669529 88.344767 
L 678.957959 91.36781 
L 679.246388 97.750203 
L 679.534818 96.974969 
L 680.111677 106.328757 
L 680.400106 81.523108 
L 680.688535 69.04298 
L 681.842253 94.907845 
L 682.707542 107.388143 
L 682.995971 111.341535 
L 683.284401 101.57439 
L 684.149689 115.269018 
L 684.438119 131.444296 
L 685.303407 100.928361 
L 686.457125 122.116417 
L 686.745555 111.522389 
L 687.033984 71.239309 
L 687.322414 77.10471 
L 687.610843 72.686143 
L 687.899273 78.96507 
L 688.187702 33.823818 
L 688.476131 58.42372 
L 689.05299 74.262352 
L 689.34142 81.910725 
L 689.629849 76.717093 
L 689.918279 86.019232 
L 690.495138 81.936634 
L 690.783567 85.192349 
L 691.648856 100.333981 
L 691.937285 100.773246 
L 692.514144 111.315626 
L 692.802574 113.408658 
L 693.091003 110.87636 
L 693.379433 112.788538 
L 693.667862 107.362234 
L 693.956292 61.575122 
L 694.244721 83.5904 
L 694.533151 94.77864 
L 694.82158 99.533006 
L 695.11001 93.021576 
L 695.398439 73.616492 
L 695.686869 83.486934 
L 697.417445 108.835146 
L 697.705875 111.134772 
L 698.282734 117.749668 
L 698.571163 113.847924 
L 699.148022 121.754709 
L 699.436452 123.356657 
L 699.724881 118.343879 
L 700.013311 121.289534 
L 700.30174 122.529774 
L 700.59017 119.739234 
L 700.878599 111.005566 
L 701.167029 76.277827 
L 701.455458 88.370507 
L 701.743888 93.951756 
L 702.032317 89.765861 
L 702.320747 75.218441 
L 702.609176 78.525804 
L 702.897606 59.507491 
L 703.186035 75.295998 
L 703.474465 81.264865 
L 703.762894 79.533542 
L 704.051323 65.529192 
L 704.628182 78.551713 
L 705.493471 92.659868 
L 705.7819 90.954453 
L 706.07033 75.657707 
L 706.358759 70.050548 
L 707.224048 90.799508 
L 707.512477 88.57727 
L 708.089336 101.341718 
L 709.531484 124.984515 
L 710.108343 131.987029 
L 710.396772 137.619927 
L 710.685202 136.586281 
L 710.973631 97.801852 
L 711.262061 75.657707 
L 711.55049 76.897947 
L 711.838919 77.311473 
L 712.127349 89.119832 
L 712.415778 71.136012 
L 712.704208 76.536238 
L 712.992637 87.491975 
L 713.281067 83.977848 
L 713.569496 90.825247 
L 714.146355 97.879409 
L 714.434785 78.784216 
L 714.723214 88.112095 
L 715.300073 97.620998 
L 715.588503 100.153126 
L 716.165362 108.628383 
L 716.453791 106.974786 
L 717.895939 126.715839 
L 718.472798 133.227269 
L 718.761227 127.335959 
L 719.049657 106.354496 
L 719.626515 118.163025 
L 720.780233 134.364212 
L 721.645522 140.513933 
L 721.933951 140.720527 
L 722.222381 138.679313 
L 722.51081 123.537512 
L 722.79924 131.211794 
L 723.087669 121.057031 
L 723.376099 129.247967 
L 723.664528 133.51142 
L 723.952958 123.434215 
L 724.529817 127.90443 
L 725.106676 119.403265 
L 725.395105 117.129548 
L 725.683535 117.362051 
L 725.971964 121.522206 
L 726.260394 123.976778 
L 726.548823 114.235542 
L 726.837252 119.842531 
L 727.414111 126.06981 
L 727.702541 123.537512 
L 728.2794 132.400385 
L 728.567829 133.253008 
L 728.856259 135.914512 
L 729.144688 111.134772 
L 729.721547 125.630544 
L 730.009977 130.436559 
L 730.298406 125.630544 
L 730.875265 134.700011 
L 731.163695 135.397689 
L 731.452124 137.464812 
L 731.740554 140.513933 
L 732.028983 141.779913 
L 732.317413 142.374294 
L 732.605842 140.126316 
L 734.04799 151.728082 
L 734.624848 154.854591 
L 734.913278 156.275685 
L 735.201707 150.720344 
L 735.490137 60.774148 
L 735.778566 67.131141 
L 736.066996 87.130266 
L 736.355425 86.277644 
L 736.643855 96.794114 
L 736.932284 101.212512 
L 737.509143 114.700547 
L 738.086002 119.713325 
L 738.662861 128.576199 
L 738.951291 133.046414 
L 739.23972 134.700011 
L 739.816579 142.968505 
L 740.393438 150.100224 
L 740.970297 100.333981 
L 741.258727 108.809237 
L 741.547156 113.641161 
L 741.835586 116.095902 
L 742.989303 133.924946 
L 743.277733 133.666534 
L 743.566162 137.387424 
L 743.854592 135.940421 
L 744.143021 136.948158 
L 744.431451 139.738699 
L 744.71988 140.92729 
L 745.00831 137.232309 
L 745.296739 128.731314 
L 745.585169 133.537329 
L 746.162028 138.498459 
L 746.738887 140.798085 
L 747.315746 143.640443 
L 747.604175 141.392465 
L 747.892605 108.628383 
L 748.181034 116.070162 
L 748.469464 119.015817 
L 748.757893 115.088164 
L 749.046323 107.026434 
L 749.334752 107.8015 
L 749.623182 109.662029 
L 749.911611 92.27225 
L 750.20004 50.593477 
L 750.776899 70.309637 
L 751.353758 84.597968 
L 751.930617 94.804549 
L 752.219047 87.931241 
L 752.795906 99.817327 
L 753.949624 114.623159 
L 754.238053 64.882316 
L 754.526483 64.237134 
L 754.814912 74.417467 
L 755.103342 52.273321 
L 755.391771 73.358081 
L 755.96863 90.205127 
L 756.25706 83.512843 
L 756.545489 98.292766 
L 756.833919 102.19451 
L 757.122348 100.489095 
L 757.410778 102.013656 
L 757.699207 66.975348 
L 757.987636 85.1407 
L 758.276066 95.605523 
L 759.429784 121.263795 
L 759.718213 108.39588 
L 760.006643 74.598321 
L 760.583502 98.654475 
L 761.160361 110.721415 
L 761.44879 96.406497 
L 762.025649 117.542905 
L 762.314079 121.393 
L 762.602508 115.010607 
L 762.890938 117.827056 
L 763.467797 125.837307 
L 764.044656 131.392648 
L 764.333085 135.34604 
L 764.909944 140.152056 
L 765.486803 144.67392 
L 765.775232 144.079708 
L 766.063662 140.539673 
L 766.352091 129.222228 
L 766.640521 140.177964 
L 766.92895 141.030587 
L 767.21738 142.813559 
L 767.505809 137.85243 
L 767.794239 123.89939 
L 768.371098 128.886259 
L 768.659527 129.919905 
L 768.947957 119.196671 
L 769.236386 121.057031 
L 769.813245 127.077547 
L 770.101675 115.863399 
L 770.390104 124.545249 
L 770.678534 66.949948 
L 770.966963 83.151135 
L 771.543822 95.166257 
L 771.832252 100.98001 
L 772.120681 102.659515 
L 772.98597 115.449873 
L 773.851258 123.925129 
L 774.139687 129.790699 
L 774.428117 125.423781 
L 775.004976 131.108497 
L 776.447123 142.374294 
L 777.023982 146.327686 
L 777.312412 144.053799 
L 777.600841 140.720527 
L 777.889271 142.994414 
L 778.46613 139.299433 
L 778.754559 140.798085 
L 779.331418 145.087446 
L 779.619848 146.379334 
L 779.908277 140.539673 
L 780.196707 140.901381 
L 781.061995 144.467326 
L 781.350424 145.940069 
L 781.638854 132.788003 
L 781.927283 133.046414 
L 782.215713 135.526895 
L 782.504142 93.305897 
L 782.792572 73.151318 
L 783.081001 79.378596 
L 783.369431 80.618836 
L 783.94629 91.006101 
L 784.234719 45.606438 
L 784.523149 50.618878 
L 784.811578 61.187335 
L 785.100008 65.96778 
L 785.388437 76.045324 
L 785.676867 98.086003 
L 785.965296 42.893624 
L 786.253726 59.300897 
L 786.542155 60.955341 
L 786.830585 69.611959 
L 787.407444 79.766214 
L 788.272732 96.225643 
L 788.849591 110.902269 
L 789.714879 119.119114 
L 790.003309 123.356657 
L 790.291738 123.976778 
L 790.580168 126.018161 
L 790.868597 116.483519 
L 791.157027 126.405779 
L 791.445456 118.369788 
L 791.733886 132.038677 
L 792.022315 134.880866 
L 792.310745 133.976595 
L 793.176033 142.296736 
L 793.752892 145.991717 
L 794.041322 150.901198 
L 794.329751 128.782962 
L 794.618181 126.870784 
L 794.90661 129.093022 
L 795.19504 117.542905 
L 795.483469 110.540561 
L 795.771899 116.896876 
L 796.060328 119.196671 
L 796.348757 123.201712 
L 796.637187 33.359829 
L 796.925616 31.498791 
L 797.214046 53.694077 
L 797.502475 41.21378 
L 797.790905 55.245224 
L 798.079334 63.410759 
L 798.656193 73.590583 
L 798.944623 81.290605 
L 799.233052 61.497226 
L 799.521482 75.709355 
L 799.809911 73.719789 
L 800.098341 84.753083 
L 800.38677 90.153479 
L 800.6752 97.879409 
L 800.963629 101.780984 
L 801.252059 107.388143 
L 801.540488 74.262352 
L 801.828918 55.296026 
L 802.117347 70.050548 
L 802.405777 70.644928 
L 802.982636 89.17165 
L 803.559495 99.558915 
L 803.847924 101.135124 
L 804.424783 108.266674 
L 804.713212 109.506914 
L 805.001642 113.35701 
L 805.290071 115.449873 
L 805.86693 122.090508 
L 806.15536 124.157801 
L 806.732219 132.839651 
L 807.309078 138.44681 
L 807.597507 137.464812 
L 807.885937 137.232309 
L 808.751225 147.542186 
L 809.039655 146.534449 
L 809.328084 148.136398 
L 809.616514 146.430983 
L 809.904943 147.206218 
L 810.193373 136.793044 
L 810.481802 116.535168 
L 810.770232 126.06981 
L 811.058661 122.96904 
L 811.350111 125.372132 
L 811.63703 128.782962 
L 811.923949 129.377173 
L 812.792258 135.992069 
L 813.079178 135.552804 
L 813.366097 126.638281 
L 813.653016 128.085285 
L 814.521325 135.785306 
L 814.808244 137.85243 
L 815.095164 140.746436 
L 815.382083 141.418205 
L 816.250392 148.110489 
L 816.537311 147.593835 
L 816.82423 124.597067 
L 817.1187 130.798437 
L 818.560848 145.113185 
L 818.847767 145.526712 
L 819.134687 147.180309 
L 819.421606 147.619574 
L 819.708525 139.738699 
L 820.002995 140.255522 
L 820.576834 142.606796 
L 820.863753 140.720527 
L 821.732062 146.560189 
L 822.018981 147.025363 
L 822.305901 145.733305 
L 822.59282 115.320667 
L 823.174209 126.767487 
L 823.748048 133.950686 
L 824.329437 138.44681 
L 824.616357 105.140165 
L 825.190196 116.535168 
L 825.477115 117.491256 
L 825.771585 121.470388 
L 826.058504 107.956614 
L 826.345424 101.626039 
L 826.919262 109.687769 
L 827.500652 115.966696 
L 828.07449 43.281411 
L 828.65588 70.463735 
L 829.516638 93.047485 
L 830.671866 110.282149 
L 830.958785 114.209633 
L 831.245705 109.532823 
L 831.827094 117.129548 
L 832.114013 118.31814 
L 832.687852 127.051638 
L 833.269241 135.165186 
L 833.556161 135.34604 
L 834.424469 142.813559 
L 834.711389 153.665999 
L 834.998308 157.154217 
L 835.285227 157.36098 
L 836.727375 166.01709 
L 837.014294 136.741395 
L 837.595683 145.940069 
L 837.882603 148.05884 
L 838.169522 146.146832 
L 838.456442 140.978939 
L 838.750911 142.064234 
L 839.037831 143.640443 
L 839.32475 143.666182 
L 840.193059 150.100224 
L 840.479978 150.487841 
L 840.766898 111.729152 
L 841.053817 120.049294 
L 841.340736 122.064769 
L 841.635206 112.194158 
L 841.922126 121.289534 
L 843.364273 136.431335 
L 843.651192 135.139277 
L 843.938112 104.339191 
L 844.225031 114.261281 
L 844.519501 119.170762 
L 844.80642 117.956262 
L 845.380259 127.077547 
L 845.667179 129.713142 
L 845.961648 97.181732 
L 846.248568 87.621181 
L 846.535487 69.456167 
L 847.109326 84.959846 
L 847.690715 94.546137 
L 847.977635 94.752731 
L 848.264554 95.39876 
L 848.845943 105.321019 
L 849.132863 109.481175 
L 849.419782 111.057215 
L 849.993621 58.630314 
L 850.57501 80.851339 
L 851.148849 92.220602 
L 851.730238 103.874016 
L 852.017157 95.347111 
L 852.590996 32.350567 
L 853.172386 60.179767 
L 853.746224 75.011678 
L 854.320063 86.458498 
L 854.614533 91.006101 
L 854.901452 97.207471 
L 855.188372 100.98001 
L 855.475291 79.740305 
L 856.05668 95.812286 
L 856.3436 99.739769 
L 856.630519 98.706123 
L 856.917438 101.367627 
L 857.204358 113.201895 
L 857.498828 119.894349 
L 858.072666 125.552987 
L 858.359586 129.713142 
L 858.646505 131.573502 
L 858.940975 97.23338 
L 859.514814 83.073577 
L 859.801733 91.186956 
L 860.088653 88.060447 
L 860.670042 103.021393 
L 860.956961 107.233028 
L 861.243881 113.382749 
L 861.5308 100.98001 
L 861.82527 76.096972 
L 862.399109 89.585007 
L 863.267417 104.442488 
L 863.554337 120.850268 
L 865.570323 140.823993 
L 865.857242 150.281078 
L 866.151712 149.247432 
L 866.438632 154.26021 
L 866.725551 155.035445 
L 867.01247 146.896158 
L 867.59386 151.49541 
L 867.880779 152.890764 
L 868.167698 149.480104 
L 868.454618 129.713142 
L 868.741537 132.710446 
L 869.036007 137.283958 
L 869.609846 141.805822 
L 869.896765 141.54741 
L 870.478154 143.692091 
L 870.765074 145.526712 
L 871.051993 131.625151 
L 871.338913 132.426294 
L 871.920302 131.599411 
L 872.207221 156.895805 
L 872.494141 145.57836 
L 872.78106 112.840187 
L 873.067979 105.321019 
L 873.362449 64.391233 
L 873.649369 83.202783 
L 874.223207 96.61326 
L 874.510127 94.804549 
L 875.378435 108.059911 
L 875.665355 110.307889 
L 875.952274 113.744627 
L 876.246744 115.269018 
L 876.533663 117.801317 
L 876.820583 121.961472 
L 877.107502 119.403265 
L 877.394422 121.496297 
L 877.688891 126.043901 
L 877.975811 121.263795 
L 878.26273 122.710798 
L 878.54965 125.604635 
L 879.131039 133.899037 
L 879.417958 135.759397 
L 879.704878 135.940421 
L 879.991797 127.439256 
L 880.278716 129.351434 
L 880.573186 134.002334 
L 880.860106 104.855845 
L 881.147025 113.822015 
L 881.720864 124.364395 
L 882.589172 132.477943 
L 883.163011 136.405426 
L 883.457481 137.85243 
L 883.7444 140.126316 
L 884.03132 139.738699 
L 884.318239 139.71279 
L 884.605159 106.742114 
L 885.186548 119.377526 
L 885.473467 116.095902 
L 885.760387 115.940956 
L 886.047306 120.927826 
L 886.341776 135.759397 
L 886.628695 92.039748 
L 886.915615 108.860885 
L 887.202534 103.848107 
L 887.489453 118.343879 
L 887.783923 126.06981 
L 888.070843 127.439256 
L 888.357762 130.565765 
L 888.644681 132.400385 
L 888.931601 135.061889 
L 889.226071 136.172924 
L 889.51299 139.273524 
L 889.799909 140.746436 
L 890.086829 136.793044 
L 890.373748 129.532288 
L 891.242057 139.531935 
L 892.397285 148.472367 
L 892.971124 152.554965 
L 893.258043 152.348202 
L 893.552513 155.862328 
L 893.839432 65.295504 
L 894.126352 52.661108 
L 895.28158 87.698738 
L 895.568499 93.305897 
L 895.855418 90.696041 
L 896.142338 93.357545 
L 896.436808 81.626574 
L 896.723727 85.011495 
L 897.010646 91.65213 
L 897.297566 94.494488 
L 897.584485 93.745163 
L 898.452794 110.25624 
L 899.026633 116.948524 
L 899.321103 105.321019 
L 899.608022 72.970463 
L 899.894941 54.701645 
L 900.46878 82.298342 
L 900.76325 65.038108 
L 901.050169 85.16644 
L 901.337089 93.745163 
L 901.624008 108.860885 
L 901.910927 114.002869 
L 902.205397 115.682545 
L 902.492317 77.492327 
L 902.779236 92.504753 
L 903.066155 100.515004 
L 903.353075 87.853853 
L 903.647545 82.143397 
L 904.508303 108.886794 
L 905.089692 118.524733 
L 905.663531 115.294927 
L 905.95045 91.264513 
L 906.23737 106.380405 
L 906.53184 112.349272 
L 906.818759 105.91523 
L 907.105678 110.721415 
L 907.392598 104.67499 
L 907.679517 90.41189 
L 907.973987 84.985586 
L 908.260906 84.391375 
L 908.547826 89.378244 
L 908.834745 101.135124 
L 909.121664 103.047133 
L 909.416134 107.388143 
L 909.703054 101.315978 
L 909.989973 101.858541 
L 910.276892 110.850621 
L 910.858282 120.1785 
L 911.432121 126.276573 
L 912.300429 136.379687 
L 912.587349 137.82669 
L 913.448107 145.345857 
L 913.742577 146.586098 
L 914.029496 141.573319 
L 914.316415 106.380405 
L 914.603335 118.757405 
L 915.184724 130.772528 
L 916.332401 143.614534 
L 916.913791 146.586098 
L 917.20071 143.847036 
L 917.48763 146.120923 
L 917.774549 144.33812 
L 918.069019 146.586098 
L 918.069019 146.586098 
" clip-path="url(#p0d6c98a096)" style="fill: none; stroke: #2563eb; stroke-opacity: 0.95; stroke-width: 0.936; stroke-linecap: square"/>
   </g>
   <g id="patch_20">
    <path d="M 39.330625 228.954713 
L 39.330625 17.061433 
" style="fill: none; stroke: #cbd5e1; stroke-width: 0.8; stroke-linejoin: miter; stroke-linecap: square"/>
   </g>
   <g id="patch_21">
    <path d="M 935.305625 228.954713 
L 935.305625 17.061433 
" style="fill: none; stroke: #cbd5e1; stroke-width: 0.8; stroke-linejoin: miter; stroke-linecap: square"/>
   </g>
   <g id="patch_22">
    <path d="M 39.330625 228.954713 
L 935.305625 228.954713 
" style="fill: none; stroke: #cbd5e1; stroke-width: 0.8; stroke-linejoin: miter; stroke-linecap: square"/>
   </g>
   <g id="patch_23">
    <path d="M 39.330625 17.061433 
L 935.305625 17.061433 
" style="fill: none; stroke: #cbd5e1; stroke-width: 0.8; stroke-linejoin: miter; stroke-linecap: square"/>
   </g>
   <g id="text_17">
    <!-- ACC -->
    <g style="fill: #475569" transform="translate(121.684245 13.27875) scale(0.08 -0.08)">
     <defs>
      <path id="DejaVuSans-43" d="M 4122 4306 
L 4122 3641 
Q 3803 3938 3442 4084 
Q 3081 4231 2675 4231 
Q 1875 4231 1450 3742 
Q 1025 3253 1025 2328 
Q 1025 1406 1450 917 
Q 1875 428 2675 428 
Q 3081 428 3442 575 
Q 3803 722 4122 1019 
L 4122 359 
Q 3791 134 3420 21 
Q 3050 -91 2638 -91 
Q 1578 -91 968 557 
Q 359 1206 359 2328 
Q 359 3453 968 4101 
Q 1578 4750 2638 4750 
Q 3056 4750 3426 4639 
Q 3797 4528 4122 4306 
z
" transform="scale(0.015625)"/>
     </defs>
     <use xlink:href="#DejaVuSans-41"/>
     <use xlink:href="#DejaVuSans-43" transform="translate(66.658203 0)"/>
     <use xlink:href="#DejaVuSans-43" transform="translate(136.482422 0)"/>
    </g>
   </g>
   <g id="text_18">
    <!-- OC -->
    <g style="fill: #475569" transform="translate(228.191908 13.27875) scale(0.08 -0.08)">
     <defs>
      <path id="DejaVuSans-4f" d="M 2522 4238 
Q 1834 4238 1429 3725 
Q 1025 3213 1025 2328 
Q 1025 1447 1429 934 
Q 1834 422 2522 422 
Q 3209 422 3611 934 
Q 4013 1447 4013 2328 
Q 4013 3213 3611 3725 
Q 3209 4238 2522 4238 
z
M 2522 4750 
Q 3503 4750 4090 4092 
Q 4678 3434 4678 2328 
Q 4678 1225 4090 567 
Q 3503 -91 2522 -91 
Q 1538 -91 948 565 
Q 359 1222 359 2328 
Q 359 3434 948 4092 
Q 1538 4750 2522 4750 
z
" transform="scale(0.015625)"/>
     </defs>
     <use xlink:href="#DejaVuSans-4f"/>
     <use xlink:href="#DejaVuSans-43" transform="translate(78.710938 0)"/>
    </g>
   </g>
   <g id="text_19">
    <!-- FCS -->
    <g style="fill: #475569" transform="translate(253.682493 13.27875) scale(0.08 -0.08)">
     <defs>
      <path id="DejaVuSans-46" d="M 628 4666 
L 3309 4666 
L 3309 4134 
L 1259 4134 
L 1259 2759 
L 3109 2759 
L 3109 2228 
L 1259 2228 
L 1259 0 
L 628 0 
L 628 4666 
z
" transform="scale(0.015625)"/>
      <path id="DejaVuSans-53" d="M 3425 4513 
L 3425 3897 
Q 3066 4069 2747 4153 
Q 2428 4238 2131 4238 
Q 1616 4238 1336 4038 
Q 1056 3838 1056 3469 
Q 1056 3159 1242 3001 
Q 1428 2844 1947 2747 
L 2328 2669 
Q 3034 2534 3370 2195 
Q 3706 1856 3706 1288 
Q 3706 609 3251 259 
Q 2797 -91 1919 -91 
Q 1588 -91 1214 -16 
Q 841 59 441 206 
L 441 856 
Q 825 641 1194 531 
Q 1563 422 1919 422 
Q 2459 422 2753 634 
Q 3047 847 3047 1241 
Q 3047 1584 2836 1778 
Q 2625 1972 2144 2069 
L 1759 2144 
Q 1053 2284 737 2584 
Q 422 2884 422 3419 
Q 422 4038 858 4394 
Q 1294 4750 2059 4750 
Q 2388 4750 2728 4690 
Q 3069 4631 3425 4513 
z
" transform="scale(0.015625)"/>
     </defs>
     <use xlink:href="#DejaVuSans-46"/>
     <use xlink:href="#DejaVuSans-43" transform="translate(57.519531 0)"/>
     <use xlink:href="#DejaVuSans-53" transform="translate(127.34375 0)"/>
    </g>
   </g>
   <g id="text_20">
    <!-- SR -->
    <g style="fill: #475569" transform="translate(292.239316 13.27875) scale(0.08 -0.08)">
     <defs>
      <path id="DejaVuSans-52" d="M 2841 2188 
Q 3044 2119 3236 1894 
Q 3428 1669 3622 1275 
L 4263 0 
L 3584 0 
L 2988 1197 
Q 2756 1666 2539 1819 
Q 2322 1972 1947 1972 
L 1259 1972 
L 1259 0 
L 628 0 
L 628 4666 
L 2053 4666 
Q 2853 4666 3247 4331 
Q 3641 3997 3641 3322 
Q 3641 2881 3436 2590 
Q 3231 2300 2841 2188 
z
M 1259 4147 
L 1259 2491 
L 2053 2491 
Q 2509 2491 2742 2702 
Q 2975 2913 2975 3322 
Q 2975 3731 2742 3939 
Q 2509 4147 2053 4147 
L 1259 4147 
z
" transform="scale(0.015625)"/>
     </defs>
     <use xlink:href="#DejaVuSans-53"/>
     <use xlink:href="#DejaVuSans-52" transform="translate(63.476562 0)"/>
    </g>
   </g>
   <g id="text_21">
    <!-- FFC -->
    <g style="fill: #475569" transform="translate(335.466751 13.27875) scale(0.08 -0.08)">
     <use xlink:href="#DejaVuSans-46"/>
     <use xlink:href="#DejaVuSans-46" transform="translate(57.519531 0)"/>
     <use xlink:href="#DejaVuSans-43" transform="translate(115.039062 0)"/>
    </g>
   </g>
   <g id="text_22">
    <!-- SS -->
    <g style="fill: #475569" transform="translate(417.062731 13.27875) scale(0.08 -0.08)">
     <use xlink:href="#DejaVuSans-53"/>
     <use xlink:href="#DejaVuSans-53" transform="translate(63.476562 0)"/>
    </g>
   </g>
   <g id="text_23">
    <!-- OC -->
    <g style="fill: #475569" transform="translate(484.154196 13.27875) scale(0.08 -0.08)">
     <use xlink:href="#DejaVuSans-4f"/>
     <use xlink:href="#DejaVuSans-43" transform="translate(78.710938 0)"/>
    </g>
   </g>
   <g id="text_24">
    <!-- FCS -->
    <g style="fill: #475569" transform="translate(507.379629 13.27875) scale(0.08 -0.08)">
     <use xlink:href="#DejaVuSans-46"/>
     <use xlink:href="#DejaVuSans-43" transform="translate(57.519531 0)"/>
     <use xlink:href="#DejaVuSans-53" transform="translate(127.34375 0)"/>
    </g>
   </g>
   <g id="text_25">
    <!-- SR -->
    <g style="fill: #475569" transform="translate(545.936452 13.27875) scale(0.08 -0.08)">
     <use xlink:href="#DejaVuSans-53"/>
     <use xlink:href="#DejaVuSans-52" transform="translate(63.476562 0)"/>
    </g>
   </g>
   <g id="text_26">
    <!-- FFC -->
    <g style="fill: #475569" transform="translate(589.163887 13.27875) scale(0.08 -0.08)">
     <use xlink:href="#DejaVuSans-46"/>
     <use xlink:href="#DejaVuSans-46" transform="translate(57.519531 0)"/>
     <use xlink:href="#DejaVuSans-43" transform="translate(115.039062 0)"/>
    </g>
   </g>
   <g id="text_27">
    <!-- SS -->
    <g style="fill: #475569" transform="translate(670.759866 13.27875) scale(0.08 -0.08)">
     <use xlink:href="#DejaVuSans-53"/>
     <use xlink:href="#DejaVuSans-53" transform="translate(63.476562 0)"/>
    </g>
   </g>
   <g id="text_28">
    <!-- OC -->
    <g style="fill: #475569" transform="translate(737.851331 13.27875) scale(0.08 -0.08)">
     <use xlink:href="#DejaVuSans-4f"/>
     <use xlink:href="#DejaVuSans-43" transform="translate(78.710938 0)"/>
    </g>
   </g>
   <g id="text_29">
    <!-- FCS -->
    <g style="fill: #475569" transform="translate(761.076764 13.27875) scale(0.08 -0.08)">
     <use xlink:href="#DejaVuSans-46"/>
     <use xlink:href="#DejaVuSans-43" transform="translate(57.519531 0)"/>
     <use xlink:href="#DejaVuSans-53" transform="translate(127.34375 0)"/>
    </g>
   </g>
   <g id="text_30">
    <!-- SR -->
    <g style="fill: #475569" transform="translate(799.633587 13.27875) scale(0.08 -0.08)">
     <use xlink:href="#DejaVuSans-53"/>
     <use xlink:href="#DejaVuSans-52" transform="translate(63.476562 0)"/>
    </g>
   </g>
   <g id="text_31">
    <!-- FFC -->
    <g style="fill: #475569" transform="translate(842.861022 13.27875) scale(0.08 -0.08)">
     <use xlink:href="#DejaVuSans-46"/>
     <use xlink:href="#DejaVuSans-46" transform="translate(57.519531 0)"/>
     <use xlink:href="#DejaVuSans-43" transform="translate(115.039062 0)"/>
    </g>
   </g>
   <g id="text_32">
    <!-- SS -->
    <g style="fill: #475569" transform="translate(888.214554 13.27875) scale(0.08 -0.08)">
     <use xlink:href="#DejaVuSans-53"/>
     <use xlink:href="#DejaVuSans-53" transform="translate(63.476562 0)"/>
    </g>
   </g>
   <g id="legend_1">
    <g id="line2d_30">
     <path d="M 889.158125 27.540183 
L 897.158125 27.540183 
L 905.158125 27.540183 
" style="fill: none; stroke: #2563eb; stroke-opacity: 0.95; stroke-width: 1.3; stroke-linecap: square"/>
    </g>
    <g id="text_33">
     <!-- EDA -->
     <g transform="translate(911.558125 30.340183) scale(0.08 -0.08)">
      <use xlink:href="#DejaVuSans-45"/>
      <use xlink:href="#DejaVuSans-44" transform="translate(63.183594 0)"/>
      <use xlink:href="#DejaVuSans-41" transform="translate(138.435547 0)"/>
     </g>
    </g>
   </g>
  </g>
 </g>
 <defs>
  <clipPath id="p0d6c98a096">
   <rect x="39.330625" y="17.061433" width="895.975" height="211.89328"/>
  </clipPath>
 </defs>
</svg>
