<?xml version="1.0" encoding="utf-8" standalone="no"?>
<!DOCTYPE svg PUBLIC "-//W3C//DTD SVG 1.1//EN"
  "http://www.w3.org/Graphics/SVG/1.1/DTD/svg11.dtd">
<svg xmlns:xlink="http://www.w3.org/1999/xlink" width="942.505625pt" height="265.54315pt" viewBox="0 0 942.505625 265.54315" xmlns="http://www.w3.org/2000/svg" version="1.1">
 <metadata>
  <rdf:RDF xmlns:dc="http://purl.org/dc/elements/1.1/" xmlns:cc="http://creativecommons.org/ns#" xmlns:rdf="http://www.w3.org/1999/02/22-rdf-syntax-ns#">
   <cc:Work>
    <dc:type rdf:resource="http://purl.org/dc/dcmitype/StillImage"/>
    <dc:date>2026-04-17T13:16:06.803572</dc:date>
    <dc:format>image/svg+xml</dc:format>
    <dc:creator>
     <cc:Agent>
      <dc:title>Matplotlib v3.10.8, https://matplotlib.org/</dc:title>
     </cc:Agent>
    </dc:creator>
   </cc:Work>
  </rdf:RDF>
 </metadata>
 <defs>
  <style type="text/css">*{stroke-linejoin: round; stroke-linecap: butt}</style>
 </defs>
 <g id="figure_1">
  <g id="patch_1">
   <path d="M 0 265.54315 
L 942.505625 265.54315 
L 942.505625 0 
L 0 0 
z
" style="fill: #ffffff"/>
  </g>
  <g id="axes_1">
   <g id="patch_2">
    <path d="M 39.330625 228.954713 
L 935.305625 228.954713 
L 935.305625 17.061433 
L 39.330625 17.061433 
z
" style="fill: #ffffff"/>
   </g>
   <g id="patch_3">
    <path d="M 39.330625 228.954713 
L 220.504928 228.954713 
L 220.504928 17.061433 
L 39.330625 17.061433 
z
" clip-path="url(#p669d7fd636)" style="fill: #f8fafc; opacity: 0.45"/>
   </g>
   <g id="patch_4">
    <path d="M 220.504928 228.954713 
L 247.681074 228.954713 
L 247.681074 17.061433 
L 220.504928 17.061433 
z
" clip-path="url(#p669d7fd636)" style="fill: #eff6ff; opacity: 0.45"/>
   </g>
   <g id="patch_5">
    <path d="M 247.681074 228.954713 
L 274.857219 228.954713 
L 274.857219 17.061433 
L 247.681074 17.061433 
z
" clip-path="url(#p669d7fd636)" style="fill: #fef3c7; opacity: 0.45"/>
   </g>
   <g id="patch_6">
    <path d="M 274.857219 228.954713 
L 315.621437 228.954713 
L 315.621437 17.061433 
L 274.857219 17.061433 
z
" clip-path="url(#p669d7fd636)" style="fill: #dcfce7; opacity: 0.45"/>
   </g>
   <g id="patch_7">
    <path d="M 315.621437 228.954713 
L 365.44437 228.954713 
L 365.44437 17.061433 
L 315.621437 17.061433 
z
" clip-path="url(#p669d7fd636)" style="fill: #fee2e2; opacity: 0.45"/>
   </g>
   <g id="patch_8">
    <path d="M 365.44437 228.954713 
L 478.67831 228.954713 
L 478.67831 17.061433 
L 365.44437 17.061433 
z
" clip-path="url(#p669d7fd636)" style="fill: #ede9fe; opacity: 0.45"/>
   </g>
   <g id="patch_9">
    <path d="M 478.67831 228.954713 
L 501.325098 228.954713 
L 501.325098 17.061433 
L 478.67831 17.061433 
z
" clip-path="url(#p669d7fd636)" style="fill: #f8fafc; opacity: 0.45"/>
   </g>
   <g id="patch_10">
    <path d="M 501.325098 228.954713 
L 528.501243 228.954713 
L 528.501243 17.061433 
L 501.325098 17.061433 
z
" clip-path="url(#p669d7fd636)" style="fill: #eff6ff; opacity: 0.45"/>
   </g>
   <g id="patch_11">
    <path d="M 528.501243 228.954713 
L 569.265461 228.954713 
L 569.265461 17.061433 
L 528.501243 17.061433 
z
" clip-path="url(#p669d7fd636)" style="fill: #fef3c7; opacity: 0.45"/>
   </g>
   <g id="patch_12">
    <path d="M 569.265461 228.954713 
L 619.088395 228.954713 
L 619.088395 17.061433 
L 569.265461 17.061433 
z
" clip-path="url(#p669d7fd636)" style="fill: #dcfce7; opacity: 0.45"/>
   </g>
   <g id="patch_13">
    <path d="M 619.088395 228.954713 
L 732.322334 228.954713 
L 732.322334 17.061433 
L 619.088395 17.061433 
z
" clip-path="url(#p669d7fd636)" style="fill: #fee2e2; opacity: 0.45"/>
   </g>
   <g id="patch_14">
    <path d="M 732.322334 228.954713 
L 754.969122 228.954713 
L 754.969122 17.061433 
L 732.322334 17.061433 
z
" clip-path="url(#p669d7fd636)" style="fill: #ede9fe; opacity: 0.45"/>
   </g>
   <g id="patch_15">
    <path d="M 754.969122 228.954713 
L 782.145267 228.954713 
L 782.145267 17.061433 
L 754.969122 17.061433 
z
" clip-path="url(#p669d7fd636)" style="fill: #f8fafc; opacity: 0.45"/>
   </g>
   <g id="patch_16">
    <path d="M 782.145267 228.954713 
L 822.909486 228.954713 
L 822.909486 17.061433 
L 782.145267 17.061433 
z
" clip-path="url(#p669d7fd636)" style="fill: #eff6ff; opacity: 0.45"/>
   </g>
   <g id="patch_17">
    <path d="M 822.909486 228.954713 
L 872.732419 228.954713 
L 872.732419 17.061433 
L 822.909486 17.061433 
z
" clip-path="url(#p669d7fd636)" style="fill: #fef3c7; opacity: 0.45"/>
   </g>
   <g id="patch_18">
    <path d="M 872.732419 228.954713 
L 913.496637 228.954713 
L 913.496637 17.061433 
L 872.732419 17.061433 
z
" clip-path="url(#p669d7fd636)" style="fill: #dcfce7; opacity: 0.45"/>
   </g>
   <g id="patch_19">
    <path d="M 913.496637 228.954713 
L 918.025995 228.954713 
L 918.025995 17.061433 
L 913.496637 17.061433 
z
" clip-path="url(#p669d7fd636)" style="fill: #fee2e2; opacity: 0.45"/>
   </g>
   <g id="matplotlib.axis_1">
    <g id="xtick_1">
     <g id="line2d_1">
      <path d="M 39.330625 228.954713 
L 39.330625 17.061433 
" clip-path="url(#p669d7fd636)" style="fill: none; stroke: #eef2f7; stroke-width: 0.55; stroke-linecap: square"/>
     </g>
     <g id="line2d_2">
      <defs>
       <path id="me8d30a602c" d="M 0 0 
L 0 3.5 
" style="stroke: #000000; stroke-width: 0.8"/>
      </defs>
      <g>
       <use xlink:href="#me8d30a602c" x="39.330625" y="228.954713" style="stroke: #000000; stroke-width: 0.8"/>
      </g>
     </g>
     <g id="text_1">
      <!-- 0 -->
      <g transform="translate(36.4675 242.793307) scale(0.09 -0.09)">
       <defs>
        <path id="DejaVuSans-30" d="M 2034 4250 
Q 1547 4250 1301 3770 
Q 1056 3291 1056 2328 
Q 1056 1369 1301 889 
Q 1547 409 2034 409 
Q 2525 409 2770 889 
Q 3016 1369 3016 2328 
Q 3016 3291 2770 3770 
Q 2525 4250 2034 4250 
z
M 2034 4750 
Q 2819 4750 3233 4129 
Q 3647 3509 3647 2328 
Q 3647 1150 3233 529 
Q 2819 -91 2034 -91 
Q 1250 -91 836 529 
Q 422 1150 422 2328 
Q 422 3509 836 4129 
Q 1250 4750 2034 4750 
z
" transform="scale(0.015625)"/>
       </defs>
       <use xlink:href="#DejaVuSans-30"/>
      </g>
     </g>
    </g>
    <g id="xtick_2">
     <g id="line2d_3">
      <path d="M 152.564564 228.954713 
L 152.564564 17.061433 
" clip-path="url(#p669d7fd636)" style="fill: none; stroke: #eef2f7; stroke-width: 0.55; stroke-linecap: square"/>
     </g>
     <g id="line2d_4">
      <g>
       <use xlink:href="#me8d30a602c" x="152.564564" y="228.954713" style="stroke: #000000; stroke-width: 0.8"/>
      </g>
     </g>
     <g id="text_2">
      <!-- 25 -->
      <g transform="translate(146.838314 242.793307) scale(0.09 -0.09)">
       <defs>
        <path id="DejaVuSans-32" d="M 1228 531 
L 3431 531 
L 3431 0 
L 469 0 
L 469 531 
Q 828 903 1448 1529 
Q 2069 2156 2228 2338 
Q 2531 2678 2651 2914 
Q 2772 3150 2772 3378 
Q 2772 3750 2511 3984 
Q 2250 4219 1831 4219 
Q 1534 4219 1204 4116 
Q 875 4013 500 3803 
L 500 4441 
Q 881 4594 1212 4672 
Q 1544 4750 1819 4750 
Q 2544 4750 2975 4387 
Q 3406 4025 3406 3419 
Q 3406 3131 3298 2873 
Q 3191 2616 2906 2266 
Q 2828 2175 2409 1742 
Q 1991 1309 1228 531 
z
" transform="scale(0.015625)"/>
        <path id="DejaVuSans-35" d="M 691 4666 
L 3169 4666 
L 3169 4134 
L 1269 4134 
L 1269 2991 
Q 1406 3038 1543 3061 
Q 1681 3084 1819 3084 
Q 2600 3084 3056 2656 
Q 3513 2228 3513 1497 
Q 3513 744 3044 326 
Q 2575 -91 1722 -91 
Q 1428 -91 1123 -41 
Q 819 9 494 109 
L 494 744 
Q 775 591 1075 516 
Q 1375 441 1709 441 
Q 2250 441 2565 725 
Q 2881 1009 2881 1497 
Q 2881 1984 2565 2268 
Q 2250 2553 1709 2553 
Q 1456 2553 1204 2497 
Q 953 2441 691 2322 
L 691 4666 
z
" transform="scale(0.015625)"/>
       </defs>
       <use xlink:href="#DejaVuSans-32"/>
       <use xlink:href="#DejaVuSans-35" transform="translate(63.623047 0)"/>
      </g>
     </g>
    </g>
    <g id="xtick_3">
     <g id="line2d_5">
      <path d="M 265.798504 228.954713 
L 265.798504 17.061433 
" clip-path="url(#p669d7fd636)" style="fill: none; stroke: #eef2f7; stroke-width: 0.55; stroke-linecap: square"/>
     </g>
     <g id="line2d_6">
      <g>
       <use xlink:href="#me8d30a602c" x="265.798504" y="228.954713" style="stroke: #000000; stroke-width: 0.8"/>
      </g>
     </g>
     <g id="text_3">
      <!-- 50 -->
      <g transform="translate(260.072254 242.793307) scale(0.09 -0.09)">
       <use xlink:href="#DejaVuSans-35"/>
       <use xlink:href="#DejaVuSans-30" transform="translate(63.623047 0)"/>
      </g>
     </g>
    </g>
    <g id="xtick_4">
     <g id="line2d_7">
      <path d="M 379.032443 228.954713 
L 379.032443 17.061433 
" clip-path="url(#p669d7fd636)" style="fill: none; stroke: #eef2f7; stroke-width: 0.55; stroke-linecap: square"/>
     </g>
     <g id="line2d_8">
      <g>
       <use xlink:href="#me8d30a602c" x="379.032443" y="228.954713" style="stroke: #000000; stroke-width: 0.8"/>
      </g>
     </g>
     <g id="text_4">
      <!-- 75 -->
      <g transform="translate(373.306193 242.793307) scale(0.09 -0.09)">
       <defs>
        <path id="DejaVuSans-37" d="M 525 4666 
L 3525 4666 
L 3525 4397 
L 1831 0 
L 1172 0 
L 2766 4134 
L 525 4134 
L 525 4666 
z
" transform="scale(0.015625)"/>
       </defs>
       <use xlink:href="#DejaVuSans-37"/>
       <use xlink:href="#DejaVuSans-35" transform="translate(63.623047 0)"/>
      </g>
     </g>
    </g>
    <g id="xtick_5">
     <g id="line2d_9">
      <path d="M 492.266383 228.954713 
L 492.266383 17.061433 
" clip-path="url(#p669d7fd636)" style="fill: none; stroke: #eef2f7; stroke-width: 0.55; stroke-linecap: square"/>
     </g>
     <g id="line2d_10">
      <g>
       <use xlink:href="#me8d30a602c" x="492.266383" y="228.954713" style="stroke: #000000; stroke-width: 0.8"/>
      </g>
     </g>
     <g id="text_5">
      <!-- 100 -->
      <g transform="translate(483.677008 242.793307) scale(0.09 -0.09)">
       <defs>
        <path id="DejaVuSans-31" d="M 794 531 
L 1825 531 
L 1825 4091 
L 703 3866 
L 703 4441 
L 1819 4666 
L 2450 4666 
L 2450 531 
L 3481 531 
L 3481 0 
L 794 0 
L 794 531 
z
" transform="scale(0.015625)"/>
       </defs>
       <use xlink:href="#DejaVuSans-31"/>
       <use xlink:href="#DejaVuSans-30" transform="translate(63.623047 0)"/>
       <use xlink:href="#DejaVuSans-30" transform="translate(127.246094 0)"/>
      </g>
     </g>
    </g>
    <g id="xtick_6">
     <g id="line2d_11">
      <path d="M 605.500322 228.954713 
L 605.500322 17.061433 
" clip-path="url(#p669d7fd636)" style="fill: none; stroke: #eef2f7; stroke-width: 0.55; stroke-linecap: square"/>
     </g>
     <g id="line2d_12">
      <g>
       <use xlink:href="#me8d30a602c" x="605.500322" y="228.954713" style="stroke: #000000; stroke-width: 0.8"/>
      </g>
     </g>
     <g id="text_6">
      <!-- 125 -->
      <g transform="translate(596.910947 242.793307) scale(0.09 -0.09)">
       <use xlink:href="#DejaVuSans-31"/>
       <use xlink:href="#DejaVuSans-32" transform="translate(63.623047 0)"/>
       <use xlink:href="#DejaVuSans-35" transform="translate(127.246094 0)"/>
      </g>
     </g>
    </g>
    <g id="xtick_7">
     <g id="line2d_13">
      <path d="M 718.734261 228.954713 
L 718.734261 17.061433 
" clip-path="url(#p669d7fd636)" style="fill: none; stroke: #eef2f7; stroke-width: 0.55; stroke-linecap: square"/>
     </g>
     <g id="line2d_14">
      <g>
       <use xlink:href="#me8d30a602c" x="718.734261" y="228.954713" style="stroke: #000000; stroke-width: 0.8"/>
      </g>
     </g>
     <g id="text_7">
      <!-- 150 -->
      <g transform="translate(710.144886 242.793307) scale(0.09 -0.09)">
       <use xlink:href="#DejaVuSans-31"/>
       <use xlink:href="#DejaVuSans-35" transform="translate(63.623047 0)"/>
       <use xlink:href="#DejaVuSans-30" transform="translate(127.246094 0)"/>
      </g>
     </g>
    </g>
    <g id="xtick_8">
     <g id="line2d_15">
      <path d="M 831.968201 228.954713 
L 831.968201 17.061433 
" clip-path="url(#p669d7fd636)" style="fill: none; stroke: #eef2f7; stroke-width: 0.55; stroke-linecap: square"/>
     </g>
     <g id="line2d_16">
      <g>
       <use xlink:href="#me8d30a602c" x="831.968201" y="228.954713" style="stroke: #000000; stroke-width: 0.8"/>
      </g>
     </g>
     <g id="text_8">
      <!-- 175 -->
      <g transform="translate(823.378826 242.793307) scale(0.09 -0.09)">
       <use xlink:href="#DejaVuSans-31"/>
       <use xlink:href="#DejaVuSans-37" transform="translate(63.623047 0)"/>
       <use xlink:href="#DejaVuSans-35" transform="translate(127.246094 0)"/>
      </g>
     </g>
    </g>
    <g id="text_9">
     <!-- Minutes since session start -->
     <g transform="translate(419.728281 256.263463) scale(0.1 -0.1)">
      <defs>
       <path id="DejaVuSans-4d" d="M 628 4666 
L 1569 4666 
L 2759 1491 
L 3956 4666 
L 4897 4666 
L 4897 0 
L 4281 0 
L 4281 4097 
L 3078 897 
L 2444 897 
L 1241 4097 
L 1241 0 
L 628 0 
L 628 4666 
z
" transform="scale(0.015625)"/>
       <path id="DejaVuSans-69" d="M 603 3500 
L 1178 3500 
L 1178 0 
L 603 0 
L 603 3500 
z
M 603 4863 
L 1178 4863 
L 1178 4134 
L 603 4134 
L 603 4863 
z
" transform="scale(0.015625)"/>
       <path id="DejaVuSans-6e" d="M 3513 2113 
L 3513 0 
L 2938 0 
L 2938 2094 
Q 2938 2591 2744 2837 
Q 2550 3084 2163 3084 
Q 1697 3084 1428 2787 
Q 1159 2491 1159 1978 
L 1159 0 
L 581 0 
L 581 3500 
L 1159 3500 
L 1159 2956 
Q 1366 3272 1645 3428 
Q 1925 3584 2291 3584 
Q 2894 3584 3203 3211 
Q 3513 2838 3513 2113 
z
" transform="scale(0.015625)"/>
       <path id="DejaVuSans-75" d="M 544 1381 
L 544 3500 
L 1119 3500 
L 1119 1403 
Q 1119 906 1312 657 
Q 1506 409 1894 409 
Q 2359 409 2629 706 
Q 2900 1003 2900 1516 
L 2900 3500 
L 3475 3500 
L 3475 0 
L 2900 0 
L 2900 538 
Q 2691 219 2414 64 
Q 2138 -91 1772 -91 
Q 1169 -91 856 284 
Q 544 659 544 1381 
z
M 1991 3584 
L 1991 3584 
z
" transform="scale(0.015625)"/>
       <path id="DejaVuSans-74" d="M 1172 4494 
L 1172 3500 
L 2356 3500 
L 2356 3053 
L 1172 3053 
L 1172 1153 
Q 1172 725 1289 603 
Q 1406 481 1766 481 
L 2356 481 
L 2356 0 
L 1766 0 
Q 1100 0 847 248 
Q 594 497 594 1153 
L 594 3053 
L 172 3053 
L 172 3500 
L 594 3500 
L 594 4494 
L 1172 4494 
z
" transform="scale(0.015625)"/>
       <path id="DejaVuSans-65" d="M 3597 1894 
L 3597 1613 
L 953 1613 
Q 991 1019 1311 708 
Q 1631 397 2203 397 
Q 2534 397 2845 478 
Q 3156 559 3463 722 
L 3463 178 
Q 3153 47 2828 -22 
Q 2503 -91 2169 -91 
Q 1331 -91 842 396 
Q 353 884 353 1716 
Q 353 2575 817 3079 
Q 1281 3584 2069 3584 
Q 2775 3584 3186 3129 
Q 3597 2675 3597 1894 
z
M 3022 2063 
Q 3016 2534 2758 2815 
Q 2500 3097 2075 3097 
Q 1594 3097 1305 2825 
Q 1016 2553 972 2059 
L 3022 2063 
z
" transform="scale(0.015625)"/>
       <path id="DejaVuSans-73" d="M 2834 3397 
L 2834 2853 
Q 2591 2978 2328 3040 
Q 2066 3103 1784 3103 
Q 1356 3103 1142 2972 
Q 928 2841 928 2578 
Q 928 2378 1081 2264 
Q 1234 2150 1697 2047 
L 1894 2003 
Q 2506 1872 2764 1633 
Q 3022 1394 3022 966 
Q 3022 478 2636 193 
Q 2250 -91 1575 -91 
Q 1294 -91 989 -36 
Q 684 19 347 128 
L 347 722 
Q 666 556 975 473 
Q 1284 391 1588 391 
Q 1994 391 2212 530 
Q 2431 669 2431 922 
Q 2431 1156 2273 1281 
Q 2116 1406 1581 1522 
L 1381 1569 
Q 847 1681 609 1914 
Q 372 2147 372 2553 
Q 372 3047 722 3315 
Q 1072 3584 1716 3584 
Q 2034 3584 2315 3537 
Q 2597 3491 2834 3397 
z
" transform="scale(0.015625)"/>
       <path id="DejaVuSans-20" transform="scale(0.015625)"/>
       <path id="DejaVuSans-63" d="M 3122 3366 
L 3122 2828 
Q 2878 2963 2633 3030 
Q 2388 3097 2138 3097 
Q 1578 3097 1268 2742 
Q 959 2388 959 1747 
Q 959 1106 1268 751 
Q 1578 397 2138 397 
Q 2388 397 2633 464 
Q 2878 531 3122 666 
L 3122 134 
Q 2881 22 2623 -34 
Q 2366 -91 2075 -91 
Q 1284 -91 818 406 
Q 353 903 353 1747 
Q 353 2603 823 3093 
Q 1294 3584 2113 3584 
Q 2378 3584 2631 3529 
Q 2884 3475 3122 3366 
z
" transform="scale(0.015625)"/>
       <path id="DejaVuSans-6f" d="M 1959 3097 
Q 1497 3097 1228 2736 
Q 959 2375 959 1747 
Q 959 1119 1226 758 
Q 1494 397 1959 397 
Q 2419 397 2687 759 
Q 2956 1122 2956 1747 
Q 2956 2369 2687 2733 
Q 2419 3097 1959 3097 
z
M 1959 3584 
Q 2709 3584 3137 3096 
Q 3566 2609 3566 1747 
Q 3566 888 3137 398 
Q 2709 -91 1959 -91 
Q 1206 -91 779 398 
Q 353 888 353 1747 
Q 353 2609 779 3096 
Q 1206 3584 1959 3584 
z
" transform="scale(0.015625)"/>
       <path id="DejaVuSans-61" d="M 2194 1759 
Q 1497 1759 1228 1600 
Q 959 1441 959 1056 
Q 959 750 1161 570 
Q 1363 391 1709 391 
Q 2188 391 2477 730 
Q 2766 1069 2766 1631 
L 2766 1759 
L 2194 1759 
z
M 3341 1997 
L 3341 0 
L 2766 0 
L 2766 531 
Q 2569 213 2275 61 
Q 1981 -91 1556 -91 
Q 1019 -91 701 211 
Q 384 513 384 1019 
Q 384 1609 779 1909 
Q 1175 2209 1959 2209 
L 2766 2209 
L 2766 2266 
Q 2766 2663 2505 2880 
Q 2244 3097 1772 3097 
Q 1472 3097 1187 3025 
Q 903 2953 641 2809 
L 641 3341 
Q 956 3463 1253 3523 
Q 1550 3584 1831 3584 
Q 2591 3584 2966 3190 
Q 3341 2797 3341 1997 
z
" transform="scale(0.015625)"/>
       <path id="DejaVuSans-72" d="M 2631 2963 
Q 2534 3019 2420 3045 
Q 2306 3072 2169 3072 
Q 1681 3072 1420 2755 
Q 1159 2438 1159 1844 
L 1159 0 
L 581 0 
L 581 3500 
L 1159 3500 
L 1159 2956 
Q 1341 3275 1631 3429 
Q 1922 3584 2338 3584 
Q 2397 3584 2469 3576 
Q 2541 3569 2628 3553 
L 2631 2963 
z
" transform="scale(0.015625)"/>
      </defs>
      <use xlink:href="#DejaVuSans-4d"/>
      <use xlink:href="#DejaVuSans-69" transform="translate(86.279297 0)"/>
      <use xlink:href="#DejaVuSans-6e" transform="translate(114.0625 0)"/>
      <use xlink:href="#DejaVuSans-75" transform="translate(177.441406 0)"/>
      <use xlink:href="#DejaVuSans-74" transform="translate(240.820312 0)"/>
      <use xlink:href="#DejaVuSans-65" transform="translate(280.029297 0)"/>
      <use xlink:href="#DejaVuSans-73" transform="translate(341.552734 0)"/>
      <use xlink:href="#DejaVuSans-20" transform="translate(393.652344 0)"/>
      <use xlink:href="#DejaVuSans-73" transform="translate(425.439453 0)"/>
      <use xlink:href="#DejaVuSans-69" transform="translate(477.539062 0)"/>
      <use xlink:href="#DejaVuSans-6e" transform="translate(505.322266 0)"/>
      <use xlink:href="#DejaVuSans-63" transform="translate(568.701172 0)"/>
      <use xlink:href="#DejaVuSans-65" transform="translate(623.681641 0)"/>
      <use xlink:href="#DejaVuSans-20" transform="translate(685.205078 0)"/>
      <use xlink:href="#DejaVuSans-73" transform="translate(716.992188 0)"/>
      <use xlink:href="#DejaVuSans-65" transform="translate(769.091797 0)"/>
      <use xlink:href="#DejaVuSans-73" transform="translate(830.615234 0)"/>
      <use xlink:href="#DejaVuSans-73" transform="translate(882.714844 0)"/>
      <use xlink:href="#DejaVuSans-69" transform="translate(934.814453 0)"/>
      <use xlink:href="#DejaVuSans-6f" transform="translate(962.597656 0)"/>
      <use xlink:href="#DejaVuSans-6e" transform="translate(1023.779297 0)"/>
      <use xlink:href="#DejaVuSans-20" transform="translate(1087.158203 0)"/>
      <use xlink:href="#DejaVuSans-73" transform="translate(1118.945312 0)"/>
      <use xlink:href="#DejaVuSans-74" transform="translate(1171.044922 0)"/>
      <use xlink:href="#DejaVuSans-61" transform="translate(1210.253906 0)"/>
      <use xlink:href="#DejaVuSans-72" transform="translate(1271.533203 0)"/>
      <use xlink:href="#DejaVuSans-74" transform="translate(1312.646484 0)"/>
     </g>
    </g>
   </g>
   <g id="matplotlib.axis_2">
    <g id="ytick_1">
     <g id="line2d_17">
      <path d="M 39.330625 210.036618 
L 935.305625 210.036618 
" clip-path="url(#p669d7fd636)" style="fill: none; stroke: #eef2f7; stroke-opacity: 0.25; stroke-width: 0.55; stroke-linecap: square"/>
     </g>
     <g id="line2d_18">
      <defs>
       <path id="mab99d6d2cb" d="M 0 0 
L -3.5 0 
" style="stroke: #000000; stroke-width: 0.8"/>
      </defs>
      <g>
       <use xlink:href="#mab99d6d2cb" x="39.330625" y="210.036618" style="stroke: #000000; stroke-width: 0.8"/>
      </g>
     </g>
     <g id="text_10">
      <!-- 30 -->
      <g transform="translate(20.878125 213.455914) scale(0.09 -0.09)">
       <defs>
        <path id="DejaVuSans-33" d="M 2597 2516 
Q 3050 2419 3304 2112 
Q 3559 1806 3559 1356 
Q 3559 666 3084 287 
Q 2609 -91 1734 -91 
Q 1441 -91 1130 -33 
Q 819 25 488 141 
L 488 750 
Q 750 597 1062 519 
Q 1375 441 1716 441 
Q 2309 441 2620 675 
Q 2931 909 2931 1356 
Q 2931 1769 2642 2001 
Q 2353 2234 1838 2234 
L 1294 2234 
L 1294 2753 
L 1863 2753 
Q 2328 2753 2575 2939 
Q 2822 3125 2822 3475 
Q 2822 3834 2567 4026 
Q 2313 4219 1838 4219 
Q 1578 4219 1281 4162 
Q 984 4106 628 3988 
L 628 4550 
Q 988 4650 1302 4700 
Q 1616 4750 1894 4750 
Q 2613 4750 3031 4423 
Q 3450 4097 3450 3541 
Q 3450 3153 3228 2886 
Q 3006 2619 2597 2516 
z
" transform="scale(0.015625)"/>
       </defs>
       <use xlink:href="#DejaVuSans-33"/>
       <use xlink:href="#DejaVuSans-30" transform="translate(63.623047 0)"/>
      </g>
     </g>
    </g>
    <g id="ytick_2">
     <g id="line2d_19">
      <path d="M 39.330625 176.074259 
L 935.305625 176.074259 
" clip-path="url(#p669d7fd636)" style="fill: none; stroke: #eef2f7; stroke-opacity: 0.25; stroke-width: 0.55; stroke-linecap: square"/>
     </g>
     <g id="line2d_20">
      <g>
       <use xlink:href="#mab99d6d2cb" x="39.330625" y="176.074259" style="stroke: #000000; stroke-width: 0.8"/>
      </g>
     </g>
     <g id="text_11">
      <!-- 31 -->
      <g transform="translate(20.878125 179.493556) scale(0.09 -0.09)">
       <use xlink:href="#DejaVuSans-33"/>
       <use xlink:href="#DejaVuSans-31" transform="translate(63.623047 0)"/>
      </g>
     </g>
    </g>
    <g id="ytick_3">
     <g id="line2d_21">
      <path d="M 39.330625 142.1119 
L 935.305625 142.1119 
" clip-path="url(#p669d7fd636)" style="fill: none; stroke: #eef2f7; stroke-opacity: 0.25; stroke-width: 0.55; stroke-linecap: square"/>
     </g>
     <g id="line2d_22">
      <g>
       <use xlink:href="#mab99d6d2cb" x="39.330625" y="142.1119" style="stroke: #000000; stroke-width: 0.8"/>
      </g>
     </g>
     <g id="text_12">
      <!-- 32 -->
      <g transform="translate(20.878125 145.531197) scale(0.09 -0.09)">
       <use xlink:href="#DejaVuSans-33"/>
       <use xlink:href="#DejaVuSans-32" transform="translate(63.623047 0)"/>
      </g>
     </g>
    </g>
    <g id="ytick_4">
     <g id="line2d_23">
      <path d="M 39.330625 108.149541 
L 935.305625 108.149541 
" clip-path="url(#p669d7fd636)" style="fill: none; stroke: #eef2f7; stroke-opacity: 0.25; stroke-width: 0.55; stroke-linecap: square"/>
     </g>
     <g id="line2d_24">
      <g>
       <use xlink:href="#mab99d6d2cb" x="39.330625" y="108.149541" style="stroke: #000000; stroke-width: 0.8"/>
      </g>
     </g>
     <g id="text_13">
      <!-- 33 -->
      <g transform="translate(20.878125 111.568838) scale(0.09 -0.09)">
       <use xlink:href="#DejaVuSans-33"/>
       <use xlink:href="#DejaVuSans-33" transform="translate(63.623047 0)"/>
      </g>
     </g>
    </g>
    <g id="ytick_5">
     <g id="line2d_25">
      <path d="M 39.330625 74.187182 
L 935.305625 74.187182 
" clip-path="url(#p669d7fd636)" style="fill: none; stroke: #eef2f7; stroke-opacity: 0.25; stroke-width: 0.55; stroke-linecap: square"/>
     </g>
     <g id="line2d_26">
      <g>
       <use xlink:href="#mab99d6d2cb" x="39.330625" y="74.187182" style="stroke: #000000; stroke-width: 0.8"/>
      </g>
     </g>
     <g id="text_14">
      <!-- 34 -->
      <g transform="translate(20.878125 77.606479) scale(0.09 -0.09)">
       <defs>
        <path id="DejaVuSans-34" d="M 2419 4116 
L 825 1625 
L 2419 1625 
L 2419 4116 
z
M 2253 4666 
L 3047 4666 
L 3047 1625 
L 3713 1625 
L 3713 1100 
L 3047 1100 
L 3047 0 
L 2419 0 
L 2419 1100 
L 313 1100 
L 313 1709 
L 2253 4666 
z
" transform="scale(0.015625)"/>
       </defs>
       <use xlink:href="#DejaVuSans-33"/>
       <use xlink:href="#DejaVuSans-34" transform="translate(63.623047 0)"/>
      </g>
     </g>
    </g>
    <g id="ytick_6">
     <g id="line2d_27">
      <path d="M 39.330625 40.224823 
L 935.305625 40.224823 
" clip-path="url(#p669d7fd636)" style="fill: none; stroke: #eef2f7; stroke-opacity: 0.25; stroke-width: 0.55; stroke-linecap: square"/>
     </g>
     <g id="line2d_28">
      <g>
       <use xlink:href="#mab99d6d2cb" x="39.330625" y="40.224823" style="stroke: #000000; stroke-width: 0.8"/>
      </g>
     </g>
     <g id="text_15">
      <!-- 35 -->
      <g transform="translate(20.878125 43.64412) scale(0.09 -0.09)">
       <use xlink:href="#DejaVuSans-33"/>
       <use xlink:href="#DejaVuSans-35" transform="translate(63.623047 0)"/>
      </g>
     </g>
    </g>
    <g id="text_16">
     <!-- Temperature (C) -->
     <g transform="translate(14.798438 163.659635) rotate(-90) scale(0.1 -0.1)">
      <defs>
       <path id="DejaVuSans-54" d="M -19 4666 
L 3928 4666 
L 3928 4134 
L 2272 4134 
L 2272 0 
L 1638 0 
L 1638 4134 
L -19 4134 
L -19 4666 
z
" transform="scale(0.015625)"/>
       <path id="DejaVuSans-6d" d="M 3328 2828 
Q 3544 3216 3844 3400 
Q 4144 3584 4550 3584 
Q 5097 3584 5394 3201 
Q 5691 2819 5691 2113 
L 5691 0 
L 5113 0 
L 5113 2094 
Q 5113 2597 4934 2840 
Q 4756 3084 4391 3084 
Q 3944 3084 3684 2787 
Q 3425 2491 3425 1978 
L 3425 0 
L 2847 0 
L 2847 2094 
Q 2847 2600 2669 2842 
Q 2491 3084 2119 3084 
Q 1678 3084 1418 2786 
Q 1159 2488 1159 1978 
L 1159 0 
L 581 0 
L 581 3500 
L 1159 3500 
L 1159 2956 
Q 1356 3278 1631 3431 
Q 1906 3584 2284 3584 
Q 2666 3584 2933 3390 
Q 3200 3197 3328 2828 
z
" transform="scale(0.015625)"/>
       <path id="DejaVuSans-70" d="M 1159 525 
L 1159 -1331 
L 581 -1331 
L 581 3500 
L 1159 3500 
L 1159 2969 
Q 1341 3281 1617 3432 
Q 1894 3584 2278 3584 
Q 2916 3584 3314 3078 
Q 3713 2572 3713 1747 
Q 3713 922 3314 415 
Q 2916 -91 2278 -91 
Q 1894 -91 1617 61 
Q 1341 213 1159 525 
z
M 3116 1747 
Q 3116 2381 2855 2742 
Q 2594 3103 2138 3103 
Q 1681 3103 1420 2742 
Q 1159 2381 1159 1747 
Q 1159 1113 1420 752 
Q 1681 391 2138 391 
Q 2594 391 2855 752 
Q 3116 1113 3116 1747 
z
" transform="scale(0.015625)"/>
       <path id="DejaVuSans-28" d="M 1984 4856 
Q 1566 4138 1362 3434 
Q 1159 2731 1159 2009 
Q 1159 1288 1364 580 
Q 1569 -128 1984 -844 
L 1484 -844 
Q 1016 -109 783 600 
Q 550 1309 550 2009 
Q 550 2706 781 3412 
Q 1013 4119 1484 4856 
L 1984 4856 
z
" transform="scale(0.015625)"/>
       <path id="DejaVuSans-43" d="M 4122 4306 
L 4122 3641 
Q 3803 3938 3442 4084 
Q 3081 4231 2675 4231 
Q 1875 4231 1450 3742 
Q 1025 3253 1025 2328 
Q 1025 1406 1450 917 
Q 1875 428 2675 428 
Q 3081 428 3442 575 
Q 3803 722 4122 1019 
L 4122 359 
Q 3791 134 3420 21 
Q 3050 -91 2638 -91 
Q 1578 -91 968 557 
Q 359 1206 359 2328 
Q 359 3453 968 4101 
Q 1578 4750 2638 4750 
Q 3056 4750 3426 4639 
Q 3797 4528 4122 4306 
z
" transform="scale(0.015625)"/>
       <path id="DejaVuSans-29" d="M 513 4856 
L 1013 4856 
Q 1481 4119 1714 3412 
Q 1947 2706 1947 2009 
Q 1947 1309 1714 600 
Q 1481 -109 1013 -844 
L 513 -844 
Q 928 -128 1133 580 
Q 1338 1288 1338 2009 
Q 1338 2731 1133 3434 
Q 928 4138 513 4856 
z
" transform="scale(0.015625)"/>
      </defs>
      <use xlink:href="#DejaVuSans-54"/>
      <use xlink:href="#DejaVuSans-65" transform="translate(44.083984 0)"/>
      <use xlink:href="#DejaVuSans-6d" transform="translate(105.607422 0)"/>
      <use xlink:href="#DejaVuSans-70" transform="translate(203.019531 0)"/>
      <use xlink:href="#DejaVuSans-65" transform="translate(266.496094 0)"/>
      <use xlink:href="#DejaVuSans-72" transform="translate(328.019531 0)"/>
      <use xlink:href="#DejaVuSans-61" transform="translate(369.132812 0)"/>
      <use xlink:href="#DejaVuSans-74" transform="translate(430.412109 0)"/>
      <use xlink:href="#DejaVuSans-75" transform="translate(469.621094 0)"/>
      <use xlink:href="#DejaVuSans-72" transform="translate(533 0)"/>
      <use xlink:href="#DejaVuSans-65" transform="translate(571.863281 0)"/>
      <use xlink:href="#DejaVuSans-20" transform="translate(633.386719 0)"/>
      <use xlink:href="#DejaVuSans-28" transform="translate(665.173828 0)"/>
      <use xlink:href="#DejaVuSans-43" transform="translate(704.1875 0)"/>
      <use xlink:href="#DejaVuSans-29" transform="translate(774.011719 0)"/>
     </g>
    </g>
   </g>
   <g id="line2d_29">
    <path d="M 39.34434 218.527207 
L 39.646297 219.057869 
L 39.948254 219.057869 
L 40.250211 219.3232 
L 40.552168 219.057869 
L 41.156083 219.057869 
L 41.45804 218.792538 
L 41.759997 219.057869 
L 42.363912 219.057869 
L 42.665869 219.3232 
L 42.967826 218.792538 
L 43.269783 218.792538 
L 43.57174 219.057869 
L 43.873698 217.731214 
L 44.477612 216.139229 
L 44.779569 207.648639 
L 45.081526 205.260661 
L 45.383483 203.934006 
L 45.685441 206.587315 
L 45.987398 206.587315 
L 46.289355 207.648639 
L 46.893269 210.567279 
L 47.195227 211.363272 
L 47.497184 211.628603 
L 48.403055 214.016581 
L 48.705013 214.016581 
L 49.00697 214.547243 
L 49.308927 213.751251 
L 50.214799 213.751251 
L 50.516756 213.220589 
L 50.818713 213.220589 
L 51.12067 213.48592 
L 51.422627 207.91397 
L 52.026542 208.975294 
L 52.328499 209.771287 
L 52.932413 210.301948 
L 53.23437 209.771287 
L 53.536328 209.505956 
L 54.442199 205.260661 
L 55.046114 201.280697 
L 55.348071 202.07669 
L 55.951985 207.383308 
L 56.5559 208.444632 
L 56.857857 207.648639 
L 57.159814 202.872682 
L 57.461771 201.546028 
L 57.763728 202.342021 
L 58.065685 199.688711 
L 58.367643 199.688711 
L 58.6696 199.954042 
L 58.971557 199.42338 
L 59.877429 196.239409 
L 60.179386 197.035402 
L 60.481343 198.362057 
L 61.085257 199.954042 
L 61.387214 199.688711 
L 61.689172 199.954042 
L 61.991129 200.484704 
L 62.293086 200.219373 
L 62.595043 199.688711 
L 62.897 199.954042 
L 63.500915 199.42338 
L 63.802872 200.219373 
L 64.104829 200.484704 
L 64.406786 198.362057 
L 64.708744 198.096726 
L 65.312658 195.974078 
L 65.614615 195.443416 
L 65.916572 195.443416 
L 66.21853 194.116762 
L 66.520487 193.5861 
L 66.822444 193.320769 
L 67.124401 192.524776 
L 67.426358 192.524776 
L 68.030273 190.66746 
L 68.33223 190.136798 
L 68.936144 189.606136 
L 69.842016 185.891503 
L 70.44593 185.360841 
L 71.049845 184.034186 
L 71.351802 183.503525 
L 71.653759 183.238194 
L 73.163545 180.584884 
L 73.465502 180.319553 
L 73.767459 179.788892 
L 74.069417 179.788892 
L 74.371374 179.523561 
L 74.673331 179.523561 
L 74.975288 178.992899 
L 75.579202 177.400913 
L 75.88116 177.931575 
L 76.183117 176.870251 
L 76.485074 176.33959 
L 76.787031 176.60492 
L 77.088988 176.074259 
L 77.390946 175.012935 
L 77.692903 174.747604 
L 77.99486 173.68628 
L 78.296817 173.68628 
L 78.598774 173.951611 
L 78.900732 172.359626 
L 79.202689 172.359626 
L 80.10856 170.76764 
L 80.410518 169.971647 
L 80.712475 169.706316 
L 81.316389 168.644993 
L 81.618346 168.379662 
L 81.920303 167.849 
L 82.222261 167.053007 
L 82.524218 167.318338 
L 82.826175 166.257014 
L 83.128132 166.257014 
L 83.430089 165.726352 
L 84.034004 165.195691 
L 84.335961 164.399698 
L 84.637918 164.134367 
L 84.939875 162.807712 
L 85.241833 163.603705 
L 85.54379 162.27705 
L 86.147704 160.950396 
L 86.449661 160.419734 
L 86.751619 160.419734 
L 87.053576 159.093079 
L 87.355533 158.827748 
L 87.65749 158.031755 
L 87.959447 157.766425 
L 88.261404 157.235763 
L 88.563362 156.43977 
L 88.865319 156.174439 
L 89.167276 155.643777 
L 89.469233 155.909108 
L 89.77119 154.317122 
L 90.073148 154.051792 
L 90.677062 152.990468 
L 90.979019 152.194475 
L 91.280976 151.929144 
L 91.884891 150.86782 
L 92.186848 150.86782 
L 92.488805 150.337158 
L 92.790762 150.071828 
L 93.092719 149.541166 
L 93.394677 148.745173 
L 93.696634 148.479842 
L 93.998591 147.94918 
L 94.300548 147.683849 
L 94.602505 147.153187 
L 94.904463 146.357195 
L 95.20642 146.091864 
L 95.508377 146.091864 
L 95.810334 145.826533 
L 96.112291 145.295871 
L 96.414249 145.03054 
L 96.716206 144.499878 
L 97.018163 144.234547 
L 97.32012 144.234547 
L 97.924035 142.907892 
L 98.225992 142.642562 
L 98.829906 141.581238 
L 99.131863 141.581238 
L 99.43382 140.785245 
L 99.735778 140.785245 
L 100.037735 140.519914 
L 100.339692 139.723921 
L 100.641649 139.723921 
L 100.943606 139.193259 
L 101.245564 138.397267 
L 101.547521 138.662598 
L 101.849478 138.131936 
L 102.151435 137.866605 
L 102.453392 137.866605 
L 103.057307 136.274619 
L 103.359264 136.009288 
L 103.661221 135.478626 
L 103.963178 135.743957 
L 104.265135 135.213296 
L 105.171007 134.417303 
L 105.774921 133.355979 
L 106.076879 133.090648 
L 106.680793 133.090648 
L 106.98275 131.763993 
L 107.284707 132.294655 
L 107.586665 131.498663 
L 107.888622 131.763993 
L 108.190579 130.968001 
L 108.492536 130.968001 
L 109.09645 129.641346 
L 109.398408 130.437339 
L 110.002322 128.580022 
L 110.304279 128.314691 
L 110.606237 128.845353 
L 110.908194 127.518699 
L 111.210151 127.518699 
L 111.512108 127.253368 
L 111.814065 127.253368 
L 112.116022 126.988037 
L 112.41798 125.926713 
L 112.719937 126.192044 
L 113.021894 125.13072 
L 113.323851 124.600058 
L 113.625808 124.865389 
L 114.229723 123.538735 
L 114.53168 123.538735 
L 114.833637 123.804066 
L 115.135594 123.008073 
L 115.437551 122.742742 
L 115.739509 122.21208 
L 116.041466 122.21208 
L 116.343423 121.416087 
L 116.947337 120.885425 
L 117.249295 120.089433 
L 117.853209 119.558771 
L 118.155166 119.824102 
L 119.061038 118.232116 
L 119.362995 118.497447 
L 119.966909 117.966785 
L 120.268867 117.170792 
L 120.872781 117.170792 
L 121.174738 116.109469 
L 121.476695 116.640131 
L 121.778652 115.578807 
L 122.08061 115.578807 
L 122.382567 114.782814 
L 122.684524 114.517483 
L 122.986481 114.782814 
L 123.288438 113.72149 
L 123.590396 113.986821 
L 124.496267 112.394836 
L 124.798224 112.394836 
L 125.402139 111.333512 
L 125.704096 111.598843 
L 126.006053 111.068181 
L 126.30801 111.068181 
L 126.609968 110.537519 
L 127.213882 109.210864 
L 127.515839 109.210864 
L 127.817796 108.680203 
L 128.119753 108.414872 
L 128.421711 107.88421 
L 128.723668 107.88421 
L 129.025625 107.618879 
L 129.327582 107.088217 
L 129.629539 107.088217 
L 129.931497 106.557555 
L 130.535411 106.026893 
L 131.139325 104.700239 
L 131.441283 105.230901 
L 131.74324 104.700239 
L 132.045197 104.700239 
L 132.951068 103.108253 
L 133.253026 103.108253 
L 133.554983 102.31226 
L 133.85694 102.577591 
L 134.158897 102.046929 
L 134.460854 100.985606 
L 135.064769 100.985606 
L 135.366726 100.189613 
L 135.668683 99.924282 
L 135.97064 100.189613 
L 136.272598 99.658951 
L 136.574555 99.658951 
L 136.876512 99.128289 
L 137.178469 98.862958 
L 137.480426 98.862958 
L 137.782384 98.332296 
L 138.084341 98.066965 
L 138.386298 98.066965 
L 138.688255 97.801635 
L 138.990212 96.740311 
L 139.292169 97.005642 
L 139.594127 95.944318 
L 139.896084 96.209649 
L 140.198041 95.944318 
L 140.499998 97.005642 
L 140.801955 95.413656 
L 141.103913 95.413656 
L 141.40587 94.617663 
L 141.707827 94.617663 
L 142.009784 94.352332 
L 142.311741 93.55634 
L 142.613699 93.821671 
L 143.217613 93.291009 
L 143.51957 93.291009 
L 144.123485 92.229685 
L 144.425442 91.964354 
L 144.727399 91.964354 
L 145.029356 91.699023 
L 145.331313 90.90303 
L 145.63327 91.168361 
L 146.237185 90.637699 
L 146.539142 90.90303 
L 146.841099 89.841707 
L 147.445014 89.311045 
L 148.048928 89.311045 
L 148.350885 89.045714 
L 148.652842 88.515052 
L 148.9548 88.515052 
L 149.860671 87.719059 
L 150.162628 87.188397 
L 150.464586 87.188397 
L 150.766543 86.923066 
L 151.0685 86.392405 
L 151.370457 86.923066 
L 151.672414 86.657736 
L 151.974371 86.923066 
L 152.276329 85.861743 
L 152.578286 86.392405 
L 152.880243 85.861743 
L 153.1822 85.596412 
L 153.484157 85.06575 
L 153.786115 85.06575 
L 154.390029 84.535088 
L 154.993943 83.473764 
L 155.295901 84.004426 
L 155.597858 83.473764 
L 155.899815 83.473764 
L 156.201772 82.412441 
L 156.503729 82.677772 
L 157.107644 81.616448 
L 157.409601 82.14711 
L 157.711558 81.616448 
L 158.013515 81.616448 
L 158.315472 81.085786 
L 159.221344 81.085786 
L 159.523301 80.555124 
L 159.825258 79.759131 
L 160.127216 80.024462 
L 160.429173 79.759131 
L 160.73113 79.759131 
L 161.637002 78.963139 
L 161.938959 78.963139 
L 162.240916 78.697808 
L 162.542873 78.963139 
L 162.84483 77.901815 
L 163.146787 78.167146 
L 163.448745 77.901815 
L 163.750702 77.901815 
L 164.052659 77.105822 
L 164.354616 77.636484 
L 164.656573 77.105822 
L 164.958531 77.105822 
L 165.260488 76.840491 
L 165.562445 76.840491 
L 165.864402 77.105822 
L 166.166359 76.57516 
L 166.468317 77.105822 
L 166.770274 76.57516 
L 167.072231 76.309829 
L 167.374188 76.57516 
L 167.676145 76.309829 
L 167.978103 75.779167 
L 168.28006 76.309829 
L 168.582017 76.044498 
L 168.883974 75.513836 
L 169.185931 75.779167 
L 169.487888 76.309829 
L 169.789846 75.513836 
L 170.091803 75.779167 
L 170.39376 75.779167 
L 170.695717 75.513836 
L 170.997674 75.513836 
L 171.299632 75.248506 
L 171.601588 75.513836 
L 171.903545 75.248506 
L 172.205502 75.248506 
L 172.507459 74.983175 
L 172.809416 74.452513 
L 173.715288 74.452513 
L 174.319202 73.921851 
L 174.621159 73.921851 
L 174.923117 73.65652 
L 175.225074 73.921851 
L 175.527031 73.125858 
L 175.828988 73.391189 
L 176.130945 73.391189 
L 176.432902 73.125858 
L 176.73486 73.391189 
L 177.640731 72.595196 
L 177.942688 72.860527 
L 178.244645 72.595196 
L 178.546603 72.860527 
L 178.84856 72.064534 
L 179.150517 72.329865 
L 179.452474 71.533873 
L 179.754431 71.799203 
L 180.358346 71.268542 
L 180.660303 71.533873 
L 180.96226 71.268542 
L 181.264217 71.799203 
L 181.566174 71.799203 
L 181.868131 71.003211 
L 182.170089 71.003211 
L 182.774003 70.472549 
L 183.07596 70.73788 
L 183.679874 70.207218 
L 183.981832 70.207218 
L 184.283789 69.941887 
L 184.585746 70.207218 
L 184.887703 69.145894 
L 185.18966 69.941887 
L 185.491618 69.941887 
L 186.095532 69.411225 
L 186.397489 69.411225 
L 186.699446 68.880563 
L 187.001403 68.615232 
L 187.303361 68.880563 
L 187.605318 68.880563 
L 187.907275 67.81924 
L 188.209232 67.81924 
L 188.511189 68.08457 
L 189.115104 67.553909 
L 190.020975 67.553909 
L 190.322932 67.81924 
L 190.624889 66.757916 
L 190.926847 66.757916 
L 191.228804 67.023247 
L 191.530761 66.492585 
L 191.832718 67.023247 
L 192.134675 66.757916 
L 192.436632 66.227254 
L 192.73859 66.757916 
L 193.040547 66.757916 
L 193.342504 65.961923 
L 193.946418 65.961923 
L 194.248375 65.431261 
L 194.550333 65.696592 
L 194.85229 65.431261 
L 195.456204 65.431261 
L 195.758161 65.961923 
L 196.060119 64.900599 
L 196.362076 65.431261 
L 196.664033 64.900599 
L 196.96599 64.900599 
L 197.267947 64.635268 
L 197.569904 64.900599 
L 197.871862 65.431261 
L 198.777733 63.839276 
L 199.07969 63.043283 
L 199.381647 62.777952 
L 199.683605 63.043283 
L 199.985562 62.24729 
L 200.287519 61.981959 
L 200.589476 62.24729 
L 200.891433 62.24729 
L 201.19339 61.451297 
L 201.495348 61.981959 
L 201.797305 61.981959 
L 202.099262 61.185966 
L 202.401219 60.920635 
L 202.703176 60.920635 
L 203.005133 60.655304 
L 203.307091 60.655304 
L 203.911005 59.593981 
L 204.212962 60.124643 
L 204.514919 60.389974 
L 204.816877 59.32865 
L 205.118834 59.859312 
L 205.420791 59.593981 
L 205.722748 59.859312 
L 206.024705 59.32865 
L 206.326662 59.32865 
L 206.62862 59.593981 
L 206.930577 59.063319 
L 207.232534 59.593981 
L 207.534491 59.32865 
L 208.138405 59.32865 
L 208.440363 59.593981 
L 208.74232 59.593981 
L 209.044277 59.32865 
L 209.346234 58.797988 
L 209.648191 58.797988 
L 209.950148 58.532657 
L 210.252106 58.532657 
L 210.554063 58.797988 
L 210.85602 58.532657 
L 211.157977 58.797988 
L 212.063849 58.001995 
L 212.365806 57.471333 
L 212.667763 58.001995 
L 213.875592 56.940671 
L 214.177549 57.206002 
L 214.781463 56.675341 
L 215.08342 57.206002 
L 215.687335 56.675341 
L 215.989292 56.675341 
L 216.291249 56.940671 
L 216.895163 56.41001 
L 217.197121 56.675341 
L 217.499078 56.144679 
L 218.404949 56.144679 
L 219.310821 55.348686 
L 219.914735 55.348686 
L 220.216692 54.552693 
L 220.518649 54.818024 
L 221.122564 54.818024 
L 221.424521 54.552693 
L 221.726478 54.818024 
L 222.63235 54.022031 
L 222.934307 54.552693 
L 223.236264 54.287362 
L 223.538221 53.7567 
L 223.840178 54.287362 
L 224.142135 53.7567 
L 224.444093 54.022031 
L 225.048007 53.491369 
L 225.349964 53.491369 
L 225.651921 53.7567 
L 225.953879 53.226038 
L 226.255836 53.491369 
L 226.557793 53.491369 
L 226.85975 52.960708 
L 227.161707 52.695377 
L 227.463664 53.226038 
L 227.765622 52.695377 
L 228.067579 52.695377 
L 228.369536 52.430046 
L 228.671493 52.960708 
L 228.97345 52.695377 
L 229.275407 52.164715 
L 229.577365 52.960708 
L 229.879322 52.164715 
L 230.181279 52.695377 
L 230.483236 52.430046 
L 230.785193 52.430046 
L 231.08715 52.164715 
L 231.389108 52.164715 
L 231.691065 51.899384 
L 231.993022 52.164715 
L 232.294979 51.899384 
L 232.596936 52.164715 
L 232.898893 51.899384 
L 233.200851 52.164715 
L 233.804765 51.634053 
L 234.106722 52.164715 
L 234.408679 51.368722 
L 235.012594 51.899384 
L 235.314551 51.368722 
L 235.616508 51.634053 
L 235.918465 51.368722 
L 236.220422 51.368722 
L 236.52238 51.634053 
L 236.824337 51.634053 
L 237.126294 51.103391 
L 237.730208 52.164715 
L 238.032165 51.634053 
L 238.334123 51.368722 
L 238.63608 51.634053 
L 238.938037 51.103391 
L 239.541951 51.103391 
L 240.145866 51.634053 
L 240.447823 51.103391 
L 240.74978 51.368722 
L 241.051737 51.368722 
L 241.353694 51.634053 
L 241.655651 51.368722 
L 241.957609 51.634053 
L 242.259566 51.103391 
L 242.561523 51.103391 
L 242.86348 51.899384 
L 243.165437 51.103391 
L 243.467394 50.83806 
L 243.769352 51.103391 
L 244.071309 51.634053 
L 244.373266 50.83806 
L 244.675223 50.83806 
L 244.97718 51.103391 
L 245.279138 50.83806 
L 245.581095 51.103391 
L 245.883052 50.83806 
L 246.185009 51.368722 
L 246.486966 51.103391 
L 246.788923 51.634053 
L 247.090881 51.103391 
L 247.392838 50.83806 
L 247.996752 51.368722 
L 248.298709 50.83806 
L 248.600666 50.83806 
L 249.204581 51.368722 
L 249.506538 51.899384 
L 249.808495 52.164715 
L 250.110452 52.164715 
L 250.412409 51.899384 
L 250.714367 52.960708 
L 251.016324 52.695377 
L 251.318281 53.7567 
L 251.620238 53.491369 
L 251.922195 53.7567 
L 252.224152 53.7567 
L 252.52611 54.287362 
L 252.828067 54.287362 
L 253.130024 54.552693 
L 253.431981 55.083355 
L 253.733938 55.083355 
L 254.035895 55.348686 
L 254.337853 55.879348 
L 254.63981 55.879348 
L 254.941767 56.41001 
L 255.243724 56.144679 
L 255.545681 56.144679 
L 255.847639 56.940671 
L 256.149596 56.940671 
L 256.451553 57.206002 
L 256.75351 57.206002 
L 257.055467 57.471333 
L 257.357424 57.471333 
L 257.961339 58.001995 
L 258.263296 58.001995 
L 258.565253 58.532657 
L 258.86721 58.532657 
L 259.169167 58.267326 
L 259.471125 58.267326 
L 259.773082 58.797988 
L 260.075039 58.532657 
L 260.376996 58.797988 
L 260.678953 59.32865 
L 260.98091 59.063319 
L 261.282868 59.32865 
L 261.886782 59.32865 
L 262.188739 59.859312 
L 262.490696 59.593981 
L 262.792653 59.859312 
L 263.396568 59.859312 
L 263.698525 60.920635 
L 264.000482 60.389974 
L 264.604397 60.920635 
L 264.906354 60.655304 
L 265.208311 61.185966 
L 266.718097 61.185966 
L 267.020054 61.451297 
L 267.322011 61.451297 
L 267.623968 61.185966 
L 267.925925 61.981959 
L 268.227883 61.716628 
L 268.52984 61.716628 
L 268.831797 61.451297 
L 269.133754 61.716628 
L 269.435711 61.716628 
L 270.039626 62.24729 
L 270.341583 62.24729 
L 270.64354 61.981959 
L 270.945497 61.981959 
L 271.549411 63.043283 
L 271.851369 63.043283 
L 272.153326 62.777952 
L 272.75724 62.777952 
L 273.361154 63.308614 
L 273.663112 63.043283 
L 273.965069 63.043283 
L 274.267026 62.777952 
L 274.568983 63.043283 
L 275.172898 63.043283 
L 275.474855 62.777952 
L 275.776812 63.043283 
L 276.078769 62.777952 
L 276.380726 63.043283 
L 276.682683 62.777952 
L 276.984641 63.043283 
L 277.588555 63.043283 
L 277.890512 62.777952 
L 279.098341 62.777952 
L 279.400298 62.24729 
L 279.702255 61.981959 
L 280.004212 62.24729 
L 280.306169 61.716628 
L 280.608127 61.451297 
L 281.212041 60.389974 
L 281.513998 60.920635 
L 281.815955 60.389974 
L 282.117912 60.124643 
L 282.41987 60.389974 
L 282.721827 59.859312 
L 283.023784 60.124643 
L 283.325741 58.797988 
L 283.627698 59.593981 
L 283.929656 58.797988 
L 284.231613 58.532657 
L 284.53357 58.001995 
L 284.835527 58.267326 
L 285.137484 58.001995 
L 285.439441 58.532657 
L 286.345313 56.940671 
L 286.64727 56.940671 
L 287.251184 56.41001 
L 287.553142 56.41001 
L 287.855099 56.675341 
L 288.157056 56.41001 
L 288.459013 55.879348 
L 289.062927 55.879348 
L 289.364885 55.083355 
L 289.968799 55.083355 
L 290.270756 54.287362 
L 290.572713 54.552693 
L 290.87467 54.022031 
L 291.176628 54.287362 
L 291.478585 54.022031 
L 291.780542 53.226038 
L 292.082499 53.491369 
L 292.384456 53.491369 
L 292.686413 52.695377 
L 292.988371 52.695377 
L 293.290328 52.430046 
L 293.894242 52.430046 
L 294.498157 51.899384 
L 294.800114 51.899384 
L 295.102071 52.164715 
L 295.404028 51.634053 
L 295.705985 51.634053 
L 296.007942 51.899384 
L 296.3099 51.368722 
L 296.611857 51.368722 
L 296.913814 51.634053 
L 297.215771 51.368722 
L 297.517728 50.307398 
L 298.121643 50.83806 
L 298.4236 50.307398 
L 298.725557 50.042067 
L 299.027514 50.042067 
L 299.329471 49.776736 
L 299.631428 49.776736 
L 299.933386 49.511405 
L 300.235343 50.307398 
L 300.5373 48.980744 
L 300.839257 48.980744 
L 301.141214 48.450082 
L 301.443171 48.450082 
L 301.745129 49.246075 
L 302.047086 48.715413 
L 302.349043 48.715413 
L 302.651 47.91942 
L 302.952957 48.450082 
L 303.254914 47.91942 
L 303.858829 47.91942 
L 304.160786 47.654089 
L 304.462743 47.654089 
L 305.066658 46.592765 
L 305.368615 46.858096 
L 305.670572 46.327434 
L 305.972529 46.327434 
L 306.274486 45.796772 
L 306.576443 45.531441 
L 306.878401 45.531441 
L 307.180358 45.796772 
L 307.784272 45.266111 
L 308.388186 45.266111 
L 308.690144 44.735449 
L 308.992101 45.00078 
L 309.294058 44.470118 
L 309.596015 44.735449 
L 309.897972 44.470118 
L 310.199929 43.939456 
L 310.501887 44.204787 
L 310.803844 43.939456 
L 311.105801 43.939456 
L 311.407758 44.204787 
L 311.709715 44.204787 
L 312.011672 44.735449 
L 312.31363 44.204787 
L 312.615587 43.939456 
L 312.917544 44.204787 
L 313.219501 44.204787 
L 313.521458 43.674125 
L 313.823416 43.674125 
L 314.125373 43.408794 
L 314.42733 43.408794 
L 314.729287 42.612801 
L 315.333201 43.143463 
L 315.635159 42.34747 
L 315.937116 42.612801 
L 316.239073 42.612801 
L 316.54103 42.878132 
L 317.144944 42.34747 
L 317.748859 42.34747 
L 318.050816 41.816808 
L 318.352773 42.082139 
L 318.65473 42.082139 
L 318.956687 41.816808 
L 319.258645 42.082139 
L 319.560602 41.551478 
L 320.164516 41.551478 
L 320.466473 41.816808 
L 320.76843 41.551478 
L 321.070388 42.34747 
L 321.674302 42.34747 
L 321.976259 42.878132 
L 322.278216 42.878132 
L 322.580173 43.674125 
L 322.882131 43.674125 
L 323.184088 44.204787 
L 323.486045 44.470118 
L 323.788002 44.470118 
L 324.089959 44.735449 
L 324.391917 45.531441 
L 324.693874 45.796772 
L 324.995831 46.327434 
L 325.297788 46.592765 
L 325.599745 46.592765 
L 325.901702 47.123427 
L 326.505617 48.980744 
L 326.807574 48.450082 
L 327.109531 48.184751 
L 327.411488 49.246075 
L 327.713445 48.980744 
L 328.015403 49.511405 
L 328.31736 49.776736 
L 328.619317 50.307398 
L 328.921274 50.307398 
L 329.223231 51.103391 
L 329.827146 51.103391 
L 330.43106 52.164715 
L 330.733017 52.430046 
L 331.034974 52.164715 
L 331.638889 53.226038 
L 332.242803 53.226038 
L 332.54476 53.7567 
L 332.846717 54.022031 
L 333.148674 54.818024 
L 333.450632 54.022031 
L 333.752589 54.287362 
L 334.054546 53.7567 
L 334.356503 55.083355 
L 334.65846 54.818024 
L 334.960418 55.083355 
L 335.262375 55.614017 
L 335.564332 55.614017 
L 335.866289 56.144679 
L 336.168246 56.41001 
L 336.470203 56.41001 
L 336.772161 56.675341 
L 337.074118 56.675341 
L 337.376075 56.41001 
L 337.678032 56.940671 
L 337.979989 56.940671 
L 338.281946 57.471333 
L 338.583904 57.206002 
L 338.885861 57.206002 
L 339.791732 58.001995 
L 340.093689 58.001995 
L 340.395647 58.532657 
L 340.697604 58.001995 
L 340.999561 59.32865 
L 341.301518 58.532657 
L 341.603475 58.267326 
L 341.905432 58.267326 
L 342.509347 58.797988 
L 344.019133 58.797988 
L 344.32109 58.267326 
L 344.623047 58.532657 
L 344.925004 58.267326 
L 345.528919 58.797988 
L 345.830876 58.532657 
L 346.132833 58.532657 
L 346.43479 59.32865 
L 346.736747 59.32865 
L 347.038704 60.124643 
L 347.340662 60.124643 
L 347.642619 60.389974 
L 348.246533 59.859312 
L 348.54849 60.389974 
L 348.850447 60.124643 
L 349.152405 60.920635 
L 349.454362 60.389974 
L 350.058276 60.389974 
L 350.360233 60.655304 
L 350.66219 61.185966 
L 351.266105 61.185966 
L 351.568062 61.981959 
L 351.870019 61.451297 
L 352.171976 61.716628 
L 352.473933 61.451297 
L 352.775891 62.777952 
L 353.077848 62.24729 
L 353.681762 62.777952 
L 353.983719 62.777952 
L 354.889591 63.573945 
L 355.795462 63.573945 
L 356.09742 64.369937 
L 356.399377 64.104607 
L 357.305248 64.104607 
L 357.607205 64.369937 
L 357.909163 63.839276 
L 358.21112 64.369937 
L 358.513077 64.369937 
L 358.815034 64.104607 
L 359.116991 64.635268 
L 359.720906 64.635268 
L 360.022863 64.369937 
L 360.32482 64.900599 
L 360.626777 64.369937 
L 360.928734 64.104607 
L 361.230691 64.104607 
L 361.532649 65.431261 
L 361.834606 64.104607 
L 362.136563 64.635268 
L 362.43852 64.635268 
L 362.740477 64.369937 
L 363.344392 64.900599 
L 363.646349 64.369937 
L 364.55222 65.16593 
L 364.854178 64.900599 
L 365.156135 64.369937 
L 365.458092 64.635268 
L 365.760049 65.16593 
L 366.062006 64.104607 
L 366.363963 64.635268 
L 366.665921 63.573945 
L 366.967878 63.839276 
L 367.269835 63.043283 
L 367.571792 62.777952 
L 368.175706 62.777952 
L 368.477664 62.24729 
L 368.779621 61.981959 
L 369.081578 61.451297 
L 369.685492 61.451297 
L 369.987449 60.655304 
L 370.289407 60.920635 
L 370.591364 59.859312 
L 371.195278 59.859312 
L 371.497235 59.32865 
L 371.799192 59.063319 
L 372.10115 59.32865 
L 372.403107 58.532657 
L 372.705064 58.532657 
L 373.007021 59.063319 
L 373.308978 58.267326 
L 373.610936 58.001995 
L 373.912893 58.001995 
L 374.21485 57.736664 
L 374.516807 57.736664 
L 374.818764 57.471333 
L 375.120721 57.471333 
L 376.32855 56.41001 
L 376.630507 56.41001 
L 376.932464 56.144679 
L 377.234422 55.614017 
L 377.536379 55.348686 
L 377.838336 55.348686 
L 378.140293 54.818024 
L 378.44225 54.818024 
L 378.744207 54.552693 
L 379.046165 53.491369 
L 379.348122 54.287362 
L 379.650079 53.491369 
L 380.253993 52.960708 
L 380.857908 52.960708 
L 381.159865 53.226038 
L 381.461822 52.164715 
L 381.763779 51.899384 
L 382.065736 52.695377 
L 382.669651 51.634053 
L 382.971608 51.634053 
L 383.273565 51.103391 
L 384.481394 50.042067 
L 384.783351 50.307398 
L 385.085308 49.776736 
L 385.689222 49.246075 
L 385.99118 49.246075 
L 386.293137 48.980744 
L 386.595094 48.184751 
L 386.897051 48.184751 
L 387.199008 47.654089 
L 387.500965 48.184751 
L 387.802923 47.91942 
L 388.10488 47.123427 
L 388.406837 47.123427 
L 388.708794 46.858096 
L 389.614666 46.858096 
L 390.21858 46.327434 
L 390.520537 45.796772 
L 390.822494 46.327434 
L 391.124451 45.796772 
L 391.426409 45.531441 
L 391.728366 45.531441 
L 392.33228 45.00078 
L 392.634237 45.00078 
L 392.936195 45.266111 
L 393.238152 44.735449 
L 393.540109 44.735449 
L 393.842066 44.204787 
L 394.144023 43.939456 
L 394.44598 43.939456 
L 394.747938 43.408794 
L 395.049895 43.674125 
L 395.351852 43.674125 
L 395.955766 43.143463 
L 396.257723 43.674125 
L 396.559681 43.408794 
L 396.861638 42.612801 
L 397.163595 42.878132 
L 397.465552 42.612801 
L 397.767509 43.143463 
L 398.069466 42.612801 
L 398.975338 41.816808 
L 399.277295 41.816808 
L 399.579252 41.551478 
L 400.183167 41.551478 
L 400.485124 41.020816 
L 400.787081 40.755485 
L 401.089038 41.020816 
L 401.390995 40.490154 
L 401.692952 40.755485 
L 401.99491 40.490154 
L 402.296867 40.755485 
L 402.598824 40.224823 
L 402.900781 40.490154 
L 403.202738 39.694161 
L 404.10861 39.694161 
L 404.410567 39.959492 
L 404.712524 39.694161 
L 405.316439 39.694161 
L 405.920353 39.163499 
L 406.22231 38.632837 
L 406.524267 38.898168 
L 406.826224 38.632837 
L 408.034053 38.632837 
L 408.33601 37.836845 
L 408.939925 38.367506 
L 409.241882 38.367506 
L 409.543839 38.102175 
L 409.845796 37.571514 
L 410.751668 37.571514 
L 411.053625 37.306183 
L 411.355582 37.571514 
L 411.657539 37.040852 
L 411.959496 37.306183 
L 413.167325 37.306183 
L 413.469282 37.836845 
L 413.771239 37.040852 
L 414.375154 36.51019 
L 414.677111 36.51019 
L 414.979068 36.775521 
L 415.582982 36.244859 
L 415.88494 35.714197 
L 416.186897 36.244859 
L 416.488854 35.183535 
L 416.790811 35.979528 
L 417.394725 35.979528 
L 417.696683 35.448866 
L 417.99864 35.183535 
L 418.300597 35.183535 
L 418.602554 35.448866 
L 418.904511 35.183535 
L 419.206468 35.183535 
L 419.508426 35.448866 
L 419.810383 35.183535 
L 420.11234 35.448866 
L 420.414297 34.652873 
L 420.716254 35.183535 
L 421.018211 35.183535 
L 421.320169 35.448866 
L 421.622126 34.652873 
L 422.22604 34.652873 
L 422.527997 34.918204 
L 422.829955 34.387542 
L 423.433869 33.856881 
L 423.735826 33.856881 
L 424.037783 33.59155 
L 424.641698 34.122212 
L 425.245612 33.59155 
L 425.547569 33.59155 
L 425.849526 33.856881 
L 426.151483 33.326219 
L 426.453441 33.060888 
L 427.661269 33.060888 
L 427.963226 32.795557 
L 428.265184 31.999564 
L 428.567141 31.999564 
L 428.869098 32.264895 
L 429.171055 32.264895 
L 429.473012 31.999564 
L 429.774969 32.264895 
L 430.076927 32.264895 
L 430.378884 31.999564 
L 430.680841 31.999564 
L 430.982798 32.530226 
L 431.284755 31.999564 
L 431.586712 32.264895 
L 431.88867 31.999564 
L 432.492584 31.999564 
L 432.794541 31.468902 
L 433.398456 32.530226 
L 433.700413 31.734233 
L 434.00237 31.734233 
L 434.304327 32.530226 
L 434.606284 31.999564 
L 434.908241 32.264895 
L 435.210199 31.203571 
L 435.814113 30.142248 
L 436.418027 29.611586 
L 436.719984 29.611586 
L 437.021942 29.876917 
L 437.323899 29.346255 
L 437.625856 29.080924 
L 437.927813 29.346255 
L 438.531727 29.346255 
L 438.833685 28.815593 
L 439.135642 28.815593 
L 439.437599 29.080924 
L 439.739556 28.550262 
L 440.041513 28.550262 
L 440.34347 28.815593 
L 440.645428 28.815593 
L 440.947385 29.611586 
L 441.249342 29.876917 
L 441.551299 30.407579 
L 442.155213 29.080924 
L 442.457171 29.611586 
L 442.759128 29.876917 
L 443.36304 29.346255 
L 443.664997 29.876917 
L 443.966954 29.346255 
L 444.872826 30.142248 
L 445.47674 29.611586 
L 445.778697 29.876917 
L 446.080655 29.346255 
L 446.382612 29.611586 
L 446.684569 29.346255 
L 446.986526 29.876917 
L 447.288483 29.346255 
L 447.59044 29.611586 
L 447.892398 29.346255 
L 448.194355 29.611586 
L 448.496312 29.080924 
L 448.798269 29.611586 
L 449.100226 29.611586 
L 449.402184 29.346255 
L 449.704141 29.346255 
L 450.006098 29.876917 
L 450.610012 29.876917 
L 450.91197 29.346255 
L 451.213927 29.080924 
L 451.515884 29.346255 
L 452.421756 29.346255 
L 452.723713 29.080924 
L 453.02567 29.611586 
L 453.327627 29.346255 
L 453.629584 28.815593 
L 453.931542 28.550262 
L 454.233499 29.080924 
L 454.535456 28.550262 
L 454.837413 29.080924 
L 455.13937 28.815593 
L 455.441327 29.080924 
L 456.045242 29.080924 
L 456.347199 29.346255 
L 456.951113 29.346255 
L 457.253071 29.611586 
L 457.555028 29.080924 
L 457.856985 29.080924 
L 458.158942 28.815593 
L 459.668728 28.815593 
L 459.970685 28.284931 
L 460.272642 28.815593 
L 460.5746 29.080924 
L 460.876557 29.080924 
L 461.178514 29.346255 
L 461.480471 28.815593 
L 461.782428 29.611586 
L 462.084386 29.080924 
L 462.6883 28.550262 
L 463.594172 28.550262 
L 463.896129 29.080924 
L 464.198086 28.815593 
L 464.500043 29.080924 
L 464.802 28.815593 
L 465.103957 29.346255 
L 465.405915 27.754269 
L 465.707872 28.284931 
L 466.009829 28.550262 
L 466.311786 28.284931 
L 467.519615 28.284931 
L 467.821572 28.0196 
L 468.123529 28.284931 
L 468.425487 28.0196 
L 468.727444 28.284931 
L 469.029401 28.284931 
L 469.633315 28.815593 
L 469.935273 28.550262 
L 470.23723 28.550262 
L 470.539187 28.284931 
L 470.841144 28.550262 
L 471.143101 28.0196 
L 471.445058 28.815593 
L 471.747016 27.754269 
L 472.048973 29.080924 
L 472.35093 28.284931 
L 472.652887 28.284931 
L 472.954844 28.0196 
L 473.256802 28.550262 
L 473.558759 28.284931 
L 474.162673 28.815593 
L 474.46463 28.815593 
L 475.068545 28.284931 
L 475.370502 28.550262 
L 475.672459 28.0196 
L 475.974416 28.284931 
L 476.276374 28.0196 
L 476.578331 28.284931 
L 476.880288 28.0196 
L 477.182245 28.550262 
L 477.484202 28.550262 
L 477.786159 28.0196 
L 478.088117 29.080924 
L 478.692031 27.754269 
L 478.993988 28.550262 
L 479.295945 28.0196 
L 479.597903 27.754269 
L 479.89986 28.284931 
L 480.201817 27.754269 
L 480.805731 27.754269 
L 481.107689 27.488938 
L 481.409646 27.488938 
L 482.01356 28.0196 
L 482.315517 27.754269 
L 482.617475 28.0196 
L 482.919432 27.223607 
L 483.221389 28.0196 
L 483.523346 27.754269 
L 483.825303 27.223607 
L 484.12726 26.958276 
L 484.429218 27.488938 
L 484.731175 26.692946 
L 485.335089 27.223607 
L 485.637046 26.958276 
L 485.939004 26.958276 
L 486.240961 26.692946 
L 486.542918 27.223607 
L 486.844875 26.692946 
L 487.146832 27.223607 
L 487.44879 26.958276 
L 488.052704 26.958276 
L 488.354661 27.488938 
L 488.656618 27.488938 
L 488.958575 27.223607 
L 489.260533 27.223607 
L 489.56249 27.754269 
L 489.864447 27.223607 
L 490.166404 28.0196 
L 490.770319 27.488938 
L 491.072276 27.754269 
L 491.374233 27.223607 
L 491.67619 27.754269 
L 491.978147 27.488938 
L 492.280105 28.0196 
L 492.582062 28.0196 
L 492.884019 27.488938 
L 493.487933 28.0196 
L 493.789891 27.754269 
L 494.393805 28.284931 
L 494.695762 28.0196 
L 494.997719 27.488938 
L 495.299676 28.0196 
L 495.601634 28.284931 
L 495.903591 28.0196 
L 496.809462 28.0196 
L 497.413377 28.550262 
L 497.715334 28.284931 
L 498.319248 28.284931 
L 498.621206 28.550262 
L 498.923163 28.284931 
L 499.22512 28.550262 
L 499.527077 28.550262 
L 499.829034 27.754269 
L 500.130992 27.754269 
L 500.734906 28.284931 
L 501.036863 28.284931 
L 501.33882 28.0196 
L 501.640777 28.284931 
L 501.942735 28.815593 
L 502.244692 28.284931 
L 502.546649 28.284931 
L 502.848606 28.815593 
L 503.150563 28.815593 
L 503.452521 29.080924 
L 503.754478 28.284931 
L 504.660349 29.080924 
L 504.962307 28.815593 
L 505.264264 29.080924 
L 505.566221 28.815593 
L 505.868178 29.080924 
L 506.170135 29.611586 
L 506.472093 29.080924 
L 506.77405 29.876917 
L 507.377964 29.876917 
L 507.679921 30.93824 
L 509.189707 30.93824 
L 509.491664 31.203571 
L 509.793622 31.734233 
L 510.095579 31.734233 
L 511.00145 32.530226 
L 511.303408 33.060888 
L 511.605365 33.060888 
L 512.209279 33.59155 
L 512.511236 33.326219 
L 512.813193 34.387542 
L 513.115151 33.856881 
L 513.417108 34.652873 
L 513.719065 34.652873 
L 514.021022 34.918204 
L 514.926894 34.918204 
L 515.228851 35.183535 
L 515.530808 35.183535 
L 515.832765 35.714197 
L 516.134723 35.448866 
L 516.43668 36.51019 
L 516.738637 36.51019 
L 517.040594 36.244859 
L 517.946466 37.040852 
L 518.248423 36.51019 
L 518.55038 37.836845 
L 518.852337 37.040852 
L 519.154294 37.040852 
L 519.758209 38.102175 
L 520.362123 38.632837 
L 520.66408 38.367506 
L 521.267995 38.367506 
L 521.569952 38.632837 
L 522.173866 39.959492 
L 522.475824 40.490154 
L 522.777781 40.224823 
L 523.079738 39.694161 
L 523.381695 39.959492 
L 523.683652 40.490154 
L 523.98561 40.755485 
L 524.891481 40.755485 
L 525.193438 41.551478 
L 526.401267 41.551478 
L 526.703224 42.082139 
L 527.005181 42.082139 
L 527.609096 42.612801 
L 527.911053 42.612801 
L 528.21301 42.878132 
L 528.514967 43.408794 
L 528.816925 43.143463 
L 529.420839 43.143463 
L 530.024753 43.674125 
L 530.628668 43.674125 
L 530.930625 43.939456 
L 531.534539 43.939456 
L 531.836496 43.408794 
L 532.138454 43.674125 
L 532.440411 43.674125 
L 532.742368 43.408794 
L 533.044325 42.878132 
L 533.64824 42.878132 
L 533.950197 43.143463 
L 534.554111 42.612801 
L 534.856068 41.816808 
L 535.158026 42.082139 
L 535.459983 41.816808 
L 535.76194 41.816808 
L 536.063897 41.551478 
L 536.365854 41.551478 
L 536.667812 41.286147 
L 536.969769 41.816808 
L 537.87564 41.816808 
L 538.177597 42.082139 
L 538.479555 41.286147 
L 538.781512 41.551478 
L 539.083469 41.020816 
L 539.385426 41.020816 
L 539.687383 41.286147 
L 539.989341 41.286147 
L 540.593255 40.755485 
L 540.895212 41.020816 
L 541.197169 40.755485 
L 541.499126 41.286147 
L 541.801084 40.224823 
L 542.103041 39.694161 
L 542.706955 40.224823 
L 543.008912 39.694161 
L 543.31087 39.42883 
L 543.914784 39.42883 
L 544.216741 39.694161 
L 544.518698 39.42883 
L 544.820656 39.959492 
L 545.122613 39.42883 
L 546.632399 39.42883 
L 546.934356 38.898168 
L 547.236313 38.898168 
L 547.53827 39.42883 
L 547.840228 39.42883 
L 548.142185 38.632837 
L 548.746099 38.632837 
L 549.048056 38.367506 
L 549.651971 38.367506 
L 549.953928 38.102175 
L 550.859799 38.102175 
L 551.161757 37.571514 
L 551.463714 37.836845 
L 552.067628 37.306183 
L 552.9735 37.306183 
L 553.275457 37.040852 
L 553.577414 37.040852 
L 553.879371 37.306183 
L 554.181328 37.040852 
L 554.785243 37.040852 
L 555.0872 37.306183 
L 555.389157 36.775521 
L 555.691114 37.040852 
L 555.993072 36.775521 
L 556.898943 36.775521 
L 557.2009 36.51019 
L 557.502858 36.51019 
L 557.804815 35.979528 
L 558.106772 36.51019 
L 558.408729 36.775521 
L 558.710686 36.244859 
L 559.012643 36.51019 
L 559.616558 36.51019 
L 559.918515 35.979528 
L 560.220472 35.979528 
L 560.52243 36.244859 
L 560.824387 35.979528 
L 561.428301 35.979528 
L 561.730258 35.714197 
L 562.032215 36.244859 
L 562.334173 35.448866 
L 562.63613 35.714197 
L 563.240044 35.714197 
L 563.843959 35.183535 
L 564.145916 35.714197 
L 564.447873 35.979528 
L 565.051787 35.979528 
L 565.353745 35.448866 
L 565.655702 36.244859 
L 565.957659 35.448866 
L 566.259616 35.448866 
L 566.561573 34.918204 
L 566.86353 35.183535 
L 567.165488 35.714197 
L 567.467445 34.918204 
L 567.769402 35.448866 
L 568.071359 34.918204 
L 568.373316 35.183535 
L 568.675274 34.918204 
L 568.977231 34.918204 
L 569.581145 35.448866 
L 570.18506 34.122212 
L 570.487017 34.918204 
L 570.788974 34.652873 
L 571.090931 34.652873 
L 571.392888 33.856881 
L 571.694845 34.122212 
L 571.996803 34.122212 
L 572.29876 33.59155 
L 572.600717 34.122212 
L 572.902674 34.387542 
L 573.506589 33.326219 
L 573.808546 34.387542 
L 574.110503 34.122212 
L 574.714417 34.122212 
L 575.016375 34.652873 
L 575.318332 34.918204 
L 575.620289 35.448866 
L 575.922246 35.714197 
L 576.224203 36.244859 
L 576.526161 36.244859 
L 577.130075 37.306183 
L 577.432032 37.571514 
L 578.035947 38.632837 
L 578.337904 39.42883 
L 578.639861 39.42883 
L 578.941818 40.224823 
L 579.243772 40.224823 
L 579.545729 41.286147 
L 579.847686 41.020816 
L 580.4516 42.082139 
L 580.753558 42.34747 
L 581.055515 42.082139 
L 581.357472 42.612801 
L 581.961386 43.143463 
L 582.263343 43.143463 
L 582.867258 43.674125 
L 583.169215 44.470118 
L 583.471172 44.470118 
L 583.773129 44.735449 
L 584.075086 45.531441 
L 584.377044 45.531441 
L 584.679001 46.327434 
L 584.980958 46.592765 
L 585.584872 46.592765 
L 585.88683 46.062103 
L 586.188787 46.858096 
L 586.792701 46.858096 
L 587.094658 47.654089 
L 587.396615 47.123427 
L 587.698573 47.654089 
L 588.00053 47.91942 
L 588.302487 48.450082 
L 588.604444 48.715413 
L 588.906401 48.715413 
L 589.208358 48.980744 
L 589.510316 48.980744 
L 589.812273 49.511405 
L 590.11423 48.980744 
L 590.416187 50.042067 
L 590.718144 50.042067 
L 591.322059 51.103391 
L 591.624016 50.572729 
L 591.925973 51.103391 
L 592.529887 51.103391 
L 592.831844 50.83806 
L 593.133802 51.103391 
L 593.737716 51.103391 
L 594.643587 51.899384 
L 594.945545 52.430046 
L 595.247502 53.226038 
L 595.851416 53.226038 
L 596.153373 53.7567 
L 596.455331 53.491369 
L 596.757288 53.7567 
L 597.059245 53.491369 
L 597.361202 53.491369 
L 597.663159 54.022031 
L 598.267074 54.552693 
L 598.569031 54.552693 
L 598.870988 55.083355 
L 599.172945 55.083355 
L 599.474902 54.552693 
L 599.776859 55.348686 
L 600.380774 55.348686 
L 600.682731 55.614017 
L 600.984688 55.614017 
L 601.286645 55.348686 
L 601.89056 56.41001 
L 602.192517 55.879348 
L 602.494474 56.675341 
L 602.796431 56.940671 
L 603.098388 57.471333 
L 603.400345 57.471333 
L 603.702303 57.736664 
L 604.00426 57.736664 
L 604.608174 58.267326 
L 604.910131 58.267326 
L 605.212089 58.532657 
L 605.514046 58.532657 
L 606.419917 59.32865 
L 606.721874 59.859312 
L 607.023832 59.32865 
L 607.325789 60.389974 
L 607.627746 60.124643 
L 607.929703 60.124643 
L 608.23166 60.655304 
L 608.533617 60.389974 
L 608.835575 60.389974 
L 609.137532 60.920635 
L 609.439489 60.655304 
L 609.741446 60.655304 
L 610.043403 61.185966 
L 610.34536 60.920635 
L 610.647318 61.185966 
L 610.949275 61.185966 
L 611.251232 61.451297 
L 611.553189 62.24729 
L 611.855146 61.981959 
L 612.157103 61.981959 
L 612.459061 61.716628 
L 612.761018 61.981959 
L 613.062975 61.716628 
L 613.364932 61.716628 
L 613.666889 62.24729 
L 613.968846 61.981959 
L 614.874718 61.981959 
L 615.478632 62.512621 
L 615.78059 63.043283 
L 616.082547 63.308614 
L 616.686461 62.777952 
L 616.988418 63.573945 
L 617.592333 63.043283 
L 617.89429 63.573945 
L 618.498204 63.573945 
L 619.102118 63.043283 
L 619.706033 63.043283 
L 620.00799 62.777952 
L 620.611904 61.716628 
L 620.913861 61.716628 
L 621.215819 61.185966 
L 621.517776 61.185966 
L 621.819733 60.655304 
L 622.12169 60.655304 
L 623.027562 59.859312 
L 623.329519 60.124643 
L 623.933433 59.593981 
L 624.23539 59.859312 
L 624.537347 59.063319 
L 624.839305 59.063319 
L 625.141262 58.797988 
L 625.443219 59.063319 
L 626.349091 58.267326 
L 626.651048 58.267326 
L 627.254962 57.206002 
L 627.556919 58.001995 
L 628.160834 56.940671 
L 628.462791 56.940671 
L 628.764748 56.675341 
L 629.066705 56.144679 
L 629.368662 56.144679 
L 629.670619 55.348686 
L 630.274534 55.348686 
L 631.180405 54.552693 
L 631.482362 53.7567 
L 631.78432 53.7567 
L 632.086277 53.226038 
L 632.690191 53.226038 
L 633.294105 52.164715 
L 633.596063 52.430046 
L 633.89802 51.899384 
L 634.199977 51.634053 
L 634.501934 50.572729 
L 635.105849 50.572729 
L 635.407806 50.042067 
L 635.709763 50.307398 
L 636.01172 50.307398 
L 636.313677 50.042067 
L 636.615634 50.042067 
L 637.219549 49.511405 
L 637.521506 49.776736 
L 637.823463 49.246075 
L 638.12542 49.511405 
L 638.427377 49.511405 
L 638.729335 49.776736 
L 639.031292 49.246075 
L 639.635206 48.715413 
L 639.937163 48.715413 
L 640.23912 48.980744 
L 640.541078 48.980744 
L 640.843035 48.450082 
L 641.144992 48.184751 
L 641.446949 48.184751 
L 641.748906 47.91942 
L 642.050863 48.184751 
L 642.352821 47.91942 
L 642.654778 47.388758 
L 642.956735 47.91942 
L 643.258692 46.858096 
L 643.560649 47.654089 
L 643.862606 46.858096 
L 644.164564 47.123427 
L 644.466521 46.592765 
L 644.768478 46.592765 
L 645.070435 46.327434 
L 645.372392 46.327434 
L 645.67435 46.592765 
L 645.976307 46.327434 
L 646.278264 45.531441 
L 646.580221 45.796772 
L 647.184135 45.796772 
L 647.486093 45.531441 
L 647.78805 45.531441 
L 648.693921 44.735449 
L 649.297836 45.266111 
L 649.599793 45.00078 
L 649.90175 45.266111 
L 650.203707 44.735449 
L 650.807621 44.204787 
L 651.109579 44.204787 
L 651.411536 43.939456 
L 651.713493 44.204787 
L 652.01545 43.939456 
L 652.619364 43.939456 
L 652.921322 43.674125 
L 653.223279 44.204787 
L 653.525236 43.674125 
L 653.827193 43.674125 
L 654.12915 43.408794 
L 654.733065 43.408794 
L 655.035022 43.143463 
L 655.336979 43.408794 
L 655.940893 42.34747 
L 656.242851 42.612801 
L 656.846765 42.612801 
L 657.148722 42.34747 
L 657.450679 42.34747 
L 657.752636 42.082139 
L 658.054594 42.34747 
L 658.356551 42.34747 
L 658.960465 41.816808 
L 659.262422 42.34747 
L 660.168294 41.551478 
L 660.470251 41.551478 
L 660.772208 41.816808 
L 661.074165 41.551478 
L 661.376122 41.551478 
L 661.67808 41.286147 
L 662.281994 41.286147 
L 662.583951 41.551478 
L 662.885908 40.755485 
L 663.187865 41.020816 
L 663.489823 41.020816 
L 663.79178 40.490154 
L 664.093737 41.020816 
L 665.301566 39.959492 
L 665.603523 40.224823 
L 665.90548 39.959492 
L 666.207437 39.959492 
L 666.509394 39.42883 
L 666.811352 39.694161 
L 667.113309 38.898168 
L 667.415266 39.42883 
L 667.717223 39.42883 
L 668.01918 39.163499 
L 668.321137 38.632837 
L 668.925052 38.632837 
L 669.227009 38.898168 
L 669.528966 38.898168 
L 669.830923 38.632837 
L 670.13288 39.163499 
L 670.434838 39.163499 
L 670.736795 39.42883 
L 671.340709 38.898168 
L 671.642666 39.163499 
L 671.944623 39.163499 
L 672.246581 38.632837 
L 672.548538 39.163499 
L 672.850495 39.42883 
L 673.152452 38.367506 
L 673.454409 38.102175 
L 673.756366 38.632837 
L 674.360281 38.102175 
L 674.662238 38.898168 
L 674.964195 38.367506 
L 675.266152 38.367506 
L 675.56811 37.571514 
L 676.172024 38.102175 
L 676.473981 37.571514 
L 676.775938 37.306183 
L 677.077895 36.775521 
L 677.379853 37.306183 
L 677.983767 36.244859 
L 678.285724 36.244859 
L 678.587681 35.979528 
L 678.889638 35.979528 
L 679.191596 35.714197 
L 679.493553 35.979528 
L 679.79551 35.183535 
L 680.097467 35.979528 
L 680.399424 35.979528 
L 680.701381 35.714197 
L 681.003339 35.979528 
L 681.305296 35.979528 
L 681.90921 36.51019 
L 682.211167 36.51019 
L 682.513124 36.775521 
L 683.117039 36.244859 
L 683.418996 36.244859 
L 683.720953 37.040852 
L 684.02291 36.244859 
L 684.324868 36.51019 
L 685.230739 36.51019 
L 685.532696 36.775521 
L 685.834653 36.51019 
L 686.438568 36.51019 
L 686.740525 36.775521 
L 687.042482 36.51019 
L 687.344439 37.040852 
L 687.646396 36.775521 
L 687.948354 37.040852 
L 688.250311 36.775521 
L 688.552268 37.306183 
L 688.854225 36.244859 
L 689.156182 36.51019 
L 689.458139 35.714197 
L 690.062054 35.714197 
L 690.364011 35.448866 
L 690.665968 35.979528 
L 690.967925 35.714197 
L 691.269882 35.183535 
L 691.57184 35.714197 
L 691.873797 35.979528 
L 692.175754 35.448866 
L 692.779668 35.448866 
L 693.081625 34.918204 
L 693.383583 35.714197 
L 693.68554 35.714197 
L 693.987497 35.448866 
L 694.289454 35.714197 
L 694.591411 35.714197 
L 694.893369 35.979528 
L 695.195326 36.51019 
L 695.497283 35.979528 
L 695.79924 36.51019 
L 696.101197 36.244859 
L 696.403154 36.244859 
L 697.007069 36.775521 
L 697.309026 36.775521 
L 697.610983 36.244859 
L 697.91294 36.51019 
L 698.214897 36.244859 
L 698.516855 35.448866 
L 698.818812 36.244859 
L 699.120769 36.244859 
L 699.422726 35.979528 
L 700.02664 35.979528 
L 700.328598 36.51019 
L 700.932512 35.979528 
L 701.536426 36.51019 
L 701.838383 35.979528 
L 702.140341 36.51019 
L 702.442298 36.51019 
L 702.744255 36.244859 
L 703.348169 36.775521 
L 704.555998 36.775521 
L 704.857955 36.244859 
L 705.159912 36.51019 
L 705.46187 36.51019 
L 705.763827 36.775521 
L 706.065784 36.244859 
L 706.367741 36.244859 
L 706.669698 36.51019 
L 707.273613 36.51019 
L 707.57557 36.244859 
L 707.877527 36.244859 
L 708.179484 37.040852 
L 708.481441 36.51019 
L 708.783398 36.51019 
L 709.085356 35.979528 
L 709.68927 36.51019 
L 709.991227 36.244859 
L 710.293184 36.51019 
L 710.595141 36.51019 
L 710.897099 35.979528 
L 711.501013 36.51019 
L 712.104927 35.979528 
L 712.406884 35.979528 
L 712.708842 36.244859 
L 713.312756 35.714197 
L 713.614713 36.244859 
L 713.91667 35.714197 
L 714.520585 35.714197 
L 714.822542 35.979528 
L 715.124494 35.714197 
L 715.426452 35.714197 
L 715.728409 35.448866 
L 716.030366 35.979528 
L 716.63428 34.918204 
L 717.238195 35.448866 
L 717.540152 35.448866 
L 717.842109 35.714197 
L 718.446023 35.183535 
L 718.74798 35.714197 
L 719.049938 35.448866 
L 719.351895 35.714197 
L 719.653852 35.448866 
L 719.955809 36.51019 
L 720.257766 35.979528 
L 720.559724 35.183535 
L 720.861681 35.714197 
L 721.163638 35.714197 
L 721.465595 35.448866 
L 721.767552 35.448866 
L 722.069509 35.714197 
L 722.371467 35.714197 
L 722.673424 35.448866 
L 723.277338 35.979528 
L 723.579295 35.448866 
L 723.881252 36.244859 
L 724.18321 35.714197 
L 724.485167 35.979528 
L 724.787124 35.979528 
L 725.089081 35.714197 
L 725.391038 35.714197 
L 725.692995 35.979528 
L 725.994953 35.979528 
L 726.29691 35.183535 
L 726.900824 35.183535 
L 727.202781 35.714197 
L 727.504738 34.918204 
L 727.806696 35.183535 
L 728.108653 35.183535 
L 728.41061 34.918204 
L 728.712567 34.122212 
L 729.014524 34.652873 
L 729.618439 34.652873 
L 729.920396 34.918204 
L 730.222353 34.918204 
L 730.52431 35.448866 
L 730.826267 35.183535 
L 731.430182 35.714197 
L 731.732139 35.448866 
L 732.034096 34.918204 
L 732.336053 35.183535 
L 732.63801 34.652873 
L 732.939968 35.183535 
L 733.241925 35.183535 
L 733.543882 34.652873 
L 733.845839 35.183535 
L 734.147796 34.918204 
L 734.449753 34.918204 
L 734.751711 34.652873 
L 735.053668 34.918204 
L 735.355625 34.387542 
L 735.959539 34.918204 
L 736.261496 34.387542 
L 736.865411 34.387542 
L 737.167368 34.122212 
L 737.469325 34.122212 
L 737.771282 34.387542 
L 738.073239 33.856881 
L 738.375197 34.387542 
L 738.677154 34.387542 
L 738.979111 34.918204 
L 739.281068 34.652873 
L 739.583025 35.183535 
L 739.884983 34.387542 
L 740.18694 34.652873 
L 740.488897 34.387542 
L 740.790854 35.183535 
L 741.092811 34.122212 
L 741.394768 34.918204 
L 741.696726 35.183535 
L 741.998683 34.652873 
L 742.30064 34.387542 
L 742.602597 34.387542 
L 742.904554 34.652873 
L 743.206511 34.122212 
L 743.508469 34.122212 
L 743.810426 34.652873 
L 744.41434 34.122212 
L 745.018254 34.652873 
L 745.320212 34.122212 
L 745.622169 34.387542 
L 745.924126 33.856881 
L 746.226083 33.856881 
L 746.52804 34.122212 
L 746.829997 34.122212 
L 747.131955 34.387542 
L 747.433912 34.387542 
L 747.735869 34.652873 
L 748.037826 34.122212 
L 748.339783 34.652873 
L 748.64174 34.387542 
L 749.245655 34.918204 
L 749.547612 34.652873 
L 750.453484 34.652873 
L 750.755441 35.183535 
L 751.057398 34.918204 
L 751.359355 35.183535 
L 751.661312 35.714197 
L 751.963269 35.448866 
L 752.265227 35.714197 
L 752.567184 35.714197 
L 752.869141 36.244859 
L 753.171098 36.244859 
L 753.473055 35.714197 
L 753.775012 36.244859 
L 754.07697 35.979528 
L 754.378927 35.979528 
L 754.680884 36.244859 
L 754.982841 36.244859 
L 755.284798 35.979528 
L 755.586755 36.244859 
L 755.888713 35.714197 
L 756.19067 35.979528 
L 756.794584 35.979528 
L 757.398498 36.51019 
L 758.002413 35.979528 
L 758.30437 36.244859 
L 758.606327 35.714197 
L 759.210241 36.775521 
L 759.512199 36.51019 
L 759.814156 37.306183 
L 760.116113 36.775521 
L 760.41807 37.306183 
L 760.720027 37.306183 
L 761.323942 37.836845 
L 761.625899 37.836845 
L 761.927856 38.632837 
L 762.229813 38.898168 
L 762.833728 38.898168 
L 763.135685 39.959492 
L 763.437642 39.42883 
L 764.041556 39.42883 
L 764.343513 39.959492 
L 764.947428 40.490154 
L 765.249385 40.490154 
L 765.551342 41.020816 
L 766.155256 41.020816 
L 766.457214 41.551478 
L 767.061128 42.082139 
L 767.363085 42.082139 
L 767.665042 42.878132 
L 767.966999 43.143463 
L 768.268957 42.878132 
L 768.570914 43.939456 
L 768.872871 43.939456 
L 769.174828 44.470118 
L 769.476785 44.470118 
L 770.0807 45.00078 
L 770.382657 45.531441 
L 770.684614 45.266111 
L 770.986571 45.531441 
L 771.288528 45.266111 
L 771.590486 45.531441 
L 771.892443 45.531441 
L 772.1944 45.796772 
L 772.496357 44.735449 
L 772.798314 44.204787 
L 773.100271 45.266111 
L 773.402229 45.796772 
L 773.704186 45.796772 
L 774.006143 45.531441 
L 774.3081 46.327434 
L 774.610057 46.592765 
L 775.213972 46.592765 
L 776.4218 47.654089 
L 777.025715 47.654089 
L 777.327672 48.450082 
L 777.629629 48.184751 
L 777.931586 47.654089 
L 778.233543 48.184751 
L 778.5355 47.91942 
L 778.837458 48.184751 
L 779.139415 47.91942 
L 779.441372 48.184751 
L 780.045286 49.511405 
L 780.649201 50.042067 
L 780.951158 51.103391 
L 781.253115 51.103391 
L 781.555072 51.634053 
L 781.857029 51.368722 
L 782.158987 51.634053 
L 782.460944 51.103391 
L 782.762901 50.83806 
L 783.366815 51.899384 
L 783.668772 51.368722 
L 783.97073 51.899384 
L 784.272687 51.899384 
L 784.574644 52.430046 
L 784.876601 51.899384 
L 785.178558 52.430046 
L 785.480515 51.899384 
L 786.08443 51.899384 
L 786.386387 51.634053 
L 786.688344 50.83806 
L 786.990301 51.368722 
L 787.292258 51.103391 
L 787.594216 51.368722 
L 787.896173 51.103391 
L 788.19813 51.103391 
L 788.500087 51.368722 
L 788.802044 49.776736 
L 789.104001 50.042067 
L 789.405959 50.572729 
L 789.707916 49.776736 
L 790.009873 49.776736 
L 790.31183 49.511405 
L 790.915745 49.511405 
L 791.217702 49.776736 
L 791.821616 49.246075 
L 792.123573 49.776736 
L 792.42553 48.980744 
L 792.727488 49.511405 
L 793.331402 48.980744 
L 793.633359 49.246075 
L 793.935316 48.980744 
L 794.237273 47.654089 
L 794.841188 48.184751 
L 795.445102 48.184751 
L 795.747059 47.91942 
L 796.049016 47.91942 
L 796.350974 48.184751 
L 796.652931 48.184751 
L 796.954888 47.654089 
L 797.256845 47.654089 
L 797.558802 48.184751 
L 797.860759 48.450082 
L 798.162717 48.184751 
L 799.068588 48.184751 
L 799.370545 48.980744 
L 799.672503 48.184751 
L 800.276417 48.184751 
L 800.578374 47.91942 
L 800.880331 47.388758 
L 801.182288 47.123427 
L 801.484246 47.388758 
L 801.786203 46.858096 
L 802.08816 47.388758 
L 802.390117 47.123427 
L 802.692074 47.123427 
L 802.994031 46.858096 
L 803.295989 47.388758 
L 803.597946 46.858096 
L 803.899903 46.062103 
L 804.20186 46.592765 
L 804.503817 46.858096 
L 804.805774 46.858096 
L 805.107732 46.327434 
L 805.409689 46.062103 
L 805.711646 46.327434 
L 806.617517 46.327434 
L 806.919475 45.796772 
L 807.221432 45.796772 
L 807.523389 46.327434 
L 807.825346 46.062103 
L 808.127303 45.531441 
L 808.42926 45.796772 
L 808.731218 45.531441 
L 809.033175 45.796772 
L 809.637089 45.796772 
L 809.939046 45.266111 
L 810.241004 45.796772 
L 810.542961 45.796772 
L 810.844918 45.266111 
L 811.146875 45.531441 
L 811.448832 45.00078 
L 811.750789 46.062103 
L 812.052747 44.735449 
L 812.354704 45.266111 
L 812.656661 44.735449 
L 813.86449 44.735449 
L 814.166447 45.00078 
L 814.468404 44.735449 
L 814.770361 44.204787 
L 815.072318 43.939456 
L 815.374275 44.735449 
L 815.676233 44.204787 
L 815.97819 44.470118 
L 816.280147 43.939456 
L 816.582104 43.939456 
L 817.186018 43.408794 
L 817.487976 43.939456 
L 817.789933 43.408794 
L 818.09189 43.939456 
L 818.695804 43.408794 
L 818.997761 43.674125 
L 819.299719 43.408794 
L 819.903633 43.408794 
L 820.20559 43.674125 
L 820.507547 43.143463 
L 820.809505 43.143463 
L 821.111462 43.408794 
L 821.413419 43.143463 
L 821.715376 43.408794 
L 822.31929 43.408794 
L 822.621248 43.143463 
L 822.923205 44.204787 
L 823.225162 42.878132 
L 823.527119 42.878132 
L 823.829076 42.612801 
L 824.432991 43.143463 
L 824.734948 42.878132 
L 825.036905 42.878132 
L 825.640819 43.408794 
L 826.244734 42.878132 
L 826.546691 43.408794 
L 826.848648 43.674125 
L 827.150605 43.408794 
L 827.452562 42.878132 
L 827.754519 43.408794 
L 828.358434 43.408794 
L 828.962348 43.939456 
L 829.264305 44.735449 
L 829.566263 44.735449 
L 829.86822 45.00078 
L 830.170177 45.531441 
L 830.472134 45.531441 
L 830.774091 45.796772 
L 831.076048 46.327434 
L 831.378006 46.327434 
L 831.679963 46.858096 
L 832.283877 47.388758 
L 832.887791 48.450082 
L 833.189749 48.450082 
L 833.491706 48.980744 
L 833.793663 48.980744 
L 834.09562 49.511405 
L 834.397577 49.511405 
L 834.699534 50.042067 
L 835.001492 49.776736 
L 835.303449 49.776736 
L 835.605406 50.572729 
L 836.20932 50.572729 
L 836.511277 51.368722 
L 836.813235 51.634053 
L 837.115192 51.634053 
L 837.417149 51.899384 
L 837.719106 52.695377 
L 838.021063 52.695377 
L 838.32302 52.960708 
L 838.624978 53.491369 
L 838.926935 53.7567 
L 839.228892 53.491369 
L 839.530849 53.491369 
L 839.832806 54.552693 
L 840.134764 54.818024 
L 840.738678 54.818024 
L 841.040635 55.083355 
L 841.342592 56.144679 
L 841.644549 55.879348 
L 841.946507 56.41001 
L 842.248464 56.41001 
L 842.550421 57.471333 
L 842.852378 56.675341 
L 843.154335 57.206002 
L 843.456292 56.940671 
L 843.75825 57.736664 
L 844.060207 57.206002 
L 844.362164 57.206002 
L 844.664121 57.471333 
L 844.966078 58.001995 
L 845.569993 58.532657 
L 846.777821 57.471333 
L 847.079778 57.736664 
L 847.381736 57.471333 
L 847.683693 58.001995 
L 847.98565 58.267326 
L 848.287607 58.267326 
L 848.589564 58.001995 
L 848.891522 58.267326 
L 849.193479 58.267326 
L 849.495436 58.532657 
L 849.797393 58.532657 
L 850.09935 58.267326 
L 850.401307 58.797988 
L 850.703265 58.797988 
L 851.005222 59.063319 
L 851.609136 60.124643 
L 852.21305 60.124643 
L 852.816965 59.593981 
L 853.118922 59.859312 
L 853.420879 59.859312 
L 854.024793 60.920635 
L 854.326751 60.920635 
L 854.628708 61.185966 
L 854.930665 61.185966 
L 855.232622 62.24729 
L 855.836536 63.308614 
L 856.138494 63.573945 
L 856.440451 63.573945 
L 857.044365 64.900599 
L 857.346322 64.635268 
L 857.648279 65.16593 
L 857.950237 64.635268 
L 858.252194 65.431261 
L 858.856108 65.961923 
L 859.158065 66.492585 
L 859.460023 66.757916 
L 859.76198 66.492585 
L 860.063937 66.757916 
L 860.365894 66.492585 
L 860.667851 66.757916 
L 860.969808 66.757916 
L 861.573723 67.288578 
L 861.87568 67.81924 
L 862.177637 65.431261 
L 862.479594 66.227254 
L 862.781551 66.492585 
L 863.083509 67.553909 
L 863.385466 67.023247 
L 863.98938 68.615232 
L 864.291337 68.349901 
L 864.593294 69.676556 
L 864.895252 69.676556 
L 865.499166 70.207218 
L 865.801123 70.207218 
L 866.10308 70.472549 
L 866.405037 71.003211 
L 866.706995 70.472549 
L 867.008952 70.73788 
L 867.310909 71.533873 
L 867.914823 71.533873 
L 868.518738 73.391189 
L 868.820695 73.391189 
L 869.122652 73.921851 
L 869.424609 73.65652 
L 869.726566 73.125858 
L 870.632438 73.921851 
L 870.934395 73.65652 
L 871.236352 74.187182 
L 871.538309 73.921851 
L 872.142224 73.921851 
L 872.444181 74.187182 
L 872.746138 73.921851 
L 873.048095 74.187182 
L 873.350052 73.391189 
L 873.65201 73.65652 
L 874.557881 72.860527 
L 874.859838 72.860527 
L 875.161795 73.125858 
L 875.463753 72.860527 
L 875.76571 72.860527 
L 876.067667 71.799203 
L 876.369624 71.799203 
L 876.671581 72.064534 
L 877.275496 71.003211 
L 877.87941 71.003211 
L 878.181367 70.472549 
L 878.483324 70.73788 
L 878.785282 70.73788 
L 879.389196 69.411225 
L 879.99311 68.880563 
L 880.295067 68.349901 
L 880.597025 68.08457 
L 880.898982 67.553909 
L 881.200939 68.08457 
L 881.502896 68.349901 
L 881.804853 68.08457 
L 882.10681 68.349901 
L 882.408768 68.08457 
L 882.710725 68.349901 
L 883.314639 67.81924 
L 883.616596 65.961923 
L 883.918553 65.431261 
L 884.220511 65.696592 
L 884.522468 65.696592 
L 884.824425 65.431261 
L 885.126382 64.900599 
L 885.428339 65.16593 
L 885.730296 65.16593 
L 886.032254 64.369937 
L 886.334211 64.104607 
L 886.636168 64.369937 
L 886.938125 64.104607 
L 887.240082 63.308614 
L 887.542039 63.839276 
L 887.843997 63.308614 
L 888.145954 63.308614 
L 888.447911 63.043283 
L 888.749868 63.573945 
L 889.051825 63.573945 
L 889.65574 63.043283 
L 889.957697 62.24729 
L 890.259654 62.24729 
L 890.561611 62.512621 
L 890.863568 61.981959 
L 891.467483 61.451297 
L 891.76944 61.451297 
L 892.373354 60.920635 
L 892.675311 60.920635 
L 893.581183 60.124643 
L 894.185097 60.124643 
L 894.789012 59.593981 
L 895.090969 59.063319 
L 895.694883 59.593981 
L 895.99684 59.063319 
L 896.298797 59.063319 
L 896.600755 58.532657 
L 896.902712 58.267326 
L 897.204669 57.736664 
L 897.506626 58.001995 
L 897.808583 58.001995 
L 898.11054 57.471333 
L 898.412498 57.206002 
L 899.016412 57.736664 
L 899.318369 57.206002 
L 899.922284 57.206002 
L 900.224241 56.675341 
L 900.828155 56.675341 
L 901.130112 55.879348 
L 901.432069 55.614017 
L 901.734027 56.144679 
L 902.035984 55.614017 
L 902.639898 56.144679 
L 902.941855 56.144679 
L 903.54577 55.614017 
L 903.847727 55.083355 
L 904.149684 55.614017 
L 904.451641 55.348686 
L 904.753598 55.614017 
L 905.055555 55.083355 
L 905.357513 55.083355 
L 905.65947 55.348686 
L 906.263384 54.818024 
L 906.565341 55.083355 
L 906.867298 54.552693 
L 907.169256 54.287362 
L 907.471213 53.491369 
L 907.77317 54.022031 
L 908.075127 54.287362 
L 908.679042 54.287362 
L 908.980999 54.552693 
L 909.584913 53.491369 
L 909.88687 53.491369 
L 910.188827 52.430046 
L 910.490785 51.899384 
L 911.094699 51.899384 
L 911.396656 51.634053 
L 911.698613 52.430046 
L 912.00057 51.899384 
L 912.302528 51.899384 
L 912.604485 52.164715 
L 912.906442 51.899384 
L 913.208399 51.899384 
L 913.510356 52.164715 
L 913.812313 51.899384 
L 914.114271 51.368722 
L 914.416228 51.634053 
L 914.718185 50.83806 
L 915.020142 51.368722 
L 915.322099 50.83806 
L 915.926014 51.368722 
L 916.227971 51.103391 
L 916.529928 51.103391 
L 916.831885 51.634053 
L 917.133842 51.368722 
L 917.737757 51.368722 
L 917.737757 51.368722 
" clip-path="url(#p669d7fd636)" style="fill: none; stroke: #ea580c; stroke-opacity: 0.95; stroke-width: 1.3; stroke-linecap: square"/>
   </g>
   <g id="patch_20">
    <path d="M 39.330625 228.954713 
L 39.330625 17.061433 
" style="fill: none; stroke: #cbd5e1; stroke-width: 0.8; stroke-linejoin: miter; stroke-linecap: square"/>
   </g>
   <g id="patch_21">
    <path d="M 935.305625 228.954713 
L 935.305625 17.061433 
" style="fill: none; stroke: #cbd5e1; stroke-width: 0.8; stroke-linejoin: miter; stroke-linecap: square"/>
   </g>
   <g id="patch_22">
    <path d="M 39.330625 228.954713 
L 935.305625 228.954713 
" style="fill: none; stroke: #cbd5e1; stroke-width: 0.8; stroke-linejoin: miter; stroke-linecap: square"/>
   </g>
   <g id="patch_23">
    <path d="M 39.330625 17.061433 
L 935.305625 17.061433 
" style="fill: none; stroke: #cbd5e1; stroke-width: 0.8; stroke-linejoin: miter; stroke-linecap: square"/>
   </g>
   <g id="text_17">
    <!-- ACC -->
    <g style="fill: #475569" transform="translate(121.665277 13.27875) scale(0.08 -0.08)">
     <defs>
      <path id="DejaVuSans-41" d="M 2188 4044 
L 1331 1722 
L 3047 1722 
L 2188 4044 
z
M 1831 4666 
L 2547 4666 
L 4325 0 
L 3669 0 
L 3244 1197 
L 1141 1197 
L 716 0 
L 50 0 
L 1831 4666 
z
" transform="scale(0.015625)"/>
     </defs>
     <use xlink:href="#DejaVuSans-41"/>
     <use xlink:href="#DejaVuSans-43" transform="translate(66.658203 0)"/>
     <use xlink:href="#DejaVuSans-43" transform="translate(136.482422 0)"/>
    </g>
   </g>
   <g id="text_18">
    <!-- OC -->
    <g style="fill: #475569" transform="translate(228.151126 13.27875) scale(0.08 -0.08)">
     <defs>
      <path id="DejaVuSans-4f" d="M 2522 4238 
Q 1834 4238 1429 3725 
Q 1025 3213 1025 2328 
Q 1025 1447 1429 934 
Q 1834 422 2522 422 
Q 3209 422 3611 934 
Q 4013 1447 4013 2328 
Q 4013 3213 3611 3725 
Q 3209 4238 2522 4238 
z
M 2522 4750 
Q 3503 4750 4090 4092 
Q 4678 3434 4678 2328 
Q 4678 1225 4090 567 
Q 3503 -91 2522 -91 
Q 1538 -91 948 565 
Q 359 1222 359 2328 
Q 359 3434 948 4092 
Q 1538 4750 2522 4750 
z
" transform="scale(0.015625)"/>
     </defs>
     <use xlink:href="#DejaVuSans-4f"/>
     <use xlink:href="#DejaVuSans-43" transform="translate(78.710938 0)"/>
    </g>
   </g>
   <g id="text_19">
    <!-- FCS -->
    <g style="fill: #475569" transform="translate(253.636021 13.27875) scale(0.08 -0.08)">
     <defs>
      <path id="DejaVuSans-46" d="M 628 4666 
L 3309 4666 
L 3309 4134 
L 1259 4134 
L 1259 2759 
L 3109 2759 
L 3109 2228 
L 1259 2228 
L 1259 0 
L 628 0 
L 628 4666 
z
" transform="scale(0.015625)"/>
      <path id="DejaVuSans-53" d="M 3425 4513 
L 3425 3897 
Q 3066 4069 2747 4153 
Q 2428 4238 2131 4238 
Q 1616 4238 1336 4038 
Q 1056 3838 1056 3469 
Q 1056 3159 1242 3001 
Q 1428 2844 1947 2747 
L 2328 2669 
Q 3034 2534 3370 2195 
Q 3706 1856 3706 1288 
Q 3706 609 3251 259 
Q 2797 -91 1919 -91 
Q 1588 -91 1214 -16 
Q 841 59 441 206 
L 441 856 
Q 825 641 1194 531 
Q 1563 422 1919 422 
Q 2459 422 2753 634 
Q 3047 847 3047 1241 
Q 3047 1584 2836 1778 
Q 2625 1972 2144 2069 
L 1759 2144 
Q 1053 2284 737 2584 
Q 422 2884 422 3419 
Q 422 4038 858 4394 
Q 1294 4750 2059 4750 
Q 2388 4750 2728 4690 
Q 3069 4631 3425 4513 
z
" transform="scale(0.015625)"/>
     </defs>
     <use xlink:href="#DejaVuSans-46"/>
     <use xlink:href="#DejaVuSans-43" transform="translate(57.519531 0)"/>
     <use xlink:href="#DejaVuSans-53" transform="translate(127.34375 0)"/>
    </g>
   </g>
   <g id="text_20">
    <!-- SR -->
    <g style="fill: #475569" transform="translate(289.920578 13.27875) scale(0.08 -0.08)">
     <defs>
      <path id="DejaVuSans-52" d="M 2841 2188 
Q 3044 2119 3236 1894 
Q 3428 1669 3622 1275 
L 4263 0 
L 3584 0 
L 2988 1197 
Q 2756 1666 2539 1819 
Q 2322 1972 1947 1972 
L 1259 1972 
L 1259 0 
L 628 0 
L 628 4666 
L 2053 4666 
Q 2853 4666 3247 4331 
Q 3641 3997 3641 3322 
Q 3641 2881 3436 2590 
Q 3231 2300 2841 2188 
z
M 1259 4147 
L 1259 2491 
L 2053 2491 
Q 2509 2491 2742 2702 
Q 2975 2913 2975 3322 
Q 2975 3731 2742 3939 
Q 2509 4147 2053 4147 
L 1259 4147 
z
" transform="scale(0.015625)"/>
     </defs>
     <use xlink:href="#DejaVuSans-53"/>
     <use xlink:href="#DejaVuSans-52" transform="translate(63.476562 0)"/>
    </g>
   </g>
   <g id="text_21">
    <!-- FFC -->
    <g style="fill: #475569" transform="translate(333.138529 13.27875) scale(0.08 -0.08)">
     <use xlink:href="#DejaVuSans-46"/>
     <use xlink:href="#DejaVuSans-46" transform="translate(57.519531 0)"/>
     <use xlink:href="#DejaVuSans-43" transform="translate(115.039062 0)"/>
    </g>
   </g>
   <g id="text_22">
    <!-- SS -->
    <g style="fill: #475569" transform="translate(416.98259 13.27875) scale(0.08 -0.08)">
     <use xlink:href="#DejaVuSans-53"/>
     <use xlink:href="#DejaVuSans-53" transform="translate(63.476562 0)"/>
    </g>
   </g>
   <g id="text_23">
    <!-- OC -->
    <g style="fill: #475569" transform="translate(484.059829 13.27875) scale(0.08 -0.08)">
     <use xlink:href="#DejaVuSans-4f"/>
     <use xlink:href="#DejaVuSans-43" transform="translate(78.710938 0)"/>
    </g>
   </g>
   <g id="text_24">
    <!-- FCS -->
    <g style="fill: #475569" transform="translate(507.280046 13.27875) scale(0.08 -0.08)">
     <use xlink:href="#DejaVuSans-46"/>
     <use xlink:href="#DejaVuSans-43" transform="translate(57.519531 0)"/>
     <use xlink:href="#DejaVuSans-53" transform="translate(127.34375 0)"/>
    </g>
   </g>
   <g id="text_25">
    <!-- SR -->
    <g style="fill: #475569" transform="translate(543.564602 13.27875) scale(0.08 -0.08)">
     <use xlink:href="#DejaVuSans-53"/>
     <use xlink:href="#DejaVuSans-52" transform="translate(63.476562 0)"/>
    </g>
   </g>
   <g id="text_26">
    <!-- FFC -->
    <g style="fill: #475569" transform="translate(586.782553 13.27875) scale(0.08 -0.08)">
     <use xlink:href="#DejaVuSans-46"/>
     <use xlink:href="#DejaVuSans-46" transform="translate(57.519531 0)"/>
     <use xlink:href="#DejaVuSans-43" transform="translate(115.039062 0)"/>
    </g>
   </g>
   <g id="text_27">
    <!-- SS -->
    <g style="fill: #475569" transform="translate(670.626614 13.27875) scale(0.08 -0.08)">
     <use xlink:href="#DejaVuSans-53"/>
     <use xlink:href="#DejaVuSans-53" transform="translate(63.476562 0)"/>
    </g>
   </g>
   <g id="text_28">
    <!-- OC -->
    <g style="fill: #475569" transform="translate(737.703853 13.27875) scale(0.08 -0.08)">
     <use xlink:href="#DejaVuSans-4f"/>
     <use xlink:href="#DejaVuSans-43" transform="translate(78.710938 0)"/>
    </g>
   </g>
   <g id="text_29">
    <!-- FCS -->
    <g style="fill: #475569" transform="translate(760.92407 13.27875) scale(0.08 -0.08)">
     <use xlink:href="#DejaVuSans-46"/>
     <use xlink:href="#DejaVuSans-43" transform="translate(57.519531 0)"/>
     <use xlink:href="#DejaVuSans-53" transform="translate(127.34375 0)"/>
    </g>
   </g>
   <g id="text_30">
    <!-- SR -->
    <g style="fill: #475569" transform="translate(797.208627 13.27875) scale(0.08 -0.08)">
     <use xlink:href="#DejaVuSans-53"/>
     <use xlink:href="#DejaVuSans-52" transform="translate(63.476562 0)"/>
    </g>
   </g>
   <g id="text_31">
    <!-- FFC -->
    <g style="fill: #475569" transform="translate(840.426577 13.27875) scale(0.08 -0.08)">
     <use xlink:href="#DejaVuSans-46"/>
     <use xlink:href="#DejaVuSans-46" transform="translate(57.519531 0)"/>
     <use xlink:href="#DejaVuSans-43" transform="translate(115.039062 0)"/>
    </g>
   </g>
   <g id="text_32">
    <!-- SS -->
    <g style="fill: #475569" transform="translate(888.035778 13.27875) scale(0.08 -0.08)">
     <use xlink:href="#DejaVuSans-53"/>
     <use xlink:href="#DejaVuSans-53" transform="translate(63.476562 0)"/>
    </g>
   </g>
   <g id="legend_1">
    <g id="line2d_30">
     <path d="M 815.393125 27.540183 
L 823.393125 27.540183 
L 831.393125 27.540183 
" style="fill: none; stroke: #ea580c; stroke-opacity: 0.95; stroke-width: 1.3; stroke-linecap: square"/>
    </g>
    <g id="text_33">
     <!-- Empatica temperature -->
     <g transform="translate(837.793125 30.340183) scale(0.08 -0.08)">
      <defs>
       <path id="DejaVuSans-45" d="M 628 4666 
L 3578 4666 
L 3578 4134 
L 1259 4134 
L 1259 2753 
L 3481 2753 
L 3481 2222 
L 1259 2222 
L 1259 531 
L 3634 531 
L 3634 0 
L 628 0 
L 628 4666 
z
" transform="scale(0.015625)"/>
      </defs>
      <use xlink:href="#DejaVuSans-45"/>
      <use xlink:href="#DejaVuSans-6d" transform="translate(63.183594 0)"/>
      <use xlink:href="#DejaVuSans-70" transform="translate(160.595703 0)"/>
      <use xlink:href="#DejaVuSans-61" transform="translate(224.072266 0)"/>
      <use xlink:href="#DejaVuSans-74" transform="translate(285.351562 0)"/>
      <use xlink:href="#DejaVuSans-69" transform="translate(324.560547 0)"/>
      <use xlink:href="#DejaVuSans-63" transform="translate(352.34375 0)"/>
      <use xlink:href="#DejaVuSans-61" transform="translate(407.324219 0)"/>
      <use xlink:href="#DejaVuSans-20" transform="translate(468.603516 0)"/>
      <use xlink:href="#DejaVuSans-74" transform="translate(500.390625 0)"/>
      <use xlink:href="#DejaVuSans-65" transform="translate(539.599609 0)"/>
      <use xlink:href="#DejaVuSans-6d" transform="translate(601.123047 0)"/>
      <use xlink:href="#DejaVuSans-70" transform="translate(698.535156 0)"/>
      <use xlink:href="#DejaVuSans-65" transform="translate(762.011719 0)"/>
      <use xlink:href="#DejaVuSans-72" transform="translate(823.535156 0)"/>
      <use xlink:href="#DejaVuSans-61" transform="translate(864.648438 0)"/>
      <use xlink:href="#DejaVuSans-74" transform="translate(925.927734 0)"/>
      <use xlink:href="#DejaVuSans-75" transform="translate(965.136719 0)"/>
      <use xlink:href="#DejaVuSans-72" transform="translate(1028.515625 0)"/>
      <use xlink:href="#DejaVuSans-65" transform="translate(1067.378906 0)"/>
     </g>
    </g>
   </g>
  </g>
 </g>
 <defs>
  <clipPath id="p669d7fd636">
   <rect x="39.330625" y="17.061433" width="895.975" height="211.89328"/>
  </clipPath>
 </defs>
</svg>
