<?xml version="1.0" encoding="utf-8" standalone="no"?>
<!DOCTYPE svg PUBLIC "-//W3C//DTD SVG 1.1//EN"
  "http://www.w3.org/Graphics/SVG/1.1/DTD/svg11.dtd">
<svg xmlns:xlink="http://www.w3.org/1999/xlink" width="942.553437pt" height="265.54315pt" viewBox="0 0 942.553437 265.54315" xmlns="http://www.w3.org/2000/svg" version="1.1">
 <metadata>
  <rdf:RDF xmlns:dc="http://purl.org/dc/elements/1.1/" xmlns:cc="http://creativecommons.org/ns#" xmlns:rdf="http://www.w3.org/1999/02/22-rdf-syntax-ns#">
   <cc:Work>
    <dc:type rdf:resource="http://purl.org/dc/dcmitype/StillImage"/>
    <dc:date>2026-04-17T17:35:08.920771</dc:date>
    <dc:format>image/svg+xml</dc:format>
    <dc:creator>
     <cc:Agent>
      <dc:title>Matplotlib v3.10.8, https://matplotlib.org/</dc:title>
     </cc:Agent>
    </dc:creator>
   </cc:Work>
  </rdf:RDF>
 </metadata>
 <defs>
  <style type="text/css">*{stroke-linejoin: round; stroke-linecap: butt}</style>
 </defs>
 <g id="figure_1">
  <g id="patch_1">
   <path d="M 0 265.54315 
L 942.553437 265.54315 
L 942.553437 0 
L 0 0 
z
" style="fill: #ffffff"/>
  </g>
  <g id="axes_1">
   <g id="patch_2">
    <path d="M 42.190938 228.954713 
L 935.353437 228.954713 
L 935.353437 17.061433 
L 42.190938 17.061433 
z
" style="fill: #ffffff"/>
   </g>
   <g id="patch_3">
    <path d="M 42.190938 228.954713 
L 59.367139 228.954713 
L 59.367139 17.061433 
L 42.190938 17.061433 
z
" clip-path="url(#p4c5cd975a1)" style="fill: #f8fafc; opacity: 0.45"/>
   </g>
   <g id="patch_4">
    <path d="M 59.367139 228.954713 
L 93.267538 228.954713 
L 93.267538 17.061433 
L 59.367139 17.061433 
z
" clip-path="url(#p4c5cd975a1)" style="fill: #eff6ff; opacity: 0.45"/>
   </g>
   <g id="patch_5">
    <path d="M 93.267538 228.954713 
L 121.51787 228.954713 
L 121.51787 17.061433 
L 93.267538 17.061433 
z
" clip-path="url(#p4c5cd975a1)" style="fill: #fef3c7; opacity: 0.45"/>
   </g>
   <g id="patch_6">
    <path d="M 121.51787 228.954713 
L 172.368468 228.954713 
L 172.368468 17.061433 
L 121.51787 17.061433 
z
" clip-path="url(#p4c5cd975a1)" style="fill: #dcfce7; opacity: 0.45"/>
   </g>
   <g id="patch_7">
    <path d="M 172.368468 228.954713 
L 228.869132 228.954713 
L 228.869132 17.061433 
L 172.368468 17.061433 
z
" clip-path="url(#p4c5cd975a1)" style="fill: #fee2e2; opacity: 0.45"/>
   </g>
   <g id="patch_8">
    <path d="M 228.869132 228.954713 
L 234.519199 228.954713 
L 234.519199 17.061433 
L 228.869132 17.061433 
z
" clip-path="url(#p4c5cd975a1)" style="fill: #ede9fe; opacity: 0.45"/>
   </g>
   <g id="patch_9">
    <path d="M 234.519199 228.954713 
L 381.420925 228.954713 
L 381.420925 17.061433 
L 234.519199 17.061433 
z
" clip-path="url(#p4c5cd975a1)" style="fill: #f8fafc; opacity: 0.45"/>
   </g>
   <g id="patch_10">
    <path d="M 381.420925 228.954713 
L 409.671258 228.954713 
L 409.671258 17.061433 
L 381.420925 17.061433 
z
" clip-path="url(#p4c5cd975a1)" style="fill: #eff6ff; opacity: 0.45"/>
   </g>
   <g id="patch_11">
    <path d="M 409.671258 228.954713 
L 437.92159 228.954713 
L 437.92159 17.061433 
L 409.671258 17.061433 
z
" clip-path="url(#p4c5cd975a1)" style="fill: #fef3c7; opacity: 0.45"/>
   </g>
   <g id="patch_12">
    <path d="M 437.92159 228.954713 
L 488.772188 228.954713 
L 488.772188 17.061433 
L 437.92159 17.061433 
z
" clip-path="url(#p4c5cd975a1)" style="fill: #dcfce7; opacity: 0.45"/>
   </g>
   <g id="patch_13">
    <path d="M 488.772187 228.954713 
L 545.272852 228.954713 
L 545.272852 17.061433 
L 488.772187 17.061433 
z
" clip-path="url(#p4c5cd975a1)" style="fill: #fee2e2; opacity: 0.45"/>
   </g>
   <g id="patch_14">
    <path d="M 545.272852 228.954713 
L 550.922918 228.954713 
L 550.922918 17.061433 
L 545.272852 17.061433 
z
" clip-path="url(#p4c5cd975a1)" style="fill: #ede9fe; opacity: 0.45"/>
   </g>
   <g id="patch_15">
    <path d="M 550.922918 228.954713 
L 697.824645 228.954713 
L 697.824645 17.061433 
L 550.922918 17.061433 
z
" clip-path="url(#p4c5cd975a1)" style="fill: #f8fafc; opacity: 0.45"/>
   </g>
   <g id="patch_16">
    <path d="M 697.824645 228.954713 
L 726.074977 228.954713 
L 726.074977 17.061433 
L 697.824645 17.061433 
z
" clip-path="url(#p4c5cd975a1)" style="fill: #eff6ff; opacity: 0.45"/>
   </g>
   <g id="patch_17">
    <path d="M 726.074977 228.954713 
L 754.325309 228.954713 
L 754.325309 17.061433 
L 726.074977 17.061433 
z
" clip-path="url(#p4c5cd975a1)" style="fill: #fef3c7; opacity: 0.45"/>
   </g>
   <g id="patch_18">
    <path d="M 754.325309 228.954713 
L 805.175907 228.954713 
L 805.175907 17.061433 
L 754.325309 17.061433 
z
" clip-path="url(#p4c5cd975a1)" style="fill: #dcfce7; opacity: 0.45"/>
   </g>
   <g id="patch_19">
    <path d="M 805.175907 228.954713 
L 861.676571 228.954713 
L 861.676571 17.061433 
L 805.175907 17.061433 
z
" clip-path="url(#p4c5cd975a1)" style="fill: #fee2e2; opacity: 0.45"/>
   </g>
   <g id="patch_20">
    <path d="M 861.676571 228.954713 
L 867.326638 228.954713 
L 867.326638 17.061433 
L 861.676571 17.061433 
z
" clip-path="url(#p4c5cd975a1)" style="fill: #ede9fe; opacity: 0.45"/>
   </g>
   <g id="patch_21">
    <path d="M 867.326638 228.954713 
L 918.177236 228.954713 
L 918.177236 17.061433 
L 867.326638 17.061433 
z
" clip-path="url(#p4c5cd975a1)" style="fill: #f8fafc; opacity: 0.45"/>
   </g>
   <g id="patch_22">
    <path d="M 918.177236 228.954713 
L 923.827302 228.954713 
L 923.827302 17.061433 
L 918.177236 17.061433 
z
" clip-path="url(#p4c5cd975a1)" style="fill: #eff6ff; opacity: 0.45"/>
   </g>
   <g id="matplotlib.axis_1">
    <g id="xtick_1">
     <g id="line2d_1">
      <path d="M 59.367139 228.954713 
L 59.367139 17.061433 
" clip-path="url(#p4c5cd975a1)" style="fill: none; stroke: #eef2f7; stroke-width: 0.55; stroke-linecap: square"/>
     </g>
     <g id="line2d_2">
      <defs>
       <path id="m513829062b" d="M 0 0 
L 0 3.5 
" style="stroke: #000000; stroke-width: 0.8"/>
      </defs>
      <g>
       <use xlink:href="#m513829062b" x="59.367139" y="228.954713" style="stroke: #000000; stroke-width: 0.8"/>
      </g>
     </g>
     <g id="text_1">
      <!-- 40 -->
      <g transform="translate(53.640889 242.793307) scale(0.09 -0.09)">
       <defs>
        <path id="DejaVuSans-34" d="M 2419 4116 
L 825 1625 
L 2419 1625 
L 2419 4116 
z
M 2253 4666 
L 3047 4666 
L 3047 1625 
L 3713 1625 
L 3713 1100 
L 3047 1100 
L 3047 0 
L 2419 0 
L 2419 1100 
L 313 1100 
L 313 1709 
L 2253 4666 
z
" transform="scale(0.015625)"/>
        <path id="DejaVuSans-30" d="M 2034 4250 
Q 1547 4250 1301 3770 
Q 1056 3291 1056 2328 
Q 1056 1369 1301 889 
Q 1547 409 2034 409 
Q 2525 409 2770 889 
Q 3016 1369 3016 2328 
Q 3016 3291 2770 3770 
Q 2525 4250 2034 4250 
z
M 2034 4750 
Q 2819 4750 3233 4129 
Q 3647 3509 3647 2328 
Q 3647 1150 3233 529 
Q 2819 -91 2034 -91 
Q 1250 -91 836 529 
Q 422 1150 422 2328 
Q 422 3509 836 4129 
Q 1250 4750 2034 4750 
z
" transform="scale(0.015625)"/>
       </defs>
       <use xlink:href="#DejaVuSans-34"/>
       <use xlink:href="#DejaVuSans-30" transform="translate(63.623047 0)"/>
      </g>
     </g>
    </g>
    <g id="xtick_2">
     <g id="line2d_3">
      <path d="M 172.368468 228.954713 
L 172.368468 17.061433 
" clip-path="url(#p4c5cd975a1)" style="fill: none; stroke: #eef2f7; stroke-width: 0.55; stroke-linecap: square"/>
     </g>
     <g id="line2d_4">
      <g>
       <use xlink:href="#m513829062b" x="172.368468" y="228.954713" style="stroke: #000000; stroke-width: 0.8"/>
      </g>
     </g>
     <g id="text_2">
      <!-- 60 -->
      <g transform="translate(166.642218 242.793307) scale(0.09 -0.09)">
       <defs>
        <path id="DejaVuSans-36" d="M 2113 2584 
Q 1688 2584 1439 2293 
Q 1191 2003 1191 1497 
Q 1191 994 1439 701 
Q 1688 409 2113 409 
Q 2538 409 2786 701 
Q 3034 994 3034 1497 
Q 3034 2003 2786 2293 
Q 2538 2584 2113 2584 
z
M 3366 4563 
L 3366 3988 
Q 3128 4100 2886 4159 
Q 2644 4219 2406 4219 
Q 1781 4219 1451 3797 
Q 1122 3375 1075 2522 
Q 1259 2794 1537 2939 
Q 1816 3084 2150 3084 
Q 2853 3084 3261 2657 
Q 3669 2231 3669 1497 
Q 3669 778 3244 343 
Q 2819 -91 2113 -91 
Q 1303 -91 875 529 
Q 447 1150 447 2328 
Q 447 3434 972 4092 
Q 1497 4750 2381 4750 
Q 2619 4750 2861 4703 
Q 3103 4656 3366 4563 
z
" transform="scale(0.015625)"/>
       </defs>
       <use xlink:href="#DejaVuSans-36"/>
       <use xlink:href="#DejaVuSans-30" transform="translate(63.623047 0)"/>
      </g>
     </g>
    </g>
    <g id="xtick_3">
     <g id="line2d_5">
      <path d="M 285.369796 228.954713 
L 285.369796 17.061433 
" clip-path="url(#p4c5cd975a1)" style="fill: none; stroke: #eef2f7; stroke-width: 0.55; stroke-linecap: square"/>
     </g>
     <g id="line2d_6">
      <g>
       <use xlink:href="#m513829062b" x="285.369796" y="228.954713" style="stroke: #000000; stroke-width: 0.8"/>
      </g>
     </g>
     <g id="text_3">
      <!-- 80 -->
      <g transform="translate(279.643546 242.793307) scale(0.09 -0.09)">
       <defs>
        <path id="DejaVuSans-38" d="M 2034 2216 
Q 1584 2216 1326 1975 
Q 1069 1734 1069 1313 
Q 1069 891 1326 650 
Q 1584 409 2034 409 
Q 2484 409 2743 651 
Q 3003 894 3003 1313 
Q 3003 1734 2745 1975 
Q 2488 2216 2034 2216 
z
M 1403 2484 
Q 997 2584 770 2862 
Q 544 3141 544 3541 
Q 544 4100 942 4425 
Q 1341 4750 2034 4750 
Q 2731 4750 3128 4425 
Q 3525 4100 3525 3541 
Q 3525 3141 3298 2862 
Q 3072 2584 2669 2484 
Q 3125 2378 3379 2068 
Q 3634 1759 3634 1313 
Q 3634 634 3220 271 
Q 2806 -91 2034 -91 
Q 1263 -91 848 271 
Q 434 634 434 1313 
Q 434 1759 690 2068 
Q 947 2378 1403 2484 
z
M 1172 3481 
Q 1172 3119 1398 2916 
Q 1625 2713 2034 2713 
Q 2441 2713 2670 2916 
Q 2900 3119 2900 3481 
Q 2900 3844 2670 4047 
Q 2441 4250 2034 4250 
Q 1625 4250 1398 4047 
Q 1172 3844 1172 3481 
z
" transform="scale(0.015625)"/>
       </defs>
       <use xlink:href="#DejaVuSans-38"/>
       <use xlink:href="#DejaVuSans-30" transform="translate(63.623047 0)"/>
      </g>
     </g>
    </g>
    <g id="xtick_4">
     <g id="line2d_7">
      <path d="M 398.371125 228.954713 
L 398.371125 17.061433 
" clip-path="url(#p4c5cd975a1)" style="fill: none; stroke: #eef2f7; stroke-width: 0.55; stroke-linecap: square"/>
     </g>
     <g id="line2d_8">
      <g>
       <use xlink:href="#m513829062b" x="398.371125" y="228.954713" style="stroke: #000000; stroke-width: 0.8"/>
      </g>
     </g>
     <g id="text_4">
      <!-- 100 -->
      <g transform="translate(389.78175 242.793307) scale(0.09 -0.09)">
       <defs>
        <path id="DejaVuSans-31" d="M 794 531 
L 1825 531 
L 1825 4091 
L 703 3866 
L 703 4441 
L 1819 4666 
L 2450 4666 
L 2450 531 
L 3481 531 
L 3481 0 
L 794 0 
L 794 531 
z
" transform="scale(0.015625)"/>
       </defs>
       <use xlink:href="#DejaVuSans-31"/>
       <use xlink:href="#DejaVuSans-30" transform="translate(63.623047 0)"/>
       <use xlink:href="#DejaVuSans-30" transform="translate(127.246094 0)"/>
      </g>
     </g>
    </g>
    <g id="xtick_5">
     <g id="line2d_9">
      <path d="M 511.372453 228.954713 
L 511.372453 17.061433 
" clip-path="url(#p4c5cd975a1)" style="fill: none; stroke: #eef2f7; stroke-width: 0.55; stroke-linecap: square"/>
     </g>
     <g id="line2d_10">
      <g>
       <use xlink:href="#m513829062b" x="511.372453" y="228.954713" style="stroke: #000000; stroke-width: 0.8"/>
      </g>
     </g>
     <g id="text_5">
      <!-- 120 -->
      <g transform="translate(502.783078 242.793307) scale(0.09 -0.09)">
       <defs>
        <path id="DejaVuSans-32" d="M 1228 531 
L 3431 531 
L 3431 0 
L 469 0 
L 469 531 
Q 828 903 1448 1529 
Q 2069 2156 2228 2338 
Q 2531 2678 2651 2914 
Q 2772 3150 2772 3378 
Q 2772 3750 2511 3984 
Q 2250 4219 1831 4219 
Q 1534 4219 1204 4116 
Q 875 4013 500 3803 
L 500 4441 
Q 881 4594 1212 4672 
Q 1544 4750 1819 4750 
Q 2544 4750 2975 4387 
Q 3406 4025 3406 3419 
Q 3406 3131 3298 2873 
Q 3191 2616 2906 2266 
Q 2828 2175 2409 1742 
Q 1991 1309 1228 531 
z
" transform="scale(0.015625)"/>
       </defs>
       <use xlink:href="#DejaVuSans-31"/>
       <use xlink:href="#DejaVuSans-32" transform="translate(63.623047 0)"/>
       <use xlink:href="#DejaVuSans-30" transform="translate(127.246094 0)"/>
      </g>
     </g>
    </g>
    <g id="xtick_6">
     <g id="line2d_11">
      <path d="M 624.373782 228.954713 
L 624.373782 17.061433 
" clip-path="url(#p4c5cd975a1)" style="fill: none; stroke: #eef2f7; stroke-width: 0.55; stroke-linecap: square"/>
     </g>
     <g id="line2d_12">
      <g>
       <use xlink:href="#m513829062b" x="624.373782" y="228.954713" style="stroke: #000000; stroke-width: 0.8"/>
      </g>
     </g>
     <g id="text_6">
      <!-- 140 -->
      <g transform="translate(615.784407 242.793307) scale(0.09 -0.09)">
       <use xlink:href="#DejaVuSans-31"/>
       <use xlink:href="#DejaVuSans-34" transform="translate(63.623047 0)"/>
       <use xlink:href="#DejaVuSans-30" transform="translate(127.246094 0)"/>
      </g>
     </g>
    </g>
    <g id="xtick_7">
     <g id="line2d_13">
      <path d="M 737.37511 228.954713 
L 737.37511 17.061433 
" clip-path="url(#p4c5cd975a1)" style="fill: none; stroke: #eef2f7; stroke-width: 0.55; stroke-linecap: square"/>
     </g>
     <g id="line2d_14">
      <g>
       <use xlink:href="#m513829062b" x="737.37511" y="228.954713" style="stroke: #000000; stroke-width: 0.8"/>
      </g>
     </g>
     <g id="text_7">
      <!-- 160 -->
      <g transform="translate(728.785735 242.793307) scale(0.09 -0.09)">
       <use xlink:href="#DejaVuSans-31"/>
       <use xlink:href="#DejaVuSans-36" transform="translate(63.623047 0)"/>
       <use xlink:href="#DejaVuSans-30" transform="translate(127.246094 0)"/>
      </g>
     </g>
    </g>
    <g id="xtick_8">
     <g id="line2d_15">
      <path d="M 850.376439 228.954713 
L 850.376439 17.061433 
" clip-path="url(#p4c5cd975a1)" style="fill: none; stroke: #eef2f7; stroke-width: 0.55; stroke-linecap: square"/>
     </g>
     <g id="line2d_16">
      <g>
       <use xlink:href="#m513829062b" x="850.376439" y="228.954713" style="stroke: #000000; stroke-width: 0.8"/>
      </g>
     </g>
     <g id="text_8">
      <!-- 180 -->
      <g transform="translate(841.787064 242.793307) scale(0.09 -0.09)">
       <use xlink:href="#DejaVuSans-31"/>
       <use xlink:href="#DejaVuSans-38" transform="translate(63.623047 0)"/>
       <use xlink:href="#DejaVuSans-30" transform="translate(127.246094 0)"/>
      </g>
     </g>
    </g>
    <g id="text_9">
     <!-- Minutes since session start -->
     <g transform="translate(421.182344 256.263463) scale(0.1 -0.1)">
      <defs>
       <path id="DejaVuSans-4d" d="M 628 4666 
L 1569 4666 
L 2759 1491 
L 3956 4666 
L 4897 4666 
L 4897 0 
L 4281 0 
L 4281 4097 
L 3078 897 
L 2444 897 
L 1241 4097 
L 1241 0 
L 628 0 
L 628 4666 
z
" transform="scale(0.015625)"/>
       <path id="DejaVuSans-69" d="M 603 3500 
L 1178 3500 
L 1178 0 
L 603 0 
L 603 3500 
z
M 603 4863 
L 1178 4863 
L 1178 4134 
L 603 4134 
L 603 4863 
z
" transform="scale(0.015625)"/>
       <path id="DejaVuSans-6e" d="M 3513 2113 
L 3513 0 
L 2938 0 
L 2938 2094 
Q 2938 2591 2744 2837 
Q 2550 3084 2163 3084 
Q 1697 3084 1428 2787 
Q 1159 2491 1159 1978 
L 1159 0 
L 581 0 
L 581 3500 
L 1159 3500 
L 1159 2956 
Q 1366 3272 1645 3428 
Q 1925 3584 2291 3584 
Q 2894 3584 3203 3211 
Q 3513 2838 3513 2113 
z
" transform="scale(0.015625)"/>
       <path id="DejaVuSans-75" d="M 544 1381 
L 544 3500 
L 1119 3500 
L 1119 1403 
Q 1119 906 1312 657 
Q 1506 409 1894 409 
Q 2359 409 2629 706 
Q 2900 1003 2900 1516 
L 2900 3500 
L 3475 3500 
L 3475 0 
L 2900 0 
L 2900 538 
Q 2691 219 2414 64 
Q 2138 -91 1772 -91 
Q 1169 -91 856 284 
Q 544 659 544 1381 
z
M 1991 3584 
L 1991 3584 
z
" transform="scale(0.015625)"/>
       <path id="DejaVuSans-74" d="M 1172 4494 
L 1172 3500 
L 2356 3500 
L 2356 3053 
L 1172 3053 
L 1172 1153 
Q 1172 725 1289 603 
Q 1406 481 1766 481 
L 2356 481 
L 2356 0 
L 1766 0 
Q 1100 0 847 248 
Q 594 497 594 1153 
L 594 3053 
L 172 3053 
L 172 3500 
L 594 3500 
L 594 4494 
L 1172 4494 
z
" transform="scale(0.015625)"/>
       <path id="DejaVuSans-65" d="M 3597 1894 
L 3597 1613 
L 953 1613 
Q 991 1019 1311 708 
Q 1631 397 2203 397 
Q 2534 397 2845 478 
Q 3156 559 3463 722 
L 3463 178 
Q 3153 47 2828 -22 
Q 2503 -91 2169 -91 
Q 1331 -91 842 396 
Q 353 884 353 1716 
Q 353 2575 817 3079 
Q 1281 3584 2069 3584 
Q 2775 3584 3186 3129 
Q 3597 2675 3597 1894 
z
M 3022 2063 
Q 3016 2534 2758 2815 
Q 2500 3097 2075 3097 
Q 1594 3097 1305 2825 
Q 1016 2553 972 2059 
L 3022 2063 
z
" transform="scale(0.015625)"/>
       <path id="DejaVuSans-73" d="M 2834 3397 
L 2834 2853 
Q 2591 2978 2328 3040 
Q 2066 3103 1784 3103 
Q 1356 3103 1142 2972 
Q 928 2841 928 2578 
Q 928 2378 1081 2264 
Q 1234 2150 1697 2047 
L 1894 2003 
Q 2506 1872 2764 1633 
Q 3022 1394 3022 966 
Q 3022 478 2636 193 
Q 2250 -91 1575 -91 
Q 1294 -91 989 -36 
Q 684 19 347 128 
L 347 722 
Q 666 556 975 473 
Q 1284 391 1588 391 
Q 1994 391 2212 530 
Q 2431 669 2431 922 
Q 2431 1156 2273 1281 
Q 2116 1406 1581 1522 
L 1381 1569 
Q 847 1681 609 1914 
Q 372 2147 372 2553 
Q 372 3047 722 3315 
Q 1072 3584 1716 3584 
Q 2034 3584 2315 3537 
Q 2597 3491 2834 3397 
z
" transform="scale(0.015625)"/>
       <path id="DejaVuSans-20" transform="scale(0.015625)"/>
       <path id="DejaVuSans-63" d="M 3122 3366 
L 3122 2828 
Q 2878 2963 2633 3030 
Q 2388 3097 2138 3097 
Q 1578 3097 1268 2742 
Q 959 2388 959 1747 
Q 959 1106 1268 751 
Q 1578 397 2138 397 
Q 2388 397 2633 464 
Q 2878 531 3122 666 
L 3122 134 
Q 2881 22 2623 -34 
Q 2366 -91 2075 -91 
Q 1284 -91 818 406 
Q 353 903 353 1747 
Q 353 2603 823 3093 
Q 1294 3584 2113 3584 
Q 2378 3584 2631 3529 
Q 2884 3475 3122 3366 
z
" transform="scale(0.015625)"/>
       <path id="DejaVuSans-6f" d="M 1959 3097 
Q 1497 3097 1228 2736 
Q 959 2375 959 1747 
Q 959 1119 1226 758 
Q 1494 397 1959 397 
Q 2419 397 2687 759 
Q 2956 1122 2956 1747 
Q 2956 2369 2687 2733 
Q 2419 3097 1959 3097 
z
M 1959 3584 
Q 2709 3584 3137 3096 
Q 3566 2609 3566 1747 
Q 3566 888 3137 398 
Q 2709 -91 1959 -91 
Q 1206 -91 779 398 
Q 353 888 353 1747 
Q 353 2609 779 3096 
Q 1206 3584 1959 3584 
z
" transform="scale(0.015625)"/>
       <path id="DejaVuSans-61" d="M 2194 1759 
Q 1497 1759 1228 1600 
Q 959 1441 959 1056 
Q 959 750 1161 570 
Q 1363 391 1709 391 
Q 2188 391 2477 730 
Q 2766 1069 2766 1631 
L 2766 1759 
L 2194 1759 
z
M 3341 1997 
L 3341 0 
L 2766 0 
L 2766 531 
Q 2569 213 2275 61 
Q 1981 -91 1556 -91 
Q 1019 -91 701 211 
Q 384 513 384 1019 
Q 384 1609 779 1909 
Q 1175 2209 1959 2209 
L 2766 2209 
L 2766 2266 
Q 2766 2663 2505 2880 
Q 2244 3097 1772 3097 
Q 1472 3097 1187 3025 
Q 903 2953 641 2809 
L 641 3341 
Q 956 3463 1253 3523 
Q 1550 3584 1831 3584 
Q 2591 3584 2966 3190 
Q 3341 2797 3341 1997 
z
" transform="scale(0.015625)"/>
       <path id="DejaVuSans-72" d="M 2631 2963 
Q 2534 3019 2420 3045 
Q 2306 3072 2169 3072 
Q 1681 3072 1420 2755 
Q 1159 2438 1159 1844 
L 1159 0 
L 581 0 
L 581 3500 
L 1159 3500 
L 1159 2956 
Q 1341 3275 1631 3429 
Q 1922 3584 2338 3584 
Q 2397 3584 2469 3576 
Q 2541 3569 2628 3553 
L 2631 2963 
z
" transform="scale(0.015625)"/>
      </defs>
      <use xlink:href="#DejaVuSans-4d"/>
      <use xlink:href="#DejaVuSans-69" transform="translate(86.279297 0)"/>
      <use xlink:href="#DejaVuSans-6e" transform="translate(114.0625 0)"/>
      <use xlink:href="#DejaVuSans-75" transform="translate(177.441406 0)"/>
      <use xlink:href="#DejaVuSans-74" transform="translate(240.820312 0)"/>
      <use xlink:href="#DejaVuSans-65" transform="translate(280.029297 0)"/>
      <use xlink:href="#DejaVuSans-73" transform="translate(341.552734 0)"/>
      <use xlink:href="#DejaVuSans-20" transform="translate(393.652344 0)"/>
      <use xlink:href="#DejaVuSans-73" transform="translate(425.439453 0)"/>
      <use xlink:href="#DejaVuSans-69" transform="translate(477.539062 0)"/>
      <use xlink:href="#DejaVuSans-6e" transform="translate(505.322266 0)"/>
      <use xlink:href="#DejaVuSans-63" transform="translate(568.701172 0)"/>
      <use xlink:href="#DejaVuSans-65" transform="translate(623.681641 0)"/>
      <use xlink:href="#DejaVuSans-20" transform="translate(685.205078 0)"/>
      <use xlink:href="#DejaVuSans-73" transform="translate(716.992188 0)"/>
      <use xlink:href="#DejaVuSans-65" transform="translate(769.091797 0)"/>
      <use xlink:href="#DejaVuSans-73" transform="translate(830.615234 0)"/>
      <use xlink:href="#DejaVuSans-73" transform="translate(882.714844 0)"/>
      <use xlink:href="#DejaVuSans-69" transform="translate(934.814453 0)"/>
      <use xlink:href="#DejaVuSans-6f" transform="translate(962.597656 0)"/>
      <use xlink:href="#DejaVuSans-6e" transform="translate(1023.779297 0)"/>
      <use xlink:href="#DejaVuSans-20" transform="translate(1087.158203 0)"/>
      <use xlink:href="#DejaVuSans-73" transform="translate(1118.945312 0)"/>
      <use xlink:href="#DejaVuSans-74" transform="translate(1171.044922 0)"/>
      <use xlink:href="#DejaVuSans-61" transform="translate(1210.253906 0)"/>
      <use xlink:href="#DejaVuSans-72" transform="translate(1271.533203 0)"/>
      <use xlink:href="#DejaVuSans-74" transform="translate(1312.646484 0)"/>
     </g>
    </g>
   </g>
   <g id="matplotlib.axis_2">
    <g id="ytick_1">
     <g id="line2d_17">
      <path d="M 42.190938 219.3232 
L 935.353437 219.3232 
" clip-path="url(#p4c5cd975a1)" style="fill: none; stroke: #eef2f7; stroke-opacity: 0.25; stroke-width: 0.55; stroke-linecap: square"/>
     </g>
     <g id="line2d_18">
      <defs>
       <path id="m1e047cf676" d="M 0 0 
L -3.5 0 
" style="stroke: #000000; stroke-width: 0.8"/>
      </defs>
      <g>
       <use xlink:href="#m1e047cf676" x="42.190938" y="219.3232" style="stroke: #000000; stroke-width: 0.8"/>
      </g>
     </g>
     <g id="text_10">
      <!-- 0.0 -->
      <g transform="translate(20.878125 222.742497) scale(0.09 -0.09)">
       <defs>
        <path id="DejaVuSans-2e" d="M 684 794 
L 1344 794 
L 1344 0 
L 684 0 
L 684 794 
z
" transform="scale(0.015625)"/>
       </defs>
       <use xlink:href="#DejaVuSans-30"/>
       <use xlink:href="#DejaVuSans-2e" transform="translate(63.623047 0)"/>
       <use xlink:href="#DejaVuSans-30" transform="translate(95.410156 0)"/>
      </g>
     </g>
    </g>
    <g id="ytick_2">
     <g id="line2d_19">
      <path d="M 42.190938 175.98681 
L 935.353437 175.98681 
" clip-path="url(#p4c5cd975a1)" style="fill: none; stroke: #eef2f7; stroke-opacity: 0.25; stroke-width: 0.55; stroke-linecap: square"/>
     </g>
     <g id="line2d_20">
      <g>
       <use xlink:href="#m1e047cf676" x="42.190938" y="175.98681" style="stroke: #000000; stroke-width: 0.8"/>
      </g>
     </g>
     <g id="text_11">
      <!-- 0.2 -->
      <g transform="translate(20.878125 179.406107) scale(0.09 -0.09)">
       <use xlink:href="#DejaVuSans-30"/>
       <use xlink:href="#DejaVuSans-2e" transform="translate(63.623047 0)"/>
       <use xlink:href="#DejaVuSans-32" transform="translate(95.410156 0)"/>
      </g>
     </g>
    </g>
    <g id="ytick_3">
     <g id="line2d_21">
      <path d="M 42.190938 132.65042 
L 935.353437 132.65042 
" clip-path="url(#p4c5cd975a1)" style="fill: none; stroke: #eef2f7; stroke-opacity: 0.25; stroke-width: 0.55; stroke-linecap: square"/>
     </g>
     <g id="line2d_22">
      <g>
       <use xlink:href="#m1e047cf676" x="42.190938" y="132.65042" style="stroke: #000000; stroke-width: 0.8"/>
      </g>
     </g>
     <g id="text_12">
      <!-- 0.4 -->
      <g transform="translate(20.878125 136.069716) scale(0.09 -0.09)">
       <use xlink:href="#DejaVuSans-30"/>
       <use xlink:href="#DejaVuSans-2e" transform="translate(63.623047 0)"/>
       <use xlink:href="#DejaVuSans-34" transform="translate(95.410156 0)"/>
      </g>
     </g>
    </g>
    <g id="ytick_4">
     <g id="line2d_23">
      <path d="M 42.190938 89.314029 
L 935.353437 89.314029 
" clip-path="url(#p4c5cd975a1)" style="fill: none; stroke: #eef2f7; stroke-opacity: 0.25; stroke-width: 0.55; stroke-linecap: square"/>
     </g>
     <g id="line2d_24">
      <g>
       <use xlink:href="#m1e047cf676" x="42.190938" y="89.314029" style="stroke: #000000; stroke-width: 0.8"/>
      </g>
     </g>
     <g id="text_13">
      <!-- 0.6 -->
      <g transform="translate(20.878125 92.733326) scale(0.09 -0.09)">
       <use xlink:href="#DejaVuSans-30"/>
       <use xlink:href="#DejaVuSans-2e" transform="translate(63.623047 0)"/>
       <use xlink:href="#DejaVuSans-36" transform="translate(95.410156 0)"/>
      </g>
     </g>
    </g>
    <g id="ytick_5">
     <g id="line2d_25">
      <path d="M 42.190938 45.977639 
L 935.353437 45.977639 
" clip-path="url(#p4c5cd975a1)" style="fill: none; stroke: #eef2f7; stroke-opacity: 0.25; stroke-width: 0.55; stroke-linecap: square"/>
     </g>
     <g id="line2d_26">
      <g>
       <use xlink:href="#m1e047cf676" x="42.190938" y="45.977639" style="stroke: #000000; stroke-width: 0.8"/>
      </g>
     </g>
     <g id="text_14">
      <!-- 0.8 -->
      <g transform="translate(20.878125 49.396936) scale(0.09 -0.09)">
       <use xlink:href="#DejaVuSans-30"/>
       <use xlink:href="#DejaVuSans-2e" transform="translate(63.623047 0)"/>
       <use xlink:href="#DejaVuSans-38" transform="translate(95.410156 0)"/>
      </g>
     </g>
    </g>
    <g id="text_15">
     <!-- Velocity (m/s) -->
     <g transform="translate(14.798438 157.273698) rotate(-90) scale(0.1 -0.1)">
      <defs>
       <path id="DejaVuSans-56" d="M 1831 0 
L 50 4666 
L 709 4666 
L 2188 738 
L 3669 4666 
L 4325 4666 
L 2547 0 
L 1831 0 
z
" transform="scale(0.015625)"/>
       <path id="DejaVuSans-6c" d="M 603 4863 
L 1178 4863 
L 1178 0 
L 603 0 
L 603 4863 
z
" transform="scale(0.015625)"/>
       <path id="DejaVuSans-79" d="M 2059 -325 
Q 1816 -950 1584 -1140 
Q 1353 -1331 966 -1331 
L 506 -1331 
L 506 -850 
L 844 -850 
Q 1081 -850 1212 -737 
Q 1344 -625 1503 -206 
L 1606 56 
L 191 3500 
L 800 3500 
L 1894 763 
L 2988 3500 
L 3597 3500 
L 2059 -325 
z
" transform="scale(0.015625)"/>
       <path id="DejaVuSans-28" d="M 1984 4856 
Q 1566 4138 1362 3434 
Q 1159 2731 1159 2009 
Q 1159 1288 1364 580 
Q 1569 -128 1984 -844 
L 1484 -844 
Q 1016 -109 783 600 
Q 550 1309 550 2009 
Q 550 2706 781 3412 
Q 1013 4119 1484 4856 
L 1984 4856 
z
" transform="scale(0.015625)"/>
       <path id="DejaVuSans-6d" d="M 3328 2828 
Q 3544 3216 3844 3400 
Q 4144 3584 4550 3584 
Q 5097 3584 5394 3201 
Q 5691 2819 5691 2113 
L 5691 0 
L 5113 0 
L 5113 2094 
Q 5113 2597 4934 2840 
Q 4756 3084 4391 3084 
Q 3944 3084 3684 2787 
Q 3425 2491 3425 1978 
L 3425 0 
L 2847 0 
L 2847 2094 
Q 2847 2600 2669 2842 
Q 2491 3084 2119 3084 
Q 1678 3084 1418 2786 
Q 1159 2488 1159 1978 
L 1159 0 
L 581 0 
L 581 3500 
L 1159 3500 
L 1159 2956 
Q 1356 3278 1631 3431 
Q 1906 3584 2284 3584 
Q 2666 3584 2933 3390 
Q 3200 3197 3328 2828 
z
" transform="scale(0.015625)"/>
       <path id="DejaVuSans-2f" d="M 1625 4666 
L 2156 4666 
L 531 -594 
L 0 -594 
L 1625 4666 
z
" transform="scale(0.015625)"/>
       <path id="DejaVuSans-29" d="M 513 4856 
L 1013 4856 
Q 1481 4119 1714 3412 
Q 1947 2706 1947 2009 
Q 1947 1309 1714 600 
Q 1481 -109 1013 -844 
L 513 -844 
Q 928 -128 1133 580 
Q 1338 1288 1338 2009 
Q 1338 2731 1133 3434 
Q 928 4138 513 4856 
z
" transform="scale(0.015625)"/>
      </defs>
      <use xlink:href="#DejaVuSans-56"/>
      <use xlink:href="#DejaVuSans-65" transform="translate(60.658203 0)"/>
      <use xlink:href="#DejaVuSans-6c" transform="translate(122.181641 0)"/>
      <use xlink:href="#DejaVuSans-6f" transform="translate(149.964844 0)"/>
      <use xlink:href="#DejaVuSans-63" transform="translate(211.146484 0)"/>
      <use xlink:href="#DejaVuSans-69" transform="translate(266.126953 0)"/>
      <use xlink:href="#DejaVuSans-74" transform="translate(293.910156 0)"/>
      <use xlink:href="#DejaVuSans-79" transform="translate(333.119141 0)"/>
      <use xlink:href="#DejaVuSans-20" transform="translate(392.298828 0)"/>
      <use xlink:href="#DejaVuSans-28" transform="translate(424.085938 0)"/>
      <use xlink:href="#DejaVuSans-6d" transform="translate(463.099609 0)"/>
      <use xlink:href="#DejaVuSans-2f" transform="translate(560.511719 0)"/>
      <use xlink:href="#DejaVuSans-73" transform="translate(594.203125 0)"/>
      <use xlink:href="#DejaVuSans-29" transform="translate(646.302734 0)"/>
     </g>
    </g>
   </g>
   <g id="line2d_27">
    <path d="M 59.367139 205.238873 
L 65.017206 202.63869 
L 70.667272 208.705784 
L 76.317339 203.288736 
L 81.967405 208.489103 
L 87.617472 198.521733 
L 93.267538 201.338598 
L 98.917604 200.47187 
L 104.567671 200.038506 
L 110.217737 200.47187 
L 115.867804 203.938782 
L 121.51787 213.472787 
L 132.818003 206.538965 
L 138.468069 211.739332 
L 144.118136 209.572512 
L 149.768202 213.039423 
L 155.418269 206.322283 
L 161.068335 208.055739 
L 166.718401 206.755647 
L 172.368468 203.7221 
L 178.018534 198.088369 
L 183.668601 200.47187 
L 189.318667 195.488185 
L 194.968734 189.854455 
L 200.6188 195.921549 
L 206.268866 197.871687 
L 211.918933 203.938782 
L 217.568999 204.155463 
L 223.219066 201.121916 
L 228.869132 198.521733 
L 234.519199 203.072054 
L 240.169265 207.189011 
L 245.819331 203.505418 
L 251.469398 206.972329 
L 257.119464 212.389378 
L 259.944497 213.039423 
L 262.769531 213.472787 
L 268.419597 204.805509 
L 274.069663 213.472787 
L 279.71973 207.405693 
L 285.369796 207.405693 
L 291.019863 208.272421 
L 296.669929 209.789194 
L 302.319996 208.489103 
L 307.970062 208.489103 
L 313.620128 209.139148 
L 319.270195 205.888919 
L 330.570328 209.139148 
L 341.870461 207.839057 
L 347.520527 209.35583 
L 353.170593 207.405693 
L 358.82066 205.022191 
L 364.470726 210.872604 
L 370.120793 212.822742 
L 375.770859 211.956014 
L 381.420925 211.956014 
L 387.070992 206.755647 
L 392.721058 215.422925 
L 398.371125 207.189011 
L 404.021191 205.238873 
L 409.671258 205.455555 
L 415.321324 200.47187 
L 420.97139 202.422008 
L 426.621457 200.255188 
L 432.271523 198.521733 
L 437.92159 211.52265 
L 449.221723 208.489103 
L 454.871789 203.938782 
L 460.521855 206.538965 
L 466.171922 207.839057 
L 471.821988 207.839057 
L 477.472055 207.622375 
L 483.122121 208.055739 
L 488.772187 201.55528 
L 494.422254 187.470953 
L 505.722387 187.470953 
L 511.372453 196.138231 
L 517.02252 191.371228 
L 522.672586 192.67132 
L 528.322652 194.188094 
L 533.972719 194.621458 
L 539.622785 200.255188 
L 545.272852 198.738415 
L 550.922918 206.105601 
L 556.572985 206.538965 
L 562.223051 207.189011 
L 567.873117 208.705784 
L 573.523184 206.105601 
L 579.17325 209.139148 
L 584.823317 210.005876 
L 590.473383 213.039423 
L 596.12345 206.755647 
L 601.773516 208.272421 
L 607.423582 210.005876 
L 613.073649 208.705784 
L 618.723715 207.622375 
L 624.373782 205.672237 
L 630.023848 209.139148 
L 641.323981 205.022191 
L 646.974047 209.572512 
L 652.624114 204.155463 
L 658.27418 212.172696 
L 663.924247 207.405693 
L 669.574313 207.839057 
L 675.224379 204.155463 
L 680.874446 208.922466 
L 686.524512 206.322283 
L 692.174579 208.922466 
L 697.824645 203.505418 
L 703.474712 210.43924 
L 709.124778 209.789194 
L 714.774844 208.272421 
L 720.424911 204.588827 
L 726.074977 197.871687 
L 731.725044 195.488185 
L 737.37511 200.038506 
L 743.025176 194.188094 
L 748.675243 203.072054 
L 754.325309 205.238873 
L 765.625442 206.322283 
L 771.275509 208.272421 
L 776.925575 207.622375 
L 782.575641 213.472787 
L 793.875774 205.238873 
L 799.525841 206.972329 
L 805.175907 199.388461 
L 810.825974 205.022191 
L 816.47604 188.337681 
L 822.126106 190.937864 
L 827.776173 194.188094 
L 833.426239 195.704867 
L 839.076306 186.170862 
L 844.726372 186.820907 
L 850.376439 194.404776 
L 856.026505 195.704867 
L 861.676571 208.705784 
L 867.326638 207.189011 
L 872.976704 205.022191 
L 878.626771 211.089286 
L 884.276837 206.755647 
L 889.926903 206.755647 
L 895.57697 210.43924 
L 901.227036 206.538965 
L 906.877103 211.089286 
L 912.527169 208.055739 
L 918.177236 205.888919 
L 918.177236 205.888919 
" clip-path="url(#p4c5cd975a1)" style="fill: none; stroke: #b8e3b2; stroke-opacity: 0.95; stroke-width: 0.936; stroke-linecap: square"/>
   </g>
   <g id="line2d_28">
    <path d="M 59.367139 203.938782 
L 65.017206 208.922466 
L 70.667272 208.922466 
L 76.317339 207.189011 
L 81.967405 204.805509 
L 87.617472 194.404776 
L 93.267538 201.121916 
L 98.917604 205.455555 
L 104.567671 207.189011 
L 110.217737 203.505418 
L 115.867804 206.755647 
L 121.51787 199.821824 
L 132.818003 211.739332 
L 138.468069 209.572512 
L 144.118136 214.556197 
L 149.768202 210.655922 
L 155.418269 209.572512 
L 161.068335 206.322283 
L 166.718401 208.272421 
L 172.368468 204.155463 
L 178.018534 191.58791 
L 183.668601 197.655005 
L 189.318667 196.354913 
L 194.968734 197.004959 
L 200.6188 195.921549 
L 206.268866 197.655005 
L 217.568999 201.988644 
L 223.219066 187.254271 
L 228.869132 201.988644 
L 234.519199 206.322283 
L 240.169265 208.922466 
L 245.819331 209.139148 
L 251.469398 207.405693 
L 257.119464 206.972329 
L 262.769531 210.872604 
L 268.419597 208.055739 
L 274.069663 211.089286 
L 279.71973 212.822742 
L 285.369796 213.256105 
L 291.019863 210.655922 
L 296.669929 211.52265 
L 302.319996 213.689469 
L 307.970062 209.35583 
L 313.620128 208.489103 
L 319.270195 209.572512 
L 330.570328 212.172696 
L 336.220394 207.622375 
L 341.870461 204.372145 
L 347.520527 208.705784 
L 353.170593 211.739332 
L 358.82066 204.805509 
L 364.470726 206.755647 
L 370.120793 213.256105 
L 375.770859 217.156381 
L 381.420925 204.805509 
L 387.070992 209.139148 
L 392.721058 204.372145 
L 398.371125 206.972329 
L 404.021191 201.338598 
L 409.671258 194.188094 
L 415.321324 198.521733 
L 420.97139 202.422008 
L 426.621457 205.888919 
L 432.271523 204.588827 
L 437.92159 205.455555 
L 449.221723 214.772879 
L 454.871789 218.889836 
L 460.521855 210.005876 
L 466.171922 209.139148 
L 471.821988 214.339515 
L 477.472055 210.005876 
L 483.122121 215.422925 
L 488.772187 199.171779 
L 494.422254 191.154546 
L 500.07232 198.955097 
L 505.722387 199.171779 
L 511.372453 194.83814 
L 517.02252 193.104684 
L 522.672586 200.038506 
L 528.322652 197.221641 
L 533.972719 194.188094 
L 539.622785 192.888002 
L 545.272852 191.371228 
L 550.922918 202.63869 
L 556.572985 205.672237 
L 562.223051 214.989561 
L 567.873117 209.35583 
L 573.523184 209.35583 
L 579.17325 214.339515 
L 584.823317 209.572512 
L 590.473383 210.43924 
L 596.12345 208.922466 
L 601.773516 208.272421 
L 607.423582 212.389378 
L 613.073649 210.43924 
L 618.723715 208.272421 
L 624.373782 209.35583 
L 630.023848 207.839057 
L 641.323981 208.055739 
L 646.974047 216.939699 
L 652.624114 209.139148 
L 658.27418 212.389378 
L 663.924247 212.389378 
L 669.574313 208.055739 
L 675.224379 208.055739 
L 680.874446 210.222558 
L 686.524512 208.489103 
L 692.174579 206.538965 
L 697.824645 213.689469 
L 703.474712 212.389378 
L 709.124778 215.206243 
L 714.774844 209.789194 
L 720.424911 201.338598 
L 726.074977 200.038506 
L 731.725044 205.238873 
L 737.37511 204.805509 
L 743.025176 200.905234 
L 748.675243 204.155463 
L 754.325309 206.322283 
L 765.625442 214.339515 
L 776.925575 207.405693 
L 782.575641 214.772879 
L 788.225708 211.739332 
L 793.875774 211.089286 
L 799.525841 214.556197 
L 805.175907 201.338598 
L 810.825974 199.171779 
L 816.47604 192.454638 
L 822.126106 197.655005 
L 827.776173 190.071137 
L 833.426239 190.504501 
L 839.076306 193.321366 
L 844.726372 195.271503 
L 850.376439 198.521733 
L 856.026505 195.704867 
L 861.676571 200.688552 
L 867.326638 207.405693 
L 872.976704 212.389378 
L 878.626771 208.489103 
L 884.276837 208.705784 
L 889.926903 218.456472 
L 895.57697 208.272421 
L 901.227036 211.305968 
L 906.877103 211.305968 
L 912.527169 215.639607 
L 918.177236 209.572512 
L 918.177236 209.572512 
" clip-path="url(#p4c5cd975a1)" style="fill: none; stroke: #98d594; stroke-opacity: 0.95; stroke-width: 0.936; stroke-linecap: square"/>
   </g>
   <g id="line2d_29">
    <path d="M 59.367139 208.705784 
L 65.017206 215.639607 
L 70.667272 207.405693 
L 76.317339 210.655922 
L 81.967405 161.469119 
L 87.617472 105.565176 
L 93.267538 115.965909 
L 98.917604 121.382958 
L 104.567671 102.964992 
L 110.217737 110.115497 
L 115.867804 141.317698 
L 121.51787 208.922466 
L 132.818003 211.52265 
L 138.468069 213.472787 
L 144.118136 216.506335 
L 149.768202 219.3232 
L 155.418269 210.005876 
L 161.068335 210.43924 
L 166.718401 213.906151 
L 172.368468 148.684884 
L 178.018534 84.763708 
L 183.668601 95.597806 
L 189.318667 105.348494 
L 194.968734 77.17984 
L 200.6188 92.780941 
L 206.268866 104.265084 
L 211.918933 66.562425 
L 217.568999 71.112746 
L 223.219066 81.296797 
L 228.869132 191.154546 
L 234.519199 206.755647 
L 240.169265 213.689469 
L 245.819331 215.639607 
L 251.469398 213.472787 
L 257.119464 211.52265 
L 262.769531 206.755647 
L 268.419597 209.572512 
L 274.069663 215.206243 
L 279.71973 210.655922 
L 285.369796 208.272421 
L 291.019863 212.822742 
L 296.669929 211.739332 
L 302.319996 214.989561 
L 307.970062 210.872604 
L 313.620128 211.739332 
L 319.270195 213.039423 
L 330.570328 215.422925 
L 341.870461 210.655922 
L 347.520527 212.172696 
L 353.170593 210.872604 
L 358.82066 210.655922 
L 364.470726 212.172696 
L 370.120793 215.639607 
L 375.770859 210.005876 
L 381.420925 214.122833 
L 387.070992 209.789194 
L 392.721058 211.305968 
L 398.371125 213.256105 
L 404.021191 137.634105 
L 409.671258 108.598723 
L 415.321324 124.416505 
L 420.97139 123.549778 
L 426.621457 105.99854 
L 432.271523 160.819073 
L 437.92159 207.189011 
L 449.221723 214.556197 
L 454.871789 209.572512 
L 460.521855 208.489103 
L 466.171922 215.422925 
L 471.821988 210.655922 
L 477.472055 212.172696 
L 483.122121 212.822742 
L 488.772187 133.300465 
L 494.422254 62.228786 
L 500.07232 64.612287 
L 505.722387 85.630436 
L 511.372453 66.995788 
L 517.02252 76.529794 
L 522.672586 50.744642 
L 528.322652 78.696614 
L 533.972719 86.0638 
L 539.622785 76.963158 
L 545.272852 135.467285 
L 550.922918 207.405693 
L 556.572985 210.872604 
L 562.223051 218.023108 
L 567.873117 210.872604 
L 573.523184 211.305968 
L 579.17325 210.005876 
L 584.823317 210.872604 
L 590.473383 209.35583 
L 596.12345 210.222558 
L 601.773516 207.839057 
L 607.423582 210.222558 
L 613.073649 213.039423 
L 618.723715 210.222558 
L 624.373782 214.122833 
L 630.023848 208.705784 
L 641.323981 210.872604 
L 646.974047 219.106518 
L 652.624114 210.005876 
L 658.27418 208.272421 
L 663.924247 209.789194 
L 669.574313 211.52265 
L 675.224379 208.922466 
L 680.874446 210.655922 
L 686.524512 214.772879 
L 692.174579 210.872604 
L 697.824645 214.339515 
L 703.474712 210.655922 
L 709.124778 214.122833 
L 714.774844 210.005876 
L 720.424911 112.932362 
L 726.074977 122.249686 
L 731.725044 126.583325 
L 737.37511 127.883417 
L 743.025176 113.149044 
L 748.675243 140.017606 
L 754.325309 202.422008 
L 765.625442 214.989561 
L 771.275509 219.3232 
L 776.925575 210.005876 
L 782.575641 211.089286 
L 788.225708 210.005876 
L 793.875774 210.872604 
L 799.525841 218.456472 
L 805.175907 128.316781 
L 810.825974 66.779106 
L 816.47604 82.380207 
L 822.126106 72.846201 
L 827.776173 67.862516 
L 833.426239 78.046568 
L 839.076306 66.995788 
L 844.726372 49.877914 
L 850.376439 67.21247 
L 856.026505 71.762791 
L 861.676571 181.187177 
L 867.326638 205.672237 
L 872.976704 211.956014 
L 878.626771 212.822742 
L 884.276837 215.206243 
L 887.10187 213.256105 
L 889.926903 211.089286 
L 895.57697 211.305968 
L 901.227036 213.256105 
L 906.877103 210.43924 
L 912.527169 210.872604 
L 918.177236 213.906151 
L 918.177236 213.906151 
" clip-path="url(#p4c5cd975a1)" style="fill: none; stroke: #73c476; stroke-opacity: 0.95; stroke-width: 0.936; stroke-linecap: square"/>
   </g>
   <g id="line2d_30">
    <path d="M 59.367139 213.689469 
L 65.017206 212.60606 
L 76.317339 211.305968 
L 81.967405 208.922466 
L 87.617472 207.405693 
L 93.267538 199.171779 
L 98.917604 192.454638 
L 104.567671 196.354913 
L 110.217737 193.971412 
L 115.867804 195.488185 
L 121.51787 206.105601 
L 132.818003 211.739332 
L 138.468069 211.956014 
L 144.118136 212.389378 
L 149.768202 212.172696 
L 155.418269 212.172696 
L 161.068335 211.305968 
L 166.718401 211.956014 
L 172.368468 206.755647 
L 178.018534 195.488185 
L 183.668601 181.403859 
L 189.318667 184.220724 
L 194.968734 180.103767 
L 200.6188 187.254271 
L 206.268866 190.504501 
L 211.918933 192.237956 
L 217.568999 192.021274 
L 223.219066 200.47187 
L 228.869132 195.921549 
L 234.519199 208.055739 
L 240.169265 209.572512 
L 245.819331 209.139148 
L 251.469398 209.572512 
L 257.119464 211.305968 
L 259.944497 211.739332 
L 262.769531 211.956014 
L 268.419597 213.039423 
L 274.069663 207.622375 
L 279.71973 210.872604 
L 285.369796 211.089286 
L 291.019863 211.739332 
L 296.669929 211.739332 
L 302.319996 210.43924 
L 307.970062 208.272421 
L 313.620128 211.089286 
L 319.270195 209.35583 
L 330.570328 208.922466 
L 336.220394 209.139148 
L 341.870461 210.43924 
L 347.520527 211.52265 
L 358.82066 209.789194 
L 364.470726 209.789194 
L 370.120793 209.572512 
L 375.770859 210.005876 
L 381.420925 210.872604 
L 387.070992 210.655922 
L 392.721058 211.089286 
L 398.371125 209.35583 
L 404.021191 204.588827 
L 409.671258 200.255188 
L 415.321324 196.571595 
L 420.97139 197.004959 
L 426.621457 188.554363 
L 432.271523 187.254271 
L 437.92159 206.755647 
L 449.221723 207.622375 
L 454.871789 210.655922 
L 460.521855 210.005876 
L 466.171922 208.272421 
L 471.821988 208.489103 
L 477.472055 210.222558 
L 483.122121 209.789194 
L 488.772187 206.755647 
L 494.422254 193.75473 
L 500.07232 184.004042 
L 505.722387 184.220724 
L 511.372453 178.153629 
L 517.02252 181.837223 
L 522.672586 188.554363 
L 528.322652 189.421091 
L 533.972719 189.421091 
L 539.622785 186.387544 
L 545.272852 197.438323 
L 550.922918 204.372145 
L 556.572985 209.139148 
L 562.223051 209.572512 
L 567.873117 209.789194 
L 573.523184 210.43924 
L 579.17325 210.005876 
L 581.998283 209.35583 
L 584.823317 208.489103 
L 590.473383 208.272421 
L 596.12345 208.922466 
L 601.773516 209.789194 
L 607.423582 209.572512 
L 613.073649 209.572512 
L 618.723715 208.272421 
L 630.023848 210.43924 
L 641.323981 210.005876 
L 646.974047 210.222558 
L 652.624114 209.35583 
L 658.27418 210.43924 
L 663.924247 209.789194 
L 669.574313 206.538965 
L 675.224379 207.839057 
L 680.874446 209.572512 
L 686.524512 209.35583 
L 692.174579 207.189011 
L 697.824645 209.35583 
L 703.474712 211.089286 
L 709.124778 210.005876 
L 714.774844 208.272421 
L 720.424911 206.972329 
L 726.074977 197.438323 
L 731.725044 196.354913 
L 737.37511 187.470953 
L 743.025176 189.204409 
L 748.675243 185.304134 
L 754.325309 205.455555 
L 765.625442 208.705784 
L 771.275509 209.572512 
L 776.925575 206.755647 
L 782.575641 211.089286 
L 788.225708 209.139148 
L 793.875774 208.489103 
L 799.525841 210.43924 
L 805.175907 203.288736 
L 810.825974 188.554363 
L 816.47604 179.670403 
L 822.126106 184.654088 
L 827.776173 178.803675 
L 833.426239 176.853538 
L 839.076306 183.570678 
L 844.726372 184.437406 
L 850.376439 188.554363 
L 856.026505 184.87077 
L 861.676571 194.621458 
L 867.326638 205.455555 
L 872.976704 206.105601 
L 878.626771 210.222558 
L 884.276837 206.972329 
L 889.926903 210.005876 
L 895.57697 207.405693 
L 901.227036 210.005876 
L 906.877103 210.655922 
L 912.527169 211.52265 
L 918.177236 210.222558 
L 918.177236 210.222558 
" clip-path="url(#p4c5cd975a1)" style="fill: none; stroke: #4bb062; stroke-opacity: 0.95; stroke-width: 0.936; stroke-linecap: square"/>
   </g>
   <g id="line2d_31">
    <path d="M 59.367139 218.889836 
L 65.017206 210.222558 
L 70.667272 212.389378 
L 76.317339 216.072971 
L 81.967405 209.35583 
L 87.617472 195.271503 
L 93.267538 189.421091 
L 98.917604 178.153629 
L 104.567671 161.035755 
L 110.217737 167.10285 
L 115.867804 185.737498 
L 121.51787 206.755647 
L 132.818003 209.789194 
L 138.468069 216.072971 
L 144.118136 216.939699 
L 149.768202 217.589744 
L 155.418269 212.822742 
L 161.068335 212.389378 
L 166.718401 218.889836 
L 172.368468 204.372145 
L 178.018534 184.220724 
L 183.668601 188.771045 
L 189.318667 178.153629 
L 194.968734 183.570678 
L 200.6188 163.202575 
L 206.268866 148.034838 
L 211.918933 189.637773 
L 217.568999 189.854455 
L 223.219066 183.137314 
L 228.869132 194.621458 
L 234.519199 210.005876 
L 240.169265 216.289653 
L 245.819331 216.506335 
L 251.469398 213.472787 
L 257.119464 215.639607 
L 259.944497 213.906151 
L 262.769531 211.956014 
L 268.419597 216.289653 
L 274.069663 213.906151 
L 279.71973 215.422925 
L 285.369796 215.422925 
L 291.019863 213.472787 
L 296.669929 213.689469 
L 302.319996 216.289653 
L 307.970062 216.939699 
L 313.620128 218.889836 
L 319.270195 212.172696 
L 330.570328 216.289653 
L 336.220394 214.772879 
L 341.870461 215.639607 
L 347.520527 216.289653 
L 353.170593 209.35583 
L 358.82066 216.289653 
L 364.470726 213.256105 
L 370.120793 216.072971 
L 375.770859 216.289653 
L 381.420925 213.689469 
L 387.070992 213.906151 
L 392.721058 215.206243 
L 398.371125 213.256105 
L 404.021191 203.288736 
L 409.671258 192.237956 
L 415.321324 176.853538 
L 420.97139 173.81999 
L 426.621457 159.952345 
L 432.271523 173.603308 
L 437.92159 205.672237 
L 449.221723 213.689469 
L 454.871789 213.039423 
L 460.521855 215.639607 
L 466.171922 218.673154 
L 471.821988 213.472787 
L 477.472055 215.856289 
L 483.122121 214.989561 
L 488.772187 203.7221 
L 494.422254 185.304134 
L 500.07232 108.165359 
L 505.722387 110.982225 
L 511.372453 185.95418 
L 517.02252 152.368477 
L 522.672586 110.982225 
L 528.322652 162.769211 
L 533.972719 151.718431 
L 539.622785 179.020357 
L 545.272852 193.971412 
L 550.922918 210.005876 
L 556.572985 214.556197 
L 562.223051 214.556197 
L 567.873117 213.256105 
L 573.523184 218.23979 
L 579.17325 212.389378 
L 584.823317 215.856289 
L 590.473383 213.906151 
L 596.12345 215.856289 
L 601.773516 212.172696 
L 607.423582 212.822742 
L 613.073649 208.272421 
L 618.723715 213.039423 
L 624.373782 216.723017 
L 630.023848 213.472787 
L 641.323981 216.289653 
L 646.974047 211.305968 
L 652.624114 216.289653 
L 658.27418 216.939699 
L 663.924247 215.856289 
L 669.574313 215.856289 
L 675.224379 212.172696 
L 680.874446 212.389378 
L 686.524512 215.206243 
L 692.174579 212.822742 
L 697.824645 216.072971 
L 703.474712 214.122833 
L 709.124778 217.156381 
L 714.774844 213.472787 
L 720.424911 202.63869 
L 726.074977 191.371228 
L 731.725044 183.78736 
L 737.37511 181.403859 
L 743.025176 148.468202 
L 748.675243 164.069303 
L 754.325309 208.055739 
L 765.625442 213.039423 
L 771.275509 212.60606 
L 776.925575 212.389378 
L 782.575641 213.039423 
L 788.225708 216.072971 
L 793.875774 215.639607 
L 799.525841 215.856289 
L 805.175907 204.372145 
L 810.825974 183.570678 
L 816.47604 151.718431 
L 822.126106 180.970495 
L 827.776173 191.58791 
L 833.426239 171.869853 
L 839.076306 125.066551 
L 844.726372 166.669486 
L 850.376439 142.401107 
L 856.026505 158.435572 
L 861.676571 198.955097 
L 867.326638 206.972329 
L 872.976704 211.52265 
L 878.626771 211.089286 
L 884.276837 210.43924 
L 887.10187 210.43924 
L 889.926903 210.655922 
L 895.57697 211.956014 
L 901.227036 213.906151 
L 906.877103 219.3232 
L 912.527169 213.039423 
L 918.177236 213.906151 
L 918.177236 213.906151 
" clip-path="url(#p4c5cd975a1)" style="fill: none; stroke: #2f974e; stroke-opacity: 0.95; stroke-width: 0.936; stroke-linecap: square"/>
   </g>
   <g id="line2d_32">
    <path d="M 59.367139 214.122833 
L 65.017206 218.673154 
L 70.667272 208.055739 
L 76.317339 215.206243 
L 81.967405 153.235205 
L 87.617472 101.881583 
L 93.267538 100.148127 
L 98.917604 109.682133 
L 104.567671 104.265084 
L 110.217737 112.282316 
L 115.867804 143.484517 
L 121.51787 209.572512 
L 132.818003 210.43924 
L 138.468069 219.3232 
L 144.118136 211.089286 
L 149.768202 219.3232 
L 155.418269 214.339515 
L 161.068335 215.639607 
L 166.718401 218.456472 
L 172.368468 140.667652 
L 178.018534 74.796339 
L 183.668601 92.997623 
L 189.318667 69.812654 
L 194.968734 66.345743 
L 200.6188 71.112746 
L 206.268866 86.280482 
L 211.918933 84.113663 
L 217.568999 76.529794 
L 223.219066 63.962241 
L 228.869132 177.286902 
L 234.519199 208.055739 
L 240.169265 215.206243 
L 251.469398 216.072971 
L 257.119464 214.989561 
L 262.769531 208.489103 
L 268.419597 214.122833 
L 274.069663 219.106518 
L 279.71973 214.556197 
L 285.369796 211.089286 
L 291.019863 219.3232 
L 296.669929 217.156381 
L 302.319996 219.106518 
L 307.970062 215.639607 
L 313.620128 219.106518 
L 319.270195 216.506335 
L 330.570328 212.389378 
L 336.220394 215.856289 
L 341.870461 213.472787 
L 347.520527 211.739332 
L 358.82066 213.472787 
L 364.470726 217.156381 
L 370.120793 219.3232 
L 375.770859 214.556197 
L 381.420925 215.422925 
L 387.070992 213.689469 
L 392.721058 215.422925 
L 398.371125 215.639607 
L 404.021191 134.600557 
L 409.671258 100.364809 
L 415.321324 112.282316 
L 420.97139 114.8825 
L 426.621457 87.14721 
L 432.271523 151.718431 
L 437.92159 209.572512 
L 449.221723 216.289653 
L 454.871789 215.422925 
L 460.521855 215.639607 
L 466.171922 216.072971 
L 471.821988 215.422925 
L 477.472055 214.989561 
L 483.122121 215.206243 
L 488.772187 123.333096 
L 494.422254 45.760957 
L 500.07232 30.159857 
L 505.722387 51.61137 
L 511.372453 79.996706 
L 517.02252 56.378373 
L 522.672586 27.776355 
L 528.322652 53.344826 
L 533.972719 69.37929 
L 539.622785 51.828052 
L 545.272852 139.800924 
L 550.922918 208.922466 
L 556.572985 215.206243 
L 562.223051 219.3232 
L 567.873117 214.556197 
L 573.523184 218.456472 
L 579.17325 214.339515 
L 581.998283 214.556197 
L 584.823317 214.989561 
L 590.473383 211.956014 
L 596.12345 215.422925 
L 601.773516 208.705784 
L 607.423582 210.655922 
L 613.073649 214.122833 
L 618.723715 214.339515 
L 624.373782 216.723017 
L 630.023848 210.222558 
L 641.323981 215.422925 
L 646.974047 218.23979 
L 652.624114 213.039423 
L 658.27418 209.139148 
L 663.924247 212.389378 
L 669.574313 217.589744 
L 675.224379 211.089286 
L 680.874446 209.139148 
L 686.524512 217.806426 
L 692.174579 212.822742 
L 697.824645 218.673154 
L 703.474712 214.339515 
L 709.124778 216.289653 
L 714.774844 217.373063 
L 720.424911 104.048402 
L 726.074977 107.515313 
L 737.37511 122.68305 
L 743.025176 105.565176 
L 748.675243 131.783692 
L 754.325309 204.588827 
L 765.625442 213.906151 
L 771.275509 219.3232 
L 776.925575 211.52265 
L 782.575641 213.689469 
L 788.225708 211.305968 
L 793.875774 214.989561 
L 799.525841 219.3232 
L 805.175907 122.033004 
L 810.825974 78.26325 
L 816.47604 64.178923 
L 822.126106 60.712012 
L 827.776173 73.496247 
L 833.426239 58.545192 
L 839.076306 66.562425 
L 844.726372 58.32851 
L 850.376439 26.692946 
L 856.026505 54.644917 
L 861.676571 179.887085 
L 867.326638 207.622375 
L 872.976704 218.023108 
L 878.626771 213.472787 
L 884.276837 215.639607 
L 889.926903 213.472787 
L 895.57697 212.60606 
L 901.227036 214.122833 
L 906.877103 215.856289 
L 912.527169 215.422925 
L 918.177236 215.639607 
L 918.177236 215.639607 
" clip-path="url(#p4c5cd975a1)" style="fill: none; stroke: #157f3b; stroke-opacity: 0.95; stroke-width: 0.936; stroke-linecap: square"/>
   </g>
   <g id="patch_23">
    <path d="M 42.190938 228.954713 
L 42.190938 17.061433 
" style="fill: none; stroke: #cbd5e1; stroke-width: 0.8; stroke-linejoin: miter; stroke-linecap: square"/>
   </g>
   <g id="patch_24">
    <path d="M 935.353437 228.954713 
L 935.353437 17.061433 
" style="fill: none; stroke: #cbd5e1; stroke-width: 0.8; stroke-linejoin: miter; stroke-linecap: square"/>
   </g>
   <g id="patch_25">
    <path d="M 42.190938 228.954713 
L 935.353437 228.954713 
" style="fill: none; stroke: #cbd5e1; stroke-width: 0.8; stroke-linejoin: miter; stroke-linecap: square"/>
   </g>
   <g id="patch_26">
    <path d="M 42.190938 17.061433 
L 935.353437 17.061433 
" style="fill: none; stroke: #cbd5e1; stroke-width: 0.8; stroke-linejoin: miter; stroke-linecap: square"/>
   </g>
   <g id="text_16">
    <!-- ACC -->
    <g style="fill: #475569" transform="translate(42.526538 13.27875) scale(0.08 -0.08)">
     <defs>
      <path id="DejaVuSans-41" d="M 2188 4044 
L 1331 1722 
L 3047 1722 
L 2188 4044 
z
M 1831 4666 
L 2547 4666 
L 4325 0 
L 3669 0 
L 3244 1197 
L 1141 1197 
L 716 0 
L 50 0 
L 1831 4666 
z
" transform="scale(0.015625)"/>
      <path id="DejaVuSans-43" d="M 4122 4306 
L 4122 3641 
Q 3803 3938 3442 4084 
Q 3081 4231 2675 4231 
Q 1875 4231 1450 3742 
Q 1025 3253 1025 2328 
Q 1025 1406 1450 917 
Q 1875 428 2675 428 
Q 3081 428 3442 575 
Q 3803 722 4122 1019 
L 4122 359 
Q 3791 134 3420 21 
Q 3050 -91 2638 -91 
Q 1578 -91 968 557 
Q 359 1206 359 2328 
Q 359 3453 968 4101 
Q 1578 4750 2638 4750 
Q 3056 4750 3426 4639 
Q 3797 4528 4122 4306 
z
" transform="scale(0.015625)"/>
     </defs>
     <use xlink:href="#DejaVuSans-41"/>
     <use xlink:href="#DejaVuSans-43" transform="translate(66.658203 0)"/>
     <use xlink:href="#DejaVuSans-43" transform="translate(136.482422 0)"/>
    </g>
   </g>
   <g id="text_17">
    <!-- OC -->
    <g style="fill: #475569" transform="translate(70.375464 13.27875) scale(0.08 -0.08)">
     <defs>
      <path id="DejaVuSans-4f" d="M 2522 4238 
Q 1834 4238 1429 3725 
Q 1025 3213 1025 2328 
Q 1025 1447 1429 934 
Q 1834 422 2522 422 
Q 3209 422 3611 934 
Q 4013 1447 4013 2328 
Q 4013 3213 3611 3725 
Q 3209 4238 2522 4238 
z
M 2522 4750 
Q 3503 4750 4090 4092 
Q 4678 3434 4678 2328 
Q 4678 1225 4090 567 
Q 3503 -91 2522 -91 
Q 1538 -91 948 565 
Q 359 1222 359 2328 
Q 359 3434 948 4092 
Q 1538 4750 2522 4750 
z
" transform="scale(0.015625)"/>
     </defs>
     <use xlink:href="#DejaVuSans-4f"/>
     <use xlink:href="#DejaVuSans-43" transform="translate(78.710938 0)"/>
    </g>
   </g>
   <g id="text_18">
    <!-- FCS -->
    <g style="fill: #475569" transform="translate(99.759579 13.27875) scale(0.08 -0.08)">
     <defs>
      <path id="DejaVuSans-46" d="M 628 4666 
L 3309 4666 
L 3309 4134 
L 1259 4134 
L 1259 2759 
L 3109 2759 
L 3109 2228 
L 1259 2228 
L 1259 0 
L 628 0 
L 628 4666 
z
" transform="scale(0.015625)"/>
      <path id="DejaVuSans-53" d="M 3425 4513 
L 3425 3897 
Q 3066 4069 2747 4153 
Q 2428 4238 2131 4238 
Q 1616 4238 1336 4038 
Q 1056 3838 1056 3469 
Q 1056 3159 1242 3001 
Q 1428 2844 1947 2747 
L 2328 2669 
Q 3034 2534 3370 2195 
Q 3706 1856 3706 1288 
Q 3706 609 3251 259 
Q 2797 -91 1919 -91 
Q 1588 -91 1214 -16 
Q 841 59 441 206 
L 441 856 
Q 825 641 1194 531 
Q 1563 422 1919 422 
Q 2459 422 2753 634 
Q 3047 847 3047 1241 
Q 3047 1584 2836 1778 
Q 2625 1972 2144 2069 
L 1759 2144 
Q 1053 2284 737 2584 
Q 422 2884 422 3419 
Q 422 4038 858 4394 
Q 1294 4750 2059 4750 
Q 2388 4750 2728 4690 
Q 3069 4631 3425 4513 
z
" transform="scale(0.015625)"/>
     </defs>
     <use xlink:href="#DejaVuSans-46"/>
     <use xlink:href="#DejaVuSans-43" transform="translate(57.519531 0)"/>
     <use xlink:href="#DejaVuSans-53" transform="translate(127.34375 0)"/>
    </g>
   </g>
   <g id="text_19">
    <!-- SR -->
    <g style="fill: #475569" transform="translate(141.624419 13.27875) scale(0.08 -0.08)">
     <defs>
      <path id="DejaVuSans-52" d="M 2841 2188 
Q 3044 2119 3236 1894 
Q 3428 1669 3622 1275 
L 4263 0 
L 3584 0 
L 2988 1197 
Q 2756 1666 2539 1819 
Q 2322 1972 1947 1972 
L 1259 1972 
L 1259 0 
L 628 0 
L 628 4666 
L 2053 4666 
Q 2853 4666 3247 4331 
Q 3641 3997 3641 3322 
Q 3641 2881 3436 2590 
Q 3231 2300 2841 2188 
z
M 1259 4147 
L 1259 2491 
L 2053 2491 
Q 2509 2491 2742 2702 
Q 2975 2913 2975 3322 
Q 2975 3731 2742 3939 
Q 2509 4147 2053 4147 
L 1259 4147 
z
" transform="scale(0.015625)"/>
     </defs>
     <use xlink:href="#DejaVuSans-53"/>
     <use xlink:href="#DejaVuSans-52" transform="translate(63.476562 0)"/>
    </g>
   </g>
   <g id="text_20">
    <!-- FFC -->
    <g style="fill: #475569" transform="translate(193.224425 13.27875) scale(0.08 -0.08)">
     <use xlink:href="#DejaVuSans-46"/>
     <use xlink:href="#DejaVuSans-46" transform="translate(57.519531 0)"/>
     <use xlink:href="#DejaVuSans-43" transform="translate(115.039062 0)"/>
    </g>
   </g>
   <g id="text_21">
    <!-- SS -->
    <g style="fill: #475569" transform="translate(302.891312 13.27875) scale(0.08 -0.08)">
     <use xlink:href="#DejaVuSans-53"/>
     <use xlink:href="#DejaVuSans-53" transform="translate(63.476562 0)"/>
    </g>
   </g>
   <g id="text_22">
    <!-- OC -->
    <g style="fill: #475569" transform="translate(389.604217 13.27875) scale(0.08 -0.08)">
     <use xlink:href="#DejaVuSans-4f"/>
     <use xlink:href="#DejaVuSans-43" transform="translate(78.710938 0)"/>
    </g>
   </g>
   <g id="text_23">
    <!-- FCS -->
    <g style="fill: #475569" transform="translate(416.163299 13.27875) scale(0.08 -0.08)">
     <use xlink:href="#DejaVuSans-46"/>
     <use xlink:href="#DejaVuSans-43" transform="translate(57.519531 0)"/>
     <use xlink:href="#DejaVuSans-53" transform="translate(127.34375 0)"/>
    </g>
   </g>
   <g id="text_24">
    <!-- SR -->
    <g style="fill: #475569" transform="translate(458.028139 13.27875) scale(0.08 -0.08)">
     <use xlink:href="#DejaVuSans-53"/>
     <use xlink:href="#DejaVuSans-52" transform="translate(63.476562 0)"/>
    </g>
   </g>
   <g id="text_25">
    <!-- FFC -->
    <g style="fill: #475569" transform="translate(509.628145 13.27875) scale(0.08 -0.08)">
     <use xlink:href="#DejaVuSans-46"/>
     <use xlink:href="#DejaVuSans-46" transform="translate(57.519531 0)"/>
     <use xlink:href="#DejaVuSans-43" transform="translate(115.039062 0)"/>
    </g>
   </g>
   <g id="text_26">
    <!-- SS -->
    <g style="fill: #475569" transform="translate(619.295032 13.27875) scale(0.08 -0.08)">
     <use xlink:href="#DejaVuSans-53"/>
     <use xlink:href="#DejaVuSans-53" transform="translate(63.476562 0)"/>
    </g>
   </g>
   <g id="text_27">
    <!-- OC -->
    <g style="fill: #475569" transform="translate(706.007936 13.27875) scale(0.08 -0.08)">
     <use xlink:href="#DejaVuSans-4f"/>
     <use xlink:href="#DejaVuSans-43" transform="translate(78.710938 0)"/>
    </g>
   </g>
   <g id="text_28">
    <!-- FCS -->
    <g style="fill: #475569" transform="translate(732.567018 13.27875) scale(0.08 -0.08)">
     <use xlink:href="#DejaVuSans-46"/>
     <use xlink:href="#DejaVuSans-43" transform="translate(57.519531 0)"/>
     <use xlink:href="#DejaVuSans-53" transform="translate(127.34375 0)"/>
    </g>
   </g>
   <g id="text_29">
    <!-- SR -->
    <g style="fill: #475569" transform="translate(774.431858 13.27875) scale(0.08 -0.08)">
     <use xlink:href="#DejaVuSans-53"/>
     <use xlink:href="#DejaVuSans-52" transform="translate(63.476562 0)"/>
    </g>
   </g>
   <g id="text_30">
    <!-- FFC -->
    <g style="fill: #475569" transform="translate(826.031864 13.27875) scale(0.08 -0.08)">
     <use xlink:href="#DejaVuSans-46"/>
     <use xlink:href="#DejaVuSans-46" transform="translate(57.519531 0)"/>
     <use xlink:href="#DejaVuSans-43" transform="translate(115.039062 0)"/>
    </g>
   </g>
   <g id="text_31">
    <!-- SS -->
    <g style="fill: #475569" transform="translate(887.673187 13.27875) scale(0.08 -0.08)">
     <use xlink:href="#DejaVuSans-53"/>
     <use xlink:href="#DejaVuSans-53" transform="translate(63.476562 0)"/>
    </g>
   </g>
   <g id="legend_1">
    <g id="line2d_33">
     <path d="M 846.228437 27.540183 
L 854.228437 27.540183 
L 862.228437 27.540183 
" style="fill: none; stroke: #b8e3b2; stroke-opacity: 0.95; stroke-width: 1.3; stroke-linecap: square"/>
    </g>
    <g id="text_32">
     <!-- V1 -->
     <g transform="translate(868.628437 30.340183) scale(0.08 -0.08)">
      <use xlink:href="#DejaVuSans-56"/>
      <use xlink:href="#DejaVuSans-31" transform="translate(68.408203 0)"/>
     </g>
    </g>
    <g id="line2d_34">
     <path d="M 846.228437 39.282683 
L 854.228437 39.282683 
L 862.228437 39.282683 
" style="fill: none; stroke: #98d594; stroke-opacity: 0.95; stroke-width: 1.3; stroke-linecap: square"/>
    </g>
    <g id="text_33">
     <!-- V2 -->
     <g transform="translate(868.628437 42.082683) scale(0.08 -0.08)">
      <use xlink:href="#DejaVuSans-56"/>
      <use xlink:href="#DejaVuSans-32" transform="translate(68.408203 0)"/>
     </g>
    </g>
    <g id="line2d_35">
     <path d="M 846.228437 51.025183 
L 854.228437 51.025183 
L 862.228437 51.025183 
" style="fill: none; stroke: #73c476; stroke-opacity: 0.95; stroke-width: 1.3; stroke-linecap: square"/>
    </g>
    <g id="text_34">
     <!-- V3 -->
     <g transform="translate(868.628437 53.825183) scale(0.08 -0.08)">
      <defs>
       <path id="DejaVuSans-33" d="M 2597 2516 
Q 3050 2419 3304 2112 
Q 3559 1806 3559 1356 
Q 3559 666 3084 287 
Q 2609 -91 1734 -91 
Q 1441 -91 1130 -33 
Q 819 25 488 141 
L 488 750 
Q 750 597 1062 519 
Q 1375 441 1716 441 
Q 2309 441 2620 675 
Q 2931 909 2931 1356 
Q 2931 1769 2642 2001 
Q 2353 2234 1838 2234 
L 1294 2234 
L 1294 2753 
L 1863 2753 
Q 2328 2753 2575 2939 
Q 2822 3125 2822 3475 
Q 2822 3834 2567 4026 
Q 2313 4219 1838 4219 
Q 1578 4219 1281 4162 
Q 984 4106 628 3988 
L 628 4550 
Q 988 4650 1302 4700 
Q 1616 4750 1894 4750 
Q 2613 4750 3031 4423 
Q 3450 4097 3450 3541 
Q 3450 3153 3228 2886 
Q 3006 2619 2597 2516 
z
" transform="scale(0.015625)"/>
      </defs>
      <use xlink:href="#DejaVuSans-56"/>
      <use xlink:href="#DejaVuSans-33" transform="translate(68.408203 0)"/>
     </g>
    </g>
    <g id="line2d_36">
     <path d="M 895.190937 27.540183 
L 903.190937 27.540183 
L 911.190937 27.540183 
" style="fill: none; stroke: #4bb062; stroke-opacity: 0.95; stroke-width: 1.3; stroke-linecap: square"/>
    </g>
    <g id="text_35">
     <!-- V4 -->
     <g transform="translate(917.590937 30.340183) scale(0.08 -0.08)">
      <use xlink:href="#DejaVuSans-56"/>
      <use xlink:href="#DejaVuSans-34" transform="translate(68.408203 0)"/>
     </g>
    </g>
    <g id="line2d_37">
     <path d="M 895.190937 39.282683 
L 903.190937 39.282683 
L 911.190937 39.282683 
" style="fill: none; stroke: #2f974e; stroke-opacity: 0.95; stroke-width: 1.3; stroke-linecap: square"/>
    </g>
    <g id="text_36">
     <!-- V5 -->
     <g transform="translate(917.590937 42.082683) scale(0.08 -0.08)">
      <defs>
       <path id="DejaVuSans-35" d="M 691 4666 
L 3169 4666 
L 3169 4134 
L 1269 4134 
L 1269 2991 
Q 1406 3038 1543 3061 
Q 1681 3084 1819 3084 
Q 2600 3084 3056 2656 
Q 3513 2228 3513 1497 
Q 3513 744 3044 326 
Q 2575 -91 1722 -91 
Q 1428 -91 1123 -41 
Q 819 9 494 109 
L 494 744 
Q 775 591 1075 516 
Q 1375 441 1709 441 
Q 2250 441 2565 725 
Q 2881 1009 2881 1497 
Q 2881 1984 2565 2268 
Q 2250 2553 1709 2553 
Q 1456 2553 1204 2497 
Q 953 2441 691 2322 
L 691 4666 
z
" transform="scale(0.015625)"/>
      </defs>
      <use xlink:href="#DejaVuSans-56"/>
      <use xlink:href="#DejaVuSans-35" transform="translate(68.408203 0)"/>
     </g>
    </g>
    <g id="line2d_38">
     <path d="M 895.190937 51.025183 
L 903.190937 51.025183 
L 911.190937 51.025183 
" style="fill: none; stroke: #157f3b; stroke-opacity: 0.95; stroke-width: 1.3; stroke-linecap: square"/>
    </g>
    <g id="text_37">
     <!-- V6 -->
     <g transform="translate(917.590937 53.825183) scale(0.08 -0.08)">
      <use xlink:href="#DejaVuSans-56"/>
      <use xlink:href="#DejaVuSans-36" transform="translate(68.408203 0)"/>
     </g>
    </g>
   </g>
  </g>
 </g>
 <defs>
  <clipPath id="p4c5cd975a1">
   <rect x="42.190938" y="17.061433" width="893.1625" height="211.89328"/>
  </clipPath>
 </defs>
</svg>
